<svg xmlns="http://www.w3.org/2000/svg" width="2400" height="1800" viewBox="0 0 2400 1800"><rect width="2400" height="1800" fill="#dfe4dc"/><rect y="1400" width="2400" height="400" fill="#c2a67e"/><line x1="60" y1="1400" x2="10" y2="1800" stroke="#00000015" stroke-width="5"/><line x1="260" y1="1400" x2="210" y2="1800" stroke="#00000015" stroke-width="5"/><line x1="460" y1="1400" x2="410" y2="1800" stroke="#00000015" stroke-width="5"/><line x1="660" y1="1400" x2="610" y2="1800" stroke="#00000015" stroke-width="5"/><line x1="860" y1="1400" x2="810" y2="1800" stroke="#00000015" stroke-width="5"/><line x1="1060" y1="1400" x2="1010" y2="1800" stroke="#00000015" stroke-width="5"/><line x1="1260" y1="1400" x2="1210" y2="1800" stroke="#00000015" stroke-width="5"/><line x1="1460" y1="1400" x2="1410" y2="1800" stroke="#00000015" stroke-width="5"/><line x1="1660" y1="1400" x2="1610" y2="1800" stroke="#00000015" stroke-width="5"/><line x1="1860" y1="1400" x2="1810" y2="1800" stroke="#00000015" stroke-width="5"/><line x1="2060" y1="1400" x2="2010" y2="1800" stroke="#00000015" stroke-width="5"/><line x1="2260" y1="1400" x2="2210" y2="1800" stroke="#00000015" stroke-width="5"/><rect x="180" y="260" width="900" height="620" fill="#8a6a48"/><rect x="215" y="295" width="830" height="550" fill="#41524a"/><line x1="280" y1="420" x2="760" y2="420" stroke="#ffffff66" stroke-width="9" stroke-linecap="round"/><line x1="280" y1="520" x2="620" y2="520" stroke="#ffffff44" stroke-width="9" stroke-linecap="round"/><circle cx="880" cy="560" r="90" fill="none" stroke="#ffffff55" stroke-width="8"/><rect x="215" y="845" width="830" height="22" fill="#6f5436"/><rect x="330" y="1240" width="640" height="60" rx="10" fill="#9c7449"/><rect x="370" y="1300" width="60" height="240" fill="#8a6540"/><rect x="870" y="1300" width="60" height="240" fill="#8a6540"/><rect x="430" y="1160" width="150" height="80" rx="8" fill="#b3672f"/><rect x="450" y="1120" width="150" height="40" rx="8" fill="#bfa87c"/><circle cx="800" cy="1130" r="86" fill="#7fa3b8"/><path d="M760,1060 Q820,1100 780,1190 M740,1090 Q800,1120 850,1100" stroke="#5d8069" stroke-width="16" fill="none" stroke-linecap="round"/><circle cx="800" cy="1130" r="86" fill="none" stroke="#6b5233" stroke-width="7"/><line x1="800" y1="1216" x2="800" y2="1250" stroke="#6b5233" stroke-width="10"/><rect x="750" y="1244" width="100" height="14" rx="7" fill="#6b5233"/><rect x="1980" y="700" width="300" height="800" fill="#9c7449"/><rect x="2000" y="930" width="260" height="16" fill="#7c5a37"/><rect x="2020" y="790" width="36" height="140" fill="#b3502f"/><rect x="2066" y="802" width="36" height="128" fill="#39685c"/><rect x="2112" y="790" width="36" height="140" fill="#c9a227"/><rect x="2158" y="802" width="36" height="128" fill="#2c4661"/><rect x="2204" y="790" width="36" height="140" fill="#8a4423"/><rect x="2000" y="1180" width="260" height="16" fill="#7c5a37"/><rect x="2020" y="1040" width="36" height="140" fill="#39685c"/><rect x="2066" y="1052" width="36" height="128" fill="#c9a227"/><rect x="2112" y="1040" width="36" height="140" fill="#2c4661"/><rect x="2158" y="1052" width="36" height="128" fill="#8a4423"/><rect x="2204" y="1040" width="36" height="140" fill="#b3502f"/><rect x="2000" y="1430" width="260" height="16" fill="#7c5a37"/><rect x="2020" y="1290" width="36" height="140" fill="#c9a227"/><rect x="2066" y="1302" width="36" height="128" fill="#2c4661"/><rect x="2112" y="1290" width="36" height="140" fill="#8a4423"/><rect x="2158" y="1302" width="36" height="128" fill="#b3502f"/><rect x="2204" y="1290" width="36" height="140" fill="#39685c"/><defs><filter id="a33c-sh" x="-30%" y="-30%" width="160%" height="160%"><feGaussianBlur stdDeviation="16"/></filter></defs><rect x="1340.5" y="298.5" width="517" height="635" fill="#000" opacity="0.28" filter="url(#a33c-sh)"/><rect x="1326.5" y="276.5" width="517" height="635" fill="#3d342a"/><rect x="1341.8" y="291.8" width="486.4" height="604.5" fill="none" stroke="#00000055" stroke-width="3"/><rect x="1350" y="300" width="470" height="588" fill="#f6f2ea"/><svg x="1385.3" y="335.3" width="399.5" height="517.5" viewBox="0 0 2400 3000" preserveAspectRatio="xMidYMid slice"><filter id="a33-warp" x="-4%" y="-4%" width="108%" height="108%"><feTurbulence type="fractalNoise" baseFrequency="0.0105" numOctaves="2" seed="7231" result="w"/><feDisplacementMap in="SourceGraphic" in2="w" scale="11" xChannelSelector="R" yChannelSelector="G"/></filter><filter id="a33-grain" x="0%" y="0%" width="100%" height="100%"><feTurbulence type="fractalNoise" baseFrequency="0.6" numOctaves="2" seed="7238"/><feColorMatrix type="matrix" values="0.33 0.33 0.33 0 0.62  0.33 0.33 0.33 0 0.62  0.33 0.33 0.33 0 0.62  0 0 0 0 1"/></filter><filter id="a33-mottle" x="0%" y="0%" width="100%" height="100%"><feTurbulence type="fractalNoise" baseFrequency="0.0045" numOctaves="3" seed="7244"/><feColorMatrix type="matrix" values="0.2 0.2 0.2 0 0.78  0.2 0.2 0.2 0 0.78  0.2 0.2 0.2 0 0.78  0 0 0 0 1"/></filter><filter id="a33-fade" x="0%" y="0%" width="100%" height="100%"><feTurbulence type="fractalNoise" baseFrequency="0.006" numOctaves="2" seed="7260"/><feColorMatrix type="matrix" values="0.3 0.3 0.3 0 -0.08  0.3 0.3 0.3 0 -0.08  0.3 0.3 0.3 0 -0.1  0 0 0 0 1"/></filter><filter id="a33-blur9"><feGaussianBlur stdDeviation="9"/></filter><radialGradient id="a33-vig" cx="50%" cy="44%" r="78%"><stop offset="52%" stop-color="#241a10" stop-opacity="0"/><stop offset="100%" stop-color="#241a10" stop-opacity="0.17"/></radialGradient><radialGradient id="a33-warm" cx="61%" cy="30%" r="85%"><stop offset="0%" stop-color="#e8c890" stop-opacity="0.14"/><stop offset="70%" stop-color="#e8c890" stop-opacity="0"/></radialGradient><rect width="2400" height="3000" fill="#dcc8a0"/><rect width="2400" height="3000" fill="url(#a33-warm)"/><rect x="0" width="26.2" height="3000" fill="#6b4e26" opacity="0.060"/><rect x="36.3" width="23.8" height="3000" fill="#6b4e26" opacity="0.047"/><rect x="69.4" width="38.1" height="3000" fill="#6b4e26" opacity="0.044"/><rect x="122.3" width="28.6" height="3000" fill="#6b4e26" opacity="0.053"/><rect x="162" width="21.2" height="3000" fill="#6b4e26" opacity="0.091"/><rect x="191.4" width="28.6" height="3000" fill="#6b4e26" opacity="0.086"/><rect x="231.1" width="34.8" height="3000" fill="#6b4e26" opacity="0.057"/><rect x="279.4" width="36.7" height="3000" fill="#6b4e26" opacity="0.093"/><rect x="330.4" width="41.8" height="3000" fill="#6b4e26" opacity="0.046"/><rect x="388.4" width="33.8" height="3000" fill="#6b4e26" opacity="0.047"/><rect x="435.4" width="20.7" height="3000" fill="#6b4e26" opacity="0.093"/><rect x="464.2" width="21.7" height="3000" fill="#6b4e26" opacity="0.041"/><rect x="494.3" width="25.5" height="3000" fill="#6b4e26" opacity="0.095"/><rect x="529.8" width="39.8" height="3000" fill="#6b4e26" opacity="0.084"/><rect x="585" width="26.7" height="3000" fill="#6b4e26" opacity="0.035"/><rect x="622.2" width="41.5" height="3000" fill="#6b4e26" opacity="0.099"/><rect x="679.8" width="30.9" height="3000" fill="#6b4e26" opacity="0.089"/><rect x="722.7" width="18.9" height="3000" fill="#6b4e26" opacity="0.038"/><rect x="748.9" width="23.9" height="3000" fill="#6b4e26" opacity="0.071"/><rect x="782.2" width="40.3" height="3000" fill="#6b4e26" opacity="0.050"/><rect x="838.1" width="25.2" height="3000" fill="#6b4e26" opacity="0.095"/><rect x="873.1" width="20.1" height="3000" fill="#6b4e26" opacity="0.049"/><rect x="901" width="29.9" height="3000" fill="#6b4e26" opacity="0.050"/><rect x="942.4" width="34.4" height="3000" fill="#6b4e26" opacity="0.080"/><rect x="990.3" width="36" height="3000" fill="#6b4e26" opacity="0.092"/><rect x="1040.3" width="38.5" height="3000" fill="#6b4e26" opacity="0.059"/><rect x="1093.8" width="37.8" height="3000" fill="#6b4e26" opacity="0.033"/><rect x="1146.3" width="24.4" height="3000" fill="#6b4e26" opacity="0.070"/><rect x="1180.2" width="39.1" height="3000" fill="#6b4e26" opacity="0.072"/><rect x="1234.5" width="40.9" height="3000" fill="#6b4e26" opacity="0.094"/><rect x="1291.3" width="24.3" height="3000" fill="#6b4e26" opacity="0.079"/><rect x="1325.1" width="42" height="3000" fill="#6b4e26" opacity="0.058"/><rect x="1383.4" width="36.1" height="3000" fill="#6b4e26" opacity="0.073"/><rect x="1433.5" width="43.2" height="3000" fill="#6b4e26" opacity="0.045"/><rect x="1493.4" width="25.2" height="3000" fill="#6b4e26" opacity="0.076"/><rect x="1528.5" width="22.7" height="3000" fill="#6b4e26" opacity="0.077"/><rect x="1560" width="37.2" height="3000" fill="#6b4e26" opacity="0.076"/><rect x="1611.6" width="33.1" height="3000" fill="#6b4e26" opacity="0.034"/><rect x="1657.5" width="32.5" height="3000" fill="#6b4e26" opacity="0.056"/><rect x="1702.6" width="29.7" height="3000" fill="#6b4e26" opacity="0.092"/><rect x="1743.8" width="38.5" height="3000" fill="#6b4e26" opacity="0.088"/><rect x="1797.3" width="28" height="3000" fill="#6b4e26" opacity="0.091"/><rect x="1836.2" width="31" height="3000" fill="#6b4e26" opacity="0.043"/><rect x="1879.2" width="21.1" height="3000" fill="#6b4e26" opacity="0.093"/><rect x="1908.6" width="41.3" height="3000" fill="#6b4e26" opacity="0.064"/><rect x="1966" width="37.2" height="3000" fill="#6b4e26" opacity="0.076"/><rect x="2017.6" width="32.4" height="3000" fill="#6b4e26" opacity="0.097"/><rect x="2062.6" width="21.5" height="3000" fill="#6b4e26" opacity="0.084"/><rect x="2092.5" width="35" height="3000" fill="#6b4e26" opacity="0.060"/><rect x="2141.2" width="43.2" height="3000" fill="#6b4e26" opacity="0.035"/><rect x="2201.1" width="34.1" height="3000" fill="#6b4e26" opacity="0.075"/><rect x="2248.5" width="35" height="3000" fill="#6b4e26" opacity="0.076"/><rect x="2297" width="34.4" height="3000" fill="#6b4e26" opacity="0.046"/><rect x="2344.8" width="34.8" height="3000" fill="#6b4e26" opacity="0.069"/><rect x="2393" width="31.5" height="3000" fill="#6b4e26" opacity="0.069"/><rect y="0" width="2400" height="19.9" fill="#7c5c30" opacity="0.052"/><rect y="33.1" width="2400" height="18.4" fill="#7c5c30" opacity="0.038"/><rect y="63.9" width="2400" height="23.9" fill="#7c5c30" opacity="0.036"/><rect y="103.7" width="2400" height="13.7" fill="#7c5c30" opacity="0.045"/><rect y="126.5" width="2400" height="23.5" fill="#7c5c30" opacity="0.046"/><rect y="165.6" width="2400" height="15" fill="#7c5c30" opacity="0.039"/><rect y="190.5" width="2400" height="23.1" fill="#7c5c30" opacity="0.024"/><rect y="229.1" width="2400" height="22.6" fill="#7c5c30" opacity="0.030"/><rect y="266.8" width="2400" height="19.1" fill="#7c5c30" opacity="0.037"/><rect y="298.6" width="2400" height="22.4" fill="#7c5c30" opacity="0.044"/><rect y="336" width="2400" height="23.4" fill="#7c5c30" opacity="0.051"/><rect y="375" width="2400" height="26.6" fill="#7c5c30" opacity="0.038"/><rect y="419.3" width="2400" height="25.2" fill="#7c5c30" opacity="0.058"/><rect y="461.3" width="2400" height="18.8" fill="#7c5c30" opacity="0.054"/><rect y="492.6" width="2400" height="14.6" fill="#7c5c30" opacity="0.054"/><rect y="516.9" width="2400" height="20.1" fill="#7c5c30" opacity="0.025"/><rect y="550.4" width="2400" height="17.4" fill="#7c5c30" opacity="0.047"/><rect y="579.5" width="2400" height="27" fill="#7c5c30" opacity="0.054"/><rect y="624.4" width="2400" height="13.4" fill="#7c5c30" opacity="0.046"/><rect y="646.8" width="2400" height="16.9" fill="#7c5c30" opacity="0.053"/><rect y="674.9" width="2400" height="13.4" fill="#7c5c30" opacity="0.046"/><rect y="697.3" width="2400" height="24.8" fill="#7c5c30" opacity="0.028"/><rect y="738.6" width="2400" height="16.2" fill="#7c5c30" opacity="0.044"/><rect y="765.6" width="2400" height="26.7" fill="#7c5c30" opacity="0.038"/><rect y="810.1" width="2400" height="22.9" fill="#7c5c30" opacity="0.033"/><rect y="848.2" width="2400" height="27.4" fill="#7c5c30" opacity="0.037"/><rect y="893.8" width="2400" height="26.9" fill="#7c5c30" opacity="0.052"/><rect y="938.7" width="2400" height="12.4" fill="#7c5c30" opacity="0.049"/><rect y="959.4" width="2400" height="18.3" fill="#7c5c30" opacity="0.053"/><rect y="989.9" width="2400" height="16.7" fill="#7c5c30" opacity="0.033"/><rect y="1017.7" width="2400" height="19.6" fill="#7c5c30" opacity="0.030"/><rect y="1050.3" width="2400" height="15.7" fill="#7c5c30" opacity="0.043"/><rect y="1076.4" width="2400" height="25.1" fill="#7c5c30" opacity="0.039"/><rect y="1118.3" width="2400" height="17.7" fill="#7c5c30" opacity="0.039"/><rect y="1147.8" width="2400" height="14.3" fill="#7c5c30" opacity="0.029"/><rect y="1171.7" width="2400" height="26.8" fill="#7c5c30" opacity="0.031"/><rect y="1216.3" width="2400" height="19.7" fill="#7c5c30" opacity="0.039"/><rect y="1249.1" width="2400" height="13" fill="#7c5c30" opacity="0.052"/><rect y="1270.8" width="2400" height="23.9" fill="#7c5c30" opacity="0.023"/><rect y="1310.7" width="2400" height="18.9" fill="#7c5c30" opacity="0.020"/><rect y="1342.1" width="2400" height="20.2" fill="#7c5c30" opacity="0.057"/><rect y="1375.7" width="2400" height="21.9" fill="#7c5c30" opacity="0.039"/><rect y="1412.2" width="2400" height="25.6" fill="#7c5c30" opacity="0.035"/><rect y="1454.9" width="2400" height="13.8" fill="#7c5c30" opacity="0.046"/><rect y="1477.9" width="2400" height="22.3" fill="#7c5c30" opacity="0.052"/><rect y="1515.1" width="2400" height="25.3" fill="#7c5c30" opacity="0.034"/><rect y="1557.3" width="2400" height="26.5" fill="#7c5c30" opacity="0.032"/><rect y="1601.5" width="2400" height="12.3" fill="#7c5c30" opacity="0.042"/><rect y="1622" width="2400" height="13" fill="#7c5c30" opacity="0.022"/><rect y="1643.7" width="2400" height="17.6" fill="#7c5c30" opacity="0.046"/><rect y="1673.1" width="2400" height="17.9" fill="#7c5c30" opacity="0.027"/><rect y="1703" width="2400" height="24.4" fill="#7c5c30" opacity="0.056"/><rect y="1743.7" width="2400" height="20" fill="#7c5c30" opacity="0.057"/><rect y="1777.2" width="2400" height="28" fill="#7c5c30" opacity="0.034"/><rect y="1823.9" width="2400" height="24.7" fill="#7c5c30" opacity="0.057"/><rect y="1865.1" width="2400" height="18.9" fill="#7c5c30" opacity="0.023"/><rect y="1896.5" width="2400" height="12.4" fill="#7c5c30" opacity="0.026"/><rect y="1917.1" width="2400" height="22.7" fill="#7c5c30" opacity="0.031"/><rect y="1954.9" width="2400" height="19.3" fill="#7c5c30" opacity="0.052"/><rect y="1987.1" width="2400" height="20.9" fill="#7c5c30" opacity="0.030"/><rect y="2022" width="2400" height="21.1" fill="#7c5c30" opacity="0.030"/><rect y="2057.2" width="2400" height="22.8" fill="#7c5c30" opacity="0.041"/><rect y="2095.2" width="2400" height="12.6" fill="#7c5c30" opacity="0.032"/><rect y="2116.2" width="2400" height="23.4" fill="#7c5c30" opacity="0.021"/><rect y="2155.2" width="2400" height="27.2" fill="#7c5c30" opacity="0.023"/><rect y="2200.6" width="2400" height="21" fill="#7c5c30" opacity="0.042"/><rect y="2235.5" width="2400" height="18.9" fill="#7c5c30" opacity="0.035"/><rect y="2267.1" width="2400" height="21" fill="#7c5c30" opacity="0.038"/><rect y="2302" width="2400" height="13.3" fill="#7c5c30" opacity="0.027"/><rect y="2324.1" width="2400" height="24.2" fill="#7c5c30" opacity="0.044"/><rect y="2364.4" width="2400" height="27.3" fill="#7c5c30" opacity="0.036"/><rect y="2410" width="2400" height="14" fill="#7c5c30" opacity="0.059"/><rect y="2433.3" width="2400" height="21.1" fill="#7c5c30" opacity="0.020"/><rect y="2468.5" width="2400" height="13.4" fill="#7c5c30" opacity="0.059"/><rect y="2490.9" width="2400" height="28.1" fill="#7c5c30" opacity="0.048"/><rect y="2537.7" width="2400" height="23" fill="#7c5c30" opacity="0.035"/><rect y="2576.1" width="2400" height="27.7" fill="#7c5c30" opacity="0.027"/><rect y="2622.3" width="2400" height="27.1" fill="#7c5c30" opacity="0.022"/><rect y="2667.5" width="2400" height="18" fill="#7c5c30" opacity="0.023"/><rect y="2697.6" width="2400" height="17.8" fill="#7c5c30" opacity="0.029"/><rect y="2727.3" width="2400" height="19.5" fill="#7c5c30" opacity="0.047"/><rect y="2759.7" width="2400" height="21.3" fill="#7c5c30" opacity="0.036"/><rect y="2795.2" width="2400" height="23.7" fill="#7c5c30" opacity="0.049"/><rect y="2834.6" width="2400" height="20.5" fill="#7c5c30" opacity="0.056"/><rect y="2868.8" width="2400" height="14.7" fill="#7c5c30" opacity="0.043"/><rect y="2893.3" width="2400" height="17.4" fill="#7c5c30" opacity="0.048"/><rect y="2922.4" width="2400" height="18.8" fill="#7c5c30" opacity="0.028"/><rect y="2953.8" width="2400" height="16.9" fill="#7c5c30" opacity="0.027"/><rect y="2981.9" width="2400" height="25.2" fill="#7c5c30" opacity="0.034"/><g filter="url(#a33-warp)"><clipPath id="a33-gz"><rect x="150" y="150" width="2100" height="2700"/></clipPath><g clip-path="url(#a33-gz)"><circle cx="1061.7" cy="948.9" r="367.2" fill="#b3672f"/><path d="M150,2050 C 700,1986.6 1100,2113.4 1600,2012 S 2200,2075.4 2250,2030 L2250,2850 L150,2850 Z" fill="#37301f" opacity="0.35"/><path d="M150,2270 C 700,2151.6 1100,2388.4 1600,2198.9 S 2200,2317.4 2250,2250 L2250,2850 L150,2850 Z" fill="#bfa87c" opacity="0.9"/><path d="M150,2520 C 700,2457.7 1100,2582.3 1600,2482.6 S 2200,2544.9 2250,2500 L2250,2850 L150,2850 Z" fill="#37301f" opacity="1"/><polygon points="695.9,1202.8 220,2130 800.2,2130" fill="#37301f"/><polygon points="695.9,1202.8 800.2,2130 1171.9,2130" fill="#37301f" opacity="0.6"/><polygon points="1326,1481.8 832.6,2130 1423,2130" fill="#37301f"/><polygon points="1326,1481.8 1423,2130 1819.5,2130" fill="#37301f" opacity="0.6"/><polygon points="1756.2,1435.3 1332.3,2130 1833.4,2130" fill="#37301f"/><polygon points="1756.2,1435.3 1833.4,2130 2180,2130" fill="#37301f" opacity="0.6"/><path d="M933.7,780.1 q 26,-24 52,0 q 26,-24 52,0" fill="none" stroke="#37301f" stroke-width="8" stroke-linecap="round"/><path d="M1408.1,1044.6 q 26,-24 52,0 q 26,-24 52,0" fill="none" stroke="#37301f" stroke-width="8" stroke-linecap="round"/></g><polyline points="240,2800 300,2740 360,2800 420,2740 480,2800 540,2740 600,2800 660,2740 720,2800 780,2740 840,2800 900,2740 960,2800 1020,2740 1080,2800 1140,2740 1200,2800 1260,2740 1320,2800 1380,2740 1440,2800 1500,2740 1560,2800 1620,2740 1680,2800 1740,2740 1800,2800 1860,2740 1920,2800 1980,2740 2040,2800 2100,2740 2160,2800 " fill="none" stroke="#37301f" stroke-width="10.8" stroke-linejoin="miter"/><rect x="120" y="120" width="2160" height="2760" fill="none" stroke="#37301f" stroke-width="6" opacity="0.85"/></g><rect width="2400" height="3000" filter="url(#a33-mottle)" style="mix-blend-mode:multiply" opacity="0.5"/><rect width="2400" height="3000" filter="url(#a33-fade)" style="mix-blend-mode:screen" opacity="0.55"/><rect width="2400" height="3000" filter="url(#a33-grain)" style="mix-blend-mode:multiply" opacity="0.32"/><ellipse cx="563.9" cy="506.9" rx="160.5" ry="107.9" fill="#6b4a22" opacity="0.038" filter="url(#a33-blur9)"/><ellipse cx="255.4" cy="363.2" rx="298.7" ry="200.4" fill="#6b4a22" opacity="0.044" filter="url(#a33-blur9)"/><ellipse cx="1461.9" cy="719.7" rx="294.4" ry="313.3" fill="#6b4a22" opacity="0.065" filter="url(#a33-blur9)"/><ellipse cx="1383.6" cy="972.1" rx="120.5" ry="132.4" fill="#6b4a22" opacity="0.069" filter="url(#a33-blur9)"/><ellipse cx="576.8" cy="855.5" rx="335" ry="237.8" fill="#6b4a22" opacity="0.048" filter="url(#a33-blur9)"/><rect x="0" width="17.7" height="3000" fill="#fff2d0" opacity="0.018"/><rect x="35.3" width="15.4" height="3000" fill="#fff2d0" opacity="0.025"/><rect x="66.1" width="31.4" height="3000" fill="#fff2d0" opacity="0.042"/><rect x="128.9" width="21.4" height="3000" fill="#fff2d0" opacity="0.018"/><rect x="171.8" width="21.8" height="3000" fill="#fff2d0" opacity="0.042"/><rect x="215.4" width="30.9" height="3000" fill="#fff2d0" opacity="0.025"/><rect x="277.3" width="30.6" height="3000" fill="#fff2d0" opacity="0.026"/><rect x="338.4" width="19.3" height="3000" fill="#fff2d0" opacity="0.027"/><rect x="377" width="33.4" height="3000" fill="#fff2d0" opacity="0.033"/><rect x="443.7" width="18.2" height="3000" fill="#fff2d0" opacity="0.018"/><rect x="480.2" width="15.8" height="3000" fill="#fff2d0" opacity="0.040"/><rect x="511.8" width="30.6" height="3000" fill="#fff2d0" opacity="0.043"/><rect x="573.1" width="30.6" height="3000" fill="#fff2d0" opacity="0.033"/><rect x="634.4" width="20.1" height="3000" fill="#fff2d0" opacity="0.041"/><rect x="674.6" width="21.4" height="3000" fill="#fff2d0" opacity="0.032"/><rect x="717.4" width="18.2" height="3000" fill="#fff2d0" opacity="0.035"/><rect x="753.7" width="26" height="3000" fill="#fff2d0" opacity="0.020"/><rect x="805.7" width="29.9" height="3000" fill="#fff2d0" opacity="0.022"/><rect x="865.4" width="19.8" height="3000" fill="#fff2d0" opacity="0.031"/><rect x="905.1" width="32.8" height="3000" fill="#fff2d0" opacity="0.015"/><rect x="970.6" width="34.6" height="3000" fill="#fff2d0" opacity="0.017"/><rect x="1039.8" width="21.9" height="3000" fill="#fff2d0" opacity="0.035"/><rect x="1083.6" width="25" height="3000" fill="#fff2d0" opacity="0.043"/><rect x="1133.5" width="19.3" height="3000" fill="#fff2d0" opacity="0.018"/><rect x="1172.1" width="19.5" height="3000" fill="#fff2d0" opacity="0.027"/><rect x="1211" width="32.2" height="3000" fill="#fff2d0" opacity="0.022"/><rect x="1275.4" width="15.8" height="3000" fill="#fff2d0" opacity="0.025"/><rect x="1307.1" width="20.7" height="3000" fill="#fff2d0" opacity="0.039"/><rect x="1348.6" width="30.3" height="3000" fill="#fff2d0" opacity="0.033"/><rect x="1409.2" width="17.8" height="3000" fill="#fff2d0" opacity="0.044"/><rect x="1444.7" width="34.3" height="3000" fill="#fff2d0" opacity="0.018"/><rect x="1513.4" width="20.6" height="3000" fill="#fff2d0" opacity="0.034"/><rect x="1554.6" width="29.7" height="3000" fill="#fff2d0" opacity="0.037"/><rect x="1613.9" width="21.7" height="3000" fill="#fff2d0" opacity="0.032"/><rect x="1657.3" width="31.9" height="3000" fill="#fff2d0" opacity="0.036"/><rect x="1721" width="27.5" height="3000" fill="#fff2d0" opacity="0.016"/><rect x="1776.1" width="34.7" height="3000" fill="#fff2d0" opacity="0.017"/><rect x="1845.5" width="31.1" height="3000" fill="#fff2d0" opacity="0.027"/><rect x="1907.7" width="31.1" height="3000" fill="#fff2d0" opacity="0.037"/><rect x="1969.8" width="34.1" height="3000" fill="#fff2d0" opacity="0.038"/><rect x="2037.9" width="19" height="3000" fill="#fff2d0" opacity="0.032"/><rect x="2075.9" width="34.3" height="3000" fill="#fff2d0" opacity="0.029"/><rect x="2144.5" width="26.7" height="3000" fill="#fff2d0" opacity="0.021"/><rect x="2198" width="29.8" height="3000" fill="#fff2d0" opacity="0.017"/><rect x="2257.5" width="28.7" height="3000" fill="#fff2d0" opacity="0.045"/><rect x="2314.9" width="22.6" height="3000" fill="#fff2d0" opacity="0.043"/><rect x="2360.1" width="25.1" height="3000" fill="#fff2d0" opacity="0.027"/><linearGradient id="a33-er" x1="0" x2="1" y1="0" y2="0"><stop offset="0" stop-color="#3a2a12" stop-opacity="0.22"/><stop offset="1" stop-color="#3a2a12" stop-opacity="0"/></linearGradient><rect x="0" y="0" width="90" height="3000" fill="url(#a33-er)"/><linearGradient id="a33-el" x1="1" x2="0" y1="0" y2="0"><stop offset="0" stop-color="#3a2a12" stop-opacity="0.22"/><stop offset="1" stop-color="#3a2a12" stop-opacity="0"/></linearGradient><rect x="2310" y="0" width="90" height="3000" fill="url(#a33-el)"/><linearGradient id="a33-ed" x1="0" x2="0" y1="0" y2="1"><stop offset="0" stop-color="#3a2a12" stop-opacity="0.22"/><stop offset="1" stop-color="#3a2a12" stop-opacity="0"/></linearGradient><rect x="0" y="0" width="2400" height="90" fill="url(#a33-ed)"/><linearGradient id="a33-eu" x1="0" x2="0" y1="1" y2="0"><stop offset="0" stop-color="#3a2a12" stop-opacity="0.22"/><stop offset="1" stop-color="#3a2a12" stop-opacity="0"/></linearGradient><rect x="0" y="2910" width="2400" height="90" fill="url(#a33-eu)"/><circle cx="1952.3" cy="476.6" r="5.8" fill="#8a5a2e" opacity="0.108"/><circle cx="177.3" cy="1347.8" r="3.7" fill="#8a5a2e" opacity="0.056"/><circle cx="87.1" cy="2822.9" r="12.4" fill="#8a5a2e" opacity="0.050"/><circle cx="449.3" cy="437.5" r="7.7" fill="#8a5a2e" opacity="0.085"/><circle cx="564.6" cy="421.9" r="10.6" fill="#8a5a2e" opacity="0.121"/><circle cx="1931.1" cy="1200.2" r="5.2" fill="#8a5a2e" opacity="0.067"/><circle cx="1430.8" cy="674.7" r="9.8" fill="#8a5a2e" opacity="0.126"/><circle cx="1881.7" cy="1848.2" r="9.7" fill="#8a5a2e" opacity="0.101"/><circle cx="399.7" cy="1818.3" r="13.1" fill="#8a5a2e" opacity="0.098"/><circle cx="653.5" cy="1450.3" r="5.3" fill="#8a5a2e" opacity="0.085"/><circle cx="1174" cy="1953.5" r="7.9" fill="#8a5a2e" opacity="0.104"/><circle cx="2107.5" cy="2913.4" r="5" fill="#8a5a2e" opacity="0.100"/><circle cx="333.4" cy="2039.8" r="11.9" fill="#8a5a2e" opacity="0.101"/><circle cx="1758.6" cy="1452.4" r="13.5" fill="#8a5a2e" opacity="0.044"/><rect width="2400" height="3000" fill="url(#a33-vig)"/></svg></svg>