<svg xmlns="http://www.w3.org/2000/svg" width="2400" height="1800" viewBox="0 0 2400 1800"><rect width="2400" height="1800" fill="#e9e1d2"/><rect y="1430" width="2400" height="370" fill="#c8b190"/><line x1="120" y1="1430" x2="60" y2="1800" stroke="#00000018" stroke-width="6"/><line x1="380" y1="1430" x2="320" y2="1800" stroke="#00000018" stroke-width="6"/><line x1="640" y1="1430" x2="580" y2="1800" stroke="#00000018" stroke-width="6"/><line x1="900" y1="1430" x2="840" y2="1800" stroke="#00000018" stroke-width="6"/><line x1="1160" y1="1430" x2="1100" y2="1800" stroke="#00000018" stroke-width="6"/><line x1="1420" y1="1430" x2="1360" y2="1800" stroke="#00000018" stroke-width="6"/><line x1="1680" y1="1430" x2="1620" y2="1800" stroke="#00000018" stroke-width="6"/><line x1="1940" y1="1430" x2="1880" y2="1800" stroke="#00000018" stroke-width="6"/><line x1="2200" y1="1430" x2="2140" y2="1800" stroke="#00000018" stroke-width="6"/><rect y="1418" width="2400" height="16" fill="#d7cbb6"/><rect x="700" y="980" width="1000" height="460" rx="26" fill="#a87e57"/><rect x="660" y="1290" width="1080" height="210" rx="30" fill="#f1ebdf"/><rect x="660" y="1420" width="1080" height="120" rx="24" fill="#b3502f" opacity="0.85"/><rect x="770" y="1180" width="300" height="150" rx="40" fill="#faf6ec"/><rect x="1330" y="1180" width="300" height="150" rx="40" fill="#cdb488"/><rect x="640" y="1530" width="1120" height="26" rx="12" fill="#a87e57"/><rect x="360" y="1260" width="240" height="220" rx="10" fill="#a87e57"/><rect x="380" y="1300" width="200" height="14" fill="#00000022"/><line x1="480" y1="1260" x2="480" y2="1130" stroke="#5a4632" stroke-width="12"/><path d="M410,1130 L550,1130 L520,1020 L440,1020 Z" fill="#b3502f"/><path d="M2060,1520 Q 1910,1282.5 1835,1345" fill="none" stroke="#5d7052" stroke-width="20" stroke-linecap="round"/><path d="M2060,1520 Q 1960,1282.5 1910,1295" fill="none" stroke="#5d7052" stroke-width="20" stroke-linecap="round"/><path d="M2060,1520 Q 2010,1282.5 1985,1245" fill="none" stroke="#5d7052" stroke-width="20" stroke-linecap="round"/><path d="M2060,1520 Q 2060,1282.5 2060,1195" fill="none" stroke="#5d7052" stroke-width="20" stroke-linecap="round"/><path d="M2060,1520 Q 2110,1282.5 2135,1245" fill="none" stroke="#5d7052" stroke-width="20" stroke-linecap="round"/><path d="M2060,1520 Q 2160,1282.5 2210,1295" fill="none" stroke="#5d7052" stroke-width="20" stroke-linecap="round"/><path d="M2060,1520 Q 2210,1282.5 2285,1345" fill="none" stroke="#5d7052" stroke-width="20" stroke-linecap="round"/><path d="M1972.5,1520 L2147.5,1520 L2125,1657.5 L1995,1657.5 Z" fill="#a9714d"/><defs><filter id="a66b-sh" x="-30%" y="-30%" width="160%" height="160%"><feGaussianBlur stdDeviation="16"/></filter></defs><rect x="928" y="246" width="572" height="702" fill="#000" opacity="0.28" filter="url(#a66b-sh)"/><rect x="914" y="224" width="572" height="702" fill="#4a3d2f"/><rect x="930.9" y="240.9" width="538.2" height="668.2" fill="none" stroke="#00000055" stroke-width="3"/><rect x="940" y="250" width="520" height="650" fill="#f6f2ea"/><svg x="979" y="289" width="442" height="572" viewBox="0 0 2400 3000" preserveAspectRatio="xMidYMid slice"><rect width="2400" height="3000" fill="#e4cfa4"/><radialGradient id="a66-vig" cx="50%" cy="42%" r="80%"><stop offset="55%" stop-color="#000" stop-opacity="0"/><stop offset="100%" stop-color="#000" stop-opacity="0.15"/></radialGradient><rect width="2400" height="3000" fill="url(#a66-vig)"/><circle cx="2268.3" cy="359.9" r="2" fill="#6e421d" opacity="0.052"/><circle cx="653" cy="100.6" r="3.5" fill="#6e421d" opacity="0.067"/><circle cx="1946.6" cy="2556.1" r="1.8" fill="#6e421d" opacity="0.053"/><circle cx="1470.7" cy="1779.6" r="4.1" fill="#6e421d" opacity="0.073"/><circle cx="1877.2" cy="2698.8" r="4.2" fill="#6e421d" opacity="0.038"/><circle cx="1662.4" cy="1790.8" r="3.4" fill="#6e421d" opacity="0.047"/><circle cx="1908.4" cy="2582" r="4.1" fill="#6e421d" opacity="0.068"/><circle cx="1760.4" cy="1180" r="4.2" fill="#6e421d" opacity="0.075"/><circle cx="1858.5" cy="2224.5" r="4" fill="#6e421d" opacity="0.052"/><circle cx="837.9" cy="1760.4" r="3.6" fill="#6e421d" opacity="0.063"/><circle cx="2055.9" cy="364.2" r="2.3" fill="#6e421d" opacity="0.057"/><circle cx="2148.6" cy="1853.6" r="2.8" fill="#6e421d" opacity="0.077"/><circle cx="1497.5" cy="2259.7" r="2.4" fill="#6e421d" opacity="0.057"/><circle cx="1461.9" cy="1206.2" r="4.1" fill="#6e421d" opacity="0.072"/><circle cx="1495.6" cy="2907.7" r="3.1" fill="#6e421d" opacity="0.046"/><circle cx="407.7" cy="301.6" r="2.3" fill="#6e421d" opacity="0.067"/><circle cx="985.4" cy="1699.1" r="1.7" fill="#6e421d" opacity="0.073"/><circle cx="1624.7" cy="1689.2" r="2" fill="#6e421d" opacity="0.036"/><circle cx="644.2" cy="74.4" r="4.4" fill="#6e421d" opacity="0.070"/><circle cx="1023.3" cy="1708.4" r="3.7" fill="#6e421d" opacity="0.055"/><circle cx="133" cy="2089.6" r="2.5" fill="#6e421d" opacity="0.035"/><circle cx="2344.6" cy="2431" r="3.2" fill="#6e421d" opacity="0.048"/><circle cx="758.1" cy="2758.6" r="1.9" fill="#6e421d" opacity="0.073"/><circle cx="1053.2" cy="1073.9" r="2.9" fill="#6e421d" opacity="0.049"/><circle cx="1276.1" cy="109.4" r="3.4" fill="#6e421d" opacity="0.069"/><circle cx="432.1" cy="2150.7" r="1.6" fill="#6e421d" opacity="0.069"/><circle cx="1250.1" cy="2380.1" r="3.5" fill="#6e421d" opacity="0.036"/><circle cx="567.2" cy="726.2" r="1.7" fill="#6e421d" opacity="0.065"/><circle cx="1082" cy="2481.9" r="1.9" fill="#6e421d" opacity="0.071"/><circle cx="928.2" cy="1949.6" r="2.9" fill="#6e421d" opacity="0.045"/><circle cx="1747.9" cy="584.9" r="3.2" fill="#6e421d" opacity="0.039"/><circle cx="1461.4" cy="2782.4" r="2.2" fill="#6e421d" opacity="0.055"/><circle cx="131.2" cy="2050.8" r="1.6" fill="#6e421d" opacity="0.072"/><circle cx="837.7" cy="591.7" r="1.7" fill="#6e421d" opacity="0.059"/><circle cx="1256.6" cy="2958.5" r="4.4" fill="#6e421d" opacity="0.057"/><circle cx="603" cy="2795" r="2.7" fill="#6e421d" opacity="0.062"/><circle cx="1270.2" cy="720.4" r="2.1" fill="#6e421d" opacity="0.059"/><circle cx="2282.2" cy="1411.9" r="2.8" fill="#6e421d" opacity="0.040"/><circle cx="508.4" cy="777.6" r="3.4" fill="#6e421d" opacity="0.079"/><circle cx="969.3" cy="1947.6" r="2" fill="#6e421d" opacity="0.044"/><circle cx="654.1" cy="2934.9" r="4.3" fill="#6e421d" opacity="0.030"/><circle cx="2145.7" cy="1006.4" r="3.4" fill="#6e421d" opacity="0.070"/><circle cx="678.8" cy="739.6" r="3.2" fill="#6e421d" opacity="0.048"/><circle cx="709" cy="2264.4" r="2.3" fill="#6e421d" opacity="0.066"/><circle cx="2319.3" cy="133.6" r="3.5" fill="#6e421d" opacity="0.073"/><circle cx="475" cy="599.9" r="2" fill="#6e421d" opacity="0.075"/><circle cx="79.3" cy="1489.2" r="1.7" fill="#6e421d" opacity="0.045"/><circle cx="871.3" cy="2892.5" r="2.1" fill="#6e421d" opacity="0.070"/><circle cx="292.9" cy="1912.7" r="1.5" fill="#6e421d" opacity="0.071"/><circle cx="2162.5" cy="451.3" r="4.1" fill="#6e421d" opacity="0.057"/><circle cx="277.6" cy="478.6" r="1.6" fill="#6e421d" opacity="0.057"/><circle cx="1837.2" cy="1416.1" r="3" fill="#6e421d" opacity="0.079"/><circle cx="1423.7" cy="2800.4" r="1.8" fill="#6e421d" opacity="0.057"/><circle cx="1192.6" cy="2257.3" r="3.5" fill="#6e421d" opacity="0.033"/><circle cx="1675.7" cy="1872.9" r="3.4" fill="#6e421d" opacity="0.078"/><circle cx="1236.5" cy="2183.3" r="3.1" fill="#6e421d" opacity="0.073"/><circle cx="1019.1" cy="1149.2" r="3.5" fill="#6e421d" opacity="0.070"/><circle cx="1319.7" cy="592.8" r="2.6" fill="#6e421d" opacity="0.066"/><circle cx="1008.8" cy="2486.4" r="2.2" fill="#6e421d" opacity="0.068"/><circle cx="78.8" cy="2204.3" r="4.5" fill="#6e421d" opacity="0.039"/><circle cx="1118.1" cy="1878" r="3.5" fill="#6e421d" opacity="0.056"/><circle cx="1085.7" cy="1879.4" r="3.7" fill="#6e421d" opacity="0.061"/><circle cx="119.5" cy="2052.2" r="1.8" fill="#6e421d" opacity="0.049"/><circle cx="277.5" cy="2033.8" r="3.2" fill="#6e421d" opacity="0.040"/><circle cx="1857.5" cy="1778.4" r="3" fill="#6e421d" opacity="0.074"/><circle cx="1038.7" cy="2111.5" r="2.1" fill="#6e421d" opacity="0.067"/><circle cx="1188.5" cy="755" r="3" fill="#6e421d" opacity="0.033"/><circle cx="100.1" cy="2487.6" r="4" fill="#6e421d" opacity="0.069"/><circle cx="1249.4" cy="2568.2" r="2.8" fill="#6e421d" opacity="0.078"/><circle cx="345.5" cy="865.9" r="3.5" fill="#6e421d" opacity="0.032"/><circle cx="1351.2" cy="724.2" r="2.1" fill="#6e421d" opacity="0.031"/><circle cx="1709.7" cy="1064.4" r="2.1" fill="#6e421d" opacity="0.056"/><circle cx="641.3" cy="412.3" r="4.3" fill="#6e421d" opacity="0.061"/><circle cx="1494.9" cy="1360.4" r="1.9" fill="#6e421d" opacity="0.071"/><circle cx="940.4" cy="1643" r="1.7" fill="#6e421d" opacity="0.050"/><circle cx="50.2" cy="2217.6" r="4.1" fill="#6e421d" opacity="0.062"/><circle cx="674.3" cy="2098.5" r="2.7" fill="#6e421d" opacity="0.031"/><circle cx="83.7" cy="1568.2" r="1.7" fill="#6e421d" opacity="0.045"/><circle cx="1283.4" cy="2507.4" r="2.8" fill="#6e421d" opacity="0.077"/><circle cx="1842.7" cy="2215.2" r="2.9" fill="#6e421d" opacity="0.042"/><path d="M1898.6,1777.1 Q1853.7,2054.1 1718.9,2274 Q1584.1,2493.8 1392.1,2558 Q1200,2622.3 1004.5,2536.4 Q808.9,2450.5 675.7,2248.7 Q542.6,2046.9 494.4,1773.5 Q446.2,1500 505.2,1227.3 Q564.1,954.6 693,730.4 Q822,506.3 1011,453.8 Q1200,401.2 1390.2,457.3 Q1580.4,513.3 1709.2,724.5 Q1838,935.7 1890.8,1217.8 Q1943.6,1500 1898.6,1777.1 Z" fill="#cdb488" stroke="#6e421d" stroke-width="9"/><clipPath id="a66-tb"><path d="M1843.8,1760 Q1797.6,2020 1671.3,2210.3 Q1545,2400.7 1372.5,2470.3 Q1200,2540 1027.5,2470.3 Q855,2400.7 728.7,2210.3 Q602.4,2020 556.2,1760 Q510,1500 556.2,1240 Q602.4,980 728.7,789.7 Q855,599.3 1027.5,529.7 Q1200,460 1372.5,529.7 Q1545,599.3 1671.3,789.7 Q1797.6,980 1843.8,1240 Q1890,1500 1843.8,1760 Z"/></clipPath><g clip-path="url(#a66-tb)"><line x1="560" y1="560" x2="1840" y2="560" stroke="#6e421d" stroke-width="4" opacity="0.35"/><rect x="600" y="621" width="10" height="86.9" fill="#6e421d"/><rect x="622" y="621" width="10" height="86.9" fill="#6e421d"/><rect x="740.6" y="621" width="10" height="86.9" fill="#6e421d"/><rect x="762.6" y="621" width="10" height="86.9" fill="#6e421d"/><path d="M884.2,664.4 l 23.9,-15.2 l 0,10.9 l 54.3,0 l 0,8 L906,670.4 Z" fill="#6e421d"/><path d="M1017.9,610.1 l 17.4,23.9 l -8.7,0 L1020,718.8 l -8,0 Z" fill="#6e421d"/><path d="M1151.5,631.9 L1184.1,664.4 L1151.5,697 l -8,-6 L1168.9,664.4 l -26.1,-23.9 Z" fill="#6e421d"/><path d="M1281.1,664.4 l 23.9,-15.2 l 0,10.9 l 54.3,0 l 0,8 L1302.8,670.4 Z" fill="#6e421d"/><path d="M1421.7,631.9 L1454.3,664.4 L1421.7,697 l -8,-6 L1439.1,664.4 l -26.1,-23.9 Z" fill="#6e421d"/><path d="M1563.4,610.1 l 17.4,23.9 l -8.7,0 L1565.5,718.8 l -8,0 Z" fill="#6e421d"/><rect x="1690" y="621" width="10" height="86.9" fill="#6e421d"/><rect x="1712" y="621" width="10" height="86.9" fill="#6e421d"/><line x1="560" y1="768.9" x2="1840" y2="768.9" stroke="#6e421d" stroke-width="4" opacity="0.35"/><path d="M600,819 l 17.4,23.9 l -8.7,0 L602.2,927.6 l -8,0 Z" fill="#6e421d"/><path d="M731.6,840.7 L764.2,873.3 L731.6,905.9 l -8,-6 L749,873.3 l -26.1,-23.9 Z" fill="#6e421d"/><path d="M877.2,873.3 l 23.9,-15.2 l 0,10.9 l 54.3,0 l 0,8 L899,879.3 Z" fill="#6e421d"/><path d="M999.9,873.3 l 23.9,-15.2 l 0,10.9 l 54.3,0 l 0,8 L1021.6,879.3 Z" fill="#6e421d"/><path d="M1146.5,840.7 L1179.1,873.3 L1146.5,905.9 l -8,-6 L1163.9,873.3 l -26.1,-23.9 Z" fill="#6e421d"/><path d="M1271.1,819 l 17.4,23.9 l -8.7,0 L1273.3,927.6 l -8,0 Z" fill="#6e421d"/><rect x="1412.7" y="829.9" width="10" height="86.9" fill="#6e421d"/><rect x="1434.7" y="829.9" width="10" height="86.9" fill="#6e421d"/><path d="M1564.4,873.3 l 23.9,-15.2 l 0,10.9 l 54.3,0 l 0,8 L1586.1,879.3 Z" fill="#6e421d"/><rect x="1714" y="829.9" width="10" height="86.9" fill="#6e421d"/><rect x="1736" y="829.9" width="10" height="86.9" fill="#6e421d"/><line x1="560" y1="977.8" x2="1840" y2="977.8" stroke="#6e421d" stroke-width="4" opacity="0.35"/><path d="M600,1049.6 L632.6,1082.2 L600,1114.8 l -8,-6 L617.4,1082.2 l -26.1,-23.9 Z" fill="#6e421d"/><path d="M746.6,1027.9 l 17.4,23.9 l -8.7,0 L748.8,1136.5 l -8,0 Z" fill="#6e421d"/><path d="M871.2,1049.6 L903.8,1082.2 L871.2,1114.8 l -8,-6 L888.6,1082.2 l -26.1,-23.9 Z" fill="#6e421d"/><path d="M1006.9,1027.9 l 17.4,23.9 l -8.7,0 L1009,1136.5 l -8,0 Z" fill="#6e421d"/><rect x="1137.5" y="1038.8" width="10" height="86.9" fill="#6e421d"/><rect x="1159.5" y="1038.8" width="10" height="86.9" fill="#6e421d"/><path d="M1287.1,1049.6 L1319.7,1082.2 L1287.1,1114.8 l -8,-6 L1304.5,1082.2 l -26.1,-23.9 Z" fill="#6e421d"/><path d="M1414.7,1049.6 L1447.3,1082.2 L1414.7,1114.8 l -8,-6 L1432.1,1082.2 l -26.1,-23.9 Z" fill="#6e421d"/><path d="M1550.4,1027.9 l 17.4,23.9 l -8.7,0 L1552.5,1136.5 l -8,0 Z" fill="#6e421d"/><path d="M1701,1027.9 l 17.4,23.9 l -8.7,0 L1703.2,1136.5 l -8,0 Z" fill="#6e421d"/><line x1="560" y1="1186.7" x2="1840" y2="1186.7" stroke="#6e421d" stroke-width="4" opacity="0.35"/><path d="M600,1258.5 L632.6,1291.1 L600,1323.7 l -8,-6 L617.4,1291.1 l -26.1,-23.9 Z" fill="#6e421d"/><path d="M752.6,1291.1 l 23.9,-15.2 l 0,10.9 l 54.3,0 l 0,8 L774.3,1297.1 Z" fill="#6e421d"/><path d="M900.2,1236.8 l 17.4,23.9 l -8.7,0 L902.4,1345.4 l -8,0 Z" fill="#6e421d"/><rect x="1045.9" y="1247.7" width="10" height="86.9" fill="#6e421d"/><rect x="1067.9" y="1247.7" width="10" height="86.9" fill="#6e421d"/><path d="M1175.5,1258.5 L1208.1,1291.1 L1175.5,1323.7 l -8,-6 L1192.9,1291.1 l -26.1,-23.9 Z" fill="#6e421d"/><path d="M1319.1,1291.1 l 23.9,-15.2 l 0,10.9 l 54.3,0 l 0,8 L1340.8,1297.1 Z" fill="#6e421d"/><path d="M1442.7,1291.1 l 23.9,-15.2 l 0,10.9 l 54.3,0 l 0,8 L1464.5,1297.1 Z" fill="#6e421d"/><path d="M1565.4,1258.5 L1597.9,1291.1 L1565.4,1323.7 l -8,-6 L1582.7,1291.1 l -26.1,-23.9 Z" fill="#6e421d"/><path d="M1715,1236.8 l 17.4,23.9 l -8.7,0 L1717.2,1345.4 l -8,0 Z" fill="#6e421d"/><line x1="560" y1="1395.6" x2="1840" y2="1395.6" stroke="#6e421d" stroke-width="4" opacity="0.35"/><rect x="600" y="1456.6" width="10" height="86.9" fill="#6e421d"/><rect x="622" y="1456.6" width="10" height="86.9" fill="#6e421d"/><path d="M746.6,1500 l 23.9,-15.2 l 0,10.9 l 54.3,0 l 0,8 L768.3,1506 Z" fill="#6e421d"/><rect x="895.2" y="1456.6" width="10" height="86.9" fill="#6e421d"/><rect x="917.2" y="1456.6" width="10" height="86.9" fill="#6e421d"/><path d="M1040.9,1445.7 l 17.4,23.9 l -8.7,0 L1043,1554.3 l -8,0 Z" fill="#6e421d"/><rect x="1169.5" y="1456.6" width="10" height="86.9" fill="#6e421d"/><rect x="1191.5" y="1456.6" width="10" height="86.9" fill="#6e421d"/><path d="M1314.1,1500 l 23.9,-15.2 l 0,10.9 l 54.3,0 l 0,8 L1335.8,1506 Z" fill="#6e421d"/><rect x="1452.7" y="1456.6" width="10" height="86.9" fill="#6e421d"/><rect x="1474.7" y="1456.6" width="10" height="86.9" fill="#6e421d"/><path d="M1594.4,1445.7 l 17.4,23.9 l -8.7,0 L1596.5,1554.3 l -8,0 Z" fill="#6e421d"/><path d="M1731,1467.4 L1763.6,1500 L1731,1532.6 l -8,-6 L1748.4,1500 l -26.1,-23.9 Z" fill="#6e421d"/><line x1="560" y1="1604.4" x2="1840" y2="1604.4" stroke="#6e421d" stroke-width="4" opacity="0.35"/><path d="M600,1654.6 l 17.4,23.9 l -8.7,0 L602.2,1763.2 l -8,0 Z" fill="#6e421d"/><path d="M742.6,1676.3 L775.2,1708.9 L742.6,1741.5 l -8,-6 L760,1708.9 l -26.1,-23.9 Z" fill="#6e421d"/><path d="M869.2,1708.9 l 23.9,-15.2 l 0,10.9 l 54.3,0 l 0,8 L891,1714.9 Z" fill="#6e421d"/><path d="M1001.9,1676.3 L1034.5,1708.9 L1001.9,1741.5 l -8,-6 L1019.2,1708.9 l -26.1,-23.9 Z" fill="#6e421d"/><path d="M1140.5,1676.3 L1173.1,1708.9 L1140.5,1741.5 l -8,-6 L1157.9,1708.9 l -26.1,-23.9 Z" fill="#6e421d"/><path d="M1283.1,1708.9 l 23.9,-15.2 l 0,10.9 l 54.3,0 l 0,8 L1304.8,1714.9 Z" fill="#6e421d"/><path d="M1427.7,1708.9 l 23.9,-15.2 l 0,10.9 l 54.3,0 l 0,8 L1449.5,1714.9 Z" fill="#6e421d"/><path d="M1555.4,1654.6 l 17.4,23.9 l -8.7,0 L1557.5,1763.2 l -8,0 Z" fill="#6e421d"/><path d="M1681,1654.6 l 17.4,23.9 l -8.7,0 L1683.2,1763.2 l -8,0 Z" fill="#6e421d"/><line x1="560" y1="1813.3" x2="1840" y2="1813.3" stroke="#6e421d" stroke-width="4" opacity="0.35"/><path d="M600,1885.2 L632.6,1917.8 L600,1950.4 l -8,-6 L617.4,1917.8 l -26.1,-23.9 Z" fill="#6e421d"/><rect x="724.6" y="1874.3" width="10" height="86.9" fill="#6e421d"/><rect x="746.6" y="1874.3" width="10" height="86.9" fill="#6e421d"/><path d="M873.2,1917.8 l 23.9,-15.2 l 0,10.9 l 54.3,0 l 0,8 L895,1923.8 Z" fill="#6e421d"/><path d="M1009.9,1917.8 l 23.9,-15.2 l 0,10.9 l 54.3,0 l 0,8 L1031.6,1923.8 Z" fill="#6e421d"/><path d="M1140.5,1863.5 l 17.4,23.9 l -8.7,0 L1142.7,1972.1 l -8,0 Z" fill="#6e421d"/><rect x="1269.1" y="1874.3" width="10" height="86.9" fill="#6e421d"/><rect x="1291.1" y="1874.3" width="10" height="86.9" fill="#6e421d"/><path d="M1405.7,1863.5 l 17.4,23.9 l -8.7,0 L1407.9,1972.1 l -8,0 Z" fill="#6e421d"/><rect x="1553.4" y="1874.3" width="10" height="86.9" fill="#6e421d"/><rect x="1575.4" y="1874.3" width="10" height="86.9" fill="#6e421d"/><path d="M1706,1863.5 l 17.4,23.9 l -8.7,0 L1708.2,1972.1 l -8,0 Z" fill="#6e421d"/><line x1="560" y1="2022.2" x2="1840" y2="2022.2" stroke="#6e421d" stroke-width="4" opacity="0.35"/><path d="M600,2094.1 L632.6,2126.7 L600,2159.3 l -8,-6 L617.4,2126.7 l -26.1,-23.9 Z" fill="#6e421d"/><path d="M727.6,2072.4 l 17.4,23.9 l -8.7,0 L729.8,2181 l -8,0 Z" fill="#6e421d"/><path d="M862.2,2072.4 l 17.4,23.9 l -8.7,0 L864.4,2181 l -8,0 Z" fill="#6e421d"/><path d="M994.9,2094.1 L1027.5,2126.7 L994.9,2159.3 l -8,-6 L1012.2,2126.7 l -26.1,-23.9 Z" fill="#6e421d"/><path d="M1140.5,2094.1 L1173.1,2126.7 L1140.5,2159.3 l -8,-6 L1157.9,2126.7 l -26.1,-23.9 Z" fill="#6e421d"/><path d="M1280.1,2094.1 L1312.7,2126.7 L1280.1,2159.3 l -8,-6 L1297.5,2126.7 l -26.1,-23.9 Z" fill="#6e421d"/><rect x="1414.7" y="2083.2" width="10" height="86.9" fill="#6e421d"/><rect x="1436.7" y="2083.2" width="10" height="86.9" fill="#6e421d"/><path d="M1540.4,2072.4 l 17.4,23.9 l -8.7,0 L1542.5,2181 l -8,0 Z" fill="#6e421d"/><path d="M1666,2094.1 L1698.6,2126.7 L1666,2159.3 l -8,-6 L1683.4,2126.7 l -26.1,-23.9 Z" fill="#6e421d"/><line x1="560" y1="2231.1" x2="1840" y2="2231.1" stroke="#6e421d" stroke-width="4" opacity="0.35"/><path d="M600,2281.2 l 17.4,23.9 l -8.7,0 L602.2,2389.9 l -8,0 Z" fill="#6e421d"/><path d="M722.6,2335.6 l 23.9,-15.2 l 0,10.9 l 54.3,0 l 0,8 L744.3,2341.6 Z" fill="#6e421d"/><path d="M860.2,2335.6 l 23.9,-15.2 l 0,10.9 l 54.3,0 l 0,8 L882,2341.6 Z" fill="#6e421d"/><path d="M1012.9,2335.6 l 23.9,-15.2 l 0,10.9 l 54.3,0 l 0,8 L1034.6,2341.6 Z" fill="#6e421d"/><path d="M1146.5,2335.6 l 23.9,-15.2 l 0,10.9 l 54.3,0 l 0,8 L1168.2,2341.6 Z" fill="#6e421d"/><path d="M1291.1,2303 L1323.7,2335.6 L1291.1,2368.1 l -8,-6 L1308.5,2335.6 l -26.1,-23.9 Z" fill="#6e421d"/><rect x="1413.7" y="2292.1" width="10" height="86.9" fill="#6e421d"/><rect x="1435.7" y="2292.1" width="10" height="86.9" fill="#6e421d"/><path d="M1555.4,2303 L1587.9,2335.6 L1555.4,2368.1 l -8,-6 L1572.7,2335.6 l -26.1,-23.9 Z" fill="#6e421d"/><rect x="1691" y="2292.1" width="10" height="86.9" fill="#6e421d"/><rect x="1713" y="2292.1" width="10" height="86.9" fill="#6e421d"/></g><rect x="100" y="100" width="2200" height="2800" fill="none" stroke="#6e421d" stroke-width="9"/><rect x="142" y="142" width="2116" height="2716" fill="none" stroke="#6e421d" stroke-width="3" opacity="0.65"/></svg></svg>