<svg xmlns="http://www.w3.org/2000/svg" width="2400" height="1800" viewBox="0 0 2400 1800"><rect width="2400" height="1800" fill="#dfe4dc"/><rect y="1400" width="2400" height="400" fill="#c2a67e"/><line x1="60" y1="1400" x2="10" y2="1800" stroke="#00000015" stroke-width="5"/><line x1="260" y1="1400" x2="210" y2="1800" stroke="#00000015" stroke-width="5"/><line x1="460" y1="1400" x2="410" y2="1800" stroke="#00000015" stroke-width="5"/><line x1="660" y1="1400" x2="610" y2="1800" stroke="#00000015" stroke-width="5"/><line x1="860" y1="1400" x2="810" y2="1800" stroke="#00000015" stroke-width="5"/><line x1="1060" y1="1400" x2="1010" y2="1800" stroke="#00000015" stroke-width="5"/><line x1="1260" y1="1400" x2="1210" y2="1800" stroke="#00000015" stroke-width="5"/><line x1="1460" y1="1400" x2="1410" y2="1800" stroke="#00000015" stroke-width="5"/><line x1="1660" y1="1400" x2="1610" y2="1800" stroke="#00000015" stroke-width="5"/><line x1="1860" y1="1400" x2="1810" y2="1800" stroke="#00000015" stroke-width="5"/><line x1="2060" y1="1400" x2="2010" y2="1800" stroke="#00000015" stroke-width="5"/><line x1="2260" y1="1400" x2="2210" y2="1800" stroke="#00000015" stroke-width="5"/><rect x="180" y="260" width="900" height="620" fill="#8a6a48"/><rect x="215" y="295" width="830" height="550" fill="#41524a"/><line x1="280" y1="420" x2="760" y2="420" stroke="#ffffff66" stroke-width="9" stroke-linecap="round"/><line x1="280" y1="520" x2="620" y2="520" stroke="#ffffff44" stroke-width="9" stroke-linecap="round"/><circle cx="880" cy="560" r="90" fill="none" stroke="#ffffff55" stroke-width="8"/><rect x="215" y="845" width="830" height="22" fill="#6f5436"/><rect x="330" y="1240" width="640" height="60" rx="10" fill="#9c7449"/><rect x="370" y="1300" width="60" height="240" fill="#8a6540"/><rect x="870" y="1300" width="60" height="240" fill="#8a6540"/><rect x="430" y="1160" width="150" height="80" rx="8" fill="#4d84b5"/><rect x="450" y="1120" width="150" height="40" rx="8" fill="#24486e"/><circle cx="800" cy="1130" r="86" fill="#7fa3b8"/><path d="M760,1060 Q820,1100 780,1190 M740,1090 Q800,1120 850,1100" stroke="#5d8069" stroke-width="16" fill="none" stroke-linecap="round"/><circle cx="800" cy="1130" r="86" fill="none" stroke="#6b5233" stroke-width="7"/><line x1="800" y1="1216" x2="800" y2="1250" stroke="#6b5233" stroke-width="10"/><rect x="750" y="1244" width="100" height="14" rx="7" fill="#6b5233"/><rect x="1980" y="700" width="300" height="800" fill="#9c7449"/><rect x="2000" y="930" width="260" height="16" fill="#7c5a37"/><rect x="2020" y="790" width="36" height="140" fill="#b3502f"/><rect x="2066" y="802" width="36" height="128" fill="#39685c"/><rect x="2112" y="790" width="36" height="140" fill="#c9a227"/><rect x="2158" y="802" width="36" height="128" fill="#2c4661"/><rect x="2204" y="790" width="36" height="140" fill="#8a4423"/><rect x="2000" y="1180" width="260" height="16" fill="#7c5a37"/><rect x="2020" y="1040" width="36" height="140" fill="#39685c"/><rect x="2066" y="1052" width="36" height="128" fill="#c9a227"/><rect x="2112" y="1040" width="36" height="140" fill="#2c4661"/><rect x="2158" y="1052" width="36" height="128" fill="#8a4423"/><rect x="2204" y="1040" width="36" height="140" fill="#b3502f"/><rect x="2000" y="1430" width="260" height="16" fill="#7c5a37"/><rect x="2020" y="1290" width="36" height="140" fill="#c9a227"/><rect x="2066" y="1302" width="36" height="128" fill="#2c4661"/><rect x="2112" y="1290" width="36" height="140" fill="#8a4423"/><rect x="2158" y="1302" width="36" height="128" fill="#b3502f"/><rect x="2204" y="1290" width="36" height="140" fill="#39685c"/><defs><filter id="a89c-sh" x="-30%" y="-30%" width="160%" height="160%"><feGaussianBlur stdDeviation="16"/></filter></defs><rect x="1340.5" y="298.5" width="517" height="635" fill="#000" opacity="0.28" filter="url(#a89c-sh)"/><rect x="1326.5" y="276.5" width="517" height="635" fill="#3d342a"/><rect x="1341.8" y="291.8" width="486.4" height="604.5" fill="none" stroke="#00000055" stroke-width="3"/><rect x="1350" y="300" width="470" height="588" fill="#f6f2ea"/><svg x="1385.3" y="335.3" width="399.5" height="517.5" viewBox="0 0 2400 3000" preserveAspectRatio="xMidYMid slice"><rect width="2400" height="3000" fill="#16324f"/><radialGradient id="a89-vig" cx="50%" cy="42%" r="80%"><stop offset="55%" stop-color="#000" stop-opacity="0"/><stop offset="100%" stop-color="#000" stop-opacity="0.15"/></radialGradient><rect width="2400" height="3000" fill="url(#a89-vig)"/><circle cx="714.2" cy="2308.8" r="3.7" fill="#d8b45a" opacity="0.072"/><circle cx="1081.1" cy="922.3" r="3.8" fill="#d8b45a" opacity="0.079"/><circle cx="295.5" cy="1085.5" r="3.7" fill="#d8b45a" opacity="0.045"/><circle cx="1391.2" cy="1376.4" r="4.3" fill="#d8b45a" opacity="0.058"/><circle cx="114" cy="351.5" r="2.7" fill="#d8b45a" opacity="0.033"/><circle cx="1418.7" cy="2143.7" r="4" fill="#d8b45a" opacity="0.039"/><circle cx="2337.6" cy="2336.8" r="4.4" fill="#d8b45a" opacity="0.042"/><circle cx="520.7" cy="1289.3" r="3.9" fill="#d8b45a" opacity="0.060"/><circle cx="1872.5" cy="646.8" r="1.9" fill="#d8b45a" opacity="0.042"/><circle cx="584.1" cy="2581.6" r="2.3" fill="#d8b45a" opacity="0.052"/><circle cx="228.1" cy="2429.5" r="2.8" fill="#d8b45a" opacity="0.076"/><circle cx="1839.1" cy="518" r="4.3" fill="#d8b45a" opacity="0.071"/><circle cx="1416.7" cy="2870.5" r="3.8" fill="#d8b45a" opacity="0.036"/><circle cx="1391.3" cy="1321.8" r="3.3" fill="#d8b45a" opacity="0.078"/><circle cx="1881.1" cy="1918.3" r="3.1" fill="#d8b45a" opacity="0.034"/><circle cx="1311.5" cy="620.8" r="4" fill="#d8b45a" opacity="0.068"/><circle cx="445.6" cy="1837.7" r="4.1" fill="#d8b45a" opacity="0.055"/><circle cx="1377.9" cy="1435.1" r="3" fill="#d8b45a" opacity="0.034"/><circle cx="1576.3" cy="2767.1" r="3.2" fill="#d8b45a" opacity="0.033"/><circle cx="938.5" cy="2498.8" r="1.7" fill="#d8b45a" opacity="0.065"/><circle cx="420.1" cy="1068.2" r="3.3" fill="#d8b45a" opacity="0.071"/><circle cx="1587.5" cy="281" r="4" fill="#d8b45a" opacity="0.032"/><circle cx="2177.6" cy="1404.8" r="4.3" fill="#d8b45a" opacity="0.057"/><circle cx="1188.6" cy="2624" r="3.3" fill="#d8b45a" opacity="0.043"/><circle cx="762.9" cy="1694" r="2.6" fill="#d8b45a" opacity="0.041"/><circle cx="1865.9" cy="2145.5" r="3.6" fill="#d8b45a" opacity="0.033"/><circle cx="2139.3" cy="965.5" r="2.5" fill="#d8b45a" opacity="0.073"/><circle cx="1421.2" cy="2028.8" r="3.3" fill="#d8b45a" opacity="0.079"/><circle cx="85.7" cy="1675.7" r="3.3" fill="#d8b45a" opacity="0.037"/><circle cx="1201.7" cy="141.9" r="2.6" fill="#d8b45a" opacity="0.049"/><circle cx="1213.8" cy="2213.5" r="3.3" fill="#d8b45a" opacity="0.062"/><circle cx="1851.3" cy="271.4" r="2.8" fill="#d8b45a" opacity="0.047"/><circle cx="1011.3" cy="819" r="1.9" fill="#d8b45a" opacity="0.042"/><circle cx="1189.6" cy="1701.4" r="3.5" fill="#d8b45a" opacity="0.035"/><circle cx="303.1" cy="2945.3" r="1.9" fill="#d8b45a" opacity="0.049"/><circle cx="60.4" cy="93" r="2.9" fill="#d8b45a" opacity="0.074"/><circle cx="757.4" cy="1187.4" r="2.6" fill="#d8b45a" opacity="0.033"/><circle cx="658.6" cy="1136.2" r="1.6" fill="#d8b45a" opacity="0.072"/><circle cx="2319" cy="2947.9" r="3.2" fill="#d8b45a" opacity="0.037"/><circle cx="1017.9" cy="1656.1" r="3.8" fill="#d8b45a" opacity="0.031"/><circle cx="127.2" cy="2905.4" r="3" fill="#d8b45a" opacity="0.059"/><circle cx="2191.2" cy="2866.7" r="3.3" fill="#d8b45a" opacity="0.067"/><circle cx="978.1" cy="547.2" r="3.3" fill="#d8b45a" opacity="0.053"/><circle cx="2098.9" cy="1351.2" r="1.6" fill="#d8b45a" opacity="0.052"/><circle cx="1242.5" cy="2356.5" r="2.4" fill="#d8b45a" opacity="0.060"/><circle cx="1003.3" cy="1011.9" r="2.8" fill="#d8b45a" opacity="0.060"/><circle cx="1561.7" cy="2153.9" r="2.5" fill="#d8b45a" opacity="0.050"/><circle cx="663.5" cy="80.1" r="3.2" fill="#d8b45a" opacity="0.053"/><circle cx="536.8" cy="1722.9" r="4" fill="#d8b45a" opacity="0.033"/><circle cx="2342.2" cy="1474.6" r="3.4" fill="#d8b45a" opacity="0.070"/><circle cx="924.4" cy="1579.7" r="4.3" fill="#d8b45a" opacity="0.070"/><circle cx="2072.2" cy="101.1" r="2.5" fill="#d8b45a" opacity="0.041"/><circle cx="245.4" cy="2064.8" r="4.2" fill="#d8b45a" opacity="0.042"/><circle cx="846.5" cy="2455.4" r="2.9" fill="#d8b45a" opacity="0.043"/><circle cx="1707.5" cy="1249.2" r="1.6" fill="#d8b45a" opacity="0.079"/><circle cx="443.7" cy="2330.1" r="3.8" fill="#d8b45a" opacity="0.049"/><circle cx="1261.1" cy="2028.7" r="2.8" fill="#d8b45a" opacity="0.078"/><circle cx="1178.8" cy="383.8" r="1.6" fill="#d8b45a" opacity="0.069"/><circle cx="2335" cy="505.1" r="3.6" fill="#d8b45a" opacity="0.054"/><circle cx="1353.6" cy="1579.1" r="4" fill="#d8b45a" opacity="0.067"/><circle cx="2224.4" cy="1215.9" r="3.9" fill="#d8b45a" opacity="0.061"/><circle cx="1332.3" cy="508.7" r="1.6" fill="#d8b45a" opacity="0.066"/><circle cx="1965" cy="1362.5" r="2.5" fill="#d8b45a" opacity="0.048"/><circle cx="2035.4" cy="685.8" r="3.3" fill="#d8b45a" opacity="0.039"/><circle cx="366.5" cy="654.9" r="2.7" fill="#d8b45a" opacity="0.056"/><circle cx="1483.2" cy="1663.8" r="3.2" fill="#d8b45a" opacity="0.071"/><circle cx="2266.4" cy="316.7" r="2.9" fill="#d8b45a" opacity="0.038"/><circle cx="2102.5" cy="2325.2" r="4.1" fill="#d8b45a" opacity="0.033"/><circle cx="1986" cy="71.3" r="2.4" fill="#d8b45a" opacity="0.048"/><circle cx="848.2" cy="990.5" r="2.1" fill="#d8b45a" opacity="0.048"/><circle cx="2169.4" cy="2903.2" r="3.1" fill="#d8b45a" opacity="0.060"/><circle cx="1781.7" cy="1578.6" r="2.7" fill="#d8b45a" opacity="0.038"/><circle cx="537.1" cy="2678" r="1.6" fill="#d8b45a" opacity="0.046"/><circle cx="1062.7" cy="1809.7" r="4.1" fill="#d8b45a" opacity="0.069"/><circle cx="1505.1" cy="1288.9" r="4.3" fill="#d8b45a" opacity="0.040"/><circle cx="1432.2" cy="1047.3" r="3.1" fill="#d8b45a" opacity="0.077"/><circle cx="1176.3" cy="1105.9" r="4" fill="#d8b45a" opacity="0.034"/><circle cx="1579.8" cy="1248.7" r="2.7" fill="#d8b45a" opacity="0.037"/><circle cx="1705.6" cy="126" r="4" fill="#d8b45a" opacity="0.047"/><circle cx="2215" cy="2873.1" r="2.9" fill="#d8b45a" opacity="0.077"/><path d="M0 0 Q 38.6 -60 0 -157.9 Q -38.6 -60 0 0 Z" fill="#d8b45a" opacity="1" transform="translate(464 556.4) rotate(-58)"/><path d="M0 0 Q 38.6 -68.6 0 -180.5 Q -38.6 -68.6 0 0 Z" fill="#d8b45a" opacity="1" transform="translate(464 556.4) rotate(-34.8)"/><path d="M0 0 Q 38.6 -77.2 0 -203.1 Q -38.6 -77.2 0 0 Z" fill="#d8b45a" opacity="1" transform="translate(464 556.4) rotate(-11.6)"/><path d="M0 0 Q 38.6 -77.2 0 -203.1 Q -38.6 -77.2 0 0 Z" fill="#d8b45a" opacity="1" transform="translate(464 556.4) rotate(11.6)"/><path d="M0 0 Q 38.6 -68.6 0 -180.5 Q -38.6 -68.6 0 0 Z" fill="#d8b45a" opacity="1" transform="translate(464 556.4) rotate(34.8)"/><path d="M0 0 Q 38.6 -60 0 -157.9 Q -38.6 -60 0 0 Z" fill="#d8b45a" opacity="1" transform="translate(464 556.4) rotate(58)"/><path d="M399.7,556.4 Q464,629.3 528.3,556.4 Z" fill="#d8b45a"/><path d="M0 0 Q 38.6 -60 0 -157.9 Q -38.6 -60 0 0 Z" fill="#d8b45a" opacity="1" transform="translate(832 556.4) rotate(-58)"/><path d="M0 0 Q 38.6 -70.7 0 -186.2 Q -38.6 -70.7 0 0 Z" fill="#d8b45a" opacity="1" transform="translate(832 556.4) rotate(-29)"/><path d="M0 0 Q 38.6 -81.5 0 -214.4 Q -38.6 -81.5 0 0 Z" fill="#d8b45a" opacity="1" transform="translate(832 556.4) rotate(0)"/><path d="M0 0 Q 38.6 -70.7 0 -186.2 Q -38.6 -70.7 0 0 Z" fill="#d8b45a" opacity="1" transform="translate(832 556.4) rotate(29)"/><path d="M0 0 Q 38.6 -60 0 -157.9 Q -38.6 -60 0 0 Z" fill="#d8b45a" opacity="1" transform="translate(832 556.4) rotate(58)"/><path d="M767.7,556.4 Q832,629.3 896.3,556.4 Z" fill="#d8b45a"/><path d="M0 0 Q 38.6 -60 0 -157.9 Q -38.6 -60 0 0 Z" fill="#d8b45a" opacity="1" transform="translate(1200 556.4) rotate(-58)"/><path d="M0 0 Q 38.6 -70.7 0 -186.2 Q -38.6 -70.7 0 0 Z" fill="#d8b45a" opacity="1" transform="translate(1200 556.4) rotate(-29)"/><path d="M0 0 Q 38.6 -81.5 0 -214.4 Q -38.6 -81.5 0 0 Z" fill="#d8b45a" opacity="1" transform="translate(1200 556.4) rotate(0)"/><path d="M0 0 Q 38.6 -70.7 0 -186.2 Q -38.6 -70.7 0 0 Z" fill="#d8b45a" opacity="1" transform="translate(1200 556.4) rotate(29)"/><path d="M0 0 Q 38.6 -60 0 -157.9 Q -38.6 -60 0 0 Z" fill="#d8b45a" opacity="1" transform="translate(1200 556.4) rotate(58)"/><path d="M1135.7,556.4 Q1200,629.3 1264.3,556.4 Z" fill="#d8b45a"/><path d="M0 0 Q 38.6 -60 0 -157.9 Q -38.6 -60 0 0 Z" fill="#d8b45a" opacity="1" transform="translate(1568 556.4) rotate(-58)"/><path d="M0 0 Q 38.6 -70.7 0 -186.2 Q -38.6 -70.7 0 0 Z" fill="#d8b45a" opacity="1" transform="translate(1568 556.4) rotate(-29)"/><path d="M0 0 Q 38.6 -81.5 0 -214.4 Q -38.6 -81.5 0 0 Z" fill="#d8b45a" opacity="1" transform="translate(1568 556.4) rotate(0)"/><path d="M0 0 Q 38.6 -70.7 0 -186.2 Q -38.6 -70.7 0 0 Z" fill="#d8b45a" opacity="1" transform="translate(1568 556.4) rotate(29)"/><path d="M0 0 Q 38.6 -60 0 -157.9 Q -38.6 -60 0 0 Z" fill="#d8b45a" opacity="1" transform="translate(1568 556.4) rotate(58)"/><path d="M1503.7,556.4 Q1568,629.3 1632.3,556.4 Z" fill="#d8b45a"/><path d="M0 0 Q 38.6 -60 0 -157.9 Q -38.6 -60 0 0 Z" fill="#d8b45a" opacity="1" transform="translate(1936 556.4) rotate(-58)"/><path d="M0 0 Q 38.6 -67.2 0 -176.7 Q -38.6 -67.2 0 0 Z" fill="#d8b45a" opacity="1" transform="translate(1936 556.4) rotate(-38.7)"/><path d="M0 0 Q 38.6 -74.3 0 -195.6 Q -38.6 -74.3 0 0 Z" fill="#d8b45a" opacity="1" transform="translate(1936 556.4) rotate(-19.3)"/><path d="M0 0 Q 38.6 -81.5 0 -214.4 Q -38.6 -81.5 0 0 Z" fill="#d8b45a" opacity="1" transform="translate(1936 556.4) rotate(0)"/><path d="M0 0 Q 38.6 -74.3 0 -195.6 Q -38.6 -74.3 0 0 Z" fill="#d8b45a" opacity="1" transform="translate(1936 556.4) rotate(19.3)"/><path d="M0 0 Q 38.6 -67.2 0 -176.7 Q -38.6 -67.2 0 0 Z" fill="#d8b45a" opacity="1" transform="translate(1936 556.4) rotate(38.7)"/><path d="M0 0 Q 38.6 -60 0 -157.9 Q -38.6 -60 0 0 Z" fill="#d8b45a" opacity="1" transform="translate(1936 556.4) rotate(58)"/><path d="M1871.7,556.4 Q1936,629.3 2000.3,556.4 Z" fill="#d8b45a"/><line x1="250" y1="614.5" x2="2150" y2="614.5" stroke="#d8b45a" stroke-width="6"/><rect x="250" y="614.5" width="1900" height="187" fill="#d8b45a"/><circle cx="375.4" cy="708" r="28.6" fill="#16324f"/><circle cx="485.3" cy="708" r="28.6" fill="#16324f"/><circle cx="595.3" cy="708" r="28.6" fill="#16324f"/><circle cx="705.2" cy="708" r="28.6" fill="#16324f"/><circle cx="815.2" cy="708" r="28.6" fill="#16324f"/><circle cx="925.1" cy="708" r="28.6" fill="#16324f"/><circle cx="1035.1" cy="708" r="28.6" fill="#16324f"/><circle cx="1145" cy="708" r="28.6" fill="#16324f"/><circle cx="1255" cy="708" r="28.6" fill="#16324f"/><circle cx="1364.9" cy="708" r="28.6" fill="#16324f"/><circle cx="1474.9" cy="708" r="28.6" fill="#16324f"/><circle cx="1584.8" cy="708" r="28.6" fill="#16324f"/><circle cx="1694.8" cy="708" r="28.6" fill="#16324f"/><circle cx="1804.7" cy="708" r="28.6" fill="#16324f"/><circle cx="1914.7" cy="708" r="28.6" fill="#16324f"/><circle cx="2024.6" cy="708" r="28.6" fill="#16324f"/><line x1="250" y1="801.5" x2="2150" y2="801.5" stroke="#d8b45a" stroke-width="6"/><path d="M296.8,860.1 L372,1027.4 L447.3,860.1 Z M447.3,860.1 L522.6,1027.4 L597.8,860.1 Z M597.8,860.1 L673.1,1027.4 L748.4,860.1 Z M748.4,860.1 L823.7,1027.4 L898.9,860.1 Z M898.9,860.1 L974.2,1027.4 L1049.5,860.1 Z M1049.5,860.1 L1124.7,1027.4 L1200,860.1 Z M1200,860.1 L1275.3,1027.4 L1350.5,860.1 Z M1350.5,860.1 L1425.8,1027.4 L1501.1,860.1 Z M1501.1,860.1 L1576.3,1027.4 L1651.6,860.1 Z M1651.6,860.1 L1726.9,1027.4 L1802.2,860.1 Z M1802.2,860.1 L1877.4,1027.4 L1952.7,860.1 Z M1952.7,860.1 L2028,1027.4 L2103.2,860.1 Z " fill="#d8b45a"/><line x1="250" y1="1086" x2="2150" y2="1086" stroke="#d8b45a" stroke-width="6"/><polyline points="386.2,1304.1 444.9,1174.5 503.7,1304.1" fill="none" stroke="#4d84b5" stroke-width="21.4"/><polyline points="554,1304.1 612.7,1174.5 671.4,1304.1" fill="none" stroke="#4d84b5" stroke-width="21.4"/><polyline points="721.8,1304.1 780.5,1174.5 839.2,1304.1" fill="none" stroke="#4d84b5" stroke-width="21.4"/><polyline points="889.6,1304.1 948.3,1174.5 1007,1304.1" fill="none" stroke="#4d84b5" stroke-width="21.4"/><polyline points="1057.4,1304.1 1116.1,1174.5 1174.8,1304.1" fill="none" stroke="#4d84b5" stroke-width="21.4"/><polyline points="1225.2,1304.1 1283.9,1174.5 1342.6,1304.1" fill="none" stroke="#4d84b5" stroke-width="21.4"/><polyline points="1393,1304.1 1451.7,1174.5 1510.4,1304.1" fill="none" stroke="#4d84b5" stroke-width="21.4"/><polyline points="1560.8,1304.1 1619.5,1174.5 1678.2,1304.1" fill="none" stroke="#4d84b5" stroke-width="21.4"/><polyline points="1728.6,1304.1 1787.3,1174.5 1846,1304.1" fill="none" stroke="#4d84b5" stroke-width="21.4"/><polyline points="1896.3,1304.1 1955.1,1174.5 2013.8,1304.1" fill="none" stroke="#4d84b5" stroke-width="21.4"/><line x1="250" y1="1369.7" x2="2150" y2="1369.7" stroke="#d8b45a" stroke-width="6"/><rect x="250" y="1369.7" width="1900" height="193.3" fill="#d8b45a"/><path d="M0 0 Q 21 -32.7 0 -86.1 Q -21 -32.7 0 0 Z" fill="#16324f" opacity="1" transform="translate(372 1531.3) rotate(-58)"/><path d="M0 0 Q 21 -37.4 0 -98.4 Q -21 -37.4 0 0 Z" fill="#16324f" opacity="1" transform="translate(372 1531.3) rotate(-34.8)"/><path d="M0 0 Q 21 -42.1 0 -110.7 Q -21 -42.1 0 0 Z" fill="#16324f" opacity="1" transform="translate(372 1531.3) rotate(-11.6)"/><path d="M0 0 Q 21 -42.1 0 -110.7 Q -21 -42.1 0 0 Z" fill="#16324f" opacity="1" transform="translate(372 1531.3) rotate(11.6)"/><path d="M0 0 Q 21 -37.4 0 -98.4 Q -21 -37.4 0 0 Z" fill="#16324f" opacity="1" transform="translate(372 1531.3) rotate(34.8)"/><path d="M0 0 Q 21 -32.7 0 -86.1 Q -21 -32.7 0 0 Z" fill="#16324f" opacity="1" transform="translate(372 1531.3) rotate(58)"/><path d="M336.9,1531.3 Q372,1571.1 407.1,1531.3 Z" fill="#16324f"/><path d="M0 0 Q 21 -32.7 0 -86.1 Q -21 -32.7 0 0 Z" fill="#16324f" opacity="1" transform="translate(556 1531.3) rotate(-58)"/><path d="M0 0 Q 21 -37.4 0 -98.4 Q -21 -37.4 0 0 Z" fill="#16324f" opacity="1" transform="translate(556 1531.3) rotate(-34.8)"/><path d="M0 0 Q 21 -42.1 0 -110.7 Q -21 -42.1 0 0 Z" fill="#16324f" opacity="1" transform="translate(556 1531.3) rotate(-11.6)"/><path d="M0 0 Q 21 -42.1 0 -110.7 Q -21 -42.1 0 0 Z" fill="#16324f" opacity="1" transform="translate(556 1531.3) rotate(11.6)"/><path d="M0 0 Q 21 -37.4 0 -98.4 Q -21 -37.4 0 0 Z" fill="#16324f" opacity="1" transform="translate(556 1531.3) rotate(34.8)"/><path d="M0 0 Q 21 -32.7 0 -86.1 Q -21 -32.7 0 0 Z" fill="#16324f" opacity="1" transform="translate(556 1531.3) rotate(58)"/><path d="M520.9,1531.3 Q556,1571.1 591.1,1531.3 Z" fill="#16324f"/><path d="M0 0 Q 21 -32.7 0 -86.1 Q -21 -32.7 0 0 Z" fill="#16324f" opacity="1" transform="translate(740 1531.3) rotate(-58)"/><path d="M0 0 Q 21 -37.4 0 -98.4 Q -21 -37.4 0 0 Z" fill="#16324f" opacity="1" transform="translate(740 1531.3) rotate(-34.8)"/><path d="M0 0 Q 21 -42.1 0 -110.7 Q -21 -42.1 0 0 Z" fill="#16324f" opacity="1" transform="translate(740 1531.3) rotate(-11.6)"/><path d="M0 0 Q 21 -42.1 0 -110.7 Q -21 -42.1 0 0 Z" fill="#16324f" opacity="1" transform="translate(740 1531.3) rotate(11.6)"/><path d="M0 0 Q 21 -37.4 0 -98.4 Q -21 -37.4 0 0 Z" fill="#16324f" opacity="1" transform="translate(740 1531.3) rotate(34.8)"/><path d="M0 0 Q 21 -32.7 0 -86.1 Q -21 -32.7 0 0 Z" fill="#16324f" opacity="1" transform="translate(740 1531.3) rotate(58)"/><path d="M704.9,1531.3 Q740,1571.1 775.1,1531.3 Z" fill="#16324f"/><path d="M0 0 Q 21 -32.7 0 -86.1 Q -21 -32.7 0 0 Z" fill="#16324f" opacity="1" transform="translate(924 1531.3) rotate(-58)"/><path d="M0 0 Q 21 -37.4 0 -98.4 Q -21 -37.4 0 0 Z" fill="#16324f" opacity="1" transform="translate(924 1531.3) rotate(-34.8)"/><path d="M0 0 Q 21 -42.1 0 -110.7 Q -21 -42.1 0 0 Z" fill="#16324f" opacity="1" transform="translate(924 1531.3) rotate(-11.6)"/><path d="M0 0 Q 21 -42.1 0 -110.7 Q -21 -42.1 0 0 Z" fill="#16324f" opacity="1" transform="translate(924 1531.3) rotate(11.6)"/><path d="M0 0 Q 21 -37.4 0 -98.4 Q -21 -37.4 0 0 Z" fill="#16324f" opacity="1" transform="translate(924 1531.3) rotate(34.8)"/><path d="M0 0 Q 21 -32.7 0 -86.1 Q -21 -32.7 0 0 Z" fill="#16324f" opacity="1" transform="translate(924 1531.3) rotate(58)"/><path d="M888.9,1531.3 Q924,1571.1 959.1,1531.3 Z" fill="#16324f"/><path d="M0 0 Q 21 -32.7 0 -86.1 Q -21 -32.7 0 0 Z" fill="#16324f" opacity="1" transform="translate(1108 1531.3) rotate(-58)"/><path d="M0 0 Q 21 -36.6 0 -96.4 Q -21 -36.6 0 0 Z" fill="#16324f" opacity="1" transform="translate(1108 1531.3) rotate(-38.7)"/><path d="M0 0 Q 21 -40.5 0 -106.6 Q -21 -40.5 0 0 Z" fill="#16324f" opacity="1" transform="translate(1108 1531.3) rotate(-19.3)"/><path d="M0 0 Q 21 -44.4 0 -116.9 Q -21 -44.4 0 0 Z" fill="#16324f" opacity="1" transform="translate(1108 1531.3) rotate(0)"/><path d="M0 0 Q 21 -40.5 0 -106.6 Q -21 -40.5 0 0 Z" fill="#16324f" opacity="1" transform="translate(1108 1531.3) rotate(19.3)"/><path d="M0 0 Q 21 -36.6 0 -96.4 Q -21 -36.6 0 0 Z" fill="#16324f" opacity="1" transform="translate(1108 1531.3) rotate(38.7)"/><path d="M0 0 Q 21 -32.7 0 -86.1 Q -21 -32.7 0 0 Z" fill="#16324f" opacity="1" transform="translate(1108 1531.3) rotate(58)"/><path d="M1072.9,1531.3 Q1108,1571.1 1143.1,1531.3 Z" fill="#16324f"/><path d="M0 0 Q 21 -32.7 0 -86.1 Q -21 -32.7 0 0 Z" fill="#16324f" opacity="1" transform="translate(1292 1531.3) rotate(-58)"/><path d="M0 0 Q 21 -36.6 0 -96.4 Q -21 -36.6 0 0 Z" fill="#16324f" opacity="1" transform="translate(1292 1531.3) rotate(-38.7)"/><path d="M0 0 Q 21 -40.5 0 -106.6 Q -21 -40.5 0 0 Z" fill="#16324f" opacity="1" transform="translate(1292 1531.3) rotate(-19.3)"/><path d="M0 0 Q 21 -44.4 0 -116.9 Q -21 -44.4 0 0 Z" fill="#16324f" opacity="1" transform="translate(1292 1531.3) rotate(0)"/><path d="M0 0 Q 21 -40.5 0 -106.6 Q -21 -40.5 0 0 Z" fill="#16324f" opacity="1" transform="translate(1292 1531.3) rotate(19.3)"/><path d="M0 0 Q 21 -36.6 0 -96.4 Q -21 -36.6 0 0 Z" fill="#16324f" opacity="1" transform="translate(1292 1531.3) rotate(38.7)"/><path d="M0 0 Q 21 -32.7 0 -86.1 Q -21 -32.7 0 0 Z" fill="#16324f" opacity="1" transform="translate(1292 1531.3) rotate(58)"/><path d="M1256.9,1531.3 Q1292,1571.1 1327.1,1531.3 Z" fill="#16324f"/><path d="M0 0 Q 21 -32.7 0 -86.1 Q -21 -32.7 0 0 Z" fill="#16324f" opacity="1" transform="translate(1476 1531.3) rotate(-58)"/><path d="M0 0 Q 21 -37.4 0 -98.4 Q -21 -37.4 0 0 Z" fill="#16324f" opacity="1" transform="translate(1476 1531.3) rotate(-34.8)"/><path d="M0 0 Q 21 -42.1 0 -110.7 Q -21 -42.1 0 0 Z" fill="#16324f" opacity="1" transform="translate(1476 1531.3) rotate(-11.6)"/><path d="M0 0 Q 21 -42.1 0 -110.7 Q -21 -42.1 0 0 Z" fill="#16324f" opacity="1" transform="translate(1476 1531.3) rotate(11.6)"/><path d="M0 0 Q 21 -37.4 0 -98.4 Q -21 -37.4 0 0 Z" fill="#16324f" opacity="1" transform="translate(1476 1531.3) rotate(34.8)"/><path d="M0 0 Q 21 -32.7 0 -86.1 Q -21 -32.7 0 0 Z" fill="#16324f" opacity="1" transform="translate(1476 1531.3) rotate(58)"/><path d="M1440.9,1531.3 Q1476,1571.1 1511.1,1531.3 Z" fill="#16324f"/><path d="M0 0 Q 21 -32.7 0 -86.1 Q -21 -32.7 0 0 Z" fill="#16324f" opacity="1" transform="translate(1660 1531.3) rotate(-58)"/><path d="M0 0 Q 21 -37.4 0 -98.4 Q -21 -37.4 0 0 Z" fill="#16324f" opacity="1" transform="translate(1660 1531.3) rotate(-34.8)"/><path d="M0 0 Q 21 -42.1 0 -110.7 Q -21 -42.1 0 0 Z" fill="#16324f" opacity="1" transform="translate(1660 1531.3) rotate(-11.6)"/><path d="M0 0 Q 21 -42.1 0 -110.7 Q -21 -42.1 0 0 Z" fill="#16324f" opacity="1" transform="translate(1660 1531.3) rotate(11.6)"/><path d="M0 0 Q 21 -37.4 0 -98.4 Q -21 -37.4 0 0 Z" fill="#16324f" opacity="1" transform="translate(1660 1531.3) rotate(34.8)"/><path d="M0 0 Q 21 -32.7 0 -86.1 Q -21 -32.7 0 0 Z" fill="#16324f" opacity="1" transform="translate(1660 1531.3) rotate(58)"/><path d="M1624.9,1531.3 Q1660,1571.1 1695.1,1531.3 Z" fill="#16324f"/><path d="M0 0 Q 21 -32.7 0 -86.1 Q -21 -32.7 0 0 Z" fill="#16324f" opacity="1" transform="translate(1844 1531.3) rotate(-58)"/><path d="M0 0 Q 21 -38.6 0 -101.5 Q -21 -38.6 0 0 Z" fill="#16324f" opacity="1" transform="translate(1844 1531.3) rotate(-29)"/><path d="M0 0 Q 21 -44.4 0 -116.9 Q -21 -44.4 0 0 Z" fill="#16324f" opacity="1" transform="translate(1844 1531.3) rotate(0)"/><path d="M0 0 Q 21 -38.6 0 -101.5 Q -21 -38.6 0 0 Z" fill="#16324f" opacity="1" transform="translate(1844 1531.3) rotate(29)"/><path d="M0 0 Q 21 -32.7 0 -86.1 Q -21 -32.7 0 0 Z" fill="#16324f" opacity="1" transform="translate(1844 1531.3) rotate(58)"/><path d="M1808.9,1531.3 Q1844,1571.1 1879.1,1531.3 Z" fill="#16324f"/><path d="M0 0 Q 21 -32.7 0 -86.1 Q -21 -32.7 0 0 Z" fill="#16324f" opacity="1" transform="translate(2028 1531.3) rotate(-58)"/><path d="M0 0 Q 21 -37.4 0 -98.4 Q -21 -37.4 0 0 Z" fill="#16324f" opacity="1" transform="translate(2028 1531.3) rotate(-34.8)"/><path d="M0 0 Q 21 -42.1 0 -110.7 Q -21 -42.1 0 0 Z" fill="#16324f" opacity="1" transform="translate(2028 1531.3) rotate(-11.6)"/><path d="M0 0 Q 21 -42.1 0 -110.7 Q -21 -42.1 0 0 Z" fill="#16324f" opacity="1" transform="translate(2028 1531.3) rotate(11.6)"/><path d="M0 0 Q 21 -37.4 0 -98.4 Q -21 -37.4 0 0 Z" fill="#16324f" opacity="1" transform="translate(2028 1531.3) rotate(34.8)"/><path d="M0 0 Q 21 -32.7 0 -86.1 Q -21 -32.7 0 0 Z" fill="#16324f" opacity="1" transform="translate(2028 1531.3) rotate(58)"/><path d="M1992.9,1531.3 Q2028,1571.1 2063.1,1531.3 Z" fill="#16324f"/><line x1="250" y1="1563" x2="2150" y2="1563" stroke="#d8b45a" stroke-width="6"/><path d="M326.8,1750.2 L389.2,1611.6 L451.6,1750.2 Z M451.6,1750.2 L513.9,1611.6 L576.3,1750.2 Z M576.3,1750.2 L638.7,1611.6 L701,1750.2 Z M701,1750.2 L763.4,1611.6 L825.8,1750.2 Z M825.8,1750.2 L888.2,1611.6 L950.5,1750.2 Z M950.5,1750.2 L1012.9,1611.6 L1075.3,1750.2 Z M1075.3,1750.2 L1137.6,1611.6 L1200,1750.2 Z M1200,1750.2 L1262.4,1611.6 L1324.7,1750.2 Z M1324.7,1750.2 L1387.1,1611.6 L1449.5,1750.2 Z M1449.5,1750.2 L1511.8,1611.6 L1574.2,1750.2 Z M1574.2,1750.2 L1636.6,1611.6 L1699,1750.2 Z M1699,1750.2 L1761.3,1611.6 L1823.7,1750.2 Z M1823.7,1750.2 L1886.1,1611.6 L1948.4,1750.2 Z M1948.4,1750.2 L2010.8,1611.6 L2073.2,1750.2 Z " fill="#4d84b5"/><line x1="250" y1="1798.8" x2="2150" y2="1798.8" stroke="#d8b45a" stroke-width="6"/><line x1="280" y1="2006.2" x2="2120" y2="2006.2" stroke="#d8b45a" stroke-width="12.9"/><polyline points="391.6,1928.6 390.7,1929.7 390.1,1931.2 390.1,1933 390.7,1934.9 392,1936.8 393.9,1938.3 396.4,1939.3 399.3,1939.7 402.5,1939.2 405.6,1937.9 408.4,1935.6 410.7,1932.4 412.3,1928.6 412.8,1924.2 412.2,1919.6 410.3,1915.1 407.2,1911 403,1907.6 397.9,1905.3 392.1,1904.2 386,1904.7 380,1906.7 374.4,1910.2 369.7,1915.2 366.2,1921.4 364.3,1928.6 364.1,1936.2 365.9,1943.9 369.7,1951.1 375.2,1957.4 382.3,1962.3 390.6,1965.4 399.7,1966.5 409,1965.3 418,1961.7 426.1,1956 432.6,1948.3 437.3,1939 439.6,1928.6 439.3,1917.7 436.4,1906.9 430.8,1897 422.8,1888.5 412.7,1882 401.2,1878.1 388.8,1877.1 376.3,1879.1 364.4,1884.1 353.9,1892.1 345.4,1902.5 339.6,1914.9 336.9,1928.6" fill="none" stroke="#d8b45a" stroke-width="14.5" stroke-linecap="round" stroke-linejoin="round"/><polyline points="553.2,1928.6 552.3,1929.7 551.8,1931.2 551.8,1933 552.4,1934.9 553.6,1936.8 555.5,1938.3 558,1939.3 560.9,1939.7 564.1,1939.2 567.2,1937.9 570.1,1935.6 572.4,1932.4 573.9,1928.6 574.4,1924.2 573.8,1919.6 571.9,1915.1 568.9,1911 564.7,1907.6 559.6,1905.3 553.8,1904.2 547.7,1904.7 541.6,1906.7 536,1910.2 531.3,1915.2 527.8,1921.4 525.9,1928.6 525.8,1936.2 527.6,1943.9 531.3,1951.1 536.8,1957.4 543.9,1962.3 552.2,1965.4 561.3,1966.5 570.6,1965.3 579.6,1961.7 587.7,1956 594.3,1948.3 598.9,1939 601.2,1928.6 601,1917.7 598,1906.9 592.4,1897 584.4,1888.5 574.4,1882 562.9,1878.1 550.5,1877.1 538,1879.1 526.1,1884.1 515.5,1892.1 507.1,1902.5 501.3,1914.9 498.5,1928.6" fill="none" stroke="#d8b45a" stroke-width="14.5" stroke-linecap="round" stroke-linejoin="round"/><polyline points="714.9,1928.6 713.9,1929.7 713.4,1931.2 713.4,1933 714,1934.9 715.2,1936.8 717.2,1938.3 719.7,1939.3 722.6,1939.7 725.7,1939.2 728.8,1937.9 731.7,1935.6 734,1932.4 735.5,1928.6 736,1924.2 735.4,1919.6 733.6,1915.1 730.5,1911 726.3,1907.6 721.2,1905.3 715.4,1904.2 709.3,1904.7 703.2,1906.7 697.6,1910.2 692.9,1915.2 689.4,1921.4 687.5,1928.6 687.4,1936.2 689.2,1943.9 692.9,1951.1 698.4,1957.4 705.6,1962.3 713.9,1965.4 723,1966.5 732.3,1965.3 741.2,1961.7 749.3,1956 755.9,1948.3 760.5,1939 762.9,1928.6 762.6,1917.7 759.6,1906.9 754,1897 746,1888.5 736,1882 724.5,1878.1 712.1,1877.1 699.6,1879.1 687.7,1884.1 677.2,1892.1 668.7,1902.5 662.9,1914.9 660.2,1928.6" fill="none" stroke="#d8b45a" stroke-width="14.5" stroke-linecap="round" stroke-linejoin="round"/><polyline points="876.5,1928.6 875.6,1929.7 875,1931.2 875,1933 875.6,1934.9 876.9,1936.8 878.8,1938.3 881.3,1939.3 884.2,1939.7 887.3,1939.2 890.5,1937.9 893.3,1935.6 895.6,1932.4 897.1,1928.6 897.7,1924.2 897,1919.6 895.2,1915.1 892.1,1911 887.9,1907.6 882.8,1905.3 877,1904.2 870.9,1904.7 864.9,1906.7 859.3,1910.2 854.5,1915.2 851.1,1921.4 849.1,1928.6 849,1936.2 850.8,1943.9 854.5,1951.1 860.1,1957.4 867.2,1962.3 875.5,1965.4 884.6,1966.5 893.9,1965.3 902.9,1961.7 910.9,1956 917.5,1948.3 922.2,1939 924.5,1928.6 924.2,1917.7 921.3,1906.9 915.7,1897 907.7,1888.5 897.6,1882 886.1,1878.1 873.7,1877.1 861.2,1879.1 849.3,1884.1 838.8,1892.1 830.3,1902.5 824.5,1914.9 821.8,1928.6" fill="none" stroke="#d8b45a" stroke-width="14.5" stroke-linecap="round" stroke-linejoin="round"/><polyline points="1038.1,1928.6 1037.2,1929.7 1036.7,1931.2 1036.6,1933 1037.2,1934.9 1038.5,1936.8 1040.4,1938.3 1042.9,1939.3 1045.8,1939.7 1049,1939.2 1052.1,1937.9 1054.9,1935.6 1057.3,1932.4 1058.8,1928.6 1059.3,1924.2 1058.7,1919.6 1056.8,1915.1 1053.7,1911 1049.6,1907.6 1044.4,1905.3 1038.6,1904.2 1032.5,1904.7 1026.5,1906.7 1020.9,1910.2 1016.2,1915.2 1012.7,1921.4 1010.8,1928.6 1010.6,1936.2 1012.4,1943.9 1016.2,1951.1 1021.7,1957.4 1028.8,1962.3 1037.1,1965.4 1046.2,1966.5 1055.5,1965.3 1064.5,1961.7 1072.6,1956 1079.2,1948.3 1083.8,1939 1086.1,1928.6 1085.8,1917.7 1082.9,1906.9 1077.3,1897 1069.3,1888.5 1059.3,1882 1047.7,1878.1 1035.4,1877.1 1022.8,1879.1 1010.9,1884.1 1000.4,1892.1 991.9,1902.5 986.1,1914.9 983.4,1928.6" fill="none" stroke="#d8b45a" stroke-width="14.5" stroke-linecap="round" stroke-linejoin="round"/><polyline points="1199.7,1928.6 1198.8,1929.7 1198.3,1931.2 1198.3,1933 1198.9,1934.9 1200.1,1936.8 1202.1,1938.3 1204.5,1939.3 1207.5,1939.7 1210.6,1939.2 1213.7,1937.9 1216.6,1935.6 1218.9,1932.4 1220.4,1928.6 1220.9,1924.2 1220.3,1919.6 1218.4,1915.1 1215.4,1911 1211.2,1907.6 1206.1,1905.3 1200.3,1904.2 1194.2,1904.7 1188.1,1906.7 1182.5,1910.2 1177.8,1915.2 1174.3,1921.4 1172.4,1928.6 1172.3,1936.2 1174.1,1943.9 1177.8,1951.1 1183.3,1957.4 1190.4,1962.3 1198.8,1965.4 1207.8,1966.5 1217.2,1965.3 1226.1,1961.7 1234.2,1956 1240.8,1948.3 1245.4,1939 1247.7,1928.6 1247.5,1917.7 1244.5,1906.9 1238.9,1897 1230.9,1888.5 1220.9,1882 1209.4,1878.1 1197,1877.1 1184.5,1879.1 1172.6,1884.1 1162,1892.1 1153.6,1902.5 1147.8,1914.9 1145,1928.6" fill="none" stroke="#d8b45a" stroke-width="14.5" stroke-linecap="round" stroke-linejoin="round"/><polyline points="1361.4,1928.6 1360.4,1929.7 1359.9,1931.2 1359.9,1933 1360.5,1934.9 1361.8,1936.8 1363.7,1938.3 1366.2,1939.3 1369.1,1939.7 1372.2,1939.2 1375.3,1937.9 1378.2,1935.6 1380.5,1932.4 1382,1928.6 1382.5,1924.2 1381.9,1919.6 1380.1,1915.1 1377,1911 1372.8,1907.6 1367.7,1905.3 1361.9,1904.2 1355.8,1904.7 1349.7,1906.7 1344.1,1910.2 1339.4,1915.2 1335.9,1921.4 1334,1928.6 1333.9,1936.2 1335.7,1943.9 1339.4,1951.1 1345,1957.4 1352.1,1962.3 1360.4,1965.4 1369.5,1966.5 1378.8,1965.3 1387.8,1961.7 1395.8,1956 1402.4,1948.3 1407.1,1939 1409.4,1928.6 1409.1,1917.7 1406.1,1906.9 1400.5,1897 1392.5,1888.5 1382.5,1882 1371,1878.1 1358.6,1877.1 1346.1,1879.1 1334.2,1884.1 1323.7,1892.1 1315.2,1902.5 1309.4,1914.9 1306.7,1928.6" fill="none" stroke="#d8b45a" stroke-width="14.5" stroke-linecap="round" stroke-linejoin="round"/><polyline points="1523,1928.6 1522.1,1929.7 1521.5,1931.2 1521.5,1933 1522.1,1934.9 1523.4,1936.8 1525.3,1938.3 1527.8,1939.3 1530.7,1939.7 1533.8,1939.2 1537,1937.9 1539.8,1935.6 1542.1,1932.4 1543.7,1928.6 1544.2,1924.2 1543.5,1919.6 1541.7,1915.1 1538.6,1911 1534.4,1907.6 1529.3,1905.3 1523.5,1904.2 1517.4,1904.7 1511.4,1906.7 1505.8,1910.2 1501,1915.2 1497.6,1921.4 1495.6,1928.6 1495.5,1936.2 1497.3,1943.9 1501,1951.1 1506.6,1957.4 1513.7,1962.3 1522,1965.4 1531.1,1966.5 1540.4,1965.3 1549.4,1961.7 1557.4,1956 1564,1948.3 1568.7,1939 1571,1928.6 1570.7,1917.7 1567.8,1906.9 1562.2,1897 1554.2,1888.5 1544.1,1882 1532.6,1878.1 1520.2,1877.1 1507.7,1879.1 1495.8,1884.1 1485.3,1892.1 1476.8,1902.5 1471,1914.9 1468.3,1928.6" fill="none" stroke="#d8b45a" stroke-width="14.5" stroke-linecap="round" stroke-linejoin="round"/><polyline points="1684.6,1928.6 1683.7,1929.7 1683.2,1931.2 1683.1,1933 1683.7,1934.9 1685,1936.8 1686.9,1938.3 1689.4,1939.3 1692.3,1939.7 1695.5,1939.2 1698.6,1937.9 1701.4,1935.6 1703.8,1932.4 1705.3,1928.6 1705.8,1924.2 1705.2,1919.6 1703.3,1915.1 1700.3,1911 1696.1,1907.6 1690.9,1905.3 1685.2,1904.2 1679,1904.7 1673,1906.7 1667.4,1910.2 1662.7,1915.2 1659.2,1921.4 1657.3,1928.6 1657.1,1936.2 1658.9,1943.9 1662.7,1951.1 1668.2,1957.4 1675.3,1962.3 1683.6,1965.4 1692.7,1966.5 1702,1965.3 1711,1961.7 1719.1,1956 1725.7,1948.3 1730.3,1939 1732.6,1928.6 1732.4,1917.7 1729.4,1906.9 1723.8,1897 1715.8,1888.5 1705.8,1882 1694.2,1878.1 1681.9,1877.1 1669.3,1879.1 1657.4,1884.1 1646.9,1892.1 1638.5,1902.5 1632.6,1914.9 1629.9,1928.6" fill="none" stroke="#d8b45a" stroke-width="14.5" stroke-linecap="round" stroke-linejoin="round"/><polyline points="1846.2,1928.6 1845.3,1929.7 1844.8,1931.2 1844.8,1933 1845.4,1934.9 1846.6,1936.8 1848.6,1938.3 1851,1939.3 1854,1939.7 1857.1,1939.2 1860.2,1937.9 1863.1,1935.6 1865.4,1932.4 1866.9,1928.6 1867.4,1924.2 1866.8,1919.6 1864.9,1915.1 1861.9,1911 1857.7,1907.6 1852.6,1905.3 1846.8,1904.2 1840.7,1904.7 1834.6,1906.7 1829,1910.2 1824.3,1915.2 1820.8,1921.4 1818.9,1928.6 1818.8,1936.2 1820.6,1943.9 1824.3,1951.1 1829.8,1957.4 1836.9,1962.3 1845.3,1965.4 1854.3,1966.5 1863.7,1965.3 1872.6,1961.7 1880.7,1956 1887.3,1948.3 1891.9,1939 1894.3,1928.6 1894,1917.7 1891,1906.9 1885.4,1897 1877.4,1888.5 1867.4,1882 1855.9,1878.1 1843.5,1877.1 1831,1879.1 1819.1,1884.1 1808.5,1892.1 1800.1,1902.5 1794.3,1914.9 1791.6,1928.6" fill="none" stroke="#d8b45a" stroke-width="14.5" stroke-linecap="round" stroke-linejoin="round"/><polyline points="2007.9,1928.6 2007,1929.7 2006.4,1931.2 2006.4,1933 2007,1934.9 2008.3,1936.8 2010.2,1938.3 2012.7,1939.3 2015.6,1939.7 2018.7,1939.2 2021.9,1937.9 2024.7,1935.6 2027,1932.4 2028.5,1928.6 2029.1,1924.2 2028.4,1919.6 2026.6,1915.1 2023.5,1911 2019.3,1907.6 2014.2,1905.3 2008.4,1904.2 2002.3,1904.7 1996.2,1906.7 1990.6,1910.2 1985.9,1915.2 1982.4,1921.4 1980.5,1928.6 1980.4,1936.2 1982.2,1943.9 1985.9,1951.1 1991.5,1957.4 1998.6,1962.3 2006.9,1965.4 2016,1966.5 2025.3,1965.3 2034.3,1961.7 2042.3,1956 2048.9,1948.3 2053.6,1939 2055.9,1928.6 2055.6,1917.7 2052.6,1906.9 2047,1897 2039,1888.5 2029,1882 2017.5,1878.1 2005.1,1877.1 1992.6,1879.1 1980.7,1884.1 1970.2,1892.1 1961.7,1902.5 1955.9,1914.9 1953.2,1928.6" fill="none" stroke="#d8b45a" stroke-width="14.5" stroke-linecap="round" stroke-linejoin="round"/><line x1="250" y1="2051.9" x2="2150" y2="2051.9" stroke="#d8b45a" stroke-width="6"/><rect x="250" y="2051.9" width="1900" height="196.8" fill="#d8b45a"/><rect x="280" y="2090.8" width="59.5" height="59.5" fill="#16324f"/><rect x="339.5" y="2150.3" width="59.5" height="59.5" fill="#16324f"/><rect x="399" y="2090.8" width="59.5" height="59.5" fill="#16324f"/><rect x="458.5" y="2150.3" width="59.5" height="59.5" fill="#16324f"/><rect x="518" y="2090.8" width="59.5" height="59.5" fill="#16324f"/><rect x="577.5" y="2150.3" width="59.5" height="59.5" fill="#16324f"/><rect x="637.1" y="2090.8" width="59.5" height="59.5" fill="#16324f"/><rect x="696.6" y="2150.3" width="59.5" height="59.5" fill="#16324f"/><rect x="756.1" y="2090.8" width="59.5" height="59.5" fill="#16324f"/><rect x="815.6" y="2150.3" width="59.5" height="59.5" fill="#16324f"/><rect x="875.1" y="2090.8" width="59.5" height="59.5" fill="#16324f"/><rect x="934.6" y="2150.3" width="59.5" height="59.5" fill="#16324f"/><rect x="994.1" y="2090.8" width="59.5" height="59.5" fill="#16324f"/><rect x="1053.6" y="2150.3" width="59.5" height="59.5" fill="#16324f"/><rect x="1113.1" y="2090.8" width="59.5" height="59.5" fill="#16324f"/><rect x="1172.6" y="2150.3" width="59.5" height="59.5" fill="#16324f"/><rect x="1232.1" y="2090.8" width="59.5" height="59.5" fill="#16324f"/><rect x="1291.7" y="2150.3" width="59.5" height="59.5" fill="#16324f"/><rect x="1351.2" y="2090.8" width="59.5" height="59.5" fill="#16324f"/><rect x="1410.7" y="2150.3" width="59.5" height="59.5" fill="#16324f"/><rect x="1470.2" y="2090.8" width="59.5" height="59.5" fill="#16324f"/><rect x="1529.7" y="2150.3" width="59.5" height="59.5" fill="#16324f"/><rect x="1589.2" y="2090.8" width="59.5" height="59.5" fill="#16324f"/><rect x="1648.7" y="2150.3" width="59.5" height="59.5" fill="#16324f"/><rect x="1708.2" y="2090.8" width="59.5" height="59.5" fill="#16324f"/><rect x="1767.7" y="2150.3" width="59.5" height="59.5" fill="#16324f"/><rect x="1827.2" y="2090.8" width="59.5" height="59.5" fill="#16324f"/><rect x="1886.7" y="2150.3" width="59.5" height="59.5" fill="#16324f"/><rect x="1946.3" y="2090.8" width="59.5" height="59.5" fill="#16324f"/><rect x="2005.8" y="2150.3" width="59.5" height="59.5" fill="#16324f"/><line x1="250" y1="2248.7" x2="2150" y2="2248.7" stroke="#d8b45a" stroke-width="6"/><line x1="280" y1="2419.1" x2="2120" y2="2419.1" stroke="#d8b45a" stroke-width="7.8"/><line x1="414.6" y1="2412.6" x2="358.3" y2="2376" stroke="#d8b45a" stroke-width="12.9" stroke-linecap="round"/><line x1="414.6" y1="2412.6" x2="364.5" y2="2348.4" stroke="#d8b45a" stroke-width="12.9" stroke-linecap="round"/><line x1="414.6" y1="2412.6" x2="383.5" y2="2322.2" stroke="#d8b45a" stroke-width="12.9" stroke-linecap="round"/><line x1="414.6" y1="2412.6" x2="414.6" y2="2302.7" stroke="#d8b45a" stroke-width="12.9" stroke-linecap="round"/><line x1="414.6" y1="2412.6" x2="445.8" y2="2322.2" stroke="#d8b45a" stroke-width="12.9" stroke-linecap="round"/><line x1="414.6" y1="2412.6" x2="464.8" y2="2348.4" stroke="#d8b45a" stroke-width="12.9" stroke-linecap="round"/><line x1="414.6" y1="2412.6" x2="471" y2="2376" stroke="#d8b45a" stroke-width="12.9" stroke-linecap="round"/><line x1="589.2" y1="2412.6" x2="532.8" y2="2376" stroke="#d8b45a" stroke-width="12.9" stroke-linecap="round"/><line x1="589.2" y1="2412.6" x2="539" y2="2348.4" stroke="#d8b45a" stroke-width="12.9" stroke-linecap="round"/><line x1="589.2" y1="2412.6" x2="558" y2="2322.2" stroke="#d8b45a" stroke-width="12.9" stroke-linecap="round"/><line x1="589.2" y1="2412.6" x2="589.2" y2="2302.7" stroke="#d8b45a" stroke-width="12.9" stroke-linecap="round"/><line x1="589.2" y1="2412.6" x2="620.3" y2="2322.2" stroke="#d8b45a" stroke-width="12.9" stroke-linecap="round"/><line x1="589.2" y1="2412.6" x2="639.3" y2="2348.4" stroke="#d8b45a" stroke-width="12.9" stroke-linecap="round"/><line x1="589.2" y1="2412.6" x2="645.5" y2="2376" stroke="#d8b45a" stroke-width="12.9" stroke-linecap="round"/><line x1="763.7" y1="2412.6" x2="707.3" y2="2376" stroke="#d8b45a" stroke-width="12.9" stroke-linecap="round"/><line x1="763.7" y1="2412.6" x2="713.5" y2="2348.4" stroke="#d8b45a" stroke-width="12.9" stroke-linecap="round"/><line x1="763.7" y1="2412.6" x2="732.5" y2="2322.2" stroke="#d8b45a" stroke-width="12.9" stroke-linecap="round"/><line x1="763.7" y1="2412.6" x2="763.7" y2="2302.7" stroke="#d8b45a" stroke-width="12.9" stroke-linecap="round"/><line x1="763.7" y1="2412.6" x2="794.8" y2="2322.2" stroke="#d8b45a" stroke-width="12.9" stroke-linecap="round"/><line x1="763.7" y1="2412.6" x2="813.8" y2="2348.4" stroke="#d8b45a" stroke-width="12.9" stroke-linecap="round"/><line x1="763.7" y1="2412.6" x2="820.1" y2="2376" stroke="#d8b45a" stroke-width="12.9" stroke-linecap="round"/><line x1="938.2" y1="2412.6" x2="881.8" y2="2376" stroke="#d8b45a" stroke-width="12.9" stroke-linecap="round"/><line x1="938.2" y1="2412.6" x2="888.1" y2="2348.4" stroke="#d8b45a" stroke-width="12.9" stroke-linecap="round"/><line x1="938.2" y1="2412.6" x2="907.1" y2="2322.2" stroke="#d8b45a" stroke-width="12.9" stroke-linecap="round"/><line x1="938.2" y1="2412.6" x2="938.2" y2="2302.7" stroke="#d8b45a" stroke-width="12.9" stroke-linecap="round"/><line x1="938.2" y1="2412.6" x2="969.4" y2="2322.2" stroke="#d8b45a" stroke-width="12.9" stroke-linecap="round"/><line x1="938.2" y1="2412.6" x2="988.4" y2="2348.4" stroke="#d8b45a" stroke-width="12.9" stroke-linecap="round"/><line x1="938.2" y1="2412.6" x2="994.6" y2="2376" stroke="#d8b45a" stroke-width="12.9" stroke-linecap="round"/><line x1="1112.7" y1="2412.6" x2="1056.4" y2="2376" stroke="#d8b45a" stroke-width="12.9" stroke-linecap="round"/><line x1="1112.7" y1="2412.6" x2="1062.6" y2="2348.4" stroke="#d8b45a" stroke-width="12.9" stroke-linecap="round"/><line x1="1112.7" y1="2412.6" x2="1081.6" y2="2322.2" stroke="#d8b45a" stroke-width="12.9" stroke-linecap="round"/><line x1="1112.7" y1="2412.6" x2="1112.7" y2="2302.7" stroke="#d8b45a" stroke-width="12.9" stroke-linecap="round"/><line x1="1112.7" y1="2412.6" x2="1143.9" y2="2322.2" stroke="#d8b45a" stroke-width="12.9" stroke-linecap="round"/><line x1="1112.7" y1="2412.6" x2="1162.9" y2="2348.4" stroke="#d8b45a" stroke-width="12.9" stroke-linecap="round"/><line x1="1112.7" y1="2412.6" x2="1169.1" y2="2376" stroke="#d8b45a" stroke-width="12.9" stroke-linecap="round"/><line x1="1287.3" y1="2412.6" x2="1230.9" y2="2376" stroke="#d8b45a" stroke-width="12.9" stroke-linecap="round"/><line x1="1287.3" y1="2412.6" x2="1237.1" y2="2348.4" stroke="#d8b45a" stroke-width="12.9" stroke-linecap="round"/><line x1="1287.3" y1="2412.6" x2="1256.1" y2="2322.2" stroke="#d8b45a" stroke-width="12.9" stroke-linecap="round"/><line x1="1287.3" y1="2412.6" x2="1287.3" y2="2302.7" stroke="#d8b45a" stroke-width="12.9" stroke-linecap="round"/><line x1="1287.3" y1="2412.6" x2="1318.4" y2="2322.2" stroke="#d8b45a" stroke-width="12.9" stroke-linecap="round"/><line x1="1287.3" y1="2412.6" x2="1337.4" y2="2348.4" stroke="#d8b45a" stroke-width="12.9" stroke-linecap="round"/><line x1="1287.3" y1="2412.6" x2="1343.6" y2="2376" stroke="#d8b45a" stroke-width="12.9" stroke-linecap="round"/><line x1="1461.8" y1="2412.6" x2="1405.4" y2="2376" stroke="#d8b45a" stroke-width="12.9" stroke-linecap="round"/><line x1="1461.8" y1="2412.6" x2="1411.6" y2="2348.4" stroke="#d8b45a" stroke-width="12.9" stroke-linecap="round"/><line x1="1461.8" y1="2412.6" x2="1430.6" y2="2322.2" stroke="#d8b45a" stroke-width="12.9" stroke-linecap="round"/><line x1="1461.8" y1="2412.6" x2="1461.8" y2="2302.7" stroke="#d8b45a" stroke-width="12.9" stroke-linecap="round"/><line x1="1461.8" y1="2412.6" x2="1492.9" y2="2322.2" stroke="#d8b45a" stroke-width="12.9" stroke-linecap="round"/><line x1="1461.8" y1="2412.6" x2="1511.9" y2="2348.4" stroke="#d8b45a" stroke-width="12.9" stroke-linecap="round"/><line x1="1461.8" y1="2412.6" x2="1518.2" y2="2376" stroke="#d8b45a" stroke-width="12.9" stroke-linecap="round"/><line x1="1636.3" y1="2412.6" x2="1579.9" y2="2376" stroke="#d8b45a" stroke-width="12.9" stroke-linecap="round"/><line x1="1636.3" y1="2412.6" x2="1586.2" y2="2348.4" stroke="#d8b45a" stroke-width="12.9" stroke-linecap="round"/><line x1="1636.3" y1="2412.6" x2="1605.2" y2="2322.2" stroke="#d8b45a" stroke-width="12.9" stroke-linecap="round"/><line x1="1636.3" y1="2412.6" x2="1636.3" y2="2302.7" stroke="#d8b45a" stroke-width="12.9" stroke-linecap="round"/><line x1="1636.3" y1="2412.6" x2="1667.5" y2="2322.2" stroke="#d8b45a" stroke-width="12.9" stroke-linecap="round"/><line x1="1636.3" y1="2412.6" x2="1686.5" y2="2348.4" stroke="#d8b45a" stroke-width="12.9" stroke-linecap="round"/><line x1="1636.3" y1="2412.6" x2="1692.7" y2="2376" stroke="#d8b45a" stroke-width="12.9" stroke-linecap="round"/><line x1="1810.8" y1="2412.6" x2="1754.5" y2="2376" stroke="#d8b45a" stroke-width="12.9" stroke-linecap="round"/><line x1="1810.8" y1="2412.6" x2="1760.7" y2="2348.4" stroke="#d8b45a" stroke-width="12.9" stroke-linecap="round"/><line x1="1810.8" y1="2412.6" x2="1779.7" y2="2322.2" stroke="#d8b45a" stroke-width="12.9" stroke-linecap="round"/><line x1="1810.8" y1="2412.6" x2="1810.8" y2="2302.7" stroke="#d8b45a" stroke-width="12.9" stroke-linecap="round"/><line x1="1810.8" y1="2412.6" x2="1842" y2="2322.2" stroke="#d8b45a" stroke-width="12.9" stroke-linecap="round"/><line x1="1810.8" y1="2412.6" x2="1861" y2="2348.4" stroke="#d8b45a" stroke-width="12.9" stroke-linecap="round"/><line x1="1810.8" y1="2412.6" x2="1867.2" y2="2376" stroke="#d8b45a" stroke-width="12.9" stroke-linecap="round"/><line x1="1985.4" y1="2412.6" x2="1929" y2="2376" stroke="#d8b45a" stroke-width="12.9" stroke-linecap="round"/><line x1="1985.4" y1="2412.6" x2="1935.2" y2="2348.4" stroke="#d8b45a" stroke-width="12.9" stroke-linecap="round"/><line x1="1985.4" y1="2412.6" x2="1954.2" y2="2322.2" stroke="#d8b45a" stroke-width="12.9" stroke-linecap="round"/><line x1="1985.4" y1="2412.6" x2="1985.4" y2="2302.7" stroke="#d8b45a" stroke-width="12.9" stroke-linecap="round"/><line x1="1985.4" y1="2412.6" x2="2016.5" y2="2322.2" stroke="#d8b45a" stroke-width="12.9" stroke-linecap="round"/><line x1="1985.4" y1="2412.6" x2="2035.5" y2="2348.4" stroke="#d8b45a" stroke-width="12.9" stroke-linecap="round"/><line x1="1985.4" y1="2412.6" x2="2041.7" y2="2376" stroke="#d8b45a" stroke-width="12.9" stroke-linecap="round"/><line x1="250" y1="2456.7" x2="2150" y2="2456.7" stroke="#d8b45a" stroke-width="6"/><path d="M358.5,2678.3 L 518.4,2678.3 L 518.4,2518.4 L 392.8,2518.4 L 392.8,2617.4 L 457.5,2617.4 L 457.5,2567.9 M548.9,2678.3 L 708.8,2678.3 L 708.8,2518.4 L 583.2,2518.4 L 583.2,2617.4 L 647.9,2617.4 L 647.9,2567.9 M739.3,2678.3 L 899.2,2678.3 L 899.2,2518.4 L 773.5,2518.4 L 773.5,2617.4 L 838.3,2617.4 L 838.3,2567.9 M929.7,2678.3 L 1089.6,2678.3 L 1089.6,2518.4 L 963.9,2518.4 L 963.9,2617.4 L 1028.7,2617.4 L 1028.7,2567.9 M1120,2678.3 L 1280,2678.3 L 1280,2518.4 L 1154.3,2518.4 L 1154.3,2617.4 L 1219,2617.4 L 1219,2567.9 M1310.4,2678.3 L 1470.3,2678.3 L 1470.3,2518.4 L 1344.7,2518.4 L 1344.7,2617.4 L 1409.4,2617.4 L 1409.4,2567.9 M1500.8,2678.3 L 1660.7,2678.3 L 1660.7,2518.4 L 1535.1,2518.4 L 1535.1,2617.4 L 1599.8,2617.4 L 1599.8,2567.9 M1691.2,2678.3 L 1851.1,2678.3 L 1851.1,2518.4 L 1725.5,2518.4 L 1725.5,2617.4 L 1790.2,2617.4 L 1790.2,2567.9 M1881.6,2678.3 L 2041.5,2678.3 L 2041.5,2518.4 L 1915.8,2518.4 L 1915.8,2617.4 L 1980.6,2617.4 L 1980.6,2567.9 " fill="none" stroke="#4d84b5" stroke-width="24.7"/><line x1="250" y1="2740" x2="2150" y2="2740" stroke="#d8b45a" stroke-width="6"/><line x1="250" y1="260" x2="2150" y2="260" stroke="#d8b45a" stroke-width="6"/><rect x="100" y="100" width="2200" height="2800" fill="none" stroke="#d8b45a" stroke-width="9"/><rect x="142" y="142" width="2116" height="2716" fill="none" stroke="#d8b45a" stroke-width="3" opacity="0.65"/></svg></svg>