<svg xmlns="http://www.w3.org/2000/svg" width="2400" height="1800" viewBox="0 0 2400 1800"><rect width="2400" height="1800" fill="#e9e1d2"/><rect y="1430" width="2400" height="370" fill="#c8b190"/><line x1="120" y1="1430" x2="60" y2="1800" stroke="#00000018" stroke-width="6"/><line x1="380" y1="1430" x2="320" y2="1800" stroke="#00000018" stroke-width="6"/><line x1="640" y1="1430" x2="580" y2="1800" stroke="#00000018" stroke-width="6"/><line x1="900" y1="1430" x2="840" y2="1800" stroke="#00000018" stroke-width="6"/><line x1="1160" y1="1430" x2="1100" y2="1800" stroke="#00000018" stroke-width="6"/><line x1="1420" y1="1430" x2="1360" y2="1800" stroke="#00000018" stroke-width="6"/><line x1="1680" y1="1430" x2="1620" y2="1800" stroke="#00000018" stroke-width="6"/><line x1="1940" y1="1430" x2="1880" y2="1800" stroke="#00000018" stroke-width="6"/><line x1="2200" y1="1430" x2="2140" y2="1800" stroke="#00000018" stroke-width="6"/><rect y="1418" width="2400" height="16" fill="#d7cbb6"/><rect x="700" y="980" width="1000" height="460" rx="26" fill="#a87e57"/><rect x="660" y="1290" width="1080" height="210" rx="30" fill="#f1ebdf"/><rect x="660" y="1420" width="1080" height="120" rx="24" fill="#7c5636" opacity="0.85"/><rect x="770" y="1180" width="300" height="150" rx="40" fill="#faf6ec"/><rect x="1330" y="1180" width="300" height="150" rx="40" fill="#a99878"/><rect x="640" y="1530" width="1120" height="26" rx="12" fill="#a87e57"/><rect x="360" y="1260" width="240" height="220" rx="10" fill="#a87e57"/><rect x="380" y="1300" width="200" height="14" fill="#00000022"/><line x1="480" y1="1260" x2="480" y2="1130" stroke="#5a4632" stroke-width="12"/><path d="M410,1130 L550,1130 L520,1020 L440,1020 Z" fill="#7c5636"/><path d="M2060,1520 Q 1910,1282.5 1835,1345" fill="none" stroke="#5d7052" stroke-width="20" stroke-linecap="round"/><path d="M2060,1520 Q 1960,1282.5 1910,1295" fill="none" stroke="#5d7052" stroke-width="20" stroke-linecap="round"/><path d="M2060,1520 Q 2010,1282.5 1985,1245" fill="none" stroke="#5d7052" stroke-width="20" stroke-linecap="round"/><path d="M2060,1520 Q 2060,1282.5 2060,1195" fill="none" stroke="#5d7052" stroke-width="20" stroke-linecap="round"/><path d="M2060,1520 Q 2110,1282.5 2135,1245" fill="none" stroke="#5d7052" stroke-width="20" stroke-linecap="round"/><path d="M2060,1520 Q 2160,1282.5 2210,1295" fill="none" stroke="#5d7052" stroke-width="20" stroke-linecap="round"/><path d="M2060,1520 Q 2210,1282.5 2285,1345" fill="none" stroke="#5d7052" stroke-width="20" stroke-linecap="round"/><path d="M1972.5,1520 L2147.5,1520 L2125,1657.5 L1995,1657.5 Z" fill="#a9714d"/><defs><filter id="a60b-sh" x="-30%" y="-30%" width="160%" height="160%"><feGaussianBlur stdDeviation="16"/></filter></defs><rect x="928" y="246" width="572" height="702" fill="#000" opacity="0.28" filter="url(#a60b-sh)"/><rect x="914" y="224" width="572" height="702" fill="#4a3d2f"/><rect x="930.9" y="240.9" width="538.2" height="668.2" fill="none" stroke="#00000055" stroke-width="3"/><rect x="940" y="250" width="520" height="650" fill="#f6f2ea"/><svg x="979" y="289" width="442" height="572" viewBox="0 0 2400 3000" preserveAspectRatio="xMidYMid slice"><filter id="a60-warp" x="-4%" y="-4%" width="108%" height="108%"><feTurbulence type="fractalNoise" baseFrequency="0.0105" numOctaves="2" seed="5782" result="w"/><feDisplacementMap in="SourceGraphic" in2="w" scale="7" xChannelSelector="R" yChannelSelector="G"/></filter><filter id="a60-grain" x="0%" y="0%" width="100%" height="100%"><feTurbulence type="fractalNoise" baseFrequency="0.6" numOctaves="2" seed="5789"/><feColorMatrix type="matrix" values="0.33 0.33 0.33 0 0.62  0.33 0.33 0.33 0 0.62  0.33 0.33 0.33 0 0.62  0 0 0 0 1"/></filter><filter id="a60-mottle" x="0%" y="0%" width="100%" height="100%"><feTurbulence type="fractalNoise" baseFrequency="0.0045" numOctaves="3" seed="5795"/><feColorMatrix type="matrix" values="0.2 0.2 0.2 0 0.78  0.2 0.2 0.2 0 0.78  0.2 0.2 0.2 0 0.78  0 0 0 0 1"/></filter><filter id="a60-fade" x="0%" y="0%" width="100%" height="100%"><feTurbulence type="fractalNoise" baseFrequency="0.006" numOctaves="2" seed="5811"/><feColorMatrix type="matrix" values="0.3 0.3 0.3 0 -0.08  0.3 0.3 0.3 0 -0.08  0.3 0.3 0.3 0 -0.1  0 0 0 0 1"/></filter><filter id="a60-blur9"><feGaussianBlur stdDeviation="9"/></filter><radialGradient id="a60-vig" cx="50%" cy="44%" r="78%"><stop offset="52%" stop-color="#241a10" stop-opacity="0"/><stop offset="100%" stop-color="#241a10" stop-opacity="0.17"/></radialGradient><radialGradient id="a60-warm" cx="52%" cy="30%" r="85%"><stop offset="0%" stop-color="#e8c890" stop-opacity="0.14"/><stop offset="70%" stop-color="#e8c890" stop-opacity="0"/></radialGradient><rect width="2400" height="3000" fill="#e5dbc6"/><rect width="2400" height="3000" fill="url(#a60-warm)"/><g filter="url(#a60-warp)"><path d="M1909.1,1773 Q1850.4,2046 1718,2261.3 Q1585.6,2476.6 1392.8,2558.9 Q1200,2641.1 1008.5,2554.9 Q817,2468.7 680.2,2267.2 Q543.3,2065.7 487.5,1782.9 Q431.8,1500 486.2,1219.7 Q540.6,939.4 677.4,735.1 Q814.2,530.7 1007.1,440.8 Q1200,350.9 1388.8,444.3 Q1577.6,537.7 1717.3,732.2 Q1857.1,926.7 1912.4,1213.4 Q1967.8,1500 1909.1,1773 Z" fill="#a99878" stroke="#38322a" stroke-width="9"/><clipPath id="a60-tb"><path d="M1843.8,1760 Q1797.6,2020 1671.3,2210.3 Q1545,2400.7 1372.5,2470.3 Q1200,2540 1027.5,2470.3 Q855,2400.7 728.7,2210.3 Q602.4,2020 556.2,1760 Q510,1500 556.2,1240 Q602.4,980 728.7,789.7 Q855,599.3 1027.5,529.7 Q1200,460 1372.5,529.7 Q1545,599.3 1671.3,789.7 Q1797.6,980 1843.8,1240 Q1890,1500 1843.8,1760 Z"/></clipPath><g clip-path="url(#a60-tb)"><line x1="560" y1="560" x2="1840" y2="560" stroke="#38322a" stroke-width="4" opacity="0.35"/><path d="M600,631.9 L632.6,664.4 L600,697 l -8,-6 L617.4,664.4 l -26.1,-23.9 Z" fill="#38322a"/><path d="M751.6,631.9 L784.2,664.4 L751.6,697 l -8,-6 L769,664.4 l -26.1,-23.9 Z" fill="#38322a"/><rect x="883.2" y="621" width="10" height="86.9" fill="#38322a"/><rect x="905.2" y="621" width="10" height="86.9" fill="#38322a"/><path d="M1032.9,610.1 l 17.4,23.9 l -8.7,0 L1035,718.8 l -8,0 Z" fill="#38322a"/><path d="M1173.5,664.4 l 23.9,-15.2 l 0,10.9 l 54.3,0 l 0,8 L1195.2,670.4 Z" fill="#38322a"/><path d="M1320.1,610.1 l 17.4,23.9 l -8.7,0 L1322.3,718.8 l -8,0 Z" fill="#38322a"/><path d="M1472.7,664.4 l 23.9,-15.2 l 0,10.9 l 54.3,0 l 0,8 L1494.5,670.4 Z" fill="#38322a"/><path d="M1596.4,631.9 L1628.9,664.4 L1596.4,697 l -8,-6 L1613.7,664.4 l -26.1,-23.9 Z" fill="#38322a"/><path d="M1732,664.4 l 23.9,-15.2 l 0,10.9 l 54.3,0 l 0,8 L1753.7,670.4 Z" fill="#38322a"/><line x1="560" y1="768.9" x2="1840" y2="768.9" stroke="#38322a" stroke-width="4" opacity="0.35"/><path d="M600,819 l 17.4,23.9 l -8.7,0 L602.2,927.6 l -8,0 Z" fill="#38322a"/><path d="M742.6,819 l 17.4,23.9 l -8.7,0 L744.8,927.6 l -8,0 Z" fill="#38322a"/><path d="M868.2,840.7 L900.8,873.3 L868.2,905.9 l -8,-6 L885.6,873.3 l -26.1,-23.9 Z" fill="#38322a"/><path d="M1008.9,819 l 17.4,23.9 l -8.7,0 L1011,927.6 l -8,0 Z" fill="#38322a"/><rect x="1142.5" y="829.9" width="10" height="86.9" fill="#38322a"/><rect x="1164.5" y="829.9" width="10" height="86.9" fill="#38322a"/><path d="M1282.1,840.7 L1314.7,873.3 L1282.1,905.9 l -8,-6 L1299.5,873.3 l -26.1,-23.9 Z" fill="#38322a"/><rect x="1417.7" y="829.9" width="10" height="86.9" fill="#38322a"/><rect x="1439.7" y="829.9" width="10" height="86.9" fill="#38322a"/><path d="M1560.4,873.3 l 23.9,-15.2 l 0,10.9 l 54.3,0 l 0,8 L1582.1,879.3 Z" fill="#38322a"/><rect x="1702" y="829.9" width="10" height="86.9" fill="#38322a"/><rect x="1724" y="829.9" width="10" height="86.9" fill="#38322a"/><line x1="560" y1="977.8" x2="1840" y2="977.8" stroke="#38322a" stroke-width="4" opacity="0.35"/><rect x="600" y="1038.8" width="10" height="86.9" fill="#38322a"/><rect x="622" y="1038.8" width="10" height="86.9" fill="#38322a"/><path d="M728.6,1082.2 l 23.9,-15.2 l 0,10.9 l 54.3,0 l 0,8 L750.3,1088.2 Z" fill="#38322a"/><path d="M867.2,1027.9 l 17.4,23.9 l -8.7,0 L869.4,1136.5 l -8,0 Z" fill="#38322a"/><path d="M1011.9,1082.2 l 23.9,-15.2 l 0,10.9 l 54.3,0 l 0,8 L1033.6,1088.2 Z" fill="#38322a"/><rect x="1152.5" y="1038.8" width="10" height="86.9" fill="#38322a"/><rect x="1174.5" y="1038.8" width="10" height="86.9" fill="#38322a"/><rect x="1283.1" y="1038.8" width="10" height="86.9" fill="#38322a"/><rect x="1305.1" y="1038.8" width="10" height="86.9" fill="#38322a"/><path d="M1411.7,1049.6 L1444.3,1082.2 L1411.7,1114.8 l -8,-6 L1429.1,1082.2 l -26.1,-23.9 Z" fill="#38322a"/><path d="M1557.4,1049.6 L1589.9,1082.2 L1557.4,1114.8 l -8,-6 L1574.7,1082.2 l -26.1,-23.9 Z" fill="#38322a"/><path d="M1710,1027.9 l 17.4,23.9 l -8.7,0 L1712.2,1136.5 l -8,0 Z" fill="#38322a"/><line x1="560" y1="1186.7" x2="1840" y2="1186.7" stroke="#38322a" stroke-width="4" opacity="0.35"/><rect x="600" y="1247.7" width="10" height="86.9" fill="#38322a"/><rect x="622" y="1247.7" width="10" height="86.9" fill="#38322a"/><rect x="752.6" y="1247.7" width="10" height="86.9" fill="#38322a"/><rect x="774.6" y="1247.7" width="10" height="86.9" fill="#38322a"/><path d="M881.2,1236.8 l 17.4,23.9 l -8.7,0 L883.4,1345.4 l -8,0 Z" fill="#38322a"/><rect x="1020.9" y="1247.7" width="10" height="86.9" fill="#38322a"/><rect x="1042.9" y="1247.7" width="10" height="86.9" fill="#38322a"/><rect x="1148.5" y="1247.7" width="10" height="86.9" fill="#38322a"/><rect x="1170.5" y="1247.7" width="10" height="86.9" fill="#38322a"/><rect x="1283.1" y="1247.7" width="10" height="86.9" fill="#38322a"/><rect x="1305.1" y="1247.7" width="10" height="86.9" fill="#38322a"/><path d="M1421.7,1258.5 L1454.3,1291.1 L1421.7,1323.7 l -8,-6 L1439.1,1291.1 l -26.1,-23.9 Z" fill="#38322a"/><path d="M1574.4,1236.8 l 17.4,23.9 l -8.7,0 L1576.5,1345.4 l -8,0 Z" fill="#38322a"/><rect x="1705" y="1247.7" width="10" height="86.9" fill="#38322a"/><rect x="1727" y="1247.7" width="10" height="86.9" fill="#38322a"/><line x1="560" y1="1395.6" x2="1840" y2="1395.6" stroke="#38322a" stroke-width="4" opacity="0.35"/><path d="M600,1467.4 L632.6,1500 L600,1532.6 l -8,-6 L617.4,1500 l -26.1,-23.9 Z" fill="#38322a"/><path d="M722.6,1500 l 23.9,-15.2 l 0,10.9 l 54.3,0 l 0,8 L744.3,1506 Z" fill="#38322a"/><path d="M851.2,1500 l 23.9,-15.2 l 0,10.9 l 54.3,0 l 0,8 L873,1506 Z" fill="#38322a"/><path d="M1003.9,1445.7 l 17.4,23.9 l -8.7,0 L1006,1554.3 l -8,0 Z" fill="#38322a"/><rect x="1129.5" y="1456.6" width="10" height="86.9" fill="#38322a"/><rect x="1151.5" y="1456.6" width="10" height="86.9" fill="#38322a"/><rect x="1263.1" y="1456.6" width="10" height="86.9" fill="#38322a"/><rect x="1285.1" y="1456.6" width="10" height="86.9" fill="#38322a"/><path d="M1414.7,1467.4 L1447.3,1500 L1414.7,1532.6 l -8,-6 L1432.1,1500 l -26.1,-23.9 Z" fill="#38322a"/><rect x="1556.4" y="1456.6" width="10" height="86.9" fill="#38322a"/><rect x="1578.4" y="1456.6" width="10" height="86.9" fill="#38322a"/><path d="M1699,1445.7 l 17.4,23.9 l -8.7,0 L1701.2,1554.3 l -8,0 Z" fill="#38322a"/><line x1="560" y1="1604.4" x2="1840" y2="1604.4" stroke="#38322a" stroke-width="4" opacity="0.35"/><path d="M600,1654.6 l 17.4,23.9 l -8.7,0 L602.2,1763.2 l -8,0 Z" fill="#38322a"/><path d="M747.6,1708.9 l 23.9,-15.2 l 0,10.9 l 54.3,0 l 0,8 L769.3,1714.9 Z" fill="#38322a"/><path d="M897.2,1654.6 l 17.4,23.9 l -8.7,0 L899.4,1763.2 l -8,0 Z" fill="#38322a"/><path d="M1048.9,1654.6 l 17.4,23.9 l -8.7,0 L1051,1763.2 l -8,0 Z" fill="#38322a"/><rect x="1201.5" y="1665.4" width="10" height="86.9" fill="#38322a"/><rect x="1223.5" y="1665.4" width="10" height="86.9" fill="#38322a"/><path d="M1337.1,1708.9 l 23.9,-15.2 l 0,10.9 l 54.3,0 l 0,8 L1358.8,1714.9 Z" fill="#38322a"/><rect x="1463.7" y="1665.4" width="10" height="86.9" fill="#38322a"/><rect x="1485.7" y="1665.4" width="10" height="86.9" fill="#38322a"/><path d="M1602.4,1676.3 L1634.9,1708.9 L1602.4,1741.5 l -8,-6 L1619.7,1708.9 l -26.1,-23.9 Z" fill="#38322a"/><rect x="1726" y="1665.4" width="10" height="86.9" fill="#38322a"/><rect x="1748" y="1665.4" width="10" height="86.9" fill="#38322a"/><line x1="560" y1="1813.3" x2="1840" y2="1813.3" stroke="#38322a" stroke-width="4" opacity="0.35"/><path d="M600,1863.5 l 17.4,23.9 l -8.7,0 L602.2,1972.1 l -8,0 Z" fill="#38322a"/><path d="M732.6,1885.2 L765.2,1917.8 L732.6,1950.4 l -8,-6 L750,1917.8 l -26.1,-23.9 Z" fill="#38322a"/><path d="M863.2,1863.5 l 17.4,23.9 l -8.7,0 L865.4,1972.1 l -8,0 Z" fill="#38322a"/><rect x="1006.9" y="1874.3" width="10" height="86.9" fill="#38322a"/><rect x="1028.9" y="1874.3" width="10" height="86.9" fill="#38322a"/><rect x="1131.5" y="1874.3" width="10" height="86.9" fill="#38322a"/><rect x="1153.5" y="1874.3" width="10" height="86.9" fill="#38322a"/><path d="M1255.1,1863.5 l 17.4,23.9 l -8.7,0 L1257.3,1972.1 l -8,0 Z" fill="#38322a"/><path d="M1385.7,1917.8 l 23.9,-15.2 l 0,10.9 l 54.3,0 l 0,8 L1407.5,1923.8 Z" fill="#38322a"/><path d="M1529.4,1863.5 l 17.4,23.9 l -8.7,0 L1531.5,1972.1 l -8,0 Z" fill="#38322a"/><path d="M1656,1917.8 l 23.9,-15.2 l 0,10.9 l 54.3,0 l 0,8 L1677.7,1923.8 Z" fill="#38322a"/><line x1="560" y1="2022.2" x2="1840" y2="2022.2" stroke="#38322a" stroke-width="4" opacity="0.35"/><path d="M600,2072.4 l 17.4,23.9 l -8.7,0 L602.2,2181 l -8,0 Z" fill="#38322a"/><path d="M739.6,2072.4 l 17.4,23.9 l -8.7,0 L741.8,2181 l -8,0 Z" fill="#38322a"/><rect x="885.2" y="2083.2" width="10" height="86.9" fill="#38322a"/><rect x="907.2" y="2083.2" width="10" height="86.9" fill="#38322a"/><rect x="1036.9" y="2083.2" width="10" height="86.9" fill="#38322a"/><rect x="1058.9" y="2083.2" width="10" height="86.9" fill="#38322a"/><path d="M1185.5,2094.1 L1218.1,2126.7 L1185.5,2159.3 l -8,-6 L1202.9,2126.7 l -26.1,-23.9 Z" fill="#38322a"/><path d="M1332.1,2094.1 L1364.7,2126.7 L1332.1,2159.3 l -8,-6 L1349.5,2126.7 l -26.1,-23.9 Z" fill="#38322a"/><rect x="1471.7" y="2083.2" width="10" height="86.9" fill="#38322a"/><rect x="1493.7" y="2083.2" width="10" height="86.9" fill="#38322a"/><rect x="1599.4" y="2083.2" width="10" height="86.9" fill="#38322a"/><rect x="1621.4" y="2083.2" width="10" height="86.9" fill="#38322a"/><path d="M1745,2126.7 l 23.9,-15.2 l 0,10.9 l 54.3,0 l 0,8 L1766.7,2132.7 Z" fill="#38322a"/><line x1="560" y1="2231.1" x2="1840" y2="2231.1" stroke="#38322a" stroke-width="4" opacity="0.35"/><path d="M600,2303 L632.6,2335.6 L600,2368.1 l -8,-6 L617.4,2335.6 l -26.1,-23.9 Z" fill="#38322a"/><path d="M723.6,2281.2 l 17.4,23.9 l -8.7,0 L725.8,2389.9 l -8,0 Z" fill="#38322a"/><path d="M854.2,2281.2 l 17.4,23.9 l -8.7,0 L856.4,2389.9 l -8,0 Z" fill="#38322a"/><path d="M999.9,2335.6 l 23.9,-15.2 l 0,10.9 l 54.3,0 l 0,8 L1021.6,2341.6 Z" fill="#38322a"/><path d="M1138.5,2303 L1171.1,2335.6 L1138.5,2368.1 l -8,-6 L1155.9,2335.6 l -26.1,-23.9 Z" fill="#38322a"/><path d="M1276.1,2335.6 l 23.9,-15.2 l 0,10.9 l 54.3,0 l 0,8 L1297.8,2341.6 Z" fill="#38322a"/><rect x="1421.7" y="2292.1" width="10" height="86.9" fill="#38322a"/><rect x="1443.7" y="2292.1" width="10" height="86.9" fill="#38322a"/><path d="M1548.4,2335.6 l 23.9,-15.2 l 0,10.9 l 54.3,0 l 0,8 L1570.1,2341.6 Z" fill="#38322a"/><path d="M1684,2281.2 l 17.4,23.9 l -8.7,0 L1686.2,2389.9 l -8,0 Z" fill="#38322a"/></g><rect x="130" y="130" width="2140" height="2740" fill="none" stroke="#38322a" stroke-width="5"/><rect x="152" y="152" width="2096" height="2696" fill="none" stroke="#38322a" stroke-width="2.5" opacity="0.8"/></g><rect width="2400" height="3000" filter="url(#a60-mottle)" style="mix-blend-mode:multiply" opacity="0.5"/><rect width="2400" height="3000" filter="url(#a60-fade)" style="mix-blend-mode:screen" opacity="0.55"/><rect width="2400" height="3000" filter="url(#a60-grain)" style="mix-blend-mode:multiply" opacity="0.32"/><ellipse cx="150.8" cy="2504.2" rx="162.4" ry="149.6" fill="#6b4a22" opacity="0.045" filter="url(#a60-blur9)"/><ellipse cx="1476.6" cy="1129.5" rx="317.3" ry="206.9" fill="#6b4a22" opacity="0.062" filter="url(#a60-blur9)"/><ellipse cx="1867.7" cy="883.9" rx="152" ry="93.8" fill="#6b4a22" opacity="0.046" filter="url(#a60-blur9)"/><ellipse cx="1276.5" cy="593.2" rx="230.6" ry="195.9" fill="#6b4a22" opacity="0.058" filter="url(#a60-blur9)"/><ellipse cx="975" cy="2808.5" rx="139.4" ry="144" fill="#6b4a22" opacity="0.066" filter="url(#a60-blur9)"/><g opacity="0.3"><rect y="3" width="2400" height="2" fill="#e5dbc6"/><rect y="11" width="2400" height="2" fill="#e5dbc6"/><rect y="19" width="2400" height="2" fill="#e5dbc6"/><rect y="27" width="2400" height="2" fill="#e5dbc6"/><rect y="35" width="2400" height="2" fill="#e5dbc6"/><rect y="43" width="2400" height="2" fill="#e5dbc6"/><rect y="51" width="2400" height="2" fill="#e5dbc6"/><rect y="59" width="2400" height="2" fill="#e5dbc6"/><rect y="67" width="2400" height="2" fill="#e5dbc6"/><rect y="75" width="2400" height="2" fill="#e5dbc6"/><rect y="83" width="2400" height="2" fill="#e5dbc6"/><rect y="91" width="2400" height="2" fill="#e5dbc6"/><rect y="99" width="2400" height="2" fill="#e5dbc6"/><rect y="107" width="2400" height="2" fill="#e5dbc6"/><rect y="115" width="2400" height="2" fill="#e5dbc6"/><rect y="123" width="2400" height="2" fill="#e5dbc6"/><rect y="131" width="2400" height="2" fill="#e5dbc6"/><rect y="139" width="2400" height="2" fill="#e5dbc6"/><rect y="147" width="2400" height="2" fill="#e5dbc6"/><rect y="155" width="2400" height="2" fill="#e5dbc6"/><rect y="163" width="2400" height="2" fill="#e5dbc6"/><rect y="171" width="2400" height="2" fill="#e5dbc6"/><rect y="179" width="2400" height="2" fill="#e5dbc6"/><rect y="187" width="2400" height="2" fill="#e5dbc6"/><rect y="195" width="2400" height="2" fill="#e5dbc6"/><rect y="203" width="2400" height="2" fill="#e5dbc6"/><rect y="211" width="2400" height="2" fill="#e5dbc6"/><rect y="219" width="2400" height="2" fill="#e5dbc6"/><rect y="227" width="2400" height="2" fill="#e5dbc6"/><rect y="235" width="2400" height="2" fill="#e5dbc6"/><rect y="243" width="2400" height="2" fill="#e5dbc6"/><rect y="251" width="2400" height="2" fill="#e5dbc6"/><rect y="259" width="2400" height="2" fill="#e5dbc6"/><rect y="267" width="2400" height="2" fill="#e5dbc6"/><rect y="275" width="2400" height="2" fill="#e5dbc6"/><rect y="283" width="2400" height="2" fill="#e5dbc6"/><rect y="291" width="2400" height="2" fill="#e5dbc6"/><rect y="299" width="2400" height="2" fill="#e5dbc6"/><rect y="307" width="2400" height="2" fill="#e5dbc6"/><rect y="315" width="2400" height="2" fill="#e5dbc6"/><rect y="323" width="2400" height="2" fill="#e5dbc6"/><rect y="331" width="2400" height="2" fill="#e5dbc6"/><rect y="339" width="2400" height="2" fill="#e5dbc6"/><rect y="347" width="2400" height="2" fill="#e5dbc6"/><rect y="355" width="2400" height="2" fill="#e5dbc6"/><rect y="363" width="2400" height="2" fill="#e5dbc6"/><rect y="371" width="2400" height="2" fill="#e5dbc6"/><rect y="379" width="2400" height="2" fill="#e5dbc6"/><rect y="387" width="2400" height="2" fill="#e5dbc6"/><rect y="395" width="2400" height="2" fill="#e5dbc6"/><rect y="403" width="2400" height="2" fill="#e5dbc6"/><rect y="411" width="2400" height="2" fill="#e5dbc6"/><rect y="419" width="2400" height="2" fill="#e5dbc6"/><rect y="427" width="2400" height="2" fill="#e5dbc6"/><rect y="435" width="2400" height="2" fill="#e5dbc6"/><rect y="443" width="2400" height="2" fill="#e5dbc6"/><rect y="451" width="2400" height="2" fill="#e5dbc6"/><rect y="459" width="2400" height="2" fill="#e5dbc6"/><rect y="467" width="2400" height="2" fill="#e5dbc6"/><rect y="475" width="2400" height="2" fill="#e5dbc6"/><rect y="483" width="2400" height="2" fill="#e5dbc6"/><rect y="491" width="2400" height="2" fill="#e5dbc6"/><rect y="499" width="2400" height="2" fill="#e5dbc6"/><rect y="507" width="2400" height="2" fill="#e5dbc6"/><rect y="515" width="2400" height="2" fill="#e5dbc6"/><rect y="523" width="2400" height="2" fill="#e5dbc6"/><rect y="531" width="2400" height="2" fill="#e5dbc6"/><rect y="539" width="2400" height="2" fill="#e5dbc6"/><rect y="547" width="2400" height="2" fill="#e5dbc6"/><rect y="555" width="2400" height="2" fill="#e5dbc6"/><rect y="563" width="2400" height="2" fill="#e5dbc6"/><rect y="571" width="2400" height="2" fill="#e5dbc6"/><rect y="579" width="2400" height="2" fill="#e5dbc6"/><rect y="587" width="2400" height="2" fill="#e5dbc6"/><rect y="595" width="2400" height="2" fill="#e5dbc6"/><rect y="603" width="2400" height="2" fill="#e5dbc6"/><rect y="611" width="2400" height="2" fill="#e5dbc6"/><rect y="619" width="2400" height="2" fill="#e5dbc6"/><rect y="627" width="2400" height="2" fill="#e5dbc6"/><rect y="635" width="2400" height="2" fill="#e5dbc6"/><rect y="643" width="2400" height="2" fill="#e5dbc6"/><rect y="651" width="2400" height="2" fill="#e5dbc6"/><rect y="659" width="2400" height="2" fill="#e5dbc6"/><rect y="667" width="2400" height="2" fill="#e5dbc6"/><rect y="675" width="2400" height="2" fill="#e5dbc6"/><rect y="683" width="2400" height="2" fill="#e5dbc6"/><rect y="691" width="2400" height="2" fill="#e5dbc6"/><rect y="699" width="2400" height="2" fill="#e5dbc6"/><rect y="707" width="2400" height="2" fill="#e5dbc6"/><rect y="715" width="2400" height="2" fill="#e5dbc6"/><rect y="723" width="2400" height="2" fill="#e5dbc6"/><rect y="731" width="2400" height="2" fill="#e5dbc6"/><rect y="739" width="2400" height="2" fill="#e5dbc6"/><rect y="747" width="2400" height="2" fill="#e5dbc6"/><rect y="755" width="2400" height="2" fill="#e5dbc6"/><rect y="763" width="2400" height="2" fill="#e5dbc6"/><rect y="771" width="2400" height="2" fill="#e5dbc6"/><rect y="779" width="2400" height="2" fill="#e5dbc6"/><rect y="787" width="2400" height="2" fill="#e5dbc6"/><rect y="795" width="2400" height="2" fill="#e5dbc6"/><rect y="803" width="2400" height="2" fill="#e5dbc6"/><rect y="811" width="2400" height="2" fill="#e5dbc6"/><rect y="819" width="2400" height="2" fill="#e5dbc6"/><rect y="827" width="2400" height="2" fill="#e5dbc6"/><rect y="835" width="2400" height="2" fill="#e5dbc6"/><rect y="843" width="2400" height="2" fill="#e5dbc6"/><rect y="851" width="2400" height="2" fill="#e5dbc6"/><rect y="859" width="2400" height="2" fill="#e5dbc6"/><rect y="867" width="2400" height="2" fill="#e5dbc6"/><rect y="875" width="2400" height="2" fill="#e5dbc6"/><rect y="883" width="2400" height="2" fill="#e5dbc6"/><rect y="891" width="2400" height="2" fill="#e5dbc6"/><rect y="899" width="2400" height="2" fill="#e5dbc6"/><rect y="907" width="2400" height="2" fill="#e5dbc6"/><rect y="915" width="2400" height="2" fill="#e5dbc6"/><rect y="923" width="2400" height="2" fill="#e5dbc6"/><rect y="931" width="2400" height="2" fill="#e5dbc6"/><rect y="939" width="2400" height="2" fill="#e5dbc6"/><rect y="947" width="2400" height="2" fill="#e5dbc6"/><rect y="955" width="2400" height="2" fill="#e5dbc6"/><rect y="963" width="2400" height="2" fill="#e5dbc6"/><rect y="971" width="2400" height="2" fill="#e5dbc6"/><rect y="979" width="2400" height="2" fill="#e5dbc6"/><rect y="987" width="2400" height="2" fill="#e5dbc6"/><rect y="995" width="2400" height="2" fill="#e5dbc6"/><rect y="1003" width="2400" height="2" fill="#e5dbc6"/><rect y="1011" width="2400" height="2" fill="#e5dbc6"/><rect y="1019" width="2400" height="2" fill="#e5dbc6"/><rect y="1027" width="2400" height="2" fill="#e5dbc6"/><rect y="1035" width="2400" height="2" fill="#e5dbc6"/><rect y="1043" width="2400" height="2" fill="#e5dbc6"/><rect y="1051" width="2400" height="2" fill="#e5dbc6"/><rect y="1059" width="2400" height="2" fill="#e5dbc6"/><rect y="1067" width="2400" height="2" fill="#e5dbc6"/><rect y="1075" width="2400" height="2" fill="#e5dbc6"/><rect y="1083" width="2400" height="2" fill="#e5dbc6"/><rect y="1091" width="2400" height="2" fill="#e5dbc6"/><rect y="1099" width="2400" height="2" fill="#e5dbc6"/><rect y="1107" width="2400" height="2" fill="#e5dbc6"/><rect y="1115" width="2400" height="2" fill="#e5dbc6"/><rect y="1123" width="2400" height="2" fill="#e5dbc6"/><rect y="1131" width="2400" height="2" fill="#e5dbc6"/><rect y="1139" width="2400" height="2" fill="#e5dbc6"/><rect y="1147" width="2400" height="2" fill="#e5dbc6"/><rect y="1155" width="2400" height="2" fill="#e5dbc6"/><rect y="1163" width="2400" height="2" fill="#e5dbc6"/><rect y="1171" width="2400" height="2" fill="#e5dbc6"/><rect y="1179" width="2400" height="2" fill="#e5dbc6"/><rect y="1187" width="2400" height="2" fill="#e5dbc6"/><rect y="1195" width="2400" height="2" fill="#e5dbc6"/><rect y="1203" width="2400" height="2" fill="#e5dbc6"/><rect y="1211" width="2400" height="2" fill="#e5dbc6"/><rect y="1219" width="2400" height="2" fill="#e5dbc6"/><rect y="1227" width="2400" height="2" fill="#e5dbc6"/><rect y="1235" width="2400" height="2" fill="#e5dbc6"/><rect y="1243" width="2400" height="2" fill="#e5dbc6"/><rect y="1251" width="2400" height="2" fill="#e5dbc6"/><rect y="1259" width="2400" height="2" fill="#e5dbc6"/><rect y="1267" width="2400" height="2" fill="#e5dbc6"/><rect y="1275" width="2400" height="2" fill="#e5dbc6"/><rect y="1283" width="2400" height="2" fill="#e5dbc6"/><rect y="1291" width="2400" height="2" fill="#e5dbc6"/><rect y="1299" width="2400" height="2" fill="#e5dbc6"/><rect y="1307" width="2400" height="2" fill="#e5dbc6"/><rect y="1315" width="2400" height="2" fill="#e5dbc6"/><rect y="1323" width="2400" height="2" fill="#e5dbc6"/><rect y="1331" width="2400" height="2" fill="#e5dbc6"/><rect y="1339" width="2400" height="2" fill="#e5dbc6"/><rect y="1347" width="2400" height="2" fill="#e5dbc6"/><rect y="1355" width="2400" height="2" fill="#e5dbc6"/><rect y="1363" width="2400" height="2" fill="#e5dbc6"/><rect y="1371" width="2400" height="2" fill="#e5dbc6"/><rect y="1379" width="2400" height="2" fill="#e5dbc6"/><rect y="1387" width="2400" height="2" fill="#e5dbc6"/><rect y="1395" width="2400" height="2" fill="#e5dbc6"/><rect y="1403" width="2400" height="2" fill="#e5dbc6"/><rect y="1411" width="2400" height="2" fill="#e5dbc6"/><rect y="1419" width="2400" height="2" fill="#e5dbc6"/><rect y="1427" width="2400" height="2" fill="#e5dbc6"/><rect y="1435" width="2400" height="2" fill="#e5dbc6"/><rect y="1443" width="2400" height="2" fill="#e5dbc6"/><rect y="1451" width="2400" height="2" fill="#e5dbc6"/><rect y="1459" width="2400" height="2" fill="#e5dbc6"/><rect y="1467" width="2400" height="2" fill="#e5dbc6"/><rect y="1475" width="2400" height="2" fill="#e5dbc6"/><rect y="1483" width="2400" height="2" fill="#e5dbc6"/><rect y="1491" width="2400" height="2" fill="#e5dbc6"/><rect y="1499" width="2400" height="2" fill="#e5dbc6"/><rect y="1507" width="2400" height="2" fill="#e5dbc6"/><rect y="1515" width="2400" height="2" fill="#e5dbc6"/><rect y="1523" width="2400" height="2" fill="#e5dbc6"/><rect y="1531" width="2400" height="2" fill="#e5dbc6"/><rect y="1539" width="2400" height="2" fill="#e5dbc6"/><rect y="1547" width="2400" height="2" fill="#e5dbc6"/><rect y="1555" width="2400" height="2" fill="#e5dbc6"/><rect y="1563" width="2400" height="2" fill="#e5dbc6"/><rect y="1571" width="2400" height="2" fill="#e5dbc6"/><rect y="1579" width="2400" height="2" fill="#e5dbc6"/><rect y="1587" width="2400" height="2" fill="#e5dbc6"/><rect y="1595" width="2400" height="2" fill="#e5dbc6"/><rect y="1603" width="2400" height="2" fill="#e5dbc6"/><rect y="1611" width="2400" height="2" fill="#e5dbc6"/><rect y="1619" width="2400" height="2" fill="#e5dbc6"/><rect y="1627" width="2400" height="2" fill="#e5dbc6"/><rect y="1635" width="2400" height="2" fill="#e5dbc6"/><rect y="1643" width="2400" height="2" fill="#e5dbc6"/><rect y="1651" width="2400" height="2" fill="#e5dbc6"/><rect y="1659" width="2400" height="2" fill="#e5dbc6"/><rect y="1667" width="2400" height="2" fill="#e5dbc6"/><rect y="1675" width="2400" height="2" fill="#e5dbc6"/><rect y="1683" width="2400" height="2" fill="#e5dbc6"/><rect y="1691" width="2400" height="2" fill="#e5dbc6"/><rect y="1699" width="2400" height="2" fill="#e5dbc6"/><rect y="1707" width="2400" height="2" fill="#e5dbc6"/><rect y="1715" width="2400" height="2" fill="#e5dbc6"/><rect y="1723" width="2400" height="2" fill="#e5dbc6"/><rect y="1731" width="2400" height="2" fill="#e5dbc6"/><rect y="1739" width="2400" height="2" fill="#e5dbc6"/><rect y="1747" width="2400" height="2" fill="#e5dbc6"/><rect y="1755" width="2400" height="2" fill="#e5dbc6"/><rect y="1763" width="2400" height="2" fill="#e5dbc6"/><rect y="1771" width="2400" height="2" fill="#e5dbc6"/><rect y="1779" width="2400" height="2" fill="#e5dbc6"/><rect y="1787" width="2400" height="2" fill="#e5dbc6"/><rect y="1795" width="2400" height="2" fill="#e5dbc6"/><rect y="1803" width="2400" height="2" fill="#e5dbc6"/><rect y="1811" width="2400" height="2" fill="#e5dbc6"/><rect y="1819" width="2400" height="2" fill="#e5dbc6"/><rect y="1827" width="2400" height="2" fill="#e5dbc6"/><rect y="1835" width="2400" height="2" fill="#e5dbc6"/><rect y="1843" width="2400" height="2" fill="#e5dbc6"/><rect y="1851" width="2400" height="2" fill="#e5dbc6"/><rect y="1859" width="2400" height="2" fill="#e5dbc6"/><rect y="1867" width="2400" height="2" fill="#e5dbc6"/><rect y="1875" width="2400" height="2" fill="#e5dbc6"/><rect y="1883" width="2400" height="2" fill="#e5dbc6"/><rect y="1891" width="2400" height="2" fill="#e5dbc6"/><rect y="1899" width="2400" height="2" fill="#e5dbc6"/><rect y="1907" width="2400" height="2" fill="#e5dbc6"/><rect y="1915" width="2400" height="2" fill="#e5dbc6"/><rect y="1923" width="2400" height="2" fill="#e5dbc6"/><rect y="1931" width="2400" height="2" fill="#e5dbc6"/><rect y="1939" width="2400" height="2" fill="#e5dbc6"/><rect y="1947" width="2400" height="2" fill="#e5dbc6"/><rect y="1955" width="2400" height="2" fill="#e5dbc6"/><rect y="1963" width="2400" height="2" fill="#e5dbc6"/><rect y="1971" width="2400" height="2" fill="#e5dbc6"/><rect y="1979" width="2400" height="2" fill="#e5dbc6"/><rect y="1987" width="2400" height="2" fill="#e5dbc6"/><rect y="1995" width="2400" height="2" fill="#e5dbc6"/><rect y="2003" width="2400" height="2" fill="#e5dbc6"/><rect y="2011" width="2400" height="2" fill="#e5dbc6"/><rect y="2019" width="2400" height="2" fill="#e5dbc6"/><rect y="2027" width="2400" height="2" fill="#e5dbc6"/><rect y="2035" width="2400" height="2" fill="#e5dbc6"/><rect y="2043" width="2400" height="2" fill="#e5dbc6"/><rect y="2051" width="2400" height="2" fill="#e5dbc6"/><rect y="2059" width="2400" height="2" fill="#e5dbc6"/><rect y="2067" width="2400" height="2" fill="#e5dbc6"/><rect y="2075" width="2400" height="2" fill="#e5dbc6"/><rect y="2083" width="2400" height="2" fill="#e5dbc6"/><rect y="2091" width="2400" height="2" fill="#e5dbc6"/><rect y="2099" width="2400" height="2" fill="#e5dbc6"/><rect y="2107" width="2400" height="2" fill="#e5dbc6"/><rect y="2115" width="2400" height="2" fill="#e5dbc6"/><rect y="2123" width="2400" height="2" fill="#e5dbc6"/><rect y="2131" width="2400" height="2" fill="#e5dbc6"/><rect y="2139" width="2400" height="2" fill="#e5dbc6"/><rect y="2147" width="2400" height="2" fill="#e5dbc6"/><rect y="2155" width="2400" height="2" fill="#e5dbc6"/><rect y="2163" width="2400" height="2" fill="#e5dbc6"/><rect y="2171" width="2400" height="2" fill="#e5dbc6"/><rect y="2179" width="2400" height="2" fill="#e5dbc6"/><rect y="2187" width="2400" height="2" fill="#e5dbc6"/><rect y="2195" width="2400" height="2" fill="#e5dbc6"/><rect y="2203" width="2400" height="2" fill="#e5dbc6"/><rect y="2211" width="2400" height="2" fill="#e5dbc6"/><rect y="2219" width="2400" height="2" fill="#e5dbc6"/><rect y="2227" width="2400" height="2" fill="#e5dbc6"/><rect y="2235" width="2400" height="2" fill="#e5dbc6"/><rect y="2243" width="2400" height="2" fill="#e5dbc6"/><rect y="2251" width="2400" height="2" fill="#e5dbc6"/><rect y="2259" width="2400" height="2" fill="#e5dbc6"/><rect y="2267" width="2400" height="2" fill="#e5dbc6"/><rect y="2275" width="2400" height="2" fill="#e5dbc6"/><rect y="2283" width="2400" height="2" fill="#e5dbc6"/><rect y="2291" width="2400" height="2" fill="#e5dbc6"/><rect y="2299" width="2400" height="2" fill="#e5dbc6"/><rect y="2307" width="2400" height="2" fill="#e5dbc6"/><rect y="2315" width="2400" height="2" fill="#e5dbc6"/><rect y="2323" width="2400" height="2" fill="#e5dbc6"/><rect y="2331" width="2400" height="2" fill="#e5dbc6"/><rect y="2339" width="2400" height="2" fill="#e5dbc6"/><rect y="2347" width="2400" height="2" fill="#e5dbc6"/><rect y="2355" width="2400" height="2" fill="#e5dbc6"/><rect y="2363" width="2400" height="2" fill="#e5dbc6"/><rect y="2371" width="2400" height="2" fill="#e5dbc6"/><rect y="2379" width="2400" height="2" fill="#e5dbc6"/><rect y="2387" width="2400" height="2" fill="#e5dbc6"/><rect y="2395" width="2400" height="2" fill="#e5dbc6"/><rect y="2403" width="2400" height="2" fill="#e5dbc6"/><rect y="2411" width="2400" height="2" fill="#e5dbc6"/><rect y="2419" width="2400" height="2" fill="#e5dbc6"/><rect y="2427" width="2400" height="2" fill="#e5dbc6"/><rect y="2435" width="2400" height="2" fill="#e5dbc6"/><rect y="2443" width="2400" height="2" fill="#e5dbc6"/><rect y="2451" width="2400" height="2" fill="#e5dbc6"/><rect y="2459" width="2400" height="2" fill="#e5dbc6"/><rect y="2467" width="2400" height="2" fill="#e5dbc6"/><rect y="2475" width="2400" height="2" fill="#e5dbc6"/><rect y="2483" width="2400" height="2" fill="#e5dbc6"/><rect y="2491" width="2400" height="2" fill="#e5dbc6"/><rect y="2499" width="2400" height="2" fill="#e5dbc6"/><rect y="2507" width="2400" height="2" fill="#e5dbc6"/><rect y="2515" width="2400" height="2" fill="#e5dbc6"/><rect y="2523" width="2400" height="2" fill="#e5dbc6"/><rect y="2531" width="2400" height="2" fill="#e5dbc6"/><rect y="2539" width="2400" height="2" fill="#e5dbc6"/><rect y="2547" width="2400" height="2" fill="#e5dbc6"/><rect y="2555" width="2400" height="2" fill="#e5dbc6"/><rect y="2563" width="2400" height="2" fill="#e5dbc6"/><rect y="2571" width="2400" height="2" fill="#e5dbc6"/><rect y="2579" width="2400" height="2" fill="#e5dbc6"/><rect y="2587" width="2400" height="2" fill="#e5dbc6"/><rect y="2595" width="2400" height="2" fill="#e5dbc6"/><rect y="2603" width="2400" height="2" fill="#e5dbc6"/><rect y="2611" width="2400" height="2" fill="#e5dbc6"/><rect y="2619" width="2400" height="2" fill="#e5dbc6"/><rect y="2627" width="2400" height="2" fill="#e5dbc6"/><rect y="2635" width="2400" height="2" fill="#e5dbc6"/><rect y="2643" width="2400" height="2" fill="#e5dbc6"/><rect y="2651" width="2400" height="2" fill="#e5dbc6"/><rect y="2659" width="2400" height="2" fill="#e5dbc6"/><rect y="2667" width="2400" height="2" fill="#e5dbc6"/><rect y="2675" width="2400" height="2" fill="#e5dbc6"/><rect y="2683" width="2400" height="2" fill="#e5dbc6"/><rect y="2691" width="2400" height="2" fill="#e5dbc6"/><rect y="2699" width="2400" height="2" fill="#e5dbc6"/><rect y="2707" width="2400" height="2" fill="#e5dbc6"/><rect y="2715" width="2400" height="2" fill="#e5dbc6"/><rect y="2723" width="2400" height="2" fill="#e5dbc6"/><rect y="2731" width="2400" height="2" fill="#e5dbc6"/><rect y="2739" width="2400" height="2" fill="#e5dbc6"/><rect y="2747" width="2400" height="2" fill="#e5dbc6"/><rect y="2755" width="2400" height="2" fill="#e5dbc6"/><rect y="2763" width="2400" height="2" fill="#e5dbc6"/><rect y="2771" width="2400" height="2" fill="#e5dbc6"/><rect y="2779" width="2400" height="2" fill="#e5dbc6"/><rect y="2787" width="2400" height="2" fill="#e5dbc6"/><rect y="2795" width="2400" height="2" fill="#e5dbc6"/><rect y="2803" width="2400" height="2" fill="#e5dbc6"/><rect y="2811" width="2400" height="2" fill="#e5dbc6"/><rect y="2819" width="2400" height="2" fill="#e5dbc6"/><rect y="2827" width="2400" height="2" fill="#e5dbc6"/><rect y="2835" width="2400" height="2" fill="#e5dbc6"/><rect y="2843" width="2400" height="2" fill="#e5dbc6"/><rect y="2851" width="2400" height="2" fill="#e5dbc6"/><rect y="2859" width="2400" height="2" fill="#e5dbc6"/><rect y="2867" width="2400" height="2" fill="#e5dbc6"/><rect y="2875" width="2400" height="2" fill="#e5dbc6"/><rect y="2883" width="2400" height="2" fill="#e5dbc6"/><rect y="2891" width="2400" height="2" fill="#e5dbc6"/><rect y="2899" width="2400" height="2" fill="#e5dbc6"/><rect y="2907" width="2400" height="2" fill="#e5dbc6"/><rect y="2915" width="2400" height="2" fill="#e5dbc6"/><rect y="2923" width="2400" height="2" fill="#e5dbc6"/><rect y="2931" width="2400" height="2" fill="#e5dbc6"/><rect y="2939" width="2400" height="2" fill="#e5dbc6"/><rect y="2947" width="2400" height="2" fill="#e5dbc6"/><rect y="2955" width="2400" height="2" fill="#e5dbc6"/><rect y="2963" width="2400" height="2" fill="#e5dbc6"/><rect y="2971" width="2400" height="2" fill="#e5dbc6"/><rect y="2979" width="2400" height="2" fill="#e5dbc6"/><rect y="2987" width="2400" height="2" fill="#e5dbc6"/><rect y="2995" width="2400" height="2" fill="#e5dbc6"/></g><rect x="88" y="88" width="2224" height="2824" fill="none" stroke="#3a2c1a" stroke-width="4" opacity="0.2"/><rect x="94" y="94" width="2212" height="2812" fill="none" stroke="#fff6e0" stroke-width="2" opacity="0.25"/><circle cx="2296.9" cy="151.6" r="13.2" fill="#8a5a2e" opacity="0.125"/><circle cx="487.9" cy="1145.3" r="4.9" fill="#8a5a2e" opacity="0.040"/><circle cx="164.1" cy="2699.2" r="8.8" fill="#8a5a2e" opacity="0.085"/><circle cx="332.1" cy="2771.1" r="9.7" fill="#8a5a2e" opacity="0.083"/><circle cx="1312.7" cy="1103.6" r="9.5" fill="#8a5a2e" opacity="0.061"/><circle cx="1583" cy="2564" r="8.1" fill="#8a5a2e" opacity="0.093"/><circle cx="681.6" cy="1669.3" r="8.3" fill="#8a5a2e" opacity="0.115"/><circle cx="444.5" cy="911.5" r="9.6" fill="#8a5a2e" opacity="0.045"/><circle cx="2219.9" cy="2892.3" r="7.6" fill="#8a5a2e" opacity="0.098"/><circle cx="1671.4" cy="1103.2" r="13.2" fill="#8a5a2e" opacity="0.066"/><circle cx="446.7" cy="399.1" r="11.4" fill="#8a5a2e" opacity="0.086"/><circle cx="2036.3" cy="1932.7" r="8.7" fill="#8a5a2e" opacity="0.115"/><circle cx="480.9" cy="1165.4" r="9.4" fill="#8a5a2e" opacity="0.058"/><circle cx="1142.2" cy="2288.9" r="12.4" fill="#8a5a2e" opacity="0.109"/><circle cx="658" cy="1509.6" r="3" fill="#8a5a2e" opacity="0.123"/><circle cx="895" cy="2839.1" r="7.4" fill="#8a5a2e" opacity="0.100"/><circle cx="199" cy="2406" r="9.4" fill="#8a5a2e" opacity="0.085"/><circle cx="1905.9" cy="678.8" r="15.8" fill="#8a5a2e" opacity="0.101"/><circle cx="1205.2" cy="135.9" r="9.3" fill="#8a5a2e" opacity="0.123"/><circle cx="85.1" cy="2264.6" r="4.7" fill="#8a5a2e" opacity="0.087"/><circle cx="220.2" cy="2477.5" r="8.8" fill="#8a5a2e" opacity="0.093"/><circle cx="1211.9" cy="2544" r="5.2" fill="#8a5a2e" opacity="0.068"/><circle cx="254" cy="1499.2" r="6.7" fill="#8a5a2e" opacity="0.119"/><circle cx="2241.9" cy="1563.3" r="6" fill="#8a5a2e" opacity="0.070"/><circle cx="215.5" cy="94.1" r="3.9" fill="#8a5a2e" opacity="0.072"/><circle cx="801.8" cy="2597.2" r="14.7" fill="#8a5a2e" opacity="0.117"/><circle cx="897.6" cy="208.7" r="14.6" fill="#8a5a2e" opacity="0.116"/><circle cx="520" cy="140.2" r="7.1" fill="#8a5a2e" opacity="0.064"/><circle cx="2161.3" cy="130.3" r="9.9" fill="#8a5a2e" opacity="0.127"/><rect width="2400" height="3000" fill="url(#a60-vig)"/></svg></svg>