<svg xmlns="http://www.w3.org/2000/svg" width="2400" height="1800" viewBox="0 0 2400 1800"><rect width="2400" height="1800" fill="#dfe4dc"/><rect y="1400" width="2400" height="400" fill="#c2a67e"/><line x1="60" y1="1400" x2="10" y2="1800" stroke="#00000015" stroke-width="5"/><line x1="260" y1="1400" x2="210" y2="1800" stroke="#00000015" stroke-width="5"/><line x1="460" y1="1400" x2="410" y2="1800" stroke="#00000015" stroke-width="5"/><line x1="660" y1="1400" x2="610" y2="1800" stroke="#00000015" stroke-width="5"/><line x1="860" y1="1400" x2="810" y2="1800" stroke="#00000015" stroke-width="5"/><line x1="1060" y1="1400" x2="1010" y2="1800" stroke="#00000015" stroke-width="5"/><line x1="1260" y1="1400" x2="1210" y2="1800" stroke="#00000015" stroke-width="5"/><line x1="1460" y1="1400" x2="1410" y2="1800" stroke="#00000015" stroke-width="5"/><line x1="1660" y1="1400" x2="1610" y2="1800" stroke="#00000015" stroke-width="5"/><line x1="1860" y1="1400" x2="1810" y2="1800" stroke="#00000015" stroke-width="5"/><line x1="2060" y1="1400" x2="2010" y2="1800" stroke="#00000015" stroke-width="5"/><line x1="2260" y1="1400" x2="2210" y2="1800" stroke="#00000015" stroke-width="5"/><rect x="180" y="260" width="900" height="620" fill="#8a6a48"/><rect x="215" y="295" width="830" height="550" fill="#41524a"/><line x1="280" y1="420" x2="760" y2="420" stroke="#ffffff66" stroke-width="9" stroke-linecap="round"/><line x1="280" y1="520" x2="620" y2="520" stroke="#ffffff44" stroke-width="9" stroke-linecap="round"/><circle cx="880" cy="560" r="90" fill="none" stroke="#ffffff55" stroke-width="8"/><rect x="215" y="845" width="830" height="22" fill="#6f5436"/><rect x="330" y="1240" width="640" height="60" rx="10" fill="#9c7449"/><rect x="370" y="1300" width="60" height="240" fill="#8a6540"/><rect x="870" y="1300" width="60" height="240" fill="#8a6540"/><rect x="430" y="1160" width="150" height="80" rx="8" fill="#bda15a"/><rect x="450" y="1120" width="150" height="40" rx="8" fill="#57674b"/><circle cx="800" cy="1130" r="86" fill="#7fa3b8"/><path d="M760,1060 Q820,1100 780,1190 M740,1090 Q800,1120 850,1100" stroke="#5d8069" stroke-width="16" fill="none" stroke-linecap="round"/><circle cx="800" cy="1130" r="86" fill="none" stroke="#6b5233" stroke-width="7"/><line x1="800" y1="1216" x2="800" y2="1250" stroke="#6b5233" stroke-width="10"/><rect x="750" y="1244" width="100" height="14" rx="7" fill="#6b5233"/><rect x="1980" y="700" width="300" height="800" fill="#9c7449"/><rect x="2000" y="930" width="260" height="16" fill="#7c5a37"/><rect x="2020" y="790" width="36" height="140" fill="#b3502f"/><rect x="2066" y="802" width="36" height="128" fill="#39685c"/><rect x="2112" y="790" width="36" height="140" fill="#c9a227"/><rect x="2158" y="802" width="36" height="128" fill="#2c4661"/><rect x="2204" y="790" width="36" height="140" fill="#8a4423"/><rect x="2000" y="1180" width="260" height="16" fill="#7c5a37"/><rect x="2020" y="1040" width="36" height="140" fill="#39685c"/><rect x="2066" y="1052" width="36" height="128" fill="#c9a227"/><rect x="2112" y="1040" width="36" height="140" fill="#2c4661"/><rect x="2158" y="1052" width="36" height="128" fill="#8a4423"/><rect x="2204" y="1040" width="36" height="140" fill="#b3502f"/><rect x="2000" y="1430" width="260" height="16" fill="#7c5a37"/><rect x="2020" y="1290" width="36" height="140" fill="#c9a227"/><rect x="2066" y="1302" width="36" height="128" fill="#2c4661"/><rect x="2112" y="1290" width="36" height="140" fill="#8a4423"/><rect x="2158" y="1302" width="36" height="128" fill="#b3502f"/><rect x="2204" y="1290" width="36" height="140" fill="#39685c"/><defs><filter id="a69c-sh" x="-30%" y="-30%" width="160%" height="160%"><feGaussianBlur stdDeviation="16"/></filter></defs><rect x="1340.5" y="298.5" width="517" height="635" fill="#000" opacity="0.28" filter="url(#a69c-sh)"/><rect x="1326.5" y="276.5" width="517" height="635" fill="#3d342a"/><rect x="1341.8" y="291.8" width="486.4" height="604.5" fill="none" stroke="#00000055" stroke-width="3"/><rect x="1350" y="300" width="470" height="588" fill="#f6f2ea"/><svg x="1385.3" y="335.3" width="399.5" height="517.5" viewBox="0 0 2400 3000" preserveAspectRatio="xMidYMid slice"><rect width="2400" height="3000" fill="#3d4a33"/><radialGradient id="a69-vig" cx="50%" cy="42%" r="80%"><stop offset="55%" stop-color="#000" stop-opacity="0"/><stop offset="100%" stop-color="#000" stop-opacity="0.15"/></radialGradient><rect width="2400" height="3000" fill="url(#a69-vig)"/><circle cx="410.7" cy="234.2" r="4.3" fill="#e6ddc4" opacity="0.054"/><circle cx="638.8" cy="1828.1" r="2.9" fill="#e6ddc4" opacity="0.078"/><circle cx="2127.7" cy="333.7" r="2.3" fill="#e6ddc4" opacity="0.070"/><circle cx="2187.1" cy="2823.6" r="2.4" fill="#e6ddc4" opacity="0.030"/><circle cx="1408.8" cy="2591.6" r="2.9" fill="#e6ddc4" opacity="0.058"/><circle cx="776.3" cy="709.1" r="3.5" fill="#e6ddc4" opacity="0.050"/><circle cx="1427.5" cy="1237.6" r="3.5" fill="#e6ddc4" opacity="0.034"/><circle cx="1820" cy="2391.6" r="3.3" fill="#e6ddc4" opacity="0.030"/><circle cx="1046.3" cy="1764.2" r="1.8" fill="#e6ddc4" opacity="0.077"/><circle cx="1074.6" cy="2592" r="2" fill="#e6ddc4" opacity="0.063"/><circle cx="1297.8" cy="408.6" r="2.6" fill="#e6ddc4" opacity="0.058"/><circle cx="1521.3" cy="2180.7" r="3.9" fill="#e6ddc4" opacity="0.064"/><circle cx="231.2" cy="554.2" r="2.7" fill="#e6ddc4" opacity="0.067"/><circle cx="1793.8" cy="1457.4" r="1.9" fill="#e6ddc4" opacity="0.078"/><circle cx="1015.4" cy="1782.8" r="1.6" fill="#e6ddc4" opacity="0.036"/><circle cx="70.5" cy="493.8" r="4.2" fill="#e6ddc4" opacity="0.060"/><circle cx="1581.7" cy="1880.4" r="2.2" fill="#e6ddc4" opacity="0.049"/><circle cx="1878.1" cy="2803.8" r="2.6" fill="#e6ddc4" opacity="0.035"/><circle cx="1796.2" cy="251.2" r="4.4" fill="#e6ddc4" opacity="0.071"/><circle cx="2032.2" cy="896.4" r="4.3" fill="#e6ddc4" opacity="0.079"/><circle cx="1347.8" cy="1835.9" r="3.9" fill="#e6ddc4" opacity="0.036"/><circle cx="2158.6" cy="2465.8" r="3.5" fill="#e6ddc4" opacity="0.039"/><circle cx="2304.8" cy="1569.2" r="3.8" fill="#e6ddc4" opacity="0.048"/><circle cx="1388.1" cy="2625.5" r="2.8" fill="#e6ddc4" opacity="0.048"/><circle cx="2211.4" cy="1224.5" r="4.1" fill="#e6ddc4" opacity="0.030"/><circle cx="901.6" cy="803.9" r="4.2" fill="#e6ddc4" opacity="0.046"/><circle cx="1962.9" cy="77.9" r="2.4" fill="#e6ddc4" opacity="0.077"/><circle cx="1595.9" cy="574.7" r="3.9" fill="#e6ddc4" opacity="0.048"/><circle cx="48.2" cy="2244.4" r="2.2" fill="#e6ddc4" opacity="0.064"/><circle cx="1376.5" cy="2762.9" r="3.8" fill="#e6ddc4" opacity="0.075"/><circle cx="389.5" cy="1389.7" r="4.5" fill="#e6ddc4" opacity="0.056"/><circle cx="155.8" cy="714.8" r="2.6" fill="#e6ddc4" opacity="0.035"/><circle cx="623.5" cy="2734.8" r="2.4" fill="#e6ddc4" opacity="0.078"/><circle cx="1338.2" cy="724.7" r="1.9" fill="#e6ddc4" opacity="0.044"/><circle cx="1609.4" cy="464" r="3.7" fill="#e6ddc4" opacity="0.033"/><circle cx="1553.5" cy="553.2" r="1.8" fill="#e6ddc4" opacity="0.048"/><circle cx="91.8" cy="1691.1" r="2.4" fill="#e6ddc4" opacity="0.062"/><circle cx="329.2" cy="2784.3" r="3.6" fill="#e6ddc4" opacity="0.074"/><circle cx="960.3" cy="2153.3" r="4.4" fill="#e6ddc4" opacity="0.061"/><circle cx="2191.3" cy="1870.8" r="1.9" fill="#e6ddc4" opacity="0.049"/><circle cx="175.4" cy="470.4" r="3.2" fill="#e6ddc4" opacity="0.050"/><circle cx="1765.6" cy="1471.7" r="4.1" fill="#e6ddc4" opacity="0.046"/><circle cx="1668.2" cy="1120.4" r="3.8" fill="#e6ddc4" opacity="0.038"/><circle cx="1172.2" cy="1401.1" r="3.5" fill="#e6ddc4" opacity="0.046"/><circle cx="101.9" cy="1169" r="3.7" fill="#e6ddc4" opacity="0.037"/><circle cx="1296.2" cy="314.1" r="1.7" fill="#e6ddc4" opacity="0.079"/><circle cx="1658.8" cy="1625.8" r="2.2" fill="#e6ddc4" opacity="0.052"/><circle cx="1133.7" cy="2716.9" r="2.6" fill="#e6ddc4" opacity="0.076"/><circle cx="1115.8" cy="389.6" r="3.6" fill="#e6ddc4" opacity="0.051"/><circle cx="321.9" cy="738.1" r="4.3" fill="#e6ddc4" opacity="0.058"/><circle cx="1990.5" cy="2648.9" r="4.2" fill="#e6ddc4" opacity="0.047"/><circle cx="1152.7" cy="2209.1" r="1.7" fill="#e6ddc4" opacity="0.044"/><circle cx="1402.8" cy="912.9" r="3.1" fill="#e6ddc4" opacity="0.038"/><circle cx="1024.1" cy="2782.8" r="1.9" fill="#e6ddc4" opacity="0.069"/><circle cx="2028.2" cy="1590.1" r="2.2" fill="#e6ddc4" opacity="0.062"/><circle cx="1864.4" cy="2425.6" r="2.8" fill="#e6ddc4" opacity="0.080"/><circle cx="833.3" cy="119.3" r="4" fill="#e6ddc4" opacity="0.064"/><circle cx="1243.5" cy="1673.9" r="3.4" fill="#e6ddc4" opacity="0.063"/><circle cx="962.6" cy="1499.3" r="3.8" fill="#e6ddc4" opacity="0.040"/><circle cx="188.9" cy="1862.6" r="1.7" fill="#e6ddc4" opacity="0.071"/><circle cx="1148.1" cy="2480.3" r="2.7" fill="#e6ddc4" opacity="0.063"/><circle cx="1304.4" cy="2800.8" r="2.6" fill="#e6ddc4" opacity="0.046"/><circle cx="2134.6" cy="579.9" r="3.8" fill="#e6ddc4" opacity="0.060"/><circle cx="1142.9" cy="2855.2" r="2" fill="#e6ddc4" opacity="0.076"/><circle cx="134.9" cy="1390.4" r="1.8" fill="#e6ddc4" opacity="0.063"/><circle cx="452.2" cy="1246" r="4" fill="#e6ddc4" opacity="0.066"/><circle cx="1935.2" cy="303.2" r="2.8" fill="#e6ddc4" opacity="0.045"/><circle cx="430.8" cy="277.9" r="3.9" fill="#e6ddc4" opacity="0.077"/><circle cx="1231.9" cy="2484.8" r="2.6" fill="#e6ddc4" opacity="0.062"/><circle cx="2110.8" cy="846.9" r="4.4" fill="#e6ddc4" opacity="0.064"/><circle cx="1521.6" cy="2772.3" r="2.3" fill="#e6ddc4" opacity="0.053"/><circle cx="1441.3" cy="2129" r="2.9" fill="#e6ddc4" opacity="0.041"/><circle cx="922.8" cy="2876.2" r="3.9" fill="#e6ddc4" opacity="0.048"/><circle cx="1254.6" cy="477.1" r="2.2" fill="#e6ddc4" opacity="0.058"/><circle cx="2080.4" cy="350" r="4.4" fill="#e6ddc4" opacity="0.076"/><circle cx="924.8" cy="444.3" r="3" fill="#e6ddc4" opacity="0.077"/><circle cx="1696.6" cy="2009" r="3.1" fill="#e6ddc4" opacity="0.069"/><circle cx="1861.4" cy="2311.4" r="3.1" fill="#e6ddc4" opacity="0.033"/><circle cx="1054.5" cy="1316.2" r="3.2" fill="#e6ddc4" opacity="0.071"/><circle cx="1147.3" cy="208.1" r="1.9" fill="#e6ddc4" opacity="0.053"/><path d="M1832.1,1930.1 Q1736.7,2280.3 1528.1,2465.8 Q1319.4,2651.4 1083.4,2600.3 Q847.5,2549.2 707.6,2254.4 Q567.7,1959.7 542,1562.8 Q516.3,1165.9 675.5,877.6 Q834.6,589.3 1077.1,551.8 Q1319.6,514.3 1529.7,681.5 Q1739.9,848.8 1833.6,1214.4 Q1927.4,1580 1832.1,1930.1 Z" fill="#57674b" stroke="#e6ddc4" stroke-width="10"/><clipPath id="a69-rs"><path d="M1832.1,1930.1 Q1736.7,2280.3 1528.1,2465.8 Q1319.4,2651.4 1083.4,2600.3 Q847.5,2549.2 707.6,2254.4 Q567.7,1959.7 542,1562.8 Q516.3,1165.9 675.5,877.6 Q834.6,589.3 1077.1,551.8 Q1319.6,514.3 1529.7,681.5 Q1739.9,848.8 1833.6,1214.4 Q1927.4,1580 1832.1,1930.1 Z"/></clipPath><g clip-path="url(#a69-rs)"><path d="M740,2560 C 580,1900 900,1500 1200,1400 C 1500,1300 1760,1000 1500,640" fill="none" stroke="#e6ddc4" stroke-width="150" opacity="0.25"/><line x1="740" y1="2518" x2="740" y2="2602" stroke="#e6ddc4" stroke-width="14" stroke-linecap="round"/><line x1="740" y1="2546.1" x2="704.7" y2="2576.4" stroke="#e6ddc4" stroke-width="12" stroke-linecap="round"/><line x1="761.6" y1="2403" x2="761.6" y2="2487" stroke="#e6ddc4" stroke-width="14" stroke-linecap="round"/><line x1="761.6" y1="2417.7" x2="796.8" y2="2447.9" stroke="#e6ddc4" stroke-width="12" stroke-linecap="round"/><line x1="784.4" y1="2286.2" x2="784.4" y2="2370.2" stroke="#e6ddc4" stroke-width="14" stroke-linecap="round"/><line x1="784.4" y1="2297.1" x2="819.7" y2="2327.4" stroke="#e6ddc4" stroke-width="12" stroke-linecap="round"/><line x1="809.7" y1="2166" x2="809.7" y2="2250" stroke="#e6ddc4" stroke-width="14" stroke-linecap="round"/><line x1="809.7" y1="2190.3" x2="774.4" y2="2220.6" stroke="#e6ddc4" stroke-width="12" stroke-linecap="round"/><line x1="809.7" y1="2195.5" x2="774.4" y2="2225.8" stroke="#e6ddc4" stroke-width="12" stroke-linecap="round"/><line x1="838.6" y1="2041.3" x2="838.6" y2="2125.3" stroke="#e6ddc4" stroke-width="14" stroke-linecap="round"/><line x1="838.6" y1="2082.8" x2="803.3" y2="2113.1" stroke="#e6ddc4" stroke-width="12" stroke-linecap="round"/><line x1="838.6" y1="2054.6" x2="873.9" y2="2084.9" stroke="#e6ddc4" stroke-width="12" stroke-linecap="round"/><line x1="872.1" y1="1911.9" x2="872.1" y2="1995.9" stroke="#e6ddc4" stroke-width="14" stroke-linecap="round"/><line x1="872.1" y1="1931.5" x2="907.4" y2="1961.7" stroke="#e6ddc4" stroke-width="12" stroke-linecap="round"/><line x1="910.9" y1="1778.3" x2="910.9" y2="1862.3" stroke="#e6ddc4" stroke-width="14" stroke-linecap="round"/><line x1="910.9" y1="1815.4" x2="875.6" y2="1845.7" stroke="#e6ddc4" stroke-width="12" stroke-linecap="round"/><line x1="910.9" y1="1815.7" x2="875.6" y2="1846" stroke="#e6ddc4" stroke-width="12" stroke-linecap="round"/><line x1="955.4" y1="1641.4" x2="955.4" y2="1725.4" stroke="#e6ddc4" stroke-width="14" stroke-linecap="round"/><line x1="955.4" y1="1679.8" x2="920.2" y2="1710" stroke="#e6ddc4" stroke-width="12" stroke-linecap="round"/><line x1="1006.1" y1="1502.9" x2="1006.1" y2="1586.9" stroke="#e6ddc4" stroke-width="14" stroke-linecap="round"/><line x1="1006.1" y1="1527.7" x2="1041.4" y2="1557.9" stroke="#e6ddc4" stroke-width="12" stroke-linecap="round"/><line x1="1006.1" y1="1544.8" x2="970.8" y2="1575" stroke="#e6ddc4" stroke-width="12" stroke-linecap="round"/><line x1="1062.9" y1="1364.7" x2="1062.9" y2="1448.7" stroke="#e6ddc4" stroke-width="14" stroke-linecap="round"/><line x1="1062.9" y1="1375.2" x2="1098.1" y2="1405.4" stroke="#e6ddc4" stroke-width="12" stroke-linecap="round"/><line x1="1062.9" y1="1401.8" x2="1098.1" y2="1432.1" stroke="#e6ddc4" stroke-width="12" stroke-linecap="round"/><line x1="1125.4" y1="1228.6" x2="1125.4" y2="1312.6" stroke="#e6ddc4" stroke-width="14" stroke-linecap="round"/><line x1="1125.4" y1="1270.2" x2="1090.1" y2="1300.4" stroke="#e6ddc4" stroke-width="12" stroke-linecap="round"/><line x1="1193.3" y1="1096.1" x2="1193.3" y2="1180.1" stroke="#e6ddc4" stroke-width="14" stroke-linecap="round"/><line x1="1193.3" y1="1128" x2="1228.6" y2="1158.2" stroke="#e6ddc4" stroke-width="12" stroke-linecap="round"/><line x1="1265.7" y1="968.1" x2="1265.7" y2="1052.1" stroke="#e6ddc4" stroke-width="14" stroke-linecap="round"/><line x1="1265.7" y1="1002.7" x2="1230.4" y2="1032.9" stroke="#e6ddc4" stroke-width="12" stroke-linecap="round"/><line x1="1265.7" y1="1001.3" x2="1230.4" y2="1031.5" stroke="#e6ddc4" stroke-width="12" stroke-linecap="round"/><line x1="1341.7" y1="844.8" x2="1341.7" y2="928.8" stroke="#e6ddc4" stroke-width="14" stroke-linecap="round"/><line x1="1341.7" y1="860.8" x2="1377" y2="891.1" stroke="#e6ddc4" stroke-width="12" stroke-linecap="round"/><line x1="1341.7" y1="884.3" x2="1377" y2="914.6" stroke="#e6ddc4" stroke-width="12" stroke-linecap="round"/><line x1="1420.2" y1="725.7" x2="1420.2" y2="809.7" stroke="#e6ddc4" stroke-width="14" stroke-linecap="round"/><line x1="1420.2" y1="762.5" x2="1384.9" y2="792.8" stroke="#e6ddc4" stroke-width="12" stroke-linecap="round"/><line x1="1420.2" y1="743.3" x2="1384.9" y2="773.5" stroke="#e6ddc4" stroke-width="12" stroke-linecap="round"/><line x1="1500" y1="609.6" x2="1500" y2="693.6" stroke="#e6ddc4" stroke-width="14" stroke-linecap="round"/><line x1="1500" y1="634.4" x2="1535.3" y2="664.7" stroke="#e6ddc4" stroke-width="12" stroke-linecap="round"/><polyline points="1506.6,640 1508.1,642 1508.9,644.7 1508.8,647.8 1507.7,651.1 1505.5,654.2 1502.1,656.8 1497.9,658.5 1492.9,659.1 1487.6,658.3 1482.3,655.9 1477.5,652.1 1473.6,646.8 1471,640.3 1470.1,633 1471.1,625.3 1474.1,617.7 1479.2,610.7 1486.2,605 1494.7,601 1504.3,599.2 1514.5,599.7 1524.6,602.9 1534,608.7 1542,616.9 1548,627.1 1551.4,638.9 1551.9,651.6 1549.1,664.4 1543.2,676.5 1534.3,687.2 1522.7,695.6 1509,701.1 1494,703.2 1478.6,701.6 1463.6,696.1 1450,687 1438.7,674.5 1430.6,659.4 1426.2,642.3 1426.1,624.3 1430.4,606.4 1439.1,589.7 1451.9,575.2 1468.1,564 1486.8,556.9 1507.2,554.4 1527.9,557 1547.9,564.6 1565.7,577 1580.3,593.6 1590.7,613.6 1596.1,636 1596,659.4 1590.2,682.4 1578.8,703.8 1562.3,722.1 1541.6,736.2 1517.8,745.1 1492.1,748 1466,744.6" fill="none" stroke="#e6ddc4" stroke-width="18" stroke-linecap="round" stroke-linejoin="round"/><polyline points="733.4,2560 731.9,2562 731.1,2564.7 731.2,2567.8 732.3,2571.1 734.5,2574.2 737.9,2576.8 742.1,2578.5 747.1,2579.1 752.4,2578.3 757.7,2575.9 762.5,2572.1 766.4,2566.8 769,2560.3 769.9,2553 768.9,2545.3 765.9,2537.7 760.8,2530.7 753.8,2525 745.3,2521 735.7,2519.2 725.5,2519.7 715.4,2522.9 706,2528.7 698,2536.9 692,2547.1 688.6,2558.9 688.1,2571.6 690.9,2584.4 696.8,2596.5 705.7,2607.2 717.3,2615.6 731,2621.1 746,2623.2 761.4,2621.6 776.4,2616.1 790,2607 801.3,2594.5 809.4,2579.4 813.8,2562.3 813.9,2544.3 809.6,2526.4 800.9,2509.7 788.1,2495.2 771.9,2484 753.2,2476.9 732.8,2474.4 712.1,2477 692.1,2484.6 674.3,2497 659.7,2513.6 649.3,2533.6 643.9,2556 644,2579.4 649.8,2602.4 661.2,2623.8 677.7,2642.1 698.4,2656.2 722.2,2665.1 747.9,2668 774,2664.6" fill="none" stroke="#e6ddc4" stroke-width="18" stroke-linecap="round" stroke-linejoin="round"/></g><rect x="100" y="100" width="2200" height="2800" fill="none" stroke="#e6ddc4" stroke-width="9"/><rect x="142" y="142" width="2116" height="2716" fill="none" stroke="#e6ddc4" stroke-width="3" opacity="0.65"/></svg></svg>