<svg xmlns="http://www.w3.org/2000/svg" width="2400" height="1800" viewBox="0 0 2400 1800"><rect width="2400" height="1800" fill="#dfe4dc"/><rect y="1400" width="2400" height="400" fill="#c2a67e"/><line x1="60" y1="1400" x2="10" y2="1800" stroke="#00000015" stroke-width="5"/><line x1="260" y1="1400" x2="210" y2="1800" stroke="#00000015" stroke-width="5"/><line x1="460" y1="1400" x2="410" y2="1800" stroke="#00000015" stroke-width="5"/><line x1="660" y1="1400" x2="610" y2="1800" stroke="#00000015" stroke-width="5"/><line x1="860" y1="1400" x2="810" y2="1800" stroke="#00000015" stroke-width="5"/><line x1="1060" y1="1400" x2="1010" y2="1800" stroke="#00000015" stroke-width="5"/><line x1="1260" y1="1400" x2="1210" y2="1800" stroke="#00000015" stroke-width="5"/><line x1="1460" y1="1400" x2="1410" y2="1800" stroke="#00000015" stroke-width="5"/><line x1="1660" y1="1400" x2="1610" y2="1800" stroke="#00000015" stroke-width="5"/><line x1="1860" y1="1400" x2="1810" y2="1800" stroke="#00000015" stroke-width="5"/><line x1="2060" y1="1400" x2="2010" y2="1800" stroke="#00000015" stroke-width="5"/><line x1="2260" y1="1400" x2="2210" y2="1800" stroke="#00000015" stroke-width="5"/><rect x="180" y="260" width="900" height="620" fill="#8a6a48"/><rect x="215" y="295" width="830" height="550" fill="#41524a"/><line x1="280" y1="420" x2="760" y2="420" stroke="#ffffff66" stroke-width="9" stroke-linecap="round"/><line x1="280" y1="520" x2="620" y2="520" stroke="#ffffff44" stroke-width="9" stroke-linecap="round"/><circle cx="880" cy="560" r="90" fill="none" stroke="#ffffff55" stroke-width="8"/><rect x="215" y="845" width="830" height="22" fill="#6f5436"/><rect x="330" y="1240" width="640" height="60" rx="10" fill="#9c7449"/><rect x="370" y="1300" width="60" height="240" fill="#8a6540"/><rect x="870" y="1300" width="60" height="240" fill="#8a6540"/><rect x="430" y="1160" width="150" height="80" rx="8" fill="#a8792c"/><rect x="450" y="1120" width="150" height="40" rx="8" fill="#b09a6c"/><circle cx="800" cy="1130" r="86" fill="#7fa3b8"/><path d="M760,1060 Q820,1100 780,1190 M740,1090 Q800,1120 850,1100" stroke="#5d8069" stroke-width="16" fill="none" stroke-linecap="round"/><circle cx="800" cy="1130" r="86" fill="none" stroke="#6b5233" stroke-width="7"/><line x1="800" y1="1216" x2="800" y2="1250" stroke="#6b5233" stroke-width="10"/><rect x="750" y="1244" width="100" height="14" rx="7" fill="#6b5233"/><rect x="1980" y="700" width="300" height="800" fill="#9c7449"/><rect x="2000" y="930" width="260" height="16" fill="#7c5a37"/><rect x="2020" y="790" width="36" height="140" fill="#b3502f"/><rect x="2066" y="802" width="36" height="128" fill="#39685c"/><rect x="2112" y="790" width="36" height="140" fill="#c9a227"/><rect x="2158" y="802" width="36" height="128" fill="#2c4661"/><rect x="2204" y="790" width="36" height="140" fill="#8a4423"/><rect x="2000" y="1180" width="260" height="16" fill="#7c5a37"/><rect x="2020" y="1040" width="36" height="140" fill="#39685c"/><rect x="2066" y="1052" width="36" height="128" fill="#c9a227"/><rect x="2112" y="1040" width="36" height="140" fill="#2c4661"/><rect x="2158" y="1052" width="36" height="128" fill="#8a4423"/><rect x="2204" y="1040" width="36" height="140" fill="#b3502f"/><rect x="2000" y="1430" width="260" height="16" fill="#7c5a37"/><rect x="2020" y="1290" width="36" height="140" fill="#c9a227"/><rect x="2066" y="1302" width="36" height="128" fill="#2c4661"/><rect x="2112" y="1290" width="36" height="140" fill="#8a4423"/><rect x="2158" y="1302" width="36" height="128" fill="#b3502f"/><rect x="2204" y="1290" width="36" height="140" fill="#39685c"/><defs><filter id="a38c-sh" x="-30%" y="-30%" width="160%" height="160%"><feGaussianBlur stdDeviation="16"/></filter></defs><rect x="1340.5" y="298.5" width="517" height="635" fill="#000" opacity="0.28" filter="url(#a38c-sh)"/><rect x="1326.5" y="276.5" width="517" height="635" fill="#3d342a"/><rect x="1341.8" y="291.8" width="486.4" height="604.5" fill="none" stroke="#00000055" stroke-width="3"/><rect x="1350" y="300" width="470" height="588" fill="#f6f2ea"/><svg x="1385.3" y="335.3" width="399.5" height="517.5" viewBox="0 0 2400 3000" preserveAspectRatio="xMidYMid slice"><filter id="a38-warp" x="-4%" y="-4%" width="108%" height="108%"><feTurbulence type="fractalNoise" baseFrequency="0.0105" numOctaves="2" seed="1296" result="w"/><feDisplacementMap in="SourceGraphic" in2="w" scale="11" xChannelSelector="R" yChannelSelector="G"/></filter><filter id="a38-grain" x="0%" y="0%" width="100%" height="100%"><feTurbulence type="fractalNoise" baseFrequency="0.6" numOctaves="2" seed="1303"/><feColorMatrix type="matrix" values="0.33 0.33 0.33 0 0.62  0.33 0.33 0.33 0 0.62  0.33 0.33 0.33 0 0.62  0 0 0 0 1"/></filter><filter id="a38-mottle" x="0%" y="0%" width="100%" height="100%"><feTurbulence type="fractalNoise" baseFrequency="0.0045" numOctaves="3" seed="1309"/><feColorMatrix type="matrix" values="0.2 0.2 0.2 0 0.78  0.2 0.2 0.2 0 0.78  0.2 0.2 0.2 0 0.78  0 0 0 0 1"/></filter><filter id="a38-fade" x="0%" y="0%" width="100%" height="100%"><feTurbulence type="fractalNoise" baseFrequency="0.006" numOctaves="2" seed="1325"/><feColorMatrix type="matrix" values="0.3 0.3 0.3 0 -0.08  0.3 0.3 0.3 0 -0.08  0.3 0.3 0.3 0 -0.1  0 0 0 0 1"/></filter><filter id="a38-blur9"><feGaussianBlur stdDeviation="9"/></filter><radialGradient id="a38-vig" cx="50%" cy="44%" r="78%"><stop offset="52%" stop-color="#241a10" stop-opacity="0"/><stop offset="100%" stop-color="#241a10" stop-opacity="0.17"/></radialGradient><radialGradient id="a38-warm" cx="46%" cy="30%" r="85%"><stop offset="0%" stop-color="#e8c890" stop-opacity="0.14"/><stop offset="70%" stop-color="#e8c890" stop-opacity="0"/></radialGradient><rect width="2400" height="3000" fill="#d3ba8c"/><rect width="2400" height="3000" fill="url(#a38-warm)"/><rect x="0" width="19.2" height="3000" fill="#6b4e26" opacity="0.056"/><rect x="26.7" width="19.6" height="3000" fill="#6b4e26" opacity="0.076"/><rect x="53.9" width="35.6" height="3000" fill="#6b4e26" opacity="0.055"/><rect x="103.4" width="38.5" height="3000" fill="#6b4e26" opacity="0.050"/><rect x="156.9" width="35.3" height="3000" fill="#6b4e26" opacity="0.058"/><rect x="205.9" width="27.1" height="3000" fill="#6b4e26" opacity="0.063"/><rect x="243.5" width="42.2" height="3000" fill="#6b4e26" opacity="0.034"/><rect x="302.1" width="25.1" height="3000" fill="#6b4e26" opacity="0.098"/><rect x="336.9" width="20.8" height="3000" fill="#6b4e26" opacity="0.081"/><rect x="365.8" width="35.3" height="3000" fill="#6b4e26" opacity="0.032"/><rect x="414.8" width="36.9" height="3000" fill="#6b4e26" opacity="0.098"/><rect x="466" width="33.8" height="3000" fill="#6b4e26" opacity="0.069"/><rect x="512.9" width="22.5" height="3000" fill="#6b4e26" opacity="0.064"/><rect x="544.2" width="22" height="3000" fill="#6b4e26" opacity="0.059"/><rect x="574.7" width="34.2" height="3000" fill="#6b4e26" opacity="0.074"/><rect x="622.2" width="18.8" height="3000" fill="#6b4e26" opacity="0.031"/><rect x="648.3" width="38.9" height="3000" fill="#6b4e26" opacity="0.049"/><rect x="702.3" width="35" height="3000" fill="#6b4e26" opacity="0.032"/><rect x="750.9" width="21.1" height="3000" fill="#6b4e26" opacity="0.085"/><rect x="780.2" width="33.3" height="3000" fill="#6b4e26" opacity="0.092"/><rect x="826.5" width="21.4" height="3000" fill="#6b4e26" opacity="0.076"/><rect x="856.2" width="23.4" height="3000" fill="#6b4e26" opacity="0.067"/><rect x="888.8" width="22.2" height="3000" fill="#6b4e26" opacity="0.037"/><rect x="919.7" width="37.8" height="3000" fill="#6b4e26" opacity="0.048"/><rect x="972.2" width="20.3" height="3000" fill="#6b4e26" opacity="0.039"/><rect x="1000.3" width="34.3" height="3000" fill="#6b4e26" opacity="0.061"/><rect x="1047.9" width="20.9" height="3000" fill="#6b4e26" opacity="0.091"/><rect x="1077" width="34.6" height="3000" fill="#6b4e26" opacity="0.050"/><rect x="1125" width="24.7" height="3000" fill="#6b4e26" opacity="0.036"/><rect x="1159.3" width="43.1" height="3000" fill="#6b4e26" opacity="0.087"/><rect x="1219.2" width="28.9" height="3000" fill="#6b4e26" opacity="0.089"/><rect x="1259.4" width="39.3" height="3000" fill="#6b4e26" opacity="0.069"/><rect x="1314" width="28.2" height="3000" fill="#6b4e26" opacity="0.063"/><rect x="1353.1" width="26.8" height="3000" fill="#6b4e26" opacity="0.039"/><rect x="1390.3" width="32.8" height="3000" fill="#6b4e26" opacity="0.035"/><rect x="1435.9" width="34" height="3000" fill="#6b4e26" opacity="0.065"/><rect x="1483.1" width="36.8" height="3000" fill="#6b4e26" opacity="0.068"/><rect x="1534.1" width="29.3" height="3000" fill="#6b4e26" opacity="0.041"/><rect x="1574.8" width="25.6" height="3000" fill="#6b4e26" opacity="0.072"/><rect x="1610.3" width="35.3" height="3000" fill="#6b4e26" opacity="0.048"/><rect x="1659.4" width="22.4" height="3000" fill="#6b4e26" opacity="0.043"/><rect x="1690.5" width="30.9" height="3000" fill="#6b4e26" opacity="0.070"/><rect x="1733.4" width="19.9" height="3000" fill="#6b4e26" opacity="0.100"/><rect x="1761" width="25.3" height="3000" fill="#6b4e26" opacity="0.063"/><rect x="1796.2" width="38.6" height="3000" fill="#6b4e26" opacity="0.039"/><rect x="1849.9" width="31" height="3000" fill="#6b4e26" opacity="0.075"/><rect x="1893" width="30.4" height="3000" fill="#6b4e26" opacity="0.058"/><rect x="1935.2" width="23.6" height="3000" fill="#6b4e26" opacity="0.041"/><rect x="1967.9" width="33.3" height="3000" fill="#6b4e26" opacity="0.039"/><rect x="2014.2" width="29.2" height="3000" fill="#6b4e26" opacity="0.079"/><rect x="2054.7" width="29.9" height="3000" fill="#6b4e26" opacity="0.032"/><rect x="2096.3" width="21.7" height="3000" fill="#6b4e26" opacity="0.063"/><rect x="2126.4" width="30.3" height="3000" fill="#6b4e26" opacity="0.087"/><rect x="2168.4" width="36.9" height="3000" fill="#6b4e26" opacity="0.037"/><rect x="2219.7" width="21.1" height="3000" fill="#6b4e26" opacity="0.062"/><rect x="2249" width="40.6" height="3000" fill="#6b4e26" opacity="0.052"/><rect x="2305.4" width="35.7" height="3000" fill="#6b4e26" opacity="0.084"/><rect x="2355" width="21.7" height="3000" fill="#6b4e26" opacity="0.078"/><rect x="2385" width="27.8" height="3000" fill="#6b4e26" opacity="0.063"/><rect y="0" width="2400" height="23.4" fill="#7c5c30" opacity="0.037"/><rect y="38.9" width="2400" height="13.3" fill="#7c5c30" opacity="0.040"/><rect y="61.1" width="2400" height="19.1" fill="#7c5c30" opacity="0.022"/><rect y="93" width="2400" height="14" fill="#7c5c30" opacity="0.057"/><rect y="116.4" width="2400" height="12.2" fill="#7c5c30" opacity="0.048"/><rect y="136.8" width="2400" height="17.7" fill="#7c5c30" opacity="0.030"/><rect y="166.2" width="2400" height="12.7" fill="#7c5c30" opacity="0.030"/><rect y="187.4" width="2400" height="15.5" fill="#7c5c30" opacity="0.051"/><rect y="213.3" width="2400" height="26.3" fill="#7c5c30" opacity="0.021"/><rect y="257.1" width="2400" height="16.7" fill="#7c5c30" opacity="0.058"/><rect y="284.9" width="2400" height="24.8" fill="#7c5c30" opacity="0.044"/><rect y="326.2" width="2400" height="22.4" fill="#7c5c30" opacity="0.048"/><rect y="363.6" width="2400" height="23.1" fill="#7c5c30" opacity="0.051"/><rect y="402" width="2400" height="18.4" fill="#7c5c30" opacity="0.041"/><rect y="432.6" width="2400" height="24.6" fill="#7c5c30" opacity="0.041"/><rect y="473.6" width="2400" height="26.1" fill="#7c5c30" opacity="0.043"/><rect y="517.1" width="2400" height="24.9" fill="#7c5c30" opacity="0.038"/><rect y="558.7" width="2400" height="17.6" fill="#7c5c30" opacity="0.028"/><rect y="588" width="2400" height="17.2" fill="#7c5c30" opacity="0.034"/><rect y="616.6" width="2400" height="26.4" fill="#7c5c30" opacity="0.048"/><rect y="660.7" width="2400" height="26.4" fill="#7c5c30" opacity="0.051"/><rect y="704.7" width="2400" height="12.5" fill="#7c5c30" opacity="0.025"/><rect y="725.6" width="2400" height="21.7" fill="#7c5c30" opacity="0.054"/><rect y="761.7" width="2400" height="23.2" fill="#7c5c30" opacity="0.046"/><rect y="800.4" width="2400" height="17.5" fill="#7c5c30" opacity="0.024"/><rect y="829.6" width="2400" height="27.5" fill="#7c5c30" opacity="0.054"/><rect y="875.4" width="2400" height="18" fill="#7c5c30" opacity="0.030"/><rect y="905.5" width="2400" height="15.3" fill="#7c5c30" opacity="0.028"/><rect y="930.9" width="2400" height="14.5" fill="#7c5c30" opacity="0.055"/><rect y="955.1" width="2400" height="26.9" fill="#7c5c30" opacity="0.056"/><rect y="999.9" width="2400" height="27.5" fill="#7c5c30" opacity="0.026"/><rect y="1045.8" width="2400" height="26.3" fill="#7c5c30" opacity="0.038"/><rect y="1089.6" width="2400" height="25.3" fill="#7c5c30" opacity="0.054"/><rect y="1131.8" width="2400" height="19.3" fill="#7c5c30" opacity="0.022"/><rect y="1164" width="2400" height="13.3" fill="#7c5c30" opacity="0.046"/><rect y="1186.2" width="2400" height="25.3" fill="#7c5c30" opacity="0.021"/><rect y="1228.3" width="2400" height="21.2" fill="#7c5c30" opacity="0.056"/><rect y="1263.7" width="2400" height="28.6" fill="#7c5c30" opacity="0.020"/><rect y="1311.3" width="2400" height="23.9" fill="#7c5c30" opacity="0.028"/><rect y="1351.1" width="2400" height="15" fill="#7c5c30" opacity="0.030"/><rect y="1376.1" width="2400" height="14.6" fill="#7c5c30" opacity="0.044"/><rect y="1400.5" width="2400" height="24.4" fill="#7c5c30" opacity="0.033"/><rect y="1441.1" width="2400" height="26.7" fill="#7c5c30" opacity="0.042"/><rect y="1485.6" width="2400" height="25.4" fill="#7c5c30" opacity="0.053"/><rect y="1528" width="2400" height="25.4" fill="#7c5c30" opacity="0.028"/><rect y="1570.2" width="2400" height="28.1" fill="#7c5c30" opacity="0.024"/><rect y="1617.1" width="2400" height="26.9" fill="#7c5c30" opacity="0.027"/><rect y="1661.9" width="2400" height="19.1" fill="#7c5c30" opacity="0.024"/><rect y="1693.8" width="2400" height="17.2" fill="#7c5c30" opacity="0.041"/><rect y="1722.5" width="2400" height="14.1" fill="#7c5c30" opacity="0.043"/><rect y="1746" width="2400" height="27.1" fill="#7c5c30" opacity="0.023"/><rect y="1791.1" width="2400" height="16.8" fill="#7c5c30" opacity="0.043"/><rect y="1819.1" width="2400" height="16.8" fill="#7c5c30" opacity="0.057"/><rect y="1847.1" width="2400" height="26.8" fill="#7c5c30" opacity="0.037"/><rect y="1891.7" width="2400" height="24.5" fill="#7c5c30" opacity="0.042"/><rect y="1932.6" width="2400" height="24.6" fill="#7c5c30" opacity="0.044"/><rect y="1973.6" width="2400" height="27.3" fill="#7c5c30" opacity="0.026"/><rect y="2019.2" width="2400" height="25" fill="#7c5c30" opacity="0.027"/><rect y="2060.8" width="2400" height="12" fill="#7c5c30" opacity="0.040"/><rect y="2080.9" width="2400" height="17.9" fill="#7c5c30" opacity="0.052"/><rect y="2110.7" width="2400" height="14.5" fill="#7c5c30" opacity="0.027"/><rect y="2134.9" width="2400" height="19.4" fill="#7c5c30" opacity="0.031"/><rect y="2167.3" width="2400" height="26.5" fill="#7c5c30" opacity="0.028"/><rect y="2211.5" width="2400" height="17.7" fill="#7c5c30" opacity="0.058"/><rect y="2240.9" width="2400" height="22" fill="#7c5c30" opacity="0.029"/><rect y="2277.6" width="2400" height="15.3" fill="#7c5c30" opacity="0.022"/><rect y="2303.1" width="2400" height="22.6" fill="#7c5c30" opacity="0.055"/><rect y="2340.7" width="2400" height="25.7" fill="#7c5c30" opacity="0.022"/><rect y="2383.6" width="2400" height="24.5" fill="#7c5c30" opacity="0.044"/><rect y="2424.4" width="2400" height="21.6" fill="#7c5c30" opacity="0.057"/><rect y="2460.4" width="2400" height="27.3" fill="#7c5c30" opacity="0.038"/><rect y="2505.9" width="2400" height="15.1" fill="#7c5c30" opacity="0.045"/><rect y="2531" width="2400" height="18.3" fill="#7c5c30" opacity="0.033"/><rect y="2561.6" width="2400" height="25.2" fill="#7c5c30" opacity="0.057"/><rect y="2603.7" width="2400" height="23.9" fill="#7c5c30" opacity="0.042"/><rect y="2643.5" width="2400" height="17.1" fill="#7c5c30" opacity="0.033"/><rect y="2672" width="2400" height="23.7" fill="#7c5c30" opacity="0.038"/><rect y="2711.5" width="2400" height="19.7" fill="#7c5c30" opacity="0.031"/><rect y="2744.3" width="2400" height="24.6" fill="#7c5c30" opacity="0.034"/><rect y="2785.3" width="2400" height="24.6" fill="#7c5c30" opacity="0.060"/><rect y="2826.3" width="2400" height="18.9" fill="#7c5c30" opacity="0.035"/><rect y="2857.8" width="2400" height="14.8" fill="#7c5c30" opacity="0.048"/><rect y="2882.5" width="2400" height="18.3" fill="#7c5c30" opacity="0.028"/><rect y="2913.1" width="2400" height="15.6" fill="#7c5c30" opacity="0.049"/><rect y="2939.1" width="2400" height="12.6" fill="#7c5c30" opacity="0.028"/><rect y="2960" width="2400" height="24.6" fill="#7c5c30" opacity="0.051"/><g filter="url(#a38-warp)"><clipPath id="a38-gz"><rect x="150" y="150" width="2100" height="2700"/></clipPath><g clip-path="url(#a38-gz)"><circle cx="1289.1" cy="807.6" r="386.4" fill="#a8792c"/><path d="M150,2050 C 700,1910.8 1100,2189.2 1600,1966.5 S 2200,2105.7 2250,2030 L2250,2850 L150,2850 Z" fill="#332d23" opacity="0.35"/><path d="M150,2270 C 700,2144.2 1100,2395.8 1600,2194.5 S 2200,2320.3 2250,2250 L2250,2850 L150,2850 Z" fill="#b09a6c" opacity="0.9"/><path d="M150,2520 C 700,2415.2 1100,2624.8 1600,2457.1 S 2200,2561.9 2250,2500 L2250,2850 L150,2850 Z" fill="#332d23" opacity="1"/><polygon points="699,1201.9 220,2130 764,2130" fill="#332d23"/><polygon points="699,1201.9 764,2130 1178,2130" fill="#332d23" opacity="0.6"/><polygon points="1175.7,1678.5 812.4,2130 1260.6,2130" fill="#332d23"/><polygon points="1175.7,1678.5 1260.6,2130 1539,2130" fill="#332d23" opacity="0.6"/><polygon points="1909.9,1493.6 1639.8,2130 1972.7,2130" fill="#332d23"/><polygon points="1909.9,1493.6 1972.7,2130 2180,2130" fill="#332d23" opacity="0.6"/><path d="M1562.5,881.2 q 26,-24 52,0 q 26,-24 52,0" fill="none" stroke="#332d23" stroke-width="8" stroke-linecap="round"/><path d="M1069.5,825.9 q 26,-24 52,0 q 26,-24 52,0" fill="none" stroke="#332d23" stroke-width="8" stroke-linecap="round"/></g><polyline points="240,2800 300,2740 360,2800 420,2740 480,2800 540,2740 600,2800 660,2740 720,2800 780,2740 840,2800 900,2740 960,2800 1020,2740 1080,2800 1140,2740 1200,2800 1260,2740 1320,2800 1380,2740 1440,2800 1500,2740 1560,2800 1620,2740 1680,2800 1740,2740 1800,2800 1860,2740 1920,2800 1980,2740 2040,2800 2100,2740 2160,2800 " fill="none" stroke="#332d23" stroke-width="10.8" stroke-linejoin="miter"/><rect x="120" y="120" width="2160" height="2760" fill="none" stroke="#332d23" stroke-width="6" opacity="0.85"/></g><rect width="2400" height="3000" filter="url(#a38-mottle)" style="mix-blend-mode:multiply" opacity="0.5"/><rect width="2400" height="3000" filter="url(#a38-fade)" style="mix-blend-mode:screen" opacity="0.55"/><rect width="2400" height="3000" filter="url(#a38-grain)" style="mix-blend-mode:multiply" opacity="0.32"/><ellipse cx="1344.6" cy="1574.4" rx="176.2" ry="187.7" fill="#6b4a22" opacity="0.030" filter="url(#a38-blur9)"/><ellipse cx="1107.9" cy="889.5" rx="256.5" ry="200.1" fill="#6b4a22" opacity="0.057" filter="url(#a38-blur9)"/><ellipse cx="741.7" cy="2385" rx="213.4" ry="229.3" fill="#6b4a22" opacity="0.055" filter="url(#a38-blur9)"/><rect x="0" width="31.3" height="3000" fill="#fff2d0" opacity="0.025"/><rect x="62.6" width="17.4" height="3000" fill="#fff2d0" opacity="0.021"/><rect x="97.4" width="22.2" height="3000" fill="#fff2d0" opacity="0.020"/><rect x="141.7" width="30.6" height="3000" fill="#fff2d0" opacity="0.042"/><rect x="202.9" width="24.7" height="3000" fill="#fff2d0" opacity="0.031"/><rect x="252.3" width="20.5" height="3000" fill="#fff2d0" opacity="0.031"/><rect x="293.3" width="21.1" height="3000" fill="#fff2d0" opacity="0.033"/><rect x="335.4" width="24.2" height="3000" fill="#fff2d0" opacity="0.028"/><rect x="383.8" width="27" height="3000" fill="#fff2d0" opacity="0.033"/><rect x="437.8" width="29.4" height="3000" fill="#fff2d0" opacity="0.021"/><rect x="496.6" width="26.8" height="3000" fill="#fff2d0" opacity="0.022"/><rect x="550.2" width="30.5" height="3000" fill="#fff2d0" opacity="0.030"/><rect x="611.2" width="34.9" height="3000" fill="#fff2d0" opacity="0.027"/><rect x="680.9" width="27.4" height="3000" fill="#fff2d0" opacity="0.017"/><rect x="735.7" width="30.2" height="3000" fill="#fff2d0" opacity="0.039"/><rect x="796.1" width="19.7" height="3000" fill="#fff2d0" opacity="0.015"/><rect x="835.4" width="31" height="3000" fill="#fff2d0" opacity="0.024"/><rect x="897.3" width="31.1" height="3000" fill="#fff2d0" opacity="0.021"/><rect x="959.6" width="16" height="3000" fill="#fff2d0" opacity="0.033"/><rect x="991.7" width="33.9" height="3000" fill="#fff2d0" opacity="0.032"/><rect x="1059.5" width="26.9" height="3000" fill="#fff2d0" opacity="0.029"/><rect x="1113.4" width="33.4" height="3000" fill="#fff2d0" opacity="0.030"/><rect x="1180.1" width="16.2" height="3000" fill="#fff2d0" opacity="0.038"/><rect x="1212.6" width="31.9" height="3000" fill="#fff2d0" opacity="0.025"/><rect x="1276.5" width="34.2" height="3000" fill="#fff2d0" opacity="0.028"/><rect x="1344.8" width="16.2" height="3000" fill="#fff2d0" opacity="0.024"/><rect x="1377.1" width="19.9" height="3000" fill="#fff2d0" opacity="0.025"/><rect x="1416.8" width="31.2" height="3000" fill="#fff2d0" opacity="0.044"/><rect x="1479.2" width="20.4" height="3000" fill="#fff2d0" opacity="0.041"/><rect x="1520" width="31.3" height="3000" fill="#fff2d0" opacity="0.018"/><rect x="1582.6" width="26.3" height="3000" fill="#fff2d0" opacity="0.029"/><rect x="1635.2" width="17.7" height="3000" fill="#fff2d0" opacity="0.033"/><rect x="1670.6" width="25.3" height="3000" fill="#fff2d0" opacity="0.029"/><rect x="1721.2" width="17.6" height="3000" fill="#fff2d0" opacity="0.018"/><rect x="1756.4" width="19.3" height="3000" fill="#fff2d0" opacity="0.033"/><rect x="1795" width="21.8" height="3000" fill="#fff2d0" opacity="0.022"/><rect x="1838.7" width="20.5" height="3000" fill="#fff2d0" opacity="0.044"/><rect x="1879.7" width="34" height="3000" fill="#fff2d0" opacity="0.044"/><rect x="1947.8" width="29.9" height="3000" fill="#fff2d0" opacity="0.041"/><rect x="2007.5" width="32.3" height="3000" fill="#fff2d0" opacity="0.031"/><rect x="2072" width="33.4" height="3000" fill="#fff2d0" opacity="0.036"/><rect x="2138.8" width="17.4" height="3000" fill="#fff2d0" opacity="0.019"/><rect x="2173.6" width="30.8" height="3000" fill="#fff2d0" opacity="0.019"/><rect x="2235.1" width="24.6" height="3000" fill="#fff2d0" opacity="0.032"/><rect x="2284.4" width="25.8" height="3000" fill="#fff2d0" opacity="0.024"/><rect x="2335.9" width="26.7" height="3000" fill="#fff2d0" opacity="0.028"/><rect x="2389.2" width="27.6" height="3000" fill="#fff2d0" opacity="0.017"/><linearGradient id="a38-er" x1="0" x2="1" y1="0" y2="0"><stop offset="0" stop-color="#3a2a12" stop-opacity="0.22"/><stop offset="1" stop-color="#3a2a12" stop-opacity="0"/></linearGradient><rect x="0" y="0" width="90" height="3000" fill="url(#a38-er)"/><linearGradient id="a38-el" x1="1" x2="0" y1="0" y2="0"><stop offset="0" stop-color="#3a2a12" stop-opacity="0.22"/><stop offset="1" stop-color="#3a2a12" stop-opacity="0"/></linearGradient><rect x="2310" y="0" width="90" height="3000" fill="url(#a38-el)"/><linearGradient id="a38-ed" x1="0" x2="0" y1="0" y2="1"><stop offset="0" stop-color="#3a2a12" stop-opacity="0.22"/><stop offset="1" stop-color="#3a2a12" stop-opacity="0"/></linearGradient><rect x="0" y="0" width="2400" height="90" fill="url(#a38-ed)"/><linearGradient id="a38-eu" x1="0" x2="0" y1="1" y2="0"><stop offset="0" stop-color="#3a2a12" stop-opacity="0.22"/><stop offset="1" stop-color="#3a2a12" stop-opacity="0"/></linearGradient><rect x="0" y="2910" width="2400" height="90" fill="url(#a38-eu)"/><circle cx="1987.8" cy="1106" r="15.7" fill="#8a5a2e" opacity="0.062"/><circle cx="1804.1" cy="431.6" r="11.1" fill="#8a5a2e" opacity="0.085"/><circle cx="524.1" cy="1826" r="11.7" fill="#8a5a2e" opacity="0.106"/><circle cx="1374.4" cy="934" r="9" fill="#8a5a2e" opacity="0.063"/><circle cx="135.9" cy="102.4" r="15.1" fill="#8a5a2e" opacity="0.065"/><circle cx="856.2" cy="427.7" r="4" fill="#8a5a2e" opacity="0.057"/><circle cx="1205.5" cy="529.9" r="4.9" fill="#8a5a2e" opacity="0.113"/><circle cx="304.9" cy="2172.2" r="14" fill="#8a5a2e" opacity="0.064"/><circle cx="1874" cy="1964.4" r="11.9" fill="#8a5a2e" opacity="0.096"/><rect width="2400" height="3000" fill="url(#a38-vig)"/></svg></svg>