<svg xmlns="http://www.w3.org/2000/svg" width="2400" height="1800" viewBox="0 0 2400 1800"><rect width="2400" height="1800" fill="#e9e1d2"/><rect y="1430" width="2400" height="370" fill="#c8b190"/><line x1="120" y1="1430" x2="60" y2="1800" stroke="#00000018" stroke-width="6"/><line x1="380" y1="1430" x2="320" y2="1800" stroke="#00000018" stroke-width="6"/><line x1="640" y1="1430" x2="580" y2="1800" stroke="#00000018" stroke-width="6"/><line x1="900" y1="1430" x2="840" y2="1800" stroke="#00000018" stroke-width="6"/><line x1="1160" y1="1430" x2="1100" y2="1800" stroke="#00000018" stroke-width="6"/><line x1="1420" y1="1430" x2="1360" y2="1800" stroke="#00000018" stroke-width="6"/><line x1="1680" y1="1430" x2="1620" y2="1800" stroke="#00000018" stroke-width="6"/><line x1="1940" y1="1430" x2="1880" y2="1800" stroke="#00000018" stroke-width="6"/><line x1="2200" y1="1430" x2="2140" y2="1800" stroke="#00000018" stroke-width="6"/><rect y="1418" width="2400" height="16" fill="#d7cbb6"/><rect x="700" y="980" width="1000" height="460" rx="26" fill="#a87e57"/><rect x="660" y="1290" width="1080" height="210" rx="30" fill="#f1ebdf"/><rect x="660" y="1420" width="1080" height="120" rx="24" fill="#2f5575" opacity="0.85"/><rect x="770" y="1180" width="300" height="150" rx="40" fill="#faf6ec"/><rect x="1330" y="1180" width="300" height="150" rx="40" fill="#b39d70"/><rect x="640" y="1530" width="1120" height="26" rx="12" fill="#a87e57"/><rect x="360" y="1260" width="240" height="220" rx="10" fill="#a87e57"/><rect x="380" y="1300" width="200" height="14" fill="#00000022"/><line x1="480" y1="1260" x2="480" y2="1130" stroke="#5a4632" stroke-width="12"/><path d="M410,1130 L550,1130 L520,1020 L440,1020 Z" fill="#2f5575"/><path d="M2060,1520 Q 1910,1282.5 1835,1345" fill="none" stroke="#5d7052" stroke-width="20" stroke-linecap="round"/><path d="M2060,1520 Q 1960,1282.5 1910,1295" fill="none" stroke="#5d7052" stroke-width="20" stroke-linecap="round"/><path d="M2060,1520 Q 2010,1282.5 1985,1245" fill="none" stroke="#5d7052" stroke-width="20" stroke-linecap="round"/><path d="M2060,1520 Q 2060,1282.5 2060,1195" fill="none" stroke="#5d7052" stroke-width="20" stroke-linecap="round"/><path d="M2060,1520 Q 2110,1282.5 2135,1245" fill="none" stroke="#5d7052" stroke-width="20" stroke-linecap="round"/><path d="M2060,1520 Q 2160,1282.5 2210,1295" fill="none" stroke="#5d7052" stroke-width="20" stroke-linecap="round"/><path d="M2060,1520 Q 2210,1282.5 2285,1345" fill="none" stroke="#5d7052" stroke-width="20" stroke-linecap="round"/><path d="M1972.5,1520 L2147.5,1520 L2125,1657.5 L1995,1657.5 Z" fill="#a9714d"/><defs><filter id="a22b-sh" x="-30%" y="-30%" width="160%" height="160%"><feGaussianBlur stdDeviation="16"/></filter></defs><rect x="928" y="246" width="572" height="702" fill="#000" opacity="0.28" filter="url(#a22b-sh)"/><rect x="914" y="224" width="572" height="702" fill="#4a3d2f"/><rect x="930.9" y="240.9" width="538.2" height="668.2" fill="none" stroke="#00000055" stroke-width="3"/><rect x="940" y="250" width="520" height="650" fill="#f6f2ea"/><svg x="979" y="289" width="442" height="572" viewBox="0 0 2400 3000" preserveAspectRatio="xMidYMid slice"><filter id="a22-warp" x="-4%" y="-4%" width="108%" height="108%"><feTurbulence type="fractalNoise" baseFrequency="0.0105" numOctaves="2" seed="488" result="w"/><feDisplacementMap in="SourceGraphic" in2="w" scale="11" xChannelSelector="R" yChannelSelector="G"/></filter><filter id="a22-grain" x="0%" y="0%" width="100%" height="100%"><feTurbulence type="fractalNoise" baseFrequency="0.6" numOctaves="2" seed="495"/><feColorMatrix type="matrix" values="0.33 0.33 0.33 0 0.62  0.33 0.33 0.33 0 0.62  0.33 0.33 0.33 0 0.62  0 0 0 0 1"/></filter><filter id="a22-mottle" x="0%" y="0%" width="100%" height="100%"><feTurbulence type="fractalNoise" baseFrequency="0.0045" numOctaves="3" seed="501"/><feColorMatrix type="matrix" values="0.2 0.2 0.2 0 0.78  0.2 0.2 0.2 0 0.78  0.2 0.2 0.2 0 0.78  0 0 0 0 1"/></filter><filter id="a22-fade" x="0%" y="0%" width="100%" height="100%"><feTurbulence type="fractalNoise" baseFrequency="0.006" numOctaves="2" seed="517"/><feColorMatrix type="matrix" values="0.3 0.3 0.3 0 -0.08  0.3 0.3 0.3 0 -0.08  0.3 0.3 0.3 0 -0.1  0 0 0 0 1"/></filter><filter id="a22-blur9"><feGaussianBlur stdDeviation="9"/></filter><radialGradient id="a22-vig" cx="50%" cy="44%" r="78%"><stop offset="52%" stop-color="#241a10" stop-opacity="0"/><stop offset="100%" stop-color="#241a10" stop-opacity="0.17"/></radialGradient><radialGradient id="a22-warm" cx="38%" cy="30%" r="85%"><stop offset="0%" stop-color="#e8c890" stop-opacity="0.14"/><stop offset="70%" stop-color="#e8c890" stop-opacity="0"/></radialGradient><rect width="2400" height="3000" fill="#d7c096"/><rect width="2400" height="3000" fill="url(#a22-warm)"/><rect x="0" width="42.2" height="3000" fill="#6b4e26" opacity="0.089"/><rect x="58.6" width="34.3" height="3000" fill="#6b4e26" opacity="0.064"/><rect x="106.3" width="36.6" height="3000" fill="#6b4e26" opacity="0.097"/><rect x="157" width="26.1" height="3000" fill="#6b4e26" opacity="0.044"/><rect x="193.3" width="22.8" height="3000" fill="#6b4e26" opacity="0.054"/><rect x="225" width="30.4" height="3000" fill="#6b4e26" opacity="0.076"/><rect x="267.2" width="21.2" height="3000" fill="#6b4e26" opacity="0.056"/><rect x="296.6" width="30.3" height="3000" fill="#6b4e26" opacity="0.093"/><rect x="338.7" width="22.5" height="3000" fill="#6b4e26" opacity="0.073"/><rect x="369.9" width="21.4" height="3000" fill="#6b4e26" opacity="0.034"/><rect x="399.6" width="39.7" height="3000" fill="#6b4e26" opacity="0.085"/><rect x="454.7" width="41" height="3000" fill="#6b4e26" opacity="0.051"/><rect x="511.7" width="23.2" height="3000" fill="#6b4e26" opacity="0.061"/><rect x="544" width="22.1" height="3000" fill="#6b4e26" opacity="0.095"/><rect x="574.7" width="35" height="3000" fill="#6b4e26" opacity="0.049"/><rect x="623.4" width="38.2" height="3000" fill="#6b4e26" opacity="0.069"/><rect x="676.4" width="32" height="3000" fill="#6b4e26" opacity="0.046"/><rect x="720.9" width="32.1" height="3000" fill="#6b4e26" opacity="0.049"/><rect x="765.5" width="22.1" height="3000" fill="#6b4e26" opacity="0.090"/><rect x="796.2" width="30.4" height="3000" fill="#6b4e26" opacity="0.045"/><rect x="838.4" width="29.3" height="3000" fill="#6b4e26" opacity="0.099"/><rect x="879.1" width="21.6" height="3000" fill="#6b4e26" opacity="0.062"/><rect x="909.1" width="42.6" height="3000" fill="#6b4e26" opacity="0.043"/><rect x="968.2" width="22.1" height="3000" fill="#6b4e26" opacity="0.095"/><rect x="999" width="41.5" height="3000" fill="#6b4e26" opacity="0.087"/><rect x="1056.6" width="42.5" height="3000" fill="#6b4e26" opacity="0.087"/><rect x="1115.5" width="23.5" height="3000" fill="#6b4e26" opacity="0.076"/><rect x="1148.2" width="19.3" height="3000" fill="#6b4e26" opacity="0.031"/><rect x="1175" width="20.2" height="3000" fill="#6b4e26" opacity="0.087"/><rect x="1203" width="27.4" height="3000" fill="#6b4e26" opacity="0.086"/><rect x="1241" width="38.6" height="3000" fill="#6b4e26" opacity="0.065"/><rect x="1294.7" width="35.2" height="3000" fill="#6b4e26" opacity="0.093"/><rect x="1343.6" width="29.8" height="3000" fill="#6b4e26" opacity="0.033"/><rect x="1385" width="24.8" height="3000" fill="#6b4e26" opacity="0.089"/><rect x="1419.4" width="26.3" height="3000" fill="#6b4e26" opacity="0.063"/><rect x="1456" width="32.2" height="3000" fill="#6b4e26" opacity="0.075"/><rect x="1500.6" width="38.5" height="3000" fill="#6b4e26" opacity="0.087"/><rect x="1554.1" width="40.3" height="3000" fill="#6b4e26" opacity="0.098"/><rect x="1610" width="22.8" height="3000" fill="#6b4e26" opacity="0.037"/><rect x="1641.7" width="25.5" height="3000" fill="#6b4e26" opacity="0.078"/><rect x="1677.2" width="34.6" height="3000" fill="#6b4e26" opacity="0.069"/><rect x="1725.2" width="26.1" height="3000" fill="#6b4e26" opacity="0.090"/><rect x="1761.4" width="39.3" height="3000" fill="#6b4e26" opacity="0.077"/><rect x="1816" width="28.1" height="3000" fill="#6b4e26" opacity="0.068"/><rect x="1855" width="42.1" height="3000" fill="#6b4e26" opacity="0.070"/><rect x="1913.4" width="32.5" height="3000" fill="#6b4e26" opacity="0.033"/><rect x="1958.5" width="30.1" height="3000" fill="#6b4e26" opacity="0.080"/><rect x="2000.3" width="43" height="3000" fill="#6b4e26" opacity="0.065"/><rect x="2060.1" width="30.8" height="3000" fill="#6b4e26" opacity="0.084"/><rect x="2102.9" width="24.9" height="3000" fill="#6b4e26" opacity="0.084"/><rect x="2137.4" width="19.8" height="3000" fill="#6b4e26" opacity="0.063"/><rect x="2165" width="28.2" height="3000" fill="#6b4e26" opacity="0.058"/><rect x="2204.1" width="31.8" height="3000" fill="#6b4e26" opacity="0.033"/><rect x="2248.3" width="26.3" height="3000" fill="#6b4e26" opacity="0.061"/><rect x="2284.8" width="24.2" height="3000" fill="#6b4e26" opacity="0.037"/><rect x="2318.4" width="42.5" height="3000" fill="#6b4e26" opacity="0.095"/><rect x="2377.4" width="38.3" height="3000" fill="#6b4e26" opacity="0.087"/><rect y="0" width="2400" height="26.2" fill="#7c5c30" opacity="0.054"/><rect y="43.7" width="2400" height="13.9" fill="#7c5c30" opacity="0.021"/><rect y="66.8" width="2400" height="12.4" fill="#7c5c30" opacity="0.032"/><rect y="87.5" width="2400" height="21.7" fill="#7c5c30" opacity="0.039"/><rect y="123.6" width="2400" height="20.3" fill="#7c5c30" opacity="0.029"/><rect y="157.4" width="2400" height="16.8" fill="#7c5c30" opacity="0.037"/><rect y="185.4" width="2400" height="18.1" fill="#7c5c30" opacity="0.054"/><rect y="215.5" width="2400" height="27.3" fill="#7c5c30" opacity="0.044"/><rect y="261" width="2400" height="21" fill="#7c5c30" opacity="0.043"/><rect y="295.9" width="2400" height="18" fill="#7c5c30" opacity="0.038"/><rect y="325.9" width="2400" height="19.8" fill="#7c5c30" opacity="0.023"/><rect y="358.9" width="2400" height="28.6" fill="#7c5c30" opacity="0.037"/><rect y="406.6" width="2400" height="18.4" fill="#7c5c30" opacity="0.024"/><rect y="437.2" width="2400" height="17.4" fill="#7c5c30" opacity="0.047"/><rect y="466.1" width="2400" height="27.6" fill="#7c5c30" opacity="0.054"/><rect y="512.2" width="2400" height="25.3" fill="#7c5c30" opacity="0.022"/><rect y="554.3" width="2400" height="19.8" fill="#7c5c30" opacity="0.023"/><rect y="587.3" width="2400" height="23.4" fill="#7c5c30" opacity="0.036"/><rect y="626.2" width="2400" height="25.3" fill="#7c5c30" opacity="0.048"/><rect y="668.3" width="2400" height="24.8" fill="#7c5c30" opacity="0.030"/><rect y="709.7" width="2400" height="25.2" fill="#7c5c30" opacity="0.036"/><rect y="751.7" width="2400" height="22" fill="#7c5c30" opacity="0.040"/><rect y="788.3" width="2400" height="12.8" fill="#7c5c30" opacity="0.050"/><rect y="809.6" width="2400" height="26.7" fill="#7c5c30" opacity="0.038"/><rect y="854.1" width="2400" height="24" fill="#7c5c30" opacity="0.039"/><rect y="894.2" width="2400" height="26.4" fill="#7c5c30" opacity="0.041"/><rect y="938.1" width="2400" height="16.9" fill="#7c5c30" opacity="0.033"/><rect y="966.3" width="2400" height="27.2" fill="#7c5c30" opacity="0.023"/><rect y="1011.7" width="2400" height="12.5" fill="#7c5c30" opacity="0.037"/><rect y="1032.6" width="2400" height="26.5" fill="#7c5c30" opacity="0.059"/><rect y="1076.7" width="2400" height="14.2" fill="#7c5c30" opacity="0.053"/><rect y="1100.4" width="2400" height="21.2" fill="#7c5c30" opacity="0.041"/><rect y="1135.8" width="2400" height="22.4" fill="#7c5c30" opacity="0.025"/><rect y="1173.1" width="2400" height="18.4" fill="#7c5c30" opacity="0.042"/><rect y="1203.8" width="2400" height="25.2" fill="#7c5c30" opacity="0.050"/><rect y="1245.7" width="2400" height="28.1" fill="#7c5c30" opacity="0.040"/><rect y="1292.6" width="2400" height="27.5" fill="#7c5c30" opacity="0.057"/><rect y="1338.4" width="2400" height="22.1" fill="#7c5c30" opacity="0.059"/><rect y="1375.2" width="2400" height="12.8" fill="#7c5c30" opacity="0.041"/><rect y="1396.5" width="2400" height="26.7" fill="#7c5c30" opacity="0.056"/><rect y="1441.1" width="2400" height="25.4" fill="#7c5c30" opacity="0.051"/><rect y="1483.4" width="2400" height="22.3" fill="#7c5c30" opacity="0.054"/><rect y="1520.6" width="2400" height="21" fill="#7c5c30" opacity="0.040"/><rect y="1555.5" width="2400" height="16.7" fill="#7c5c30" opacity="0.037"/><rect y="1583.3" width="2400" height="14.6" fill="#7c5c30" opacity="0.022"/><rect y="1607.7" width="2400" height="20.1" fill="#7c5c30" opacity="0.029"/><rect y="1641.2" width="2400" height="17.3" fill="#7c5c30" opacity="0.044"/><rect y="1670" width="2400" height="20" fill="#7c5c30" opacity="0.027"/><rect y="1703.3" width="2400" height="27.5" fill="#7c5c30" opacity="0.029"/><rect y="1749.1" width="2400" height="21.2" fill="#7c5c30" opacity="0.059"/><rect y="1784.5" width="2400" height="16.8" fill="#7c5c30" opacity="0.039"/><rect y="1812.4" width="2400" height="23.6" fill="#7c5c30" opacity="0.028"/><rect y="1851.8" width="2400" height="16.7" fill="#7c5c30" opacity="0.059"/><rect y="1879.7" width="2400" height="28.1" fill="#7c5c30" opacity="0.056"/><rect y="1926.5" width="2400" height="23.6" fill="#7c5c30" opacity="0.028"/><rect y="1965.9" width="2400" height="12.8" fill="#7c5c30" opacity="0.055"/><rect y="1987.1" width="2400" height="26.7" fill="#7c5c30" opacity="0.027"/><rect y="2031.6" width="2400" height="20.9" fill="#7c5c30" opacity="0.051"/><rect y="2066.5" width="2400" height="13.8" fill="#7c5c30" opacity="0.023"/><rect y="2089.4" width="2400" height="17.7" fill="#7c5c30" opacity="0.040"/><rect y="2118.9" width="2400" height="20" fill="#7c5c30" opacity="0.035"/><rect y="2152.1" width="2400" height="18.3" fill="#7c5c30" opacity="0.027"/><rect y="2182.7" width="2400" height="17" fill="#7c5c30" opacity="0.026"/><rect y="2211.1" width="2400" height="20.7" fill="#7c5c30" opacity="0.054"/><rect y="2245.5" width="2400" height="14.4" fill="#7c5c30" opacity="0.042"/><rect y="2269.5" width="2400" height="23.8" fill="#7c5c30" opacity="0.030"/><rect y="2309.2" width="2400" height="24.5" fill="#7c5c30" opacity="0.042"/><rect y="2350.1" width="2400" height="13.9" fill="#7c5c30" opacity="0.037"/><rect y="2373.3" width="2400" height="16.6" fill="#7c5c30" opacity="0.032"/><rect y="2401" width="2400" height="20" fill="#7c5c30" opacity="0.032"/><rect y="2434.3" width="2400" height="12.2" fill="#7c5c30" opacity="0.024"/><rect y="2454.6" width="2400" height="28.2" fill="#7c5c30" opacity="0.027"/><rect y="2501.7" width="2400" height="24" fill="#7c5c30" opacity="0.040"/><rect y="2541.7" width="2400" height="12.8" fill="#7c5c30" opacity="0.030"/><rect y="2563.1" width="2400" height="27.4" fill="#7c5c30" opacity="0.047"/><rect y="2608.7" width="2400" height="27.8" fill="#7c5c30" opacity="0.059"/><rect y="2655.1" width="2400" height="23.1" fill="#7c5c30" opacity="0.058"/><rect y="2693.6" width="2400" height="23.4" fill="#7c5c30" opacity="0.058"/><rect y="2732.6" width="2400" height="24.5" fill="#7c5c30" opacity="0.055"/><rect y="2773.4" width="2400" height="27.7" fill="#7c5c30" opacity="0.031"/><rect y="2819.6" width="2400" height="15.6" fill="#7c5c30" opacity="0.024"/><rect y="2845.7" width="2400" height="15" fill="#7c5c30" opacity="0.030"/><rect y="2870.8" width="2400" height="21.7" fill="#7c5c30" opacity="0.051"/><rect y="2907" width="2400" height="28" fill="#7c5c30" opacity="0.028"/><rect y="2953.7" width="2400" height="13.4" fill="#7c5c30" opacity="0.051"/><rect y="2976" width="2400" height="13.1" fill="#7c5c30" opacity="0.052"/><rect y="2997.7" width="2400" height="23.4" fill="#7c5c30" opacity="0.023"/><g filter="url(#a22-warp)"><rect x="210" y="300" width="1980" height="8.9" fill="#2e2a22"/><rect x="210" y="308.4" width="1980" height="8.9" fill="#2f5575"/><rect x="210" y="316.8" width="1980" height="8.9" fill="#2e2a22"/><rect x="210" y="325.2" width="1980" height="8.9" fill="#b39d70"/><rect x="210" y="333.6" width="1980" height="8.9" fill="#2e2a22"/><rect x="210" y="885" width="1980" height="8.9" fill="#2e2a22"/><rect x="210" y="893.4" width="1980" height="8.9" fill="#2f5575"/><rect x="210" y="901.8" width="1980" height="8.9" fill="#2e2a22"/><rect x="210" y="910.2" width="1980" height="8.9" fill="#b39d70"/><rect x="210" y="918.6" width="1980" height="8.9" fill="#2e2a22"/><rect x="210" y="1470" width="1980" height="8.9" fill="#2e2a22"/><rect x="210" y="1478.4" width="1980" height="8.9" fill="#2f5575"/><rect x="210" y="1486.8" width="1980" height="8.9" fill="#2e2a22"/><rect x="210" y="1495.2" width="1980" height="8.9" fill="#b39d70"/><rect x="210" y="1503.6" width="1980" height="8.9" fill="#2e2a22"/><rect x="210" y="2055" width="1980" height="8.9" fill="#2e2a22"/><rect x="210" y="2063.4" width="1980" height="8.9" fill="#2f5575"/><rect x="210" y="2071.8" width="1980" height="8.9" fill="#2e2a22"/><rect x="210" y="2080.2" width="1980" height="8.9" fill="#b39d70"/><rect x="210" y="2088.6" width="1980" height="8.9" fill="#2e2a22"/><rect x="210" y="2640" width="1980" height="8.9" fill="#2e2a22"/><rect x="210" y="2648.4" width="1980" height="8.9" fill="#2f5575"/><rect x="210" y="2656.8" width="1980" height="8.9" fill="#2e2a22"/><rect x="210" y="2665.2" width="1980" height="8.9" fill="#b39d70"/><rect x="210" y="2673.6" width="1980" height="8.9" fill="#2e2a22"/><path d="M0 0 Q 73.9 -114.9 0 -302.3 Q -73.9 -114.9 0 0 Z" fill="#2e2a22" opacity="1" transform="translate(408 809.7) rotate(-58)"/><path d="M0 0 Q 73.9 -131.3 0 -345.5 Q -73.9 -131.3 0 0 Z" fill="#2f5575" opacity="1" transform="translate(408 809.7) rotate(-34.8)"/><path d="M0 0 Q 73.9 -147.8 0 -388.8 Q -73.9 -147.8 0 0 Z" fill="#2e2a22" opacity="1" transform="translate(408 809.7) rotate(-11.6)"/><path d="M0 0 Q 73.9 -147.8 0 -388.8 Q -73.9 -147.8 0 0 Z" fill="#2f5575" opacity="1" transform="translate(408 809.7) rotate(11.6)"/><path d="M0 0 Q 73.9 -131.3 0 -345.5 Q -73.9 -131.3 0 0 Z" fill="#2e2a22" opacity="1" transform="translate(408 809.7) rotate(34.8)"/><path d="M0 0 Q 73.9 -114.9 0 -302.3 Q -73.9 -114.9 0 0 Z" fill="#2f5575" opacity="1" transform="translate(408 809.7) rotate(58)"/><path d="M284.9,809.7 Q408,949.3 531.1,809.7 Z" fill="#2e2a22"/><path d="M0 0 Q 58.5 -111.2 0 -292.5 Q -58.5 -111.2 0 0 Z" fill="#2f5575" opacity="1" transform="translate(804 809.7) rotate(0)"/><line x1="804" y1="809.7" x2="804" y2="856.5" stroke="#2e2a22" stroke-width="18.3"/><path d="M0 0 Q 69.7 -108.4 0 -285.3 Q -69.7 -108.4 0 0 Z" fill="#2e2a22" opacity="1" transform="translate(1200 809.7) rotate(-58)"/><path d="M0 0 Q 69.7 -127.8 0 -336.3 Q -69.7 -127.8 0 0 Z" fill="#2f5575" opacity="1" transform="translate(1200 809.7) rotate(-29)"/><path d="M0 0 Q 69.7 -147.2 0 -387.4 Q -69.7 -147.2 0 0 Z" fill="#2e2a22" opacity="1" transform="translate(1200 809.7) rotate(0)"/><path d="M0 0 Q 69.7 -127.8 0 -336.3 Q -69.7 -127.8 0 0 Z" fill="#2f5575" opacity="1" transform="translate(1200 809.7) rotate(29)"/><path d="M0 0 Q 69.7 -108.4 0 -285.3 Q -69.7 -108.4 0 0 Z" fill="#2e2a22" opacity="1" transform="translate(1200 809.7) rotate(58)"/><path d="M1083.8,809.7 Q1200,941.4 1316.2,809.7 Z" fill="#2e2a22"/><path d="M0 0 Q 66.6 -126.6 0 -333.2 Q -66.6 -126.6 0 0 Z" fill="#2f5575" opacity="1" transform="translate(1596 809.7) rotate(0)"/><line x1="1596" y1="809.7" x2="1596" y2="856.5" stroke="#2e2a22" stroke-width="20.8"/><path d="M0 0 Q 68.5 -106.4 0 -280 Q -68.5 -106.4 0 0 Z" fill="#2e2a22" opacity="1" transform="translate(1992 809.7) rotate(-58)"/><path d="M0 0 Q 68.5 -125.5 0 -330.2 Q -68.5 -125.5 0 0 Z" fill="#2f5575" opacity="1" transform="translate(1992 809.7) rotate(-29)"/><path d="M0 0 Q 68.5 -144.5 0 -380.3 Q -68.5 -144.5 0 0 Z" fill="#2e2a22" opacity="1" transform="translate(1992 809.7) rotate(0)"/><path d="M0 0 Q 68.5 -125.5 0 -330.2 Q -68.5 -125.5 0 0 Z" fill="#2f5575" opacity="1" transform="translate(1992 809.7) rotate(29)"/><path d="M0 0 Q 68.5 -106.4 0 -280 Q -68.5 -106.4 0 0 Z" fill="#2e2a22" opacity="1" transform="translate(1992 809.7) rotate(58)"/><path d="M1877.9,809.7 Q1992,939 2106.1,809.7 Z" fill="#2e2a22"/><line x1="457.5" y1="1394.7" x2="457.5" y2="1187.3" stroke="#2e2a22" stroke-width="22.6"/><line x1="457.5" y1="1187.3" x2="308.4" y2="1114.6" stroke="#2e2a22" stroke-width="17" stroke-linecap="round"/><circle cx="308.4" cy="1114.6" r="17" fill="#2f5575"/><line x1="457.5" y1="1187.3" x2="321.6" y2="1064.9" stroke="#2e2a22" stroke-width="17" stroke-linecap="round"/><circle cx="321.6" cy="1064.9" r="17" fill="#2f5575"/><line x1="457.5" y1="1187.3" x2="351.6" y2="1017.8" stroke="#2e2a22" stroke-width="17" stroke-linecap="round"/><circle cx="351.6" cy="1017.8" r="17" fill="#2f5575"/><line x1="457.5" y1="1187.3" x2="397.7" y2="978.9" stroke="#2e2a22" stroke-width="17" stroke-linecap="round"/><circle cx="397.7" cy="978.9" r="17" fill="#2f5575"/><line x1="457.5" y1="1187.3" x2="457.5" y2="953.5" stroke="#2e2a22" stroke-width="17" stroke-linecap="round"/><circle cx="457.5" cy="953.5" r="17" fill="#2f5575"/><line x1="457.5" y1="1187.3" x2="517.3" y2="978.9" stroke="#2e2a22" stroke-width="17" stroke-linecap="round"/><circle cx="517.3" cy="978.9" r="17" fill="#2f5575"/><line x1="457.5" y1="1187.3" x2="563.4" y2="1017.8" stroke="#2e2a22" stroke-width="17" stroke-linecap="round"/><circle cx="563.4" cy="1017.8" r="17" fill="#2f5575"/><line x1="457.5" y1="1187.3" x2="593.4" y2="1064.9" stroke="#2e2a22" stroke-width="17" stroke-linecap="round"/><circle cx="593.4" cy="1064.9" r="17" fill="#2f5575"/><line x1="457.5" y1="1187.3" x2="606.6" y2="1114.6" stroke="#2e2a22" stroke-width="17" stroke-linecap="round"/><circle cx="606.6" cy="1114.6" r="17" fill="#2f5575"/><line x1="952.5" y1="1394.7" x2="952.5" y2="1175.8" stroke="#2e2a22" stroke-width="23.9"/><line x1="952.5" y1="1175.8" x2="795.1" y2="1099" stroke="#2e2a22" stroke-width="17.9" stroke-linecap="round"/><circle cx="795.1" cy="1099" r="17.9" fill="#2f5575"/><line x1="952.5" y1="1175.8" x2="809" y2="1046.6" stroke="#2e2a22" stroke-width="17.9" stroke-linecap="round"/><circle cx="809" cy="1046.6" r="17.9" fill="#2f5575"/><line x1="952.5" y1="1175.8" x2="840.7" y2="996.8" stroke="#2e2a22" stroke-width="17.9" stroke-linecap="round"/><circle cx="840.7" cy="996.8" r="17.9" fill="#2f5575"/><line x1="952.5" y1="1175.8" x2="889.4" y2="955.7" stroke="#2e2a22" stroke-width="17.9" stroke-linecap="round"/><circle cx="889.4" cy="955.7" r="17.9" fill="#2f5575"/><line x1="952.5" y1="1175.8" x2="952.5" y2="929" stroke="#2e2a22" stroke-width="17.9" stroke-linecap="round"/><circle cx="952.5" cy="929" r="17.9" fill="#2f5575"/><line x1="952.5" y1="1175.8" x2="1015.6" y2="955.7" stroke="#2e2a22" stroke-width="17.9" stroke-linecap="round"/><circle cx="1015.6" cy="955.7" r="17.9" fill="#2f5575"/><line x1="952.5" y1="1175.8" x2="1064.3" y2="996.8" stroke="#2e2a22" stroke-width="17.9" stroke-linecap="round"/><circle cx="1064.3" cy="996.8" r="17.9" fill="#2f5575"/><line x1="952.5" y1="1175.8" x2="1096" y2="1046.6" stroke="#2e2a22" stroke-width="17.9" stroke-linecap="round"/><circle cx="1096" cy="1046.6" r="17.9" fill="#2f5575"/><line x1="952.5" y1="1175.8" x2="1109.9" y2="1099" stroke="#2e2a22" stroke-width="17.9" stroke-linecap="round"/><circle cx="1109.9" cy="1099" r="17.9" fill="#2f5575"/><line x1="1447.5" y1="1394.7" x2="1447.5" y2="1192.5" stroke="#2e2a22" stroke-width="22.1"/><line x1="1447.5" y1="1192.5" x2="1302.1" y2="1121.6" stroke="#2e2a22" stroke-width="16.5" stroke-linecap="round"/><circle cx="1302.1" cy="1121.6" r="16.5" fill="#2f5575"/><line x1="1447.5" y1="1192.5" x2="1315" y2="1073.2" stroke="#2e2a22" stroke-width="16.5" stroke-linecap="round"/><circle cx="1315" cy="1073.2" r="16.5" fill="#2f5575"/><line x1="1447.5" y1="1192.5" x2="1344.2" y2="1027.3" stroke="#2e2a22" stroke-width="16.5" stroke-linecap="round"/><circle cx="1344.2" cy="1027.3" r="16.5" fill="#2f5575"/><line x1="1447.5" y1="1192.5" x2="1389.2" y2="989.3" stroke="#2e2a22" stroke-width="16.5" stroke-linecap="round"/><circle cx="1389.2" cy="989.3" r="16.5" fill="#2f5575"/><line x1="1447.5" y1="1192.5" x2="1447.5" y2="964.6" stroke="#2e2a22" stroke-width="16.5" stroke-linecap="round"/><circle cx="1447.5" cy="964.6" r="16.5" fill="#2f5575"/><line x1="1447.5" y1="1192.5" x2="1505.8" y2="989.3" stroke="#2e2a22" stroke-width="16.5" stroke-linecap="round"/><circle cx="1505.8" cy="989.3" r="16.5" fill="#2f5575"/><line x1="1447.5" y1="1192.5" x2="1550.8" y2="1027.3" stroke="#2e2a22" stroke-width="16.5" stroke-linecap="round"/><circle cx="1550.8" cy="1027.3" r="16.5" fill="#2f5575"/><line x1="1447.5" y1="1192.5" x2="1580" y2="1073.2" stroke="#2e2a22" stroke-width="16.5" stroke-linecap="round"/><circle cx="1580" cy="1073.2" r="16.5" fill="#2f5575"/><line x1="1447.5" y1="1192.5" x2="1592.9" y2="1121.6" stroke="#2e2a22" stroke-width="16.5" stroke-linecap="round"/><circle cx="1592.9" cy="1121.6" r="16.5" fill="#2f5575"/><line x1="1942.5" y1="1394.7" x2="1942.5" y2="1184.8" stroke="#2e2a22" stroke-width="22.9"/><line x1="1942.5" y1="1184.8" x2="1791.6" y2="1111.2" stroke="#2e2a22" stroke-width="17.2" stroke-linecap="round"/><circle cx="1791.6" cy="1111.2" r="17.2" fill="#2f5575"/><line x1="1942.5" y1="1184.8" x2="1804.9" y2="1060.9" stroke="#2e2a22" stroke-width="17.2" stroke-linecap="round"/><circle cx="1804.9" cy="1060.9" r="17.2" fill="#2f5575"/><line x1="1942.5" y1="1184.8" x2="1835.3" y2="1013.2" stroke="#2e2a22" stroke-width="17.2" stroke-linecap="round"/><circle cx="1835.3" cy="1013.2" r="17.2" fill="#2f5575"/><line x1="1942.5" y1="1184.8" x2="1882" y2="973.8" stroke="#2e2a22" stroke-width="17.2" stroke-linecap="round"/><circle cx="1882" cy="973.8" r="17.2" fill="#2f5575"/><line x1="1942.5" y1="1184.8" x2="1942.5" y2="948.2" stroke="#2e2a22" stroke-width="17.2" stroke-linecap="round"/><circle cx="1942.5" cy="948.2" r="17.2" fill="#2f5575"/><line x1="1942.5" y1="1184.8" x2="2003" y2="973.8" stroke="#2e2a22" stroke-width="17.2" stroke-linecap="round"/><circle cx="2003" cy="973.8" r="17.2" fill="#2f5575"/><line x1="1942.5" y1="1184.8" x2="2049.7" y2="1013.2" stroke="#2e2a22" stroke-width="17.2" stroke-linecap="round"/><circle cx="2049.7" cy="1013.2" r="17.2" fill="#2f5575"/><line x1="1942.5" y1="1184.8" x2="2080.1" y2="1060.9" stroke="#2e2a22" stroke-width="17.2" stroke-linecap="round"/><circle cx="2080.1" cy="1060.9" r="17.2" fill="#2f5575"/><line x1="1942.5" y1="1184.8" x2="2093.4" y2="1111.2" stroke="#2e2a22" stroke-width="17.2" stroke-linecap="round"/><circle cx="2093.4" cy="1111.2" r="17.2" fill="#2f5575"/><path d="M0 0 Q 69 -107.3 0 -282.4 Q -69 -107.3 0 0 Z" fill="#2e2a22" opacity="1" transform="translate(408 1979.7) rotate(-58)"/><path d="M0 0 Q 69 -126.5 0 -332.9 Q -69 -126.5 0 0 Z" fill="#2f5575" opacity="1" transform="translate(408 1979.7) rotate(-29)"/><path d="M0 0 Q 69 -145.7 0 -383.4 Q -69 -145.7 0 0 Z" fill="#2e2a22" opacity="1" transform="translate(408 1979.7) rotate(0)"/><path d="M0 0 Q 69 -126.5 0 -332.9 Q -69 -126.5 0 0 Z" fill="#2f5575" opacity="1" transform="translate(408 1979.7) rotate(29)"/><path d="M0 0 Q 69 -107.3 0 -282.4 Q -69 -107.3 0 0 Z" fill="#2e2a22" opacity="1" transform="translate(408 1979.7) rotate(58)"/><path d="M293,1979.7 Q408,2110.1 523,1979.7 Z" fill="#2e2a22"/><path d="M0 0 Q 64.1 -121.7 0 -320.3 Q -64.1 -121.7 0 0 Z" fill="#2f5575" opacity="1" transform="translate(804 1979.7) rotate(0)"/><line x1="804" y1="1979.7" x2="804" y2="2026.5" stroke="#2e2a22" stroke-width="20"/><path d="M0 0 Q 73.6 -114.4 0 -301.1 Q -73.6 -114.4 0 0 Z" fill="#2e2a22" opacity="1" transform="translate(1200 1979.7) rotate(-58)"/><path d="M0 0 Q 73.6 -130.8 0 -344.3 Q -73.6 -130.8 0 0 Z" fill="#2f5575" opacity="1" transform="translate(1200 1979.7) rotate(-34.8)"/><path d="M0 0 Q 73.6 -147.2 0 -387.4 Q -73.6 -147.2 0 0 Z" fill="#2e2a22" opacity="1" transform="translate(1200 1979.7) rotate(-11.6)"/><path d="M0 0 Q 73.6 -147.2 0 -387.4 Q -73.6 -147.2 0 0 Z" fill="#2f5575" opacity="1" transform="translate(1200 1979.7) rotate(11.6)"/><path d="M0 0 Q 73.6 -130.8 0 -344.3 Q -73.6 -130.8 0 0 Z" fill="#2e2a22" opacity="1" transform="translate(1200 1979.7) rotate(34.8)"/><path d="M0 0 Q 73.6 -114.4 0 -301.1 Q -73.6 -114.4 0 0 Z" fill="#2f5575" opacity="1" transform="translate(1200 1979.7) rotate(58)"/><path d="M1077.3,1979.7 Q1200,2118.7 1322.7,1979.7 Z" fill="#2e2a22"/><path d="M0 0 Q 67.2 -127.8 0 -336.2 Q -67.2 -127.8 0 0 Z" fill="#2f5575" opacity="1" transform="translate(1596 1979.7) rotate(0)"/><line x1="1596" y1="1979.7" x2="1596" y2="2026.5" stroke="#2e2a22" stroke-width="21"/><path d="M0 0 Q 67.2 -104.5 0 -274.9 Q -67.2 -104.5 0 0 Z" fill="#2e2a22" opacity="1" transform="translate(1992 1979.7) rotate(-58)"/><path d="M0 0 Q 67.2 -119.4 0 -314.2 Q -67.2 -119.4 0 0 Z" fill="#2f5575" opacity="1" transform="translate(1992 1979.7) rotate(-34.8)"/><path d="M0 0 Q 67.2 -134.4 0 -353.6 Q -67.2 -134.4 0 0 Z" fill="#2e2a22" opacity="1" transform="translate(1992 1979.7) rotate(-11.6)"/><path d="M0 0 Q 67.2 -134.4 0 -353.6 Q -67.2 -134.4 0 0 Z" fill="#2f5575" opacity="1" transform="translate(1992 1979.7) rotate(11.6)"/><path d="M0 0 Q 67.2 -119.4 0 -314.2 Q -67.2 -119.4 0 0 Z" fill="#2e2a22" opacity="1" transform="translate(1992 1979.7) rotate(34.8)"/><path d="M0 0 Q 67.2 -104.5 0 -274.9 Q -67.2 -104.5 0 0 Z" fill="#2f5575" opacity="1" transform="translate(1992 1979.7) rotate(58)"/><path d="M1880,1979.7 Q1992,2106.6 2104,1979.7 Z" fill="#2e2a22"/><line x1="408" y1="2564.7" x2="408" y2="2358.7" stroke="#2e2a22" stroke-width="22.5"/><line x1="408" y1="2358.7" x2="259.9" y2="2286.5" stroke="#2e2a22" stroke-width="16.9" stroke-linecap="round"/><circle cx="259.9" cy="2286.5" r="16.9" fill="#2f5575"/><line x1="408" y1="2358.7" x2="273" y2="2237.2" stroke="#2e2a22" stroke-width="16.9" stroke-linecap="round"/><circle cx="273" cy="2237.2" r="16.9" fill="#2f5575"/><line x1="408" y1="2358.7" x2="302.8" y2="2190.4" stroke="#2e2a22" stroke-width="16.9" stroke-linecap="round"/><circle cx="302.8" cy="2190.4" r="16.9" fill="#2f5575"/><line x1="408" y1="2358.7" x2="348.6" y2="2151.7" stroke="#2e2a22" stroke-width="16.9" stroke-linecap="round"/><circle cx="348.6" cy="2151.7" r="16.9" fill="#2f5575"/><line x1="408" y1="2358.7" x2="408" y2="2126.5" stroke="#2e2a22" stroke-width="16.9" stroke-linecap="round"/><circle cx="408" cy="2126.5" r="16.9" fill="#2f5575"/><line x1="408" y1="2358.7" x2="467.4" y2="2151.7" stroke="#2e2a22" stroke-width="16.9" stroke-linecap="round"/><circle cx="467.4" cy="2151.7" r="16.9" fill="#2f5575"/><line x1="408" y1="2358.7" x2="513.2" y2="2190.4" stroke="#2e2a22" stroke-width="16.9" stroke-linecap="round"/><circle cx="513.2" cy="2190.4" r="16.9" fill="#2f5575"/><line x1="408" y1="2358.7" x2="543" y2="2237.2" stroke="#2e2a22" stroke-width="16.9" stroke-linecap="round"/><circle cx="543" cy="2237.2" r="16.9" fill="#2f5575"/><line x1="408" y1="2358.7" x2="556.1" y2="2286.5" stroke="#2e2a22" stroke-width="16.9" stroke-linecap="round"/><circle cx="556.1" cy="2286.5" r="16.9" fill="#2f5575"/><line x1="804" y1="2564.7" x2="804" y2="2336.5" stroke="#2e2a22" stroke-width="24.9"/><line x1="804" y1="2336.5" x2="639.9" y2="2256.5" stroke="#2e2a22" stroke-width="18.7" stroke-linecap="round"/><circle cx="639.9" cy="2256.5" r="18.7" fill="#2f5575"/><line x1="804" y1="2336.5" x2="654.5" y2="2201.9" stroke="#2e2a22" stroke-width="18.7" stroke-linecap="round"/><circle cx="654.5" cy="2201.9" r="18.7" fill="#2f5575"/><line x1="804" y1="2336.5" x2="687.5" y2="2150" stroke="#2e2a22" stroke-width="18.7" stroke-linecap="round"/><circle cx="687.5" cy="2150" r="18.7" fill="#2f5575"/><line x1="804" y1="2336.5" x2="738.2" y2="2107.2" stroke="#2e2a22" stroke-width="18.7" stroke-linecap="round"/><circle cx="738.2" cy="2107.2" r="18.7" fill="#2f5575"/><line x1="804" y1="2336.5" x2="804" y2="2079.3" stroke="#2e2a22" stroke-width="18.7" stroke-linecap="round"/><circle cx="804" cy="2079.3" r="18.7" fill="#2f5575"/><line x1="804" y1="2336.5" x2="869.8" y2="2107.2" stroke="#2e2a22" stroke-width="18.7" stroke-linecap="round"/><circle cx="869.8" cy="2107.2" r="18.7" fill="#2f5575"/><line x1="804" y1="2336.5" x2="920.5" y2="2150" stroke="#2e2a22" stroke-width="18.7" stroke-linecap="round"/><circle cx="920.5" cy="2150" r="18.7" fill="#2f5575"/><line x1="804" y1="2336.5" x2="953.5" y2="2201.9" stroke="#2e2a22" stroke-width="18.7" stroke-linecap="round"/><circle cx="953.5" cy="2201.9" r="18.7" fill="#2f5575"/><line x1="804" y1="2336.5" x2="968.1" y2="2256.5" stroke="#2e2a22" stroke-width="18.7" stroke-linecap="round"/><circle cx="968.1" cy="2256.5" r="18.7" fill="#2f5575"/><line x1="1200" y1="2564.7" x2="1200" y2="2362" stroke="#2e2a22" stroke-width="22.1"/><line x1="1200" y1="2362" x2="1054.2" y2="2290.9" stroke="#2e2a22" stroke-width="16.6" stroke-linecap="round"/><circle cx="1054.2" cy="2290.9" r="16.6" fill="#2f5575"/><line x1="1200" y1="2362" x2="1067.2" y2="2242.4" stroke="#2e2a22" stroke-width="16.6" stroke-linecap="round"/><circle cx="1067.2" cy="2242.4" r="16.6" fill="#2f5575"/><line x1="1200" y1="2362" x2="1096.5" y2="2196.3" stroke="#2e2a22" stroke-width="16.6" stroke-linecap="round"/><circle cx="1096.5" cy="2196.3" r="16.6" fill="#2f5575"/><line x1="1200" y1="2362" x2="1141.6" y2="2158.3" stroke="#2e2a22" stroke-width="16.6" stroke-linecap="round"/><circle cx="1141.6" cy="2158.3" r="16.6" fill="#2f5575"/><line x1="1200" y1="2362" x2="1200" y2="2133.5" stroke="#2e2a22" stroke-width="16.6" stroke-linecap="round"/><circle cx="1200" cy="2133.5" r="16.6" fill="#2f5575"/><line x1="1200" y1="2362" x2="1258.4" y2="2158.3" stroke="#2e2a22" stroke-width="16.6" stroke-linecap="round"/><circle cx="1258.4" cy="2158.3" r="16.6" fill="#2f5575"/><line x1="1200" y1="2362" x2="1303.5" y2="2196.3" stroke="#2e2a22" stroke-width="16.6" stroke-linecap="round"/><circle cx="1303.5" cy="2196.3" r="16.6" fill="#2f5575"/><line x1="1200" y1="2362" x2="1332.8" y2="2242.4" stroke="#2e2a22" stroke-width="16.6" stroke-linecap="round"/><circle cx="1332.8" cy="2242.4" r="16.6" fill="#2f5575"/><line x1="1200" y1="2362" x2="1345.8" y2="2290.9" stroke="#2e2a22" stroke-width="16.6" stroke-linecap="round"/><circle cx="1345.8" cy="2290.9" r="16.6" fill="#2f5575"/><line x1="1596" y1="2564.7" x2="1596" y2="2342.6" stroke="#2e2a22" stroke-width="24.2"/><line x1="1596" y1="2342.6" x2="1436.3" y2="2264.8" stroke="#2e2a22" stroke-width="18.2" stroke-linecap="round"/><circle cx="1436.3" cy="2264.8" r="18.2" fill="#2f5575"/><line x1="1596" y1="2342.6" x2="1450.5" y2="2211.6" stroke="#2e2a22" stroke-width="18.2" stroke-linecap="round"/><circle cx="1450.5" cy="2211.6" r="18.2" fill="#2f5575"/><line x1="1596" y1="2342.6" x2="1482.6" y2="2161.2" stroke="#2e2a22" stroke-width="18.2" stroke-linecap="round"/><circle cx="1482.6" cy="2161.2" r="18.2" fill="#2f5575"/><line x1="1596" y1="2342.6" x2="1532" y2="2119.5" stroke="#2e2a22" stroke-width="18.2" stroke-linecap="round"/><circle cx="1532" cy="2119.5" r="18.2" fill="#2f5575"/><line x1="1596" y1="2342.6" x2="1596" y2="2092.3" stroke="#2e2a22" stroke-width="18.2" stroke-linecap="round"/><circle cx="1596" cy="2092.3" r="18.2" fill="#2f5575"/><line x1="1596" y1="2342.6" x2="1660" y2="2119.5" stroke="#2e2a22" stroke-width="18.2" stroke-linecap="round"/><circle cx="1660" cy="2119.5" r="18.2" fill="#2f5575"/><line x1="1596" y1="2342.6" x2="1709.4" y2="2161.2" stroke="#2e2a22" stroke-width="18.2" stroke-linecap="round"/><circle cx="1709.4" cy="2161.2" r="18.2" fill="#2f5575"/><line x1="1596" y1="2342.6" x2="1741.5" y2="2211.6" stroke="#2e2a22" stroke-width="18.2" stroke-linecap="round"/><circle cx="1741.5" cy="2211.6" r="18.2" fill="#2f5575"/><line x1="1596" y1="2342.6" x2="1755.7" y2="2264.8" stroke="#2e2a22" stroke-width="18.2" stroke-linecap="round"/><circle cx="1755.7" cy="2264.8" r="18.2" fill="#2f5575"/><line x1="1992" y1="2564.7" x2="1992" y2="2361" stroke="#2e2a22" stroke-width="22.2"/><line x1="1992" y1="2361" x2="1845.5" y2="2289.5" stroke="#2e2a22" stroke-width="16.7" stroke-linecap="round"/><circle cx="1845.5" cy="2289.5" r="16.7" fill="#2f5575"/><line x1="1992" y1="2361" x2="1858.5" y2="2240.8" stroke="#2e2a22" stroke-width="16.7" stroke-linecap="round"/><circle cx="1858.5" cy="2240.8" r="16.7" fill="#2f5575"/><line x1="1992" y1="2361" x2="1888" y2="2194.5" stroke="#2e2a22" stroke-width="16.7" stroke-linecap="round"/><circle cx="1888" cy="2194.5" r="16.7" fill="#2f5575"/><line x1="1992" y1="2361" x2="1933.3" y2="2156.2" stroke="#2e2a22" stroke-width="16.7" stroke-linecap="round"/><circle cx="1933.3" cy="2156.2" r="16.7" fill="#2f5575"/><line x1="1992" y1="2361" x2="1992" y2="2131.3" stroke="#2e2a22" stroke-width="16.7" stroke-linecap="round"/><circle cx="1992" cy="2131.3" r="16.7" fill="#2f5575"/><line x1="1992" y1="2361" x2="2050.7" y2="2156.2" stroke="#2e2a22" stroke-width="16.7" stroke-linecap="round"/><circle cx="2050.7" cy="2156.2" r="16.7" fill="#2f5575"/><line x1="1992" y1="2361" x2="2096" y2="2194.5" stroke="#2e2a22" stroke-width="16.7" stroke-linecap="round"/><circle cx="2096" cy="2194.5" r="16.7" fill="#2f5575"/><line x1="1992" y1="2361" x2="2125.5" y2="2240.8" stroke="#2e2a22" stroke-width="16.7" stroke-linecap="round"/><circle cx="2125.5" cy="2240.8" r="16.7" fill="#2f5575"/><line x1="1992" y1="2361" x2="2138.5" y2="2289.5" stroke="#2e2a22" stroke-width="16.7" stroke-linecap="round"/><circle cx="2138.5" cy="2289.5" r="16.7" fill="#2f5575"/><rect x="120" y="120" width="2160" height="2760" fill="none" stroke="#2e2a22" stroke-width="6" opacity="0.85"/></g><rect width="2400" height="3000" filter="url(#a22-mottle)" style="mix-blend-mode:multiply" opacity="0.5"/><rect width="2400" height="3000" filter="url(#a22-fade)" style="mix-blend-mode:screen" opacity="0.55"/><rect width="2400" height="3000" filter="url(#a22-grain)" style="mix-blend-mode:multiply" opacity="0.32"/><ellipse cx="1629.9" cy="388.4" rx="255.4" ry="152.7" fill="#6b4a22" opacity="0.040" filter="url(#a22-blur9)"/><ellipse cx="1673.4" cy="912.8" rx="200.8" ry="163.6" fill="#6b4a22" opacity="0.060" filter="url(#a22-blur9)"/><ellipse cx="920.6" cy="1951.7" rx="258.8" ry="217" fill="#6b4a22" opacity="0.033" filter="url(#a22-blur9)"/><ellipse cx="1159.8" cy="1852.9" rx="249.1" ry="163" fill="#6b4a22" opacity="0.043" filter="url(#a22-blur9)"/><rect x="0" width="18.5" height="3000" fill="#fff2d0" opacity="0.024"/><rect x="37" width="17.9" height="3000" fill="#fff2d0" opacity="0.016"/><rect x="72.8" width="24.5" height="3000" fill="#fff2d0" opacity="0.038"/><rect x="121.7" width="17.2" height="3000" fill="#fff2d0" opacity="0.023"/><rect x="156.2" width="16.6" height="3000" fill="#fff2d0" opacity="0.036"/><rect x="189.3" width="31.9" height="3000" fill="#fff2d0" opacity="0.043"/><rect x="253.1" width="32.4" height="3000" fill="#fff2d0" opacity="0.030"/><rect x="317.9" width="27.8" height="3000" fill="#fff2d0" opacity="0.022"/><rect x="373.5" width="16.1" height="3000" fill="#fff2d0" opacity="0.019"/><rect x="405.7" width="29.7" height="3000" fill="#fff2d0" opacity="0.035"/><rect x="465.2" width="19.7" height="3000" fill="#fff2d0" opacity="0.042"/><rect x="504.6" width="17.9" height="3000" fill="#fff2d0" opacity="0.025"/><rect x="540.4" width="18.9" height="3000" fill="#fff2d0" opacity="0.025"/><rect x="578.3" width="34.2" height="3000" fill="#fff2d0" opacity="0.043"/><rect x="646.6" width="16.4" height="3000" fill="#fff2d0" opacity="0.033"/><rect x="679.4" width="33.3" height="3000" fill="#fff2d0" opacity="0.026"/><rect x="746" width="22.2" height="3000" fill="#fff2d0" opacity="0.041"/><rect x="790.3" width="21.5" height="3000" fill="#fff2d0" opacity="0.032"/><rect x="833.3" width="20.6" height="3000" fill="#fff2d0" opacity="0.018"/><rect x="874.6" width="16.7" height="3000" fill="#fff2d0" opacity="0.022"/><rect x="908" width="19.7" height="3000" fill="#fff2d0" opacity="0.037"/><rect x="947.4" width="24.3" height="3000" fill="#fff2d0" opacity="0.020"/><rect x="995.9" width="32.3" height="3000" fill="#fff2d0" opacity="0.016"/><rect x="1060.5" width="19.5" height="3000" fill="#fff2d0" opacity="0.026"/><rect x="1099.5" width="34.1" height="3000" fill="#fff2d0" opacity="0.021"/><rect x="1167.7" width="20.8" height="3000" fill="#fff2d0" opacity="0.021"/><rect x="1209.2" width="32.1" height="3000" fill="#fff2d0" opacity="0.041"/><rect x="1273.3" width="32.9" height="3000" fill="#fff2d0" opacity="0.024"/><rect x="1339.2" width="23.1" height="3000" fill="#fff2d0" opacity="0.040"/><rect x="1385.5" width="24" height="3000" fill="#fff2d0" opacity="0.020"/><rect x="1433.4" width="27.1" height="3000" fill="#fff2d0" opacity="0.043"/><rect x="1487.6" width="18.4" height="3000" fill="#fff2d0" opacity="0.017"/><rect x="1524.3" width="31.5" height="3000" fill="#fff2d0" opacity="0.023"/><rect x="1587.3" width="26.1" height="3000" fill="#fff2d0" opacity="0.027"/><rect x="1639.5" width="19.8" height="3000" fill="#fff2d0" opacity="0.022"/><rect x="1679.2" width="28" height="3000" fill="#fff2d0" opacity="0.033"/><rect x="1735.3" width="23.3" height="3000" fill="#fff2d0" opacity="0.037"/><rect x="1781.9" width="22.3" height="3000" fill="#fff2d0" opacity="0.025"/><rect x="1826.5" width="24.2" height="3000" fill="#fff2d0" opacity="0.022"/><rect x="1875" width="29.8" height="3000" fill="#fff2d0" opacity="0.016"/><rect x="1934.7" width="23.4" height="3000" fill="#fff2d0" opacity="0.034"/><rect x="1981.4" width="27.1" height="3000" fill="#fff2d0" opacity="0.045"/><rect x="2035.7" width="22.3" height="3000" fill="#fff2d0" opacity="0.041"/><rect x="2080.3" width="33.2" height="3000" fill="#fff2d0" opacity="0.020"/><rect x="2146.7" width="31.6" height="3000" fill="#fff2d0" opacity="0.038"/><rect x="2210" width="18.5" height="3000" fill="#fff2d0" opacity="0.023"/><rect x="2247" width="24" height="3000" fill="#fff2d0" opacity="0.036"/><rect x="2295.1" width="25.6" height="3000" fill="#fff2d0" opacity="0.044"/><rect x="2346.4" width="33.5" height="3000" fill="#fff2d0" opacity="0.023"/><linearGradient id="a22-er" x1="0" x2="1" y1="0" y2="0"><stop offset="0" stop-color="#3a2a12" stop-opacity="0.22"/><stop offset="1" stop-color="#3a2a12" stop-opacity="0"/></linearGradient><rect x="0" y="0" width="90" height="3000" fill="url(#a22-er)"/><linearGradient id="a22-el" x1="1" x2="0" y1="0" y2="0"><stop offset="0" stop-color="#3a2a12" stop-opacity="0.22"/><stop offset="1" stop-color="#3a2a12" stop-opacity="0"/></linearGradient><rect x="2310" y="0" width="90" height="3000" fill="url(#a22-el)"/><linearGradient id="a22-ed" x1="0" x2="0" y1="0" y2="1"><stop offset="0" stop-color="#3a2a12" stop-opacity="0.22"/><stop offset="1" stop-color="#3a2a12" stop-opacity="0"/></linearGradient><rect x="0" y="0" width="2400" height="90" fill="url(#a22-ed)"/><linearGradient id="a22-eu" x1="0" x2="0" y1="1" y2="0"><stop offset="0" stop-color="#3a2a12" stop-opacity="0.22"/><stop offset="1" stop-color="#3a2a12" stop-opacity="0"/></linearGradient><rect x="0" y="2910" width="2400" height="90" fill="url(#a22-eu)"/><circle cx="919.7" cy="2735.9" r="13.7" fill="#8a5a2e" opacity="0.098"/><circle cx="1170" cy="1338.3" r="6.3" fill="#8a5a2e" opacity="0.106"/><circle cx="124.2" cy="2662.8" r="10.6" fill="#8a5a2e" opacity="0.127"/><circle cx="2032" cy="133.5" r="3.4" fill="#8a5a2e" opacity="0.098"/><circle cx="2016.2" cy="90.3" r="9.7" fill="#8a5a2e" opacity="0.103"/><circle cx="1612.9" cy="273.9" r="15" fill="#8a5a2e" opacity="0.046"/><circle cx="1454.3" cy="633.5" r="9.7" fill="#8a5a2e" opacity="0.117"/><circle cx="1562.7" cy="2474.8" r="12.9" fill="#8a5a2e" opacity="0.127"/><circle cx="1817.8" cy="2269.1" r="4.5" fill="#8a5a2e" opacity="0.075"/><circle cx="1947.6" cy="1416.9" r="7.8" fill="#8a5a2e" opacity="0.130"/><circle cx="1051.6" cy="588.4" r="15.9" fill="#8a5a2e" opacity="0.072"/><circle cx="1999.2" cy="1141.3" r="12.4" fill="#8a5a2e" opacity="0.113"/><circle cx="1307.4" cy="258.8" r="4.1" fill="#8a5a2e" opacity="0.095"/><rect width="2400" height="3000" fill="url(#a22-vig)"/></svg></svg>