<svg xmlns="http://www.w3.org/2000/svg" width="2400" height="1800" viewBox="0 0 2400 1800"><rect width="2400" height="1800" fill="#dfe4dc"/><rect y="1400" width="2400" height="400" fill="#c2a67e"/><line x1="60" y1="1400" x2="10" y2="1800" stroke="#00000015" stroke-width="5"/><line x1="260" y1="1400" x2="210" y2="1800" stroke="#00000015" stroke-width="5"/><line x1="460" y1="1400" x2="410" y2="1800" stroke="#00000015" stroke-width="5"/><line x1="660" y1="1400" x2="610" y2="1800" stroke="#00000015" stroke-width="5"/><line x1="860" y1="1400" x2="810" y2="1800" stroke="#00000015" stroke-width="5"/><line x1="1060" y1="1400" x2="1010" y2="1800" stroke="#00000015" stroke-width="5"/><line x1="1260" y1="1400" x2="1210" y2="1800" stroke="#00000015" stroke-width="5"/><line x1="1460" y1="1400" x2="1410" y2="1800" stroke="#00000015" stroke-width="5"/><line x1="1660" y1="1400" x2="1610" y2="1800" stroke="#00000015" stroke-width="5"/><line x1="1860" y1="1400" x2="1810" y2="1800" stroke="#00000015" stroke-width="5"/><line x1="2060" y1="1400" x2="2010" y2="1800" stroke="#00000015" stroke-width="5"/><line x1="2260" y1="1400" x2="2210" y2="1800" stroke="#00000015" stroke-width="5"/><rect x="180" y="260" width="900" height="620" fill="#8a6a48"/><rect x="215" y="295" width="830" height="550" fill="#41524a"/><line x1="280" y1="420" x2="760" y2="420" stroke="#ffffff66" stroke-width="9" stroke-linecap="round"/><line x1="280" y1="520" x2="620" y2="520" stroke="#ffffff44" stroke-width="9" stroke-linecap="round"/><circle cx="880" cy="560" r="90" fill="none" stroke="#ffffff55" stroke-width="8"/><rect x="215" y="845" width="830" height="22" fill="#6f5436"/><rect x="330" y="1240" width="640" height="60" rx="10" fill="#9c7449"/><rect x="370" y="1300" width="60" height="240" fill="#8a6540"/><rect x="870" y="1300" width="60" height="240" fill="#8a6540"/><rect x="430" y="1160" width="150" height="80" rx="8" fill="#8a6a4b"/><rect x="450" y="1120" width="150" height="40" rx="8" fill="#3d434d"/><circle cx="800" cy="1130" r="86" fill="#7fa3b8"/><path d="M760,1060 Q820,1100 780,1190 M740,1090 Q800,1120 850,1100" stroke="#5d8069" stroke-width="16" fill="none" stroke-linecap="round"/><circle cx="800" cy="1130" r="86" fill="none" stroke="#6b5233" stroke-width="7"/><line x1="800" y1="1216" x2="800" y2="1250" stroke="#6b5233" stroke-width="10"/><rect x="750" y="1244" width="100" height="14" rx="7" fill="#6b5233"/><rect x="1980" y="700" width="300" height="800" fill="#9c7449"/><rect x="2000" y="930" width="260" height="16" fill="#7c5a37"/><rect x="2020" y="790" width="36" height="140" fill="#b3502f"/><rect x="2066" y="802" width="36" height="128" fill="#39685c"/><rect x="2112" y="790" width="36" height="140" fill="#c9a227"/><rect x="2158" y="802" width="36" height="128" fill="#2c4661"/><rect x="2204" y="790" width="36" height="140" fill="#8a4423"/><rect x="2000" y="1180" width="260" height="16" fill="#7c5a37"/><rect x="2020" y="1040" width="36" height="140" fill="#39685c"/><rect x="2066" y="1052" width="36" height="128" fill="#c9a227"/><rect x="2112" y="1040" width="36" height="140" fill="#2c4661"/><rect x="2158" y="1052" width="36" height="128" fill="#8a4423"/><rect x="2204" y="1040" width="36" height="140" fill="#b3502f"/><rect x="2000" y="1430" width="260" height="16" fill="#7c5a37"/><rect x="2020" y="1290" width="36" height="140" fill="#c9a227"/><rect x="2066" y="1302" width="36" height="128" fill="#2c4661"/><rect x="2112" y="1290" width="36" height="140" fill="#8a4423"/><rect x="2158" y="1302" width="36" height="128" fill="#b3502f"/><rect x="2204" y="1290" width="36" height="140" fill="#39685c"/><defs><filter id="a54c-sh" x="-30%" y="-30%" width="160%" height="160%"><feGaussianBlur stdDeviation="16"/></filter></defs><rect x="1340.5" y="298.5" width="517" height="635" fill="#000" opacity="0.28" filter="url(#a54c-sh)"/><rect x="1326.5" y="276.5" width="517" height="635" fill="#3d342a"/><rect x="1341.8" y="291.8" width="486.4" height="604.5" fill="none" stroke="#00000055" stroke-width="3"/><rect x="1350" y="300" width="470" height="588" fill="#f6f2ea"/><svg x="1385.3" y="335.3" width="399.5" height="517.5" viewBox="0 0 2400 3000" preserveAspectRatio="xMidYMid slice"><rect width="2400" height="3000" fill="#2b2f36"/><radialGradient id="a54-vig" cx="50%" cy="42%" r="80%"><stop offset="55%" stop-color="#000" stop-opacity="0"/><stop offset="100%" stop-color="#000" stop-opacity="0.15"/></radialGradient><rect width="2400" height="3000" fill="url(#a54-vig)"/><circle cx="1999.5" cy="525.3" r="4" fill="#b3873e" opacity="0.076"/><circle cx="659" cy="2166.8" r="2" fill="#b3873e" opacity="0.037"/><circle cx="989.5" cy="865.7" r="2.6" fill="#b3873e" opacity="0.070"/><circle cx="1186.9" cy="1124.9" r="2.2" fill="#b3873e" opacity="0.041"/><circle cx="653.9" cy="746" r="2" fill="#b3873e" opacity="0.035"/><circle cx="1277.8" cy="1526.4" r="1.6" fill="#b3873e" opacity="0.056"/><circle cx="1830.8" cy="1453.3" r="3.2" fill="#b3873e" opacity="0.068"/><circle cx="1929.1" cy="1975.2" r="3.1" fill="#b3873e" opacity="0.037"/><circle cx="1219.8" cy="380.8" r="4.5" fill="#b3873e" opacity="0.058"/><circle cx="1619.8" cy="732.3" r="1.9" fill="#b3873e" opacity="0.047"/><circle cx="2291.6" cy="1647.5" r="2.5" fill="#b3873e" opacity="0.074"/><circle cx="93.4" cy="1422.6" r="2.2" fill="#b3873e" opacity="0.047"/><circle cx="1294.8" cy="447.9" r="4.2" fill="#b3873e" opacity="0.038"/><circle cx="303.5" cy="795.4" r="2.5" fill="#b3873e" opacity="0.033"/><circle cx="1468.6" cy="715.8" r="2.5" fill="#b3873e" opacity="0.070"/><circle cx="822.8" cy="2304.2" r="4.2" fill="#b3873e" opacity="0.073"/><circle cx="933.9" cy="455" r="2.5" fill="#b3873e" opacity="0.062"/><circle cx="652.8" cy="1412.8" r="1.6" fill="#b3873e" opacity="0.074"/><circle cx="137.1" cy="2334.7" r="3.4" fill="#b3873e" opacity="0.070"/><circle cx="1121.8" cy="1099.5" r="3.6" fill="#b3873e" opacity="0.047"/><circle cx="1806.3" cy="662.6" r="4" fill="#b3873e" opacity="0.054"/><circle cx="1499.1" cy="1098.7" r="4.1" fill="#b3873e" opacity="0.049"/><circle cx="1986.3" cy="621.9" r="4.2" fill="#b3873e" opacity="0.070"/><circle cx="1769" cy="1626.6" r="3" fill="#b3873e" opacity="0.052"/><circle cx="1477" cy="1476.6" r="1.9" fill="#b3873e" opacity="0.066"/><circle cx="2205.5" cy="763.2" r="4.1" fill="#b3873e" opacity="0.041"/><circle cx="1125.2" cy="2489.2" r="2.9" fill="#b3873e" opacity="0.038"/><circle cx="264" cy="2255.2" r="2.4" fill="#b3873e" opacity="0.040"/><circle cx="2148.1" cy="2823.7" r="2.1" fill="#b3873e" opacity="0.047"/><circle cx="2279.1" cy="1092.3" r="2.1" fill="#b3873e" opacity="0.034"/><circle cx="2106.3" cy="1099" r="4.4" fill="#b3873e" opacity="0.038"/><circle cx="45.6" cy="489.2" r="2.7" fill="#b3873e" opacity="0.074"/><circle cx="1132.5" cy="947.1" r="3.6" fill="#b3873e" opacity="0.040"/><circle cx="1450.6" cy="960.3" r="4.1" fill="#b3873e" opacity="0.040"/><circle cx="2090.6" cy="873.2" r="2.3" fill="#b3873e" opacity="0.037"/><circle cx="1856.6" cy="847.9" r="3.7" fill="#b3873e" opacity="0.065"/><circle cx="449" cy="1306.8" r="3.5" fill="#b3873e" opacity="0.049"/><circle cx="1895" cy="2478.6" r="2.9" fill="#b3873e" opacity="0.046"/><circle cx="2220.4" cy="83.7" r="4.4" fill="#b3873e" opacity="0.049"/><circle cx="1004" cy="2003.1" r="2.3" fill="#b3873e" opacity="0.051"/><circle cx="1653.1" cy="732.8" r="3.5" fill="#b3873e" opacity="0.040"/><circle cx="1722.8" cy="1980.9" r="4.3" fill="#b3873e" opacity="0.043"/><circle cx="43.1" cy="1265.8" r="2.1" fill="#b3873e" opacity="0.041"/><circle cx="201.1" cy="1976.5" r="3.2" fill="#b3873e" opacity="0.058"/><circle cx="2197.6" cy="1417.2" r="2.1" fill="#b3873e" opacity="0.071"/><circle cx="1302.1" cy="2921.2" r="3.1" fill="#b3873e" opacity="0.041"/><circle cx="1955.3" cy="1484.9" r="2.2" fill="#b3873e" opacity="0.046"/><circle cx="863.1" cy="514.4" r="3.1" fill="#b3873e" opacity="0.049"/><circle cx="729.7" cy="155.7" r="2.4" fill="#b3873e" opacity="0.052"/><circle cx="1834.6" cy="1162.9" r="2.6" fill="#b3873e" opacity="0.061"/><circle cx="329.6" cy="2537.6" r="3.2" fill="#b3873e" opacity="0.061"/><circle cx="1496.8" cy="1299.9" r="4.1" fill="#b3873e" opacity="0.032"/><circle cx="1580.3" cy="1411.3" r="2" fill="#b3873e" opacity="0.038"/><circle cx="1401.8" cy="653.2" r="1.8" fill="#b3873e" opacity="0.050"/><circle cx="426.5" cy="1211.2" r="3.9" fill="#b3873e" opacity="0.031"/><circle cx="312" cy="2482.5" r="2.1" fill="#b3873e" opacity="0.064"/><circle cx="979.7" cy="211.9" r="3.5" fill="#b3873e" opacity="0.033"/><circle cx="155.4" cy="2322.5" r="4.4" fill="#b3873e" opacity="0.032"/><circle cx="2253.8" cy="287.5" r="3.1" fill="#b3873e" opacity="0.045"/><circle cx="523.2" cy="821.4" r="2.9" fill="#b3873e" opacity="0.053"/><circle cx="994.2" cy="2427.3" r="2.8" fill="#b3873e" opacity="0.044"/><circle cx="447.6" cy="2447.5" r="4" fill="#b3873e" opacity="0.073"/><circle cx="1777.6" cy="258" r="3.8" fill="#b3873e" opacity="0.034"/><circle cx="440.9" cy="1197.6" r="2" fill="#b3873e" opacity="0.056"/><circle cx="1302.4" cy="583.9" r="3" fill="#b3873e" opacity="0.070"/><circle cx="2281.6" cy="2333" r="2" fill="#b3873e" opacity="0.057"/><circle cx="1038.5" cy="1655.1" r="2.7" fill="#b3873e" opacity="0.035"/><circle cx="1154.3" cy="167.3" r="1.7" fill="#b3873e" opacity="0.060"/><circle cx="1767.1" cy="744.2" r="3.7" fill="#b3873e" opacity="0.062"/><circle cx="252.5" cy="770.8" r="4.3" fill="#b3873e" opacity="0.060"/><circle cx="1075.4" cy="1834.4" r="1.8" fill="#b3873e" opacity="0.064"/><circle cx="120" cy="631.4" r="1.5" fill="#b3873e" opacity="0.060"/><circle cx="1067.5" cy="1623.7" r="3.1" fill="#b3873e" opacity="0.059"/><circle cx="1639.5" cy="1886.2" r="3.5" fill="#b3873e" opacity="0.067"/><circle cx="1871.7" cy="1327.2" r="2.5" fill="#b3873e" opacity="0.071"/><circle cx="1406.7" cy="802.6" r="4.4" fill="#b3873e" opacity="0.039"/><circle cx="1072.9" cy="1557.2" r="3.5" fill="#b3873e" opacity="0.032"/><circle cx="1577.5" cy="2842.1" r="3.2" fill="#b3873e" opacity="0.080"/><circle cx="328.4" cy="2609.5" r="4.5" fill="#b3873e" opacity="0.046"/><circle cx="1156.9" cy="2197.3" r="4" fill="#b3873e" opacity="0.064"/><path d="M2012.2,1831.6 Q1910.8,2143.1 1699,2365.4 Q1487.2,2587.7 1210.3,2588.2 Q933.4,2588.6 713.5,2389.9 Q493.7,2191.2 427.4,1855.6 Q361.1,1520 405.2,1177.8 Q449.3,835.6 699.1,649.2 Q949,462.9 1209.4,484.4 Q1469.8,506 1674.2,722.6 Q1878.6,939.3 1996.1,1229.6 Q2113.7,1520 2012.2,1831.6 Z" fill="#3d434d" stroke="#b3873e" stroke-width="10"/><clipPath id="a54-st"><path d="M2012.2,1831.6 Q1910.8,2143.1 1699,2365.4 Q1487.2,2587.7 1210.3,2588.2 Q933.4,2588.6 713.5,2389.9 Q493.7,2191.2 427.4,1855.6 Q361.1,1520 405.2,1177.8 Q449.3,835.6 699.1,649.2 Q949,462.9 1209.4,484.4 Q1469.8,506 1674.2,722.6 Q1878.6,939.3 1996.1,1229.6 Q2113.7,1520 2012.2,1831.6 Z"/></clipPath><g clip-path="url(#a54-st)"><polyline points="1200,1572.3 1203.6,1574.7 1208.3,1575.9 1213.7,1575.6 1219.4,1573.5 1224.7,1569.6 1229.1,1563.8 1231.9,1556.4 1232.8,1548 1231.4,1538.9 1227.4,1530 1220.8,1521.8 1211.8,1515.2 1200.9,1510.9 1188.6,1509.3 1175.6,1510.9 1162.8,1516 1151.1,1524.5 1141.4,1536 1134.6,1550.3 1131.3,1566.4 1132.1,1583.4 1137.3,1600.5 1146.8,1616.3 1160.3,1629.8 1177.2,1640 1196.8,1645.9 1217.9,1647 1239.3,1642.8 1259.7,1633.2 1277.7,1618.6 1292,1599.6 1301.6,1577 1305.5,1552.2 1303.3,1526.4 1294.8,1501.3 1280.1,1478.4 1259.8,1459.3 1235,1445.2 1206.8,1437.4 1176.9,1436.5 1147,1442.9 1118.9,1456.7 1094.5,1477.2 1075.2,1503.5 1062.6,1534.3 1057.6,1567.9 1060.8,1602.4 1072.5,1635.7 1092.1,1665.9 1118.9,1690.9 1151.5,1709.1 1188.2,1719.2 1226.9,1720.3 1265.4,1711.9 1301.3,1694.2 1332.6,1668 1357,1634.6 1373,1595.7 1379.4,1553.4 1375.4,1510.1 1360.9,1468.4 1336.6,1430.8 1303.4,1399.6 1263.2,1377 1218.1,1364.3 1170.6,1362.8 1123.5,1372.9 1079.5,1394.2" fill="none" stroke="#b3873e" stroke-width="22" stroke-linecap="round" stroke-linejoin="round"/><polyline points="990.2,1208.8 989.9,1204.5 991.2,1199.8 994.1,1195.3 998.8,1191.5 1004.9,1188.8 1012.1,1187.9 1019.9,1189.1 1027.6,1192.6 1034.8,1198.4 1040.5,1206.3 1044.3,1216.1 1045.5,1227.1 1043.8,1238.8 1039,1250.3 1031.1,1260.7 1020.3,1269.2 1007.1,1275.1 992.3,1277.7 976.5,1276.5 961,1271.3 946.6,1262.1 934.4,1249.1 925.4,1233 920.5,1214.5 920.2,1194.7 924.8,1174.8 934.4,1156 948.8,1139.6 967.2,1126.7 988.9,1118.4 1012.5,1115.5 1036.8,1118.5 1060.3,1127.5 1081.6,1142.3 1099,1162.3 1111.5,1186.4 1118,1213.6 1117.7,1242.1 1110.4,1270.4 1096.2,1296.8 1075.7,1319.4 1049.8,1336.9 1019.8,1347.8 987.3,1351.3 954.3,1346.9 922.8,1334.4 894.5,1314.3 871.5,1287.6 855.2,1255.5 846.9,1219.7 847.4,1182.4 857,1145.6 875.5,1111.6 902,1082.5 935.3,1060.1 973.5,1046.2 1014.7,1041.7 1056.4,1047.3 1096.2,1063 1131.7,1088.1 1160.6,1121.4 1181,1161.3 1191.4,1205.6 1191,1251.8 1179.3,1297.1 1156.9,1339 1124.6,1374.8 1084.2,1402.3" fill="none" stroke="#b3873e" stroke-width="22" stroke-linecap="round" stroke-linejoin="round"/><polyline points="1409.8,1208.8 1410.1,1204.5 1408.8,1199.8 1405.9,1195.3 1401.2,1191.5 1395.1,1188.8 1387.9,1187.9 1380.1,1189.1 1372.4,1192.6 1365.2,1198.4 1359.5,1206.3 1355.7,1216.1 1354.5,1227.1 1356.2,1238.8 1361,1250.3 1368.9,1260.7 1379.7,1269.2 1392.9,1275.1 1407.7,1277.7 1423.5,1276.5 1439,1271.3 1453.4,1262.1 1465.6,1249.1 1474.6,1233 1479.5,1214.5 1479.8,1194.7 1475.2,1174.8 1465.6,1156 1451.2,1139.6 1432.8,1126.7 1411.1,1118.4 1387.5,1115.5 1363.2,1118.5 1339.7,1127.5 1318.4,1142.3 1301,1162.3 1288.5,1186.4 1282,1213.6 1282.3,1242.1 1289.6,1270.4 1303.8,1296.8 1324.3,1319.4 1350.2,1336.9 1380.2,1347.8 1412.7,1351.3 1445.7,1346.9 1477.2,1334.4 1505.5,1314.3 1528.5,1287.6 1544.8,1255.5 1553.1,1219.7 1552.6,1182.4 1543,1145.6 1524.5,1111.6 1498,1082.5 1464.7,1060.1 1426.5,1046.2 1385.3,1041.7 1343.6,1047.3 1303.8,1063 1268.3,1088.1 1239.4,1121.4 1219,1161.3 1208.6,1205.6 1209,1251.8 1220.7,1297.1 1243.1,1339 1275.4,1374.8 1315.8,1402.3" fill="none" stroke="#b3873e" stroke-width="22" stroke-linecap="round" stroke-linejoin="round"/><polyline points="1400.6,2197 1400.6,2198.8 1401.3,2200.7 1402.7,2202.5 1404.8,2203.9 1407.5,2204.7 1410.5,2204.7 1413.8,2203.8 1416.9,2201.9 1419.6,2199 1421.5,2195.3 1422.5,2190.9 1422.3,2186.1 1420.9,2181.2 1418,2176.6 1413.9,2172.6 1408.6,2169.7 1402.5,2168.1 1395.9,2168.1 1389.2,2169.8 1382.9,2173.2 1377.4,2178.3 1373.1,2184.8 1370.5,2192.5 1369.8,2200.9 1371.3,2209.5 1375,2217.8 1380.7,2225.2 1388.3,2231.1 1397.4,2235.1 1407.5,2236.8 1418.1,2236 1428.3,2232.5 1437.7,2226.5 1445.6,2218.1 1451.4,2207.9 1454.5,2196.2 1454.8,2183.8 1451.9,2171.4 1446,2159.9 1437.3,2149.8 1426.2,2142 1413.2,2137 1399.1,2135.3 1384.7,2137 1370.8,2142.4 1358.4,2151 1348.3,2162.7 1341.1,2176.7 1337.5,2192.4 1337.8,2208.7 1342,2224.8 1350.2,2239.7 1362,2252.4 1376.7,2262 1393.6,2267.9 1411.7,2269.5 1430,2266.7" fill="none" stroke="#b3873e" stroke-width="14" stroke-linecap="round" stroke-linejoin="round"/><polyline points="627.1,1817.5 628.5,1816.4 629.5,1814.7 629.9,1812.5 629.7,1810 628.6,1807.5 626.7,1805.2 623.9,1803.3 620.5,1802.1 616.7,1801.9 612.6,1802.8 608.6,1804.8 605.1,1807.9 602.3,1812.1 600.6,1817.2 600.2,1822.8 601.3,1828.6 603.9,1834.3 608,1839.3 613.5,1843.3 620.1,1846 627.5,1847 635.1,1846.1 642.6,1843.2 649.4,1838.4 655,1831.9 659,1823.9 660.9,1814.9 660.6,1805.4 658,1796 652.9,1787.3 645.6,1779.8 636.5,1774.2 626.1,1770.8 614.8,1770.1 603.4,1772.2 592.5,1777.2 583,1784.8 575.4,1794.7 570.3,1806.5 568.1,1819.4 569.2,1832.8 573.6,1845.8 581.2,1857.6 591.6,1867.4 604.3,1874.6 618.7,1878.5 633.9,1878.9 649.1,1875.5 663.2,1868.4 675.5,1857.9 685,1844.5 691.1,1828.9 693.4,1812 691.4,1794.8 685.2,1778.3 675.1,1763.5 661.5,1751.4" fill="none" stroke="#b3873e" stroke-width="14" stroke-linecap="round" stroke-linejoin="round"/><polyline points="954.8,2167.2 953.5,2164.8 953,2161.7 953.6,2158.3 955.3,2154.9 958.3,2151.9 962.4,2149.6 967.4,2148.4 972.9,2148.7 978.6,2150.6 984,2154.1 988.6,2159.3 991.9,2165.8 993.5,2173.4 993.1,2181.7 990.5,2190 985.6,2197.7 978.7,2204.4 969.9,2209.3 959.7,2211.9 948.7,2212 937.6,2209.3 927.1,2203.7 917.9,2195.3 910.9,2184.6 906.5,2172 905.3,2158.3 907.6,2144.3 913.4,2130.8 922.6,2118.8 934.8,2109 949.4,2102.4 965.7,2099.4 982.7,2100.6 999.3,2105.9 1014.6,2115.4 1027.4,2128.6 1036.8,2145 1042.1,2163.6 1042.8,2183.4 1038.5,2203.2 1029.4,2221.8 1015.7,2238 998.2,2250.7 977.7,2258.9 955.3,2262 932.3,2259.6 910.3,2251.5 890.4,2238 874,2219.8 862.4,2197.8 856.2,2173.2 856.2,2147.3 862.6,2121.8 875.1,2098.1 893.4,2077.8 916.3,2062.3 942.8,2052.5" fill="none" stroke="#b3873e" stroke-width="14" stroke-linecap="round" stroke-linejoin="round"/><polyline points="1341.9,2116.3 1340.8,2117.4 1339.3,2118.2 1337.4,2118.4 1335.3,2118.1 1333.2,2117.1 1331.3,2115.3 1329.8,2112.9 1329,2109.9 1329,2106.6 1329.9,2103.1 1331.8,2099.8 1334.7,2097 1338.4,2094.8 1342.8,2093.6 1347.7,2093.5 1352.6,2094.7 1357.3,2097.2 1361.4,2101 1364.6,2105.9 1366.6,2111.7 1367,2118 1365.9,2124.5 1363.1,2130.8 1358.7,2136.4 1352.8,2140.8 1345.8,2143.9 1338,2145.1 1329.9,2144.4 1322,2141.6 1314.7,2136.9 1308.7,2130.3 1304.3,2122.3 1301.9,2113.1 1301.9,2103.4 1304.2,2093.8 1309,2084.7 1315.9,2076.9 1324.8,2070.9 1335.1,2067.1 1346.3,2065.9 1357.7,2067.5 1368.6,2071.8 1378.3,2078.9 1386.2,2088.3 1391.8,2099.5 1394.4,2112 1394,2125.1 1390.4,2137.9 1383.6,2149.6 1374.1,2159.6 1362.2,2167.1 1348.5,2171.6 1334,2172.7 1319.3,2170.2 1305.5,2164.2 1293.3,2154.8 1283.6,2142.5" fill="none" stroke="#b3873e" stroke-width="14" stroke-linecap="round" stroke-linejoin="round"/><polyline points="632.3,1146.8 632.6,1145.3 633.6,1143.7 635.2,1142.4 637.4,1141.6 639.9,1141.5 642.6,1142.1 645.3,1143.6 647.6,1145.9 649.4,1149 650.4,1152.7 650.4,1156.8 649.2,1161 646.9,1165 643.4,1168.5 639,1171.1 633.8,1172.6 628,1172.8 622.2,1171.5 616.6,1168.6 611.7,1164.3 607.9,1158.6 605.5,1152 604.8,1144.7 605.9,1137.1 608.9,1129.8 613.9,1123.3 620.4,1117.9 628.4,1114.3 637.2,1112.6 646.5,1113.2 655.6,1116.1 664,1121.2 671.1,1128.5 676.3,1137.4 679.3,1147.7 679.7,1158.6 677.4,1169.6 672.3,1180 664.8,1189 655,1196.1 643.6,1200.7 631.1,1202.4 618.3,1201.1 605.9,1196.6 594.8,1189 585.6,1178.8 579,1166.5 575.6,1152.6 575.6,1138.1 579.2,1123.7 586.2,1110.3 596.5,1098.9 609.5,1090.1 624.5,1084.6 640.6,1082.9 656.9,1085.1 672.5,1091.3" fill="none" stroke="#b3873e" stroke-width="14" stroke-linecap="round" stroke-linejoin="round"/><polyline points="521.8,2450 556.5,2373.5 591.1,2450" fill="none" stroke="#b3873e" stroke-width="12.6"/><polyline points="620.8,2450 655.5,2373.5 690.1,2450" fill="none" stroke="#b3873e" stroke-width="12.6"/><polyline points="719.8,2450 754.5,2373.5 789.1,2450" fill="none" stroke="#b3873e" stroke-width="12.6"/><polyline points="818.9,2450 853.5,2373.5 888.1,2450" fill="none" stroke="#b3873e" stroke-width="12.6"/><polyline points="917.9,2450 952.5,2373.5 987.1,2450" fill="none" stroke="#b3873e" stroke-width="12.6"/><polyline points="1016.9,2450 1051.5,2373.5 1086.2,2450" fill="none" stroke="#b3873e" stroke-width="12.6"/><polyline points="1115.8,2450 1150.5,2373.5 1185.2,2450" fill="none" stroke="#b3873e" stroke-width="12.6"/><polyline points="1214.8,2450 1249.5,2373.5 1284.2,2450" fill="none" stroke="#b3873e" stroke-width="12.6"/><polyline points="1313.8,2450 1348.5,2373.5 1383.2,2450" fill="none" stroke="#b3873e" stroke-width="12.6"/><polyline points="1412.8,2450 1447.5,2373.5 1482.2,2450" fill="none" stroke="#b3873e" stroke-width="12.6"/><polyline points="1511.8,2450 1546.5,2373.5 1581.2,2450" fill="none" stroke="#b3873e" stroke-width="12.6"/><polyline points="1610.8,2450 1645.5,2373.5 1680.2,2450" fill="none" stroke="#b3873e" stroke-width="12.6"/><polyline points="1709.8,2450 1744.5,2373.5 1779.2,2450" fill="none" stroke="#b3873e" stroke-width="12.6"/><polyline points="1808.8,2450 1843.5,2373.5 1878.2,2450" fill="none" stroke="#b3873e" stroke-width="12.6"/></g><circle cx="390" cy="200" r="15.6" fill="#b3873e"/><circle cx="450" cy="200" r="15.6" fill="#b3873e"/><circle cx="510" cy="200" r="15.6" fill="#b3873e"/><circle cx="570" cy="200" r="15.6" fill="#b3873e"/><circle cx="630" cy="200" r="15.6" fill="#b3873e"/><circle cx="690" cy="200" r="15.6" fill="#b3873e"/><circle cx="750" cy="200" r="15.6" fill="#b3873e"/><circle cx="810" cy="200" r="15.6" fill="#b3873e"/><circle cx="870" cy="200" r="15.6" fill="#b3873e"/><circle cx="930" cy="200" r="15.6" fill="#b3873e"/><circle cx="990" cy="200" r="15.6" fill="#b3873e"/><circle cx="1050" cy="200" r="15.6" fill="#b3873e"/><circle cx="1110" cy="200" r="15.6" fill="#b3873e"/><circle cx="1170" cy="200" r="15.6" fill="#b3873e"/><circle cx="1230" cy="200" r="15.6" fill="#b3873e"/><circle cx="1290" cy="200" r="15.6" fill="#b3873e"/><circle cx="1350" cy="200" r="15.6" fill="#b3873e"/><circle cx="1410" cy="200" r="15.6" fill="#b3873e"/><circle cx="1470" cy="200" r="15.6" fill="#b3873e"/><circle cx="1530" cy="200" r="15.6" fill="#b3873e"/><circle cx="1590" cy="200" r="15.6" fill="#b3873e"/><circle cx="1650" cy="200" r="15.6" fill="#b3873e"/><circle cx="1710" cy="200" r="15.6" fill="#b3873e"/><circle cx="1770" cy="200" r="15.6" fill="#b3873e"/><circle cx="1830" cy="200" r="15.6" fill="#b3873e"/><circle cx="1890" cy="200" r="15.6" fill="#b3873e"/><circle cx="1950" cy="200" r="15.6" fill="#b3873e"/><circle cx="2010" cy="200" r="15.6" fill="#b3873e"/><circle cx="390" cy="2800" r="15.6" fill="#b3873e"/><circle cx="450" cy="2800" r="15.6" fill="#b3873e"/><circle cx="510" cy="2800" r="15.6" fill="#b3873e"/><circle cx="570" cy="2800" r="15.6" fill="#b3873e"/><circle cx="630" cy="2800" r="15.6" fill="#b3873e"/><circle cx="690" cy="2800" r="15.6" fill="#b3873e"/><circle cx="750" cy="2800" r="15.6" fill="#b3873e"/><circle cx="810" cy="2800" r="15.6" fill="#b3873e"/><circle cx="870" cy="2800" r="15.6" fill="#b3873e"/><circle cx="930" cy="2800" r="15.6" fill="#b3873e"/><circle cx="990" cy="2800" r="15.6" fill="#b3873e"/><circle cx="1050" cy="2800" r="15.6" fill="#b3873e"/><circle cx="1110" cy="2800" r="15.6" fill="#b3873e"/><circle cx="1170" cy="2800" r="15.6" fill="#b3873e"/><circle cx="1230" cy="2800" r="15.6" fill="#b3873e"/><circle cx="1290" cy="2800" r="15.6" fill="#b3873e"/><circle cx="1350" cy="2800" r="15.6" fill="#b3873e"/><circle cx="1410" cy="2800" r="15.6" fill="#b3873e"/><circle cx="1470" cy="2800" r="15.6" fill="#b3873e"/><circle cx="1530" cy="2800" r="15.6" fill="#b3873e"/><circle cx="1590" cy="2800" r="15.6" fill="#b3873e"/><circle cx="1650" cy="2800" r="15.6" fill="#b3873e"/><circle cx="1710" cy="2800" r="15.6" fill="#b3873e"/><circle cx="1770" cy="2800" r="15.6" fill="#b3873e"/><circle cx="1830" cy="2800" r="15.6" fill="#b3873e"/><circle cx="1890" cy="2800" r="15.6" fill="#b3873e"/><circle cx="1950" cy="2800" r="15.6" fill="#b3873e"/><circle cx="2010" cy="2800" r="15.6" fill="#b3873e"/><rect x="100" y="100" width="2200" height="2800" fill="none" stroke="#b3873e" stroke-width="9"/><rect x="142" y="142" width="2116" height="2716" fill="none" stroke="#b3873e" stroke-width="3" opacity="0.65"/></svg></svg>