<svg xmlns="http://www.w3.org/2000/svg" width="2400" height="1800" viewBox="0 0 2400 1800"><rect width="2400" height="1800" fill="#e8e2d6"/><rect y="1420" width="2400" height="380" fill="#cbb597"/><ellipse cx="1200" cy="1640" rx="760" ry="130" fill="#b09a6c" opacity="0.55"/><ellipse cx="1200" cy="1640" rx="600" ry="96" fill="none" stroke="#a8792c" stroke-width="10" opacity="0.5"/><rect x="700" y="1120" width="1000" height="300" rx="40" fill="#97a08c"/><rect x="640" y="1060" width="120" height="380" rx="40" fill="#87907c"/><rect x="1640" y="1060" width="120" height="380" rx="40" fill="#87907c"/><rect x="740" y="1010" width="920" height="180" rx="36" fill="#a3ac97"/><rect x="800" y="1060" width="240" height="160" rx="30" fill="#a8792c"/><rect x="1380" y="1060" width="240" height="160" rx="30" fill="#b09a6c"/><rect x="700" y="1420" width="26" height="120" fill="#6f6353"/><rect x="1674" y="1420" width="26" height="120" fill="#6f6353"/><path d="M360,1520 Q330,820 800,880" fill="none" stroke="#4c4438" stroke-width="16"/><path d="M760,870 L840,880 L810,960 L770,955 Z" fill="#4c4438"/><rect x="300" y="1510" width="130" height="20" rx="10" fill="#4c4438"/><path d="M2080,1500 Q 1918,1243.5 1837,1311" fill="none" stroke="#5d7052" stroke-width="21.6" stroke-linecap="round"/><path d="M2080,1500 Q 1972,1243.5 1918,1257" fill="none" stroke="#5d7052" stroke-width="21.6" stroke-linecap="round"/><path d="M2080,1500 Q 2026,1243.5 1999,1203" fill="none" stroke="#5d7052" stroke-width="21.6" stroke-linecap="round"/><path d="M2080,1500 Q 2080,1243.5 2080,1149" fill="none" stroke="#5d7052" stroke-width="21.6" stroke-linecap="round"/><path d="M2080,1500 Q 2134,1243.5 2161,1203" fill="none" stroke="#5d7052" stroke-width="21.6" stroke-linecap="round"/><path d="M2080,1500 Q 2188,1243.5 2242,1257" fill="none" stroke="#5d7052" stroke-width="21.6" stroke-linecap="round"/><path d="M2080,1500 Q 2242,1243.5 2323,1311" fill="none" stroke="#5d7052" stroke-width="21.6" stroke-linecap="round"/><path d="M1985.5,1500 L2174.5,1500 L2150.2,1648.5 L2009.8,1648.5 Z" fill="#a9714d"/><defs><filter id="a30l-sh" x="-30%" y="-30%" width="160%" height="160%"><feGaussianBlur stdDeviation="16"/></filter></defs><rect x="939" y="217" width="550" height="675" fill="#000" opacity="0.28" filter="url(#a30l-sh)"/><rect x="925" y="195" width="550" height="675" fill="#2e2823"/><rect x="941.3" y="211.3" width="517.5" height="642.5" fill="none" stroke="#00000055" stroke-width="3"/><rect x="950" y="220" width="500" height="625" fill="#f6f2ea"/><svg x="987.5" y="257.5" width="425" height="550" viewBox="0 0 2400 3000" preserveAspectRatio="xMidYMid slice"><filter id="a30-warp" x="-4%" y="-4%" width="108%" height="108%"><feTurbulence type="fractalNoise" baseFrequency="0.0105" numOctaves="2" seed="5392" result="w"/><feDisplacementMap in="SourceGraphic" in2="w" scale="11" xChannelSelector="R" yChannelSelector="G"/></filter><filter id="a30-grain" x="0%" y="0%" width="100%" height="100%"><feTurbulence type="fractalNoise" baseFrequency="0.6" numOctaves="2" seed="5399"/><feColorMatrix type="matrix" values="0.33 0.33 0.33 0 0.62  0.33 0.33 0.33 0 0.62  0.33 0.33 0.33 0 0.62  0 0 0 0 1"/></filter><filter id="a30-mottle" x="0%" y="0%" width="100%" height="100%"><feTurbulence type="fractalNoise" baseFrequency="0.0045" numOctaves="3" seed="5405"/><feColorMatrix type="matrix" values="0.2 0.2 0.2 0 0.78  0.2 0.2 0.2 0 0.78  0.2 0.2 0.2 0 0.78  0 0 0 0 1"/></filter><filter id="a30-fade" x="0%" y="0%" width="100%" height="100%"><feTurbulence type="fractalNoise" baseFrequency="0.006" numOctaves="2" seed="5421"/><feColorMatrix type="matrix" values="0.3 0.3 0.3 0 -0.08  0.3 0.3 0.3 0 -0.08  0.3 0.3 0.3 0 -0.1  0 0 0 0 1"/></filter><filter id="a30-blur9"><feGaussianBlur stdDeviation="9"/></filter><radialGradient id="a30-vig" cx="50%" cy="44%" r="78%"><stop offset="52%" stop-color="#241a10" stop-opacity="0"/><stop offset="100%" stop-color="#241a10" stop-opacity="0.17"/></radialGradient><radialGradient id="a30-warm" cx="62%" cy="30%" r="85%"><stop offset="0%" stop-color="#e8c890" stop-opacity="0.14"/><stop offset="70%" stop-color="#e8c890" stop-opacity="0"/></radialGradient><rect width="2400" height="3000" fill="#d3ba8c"/><rect width="2400" height="3000" fill="url(#a30-warm)"/><rect x="0" width="20.9" height="3000" fill="#6b4e26" opacity="0.034"/><rect x="29" width="26.7" height="3000" fill="#6b4e26" opacity="0.058"/><rect x="66.1" width="24.7" height="3000" fill="#6b4e26" opacity="0.092"/><rect x="100.4" width="29.4" height="3000" fill="#6b4e26" opacity="0.054"/><rect x="141.1" width="32.2" height="3000" fill="#6b4e26" opacity="0.050"/><rect x="185.8" width="23.3" height="3000" fill="#6b4e26" opacity="0.033"/><rect x="218.2" width="21.2" height="3000" fill="#6b4e26" opacity="0.092"/><rect x="247.7" width="37.8" height="3000" fill="#6b4e26" opacity="0.088"/><rect x="300.2" width="27.9" height="3000" fill="#6b4e26" opacity="0.082"/><rect x="339.1" width="40" height="3000" fill="#6b4e26" opacity="0.080"/><rect x="394.6" width="22.2" height="3000" fill="#6b4e26" opacity="0.064"/><rect x="425.4" width="37.8" height="3000" fill="#6b4e26" opacity="0.097"/><rect x="477.9" width="36" height="3000" fill="#6b4e26" opacity="0.050"/><rect x="528" width="19.1" height="3000" fill="#6b4e26" opacity="0.035"/><rect x="554.5" width="40.4" height="3000" fill="#6b4e26" opacity="0.086"/><rect x="610.5" width="43.1" height="3000" fill="#6b4e26" opacity="0.058"/><rect x="670.4" width="21.2" height="3000" fill="#6b4e26" opacity="0.098"/><rect x="699.8" width="25" height="3000" fill="#6b4e26" opacity="0.099"/><rect x="734.5" width="40.2" height="3000" fill="#6b4e26" opacity="0.084"/><rect x="790.3" width="40.9" height="3000" fill="#6b4e26" opacity="0.099"/><rect x="847.1" width="38.6" height="3000" fill="#6b4e26" opacity="0.042"/><rect x="900.7" width="39.1" height="3000" fill="#6b4e26" opacity="0.062"/><rect x="955" width="26.6" height="3000" fill="#6b4e26" opacity="0.060"/><rect x="992" width="41.9" height="3000" fill="#6b4e26" opacity="0.057"/><rect x="1050.2" width="36.9" height="3000" fill="#6b4e26" opacity="0.074"/><rect x="1101.4" width="36.1" height="3000" fill="#6b4e26" opacity="0.092"/><rect x="1151.6" width="28.8" height="3000" fill="#6b4e26" opacity="0.061"/><rect x="1191.6" width="40.4" height="3000" fill="#6b4e26" opacity="0.061"/><rect x="1247.6" width="24.7" height="3000" fill="#6b4e26" opacity="0.060"/><rect x="1282" width="33.5" height="3000" fill="#6b4e26" opacity="0.091"/><rect x="1328.5" width="29.5" height="3000" fill="#6b4e26" opacity="0.051"/><rect x="1369.6" width="38.7" height="3000" fill="#6b4e26" opacity="0.092"/><rect x="1423.3" width="39.8" height="3000" fill="#6b4e26" opacity="0.064"/><rect x="1478.5" width="21.9" height="3000" fill="#6b4e26" opacity="0.067"/><rect x="1509" width="37.1" height="3000" fill="#6b4e26" opacity="0.083"/><rect x="1560.5" width="36.1" height="3000" fill="#6b4e26" opacity="0.087"/><rect x="1610.6" width="37.8" height="3000" fill="#6b4e26" opacity="0.097"/><rect x="1663.1" width="36.7" height="3000" fill="#6b4e26" opacity="0.081"/><rect x="1714.1" width="39.4" height="3000" fill="#6b4e26" opacity="0.077"/><rect x="1768.8" width="29" height="3000" fill="#6b4e26" opacity="0.047"/><rect x="1809.1" width="31.6" height="3000" fill="#6b4e26" opacity="0.066"/><rect x="1853" width="21.4" height="3000" fill="#6b4e26" opacity="0.039"/><rect x="1882.7" width="25" height="3000" fill="#6b4e26" opacity="0.098"/><rect x="1917.4" width="29.7" height="3000" fill="#6b4e26" opacity="0.031"/><rect x="1958.6" width="42.2" height="3000" fill="#6b4e26" opacity="0.064"/><rect x="2017.1" width="28" height="3000" fill="#6b4e26" opacity="0.059"/><rect x="2056.1" width="20.9" height="3000" fill="#6b4e26" opacity="0.061"/><rect x="2085.2" width="27.6" height="3000" fill="#6b4e26" opacity="0.070"/><rect x="2123.5" width="21.3" height="3000" fill="#6b4e26" opacity="0.067"/><rect x="2153.1" width="29.2" height="3000" fill="#6b4e26" opacity="0.040"/><rect x="2193.6" width="24.6" height="3000" fill="#6b4e26" opacity="0.060"/><rect x="2227.8" width="36.7" height="3000" fill="#6b4e26" opacity="0.046"/><rect x="2278.8" width="39.5" height="3000" fill="#6b4e26" opacity="0.081"/><rect x="2333.6" width="22.8" height="3000" fill="#6b4e26" opacity="0.045"/><rect x="2365.2" width="27.3" height="3000" fill="#6b4e26" opacity="0.054"/><rect y="0" width="2400" height="21.8" fill="#7c5c30" opacity="0.045"/><rect y="36.3" width="2400" height="14.5" fill="#7c5c30" opacity="0.053"/><rect y="60.5" width="2400" height="21.8" fill="#7c5c30" opacity="0.059"/><rect y="96.8" width="2400" height="13.7" fill="#7c5c30" opacity="0.050"/><rect y="119.7" width="2400" height="27.3" fill="#7c5c30" opacity="0.026"/><rect y="165.2" width="2400" height="12.1" fill="#7c5c30" opacity="0.050"/><rect y="185.4" width="2400" height="18.9" fill="#7c5c30" opacity="0.035"/><rect y="216.9" width="2400" height="15.3" fill="#7c5c30" opacity="0.043"/><rect y="242.4" width="2400" height="23.5" fill="#7c5c30" opacity="0.048"/><rect y="281.5" width="2400" height="19.8" fill="#7c5c30" opacity="0.058"/><rect y="314.4" width="2400" height="15.2" fill="#7c5c30" opacity="0.039"/><rect y="339.8" width="2400" height="21.6" fill="#7c5c30" opacity="0.058"/><rect y="375.7" width="2400" height="25.9" fill="#7c5c30" opacity="0.036"/><rect y="419" width="2400" height="25.6" fill="#7c5c30" opacity="0.031"/><rect y="461.7" width="2400" height="26.1" fill="#7c5c30" opacity="0.034"/><rect y="505.1" width="2400" height="26.4" fill="#7c5c30" opacity="0.022"/><rect y="549.2" width="2400" height="25.9" fill="#7c5c30" opacity="0.028"/><rect y="592.3" width="2400" height="16.3" fill="#7c5c30" opacity="0.028"/><rect y="619.4" width="2400" height="13.4" fill="#7c5c30" opacity="0.055"/><rect y="641.7" width="2400" height="26.9" fill="#7c5c30" opacity="0.042"/><rect y="686.5" width="2400" height="17.7" fill="#7c5c30" opacity="0.036"/><rect y="716" width="2400" height="26.9" fill="#7c5c30" opacity="0.030"/><rect y="760.9" width="2400" height="12.9" fill="#7c5c30" opacity="0.055"/><rect y="782.3" width="2400" height="16" fill="#7c5c30" opacity="0.031"/><rect y="809" width="2400" height="22.3" fill="#7c5c30" opacity="0.057"/><rect y="846.1" width="2400" height="24.6" fill="#7c5c30" opacity="0.022"/><rect y="887.1" width="2400" height="22.6" fill="#7c5c30" opacity="0.020"/><rect y="924.8" width="2400" height="15" fill="#7c5c30" opacity="0.052"/><rect y="949.8" width="2400" height="18.2" fill="#7c5c30" opacity="0.023"/><rect y="980.2" width="2400" height="24.9" fill="#7c5c30" opacity="0.032"/><rect y="1021.7" width="2400" height="12.5" fill="#7c5c30" opacity="0.020"/><rect y="1042.5" width="2400" height="28.6" fill="#7c5c30" opacity="0.031"/><rect y="1090.2" width="2400" height="18.1" fill="#7c5c30" opacity="0.056"/><rect y="1120.4" width="2400" height="13" fill="#7c5c30" opacity="0.059"/><rect y="1142" width="2400" height="22.5" fill="#7c5c30" opacity="0.050"/><rect y="1179.5" width="2400" height="18.8" fill="#7c5c30" opacity="0.035"/><rect y="1210.8" width="2400" height="19.2" fill="#7c5c30" opacity="0.045"/><rect y="1242.8" width="2400" height="27.9" fill="#7c5c30" opacity="0.051"/><rect y="1289.4" width="2400" height="17.6" fill="#7c5c30" opacity="0.059"/><rect y="1318.7" width="2400" height="14" fill="#7c5c30" opacity="0.051"/><rect y="1342.1" width="2400" height="27.7" fill="#7c5c30" opacity="0.047"/><rect y="1388.2" width="2400" height="19.8" fill="#7c5c30" opacity="0.041"/><rect y="1421.3" width="2400" height="18.7" fill="#7c5c30" opacity="0.030"/><rect y="1452.4" width="2400" height="22.4" fill="#7c5c30" opacity="0.037"/><rect y="1489.8" width="2400" height="12.6" fill="#7c5c30" opacity="0.057"/><rect y="1510.8" width="2400" height="18.1" fill="#7c5c30" opacity="0.037"/><rect y="1540.9" width="2400" height="17.3" fill="#7c5c30" opacity="0.034"/><rect y="1569.8" width="2400" height="14.4" fill="#7c5c30" opacity="0.035"/><rect y="1593.7" width="2400" height="20" fill="#7c5c30" opacity="0.022"/><rect y="1627" width="2400" height="23" fill="#7c5c30" opacity="0.052"/><rect y="1665.3" width="2400" height="23.5" fill="#7c5c30" opacity="0.047"/><rect y="1704.4" width="2400" height="19.1" fill="#7c5c30" opacity="0.030"/><rect y="1736.3" width="2400" height="18.9" fill="#7c5c30" opacity="0.047"/><rect y="1767.8" width="2400" height="12.1" fill="#7c5c30" opacity="0.033"/><rect y="1787.9" width="2400" height="15.1" fill="#7c5c30" opacity="0.060"/><rect y="1813" width="2400" height="22.4" fill="#7c5c30" opacity="0.033"/><rect y="1850.3" width="2400" height="24.2" fill="#7c5c30" opacity="0.041"/><rect y="1890.7" width="2400" height="14.4" fill="#7c5c30" opacity="0.021"/><rect y="1914.7" width="2400" height="27.5" fill="#7c5c30" opacity="0.033"/><rect y="1960.5" width="2400" height="21.9" fill="#7c5c30" opacity="0.026"/><rect y="1997" width="2400" height="21.4" fill="#7c5c30" opacity="0.033"/><rect y="2032.7" width="2400" height="16.5" fill="#7c5c30" opacity="0.048"/><rect y="2060.2" width="2400" height="14.8" fill="#7c5c30" opacity="0.024"/><rect y="2084.8" width="2400" height="23.7" fill="#7c5c30" opacity="0.038"/><rect y="2124.2" width="2400" height="13.2" fill="#7c5c30" opacity="0.043"/><rect y="2146.3" width="2400" height="12.1" fill="#7c5c30" opacity="0.058"/><rect y="2166.4" width="2400" height="23.5" fill="#7c5c30" opacity="0.033"/><rect y="2205.7" width="2400" height="26.4" fill="#7c5c30" opacity="0.051"/><rect y="2249.7" width="2400" height="26.6" fill="#7c5c30" opacity="0.042"/><rect y="2294" width="2400" height="25.2" fill="#7c5c30" opacity="0.060"/><rect y="2336" width="2400" height="13.4" fill="#7c5c30" opacity="0.057"/><rect y="2358.3" width="2400" height="28.6" fill="#7c5c30" opacity="0.035"/><rect y="2405.9" width="2400" height="21" fill="#7c5c30" opacity="0.033"/><rect y="2441" width="2400" height="22.7" fill="#7c5c30" opacity="0.056"/><rect y="2478.9" width="2400" height="13.1" fill="#7c5c30" opacity="0.060"/><rect y="2500.8" width="2400" height="20" fill="#7c5c30" opacity="0.035"/><rect y="2534.2" width="2400" height="22.5" fill="#7c5c30" opacity="0.034"/><rect y="2571.6" width="2400" height="17.8" fill="#7c5c30" opacity="0.039"/><rect y="2601.2" width="2400" height="16.5" fill="#7c5c30" opacity="0.047"/><rect y="2628.7" width="2400" height="15.6" fill="#7c5c30" opacity="0.046"/><rect y="2654.7" width="2400" height="20.3" fill="#7c5c30" opacity="0.040"/><rect y="2688.5" width="2400" height="16.5" fill="#7c5c30" opacity="0.060"/><rect y="2716" width="2400" height="19.6" fill="#7c5c30" opacity="0.039"/><rect y="2748.6" width="2400" height="21.1" fill="#7c5c30" opacity="0.054"/><rect y="2783.8" width="2400" height="12.6" fill="#7c5c30" opacity="0.059"/><rect y="2804.8" width="2400" height="17.1" fill="#7c5c30" opacity="0.021"/><rect y="2833.3" width="2400" height="17.1" fill="#7c5c30" opacity="0.039"/><rect y="2861.8" width="2400" height="25.8" fill="#7c5c30" opacity="0.024"/><rect y="2904.8" width="2400" height="18.9" fill="#7c5c30" opacity="0.025"/><rect y="2936.4" width="2400" height="26.4" fill="#7c5c30" opacity="0.038"/><rect y="2980.3" width="2400" height="18.1" fill="#7c5c30" opacity="0.029"/><g filter="url(#a30-warp)"><clipPath id="a30-gz"><rect x="150" y="150" width="2100" height="2700"/></clipPath><g clip-path="url(#a30-gz)"><circle cx="918.3" cy="809.6" r="412.7" fill="#a8792c"/><path d="M150,2050 C 700,1932 1100,2168 1600,1979.2 S 2200,2097.2 2250,2030 L2250,2850 L150,2850 Z" fill="#332d23" opacity="0.35"/><path d="M150,2270 C 700,2187.3 1100,2352.7 1600,2220.4 S 2200,2303.1 2250,2250 L2250,2850 L150,2850 Z" fill="#b09a6c" opacity="0.9"/><path d="M150,2520 C 700,2396.1 1100,2643.9 1600,2445.6 S 2200,2569.6 2250,2500 L2250,2850 L150,2850 Z" fill="#332d23" opacity="1"/><polygon points="661.2,1399.9 220,2130 732.2,2130" fill="#332d23"/><polygon points="661.2,1399.9 732.2,2130 1102.5,2130" fill="#332d23" opacity="0.6"/><polygon points="1180,1529.9 733.1,2130 1282.1,2130" fill="#332d23"/><polygon points="1180,1529.9 1282.1,2130 1626.9,2130" fill="#332d23" opacity="0.6"/><path d="M527.5,1044.6 q 26,-24 52,0 q 26,-24 52,0" fill="none" stroke="#332d23" stroke-width="8" stroke-linecap="round"/><path d="M581.4,537.7 q 26,-24 52,0 q 26,-24 52,0" fill="none" stroke="#332d23" stroke-width="8" stroke-linecap="round"/><path d="M848.5,874.7 q 26,-24 52,0 q 26,-24 52,0" fill="none" stroke="#332d23" stroke-width="8" stroke-linecap="round"/></g><polyline points="240,2800 300,2740 360,2800 420,2740 480,2800 540,2740 600,2800 660,2740 720,2800 780,2740 840,2800 900,2740 960,2800 1020,2740 1080,2800 1140,2740 1200,2800 1260,2740 1320,2800 1380,2740 1440,2800 1500,2740 1560,2800 1620,2740 1680,2800 1740,2740 1800,2800 1860,2740 1920,2800 1980,2740 2040,2800 2100,2740 2160,2800 " fill="none" stroke="#332d23" stroke-width="10.8" stroke-linejoin="miter"/><rect x="120" y="120" width="2160" height="2760" fill="none" stroke="#332d23" stroke-width="6" opacity="0.85"/></g><rect width="2400" height="3000" filter="url(#a30-mottle)" style="mix-blend-mode:multiply" opacity="0.5"/><rect width="2400" height="3000" filter="url(#a30-fade)" style="mix-blend-mode:screen" opacity="0.55"/><rect width="2400" height="3000" filter="url(#a30-grain)" style="mix-blend-mode:multiply" opacity="0.32"/><ellipse cx="179.1" cy="171.7" rx="113.6" ry="115.7" fill="#6b4a22" opacity="0.026" filter="url(#a30-blur9)"/><ellipse cx="1810.7" cy="1226.3" rx="95.2" ry="90.5" fill="#6b4a22" opacity="0.030" filter="url(#a30-blur9)"/><ellipse cx="1963.4" cy="2074.1" rx="250.9" ry="192.3" fill="#6b4a22" opacity="0.044" filter="url(#a30-blur9)"/><ellipse cx="891.8" cy="769.3" rx="255.5" ry="187.7" fill="#6b4a22" opacity="0.059" filter="url(#a30-blur9)"/><ellipse cx="1020" cy="2134.4" rx="131.9" ry="121.2" fill="#6b4a22" opacity="0.034" filter="url(#a30-blur9)"/><ellipse cx="565.8" cy="2391.3" rx="240.7" ry="135.4" fill="#6b4a22" opacity="0.034" filter="url(#a30-blur9)"/><rect x="0" width="17.9" height="3000" fill="#fff2d0" opacity="0.022"/><rect x="35.8" width="33.9" height="3000" fill="#fff2d0" opacity="0.042"/><rect x="103.6" width="32.3" height="3000" fill="#fff2d0" opacity="0.025"/><rect x="168.2" width="30" height="3000" fill="#fff2d0" opacity="0.034"/><rect x="228.3" width="16.8" height="3000" fill="#fff2d0" opacity="0.037"/><rect x="261.9" width="21.9" height="3000" fill="#fff2d0" opacity="0.038"/><rect x="305.6" width="15.9" height="3000" fill="#fff2d0" opacity="0.032"/><rect x="337.4" width="27.6" height="3000" fill="#fff2d0" opacity="0.019"/><rect x="392.5" width="22.6" height="3000" fill="#fff2d0" opacity="0.033"/><rect x="437.7" width="22.4" height="3000" fill="#fff2d0" opacity="0.026"/><rect x="482.4" width="23.7" height="3000" fill="#fff2d0" opacity="0.040"/><rect x="529.8" width="26.1" height="3000" fill="#fff2d0" opacity="0.022"/><rect x="582.1" width="19.6" height="3000" fill="#fff2d0" opacity="0.026"/><rect x="621.3" width="26.9" height="3000" fill="#fff2d0" opacity="0.025"/><rect x="675.1" width="23.5" height="3000" fill="#fff2d0" opacity="0.022"/><rect x="722.1" width="28" height="3000" fill="#fff2d0" opacity="0.017"/><rect x="778.2" width="16.5" height="3000" fill="#fff2d0" opacity="0.027"/><rect x="811.1" width="29.4" height="3000" fill="#fff2d0" opacity="0.043"/><rect x="870" width="15.6" height="3000" fill="#fff2d0" opacity="0.033"/><rect x="901.2" width="31.2" height="3000" fill="#fff2d0" opacity="0.017"/><rect x="963.5" width="22.5" height="3000" fill="#fff2d0" opacity="0.033"/><rect x="1008.6" width="17.3" height="3000" fill="#fff2d0" opacity="0.040"/><rect x="1043.1" width="28.9" height="3000" fill="#fff2d0" opacity="0.015"/><rect x="1101" width="34.1" height="3000" fill="#fff2d0" opacity="0.025"/><rect x="1169.2" width="25.3" height="3000" fill="#fff2d0" opacity="0.019"/><rect x="1219.9" width="27.2" height="3000" fill="#fff2d0" opacity="0.045"/><rect x="1274.3" width="31.9" height="3000" fill="#fff2d0" opacity="0.030"/><rect x="1338" width="28.7" height="3000" fill="#fff2d0" opacity="0.045"/><rect x="1395.3" width="23.8" height="3000" fill="#fff2d0" opacity="0.027"/><rect x="1442.9" width="30.7" height="3000" fill="#fff2d0" opacity="0.023"/><rect x="1504.3" width="24.4" height="3000" fill="#fff2d0" opacity="0.020"/><rect x="1553.2" width="29.2" height="3000" fill="#fff2d0" opacity="0.016"/><rect x="1611.7" width="20.7" height="3000" fill="#fff2d0" opacity="0.019"/><rect x="1653.1" width="26.5" height="3000" fill="#fff2d0" opacity="0.041"/><rect x="1706.1" width="26.7" height="3000" fill="#fff2d0" opacity="0.037"/><rect x="1759.6" width="29.8" height="3000" fill="#fff2d0" opacity="0.042"/><rect x="1819.2" width="26.7" height="3000" fill="#fff2d0" opacity="0.027"/><rect x="1872.6" width="26.1" height="3000" fill="#fff2d0" opacity="0.037"/><rect x="1924.7" width="32.6" height="3000" fill="#fff2d0" opacity="0.036"/><rect x="1990" width="16" height="3000" fill="#fff2d0" opacity="0.039"/><rect x="2022" width="23.2" height="3000" fill="#fff2d0" opacity="0.041"/><rect x="2068.4" width="25.8" height="3000" fill="#fff2d0" opacity="0.024"/><rect x="2119.9" width="31.1" height="3000" fill="#fff2d0" opacity="0.042"/><rect x="2182" width="25.2" height="3000" fill="#fff2d0" opacity="0.024"/><rect x="2232.5" width="18.3" height="3000" fill="#fff2d0" opacity="0.040"/><rect x="2269.1" width="18.8" height="3000" fill="#fff2d0" opacity="0.022"/><rect x="2306.7" width="33.4" height="3000" fill="#fff2d0" opacity="0.035"/><rect x="2373.5" width="31.9" height="3000" fill="#fff2d0" opacity="0.022"/><linearGradient id="a30-er" x1="0" x2="1" y1="0" y2="0"><stop offset="0" stop-color="#3a2a12" stop-opacity="0.22"/><stop offset="1" stop-color="#3a2a12" stop-opacity="0"/></linearGradient><rect x="0" y="0" width="90" height="3000" fill="url(#a30-er)"/><linearGradient id="a30-el" x1="1" x2="0" y1="0" y2="0"><stop offset="0" stop-color="#3a2a12" stop-opacity="0.22"/><stop offset="1" stop-color="#3a2a12" stop-opacity="0"/></linearGradient><rect x="2310" y="0" width="90" height="3000" fill="url(#a30-el)"/><linearGradient id="a30-ed" x1="0" x2="0" y1="0" y2="1"><stop offset="0" stop-color="#3a2a12" stop-opacity="0.22"/><stop offset="1" stop-color="#3a2a12" stop-opacity="0"/></linearGradient><rect x="0" y="0" width="2400" height="90" fill="url(#a30-ed)"/><linearGradient id="a30-eu" x1="0" x2="0" y1="1" y2="0"><stop offset="0" stop-color="#3a2a12" stop-opacity="0.22"/><stop offset="1" stop-color="#3a2a12" stop-opacity="0"/></linearGradient><rect x="0" y="2910" width="2400" height="90" fill="url(#a30-eu)"/><circle cx="569.5" cy="780" r="3.4" fill="#8a5a2e" opacity="0.094"/><circle cx="1624.7" cy="2240" r="10.3" fill="#8a5a2e" opacity="0.118"/><circle cx="1596.8" cy="187.6" r="11.9" fill="#8a5a2e" opacity="0.081"/><circle cx="1060.1" cy="429.7" r="12.6" fill="#8a5a2e" opacity="0.067"/><circle cx="1416.9" cy="1505.6" r="10.3" fill="#8a5a2e" opacity="0.100"/><circle cx="2259.8" cy="1994" r="14.1" fill="#8a5a2e" opacity="0.086"/><circle cx="560.5" cy="1389.8" r="9.9" fill="#8a5a2e" opacity="0.103"/><circle cx="2210.6" cy="1385.6" r="4.5" fill="#8a5a2e" opacity="0.113"/><circle cx="1284.9" cy="1077.4" r="8.4" fill="#8a5a2e" opacity="0.116"/><rect width="2400" height="3000" fill="url(#a30-vig)"/></svg></svg>