<svg xmlns="http://www.w3.org/2000/svg" width="2400" height="1800" viewBox="0 0 2400 1800"><rect width="2400" height="1800" fill="#e8e2d6"/><rect y="1420" width="2400" height="380" fill="#cbb597"/><ellipse cx="1200" cy="1640" rx="760" ry="130" fill="#b8a276" opacity="0.55"/><ellipse cx="1200" cy="1640" rx="600" ry="96" fill="none" stroke="#a8502f" stroke-width="10" opacity="0.5"/><rect x="700" y="1120" width="1000" height="300" rx="40" fill="#97a08c"/><rect x="640" y="1060" width="120" height="380" rx="40" fill="#87907c"/><rect x="1640" y="1060" width="120" height="380" rx="40" fill="#87907c"/><rect x="740" y="1010" width="920" height="180" rx="36" fill="#a3ac97"/><rect x="800" y="1060" width="240" height="160" rx="30" fill="#a8502f"/><rect x="1380" y="1060" width="240" height="160" rx="30" fill="#b8a276"/><rect x="700" y="1420" width="26" height="120" fill="#6f6353"/><rect x="1674" y="1420" width="26" height="120" fill="#6f6353"/><path d="M360,1520 Q330,820 800,880" fill="none" stroke="#4c4438" stroke-width="16"/><path d="M760,870 L840,880 L810,960 L770,955 Z" fill="#4c4438"/><rect x="300" y="1510" width="130" height="20" rx="10" fill="#4c4438"/><path d="M2080,1500 Q 1918,1243.5 1837,1311" fill="none" stroke="#5d7052" stroke-width="21.6" stroke-linecap="round"/><path d="M2080,1500 Q 1972,1243.5 1918,1257" fill="none" stroke="#5d7052" stroke-width="21.6" stroke-linecap="round"/><path d="M2080,1500 Q 2026,1243.5 1999,1203" fill="none" stroke="#5d7052" stroke-width="21.6" stroke-linecap="round"/><path d="M2080,1500 Q 2080,1243.5 2080,1149" fill="none" stroke="#5d7052" stroke-width="21.6" stroke-linecap="round"/><path d="M2080,1500 Q 2134,1243.5 2161,1203" fill="none" stroke="#5d7052" stroke-width="21.6" stroke-linecap="round"/><path d="M2080,1500 Q 2188,1243.5 2242,1257" fill="none" stroke="#5d7052" stroke-width="21.6" stroke-linecap="round"/><path d="M2080,1500 Q 2242,1243.5 2323,1311" fill="none" stroke="#5d7052" stroke-width="21.6" stroke-linecap="round"/><path d="M1985.5,1500 L2174.5,1500 L2150.2,1648.5 L2009.8,1648.5 Z" fill="#a9714d"/><defs><filter id="a39l-sh" x="-30%" y="-30%" width="160%" height="160%"><feGaussianBlur stdDeviation="16"/></filter></defs><rect x="939" y="217" width="550" height="675" fill="#000" opacity="0.28" filter="url(#a39l-sh)"/><rect x="925" y="195" width="550" height="675" fill="#2e2823"/><rect x="941.3" y="211.3" width="517.5" height="642.5" fill="none" stroke="#00000055" stroke-width="3"/><rect x="950" y="220" width="500" height="625" fill="#f6f2ea"/><svg x="987.5" y="257.5" width="425" height="550" viewBox="0 0 2400 3000" preserveAspectRatio="xMidYMid slice"><filter id="a39-warp" x="-4%" y="-4%" width="108%" height="108%"><feTurbulence type="fractalNoise" baseFrequency="0.0105" numOctaves="2" seed="1909" result="w"/><feDisplacementMap in="SourceGraphic" in2="w" scale="11" xChannelSelector="R" yChannelSelector="G"/></filter><filter id="a39-grain" x="0%" y="0%" width="100%" height="100%"><feTurbulence type="fractalNoise" baseFrequency="0.6" numOctaves="2" seed="1916"/><feColorMatrix type="matrix" values="0.33 0.33 0.33 0 0.62  0.33 0.33 0.33 0 0.62  0.33 0.33 0.33 0 0.62  0 0 0 0 1"/></filter><filter id="a39-mottle" x="0%" y="0%" width="100%" height="100%"><feTurbulence type="fractalNoise" baseFrequency="0.0045" numOctaves="3" seed="1922"/><feColorMatrix type="matrix" values="0.2 0.2 0.2 0 0.78  0.2 0.2 0.2 0 0.78  0.2 0.2 0.2 0 0.78  0 0 0 0 1"/></filter><filter id="a39-fade" x="0%" y="0%" width="100%" height="100%"><feTurbulence type="fractalNoise" baseFrequency="0.006" numOctaves="2" seed="1938"/><feColorMatrix type="matrix" values="0.3 0.3 0.3 0 -0.08  0.3 0.3 0.3 0 -0.08  0.3 0.3 0.3 0 -0.1  0 0 0 0 1"/></filter><filter id="a39-blur9"><feGaussianBlur stdDeviation="9"/></filter><radialGradient id="a39-vig" cx="50%" cy="44%" r="78%"><stop offset="52%" stop-color="#241a10" stop-opacity="0"/><stop offset="100%" stop-color="#241a10" stop-opacity="0.17"/></radialGradient><radialGradient id="a39-warm" cx="59%" cy="30%" r="85%"><stop offset="0%" stop-color="#e8c890" stop-opacity="0.14"/><stop offset="70%" stop-color="#e8c890" stop-opacity="0"/></radialGradient><rect width="2400" height="3000" fill="#d9c49a"/><rect width="2400" height="3000" fill="url(#a39-warm)"/><rect x="0" width="35" height="3000" fill="#6b4e26" opacity="0.080"/><rect x="48.7" width="40.8" height="3000" fill="#6b4e26" opacity="0.073"/><rect x="105.4" width="24.8" height="3000" fill="#6b4e26" opacity="0.042"/><rect x="139.9" width="42.2" height="3000" fill="#6b4e26" opacity="0.100"/><rect x="198.4" width="36.9" height="3000" fill="#6b4e26" opacity="0.053"/><rect x="249.7" width="21.8" height="3000" fill="#6b4e26" opacity="0.073"/><rect x="279.9" width="26.7" height="3000" fill="#6b4e26" opacity="0.100"/><rect x="317" width="42" height="3000" fill="#6b4e26" opacity="0.099"/><rect x="375.4" width="24.3" height="3000" fill="#6b4e26" opacity="0.054"/><rect x="409.1" width="21.7" height="3000" fill="#6b4e26" opacity="0.055"/><rect x="439.2" width="26.7" height="3000" fill="#6b4e26" opacity="0.075"/><rect x="476.2" width="27.1" height="3000" fill="#6b4e26" opacity="0.095"/><rect x="513.9" width="22" height="3000" fill="#6b4e26" opacity="0.048"/><rect x="544.5" width="40.4" height="3000" fill="#6b4e26" opacity="0.050"/><rect x="600.7" width="35.9" height="3000" fill="#6b4e26" opacity="0.049"/><rect x="650.6" width="33.1" height="3000" fill="#6b4e26" opacity="0.059"/><rect x="696.5" width="35" height="3000" fill="#6b4e26" opacity="0.060"/><rect x="745.1" width="41.3" height="3000" fill="#6b4e26" opacity="0.062"/><rect x="802.5" width="31.5" height="3000" fill="#6b4e26" opacity="0.088"/><rect x="846.3" width="25.5" height="3000" fill="#6b4e26" opacity="0.093"/><rect x="881.6" width="23.8" height="3000" fill="#6b4e26" opacity="0.070"/><rect x="914.6" width="31.9" height="3000" fill="#6b4e26" opacity="0.033"/><rect x="958.9" width="20.3" height="3000" fill="#6b4e26" opacity="0.031"/><rect x="987.1" width="42" height="3000" fill="#6b4e26" opacity="0.099"/><rect x="1045.4" width="30.2" height="3000" fill="#6b4e26" opacity="0.083"/><rect x="1087.3" width="22" height="3000" fill="#6b4e26" opacity="0.031"/><rect x="1117.8" width="40.1" height="3000" fill="#6b4e26" opacity="0.039"/><rect x="1173.5" width="30.7" height="3000" fill="#6b4e26" opacity="0.051"/><rect x="1216.2" width="29.4" height="3000" fill="#6b4e26" opacity="0.047"/><rect x="1257" width="21.2" height="3000" fill="#6b4e26" opacity="0.075"/><rect x="1286.4" width="42.3" height="3000" fill="#6b4e26" opacity="0.065"/><rect x="1345.1" width="35.5" height="3000" fill="#6b4e26" opacity="0.052"/><rect x="1394.4" width="30.4" height="3000" fill="#6b4e26" opacity="0.040"/><rect x="1436.5" width="24.6" height="3000" fill="#6b4e26" opacity="0.062"/><rect x="1470.8" width="37.5" height="3000" fill="#6b4e26" opacity="0.093"/><rect x="1522.8" width="34.7" height="3000" fill="#6b4e26" opacity="0.045"/><rect x="1571" width="32.2" height="3000" fill="#6b4e26" opacity="0.031"/><rect x="1615.6" width="40.4" height="3000" fill="#6b4e26" opacity="0.033"/><rect x="1671.7" width="26.3" height="3000" fill="#6b4e26" opacity="0.070"/><rect x="1708.2" width="25.1" height="3000" fill="#6b4e26" opacity="0.078"/><rect x="1743" width="38.9" height="3000" fill="#6b4e26" opacity="0.041"/><rect x="1797" width="26.8" height="3000" fill="#6b4e26" opacity="0.034"/><rect x="1834.3" width="27.6" height="3000" fill="#6b4e26" opacity="0.092"/><rect x="1872.6" width="42.4" height="3000" fill="#6b4e26" opacity="0.071"/><rect x="1931.4" width="30.3" height="3000" fill="#6b4e26" opacity="0.060"/><rect x="1973.5" width="37.9" height="3000" fill="#6b4e26" opacity="0.064"/><rect x="2026.2" width="40.8" height="3000" fill="#6b4e26" opacity="0.059"/><rect x="2082.8" width="30.1" height="3000" fill="#6b4e26" opacity="0.071"/><rect x="2124.7" width="38" height="3000" fill="#6b4e26" opacity="0.063"/><rect x="2177.5" width="29.8" height="3000" fill="#6b4e26" opacity="0.086"/><rect x="2218.9" width="40.8" height="3000" fill="#6b4e26" opacity="0.058"/><rect x="2275.6" width="37.8" height="3000" fill="#6b4e26" opacity="0.056"/><rect x="2328.1" width="32.4" height="3000" fill="#6b4e26" opacity="0.036"/><rect x="2373.1" width="32.3" height="3000" fill="#6b4e26" opacity="0.076"/><rect y="0" width="2400" height="24.5" fill="#7c5c30" opacity="0.027"/><rect y="40.9" width="2400" height="22.9" fill="#7c5c30" opacity="0.033"/><rect y="79.1" width="2400" height="23.6" fill="#7c5c30" opacity="0.022"/><rect y="118.5" width="2400" height="20.7" fill="#7c5c30" opacity="0.023"/><rect y="152.9" width="2400" height="25.7" fill="#7c5c30" opacity="0.057"/><rect y="195.8" width="2400" height="28.5" fill="#7c5c30" opacity="0.039"/><rect y="243.3" width="2400" height="20.1" fill="#7c5c30" opacity="0.055"/><rect y="276.8" width="2400" height="14.1" fill="#7c5c30" opacity="0.023"/><rect y="300.4" width="2400" height="24.5" fill="#7c5c30" opacity="0.032"/><rect y="341.2" width="2400" height="23.2" fill="#7c5c30" opacity="0.058"/><rect y="379.9" width="2400" height="20.3" fill="#7c5c30" opacity="0.034"/><rect y="413.7" width="2400" height="26.4" fill="#7c5c30" opacity="0.026"/><rect y="457.7" width="2400" height="22.8" fill="#7c5c30" opacity="0.025"/><rect y="495.7" width="2400" height="16.9" fill="#7c5c30" opacity="0.040"/><rect y="523.9" width="2400" height="24.6" fill="#7c5c30" opacity="0.026"/><rect y="564.8" width="2400" height="17.6" fill="#7c5c30" opacity="0.050"/><rect y="594.1" width="2400" height="27.7" fill="#7c5c30" opacity="0.026"/><rect y="640.2" width="2400" height="19" fill="#7c5c30" opacity="0.022"/><rect y="672" width="2400" height="21.8" fill="#7c5c30" opacity="0.057"/><rect y="708.3" width="2400" height="22.5" fill="#7c5c30" opacity="0.052"/><rect y="745.8" width="2400" height="13.7" fill="#7c5c30" opacity="0.037"/><rect y="768.7" width="2400" height="17.3" fill="#7c5c30" opacity="0.052"/><rect y="797.5" width="2400" height="15.4" fill="#7c5c30" opacity="0.026"/><rect y="823.3" width="2400" height="23.3" fill="#7c5c30" opacity="0.042"/><rect y="862.1" width="2400" height="26.2" fill="#7c5c30" opacity="0.021"/><rect y="905.8" width="2400" height="16.7" fill="#7c5c30" opacity="0.040"/><rect y="933.5" width="2400" height="20" fill="#7c5c30" opacity="0.022"/><rect y="966.8" width="2400" height="25.8" fill="#7c5c30" opacity="0.042"/><rect y="1009.9" width="2400" height="22" fill="#7c5c30" opacity="0.051"/><rect y="1046.6" width="2400" height="22.9" fill="#7c5c30" opacity="0.047"/><rect y="1084.7" width="2400" height="21.3" fill="#7c5c30" opacity="0.059"/><rect y="1120.2" width="2400" height="26.5" fill="#7c5c30" opacity="0.029"/><rect y="1164.3" width="2400" height="27.1" fill="#7c5c30" opacity="0.054"/><rect y="1209.5" width="2400" height="25.2" fill="#7c5c30" opacity="0.052"/><rect y="1251.4" width="2400" height="17.8" fill="#7c5c30" opacity="0.023"/><rect y="1281" width="2400" height="21.6" fill="#7c5c30" opacity="0.032"/><rect y="1317.1" width="2400" height="23.6" fill="#7c5c30" opacity="0.021"/><rect y="1356.5" width="2400" height="14.9" fill="#7c5c30" opacity="0.039"/><rect y="1381.2" width="2400" height="15.7" fill="#7c5c30" opacity="0.056"/><rect y="1407.3" width="2400" height="25.2" fill="#7c5c30" opacity="0.054"/><rect y="1449.3" width="2400" height="21.1" fill="#7c5c30" opacity="0.048"/><rect y="1484.5" width="2400" height="19.7" fill="#7c5c30" opacity="0.047"/><rect y="1517.4" width="2400" height="21.5" fill="#7c5c30" opacity="0.048"/><rect y="1553.2" width="2400" height="19.2" fill="#7c5c30" opacity="0.024"/><rect y="1585.2" width="2400" height="14.8" fill="#7c5c30" opacity="0.022"/><rect y="1609.9" width="2400" height="22.5" fill="#7c5c30" opacity="0.060"/><rect y="1647.4" width="2400" height="26.4" fill="#7c5c30" opacity="0.056"/><rect y="1691.3" width="2400" height="16.2" fill="#7c5c30" opacity="0.029"/><rect y="1718.3" width="2400" height="19.2" fill="#7c5c30" opacity="0.058"/><rect y="1750.3" width="2400" height="22.9" fill="#7c5c30" opacity="0.056"/><rect y="1788.5" width="2400" height="12.4" fill="#7c5c30" opacity="0.026"/><rect y="1809.2" width="2400" height="27.6" fill="#7c5c30" opacity="0.055"/><rect y="1855.1" width="2400" height="13.7" fill="#7c5c30" opacity="0.027"/><rect y="1877.9" width="2400" height="23.1" fill="#7c5c30" opacity="0.055"/><rect y="1916.4" width="2400" height="24.1" fill="#7c5c30" opacity="0.028"/><rect y="1956.5" width="2400" height="14.5" fill="#7c5c30" opacity="0.026"/><rect y="1980.7" width="2400" height="25.9" fill="#7c5c30" opacity="0.025"/><rect y="2023.9" width="2400" height="13" fill="#7c5c30" opacity="0.027"/><rect y="2045.6" width="2400" height="15.5" fill="#7c5c30" opacity="0.023"/><rect y="2071.4" width="2400" height="13.5" fill="#7c5c30" opacity="0.027"/><rect y="2093.9" width="2400" height="16.7" fill="#7c5c30" opacity="0.027"/><rect y="2121.6" width="2400" height="19" fill="#7c5c30" opacity="0.035"/><rect y="2153.3" width="2400" height="21.4" fill="#7c5c30" opacity="0.028"/><rect y="2189" width="2400" height="20.4" fill="#7c5c30" opacity="0.022"/><rect y="2223" width="2400" height="25.3" fill="#7c5c30" opacity="0.049"/><rect y="2265.1" width="2400" height="19.7" fill="#7c5c30" opacity="0.056"/><rect y="2298" width="2400" height="21.4" fill="#7c5c30" opacity="0.060"/><rect y="2333.7" width="2400" height="28" fill="#7c5c30" opacity="0.037"/><rect y="2380.3" width="2400" height="18.4" fill="#7c5c30" opacity="0.046"/><rect y="2411.1" width="2400" height="19" fill="#7c5c30" opacity="0.049"/><rect y="2442.7" width="2400" height="15.5" fill="#7c5c30" opacity="0.051"/><rect y="2468.5" width="2400" height="22.5" fill="#7c5c30" opacity="0.020"/><rect y="2506" width="2400" height="16.8" fill="#7c5c30" opacity="0.034"/><rect y="2534" width="2400" height="17" fill="#7c5c30" opacity="0.035"/><rect y="2562.4" width="2400" height="28.5" fill="#7c5c30" opacity="0.043"/><rect y="2609.9" width="2400" height="14.1" fill="#7c5c30" opacity="0.048"/><rect y="2633.4" width="2400" height="19.8" fill="#7c5c30" opacity="0.038"/><rect y="2666.5" width="2400" height="23.3" fill="#7c5c30" opacity="0.033"/><rect y="2705.3" width="2400" height="21" fill="#7c5c30" opacity="0.039"/><rect y="2740.2" width="2400" height="22.6" fill="#7c5c30" opacity="0.057"/><rect y="2778" width="2400" height="28" fill="#7c5c30" opacity="0.044"/><rect y="2824.6" width="2400" height="17.1" fill="#7c5c30" opacity="0.021"/><rect y="2853.1" width="2400" height="23.7" fill="#7c5c30" opacity="0.027"/><rect y="2892.6" width="2400" height="22.8" fill="#7c5c30" opacity="0.054"/><rect y="2930.6" width="2400" height="14.8" fill="#7c5c30" opacity="0.054"/><rect y="2955.2" width="2400" height="22.8" fill="#7c5c30" opacity="0.028"/><rect y="2993.1" width="2400" height="17.8" fill="#7c5c30" opacity="0.054"/><g filter="url(#a39-warp)"><clipPath id="a39-gz"><rect x="150" y="150" width="2100" height="2700"/></clipPath><g clip-path="url(#a39-gz)"><circle cx="1076.8" cy="947.7" r="301.6" fill="#a8502f"/><path d="M150,2050 C 700,1910.3 1100,2189.7 1600,1966.2 S 2200,2105.9 2250,2030 L2250,2850 L150,2850 Z" fill="#2c2820" opacity="0.35"/><path d="M150,2270 C 700,2170.7 1100,2369.3 1600,2210.4 S 2200,2309.7 2250,2250 L2250,2850 L150,2850 Z" fill="#b8a276" opacity="0.9"/><path d="M150,2520 C 700,2423.6 1100,2616.4 1600,2462.2 S 2200,2558.6 2250,2500 L2250,2850 L150,2850 Z" fill="#2c2820" opacity="1"/><polygon points="658.6,1274.4 220,2130 737,2130" fill="#2c2820"/><polygon points="658.6,1274.4 737,2130 1097.2,2130" fill="#2c2820" opacity="0.6"/><polygon points="1230.5,1455.2 698.2,2130 1327.2,2130" fill="#2c2820"/><polygon points="1230.5,1455.2 1327.2,2130 1762.8,2130" fill="#2c2820" opacity="0.6"/><path d="M1765.3,1064.6 q 26,-24 52,0 q 26,-24 52,0" fill="none" stroke="#2c2820" stroke-width="8" stroke-linecap="round"/><path d="M893.4,660.3 q 26,-24 52,0 q 26,-24 52,0" fill="none" stroke="#2c2820" stroke-width="8" stroke-linecap="round"/></g><polyline points="240,2800 300,2740 360,2800 420,2740 480,2800 540,2740 600,2800 660,2740 720,2800 780,2740 840,2800 900,2740 960,2800 1020,2740 1080,2800 1140,2740 1200,2800 1260,2740 1320,2800 1380,2740 1440,2800 1500,2740 1560,2800 1620,2740 1680,2800 1740,2740 1800,2800 1860,2740 1920,2800 1980,2740 2040,2800 2100,2740 2160,2800 " fill="none" stroke="#2c2820" stroke-width="10.8" stroke-linejoin="miter"/><rect x="120" y="120" width="2160" height="2760" fill="none" stroke="#2c2820" stroke-width="6" opacity="0.85"/></g><rect width="2400" height="3000" filter="url(#a39-mottle)" style="mix-blend-mode:multiply" opacity="0.5"/><rect width="2400" height="3000" filter="url(#a39-fade)" style="mix-blend-mode:screen" opacity="0.55"/><rect width="2400" height="3000" filter="url(#a39-grain)" style="mix-blend-mode:multiply" opacity="0.32"/><ellipse cx="1348.6" cy="1385.8" rx="248.8" ry="158.7" fill="#6b4a22" opacity="0.038" filter="url(#a39-blur9)"/><ellipse cx="1877.2" cy="2220.2" rx="169.4" ry="102.5" fill="#6b4a22" opacity="0.053" filter="url(#a39-blur9)"/><ellipse cx="936" cy="2244.8" rx="157.9" ry="120.3" fill="#6b4a22" opacity="0.035" filter="url(#a39-blur9)"/><ellipse cx="1553.8" cy="2581.1" rx="118.6" ry="128.2" fill="#6b4a22" opacity="0.035" filter="url(#a39-blur9)"/><ellipse cx="2231.7" cy="1109.8" rx="226.7" ry="164" fill="#6b4a22" opacity="0.031" filter="url(#a39-blur9)"/><ellipse cx="925.7" cy="780.1" rx="161.1" ry="89.5" fill="#6b4a22" opacity="0.056" filter="url(#a39-blur9)"/><rect x="0" width="19.1" height="3000" fill="#fff2d0" opacity="0.039"/><rect x="38.1" width="21.6" height="3000" fill="#fff2d0" opacity="0.028"/><rect x="81.3" width="20.4" height="3000" fill="#fff2d0" opacity="0.016"/><rect x="122" width="17.8" height="3000" fill="#fff2d0" opacity="0.045"/><rect x="157.6" width="29.8" height="3000" fill="#fff2d0" opacity="0.041"/><rect x="217.1" width="24.9" height="3000" fill="#fff2d0" opacity="0.018"/><rect x="266.8" width="31.9" height="3000" fill="#fff2d0" opacity="0.018"/><rect x="330.7" width="22.8" height="3000" fill="#fff2d0" opacity="0.022"/><rect x="376.2" width="18.4" height="3000" fill="#fff2d0" opacity="0.021"/><rect x="412.9" width="29.8" height="3000" fill="#fff2d0" opacity="0.029"/><rect x="472.4" width="21.8" height="3000" fill="#fff2d0" opacity="0.024"/><rect x="516" width="33.1" height="3000" fill="#fff2d0" opacity="0.031"/><rect x="582.2" width="33" height="3000" fill="#fff2d0" opacity="0.020"/><rect x="648.2" width="18.4" height="3000" fill="#fff2d0" opacity="0.035"/><rect x="685" width="17" height="3000" fill="#fff2d0" opacity="0.036"/><rect x="719.1" width="22.2" height="3000" fill="#fff2d0" opacity="0.024"/><rect x="763.5" width="17.2" height="3000" fill="#fff2d0" opacity="0.018"/><rect x="797.9" width="26.5" height="3000" fill="#fff2d0" opacity="0.043"/><rect x="851" width="16.7" height="3000" fill="#fff2d0" opacity="0.026"/><rect x="884.4" width="18.5" height="3000" fill="#fff2d0" opacity="0.036"/><rect x="921.4" width="32.1" height="3000" fill="#fff2d0" opacity="0.041"/><rect x="985.6" width="33.7" height="3000" fill="#fff2d0" opacity="0.042"/><rect x="1052.9" width="35" height="3000" fill="#fff2d0" opacity="0.044"/><rect x="1122.9" width="29.8" height="3000" fill="#fff2d0" opacity="0.031"/><rect x="1182.5" width="19.5" height="3000" fill="#fff2d0" opacity="0.036"/><rect x="1221.5" width="33" height="3000" fill="#fff2d0" opacity="0.044"/><rect x="1287.5" width="21.6" height="3000" fill="#fff2d0" opacity="0.031"/><rect x="1330.7" width="22.8" height="3000" fill="#fff2d0" opacity="0.035"/><rect x="1376.3" width="23.9" height="3000" fill="#fff2d0" opacity="0.027"/><rect x="1424.2" width="17" height="3000" fill="#fff2d0" opacity="0.016"/><rect x="1458.1" width="22.6" height="3000" fill="#fff2d0" opacity="0.030"/><rect x="1503.4" width="15.6" height="3000" fill="#fff2d0" opacity="0.025"/><rect x="1534.6" width="23.8" height="3000" fill="#fff2d0" opacity="0.023"/><rect x="1582.2" width="28.7" height="3000" fill="#fff2d0" opacity="0.041"/><rect x="1639.7" width="31.2" height="3000" fill="#fff2d0" opacity="0.018"/><rect x="1702.1" width="27" height="3000" fill="#fff2d0" opacity="0.043"/><rect x="1756.1" width="25.9" height="3000" fill="#fff2d0" opacity="0.037"/><rect x="1807.9" width="15.2" height="3000" fill="#fff2d0" opacity="0.020"/><rect x="1838.4" width="19.9" height="3000" fill="#fff2d0" opacity="0.030"/><rect x="1878.2" width="23.8" height="3000" fill="#fff2d0" opacity="0.023"/><rect x="1925.8" width="27.6" height="3000" fill="#fff2d0" opacity="0.018"/><rect x="1981" width="31.5" height="3000" fill="#fff2d0" opacity="0.023"/><rect x="2044" width="31.4" height="3000" fill="#fff2d0" opacity="0.016"/><rect x="2106.8" width="22.1" height="3000" fill="#fff2d0" opacity="0.031"/><rect x="2150.9" width="33.1" height="3000" fill="#fff2d0" opacity="0.036"/><rect x="2217.1" width="23.5" height="3000" fill="#fff2d0" opacity="0.021"/><rect x="2264.1" width="29.3" height="3000" fill="#fff2d0" opacity="0.031"/><rect x="2322.8" width="25.1" height="3000" fill="#fff2d0" opacity="0.038"/><rect x="2372.9" width="18.8" height="3000" fill="#fff2d0" opacity="0.015"/><linearGradient id="a39-er" x1="0" x2="1" y1="0" y2="0"><stop offset="0" stop-color="#3a2a12" stop-opacity="0.22"/><stop offset="1" stop-color="#3a2a12" stop-opacity="0"/></linearGradient><rect x="0" y="0" width="90" height="3000" fill="url(#a39-er)"/><linearGradient id="a39-el" x1="1" x2="0" y1="0" y2="0"><stop offset="0" stop-color="#3a2a12" stop-opacity="0.22"/><stop offset="1" stop-color="#3a2a12" stop-opacity="0"/></linearGradient><rect x="2310" y="0" width="90" height="3000" fill="url(#a39-el)"/><linearGradient id="a39-ed" x1="0" x2="0" y1="0" y2="1"><stop offset="0" stop-color="#3a2a12" stop-opacity="0.22"/><stop offset="1" stop-color="#3a2a12" stop-opacity="0"/></linearGradient><rect x="0" y="0" width="2400" height="90" fill="url(#a39-ed)"/><linearGradient id="a39-eu" x1="0" x2="0" y1="1" y2="0"><stop offset="0" stop-color="#3a2a12" stop-opacity="0.22"/><stop offset="1" stop-color="#3a2a12" stop-opacity="0"/></linearGradient><rect x="0" y="2910" width="2400" height="90" fill="url(#a39-eu)"/><circle cx="928.4" cy="827.7" r="6" fill="#8a5a2e" opacity="0.084"/><circle cx="1656.1" cy="2739.1" r="3.6" fill="#8a5a2e" opacity="0.048"/><circle cx="1235.4" cy="2422.1" r="3.6" fill="#8a5a2e" opacity="0.114"/><circle cx="1599.4" cy="1081.2" r="15.1" fill="#8a5a2e" opacity="0.080"/><circle cx="1128" cy="1510.9" r="11.5" fill="#8a5a2e" opacity="0.101"/><circle cx="2170.8" cy="2424.5" r="6.9" fill="#8a5a2e" opacity="0.097"/><circle cx="434.5" cy="1381.8" r="11.9" fill="#8a5a2e" opacity="0.061"/><circle cx="566.6" cy="1659.3" r="7.3" fill="#8a5a2e" opacity="0.068"/><circle cx="1038.9" cy="411.2" r="15.6" fill="#8a5a2e" opacity="0.120"/><circle cx="2302.1" cy="2746.8" r="6.2" fill="#8a5a2e" opacity="0.065"/><circle cx="540.6" cy="1689.4" r="14.8" fill="#8a5a2e" opacity="0.041"/><circle cx="1706.7" cy="2240.2" r="5.4" fill="#8a5a2e" opacity="0.090"/><rect width="2400" height="3000" fill="url(#a39-vig)"/></svg></svg>