<svg xmlns="http://www.w3.org/2000/svg" width="2400" height="1800" viewBox="0 0 2400 1800"><rect width="2400" height="1800" fill="#e3dccd"/><rect x="160" y="240" width="560" height="1060" fill="none" stroke="#cabfa9" stroke-width="10"/><rect x="200" y="280" width="480" height="980" fill="none" stroke="#cabfa9" stroke-width="5"/><rect x="1680" y="240" width="560" height="1060" fill="none" stroke="#cabfa9" stroke-width="10"/><rect x="1720" y="280" width="480" height="980" fill="none" stroke="#cabfa9" stroke-width="5"/><rect y="1380" width="2400" height="420" fill="#a98f6d"/><line x1="0" y1="1380" x2="-70" y2="1800" stroke="#00000018" stroke-width="6"/><line x1="190" y1="1380" x2="120" y2="1800" stroke="#00000018" stroke-width="6"/><line x1="380" y1="1380" x2="310" y2="1800" stroke="#00000018" stroke-width="6"/><line x1="570" y1="1380" x2="500" y2="1800" stroke="#00000018" stroke-width="6"/><line x1="760" y1="1380" x2="690" y2="1800" stroke="#00000018" stroke-width="6"/><line x1="950" y1="1380" x2="880" y2="1800" stroke="#00000018" stroke-width="6"/><line x1="1140" y1="1380" x2="1070" y2="1800" stroke="#00000018" stroke-width="6"/><line x1="1330" y1="1380" x2="1260" y2="1800" stroke="#00000018" stroke-width="6"/><line x1="1520" y1="1380" x2="1450" y2="1800" stroke="#00000018" stroke-width="6"/><line x1="1710" y1="1380" x2="1640" y2="1800" stroke="#00000018" stroke-width="6"/><line x1="1900" y1="1380" x2="1830" y2="1800" stroke="#00000018" stroke-width="6"/><line x1="2090" y1="1380" x2="2020" y2="1800" stroke="#00000018" stroke-width="6"/><line x1="2280" y1="1380" x2="2210" y2="1800" stroke="#00000018" stroke-width="6"/><rect y="1364" width="2400" height="18" fill="#d3c8b2"/><path d="M700,1500 L1700,1500 L1860,1800 L540,1800 Z" fill="#96a396" opacity="0.75"/><path d="M760,1540 L1640,1540 L1760,1760 L640,1760 Z" fill="none" stroke="#f4ecdd" stroke-width="10" opacity="0.8"/><rect x="880" y="1180" width="640" height="40" rx="8" fill="#6f5436"/><rect x="920" y="1220" width="44" height="240" fill="#5e4629"/><rect x="1436" y="1220" width="44" height="240" fill="#5e4629"/><path d="M1160,1180 q -14,-90 40,-160 M1200,1180 q 4,-120 -10,-200 M1230,1180 q 30,-90 90,-130" stroke="#5d7052" stroke-width="12" fill="none" stroke-linecap="round"/><path d="M1150,1180 L1250,1180 L1230,1080 L1170,1080 Z" fill="#cfc7b2" transform="translate(0,0)"/><path d="M1155,1060 h90 l-12,124 h-66 Z" fill="#b98a5a"/><rect x="1380" y="1120" width="18" height="60" fill="#8f6b3d"/><ellipse cx="1389" cy="1116" rx="16" ry="10" fill="#c9a227"/><defs><filter id="a29h-sh" x="-30%" y="-30%" width="160%" height="160%"><feGaussianBlur stdDeviation="16"/></filter></defs><rect x="950" y="258" width="528" height="648" fill="#000" opacity="0.28" filter="url(#a29h-sh)"/><rect x="936" y="236" width="528" height="648" fill="#33291f"/><rect x="951.6" y="251.6" width="496.8" height="616.8" fill="none" stroke="#00000055" stroke-width="3"/><rect x="960" y="260" width="480" height="600" fill="#f6f2ea"/><svg x="996" y="296" width="408" height="528" viewBox="0 0 2400 3000" preserveAspectRatio="xMidYMid slice"><rect width="2400" height="3000" fill="#e7e1d3"/><radialGradient id="a29-vig" cx="50%" cy="42%" r="80%"><stop offset="55%" stop-color="#000" stop-opacity="0"/><stop offset="100%" stop-color="#000" stop-opacity="0.15"/></radialGradient><rect width="2400" height="3000" fill="url(#a29-vig)"/><circle cx="1731.8" cy="46.3" r="3.4" fill="#39685c" opacity="0.031"/><circle cx="926.4" cy="238.6" r="2.4" fill="#39685c" opacity="0.033"/><circle cx="1517.9" cy="1647.2" r="3.3" fill="#39685c" opacity="0.065"/><circle cx="578.2" cy="244.7" r="2.7" fill="#39685c" opacity="0.042"/><circle cx="487.5" cy="1818.9" r="2.9" fill="#39685c" opacity="0.061"/><circle cx="1809.5" cy="1692.1" r="1.9" fill="#39685c" opacity="0.061"/><circle cx="836.1" cy="2196.8" r="4.1" fill="#39685c" opacity="0.062"/><circle cx="152.1" cy="2417.4" r="3" fill="#39685c" opacity="0.052"/><circle cx="2006.3" cy="2012.4" r="3.3" fill="#39685c" opacity="0.066"/><circle cx="1338.8" cy="2390.7" r="2.2" fill="#39685c" opacity="0.042"/><circle cx="151.2" cy="2913.7" r="3.4" fill="#39685c" opacity="0.031"/><circle cx="728.5" cy="143.7" r="4.2" fill="#39685c" opacity="0.062"/><circle cx="1069.2" cy="2317.3" r="3.5" fill="#39685c" opacity="0.043"/><circle cx="1919.4" cy="1263.8" r="1.8" fill="#39685c" opacity="0.077"/><circle cx="2169.9" cy="1258.8" r="3.7" fill="#39685c" opacity="0.034"/><circle cx="987.9" cy="2498.3" r="3.6" fill="#39685c" opacity="0.071"/><circle cx="1397" cy="503.2" r="1.7" fill="#39685c" opacity="0.078"/><circle cx="1202.7" cy="671.4" r="3.1" fill="#39685c" opacity="0.046"/><circle cx="1361.5" cy="2222.7" r="3.9" fill="#39685c" opacity="0.065"/><circle cx="1621.4" cy="60.1" r="1.8" fill="#39685c" opacity="0.034"/><circle cx="1863.6" cy="428.3" r="1.9" fill="#39685c" opacity="0.066"/><circle cx="1782" cy="379.6" r="2.7" fill="#39685c" opacity="0.035"/><circle cx="1575" cy="720.6" r="2.9" fill="#39685c" opacity="0.074"/><circle cx="1506.9" cy="2238.7" r="2.6" fill="#39685c" opacity="0.040"/><circle cx="851.9" cy="1214.4" r="3.8" fill="#39685c" opacity="0.036"/><circle cx="1913.3" cy="1001.1" r="3.6" fill="#39685c" opacity="0.077"/><circle cx="2273.8" cy="355.7" r="2.9" fill="#39685c" opacity="0.078"/><circle cx="2039.4" cy="812.6" r="2.1" fill="#39685c" opacity="0.057"/><circle cx="839.5" cy="56.5" r="3.7" fill="#39685c" opacity="0.063"/><circle cx="606" cy="177.1" r="2.6" fill="#39685c" opacity="0.060"/><circle cx="1886" cy="876" r="3.3" fill="#39685c" opacity="0.077"/><circle cx="2025" cy="1417.3" r="3.8" fill="#39685c" opacity="0.045"/><circle cx="162.8" cy="930.3" r="2.6" fill="#39685c" opacity="0.057"/><circle cx="649.1" cy="2446.5" r="3.4" fill="#39685c" opacity="0.040"/><circle cx="1536.9" cy="1847.4" r="2.6" fill="#39685c" opacity="0.054"/><circle cx="1680" cy="351.5" r="1.9" fill="#39685c" opacity="0.046"/><circle cx="1311.1" cy="2869.7" r="1.8" fill="#39685c" opacity="0.072"/><circle cx="1460.1" cy="952" r="3" fill="#39685c" opacity="0.046"/><circle cx="379.5" cy="2796.2" r="1.6" fill="#39685c" opacity="0.034"/><circle cx="418.4" cy="2288.2" r="1.9" fill="#39685c" opacity="0.062"/><circle cx="1681.8" cy="2893.1" r="3.8" fill="#39685c" opacity="0.051"/><circle cx="1501.6" cy="2804.3" r="2.7" fill="#39685c" opacity="0.071"/><circle cx="1096.3" cy="2903.4" r="2.3" fill="#39685c" opacity="0.059"/><circle cx="902" cy="1596.3" r="3.1" fill="#39685c" opacity="0.058"/><circle cx="1726.7" cy="729.6" r="4.2" fill="#39685c" opacity="0.074"/><circle cx="534.8" cy="500.2" r="2.7" fill="#39685c" opacity="0.057"/><circle cx="356.7" cy="1868.5" r="2.4" fill="#39685c" opacity="0.033"/><circle cx="130.1" cy="2566.3" r="1.8" fill="#39685c" opacity="0.036"/><circle cx="2203.4" cy="971.1" r="2.6" fill="#39685c" opacity="0.035"/><circle cx="951.5" cy="1117.5" r="1.8" fill="#39685c" opacity="0.034"/><circle cx="1691.6" cy="514.3" r="3.3" fill="#39685c" opacity="0.079"/><circle cx="136.4" cy="1713.4" r="1.8" fill="#39685c" opacity="0.072"/><circle cx="2108.8" cy="2487.4" r="2.1" fill="#39685c" opacity="0.080"/><circle cx="1396.8" cy="801" r="3.1" fill="#39685c" opacity="0.060"/><circle cx="496.4" cy="738.4" r="3.3" fill="#39685c" opacity="0.038"/><circle cx="1771.3" cy="673.5" r="3.2" fill="#39685c" opacity="0.043"/><circle cx="1446.5" cy="2007.5" r="2.4" fill="#39685c" opacity="0.071"/><circle cx="775.7" cy="1245.3" r="4.4" fill="#39685c" opacity="0.037"/><circle cx="1899" cy="713.7" r="4.2" fill="#39685c" opacity="0.061"/><circle cx="1430" cy="996.6" r="4.2" fill="#39685c" opacity="0.070"/><circle cx="1064.2" cy="1413.4" r="3.9" fill="#39685c" opacity="0.067"/><circle cx="502.2" cy="542.3" r="3.2" fill="#39685c" opacity="0.079"/><circle cx="1841" cy="768.2" r="2.3" fill="#39685c" opacity="0.049"/><circle cx="1267.8" cy="1590.2" r="3.9" fill="#39685c" opacity="0.053"/><circle cx="362.2" cy="1799.5" r="3" fill="#39685c" opacity="0.060"/><circle cx="2335.8" cy="726.7" r="2" fill="#39685c" opacity="0.071"/><circle cx="1290" cy="1469.4" r="2.8" fill="#39685c" opacity="0.054"/><circle cx="961.5" cy="2954" r="1.8" fill="#39685c" opacity="0.039"/><circle cx="2259.2" cy="984.6" r="4" fill="#39685c" opacity="0.032"/><circle cx="80.5" cy="1912.3" r="2.2" fill="#39685c" opacity="0.077"/><circle cx="575.7" cy="355.7" r="2.6" fill="#39685c" opacity="0.040"/><circle cx="1696.9" cy="1183.6" r="3.4" fill="#39685c" opacity="0.039"/><circle cx="1452.6" cy="800.2" r="4" fill="#39685c" opacity="0.049"/><circle cx="108.7" cy="2542" r="1.7" fill="#39685c" opacity="0.063"/><circle cx="406.9" cy="2818" r="3.8" fill="#39685c" opacity="0.044"/><circle cx="926" cy="1239.1" r="3" fill="#39685c" opacity="0.040"/><circle cx="846.2" cy="2565.6" r="1.8" fill="#39685c" opacity="0.033"/><circle cx="1547.5" cy="2395.4" r="2.3" fill="#39685c" opacity="0.073"/><circle cx="737.4" cy="1992.5" r="2.8" fill="#39685c" opacity="0.069"/><circle cx="1952.3" cy="216" r="4.1" fill="#39685c" opacity="0.035"/><rect x="210" y="300" width="1980" height="8.9" fill="#39685c"/><rect x="210" y="308.4" width="1980" height="8.9" fill="#96a396"/><rect x="210" y="316.8" width="1980" height="8.9" fill="#39685c"/><rect x="210" y="325.2" width="1980" height="8.9" fill="#cfc7b2"/><rect x="210" y="333.6" width="1980" height="8.9" fill="#39685c"/><rect x="210" y="885" width="1980" height="8.9" fill="#39685c"/><rect x="210" y="893.4" width="1980" height="8.9" fill="#96a396"/><rect x="210" y="901.8" width="1980" height="8.9" fill="#39685c"/><rect x="210" y="910.2" width="1980" height="8.9" fill="#cfc7b2"/><rect x="210" y="918.6" width="1980" height="8.9" fill="#39685c"/><rect x="210" y="1470" width="1980" height="8.9" fill="#39685c"/><rect x="210" y="1478.4" width="1980" height="8.9" fill="#96a396"/><rect x="210" y="1486.8" width="1980" height="8.9" fill="#39685c"/><rect x="210" y="1495.2" width="1980" height="8.9" fill="#cfc7b2"/><rect x="210" y="1503.6" width="1980" height="8.9" fill="#39685c"/><rect x="210" y="2055" width="1980" height="8.9" fill="#39685c"/><rect x="210" y="2063.4" width="1980" height="8.9" fill="#96a396"/><rect x="210" y="2071.8" width="1980" height="8.9" fill="#39685c"/><rect x="210" y="2080.2" width="1980" height="8.9" fill="#cfc7b2"/><rect x="210" y="2088.6" width="1980" height="8.9" fill="#39685c"/><rect x="210" y="2640" width="1980" height="8.9" fill="#39685c"/><rect x="210" y="2648.4" width="1980" height="8.9" fill="#96a396"/><rect x="210" y="2656.8" width="1980" height="8.9" fill="#39685c"/><rect x="210" y="2665.2" width="1980" height="8.9" fill="#cfc7b2"/><rect x="210" y="2673.6" width="1980" height="8.9" fill="#39685c"/><path d="M0 0 Q 69.5 -108.1 0 -284.5 Q -69.5 -108.1 0 0 Z" fill="#39685c" opacity="1" transform="translate(408 809.7) rotate(-58)"/><path d="M0 0 Q 69.5 -121 0 -318.4 Q -69.5 -121 0 0 Z" fill="#96a396" opacity="1" transform="translate(408 809.7) rotate(-38.7)"/><path d="M0 0 Q 69.5 -133.9 0 -352.4 Q -69.5 -133.9 0 0 Z" fill="#39685c" opacity="1" transform="translate(408 809.7) rotate(-19.3)"/><path d="M0 0 Q 69.5 -146.8 0 -386.3 Q -69.5 -146.8 0 0 Z" fill="#96a396" opacity="1" transform="translate(408 809.7) rotate(0)"/><path d="M0 0 Q 69.5 -133.9 0 -352.4 Q -69.5 -133.9 0 0 Z" fill="#39685c" opacity="1" transform="translate(408 809.7) rotate(19.3)"/><path d="M0 0 Q 69.5 -121 0 -318.4 Q -69.5 -121 0 0 Z" fill="#96a396" opacity="1" transform="translate(408 809.7) rotate(38.7)"/><path d="M0 0 Q 69.5 -108.1 0 -284.5 Q -69.5 -108.1 0 0 Z" fill="#39685c" opacity="1" transform="translate(408 809.7) rotate(58)"/><path d="M292.1,809.7 Q408,941 523.9,809.7 Z" fill="#39685c"/><path d="M0 0 Q 63.7 -121 0 -318.4 Q -63.7 -121 0 0 Z" fill="#96a396" opacity="1" transform="translate(804 809.7) rotate(0)"/><line x1="804" y1="809.7" x2="804" y2="856.5" stroke="#39685c" stroke-width="19.9"/><path d="M0 0 Q 69.2 -107.5 0 -283 Q -69.2 -107.5 0 0 Z" fill="#39685c" opacity="1" transform="translate(1200 809.7) rotate(-58)"/><path d="M0 0 Q 69.2 -126.8 0 -333.7 Q -69.2 -126.8 0 0 Z" fill="#96a396" opacity="1" transform="translate(1200 809.7) rotate(-29)"/><path d="M0 0 Q 69.2 -146 0 -384.3 Q -69.2 -146 0 0 Z" fill="#39685c" opacity="1" transform="translate(1200 809.7) rotate(0)"/><path d="M0 0 Q 69.2 -126.8 0 -333.7 Q -69.2 -126.8 0 0 Z" fill="#96a396" opacity="1" transform="translate(1200 809.7) rotate(29)"/><path d="M0 0 Q 69.2 -107.5 0 -283 Q -69.2 -107.5 0 0 Z" fill="#39685c" opacity="1" transform="translate(1200 809.7) rotate(58)"/><path d="M1084.7,809.7 Q1200,940.4 1315.3,809.7 Z" fill="#39685c"/><path d="M0 0 Q 62 -117.8 0 -310.1 Q -62 -117.8 0 0 Z" fill="#96a396" opacity="1" transform="translate(1596 809.7) rotate(0)"/><line x1="1596" y1="809.7" x2="1596" y2="856.5" stroke="#39685c" stroke-width="19.4"/><path d="M0 0 Q 71.9 -111.7 0 -294 Q -71.9 -111.7 0 0 Z" fill="#39685c" opacity="1" transform="translate(1992 809.7) rotate(-58)"/><path d="M0 0 Q 71.9 -125.1 0 -329.1 Q -71.9 -125.1 0 0 Z" fill="#96a396" opacity="1" transform="translate(1992 809.7) rotate(-38.7)"/><path d="M0 0 Q 71.9 -138.4 0 -364.2 Q -71.9 -138.4 0 0 Z" fill="#39685c" opacity="1" transform="translate(1992 809.7) rotate(-19.3)"/><path d="M0 0 Q 71.9 -151.7 0 -399.3 Q -71.9 -151.7 0 0 Z" fill="#96a396" opacity="1" transform="translate(1992 809.7) rotate(0)"/><path d="M0 0 Q 71.9 -138.4 0 -364.2 Q -71.9 -138.4 0 0 Z" fill="#39685c" opacity="1" transform="translate(1992 809.7) rotate(19.3)"/><path d="M0 0 Q 71.9 -125.1 0 -329.1 Q -71.9 -125.1 0 0 Z" fill="#96a396" opacity="1" transform="translate(1992 809.7) rotate(38.7)"/><path d="M0 0 Q 71.9 -111.7 0 -294 Q -71.9 -111.7 0 0 Z" fill="#39685c" opacity="1" transform="translate(1992 809.7) rotate(58)"/><path d="M1872.2,809.7 Q1992,945.5 2111.8,809.7 Z" fill="#39685c"/><line x1="408" y1="1394.7" x2="408" y2="1167.3" stroke="#39685c" stroke-width="24.8"/><line x1="408" y1="1167.3" x2="244.5" y2="1087.6" stroke="#39685c" stroke-width="18.6" stroke-linecap="round"/><circle cx="244.5" cy="1087.6" r="18.6" fill="#96a396"/><line x1="408" y1="1167.3" x2="259" y2="1033.1" stroke="#39685c" stroke-width="18.6" stroke-linecap="round"/><circle cx="259" cy="1033.1" r="18.6" fill="#96a396"/><line x1="408" y1="1167.3" x2="291.9" y2="981.5" stroke="#39685c" stroke-width="18.6" stroke-linecap="round"/><circle cx="291.9" cy="981.5" r="18.6" fill="#96a396"/><line x1="408" y1="1167.3" x2="342.5" y2="938.8" stroke="#39685c" stroke-width="18.6" stroke-linecap="round"/><circle cx="342.5" cy="938.8" r="18.6" fill="#96a396"/><line x1="408" y1="1167.3" x2="408" y2="911" stroke="#39685c" stroke-width="18.6" stroke-linecap="round"/><circle cx="408" cy="911" r="18.6" fill="#96a396"/><line x1="408" y1="1167.3" x2="473.5" y2="938.8" stroke="#39685c" stroke-width="18.6" stroke-linecap="round"/><circle cx="473.5" cy="938.8" r="18.6" fill="#96a396"/><line x1="408" y1="1167.3" x2="524.1" y2="981.5" stroke="#39685c" stroke-width="18.6" stroke-linecap="round"/><circle cx="524.1" cy="981.5" r="18.6" fill="#96a396"/><line x1="408" y1="1167.3" x2="557" y2="1033.1" stroke="#39685c" stroke-width="18.6" stroke-linecap="round"/><circle cx="557" cy="1033.1" r="18.6" fill="#96a396"/><line x1="408" y1="1167.3" x2="571.5" y2="1087.6" stroke="#39685c" stroke-width="18.6" stroke-linecap="round"/><circle cx="571.5" cy="1087.6" r="18.6" fill="#96a396"/><line x1="804" y1="1394.7" x2="804" y2="1175.6" stroke="#39685c" stroke-width="23.9"/><line x1="804" y1="1175.6" x2="646.5" y2="1098.8" stroke="#39685c" stroke-width="17.9" stroke-linecap="round"/><circle cx="646.5" cy="1098.8" r="17.9" fill="#96a396"/><line x1="804" y1="1175.6" x2="660.4" y2="1046.4" stroke="#39685c" stroke-width="17.9" stroke-linecap="round"/><circle cx="660.4" cy="1046.4" r="17.9" fill="#96a396"/><line x1="804" y1="1175.6" x2="692.1" y2="996.6" stroke="#39685c" stroke-width="17.9" stroke-linecap="round"/><circle cx="692.1" cy="996.6" r="17.9" fill="#96a396"/><line x1="804" y1="1175.6" x2="740.9" y2="955.5" stroke="#39685c" stroke-width="17.9" stroke-linecap="round"/><circle cx="740.9" cy="955.5" r="17.9" fill="#96a396"/><line x1="804" y1="1175.6" x2="804" y2="928.7" stroke="#39685c" stroke-width="17.9" stroke-linecap="round"/><circle cx="804" cy="928.7" r="17.9" fill="#96a396"/><line x1="804" y1="1175.6" x2="867.1" y2="955.5" stroke="#39685c" stroke-width="17.9" stroke-linecap="round"/><circle cx="867.1" cy="955.5" r="17.9" fill="#96a396"/><line x1="804" y1="1175.6" x2="915.9" y2="996.6" stroke="#39685c" stroke-width="17.9" stroke-linecap="round"/><circle cx="915.9" cy="996.6" r="17.9" fill="#96a396"/><line x1="804" y1="1175.6" x2="947.6" y2="1046.4" stroke="#39685c" stroke-width="17.9" stroke-linecap="round"/><circle cx="947.6" cy="1046.4" r="17.9" fill="#96a396"/><line x1="804" y1="1175.6" x2="961.5" y2="1098.8" stroke="#39685c" stroke-width="17.9" stroke-linecap="round"/><circle cx="961.5" cy="1098.8" r="17.9" fill="#96a396"/><line x1="1200" y1="1394.7" x2="1200" y2="1193.6" stroke="#39685c" stroke-width="21.9"/><line x1="1200" y1="1193.6" x2="1055.4" y2="1123.1" stroke="#39685c" stroke-width="16.5" stroke-linecap="round"/><circle cx="1055.4" cy="1123.1" r="16.5" fill="#96a396"/><line x1="1200" y1="1193.6" x2="1068.2" y2="1074.9" stroke="#39685c" stroke-width="16.5" stroke-linecap="round"/><circle cx="1068.2" cy="1074.9" r="16.5" fill="#96a396"/><line x1="1200" y1="1193.6" x2="1097.3" y2="1029.2" stroke="#39685c" stroke-width="16.5" stroke-linecap="round"/><circle cx="1097.3" cy="1029.2" r="16.5" fill="#96a396"/><line x1="1200" y1="1193.6" x2="1142" y2="991.5" stroke="#39685c" stroke-width="16.5" stroke-linecap="round"/><circle cx="1142" cy="991.5" r="16.5" fill="#96a396"/><line x1="1200" y1="1193.6" x2="1200" y2="966.9" stroke="#39685c" stroke-width="16.5" stroke-linecap="round"/><circle cx="1200" cy="966.9" r="16.5" fill="#96a396"/><line x1="1200" y1="1193.6" x2="1258" y2="991.5" stroke="#39685c" stroke-width="16.5" stroke-linecap="round"/><circle cx="1258" cy="991.5" r="16.5" fill="#96a396"/><line x1="1200" y1="1193.6" x2="1302.7" y2="1029.2" stroke="#39685c" stroke-width="16.5" stroke-linecap="round"/><circle cx="1302.7" cy="1029.2" r="16.5" fill="#96a396"/><line x1="1200" y1="1193.6" x2="1331.8" y2="1074.9" stroke="#39685c" stroke-width="16.5" stroke-linecap="round"/><circle cx="1331.8" cy="1074.9" r="16.5" fill="#96a396"/><line x1="1200" y1="1193.6" x2="1344.6" y2="1123.1" stroke="#39685c" stroke-width="16.5" stroke-linecap="round"/><circle cx="1344.6" cy="1123.1" r="16.5" fill="#96a396"/><line x1="1596" y1="1394.7" x2="1596" y2="1177.1" stroke="#39685c" stroke-width="23.7"/><line x1="1596" y1="1177.1" x2="1439.5" y2="1100.8" stroke="#39685c" stroke-width="17.8" stroke-linecap="round"/><circle cx="1439.5" cy="1100.8" r="17.8" fill="#96a396"/><line x1="1596" y1="1177.1" x2="1453.4" y2="1048.7" stroke="#39685c" stroke-width="17.8" stroke-linecap="round"/><circle cx="1453.4" cy="1048.7" r="17.8" fill="#96a396"/><line x1="1596" y1="1177.1" x2="1484.9" y2="999.3" stroke="#39685c" stroke-width="17.8" stroke-linecap="round"/><circle cx="1484.9" cy="999.3" r="17.8" fill="#96a396"/><line x1="1596" y1="1177.1" x2="1533.3" y2="958.4" stroke="#39685c" stroke-width="17.8" stroke-linecap="round"/><circle cx="1533.3" cy="958.4" r="17.8" fill="#96a396"/><line x1="1596" y1="1177.1" x2="1596" y2="931.8" stroke="#39685c" stroke-width="17.8" stroke-linecap="round"/><circle cx="1596" cy="931.8" r="17.8" fill="#96a396"/><line x1="1596" y1="1177.1" x2="1658.7" y2="958.4" stroke="#39685c" stroke-width="17.8" stroke-linecap="round"/><circle cx="1658.7" cy="958.4" r="17.8" fill="#96a396"/><line x1="1596" y1="1177.1" x2="1707.1" y2="999.3" stroke="#39685c" stroke-width="17.8" stroke-linecap="round"/><circle cx="1707.1" cy="999.3" r="17.8" fill="#96a396"/><line x1="1596" y1="1177.1" x2="1738.6" y2="1048.7" stroke="#39685c" stroke-width="17.8" stroke-linecap="round"/><circle cx="1738.6" cy="1048.7" r="17.8" fill="#96a396"/><line x1="1596" y1="1177.1" x2="1752.5" y2="1100.8" stroke="#39685c" stroke-width="17.8" stroke-linecap="round"/><circle cx="1752.5" cy="1100.8" r="17.8" fill="#96a396"/><line x1="1992" y1="1394.7" x2="1992" y2="1175" stroke="#39685c" stroke-width="24"/><line x1="1992" y1="1175" x2="1834" y2="1098" stroke="#39685c" stroke-width="18" stroke-linecap="round"/><circle cx="1834" cy="1098" r="18" fill="#96a396"/><line x1="1992" y1="1175" x2="1848" y2="1045.4" stroke="#39685c" stroke-width="18" stroke-linecap="round"/><circle cx="1848" cy="1045.4" r="18" fill="#96a396"/><line x1="1992" y1="1175" x2="1879.8" y2="995.5" stroke="#39685c" stroke-width="18" stroke-linecap="round"/><circle cx="1879.8" cy="995.5" r="18" fill="#96a396"/><line x1="1992" y1="1175" x2="1928.7" y2="954.2" stroke="#39685c" stroke-width="18" stroke-linecap="round"/><circle cx="1928.7" cy="954.2" r="18" fill="#96a396"/><line x1="1992" y1="1175" x2="1992" y2="927.3" stroke="#39685c" stroke-width="18" stroke-linecap="round"/><circle cx="1992" cy="927.3" r="18" fill="#96a396"/><line x1="1992" y1="1175" x2="2055.3" y2="954.2" stroke="#39685c" stroke-width="18" stroke-linecap="round"/><circle cx="2055.3" cy="954.2" r="18" fill="#96a396"/><line x1="1992" y1="1175" x2="2104.2" y2="995.5" stroke="#39685c" stroke-width="18" stroke-linecap="round"/><circle cx="2104.2" cy="995.5" r="18" fill="#96a396"/><line x1="1992" y1="1175" x2="2136" y2="1045.4" stroke="#39685c" stroke-width="18" stroke-linecap="round"/><circle cx="2136" cy="1045.4" r="18" fill="#96a396"/><line x1="1992" y1="1175" x2="2150" y2="1098" stroke="#39685c" stroke-width="18" stroke-linecap="round"/><circle cx="2150" cy="1098" r="18" fill="#96a396"/><path d="M0 0 Q 67.8 -105.4 0 -277.3 Q -67.8 -105.4 0 0 Z" fill="#39685c" opacity="1" transform="translate(408 1979.7) rotate(-58)"/><path d="M0 0 Q 67.8 -124.3 0 -327 Q -67.8 -124.3 0 0 Z" fill="#96a396" opacity="1" transform="translate(408 1979.7) rotate(-29)"/><path d="M0 0 Q 67.8 -143.1 0 -376.6 Q -67.8 -143.1 0 0 Z" fill="#39685c" opacity="1" transform="translate(408 1979.7) rotate(0)"/><path d="M0 0 Q 67.8 -124.3 0 -327 Q -67.8 -124.3 0 0 Z" fill="#96a396" opacity="1" transform="translate(408 1979.7) rotate(29)"/><path d="M0 0 Q 67.8 -105.4 0 -277.3 Q -67.8 -105.4 0 0 Z" fill="#39685c" opacity="1" transform="translate(408 1979.7) rotate(58)"/><path d="M295,1979.7 Q408,2107.8 521,1979.7 Z" fill="#39685c"/><path d="M0 0 Q 66.3 -125.9 0 -331.3 Q -66.3 -125.9 0 0 Z" fill="#96a396" opacity="1" transform="translate(804 1979.7) rotate(0)"/><line x1="804" y1="1979.7" x2="804" y2="2026.5" stroke="#39685c" stroke-width="20.7"/><path d="M0 0 Q 74.9 -116.4 0 -306.3 Q -74.9 -116.4 0 0 Z" fill="#39685c" opacity="1" transform="translate(1200 1979.7) rotate(-58)"/><path d="M0 0 Q 74.9 -137.2 0 -361.1 Q -74.9 -137.2 0 0 Z" fill="#96a396" opacity="1" transform="translate(1200 1979.7) rotate(-29)"/><path d="M0 0 Q 74.9 -158.1 0 -415.9 Q -74.9 -158.1 0 0 Z" fill="#39685c" opacity="1" transform="translate(1200 1979.7) rotate(0)"/><path d="M0 0 Q 74.9 -137.2 0 -361.1 Q -74.9 -137.2 0 0 Z" fill="#96a396" opacity="1" transform="translate(1200 1979.7) rotate(29)"/><path d="M0 0 Q 74.9 -116.4 0 -306.3 Q -74.9 -116.4 0 0 Z" fill="#39685c" opacity="1" transform="translate(1200 1979.7) rotate(58)"/><path d="M1075.2,1979.7 Q1200,2121.1 1324.8,1979.7 Z" fill="#39685c"/><path d="M0 0 Q 61.4 -116.6 0 -306.9 Q -61.4 -116.6 0 0 Z" fill="#96a396" opacity="1" transform="translate(1596 1979.7) rotate(0)"/><line x1="1596" y1="1979.7" x2="1596" y2="2026.5" stroke="#39685c" stroke-width="19.2"/><path d="M0 0 Q 74.6 -116 0 -305.2 Q -74.6 -116 0 0 Z" fill="#39685c" opacity="1" transform="translate(1992 1979.7) rotate(-58)"/><path d="M0 0 Q 74.6 -129.8 0 -341.6 Q -74.6 -129.8 0 0 Z" fill="#96a396" opacity="1" transform="translate(1992 1979.7) rotate(-38.7)"/><path d="M0 0 Q 74.6 -143.7 0 -378 Q -74.6 -143.7 0 0 Z" fill="#39685c" opacity="1" transform="translate(1992 1979.7) rotate(-19.3)"/><path d="M0 0 Q 74.6 -157.5 0 -414.5 Q -74.6 -157.5 0 0 Z" fill="#96a396" opacity="1" transform="translate(1992 1979.7) rotate(0)"/><path d="M0 0 Q 74.6 -143.7 0 -378 Q -74.6 -143.7 0 0 Z" fill="#39685c" opacity="1" transform="translate(1992 1979.7) rotate(19.3)"/><path d="M0 0 Q 74.6 -129.8 0 -341.6 Q -74.6 -129.8 0 0 Z" fill="#96a396" opacity="1" transform="translate(1992 1979.7) rotate(38.7)"/><path d="M0 0 Q 74.6 -116 0 -305.2 Q -74.6 -116 0 0 Z" fill="#39685c" opacity="1" transform="translate(1992 1979.7) rotate(58)"/><path d="M1867.7,1979.7 Q1992,2120.6 2116.3,1979.7 Z" fill="#39685c"/><line x1="408" y1="2564.7" x2="408" y2="2346.5" stroke="#39685c" stroke-width="23.8"/><line x1="408" y1="2346.5" x2="251.1" y2="2270" stroke="#39685c" stroke-width="17.8" stroke-linecap="round"/><circle cx="251.1" cy="2270" r="17.8" fill="#96a396"/><line x1="408" y1="2346.5" x2="265" y2="2217.8" stroke="#39685c" stroke-width="17.8" stroke-linecap="round"/><circle cx="265" cy="2217.8" r="17.8" fill="#96a396"/><line x1="408" y1="2346.5" x2="296.6" y2="2168.3" stroke="#39685c" stroke-width="17.8" stroke-linecap="round"/><circle cx="296.6" cy="2168.3" r="17.8" fill="#96a396"/><line x1="408" y1="2346.5" x2="345.1" y2="2127.3" stroke="#39685c" stroke-width="17.8" stroke-linecap="round"/><circle cx="345.1" cy="2127.3" r="17.8" fill="#96a396"/><line x1="408" y1="2346.5" x2="408" y2="2100.6" stroke="#39685c" stroke-width="17.8" stroke-linecap="round"/><circle cx="408" cy="2100.6" r="17.8" fill="#96a396"/><line x1="408" y1="2346.5" x2="470.9" y2="2127.3" stroke="#39685c" stroke-width="17.8" stroke-linecap="round"/><circle cx="470.9" cy="2127.3" r="17.8" fill="#96a396"/><line x1="408" y1="2346.5" x2="519.4" y2="2168.3" stroke="#39685c" stroke-width="17.8" stroke-linecap="round"/><circle cx="519.4" cy="2168.3" r="17.8" fill="#96a396"/><line x1="408" y1="2346.5" x2="551" y2="2217.8" stroke="#39685c" stroke-width="17.8" stroke-linecap="round"/><circle cx="551" cy="2217.8" r="17.8" fill="#96a396"/><line x1="408" y1="2346.5" x2="564.9" y2="2270" stroke="#39685c" stroke-width="17.8" stroke-linecap="round"/><circle cx="564.9" cy="2270" r="17.8" fill="#96a396"/><line x1="804" y1="2564.7" x2="804" y2="2344.5" stroke="#39685c" stroke-width="24"/><line x1="804" y1="2344.5" x2="645.7" y2="2267.3" stroke="#39685c" stroke-width="18" stroke-linecap="round"/><circle cx="645.7" cy="2267.3" r="18" fill="#96a396"/><line x1="804" y1="2344.5" x2="659.7" y2="2214.6" stroke="#39685c" stroke-width="18" stroke-linecap="round"/><circle cx="659.7" cy="2214.6" r="18" fill="#96a396"/><line x1="804" y1="2344.5" x2="691.6" y2="2164.6" stroke="#39685c" stroke-width="18" stroke-linecap="round"/><circle cx="691.6" cy="2164.6" r="18" fill="#96a396"/><line x1="804" y1="2344.5" x2="740.5" y2="2123.2" stroke="#39685c" stroke-width="18" stroke-linecap="round"/><circle cx="740.5" cy="2123.2" r="18" fill="#96a396"/><line x1="804" y1="2344.5" x2="804" y2="2096.3" stroke="#39685c" stroke-width="18" stroke-linecap="round"/><circle cx="804" cy="2096.3" r="18" fill="#96a396"/><line x1="804" y1="2344.5" x2="867.5" y2="2123.2" stroke="#39685c" stroke-width="18" stroke-linecap="round"/><circle cx="867.5" cy="2123.2" r="18" fill="#96a396"/><line x1="804" y1="2344.5" x2="916.4" y2="2164.6" stroke="#39685c" stroke-width="18" stroke-linecap="round"/><circle cx="916.4" cy="2164.6" r="18" fill="#96a396"/><line x1="804" y1="2344.5" x2="948.3" y2="2214.6" stroke="#39685c" stroke-width="18" stroke-linecap="round"/><circle cx="948.3" cy="2214.6" r="18" fill="#96a396"/><line x1="804" y1="2344.5" x2="962.3" y2="2267.3" stroke="#39685c" stroke-width="18" stroke-linecap="round"/><circle cx="962.3" cy="2267.3" r="18" fill="#96a396"/><line x1="1200" y1="2564.7" x2="1200" y2="2349.2" stroke="#39685c" stroke-width="23.5"/><line x1="1200" y1="2349.2" x2="1045" y2="2273.6" stroke="#39685c" stroke-width="17.6" stroke-linecap="round"/><circle cx="1045" cy="2273.6" r="17.6" fill="#96a396"/><line x1="1200" y1="2349.2" x2="1058.8" y2="2222" stroke="#39685c" stroke-width="17.6" stroke-linecap="round"/><circle cx="1058.8" cy="2222" r="17.6" fill="#96a396"/><line x1="1200" y1="2349.2" x2="1089.9" y2="2173.1" stroke="#39685c" stroke-width="17.6" stroke-linecap="round"/><circle cx="1089.9" cy="2173.1" r="17.6" fill="#96a396"/><line x1="1200" y1="2349.2" x2="1137.9" y2="2132.6" stroke="#39685c" stroke-width="17.6" stroke-linecap="round"/><circle cx="1137.9" cy="2132.6" r="17.6" fill="#96a396"/><line x1="1200" y1="2349.2" x2="1200" y2="2106.2" stroke="#39685c" stroke-width="17.6" stroke-linecap="round"/><circle cx="1200" cy="2106.2" r="17.6" fill="#96a396"/><line x1="1200" y1="2349.2" x2="1262.1" y2="2132.6" stroke="#39685c" stroke-width="17.6" stroke-linecap="round"/><circle cx="1262.1" cy="2132.6" r="17.6" fill="#96a396"/><line x1="1200" y1="2349.2" x2="1310.1" y2="2173.1" stroke="#39685c" stroke-width="17.6" stroke-linecap="round"/><circle cx="1310.1" cy="2173.1" r="17.6" fill="#96a396"/><line x1="1200" y1="2349.2" x2="1341.2" y2="2222" stroke="#39685c" stroke-width="17.6" stroke-linecap="round"/><circle cx="1341.2" cy="2222" r="17.6" fill="#96a396"/><line x1="1200" y1="2349.2" x2="1355" y2="2273.6" stroke="#39685c" stroke-width="17.6" stroke-linecap="round"/><circle cx="1355" cy="2273.6" r="17.6" fill="#96a396"/><line x1="1596" y1="2564.7" x2="1596" y2="2347.4" stroke="#39685c" stroke-width="23.7"/><line x1="1596" y1="2347.4" x2="1439.8" y2="2271.2" stroke="#39685c" stroke-width="17.8" stroke-linecap="round"/><circle cx="1439.8" cy="2271.2" r="17.8" fill="#96a396"/><line x1="1596" y1="2347.4" x2="1453.6" y2="2219.2" stroke="#39685c" stroke-width="17.8" stroke-linecap="round"/><circle cx="1453.6" cy="2219.2" r="17.8" fill="#96a396"/><line x1="1596" y1="2347.4" x2="1485.1" y2="2169.9" stroke="#39685c" stroke-width="17.8" stroke-linecap="round"/><circle cx="1485.1" cy="2169.9" r="17.8" fill="#96a396"/><line x1="1596" y1="2347.4" x2="1533.4" y2="2129.1" stroke="#39685c" stroke-width="17.8" stroke-linecap="round"/><circle cx="1533.4" cy="2129.1" r="17.8" fill="#96a396"/><line x1="1596" y1="2347.4" x2="1596" y2="2102.5" stroke="#39685c" stroke-width="17.8" stroke-linecap="round"/><circle cx="1596" cy="2102.5" r="17.8" fill="#96a396"/><line x1="1596" y1="2347.4" x2="1658.6" y2="2129.1" stroke="#39685c" stroke-width="17.8" stroke-linecap="round"/><circle cx="1658.6" cy="2129.1" r="17.8" fill="#96a396"/><line x1="1596" y1="2347.4" x2="1706.9" y2="2169.9" stroke="#39685c" stroke-width="17.8" stroke-linecap="round"/><circle cx="1706.9" cy="2169.9" r="17.8" fill="#96a396"/><line x1="1596" y1="2347.4" x2="1738.4" y2="2219.2" stroke="#39685c" stroke-width="17.8" stroke-linecap="round"/><circle cx="1738.4" cy="2219.2" r="17.8" fill="#96a396"/><line x1="1596" y1="2347.4" x2="1752.2" y2="2271.2" stroke="#39685c" stroke-width="17.8" stroke-linecap="round"/><circle cx="1752.2" cy="2271.2" r="17.8" fill="#96a396"/><line x1="1992" y1="2564.7" x2="1992" y2="2352.3" stroke="#39685c" stroke-width="23.2"/><line x1="1992" y1="2352.3" x2="1839.3" y2="2277.8" stroke="#39685c" stroke-width="17.4" stroke-linecap="round"/><circle cx="1839.3" cy="2277.8" r="17.4" fill="#96a396"/><line x1="1992" y1="2352.3" x2="1852.8" y2="2227" stroke="#39685c" stroke-width="17.4" stroke-linecap="round"/><circle cx="1852.8" cy="2227" r="17.4" fill="#96a396"/><line x1="1992" y1="2352.3" x2="1883.5" y2="2178.7" stroke="#39685c" stroke-width="17.4" stroke-linecap="round"/><circle cx="1883.5" cy="2178.7" r="17.4" fill="#96a396"/><line x1="1992" y1="2352.3" x2="1930.8" y2="2138.9" stroke="#39685c" stroke-width="17.4" stroke-linecap="round"/><circle cx="1930.8" cy="2138.9" r="17.4" fill="#96a396"/><line x1="1992" y1="2352.3" x2="1992" y2="2112.9" stroke="#39685c" stroke-width="17.4" stroke-linecap="round"/><circle cx="1992" cy="2112.9" r="17.4" fill="#96a396"/><line x1="1992" y1="2352.3" x2="2053.2" y2="2138.9" stroke="#39685c" stroke-width="17.4" stroke-linecap="round"/><circle cx="2053.2" cy="2138.9" r="17.4" fill="#96a396"/><line x1="1992" y1="2352.3" x2="2100.5" y2="2178.7" stroke="#39685c" stroke-width="17.4" stroke-linecap="round"/><circle cx="2100.5" cy="2178.7" r="17.4" fill="#96a396"/><line x1="1992" y1="2352.3" x2="2131.2" y2="2227" stroke="#39685c" stroke-width="17.4" stroke-linecap="round"/><circle cx="2131.2" cy="2227" r="17.4" fill="#96a396"/><line x1="1992" y1="2352.3" x2="2144.7" y2="2277.8" stroke="#39685c" stroke-width="17.4" stroke-linecap="round"/><circle cx="2144.7" cy="2277.8" r="17.4" fill="#96a396"/><rect x="100" y="100" width="2200" height="2800" fill="none" stroke="#39685c" stroke-width="9"/><rect x="142" y="142" width="2116" height="2716" fill="none" stroke="#39685c" stroke-width="3" opacity="0.65"/></svg></svg>