<svg xmlns="http://www.w3.org/2000/svg" width="2400" height="1800" viewBox="0 0 2400 1800"><rect width="2400" height="1800" fill="#dfe4dc"/><rect y="1400" width="2400" height="400" fill="#c2a67e"/><line x1="60" y1="1400" x2="10" y2="1800" stroke="#00000015" stroke-width="5"/><line x1="260" y1="1400" x2="210" y2="1800" stroke="#00000015" stroke-width="5"/><line x1="460" y1="1400" x2="410" y2="1800" stroke="#00000015" stroke-width="5"/><line x1="660" y1="1400" x2="610" y2="1800" stroke="#00000015" stroke-width="5"/><line x1="860" y1="1400" x2="810" y2="1800" stroke="#00000015" stroke-width="5"/><line x1="1060" y1="1400" x2="1010" y2="1800" stroke="#00000015" stroke-width="5"/><line x1="1260" y1="1400" x2="1210" y2="1800" stroke="#00000015" stroke-width="5"/><line x1="1460" y1="1400" x2="1410" y2="1800" stroke="#00000015" stroke-width="5"/><line x1="1660" y1="1400" x2="1610" y2="1800" stroke="#00000015" stroke-width="5"/><line x1="1860" y1="1400" x2="1810" y2="1800" stroke="#00000015" stroke-width="5"/><line x1="2060" y1="1400" x2="2010" y2="1800" stroke="#00000015" stroke-width="5"/><line x1="2260" y1="1400" x2="2210" y2="1800" stroke="#00000015" stroke-width="5"/><rect x="180" y="260" width="900" height="620" fill="#8a6a48"/><rect x="215" y="295" width="830" height="550" fill="#41524a"/><line x1="280" y1="420" x2="760" y2="420" stroke="#ffffff66" stroke-width="9" stroke-linecap="round"/><line x1="280" y1="520" x2="620" y2="520" stroke="#ffffff44" stroke-width="9" stroke-linecap="round"/><circle cx="880" cy="560" r="90" fill="none" stroke="#ffffff55" stroke-width="8"/><rect x="215" y="845" width="830" height="22" fill="#6f5436"/><rect x="330" y="1240" width="640" height="60" rx="10" fill="#9c7449"/><rect x="370" y="1300" width="60" height="240" fill="#8a6540"/><rect x="870" y="1300" width="60" height="240" fill="#8a6540"/><rect x="430" y="1160" width="150" height="80" rx="8" fill="#4d84b5"/><rect x="450" y="1120" width="150" height="40" rx="8" fill="#24486e"/><circle cx="800" cy="1130" r="86" fill="#7fa3b8"/><path d="M760,1060 Q820,1100 780,1190 M740,1090 Q800,1120 850,1100" stroke="#5d8069" stroke-width="16" fill="none" stroke-linecap="round"/><circle cx="800" cy="1130" r="86" fill="none" stroke="#6b5233" stroke-width="7"/><line x1="800" y1="1216" x2="800" y2="1250" stroke="#6b5233" stroke-width="10"/><rect x="750" y="1244" width="100" height="14" rx="7" fill="#6b5233"/><rect x="1980" y="700" width="300" height="800" fill="#9c7449"/><rect x="2000" y="930" width="260" height="16" fill="#7c5a37"/><rect x="2020" y="790" width="36" height="140" fill="#b3502f"/><rect x="2066" y="802" width="36" height="128" fill="#39685c"/><rect x="2112" y="790" width="36" height="140" fill="#c9a227"/><rect x="2158" y="802" width="36" height="128" fill="#2c4661"/><rect x="2204" y="790" width="36" height="140" fill="#8a4423"/><rect x="2000" y="1180" width="260" height="16" fill="#7c5a37"/><rect x="2020" y="1040" width="36" height="140" fill="#39685c"/><rect x="2066" y="1052" width="36" height="128" fill="#c9a227"/><rect x="2112" y="1040" width="36" height="140" fill="#2c4661"/><rect x="2158" y="1052" width="36" height="128" fill="#8a4423"/><rect x="2204" y="1040" width="36" height="140" fill="#b3502f"/><rect x="2000" y="1430" width="260" height="16" fill="#7c5a37"/><rect x="2020" y="1290" width="36" height="140" fill="#c9a227"/><rect x="2066" y="1302" width="36" height="128" fill="#2c4661"/><rect x="2112" y="1290" width="36" height="140" fill="#8a4423"/><rect x="2158" y="1302" width="36" height="128" fill="#b3502f"/><rect x="2204" y="1290" width="36" height="140" fill="#39685c"/><defs><filter id="a96c-sh" x="-30%" y="-30%" width="160%" height="160%"><feGaussianBlur stdDeviation="16"/></filter></defs><rect x="1340.5" y="298.5" width="517" height="635" fill="#000" opacity="0.28" filter="url(#a96c-sh)"/><rect x="1326.5" y="276.5" width="517" height="635" fill="#3d342a"/><rect x="1341.8" y="291.8" width="486.4" height="604.5" fill="none" stroke="#00000055" stroke-width="3"/><rect x="1350" y="300" width="470" height="588" fill="#f6f2ea"/><svg x="1385.3" y="335.3" width="399.5" height="517.5" viewBox="0 0 2400 3000" preserveAspectRatio="xMidYMid slice"><rect width="2400" height="3000" fill="#16324f"/><radialGradient id="a96-vig" cx="50%" cy="42%" r="80%"><stop offset="55%" stop-color="#000" stop-opacity="0"/><stop offset="100%" stop-color="#000" stop-opacity="0.15"/></radialGradient><rect width="2400" height="3000" fill="url(#a96-vig)"/><circle cx="2146.9" cy="993.3" r="2.4" fill="#d8b45a" opacity="0.074"/><circle cx="288.1" cy="1296.2" r="2.6" fill="#d8b45a" opacity="0.039"/><circle cx="643.6" cy="1252.6" r="4.2" fill="#d8b45a" opacity="0.070"/><circle cx="1854.1" cy="476.6" r="3.7" fill="#d8b45a" opacity="0.049"/><circle cx="1910.9" cy="1287.9" r="1.6" fill="#d8b45a" opacity="0.047"/><circle cx="338.9" cy="696.1" r="2.7" fill="#d8b45a" opacity="0.049"/><circle cx="1253.5" cy="1992.5" r="3" fill="#d8b45a" opacity="0.079"/><circle cx="1804.8" cy="1109.7" r="4.3" fill="#d8b45a" opacity="0.066"/><circle cx="1242.1" cy="666.7" r="2.2" fill="#d8b45a" opacity="0.055"/><circle cx="1910.3" cy="332.1" r="1.9" fill="#d8b45a" opacity="0.046"/><circle cx="1053.8" cy="777.5" r="4.1" fill="#d8b45a" opacity="0.039"/><circle cx="1793.3" cy="1893.6" r="2.3" fill="#d8b45a" opacity="0.079"/><circle cx="470.7" cy="1907.3" r="1.9" fill="#d8b45a" opacity="0.067"/><circle cx="1866.3" cy="1154.3" r="2.8" fill="#d8b45a" opacity="0.056"/><circle cx="2200.5" cy="2593.9" r="3.5" fill="#d8b45a" opacity="0.079"/><circle cx="462.8" cy="123.4" r="2.3" fill="#d8b45a" opacity="0.050"/><circle cx="311.3" cy="2814.7" r="3" fill="#d8b45a" opacity="0.049"/><circle cx="1820.3" cy="973.7" r="4.2" fill="#d8b45a" opacity="0.039"/><circle cx="887.9" cy="1053.3" r="3.8" fill="#d8b45a" opacity="0.048"/><circle cx="1805.9" cy="1062.7" r="1.8" fill="#d8b45a" opacity="0.068"/><circle cx="144.9" cy="751.5" r="4" fill="#d8b45a" opacity="0.070"/><circle cx="881.6" cy="2186.4" r="3.4" fill="#d8b45a" opacity="0.062"/><circle cx="1753.5" cy="1526.7" r="3.3" fill="#d8b45a" opacity="0.055"/><circle cx="598.7" cy="2093.8" r="3.4" fill="#d8b45a" opacity="0.047"/><circle cx="1070.9" cy="498.1" r="3.8" fill="#d8b45a" opacity="0.067"/><circle cx="899.6" cy="2120" r="4" fill="#d8b45a" opacity="0.055"/><circle cx="522.1" cy="1958.8" r="3.2" fill="#d8b45a" opacity="0.065"/><circle cx="1723.1" cy="851.6" r="3.4" fill="#d8b45a" opacity="0.074"/><circle cx="2252.1" cy="2370.4" r="2.5" fill="#d8b45a" opacity="0.078"/><circle cx="901.1" cy="1056.1" r="2.2" fill="#d8b45a" opacity="0.074"/><circle cx="168.3" cy="923.8" r="4.2" fill="#d8b45a" opacity="0.042"/><circle cx="553.7" cy="1509.4" r="3.1" fill="#d8b45a" opacity="0.075"/><circle cx="1653.2" cy="1289.4" r="1.8" fill="#d8b45a" opacity="0.046"/><circle cx="1445.1" cy="1037.2" r="4.1" fill="#d8b45a" opacity="0.030"/><circle cx="1653.5" cy="396.6" r="3.1" fill="#d8b45a" opacity="0.052"/><circle cx="580.2" cy="272.7" r="3.5" fill="#d8b45a" opacity="0.072"/><circle cx="497.9" cy="2557.8" r="1.8" fill="#d8b45a" opacity="0.042"/><circle cx="528.5" cy="1738.8" r="4.4" fill="#d8b45a" opacity="0.046"/><circle cx="528" cy="1256.7" r="4.5" fill="#d8b45a" opacity="0.033"/><circle cx="1015.9" cy="2861.7" r="4.1" fill="#d8b45a" opacity="0.058"/><circle cx="607.3" cy="345.7" r="2.3" fill="#d8b45a" opacity="0.036"/><circle cx="460.3" cy="2066.3" r="3.1" fill="#d8b45a" opacity="0.075"/><circle cx="1131.4" cy="2351.5" r="3.9" fill="#d8b45a" opacity="0.073"/><circle cx="236.8" cy="2711.1" r="4.5" fill="#d8b45a" opacity="0.037"/><circle cx="1053" cy="1316.9" r="2.5" fill="#d8b45a" opacity="0.058"/><circle cx="1723.8" cy="1502.6" r="4" fill="#d8b45a" opacity="0.071"/><circle cx="120" cy="243" r="3.1" fill="#d8b45a" opacity="0.048"/><circle cx="2271.3" cy="2403.4" r="4.5" fill="#d8b45a" opacity="0.066"/><circle cx="2234.9" cy="335.6" r="3.7" fill="#d8b45a" opacity="0.065"/><circle cx="2349.6" cy="2443.6" r="2.6" fill="#d8b45a" opacity="0.043"/><circle cx="2204.3" cy="681.6" r="2.4" fill="#d8b45a" opacity="0.055"/><circle cx="2217.6" cy="2565.5" r="2.2" fill="#d8b45a" opacity="0.053"/><circle cx="982.4" cy="386.7" r="2.8" fill="#d8b45a" opacity="0.071"/><circle cx="597.7" cy="1080.3" r="2.4" fill="#d8b45a" opacity="0.061"/><circle cx="587.9" cy="1014.6" r="3.5" fill="#d8b45a" opacity="0.078"/><circle cx="914" cy="1665.2" r="3.2" fill="#d8b45a" opacity="0.041"/><circle cx="920.9" cy="2782.4" r="4.2" fill="#d8b45a" opacity="0.039"/><circle cx="503.4" cy="1482.6" r="3" fill="#d8b45a" opacity="0.062"/><circle cx="2114.3" cy="2091.2" r="4.1" fill="#d8b45a" opacity="0.053"/><circle cx="384.9" cy="2078.1" r="2.9" fill="#d8b45a" opacity="0.040"/><circle cx="195.5" cy="1611.3" r="3.8" fill="#d8b45a" opacity="0.063"/><circle cx="966.5" cy="2791.4" r="4.4" fill="#d8b45a" opacity="0.055"/><circle cx="1750.2" cy="794.9" r="1.7" fill="#d8b45a" opacity="0.044"/><circle cx="589.5" cy="274" r="4.1" fill="#d8b45a" opacity="0.065"/><circle cx="1372.8" cy="519.9" r="4" fill="#d8b45a" opacity="0.061"/><circle cx="1592.9" cy="2027" r="3.9" fill="#d8b45a" opacity="0.045"/><circle cx="1494.8" cy="2825.2" r="3.7" fill="#d8b45a" opacity="0.032"/><circle cx="999.8" cy="359.3" r="2" fill="#d8b45a" opacity="0.079"/><circle cx="932.4" cy="807.6" r="4.5" fill="#d8b45a" opacity="0.061"/><circle cx="2110.1" cy="1277.1" r="2.9" fill="#d8b45a" opacity="0.054"/><circle cx="1588.4" cy="2899.7" r="3" fill="#d8b45a" opacity="0.039"/><circle cx="122.5" cy="2632.1" r="1.8" fill="#d8b45a" opacity="0.057"/><circle cx="1881.6" cy="603.3" r="4.2" fill="#d8b45a" opacity="0.073"/><circle cx="1375.9" cy="261.3" r="4.2" fill="#d8b45a" opacity="0.063"/><circle cx="122.7" cy="1402.7" r="3.8" fill="#d8b45a" opacity="0.071"/><circle cx="447.2" cy="1796.7" r="3.6" fill="#d8b45a" opacity="0.062"/><circle cx="287.6" cy="2792.3" r="4.3" fill="#d8b45a" opacity="0.077"/><circle cx="2278.7" cy="2767.6" r="3.8" fill="#d8b45a" opacity="0.049"/><circle cx="1025.4" cy="657.6" r="2.3" fill="#d8b45a" opacity="0.047"/><circle cx="1681.4" cy="2394.5" r="1.6" fill="#d8b45a" opacity="0.047"/><path d="M1163.8,1574.8 A130,130 0 1 1 1231,1576.2" fill="none" stroke="#d8b45a" stroke-width="45.7" stroke-linecap="round"/><line x1="1144.7" y1="1567.6" x2="1098.4" y2="1666" stroke="#d8b45a" stroke-width="45.7" stroke-linecap="round"/><path d="M1263.1,1219.7 A238.8,238.8 0 1 1 1139.5,1219" fill="none" stroke="#d8b45a" stroke-width="45.7" stroke-linecap="round"/><line x1="1104.1" y1="1231.3" x2="1060.5" y2="1131.7" stroke="#d8b45a" stroke-width="45.7" stroke-linecap="round"/><path d="M1095.5,1781.4 A347.5,347.5 0 1 1 1275.2,1789.3" fill="none" stroke="#d8b45a" stroke-width="45.7" stroke-linecap="round"/><line x1="1045" y1="1761" x2="996.5" y2="1858.3" stroke="#d8b45a" stroke-width="45.7" stroke-linecap="round"/><path d="M1414.5,1047.3 A456.3,456.3 0 1 1 1184.4,994" fill="none" stroke="#d8b45a" stroke-width="45.7" stroke-linecap="round"/><line x1="1113.3" y1="1002.1" x2="1092.6" y2="895.3" stroke="#d8b45a" stroke-width="45.7" stroke-linecap="round"/><path d="M1039.8,1991.8 A565,565 0 1 1 1332.2,1999.3" fill="none" stroke="#d8b45a" stroke-width="45.7" stroke-linecap="round"/><line x1="957.1" y1="1960.1" x2="910.3" y2="2058.3" stroke="#d8b45a" stroke-width="45.7" stroke-linecap="round"/><path d="M1509.6,851.6 A673.8,673.8 0 1 1 1168.9,777" fill="none" stroke="#d8b45a" stroke-width="45.7" stroke-linecap="round"/><line x1="1064" y1="790.1" x2="1042.1" y2="683.6" stroke="#d8b45a" stroke-width="45.7" stroke-linecap="round"/><path d="M937.3,2187.1 A782.5,782.5 0 1 1 1341.1,2219.7" fill="none" stroke="#d8b45a" stroke-width="45.7" stroke-linecap="round"/><line x1="825.3" y1="2136.9" x2="773.2" y2="2232.4" stroke="#d8b45a" stroke-width="45.7" stroke-linecap="round"/><path d="M1220.9,559 A891.3,891.3 0 1 1 772.6,667.9" fill="none" stroke="#d8b45a" stroke-width="45.7" stroke-linecap="round"/><circle cx="1200" cy="1450" r="56" fill="#4d84b5"/><path d="M324.7,287.3 L 395.3,287.3 L 395.3,216.7 L 339.8,216.7 L 339.8,260.4 L 368.4,260.4 L 368.4,238.6 M408.7,287.3 L 479.3,287.3 L 479.3,216.7 L 423.8,216.7 L 423.8,260.4 L 452.4,260.4 L 452.4,238.6 M492.7,287.3 L 563.3,287.3 L 563.3,216.7 L 507.8,216.7 L 507.8,260.4 L 536.4,260.4 L 536.4,238.6 M576.7,287.3 L 647.3,287.3 L 647.3,216.7 L 591.8,216.7 L 591.8,260.4 L 620.4,260.4 L 620.4,238.6 M660.7,287.3 L 731.3,287.3 L 731.3,216.7 L 675.8,216.7 L 675.8,260.4 L 704.4,260.4 L 704.4,238.6 M744.7,287.3 L 815.3,287.3 L 815.3,216.7 L 759.8,216.7 L 759.8,260.4 L 788.4,260.4 L 788.4,238.6 M828.7,287.3 L 899.3,287.3 L 899.3,216.7 L 843.8,216.7 L 843.8,260.4 L 872.4,260.4 L 872.4,238.6 M912.7,287.3 L 983.3,287.3 L 983.3,216.7 L 927.8,216.7 L 927.8,260.4 L 956.4,260.4 L 956.4,238.6 M996.7,287.3 L 1067.3,287.3 L 1067.3,216.7 L 1011.8,216.7 L 1011.8,260.4 L 1040.4,260.4 L 1040.4,238.6 M1080.7,287.3 L 1151.3,287.3 L 1151.3,216.7 L 1095.8,216.7 L 1095.8,260.4 L 1124.4,260.4 L 1124.4,238.6 M1164.7,287.3 L 1235.3,287.3 L 1235.3,216.7 L 1179.8,216.7 L 1179.8,260.4 L 1208.4,260.4 L 1208.4,238.6 M1248.7,287.3 L 1319.3,287.3 L 1319.3,216.7 L 1263.8,216.7 L 1263.8,260.4 L 1292.4,260.4 L 1292.4,238.6 M1332.7,287.3 L 1403.3,287.3 L 1403.3,216.7 L 1347.8,216.7 L 1347.8,260.4 L 1376.4,260.4 L 1376.4,238.6 M1416.7,287.3 L 1487.3,287.3 L 1487.3,216.7 L 1431.8,216.7 L 1431.8,260.4 L 1460.4,260.4 L 1460.4,238.6 M1500.7,287.3 L 1571.3,287.3 L 1571.3,216.7 L 1515.8,216.7 L 1515.8,260.4 L 1544.4,260.4 L 1544.4,238.6 M1584.7,287.3 L 1655.3,287.3 L 1655.3,216.7 L 1599.8,216.7 L 1599.8,260.4 L 1628.4,260.4 L 1628.4,238.6 M1668.7,287.3 L 1739.3,287.3 L 1739.3,216.7 L 1683.8,216.7 L 1683.8,260.4 L 1712.4,260.4 L 1712.4,238.6 M1752.7,287.3 L 1823.3,287.3 L 1823.3,216.7 L 1767.8,216.7 L 1767.8,260.4 L 1796.4,260.4 L 1796.4,238.6 M1836.7,287.3 L 1907.3,287.3 L 1907.3,216.7 L 1851.8,216.7 L 1851.8,260.4 L 1880.4,260.4 L 1880.4,238.6 M1920.7,287.3 L 1991.3,287.3 L 1991.3,216.7 L 1935.8,216.7 L 1935.8,260.4 L 1964.4,260.4 L 1964.4,238.6 M2004.7,287.3 L 2075.3,287.3 L 2075.3,216.7 L 2019.8,216.7 L 2019.8,260.4 L 2048.4,260.4 L 2048.4,238.6 " fill="none" stroke="#d8b45a" stroke-width="10.9"/><path d="M324.7,2777.3 L 395.3,2777.3 L 395.3,2706.7 L 339.8,2706.7 L 339.8,2750.4 L 368.4,2750.4 L 368.4,2728.6 M408.7,2777.3 L 479.3,2777.3 L 479.3,2706.7 L 423.8,2706.7 L 423.8,2750.4 L 452.4,2750.4 L 452.4,2728.6 M492.7,2777.3 L 563.3,2777.3 L 563.3,2706.7 L 507.8,2706.7 L 507.8,2750.4 L 536.4,2750.4 L 536.4,2728.6 M576.7,2777.3 L 647.3,2777.3 L 647.3,2706.7 L 591.8,2706.7 L 591.8,2750.4 L 620.4,2750.4 L 620.4,2728.6 M660.7,2777.3 L 731.3,2777.3 L 731.3,2706.7 L 675.8,2706.7 L 675.8,2750.4 L 704.4,2750.4 L 704.4,2728.6 M744.7,2777.3 L 815.3,2777.3 L 815.3,2706.7 L 759.8,2706.7 L 759.8,2750.4 L 788.4,2750.4 L 788.4,2728.6 M828.7,2777.3 L 899.3,2777.3 L 899.3,2706.7 L 843.8,2706.7 L 843.8,2750.4 L 872.4,2750.4 L 872.4,2728.6 M912.7,2777.3 L 983.3,2777.3 L 983.3,2706.7 L 927.8,2706.7 L 927.8,2750.4 L 956.4,2750.4 L 956.4,2728.6 M996.7,2777.3 L 1067.3,2777.3 L 1067.3,2706.7 L 1011.8,2706.7 L 1011.8,2750.4 L 1040.4,2750.4 L 1040.4,2728.6 M1080.7,2777.3 L 1151.3,2777.3 L 1151.3,2706.7 L 1095.8,2706.7 L 1095.8,2750.4 L 1124.4,2750.4 L 1124.4,2728.6 M1164.7,2777.3 L 1235.3,2777.3 L 1235.3,2706.7 L 1179.8,2706.7 L 1179.8,2750.4 L 1208.4,2750.4 L 1208.4,2728.6 M1248.7,2777.3 L 1319.3,2777.3 L 1319.3,2706.7 L 1263.8,2706.7 L 1263.8,2750.4 L 1292.4,2750.4 L 1292.4,2728.6 M1332.7,2777.3 L 1403.3,2777.3 L 1403.3,2706.7 L 1347.8,2706.7 L 1347.8,2750.4 L 1376.4,2750.4 L 1376.4,2728.6 M1416.7,2777.3 L 1487.3,2777.3 L 1487.3,2706.7 L 1431.8,2706.7 L 1431.8,2750.4 L 1460.4,2750.4 L 1460.4,2728.6 M1500.7,2777.3 L 1571.3,2777.3 L 1571.3,2706.7 L 1515.8,2706.7 L 1515.8,2750.4 L 1544.4,2750.4 L 1544.4,2728.6 M1584.7,2777.3 L 1655.3,2777.3 L 1655.3,2706.7 L 1599.8,2706.7 L 1599.8,2750.4 L 1628.4,2750.4 L 1628.4,2728.6 M1668.7,2777.3 L 1739.3,2777.3 L 1739.3,2706.7 L 1683.8,2706.7 L 1683.8,2750.4 L 1712.4,2750.4 L 1712.4,2728.6 M1752.7,2777.3 L 1823.3,2777.3 L 1823.3,2706.7 L 1767.8,2706.7 L 1767.8,2750.4 L 1796.4,2750.4 L 1796.4,2728.6 M1836.7,2777.3 L 1907.3,2777.3 L 1907.3,2706.7 L 1851.8,2706.7 L 1851.8,2750.4 L 1880.4,2750.4 L 1880.4,2728.6 M1920.7,2777.3 L 1991.3,2777.3 L 1991.3,2706.7 L 1935.8,2706.7 L 1935.8,2750.4 L 1964.4,2750.4 L 1964.4,2728.6 M2004.7,2777.3 L 2075.3,2777.3 L 2075.3,2706.7 L 2019.8,2706.7 L 2019.8,2750.4 L 2048.4,2750.4 L 2048.4,2728.6 " fill="none" stroke="#d8b45a" stroke-width="10.9"/><rect x="100" y="100" width="2200" height="2800" fill="none" stroke="#d8b45a" stroke-width="9"/><rect x="142" y="142" width="2116" height="2716" fill="none" stroke="#d8b45a" stroke-width="3" opacity="0.65"/></svg></svg>