<svg xmlns="http://www.w3.org/2000/svg" width="2400" height="1800" viewBox="0 0 2400 1800"><rect width="2400" height="1800" fill="#e5ddcf"/><rect y="1430" width="2400" height="370" fill="#b89a76"/><line x1="100" y1="1430" x2="45" y2="1800" stroke="#00000016" stroke-width="5"/><line x1="330" y1="1430" x2="275" y2="1800" stroke="#00000016" stroke-width="5"/><line x1="560" y1="1430" x2="505" y2="1800" stroke="#00000016" stroke-width="5"/><line x1="790" y1="1430" x2="735" y2="1800" stroke="#00000016" stroke-width="5"/><line x1="1020" y1="1430" x2="965" y2="1800" stroke="#00000016" stroke-width="5"/><line x1="1250" y1="1430" x2="1195" y2="1800" stroke="#00000016" stroke-width="5"/><line x1="1480" y1="1430" x2="1425" y2="1800" stroke="#00000016" stroke-width="5"/><line x1="1710" y1="1430" x2="1655" y2="1800" stroke="#00000016" stroke-width="5"/><line x1="1940" y1="1430" x2="1885" y2="1800" stroke="#00000016" stroke-width="5"/><line x1="2170" y1="1430" x2="2115" y2="1800" stroke="#00000016" stroke-width="5"/><rect x="620" y="1180" width="1180" height="52" rx="10" fill="#8a6540"/><rect x="680" y="1232" width="70" height="330" fill="#775433"/><rect x="1670" y="1232" width="70" height="330" fill="#775433"/><rect x="760" y="1120" width="220" height="34" rx="6" fill="#8a5a33"/><rect x="780" y="1086" width="200" height="34" rx="6" fill="#39685c"/><rect x="800" y="1052" width="170" height="34" rx="6" fill="#c9a227"/><circle cx="1240" cy="1130" r="46" fill="#3f3428"/><rect x="1226" y="1048" width="16" height="60" fill="#3f3428" transform="rotate(18 1240 1090)"/><rect x="1420" y="1100" width="260" height="26" rx="13" fill="#e8dcc0"/><rect x="1450" y="1072" width="260" height="26" rx="13" fill="#dfd0ad"/><rect x="1080" y="1300" width="360" height="34" rx="14" fill="#6f5436"/><rect x="1100" y="1334" width="40" height="220" fill="#6f5436"/><rect x="1380" y="1334" width="40" height="220" fill="#6f5436"/><rect x="1080" y="1030" width="42" height="290" rx="14" fill="#6f5436"/><rect x="260" y="480" width="560" height="24" fill="#8a6540"/><rect x="300" y="360" width="90" height="120" fill="#b3502f"/><rect x="400" y="380" width="80" height="100" fill="#2c4661"/><rect x="490" y="350" width="86" height="130" fill="#96a396"/><path d="M700,480 Q 616,347 574,382" fill="none" stroke="#5d7052" stroke-width="11.2" stroke-linecap="round"/><path d="M700,480 Q 644,347 616,354" fill="none" stroke="#5d7052" stroke-width="11.2" stroke-linecap="round"/><path d="M700,480 Q 672,347 658,326" fill="none" stroke="#5d7052" stroke-width="11.2" stroke-linecap="round"/><path d="M700,480 Q 700,347 700,298" fill="none" stroke="#5d7052" stroke-width="11.2" stroke-linecap="round"/><path d="M700,480 Q 728,347 742,326" fill="none" stroke="#5d7052" stroke-width="11.2" stroke-linecap="round"/><path d="M700,480 Q 756,347 784,354" fill="none" stroke="#5d7052" stroke-width="11.2" stroke-linecap="round"/><path d="M700,480 Q 784,347 826,382" fill="none" stroke="#5d7052" stroke-width="11.2" stroke-linecap="round"/><path d="M651,480 L749,480 L736.4,557 L663.6,557 Z" fill="#a9714d"/><path d="M320,1520 Q 164,1273 86,1338" fill="none" stroke="#5d7052" stroke-width="20.8" stroke-linecap="round"/><path d="M320,1520 Q 216,1273 164,1286" fill="none" stroke="#5d7052" stroke-width="20.8" stroke-linecap="round"/><path d="M320,1520 Q 268,1273 242,1234" fill="none" stroke="#5d7052" stroke-width="20.8" stroke-linecap="round"/><path d="M320,1520 Q 320,1273 320,1182" fill="none" stroke="#5d7052" stroke-width="20.8" stroke-linecap="round"/><path d="M320,1520 Q 372,1273 398,1234" fill="none" stroke="#5d7052" stroke-width="20.8" stroke-linecap="round"/><path d="M320,1520 Q 424,1273 476,1286" fill="none" stroke="#5d7052" stroke-width="20.8" stroke-linecap="round"/><path d="M320,1520 Q 476,1273 554,1338" fill="none" stroke="#5d7052" stroke-width="20.8" stroke-linecap="round"/><path d="M229,1520 L411,1520 L387.6,1663 L252.4,1663 Z" fill="#a9714d"/><defs><filter id="a55s-sh" x="-30%" y="-30%" width="160%" height="160%"><feGaussianBlur stdDeviation="16"/></filter></defs><rect x="1206" y="294" width="616" height="756" fill="#000" opacity="0.28" filter="url(#a55s-sh)"/><rect x="1192" y="272" width="616" height="756" fill="#443a2d"/><rect x="1210.2" y="290.2" width="579.6" height="719.6" fill="none" stroke="#00000055" stroke-width="3"/><rect x="1220" y="300" width="560" height="700" fill="#f6f2ea"/><svg x="1262" y="342" width="476" height="616" viewBox="0 0 2400 3000" preserveAspectRatio="xMidYMid slice"><filter id="a55-warp" x="-4%" y="-4%" width="108%" height="108%"><feTurbulence type="fractalNoise" baseFrequency="0.0105" numOctaves="2" seed="2717" result="w"/><feDisplacementMap in="SourceGraphic" in2="w" scale="7" xChannelSelector="R" yChannelSelector="G"/></filter><filter id="a55-grain" x="0%" y="0%" width="100%" height="100%"><feTurbulence type="fractalNoise" baseFrequency="0.6" numOctaves="2" seed="2724"/><feColorMatrix type="matrix" values="0.33 0.33 0.33 0 0.62  0.33 0.33 0.33 0 0.62  0.33 0.33 0.33 0 0.62  0 0 0 0 1"/></filter><filter id="a55-mottle" x="0%" y="0%" width="100%" height="100%"><feTurbulence type="fractalNoise" baseFrequency="0.0045" numOctaves="3" seed="2730"/><feColorMatrix type="matrix" values="0.2 0.2 0.2 0 0.78  0.2 0.2 0.2 0 0.78  0.2 0.2 0.2 0 0.78  0 0 0 0 1"/></filter><filter id="a55-fade" x="0%" y="0%" width="100%" height="100%"><feTurbulence type="fractalNoise" baseFrequency="0.006" numOctaves="2" seed="2746"/><feColorMatrix type="matrix" values="0.3 0.3 0.3 0 -0.08  0.3 0.3 0.3 0 -0.08  0.3 0.3 0.3 0 -0.1  0 0 0 0 1"/></filter><filter id="a55-blur9"><feGaussianBlur stdDeviation="9"/></filter><radialGradient id="a55-vig" cx="50%" cy="44%" r="78%"><stop offset="52%" stop-color="#241a10" stop-opacity="0"/><stop offset="100%" stop-color="#241a10" stop-opacity="0.17"/></radialGradient><radialGradient id="a55-warm" cx="67%" cy="30%" r="85%"><stop offset="0%" stop-color="#e8c890" stop-opacity="0.14"/><stop offset="70%" stop-color="#e8c890" stop-opacity="0"/></radialGradient><rect width="2400" height="3000" fill="#e2d4b4"/><rect width="2400" height="3000" fill="url(#a55-warm)"/><g filter="url(#a55-warp)"><path d="M2017.8,1856.9 Q1913.1,2193.9 1703.5,2388 Q1493.9,2582.2 1217.4,2547.5 Q940.9,2512.8 703.4,2325.8 Q465.9,2138.7 402,1829.4 Q338.1,1520 412,1214.4 Q485.8,908.7 709.1,689.4 Q932.4,470.1 1190,508.7 Q1447.7,547.4 1650.4,722.7 Q1853.1,898.1 1987.8,1209.1 Q2122.5,1520 2017.8,1856.9 Z" fill="#ab946c" stroke="#433320" stroke-width="10"/><clipPath id="a55-st"><path d="M2017.8,1856.9 Q1913.1,2193.9 1703.5,2388 Q1493.9,2582.2 1217.4,2547.5 Q940.9,2512.8 703.4,2325.8 Q465.9,2138.7 402,1829.4 Q338.1,1520 412,1214.4 Q485.8,908.7 709.1,689.4 Q932.4,470.1 1190,508.7 Q1447.7,547.4 1650.4,722.7 Q1853.1,898.1 1987.8,1209.1 Q2122.5,1520 2017.8,1856.9 Z"/></clipPath><g clip-path="url(#a55-st)"><polyline points="1200,1572.3 1203.6,1574.7 1208.3,1575.9 1213.7,1575.6 1219.4,1573.5 1224.7,1569.6 1229.1,1563.8 1231.9,1556.4 1232.8,1548 1231.4,1538.9 1227.4,1530 1220.8,1521.8 1211.8,1515.2 1200.9,1510.9 1188.6,1509.3 1175.6,1510.9 1162.8,1516 1151.1,1524.5 1141.4,1536 1134.6,1550.3 1131.3,1566.4 1132.1,1583.4 1137.3,1600.5 1146.8,1616.3 1160.3,1629.8 1177.2,1640 1196.8,1645.9 1217.9,1647 1239.3,1642.8 1259.7,1633.2 1277.7,1618.6 1292,1599.6 1301.6,1577 1305.5,1552.2 1303.3,1526.4 1294.8,1501.3 1280.1,1478.4 1259.8,1459.3 1235,1445.2 1206.8,1437.4 1176.9,1436.5 1147,1442.9 1118.9,1456.7 1094.5,1477.2 1075.2,1503.5 1062.6,1534.3 1057.6,1567.9 1060.8,1602.4 1072.5,1635.7 1092.1,1665.9 1118.9,1690.9 1151.5,1709.1 1188.2,1719.2 1226.9,1720.3 1265.4,1711.9 1301.3,1694.2 1332.6,1668 1357,1634.6 1373,1595.7 1379.4,1553.4 1375.4,1510.1 1360.9,1468.4 1336.6,1430.8 1303.4,1399.6 1263.2,1377 1218.1,1364.3 1170.6,1362.8 1123.5,1372.9 1079.5,1394.2" fill="none" stroke="#433320" stroke-width="22" stroke-linecap="round" stroke-linejoin="round"/><polyline points="990.2,1208.8 989.9,1204.5 991.2,1199.8 994.1,1195.3 998.8,1191.5 1004.9,1188.8 1012.1,1187.9 1019.9,1189.1 1027.6,1192.6 1034.8,1198.4 1040.5,1206.3 1044.3,1216.1 1045.5,1227.1 1043.8,1238.8 1039,1250.3 1031.1,1260.7 1020.3,1269.2 1007.1,1275.1 992.3,1277.7 976.5,1276.5 961,1271.3 946.6,1262.1 934.4,1249.1 925.4,1233 920.5,1214.5 920.2,1194.7 924.8,1174.8 934.4,1156 948.8,1139.6 967.2,1126.7 988.9,1118.4 1012.5,1115.5 1036.8,1118.5 1060.3,1127.5 1081.6,1142.3 1099,1162.3 1111.5,1186.4 1118,1213.6 1117.7,1242.1 1110.4,1270.4 1096.2,1296.8 1075.7,1319.4 1049.8,1336.9 1019.8,1347.8 987.3,1351.3 954.3,1346.9 922.8,1334.4 894.5,1314.3 871.5,1287.6 855.2,1255.5 846.9,1219.7 847.4,1182.4 857,1145.6 875.5,1111.6 902,1082.5 935.3,1060.1 973.5,1046.2 1014.7,1041.7 1056.4,1047.3 1096.2,1063 1131.7,1088.1 1160.6,1121.4 1181,1161.3 1191.4,1205.6 1191,1251.8 1179.3,1297.1 1156.9,1339 1124.6,1374.8 1084.2,1402.3" fill="none" stroke="#433320" stroke-width="22" stroke-linecap="round" stroke-linejoin="round"/><polyline points="1409.8,1208.8 1410.1,1204.5 1408.8,1199.8 1405.9,1195.3 1401.2,1191.5 1395.1,1188.8 1387.9,1187.9 1380.1,1189.1 1372.4,1192.6 1365.2,1198.4 1359.5,1206.3 1355.7,1216.1 1354.5,1227.1 1356.2,1238.8 1361,1250.3 1368.9,1260.7 1379.7,1269.2 1392.9,1275.1 1407.7,1277.7 1423.5,1276.5 1439,1271.3 1453.4,1262.1 1465.6,1249.1 1474.6,1233 1479.5,1214.5 1479.8,1194.7 1475.2,1174.8 1465.6,1156 1451.2,1139.6 1432.8,1126.7 1411.1,1118.4 1387.5,1115.5 1363.2,1118.5 1339.7,1127.5 1318.4,1142.3 1301,1162.3 1288.5,1186.4 1282,1213.6 1282.3,1242.1 1289.6,1270.4 1303.8,1296.8 1324.3,1319.4 1350.2,1336.9 1380.2,1347.8 1412.7,1351.3 1445.7,1346.9 1477.2,1334.4 1505.5,1314.3 1528.5,1287.6 1544.8,1255.5 1553.1,1219.7 1552.6,1182.4 1543,1145.6 1524.5,1111.6 1498,1082.5 1464.7,1060.1 1426.5,1046.2 1385.3,1041.7 1343.6,1047.3 1303.8,1063 1268.3,1088.1 1239.4,1121.4 1219,1161.3 1208.6,1205.6 1209,1251.8 1220.7,1297.1 1243.1,1339 1275.4,1374.8 1315.8,1402.3" fill="none" stroke="#433320" stroke-width="22" stroke-linecap="round" stroke-linejoin="round"/><polyline points="812.8,1977.1 811.5,1978.7 810.8,1980.8 810.8,1983.4 811.7,1986.2 813.5,1988.8 816.2,1991 819.7,1992.4 823.8,1992.9 828.3,1992.3 832.7,1990.3 836.7,1987.1 839.9,1982.7 842.1,1977.3 842.8,1971.2 841.9,1964.8 839.3,1958.5 835,1952.7 829.2,1948 822,1944.8 813.9,1943.3 805.4,1944 797,1946.8 789.2,1951.8 782.7,1958.8 777.9,1967.5 775.3,1977.4 775.2,1988 777.8,1998.7 783.1,2008.7 790.8,2017.3 800.8,2024.1 812.4,2028.3 825,2029.6 837.9,2027.7 850.3,2022.6 861.4,2014.5 870.3,2003.6 876.6,1990.6 879.5,1976.2 878.9,1961.1 874.5,1946.2 866.5,1932.6 855.2,1921.1 841.1,1912.4 825,1907.4 807.8,1906.3 790.6,1909.5 774.3,1916.9 760,1928.3 748.6,1943 741.1,1960.3 737.8,1979.4 739.3,1999 745.6,2017.9 756.5,2035.1 771.4,2049.4 789.6,2059.9" fill="none" stroke="#433320" stroke-width="14" stroke-linecap="round" stroke-linejoin="round"/><polyline points="1172.9,1972.3 1173.3,1970.2 1174.5,1968.2 1176.6,1966.6 1179.3,1965.5 1182.6,1965.2 1186.1,1966 1189.6,1967.8 1192.6,1970.8 1195,1974.7 1196.3,1979.5 1196.4,1984.7 1195,1990.2 1192.1,1995.4 1187.7,2000 1182,2003.4 1175.3,2005.5 1167.9,2005.8 1160.4,2004.2 1153.1,2000.6 1146.7,1995.2 1141.7,1988 1138.5,1979.4 1137.4,1970 1138.7,1960.3 1142.5,1950.8 1148.7,1942.3 1157.1,1935.3 1167.2,1930.4 1178.6,1928.1 1190.6,1928.6 1202.4,1932.2 1213.3,1938.6 1222.5,1947.8 1229.4,1959.3 1233.5,1972.5 1234.2,1986.6 1231.4,2000.7 1225.1,2014.2 1215.6,2025.9 1203.1,2035.3 1188.5,2041.4 1172.4,2043.9 1155.9,2042.4 1139.9,2036.9 1125.4,2027.4 1113.3,2014.4 1104.6,1998.6 1099.9,1980.8 1099.7,1962.1 1104,1943.5 1112.9,1926.1 1125.9,1911.2 1142.4,1899.6 1161.6,1892.3 1182.3,1889.7 1203.4,1892.3 1223.6,1900" fill="none" stroke="#433320" stroke-width="14" stroke-linecap="round" stroke-linejoin="round"/><polyline points="778,2013 777,2010.6 776.8,2007.7 777.7,2004.5 779.7,2001.4 782.9,1998.8 787,1997.1 791.8,1996.5 797.1,1997.3 802.3,1999.7 807,2003.6 810.8,2008.9 813.3,2015.4 814,2022.8 812.8,2030.6 809.5,2038.2 804.1,2045.1 796.9,2050.6 788,2054.4 778.1,2055.9 767.7,2054.9 757.4,2051.1 748,2044.8 740.2,2035.9 734.6,2025.1 731.7,2012.7 732,1999.6 735.5,1986.5 742.4,1974.3 752.4,1963.8 764.9,1955.9 779.5,1951.1 795.2,1949.9 811.2,1952.7 826.4,1959.4 839.9,1970 850.7,1983.8 857.9,2000.2 861.1,2018.4 859.7,2037.2 853.7,2055.6 843.2,2072.3 828.6,2086.3 810.7,2096.5 790.4,2102.3 768.8,2102.9 747.4,2098.3 727.2,2088.4 709.8,2073.6 696.1,2054.7 687.3,2032.7 684,2008.7 686.6,1984.2 695.2,1960.6 709.5,1939.5 728.8,1922.1 752.1,1909.7 778.2,1903.1" fill="none" stroke="#433320" stroke-width="14" stroke-linecap="round" stroke-linejoin="round"/><polyline points="946.2,2201.1 945.4,2199.7 944.1,2198.5 942.2,2197.7 939.9,2197.5 937.5,2198 935,2199.3 932.9,2201.4 931.2,2204.2 930.3,2207.6 930.3,2211.4 931.4,2215.4 933.6,2219.1 936.9,2222.4 941.1,2224.8 946,2226.2 951.5,2226.3 957,2224.9 962.2,2222.1 966.8,2218 970.4,2212.5 972.6,2206.1 973.2,2199.1 972,2191.9 968.9,2184.9 964.1,2178.7 957.7,2173.7 950,2170.4 941.4,2168.9 932.5,2169.6 923.8,2172.5 915.8,2177.7 909.1,2184.8 904.2,2193.6 901.5,2203.6 901.3,2214.2 903.8,2224.8 908.8,2234.7 916.4,2243.3 926,2250 937.2,2254.3 949.3,2255.7 961.8,2254.1 973.7,2249.5 984.4,2242 993.1,2231.8 999.3,2219.7 1002.3,2206.1 1002,2191.9 998.3,2178 991.1,2165.1 980.8,2154.1 968,2145.8 953.3,2140.8 937.5,2139.4 921.6,2141.9 906.5,2148.3 893.2,2158.4" fill="none" stroke="#433320" stroke-width="14" stroke-linecap="round" stroke-linejoin="round"/><polyline points="521.8,2450 556.5,2373.5 591.1,2450" fill="none" stroke="#433320" stroke-width="12.6"/><polyline points="620.8,2450 655.5,2373.5 690.1,2450" fill="none" stroke="#433320" stroke-width="12.6"/><polyline points="719.8,2450 754.5,2373.5 789.1,2450" fill="none" stroke="#433320" stroke-width="12.6"/><polyline points="818.9,2450 853.5,2373.5 888.1,2450" fill="none" stroke="#433320" stroke-width="12.6"/><polyline points="917.9,2450 952.5,2373.5 987.1,2450" fill="none" stroke="#433320" stroke-width="12.6"/><polyline points="1016.9,2450 1051.5,2373.5 1086.2,2450" fill="none" stroke="#433320" stroke-width="12.6"/><polyline points="1115.8,2450 1150.5,2373.5 1185.2,2450" fill="none" stroke="#433320" stroke-width="12.6"/><polyline points="1214.8,2450 1249.5,2373.5 1284.2,2450" fill="none" stroke="#433320" stroke-width="12.6"/><polyline points="1313.8,2450 1348.5,2373.5 1383.2,2450" fill="none" stroke="#433320" stroke-width="12.6"/><polyline points="1412.8,2450 1447.5,2373.5 1482.2,2450" fill="none" stroke="#433320" stroke-width="12.6"/><polyline points="1511.8,2450 1546.5,2373.5 1581.2,2450" fill="none" stroke="#433320" stroke-width="12.6"/><polyline points="1610.8,2450 1645.5,2373.5 1680.2,2450" fill="none" stroke="#433320" stroke-width="12.6"/><polyline points="1709.8,2450 1744.5,2373.5 1779.2,2450" fill="none" stroke="#433320" stroke-width="12.6"/><polyline points="1808.8,2450 1843.5,2373.5 1878.2,2450" fill="none" stroke="#433320" stroke-width="12.6"/></g><circle cx="390" cy="200" r="15.6" fill="#433320"/><circle cx="450" cy="200" r="15.6" fill="#433320"/><circle cx="510" cy="200" r="15.6" fill="#433320"/><circle cx="570" cy="200" r="15.6" fill="#433320"/><circle cx="630" cy="200" r="15.6" fill="#433320"/><circle cx="690" cy="200" r="15.6" fill="#433320"/><circle cx="750" cy="200" r="15.6" fill="#433320"/><circle cx="810" cy="200" r="15.6" fill="#433320"/><circle cx="870" cy="200" r="15.6" fill="#433320"/><circle cx="930" cy="200" r="15.6" fill="#433320"/><circle cx="990" cy="200" r="15.6" fill="#433320"/><circle cx="1050" cy="200" r="15.6" fill="#433320"/><circle cx="1110" cy="200" r="15.6" fill="#433320"/><circle cx="1170" cy="200" r="15.6" fill="#433320"/><circle cx="1230" cy="200" r="15.6" fill="#433320"/><circle cx="1290" cy="200" r="15.6" fill="#433320"/><circle cx="1350" cy="200" r="15.6" fill="#433320"/><circle cx="1410" cy="200" r="15.6" fill="#433320"/><circle cx="1470" cy="200" r="15.6" fill="#433320"/><circle cx="1530" cy="200" r="15.6" fill="#433320"/><circle cx="1590" cy="200" r="15.6" fill="#433320"/><circle cx="1650" cy="200" r="15.6" fill="#433320"/><circle cx="1710" cy="200" r="15.6" fill="#433320"/><circle cx="1770" cy="200" r="15.6" fill="#433320"/><circle cx="1830" cy="200" r="15.6" fill="#433320"/><circle cx="1890" cy="200" r="15.6" fill="#433320"/><circle cx="1950" cy="200" r="15.6" fill="#433320"/><circle cx="2010" cy="200" r="15.6" fill="#433320"/><circle cx="390" cy="2800" r="15.6" fill="#433320"/><circle cx="450" cy="2800" r="15.6" fill="#433320"/><circle cx="510" cy="2800" r="15.6" fill="#433320"/><circle cx="570" cy="2800" r="15.6" fill="#433320"/><circle cx="630" cy="2800" r="15.6" fill="#433320"/><circle cx="690" cy="2800" r="15.6" fill="#433320"/><circle cx="750" cy="2800" r="15.6" fill="#433320"/><circle cx="810" cy="2800" r="15.6" fill="#433320"/><circle cx="870" cy="2800" r="15.6" fill="#433320"/><circle cx="930" cy="2800" r="15.6" fill="#433320"/><circle cx="990" cy="2800" r="15.6" fill="#433320"/><circle cx="1050" cy="2800" r="15.6" fill="#433320"/><circle cx="1110" cy="2800" r="15.6" fill="#433320"/><circle cx="1170" cy="2800" r="15.6" fill="#433320"/><circle cx="1230" cy="2800" r="15.6" fill="#433320"/><circle cx="1290" cy="2800" r="15.6" fill="#433320"/><circle cx="1350" cy="2800" r="15.6" fill="#433320"/><circle cx="1410" cy="2800" r="15.6" fill="#433320"/><circle cx="1470" cy="2800" r="15.6" fill="#433320"/><circle cx="1530" cy="2800" r="15.6" fill="#433320"/><circle cx="1590" cy="2800" r="15.6" fill="#433320"/><circle cx="1650" cy="2800" r="15.6" fill="#433320"/><circle cx="1710" cy="2800" r="15.6" fill="#433320"/><circle cx="1770" cy="2800" r="15.6" fill="#433320"/><circle cx="1830" cy="2800" r="15.6" fill="#433320"/><circle cx="1890" cy="2800" r="15.6" fill="#433320"/><circle cx="1950" cy="2800" r="15.6" fill="#433320"/><circle cx="2010" cy="2800" r="15.6" fill="#433320"/><rect x="130" y="130" width="2140" height="2740" fill="none" stroke="#433320" stroke-width="5"/><rect x="152" y="152" width="2096" height="2696" fill="none" stroke="#433320" stroke-width="2.5" opacity="0.8"/></g><rect width="2400" height="3000" filter="url(#a55-mottle)" style="mix-blend-mode:multiply" opacity="0.5"/><rect width="2400" height="3000" filter="url(#a55-fade)" style="mix-blend-mode:screen" opacity="0.55"/><rect width="2400" height="3000" filter="url(#a55-grain)" style="mix-blend-mode:multiply" opacity="0.32"/><ellipse cx="1245.5" cy="1653.4" rx="193.4" ry="140.3" fill="#6b4a22" opacity="0.053" filter="url(#a55-blur9)"/><ellipse cx="964.6" cy="1687.1" rx="103.1" ry="64.9" fill="#6b4a22" opacity="0.029" filter="url(#a55-blur9)"/><ellipse cx="516.8" cy="1876.2" rx="126.1" ry="83.3" fill="#6b4a22" opacity="0.038" filter="url(#a55-blur9)"/><g opacity="0.3"><rect y="3" width="2400" height="2" fill="#e2d4b4"/><rect y="11" width="2400" height="2" fill="#e2d4b4"/><rect y="19" width="2400" height="2" fill="#e2d4b4"/><rect y="27" width="2400" height="2" fill="#e2d4b4"/><rect y="35" width="2400" height="2" fill="#e2d4b4"/><rect y="43" width="2400" height="2" fill="#e2d4b4"/><rect y="51" width="2400" height="2" fill="#e2d4b4"/><rect y="59" width="2400" height="2" fill="#e2d4b4"/><rect y="67" width="2400" height="2" fill="#e2d4b4"/><rect y="75" width="2400" height="2" fill="#e2d4b4"/><rect y="83" width="2400" height="2" fill="#e2d4b4"/><rect y="91" width="2400" height="2" fill="#e2d4b4"/><rect y="99" width="2400" height="2" fill="#e2d4b4"/><rect y="107" width="2400" height="2" fill="#e2d4b4"/><rect y="115" width="2400" height="2" fill="#e2d4b4"/><rect y="123" width="2400" height="2" fill="#e2d4b4"/><rect y="131" width="2400" height="2" fill="#e2d4b4"/><rect y="139" width="2400" height="2" fill="#e2d4b4"/><rect y="147" width="2400" height="2" fill="#e2d4b4"/><rect y="155" width="2400" height="2" fill="#e2d4b4"/><rect y="163" width="2400" height="2" fill="#e2d4b4"/><rect y="171" width="2400" height="2" fill="#e2d4b4"/><rect y="179" width="2400" height="2" fill="#e2d4b4"/><rect y="187" width="2400" height="2" fill="#e2d4b4"/><rect y="195" width="2400" height="2" fill="#e2d4b4"/><rect y="203" width="2400" height="2" fill="#e2d4b4"/><rect y="211" width="2400" height="2" fill="#e2d4b4"/><rect y="219" width="2400" height="2" fill="#e2d4b4"/><rect y="227" width="2400" height="2" fill="#e2d4b4"/><rect y="235" width="2400" height="2" fill="#e2d4b4"/><rect y="243" width="2400" height="2" fill="#e2d4b4"/><rect y="251" width="2400" height="2" fill="#e2d4b4"/><rect y="259" width="2400" height="2" fill="#e2d4b4"/><rect y="267" width="2400" height="2" fill="#e2d4b4"/><rect y="275" width="2400" height="2" fill="#e2d4b4"/><rect y="283" width="2400" height="2" fill="#e2d4b4"/><rect y="291" width="2400" height="2" fill="#e2d4b4"/><rect y="299" width="2400" height="2" fill="#e2d4b4"/><rect y="307" width="2400" height="2" fill="#e2d4b4"/><rect y="315" width="2400" height="2" fill="#e2d4b4"/><rect y="323" width="2400" height="2" fill="#e2d4b4"/><rect y="331" width="2400" height="2" fill="#e2d4b4"/><rect y="339" width="2400" height="2" fill="#e2d4b4"/><rect y="347" width="2400" height="2" fill="#e2d4b4"/><rect y="355" width="2400" height="2" fill="#e2d4b4"/><rect y="363" width="2400" height="2" fill="#e2d4b4"/><rect y="371" width="2400" height="2" fill="#e2d4b4"/><rect y="379" width="2400" height="2" fill="#e2d4b4"/><rect y="387" width="2400" height="2" fill="#e2d4b4"/><rect y="395" width="2400" height="2" fill="#e2d4b4"/><rect y="403" width="2400" height="2" fill="#e2d4b4"/><rect y="411" width="2400" height="2" fill="#e2d4b4"/><rect y="419" width="2400" height="2" fill="#e2d4b4"/><rect y="427" width="2400" height="2" fill="#e2d4b4"/><rect y="435" width="2400" height="2" fill="#e2d4b4"/><rect y="443" width="2400" height="2" fill="#e2d4b4"/><rect y="451" width="2400" height="2" fill="#e2d4b4"/><rect y="459" width="2400" height="2" fill="#e2d4b4"/><rect y="467" width="2400" height="2" fill="#e2d4b4"/><rect y="475" width="2400" height="2" fill="#e2d4b4"/><rect y="483" width="2400" height="2" fill="#e2d4b4"/><rect y="491" width="2400" height="2" fill="#e2d4b4"/><rect y="499" width="2400" height="2" fill="#e2d4b4"/><rect y="507" width="2400" height="2" fill="#e2d4b4"/><rect y="515" width="2400" height="2" fill="#e2d4b4"/><rect y="523" width="2400" height="2" fill="#e2d4b4"/><rect y="531" width="2400" height="2" fill="#e2d4b4"/><rect y="539" width="2400" height="2" fill="#e2d4b4"/><rect y="547" width="2400" height="2" fill="#e2d4b4"/><rect y="555" width="2400" height="2" fill="#e2d4b4"/><rect y="563" width="2400" height="2" fill="#e2d4b4"/><rect y="571" width="2400" height="2" fill="#e2d4b4"/><rect y="579" width="2400" height="2" fill="#e2d4b4"/><rect y="587" width="2400" height="2" fill="#e2d4b4"/><rect y="595" width="2400" height="2" fill="#e2d4b4"/><rect y="603" width="2400" height="2" fill="#e2d4b4"/><rect y="611" width="2400" height="2" fill="#e2d4b4"/><rect y="619" width="2400" height="2" fill="#e2d4b4"/><rect y="627" width="2400" height="2" fill="#e2d4b4"/><rect y="635" width="2400" height="2" fill="#e2d4b4"/><rect y="643" width="2400" height="2" fill="#e2d4b4"/><rect y="651" width="2400" height="2" fill="#e2d4b4"/><rect y="659" width="2400" height="2" fill="#e2d4b4"/><rect y="667" width="2400" height="2" fill="#e2d4b4"/><rect y="675" width="2400" height="2" fill="#e2d4b4"/><rect y="683" width="2400" height="2" fill="#e2d4b4"/><rect y="691" width="2400" height="2" fill="#e2d4b4"/><rect y="699" width="2400" height="2" fill="#e2d4b4"/><rect y="707" width="2400" height="2" fill="#e2d4b4"/><rect y="715" width="2400" height="2" fill="#e2d4b4"/><rect y="723" width="2400" height="2" fill="#e2d4b4"/><rect y="731" width="2400" height="2" fill="#e2d4b4"/><rect y="739" width="2400" height="2" fill="#e2d4b4"/><rect y="747" width="2400" height="2" fill="#e2d4b4"/><rect y="755" width="2400" height="2" fill="#e2d4b4"/><rect y="763" width="2400" height="2" fill="#e2d4b4"/><rect y="771" width="2400" height="2" fill="#e2d4b4"/><rect y="779" width="2400" height="2" fill="#e2d4b4"/><rect y="787" width="2400" height="2" fill="#e2d4b4"/><rect y="795" width="2400" height="2" fill="#e2d4b4"/><rect y="803" width="2400" height="2" fill="#e2d4b4"/><rect y="811" width="2400" height="2" fill="#e2d4b4"/><rect y="819" width="2400" height="2" fill="#e2d4b4"/><rect y="827" width="2400" height="2" fill="#e2d4b4"/><rect y="835" width="2400" height="2" fill="#e2d4b4"/><rect y="843" width="2400" height="2" fill="#e2d4b4"/><rect y="851" width="2400" height="2" fill="#e2d4b4"/><rect y="859" width="2400" height="2" fill="#e2d4b4"/><rect y="867" width="2400" height="2" fill="#e2d4b4"/><rect y="875" width="2400" height="2" fill="#e2d4b4"/><rect y="883" width="2400" height="2" fill="#e2d4b4"/><rect y="891" width="2400" height="2" fill="#e2d4b4"/><rect y="899" width="2400" height="2" fill="#e2d4b4"/><rect y="907" width="2400" height="2" fill="#e2d4b4"/><rect y="915" width="2400" height="2" fill="#e2d4b4"/><rect y="923" width="2400" height="2" fill="#e2d4b4"/><rect y="931" width="2400" height="2" fill="#e2d4b4"/><rect y="939" width="2400" height="2" fill="#e2d4b4"/><rect y="947" width="2400" height="2" fill="#e2d4b4"/><rect y="955" width="2400" height="2" fill="#e2d4b4"/><rect y="963" width="2400" height="2" fill="#e2d4b4"/><rect y="971" width="2400" height="2" fill="#e2d4b4"/><rect y="979" width="2400" height="2" fill="#e2d4b4"/><rect y="987" width="2400" height="2" fill="#e2d4b4"/><rect y="995" width="2400" height="2" fill="#e2d4b4"/><rect y="1003" width="2400" height="2" fill="#e2d4b4"/><rect y="1011" width="2400" height="2" fill="#e2d4b4"/><rect y="1019" width="2400" height="2" fill="#e2d4b4"/><rect y="1027" width="2400" height="2" fill="#e2d4b4"/><rect y="1035" width="2400" height="2" fill="#e2d4b4"/><rect y="1043" width="2400" height="2" fill="#e2d4b4"/><rect y="1051" width="2400" height="2" fill="#e2d4b4"/><rect y="1059" width="2400" height="2" fill="#e2d4b4"/><rect y="1067" width="2400" height="2" fill="#e2d4b4"/><rect y="1075" width="2400" height="2" fill="#e2d4b4"/><rect y="1083" width="2400" height="2" fill="#e2d4b4"/><rect y="1091" width="2400" height="2" fill="#e2d4b4"/><rect y="1099" width="2400" height="2" fill="#e2d4b4"/><rect y="1107" width="2400" height="2" fill="#e2d4b4"/><rect y="1115" width="2400" height="2" fill="#e2d4b4"/><rect y="1123" width="2400" height="2" fill="#e2d4b4"/><rect y="1131" width="2400" height="2" fill="#e2d4b4"/><rect y="1139" width="2400" height="2" fill="#e2d4b4"/><rect y="1147" width="2400" height="2" fill="#e2d4b4"/><rect y="1155" width="2400" height="2" fill="#e2d4b4"/><rect y="1163" width="2400" height="2" fill="#e2d4b4"/><rect y="1171" width="2400" height="2" fill="#e2d4b4"/><rect y="1179" width="2400" height="2" fill="#e2d4b4"/><rect y="1187" width="2400" height="2" fill="#e2d4b4"/><rect y="1195" width="2400" height="2" fill="#e2d4b4"/><rect y="1203" width="2400" height="2" fill="#e2d4b4"/><rect y="1211" width="2400" height="2" fill="#e2d4b4"/><rect y="1219" width="2400" height="2" fill="#e2d4b4"/><rect y="1227" width="2400" height="2" fill="#e2d4b4"/><rect y="1235" width="2400" height="2" fill="#e2d4b4"/><rect y="1243" width="2400" height="2" fill="#e2d4b4"/><rect y="1251" width="2400" height="2" fill="#e2d4b4"/><rect y="1259" width="2400" height="2" fill="#e2d4b4"/><rect y="1267" width="2400" height="2" fill="#e2d4b4"/><rect y="1275" width="2400" height="2" fill="#e2d4b4"/><rect y="1283" width="2400" height="2" fill="#e2d4b4"/><rect y="1291" width="2400" height="2" fill="#e2d4b4"/><rect y="1299" width="2400" height="2" fill="#e2d4b4"/><rect y="1307" width="2400" height="2" fill="#e2d4b4"/><rect y="1315" width="2400" height="2" fill="#e2d4b4"/><rect y="1323" width="2400" height="2" fill="#e2d4b4"/><rect y="1331" width="2400" height="2" fill="#e2d4b4"/><rect y="1339" width="2400" height="2" fill="#e2d4b4"/><rect y="1347" width="2400" height="2" fill="#e2d4b4"/><rect y="1355" width="2400" height="2" fill="#e2d4b4"/><rect y="1363" width="2400" height="2" fill="#e2d4b4"/><rect y="1371" width="2400" height="2" fill="#e2d4b4"/><rect y="1379" width="2400" height="2" fill="#e2d4b4"/><rect y="1387" width="2400" height="2" fill="#e2d4b4"/><rect y="1395" width="2400" height="2" fill="#e2d4b4"/><rect y="1403" width="2400" height="2" fill="#e2d4b4"/><rect y="1411" width="2400" height="2" fill="#e2d4b4"/><rect y="1419" width="2400" height="2" fill="#e2d4b4"/><rect y="1427" width="2400" height="2" fill="#e2d4b4"/><rect y="1435" width="2400" height="2" fill="#e2d4b4"/><rect y="1443" width="2400" height="2" fill="#e2d4b4"/><rect y="1451" width="2400" height="2" fill="#e2d4b4"/><rect y="1459" width="2400" height="2" fill="#e2d4b4"/><rect y="1467" width="2400" height="2" fill="#e2d4b4"/><rect y="1475" width="2400" height="2" fill="#e2d4b4"/><rect y="1483" width="2400" height="2" fill="#e2d4b4"/><rect y="1491" width="2400" height="2" fill="#e2d4b4"/><rect y="1499" width="2400" height="2" fill="#e2d4b4"/><rect y="1507" width="2400" height="2" fill="#e2d4b4"/><rect y="1515" width="2400" height="2" fill="#e2d4b4"/><rect y="1523" width="2400" height="2" fill="#e2d4b4"/><rect y="1531" width="2400" height="2" fill="#e2d4b4"/><rect y="1539" width="2400" height="2" fill="#e2d4b4"/><rect y="1547" width="2400" height="2" fill="#e2d4b4"/><rect y="1555" width="2400" height="2" fill="#e2d4b4"/><rect y="1563" width="2400" height="2" fill="#e2d4b4"/><rect y="1571" width="2400" height="2" fill="#e2d4b4"/><rect y="1579" width="2400" height="2" fill="#e2d4b4"/><rect y="1587" width="2400" height="2" fill="#e2d4b4"/><rect y="1595" width="2400" height="2" fill="#e2d4b4"/><rect y="1603" width="2400" height="2" fill="#e2d4b4"/><rect y="1611" width="2400" height="2" fill="#e2d4b4"/><rect y="1619" width="2400" height="2" fill="#e2d4b4"/><rect y="1627" width="2400" height="2" fill="#e2d4b4"/><rect y="1635" width="2400" height="2" fill="#e2d4b4"/><rect y="1643" width="2400" height="2" fill="#e2d4b4"/><rect y="1651" width="2400" height="2" fill="#e2d4b4"/><rect y="1659" width="2400" height="2" fill="#e2d4b4"/><rect y="1667" width="2400" height="2" fill="#e2d4b4"/><rect y="1675" width="2400" height="2" fill="#e2d4b4"/><rect y="1683" width="2400" height="2" fill="#e2d4b4"/><rect y="1691" width="2400" height="2" fill="#e2d4b4"/><rect y="1699" width="2400" height="2" fill="#e2d4b4"/><rect y="1707" width="2400" height="2" fill="#e2d4b4"/><rect y="1715" width="2400" height="2" fill="#e2d4b4"/><rect y="1723" width="2400" height="2" fill="#e2d4b4"/><rect y="1731" width="2400" height="2" fill="#e2d4b4"/><rect y="1739" width="2400" height="2" fill="#e2d4b4"/><rect y="1747" width="2400" height="2" fill="#e2d4b4"/><rect y="1755" width="2400" height="2" fill="#e2d4b4"/><rect y="1763" width="2400" height="2" fill="#e2d4b4"/><rect y="1771" width="2400" height="2" fill="#e2d4b4"/><rect y="1779" width="2400" height="2" fill="#e2d4b4"/><rect y="1787" width="2400" height="2" fill="#e2d4b4"/><rect y="1795" width="2400" height="2" fill="#e2d4b4"/><rect y="1803" width="2400" height="2" fill="#e2d4b4"/><rect y="1811" width="2400" height="2" fill="#e2d4b4"/><rect y="1819" width="2400" height="2" fill="#e2d4b4"/><rect y="1827" width="2400" height="2" fill="#e2d4b4"/><rect y="1835" width="2400" height="2" fill="#e2d4b4"/><rect y="1843" width="2400" height="2" fill="#e2d4b4"/><rect y="1851" width="2400" height="2" fill="#e2d4b4"/><rect y="1859" width="2400" height="2" fill="#e2d4b4"/><rect y="1867" width="2400" height="2" fill="#e2d4b4"/><rect y="1875" width="2400" height="2" fill="#e2d4b4"/><rect y="1883" width="2400" height="2" fill="#e2d4b4"/><rect y="1891" width="2400" height="2" fill="#e2d4b4"/><rect y="1899" width="2400" height="2" fill="#e2d4b4"/><rect y="1907" width="2400" height="2" fill="#e2d4b4"/><rect y="1915" width="2400" height="2" fill="#e2d4b4"/><rect y="1923" width="2400" height="2" fill="#e2d4b4"/><rect y="1931" width="2400" height="2" fill="#e2d4b4"/><rect y="1939" width="2400" height="2" fill="#e2d4b4"/><rect y="1947" width="2400" height="2" fill="#e2d4b4"/><rect y="1955" width="2400" height="2" fill="#e2d4b4"/><rect y="1963" width="2400" height="2" fill="#e2d4b4"/><rect y="1971" width="2400" height="2" fill="#e2d4b4"/><rect y="1979" width="2400" height="2" fill="#e2d4b4"/><rect y="1987" width="2400" height="2" fill="#e2d4b4"/><rect y="1995" width="2400" height="2" fill="#e2d4b4"/><rect y="2003" width="2400" height="2" fill="#e2d4b4"/><rect y="2011" width="2400" height="2" fill="#e2d4b4"/><rect y="2019" width="2400" height="2" fill="#e2d4b4"/><rect y="2027" width="2400" height="2" fill="#e2d4b4"/><rect y="2035" width="2400" height="2" fill="#e2d4b4"/><rect y="2043" width="2400" height="2" fill="#e2d4b4"/><rect y="2051" width="2400" height="2" fill="#e2d4b4"/><rect y="2059" width="2400" height="2" fill="#e2d4b4"/><rect y="2067" width="2400" height="2" fill="#e2d4b4"/><rect y="2075" width="2400" height="2" fill="#e2d4b4"/><rect y="2083" width="2400" height="2" fill="#e2d4b4"/><rect y="2091" width="2400" height="2" fill="#e2d4b4"/><rect y="2099" width="2400" height="2" fill="#e2d4b4"/><rect y="2107" width="2400" height="2" fill="#e2d4b4"/><rect y="2115" width="2400" height="2" fill="#e2d4b4"/><rect y="2123" width="2400" height="2" fill="#e2d4b4"/><rect y="2131" width="2400" height="2" fill="#e2d4b4"/><rect y="2139" width="2400" height="2" fill="#e2d4b4"/><rect y="2147" width="2400" height="2" fill="#e2d4b4"/><rect y="2155" width="2400" height="2" fill="#e2d4b4"/><rect y="2163" width="2400" height="2" fill="#e2d4b4"/><rect y="2171" width="2400" height="2" fill="#e2d4b4"/><rect y="2179" width="2400" height="2" fill="#e2d4b4"/><rect y="2187" width="2400" height="2" fill="#e2d4b4"/><rect y="2195" width="2400" height="2" fill="#e2d4b4"/><rect y="2203" width="2400" height="2" fill="#e2d4b4"/><rect y="2211" width="2400" height="2" fill="#e2d4b4"/><rect y="2219" width="2400" height="2" fill="#e2d4b4"/><rect y="2227" width="2400" height="2" fill="#e2d4b4"/><rect y="2235" width="2400" height="2" fill="#e2d4b4"/><rect y="2243" width="2400" height="2" fill="#e2d4b4"/><rect y="2251" width="2400" height="2" fill="#e2d4b4"/><rect y="2259" width="2400" height="2" fill="#e2d4b4"/><rect y="2267" width="2400" height="2" fill="#e2d4b4"/><rect y="2275" width="2400" height="2" fill="#e2d4b4"/><rect y="2283" width="2400" height="2" fill="#e2d4b4"/><rect y="2291" width="2400" height="2" fill="#e2d4b4"/><rect y="2299" width="2400" height="2" fill="#e2d4b4"/><rect y="2307" width="2400" height="2" fill="#e2d4b4"/><rect y="2315" width="2400" height="2" fill="#e2d4b4"/><rect y="2323" width="2400" height="2" fill="#e2d4b4"/><rect y="2331" width="2400" height="2" fill="#e2d4b4"/><rect y="2339" width="2400" height="2" fill="#e2d4b4"/><rect y="2347" width="2400" height="2" fill="#e2d4b4"/><rect y="2355" width="2400" height="2" fill="#e2d4b4"/><rect y="2363" width="2400" height="2" fill="#e2d4b4"/><rect y="2371" width="2400" height="2" fill="#e2d4b4"/><rect y="2379" width="2400" height="2" fill="#e2d4b4"/><rect y="2387" width="2400" height="2" fill="#e2d4b4"/><rect y="2395" width="2400" height="2" fill="#e2d4b4"/><rect y="2403" width="2400" height="2" fill="#e2d4b4"/><rect y="2411" width="2400" height="2" fill="#e2d4b4"/><rect y="2419" width="2400" height="2" fill="#e2d4b4"/><rect y="2427" width="2400" height="2" fill="#e2d4b4"/><rect y="2435" width="2400" height="2" fill="#e2d4b4"/><rect y="2443" width="2400" height="2" fill="#e2d4b4"/><rect y="2451" width="2400" height="2" fill="#e2d4b4"/><rect y="2459" width="2400" height="2" fill="#e2d4b4"/><rect y="2467" width="2400" height="2" fill="#e2d4b4"/><rect y="2475" width="2400" height="2" fill="#e2d4b4"/><rect y="2483" width="2400" height="2" fill="#e2d4b4"/><rect y="2491" width="2400" height="2" fill="#e2d4b4"/><rect y="2499" width="2400" height="2" fill="#e2d4b4"/><rect y="2507" width="2400" height="2" fill="#e2d4b4"/><rect y="2515" width="2400" height="2" fill="#e2d4b4"/><rect y="2523" width="2400" height="2" fill="#e2d4b4"/><rect y="2531" width="2400" height="2" fill="#e2d4b4"/><rect y="2539" width="2400" height="2" fill="#e2d4b4"/><rect y="2547" width="2400" height="2" fill="#e2d4b4"/><rect y="2555" width="2400" height="2" fill="#e2d4b4"/><rect y="2563" width="2400" height="2" fill="#e2d4b4"/><rect y="2571" width="2400" height="2" fill="#e2d4b4"/><rect y="2579" width="2400" height="2" fill="#e2d4b4"/><rect y="2587" width="2400" height="2" fill="#e2d4b4"/><rect y="2595" width="2400" height="2" fill="#e2d4b4"/><rect y="2603" width="2400" height="2" fill="#e2d4b4"/><rect y="2611" width="2400" height="2" fill="#e2d4b4"/><rect y="2619" width="2400" height="2" fill="#e2d4b4"/><rect y="2627" width="2400" height="2" fill="#e2d4b4"/><rect y="2635" width="2400" height="2" fill="#e2d4b4"/><rect y="2643" width="2400" height="2" fill="#e2d4b4"/><rect y="2651" width="2400" height="2" fill="#e2d4b4"/><rect y="2659" width="2400" height="2" fill="#e2d4b4"/><rect y="2667" width="2400" height="2" fill="#e2d4b4"/><rect y="2675" width="2400" height="2" fill="#e2d4b4"/><rect y="2683" width="2400" height="2" fill="#e2d4b4"/><rect y="2691" width="2400" height="2" fill="#e2d4b4"/><rect y="2699" width="2400" height="2" fill="#e2d4b4"/><rect y="2707" width="2400" height="2" fill="#e2d4b4"/><rect y="2715" width="2400" height="2" fill="#e2d4b4"/><rect y="2723" width="2400" height="2" fill="#e2d4b4"/><rect y="2731" width="2400" height="2" fill="#e2d4b4"/><rect y="2739" width="2400" height="2" fill="#e2d4b4"/><rect y="2747" width="2400" height="2" fill="#e2d4b4"/><rect y="2755" width="2400" height="2" fill="#e2d4b4"/><rect y="2763" width="2400" height="2" fill="#e2d4b4"/><rect y="2771" width="2400" height="2" fill="#e2d4b4"/><rect y="2779" width="2400" height="2" fill="#e2d4b4"/><rect y="2787" width="2400" height="2" fill="#e2d4b4"/><rect y="2795" width="2400" height="2" fill="#e2d4b4"/><rect y="2803" width="2400" height="2" fill="#e2d4b4"/><rect y="2811" width="2400" height="2" fill="#e2d4b4"/><rect y="2819" width="2400" height="2" fill="#e2d4b4"/><rect y="2827" width="2400" height="2" fill="#e2d4b4"/><rect y="2835" width="2400" height="2" fill="#e2d4b4"/><rect y="2843" width="2400" height="2" fill="#e2d4b4"/><rect y="2851" width="2400" height="2" fill="#e2d4b4"/><rect y="2859" width="2400" height="2" fill="#e2d4b4"/><rect y="2867" width="2400" height="2" fill="#e2d4b4"/><rect y="2875" width="2400" height="2" fill="#e2d4b4"/><rect y="2883" width="2400" height="2" fill="#e2d4b4"/><rect y="2891" width="2400" height="2" fill="#e2d4b4"/><rect y="2899" width="2400" height="2" fill="#e2d4b4"/><rect y="2907" width="2400" height="2" fill="#e2d4b4"/><rect y="2915" width="2400" height="2" fill="#e2d4b4"/><rect y="2923" width="2400" height="2" fill="#e2d4b4"/><rect y="2931" width="2400" height="2" fill="#e2d4b4"/><rect y="2939" width="2400" height="2" fill="#e2d4b4"/><rect y="2947" width="2400" height="2" fill="#e2d4b4"/><rect y="2955" width="2400" height="2" fill="#e2d4b4"/><rect y="2963" width="2400" height="2" fill="#e2d4b4"/><rect y="2971" width="2400" height="2" fill="#e2d4b4"/><rect y="2979" width="2400" height="2" fill="#e2d4b4"/><rect y="2987" width="2400" height="2" fill="#e2d4b4"/><rect y="2995" width="2400" height="2" fill="#e2d4b4"/></g><rect x="88" y="88" width="2224" height="2824" fill="none" stroke="#3a2c1a" stroke-width="4" opacity="0.2"/><rect x="94" y="94" width="2212" height="2812" fill="none" stroke="#fff6e0" stroke-width="2" opacity="0.25"/><circle cx="1730.7" cy="1035.4" r="13.1" fill="#8a5a2e" opacity="0.094"/><circle cx="1252.4" cy="2773.2" r="7.3" fill="#8a5a2e" opacity="0.109"/><circle cx="376.1" cy="2411.3" r="11.8" fill="#8a5a2e" opacity="0.124"/><circle cx="846.6" cy="657.9" r="16" fill="#8a5a2e" opacity="0.125"/><circle cx="1264.3" cy="1194.4" r="15.8" fill="#8a5a2e" opacity="0.094"/><circle cx="525.9" cy="1805.1" r="12.1" fill="#8a5a2e" opacity="0.068"/><circle cx="1961.8" cy="396.2" r="14.6" fill="#8a5a2e" opacity="0.111"/><circle cx="1659.9" cy="837.3" r="5.5" fill="#8a5a2e" opacity="0.077"/><circle cx="1898.1" cy="138.3" r="7.2" fill="#8a5a2e" opacity="0.098"/><circle cx="1123.8" cy="470" r="11.3" fill="#8a5a2e" opacity="0.107"/><circle cx="1201.3" cy="188.3" r="15.9" fill="#8a5a2e" opacity="0.118"/><circle cx="1997.7" cy="1914.8" r="3.8" fill="#8a5a2e" opacity="0.043"/><circle cx="363.9" cy="919.8" r="16" fill="#8a5a2e" opacity="0.108"/><circle cx="1512.3" cy="2589.9" r="12.3" fill="#8a5a2e" opacity="0.113"/><circle cx="575.8" cy="357.9" r="8" fill="#8a5a2e" opacity="0.100"/><circle cx="89.6" cy="2690.7" r="4.8" fill="#8a5a2e" opacity="0.125"/><circle cx="1915.9" cy="235.3" r="3.6" fill="#8a5a2e" opacity="0.083"/><circle cx="318.8" cy="1777.7" r="6.6" fill="#8a5a2e" opacity="0.053"/><circle cx="1441.2" cy="2752.7" r="5.2" fill="#8a5a2e" opacity="0.112"/><circle cx="2087.4" cy="1675.7" r="8.4" fill="#8a5a2e" opacity="0.115"/><circle cx="799" cy="1694.7" r="10.2" fill="#8a5a2e" opacity="0.064"/><circle cx="1367.6" cy="897.1" r="11.3" fill="#8a5a2e" opacity="0.072"/><circle cx="1581.1" cy="384.4" r="15.1" fill="#8a5a2e" opacity="0.061"/><circle cx="2246.2" cy="1584.3" r="12.1" fill="#8a5a2e" opacity="0.057"/><circle cx="2046.7" cy="1002.4" r="3.3" fill="#8a5a2e" opacity="0.054"/><circle cx="337.7" cy="923.3" r="14.7" fill="#8a5a2e" opacity="0.104"/><circle cx="442" cy="1426.6" r="4.7" fill="#8a5a2e" opacity="0.071"/><circle cx="765.1" cy="1820.3" r="8.8" fill="#8a5a2e" opacity="0.041"/><circle cx="906.6" cy="2482.2" r="11.6" fill="#8a5a2e" opacity="0.047"/><circle cx="1865.5" cy="1355.2" r="12.8" fill="#8a5a2e" opacity="0.065"/><rect width="2400" height="3000" fill="url(#a55-vig)"/></svg></svg>