<svg xmlns="http://www.w3.org/2000/svg" width="2400" height="1800" viewBox="0 0 2400 1800"><rect width="2400" height="1800" fill="#dfe4dc"/><rect y="1400" width="2400" height="400" fill="#c2a67e"/><line x1="60" y1="1400" x2="10" y2="1800" stroke="#00000015" stroke-width="5"/><line x1="260" y1="1400" x2="210" y2="1800" stroke="#00000015" stroke-width="5"/><line x1="460" y1="1400" x2="410" y2="1800" stroke="#00000015" stroke-width="5"/><line x1="660" y1="1400" x2="610" y2="1800" stroke="#00000015" stroke-width="5"/><line x1="860" y1="1400" x2="810" y2="1800" stroke="#00000015" stroke-width="5"/><line x1="1060" y1="1400" x2="1010" y2="1800" stroke="#00000015" stroke-width="5"/><line x1="1260" y1="1400" x2="1210" y2="1800" stroke="#00000015" stroke-width="5"/><line x1="1460" y1="1400" x2="1410" y2="1800" stroke="#00000015" stroke-width="5"/><line x1="1660" y1="1400" x2="1610" y2="1800" stroke="#00000015" stroke-width="5"/><line x1="1860" y1="1400" x2="1810" y2="1800" stroke="#00000015" stroke-width="5"/><line x1="2060" y1="1400" x2="2010" y2="1800" stroke="#00000015" stroke-width="5"/><line x1="2260" y1="1400" x2="2210" y2="1800" stroke="#00000015" stroke-width="5"/><rect x="180" y="260" width="900" height="620" fill="#8a6a48"/><rect x="215" y="295" width="830" height="550" fill="#41524a"/><line x1="280" y1="420" x2="760" y2="420" stroke="#ffffff66" stroke-width="9" stroke-linecap="round"/><line x1="280" y1="520" x2="620" y2="520" stroke="#ffffff44" stroke-width="9" stroke-linecap="round"/><circle cx="880" cy="560" r="90" fill="none" stroke="#ffffff55" stroke-width="8"/><rect x="215" y="845" width="830" height="22" fill="#6f5436"/><rect x="330" y="1240" width="640" height="60" rx="10" fill="#9c7449"/><rect x="370" y="1300" width="60" height="240" fill="#8a6540"/><rect x="870" y="1300" width="60" height="240" fill="#8a6540"/><rect x="430" y="1160" width="150" height="80" rx="8" fill="#bda15a"/><rect x="450" y="1120" width="150" height="40" rx="8" fill="#57674b"/><circle cx="800" cy="1130" r="86" fill="#7fa3b8"/><path d="M760,1060 Q820,1100 780,1190 M740,1090 Q800,1120 850,1100" stroke="#5d8069" stroke-width="16" fill="none" stroke-linecap="round"/><circle cx="800" cy="1130" r="86" fill="none" stroke="#6b5233" stroke-width="7"/><line x1="800" y1="1216" x2="800" y2="1250" stroke="#6b5233" stroke-width="10"/><rect x="750" y="1244" width="100" height="14" rx="7" fill="#6b5233"/><rect x="1980" y="700" width="300" height="800" fill="#9c7449"/><rect x="2000" y="930" width="260" height="16" fill="#7c5a37"/><rect x="2020" y="790" width="36" height="140" fill="#b3502f"/><rect x="2066" y="802" width="36" height="128" fill="#39685c"/><rect x="2112" y="790" width="36" height="140" fill="#c9a227"/><rect x="2158" y="802" width="36" height="128" fill="#2c4661"/><rect x="2204" y="790" width="36" height="140" fill="#8a4423"/><rect x="2000" y="1180" width="260" height="16" fill="#7c5a37"/><rect x="2020" y="1040" width="36" height="140" fill="#39685c"/><rect x="2066" y="1052" width="36" height="128" fill="#c9a227"/><rect x="2112" y="1040" width="36" height="140" fill="#2c4661"/><rect x="2158" y="1052" width="36" height="128" fill="#8a4423"/><rect x="2204" y="1040" width="36" height="140" fill="#b3502f"/><rect x="2000" y="1430" width="260" height="16" fill="#7c5a37"/><rect x="2020" y="1290" width="36" height="140" fill="#c9a227"/><rect x="2066" y="1302" width="36" height="128" fill="#2c4661"/><rect x="2112" y="1290" width="36" height="140" fill="#8a4423"/><rect x="2158" y="1302" width="36" height="128" fill="#b3502f"/><rect x="2204" y="1290" width="36" height="140" fill="#39685c"/><defs><filter id="a14c-sh" x="-30%" y="-30%" width="160%" height="160%"><feGaussianBlur stdDeviation="16"/></filter></defs><rect x="1340.5" y="298.5" width="517" height="635" fill="#000" opacity="0.28" filter="url(#a14c-sh)"/><rect x="1326.5" y="276.5" width="517" height="635" fill="#3d342a"/><rect x="1341.8" y="291.8" width="486.4" height="604.5" fill="none" stroke="#00000055" stroke-width="3"/><rect x="1350" y="300" width="470" height="588" fill="#f6f2ea"/><svg x="1385.3" y="335.3" width="399.5" height="517.5" viewBox="0 0 2400 3000" preserveAspectRatio="xMidYMid slice"><rect width="2400" height="3000" fill="#3d4a33"/><radialGradient id="a14-vig" cx="50%" cy="42%" r="80%"><stop offset="55%" stop-color="#000" stop-opacity="0"/><stop offset="100%" stop-color="#000" stop-opacity="0.15"/></radialGradient><rect width="2400" height="3000" fill="url(#a14-vig)"/><circle cx="1928.2" cy="781" r="4.1" fill="#e6ddc4" opacity="0.042"/><circle cx="2328.9" cy="2580.4" r="2.2" fill="#e6ddc4" opacity="0.058"/><circle cx="1502.8" cy="911.6" r="2.5" fill="#e6ddc4" opacity="0.060"/><circle cx="396.4" cy="2183.3" r="2.5" fill="#e6ddc4" opacity="0.038"/><circle cx="176.1" cy="2875.1" r="3.8" fill="#e6ddc4" opacity="0.070"/><circle cx="362.5" cy="2053.7" r="3.3" fill="#e6ddc4" opacity="0.078"/><circle cx="643.4" cy="1080" r="3.8" fill="#e6ddc4" opacity="0.062"/><circle cx="992.9" cy="485" r="2.4" fill="#e6ddc4" opacity="0.032"/><circle cx="737" cy="1703.6" r="1.5" fill="#e6ddc4" opacity="0.035"/><circle cx="671.7" cy="1798.9" r="1.6" fill="#e6ddc4" opacity="0.056"/><circle cx="1392.3" cy="1475.8" r="3.2" fill="#e6ddc4" opacity="0.052"/><circle cx="1904" cy="496.2" r="2.8" fill="#e6ddc4" opacity="0.038"/><circle cx="170.7" cy="152.2" r="2.5" fill="#e6ddc4" opacity="0.077"/><circle cx="1669.5" cy="2955.1" r="2" fill="#e6ddc4" opacity="0.045"/><circle cx="2272" cy="1166" r="1.8" fill="#e6ddc4" opacity="0.063"/><circle cx="1032.4" cy="927.7" r="2" fill="#e6ddc4" opacity="0.070"/><circle cx="239.5" cy="1846" r="2.6" fill="#e6ddc4" opacity="0.073"/><circle cx="1803.5" cy="1019.6" r="4.5" fill="#e6ddc4" opacity="0.036"/><circle cx="1340.9" cy="794" r="2" fill="#e6ddc4" opacity="0.057"/><circle cx="1462.9" cy="121.1" r="2.4" fill="#e6ddc4" opacity="0.063"/><circle cx="488.7" cy="1779" r="2.8" fill="#e6ddc4" opacity="0.039"/><circle cx="2260.1" cy="853.5" r="1.7" fill="#e6ddc4" opacity="0.073"/><circle cx="1708" cy="2453.5" r="1.6" fill="#e6ddc4" opacity="0.055"/><circle cx="2106.2" cy="2367.4" r="3.8" fill="#e6ddc4" opacity="0.041"/><circle cx="747.3" cy="300.3" r="2.2" fill="#e6ddc4" opacity="0.032"/><circle cx="1664.4" cy="2629.3" r="3.7" fill="#e6ddc4" opacity="0.070"/><circle cx="70.4" cy="1965" r="2.8" fill="#e6ddc4" opacity="0.071"/><circle cx="1336.2" cy="1611.3" r="1.8" fill="#e6ddc4" opacity="0.056"/><circle cx="2092.2" cy="2521.1" r="3" fill="#e6ddc4" opacity="0.076"/><circle cx="1811.8" cy="856.5" r="4.3" fill="#e6ddc4" opacity="0.031"/><circle cx="1289.5" cy="704.2" r="3.9" fill="#e6ddc4" opacity="0.042"/><circle cx="157.4" cy="1382" r="2.2" fill="#e6ddc4" opacity="0.067"/><circle cx="1411" cy="1418.7" r="1.8" fill="#e6ddc4" opacity="0.050"/><circle cx="640.9" cy="353.8" r="4" fill="#e6ddc4" opacity="0.041"/><circle cx="1676.3" cy="965.1" r="3.8" fill="#e6ddc4" opacity="0.031"/><circle cx="1929.1" cy="461.6" r="3.8" fill="#e6ddc4" opacity="0.075"/><circle cx="2357" cy="1881.4" r="1.7" fill="#e6ddc4" opacity="0.066"/><circle cx="1784.4" cy="1558.6" r="1.8" fill="#e6ddc4" opacity="0.053"/><circle cx="1647.8" cy="1355.9" r="2.8" fill="#e6ddc4" opacity="0.055"/><circle cx="641.6" cy="860.6" r="3.8" fill="#e6ddc4" opacity="0.069"/><circle cx="1367.1" cy="2827.1" r="2.1" fill="#e6ddc4" opacity="0.063"/><circle cx="1640.5" cy="816.4" r="3.5" fill="#e6ddc4" opacity="0.032"/><circle cx="2319.6" cy="2893.6" r="1.9" fill="#e6ddc4" opacity="0.048"/><circle cx="561.1" cy="2113.9" r="1.7" fill="#e6ddc4" opacity="0.066"/><circle cx="709.6" cy="2488.5" r="2.5" fill="#e6ddc4" opacity="0.072"/><circle cx="2308.3" cy="785.5" r="2.4" fill="#e6ddc4" opacity="0.039"/><circle cx="400.3" cy="2097" r="2" fill="#e6ddc4" opacity="0.070"/><circle cx="2286.6" cy="1319.4" r="3.6" fill="#e6ddc4" opacity="0.058"/><circle cx="1541.1" cy="2687.8" r="1.9" fill="#e6ddc4" opacity="0.076"/><circle cx="1515" cy="1443.1" r="1.6" fill="#e6ddc4" opacity="0.034"/><circle cx="567.9" cy="1682.1" r="3.1" fill="#e6ddc4" opacity="0.075"/><circle cx="155.2" cy="1216.8" r="3" fill="#e6ddc4" opacity="0.056"/><circle cx="1857.3" cy="1935.3" r="3.5" fill="#e6ddc4" opacity="0.045"/><circle cx="2248.3" cy="1858.7" r="4.1" fill="#e6ddc4" opacity="0.070"/><circle cx="135" cy="2382.9" r="3.9" fill="#e6ddc4" opacity="0.066"/><circle cx="497.1" cy="2881.9" r="3.5" fill="#e6ddc4" opacity="0.040"/><circle cx="2209.4" cy="2044" r="3.1" fill="#e6ddc4" opacity="0.077"/><circle cx="2274.9" cy="686.5" r="2.7" fill="#e6ddc4" opacity="0.044"/><circle cx="1400.8" cy="372.5" r="1.7" fill="#e6ddc4" opacity="0.039"/><circle cx="93.2" cy="2542.8" r="2.6" fill="#e6ddc4" opacity="0.073"/><circle cx="1542.7" cy="2934.9" r="3.4" fill="#e6ddc4" opacity="0.063"/><circle cx="271.4" cy="1337.4" r="3.2" fill="#e6ddc4" opacity="0.077"/><circle cx="827.8" cy="2804.3" r="4" fill="#e6ddc4" opacity="0.072"/><circle cx="1404.7" cy="2853" r="3.1" fill="#e6ddc4" opacity="0.076"/><circle cx="554.8" cy="709.3" r="3.5" fill="#e6ddc4" opacity="0.066"/><circle cx="2082.8" cy="2260.6" r="1.8" fill="#e6ddc4" opacity="0.055"/><circle cx="682.9" cy="2843.2" r="2.1" fill="#e6ddc4" opacity="0.079"/><circle cx="1094.9" cy="122" r="3.8" fill="#e6ddc4" opacity="0.035"/><circle cx="517.6" cy="710.8" r="3.6" fill="#e6ddc4" opacity="0.047"/><circle cx="1795.9" cy="2512" r="4.1" fill="#e6ddc4" opacity="0.045"/><circle cx="1937.8" cy="482.1" r="1.9" fill="#e6ddc4" opacity="0.073"/><circle cx="668.4" cy="1473.2" r="4.4" fill="#e6ddc4" opacity="0.031"/><circle cx="1124.9" cy="619.6" r="1.8" fill="#e6ddc4" opacity="0.067"/><circle cx="40.8" cy="1706.5" r="4.4" fill="#e6ddc4" opacity="0.049"/><circle cx="2317.1" cy="2127.1" r="2.6" fill="#e6ddc4" opacity="0.079"/><circle cx="1419.5" cy="1248.3" r="3" fill="#e6ddc4" opacity="0.059"/><circle cx="1550.1" cy="2515.1" r="2.3" fill="#e6ddc4" opacity="0.059"/><circle cx="1811.6" cy="2498.1" r="2.6" fill="#e6ddc4" opacity="0.064"/><circle cx="1034.4" cy="2425.2" r="3.9" fill="#e6ddc4" opacity="0.047"/><circle cx="651.7" cy="468" r="4.2" fill="#e6ddc4" opacity="0.048"/><circle cx="1200" cy="928.6" r="429.9" fill="#bda15a" opacity="0.92"/><circle cx="1200" cy="928.6" r="499.9" fill="none" stroke="#bda15a" stroke-width="7" stroke-dasharray="4 30" stroke-linecap="round"/><rect x="330" y="2450" width="1740" height="52" fill="#e6ddc4"/><rect x="240" y="2502" width="1920" height="52" fill="#e6ddc4" opacity="0.85"/><rect x="150" y="2554" width="2100" height="52" fill="#e6ddc4" opacity="0.7"/><path d="M445,2450 L472,866.8 L688,866.8 L715,2450 Z" fill="#e6ddc4"/><line x1="508" y1="896.8" x2="490" y2="2440" stroke="#3d4a33" stroke-width="9" opacity="0.55"/><line x1="544" y1="896.8" x2="535" y2="2440" stroke="#3d4a33" stroke-width="9" opacity="0.55"/><line x1="580" y1="896.8" x2="580" y2="2440" stroke="#3d4a33" stroke-width="9" opacity="0.55"/><line x1="616" y1="896.8" x2="625" y2="2440" stroke="#3d4a33" stroke-width="9" opacity="0.55"/><line x1="652" y1="896.8" x2="670" y2="2440" stroke="#3d4a33" stroke-width="9" opacity="0.55"/><path d="M438,866.8 L472,802.8 L688,802.8 L722,866.8 Z" fill="#e6ddc4"/><rect x="414" y="744.8" width="332" height="58" fill="#e6ddc4"/><rect x="419" y="2406" width="322" height="44" fill="#e6ddc4"/><path d="M1065,2450 L1092,815 L1308,815 L1335,2450 Z" fill="#e6ddc4"/><line x1="1128" y1="845" x2="1110" y2="2440" stroke="#3d4a33" stroke-width="9" opacity="0.55"/><line x1="1164" y1="845" x2="1155" y2="2440" stroke="#3d4a33" stroke-width="9" opacity="0.55"/><line x1="1200" y1="845" x2="1200" y2="2440" stroke="#3d4a33" stroke-width="9" opacity="0.55"/><line x1="1236" y1="845" x2="1245" y2="2440" stroke="#3d4a33" stroke-width="9" opacity="0.55"/><line x1="1272" y1="845" x2="1290" y2="2440" stroke="#3d4a33" stroke-width="9" opacity="0.55"/><path d="M1058,815 L1092,751 L1308,751 L1342,815 Z" fill="#e6ddc4"/><rect x="1034" y="693" width="332" height="58" fill="#e6ddc4"/><rect x="1039" y="2406" width="322" height="44" fill="#e6ddc4"/><path d="M1685,2450 L1712,1578.7 L1928,1578.7 L1955,2450 Z" fill="#e6ddc4"/><line x1="1748" y1="1608.7" x2="1730" y2="2440" stroke="#3d4a33" stroke-width="9" opacity="0.55"/><line x1="1784" y1="1608.7" x2="1775" y2="2440" stroke="#3d4a33" stroke-width="9" opacity="0.55"/><line x1="1820" y1="1608.7" x2="1820" y2="2440" stroke="#3d4a33" stroke-width="9" opacity="0.55"/><line x1="1856" y1="1608.7" x2="1865" y2="2440" stroke="#3d4a33" stroke-width="9" opacity="0.55"/><line x1="1892" y1="1608.7" x2="1910" y2="2440" stroke="#3d4a33" stroke-width="9" opacity="0.55"/><polyline points="1712,1578.7 1784,1532.7 1847,1586.7 1928,1548.7" fill="#3d4a33" stroke="none"/><path d="M260.9,289.1 L 333.1,289.1 L 333.1,216.9 L 276.4,216.9 L 276.4,261.6 L 305.6,261.6 L 305.6,239.2 M346.9,289.1 L 419.1,289.1 L 419.1,216.9 L 362.4,216.9 L 362.4,261.6 L 391.6,261.6 L 391.6,239.2 M432.9,289.1 L 505.1,289.1 L 505.1,216.9 L 448.4,216.9 L 448.4,261.6 L 477.6,261.6 L 477.6,239.2 M518.9,289.1 L 591.1,289.1 L 591.1,216.9 L 534.4,216.9 L 534.4,261.6 L 563.6,261.6 L 563.6,239.2 M604.9,289.1 L 677.1,289.1 L 677.1,216.9 L 620.4,216.9 L 620.4,261.6 L 649.6,261.6 L 649.6,239.2 M690.9,289.1 L 763.1,289.1 L 763.1,216.9 L 706.4,216.9 L 706.4,261.6 L 735.6,261.6 L 735.6,239.2 M776.9,289.1 L 849.1,289.1 L 849.1,216.9 L 792.4,216.9 L 792.4,261.6 L 821.6,261.6 L 821.6,239.2 M862.9,289.1 L 935.1,289.1 L 935.1,216.9 L 878.4,216.9 L 878.4,261.6 L 907.6,261.6 L 907.6,239.2 M948.9,289.1 L 1021.1,289.1 L 1021.1,216.9 L 964.4,216.9 L 964.4,261.6 L 993.6,261.6 L 993.6,239.2 M1034.9,289.1 L 1107.1,289.1 L 1107.1,216.9 L 1050.4,216.9 L 1050.4,261.6 L 1079.6,261.6 L 1079.6,239.2 M1120.9,289.1 L 1193.1,289.1 L 1193.1,216.9 L 1136.4,216.9 L 1136.4,261.6 L 1165.6,261.6 L 1165.6,239.2 M1206.9,289.1 L 1279.1,289.1 L 1279.1,216.9 L 1222.4,216.9 L 1222.4,261.6 L 1251.6,261.6 L 1251.6,239.2 M1292.9,289.1 L 1365.1,289.1 L 1365.1,216.9 L 1308.4,216.9 L 1308.4,261.6 L 1337.6,261.6 L 1337.6,239.2 M1378.9,289.1 L 1451.1,289.1 L 1451.1,216.9 L 1394.4,216.9 L 1394.4,261.6 L 1423.6,261.6 L 1423.6,239.2 M1464.9,289.1 L 1537.1,289.1 L 1537.1,216.9 L 1480.4,216.9 L 1480.4,261.6 L 1509.6,261.6 L 1509.6,239.2 M1550.9,289.1 L 1623.1,289.1 L 1623.1,216.9 L 1566.4,216.9 L 1566.4,261.6 L 1595.6,261.6 L 1595.6,239.2 M1636.9,289.1 L 1709.1,289.1 L 1709.1,216.9 L 1652.4,216.9 L 1652.4,261.6 L 1681.6,261.6 L 1681.6,239.2 M1722.9,289.1 L 1795.1,289.1 L 1795.1,216.9 L 1738.4,216.9 L 1738.4,261.6 L 1767.6,261.6 L 1767.6,239.2 M1808.9,289.1 L 1881.1,289.1 L 1881.1,216.9 L 1824.4,216.9 L 1824.4,261.6 L 1853.6,261.6 L 1853.6,239.2 M1894.9,289.1 L 1967.1,289.1 L 1967.1,216.9 L 1910.4,216.9 L 1910.4,261.6 L 1939.6,261.6 L 1939.6,239.2 M1980.9,289.1 L 2053.1,289.1 L 2053.1,216.9 L 1996.4,216.9 L 1996.4,261.6 L 2025.6,261.6 L 2025.6,239.2 M2066.9,289.1 L 2139.1,289.1 L 2139.1,216.9 L 2082.4,216.9 L 2082.4,261.6 L 2111.6,261.6 L 2111.6,239.2 " fill="none" stroke="#e6ddc4" stroke-width="11.2"/><rect x="100" y="100" width="2200" height="2800" fill="none" stroke="#e6ddc4" stroke-width="9"/><rect x="142" y="142" width="2116" height="2716" fill="none" stroke="#e6ddc4" stroke-width="3" opacity="0.65"/></svg></svg>