<svg xmlns="http://www.w3.org/2000/svg" width="2400" height="1800" viewBox="0 0 2400 1800"><rect width="2400" height="1800" fill="#e5ddcf"/><rect y="1430" width="2400" height="370" fill="#b89a76"/><line x1="100" y1="1430" x2="45" y2="1800" stroke="#00000016" stroke-width="5"/><line x1="330" y1="1430" x2="275" y2="1800" stroke="#00000016" stroke-width="5"/><line x1="560" y1="1430" x2="505" y2="1800" stroke="#00000016" stroke-width="5"/><line x1="790" y1="1430" x2="735" y2="1800" stroke="#00000016" stroke-width="5"/><line x1="1020" y1="1430" x2="965" y2="1800" stroke="#00000016" stroke-width="5"/><line x1="1250" y1="1430" x2="1195" y2="1800" stroke="#00000016" stroke-width="5"/><line x1="1480" y1="1430" x2="1425" y2="1800" stroke="#00000016" stroke-width="5"/><line x1="1710" y1="1430" x2="1655" y2="1800" stroke="#00000016" stroke-width="5"/><line x1="1940" y1="1430" x2="1885" y2="1800" stroke="#00000016" stroke-width="5"/><line x1="2170" y1="1430" x2="2115" y2="1800" stroke="#00000016" stroke-width="5"/><rect x="620" y="1180" width="1180" height="52" rx="10" fill="#8a6540"/><rect x="680" y="1232" width="70" height="330" fill="#775433"/><rect x="1670" y="1232" width="70" height="330" fill="#775433"/><rect x="760" y="1120" width="220" height="34" rx="6" fill="#3a6483"/><rect x="780" y="1086" width="200" height="34" rx="6" fill="#39685c"/><rect x="800" y="1052" width="170" height="34" rx="6" fill="#c9a227"/><circle cx="1240" cy="1130" r="46" fill="#3f3428"/><rect x="1226" y="1048" width="16" height="60" fill="#3f3428" transform="rotate(18 1240 1090)"/><rect x="1420" y="1100" width="260" height="26" rx="13" fill="#e8dcc0"/><rect x="1450" y="1072" width="260" height="26" rx="13" fill="#dfd0ad"/><rect x="1080" y="1300" width="360" height="34" rx="14" fill="#6f5436"/><rect x="1100" y="1334" width="40" height="220" fill="#6f5436"/><rect x="1380" y="1334" width="40" height="220" fill="#6f5436"/><rect x="1080" y="1030" width="42" height="290" rx="14" fill="#6f5436"/><rect x="260" y="480" width="560" height="24" fill="#8a6540"/><rect x="300" y="360" width="90" height="120" fill="#b3502f"/><rect x="400" y="380" width="80" height="100" fill="#2c4661"/><rect x="490" y="350" width="86" height="130" fill="#96a396"/><path d="M700,480 Q 616,347 574,382" fill="none" stroke="#5d7052" stroke-width="11.2" stroke-linecap="round"/><path d="M700,480 Q 644,347 616,354" fill="none" stroke="#5d7052" stroke-width="11.2" stroke-linecap="round"/><path d="M700,480 Q 672,347 658,326" fill="none" stroke="#5d7052" stroke-width="11.2" stroke-linecap="round"/><path d="M700,480 Q 700,347 700,298" fill="none" stroke="#5d7052" stroke-width="11.2" stroke-linecap="round"/><path d="M700,480 Q 728,347 742,326" fill="none" stroke="#5d7052" stroke-width="11.2" stroke-linecap="round"/><path d="M700,480 Q 756,347 784,354" fill="none" stroke="#5d7052" stroke-width="11.2" stroke-linecap="round"/><path d="M700,480 Q 784,347 826,382" fill="none" stroke="#5d7052" stroke-width="11.2" stroke-linecap="round"/><path d="M651,480 L749,480 L736.4,557 L663.6,557 Z" fill="#a9714d"/><path d="M320,1520 Q 164,1273 86,1338" fill="none" stroke="#5d7052" stroke-width="20.8" stroke-linecap="round"/><path d="M320,1520 Q 216,1273 164,1286" fill="none" stroke="#5d7052" stroke-width="20.8" stroke-linecap="round"/><path d="M320,1520 Q 268,1273 242,1234" fill="none" stroke="#5d7052" stroke-width="20.8" stroke-linecap="round"/><path d="M320,1520 Q 320,1273 320,1182" fill="none" stroke="#5d7052" stroke-width="20.8" stroke-linecap="round"/><path d="M320,1520 Q 372,1273 398,1234" fill="none" stroke="#5d7052" stroke-width="20.8" stroke-linecap="round"/><path d="M320,1520 Q 424,1273 476,1286" fill="none" stroke="#5d7052" stroke-width="20.8" stroke-linecap="round"/><path d="M320,1520 Q 476,1273 554,1338" fill="none" stroke="#5d7052" stroke-width="20.8" stroke-linecap="round"/><path d="M229,1520 L411,1520 L387.6,1663 L252.4,1663 Z" fill="#a9714d"/><defs><filter id="a34s-sh" x="-30%" y="-30%" width="160%" height="160%"><feGaussianBlur stdDeviation="16"/></filter></defs><rect x="1206" y="294" width="616" height="756" fill="#000" opacity="0.28" filter="url(#a34s-sh)"/><rect x="1192" y="272" width="616" height="756" fill="#443a2d"/><rect x="1210.2" y="290.2" width="579.6" height="719.6" fill="none" stroke="#00000055" stroke-width="3"/><rect x="1220" y="300" width="560" height="700" fill="#f6f2ea"/><svg x="1262" y="342" width="476" height="616" viewBox="0 0 2400 3000" preserveAspectRatio="xMidYMid slice"><filter id="a34-warp" x="-4%" y="-4%" width="108%" height="108%"><feTurbulence type="fractalNoise" baseFrequency="0.0105" numOctaves="2" seed="7844" result="w"/><feDisplacementMap in="SourceGraphic" in2="w" scale="11" xChannelSelector="R" yChannelSelector="G"/></filter><filter id="a34-grain" x="0%" y="0%" width="100%" height="100%"><feTurbulence type="fractalNoise" baseFrequency="0.6" numOctaves="2" seed="7851"/><feColorMatrix type="matrix" values="0.33 0.33 0.33 0 0.62  0.33 0.33 0.33 0 0.62  0.33 0.33 0.33 0 0.62  0 0 0 0 1"/></filter><filter id="a34-mottle" x="0%" y="0%" width="100%" height="100%"><feTurbulence type="fractalNoise" baseFrequency="0.0045" numOctaves="3" seed="7857"/><feColorMatrix type="matrix" values="0.2 0.2 0.2 0 0.78  0.2 0.2 0.2 0 0.78  0.2 0.2 0.2 0 0.78  0 0 0 0 1"/></filter><filter id="a34-fade" x="0%" y="0%" width="100%" height="100%"><feTurbulence type="fractalNoise" baseFrequency="0.006" numOctaves="2" seed="7873"/><feColorMatrix type="matrix" values="0.3 0.3 0.3 0 -0.08  0.3 0.3 0.3 0 -0.08  0.3 0.3 0.3 0 -0.1  0 0 0 0 1"/></filter><filter id="a34-blur9"><feGaussianBlur stdDeviation="9"/></filter><radialGradient id="a34-vig" cx="50%" cy="44%" r="78%"><stop offset="52%" stop-color="#241a10" stop-opacity="0"/><stop offset="100%" stop-color="#241a10" stop-opacity="0.17"/></radialGradient><radialGradient id="a34-warm" cx="34%" cy="30%" r="85%"><stop offset="0%" stop-color="#e8c890" stop-opacity="0.14"/><stop offset="70%" stop-color="#e8c890" stop-opacity="0"/></radialGradient><rect width="2400" height="3000" fill="#d2bd92"/><rect width="2400" height="3000" fill="url(#a34-warm)"/><rect x="0" width="21" height="3000" fill="#6b4e26" opacity="0.051"/><rect x="29.2" width="30.1" height="3000" fill="#6b4e26" opacity="0.082"/><rect x="71.1" width="20.3" height="3000" fill="#6b4e26" opacity="0.031"/><rect x="99.2" width="39.7" height="3000" fill="#6b4e26" opacity="0.067"/><rect x="154.3" width="30.4" height="3000" fill="#6b4e26" opacity="0.050"/><rect x="196.6" width="27" height="3000" fill="#6b4e26" opacity="0.092"/><rect x="234" width="38.4" height="3000" fill="#6b4e26" opacity="0.082"/><rect x="287.4" width="20.5" height="3000" fill="#6b4e26" opacity="0.083"/><rect x="315.8" width="30.9" height="3000" fill="#6b4e26" opacity="0.062"/><rect x="358.7" width="27.4" height="3000" fill="#6b4e26" opacity="0.032"/><rect x="396.8" width="19.6" height="3000" fill="#6b4e26" opacity="0.055"/><rect x="424" width="27.1" height="3000" fill="#6b4e26" opacity="0.099"/><rect x="461.6" width="25.6" height="3000" fill="#6b4e26" opacity="0.076"/><rect x="497.2" width="36.7" height="3000" fill="#6b4e26" opacity="0.066"/><rect x="548.3" width="35.6" height="3000" fill="#6b4e26" opacity="0.038"/><rect x="597.7" width="28.4" height="3000" fill="#6b4e26" opacity="0.071"/><rect x="637.1" width="36" height="3000" fill="#6b4e26" opacity="0.034"/><rect x="687.1" width="42.3" height="3000" fill="#6b4e26" opacity="0.061"/><rect x="745.8" width="38.5" height="3000" fill="#6b4e26" opacity="0.080"/><rect x="799.4" width="26.1" height="3000" fill="#6b4e26" opacity="0.096"/><rect x="835.6" width="42.5" height="3000" fill="#6b4e26" opacity="0.079"/><rect x="894.7" width="19.3" height="3000" fill="#6b4e26" opacity="0.073"/><rect x="921.4" width="35.1" height="3000" fill="#6b4e26" opacity="0.052"/><rect x="970.2" width="30.2" height="3000" fill="#6b4e26" opacity="0.053"/><rect x="1012.1" width="20.2" height="3000" fill="#6b4e26" opacity="0.031"/><rect x="1040.2" width="26.1" height="3000" fill="#6b4e26" opacity="0.054"/><rect x="1076.4" width="41.4" height="3000" fill="#6b4e26" opacity="0.067"/><rect x="1133.9" width="23.1" height="3000" fill="#6b4e26" opacity="0.080"/><rect x="1166" width="41" height="3000" fill="#6b4e26" opacity="0.031"/><rect x="1222.9" width="18.8" height="3000" fill="#6b4e26" opacity="0.084"/><rect x="1249.1" width="27.2" height="3000" fill="#6b4e26" opacity="0.048"/><rect x="1286.9" width="37.6" height="3000" fill="#6b4e26" opacity="0.065"/><rect x="1339.1" width="21.3" height="3000" fill="#6b4e26" opacity="0.046"/><rect x="1368.6" width="43" height="3000" fill="#6b4e26" opacity="0.064"/><rect x="1428.3" width="28" height="3000" fill="#6b4e26" opacity="0.032"/><rect x="1467.1" width="33" height="3000" fill="#6b4e26" opacity="0.048"/><rect x="1512.9" width="21.5" height="3000" fill="#6b4e26" opacity="0.080"/><rect x="1542.8" width="27.7" height="3000" fill="#6b4e26" opacity="0.082"/><rect x="1581.2" width="27.1" height="3000" fill="#6b4e26" opacity="0.072"/><rect x="1618.8" width="30.5" height="3000" fill="#6b4e26" opacity="0.081"/><rect x="1661.2" width="36.7" height="3000" fill="#6b4e26" opacity="0.074"/><rect x="1712.1" width="28.6" height="3000" fill="#6b4e26" opacity="0.082"/><rect x="1751.8" width="21.2" height="3000" fill="#6b4e26" opacity="0.092"/><rect x="1781.3" width="37.9" height="3000" fill="#6b4e26" opacity="0.047"/><rect x="1833.9" width="21.9" height="3000" fill="#6b4e26" opacity="0.082"/><rect x="1864.3" width="42.1" height="3000" fill="#6b4e26" opacity="0.056"/><rect x="1922.7" width="35.2" height="3000" fill="#6b4e26" opacity="0.051"/><rect x="1971.6" width="31.3" height="3000" fill="#6b4e26" opacity="0.085"/><rect x="2015.1" width="37" height="3000" fill="#6b4e26" opacity="0.033"/><rect x="2066.5" width="35.7" height="3000" fill="#6b4e26" opacity="0.076"/><rect x="2116.1" width="39.8" height="3000" fill="#6b4e26" opacity="0.082"/><rect x="2171.4" width="31.1" height="3000" fill="#6b4e26" opacity="0.060"/><rect x="2214.6" width="22.7" height="3000" fill="#6b4e26" opacity="0.067"/><rect x="2246.1" width="25.9" height="3000" fill="#6b4e26" opacity="0.057"/><rect x="2282.1" width="20.5" height="3000" fill="#6b4e26" opacity="0.044"/><rect x="2310.6" width="37.2" height="3000" fill="#6b4e26" opacity="0.081"/><rect x="2362.3" width="35" height="3000" fill="#6b4e26" opacity="0.049"/><rect y="0" width="2400" height="19" fill="#7c5c30" opacity="0.040"/><rect y="31.7" width="2400" height="24.4" fill="#7c5c30" opacity="0.048"/><rect y="72.3" width="2400" height="28.5" fill="#7c5c30" opacity="0.047"/><rect y="119.8" width="2400" height="15.9" fill="#7c5c30" opacity="0.039"/><rect y="146.3" width="2400" height="22.3" fill="#7c5c30" opacity="0.038"/><rect y="183.5" width="2400" height="16.4" fill="#7c5c30" opacity="0.026"/><rect y="210.8" width="2400" height="17.7" fill="#7c5c30" opacity="0.021"/><rect y="240.4" width="2400" height="25.7" fill="#7c5c30" opacity="0.038"/><rect y="283.3" width="2400" height="19.9" fill="#7c5c30" opacity="0.037"/><rect y="316.5" width="2400" height="26.6" fill="#7c5c30" opacity="0.027"/><rect y="360.8" width="2400" height="21.6" fill="#7c5c30" opacity="0.044"/><rect y="396.8" width="2400" height="16.4" fill="#7c5c30" opacity="0.049"/><rect y="424.1" width="2400" height="22.1" fill="#7c5c30" opacity="0.056"/><rect y="461" width="2400" height="27.3" fill="#7c5c30" opacity="0.057"/><rect y="506.4" width="2400" height="19.8" fill="#7c5c30" opacity="0.022"/><rect y="539.4" width="2400" height="16.8" fill="#7c5c30" opacity="0.045"/><rect y="567.4" width="2400" height="23.4" fill="#7c5c30" opacity="0.023"/><rect y="606.4" width="2400" height="13.8" fill="#7c5c30" opacity="0.034"/><rect y="629.5" width="2400" height="20.4" fill="#7c5c30" opacity="0.031"/><rect y="663.4" width="2400" height="22.7" fill="#7c5c30" opacity="0.047"/><rect y="701.3" width="2400" height="13.9" fill="#7c5c30" opacity="0.054"/><rect y="724.5" width="2400" height="27" fill="#7c5c30" opacity="0.040"/><rect y="769.6" width="2400" height="16.3" fill="#7c5c30" opacity="0.035"/><rect y="796.8" width="2400" height="17.4" fill="#7c5c30" opacity="0.052"/><rect y="825.8" width="2400" height="13.9" fill="#7c5c30" opacity="0.026"/><rect y="849" width="2400" height="12.5" fill="#7c5c30" opacity="0.037"/><rect y="869.9" width="2400" height="13.1" fill="#7c5c30" opacity="0.038"/><rect y="891.8" width="2400" height="25.1" fill="#7c5c30" opacity="0.047"/><rect y="933.7" width="2400" height="27.7" fill="#7c5c30" opacity="0.056"/><rect y="979.8" width="2400" height="17.6" fill="#7c5c30" opacity="0.058"/><rect y="1009.2" width="2400" height="14" fill="#7c5c30" opacity="0.043"/><rect y="1032.4" width="2400" height="27.5" fill="#7c5c30" opacity="0.041"/><rect y="1078.3" width="2400" height="16.9" fill="#7c5c30" opacity="0.040"/><rect y="1106.5" width="2400" height="24" fill="#7c5c30" opacity="0.046"/><rect y="1146.5" width="2400" height="23.6" fill="#7c5c30" opacity="0.033"/><rect y="1185.8" width="2400" height="25.9" fill="#7c5c30" opacity="0.053"/><rect y="1228.9" width="2400" height="18.2" fill="#7c5c30" opacity="0.022"/><rect y="1259.3" width="2400" height="15.2" fill="#7c5c30" opacity="0.030"/><rect y="1284.7" width="2400" height="18.7" fill="#7c5c30" opacity="0.035"/><rect y="1315.8" width="2400" height="14.6" fill="#7c5c30" opacity="0.034"/><rect y="1340.1" width="2400" height="26.6" fill="#7c5c30" opacity="0.051"/><rect y="1384.4" width="2400" height="20.1" fill="#7c5c30" opacity="0.033"/><rect y="1418" width="2400" height="22.9" fill="#7c5c30" opacity="0.044"/><rect y="1456.2" width="2400" height="22.9" fill="#7c5c30" opacity="0.049"/><rect y="1494.4" width="2400" height="14.2" fill="#7c5c30" opacity="0.056"/><rect y="1518" width="2400" height="28.7" fill="#7c5c30" opacity="0.050"/><rect y="1566" width="2400" height="26.4" fill="#7c5c30" opacity="0.055"/><rect y="1610" width="2400" height="13.3" fill="#7c5c30" opacity="0.039"/><rect y="1632.3" width="2400" height="23.6" fill="#7c5c30" opacity="0.059"/><rect y="1671.6" width="2400" height="24.9" fill="#7c5c30" opacity="0.032"/><rect y="1713.1" width="2400" height="27.7" fill="#7c5c30" opacity="0.035"/><rect y="1759.2" width="2400" height="17.6" fill="#7c5c30" opacity="0.054"/><rect y="1788.5" width="2400" height="28.2" fill="#7c5c30" opacity="0.056"/><rect y="1835.6" width="2400" height="12.1" fill="#7c5c30" opacity="0.025"/><rect y="1855.8" width="2400" height="20.3" fill="#7c5c30" opacity="0.038"/><rect y="1889.6" width="2400" height="21" fill="#7c5c30" opacity="0.041"/><rect y="1924.6" width="2400" height="21.5" fill="#7c5c30" opacity="0.031"/><rect y="1960.4" width="2400" height="14" fill="#7c5c30" opacity="0.042"/><rect y="1983.7" width="2400" height="26.3" fill="#7c5c30" opacity="0.028"/><rect y="2027.5" width="2400" height="26.8" fill="#7c5c30" opacity="0.057"/><rect y="2072.2" width="2400" height="16.3" fill="#7c5c30" opacity="0.052"/><rect y="2099.3" width="2400" height="16.6" fill="#7c5c30" opacity="0.023"/><rect y="2126.9" width="2400" height="24.9" fill="#7c5c30" opacity="0.043"/><rect y="2168.4" width="2400" height="23.3" fill="#7c5c30" opacity="0.026"/><rect y="2207.3" width="2400" height="25.9" fill="#7c5c30" opacity="0.042"/><rect y="2250.4" width="2400" height="26" fill="#7c5c30" opacity="0.021"/><rect y="2293.8" width="2400" height="19.6" fill="#7c5c30" opacity="0.021"/><rect y="2326.4" width="2400" height="20.6" fill="#7c5c30" opacity="0.059"/><rect y="2360.8" width="2400" height="20.9" fill="#7c5c30" opacity="0.047"/><rect y="2395.6" width="2400" height="13" fill="#7c5c30" opacity="0.042"/><rect y="2417.3" width="2400" height="12.4" fill="#7c5c30" opacity="0.057"/><rect y="2438" width="2400" height="28.6" fill="#7c5c30" opacity="0.045"/><rect y="2485.7" width="2400" height="22.2" fill="#7c5c30" opacity="0.023"/><rect y="2522.7" width="2400" height="21.4" fill="#7c5c30" opacity="0.038"/><rect y="2558.4" width="2400" height="26.5" fill="#7c5c30" opacity="0.048"/><rect y="2602.6" width="2400" height="12.2" fill="#7c5c30" opacity="0.046"/><rect y="2622.9" width="2400" height="26.2" fill="#7c5c30" opacity="0.054"/><rect y="2666.6" width="2400" height="28.4" fill="#7c5c30" opacity="0.051"/><rect y="2714" width="2400" height="12.5" fill="#7c5c30" opacity="0.033"/><rect y="2734.8" width="2400" height="15.4" fill="#7c5c30" opacity="0.039"/><rect y="2760.6" width="2400" height="24.1" fill="#7c5c30" opacity="0.029"/><rect y="2800.7" width="2400" height="23.9" fill="#7c5c30" opacity="0.027"/><rect y="2840.6" width="2400" height="12.1" fill="#7c5c30" opacity="0.031"/><rect y="2860.8" width="2400" height="14" fill="#7c5c30" opacity="0.023"/><rect y="2884.2" width="2400" height="23.8" fill="#7c5c30" opacity="0.025"/><rect y="2923.8" width="2400" height="14.9" fill="#7c5c30" opacity="0.053"/><rect y="2948.7" width="2400" height="12.7" fill="#7c5c30" opacity="0.027"/><rect y="2969.9" width="2400" height="16.1" fill="#7c5c30" opacity="0.039"/><rect y="2996.7" width="2400" height="14" fill="#7c5c30" opacity="0.028"/><g filter="url(#a34-warp)"><clipPath id="a34-gz"><rect x="150" y="150" width="2100" height="2700"/></clipPath><g clip-path="url(#a34-gz)"><circle cx="1125.6" cy="783.7" r="319.5" fill="#3a6483"/><path d="M150,2050 C 700,1966.5 1100,2133.5 1600,1999.9 S 2200,2083.4 2250,2030 L2250,2850 L150,2850 Z" fill="#2b2720" opacity="0.35"/><path d="M150,2270 C 700,2131.8 1100,2408.2 1600,2187.1 S 2200,2325.3 2250,2250 L2250,2850 L150,2850 Z" fill="#ad976a" opacity="0.9"/><path d="M150,2520 C 700,2407.2 1100,2632.8 1600,2452.3 S 2200,2565.1 2250,2500 L2250,2850 L150,2850 Z" fill="#2b2720" opacity="1"/><polygon points="654.4,1446.3 220,2130 775.5,2130" fill="#2b2720"/><polygon points="654.4,1446.3 775.5,2130 1088.7,2130" fill="#2b2720" opacity="0.6"/><polygon points="1267.4,1608.3 839.5,2130 1349.6,2130" fill="#2b2720"/><polygon points="1267.4,1608.3 1349.6,2130 1695.3,2130" fill="#2b2720" opacity="0.6"/><path d="M1887,819.8 q 26,-24 52,0 q 26,-24 52,0" fill="none" stroke="#2b2720" stroke-width="8" stroke-linecap="round"/><path d="M1447.7,718.4 q 26,-24 52,0 q 26,-24 52,0" fill="none" stroke="#2b2720" stroke-width="8" stroke-linecap="round"/></g><polyline points="240,2800 300,2740 360,2800 420,2740 480,2800 540,2740 600,2800 660,2740 720,2800 780,2740 840,2800 900,2740 960,2800 1020,2740 1080,2800 1140,2740 1200,2800 1260,2740 1320,2800 1380,2740 1440,2800 1500,2740 1560,2800 1620,2740 1680,2800 1740,2740 1800,2800 1860,2740 1920,2800 1980,2740 2040,2800 2100,2740 2160,2800 " fill="none" stroke="#2b2720" stroke-width="10.8" stroke-linejoin="miter"/><rect x="120" y="120" width="2160" height="2760" fill="none" stroke="#2b2720" stroke-width="6" opacity="0.85"/></g><rect width="2400" height="3000" filter="url(#a34-mottle)" style="mix-blend-mode:multiply" opacity="0.5"/><rect width="2400" height="3000" filter="url(#a34-fade)" style="mix-blend-mode:screen" opacity="0.55"/><rect width="2400" height="3000" filter="url(#a34-grain)" style="mix-blend-mode:multiply" opacity="0.32"/><ellipse cx="2139.5" cy="686" rx="330.4" ry="313.9" fill="#6b4a22" opacity="0.055" filter="url(#a34-blur9)"/><ellipse cx="769.3" cy="2443.4" rx="212.9" ry="135" fill="#6b4a22" opacity="0.063" filter="url(#a34-blur9)"/><ellipse cx="1318.5" cy="1945.1" rx="191.7" ry="113.9" fill="#6b4a22" opacity="0.040" filter="url(#a34-blur9)"/><rect x="0" width="25.6" height="3000" fill="#fff2d0" opacity="0.042"/><rect x="51.3" width="21.3" height="3000" fill="#fff2d0" opacity="0.027"/><rect x="93.9" width="32.3" height="3000" fill="#fff2d0" opacity="0.031"/><rect x="158.4" width="15.2" height="3000" fill="#fff2d0" opacity="0.023"/><rect x="188.8" width="21.2" height="3000" fill="#fff2d0" opacity="0.016"/><rect x="231.2" width="30.3" height="3000" fill="#fff2d0" opacity="0.042"/><rect x="291.8" width="20.4" height="3000" fill="#fff2d0" opacity="0.016"/><rect x="332.6" width="30.8" height="3000" fill="#fff2d0" opacity="0.042"/><rect x="394.1" width="20.8" height="3000" fill="#fff2d0" opacity="0.025"/><rect x="435.8" width="23.6" height="3000" fill="#fff2d0" opacity="0.022"/><rect x="483.1" width="25.8" height="3000" fill="#fff2d0" opacity="0.019"/><rect x="534.7" width="21.5" height="3000" fill="#fff2d0" opacity="0.017"/><rect x="577.8" width="22.3" height="3000" fill="#fff2d0" opacity="0.042"/><rect x="622.4" width="33" height="3000" fill="#fff2d0" opacity="0.021"/><rect x="688.5" width="18.1" height="3000" fill="#fff2d0" opacity="0.024"/><rect x="724.6" width="25.7" height="3000" fill="#fff2d0" opacity="0.043"/><rect x="776" width="22.9" height="3000" fill="#fff2d0" opacity="0.036"/><rect x="821.9" width="31.9" height="3000" fill="#fff2d0" opacity="0.024"/><rect x="885.7" width="34.3" height="3000" fill="#fff2d0" opacity="0.017"/><rect x="954.3" width="15.9" height="3000" fill="#fff2d0" opacity="0.021"/><rect x="986.1" width="34.8" height="3000" fill="#fff2d0" opacity="0.042"/><rect x="1055.8" width="22.1" height="3000" fill="#fff2d0" opacity="0.039"/><rect x="1100.1" width="24.2" height="3000" fill="#fff2d0" opacity="0.045"/><rect x="1148.6" width="22.9" height="3000" fill="#fff2d0" opacity="0.039"/><rect x="1194.4" width="29.4" height="3000" fill="#fff2d0" opacity="0.030"/><rect x="1253.3" width="21.5" height="3000" fill="#fff2d0" opacity="0.042"/><rect x="1296.2" width="19.3" height="3000" fill="#fff2d0" opacity="0.016"/><rect x="1334.9" width="16.5" height="3000" fill="#fff2d0" opacity="0.032"/><rect x="1367.9" width="30.7" height="3000" fill="#fff2d0" opacity="0.022"/><rect x="1429.3" width="19.8" height="3000" fill="#fff2d0" opacity="0.030"/><rect x="1468.8" width="19.8" height="3000" fill="#fff2d0" opacity="0.026"/><rect x="1508.3" width="31.2" height="3000" fill="#fff2d0" opacity="0.043"/><rect x="1570.6" width="16.8" height="3000" fill="#fff2d0" opacity="0.026"/><rect x="1604.1" width="18.4" height="3000" fill="#fff2d0" opacity="0.027"/><rect x="1641" width="30.5" height="3000" fill="#fff2d0" opacity="0.043"/><rect x="1702.1" width="16.7" height="3000" fill="#fff2d0" opacity="0.037"/><rect x="1735.5" width="18.6" height="3000" fill="#fff2d0" opacity="0.035"/><rect x="1772.7" width="15.9" height="3000" fill="#fff2d0" opacity="0.040"/><rect x="1804.5" width="25.9" height="3000" fill="#fff2d0" opacity="0.028"/><rect x="1856.3" width="27.7" height="3000" fill="#fff2d0" opacity="0.037"/><rect x="1911.7" width="34" height="3000" fill="#fff2d0" opacity="0.040"/><rect x="1979.8" width="18.5" height="3000" fill="#fff2d0" opacity="0.044"/><rect x="2016.7" width="17.2" height="3000" fill="#fff2d0" opacity="0.031"/><rect x="2051" width="21.2" height="3000" fill="#fff2d0" opacity="0.031"/><rect x="2093.4" width="17.4" height="3000" fill="#fff2d0" opacity="0.030"/><rect x="2128.2" width="32.4" height="3000" fill="#fff2d0" opacity="0.040"/><rect x="2193" width="25.4" height="3000" fill="#fff2d0" opacity="0.033"/><rect x="2243.7" width="28.8" height="3000" fill="#fff2d0" opacity="0.028"/><rect x="2301.3" width="23.1" height="3000" fill="#fff2d0" opacity="0.020"/><rect x="2347.5" width="32.2" height="3000" fill="#fff2d0" opacity="0.043"/><linearGradient id="a34-er" x1="0" x2="1" y1="0" y2="0"><stop offset="0" stop-color="#3a2a12" stop-opacity="0.22"/><stop offset="1" stop-color="#3a2a12" stop-opacity="0"/></linearGradient><rect x="0" y="0" width="90" height="3000" fill="url(#a34-er)"/><linearGradient id="a34-el" x1="1" x2="0" y1="0" y2="0"><stop offset="0" stop-color="#3a2a12" stop-opacity="0.22"/><stop offset="1" stop-color="#3a2a12" stop-opacity="0"/></linearGradient><rect x="2310" y="0" width="90" height="3000" fill="url(#a34-el)"/><linearGradient id="a34-ed" x1="0" x2="0" y1="0" y2="1"><stop offset="0" stop-color="#3a2a12" stop-opacity="0.22"/><stop offset="1" stop-color="#3a2a12" stop-opacity="0"/></linearGradient><rect x="0" y="0" width="2400" height="90" fill="url(#a34-ed)"/><linearGradient id="a34-eu" x1="0" x2="0" y1="1" y2="0"><stop offset="0" stop-color="#3a2a12" stop-opacity="0.22"/><stop offset="1" stop-color="#3a2a12" stop-opacity="0"/></linearGradient><rect x="0" y="2910" width="2400" height="90" fill="url(#a34-eu)"/><circle cx="738.9" cy="2485.6" r="10.5" fill="#8a5a2e" opacity="0.050"/><circle cx="168.8" cy="2552.8" r="10.5" fill="#8a5a2e" opacity="0.095"/><circle cx="290" cy="1900.1" r="9.8" fill="#8a5a2e" opacity="0.051"/><circle cx="2232.5" cy="1725.6" r="13.1" fill="#8a5a2e" opacity="0.071"/><circle cx="582.2" cy="609.6" r="5.7" fill="#8a5a2e" opacity="0.079"/><circle cx="2282.7" cy="116.7" r="5.6" fill="#8a5a2e" opacity="0.110"/><circle cx="365.8" cy="2906.4" r="9.4" fill="#8a5a2e" opacity="0.064"/><circle cx="437.8" cy="1405.5" r="13.8" fill="#8a5a2e" opacity="0.110"/><circle cx="232.1" cy="2764" r="7.6" fill="#8a5a2e" opacity="0.098"/><circle cx="2277.8" cy="1931.4" r="11.3" fill="#8a5a2e" opacity="0.117"/><circle cx="215.6" cy="742.1" r="15.3" fill="#8a5a2e" opacity="0.057"/><circle cx="1556.8" cy="1409.3" r="15.7" fill="#8a5a2e" opacity="0.114"/><circle cx="381.7" cy="2659.3" r="15.2" fill="#8a5a2e" opacity="0.046"/><circle cx="862.3" cy="2204.5" r="15.2" fill="#8a5a2e" opacity="0.058"/><circle cx="1325.1" cy="491.5" r="6.8" fill="#8a5a2e" opacity="0.098"/><circle cx="513.7" cy="2701.8" r="11.6" fill="#8a5a2e" opacity="0.123"/><rect width="2400" height="3000" fill="url(#a34-vig)"/></svg></svg>