<svg xmlns="http://www.w3.org/2000/svg" width="2400" height="1800" viewBox="0 0 2400 1800"><rect width="2400" height="1800" fill="#e3dccd"/><rect x="160" y="240" width="560" height="1060" fill="none" stroke="#cabfa9" stroke-width="10"/><rect x="200" y="280" width="480" height="980" fill="none" stroke="#cabfa9" stroke-width="5"/><rect x="1680" y="240" width="560" height="1060" fill="none" stroke="#cabfa9" stroke-width="10"/><rect x="1720" y="280" width="480" height="980" fill="none" stroke="#cabfa9" stroke-width="5"/><rect y="1380" width="2400" height="420" fill="#a98f6d"/><line x1="0" y1="1380" x2="-70" y2="1800" stroke="#00000018" stroke-width="6"/><line x1="190" y1="1380" x2="120" y2="1800" stroke="#00000018" stroke-width="6"/><line x1="380" y1="1380" x2="310" y2="1800" stroke="#00000018" stroke-width="6"/><line x1="570" y1="1380" x2="500" y2="1800" stroke="#00000018" stroke-width="6"/><line x1="760" y1="1380" x2="690" y2="1800" stroke="#00000018" stroke-width="6"/><line x1="950" y1="1380" x2="880" y2="1800" stroke="#00000018" stroke-width="6"/><line x1="1140" y1="1380" x2="1070" y2="1800" stroke="#00000018" stroke-width="6"/><line x1="1330" y1="1380" x2="1260" y2="1800" stroke="#00000018" stroke-width="6"/><line x1="1520" y1="1380" x2="1450" y2="1800" stroke="#00000018" stroke-width="6"/><line x1="1710" y1="1380" x2="1640" y2="1800" stroke="#00000018" stroke-width="6"/><line x1="1900" y1="1380" x2="1830" y2="1800" stroke="#00000018" stroke-width="6"/><line x1="2090" y1="1380" x2="2020" y2="1800" stroke="#00000018" stroke-width="6"/><line x1="2280" y1="1380" x2="2210" y2="1800" stroke="#00000018" stroke-width="6"/><rect y="1364" width="2400" height="18" fill="#d3c8b2"/><path d="M700,1500 L1700,1500 L1860,1800 L540,1800 Z" fill="#96a396" opacity="0.75"/><path d="M760,1540 L1640,1540 L1760,1760 L640,1760 Z" fill="none" stroke="#f4ecdd" stroke-width="10" opacity="0.8"/><rect x="880" y="1180" width="640" height="40" rx="8" fill="#6f5436"/><rect x="920" y="1220" width="44" height="240" fill="#5e4629"/><rect x="1436" y="1220" width="44" height="240" fill="#5e4629"/><path d="M1160,1180 q -14,-90 40,-160 M1200,1180 q 4,-120 -10,-200 M1230,1180 q 30,-90 90,-130" stroke="#5d7052" stroke-width="12" fill="none" stroke-linecap="round"/><path d="M1150,1180 L1250,1180 L1230,1080 L1170,1080 Z" fill="#cfc7b2" transform="translate(0,0)"/><path d="M1155,1060 h90 l-12,124 h-66 Z" fill="#b98a5a"/><rect x="1380" y="1120" width="18" height="60" fill="#8f6b3d"/><ellipse cx="1389" cy="1116" rx="16" ry="10" fill="#c9a227"/><defs><filter id="a74h-sh" x="-30%" y="-30%" width="160%" height="160%"><feGaussianBlur stdDeviation="16"/></filter></defs><rect x="950" y="258" width="528" height="648" fill="#000" opacity="0.28" filter="url(#a74h-sh)"/><rect x="936" y="236" width="528" height="648" fill="#33291f"/><rect x="951.6" y="251.6" width="496.8" height="616.8" fill="none" stroke="#00000055" stroke-width="3"/><rect x="960" y="260" width="480" height="600" fill="#f6f2ea"/><svg x="996" y="296" width="408" height="528" viewBox="0 0 2400 3000" preserveAspectRatio="xMidYMid slice"><rect width="2400" height="3000" fill="#e7e1d3"/><radialGradient id="a74-vig" cx="50%" cy="42%" r="80%"><stop offset="55%" stop-color="#000" stop-opacity="0"/><stop offset="100%" stop-color="#000" stop-opacity="0.15"/></radialGradient><rect width="2400" height="3000" fill="url(#a74-vig)"/><circle cx="2270.7" cy="1559.3" r="4.4" fill="#39685c" opacity="0.066"/><circle cx="1590.9" cy="209" r="4.4" fill="#39685c" opacity="0.072"/><circle cx="718.4" cy="1963.4" r="3.8" fill="#39685c" opacity="0.060"/><circle cx="695.9" cy="1870.9" r="3.7" fill="#39685c" opacity="0.041"/><circle cx="613.9" cy="1356.8" r="1.9" fill="#39685c" opacity="0.036"/><circle cx="1019.8" cy="2562.2" r="1.7" fill="#39685c" opacity="0.053"/><circle cx="2043.7" cy="626.1" r="4.2" fill="#39685c" opacity="0.035"/><circle cx="1826.6" cy="2360.2" r="3.3" fill="#39685c" opacity="0.075"/><circle cx="619" cy="2796.2" r="4.3" fill="#39685c" opacity="0.042"/><circle cx="849.7" cy="2052.6" r="2.2" fill="#39685c" opacity="0.035"/><circle cx="1864.1" cy="1376.4" r="2.6" fill="#39685c" opacity="0.078"/><circle cx="973.3" cy="1419.3" r="3.8" fill="#39685c" opacity="0.038"/><circle cx="675.7" cy="1244.9" r="2.3" fill="#39685c" opacity="0.074"/><circle cx="288.9" cy="2219.4" r="3" fill="#39685c" opacity="0.069"/><circle cx="178.8" cy="597.2" r="1.7" fill="#39685c" opacity="0.062"/><circle cx="214.6" cy="198.9" r="1.9" fill="#39685c" opacity="0.048"/><circle cx="1271.4" cy="355.7" r="3.6" fill="#39685c" opacity="0.038"/><circle cx="91.6" cy="1636.3" r="1.8" fill="#39685c" opacity="0.068"/><circle cx="2090.2" cy="1538" r="2.4" fill="#39685c" opacity="0.074"/><circle cx="788" cy="2551.2" r="3.9" fill="#39685c" opacity="0.069"/><circle cx="318.9" cy="1664.3" r="3.5" fill="#39685c" opacity="0.054"/><circle cx="450.5" cy="1077.6" r="2.2" fill="#39685c" opacity="0.032"/><circle cx="911.3" cy="790.4" r="4" fill="#39685c" opacity="0.073"/><circle cx="351.1" cy="1279.4" r="4.4" fill="#39685c" opacity="0.047"/><circle cx="1775.6" cy="1756.3" r="4.2" fill="#39685c" opacity="0.047"/><circle cx="1702.8" cy="78.4" r="1.8" fill="#39685c" opacity="0.073"/><circle cx="1930.8" cy="673.5" r="3" fill="#39685c" opacity="0.053"/><circle cx="2115.7" cy="784.8" r="2.7" fill="#39685c" opacity="0.065"/><circle cx="2339" cy="2942.5" r="3.6" fill="#39685c" opacity="0.060"/><circle cx="985.7" cy="2528.3" r="4.5" fill="#39685c" opacity="0.047"/><circle cx="1519.9" cy="668.7" r="3.3" fill="#39685c" opacity="0.070"/><circle cx="1045.9" cy="1492.6" r="3.4" fill="#39685c" opacity="0.062"/><circle cx="980.5" cy="671.6" r="3.8" fill="#39685c" opacity="0.079"/><circle cx="1747" cy="1032" r="3" fill="#39685c" opacity="0.043"/><circle cx="836.2" cy="2440.8" r="2.7" fill="#39685c" opacity="0.061"/><circle cx="988.9" cy="616.5" r="2.9" fill="#39685c" opacity="0.042"/><circle cx="1655.2" cy="1895.1" r="3.4" fill="#39685c" opacity="0.056"/><circle cx="538.1" cy="1155.8" r="2.3" fill="#39685c" opacity="0.053"/><circle cx="1224.8" cy="1315.9" r="3.3" fill="#39685c" opacity="0.035"/><circle cx="281.5" cy="1076.4" r="2.7" fill="#39685c" opacity="0.054"/><circle cx="1566.4" cy="2768.2" r="2.2" fill="#39685c" opacity="0.048"/><circle cx="2032.9" cy="2100.3" r="3.7" fill="#39685c" opacity="0.072"/><circle cx="2154" cy="195.5" r="1.6" fill="#39685c" opacity="0.080"/><circle cx="683.6" cy="1967.6" r="3.7" fill="#39685c" opacity="0.078"/><circle cx="2240" cy="1098.5" r="2.2" fill="#39685c" opacity="0.048"/><circle cx="633.7" cy="870.1" r="1.6" fill="#39685c" opacity="0.030"/><circle cx="1657.4" cy="588.6" r="3.6" fill="#39685c" opacity="0.064"/><circle cx="1420.2" cy="2598.1" r="2.8" fill="#39685c" opacity="0.036"/><circle cx="635.5" cy="665" r="2.6" fill="#39685c" opacity="0.068"/><circle cx="2229.3" cy="781.4" r="4" fill="#39685c" opacity="0.066"/><circle cx="311.6" cy="1451" r="1.8" fill="#39685c" opacity="0.055"/><circle cx="646" cy="2820" r="4.1" fill="#39685c" opacity="0.051"/><circle cx="1901" cy="864.2" r="4.2" fill="#39685c" opacity="0.030"/><circle cx="515.7" cy="641.1" r="2.8" fill="#39685c" opacity="0.064"/><circle cx="1033.3" cy="937.9" r="1.7" fill="#39685c" opacity="0.077"/><circle cx="2241.4" cy="451" r="1.9" fill="#39685c" opacity="0.039"/><circle cx="768.4" cy="1042.3" r="1.9" fill="#39685c" opacity="0.035"/><circle cx="921" cy="1861.4" r="2" fill="#39685c" opacity="0.058"/><circle cx="354.6" cy="177" r="3.2" fill="#39685c" opacity="0.051"/><circle cx="967.3" cy="2383.7" r="1.9" fill="#39685c" opacity="0.055"/><circle cx="1585.6" cy="1847.6" r="2.8" fill="#39685c" opacity="0.052"/><circle cx="828.1" cy="44.9" r="2.4" fill="#39685c" opacity="0.034"/><circle cx="363" cy="1232.7" r="3.9" fill="#39685c" opacity="0.039"/><circle cx="1818.3" cy="1877.4" r="2" fill="#39685c" opacity="0.051"/><circle cx="1458.4" cy="2760.6" r="3.8" fill="#39685c" opacity="0.069"/><circle cx="300.3" cy="2613.8" r="2.1" fill="#39685c" opacity="0.048"/><circle cx="1689.4" cy="825.1" r="1.6" fill="#39685c" opacity="0.039"/><circle cx="1775.2" cy="2471.7" r="2.3" fill="#39685c" opacity="0.078"/><circle cx="280.4" cy="329.5" r="2.7" fill="#39685c" opacity="0.067"/><circle cx="650" cy="2314.7" r="3.2" fill="#39685c" opacity="0.058"/><circle cx="510.4" cy="626.2" r="2.7" fill="#39685c" opacity="0.063"/><circle cx="2048.4" cy="317.5" r="2.2" fill="#39685c" opacity="0.058"/><circle cx="1183.9" cy="1180.2" r="2.1" fill="#39685c" opacity="0.068"/><circle cx="2256.9" cy="2940.3" r="1.6" fill="#39685c" opacity="0.060"/><circle cx="80.1" cy="2665.4" r="3" fill="#39685c" opacity="0.060"/><circle cx="708.5" cy="1725" r="2.8" fill="#39685c" opacity="0.069"/><circle cx="2094.7" cy="2295.8" r="1.9" fill="#39685c" opacity="0.065"/><circle cx="1721.5" cy="2349.1" r="4" fill="#39685c" opacity="0.066"/><circle cx="2206.7" cy="1301.5" r="2.8" fill="#39685c" opacity="0.078"/><circle cx="1848.2" cy="1168.8" r="3.5" fill="#39685c" opacity="0.073"/><polyline points="1127.7,2118.1 1088.3,2112.8 1049.3,2105.2 1010.7,2095.5 972.8,2083.5 935.7,2069.4 899.4,2053.2 864.1,2034.9 830,2014.6 797,1992.4 765.4,1968.3 735.2,1942.5 706.5,1914.9 679.5,1885.8 654.2,1855.2 630.7,1823.1 609,1789.8 589.4,1755.3 571.7,1719.7 556.1,1683.1 542.6,1645.7 531.3,1607.6 522.2,1568.9 515.4,1529.8 510.8,1490.3 508.4,1450.6 508.4,1410.9 510.6,1371.2 515.2,1331.7 521.9,1292.6 530.9,1253.9 542.2,1215.7 555.5,1178.3 571.1,1141.7 588.7,1106.1 608.3,1071.5 629.8,1038.1 653.3,1006 678.5,975.3 705.5,946.1 734.1,918.5 764.2,892.6 795.8,868.5 828.7,846.2 862.8,825.9 898.1,807.5 934.3,791.2 971.4,777 1009.3,764.9 " fill="none" stroke="#39685c" stroke-width="14" stroke-linecap="round"/><polyline points="1272.3,2118.1 1311.7,2112.8 1350.7,2105.2 1389.3,2095.5 1427.2,2083.5 1464.3,2069.4 1500.6,2053.2 1535.9,2034.9 1570,2014.6 1603,1992.4 1634.6,1968.3 1664.8,1942.5 1693.5,1914.9 1720.5,1885.8 1745.8,1855.2 1769.3,1823.1 1791,1789.8 1810.6,1755.3 1828.3,1719.7 1843.9,1683.1 1857.4,1645.7 1868.7,1607.6 1877.8,1568.9 1884.6,1529.8 1889.2,1490.3 1891.6,1450.6 1891.6,1410.9 1889.4,1371.2 1884.8,1331.7 1878.1,1292.6 1869.1,1253.9 1857.8,1215.7 1844.5,1178.3 1828.9,1141.7 1811.3,1106.1 1791.7,1071.5 1770.2,1038.1 1746.7,1006 1721.5,975.3 1694.5,946.1 1665.9,918.5 1635.8,892.6 1604.2,868.5 1571.3,846.2 1537.2,825.9 1501.9,807.5 1465.7,791.2 1428.6,777 1390.7,764.9 " fill="none" stroke="#39685c" stroke-width="14" stroke-linecap="round"/><path d="M0 0 Q 36 -66.5 0 -175 Q -36 -66.5 0 0 Z" fill="#39685c" opacity="1" transform="translate(1320.1 2111.4) rotate(-70)"/><path d="M0 0 Q 34.9 -64.5 0 -169.8 Q -34.9 -64.5 0 0 Z" fill="#39685c" opacity="1" transform="translate(1444.7 2077.1) rotate(-140.7)"/><circle cx="1444.7" cy="2077.1" r="15" fill="#96a396"/><path d="M0 0 Q 33.8 -62.5 0 -164.5 Q -33.8 -62.5 0 0 Z" fill="#39685c" opacity="1" transform="translate(1560.8 2020.4) rotate(-91.4)"/><path d="M0 0 Q 32.8 -60.5 0 -159.3 Q -32.8 -60.5 0 0 Z" fill="#39685c" opacity="1" transform="translate(1664.2 1943) rotate(-162.1)"/><path d="M0 0 Q 31.7 -58.5 0 -154 Q -31.7 -58.5 0 0 Z" fill="#39685c" opacity="1" transform="translate(1751.5 1847.7) rotate(-112.9)"/><circle cx="1751.5" cy="1847.7" r="15" fill="#96a396"/><path d="M0 0 Q 30.6 -56.5 0 -148.8 Q -30.6 -56.5 0 0 Z" fill="#39685c" opacity="1" transform="translate(1819.6 1737.9) rotate(-183.6)"/><path d="M0 0 Q 29.5 -54.5 0 -143.5 Q -29.5 -54.5 0 0 Z" fill="#39685c" opacity="1" transform="translate(1866 1617.4) rotate(-134.3)"/><path d="M0 0 Q 28.4 -52.5 0 -138.3 Q -28.4 -52.5 0 0 Z" fill="#39685c" opacity="1" transform="translate(1889.2 1490.3) rotate(-205)"/><circle cx="1889.2" cy="1490.3" r="15" fill="#96a396"/><path d="M0 0 Q 27.4 -50.5 0 -133 Q -27.4 -50.5 0 0 Z" fill="#39685c" opacity="1" transform="translate(1888.4 1361.1) rotate(-155.7)"/><path d="M0 0 Q 26.3 -48.5 0 -127.8 Q -26.3 -48.5 0 0 Z" fill="#39685c" opacity="1" transform="translate(1863.6 1234.3) rotate(-226.4)"/><path d="M0 0 Q 25.2 -46.5 0 -122.5 Q -25.2 -46.5 0 0 Z" fill="#39685c" opacity="1" transform="translate(1815.7 1114.4) rotate(-177.1)"/><circle cx="1815.7" cy="1114.4" r="15" fill="#96a396"/><path d="M0 0 Q 24.1 -44.6 0 -117.3 Q -24.1 -44.6 0 0 Z" fill="#39685c" opacity="1" transform="translate(1746.3 1005.4) rotate(-247.9)"/><path d="M0 0 Q 23 -42.6 0 -112 Q -23 -42.6 0 0 Z" fill="#39685c" opacity="1" transform="translate(1657.8 911.3) rotate(-198.6)"/><path d="M0 0 Q 22 -40.6 0 -106.8 Q -22 -40.6 0 0 Z" fill="#39685c" opacity="1" transform="translate(1553.4 835.2) rotate(-269.3)"/><circle cx="1553.4" cy="835.2" r="15" fill="#96a396"/><path d="M0 0 Q 20.9 -38.6 0 -101.5 Q -20.9 -38.6 0 0 Z" fill="#39685c" opacity="1" transform="translate(1436.6 779.9) rotate(-220)"/><path d="M0 0 Q 36 -66.5 0 -175 Q -36 -66.5 0 0 Z" fill="#39685c" opacity="1" transform="translate(1079.9 2111.4) rotate(70)"/><path d="M0 0 Q 34.9 -64.5 0 -169.8 Q -34.9 -64.5 0 0 Z" fill="#39685c" opacity="1" transform="translate(955.3 2077.1) rotate(140.7)"/><circle cx="955.3" cy="2077.1" r="15" fill="#96a396"/><path d="M0 0 Q 33.8 -62.5 0 -164.5 Q -33.8 -62.5 0 0 Z" fill="#39685c" opacity="1" transform="translate(839.2 2020.4) rotate(91.4)"/><path d="M0 0 Q 32.8 -60.5 0 -159.3 Q -32.8 -60.5 0 0 Z" fill="#39685c" opacity="1" transform="translate(735.8 1943) rotate(162.1)"/><path d="M0 0 Q 31.7 -58.5 0 -154 Q -31.7 -58.5 0 0 Z" fill="#39685c" opacity="1" transform="translate(648.5 1847.7) rotate(112.9)"/><circle cx="648.5" cy="1847.7" r="15" fill="#96a396"/><path d="M0 0 Q 30.6 -56.5 0 -148.8 Q -30.6 -56.5 0 0 Z" fill="#39685c" opacity="1" transform="translate(580.4 1737.9) rotate(183.6)"/><path d="M0 0 Q 29.5 -54.5 0 -143.5 Q -29.5 -54.5 0 0 Z" fill="#39685c" opacity="1" transform="translate(534 1617.4) rotate(134.3)"/><path d="M0 0 Q 28.4 -52.5 0 -138.3 Q -28.4 -52.5 0 0 Z" fill="#39685c" opacity="1" transform="translate(510.8 1490.3) rotate(205)"/><circle cx="510.8" cy="1490.3" r="15" fill="#96a396"/><path d="M0 0 Q 27.4 -50.5 0 -133 Q -27.4 -50.5 0 0 Z" fill="#39685c" opacity="1" transform="translate(511.6 1361.1) rotate(155.7)"/><path d="M0 0 Q 26.3 -48.5 0 -127.8 Q -26.3 -48.5 0 0 Z" fill="#39685c" opacity="1" transform="translate(536.4 1234.3) rotate(226.4)"/><path d="M0 0 Q 25.2 -46.5 0 -122.5 Q -25.2 -46.5 0 0 Z" fill="#39685c" opacity="1" transform="translate(584.3 1114.4) rotate(177.1)"/><circle cx="584.3" cy="1114.4" r="15" fill="#96a396"/><path d="M0 0 Q 24.1 -44.6 0 -117.3 Q -24.1 -44.6 0 0 Z" fill="#39685c" opacity="1" transform="translate(653.7 1005.4) rotate(247.9)"/><path d="M0 0 Q 23 -42.6 0 -112 Q -23 -42.6 0 0 Z" fill="#39685c" opacity="1" transform="translate(742.2 911.3) rotate(198.6)"/><path d="M0 0 Q 22 -40.6 0 -106.8 Q -22 -40.6 0 0 Z" fill="#39685c" opacity="1" transform="translate(846.6 835.2) rotate(269.3)"/><circle cx="846.6" cy="835.2" r="15" fill="#96a396"/><path d="M0 0 Q 20.9 -38.6 0 -101.5 Q -20.9 -38.6 0 0 Z" fill="#39685c" opacity="1" transform="translate(963.4 779.9) rotate(220)"/><path d="M1170,2097.9 l -120,150 l 60,10 l 80,-110 Z" fill="#96a396"/><path d="M1230,2097.9 l 120,150 l -60,10 l -80,-110 Z" fill="#96a396"/><line x1="1330" y1="1430" x2="1500" y2="1430" stroke="#96a396" stroke-width="16" stroke-linecap="round"/><line x1="1325.6" y1="1463.6" x2="1431.8" y2="1492.1" stroke="#96a396" stroke-width="16" stroke-linecap="round"/><line x1="1312.6" y1="1495" x2="1459.8" y2="1580" stroke="#96a396" stroke-width="16" stroke-linecap="round"/><line x1="1291.9" y1="1521.9" x2="1369.7" y2="1599.7" stroke="#96a396" stroke-width="16" stroke-linecap="round"/><line x1="1265" y1="1542.6" x2="1350" y2="1689.8" stroke="#96a396" stroke-width="16" stroke-linecap="round"/><line x1="1233.6" y1="1555.6" x2="1262.1" y2="1661.8" stroke="#96a396" stroke-width="16" stroke-linecap="round"/><line x1="1200" y1="1560" x2="1200" y2="1730" stroke="#96a396" stroke-width="16" stroke-linecap="round"/><line x1="1166.4" y1="1555.6" x2="1137.9" y2="1661.8" stroke="#96a396" stroke-width="16" stroke-linecap="round"/><line x1="1135" y1="1542.6" x2="1050" y2="1689.8" stroke="#96a396" stroke-width="16" stroke-linecap="round"/><line x1="1108.1" y1="1521.9" x2="1030.3" y2="1599.7" stroke="#96a396" stroke-width="16" stroke-linecap="round"/><line x1="1087.4" y1="1495" x2="940.2" y2="1580" stroke="#96a396" stroke-width="16" stroke-linecap="round"/><line x1="1074.4" y1="1463.6" x2="968.2" y2="1492.1" stroke="#96a396" stroke-width="16" stroke-linecap="round"/><line x1="1070" y1="1430" x2="900" y2="1430" stroke="#96a396" stroke-width="16" stroke-linecap="round"/><line x1="1074.4" y1="1396.4" x2="968.2" y2="1367.9" stroke="#96a396" stroke-width="16" stroke-linecap="round"/><line x1="1087.4" y1="1365" x2="940.2" y2="1280" stroke="#96a396" stroke-width="16" stroke-linecap="round"/><line x1="1108.1" y1="1338.1" x2="1030.3" y2="1260.3" stroke="#96a396" stroke-width="16" stroke-linecap="round"/><line x1="1135" y1="1317.4" x2="1050" y2="1170.2" stroke="#96a396" stroke-width="16" stroke-linecap="round"/><line x1="1166.4" y1="1304.4" x2="1137.9" y2="1198.2" stroke="#96a396" stroke-width="16" stroke-linecap="round"/><line x1="1200" y1="1300" x2="1200" y2="1130" stroke="#96a396" stroke-width="16" stroke-linecap="round"/><line x1="1233.6" y1="1304.4" x2="1262.1" y2="1198.2" stroke="#96a396" stroke-width="16" stroke-linecap="round"/><line x1="1265" y1="1317.4" x2="1350" y2="1170.2" stroke="#96a396" stroke-width="16" stroke-linecap="round"/><line x1="1291.9" y1="1338.1" x2="1369.7" y2="1260.3" stroke="#96a396" stroke-width="16" stroke-linecap="round"/><line x1="1312.6" y1="1365" x2="1459.8" y2="1280" stroke="#96a396" stroke-width="16" stroke-linecap="round"/><line x1="1325.6" y1="1396.4" x2="1431.8" y2="1367.9" stroke="#96a396" stroke-width="16" stroke-linecap="round"/><circle cx="1200" cy="1430" r="96" fill="#96a396"/><path d="M286.4,273.6 L 353.6,273.6 L 353.6,206.4 L 300.8,206.4 L 300.8,248 L 328,248 L 328,227.2 M366.4,273.6 L 433.6,273.6 L 433.6,206.4 L 380.8,206.4 L 380.8,248 L 408,248 L 408,227.2 M446.4,273.6 L 513.6,273.6 L 513.6,206.4 L 460.8,206.4 L 460.8,248 L 488,248 L 488,227.2 M526.4,273.6 L 593.6,273.6 L 593.6,206.4 L 540.8,206.4 L 540.8,248 L 568,248 L 568,227.2 M606.4,273.6 L 673.6,273.6 L 673.6,206.4 L 620.8,206.4 L 620.8,248 L 648,248 L 648,227.2 M686.4,273.6 L 753.6,273.6 L 753.6,206.4 L 700.8,206.4 L 700.8,248 L 728,248 L 728,227.2 M766.4,273.6 L 833.6,273.6 L 833.6,206.4 L 780.8,206.4 L 780.8,248 L 808,248 L 808,227.2 M846.4,273.6 L 913.6,273.6 L 913.6,206.4 L 860.8,206.4 L 860.8,248 L 888,248 L 888,227.2 M926.4,273.6 L 993.6,273.6 L 993.6,206.4 L 940.8,206.4 L 940.8,248 L 968,248 L 968,227.2 M1006.4,273.6 L 1073.6,273.6 L 1073.6,206.4 L 1020.8,206.4 L 1020.8,248 L 1048,248 L 1048,227.2 M1086.4,273.6 L 1153.6,273.6 L 1153.6,206.4 L 1100.8,206.4 L 1100.8,248 L 1128,248 L 1128,227.2 M1166.4,273.6 L 1233.6,273.6 L 1233.6,206.4 L 1180.8,206.4 L 1180.8,248 L 1208,248 L 1208,227.2 M1246.4,273.6 L 1313.6,273.6 L 1313.6,206.4 L 1260.8,206.4 L 1260.8,248 L 1288,248 L 1288,227.2 M1326.4,273.6 L 1393.6,273.6 L 1393.6,206.4 L 1340.8,206.4 L 1340.8,248 L 1368,248 L 1368,227.2 M1406.4,273.6 L 1473.6,273.6 L 1473.6,206.4 L 1420.8,206.4 L 1420.8,248 L 1448,248 L 1448,227.2 M1486.4,273.6 L 1553.6,273.6 L 1553.6,206.4 L 1500.8,206.4 L 1500.8,248 L 1528,248 L 1528,227.2 M1566.4,273.6 L 1633.6,273.6 L 1633.6,206.4 L 1580.8,206.4 L 1580.8,248 L 1608,248 L 1608,227.2 M1646.4,273.6 L 1713.6,273.6 L 1713.6,206.4 L 1660.8,206.4 L 1660.8,248 L 1688,248 L 1688,227.2 M1726.4,273.6 L 1793.6,273.6 L 1793.6,206.4 L 1740.8,206.4 L 1740.8,248 L 1768,248 L 1768,227.2 M1806.4,273.6 L 1873.6,273.6 L 1873.6,206.4 L 1820.8,206.4 L 1820.8,248 L 1848,248 L 1848,227.2 M1886.4,273.6 L 1953.6,273.6 L 1953.6,206.4 L 1900.8,206.4 L 1900.8,248 L 1928,248 L 1928,227.2 M1966.4,273.6 L 2033.6,273.6 L 2033.6,206.4 L 1980.8,206.4 L 1980.8,248 L 2008,248 L 2008,227.2 M2046.4,273.6 L 2113.6,273.6 L 2113.6,206.4 L 2060.8,206.4 L 2060.8,248 L 2088,248 L 2088,227.2 " fill="none" stroke="#39685c" stroke-width="10.4"/><line x1="280" y1="2806" x2="2120" y2="2806" stroke="#39685c" stroke-width="6.9"/><polyline points="339.9,2764.7 339.4,2765.3 339.1,2766.1 339.1,2767.1 339.4,2768.1 340.1,2769.1 341.1,2769.9 342.4,2770.5 344,2770.6 345.6,2770.4 347.3,2769.7 348.8,2768.4 350,2766.8 350.9,2764.7 351.1,2762.4 350.8,2760 349.8,2757.6 348.2,2755.4 346,2753.6 343.2,2752.3 340.1,2751.8 336.9,2752 333.7,2753.1 330.7,2755 328.2,2757.6 326.3,2760.9 325.3,2764.7 325.2,2768.8 326.2,2772.9 328.2,2776.7 331.1,2780.1 334.9,2782.7 339.3,2784.3 344.2,2784.9 349.1,2784.2 353.9,2782.4 358.2,2779.3 361.7,2775.2 364.2,2770.3 365.4,2764.7 365.3,2758.9 363.7,2753.2 360.7,2747.9 356.4,2743.4 351.1,2740 345,2737.9 338.4,2737.3 331.7,2738.4 325.4,2741.1 319.8,2745.3 315.3,2750.9 312.2,2757.4 310.8,2764.7" fill="none" stroke="#39685c" stroke-width="7.7" stroke-linecap="round" stroke-linejoin="round"/><polyline points="425.9,2764.7 425.4,2765.3 425.1,2766.1 425.1,2767.1 425.4,2768.1 426.1,2769.1 427.1,2769.9 428.4,2770.5 430,2770.6 431.6,2770.4 433.3,2769.7 434.8,2768.4 436,2766.8 436.9,2764.7 437.1,2762.4 436.8,2760 435.8,2757.6 434.2,2755.4 432,2753.6 429.2,2752.3 426.1,2751.8 422.9,2752 419.7,2753.1 416.7,2755 414.2,2757.6 412.3,2760.9 411.3,2764.7 411.2,2768.8 412.2,2772.9 414.2,2776.7 417.1,2780.1 420.9,2782.7 425.3,2784.3 430.2,2784.9 435.1,2784.2 439.9,2782.4 444.2,2779.3 447.7,2775.2 450.2,2770.3 451.4,2764.7 451.3,2758.9 449.7,2753.2 446.7,2747.9 442.4,2743.4 437.1,2740 431,2737.9 424.4,2737.3 417.7,2738.4 411.4,2741.1 405.8,2745.3 401.3,2750.9 398.2,2757.4 396.8,2764.7" fill="none" stroke="#39685c" stroke-width="7.7" stroke-linecap="round" stroke-linejoin="round"/><polyline points="511.9,2764.7 511.4,2765.3 511.1,2766.1 511.1,2767.1 511.4,2768.1 512.1,2769.1 513.1,2769.9 514.4,2770.5 516,2770.6 517.6,2770.4 519.3,2769.7 520.8,2768.4 522,2766.8 522.9,2764.7 523.1,2762.4 522.8,2760 521.8,2757.6 520.2,2755.4 518,2753.6 515.2,2752.3 512.1,2751.8 508.9,2752 505.7,2753.1 502.7,2755 500.2,2757.6 498.3,2760.9 497.3,2764.7 497.2,2768.8 498.2,2772.9 500.2,2776.7 503.1,2780.1 506.9,2782.7 511.3,2784.3 516.2,2784.9 521.1,2784.2 525.9,2782.4 530.2,2779.3 533.7,2775.2 536.2,2770.3 537.4,2764.7 537.3,2758.9 535.7,2753.2 532.7,2747.9 528.4,2743.4 523.1,2740 517,2737.9 510.4,2737.3 503.7,2738.4 497.4,2741.1 491.8,2745.3 487.3,2750.9 484.2,2757.4 482.8,2764.7" fill="none" stroke="#39685c" stroke-width="7.7" stroke-linecap="round" stroke-linejoin="round"/><polyline points="597.9,2764.7 597.4,2765.3 597.1,2766.1 597.1,2767.1 597.4,2768.1 598.1,2769.1 599.1,2769.9 600.4,2770.5 602,2770.6 603.6,2770.4 605.3,2769.7 606.8,2768.4 608,2766.8 608.9,2764.7 609.1,2762.4 608.8,2760 607.8,2757.6 606.2,2755.4 604,2753.6 601.2,2752.3 598.1,2751.8 594.9,2752 591.7,2753.1 588.7,2755 586.2,2757.6 584.3,2760.9 583.3,2764.7 583.2,2768.8 584.2,2772.9 586.2,2776.7 589.1,2780.1 592.9,2782.7 597.3,2784.3 602.2,2784.9 607.1,2784.2 611.9,2782.4 616.2,2779.3 619.7,2775.2 622.2,2770.3 623.4,2764.7 623.3,2758.9 621.7,2753.2 618.7,2747.9 614.4,2743.4 609.1,2740 603,2737.9 596.4,2737.3 589.7,2738.4 583.4,2741.1 577.8,2745.3 573.3,2750.9 570.2,2757.4 568.8,2764.7" fill="none" stroke="#39685c" stroke-width="7.7" stroke-linecap="round" stroke-linejoin="round"/><polyline points="683.9,2764.7 683.4,2765.3 683.1,2766.1 683.1,2767.1 683.4,2768.1 684.1,2769.1 685.1,2769.9 686.4,2770.5 688,2770.6 689.6,2770.4 691.3,2769.7 692.8,2768.4 694,2766.8 694.9,2764.7 695.1,2762.4 694.8,2760 693.8,2757.6 692.2,2755.4 690,2753.6 687.2,2752.3 684.1,2751.8 680.9,2752 677.7,2753.1 674.7,2755 672.2,2757.6 670.3,2760.9 669.3,2764.7 669.2,2768.8 670.2,2772.9 672.2,2776.7 675.1,2780.1 678.9,2782.7 683.3,2784.3 688.2,2784.9 693.1,2784.2 697.9,2782.4 702.2,2779.3 705.7,2775.2 708.2,2770.3 709.4,2764.7 709.3,2758.9 707.7,2753.2 704.7,2747.9 700.4,2743.4 695.1,2740 689,2737.9 682.4,2737.3 675.7,2738.4 669.4,2741.1 663.8,2745.3 659.3,2750.9 656.2,2757.4 654.8,2764.7" fill="none" stroke="#39685c" stroke-width="7.7" stroke-linecap="round" stroke-linejoin="round"/><polyline points="769.9,2764.7 769.4,2765.3 769.1,2766.1 769.1,2767.1 769.4,2768.1 770.1,2769.1 771.1,2769.9 772.4,2770.5 774,2770.6 775.6,2770.4 777.3,2769.7 778.8,2768.4 780,2766.8 780.9,2764.7 781.1,2762.4 780.8,2760 779.8,2757.6 778.2,2755.4 776,2753.6 773.2,2752.3 770.1,2751.8 766.9,2752 763.7,2753.1 760.7,2755 758.2,2757.6 756.3,2760.9 755.3,2764.7 755.2,2768.8 756.2,2772.9 758.2,2776.7 761.1,2780.1 764.9,2782.7 769.3,2784.3 774.2,2784.9 779.1,2784.2 783.9,2782.4 788.2,2779.3 791.7,2775.2 794.2,2770.3 795.4,2764.7 795.3,2758.9 793.7,2753.2 790.7,2747.9 786.4,2743.4 781.1,2740 775,2737.9 768.4,2737.3 761.7,2738.4 755.4,2741.1 749.8,2745.3 745.3,2750.9 742.2,2757.4 740.8,2764.7" fill="none" stroke="#39685c" stroke-width="7.7" stroke-linecap="round" stroke-linejoin="round"/><polyline points="855.9,2764.7 855.4,2765.3 855.1,2766.1 855.1,2767.1 855.4,2768.1 856.1,2769.1 857.1,2769.9 858.4,2770.5 860,2770.6 861.6,2770.4 863.3,2769.7 864.8,2768.4 866,2766.8 866.9,2764.7 867.1,2762.4 866.8,2760 865.8,2757.6 864.2,2755.4 862,2753.6 859.2,2752.3 856.1,2751.8 852.9,2752 849.7,2753.1 846.7,2755 844.2,2757.6 842.3,2760.9 841.3,2764.7 841.2,2768.8 842.2,2772.9 844.2,2776.7 847.1,2780.1 850.9,2782.7 855.3,2784.3 860.2,2784.9 865.1,2784.2 869.9,2782.4 874.2,2779.3 877.7,2775.2 880.2,2770.3 881.4,2764.7 881.3,2758.9 879.7,2753.2 876.7,2747.9 872.4,2743.4 867.1,2740 861,2737.9 854.4,2737.3 847.7,2738.4 841.4,2741.1 835.8,2745.3 831.3,2750.9 828.2,2757.4 826.8,2764.7" fill="none" stroke="#39685c" stroke-width="7.7" stroke-linecap="round" stroke-linejoin="round"/><polyline points="941.9,2764.7 941.4,2765.3 941.1,2766.1 941.1,2767.1 941.4,2768.1 942.1,2769.1 943.1,2769.9 944.4,2770.5 946,2770.6 947.6,2770.4 949.3,2769.7 950.8,2768.4 952,2766.8 952.9,2764.7 953.1,2762.4 952.8,2760 951.8,2757.6 950.2,2755.4 948,2753.6 945.2,2752.3 942.1,2751.8 938.9,2752 935.7,2753.1 932.7,2755 930.2,2757.6 928.3,2760.9 927.3,2764.7 927.2,2768.8 928.2,2772.9 930.2,2776.7 933.1,2780.1 936.9,2782.7 941.3,2784.3 946.2,2784.9 951.1,2784.2 955.9,2782.4 960.2,2779.3 963.7,2775.2 966.2,2770.3 967.4,2764.7 967.3,2758.9 965.7,2753.2 962.7,2747.9 958.4,2743.4 953.1,2740 947,2737.9 940.4,2737.3 933.7,2738.4 927.4,2741.1 921.8,2745.3 917.3,2750.9 914.2,2757.4 912.8,2764.7" fill="none" stroke="#39685c" stroke-width="7.7" stroke-linecap="round" stroke-linejoin="round"/><polyline points="1027.9,2764.7 1027.4,2765.3 1027.1,2766.1 1027.1,2767.1 1027.4,2768.1 1028.1,2769.1 1029.1,2769.9 1030.4,2770.5 1032,2770.6 1033.6,2770.4 1035.3,2769.7 1036.8,2768.4 1038,2766.8 1038.9,2764.7 1039.1,2762.4 1038.8,2760 1037.8,2757.6 1036.2,2755.4 1034,2753.6 1031.2,2752.3 1028.1,2751.8 1024.9,2752 1021.7,2753.1 1018.7,2755 1016.2,2757.6 1014.3,2760.9 1013.3,2764.7 1013.2,2768.8 1014.2,2772.9 1016.2,2776.7 1019.1,2780.1 1022.9,2782.7 1027.3,2784.3 1032.2,2784.9 1037.1,2784.2 1041.9,2782.4 1046.2,2779.3 1049.7,2775.2 1052.2,2770.3 1053.4,2764.7 1053.3,2758.9 1051.7,2753.2 1048.7,2747.9 1044.4,2743.4 1039.1,2740 1033,2737.9 1026.4,2737.3 1019.7,2738.4 1013.4,2741.1 1007.8,2745.3 1003.3,2750.9 1000.2,2757.4 998.8,2764.7" fill="none" stroke="#39685c" stroke-width="7.7" stroke-linecap="round" stroke-linejoin="round"/><polyline points="1113.9,2764.7 1113.4,2765.3 1113.1,2766.1 1113.1,2767.1 1113.4,2768.1 1114.1,2769.1 1115.1,2769.9 1116.4,2770.5 1118,2770.6 1119.6,2770.4 1121.3,2769.7 1122.8,2768.4 1124,2766.8 1124.9,2764.7 1125.1,2762.4 1124.8,2760 1123.8,2757.6 1122.2,2755.4 1120,2753.6 1117.2,2752.3 1114.1,2751.8 1110.9,2752 1107.7,2753.1 1104.7,2755 1102.2,2757.6 1100.3,2760.9 1099.3,2764.7 1099.2,2768.8 1100.2,2772.9 1102.2,2776.7 1105.1,2780.1 1108.9,2782.7 1113.3,2784.3 1118.2,2784.9 1123.1,2784.2 1127.9,2782.4 1132.2,2779.3 1135.7,2775.2 1138.2,2770.3 1139.4,2764.7 1139.3,2758.9 1137.7,2753.2 1134.7,2747.9 1130.4,2743.4 1125.1,2740 1119,2737.9 1112.4,2737.3 1105.7,2738.4 1099.4,2741.1 1093.8,2745.3 1089.3,2750.9 1086.2,2757.4 1084.8,2764.7" fill="none" stroke="#39685c" stroke-width="7.7" stroke-linecap="round" stroke-linejoin="round"/><polyline points="1199.9,2764.7 1199.4,2765.3 1199.1,2766.1 1199.1,2767.1 1199.4,2768.1 1200.1,2769.1 1201.1,2769.9 1202.4,2770.5 1204,2770.6 1205.6,2770.4 1207.3,2769.7 1208.8,2768.4 1210,2766.8 1210.9,2764.7 1211.1,2762.4 1210.8,2760 1209.8,2757.6 1208.2,2755.4 1206,2753.6 1203.2,2752.3 1200.1,2751.8 1196.9,2752 1193.7,2753.1 1190.7,2755 1188.2,2757.6 1186.3,2760.9 1185.3,2764.7 1185.2,2768.8 1186.2,2772.9 1188.2,2776.7 1191.1,2780.1 1194.9,2782.7 1199.3,2784.3 1204.2,2784.9 1209.1,2784.2 1213.9,2782.4 1218.2,2779.3 1221.7,2775.2 1224.2,2770.3 1225.4,2764.7 1225.3,2758.9 1223.7,2753.2 1220.7,2747.9 1216.4,2743.4 1211.1,2740 1205,2737.9 1198.4,2737.3 1191.7,2738.4 1185.4,2741.1 1179.8,2745.3 1175.3,2750.9 1172.2,2757.4 1170.8,2764.7" fill="none" stroke="#39685c" stroke-width="7.7" stroke-linecap="round" stroke-linejoin="round"/><polyline points="1285.9,2764.7 1285.4,2765.3 1285.1,2766.1 1285.1,2767.1 1285.4,2768.1 1286.1,2769.1 1287.1,2769.9 1288.4,2770.5 1290,2770.6 1291.6,2770.4 1293.3,2769.7 1294.8,2768.4 1296,2766.8 1296.9,2764.7 1297.1,2762.4 1296.8,2760 1295.8,2757.6 1294.2,2755.4 1292,2753.6 1289.2,2752.3 1286.1,2751.8 1282.9,2752 1279.7,2753.1 1276.7,2755 1274.2,2757.6 1272.3,2760.9 1271.3,2764.7 1271.2,2768.8 1272.2,2772.9 1274.2,2776.7 1277.1,2780.1 1280.9,2782.7 1285.3,2784.3 1290.2,2784.9 1295.1,2784.2 1299.9,2782.4 1304.2,2779.3 1307.7,2775.2 1310.2,2770.3 1311.4,2764.7 1311.3,2758.9 1309.7,2753.2 1306.7,2747.9 1302.4,2743.4 1297.1,2740 1291,2737.9 1284.4,2737.3 1277.7,2738.4 1271.4,2741.1 1265.8,2745.3 1261.3,2750.9 1258.2,2757.4 1256.8,2764.7" fill="none" stroke="#39685c" stroke-width="7.7" stroke-linecap="round" stroke-linejoin="round"/><polyline points="1371.9,2764.7 1371.4,2765.3 1371.1,2766.1 1371.1,2767.1 1371.4,2768.1 1372.1,2769.1 1373.1,2769.9 1374.4,2770.5 1376,2770.6 1377.6,2770.4 1379.3,2769.7 1380.8,2768.4 1382,2766.8 1382.9,2764.7 1383.1,2762.4 1382.8,2760 1381.8,2757.6 1380.2,2755.4 1378,2753.6 1375.2,2752.3 1372.1,2751.8 1368.9,2752 1365.7,2753.1 1362.7,2755 1360.2,2757.6 1358.3,2760.9 1357.3,2764.7 1357.2,2768.8 1358.2,2772.9 1360.2,2776.7 1363.1,2780.1 1366.9,2782.7 1371.3,2784.3 1376.2,2784.9 1381.1,2784.2 1385.9,2782.4 1390.2,2779.3 1393.7,2775.2 1396.2,2770.3 1397.4,2764.7 1397.3,2758.9 1395.7,2753.2 1392.7,2747.9 1388.4,2743.4 1383.1,2740 1377,2737.9 1370.4,2737.3 1363.7,2738.4 1357.4,2741.1 1351.8,2745.3 1347.3,2750.9 1344.2,2757.4 1342.8,2764.7" fill="none" stroke="#39685c" stroke-width="7.7" stroke-linecap="round" stroke-linejoin="round"/><polyline points="1457.9,2764.7 1457.4,2765.3 1457.1,2766.1 1457.1,2767.1 1457.4,2768.1 1458.1,2769.1 1459.1,2769.9 1460.4,2770.5 1462,2770.6 1463.6,2770.4 1465.3,2769.7 1466.8,2768.4 1468,2766.8 1468.9,2764.7 1469.1,2762.4 1468.8,2760 1467.8,2757.6 1466.2,2755.4 1464,2753.6 1461.2,2752.3 1458.1,2751.8 1454.9,2752 1451.7,2753.1 1448.7,2755 1446.2,2757.6 1444.3,2760.9 1443.3,2764.7 1443.2,2768.8 1444.2,2772.9 1446.2,2776.7 1449.1,2780.1 1452.9,2782.7 1457.3,2784.3 1462.2,2784.9 1467.1,2784.2 1471.9,2782.4 1476.2,2779.3 1479.7,2775.2 1482.2,2770.3 1483.4,2764.7 1483.3,2758.9 1481.7,2753.2 1478.7,2747.9 1474.4,2743.4 1469.1,2740 1463,2737.9 1456.4,2737.3 1449.7,2738.4 1443.4,2741.1 1437.8,2745.3 1433.3,2750.9 1430.2,2757.4 1428.8,2764.7" fill="none" stroke="#39685c" stroke-width="7.7" stroke-linecap="round" stroke-linejoin="round"/><polyline points="1543.9,2764.7 1543.4,2765.3 1543.1,2766.1 1543.1,2767.1 1543.4,2768.1 1544.1,2769.1 1545.1,2769.9 1546.4,2770.5 1548,2770.6 1549.6,2770.4 1551.3,2769.7 1552.8,2768.4 1554,2766.8 1554.9,2764.7 1555.1,2762.4 1554.8,2760 1553.8,2757.6 1552.2,2755.4 1550,2753.6 1547.2,2752.3 1544.1,2751.8 1540.9,2752 1537.7,2753.1 1534.7,2755 1532.2,2757.6 1530.3,2760.9 1529.3,2764.7 1529.2,2768.8 1530.2,2772.9 1532.2,2776.7 1535.1,2780.1 1538.9,2782.7 1543.3,2784.3 1548.2,2784.9 1553.1,2784.2 1557.9,2782.4 1562.2,2779.3 1565.7,2775.2 1568.2,2770.3 1569.4,2764.7 1569.3,2758.9 1567.7,2753.2 1564.7,2747.9 1560.4,2743.4 1555.1,2740 1549,2737.9 1542.4,2737.3 1535.7,2738.4 1529.4,2741.1 1523.8,2745.3 1519.3,2750.9 1516.2,2757.4 1514.8,2764.7" fill="none" stroke="#39685c" stroke-width="7.7" stroke-linecap="round" stroke-linejoin="round"/><polyline points="1629.9,2764.7 1629.4,2765.3 1629.1,2766.1 1629.1,2767.1 1629.4,2768.1 1630.1,2769.1 1631.1,2769.9 1632.4,2770.5 1634,2770.6 1635.6,2770.4 1637.3,2769.7 1638.8,2768.4 1640,2766.8 1640.9,2764.7 1641.1,2762.4 1640.8,2760 1639.8,2757.6 1638.2,2755.4 1636,2753.6 1633.2,2752.3 1630.1,2751.8 1626.9,2752 1623.7,2753.1 1620.7,2755 1618.2,2757.6 1616.3,2760.9 1615.3,2764.7 1615.2,2768.8 1616.2,2772.9 1618.2,2776.7 1621.1,2780.1 1624.9,2782.7 1629.3,2784.3 1634.2,2784.9 1639.1,2784.2 1643.9,2782.4 1648.2,2779.3 1651.7,2775.2 1654.2,2770.3 1655.4,2764.7 1655.3,2758.9 1653.7,2753.2 1650.7,2747.9 1646.4,2743.4 1641.1,2740 1635,2737.9 1628.4,2737.3 1621.7,2738.4 1615.4,2741.1 1609.8,2745.3 1605.3,2750.9 1602.2,2757.4 1600.8,2764.7" fill="none" stroke="#39685c" stroke-width="7.7" stroke-linecap="round" stroke-linejoin="round"/><polyline points="1715.9,2764.7 1715.4,2765.3 1715.1,2766.1 1715.1,2767.1 1715.4,2768.1 1716.1,2769.1 1717.1,2769.9 1718.4,2770.5 1720,2770.6 1721.6,2770.4 1723.3,2769.7 1724.8,2768.4 1726,2766.8 1726.9,2764.7 1727.1,2762.4 1726.8,2760 1725.8,2757.6 1724.2,2755.4 1722,2753.6 1719.2,2752.3 1716.1,2751.8 1712.9,2752 1709.7,2753.1 1706.7,2755 1704.2,2757.6 1702.3,2760.9 1701.3,2764.7 1701.2,2768.8 1702.2,2772.9 1704.2,2776.7 1707.1,2780.1 1710.9,2782.7 1715.3,2784.3 1720.2,2784.9 1725.1,2784.2 1729.9,2782.4 1734.2,2779.3 1737.7,2775.2 1740.2,2770.3 1741.4,2764.7 1741.3,2758.9 1739.7,2753.2 1736.7,2747.9 1732.4,2743.4 1727.1,2740 1721,2737.9 1714.4,2737.3 1707.7,2738.4 1701.4,2741.1 1695.8,2745.3 1691.3,2750.9 1688.2,2757.4 1686.8,2764.7" fill="none" stroke="#39685c" stroke-width="7.7" stroke-linecap="round" stroke-linejoin="round"/><polyline points="1801.9,2764.7 1801.4,2765.3 1801.1,2766.1 1801.1,2767.1 1801.4,2768.1 1802.1,2769.1 1803.1,2769.9 1804.4,2770.5 1806,2770.6 1807.6,2770.4 1809.3,2769.7 1810.8,2768.4 1812,2766.8 1812.9,2764.7 1813.1,2762.4 1812.8,2760 1811.8,2757.6 1810.2,2755.4 1808,2753.6 1805.2,2752.3 1802.1,2751.8 1798.9,2752 1795.7,2753.1 1792.7,2755 1790.2,2757.6 1788.3,2760.9 1787.3,2764.7 1787.2,2768.8 1788.2,2772.9 1790.2,2776.7 1793.1,2780.1 1796.9,2782.7 1801.3,2784.3 1806.2,2784.9 1811.1,2784.2 1815.9,2782.4 1820.2,2779.3 1823.7,2775.2 1826.2,2770.3 1827.4,2764.7 1827.3,2758.9 1825.7,2753.2 1822.7,2747.9 1818.4,2743.4 1813.1,2740 1807,2737.9 1800.4,2737.3 1793.7,2738.4 1787.4,2741.1 1781.8,2745.3 1777.3,2750.9 1774.2,2757.4 1772.8,2764.7" fill="none" stroke="#39685c" stroke-width="7.7" stroke-linecap="round" stroke-linejoin="round"/><polyline points="1887.9,2764.7 1887.4,2765.3 1887.1,2766.1 1887.1,2767.1 1887.4,2768.1 1888.1,2769.1 1889.1,2769.9 1890.4,2770.5 1892,2770.6 1893.6,2770.4 1895.3,2769.7 1896.8,2768.4 1898,2766.8 1898.9,2764.7 1899.1,2762.4 1898.8,2760 1897.8,2757.6 1896.2,2755.4 1894,2753.6 1891.2,2752.3 1888.1,2751.8 1884.9,2752 1881.7,2753.1 1878.7,2755 1876.2,2757.6 1874.3,2760.9 1873.3,2764.7 1873.2,2768.8 1874.2,2772.9 1876.2,2776.7 1879.1,2780.1 1882.9,2782.7 1887.3,2784.3 1892.2,2784.9 1897.1,2784.2 1901.9,2782.4 1906.2,2779.3 1909.7,2775.2 1912.2,2770.3 1913.4,2764.7 1913.3,2758.9 1911.7,2753.2 1908.7,2747.9 1904.4,2743.4 1899.1,2740 1893,2737.9 1886.4,2737.3 1879.7,2738.4 1873.4,2741.1 1867.8,2745.3 1863.3,2750.9 1860.2,2757.4 1858.8,2764.7" fill="none" stroke="#39685c" stroke-width="7.7" stroke-linecap="round" stroke-linejoin="round"/><polyline points="1973.9,2764.7 1973.4,2765.3 1973.1,2766.1 1973.1,2767.1 1973.4,2768.1 1974.1,2769.1 1975.1,2769.9 1976.4,2770.5 1978,2770.6 1979.6,2770.4 1981.3,2769.7 1982.8,2768.4 1984,2766.8 1984.9,2764.7 1985.1,2762.4 1984.8,2760 1983.8,2757.6 1982.2,2755.4 1980,2753.6 1977.2,2752.3 1974.1,2751.8 1970.9,2752 1967.7,2753.1 1964.7,2755 1962.2,2757.6 1960.3,2760.9 1959.3,2764.7 1959.2,2768.8 1960.2,2772.9 1962.2,2776.7 1965.1,2780.1 1968.9,2782.7 1973.3,2784.3 1978.2,2784.9 1983.1,2784.2 1987.9,2782.4 1992.2,2779.3 1995.7,2775.2 1998.2,2770.3 1999.4,2764.7 1999.3,2758.9 1997.7,2753.2 1994.7,2747.9 1990.4,2743.4 1985.1,2740 1979,2737.9 1972.4,2737.3 1965.7,2738.4 1959.4,2741.1 1953.8,2745.3 1949.3,2750.9 1946.2,2757.4 1944.8,2764.7" fill="none" stroke="#39685c" stroke-width="7.7" stroke-linecap="round" stroke-linejoin="round"/><polyline points="2059.9,2764.7 2059.4,2765.3 2059.1,2766.1 2059.1,2767.1 2059.4,2768.1 2060.1,2769.1 2061.1,2769.9 2062.4,2770.5 2064,2770.6 2065.6,2770.4 2067.3,2769.7 2068.8,2768.4 2070,2766.8 2070.9,2764.7 2071.1,2762.4 2070.8,2760 2069.8,2757.6 2068.2,2755.4 2066,2753.6 2063.2,2752.3 2060.1,2751.8 2056.9,2752 2053.7,2753.1 2050.7,2755 2048.2,2757.6 2046.3,2760.9 2045.3,2764.7 2045.2,2768.8 2046.2,2772.9 2048.2,2776.7 2051.1,2780.1 2054.9,2782.7 2059.3,2784.3 2064.2,2784.9 2069.1,2784.2 2073.9,2782.4 2078.2,2779.3 2081.7,2775.2 2084.2,2770.3 2085.4,2764.7 2085.3,2758.9 2083.7,2753.2 2080.7,2747.9 2076.4,2743.4 2071.1,2740 2065,2737.9 2058.4,2737.3 2051.7,2738.4 2045.4,2741.1 2039.8,2745.3 2035.3,2750.9 2032.2,2757.4 2030.8,2764.7" fill="none" stroke="#39685c" stroke-width="7.7" stroke-linecap="round" stroke-linejoin="round"/><rect x="100" y="100" width="2200" height="2800" fill="none" stroke="#39685c" stroke-width="9"/><rect x="142" y="142" width="2116" height="2716" fill="none" stroke="#39685c" stroke-width="3" opacity="0.65"/></svg></svg>