<svg xmlns="http://www.w3.org/2000/svg" width="2400" height="1800" viewBox="0 0 2400 1800"><rect width="2400" height="1800" fill="#e5ddcf"/><rect y="1430" width="2400" height="370" fill="#b89a76"/><line x1="100" y1="1430" x2="45" y2="1800" stroke="#00000016" stroke-width="5"/><line x1="330" y1="1430" x2="275" y2="1800" stroke="#00000016" stroke-width="5"/><line x1="560" y1="1430" x2="505" y2="1800" stroke="#00000016" stroke-width="5"/><line x1="790" y1="1430" x2="735" y2="1800" stroke="#00000016" stroke-width="5"/><line x1="1020" y1="1430" x2="965" y2="1800" stroke="#00000016" stroke-width="5"/><line x1="1250" y1="1430" x2="1195" y2="1800" stroke="#00000016" stroke-width="5"/><line x1="1480" y1="1430" x2="1425" y2="1800" stroke="#00000016" stroke-width="5"/><line x1="1710" y1="1430" x2="1655" y2="1800" stroke="#00000016" stroke-width="5"/><line x1="1940" y1="1430" x2="1885" y2="1800" stroke="#00000016" stroke-width="5"/><line x1="2170" y1="1430" x2="2115" y2="1800" stroke="#00000016" stroke-width="5"/><rect x="620" y="1180" width="1180" height="52" rx="10" fill="#8a6540"/><rect x="680" y="1232" width="70" height="330" fill="#775433"/><rect x="1670" y="1232" width="70" height="330" fill="#775433"/><rect x="760" y="1120" width="220" height="34" rx="6" fill="#a06b3d"/><rect x="780" y="1086" width="200" height="34" rx="6" fill="#39685c"/><rect x="800" y="1052" width="170" height="34" rx="6" fill="#c9a227"/><circle cx="1240" cy="1130" r="46" fill="#3f3428"/><rect x="1226" y="1048" width="16" height="60" fill="#3f3428" transform="rotate(18 1240 1090)"/><rect x="1420" y="1100" width="260" height="26" rx="13" fill="#e8dcc0"/><rect x="1450" y="1072" width="260" height="26" rx="13" fill="#dfd0ad"/><rect x="1080" y="1300" width="360" height="34" rx="14" fill="#6f5436"/><rect x="1100" y="1334" width="40" height="220" fill="#6f5436"/><rect x="1380" y="1334" width="40" height="220" fill="#6f5436"/><rect x="1080" y="1030" width="42" height="290" rx="14" fill="#6f5436"/><rect x="260" y="480" width="560" height="24" fill="#8a6540"/><rect x="300" y="360" width="90" height="120" fill="#b3502f"/><rect x="400" y="380" width="80" height="100" fill="#2c4661"/><rect x="490" y="350" width="86" height="130" fill="#96a396"/><path d="M700,480 Q 616,347 574,382" fill="none" stroke="#5d7052" stroke-width="11.2" stroke-linecap="round"/><path d="M700,480 Q 644,347 616,354" fill="none" stroke="#5d7052" stroke-width="11.2" stroke-linecap="round"/><path d="M700,480 Q 672,347 658,326" fill="none" stroke="#5d7052" stroke-width="11.2" stroke-linecap="round"/><path d="M700,480 Q 700,347 700,298" fill="none" stroke="#5d7052" stroke-width="11.2" stroke-linecap="round"/><path d="M700,480 Q 728,347 742,326" fill="none" stroke="#5d7052" stroke-width="11.2" stroke-linecap="round"/><path d="M700,480 Q 756,347 784,354" fill="none" stroke="#5d7052" stroke-width="11.2" stroke-linecap="round"/><path d="M700,480 Q 784,347 826,382" fill="none" stroke="#5d7052" stroke-width="11.2" stroke-linecap="round"/><path d="M651,480 L749,480 L736.4,557 L663.6,557 Z" fill="#a9714d"/><path d="M320,1520 Q 164,1273 86,1338" fill="none" stroke="#5d7052" stroke-width="20.8" stroke-linecap="round"/><path d="M320,1520 Q 216,1273 164,1286" fill="none" stroke="#5d7052" stroke-width="20.8" stroke-linecap="round"/><path d="M320,1520 Q 268,1273 242,1234" fill="none" stroke="#5d7052" stroke-width="20.8" stroke-linecap="round"/><path d="M320,1520 Q 320,1273 320,1182" fill="none" stroke="#5d7052" stroke-width="20.8" stroke-linecap="round"/><path d="M320,1520 Q 372,1273 398,1234" fill="none" stroke="#5d7052" stroke-width="20.8" stroke-linecap="round"/><path d="M320,1520 Q 424,1273 476,1286" fill="none" stroke="#5d7052" stroke-width="20.8" stroke-linecap="round"/><path d="M320,1520 Q 476,1273 554,1338" fill="none" stroke="#5d7052" stroke-width="20.8" stroke-linecap="round"/><path d="M229,1520 L411,1520 L387.6,1663 L252.4,1663 Z" fill="#a9714d"/><defs><filter id="a61s-sh" x="-30%" y="-30%" width="160%" height="160%"><feGaussianBlur stdDeviation="16"/></filter></defs><rect x="1206" y="294" width="616" height="756" fill="#000" opacity="0.28" filter="url(#a61s-sh)"/><rect x="1192" y="272" width="616" height="756" fill="#443a2d"/><rect x="1210.2" y="290.2" width="579.6" height="719.6" fill="none" stroke="#00000055" stroke-width="3"/><rect x="1220" y="300" width="560" height="700" fill="#f6f2ea"/><svg x="1262" y="342" width="476" height="616" viewBox="0 0 2400 3000" preserveAspectRatio="xMidYMid slice"><filter id="a61-warp" x="-4%" y="-4%" width="108%" height="108%"><feTurbulence type="fractalNoise" baseFrequency="0.0105" numOctaves="2" seed="6395" result="w"/><feDisplacementMap in="SourceGraphic" in2="w" scale="7" xChannelSelector="R" yChannelSelector="G"/></filter><filter id="a61-grain" x="0%" y="0%" width="100%" height="100%"><feTurbulence type="fractalNoise" baseFrequency="0.6" numOctaves="2" seed="6402"/><feColorMatrix type="matrix" values="0.33 0.33 0.33 0 0.62  0.33 0.33 0.33 0 0.62  0.33 0.33 0.33 0 0.62  0 0 0 0 1"/></filter><filter id="a61-mottle" x="0%" y="0%" width="100%" height="100%"><feTurbulence type="fractalNoise" baseFrequency="0.0045" numOctaves="3" seed="6408"/><feColorMatrix type="matrix" values="0.2 0.2 0.2 0 0.78  0.2 0.2 0.2 0 0.78  0.2 0.2 0.2 0 0.78  0 0 0 0 1"/></filter><filter id="a61-fade" x="0%" y="0%" width="100%" height="100%"><feTurbulence type="fractalNoise" baseFrequency="0.006" numOctaves="2" seed="6424"/><feColorMatrix type="matrix" values="0.3 0.3 0.3 0 -0.08  0.3 0.3 0.3 0 -0.08  0.3 0.3 0.3 0 -0.1  0 0 0 0 1"/></filter><filter id="a61-blur9"><feGaussianBlur stdDeviation="9"/></filter><radialGradient id="a61-vig" cx="50%" cy="44%" r="78%"><stop offset="52%" stop-color="#241a10" stop-opacity="0"/><stop offset="100%" stop-color="#241a10" stop-opacity="0.17"/></radialGradient><radialGradient id="a61-warm" cx="65%" cy="30%" r="85%"><stop offset="0%" stop-color="#e8c890" stop-opacity="0.14"/><stop offset="70%" stop-color="#e8c890" stop-opacity="0"/></radialGradient><rect width="2400" height="3000" fill="#efe6d0"/><rect width="2400" height="3000" fill="url(#a61-warm)"/><g filter="url(#a61-warp)"><path d="M1805.6,1966.7 Q1720.3,2353.5 1520.8,2539 Q1321.4,2724.4 1085.6,2676.2 Q849.7,2628 699.4,2299.6 Q549,1971.1 538.3,1570.8 Q527.7,1170.4 683.6,876 Q839.6,581.6 1082.5,483.3 Q1325.4,385 1529.6,608.6 Q1733.8,832.3 1812.3,1206.1 Q1890.8,1580 1805.6,1966.7 Z" fill="#c0ab87" stroke="#524026" stroke-width="10"/><clipPath id="a61-rs"><path d="M1805.6,1966.7 Q1720.3,2353.5 1520.8,2539 Q1321.4,2724.4 1085.6,2676.2 Q849.7,2628 699.4,2299.6 Q549,1971.1 538.3,1570.8 Q527.7,1170.4 683.6,876 Q839.6,581.6 1082.5,483.3 Q1325.4,385 1529.6,608.6 Q1733.8,832.3 1812.3,1206.1 Q1890.8,1580 1805.6,1966.7 Z"/></clipPath><g clip-path="url(#a61-rs)"><path d="M740,2560 C 580,1900 900,1500 1200,1400 C 1500,1300 1760,1000 1500,640" fill="none" stroke="#524026" stroke-width="150" opacity="0.25"/><line x1="740" y1="2518" x2="740" y2="2602" stroke="#524026" stroke-width="14" stroke-linecap="round"/><line x1="740" y1="2548.8" x2="775.3" y2="2579.1" stroke="#524026" stroke-width="12" stroke-linecap="round"/><line x1="740" y1="2543.7" x2="704.7" y2="2573.9" stroke="#524026" stroke-width="12" stroke-linecap="round"/><line x1="761.6" y1="2403" x2="761.6" y2="2487" stroke="#524026" stroke-width="14" stroke-linecap="round"/><line x1="761.6" y1="2438.2" x2="726.3" y2="2468.4" stroke="#524026" stroke-width="12" stroke-linecap="round"/><line x1="784.4" y1="2286.2" x2="784.4" y2="2370.2" stroke="#524026" stroke-width="14" stroke-linecap="round"/><line x1="784.4" y1="2318.8" x2="749.1" y2="2349.1" stroke="#524026" stroke-width="12" stroke-linecap="round"/><line x1="784.4" y1="2298.3" x2="749.1" y2="2328.6" stroke="#524026" stroke-width="12" stroke-linecap="round"/><line x1="809.7" y1="2166" x2="809.7" y2="2250" stroke="#524026" stroke-width="14" stroke-linecap="round"/><line x1="809.7" y1="2202.1" x2="845" y2="2232.3" stroke="#524026" stroke-width="12" stroke-linecap="round"/><line x1="809.7" y1="2195.8" x2="774.4" y2="2226" stroke="#524026" stroke-width="12" stroke-linecap="round"/><line x1="838.6" y1="2041.3" x2="838.6" y2="2125.3" stroke="#524026" stroke-width="14" stroke-linecap="round"/><line x1="838.6" y1="2055.8" x2="873.9" y2="2086" stroke="#524026" stroke-width="12" stroke-linecap="round"/><line x1="872.1" y1="1911.9" x2="872.1" y2="1995.9" stroke="#524026" stroke-width="14" stroke-linecap="round"/><line x1="872.1" y1="1933.7" x2="907.4" y2="1963.9" stroke="#524026" stroke-width="12" stroke-linecap="round"/><line x1="910.9" y1="1778.3" x2="910.9" y2="1862.3" stroke="#524026" stroke-width="14" stroke-linecap="round"/><line x1="910.9" y1="1802.8" x2="875.6" y2="1833" stroke="#524026" stroke-width="12" stroke-linecap="round"/><line x1="910.9" y1="1815.2" x2="946.1" y2="1845.4" stroke="#524026" stroke-width="12" stroke-linecap="round"/><line x1="955.4" y1="1641.4" x2="955.4" y2="1725.4" stroke="#524026" stroke-width="14" stroke-linecap="round"/><line x1="955.4" y1="1657.5" x2="990.7" y2="1687.7" stroke="#524026" stroke-width="12" stroke-linecap="round"/><line x1="955.4" y1="1653.9" x2="990.7" y2="1684.1" stroke="#524026" stroke-width="12" stroke-linecap="round"/><line x1="1006.1" y1="1502.9" x2="1006.1" y2="1586.9" stroke="#524026" stroke-width="14" stroke-linecap="round"/><line x1="1006.1" y1="1512.9" x2="1041.4" y2="1543.2" stroke="#524026" stroke-width="12" stroke-linecap="round"/><line x1="1006.1" y1="1538.2" x2="1041.4" y2="1568.5" stroke="#524026" stroke-width="12" stroke-linecap="round"/><line x1="1062.9" y1="1364.7" x2="1062.9" y2="1448.7" stroke="#524026" stroke-width="14" stroke-linecap="round"/><line x1="1062.9" y1="1386.5" x2="1027.6" y2="1416.7" stroke="#524026" stroke-width="12" stroke-linecap="round"/><line x1="1062.9" y1="1404" x2="1098.1" y2="1434.2" stroke="#524026" stroke-width="12" stroke-linecap="round"/><line x1="1125.4" y1="1228.6" x2="1125.4" y2="1312.6" stroke="#524026" stroke-width="14" stroke-linecap="round"/><line x1="1125.4" y1="1239.4" x2="1090.1" y2="1269.6" stroke="#524026" stroke-width="12" stroke-linecap="round"/><line x1="1125.4" y1="1268.6" x2="1160.7" y2="1298.9" stroke="#524026" stroke-width="12" stroke-linecap="round"/><line x1="1193.3" y1="1096.1" x2="1193.3" y2="1180.1" stroke="#524026" stroke-width="14" stroke-linecap="round"/><line x1="1193.3" y1="1116" x2="1158" y2="1146.2" stroke="#524026" stroke-width="12" stroke-linecap="round"/><line x1="1265.7" y1="968.1" x2="1265.7" y2="1052.1" stroke="#524026" stroke-width="14" stroke-linecap="round"/><line x1="1265.7" y1="994" x2="1230.4" y2="1024.2" stroke="#524026" stroke-width="12" stroke-linecap="round"/><line x1="1341.7" y1="844.8" x2="1341.7" y2="928.8" stroke="#524026" stroke-width="14" stroke-linecap="round"/><line x1="1341.7" y1="873.6" x2="1377" y2="903.8" stroke="#524026" stroke-width="12" stroke-linecap="round"/><line x1="1420.2" y1="725.7" x2="1420.2" y2="809.7" stroke="#524026" stroke-width="14" stroke-linecap="round"/><line x1="1420.2" y1="747.7" x2="1384.9" y2="777.9" stroke="#524026" stroke-width="12" stroke-linecap="round"/><line x1="1420.2" y1="741.7" x2="1455.5" y2="771.9" stroke="#524026" stroke-width="12" stroke-linecap="round"/><line x1="1500" y1="609.6" x2="1500" y2="693.6" stroke="#524026" stroke-width="14" stroke-linecap="round"/><line x1="1500" y1="637.2" x2="1464.7" y2="667.5" stroke="#524026" stroke-width="12" stroke-linecap="round"/><polyline points="1506.6,640 1508.1,642 1508.9,644.7 1508.8,647.8 1507.7,651.1 1505.5,654.2 1502.1,656.8 1497.9,658.5 1492.9,659.1 1487.6,658.3 1482.3,655.9 1477.5,652.1 1473.6,646.8 1471,640.3 1470.1,633 1471.1,625.3 1474.1,617.7 1479.2,610.7 1486.2,605 1494.7,601 1504.3,599.2 1514.5,599.7 1524.6,602.9 1534,608.7 1542,616.9 1548,627.1 1551.4,638.9 1551.9,651.6 1549.1,664.4 1543.2,676.5 1534.3,687.2 1522.7,695.6 1509,701.1 1494,703.2 1478.6,701.6 1463.6,696.1 1450,687 1438.7,674.5 1430.6,659.4 1426.2,642.3 1426.1,624.3 1430.4,606.4 1439.1,589.7 1451.9,575.2 1468.1,564 1486.8,556.9 1507.2,554.4 1527.9,557 1547.9,564.6 1565.7,577 1580.3,593.6 1590.7,613.6 1596.1,636 1596,659.4 1590.2,682.4 1578.8,703.8 1562.3,722.1 1541.6,736.2 1517.8,745.1 1492.1,748 1466,744.6" fill="none" stroke="#524026" stroke-width="18" stroke-linecap="round" stroke-linejoin="round"/><polyline points="733.4,2560 731.9,2562 731.1,2564.7 731.2,2567.8 732.3,2571.1 734.5,2574.2 737.9,2576.8 742.1,2578.5 747.1,2579.1 752.4,2578.3 757.7,2575.9 762.5,2572.1 766.4,2566.8 769,2560.3 769.9,2553 768.9,2545.3 765.9,2537.7 760.8,2530.7 753.8,2525 745.3,2521 735.7,2519.2 725.5,2519.7 715.4,2522.9 706,2528.7 698,2536.9 692,2547.1 688.6,2558.9 688.1,2571.6 690.9,2584.4 696.8,2596.5 705.7,2607.2 717.3,2615.6 731,2621.1 746,2623.2 761.4,2621.6 776.4,2616.1 790,2607 801.3,2594.5 809.4,2579.4 813.8,2562.3 813.9,2544.3 809.6,2526.4 800.9,2509.7 788.1,2495.2 771.9,2484 753.2,2476.9 732.8,2474.4 712.1,2477 692.1,2484.6 674.3,2497 659.7,2513.6 649.3,2533.6 643.9,2556 644,2579.4 649.8,2602.4 661.2,2623.8 677.7,2642.1 698.4,2656.2 722.2,2665.1 747.9,2668 774,2664.6" fill="none" stroke="#524026" stroke-width="18" stroke-linecap="round" stroke-linejoin="round"/></g><rect x="130" y="130" width="2140" height="2740" fill="none" stroke="#524026" stroke-width="5"/><rect x="152" y="152" width="2096" height="2696" fill="none" stroke="#524026" stroke-width="2.5" opacity="0.8"/></g><rect width="2400" height="3000" filter="url(#a61-mottle)" style="mix-blend-mode:multiply" opacity="0.5"/><rect width="2400" height="3000" filter="url(#a61-fade)" style="mix-blend-mode:screen" opacity="0.55"/><rect width="2400" height="3000" filter="url(#a61-grain)" style="mix-blend-mode:multiply" opacity="0.32"/><ellipse cx="454.7" cy="731.6" rx="189.6" ry="106.6" fill="#6b4a22" opacity="0.055" filter="url(#a61-blur9)"/><ellipse cx="280.3" cy="214.4" rx="127.1" ry="105.7" fill="#6b4a22" opacity="0.054" filter="url(#a61-blur9)"/><ellipse cx="1538.3" cy="2695.2" rx="180.8" ry="189.7" fill="#6b4a22" opacity="0.063" filter="url(#a61-blur9)"/><ellipse cx="625.5" cy="2214" rx="314.7" ry="300" fill="#6b4a22" opacity="0.032" filter="url(#a61-blur9)"/><ellipse cx="1456.4" cy="712.4" rx="261" ry="275.9" fill="#6b4a22" opacity="0.064" filter="url(#a61-blur9)"/><ellipse cx="499.4" cy="1007.7" rx="268.9" ry="283.9" fill="#6b4a22" opacity="0.030" filter="url(#a61-blur9)"/><g opacity="0.3"><rect y="3" width="2400" height="2" fill="#efe6d0"/><rect y="11" width="2400" height="2" fill="#efe6d0"/><rect y="19" width="2400" height="2" fill="#efe6d0"/><rect y="27" width="2400" height="2" fill="#efe6d0"/><rect y="35" width="2400" height="2" fill="#efe6d0"/><rect y="43" width="2400" height="2" fill="#efe6d0"/><rect y="51" width="2400" height="2" fill="#efe6d0"/><rect y="59" width="2400" height="2" fill="#efe6d0"/><rect y="67" width="2400" height="2" fill="#efe6d0"/><rect y="75" width="2400" height="2" fill="#efe6d0"/><rect y="83" width="2400" height="2" fill="#efe6d0"/><rect y="91" width="2400" height="2" fill="#efe6d0"/><rect y="99" width="2400" height="2" fill="#efe6d0"/><rect y="107" width="2400" height="2" fill="#efe6d0"/><rect y="115" width="2400" height="2" fill="#efe6d0"/><rect y="123" width="2400" height="2" fill="#efe6d0"/><rect y="131" width="2400" height="2" fill="#efe6d0"/><rect y="139" width="2400" height="2" fill="#efe6d0"/><rect y="147" width="2400" height="2" fill="#efe6d0"/><rect y="155" width="2400" height="2" fill="#efe6d0"/><rect y="163" width="2400" height="2" fill="#efe6d0"/><rect y="171" width="2400" height="2" fill="#efe6d0"/><rect y="179" width="2400" height="2" fill="#efe6d0"/><rect y="187" width="2400" height="2" fill="#efe6d0"/><rect y="195" width="2400" height="2" fill="#efe6d0"/><rect y="203" width="2400" height="2" fill="#efe6d0"/><rect y="211" width="2400" height="2" fill="#efe6d0"/><rect y="219" width="2400" height="2" fill="#efe6d0"/><rect y="227" width="2400" height="2" fill="#efe6d0"/><rect y="235" width="2400" height="2" fill="#efe6d0"/><rect y="243" width="2400" height="2" fill="#efe6d0"/><rect y="251" width="2400" height="2" fill="#efe6d0"/><rect y="259" width="2400" height="2" fill="#efe6d0"/><rect y="267" width="2400" height="2" fill="#efe6d0"/><rect y="275" width="2400" height="2" fill="#efe6d0"/><rect y="283" width="2400" height="2" fill="#efe6d0"/><rect y="291" width="2400" height="2" fill="#efe6d0"/><rect y="299" width="2400" height="2" fill="#efe6d0"/><rect y="307" width="2400" height="2" fill="#efe6d0"/><rect y="315" width="2400" height="2" fill="#efe6d0"/><rect y="323" width="2400" height="2" fill="#efe6d0"/><rect y="331" width="2400" height="2" fill="#efe6d0"/><rect y="339" width="2400" height="2" fill="#efe6d0"/><rect y="347" width="2400" height="2" fill="#efe6d0"/><rect y="355" width="2400" height="2" fill="#efe6d0"/><rect y="363" width="2400" height="2" fill="#efe6d0"/><rect y="371" width="2400" height="2" fill="#efe6d0"/><rect y="379" width="2400" height="2" fill="#efe6d0"/><rect y="387" width="2400" height="2" fill="#efe6d0"/><rect y="395" width="2400" height="2" fill="#efe6d0"/><rect y="403" width="2400" height="2" fill="#efe6d0"/><rect y="411" width="2400" height="2" fill="#efe6d0"/><rect y="419" width="2400" height="2" fill="#efe6d0"/><rect y="427" width="2400" height="2" fill="#efe6d0"/><rect y="435" width="2400" height="2" fill="#efe6d0"/><rect y="443" width="2400" height="2" fill="#efe6d0"/><rect y="451" width="2400" height="2" fill="#efe6d0"/><rect y="459" width="2400" height="2" fill="#efe6d0"/><rect y="467" width="2400" height="2" fill="#efe6d0"/><rect y="475" width="2400" height="2" fill="#efe6d0"/><rect y="483" width="2400" height="2" fill="#efe6d0"/><rect y="491" width="2400" height="2" fill="#efe6d0"/><rect y="499" width="2400" height="2" fill="#efe6d0"/><rect y="507" width="2400" height="2" fill="#efe6d0"/><rect y="515" width="2400" height="2" fill="#efe6d0"/><rect y="523" width="2400" height="2" fill="#efe6d0"/><rect y="531" width="2400" height="2" fill="#efe6d0"/><rect y="539" width="2400" height="2" fill="#efe6d0"/><rect y="547" width="2400" height="2" fill="#efe6d0"/><rect y="555" width="2400" height="2" fill="#efe6d0"/><rect y="563" width="2400" height="2" fill="#efe6d0"/><rect y="571" width="2400" height="2" fill="#efe6d0"/><rect y="579" width="2400" height="2" fill="#efe6d0"/><rect y="587" width="2400" height="2" fill="#efe6d0"/><rect y="595" width="2400" height="2" fill="#efe6d0"/><rect y="603" width="2400" height="2" fill="#efe6d0"/><rect y="611" width="2400" height="2" fill="#efe6d0"/><rect y="619" width="2400" height="2" fill="#efe6d0"/><rect y="627" width="2400" height="2" fill="#efe6d0"/><rect y="635" width="2400" height="2" fill="#efe6d0"/><rect y="643" width="2400" height="2" fill="#efe6d0"/><rect y="651" width="2400" height="2" fill="#efe6d0"/><rect y="659" width="2400" height="2" fill="#efe6d0"/><rect y="667" width="2400" height="2" fill="#efe6d0"/><rect y="675" width="2400" height="2" fill="#efe6d0"/><rect y="683" width="2400" height="2" fill="#efe6d0"/><rect y="691" width="2400" height="2" fill="#efe6d0"/><rect y="699" width="2400" height="2" fill="#efe6d0"/><rect y="707" width="2400" height="2" fill="#efe6d0"/><rect y="715" width="2400" height="2" fill="#efe6d0"/><rect y="723" width="2400" height="2" fill="#efe6d0"/><rect y="731" width="2400" height="2" fill="#efe6d0"/><rect y="739" width="2400" height="2" fill="#efe6d0"/><rect y="747" width="2400" height="2" fill="#efe6d0"/><rect y="755" width="2400" height="2" fill="#efe6d0"/><rect y="763" width="2400" height="2" fill="#efe6d0"/><rect y="771" width="2400" height="2" fill="#efe6d0"/><rect y="779" width="2400" height="2" fill="#efe6d0"/><rect y="787" width="2400" height="2" fill="#efe6d0"/><rect y="795" width="2400" height="2" fill="#efe6d0"/><rect y="803" width="2400" height="2" fill="#efe6d0"/><rect y="811" width="2400" height="2" fill="#efe6d0"/><rect y="819" width="2400" height="2" fill="#efe6d0"/><rect y="827" width="2400" height="2" fill="#efe6d0"/><rect y="835" width="2400" height="2" fill="#efe6d0"/><rect y="843" width="2400" height="2" fill="#efe6d0"/><rect y="851" width="2400" height="2" fill="#efe6d0"/><rect y="859" width="2400" height="2" fill="#efe6d0"/><rect y="867" width="2400" height="2" fill="#efe6d0"/><rect y="875" width="2400" height="2" fill="#efe6d0"/><rect y="883" width="2400" height="2" fill="#efe6d0"/><rect y="891" width="2400" height="2" fill="#efe6d0"/><rect y="899" width="2400" height="2" fill="#efe6d0"/><rect y="907" width="2400" height="2" fill="#efe6d0"/><rect y="915" width="2400" height="2" fill="#efe6d0"/><rect y="923" width="2400" height="2" fill="#efe6d0"/><rect y="931" width="2400" height="2" fill="#efe6d0"/><rect y="939" width="2400" height="2" fill="#efe6d0"/><rect y="947" width="2400" height="2" fill="#efe6d0"/><rect y="955" width="2400" height="2" fill="#efe6d0"/><rect y="963" width="2400" height="2" fill="#efe6d0"/><rect y="971" width="2400" height="2" fill="#efe6d0"/><rect y="979" width="2400" height="2" fill="#efe6d0"/><rect y="987" width="2400" height="2" fill="#efe6d0"/><rect y="995" width="2400" height="2" fill="#efe6d0"/><rect y="1003" width="2400" height="2" fill="#efe6d0"/><rect y="1011" width="2400" height="2" fill="#efe6d0"/><rect y="1019" width="2400" height="2" fill="#efe6d0"/><rect y="1027" width="2400" height="2" fill="#efe6d0"/><rect y="1035" width="2400" height="2" fill="#efe6d0"/><rect y="1043" width="2400" height="2" fill="#efe6d0"/><rect y="1051" width="2400" height="2" fill="#efe6d0"/><rect y="1059" width="2400" height="2" fill="#efe6d0"/><rect y="1067" width="2400" height="2" fill="#efe6d0"/><rect y="1075" width="2400" height="2" fill="#efe6d0"/><rect y="1083" width="2400" height="2" fill="#efe6d0"/><rect y="1091" width="2400" height="2" fill="#efe6d0"/><rect y="1099" width="2400" height="2" fill="#efe6d0"/><rect y="1107" width="2400" height="2" fill="#efe6d0"/><rect y="1115" width="2400" height="2" fill="#efe6d0"/><rect y="1123" width="2400" height="2" fill="#efe6d0"/><rect y="1131" width="2400" height="2" fill="#efe6d0"/><rect y="1139" width="2400" height="2" fill="#efe6d0"/><rect y="1147" width="2400" height="2" fill="#efe6d0"/><rect y="1155" width="2400" height="2" fill="#efe6d0"/><rect y="1163" width="2400" height="2" fill="#efe6d0"/><rect y="1171" width="2400" height="2" fill="#efe6d0"/><rect y="1179" width="2400" height="2" fill="#efe6d0"/><rect y="1187" width="2400" height="2" fill="#efe6d0"/><rect y="1195" width="2400" height="2" fill="#efe6d0"/><rect y="1203" width="2400" height="2" fill="#efe6d0"/><rect y="1211" width="2400" height="2" fill="#efe6d0"/><rect y="1219" width="2400" height="2" fill="#efe6d0"/><rect y="1227" width="2400" height="2" fill="#efe6d0"/><rect y="1235" width="2400" height="2" fill="#efe6d0"/><rect y="1243" width="2400" height="2" fill="#efe6d0"/><rect y="1251" width="2400" height="2" fill="#efe6d0"/><rect y="1259" width="2400" height="2" fill="#efe6d0"/><rect y="1267" width="2400" height="2" fill="#efe6d0"/><rect y="1275" width="2400" height="2" fill="#efe6d0"/><rect y="1283" width="2400" height="2" fill="#efe6d0"/><rect y="1291" width="2400" height="2" fill="#efe6d0"/><rect y="1299" width="2400" height="2" fill="#efe6d0"/><rect y="1307" width="2400" height="2" fill="#efe6d0"/><rect y="1315" width="2400" height="2" fill="#efe6d0"/><rect y="1323" width="2400" height="2" fill="#efe6d0"/><rect y="1331" width="2400" height="2" fill="#efe6d0"/><rect y="1339" width="2400" height="2" fill="#efe6d0"/><rect y="1347" width="2400" height="2" fill="#efe6d0"/><rect y="1355" width="2400" height="2" fill="#efe6d0"/><rect y="1363" width="2400" height="2" fill="#efe6d0"/><rect y="1371" width="2400" height="2" fill="#efe6d0"/><rect y="1379" width="2400" height="2" fill="#efe6d0"/><rect y="1387" width="2400" height="2" fill="#efe6d0"/><rect y="1395" width="2400" height="2" fill="#efe6d0"/><rect y="1403" width="2400" height="2" fill="#efe6d0"/><rect y="1411" width="2400" height="2" fill="#efe6d0"/><rect y="1419" width="2400" height="2" fill="#efe6d0"/><rect y="1427" width="2400" height="2" fill="#efe6d0"/><rect y="1435" width="2400" height="2" fill="#efe6d0"/><rect y="1443" width="2400" height="2" fill="#efe6d0"/><rect y="1451" width="2400" height="2" fill="#efe6d0"/><rect y="1459" width="2400" height="2" fill="#efe6d0"/><rect y="1467" width="2400" height="2" fill="#efe6d0"/><rect y="1475" width="2400" height="2" fill="#efe6d0"/><rect y="1483" width="2400" height="2" fill="#efe6d0"/><rect y="1491" width="2400" height="2" fill="#efe6d0"/><rect y="1499" width="2400" height="2" fill="#efe6d0"/><rect y="1507" width="2400" height="2" fill="#efe6d0"/><rect y="1515" width="2400" height="2" fill="#efe6d0"/><rect y="1523" width="2400" height="2" fill="#efe6d0"/><rect y="1531" width="2400" height="2" fill="#efe6d0"/><rect y="1539" width="2400" height="2" fill="#efe6d0"/><rect y="1547" width="2400" height="2" fill="#efe6d0"/><rect y="1555" width="2400" height="2" fill="#efe6d0"/><rect y="1563" width="2400" height="2" fill="#efe6d0"/><rect y="1571" width="2400" height="2" fill="#efe6d0"/><rect y="1579" width="2400" height="2" fill="#efe6d0"/><rect y="1587" width="2400" height="2" fill="#efe6d0"/><rect y="1595" width="2400" height="2" fill="#efe6d0"/><rect y="1603" width="2400" height="2" fill="#efe6d0"/><rect y="1611" width="2400" height="2" fill="#efe6d0"/><rect y="1619" width="2400" height="2" fill="#efe6d0"/><rect y="1627" width="2400" height="2" fill="#efe6d0"/><rect y="1635" width="2400" height="2" fill="#efe6d0"/><rect y="1643" width="2400" height="2" fill="#efe6d0"/><rect y="1651" width="2400" height="2" fill="#efe6d0"/><rect y="1659" width="2400" height="2" fill="#efe6d0"/><rect y="1667" width="2400" height="2" fill="#efe6d0"/><rect y="1675" width="2400" height="2" fill="#efe6d0"/><rect y="1683" width="2400" height="2" fill="#efe6d0"/><rect y="1691" width="2400" height="2" fill="#efe6d0"/><rect y="1699" width="2400" height="2" fill="#efe6d0"/><rect y="1707" width="2400" height="2" fill="#efe6d0"/><rect y="1715" width="2400" height="2" fill="#efe6d0"/><rect y="1723" width="2400" height="2" fill="#efe6d0"/><rect y="1731" width="2400" height="2" fill="#efe6d0"/><rect y="1739" width="2400" height="2" fill="#efe6d0"/><rect y="1747" width="2400" height="2" fill="#efe6d0"/><rect y="1755" width="2400" height="2" fill="#efe6d0"/><rect y="1763" width="2400" height="2" fill="#efe6d0"/><rect y="1771" width="2400" height="2" fill="#efe6d0"/><rect y="1779" width="2400" height="2" fill="#efe6d0"/><rect y="1787" width="2400" height="2" fill="#efe6d0"/><rect y="1795" width="2400" height="2" fill="#efe6d0"/><rect y="1803" width="2400" height="2" fill="#efe6d0"/><rect y="1811" width="2400" height="2" fill="#efe6d0"/><rect y="1819" width="2400" height="2" fill="#efe6d0"/><rect y="1827" width="2400" height="2" fill="#efe6d0"/><rect y="1835" width="2400" height="2" fill="#efe6d0"/><rect y="1843" width="2400" height="2" fill="#efe6d0"/><rect y="1851" width="2400" height="2" fill="#efe6d0"/><rect y="1859" width="2400" height="2" fill="#efe6d0"/><rect y="1867" width="2400" height="2" fill="#efe6d0"/><rect y="1875" width="2400" height="2" fill="#efe6d0"/><rect y="1883" width="2400" height="2" fill="#efe6d0"/><rect y="1891" width="2400" height="2" fill="#efe6d0"/><rect y="1899" width="2400" height="2" fill="#efe6d0"/><rect y="1907" width="2400" height="2" fill="#efe6d0"/><rect y="1915" width="2400" height="2" fill="#efe6d0"/><rect y="1923" width="2400" height="2" fill="#efe6d0"/><rect y="1931" width="2400" height="2" fill="#efe6d0"/><rect y="1939" width="2400" height="2" fill="#efe6d0"/><rect y="1947" width="2400" height="2" fill="#efe6d0"/><rect y="1955" width="2400" height="2" fill="#efe6d0"/><rect y="1963" width="2400" height="2" fill="#efe6d0"/><rect y="1971" width="2400" height="2" fill="#efe6d0"/><rect y="1979" width="2400" height="2" fill="#efe6d0"/><rect y="1987" width="2400" height="2" fill="#efe6d0"/><rect y="1995" width="2400" height="2" fill="#efe6d0"/><rect y="2003" width="2400" height="2" fill="#efe6d0"/><rect y="2011" width="2400" height="2" fill="#efe6d0"/><rect y="2019" width="2400" height="2" fill="#efe6d0"/><rect y="2027" width="2400" height="2" fill="#efe6d0"/><rect y="2035" width="2400" height="2" fill="#efe6d0"/><rect y="2043" width="2400" height="2" fill="#efe6d0"/><rect y="2051" width="2400" height="2" fill="#efe6d0"/><rect y="2059" width="2400" height="2" fill="#efe6d0"/><rect y="2067" width="2400" height="2" fill="#efe6d0"/><rect y="2075" width="2400" height="2" fill="#efe6d0"/><rect y="2083" width="2400" height="2" fill="#efe6d0"/><rect y="2091" width="2400" height="2" fill="#efe6d0"/><rect y="2099" width="2400" height="2" fill="#efe6d0"/><rect y="2107" width="2400" height="2" fill="#efe6d0"/><rect y="2115" width="2400" height="2" fill="#efe6d0"/><rect y="2123" width="2400" height="2" fill="#efe6d0"/><rect y="2131" width="2400" height="2" fill="#efe6d0"/><rect y="2139" width="2400" height="2" fill="#efe6d0"/><rect y="2147" width="2400" height="2" fill="#efe6d0"/><rect y="2155" width="2400" height="2" fill="#efe6d0"/><rect y="2163" width="2400" height="2" fill="#efe6d0"/><rect y="2171" width="2400" height="2" fill="#efe6d0"/><rect y="2179" width="2400" height="2" fill="#efe6d0"/><rect y="2187" width="2400" height="2" fill="#efe6d0"/><rect y="2195" width="2400" height="2" fill="#efe6d0"/><rect y="2203" width="2400" height="2" fill="#efe6d0"/><rect y="2211" width="2400" height="2" fill="#efe6d0"/><rect y="2219" width="2400" height="2" fill="#efe6d0"/><rect y="2227" width="2400" height="2" fill="#efe6d0"/><rect y="2235" width="2400" height="2" fill="#efe6d0"/><rect y="2243" width="2400" height="2" fill="#efe6d0"/><rect y="2251" width="2400" height="2" fill="#efe6d0"/><rect y="2259" width="2400" height="2" fill="#efe6d0"/><rect y="2267" width="2400" height="2" fill="#efe6d0"/><rect y="2275" width="2400" height="2" fill="#efe6d0"/><rect y="2283" width="2400" height="2" fill="#efe6d0"/><rect y="2291" width="2400" height="2" fill="#efe6d0"/><rect y="2299" width="2400" height="2" fill="#efe6d0"/><rect y="2307" width="2400" height="2" fill="#efe6d0"/><rect y="2315" width="2400" height="2" fill="#efe6d0"/><rect y="2323" width="2400" height="2" fill="#efe6d0"/><rect y="2331" width="2400" height="2" fill="#efe6d0"/><rect y="2339" width="2400" height="2" fill="#efe6d0"/><rect y="2347" width="2400" height="2" fill="#efe6d0"/><rect y="2355" width="2400" height="2" fill="#efe6d0"/><rect y="2363" width="2400" height="2" fill="#efe6d0"/><rect y="2371" width="2400" height="2" fill="#efe6d0"/><rect y="2379" width="2400" height="2" fill="#efe6d0"/><rect y="2387" width="2400" height="2" fill="#efe6d0"/><rect y="2395" width="2400" height="2" fill="#efe6d0"/><rect y="2403" width="2400" height="2" fill="#efe6d0"/><rect y="2411" width="2400" height="2" fill="#efe6d0"/><rect y="2419" width="2400" height="2" fill="#efe6d0"/><rect y="2427" width="2400" height="2" fill="#efe6d0"/><rect y="2435" width="2400" height="2" fill="#efe6d0"/><rect y="2443" width="2400" height="2" fill="#efe6d0"/><rect y="2451" width="2400" height="2" fill="#efe6d0"/><rect y="2459" width="2400" height="2" fill="#efe6d0"/><rect y="2467" width="2400" height="2" fill="#efe6d0"/><rect y="2475" width="2400" height="2" fill="#efe6d0"/><rect y="2483" width="2400" height="2" fill="#efe6d0"/><rect y="2491" width="2400" height="2" fill="#efe6d0"/><rect y="2499" width="2400" height="2" fill="#efe6d0"/><rect y="2507" width="2400" height="2" fill="#efe6d0"/><rect y="2515" width="2400" height="2" fill="#efe6d0"/><rect y="2523" width="2400" height="2" fill="#efe6d0"/><rect y="2531" width="2400" height="2" fill="#efe6d0"/><rect y="2539" width="2400" height="2" fill="#efe6d0"/><rect y="2547" width="2400" height="2" fill="#efe6d0"/><rect y="2555" width="2400" height="2" fill="#efe6d0"/><rect y="2563" width="2400" height="2" fill="#efe6d0"/><rect y="2571" width="2400" height="2" fill="#efe6d0"/><rect y="2579" width="2400" height="2" fill="#efe6d0"/><rect y="2587" width="2400" height="2" fill="#efe6d0"/><rect y="2595" width="2400" height="2" fill="#efe6d0"/><rect y="2603" width="2400" height="2" fill="#efe6d0"/><rect y="2611" width="2400" height="2" fill="#efe6d0"/><rect y="2619" width="2400" height="2" fill="#efe6d0"/><rect y="2627" width="2400" height="2" fill="#efe6d0"/><rect y="2635" width="2400" height="2" fill="#efe6d0"/><rect y="2643" width="2400" height="2" fill="#efe6d0"/><rect y="2651" width="2400" height="2" fill="#efe6d0"/><rect y="2659" width="2400" height="2" fill="#efe6d0"/><rect y="2667" width="2400" height="2" fill="#efe6d0"/><rect y="2675" width="2400" height="2" fill="#efe6d0"/><rect y="2683" width="2400" height="2" fill="#efe6d0"/><rect y="2691" width="2400" height="2" fill="#efe6d0"/><rect y="2699" width="2400" height="2" fill="#efe6d0"/><rect y="2707" width="2400" height="2" fill="#efe6d0"/><rect y="2715" width="2400" height="2" fill="#efe6d0"/><rect y="2723" width="2400" height="2" fill="#efe6d0"/><rect y="2731" width="2400" height="2" fill="#efe6d0"/><rect y="2739" width="2400" height="2" fill="#efe6d0"/><rect y="2747" width="2400" height="2" fill="#efe6d0"/><rect y="2755" width="2400" height="2" fill="#efe6d0"/><rect y="2763" width="2400" height="2" fill="#efe6d0"/><rect y="2771" width="2400" height="2" fill="#efe6d0"/><rect y="2779" width="2400" height="2" fill="#efe6d0"/><rect y="2787" width="2400" height="2" fill="#efe6d0"/><rect y="2795" width="2400" height="2" fill="#efe6d0"/><rect y="2803" width="2400" height="2" fill="#efe6d0"/><rect y="2811" width="2400" height="2" fill="#efe6d0"/><rect y="2819" width="2400" height="2" fill="#efe6d0"/><rect y="2827" width="2400" height="2" fill="#efe6d0"/><rect y="2835" width="2400" height="2" fill="#efe6d0"/><rect y="2843" width="2400" height="2" fill="#efe6d0"/><rect y="2851" width="2400" height="2" fill="#efe6d0"/><rect y="2859" width="2400" height="2" fill="#efe6d0"/><rect y="2867" width="2400" height="2" fill="#efe6d0"/><rect y="2875" width="2400" height="2" fill="#efe6d0"/><rect y="2883" width="2400" height="2" fill="#efe6d0"/><rect y="2891" width="2400" height="2" fill="#efe6d0"/><rect y="2899" width="2400" height="2" fill="#efe6d0"/><rect y="2907" width="2400" height="2" fill="#efe6d0"/><rect y="2915" width="2400" height="2" fill="#efe6d0"/><rect y="2923" width="2400" height="2" fill="#efe6d0"/><rect y="2931" width="2400" height="2" fill="#efe6d0"/><rect y="2939" width="2400" height="2" fill="#efe6d0"/><rect y="2947" width="2400" height="2" fill="#efe6d0"/><rect y="2955" width="2400" height="2" fill="#efe6d0"/><rect y="2963" width="2400" height="2" fill="#efe6d0"/><rect y="2971" width="2400" height="2" fill="#efe6d0"/><rect y="2979" width="2400" height="2" fill="#efe6d0"/><rect y="2987" width="2400" height="2" fill="#efe6d0"/><rect y="2995" width="2400" height="2" fill="#efe6d0"/></g><rect x="88" y="88" width="2224" height="2824" fill="none" stroke="#3a2c1a" stroke-width="4" opacity="0.2"/><rect x="94" y="94" width="2212" height="2812" fill="none" stroke="#fff6e0" stroke-width="2" opacity="0.25"/><circle cx="795.1" cy="430.4" r="6.1" fill="#8a5a2e" opacity="0.095"/><circle cx="262.3" cy="488.4" r="5.1" fill="#8a5a2e" opacity="0.093"/><circle cx="718.6" cy="124.8" r="15" fill="#8a5a2e" opacity="0.120"/><circle cx="1776.8" cy="383.3" r="9.3" fill="#8a5a2e" opacity="0.053"/><circle cx="1184.1" cy="1299.7" r="3.8" fill="#8a5a2e" opacity="0.047"/><circle cx="919.2" cy="2323.1" r="5.2" fill="#8a5a2e" opacity="0.123"/><circle cx="1456.8" cy="881.9" r="5.1" fill="#8a5a2e" opacity="0.105"/><circle cx="683" cy="1770" r="4.7" fill="#8a5a2e" opacity="0.129"/><circle cx="1961.8" cy="1865.3" r="4.9" fill="#8a5a2e" opacity="0.105"/><circle cx="314.6" cy="466.6" r="10.3" fill="#8a5a2e" opacity="0.051"/><circle cx="2182.7" cy="2392" r="8.1" fill="#8a5a2e" opacity="0.060"/><circle cx="672.4" cy="2385" r="12.5" fill="#8a5a2e" opacity="0.110"/><circle cx="470.5" cy="2117.6" r="4.2" fill="#8a5a2e" opacity="0.073"/><circle cx="898.2" cy="1737.2" r="12.8" fill="#8a5a2e" opacity="0.097"/><circle cx="2147.4" cy="842.2" r="7.1" fill="#8a5a2e" opacity="0.055"/><circle cx="1046.3" cy="1636.3" r="11.6" fill="#8a5a2e" opacity="0.125"/><circle cx="490.4" cy="1228.9" r="11.3" fill="#8a5a2e" opacity="0.099"/><circle cx="264.7" cy="2865.9" r="12.3" fill="#8a5a2e" opacity="0.055"/><circle cx="784.9" cy="1004.3" r="8.8" fill="#8a5a2e" opacity="0.107"/><circle cx="1361.9" cy="606.6" r="11.9" fill="#8a5a2e" opacity="0.059"/><circle cx="2212.3" cy="1963.8" r="9.3" fill="#8a5a2e" opacity="0.070"/><circle cx="2225.8" cy="157.3" r="11.8" fill="#8a5a2e" opacity="0.064"/><circle cx="1048.3" cy="1023.6" r="13.2" fill="#8a5a2e" opacity="0.082"/><circle cx="1556.6" cy="2514.1" r="15.9" fill="#8a5a2e" opacity="0.105"/><circle cx="2250.9" cy="2749.2" r="13.3" fill="#8a5a2e" opacity="0.083"/><circle cx="489.4" cy="602.5" r="14.4" fill="#8a5a2e" opacity="0.079"/><circle cx="1932.3" cy="2287" r="5" fill="#8a5a2e" opacity="0.096"/><circle cx="1013.3" cy="797" r="10.8" fill="#8a5a2e" opacity="0.095"/><circle cx="1350.4" cy="1275.9" r="6.6" fill="#8a5a2e" opacity="0.060"/><circle cx="1218.9" cy="606.9" r="14.9" fill="#8a5a2e" opacity="0.123"/><rect width="2400" height="3000" fill="url(#a61-vig)"/></svg></svg>