<svg xmlns="http://www.w3.org/2000/svg" width="2400" height="1800" viewBox="0 0 2400 1800"><rect width="2400" height="1800" fill="#e3dccd"/><rect x="160" y="240" width="560" height="1060" fill="none" stroke="#cabfa9" stroke-width="10"/><rect x="200" y="280" width="480" height="980" fill="none" stroke="#cabfa9" stroke-width="5"/><rect x="1680" y="240" width="560" height="1060" fill="none" stroke="#cabfa9" stroke-width="10"/><rect x="1720" y="280" width="480" height="980" fill="none" stroke="#cabfa9" stroke-width="5"/><rect y="1380" width="2400" height="420" fill="#a98f6d"/><line x1="0" y1="1380" x2="-70" y2="1800" stroke="#00000018" stroke-width="6"/><line x1="190" y1="1380" x2="120" y2="1800" stroke="#00000018" stroke-width="6"/><line x1="380" y1="1380" x2="310" y2="1800" stroke="#00000018" stroke-width="6"/><line x1="570" y1="1380" x2="500" y2="1800" stroke="#00000018" stroke-width="6"/><line x1="760" y1="1380" x2="690" y2="1800" stroke="#00000018" stroke-width="6"/><line x1="950" y1="1380" x2="880" y2="1800" stroke="#00000018" stroke-width="6"/><line x1="1140" y1="1380" x2="1070" y2="1800" stroke="#00000018" stroke-width="6"/><line x1="1330" y1="1380" x2="1260" y2="1800" stroke="#00000018" stroke-width="6"/><line x1="1520" y1="1380" x2="1450" y2="1800" stroke="#00000018" stroke-width="6"/><line x1="1710" y1="1380" x2="1640" y2="1800" stroke="#00000018" stroke-width="6"/><line x1="1900" y1="1380" x2="1830" y2="1800" stroke="#00000018" stroke-width="6"/><line x1="2090" y1="1380" x2="2020" y2="1800" stroke="#00000018" stroke-width="6"/><line x1="2280" y1="1380" x2="2210" y2="1800" stroke="#00000018" stroke-width="6"/><rect y="1364" width="2400" height="18" fill="#d3c8b2"/><path d="M700,1500 L1700,1500 L1860,1800 L540,1800 Z" fill="#b3502f" opacity="0.75"/><path d="M760,1540 L1640,1540 L1760,1760 L640,1760 Z" fill="none" stroke="#f4ecdd" stroke-width="10" opacity="0.8"/><rect x="880" y="1180" width="640" height="40" rx="8" fill="#6f5436"/><rect x="920" y="1220" width="44" height="240" fill="#5e4629"/><rect x="1436" y="1220" width="44" height="240" fill="#5e4629"/><path d="M1160,1180 q -14,-90 40,-160 M1200,1180 q 4,-120 -10,-200 M1230,1180 q 30,-90 90,-130" stroke="#5d7052" stroke-width="12" fill="none" stroke-linecap="round"/><path d="M1150,1180 L1250,1180 L1230,1080 L1170,1080 Z" fill="#c9b98e" transform="translate(0,0)"/><path d="M1155,1060 h90 l-12,124 h-66 Z" fill="#b98a5a"/><rect x="1380" y="1120" width="18" height="60" fill="#8f6b3d"/><ellipse cx="1389" cy="1116" rx="16" ry="10" fill="#c9a227"/><defs><filter id="a26h-sh" x="-30%" y="-30%" width="160%" height="160%"><feGaussianBlur stdDeviation="16"/></filter></defs><rect x="950" y="258" width="528" height="648" fill="#000" opacity="0.28" filter="url(#a26h-sh)"/><rect x="936" y="236" width="528" height="648" fill="#33291f"/><rect x="951.6" y="251.6" width="496.8" height="616.8" fill="none" stroke="#00000055" stroke-width="3"/><rect x="960" y="260" width="480" height="600" fill="#f6f2ea"/><svg x="996" y="296" width="408" height="528" viewBox="0 0 2400 3000" preserveAspectRatio="xMidYMid slice"><rect width="2400" height="3000" fill="#e9dcbc"/><radialGradient id="a26-vig" cx="50%" cy="42%" r="80%"><stop offset="55%" stop-color="#000" stop-opacity="0"/><stop offset="100%" stop-color="#000" stop-opacity="0.15"/></radialGradient><rect width="2400" height="3000" fill="url(#a26-vig)"/><circle cx="2090.7" cy="1445.7" r="4.5" fill="#2c4661" opacity="0.053"/><circle cx="1307.5" cy="165.4" r="4" fill="#2c4661" opacity="0.039"/><circle cx="1501.8" cy="1660.8" r="3.8" fill="#2c4661" opacity="0.043"/><circle cx="541.8" cy="2096.7" r="1.8" fill="#2c4661" opacity="0.064"/><circle cx="1569.8" cy="1179.8" r="1.7" fill="#2c4661" opacity="0.071"/><circle cx="291.8" cy="1338.9" r="3.1" fill="#2c4661" opacity="0.054"/><circle cx="2133.2" cy="1171.7" r="3.7" fill="#2c4661" opacity="0.051"/><circle cx="1545.5" cy="2494.1" r="3.3" fill="#2c4661" opacity="0.045"/><circle cx="46.3" cy="1635.3" r="2.4" fill="#2c4661" opacity="0.031"/><circle cx="1747.2" cy="890.8" r="4.3" fill="#2c4661" opacity="0.058"/><circle cx="387.7" cy="324.3" r="4.3" fill="#2c4661" opacity="0.056"/><circle cx="1362.6" cy="2486.8" r="3.3" fill="#2c4661" opacity="0.076"/><circle cx="1545.2" cy="605.6" r="2.1" fill="#2c4661" opacity="0.050"/><circle cx="2251.6" cy="1615.6" r="2.8" fill="#2c4661" opacity="0.070"/><circle cx="950.3" cy="1640.2" r="3.1" fill="#2c4661" opacity="0.038"/><circle cx="1379.8" cy="2872.3" r="4.2" fill="#2c4661" opacity="0.080"/><circle cx="1325.1" cy="803.2" r="2.3" fill="#2c4661" opacity="0.060"/><circle cx="185.4" cy="1395.3" r="1.6" fill="#2c4661" opacity="0.060"/><circle cx="762.6" cy="1748" r="3" fill="#2c4661" opacity="0.033"/><circle cx="1990.9" cy="608.3" r="2.8" fill="#2c4661" opacity="0.040"/><circle cx="1312.5" cy="2543.5" r="2.2" fill="#2c4661" opacity="0.057"/><circle cx="748" cy="1993.8" r="3.8" fill="#2c4661" opacity="0.043"/><circle cx="2250" cy="524.7" r="4.1" fill="#2c4661" opacity="0.072"/><circle cx="1785.2" cy="141.6" r="3.7" fill="#2c4661" opacity="0.069"/><circle cx="677.1" cy="2623.2" r="4.5" fill="#2c4661" opacity="0.039"/><circle cx="185.3" cy="697.9" r="3.5" fill="#2c4661" opacity="0.068"/><circle cx="456.4" cy="2127.4" r="4.4" fill="#2c4661" opacity="0.074"/><circle cx="570.5" cy="952" r="1.8" fill="#2c4661" opacity="0.053"/><circle cx="274.2" cy="1623.5" r="2.7" fill="#2c4661" opacity="0.032"/><circle cx="856.3" cy="1872.3" r="4" fill="#2c4661" opacity="0.040"/><circle cx="2037.3" cy="2077" r="2.1" fill="#2c4661" opacity="0.055"/><circle cx="1064.6" cy="2304" r="3.4" fill="#2c4661" opacity="0.032"/><circle cx="722.6" cy="2830.9" r="1.9" fill="#2c4661" opacity="0.042"/><circle cx="1367.9" cy="1236.1" r="3.3" fill="#2c4661" opacity="0.076"/><circle cx="805.4" cy="1985.3" r="2.9" fill="#2c4661" opacity="0.056"/><circle cx="1447.1" cy="2318" r="2.1" fill="#2c4661" opacity="0.055"/><circle cx="1454.3" cy="2732.3" r="1.6" fill="#2c4661" opacity="0.051"/><circle cx="657.1" cy="1788.7" r="1.7" fill="#2c4661" opacity="0.064"/><circle cx="1215" cy="1715.8" r="2.5" fill="#2c4661" opacity="0.062"/><circle cx="2088.3" cy="282.1" r="4" fill="#2c4661" opacity="0.039"/><circle cx="1604.3" cy="2358.9" r="3.5" fill="#2c4661" opacity="0.051"/><circle cx="219.1" cy="680.8" r="3.3" fill="#2c4661" opacity="0.048"/><circle cx="1505.3" cy="2140.9" r="3.5" fill="#2c4661" opacity="0.077"/><circle cx="1272.8" cy="2180.8" r="3.4" fill="#2c4661" opacity="0.077"/><circle cx="98.9" cy="1879.7" r="3.2" fill="#2c4661" opacity="0.058"/><circle cx="242.4" cy="2406.5" r="3.2" fill="#2c4661" opacity="0.075"/><circle cx="1737.9" cy="1267.8" r="1.9" fill="#2c4661" opacity="0.073"/><circle cx="925.5" cy="1549.3" r="2" fill="#2c4661" opacity="0.054"/><circle cx="1838.6" cy="1963.4" r="1.9" fill="#2c4661" opacity="0.059"/><circle cx="2325.9" cy="1842.2" r="2.7" fill="#2c4661" opacity="0.060"/><circle cx="1180.1" cy="857.4" r="3.1" fill="#2c4661" opacity="0.046"/><circle cx="1393.8" cy="2673.5" r="4.4" fill="#2c4661" opacity="0.043"/><circle cx="1634.6" cy="1912.2" r="1.6" fill="#2c4661" opacity="0.066"/><circle cx="222.6" cy="2302.5" r="2.8" fill="#2c4661" opacity="0.054"/><circle cx="204.9" cy="1884.3" r="2.1" fill="#2c4661" opacity="0.046"/><circle cx="966.8" cy="1741.4" r="2.6" fill="#2c4661" opacity="0.040"/><circle cx="370.5" cy="743.8" r="4.4" fill="#2c4661" opacity="0.035"/><circle cx="631.5" cy="1371.1" r="2.5" fill="#2c4661" opacity="0.071"/><circle cx="762.7" cy="589.2" r="1.7" fill="#2c4661" opacity="0.075"/><circle cx="648.9" cy="2772" r="2.2" fill="#2c4661" opacity="0.079"/><circle cx="1371.6" cy="268.7" r="4.3" fill="#2c4661" opacity="0.034"/><circle cx="2217.9" cy="1484" r="4" fill="#2c4661" opacity="0.078"/><circle cx="778.4" cy="1260.9" r="4.3" fill="#2c4661" opacity="0.058"/><circle cx="2244" cy="2170" r="4.1" fill="#2c4661" opacity="0.074"/><circle cx="1572.2" cy="2660.6" r="4" fill="#2c4661" opacity="0.078"/><circle cx="1434.6" cy="1660.3" r="3" fill="#2c4661" opacity="0.053"/><circle cx="241.5" cy="616.7" r="2.6" fill="#2c4661" opacity="0.034"/><circle cx="1628.6" cy="1901.9" r="2.5" fill="#2c4661" opacity="0.057"/><circle cx="1036.8" cy="365.3" r="2.8" fill="#2c4661" opacity="0.046"/><circle cx="654.9" cy="1113.7" r="4.1" fill="#2c4661" opacity="0.054"/><circle cx="2171.4" cy="1490.1" r="1.7" fill="#2c4661" opacity="0.047"/><circle cx="1473.8" cy="836.9" r="2.4" fill="#2c4661" opacity="0.062"/><circle cx="2122.1" cy="2202.4" r="2.3" fill="#2c4661" opacity="0.062"/><circle cx="242.7" cy="871.2" r="4.1" fill="#2c4661" opacity="0.049"/><circle cx="960.9" cy="1044.1" r="3.7" fill="#2c4661" opacity="0.051"/><circle cx="684" cy="2327.1" r="1.6" fill="#2c4661" opacity="0.062"/><circle cx="1990.5" cy="2892.7" r="3" fill="#2c4661" opacity="0.058"/><circle cx="64.7" cy="2562.9" r="3.9" fill="#2c4661" opacity="0.049"/><circle cx="2065.5" cy="2782.2" r="3.5" fill="#2c4661" opacity="0.045"/><circle cx="1703.2" cy="1425.1" r="3.1" fill="#2c4661" opacity="0.073"/><rect x="210" y="300" width="1980" height="8.9" fill="#2c4661"/><rect x="210" y="308.4" width="1980" height="8.9" fill="#b3502f"/><rect x="210" y="316.8" width="1980" height="8.9" fill="#2c4661"/><rect x="210" y="325.2" width="1980" height="8.9" fill="#c9b98e"/><rect x="210" y="333.6" width="1980" height="8.9" fill="#2c4661"/><rect x="210" y="885" width="1980" height="8.9" fill="#2c4661"/><rect x="210" y="893.4" width="1980" height="8.9" fill="#b3502f"/><rect x="210" y="901.8" width="1980" height="8.9" fill="#2c4661"/><rect x="210" y="910.2" width="1980" height="8.9" fill="#c9b98e"/><rect x="210" y="918.6" width="1980" height="8.9" fill="#2c4661"/><rect x="210" y="1470" width="1980" height="8.9" fill="#2c4661"/><rect x="210" y="1478.4" width="1980" height="8.9" fill="#b3502f"/><rect x="210" y="1486.8" width="1980" height="8.9" fill="#2c4661"/><rect x="210" y="1495.2" width="1980" height="8.9" fill="#c9b98e"/><rect x="210" y="1503.6" width="1980" height="8.9" fill="#2c4661"/><rect x="210" y="2055" width="1980" height="8.9" fill="#2c4661"/><rect x="210" y="2063.4" width="1980" height="8.9" fill="#b3502f"/><rect x="210" y="2071.8" width="1980" height="8.9" fill="#2c4661"/><rect x="210" y="2080.2" width="1980" height="8.9" fill="#c9b98e"/><rect x="210" y="2088.6" width="1980" height="8.9" fill="#2c4661"/><rect x="210" y="2640" width="1980" height="8.9" fill="#2c4661"/><rect x="210" y="2648.4" width="1980" height="8.9" fill="#b3502f"/><rect x="210" y="2656.8" width="1980" height="8.9" fill="#2c4661"/><rect x="210" y="2665.2" width="1980" height="8.9" fill="#c9b98e"/><rect x="210" y="2673.6" width="1980" height="8.9" fill="#2c4661"/><path d="M0 0 Q 72.4 -112.6 0 -296.3 Q -72.4 -112.6 0 0 Z" fill="#2c4661" opacity="1" transform="translate(408 809.7) rotate(-58)"/><path d="M0 0 Q 72.4 -132.7 0 -349.3 Q -72.4 -132.7 0 0 Z" fill="#b3502f" opacity="1" transform="translate(408 809.7) rotate(-29)"/><path d="M0 0 Q 72.4 -152.9 0 -402.4 Q -72.4 -152.9 0 0 Z" fill="#2c4661" opacity="1" transform="translate(408 809.7) rotate(0)"/><path d="M0 0 Q 72.4 -132.7 0 -349.3 Q -72.4 -132.7 0 0 Z" fill="#b3502f" opacity="1" transform="translate(408 809.7) rotate(29)"/><path d="M0 0 Q 72.4 -112.6 0 -296.3 Q -72.4 -112.6 0 0 Z" fill="#2c4661" opacity="1" transform="translate(408 809.7) rotate(58)"/><path d="M287.3,809.7 Q408,946.5 528.7,809.7 Z" fill="#2c4661"/><path d="M0 0 Q 65.4 -124.3 0 -327 Q -65.4 -124.3 0 0 Z" fill="#b3502f" opacity="1" transform="translate(804 809.7) rotate(0)"/><line x1="804" y1="809.7" x2="804" y2="856.5" stroke="#2c4661" stroke-width="20.4"/><path d="M0 0 Q 75.6 -117.5 0 -309.2 Q -75.6 -117.5 0 0 Z" fill="#2c4661" opacity="1" transform="translate(1200 809.7) rotate(-58)"/><path d="M0 0 Q 75.6 -138.5 0 -364.6 Q -75.6 -138.5 0 0 Z" fill="#b3502f" opacity="1" transform="translate(1200 809.7) rotate(-29)"/><path d="M0 0 Q 75.6 -159.6 0 -419.9 Q -75.6 -159.6 0 0 Z" fill="#2c4661" opacity="1" transform="translate(1200 809.7) rotate(0)"/><path d="M0 0 Q 75.6 -138.5 0 -364.6 Q -75.6 -138.5 0 0 Z" fill="#b3502f" opacity="1" transform="translate(1200 809.7) rotate(29)"/><path d="M0 0 Q 75.6 -117.5 0 -309.2 Q -75.6 -117.5 0 0 Z" fill="#2c4661" opacity="1" transform="translate(1200 809.7) rotate(58)"/><path d="M1074,809.7 Q1200,952.5 1326,809.7 Z" fill="#2c4661"/><path d="M0 0 Q 60.1 -114.1 0 -300.3 Q -60.1 -114.1 0 0 Z" fill="#b3502f" opacity="1" transform="translate(1596 809.7) rotate(0)"/><line x1="1596" y1="809.7" x2="1596" y2="856.5" stroke="#2c4661" stroke-width="18.8"/><path d="M0 0 Q 74.9 -116.4 0 -306.3 Q -74.9 -116.4 0 0 Z" fill="#2c4661" opacity="1" transform="translate(1992 809.7) rotate(-58)"/><path d="M0 0 Q 74.9 -133.1 0 -350.2 Q -74.9 -133.1 0 0 Z" fill="#b3502f" opacity="1" transform="translate(1992 809.7) rotate(-34.8)"/><path d="M0 0 Q 74.9 -149.7 0 -394.1 Q -74.9 -149.7 0 0 Z" fill="#2c4661" opacity="1" transform="translate(1992 809.7) rotate(-11.6)"/><path d="M0 0 Q 74.9 -149.7 0 -394.1 Q -74.9 -149.7 0 0 Z" fill="#b3502f" opacity="1" transform="translate(1992 809.7) rotate(11.6)"/><path d="M0 0 Q 74.9 -133.1 0 -350.2 Q -74.9 -133.1 0 0 Z" fill="#2c4661" opacity="1" transform="translate(1992 809.7) rotate(34.8)"/><path d="M0 0 Q 74.9 -116.4 0 -306.3 Q -74.9 -116.4 0 0 Z" fill="#b3502f" opacity="1" transform="translate(1992 809.7) rotate(58)"/><path d="M1867.2,809.7 Q1992,951.1 2116.8,809.7 Z" fill="#2c4661"/><line x1="408" y1="1394.7" x2="408" y2="1182.9" stroke="#2c4661" stroke-width="23.1"/><line x1="408" y1="1182.9" x2="255.7" y2="1108.6" stroke="#2c4661" stroke-width="17.3" stroke-linecap="round"/><circle cx="255.7" cy="1108.6" r="17.3" fill="#b3502f"/><line x1="408" y1="1182.9" x2="269.2" y2="1057.9" stroke="#2c4661" stroke-width="17.3" stroke-linecap="round"/><circle cx="269.2" cy="1057.9" r="17.3" fill="#b3502f"/><line x1="408" y1="1182.9" x2="299.8" y2="1009.8" stroke="#2c4661" stroke-width="17.3" stroke-linecap="round"/><circle cx="299.8" cy="1009.8" r="17.3" fill="#b3502f"/><line x1="408" y1="1182.9" x2="347" y2="970" stroke="#2c4661" stroke-width="17.3" stroke-linecap="round"/><circle cx="347" cy="970" r="17.3" fill="#b3502f"/><line x1="408" y1="1182.9" x2="408" y2="944.1" stroke="#2c4661" stroke-width="17.3" stroke-linecap="round"/><circle cx="408" cy="944.1" r="17.3" fill="#b3502f"/><line x1="408" y1="1182.9" x2="469" y2="970" stroke="#2c4661" stroke-width="17.3" stroke-linecap="round"/><circle cx="469" cy="970" r="17.3" fill="#b3502f"/><line x1="408" y1="1182.9" x2="516.2" y2="1009.8" stroke="#2c4661" stroke-width="17.3" stroke-linecap="round"/><circle cx="516.2" cy="1009.8" r="17.3" fill="#b3502f"/><line x1="408" y1="1182.9" x2="546.8" y2="1057.9" stroke="#2c4661" stroke-width="17.3" stroke-linecap="round"/><circle cx="546.8" cy="1057.9" r="17.3" fill="#b3502f"/><line x1="408" y1="1182.9" x2="560.3" y2="1108.6" stroke="#2c4661" stroke-width="17.3" stroke-linecap="round"/><circle cx="560.3" cy="1108.6" r="17.3" fill="#b3502f"/><line x1="804" y1="1394.7" x2="804" y2="1180.5" stroke="#2c4661" stroke-width="23.4"/><line x1="804" y1="1180.5" x2="650" y2="1105.4" stroke="#2c4661" stroke-width="17.5" stroke-linecap="round"/><circle cx="650" cy="1105.4" r="17.5" fill="#b3502f"/><line x1="804" y1="1180.5" x2="663.7" y2="1054.2" stroke="#2c4661" stroke-width="17.5" stroke-linecap="round"/><circle cx="663.7" cy="1054.2" r="17.5" fill="#b3502f"/><line x1="804" y1="1180.5" x2="694.6" y2="1005.5" stroke="#2c4661" stroke-width="17.5" stroke-linecap="round"/><circle cx="694.6" cy="1005.5" r="17.5" fill="#b3502f"/><line x1="804" y1="1180.5" x2="742.3" y2="965.3" stroke="#2c4661" stroke-width="17.5" stroke-linecap="round"/><circle cx="742.3" cy="965.3" r="17.5" fill="#b3502f"/><line x1="804" y1="1180.5" x2="804" y2="939.1" stroke="#2c4661" stroke-width="17.5" stroke-linecap="round"/><circle cx="804" cy="939.1" r="17.5" fill="#b3502f"/><line x1="804" y1="1180.5" x2="865.7" y2="965.3" stroke="#2c4661" stroke-width="17.5" stroke-linecap="round"/><circle cx="865.7" cy="965.3" r="17.5" fill="#b3502f"/><line x1="804" y1="1180.5" x2="913.4" y2="1005.5" stroke="#2c4661" stroke-width="17.5" stroke-linecap="round"/><circle cx="913.4" cy="1005.5" r="17.5" fill="#b3502f"/><line x1="804" y1="1180.5" x2="944.3" y2="1054.2" stroke="#2c4661" stroke-width="17.5" stroke-linecap="round"/><circle cx="944.3" cy="1054.2" r="17.5" fill="#b3502f"/><line x1="804" y1="1180.5" x2="958" y2="1105.4" stroke="#2c4661" stroke-width="17.5" stroke-linecap="round"/><circle cx="958" cy="1105.4" r="17.5" fill="#b3502f"/><line x1="1200" y1="1394.7" x2="1200" y2="1190.3" stroke="#2c4661" stroke-width="22.3"/><line x1="1200" y1="1190.3" x2="1053.1" y2="1118.7" stroke="#2c4661" stroke-width="16.7" stroke-linecap="round"/><circle cx="1053.1" cy="1118.7" r="16.7" fill="#b3502f"/><line x1="1200" y1="1190.3" x2="1066.1" y2="1069.8" stroke="#2c4661" stroke-width="16.7" stroke-linecap="round"/><circle cx="1066.1" cy="1069.8" r="16.7" fill="#b3502f"/><line x1="1200" y1="1190.3" x2="1095.6" y2="1023.3" stroke="#2c4661" stroke-width="16.7" stroke-linecap="round"/><circle cx="1095.6" cy="1023.3" r="16.7" fill="#b3502f"/><line x1="1200" y1="1190.3" x2="1141.1" y2="985" stroke="#2c4661" stroke-width="16.7" stroke-linecap="round"/><circle cx="1141.1" cy="985" r="16.7" fill="#b3502f"/><line x1="1200" y1="1190.3" x2="1200" y2="960" stroke="#2c4661" stroke-width="16.7" stroke-linecap="round"/><circle cx="1200" cy="960" r="16.7" fill="#b3502f"/><line x1="1200" y1="1190.3" x2="1258.9" y2="985" stroke="#2c4661" stroke-width="16.7" stroke-linecap="round"/><circle cx="1258.9" cy="985" r="16.7" fill="#b3502f"/><line x1="1200" y1="1190.3" x2="1304.4" y2="1023.3" stroke="#2c4661" stroke-width="16.7" stroke-linecap="round"/><circle cx="1304.4" cy="1023.3" r="16.7" fill="#b3502f"/><line x1="1200" y1="1190.3" x2="1333.9" y2="1069.8" stroke="#2c4661" stroke-width="16.7" stroke-linecap="round"/><circle cx="1333.9" cy="1069.8" r="16.7" fill="#b3502f"/><line x1="1200" y1="1190.3" x2="1346.9" y2="1118.7" stroke="#2c4661" stroke-width="16.7" stroke-linecap="round"/><circle cx="1346.9" cy="1118.7" r="16.7" fill="#b3502f"/><line x1="1596" y1="1394.7" x2="1596" y2="1172.7" stroke="#2c4661" stroke-width="24.2"/><line x1="1596" y1="1172.7" x2="1436.4" y2="1094.9" stroke="#2c4661" stroke-width="18.2" stroke-linecap="round"/><circle cx="1436.4" cy="1094.9" r="18.2" fill="#b3502f"/><line x1="1596" y1="1172.7" x2="1450.5" y2="1041.7" stroke="#2c4661" stroke-width="18.2" stroke-linecap="round"/><circle cx="1450.5" cy="1041.7" r="18.2" fill="#b3502f"/><line x1="1596" y1="1172.7" x2="1482.6" y2="991.3" stroke="#2c4661" stroke-width="18.2" stroke-linecap="round"/><circle cx="1482.6" cy="991.3" r="18.2" fill="#b3502f"/><line x1="1596" y1="1172.7" x2="1532" y2="949.7" stroke="#2c4661" stroke-width="18.2" stroke-linecap="round"/><circle cx="1532" cy="949.7" r="18.2" fill="#b3502f"/><line x1="1596" y1="1172.7" x2="1596" y2="922.5" stroke="#2c4661" stroke-width="18.2" stroke-linecap="round"/><circle cx="1596" cy="922.5" r="18.2" fill="#b3502f"/><line x1="1596" y1="1172.7" x2="1660" y2="949.7" stroke="#2c4661" stroke-width="18.2" stroke-linecap="round"/><circle cx="1660" cy="949.7" r="18.2" fill="#b3502f"/><line x1="1596" y1="1172.7" x2="1709.4" y2="991.3" stroke="#2c4661" stroke-width="18.2" stroke-linecap="round"/><circle cx="1709.4" cy="991.3" r="18.2" fill="#b3502f"/><line x1="1596" y1="1172.7" x2="1741.5" y2="1041.7" stroke="#2c4661" stroke-width="18.2" stroke-linecap="round"/><circle cx="1741.5" cy="1041.7" r="18.2" fill="#b3502f"/><line x1="1596" y1="1172.7" x2="1755.6" y2="1094.9" stroke="#2c4661" stroke-width="18.2" stroke-linecap="round"/><circle cx="1755.6" cy="1094.9" r="18.2" fill="#b3502f"/><line x1="1992" y1="1394.7" x2="1992" y2="1171.3" stroke="#2c4661" stroke-width="24.4"/><line x1="1992" y1="1171.3" x2="1831.3" y2="1092.9" stroke="#2c4661" stroke-width="18.3" stroke-linecap="round"/><circle cx="1831.3" cy="1092.9" r="18.3" fill="#b3502f"/><line x1="1992" y1="1171.3" x2="1845.6" y2="1039.4" stroke="#2c4661" stroke-width="18.3" stroke-linecap="round"/><circle cx="1845.6" cy="1039.4" r="18.3" fill="#b3502f"/><line x1="1992" y1="1171.3" x2="1877.9" y2="988.6" stroke="#2c4661" stroke-width="18.3" stroke-linecap="round"/><circle cx="1877.9" cy="988.6" r="18.3" fill="#b3502f"/><line x1="1992" y1="1171.3" x2="1927.6" y2="946.7" stroke="#2c4661" stroke-width="18.3" stroke-linecap="round"/><circle cx="1927.6" cy="946.7" r="18.3" fill="#b3502f"/><line x1="1992" y1="1171.3" x2="1992" y2="919.4" stroke="#2c4661" stroke-width="18.3" stroke-linecap="round"/><circle cx="1992" cy="919.4" r="18.3" fill="#b3502f"/><line x1="1992" y1="1171.3" x2="2056.4" y2="946.7" stroke="#2c4661" stroke-width="18.3" stroke-linecap="round"/><circle cx="2056.4" cy="946.7" r="18.3" fill="#b3502f"/><line x1="1992" y1="1171.3" x2="2106.1" y2="988.6" stroke="#2c4661" stroke-width="18.3" stroke-linecap="round"/><circle cx="2106.1" cy="988.6" r="18.3" fill="#b3502f"/><line x1="1992" y1="1171.3" x2="2138.4" y2="1039.4" stroke="#2c4661" stroke-width="18.3" stroke-linecap="round"/><circle cx="2138.4" cy="1039.4" r="18.3" fill="#b3502f"/><line x1="1992" y1="1171.3" x2="2152.7" y2="1092.9" stroke="#2c4661" stroke-width="18.3" stroke-linecap="round"/><circle cx="2152.7" cy="1092.9" r="18.3" fill="#b3502f"/><path d="M0 0 Q 70.4 -109.4 0 -287.9 Q -70.4 -109.4 0 0 Z" fill="#2c4661" opacity="1" transform="translate(408 1979.7) rotate(-58)"/><path d="M0 0 Q 70.4 -129 0 -339.4 Q -70.4 -129 0 0 Z" fill="#b3502f" opacity="1" transform="translate(408 1979.7) rotate(-29)"/><path d="M0 0 Q 70.4 -148.6 0 -391 Q -70.4 -148.6 0 0 Z" fill="#2c4661" opacity="1" transform="translate(408 1979.7) rotate(0)"/><path d="M0 0 Q 70.4 -129 0 -339.4 Q -70.4 -129 0 0 Z" fill="#b3502f" opacity="1" transform="translate(408 1979.7) rotate(29)"/><path d="M0 0 Q 70.4 -109.4 0 -287.9 Q -70.4 -109.4 0 0 Z" fill="#2c4661" opacity="1" transform="translate(408 1979.7) rotate(58)"/><path d="M290.7,1979.7 Q408,2112.6 525.3,1979.7 Z" fill="#2c4661"/><path d="M0 0 Q 65.6 -124.6 0 -328 Q -65.6 -124.6 0 0 Z" fill="#b3502f" opacity="1" transform="translate(804 1979.7) rotate(0)"/><line x1="804" y1="1979.7" x2="804" y2="2026.5" stroke="#2c4661" stroke-width="20.5"/><path d="M0 0 Q 70.9 -110.2 0 -290 Q -70.9 -110.2 0 0 Z" fill="#2c4661" opacity="1" transform="translate(1200 1979.7) rotate(-58)"/><path d="M0 0 Q 70.9 -126 0 -331.6 Q -70.9 -126 0 0 Z" fill="#b3502f" opacity="1" transform="translate(1200 1979.7) rotate(-34.8)"/><path d="M0 0 Q 70.9 -141.8 0 -373.1 Q -70.9 -141.8 0 0 Z" fill="#2c4661" opacity="1" transform="translate(1200 1979.7) rotate(-11.6)"/><path d="M0 0 Q 70.9 -141.8 0 -373.1 Q -70.9 -141.8 0 0 Z" fill="#b3502f" opacity="1" transform="translate(1200 1979.7) rotate(11.6)"/><path d="M0 0 Q 70.9 -126 0 -331.6 Q -70.9 -126 0 0 Z" fill="#2c4661" opacity="1" transform="translate(1200 1979.7) rotate(34.8)"/><path d="M0 0 Q 70.9 -110.2 0 -290 Q -70.9 -110.2 0 0 Z" fill="#b3502f" opacity="1" transform="translate(1200 1979.7) rotate(58)"/><path d="M1081.8,1979.7 Q1200,2113.6 1318.2,1979.7 Z" fill="#2c4661"/><path d="M0 0 Q 66.6 -126.6 0 -333.1 Q -66.6 -126.6 0 0 Z" fill="#b3502f" opacity="1" transform="translate(1596 1979.7) rotate(0)"/><line x1="1596" y1="1979.7" x2="1596" y2="2026.5" stroke="#2c4661" stroke-width="20.8"/><path d="M0 0 Q 72.1 -112.1 0 -295.1 Q -72.1 -112.1 0 0 Z" fill="#2c4661" opacity="1" transform="translate(1992 1979.7) rotate(-58)"/><path d="M0 0 Q 72.1 -125.5 0 -330.3 Q -72.1 -125.5 0 0 Z" fill="#b3502f" opacity="1" transform="translate(1992 1979.7) rotate(-38.7)"/><path d="M0 0 Q 72.1 -138.9 0 -365.6 Q -72.1 -138.9 0 0 Z" fill="#2c4661" opacity="1" transform="translate(1992 1979.7) rotate(-19.3)"/><path d="M0 0 Q 72.1 -152.3 0 -400.8 Q -72.1 -152.3 0 0 Z" fill="#b3502f" opacity="1" transform="translate(1992 1979.7) rotate(0)"/><path d="M0 0 Q 72.1 -138.9 0 -365.6 Q -72.1 -138.9 0 0 Z" fill="#2c4661" opacity="1" transform="translate(1992 1979.7) rotate(19.3)"/><path d="M0 0 Q 72.1 -125.5 0 -330.3 Q -72.1 -125.5 0 0 Z" fill="#b3502f" opacity="1" transform="translate(1992 1979.7) rotate(38.7)"/><path d="M0 0 Q 72.1 -112.1 0 -295.1 Q -72.1 -112.1 0 0 Z" fill="#2c4661" opacity="1" transform="translate(1992 1979.7) rotate(58)"/><path d="M1871.8,1979.7 Q1992,2116 2112.2,1979.7 Z" fill="#2c4661"/><line x1="457.5" y1="2564.7" x2="457.5" y2="2364.3" stroke="#2c4661" stroke-width="21.9"/><line x1="457.5" y1="2364.3" x2="313.4" y2="2294" stroke="#2c4661" stroke-width="16.4" stroke-linecap="round"/><circle cx="313.4" cy="2294" r="16.4" fill="#b3502f"/><line x1="457.5" y1="2364.3" x2="326.2" y2="2246" stroke="#2c4661" stroke-width="16.4" stroke-linecap="round"/><circle cx="326.2" cy="2246" r="16.4" fill="#b3502f"/><line x1="457.5" y1="2364.3" x2="355.2" y2="2200.5" stroke="#2c4661" stroke-width="16.4" stroke-linecap="round"/><circle cx="355.2" cy="2200.5" r="16.4" fill="#b3502f"/><line x1="457.5" y1="2364.3" x2="399.7" y2="2162.8" stroke="#2c4661" stroke-width="16.4" stroke-linecap="round"/><circle cx="399.7" cy="2162.8" r="16.4" fill="#b3502f"/><line x1="457.5" y1="2364.3" x2="457.5" y2="2138.3" stroke="#2c4661" stroke-width="16.4" stroke-linecap="round"/><circle cx="457.5" cy="2138.3" r="16.4" fill="#b3502f"/><line x1="457.5" y1="2364.3" x2="515.3" y2="2162.8" stroke="#2c4661" stroke-width="16.4" stroke-linecap="round"/><circle cx="515.3" cy="2162.8" r="16.4" fill="#b3502f"/><line x1="457.5" y1="2364.3" x2="559.8" y2="2200.5" stroke="#2c4661" stroke-width="16.4" stroke-linecap="round"/><circle cx="559.8" cy="2200.5" r="16.4" fill="#b3502f"/><line x1="457.5" y1="2364.3" x2="588.8" y2="2246" stroke="#2c4661" stroke-width="16.4" stroke-linecap="round"/><circle cx="588.8" cy="2246" r="16.4" fill="#b3502f"/><line x1="457.5" y1="2364.3" x2="601.6" y2="2294" stroke="#2c4661" stroke-width="16.4" stroke-linecap="round"/><circle cx="601.6" cy="2294" r="16.4" fill="#b3502f"/><line x1="952.5" y1="2564.7" x2="952.5" y2="2362.4" stroke="#2c4661" stroke-width="22.1"/><line x1="952.5" y1="2362.4" x2="807.1" y2="2291.5" stroke="#2c4661" stroke-width="16.6" stroke-linecap="round"/><circle cx="807.1" cy="2291.5" r="16.6" fill="#b3502f"/><line x1="952.5" y1="2362.4" x2="819.9" y2="2243.1" stroke="#2c4661" stroke-width="16.6" stroke-linecap="round"/><circle cx="819.9" cy="2243.1" r="16.6" fill="#b3502f"/><line x1="952.5" y1="2362.4" x2="849.2" y2="2197.1" stroke="#2c4661" stroke-width="16.6" stroke-linecap="round"/><circle cx="849.2" cy="2197.1" r="16.6" fill="#b3502f"/><line x1="952.5" y1="2362.4" x2="894.2" y2="2159.1" stroke="#2c4661" stroke-width="16.6" stroke-linecap="round"/><circle cx="894.2" cy="2159.1" r="16.6" fill="#b3502f"/><line x1="952.5" y1="2362.4" x2="952.5" y2="2134.4" stroke="#2c4661" stroke-width="16.6" stroke-linecap="round"/><circle cx="952.5" cy="2134.4" r="16.6" fill="#b3502f"/><line x1="952.5" y1="2362.4" x2="1010.8" y2="2159.1" stroke="#2c4661" stroke-width="16.6" stroke-linecap="round"/><circle cx="1010.8" cy="2159.1" r="16.6" fill="#b3502f"/><line x1="952.5" y1="2362.4" x2="1055.8" y2="2197.1" stroke="#2c4661" stroke-width="16.6" stroke-linecap="round"/><circle cx="1055.8" cy="2197.1" r="16.6" fill="#b3502f"/><line x1="952.5" y1="2362.4" x2="1085.1" y2="2243.1" stroke="#2c4661" stroke-width="16.6" stroke-linecap="round"/><circle cx="1085.1" cy="2243.1" r="16.6" fill="#b3502f"/><line x1="952.5" y1="2362.4" x2="1097.9" y2="2291.5" stroke="#2c4661" stroke-width="16.6" stroke-linecap="round"/><circle cx="1097.9" cy="2291.5" r="16.6" fill="#b3502f"/><line x1="1447.5" y1="2564.7" x2="1447.5" y2="2358.4" stroke="#2c4661" stroke-width="22.5"/><line x1="1447.5" y1="2358.4" x2="1299.1" y2="2286" stroke="#2c4661" stroke-width="16.9" stroke-linecap="round"/><circle cx="1299.1" cy="2286" r="16.9" fill="#b3502f"/><line x1="1447.5" y1="2358.4" x2="1312.3" y2="2236.6" stroke="#2c4661" stroke-width="16.9" stroke-linecap="round"/><circle cx="1312.3" cy="2236.6" r="16.9" fill="#b3502f"/><line x1="1447.5" y1="2358.4" x2="1342.1" y2="2189.7" stroke="#2c4661" stroke-width="16.9" stroke-linecap="round"/><circle cx="1342.1" cy="2189.7" r="16.9" fill="#b3502f"/><line x1="1447.5" y1="2358.4" x2="1388" y2="2151" stroke="#2c4661" stroke-width="16.9" stroke-linecap="round"/><circle cx="1388" cy="2151" r="16.9" fill="#b3502f"/><line x1="1447.5" y1="2358.4" x2="1447.5" y2="2125.8" stroke="#2c4661" stroke-width="16.9" stroke-linecap="round"/><circle cx="1447.5" cy="2125.8" r="16.9" fill="#b3502f"/><line x1="1447.5" y1="2358.4" x2="1507" y2="2151" stroke="#2c4661" stroke-width="16.9" stroke-linecap="round"/><circle cx="1507" cy="2151" r="16.9" fill="#b3502f"/><line x1="1447.5" y1="2358.4" x2="1552.9" y2="2189.7" stroke="#2c4661" stroke-width="16.9" stroke-linecap="round"/><circle cx="1552.9" cy="2189.7" r="16.9" fill="#b3502f"/><line x1="1447.5" y1="2358.4" x2="1582.7" y2="2236.6" stroke="#2c4661" stroke-width="16.9" stroke-linecap="round"/><circle cx="1582.7" cy="2236.6" r="16.9" fill="#b3502f"/><line x1="1447.5" y1="2358.4" x2="1595.9" y2="2286" stroke="#2c4661" stroke-width="16.9" stroke-linecap="round"/><circle cx="1595.9" cy="2286" r="16.9" fill="#b3502f"/><line x1="1942.5" y1="2564.7" x2="1942.5" y2="2362" stroke="#2c4661" stroke-width="22.1"/><line x1="1942.5" y1="2362" x2="1796.7" y2="2290.8" stroke="#2c4661" stroke-width="16.6" stroke-linecap="round"/><circle cx="1796.7" cy="2290.8" r="16.6" fill="#b3502f"/><line x1="1942.5" y1="2362" x2="1809.6" y2="2242.3" stroke="#2c4661" stroke-width="16.6" stroke-linecap="round"/><circle cx="1809.6" cy="2242.3" r="16.6" fill="#b3502f"/><line x1="1942.5" y1="2362" x2="1839" y2="2196.3" stroke="#2c4661" stroke-width="16.6" stroke-linecap="round"/><circle cx="1839" cy="2196.3" r="16.6" fill="#b3502f"/><line x1="1942.5" y1="2362" x2="1884.1" y2="2158.2" stroke="#2c4661" stroke-width="16.6" stroke-linecap="round"/><circle cx="1884.1" cy="2158.2" r="16.6" fill="#b3502f"/><line x1="1942.5" y1="2362" x2="1942.5" y2="2133.4" stroke="#2c4661" stroke-width="16.6" stroke-linecap="round"/><circle cx="1942.5" cy="2133.4" r="16.6" fill="#b3502f"/><line x1="1942.5" y1="2362" x2="2000.9" y2="2158.2" stroke="#2c4661" stroke-width="16.6" stroke-linecap="round"/><circle cx="2000.9" cy="2158.2" r="16.6" fill="#b3502f"/><line x1="1942.5" y1="2362" x2="2046" y2="2196.3" stroke="#2c4661" stroke-width="16.6" stroke-linecap="round"/><circle cx="2046" cy="2196.3" r="16.6" fill="#b3502f"/><line x1="1942.5" y1="2362" x2="2075.4" y2="2242.3" stroke="#2c4661" stroke-width="16.6" stroke-linecap="round"/><circle cx="2075.4" cy="2242.3" r="16.6" fill="#b3502f"/><line x1="1942.5" y1="2362" x2="2088.3" y2="2290.8" stroke="#2c4661" stroke-width="16.6" stroke-linecap="round"/><circle cx="2088.3" cy="2290.8" r="16.6" fill="#b3502f"/><rect x="100" y="100" width="2200" height="2800" fill="none" stroke="#2c4661" stroke-width="9"/><rect x="142" y="142" width="2116" height="2716" fill="none" stroke="#2c4661" stroke-width="3" opacity="0.65"/></svg></svg>