<svg xmlns="http://www.w3.org/2000/svg" width="2400" height="1800" viewBox="0 0 2400 1800"><rect width="2400" height="1800" fill="#dfe4dc"/><rect y="1400" width="2400" height="400" fill="#c2a67e"/><line x1="60" y1="1400" x2="10" y2="1800" stroke="#00000015" stroke-width="5"/><line x1="260" y1="1400" x2="210" y2="1800" stroke="#00000015" stroke-width="5"/><line x1="460" y1="1400" x2="410" y2="1800" stroke="#00000015" stroke-width="5"/><line x1="660" y1="1400" x2="610" y2="1800" stroke="#00000015" stroke-width="5"/><line x1="860" y1="1400" x2="810" y2="1800" stroke="#00000015" stroke-width="5"/><line x1="1060" y1="1400" x2="1010" y2="1800" stroke="#00000015" stroke-width="5"/><line x1="1260" y1="1400" x2="1210" y2="1800" stroke="#00000015" stroke-width="5"/><line x1="1460" y1="1400" x2="1410" y2="1800" stroke="#00000015" stroke-width="5"/><line x1="1660" y1="1400" x2="1610" y2="1800" stroke="#00000015" stroke-width="5"/><line x1="1860" y1="1400" x2="1810" y2="1800" stroke="#00000015" stroke-width="5"/><line x1="2060" y1="1400" x2="2010" y2="1800" stroke="#00000015" stroke-width="5"/><line x1="2260" y1="1400" x2="2210" y2="1800" stroke="#00000015" stroke-width="5"/><rect x="180" y="260" width="900" height="620" fill="#8a6a48"/><rect x="215" y="295" width="830" height="550" fill="#41524a"/><line x1="280" y1="420" x2="760" y2="420" stroke="#ffffff66" stroke-width="9" stroke-linecap="round"/><line x1="280" y1="520" x2="620" y2="520" stroke="#ffffff44" stroke-width="9" stroke-linecap="round"/><circle cx="880" cy="560" r="90" fill="none" stroke="#ffffff55" stroke-width="8"/><rect x="215" y="845" width="830" height="22" fill="#6f5436"/><rect x="330" y="1240" width="640" height="60" rx="10" fill="#9c7449"/><rect x="370" y="1300" width="60" height="240" fill="#8a6540"/><rect x="870" y="1300" width="60" height="240" fill="#8a6540"/><rect x="430" y="1160" width="150" height="80" rx="8" fill="#b3502f"/><rect x="450" y="1120" width="150" height="40" rx="8" fill="#c9b98e"/><circle cx="800" cy="1130" r="86" fill="#7fa3b8"/><path d="M760,1060 Q820,1100 780,1190 M740,1090 Q800,1120 850,1100" stroke="#5d8069" stroke-width="16" fill="none" stroke-linecap="round"/><circle cx="800" cy="1130" r="86" fill="none" stroke="#6b5233" stroke-width="7"/><line x1="800" y1="1216" x2="800" y2="1250" stroke="#6b5233" stroke-width="10"/><rect x="750" y="1244" width="100" height="14" rx="7" fill="#6b5233"/><rect x="1980" y="700" width="300" height="800" fill="#9c7449"/><rect x="2000" y="930" width="260" height="16" fill="#7c5a37"/><rect x="2020" y="790" width="36" height="140" fill="#b3502f"/><rect x="2066" y="802" width="36" height="128" fill="#39685c"/><rect x="2112" y="790" width="36" height="140" fill="#c9a227"/><rect x="2158" y="802" width="36" height="128" fill="#2c4661"/><rect x="2204" y="790" width="36" height="140" fill="#8a4423"/><rect x="2000" y="1180" width="260" height="16" fill="#7c5a37"/><rect x="2020" y="1040" width="36" height="140" fill="#39685c"/><rect x="2066" y="1052" width="36" height="128" fill="#c9a227"/><rect x="2112" y="1040" width="36" height="140" fill="#2c4661"/><rect x="2158" y="1052" width="36" height="128" fill="#8a4423"/><rect x="2204" y="1040" width="36" height="140" fill="#b3502f"/><rect x="2000" y="1430" width="260" height="16" fill="#7c5a37"/><rect x="2020" y="1290" width="36" height="140" fill="#c9a227"/><rect x="2066" y="1302" width="36" height="128" fill="#2c4661"/><rect x="2112" y="1290" width="36" height="140" fill="#8a4423"/><rect x="2158" y="1302" width="36" height="128" fill="#b3502f"/><rect x="2204" y="1290" width="36" height="140" fill="#39685c"/><defs><filter id="a88c-sh" x="-30%" y="-30%" width="160%" height="160%"><feGaussianBlur stdDeviation="16"/></filter></defs><rect x="1340.5" y="298.5" width="517" height="635" fill="#000" opacity="0.28" filter="url(#a88c-sh)"/><rect x="1326.5" y="276.5" width="517" height="635" fill="#3d342a"/><rect x="1341.8" y="291.8" width="486.4" height="604.5" fill="none" stroke="#00000055" stroke-width="3"/><rect x="1350" y="300" width="470" height="588" fill="#f6f2ea"/><svg x="1385.3" y="335.3" width="399.5" height="517.5" viewBox="0 0 2400 3000" preserveAspectRatio="xMidYMid slice"><rect width="2400" height="3000" fill="#e9dcbc"/><radialGradient id="a88-vig" cx="50%" cy="42%" r="80%"><stop offset="55%" stop-color="#000" stop-opacity="0"/><stop offset="100%" stop-color="#000" stop-opacity="0.15"/></radialGradient><rect width="2400" height="3000" fill="url(#a88-vig)"/><circle cx="874.3" cy="666.2" r="4.1" fill="#2c4661" opacity="0.037"/><circle cx="840.4" cy="1112.6" r="2.7" fill="#2c4661" opacity="0.060"/><circle cx="1073.7" cy="1313.6" r="3.3" fill="#2c4661" opacity="0.038"/><circle cx="781.8" cy="1678.3" r="2.3" fill="#2c4661" opacity="0.053"/><circle cx="1762" cy="1128.1" r="4.5" fill="#2c4661" opacity="0.070"/><circle cx="895.8" cy="2858.8" r="3.6" fill="#2c4661" opacity="0.070"/><circle cx="326.4" cy="2624.1" r="4.3" fill="#2c4661" opacity="0.038"/><circle cx="457.7" cy="198.4" r="2.6" fill="#2c4661" opacity="0.042"/><circle cx="1944.8" cy="2719.9" r="3.1" fill="#2c4661" opacity="0.036"/><circle cx="2204.6" cy="1244.3" r="4.1" fill="#2c4661" opacity="0.075"/><circle cx="1471.6" cy="1735.8" r="2.9" fill="#2c4661" opacity="0.057"/><circle cx="1226.4" cy="1000.8" r="3.7" fill="#2c4661" opacity="0.050"/><circle cx="1795.5" cy="1464.2" r="4.1" fill="#2c4661" opacity="0.061"/><circle cx="238.1" cy="1526.3" r="3.8" fill="#2c4661" opacity="0.073"/><circle cx="1125.6" cy="405.3" r="1.9" fill="#2c4661" opacity="0.071"/><circle cx="1176.8" cy="2140.8" r="2.9" fill="#2c4661" opacity="0.032"/><circle cx="1357" cy="1731" r="2.4" fill="#2c4661" opacity="0.069"/><circle cx="2215.4" cy="1000.9" r="2.3" fill="#2c4661" opacity="0.079"/><circle cx="1331.6" cy="729.3" r="2.1" fill="#2c4661" opacity="0.077"/><circle cx="169.3" cy="601.1" r="3" fill="#2c4661" opacity="0.036"/><circle cx="612.5" cy="48.3" r="3" fill="#2c4661" opacity="0.059"/><circle cx="1029.9" cy="2756.1" r="4.5" fill="#2c4661" opacity="0.048"/><circle cx="977.7" cy="756.8" r="2.4" fill="#2c4661" opacity="0.077"/><circle cx="658.8" cy="1444.9" r="1.9" fill="#2c4661" opacity="0.042"/><circle cx="74.2" cy="443.6" r="3" fill="#2c4661" opacity="0.041"/><circle cx="2289.9" cy="972.7" r="3.9" fill="#2c4661" opacity="0.070"/><circle cx="537.9" cy="818.2" r="2.5" fill="#2c4661" opacity="0.041"/><circle cx="287.9" cy="1775.3" r="1.7" fill="#2c4661" opacity="0.079"/><circle cx="1890" cy="1934.9" r="4.5" fill="#2c4661" opacity="0.060"/><circle cx="1047.2" cy="536" r="4.2" fill="#2c4661" opacity="0.036"/><circle cx="424" cy="2663.6" r="3" fill="#2c4661" opacity="0.075"/><circle cx="2021.5" cy="1767.1" r="3.4" fill="#2c4661" opacity="0.038"/><circle cx="396.6" cy="2865" r="1.6" fill="#2c4661" opacity="0.038"/><circle cx="764.2" cy="1798.8" r="1.9" fill="#2c4661" opacity="0.043"/><circle cx="1660.7" cy="2232.3" r="3.9" fill="#2c4661" opacity="0.059"/><circle cx="950.5" cy="1356" r="3.9" fill="#2c4661" opacity="0.073"/><circle cx="1966.1" cy="1699" r="4.3" fill="#2c4661" opacity="0.046"/><circle cx="970.5" cy="1197.5" r="2.5" fill="#2c4661" opacity="0.032"/><circle cx="1772.3" cy="166.9" r="3.1" fill="#2c4661" opacity="0.036"/><circle cx="933.7" cy="2181.9" r="3" fill="#2c4661" opacity="0.071"/><circle cx="1076.9" cy="776.8" r="2" fill="#2c4661" opacity="0.071"/><circle cx="1238.7" cy="336.9" r="2.8" fill="#2c4661" opacity="0.069"/><circle cx="1383.2" cy="2498.4" r="2.1" fill="#2c4661" opacity="0.066"/><circle cx="1078.5" cy="346.7" r="3.9" fill="#2c4661" opacity="0.063"/><circle cx="897.9" cy="415.8" r="2.8" fill="#2c4661" opacity="0.033"/><circle cx="955.4" cy="239.9" r="3.1" fill="#2c4661" opacity="0.048"/><circle cx="1458.6" cy="1112.2" r="2.8" fill="#2c4661" opacity="0.033"/><circle cx="1806.4" cy="2892.1" r="2.2" fill="#2c4661" opacity="0.054"/><circle cx="586.2" cy="1548.1" r="3.9" fill="#2c4661" opacity="0.069"/><circle cx="1110.6" cy="1792" r="1.7" fill="#2c4661" opacity="0.077"/><circle cx="1655.5" cy="2372.1" r="2" fill="#2c4661" opacity="0.058"/><circle cx="1202" cy="989.7" r="2.1" fill="#2c4661" opacity="0.030"/><circle cx="2088.3" cy="160.5" r="3.1" fill="#2c4661" opacity="0.038"/><circle cx="1441.9" cy="2548.5" r="3.6" fill="#2c4661" opacity="0.031"/><circle cx="1997.5" cy="1261.2" r="2.5" fill="#2c4661" opacity="0.040"/><circle cx="1682.2" cy="2515.8" r="2.1" fill="#2c4661" opacity="0.067"/><circle cx="1639.8" cy="2872.7" r="3.4" fill="#2c4661" opacity="0.043"/><circle cx="963.3" cy="1047.1" r="4" fill="#2c4661" opacity="0.053"/><circle cx="1101.4" cy="1011.3" r="2.2" fill="#2c4661" opacity="0.065"/><circle cx="1443.7" cy="2117.3" r="3.9" fill="#2c4661" opacity="0.031"/><circle cx="533.5" cy="57.4" r="3.2" fill="#2c4661" opacity="0.058"/><circle cx="124.6" cy="61.3" r="3.1" fill="#2c4661" opacity="0.044"/><circle cx="1512.2" cy="1051.1" r="4" fill="#2c4661" opacity="0.042"/><circle cx="848.4" cy="1644.8" r="2.8" fill="#2c4661" opacity="0.046"/><circle cx="1914.5" cy="1740.6" r="1.7" fill="#2c4661" opacity="0.069"/><circle cx="192" cy="1744.2" r="4.4" fill="#2c4661" opacity="0.074"/><circle cx="141.6" cy="2449.6" r="3.3" fill="#2c4661" opacity="0.071"/><circle cx="1199.2" cy="2243.1" r="4" fill="#2c4661" opacity="0.072"/><circle cx="1742.1" cy="2839.2" r="3.2" fill="#2c4661" opacity="0.033"/><circle cx="108.2" cy="2578.9" r="2.9" fill="#2c4661" opacity="0.059"/><circle cx="2188" cy="2330.9" r="4" fill="#2c4661" opacity="0.066"/><circle cx="1298.6" cy="1413.7" r="3.1" fill="#2c4661" opacity="0.072"/><circle cx="1417.6" cy="1504.5" r="2" fill="#2c4661" opacity="0.066"/><circle cx="2228.2" cy="202.4" r="3.4" fill="#2c4661" opacity="0.038"/><circle cx="312.5" cy="1366.7" r="1.9" fill="#2c4661" opacity="0.053"/><circle cx="894.5" cy="1109.6" r="4.5" fill="#2c4661" opacity="0.051"/><circle cx="1911.4" cy="2709.1" r="2.8" fill="#2c4661" opacity="0.078"/><circle cx="1870.3" cy="349.1" r="1.9" fill="#2c4661" opacity="0.038"/><circle cx="1714.3" cy="2085.6" r="3.8" fill="#2c4661" opacity="0.042"/><circle cx="1300.2" cy="717.7" r="4" fill="#2c4661" opacity="0.062"/><line x1="280" y1="422" x2="2120" y2="422" stroke="#2c4661" stroke-width="7.4"/><line x1="370.1" y1="415.9" x2="316.5" y2="381.1" stroke="#2c4661" stroke-width="12.3" stroke-linecap="round"/><line x1="370.1" y1="415.9" x2="322.4" y2="354.8" stroke="#2c4661" stroke-width="12.3" stroke-linecap="round"/><line x1="370.1" y1="415.9" x2="340.5" y2="329.9" stroke="#2c4661" stroke-width="12.3" stroke-linecap="round"/><line x1="370.1" y1="415.9" x2="370.1" y2="311.4" stroke="#2c4661" stroke-width="12.3" stroke-linecap="round"/><line x1="370.1" y1="415.9" x2="399.7" y2="329.9" stroke="#2c4661" stroke-width="12.3" stroke-linecap="round"/><line x1="370.1" y1="415.9" x2="417.8" y2="354.8" stroke="#2c4661" stroke-width="12.3" stroke-linecap="round"/><line x1="370.1" y1="415.9" x2="423.7" y2="381.1" stroke="#2c4661" stroke-width="12.3" stroke-linecap="round"/><line x1="536.1" y1="415.9" x2="482.5" y2="381.1" stroke="#2c4661" stroke-width="12.3" stroke-linecap="round"/><line x1="536.1" y1="415.9" x2="488.4" y2="354.8" stroke="#2c4661" stroke-width="12.3" stroke-linecap="round"/><line x1="536.1" y1="415.9" x2="506.5" y2="329.9" stroke="#2c4661" stroke-width="12.3" stroke-linecap="round"/><line x1="536.1" y1="415.9" x2="536.1" y2="311.4" stroke="#2c4661" stroke-width="12.3" stroke-linecap="round"/><line x1="536.1" y1="415.9" x2="565.7" y2="329.9" stroke="#2c4661" stroke-width="12.3" stroke-linecap="round"/><line x1="536.1" y1="415.9" x2="583.8" y2="354.8" stroke="#2c4661" stroke-width="12.3" stroke-linecap="round"/><line x1="536.1" y1="415.9" x2="589.7" y2="381.1" stroke="#2c4661" stroke-width="12.3" stroke-linecap="round"/><line x1="702.1" y1="415.9" x2="648.4" y2="381.1" stroke="#2c4661" stroke-width="12.3" stroke-linecap="round"/><line x1="702.1" y1="415.9" x2="654.4" y2="354.8" stroke="#2c4661" stroke-width="12.3" stroke-linecap="round"/><line x1="702.1" y1="415.9" x2="672.4" y2="329.9" stroke="#2c4661" stroke-width="12.3" stroke-linecap="round"/><line x1="702.1" y1="415.9" x2="702.1" y2="311.4" stroke="#2c4661" stroke-width="12.3" stroke-linecap="round"/><line x1="702.1" y1="415.9" x2="731.7" y2="329.9" stroke="#2c4661" stroke-width="12.3" stroke-linecap="round"/><line x1="702.1" y1="415.9" x2="749.8" y2="354.8" stroke="#2c4661" stroke-width="12.3" stroke-linecap="round"/><line x1="702.1" y1="415.9" x2="755.7" y2="381.1" stroke="#2c4661" stroke-width="12.3" stroke-linecap="round"/><line x1="868" y1="415.9" x2="814.4" y2="381.1" stroke="#2c4661" stroke-width="12.3" stroke-linecap="round"/><line x1="868" y1="415.9" x2="820.4" y2="354.8" stroke="#2c4661" stroke-width="12.3" stroke-linecap="round"/><line x1="868" y1="415.9" x2="838.4" y2="329.9" stroke="#2c4661" stroke-width="12.3" stroke-linecap="round"/><line x1="868" y1="415.9" x2="868" y2="311.4" stroke="#2c4661" stroke-width="12.3" stroke-linecap="round"/><line x1="868" y1="415.9" x2="897.7" y2="329.9" stroke="#2c4661" stroke-width="12.3" stroke-linecap="round"/><line x1="868" y1="415.9" x2="915.7" y2="354.8" stroke="#2c4661" stroke-width="12.3" stroke-linecap="round"/><line x1="868" y1="415.9" x2="921.7" y2="381.1" stroke="#2c4661" stroke-width="12.3" stroke-linecap="round"/><line x1="1034" y1="415.9" x2="980.4" y2="381.1" stroke="#2c4661" stroke-width="12.3" stroke-linecap="round"/><line x1="1034" y1="415.9" x2="986.3" y2="354.8" stroke="#2c4661" stroke-width="12.3" stroke-linecap="round"/><line x1="1034" y1="415.9" x2="1004.4" y2="329.9" stroke="#2c4661" stroke-width="12.3" stroke-linecap="round"/><line x1="1034" y1="415.9" x2="1034" y2="311.4" stroke="#2c4661" stroke-width="12.3" stroke-linecap="round"/><line x1="1034" y1="415.9" x2="1063.6" y2="329.9" stroke="#2c4661" stroke-width="12.3" stroke-linecap="round"/><line x1="1034" y1="415.9" x2="1081.7" y2="354.8" stroke="#2c4661" stroke-width="12.3" stroke-linecap="round"/><line x1="1034" y1="415.9" x2="1087.6" y2="381.1" stroke="#2c4661" stroke-width="12.3" stroke-linecap="round"/><line x1="1200" y1="415.9" x2="1146.4" y2="381.1" stroke="#2c4661" stroke-width="12.3" stroke-linecap="round"/><line x1="1200" y1="415.9" x2="1152.3" y2="354.8" stroke="#2c4661" stroke-width="12.3" stroke-linecap="round"/><line x1="1200" y1="415.9" x2="1170.4" y2="329.9" stroke="#2c4661" stroke-width="12.3" stroke-linecap="round"/><line x1="1200" y1="415.9" x2="1200" y2="311.4" stroke="#2c4661" stroke-width="12.3" stroke-linecap="round"/><line x1="1200" y1="415.9" x2="1229.6" y2="329.9" stroke="#2c4661" stroke-width="12.3" stroke-linecap="round"/><line x1="1200" y1="415.9" x2="1247.7" y2="354.8" stroke="#2c4661" stroke-width="12.3" stroke-linecap="round"/><line x1="1200" y1="415.9" x2="1253.6" y2="381.1" stroke="#2c4661" stroke-width="12.3" stroke-linecap="round"/><line x1="1366" y1="415.9" x2="1312.4" y2="381.1" stroke="#2c4661" stroke-width="12.3" stroke-linecap="round"/><line x1="1366" y1="415.9" x2="1318.3" y2="354.8" stroke="#2c4661" stroke-width="12.3" stroke-linecap="round"/><line x1="1366" y1="415.9" x2="1336.4" y2="329.9" stroke="#2c4661" stroke-width="12.3" stroke-linecap="round"/><line x1="1366" y1="415.9" x2="1366" y2="311.4" stroke="#2c4661" stroke-width="12.3" stroke-linecap="round"/><line x1="1366" y1="415.9" x2="1395.6" y2="329.9" stroke="#2c4661" stroke-width="12.3" stroke-linecap="round"/><line x1="1366" y1="415.9" x2="1413.7" y2="354.8" stroke="#2c4661" stroke-width="12.3" stroke-linecap="round"/><line x1="1366" y1="415.9" x2="1419.6" y2="381.1" stroke="#2c4661" stroke-width="12.3" stroke-linecap="round"/><line x1="1532" y1="415.9" x2="1478.3" y2="381.1" stroke="#2c4661" stroke-width="12.3" stroke-linecap="round"/><line x1="1532" y1="415.9" x2="1484.3" y2="354.8" stroke="#2c4661" stroke-width="12.3" stroke-linecap="round"/><line x1="1532" y1="415.9" x2="1502.3" y2="329.9" stroke="#2c4661" stroke-width="12.3" stroke-linecap="round"/><line x1="1532" y1="415.9" x2="1532" y2="311.4" stroke="#2c4661" stroke-width="12.3" stroke-linecap="round"/><line x1="1532" y1="415.9" x2="1561.6" y2="329.9" stroke="#2c4661" stroke-width="12.3" stroke-linecap="round"/><line x1="1532" y1="415.9" x2="1579.6" y2="354.8" stroke="#2c4661" stroke-width="12.3" stroke-linecap="round"/><line x1="1532" y1="415.9" x2="1585.6" y2="381.1" stroke="#2c4661" stroke-width="12.3" stroke-linecap="round"/><line x1="1697.9" y1="415.9" x2="1644.3" y2="381.1" stroke="#2c4661" stroke-width="12.3" stroke-linecap="round"/><line x1="1697.9" y1="415.9" x2="1650.2" y2="354.8" stroke="#2c4661" stroke-width="12.3" stroke-linecap="round"/><line x1="1697.9" y1="415.9" x2="1668.3" y2="329.9" stroke="#2c4661" stroke-width="12.3" stroke-linecap="round"/><line x1="1697.9" y1="415.9" x2="1697.9" y2="311.4" stroke="#2c4661" stroke-width="12.3" stroke-linecap="round"/><line x1="1697.9" y1="415.9" x2="1727.6" y2="329.9" stroke="#2c4661" stroke-width="12.3" stroke-linecap="round"/><line x1="1697.9" y1="415.9" x2="1745.6" y2="354.8" stroke="#2c4661" stroke-width="12.3" stroke-linecap="round"/><line x1="1697.9" y1="415.9" x2="1751.6" y2="381.1" stroke="#2c4661" stroke-width="12.3" stroke-linecap="round"/><line x1="1863.9" y1="415.9" x2="1810.3" y2="381.1" stroke="#2c4661" stroke-width="12.3" stroke-linecap="round"/><line x1="1863.9" y1="415.9" x2="1816.2" y2="354.8" stroke="#2c4661" stroke-width="12.3" stroke-linecap="round"/><line x1="1863.9" y1="415.9" x2="1834.3" y2="329.9" stroke="#2c4661" stroke-width="12.3" stroke-linecap="round"/><line x1="1863.9" y1="415.9" x2="1863.9" y2="311.4" stroke="#2c4661" stroke-width="12.3" stroke-linecap="round"/><line x1="1863.9" y1="415.9" x2="1893.5" y2="329.9" stroke="#2c4661" stroke-width="12.3" stroke-linecap="round"/><line x1="1863.9" y1="415.9" x2="1911.6" y2="354.8" stroke="#2c4661" stroke-width="12.3" stroke-linecap="round"/><line x1="1863.9" y1="415.9" x2="1917.5" y2="381.1" stroke="#2c4661" stroke-width="12.3" stroke-linecap="round"/><line x1="2029.9" y1="415.9" x2="1976.3" y2="381.1" stroke="#2c4661" stroke-width="12.3" stroke-linecap="round"/><line x1="2029.9" y1="415.9" x2="1982.2" y2="354.8" stroke="#2c4661" stroke-width="12.3" stroke-linecap="round"/><line x1="2029.9" y1="415.9" x2="2000.3" y2="329.9" stroke="#2c4661" stroke-width="12.3" stroke-linecap="round"/><line x1="2029.9" y1="415.9" x2="2029.9" y2="311.4" stroke="#2c4661" stroke-width="12.3" stroke-linecap="round"/><line x1="2029.9" y1="415.9" x2="2059.5" y2="329.9" stroke="#2c4661" stroke-width="12.3" stroke-linecap="round"/><line x1="2029.9" y1="415.9" x2="2077.6" y2="354.8" stroke="#2c4661" stroke-width="12.3" stroke-linecap="round"/><line x1="2029.9" y1="415.9" x2="2083.5" y2="381.1" stroke="#2c4661" stroke-width="12.3" stroke-linecap="round"/><line x1="250" y1="457.8" x2="2150" y2="457.8" stroke="#2c4661" stroke-width="6"/><rect x="250" y="457.8" width="1900" height="266.3" fill="#2c4661"/><path d="M319.6,666.1 L 469.9,666.1 L 469.9,515.8 L 351.8,515.8 L 351.8,608.8 L 412.7,608.8 L 412.7,562.3 M498.6,666.1 L 648.9,666.1 L 648.9,515.8 L 530.8,515.8 L 530.8,608.8 L 591.6,608.8 L 591.6,562.3 M677.5,666.1 L 827.8,666.1 L 827.8,515.8 L 709.7,515.8 L 709.7,608.8 L 770.5,608.8 L 770.5,562.3 M856.4,666.1 L 1006.7,666.1 L 1006.7,515.8 L 888.6,515.8 L 888.6,608.8 L 949.5,608.8 L 949.5,562.3 M1035.4,666.1 L 1185.7,666.1 L 1185.7,515.8 L 1067.6,515.8 L 1067.6,608.8 L 1128.4,608.8 L 1128.4,562.3 M1214.3,666.1 L 1364.6,666.1 L 1364.6,515.8 L 1246.5,515.8 L 1246.5,608.8 L 1307.4,608.8 L 1307.4,562.3 M1393.3,666.1 L 1543.6,666.1 L 1543.6,515.8 L 1425.5,515.8 L 1425.5,608.8 L 1486.3,608.8 L 1486.3,562.3 M1572.2,666.1 L 1722.5,666.1 L 1722.5,515.8 L 1604.4,515.8 L 1604.4,608.8 L 1665.2,608.8 L 1665.2,562.3 M1751.1,666.1 L 1901.4,666.1 L 1901.4,515.8 L 1783.3,515.8 L 1783.3,608.8 L 1844.2,608.8 L 1844.2,562.3 M1930.1,666.1 L 2080.4,666.1 L 2080.4,515.8 L 1962.3,515.8 L 1962.3,608.8 L 2023.1,608.8 L 2023.1,562.3 " fill="none" stroke="#e9dcbc" stroke-width="23.3"/><line x1="250" y1="724.1" x2="2150" y2="724.1" stroke="#2c4661" stroke-width="6"/><rect x="280" y="780.1" width="85.8" height="85.8" fill="#2c4661"/><rect x="365.8" y="865.9" width="85.8" height="85.8" fill="#2c4661"/><rect x="451.5" y="780.1" width="85.8" height="85.8" fill="#2c4661"/><rect x="537.3" y="865.9" width="85.8" height="85.8" fill="#2c4661"/><rect x="623.1" y="780.1" width="85.8" height="85.8" fill="#2c4661"/><rect x="708.8" y="865.9" width="85.8" height="85.8" fill="#2c4661"/><rect x="794.6" y="780.1" width="85.8" height="85.8" fill="#2c4661"/><rect x="880.4" y="865.9" width="85.8" height="85.8" fill="#2c4661"/><rect x="966.1" y="780.1" width="85.8" height="85.8" fill="#2c4661"/><rect x="1051.9" y="865.9" width="85.8" height="85.8" fill="#2c4661"/><rect x="1137.7" y="780.1" width="85.8" height="85.8" fill="#2c4661"/><rect x="1223.4" y="865.9" width="85.8" height="85.8" fill="#2c4661"/><rect x="1309.2" y="780.1" width="85.8" height="85.8" fill="#2c4661"/><rect x="1395" y="865.9" width="85.8" height="85.8" fill="#2c4661"/><rect x="1480.7" y="780.1" width="85.8" height="85.8" fill="#2c4661"/><rect x="1566.5" y="865.9" width="85.8" height="85.8" fill="#2c4661"/><rect x="1652.3" y="780.1" width="85.8" height="85.8" fill="#2c4661"/><rect x="1738" y="865.9" width="85.8" height="85.8" fill="#2c4661"/><rect x="1823.8" y="780.1" width="85.8" height="85.8" fill="#2c4661"/><rect x="1909.6" y="865.9" width="85.8" height="85.8" fill="#2c4661"/><rect x="1995.3" y="780.1" width="85.8" height="85.8" fill="#2c4661"/><line x1="250" y1="1007.7" x2="2150" y2="1007.7" stroke="#2c4661" stroke-width="6"/><path d="M346.2,1074.2 L431.5,1263.9 L516.9,1074.2 Z M516.9,1074.2 L602.3,1263.9 L687.7,1074.2 Z M687.7,1074.2 L773.1,1263.9 L858.5,1074.2 Z M858.5,1074.2 L943.8,1263.9 L1029.2,1074.2 Z M1029.2,1074.2 L1114.6,1263.9 L1200,1074.2 Z M1200,1074.2 L1285.4,1263.9 L1370.8,1074.2 Z M1370.8,1074.2 L1456.2,1263.9 L1541.5,1074.2 Z M1541.5,1074.2 L1626.9,1263.9 L1712.3,1074.2 Z M1712.3,1074.2 L1797.7,1263.9 L1883.1,1074.2 Z M1883.1,1074.2 L1968.5,1263.9 L2053.8,1074.2 Z " fill="#b3502f"/><line x1="250" y1="1330.4" x2="2150" y2="1330.4" stroke="#2c4661" stroke-width="6"/><rect x="250" y="1330.4" width="1900" height="316.2" fill="#2c4661"/><polyline points="386.5,1573.5 451.9,1429 517.4,1573.5" fill="none" stroke="#e9dcbc" stroke-width="23.8"/><polyline points="573.5,1573.5 639,1429 704.4,1573.5" fill="none" stroke="#e9dcbc" stroke-width="23.8"/><polyline points="760.5,1573.5 826,1429 891.4,1573.5" fill="none" stroke="#e9dcbc" stroke-width="23.8"/><polyline points="947.5,1573.5 1013,1429 1078.4,1573.5" fill="none" stroke="#e9dcbc" stroke-width="23.8"/><polyline points="1134.5,1573.5 1200,1429 1265.5,1573.5" fill="none" stroke="#e9dcbc" stroke-width="23.8"/><polyline points="1321.6,1573.5 1387,1429 1452.5,1573.5" fill="none" stroke="#e9dcbc" stroke-width="23.8"/><polyline points="1508.6,1573.5 1574,1429 1639.5,1573.5" fill="none" stroke="#e9dcbc" stroke-width="23.8"/><polyline points="1695.6,1573.5 1761,1429 1826.5,1573.5" fill="none" stroke="#e9dcbc" stroke-width="23.8"/><polyline points="1882.6,1573.5 1948.1,1429 2013.5,1573.5" fill="none" stroke="#e9dcbc" stroke-width="23.8"/><line x1="250" y1="1646.6" x2="2150" y2="1646.6" stroke="#2c4661" stroke-width="6"/><path d="M0 0 Q 32.8 -51.1 0 -134.3 Q -32.8 -51.1 0 0 Z" fill="#b3502f" opacity="1" transform="translate(433.3 1898.8) rotate(-58)"/><path d="M0 0 Q 32.8 -57.1 0 -150.4 Q -32.8 -57.1 0 0 Z" fill="#b3502f" opacity="1" transform="translate(433.3 1898.8) rotate(-38.7)"/><path d="M0 0 Q 32.8 -63.2 0 -166.4 Q -32.8 -63.2 0 0 Z" fill="#b3502f" opacity="1" transform="translate(433.3 1898.8) rotate(-19.3)"/><path d="M0 0 Q 32.8 -69.3 0 -182.4 Q -32.8 -69.3 0 0 Z" fill="#b3502f" opacity="1" transform="translate(433.3 1898.8) rotate(0)"/><path d="M0 0 Q 32.8 -63.2 0 -166.4 Q -32.8 -63.2 0 0 Z" fill="#b3502f" opacity="1" transform="translate(433.3 1898.8) rotate(19.3)"/><path d="M0 0 Q 32.8 -57.1 0 -150.4 Q -32.8 -57.1 0 0 Z" fill="#b3502f" opacity="1" transform="translate(433.3 1898.8) rotate(38.7)"/><path d="M0 0 Q 32.8 -51.1 0 -134.3 Q -32.8 -51.1 0 0 Z" fill="#b3502f" opacity="1" transform="translate(433.3 1898.8) rotate(58)"/><path d="M378.6,1898.8 Q433.3,1960.9 488.1,1898.8 Z" fill="#b3502f"/><path d="M0 0 Q 32.8 -51.1 0 -134.3 Q -32.8 -51.1 0 0 Z" fill="#b3502f" opacity="1" transform="translate(740 1898.8) rotate(-58)"/><path d="M0 0 Q 32.8 -57.1 0 -150.4 Q -32.8 -57.1 0 0 Z" fill="#b3502f" opacity="1" transform="translate(740 1898.8) rotate(-38.7)"/><path d="M0 0 Q 32.8 -63.2 0 -166.4 Q -32.8 -63.2 0 0 Z" fill="#b3502f" opacity="1" transform="translate(740 1898.8) rotate(-19.3)"/><path d="M0 0 Q 32.8 -69.3 0 -182.4 Q -32.8 -69.3 0 0 Z" fill="#b3502f" opacity="1" transform="translate(740 1898.8) rotate(0)"/><path d="M0 0 Q 32.8 -63.2 0 -166.4 Q -32.8 -63.2 0 0 Z" fill="#b3502f" opacity="1" transform="translate(740 1898.8) rotate(19.3)"/><path d="M0 0 Q 32.8 -57.1 0 -150.4 Q -32.8 -57.1 0 0 Z" fill="#b3502f" opacity="1" transform="translate(740 1898.8) rotate(38.7)"/><path d="M0 0 Q 32.8 -51.1 0 -134.3 Q -32.8 -51.1 0 0 Z" fill="#b3502f" opacity="1" transform="translate(740 1898.8) rotate(58)"/><path d="M685.3,1898.8 Q740,1960.9 794.7,1898.8 Z" fill="#b3502f"/><path d="M0 0 Q 32.8 -51.1 0 -134.3 Q -32.8 -51.1 0 0 Z" fill="#b3502f" opacity="1" transform="translate(1046.7 1898.8) rotate(-58)"/><path d="M0 0 Q 32.8 -60.2 0 -158.4 Q -32.8 -60.2 0 0 Z" fill="#b3502f" opacity="1" transform="translate(1046.7 1898.8) rotate(-29)"/><path d="M0 0 Q 32.8 -69.3 0 -182.4 Q -32.8 -69.3 0 0 Z" fill="#b3502f" opacity="1" transform="translate(1046.7 1898.8) rotate(0)"/><path d="M0 0 Q 32.8 -60.2 0 -158.4 Q -32.8 -60.2 0 0 Z" fill="#b3502f" opacity="1" transform="translate(1046.7 1898.8) rotate(29)"/><path d="M0 0 Q 32.8 -51.1 0 -134.3 Q -32.8 -51.1 0 0 Z" fill="#b3502f" opacity="1" transform="translate(1046.7 1898.8) rotate(58)"/><path d="M991.9,1898.8 Q1046.7,1960.9 1101.4,1898.8 Z" fill="#b3502f"/><path d="M0 0 Q 32.8 -51.1 0 -134.3 Q -32.8 -51.1 0 0 Z" fill="#b3502f" opacity="1" transform="translate(1353.3 1898.8) rotate(-58)"/><path d="M0 0 Q 32.8 -60.2 0 -158.4 Q -32.8 -60.2 0 0 Z" fill="#b3502f" opacity="1" transform="translate(1353.3 1898.8) rotate(-29)"/><path d="M0 0 Q 32.8 -69.3 0 -182.4 Q -32.8 -69.3 0 0 Z" fill="#b3502f" opacity="1" transform="translate(1353.3 1898.8) rotate(0)"/><path d="M0 0 Q 32.8 -60.2 0 -158.4 Q -32.8 -60.2 0 0 Z" fill="#b3502f" opacity="1" transform="translate(1353.3 1898.8) rotate(29)"/><path d="M0 0 Q 32.8 -51.1 0 -134.3 Q -32.8 -51.1 0 0 Z" fill="#b3502f" opacity="1" transform="translate(1353.3 1898.8) rotate(58)"/><path d="M1298.6,1898.8 Q1353.3,1960.9 1408.1,1898.8 Z" fill="#b3502f"/><path d="M0 0 Q 32.8 -51.1 0 -134.3 Q -32.8 -51.1 0 0 Z" fill="#b3502f" opacity="1" transform="translate(1660 1898.8) rotate(-58)"/><path d="M0 0 Q 32.8 -58.4 0 -153.6 Q -32.8 -58.4 0 0 Z" fill="#b3502f" opacity="1" transform="translate(1660 1898.8) rotate(-34.8)"/><path d="M0 0 Q 32.8 -65.7 0 -172.8 Q -32.8 -65.7 0 0 Z" fill="#b3502f" opacity="1" transform="translate(1660 1898.8) rotate(-11.6)"/><path d="M0 0 Q 32.8 -65.7 0 -172.8 Q -32.8 -65.7 0 0 Z" fill="#b3502f" opacity="1" transform="translate(1660 1898.8) rotate(11.6)"/><path d="M0 0 Q 32.8 -58.4 0 -153.6 Q -32.8 -58.4 0 0 Z" fill="#b3502f" opacity="1" transform="translate(1660 1898.8) rotate(34.8)"/><path d="M0 0 Q 32.8 -51.1 0 -134.3 Q -32.8 -51.1 0 0 Z" fill="#b3502f" opacity="1" transform="translate(1660 1898.8) rotate(58)"/><path d="M1605.3,1898.8 Q1660,1960.9 1714.7,1898.8 Z" fill="#b3502f"/><path d="M0 0 Q 32.8 -51.1 0 -134.3 Q -32.8 -51.1 0 0 Z" fill="#b3502f" opacity="1" transform="translate(1966.7 1898.8) rotate(-58)"/><path d="M0 0 Q 32.8 -57.1 0 -150.4 Q -32.8 -57.1 0 0 Z" fill="#b3502f" opacity="1" transform="translate(1966.7 1898.8) rotate(-38.7)"/><path d="M0 0 Q 32.8 -63.2 0 -166.4 Q -32.8 -63.2 0 0 Z" fill="#b3502f" opacity="1" transform="translate(1966.7 1898.8) rotate(-19.3)"/><path d="M0 0 Q 32.8 -69.3 0 -182.4 Q -32.8 -69.3 0 0 Z" fill="#b3502f" opacity="1" transform="translate(1966.7 1898.8) rotate(0)"/><path d="M0 0 Q 32.8 -63.2 0 -166.4 Q -32.8 -63.2 0 0 Z" fill="#b3502f" opacity="1" transform="translate(1966.7 1898.8) rotate(19.3)"/><path d="M0 0 Q 32.8 -57.1 0 -150.4 Q -32.8 -57.1 0 0 Z" fill="#b3502f" opacity="1" transform="translate(1966.7 1898.8) rotate(38.7)"/><path d="M0 0 Q 32.8 -51.1 0 -134.3 Q -32.8 -51.1 0 0 Z" fill="#b3502f" opacity="1" transform="translate(1966.7 1898.8) rotate(58)"/><path d="M1911.9,1898.8 Q1966.7,1960.9 2021.4,1898.8 Z" fill="#b3502f"/><line x1="250" y1="1948.3" x2="2150" y2="1948.3" stroke="#2c4661" stroke-width="6"/><path d="M292,2090.7 L 394.8,2090.7 L 394.8,1987.9 L 314.1,1987.9 L 314.1,2051.6 L 355.7,2051.6 L 355.7,2019.8 M414.4,2090.7 L 517.2,2090.7 L 517.2,1987.9 L 436.4,1987.9 L 436.4,2051.6 L 478,2051.6 L 478,2019.8 M536.8,2090.7 L 639.6,2090.7 L 639.6,1987.9 L 558.8,1987.9 L 558.8,2051.6 L 600.4,2051.6 L 600.4,2019.8 M659.1,2090.7 L 761.9,2090.7 L 761.9,1987.9 L 681.2,1987.9 L 681.2,2051.6 L 722.8,2051.6 L 722.8,2019.8 M781.5,2090.7 L 884.3,2090.7 L 884.3,1987.9 L 803.5,1987.9 L 803.5,2051.6 L 845.1,2051.6 L 845.1,2019.8 M903.9,2090.7 L 1006.7,2090.7 L 1006.7,1987.9 L 925.9,1987.9 L 925.9,2051.6 L 967.5,2051.6 L 967.5,2019.8 M1026.2,2090.7 L 1129,2090.7 L 1129,1987.9 L 1048.3,1987.9 L 1048.3,2051.6 L 1089.9,2051.6 L 1089.9,2019.8 M1148.6,2090.7 L 1251.4,2090.7 L 1251.4,1987.9 L 1170.6,1987.9 L 1170.6,2051.6 L 1212.2,2051.6 L 1212.2,2019.8 M1271,2090.7 L 1373.8,2090.7 L 1373.8,1987.9 L 1293,1987.9 L 1293,2051.6 L 1334.6,2051.6 L 1334.6,2019.8 M1393.3,2090.7 L 1496.1,2090.7 L 1496.1,1987.9 L 1415.4,1987.9 L 1415.4,2051.6 L 1457,2051.6 L 1457,2019.8 M1515.7,2090.7 L 1618.5,2090.7 L 1618.5,1987.9 L 1537.7,1987.9 L 1537.7,2051.6 L 1579.3,2051.6 L 1579.3,2019.8 M1638.1,2090.7 L 1740.9,2090.7 L 1740.9,1987.9 L 1660.1,1987.9 L 1660.1,2051.6 L 1701.7,2051.6 L 1701.7,2019.8 M1760.4,2090.7 L 1863.2,2090.7 L 1863.2,1987.9 L 1782.5,1987.9 L 1782.5,2051.6 L 1824.1,2051.6 L 1824.1,2019.8 M1882.8,2090.7 L 1985.6,2090.7 L 1985.6,1987.9 L 1904.8,1987.9 L 1904.8,2051.6 L 1946.4,2051.6 L 1946.4,2019.8 M2005.2,2090.7 L 2108,2090.7 L 2108,1987.9 L 2027.2,1987.9 L 2027.2,2051.6 L 2068.8,2051.6 L 2068.8,2019.8 " fill="none" stroke="#2c4661" stroke-width="15.9"/><line x1="250" y1="2130.4" x2="2150" y2="2130.4" stroke="#2c4661" stroke-width="6"/><rect x="250" y="2130.4" width="1900" height="214.5" fill="#2c4661"/><line x1="280" y1="2306.1" x2="2120" y2="2306.1" stroke="#e9dcbc" stroke-width="11"/><polyline points="378,2240.4 377.2,2241.3 376.8,2242.6 376.8,2244.1 377.3,2245.8 378.4,2247.3 380,2248.6 382.1,2249.5 384.6,2249.8 387.2,2249.4 389.9,2248.3 392.3,2246.3 394.2,2243.7 395.5,2240.4 396,2236.7 395.4,2232.8 393.9,2229 391.3,2225.5 387.7,2222.6 383.4,2220.6 378.5,2219.8 373.3,2220.1 368.2,2221.8 363.4,2224.8 359.4,2229.1 356.5,2234.4 354.8,2240.4 354.7,2246.9 356.3,2253.4 359.4,2259.5 364.1,2264.8 370.1,2269 377.2,2271.6 384.9,2272.5 392.8,2271.5 400.4,2268.5 407.2,2263.6 412.8,2257.1 416.7,2249.2 418.7,2240.4 418.5,2231.2 416,2222 411.2,2213.6 404.4,2206.4 395.9,2201 386.2,2197.6 375.7,2196.8 365.1,2198.5 355,2202.8 346.1,2209.5 338.9,2218.3 334,2228.8 331.7,2240.4" fill="none" stroke="#e9dcbc" stroke-width="12.3" stroke-linecap="round" stroke-linejoin="round"/><polyline points="515,2240.4 514.2,2241.3 513.7,2242.6 513.7,2244.1 514.2,2245.8 515.3,2247.3 516.9,2248.6 519,2249.5 521.5,2249.8 524.2,2249.4 526.8,2248.3 529.2,2246.3 531.2,2243.7 532.5,2240.4 532.9,2236.7 532.4,2232.8 530.8,2229 528.2,2225.5 524.7,2222.6 520.3,2220.6 515.4,2219.8 510.3,2220.1 505.1,2221.8 500.4,2224.8 496.4,2229.1 493.4,2234.4 491.8,2240.4 491.7,2246.9 493.2,2253.4 496.4,2259.5 501.1,2264.8 507.1,2269 514.1,2271.6 521.8,2272.5 529.7,2271.5 537.3,2268.5 544.2,2263.6 549.8,2257.1 553.7,2249.2 555.7,2240.4 555.4,2231.2 552.9,2222 548.2,2213.6 541.4,2206.4 532.9,2201 523.1,2197.6 512.6,2196.8 502,2198.5 492,2202.8 483,2209.5 475.9,2218.3 470.9,2228.8 468.6,2240.4" fill="none" stroke="#e9dcbc" stroke-width="12.3" stroke-linecap="round" stroke-linejoin="round"/><polyline points="651.9,2240.4 651.2,2241.3 650.7,2242.6 650.7,2244.1 651.2,2245.8 652.3,2247.3 653.9,2248.6 656,2249.5 658.5,2249.8 661.1,2249.4 663.8,2248.3 666.2,2246.3 668.2,2243.7 669.4,2240.4 669.9,2236.7 669.4,2232.8 667.8,2229 665.2,2225.5 661.6,2222.6 657.3,2220.6 652.4,2219.8 647.2,2220.1 642.1,2221.8 637.3,2224.8 633.3,2229.1 630.4,2234.4 628.8,2240.4 628.7,2246.9 630.2,2253.4 633.3,2259.5 638,2264.8 644.1,2269 651.1,2271.6 658.8,2272.5 666.7,2271.5 674.3,2268.5 681.1,2263.6 686.7,2257.1 690.7,2249.2 692.6,2240.4 692.4,2231.2 689.9,2222 685.1,2213.6 678.4,2206.4 669.9,2201 660.1,2197.6 649.6,2196.8 639,2198.5 628.9,2202.8 620,2209.5 612.8,2218.3 607.9,2228.8 605.6,2240.4" fill="none" stroke="#e9dcbc" stroke-width="12.3" stroke-linecap="round" stroke-linejoin="round"/><polyline points="788.9,2240.4 788.1,2241.3 787.7,2242.6 787.6,2244.1 788.2,2245.8 789.2,2247.3 790.9,2248.6 793,2249.5 795.4,2249.8 798.1,2249.4 800.7,2248.3 803.2,2246.3 805.1,2243.7 806.4,2240.4 806.8,2236.7 806.3,2232.8 804.7,2229 802.1,2225.5 798.6,2222.6 794.3,2220.6 789.4,2219.8 784.2,2220.1 779,2221.8 774.3,2224.8 770.3,2229.1 767.4,2234.4 765.7,2240.4 765.6,2246.9 767.1,2253.4 770.3,2259.5 775,2264.8 781,2269 788.1,2271.6 795.8,2272.5 803.7,2271.5 811.3,2268.5 818.1,2263.6 823.7,2257.1 827.6,2249.2 829.6,2240.4 829.3,2231.2 826.8,2222 822.1,2213.6 815.3,2206.4 806.8,2201 797.1,2197.6 786.6,2196.8 776,2198.5 765.9,2202.8 757,2209.5 749.8,2218.3 744.9,2228.8 742.6,2240.4" fill="none" stroke="#e9dcbc" stroke-width="12.3" stroke-linecap="round" stroke-linejoin="round"/><polyline points="925.9,2240.4 925.1,2241.3 924.6,2242.6 924.6,2244.1 925.1,2245.8 926.2,2247.3 927.8,2248.6 929.9,2249.5 932.4,2249.8 935.1,2249.4 937.7,2248.3 940.1,2246.3 942.1,2243.7 943.4,2240.4 943.8,2236.7 943.3,2232.8 941.7,2229 939.1,2225.5 935.6,2222.6 931.2,2220.6 926.3,2219.8 921.1,2220.1 916,2221.8 911.3,2224.8 907.3,2229.1 904.3,2234.4 902.7,2240.4 902.6,2246.9 904.1,2253.4 907.3,2259.5 911.9,2264.8 918,2269 925,2271.6 932.7,2272.5 940.6,2271.5 948.2,2268.5 955.1,2263.6 960.6,2257.1 964.6,2249.2 966.5,2240.4 966.3,2231.2 963.8,2222 959.1,2213.6 952.3,2206.4 943.8,2201 934,2197.6 923.5,2196.8 912.9,2198.5 902.8,2202.8 893.9,2209.5 886.7,2218.3 881.8,2228.8 879.5,2240.4" fill="none" stroke="#e9dcbc" stroke-width="12.3" stroke-linecap="round" stroke-linejoin="round"/><polyline points="1062.8,2240.4 1062,2241.3 1061.6,2242.6 1061.6,2244.1 1062.1,2245.8 1063.1,2247.3 1064.8,2248.6 1066.9,2249.5 1069.4,2249.8 1072,2249.4 1074.7,2248.3 1077.1,2246.3 1079,2243.7 1080.3,2240.4 1080.8,2236.7 1080.2,2232.8 1078.7,2229 1076.1,2225.5 1072.5,2222.6 1068.2,2220.6 1063.3,2219.8 1058.1,2220.1 1053,2221.8 1048.2,2224.8 1044.2,2229.1 1041.3,2234.4 1039.6,2240.4 1039.5,2246.9 1041.1,2253.4 1044.2,2259.5 1048.9,2264.8 1054.9,2269 1062,2271.6 1069.7,2272.5 1077.6,2271.5 1085.2,2268.5 1092,2263.6 1097.6,2257.1 1101.5,2249.2 1103.5,2240.4 1103.3,2231.2 1100.8,2222 1096,2213.6 1089.2,2206.4 1080.7,2201 1071,2197.6 1060.5,2196.8 1049.9,2198.5 1039.8,2202.8 1030.9,2209.5 1023.7,2218.3 1018.8,2228.8 1016.5,2240.4" fill="none" stroke="#e9dcbc" stroke-width="12.3" stroke-linecap="round" stroke-linejoin="round"/><polyline points="1199.8,2240.4 1199,2241.3 1198.5,2242.6 1198.5,2244.1 1199,2245.8 1200.1,2247.3 1201.7,2248.6 1203.8,2249.5 1206.3,2249.8 1209,2249.4 1211.6,2248.3 1214,2246.3 1216,2243.7 1217.3,2240.4 1217.7,2236.7 1217.2,2232.8 1215.6,2229 1213,2225.5 1209.5,2222.6 1205.1,2220.6 1200.2,2219.8 1195.1,2220.1 1189.9,2221.8 1185.2,2224.8 1181.2,2229.1 1178.2,2234.4 1176.6,2240.4 1176.5,2246.9 1178,2253.4 1181.2,2259.5 1185.9,2264.8 1191.9,2269 1198.9,2271.6 1206.6,2272.5 1214.5,2271.5 1222.1,2268.5 1229,2263.6 1234.6,2257.1 1238.5,2249.2 1240.5,2240.4 1240.2,2231.2 1237.7,2222 1233,2213.6 1226.2,2206.4 1217.7,2201 1207.9,2197.6 1197.4,2196.8 1186.8,2198.5 1176.8,2202.8 1167.8,2209.5 1160.7,2218.3 1155.7,2228.8 1153.4,2240.4" fill="none" stroke="#e9dcbc" stroke-width="12.3" stroke-linecap="round" stroke-linejoin="round"/><polyline points="1336.7,2240.4 1336,2241.3 1335.5,2242.6 1335.5,2244.1 1336,2245.8 1337.1,2247.3 1338.7,2248.6 1340.8,2249.5 1343.3,2249.8 1345.9,2249.4 1348.6,2248.3 1351,2246.3 1353,2243.7 1354.2,2240.4 1354.7,2236.7 1354.2,2232.8 1352.6,2229 1350,2225.5 1346.4,2222.6 1342.1,2220.6 1337.2,2219.8 1332,2220.1 1326.9,2221.8 1322.1,2224.8 1318.1,2229.1 1315.2,2234.4 1313.6,2240.4 1313.5,2246.9 1315,2253.4 1318.1,2259.5 1322.8,2264.8 1328.9,2269 1335.9,2271.6 1343.6,2272.5 1351.5,2271.5 1359.1,2268.5 1365.9,2263.6 1371.5,2257.1 1375.5,2249.2 1377.4,2240.4 1377.2,2231.2 1374.7,2222 1369.9,2213.6 1363.2,2206.4 1354.7,2201 1344.9,2197.6 1334.4,2196.8 1323.8,2198.5 1313.7,2202.8 1304.8,2209.5 1297.6,2218.3 1292.7,2228.8 1290.4,2240.4" fill="none" stroke="#e9dcbc" stroke-width="12.3" stroke-linecap="round" stroke-linejoin="round"/><polyline points="1473.7,2240.4 1472.9,2241.3 1472.5,2242.6 1472.4,2244.1 1473,2245.8 1474,2247.3 1475.7,2248.6 1477.8,2249.5 1480.2,2249.8 1482.9,2249.4 1485.5,2248.3 1488,2246.3 1489.9,2243.7 1491.2,2240.4 1491.6,2236.7 1491.1,2232.8 1489.5,2229 1486.9,2225.5 1483.4,2222.6 1479.1,2220.6 1474.2,2219.8 1469,2220.1 1463.8,2221.8 1459.1,2224.8 1455.1,2229.1 1452.2,2234.4 1450.5,2240.4 1450.4,2246.9 1451.9,2253.4 1455.1,2259.5 1459.8,2264.8 1465.8,2269 1472.9,2271.6 1480.6,2272.5 1488.5,2271.5 1496.1,2268.5 1502.9,2263.6 1508.5,2257.1 1512.4,2249.2 1514.4,2240.4 1514.1,2231.2 1511.6,2222 1506.9,2213.6 1500.1,2206.4 1491.6,2201 1481.9,2197.6 1471.4,2196.8 1460.8,2198.5 1450.7,2202.8 1441.8,2209.5 1434.6,2218.3 1429.7,2228.8 1427.4,2240.4" fill="none" stroke="#e9dcbc" stroke-width="12.3" stroke-linecap="round" stroke-linejoin="round"/><polyline points="1610.7,2240.4 1609.9,2241.3 1609.4,2242.6 1609.4,2244.1 1609.9,2245.8 1611,2247.3 1612.6,2248.6 1614.7,2249.5 1617.2,2249.8 1619.9,2249.4 1622.5,2248.3 1624.9,2246.3 1626.9,2243.7 1628.2,2240.4 1628.6,2236.7 1628.1,2232.8 1626.5,2229 1623.9,2225.5 1620.4,2222.6 1616,2220.6 1611.1,2219.8 1605.9,2220.1 1600.8,2221.8 1596.1,2224.8 1592.1,2229.1 1589.1,2234.4 1587.5,2240.4 1587.4,2246.9 1588.9,2253.4 1592.1,2259.5 1596.7,2264.8 1602.8,2269 1609.8,2271.6 1617.5,2272.5 1625.4,2271.5 1633,2268.5 1639.9,2263.6 1645.4,2257.1 1649.4,2249.2 1651.3,2240.4 1651.1,2231.2 1648.6,2222 1643.9,2213.6 1637.1,2206.4 1628.6,2201 1618.8,2197.6 1608.3,2196.8 1597.7,2198.5 1587.6,2202.8 1578.7,2209.5 1571.5,2218.3 1566.6,2228.8 1564.3,2240.4" fill="none" stroke="#e9dcbc" stroke-width="12.3" stroke-linecap="round" stroke-linejoin="round"/><polyline points="1747.6,2240.4 1746.8,2241.3 1746.4,2242.6 1746.4,2244.1 1746.9,2245.8 1747.9,2247.3 1749.6,2248.6 1751.7,2249.5 1754.2,2249.8 1756.8,2249.4 1759.5,2248.3 1761.9,2246.3 1763.8,2243.7 1765.1,2240.4 1765.6,2236.7 1765,2232.8 1763.5,2229 1760.9,2225.5 1757.3,2222.6 1753,2220.6 1748.1,2219.8 1742.9,2220.1 1737.8,2221.8 1733,2224.8 1729,2229.1 1726.1,2234.4 1724.4,2240.4 1724.3,2246.9 1725.9,2253.4 1729,2259.5 1733.7,2264.8 1739.7,2269 1746.8,2271.6 1754.5,2272.5 1762.4,2271.5 1770,2268.5 1776.8,2263.6 1782.4,2257.1 1786.3,2249.2 1788.3,2240.4 1788.1,2231.2 1785.6,2222 1780.8,2213.6 1774,2206.4 1765.5,2201 1755.8,2197.6 1745.3,2196.8 1734.7,2198.5 1724.6,2202.8 1715.7,2209.5 1708.5,2218.3 1703.6,2228.8 1701.3,2240.4" fill="none" stroke="#e9dcbc" stroke-width="12.3" stroke-linecap="round" stroke-linejoin="round"/><polyline points="1884.6,2240.4 1883.8,2241.3 1883.3,2242.6 1883.3,2244.1 1883.8,2245.8 1884.9,2247.3 1886.5,2248.6 1888.6,2249.5 1891.1,2249.8 1893.8,2249.4 1896.4,2248.3 1898.8,2246.3 1900.8,2243.7 1902.1,2240.4 1902.5,2236.7 1902,2232.8 1900.4,2229 1897.8,2225.5 1894.3,2222.6 1889.9,2220.6 1885,2219.8 1879.9,2220.1 1874.7,2221.8 1870,2224.8 1866,2229.1 1863,2234.4 1861.4,2240.4 1861.3,2246.9 1862.8,2253.4 1866,2259.5 1870.7,2264.8 1876.7,2269 1883.7,2271.6 1891.4,2272.5 1899.3,2271.5 1906.9,2268.5 1913.8,2263.6 1919.4,2257.1 1923.3,2249.2 1925.3,2240.4 1925,2231.2 1922.5,2222 1917.8,2213.6 1911,2206.4 1902.5,2201 1892.7,2197.6 1882.2,2196.8 1871.6,2198.5 1861.6,2202.8 1852.6,2209.5 1845.5,2218.3 1840.5,2228.8 1838.2,2240.4" fill="none" stroke="#e9dcbc" stroke-width="12.3" stroke-linecap="round" stroke-linejoin="round"/><polyline points="2021.5,2240.4 2020.8,2241.3 2020.3,2242.6 2020.3,2244.1 2020.8,2245.8 2021.9,2247.3 2023.5,2248.6 2025.6,2249.5 2028.1,2249.8 2030.7,2249.4 2033.4,2248.3 2035.8,2246.3 2037.8,2243.7 2039,2240.4 2039.5,2236.7 2039,2232.8 2037.4,2229 2034.8,2225.5 2031.2,2222.6 2026.9,2220.6 2022,2219.8 2016.8,2220.1 2011.7,2221.8 2006.9,2224.8 2002.9,2229.1 2000,2234.4 1998.4,2240.4 1998.3,2246.9 1999.8,2253.4 2002.9,2259.5 2007.6,2264.8 2013.7,2269 2020.7,2271.6 2028.4,2272.5 2036.3,2271.5 2043.9,2268.5 2050.7,2263.6 2056.3,2257.1 2060.3,2249.2 2062.2,2240.4 2062,2231.2 2059.5,2222 2054.7,2213.6 2048,2206.4 2039.5,2201 2029.7,2197.6 2019.2,2196.8 2008.6,2198.5 1998.5,2202.8 1989.6,2209.5 1982.4,2218.3 1977.5,2228.8 1975.2,2240.4" fill="none" stroke="#e9dcbc" stroke-width="12.3" stroke-linecap="round" stroke-linejoin="round"/><line x1="250" y1="2344.9" x2="2150" y2="2344.9" stroke="#2c4661" stroke-width="6"/><path d="M349,2512.3 L 469.7,2512.3 L 469.7,2391.5 L 374.8,2391.5 L 374.8,2466.3 L 423.7,2466.3 L 423.7,2428.9 M492.7,2512.3 L 613.5,2512.3 L 613.5,2391.5 L 518.6,2391.5 L 518.6,2466.3 L 567.5,2466.3 L 567.5,2428.9 M636.5,2512.3 L 757.2,2512.3 L 757.2,2391.5 L 662.3,2391.5 L 662.3,2466.3 L 711.2,2466.3 L 711.2,2428.9 M780.2,2512.3 L 901,2512.3 L 901,2391.5 L 806.1,2391.5 L 806.1,2466.3 L 855,2466.3 L 855,2428.9 M924,2512.3 L 1044.7,2512.3 L 1044.7,2391.5 L 949.9,2391.5 L 949.9,2466.3 L 998.7,2466.3 L 998.7,2428.9 M1067.7,2512.3 L 1188.5,2512.3 L 1188.5,2391.5 L 1093.6,2391.5 L 1093.6,2466.3 L 1142.5,2466.3 L 1142.5,2428.9 M1211.5,2512.3 L 1332.3,2512.3 L 1332.3,2391.5 L 1237.4,2391.5 L 1237.4,2466.3 L 1286.3,2466.3 L 1286.3,2428.9 M1355.3,2512.3 L 1476,2512.3 L 1476,2391.5 L 1381.1,2391.5 L 1381.1,2466.3 L 1430,2466.3 L 1430,2428.9 M1499,2512.3 L 1619.8,2512.3 L 1619.8,2391.5 L 1524.9,2391.5 L 1524.9,2466.3 L 1573.8,2466.3 L 1573.8,2428.9 M1642.8,2512.3 L 1763.5,2512.3 L 1763.5,2391.5 L 1668.7,2391.5 L 1668.7,2466.3 L 1717.5,2466.3 L 1717.5,2428.9 M1786.5,2512.3 L 1907.3,2512.3 L 1907.3,2391.5 L 1812.4,2391.5 L 1812.4,2466.3 L 1861.3,2466.3 L 1861.3,2428.9 M1930.3,2512.3 L 2051,2512.3 L 2051,2391.5 L 1956.2,2391.5 L 1956.2,2466.3 L 2005,2466.3 L 2005,2428.9 " fill="none" stroke="#2c4661" stroke-width="18.7"/><line x1="250" y1="2558.9" x2="2150" y2="2558.9" stroke="#2c4661" stroke-width="6"/><circle cx="347.9" cy="2649.4" r="27.7" fill="#b3502f"/><circle cx="454.4" cy="2649.4" r="27.7" fill="#b3502f"/><circle cx="560.9" cy="2649.4" r="27.7" fill="#b3502f"/><circle cx="667.4" cy="2649.4" r="27.7" fill="#b3502f"/><circle cx="773.9" cy="2649.4" r="27.7" fill="#b3502f"/><circle cx="880.5" cy="2649.4" r="27.7" fill="#b3502f"/><circle cx="987" cy="2649.4" r="27.7" fill="#b3502f"/><circle cx="1093.5" cy="2649.4" r="27.7" fill="#b3502f"/><circle cx="1200" cy="2649.4" r="27.7" fill="#b3502f"/><circle cx="1306.5" cy="2649.4" r="27.7" fill="#b3502f"/><circle cx="1413" cy="2649.4" r="27.7" fill="#b3502f"/><circle cx="1519.5" cy="2649.4" r="27.7" fill="#b3502f"/><circle cx="1626.1" cy="2649.4" r="27.7" fill="#b3502f"/><circle cx="1732.6" cy="2649.4" r="27.7" fill="#b3502f"/><circle cx="1839.1" cy="2649.4" r="27.7" fill="#b3502f"/><circle cx="1945.6" cy="2649.4" r="27.7" fill="#b3502f"/><circle cx="2052.1" cy="2649.4" r="27.7" fill="#b3502f"/><line x1="250" y1="2740" x2="2150" y2="2740" stroke="#2c4661" stroke-width="6"/><line x1="250" y1="260" x2="2150" y2="260" stroke="#2c4661" stroke-width="6"/><rect x="100" y="100" width="2200" height="2800" fill="none" stroke="#2c4661" stroke-width="9"/><rect x="142" y="142" width="2116" height="2716" fill="none" stroke="#2c4661" stroke-width="3" opacity="0.65"/></svg></svg>