<svg xmlns="http://www.w3.org/2000/svg" width="2400" height="1800" viewBox="0 0 2400 1800"><rect width="2400" height="1800" fill="#e9e1d2"/><rect y="1430" width="2400" height="370" fill="#c8b190"/><line x1="120" y1="1430" x2="60" y2="1800" stroke="#00000018" stroke-width="6"/><line x1="380" y1="1430" x2="320" y2="1800" stroke="#00000018" stroke-width="6"/><line x1="640" y1="1430" x2="580" y2="1800" stroke="#00000018" stroke-width="6"/><line x1="900" y1="1430" x2="840" y2="1800" stroke="#00000018" stroke-width="6"/><line x1="1160" y1="1430" x2="1100" y2="1800" stroke="#00000018" stroke-width="6"/><line x1="1420" y1="1430" x2="1360" y2="1800" stroke="#00000018" stroke-width="6"/><line x1="1680" y1="1430" x2="1620" y2="1800" stroke="#00000018" stroke-width="6"/><line x1="1940" y1="1430" x2="1880" y2="1800" stroke="#00000018" stroke-width="6"/><line x1="2200" y1="1430" x2="2140" y2="1800" stroke="#00000018" stroke-width="6"/><rect y="1418" width="2400" height="16" fill="#d7cbb6"/><rect x="700" y="980" width="1000" height="460" rx="26" fill="#a87e57"/><rect x="660" y="1290" width="1080" height="210" rx="30" fill="#f1ebdf"/><rect x="660" y="1420" width="1080" height="120" rx="24" fill="#9c7426" opacity="0.85"/><rect x="770" y="1180" width="300" height="150" rx="40" fill="#faf6ec"/><rect x="1330" y="1180" width="300" height="150" rx="40" fill="#a99060"/><rect x="640" y="1530" width="1120" height="26" rx="12" fill="#a87e57"/><rect x="360" y="1260" width="240" height="220" rx="10" fill="#a87e57"/><rect x="380" y="1300" width="200" height="14" fill="#00000022"/><line x1="480" y1="1260" x2="480" y2="1130" stroke="#5a4632" stroke-width="12"/><path d="M410,1130 L550,1130 L520,1020 L440,1020 Z" fill="#9c7426"/><path d="M2060,1520 Q 1910,1282.5 1835,1345" fill="none" stroke="#5d7052" stroke-width="20" stroke-linecap="round"/><path d="M2060,1520 Q 1960,1282.5 1910,1295" fill="none" stroke="#5d7052" stroke-width="20" stroke-linecap="round"/><path d="M2060,1520 Q 2010,1282.5 1985,1245" fill="none" stroke="#5d7052" stroke-width="20" stroke-linecap="round"/><path d="M2060,1520 Q 2060,1282.5 2060,1195" fill="none" stroke="#5d7052" stroke-width="20" stroke-linecap="round"/><path d="M2060,1520 Q 2110,1282.5 2135,1245" fill="none" stroke="#5d7052" stroke-width="20" stroke-linecap="round"/><path d="M2060,1520 Q 2160,1282.5 2210,1295" fill="none" stroke="#5d7052" stroke-width="20" stroke-linecap="round"/><path d="M2060,1520 Q 2210,1282.5 2285,1345" fill="none" stroke="#5d7052" stroke-width="20" stroke-linecap="round"/><path d="M1972.5,1520 L2147.5,1520 L2125,1657.5 L1995,1657.5 Z" fill="#a9714d"/><defs><filter id="a20b-sh" x="-30%" y="-30%" width="160%" height="160%"><feGaussianBlur stdDeviation="16"/></filter></defs><rect x="928" y="246" width="572" height="702" fill="#000" opacity="0.28" filter="url(#a20b-sh)"/><rect x="914" y="224" width="572" height="702" fill="#4a3d2f"/><rect x="930.9" y="240.9" width="538.2" height="668.2" fill="none" stroke="#00000055" stroke-width="3"/><rect x="940" y="250" width="520" height="650" fill="#f6f2ea"/><svg x="979" y="289" width="442" height="572" viewBox="0 0 2400 3000" preserveAspectRatio="xMidYMid slice"><filter id="a20-warp" x="-4%" y="-4%" width="108%" height="108%"><feTurbulence type="fractalNoise" baseFrequency="0.0105" numOctaves="2" seed="8262" result="w"/><feDisplacementMap in="SourceGraphic" in2="w" scale="11" xChannelSelector="R" yChannelSelector="G"/></filter><filter id="a20-grain" x="0%" y="0%" width="100%" height="100%"><feTurbulence type="fractalNoise" baseFrequency="0.6" numOctaves="2" seed="8269"/><feColorMatrix type="matrix" values="0.33 0.33 0.33 0 0.62  0.33 0.33 0.33 0 0.62  0.33 0.33 0.33 0 0.62  0 0 0 0 1"/></filter><filter id="a20-mottle" x="0%" y="0%" width="100%" height="100%"><feTurbulence type="fractalNoise" baseFrequency="0.0045" numOctaves="3" seed="8275"/><feColorMatrix type="matrix" values="0.2 0.2 0.2 0 0.78  0.2 0.2 0.2 0 0.78  0.2 0.2 0.2 0 0.78  0 0 0 0 1"/></filter><filter id="a20-fade" x="0%" y="0%" width="100%" height="100%"><feTurbulence type="fractalNoise" baseFrequency="0.006" numOctaves="2" seed="8291"/><feColorMatrix type="matrix" values="0.3 0.3 0.3 0 -0.08  0.3 0.3 0.3 0 -0.08  0.3 0.3 0.3 0 -0.1  0 0 0 0 1"/></filter><filter id="a20-blur9"><feGaussianBlur stdDeviation="9"/></filter><radialGradient id="a20-vig" cx="50%" cy="44%" r="78%"><stop offset="52%" stop-color="#241a10" stop-opacity="0"/><stop offset="100%" stop-color="#241a10" stop-opacity="0.17"/></radialGradient><radialGradient id="a20-warm" cx="52%" cy="30%" r="85%"><stop offset="0%" stop-color="#e8c890" stop-opacity="0.14"/><stop offset="70%" stop-color="#e8c890" stop-opacity="0"/></radialGradient><rect width="2400" height="3000" fill="#cfb684"/><rect width="2400" height="3000" fill="url(#a20-warm)"/><rect x="0" width="39.9" height="3000" fill="#6b4e26" opacity="0.061"/><rect x="55.4" width="27.4" height="3000" fill="#6b4e26" opacity="0.075"/><rect x="93.5" width="32.3" height="3000" fill="#6b4e26" opacity="0.090"/><rect x="138.3" width="19" height="3000" fill="#6b4e26" opacity="0.035"/><rect x="164.8" width="28.2" height="3000" fill="#6b4e26" opacity="0.079"/><rect x="203.9" width="34.5" height="3000" fill="#6b4e26" opacity="0.045"/><rect x="251.7" width="21.8" height="3000" fill="#6b4e26" opacity="0.086"/><rect x="282.1" width="29.6" height="3000" fill="#6b4e26" opacity="0.091"/><rect x="323.2" width="25.1" height="3000" fill="#6b4e26" opacity="0.045"/><rect x="358" width="32.4" height="3000" fill="#6b4e26" opacity="0.099"/><rect x="403.1" width="33.4" height="3000" fill="#6b4e26" opacity="0.035"/><rect x="449.4" width="30.7" height="3000" fill="#6b4e26" opacity="0.064"/><rect x="492.1" width="38.4" height="3000" fill="#6b4e26" opacity="0.040"/><rect x="545.5" width="24.9" height="3000" fill="#6b4e26" opacity="0.048"/><rect x="580.1" width="35.9" height="3000" fill="#6b4e26" opacity="0.053"/><rect x="629.9" width="26.6" height="3000" fill="#6b4e26" opacity="0.092"/><rect x="666.9" width="21.6" height="3000" fill="#6b4e26" opacity="0.062"/><rect x="696.9" width="20.1" height="3000" fill="#6b4e26" opacity="0.045"/><rect x="724.9" width="25.3" height="3000" fill="#6b4e26" opacity="0.036"/><rect x="760.1" width="33.3" height="3000" fill="#6b4e26" opacity="0.083"/><rect x="806.3" width="24.9" height="3000" fill="#6b4e26" opacity="0.072"/><rect x="840.8" width="27.3" height="3000" fill="#6b4e26" opacity="0.084"/><rect x="878.7" width="38.7" height="3000" fill="#6b4e26" opacity="0.035"/><rect x="932.4" width="36.2" height="3000" fill="#6b4e26" opacity="0.036"/><rect x="982.8" width="36.6" height="3000" fill="#6b4e26" opacity="0.074"/><rect x="1033.6" width="37.7" height="3000" fill="#6b4e26" opacity="0.080"/><rect x="1085.9" width="32.8" height="3000" fill="#6b4e26" opacity="0.092"/><rect x="1131.4" width="28" height="3000" fill="#6b4e26" opacity="0.078"/><rect x="1170.3" width="30.5" height="3000" fill="#6b4e26" opacity="0.054"/><rect x="1212.6" width="35" height="3000" fill="#6b4e26" opacity="0.041"/><rect x="1261.2" width="31.4" height="3000" fill="#6b4e26" opacity="0.098"/><rect x="1304.8" width="34.1" height="3000" fill="#6b4e26" opacity="0.083"/><rect x="1352.2" width="23.6" height="3000" fill="#6b4e26" opacity="0.079"/><rect x="1385" width="22.2" height="3000" fill="#6b4e26" opacity="0.032"/><rect x="1415.8" width="32.2" height="3000" fill="#6b4e26" opacity="0.067"/><rect x="1460.5" width="31.9" height="3000" fill="#6b4e26" opacity="0.087"/><rect x="1504.8" width="21.4" height="3000" fill="#6b4e26" opacity="0.041"/><rect x="1534.5" width="29.1" height="3000" fill="#6b4e26" opacity="0.075"/><rect x="1575" width="28.6" height="3000" fill="#6b4e26" opacity="0.038"/><rect x="1614.7" width="26.2" height="3000" fill="#6b4e26" opacity="0.093"/><rect x="1651.1" width="35.5" height="3000" fill="#6b4e26" opacity="0.060"/><rect x="1700.4" width="21.8" height="3000" fill="#6b4e26" opacity="0.080"/><rect x="1730.7" width="38" height="3000" fill="#6b4e26" opacity="0.095"/><rect x="1783.5" width="27" height="3000" fill="#6b4e26" opacity="0.050"/><rect x="1821" width="38.8" height="3000" fill="#6b4e26" opacity="0.045"/><rect x="1874.9" width="23.4" height="3000" fill="#6b4e26" opacity="0.094"/><rect x="1907.4" width="33.9" height="3000" fill="#6b4e26" opacity="0.084"/><rect x="1954.5" width="40.7" height="3000" fill="#6b4e26" opacity="0.055"/><rect x="2011" width="31.3" height="3000" fill="#6b4e26" opacity="0.046"/><rect x="2054.4" width="42.4" height="3000" fill="#6b4e26" opacity="0.044"/><rect x="2113.4" width="26.9" height="3000" fill="#6b4e26" opacity="0.040"/><rect x="2150.8" width="27" height="3000" fill="#6b4e26" opacity="0.077"/><rect x="2188.4" width="37.9" height="3000" fill="#6b4e26" opacity="0.071"/><rect x="2241.1" width="37.8" height="3000" fill="#6b4e26" opacity="0.067"/><rect x="2293.6" width="37.6" height="3000" fill="#6b4e26" opacity="0.044"/><rect x="2345.8" width="31.6" height="3000" fill="#6b4e26" opacity="0.046"/><rect x="2389.6" width="20.6" height="3000" fill="#6b4e26" opacity="0.036"/><rect y="0" width="2400" height="19.7" fill="#7c5c30" opacity="0.044"/><rect y="32.8" width="2400" height="23.6" fill="#7c5c30" opacity="0.044"/><rect y="72.1" width="2400" height="24.8" fill="#7c5c30" opacity="0.051"/><rect y="113.5" width="2400" height="27.5" fill="#7c5c30" opacity="0.040"/><rect y="159.4" width="2400" height="24.5" fill="#7c5c30" opacity="0.032"/><rect y="200.2" width="2400" height="27.2" fill="#7c5c30" opacity="0.042"/><rect y="245.6" width="2400" height="26.4" fill="#7c5c30" opacity="0.035"/><rect y="289.6" width="2400" height="21.9" fill="#7c5c30" opacity="0.057"/><rect y="326.1" width="2400" height="27.5" fill="#7c5c30" opacity="0.040"/><rect y="372" width="2400" height="25.1" fill="#7c5c30" opacity="0.043"/><rect y="413.9" width="2400" height="18.7" fill="#7c5c30" opacity="0.039"/><rect y="445" width="2400" height="21" fill="#7c5c30" opacity="0.025"/><rect y="479.9" width="2400" height="26.5" fill="#7c5c30" opacity="0.033"/><rect y="524.1" width="2400" height="16.1" fill="#7c5c30" opacity="0.057"/><rect y="550.9" width="2400" height="26.9" fill="#7c5c30" opacity="0.051"/><rect y="595.7" width="2400" height="14.3" fill="#7c5c30" opacity="0.055"/><rect y="619.5" width="2400" height="19.7" fill="#7c5c30" opacity="0.038"/><rect y="652.4" width="2400" height="16.6" fill="#7c5c30" opacity="0.039"/><rect y="680.1" width="2400" height="15.7" fill="#7c5c30" opacity="0.047"/><rect y="706.3" width="2400" height="13.7" fill="#7c5c30" opacity="0.048"/><rect y="729.1" width="2400" height="28.3" fill="#7c5c30" opacity="0.037"/><rect y="776.3" width="2400" height="28.5" fill="#7c5c30" opacity="0.034"/><rect y="823.8" width="2400" height="21.6" fill="#7c5c30" opacity="0.052"/><rect y="859.9" width="2400" height="25" fill="#7c5c30" opacity="0.023"/><rect y="901.7" width="2400" height="19.7" fill="#7c5c30" opacity="0.038"/><rect y="934.6" width="2400" height="24.1" fill="#7c5c30" opacity="0.034"/><rect y="974.7" width="2400" height="23.8" fill="#7c5c30" opacity="0.044"/><rect y="1014.4" width="2400" height="28.5" fill="#7c5c30" opacity="0.027"/><rect y="1061.8" width="2400" height="20.5" fill="#7c5c30" opacity="0.022"/><rect y="1095.9" width="2400" height="23.9" fill="#7c5c30" opacity="0.023"/><rect y="1135.7" width="2400" height="22.8" fill="#7c5c30" opacity="0.042"/><rect y="1173.8" width="2400" height="17.2" fill="#7c5c30" opacity="0.049"/><rect y="1202.5" width="2400" height="28.6" fill="#7c5c30" opacity="0.050"/><rect y="1250.1" width="2400" height="26.3" fill="#7c5c30" opacity="0.056"/><rect y="1293.9" width="2400" height="15.1" fill="#7c5c30" opacity="0.041"/><rect y="1319.1" width="2400" height="20.9" fill="#7c5c30" opacity="0.022"/><rect y="1353.9" width="2400" height="19.2" fill="#7c5c30" opacity="0.022"/><rect y="1385.8" width="2400" height="27.5" fill="#7c5c30" opacity="0.024"/><rect y="1431.7" width="2400" height="15.3" fill="#7c5c30" opacity="0.049"/><rect y="1457.2" width="2400" height="23.2" fill="#7c5c30" opacity="0.024"/><rect y="1495.9" width="2400" height="23.5" fill="#7c5c30" opacity="0.055"/><rect y="1535.1" width="2400" height="22.6" fill="#7c5c30" opacity="0.046"/><rect y="1572.8" width="2400" height="18" fill="#7c5c30" opacity="0.049"/><rect y="1602.7" width="2400" height="20.5" fill="#7c5c30" opacity="0.060"/><rect y="1637" width="2400" height="27.5" fill="#7c5c30" opacity="0.035"/><rect y="1682.9" width="2400" height="27.5" fill="#7c5c30" opacity="0.052"/><rect y="1728.7" width="2400" height="21.7" fill="#7c5c30" opacity="0.038"/><rect y="1764.9" width="2400" height="18.2" fill="#7c5c30" opacity="0.037"/><rect y="1795.2" width="2400" height="27.3" fill="#7c5c30" opacity="0.022"/><rect y="1840.7" width="2400" height="25.8" fill="#7c5c30" opacity="0.040"/><rect y="1883.6" width="2400" height="25.9" fill="#7c5c30" opacity="0.034"/><rect y="1926.9" width="2400" height="26.6" fill="#7c5c30" opacity="0.040"/><rect y="1971.2" width="2400" height="24.6" fill="#7c5c30" opacity="0.037"/><rect y="2012.1" width="2400" height="12.8" fill="#7c5c30" opacity="0.039"/><rect y="2033.4" width="2400" height="21.8" fill="#7c5c30" opacity="0.024"/><rect y="2069.7" width="2400" height="24.2" fill="#7c5c30" opacity="0.051"/><rect y="2110" width="2400" height="19.6" fill="#7c5c30" opacity="0.035"/><rect y="2142.7" width="2400" height="26.6" fill="#7c5c30" opacity="0.040"/><rect y="2187.1" width="2400" height="23.5" fill="#7c5c30" opacity="0.024"/><rect y="2226.3" width="2400" height="14.3" fill="#7c5c30" opacity="0.049"/><rect y="2250.1" width="2400" height="21.3" fill="#7c5c30" opacity="0.032"/><rect y="2285.6" width="2400" height="18.8" fill="#7c5c30" opacity="0.020"/><rect y="2316.9" width="2400" height="28.3" fill="#7c5c30" opacity="0.031"/><rect y="2364" width="2400" height="18" fill="#7c5c30" opacity="0.029"/><rect y="2394.1" width="2400" height="20.3" fill="#7c5c30" opacity="0.049"/><rect y="2428" width="2400" height="15.5" fill="#7c5c30" opacity="0.026"/><rect y="2453.9" width="2400" height="21.8" fill="#7c5c30" opacity="0.047"/><rect y="2490.3" width="2400" height="24.2" fill="#7c5c30" opacity="0.032"/><rect y="2530.6" width="2400" height="18.3" fill="#7c5c30" opacity="0.024"/><rect y="2561.1" width="2400" height="14.4" fill="#7c5c30" opacity="0.053"/><rect y="2585.1" width="2400" height="17.9" fill="#7c5c30" opacity="0.043"/><rect y="2614.9" width="2400" height="14.9" fill="#7c5c30" opacity="0.023"/><rect y="2639.6" width="2400" height="24.4" fill="#7c5c30" opacity="0.042"/><rect y="2680.2" width="2400" height="21.7" fill="#7c5c30" opacity="0.029"/><rect y="2716.3" width="2400" height="16.4" fill="#7c5c30" opacity="0.060"/><rect y="2743.7" width="2400" height="17.5" fill="#7c5c30" opacity="0.043"/><rect y="2772.9" width="2400" height="20.3" fill="#7c5c30" opacity="0.041"/><rect y="2806.7" width="2400" height="24.6" fill="#7c5c30" opacity="0.052"/><rect y="2847.8" width="2400" height="19.7" fill="#7c5c30" opacity="0.021"/><rect y="2880.6" width="2400" height="24.6" fill="#7c5c30" opacity="0.038"/><rect y="2921.6" width="2400" height="15.4" fill="#7c5c30" opacity="0.044"/><rect y="2947.4" width="2400" height="17.6" fill="#7c5c30" opacity="0.049"/><rect y="2976.8" width="2400" height="23.3" fill="#7c5c30" opacity="0.041"/><g filter="url(#a20-warp)"><rect x="210" y="300" width="1980" height="8.9" fill="#2e2818"/><rect x="210" y="308.4" width="1980" height="8.9" fill="#9c7426"/><rect x="210" y="316.8" width="1980" height="8.9" fill="#2e2818"/><rect x="210" y="325.2" width="1980" height="8.9" fill="#a99060"/><rect x="210" y="333.6" width="1980" height="8.9" fill="#2e2818"/><rect x="210" y="885" width="1980" height="8.9" fill="#2e2818"/><rect x="210" y="893.4" width="1980" height="8.9" fill="#9c7426"/><rect x="210" y="901.8" width="1980" height="8.9" fill="#2e2818"/><rect x="210" y="910.2" width="1980" height="8.9" fill="#a99060"/><rect x="210" y="918.6" width="1980" height="8.9" fill="#2e2818"/><rect x="210" y="1470" width="1980" height="8.9" fill="#2e2818"/><rect x="210" y="1478.4" width="1980" height="8.9" fill="#9c7426"/><rect x="210" y="1486.8" width="1980" height="8.9" fill="#2e2818"/><rect x="210" y="1495.2" width="1980" height="8.9" fill="#a99060"/><rect x="210" y="1503.6" width="1980" height="8.9" fill="#2e2818"/><rect x="210" y="2055" width="1980" height="8.9" fill="#2e2818"/><rect x="210" y="2063.4" width="1980" height="8.9" fill="#9c7426"/><rect x="210" y="2071.8" width="1980" height="8.9" fill="#2e2818"/><rect x="210" y="2080.2" width="1980" height="8.9" fill="#a99060"/><rect x="210" y="2088.6" width="1980" height="8.9" fill="#2e2818"/><rect x="210" y="2640" width="1980" height="8.9" fill="#2e2818"/><rect x="210" y="2648.4" width="1980" height="8.9" fill="#9c7426"/><rect x="210" y="2656.8" width="1980" height="8.9" fill="#2e2818"/><rect x="210" y="2665.2" width="1980" height="8.9" fill="#a99060"/><rect x="210" y="2673.6" width="1980" height="8.9" fill="#2e2818"/><path d="M0 0 Q 66.6 -103.5 0 -272.4 Q -66.6 -103.5 0 0 Z" fill="#2e2818" opacity="1" transform="translate(408 809.7) rotate(-58)"/><path d="M0 0 Q 66.6 -122 0 -321.1 Q -66.6 -122 0 0 Z" fill="#9c7426" opacity="1" transform="translate(408 809.7) rotate(-29)"/><path d="M0 0 Q 66.6 -140.5 0 -369.9 Q -66.6 -140.5 0 0 Z" fill="#2e2818" opacity="1" transform="translate(408 809.7) rotate(0)"/><path d="M0 0 Q 66.6 -122 0 -321.1 Q -66.6 -122 0 0 Z" fill="#9c7426" opacity="1" transform="translate(408 809.7) rotate(29)"/><path d="M0 0 Q 66.6 -103.5 0 -272.4 Q -66.6 -103.5 0 0 Z" fill="#2e2818" opacity="1" transform="translate(408 809.7) rotate(58)"/><path d="M297,809.7 Q408,935.5 519,809.7 Z" fill="#2e2818"/><path d="M0 0 Q 58.9 -111.9 0 -294.4 Q -58.9 -111.9 0 0 Z" fill="#9c7426" opacity="1" transform="translate(804 809.7) rotate(0)"/><line x1="804" y1="809.7" x2="804" y2="856.5" stroke="#2e2818" stroke-width="18.4"/><path d="M0 0 Q 75.4 -117.3 0 -308.6 Q -75.4 -117.3 0 0 Z" fill="#2e2818" opacity="1" transform="translate(1200 809.7) rotate(-58)"/><path d="M0 0 Q 75.4 -138.3 0 -363.8 Q -75.4 -138.3 0 0 Z" fill="#9c7426" opacity="1" transform="translate(1200 809.7) rotate(-29)"/><path d="M0 0 Q 75.4 -159.2 0 -419.1 Q -75.4 -159.2 0 0 Z" fill="#2e2818" opacity="1" transform="translate(1200 809.7) rotate(0)"/><path d="M0 0 Q 75.4 -138.3 0 -363.8 Q -75.4 -138.3 0 0 Z" fill="#9c7426" opacity="1" transform="translate(1200 809.7) rotate(29)"/><path d="M0 0 Q 75.4 -117.3 0 -308.6 Q -75.4 -117.3 0 0 Z" fill="#2e2818" opacity="1" transform="translate(1200 809.7) rotate(58)"/><path d="M1074.3,809.7 Q1200,952.2 1325.7,809.7 Z" fill="#2e2818"/><path d="M0 0 Q 58.8 -111.8 0 -294.1 Q -58.8 -111.8 0 0 Z" fill="#9c7426" opacity="1" transform="translate(1596 809.7) rotate(0)"/><line x1="1596" y1="809.7" x2="1596" y2="856.5" stroke="#2e2818" stroke-width="18.4"/><path d="M0 0 Q 70.6 -109.7 0 -288.8 Q -70.6 -109.7 0 0 Z" fill="#2e2818" opacity="1" transform="translate(1992 809.7) rotate(-58)"/><path d="M0 0 Q 70.6 -125.5 0 -330.1 Q -70.6 -125.5 0 0 Z" fill="#9c7426" opacity="1" transform="translate(1992 809.7) rotate(-34.8)"/><path d="M0 0 Q 70.6 -141.2 0 -371.5 Q -70.6 -141.2 0 0 Z" fill="#2e2818" opacity="1" transform="translate(1992 809.7) rotate(-11.6)"/><path d="M0 0 Q 70.6 -141.2 0 -371.5 Q -70.6 -141.2 0 0 Z" fill="#9c7426" opacity="1" transform="translate(1992 809.7) rotate(11.6)"/><path d="M0 0 Q 70.6 -125.5 0 -330.1 Q -70.6 -125.5 0 0 Z" fill="#2e2818" opacity="1" transform="translate(1992 809.7) rotate(34.8)"/><path d="M0 0 Q 70.6 -109.7 0 -288.8 Q -70.6 -109.7 0 0 Z" fill="#9c7426" opacity="1" transform="translate(1992 809.7) rotate(58)"/><path d="M1874.3,809.7 Q1992,943 2109.7,809.7 Z" fill="#2e2818"/><line x1="457.5" y1="1394.7" x2="457.5" y2="1183.9" stroke="#2e2818" stroke-width="23"/><line x1="457.5" y1="1183.9" x2="305.9" y2="1110" stroke="#2e2818" stroke-width="17.2" stroke-linecap="round"/><circle cx="305.9" cy="1110" r="17.2" fill="#9c7426"/><line x1="457.5" y1="1183.9" x2="319.4" y2="1059.5" stroke="#2e2818" stroke-width="17.2" stroke-linecap="round"/><circle cx="319.4" cy="1059.5" r="17.2" fill="#9c7426"/><line x1="457.5" y1="1183.9" x2="349.9" y2="1011.7" stroke="#2e2818" stroke-width="17.2" stroke-linecap="round"/><circle cx="349.9" cy="1011.7" r="17.2" fill="#9c7426"/><line x1="457.5" y1="1183.9" x2="396.8" y2="972.1" stroke="#2e2818" stroke-width="17.2" stroke-linecap="round"/><circle cx="396.8" cy="972.1" r="17.2" fill="#9c7426"/><line x1="457.5" y1="1183.9" x2="457.5" y2="946.3" stroke="#2e2818" stroke-width="17.2" stroke-linecap="round"/><circle cx="457.5" cy="946.3" r="17.2" fill="#9c7426"/><line x1="457.5" y1="1183.9" x2="518.2" y2="972.1" stroke="#2e2818" stroke-width="17.2" stroke-linecap="round"/><circle cx="518.2" cy="972.1" r="17.2" fill="#9c7426"/><line x1="457.5" y1="1183.9" x2="565.1" y2="1011.7" stroke="#2e2818" stroke-width="17.2" stroke-linecap="round"/><circle cx="565.1" cy="1011.7" r="17.2" fill="#9c7426"/><line x1="457.5" y1="1183.9" x2="595.6" y2="1059.5" stroke="#2e2818" stroke-width="17.2" stroke-linecap="round"/><circle cx="595.6" cy="1059.5" r="17.2" fill="#9c7426"/><line x1="457.5" y1="1183.9" x2="609.1" y2="1110" stroke="#2e2818" stroke-width="17.2" stroke-linecap="round"/><circle cx="609.1" cy="1110" r="17.2" fill="#9c7426"/><line x1="952.5" y1="1394.7" x2="952.5" y2="1170.4" stroke="#2e2818" stroke-width="24.5"/><line x1="952.5" y1="1170.4" x2="791.2" y2="1091.7" stroke="#2e2818" stroke-width="18.4" stroke-linecap="round"/><circle cx="791.2" cy="1091.7" r="18.4" fill="#9c7426"/><line x1="952.5" y1="1170.4" x2="805.5" y2="1038" stroke="#2e2818" stroke-width="18.4" stroke-linecap="round"/><circle cx="805.5" cy="1038" r="18.4" fill="#9c7426"/><line x1="952.5" y1="1170.4" x2="838" y2="987.1" stroke="#2e2818" stroke-width="18.4" stroke-linecap="round"/><circle cx="838" cy="987.1" r="18.4" fill="#9c7426"/><line x1="952.5" y1="1170.4" x2="887.9" y2="945" stroke="#2e2818" stroke-width="18.4" stroke-linecap="round"/><circle cx="887.9" cy="945" r="18.4" fill="#9c7426"/><line x1="952.5" y1="1170.4" x2="952.5" y2="917.5" stroke="#2e2818" stroke-width="18.4" stroke-linecap="round"/><circle cx="952.5" cy="917.5" r="18.4" fill="#9c7426"/><line x1="952.5" y1="1170.4" x2="1017.1" y2="945" stroke="#2e2818" stroke-width="18.4" stroke-linecap="round"/><circle cx="1017.1" cy="945" r="18.4" fill="#9c7426"/><line x1="952.5" y1="1170.4" x2="1067" y2="987.1" stroke="#2e2818" stroke-width="18.4" stroke-linecap="round"/><circle cx="1067" cy="987.1" r="18.4" fill="#9c7426"/><line x1="952.5" y1="1170.4" x2="1099.5" y2="1038" stroke="#2e2818" stroke-width="18.4" stroke-linecap="round"/><circle cx="1099.5" cy="1038" r="18.4" fill="#9c7426"/><line x1="952.5" y1="1170.4" x2="1113.8" y2="1091.7" stroke="#2e2818" stroke-width="18.4" stroke-linecap="round"/><circle cx="1113.8" cy="1091.7" r="18.4" fill="#9c7426"/><line x1="1447.5" y1="1394.7" x2="1447.5" y2="1185.4" stroke="#2e2818" stroke-width="22.8"/><line x1="1447.5" y1="1185.4" x2="1297" y2="1111.9" stroke="#2e2818" stroke-width="17.1" stroke-linecap="round"/><circle cx="1297" cy="1111.9" r="17.1" fill="#9c7426"/><line x1="1447.5" y1="1185.4" x2="1310.3" y2="1061.8" stroke="#2e2818" stroke-width="17.1" stroke-linecap="round"/><circle cx="1310.3" cy="1061.8" r="17.1" fill="#9c7426"/><line x1="1447.5" y1="1185.4" x2="1340.6" y2="1014.3" stroke="#2e2818" stroke-width="17.1" stroke-linecap="round"/><circle cx="1340.6" cy="1014.3" r="17.1" fill="#9c7426"/><line x1="1447.5" y1="1185.4" x2="1387.2" y2="975" stroke="#2e2818" stroke-width="17.1" stroke-linecap="round"/><circle cx="1387.2" cy="975" r="17.1" fill="#9c7426"/><line x1="1447.5" y1="1185.4" x2="1447.5" y2="949.4" stroke="#2e2818" stroke-width="17.1" stroke-linecap="round"/><circle cx="1447.5" cy="949.4" r="17.1" fill="#9c7426"/><line x1="1447.5" y1="1185.4" x2="1507.8" y2="975" stroke="#2e2818" stroke-width="17.1" stroke-linecap="round"/><circle cx="1507.8" cy="975" r="17.1" fill="#9c7426"/><line x1="1447.5" y1="1185.4" x2="1554.4" y2="1014.3" stroke="#2e2818" stroke-width="17.1" stroke-linecap="round"/><circle cx="1554.4" cy="1014.3" r="17.1" fill="#9c7426"/><line x1="1447.5" y1="1185.4" x2="1584.7" y2="1061.8" stroke="#2e2818" stroke-width="17.1" stroke-linecap="round"/><circle cx="1584.7" cy="1061.8" r="17.1" fill="#9c7426"/><line x1="1447.5" y1="1185.4" x2="1598" y2="1111.9" stroke="#2e2818" stroke-width="17.1" stroke-linecap="round"/><circle cx="1598" cy="1111.9" r="17.1" fill="#9c7426"/><line x1="1942.5" y1="1394.7" x2="1942.5" y2="1188.9" stroke="#2e2818" stroke-width="22.4"/><line x1="1942.5" y1="1188.9" x2="1794.5" y2="1116.8" stroke="#2e2818" stroke-width="16.8" stroke-linecap="round"/><circle cx="1794.5" cy="1116.8" r="16.8" fill="#9c7426"/><line x1="1942.5" y1="1188.9" x2="1807.7" y2="1067.5" stroke="#2e2818" stroke-width="16.8" stroke-linecap="round"/><circle cx="1807.7" cy="1067.5" r="16.8" fill="#9c7426"/><line x1="1942.5" y1="1188.9" x2="1837.4" y2="1020.8" stroke="#2e2818" stroke-width="16.8" stroke-linecap="round"/><circle cx="1837.4" cy="1020.8" r="16.8" fill="#9c7426"/><line x1="1942.5" y1="1188.9" x2="1883.2" y2="982.1" stroke="#2e2818" stroke-width="16.8" stroke-linecap="round"/><circle cx="1883.2" cy="982.1" r="16.8" fill="#9c7426"/><line x1="1942.5" y1="1188.9" x2="1942.5" y2="957" stroke="#2e2818" stroke-width="16.8" stroke-linecap="round"/><circle cx="1942.5" cy="957" r="16.8" fill="#9c7426"/><line x1="1942.5" y1="1188.9" x2="2001.8" y2="982.1" stroke="#2e2818" stroke-width="16.8" stroke-linecap="round"/><circle cx="2001.8" cy="982.1" r="16.8" fill="#9c7426"/><line x1="1942.5" y1="1188.9" x2="2047.6" y2="1020.8" stroke="#2e2818" stroke-width="16.8" stroke-linecap="round"/><circle cx="2047.6" cy="1020.8" r="16.8" fill="#9c7426"/><line x1="1942.5" y1="1188.9" x2="2077.3" y2="1067.5" stroke="#2e2818" stroke-width="16.8" stroke-linecap="round"/><circle cx="2077.3" cy="1067.5" r="16.8" fill="#9c7426"/><line x1="1942.5" y1="1188.9" x2="2090.5" y2="1116.8" stroke="#2e2818" stroke-width="16.8" stroke-linecap="round"/><circle cx="2090.5" cy="1116.8" r="16.8" fill="#9c7426"/><path d="M0 0 Q 66.3 -103 0 -271.1 Q -66.3 -103 0 0 Z" fill="#2e2818" opacity="1" transform="translate(457.5 1979.7) rotate(-58)"/><path d="M0 0 Q 66.3 -115.3 0 -303.4 Q -66.3 -115.3 0 0 Z" fill="#9c7426" opacity="1" transform="translate(457.5 1979.7) rotate(-38.7)"/><path d="M0 0 Q 66.3 -127.6 0 -335.8 Q -66.3 -127.6 0 0 Z" fill="#2e2818" opacity="1" transform="translate(457.5 1979.7) rotate(-19.3)"/><path d="M0 0 Q 66.3 -139.9 0 -368.2 Q -66.3 -139.9 0 0 Z" fill="#9c7426" opacity="1" transform="translate(457.5 1979.7) rotate(0)"/><path d="M0 0 Q 66.3 -127.6 0 -335.8 Q -66.3 -127.6 0 0 Z" fill="#2e2818" opacity="1" transform="translate(457.5 1979.7) rotate(19.3)"/><path d="M0 0 Q 66.3 -115.3 0 -303.4 Q -66.3 -115.3 0 0 Z" fill="#9c7426" opacity="1" transform="translate(457.5 1979.7) rotate(38.7)"/><path d="M0 0 Q 66.3 -103 0 -271.1 Q -66.3 -103 0 0 Z" fill="#2e2818" opacity="1" transform="translate(457.5 1979.7) rotate(58)"/><path d="M347.1,1979.7 Q457.5,2104.9 567.9,1979.7 Z" fill="#2e2818"/><path d="M0 0 Q 65 -123.4 0 -324.8 Q -65 -123.4 0 0 Z" fill="#9c7426" opacity="1" transform="translate(952.5 1979.7) rotate(0)"/><line x1="952.5" y1="1979.7" x2="952.5" y2="2026.5" stroke="#2e2818" stroke-width="20.3"/><path d="M0 0 Q 74 -115.1 0 -302.9 Q -74 -115.1 0 0 Z" fill="#2e2818" opacity="1" transform="translate(1447.5 1979.7) rotate(-58)"/><path d="M0 0 Q 74 -128.8 0 -339 Q -74 -128.8 0 0 Z" fill="#9c7426" opacity="1" transform="translate(1447.5 1979.7) rotate(-38.7)"/><path d="M0 0 Q 74 -142.6 0 -375.2 Q -74 -142.6 0 0 Z" fill="#2e2818" opacity="1" transform="translate(1447.5 1979.7) rotate(-19.3)"/><path d="M0 0 Q 74 -156.3 0 -411.3 Q -74 -156.3 0 0 Z" fill="#9c7426" opacity="1" transform="translate(1447.5 1979.7) rotate(0)"/><path d="M0 0 Q 74 -142.6 0 -375.2 Q -74 -142.6 0 0 Z" fill="#2e2818" opacity="1" transform="translate(1447.5 1979.7) rotate(19.3)"/><path d="M0 0 Q 74 -128.8 0 -339 Q -74 -128.8 0 0 Z" fill="#9c7426" opacity="1" transform="translate(1447.5 1979.7) rotate(38.7)"/><path d="M0 0 Q 74 -115.1 0 -302.9 Q -74 -115.1 0 0 Z" fill="#2e2818" opacity="1" transform="translate(1447.5 1979.7) rotate(58)"/><path d="M1324.1,1979.7 Q1447.5,2119.5 1570.9,1979.7 Z" fill="#2e2818"/><path d="M0 0 Q 59.9 -113.8 0 -299.4 Q -59.9 -113.8 0 0 Z" fill="#9c7426" opacity="1" transform="translate(1942.5 1979.7) rotate(0)"/><line x1="1942.5" y1="1979.7" x2="1942.5" y2="2026.5" stroke="#2e2818" stroke-width="18.7"/><line x1="457.5" y1="2564.7" x2="457.5" y2="2333.5" stroke="#2e2818" stroke-width="25.2"/><line x1="457.5" y1="2333.5" x2="291.2" y2="2252.4" stroke="#2e2818" stroke-width="18.9" stroke-linecap="round"/><circle cx="291.2" cy="2252.4" r="18.9" fill="#9c7426"/><line x1="457.5" y1="2333.5" x2="306" y2="2197" stroke="#2e2818" stroke-width="18.9" stroke-linecap="round"/><circle cx="306" cy="2197" r="18.9" fill="#9c7426"/><line x1="457.5" y1="2333.5" x2="339.4" y2="2144.5" stroke="#2e2818" stroke-width="18.9" stroke-linecap="round"/><circle cx="339.4" cy="2144.5" r="18.9" fill="#9c7426"/><line x1="457.5" y1="2333.5" x2="390.9" y2="2101.1" stroke="#2e2818" stroke-width="18.9" stroke-linecap="round"/><circle cx="390.9" cy="2101.1" r="18.9" fill="#9c7426"/><line x1="457.5" y1="2333.5" x2="457.5" y2="2072.8" stroke="#2e2818" stroke-width="18.9" stroke-linecap="round"/><circle cx="457.5" cy="2072.8" r="18.9" fill="#9c7426"/><line x1="457.5" y1="2333.5" x2="524.1" y2="2101.1" stroke="#2e2818" stroke-width="18.9" stroke-linecap="round"/><circle cx="524.1" cy="2101.1" r="18.9" fill="#9c7426"/><line x1="457.5" y1="2333.5" x2="575.6" y2="2144.5" stroke="#2e2818" stroke-width="18.9" stroke-linecap="round"/><circle cx="575.6" cy="2144.5" r="18.9" fill="#9c7426"/><line x1="457.5" y1="2333.5" x2="609" y2="2197" stroke="#2e2818" stroke-width="18.9" stroke-linecap="round"/><circle cx="609" cy="2197" r="18.9" fill="#9c7426"/><line x1="457.5" y1="2333.5" x2="623.8" y2="2252.4" stroke="#2e2818" stroke-width="18.9" stroke-linecap="round"/><circle cx="623.8" cy="2252.4" r="18.9" fill="#9c7426"/><line x1="952.5" y1="2564.7" x2="952.5" y2="2361.9" stroke="#2e2818" stroke-width="22.1"/><line x1="952.5" y1="2361.9" x2="806.7" y2="2290.8" stroke="#2e2818" stroke-width="16.6" stroke-linecap="round"/><circle cx="806.7" cy="2290.8" r="16.6" fill="#9c7426"/><line x1="952.5" y1="2361.9" x2="819.6" y2="2242.2" stroke="#2e2818" stroke-width="16.6" stroke-linecap="round"/><circle cx="819.6" cy="2242.2" r="16.6" fill="#9c7426"/><line x1="952.5" y1="2361.9" x2="848.9" y2="2196.2" stroke="#2e2818" stroke-width="16.6" stroke-linecap="round"/><circle cx="848.9" cy="2196.2" r="16.6" fill="#9c7426"/><line x1="952.5" y1="2361.9" x2="894.1" y2="2158.1" stroke="#2e2818" stroke-width="16.6" stroke-linecap="round"/><circle cx="894.1" cy="2158.1" r="16.6" fill="#9c7426"/><line x1="952.5" y1="2361.9" x2="952.5" y2="2133.3" stroke="#2e2818" stroke-width="16.6" stroke-linecap="round"/><circle cx="952.5" cy="2133.3" r="16.6" fill="#9c7426"/><line x1="952.5" y1="2361.9" x2="1010.9" y2="2158.1" stroke="#2e2818" stroke-width="16.6" stroke-linecap="round"/><circle cx="1010.9" cy="2158.1" r="16.6" fill="#9c7426"/><line x1="952.5" y1="2361.9" x2="1056.1" y2="2196.2" stroke="#2e2818" stroke-width="16.6" stroke-linecap="round"/><circle cx="1056.1" cy="2196.2" r="16.6" fill="#9c7426"/><line x1="952.5" y1="2361.9" x2="1085.4" y2="2242.2" stroke="#2e2818" stroke-width="16.6" stroke-linecap="round"/><circle cx="1085.4" cy="2242.2" r="16.6" fill="#9c7426"/><line x1="952.5" y1="2361.9" x2="1098.3" y2="2290.8" stroke="#2e2818" stroke-width="16.6" stroke-linecap="round"/><circle cx="1098.3" cy="2290.8" r="16.6" fill="#9c7426"/><line x1="1447.5" y1="2564.7" x2="1447.5" y2="2350.9" stroke="#2e2818" stroke-width="23.3"/><line x1="1447.5" y1="2350.9" x2="1293.8" y2="2275.9" stroke="#2e2818" stroke-width="17.5" stroke-linecap="round"/><circle cx="1293.8" cy="2275.9" r="17.5" fill="#9c7426"/><line x1="1447.5" y1="2350.9" x2="1307.4" y2="2224.8" stroke="#2e2818" stroke-width="17.5" stroke-linecap="round"/><circle cx="1307.4" cy="2224.8" r="17.5" fill="#9c7426"/><line x1="1447.5" y1="2350.9" x2="1338.3" y2="2176.2" stroke="#2e2818" stroke-width="17.5" stroke-linecap="round"/><circle cx="1338.3" cy="2176.2" r="17.5" fill="#9c7426"/><line x1="1447.5" y1="2350.9" x2="1385.9" y2="2136.1" stroke="#2e2818" stroke-width="17.5" stroke-linecap="round"/><circle cx="1385.9" cy="2136.1" r="17.5" fill="#9c7426"/><line x1="1447.5" y1="2350.9" x2="1447.5" y2="2109.9" stroke="#2e2818" stroke-width="17.5" stroke-linecap="round"/><circle cx="1447.5" cy="2109.9" r="17.5" fill="#9c7426"/><line x1="1447.5" y1="2350.9" x2="1509.1" y2="2136.1" stroke="#2e2818" stroke-width="17.5" stroke-linecap="round"/><circle cx="1509.1" cy="2136.1" r="17.5" fill="#9c7426"/><line x1="1447.5" y1="2350.9" x2="1556.7" y2="2176.2" stroke="#2e2818" stroke-width="17.5" stroke-linecap="round"/><circle cx="1556.7" cy="2176.2" r="17.5" fill="#9c7426"/><line x1="1447.5" y1="2350.9" x2="1587.6" y2="2224.8" stroke="#2e2818" stroke-width="17.5" stroke-linecap="round"/><circle cx="1587.6" cy="2224.8" r="17.5" fill="#9c7426"/><line x1="1447.5" y1="2350.9" x2="1601.2" y2="2275.9" stroke="#2e2818" stroke-width="17.5" stroke-linecap="round"/><circle cx="1601.2" cy="2275.9" r="17.5" fill="#9c7426"/><line x1="1942.5" y1="2564.7" x2="1942.5" y2="2345.7" stroke="#2e2818" stroke-width="23.9"/><line x1="1942.5" y1="2345.7" x2="1785" y2="2268.9" stroke="#2e2818" stroke-width="17.9" stroke-linecap="round"/><circle cx="1785" cy="2268.9" r="17.9" fill="#9c7426"/><line x1="1942.5" y1="2345.7" x2="1799" y2="2216.5" stroke="#2e2818" stroke-width="17.9" stroke-linecap="round"/><circle cx="1799" cy="2216.5" r="17.9" fill="#9c7426"/><line x1="1942.5" y1="2345.7" x2="1830.7" y2="2166.8" stroke="#2e2818" stroke-width="17.9" stroke-linecap="round"/><circle cx="1830.7" cy="2166.8" r="17.9" fill="#9c7426"/><line x1="1942.5" y1="2345.7" x2="1879.4" y2="2125.7" stroke="#2e2818" stroke-width="17.9" stroke-linecap="round"/><circle cx="1879.4" cy="2125.7" r="17.9" fill="#9c7426"/><line x1="1942.5" y1="2345.7" x2="1942.5" y2="2098.9" stroke="#2e2818" stroke-width="17.9" stroke-linecap="round"/><circle cx="1942.5" cy="2098.9" r="17.9" fill="#9c7426"/><line x1="1942.5" y1="2345.7" x2="2005.6" y2="2125.7" stroke="#2e2818" stroke-width="17.9" stroke-linecap="round"/><circle cx="2005.6" cy="2125.7" r="17.9" fill="#9c7426"/><line x1="1942.5" y1="2345.7" x2="2054.3" y2="2166.8" stroke="#2e2818" stroke-width="17.9" stroke-linecap="round"/><circle cx="2054.3" cy="2166.8" r="17.9" fill="#9c7426"/><line x1="1942.5" y1="2345.7" x2="2086" y2="2216.5" stroke="#2e2818" stroke-width="17.9" stroke-linecap="round"/><circle cx="2086" cy="2216.5" r="17.9" fill="#9c7426"/><line x1="1942.5" y1="2345.7" x2="2100" y2="2268.9" stroke="#2e2818" stroke-width="17.9" stroke-linecap="round"/><circle cx="2100" cy="2268.9" r="17.9" fill="#9c7426"/><rect x="120" y="120" width="2160" height="2760" fill="none" stroke="#2e2818" stroke-width="6" opacity="0.85"/></g><rect width="2400" height="3000" filter="url(#a20-mottle)" style="mix-blend-mode:multiply" opacity="0.5"/><rect width="2400" height="3000" filter="url(#a20-fade)" style="mix-blend-mode:screen" opacity="0.55"/><rect width="2400" height="3000" filter="url(#a20-grain)" style="mix-blend-mode:multiply" opacity="0.32"/><ellipse cx="2027.1" cy="2379.5" rx="244.5" ry="237.6" fill="#6b4a22" opacity="0.067" filter="url(#a20-blur9)"/><ellipse cx="1414.4" cy="1997.8" rx="209.1" ry="131" fill="#6b4a22" opacity="0.055" filter="url(#a20-blur9)"/><ellipse cx="1249.5" cy="1996.3" rx="309.4" ry="291.8" fill="#6b4a22" opacity="0.070" filter="url(#a20-blur9)"/><rect x="0" width="19.9" height="3000" fill="#fff2d0" opacity="0.017"/><rect x="39.9" width="30.3" height="3000" fill="#fff2d0" opacity="0.028"/><rect x="100.5" width="20.3" height="3000" fill="#fff2d0" opacity="0.017"/><rect x="141.1" width="17.8" height="3000" fill="#fff2d0" opacity="0.016"/><rect x="176.7" width="35" height="3000" fill="#fff2d0" opacity="0.033"/><rect x="246.6" width="24" height="3000" fill="#fff2d0" opacity="0.041"/><rect x="294.6" width="25.7" height="3000" fill="#fff2d0" opacity="0.044"/><rect x="345.9" width="23.1" height="3000" fill="#fff2d0" opacity="0.021"/><rect x="392.2" width="18.5" height="3000" fill="#fff2d0" opacity="0.027"/><rect x="429.1" width="27.1" height="3000" fill="#fff2d0" opacity="0.016"/><rect x="483.4" width="32.3" height="3000" fill="#fff2d0" opacity="0.037"/><rect x="548" width="15.8" height="3000" fill="#fff2d0" opacity="0.032"/><rect x="579.6" width="26.6" height="3000" fill="#fff2d0" opacity="0.040"/><rect x="632.7" width="21.9" height="3000" fill="#fff2d0" opacity="0.021"/><rect x="676.5" width="18.7" height="3000" fill="#fff2d0" opacity="0.045"/><rect x="714" width="17.8" height="3000" fill="#fff2d0" opacity="0.029"/><rect x="749.6" width="23.1" height="3000" fill="#fff2d0" opacity="0.021"/><rect x="795.7" width="33.3" height="3000" fill="#fff2d0" opacity="0.032"/><rect x="862.2" width="23" height="3000" fill="#fff2d0" opacity="0.036"/><rect x="908.2" width="32.5" height="3000" fill="#fff2d0" opacity="0.036"/><rect x="973.2" width="19.6" height="3000" fill="#fff2d0" opacity="0.020"/><rect x="1012.4" width="26.2" height="3000" fill="#fff2d0" opacity="0.023"/><rect x="1064.8" width="17.2" height="3000" fill="#fff2d0" opacity="0.016"/><rect x="1099.3" width="15.3" height="3000" fill="#fff2d0" opacity="0.044"/><rect x="1129.8" width="21.5" height="3000" fill="#fff2d0" opacity="0.021"/><rect x="1172.9" width="23.7" height="3000" fill="#fff2d0" opacity="0.042"/><rect x="1220.3" width="27.3" height="3000" fill="#fff2d0" opacity="0.032"/><rect x="1274.9" width="20.6" height="3000" fill="#fff2d0" opacity="0.021"/><rect x="1316.2" width="17.1" height="3000" fill="#fff2d0" opacity="0.035"/><rect x="1350.4" width="23.7" height="3000" fill="#fff2d0" opacity="0.041"/><rect x="1397.8" width="26.9" height="3000" fill="#fff2d0" opacity="0.025"/><rect x="1451.6" width="22.4" height="3000" fill="#fff2d0" opacity="0.029"/><rect x="1496.3" width="16.5" height="3000" fill="#fff2d0" opacity="0.030"/><rect x="1529.4" width="29.9" height="3000" fill="#fff2d0" opacity="0.027"/><rect x="1589.3" width="27.1" height="3000" fill="#fff2d0" opacity="0.019"/><rect x="1643.4" width="31.6" height="3000" fill="#fff2d0" opacity="0.019"/><rect x="1706.5" width="24.4" height="3000" fill="#fff2d0" opacity="0.035"/><rect x="1755.3" width="18.8" height="3000" fill="#fff2d0" opacity="0.016"/><rect x="1792.9" width="31.7" height="3000" fill="#fff2d0" opacity="0.034"/><rect x="1856.3" width="19" height="3000" fill="#fff2d0" opacity="0.022"/><rect x="1894.2" width="28.5" height="3000" fill="#fff2d0" opacity="0.017"/><rect x="1951.2" width="24.9" height="3000" fill="#fff2d0" opacity="0.035"/><rect x="2000.9" width="32.6" height="3000" fill="#fff2d0" opacity="0.034"/><rect x="2066.1" width="21.4" height="3000" fill="#fff2d0" opacity="0.035"/><rect x="2109" width="31.4" height="3000" fill="#fff2d0" opacity="0.044"/><rect x="2171.8" width="20.1" height="3000" fill="#fff2d0" opacity="0.027"/><rect x="2212" width="29.5" height="3000" fill="#fff2d0" opacity="0.036"/><rect x="2270.9" width="16.5" height="3000" fill="#fff2d0" opacity="0.032"/><rect x="2303.9" width="28.3" height="3000" fill="#fff2d0" opacity="0.034"/><rect x="2360.4" width="28.5" height="3000" fill="#fff2d0" opacity="0.036"/><linearGradient id="a20-er" x1="0" x2="1" y1="0" y2="0"><stop offset="0" stop-color="#3a2a12" stop-opacity="0.22"/><stop offset="1" stop-color="#3a2a12" stop-opacity="0"/></linearGradient><rect x="0" y="0" width="90" height="3000" fill="url(#a20-er)"/><linearGradient id="a20-el" x1="1" x2="0" y1="0" y2="0"><stop offset="0" stop-color="#3a2a12" stop-opacity="0.22"/><stop offset="1" stop-color="#3a2a12" stop-opacity="0"/></linearGradient><rect x="2310" y="0" width="90" height="3000" fill="url(#a20-el)"/><linearGradient id="a20-ed" x1="0" x2="0" y1="0" y2="1"><stop offset="0" stop-color="#3a2a12" stop-opacity="0.22"/><stop offset="1" stop-color="#3a2a12" stop-opacity="0"/></linearGradient><rect x="0" y="0" width="2400" height="90" fill="url(#a20-ed)"/><linearGradient id="a20-eu" x1="0" x2="0" y1="1" y2="0"><stop offset="0" stop-color="#3a2a12" stop-opacity="0.22"/><stop offset="1" stop-color="#3a2a12" stop-opacity="0"/></linearGradient><rect x="0" y="2910" width="2400" height="90" fill="url(#a20-eu)"/><circle cx="835.5" cy="120.3" r="8.8" fill="#8a5a2e" opacity="0.093"/><circle cx="2014.5" cy="2436.7" r="9.4" fill="#8a5a2e" opacity="0.076"/><circle cx="1244.2" cy="2366.8" r="7.5" fill="#8a5a2e" opacity="0.092"/><circle cx="2196.1" cy="2369.8" r="14.3" fill="#8a5a2e" opacity="0.120"/><circle cx="781.1" cy="2789" r="7.9" fill="#8a5a2e" opacity="0.088"/><circle cx="284.7" cy="1811.9" r="11.8" fill="#8a5a2e" opacity="0.074"/><circle cx="1259.2" cy="2112.4" r="5.9" fill="#8a5a2e" opacity="0.085"/><circle cx="2233.1" cy="1609.1" r="10.5" fill="#8a5a2e" opacity="0.054"/><circle cx="1081.7" cy="2746.2" r="9.3" fill="#8a5a2e" opacity="0.095"/><circle cx="1303.4" cy="523.2" r="9.1" fill="#8a5a2e" opacity="0.077"/><rect width="2400" height="3000" fill="url(#a20-vig)"/></svg></svg>