<svg xmlns="http://www.w3.org/2000/svg" width="2400" height="1800" viewBox="0 0 2400 1800"><rect width="2400" height="1800" fill="#e9e1d2"/><rect y="1430" width="2400" height="370" fill="#c8b190"/><line x1="120" y1="1430" x2="60" y2="1800" stroke="#00000018" stroke-width="6"/><line x1="380" y1="1430" x2="320" y2="1800" stroke="#00000018" stroke-width="6"/><line x1="640" y1="1430" x2="580" y2="1800" stroke="#00000018" stroke-width="6"/><line x1="900" y1="1430" x2="840" y2="1800" stroke="#00000018" stroke-width="6"/><line x1="1160" y1="1430" x2="1100" y2="1800" stroke="#00000018" stroke-width="6"/><line x1="1420" y1="1430" x2="1360" y2="1800" stroke="#00000018" stroke-width="6"/><line x1="1680" y1="1430" x2="1620" y2="1800" stroke="#00000018" stroke-width="6"/><line x1="1940" y1="1430" x2="1880" y2="1800" stroke="#00000018" stroke-width="6"/><line x1="2200" y1="1430" x2="2140" y2="1800" stroke="#00000018" stroke-width="6"/><rect y="1418" width="2400" height="16" fill="#d7cbb6"/><rect x="700" y="980" width="1000" height="460" rx="26" fill="#a87e57"/><rect x="660" y="1290" width="1080" height="210" rx="30" fill="#f1ebdf"/><rect x="660" y="1420" width="1080" height="120" rx="24" fill="#7c5636" opacity="0.85"/><rect x="770" y="1180" width="300" height="150" rx="40" fill="#faf6ec"/><rect x="1330" y="1180" width="300" height="150" rx="40" fill="#a99878"/><rect x="640" y="1530" width="1120" height="26" rx="12" fill="#a87e57"/><rect x="360" y="1260" width="240" height="220" rx="10" fill="#a87e57"/><rect x="380" y="1300" width="200" height="14" fill="#00000022"/><line x1="480" y1="1260" x2="480" y2="1130" stroke="#5a4632" stroke-width="12"/><path d="M410,1130 L550,1130 L520,1020 L440,1020 Z" fill="#7c5636"/><path d="M2060,1520 Q 1910,1282.5 1835,1345" fill="none" stroke="#5d7052" stroke-width="20" stroke-linecap="round"/><path d="M2060,1520 Q 1960,1282.5 1910,1295" fill="none" stroke="#5d7052" stroke-width="20" stroke-linecap="round"/><path d="M2060,1520 Q 2010,1282.5 1985,1245" fill="none" stroke="#5d7052" stroke-width="20" stroke-linecap="round"/><path d="M2060,1520 Q 2060,1282.5 2060,1195" fill="none" stroke="#5d7052" stroke-width="20" stroke-linecap="round"/><path d="M2060,1520 Q 2110,1282.5 2135,1245" fill="none" stroke="#5d7052" stroke-width="20" stroke-linecap="round"/><path d="M2060,1520 Q 2160,1282.5 2210,1295" fill="none" stroke="#5d7052" stroke-width="20" stroke-linecap="round"/><path d="M2060,1520 Q 2210,1282.5 2285,1345" fill="none" stroke="#5d7052" stroke-width="20" stroke-linecap="round"/><path d="M1972.5,1520 L2147.5,1520 L2125,1657.5 L1995,1657.5 Z" fill="#a9714d"/><defs><filter id="a53b-sh" x="-30%" y="-30%" width="160%" height="160%"><feGaussianBlur stdDeviation="16"/></filter></defs><rect x="928" y="246" width="572" height="702" fill="#000" opacity="0.28" filter="url(#a53b-sh)"/><rect x="914" y="224" width="572" height="702" fill="#4a3d2f"/><rect x="930.9" y="240.9" width="538.2" height="668.2" fill="none" stroke="#00000055" stroke-width="3"/><rect x="940" y="250" width="520" height="650" fill="#f6f2ea"/><svg x="979" y="289" width="442" height="572" viewBox="0 0 2400 3000" preserveAspectRatio="xMidYMid slice"><filter id="a53-warp" x="-4%" y="-4%" width="108%" height="108%"><feTurbulence type="fractalNoise" baseFrequency="0.0105" numOctaves="2" seed="1491" result="w"/><feDisplacementMap in="SourceGraphic" in2="w" scale="7" xChannelSelector="R" yChannelSelector="G"/></filter><filter id="a53-grain" x="0%" y="0%" width="100%" height="100%"><feTurbulence type="fractalNoise" baseFrequency="0.6" numOctaves="2" seed="1498"/><feColorMatrix type="matrix" values="0.33 0.33 0.33 0 0.62  0.33 0.33 0.33 0 0.62  0.33 0.33 0.33 0 0.62  0 0 0 0 1"/></filter><filter id="a53-mottle" x="0%" y="0%" width="100%" height="100%"><feTurbulence type="fractalNoise" baseFrequency="0.0045" numOctaves="3" seed="1504"/><feColorMatrix type="matrix" values="0.2 0.2 0.2 0 0.78  0.2 0.2 0.2 0 0.78  0.2 0.2 0.2 0 0.78  0 0 0 0 1"/></filter><filter id="a53-fade" x="0%" y="0%" width="100%" height="100%"><feTurbulence type="fractalNoise" baseFrequency="0.006" numOctaves="2" seed="1520"/><feColorMatrix type="matrix" values="0.3 0.3 0.3 0 -0.08  0.3 0.3 0.3 0 -0.08  0.3 0.3 0.3 0 -0.1  0 0 0 0 1"/></filter><filter id="a53-blur9"><feGaussianBlur stdDeviation="9"/></filter><radialGradient id="a53-vig" cx="50%" cy="44%" r="78%"><stop offset="52%" stop-color="#241a10" stop-opacity="0"/><stop offset="100%" stop-color="#241a10" stop-opacity="0.17"/></radialGradient><radialGradient id="a53-warm" cx="41%" cy="30%" r="85%"><stop offset="0%" stop-color="#e8c890" stop-opacity="0.14"/><stop offset="70%" stop-color="#e8c890" stop-opacity="0"/></radialGradient><rect width="2400" height="3000" fill="#e5dbc6"/><rect width="2400" height="3000" fill="url(#a53-warm)"/><g filter="url(#a53-warp)"><path d="M2025.6,1848.3 Q1931.5,2176.7 1696.9,2348.3 Q1462.3,2520 1205.9,2557.3 Q949.4,2594.7 711.1,2360 Q472.8,2125.4 405.9,1822.7 Q339.1,1520 428,1230.9 Q517,941.8 731.1,688.4 Q945.1,434.9 1205.8,423.7 Q1466.5,412.4 1691,651.1 Q1915.5,889.8 2017.6,1204.9 Q2119.6,1520 2025.6,1848.3 Z" fill="#a99878" stroke="#38322a" stroke-width="10"/><clipPath id="a53-st"><path d="M2025.6,1848.3 Q1931.5,2176.7 1696.9,2348.3 Q1462.3,2520 1205.9,2557.3 Q949.4,2594.7 711.1,2360 Q472.8,2125.4 405.9,1822.7 Q339.1,1520 428,1230.9 Q517,941.8 731.1,688.4 Q945.1,434.9 1205.8,423.7 Q1466.5,412.4 1691,651.1 Q1915.5,889.8 2017.6,1204.9 Q2119.6,1520 2025.6,1848.3 Z"/></clipPath><g clip-path="url(#a53-st)"><polyline points="1200,1572.3 1203.6,1574.7 1208.3,1575.9 1213.7,1575.6 1219.4,1573.5 1224.7,1569.6 1229.1,1563.8 1231.9,1556.4 1232.8,1548 1231.4,1538.9 1227.4,1530 1220.8,1521.8 1211.8,1515.2 1200.9,1510.9 1188.6,1509.3 1175.6,1510.9 1162.8,1516 1151.1,1524.5 1141.4,1536 1134.6,1550.3 1131.3,1566.4 1132.1,1583.4 1137.3,1600.5 1146.8,1616.3 1160.3,1629.8 1177.2,1640 1196.8,1645.9 1217.9,1647 1239.3,1642.8 1259.7,1633.2 1277.7,1618.6 1292,1599.6 1301.6,1577 1305.5,1552.2 1303.3,1526.4 1294.8,1501.3 1280.1,1478.4 1259.8,1459.3 1235,1445.2 1206.8,1437.4 1176.9,1436.5 1147,1442.9 1118.9,1456.7 1094.5,1477.2 1075.2,1503.5 1062.6,1534.3 1057.6,1567.9 1060.8,1602.4 1072.5,1635.7 1092.1,1665.9 1118.9,1690.9 1151.5,1709.1 1188.2,1719.2 1226.9,1720.3 1265.4,1711.9 1301.3,1694.2 1332.6,1668 1357,1634.6 1373,1595.7 1379.4,1553.4 1375.4,1510.1 1360.9,1468.4 1336.6,1430.8 1303.4,1399.6 1263.2,1377 1218.1,1364.3 1170.6,1362.8 1123.5,1372.9 1079.5,1394.2" fill="none" stroke="#38322a" stroke-width="22" stroke-linecap="round" stroke-linejoin="round"/><polyline points="990.2,1208.8 989.9,1204.5 991.2,1199.8 994.1,1195.3 998.8,1191.5 1004.9,1188.8 1012.1,1187.9 1019.9,1189.1 1027.6,1192.6 1034.8,1198.4 1040.5,1206.3 1044.3,1216.1 1045.5,1227.1 1043.8,1238.8 1039,1250.3 1031.1,1260.7 1020.3,1269.2 1007.1,1275.1 992.3,1277.7 976.5,1276.5 961,1271.3 946.6,1262.1 934.4,1249.1 925.4,1233 920.5,1214.5 920.2,1194.7 924.8,1174.8 934.4,1156 948.8,1139.6 967.2,1126.7 988.9,1118.4 1012.5,1115.5 1036.8,1118.5 1060.3,1127.5 1081.6,1142.3 1099,1162.3 1111.5,1186.4 1118,1213.6 1117.7,1242.1 1110.4,1270.4 1096.2,1296.8 1075.7,1319.4 1049.8,1336.9 1019.8,1347.8 987.3,1351.3 954.3,1346.9 922.8,1334.4 894.5,1314.3 871.5,1287.6 855.2,1255.5 846.9,1219.7 847.4,1182.4 857,1145.6 875.5,1111.6 902,1082.5 935.3,1060.1 973.5,1046.2 1014.7,1041.7 1056.4,1047.3 1096.2,1063 1131.7,1088.1 1160.6,1121.4 1181,1161.3 1191.4,1205.6 1191,1251.8 1179.3,1297.1 1156.9,1339 1124.6,1374.8 1084.2,1402.3" fill="none" stroke="#38322a" stroke-width="22" stroke-linecap="round" stroke-linejoin="round"/><polyline points="1409.8,1208.8 1410.1,1204.5 1408.8,1199.8 1405.9,1195.3 1401.2,1191.5 1395.1,1188.8 1387.9,1187.9 1380.1,1189.1 1372.4,1192.6 1365.2,1198.4 1359.5,1206.3 1355.7,1216.1 1354.5,1227.1 1356.2,1238.8 1361,1250.3 1368.9,1260.7 1379.7,1269.2 1392.9,1275.1 1407.7,1277.7 1423.5,1276.5 1439,1271.3 1453.4,1262.1 1465.6,1249.1 1474.6,1233 1479.5,1214.5 1479.8,1194.7 1475.2,1174.8 1465.6,1156 1451.2,1139.6 1432.8,1126.7 1411.1,1118.4 1387.5,1115.5 1363.2,1118.5 1339.7,1127.5 1318.4,1142.3 1301,1162.3 1288.5,1186.4 1282,1213.6 1282.3,1242.1 1289.6,1270.4 1303.8,1296.8 1324.3,1319.4 1350.2,1336.9 1380.2,1347.8 1412.7,1351.3 1445.7,1346.9 1477.2,1334.4 1505.5,1314.3 1528.5,1287.6 1544.8,1255.5 1553.1,1219.7 1552.6,1182.4 1543,1145.6 1524.5,1111.6 1498,1082.5 1464.7,1060.1 1426.5,1046.2 1385.3,1041.7 1343.6,1047.3 1303.8,1063 1268.3,1088.1 1239.4,1121.4 1219,1161.3 1208.6,1205.6 1209,1251.8 1220.7,1297.1 1243.1,1339 1275.4,1374.8 1315.8,1402.3" fill="none" stroke="#38322a" stroke-width="22" stroke-linecap="round" stroke-linejoin="round"/><polyline points="1797.5,1911.4 1799.6,1913.1 1802.4,1914 1805.8,1914 1809.3,1912.9 1812.7,1910.5 1815.6,1907 1817.5,1902.4 1818.2,1897.1 1817.3,1891.3 1814.8,1885.6 1810.7,1880.4 1804.9,1876.2 1797.9,1873.4 1790,1872.4 1781.6,1873.5 1773.4,1876.9 1765.9,1882.5 1759.8,1890.1 1755.5,1899.3 1753.7,1909.8 1754.5,1920.9 1758.1,1931.9 1764.6,1942 1773.7,1950.5 1784.9,1956.7 1797.8,1960.1 1811.6,1960.3 1825.5,1957 1838.5,1950.1 1849.8,1940.1 1858.6,1927.2 1864.1,1912.1 1865.8,1895.7 1863.4,1878.9 1856.8,1862.8 1846.3,1848.4 1832.2,1836.7 1815.3,1828.5 1796.5,1824.6 1776.9,1825.4 1757.6,1831.1 1739.9,1841.5 1724.8,1856.2 1713.6,1874.4 1706.9,1895.3 1705.5,1917.7 1709.6,1940.1 1719.2,1961.3 1733.9,1979.9 1753,1994.7 1775.6,2004.6 1800.3,2008.9 1825.8,2007 1850.5,1998.9 1872.8,1984.8 1891.5,1965.4 1905.1,1941.7" fill="none" stroke="#38322a" stroke-width="14" stroke-linecap="round" stroke-linejoin="round"/><polyline points="1069.2,1964 1071.3,1963.9 1073.4,1962.9 1075.4,1961.2 1076.8,1958.6 1077.5,1955.5 1077.3,1951.9 1076,1948.3 1073.5,1944.9 1070,1942 1065.5,1940 1060.4,1939.2 1054.8,1939.8 1049.3,1941.9 1044.2,1945.6 1040,1950.7 1037.1,1957 1035.7,1964.1 1036.2,1971.7 1038.7,1979.3 1043.2,1986.4 1049.5,1992.3 1057.4,1996.7 1066.5,1999.1 1076.2,1999.2 1086,1996.8 1095.3,1991.9 1103.3,1984.7 1109.5,1975.4 1113.4,1964.6 1114.5,1952.8 1112.7,1940.7 1107.9,1929.2 1100.2,1918.8 1089.9,1910.4 1077.6,1904.6 1063.9,1901.9 1049.6,1902.6 1035.6,1906.9 1022.7,1914.6 1011.8,1925.5 1003.7,1939 999,1954.4 998.1,1970.8 1001.3,1987.3 1008.6,2002.8 1019.6,2016.4 1033.9,2027.1 1050.6,2034.3 1068.9,2037.2 1087.8,2035.6 1106,2029.3 1122.5,2018.6 1136.2,2004.1 1146.1,1986.3 1151.5,1966.4 1151.9,1945.3 1147.2,1924.5" fill="none" stroke="#38322a" stroke-width="14" stroke-linecap="round" stroke-linejoin="round"/><polyline points="703.6,1824.4 705.5,1826.1 708.2,1827.1 711.3,1827.2 714.7,1826.2 718,1824.1 720.8,1820.9 722.8,1816.6 723.6,1811.6 723,1806.1 720.8,1800.6 717,1795.5 711.8,1791.3 705.2,1788.4 697.7,1787.3 689.8,1788.1 681.9,1791 674.6,1796 668.5,1803 664.2,1811.7 662.1,1821.5 662.5,1832.1 665.6,1842.6 671.4,1852.3 679.7,1860.7 690.2,1867 702.3,1870.6 715.4,1871.2 728.6,1868.5 741.2,1862.5 752.2,1853.3 760.9,1841.3 766.6,1827.2 768.8,1811.8 767.1,1795.8 761.4,1780.3 751.9,1766.3 738.9,1754.8 723.2,1746.5 705.5,1742.2 686.8,1742.3 668.4,1747.1 651.2,1756.3 636.5,1769.8 625.3,1786.7 618.3,1806.3 616.2,1827.4 619.4,1848.8 627.8,1869.2 641.1,1887.3 658.8,1901.9 679.8,1912 703.1,1916.9 727.3,1915.9 750.9,1909 772.6,1896.4 790.9,1878.7 804.5,1856.7" fill="none" stroke="#38322a" stroke-width="14" stroke-linecap="round" stroke-linejoin="round"/><polyline points="521.8,2450 556.5,2373.5 591.1,2450" fill="none" stroke="#38322a" stroke-width="12.6"/><polyline points="620.8,2450 655.5,2373.5 690.1,2450" fill="none" stroke="#38322a" stroke-width="12.6"/><polyline points="719.8,2450 754.5,2373.5 789.1,2450" fill="none" stroke="#38322a" stroke-width="12.6"/><polyline points="818.9,2450 853.5,2373.5 888.1,2450" fill="none" stroke="#38322a" stroke-width="12.6"/><polyline points="917.9,2450 952.5,2373.5 987.1,2450" fill="none" stroke="#38322a" stroke-width="12.6"/><polyline points="1016.9,2450 1051.5,2373.5 1086.2,2450" fill="none" stroke="#38322a" stroke-width="12.6"/><polyline points="1115.8,2450 1150.5,2373.5 1185.2,2450" fill="none" stroke="#38322a" stroke-width="12.6"/><polyline points="1214.8,2450 1249.5,2373.5 1284.2,2450" fill="none" stroke="#38322a" stroke-width="12.6"/><polyline points="1313.8,2450 1348.5,2373.5 1383.2,2450" fill="none" stroke="#38322a" stroke-width="12.6"/><polyline points="1412.8,2450 1447.5,2373.5 1482.2,2450" fill="none" stroke="#38322a" stroke-width="12.6"/><polyline points="1511.8,2450 1546.5,2373.5 1581.2,2450" fill="none" stroke="#38322a" stroke-width="12.6"/><polyline points="1610.8,2450 1645.5,2373.5 1680.2,2450" fill="none" stroke="#38322a" stroke-width="12.6"/><polyline points="1709.8,2450 1744.5,2373.5 1779.2,2450" fill="none" stroke="#38322a" stroke-width="12.6"/><polyline points="1808.8,2450 1843.5,2373.5 1878.2,2450" fill="none" stroke="#38322a" stroke-width="12.6"/></g><circle cx="390" cy="200" r="15.6" fill="#38322a"/><circle cx="450" cy="200" r="15.6" fill="#38322a"/><circle cx="510" cy="200" r="15.6" fill="#38322a"/><circle cx="570" cy="200" r="15.6" fill="#38322a"/><circle cx="630" cy="200" r="15.6" fill="#38322a"/><circle cx="690" cy="200" r="15.6" fill="#38322a"/><circle cx="750" cy="200" r="15.6" fill="#38322a"/><circle cx="810" cy="200" r="15.6" fill="#38322a"/><circle cx="870" cy="200" r="15.6" fill="#38322a"/><circle cx="930" cy="200" r="15.6" fill="#38322a"/><circle cx="990" cy="200" r="15.6" fill="#38322a"/><circle cx="1050" cy="200" r="15.6" fill="#38322a"/><circle cx="1110" cy="200" r="15.6" fill="#38322a"/><circle cx="1170" cy="200" r="15.6" fill="#38322a"/><circle cx="1230" cy="200" r="15.6" fill="#38322a"/><circle cx="1290" cy="200" r="15.6" fill="#38322a"/><circle cx="1350" cy="200" r="15.6" fill="#38322a"/><circle cx="1410" cy="200" r="15.6" fill="#38322a"/><circle cx="1470" cy="200" r="15.6" fill="#38322a"/><circle cx="1530" cy="200" r="15.6" fill="#38322a"/><circle cx="1590" cy="200" r="15.6" fill="#38322a"/><circle cx="1650" cy="200" r="15.6" fill="#38322a"/><circle cx="1710" cy="200" r="15.6" fill="#38322a"/><circle cx="1770" cy="200" r="15.6" fill="#38322a"/><circle cx="1830" cy="200" r="15.6" fill="#38322a"/><circle cx="1890" cy="200" r="15.6" fill="#38322a"/><circle cx="1950" cy="200" r="15.6" fill="#38322a"/><circle cx="2010" cy="200" r="15.6" fill="#38322a"/><circle cx="390" cy="2800" r="15.6" fill="#38322a"/><circle cx="450" cy="2800" r="15.6" fill="#38322a"/><circle cx="510" cy="2800" r="15.6" fill="#38322a"/><circle cx="570" cy="2800" r="15.6" fill="#38322a"/><circle cx="630" cy="2800" r="15.6" fill="#38322a"/><circle cx="690" cy="2800" r="15.6" fill="#38322a"/><circle cx="750" cy="2800" r="15.6" fill="#38322a"/><circle cx="810" cy="2800" r="15.6" fill="#38322a"/><circle cx="870" cy="2800" r="15.6" fill="#38322a"/><circle cx="930" cy="2800" r="15.6" fill="#38322a"/><circle cx="990" cy="2800" r="15.6" fill="#38322a"/><circle cx="1050" cy="2800" r="15.6" fill="#38322a"/><circle cx="1110" cy="2800" r="15.6" fill="#38322a"/><circle cx="1170" cy="2800" r="15.6" fill="#38322a"/><circle cx="1230" cy="2800" r="15.6" fill="#38322a"/><circle cx="1290" cy="2800" r="15.6" fill="#38322a"/><circle cx="1350" cy="2800" r="15.6" fill="#38322a"/><circle cx="1410" cy="2800" r="15.6" fill="#38322a"/><circle cx="1470" cy="2800" r="15.6" fill="#38322a"/><circle cx="1530" cy="2800" r="15.6" fill="#38322a"/><circle cx="1590" cy="2800" r="15.6" fill="#38322a"/><circle cx="1650" cy="2800" r="15.6" fill="#38322a"/><circle cx="1710" cy="2800" r="15.6" fill="#38322a"/><circle cx="1770" cy="2800" r="15.6" fill="#38322a"/><circle cx="1830" cy="2800" r="15.6" fill="#38322a"/><circle cx="1890" cy="2800" r="15.6" fill="#38322a"/><circle cx="1950" cy="2800" r="15.6" fill="#38322a"/><circle cx="2010" cy="2800" r="15.6" fill="#38322a"/><rect x="130" y="130" width="2140" height="2740" fill="none" stroke="#38322a" stroke-width="5"/><rect x="152" y="152" width="2096" height="2696" fill="none" stroke="#38322a" stroke-width="2.5" opacity="0.8"/></g><rect width="2400" height="3000" filter="url(#a53-mottle)" style="mix-blend-mode:multiply" opacity="0.5"/><rect width="2400" height="3000" filter="url(#a53-fade)" style="mix-blend-mode:screen" opacity="0.55"/><rect width="2400" height="3000" filter="url(#a53-grain)" style="mix-blend-mode:multiply" opacity="0.32"/><ellipse cx="1278.8" cy="707.5" rx="240.8" ry="197.7" fill="#6b4a22" opacity="0.051" filter="url(#a53-blur9)"/><ellipse cx="2218.9" cy="377.7" rx="140.2" ry="106.2" fill="#6b4a22" opacity="0.045" filter="url(#a53-blur9)"/><ellipse cx="301.9" cy="2472.7" rx="265" ry="194.5" fill="#6b4a22" opacity="0.036" filter="url(#a53-blur9)"/><ellipse cx="1538.6" cy="357.7" rx="264.9" ry="145.7" fill="#6b4a22" opacity="0.040" filter="url(#a53-blur9)"/><g opacity="0.3"><rect y="3" width="2400" height="2" fill="#e5dbc6"/><rect y="11" width="2400" height="2" fill="#e5dbc6"/><rect y="19" width="2400" height="2" fill="#e5dbc6"/><rect y="27" width="2400" height="2" fill="#e5dbc6"/><rect y="35" width="2400" height="2" fill="#e5dbc6"/><rect y="43" width="2400" height="2" fill="#e5dbc6"/><rect y="51" width="2400" height="2" fill="#e5dbc6"/><rect y="59" width="2400" height="2" fill="#e5dbc6"/><rect y="67" width="2400" height="2" fill="#e5dbc6"/><rect y="75" width="2400" height="2" fill="#e5dbc6"/><rect y="83" width="2400" height="2" fill="#e5dbc6"/><rect y="91" width="2400" height="2" fill="#e5dbc6"/><rect y="99" width="2400" height="2" fill="#e5dbc6"/><rect y="107" width="2400" height="2" fill="#e5dbc6"/><rect y="115" width="2400" height="2" fill="#e5dbc6"/><rect y="123" width="2400" height="2" fill="#e5dbc6"/><rect y="131" width="2400" height="2" fill="#e5dbc6"/><rect y="139" width="2400" height="2" fill="#e5dbc6"/><rect y="147" width="2400" height="2" fill="#e5dbc6"/><rect y="155" width="2400" height="2" fill="#e5dbc6"/><rect y="163" width="2400" height="2" fill="#e5dbc6"/><rect y="171" width="2400" height="2" fill="#e5dbc6"/><rect y="179" width="2400" height="2" fill="#e5dbc6"/><rect y="187" width="2400" height="2" fill="#e5dbc6"/><rect y="195" width="2400" height="2" fill="#e5dbc6"/><rect y="203" width="2400" height="2" fill="#e5dbc6"/><rect y="211" width="2400" height="2" fill="#e5dbc6"/><rect y="219" width="2400" height="2" fill="#e5dbc6"/><rect y="227" width="2400" height="2" fill="#e5dbc6"/><rect y="235" width="2400" height="2" fill="#e5dbc6"/><rect y="243" width="2400" height="2" fill="#e5dbc6"/><rect y="251" width="2400" height="2" fill="#e5dbc6"/><rect y="259" width="2400" height="2" fill="#e5dbc6"/><rect y="267" width="2400" height="2" fill="#e5dbc6"/><rect y="275" width="2400" height="2" fill="#e5dbc6"/><rect y="283" width="2400" height="2" fill="#e5dbc6"/><rect y="291" width="2400" height="2" fill="#e5dbc6"/><rect y="299" width="2400" height="2" fill="#e5dbc6"/><rect y="307" width="2400" height="2" fill="#e5dbc6"/><rect y="315" width="2400" height="2" fill="#e5dbc6"/><rect y="323" width="2400" height="2" fill="#e5dbc6"/><rect y="331" width="2400" height="2" fill="#e5dbc6"/><rect y="339" width="2400" height="2" fill="#e5dbc6"/><rect y="347" width="2400" height="2" fill="#e5dbc6"/><rect y="355" width="2400" height="2" fill="#e5dbc6"/><rect y="363" width="2400" height="2" fill="#e5dbc6"/><rect y="371" width="2400" height="2" fill="#e5dbc6"/><rect y="379" width="2400" height="2" fill="#e5dbc6"/><rect y="387" width="2400" height="2" fill="#e5dbc6"/><rect y="395" width="2400" height="2" fill="#e5dbc6"/><rect y="403" width="2400" height="2" fill="#e5dbc6"/><rect y="411" width="2400" height="2" fill="#e5dbc6"/><rect y="419" width="2400" height="2" fill="#e5dbc6"/><rect y="427" width="2400" height="2" fill="#e5dbc6"/><rect y="435" width="2400" height="2" fill="#e5dbc6"/><rect y="443" width="2400" height="2" fill="#e5dbc6"/><rect y="451" width="2400" height="2" fill="#e5dbc6"/><rect y="459" width="2400" height="2" fill="#e5dbc6"/><rect y="467" width="2400" height="2" fill="#e5dbc6"/><rect y="475" width="2400" height="2" fill="#e5dbc6"/><rect y="483" width="2400" height="2" fill="#e5dbc6"/><rect y="491" width="2400" height="2" fill="#e5dbc6"/><rect y="499" width="2400" height="2" fill="#e5dbc6"/><rect y="507" width="2400" height="2" fill="#e5dbc6"/><rect y="515" width="2400" height="2" fill="#e5dbc6"/><rect y="523" width="2400" height="2" fill="#e5dbc6"/><rect y="531" width="2400" height="2" fill="#e5dbc6"/><rect y="539" width="2400" height="2" fill="#e5dbc6"/><rect y="547" width="2400" height="2" fill="#e5dbc6"/><rect y="555" width="2400" height="2" fill="#e5dbc6"/><rect y="563" width="2400" height="2" fill="#e5dbc6"/><rect y="571" width="2400" height="2" fill="#e5dbc6"/><rect y="579" width="2400" height="2" fill="#e5dbc6"/><rect y="587" width="2400" height="2" fill="#e5dbc6"/><rect y="595" width="2400" height="2" fill="#e5dbc6"/><rect y="603" width="2400" height="2" fill="#e5dbc6"/><rect y="611" width="2400" height="2" fill="#e5dbc6"/><rect y="619" width="2400" height="2" fill="#e5dbc6"/><rect y="627" width="2400" height="2" fill="#e5dbc6"/><rect y="635" width="2400" height="2" fill="#e5dbc6"/><rect y="643" width="2400" height="2" fill="#e5dbc6"/><rect y="651" width="2400" height="2" fill="#e5dbc6"/><rect y="659" width="2400" height="2" fill="#e5dbc6"/><rect y="667" width="2400" height="2" fill="#e5dbc6"/><rect y="675" width="2400" height="2" fill="#e5dbc6"/><rect y="683" width="2400" height="2" fill="#e5dbc6"/><rect y="691" width="2400" height="2" fill="#e5dbc6"/><rect y="699" width="2400" height="2" fill="#e5dbc6"/><rect y="707" width="2400" height="2" fill="#e5dbc6"/><rect y="715" width="2400" height="2" fill="#e5dbc6"/><rect y="723" width="2400" height="2" fill="#e5dbc6"/><rect y="731" width="2400" height="2" fill="#e5dbc6"/><rect y="739" width="2400" height="2" fill="#e5dbc6"/><rect y="747" width="2400" height="2" fill="#e5dbc6"/><rect y="755" width="2400" height="2" fill="#e5dbc6"/><rect y="763" width="2400" height="2" fill="#e5dbc6"/><rect y="771" width="2400" height="2" fill="#e5dbc6"/><rect y="779" width="2400" height="2" fill="#e5dbc6"/><rect y="787" width="2400" height="2" fill="#e5dbc6"/><rect y="795" width="2400" height="2" fill="#e5dbc6"/><rect y="803" width="2400" height="2" fill="#e5dbc6"/><rect y="811" width="2400" height="2" fill="#e5dbc6"/><rect y="819" width="2400" height="2" fill="#e5dbc6"/><rect y="827" width="2400" height="2" fill="#e5dbc6"/><rect y="835" width="2400" height="2" fill="#e5dbc6"/><rect y="843" width="2400" height="2" fill="#e5dbc6"/><rect y="851" width="2400" height="2" fill="#e5dbc6"/><rect y="859" width="2400" height="2" fill="#e5dbc6"/><rect y="867" width="2400" height="2" fill="#e5dbc6"/><rect y="875" width="2400" height="2" fill="#e5dbc6"/><rect y="883" width="2400" height="2" fill="#e5dbc6"/><rect y="891" width="2400" height="2" fill="#e5dbc6"/><rect y="899" width="2400" height="2" fill="#e5dbc6"/><rect y="907" width="2400" height="2" fill="#e5dbc6"/><rect y="915" width="2400" height="2" fill="#e5dbc6"/><rect y="923" width="2400" height="2" fill="#e5dbc6"/><rect y="931" width="2400" height="2" fill="#e5dbc6"/><rect y="939" width="2400" height="2" fill="#e5dbc6"/><rect y="947" width="2400" height="2" fill="#e5dbc6"/><rect y="955" width="2400" height="2" fill="#e5dbc6"/><rect y="963" width="2400" height="2" fill="#e5dbc6"/><rect y="971" width="2400" height="2" fill="#e5dbc6"/><rect y="979" width="2400" height="2" fill="#e5dbc6"/><rect y="987" width="2400" height="2" fill="#e5dbc6"/><rect y="995" width="2400" height="2" fill="#e5dbc6"/><rect y="1003" width="2400" height="2" fill="#e5dbc6"/><rect y="1011" width="2400" height="2" fill="#e5dbc6"/><rect y="1019" width="2400" height="2" fill="#e5dbc6"/><rect y="1027" width="2400" height="2" fill="#e5dbc6"/><rect y="1035" width="2400" height="2" fill="#e5dbc6"/><rect y="1043" width="2400" height="2" fill="#e5dbc6"/><rect y="1051" width="2400" height="2" fill="#e5dbc6"/><rect y="1059" width="2400" height="2" fill="#e5dbc6"/><rect y="1067" width="2400" height="2" fill="#e5dbc6"/><rect y="1075" width="2400" height="2" fill="#e5dbc6"/><rect y="1083" width="2400" height="2" fill="#e5dbc6"/><rect y="1091" width="2400" height="2" fill="#e5dbc6"/><rect y="1099" width="2400" height="2" fill="#e5dbc6"/><rect y="1107" width="2400" height="2" fill="#e5dbc6"/><rect y="1115" width="2400" height="2" fill="#e5dbc6"/><rect y="1123" width="2400" height="2" fill="#e5dbc6"/><rect y="1131" width="2400" height="2" fill="#e5dbc6"/><rect y="1139" width="2400" height="2" fill="#e5dbc6"/><rect y="1147" width="2400" height="2" fill="#e5dbc6"/><rect y="1155" width="2400" height="2" fill="#e5dbc6"/><rect y="1163" width="2400" height="2" fill="#e5dbc6"/><rect y="1171" width="2400" height="2" fill="#e5dbc6"/><rect y="1179" width="2400" height="2" fill="#e5dbc6"/><rect y="1187" width="2400" height="2" fill="#e5dbc6"/><rect y="1195" width="2400" height="2" fill="#e5dbc6"/><rect y="1203" width="2400" height="2" fill="#e5dbc6"/><rect y="1211" width="2400" height="2" fill="#e5dbc6"/><rect y="1219" width="2400" height="2" fill="#e5dbc6"/><rect y="1227" width="2400" height="2" fill="#e5dbc6"/><rect y="1235" width="2400" height="2" fill="#e5dbc6"/><rect y="1243" width="2400" height="2" fill="#e5dbc6"/><rect y="1251" width="2400" height="2" fill="#e5dbc6"/><rect y="1259" width="2400" height="2" fill="#e5dbc6"/><rect y="1267" width="2400" height="2" fill="#e5dbc6"/><rect y="1275" width="2400" height="2" fill="#e5dbc6"/><rect y="1283" width="2400" height="2" fill="#e5dbc6"/><rect y="1291" width="2400" height="2" fill="#e5dbc6"/><rect y="1299" width="2400" height="2" fill="#e5dbc6"/><rect y="1307" width="2400" height="2" fill="#e5dbc6"/><rect y="1315" width="2400" height="2" fill="#e5dbc6"/><rect y="1323" width="2400" height="2" fill="#e5dbc6"/><rect y="1331" width="2400" height="2" fill="#e5dbc6"/><rect y="1339" width="2400" height="2" fill="#e5dbc6"/><rect y="1347" width="2400" height="2" fill="#e5dbc6"/><rect y="1355" width="2400" height="2" fill="#e5dbc6"/><rect y="1363" width="2400" height="2" fill="#e5dbc6"/><rect y="1371" width="2400" height="2" fill="#e5dbc6"/><rect y="1379" width="2400" height="2" fill="#e5dbc6"/><rect y="1387" width="2400" height="2" fill="#e5dbc6"/><rect y="1395" width="2400" height="2" fill="#e5dbc6"/><rect y="1403" width="2400" height="2" fill="#e5dbc6"/><rect y="1411" width="2400" height="2" fill="#e5dbc6"/><rect y="1419" width="2400" height="2" fill="#e5dbc6"/><rect y="1427" width="2400" height="2" fill="#e5dbc6"/><rect y="1435" width="2400" height="2" fill="#e5dbc6"/><rect y="1443" width="2400" height="2" fill="#e5dbc6"/><rect y="1451" width="2400" height="2" fill="#e5dbc6"/><rect y="1459" width="2400" height="2" fill="#e5dbc6"/><rect y="1467" width="2400" height="2" fill="#e5dbc6"/><rect y="1475" width="2400" height="2" fill="#e5dbc6"/><rect y="1483" width="2400" height="2" fill="#e5dbc6"/><rect y="1491" width="2400" height="2" fill="#e5dbc6"/><rect y="1499" width="2400" height="2" fill="#e5dbc6"/><rect y="1507" width="2400" height="2" fill="#e5dbc6"/><rect y="1515" width="2400" height="2" fill="#e5dbc6"/><rect y="1523" width="2400" height="2" fill="#e5dbc6"/><rect y="1531" width="2400" height="2" fill="#e5dbc6"/><rect y="1539" width="2400" height="2" fill="#e5dbc6"/><rect y="1547" width="2400" height="2" fill="#e5dbc6"/><rect y="1555" width="2400" height="2" fill="#e5dbc6"/><rect y="1563" width="2400" height="2" fill="#e5dbc6"/><rect y="1571" width="2400" height="2" fill="#e5dbc6"/><rect y="1579" width="2400" height="2" fill="#e5dbc6"/><rect y="1587" width="2400" height="2" fill="#e5dbc6"/><rect y="1595" width="2400" height="2" fill="#e5dbc6"/><rect y="1603" width="2400" height="2" fill="#e5dbc6"/><rect y="1611" width="2400" height="2" fill="#e5dbc6"/><rect y="1619" width="2400" height="2" fill="#e5dbc6"/><rect y="1627" width="2400" height="2" fill="#e5dbc6"/><rect y="1635" width="2400" height="2" fill="#e5dbc6"/><rect y="1643" width="2400" height="2" fill="#e5dbc6"/><rect y="1651" width="2400" height="2" fill="#e5dbc6"/><rect y="1659" width="2400" height="2" fill="#e5dbc6"/><rect y="1667" width="2400" height="2" fill="#e5dbc6"/><rect y="1675" width="2400" height="2" fill="#e5dbc6"/><rect y="1683" width="2400" height="2" fill="#e5dbc6"/><rect y="1691" width="2400" height="2" fill="#e5dbc6"/><rect y="1699" width="2400" height="2" fill="#e5dbc6"/><rect y="1707" width="2400" height="2" fill="#e5dbc6"/><rect y="1715" width="2400" height="2" fill="#e5dbc6"/><rect y="1723" width="2400" height="2" fill="#e5dbc6"/><rect y="1731" width="2400" height="2" fill="#e5dbc6"/><rect y="1739" width="2400" height="2" fill="#e5dbc6"/><rect y="1747" width="2400" height="2" fill="#e5dbc6"/><rect y="1755" width="2400" height="2" fill="#e5dbc6"/><rect y="1763" width="2400" height="2" fill="#e5dbc6"/><rect y="1771" width="2400" height="2" fill="#e5dbc6"/><rect y="1779" width="2400" height="2" fill="#e5dbc6"/><rect y="1787" width="2400" height="2" fill="#e5dbc6"/><rect y="1795" width="2400" height="2" fill="#e5dbc6"/><rect y="1803" width="2400" height="2" fill="#e5dbc6"/><rect y="1811" width="2400" height="2" fill="#e5dbc6"/><rect y="1819" width="2400" height="2" fill="#e5dbc6"/><rect y="1827" width="2400" height="2" fill="#e5dbc6"/><rect y="1835" width="2400" height="2" fill="#e5dbc6"/><rect y="1843" width="2400" height="2" fill="#e5dbc6"/><rect y="1851" width="2400" height="2" fill="#e5dbc6"/><rect y="1859" width="2400" height="2" fill="#e5dbc6"/><rect y="1867" width="2400" height="2" fill="#e5dbc6"/><rect y="1875" width="2400" height="2" fill="#e5dbc6"/><rect y="1883" width="2400" height="2" fill="#e5dbc6"/><rect y="1891" width="2400" height="2" fill="#e5dbc6"/><rect y="1899" width="2400" height="2" fill="#e5dbc6"/><rect y="1907" width="2400" height="2" fill="#e5dbc6"/><rect y="1915" width="2400" height="2" fill="#e5dbc6"/><rect y="1923" width="2400" height="2" fill="#e5dbc6"/><rect y="1931" width="2400" height="2" fill="#e5dbc6"/><rect y="1939" width="2400" height="2" fill="#e5dbc6"/><rect y="1947" width="2400" height="2" fill="#e5dbc6"/><rect y="1955" width="2400" height="2" fill="#e5dbc6"/><rect y="1963" width="2400" height="2" fill="#e5dbc6"/><rect y="1971" width="2400" height="2" fill="#e5dbc6"/><rect y="1979" width="2400" height="2" fill="#e5dbc6"/><rect y="1987" width="2400" height="2" fill="#e5dbc6"/><rect y="1995" width="2400" height="2" fill="#e5dbc6"/><rect y="2003" width="2400" height="2" fill="#e5dbc6"/><rect y="2011" width="2400" height="2" fill="#e5dbc6"/><rect y="2019" width="2400" height="2" fill="#e5dbc6"/><rect y="2027" width="2400" height="2" fill="#e5dbc6"/><rect y="2035" width="2400" height="2" fill="#e5dbc6"/><rect y="2043" width="2400" height="2" fill="#e5dbc6"/><rect y="2051" width="2400" height="2" fill="#e5dbc6"/><rect y="2059" width="2400" height="2" fill="#e5dbc6"/><rect y="2067" width="2400" height="2" fill="#e5dbc6"/><rect y="2075" width="2400" height="2" fill="#e5dbc6"/><rect y="2083" width="2400" height="2" fill="#e5dbc6"/><rect y="2091" width="2400" height="2" fill="#e5dbc6"/><rect y="2099" width="2400" height="2" fill="#e5dbc6"/><rect y="2107" width="2400" height="2" fill="#e5dbc6"/><rect y="2115" width="2400" height="2" fill="#e5dbc6"/><rect y="2123" width="2400" height="2" fill="#e5dbc6"/><rect y="2131" width="2400" height="2" fill="#e5dbc6"/><rect y="2139" width="2400" height="2" fill="#e5dbc6"/><rect y="2147" width="2400" height="2" fill="#e5dbc6"/><rect y="2155" width="2400" height="2" fill="#e5dbc6"/><rect y="2163" width="2400" height="2" fill="#e5dbc6"/><rect y="2171" width="2400" height="2" fill="#e5dbc6"/><rect y="2179" width="2400" height="2" fill="#e5dbc6"/><rect y="2187" width="2400" height="2" fill="#e5dbc6"/><rect y="2195" width="2400" height="2" fill="#e5dbc6"/><rect y="2203" width="2400" height="2" fill="#e5dbc6"/><rect y="2211" width="2400" height="2" fill="#e5dbc6"/><rect y="2219" width="2400" height="2" fill="#e5dbc6"/><rect y="2227" width="2400" height="2" fill="#e5dbc6"/><rect y="2235" width="2400" height="2" fill="#e5dbc6"/><rect y="2243" width="2400" height="2" fill="#e5dbc6"/><rect y="2251" width="2400" height="2" fill="#e5dbc6"/><rect y="2259" width="2400" height="2" fill="#e5dbc6"/><rect y="2267" width="2400" height="2" fill="#e5dbc6"/><rect y="2275" width="2400" height="2" fill="#e5dbc6"/><rect y="2283" width="2400" height="2" fill="#e5dbc6"/><rect y="2291" width="2400" height="2" fill="#e5dbc6"/><rect y="2299" width="2400" height="2" fill="#e5dbc6"/><rect y="2307" width="2400" height="2" fill="#e5dbc6"/><rect y="2315" width="2400" height="2" fill="#e5dbc6"/><rect y="2323" width="2400" height="2" fill="#e5dbc6"/><rect y="2331" width="2400" height="2" fill="#e5dbc6"/><rect y="2339" width="2400" height="2" fill="#e5dbc6"/><rect y="2347" width="2400" height="2" fill="#e5dbc6"/><rect y="2355" width="2400" height="2" fill="#e5dbc6"/><rect y="2363" width="2400" height="2" fill="#e5dbc6"/><rect y="2371" width="2400" height="2" fill="#e5dbc6"/><rect y="2379" width="2400" height="2" fill="#e5dbc6"/><rect y="2387" width="2400" height="2" fill="#e5dbc6"/><rect y="2395" width="2400" height="2" fill="#e5dbc6"/><rect y="2403" width="2400" height="2" fill="#e5dbc6"/><rect y="2411" width="2400" height="2" fill="#e5dbc6"/><rect y="2419" width="2400" height="2" fill="#e5dbc6"/><rect y="2427" width="2400" height="2" fill="#e5dbc6"/><rect y="2435" width="2400" height="2" fill="#e5dbc6"/><rect y="2443" width="2400" height="2" fill="#e5dbc6"/><rect y="2451" width="2400" height="2" fill="#e5dbc6"/><rect y="2459" width="2400" height="2" fill="#e5dbc6"/><rect y="2467" width="2400" height="2" fill="#e5dbc6"/><rect y="2475" width="2400" height="2" fill="#e5dbc6"/><rect y="2483" width="2400" height="2" fill="#e5dbc6"/><rect y="2491" width="2400" height="2" fill="#e5dbc6"/><rect y="2499" width="2400" height="2" fill="#e5dbc6"/><rect y="2507" width="2400" height="2" fill="#e5dbc6"/><rect y="2515" width="2400" height="2" fill="#e5dbc6"/><rect y="2523" width="2400" height="2" fill="#e5dbc6"/><rect y="2531" width="2400" height="2" fill="#e5dbc6"/><rect y="2539" width="2400" height="2" fill="#e5dbc6"/><rect y="2547" width="2400" height="2" fill="#e5dbc6"/><rect y="2555" width="2400" height="2" fill="#e5dbc6"/><rect y="2563" width="2400" height="2" fill="#e5dbc6"/><rect y="2571" width="2400" height="2" fill="#e5dbc6"/><rect y="2579" width="2400" height="2" fill="#e5dbc6"/><rect y="2587" width="2400" height="2" fill="#e5dbc6"/><rect y="2595" width="2400" height="2" fill="#e5dbc6"/><rect y="2603" width="2400" height="2" fill="#e5dbc6"/><rect y="2611" width="2400" height="2" fill="#e5dbc6"/><rect y="2619" width="2400" height="2" fill="#e5dbc6"/><rect y="2627" width="2400" height="2" fill="#e5dbc6"/><rect y="2635" width="2400" height="2" fill="#e5dbc6"/><rect y="2643" width="2400" height="2" fill="#e5dbc6"/><rect y="2651" width="2400" height="2" fill="#e5dbc6"/><rect y="2659" width="2400" height="2" fill="#e5dbc6"/><rect y="2667" width="2400" height="2" fill="#e5dbc6"/><rect y="2675" width="2400" height="2" fill="#e5dbc6"/><rect y="2683" width="2400" height="2" fill="#e5dbc6"/><rect y="2691" width="2400" height="2" fill="#e5dbc6"/><rect y="2699" width="2400" height="2" fill="#e5dbc6"/><rect y="2707" width="2400" height="2" fill="#e5dbc6"/><rect y="2715" width="2400" height="2" fill="#e5dbc6"/><rect y="2723" width="2400" height="2" fill="#e5dbc6"/><rect y="2731" width="2400" height="2" fill="#e5dbc6"/><rect y="2739" width="2400" height="2" fill="#e5dbc6"/><rect y="2747" width="2400" height="2" fill="#e5dbc6"/><rect y="2755" width="2400" height="2" fill="#e5dbc6"/><rect y="2763" width="2400" height="2" fill="#e5dbc6"/><rect y="2771" width="2400" height="2" fill="#e5dbc6"/><rect y="2779" width="2400" height="2" fill="#e5dbc6"/><rect y="2787" width="2400" height="2" fill="#e5dbc6"/><rect y="2795" width="2400" height="2" fill="#e5dbc6"/><rect y="2803" width="2400" height="2" fill="#e5dbc6"/><rect y="2811" width="2400" height="2" fill="#e5dbc6"/><rect y="2819" width="2400" height="2" fill="#e5dbc6"/><rect y="2827" width="2400" height="2" fill="#e5dbc6"/><rect y="2835" width="2400" height="2" fill="#e5dbc6"/><rect y="2843" width="2400" height="2" fill="#e5dbc6"/><rect y="2851" width="2400" height="2" fill="#e5dbc6"/><rect y="2859" width="2400" height="2" fill="#e5dbc6"/><rect y="2867" width="2400" height="2" fill="#e5dbc6"/><rect y="2875" width="2400" height="2" fill="#e5dbc6"/><rect y="2883" width="2400" height="2" fill="#e5dbc6"/><rect y="2891" width="2400" height="2" fill="#e5dbc6"/><rect y="2899" width="2400" height="2" fill="#e5dbc6"/><rect y="2907" width="2400" height="2" fill="#e5dbc6"/><rect y="2915" width="2400" height="2" fill="#e5dbc6"/><rect y="2923" width="2400" height="2" fill="#e5dbc6"/><rect y="2931" width="2400" height="2" fill="#e5dbc6"/><rect y="2939" width="2400" height="2" fill="#e5dbc6"/><rect y="2947" width="2400" height="2" fill="#e5dbc6"/><rect y="2955" width="2400" height="2" fill="#e5dbc6"/><rect y="2963" width="2400" height="2" fill="#e5dbc6"/><rect y="2971" width="2400" height="2" fill="#e5dbc6"/><rect y="2979" width="2400" height="2" fill="#e5dbc6"/><rect y="2987" width="2400" height="2" fill="#e5dbc6"/><rect y="2995" width="2400" height="2" fill="#e5dbc6"/></g><rect x="88" y="88" width="2224" height="2824" fill="none" stroke="#3a2c1a" stroke-width="4" opacity="0.2"/><rect x="94" y="94" width="2212" height="2812" fill="none" stroke="#fff6e0" stroke-width="2" opacity="0.25"/><circle cx="412.5" cy="491.9" r="7.4" fill="#8a5a2e" opacity="0.123"/><circle cx="1392.1" cy="328.5" r="8.5" fill="#8a5a2e" opacity="0.073"/><circle cx="1734.3" cy="1302.1" r="12.5" fill="#8a5a2e" opacity="0.082"/><circle cx="577.5" cy="1846" r="10.3" fill="#8a5a2e" opacity="0.077"/><circle cx="2128.6" cy="1338.9" r="4.7" fill="#8a5a2e" opacity="0.041"/><circle cx="384.4" cy="192.8" r="14.3" fill="#8a5a2e" opacity="0.127"/><circle cx="1811.8" cy="1148.5" r="12" fill="#8a5a2e" opacity="0.123"/><circle cx="1110.2" cy="2312.9" r="7.2" fill="#8a5a2e" opacity="0.077"/><circle cx="1863.1" cy="643.3" r="14.8" fill="#8a5a2e" opacity="0.106"/><circle cx="1513.1" cy="1635.6" r="11.6" fill="#8a5a2e" opacity="0.061"/><circle cx="334" cy="2031.5" r="3.9" fill="#8a5a2e" opacity="0.078"/><circle cx="1442.7" cy="2300.3" r="9" fill="#8a5a2e" opacity="0.077"/><circle cx="1141.9" cy="1135.8" r="12.9" fill="#8a5a2e" opacity="0.110"/><circle cx="1055.6" cy="2616" r="3.7" fill="#8a5a2e" opacity="0.094"/><circle cx="403.8" cy="1677.4" r="3.5" fill="#8a5a2e" opacity="0.114"/><circle cx="644" cy="1126.6" r="13.3" fill="#8a5a2e" opacity="0.080"/><circle cx="2033.6" cy="2773.9" r="4.2" fill="#8a5a2e" opacity="0.106"/><circle cx="550" cy="2431.8" r="3.1" fill="#8a5a2e" opacity="0.044"/><circle cx="303.3" cy="2518.2" r="14.2" fill="#8a5a2e" opacity="0.051"/><circle cx="691.6" cy="781.3" r="4.4" fill="#8a5a2e" opacity="0.079"/><circle cx="583.8" cy="2536.9" r="11.5" fill="#8a5a2e" opacity="0.065"/><circle cx="607.2" cy="774.1" r="5.6" fill="#8a5a2e" opacity="0.092"/><circle cx="884.9" cy="2334" r="14.4" fill="#8a5a2e" opacity="0.041"/><circle cx="977.5" cy="827.4" r="9.1" fill="#8a5a2e" opacity="0.103"/><circle cx="212" cy="567.4" r="14.9" fill="#8a5a2e" opacity="0.054"/><circle cx="398.1" cy="2762.4" r="8.4" fill="#8a5a2e" opacity="0.041"/><circle cx="909.6" cy="2554.9" r="7.8" fill="#8a5a2e" opacity="0.055"/><circle cx="1575" cy="783" r="10.2" fill="#8a5a2e" opacity="0.087"/><rect width="2400" height="3000" fill="url(#a53-vig)"/></svg></svg>