<svg xmlns="http://www.w3.org/2000/svg" width="2400" height="1800" viewBox="0 0 2400 1800"><rect width="2400" height="1800" fill="#e8e2d6"/><rect y="1420" width="2400" height="380" fill="#cbb597"/><ellipse cx="1200" cy="1640" rx="760" ry="130" fill="#7c3a31" opacity="0.55"/><ellipse cx="1200" cy="1640" rx="600" ry="96" fill="none" stroke="#c98f4e" stroke-width="10" opacity="0.5"/><rect x="700" y="1120" width="1000" height="300" rx="40" fill="#97a08c"/><rect x="640" y="1060" width="120" height="380" rx="40" fill="#87907c"/><rect x="1640" y="1060" width="120" height="380" rx="40" fill="#87907c"/><rect x="740" y="1010" width="920" height="180" rx="36" fill="#a3ac97"/><rect x="800" y="1060" width="240" height="160" rx="30" fill="#c98f4e"/><rect x="1380" y="1060" width="240" height="160" rx="30" fill="#7c3a31"/><rect x="700" y="1420" width="26" height="120" fill="#6f6353"/><rect x="1674" y="1420" width="26" height="120" fill="#6f6353"/><path d="M360,1520 Q330,820 800,880" fill="none" stroke="#4c4438" stroke-width="16"/><path d="M760,870 L840,880 L810,960 L770,955 Z" fill="#4c4438"/><rect x="300" y="1510" width="130" height="20" rx="10" fill="#4c4438"/><path d="M2080,1500 Q 1918,1243.5 1837,1311" fill="none" stroke="#5d7052" stroke-width="21.6" stroke-linecap="round"/><path d="M2080,1500 Q 1972,1243.5 1918,1257" fill="none" stroke="#5d7052" stroke-width="21.6" stroke-linecap="round"/><path d="M2080,1500 Q 2026,1243.5 1999,1203" fill="none" stroke="#5d7052" stroke-width="21.6" stroke-linecap="round"/><path d="M2080,1500 Q 2080,1243.5 2080,1149" fill="none" stroke="#5d7052" stroke-width="21.6" stroke-linecap="round"/><path d="M2080,1500 Q 2134,1243.5 2161,1203" fill="none" stroke="#5d7052" stroke-width="21.6" stroke-linecap="round"/><path d="M2080,1500 Q 2188,1243.5 2242,1257" fill="none" stroke="#5d7052" stroke-width="21.6" stroke-linecap="round"/><path d="M2080,1500 Q 2242,1243.5 2323,1311" fill="none" stroke="#5d7052" stroke-width="21.6" stroke-linecap="round"/><path d="M1985.5,1500 L2174.5,1500 L2150.2,1648.5 L2009.8,1648.5 Z" fill="#a9714d"/><defs><filter id="a15l-sh" x="-30%" y="-30%" width="160%" height="160%"><feGaussianBlur stdDeviation="16"/></filter></defs><rect x="939" y="217" width="550" height="675" fill="#000" opacity="0.28" filter="url(#a15l-sh)"/><rect x="925" y="195" width="550" height="675" fill="#2e2823"/><rect x="941.3" y="211.3" width="517.5" height="642.5" fill="none" stroke="#00000055" stroke-width="3"/><rect x="950" y="220" width="500" height="625" fill="#f6f2ea"/><svg x="987.5" y="257.5" width="425" height="550" viewBox="0 0 2400 3000" preserveAspectRatio="xMidYMid slice"><rect width="2400" height="3000" fill="#571f1c"/><radialGradient id="a15-vig" cx="50%" cy="42%" r="80%"><stop offset="55%" stop-color="#000" stop-opacity="0"/><stop offset="100%" stop-color="#000" stop-opacity="0.15"/></radialGradient><rect width="2400" height="3000" fill="url(#a15-vig)"/><circle cx="1392.7" cy="2269.7" r="2.7" fill="#e9dabe" opacity="0.057"/><circle cx="976" cy="2444" r="1.8" fill="#e9dabe" opacity="0.077"/><circle cx="2092.8" cy="2312.9" r="2.2" fill="#e9dabe" opacity="0.069"/><circle cx="431.6" cy="902.9" r="3.8" fill="#e9dabe" opacity="0.056"/><circle cx="2009.2" cy="2333" r="2.7" fill="#e9dabe" opacity="0.032"/><circle cx="1220.8" cy="1762" r="3.9" fill="#e9dabe" opacity="0.036"/><circle cx="1184.5" cy="1553.5" r="4.4" fill="#e9dabe" opacity="0.074"/><circle cx="1069.4" cy="1780.5" r="2.1" fill="#e9dabe" opacity="0.048"/><circle cx="237.1" cy="403.4" r="1.7" fill="#e9dabe" opacity="0.055"/><circle cx="909.4" cy="408.4" r="4.2" fill="#e9dabe" opacity="0.038"/><circle cx="776.9" cy="1576.9" r="3" fill="#e9dabe" opacity="0.044"/><circle cx="1052.9" cy="1273.4" r="4.4" fill="#e9dabe" opacity="0.034"/><circle cx="2260.2" cy="2478.2" r="3.9" fill="#e9dabe" opacity="0.046"/><circle cx="2059.1" cy="1415.1" r="4.2" fill="#e9dabe" opacity="0.059"/><circle cx="785.2" cy="2558.8" r="4.4" fill="#e9dabe" opacity="0.032"/><circle cx="1111.6" cy="48.2" r="2.6" fill="#e9dabe" opacity="0.049"/><circle cx="448.6" cy="1572.9" r="3.5" fill="#e9dabe" opacity="0.031"/><circle cx="1925.4" cy="163.2" r="1.6" fill="#e9dabe" opacity="0.042"/><circle cx="1094" cy="1122.3" r="2.9" fill="#e9dabe" opacity="0.073"/><circle cx="713.2" cy="1228.5" r="4" fill="#e9dabe" opacity="0.080"/><circle cx="1093.2" cy="2242.5" r="2.1" fill="#e9dabe" opacity="0.034"/><circle cx="1821.2" cy="298.4" r="3.9" fill="#e9dabe" opacity="0.078"/><circle cx="1674.8" cy="1754.3" r="3.9" fill="#e9dabe" opacity="0.048"/><circle cx="370.6" cy="423.1" r="2.1" fill="#e9dabe" opacity="0.052"/><circle cx="2230.1" cy="2741.6" r="4.2" fill="#e9dabe" opacity="0.046"/><circle cx="843.6" cy="2791.1" r="2.9" fill="#e9dabe" opacity="0.068"/><circle cx="740.4" cy="1659.8" r="1.9" fill="#e9dabe" opacity="0.073"/><circle cx="2328.9" cy="2756.1" r="1.8" fill="#e9dabe" opacity="0.036"/><circle cx="1573.2" cy="2339.3" r="2.6" fill="#e9dabe" opacity="0.043"/><circle cx="1318.4" cy="1274.4" r="4.2" fill="#e9dabe" opacity="0.075"/><circle cx="1617.2" cy="2562.3" r="2.1" fill="#e9dabe" opacity="0.064"/><circle cx="2195.4" cy="1481.2" r="2.3" fill="#e9dabe" opacity="0.078"/><circle cx="2138.4" cy="1109.7" r="2.6" fill="#e9dabe" opacity="0.051"/><circle cx="310.6" cy="263.7" r="3.2" fill="#e9dabe" opacity="0.056"/><circle cx="1825.7" cy="1473" r="2.1" fill="#e9dabe" opacity="0.031"/><circle cx="1984.6" cy="2648.8" r="2.2" fill="#e9dabe" opacity="0.078"/><circle cx="1967.1" cy="2400" r="4.3" fill="#e9dabe" opacity="0.066"/><circle cx="1420.2" cy="2144" r="2.3" fill="#e9dabe" opacity="0.058"/><circle cx="1734.9" cy="570.8" r="3.1" fill="#e9dabe" opacity="0.075"/><circle cx="1568.7" cy="932.3" r="3.1" fill="#e9dabe" opacity="0.031"/><circle cx="1620.3" cy="2858.7" r="2.2" fill="#e9dabe" opacity="0.044"/><circle cx="2326.5" cy="1828.8" r="4" fill="#e9dabe" opacity="0.057"/><circle cx="1063.6" cy="786.5" r="2.3" fill="#e9dabe" opacity="0.042"/><circle cx="408.6" cy="2039" r="3" fill="#e9dabe" opacity="0.049"/><circle cx="941.6" cy="2188.2" r="4" fill="#e9dabe" opacity="0.046"/><circle cx="483.9" cy="1428.1" r="3.7" fill="#e9dabe" opacity="0.078"/><circle cx="786.3" cy="1596.1" r="2.1" fill="#e9dabe" opacity="0.046"/><circle cx="1875.2" cy="2311" r="1.7" fill="#e9dabe" opacity="0.046"/><circle cx="92" cy="450.1" r="3.4" fill="#e9dabe" opacity="0.036"/><circle cx="73.8" cy="1103.8" r="2.4" fill="#e9dabe" opacity="0.053"/><circle cx="129.2" cy="1394.6" r="3.1" fill="#e9dabe" opacity="0.046"/><circle cx="1846.2" cy="2853.4" r="2.3" fill="#e9dabe" opacity="0.062"/><circle cx="1611.8" cy="1095.6" r="2.8" fill="#e9dabe" opacity="0.035"/><circle cx="1062.4" cy="2311.5" r="2.3" fill="#e9dabe" opacity="0.049"/><circle cx="547.8" cy="2494" r="3.4" fill="#e9dabe" opacity="0.055"/><circle cx="383" cy="2188.9" r="4.1" fill="#e9dabe" opacity="0.076"/><circle cx="1957.2" cy="832.2" r="3.3" fill="#e9dabe" opacity="0.039"/><circle cx="982.7" cy="216.1" r="2.8" fill="#e9dabe" opacity="0.055"/><circle cx="1680.3" cy="2614.7" r="1.9" fill="#e9dabe" opacity="0.038"/><circle cx="1823.1" cy="1492" r="3.9" fill="#e9dabe" opacity="0.073"/><circle cx="1099.4" cy="2193.5" r="4.4" fill="#e9dabe" opacity="0.041"/><circle cx="1208.4" cy="908.2" r="2.1" fill="#e9dabe" opacity="0.067"/><circle cx="693.4" cy="902.1" r="2.9" fill="#e9dabe" opacity="0.059"/><circle cx="667.7" cy="1067.5" r="2.2" fill="#e9dabe" opacity="0.034"/><circle cx="254.1" cy="1077.4" r="3.9" fill="#e9dabe" opacity="0.038"/><circle cx="436.8" cy="602.2" r="4.2" fill="#e9dabe" opacity="0.078"/><circle cx="491.4" cy="1147.8" r="4.5" fill="#e9dabe" opacity="0.051"/><circle cx="1621.4" cy="2287.4" r="4.1" fill="#e9dabe" opacity="0.044"/><circle cx="41.8" cy="1755.6" r="2.6" fill="#e9dabe" opacity="0.061"/><circle cx="77.9" cy="797" r="4.4" fill="#e9dabe" opacity="0.036"/><circle cx="427.5" cy="1552.1" r="2.9" fill="#e9dabe" opacity="0.075"/><circle cx="1384" cy="2887.4" r="2.9" fill="#e9dabe" opacity="0.059"/><circle cx="739.9" cy="391.1" r="3.4" fill="#e9dabe" opacity="0.078"/><circle cx="1034.4" cy="2175" r="1.7" fill="#e9dabe" opacity="0.078"/><circle cx="151.7" cy="1674.1" r="4" fill="#e9dabe" opacity="0.050"/><circle cx="2215.6" cy="2478.6" r="4" fill="#e9dabe" opacity="0.046"/><circle cx="1703.4" cy="2917.7" r="2.6" fill="#e9dabe" opacity="0.052"/><circle cx="156.2" cy="953.2" r="2.5" fill="#e9dabe" opacity="0.064"/><circle cx="354.2" cy="2339.5" r="2.2" fill="#e9dabe" opacity="0.060"/><circle cx="343" cy="1397.6" r="3.6" fill="#e9dabe" opacity="0.033"/><circle cx="1200" cy="935.3" r="405.2" fill="#c98f4e" opacity="0.92"/><circle cx="1200" cy="935.3" r="475.2" fill="none" stroke="#c98f4e" stroke-width="7" stroke-dasharray="4 30" stroke-linecap="round"/><rect x="330" y="2450" width="1740" height="52" fill="#e9dabe"/><rect x="240" y="2502" width="1920" height="52" fill="#e9dabe" opacity="0.85"/><rect x="150" y="2554" width="2100" height="52" fill="#e9dabe" opacity="0.7"/><path d="M685,2450 L712,881.7 L928,881.7 L955,2450 Z" fill="#e9dabe"/><line x1="748" y1="911.7" x2="730" y2="2440" stroke="#571f1c" stroke-width="9" opacity="0.55"/><line x1="784" y1="911.7" x2="775" y2="2440" stroke="#571f1c" stroke-width="9" opacity="0.55"/><line x1="820" y1="911.7" x2="820" y2="2440" stroke="#571f1c" stroke-width="9" opacity="0.55"/><line x1="856" y1="911.7" x2="865" y2="2440" stroke="#571f1c" stroke-width="9" opacity="0.55"/><line x1="892" y1="911.7" x2="910" y2="2440" stroke="#571f1c" stroke-width="9" opacity="0.55"/><path d="M0 0 Q 26 -36.5 0 -96 Q -26 -36.5 0 0 Z" fill="#e9dabe" opacity="1" transform="translate(721.8 881.7) rotate(-32)"/><path d="M0 0 Q 26 -36.5 0 -96 Q -26 -36.5 0 0 Z" fill="#e9dabe" opacity="1" transform="translate(770.9 881.7) rotate(-16)"/><path d="M0 0 Q 26 -36.5 0 -96 Q -26 -36.5 0 0 Z" fill="#e9dabe" opacity="1" transform="translate(820 881.7) rotate(0)"/><path d="M0 0 Q 26 -36.5 0 -96 Q -26 -36.5 0 0 Z" fill="#e9dabe" opacity="1" transform="translate(869.1 881.7) rotate(16)"/><path d="M0 0 Q 26 -36.5 0 -96 Q -26 -36.5 0 0 Z" fill="#e9dabe" opacity="1" transform="translate(918.2 881.7) rotate(32)"/><path d="M0 0 Q 26 -46.4 0 -122 Q -26 -46.4 0 0 Z" fill="#e9dabe" opacity="1" transform="translate(721.8 829.7) rotate(-32)"/><path d="M0 0 Q 26 -46.4 0 -122 Q -26 -46.4 0 0 Z" fill="#e9dabe" opacity="1" transform="translate(770.9 829.7) rotate(-16)"/><path d="M0 0 Q 26 -46.4 0 -122 Q -26 -46.4 0 0 Z" fill="#e9dabe" opacity="1" transform="translate(820 829.7) rotate(0)"/><path d="M0 0 Q 26 -46.4 0 -122 Q -26 -46.4 0 0 Z" fill="#e9dabe" opacity="1" transform="translate(869.1 829.7) rotate(16)"/><path d="M0 0 Q 26 -46.4 0 -122 Q -26 -46.4 0 0 Z" fill="#e9dabe" opacity="1" transform="translate(918.2 829.7) rotate(32)"/><rect x="652" y="723.7" width="336" height="44" fill="#e9dabe"/><rect x="659" y="2406" width="322" height="44" fill="#e9dabe"/><path d="M1445,2450 L1472,1698.9 L1688,1698.9 L1715,2450 Z" fill="#e9dabe"/><line x1="1508" y1="1728.9" x2="1490" y2="2440" stroke="#571f1c" stroke-width="9" opacity="0.55"/><line x1="1544" y1="1728.9" x2="1535" y2="2440" stroke="#571f1c" stroke-width="9" opacity="0.55"/><line x1="1580" y1="1728.9" x2="1580" y2="2440" stroke="#571f1c" stroke-width="9" opacity="0.55"/><line x1="1616" y1="1728.9" x2="1625" y2="2440" stroke="#571f1c" stroke-width="9" opacity="0.55"/><line x1="1652" y1="1728.9" x2="1670" y2="2440" stroke="#571f1c" stroke-width="9" opacity="0.55"/><polyline points="1472,1698.9 1544,1652.9 1607,1706.9 1688,1668.9" fill="#571f1c" stroke="none"/><path d="M260.9,289.1 L 333.1,289.1 L 333.1,216.9 L 276.4,216.9 L 276.4,261.6 L 305.6,261.6 L 305.6,239.2 M346.9,289.1 L 419.1,289.1 L 419.1,216.9 L 362.4,216.9 L 362.4,261.6 L 391.6,261.6 L 391.6,239.2 M432.9,289.1 L 505.1,289.1 L 505.1,216.9 L 448.4,216.9 L 448.4,261.6 L 477.6,261.6 L 477.6,239.2 M518.9,289.1 L 591.1,289.1 L 591.1,216.9 L 534.4,216.9 L 534.4,261.6 L 563.6,261.6 L 563.6,239.2 M604.9,289.1 L 677.1,289.1 L 677.1,216.9 L 620.4,216.9 L 620.4,261.6 L 649.6,261.6 L 649.6,239.2 M690.9,289.1 L 763.1,289.1 L 763.1,216.9 L 706.4,216.9 L 706.4,261.6 L 735.6,261.6 L 735.6,239.2 M776.9,289.1 L 849.1,289.1 L 849.1,216.9 L 792.4,216.9 L 792.4,261.6 L 821.6,261.6 L 821.6,239.2 M862.9,289.1 L 935.1,289.1 L 935.1,216.9 L 878.4,216.9 L 878.4,261.6 L 907.6,261.6 L 907.6,239.2 M948.9,289.1 L 1021.1,289.1 L 1021.1,216.9 L 964.4,216.9 L 964.4,261.6 L 993.6,261.6 L 993.6,239.2 M1034.9,289.1 L 1107.1,289.1 L 1107.1,216.9 L 1050.4,216.9 L 1050.4,261.6 L 1079.6,261.6 L 1079.6,239.2 M1120.9,289.1 L 1193.1,289.1 L 1193.1,216.9 L 1136.4,216.9 L 1136.4,261.6 L 1165.6,261.6 L 1165.6,239.2 M1206.9,289.1 L 1279.1,289.1 L 1279.1,216.9 L 1222.4,216.9 L 1222.4,261.6 L 1251.6,261.6 L 1251.6,239.2 M1292.9,289.1 L 1365.1,289.1 L 1365.1,216.9 L 1308.4,216.9 L 1308.4,261.6 L 1337.6,261.6 L 1337.6,239.2 M1378.9,289.1 L 1451.1,289.1 L 1451.1,216.9 L 1394.4,216.9 L 1394.4,261.6 L 1423.6,261.6 L 1423.6,239.2 M1464.9,289.1 L 1537.1,289.1 L 1537.1,216.9 L 1480.4,216.9 L 1480.4,261.6 L 1509.6,261.6 L 1509.6,239.2 M1550.9,289.1 L 1623.1,289.1 L 1623.1,216.9 L 1566.4,216.9 L 1566.4,261.6 L 1595.6,261.6 L 1595.6,239.2 M1636.9,289.1 L 1709.1,289.1 L 1709.1,216.9 L 1652.4,216.9 L 1652.4,261.6 L 1681.6,261.6 L 1681.6,239.2 M1722.9,289.1 L 1795.1,289.1 L 1795.1,216.9 L 1738.4,216.9 L 1738.4,261.6 L 1767.6,261.6 L 1767.6,239.2 M1808.9,289.1 L 1881.1,289.1 L 1881.1,216.9 L 1824.4,216.9 L 1824.4,261.6 L 1853.6,261.6 L 1853.6,239.2 M1894.9,289.1 L 1967.1,289.1 L 1967.1,216.9 L 1910.4,216.9 L 1910.4,261.6 L 1939.6,261.6 L 1939.6,239.2 M1980.9,289.1 L 2053.1,289.1 L 2053.1,216.9 L 1996.4,216.9 L 1996.4,261.6 L 2025.6,261.6 L 2025.6,239.2 M2066.9,289.1 L 2139.1,289.1 L 2139.1,216.9 L 2082.4,216.9 L 2082.4,261.6 L 2111.6,261.6 L 2111.6,239.2 " fill="none" stroke="#e9dabe" stroke-width="11.2"/><rect x="100" y="100" width="2200" height="2800" fill="none" stroke="#e9dabe" stroke-width="9"/><rect x="142" y="142" width="2116" height="2716" fill="none" stroke="#e9dabe" stroke-width="3" opacity="0.65"/></svg></svg>