<svg xmlns="http://www.w3.org/2000/svg" width="2400" height="1800" viewBox="0 0 2400 1800"><rect width="2400" height="1800" fill="#dfe4dc"/><rect y="1400" width="2400" height="400" fill="#c2a67e"/><line x1="60" y1="1400" x2="10" y2="1800" stroke="#00000015" stroke-width="5"/><line x1="260" y1="1400" x2="210" y2="1800" stroke="#00000015" stroke-width="5"/><line x1="460" y1="1400" x2="410" y2="1800" stroke="#00000015" stroke-width="5"/><line x1="660" y1="1400" x2="610" y2="1800" stroke="#00000015" stroke-width="5"/><line x1="860" y1="1400" x2="810" y2="1800" stroke="#00000015" stroke-width="5"/><line x1="1060" y1="1400" x2="1010" y2="1800" stroke="#00000015" stroke-width="5"/><line x1="1260" y1="1400" x2="1210" y2="1800" stroke="#00000015" stroke-width="5"/><line x1="1460" y1="1400" x2="1410" y2="1800" stroke="#00000015" stroke-width="5"/><line x1="1660" y1="1400" x2="1610" y2="1800" stroke="#00000015" stroke-width="5"/><line x1="1860" y1="1400" x2="1810" y2="1800" stroke="#00000015" stroke-width="5"/><line x1="2060" y1="1400" x2="2010" y2="1800" stroke="#00000015" stroke-width="5"/><line x1="2260" y1="1400" x2="2210" y2="1800" stroke="#00000015" stroke-width="5"/><rect x="180" y="260" width="900" height="620" fill="#8a6a48"/><rect x="215" y="295" width="830" height="550" fill="#41524a"/><line x1="280" y1="420" x2="760" y2="420" stroke="#ffffff66" stroke-width="9" stroke-linecap="round"/><line x1="280" y1="520" x2="620" y2="520" stroke="#ffffff44" stroke-width="9" stroke-linecap="round"/><circle cx="880" cy="560" r="90" fill="none" stroke="#ffffff55" stroke-width="8"/><rect x="215" y="845" width="830" height="22" fill="#6f5436"/><rect x="330" y="1240" width="640" height="60" rx="10" fill="#9c7449"/><rect x="370" y="1300" width="60" height="240" fill="#8a6540"/><rect x="870" y="1300" width="60" height="240" fill="#8a6540"/><rect x="430" y="1160" width="150" height="80" rx="8" fill="#875732"/><rect x="450" y="1120" width="150" height="40" rx="8" fill="#a6926e"/><circle cx="800" cy="1130" r="86" fill="#7fa3b8"/><path d="M760,1060 Q820,1100 780,1190 M740,1090 Q800,1120 850,1100" stroke="#5d8069" stroke-width="16" fill="none" stroke-linecap="round"/><circle cx="800" cy="1130" r="86" fill="none" stroke="#6b5233" stroke-width="7"/><line x1="800" y1="1216" x2="800" y2="1250" stroke="#6b5233" stroke-width="10"/><rect x="750" y="1244" width="100" height="14" rx="7" fill="#6b5233"/><rect x="1980" y="700" width="300" height="800" fill="#9c7449"/><rect x="2000" y="930" width="260" height="16" fill="#7c5a37"/><rect x="2020" y="790" width="36" height="140" fill="#b3502f"/><rect x="2066" y="802" width="36" height="128" fill="#39685c"/><rect x="2112" y="790" width="36" height="140" fill="#c9a227"/><rect x="2158" y="802" width="36" height="128" fill="#2c4661"/><rect x="2204" y="790" width="36" height="140" fill="#8a4423"/><rect x="2000" y="1180" width="260" height="16" fill="#7c5a37"/><rect x="2020" y="1040" width="36" height="140" fill="#39685c"/><rect x="2066" y="1052" width="36" height="128" fill="#c9a227"/><rect x="2112" y="1040" width="36" height="140" fill="#2c4661"/><rect x="2158" y="1052" width="36" height="128" fill="#8a4423"/><rect x="2204" y="1040" width="36" height="140" fill="#b3502f"/><rect x="2000" y="1430" width="260" height="16" fill="#7c5a37"/><rect x="2020" y="1290" width="36" height="140" fill="#c9a227"/><rect x="2066" y="1302" width="36" height="128" fill="#2c4661"/><rect x="2112" y="1290" width="36" height="140" fill="#8a4423"/><rect x="2158" y="1302" width="36" height="128" fill="#b3502f"/><rect x="2204" y="1290" width="36" height="140" fill="#39685c"/><defs><filter id="a57c-sh" x="-30%" y="-30%" width="160%" height="160%"><feGaussianBlur stdDeviation="16"/></filter></defs><rect x="1340.5" y="298.5" width="517" height="635" fill="#000" opacity="0.28" filter="url(#a57c-sh)"/><rect x="1326.5" y="276.5" width="517" height="635" fill="#3d342a"/><rect x="1341.8" y="291.8" width="486.4" height="604.5" fill="none" stroke="#00000055" stroke-width="3"/><rect x="1350" y="300" width="470" height="588" fill="#f6f2ea"/><svg x="1385.3" y="335.3" width="399.5" height="517.5" viewBox="0 0 2400 3000" preserveAspectRatio="xMidYMid slice"><filter id="a57-warp" x="-4%" y="-4%" width="108%" height="108%"><feTurbulence type="fractalNoise" baseFrequency="0.0105" numOctaves="2" seed="3943" result="w"/><feDisplacementMap in="SourceGraphic" in2="w" scale="7" xChannelSelector="R" yChannelSelector="G"/></filter><filter id="a57-grain" x="0%" y="0%" width="100%" height="100%"><feTurbulence type="fractalNoise" baseFrequency="0.6" numOctaves="2" seed="3950"/><feColorMatrix type="matrix" values="0.33 0.33 0.33 0 0.62  0.33 0.33 0.33 0 0.62  0.33 0.33 0.33 0 0.62  0 0 0 0 1"/></filter><filter id="a57-mottle" x="0%" y="0%" width="100%" height="100%"><feTurbulence type="fractalNoise" baseFrequency="0.0045" numOctaves="3" seed="3956"/><feColorMatrix type="matrix" values="0.2 0.2 0.2 0 0.78  0.2 0.2 0.2 0 0.78  0.2 0.2 0.2 0 0.78  0 0 0 0 1"/></filter><filter id="a57-fade" x="0%" y="0%" width="100%" height="100%"><feTurbulence type="fractalNoise" baseFrequency="0.006" numOctaves="2" seed="3972"/><feColorMatrix type="matrix" values="0.3 0.3 0.3 0 -0.08  0.3 0.3 0.3 0 -0.08  0.3 0.3 0.3 0 -0.1  0 0 0 0 1"/></filter><filter id="a57-blur9"><feGaussianBlur stdDeviation="9"/></filter><radialGradient id="a57-vig" cx="50%" cy="44%" r="78%"><stop offset="52%" stop-color="#241a10" stop-opacity="0"/><stop offset="100%" stop-color="#241a10" stop-opacity="0.17"/></radialGradient><radialGradient id="a57-warm" cx="53%" cy="30%" r="85%"><stop offset="0%" stop-color="#e8c890" stop-opacity="0.14"/><stop offset="70%" stop-color="#e8c890" stop-opacity="0"/></radialGradient><rect width="2400" height="3000" fill="#e0d5bd"/><rect width="2400" height="3000" fill="url(#a57-warm)"/><g filter="url(#a57-warp)"><path d="M1982.7,1819.9 Q1894.6,2119.9 1688.7,2297.3 Q1482.8,2474.7 1216.8,2477.3 Q950.8,2479.8 737.1,2340.3 Q523.4,2200.8 408.5,1860.4 Q293.6,1520 414.3,1190.2 Q535,860.4 727.8,638.6 Q920.6,416.8 1184.2,478.4 Q1447.8,540 1698.3,729.9 Q1948.9,919.8 2009.8,1219.9 Q2070.8,1520 1982.7,1819.9 Z" fill="#a6926e" stroke="#3a2e1e" stroke-width="10"/><clipPath id="a57-st"><path d="M1982.7,1819.9 Q1894.6,2119.9 1688.7,2297.3 Q1482.8,2474.7 1216.8,2477.3 Q950.8,2479.8 737.1,2340.3 Q523.4,2200.8 408.5,1860.4 Q293.6,1520 414.3,1190.2 Q535,860.4 727.8,638.6 Q920.6,416.8 1184.2,478.4 Q1447.8,540 1698.3,729.9 Q1948.9,919.8 2009.8,1219.9 Q2070.8,1520 1982.7,1819.9 Z"/></clipPath><g clip-path="url(#a57-st)"><polyline points="1200,1572.3 1203.6,1574.7 1208.3,1575.9 1213.7,1575.6 1219.4,1573.5 1224.7,1569.6 1229.1,1563.8 1231.9,1556.4 1232.8,1548 1231.4,1538.9 1227.4,1530 1220.8,1521.8 1211.8,1515.2 1200.9,1510.9 1188.6,1509.3 1175.6,1510.9 1162.8,1516 1151.1,1524.5 1141.4,1536 1134.6,1550.3 1131.3,1566.4 1132.1,1583.4 1137.3,1600.5 1146.8,1616.3 1160.3,1629.8 1177.2,1640 1196.8,1645.9 1217.9,1647 1239.3,1642.8 1259.7,1633.2 1277.7,1618.6 1292,1599.6 1301.6,1577 1305.5,1552.2 1303.3,1526.4 1294.8,1501.3 1280.1,1478.4 1259.8,1459.3 1235,1445.2 1206.8,1437.4 1176.9,1436.5 1147,1442.9 1118.9,1456.7 1094.5,1477.2 1075.2,1503.5 1062.6,1534.3 1057.6,1567.9 1060.8,1602.4 1072.5,1635.7 1092.1,1665.9 1118.9,1690.9 1151.5,1709.1 1188.2,1719.2 1226.9,1720.3 1265.4,1711.9 1301.3,1694.2 1332.6,1668 1357,1634.6 1373,1595.7 1379.4,1553.4 1375.4,1510.1 1360.9,1468.4 1336.6,1430.8 1303.4,1399.6 1263.2,1377 1218.1,1364.3 1170.6,1362.8 1123.5,1372.9 1079.5,1394.2" fill="none" stroke="#3a2e1e" stroke-width="22" stroke-linecap="round" stroke-linejoin="round"/><polyline points="990.2,1208.8 989.9,1204.5 991.2,1199.8 994.1,1195.3 998.8,1191.5 1004.9,1188.8 1012.1,1187.9 1019.9,1189.1 1027.6,1192.6 1034.8,1198.4 1040.5,1206.3 1044.3,1216.1 1045.5,1227.1 1043.8,1238.8 1039,1250.3 1031.1,1260.7 1020.3,1269.2 1007.1,1275.1 992.3,1277.7 976.5,1276.5 961,1271.3 946.6,1262.1 934.4,1249.1 925.4,1233 920.5,1214.5 920.2,1194.7 924.8,1174.8 934.4,1156 948.8,1139.6 967.2,1126.7 988.9,1118.4 1012.5,1115.5 1036.8,1118.5 1060.3,1127.5 1081.6,1142.3 1099,1162.3 1111.5,1186.4 1118,1213.6 1117.7,1242.1 1110.4,1270.4 1096.2,1296.8 1075.7,1319.4 1049.8,1336.9 1019.8,1347.8 987.3,1351.3 954.3,1346.9 922.8,1334.4 894.5,1314.3 871.5,1287.6 855.2,1255.5 846.9,1219.7 847.4,1182.4 857,1145.6 875.5,1111.6 902,1082.5 935.3,1060.1 973.5,1046.2 1014.7,1041.7 1056.4,1047.3 1096.2,1063 1131.7,1088.1 1160.6,1121.4 1181,1161.3 1191.4,1205.6 1191,1251.8 1179.3,1297.1 1156.9,1339 1124.6,1374.8 1084.2,1402.3" fill="none" stroke="#3a2e1e" stroke-width="22" stroke-linecap="round" stroke-linejoin="round"/><polyline points="1409.8,1208.8 1410.1,1204.5 1408.8,1199.8 1405.9,1195.3 1401.2,1191.5 1395.1,1188.8 1387.9,1187.9 1380.1,1189.1 1372.4,1192.6 1365.2,1198.4 1359.5,1206.3 1355.7,1216.1 1354.5,1227.1 1356.2,1238.8 1361,1250.3 1368.9,1260.7 1379.7,1269.2 1392.9,1275.1 1407.7,1277.7 1423.5,1276.5 1439,1271.3 1453.4,1262.1 1465.6,1249.1 1474.6,1233 1479.5,1214.5 1479.8,1194.7 1475.2,1174.8 1465.6,1156 1451.2,1139.6 1432.8,1126.7 1411.1,1118.4 1387.5,1115.5 1363.2,1118.5 1339.7,1127.5 1318.4,1142.3 1301,1162.3 1288.5,1186.4 1282,1213.6 1282.3,1242.1 1289.6,1270.4 1303.8,1296.8 1324.3,1319.4 1350.2,1336.9 1380.2,1347.8 1412.7,1351.3 1445.7,1346.9 1477.2,1334.4 1505.5,1314.3 1528.5,1287.6 1544.8,1255.5 1553.1,1219.7 1552.6,1182.4 1543,1145.6 1524.5,1111.6 1498,1082.5 1464.7,1060.1 1426.5,1046.2 1385.3,1041.7 1343.6,1047.3 1303.8,1063 1268.3,1088.1 1239.4,1121.4 1219,1161.3 1208.6,1205.6 1209,1251.8 1220.7,1297.1 1243.1,1339 1275.4,1374.8 1315.8,1402.3" fill="none" stroke="#3a2e1e" stroke-width="22" stroke-linecap="round" stroke-linejoin="round"/><polyline points="1008.6,2254.6 1009.4,2256.6 1011.1,2258.5 1013.6,2259.8 1016.6,2260.5 1020.1,2260.1 1023.6,2258.7 1026.9,2256.1 1029.5,2252.4 1031.2,2247.9 1031.7,2242.7 1030.8,2237.1 1028.3,2231.7 1024.3,2226.8 1018.8,2222.9 1012.2,2220.4 1004.8,2219.5 997.1,2220.5 989.5,2223.6 982.7,2228.7 977,2235.7 973.1,2244.1 971.4,2253.6 972,2263.7 975.2,2273.6 981,2282.7 989.1,2290.5 999.1,2296.2 1010.6,2299.3 1023,2299.6 1035.3,2296.8 1047,2290.9 1057.1,2282 1065,2270.7 1070.1,2257.4 1071.8,2242.9 1069.9,2228.1 1064.3,2213.8 1055.2,2201 1043,2190.5 1028.2,2183.2 1011.8,2179.5 994.6,2179.9 977.6,2184.6 962,2193.5 948.6,2206.1 938.5,2221.9 932.5,2240 930.9,2259.5 934.2,2279.1 942.2,2297.7 954.7,2314.1 971.1,2327.2 990.6,2336.1 1012,2340.2 1034.1,2338.9 1055.6,2332.3 1075.2,2320.4" fill="none" stroke="#3a2e1e" stroke-width="14" stroke-linecap="round" stroke-linejoin="round"/><polyline points="647.9,1852.8 646.1,1854.3 643.8,1855.1 641,1855.1 638,1854.2 635.1,1852.2 632.7,1849.2 631,1845.4 630.4,1840.9 631.1,1836.1 633.2,1831.2 636.7,1826.8 641.5,1823.2 647.4,1820.8 654,1820 661.1,1820.9 668,1823.7 674.3,1828.3 679.6,1834.7 683.2,1842.5 684.8,1851.3 684.2,1860.6 681.2,1869.9 675.8,1878.4 668.2,1885.6 658.7,1891 647.9,1893.9 636.2,1894.1 624.6,1891.4 613.6,1885.7 604,1877.3 596.6,1866.4 591.9,1853.8 590.3,1840 592.2,1825.8 597.7,1812.2 606.5,1800 618.3,1790.1 632.5,1783.2 648.3,1779.8 664.8,1780.4 681.1,1785 696.1,1793.7 708.8,1806 718.4,1821.3 724.1,1838.8 725.4,1857.6 722.1,1876.6 714.1,1894.5 701.8,1910.2 685.8,1922.8 666.8,1931.2 646,1934.9 624.6,1933.5 603.8,1926.8 584.8,1915.1 569,1898.8 557.4,1879" fill="none" stroke="#3a2e1e" stroke-width="14" stroke-linecap="round" stroke-linejoin="round"/><polyline points="890,1870.9 890.6,1868.6 890.3,1865.9 889.1,1863.2 886.8,1860.7 883.6,1858.8 879.6,1857.8 875.1,1858 870.5,1859.4 866.1,1862.3 862.4,1866.5 859.7,1871.9 858.4,1878.2 858.8,1885 861,1891.8 865.1,1898.2 870.9,1903.7 878.3,1907.7 886.8,1909.8 896,1909.8 905.3,1907.4 914.1,1902.5 921.7,1895.4 927.5,1886.3 931,1875.7 931.9,1864.1 929.8,1852.2 924.7,1840.9 916.7,1830.8 906.2,1822.8 893.7,1817.3 879.9,1815 865.4,1816.2 851.4,1821 838.6,1829.3 827.9,1840.8 820.1,1854.8 815.8,1870.8 815.5,1887.6 819.4,1904.5 827.5,1920.3 839.4,1933.9 854.6,1944.5 872.3,1951.2 891.5,1953.5 911.1,1951.1 929.9,1943.8 946.7,1932 960.4,1916.1 970.1,1897.1 974.9,1875.8 974.5,1853.7 968.7,1831.8 957.5,1811.7 941.6,1794.6 921.6,1781.6 898.7,1773.7 874.2,1771.5" fill="none" stroke="#3a2e1e" stroke-width="14" stroke-linecap="round" stroke-linejoin="round"/><polyline points="756.6,1882.8 758.1,1882.5 759.6,1881.5 760.9,1880 761.7,1877.9 761.8,1875.4 761.2,1872.8 759.8,1870.2 757.5,1867.9 754.5,1866.2 750.9,1865.2 747,1865.2 742.9,1866.3 739,1868.6 735.6,1871.9 733,1876.3 731.5,1881.3 731.4,1886.9 732.7,1892.6 735.4,1898 739.6,1902.8 745.1,1906.5 751.6,1908.8 758.7,1909.6 766,1908.5 773.1,1905.5 779.5,1900.7 784.7,1894.3 788.2,1886.6 789.9,1878 789.3,1869 786.5,1860.1 781.5,1852 774.5,1845.1 765.8,1840 755.8,1837.1 745.2,1836.7 734.5,1839 724.5,1843.9 715.7,1851.2 708.8,1860.7 704.3,1871.8 702.6,1883.9 703.9,1896.4 708.3,1908.4 715.6,1919.2 725.5,1928.1 737.5,1934.5 750.9,1937.9 765.1,1937.9 779.1,1934.4 792,1927.6 803.2,1917.6 811.7,1905 817.1,1890.5 818.8,1874.8 816.6,1858.9 810.6,1843.8" fill="none" stroke="#3a2e1e" stroke-width="14" stroke-linecap="round" stroke-linejoin="round"/><polyline points="1376.6,764.1 1375.4,762.9 1373.7,762.1 1371.6,761.9 1369.3,762.3 1367,763.5 1365,765.6 1363.5,768.3 1362.7,771.6 1362.8,775.2 1364,779 1366.2,782.5 1369.5,785.6 1373.7,787.8 1378.6,789 1383.9,788.9 1389.3,787.4 1394.3,784.4 1398.7,780.1 1402,774.6 1403.9,768.1 1404.2,761.2 1402.7,754 1399.4,747.3 1394.3,741.3 1387.7,736.6 1379.9,733.6 1371.2,732.5 1362.3,733.6 1353.7,737 1345.9,742.5 1339.5,749.9 1335,759 1332.8,769.1 1333.1,779.8 1336.1,790.3 1341.7,800.1 1349.6,808.4 1359.6,814.7 1371.1,818.4 1383.5,819.3 1395.9,817.1 1407.8,811.9 1418.2,803.7 1426.5,793.1 1432.1,780.5 1434.6,766.6 1433.6,752.3 1429.1,738.4 1421.2,725.7 1410.3,715.1 1396.9,707.3 1381.7,702.9 1365.7,702.3 1349.7,705.6 1334.7,712.9 1321.7,723.7 1311.5,737.5" fill="none" stroke="#3a2e1e" stroke-width="14" stroke-linecap="round" stroke-linejoin="round"/><polyline points="1078.6,805.4 1078.3,803 1078.9,800.3 1080.5,797.6 1083.1,795.3 1086.6,793.8 1090.8,793.2 1095.3,793.9 1099.9,795.9 1104,799.3 1107.4,804 1109.5,809.8 1110.2,816.4 1109,823.3 1106,830.1 1101.1,836.2 1094.5,841.1 1086.5,844.4 1077.6,845.6 1068.1,844.6 1058.9,841.1 1050.5,835.1 1043.5,827 1038.6,817 1036.1,805.7 1036.6,793.8 1040,781.9 1046.5,770.8 1055.8,761.4 1067.4,754.3 1080.8,750.2 1095.3,749.4 1109.9,752.2 1123.8,758.7 1136,768.6 1145.6,781.5 1152,796.8 1154.6,813.6 1153,830.9 1147.1,847.7 1137.1,862.9 1123.4,875.6 1106.6,884.7 1087.8,889.6 1067.9,889.8 1048.1,885.1 1029.7,875.6 1013.8,861.6 1001.5,843.8 993.7,823.3 991.1,801 994,778.3 1002.5,756.6 1016.1,737.3 1034.4,721.6 1056.3,710.5 1080.6,704.9 1105.9,705.4" fill="none" stroke="#3a2e1e" stroke-width="14" stroke-linecap="round" stroke-linejoin="round"/><polyline points="736.4,1316.3 738.3,1315.6 740.6,1315.5 743.1,1316.3 745.5,1317.9 747.5,1320.5 748.9,1323.8 749.2,1327.6 748.5,1331.8 746.5,1335.9 743.4,1339.6 739,1342.5 733.8,1344.4 727.9,1344.8 721.7,1343.7 715.7,1341 710.4,1336.6 706.1,1330.7 703.2,1323.6 702.2,1315.7 703.2,1307.4 706.3,1299.3 711.6,1291.9 718.8,1285.8 727.5,1281.6 737.4,1279.5 747.8,1279.9 758.2,1283 767.8,1288.7 775.9,1296.8 782.1,1306.9 785.6,1318.6 786.3,1331.1 783.8,1343.8 778.1,1355.8 769.5,1366.3 758.3,1374.7 745.1,1380.2 730.6,1382.4 715.6,1381 701.1,1375.9 688,1367.2 677.1,1355.3 669.3,1340.9 665.1,1324.6 664.9,1307.5 669,1290.4 677.2,1274.6 689.3,1260.9 704.6,1250.4 722.3,1243.8 741.4,1241.5 760.9,1244.1 779.5,1251.3 796.1,1263.1 809.6,1278.8 819.1,1297.5 823.8,1318.4" fill="none" stroke="#3a2e1e" stroke-width="14" stroke-linecap="round" stroke-linejoin="round"/><polyline points="521.8,2450 556.5,2373.5 591.1,2450" fill="none" stroke="#3a2e1e" stroke-width="12.6"/><polyline points="620.8,2450 655.5,2373.5 690.1,2450" fill="none" stroke="#3a2e1e" stroke-width="12.6"/><polyline points="719.8,2450 754.5,2373.5 789.1,2450" fill="none" stroke="#3a2e1e" stroke-width="12.6"/><polyline points="818.9,2450 853.5,2373.5 888.1,2450" fill="none" stroke="#3a2e1e" stroke-width="12.6"/><polyline points="917.9,2450 952.5,2373.5 987.1,2450" fill="none" stroke="#3a2e1e" stroke-width="12.6"/><polyline points="1016.9,2450 1051.5,2373.5 1086.2,2450" fill="none" stroke="#3a2e1e" stroke-width="12.6"/><polyline points="1115.8,2450 1150.5,2373.5 1185.2,2450" fill="none" stroke="#3a2e1e" stroke-width="12.6"/><polyline points="1214.8,2450 1249.5,2373.5 1284.2,2450" fill="none" stroke="#3a2e1e" stroke-width="12.6"/><polyline points="1313.8,2450 1348.5,2373.5 1383.2,2450" fill="none" stroke="#3a2e1e" stroke-width="12.6"/><polyline points="1412.8,2450 1447.5,2373.5 1482.2,2450" fill="none" stroke="#3a2e1e" stroke-width="12.6"/><polyline points="1511.8,2450 1546.5,2373.5 1581.2,2450" fill="none" stroke="#3a2e1e" stroke-width="12.6"/><polyline points="1610.8,2450 1645.5,2373.5 1680.2,2450" fill="none" stroke="#3a2e1e" stroke-width="12.6"/><polyline points="1709.8,2450 1744.5,2373.5 1779.2,2450" fill="none" stroke="#3a2e1e" stroke-width="12.6"/><polyline points="1808.8,2450 1843.5,2373.5 1878.2,2450" fill="none" stroke="#3a2e1e" stroke-width="12.6"/></g><circle cx="390" cy="200" r="15.6" fill="#3a2e1e"/><circle cx="450" cy="200" r="15.6" fill="#3a2e1e"/><circle cx="510" cy="200" r="15.6" fill="#3a2e1e"/><circle cx="570" cy="200" r="15.6" fill="#3a2e1e"/><circle cx="630" cy="200" r="15.6" fill="#3a2e1e"/><circle cx="690" cy="200" r="15.6" fill="#3a2e1e"/><circle cx="750" cy="200" r="15.6" fill="#3a2e1e"/><circle cx="810" cy="200" r="15.6" fill="#3a2e1e"/><circle cx="870" cy="200" r="15.6" fill="#3a2e1e"/><circle cx="930" cy="200" r="15.6" fill="#3a2e1e"/><circle cx="990" cy="200" r="15.6" fill="#3a2e1e"/><circle cx="1050" cy="200" r="15.6" fill="#3a2e1e"/><circle cx="1110" cy="200" r="15.6" fill="#3a2e1e"/><circle cx="1170" cy="200" r="15.6" fill="#3a2e1e"/><circle cx="1230" cy="200" r="15.6" fill="#3a2e1e"/><circle cx="1290" cy="200" r="15.6" fill="#3a2e1e"/><circle cx="1350" cy="200" r="15.6" fill="#3a2e1e"/><circle cx="1410" cy="200" r="15.6" fill="#3a2e1e"/><circle cx="1470" cy="200" r="15.6" fill="#3a2e1e"/><circle cx="1530" cy="200" r="15.6" fill="#3a2e1e"/><circle cx="1590" cy="200" r="15.6" fill="#3a2e1e"/><circle cx="1650" cy="200" r="15.6" fill="#3a2e1e"/><circle cx="1710" cy="200" r="15.6" fill="#3a2e1e"/><circle cx="1770" cy="200" r="15.6" fill="#3a2e1e"/><circle cx="1830" cy="200" r="15.6" fill="#3a2e1e"/><circle cx="1890" cy="200" r="15.6" fill="#3a2e1e"/><circle cx="1950" cy="200" r="15.6" fill="#3a2e1e"/><circle cx="2010" cy="200" r="15.6" fill="#3a2e1e"/><circle cx="390" cy="2800" r="15.6" fill="#3a2e1e"/><circle cx="450" cy="2800" r="15.6" fill="#3a2e1e"/><circle cx="510" cy="2800" r="15.6" fill="#3a2e1e"/><circle cx="570" cy="2800" r="15.6" fill="#3a2e1e"/><circle cx="630" cy="2800" r="15.6" fill="#3a2e1e"/><circle cx="690" cy="2800" r="15.6" fill="#3a2e1e"/><circle cx="750" cy="2800" r="15.6" fill="#3a2e1e"/><circle cx="810" cy="2800" r="15.6" fill="#3a2e1e"/><circle cx="870" cy="2800" r="15.6" fill="#3a2e1e"/><circle cx="930" cy="2800" r="15.6" fill="#3a2e1e"/><circle cx="990" cy="2800" r="15.6" fill="#3a2e1e"/><circle cx="1050" cy="2800" r="15.6" fill="#3a2e1e"/><circle cx="1110" cy="2800" r="15.6" fill="#3a2e1e"/><circle cx="1170" cy="2800" r="15.6" fill="#3a2e1e"/><circle cx="1230" cy="2800" r="15.6" fill="#3a2e1e"/><circle cx="1290" cy="2800" r="15.6" fill="#3a2e1e"/><circle cx="1350" cy="2800" r="15.6" fill="#3a2e1e"/><circle cx="1410" cy="2800" r="15.6" fill="#3a2e1e"/><circle cx="1470" cy="2800" r="15.6" fill="#3a2e1e"/><circle cx="1530" cy="2800" r="15.6" fill="#3a2e1e"/><circle cx="1590" cy="2800" r="15.6" fill="#3a2e1e"/><circle cx="1650" cy="2800" r="15.6" fill="#3a2e1e"/><circle cx="1710" cy="2800" r="15.6" fill="#3a2e1e"/><circle cx="1770" cy="2800" r="15.6" fill="#3a2e1e"/><circle cx="1830" cy="2800" r="15.6" fill="#3a2e1e"/><circle cx="1890" cy="2800" r="15.6" fill="#3a2e1e"/><circle cx="1950" cy="2800" r="15.6" fill="#3a2e1e"/><circle cx="2010" cy="2800" r="15.6" fill="#3a2e1e"/><rect x="130" y="130" width="2140" height="2740" fill="none" stroke="#3a2e1e" stroke-width="5"/><rect x="152" y="152" width="2096" height="2696" fill="none" stroke="#3a2e1e" stroke-width="2.5" opacity="0.8"/></g><rect width="2400" height="3000" filter="url(#a57-mottle)" style="mix-blend-mode:multiply" opacity="0.5"/><rect width="2400" height="3000" filter="url(#a57-fade)" style="mix-blend-mode:screen" opacity="0.55"/><rect width="2400" height="3000" filter="url(#a57-grain)" style="mix-blend-mode:multiply" opacity="0.32"/><ellipse cx="682" cy="1199.9" rx="171.5" ry="184.5" fill="#6b4a22" opacity="0.034" filter="url(#a57-blur9)"/><ellipse cx="1792.9" cy="1372.8" rx="96.3" ry="91.7" fill="#6b4a22" opacity="0.058" filter="url(#a57-blur9)"/><ellipse cx="1746" cy="1339.1" rx="130.4" ry="99" fill="#6b4a22" opacity="0.043" filter="url(#a57-blur9)"/><ellipse cx="1891" cy="2013" rx="189" ry="205.6" fill="#6b4a22" opacity="0.054" filter="url(#a57-blur9)"/><ellipse cx="522.5" cy="415.7" rx="294.8" ry="169.2" fill="#6b4a22" opacity="0.051" filter="url(#a57-blur9)"/><g opacity="0.3"><rect y="3" width="2400" height="2" fill="#e0d5bd"/><rect y="11" width="2400" height="2" fill="#e0d5bd"/><rect y="19" width="2400" height="2" fill="#e0d5bd"/><rect y="27" width="2400" height="2" fill="#e0d5bd"/><rect y="35" width="2400" height="2" fill="#e0d5bd"/><rect y="43" width="2400" height="2" fill="#e0d5bd"/><rect y="51" width="2400" height="2" fill="#e0d5bd"/><rect y="59" width="2400" height="2" fill="#e0d5bd"/><rect y="67" width="2400" height="2" fill="#e0d5bd"/><rect y="75" width="2400" height="2" fill="#e0d5bd"/><rect y="83" width="2400" height="2" fill="#e0d5bd"/><rect y="91" width="2400" height="2" fill="#e0d5bd"/><rect y="99" width="2400" height="2" fill="#e0d5bd"/><rect y="107" width="2400" height="2" fill="#e0d5bd"/><rect y="115" width="2400" height="2" fill="#e0d5bd"/><rect y="123" width="2400" height="2" fill="#e0d5bd"/><rect y="131" width="2400" height="2" fill="#e0d5bd"/><rect y="139" width="2400" height="2" fill="#e0d5bd"/><rect y="147" width="2400" height="2" fill="#e0d5bd"/><rect y="155" width="2400" height="2" fill="#e0d5bd"/><rect y="163" width="2400" height="2" fill="#e0d5bd"/><rect y="171" width="2400" height="2" fill="#e0d5bd"/><rect y="179" width="2400" height="2" fill="#e0d5bd"/><rect y="187" width="2400" height="2" fill="#e0d5bd"/><rect y="195" width="2400" height="2" fill="#e0d5bd"/><rect y="203" width="2400" height="2" fill="#e0d5bd"/><rect y="211" width="2400" height="2" fill="#e0d5bd"/><rect y="219" width="2400" height="2" fill="#e0d5bd"/><rect y="227" width="2400" height="2" fill="#e0d5bd"/><rect y="235" width="2400" height="2" fill="#e0d5bd"/><rect y="243" width="2400" height="2" fill="#e0d5bd"/><rect y="251" width="2400" height="2" fill="#e0d5bd"/><rect y="259" width="2400" height="2" fill="#e0d5bd"/><rect y="267" width="2400" height="2" fill="#e0d5bd"/><rect y="275" width="2400" height="2" fill="#e0d5bd"/><rect y="283" width="2400" height="2" fill="#e0d5bd"/><rect y="291" width="2400" height="2" fill="#e0d5bd"/><rect y="299" width="2400" height="2" fill="#e0d5bd"/><rect y="307" width="2400" height="2" fill="#e0d5bd"/><rect y="315" width="2400" height="2" fill="#e0d5bd"/><rect y="323" width="2400" height="2" fill="#e0d5bd"/><rect y="331" width="2400" height="2" fill="#e0d5bd"/><rect y="339" width="2400" height="2" fill="#e0d5bd"/><rect y="347" width="2400" height="2" fill="#e0d5bd"/><rect y="355" width="2400" height="2" fill="#e0d5bd"/><rect y="363" width="2400" height="2" fill="#e0d5bd"/><rect y="371" width="2400" height="2" fill="#e0d5bd"/><rect y="379" width="2400" height="2" fill="#e0d5bd"/><rect y="387" width="2400" height="2" fill="#e0d5bd"/><rect y="395" width="2400" height="2" fill="#e0d5bd"/><rect y="403" width="2400" height="2" fill="#e0d5bd"/><rect y="411" width="2400" height="2" fill="#e0d5bd"/><rect y="419" width="2400" height="2" fill="#e0d5bd"/><rect y="427" width="2400" height="2" fill="#e0d5bd"/><rect y="435" width="2400" height="2" fill="#e0d5bd"/><rect y="443" width="2400" height="2" fill="#e0d5bd"/><rect y="451" width="2400" height="2" fill="#e0d5bd"/><rect y="459" width="2400" height="2" fill="#e0d5bd"/><rect y="467" width="2400" height="2" fill="#e0d5bd"/><rect y="475" width="2400" height="2" fill="#e0d5bd"/><rect y="483" width="2400" height="2" fill="#e0d5bd"/><rect y="491" width="2400" height="2" fill="#e0d5bd"/><rect y="499" width="2400" height="2" fill="#e0d5bd"/><rect y="507" width="2400" height="2" fill="#e0d5bd"/><rect y="515" width="2400" height="2" fill="#e0d5bd"/><rect y="523" width="2400" height="2" fill="#e0d5bd"/><rect y="531" width="2400" height="2" fill="#e0d5bd"/><rect y="539" width="2400" height="2" fill="#e0d5bd"/><rect y="547" width="2400" height="2" fill="#e0d5bd"/><rect y="555" width="2400" height="2" fill="#e0d5bd"/><rect y="563" width="2400" height="2" fill="#e0d5bd"/><rect y="571" width="2400" height="2" fill="#e0d5bd"/><rect y="579" width="2400" height="2" fill="#e0d5bd"/><rect y="587" width="2400" height="2" fill="#e0d5bd"/><rect y="595" width="2400" height="2" fill="#e0d5bd"/><rect y="603" width="2400" height="2" fill="#e0d5bd"/><rect y="611" width="2400" height="2" fill="#e0d5bd"/><rect y="619" width="2400" height="2" fill="#e0d5bd"/><rect y="627" width="2400" height="2" fill="#e0d5bd"/><rect y="635" width="2400" height="2" fill="#e0d5bd"/><rect y="643" width="2400" height="2" fill="#e0d5bd"/><rect y="651" width="2400" height="2" fill="#e0d5bd"/><rect y="659" width="2400" height="2" fill="#e0d5bd"/><rect y="667" width="2400" height="2" fill="#e0d5bd"/><rect y="675" width="2400" height="2" fill="#e0d5bd"/><rect y="683" width="2400" height="2" fill="#e0d5bd"/><rect y="691" width="2400" height="2" fill="#e0d5bd"/><rect y="699" width="2400" height="2" fill="#e0d5bd"/><rect y="707" width="2400" height="2" fill="#e0d5bd"/><rect y="715" width="2400" height="2" fill="#e0d5bd"/><rect y="723" width="2400" height="2" fill="#e0d5bd"/><rect y="731" width="2400" height="2" fill="#e0d5bd"/><rect y="739" width="2400" height="2" fill="#e0d5bd"/><rect y="747" width="2400" height="2" fill="#e0d5bd"/><rect y="755" width="2400" height="2" fill="#e0d5bd"/><rect y="763" width="2400" height="2" fill="#e0d5bd"/><rect y="771" width="2400" height="2" fill="#e0d5bd"/><rect y="779" width="2400" height="2" fill="#e0d5bd"/><rect y="787" width="2400" height="2" fill="#e0d5bd"/><rect y="795" width="2400" height="2" fill="#e0d5bd"/><rect y="803" width="2400" height="2" fill="#e0d5bd"/><rect y="811" width="2400" height="2" fill="#e0d5bd"/><rect y="819" width="2400" height="2" fill="#e0d5bd"/><rect y="827" width="2400" height="2" fill="#e0d5bd"/><rect y="835" width="2400" height="2" fill="#e0d5bd"/><rect y="843" width="2400" height="2" fill="#e0d5bd"/><rect y="851" width="2400" height="2" fill="#e0d5bd"/><rect y="859" width="2400" height="2" fill="#e0d5bd"/><rect y="867" width="2400" height="2" fill="#e0d5bd"/><rect y="875" width="2400" height="2" fill="#e0d5bd"/><rect y="883" width="2400" height="2" fill="#e0d5bd"/><rect y="891" width="2400" height="2" fill="#e0d5bd"/><rect y="899" width="2400" height="2" fill="#e0d5bd"/><rect y="907" width="2400" height="2" fill="#e0d5bd"/><rect y="915" width="2400" height="2" fill="#e0d5bd"/><rect y="923" width="2400" height="2" fill="#e0d5bd"/><rect y="931" width="2400" height="2" fill="#e0d5bd"/><rect y="939" width="2400" height="2" fill="#e0d5bd"/><rect y="947" width="2400" height="2" fill="#e0d5bd"/><rect y="955" width="2400" height="2" fill="#e0d5bd"/><rect y="963" width="2400" height="2" fill="#e0d5bd"/><rect y="971" width="2400" height="2" fill="#e0d5bd"/><rect y="979" width="2400" height="2" fill="#e0d5bd"/><rect y="987" width="2400" height="2" fill="#e0d5bd"/><rect y="995" width="2400" height="2" fill="#e0d5bd"/><rect y="1003" width="2400" height="2" fill="#e0d5bd"/><rect y="1011" width="2400" height="2" fill="#e0d5bd"/><rect y="1019" width="2400" height="2" fill="#e0d5bd"/><rect y="1027" width="2400" height="2" fill="#e0d5bd"/><rect y="1035" width="2400" height="2" fill="#e0d5bd"/><rect y="1043" width="2400" height="2" fill="#e0d5bd"/><rect y="1051" width="2400" height="2" fill="#e0d5bd"/><rect y="1059" width="2400" height="2" fill="#e0d5bd"/><rect y="1067" width="2400" height="2" fill="#e0d5bd"/><rect y="1075" width="2400" height="2" fill="#e0d5bd"/><rect y="1083" width="2400" height="2" fill="#e0d5bd"/><rect y="1091" width="2400" height="2" fill="#e0d5bd"/><rect y="1099" width="2400" height="2" fill="#e0d5bd"/><rect y="1107" width="2400" height="2" fill="#e0d5bd"/><rect y="1115" width="2400" height="2" fill="#e0d5bd"/><rect y="1123" width="2400" height="2" fill="#e0d5bd"/><rect y="1131" width="2400" height="2" fill="#e0d5bd"/><rect y="1139" width="2400" height="2" fill="#e0d5bd"/><rect y="1147" width="2400" height="2" fill="#e0d5bd"/><rect y="1155" width="2400" height="2" fill="#e0d5bd"/><rect y="1163" width="2400" height="2" fill="#e0d5bd"/><rect y="1171" width="2400" height="2" fill="#e0d5bd"/><rect y="1179" width="2400" height="2" fill="#e0d5bd"/><rect y="1187" width="2400" height="2" fill="#e0d5bd"/><rect y="1195" width="2400" height="2" fill="#e0d5bd"/><rect y="1203" width="2400" height="2" fill="#e0d5bd"/><rect y="1211" width="2400" height="2" fill="#e0d5bd"/><rect y="1219" width="2400" height="2" fill="#e0d5bd"/><rect y="1227" width="2400" height="2" fill="#e0d5bd"/><rect y="1235" width="2400" height="2" fill="#e0d5bd"/><rect y="1243" width="2400" height="2" fill="#e0d5bd"/><rect y="1251" width="2400" height="2" fill="#e0d5bd"/><rect y="1259" width="2400" height="2" fill="#e0d5bd"/><rect y="1267" width="2400" height="2" fill="#e0d5bd"/><rect y="1275" width="2400" height="2" fill="#e0d5bd"/><rect y="1283" width="2400" height="2" fill="#e0d5bd"/><rect y="1291" width="2400" height="2" fill="#e0d5bd"/><rect y="1299" width="2400" height="2" fill="#e0d5bd"/><rect y="1307" width="2400" height="2" fill="#e0d5bd"/><rect y="1315" width="2400" height="2" fill="#e0d5bd"/><rect y="1323" width="2400" height="2" fill="#e0d5bd"/><rect y="1331" width="2400" height="2" fill="#e0d5bd"/><rect y="1339" width="2400" height="2" fill="#e0d5bd"/><rect y="1347" width="2400" height="2" fill="#e0d5bd"/><rect y="1355" width="2400" height="2" fill="#e0d5bd"/><rect y="1363" width="2400" height="2" fill="#e0d5bd"/><rect y="1371" width="2400" height="2" fill="#e0d5bd"/><rect y="1379" width="2400" height="2" fill="#e0d5bd"/><rect y="1387" width="2400" height="2" fill="#e0d5bd"/><rect y="1395" width="2400" height="2" fill="#e0d5bd"/><rect y="1403" width="2400" height="2" fill="#e0d5bd"/><rect y="1411" width="2400" height="2" fill="#e0d5bd"/><rect y="1419" width="2400" height="2" fill="#e0d5bd"/><rect y="1427" width="2400" height="2" fill="#e0d5bd"/><rect y="1435" width="2400" height="2" fill="#e0d5bd"/><rect y="1443" width="2400" height="2" fill="#e0d5bd"/><rect y="1451" width="2400" height="2" fill="#e0d5bd"/><rect y="1459" width="2400" height="2" fill="#e0d5bd"/><rect y="1467" width="2400" height="2" fill="#e0d5bd"/><rect y="1475" width="2400" height="2" fill="#e0d5bd"/><rect y="1483" width="2400" height="2" fill="#e0d5bd"/><rect y="1491" width="2400" height="2" fill="#e0d5bd"/><rect y="1499" width="2400" height="2" fill="#e0d5bd"/><rect y="1507" width="2400" height="2" fill="#e0d5bd"/><rect y="1515" width="2400" height="2" fill="#e0d5bd"/><rect y="1523" width="2400" height="2" fill="#e0d5bd"/><rect y="1531" width="2400" height="2" fill="#e0d5bd"/><rect y="1539" width="2400" height="2" fill="#e0d5bd"/><rect y="1547" width="2400" height="2" fill="#e0d5bd"/><rect y="1555" width="2400" height="2" fill="#e0d5bd"/><rect y="1563" width="2400" height="2" fill="#e0d5bd"/><rect y="1571" width="2400" height="2" fill="#e0d5bd"/><rect y="1579" width="2400" height="2" fill="#e0d5bd"/><rect y="1587" width="2400" height="2" fill="#e0d5bd"/><rect y="1595" width="2400" height="2" fill="#e0d5bd"/><rect y="1603" width="2400" height="2" fill="#e0d5bd"/><rect y="1611" width="2400" height="2" fill="#e0d5bd"/><rect y="1619" width="2400" height="2" fill="#e0d5bd"/><rect y="1627" width="2400" height="2" fill="#e0d5bd"/><rect y="1635" width="2400" height="2" fill="#e0d5bd"/><rect y="1643" width="2400" height="2" fill="#e0d5bd"/><rect y="1651" width="2400" height="2" fill="#e0d5bd"/><rect y="1659" width="2400" height="2" fill="#e0d5bd"/><rect y="1667" width="2400" height="2" fill="#e0d5bd"/><rect y="1675" width="2400" height="2" fill="#e0d5bd"/><rect y="1683" width="2400" height="2" fill="#e0d5bd"/><rect y="1691" width="2400" height="2" fill="#e0d5bd"/><rect y="1699" width="2400" height="2" fill="#e0d5bd"/><rect y="1707" width="2400" height="2" fill="#e0d5bd"/><rect y="1715" width="2400" height="2" fill="#e0d5bd"/><rect y="1723" width="2400" height="2" fill="#e0d5bd"/><rect y="1731" width="2400" height="2" fill="#e0d5bd"/><rect y="1739" width="2400" height="2" fill="#e0d5bd"/><rect y="1747" width="2400" height="2" fill="#e0d5bd"/><rect y="1755" width="2400" height="2" fill="#e0d5bd"/><rect y="1763" width="2400" height="2" fill="#e0d5bd"/><rect y="1771" width="2400" height="2" fill="#e0d5bd"/><rect y="1779" width="2400" height="2" fill="#e0d5bd"/><rect y="1787" width="2400" height="2" fill="#e0d5bd"/><rect y="1795" width="2400" height="2" fill="#e0d5bd"/><rect y="1803" width="2400" height="2" fill="#e0d5bd"/><rect y="1811" width="2400" height="2" fill="#e0d5bd"/><rect y="1819" width="2400" height="2" fill="#e0d5bd"/><rect y="1827" width="2400" height="2" fill="#e0d5bd"/><rect y="1835" width="2400" height="2" fill="#e0d5bd"/><rect y="1843" width="2400" height="2" fill="#e0d5bd"/><rect y="1851" width="2400" height="2" fill="#e0d5bd"/><rect y="1859" width="2400" height="2" fill="#e0d5bd"/><rect y="1867" width="2400" height="2" fill="#e0d5bd"/><rect y="1875" width="2400" height="2" fill="#e0d5bd"/><rect y="1883" width="2400" height="2" fill="#e0d5bd"/><rect y="1891" width="2400" height="2" fill="#e0d5bd"/><rect y="1899" width="2400" height="2" fill="#e0d5bd"/><rect y="1907" width="2400" height="2" fill="#e0d5bd"/><rect y="1915" width="2400" height="2" fill="#e0d5bd"/><rect y="1923" width="2400" height="2" fill="#e0d5bd"/><rect y="1931" width="2400" height="2" fill="#e0d5bd"/><rect y="1939" width="2400" height="2" fill="#e0d5bd"/><rect y="1947" width="2400" height="2" fill="#e0d5bd"/><rect y="1955" width="2400" height="2" fill="#e0d5bd"/><rect y="1963" width="2400" height="2" fill="#e0d5bd"/><rect y="1971" width="2400" height="2" fill="#e0d5bd"/><rect y="1979" width="2400" height="2" fill="#e0d5bd"/><rect y="1987" width="2400" height="2" fill="#e0d5bd"/><rect y="1995" width="2400" height="2" fill="#e0d5bd"/><rect y="2003" width="2400" height="2" fill="#e0d5bd"/><rect y="2011" width="2400" height="2" fill="#e0d5bd"/><rect y="2019" width="2400" height="2" fill="#e0d5bd"/><rect y="2027" width="2400" height="2" fill="#e0d5bd"/><rect y="2035" width="2400" height="2" fill="#e0d5bd"/><rect y="2043" width="2400" height="2" fill="#e0d5bd"/><rect y="2051" width="2400" height="2" fill="#e0d5bd"/><rect y="2059" width="2400" height="2" fill="#e0d5bd"/><rect y="2067" width="2400" height="2" fill="#e0d5bd"/><rect y="2075" width="2400" height="2" fill="#e0d5bd"/><rect y="2083" width="2400" height="2" fill="#e0d5bd"/><rect y="2091" width="2400" height="2" fill="#e0d5bd"/><rect y="2099" width="2400" height="2" fill="#e0d5bd"/><rect y="2107" width="2400" height="2" fill="#e0d5bd"/><rect y="2115" width="2400" height="2" fill="#e0d5bd"/><rect y="2123" width="2400" height="2" fill="#e0d5bd"/><rect y="2131" width="2400" height="2" fill="#e0d5bd"/><rect y="2139" width="2400" height="2" fill="#e0d5bd"/><rect y="2147" width="2400" height="2" fill="#e0d5bd"/><rect y="2155" width="2400" height="2" fill="#e0d5bd"/><rect y="2163" width="2400" height="2" fill="#e0d5bd"/><rect y="2171" width="2400" height="2" fill="#e0d5bd"/><rect y="2179" width="2400" height="2" fill="#e0d5bd"/><rect y="2187" width="2400" height="2" fill="#e0d5bd"/><rect y="2195" width="2400" height="2" fill="#e0d5bd"/><rect y="2203" width="2400" height="2" fill="#e0d5bd"/><rect y="2211" width="2400" height="2" fill="#e0d5bd"/><rect y="2219" width="2400" height="2" fill="#e0d5bd"/><rect y="2227" width="2400" height="2" fill="#e0d5bd"/><rect y="2235" width="2400" height="2" fill="#e0d5bd"/><rect y="2243" width="2400" height="2" fill="#e0d5bd"/><rect y="2251" width="2400" height="2" fill="#e0d5bd"/><rect y="2259" width="2400" height="2" fill="#e0d5bd"/><rect y="2267" width="2400" height="2" fill="#e0d5bd"/><rect y="2275" width="2400" height="2" fill="#e0d5bd"/><rect y="2283" width="2400" height="2" fill="#e0d5bd"/><rect y="2291" width="2400" height="2" fill="#e0d5bd"/><rect y="2299" width="2400" height="2" fill="#e0d5bd"/><rect y="2307" width="2400" height="2" fill="#e0d5bd"/><rect y="2315" width="2400" height="2" fill="#e0d5bd"/><rect y="2323" width="2400" height="2" fill="#e0d5bd"/><rect y="2331" width="2400" height="2" fill="#e0d5bd"/><rect y="2339" width="2400" height="2" fill="#e0d5bd"/><rect y="2347" width="2400" height="2" fill="#e0d5bd"/><rect y="2355" width="2400" height="2" fill="#e0d5bd"/><rect y="2363" width="2400" height="2" fill="#e0d5bd"/><rect y="2371" width="2400" height="2" fill="#e0d5bd"/><rect y="2379" width="2400" height="2" fill="#e0d5bd"/><rect y="2387" width="2400" height="2" fill="#e0d5bd"/><rect y="2395" width="2400" height="2" fill="#e0d5bd"/><rect y="2403" width="2400" height="2" fill="#e0d5bd"/><rect y="2411" width="2400" height="2" fill="#e0d5bd"/><rect y="2419" width="2400" height="2" fill="#e0d5bd"/><rect y="2427" width="2400" height="2" fill="#e0d5bd"/><rect y="2435" width="2400" height="2" fill="#e0d5bd"/><rect y="2443" width="2400" height="2" fill="#e0d5bd"/><rect y="2451" width="2400" height="2" fill="#e0d5bd"/><rect y="2459" width="2400" height="2" fill="#e0d5bd"/><rect y="2467" width="2400" height="2" fill="#e0d5bd"/><rect y="2475" width="2400" height="2" fill="#e0d5bd"/><rect y="2483" width="2400" height="2" fill="#e0d5bd"/><rect y="2491" width="2400" height="2" fill="#e0d5bd"/><rect y="2499" width="2400" height="2" fill="#e0d5bd"/><rect y="2507" width="2400" height="2" fill="#e0d5bd"/><rect y="2515" width="2400" height="2" fill="#e0d5bd"/><rect y="2523" width="2400" height="2" fill="#e0d5bd"/><rect y="2531" width="2400" height="2" fill="#e0d5bd"/><rect y="2539" width="2400" height="2" fill="#e0d5bd"/><rect y="2547" width="2400" height="2" fill="#e0d5bd"/><rect y="2555" width="2400" height="2" fill="#e0d5bd"/><rect y="2563" width="2400" height="2" fill="#e0d5bd"/><rect y="2571" width="2400" height="2" fill="#e0d5bd"/><rect y="2579" width="2400" height="2" fill="#e0d5bd"/><rect y="2587" width="2400" height="2" fill="#e0d5bd"/><rect y="2595" width="2400" height="2" fill="#e0d5bd"/><rect y="2603" width="2400" height="2" fill="#e0d5bd"/><rect y="2611" width="2400" height="2" fill="#e0d5bd"/><rect y="2619" width="2400" height="2" fill="#e0d5bd"/><rect y="2627" width="2400" height="2" fill="#e0d5bd"/><rect y="2635" width="2400" height="2" fill="#e0d5bd"/><rect y="2643" width="2400" height="2" fill="#e0d5bd"/><rect y="2651" width="2400" height="2" fill="#e0d5bd"/><rect y="2659" width="2400" height="2" fill="#e0d5bd"/><rect y="2667" width="2400" height="2" fill="#e0d5bd"/><rect y="2675" width="2400" height="2" fill="#e0d5bd"/><rect y="2683" width="2400" height="2" fill="#e0d5bd"/><rect y="2691" width="2400" height="2" fill="#e0d5bd"/><rect y="2699" width="2400" height="2" fill="#e0d5bd"/><rect y="2707" width="2400" height="2" fill="#e0d5bd"/><rect y="2715" width="2400" height="2" fill="#e0d5bd"/><rect y="2723" width="2400" height="2" fill="#e0d5bd"/><rect y="2731" width="2400" height="2" fill="#e0d5bd"/><rect y="2739" width="2400" height="2" fill="#e0d5bd"/><rect y="2747" width="2400" height="2" fill="#e0d5bd"/><rect y="2755" width="2400" height="2" fill="#e0d5bd"/><rect y="2763" width="2400" height="2" fill="#e0d5bd"/><rect y="2771" width="2400" height="2" fill="#e0d5bd"/><rect y="2779" width="2400" height="2" fill="#e0d5bd"/><rect y="2787" width="2400" height="2" fill="#e0d5bd"/><rect y="2795" width="2400" height="2" fill="#e0d5bd"/><rect y="2803" width="2400" height="2" fill="#e0d5bd"/><rect y="2811" width="2400" height="2" fill="#e0d5bd"/><rect y="2819" width="2400" height="2" fill="#e0d5bd"/><rect y="2827" width="2400" height="2" fill="#e0d5bd"/><rect y="2835" width="2400" height="2" fill="#e0d5bd"/><rect y="2843" width="2400" height="2" fill="#e0d5bd"/><rect y="2851" width="2400" height="2" fill="#e0d5bd"/><rect y="2859" width="2400" height="2" fill="#e0d5bd"/><rect y="2867" width="2400" height="2" fill="#e0d5bd"/><rect y="2875" width="2400" height="2" fill="#e0d5bd"/><rect y="2883" width="2400" height="2" fill="#e0d5bd"/><rect y="2891" width="2400" height="2" fill="#e0d5bd"/><rect y="2899" width="2400" height="2" fill="#e0d5bd"/><rect y="2907" width="2400" height="2" fill="#e0d5bd"/><rect y="2915" width="2400" height="2" fill="#e0d5bd"/><rect y="2923" width="2400" height="2" fill="#e0d5bd"/><rect y="2931" width="2400" height="2" fill="#e0d5bd"/><rect y="2939" width="2400" height="2" fill="#e0d5bd"/><rect y="2947" width="2400" height="2" fill="#e0d5bd"/><rect y="2955" width="2400" height="2" fill="#e0d5bd"/><rect y="2963" width="2400" height="2" fill="#e0d5bd"/><rect y="2971" width="2400" height="2" fill="#e0d5bd"/><rect y="2979" width="2400" height="2" fill="#e0d5bd"/><rect y="2987" width="2400" height="2" fill="#e0d5bd"/><rect y="2995" width="2400" height="2" fill="#e0d5bd"/></g><rect x="88" y="88" width="2224" height="2824" fill="none" stroke="#3a2c1a" stroke-width="4" opacity="0.2"/><rect x="94" y="94" width="2212" height="2812" fill="none" stroke="#fff6e0" stroke-width="2" opacity="0.25"/><circle cx="2190.8" cy="2241.3" r="13.4" fill="#8a5a2e" opacity="0.088"/><circle cx="1441.5" cy="2493.5" r="14.2" fill="#8a5a2e" opacity="0.100"/><circle cx="1644.6" cy="137.8" r="4.2" fill="#8a5a2e" opacity="0.057"/><circle cx="1254.5" cy="896.9" r="6" fill="#8a5a2e" opacity="0.058"/><circle cx="934.4" cy="2548.6" r="13.3" fill="#8a5a2e" opacity="0.099"/><circle cx="922.6" cy="1827.9" r="5.1" fill="#8a5a2e" opacity="0.087"/><circle cx="2022.2" cy="2104" r="6.7" fill="#8a5a2e" opacity="0.109"/><circle cx="1402.7" cy="1762.5" r="15.7" fill="#8a5a2e" opacity="0.040"/><circle cx="1219.3" cy="2794.2" r="5.5" fill="#8a5a2e" opacity="0.101"/><circle cx="544" cy="1094.8" r="9.4" fill="#8a5a2e" opacity="0.060"/><circle cx="1356.2" cy="1969.8" r="15" fill="#8a5a2e" opacity="0.062"/><circle cx="2042.3" cy="1432.1" r="7.6" fill="#8a5a2e" opacity="0.127"/><circle cx="423.9" cy="919" r="13.3" fill="#8a5a2e" opacity="0.059"/><circle cx="608" cy="2316.4" r="6.8" fill="#8a5a2e" opacity="0.114"/><circle cx="782.6" cy="1850.6" r="15.6" fill="#8a5a2e" opacity="0.043"/><circle cx="281.9" cy="333.3" r="15.9" fill="#8a5a2e" opacity="0.080"/><circle cx="2183.1" cy="120.5" r="4.3" fill="#8a5a2e" opacity="0.069"/><circle cx="1342.5" cy="1364.1" r="8.7" fill="#8a5a2e" opacity="0.106"/><circle cx="1014.9" cy="1647.5" r="8.2" fill="#8a5a2e" opacity="0.064"/><circle cx="1970.1" cy="1124.5" r="9" fill="#8a5a2e" opacity="0.102"/><circle cx="1432.3" cy="1533.5" r="11.2" fill="#8a5a2e" opacity="0.100"/><circle cx="1683.6" cy="2901.2" r="14.6" fill="#8a5a2e" opacity="0.095"/><circle cx="1169.9" cy="1469.3" r="11.1" fill="#8a5a2e" opacity="0.110"/><circle cx="80.3" cy="771.8" r="6.8" fill="#8a5a2e" opacity="0.047"/><circle cx="2319.7" cy="1115.5" r="14.7" fill="#8a5a2e" opacity="0.106"/><circle cx="1293.8" cy="1732.3" r="14.4" fill="#8a5a2e" opacity="0.083"/><circle cx="789.5" cy="408.1" r="12.3" fill="#8a5a2e" opacity="0.119"/><circle cx="402.7" cy="592.9" r="13.7" fill="#8a5a2e" opacity="0.068"/><rect width="2400" height="3000" fill="url(#a57-vig)"/></svg></svg>