<svg xmlns="http://www.w3.org/2000/svg" width="2400" height="1800" viewBox="0 0 2400 1800"><rect width="2400" height="1800" fill="#e8e2d6"/><rect y="1420" width="2400" height="380" fill="#cbb597"/><ellipse cx="1200" cy="1640" rx="760" ry="130" fill="#7c3a31" opacity="0.55"/><ellipse cx="1200" cy="1640" rx="600" ry="96" fill="none" stroke="#c98f4e" stroke-width="10" opacity="0.5"/><rect x="700" y="1120" width="1000" height="300" rx="40" fill="#97a08c"/><rect x="640" y="1060" width="120" height="380" rx="40" fill="#87907c"/><rect x="1640" y="1060" width="120" height="380" rx="40" fill="#87907c"/><rect x="740" y="1010" width="920" height="180" rx="36" fill="#a3ac97"/><rect x="800" y="1060" width="240" height="160" rx="30" fill="#c98f4e"/><rect x="1380" y="1060" width="240" height="160" rx="30" fill="#7c3a31"/><rect x="700" y="1420" width="26" height="120" fill="#6f6353"/><rect x="1674" y="1420" width="26" height="120" fill="#6f6353"/><path d="M360,1520 Q330,820 800,880" fill="none" stroke="#4c4438" stroke-width="16"/><path d="M760,870 L840,880 L810,960 L770,955 Z" fill="#4c4438"/><rect x="300" y="1510" width="130" height="20" rx="10" fill="#4c4438"/><path d="M2080,1500 Q 1918,1243.5 1837,1311" fill="none" stroke="#5d7052" stroke-width="21.6" stroke-linecap="round"/><path d="M2080,1500 Q 1972,1243.5 1918,1257" fill="none" stroke="#5d7052" stroke-width="21.6" stroke-linecap="round"/><path d="M2080,1500 Q 2026,1243.5 1999,1203" fill="none" stroke="#5d7052" stroke-width="21.6" stroke-linecap="round"/><path d="M2080,1500 Q 2080,1243.5 2080,1149" fill="none" stroke="#5d7052" stroke-width="21.6" stroke-linecap="round"/><path d="M2080,1500 Q 2134,1243.5 2161,1203" fill="none" stroke="#5d7052" stroke-width="21.6" stroke-linecap="round"/><path d="M2080,1500 Q 2188,1243.5 2242,1257" fill="none" stroke="#5d7052" stroke-width="21.6" stroke-linecap="round"/><path d="M2080,1500 Q 2242,1243.5 2323,1311" fill="none" stroke="#5d7052" stroke-width="21.6" stroke-linecap="round"/><path d="M1985.5,1500 L2174.5,1500 L2150.2,1648.5 L2009.8,1648.5 Z" fill="#a9714d"/><defs><filter id="a39l-sh" x="-30%" y="-30%" width="160%" height="160%"><feGaussianBlur stdDeviation="16"/></filter></defs><rect x="939" y="217" width="550" height="675" fill="#000" opacity="0.28" filter="url(#a39l-sh)"/><rect x="925" y="195" width="550" height="675" fill="#2e2823"/><rect x="941.3" y="211.3" width="517.5" height="642.5" fill="none" stroke="#00000055" stroke-width="3"/><rect x="950" y="220" width="500" height="625" fill="#f6f2ea"/><svg x="987.5" y="257.5" width="425" height="550" viewBox="0 0 2400 3000" preserveAspectRatio="xMidYMid slice"><rect width="2400" height="3000" fill="#571f1c"/><radialGradient id="a39-vig" cx="50%" cy="42%" r="80%"><stop offset="55%" stop-color="#000" stop-opacity="0"/><stop offset="100%" stop-color="#000" stop-opacity="0.15"/></radialGradient><rect width="2400" height="3000" fill="url(#a39-vig)"/><circle cx="1586.8" cy="2115.6" r="4.2" fill="#e9dabe" opacity="0.060"/><circle cx="618.5" cy="538.7" r="4.4" fill="#e9dabe" opacity="0.080"/><circle cx="1760.3" cy="1017.4" r="1.9" fill="#e9dabe" opacity="0.060"/><circle cx="792.8" cy="2956.7" r="4.4" fill="#e9dabe" opacity="0.079"/><circle cx="564.3" cy="1027.6" r="1.9" fill="#e9dabe" opacity="0.048"/><circle cx="795.8" cy="1905.2" r="2.5" fill="#e9dabe" opacity="0.076"/><circle cx="354.4" cy="789.5" r="4.2" fill="#e9dabe" opacity="0.044"/><circle cx="1670.7" cy="833.5" r="3.3" fill="#e9dabe" opacity="0.051"/><circle cx="1579.9" cy="1310" r="4.3" fill="#e9dabe" opacity="0.053"/><circle cx="1253.7" cy="2469.7" r="2.3" fill="#e9dabe" opacity="0.075"/><circle cx="516.7" cy="1696.8" r="3.1" fill="#e9dabe" opacity="0.032"/><circle cx="186.7" cy="98.6" r="4.3" fill="#e9dabe" opacity="0.080"/><circle cx="1127.4" cy="2253.1" r="1.9" fill="#e9dabe" opacity="0.031"/><circle cx="2062.3" cy="412.9" r="3" fill="#e9dabe" opacity="0.045"/><circle cx="1049.9" cy="758.2" r="1.8" fill="#e9dabe" opacity="0.062"/><circle cx="2273.2" cy="1517.6" r="3.6" fill="#e9dabe" opacity="0.046"/><circle cx="1142.5" cy="464.5" r="2.2" fill="#e9dabe" opacity="0.053"/><circle cx="1817.3" cy="2687.1" r="3.5" fill="#e9dabe" opacity="0.041"/><circle cx="1313.8" cy="67.3" r="4.2" fill="#e9dabe" opacity="0.032"/><circle cx="756.9" cy="1727.7" r="2.3" fill="#e9dabe" opacity="0.064"/><circle cx="1953.8" cy="479.9" r="2.5" fill="#e9dabe" opacity="0.033"/><circle cx="879.8" cy="2623.7" r="4.4" fill="#e9dabe" opacity="0.059"/><circle cx="1136.6" cy="1305.1" r="3.9" fill="#e9dabe" opacity="0.054"/><circle cx="2129.4" cy="1234" r="2.9" fill="#e9dabe" opacity="0.060"/><circle cx="1869.8" cy="1411.8" r="2.9" fill="#e9dabe" opacity="0.070"/><circle cx="2131.4" cy="1198.6" r="3.8" fill="#e9dabe" opacity="0.048"/><circle cx="1335.9" cy="274.5" r="3.2" fill="#e9dabe" opacity="0.063"/><circle cx="1769.9" cy="579.2" r="3.4" fill="#e9dabe" opacity="0.047"/><circle cx="1648.1" cy="205.8" r="3" fill="#e9dabe" opacity="0.034"/><circle cx="1937.5" cy="2773" r="4.4" fill="#e9dabe" opacity="0.053"/><circle cx="1161" cy="2595.1" r="1.9" fill="#e9dabe" opacity="0.034"/><circle cx="1767" cy="947.3" r="3.5" fill="#e9dabe" opacity="0.078"/><circle cx="1184.5" cy="1097.9" r="4.1" fill="#e9dabe" opacity="0.038"/><circle cx="1529.9" cy="406.7" r="2.4" fill="#e9dabe" opacity="0.054"/><circle cx="1773.1" cy="477.7" r="2.5" fill="#e9dabe" opacity="0.068"/><circle cx="2207.8" cy="467.2" r="2.8" fill="#e9dabe" opacity="0.032"/><circle cx="1391.7" cy="2709.4" r="3.4" fill="#e9dabe" opacity="0.070"/><circle cx="275" cy="1302.2" r="2.5" fill="#e9dabe" opacity="0.070"/><circle cx="513.6" cy="461.9" r="3.5" fill="#e9dabe" opacity="0.057"/><circle cx="1999.5" cy="95.3" r="2.3" fill="#e9dabe" opacity="0.055"/><circle cx="1139.7" cy="167.8" r="4" fill="#e9dabe" opacity="0.058"/><circle cx="1425.1" cy="2317.8" r="3.4" fill="#e9dabe" opacity="0.064"/><circle cx="1322.8" cy="2906.5" r="4.1" fill="#e9dabe" opacity="0.041"/><circle cx="2124.9" cy="2505.4" r="3.8" fill="#e9dabe" opacity="0.070"/><circle cx="837.5" cy="236.8" r="3.2" fill="#e9dabe" opacity="0.045"/><circle cx="1642.6" cy="78.6" r="2" fill="#e9dabe" opacity="0.054"/><circle cx="545.1" cy="2696.3" r="3.9" fill="#e9dabe" opacity="0.073"/><circle cx="1303.5" cy="2065.9" r="2.9" fill="#e9dabe" opacity="0.064"/><circle cx="1345.7" cy="2091.8" r="2.8" fill="#e9dabe" opacity="0.035"/><circle cx="428.5" cy="216.2" r="3.4" fill="#e9dabe" opacity="0.080"/><circle cx="2023.6" cy="2660.2" r="2.2" fill="#e9dabe" opacity="0.041"/><circle cx="1033" cy="2788.3" r="3.5" fill="#e9dabe" opacity="0.075"/><circle cx="95.8" cy="489.4" r="4.3" fill="#e9dabe" opacity="0.073"/><circle cx="274.4" cy="528.5" r="3.5" fill="#e9dabe" opacity="0.074"/><circle cx="1706.4" cy="651.4" r="1.9" fill="#e9dabe" opacity="0.037"/><circle cx="1965.2" cy="401.7" r="1.7" fill="#e9dabe" opacity="0.038"/><circle cx="518.9" cy="228.9" r="1.8" fill="#e9dabe" opacity="0.039"/><circle cx="682.5" cy="528.8" r="2.7" fill="#e9dabe" opacity="0.048"/><circle cx="1338.1" cy="645.7" r="3" fill="#e9dabe" opacity="0.032"/><circle cx="1873.6" cy="2190.9" r="2.9" fill="#e9dabe" opacity="0.076"/><circle cx="1337.2" cy="2940" r="4.4" fill="#e9dabe" opacity="0.051"/><circle cx="930.5" cy="1904.9" r="2.8" fill="#e9dabe" opacity="0.067"/><circle cx="519.6" cy="2292.2" r="3.4" fill="#e9dabe" opacity="0.030"/><circle cx="707.4" cy="1096.6" r="2.4" fill="#e9dabe" opacity="0.049"/><circle cx="2319.2" cy="1723.1" r="1.9" fill="#e9dabe" opacity="0.065"/><circle cx="1118.8" cy="1355.5" r="3.5" fill="#e9dabe" opacity="0.047"/><circle cx="1279.5" cy="1400.3" r="3.4" fill="#e9dabe" opacity="0.076"/><circle cx="2246.3" cy="1828.4" r="2.4" fill="#e9dabe" opacity="0.032"/><circle cx="1660.9" cy="558.6" r="3.4" fill="#e9dabe" opacity="0.072"/><circle cx="421.5" cy="2516.1" r="3.4" fill="#e9dabe" opacity="0.039"/><circle cx="847.5" cy="2505.7" r="1.5" fill="#e9dabe" opacity="0.045"/><circle cx="2331.5" cy="2948.5" r="3" fill="#e9dabe" opacity="0.053"/><circle cx="1186.8" cy="285.5" r="2.2" fill="#e9dabe" opacity="0.063"/><circle cx="2099.9" cy="993.7" r="3.4" fill="#e9dabe" opacity="0.039"/><circle cx="2084.6" cy="1584.3" r="2.5" fill="#e9dabe" opacity="0.040"/><circle cx="2151.6" cy="2787.9" r="2.1" fill="#e9dabe" opacity="0.046"/><circle cx="659.7" cy="438.9" r="3.9" fill="#e9dabe" opacity="0.059"/><circle cx="1101.9" cy="1894.2" r="2" fill="#e9dabe" opacity="0.044"/><circle cx="1948.2" cy="2278.9" r="2.5" fill="#e9dabe" opacity="0.035"/><circle cx="1495.7" cy="1132.9" r="3.8" fill="#e9dabe" opacity="0.044"/><clipPath id="a39-gz"><rect x="150" y="150" width="2100" height="2700"/></clipPath><g clip-path="url(#a39-gz)"><circle cx="1036.6" cy="887" r="346.2" fill="#c98f4e"/><path d="M150,2050 C 700,1918 1100,2182 1600,1970.8 S 2200,2102.8 2250,2030 L2250,2850 L150,2850 Z" fill="#e9dabe" opacity="0.35"/><path d="M150,2270 C 700,2200.8 1100,2339.2 1600,2228.5 S 2200,2297.7 2250,2250 L2250,2850 L150,2850 Z" fill="#7c3a31" opacity="0.9"/><path d="M150,2520 C 700,2382.8 1100,2657.2 1600,2437.7 S 2200,2574.9 2250,2500 L2250,2850 L150,2850 Z" fill="#e9dabe" opacity="1"/><polygon points="668.4,1313.1 220,2130 732.5,2130" fill="#e9dabe"/><polygon points="668.4,1313.1 732.5,2130 1116.9,2130" fill="#e9dabe" opacity="0.6"/><polygon points="1203,1609.9 827.8,2130 1295.2,2130" fill="#e9dabe"/><polygon points="1203,1609.9 1295.2,2130 1578.2,2130" fill="#e9dabe" opacity="0.6"/><path d="M1595.4,696.7 q 26,-24 52,0 q 26,-24 52,0" fill="none" stroke="#e9dabe" stroke-width="8" stroke-linecap="round"/><path d="M802.4,528.5 q 26,-24 52,0 q 26,-24 52,0" fill="none" stroke="#e9dabe" stroke-width="8" stroke-linecap="round"/></g><polyline points="240,2800 300,2740 360,2800 420,2740 480,2800 540,2740 600,2800 660,2740 720,2800 780,2740 840,2800 900,2740 960,2800 1020,2740 1080,2800 1140,2740 1200,2800 1260,2740 1320,2800 1380,2740 1440,2800 1500,2740 1560,2800 1620,2740 1680,2800 1740,2740 1800,2800 1860,2740 1920,2800 1980,2740 2040,2800 2100,2740 2160,2800 " fill="none" stroke="#e9dabe" stroke-width="10.8" stroke-linejoin="miter"/><rect x="100" y="100" width="2200" height="2800" fill="none" stroke="#e9dabe" stroke-width="9"/><rect x="142" y="142" width="2116" height="2716" fill="none" stroke="#e9dabe" stroke-width="3" opacity="0.65"/></svg></svg>