<svg xmlns="http://www.w3.org/2000/svg" width="2400" height="1800" viewBox="0 0 2400 1800"><rect width="2400" height="1800" fill="#dfe4dc"/><rect y="1400" width="2400" height="400" fill="#c2a67e"/><line x1="60" y1="1400" x2="10" y2="1800" stroke="#00000015" stroke-width="5"/><line x1="260" y1="1400" x2="210" y2="1800" stroke="#00000015" stroke-width="5"/><line x1="460" y1="1400" x2="410" y2="1800" stroke="#00000015" stroke-width="5"/><line x1="660" y1="1400" x2="610" y2="1800" stroke="#00000015" stroke-width="5"/><line x1="860" y1="1400" x2="810" y2="1800" stroke="#00000015" stroke-width="5"/><line x1="1060" y1="1400" x2="1010" y2="1800" stroke="#00000015" stroke-width="5"/><line x1="1260" y1="1400" x2="1210" y2="1800" stroke="#00000015" stroke-width="5"/><line x1="1460" y1="1400" x2="1410" y2="1800" stroke="#00000015" stroke-width="5"/><line x1="1660" y1="1400" x2="1610" y2="1800" stroke="#00000015" stroke-width="5"/><line x1="1860" y1="1400" x2="1810" y2="1800" stroke="#00000015" stroke-width="5"/><line x1="2060" y1="1400" x2="2010" y2="1800" stroke="#00000015" stroke-width="5"/><line x1="2260" y1="1400" x2="2210" y2="1800" stroke="#00000015" stroke-width="5"/><rect x="180" y="260" width="900" height="620" fill="#8a6a48"/><rect x="215" y="295" width="830" height="550" fill="#41524a"/><line x1="280" y1="420" x2="760" y2="420" stroke="#ffffff66" stroke-width="9" stroke-linecap="round"/><line x1="280" y1="520" x2="620" y2="520" stroke="#ffffff44" stroke-width="9" stroke-linecap="round"/><circle cx="880" cy="560" r="90" fill="none" stroke="#ffffff55" stroke-width="8"/><rect x="215" y="845" width="830" height="22" fill="#6f5436"/><rect x="330" y="1240" width="640" height="60" rx="10" fill="#9c7449"/><rect x="370" y="1300" width="60" height="240" fill="#8a6540"/><rect x="870" y="1300" width="60" height="240" fill="#8a6540"/><rect x="430" y="1160" width="150" height="80" rx="8" fill="#8a5a33"/><rect x="450" y="1120" width="150" height="40" rx="8" fill="#ab946c"/><circle cx="800" cy="1130" r="86" fill="#7fa3b8"/><path d="M760,1060 Q820,1100 780,1190 M740,1090 Q800,1120 850,1100" stroke="#5d8069" stroke-width="16" fill="none" stroke-linecap="round"/><circle cx="800" cy="1130" r="86" fill="none" stroke="#6b5233" stroke-width="7"/><line x1="800" y1="1216" x2="800" y2="1250" stroke="#6b5233" stroke-width="10"/><rect x="750" y="1244" width="100" height="14" rx="7" fill="#6b5233"/><rect x="1980" y="700" width="300" height="800" fill="#9c7449"/><rect x="2000" y="930" width="260" height="16" fill="#7c5a37"/><rect x="2020" y="790" width="36" height="140" fill="#b3502f"/><rect x="2066" y="802" width="36" height="128" fill="#39685c"/><rect x="2112" y="790" width="36" height="140" fill="#c9a227"/><rect x="2158" y="802" width="36" height="128" fill="#2c4661"/><rect x="2204" y="790" width="36" height="140" fill="#8a4423"/><rect x="2000" y="1180" width="260" height="16" fill="#7c5a37"/><rect x="2020" y="1040" width="36" height="140" fill="#39685c"/><rect x="2066" y="1052" width="36" height="128" fill="#c9a227"/><rect x="2112" y="1040" width="36" height="140" fill="#2c4661"/><rect x="2158" y="1052" width="36" height="128" fill="#8a4423"/><rect x="2204" y="1040" width="36" height="140" fill="#b3502f"/><rect x="2000" y="1430" width="260" height="16" fill="#7c5a37"/><rect x="2020" y="1290" width="36" height="140" fill="#c9a227"/><rect x="2066" y="1302" width="36" height="128" fill="#2c4661"/><rect x="2112" y="1290" width="36" height="140" fill="#8a4423"/><rect x="2158" y="1302" width="36" height="128" fill="#b3502f"/><rect x="2204" y="1290" width="36" height="140" fill="#39685c"/><defs><filter id="a62c-sh" x="-30%" y="-30%" width="160%" height="160%"><feGaussianBlur stdDeviation="16"/></filter></defs><rect x="1340.5" y="298.5" width="517" height="635" fill="#000" opacity="0.28" filter="url(#a62c-sh)"/><rect x="1326.5" y="276.5" width="517" height="635" fill="#3d342a"/><rect x="1341.8" y="291.8" width="486.4" height="604.5" fill="none" stroke="#00000055" stroke-width="3"/><rect x="1350" y="300" width="470" height="588" fill="#f6f2ea"/><svg x="1385.3" y="335.3" width="399.5" height="517.5" viewBox="0 0 2400 3000" preserveAspectRatio="xMidYMid slice"><filter id="a62-warp" x="-4%" y="-4%" width="108%" height="108%"><feTurbulence type="fractalNoise" baseFrequency="0.0105" numOctaves="2" seed="7008" result="w"/><feDisplacementMap in="SourceGraphic" in2="w" scale="7" xChannelSelector="R" yChannelSelector="G"/></filter><filter id="a62-grain" x="0%" y="0%" width="100%" height="100%"><feTurbulence type="fractalNoise" baseFrequency="0.6" numOctaves="2" seed="7015"/><feColorMatrix type="matrix" values="0.33 0.33 0.33 0 0.62  0.33 0.33 0.33 0 0.62  0.33 0.33 0.33 0 0.62  0 0 0 0 1"/></filter><filter id="a62-mottle" x="0%" y="0%" width="100%" height="100%"><feTurbulence type="fractalNoise" baseFrequency="0.0045" numOctaves="3" seed="7021"/><feColorMatrix type="matrix" values="0.2 0.2 0.2 0 0.78  0.2 0.2 0.2 0 0.78  0.2 0.2 0.2 0 0.78  0 0 0 0 1"/></filter><filter id="a62-fade" x="0%" y="0%" width="100%" height="100%"><feTurbulence type="fractalNoise" baseFrequency="0.006" numOctaves="2" seed="7037"/><feColorMatrix type="matrix" values="0.3 0.3 0.3 0 -0.08  0.3 0.3 0.3 0 -0.08  0.3 0.3 0.3 0 -0.1  0 0 0 0 1"/></filter><filter id="a62-blur9"><feGaussianBlur stdDeviation="9"/></filter><radialGradient id="a62-vig" cx="50%" cy="44%" r="78%"><stop offset="52%" stop-color="#241a10" stop-opacity="0"/><stop offset="100%" stop-color="#241a10" stop-opacity="0.17"/></radialGradient><radialGradient id="a62-warm" cx="38%" cy="30%" r="85%"><stop offset="0%" stop-color="#e8c890" stop-opacity="0.14"/><stop offset="70%" stop-color="#e8c890" stop-opacity="0"/></radialGradient><rect width="2400" height="3000" fill="#e2d4b4"/><rect width="2400" height="3000" fill="url(#a62-warm)"/><g filter="url(#a62-warp)"><path d="M1896.9,1774.9 Q1845.8,2049.8 1709.5,2245.1 Q1573.3,2440.3 1386.7,2541.5 Q1200,2642.6 1004.1,2551.7 Q808.2,2460.8 669,2257.8 Q529.7,2054.7 496.9,1777.3 Q464,1500 498.4,1227.7 Q532.8,955.5 679,742.8 Q825.2,530 1012.6,453.7 Q1200,377.3 1388.8,458.3 Q1577.7,539.4 1721.6,745.1 Q1865.4,950.8 1906.8,1225.4 Q1948.1,1500 1896.9,1774.9 Z" fill="#ab946c" stroke="#433320" stroke-width="9"/><clipPath id="a62-tb"><path d="M1843.8,1760 Q1797.6,2020 1671.3,2210.3 Q1545,2400.7 1372.5,2470.3 Q1200,2540 1027.5,2470.3 Q855,2400.7 728.7,2210.3 Q602.4,2020 556.2,1760 Q510,1500 556.2,1240 Q602.4,980 728.7,789.7 Q855,599.3 1027.5,529.7 Q1200,460 1372.5,529.7 Q1545,599.3 1671.3,789.7 Q1797.6,980 1843.8,1240 Q1890,1500 1843.8,1760 Z"/></clipPath><g clip-path="url(#a62-tb)"><line x1="560" y1="560" x2="1840" y2="560" stroke="#433320" stroke-width="4" opacity="0.35"/><rect x="600" y="609.9" width="10" height="71.1" fill="#433320"/><rect x="622" y="609.9" width="10" height="71.1" fill="#433320"/><path d="M720.9,618.8 L747.5,645.5 L720.9,672.1 l -8,-6 L735.1,645.5 l -21.3,-19.6 Z" fill="#433320"/><path d="M840.7,645.5 l 19.6,-12.4 l 0,8.9 l 44.4,0 l 0,8 L858.5,651.5 Z" fill="#433320"/><path d="M973.6,645.5 l 19.6,-12.4 l 0,8.9 l 44.4,0 l 0,8 L991.4,651.5 Z" fill="#433320"/><path d="M1106.5,601 l 14.2,19.6 l -7.1,0 L1108.3,689.9 l -8,0 Z" fill="#433320"/><rect x="1236.4" y="609.9" width="10" height="71.1" fill="#433320"/><rect x="1258.4" y="609.9" width="10" height="71.1" fill="#433320"/><path d="M1339.2,645.5 l 19.6,-12.4 l 0,8.9 l 44.4,0 l 0,8 L1357,651.5 Z" fill="#433320"/><rect x="1449.1" y="609.9" width="10" height="71.1" fill="#433320"/><rect x="1471.1" y="609.9" width="10" height="71.1" fill="#433320"/><path d="M1572,601 l 14.2,19.6 l -7.1,0 L1573.8,689.9 l -8,0 Z" fill="#433320"/><path d="M1701.9,601 l 14.2,19.6 l -7.1,0 L1703.6,689.9 l -8,0 Z" fill="#433320"/><line x1="560" y1="730.9" x2="1840" y2="730.9" stroke="#433320" stroke-width="4" opacity="0.35"/><path d="M600,789.7 L626.7,816.4 L600,843 l -8,-6 L614.2,816.4 l -21.3,-19.6 Z" fill="#433320"/><rect x="714.9" y="780.8" width="10" height="71.1" fill="#433320"/><rect x="736.9" y="780.8" width="10" height="71.1" fill="#433320"/><path d="M844.7,816.4 l 19.6,-12.4 l 0,8.9 l 44.4,0 l 0,8 L862.5,822.4 Z" fill="#433320"/><path d="M962.6,789.7 L989.3,816.4 L962.6,843 l -8,-6 L976.8,816.4 l -21.3,-19.6 Z" fill="#433320"/><path d="M1076.5,789.7 L1103.2,816.4 L1076.5,843 l -8,-6 L1090.7,816.4 l -21.3,-19.6 Z" fill="#433320"/><path d="M1183.4,816.4 l 19.6,-12.4 l 0,8.9 l 44.4,0 l 0,8 L1201.1,822.4 Z" fill="#433320"/><path d="M1304.2,816.4 l 19.6,-12.4 l 0,8.9 l 44.4,0 l 0,8 L1322,822.4 Z" fill="#433320"/><rect x="1407.1" y="780.8" width="10" height="71.1" fill="#433320"/><rect x="1429.1" y="780.8" width="10" height="71.1" fill="#433320"/><path d="M1538,789.7 L1564.6,816.4 L1538,843 l -8,-6 L1552.2,816.4 l -21.3,-19.6 Z" fill="#433320"/><path d="M1653.9,789.7 L1680.5,816.4 L1653.9,843 l -8,-6 L1668.1,816.4 l -21.3,-19.6 Z" fill="#433320"/><line x1="560" y1="901.8" x2="1840" y2="901.8" stroke="#433320" stroke-width="4" opacity="0.35"/><path d="M600,960.6 L626.7,987.3 L600,1013.9 l -8,-6 L614.2,987.3 l -21.3,-19.6 Z" fill="#433320"/><path d="M715.9,987.3 l 19.6,-12.4 l 0,8.9 l 44.4,0 l 0,8 L733.6,993.3 Z" fill="#433320"/><rect x="840.7" y="951.7" width="10" height="71.1" fill="#433320"/><rect x="862.7" y="951.7" width="10" height="71.1" fill="#433320"/><path d="M956.6,960.6 L983.3,987.3 L956.6,1013.9 l -8,-6 L970.8,987.3 l -21.3,-19.6 Z" fill="#433320"/><path d="M1072.5,987.3 l 19.6,-12.4 l 0,8.9 l 44.4,0 l 0,8 L1090.3,993.3 Z" fill="#433320"/><path d="M1178.4,942.8 l 14.2,19.6 l -7.1,0 L1180.1,1031.7 l -8,0 Z" fill="#433320"/><path d="M1301.2,942.8 l 14.2,19.6 l -7.1,0 L1303,1031.7 l -8,0 Z" fill="#433320"/><rect x="1418.1" y="951.7" width="10" height="71.1" fill="#433320"/><rect x="1440.1" y="951.7" width="10" height="71.1" fill="#433320"/><path d="M1548,987.3 l 19.6,-12.4 l 0,8.9 l 44.4,0 l 0,8 L1565.8,993.3 Z" fill="#433320"/><path d="M1667.9,960.6 L1694.5,987.3 L1667.9,1013.9 l -8,-6 L1682.1,987.3 l -21.3,-19.6 Z" fill="#433320"/><line x1="560" y1="1072.7" x2="1840" y2="1072.7" stroke="#433320" stroke-width="4" opacity="0.35"/><path d="M600,1131.5 L626.7,1158.2 L600,1184.8 l -8,-6 L614.2,1158.2 l -21.3,-19.6 Z" fill="#433320"/><rect x="727.9" y="1122.6" width="10" height="71.1" fill="#433320"/><rect x="749.9" y="1122.6" width="10" height="71.1" fill="#433320"/><path d="M836.7,1113.7 l 14.2,19.6 l -7.1,0 L838.5,1202.6 l -8,0 Z" fill="#433320"/><path d="M966.6,1158.2 l 19.6,-12.4 l 0,8.9 l 44.4,0 l 0,8 L984.4,1164.2 Z" fill="#433320"/><rect x="1085.5" y="1122.6" width="10" height="71.1" fill="#433320"/><rect x="1107.5" y="1122.6" width="10" height="71.1" fill="#433320"/><rect x="1212.4" y="1122.6" width="10" height="71.1" fill="#433320"/><rect x="1234.4" y="1122.6" width="10" height="71.1" fill="#433320"/><path d="M1322.2,1113.7 l 14.2,19.6 l -7.1,0 L1324,1202.6 l -8,0 Z" fill="#433320"/><path d="M1430.1,1131.5 L1456.8,1158.2 L1430.1,1184.8 l -8,-6 L1444.3,1158.2 l -21.3,-19.6 Z" fill="#433320"/><path d="M1534,1131.5 L1560.6,1158.2 L1534,1184.8 l -8,-6 L1548.2,1158.2 l -21.3,-19.6 Z" fill="#433320"/><path d="M1646.9,1131.5 L1673.5,1158.2 L1646.9,1184.8 l -8,-6 L1661.1,1158.2 l -21.3,-19.6 Z" fill="#433320"/><path d="M1750.7,1113.7 l 14.2,19.6 l -7.1,0 L1752.5,1202.6 l -8,0 Z" fill="#433320"/><line x1="560" y1="1243.6" x2="1840" y2="1243.6" stroke="#433320" stroke-width="4" opacity="0.35"/><path d="M600,1302.4 L626.7,1329.1 L600,1355.8 l -8,-6 L614.2,1329.1 l -21.3,-19.6 Z" fill="#433320"/><rect x="718.9" y="1293.5" width="10" height="71.1" fill="#433320"/><rect x="740.9" y="1293.5" width="10" height="71.1" fill="#433320"/><path d="M849.7,1284.7 l 14.2,19.6 l -7.1,0 L851.5,1373.5 l -8,0 Z" fill="#433320"/><path d="M956.6,1329.1 l 19.6,-12.4 l 0,8.9 l 44.4,0 l 0,8 L974.4,1335.1 Z" fill="#433320"/><rect x="1065.5" y="1293.5" width="10" height="71.1" fill="#433320"/><rect x="1087.5" y="1293.5" width="10" height="71.1" fill="#433320"/><path d="M1172.4,1329.1 l 19.6,-12.4 l 0,8.9 l 44.4,0 l 0,8 L1190.1,1335.1 Z" fill="#433320"/><path d="M1293.2,1302.4 L1319.9,1329.1 L1293.2,1355.8 l -8,-6 L1307.5,1329.1 l -21.3,-19.6 Z" fill="#433320"/><path d="M1418.1,1329.1 l 19.6,-12.4 l 0,8.9 l 44.4,0 l 0,8 L1435.9,1335.1 Z" fill="#433320"/><path d="M1551,1284.7 l 14.2,19.6 l -7.1,0 L1552.8,1373.5 l -8,0 Z" fill="#433320"/><path d="M1675.9,1329.1 l 19.6,-12.4 l 0,8.9 l 44.4,0 l 0,8 L1693.6,1335.1 Z" fill="#433320"/><line x1="560" y1="1414.5" x2="1840" y2="1414.5" stroke="#433320" stroke-width="4" opacity="0.35"/><path d="M600,1473.3 L626.7,1500 L600,1526.7 l -8,-6 L614.2,1500 l -21.3,-19.6 Z" fill="#433320"/><path d="M702.9,1500 l 19.6,-12.4 l 0,8.9 l 44.4,0 l 0,8 L720.6,1506 Z" fill="#433320"/><rect x="810.7" y="1464.5" width="10" height="71.1" fill="#433320"/><rect x="832.7" y="1464.5" width="10" height="71.1" fill="#433320"/><path d="M940.6,1455.6 l 14.2,19.6 l -7.1,0 L942.4,1544.4 l -8,0 Z" fill="#433320"/><path d="M1068.5,1500 l 19.6,-12.4 l 0,8.9 l 44.4,0 l 0,8 L1086.3,1506 Z" fill="#433320"/><path d="M1195.4,1473.3 L1222,1500 L1195.4,1526.7 l -8,-6 L1209.6,1500 l -21.3,-19.6 Z" fill="#433320"/><path d="M1320.2,1500 l 19.6,-12.4 l 0,8.9 l 44.4,0 l 0,8 L1338,1506 Z" fill="#433320"/><path d="M1431.1,1473.3 L1457.8,1500 L1431.1,1526.7 l -8,-6 L1445.3,1500 l -21.3,-19.6 Z" fill="#433320"/><rect x="1562" y="1464.5" width="10" height="71.1" fill="#433320"/><rect x="1584" y="1464.5" width="10" height="71.1" fill="#433320"/><path d="M1693.9,1455.6 l 14.2,19.6 l -7.1,0 L1695.6,1544.4 l -8,0 Z" fill="#433320"/><line x1="560" y1="1585.5" x2="1840" y2="1585.5" stroke="#433320" stroke-width="4" opacity="0.35"/><rect x="600" y="1635.4" width="10" height="71.1" fill="#433320"/><rect x="622" y="1635.4" width="10" height="71.1" fill="#433320"/><path d="M709.9,1626.5 l 14.2,19.6 l -7.1,0 L711.7,1715.3 l -8,0 Z" fill="#433320"/><rect x="826.7" y="1635.4" width="10" height="71.1" fill="#433320"/><rect x="848.7" y="1635.4" width="10" height="71.1" fill="#433320"/><rect x="947.6" y="1635.4" width="10" height="71.1" fill="#433320"/><rect x="969.6" y="1635.4" width="10" height="71.1" fill="#433320"/><path d="M1062.5,1626.5 l 14.2,19.6 l -7.1,0 L1064.3,1715.3 l -8,0 Z" fill="#433320"/><path d="M1187.4,1626.5 l 14.2,19.6 l -7.1,0 L1189.1,1715.3 l -8,0 Z" fill="#433320"/><path d="M1293.2,1626.5 l 14.2,19.6 l -7.1,0 L1295,1715.3 l -8,0 Z" fill="#433320"/><path d="M1415.1,1644.2 L1441.8,1670.9 L1415.1,1697.6 l -8,-6 L1429.3,1670.9 l -21.3,-19.6 Z" fill="#433320"/><path d="M1536,1644.2 L1562.6,1670.9 L1536,1697.6 l -8,-6 L1550.2,1670.9 l -21.3,-19.6 Z" fill="#433320"/><rect x="1663.9" y="1635.4" width="10" height="71.1" fill="#433320"/><rect x="1685.9" y="1635.4" width="10" height="71.1" fill="#433320"/><line x1="560" y1="1756.4" x2="1840" y2="1756.4" stroke="#433320" stroke-width="4" opacity="0.35"/><path d="M600,1841.8 l 19.6,-12.4 l 0,8.9 l 44.4,0 l 0,8 L617.8,1847.8 Z" fill="#433320"/><path d="M716.9,1815.2 L743.5,1841.8 L716.9,1868.5 l -8,-6 L731.1,1841.8 l -21.3,-19.6 Z" fill="#433320"/><rect x="839.7" y="1806.3" width="10" height="71.1" fill="#433320"/><rect x="861.7" y="1806.3" width="10" height="71.1" fill="#433320"/><rect x="949.6" y="1806.3" width="10" height="71.1" fill="#433320"/><rect x="971.6" y="1806.3" width="10" height="71.1" fill="#433320"/><path d="M1052.5,1797.4 l 14.2,19.6 l -7.1,0 L1054.3,1886.3 l -8,0 Z" fill="#433320"/><rect x="1180.4" y="1806.3" width="10" height="71.1" fill="#433320"/><rect x="1202.4" y="1806.3" width="10" height="71.1" fill="#433320"/><path d="M1311.2,1841.8 l 19.6,-12.4 l 0,8.9 l 44.4,0 l 0,8 L1329,1847.8 Z" fill="#433320"/><rect x="1442.1" y="1806.3" width="10" height="71.1" fill="#433320"/><rect x="1464.1" y="1806.3" width="10" height="71.1" fill="#433320"/><path d="M1551,1797.4 l 14.2,19.6 l -7.1,0 L1552.8,1886.3 l -8,0 Z" fill="#433320"/><path d="M1663.9,1797.4 l 14.2,19.6 l -7.1,0 L1665.6,1886.3 l -8,0 Z" fill="#433320"/><line x1="560" y1="1927.3" x2="1840" y2="1927.3" stroke="#433320" stroke-width="4" opacity="0.35"/><path d="M600,1986.1 L626.7,2012.7 L600,2039.4 l -8,-6 L614.2,2012.7 l -21.3,-19.6 Z" fill="#433320"/><path d="M728.9,1968.3 l 14.2,19.6 l -7.1,0 L730.7,2057.2 l -8,0 Z" fill="#433320"/><path d="M838.7,1968.3 l 14.2,19.6 l -7.1,0 L840.5,2057.2 l -8,0 Z" fill="#433320"/><path d="M967.6,1968.3 l 14.2,19.6 l -7.1,0 L969.4,2057.2 l -8,0 Z" fill="#433320"/><path d="M1087.5,2012.7 l 19.6,-12.4 l 0,8.9 l 44.4,0 l 0,8 L1105.3,2018.7 Z" fill="#433320"/><path d="M1198.4,2012.7 l 19.6,-12.4 l 0,8.9 l 44.4,0 l 0,8 L1216.1,2018.7 Z" fill="#433320"/><path d="M1305.2,2012.7 l 19.6,-12.4 l 0,8.9 l 44.4,0 l 0,8 L1323,2018.7 Z" fill="#433320"/><path d="M1414.1,2012.7 l 19.6,-12.4 l 0,8.9 l 44.4,0 l 0,8 L1431.9,2018.7 Z" fill="#433320"/><path d="M1523,1986.1 L1549.6,2012.7 L1523,2039.4 l -8,-6 L1537.2,2012.7 l -21.3,-19.6 Z" fill="#433320"/><rect x="1633.9" y="1977.2" width="10" height="71.1" fill="#433320"/><rect x="1655.9" y="1977.2" width="10" height="71.1" fill="#433320"/><path d="M1757.7,1986.1 L1784.4,2012.7 L1757.7,2039.4 l -8,-6 L1771.9,2012.7 l -21.3,-19.6 Z" fill="#433320"/><line x1="560" y1="2098.2" x2="1840" y2="2098.2" stroke="#433320" stroke-width="4" opacity="0.35"/><path d="M600,2183.6 l 19.6,-12.4 l 0,8.9 l 44.4,0 l 0,8 L617.8,2189.6 Z" fill="#433320"/><path d="M716.9,2183.6 l 19.6,-12.4 l 0,8.9 l 44.4,0 l 0,8 L734.6,2189.6 Z" fill="#433320"/><path d="M849.7,2183.6 l 19.6,-12.4 l 0,8.9 l 44.4,0 l 0,8 L867.5,2189.6 Z" fill="#433320"/><path d="M964.6,2157 L991.3,2183.6 L964.6,2210.3 l -8,-6 L978.8,2183.6 l -21.3,-19.6 Z" fill="#433320"/><path d="M1076.5,2183.6 l 19.6,-12.4 l 0,8.9 l 44.4,0 l 0,8 L1094.3,2189.6 Z" fill="#433320"/><path d="M1201.4,2157 L1228,2183.6 L1201.4,2210.3 l -8,-6 L1215.6,2183.6 l -21.3,-19.6 Z" fill="#433320"/><rect x="1312.2" y="2148.1" width="10" height="71.1" fill="#433320"/><rect x="1334.2" y="2148.1" width="10" height="71.1" fill="#433320"/><rect x="1444.1" y="2148.1" width="10" height="71.1" fill="#433320"/><rect x="1466.1" y="2148.1" width="10" height="71.1" fill="#433320"/><rect x="1573" y="2148.1" width="10" height="71.1" fill="#433320"/><rect x="1595" y="2148.1" width="10" height="71.1" fill="#433320"/><rect x="1700.9" y="2148.1" width="10" height="71.1" fill="#433320"/><rect x="1722.9" y="2148.1" width="10" height="71.1" fill="#433320"/><line x1="560" y1="2269.1" x2="1840" y2="2269.1" stroke="#433320" stroke-width="4" opacity="0.35"/><path d="M600,2310.1 l 14.2,19.6 l -7.1,0 L601.8,2399 l -8,0 Z" fill="#433320"/><rect x="706.9" y="2319" width="10" height="71.1" fill="#433320"/><rect x="728.9" y="2319" width="10" height="71.1" fill="#433320"/><path d="M828.7,2354.5 l 19.6,-12.4 l 0,8.9 l 44.4,0 l 0,8 L846.5,2360.5 Z" fill="#433320"/><path d="M960.6,2327.9 L987.3,2354.5 L960.6,2381.2 l -8,-6 L974.8,2354.5 l -21.3,-19.6 Z" fill="#433320"/><path d="M1063.5,2310.1 l 14.2,19.6 l -7.1,0 L1065.3,2399 l -8,0 Z" fill="#433320"/><path d="M1195.4,2310.1 l 14.2,19.6 l -7.1,0 L1197.1,2399 l -8,0 Z" fill="#433320"/><path d="M1320.2,2310.1 l 14.2,19.6 l -7.1,0 L1322,2399 l -8,0 Z" fill="#433320"/><rect x="1428.1" y="2319" width="10" height="71.1" fill="#433320"/><rect x="1450.1" y="2319" width="10" height="71.1" fill="#433320"/><rect x="1557" y="2319" width="10" height="71.1" fill="#433320"/><rect x="1579" y="2319" width="10" height="71.1" fill="#433320"/><rect x="1659.9" y="2319" width="10" height="71.1" fill="#433320"/><rect x="1681.9" y="2319" width="10" height="71.1" fill="#433320"/></g><rect x="130" y="130" width="2140" height="2740" fill="none" stroke="#433320" stroke-width="5"/><rect x="152" y="152" width="2096" height="2696" fill="none" stroke="#433320" stroke-width="2.5" opacity="0.8"/></g><rect width="2400" height="3000" filter="url(#a62-mottle)" style="mix-blend-mode:multiply" opacity="0.5"/><rect width="2400" height="3000" filter="url(#a62-fade)" style="mix-blend-mode:screen" opacity="0.55"/><rect width="2400" height="3000" filter="url(#a62-grain)" style="mix-blend-mode:multiply" opacity="0.32"/><ellipse cx="1730.3" cy="1341" rx="214.5" ry="155.5" fill="#6b4a22" opacity="0.054" filter="url(#a62-blur9)"/><ellipse cx="1668.6" cy="1732.9" rx="185.2" ry="187.5" fill="#6b4a22" opacity="0.030" filter="url(#a62-blur9)"/><ellipse cx="768.1" cy="2588.4" rx="163.1" ry="108.8" fill="#6b4a22" opacity="0.030" filter="url(#a62-blur9)"/><ellipse cx="2163.8" cy="1229" rx="125.9" ry="101.6" fill="#6b4a22" opacity="0.026" filter="url(#a62-blur9)"/><ellipse cx="1399.7" cy="599.7" rx="90.8" ry="98.8" fill="#6b4a22" opacity="0.060" filter="url(#a62-blur9)"/><ellipse cx="477.3" cy="1836.8" rx="212" ry="130.6" fill="#6b4a22" opacity="0.049" filter="url(#a62-blur9)"/><g opacity="0.3"><rect y="3" width="2400" height="2" fill="#e2d4b4"/><rect y="11" width="2400" height="2" fill="#e2d4b4"/><rect y="19" width="2400" height="2" fill="#e2d4b4"/><rect y="27" width="2400" height="2" fill="#e2d4b4"/><rect y="35" width="2400" height="2" fill="#e2d4b4"/><rect y="43" width="2400" height="2" fill="#e2d4b4"/><rect y="51" width="2400" height="2" fill="#e2d4b4"/><rect y="59" width="2400" height="2" fill="#e2d4b4"/><rect y="67" width="2400" height="2" fill="#e2d4b4"/><rect y="75" width="2400" height="2" fill="#e2d4b4"/><rect y="83" width="2400" height="2" fill="#e2d4b4"/><rect y="91" width="2400" height="2" fill="#e2d4b4"/><rect y="99" width="2400" height="2" fill="#e2d4b4"/><rect y="107" width="2400" height="2" fill="#e2d4b4"/><rect y="115" width="2400" height="2" fill="#e2d4b4"/><rect y="123" width="2400" height="2" fill="#e2d4b4"/><rect y="131" width="2400" height="2" fill="#e2d4b4"/><rect y="139" width="2400" height="2" fill="#e2d4b4"/><rect y="147" width="2400" height="2" fill="#e2d4b4"/><rect y="155" width="2400" height="2" fill="#e2d4b4"/><rect y="163" width="2400" height="2" fill="#e2d4b4"/><rect y="171" width="2400" height="2" fill="#e2d4b4"/><rect y="179" width="2400" height="2" fill="#e2d4b4"/><rect y="187" width="2400" height="2" fill="#e2d4b4"/><rect y="195" width="2400" height="2" fill="#e2d4b4"/><rect y="203" width="2400" height="2" fill="#e2d4b4"/><rect y="211" width="2400" height="2" fill="#e2d4b4"/><rect y="219" width="2400" height="2" fill="#e2d4b4"/><rect y="227" width="2400" height="2" fill="#e2d4b4"/><rect y="235" width="2400" height="2" fill="#e2d4b4"/><rect y="243" width="2400" height="2" fill="#e2d4b4"/><rect y="251" width="2400" height="2" fill="#e2d4b4"/><rect y="259" width="2400" height="2" fill="#e2d4b4"/><rect y="267" width="2400" height="2" fill="#e2d4b4"/><rect y="275" width="2400" height="2" fill="#e2d4b4"/><rect y="283" width="2400" height="2" fill="#e2d4b4"/><rect y="291" width="2400" height="2" fill="#e2d4b4"/><rect y="299" width="2400" height="2" fill="#e2d4b4"/><rect y="307" width="2400" height="2" fill="#e2d4b4"/><rect y="315" width="2400" height="2" fill="#e2d4b4"/><rect y="323" width="2400" height="2" fill="#e2d4b4"/><rect y="331" width="2400" height="2" fill="#e2d4b4"/><rect y="339" width="2400" height="2" fill="#e2d4b4"/><rect y="347" width="2400" height="2" fill="#e2d4b4"/><rect y="355" width="2400" height="2" fill="#e2d4b4"/><rect y="363" width="2400" height="2" fill="#e2d4b4"/><rect y="371" width="2400" height="2" fill="#e2d4b4"/><rect y="379" width="2400" height="2" fill="#e2d4b4"/><rect y="387" width="2400" height="2" fill="#e2d4b4"/><rect y="395" width="2400" height="2" fill="#e2d4b4"/><rect y="403" width="2400" height="2" fill="#e2d4b4"/><rect y="411" width="2400" height="2" fill="#e2d4b4"/><rect y="419" width="2400" height="2" fill="#e2d4b4"/><rect y="427" width="2400" height="2" fill="#e2d4b4"/><rect y="435" width="2400" height="2" fill="#e2d4b4"/><rect y="443" width="2400" height="2" fill="#e2d4b4"/><rect y="451" width="2400" height="2" fill="#e2d4b4"/><rect y="459" width="2400" height="2" fill="#e2d4b4"/><rect y="467" width="2400" height="2" fill="#e2d4b4"/><rect y="475" width="2400" height="2" fill="#e2d4b4"/><rect y="483" width="2400" height="2" fill="#e2d4b4"/><rect y="491" width="2400" height="2" fill="#e2d4b4"/><rect y="499" width="2400" height="2" fill="#e2d4b4"/><rect y="507" width="2400" height="2" fill="#e2d4b4"/><rect y="515" width="2400" height="2" fill="#e2d4b4"/><rect y="523" width="2400" height="2" fill="#e2d4b4"/><rect y="531" width="2400" height="2" fill="#e2d4b4"/><rect y="539" width="2400" height="2" fill="#e2d4b4"/><rect y="547" width="2400" height="2" fill="#e2d4b4"/><rect y="555" width="2400" height="2" fill="#e2d4b4"/><rect y="563" width="2400" height="2" fill="#e2d4b4"/><rect y="571" width="2400" height="2" fill="#e2d4b4"/><rect y="579" width="2400" height="2" fill="#e2d4b4"/><rect y="587" width="2400" height="2" fill="#e2d4b4"/><rect y="595" width="2400" height="2" fill="#e2d4b4"/><rect y="603" width="2400" height="2" fill="#e2d4b4"/><rect y="611" width="2400" height="2" fill="#e2d4b4"/><rect y="619" width="2400" height="2" fill="#e2d4b4"/><rect y="627" width="2400" height="2" fill="#e2d4b4"/><rect y="635" width="2400" height="2" fill="#e2d4b4"/><rect y="643" width="2400" height="2" fill="#e2d4b4"/><rect y="651" width="2400" height="2" fill="#e2d4b4"/><rect y="659" width="2400" height="2" fill="#e2d4b4"/><rect y="667" width="2400" height="2" fill="#e2d4b4"/><rect y="675" width="2400" height="2" fill="#e2d4b4"/><rect y="683" width="2400" height="2" fill="#e2d4b4"/><rect y="691" width="2400" height="2" fill="#e2d4b4"/><rect y="699" width="2400" height="2" fill="#e2d4b4"/><rect y="707" width="2400" height="2" fill="#e2d4b4"/><rect y="715" width="2400" height="2" fill="#e2d4b4"/><rect y="723" width="2400" height="2" fill="#e2d4b4"/><rect y="731" width="2400" height="2" fill="#e2d4b4"/><rect y="739" width="2400" height="2" fill="#e2d4b4"/><rect y="747" width="2400" height="2" fill="#e2d4b4"/><rect y="755" width="2400" height="2" fill="#e2d4b4"/><rect y="763" width="2400" height="2" fill="#e2d4b4"/><rect y="771" width="2400" height="2" fill="#e2d4b4"/><rect y="779" width="2400" height="2" fill="#e2d4b4"/><rect y="787" width="2400" height="2" fill="#e2d4b4"/><rect y="795" width="2400" height="2" fill="#e2d4b4"/><rect y="803" width="2400" height="2" fill="#e2d4b4"/><rect y="811" width="2400" height="2" fill="#e2d4b4"/><rect y="819" width="2400" height="2" fill="#e2d4b4"/><rect y="827" width="2400" height="2" fill="#e2d4b4"/><rect y="835" width="2400" height="2" fill="#e2d4b4"/><rect y="843" width="2400" height="2" fill="#e2d4b4"/><rect y="851" width="2400" height="2" fill="#e2d4b4"/><rect y="859" width="2400" height="2" fill="#e2d4b4"/><rect y="867" width="2400" height="2" fill="#e2d4b4"/><rect y="875" width="2400" height="2" fill="#e2d4b4"/><rect y="883" width="2400" height="2" fill="#e2d4b4"/><rect y="891" width="2400" height="2" fill="#e2d4b4"/><rect y="899" width="2400" height="2" fill="#e2d4b4"/><rect y="907" width="2400" height="2" fill="#e2d4b4"/><rect y="915" width="2400" height="2" fill="#e2d4b4"/><rect y="923" width="2400" height="2" fill="#e2d4b4"/><rect y="931" width="2400" height="2" fill="#e2d4b4"/><rect y="939" width="2400" height="2" fill="#e2d4b4"/><rect y="947" width="2400" height="2" fill="#e2d4b4"/><rect y="955" width="2400" height="2" fill="#e2d4b4"/><rect y="963" width="2400" height="2" fill="#e2d4b4"/><rect y="971" width="2400" height="2" fill="#e2d4b4"/><rect y="979" width="2400" height="2" fill="#e2d4b4"/><rect y="987" width="2400" height="2" fill="#e2d4b4"/><rect y="995" width="2400" height="2" fill="#e2d4b4"/><rect y="1003" width="2400" height="2" fill="#e2d4b4"/><rect y="1011" width="2400" height="2" fill="#e2d4b4"/><rect y="1019" width="2400" height="2" fill="#e2d4b4"/><rect y="1027" width="2400" height="2" fill="#e2d4b4"/><rect y="1035" width="2400" height="2" fill="#e2d4b4"/><rect y="1043" width="2400" height="2" fill="#e2d4b4"/><rect y="1051" width="2400" height="2" fill="#e2d4b4"/><rect y="1059" width="2400" height="2" fill="#e2d4b4"/><rect y="1067" width="2400" height="2" fill="#e2d4b4"/><rect y="1075" width="2400" height="2" fill="#e2d4b4"/><rect y="1083" width="2400" height="2" fill="#e2d4b4"/><rect y="1091" width="2400" height="2" fill="#e2d4b4"/><rect y="1099" width="2400" height="2" fill="#e2d4b4"/><rect y="1107" width="2400" height="2" fill="#e2d4b4"/><rect y="1115" width="2400" height="2" fill="#e2d4b4"/><rect y="1123" width="2400" height="2" fill="#e2d4b4"/><rect y="1131" width="2400" height="2" fill="#e2d4b4"/><rect y="1139" width="2400" height="2" fill="#e2d4b4"/><rect y="1147" width="2400" height="2" fill="#e2d4b4"/><rect y="1155" width="2400" height="2" fill="#e2d4b4"/><rect y="1163" width="2400" height="2" fill="#e2d4b4"/><rect y="1171" width="2400" height="2" fill="#e2d4b4"/><rect y="1179" width="2400" height="2" fill="#e2d4b4"/><rect y="1187" width="2400" height="2" fill="#e2d4b4"/><rect y="1195" width="2400" height="2" fill="#e2d4b4"/><rect y="1203" width="2400" height="2" fill="#e2d4b4"/><rect y="1211" width="2400" height="2" fill="#e2d4b4"/><rect y="1219" width="2400" height="2" fill="#e2d4b4"/><rect y="1227" width="2400" height="2" fill="#e2d4b4"/><rect y="1235" width="2400" height="2" fill="#e2d4b4"/><rect y="1243" width="2400" height="2" fill="#e2d4b4"/><rect y="1251" width="2400" height="2" fill="#e2d4b4"/><rect y="1259" width="2400" height="2" fill="#e2d4b4"/><rect y="1267" width="2400" height="2" fill="#e2d4b4"/><rect y="1275" width="2400" height="2" fill="#e2d4b4"/><rect y="1283" width="2400" height="2" fill="#e2d4b4"/><rect y="1291" width="2400" height="2" fill="#e2d4b4"/><rect y="1299" width="2400" height="2" fill="#e2d4b4"/><rect y="1307" width="2400" height="2" fill="#e2d4b4"/><rect y="1315" width="2400" height="2" fill="#e2d4b4"/><rect y="1323" width="2400" height="2" fill="#e2d4b4"/><rect y="1331" width="2400" height="2" fill="#e2d4b4"/><rect y="1339" width="2400" height="2" fill="#e2d4b4"/><rect y="1347" width="2400" height="2" fill="#e2d4b4"/><rect y="1355" width="2400" height="2" fill="#e2d4b4"/><rect y="1363" width="2400" height="2" fill="#e2d4b4"/><rect y="1371" width="2400" height="2" fill="#e2d4b4"/><rect y="1379" width="2400" height="2" fill="#e2d4b4"/><rect y="1387" width="2400" height="2" fill="#e2d4b4"/><rect y="1395" width="2400" height="2" fill="#e2d4b4"/><rect y="1403" width="2400" height="2" fill="#e2d4b4"/><rect y="1411" width="2400" height="2" fill="#e2d4b4"/><rect y="1419" width="2400" height="2" fill="#e2d4b4"/><rect y="1427" width="2400" height="2" fill="#e2d4b4"/><rect y="1435" width="2400" height="2" fill="#e2d4b4"/><rect y="1443" width="2400" height="2" fill="#e2d4b4"/><rect y="1451" width="2400" height="2" fill="#e2d4b4"/><rect y="1459" width="2400" height="2" fill="#e2d4b4"/><rect y="1467" width="2400" height="2" fill="#e2d4b4"/><rect y="1475" width="2400" height="2" fill="#e2d4b4"/><rect y="1483" width="2400" height="2" fill="#e2d4b4"/><rect y="1491" width="2400" height="2" fill="#e2d4b4"/><rect y="1499" width="2400" height="2" fill="#e2d4b4"/><rect y="1507" width="2400" height="2" fill="#e2d4b4"/><rect y="1515" width="2400" height="2" fill="#e2d4b4"/><rect y="1523" width="2400" height="2" fill="#e2d4b4"/><rect y="1531" width="2400" height="2" fill="#e2d4b4"/><rect y="1539" width="2400" height="2" fill="#e2d4b4"/><rect y="1547" width="2400" height="2" fill="#e2d4b4"/><rect y="1555" width="2400" height="2" fill="#e2d4b4"/><rect y="1563" width="2400" height="2" fill="#e2d4b4"/><rect y="1571" width="2400" height="2" fill="#e2d4b4"/><rect y="1579" width="2400" height="2" fill="#e2d4b4"/><rect y="1587" width="2400" height="2" fill="#e2d4b4"/><rect y="1595" width="2400" height="2" fill="#e2d4b4"/><rect y="1603" width="2400" height="2" fill="#e2d4b4"/><rect y="1611" width="2400" height="2" fill="#e2d4b4"/><rect y="1619" width="2400" height="2" fill="#e2d4b4"/><rect y="1627" width="2400" height="2" fill="#e2d4b4"/><rect y="1635" width="2400" height="2" fill="#e2d4b4"/><rect y="1643" width="2400" height="2" fill="#e2d4b4"/><rect y="1651" width="2400" height="2" fill="#e2d4b4"/><rect y="1659" width="2400" height="2" fill="#e2d4b4"/><rect y="1667" width="2400" height="2" fill="#e2d4b4"/><rect y="1675" width="2400" height="2" fill="#e2d4b4"/><rect y="1683" width="2400" height="2" fill="#e2d4b4"/><rect y="1691" width="2400" height="2" fill="#e2d4b4"/><rect y="1699" width="2400" height="2" fill="#e2d4b4"/><rect y="1707" width="2400" height="2" fill="#e2d4b4"/><rect y="1715" width="2400" height="2" fill="#e2d4b4"/><rect y="1723" width="2400" height="2" fill="#e2d4b4"/><rect y="1731" width="2400" height="2" fill="#e2d4b4"/><rect y="1739" width="2400" height="2" fill="#e2d4b4"/><rect y="1747" width="2400" height="2" fill="#e2d4b4"/><rect y="1755" width="2400" height="2" fill="#e2d4b4"/><rect y="1763" width="2400" height="2" fill="#e2d4b4"/><rect y="1771" width="2400" height="2" fill="#e2d4b4"/><rect y="1779" width="2400" height="2" fill="#e2d4b4"/><rect y="1787" width="2400" height="2" fill="#e2d4b4"/><rect y="1795" width="2400" height="2" fill="#e2d4b4"/><rect y="1803" width="2400" height="2" fill="#e2d4b4"/><rect y="1811" width="2400" height="2" fill="#e2d4b4"/><rect y="1819" width="2400" height="2" fill="#e2d4b4"/><rect y="1827" width="2400" height="2" fill="#e2d4b4"/><rect y="1835" width="2400" height="2" fill="#e2d4b4"/><rect y="1843" width="2400" height="2" fill="#e2d4b4"/><rect y="1851" width="2400" height="2" fill="#e2d4b4"/><rect y="1859" width="2400" height="2" fill="#e2d4b4"/><rect y="1867" width="2400" height="2" fill="#e2d4b4"/><rect y="1875" width="2400" height="2" fill="#e2d4b4"/><rect y="1883" width="2400" height="2" fill="#e2d4b4"/><rect y="1891" width="2400" height="2" fill="#e2d4b4"/><rect y="1899" width="2400" height="2" fill="#e2d4b4"/><rect y="1907" width="2400" height="2" fill="#e2d4b4"/><rect y="1915" width="2400" height="2" fill="#e2d4b4"/><rect y="1923" width="2400" height="2" fill="#e2d4b4"/><rect y="1931" width="2400" height="2" fill="#e2d4b4"/><rect y="1939" width="2400" height="2" fill="#e2d4b4"/><rect y="1947" width="2400" height="2" fill="#e2d4b4"/><rect y="1955" width="2400" height="2" fill="#e2d4b4"/><rect y="1963" width="2400" height="2" fill="#e2d4b4"/><rect y="1971" width="2400" height="2" fill="#e2d4b4"/><rect y="1979" width="2400" height="2" fill="#e2d4b4"/><rect y="1987" width="2400" height="2" fill="#e2d4b4"/><rect y="1995" width="2400" height="2" fill="#e2d4b4"/><rect y="2003" width="2400" height="2" fill="#e2d4b4"/><rect y="2011" width="2400" height="2" fill="#e2d4b4"/><rect y="2019" width="2400" height="2" fill="#e2d4b4"/><rect y="2027" width="2400" height="2" fill="#e2d4b4"/><rect y="2035" width="2400" height="2" fill="#e2d4b4"/><rect y="2043" width="2400" height="2" fill="#e2d4b4"/><rect y="2051" width="2400" height="2" fill="#e2d4b4"/><rect y="2059" width="2400" height="2" fill="#e2d4b4"/><rect y="2067" width="2400" height="2" fill="#e2d4b4"/><rect y="2075" width="2400" height="2" fill="#e2d4b4"/><rect y="2083" width="2400" height="2" fill="#e2d4b4"/><rect y="2091" width="2400" height="2" fill="#e2d4b4"/><rect y="2099" width="2400" height="2" fill="#e2d4b4"/><rect y="2107" width="2400" height="2" fill="#e2d4b4"/><rect y="2115" width="2400" height="2" fill="#e2d4b4"/><rect y="2123" width="2400" height="2" fill="#e2d4b4"/><rect y="2131" width="2400" height="2" fill="#e2d4b4"/><rect y="2139" width="2400" height="2" fill="#e2d4b4"/><rect y="2147" width="2400" height="2" fill="#e2d4b4"/><rect y="2155" width="2400" height="2" fill="#e2d4b4"/><rect y="2163" width="2400" height="2" fill="#e2d4b4"/><rect y="2171" width="2400" height="2" fill="#e2d4b4"/><rect y="2179" width="2400" height="2" fill="#e2d4b4"/><rect y="2187" width="2400" height="2" fill="#e2d4b4"/><rect y="2195" width="2400" height="2" fill="#e2d4b4"/><rect y="2203" width="2400" height="2" fill="#e2d4b4"/><rect y="2211" width="2400" height="2" fill="#e2d4b4"/><rect y="2219" width="2400" height="2" fill="#e2d4b4"/><rect y="2227" width="2400" height="2" fill="#e2d4b4"/><rect y="2235" width="2400" height="2" fill="#e2d4b4"/><rect y="2243" width="2400" height="2" fill="#e2d4b4"/><rect y="2251" width="2400" height="2" fill="#e2d4b4"/><rect y="2259" width="2400" height="2" fill="#e2d4b4"/><rect y="2267" width="2400" height="2" fill="#e2d4b4"/><rect y="2275" width="2400" height="2" fill="#e2d4b4"/><rect y="2283" width="2400" height="2" fill="#e2d4b4"/><rect y="2291" width="2400" height="2" fill="#e2d4b4"/><rect y="2299" width="2400" height="2" fill="#e2d4b4"/><rect y="2307" width="2400" height="2" fill="#e2d4b4"/><rect y="2315" width="2400" height="2" fill="#e2d4b4"/><rect y="2323" width="2400" height="2" fill="#e2d4b4"/><rect y="2331" width="2400" height="2" fill="#e2d4b4"/><rect y="2339" width="2400" height="2" fill="#e2d4b4"/><rect y="2347" width="2400" height="2" fill="#e2d4b4"/><rect y="2355" width="2400" height="2" fill="#e2d4b4"/><rect y="2363" width="2400" height="2" fill="#e2d4b4"/><rect y="2371" width="2400" height="2" fill="#e2d4b4"/><rect y="2379" width="2400" height="2" fill="#e2d4b4"/><rect y="2387" width="2400" height="2" fill="#e2d4b4"/><rect y="2395" width="2400" height="2" fill="#e2d4b4"/><rect y="2403" width="2400" height="2" fill="#e2d4b4"/><rect y="2411" width="2400" height="2" fill="#e2d4b4"/><rect y="2419" width="2400" height="2" fill="#e2d4b4"/><rect y="2427" width="2400" height="2" fill="#e2d4b4"/><rect y="2435" width="2400" height="2" fill="#e2d4b4"/><rect y="2443" width="2400" height="2" fill="#e2d4b4"/><rect y="2451" width="2400" height="2" fill="#e2d4b4"/><rect y="2459" width="2400" height="2" fill="#e2d4b4"/><rect y="2467" width="2400" height="2" fill="#e2d4b4"/><rect y="2475" width="2400" height="2" fill="#e2d4b4"/><rect y="2483" width="2400" height="2" fill="#e2d4b4"/><rect y="2491" width="2400" height="2" fill="#e2d4b4"/><rect y="2499" width="2400" height="2" fill="#e2d4b4"/><rect y="2507" width="2400" height="2" fill="#e2d4b4"/><rect y="2515" width="2400" height="2" fill="#e2d4b4"/><rect y="2523" width="2400" height="2" fill="#e2d4b4"/><rect y="2531" width="2400" height="2" fill="#e2d4b4"/><rect y="2539" width="2400" height="2" fill="#e2d4b4"/><rect y="2547" width="2400" height="2" fill="#e2d4b4"/><rect y="2555" width="2400" height="2" fill="#e2d4b4"/><rect y="2563" width="2400" height="2" fill="#e2d4b4"/><rect y="2571" width="2400" height="2" fill="#e2d4b4"/><rect y="2579" width="2400" height="2" fill="#e2d4b4"/><rect y="2587" width="2400" height="2" fill="#e2d4b4"/><rect y="2595" width="2400" height="2" fill="#e2d4b4"/><rect y="2603" width="2400" height="2" fill="#e2d4b4"/><rect y="2611" width="2400" height="2" fill="#e2d4b4"/><rect y="2619" width="2400" height="2" fill="#e2d4b4"/><rect y="2627" width="2400" height="2" fill="#e2d4b4"/><rect y="2635" width="2400" height="2" fill="#e2d4b4"/><rect y="2643" width="2400" height="2" fill="#e2d4b4"/><rect y="2651" width="2400" height="2" fill="#e2d4b4"/><rect y="2659" width="2400" height="2" fill="#e2d4b4"/><rect y="2667" width="2400" height="2" fill="#e2d4b4"/><rect y="2675" width="2400" height="2" fill="#e2d4b4"/><rect y="2683" width="2400" height="2" fill="#e2d4b4"/><rect y="2691" width="2400" height="2" fill="#e2d4b4"/><rect y="2699" width="2400" height="2" fill="#e2d4b4"/><rect y="2707" width="2400" height="2" fill="#e2d4b4"/><rect y="2715" width="2400" height="2" fill="#e2d4b4"/><rect y="2723" width="2400" height="2" fill="#e2d4b4"/><rect y="2731" width="2400" height="2" fill="#e2d4b4"/><rect y="2739" width="2400" height="2" fill="#e2d4b4"/><rect y="2747" width="2400" height="2" fill="#e2d4b4"/><rect y="2755" width="2400" height="2" fill="#e2d4b4"/><rect y="2763" width="2400" height="2" fill="#e2d4b4"/><rect y="2771" width="2400" height="2" fill="#e2d4b4"/><rect y="2779" width="2400" height="2" fill="#e2d4b4"/><rect y="2787" width="2400" height="2" fill="#e2d4b4"/><rect y="2795" width="2400" height="2" fill="#e2d4b4"/><rect y="2803" width="2400" height="2" fill="#e2d4b4"/><rect y="2811" width="2400" height="2" fill="#e2d4b4"/><rect y="2819" width="2400" height="2" fill="#e2d4b4"/><rect y="2827" width="2400" height="2" fill="#e2d4b4"/><rect y="2835" width="2400" height="2" fill="#e2d4b4"/><rect y="2843" width="2400" height="2" fill="#e2d4b4"/><rect y="2851" width="2400" height="2" fill="#e2d4b4"/><rect y="2859" width="2400" height="2" fill="#e2d4b4"/><rect y="2867" width="2400" height="2" fill="#e2d4b4"/><rect y="2875" width="2400" height="2" fill="#e2d4b4"/><rect y="2883" width="2400" height="2" fill="#e2d4b4"/><rect y="2891" width="2400" height="2" fill="#e2d4b4"/><rect y="2899" width="2400" height="2" fill="#e2d4b4"/><rect y="2907" width="2400" height="2" fill="#e2d4b4"/><rect y="2915" width="2400" height="2" fill="#e2d4b4"/><rect y="2923" width="2400" height="2" fill="#e2d4b4"/><rect y="2931" width="2400" height="2" fill="#e2d4b4"/><rect y="2939" width="2400" height="2" fill="#e2d4b4"/><rect y="2947" width="2400" height="2" fill="#e2d4b4"/><rect y="2955" width="2400" height="2" fill="#e2d4b4"/><rect y="2963" width="2400" height="2" fill="#e2d4b4"/><rect y="2971" width="2400" height="2" fill="#e2d4b4"/><rect y="2979" width="2400" height="2" fill="#e2d4b4"/><rect y="2987" width="2400" height="2" fill="#e2d4b4"/><rect y="2995" width="2400" height="2" fill="#e2d4b4"/></g><rect x="88" y="88" width="2224" height="2824" fill="none" stroke="#3a2c1a" stroke-width="4" opacity="0.2"/><rect x="94" y="94" width="2212" height="2812" fill="none" stroke="#fff6e0" stroke-width="2" opacity="0.25"/><circle cx="964.1" cy="1350.1" r="8.5" fill="#8a5a2e" opacity="0.054"/><circle cx="398" cy="1479.1" r="3.6" fill="#8a5a2e" opacity="0.113"/><circle cx="2208.8" cy="2034.2" r="6.3" fill="#8a5a2e" opacity="0.048"/><circle cx="1118.7" cy="550.5" r="14.6" fill="#8a5a2e" opacity="0.117"/><circle cx="1414.4" cy="877.7" r="12.5" fill="#8a5a2e" opacity="0.075"/><circle cx="2255.4" cy="2263.9" r="12.8" fill="#8a5a2e" opacity="0.119"/><circle cx="1625.2" cy="1752.1" r="10.3" fill="#8a5a2e" opacity="0.044"/><circle cx="1796.9" cy="462.6" r="13.9" fill="#8a5a2e" opacity="0.123"/><circle cx="560.7" cy="2799.4" r="13.7" fill="#8a5a2e" opacity="0.059"/><circle cx="263.2" cy="2105.2" r="6.4" fill="#8a5a2e" opacity="0.109"/><circle cx="194.1" cy="359.1" r="6.8" fill="#8a5a2e" opacity="0.080"/><circle cx="988.7" cy="1504.3" r="12.3" fill="#8a5a2e" opacity="0.051"/><circle cx="1575.1" cy="523.2" r="6.5" fill="#8a5a2e" opacity="0.125"/><circle cx="229" cy="709.4" r="7.9" fill="#8a5a2e" opacity="0.098"/><circle cx="801.8" cy="1794.8" r="10.7" fill="#8a5a2e" opacity="0.046"/><circle cx="1732.2" cy="812.6" r="15.1" fill="#8a5a2e" opacity="0.051"/><circle cx="1145.8" cy="935.5" r="13.9" fill="#8a5a2e" opacity="0.086"/><circle cx="1863" cy="1044.3" r="14.5" fill="#8a5a2e" opacity="0.106"/><circle cx="449.1" cy="150.5" r="15.9" fill="#8a5a2e" opacity="0.100"/><circle cx="606.9" cy="1972.5" r="7.2" fill="#8a5a2e" opacity="0.125"/><circle cx="184.5" cy="611.9" r="14.7" fill="#8a5a2e" opacity="0.102"/><circle cx="1229.7" cy="2554.2" r="14.8" fill="#8a5a2e" opacity="0.120"/><circle cx="1953.5" cy="1202.2" r="5" fill="#8a5a2e" opacity="0.129"/><circle cx="895.1" cy="2181.8" r="6.1" fill="#8a5a2e" opacity="0.041"/><rect width="2400" height="3000" fill="url(#a62-vig)"/></svg></svg>