<svg xmlns="http://www.w3.org/2000/svg" width="2400" height="1800" viewBox="0 0 2400 1800"><rect width="2400" height="1800" fill="#dfe4dc"/><rect y="1400" width="2400" height="400" fill="#c2a67e"/><line x1="60" y1="1400" x2="10" y2="1800" stroke="#00000015" stroke-width="5"/><line x1="260" y1="1400" x2="210" y2="1800" stroke="#00000015" stroke-width="5"/><line x1="460" y1="1400" x2="410" y2="1800" stroke="#00000015" stroke-width="5"/><line x1="660" y1="1400" x2="610" y2="1800" stroke="#00000015" stroke-width="5"/><line x1="860" y1="1400" x2="810" y2="1800" stroke="#00000015" stroke-width="5"/><line x1="1060" y1="1400" x2="1010" y2="1800" stroke="#00000015" stroke-width="5"/><line x1="1260" y1="1400" x2="1210" y2="1800" stroke="#00000015" stroke-width="5"/><line x1="1460" y1="1400" x2="1410" y2="1800" stroke="#00000015" stroke-width="5"/><line x1="1660" y1="1400" x2="1610" y2="1800" stroke="#00000015" stroke-width="5"/><line x1="1860" y1="1400" x2="1810" y2="1800" stroke="#00000015" stroke-width="5"/><line x1="2060" y1="1400" x2="2010" y2="1800" stroke="#00000015" stroke-width="5"/><line x1="2260" y1="1400" x2="2210" y2="1800" stroke="#00000015" stroke-width="5"/><rect x="180" y="260" width="900" height="620" fill="#8a6a48"/><rect x="215" y="295" width="830" height="550" fill="#41524a"/><line x1="280" y1="420" x2="760" y2="420" stroke="#ffffff66" stroke-width="9" stroke-linecap="round"/><line x1="280" y1="520" x2="620" y2="520" stroke="#ffffff44" stroke-width="9" stroke-linecap="round"/><circle cx="880" cy="560" r="90" fill="none" stroke="#ffffff55" stroke-width="8"/><rect x="215" y="845" width="830" height="22" fill="#6f5436"/><rect x="330" y="1240" width="640" height="60" rx="10" fill="#9c7449"/><rect x="370" y="1300" width="60" height="240" fill="#8a6540"/><rect x="870" y="1300" width="60" height="240" fill="#8a6540"/><rect x="430" y="1160" width="150" height="80" rx="8" fill="#4d84b5"/><rect x="450" y="1120" width="150" height="40" rx="8" fill="#24486e"/><circle cx="800" cy="1130" r="86" fill="#7fa3b8"/><path d="M760,1060 Q820,1100 780,1190 M740,1090 Q800,1120 850,1100" stroke="#5d8069" stroke-width="16" fill="none" stroke-linecap="round"/><circle cx="800" cy="1130" r="86" fill="none" stroke="#6b5233" stroke-width="7"/><line x1="800" y1="1216" x2="800" y2="1250" stroke="#6b5233" stroke-width="10"/><rect x="750" y="1244" width="100" height="14" rx="7" fill="#6b5233"/><rect x="1980" y="700" width="300" height="800" fill="#9c7449"/><rect x="2000" y="930" width="260" height="16" fill="#7c5a37"/><rect x="2020" y="790" width="36" height="140" fill="#b3502f"/><rect x="2066" y="802" width="36" height="128" fill="#39685c"/><rect x="2112" y="790" width="36" height="140" fill="#c9a227"/><rect x="2158" y="802" width="36" height="128" fill="#2c4661"/><rect x="2204" y="790" width="36" height="140" fill="#8a4423"/><rect x="2000" y="1180" width="260" height="16" fill="#7c5a37"/><rect x="2020" y="1040" width="36" height="140" fill="#39685c"/><rect x="2066" y="1052" width="36" height="128" fill="#c9a227"/><rect x="2112" y="1040" width="36" height="140" fill="#2c4661"/><rect x="2158" y="1052" width="36" height="128" fill="#8a4423"/><rect x="2204" y="1040" width="36" height="140" fill="#b3502f"/><rect x="2000" y="1430" width="260" height="16" fill="#7c5a37"/><rect x="2020" y="1290" width="36" height="140" fill="#c9a227"/><rect x="2066" y="1302" width="36" height="128" fill="#2c4661"/><rect x="2112" y="1290" width="36" height="140" fill="#8a4423"/><rect x="2158" y="1302" width="36" height="128" fill="#b3502f"/><rect x="2204" y="1290" width="36" height="140" fill="#39685c"/><defs><filter id="a3c-sh" x="-30%" y="-30%" width="160%" height="160%"><feGaussianBlur stdDeviation="16"/></filter></defs><rect x="1340.5" y="298.5" width="517" height="635" fill="#000" opacity="0.28" filter="url(#a3c-sh)"/><rect x="1326.5" y="276.5" width="517" height="635" fill="#3d342a"/><rect x="1341.8" y="291.8" width="486.4" height="604.5" fill="none" stroke="#00000055" stroke-width="3"/><rect x="1350" y="300" width="470" height="588" fill="#f6f2ea"/><svg x="1385.3" y="335.3" width="399.5" height="517.5" viewBox="0 0 2400 3000" preserveAspectRatio="xMidYMid slice"><rect width="2400" height="3000" fill="#16324f"/><radialGradient id="a3-vig" cx="50%" cy="42%" r="80%"><stop offset="55%" stop-color="#000" stop-opacity="0"/><stop offset="100%" stop-color="#000" stop-opacity="0.15"/></radialGradient><rect width="2400" height="3000" fill="url(#a3-vig)"/><circle cx="1510.2" cy="308.2" r="2.3" fill="#d8b45a" opacity="0.032"/><circle cx="879.6" cy="885.1" r="2.9" fill="#d8b45a" opacity="0.064"/><circle cx="267.1" cy="2709.1" r="3.2" fill="#d8b45a" opacity="0.070"/><circle cx="803.2" cy="1017.1" r="2.2" fill="#d8b45a" opacity="0.057"/><circle cx="2019.7" cy="1253.1" r="1.5" fill="#d8b45a" opacity="0.078"/><circle cx="54.3" cy="2641" r="1.9" fill="#d8b45a" opacity="0.072"/><circle cx="172.9" cy="656" r="3" fill="#d8b45a" opacity="0.033"/><circle cx="652.4" cy="1546.7" r="4.4" fill="#d8b45a" opacity="0.069"/><circle cx="817.6" cy="2816.3" r="2.3" fill="#d8b45a" opacity="0.052"/><circle cx="1058.2" cy="437.6" r="1.9" fill="#d8b45a" opacity="0.045"/><circle cx="2285.5" cy="1752.7" r="3.5" fill="#d8b45a" opacity="0.073"/><circle cx="943.6" cy="1740.8" r="1.9" fill="#d8b45a" opacity="0.036"/><circle cx="1787.3" cy="960.9" r="3.9" fill="#d8b45a" opacity="0.055"/><circle cx="593.9" cy="1202.5" r="2.3" fill="#d8b45a" opacity="0.038"/><circle cx="1854.2" cy="303.4" r="2.6" fill="#d8b45a" opacity="0.041"/><circle cx="258.4" cy="2577.9" r="1.6" fill="#d8b45a" opacity="0.060"/><circle cx="85" cy="433.7" r="2.1" fill="#d8b45a" opacity="0.049"/><circle cx="972.8" cy="1825.4" r="1.5" fill="#d8b45a" opacity="0.067"/><circle cx="1211" cy="672.1" r="3.9" fill="#d8b45a" opacity="0.055"/><circle cx="2217.6" cy="2462.8" r="1.6" fill="#d8b45a" opacity="0.073"/><circle cx="731.5" cy="1242.2" r="3.6" fill="#d8b45a" opacity="0.073"/><circle cx="1863.5" cy="1140.9" r="4.1" fill="#d8b45a" opacity="0.068"/><circle cx="268.9" cy="880.7" r="3.2" fill="#d8b45a" opacity="0.080"/><circle cx="650.8" cy="699" r="2.9" fill="#d8b45a" opacity="0.039"/><circle cx="1115.8" cy="1568.4" r="2.8" fill="#d8b45a" opacity="0.041"/><circle cx="1342.5" cy="1567.5" r="4.2" fill="#d8b45a" opacity="0.052"/><circle cx="1253.1" cy="2584.8" r="2.7" fill="#d8b45a" opacity="0.058"/><circle cx="1159.5" cy="1288.2" r="4.1" fill="#d8b45a" opacity="0.041"/><circle cx="333.1" cy="2373.3" r="2" fill="#d8b45a" opacity="0.030"/><circle cx="45.5" cy="187.2" r="3.6" fill="#d8b45a" opacity="0.052"/><circle cx="2270.2" cy="1812.9" r="1.5" fill="#d8b45a" opacity="0.037"/><circle cx="2284.4" cy="923.7" r="2.8" fill="#d8b45a" opacity="0.063"/><circle cx="1559.3" cy="2939.3" r="2.6" fill="#d8b45a" opacity="0.071"/><circle cx="2303.7" cy="707.9" r="4.1" fill="#d8b45a" opacity="0.050"/><circle cx="1215.3" cy="1450" r="1.6" fill="#d8b45a" opacity="0.075"/><circle cx="1532.8" cy="2580.2" r="2" fill="#d8b45a" opacity="0.032"/><circle cx="889.9" cy="2236.3" r="4.1" fill="#d8b45a" opacity="0.047"/><circle cx="1334.4" cy="221.2" r="3.6" fill="#d8b45a" opacity="0.077"/><circle cx="1813.3" cy="156.6" r="3.9" fill="#d8b45a" opacity="0.052"/><circle cx="1390.3" cy="2241.9" r="3.6" fill="#d8b45a" opacity="0.055"/><circle cx="1582.4" cy="264.1" r="2" fill="#d8b45a" opacity="0.066"/><circle cx="2067.2" cy="2353.1" r="3.1" fill="#d8b45a" opacity="0.037"/><circle cx="733.9" cy="1280.2" r="1.9" fill="#d8b45a" opacity="0.043"/><circle cx="934.8" cy="2933.3" r="3.5" fill="#d8b45a" opacity="0.077"/><circle cx="544.6" cy="848" r="3.8" fill="#d8b45a" opacity="0.047"/><circle cx="273.7" cy="2911.1" r="1.8" fill="#d8b45a" opacity="0.051"/><circle cx="2212.4" cy="2756.3" r="3.6" fill="#d8b45a" opacity="0.047"/><circle cx="1147.9" cy="641.8" r="4.4" fill="#d8b45a" opacity="0.070"/><circle cx="1809" cy="1213.1" r="1.5" fill="#d8b45a" opacity="0.045"/><circle cx="1330.6" cy="2473.4" r="3.4" fill="#d8b45a" opacity="0.065"/><circle cx="600.7" cy="2583.1" r="1.5" fill="#d8b45a" opacity="0.057"/><circle cx="1048.6" cy="2940.9" r="3.9" fill="#d8b45a" opacity="0.035"/><circle cx="1141.1" cy="1438.3" r="1.7" fill="#d8b45a" opacity="0.065"/><circle cx="1217.7" cy="1703.7" r="1.9" fill="#d8b45a" opacity="0.070"/><circle cx="1214.9" cy="2534.8" r="3.2" fill="#d8b45a" opacity="0.057"/><circle cx="1257.2" cy="231.4" r="4" fill="#d8b45a" opacity="0.062"/><circle cx="1144" cy="1633" r="3.8" fill="#d8b45a" opacity="0.060"/><circle cx="963.6" cy="964.1" r="3.2" fill="#d8b45a" opacity="0.078"/><circle cx="82.3" cy="251.1" r="1.9" fill="#d8b45a" opacity="0.065"/><circle cx="164.1" cy="1963.4" r="1.9" fill="#d8b45a" opacity="0.034"/><circle cx="189.3" cy="1944" r="4.1" fill="#d8b45a" opacity="0.069"/><circle cx="1566.3" cy="1540.1" r="2.3" fill="#d8b45a" opacity="0.056"/><circle cx="77.1" cy="841.8" r="2" fill="#d8b45a" opacity="0.077"/><circle cx="862.5" cy="152.5" r="3.3" fill="#d8b45a" opacity="0.038"/><circle cx="736.4" cy="275" r="2.6" fill="#d8b45a" opacity="0.031"/><circle cx="1050.9" cy="1667.6" r="3.1" fill="#d8b45a" opacity="0.047"/><circle cx="2079.5" cy="2799" r="1.9" fill="#d8b45a" opacity="0.039"/><circle cx="1557.3" cy="402.9" r="2.8" fill="#d8b45a" opacity="0.037"/><circle cx="942.5" cy="1537.7" r="2.1" fill="#d8b45a" opacity="0.070"/><circle cx="198.1" cy="2065.3" r="4.1" fill="#d8b45a" opacity="0.072"/><circle cx="775.7" cy="1504.4" r="3.4" fill="#d8b45a" opacity="0.072"/><circle cx="224.7" cy="649.2" r="2.7" fill="#d8b45a" opacity="0.078"/><circle cx="498.8" cy="562.1" r="3.1" fill="#d8b45a" opacity="0.053"/><circle cx="1272" cy="1637.6" r="1.9" fill="#d8b45a" opacity="0.049"/><circle cx="485.4" cy="1420.1" r="2.1" fill="#d8b45a" opacity="0.038"/><circle cx="1502.8" cy="806.3" r="4.3" fill="#d8b45a" opacity="0.043"/><circle cx="725.5" cy="970.3" r="1.7" fill="#d8b45a" opacity="0.079"/><circle cx="1988.9" cy="863" r="3.3" fill="#d8b45a" opacity="0.051"/><circle cx="1015.1" cy="499.8" r="1.8" fill="#d8b45a" opacity="0.077"/><circle cx="1836.2" cy="831.1" r="2.7" fill="#d8b45a" opacity="0.042"/><path d="M283,271 L 357,271 L 357,197 L 298.9,197 L 298.9,242.8 L 328.8,242.8 L 328.8,219.9 M371,271 L 445,271 L 445,197 L 386.9,197 L 386.9,242.8 L 416.8,242.8 L 416.8,219.9 M459,271 L 533,271 L 533,197 L 474.9,197 L 474.9,242.8 L 504.8,242.8 L 504.8,219.9 M547,271 L 621,271 L 621,197 L 562.9,197 L 562.9,242.8 L 592.8,242.8 L 592.8,219.9 M635,271 L 709,271 L 709,197 L 650.9,197 L 650.9,242.8 L 680.8,242.8 L 680.8,219.9 M723,271 L 797,271 L 797,197 L 738.9,197 L 738.9,242.8 L 768.8,242.8 L 768.8,219.9 M811,271 L 885,271 L 885,197 L 826.9,197 L 826.9,242.8 L 856.8,242.8 L 856.8,219.9 M899,271 L 973,271 L 973,197 L 914.9,197 L 914.9,242.8 L 944.8,242.8 L 944.8,219.9 M987,271 L 1061,271 L 1061,197 L 1002.9,197 L 1002.9,242.8 L 1032.8,242.8 L 1032.8,219.9 M1075,271 L 1149,271 L 1149,197 L 1090.9,197 L 1090.9,242.8 L 1120.8,242.8 L 1120.8,219.9 M1163,271 L 1237,271 L 1237,197 L 1178.9,197 L 1178.9,242.8 L 1208.8,242.8 L 1208.8,219.9 M1251,271 L 1325,271 L 1325,197 L 1266.9,197 L 1266.9,242.8 L 1296.8,242.8 L 1296.8,219.9 M1339,271 L 1413,271 L 1413,197 L 1354.9,197 L 1354.9,242.8 L 1384.8,242.8 L 1384.8,219.9 M1427,271 L 1501,271 L 1501,197 L 1442.9,197 L 1442.9,242.8 L 1472.8,242.8 L 1472.8,219.9 M1515,271 L 1589,271 L 1589,197 L 1530.9,197 L 1530.9,242.8 L 1560.8,242.8 L 1560.8,219.9 M1603,271 L 1677,271 L 1677,197 L 1618.9,197 L 1618.9,242.8 L 1648.8,242.8 L 1648.8,219.9 M1691,271 L 1765,271 L 1765,197 L 1706.9,197 L 1706.9,242.8 L 1736.8,242.8 L 1736.8,219.9 M1779,271 L 1853,271 L 1853,197 L 1794.9,197 L 1794.9,242.8 L 1824.8,242.8 L 1824.8,219.9 M1867,271 L 1941,271 L 1941,197 L 1882.9,197 L 1882.9,242.8 L 1912.8,242.8 L 1912.8,219.9 M1955,271 L 2029,271 L 2029,197 L 1970.9,197 L 1970.9,242.8 L 2000.8,242.8 L 2000.8,219.9 M2043,271 L 2117,271 L 2117,197 L 2058.9,197 L 2058.9,242.8 L 2088.8,242.8 L 2088.8,219.9 " fill="none" stroke="#d8b45a" stroke-width="11.4"/><line x1="240" y1="2796" x2="2160" y2="2796" stroke="#d8b45a" stroke-width="7.7"/><polyline points="287.8,2749.9 287.3,2750.6 287,2751.5 287,2752.5 287.3,2753.7 288.1,2754.8 289.2,2755.7 290.7,2756.3 292.4,2756.5 294.3,2756.3 296.1,2755.4 297.8,2754.1 299.2,2752.2 300.1,2749.9 300.4,2747.3 300.1,2744.6 299,2741.9 297.1,2739.5 294.6,2737.5 291.6,2736.1 288.2,2735.5 284.5,2735.7 280.9,2736.9 277.6,2739 274.8,2742 272.7,2745.7 271.6,2749.9 271.5,2754.5 272.6,2759 274.8,2763.3 278.1,2767.1 282.3,2770 287.3,2771.8 292.7,2772.4 298.2,2771.7 303.5,2769.6 308.3,2766.2 312.2,2761.6 315,2756.1 316.4,2749.9 316.2,2743.4 314.4,2737.1 311.1,2731.1 306.4,2726.1 300.4,2722.3 293.6,2720 286.2,2719.3 278.8,2720.5 271.7,2723.5 265.5,2728.2 260.4,2734.4 257,2741.8 255.4,2749.9" fill="none" stroke="#d8b45a" stroke-width="8.6" stroke-linecap="round" stroke-linejoin="round"/><polyline points="383.8,2749.9 383.3,2750.6 383,2751.5 383,2752.5 383.3,2753.7 384.1,2754.8 385.2,2755.7 386.7,2756.3 388.4,2756.5 390.3,2756.3 392.1,2755.4 393.8,2754.1 395.2,2752.2 396.1,2749.9 396.4,2747.3 396.1,2744.6 395,2741.9 393.1,2739.5 390.6,2737.5 387.6,2736.1 384.2,2735.5 380.5,2735.7 376.9,2736.9 373.6,2739 370.8,2742 368.7,2745.7 367.6,2749.9 367.5,2754.5 368.6,2759 370.8,2763.3 374.1,2767.1 378.3,2770 383.3,2771.8 388.7,2772.4 394.2,2771.7 399.5,2769.6 404.3,2766.2 408.2,2761.6 411,2756.1 412.4,2749.9 412.2,2743.4 410.4,2737.1 407.1,2731.1 402.4,2726.1 396.4,2722.3 389.6,2720 382.2,2719.3 374.8,2720.5 367.7,2723.5 361.5,2728.2 356.4,2734.4 353,2741.8 351.4,2749.9" fill="none" stroke="#d8b45a" stroke-width="8.6" stroke-linecap="round" stroke-linejoin="round"/><polyline points="479.8,2749.9 479.3,2750.6 479,2751.5 479,2752.5 479.3,2753.7 480.1,2754.8 481.2,2755.7 482.7,2756.3 484.4,2756.5 486.3,2756.3 488.1,2755.4 489.8,2754.1 491.2,2752.2 492.1,2749.9 492.4,2747.3 492.1,2744.6 491,2741.9 489.1,2739.5 486.6,2737.5 483.6,2736.1 480.2,2735.5 476.5,2735.7 472.9,2736.9 469.6,2739 466.8,2742 464.7,2745.7 463.6,2749.9 463.5,2754.5 464.6,2759 466.8,2763.3 470.1,2767.1 474.3,2770 479.3,2771.8 484.7,2772.4 490.2,2771.7 495.5,2769.6 500.3,2766.2 504.2,2761.6 507,2756.1 508.4,2749.9 508.2,2743.4 506.4,2737.1 503.1,2731.1 498.4,2726.1 492.4,2722.3 485.6,2720 478.2,2719.3 470.8,2720.5 463.7,2723.5 457.5,2728.2 452.4,2734.4 449,2741.8 447.4,2749.9" fill="none" stroke="#d8b45a" stroke-width="8.6" stroke-linecap="round" stroke-linejoin="round"/><polyline points="575.8,2749.9 575.3,2750.6 575,2751.5 575,2752.5 575.3,2753.7 576.1,2754.8 577.2,2755.7 578.7,2756.3 580.4,2756.5 582.3,2756.3 584.1,2755.4 585.8,2754.1 587.2,2752.2 588.1,2749.9 588.4,2747.3 588.1,2744.6 587,2741.9 585.1,2739.5 582.6,2737.5 579.6,2736.1 576.2,2735.5 572.5,2735.7 568.9,2736.9 565.6,2739 562.8,2742 560.7,2745.7 559.6,2749.9 559.5,2754.5 560.6,2759 562.8,2763.3 566.1,2767.1 570.3,2770 575.3,2771.8 580.7,2772.4 586.2,2771.7 591.5,2769.6 596.3,2766.2 600.2,2761.6 603,2756.1 604.4,2749.9 604.2,2743.4 602.4,2737.1 599.1,2731.1 594.4,2726.1 588.4,2722.3 581.6,2720 574.2,2719.3 566.8,2720.5 559.7,2723.5 553.5,2728.2 548.4,2734.4 545,2741.8 543.4,2749.9" fill="none" stroke="#d8b45a" stroke-width="8.6" stroke-linecap="round" stroke-linejoin="round"/><polyline points="671.8,2749.9 671.3,2750.6 671,2751.5 671,2752.5 671.3,2753.7 672.1,2754.8 673.2,2755.7 674.7,2756.3 676.4,2756.5 678.3,2756.3 680.1,2755.4 681.8,2754.1 683.2,2752.2 684.1,2749.9 684.4,2747.3 684.1,2744.6 683,2741.9 681.1,2739.5 678.6,2737.5 675.6,2736.1 672.2,2735.5 668.5,2735.7 664.9,2736.9 661.6,2739 658.8,2742 656.7,2745.7 655.6,2749.9 655.5,2754.5 656.6,2759 658.8,2763.3 662.1,2767.1 666.3,2770 671.3,2771.8 676.7,2772.4 682.2,2771.7 687.5,2769.6 692.3,2766.2 696.2,2761.6 699,2756.1 700.4,2749.9 700.2,2743.4 698.4,2737.1 695.1,2731.1 690.4,2726.1 684.4,2722.3 677.6,2720 670.2,2719.3 662.8,2720.5 655.7,2723.5 649.5,2728.2 644.4,2734.4 641,2741.8 639.4,2749.9" fill="none" stroke="#d8b45a" stroke-width="8.6" stroke-linecap="round" stroke-linejoin="round"/><polyline points="767.8,2749.9 767.3,2750.6 767,2751.5 767,2752.5 767.3,2753.7 768.1,2754.8 769.2,2755.7 770.7,2756.3 772.4,2756.5 774.3,2756.3 776.1,2755.4 777.8,2754.1 779.2,2752.2 780.1,2749.9 780.4,2747.3 780.1,2744.6 779,2741.9 777.1,2739.5 774.6,2737.5 771.6,2736.1 768.2,2735.5 764.5,2735.7 760.9,2736.9 757.6,2739 754.8,2742 752.7,2745.7 751.6,2749.9 751.5,2754.5 752.6,2759 754.8,2763.3 758.1,2767.1 762.3,2770 767.3,2771.8 772.7,2772.4 778.2,2771.7 783.5,2769.6 788.3,2766.2 792.2,2761.6 795,2756.1 796.4,2749.9 796.2,2743.4 794.4,2737.1 791.1,2731.1 786.4,2726.1 780.4,2722.3 773.6,2720 766.2,2719.3 758.8,2720.5 751.7,2723.5 745.5,2728.2 740.4,2734.4 737,2741.8 735.4,2749.9" fill="none" stroke="#d8b45a" stroke-width="8.6" stroke-linecap="round" stroke-linejoin="round"/><polyline points="863.8,2749.9 863.3,2750.6 863,2751.5 863,2752.5 863.3,2753.7 864.1,2754.8 865.2,2755.7 866.7,2756.3 868.4,2756.5 870.3,2756.3 872.1,2755.4 873.8,2754.1 875.2,2752.2 876.1,2749.9 876.4,2747.3 876.1,2744.6 875,2741.9 873.1,2739.5 870.6,2737.5 867.6,2736.1 864.2,2735.5 860.5,2735.7 856.9,2736.9 853.6,2739 850.8,2742 848.7,2745.7 847.6,2749.9 847.5,2754.5 848.6,2759 850.8,2763.3 854.1,2767.1 858.3,2770 863.3,2771.8 868.7,2772.4 874.2,2771.7 879.5,2769.6 884.3,2766.2 888.2,2761.6 891,2756.1 892.4,2749.9 892.2,2743.4 890.4,2737.1 887.1,2731.1 882.4,2726.1 876.4,2722.3 869.6,2720 862.2,2719.3 854.8,2720.5 847.7,2723.5 841.5,2728.2 836.4,2734.4 833,2741.8 831.4,2749.9" fill="none" stroke="#d8b45a" stroke-width="8.6" stroke-linecap="round" stroke-linejoin="round"/><polyline points="959.8,2749.9 959.3,2750.6 959,2751.5 959,2752.5 959.3,2753.7 960.1,2754.8 961.2,2755.7 962.7,2756.3 964.4,2756.5 966.3,2756.3 968.1,2755.4 969.8,2754.1 971.2,2752.2 972.1,2749.9 972.4,2747.3 972.1,2744.6 971,2741.9 969.1,2739.5 966.6,2737.5 963.6,2736.1 960.2,2735.5 956.5,2735.7 952.9,2736.9 949.6,2739 946.8,2742 944.7,2745.7 943.6,2749.9 943.5,2754.5 944.6,2759 946.8,2763.3 950.1,2767.1 954.3,2770 959.3,2771.8 964.7,2772.4 970.2,2771.7 975.5,2769.6 980.3,2766.2 984.2,2761.6 987,2756.1 988.4,2749.9 988.2,2743.4 986.4,2737.1 983.1,2731.1 978.4,2726.1 972.4,2722.3 965.6,2720 958.2,2719.3 950.8,2720.5 943.7,2723.5 937.5,2728.2 932.4,2734.4 929,2741.8 927.4,2749.9" fill="none" stroke="#d8b45a" stroke-width="8.6" stroke-linecap="round" stroke-linejoin="round"/><polyline points="1055.8,2749.9 1055.3,2750.6 1055,2751.5 1055,2752.5 1055.3,2753.7 1056.1,2754.8 1057.2,2755.7 1058.7,2756.3 1060.4,2756.5 1062.3,2756.3 1064.1,2755.4 1065.8,2754.1 1067.2,2752.2 1068.1,2749.9 1068.4,2747.3 1068.1,2744.6 1067,2741.9 1065.1,2739.5 1062.6,2737.5 1059.6,2736.1 1056.2,2735.5 1052.5,2735.7 1048.9,2736.9 1045.6,2739 1042.8,2742 1040.7,2745.7 1039.6,2749.9 1039.5,2754.5 1040.6,2759 1042.8,2763.3 1046.1,2767.1 1050.3,2770 1055.3,2771.8 1060.7,2772.4 1066.2,2771.7 1071.5,2769.6 1076.3,2766.2 1080.2,2761.6 1083,2756.1 1084.4,2749.9 1084.2,2743.4 1082.4,2737.1 1079.1,2731.1 1074.4,2726.1 1068.4,2722.3 1061.6,2720 1054.2,2719.3 1046.8,2720.5 1039.7,2723.5 1033.5,2728.2 1028.4,2734.4 1025,2741.8 1023.4,2749.9" fill="none" stroke="#d8b45a" stroke-width="8.6" stroke-linecap="round" stroke-linejoin="round"/><polyline points="1151.8,2749.9 1151.3,2750.6 1151,2751.5 1151,2752.5 1151.3,2753.7 1152.1,2754.8 1153.2,2755.7 1154.7,2756.3 1156.4,2756.5 1158.3,2756.3 1160.1,2755.4 1161.8,2754.1 1163.2,2752.2 1164.1,2749.9 1164.4,2747.3 1164.1,2744.6 1163,2741.9 1161.1,2739.5 1158.6,2737.5 1155.6,2736.1 1152.2,2735.5 1148.5,2735.7 1144.9,2736.9 1141.6,2739 1138.8,2742 1136.7,2745.7 1135.6,2749.9 1135.5,2754.5 1136.6,2759 1138.8,2763.3 1142.1,2767.1 1146.3,2770 1151.3,2771.8 1156.7,2772.4 1162.2,2771.7 1167.5,2769.6 1172.3,2766.2 1176.2,2761.6 1179,2756.1 1180.4,2749.9 1180.2,2743.4 1178.4,2737.1 1175.1,2731.1 1170.4,2726.1 1164.4,2722.3 1157.6,2720 1150.2,2719.3 1142.8,2720.5 1135.7,2723.5 1129.5,2728.2 1124.4,2734.4 1121,2741.8 1119.4,2749.9" fill="none" stroke="#d8b45a" stroke-width="8.6" stroke-linecap="round" stroke-linejoin="round"/><polyline points="1247.8,2749.9 1247.3,2750.6 1247,2751.5 1247,2752.5 1247.3,2753.7 1248.1,2754.8 1249.2,2755.7 1250.7,2756.3 1252.4,2756.5 1254.3,2756.3 1256.1,2755.4 1257.8,2754.1 1259.2,2752.2 1260.1,2749.9 1260.4,2747.3 1260.1,2744.6 1259,2741.9 1257.1,2739.5 1254.6,2737.5 1251.6,2736.1 1248.2,2735.5 1244.5,2735.7 1240.9,2736.9 1237.6,2739 1234.8,2742 1232.7,2745.7 1231.6,2749.9 1231.5,2754.5 1232.6,2759 1234.8,2763.3 1238.1,2767.1 1242.3,2770 1247.3,2771.8 1252.7,2772.4 1258.2,2771.7 1263.5,2769.6 1268.3,2766.2 1272.2,2761.6 1275,2756.1 1276.4,2749.9 1276.2,2743.4 1274.4,2737.1 1271.1,2731.1 1266.4,2726.1 1260.4,2722.3 1253.6,2720 1246.2,2719.3 1238.8,2720.5 1231.7,2723.5 1225.5,2728.2 1220.4,2734.4 1217,2741.8 1215.4,2749.9" fill="none" stroke="#d8b45a" stroke-width="8.6" stroke-linecap="round" stroke-linejoin="round"/><polyline points="1343.8,2749.9 1343.3,2750.6 1343,2751.5 1343,2752.5 1343.3,2753.7 1344.1,2754.8 1345.2,2755.7 1346.7,2756.3 1348.4,2756.5 1350.3,2756.3 1352.1,2755.4 1353.8,2754.1 1355.2,2752.2 1356.1,2749.9 1356.4,2747.3 1356.1,2744.6 1355,2741.9 1353.1,2739.5 1350.6,2737.5 1347.6,2736.1 1344.2,2735.5 1340.5,2735.7 1336.9,2736.9 1333.6,2739 1330.8,2742 1328.7,2745.7 1327.6,2749.9 1327.5,2754.5 1328.6,2759 1330.8,2763.3 1334.1,2767.1 1338.3,2770 1343.3,2771.8 1348.7,2772.4 1354.2,2771.7 1359.5,2769.6 1364.3,2766.2 1368.2,2761.6 1371,2756.1 1372.4,2749.9 1372.2,2743.4 1370.4,2737.1 1367.1,2731.1 1362.4,2726.1 1356.4,2722.3 1349.6,2720 1342.2,2719.3 1334.8,2720.5 1327.7,2723.5 1321.5,2728.2 1316.4,2734.4 1313,2741.8 1311.4,2749.9" fill="none" stroke="#d8b45a" stroke-width="8.6" stroke-linecap="round" stroke-linejoin="round"/><polyline points="1439.8,2749.9 1439.3,2750.6 1439,2751.5 1439,2752.5 1439.3,2753.7 1440.1,2754.8 1441.2,2755.7 1442.7,2756.3 1444.4,2756.5 1446.3,2756.3 1448.1,2755.4 1449.8,2754.1 1451.2,2752.2 1452.1,2749.9 1452.4,2747.3 1452.1,2744.6 1451,2741.9 1449.1,2739.5 1446.6,2737.5 1443.6,2736.1 1440.2,2735.5 1436.5,2735.7 1432.9,2736.9 1429.6,2739 1426.8,2742 1424.7,2745.7 1423.6,2749.9 1423.5,2754.5 1424.6,2759 1426.8,2763.3 1430.1,2767.1 1434.3,2770 1439.3,2771.8 1444.7,2772.4 1450.2,2771.7 1455.5,2769.6 1460.3,2766.2 1464.2,2761.6 1467,2756.1 1468.4,2749.9 1468.2,2743.4 1466.4,2737.1 1463.1,2731.1 1458.4,2726.1 1452.4,2722.3 1445.6,2720 1438.2,2719.3 1430.8,2720.5 1423.7,2723.5 1417.5,2728.2 1412.4,2734.4 1409,2741.8 1407.4,2749.9" fill="none" stroke="#d8b45a" stroke-width="8.6" stroke-linecap="round" stroke-linejoin="round"/><polyline points="1535.8,2749.9 1535.3,2750.6 1535,2751.5 1535,2752.5 1535.3,2753.7 1536.1,2754.8 1537.2,2755.7 1538.7,2756.3 1540.4,2756.5 1542.3,2756.3 1544.1,2755.4 1545.8,2754.1 1547.2,2752.2 1548.1,2749.9 1548.4,2747.3 1548.1,2744.6 1547,2741.9 1545.1,2739.5 1542.6,2737.5 1539.6,2736.1 1536.2,2735.5 1532.5,2735.7 1528.9,2736.9 1525.6,2739 1522.8,2742 1520.7,2745.7 1519.6,2749.9 1519.5,2754.5 1520.6,2759 1522.8,2763.3 1526.1,2767.1 1530.3,2770 1535.3,2771.8 1540.7,2772.4 1546.2,2771.7 1551.5,2769.6 1556.3,2766.2 1560.2,2761.6 1563,2756.1 1564.4,2749.9 1564.2,2743.4 1562.4,2737.1 1559.1,2731.1 1554.4,2726.1 1548.4,2722.3 1541.6,2720 1534.2,2719.3 1526.8,2720.5 1519.7,2723.5 1513.5,2728.2 1508.4,2734.4 1505,2741.8 1503.4,2749.9" fill="none" stroke="#d8b45a" stroke-width="8.6" stroke-linecap="round" stroke-linejoin="round"/><polyline points="1631.8,2749.9 1631.3,2750.6 1631,2751.5 1631,2752.5 1631.3,2753.7 1632.1,2754.8 1633.2,2755.7 1634.7,2756.3 1636.4,2756.5 1638.3,2756.3 1640.1,2755.4 1641.8,2754.1 1643.2,2752.2 1644.1,2749.9 1644.4,2747.3 1644.1,2744.6 1643,2741.9 1641.1,2739.5 1638.6,2737.5 1635.6,2736.1 1632.2,2735.5 1628.5,2735.7 1624.9,2736.9 1621.6,2739 1618.8,2742 1616.7,2745.7 1615.6,2749.9 1615.5,2754.5 1616.6,2759 1618.8,2763.3 1622.1,2767.1 1626.3,2770 1631.3,2771.8 1636.7,2772.4 1642.2,2771.7 1647.5,2769.6 1652.3,2766.2 1656.2,2761.6 1659,2756.1 1660.4,2749.9 1660.2,2743.4 1658.4,2737.1 1655.1,2731.1 1650.4,2726.1 1644.4,2722.3 1637.6,2720 1630.2,2719.3 1622.8,2720.5 1615.7,2723.5 1609.5,2728.2 1604.4,2734.4 1601,2741.8 1599.4,2749.9" fill="none" stroke="#d8b45a" stroke-width="8.6" stroke-linecap="round" stroke-linejoin="round"/><polyline points="1727.8,2749.9 1727.3,2750.6 1727,2751.5 1727,2752.5 1727.3,2753.7 1728.1,2754.8 1729.2,2755.7 1730.7,2756.3 1732.4,2756.5 1734.3,2756.3 1736.1,2755.4 1737.8,2754.1 1739.2,2752.2 1740.1,2749.9 1740.4,2747.3 1740.1,2744.6 1739,2741.9 1737.1,2739.5 1734.6,2737.5 1731.6,2736.1 1728.2,2735.5 1724.5,2735.7 1720.9,2736.9 1717.6,2739 1714.8,2742 1712.7,2745.7 1711.6,2749.9 1711.5,2754.5 1712.6,2759 1714.8,2763.3 1718.1,2767.1 1722.3,2770 1727.3,2771.8 1732.7,2772.4 1738.2,2771.7 1743.5,2769.6 1748.3,2766.2 1752.2,2761.6 1755,2756.1 1756.4,2749.9 1756.2,2743.4 1754.4,2737.1 1751.1,2731.1 1746.4,2726.1 1740.4,2722.3 1733.6,2720 1726.2,2719.3 1718.8,2720.5 1711.7,2723.5 1705.5,2728.2 1700.4,2734.4 1697,2741.8 1695.4,2749.9" fill="none" stroke="#d8b45a" stroke-width="8.6" stroke-linecap="round" stroke-linejoin="round"/><polyline points="1823.8,2749.9 1823.3,2750.6 1823,2751.5 1823,2752.5 1823.3,2753.7 1824.1,2754.8 1825.2,2755.7 1826.7,2756.3 1828.4,2756.5 1830.3,2756.3 1832.1,2755.4 1833.8,2754.1 1835.2,2752.2 1836.1,2749.9 1836.4,2747.3 1836.1,2744.6 1835,2741.9 1833.1,2739.5 1830.6,2737.5 1827.6,2736.1 1824.2,2735.5 1820.5,2735.7 1816.9,2736.9 1813.6,2739 1810.8,2742 1808.7,2745.7 1807.6,2749.9 1807.5,2754.5 1808.6,2759 1810.8,2763.3 1814.1,2767.1 1818.3,2770 1823.3,2771.8 1828.7,2772.4 1834.2,2771.7 1839.5,2769.6 1844.3,2766.2 1848.2,2761.6 1851,2756.1 1852.4,2749.9 1852.2,2743.4 1850.4,2737.1 1847.1,2731.1 1842.4,2726.1 1836.4,2722.3 1829.6,2720 1822.2,2719.3 1814.8,2720.5 1807.7,2723.5 1801.5,2728.2 1796.4,2734.4 1793,2741.8 1791.4,2749.9" fill="none" stroke="#d8b45a" stroke-width="8.6" stroke-linecap="round" stroke-linejoin="round"/><polyline points="1919.8,2749.9 1919.3,2750.6 1919,2751.5 1919,2752.5 1919.3,2753.7 1920.1,2754.8 1921.2,2755.7 1922.7,2756.3 1924.4,2756.5 1926.3,2756.3 1928.1,2755.4 1929.8,2754.1 1931.2,2752.2 1932.1,2749.9 1932.4,2747.3 1932.1,2744.6 1931,2741.9 1929.1,2739.5 1926.6,2737.5 1923.6,2736.1 1920.2,2735.5 1916.5,2735.7 1912.9,2736.9 1909.6,2739 1906.8,2742 1904.7,2745.7 1903.6,2749.9 1903.5,2754.5 1904.6,2759 1906.8,2763.3 1910.1,2767.1 1914.3,2770 1919.3,2771.8 1924.7,2772.4 1930.2,2771.7 1935.5,2769.6 1940.3,2766.2 1944.2,2761.6 1947,2756.1 1948.4,2749.9 1948.2,2743.4 1946.4,2737.1 1943.1,2731.1 1938.4,2726.1 1932.4,2722.3 1925.6,2720 1918.2,2719.3 1910.8,2720.5 1903.7,2723.5 1897.5,2728.2 1892.4,2734.4 1889,2741.8 1887.4,2749.9" fill="none" stroke="#d8b45a" stroke-width="8.6" stroke-linecap="round" stroke-linejoin="round"/><polyline points="2015.8,2749.9 2015.3,2750.6 2015,2751.5 2015,2752.5 2015.3,2753.7 2016.1,2754.8 2017.2,2755.7 2018.7,2756.3 2020.4,2756.5 2022.3,2756.3 2024.1,2755.4 2025.8,2754.1 2027.2,2752.2 2028.1,2749.9 2028.4,2747.3 2028.1,2744.6 2027,2741.9 2025.1,2739.5 2022.6,2737.5 2019.6,2736.1 2016.2,2735.5 2012.5,2735.7 2008.9,2736.9 2005.6,2739 2002.8,2742 2000.7,2745.7 1999.6,2749.9 1999.5,2754.5 2000.6,2759 2002.8,2763.3 2006.1,2767.1 2010.3,2770 2015.3,2771.8 2020.7,2772.4 2026.2,2771.7 2031.5,2769.6 2036.3,2766.2 2040.2,2761.6 2043,2756.1 2044.4,2749.9 2044.2,2743.4 2042.4,2737.1 2039.1,2731.1 2034.4,2726.1 2028.4,2722.3 2021.6,2720 2014.2,2719.3 2006.8,2720.5 1999.7,2723.5 1993.5,2728.2 1988.4,2734.4 1985,2741.8 1983.4,2749.9" fill="none" stroke="#d8b45a" stroke-width="8.6" stroke-linecap="round" stroke-linejoin="round"/><polyline points="2111.8,2749.9 2111.3,2750.6 2111,2751.5 2111,2752.5 2111.3,2753.7 2112.1,2754.8 2113.2,2755.7 2114.7,2756.3 2116.4,2756.5 2118.3,2756.3 2120.1,2755.4 2121.8,2754.1 2123.2,2752.2 2124.1,2749.9 2124.4,2747.3 2124.1,2744.6 2123,2741.9 2121.1,2739.5 2118.6,2737.5 2115.6,2736.1 2112.2,2735.5 2108.5,2735.7 2104.9,2736.9 2101.6,2739 2098.8,2742 2096.7,2745.7 2095.6,2749.9 2095.5,2754.5 2096.6,2759 2098.8,2763.3 2102.1,2767.1 2106.3,2770 2111.3,2771.8 2116.7,2772.4 2122.2,2771.7 2127.5,2769.6 2132.3,2766.2 2136.2,2761.6 2139,2756.1 2140.4,2749.9 2140.2,2743.4 2138.4,2737.1 2135.1,2731.1 2130.4,2726.1 2124.4,2722.3 2117.6,2720 2110.2,2719.3 2102.8,2720.5 2095.7,2723.5 2089.5,2728.2 2084.4,2734.4 2081,2741.8 2079.4,2749.9" fill="none" stroke="#d8b45a" stroke-width="8.6" stroke-linecap="round" stroke-linejoin="round"/><rect x="640" y="2560" width="1120" height="34" fill="#d8b45a"/><rect x="540" y="2594" width="1320" height="26" fill="#d8b45a" opacity="0.75"/><path d="M1095.4,716.5 C835.4,656.5 634.3,1212.4 804.3,1372.4" fill="none" stroke="#d8b45a" stroke-width="52" stroke-linecap="round"/><path d="M1304.6,716.5 C1564.6,656.5 1765.7,1212.4 1595.7,1372.4" fill="none" stroke="#d8b45a" stroke-width="52" stroke-linecap="round"/><path d="M1095.4,616.5 C1055.4,1016.5 717.4,1213.2 717.4,1671.7 C717.4,2033.6 1045.6,2210 1075.6,2470 L988.5,2530 L988.5,2560 L1411.5,2560 L1411.5,2530 L1324.4,2470 C1354.4,2210 1682.6,2033.6 1682.6,1671.7 C1682.6,1213.2 1344.6,1016.5 1304.6,616.5 Z" fill="#d8b45a"/><rect x="1025.8" y="546.5" width="348.5" height="72" rx="22" fill="#d8b45a"/><clipPath id="a3-vase"><path d="M1095.4,616.5 C1055.4,1016.5 717.4,1213.2 717.4,1671.7 C717.4,2033.6 1045.6,2210 1075.6,2470 L988.5,2530 L988.5,2560 L1411.5,2560 L1411.5,2530 L1324.4,2470 C1354.4,2210 1682.6,2033.6 1682.6,1671.7 C1682.6,1213.2 1344.6,1016.5 1304.6,616.5 Z"/></clipPath><g clip-path="url(#a3-vase)"><path d="M747.4,1457.1 L 824.6,1457.1 L 824.6,1379.8 L 763.9,1379.8 L 763.9,1427.6 L 795.2,1427.6 L 795.2,1403.7 M839.4,1457.1 L 916.6,1457.1 L 916.6,1379.8 L 855.9,1379.8 L 855.9,1427.6 L 887.2,1427.6 L 887.2,1403.7 M931.4,1457.1 L 1008.6,1457.1 L 1008.6,1379.8 L 947.9,1379.8 L 947.9,1427.6 L 979.2,1427.6 L 979.2,1403.7 M1023.4,1457.1 L 1100.6,1457.1 L 1100.6,1379.8 L 1039.9,1379.8 L 1039.9,1427.6 L 1071.2,1427.6 L 1071.2,1403.7 M1115.4,1457.1 L 1192.6,1457.1 L 1192.6,1379.8 L 1131.9,1379.8 L 1131.9,1427.6 L 1163.2,1427.6 L 1163.2,1403.7 M1207.4,1457.1 L 1284.6,1457.1 L 1284.6,1379.8 L 1223.9,1379.8 L 1223.9,1427.6 L 1255.2,1427.6 L 1255.2,1403.7 M1299.4,1457.1 L 1376.6,1457.1 L 1376.6,1379.8 L 1315.9,1379.8 L 1315.9,1427.6 L 1347.2,1427.6 L 1347.2,1403.7 M1391.4,1457.1 L 1468.6,1457.1 L 1468.6,1379.8 L 1407.9,1379.8 L 1407.9,1427.6 L 1439.2,1427.6 L 1439.2,1403.7 M1483.4,1457.1 L 1560.6,1457.1 L 1560.6,1379.8 L 1499.9,1379.8 L 1499.9,1427.6 L 1531.2,1427.6 L 1531.2,1403.7 M1575.4,1457.1 L 1652.6,1457.1 L 1652.6,1379.8 L 1591.9,1379.8 L 1591.9,1427.6 L 1623.2,1427.6 L 1623.2,1403.7 " fill="none" stroke="#16324f" stroke-width="12"/><line x1="717.4" y1="1502.4" x2="1682.6" y2="1502.4" stroke="#16324f" stroke-width="10"/><line x1="717.3840531450696" y1="1821.7" x2="1682.6159468549304" y2="1821.7" stroke="#16324f" stroke-width="8.8"/><polyline points="814.8,1768.9 814.2,1769.6 813.8,1770.6 813.8,1771.9 814.2,1773.2 815.1,1774.4 816.4,1775.5 818.1,1776.2 820.1,1776.4 822.2,1776.1 824.3,1775.2 826.3,1773.6 827.8,1771.5 828.9,1768.9 829.2,1765.9 828.8,1762.8 827.6,1759.7 825.5,1756.9 822.6,1754.6 819.1,1753 815.2,1752.3 811,1752.6 806.9,1753.9 803.1,1756.4 799.9,1759.8 797.5,1764 796.2,1768.9 796.1,1774 797.3,1779.3 799.9,1784.2 803.7,1788.5 808.5,1791.8 814.2,1794 820.3,1794.7 826.7,1793.8 832.8,1791.4 838.3,1787.5 842.8,1782.3 845.9,1775.9 847.5,1768.9 847.3,1761.4 845.3,1754.1 841.5,1747.3 836,1741.6 829.2,1737.2 821.4,1734.5 812.9,1733.8 804.4,1735.2 796.3,1738.6 789.2,1744 783.4,1751.1 779.4,1759.5 777.6,1768.9" fill="none" stroke="#16324f" stroke-width="9.9" stroke-linecap="round" stroke-linejoin="round"/><polyline points="924.8,1768.9 924.2,1769.6 923.8,1770.6 923.8,1771.9 924.2,1773.2 925.1,1774.4 926.4,1775.5 928.1,1776.2 930.1,1776.4 932.2,1776.1 934.3,1775.2 936.3,1773.6 937.8,1771.5 938.9,1768.9 939.2,1765.9 938.8,1762.8 937.6,1759.7 935.5,1756.9 932.6,1754.6 929.1,1753 925.2,1752.3 921,1752.6 916.9,1753.9 913.1,1756.4 909.9,1759.8 907.5,1764 906.2,1768.9 906.1,1774 907.3,1779.3 909.9,1784.2 913.7,1788.5 918.5,1791.8 924.2,1794 930.3,1794.7 936.7,1793.8 942.8,1791.4 948.3,1787.5 952.8,1782.3 955.9,1775.9 957.5,1768.9 957.3,1761.4 955.3,1754.1 951.5,1747.3 946,1741.6 939.2,1737.2 931.4,1734.5 922.9,1733.8 914.4,1735.2 906.3,1738.6 899.2,1744 893.4,1751.1 889.4,1759.5 887.6,1768.9" fill="none" stroke="#16324f" stroke-width="9.9" stroke-linecap="round" stroke-linejoin="round"/><polyline points="1034.8,1768.9 1034.2,1769.6 1033.8,1770.6 1033.8,1771.9 1034.2,1773.2 1035.1,1774.4 1036.4,1775.5 1038.1,1776.2 1040.1,1776.4 1042.2,1776.1 1044.3,1775.2 1046.3,1773.6 1047.8,1771.5 1048.9,1768.9 1049.2,1765.9 1048.8,1762.8 1047.6,1759.7 1045.5,1756.9 1042.6,1754.6 1039.1,1753 1035.2,1752.3 1031,1752.6 1026.9,1753.9 1023.1,1756.4 1019.9,1759.8 1017.5,1764 1016.2,1768.9 1016.1,1774 1017.3,1779.3 1019.9,1784.2 1023.7,1788.5 1028.5,1791.8 1034.2,1794 1040.3,1794.7 1046.7,1793.8 1052.8,1791.4 1058.3,1787.5 1062.8,1782.3 1065.9,1775.9 1067.5,1768.9 1067.3,1761.4 1065.3,1754.1 1061.5,1747.3 1056,1741.6 1049.2,1737.2 1041.4,1734.5 1032.9,1733.8 1024.4,1735.2 1016.3,1738.6 1009.2,1744 1003.4,1751.1 999.4,1759.5 997.6,1768.9" fill="none" stroke="#16324f" stroke-width="9.9" stroke-linecap="round" stroke-linejoin="round"/><polyline points="1144.8,1768.9 1144.2,1769.6 1143.8,1770.6 1143.8,1771.9 1144.2,1773.2 1145.1,1774.4 1146.4,1775.5 1148.1,1776.2 1150.1,1776.4 1152.2,1776.1 1154.3,1775.2 1156.3,1773.6 1157.8,1771.5 1158.9,1768.9 1159.2,1765.9 1158.8,1762.8 1157.6,1759.7 1155.5,1756.9 1152.6,1754.6 1149.1,1753 1145.2,1752.3 1141,1752.6 1136.9,1753.9 1133.1,1756.4 1129.9,1759.8 1127.5,1764 1126.2,1768.9 1126.1,1774 1127.3,1779.3 1129.9,1784.2 1133.7,1788.5 1138.5,1791.8 1144.2,1794 1150.3,1794.7 1156.7,1793.8 1162.8,1791.4 1168.3,1787.5 1172.8,1782.3 1175.9,1775.9 1177.5,1768.9 1177.3,1761.4 1175.3,1754.1 1171.5,1747.3 1166,1741.6 1159.2,1737.2 1151.4,1734.5 1142.9,1733.8 1134.4,1735.2 1126.3,1738.6 1119.2,1744 1113.4,1751.1 1109.4,1759.5 1107.6,1768.9" fill="none" stroke="#16324f" stroke-width="9.9" stroke-linecap="round" stroke-linejoin="round"/><polyline points="1254.8,1768.9 1254.2,1769.6 1253.8,1770.6 1253.8,1771.9 1254.2,1773.2 1255.1,1774.4 1256.4,1775.5 1258.1,1776.2 1260.1,1776.4 1262.2,1776.1 1264.3,1775.2 1266.3,1773.6 1267.8,1771.5 1268.9,1768.9 1269.2,1765.9 1268.8,1762.8 1267.6,1759.7 1265.5,1756.9 1262.6,1754.6 1259.1,1753 1255.2,1752.3 1251,1752.6 1246.9,1753.9 1243.1,1756.4 1239.9,1759.8 1237.5,1764 1236.2,1768.9 1236.1,1774 1237.3,1779.3 1239.9,1784.2 1243.7,1788.5 1248.5,1791.8 1254.2,1794 1260.3,1794.7 1266.7,1793.8 1272.8,1791.4 1278.3,1787.5 1282.8,1782.3 1285.9,1775.9 1287.5,1768.9 1287.3,1761.4 1285.3,1754.1 1281.5,1747.3 1276,1741.6 1269.2,1737.2 1261.4,1734.5 1252.9,1733.8 1244.4,1735.2 1236.3,1738.6 1229.2,1744 1223.4,1751.1 1219.4,1759.5 1217.6,1768.9" fill="none" stroke="#16324f" stroke-width="9.9" stroke-linecap="round" stroke-linejoin="round"/><polyline points="1364.8,1768.9 1364.2,1769.6 1363.8,1770.6 1363.8,1771.9 1364.2,1773.2 1365.1,1774.4 1366.4,1775.5 1368.1,1776.2 1370.1,1776.4 1372.2,1776.1 1374.3,1775.2 1376.3,1773.6 1377.8,1771.5 1378.9,1768.9 1379.2,1765.9 1378.8,1762.8 1377.6,1759.7 1375.5,1756.9 1372.6,1754.6 1369.1,1753 1365.2,1752.3 1361,1752.6 1356.9,1753.9 1353.1,1756.4 1349.9,1759.8 1347.5,1764 1346.2,1768.9 1346.1,1774 1347.3,1779.3 1349.9,1784.2 1353.7,1788.5 1358.5,1791.8 1364.2,1794 1370.3,1794.7 1376.7,1793.8 1382.8,1791.4 1388.3,1787.5 1392.8,1782.3 1395.9,1775.9 1397.5,1768.9 1397.3,1761.4 1395.3,1754.1 1391.5,1747.3 1386,1741.6 1379.2,1737.2 1371.4,1734.5 1362.9,1733.8 1354.4,1735.2 1346.3,1738.6 1339.2,1744 1333.4,1751.1 1329.4,1759.5 1327.6,1768.9" fill="none" stroke="#16324f" stroke-width="9.9" stroke-linecap="round" stroke-linejoin="round"/><polyline points="1474.8,1768.9 1474.2,1769.6 1473.8,1770.6 1473.8,1771.9 1474.2,1773.2 1475.1,1774.4 1476.4,1775.5 1478.1,1776.2 1480.1,1776.4 1482.2,1776.1 1484.3,1775.2 1486.3,1773.6 1487.8,1771.5 1488.9,1768.9 1489.2,1765.9 1488.8,1762.8 1487.6,1759.7 1485.5,1756.9 1482.6,1754.6 1479.1,1753 1475.2,1752.3 1471,1752.6 1466.9,1753.9 1463.1,1756.4 1459.9,1759.8 1457.5,1764 1456.2,1768.9 1456.1,1774 1457.3,1779.3 1459.9,1784.2 1463.7,1788.5 1468.5,1791.8 1474.2,1794 1480.3,1794.7 1486.7,1793.8 1492.8,1791.4 1498.3,1787.5 1502.8,1782.3 1505.9,1775.9 1507.5,1768.9 1507.3,1761.4 1505.3,1754.1 1501.5,1747.3 1496,1741.6 1489.2,1737.2 1481.4,1734.5 1472.9,1733.8 1464.4,1735.2 1456.3,1738.6 1449.2,1744 1443.4,1751.1 1439.4,1759.5 1437.6,1768.9" fill="none" stroke="#16324f" stroke-width="9.9" stroke-linecap="round" stroke-linejoin="round"/><polyline points="1584.8,1768.9 1584.2,1769.6 1583.8,1770.6 1583.8,1771.9 1584.2,1773.2 1585.1,1774.4 1586.4,1775.5 1588.1,1776.2 1590.1,1776.4 1592.2,1776.1 1594.3,1775.2 1596.3,1773.6 1597.8,1771.5 1598.9,1768.9 1599.2,1765.9 1598.8,1762.8 1597.6,1759.7 1595.5,1756.9 1592.6,1754.6 1589.1,1753 1585.2,1752.3 1581,1752.6 1576.9,1753.9 1573.1,1756.4 1569.9,1759.8 1567.5,1764 1566.2,1768.9 1566.1,1774 1567.3,1779.3 1569.9,1784.2 1573.7,1788.5 1578.5,1791.8 1584.2,1794 1590.3,1794.7 1596.7,1793.8 1602.8,1791.4 1608.3,1787.5 1612.8,1782.3 1615.9,1775.9 1617.5,1768.9 1617.3,1761.4 1615.3,1754.1 1611.5,1747.3 1606,1741.6 1599.2,1737.2 1591.4,1734.5 1582.9,1733.8 1574.4,1735.2 1566.3,1738.6 1559.2,1744 1553.4,1751.1 1549.4,1759.5 1547.6,1768.9" fill="none" stroke="#16324f" stroke-width="9.9" stroke-linecap="round" stroke-linejoin="round"/><line x1="717.4" y1="1881.7" x2="1682.6" y2="1881.7" stroke="#16324f" stroke-width="10"/><path d="M727.5,2290 L795,2140 L862.5,2290 Z M862.5,2290 L930,2140 L997.5,2290 Z M997.5,2290 L1065,2140 L1132.5,2290 Z M1132.5,2290 L1200,2140 L1267.5,2290 Z M1267.5,2290 L1335,2140 L1402.5,2290 Z M1402.5,2290 L1470,2140 L1537.5,2290 Z M1537.5,2290 L1605,2140 L1672.5,2290 Z " fill="#16324f"/><polyline points="1109.4,810.5 1169.8,756.5 1230.2,810.5 1290.6,756.5 " fill="none" stroke="#16324f" stroke-width="9.7" stroke-linejoin="miter"/></g><rect x="100" y="100" width="2200" height="2800" fill="none" stroke="#d8b45a" stroke-width="9"/><rect x="142" y="142" width="2116" height="2716" fill="none" stroke="#d8b45a" stroke-width="3" opacity="0.65"/></svg></svg>