<svg xmlns="http://www.w3.org/2000/svg" width="2400" height="1800" viewBox="0 0 2400 1800"><rect width="2400" height="1800" fill="#e8e2d6"/><rect y="1420" width="2400" height="380" fill="#cbb597"/><ellipse cx="1200" cy="1640" rx="760" ry="130" fill="#e0a077" opacity="0.55"/><ellipse cx="1200" cy="1640" rx="600" ry="96" fill="none" stroke="#8a4423" stroke-width="10" opacity="0.5"/><rect x="700" y="1120" width="1000" height="300" rx="40" fill="#97a08c"/><rect x="640" y="1060" width="120" height="380" rx="40" fill="#87907c"/><rect x="1640" y="1060" width="120" height="380" rx="40" fill="#87907c"/><rect x="740" y="1010" width="920" height="180" rx="36" fill="#a3ac97"/><rect x="800" y="1060" width="240" height="160" rx="30" fill="#8a4423"/><rect x="1380" y="1060" width="240" height="160" rx="30" fill="#e0a077"/><rect x="700" y="1420" width="26" height="120" fill="#6f6353"/><rect x="1674" y="1420" width="26" height="120" fill="#6f6353"/><path d="M360,1520 Q330,820 800,880" fill="none" stroke="#4c4438" stroke-width="16"/><path d="M760,870 L840,880 L810,960 L770,955 Z" fill="#4c4438"/><rect x="300" y="1510" width="130" height="20" rx="10" fill="#4c4438"/><path d="M2080,1500 Q 1918,1243.5 1837,1311" fill="none" stroke="#5d7052" stroke-width="21.6" stroke-linecap="round"/><path d="M2080,1500 Q 1972,1243.5 1918,1257" fill="none" stroke="#5d7052" stroke-width="21.6" stroke-linecap="round"/><path d="M2080,1500 Q 2026,1243.5 1999,1203" fill="none" stroke="#5d7052" stroke-width="21.6" stroke-linecap="round"/><path d="M2080,1500 Q 2080,1243.5 2080,1149" fill="none" stroke="#5d7052" stroke-width="21.6" stroke-linecap="round"/><path d="M2080,1500 Q 2134,1243.5 2161,1203" fill="none" stroke="#5d7052" stroke-width="21.6" stroke-linecap="round"/><path d="M2080,1500 Q 2188,1243.5 2242,1257" fill="none" stroke="#5d7052" stroke-width="21.6" stroke-linecap="round"/><path d="M2080,1500 Q 2242,1243.5 2323,1311" fill="none" stroke="#5d7052" stroke-width="21.6" stroke-linecap="round"/><path d="M1985.5,1500 L2174.5,1500 L2150.2,1648.5 L2009.8,1648.5 Z" fill="#a9714d"/><defs><filter id="a24l-sh" x="-30%" y="-30%" width="160%" height="160%"><feGaussianBlur stdDeviation="16"/></filter></defs><rect x="939" y="217" width="550" height="675" fill="#000" opacity="0.28" filter="url(#a24l-sh)"/><rect x="925" y="195" width="550" height="675" fill="#2e2823"/><rect x="941.3" y="211.3" width="517.5" height="642.5" fill="none" stroke="#00000055" stroke-width="3"/><rect x="950" y="220" width="500" height="625" fill="#f6f2ea"/><svg x="987.5" y="257.5" width="425" height="550" viewBox="0 0 2400 3000" preserveAspectRatio="xMidYMid slice"><rect width="2400" height="3000" fill="#c8703f"/><radialGradient id="a24-vig" cx="50%" cy="42%" r="80%"><stop offset="55%" stop-color="#000" stop-opacity="0"/><stop offset="100%" stop-color="#000" stop-opacity="0.15"/></radialGradient><rect width="2400" height="3000" fill="url(#a24-vig)"/><circle cx="491.8" cy="510.2" r="4.3" fill="#26160e" opacity="0.061"/><circle cx="1610.4" cy="2565.8" r="2.8" fill="#26160e" opacity="0.054"/><circle cx="1263.1" cy="2065.2" r="2.5" fill="#26160e" opacity="0.062"/><circle cx="1369.2" cy="2461.9" r="3.8" fill="#26160e" opacity="0.039"/><circle cx="1597.5" cy="1024.3" r="3.9" fill="#26160e" opacity="0.074"/><circle cx="1495.6" cy="496.3" r="1.9" fill="#26160e" opacity="0.041"/><circle cx="419.1" cy="562.5" r="2.5" fill="#26160e" opacity="0.060"/><circle cx="1572.8" cy="116.4" r="4.5" fill="#26160e" opacity="0.046"/><circle cx="1401.5" cy="1450.7" r="3.6" fill="#26160e" opacity="0.066"/><circle cx="1773.6" cy="1119.9" r="2.1" fill="#26160e" opacity="0.063"/><circle cx="355.3" cy="495.6" r="3.8" fill="#26160e" opacity="0.032"/><circle cx="884.6" cy="1808.3" r="3.9" fill="#26160e" opacity="0.057"/><circle cx="853.8" cy="781.8" r="3.3" fill="#26160e" opacity="0.077"/><circle cx="435.5" cy="938.4" r="1.7" fill="#26160e" opacity="0.048"/><circle cx="1571.6" cy="1652.4" r="2.4" fill="#26160e" opacity="0.036"/><circle cx="825.2" cy="222" r="3.6" fill="#26160e" opacity="0.060"/><circle cx="1575.9" cy="2868.3" r="3.2" fill="#26160e" opacity="0.079"/><circle cx="1433.9" cy="2865.3" r="4.2" fill="#26160e" opacity="0.059"/><circle cx="506.7" cy="2548.2" r="4" fill="#26160e" opacity="0.063"/><circle cx="2097.9" cy="2845.3" r="2.1" fill="#26160e" opacity="0.043"/><circle cx="457.3" cy="2512.1" r="2.9" fill="#26160e" opacity="0.073"/><circle cx="2034.5" cy="980.9" r="2.5" fill="#26160e" opacity="0.079"/><circle cx="2064.5" cy="876.5" r="3.3" fill="#26160e" opacity="0.071"/><circle cx="1024.3" cy="1617.4" r="3.7" fill="#26160e" opacity="0.052"/><circle cx="559.8" cy="2490.1" r="2.2" fill="#26160e" opacity="0.044"/><circle cx="465.3" cy="242.3" r="3.6" fill="#26160e" opacity="0.072"/><circle cx="140.3" cy="1118.6" r="4.2" fill="#26160e" opacity="0.055"/><circle cx="2142.5" cy="1499.2" r="3.8" fill="#26160e" opacity="0.034"/><circle cx="1537.6" cy="2756.5" r="4.3" fill="#26160e" opacity="0.053"/><circle cx="1014.6" cy="2733.4" r="4.3" fill="#26160e" opacity="0.043"/><circle cx="358.8" cy="1732.4" r="1.7" fill="#26160e" opacity="0.076"/><circle cx="265.2" cy="2750.7" r="2.8" fill="#26160e" opacity="0.050"/><circle cx="889.4" cy="2516.9" r="4.1" fill="#26160e" opacity="0.065"/><circle cx="2114" cy="2430.6" r="3.1" fill="#26160e" opacity="0.030"/><circle cx="1937.6" cy="1001.3" r="4.3" fill="#26160e" opacity="0.070"/><circle cx="1112.3" cy="1375" r="3" fill="#26160e" opacity="0.040"/><circle cx="1621.1" cy="2881.4" r="2" fill="#26160e" opacity="0.033"/><circle cx="1575" cy="2457.8" r="3.4" fill="#26160e" opacity="0.049"/><circle cx="677.3" cy="1436.9" r="3.9" fill="#26160e" opacity="0.033"/><circle cx="368.8" cy="1943.5" r="4.1" fill="#26160e" opacity="0.051"/><circle cx="1961.4" cy="2561.1" r="4.2" fill="#26160e" opacity="0.042"/><circle cx="1828.3" cy="1753.1" r="3" fill="#26160e" opacity="0.056"/><circle cx="630.9" cy="1614.6" r="3" fill="#26160e" opacity="0.055"/><circle cx="249.1" cy="150.7" r="2.2" fill="#26160e" opacity="0.054"/><circle cx="707.9" cy="991" r="4.5" fill="#26160e" opacity="0.068"/><circle cx="1936.8" cy="1816.4" r="4.4" fill="#26160e" opacity="0.078"/><circle cx="344.9" cy="2773" r="2.3" fill="#26160e" opacity="0.068"/><circle cx="586" cy="1314.3" r="3.6" fill="#26160e" opacity="0.079"/><circle cx="1602.1" cy="1372.5" r="4.2" fill="#26160e" opacity="0.036"/><circle cx="565.8" cy="828.2" r="2.8" fill="#26160e" opacity="0.073"/><circle cx="2136.6" cy="507.5" r="4.5" fill="#26160e" opacity="0.045"/><circle cx="507.6" cy="357.3" r="2.4" fill="#26160e" opacity="0.044"/><circle cx="307.5" cy="2283" r="2.5" fill="#26160e" opacity="0.041"/><circle cx="471.5" cy="1562.1" r="2.9" fill="#26160e" opacity="0.043"/><circle cx="1244.6" cy="209.8" r="2.6" fill="#26160e" opacity="0.038"/><circle cx="1869.5" cy="2870.4" r="3.6" fill="#26160e" opacity="0.032"/><circle cx="256.9" cy="938.6" r="4" fill="#26160e" opacity="0.070"/><circle cx="448.1" cy="636.1" r="2.9" fill="#26160e" opacity="0.075"/><circle cx="1881.6" cy="934.3" r="1.7" fill="#26160e" opacity="0.035"/><circle cx="1052.1" cy="801.4" r="3.6" fill="#26160e" opacity="0.054"/><circle cx="1708.6" cy="2243.6" r="1.6" fill="#26160e" opacity="0.063"/><circle cx="346.2" cy="1055.6" r="3.2" fill="#26160e" opacity="0.076"/><circle cx="141.9" cy="1508" r="4.2" fill="#26160e" opacity="0.076"/><circle cx="1447.5" cy="923.7" r="4.4" fill="#26160e" opacity="0.067"/><circle cx="751.5" cy="856.8" r="2.1" fill="#26160e" opacity="0.049"/><circle cx="1739.8" cy="1768" r="4.1" fill="#26160e" opacity="0.031"/><circle cx="848.7" cy="394.8" r="4.3" fill="#26160e" opacity="0.039"/><circle cx="99.1" cy="1090.2" r="2.9" fill="#26160e" opacity="0.052"/><circle cx="331.7" cy="1496.4" r="3.3" fill="#26160e" opacity="0.061"/><circle cx="2094.5" cy="2375" r="2.2" fill="#26160e" opacity="0.069"/><circle cx="1148.9" cy="2803.2" r="1.6" fill="#26160e" opacity="0.070"/><circle cx="456.3" cy="806.5" r="4.2" fill="#26160e" opacity="0.062"/><circle cx="675.4" cy="2706.7" r="4.3" fill="#26160e" opacity="0.050"/><circle cx="810.1" cy="725.2" r="3.7" fill="#26160e" opacity="0.080"/><circle cx="1978" cy="133.4" r="2.8" fill="#26160e" opacity="0.054"/><circle cx="218.1" cy="1350.3" r="3.8" fill="#26160e" opacity="0.060"/><circle cx="385.7" cy="528.3" r="4.1" fill="#26160e" opacity="0.068"/><circle cx="89.5" cy="593.7" r="2" fill="#26160e" opacity="0.051"/><circle cx="336.4" cy="876.9" r="1.6" fill="#26160e" opacity="0.072"/><circle cx="543.9" cy="2218.7" r="3.2" fill="#26160e" opacity="0.033"/><rect x="210" y="300" width="1980" height="8.9" fill="#26160e"/><rect x="210" y="308.4" width="1980" height="8.9" fill="#8a4423"/><rect x="210" y="316.8" width="1980" height="8.9" fill="#26160e"/><rect x="210" y="325.2" width="1980" height="8.9" fill="#e0a077"/><rect x="210" y="333.6" width="1980" height="8.9" fill="#26160e"/><rect x="210" y="885" width="1980" height="8.9" fill="#26160e"/><rect x="210" y="893.4" width="1980" height="8.9" fill="#8a4423"/><rect x="210" y="901.8" width="1980" height="8.9" fill="#26160e"/><rect x="210" y="910.2" width="1980" height="8.9" fill="#e0a077"/><rect x="210" y="918.6" width="1980" height="8.9" fill="#26160e"/><rect x="210" y="1470" width="1980" height="8.9" fill="#26160e"/><rect x="210" y="1478.4" width="1980" height="8.9" fill="#8a4423"/><rect x="210" y="1486.8" width="1980" height="8.9" fill="#26160e"/><rect x="210" y="1495.2" width="1980" height="8.9" fill="#e0a077"/><rect x="210" y="1503.6" width="1980" height="8.9" fill="#26160e"/><rect x="210" y="2055" width="1980" height="8.9" fill="#26160e"/><rect x="210" y="2063.4" width="1980" height="8.9" fill="#8a4423"/><rect x="210" y="2071.8" width="1980" height="8.9" fill="#26160e"/><rect x="210" y="2080.2" width="1980" height="8.9" fill="#e0a077"/><rect x="210" y="2088.6" width="1980" height="8.9" fill="#26160e"/><rect x="210" y="2640" width="1980" height="8.9" fill="#26160e"/><rect x="210" y="2648.4" width="1980" height="8.9" fill="#8a4423"/><rect x="210" y="2656.8" width="1980" height="8.9" fill="#26160e"/><rect x="210" y="2665.2" width="1980" height="8.9" fill="#e0a077"/><rect x="210" y="2673.6" width="1980" height="8.9" fill="#26160e"/><path d="M0 0 Q 73.3 -114 0 -300 Q -73.3 -114 0 0 Z" fill="#26160e" opacity="1" transform="translate(457.5 809.7) rotate(-58)"/><path d="M0 0 Q 73.3 -127.6 0 -335.8 Q -73.3 -127.6 0 0 Z" fill="#8a4423" opacity="1" transform="translate(457.5 809.7) rotate(-38.7)"/><path d="M0 0 Q 73.3 -141.2 0 -371.6 Q -73.3 -141.2 0 0 Z" fill="#26160e" opacity="1" transform="translate(457.5 809.7) rotate(-19.3)"/><path d="M0 0 Q 73.3 -154.8 0 -407.4 Q -73.3 -154.8 0 0 Z" fill="#8a4423" opacity="1" transform="translate(457.5 809.7) rotate(0)"/><path d="M0 0 Q 73.3 -141.2 0 -371.6 Q -73.3 -141.2 0 0 Z" fill="#26160e" opacity="1" transform="translate(457.5 809.7) rotate(19.3)"/><path d="M0 0 Q 73.3 -127.6 0 -335.8 Q -73.3 -127.6 0 0 Z" fill="#8a4423" opacity="1" transform="translate(457.5 809.7) rotate(38.7)"/><path d="M0 0 Q 73.3 -114 0 -300 Q -73.3 -114 0 0 Z" fill="#26160e" opacity="1" transform="translate(457.5 809.7) rotate(58)"/><path d="M335.3,809.7 Q457.5,948.2 579.7,809.7 Z" fill="#26160e"/><path d="M0 0 Q 63.3 -120.2 0 -316.4 Q -63.3 -120.2 0 0 Z" fill="#8a4423" opacity="1" transform="translate(952.5 809.7) rotate(0)"/><line x1="952.5" y1="809.7" x2="952.5" y2="856.5" stroke="#26160e" stroke-width="19.8"/><path d="M0 0 Q 71.6 -111.4 0 -293.1 Q -71.6 -111.4 0 0 Z" fill="#26160e" opacity="1" transform="translate(1447.5 809.7) rotate(-58)"/><path d="M0 0 Q 71.6 -124.7 0 -328 Q -71.6 -124.7 0 0 Z" fill="#8a4423" opacity="1" transform="translate(1447.5 809.7) rotate(-38.7)"/><path d="M0 0 Q 71.6 -137.9 0 -363 Q -71.6 -137.9 0 0 Z" fill="#26160e" opacity="1" transform="translate(1447.5 809.7) rotate(-19.3)"/><path d="M0 0 Q 71.6 -151.2 0 -398 Q -71.6 -151.2 0 0 Z" fill="#8a4423" opacity="1" transform="translate(1447.5 809.7) rotate(0)"/><path d="M0 0 Q 71.6 -137.9 0 -363 Q -71.6 -137.9 0 0 Z" fill="#26160e" opacity="1" transform="translate(1447.5 809.7) rotate(19.3)"/><path d="M0 0 Q 71.6 -124.7 0 -328 Q -71.6 -124.7 0 0 Z" fill="#8a4423" opacity="1" transform="translate(1447.5 809.7) rotate(38.7)"/><path d="M0 0 Q 71.6 -111.4 0 -293.1 Q -71.6 -111.4 0 0 Z" fill="#26160e" opacity="1" transform="translate(1447.5 809.7) rotate(58)"/><path d="M1328.1,809.7 Q1447.5,945 1566.9,809.7 Z" fill="#26160e"/><path d="M0 0 Q 58.9 -111.9 0 -294.5 Q -58.9 -111.9 0 0 Z" fill="#8a4423" opacity="1" transform="translate(1942.5 809.7) rotate(0)"/><line x1="1942.5" y1="809.7" x2="1942.5" y2="856.5" stroke="#26160e" stroke-width="18.4"/><line x1="457.5" y1="1394.7" x2="457.5" y2="1164.8" stroke="#26160e" stroke-width="25.1"/><line x1="457.5" y1="1164.8" x2="292.2" y2="1084.2" stroke="#26160e" stroke-width="18.8" stroke-linecap="round"/><circle cx="292.2" cy="1084.2" r="18.8" fill="#8a4423"/><line x1="457.5" y1="1164.8" x2="306.9" y2="1029.2" stroke="#26160e" stroke-width="18.8" stroke-linecap="round"/><circle cx="306.9" cy="1029.2" r="18.8" fill="#8a4423"/><line x1="457.5" y1="1164.8" x2="340.1" y2="977" stroke="#26160e" stroke-width="18.8" stroke-linecap="round"/><circle cx="340.1" cy="977" r="18.8" fill="#8a4423"/><line x1="457.5" y1="1164.8" x2="391.3" y2="933.9" stroke="#26160e" stroke-width="18.8" stroke-linecap="round"/><circle cx="391.3" cy="933.9" r="18.8" fill="#8a4423"/><line x1="457.5" y1="1164.8" x2="457.5" y2="905.7" stroke="#26160e" stroke-width="18.8" stroke-linecap="round"/><circle cx="457.5" cy="905.7" r="18.8" fill="#8a4423"/><line x1="457.5" y1="1164.8" x2="523.7" y2="933.9" stroke="#26160e" stroke-width="18.8" stroke-linecap="round"/><circle cx="523.7" cy="933.9" r="18.8" fill="#8a4423"/><line x1="457.5" y1="1164.8" x2="574.9" y2="977" stroke="#26160e" stroke-width="18.8" stroke-linecap="round"/><circle cx="574.9" cy="977" r="18.8" fill="#8a4423"/><line x1="457.5" y1="1164.8" x2="608.1" y2="1029.2" stroke="#26160e" stroke-width="18.8" stroke-linecap="round"/><circle cx="608.1" cy="1029.2" r="18.8" fill="#8a4423"/><line x1="457.5" y1="1164.8" x2="622.8" y2="1084.2" stroke="#26160e" stroke-width="18.8" stroke-linecap="round"/><circle cx="622.8" cy="1084.2" r="18.8" fill="#8a4423"/><line x1="952.5" y1="1394.7" x2="952.5" y2="1194.7" stroke="#26160e" stroke-width="21.8"/><line x1="952.5" y1="1194.7" x2="808.7" y2="1124.6" stroke="#26160e" stroke-width="16.4" stroke-linecap="round"/><circle cx="808.7" cy="1124.6" r="16.4" fill="#8a4423"/><line x1="952.5" y1="1194.7" x2="821.4" y2="1076.7" stroke="#26160e" stroke-width="16.4" stroke-linecap="round"/><circle cx="821.4" cy="1076.7" r="16.4" fill="#8a4423"/><line x1="952.5" y1="1194.7" x2="850.4" y2="1031.3" stroke="#26160e" stroke-width="16.4" stroke-linecap="round"/><circle cx="850.4" cy="1031.3" r="16.4" fill="#8a4423"/><line x1="952.5" y1="1194.7" x2="894.9" y2="993.7" stroke="#26160e" stroke-width="16.4" stroke-linecap="round"/><circle cx="894.9" cy="993.7" r="16.4" fill="#8a4423"/><line x1="952.5" y1="1194.7" x2="952.5" y2="969.2" stroke="#26160e" stroke-width="16.4" stroke-linecap="round"/><circle cx="952.5" cy="969.2" r="16.4" fill="#8a4423"/><line x1="952.5" y1="1194.7" x2="1010.1" y2="993.7" stroke="#26160e" stroke-width="16.4" stroke-linecap="round"/><circle cx="1010.1" cy="993.7" r="16.4" fill="#8a4423"/><line x1="952.5" y1="1194.7" x2="1054.6" y2="1031.3" stroke="#26160e" stroke-width="16.4" stroke-linecap="round"/><circle cx="1054.6" cy="1031.3" r="16.4" fill="#8a4423"/><line x1="952.5" y1="1194.7" x2="1083.6" y2="1076.7" stroke="#26160e" stroke-width="16.4" stroke-linecap="round"/><circle cx="1083.6" cy="1076.7" r="16.4" fill="#8a4423"/><line x1="952.5" y1="1194.7" x2="1096.3" y2="1124.6" stroke="#26160e" stroke-width="16.4" stroke-linecap="round"/><circle cx="1096.3" cy="1124.6" r="16.4" fill="#8a4423"/><line x1="1447.5" y1="1394.7" x2="1447.5" y2="1164" stroke="#26160e" stroke-width="25.2"/><line x1="1447.5" y1="1164" x2="1281.7" y2="1083.2" stroke="#26160e" stroke-width="18.9" stroke-linecap="round"/><circle cx="1281.7" cy="1083.2" r="18.9" fill="#8a4423"/><line x1="1447.5" y1="1164" x2="1296.3" y2="1027.9" stroke="#26160e" stroke-width="18.9" stroke-linecap="round"/><circle cx="1296.3" cy="1027.9" r="18.9" fill="#8a4423"/><line x1="1447.5" y1="1164" x2="1329.7" y2="975.6" stroke="#26160e" stroke-width="18.9" stroke-linecap="round"/><circle cx="1329.7" cy="975.6" r="18.9" fill="#8a4423"/><line x1="1447.5" y1="1164" x2="1381" y2="932.2" stroke="#26160e" stroke-width="18.9" stroke-linecap="round"/><circle cx="1381" cy="932.2" r="18.9" fill="#8a4423"/><line x1="1447.5" y1="1164" x2="1447.5" y2="904" stroke="#26160e" stroke-width="18.9" stroke-linecap="round"/><circle cx="1447.5" cy="904" r="18.9" fill="#8a4423"/><line x1="1447.5" y1="1164" x2="1514" y2="932.2" stroke="#26160e" stroke-width="18.9" stroke-linecap="round"/><circle cx="1514" cy="932.2" r="18.9" fill="#8a4423"/><line x1="1447.5" y1="1164" x2="1565.3" y2="975.6" stroke="#26160e" stroke-width="18.9" stroke-linecap="round"/><circle cx="1565.3" cy="975.6" r="18.9" fill="#8a4423"/><line x1="1447.5" y1="1164" x2="1598.7" y2="1027.9" stroke="#26160e" stroke-width="18.9" stroke-linecap="round"/><circle cx="1598.7" cy="1027.9" r="18.9" fill="#8a4423"/><line x1="1447.5" y1="1164" x2="1613.3" y2="1083.2" stroke="#26160e" stroke-width="18.9" stroke-linecap="round"/><circle cx="1613.3" cy="1083.2" r="18.9" fill="#8a4423"/><line x1="1942.5" y1="1394.7" x2="1942.5" y2="1168.3" stroke="#26160e" stroke-width="24.7"/><line x1="1942.5" y1="1168.3" x2="1779.7" y2="1088.9" stroke="#26160e" stroke-width="18.5" stroke-linecap="round"/><circle cx="1779.7" cy="1088.9" r="18.5" fill="#8a4423"/><line x1="1942.5" y1="1168.3" x2="1794.1" y2="1034.7" stroke="#26160e" stroke-width="18.5" stroke-linecap="round"/><circle cx="1794.1" cy="1034.7" r="18.5" fill="#8a4423"/><line x1="1942.5" y1="1168.3" x2="1826.9" y2="983.3" stroke="#26160e" stroke-width="18.5" stroke-linecap="round"/><circle cx="1826.9" cy="983.3" r="18.5" fill="#8a4423"/><line x1="1942.5" y1="1168.3" x2="1877.3" y2="940.8" stroke="#26160e" stroke-width="18.5" stroke-linecap="round"/><circle cx="1877.3" cy="940.8" r="18.5" fill="#8a4423"/><line x1="1942.5" y1="1168.3" x2="1942.5" y2="913.1" stroke="#26160e" stroke-width="18.5" stroke-linecap="round"/><circle cx="1942.5" cy="913.1" r="18.5" fill="#8a4423"/><line x1="1942.5" y1="1168.3" x2="2007.7" y2="940.8" stroke="#26160e" stroke-width="18.5" stroke-linecap="round"/><circle cx="2007.7" cy="940.8" r="18.5" fill="#8a4423"/><line x1="1942.5" y1="1168.3" x2="2058.1" y2="983.3" stroke="#26160e" stroke-width="18.5" stroke-linecap="round"/><circle cx="2058.1" cy="983.3" r="18.5" fill="#8a4423"/><line x1="1942.5" y1="1168.3" x2="2090.9" y2="1034.7" stroke="#26160e" stroke-width="18.5" stroke-linecap="round"/><circle cx="2090.9" cy="1034.7" r="18.5" fill="#8a4423"/><line x1="1942.5" y1="1168.3" x2="2105.3" y2="1088.9" stroke="#26160e" stroke-width="18.5" stroke-linecap="round"/><circle cx="2105.3" cy="1088.9" r="18.5" fill="#8a4423"/><path d="M0 0 Q 68 -105.7 0 -278.1 Q -68 -105.7 0 0 Z" fill="#26160e" opacity="1" transform="translate(408 1979.7) rotate(-58)"/><path d="M0 0 Q 68 -118.3 0 -311.3 Q -68 -118.3 0 0 Z" fill="#8a4423" opacity="1" transform="translate(408 1979.7) rotate(-38.7)"/><path d="M0 0 Q 68 -130.9 0 -344.4 Q -68 -130.9 0 0 Z" fill="#26160e" opacity="1" transform="translate(408 1979.7) rotate(-19.3)"/><path d="M0 0 Q 68 -143.5 0 -377.6 Q -68 -143.5 0 0 Z" fill="#8a4423" opacity="1" transform="translate(408 1979.7) rotate(0)"/><path d="M0 0 Q 68 -130.9 0 -344.4 Q -68 -130.9 0 0 Z" fill="#26160e" opacity="1" transform="translate(408 1979.7) rotate(19.3)"/><path d="M0 0 Q 68 -118.3 0 -311.3 Q -68 -118.3 0 0 Z" fill="#8a4423" opacity="1" transform="translate(408 1979.7) rotate(38.7)"/><path d="M0 0 Q 68 -105.7 0 -278.1 Q -68 -105.7 0 0 Z" fill="#26160e" opacity="1" transform="translate(408 1979.7) rotate(58)"/><path d="M294.7,1979.7 Q408,2108.1 521.3,1979.7 Z" fill="#26160e"/><path d="M0 0 Q 62 -117.8 0 -310 Q -62 -117.8 0 0 Z" fill="#8a4423" opacity="1" transform="translate(804 1979.7) rotate(0)"/><line x1="804" y1="1979.7" x2="804" y2="2026.5" stroke="#26160e" stroke-width="19.4"/><path d="M0 0 Q 70.6 -109.7 0 -288.7 Q -70.6 -109.7 0 0 Z" fill="#26160e" opacity="1" transform="translate(1200 1979.7) rotate(-58)"/><path d="M0 0 Q 70.6 -125.4 0 -330 Q -70.6 -125.4 0 0 Z" fill="#8a4423" opacity="1" transform="translate(1200 1979.7) rotate(-34.8)"/><path d="M0 0 Q 70.6 -141.1 0 -371.4 Q -70.6 -141.1 0 0 Z" fill="#26160e" opacity="1" transform="translate(1200 1979.7) rotate(-11.6)"/><path d="M0 0 Q 70.6 -141.1 0 -371.4 Q -70.6 -141.1 0 0 Z" fill="#8a4423" opacity="1" transform="translate(1200 1979.7) rotate(11.6)"/><path d="M0 0 Q 70.6 -125.4 0 -330 Q -70.6 -125.4 0 0 Z" fill="#26160e" opacity="1" transform="translate(1200 1979.7) rotate(34.8)"/><path d="M0 0 Q 70.6 -109.7 0 -288.7 Q -70.6 -109.7 0 0 Z" fill="#8a4423" opacity="1" transform="translate(1200 1979.7) rotate(58)"/><path d="M1082.4,1979.7 Q1200,2113 1317.6,1979.7 Z" fill="#26160e"/><path d="M0 0 Q 67.2 -127.7 0 -336 Q -67.2 -127.7 0 0 Z" fill="#8a4423" opacity="1" transform="translate(1596 1979.7) rotate(0)"/><line x1="1596" y1="1979.7" x2="1596" y2="2026.5" stroke="#26160e" stroke-width="21"/><path d="M0 0 Q 73.5 -114.3 0 -300.9 Q -73.5 -114.3 0 0 Z" fill="#26160e" opacity="1" transform="translate(1992 1979.7) rotate(-58)"/><path d="M0 0 Q 73.5 -130.7 0 -344 Q -73.5 -130.7 0 0 Z" fill="#8a4423" opacity="1" transform="translate(1992 1979.7) rotate(-34.8)"/><path d="M0 0 Q 73.5 -147.1 0 -387.1 Q -73.5 -147.1 0 0 Z" fill="#26160e" opacity="1" transform="translate(1992 1979.7) rotate(-11.6)"/><path d="M0 0 Q 73.5 -147.1 0 -387.1 Q -73.5 -147.1 0 0 Z" fill="#8a4423" opacity="1" transform="translate(1992 1979.7) rotate(11.6)"/><path d="M0 0 Q 73.5 -130.7 0 -344 Q -73.5 -130.7 0 0 Z" fill="#26160e" opacity="1" transform="translate(1992 1979.7) rotate(34.8)"/><path d="M0 0 Q 73.5 -114.3 0 -300.9 Q -73.5 -114.3 0 0 Z" fill="#8a4423" opacity="1" transform="translate(1992 1979.7) rotate(58)"/><path d="M1869.4,1979.7 Q1992,2118.6 2114.6,1979.7 Z" fill="#26160e"/><line x1="408" y1="2564.7" x2="408" y2="2353.1" stroke="#26160e" stroke-width="23.1"/><line x1="408" y1="2353.1" x2="255.9" y2="2278.9" stroke="#26160e" stroke-width="17.3" stroke-linecap="round"/><circle cx="255.9" cy="2278.9" r="17.3" fill="#8a4423"/><line x1="408" y1="2353.1" x2="269.3" y2="2228.3" stroke="#26160e" stroke-width="17.3" stroke-linecap="round"/><circle cx="269.3" cy="2228.3" r="17.3" fill="#8a4423"/><line x1="408" y1="2353.1" x2="300" y2="2180.2" stroke="#26160e" stroke-width="17.3" stroke-linecap="round"/><circle cx="300" cy="2180.2" r="17.3" fill="#8a4423"/><line x1="408" y1="2353.1" x2="347" y2="2140.5" stroke="#26160e" stroke-width="17.3" stroke-linecap="round"/><circle cx="347" cy="2140.5" r="17.3" fill="#8a4423"/><line x1="408" y1="2353.1" x2="408" y2="2114.6" stroke="#26160e" stroke-width="17.3" stroke-linecap="round"/><circle cx="408" cy="2114.6" r="17.3" fill="#8a4423"/><line x1="408" y1="2353.1" x2="469" y2="2140.5" stroke="#26160e" stroke-width="17.3" stroke-linecap="round"/><circle cx="469" cy="2140.5" r="17.3" fill="#8a4423"/><line x1="408" y1="2353.1" x2="516" y2="2180.2" stroke="#26160e" stroke-width="17.3" stroke-linecap="round"/><circle cx="516" cy="2180.2" r="17.3" fill="#8a4423"/><line x1="408" y1="2353.1" x2="546.7" y2="2228.3" stroke="#26160e" stroke-width="17.3" stroke-linecap="round"/><circle cx="546.7" cy="2228.3" r="17.3" fill="#8a4423"/><line x1="408" y1="2353.1" x2="560.1" y2="2278.9" stroke="#26160e" stroke-width="17.3" stroke-linecap="round"/><circle cx="560.1" cy="2278.9" r="17.3" fill="#8a4423"/><line x1="804" y1="2564.7" x2="804" y2="2349.4" stroke="#26160e" stroke-width="23.5"/><line x1="804" y1="2349.4" x2="649.2" y2="2273.8" stroke="#26160e" stroke-width="17.6" stroke-linecap="round"/><circle cx="649.2" cy="2273.8" r="17.6" fill="#8a4423"/><line x1="804" y1="2349.4" x2="662.9" y2="2222.3" stroke="#26160e" stroke-width="17.6" stroke-linecap="round"/><circle cx="662.9" cy="2222.3" r="17.6" fill="#8a4423"/><line x1="804" y1="2349.4" x2="694" y2="2173.4" stroke="#26160e" stroke-width="17.6" stroke-linecap="round"/><circle cx="694" cy="2173.4" r="17.6" fill="#8a4423"/><line x1="804" y1="2349.4" x2="741.9" y2="2132.9" stroke="#26160e" stroke-width="17.6" stroke-linecap="round"/><circle cx="741.9" cy="2132.9" r="17.6" fill="#8a4423"/><line x1="804" y1="2349.4" x2="804" y2="2106.6" stroke="#26160e" stroke-width="17.6" stroke-linecap="round"/><circle cx="804" cy="2106.6" r="17.6" fill="#8a4423"/><line x1="804" y1="2349.4" x2="866.1" y2="2132.9" stroke="#26160e" stroke-width="17.6" stroke-linecap="round"/><circle cx="866.1" cy="2132.9" r="17.6" fill="#8a4423"/><line x1="804" y1="2349.4" x2="914" y2="2173.4" stroke="#26160e" stroke-width="17.6" stroke-linecap="round"/><circle cx="914" cy="2173.4" r="17.6" fill="#8a4423"/><line x1="804" y1="2349.4" x2="945.1" y2="2222.3" stroke="#26160e" stroke-width="17.6" stroke-linecap="round"/><circle cx="945.1" cy="2222.3" r="17.6" fill="#8a4423"/><line x1="804" y1="2349.4" x2="958.8" y2="2273.8" stroke="#26160e" stroke-width="17.6" stroke-linecap="round"/><circle cx="958.8" cy="2273.8" r="17.6" fill="#8a4423"/><line x1="1200" y1="2564.7" x2="1200" y2="2363.3" stroke="#26160e" stroke-width="22"/><line x1="1200" y1="2363.3" x2="1055.2" y2="2292.6" stroke="#26160e" stroke-width="16.5" stroke-linecap="round"/><circle cx="1055.2" cy="2292.6" r="16.5" fill="#8a4423"/><line x1="1200" y1="2363.3" x2="1068" y2="2244.4" stroke="#26160e" stroke-width="16.5" stroke-linecap="round"/><circle cx="1068" cy="2244.4" r="16.5" fill="#8a4423"/><line x1="1200" y1="2363.3" x2="1097.1" y2="2198.7" stroke="#26160e" stroke-width="16.5" stroke-linecap="round"/><circle cx="1097.1" cy="2198.7" r="16.5" fill="#8a4423"/><line x1="1200" y1="2363.3" x2="1142" y2="2160.9" stroke="#26160e" stroke-width="16.5" stroke-linecap="round"/><circle cx="1142" cy="2160.9" r="16.5" fill="#8a4423"/><line x1="1200" y1="2363.3" x2="1200" y2="2136.2" stroke="#26160e" stroke-width="16.5" stroke-linecap="round"/><circle cx="1200" cy="2136.2" r="16.5" fill="#8a4423"/><line x1="1200" y1="2363.3" x2="1258" y2="2160.9" stroke="#26160e" stroke-width="16.5" stroke-linecap="round"/><circle cx="1258" cy="2160.9" r="16.5" fill="#8a4423"/><line x1="1200" y1="2363.3" x2="1302.9" y2="2198.7" stroke="#26160e" stroke-width="16.5" stroke-linecap="round"/><circle cx="1302.9" cy="2198.7" r="16.5" fill="#8a4423"/><line x1="1200" y1="2363.3" x2="1332" y2="2244.4" stroke="#26160e" stroke-width="16.5" stroke-linecap="round"/><circle cx="1332" cy="2244.4" r="16.5" fill="#8a4423"/><line x1="1200" y1="2363.3" x2="1344.8" y2="2292.6" stroke="#26160e" stroke-width="16.5" stroke-linecap="round"/><circle cx="1344.8" cy="2292.6" r="16.5" fill="#8a4423"/><line x1="1596" y1="2564.7" x2="1596" y2="2348.2" stroke="#26160e" stroke-width="23.6"/><line x1="1596" y1="2348.2" x2="1440.4" y2="2272.3" stroke="#26160e" stroke-width="17.7" stroke-linecap="round"/><circle cx="1440.4" cy="2272.3" r="17.7" fill="#8a4423"/><line x1="1596" y1="2348.2" x2="1454.2" y2="2220.5" stroke="#26160e" stroke-width="17.7" stroke-linecap="round"/><circle cx="1454.2" cy="2220.5" r="17.7" fill="#8a4423"/><line x1="1596" y1="2348.2" x2="1485.5" y2="2171.4" stroke="#26160e" stroke-width="17.7" stroke-linecap="round"/><circle cx="1485.5" cy="2171.4" r="17.7" fill="#8a4423"/><line x1="1596" y1="2348.2" x2="1533.6" y2="2130.7" stroke="#26160e" stroke-width="17.7" stroke-linecap="round"/><circle cx="1533.6" cy="2130.7" r="17.7" fill="#8a4423"/><line x1="1596" y1="2348.2" x2="1596" y2="2104.2" stroke="#26160e" stroke-width="17.7" stroke-linecap="round"/><circle cx="1596" cy="2104.2" r="17.7" fill="#8a4423"/><line x1="1596" y1="2348.2" x2="1658.4" y2="2130.7" stroke="#26160e" stroke-width="17.7" stroke-linecap="round"/><circle cx="1658.4" cy="2130.7" r="17.7" fill="#8a4423"/><line x1="1596" y1="2348.2" x2="1706.5" y2="2171.4" stroke="#26160e" stroke-width="17.7" stroke-linecap="round"/><circle cx="1706.5" cy="2171.4" r="17.7" fill="#8a4423"/><line x1="1596" y1="2348.2" x2="1737.8" y2="2220.5" stroke="#26160e" stroke-width="17.7" stroke-linecap="round"/><circle cx="1737.8" cy="2220.5" r="17.7" fill="#8a4423"/><line x1="1596" y1="2348.2" x2="1751.6" y2="2272.3" stroke="#26160e" stroke-width="17.7" stroke-linecap="round"/><circle cx="1751.6" cy="2272.3" r="17.7" fill="#8a4423"/><line x1="1992" y1="2564.7" x2="1992" y2="2347.8" stroke="#26160e" stroke-width="23.7"/><line x1="1992" y1="2347.8" x2="1836.1" y2="2271.8" stroke="#26160e" stroke-width="17.7" stroke-linecap="round"/><circle cx="1836.1" cy="2271.8" r="17.7" fill="#8a4423"/><line x1="1992" y1="2347.8" x2="1849.9" y2="2219.9" stroke="#26160e" stroke-width="17.7" stroke-linecap="round"/><circle cx="1849.9" cy="2219.9" r="17.7" fill="#8a4423"/><line x1="1992" y1="2347.8" x2="1881.3" y2="2170.6" stroke="#26160e" stroke-width="17.7" stroke-linecap="round"/><circle cx="1881.3" cy="2170.6" r="17.7" fill="#8a4423"/><line x1="1992" y1="2347.8" x2="1929.5" y2="2129.9" stroke="#26160e" stroke-width="17.7" stroke-linecap="round"/><circle cx="1929.5" cy="2129.9" r="17.7" fill="#8a4423"/><line x1="1992" y1="2347.8" x2="1992" y2="2103.4" stroke="#26160e" stroke-width="17.7" stroke-linecap="round"/><circle cx="1992" cy="2103.4" r="17.7" fill="#8a4423"/><line x1="1992" y1="2347.8" x2="2054.5" y2="2129.9" stroke="#26160e" stroke-width="17.7" stroke-linecap="round"/><circle cx="2054.5" cy="2129.9" r="17.7" fill="#8a4423"/><line x1="1992" y1="2347.8" x2="2102.7" y2="2170.6" stroke="#26160e" stroke-width="17.7" stroke-linecap="round"/><circle cx="2102.7" cy="2170.6" r="17.7" fill="#8a4423"/><line x1="1992" y1="2347.8" x2="2134.1" y2="2219.9" stroke="#26160e" stroke-width="17.7" stroke-linecap="round"/><circle cx="2134.1" cy="2219.9" r="17.7" fill="#8a4423"/><line x1="1992" y1="2347.8" x2="2147.9" y2="2271.8" stroke="#26160e" stroke-width="17.7" stroke-linecap="round"/><circle cx="2147.9" cy="2271.8" r="17.7" fill="#8a4423"/><rect x="100" y="100" width="2200" height="2800" fill="none" stroke="#26160e" stroke-width="9"/><rect x="142" y="142" width="2116" height="2716" fill="none" stroke="#26160e" stroke-width="3" opacity="0.65"/></svg></svg>