<svg xmlns="http://www.w3.org/2000/svg" width="2400" height="1800" viewBox="0 0 2400 1800"><rect width="2400" height="1800" fill="#e9e1d2"/><rect y="1430" width="2400" height="370" fill="#c8b190"/><line x1="120" y1="1430" x2="60" y2="1800" stroke="#00000018" stroke-width="6"/><line x1="380" y1="1430" x2="320" y2="1800" stroke="#00000018" stroke-width="6"/><line x1="640" y1="1430" x2="580" y2="1800" stroke="#00000018" stroke-width="6"/><line x1="900" y1="1430" x2="840" y2="1800" stroke="#00000018" stroke-width="6"/><line x1="1160" y1="1430" x2="1100" y2="1800" stroke="#00000018" stroke-width="6"/><line x1="1420" y1="1430" x2="1360" y2="1800" stroke="#00000018" stroke-width="6"/><line x1="1680" y1="1430" x2="1620" y2="1800" stroke="#00000018" stroke-width="6"/><line x1="1940" y1="1430" x2="1880" y2="1800" stroke="#00000018" stroke-width="6"/><line x1="2200" y1="1430" x2="2140" y2="1800" stroke="#00000018" stroke-width="6"/><rect y="1418" width="2400" height="16" fill="#d7cbb6"/><rect x="700" y="980" width="1000" height="460" rx="26" fill="#a87e57"/><rect x="660" y="1290" width="1080" height="210" rx="30" fill="#f1ebdf"/><rect x="660" y="1420" width="1080" height="120" rx="24" fill="#bda15a" opacity="0.85"/><rect x="770" y="1180" width="300" height="150" rx="40" fill="#faf6ec"/><rect x="1330" y="1180" width="300" height="150" rx="40" fill="#57674b"/><rect x="640" y="1530" width="1120" height="26" rx="12" fill="#a87e57"/><rect x="360" y="1260" width="240" height="220" rx="10" fill="#a87e57"/><rect x="380" y="1300" width="200" height="14" fill="#00000022"/><line x1="480" y1="1260" x2="480" y2="1130" stroke="#5a4632" stroke-width="12"/><path d="M410,1130 L550,1130 L520,1020 L440,1020 Z" fill="#bda15a"/><path d="M2060,1520 Q 1910,1282.5 1835,1345" fill="none" stroke="#5d7052" stroke-width="20" stroke-linecap="round"/><path d="M2060,1520 Q 1960,1282.5 1910,1295" fill="none" stroke="#5d7052" stroke-width="20" stroke-linecap="round"/><path d="M2060,1520 Q 2010,1282.5 1985,1245" fill="none" stroke="#5d7052" stroke-width="20" stroke-linecap="round"/><path d="M2060,1520 Q 2060,1282.5 2060,1195" fill="none" stroke="#5d7052" stroke-width="20" stroke-linecap="round"/><path d="M2060,1520 Q 2110,1282.5 2135,1245" fill="none" stroke="#5d7052" stroke-width="20" stroke-linecap="round"/><path d="M2060,1520 Q 2160,1282.5 2210,1295" fill="none" stroke="#5d7052" stroke-width="20" stroke-linecap="round"/><path d="M2060,1520 Q 2210,1282.5 2285,1345" fill="none" stroke="#5d7052" stroke-width="20" stroke-linecap="round"/><path d="M1972.5,1520 L2147.5,1520 L2125,1657.5 L1995,1657.5 Z" fill="#a9714d"/><defs><filter id="a21b-sh" x="-30%" y="-30%" width="160%" height="160%"><feGaussianBlur stdDeviation="16"/></filter></defs><rect x="928" y="246" width="572" height="702" fill="#000" opacity="0.28" filter="url(#a21b-sh)"/><rect x="914" y="224" width="572" height="702" fill="#4a3d2f"/><rect x="930.9" y="240.9" width="538.2" height="668.2" fill="none" stroke="#00000055" stroke-width="3"/><rect x="940" y="250" width="520" height="650" fill="#f6f2ea"/><svg x="979" y="289" width="442" height="572" viewBox="0 0 2400 3000" preserveAspectRatio="xMidYMid slice"><rect width="2400" height="3000" fill="#3d4a33"/><radialGradient id="a21-vig" cx="50%" cy="42%" r="80%"><stop offset="55%" stop-color="#000" stop-opacity="0"/><stop offset="100%" stop-color="#000" stop-opacity="0.15"/></radialGradient><rect width="2400" height="3000" fill="url(#a21-vig)"/><circle cx="261.5" cy="2082.2" r="2.7" fill="#e6ddc4" opacity="0.058"/><circle cx="2276.7" cy="1789.1" r="3.2" fill="#e6ddc4" opacity="0.044"/><circle cx="1623.4" cy="599.6" r="2.7" fill="#e6ddc4" opacity="0.061"/><circle cx="554" cy="2504.3" r="2.7" fill="#e6ddc4" opacity="0.055"/><circle cx="2142" cy="2684.3" r="4.1" fill="#e6ddc4" opacity="0.059"/><circle cx="798" cy="329.5" r="2.8" fill="#e6ddc4" opacity="0.058"/><circle cx="316.7" cy="1273.8" r="4" fill="#e6ddc4" opacity="0.040"/><circle cx="196.7" cy="1452.3" r="4.1" fill="#e6ddc4" opacity="0.037"/><circle cx="1338.7" cy="1198.7" r="3.4" fill="#e6ddc4" opacity="0.049"/><circle cx="1614" cy="2247.2" r="3" fill="#e6ddc4" opacity="0.037"/><circle cx="1530.4" cy="1509.4" r="2.3" fill="#e6ddc4" opacity="0.059"/><circle cx="196" cy="1770.9" r="3.1" fill="#e6ddc4" opacity="0.072"/><circle cx="594.9" cy="1164.4" r="3.3" fill="#e6ddc4" opacity="0.075"/><circle cx="844.1" cy="408.6" r="3.7" fill="#e6ddc4" opacity="0.072"/><circle cx="179.5" cy="986.1" r="1.8" fill="#e6ddc4" opacity="0.046"/><circle cx="2354.7" cy="2774.4" r="3.9" fill="#e6ddc4" opacity="0.049"/><circle cx="1473.1" cy="2277.1" r="4.1" fill="#e6ddc4" opacity="0.053"/><circle cx="854.8" cy="663.5" r="3.2" fill="#e6ddc4" opacity="0.042"/><circle cx="1824.1" cy="168" r="1.9" fill="#e6ddc4" opacity="0.032"/><circle cx="842.8" cy="1788.7" r="2.7" fill="#e6ddc4" opacity="0.046"/><circle cx="507.1" cy="2072" r="4.4" fill="#e6ddc4" opacity="0.060"/><circle cx="1309.9" cy="83" r="4.4" fill="#e6ddc4" opacity="0.075"/><circle cx="1200.9" cy="2157.8" r="2" fill="#e6ddc4" opacity="0.059"/><circle cx="1348.6" cy="1349.3" r="2.9" fill="#e6ddc4" opacity="0.038"/><circle cx="1006.2" cy="2500.1" r="3.7" fill="#e6ddc4" opacity="0.062"/><circle cx="623.1" cy="1678.3" r="4.2" fill="#e6ddc4" opacity="0.052"/><circle cx="57.7" cy="2435.7" r="3.4" fill="#e6ddc4" opacity="0.064"/><circle cx="277.5" cy="1914.6" r="3" fill="#e6ddc4" opacity="0.041"/><circle cx="570.1" cy="2632.5" r="4.4" fill="#e6ddc4" opacity="0.041"/><circle cx="1712.8" cy="2214.8" r="1.7" fill="#e6ddc4" opacity="0.039"/><circle cx="790" cy="157.3" r="2" fill="#e6ddc4" opacity="0.032"/><circle cx="741.4" cy="1790.3" r="3.5" fill="#e6ddc4" opacity="0.044"/><circle cx="1716.6" cy="723.1" r="3.9" fill="#e6ddc4" opacity="0.074"/><circle cx="1031.6" cy="1965.6" r="4" fill="#e6ddc4" opacity="0.045"/><circle cx="2067.4" cy="822.8" r="3.4" fill="#e6ddc4" opacity="0.034"/><circle cx="387.2" cy="2586.6" r="2.8" fill="#e6ddc4" opacity="0.043"/><circle cx="2249.5" cy="2691.8" r="3.2" fill="#e6ddc4" opacity="0.069"/><circle cx="196" cy="1997.8" r="3.1" fill="#e6ddc4" opacity="0.070"/><circle cx="291.9" cy="1368.3" r="4.2" fill="#e6ddc4" opacity="0.079"/><circle cx="2002.6" cy="1149.7" r="2" fill="#e6ddc4" opacity="0.035"/><circle cx="2353.7" cy="751.3" r="3.8" fill="#e6ddc4" opacity="0.033"/><circle cx="267.2" cy="1782.3" r="4.1" fill="#e6ddc4" opacity="0.042"/><circle cx="254.7" cy="1868.5" r="2.4" fill="#e6ddc4" opacity="0.063"/><circle cx="2168" cy="2480.3" r="3.5" fill="#e6ddc4" opacity="0.045"/><circle cx="1457.3" cy="1135.2" r="2.5" fill="#e6ddc4" opacity="0.031"/><circle cx="1325.6" cy="2944.9" r="1.6" fill="#e6ddc4" opacity="0.047"/><circle cx="1701.8" cy="121.3" r="2.8" fill="#e6ddc4" opacity="0.046"/><circle cx="1326.7" cy="1273.1" r="3.5" fill="#e6ddc4" opacity="0.039"/><circle cx="936.9" cy="2420.9" r="1.8" fill="#e6ddc4" opacity="0.079"/><circle cx="1394.8" cy="2511.8" r="2.7" fill="#e6ddc4" opacity="0.055"/><circle cx="1041" cy="325.8" r="3.6" fill="#e6ddc4" opacity="0.037"/><circle cx="457.9" cy="2951.9" r="2.7" fill="#e6ddc4" opacity="0.039"/><circle cx="1394.1" cy="1072.3" r="2.9" fill="#e6ddc4" opacity="0.074"/><circle cx="93.8" cy="365.1" r="4" fill="#e6ddc4" opacity="0.065"/><circle cx="2140.6" cy="159.7" r="2.2" fill="#e6ddc4" opacity="0.073"/><circle cx="194.8" cy="2425.4" r="3.5" fill="#e6ddc4" opacity="0.074"/><circle cx="1647.2" cy="2260.6" r="2.7" fill="#e6ddc4" opacity="0.072"/><circle cx="1955.5" cy="859" r="2.9" fill="#e6ddc4" opacity="0.033"/><circle cx="844.6" cy="722" r="3.9" fill="#e6ddc4" opacity="0.040"/><circle cx="1418.1" cy="1232.2" r="2.5" fill="#e6ddc4" opacity="0.077"/><circle cx="629.6" cy="1665.6" r="2.5" fill="#e6ddc4" opacity="0.070"/><circle cx="1574.6" cy="1962.6" r="1.6" fill="#e6ddc4" opacity="0.043"/><circle cx="1048.7" cy="2899.9" r="2.3" fill="#e6ddc4" opacity="0.048"/><circle cx="2168.8" cy="2955.9" r="2.1" fill="#e6ddc4" opacity="0.068"/><circle cx="695.8" cy="1209.4" r="2.8" fill="#e6ddc4" opacity="0.072"/><circle cx="1999.7" cy="1074.9" r="3.8" fill="#e6ddc4" opacity="0.046"/><circle cx="1975.1" cy="815.7" r="3.7" fill="#e6ddc4" opacity="0.046"/><circle cx="295.5" cy="1635.4" r="2" fill="#e6ddc4" opacity="0.041"/><circle cx="846.2" cy="2340.1" r="3.6" fill="#e6ddc4" opacity="0.055"/><circle cx="1044" cy="2887" r="1.8" fill="#e6ddc4" opacity="0.040"/><circle cx="268.2" cy="964.2" r="2.7" fill="#e6ddc4" opacity="0.034"/><circle cx="1324.1" cy="632.4" r="3.4" fill="#e6ddc4" opacity="0.066"/><circle cx="2098.1" cy="1162.3" r="2" fill="#e6ddc4" opacity="0.078"/><circle cx="902.8" cy="2860.9" r="2.3" fill="#e6ddc4" opacity="0.074"/><circle cx="2170.3" cy="2371.5" r="1.7" fill="#e6ddc4" opacity="0.060"/><circle cx="1851.6" cy="1567.9" r="2.4" fill="#e6ddc4" opacity="0.065"/><circle cx="2140.3" cy="1517.6" r="2.4" fill="#e6ddc4" opacity="0.046"/><circle cx="2243.4" cy="2183.8" r="1.6" fill="#e6ddc4" opacity="0.062"/><circle cx="628.3" cy="2382" r="2.8" fill="#e6ddc4" opacity="0.047"/><circle cx="1482" cy="2724.6" r="4.4" fill="#e6ddc4" opacity="0.042"/><rect x="210" y="300" width="1980" height="8.9" fill="#e6ddc4"/><rect x="210" y="308.4" width="1980" height="8.9" fill="#bda15a"/><rect x="210" y="316.8" width="1980" height="8.9" fill="#e6ddc4"/><rect x="210" y="325.2" width="1980" height="8.9" fill="#57674b"/><rect x="210" y="333.6" width="1980" height="8.9" fill="#e6ddc4"/><rect x="210" y="885" width="1980" height="8.9" fill="#e6ddc4"/><rect x="210" y="893.4" width="1980" height="8.9" fill="#bda15a"/><rect x="210" y="901.8" width="1980" height="8.9" fill="#e6ddc4"/><rect x="210" y="910.2" width="1980" height="8.9" fill="#57674b"/><rect x="210" y="918.6" width="1980" height="8.9" fill="#e6ddc4"/><rect x="210" y="1470" width="1980" height="8.9" fill="#e6ddc4"/><rect x="210" y="1478.4" width="1980" height="8.9" fill="#bda15a"/><rect x="210" y="1486.8" width="1980" height="8.9" fill="#e6ddc4"/><rect x="210" y="1495.2" width="1980" height="8.9" fill="#57674b"/><rect x="210" y="1503.6" width="1980" height="8.9" fill="#e6ddc4"/><rect x="210" y="2055" width="1980" height="8.9" fill="#e6ddc4"/><rect x="210" y="2063.4" width="1980" height="8.9" fill="#bda15a"/><rect x="210" y="2071.8" width="1980" height="8.9" fill="#e6ddc4"/><rect x="210" y="2080.2" width="1980" height="8.9" fill="#57674b"/><rect x="210" y="2088.6" width="1980" height="8.9" fill="#e6ddc4"/><rect x="210" y="2640" width="1980" height="8.9" fill="#e6ddc4"/><rect x="210" y="2648.4" width="1980" height="8.9" fill="#bda15a"/><rect x="210" y="2656.8" width="1980" height="8.9" fill="#e6ddc4"/><rect x="210" y="2665.2" width="1980" height="8.9" fill="#57674b"/><rect x="210" y="2673.6" width="1980" height="8.9" fill="#e6ddc4"/><path d="M0 0 Q 67.2 -104.4 0 -274.8 Q -67.2 -104.4 0 0 Z" fill="#e6ddc4" opacity="1" transform="translate(408 809.7) rotate(-58)"/><path d="M0 0 Q 67.2 -116.9 0 -307.6 Q -67.2 -116.9 0 0 Z" fill="#bda15a" opacity="1" transform="translate(408 809.7) rotate(-38.7)"/><path d="M0 0 Q 67.2 -129.3 0 -340.4 Q -67.2 -129.3 0 0 Z" fill="#e6ddc4" opacity="1" transform="translate(408 809.7) rotate(-19.3)"/><path d="M0 0 Q 67.2 -141.8 0 -373.1 Q -67.2 -141.8 0 0 Z" fill="#bda15a" opacity="1" transform="translate(408 809.7) rotate(0)"/><path d="M0 0 Q 67.2 -129.3 0 -340.4 Q -67.2 -129.3 0 0 Z" fill="#e6ddc4" opacity="1" transform="translate(408 809.7) rotate(19.3)"/><path d="M0 0 Q 67.2 -116.9 0 -307.6 Q -67.2 -116.9 0 0 Z" fill="#bda15a" opacity="1" transform="translate(408 809.7) rotate(38.7)"/><path d="M0 0 Q 67.2 -104.4 0 -274.8 Q -67.2 -104.4 0 0 Z" fill="#e6ddc4" opacity="1" transform="translate(408 809.7) rotate(58)"/><path d="M296.1,809.7 Q408,936.6 519.9,809.7 Z" fill="#e6ddc4"/><path d="M0 0 Q 62.2 -118.2 0 -311 Q -62.2 -118.2 0 0 Z" fill="#bda15a" opacity="1" transform="translate(804 809.7) rotate(0)"/><line x1="804" y1="809.7" x2="804" y2="856.5" stroke="#e6ddc4" stroke-width="19.4"/><path d="M0 0 Q 73.1 -113.6 0 -299 Q -73.1 -113.6 0 0 Z" fill="#e6ddc4" opacity="1" transform="translate(1200 809.7) rotate(-58)"/><path d="M0 0 Q 73.1 -127.2 0 -334.6 Q -73.1 -127.2 0 0 Z" fill="#bda15a" opacity="1" transform="translate(1200 809.7) rotate(-38.7)"/><path d="M0 0 Q 73.1 -140.7 0 -370.3 Q -73.1 -140.7 0 0 Z" fill="#e6ddc4" opacity="1" transform="translate(1200 809.7) rotate(-19.3)"/><path d="M0 0 Q 73.1 -154.3 0 -406 Q -73.1 -154.3 0 0 Z" fill="#bda15a" opacity="1" transform="translate(1200 809.7) rotate(0)"/><path d="M0 0 Q 73.1 -140.7 0 -370.3 Q -73.1 -140.7 0 0 Z" fill="#e6ddc4" opacity="1" transform="translate(1200 809.7) rotate(19.3)"/><path d="M0 0 Q 73.1 -127.2 0 -334.6 Q -73.1 -127.2 0 0 Z" fill="#bda15a" opacity="1" transform="translate(1200 809.7) rotate(38.7)"/><path d="M0 0 Q 73.1 -113.6 0 -299 Q -73.1 -113.6 0 0 Z" fill="#e6ddc4" opacity="1" transform="translate(1200 809.7) rotate(58)"/><path d="M1078.2,809.7 Q1200,947.7 1321.8,809.7 Z" fill="#e6ddc4"/><path d="M0 0 Q 63.1 -119.9 0 -315.6 Q -63.1 -119.9 0 0 Z" fill="#bda15a" opacity="1" transform="translate(1596 809.7) rotate(0)"/><line x1="1596" y1="809.7" x2="1596" y2="856.5" stroke="#e6ddc4" stroke-width="19.7"/><path d="M0 0 Q 71.6 -111.3 0 -292.9 Q -71.6 -111.3 0 0 Z" fill="#e6ddc4" opacity="1" transform="translate(1992 809.7) rotate(-58)"/><path d="M0 0 Q 71.6 -131.2 0 -345.4 Q -71.6 -131.2 0 0 Z" fill="#bda15a" opacity="1" transform="translate(1992 809.7) rotate(-29)"/><path d="M0 0 Q 71.6 -151.2 0 -397.8 Q -71.6 -151.2 0 0 Z" fill="#e6ddc4" opacity="1" transform="translate(1992 809.7) rotate(0)"/><path d="M0 0 Q 71.6 -131.2 0 -345.4 Q -71.6 -131.2 0 0 Z" fill="#bda15a" opacity="1" transform="translate(1992 809.7) rotate(29)"/><path d="M0 0 Q 71.6 -111.3 0 -292.9 Q -71.6 -111.3 0 0 Z" fill="#e6ddc4" opacity="1" transform="translate(1992 809.7) rotate(58)"/><path d="M1872.7,809.7 Q1992,945 2111.3,809.7 Z" fill="#e6ddc4"/><line x1="457.5" y1="1394.7" x2="457.5" y2="1192.7" stroke="#e6ddc4" stroke-width="22"/><line x1="457.5" y1="1192.7" x2="312.3" y2="1121.9" stroke="#e6ddc4" stroke-width="16.5" stroke-linecap="round"/><circle cx="312.3" cy="1121.9" r="16.5" fill="#bda15a"/><line x1="457.5" y1="1192.7" x2="325.1" y2="1073.5" stroke="#e6ddc4" stroke-width="16.5" stroke-linecap="round"/><circle cx="325.1" cy="1073.5" r="16.5" fill="#bda15a"/><line x1="457.5" y1="1192.7" x2="354.4" y2="1027.7" stroke="#e6ddc4" stroke-width="16.5" stroke-linecap="round"/><circle cx="354.4" cy="1027.7" r="16.5" fill="#bda15a"/><line x1="457.5" y1="1192.7" x2="399.3" y2="989.7" stroke="#e6ddc4" stroke-width="16.5" stroke-linecap="round"/><circle cx="399.3" cy="989.7" r="16.5" fill="#bda15a"/><line x1="457.5" y1="1192.7" x2="457.5" y2="965" stroke="#e6ddc4" stroke-width="16.5" stroke-linecap="round"/><circle cx="457.5" cy="965" r="16.5" fill="#bda15a"/><line x1="457.5" y1="1192.7" x2="515.7" y2="989.7" stroke="#e6ddc4" stroke-width="16.5" stroke-linecap="round"/><circle cx="515.7" cy="989.7" r="16.5" fill="#bda15a"/><line x1="457.5" y1="1192.7" x2="560.6" y2="1027.7" stroke="#e6ddc4" stroke-width="16.5" stroke-linecap="round"/><circle cx="560.6" cy="1027.7" r="16.5" fill="#bda15a"/><line x1="457.5" y1="1192.7" x2="589.9" y2="1073.5" stroke="#e6ddc4" stroke-width="16.5" stroke-linecap="round"/><circle cx="589.9" cy="1073.5" r="16.5" fill="#bda15a"/><line x1="457.5" y1="1192.7" x2="602.7" y2="1121.9" stroke="#e6ddc4" stroke-width="16.5" stroke-linecap="round"/><circle cx="602.7" cy="1121.9" r="16.5" fill="#bda15a"/><line x1="952.5" y1="1394.7" x2="952.5" y2="1183.6" stroke="#e6ddc4" stroke-width="23"/><line x1="952.5" y1="1183.6" x2="800.7" y2="1109.6" stroke="#e6ddc4" stroke-width="17.3" stroke-linecap="round"/><circle cx="800.7" cy="1109.6" r="17.3" fill="#bda15a"/><line x1="952.5" y1="1183.6" x2="814.2" y2="1059.1" stroke="#e6ddc4" stroke-width="17.3" stroke-linecap="round"/><circle cx="814.2" cy="1059.1" r="17.3" fill="#bda15a"/><line x1="952.5" y1="1183.6" x2="844.7" y2="1011.2" stroke="#e6ddc4" stroke-width="17.3" stroke-linecap="round"/><circle cx="844.7" cy="1011.2" r="17.3" fill="#bda15a"/><line x1="952.5" y1="1183.6" x2="891.7" y2="971.5" stroke="#e6ddc4" stroke-width="17.3" stroke-linecap="round"/><circle cx="891.7" cy="971.5" r="17.3" fill="#bda15a"/><line x1="952.5" y1="1183.6" x2="952.5" y2="945.7" stroke="#e6ddc4" stroke-width="17.3" stroke-linecap="round"/><circle cx="952.5" cy="945.7" r="17.3" fill="#bda15a"/><line x1="952.5" y1="1183.6" x2="1013.3" y2="971.5" stroke="#e6ddc4" stroke-width="17.3" stroke-linecap="round"/><circle cx="1013.3" cy="971.5" r="17.3" fill="#bda15a"/><line x1="952.5" y1="1183.6" x2="1060.3" y2="1011.2" stroke="#e6ddc4" stroke-width="17.3" stroke-linecap="round"/><circle cx="1060.3" cy="1011.2" r="17.3" fill="#bda15a"/><line x1="952.5" y1="1183.6" x2="1090.8" y2="1059.1" stroke="#e6ddc4" stroke-width="17.3" stroke-linecap="round"/><circle cx="1090.8" cy="1059.1" r="17.3" fill="#bda15a"/><line x1="952.5" y1="1183.6" x2="1104.3" y2="1109.6" stroke="#e6ddc4" stroke-width="17.3" stroke-linecap="round"/><circle cx="1104.3" cy="1109.6" r="17.3" fill="#bda15a"/><line x1="1447.5" y1="1394.7" x2="1447.5" y2="1192.2" stroke="#e6ddc4" stroke-width="22.1"/><line x1="1447.5" y1="1192.2" x2="1301.9" y2="1121.2" stroke="#e6ddc4" stroke-width="16.6" stroke-linecap="round"/><circle cx="1301.9" cy="1121.2" r="16.6" fill="#bda15a"/><line x1="1447.5" y1="1192.2" x2="1314.8" y2="1072.7" stroke="#e6ddc4" stroke-width="16.6" stroke-linecap="round"/><circle cx="1314.8" cy="1072.7" r="16.6" fill="#bda15a"/><line x1="1447.5" y1="1192.2" x2="1344.1" y2="1026.7" stroke="#e6ddc4" stroke-width="16.6" stroke-linecap="round"/><circle cx="1344.1" cy="1026.7" r="16.6" fill="#bda15a"/><line x1="1447.5" y1="1192.2" x2="1389.1" y2="988.7" stroke="#e6ddc4" stroke-width="16.6" stroke-linecap="round"/><circle cx="1389.1" cy="988.7" r="16.6" fill="#bda15a"/><line x1="1447.5" y1="1192.2" x2="1447.5" y2="963.9" stroke="#e6ddc4" stroke-width="16.6" stroke-linecap="round"/><circle cx="1447.5" cy="963.9" r="16.6" fill="#bda15a"/><line x1="1447.5" y1="1192.2" x2="1505.9" y2="988.7" stroke="#e6ddc4" stroke-width="16.6" stroke-linecap="round"/><circle cx="1505.9" cy="988.7" r="16.6" fill="#bda15a"/><line x1="1447.5" y1="1192.2" x2="1550.9" y2="1026.7" stroke="#e6ddc4" stroke-width="16.6" stroke-linecap="round"/><circle cx="1550.9" cy="1026.7" r="16.6" fill="#bda15a"/><line x1="1447.5" y1="1192.2" x2="1580.2" y2="1072.7" stroke="#e6ddc4" stroke-width="16.6" stroke-linecap="round"/><circle cx="1580.2" cy="1072.7" r="16.6" fill="#bda15a"/><line x1="1447.5" y1="1192.2" x2="1593.1" y2="1121.2" stroke="#e6ddc4" stroke-width="16.6" stroke-linecap="round"/><circle cx="1593.1" cy="1121.2" r="16.6" fill="#bda15a"/><line x1="1942.5" y1="1394.7" x2="1942.5" y2="1186.9" stroke="#e6ddc4" stroke-width="22.7"/><line x1="1942.5" y1="1186.9" x2="1793.1" y2="1114.1" stroke="#e6ddc4" stroke-width="17" stroke-linecap="round"/><circle cx="1793.1" cy="1114.1" r="17" fill="#bda15a"/><line x1="1942.5" y1="1186.9" x2="1806.3" y2="1064.3" stroke="#e6ddc4" stroke-width="17" stroke-linecap="round"/><circle cx="1806.3" cy="1064.3" r="17" fill="#bda15a"/><line x1="1942.5" y1="1186.9" x2="1836.4" y2="1017.1" stroke="#e6ddc4" stroke-width="17" stroke-linecap="round"/><circle cx="1836.4" cy="1017.1" r="17" fill="#bda15a"/><line x1="1942.5" y1="1186.9" x2="1882.6" y2="978.1" stroke="#e6ddc4" stroke-width="17" stroke-linecap="round"/><circle cx="1882.6" cy="978.1" r="17" fill="#bda15a"/><line x1="1942.5" y1="1186.9" x2="1942.5" y2="952.7" stroke="#e6ddc4" stroke-width="17" stroke-linecap="round"/><circle cx="1942.5" cy="952.7" r="17" fill="#bda15a"/><line x1="1942.5" y1="1186.9" x2="2002.4" y2="978.1" stroke="#e6ddc4" stroke-width="17" stroke-linecap="round"/><circle cx="2002.4" cy="978.1" r="17" fill="#bda15a"/><line x1="1942.5" y1="1186.9" x2="2048.6" y2="1017.1" stroke="#e6ddc4" stroke-width="17" stroke-linecap="round"/><circle cx="2048.6" cy="1017.1" r="17" fill="#bda15a"/><line x1="1942.5" y1="1186.9" x2="2078.7" y2="1064.3" stroke="#e6ddc4" stroke-width="17" stroke-linecap="round"/><circle cx="2078.7" cy="1064.3" r="17" fill="#bda15a"/><line x1="1942.5" y1="1186.9" x2="2091.9" y2="1114.1" stroke="#e6ddc4" stroke-width="17" stroke-linecap="round"/><circle cx="2091.9" cy="1114.1" r="17" fill="#bda15a"/><path d="M0 0 Q 74.9 -116.4 0 -306.3 Q -74.9 -116.4 0 0 Z" fill="#e6ddc4" opacity="1" transform="translate(457.5 1979.7) rotate(-58)"/><path d="M0 0 Q 74.9 -137.2 0 -361.2 Q -74.9 -137.2 0 0 Z" fill="#bda15a" opacity="1" transform="translate(457.5 1979.7) rotate(-29)"/><path d="M0 0 Q 74.9 -158.1 0 -416 Q -74.9 -158.1 0 0 Z" fill="#e6ddc4" opacity="1" transform="translate(457.5 1979.7) rotate(0)"/><path d="M0 0 Q 74.9 -137.2 0 -361.2 Q -74.9 -137.2 0 0 Z" fill="#bda15a" opacity="1" transform="translate(457.5 1979.7) rotate(29)"/><path d="M0 0 Q 74.9 -116.4 0 -306.3 Q -74.9 -116.4 0 0 Z" fill="#e6ddc4" opacity="1" transform="translate(457.5 1979.7) rotate(58)"/><path d="M332.7,1979.7 Q457.5,2121.1 582.3,1979.7 Z" fill="#e6ddc4"/><path d="M0 0 Q 62.9 -119.5 0 -314.4 Q -62.9 -119.5 0 0 Z" fill="#bda15a" opacity="1" transform="translate(952.5 1979.7) rotate(0)"/><line x1="952.5" y1="1979.7" x2="952.5" y2="2026.5" stroke="#e6ddc4" stroke-width="19.7"/><path d="M0 0 Q 73.2 -113.8 0 -299.4 Q -73.2 -113.8 0 0 Z" fill="#e6ddc4" opacity="1" transform="translate(1447.5 1979.7) rotate(-58)"/><path d="M0 0 Q 73.2 -134.1 0 -352.9 Q -73.2 -134.1 0 0 Z" fill="#bda15a" opacity="1" transform="translate(1447.5 1979.7) rotate(-29)"/><path d="M0 0 Q 73.2 -154.5 0 -406.5 Q -73.2 -154.5 0 0 Z" fill="#e6ddc4" opacity="1" transform="translate(1447.5 1979.7) rotate(0)"/><path d="M0 0 Q 73.2 -134.1 0 -352.9 Q -73.2 -134.1 0 0 Z" fill="#bda15a" opacity="1" transform="translate(1447.5 1979.7) rotate(29)"/><path d="M0 0 Q 73.2 -113.8 0 -299.4 Q -73.2 -113.8 0 0 Z" fill="#e6ddc4" opacity="1" transform="translate(1447.5 1979.7) rotate(58)"/><path d="M1325.5,1979.7 Q1447.5,2117.9 1569.5,1979.7 Z" fill="#e6ddc4"/><path d="M0 0 Q 61.9 -117.6 0 -309.5 Q -61.9 -117.6 0 0 Z" fill="#bda15a" opacity="1" transform="translate(1942.5 1979.7) rotate(0)"/><line x1="1942.5" y1="1979.7" x2="1942.5" y2="2026.5" stroke="#e6ddc4" stroke-width="19.3"/><line x1="457.5" y1="2564.7" x2="457.5" y2="2351.4" stroke="#e6ddc4" stroke-width="23.3"/><line x1="457.5" y1="2351.4" x2="304.1" y2="2276.5" stroke="#e6ddc4" stroke-width="17.5" stroke-linecap="round"/><circle cx="304.1" cy="2276.5" r="17.5" fill="#bda15a"/><line x1="457.5" y1="2351.4" x2="317.7" y2="2225.5" stroke="#e6ddc4" stroke-width="17.5" stroke-linecap="round"/><circle cx="317.7" cy="2225.5" r="17.5" fill="#bda15a"/><line x1="457.5" y1="2351.4" x2="348.6" y2="2177" stroke="#e6ddc4" stroke-width="17.5" stroke-linecap="round"/><circle cx="348.6" cy="2177" r="17.5" fill="#bda15a"/><line x1="457.5" y1="2351.4" x2="396" y2="2137" stroke="#e6ddc4" stroke-width="17.5" stroke-linecap="round"/><circle cx="396" cy="2137" r="17.5" fill="#bda15a"/><line x1="457.5" y1="2351.4" x2="457.5" y2="2110.9" stroke="#e6ddc4" stroke-width="17.5" stroke-linecap="round"/><circle cx="457.5" cy="2110.9" r="17.5" fill="#bda15a"/><line x1="457.5" y1="2351.4" x2="519" y2="2137" stroke="#e6ddc4" stroke-width="17.5" stroke-linecap="round"/><circle cx="519" cy="2137" r="17.5" fill="#bda15a"/><line x1="457.5" y1="2351.4" x2="566.4" y2="2177" stroke="#e6ddc4" stroke-width="17.5" stroke-linecap="round"/><circle cx="566.4" cy="2177" r="17.5" fill="#bda15a"/><line x1="457.5" y1="2351.4" x2="597.3" y2="2225.5" stroke="#e6ddc4" stroke-width="17.5" stroke-linecap="round"/><circle cx="597.3" cy="2225.5" r="17.5" fill="#bda15a"/><line x1="457.5" y1="2351.4" x2="610.9" y2="2276.5" stroke="#e6ddc4" stroke-width="17.5" stroke-linecap="round"/><circle cx="610.9" cy="2276.5" r="17.5" fill="#bda15a"/><line x1="952.5" y1="2564.7" x2="952.5" y2="2358.7" stroke="#e6ddc4" stroke-width="22.5"/><line x1="952.5" y1="2358.7" x2="804.4" y2="2286.5" stroke="#e6ddc4" stroke-width="16.9" stroke-linecap="round"/><circle cx="804.4" cy="2286.5" r="16.9" fill="#bda15a"/><line x1="952.5" y1="2358.7" x2="817.5" y2="2237.2" stroke="#e6ddc4" stroke-width="16.9" stroke-linecap="round"/><circle cx="817.5" cy="2237.2" r="16.9" fill="#bda15a"/><line x1="952.5" y1="2358.7" x2="847.3" y2="2190.4" stroke="#e6ddc4" stroke-width="16.9" stroke-linecap="round"/><circle cx="847.3" cy="2190.4" r="16.9" fill="#bda15a"/><line x1="952.5" y1="2358.7" x2="893.1" y2="2151.7" stroke="#e6ddc4" stroke-width="16.9" stroke-linecap="round"/><circle cx="893.1" cy="2151.7" r="16.9" fill="#bda15a"/><line x1="952.5" y1="2358.7" x2="952.5" y2="2126.6" stroke="#e6ddc4" stroke-width="16.9" stroke-linecap="round"/><circle cx="952.5" cy="2126.6" r="16.9" fill="#bda15a"/><line x1="952.5" y1="2358.7" x2="1011.9" y2="2151.7" stroke="#e6ddc4" stroke-width="16.9" stroke-linecap="round"/><circle cx="1011.9" cy="2151.7" r="16.9" fill="#bda15a"/><line x1="952.5" y1="2358.7" x2="1057.7" y2="2190.4" stroke="#e6ddc4" stroke-width="16.9" stroke-linecap="round"/><circle cx="1057.7" cy="2190.4" r="16.9" fill="#bda15a"/><line x1="952.5" y1="2358.7" x2="1087.5" y2="2237.2" stroke="#e6ddc4" stroke-width="16.9" stroke-linecap="round"/><circle cx="1087.5" cy="2237.2" r="16.9" fill="#bda15a"/><line x1="952.5" y1="2358.7" x2="1100.6" y2="2286.5" stroke="#e6ddc4" stroke-width="16.9" stroke-linecap="round"/><circle cx="1100.6" cy="2286.5" r="16.9" fill="#bda15a"/><line x1="1447.5" y1="2564.7" x2="1447.5" y2="2354.7" stroke="#e6ddc4" stroke-width="22.9"/><line x1="1447.5" y1="2354.7" x2="1296.5" y2="2281.1" stroke="#e6ddc4" stroke-width="17.2" stroke-linecap="round"/><circle cx="1296.5" cy="2281.1" r="17.2" fill="#bda15a"/><line x1="1447.5" y1="2354.7" x2="1309.9" y2="2230.8" stroke="#e6ddc4" stroke-width="17.2" stroke-linecap="round"/><circle cx="1309.9" cy="2230.8" r="17.2" fill="#bda15a"/><line x1="1447.5" y1="2354.7" x2="1340.3" y2="2183.1" stroke="#e6ddc4" stroke-width="17.2" stroke-linecap="round"/><circle cx="1340.3" cy="2183.1" r="17.2" fill="#bda15a"/><line x1="1447.5" y1="2354.7" x2="1387" y2="2143.7" stroke="#e6ddc4" stroke-width="17.2" stroke-linecap="round"/><circle cx="1387" cy="2143.7" r="17.2" fill="#bda15a"/><line x1="1447.5" y1="2354.7" x2="1447.5" y2="2118" stroke="#e6ddc4" stroke-width="17.2" stroke-linecap="round"/><circle cx="1447.5" cy="2118" r="17.2" fill="#bda15a"/><line x1="1447.5" y1="2354.7" x2="1508" y2="2143.7" stroke="#e6ddc4" stroke-width="17.2" stroke-linecap="round"/><circle cx="1508" cy="2143.7" r="17.2" fill="#bda15a"/><line x1="1447.5" y1="2354.7" x2="1554.7" y2="2183.1" stroke="#e6ddc4" stroke-width="17.2" stroke-linecap="round"/><circle cx="1554.7" cy="2183.1" r="17.2" fill="#bda15a"/><line x1="1447.5" y1="2354.7" x2="1585.1" y2="2230.8" stroke="#e6ddc4" stroke-width="17.2" stroke-linecap="round"/><circle cx="1585.1" cy="2230.8" r="17.2" fill="#bda15a"/><line x1="1447.5" y1="2354.7" x2="1598.5" y2="2281.1" stroke="#e6ddc4" stroke-width="17.2" stroke-linecap="round"/><circle cx="1598.5" cy="2281.1" r="17.2" fill="#bda15a"/><line x1="1942.5" y1="2564.7" x2="1942.5" y2="2358.6" stroke="#e6ddc4" stroke-width="22.5"/><line x1="1942.5" y1="2358.6" x2="1794.3" y2="2286.3" stroke="#e6ddc4" stroke-width="16.9" stroke-linecap="round"/><circle cx="1794.3" cy="2286.3" r="16.9" fill="#bda15a"/><line x1="1942.5" y1="2358.6" x2="1807.4" y2="2237" stroke="#e6ddc4" stroke-width="16.9" stroke-linecap="round"/><circle cx="1807.4" cy="2237" r="16.9" fill="#bda15a"/><line x1="1942.5" y1="2358.6" x2="1837.2" y2="2190.1" stroke="#e6ddc4" stroke-width="16.9" stroke-linecap="round"/><circle cx="1837.2" cy="2190.1" r="16.9" fill="#bda15a"/><line x1="1942.5" y1="2358.6" x2="1883.1" y2="2151.4" stroke="#e6ddc4" stroke-width="16.9" stroke-linecap="round"/><circle cx="1883.1" cy="2151.4" r="16.9" fill="#bda15a"/><line x1="1942.5" y1="2358.6" x2="1942.5" y2="2126.2" stroke="#e6ddc4" stroke-width="16.9" stroke-linecap="round"/><circle cx="1942.5" cy="2126.2" r="16.9" fill="#bda15a"/><line x1="1942.5" y1="2358.6" x2="2001.9" y2="2151.4" stroke="#e6ddc4" stroke-width="16.9" stroke-linecap="round"/><circle cx="2001.9" cy="2151.4" r="16.9" fill="#bda15a"/><line x1="1942.5" y1="2358.6" x2="2047.8" y2="2190.1" stroke="#e6ddc4" stroke-width="16.9" stroke-linecap="round"/><circle cx="2047.8" cy="2190.1" r="16.9" fill="#bda15a"/><line x1="1942.5" y1="2358.6" x2="2077.6" y2="2237" stroke="#e6ddc4" stroke-width="16.9" stroke-linecap="round"/><circle cx="2077.6" cy="2237" r="16.9" fill="#bda15a"/><line x1="1942.5" y1="2358.6" x2="2090.7" y2="2286.3" stroke="#e6ddc4" stroke-width="16.9" stroke-linecap="round"/><circle cx="2090.7" cy="2286.3" r="16.9" fill="#bda15a"/><rect x="100" y="100" width="2200" height="2800" fill="none" stroke="#e6ddc4" stroke-width="9"/><rect x="142" y="142" width="2116" height="2716" fill="none" stroke="#e6ddc4" stroke-width="3" opacity="0.65"/></svg></svg>