<svg xmlns="http://www.w3.org/2000/svg" width="2400" height="1800" viewBox="0 0 2400 1800"><rect width="2400" height="1800" fill="#e9e1d2"/><rect y="1430" width="2400" height="370" fill="#c8b190"/><line x1="120" y1="1430" x2="60" y2="1800" stroke="#00000018" stroke-width="6"/><line x1="380" y1="1430" x2="320" y2="1800" stroke="#00000018" stroke-width="6"/><line x1="640" y1="1430" x2="580" y2="1800" stroke="#00000018" stroke-width="6"/><line x1="900" y1="1430" x2="840" y2="1800" stroke="#00000018" stroke-width="6"/><line x1="1160" y1="1430" x2="1100" y2="1800" stroke="#00000018" stroke-width="6"/><line x1="1420" y1="1430" x2="1360" y2="1800" stroke="#00000018" stroke-width="6"/><line x1="1680" y1="1430" x2="1620" y2="1800" stroke="#00000018" stroke-width="6"/><line x1="1940" y1="1430" x2="1880" y2="1800" stroke="#00000018" stroke-width="6"/><line x1="2200" y1="1430" x2="2140" y2="1800" stroke="#00000018" stroke-width="6"/><rect y="1418" width="2400" height="16" fill="#d7cbb6"/><rect x="700" y="980" width="1000" height="460" rx="26" fill="#a87e57"/><rect x="660" y="1290" width="1080" height="210" rx="30" fill="#f1ebdf"/><rect x="660" y="1420" width="1080" height="120" rx="24" fill="#96a396" opacity="0.85"/><rect x="770" y="1180" width="300" height="150" rx="40" fill="#faf6ec"/><rect x="1330" y="1180" width="300" height="150" rx="40" fill="#cfc7b2"/><rect x="640" y="1530" width="1120" height="26" rx="12" fill="#a87e57"/><rect x="360" y="1260" width="240" height="220" rx="10" fill="#a87e57"/><rect x="380" y="1300" width="200" height="14" fill="#00000022"/><line x1="480" y1="1260" x2="480" y2="1130" stroke="#5a4632" stroke-width="12"/><path d="M410,1130 L550,1130 L520,1020 L440,1020 Z" fill="#96a396"/><path d="M2060,1520 Q 1910,1282.5 1835,1345" fill="none" stroke="#5d7052" stroke-width="20" stroke-linecap="round"/><path d="M2060,1520 Q 1960,1282.5 1910,1295" fill="none" stroke="#5d7052" stroke-width="20" stroke-linecap="round"/><path d="M2060,1520 Q 2010,1282.5 1985,1245" fill="none" stroke="#5d7052" stroke-width="20" stroke-linecap="round"/><path d="M2060,1520 Q 2060,1282.5 2060,1195" fill="none" stroke="#5d7052" stroke-width="20" stroke-linecap="round"/><path d="M2060,1520 Q 2110,1282.5 2135,1245" fill="none" stroke="#5d7052" stroke-width="20" stroke-linecap="round"/><path d="M2060,1520 Q 2160,1282.5 2210,1295" fill="none" stroke="#5d7052" stroke-width="20" stroke-linecap="round"/><path d="M2060,1520 Q 2210,1282.5 2285,1345" fill="none" stroke="#5d7052" stroke-width="20" stroke-linecap="round"/><path d="M1972.5,1520 L2147.5,1520 L2125,1657.5 L1995,1657.5 Z" fill="#a9714d"/><defs><filter id="a5b-sh" x="-30%" y="-30%" width="160%" height="160%"><feGaussianBlur stdDeviation="16"/></filter></defs><rect x="928" y="246" width="572" height="702" fill="#000" opacity="0.28" filter="url(#a5b-sh)"/><rect x="914" y="224" width="572" height="702" fill="#4a3d2f"/><rect x="930.9" y="240.9" width="538.2" height="668.2" fill="none" stroke="#00000055" stroke-width="3"/><rect x="940" y="250" width="520" height="650" fill="#f6f2ea"/><svg x="979" y="289" width="442" height="572" viewBox="0 0 2400 3000" preserveAspectRatio="xMidYMid slice"><rect width="2400" height="3000" fill="#e7e1d3"/><radialGradient id="a5-vig" cx="50%" cy="42%" r="80%"><stop offset="55%" stop-color="#000" stop-opacity="0"/><stop offset="100%" stop-color="#000" stop-opacity="0.15"/></radialGradient><rect width="2400" height="3000" fill="url(#a5-vig)"/><circle cx="380.5" cy="1348.6" r="4.3" fill="#39685c" opacity="0.036"/><circle cx="1992.5" cy="839.1" r="4.1" fill="#39685c" opacity="0.053"/><circle cx="1172.7" cy="2110.4" r="3.4" fill="#39685c" opacity="0.062"/><circle cx="2033.9" cy="696.9" r="2.3" fill="#39685c" opacity="0.073"/><circle cx="2163.2" cy="847.5" r="2.7" fill="#39685c" opacity="0.053"/><circle cx="1558.8" cy="2638.5" r="2.6" fill="#39685c" opacity="0.074"/><circle cx="2174.8" cy="2550.5" r="2.5" fill="#39685c" opacity="0.070"/><circle cx="1167.3" cy="1119.3" r="4" fill="#39685c" opacity="0.049"/><circle cx="2052.3" cy="2523.3" r="3.8" fill="#39685c" opacity="0.033"/><circle cx="524.9" cy="158" r="2.3" fill="#39685c" opacity="0.072"/><circle cx="510.9" cy="637.7" r="1.9" fill="#39685c" opacity="0.079"/><circle cx="224.7" cy="2016.5" r="1.6" fill="#39685c" opacity="0.069"/><circle cx="1737.8" cy="1730.9" r="4.3" fill="#39685c" opacity="0.077"/><circle cx="1278.7" cy="814.7" r="4.4" fill="#39685c" opacity="0.068"/><circle cx="1310.7" cy="2805.5" r="3.7" fill="#39685c" opacity="0.035"/><circle cx="133.5" cy="1720.2" r="4.5" fill="#39685c" opacity="0.060"/><circle cx="1507.9" cy="709.9" r="3.3" fill="#39685c" opacity="0.074"/><circle cx="1571" cy="280.3" r="3" fill="#39685c" opacity="0.034"/><circle cx="772.7" cy="2887.1" r="1.7" fill="#39685c" opacity="0.056"/><circle cx="1522.2" cy="546.9" r="4.5" fill="#39685c" opacity="0.066"/><circle cx="2055.2" cy="607.1" r="3.7" fill="#39685c" opacity="0.036"/><circle cx="211.3" cy="450.1" r="2.6" fill="#39685c" opacity="0.078"/><circle cx="1985.3" cy="2650" r="2.3" fill="#39685c" opacity="0.056"/><circle cx="1506.1" cy="2433.6" r="4.5" fill="#39685c" opacity="0.036"/><circle cx="1042.3" cy="915.1" r="1.9" fill="#39685c" opacity="0.068"/><circle cx="1242.4" cy="775.1" r="3.2" fill="#39685c" opacity="0.050"/><circle cx="119.6" cy="334.3" r="3.5" fill="#39685c" opacity="0.042"/><circle cx="2299.7" cy="2210.1" r="1.7" fill="#39685c" opacity="0.074"/><circle cx="1783.3" cy="88.4" r="2.6" fill="#39685c" opacity="0.072"/><circle cx="981.1" cy="425.2" r="2.9" fill="#39685c" opacity="0.037"/><circle cx="2262.7" cy="931.8" r="4.1" fill="#39685c" opacity="0.041"/><circle cx="936.7" cy="2264.8" r="4.4" fill="#39685c" opacity="0.058"/><circle cx="2122" cy="1585.1" r="4.5" fill="#39685c" opacity="0.045"/><circle cx="1061.9" cy="146.6" r="3.7" fill="#39685c" opacity="0.061"/><circle cx="183.1" cy="1807.4" r="1.6" fill="#39685c" opacity="0.069"/><circle cx="1994.2" cy="368.6" r="3" fill="#39685c" opacity="0.078"/><circle cx="315.4" cy="1635.5" r="4.3" fill="#39685c" opacity="0.060"/><circle cx="231.3" cy="1151.9" r="3.4" fill="#39685c" opacity="0.069"/><circle cx="676" cy="1943.1" r="4.1" fill="#39685c" opacity="0.061"/><circle cx="1235.1" cy="335.5" r="2.3" fill="#39685c" opacity="0.077"/><circle cx="1128.8" cy="410.3" r="2.1" fill="#39685c" opacity="0.044"/><circle cx="1076" cy="47.4" r="2.9" fill="#39685c" opacity="0.074"/><circle cx="1387.7" cy="588.4" r="3.4" fill="#39685c" opacity="0.039"/><circle cx="1189.8" cy="1197.5" r="3.2" fill="#39685c" opacity="0.044"/><circle cx="2266.3" cy="1722.4" r="4.5" fill="#39685c" opacity="0.075"/><circle cx="2259.1" cy="717.5" r="2.1" fill="#39685c" opacity="0.031"/><circle cx="1983.2" cy="2522.5" r="4.4" fill="#39685c" opacity="0.064"/><circle cx="1582.8" cy="2480.4" r="2.8" fill="#39685c" opacity="0.031"/><circle cx="2080" cy="1060" r="4.2" fill="#39685c" opacity="0.034"/><circle cx="796.1" cy="2141.9" r="3.9" fill="#39685c" opacity="0.056"/><circle cx="260.7" cy="2006.2" r="3.9" fill="#39685c" opacity="0.060"/><circle cx="1750" cy="2847.9" r="3.9" fill="#39685c" opacity="0.070"/><circle cx="450.4" cy="2096.2" r="4.2" fill="#39685c" opacity="0.067"/><circle cx="1737.9" cy="1531.2" r="4.4" fill="#39685c" opacity="0.044"/><circle cx="1186.4" cy="78.2" r="3.7" fill="#39685c" opacity="0.049"/><circle cx="1782.9" cy="2343.8" r="3.7" fill="#39685c" opacity="0.057"/><circle cx="912.9" cy="1177.8" r="2.7" fill="#39685c" opacity="0.037"/><circle cx="1403.5" cy="385.6" r="3.7" fill="#39685c" opacity="0.045"/><circle cx="1212.7" cy="312.4" r="3.9" fill="#39685c" opacity="0.052"/><circle cx="2146.9" cy="648.9" r="3.4" fill="#39685c" opacity="0.064"/><circle cx="718.8" cy="705.8" r="1.7" fill="#39685c" opacity="0.067"/><circle cx="1071.8" cy="1963" r="1.9" fill="#39685c" opacity="0.038"/><circle cx="1964.3" cy="2192.8" r="1.9" fill="#39685c" opacity="0.070"/><circle cx="1546.8" cy="2811.9" r="2.8" fill="#39685c" opacity="0.056"/><circle cx="752.4" cy="621.9" r="3.2" fill="#39685c" opacity="0.053"/><circle cx="2241.9" cy="857.8" r="1.9" fill="#39685c" opacity="0.042"/><circle cx="572.8" cy="971.2" r="2.5" fill="#39685c" opacity="0.030"/><circle cx="826" cy="1471.1" r="3.5" fill="#39685c" opacity="0.065"/><circle cx="953.8" cy="2249.5" r="2.3" fill="#39685c" opacity="0.071"/><circle cx="1409.7" cy="1015.6" r="2.7" fill="#39685c" opacity="0.039"/><circle cx="56.5" cy="1625" r="4.3" fill="#39685c" opacity="0.040"/><circle cx="2079.3" cy="142.5" r="1.8" fill="#39685c" opacity="0.035"/><circle cx="1286.6" cy="1013" r="3.9" fill="#39685c" opacity="0.066"/><circle cx="659.5" cy="1874.2" r="3.7" fill="#39685c" opacity="0.046"/><circle cx="1137.7" cy="1452.7" r="1.6" fill="#39685c" opacity="0.064"/><circle cx="1695.2" cy="2558.9" r="3" fill="#39685c" opacity="0.032"/><circle cx="1221.2" cy="2350.9" r="3.1" fill="#39685c" opacity="0.036"/><circle cx="1845.2" cy="670.3" r="4.2" fill="#39685c" opacity="0.060"/><circle cx="121.9" cy="2248.1" r="3.6" fill="#39685c" opacity="0.044"/><circle cx="2305.5" cy="82.3" r="4" fill="#39685c" opacity="0.052"/><path d="M283,271 L 357,271 L 357,197 L 298.9,197 L 298.9,242.8 L 328.8,242.8 L 328.8,219.9 M371,271 L 445,271 L 445,197 L 386.9,197 L 386.9,242.8 L 416.8,242.8 L 416.8,219.9 M459,271 L 533,271 L 533,197 L 474.9,197 L 474.9,242.8 L 504.8,242.8 L 504.8,219.9 M547,271 L 621,271 L 621,197 L 562.9,197 L 562.9,242.8 L 592.8,242.8 L 592.8,219.9 M635,271 L 709,271 L 709,197 L 650.9,197 L 650.9,242.8 L 680.8,242.8 L 680.8,219.9 M723,271 L 797,271 L 797,197 L 738.9,197 L 738.9,242.8 L 768.8,242.8 L 768.8,219.9 M811,271 L 885,271 L 885,197 L 826.9,197 L 826.9,242.8 L 856.8,242.8 L 856.8,219.9 M899,271 L 973,271 L 973,197 L 914.9,197 L 914.9,242.8 L 944.8,242.8 L 944.8,219.9 M987,271 L 1061,271 L 1061,197 L 1002.9,197 L 1002.9,242.8 L 1032.8,242.8 L 1032.8,219.9 M1075,271 L 1149,271 L 1149,197 L 1090.9,197 L 1090.9,242.8 L 1120.8,242.8 L 1120.8,219.9 M1163,271 L 1237,271 L 1237,197 L 1178.9,197 L 1178.9,242.8 L 1208.8,242.8 L 1208.8,219.9 M1251,271 L 1325,271 L 1325,197 L 1266.9,197 L 1266.9,242.8 L 1296.8,242.8 L 1296.8,219.9 M1339,271 L 1413,271 L 1413,197 L 1354.9,197 L 1354.9,242.8 L 1384.8,242.8 L 1384.8,219.9 M1427,271 L 1501,271 L 1501,197 L 1442.9,197 L 1442.9,242.8 L 1472.8,242.8 L 1472.8,219.9 M1515,271 L 1589,271 L 1589,197 L 1530.9,197 L 1530.9,242.8 L 1560.8,242.8 L 1560.8,219.9 M1603,271 L 1677,271 L 1677,197 L 1618.9,197 L 1618.9,242.8 L 1648.8,242.8 L 1648.8,219.9 M1691,271 L 1765,271 L 1765,197 L 1706.9,197 L 1706.9,242.8 L 1736.8,242.8 L 1736.8,219.9 M1779,271 L 1853,271 L 1853,197 L 1794.9,197 L 1794.9,242.8 L 1824.8,242.8 L 1824.8,219.9 M1867,271 L 1941,271 L 1941,197 L 1882.9,197 L 1882.9,242.8 L 1912.8,242.8 L 1912.8,219.9 M1955,271 L 2029,271 L 2029,197 L 1970.9,197 L 1970.9,242.8 L 2000.8,242.8 L 2000.8,219.9 M2043,271 L 2117,271 L 2117,197 L 2058.9,197 L 2058.9,242.8 L 2088.8,242.8 L 2088.8,219.9 " fill="none" stroke="#39685c" stroke-width="11.4"/><line x1="240" y1="2796" x2="2160" y2="2796" stroke="#39685c" stroke-width="7.7"/><polyline points="287.8,2749.9 287.3,2750.6 287,2751.5 287,2752.5 287.3,2753.7 288.1,2754.8 289.2,2755.7 290.7,2756.3 292.4,2756.5 294.3,2756.3 296.1,2755.4 297.8,2754.1 299.2,2752.2 300.1,2749.9 300.4,2747.3 300.1,2744.6 299,2741.9 297.1,2739.5 294.6,2737.5 291.6,2736.1 288.2,2735.5 284.5,2735.7 280.9,2736.9 277.6,2739 274.8,2742 272.7,2745.7 271.6,2749.9 271.5,2754.5 272.6,2759 274.8,2763.3 278.1,2767.1 282.3,2770 287.3,2771.8 292.7,2772.4 298.2,2771.7 303.5,2769.6 308.3,2766.2 312.2,2761.6 315,2756.1 316.4,2749.9 316.2,2743.4 314.4,2737.1 311.1,2731.1 306.4,2726.1 300.4,2722.3 293.6,2720 286.2,2719.3 278.8,2720.5 271.7,2723.5 265.5,2728.2 260.4,2734.4 257,2741.8 255.4,2749.9" fill="none" stroke="#39685c" stroke-width="8.6" stroke-linecap="round" stroke-linejoin="round"/><polyline points="383.8,2749.9 383.3,2750.6 383,2751.5 383,2752.5 383.3,2753.7 384.1,2754.8 385.2,2755.7 386.7,2756.3 388.4,2756.5 390.3,2756.3 392.1,2755.4 393.8,2754.1 395.2,2752.2 396.1,2749.9 396.4,2747.3 396.1,2744.6 395,2741.9 393.1,2739.5 390.6,2737.5 387.6,2736.1 384.2,2735.5 380.5,2735.7 376.9,2736.9 373.6,2739 370.8,2742 368.7,2745.7 367.6,2749.9 367.5,2754.5 368.6,2759 370.8,2763.3 374.1,2767.1 378.3,2770 383.3,2771.8 388.7,2772.4 394.2,2771.7 399.5,2769.6 404.3,2766.2 408.2,2761.6 411,2756.1 412.4,2749.9 412.2,2743.4 410.4,2737.1 407.1,2731.1 402.4,2726.1 396.4,2722.3 389.6,2720 382.2,2719.3 374.8,2720.5 367.7,2723.5 361.5,2728.2 356.4,2734.4 353,2741.8 351.4,2749.9" fill="none" stroke="#39685c" stroke-width="8.6" stroke-linecap="round" stroke-linejoin="round"/><polyline points="479.8,2749.9 479.3,2750.6 479,2751.5 479,2752.5 479.3,2753.7 480.1,2754.8 481.2,2755.7 482.7,2756.3 484.4,2756.5 486.3,2756.3 488.1,2755.4 489.8,2754.1 491.2,2752.2 492.1,2749.9 492.4,2747.3 492.1,2744.6 491,2741.9 489.1,2739.5 486.6,2737.5 483.6,2736.1 480.2,2735.5 476.5,2735.7 472.9,2736.9 469.6,2739 466.8,2742 464.7,2745.7 463.6,2749.9 463.5,2754.5 464.6,2759 466.8,2763.3 470.1,2767.1 474.3,2770 479.3,2771.8 484.7,2772.4 490.2,2771.7 495.5,2769.6 500.3,2766.2 504.2,2761.6 507,2756.1 508.4,2749.9 508.2,2743.4 506.4,2737.1 503.1,2731.1 498.4,2726.1 492.4,2722.3 485.6,2720 478.2,2719.3 470.8,2720.5 463.7,2723.5 457.5,2728.2 452.4,2734.4 449,2741.8 447.4,2749.9" fill="none" stroke="#39685c" stroke-width="8.6" stroke-linecap="round" stroke-linejoin="round"/><polyline points="575.8,2749.9 575.3,2750.6 575,2751.5 575,2752.5 575.3,2753.7 576.1,2754.8 577.2,2755.7 578.7,2756.3 580.4,2756.5 582.3,2756.3 584.1,2755.4 585.8,2754.1 587.2,2752.2 588.1,2749.9 588.4,2747.3 588.1,2744.6 587,2741.9 585.1,2739.5 582.6,2737.5 579.6,2736.1 576.2,2735.5 572.5,2735.7 568.9,2736.9 565.6,2739 562.8,2742 560.7,2745.7 559.6,2749.9 559.5,2754.5 560.6,2759 562.8,2763.3 566.1,2767.1 570.3,2770 575.3,2771.8 580.7,2772.4 586.2,2771.7 591.5,2769.6 596.3,2766.2 600.2,2761.6 603,2756.1 604.4,2749.9 604.2,2743.4 602.4,2737.1 599.1,2731.1 594.4,2726.1 588.4,2722.3 581.6,2720 574.2,2719.3 566.8,2720.5 559.7,2723.5 553.5,2728.2 548.4,2734.4 545,2741.8 543.4,2749.9" fill="none" stroke="#39685c" stroke-width="8.6" stroke-linecap="round" stroke-linejoin="round"/><polyline points="671.8,2749.9 671.3,2750.6 671,2751.5 671,2752.5 671.3,2753.7 672.1,2754.8 673.2,2755.7 674.7,2756.3 676.4,2756.5 678.3,2756.3 680.1,2755.4 681.8,2754.1 683.2,2752.2 684.1,2749.9 684.4,2747.3 684.1,2744.6 683,2741.9 681.1,2739.5 678.6,2737.5 675.6,2736.1 672.2,2735.5 668.5,2735.7 664.9,2736.9 661.6,2739 658.8,2742 656.7,2745.7 655.6,2749.9 655.5,2754.5 656.6,2759 658.8,2763.3 662.1,2767.1 666.3,2770 671.3,2771.8 676.7,2772.4 682.2,2771.7 687.5,2769.6 692.3,2766.2 696.2,2761.6 699,2756.1 700.4,2749.9 700.2,2743.4 698.4,2737.1 695.1,2731.1 690.4,2726.1 684.4,2722.3 677.6,2720 670.2,2719.3 662.8,2720.5 655.7,2723.5 649.5,2728.2 644.4,2734.4 641,2741.8 639.4,2749.9" fill="none" stroke="#39685c" stroke-width="8.6" stroke-linecap="round" stroke-linejoin="round"/><polyline points="767.8,2749.9 767.3,2750.6 767,2751.5 767,2752.5 767.3,2753.7 768.1,2754.8 769.2,2755.7 770.7,2756.3 772.4,2756.5 774.3,2756.3 776.1,2755.4 777.8,2754.1 779.2,2752.2 780.1,2749.9 780.4,2747.3 780.1,2744.6 779,2741.9 777.1,2739.5 774.6,2737.5 771.6,2736.1 768.2,2735.5 764.5,2735.7 760.9,2736.9 757.6,2739 754.8,2742 752.7,2745.7 751.6,2749.9 751.5,2754.5 752.6,2759 754.8,2763.3 758.1,2767.1 762.3,2770 767.3,2771.8 772.7,2772.4 778.2,2771.7 783.5,2769.6 788.3,2766.2 792.2,2761.6 795,2756.1 796.4,2749.9 796.2,2743.4 794.4,2737.1 791.1,2731.1 786.4,2726.1 780.4,2722.3 773.6,2720 766.2,2719.3 758.8,2720.5 751.7,2723.5 745.5,2728.2 740.4,2734.4 737,2741.8 735.4,2749.9" fill="none" stroke="#39685c" stroke-width="8.6" stroke-linecap="round" stroke-linejoin="round"/><polyline points="863.8,2749.9 863.3,2750.6 863,2751.5 863,2752.5 863.3,2753.7 864.1,2754.8 865.2,2755.7 866.7,2756.3 868.4,2756.5 870.3,2756.3 872.1,2755.4 873.8,2754.1 875.2,2752.2 876.1,2749.9 876.4,2747.3 876.1,2744.6 875,2741.9 873.1,2739.5 870.6,2737.5 867.6,2736.1 864.2,2735.5 860.5,2735.7 856.9,2736.9 853.6,2739 850.8,2742 848.7,2745.7 847.6,2749.9 847.5,2754.5 848.6,2759 850.8,2763.3 854.1,2767.1 858.3,2770 863.3,2771.8 868.7,2772.4 874.2,2771.7 879.5,2769.6 884.3,2766.2 888.2,2761.6 891,2756.1 892.4,2749.9 892.2,2743.4 890.4,2737.1 887.1,2731.1 882.4,2726.1 876.4,2722.3 869.6,2720 862.2,2719.3 854.8,2720.5 847.7,2723.5 841.5,2728.2 836.4,2734.4 833,2741.8 831.4,2749.9" fill="none" stroke="#39685c" stroke-width="8.6" stroke-linecap="round" stroke-linejoin="round"/><polyline points="959.8,2749.9 959.3,2750.6 959,2751.5 959,2752.5 959.3,2753.7 960.1,2754.8 961.2,2755.7 962.7,2756.3 964.4,2756.5 966.3,2756.3 968.1,2755.4 969.8,2754.1 971.2,2752.2 972.1,2749.9 972.4,2747.3 972.1,2744.6 971,2741.9 969.1,2739.5 966.6,2737.5 963.6,2736.1 960.2,2735.5 956.5,2735.7 952.9,2736.9 949.6,2739 946.8,2742 944.7,2745.7 943.6,2749.9 943.5,2754.5 944.6,2759 946.8,2763.3 950.1,2767.1 954.3,2770 959.3,2771.8 964.7,2772.4 970.2,2771.7 975.5,2769.6 980.3,2766.2 984.2,2761.6 987,2756.1 988.4,2749.9 988.2,2743.4 986.4,2737.1 983.1,2731.1 978.4,2726.1 972.4,2722.3 965.6,2720 958.2,2719.3 950.8,2720.5 943.7,2723.5 937.5,2728.2 932.4,2734.4 929,2741.8 927.4,2749.9" fill="none" stroke="#39685c" stroke-width="8.6" stroke-linecap="round" stroke-linejoin="round"/><polyline points="1055.8,2749.9 1055.3,2750.6 1055,2751.5 1055,2752.5 1055.3,2753.7 1056.1,2754.8 1057.2,2755.7 1058.7,2756.3 1060.4,2756.5 1062.3,2756.3 1064.1,2755.4 1065.8,2754.1 1067.2,2752.2 1068.1,2749.9 1068.4,2747.3 1068.1,2744.6 1067,2741.9 1065.1,2739.5 1062.6,2737.5 1059.6,2736.1 1056.2,2735.5 1052.5,2735.7 1048.9,2736.9 1045.6,2739 1042.8,2742 1040.7,2745.7 1039.6,2749.9 1039.5,2754.5 1040.6,2759 1042.8,2763.3 1046.1,2767.1 1050.3,2770 1055.3,2771.8 1060.7,2772.4 1066.2,2771.7 1071.5,2769.6 1076.3,2766.2 1080.2,2761.6 1083,2756.1 1084.4,2749.9 1084.2,2743.4 1082.4,2737.1 1079.1,2731.1 1074.4,2726.1 1068.4,2722.3 1061.6,2720 1054.2,2719.3 1046.8,2720.5 1039.7,2723.5 1033.5,2728.2 1028.4,2734.4 1025,2741.8 1023.4,2749.9" fill="none" stroke="#39685c" stroke-width="8.6" stroke-linecap="round" stroke-linejoin="round"/><polyline points="1151.8,2749.9 1151.3,2750.6 1151,2751.5 1151,2752.5 1151.3,2753.7 1152.1,2754.8 1153.2,2755.7 1154.7,2756.3 1156.4,2756.5 1158.3,2756.3 1160.1,2755.4 1161.8,2754.1 1163.2,2752.2 1164.1,2749.9 1164.4,2747.3 1164.1,2744.6 1163,2741.9 1161.1,2739.5 1158.6,2737.5 1155.6,2736.1 1152.2,2735.5 1148.5,2735.7 1144.9,2736.9 1141.6,2739 1138.8,2742 1136.7,2745.7 1135.6,2749.9 1135.5,2754.5 1136.6,2759 1138.8,2763.3 1142.1,2767.1 1146.3,2770 1151.3,2771.8 1156.7,2772.4 1162.2,2771.7 1167.5,2769.6 1172.3,2766.2 1176.2,2761.6 1179,2756.1 1180.4,2749.9 1180.2,2743.4 1178.4,2737.1 1175.1,2731.1 1170.4,2726.1 1164.4,2722.3 1157.6,2720 1150.2,2719.3 1142.8,2720.5 1135.7,2723.5 1129.5,2728.2 1124.4,2734.4 1121,2741.8 1119.4,2749.9" fill="none" stroke="#39685c" stroke-width="8.6" stroke-linecap="round" stroke-linejoin="round"/><polyline points="1247.8,2749.9 1247.3,2750.6 1247,2751.5 1247,2752.5 1247.3,2753.7 1248.1,2754.8 1249.2,2755.7 1250.7,2756.3 1252.4,2756.5 1254.3,2756.3 1256.1,2755.4 1257.8,2754.1 1259.2,2752.2 1260.1,2749.9 1260.4,2747.3 1260.1,2744.6 1259,2741.9 1257.1,2739.5 1254.6,2737.5 1251.6,2736.1 1248.2,2735.5 1244.5,2735.7 1240.9,2736.9 1237.6,2739 1234.8,2742 1232.7,2745.7 1231.6,2749.9 1231.5,2754.5 1232.6,2759 1234.8,2763.3 1238.1,2767.1 1242.3,2770 1247.3,2771.8 1252.7,2772.4 1258.2,2771.7 1263.5,2769.6 1268.3,2766.2 1272.2,2761.6 1275,2756.1 1276.4,2749.9 1276.2,2743.4 1274.4,2737.1 1271.1,2731.1 1266.4,2726.1 1260.4,2722.3 1253.6,2720 1246.2,2719.3 1238.8,2720.5 1231.7,2723.5 1225.5,2728.2 1220.4,2734.4 1217,2741.8 1215.4,2749.9" fill="none" stroke="#39685c" stroke-width="8.6" stroke-linecap="round" stroke-linejoin="round"/><polyline points="1343.8,2749.9 1343.3,2750.6 1343,2751.5 1343,2752.5 1343.3,2753.7 1344.1,2754.8 1345.2,2755.7 1346.7,2756.3 1348.4,2756.5 1350.3,2756.3 1352.1,2755.4 1353.8,2754.1 1355.2,2752.2 1356.1,2749.9 1356.4,2747.3 1356.1,2744.6 1355,2741.9 1353.1,2739.5 1350.6,2737.5 1347.6,2736.1 1344.2,2735.5 1340.5,2735.7 1336.9,2736.9 1333.6,2739 1330.8,2742 1328.7,2745.7 1327.6,2749.9 1327.5,2754.5 1328.6,2759 1330.8,2763.3 1334.1,2767.1 1338.3,2770 1343.3,2771.8 1348.7,2772.4 1354.2,2771.7 1359.5,2769.6 1364.3,2766.2 1368.2,2761.6 1371,2756.1 1372.4,2749.9 1372.2,2743.4 1370.4,2737.1 1367.1,2731.1 1362.4,2726.1 1356.4,2722.3 1349.6,2720 1342.2,2719.3 1334.8,2720.5 1327.7,2723.5 1321.5,2728.2 1316.4,2734.4 1313,2741.8 1311.4,2749.9" fill="none" stroke="#39685c" stroke-width="8.6" stroke-linecap="round" stroke-linejoin="round"/><polyline points="1439.8,2749.9 1439.3,2750.6 1439,2751.5 1439,2752.5 1439.3,2753.7 1440.1,2754.8 1441.2,2755.7 1442.7,2756.3 1444.4,2756.5 1446.3,2756.3 1448.1,2755.4 1449.8,2754.1 1451.2,2752.2 1452.1,2749.9 1452.4,2747.3 1452.1,2744.6 1451,2741.9 1449.1,2739.5 1446.6,2737.5 1443.6,2736.1 1440.2,2735.5 1436.5,2735.7 1432.9,2736.9 1429.6,2739 1426.8,2742 1424.7,2745.7 1423.6,2749.9 1423.5,2754.5 1424.6,2759 1426.8,2763.3 1430.1,2767.1 1434.3,2770 1439.3,2771.8 1444.7,2772.4 1450.2,2771.7 1455.5,2769.6 1460.3,2766.2 1464.2,2761.6 1467,2756.1 1468.4,2749.9 1468.2,2743.4 1466.4,2737.1 1463.1,2731.1 1458.4,2726.1 1452.4,2722.3 1445.6,2720 1438.2,2719.3 1430.8,2720.5 1423.7,2723.5 1417.5,2728.2 1412.4,2734.4 1409,2741.8 1407.4,2749.9" fill="none" stroke="#39685c" stroke-width="8.6" stroke-linecap="round" stroke-linejoin="round"/><polyline points="1535.8,2749.9 1535.3,2750.6 1535,2751.5 1535,2752.5 1535.3,2753.7 1536.1,2754.8 1537.2,2755.7 1538.7,2756.3 1540.4,2756.5 1542.3,2756.3 1544.1,2755.4 1545.8,2754.1 1547.2,2752.2 1548.1,2749.9 1548.4,2747.3 1548.1,2744.6 1547,2741.9 1545.1,2739.5 1542.6,2737.5 1539.6,2736.1 1536.2,2735.5 1532.5,2735.7 1528.9,2736.9 1525.6,2739 1522.8,2742 1520.7,2745.7 1519.6,2749.9 1519.5,2754.5 1520.6,2759 1522.8,2763.3 1526.1,2767.1 1530.3,2770 1535.3,2771.8 1540.7,2772.4 1546.2,2771.7 1551.5,2769.6 1556.3,2766.2 1560.2,2761.6 1563,2756.1 1564.4,2749.9 1564.2,2743.4 1562.4,2737.1 1559.1,2731.1 1554.4,2726.1 1548.4,2722.3 1541.6,2720 1534.2,2719.3 1526.8,2720.5 1519.7,2723.5 1513.5,2728.2 1508.4,2734.4 1505,2741.8 1503.4,2749.9" fill="none" stroke="#39685c" stroke-width="8.6" stroke-linecap="round" stroke-linejoin="round"/><polyline points="1631.8,2749.9 1631.3,2750.6 1631,2751.5 1631,2752.5 1631.3,2753.7 1632.1,2754.8 1633.2,2755.7 1634.7,2756.3 1636.4,2756.5 1638.3,2756.3 1640.1,2755.4 1641.8,2754.1 1643.2,2752.2 1644.1,2749.9 1644.4,2747.3 1644.1,2744.6 1643,2741.9 1641.1,2739.5 1638.6,2737.5 1635.6,2736.1 1632.2,2735.5 1628.5,2735.7 1624.9,2736.9 1621.6,2739 1618.8,2742 1616.7,2745.7 1615.6,2749.9 1615.5,2754.5 1616.6,2759 1618.8,2763.3 1622.1,2767.1 1626.3,2770 1631.3,2771.8 1636.7,2772.4 1642.2,2771.7 1647.5,2769.6 1652.3,2766.2 1656.2,2761.6 1659,2756.1 1660.4,2749.9 1660.2,2743.4 1658.4,2737.1 1655.1,2731.1 1650.4,2726.1 1644.4,2722.3 1637.6,2720 1630.2,2719.3 1622.8,2720.5 1615.7,2723.5 1609.5,2728.2 1604.4,2734.4 1601,2741.8 1599.4,2749.9" fill="none" stroke="#39685c" stroke-width="8.6" stroke-linecap="round" stroke-linejoin="round"/><polyline points="1727.8,2749.9 1727.3,2750.6 1727,2751.5 1727,2752.5 1727.3,2753.7 1728.1,2754.8 1729.2,2755.7 1730.7,2756.3 1732.4,2756.5 1734.3,2756.3 1736.1,2755.4 1737.8,2754.1 1739.2,2752.2 1740.1,2749.9 1740.4,2747.3 1740.1,2744.6 1739,2741.9 1737.1,2739.5 1734.6,2737.5 1731.6,2736.1 1728.2,2735.5 1724.5,2735.7 1720.9,2736.9 1717.6,2739 1714.8,2742 1712.7,2745.7 1711.6,2749.9 1711.5,2754.5 1712.6,2759 1714.8,2763.3 1718.1,2767.1 1722.3,2770 1727.3,2771.8 1732.7,2772.4 1738.2,2771.7 1743.5,2769.6 1748.3,2766.2 1752.2,2761.6 1755,2756.1 1756.4,2749.9 1756.2,2743.4 1754.4,2737.1 1751.1,2731.1 1746.4,2726.1 1740.4,2722.3 1733.6,2720 1726.2,2719.3 1718.8,2720.5 1711.7,2723.5 1705.5,2728.2 1700.4,2734.4 1697,2741.8 1695.4,2749.9" fill="none" stroke="#39685c" stroke-width="8.6" stroke-linecap="round" stroke-linejoin="round"/><polyline points="1823.8,2749.9 1823.3,2750.6 1823,2751.5 1823,2752.5 1823.3,2753.7 1824.1,2754.8 1825.2,2755.7 1826.7,2756.3 1828.4,2756.5 1830.3,2756.3 1832.1,2755.4 1833.8,2754.1 1835.2,2752.2 1836.1,2749.9 1836.4,2747.3 1836.1,2744.6 1835,2741.9 1833.1,2739.5 1830.6,2737.5 1827.6,2736.1 1824.2,2735.5 1820.5,2735.7 1816.9,2736.9 1813.6,2739 1810.8,2742 1808.7,2745.7 1807.6,2749.9 1807.5,2754.5 1808.6,2759 1810.8,2763.3 1814.1,2767.1 1818.3,2770 1823.3,2771.8 1828.7,2772.4 1834.2,2771.7 1839.5,2769.6 1844.3,2766.2 1848.2,2761.6 1851,2756.1 1852.4,2749.9 1852.2,2743.4 1850.4,2737.1 1847.1,2731.1 1842.4,2726.1 1836.4,2722.3 1829.6,2720 1822.2,2719.3 1814.8,2720.5 1807.7,2723.5 1801.5,2728.2 1796.4,2734.4 1793,2741.8 1791.4,2749.9" fill="none" stroke="#39685c" stroke-width="8.6" stroke-linecap="round" stroke-linejoin="round"/><polyline points="1919.8,2749.9 1919.3,2750.6 1919,2751.5 1919,2752.5 1919.3,2753.7 1920.1,2754.8 1921.2,2755.7 1922.7,2756.3 1924.4,2756.5 1926.3,2756.3 1928.1,2755.4 1929.8,2754.1 1931.2,2752.2 1932.1,2749.9 1932.4,2747.3 1932.1,2744.6 1931,2741.9 1929.1,2739.5 1926.6,2737.5 1923.6,2736.1 1920.2,2735.5 1916.5,2735.7 1912.9,2736.9 1909.6,2739 1906.8,2742 1904.7,2745.7 1903.6,2749.9 1903.5,2754.5 1904.6,2759 1906.8,2763.3 1910.1,2767.1 1914.3,2770 1919.3,2771.8 1924.7,2772.4 1930.2,2771.7 1935.5,2769.6 1940.3,2766.2 1944.2,2761.6 1947,2756.1 1948.4,2749.9 1948.2,2743.4 1946.4,2737.1 1943.1,2731.1 1938.4,2726.1 1932.4,2722.3 1925.6,2720 1918.2,2719.3 1910.8,2720.5 1903.7,2723.5 1897.5,2728.2 1892.4,2734.4 1889,2741.8 1887.4,2749.9" fill="none" stroke="#39685c" stroke-width="8.6" stroke-linecap="round" stroke-linejoin="round"/><polyline points="2015.8,2749.9 2015.3,2750.6 2015,2751.5 2015,2752.5 2015.3,2753.7 2016.1,2754.8 2017.2,2755.7 2018.7,2756.3 2020.4,2756.5 2022.3,2756.3 2024.1,2755.4 2025.8,2754.1 2027.2,2752.2 2028.1,2749.9 2028.4,2747.3 2028.1,2744.6 2027,2741.9 2025.1,2739.5 2022.6,2737.5 2019.6,2736.1 2016.2,2735.5 2012.5,2735.7 2008.9,2736.9 2005.6,2739 2002.8,2742 2000.7,2745.7 1999.6,2749.9 1999.5,2754.5 2000.6,2759 2002.8,2763.3 2006.1,2767.1 2010.3,2770 2015.3,2771.8 2020.7,2772.4 2026.2,2771.7 2031.5,2769.6 2036.3,2766.2 2040.2,2761.6 2043,2756.1 2044.4,2749.9 2044.2,2743.4 2042.4,2737.1 2039.1,2731.1 2034.4,2726.1 2028.4,2722.3 2021.6,2720 2014.2,2719.3 2006.8,2720.5 1999.7,2723.5 1993.5,2728.2 1988.4,2734.4 1985,2741.8 1983.4,2749.9" fill="none" stroke="#39685c" stroke-width="8.6" stroke-linecap="round" stroke-linejoin="round"/><polyline points="2111.8,2749.9 2111.3,2750.6 2111,2751.5 2111,2752.5 2111.3,2753.7 2112.1,2754.8 2113.2,2755.7 2114.7,2756.3 2116.4,2756.5 2118.3,2756.3 2120.1,2755.4 2121.8,2754.1 2123.2,2752.2 2124.1,2749.9 2124.4,2747.3 2124.1,2744.6 2123,2741.9 2121.1,2739.5 2118.6,2737.5 2115.6,2736.1 2112.2,2735.5 2108.5,2735.7 2104.9,2736.9 2101.6,2739 2098.8,2742 2096.7,2745.7 2095.6,2749.9 2095.5,2754.5 2096.6,2759 2098.8,2763.3 2102.1,2767.1 2106.3,2770 2111.3,2771.8 2116.7,2772.4 2122.2,2771.7 2127.5,2769.6 2132.3,2766.2 2136.2,2761.6 2139,2756.1 2140.4,2749.9 2140.2,2743.4 2138.4,2737.1 2135.1,2731.1 2130.4,2726.1 2124.4,2722.3 2117.6,2720 2110.2,2719.3 2102.8,2720.5 2095.7,2723.5 2089.5,2728.2 2084.4,2734.4 2081,2741.8 2079.4,2749.9" fill="none" stroke="#39685c" stroke-width="8.6" stroke-linecap="round" stroke-linejoin="round"/><rect x="640" y="2560" width="1120" height="34" fill="#39685c"/><rect x="540" y="2594" width="1320" height="26" fill="#39685c" opacity="0.75"/><path d="M1119,751.8 C859,691.8 603.5,1264.6 773.5,1424.6" fill="none" stroke="#39685c" stroke-width="52" stroke-linecap="round"/><path d="M1281,751.8 C1541,691.8 1796.5,1264.6 1626.5,1424.6" fill="none" stroke="#39685c" stroke-width="52" stroke-linecap="round"/><path d="M1119,651.8 C1079,1051.8 679.9,1252.9 679.9,1747 C679.9,2137.1 1055.8,2210 1085.8,2470 L1005.9,2530 L1005.9,2560 L1394.1,2560 L1394.1,2530 L1314.2,2470 C1344.2,2210 1720.1,2137.1 1720.1,1747 C1720.1,1252.9 1321,1051.8 1281,651.8 Z" fill="#39685c"/><rect x="1001.7" y="581.8" width="396.6" height="72" rx="22" fill="#39685c"/><clipPath id="a5-vase"><path d="M1119,651.8 C1079,1051.8 679.9,1252.9 679.9,1747 C679.9,2137.1 1055.8,2210 1085.8,2470 L1005.9,2530 L1005.9,2560 L1394.1,2560 L1394.1,2530 L1314.2,2470 C1344.2,2210 1720.1,2137.1 1720.1,1747 C1720.1,1252.9 1321,1051.8 1281,651.8 Z"/></clipPath><g clip-path="url(#a5-vase)"><path d="M701.4,1509.2 L 778.6,1509.2 L 778.6,1431.9 L 717.9,1431.9 L 717.9,1479.8 L 749.2,1479.8 L 749.2,1455.9 M793.4,1509.2 L 870.6,1509.2 L 870.6,1431.9 L 809.9,1431.9 L 809.9,1479.8 L 841.2,1479.8 L 841.2,1455.9 M885.4,1509.2 L 962.6,1509.2 L 962.6,1431.9 L 901.9,1431.9 L 901.9,1479.8 L 933.2,1479.8 L 933.2,1455.9 M977.4,1509.2 L 1054.6,1509.2 L 1054.6,1431.9 L 993.9,1431.9 L 993.9,1479.8 L 1025.2,1479.8 L 1025.2,1455.9 M1069.4,1509.2 L 1146.6,1509.2 L 1146.6,1431.9 L 1085.9,1431.9 L 1085.9,1479.8 L 1117.2,1479.8 L 1117.2,1455.9 M1161.4,1509.2 L 1238.6,1509.2 L 1238.6,1431.9 L 1177.9,1431.9 L 1177.9,1479.8 L 1209.2,1479.8 L 1209.2,1455.9 M1253.4,1509.2 L 1330.6,1509.2 L 1330.6,1431.9 L 1269.9,1431.9 L 1269.9,1479.8 L 1301.2,1479.8 L 1301.2,1455.9 M1345.4,1509.2 L 1422.6,1509.2 L 1422.6,1431.9 L 1361.9,1431.9 L 1361.9,1479.8 L 1393.2,1479.8 L 1393.2,1455.9 M1437.4,1509.2 L 1514.6,1509.2 L 1514.6,1431.9 L 1453.9,1431.9 L 1453.9,1479.8 L 1485.2,1479.8 L 1485.2,1455.9 M1529.4,1509.2 L 1606.6,1509.2 L 1606.6,1431.9 L 1545.9,1431.9 L 1545.9,1479.8 L 1577.2,1479.8 L 1577.2,1455.9 M1621.4,1509.2 L 1698.6,1509.2 L 1698.6,1431.9 L 1637.9,1431.9 L 1637.9,1479.8 L 1669.2,1479.8 L 1669.2,1455.9 " fill="none" stroke="#e7e1d3" stroke-width="12"/><line x1="679.9" y1="1554.6" x2="1720.1" y2="1554.6" stroke="#e7e1d3" stroke-width="10"/><line x1="679.8963209893554" y1="1897" x2="1720.1036790106446" y2="1897" stroke="#e7e1d3" stroke-width="8.8"/><polyline points="759.8,1844.2 759.2,1845 758.8,1846 758.8,1847.2 759.2,1848.5 760.1,1849.8 761.4,1850.9 763.1,1851.6 765.1,1851.8 767.2,1851.5 769.3,1850.6 771.3,1849 772.8,1846.9 773.9,1844.2 774.2,1841.3 773.8,1838.1 772.6,1835.1 770.5,1832.3 767.6,1830 764.1,1828.4 760.2,1827.7 756,1828 751.9,1829.3 748.1,1831.7 744.9,1835.1 742.5,1839.4 741.2,1844.2 741.1,1849.4 742.3,1854.7 744.9,1859.6 748.7,1863.9 753.5,1867.2 759.2,1869.3 765.3,1870 771.7,1869.2 777.8,1866.8 783.3,1862.9 787.8,1857.6 790.9,1851.3 792.5,1844.2 792.3,1836.8 790.3,1829.5 786.5,1822.7 781,1816.9 774.2,1812.6 766.4,1809.9 757.9,1809.2 749.4,1810.6 741.3,1814 734.2,1819.4 728.4,1826.5 724.4,1834.9 722.6,1844.2" fill="none" stroke="#e7e1d3" stroke-width="9.9" stroke-linecap="round" stroke-linejoin="round"/><polyline points="869.8,1844.2 869.2,1845 868.8,1846 868.8,1847.2 869.2,1848.5 870.1,1849.8 871.4,1850.9 873.1,1851.6 875.1,1851.8 877.2,1851.5 879.3,1850.6 881.3,1849 882.8,1846.9 883.9,1844.2 884.2,1841.3 883.8,1838.1 882.6,1835.1 880.5,1832.3 877.6,1830 874.1,1828.4 870.2,1827.7 866,1828 861.9,1829.3 858.1,1831.7 854.9,1835.1 852.5,1839.4 851.2,1844.2 851.1,1849.4 852.3,1854.7 854.9,1859.6 858.7,1863.9 863.5,1867.2 869.2,1869.3 875.3,1870 881.7,1869.2 887.8,1866.8 893.3,1862.9 897.8,1857.6 900.9,1851.3 902.5,1844.2 902.3,1836.8 900.3,1829.5 896.5,1822.7 891,1816.9 884.2,1812.6 876.4,1809.9 867.9,1809.2 859.4,1810.6 851.3,1814 844.2,1819.4 838.4,1826.5 834.4,1834.9 832.6,1844.2" fill="none" stroke="#e7e1d3" stroke-width="9.9" stroke-linecap="round" stroke-linejoin="round"/><polyline points="979.8,1844.2 979.2,1845 978.8,1846 978.8,1847.2 979.2,1848.5 980.1,1849.8 981.4,1850.9 983.1,1851.6 985.1,1851.8 987.2,1851.5 989.3,1850.6 991.3,1849 992.8,1846.9 993.9,1844.2 994.2,1841.3 993.8,1838.1 992.6,1835.1 990.5,1832.3 987.6,1830 984.1,1828.4 980.2,1827.7 976,1828 971.9,1829.3 968.1,1831.7 964.9,1835.1 962.5,1839.4 961.2,1844.2 961.1,1849.4 962.3,1854.7 964.9,1859.6 968.7,1863.9 973.5,1867.2 979.2,1869.3 985.3,1870 991.7,1869.2 997.8,1866.8 1003.3,1862.9 1007.8,1857.6 1010.9,1851.3 1012.5,1844.2 1012.3,1836.8 1010.3,1829.5 1006.5,1822.7 1001,1816.9 994.2,1812.6 986.4,1809.9 977.9,1809.2 969.4,1810.6 961.3,1814 954.2,1819.4 948.4,1826.5 944.4,1834.9 942.6,1844.2" fill="none" stroke="#e7e1d3" stroke-width="9.9" stroke-linecap="round" stroke-linejoin="round"/><polyline points="1089.8,1844.2 1089.2,1845 1088.8,1846 1088.8,1847.2 1089.2,1848.5 1090.1,1849.8 1091.4,1850.9 1093.1,1851.6 1095.1,1851.8 1097.2,1851.5 1099.3,1850.6 1101.3,1849 1102.8,1846.9 1103.9,1844.2 1104.2,1841.3 1103.8,1838.1 1102.6,1835.1 1100.5,1832.3 1097.6,1830 1094.1,1828.4 1090.2,1827.7 1086,1828 1081.9,1829.3 1078.1,1831.7 1074.9,1835.1 1072.5,1839.4 1071.2,1844.2 1071.1,1849.4 1072.3,1854.7 1074.9,1859.6 1078.7,1863.9 1083.5,1867.2 1089.2,1869.3 1095.3,1870 1101.7,1869.2 1107.8,1866.8 1113.3,1862.9 1117.8,1857.6 1120.9,1851.3 1122.5,1844.2 1122.3,1836.8 1120.3,1829.5 1116.5,1822.7 1111,1816.9 1104.2,1812.6 1096.4,1809.9 1087.9,1809.2 1079.4,1810.6 1071.3,1814 1064.2,1819.4 1058.4,1826.5 1054.4,1834.9 1052.6,1844.2" fill="none" stroke="#e7e1d3" stroke-width="9.9" stroke-linecap="round" stroke-linejoin="round"/><polyline points="1199.8,1844.2 1199.2,1845 1198.8,1846 1198.8,1847.2 1199.2,1848.5 1200.1,1849.8 1201.4,1850.9 1203.1,1851.6 1205.1,1851.8 1207.2,1851.5 1209.3,1850.6 1211.3,1849 1212.8,1846.9 1213.9,1844.2 1214.2,1841.3 1213.8,1838.1 1212.6,1835.1 1210.5,1832.3 1207.6,1830 1204.1,1828.4 1200.2,1827.7 1196,1828 1191.9,1829.3 1188.1,1831.7 1184.9,1835.1 1182.5,1839.4 1181.2,1844.2 1181.1,1849.4 1182.3,1854.7 1184.9,1859.6 1188.7,1863.9 1193.5,1867.2 1199.2,1869.3 1205.3,1870 1211.7,1869.2 1217.8,1866.8 1223.3,1862.9 1227.8,1857.6 1230.9,1851.3 1232.5,1844.2 1232.3,1836.8 1230.3,1829.5 1226.5,1822.7 1221,1816.9 1214.2,1812.6 1206.4,1809.9 1197.9,1809.2 1189.4,1810.6 1181.3,1814 1174.2,1819.4 1168.4,1826.5 1164.4,1834.9 1162.6,1844.2" fill="none" stroke="#e7e1d3" stroke-width="9.9" stroke-linecap="round" stroke-linejoin="round"/><polyline points="1309.8,1844.2 1309.2,1845 1308.8,1846 1308.8,1847.2 1309.2,1848.5 1310.1,1849.8 1311.4,1850.9 1313.1,1851.6 1315.1,1851.8 1317.2,1851.5 1319.3,1850.6 1321.3,1849 1322.8,1846.9 1323.9,1844.2 1324.2,1841.3 1323.8,1838.1 1322.6,1835.1 1320.5,1832.3 1317.6,1830 1314.1,1828.4 1310.2,1827.7 1306,1828 1301.9,1829.3 1298.1,1831.7 1294.9,1835.1 1292.5,1839.4 1291.2,1844.2 1291.1,1849.4 1292.3,1854.7 1294.9,1859.6 1298.7,1863.9 1303.5,1867.2 1309.2,1869.3 1315.3,1870 1321.7,1869.2 1327.8,1866.8 1333.3,1862.9 1337.8,1857.6 1340.9,1851.3 1342.5,1844.2 1342.3,1836.8 1340.3,1829.5 1336.5,1822.7 1331,1816.9 1324.2,1812.6 1316.4,1809.9 1307.9,1809.2 1299.4,1810.6 1291.3,1814 1284.2,1819.4 1278.4,1826.5 1274.4,1834.9 1272.6,1844.2" fill="none" stroke="#e7e1d3" stroke-width="9.9" stroke-linecap="round" stroke-linejoin="round"/><polyline points="1419.8,1844.2 1419.2,1845 1418.8,1846 1418.8,1847.2 1419.2,1848.5 1420.1,1849.8 1421.4,1850.9 1423.1,1851.6 1425.1,1851.8 1427.2,1851.5 1429.3,1850.6 1431.3,1849 1432.8,1846.9 1433.9,1844.2 1434.2,1841.3 1433.8,1838.1 1432.6,1835.1 1430.5,1832.3 1427.6,1830 1424.1,1828.4 1420.2,1827.7 1416,1828 1411.9,1829.3 1408.1,1831.7 1404.9,1835.1 1402.5,1839.4 1401.2,1844.2 1401.1,1849.4 1402.3,1854.7 1404.9,1859.6 1408.7,1863.9 1413.5,1867.2 1419.2,1869.3 1425.3,1870 1431.7,1869.2 1437.8,1866.8 1443.3,1862.9 1447.8,1857.6 1450.9,1851.3 1452.5,1844.2 1452.3,1836.8 1450.3,1829.5 1446.5,1822.7 1441,1816.9 1434.2,1812.6 1426.4,1809.9 1417.9,1809.2 1409.4,1810.6 1401.3,1814 1394.2,1819.4 1388.4,1826.5 1384.4,1834.9 1382.6,1844.2" fill="none" stroke="#e7e1d3" stroke-width="9.9" stroke-linecap="round" stroke-linejoin="round"/><polyline points="1529.8,1844.2 1529.2,1845 1528.8,1846 1528.8,1847.2 1529.2,1848.5 1530.1,1849.8 1531.4,1850.9 1533.1,1851.6 1535.1,1851.8 1537.2,1851.5 1539.3,1850.6 1541.3,1849 1542.8,1846.9 1543.9,1844.2 1544.2,1841.3 1543.8,1838.1 1542.6,1835.1 1540.5,1832.3 1537.6,1830 1534.1,1828.4 1530.2,1827.7 1526,1828 1521.9,1829.3 1518.1,1831.7 1514.9,1835.1 1512.5,1839.4 1511.2,1844.2 1511.1,1849.4 1512.3,1854.7 1514.9,1859.6 1518.7,1863.9 1523.5,1867.2 1529.2,1869.3 1535.3,1870 1541.7,1869.2 1547.8,1866.8 1553.3,1862.9 1557.8,1857.6 1560.9,1851.3 1562.5,1844.2 1562.3,1836.8 1560.3,1829.5 1556.5,1822.7 1551,1816.9 1544.2,1812.6 1536.4,1809.9 1527.9,1809.2 1519.4,1810.6 1511.3,1814 1504.2,1819.4 1498.4,1826.5 1494.4,1834.9 1492.6,1844.2" fill="none" stroke="#e7e1d3" stroke-width="9.9" stroke-linecap="round" stroke-linejoin="round"/><polyline points="1639.8,1844.2 1639.2,1845 1638.8,1846 1638.8,1847.2 1639.2,1848.5 1640.1,1849.8 1641.4,1850.9 1643.1,1851.6 1645.1,1851.8 1647.2,1851.5 1649.3,1850.6 1651.3,1849 1652.8,1846.9 1653.9,1844.2 1654.2,1841.3 1653.8,1838.1 1652.6,1835.1 1650.5,1832.3 1647.6,1830 1644.1,1828.4 1640.2,1827.7 1636,1828 1631.9,1829.3 1628.1,1831.7 1624.9,1835.1 1622.5,1839.4 1621.2,1844.2 1621.1,1849.4 1622.3,1854.7 1624.9,1859.6 1628.7,1863.9 1633.5,1867.2 1639.2,1869.3 1645.3,1870 1651.7,1869.2 1657.8,1866.8 1663.3,1862.9 1667.8,1857.6 1670.9,1851.3 1672.5,1844.2 1672.3,1836.8 1670.3,1829.5 1666.5,1822.7 1661,1816.9 1654.2,1812.6 1646.4,1809.9 1637.9,1809.2 1629.4,1810.6 1621.3,1814 1614.2,1819.4 1608.4,1826.5 1604.4,1834.9 1602.6,1844.2" fill="none" stroke="#e7e1d3" stroke-width="9.9" stroke-linecap="round" stroke-linejoin="round"/><line x1="679.9" y1="1957" x2="1720.1" y2="1957" stroke="#e7e1d3" stroke-width="10"/><path d="M727.5,2290 L795,2140 L862.5,2290 Z M862.5,2290 L930,2140 L997.5,2290 Z M997.5,2290 L1065,2140 L1132.5,2290 Z M1132.5,2290 L1200,2140 L1267.5,2290 Z M1267.5,2290 L1335,2140 L1402.5,2290 Z M1402.5,2290 L1470,2140 L1537.5,2290 Z M1537.5,2290 L1605,2140 L1672.5,2290 Z " fill="#e7e1d3"/><polyline points="1133,845.8 1200,791.8 1267,845.8 " fill="none" stroke="#e7e1d3" stroke-width="9.7" stroke-linejoin="miter"/></g><rect x="100" y="100" width="2200" height="2800" fill="none" stroke="#39685c" stroke-width="9"/><rect x="142" y="142" width="2116" height="2716" fill="none" stroke="#39685c" stroke-width="3" opacity="0.65"/></svg></svg>