<svg xmlns="http://www.w3.org/2000/svg" width="2400" height="1800" viewBox="0 0 2400 1800"><rect width="2400" height="1800" fill="#e9e1d2"/><rect y="1430" width="2400" height="370" fill="#c8b190"/><line x1="120" y1="1430" x2="60" y2="1800" stroke="#00000018" stroke-width="6"/><line x1="380" y1="1430" x2="320" y2="1800" stroke="#00000018" stroke-width="6"/><line x1="640" y1="1430" x2="580" y2="1800" stroke="#00000018" stroke-width="6"/><line x1="900" y1="1430" x2="840" y2="1800" stroke="#00000018" stroke-width="6"/><line x1="1160" y1="1430" x2="1100" y2="1800" stroke="#00000018" stroke-width="6"/><line x1="1420" y1="1430" x2="1360" y2="1800" stroke="#00000018" stroke-width="6"/><line x1="1680" y1="1430" x2="1620" y2="1800" stroke="#00000018" stroke-width="6"/><line x1="1940" y1="1430" x2="1880" y2="1800" stroke="#00000018" stroke-width="6"/><line x1="2200" y1="1430" x2="2140" y2="1800" stroke="#00000018" stroke-width="6"/><rect y="1418" width="2400" height="16" fill="#d7cbb6"/><rect x="700" y="980" width="1000" height="460" rx="26" fill="#a87e57"/><rect x="660" y="1290" width="1080" height="210" rx="30" fill="#f1ebdf"/><rect x="660" y="1420" width="1080" height="120" rx="24" fill="#b3502f" opacity="0.85"/><rect x="770" y="1180" width="300" height="150" rx="40" fill="#faf6ec"/><rect x="1330" y="1180" width="300" height="150" rx="40" fill="#cdb488"/><rect x="640" y="1530" width="1120" height="26" rx="12" fill="#a87e57"/><rect x="360" y="1260" width="240" height="220" rx="10" fill="#a87e57"/><rect x="380" y="1300" width="200" height="14" fill="#00000022"/><line x1="480" y1="1260" x2="480" y2="1130" stroke="#5a4632" stroke-width="12"/><path d="M410,1130 L550,1130 L520,1020 L440,1020 Z" fill="#b3502f"/><path d="M2060,1520 Q 1910,1282.5 1835,1345" fill="none" stroke="#5d7052" stroke-width="20" stroke-linecap="round"/><path d="M2060,1520 Q 1960,1282.5 1910,1295" fill="none" stroke="#5d7052" stroke-width="20" stroke-linecap="round"/><path d="M2060,1520 Q 2010,1282.5 1985,1245" fill="none" stroke="#5d7052" stroke-width="20" stroke-linecap="round"/><path d="M2060,1520 Q 2060,1282.5 2060,1195" fill="none" stroke="#5d7052" stroke-width="20" stroke-linecap="round"/><path d="M2060,1520 Q 2110,1282.5 2135,1245" fill="none" stroke="#5d7052" stroke-width="20" stroke-linecap="round"/><path d="M2060,1520 Q 2160,1282.5 2210,1295" fill="none" stroke="#5d7052" stroke-width="20" stroke-linecap="round"/><path d="M2060,1520 Q 2210,1282.5 2285,1345" fill="none" stroke="#5d7052" stroke-width="20" stroke-linecap="round"/><path d="M1972.5,1520 L2147.5,1520 L2125,1657.5 L1995,1657.5 Z" fill="#a9714d"/><defs><filter id="a97b-sh" x="-30%" y="-30%" width="160%" height="160%"><feGaussianBlur stdDeviation="16"/></filter></defs><rect x="928" y="246" width="572" height="702" fill="#000" opacity="0.28" filter="url(#a97b-sh)"/><rect x="914" y="224" width="572" height="702" fill="#4a3d2f"/><rect x="930.9" y="240.9" width="538.2" height="668.2" fill="none" stroke="#00000055" stroke-width="3"/><rect x="940" y="250" width="520" height="650" fill="#f6f2ea"/><svg x="979" y="289" width="442" height="572" viewBox="0 0 2400 3000" preserveAspectRatio="xMidYMid slice"><rect width="2400" height="3000" fill="#e4cfa4"/><radialGradient id="a97-vig" cx="50%" cy="42%" r="80%"><stop offset="55%" stop-color="#000" stop-opacity="0"/><stop offset="100%" stop-color="#000" stop-opacity="0.15"/></radialGradient><rect width="2400" height="3000" fill="url(#a97-vig)"/><circle cx="1641.5" cy="1310.9" r="2.5" fill="#6e421d" opacity="0.065"/><circle cx="178.5" cy="2624.4" r="4.4" fill="#6e421d" opacity="0.054"/><circle cx="330.7" cy="2586.5" r="4.3" fill="#6e421d" opacity="0.069"/><circle cx="1675.3" cy="2040.4" r="3.5" fill="#6e421d" opacity="0.072"/><circle cx="1954.5" cy="2547.8" r="2.7" fill="#6e421d" opacity="0.079"/><circle cx="866.7" cy="577.4" r="3.4" fill="#6e421d" opacity="0.034"/><circle cx="1757" cy="2884.8" r="2" fill="#6e421d" opacity="0.079"/><circle cx="617.7" cy="1617.9" r="2.2" fill="#6e421d" opacity="0.040"/><circle cx="957.9" cy="1046" r="3.3" fill="#6e421d" opacity="0.043"/><circle cx="1256.1" cy="1962.4" r="1.7" fill="#6e421d" opacity="0.034"/><circle cx="1987.8" cy="1270.6" r="2.3" fill="#6e421d" opacity="0.048"/><circle cx="1089.9" cy="212.7" r="2.6" fill="#6e421d" opacity="0.079"/><circle cx="2357.5" cy="2954.2" r="3.6" fill="#6e421d" opacity="0.036"/><circle cx="1830.3" cy="2434.7" r="1.8" fill="#6e421d" opacity="0.066"/><circle cx="909" cy="2710.1" r="3.8" fill="#6e421d" opacity="0.061"/><circle cx="2097.4" cy="1336.6" r="3.6" fill="#6e421d" opacity="0.054"/><circle cx="975.3" cy="2951.1" r="1.6" fill="#6e421d" opacity="0.064"/><circle cx="1176" cy="2208.8" r="2.7" fill="#6e421d" opacity="0.065"/><circle cx="942.7" cy="63.3" r="2.6" fill="#6e421d" opacity="0.059"/><circle cx="71.6" cy="603.3" r="4.3" fill="#6e421d" opacity="0.071"/><circle cx="194.3" cy="512.7" r="3.5" fill="#6e421d" opacity="0.066"/><circle cx="1834.7" cy="491.8" r="3.8" fill="#6e421d" opacity="0.042"/><circle cx="425.2" cy="2768.9" r="2.9" fill="#6e421d" opacity="0.073"/><circle cx="2008.8" cy="132.5" r="1.6" fill="#6e421d" opacity="0.065"/><circle cx="689.9" cy="970.8" r="3.8" fill="#6e421d" opacity="0.058"/><circle cx="1896" cy="1106.3" r="3.2" fill="#6e421d" opacity="0.075"/><circle cx="2142.1" cy="1488" r="2.7" fill="#6e421d" opacity="0.053"/><circle cx="412.5" cy="2301.3" r="4.1" fill="#6e421d" opacity="0.032"/><circle cx="73.9" cy="1784.4" r="2.6" fill="#6e421d" opacity="0.037"/><circle cx="2208.5" cy="1670" r="2.5" fill="#6e421d" opacity="0.037"/><circle cx="1660.9" cy="1190.7" r="3.1" fill="#6e421d" opacity="0.076"/><circle cx="1060.4" cy="2012.2" r="3.9" fill="#6e421d" opacity="0.039"/><circle cx="2155.4" cy="2673.9" r="3.6" fill="#6e421d" opacity="0.052"/><circle cx="2183.4" cy="564.2" r="1.9" fill="#6e421d" opacity="0.033"/><circle cx="369.9" cy="1304.3" r="2.7" fill="#6e421d" opacity="0.033"/><circle cx="2017.1" cy="2063.9" r="2" fill="#6e421d" opacity="0.036"/><circle cx="463.9" cy="175" r="2.9" fill="#6e421d" opacity="0.051"/><circle cx="469.1" cy="889.1" r="2" fill="#6e421d" opacity="0.065"/><circle cx="803.5" cy="2323.3" r="4.1" fill="#6e421d" opacity="0.046"/><circle cx="1147.4" cy="1230.2" r="1.6" fill="#6e421d" opacity="0.039"/><circle cx="593.8" cy="2415.4" r="2" fill="#6e421d" opacity="0.068"/><circle cx="219.4" cy="256.6" r="3.7" fill="#6e421d" opacity="0.038"/><circle cx="729.1" cy="931.8" r="4.1" fill="#6e421d" opacity="0.049"/><circle cx="1291.3" cy="2520.2" r="2.5" fill="#6e421d" opacity="0.070"/><circle cx="953.1" cy="2295.3" r="2.5" fill="#6e421d" opacity="0.062"/><circle cx="2202.9" cy="808.3" r="3.5" fill="#6e421d" opacity="0.039"/><circle cx="2221" cy="2725.2" r="1.5" fill="#6e421d" opacity="0.031"/><circle cx="1422.3" cy="706.4" r="3.6" fill="#6e421d" opacity="0.074"/><circle cx="1535.5" cy="360.6" r="4.5" fill="#6e421d" opacity="0.074"/><circle cx="351.8" cy="2053.6" r="3.1" fill="#6e421d" opacity="0.041"/><circle cx="399.7" cy="1819.4" r="2.5" fill="#6e421d" opacity="0.049"/><circle cx="503.9" cy="1741.2" r="3.3" fill="#6e421d" opacity="0.032"/><circle cx="930.6" cy="2934.2" r="4" fill="#6e421d" opacity="0.048"/><circle cx="1965.2" cy="966" r="2.4" fill="#6e421d" opacity="0.039"/><circle cx="1649.3" cy="194.4" r="2.5" fill="#6e421d" opacity="0.041"/><circle cx="1876.9" cy="1702.8" r="3.5" fill="#6e421d" opacity="0.057"/><circle cx="205.4" cy="279.6" r="3.4" fill="#6e421d" opacity="0.078"/><circle cx="2254.2" cy="439.7" r="3.5" fill="#6e421d" opacity="0.047"/><circle cx="682.7" cy="1640.9" r="4.3" fill="#6e421d" opacity="0.045"/><circle cx="500.9" cy="285.4" r="2.4" fill="#6e421d" opacity="0.066"/><circle cx="1754.7" cy="1690" r="3.5" fill="#6e421d" opacity="0.037"/><circle cx="1796" cy="1620" r="2.6" fill="#6e421d" opacity="0.059"/><circle cx="1728" cy="524.2" r="2.7" fill="#6e421d" opacity="0.042"/><circle cx="2325.7" cy="1206.1" r="2.6" fill="#6e421d" opacity="0.077"/><circle cx="643" cy="1831.6" r="3" fill="#6e421d" opacity="0.048"/><circle cx="712" cy="2491.8" r="4.3" fill="#6e421d" opacity="0.055"/><circle cx="2356" cy="2800.9" r="4.3" fill="#6e421d" opacity="0.036"/><circle cx="2189.6" cy="111.2" r="3" fill="#6e421d" opacity="0.062"/><circle cx="656" cy="798" r="2.5" fill="#6e421d" opacity="0.075"/><circle cx="1364.8" cy="1192" r="2.5" fill="#6e421d" opacity="0.042"/><circle cx="2253.7" cy="2013.9" r="3.3" fill="#6e421d" opacity="0.054"/><circle cx="982.9" cy="70" r="3" fill="#6e421d" opacity="0.053"/><circle cx="2342.8" cy="1799.9" r="3.8" fill="#6e421d" opacity="0.037"/><circle cx="1197.8" cy="2590.5" r="3.9" fill="#6e421d" opacity="0.061"/><circle cx="790.9" cy="1627.4" r="4" fill="#6e421d" opacity="0.062"/><circle cx="1859.1" cy="214.4" r="3.3" fill="#6e421d" opacity="0.054"/><circle cx="2142.2" cy="2545.9" r="3.1" fill="#6e421d" opacity="0.052"/><circle cx="824.1" cy="2100.6" r="2.8" fill="#6e421d" opacity="0.058"/><circle cx="270.6" cy="745.7" r="2" fill="#6e421d" opacity="0.051"/><circle cx="519.8" cy="532.6" r="2.5" fill="#6e421d" opacity="0.031"/><path d="M1184.7,1579.1 A130,130 0 1 1 1251.3,1569.5" fill="none" stroke="#6e421d" stroke-width="45.7" stroke-linecap="round"/><line x1="1164.7" y1="1575.1" x2="1135.1" y2="1679.8" stroke="#6e421d" stroke-width="45.7" stroke-linecap="round"/><path d="M1216.1,1211.8 A238.8,238.8 0 1 1 1094.8,1235.7" fill="none" stroke="#6e421d" stroke-width="45.7" stroke-linecap="round"/><line x1="1062.6" y1="1254.8" x2="1000" y2="1165.8" stroke="#6e421d" stroke-width="45.7" stroke-linecap="round"/><path d="M1184.1,1797.1 A347.5,347.5 0 1 1 1359.8,1758.6" fill="none" stroke="#6e421d" stroke-width="45.7" stroke-linecap="round"/><line x1="1130" y1="1790.4" x2="1108.1" y2="1896.9" stroke="#6e421d" stroke-width="45.7" stroke-linecap="round"/><path d="M1321.3,1010.2 A456.3,456.3 0 1 1 1085.2,1008.4" fill="none" stroke="#6e421d" stroke-width="45.7" stroke-linecap="round"/><line x1="1017.5" y1="1031.8" x2="974" y2="932.2" stroke="#6e421d" stroke-width="45.7" stroke-linecap="round"/><path d="M1111,2007.9 A565,565 0 1 1 1401.9,1977.7" fill="none" stroke="#6e421d" stroke-width="45.7" stroke-linecap="round"/><line x1="1024.8" y1="1987.1" x2="991.1" y2="2090.5" stroke="#6e421d" stroke-width="45.7" stroke-linecap="round"/><path d="M1235.8,777.2 A673.8,673.8 0 1 1 894.6,849.5" fill="none" stroke="#6e421d" stroke-width="45.7" stroke-linecap="round"/><line x1="804.4" y1="904.6" x2="740.5" y2="816.6" stroke="#6e421d" stroke-width="45.7" stroke-linecap="round"/><path d="M861.2,2155.4 A782.5,782.5 0 1 1 1259.3,2230.3" fill="none" stroke="#6e421d" stroke-width="45.7" stroke-linecap="round"/><line x1="755" y1="2093.7" x2="693.2" y2="2183.1" stroke="#6e421d" stroke-width="45.7" stroke-linecap="round"/><path d="M1557.3,633.5 A891.3,891.3 0 1 1 1101.2,564.2" fill="none" stroke="#6e421d" stroke-width="45.7" stroke-linecap="round"/><circle cx="1200" cy="1450" r="56" fill="#b3502f"/><path d="M324.7,287.3 L 395.3,287.3 L 395.3,216.7 L 339.8,216.7 L 339.8,260.4 L 368.4,260.4 L 368.4,238.6 M408.7,287.3 L 479.3,287.3 L 479.3,216.7 L 423.8,216.7 L 423.8,260.4 L 452.4,260.4 L 452.4,238.6 M492.7,287.3 L 563.3,287.3 L 563.3,216.7 L 507.8,216.7 L 507.8,260.4 L 536.4,260.4 L 536.4,238.6 M576.7,287.3 L 647.3,287.3 L 647.3,216.7 L 591.8,216.7 L 591.8,260.4 L 620.4,260.4 L 620.4,238.6 M660.7,287.3 L 731.3,287.3 L 731.3,216.7 L 675.8,216.7 L 675.8,260.4 L 704.4,260.4 L 704.4,238.6 M744.7,287.3 L 815.3,287.3 L 815.3,216.7 L 759.8,216.7 L 759.8,260.4 L 788.4,260.4 L 788.4,238.6 M828.7,287.3 L 899.3,287.3 L 899.3,216.7 L 843.8,216.7 L 843.8,260.4 L 872.4,260.4 L 872.4,238.6 M912.7,287.3 L 983.3,287.3 L 983.3,216.7 L 927.8,216.7 L 927.8,260.4 L 956.4,260.4 L 956.4,238.6 M996.7,287.3 L 1067.3,287.3 L 1067.3,216.7 L 1011.8,216.7 L 1011.8,260.4 L 1040.4,260.4 L 1040.4,238.6 M1080.7,287.3 L 1151.3,287.3 L 1151.3,216.7 L 1095.8,216.7 L 1095.8,260.4 L 1124.4,260.4 L 1124.4,238.6 M1164.7,287.3 L 1235.3,287.3 L 1235.3,216.7 L 1179.8,216.7 L 1179.8,260.4 L 1208.4,260.4 L 1208.4,238.6 M1248.7,287.3 L 1319.3,287.3 L 1319.3,216.7 L 1263.8,216.7 L 1263.8,260.4 L 1292.4,260.4 L 1292.4,238.6 M1332.7,287.3 L 1403.3,287.3 L 1403.3,216.7 L 1347.8,216.7 L 1347.8,260.4 L 1376.4,260.4 L 1376.4,238.6 M1416.7,287.3 L 1487.3,287.3 L 1487.3,216.7 L 1431.8,216.7 L 1431.8,260.4 L 1460.4,260.4 L 1460.4,238.6 M1500.7,287.3 L 1571.3,287.3 L 1571.3,216.7 L 1515.8,216.7 L 1515.8,260.4 L 1544.4,260.4 L 1544.4,238.6 M1584.7,287.3 L 1655.3,287.3 L 1655.3,216.7 L 1599.8,216.7 L 1599.8,260.4 L 1628.4,260.4 L 1628.4,238.6 M1668.7,287.3 L 1739.3,287.3 L 1739.3,216.7 L 1683.8,216.7 L 1683.8,260.4 L 1712.4,260.4 L 1712.4,238.6 M1752.7,287.3 L 1823.3,287.3 L 1823.3,216.7 L 1767.8,216.7 L 1767.8,260.4 L 1796.4,260.4 L 1796.4,238.6 M1836.7,287.3 L 1907.3,287.3 L 1907.3,216.7 L 1851.8,216.7 L 1851.8,260.4 L 1880.4,260.4 L 1880.4,238.6 M1920.7,287.3 L 1991.3,287.3 L 1991.3,216.7 L 1935.8,216.7 L 1935.8,260.4 L 1964.4,260.4 L 1964.4,238.6 M2004.7,287.3 L 2075.3,287.3 L 2075.3,216.7 L 2019.8,216.7 L 2019.8,260.4 L 2048.4,260.4 L 2048.4,238.6 " fill="none" stroke="#6e421d" stroke-width="10.9"/><path d="M324.7,2777.3 L 395.3,2777.3 L 395.3,2706.7 L 339.8,2706.7 L 339.8,2750.4 L 368.4,2750.4 L 368.4,2728.6 M408.7,2777.3 L 479.3,2777.3 L 479.3,2706.7 L 423.8,2706.7 L 423.8,2750.4 L 452.4,2750.4 L 452.4,2728.6 M492.7,2777.3 L 563.3,2777.3 L 563.3,2706.7 L 507.8,2706.7 L 507.8,2750.4 L 536.4,2750.4 L 536.4,2728.6 M576.7,2777.3 L 647.3,2777.3 L 647.3,2706.7 L 591.8,2706.7 L 591.8,2750.4 L 620.4,2750.4 L 620.4,2728.6 M660.7,2777.3 L 731.3,2777.3 L 731.3,2706.7 L 675.8,2706.7 L 675.8,2750.4 L 704.4,2750.4 L 704.4,2728.6 M744.7,2777.3 L 815.3,2777.3 L 815.3,2706.7 L 759.8,2706.7 L 759.8,2750.4 L 788.4,2750.4 L 788.4,2728.6 M828.7,2777.3 L 899.3,2777.3 L 899.3,2706.7 L 843.8,2706.7 L 843.8,2750.4 L 872.4,2750.4 L 872.4,2728.6 M912.7,2777.3 L 983.3,2777.3 L 983.3,2706.7 L 927.8,2706.7 L 927.8,2750.4 L 956.4,2750.4 L 956.4,2728.6 M996.7,2777.3 L 1067.3,2777.3 L 1067.3,2706.7 L 1011.8,2706.7 L 1011.8,2750.4 L 1040.4,2750.4 L 1040.4,2728.6 M1080.7,2777.3 L 1151.3,2777.3 L 1151.3,2706.7 L 1095.8,2706.7 L 1095.8,2750.4 L 1124.4,2750.4 L 1124.4,2728.6 M1164.7,2777.3 L 1235.3,2777.3 L 1235.3,2706.7 L 1179.8,2706.7 L 1179.8,2750.4 L 1208.4,2750.4 L 1208.4,2728.6 M1248.7,2777.3 L 1319.3,2777.3 L 1319.3,2706.7 L 1263.8,2706.7 L 1263.8,2750.4 L 1292.4,2750.4 L 1292.4,2728.6 M1332.7,2777.3 L 1403.3,2777.3 L 1403.3,2706.7 L 1347.8,2706.7 L 1347.8,2750.4 L 1376.4,2750.4 L 1376.4,2728.6 M1416.7,2777.3 L 1487.3,2777.3 L 1487.3,2706.7 L 1431.8,2706.7 L 1431.8,2750.4 L 1460.4,2750.4 L 1460.4,2728.6 M1500.7,2777.3 L 1571.3,2777.3 L 1571.3,2706.7 L 1515.8,2706.7 L 1515.8,2750.4 L 1544.4,2750.4 L 1544.4,2728.6 M1584.7,2777.3 L 1655.3,2777.3 L 1655.3,2706.7 L 1599.8,2706.7 L 1599.8,2750.4 L 1628.4,2750.4 L 1628.4,2728.6 M1668.7,2777.3 L 1739.3,2777.3 L 1739.3,2706.7 L 1683.8,2706.7 L 1683.8,2750.4 L 1712.4,2750.4 L 1712.4,2728.6 M1752.7,2777.3 L 1823.3,2777.3 L 1823.3,2706.7 L 1767.8,2706.7 L 1767.8,2750.4 L 1796.4,2750.4 L 1796.4,2728.6 M1836.7,2777.3 L 1907.3,2777.3 L 1907.3,2706.7 L 1851.8,2706.7 L 1851.8,2750.4 L 1880.4,2750.4 L 1880.4,2728.6 M1920.7,2777.3 L 1991.3,2777.3 L 1991.3,2706.7 L 1935.8,2706.7 L 1935.8,2750.4 L 1964.4,2750.4 L 1964.4,2728.6 M2004.7,2777.3 L 2075.3,2777.3 L 2075.3,2706.7 L 2019.8,2706.7 L 2019.8,2750.4 L 2048.4,2750.4 L 2048.4,2728.6 " fill="none" stroke="#6e421d" stroke-width="10.9"/><rect x="100" y="100" width="2200" height="2800" fill="none" stroke="#6e421d" stroke-width="9"/><rect x="142" y="142" width="2116" height="2716" fill="none" stroke="#6e421d" stroke-width="3" opacity="0.65"/></svg></svg>