<svg xmlns="http://www.w3.org/2000/svg" width="2400" height="1800" viewBox="0 0 2400 1800"><rect width="2400" height="1800" fill="#e3dccd"/><rect x="160" y="240" width="560" height="1060" fill="none" stroke="#cabfa9" stroke-width="10"/><rect x="200" y="280" width="480" height="980" fill="none" stroke="#cabfa9" stroke-width="5"/><rect x="1680" y="240" width="560" height="1060" fill="none" stroke="#cabfa9" stroke-width="10"/><rect x="1720" y="280" width="480" height="980" fill="none" stroke="#cabfa9" stroke-width="5"/><rect y="1380" width="2400" height="420" fill="#a98f6d"/><line x1="0" y1="1380" x2="-70" y2="1800" stroke="#00000018" stroke-width="6"/><line x1="190" y1="1380" x2="120" y2="1800" stroke="#00000018" stroke-width="6"/><line x1="380" y1="1380" x2="310" y2="1800" stroke="#00000018" stroke-width="6"/><line x1="570" y1="1380" x2="500" y2="1800" stroke="#00000018" stroke-width="6"/><line x1="760" y1="1380" x2="690" y2="1800" stroke="#00000018" stroke-width="6"/><line x1="950" y1="1380" x2="880" y2="1800" stroke="#00000018" stroke-width="6"/><line x1="1140" y1="1380" x2="1070" y2="1800" stroke="#00000018" stroke-width="6"/><line x1="1330" y1="1380" x2="1260" y2="1800" stroke="#00000018" stroke-width="6"/><line x1="1520" y1="1380" x2="1450" y2="1800" stroke="#00000018" stroke-width="6"/><line x1="1710" y1="1380" x2="1640" y2="1800" stroke="#00000018" stroke-width="6"/><line x1="1900" y1="1380" x2="1830" y2="1800" stroke="#00000018" stroke-width="6"/><line x1="2090" y1="1380" x2="2020" y2="1800" stroke="#00000018" stroke-width="6"/><line x1="2280" y1="1380" x2="2210" y2="1800" stroke="#00000018" stroke-width="6"/><rect y="1364" width="2400" height="18" fill="#d3c8b2"/><path d="M700,1500 L1700,1500 L1860,1800 L540,1800 Z" fill="#8a6a4b" opacity="0.75"/><path d="M760,1540 L1640,1540 L1760,1760 L640,1760 Z" fill="none" stroke="#f4ecdd" stroke-width="10" opacity="0.8"/><rect x="880" y="1180" width="640" height="40" rx="8" fill="#6f5436"/><rect x="920" y="1220" width="44" height="240" fill="#5e4629"/><rect x="1436" y="1220" width="44" height="240" fill="#5e4629"/><path d="M1160,1180 q -14,-90 40,-160 M1200,1180 q 4,-120 -10,-200 M1230,1180 q 30,-90 90,-130" stroke="#5d7052" stroke-width="12" fill="none" stroke-linecap="round"/><path d="M1150,1180 L1250,1180 L1230,1080 L1170,1080 Z" fill="#3d434d" transform="translate(0,0)"/><path d="M1155,1060 h90 l-12,124 h-66 Z" fill="#b98a5a"/><rect x="1380" y="1120" width="18" height="60" fill="#8f6b3d"/><ellipse cx="1389" cy="1116" rx="16" ry="10" fill="#c9a227"/><defs><filter id="a92h-sh" x="-30%" y="-30%" width="160%" height="160%"><feGaussianBlur stdDeviation="16"/></filter></defs><rect x="950" y="258" width="528" height="648" fill="#000" opacity="0.28" filter="url(#a92h-sh)"/><rect x="936" y="236" width="528" height="648" fill="#33291f"/><rect x="951.6" y="251.6" width="496.8" height="616.8" fill="none" stroke="#00000055" stroke-width="3"/><rect x="960" y="260" width="480" height="600" fill="#f6f2ea"/><svg x="996" y="296" width="408" height="528" viewBox="0 0 2400 3000" preserveAspectRatio="xMidYMid slice"><rect width="2400" height="3000" fill="#2b2f36"/><radialGradient id="a92-vig" cx="50%" cy="42%" r="80%"><stop offset="55%" stop-color="#000" stop-opacity="0"/><stop offset="100%" stop-color="#000" stop-opacity="0.15"/></radialGradient><rect width="2400" height="3000" fill="url(#a92-vig)"/><circle cx="2228.7" cy="1747.5" r="2.5" fill="#b3873e" opacity="0.040"/><circle cx="200.9" cy="138" r="1.5" fill="#b3873e" opacity="0.075"/><circle cx="1555.6" cy="141.4" r="1.9" fill="#b3873e" opacity="0.049"/><circle cx="1797.1" cy="1104.5" r="1.8" fill="#b3873e" opacity="0.047"/><circle cx="1926.1" cy="95.6" r="3.2" fill="#b3873e" opacity="0.071"/><circle cx="597.8" cy="1695.8" r="3.3" fill="#b3873e" opacity="0.065"/><circle cx="247.3" cy="450" r="3.7" fill="#b3873e" opacity="0.035"/><circle cx="1615.3" cy="60.5" r="2.4" fill="#b3873e" opacity="0.071"/><circle cx="1952.5" cy="2121.4" r="3" fill="#b3873e" opacity="0.066"/><circle cx="1908.9" cy="2021.9" r="3.1" fill="#b3873e" opacity="0.049"/><circle cx="555.1" cy="1984.2" r="3.1" fill="#b3873e" opacity="0.075"/><circle cx="2022.4" cy="1289.7" r="3.8" fill="#b3873e" opacity="0.045"/><circle cx="1429" cy="2086.3" r="4.5" fill="#b3873e" opacity="0.071"/><circle cx="835" cy="585.9" r="3.5" fill="#b3873e" opacity="0.060"/><circle cx="1475.5" cy="1465.9" r="2" fill="#b3873e" opacity="0.059"/><circle cx="1833" cy="926.8" r="3.8" fill="#b3873e" opacity="0.065"/><circle cx="1513.5" cy="1187.9" r="3.6" fill="#b3873e" opacity="0.057"/><circle cx="1652.7" cy="1403.9" r="1.9" fill="#b3873e" opacity="0.033"/><circle cx="515.8" cy="134.5" r="4" fill="#b3873e" opacity="0.050"/><circle cx="615.6" cy="2004" r="4.5" fill="#b3873e" opacity="0.061"/><circle cx="576.1" cy="1290.4" r="2.3" fill="#b3873e" opacity="0.054"/><circle cx="900.1" cy="473.4" r="2.3" fill="#b3873e" opacity="0.050"/><circle cx="1671.1" cy="747" r="4.2" fill="#b3873e" opacity="0.053"/><circle cx="119.9" cy="1610.1" r="2.9" fill="#b3873e" opacity="0.055"/><circle cx="2200.5" cy="265.9" r="3.7" fill="#b3873e" opacity="0.062"/><circle cx="222.4" cy="1599.3" r="2.5" fill="#b3873e" opacity="0.063"/><circle cx="797.4" cy="2746.3" r="3.9" fill="#b3873e" opacity="0.060"/><circle cx="493.6" cy="1008" r="1.8" fill="#b3873e" opacity="0.065"/><circle cx="801.1" cy="2668.8" r="1.7" fill="#b3873e" opacity="0.034"/><circle cx="948.3" cy="2243.2" r="2.5" fill="#b3873e" opacity="0.031"/><circle cx="2270.9" cy="971.7" r="2.1" fill="#b3873e" opacity="0.055"/><circle cx="2181.5" cy="1866.9" r="3.2" fill="#b3873e" opacity="0.032"/><circle cx="1366.1" cy="1697.6" r="4.3" fill="#b3873e" opacity="0.047"/><circle cx="1504.2" cy="2195.3" r="3.8" fill="#b3873e" opacity="0.031"/><circle cx="53.4" cy="178.8" r="3.5" fill="#b3873e" opacity="0.066"/><circle cx="1711.5" cy="2441.6" r="2.8" fill="#b3873e" opacity="0.043"/><circle cx="1216" cy="1262.1" r="4.5" fill="#b3873e" opacity="0.060"/><circle cx="461.9" cy="68.7" r="4.3" fill="#b3873e" opacity="0.049"/><circle cx="209.6" cy="1711.8" r="2.7" fill="#b3873e" opacity="0.048"/><circle cx="1262.2" cy="1739.8" r="4.4" fill="#b3873e" opacity="0.058"/><circle cx="1224.7" cy="1876.1" r="3.8" fill="#b3873e" opacity="0.076"/><circle cx="623.5" cy="1572.5" r="2.5" fill="#b3873e" opacity="0.048"/><circle cx="1542.5" cy="2622.9" r="3.9" fill="#b3873e" opacity="0.051"/><circle cx="1079.7" cy="140.2" r="2" fill="#b3873e" opacity="0.043"/><circle cx="773" cy="2531.9" r="4.1" fill="#b3873e" opacity="0.038"/><circle cx="860.6" cy="2011.3" r="2" fill="#b3873e" opacity="0.046"/><circle cx="681.8" cy="568.8" r="3.6" fill="#b3873e" opacity="0.076"/><circle cx="288.2" cy="1752.3" r="2.2" fill="#b3873e" opacity="0.045"/><circle cx="1099.6" cy="2305.8" r="3.4" fill="#b3873e" opacity="0.057"/><circle cx="359.9" cy="2885.9" r="3.2" fill="#b3873e" opacity="0.042"/><circle cx="256.9" cy="1373.4" r="1.7" fill="#b3873e" opacity="0.068"/><circle cx="268" cy="352.5" r="4.1" fill="#b3873e" opacity="0.032"/><circle cx="2218.6" cy="489" r="3.3" fill="#b3873e" opacity="0.042"/><circle cx="471.4" cy="2431.5" r="1.8" fill="#b3873e" opacity="0.042"/><circle cx="2347.7" cy="458" r="2.6" fill="#b3873e" opacity="0.070"/><circle cx="1493.3" cy="2189.2" r="4.4" fill="#b3873e" opacity="0.036"/><circle cx="1346.9" cy="960.6" r="4.1" fill="#b3873e" opacity="0.040"/><circle cx="732" cy="1827.7" r="4.4" fill="#b3873e" opacity="0.068"/><circle cx="1287.1" cy="2057.1" r="3.9" fill="#b3873e" opacity="0.046"/><circle cx="404.5" cy="1069.5" r="3.1" fill="#b3873e" opacity="0.050"/><circle cx="1056" cy="2006.4" r="3.1" fill="#b3873e" opacity="0.051"/><circle cx="133.8" cy="1488.5" r="1.9" fill="#b3873e" opacity="0.056"/><circle cx="690.7" cy="1750.2" r="2.2" fill="#b3873e" opacity="0.064"/><circle cx="1170.5" cy="557.6" r="3.9" fill="#b3873e" opacity="0.070"/><circle cx="218.3" cy="2518.2" r="2.1" fill="#b3873e" opacity="0.064"/><circle cx="2322.7" cy="1238.8" r="2" fill="#b3873e" opacity="0.042"/><circle cx="599.7" cy="786.9" r="3.5" fill="#b3873e" opacity="0.071"/><circle cx="1278.6" cy="1075.4" r="3.3" fill="#b3873e" opacity="0.038"/><circle cx="1367.8" cy="2699.4" r="3.4" fill="#b3873e" opacity="0.047"/><circle cx="1735.2" cy="834.4" r="1.6" fill="#b3873e" opacity="0.038"/><circle cx="1282" cy="151.4" r="4.1" fill="#b3873e" opacity="0.070"/><circle cx="1212.2" cy="1877.4" r="3.9" fill="#b3873e" opacity="0.056"/><circle cx="978.2" cy="477.9" r="3.2" fill="#b3873e" opacity="0.057"/><circle cx="2128.5" cy="448.7" r="1.9" fill="#b3873e" opacity="0.079"/><circle cx="1639.5" cy="2748" r="4.1" fill="#b3873e" opacity="0.065"/><circle cx="1987" cy="1068.9" r="2.6" fill="#b3873e" opacity="0.056"/><circle cx="89.5" cy="2540.9" r="3.3" fill="#b3873e" opacity="0.053"/><circle cx="1353.6" cy="120.9" r="2.6" fill="#b3873e" opacity="0.044"/><circle cx="1124.3" cy="2767.3" r="1.7" fill="#b3873e" opacity="0.031"/><circle cx="703.5" cy="2224.9" r="3.8" fill="#b3873e" opacity="0.046"/><path d="M1149.3,1569.7 A130,130 0 1 1 1216,1579" fill="none" stroke="#b3873e" stroke-width="45.7" stroke-linecap="round"/><line x1="1131.2" y1="1560.3" x2="1073.7" y2="1652.6" stroke="#b3873e" stroke-width="45.7" stroke-linecap="round"/><path d="M1215.8,1211.8 A238.8,238.8 0 1 1 1094.6,1235.8" fill="none" stroke="#b3873e" stroke-width="45.7" stroke-linecap="round"/><line x1="1062.4" y1="1254.9" x2="999.7" y2="1166" stroke="#b3873e" stroke-width="45.7" stroke-linecap="round"/><path d="M1123.9,1789.1 A347.5,347.5 0 1 1 1303.6,1781.7" fill="none" stroke="#b3873e" stroke-width="45.7" stroke-linecap="round"/><line x1="1071.8" y1="1773" x2="1031.7" y2="1874.1" stroke="#b3873e" stroke-width="45.7" stroke-linecap="round"/><path d="M1294.3,1003.6 A456.3,456.3 0 1 1 1058.5,1016.2" fill="none" stroke="#b3873e" stroke-width="45.7" stroke-linecap="round"/><line x1="992.4" y1="1043.7" x2="942.9" y2="946.9" stroke="#b3873e" stroke-width="45.7" stroke-linecap="round"/><path d="M944.3,1953.8 A565,565 0 1 1 1230.4,2014.2" fill="none" stroke="#b3873e" stroke-width="45.7" stroke-linecap="round"/><line x1="868.6" y1="1907.6" x2="804.8" y2="1995.7" stroke="#b3873e" stroke-width="45.7" stroke-linecap="round"/><path d="M1299.4,783.6 A673.8,673.8 0 1 1 952.9,823.2" fill="none" stroke="#b3873e" stroke-width="45.7" stroke-linecap="round"/><line x1="857.9" y1="869.5" x2="802.7" y2="775.9" stroke="#b3873e" stroke-width="45.7" stroke-linecap="round"/><path d="M843.2,2146.4 A782.5,782.5 0 1 1 1239.2,2231.5" fill="none" stroke="#b3873e" stroke-width="45.7" stroke-linecap="round"/><line x1="738.6" y1="2082" x2="674.5" y2="2169.9" stroke="#b3873e" stroke-width="45.7" stroke-linecap="round"/><path d="M1414,584.8 A891.3,891.3 0 1 1 952.7,593.7" fill="none" stroke="#b3873e" stroke-width="45.7" stroke-linecap="round"/><circle cx="1200" cy="1450" r="56" fill="#8a6a4b"/><path d="M324.7,287.3 L 395.3,287.3 L 395.3,216.7 L 339.8,216.7 L 339.8,260.4 L 368.4,260.4 L 368.4,238.6 M408.7,287.3 L 479.3,287.3 L 479.3,216.7 L 423.8,216.7 L 423.8,260.4 L 452.4,260.4 L 452.4,238.6 M492.7,287.3 L 563.3,287.3 L 563.3,216.7 L 507.8,216.7 L 507.8,260.4 L 536.4,260.4 L 536.4,238.6 M576.7,287.3 L 647.3,287.3 L 647.3,216.7 L 591.8,216.7 L 591.8,260.4 L 620.4,260.4 L 620.4,238.6 M660.7,287.3 L 731.3,287.3 L 731.3,216.7 L 675.8,216.7 L 675.8,260.4 L 704.4,260.4 L 704.4,238.6 M744.7,287.3 L 815.3,287.3 L 815.3,216.7 L 759.8,216.7 L 759.8,260.4 L 788.4,260.4 L 788.4,238.6 M828.7,287.3 L 899.3,287.3 L 899.3,216.7 L 843.8,216.7 L 843.8,260.4 L 872.4,260.4 L 872.4,238.6 M912.7,287.3 L 983.3,287.3 L 983.3,216.7 L 927.8,216.7 L 927.8,260.4 L 956.4,260.4 L 956.4,238.6 M996.7,287.3 L 1067.3,287.3 L 1067.3,216.7 L 1011.8,216.7 L 1011.8,260.4 L 1040.4,260.4 L 1040.4,238.6 M1080.7,287.3 L 1151.3,287.3 L 1151.3,216.7 L 1095.8,216.7 L 1095.8,260.4 L 1124.4,260.4 L 1124.4,238.6 M1164.7,287.3 L 1235.3,287.3 L 1235.3,216.7 L 1179.8,216.7 L 1179.8,260.4 L 1208.4,260.4 L 1208.4,238.6 M1248.7,287.3 L 1319.3,287.3 L 1319.3,216.7 L 1263.8,216.7 L 1263.8,260.4 L 1292.4,260.4 L 1292.4,238.6 M1332.7,287.3 L 1403.3,287.3 L 1403.3,216.7 L 1347.8,216.7 L 1347.8,260.4 L 1376.4,260.4 L 1376.4,238.6 M1416.7,287.3 L 1487.3,287.3 L 1487.3,216.7 L 1431.8,216.7 L 1431.8,260.4 L 1460.4,260.4 L 1460.4,238.6 M1500.7,287.3 L 1571.3,287.3 L 1571.3,216.7 L 1515.8,216.7 L 1515.8,260.4 L 1544.4,260.4 L 1544.4,238.6 M1584.7,287.3 L 1655.3,287.3 L 1655.3,216.7 L 1599.8,216.7 L 1599.8,260.4 L 1628.4,260.4 L 1628.4,238.6 M1668.7,287.3 L 1739.3,287.3 L 1739.3,216.7 L 1683.8,216.7 L 1683.8,260.4 L 1712.4,260.4 L 1712.4,238.6 M1752.7,287.3 L 1823.3,287.3 L 1823.3,216.7 L 1767.8,216.7 L 1767.8,260.4 L 1796.4,260.4 L 1796.4,238.6 M1836.7,287.3 L 1907.3,287.3 L 1907.3,216.7 L 1851.8,216.7 L 1851.8,260.4 L 1880.4,260.4 L 1880.4,238.6 M1920.7,287.3 L 1991.3,287.3 L 1991.3,216.7 L 1935.8,216.7 L 1935.8,260.4 L 1964.4,260.4 L 1964.4,238.6 M2004.7,287.3 L 2075.3,287.3 L 2075.3,216.7 L 2019.8,216.7 L 2019.8,260.4 L 2048.4,260.4 L 2048.4,238.6 " fill="none" stroke="#b3873e" stroke-width="10.9"/><path d="M324.7,2777.3 L 395.3,2777.3 L 395.3,2706.7 L 339.8,2706.7 L 339.8,2750.4 L 368.4,2750.4 L 368.4,2728.6 M408.7,2777.3 L 479.3,2777.3 L 479.3,2706.7 L 423.8,2706.7 L 423.8,2750.4 L 452.4,2750.4 L 452.4,2728.6 M492.7,2777.3 L 563.3,2777.3 L 563.3,2706.7 L 507.8,2706.7 L 507.8,2750.4 L 536.4,2750.4 L 536.4,2728.6 M576.7,2777.3 L 647.3,2777.3 L 647.3,2706.7 L 591.8,2706.7 L 591.8,2750.4 L 620.4,2750.4 L 620.4,2728.6 M660.7,2777.3 L 731.3,2777.3 L 731.3,2706.7 L 675.8,2706.7 L 675.8,2750.4 L 704.4,2750.4 L 704.4,2728.6 M744.7,2777.3 L 815.3,2777.3 L 815.3,2706.7 L 759.8,2706.7 L 759.8,2750.4 L 788.4,2750.4 L 788.4,2728.6 M828.7,2777.3 L 899.3,2777.3 L 899.3,2706.7 L 843.8,2706.7 L 843.8,2750.4 L 872.4,2750.4 L 872.4,2728.6 M912.7,2777.3 L 983.3,2777.3 L 983.3,2706.7 L 927.8,2706.7 L 927.8,2750.4 L 956.4,2750.4 L 956.4,2728.6 M996.7,2777.3 L 1067.3,2777.3 L 1067.3,2706.7 L 1011.8,2706.7 L 1011.8,2750.4 L 1040.4,2750.4 L 1040.4,2728.6 M1080.7,2777.3 L 1151.3,2777.3 L 1151.3,2706.7 L 1095.8,2706.7 L 1095.8,2750.4 L 1124.4,2750.4 L 1124.4,2728.6 M1164.7,2777.3 L 1235.3,2777.3 L 1235.3,2706.7 L 1179.8,2706.7 L 1179.8,2750.4 L 1208.4,2750.4 L 1208.4,2728.6 M1248.7,2777.3 L 1319.3,2777.3 L 1319.3,2706.7 L 1263.8,2706.7 L 1263.8,2750.4 L 1292.4,2750.4 L 1292.4,2728.6 M1332.7,2777.3 L 1403.3,2777.3 L 1403.3,2706.7 L 1347.8,2706.7 L 1347.8,2750.4 L 1376.4,2750.4 L 1376.4,2728.6 M1416.7,2777.3 L 1487.3,2777.3 L 1487.3,2706.7 L 1431.8,2706.7 L 1431.8,2750.4 L 1460.4,2750.4 L 1460.4,2728.6 M1500.7,2777.3 L 1571.3,2777.3 L 1571.3,2706.7 L 1515.8,2706.7 L 1515.8,2750.4 L 1544.4,2750.4 L 1544.4,2728.6 M1584.7,2777.3 L 1655.3,2777.3 L 1655.3,2706.7 L 1599.8,2706.7 L 1599.8,2750.4 L 1628.4,2750.4 L 1628.4,2728.6 M1668.7,2777.3 L 1739.3,2777.3 L 1739.3,2706.7 L 1683.8,2706.7 L 1683.8,2750.4 L 1712.4,2750.4 L 1712.4,2728.6 M1752.7,2777.3 L 1823.3,2777.3 L 1823.3,2706.7 L 1767.8,2706.7 L 1767.8,2750.4 L 1796.4,2750.4 L 1796.4,2728.6 M1836.7,2777.3 L 1907.3,2777.3 L 1907.3,2706.7 L 1851.8,2706.7 L 1851.8,2750.4 L 1880.4,2750.4 L 1880.4,2728.6 M1920.7,2777.3 L 1991.3,2777.3 L 1991.3,2706.7 L 1935.8,2706.7 L 1935.8,2750.4 L 1964.4,2750.4 L 1964.4,2728.6 M2004.7,2777.3 L 2075.3,2777.3 L 2075.3,2706.7 L 2019.8,2706.7 L 2019.8,2750.4 L 2048.4,2750.4 L 2048.4,2728.6 " fill="none" stroke="#b3873e" stroke-width="10.9"/><rect x="100" y="100" width="2200" height="2800" fill="none" stroke="#b3873e" stroke-width="9"/><rect x="142" y="142" width="2116" height="2716" fill="none" stroke="#b3873e" stroke-width="3" opacity="0.65"/></svg></svg>