<svg xmlns="http://www.w3.org/2000/svg" width="2400" height="1800" viewBox="0 0 2400 1800"><rect width="2400" height="1800" fill="#e5ddcf"/><rect y="1430" width="2400" height="370" fill="#b89a76"/><line x1="100" y1="1430" x2="45" y2="1800" stroke="#00000016" stroke-width="5"/><line x1="330" y1="1430" x2="275" y2="1800" stroke="#00000016" stroke-width="5"/><line x1="560" y1="1430" x2="505" y2="1800" stroke="#00000016" stroke-width="5"/><line x1="790" y1="1430" x2="735" y2="1800" stroke="#00000016" stroke-width="5"/><line x1="1020" y1="1430" x2="965" y2="1800" stroke="#00000016" stroke-width="5"/><line x1="1250" y1="1430" x2="1195" y2="1800" stroke="#00000016" stroke-width="5"/><line x1="1480" y1="1430" x2="1425" y2="1800" stroke="#00000016" stroke-width="5"/><line x1="1710" y1="1430" x2="1655" y2="1800" stroke="#00000016" stroke-width="5"/><line x1="1940" y1="1430" x2="1885" y2="1800" stroke="#00000016" stroke-width="5"/><line x1="2170" y1="1430" x2="2115" y2="1800" stroke="#00000016" stroke-width="5"/><rect x="620" y="1180" width="1180" height="52" rx="10" fill="#8a6540"/><rect x="680" y="1232" width="70" height="330" fill="#775433"/><rect x="1670" y="1232" width="70" height="330" fill="#775433"/><rect x="760" y="1120" width="220" height="34" rx="6" fill="#e0a077"/><rect x="780" y="1086" width="200" height="34" rx="6" fill="#39685c"/><rect x="800" y="1052" width="170" height="34" rx="6" fill="#c9a227"/><circle cx="1240" cy="1130" r="46" fill="#3f3428"/><rect x="1226" y="1048" width="16" height="60" fill="#3f3428" transform="rotate(18 1240 1090)"/><rect x="1420" y="1100" width="260" height="26" rx="13" fill="#e8dcc0"/><rect x="1450" y="1072" width="260" height="26" rx="13" fill="#dfd0ad"/><rect x="1080" y="1300" width="360" height="34" rx="14" fill="#6f5436"/><rect x="1100" y="1334" width="40" height="220" fill="#6f5436"/><rect x="1380" y="1334" width="40" height="220" fill="#6f5436"/><rect x="1080" y="1030" width="42" height="290" rx="14" fill="#6f5436"/><rect x="260" y="480" width="560" height="24" fill="#8a6540"/><rect x="300" y="360" width="90" height="120" fill="#b3502f"/><rect x="400" y="380" width="80" height="100" fill="#2c4661"/><rect x="490" y="350" width="86" height="130" fill="#96a396"/><path d="M700,480 Q 616,347 574,382" fill="none" stroke="#5d7052" stroke-width="11.2" stroke-linecap="round"/><path d="M700,480 Q 644,347 616,354" fill="none" stroke="#5d7052" stroke-width="11.2" stroke-linecap="round"/><path d="M700,480 Q 672,347 658,326" fill="none" stroke="#5d7052" stroke-width="11.2" stroke-linecap="round"/><path d="M700,480 Q 700,347 700,298" fill="none" stroke="#5d7052" stroke-width="11.2" stroke-linecap="round"/><path d="M700,480 Q 728,347 742,326" fill="none" stroke="#5d7052" stroke-width="11.2" stroke-linecap="round"/><path d="M700,480 Q 756,347 784,354" fill="none" stroke="#5d7052" stroke-width="11.2" stroke-linecap="round"/><path d="M700,480 Q 784,347 826,382" fill="none" stroke="#5d7052" stroke-width="11.2" stroke-linecap="round"/><path d="M651,480 L749,480 L736.4,557 L663.6,557 Z" fill="#a9714d"/><path d="M320,1520 Q 164,1273 86,1338" fill="none" stroke="#5d7052" stroke-width="20.8" stroke-linecap="round"/><path d="M320,1520 Q 216,1273 164,1286" fill="none" stroke="#5d7052" stroke-width="20.8" stroke-linecap="round"/><path d="M320,1520 Q 268,1273 242,1234" fill="none" stroke="#5d7052" stroke-width="20.8" stroke-linecap="round"/><path d="M320,1520 Q 320,1273 320,1182" fill="none" stroke="#5d7052" stroke-width="20.8" stroke-linecap="round"/><path d="M320,1520 Q 372,1273 398,1234" fill="none" stroke="#5d7052" stroke-width="20.8" stroke-linecap="round"/><path d="M320,1520 Q 424,1273 476,1286" fill="none" stroke="#5d7052" stroke-width="20.8" stroke-linecap="round"/><path d="M320,1520 Q 476,1273 554,1338" fill="none" stroke="#5d7052" stroke-width="20.8" stroke-linecap="round"/><path d="M229,1520 L411,1520 L387.6,1663 L252.4,1663 Z" fill="#a9714d"/><defs><filter id="a94s-sh" x="-30%" y="-30%" width="160%" height="160%"><feGaussianBlur stdDeviation="16"/></filter></defs><rect x="1206" y="294" width="616" height="756" fill="#000" opacity="0.28" filter="url(#a94s-sh)"/><rect x="1192" y="272" width="616" height="756" fill="#443a2d"/><rect x="1210.2" y="290.2" width="579.6" height="719.6" fill="none" stroke="#00000055" stroke-width="3"/><rect x="1220" y="300" width="560" height="700" fill="#f6f2ea"/><svg x="1262" y="342" width="476" height="616" viewBox="0 0 2400 3000" preserveAspectRatio="xMidYMid slice"><rect width="2400" height="3000" fill="#211510"/><radialGradient id="a94-vig" cx="50%" cy="42%" r="80%"><stop offset="55%" stop-color="#000" stop-opacity="0"/><stop offset="100%" stop-color="#000" stop-opacity="0.15"/></radialGradient><rect width="2400" height="3000" fill="url(#a94-vig)"/><circle cx="104.3" cy="722.8" r="3.6" fill="#c8703f" opacity="0.033"/><circle cx="1962.4" cy="1925" r="3.3" fill="#c8703f" opacity="0.061"/><circle cx="2085.3" cy="2376.6" r="4.4" fill="#c8703f" opacity="0.037"/><circle cx="1944" cy="736.6" r="3" fill="#c8703f" opacity="0.048"/><circle cx="849.4" cy="1897.3" r="1.8" fill="#c8703f" opacity="0.073"/><circle cx="1322.2" cy="443.5" r="1.7" fill="#c8703f" opacity="0.073"/><circle cx="1419.1" cy="2341.6" r="1.9" fill="#c8703f" opacity="0.049"/><circle cx="1115.4" cy="1022" r="2.1" fill="#c8703f" opacity="0.037"/><circle cx="661.1" cy="1288.3" r="2.1" fill="#c8703f" opacity="0.031"/><circle cx="1882.4" cy="1313.5" r="3.7" fill="#c8703f" opacity="0.056"/><circle cx="1134.7" cy="1266.1" r="1.7" fill="#c8703f" opacity="0.032"/><circle cx="780.4" cy="1011.2" r="3" fill="#c8703f" opacity="0.042"/><circle cx="55.3" cy="1765.7" r="3.6" fill="#c8703f" opacity="0.031"/><circle cx="2201.6" cy="2928.8" r="2.2" fill="#c8703f" opacity="0.075"/><circle cx="1429.7" cy="1030.1" r="3.4" fill="#c8703f" opacity="0.069"/><circle cx="161.7" cy="1478.8" r="2" fill="#c8703f" opacity="0.053"/><circle cx="179.5" cy="1135.8" r="4" fill="#c8703f" opacity="0.034"/><circle cx="1995.9" cy="1053.8" r="2.3" fill="#c8703f" opacity="0.037"/><circle cx="1890.9" cy="1731.2" r="3.1" fill="#c8703f" opacity="0.051"/><circle cx="1138" cy="2561.9" r="3.9" fill="#c8703f" opacity="0.052"/><circle cx="771.7" cy="1191.8" r="3.3" fill="#c8703f" opacity="0.040"/><circle cx="607.8" cy="2136.1" r="3.6" fill="#c8703f" opacity="0.036"/><circle cx="1273.8" cy="2806.2" r="1.7" fill="#c8703f" opacity="0.062"/><circle cx="1048.2" cy="1812.1" r="2" fill="#c8703f" opacity="0.048"/><circle cx="330.4" cy="2205.8" r="4.3" fill="#c8703f" opacity="0.048"/><circle cx="1197.5" cy="1444.1" r="2.5" fill="#c8703f" opacity="0.051"/><circle cx="67.6" cy="2856.8" r="2.1" fill="#c8703f" opacity="0.042"/><circle cx="1089.5" cy="2680.6" r="3.6" fill="#c8703f" opacity="0.073"/><circle cx="1355.5" cy="2634.5" r="4.2" fill="#c8703f" opacity="0.034"/><circle cx="2087.1" cy="1549.6" r="3.3" fill="#c8703f" opacity="0.058"/><circle cx="2027.2" cy="1576.7" r="3.3" fill="#c8703f" opacity="0.065"/><circle cx="1876" cy="2109.7" r="1.8" fill="#c8703f" opacity="0.053"/><circle cx="582.2" cy="1266.4" r="3.2" fill="#c8703f" opacity="0.035"/><circle cx="1065.5" cy="2090.5" r="3.9" fill="#c8703f" opacity="0.059"/><circle cx="2077.6" cy="2051.6" r="1.6" fill="#c8703f" opacity="0.053"/><circle cx="1173.9" cy="117" r="2.8" fill="#c8703f" opacity="0.078"/><circle cx="2058.8" cy="1061.3" r="1.9" fill="#c8703f" opacity="0.038"/><circle cx="103.7" cy="228" r="1.9" fill="#c8703f" opacity="0.041"/><circle cx="426" cy="841.9" r="3.1" fill="#c8703f" opacity="0.073"/><circle cx="1446.4" cy="1430.2" r="3.2" fill="#c8703f" opacity="0.041"/><circle cx="2310.9" cy="1167.5" r="2.6" fill="#c8703f" opacity="0.043"/><circle cx="376.4" cy="606" r="3.6" fill="#c8703f" opacity="0.031"/><circle cx="1382.4" cy="865.5" r="3.4" fill="#c8703f" opacity="0.048"/><circle cx="1178.5" cy="655.8" r="2.8" fill="#c8703f" opacity="0.075"/><circle cx="453" cy="2945.8" r="3.3" fill="#c8703f" opacity="0.059"/><circle cx="454.1" cy="1006.4" r="2.8" fill="#c8703f" opacity="0.034"/><circle cx="2194" cy="2194.2" r="2.8" fill="#c8703f" opacity="0.059"/><circle cx="1147.5" cy="990.4" r="2.9" fill="#c8703f" opacity="0.041"/><circle cx="1827.1" cy="773.9" r="4.1" fill="#c8703f" opacity="0.051"/><circle cx="426.1" cy="1094.1" r="1.7" fill="#c8703f" opacity="0.043"/><circle cx="70" cy="2070.6" r="2.2" fill="#c8703f" opacity="0.057"/><circle cx="752.5" cy="1668.4" r="1.7" fill="#c8703f" opacity="0.075"/><circle cx="1798.4" cy="1668.6" r="4.2" fill="#c8703f" opacity="0.071"/><circle cx="522.9" cy="1308.4" r="3.7" fill="#c8703f" opacity="0.078"/><circle cx="2207" cy="1431.8" r="3.5" fill="#c8703f" opacity="0.032"/><circle cx="611" cy="1945.7" r="4.4" fill="#c8703f" opacity="0.031"/><circle cx="73.7" cy="1008.9" r="3.3" fill="#c8703f" opacity="0.038"/><circle cx="1685.7" cy="2809.2" r="3" fill="#c8703f" opacity="0.030"/><circle cx="153.9" cy="1114.2" r="4.1" fill="#c8703f" opacity="0.067"/><circle cx="468.6" cy="1702.6" r="4.1" fill="#c8703f" opacity="0.032"/><circle cx="900" cy="205.1" r="3.1" fill="#c8703f" opacity="0.067"/><circle cx="581.1" cy="2395.5" r="2.5" fill="#c8703f" opacity="0.059"/><circle cx="1218.3" cy="1479.4" r="2.6" fill="#c8703f" opacity="0.070"/><circle cx="2041.7" cy="2287.3" r="3.2" fill="#c8703f" opacity="0.048"/><circle cx="467.3" cy="185.1" r="3.7" fill="#c8703f" opacity="0.035"/><circle cx="312.6" cy="1352.8" r="3" fill="#c8703f" opacity="0.056"/><circle cx="678.6" cy="2480.9" r="3.9" fill="#c8703f" opacity="0.044"/><circle cx="1752.9" cy="98.3" r="4.1" fill="#c8703f" opacity="0.052"/><circle cx="2165.5" cy="2442.4" r="1.6" fill="#c8703f" opacity="0.064"/><circle cx="1562" cy="871.1" r="4.4" fill="#c8703f" opacity="0.078"/><circle cx="159.6" cy="2820.1" r="4.4" fill="#c8703f" opacity="0.078"/><circle cx="2193" cy="471" r="3.6" fill="#c8703f" opacity="0.079"/><circle cx="2069.6" cy="1526.5" r="3.7" fill="#c8703f" opacity="0.045"/><circle cx="636.1" cy="1863.3" r="2.9" fill="#c8703f" opacity="0.055"/><circle cx="1791.9" cy="1482.1" r="2.5" fill="#c8703f" opacity="0.078"/><circle cx="1298.8" cy="1204.4" r="4.4" fill="#c8703f" opacity="0.075"/><circle cx="1780.4" cy="2683.4" r="3.8" fill="#c8703f" opacity="0.072"/><circle cx="1106.4" cy="1393.6" r="2.6" fill="#c8703f" opacity="0.037"/><circle cx="1949.1" cy="2115.5" r="4.2" fill="#c8703f" opacity="0.059"/><circle cx="1660.7" cy="353.2" r="4" fill="#c8703f" opacity="0.071"/><path d="M1168.9,1576.2 A130,130 0 1 1 1236.2,1574.9" fill="none" stroke="#c8703f" stroke-width="45.7" stroke-linecap="round"/><line x1="1149.6" y1="1569.8" x2="1107.4" y2="1670.1" stroke="#c8703f" stroke-width="45.7" stroke-linecap="round"/><path d="M1264,1220 A238.8,238.8 0 1 1 1140.4,1218.8" fill="none" stroke="#c8703f" stroke-width="45.7" stroke-linecap="round"/><line x1="1105" y1="1231" x2="1061.7" y2="1131.2" stroke="#c8703f" stroke-width="45.7" stroke-linecap="round"/><path d="M1101.7,1783.3 A347.5,347.5 0 1 1 1281.5,1787.8" fill="none" stroke="#c8703f" stroke-width="45.7" stroke-linecap="round"/><line x1="1050.7" y1="1763.8" x2="1004" y2="1862" stroke="#c8703f" stroke-width="45.7" stroke-linecap="round"/><path d="M1304.9,1006 A456.3,456.3 0 1 1 1068.8,1013" fill="none" stroke="#c8703f" stroke-width="45.7" stroke-linecap="round"/><line x1="1002.1" y1="1038.9" x2="954.9" y2="940.9" stroke="#c8703f" stroke-width="45.7" stroke-linecap="round"/><path d="M1150.4,2012.8 A565,565 0 1 1 1438.5,1962.2" fill="none" stroke="#c8703f" stroke-width="45.7" stroke-linecap="round"/><line x1="1063" y1="1998.1" x2="1036.6" y2="2103.6" stroke="#c8703f" stroke-width="45.7" stroke-linecap="round"/><path d="M1526.2,860.5 A673.8,673.8 0 1 1 1187.8,776.4" fill="none" stroke="#c8703f" stroke-width="45.7" stroke-linecap="round"/><line x1="1082.5" y1="786.6" x2="1063.6" y2="679.5" stroke="#c8703f" stroke-width="45.7" stroke-linecap="round"/><path d="M908.1,2176 A782.5,782.5 0 1 1 1310.2,2224.7" fill="none" stroke="#c8703f" stroke-width="45.7" stroke-linecap="round"/><line x1="798.1" y1="2121.4" x2="742.2" y2="2214.7" stroke="#c8703f" stroke-width="45.7" stroke-linecap="round"/><path d="M1563.5,636.2 A891.3,891.3 0 1 1 1107.9,563.5" fill="none" stroke="#c8703f" stroke-width="45.7" stroke-linecap="round"/><circle cx="1200" cy="1450" r="56" fill="#e0a077"/><path d="M324.7,287.3 L 395.3,287.3 L 395.3,216.7 L 339.8,216.7 L 339.8,260.4 L 368.4,260.4 L 368.4,238.6 M408.7,287.3 L 479.3,287.3 L 479.3,216.7 L 423.8,216.7 L 423.8,260.4 L 452.4,260.4 L 452.4,238.6 M492.7,287.3 L 563.3,287.3 L 563.3,216.7 L 507.8,216.7 L 507.8,260.4 L 536.4,260.4 L 536.4,238.6 M576.7,287.3 L 647.3,287.3 L 647.3,216.7 L 591.8,216.7 L 591.8,260.4 L 620.4,260.4 L 620.4,238.6 M660.7,287.3 L 731.3,287.3 L 731.3,216.7 L 675.8,216.7 L 675.8,260.4 L 704.4,260.4 L 704.4,238.6 M744.7,287.3 L 815.3,287.3 L 815.3,216.7 L 759.8,216.7 L 759.8,260.4 L 788.4,260.4 L 788.4,238.6 M828.7,287.3 L 899.3,287.3 L 899.3,216.7 L 843.8,216.7 L 843.8,260.4 L 872.4,260.4 L 872.4,238.6 M912.7,287.3 L 983.3,287.3 L 983.3,216.7 L 927.8,216.7 L 927.8,260.4 L 956.4,260.4 L 956.4,238.6 M996.7,287.3 L 1067.3,287.3 L 1067.3,216.7 L 1011.8,216.7 L 1011.8,260.4 L 1040.4,260.4 L 1040.4,238.6 M1080.7,287.3 L 1151.3,287.3 L 1151.3,216.7 L 1095.8,216.7 L 1095.8,260.4 L 1124.4,260.4 L 1124.4,238.6 M1164.7,287.3 L 1235.3,287.3 L 1235.3,216.7 L 1179.8,216.7 L 1179.8,260.4 L 1208.4,260.4 L 1208.4,238.6 M1248.7,287.3 L 1319.3,287.3 L 1319.3,216.7 L 1263.8,216.7 L 1263.8,260.4 L 1292.4,260.4 L 1292.4,238.6 M1332.7,287.3 L 1403.3,287.3 L 1403.3,216.7 L 1347.8,216.7 L 1347.8,260.4 L 1376.4,260.4 L 1376.4,238.6 M1416.7,287.3 L 1487.3,287.3 L 1487.3,216.7 L 1431.8,216.7 L 1431.8,260.4 L 1460.4,260.4 L 1460.4,238.6 M1500.7,287.3 L 1571.3,287.3 L 1571.3,216.7 L 1515.8,216.7 L 1515.8,260.4 L 1544.4,260.4 L 1544.4,238.6 M1584.7,287.3 L 1655.3,287.3 L 1655.3,216.7 L 1599.8,216.7 L 1599.8,260.4 L 1628.4,260.4 L 1628.4,238.6 M1668.7,287.3 L 1739.3,287.3 L 1739.3,216.7 L 1683.8,216.7 L 1683.8,260.4 L 1712.4,260.4 L 1712.4,238.6 M1752.7,287.3 L 1823.3,287.3 L 1823.3,216.7 L 1767.8,216.7 L 1767.8,260.4 L 1796.4,260.4 L 1796.4,238.6 M1836.7,287.3 L 1907.3,287.3 L 1907.3,216.7 L 1851.8,216.7 L 1851.8,260.4 L 1880.4,260.4 L 1880.4,238.6 M1920.7,287.3 L 1991.3,287.3 L 1991.3,216.7 L 1935.8,216.7 L 1935.8,260.4 L 1964.4,260.4 L 1964.4,238.6 M2004.7,287.3 L 2075.3,287.3 L 2075.3,216.7 L 2019.8,216.7 L 2019.8,260.4 L 2048.4,260.4 L 2048.4,238.6 " fill="none" stroke="#c8703f" stroke-width="10.9"/><path d="M324.7,2777.3 L 395.3,2777.3 L 395.3,2706.7 L 339.8,2706.7 L 339.8,2750.4 L 368.4,2750.4 L 368.4,2728.6 M408.7,2777.3 L 479.3,2777.3 L 479.3,2706.7 L 423.8,2706.7 L 423.8,2750.4 L 452.4,2750.4 L 452.4,2728.6 M492.7,2777.3 L 563.3,2777.3 L 563.3,2706.7 L 507.8,2706.7 L 507.8,2750.4 L 536.4,2750.4 L 536.4,2728.6 M576.7,2777.3 L 647.3,2777.3 L 647.3,2706.7 L 591.8,2706.7 L 591.8,2750.4 L 620.4,2750.4 L 620.4,2728.6 M660.7,2777.3 L 731.3,2777.3 L 731.3,2706.7 L 675.8,2706.7 L 675.8,2750.4 L 704.4,2750.4 L 704.4,2728.6 M744.7,2777.3 L 815.3,2777.3 L 815.3,2706.7 L 759.8,2706.7 L 759.8,2750.4 L 788.4,2750.4 L 788.4,2728.6 M828.7,2777.3 L 899.3,2777.3 L 899.3,2706.7 L 843.8,2706.7 L 843.8,2750.4 L 872.4,2750.4 L 872.4,2728.6 M912.7,2777.3 L 983.3,2777.3 L 983.3,2706.7 L 927.8,2706.7 L 927.8,2750.4 L 956.4,2750.4 L 956.4,2728.6 M996.7,2777.3 L 1067.3,2777.3 L 1067.3,2706.7 L 1011.8,2706.7 L 1011.8,2750.4 L 1040.4,2750.4 L 1040.4,2728.6 M1080.7,2777.3 L 1151.3,2777.3 L 1151.3,2706.7 L 1095.8,2706.7 L 1095.8,2750.4 L 1124.4,2750.4 L 1124.4,2728.6 M1164.7,2777.3 L 1235.3,2777.3 L 1235.3,2706.7 L 1179.8,2706.7 L 1179.8,2750.4 L 1208.4,2750.4 L 1208.4,2728.6 M1248.7,2777.3 L 1319.3,2777.3 L 1319.3,2706.7 L 1263.8,2706.7 L 1263.8,2750.4 L 1292.4,2750.4 L 1292.4,2728.6 M1332.7,2777.3 L 1403.3,2777.3 L 1403.3,2706.7 L 1347.8,2706.7 L 1347.8,2750.4 L 1376.4,2750.4 L 1376.4,2728.6 M1416.7,2777.3 L 1487.3,2777.3 L 1487.3,2706.7 L 1431.8,2706.7 L 1431.8,2750.4 L 1460.4,2750.4 L 1460.4,2728.6 M1500.7,2777.3 L 1571.3,2777.3 L 1571.3,2706.7 L 1515.8,2706.7 L 1515.8,2750.4 L 1544.4,2750.4 L 1544.4,2728.6 M1584.7,2777.3 L 1655.3,2777.3 L 1655.3,2706.7 L 1599.8,2706.7 L 1599.8,2750.4 L 1628.4,2750.4 L 1628.4,2728.6 M1668.7,2777.3 L 1739.3,2777.3 L 1739.3,2706.7 L 1683.8,2706.7 L 1683.8,2750.4 L 1712.4,2750.4 L 1712.4,2728.6 M1752.7,2777.3 L 1823.3,2777.3 L 1823.3,2706.7 L 1767.8,2706.7 L 1767.8,2750.4 L 1796.4,2750.4 L 1796.4,2728.6 M1836.7,2777.3 L 1907.3,2777.3 L 1907.3,2706.7 L 1851.8,2706.7 L 1851.8,2750.4 L 1880.4,2750.4 L 1880.4,2728.6 M1920.7,2777.3 L 1991.3,2777.3 L 1991.3,2706.7 L 1935.8,2706.7 L 1935.8,2750.4 L 1964.4,2750.4 L 1964.4,2728.6 M2004.7,2777.3 L 2075.3,2777.3 L 2075.3,2706.7 L 2019.8,2706.7 L 2019.8,2750.4 L 2048.4,2750.4 L 2048.4,2728.6 " fill="none" stroke="#c8703f" stroke-width="10.9"/><rect x="100" y="100" width="2200" height="2800" fill="none" stroke="#c8703f" stroke-width="9"/><rect x="142" y="142" width="2116" height="2716" fill="none" stroke="#c8703f" stroke-width="3" opacity="0.65"/></svg></svg>