<svg xmlns="http://www.w3.org/2000/svg" width="2400" height="1800" viewBox="0 0 2400 1800"><rect width="2400" height="1800" fill="#e9e1d2"/><rect y="1430" width="2400" height="370" fill="#c8b190"/><line x1="120" y1="1430" x2="60" y2="1800" stroke="#00000018" stroke-width="6"/><line x1="380" y1="1430" x2="320" y2="1800" stroke="#00000018" stroke-width="6"/><line x1="640" y1="1430" x2="580" y2="1800" stroke="#00000018" stroke-width="6"/><line x1="900" y1="1430" x2="840" y2="1800" stroke="#00000018" stroke-width="6"/><line x1="1160" y1="1430" x2="1100" y2="1800" stroke="#00000018" stroke-width="6"/><line x1="1420" y1="1430" x2="1360" y2="1800" stroke="#00000018" stroke-width="6"/><line x1="1680" y1="1430" x2="1620" y2="1800" stroke="#00000018" stroke-width="6"/><line x1="1940" y1="1430" x2="1880" y2="1800" stroke="#00000018" stroke-width="6"/><line x1="2200" y1="1430" x2="2140" y2="1800" stroke="#00000018" stroke-width="6"/><rect y="1418" width="2400" height="16" fill="#d7cbb6"/><rect x="700" y="980" width="1000" height="460" rx="26" fill="#a87e57"/><rect x="660" y="1290" width="1080" height="210" rx="30" fill="#f1ebdf"/><rect x="660" y="1420" width="1080" height="120" rx="24" fill="#4f6273" opacity="0.85"/><rect x="770" y="1180" width="300" height="150" rx="40" fill="#faf6ec"/><rect x="1330" y="1180" width="300" height="150" rx="40" fill="#bfa77c"/><rect x="640" y="1530" width="1120" height="26" rx="12" fill="#a87e57"/><rect x="360" y="1260" width="240" height="220" rx="10" fill="#a87e57"/><rect x="380" y="1300" width="200" height="14" fill="#00000022"/><line x1="480" y1="1260" x2="480" y2="1130" stroke="#5a4632" stroke-width="12"/><path d="M410,1130 L550,1130 L520,1020 L440,1020 Z" fill="#4f6273"/><path d="M2060,1520 Q 1910,1282.5 1835,1345" fill="none" stroke="#5d7052" stroke-width="20" stroke-linecap="round"/><path d="M2060,1520 Q 1960,1282.5 1910,1295" fill="none" stroke="#5d7052" stroke-width="20" stroke-linecap="round"/><path d="M2060,1520 Q 2010,1282.5 1985,1245" fill="none" stroke="#5d7052" stroke-width="20" stroke-linecap="round"/><path d="M2060,1520 Q 2060,1282.5 2060,1195" fill="none" stroke="#5d7052" stroke-width="20" stroke-linecap="round"/><path d="M2060,1520 Q 2110,1282.5 2135,1245" fill="none" stroke="#5d7052" stroke-width="20" stroke-linecap="round"/><path d="M2060,1520 Q 2160,1282.5 2210,1295" fill="none" stroke="#5d7052" stroke-width="20" stroke-linecap="round"/><path d="M2060,1520 Q 2210,1282.5 2285,1345" fill="none" stroke="#5d7052" stroke-width="20" stroke-linecap="round"/><path d="M1972.5,1520 L2147.5,1520 L2125,1657.5 L1995,1657.5 Z" fill="#a9714d"/><defs><filter id="a77b-sh" x="-30%" y="-30%" width="160%" height="160%"><feGaussianBlur stdDeviation="16"/></filter></defs><rect x="928" y="246" width="572" height="702" fill="#000" opacity="0.28" filter="url(#a77b-sh)"/><rect x="914" y="224" width="572" height="702" fill="#4a3d2f"/><rect x="930.9" y="240.9" width="538.2" height="668.2" fill="none" stroke="#00000055" stroke-width="3"/><rect x="940" y="250" width="520" height="650" fill="#f6f2ea"/><svg x="979" y="289" width="442" height="572" viewBox="0 0 2400 3000" preserveAspectRatio="xMidYMid slice"><filter id="a77-warp" x="-4%" y="-4%" width="108%" height="108%"><feTurbulence type="fractalNoise" baseFrequency="0.0105" numOctaves="2" seed="7203" result="w"/><feDisplacementMap in="SourceGraphic" in2="w" scale="12" xChannelSelector="R" yChannelSelector="G"/></filter><filter id="a77-grain" x="0%" y="0%" width="100%" height="100%"><feTurbulence type="fractalNoise" baseFrequency="0.6" numOctaves="2" seed="7210"/><feColorMatrix type="matrix" values="0.33 0.33 0.33 0 0.62  0.33 0.33 0.33 0 0.62  0.33 0.33 0.33 0 0.62  0 0 0 0 1"/></filter><filter id="a77-mottle" x="0%" y="0%" width="100%" height="100%"><feTurbulence type="fractalNoise" baseFrequency="0.0045" numOctaves="3" seed="7216"/><feColorMatrix type="matrix" values="0.2 0.2 0.2 0 0.78  0.2 0.2 0.2 0 0.78  0.2 0.2 0.2 0 0.78  0 0 0 0 1"/></filter><filter id="a77-fade" x="0%" y="0%" width="100%" height="100%"><feTurbulence type="fractalNoise" baseFrequency="0.006" numOctaves="2" seed="7232"/><feColorMatrix type="matrix" values="0.3 0.3 0.3 0 -0.08  0.3 0.3 0.3 0 -0.08  0.3 0.3 0.3 0 -0.1  0 0 0 0 1"/></filter><filter id="a77-blur9"><feGaussianBlur stdDeviation="9"/></filter><radialGradient id="a77-vig" cx="50%" cy="44%" r="78%"><stop offset="52%" stop-color="#241a10" stop-opacity="0"/><stop offset="100%" stop-color="#241a10" stop-opacity="0.17"/></radialGradient><radialGradient id="a77-warm" cx="33%" cy="30%" r="85%"><stop offset="0%" stop-color="#e8c890" stop-opacity="0.14"/><stop offset="70%" stop-color="#e8c890" stop-opacity="0"/></radialGradient><rect width="2400" height="3000" fill="#dfcfb1"/><rect width="2400" height="3000" fill="url(#a77-warm)"/><rect y="63" width="2400" height="339.7" fill="#8a6a40" opacity="0.028" transform="rotate(-1 1200 63)"/><rect y="770.7" width="2400" height="376.4" fill="#ffffff" opacity="0.042" transform="rotate(-1.1 1200 770.7)"/><rect y="2576" width="2400" height="370.5" fill="#8a6a40" opacity="0.035" transform="rotate(1.5 1200 2576)"/><rect y="1802.4" width="2400" height="344.7" fill="#ffffff" opacity="0.047" transform="rotate(-1.7 1200 1802.4)"/><rect y="915.3" width="2400" height="255" fill="#8a6a40" opacity="0.033" transform="rotate(-0.2 1200 915.3)"/><rect y="2821.1" width="2400" height="374.9" fill="#ffffff" opacity="0.027" transform="rotate(-0.7 1200 2821.1)"/><rect y="231.2" width="2400" height="215.5" fill="#8a6a40" opacity="0.039" transform="rotate(-1 1200 231.2)"/><g filter="url(#a77-warp)"><polyline points="1128.3,2112 1089.3,2106.8 1050.6,2099.3 1012.4,2089.6 974.9,2077.7 938,2063.7 902.1,2047.7 867.1,2029.5 833.2,2009.4 800.6,1987.4 769.2,1963.6 739.3,1937.9 710.9,1910.7 684.1,1881.8 659,1851.4 635.7,1819.6 614.3,1786.6 594.8,1752.4 577.2,1717.1 561.8,1680.9 548.4,1643.8 537.2,1606 528.2,1567.7 521.4,1528.9 516.9,1489.8 514.6,1450.4 514.5,1411.1 516.7,1371.7 521.2,1332.6 527.9,1293.8 536.8,1255.4 548,1217.6 561.2,1180.5 576.6,1144.3 594,1108.9 613.5,1074.7 634.9,1041.6 658.1,1009.8 683.1,979.4 709.8,950.4 738.2,923.1 768.1,897.4 799.3,873.5 832,851.4 865.8,831.2 900.7,813 936.7,796.8 973.4,782.8 1011,770.8 " fill="none" stroke="#7c3a26" stroke-width="14" stroke-linecap="round"/><polyline points="1271.7,2112 1310.7,2106.8 1349.4,2099.3 1387.6,2089.6 1425.1,2077.7 1462,2063.7 1497.9,2047.7 1532.9,2029.5 1566.8,2009.4 1599.4,1987.4 1630.8,1963.6 1660.7,1937.9 1689.1,1910.7 1715.9,1881.8 1741,1851.4 1764.3,1819.6 1785.7,1786.6 1805.2,1752.4 1822.8,1717.1 1838.2,1680.9 1851.6,1643.8 1862.8,1606 1871.8,1567.7 1878.6,1528.9 1883.1,1489.8 1885.4,1450.4 1885.5,1411.1 1883.3,1371.7 1878.8,1332.6 1872.1,1293.8 1863.2,1255.4 1852,1217.6 1838.8,1180.5 1823.4,1144.3 1806,1108.9 1786.5,1074.7 1765.1,1041.6 1741.9,1009.8 1716.9,979.4 1690.2,950.4 1661.8,923.1 1631.9,897.4 1600.7,873.5 1568,851.4 1534.2,831.2 1499.3,813 1463.3,796.8 1426.6,782.8 1389,770.8 " fill="none" stroke="#7c3a26" stroke-width="14" stroke-linecap="round"/><path d="M0 0 Q 36 -66.5 0 -175 Q -36 -66.5 0 0 Z" fill="#7c3a26" opacity="1" transform="translate(1319.1 2105.3) rotate(-70)"/><path d="M0 0 Q 34.9 -64.5 0 -169.8 Q -34.9 -64.5 0 0 Z" fill="#7c3a26" opacity="1" transform="translate(1442.6 2071.4) rotate(-140.7)"/><circle cx="1442.6" cy="2071.4" r="15" fill="#4f6273"/><path d="M0 0 Q 33.8 -62.5 0 -164.5 Q -33.8 -62.5 0 0 Z" fill="#7c3a26" opacity="1" transform="translate(1557.6 2015.1) rotate(-91.4)"/><path d="M0 0 Q 32.8 -60.5 0 -159.3 Q -32.8 -60.5 0 0 Z" fill="#7c3a26" opacity="1" transform="translate(1660.1 1938.5) rotate(-162.1)"/><path d="M0 0 Q 31.7 -58.5 0 -154 Q -31.7 -58.5 0 0 Z" fill="#7c3a26" opacity="1" transform="translate(1746.6 1844.1) rotate(-112.9)"/><circle cx="1746.6" cy="1844.1" r="15" fill="#4f6273"/><path d="M0 0 Q 30.6 -56.5 0 -148.8 Q -30.6 -56.5 0 0 Z" fill="#7c3a26" opacity="1" transform="translate(1814.1 1735.2) rotate(-183.6)"/><path d="M0 0 Q 29.5 -54.5 0 -143.5 Q -29.5 -54.5 0 0 Z" fill="#7c3a26" opacity="1" transform="translate(1860.1 1615.7) rotate(-134.3)"/><path d="M0 0 Q 28.4 -52.5 0 -138.3 Q -28.4 -52.5 0 0 Z" fill="#7c3a26" opacity="1" transform="translate(1883.1 1489.8) rotate(-205)"/><circle cx="1883.1" cy="1489.8" r="15" fill="#4f6273"/><path d="M0 0 Q 27.4 -50.5 0 -133 Q -27.4 -50.5 0 0 Z" fill="#7c3a26" opacity="1" transform="translate(1882.3 1361.7) rotate(-155.7)"/><path d="M0 0 Q 26.3 -48.5 0 -127.8 Q -26.3 -48.5 0 0 Z" fill="#7c3a26" opacity="1" transform="translate(1857.8 1236.1) rotate(-226.4)"/><path d="M0 0 Q 25.2 -46.5 0 -122.5 Q -25.2 -46.5 0 0 Z" fill="#7c3a26" opacity="1" transform="translate(1810.2 1117.2) rotate(-177.1)"/><circle cx="1810.2" cy="1117.2" r="15" fill="#4f6273"/><path d="M0 0 Q 24.1 -44.6 0 -117.3 Q -24.1 -44.6 0 0 Z" fill="#7c3a26" opacity="1" transform="translate(1741.4 1009.2) rotate(-247.9)"/><path d="M0 0 Q 23 -42.6 0 -112 Q -23 -42.6 0 0 Z" fill="#7c3a26" opacity="1" transform="translate(1653.8 915.8) rotate(-198.6)"/><path d="M0 0 Q 22 -40.6 0 -106.8 Q -22 -40.6 0 0 Z" fill="#7c3a26" opacity="1" transform="translate(1550.3 840.4) rotate(-269.3)"/><circle cx="1550.3" cy="840.4" r="15" fill="#4f6273"/><path d="M0 0 Q 20.9 -38.6 0 -101.5 Q -20.9 -38.6 0 0 Z" fill="#7c3a26" opacity="1" transform="translate(1434.5 785.6) rotate(-220)"/><path d="M0 0 Q 36 -66.5 0 -175 Q -36 -66.5 0 0 Z" fill="#7c3a26" opacity="1" transform="translate(1080.9 2105.3) rotate(70)"/><path d="M0 0 Q 34.9 -64.5 0 -169.8 Q -34.9 -64.5 0 0 Z" fill="#7c3a26" opacity="1" transform="translate(957.4 2071.4) rotate(140.7)"/><circle cx="957.4" cy="2071.4" r="15" fill="#4f6273"/><path d="M0 0 Q 33.8 -62.5 0 -164.5 Q -33.8 -62.5 0 0 Z" fill="#7c3a26" opacity="1" transform="translate(842.4 2015.1) rotate(91.4)"/><path d="M0 0 Q 32.8 -60.5 0 -159.3 Q -32.8 -60.5 0 0 Z" fill="#7c3a26" opacity="1" transform="translate(739.9 1938.5) rotate(162.1)"/><path d="M0 0 Q 31.7 -58.5 0 -154 Q -31.7 -58.5 0 0 Z" fill="#7c3a26" opacity="1" transform="translate(653.4 1844.1) rotate(112.9)"/><circle cx="653.4" cy="1844.1" r="15" fill="#4f6273"/><path d="M0 0 Q 30.6 -56.5 0 -148.8 Q -30.6 -56.5 0 0 Z" fill="#7c3a26" opacity="1" transform="translate(585.9 1735.2) rotate(183.6)"/><path d="M0 0 Q 29.5 -54.5 0 -143.5 Q -29.5 -54.5 0 0 Z" fill="#7c3a26" opacity="1" transform="translate(539.9 1615.7) rotate(134.3)"/><path d="M0 0 Q 28.4 -52.5 0 -138.3 Q -28.4 -52.5 0 0 Z" fill="#7c3a26" opacity="1" transform="translate(516.9 1489.8) rotate(205)"/><circle cx="516.9" cy="1489.8" r="15" fill="#4f6273"/><path d="M0 0 Q 27.4 -50.5 0 -133 Q -27.4 -50.5 0 0 Z" fill="#7c3a26" opacity="1" transform="translate(517.7 1361.7) rotate(155.7)"/><path d="M0 0 Q 26.3 -48.5 0 -127.8 Q -26.3 -48.5 0 0 Z" fill="#7c3a26" opacity="1" transform="translate(542.2 1236.1) rotate(226.4)"/><path d="M0 0 Q 25.2 -46.5 0 -122.5 Q -25.2 -46.5 0 0 Z" fill="#7c3a26" opacity="1" transform="translate(589.8 1117.2) rotate(177.1)"/><circle cx="589.8" cy="1117.2" r="15" fill="#4f6273"/><path d="M0 0 Q 24.1 -44.6 0 -117.3 Q -24.1 -44.6 0 0 Z" fill="#7c3a26" opacity="1" transform="translate(658.6 1009.2) rotate(247.9)"/><path d="M0 0 Q 23 -42.6 0 -112 Q -23 -42.6 0 0 Z" fill="#7c3a26" opacity="1" transform="translate(746.2 915.8) rotate(198.6)"/><path d="M0 0 Q 22 -40.6 0 -106.8 Q -22 -40.6 0 0 Z" fill="#7c3a26" opacity="1" transform="translate(849.7 840.4) rotate(269.3)"/><circle cx="849.7" cy="840.4" r="15" fill="#4f6273"/><path d="M0 0 Q 20.9 -38.6 0 -101.5 Q -20.9 -38.6 0 0 Z" fill="#7c3a26" opacity="1" transform="translate(965.5 785.6) rotate(220)"/><path d="M1170,2091.8 l -120,150 l 60,10 l 80,-110 Z" fill="#4f6273"/><path d="M1230,2091.8 l 120,150 l -60,10 l -80,-110 Z" fill="#4f6273"/><polygon points="1200,1170 1241.8,1329.1 1383.8,1246.2 1300.9,1388.2 1460,1430 1300.9,1471.8 1383.8,1613.8 1241.8,1530.9 1200,1690 1158.2,1530.9 1016.2,1613.8 1099.1,1471.8 940,1430 1099.1,1388.2 1016.2,1246.2 1158.2,1329.1 " fill="#4f6273"/><circle cx="1200" cy="1430" r="52" fill="#dfcfb1"/><path d="M286.4,273.6 L 353.6,273.6 L 353.6,206.4 L 300.8,206.4 L 300.8,248 L 328,248 L 328,227.2 M366.4,273.6 L 433.6,273.6 L 433.6,206.4 L 380.8,206.4 L 380.8,248 L 408,248 L 408,227.2 M446.4,273.6 L 513.6,273.6 L 513.6,206.4 L 460.8,206.4 L 460.8,248 L 488,248 L 488,227.2 M526.4,273.6 L 593.6,273.6 L 593.6,206.4 L 540.8,206.4 L 540.8,248 L 568,248 L 568,227.2 M606.4,273.6 L 673.6,273.6 L 673.6,206.4 L 620.8,206.4 L 620.8,248 L 648,248 L 648,227.2 M686.4,273.6 L 753.6,273.6 L 753.6,206.4 L 700.8,206.4 L 700.8,248 L 728,248 L 728,227.2 M766.4,273.6 L 833.6,273.6 L 833.6,206.4 L 780.8,206.4 L 780.8,248 L 808,248 L 808,227.2 M846.4,273.6 L 913.6,273.6 L 913.6,206.4 L 860.8,206.4 L 860.8,248 L 888,248 L 888,227.2 M926.4,273.6 L 993.6,273.6 L 993.6,206.4 L 940.8,206.4 L 940.8,248 L 968,248 L 968,227.2 M1006.4,273.6 L 1073.6,273.6 L 1073.6,206.4 L 1020.8,206.4 L 1020.8,248 L 1048,248 L 1048,227.2 M1086.4,273.6 L 1153.6,273.6 L 1153.6,206.4 L 1100.8,206.4 L 1100.8,248 L 1128,248 L 1128,227.2 M1166.4,273.6 L 1233.6,273.6 L 1233.6,206.4 L 1180.8,206.4 L 1180.8,248 L 1208,248 L 1208,227.2 M1246.4,273.6 L 1313.6,273.6 L 1313.6,206.4 L 1260.8,206.4 L 1260.8,248 L 1288,248 L 1288,227.2 M1326.4,273.6 L 1393.6,273.6 L 1393.6,206.4 L 1340.8,206.4 L 1340.8,248 L 1368,248 L 1368,227.2 M1406.4,273.6 L 1473.6,273.6 L 1473.6,206.4 L 1420.8,206.4 L 1420.8,248 L 1448,248 L 1448,227.2 M1486.4,273.6 L 1553.6,273.6 L 1553.6,206.4 L 1500.8,206.4 L 1500.8,248 L 1528,248 L 1528,227.2 M1566.4,273.6 L 1633.6,273.6 L 1633.6,206.4 L 1580.8,206.4 L 1580.8,248 L 1608,248 L 1608,227.2 M1646.4,273.6 L 1713.6,273.6 L 1713.6,206.4 L 1660.8,206.4 L 1660.8,248 L 1688,248 L 1688,227.2 M1726.4,273.6 L 1793.6,273.6 L 1793.6,206.4 L 1740.8,206.4 L 1740.8,248 L 1768,248 L 1768,227.2 M1806.4,273.6 L 1873.6,273.6 L 1873.6,206.4 L 1820.8,206.4 L 1820.8,248 L 1848,248 L 1848,227.2 M1886.4,273.6 L 1953.6,273.6 L 1953.6,206.4 L 1900.8,206.4 L 1900.8,248 L 1928,248 L 1928,227.2 M1966.4,273.6 L 2033.6,273.6 L 2033.6,206.4 L 1980.8,206.4 L 1980.8,248 L 2008,248 L 2008,227.2 M2046.4,273.6 L 2113.6,273.6 L 2113.6,206.4 L 2060.8,206.4 L 2060.8,248 L 2088,248 L 2088,227.2 " fill="none" stroke="#7c3a26" stroke-width="10.4"/><line x1="280" y1="2806" x2="2120" y2="2806" stroke="#7c3a26" stroke-width="6.9"/><polyline points="339.9,2764.7 339.4,2765.3 339.1,2766.1 339.1,2767.1 339.4,2768.1 340.1,2769.1 341.1,2769.9 342.4,2770.5 344,2770.6 345.6,2770.4 347.3,2769.7 348.8,2768.4 350,2766.8 350.9,2764.7 351.1,2762.4 350.8,2760 349.8,2757.6 348.2,2755.4 346,2753.6 343.2,2752.3 340.1,2751.8 336.9,2752 333.7,2753.1 330.7,2755 328.2,2757.6 326.3,2760.9 325.3,2764.7 325.2,2768.8 326.2,2772.9 328.2,2776.7 331.1,2780.1 334.9,2782.7 339.3,2784.3 344.2,2784.9 349.1,2784.2 353.9,2782.4 358.2,2779.3 361.7,2775.2 364.2,2770.3 365.4,2764.7 365.3,2758.9 363.7,2753.2 360.7,2747.9 356.4,2743.4 351.1,2740 345,2737.9 338.4,2737.3 331.7,2738.4 325.4,2741.1 319.8,2745.3 315.3,2750.9 312.2,2757.4 310.8,2764.7" fill="none" stroke="#7c3a26" stroke-width="7.7" stroke-linecap="round" stroke-linejoin="round"/><polyline points="425.9,2764.7 425.4,2765.3 425.1,2766.1 425.1,2767.1 425.4,2768.1 426.1,2769.1 427.1,2769.9 428.4,2770.5 430,2770.6 431.6,2770.4 433.3,2769.7 434.8,2768.4 436,2766.8 436.9,2764.7 437.1,2762.4 436.8,2760 435.8,2757.6 434.2,2755.4 432,2753.6 429.2,2752.3 426.1,2751.8 422.9,2752 419.7,2753.1 416.7,2755 414.2,2757.6 412.3,2760.9 411.3,2764.7 411.2,2768.8 412.2,2772.9 414.2,2776.7 417.1,2780.1 420.9,2782.7 425.3,2784.3 430.2,2784.9 435.1,2784.2 439.9,2782.4 444.2,2779.3 447.7,2775.2 450.2,2770.3 451.4,2764.7 451.3,2758.9 449.7,2753.2 446.7,2747.9 442.4,2743.4 437.1,2740 431,2737.9 424.4,2737.3 417.7,2738.4 411.4,2741.1 405.8,2745.3 401.3,2750.9 398.2,2757.4 396.8,2764.7" fill="none" stroke="#7c3a26" stroke-width="7.7" stroke-linecap="round" stroke-linejoin="round"/><polyline points="511.9,2764.7 511.4,2765.3 511.1,2766.1 511.1,2767.1 511.4,2768.1 512.1,2769.1 513.1,2769.9 514.4,2770.5 516,2770.6 517.6,2770.4 519.3,2769.7 520.8,2768.4 522,2766.8 522.9,2764.7 523.1,2762.4 522.8,2760 521.8,2757.6 520.2,2755.4 518,2753.6 515.2,2752.3 512.1,2751.8 508.9,2752 505.7,2753.1 502.7,2755 500.2,2757.6 498.3,2760.9 497.3,2764.7 497.2,2768.8 498.2,2772.9 500.2,2776.7 503.1,2780.1 506.9,2782.7 511.3,2784.3 516.2,2784.9 521.1,2784.2 525.9,2782.4 530.2,2779.3 533.7,2775.2 536.2,2770.3 537.4,2764.7 537.3,2758.9 535.7,2753.2 532.7,2747.9 528.4,2743.4 523.1,2740 517,2737.9 510.4,2737.3 503.7,2738.4 497.4,2741.1 491.8,2745.3 487.3,2750.9 484.2,2757.4 482.8,2764.7" fill="none" stroke="#7c3a26" stroke-width="7.7" stroke-linecap="round" stroke-linejoin="round"/><polyline points="597.9,2764.7 597.4,2765.3 597.1,2766.1 597.1,2767.1 597.4,2768.1 598.1,2769.1 599.1,2769.9 600.4,2770.5 602,2770.6 603.6,2770.4 605.3,2769.7 606.8,2768.4 608,2766.8 608.9,2764.7 609.1,2762.4 608.8,2760 607.8,2757.6 606.2,2755.4 604,2753.6 601.2,2752.3 598.1,2751.8 594.9,2752 591.7,2753.1 588.7,2755 586.2,2757.6 584.3,2760.9 583.3,2764.7 583.2,2768.8 584.2,2772.9 586.2,2776.7 589.1,2780.1 592.9,2782.7 597.3,2784.3 602.2,2784.9 607.1,2784.2 611.9,2782.4 616.2,2779.3 619.7,2775.2 622.2,2770.3 623.4,2764.7 623.3,2758.9 621.7,2753.2 618.7,2747.9 614.4,2743.4 609.1,2740 603,2737.9 596.4,2737.3 589.7,2738.4 583.4,2741.1 577.8,2745.3 573.3,2750.9 570.2,2757.4 568.8,2764.7" fill="none" stroke="#7c3a26" stroke-width="7.7" stroke-linecap="round" stroke-linejoin="round"/><polyline points="683.9,2764.7 683.4,2765.3 683.1,2766.1 683.1,2767.1 683.4,2768.1 684.1,2769.1 685.1,2769.9 686.4,2770.5 688,2770.6 689.6,2770.4 691.3,2769.7 692.8,2768.4 694,2766.8 694.9,2764.7 695.1,2762.4 694.8,2760 693.8,2757.6 692.2,2755.4 690,2753.6 687.2,2752.3 684.1,2751.8 680.9,2752 677.7,2753.1 674.7,2755 672.2,2757.6 670.3,2760.9 669.3,2764.7 669.2,2768.8 670.2,2772.9 672.2,2776.7 675.1,2780.1 678.9,2782.7 683.3,2784.3 688.2,2784.9 693.1,2784.2 697.9,2782.4 702.2,2779.3 705.7,2775.2 708.2,2770.3 709.4,2764.7 709.3,2758.9 707.7,2753.2 704.7,2747.9 700.4,2743.4 695.1,2740 689,2737.9 682.4,2737.3 675.7,2738.4 669.4,2741.1 663.8,2745.3 659.3,2750.9 656.2,2757.4 654.8,2764.7" fill="none" stroke="#7c3a26" stroke-width="7.7" stroke-linecap="round" stroke-linejoin="round"/><polyline points="769.9,2764.7 769.4,2765.3 769.1,2766.1 769.1,2767.1 769.4,2768.1 770.1,2769.1 771.1,2769.9 772.4,2770.5 774,2770.6 775.6,2770.4 777.3,2769.7 778.8,2768.4 780,2766.8 780.9,2764.7 781.1,2762.4 780.8,2760 779.8,2757.6 778.2,2755.4 776,2753.6 773.2,2752.3 770.1,2751.8 766.9,2752 763.7,2753.1 760.7,2755 758.2,2757.6 756.3,2760.9 755.3,2764.7 755.2,2768.8 756.2,2772.9 758.2,2776.7 761.1,2780.1 764.9,2782.7 769.3,2784.3 774.2,2784.9 779.1,2784.2 783.9,2782.4 788.2,2779.3 791.7,2775.2 794.2,2770.3 795.4,2764.7 795.3,2758.9 793.7,2753.2 790.7,2747.9 786.4,2743.4 781.1,2740 775,2737.9 768.4,2737.3 761.7,2738.4 755.4,2741.1 749.8,2745.3 745.3,2750.9 742.2,2757.4 740.8,2764.7" fill="none" stroke="#7c3a26" stroke-width="7.7" stroke-linecap="round" stroke-linejoin="round"/><polyline points="855.9,2764.7 855.4,2765.3 855.1,2766.1 855.1,2767.1 855.4,2768.1 856.1,2769.1 857.1,2769.9 858.4,2770.5 860,2770.6 861.6,2770.4 863.3,2769.7 864.8,2768.4 866,2766.8 866.9,2764.7 867.1,2762.4 866.8,2760 865.8,2757.6 864.2,2755.4 862,2753.6 859.2,2752.3 856.1,2751.8 852.9,2752 849.7,2753.1 846.7,2755 844.2,2757.6 842.3,2760.9 841.3,2764.7 841.2,2768.8 842.2,2772.9 844.2,2776.7 847.1,2780.1 850.9,2782.7 855.3,2784.3 860.2,2784.9 865.1,2784.2 869.9,2782.4 874.2,2779.3 877.7,2775.2 880.2,2770.3 881.4,2764.7 881.3,2758.9 879.7,2753.2 876.7,2747.9 872.4,2743.4 867.1,2740 861,2737.9 854.4,2737.3 847.7,2738.4 841.4,2741.1 835.8,2745.3 831.3,2750.9 828.2,2757.4 826.8,2764.7" fill="none" stroke="#7c3a26" stroke-width="7.7" stroke-linecap="round" stroke-linejoin="round"/><polyline points="941.9,2764.7 941.4,2765.3 941.1,2766.1 941.1,2767.1 941.4,2768.1 942.1,2769.1 943.1,2769.9 944.4,2770.5 946,2770.6 947.6,2770.4 949.3,2769.7 950.8,2768.4 952,2766.8 952.9,2764.7 953.1,2762.4 952.8,2760 951.8,2757.6 950.2,2755.4 948,2753.6 945.2,2752.3 942.1,2751.8 938.9,2752 935.7,2753.1 932.7,2755 930.2,2757.6 928.3,2760.9 927.3,2764.7 927.2,2768.8 928.2,2772.9 930.2,2776.7 933.1,2780.1 936.9,2782.7 941.3,2784.3 946.2,2784.9 951.1,2784.2 955.9,2782.4 960.2,2779.3 963.7,2775.2 966.2,2770.3 967.4,2764.7 967.3,2758.9 965.7,2753.2 962.7,2747.9 958.4,2743.4 953.1,2740 947,2737.9 940.4,2737.3 933.7,2738.4 927.4,2741.1 921.8,2745.3 917.3,2750.9 914.2,2757.4 912.8,2764.7" fill="none" stroke="#7c3a26" stroke-width="7.7" stroke-linecap="round" stroke-linejoin="round"/><polyline points="1027.9,2764.7 1027.4,2765.3 1027.1,2766.1 1027.1,2767.1 1027.4,2768.1 1028.1,2769.1 1029.1,2769.9 1030.4,2770.5 1032,2770.6 1033.6,2770.4 1035.3,2769.7 1036.8,2768.4 1038,2766.8 1038.9,2764.7 1039.1,2762.4 1038.8,2760 1037.8,2757.6 1036.2,2755.4 1034,2753.6 1031.2,2752.3 1028.1,2751.8 1024.9,2752 1021.7,2753.1 1018.7,2755 1016.2,2757.6 1014.3,2760.9 1013.3,2764.7 1013.2,2768.8 1014.2,2772.9 1016.2,2776.7 1019.1,2780.1 1022.9,2782.7 1027.3,2784.3 1032.2,2784.9 1037.1,2784.2 1041.9,2782.4 1046.2,2779.3 1049.7,2775.2 1052.2,2770.3 1053.4,2764.7 1053.3,2758.9 1051.7,2753.2 1048.7,2747.9 1044.4,2743.4 1039.1,2740 1033,2737.9 1026.4,2737.3 1019.7,2738.4 1013.4,2741.1 1007.8,2745.3 1003.3,2750.9 1000.2,2757.4 998.8,2764.7" fill="none" stroke="#7c3a26" stroke-width="7.7" stroke-linecap="round" stroke-linejoin="round"/><polyline points="1113.9,2764.7 1113.4,2765.3 1113.1,2766.1 1113.1,2767.1 1113.4,2768.1 1114.1,2769.1 1115.1,2769.9 1116.4,2770.5 1118,2770.6 1119.6,2770.4 1121.3,2769.7 1122.8,2768.4 1124,2766.8 1124.9,2764.7 1125.1,2762.4 1124.8,2760 1123.8,2757.6 1122.2,2755.4 1120,2753.6 1117.2,2752.3 1114.1,2751.8 1110.9,2752 1107.7,2753.1 1104.7,2755 1102.2,2757.6 1100.3,2760.9 1099.3,2764.7 1099.2,2768.8 1100.2,2772.9 1102.2,2776.7 1105.1,2780.1 1108.9,2782.7 1113.3,2784.3 1118.2,2784.9 1123.1,2784.2 1127.9,2782.4 1132.2,2779.3 1135.7,2775.2 1138.2,2770.3 1139.4,2764.7 1139.3,2758.9 1137.7,2753.2 1134.7,2747.9 1130.4,2743.4 1125.1,2740 1119,2737.9 1112.4,2737.3 1105.7,2738.4 1099.4,2741.1 1093.8,2745.3 1089.3,2750.9 1086.2,2757.4 1084.8,2764.7" fill="none" stroke="#7c3a26" stroke-width="7.7" stroke-linecap="round" stroke-linejoin="round"/><polyline points="1199.9,2764.7 1199.4,2765.3 1199.1,2766.1 1199.1,2767.1 1199.4,2768.1 1200.1,2769.1 1201.1,2769.9 1202.4,2770.5 1204,2770.6 1205.6,2770.4 1207.3,2769.7 1208.8,2768.4 1210,2766.8 1210.9,2764.7 1211.1,2762.4 1210.8,2760 1209.8,2757.6 1208.2,2755.4 1206,2753.6 1203.2,2752.3 1200.1,2751.8 1196.9,2752 1193.7,2753.1 1190.7,2755 1188.2,2757.6 1186.3,2760.9 1185.3,2764.7 1185.2,2768.8 1186.2,2772.9 1188.2,2776.7 1191.1,2780.1 1194.9,2782.7 1199.3,2784.3 1204.2,2784.9 1209.1,2784.2 1213.9,2782.4 1218.2,2779.3 1221.7,2775.2 1224.2,2770.3 1225.4,2764.7 1225.3,2758.9 1223.7,2753.2 1220.7,2747.9 1216.4,2743.4 1211.1,2740 1205,2737.9 1198.4,2737.3 1191.7,2738.4 1185.4,2741.1 1179.8,2745.3 1175.3,2750.9 1172.2,2757.4 1170.8,2764.7" fill="none" stroke="#7c3a26" stroke-width="7.7" stroke-linecap="round" stroke-linejoin="round"/><polyline points="1285.9,2764.7 1285.4,2765.3 1285.1,2766.1 1285.1,2767.1 1285.4,2768.1 1286.1,2769.1 1287.1,2769.9 1288.4,2770.5 1290,2770.6 1291.6,2770.4 1293.3,2769.7 1294.8,2768.4 1296,2766.8 1296.9,2764.7 1297.1,2762.4 1296.8,2760 1295.8,2757.6 1294.2,2755.4 1292,2753.6 1289.2,2752.3 1286.1,2751.8 1282.9,2752 1279.7,2753.1 1276.7,2755 1274.2,2757.6 1272.3,2760.9 1271.3,2764.7 1271.2,2768.8 1272.2,2772.9 1274.2,2776.7 1277.1,2780.1 1280.9,2782.7 1285.3,2784.3 1290.2,2784.9 1295.1,2784.2 1299.9,2782.4 1304.2,2779.3 1307.7,2775.2 1310.2,2770.3 1311.4,2764.7 1311.3,2758.9 1309.7,2753.2 1306.7,2747.9 1302.4,2743.4 1297.1,2740 1291,2737.9 1284.4,2737.3 1277.7,2738.4 1271.4,2741.1 1265.8,2745.3 1261.3,2750.9 1258.2,2757.4 1256.8,2764.7" fill="none" stroke="#7c3a26" stroke-width="7.7" stroke-linecap="round" stroke-linejoin="round"/><polyline points="1371.9,2764.7 1371.4,2765.3 1371.1,2766.1 1371.1,2767.1 1371.4,2768.1 1372.1,2769.1 1373.1,2769.9 1374.4,2770.5 1376,2770.6 1377.6,2770.4 1379.3,2769.7 1380.8,2768.4 1382,2766.8 1382.9,2764.7 1383.1,2762.4 1382.8,2760 1381.8,2757.6 1380.2,2755.4 1378,2753.6 1375.2,2752.3 1372.1,2751.8 1368.9,2752 1365.7,2753.1 1362.7,2755 1360.2,2757.6 1358.3,2760.9 1357.3,2764.7 1357.2,2768.8 1358.2,2772.9 1360.2,2776.7 1363.1,2780.1 1366.9,2782.7 1371.3,2784.3 1376.2,2784.9 1381.1,2784.2 1385.9,2782.4 1390.2,2779.3 1393.7,2775.2 1396.2,2770.3 1397.4,2764.7 1397.3,2758.9 1395.7,2753.2 1392.7,2747.9 1388.4,2743.4 1383.1,2740 1377,2737.9 1370.4,2737.3 1363.7,2738.4 1357.4,2741.1 1351.8,2745.3 1347.3,2750.9 1344.2,2757.4 1342.8,2764.7" fill="none" stroke="#7c3a26" stroke-width="7.7" stroke-linecap="round" stroke-linejoin="round"/><polyline points="1457.9,2764.7 1457.4,2765.3 1457.1,2766.1 1457.1,2767.1 1457.4,2768.1 1458.1,2769.1 1459.1,2769.9 1460.4,2770.5 1462,2770.6 1463.6,2770.4 1465.3,2769.7 1466.8,2768.4 1468,2766.8 1468.9,2764.7 1469.1,2762.4 1468.8,2760 1467.8,2757.6 1466.2,2755.4 1464,2753.6 1461.2,2752.3 1458.1,2751.8 1454.9,2752 1451.7,2753.1 1448.7,2755 1446.2,2757.6 1444.3,2760.9 1443.3,2764.7 1443.2,2768.8 1444.2,2772.9 1446.2,2776.7 1449.1,2780.1 1452.9,2782.7 1457.3,2784.3 1462.2,2784.9 1467.1,2784.2 1471.9,2782.4 1476.2,2779.3 1479.7,2775.2 1482.2,2770.3 1483.4,2764.7 1483.3,2758.9 1481.7,2753.2 1478.7,2747.9 1474.4,2743.4 1469.1,2740 1463,2737.9 1456.4,2737.3 1449.7,2738.4 1443.4,2741.1 1437.8,2745.3 1433.3,2750.9 1430.2,2757.4 1428.8,2764.7" fill="none" stroke="#7c3a26" stroke-width="7.7" stroke-linecap="round" stroke-linejoin="round"/><polyline points="1543.9,2764.7 1543.4,2765.3 1543.1,2766.1 1543.1,2767.1 1543.4,2768.1 1544.1,2769.1 1545.1,2769.9 1546.4,2770.5 1548,2770.6 1549.6,2770.4 1551.3,2769.7 1552.8,2768.4 1554,2766.8 1554.9,2764.7 1555.1,2762.4 1554.8,2760 1553.8,2757.6 1552.2,2755.4 1550,2753.6 1547.2,2752.3 1544.1,2751.8 1540.9,2752 1537.7,2753.1 1534.7,2755 1532.2,2757.6 1530.3,2760.9 1529.3,2764.7 1529.2,2768.8 1530.2,2772.9 1532.2,2776.7 1535.1,2780.1 1538.9,2782.7 1543.3,2784.3 1548.2,2784.9 1553.1,2784.2 1557.9,2782.4 1562.2,2779.3 1565.7,2775.2 1568.2,2770.3 1569.4,2764.7 1569.3,2758.9 1567.7,2753.2 1564.7,2747.9 1560.4,2743.4 1555.1,2740 1549,2737.9 1542.4,2737.3 1535.7,2738.4 1529.4,2741.1 1523.8,2745.3 1519.3,2750.9 1516.2,2757.4 1514.8,2764.7" fill="none" stroke="#7c3a26" stroke-width="7.7" stroke-linecap="round" stroke-linejoin="round"/><polyline points="1629.9,2764.7 1629.4,2765.3 1629.1,2766.1 1629.1,2767.1 1629.4,2768.1 1630.1,2769.1 1631.1,2769.9 1632.4,2770.5 1634,2770.6 1635.6,2770.4 1637.3,2769.7 1638.8,2768.4 1640,2766.8 1640.9,2764.7 1641.1,2762.4 1640.8,2760 1639.8,2757.6 1638.2,2755.4 1636,2753.6 1633.2,2752.3 1630.1,2751.8 1626.9,2752 1623.7,2753.1 1620.7,2755 1618.2,2757.6 1616.3,2760.9 1615.3,2764.7 1615.2,2768.8 1616.2,2772.9 1618.2,2776.7 1621.1,2780.1 1624.9,2782.7 1629.3,2784.3 1634.2,2784.9 1639.1,2784.2 1643.9,2782.4 1648.2,2779.3 1651.7,2775.2 1654.2,2770.3 1655.4,2764.7 1655.3,2758.9 1653.7,2753.2 1650.7,2747.9 1646.4,2743.4 1641.1,2740 1635,2737.9 1628.4,2737.3 1621.7,2738.4 1615.4,2741.1 1609.8,2745.3 1605.3,2750.9 1602.2,2757.4 1600.8,2764.7" fill="none" stroke="#7c3a26" stroke-width="7.7" stroke-linecap="round" stroke-linejoin="round"/><polyline points="1715.9,2764.7 1715.4,2765.3 1715.1,2766.1 1715.1,2767.1 1715.4,2768.1 1716.1,2769.1 1717.1,2769.9 1718.4,2770.5 1720,2770.6 1721.6,2770.4 1723.3,2769.7 1724.8,2768.4 1726,2766.8 1726.9,2764.7 1727.1,2762.4 1726.8,2760 1725.8,2757.6 1724.2,2755.4 1722,2753.6 1719.2,2752.3 1716.1,2751.8 1712.9,2752 1709.7,2753.1 1706.7,2755 1704.2,2757.6 1702.3,2760.9 1701.3,2764.7 1701.2,2768.8 1702.2,2772.9 1704.2,2776.7 1707.1,2780.1 1710.9,2782.7 1715.3,2784.3 1720.2,2784.9 1725.1,2784.2 1729.9,2782.4 1734.2,2779.3 1737.7,2775.2 1740.2,2770.3 1741.4,2764.7 1741.3,2758.9 1739.7,2753.2 1736.7,2747.9 1732.4,2743.4 1727.1,2740 1721,2737.9 1714.4,2737.3 1707.7,2738.4 1701.4,2741.1 1695.8,2745.3 1691.3,2750.9 1688.2,2757.4 1686.8,2764.7" fill="none" stroke="#7c3a26" stroke-width="7.7" stroke-linecap="round" stroke-linejoin="round"/><polyline points="1801.9,2764.7 1801.4,2765.3 1801.1,2766.1 1801.1,2767.1 1801.4,2768.1 1802.1,2769.1 1803.1,2769.9 1804.4,2770.5 1806,2770.6 1807.6,2770.4 1809.3,2769.7 1810.8,2768.4 1812,2766.8 1812.9,2764.7 1813.1,2762.4 1812.8,2760 1811.8,2757.6 1810.2,2755.4 1808,2753.6 1805.2,2752.3 1802.1,2751.8 1798.9,2752 1795.7,2753.1 1792.7,2755 1790.2,2757.6 1788.3,2760.9 1787.3,2764.7 1787.2,2768.8 1788.2,2772.9 1790.2,2776.7 1793.1,2780.1 1796.9,2782.7 1801.3,2784.3 1806.2,2784.9 1811.1,2784.2 1815.9,2782.4 1820.2,2779.3 1823.7,2775.2 1826.2,2770.3 1827.4,2764.7 1827.3,2758.9 1825.7,2753.2 1822.7,2747.9 1818.4,2743.4 1813.1,2740 1807,2737.9 1800.4,2737.3 1793.7,2738.4 1787.4,2741.1 1781.8,2745.3 1777.3,2750.9 1774.2,2757.4 1772.8,2764.7" fill="none" stroke="#7c3a26" stroke-width="7.7" stroke-linecap="round" stroke-linejoin="round"/><polyline points="1887.9,2764.7 1887.4,2765.3 1887.1,2766.1 1887.1,2767.1 1887.4,2768.1 1888.1,2769.1 1889.1,2769.9 1890.4,2770.5 1892,2770.6 1893.6,2770.4 1895.3,2769.7 1896.8,2768.4 1898,2766.8 1898.9,2764.7 1899.1,2762.4 1898.8,2760 1897.8,2757.6 1896.2,2755.4 1894,2753.6 1891.2,2752.3 1888.1,2751.8 1884.9,2752 1881.7,2753.1 1878.7,2755 1876.2,2757.6 1874.3,2760.9 1873.3,2764.7 1873.2,2768.8 1874.2,2772.9 1876.2,2776.7 1879.1,2780.1 1882.9,2782.7 1887.3,2784.3 1892.2,2784.9 1897.1,2784.2 1901.9,2782.4 1906.2,2779.3 1909.7,2775.2 1912.2,2770.3 1913.4,2764.7 1913.3,2758.9 1911.7,2753.2 1908.7,2747.9 1904.4,2743.4 1899.1,2740 1893,2737.9 1886.4,2737.3 1879.7,2738.4 1873.4,2741.1 1867.8,2745.3 1863.3,2750.9 1860.2,2757.4 1858.8,2764.7" fill="none" stroke="#7c3a26" stroke-width="7.7" stroke-linecap="round" stroke-linejoin="round"/><polyline points="1973.9,2764.7 1973.4,2765.3 1973.1,2766.1 1973.1,2767.1 1973.4,2768.1 1974.1,2769.1 1975.1,2769.9 1976.4,2770.5 1978,2770.6 1979.6,2770.4 1981.3,2769.7 1982.8,2768.4 1984,2766.8 1984.9,2764.7 1985.1,2762.4 1984.8,2760 1983.8,2757.6 1982.2,2755.4 1980,2753.6 1977.2,2752.3 1974.1,2751.8 1970.9,2752 1967.7,2753.1 1964.7,2755 1962.2,2757.6 1960.3,2760.9 1959.3,2764.7 1959.2,2768.8 1960.2,2772.9 1962.2,2776.7 1965.1,2780.1 1968.9,2782.7 1973.3,2784.3 1978.2,2784.9 1983.1,2784.2 1987.9,2782.4 1992.2,2779.3 1995.7,2775.2 1998.2,2770.3 1999.4,2764.7 1999.3,2758.9 1997.7,2753.2 1994.7,2747.9 1990.4,2743.4 1985.1,2740 1979,2737.9 1972.4,2737.3 1965.7,2738.4 1959.4,2741.1 1953.8,2745.3 1949.3,2750.9 1946.2,2757.4 1944.8,2764.7" fill="none" stroke="#7c3a26" stroke-width="7.7" stroke-linecap="round" stroke-linejoin="round"/><polyline points="2059.9,2764.7 2059.4,2765.3 2059.1,2766.1 2059.1,2767.1 2059.4,2768.1 2060.1,2769.1 2061.1,2769.9 2062.4,2770.5 2064,2770.6 2065.6,2770.4 2067.3,2769.7 2068.8,2768.4 2070,2766.8 2070.9,2764.7 2071.1,2762.4 2070.8,2760 2069.8,2757.6 2068.2,2755.4 2066,2753.6 2063.2,2752.3 2060.1,2751.8 2056.9,2752 2053.7,2753.1 2050.7,2755 2048.2,2757.6 2046.3,2760.9 2045.3,2764.7 2045.2,2768.8 2046.2,2772.9 2048.2,2776.7 2051.1,2780.1 2054.9,2782.7 2059.3,2784.3 2064.2,2784.9 2069.1,2784.2 2073.9,2782.4 2078.2,2779.3 2081.7,2775.2 2084.2,2770.3 2085.4,2764.7 2085.3,2758.9 2083.7,2753.2 2080.7,2747.9 2076.4,2743.4 2071.1,2740 2065,2737.9 2058.4,2737.3 2051.7,2738.4 2045.4,2741.1 2039.8,2745.3 2035.3,2750.9 2032.2,2757.4 2030.8,2764.7" fill="none" stroke="#7c3a26" stroke-width="7.7" stroke-linecap="round" stroke-linejoin="round"/><rect x="104" y="104" width="2192" height="2792" fill="none" stroke="#7c3a26" stroke-width="16" opacity="0.85"/><rect x="150" y="150" width="2100" height="2700" fill="none" stroke="#7c3a26" stroke-width="4" opacity="0.55"/></g><rect width="2400" height="3000" filter="url(#a77-mottle)" style="mix-blend-mode:multiply" opacity="0.5"/><rect width="2400" height="3000" filter="url(#a77-fade)" style="mix-blend-mode:screen" opacity="0.55"/><rect width="2400" height="3000" filter="url(#a77-grain)" style="mix-blend-mode:multiply" opacity="0.32"/><ellipse cx="408.9" cy="2358.9" rx="281.5" ry="184.6" fill="#6b4a22" opacity="0.044" filter="url(#a77-blur9)"/><ellipse cx="1294.3" cy="1409.5" rx="168.6" ry="130.3" fill="#6b4a22" opacity="0.049" filter="url(#a77-blur9)"/><ellipse cx="438.7" cy="1338.6" rx="223.7" ry="191.1" fill="#6b4a22" opacity="0.059" filter="url(#a77-blur9)"/><ellipse cx="623" cy="2005.2" rx="157" ry="157.3" fill="#6b4a22" opacity="0.028" filter="url(#a77-blur9)"/><ellipse cx="1978.3" cy="465.4" rx="268.3" ry="236.4" fill="#6b4a22" opacity="0.048" filter="url(#a77-blur9)"/><polyline points="455.6,918.6 479.5,820 583.6,764.1 642.6,760.5 687.3,802.1 706.9,875.7 733.1,990.9 793.4,1065.3 830.7,1111.4" fill="none" stroke="#2e2116" stroke-width="2.7" opacity="0.25" stroke-linejoin="round"/><polyline points="455.6,918.6 479.5,820 583.6,764.1 642.6,760.5 687.3,802.1 706.9,875.7 733.1,990.9 793.4,1065.3 830.7,1111.4" fill="none" stroke="#fff8ea" stroke-width="1.9" opacity="0.09" transform="translate(2.5 2.5)" stroke-linejoin="round"/><polyline points="1559.7,2780.6 1485.1,2871.3 1471.4,2942.8 1498.1,3054.6 1608.9,3118.5 1701.8,3158.8 1818.2,3241.6 1839.9,3293.3 1941.5,3380.1 2033.7,3497 2071.4,3637.6 2049.6,3742 2089.2,3801.5" fill="none" stroke="#2e2116" stroke-width="3.1" opacity="0.25" stroke-linejoin="round"/><polyline points="1559.7,2780.6 1485.1,2871.3 1471.4,2942.8 1498.1,3054.6 1608.9,3118.5 1701.8,3158.8 1818.2,3241.6 1839.9,3293.3 1941.5,3380.1 2033.7,3497 2071.4,3637.6 2049.6,3742 2089.2,3801.5" fill="none" stroke="#fff8ea" stroke-width="2.2" opacity="0.15" transform="translate(2.5 2.5)" stroke-linejoin="round"/><polyline points="1796.2,1512.1 1658.3,1456.9 1593.3,1405.1 1575.3,1326.9 1548.3,1217.3 1577.9,1150.9 1709.3,1098.8 1762.2,1050.4 1856.1,945.3 1896.9,904.3 1945.2,874.3" fill="none" stroke="#2e2116" stroke-width="3.8" opacity="0.26" stroke-linejoin="round"/><polyline points="1796.2,1512.1 1658.3,1456.9 1593.3,1405.1 1575.3,1326.9 1548.3,1217.3 1577.9,1150.9 1709.3,1098.8 1762.2,1050.4 1856.1,945.3 1896.9,904.3 1945.2,874.3" fill="none" stroke="#fff8ea" stroke-width="2.6" opacity="0.13" transform="translate(2.5 2.5)" stroke-linejoin="round"/><polyline points="571.2,797.7 646.3,763.8 666.7,713.3 660.7,652 612.7,605.6 575.4,543.8 544.3,481.4 503,382.7 377.6,307.9 251.6,239.8 165.3,127.6 165.6,-17.9" fill="none" stroke="#2e2116" stroke-width="3.1" opacity="0.30" stroke-linejoin="round"/><polyline points="571.2,797.7 646.3,763.8 666.7,713.3 660.7,652 612.7,605.6 575.4,543.8 544.3,481.4 503,382.7 377.6,307.9 251.6,239.8 165.3,127.6 165.6,-17.9" fill="none" stroke="#fff8ea" stroke-width="2.1" opacity="0.12" transform="translate(2.5 2.5)" stroke-linejoin="round"/><polyline points="765.9,1992.8 802.9,1912.8 861.6,1867 942.5,1778.5 1018.6,1723.7 1155.8,1689.3 1262.6,1744.5 1393.8,1719.6 1510.8,1692.2 1592.8,1572.5 1676.9,1526.7 1730.4,1512.1 1863,1554.3" fill="none" stroke="#2e2116" stroke-width="3.9" opacity="0.18" stroke-linejoin="round"/><polyline points="765.9,1992.8 802.9,1912.8 861.6,1867 942.5,1778.5 1018.6,1723.7 1155.8,1689.3 1262.6,1744.5 1393.8,1719.6 1510.8,1692.2 1592.8,1572.5 1676.9,1526.7 1730.4,1512.1 1863,1554.3" fill="none" stroke="#fff8ea" stroke-width="2.7" opacity="0.11" transform="translate(2.5 2.5)" stroke-linejoin="round"/><polyline points="825.2,2612.4 767.6,2610.9 667.8,2578 570.8,2571.1 515.3,2607.1 409.5,2707.8 415.9,2794.4" fill="none" stroke="#2e2116" stroke-width="3.2" opacity="0.26" stroke-linejoin="round"/><polyline points="825.2,2612.4 767.6,2610.9 667.8,2578 570.8,2571.1 515.3,2607.1 409.5,2707.8 415.9,2794.4" fill="none" stroke="#fff8ea" stroke-width="2.2" opacity="0.12" transform="translate(2.5 2.5)" stroke-linejoin="round"/><polyline points="1045.6,636.6 1099.4,736.3 1196.1,841.5 1311.8,888.2 1388.2,897.7 1506.9,860.8 1546.6,766.2 1584.7,663.7 1625.9,618.6 1730.1,579.9" fill="none" stroke="#2e2116" stroke-width="2.2" opacity="0.16" stroke-linejoin="round"/><polyline points="1045.6,636.6 1099.4,736.3 1196.1,841.5 1311.8,888.2 1388.2,897.7 1506.9,860.8 1546.6,766.2 1584.7,663.7 1625.9,618.6 1730.1,579.9" fill="none" stroke="#fff8ea" stroke-width="1.6" opacity="0.15" transform="translate(2.5 2.5)" stroke-linejoin="round"/><polyline points="459.2,2467.4 426.5,2360.7 447.1,2214.1 435.6,2147.7 409.3,2090 331,2022.2 236,1996.2 178.8,1976" fill="none" stroke="#2e2116" stroke-width="4.3" opacity="0.14" stroke-linejoin="round"/><polyline points="459.2,2467.4 426.5,2360.7 447.1,2214.1 435.6,2147.7 409.3,2090 331,2022.2 236,1996.2 178.8,1976" fill="none" stroke="#fff8ea" stroke-width="3" opacity="0.08" transform="translate(2.5 2.5)" stroke-linejoin="round"/><polyline points="630.3,968.6 572.1,1039.5 446.8,1046.2 360.9,1138.7 337,1249.4 416.7,1357.4 409.3,1438 409.8,1546.1 446.9,1604.4 450.5,1679.3 464.9,1752 496.4,1805.1 570.5,1871.3" fill="none" stroke="#2e2116" stroke-width="2.6" opacity="0.17" stroke-linejoin="round"/><polyline points="630.3,968.6 572.1,1039.5 446.8,1046.2 360.9,1138.7 337,1249.4 416.7,1357.4 409.3,1438 409.8,1546.1 446.9,1604.4 450.5,1679.3 464.9,1752 496.4,1805.1 570.5,1871.3" fill="none" stroke="#fff8ea" stroke-width="1.8" opacity="0.13" transform="translate(2.5 2.5)" stroke-linejoin="round"/><polyline points="1566.6,2739.2 1614.3,2643.1 1700.4,2564.2 1758.3,2546.7 1809,2539.6 1924.2,2605.8 2017,2680.5 2065.7,2762.2 2165.8,2791.3 2255.7,2852.4 2371.5,2881.8 2448.4,2914.8" fill="none" stroke="#2e2116" stroke-width="2.4" opacity="0.20" stroke-linejoin="round"/><polyline points="1566.6,2739.2 1614.3,2643.1 1700.4,2564.2 1758.3,2546.7 1809,2539.6 1924.2,2605.8 2017,2680.5 2065.7,2762.2 2165.8,2791.3 2255.7,2852.4 2371.5,2881.8 2448.4,2914.8" fill="none" stroke="#fff8ea" stroke-width="1.7" opacity="0.14" transform="translate(2.5 2.5)" stroke-linejoin="round"/><path d="M304.3,2049.5 Q303.2,2071.7 276.4,2071.2 Q249.6,2070.7 226.6,2060.1 Q203.5,2049.4 206.3,2028.1 Q209,2006.8 230.9,2001.1 Q252.7,1995.4 281.5,1995.6 Q310.3,1995.8 307.8,2011.5 Q305.3,2027.2 304.3,2049.5 Z" fill="#dfcfb1" opacity="0.76"/><path d="M500.8,1538.6 Q494,1555.8 476.4,1557.6 Q458.7,1559.5 442.7,1548.3 Q426.7,1537.1 427.5,1522.2 Q428.2,1507.3 443,1495.8 Q457.8,1484.3 475.4,1488.5 Q493,1492.6 500.3,1507.1 Q507.7,1521.5 500.8,1538.6 Z" fill="#dfcfb1" opacity="0.94"/><path d="M1539.2,276.6 Q1524.6,290.9 1501.4,286.3 Q1478.2,281.8 1458.3,278.1 Q1438.4,274.4 1437,263.4 Q1435.6,252.3 1458.5,238.7 Q1481.3,225.2 1516,231 Q1550.7,236.9 1552.3,249.6 Q1553.8,262.3 1539.2,276.6 Z" fill="#dfcfb1" opacity="0.93"/><path d="M684,2462.1 Q677.1,2495.5 648.3,2489.5 Q619.5,2483.4 604.5,2471.2 Q589.6,2459 578.1,2423.7 Q566.6,2388.3 590.1,2368.3 Q613.7,2348.2 644.4,2351.3 Q675.1,2354.3 682.9,2391.5 Q690.8,2428.8 684,2462.1 Z" fill="#dfcfb1" opacity="0.92"/><rect width="2400" height="3000" fill="url(#a77-vig)"/></svg></svg>