<svg xmlns="http://www.w3.org/2000/svg" width="2400" height="1800" viewBox="0 0 2400 1800"><rect width="2400" height="1800" fill="#dfe4dc"/><rect y="1400" width="2400" height="400" fill="#c2a67e"/><line x1="60" y1="1400" x2="10" y2="1800" stroke="#00000015" stroke-width="5"/><line x1="260" y1="1400" x2="210" y2="1800" stroke="#00000015" stroke-width="5"/><line x1="460" y1="1400" x2="410" y2="1800" stroke="#00000015" stroke-width="5"/><line x1="660" y1="1400" x2="610" y2="1800" stroke="#00000015" stroke-width="5"/><line x1="860" y1="1400" x2="810" y2="1800" stroke="#00000015" stroke-width="5"/><line x1="1060" y1="1400" x2="1010" y2="1800" stroke="#00000015" stroke-width="5"/><line x1="1260" y1="1400" x2="1210" y2="1800" stroke="#00000015" stroke-width="5"/><line x1="1460" y1="1400" x2="1410" y2="1800" stroke="#00000015" stroke-width="5"/><line x1="1660" y1="1400" x2="1610" y2="1800" stroke="#00000015" stroke-width="5"/><line x1="1860" y1="1400" x2="1810" y2="1800" stroke="#00000015" stroke-width="5"/><line x1="2060" y1="1400" x2="2010" y2="1800" stroke="#00000015" stroke-width="5"/><line x1="2260" y1="1400" x2="2210" y2="1800" stroke="#00000015" stroke-width="5"/><rect x="180" y="260" width="900" height="620" fill="#8a6a48"/><rect x="215" y="295" width="830" height="550" fill="#41524a"/><line x1="280" y1="420" x2="760" y2="420" stroke="#ffffff66" stroke-width="9" stroke-linecap="round"/><line x1="280" y1="520" x2="620" y2="520" stroke="#ffffff44" stroke-width="9" stroke-linecap="round"/><circle cx="880" cy="560" r="90" fill="none" stroke="#ffffff55" stroke-width="8"/><rect x="215" y="845" width="830" height="22" fill="#6f5436"/><rect x="330" y="1240" width="640" height="60" rx="10" fill="#9c7449"/><rect x="370" y="1300" width="60" height="240" fill="#8a6540"/><rect x="870" y="1300" width="60" height="240" fill="#8a6540"/><rect x="430" y="1160" width="150" height="80" rx="8" fill="#96a396"/><rect x="450" y="1120" width="150" height="40" rx="8" fill="#cfc7b2"/><circle cx="800" cy="1130" r="86" fill="#7fa3b8"/><path d="M760,1060 Q820,1100 780,1190 M740,1090 Q800,1120 850,1100" stroke="#5d8069" stroke-width="16" fill="none" stroke-linecap="round"/><circle cx="800" cy="1130" r="86" fill="none" stroke="#6b5233" stroke-width="7"/><line x1="800" y1="1216" x2="800" y2="1250" stroke="#6b5233" stroke-width="10"/><rect x="750" y="1244" width="100" height="14" rx="7" fill="#6b5233"/><rect x="1980" y="700" width="300" height="800" fill="#9c7449"/><rect x="2000" y="930" width="260" height="16" fill="#7c5a37"/><rect x="2020" y="790" width="36" height="140" fill="#b3502f"/><rect x="2066" y="802" width="36" height="128" fill="#39685c"/><rect x="2112" y="790" width="36" height="140" fill="#c9a227"/><rect x="2158" y="802" width="36" height="128" fill="#2c4661"/><rect x="2204" y="790" width="36" height="140" fill="#8a4423"/><rect x="2000" y="1180" width="260" height="16" fill="#7c5a37"/><rect x="2020" y="1040" width="36" height="140" fill="#39685c"/><rect x="2066" y="1052" width="36" height="128" fill="#c9a227"/><rect x="2112" y="1040" width="36" height="140" fill="#2c4661"/><rect x="2158" y="1052" width="36" height="128" fill="#8a4423"/><rect x="2204" y="1040" width="36" height="140" fill="#b3502f"/><rect x="2000" y="1430" width="260" height="16" fill="#7c5a37"/><rect x="2020" y="1290" width="36" height="140" fill="#c9a227"/><rect x="2066" y="1302" width="36" height="128" fill="#2c4661"/><rect x="2112" y="1290" width="36" height="140" fill="#8a4423"/><rect x="2158" y="1302" width="36" height="128" fill="#b3502f"/><rect x="2204" y="1290" width="36" height="140" fill="#39685c"/><defs><filter id="a12c-sh" x="-30%" y="-30%" width="160%" height="160%"><feGaussianBlur stdDeviation="16"/></filter></defs><rect x="1340.5" y="298.5" width="517" height="635" fill="#000" opacity="0.28" filter="url(#a12c-sh)"/><rect x="1326.5" y="276.5" width="517" height="635" fill="#3d342a"/><rect x="1341.8" y="291.8" width="486.4" height="604.5" fill="none" stroke="#00000055" stroke-width="3"/><rect x="1350" y="300" width="470" height="588" fill="#f6f2ea"/><svg x="1385.3" y="335.3" width="399.5" height="517.5" viewBox="0 0 2400 3000" preserveAspectRatio="xMidYMid slice"><rect width="2400" height="3000" fill="#e7e1d3"/><radialGradient id="a12-vig" cx="50%" cy="42%" r="80%"><stop offset="55%" stop-color="#000" stop-opacity="0"/><stop offset="100%" stop-color="#000" stop-opacity="0.15"/></radialGradient><rect width="2400" height="3000" fill="url(#a12-vig)"/><circle cx="1449.4" cy="636.8" r="4" fill="#39685c" opacity="0.034"/><circle cx="2093.4" cy="1347.9" r="4.1" fill="#39685c" opacity="0.060"/><circle cx="1430.2" cy="1310.7" r="2.1" fill="#39685c" opacity="0.067"/><circle cx="430.7" cy="2566.7" r="3.3" fill="#39685c" opacity="0.078"/><circle cx="2322" cy="296.2" r="3" fill="#39685c" opacity="0.039"/><circle cx="1476.2" cy="2639.2" r="4.5" fill="#39685c" opacity="0.079"/><circle cx="722.7" cy="2119.3" r="3.8" fill="#39685c" opacity="0.033"/><circle cx="201.4" cy="1776.2" r="4.1" fill="#39685c" opacity="0.032"/><circle cx="392.9" cy="1029.2" r="4.1" fill="#39685c" opacity="0.045"/><circle cx="2337.6" cy="2885.2" r="2.1" fill="#39685c" opacity="0.073"/><circle cx="962" cy="2787.4" r="4.4" fill="#39685c" opacity="0.063"/><circle cx="687.4" cy="1586.8" r="4" fill="#39685c" opacity="0.079"/><circle cx="2179.7" cy="615.8" r="2.1" fill="#39685c" opacity="0.033"/><circle cx="2016" cy="678.3" r="2.6" fill="#39685c" opacity="0.058"/><circle cx="1282.3" cy="989.3" r="1.6" fill="#39685c" opacity="0.048"/><circle cx="579.5" cy="956.8" r="4.4" fill="#39685c" opacity="0.033"/><circle cx="1800.1" cy="1606" r="3.6" fill="#39685c" opacity="0.037"/><circle cx="842.9" cy="1237.4" r="1.6" fill="#39685c" opacity="0.044"/><circle cx="1603.1" cy="2717.1" r="2.9" fill="#39685c" opacity="0.055"/><circle cx="1890" cy="201" r="3.5" fill="#39685c" opacity="0.049"/><circle cx="464.1" cy="474.8" r="1.8" fill="#39685c" opacity="0.076"/><circle cx="2233.8" cy="380.1" r="4.3" fill="#39685c" opacity="0.032"/><circle cx="1381.9" cy="2467.1" r="3.6" fill="#39685c" opacity="0.066"/><circle cx="289" cy="2924.6" r="3.9" fill="#39685c" opacity="0.037"/><circle cx="890.3" cy="2645.9" r="3.7" fill="#39685c" opacity="0.055"/><circle cx="1508.4" cy="837.2" r="1.6" fill="#39685c" opacity="0.059"/><circle cx="196.8" cy="1124.9" r="2.7" fill="#39685c" opacity="0.077"/><circle cx="1997" cy="2623.2" r="3.8" fill="#39685c" opacity="0.068"/><circle cx="1500.5" cy="1023.2" r="2" fill="#39685c" opacity="0.073"/><circle cx="1292.2" cy="592.1" r="3.2" fill="#39685c" opacity="0.040"/><circle cx="502.1" cy="2897.7" r="1.6" fill="#39685c" opacity="0.075"/><circle cx="1781.7" cy="213.6" r="3.9" fill="#39685c" opacity="0.058"/><circle cx="483.8" cy="2191.5" r="4.1" fill="#39685c" opacity="0.078"/><circle cx="743.9" cy="1282.7" r="2.4" fill="#39685c" opacity="0.042"/><circle cx="927.3" cy="1933.1" r="4" fill="#39685c" opacity="0.060"/><circle cx="2132.5" cy="2126.1" r="4" fill="#39685c" opacity="0.051"/><circle cx="518.9" cy="1698.3" r="2.1" fill="#39685c" opacity="0.078"/><circle cx="2240.2" cy="1379.2" r="3.8" fill="#39685c" opacity="0.035"/><circle cx="2180.3" cy="1346.8" r="3" fill="#39685c" opacity="0.035"/><circle cx="2099.8" cy="2241.1" r="3.2" fill="#39685c" opacity="0.058"/><circle cx="121.8" cy="2686.4" r="4.3" fill="#39685c" opacity="0.074"/><circle cx="390.7" cy="397.8" r="3.5" fill="#39685c" opacity="0.031"/><circle cx="1145.1" cy="478.9" r="2.3" fill="#39685c" opacity="0.052"/><circle cx="521.4" cy="1358" r="3.4" fill="#39685c" opacity="0.068"/><circle cx="136" cy="2818.8" r="3.7" fill="#39685c" opacity="0.048"/><circle cx="992" cy="1416.4" r="4" fill="#39685c" opacity="0.035"/><circle cx="1236.4" cy="1051.1" r="3.6" fill="#39685c" opacity="0.075"/><circle cx="2048.3" cy="242.6" r="3.9" fill="#39685c" opacity="0.052"/><circle cx="1184.8" cy="268.5" r="3.6" fill="#39685c" opacity="0.059"/><circle cx="508.7" cy="2831.1" r="3.3" fill="#39685c" opacity="0.041"/><circle cx="124.7" cy="2640.5" r="3.2" fill="#39685c" opacity="0.079"/><circle cx="927.2" cy="1421.8" r="4.1" fill="#39685c" opacity="0.075"/><circle cx="1971.4" cy="2109.8" r="4.1" fill="#39685c" opacity="0.064"/><circle cx="1343" cy="200.9" r="2.4" fill="#39685c" opacity="0.075"/><circle cx="1984.5" cy="2832.5" r="3.6" fill="#39685c" opacity="0.045"/><circle cx="479.3" cy="616.9" r="1.6" fill="#39685c" opacity="0.067"/><circle cx="1120.7" cy="2592.5" r="1.9" fill="#39685c" opacity="0.067"/><circle cx="84.7" cy="1825.2" r="4.3" fill="#39685c" opacity="0.034"/><circle cx="706.2" cy="461" r="2.9" fill="#39685c" opacity="0.065"/><circle cx="641.1" cy="1919.7" r="2.4" fill="#39685c" opacity="0.066"/><circle cx="1235.2" cy="2929.6" r="2.7" fill="#39685c" opacity="0.073"/><circle cx="427" cy="213.8" r="2.5" fill="#39685c" opacity="0.061"/><circle cx="461.2" cy="1800.3" r="1.9" fill="#39685c" opacity="0.053"/><circle cx="1863.7" cy="2633" r="2.4" fill="#39685c" opacity="0.077"/><circle cx="636.9" cy="2154.9" r="4.5" fill="#39685c" opacity="0.079"/><circle cx="952.4" cy="562.1" r="4.1" fill="#39685c" opacity="0.033"/><circle cx="1112.5" cy="2618.9" r="2.8" fill="#39685c" opacity="0.068"/><circle cx="1603.4" cy="112.2" r="3.5" fill="#39685c" opacity="0.079"/><circle cx="1602.1" cy="400.3" r="4" fill="#39685c" opacity="0.075"/><circle cx="437.3" cy="1317.8" r="3.5" fill="#39685c" opacity="0.060"/><circle cx="587.6" cy="1198.6" r="3.8" fill="#39685c" opacity="0.038"/><circle cx="1933.3" cy="2956.8" r="3.5" fill="#39685c" opacity="0.069"/><circle cx="2088" cy="2294.6" r="2.6" fill="#39685c" opacity="0.048"/><circle cx="1544.1" cy="1242.8" r="2.7" fill="#39685c" opacity="0.038"/><circle cx="514.9" cy="1611.1" r="3.9" fill="#39685c" opacity="0.055"/><circle cx="2141.4" cy="2874.7" r="4.3" fill="#39685c" opacity="0.064"/><circle cx="1990.5" cy="820.7" r="3" fill="#39685c" opacity="0.061"/><circle cx="1410.4" cy="2250.9" r="2.7" fill="#39685c" opacity="0.062"/><circle cx="401.6" cy="2563.4" r="2.4" fill="#39685c" opacity="0.079"/><circle cx="1848.4" cy="174.6" r="1.8" fill="#39685c" opacity="0.036"/><circle cx="1200" cy="1046.6" r="374.5" fill="#96a396" opacity="0.92"/><circle cx="1200" cy="1046.6" r="444.5" fill="none" stroke="#96a396" stroke-width="7" stroke-dasharray="4 30" stroke-linecap="round"/><rect x="330" y="2450" width="1740" height="52" fill="#39685c"/><rect x="240" y="2502" width="1920" height="52" fill="#39685c" opacity="0.85"/><rect x="150" y="2554" width="2100" height="52" fill="#39685c" opacity="0.7"/><path d="M685,2450 L712,880.4 L928,880.4 L955,2450 Z" fill="#39685c"/><line x1="748" y1="910.4" x2="730" y2="2440" stroke="#e7e1d3" stroke-width="9" opacity="0.55"/><line x1="784" y1="910.4" x2="775" y2="2440" stroke="#e7e1d3" stroke-width="9" opacity="0.55"/><line x1="820" y1="910.4" x2="820" y2="2440" stroke="#e7e1d3" stroke-width="9" opacity="0.55"/><line x1="856" y1="910.4" x2="865" y2="2440" stroke="#e7e1d3" stroke-width="9" opacity="0.55"/><line x1="892" y1="910.4" x2="910" y2="2440" stroke="#e7e1d3" stroke-width="9" opacity="0.55"/><rect x="682" y="828.4" width="276" height="52" fill="#39685c"/><rect x="646" y="768.4" width="348" height="40" fill="#39685c"/><polyline points="678,844.1 679.1,845 680.7,845.5 682.5,845.5 684.4,844.8 686.3,843.5 687.8,841.6 688.8,839 689.1,836.1 688.6,833 687.2,829.9 684.8,827.1 681.7,824.9 677.8,823.4 673.5,823 668.9,823.7 664.5,825.6 660.5,828.7 657.2,832.9 655,838 654.1,843.7 654.6,849.8 656.7,855.7 660.3,861.1 665.4,865.7 671.6,869 678.7,870.7 686.2,870.7 693.7,868.7 700.7,864.8 706.8,859.2 711.4,852.1 714.3,843.8 715,834.9 713.6,825.7 709.8,817 703.9,809.3 696.1,803 686.9,798.8 676.6,796.8 665.9,797.5 655.4,800.8 645.8,806.6 637.8,814.8 631.8,824.9 628.4,836.3 627.9,848.5 630.4,860.7 635.8,872.2 644,882.1 654.6,890 667,895.2 680.5,897.2 694.4,896 707.7,891.3 719.8,883.4 729.8,872.6 737,859.6" fill="none" stroke="#39685c" stroke-width="20" stroke-linecap="round" stroke-linejoin="round"/><polyline points="962,844.1 960.9,845 959.3,845.5 957.5,845.5 955.6,844.8 953.7,843.5 952.2,841.6 951.2,839 950.9,836.1 951.4,833 952.8,829.9 955.2,827.1 958.3,824.9 962.2,823.4 966.5,823 971.1,823.7 975.5,825.6 979.5,828.7 982.8,832.9 985,838 985.9,843.7 985.4,849.8 983.3,855.7 979.7,861.1 974.6,865.7 968.4,869 961.3,870.7 953.8,870.7 946.3,868.7 939.3,864.8 933.2,859.2 928.6,852.1 925.7,843.8 925,834.9 926.4,825.7 930.2,817 936.1,809.3 943.9,803 953.1,798.8 963.4,796.8 974.1,797.5 984.6,800.8 994.2,806.6 1002.2,814.8 1008.2,824.9 1011.6,836.3 1012.1,848.5 1009.6,860.7 1004.2,872.2 996,882.1 985.4,890 973,895.2 959.5,897.2 945.6,896 932.3,891.3 920.2,883.4 910.2,872.6 903,859.6" fill="none" stroke="#39685c" stroke-width="20" stroke-linecap="round" stroke-linejoin="round"/><rect x="659" y="2406" width="322" height="44" fill="#39685c"/><path d="M1445,2450 L1472,865.8 L1688,865.8 L1715,2450 Z" fill="#39685c"/><line x1="1508" y1="895.8" x2="1490" y2="2440" stroke="#e7e1d3" stroke-width="9" opacity="0.55"/><line x1="1544" y1="895.8" x2="1535" y2="2440" stroke="#e7e1d3" stroke-width="9" opacity="0.55"/><line x1="1580" y1="895.8" x2="1580" y2="2440" stroke="#e7e1d3" stroke-width="9" opacity="0.55"/><line x1="1616" y1="895.8" x2="1625" y2="2440" stroke="#e7e1d3" stroke-width="9" opacity="0.55"/><line x1="1652" y1="895.8" x2="1670" y2="2440" stroke="#e7e1d3" stroke-width="9" opacity="0.55"/><rect x="1442" y="813.8" width="276" height="52" fill="#39685c"/><rect x="1406" y="753.8" width="348" height="40" fill="#39685c"/><polyline points="1438,829.6 1439.1,830.5 1440.7,830.9 1442.5,830.9 1444.4,830.3 1446.3,828.9 1447.8,827 1448.8,824.5 1449.1,821.6 1448.6,818.4 1447.2,815.3 1444.8,812.5 1441.7,810.3 1437.8,808.8 1433.5,808.4 1428.9,809.1 1424.5,811 1420.5,814.1 1417.2,818.3 1415,823.4 1414.1,829.2 1414.6,835.2 1416.7,841.1 1420.3,846.6 1425.4,851.1 1431.6,854.4 1438.7,856.1 1446.2,856.1 1453.7,854.1 1460.7,850.3 1466.8,844.7 1471.4,837.5 1474.3,829.3 1475,820.3 1473.6,811.2 1469.8,802.5 1463.9,794.7 1456.1,788.5 1446.9,784.2 1436.6,782.3 1425.9,782.9 1415.4,786.2 1405.8,792 1397.8,800.2 1391.8,810.3 1388.4,821.7 1387.9,833.9 1390.4,846.1 1395.8,857.6 1404,867.6 1414.6,875.4 1427,880.6 1440.5,882.7 1454.4,881.4 1467.7,876.7 1479.8,868.8 1489.8,858.1 1497,845" fill="none" stroke="#39685c" stroke-width="20" stroke-linecap="round" stroke-linejoin="round"/><polyline points="1722,829.6 1720.9,830.5 1719.3,830.9 1717.5,830.9 1715.6,830.3 1713.7,828.9 1712.2,827 1711.2,824.5 1710.9,821.6 1711.4,818.4 1712.8,815.3 1715.2,812.5 1718.3,810.3 1722.2,808.8 1726.5,808.4 1731.1,809.1 1735.5,811 1739.5,814.1 1742.8,818.3 1745,823.4 1745.9,829.2 1745.4,835.2 1743.3,841.1 1739.7,846.6 1734.6,851.1 1728.4,854.4 1721.3,856.1 1713.8,856.1 1706.3,854.1 1699.3,850.3 1693.2,844.7 1688.6,837.5 1685.7,829.3 1685,820.3 1686.4,811.2 1690.2,802.5 1696.1,794.7 1703.9,788.5 1713.1,784.2 1723.4,782.3 1734.1,782.9 1744.6,786.2 1754.2,792 1762.2,800.2 1768.2,810.3 1771.6,821.7 1772.1,833.9 1769.6,846.1 1764.2,857.6 1756,867.6 1745.4,875.4 1733,880.6 1719.5,882.7 1705.6,881.4 1692.3,876.7 1680.2,868.8 1670.2,858.1 1663,845" fill="none" stroke="#39685c" stroke-width="20" stroke-linecap="round" stroke-linejoin="round"/><rect x="1419" y="2406" width="322" height="44" fill="#39685c"/><path d="M260.9,289.1 L 333.1,289.1 L 333.1,216.9 L 276.4,216.9 L 276.4,261.6 L 305.6,261.6 L 305.6,239.2 M346.9,289.1 L 419.1,289.1 L 419.1,216.9 L 362.4,216.9 L 362.4,261.6 L 391.6,261.6 L 391.6,239.2 M432.9,289.1 L 505.1,289.1 L 505.1,216.9 L 448.4,216.9 L 448.4,261.6 L 477.6,261.6 L 477.6,239.2 M518.9,289.1 L 591.1,289.1 L 591.1,216.9 L 534.4,216.9 L 534.4,261.6 L 563.6,261.6 L 563.6,239.2 M604.9,289.1 L 677.1,289.1 L 677.1,216.9 L 620.4,216.9 L 620.4,261.6 L 649.6,261.6 L 649.6,239.2 M690.9,289.1 L 763.1,289.1 L 763.1,216.9 L 706.4,216.9 L 706.4,261.6 L 735.6,261.6 L 735.6,239.2 M776.9,289.1 L 849.1,289.1 L 849.1,216.9 L 792.4,216.9 L 792.4,261.6 L 821.6,261.6 L 821.6,239.2 M862.9,289.1 L 935.1,289.1 L 935.1,216.9 L 878.4,216.9 L 878.4,261.6 L 907.6,261.6 L 907.6,239.2 M948.9,289.1 L 1021.1,289.1 L 1021.1,216.9 L 964.4,216.9 L 964.4,261.6 L 993.6,261.6 L 993.6,239.2 M1034.9,289.1 L 1107.1,289.1 L 1107.1,216.9 L 1050.4,216.9 L 1050.4,261.6 L 1079.6,261.6 L 1079.6,239.2 M1120.9,289.1 L 1193.1,289.1 L 1193.1,216.9 L 1136.4,216.9 L 1136.4,261.6 L 1165.6,261.6 L 1165.6,239.2 M1206.9,289.1 L 1279.1,289.1 L 1279.1,216.9 L 1222.4,216.9 L 1222.4,261.6 L 1251.6,261.6 L 1251.6,239.2 M1292.9,289.1 L 1365.1,289.1 L 1365.1,216.9 L 1308.4,216.9 L 1308.4,261.6 L 1337.6,261.6 L 1337.6,239.2 M1378.9,289.1 L 1451.1,289.1 L 1451.1,216.9 L 1394.4,216.9 L 1394.4,261.6 L 1423.6,261.6 L 1423.6,239.2 M1464.9,289.1 L 1537.1,289.1 L 1537.1,216.9 L 1480.4,216.9 L 1480.4,261.6 L 1509.6,261.6 L 1509.6,239.2 M1550.9,289.1 L 1623.1,289.1 L 1623.1,216.9 L 1566.4,216.9 L 1566.4,261.6 L 1595.6,261.6 L 1595.6,239.2 M1636.9,289.1 L 1709.1,289.1 L 1709.1,216.9 L 1652.4,216.9 L 1652.4,261.6 L 1681.6,261.6 L 1681.6,239.2 M1722.9,289.1 L 1795.1,289.1 L 1795.1,216.9 L 1738.4,216.9 L 1738.4,261.6 L 1767.6,261.6 L 1767.6,239.2 M1808.9,289.1 L 1881.1,289.1 L 1881.1,216.9 L 1824.4,216.9 L 1824.4,261.6 L 1853.6,261.6 L 1853.6,239.2 M1894.9,289.1 L 1967.1,289.1 L 1967.1,216.9 L 1910.4,216.9 L 1910.4,261.6 L 1939.6,261.6 L 1939.6,239.2 M1980.9,289.1 L 2053.1,289.1 L 2053.1,216.9 L 1996.4,216.9 L 1996.4,261.6 L 2025.6,261.6 L 2025.6,239.2 M2066.9,289.1 L 2139.1,289.1 L 2139.1,216.9 L 2082.4,216.9 L 2082.4,261.6 L 2111.6,261.6 L 2111.6,239.2 " fill="none" stroke="#39685c" stroke-width="11.2"/><rect x="100" y="100" width="2200" height="2800" fill="none" stroke="#39685c" stroke-width="9"/><rect x="142" y="142" width="2116" height="2716" fill="none" stroke="#39685c" stroke-width="3" opacity="0.65"/></svg></svg>