<svg xmlns="http://www.w3.org/2000/svg" width="2400" height="1800" viewBox="0 0 2400 1800"><rect width="2400" height="1800" fill="#e9e1d2"/><rect y="1430" width="2400" height="370" fill="#c8b190"/><line x1="120" y1="1430" x2="60" y2="1800" stroke="#00000018" stroke-width="6"/><line x1="380" y1="1430" x2="320" y2="1800" stroke="#00000018" stroke-width="6"/><line x1="640" y1="1430" x2="580" y2="1800" stroke="#00000018" stroke-width="6"/><line x1="900" y1="1430" x2="840" y2="1800" stroke="#00000018" stroke-width="6"/><line x1="1160" y1="1430" x2="1100" y2="1800" stroke="#00000018" stroke-width="6"/><line x1="1420" y1="1430" x2="1360" y2="1800" stroke="#00000018" stroke-width="6"/><line x1="1680" y1="1430" x2="1620" y2="1800" stroke="#00000018" stroke-width="6"/><line x1="1940" y1="1430" x2="1880" y2="1800" stroke="#00000018" stroke-width="6"/><line x1="2200" y1="1430" x2="2140" y2="1800" stroke="#00000018" stroke-width="6"/><rect y="1418" width="2400" height="16" fill="#d7cbb6"/><rect x="700" y="980" width="1000" height="460" rx="26" fill="#a87e57"/><rect x="660" y="1290" width="1080" height="210" rx="30" fill="#f1ebdf"/><rect x="660" y="1420" width="1080" height="120" rx="24" fill="#8a4423" opacity="0.85"/><rect x="770" y="1180" width="300" height="150" rx="40" fill="#faf6ec"/><rect x="1330" y="1180" width="300" height="150" rx="40" fill="#e0a077"/><rect x="640" y="1530" width="1120" height="26" rx="12" fill="#a87e57"/><rect x="360" y="1260" width="240" height="220" rx="10" fill="#a87e57"/><rect x="380" y="1300" width="200" height="14" fill="#00000022"/><line x1="480" y1="1260" x2="480" y2="1130" stroke="#5a4632" stroke-width="12"/><path d="M410,1130 L550,1130 L520,1020 L440,1020 Z" fill="#8a4423"/><path d="M2060,1520 Q 1910,1282.5 1835,1345" fill="none" stroke="#5d7052" stroke-width="20" stroke-linecap="round"/><path d="M2060,1520 Q 1960,1282.5 1910,1295" fill="none" stroke="#5d7052" stroke-width="20" stroke-linecap="round"/><path d="M2060,1520 Q 2010,1282.5 1985,1245" fill="none" stroke="#5d7052" stroke-width="20" stroke-linecap="round"/><path d="M2060,1520 Q 2060,1282.5 2060,1195" fill="none" stroke="#5d7052" stroke-width="20" stroke-linecap="round"/><path d="M2060,1520 Q 2110,1282.5 2135,1245" fill="none" stroke="#5d7052" stroke-width="20" stroke-linecap="round"/><path d="M2060,1520 Q 2160,1282.5 2210,1295" fill="none" stroke="#5d7052" stroke-width="20" stroke-linecap="round"/><path d="M2060,1520 Q 2210,1282.5 2285,1345" fill="none" stroke="#5d7052" stroke-width="20" stroke-linecap="round"/><path d="M1972.5,1520 L2147.5,1520 L2125,1657.5 L1995,1657.5 Z" fill="#a9714d"/><defs><filter id="a93b-sh" x="-30%" y="-30%" width="160%" height="160%"><feGaussianBlur stdDeviation="16"/></filter></defs><rect x="928" y="246" width="572" height="702" fill="#000" opacity="0.28" filter="url(#a93b-sh)"/><rect x="914" y="224" width="572" height="702" fill="#4a3d2f"/><rect x="930.9" y="240.9" width="538.2" height="668.2" fill="none" stroke="#00000055" stroke-width="3"/><rect x="940" y="250" width="520" height="650" fill="#f6f2ea"/><svg x="979" y="289" width="442" height="572" viewBox="0 0 2400 3000" preserveAspectRatio="xMidYMid slice"><rect width="2400" height="3000" fill="#c8703f"/><radialGradient id="a93-vig" cx="50%" cy="42%" r="80%"><stop offset="55%" stop-color="#000" stop-opacity="0"/><stop offset="100%" stop-color="#000" stop-opacity="0.15"/></radialGradient><rect width="2400" height="3000" fill="url(#a93-vig)"/><circle cx="1782.9" cy="2416.9" r="1.7" fill="#26160e" opacity="0.076"/><circle cx="744.4" cy="2091.1" r="4.4" fill="#26160e" opacity="0.041"/><circle cx="1048" cy="40.8" r="2.2" fill="#26160e" opacity="0.058"/><circle cx="891.8" cy="2523.1" r="2.7" fill="#26160e" opacity="0.071"/><circle cx="850.4" cy="2241.5" r="4.4" fill="#26160e" opacity="0.074"/><circle cx="1419.5" cy="452.6" r="1.7" fill="#26160e" opacity="0.038"/><circle cx="1670.5" cy="2598.1" r="2.3" fill="#26160e" opacity="0.038"/><circle cx="1140.3" cy="1221.7" r="3.7" fill="#26160e" opacity="0.058"/><circle cx="1021.1" cy="365.9" r="3.5" fill="#26160e" opacity="0.058"/><circle cx="153.6" cy="1638.7" r="1.6" fill="#26160e" opacity="0.052"/><circle cx="2056.3" cy="1062.1" r="4.5" fill="#26160e" opacity="0.044"/><circle cx="524.1" cy="1980.9" r="2.2" fill="#26160e" opacity="0.031"/><circle cx="1457.5" cy="59.7" r="4" fill="#26160e" opacity="0.040"/><circle cx="1019.1" cy="364.1" r="2.2" fill="#26160e" opacity="0.077"/><circle cx="2221.6" cy="203.2" r="4.1" fill="#26160e" opacity="0.075"/><circle cx="1741.4" cy="2531.1" r="4.4" fill="#26160e" opacity="0.056"/><circle cx="718.8" cy="301" r="2" fill="#26160e" opacity="0.069"/><circle cx="750.6" cy="2086" r="4.4" fill="#26160e" opacity="0.067"/><circle cx="2296.3" cy="1775.1" r="2.4" fill="#26160e" opacity="0.068"/><circle cx="2038" cy="2077" r="4" fill="#26160e" opacity="0.054"/><circle cx="61.8" cy="284.3" r="3" fill="#26160e" opacity="0.047"/><circle cx="1052.1" cy="2391" r="1.8" fill="#26160e" opacity="0.075"/><circle cx="709.3" cy="190.2" r="2.6" fill="#26160e" opacity="0.048"/><circle cx="477.5" cy="412.4" r="4.2" fill="#26160e" opacity="0.079"/><circle cx="184.5" cy="339.3" r="2.4" fill="#26160e" opacity="0.060"/><circle cx="115.4" cy="2166.5" r="3.1" fill="#26160e" opacity="0.063"/><circle cx="1964.2" cy="1960.4" r="2.6" fill="#26160e" opacity="0.067"/><circle cx="330" cy="2886.4" r="1.5" fill="#26160e" opacity="0.053"/><circle cx="1726.1" cy="1011" r="2.5" fill="#26160e" opacity="0.051"/><circle cx="751.7" cy="177.5" r="2.6" fill="#26160e" opacity="0.045"/><circle cx="935" cy="275" r="2.6" fill="#26160e" opacity="0.034"/><circle cx="1518.1" cy="534.4" r="3.6" fill="#26160e" opacity="0.076"/><circle cx="2016.7" cy="1117.2" r="3.8" fill="#26160e" opacity="0.066"/><circle cx="1275.3" cy="1054.3" r="3.7" fill="#26160e" opacity="0.078"/><circle cx="159.9" cy="636" r="2.8" fill="#26160e" opacity="0.040"/><circle cx="1500.8" cy="442.5" r="4.2" fill="#26160e" opacity="0.050"/><circle cx="300.2" cy="1134.8" r="3" fill="#26160e" opacity="0.059"/><circle cx="866.1" cy="2733.2" r="3.5" fill="#26160e" opacity="0.069"/><circle cx="1462.7" cy="277.7" r="2.4" fill="#26160e" opacity="0.031"/><circle cx="1001.4" cy="1615.8" r="3.2" fill="#26160e" opacity="0.034"/><circle cx="714.8" cy="382.9" r="1.8" fill="#26160e" opacity="0.068"/><circle cx="618.6" cy="1776.3" r="4" fill="#26160e" opacity="0.040"/><circle cx="720.4" cy="1282.2" r="3.9" fill="#26160e" opacity="0.079"/><circle cx="52.6" cy="2280.3" r="2.6" fill="#26160e" opacity="0.069"/><circle cx="1479.6" cy="792.4" r="1.7" fill="#26160e" opacity="0.047"/><circle cx="1321.3" cy="867.1" r="2.1" fill="#26160e" opacity="0.064"/><circle cx="1715.2" cy="709.4" r="3.2" fill="#26160e" opacity="0.071"/><circle cx="1831.8" cy="1093.6" r="1.9" fill="#26160e" opacity="0.073"/><circle cx="1322" cy="122.3" r="4.5" fill="#26160e" opacity="0.066"/><circle cx="2099.5" cy="1383.1" r="4.2" fill="#26160e" opacity="0.036"/><circle cx="1696.5" cy="1207.3" r="2.2" fill="#26160e" opacity="0.060"/><circle cx="675.4" cy="89.5" r="3.7" fill="#26160e" opacity="0.030"/><circle cx="1557.9" cy="49.1" r="1.9" fill="#26160e" opacity="0.080"/><circle cx="1753.5" cy="2505.6" r="1.6" fill="#26160e" opacity="0.073"/><circle cx="789.9" cy="1363.3" r="2.7" fill="#26160e" opacity="0.068"/><circle cx="1303.5" cy="558.3" r="2.4" fill="#26160e" opacity="0.067"/><circle cx="248.4" cy="406.2" r="4" fill="#26160e" opacity="0.049"/><circle cx="1739.3" cy="2073.9" r="4.2" fill="#26160e" opacity="0.050"/><circle cx="1770.4" cy="144.5" r="3.3" fill="#26160e" opacity="0.049"/><circle cx="1610.5" cy="1940.4" r="2.7" fill="#26160e" opacity="0.045"/><circle cx="409.1" cy="1794.3" r="2.5" fill="#26160e" opacity="0.049"/><circle cx="497.6" cy="67.4" r="3.6" fill="#26160e" opacity="0.076"/><circle cx="1631" cy="887.8" r="2.5" fill="#26160e" opacity="0.068"/><circle cx="626.3" cy="1622.2" r="3.9" fill="#26160e" opacity="0.059"/><circle cx="2059.9" cy="2337.4" r="3.3" fill="#26160e" opacity="0.071"/><circle cx="2095.9" cy="2534.5" r="4.4" fill="#26160e" opacity="0.062"/><circle cx="900.7" cy="1211.6" r="3.3" fill="#26160e" opacity="0.057"/><circle cx="473.5" cy="990" r="3.6" fill="#26160e" opacity="0.056"/><circle cx="1920.6" cy="493.1" r="2.6" fill="#26160e" opacity="0.035"/><circle cx="1153.7" cy="742.8" r="4.2" fill="#26160e" opacity="0.072"/><circle cx="1925.5" cy="1916.5" r="3.4" fill="#26160e" opacity="0.071"/><circle cx="1818.8" cy="1630.8" r="2.4" fill="#26160e" opacity="0.040"/><circle cx="1663.9" cy="1231.3" r="2.2" fill="#26160e" opacity="0.046"/><circle cx="1177.2" cy="2048" r="1.5" fill="#26160e" opacity="0.037"/><circle cx="1918.5" cy="385.9" r="2.3" fill="#26160e" opacity="0.042"/><circle cx="1722.3" cy="151.8" r="1.7" fill="#26160e" opacity="0.034"/><circle cx="1370.2" cy="536.6" r="3.2" fill="#26160e" opacity="0.072"/><circle cx="1168.4" cy="291.8" r="3.7" fill="#26160e" opacity="0.038"/><circle cx="2015.9" cy="2403.4" r="3" fill="#26160e" opacity="0.065"/><circle cx="612.2" cy="426.9" r="3" fill="#26160e" opacity="0.046"/><path d="M1195.3,1579.9 A130,130 0 1 1 1260.9,1564.8" fill="none" stroke="#26160e" stroke-width="45.7" stroke-linecap="round"/><line x1="1175.1" y1="1577.6" x2="1154.2" y2="1684.3" stroke="#26160e" stroke-width="45.7" stroke-linecap="round"/><path d="M1298.3,1232.4 A238.8,238.8 0 1 1 1176.3,1212.4" fill="none" stroke="#26160e" stroke-width="45.7" stroke-linecap="round"/><line x1="1139.5" y1="1219" x2="1111.9" y2="1113.9" stroke="#26160e" stroke-width="45.7" stroke-linecap="round"/><path d="M1067.6,1771.3 A347.5,347.5 0 1 1 1246,1794.4" fill="none" stroke="#26160e" stroke-width="45.7" stroke-linecap="round"/><line x1="1019" y1="1746.6" x2="962.4" y2="1839.5" stroke="#26160e" stroke-width="45.7" stroke-linecap="round"/><path d="M1373.1,1027.9 A456.3,456.3 0 1 1 1138.9,997.9" fill="none" stroke="#26160e" stroke-width="45.7" stroke-linecap="round"/><line x1="1068.9" y1="1013" x2="1037.6" y2="908.8" stroke="#26160e" stroke-width="45.7" stroke-linecap="round"/><path d="M1026.8,1987.8 A565,565 0 1 1 1318.9,2002.3" fill="none" stroke="#26160e" stroke-width="45.7" stroke-linecap="round"/><line x1="944.8" y1="1954.1" x2="895.7" y2="2051.1" stroke="#26160e" stroke-width="45.7" stroke-linecap="round"/><path d="M1386.5,802.6 A673.8,673.8 0 1 1 1037.8,796.1" fill="none" stroke="#26160e" stroke-width="45.7" stroke-linecap="round"/><line x1="937.5" y1="829.5" x2="895.1" y2="729.3" stroke="#26160e" stroke-width="45.7" stroke-linecap="round"/><path d="M1172.8,2232 A782.5,782.5 0 1 1 1567.4,2140.9" fill="none" stroke="#26160e" stroke-width="45.7" stroke-linecap="round"/><line x1="1050.8" y1="2218.1" x2="1030" y2="2324.9" stroke="#26160e" stroke-width="45.7" stroke-linecap="round"/><path d="M1308.8,565.4 A891.3,891.3 0 1 1 851.9,629.5" fill="none" stroke="#26160e" stroke-width="45.7" stroke-linecap="round"/><circle cx="1200" cy="1450" r="56" fill="#8a4423"/><path d="M324.7,287.3 L 395.3,287.3 L 395.3,216.7 L 339.8,216.7 L 339.8,260.4 L 368.4,260.4 L 368.4,238.6 M408.7,287.3 L 479.3,287.3 L 479.3,216.7 L 423.8,216.7 L 423.8,260.4 L 452.4,260.4 L 452.4,238.6 M492.7,287.3 L 563.3,287.3 L 563.3,216.7 L 507.8,216.7 L 507.8,260.4 L 536.4,260.4 L 536.4,238.6 M576.7,287.3 L 647.3,287.3 L 647.3,216.7 L 591.8,216.7 L 591.8,260.4 L 620.4,260.4 L 620.4,238.6 M660.7,287.3 L 731.3,287.3 L 731.3,216.7 L 675.8,216.7 L 675.8,260.4 L 704.4,260.4 L 704.4,238.6 M744.7,287.3 L 815.3,287.3 L 815.3,216.7 L 759.8,216.7 L 759.8,260.4 L 788.4,260.4 L 788.4,238.6 M828.7,287.3 L 899.3,287.3 L 899.3,216.7 L 843.8,216.7 L 843.8,260.4 L 872.4,260.4 L 872.4,238.6 M912.7,287.3 L 983.3,287.3 L 983.3,216.7 L 927.8,216.7 L 927.8,260.4 L 956.4,260.4 L 956.4,238.6 M996.7,287.3 L 1067.3,287.3 L 1067.3,216.7 L 1011.8,216.7 L 1011.8,260.4 L 1040.4,260.4 L 1040.4,238.6 M1080.7,287.3 L 1151.3,287.3 L 1151.3,216.7 L 1095.8,216.7 L 1095.8,260.4 L 1124.4,260.4 L 1124.4,238.6 M1164.7,287.3 L 1235.3,287.3 L 1235.3,216.7 L 1179.8,216.7 L 1179.8,260.4 L 1208.4,260.4 L 1208.4,238.6 M1248.7,287.3 L 1319.3,287.3 L 1319.3,216.7 L 1263.8,216.7 L 1263.8,260.4 L 1292.4,260.4 L 1292.4,238.6 M1332.7,287.3 L 1403.3,287.3 L 1403.3,216.7 L 1347.8,216.7 L 1347.8,260.4 L 1376.4,260.4 L 1376.4,238.6 M1416.7,287.3 L 1487.3,287.3 L 1487.3,216.7 L 1431.8,216.7 L 1431.8,260.4 L 1460.4,260.4 L 1460.4,238.6 M1500.7,287.3 L 1571.3,287.3 L 1571.3,216.7 L 1515.8,216.7 L 1515.8,260.4 L 1544.4,260.4 L 1544.4,238.6 M1584.7,287.3 L 1655.3,287.3 L 1655.3,216.7 L 1599.8,216.7 L 1599.8,260.4 L 1628.4,260.4 L 1628.4,238.6 M1668.7,287.3 L 1739.3,287.3 L 1739.3,216.7 L 1683.8,216.7 L 1683.8,260.4 L 1712.4,260.4 L 1712.4,238.6 M1752.7,287.3 L 1823.3,287.3 L 1823.3,216.7 L 1767.8,216.7 L 1767.8,260.4 L 1796.4,260.4 L 1796.4,238.6 M1836.7,287.3 L 1907.3,287.3 L 1907.3,216.7 L 1851.8,216.7 L 1851.8,260.4 L 1880.4,260.4 L 1880.4,238.6 M1920.7,287.3 L 1991.3,287.3 L 1991.3,216.7 L 1935.8,216.7 L 1935.8,260.4 L 1964.4,260.4 L 1964.4,238.6 M2004.7,287.3 L 2075.3,287.3 L 2075.3,216.7 L 2019.8,216.7 L 2019.8,260.4 L 2048.4,260.4 L 2048.4,238.6 " fill="none" stroke="#26160e" stroke-width="10.9"/><path d="M324.7,2777.3 L 395.3,2777.3 L 395.3,2706.7 L 339.8,2706.7 L 339.8,2750.4 L 368.4,2750.4 L 368.4,2728.6 M408.7,2777.3 L 479.3,2777.3 L 479.3,2706.7 L 423.8,2706.7 L 423.8,2750.4 L 452.4,2750.4 L 452.4,2728.6 M492.7,2777.3 L 563.3,2777.3 L 563.3,2706.7 L 507.8,2706.7 L 507.8,2750.4 L 536.4,2750.4 L 536.4,2728.6 M576.7,2777.3 L 647.3,2777.3 L 647.3,2706.7 L 591.8,2706.7 L 591.8,2750.4 L 620.4,2750.4 L 620.4,2728.6 M660.7,2777.3 L 731.3,2777.3 L 731.3,2706.7 L 675.8,2706.7 L 675.8,2750.4 L 704.4,2750.4 L 704.4,2728.6 M744.7,2777.3 L 815.3,2777.3 L 815.3,2706.7 L 759.8,2706.7 L 759.8,2750.4 L 788.4,2750.4 L 788.4,2728.6 M828.7,2777.3 L 899.3,2777.3 L 899.3,2706.7 L 843.8,2706.7 L 843.8,2750.4 L 872.4,2750.4 L 872.4,2728.6 M912.7,2777.3 L 983.3,2777.3 L 983.3,2706.7 L 927.8,2706.7 L 927.8,2750.4 L 956.4,2750.4 L 956.4,2728.6 M996.7,2777.3 L 1067.3,2777.3 L 1067.3,2706.7 L 1011.8,2706.7 L 1011.8,2750.4 L 1040.4,2750.4 L 1040.4,2728.6 M1080.7,2777.3 L 1151.3,2777.3 L 1151.3,2706.7 L 1095.8,2706.7 L 1095.8,2750.4 L 1124.4,2750.4 L 1124.4,2728.6 M1164.7,2777.3 L 1235.3,2777.3 L 1235.3,2706.7 L 1179.8,2706.7 L 1179.8,2750.4 L 1208.4,2750.4 L 1208.4,2728.6 M1248.7,2777.3 L 1319.3,2777.3 L 1319.3,2706.7 L 1263.8,2706.7 L 1263.8,2750.4 L 1292.4,2750.4 L 1292.4,2728.6 M1332.7,2777.3 L 1403.3,2777.3 L 1403.3,2706.7 L 1347.8,2706.7 L 1347.8,2750.4 L 1376.4,2750.4 L 1376.4,2728.6 M1416.7,2777.3 L 1487.3,2777.3 L 1487.3,2706.7 L 1431.8,2706.7 L 1431.8,2750.4 L 1460.4,2750.4 L 1460.4,2728.6 M1500.7,2777.3 L 1571.3,2777.3 L 1571.3,2706.7 L 1515.8,2706.7 L 1515.8,2750.4 L 1544.4,2750.4 L 1544.4,2728.6 M1584.7,2777.3 L 1655.3,2777.3 L 1655.3,2706.7 L 1599.8,2706.7 L 1599.8,2750.4 L 1628.4,2750.4 L 1628.4,2728.6 M1668.7,2777.3 L 1739.3,2777.3 L 1739.3,2706.7 L 1683.8,2706.7 L 1683.8,2750.4 L 1712.4,2750.4 L 1712.4,2728.6 M1752.7,2777.3 L 1823.3,2777.3 L 1823.3,2706.7 L 1767.8,2706.7 L 1767.8,2750.4 L 1796.4,2750.4 L 1796.4,2728.6 M1836.7,2777.3 L 1907.3,2777.3 L 1907.3,2706.7 L 1851.8,2706.7 L 1851.8,2750.4 L 1880.4,2750.4 L 1880.4,2728.6 M1920.7,2777.3 L 1991.3,2777.3 L 1991.3,2706.7 L 1935.8,2706.7 L 1935.8,2750.4 L 1964.4,2750.4 L 1964.4,2728.6 M2004.7,2777.3 L 2075.3,2777.3 L 2075.3,2706.7 L 2019.8,2706.7 L 2019.8,2750.4 L 2048.4,2750.4 L 2048.4,2728.6 " fill="none" stroke="#26160e" stroke-width="10.9"/><rect x="100" y="100" width="2200" height="2800" fill="none" stroke="#26160e" stroke-width="9"/><rect x="142" y="142" width="2116" height="2716" fill="none" stroke="#26160e" stroke-width="3" opacity="0.65"/></svg></svg>