<svg xmlns="http://www.w3.org/2000/svg" width="2400" height="1800" viewBox="0 0 2400 1800"><rect width="2400" height="1800" fill="#dfe4dc"/><rect y="1400" width="2400" height="400" fill="#c2a67e"/><line x1="60" y1="1400" x2="10" y2="1800" stroke="#00000015" stroke-width="5"/><line x1="260" y1="1400" x2="210" y2="1800" stroke="#00000015" stroke-width="5"/><line x1="460" y1="1400" x2="410" y2="1800" stroke="#00000015" stroke-width="5"/><line x1="660" y1="1400" x2="610" y2="1800" stroke="#00000015" stroke-width="5"/><line x1="860" y1="1400" x2="810" y2="1800" stroke="#00000015" stroke-width="5"/><line x1="1060" y1="1400" x2="1010" y2="1800" stroke="#00000015" stroke-width="5"/><line x1="1260" y1="1400" x2="1210" y2="1800" stroke="#00000015" stroke-width="5"/><line x1="1460" y1="1400" x2="1410" y2="1800" stroke="#00000015" stroke-width="5"/><line x1="1660" y1="1400" x2="1610" y2="1800" stroke="#00000015" stroke-width="5"/><line x1="1860" y1="1400" x2="1810" y2="1800" stroke="#00000015" stroke-width="5"/><line x1="2060" y1="1400" x2="2010" y2="1800" stroke="#00000015" stroke-width="5"/><line x1="2260" y1="1400" x2="2210" y2="1800" stroke="#00000015" stroke-width="5"/><rect x="180" y="260" width="900" height="620" fill="#8a6a48"/><rect x="215" y="295" width="830" height="550" fill="#41524a"/><line x1="280" y1="420" x2="760" y2="420" stroke="#ffffff66" stroke-width="9" stroke-linecap="round"/><line x1="280" y1="520" x2="620" y2="520" stroke="#ffffff44" stroke-width="9" stroke-linecap="round"/><circle cx="880" cy="560" r="90" fill="none" stroke="#ffffff55" stroke-width="8"/><rect x="215" y="845" width="830" height="22" fill="#6f5436"/><rect x="330" y="1240" width="640" height="60" rx="10" fill="#9c7449"/><rect x="370" y="1300" width="60" height="240" fill="#8a6540"/><rect x="870" y="1300" width="60" height="240" fill="#8a6540"/><rect x="430" y="1160" width="150" height="80" rx="8" fill="#a2542f"/><rect x="450" y="1120" width="150" height="40" rx="8" fill="#b6ab95"/><circle cx="800" cy="1130" r="86" fill="#7fa3b8"/><path d="M760,1060 Q820,1100 780,1190 M740,1090 Q800,1120 850,1100" stroke="#5d8069" stroke-width="16" fill="none" stroke-linecap="round"/><circle cx="800" cy="1130" r="86" fill="none" stroke="#6b5233" stroke-width="7"/><line x1="800" y1="1216" x2="800" y2="1250" stroke="#6b5233" stroke-width="10"/><rect x="750" y="1244" width="100" height="14" rx="7" fill="#6b5233"/><rect x="1980" y="700" width="300" height="800" fill="#9c7449"/><rect x="2000" y="930" width="260" height="16" fill="#7c5a37"/><rect x="2020" y="790" width="36" height="140" fill="#b3502f"/><rect x="2066" y="802" width="36" height="128" fill="#39685c"/><rect x="2112" y="790" width="36" height="140" fill="#c9a227"/><rect x="2158" y="802" width="36" height="128" fill="#2c4661"/><rect x="2204" y="790" width="36" height="140" fill="#8a4423"/><rect x="2000" y="1180" width="260" height="16" fill="#7c5a37"/><rect x="2020" y="1040" width="36" height="140" fill="#39685c"/><rect x="2066" y="1052" width="36" height="128" fill="#c9a227"/><rect x="2112" y="1040" width="36" height="140" fill="#2c4661"/><rect x="2158" y="1052" width="36" height="128" fill="#8a4423"/><rect x="2204" y="1040" width="36" height="140" fill="#b3502f"/><rect x="2000" y="1430" width="260" height="16" fill="#7c5a37"/><rect x="2020" y="1290" width="36" height="140" fill="#c9a227"/><rect x="2066" y="1302" width="36" height="128" fill="#2c4661"/><rect x="2112" y="1290" width="36" height="140" fill="#8a4423"/><rect x="2158" y="1302" width="36" height="128" fill="#b3502f"/><rect x="2204" y="1290" width="36" height="140" fill="#39685c"/><defs><filter id="a75c-sh" x="-30%" y="-30%" width="160%" height="160%"><feGaussianBlur stdDeviation="16"/></filter></defs><rect x="1340.5" y="298.5" width="517" height="635" fill="#000" opacity="0.28" filter="url(#a75c-sh)"/><rect x="1326.5" y="276.5" width="517" height="635" fill="#3d342a"/><rect x="1341.8" y="291.8" width="486.4" height="604.5" fill="none" stroke="#00000055" stroke-width="3"/><rect x="1350" y="300" width="470" height="588" fill="#f6f2ea"/><svg x="1385.3" y="335.3" width="399.5" height="517.5" viewBox="0 0 2400 3000" preserveAspectRatio="xMidYMid slice"><filter id="a75-warp" x="-4%" y="-4%" width="108%" height="108%"><feTurbulence type="fractalNoise" baseFrequency="0.0105" numOctaves="2" seed="5977" result="w"/><feDisplacementMap in="SourceGraphic" in2="w" scale="12" xChannelSelector="R" yChannelSelector="G"/></filter><filter id="a75-grain" x="0%" y="0%" width="100%" height="100%"><feTurbulence type="fractalNoise" baseFrequency="0.6" numOctaves="2" seed="5984"/><feColorMatrix type="matrix" values="0.33 0.33 0.33 0 0.62  0.33 0.33 0.33 0 0.62  0.33 0.33 0.33 0 0.62  0 0 0 0 1"/></filter><filter id="a75-mottle" x="0%" y="0%" width="100%" height="100%"><feTurbulence type="fractalNoise" baseFrequency="0.0045" numOctaves="3" seed="5990"/><feColorMatrix type="matrix" values="0.2 0.2 0.2 0 0.78  0.2 0.2 0.2 0 0.78  0.2 0.2 0.2 0 0.78  0 0 0 0 1"/></filter><filter id="a75-fade" x="0%" y="0%" width="100%" height="100%"><feTurbulence type="fractalNoise" baseFrequency="0.006" numOctaves="2" seed="6006"/><feColorMatrix type="matrix" values="0.3 0.3 0.3 0 -0.08  0.3 0.3 0.3 0 -0.08  0.3 0.3 0.3 0 -0.1  0 0 0 0 1"/></filter><filter id="a75-blur9"><feGaussianBlur stdDeviation="9"/></filter><radialGradient id="a75-vig" cx="50%" cy="44%" r="78%"><stop offset="52%" stop-color="#241a10" stop-opacity="0"/><stop offset="100%" stop-color="#241a10" stop-opacity="0.17"/></radialGradient><radialGradient id="a75-warm" cx="47%" cy="30%" r="85%"><stop offset="0%" stop-color="#e8c890" stop-opacity="0.14"/><stop offset="70%" stop-color="#e8c890" stop-opacity="0"/></radialGradient><rect width="2400" height="3000" fill="#dcd3c2"/><rect width="2400" height="3000" fill="url(#a75-warm)"/><rect y="687.5" width="2400" height="343.5" fill="#8a6a40" opacity="0.038" transform="rotate(-1 1200 687.5)"/><rect y="823.1" width="2400" height="311.9" fill="#ffffff" opacity="0.038" transform="rotate(-1.4 1200 823.1)"/><rect y="1670.4" width="2400" height="124.1" fill="#8a6a40" opacity="0.040" transform="rotate(-0.3 1200 1670.4)"/><rect y="2369" width="2400" height="128.9" fill="#ffffff" opacity="0.024" transform="rotate(1 1200 2369)"/><rect y="1160.5" width="2400" height="355.7" fill="#8a6a40" opacity="0.027" transform="rotate(1.1 1200 1160.5)"/><rect y="2217.1" width="2400" height="280" fill="#ffffff" opacity="0.040" transform="rotate(-0.3 1200 2217.1)"/><rect y="2560.2" width="2400" height="288.8" fill="#8a6a40" opacity="0.040" transform="rotate(0.7 1200 2560.2)"/><g filter="url(#a75-warp)"><polyline points="1128.8,2107.6 1090,2102.3 1051.6,2094.9 1013.6,2085.3 976.3,2073.5 939.7,2059.6 904,2043.6 869.3,2025.6 835.6,2005.7 803.2,1983.8 772,1960.1 742.3,1934.6 714.1,1907.5 687.5,1878.8 662.5,1848.7 639.4,1817.1 618.1,1784.3 598.7,1750.3 581.3,1715.2 565.9,1679.2 552.7,1642.4 541.5,1604.9 532.6,1566.8 525.8,1528.2 521.3,1489.4 519,1450.3 519,1411.2 521.2,1372.1 525.6,1333.2 532.3,1294.7 541.2,1256.5 552.2,1219 565.4,1182.2 580.7,1146.1 598,1111 617.3,1077 638.5,1044.1 661.6,1012.5 686.5,982.3 713,953.5 741.2,926.4 770.9,900.9 802,877.1 834.4,855.1 868,835.1 902.7,817 938.4,801 974.9,787 1012.2,775.1 " fill="none" stroke="#41586a" stroke-width="14" stroke-linecap="round"/><polyline points="1271.2,2107.6 1310,2102.3 1348.4,2094.9 1386.4,2085.3 1423.7,2073.5 1460.3,2059.6 1496,2043.6 1530.7,2025.6 1564.4,2005.7 1596.8,1983.8 1628,1960.1 1657.7,1934.6 1685.9,1907.5 1712.5,1878.8 1737.5,1848.7 1760.6,1817.1 1781.9,1784.3 1801.3,1750.3 1818.7,1715.2 1834.1,1679.2 1847.3,1642.4 1858.5,1604.9 1867.4,1566.8 1874.2,1528.2 1878.7,1489.4 1881,1450.3 1881,1411.2 1878.8,1372.1 1874.4,1333.2 1867.7,1294.7 1858.8,1256.5 1847.8,1219 1834.6,1182.2 1819.3,1146.1 1802,1111 1782.7,1077 1761.5,1044.1 1738.4,1012.5 1713.5,982.3 1687,953.5 1658.8,926.4 1629.1,900.9 1598,877.1 1565.6,855.1 1532,835.1 1497.3,817 1461.6,801 1425.1,787 1387.8,775.1 " fill="none" stroke="#41586a" stroke-width="14" stroke-linecap="round"/><path d="M0 0 Q 36 -66.5 0 -175 Q -36 -66.5 0 0 Z" fill="#41586a" opacity="1" transform="translate(1318.3 2100.9) rotate(-70)"/><path d="M0 0 Q 34.9 -64.5 0 -169.8 Q -34.9 -64.5 0 0 Z" fill="#41586a" opacity="1" transform="translate(1441 2067.2) rotate(-140.7)"/><circle cx="1441" cy="2067.2" r="15" fill="#a2542f"/><path d="M0 0 Q 33.8 -62.5 0 -164.5 Q -33.8 -62.5 0 0 Z" fill="#41586a" opacity="1" transform="translate(1555.2 2011.3) rotate(-91.4)"/><path d="M0 0 Q 32.8 -60.5 0 -159.3 Q -32.8 -60.5 0 0 Z" fill="#41586a" opacity="1" transform="translate(1657.1 1935.2) rotate(-162.1)"/><path d="M0 0 Q 31.7 -58.5 0 -154 Q -31.7 -58.5 0 0 Z" fill="#41586a" opacity="1" transform="translate(1743.1 1841.4) rotate(-112.9)"/><circle cx="1743.1" cy="1841.4" r="15" fill="#a2542f"/><path d="M0 0 Q 30.6 -56.5 0 -148.8 Q -30.6 -56.5 0 0 Z" fill="#41586a" opacity="1" transform="translate(1810.1 1733.2) rotate(-183.6)"/><path d="M0 0 Q 29.5 -54.5 0 -143.5 Q -29.5 -54.5 0 0 Z" fill="#41586a" opacity="1" transform="translate(1855.8 1614.5) rotate(-134.3)"/><path d="M0 0 Q 28.4 -52.5 0 -138.3 Q -28.4 -52.5 0 0 Z" fill="#41586a" opacity="1" transform="translate(1878.7 1489.4) rotate(-205)"/><circle cx="1878.7" cy="1489.4" r="15" fill="#a2542f"/><path d="M0 0 Q 27.4 -50.5 0 -133 Q -27.4 -50.5 0 0 Z" fill="#41586a" opacity="1" transform="translate(1877.9 1362.2) rotate(-155.7)"/><path d="M0 0 Q 26.3 -48.5 0 -127.8 Q -26.3 -48.5 0 0 Z" fill="#41586a" opacity="1" transform="translate(1853.5 1237.3) rotate(-226.4)"/><path d="M0 0 Q 25.2 -46.5 0 -122.5 Q -25.2 -46.5 0 0 Z" fill="#41586a" opacity="1" transform="translate(1806.3 1119.2) rotate(-177.1)"/><circle cx="1806.3" cy="1119.2" r="15" fill="#a2542f"/><path d="M0 0 Q 24.1 -44.6 0 -117.3 Q -24.1 -44.6 0 0 Z" fill="#41586a" opacity="1" transform="translate(1737.9 1011.9) rotate(-247.9)"/><path d="M0 0 Q 23 -42.6 0 -112 Q -23 -42.6 0 0 Z" fill="#41586a" opacity="1" transform="translate(1650.8 919.2) rotate(-198.6)"/><path d="M0 0 Q 22 -40.6 0 -106.8 Q -22 -40.6 0 0 Z" fill="#41586a" opacity="1" transform="translate(1548 844.3) rotate(-269.3)"/><circle cx="1548" cy="844.3" r="15" fill="#a2542f"/><path d="M0 0 Q 20.9 -38.6 0 -101.5 Q -20.9 -38.6 0 0 Z" fill="#41586a" opacity="1" transform="translate(1433 789.8) rotate(-220)"/><path d="M0 0 Q 36 -66.5 0 -175 Q -36 -66.5 0 0 Z" fill="#41586a" opacity="1" transform="translate(1081.7 2100.9) rotate(70)"/><path d="M0 0 Q 34.9 -64.5 0 -169.8 Q -34.9 -64.5 0 0 Z" fill="#41586a" opacity="1" transform="translate(959 2067.2) rotate(140.7)"/><circle cx="959" cy="2067.2" r="15" fill="#a2542f"/><path d="M0 0 Q 33.8 -62.5 0 -164.5 Q -33.8 -62.5 0 0 Z" fill="#41586a" opacity="1" transform="translate(844.8 2011.3) rotate(91.4)"/><path d="M0 0 Q 32.8 -60.5 0 -159.3 Q -32.8 -60.5 0 0 Z" fill="#41586a" opacity="1" transform="translate(742.9 1935.2) rotate(162.1)"/><path d="M0 0 Q 31.7 -58.5 0 -154 Q -31.7 -58.5 0 0 Z" fill="#41586a" opacity="1" transform="translate(656.9 1841.4) rotate(112.9)"/><circle cx="656.9" cy="1841.4" r="15" fill="#a2542f"/><path d="M0 0 Q 30.6 -56.5 0 -148.8 Q -30.6 -56.5 0 0 Z" fill="#41586a" opacity="1" transform="translate(589.9 1733.2) rotate(183.6)"/><path d="M0 0 Q 29.5 -54.5 0 -143.5 Q -29.5 -54.5 0 0 Z" fill="#41586a" opacity="1" transform="translate(544.2 1614.5) rotate(134.3)"/><path d="M0 0 Q 28.4 -52.5 0 -138.3 Q -28.4 -52.5 0 0 Z" fill="#41586a" opacity="1" transform="translate(521.3 1489.4) rotate(205)"/><circle cx="521.3" cy="1489.4" r="15" fill="#a2542f"/><path d="M0 0 Q 27.4 -50.5 0 -133 Q -27.4 -50.5 0 0 Z" fill="#41586a" opacity="1" transform="translate(522.1 1362.2) rotate(155.7)"/><path d="M0 0 Q 26.3 -48.5 0 -127.8 Q -26.3 -48.5 0 0 Z" fill="#41586a" opacity="1" transform="translate(546.5 1237.3) rotate(226.4)"/><path d="M0 0 Q 25.2 -46.5 0 -122.5 Q -25.2 -46.5 0 0 Z" fill="#41586a" opacity="1" transform="translate(593.7 1119.2) rotate(177.1)"/><circle cx="593.7" cy="1119.2" r="15" fill="#a2542f"/><path d="M0 0 Q 24.1 -44.6 0 -117.3 Q -24.1 -44.6 0 0 Z" fill="#41586a" opacity="1" transform="translate(662.1 1011.9) rotate(247.9)"/><path d="M0 0 Q 23 -42.6 0 -112 Q -23 -42.6 0 0 Z" fill="#41586a" opacity="1" transform="translate(749.2 919.2) rotate(198.6)"/><path d="M0 0 Q 22 -40.6 0 -106.8 Q -22 -40.6 0 0 Z" fill="#41586a" opacity="1" transform="translate(852 844.3) rotate(269.3)"/><circle cx="852" cy="844.3" r="15" fill="#a2542f"/><path d="M0 0 Q 20.9 -38.6 0 -101.5 Q -20.9 -38.6 0 0 Z" fill="#41586a" opacity="1" transform="translate(967 789.8) rotate(220)"/><path d="M1170,2087.3 l -120,150 l 60,10 l 80,-110 Z" fill="#a2542f"/><path d="M1230,2087.3 l 120,150 l -60,10 l -80,-110 Z" fill="#a2542f"/><circle cx="1200" cy="1430" r="220" fill="#a2542f"/><circle cx="1292.4" cy="1390.4" r="193.6" fill="#dcd3c2"/><path d="M286.4,273.6 L 353.6,273.6 L 353.6,206.4 L 300.8,206.4 L 300.8,248 L 328,248 L 328,227.2 M366.4,273.6 L 433.6,273.6 L 433.6,206.4 L 380.8,206.4 L 380.8,248 L 408,248 L 408,227.2 M446.4,273.6 L 513.6,273.6 L 513.6,206.4 L 460.8,206.4 L 460.8,248 L 488,248 L 488,227.2 M526.4,273.6 L 593.6,273.6 L 593.6,206.4 L 540.8,206.4 L 540.8,248 L 568,248 L 568,227.2 M606.4,273.6 L 673.6,273.6 L 673.6,206.4 L 620.8,206.4 L 620.8,248 L 648,248 L 648,227.2 M686.4,273.6 L 753.6,273.6 L 753.6,206.4 L 700.8,206.4 L 700.8,248 L 728,248 L 728,227.2 M766.4,273.6 L 833.6,273.6 L 833.6,206.4 L 780.8,206.4 L 780.8,248 L 808,248 L 808,227.2 M846.4,273.6 L 913.6,273.6 L 913.6,206.4 L 860.8,206.4 L 860.8,248 L 888,248 L 888,227.2 M926.4,273.6 L 993.6,273.6 L 993.6,206.4 L 940.8,206.4 L 940.8,248 L 968,248 L 968,227.2 M1006.4,273.6 L 1073.6,273.6 L 1073.6,206.4 L 1020.8,206.4 L 1020.8,248 L 1048,248 L 1048,227.2 M1086.4,273.6 L 1153.6,273.6 L 1153.6,206.4 L 1100.8,206.4 L 1100.8,248 L 1128,248 L 1128,227.2 M1166.4,273.6 L 1233.6,273.6 L 1233.6,206.4 L 1180.8,206.4 L 1180.8,248 L 1208,248 L 1208,227.2 M1246.4,273.6 L 1313.6,273.6 L 1313.6,206.4 L 1260.8,206.4 L 1260.8,248 L 1288,248 L 1288,227.2 M1326.4,273.6 L 1393.6,273.6 L 1393.6,206.4 L 1340.8,206.4 L 1340.8,248 L 1368,248 L 1368,227.2 M1406.4,273.6 L 1473.6,273.6 L 1473.6,206.4 L 1420.8,206.4 L 1420.8,248 L 1448,248 L 1448,227.2 M1486.4,273.6 L 1553.6,273.6 L 1553.6,206.4 L 1500.8,206.4 L 1500.8,248 L 1528,248 L 1528,227.2 M1566.4,273.6 L 1633.6,273.6 L 1633.6,206.4 L 1580.8,206.4 L 1580.8,248 L 1608,248 L 1608,227.2 M1646.4,273.6 L 1713.6,273.6 L 1713.6,206.4 L 1660.8,206.4 L 1660.8,248 L 1688,248 L 1688,227.2 M1726.4,273.6 L 1793.6,273.6 L 1793.6,206.4 L 1740.8,206.4 L 1740.8,248 L 1768,248 L 1768,227.2 M1806.4,273.6 L 1873.6,273.6 L 1873.6,206.4 L 1820.8,206.4 L 1820.8,248 L 1848,248 L 1848,227.2 M1886.4,273.6 L 1953.6,273.6 L 1953.6,206.4 L 1900.8,206.4 L 1900.8,248 L 1928,248 L 1928,227.2 M1966.4,273.6 L 2033.6,273.6 L 2033.6,206.4 L 1980.8,206.4 L 1980.8,248 L 2008,248 L 2008,227.2 M2046.4,273.6 L 2113.6,273.6 L 2113.6,206.4 L 2060.8,206.4 L 2060.8,248 L 2088,248 L 2088,227.2 " fill="none" stroke="#41586a" stroke-width="10.4"/><line x1="280" y1="2806" x2="2120" y2="2806" stroke="#41586a" stroke-width="6.9"/><polyline points="339.9,2764.7 339.4,2765.3 339.1,2766.1 339.1,2767.1 339.4,2768.1 340.1,2769.1 341.1,2769.9 342.4,2770.5 344,2770.6 345.6,2770.4 347.3,2769.7 348.8,2768.4 350,2766.8 350.9,2764.7 351.1,2762.4 350.8,2760 349.8,2757.6 348.2,2755.4 346,2753.6 343.2,2752.3 340.1,2751.8 336.9,2752 333.7,2753.1 330.7,2755 328.2,2757.6 326.3,2760.9 325.3,2764.7 325.2,2768.8 326.2,2772.9 328.2,2776.7 331.1,2780.1 334.9,2782.7 339.3,2784.3 344.2,2784.9 349.1,2784.2 353.9,2782.4 358.2,2779.3 361.7,2775.2 364.2,2770.3 365.4,2764.7 365.3,2758.9 363.7,2753.2 360.7,2747.9 356.4,2743.4 351.1,2740 345,2737.9 338.4,2737.3 331.7,2738.4 325.4,2741.1 319.8,2745.3 315.3,2750.9 312.2,2757.4 310.8,2764.7" fill="none" stroke="#41586a" stroke-width="7.7" stroke-linecap="round" stroke-linejoin="round"/><polyline points="425.9,2764.7 425.4,2765.3 425.1,2766.1 425.1,2767.1 425.4,2768.1 426.1,2769.1 427.1,2769.9 428.4,2770.5 430,2770.6 431.6,2770.4 433.3,2769.7 434.8,2768.4 436,2766.8 436.9,2764.7 437.1,2762.4 436.8,2760 435.8,2757.6 434.2,2755.4 432,2753.6 429.2,2752.3 426.1,2751.8 422.9,2752 419.7,2753.1 416.7,2755 414.2,2757.6 412.3,2760.9 411.3,2764.7 411.2,2768.8 412.2,2772.9 414.2,2776.7 417.1,2780.1 420.9,2782.7 425.3,2784.3 430.2,2784.9 435.1,2784.2 439.9,2782.4 444.2,2779.3 447.7,2775.2 450.2,2770.3 451.4,2764.7 451.3,2758.9 449.7,2753.2 446.7,2747.9 442.4,2743.4 437.1,2740 431,2737.9 424.4,2737.3 417.7,2738.4 411.4,2741.1 405.8,2745.3 401.3,2750.9 398.2,2757.4 396.8,2764.7" fill="none" stroke="#41586a" stroke-width="7.7" stroke-linecap="round" stroke-linejoin="round"/><polyline points="511.9,2764.7 511.4,2765.3 511.1,2766.1 511.1,2767.1 511.4,2768.1 512.1,2769.1 513.1,2769.9 514.4,2770.5 516,2770.6 517.6,2770.4 519.3,2769.7 520.8,2768.4 522,2766.8 522.9,2764.7 523.1,2762.4 522.8,2760 521.8,2757.6 520.2,2755.4 518,2753.6 515.2,2752.3 512.1,2751.8 508.9,2752 505.7,2753.1 502.7,2755 500.2,2757.6 498.3,2760.9 497.3,2764.7 497.2,2768.8 498.2,2772.9 500.2,2776.7 503.1,2780.1 506.9,2782.7 511.3,2784.3 516.2,2784.9 521.1,2784.2 525.9,2782.4 530.2,2779.3 533.7,2775.2 536.2,2770.3 537.4,2764.7 537.3,2758.9 535.7,2753.2 532.7,2747.9 528.4,2743.4 523.1,2740 517,2737.9 510.4,2737.3 503.7,2738.4 497.4,2741.1 491.8,2745.3 487.3,2750.9 484.2,2757.4 482.8,2764.7" fill="none" stroke="#41586a" stroke-width="7.7" stroke-linecap="round" stroke-linejoin="round"/><polyline points="597.9,2764.7 597.4,2765.3 597.1,2766.1 597.1,2767.1 597.4,2768.1 598.1,2769.1 599.1,2769.9 600.4,2770.5 602,2770.6 603.6,2770.4 605.3,2769.7 606.8,2768.4 608,2766.8 608.9,2764.7 609.1,2762.4 608.8,2760 607.8,2757.6 606.2,2755.4 604,2753.6 601.2,2752.3 598.1,2751.8 594.9,2752 591.7,2753.1 588.7,2755 586.2,2757.6 584.3,2760.9 583.3,2764.7 583.2,2768.8 584.2,2772.9 586.2,2776.7 589.1,2780.1 592.9,2782.7 597.3,2784.3 602.2,2784.9 607.1,2784.2 611.9,2782.4 616.2,2779.3 619.7,2775.2 622.2,2770.3 623.4,2764.7 623.3,2758.9 621.7,2753.2 618.7,2747.9 614.4,2743.4 609.1,2740 603,2737.9 596.4,2737.3 589.7,2738.4 583.4,2741.1 577.8,2745.3 573.3,2750.9 570.2,2757.4 568.8,2764.7" fill="none" stroke="#41586a" stroke-width="7.7" stroke-linecap="round" stroke-linejoin="round"/><polyline points="683.9,2764.7 683.4,2765.3 683.1,2766.1 683.1,2767.1 683.4,2768.1 684.1,2769.1 685.1,2769.9 686.4,2770.5 688,2770.6 689.6,2770.4 691.3,2769.7 692.8,2768.4 694,2766.8 694.9,2764.7 695.1,2762.4 694.8,2760 693.8,2757.6 692.2,2755.4 690,2753.6 687.2,2752.3 684.1,2751.8 680.9,2752 677.7,2753.1 674.7,2755 672.2,2757.6 670.3,2760.9 669.3,2764.7 669.2,2768.8 670.2,2772.9 672.2,2776.7 675.1,2780.1 678.9,2782.7 683.3,2784.3 688.2,2784.9 693.1,2784.2 697.9,2782.4 702.2,2779.3 705.7,2775.2 708.2,2770.3 709.4,2764.7 709.3,2758.9 707.7,2753.2 704.7,2747.9 700.4,2743.4 695.1,2740 689,2737.9 682.4,2737.3 675.7,2738.4 669.4,2741.1 663.8,2745.3 659.3,2750.9 656.2,2757.4 654.8,2764.7" fill="none" stroke="#41586a" stroke-width="7.7" stroke-linecap="round" stroke-linejoin="round"/><polyline points="769.9,2764.7 769.4,2765.3 769.1,2766.1 769.1,2767.1 769.4,2768.1 770.1,2769.1 771.1,2769.9 772.4,2770.5 774,2770.6 775.6,2770.4 777.3,2769.7 778.8,2768.4 780,2766.8 780.9,2764.7 781.1,2762.4 780.8,2760 779.8,2757.6 778.2,2755.4 776,2753.6 773.2,2752.3 770.1,2751.8 766.9,2752 763.7,2753.1 760.7,2755 758.2,2757.6 756.3,2760.9 755.3,2764.7 755.2,2768.8 756.2,2772.9 758.2,2776.7 761.1,2780.1 764.9,2782.7 769.3,2784.3 774.2,2784.9 779.1,2784.2 783.9,2782.4 788.2,2779.3 791.7,2775.2 794.2,2770.3 795.4,2764.7 795.3,2758.9 793.7,2753.2 790.7,2747.9 786.4,2743.4 781.1,2740 775,2737.9 768.4,2737.3 761.7,2738.4 755.4,2741.1 749.8,2745.3 745.3,2750.9 742.2,2757.4 740.8,2764.7" fill="none" stroke="#41586a" stroke-width="7.7" stroke-linecap="round" stroke-linejoin="round"/><polyline points="855.9,2764.7 855.4,2765.3 855.1,2766.1 855.1,2767.1 855.4,2768.1 856.1,2769.1 857.1,2769.9 858.4,2770.5 860,2770.6 861.6,2770.4 863.3,2769.7 864.8,2768.4 866,2766.8 866.9,2764.7 867.1,2762.4 866.8,2760 865.8,2757.6 864.2,2755.4 862,2753.6 859.2,2752.3 856.1,2751.8 852.9,2752 849.7,2753.1 846.7,2755 844.2,2757.6 842.3,2760.9 841.3,2764.7 841.2,2768.8 842.2,2772.9 844.2,2776.7 847.1,2780.1 850.9,2782.7 855.3,2784.3 860.2,2784.9 865.1,2784.2 869.9,2782.4 874.2,2779.3 877.7,2775.2 880.2,2770.3 881.4,2764.7 881.3,2758.9 879.7,2753.2 876.7,2747.9 872.4,2743.4 867.1,2740 861,2737.9 854.4,2737.3 847.7,2738.4 841.4,2741.1 835.8,2745.3 831.3,2750.9 828.2,2757.4 826.8,2764.7" fill="none" stroke="#41586a" stroke-width="7.7" stroke-linecap="round" stroke-linejoin="round"/><polyline points="941.9,2764.7 941.4,2765.3 941.1,2766.1 941.1,2767.1 941.4,2768.1 942.1,2769.1 943.1,2769.9 944.4,2770.5 946,2770.6 947.6,2770.4 949.3,2769.7 950.8,2768.4 952,2766.8 952.9,2764.7 953.1,2762.4 952.8,2760 951.8,2757.6 950.2,2755.4 948,2753.6 945.2,2752.3 942.1,2751.8 938.9,2752 935.7,2753.1 932.7,2755 930.2,2757.6 928.3,2760.9 927.3,2764.7 927.2,2768.8 928.2,2772.9 930.2,2776.7 933.1,2780.1 936.9,2782.7 941.3,2784.3 946.2,2784.9 951.1,2784.2 955.9,2782.4 960.2,2779.3 963.7,2775.2 966.2,2770.3 967.4,2764.7 967.3,2758.9 965.7,2753.2 962.7,2747.9 958.4,2743.4 953.1,2740 947,2737.9 940.4,2737.3 933.7,2738.4 927.4,2741.1 921.8,2745.3 917.3,2750.9 914.2,2757.4 912.8,2764.7" fill="none" stroke="#41586a" stroke-width="7.7" stroke-linecap="round" stroke-linejoin="round"/><polyline points="1027.9,2764.7 1027.4,2765.3 1027.1,2766.1 1027.1,2767.1 1027.4,2768.1 1028.1,2769.1 1029.1,2769.9 1030.4,2770.5 1032,2770.6 1033.6,2770.4 1035.3,2769.7 1036.8,2768.4 1038,2766.8 1038.9,2764.7 1039.1,2762.4 1038.8,2760 1037.8,2757.6 1036.2,2755.4 1034,2753.6 1031.2,2752.3 1028.1,2751.8 1024.9,2752 1021.7,2753.1 1018.7,2755 1016.2,2757.6 1014.3,2760.9 1013.3,2764.7 1013.2,2768.8 1014.2,2772.9 1016.2,2776.7 1019.1,2780.1 1022.9,2782.7 1027.3,2784.3 1032.2,2784.9 1037.1,2784.2 1041.9,2782.4 1046.2,2779.3 1049.7,2775.2 1052.2,2770.3 1053.4,2764.7 1053.3,2758.9 1051.7,2753.2 1048.7,2747.9 1044.4,2743.4 1039.1,2740 1033,2737.9 1026.4,2737.3 1019.7,2738.4 1013.4,2741.1 1007.8,2745.3 1003.3,2750.9 1000.2,2757.4 998.8,2764.7" fill="none" stroke="#41586a" stroke-width="7.7" stroke-linecap="round" stroke-linejoin="round"/><polyline points="1113.9,2764.7 1113.4,2765.3 1113.1,2766.1 1113.1,2767.1 1113.4,2768.1 1114.1,2769.1 1115.1,2769.9 1116.4,2770.5 1118,2770.6 1119.6,2770.4 1121.3,2769.7 1122.8,2768.4 1124,2766.8 1124.9,2764.7 1125.1,2762.4 1124.8,2760 1123.8,2757.6 1122.2,2755.4 1120,2753.6 1117.2,2752.3 1114.1,2751.8 1110.9,2752 1107.7,2753.1 1104.7,2755 1102.2,2757.6 1100.3,2760.9 1099.3,2764.7 1099.2,2768.8 1100.2,2772.9 1102.2,2776.7 1105.1,2780.1 1108.9,2782.7 1113.3,2784.3 1118.2,2784.9 1123.1,2784.2 1127.9,2782.4 1132.2,2779.3 1135.7,2775.2 1138.2,2770.3 1139.4,2764.7 1139.3,2758.9 1137.7,2753.2 1134.7,2747.9 1130.4,2743.4 1125.1,2740 1119,2737.9 1112.4,2737.3 1105.7,2738.4 1099.4,2741.1 1093.8,2745.3 1089.3,2750.9 1086.2,2757.4 1084.8,2764.7" fill="none" stroke="#41586a" stroke-width="7.7" stroke-linecap="round" stroke-linejoin="round"/><polyline points="1199.9,2764.7 1199.4,2765.3 1199.1,2766.1 1199.1,2767.1 1199.4,2768.1 1200.1,2769.1 1201.1,2769.9 1202.4,2770.5 1204,2770.6 1205.6,2770.4 1207.3,2769.7 1208.8,2768.4 1210,2766.8 1210.9,2764.7 1211.1,2762.4 1210.8,2760 1209.8,2757.6 1208.2,2755.4 1206,2753.6 1203.2,2752.3 1200.1,2751.8 1196.9,2752 1193.7,2753.1 1190.7,2755 1188.2,2757.6 1186.3,2760.9 1185.3,2764.7 1185.2,2768.8 1186.2,2772.9 1188.2,2776.7 1191.1,2780.1 1194.9,2782.7 1199.3,2784.3 1204.2,2784.9 1209.1,2784.2 1213.9,2782.4 1218.2,2779.3 1221.7,2775.2 1224.2,2770.3 1225.4,2764.7 1225.3,2758.9 1223.7,2753.2 1220.7,2747.9 1216.4,2743.4 1211.1,2740 1205,2737.9 1198.4,2737.3 1191.7,2738.4 1185.4,2741.1 1179.8,2745.3 1175.3,2750.9 1172.2,2757.4 1170.8,2764.7" fill="none" stroke="#41586a" stroke-width="7.7" stroke-linecap="round" stroke-linejoin="round"/><polyline points="1285.9,2764.7 1285.4,2765.3 1285.1,2766.1 1285.1,2767.1 1285.4,2768.1 1286.1,2769.1 1287.1,2769.9 1288.4,2770.5 1290,2770.6 1291.6,2770.4 1293.3,2769.7 1294.8,2768.4 1296,2766.8 1296.9,2764.7 1297.1,2762.4 1296.8,2760 1295.8,2757.6 1294.2,2755.4 1292,2753.6 1289.2,2752.3 1286.1,2751.8 1282.9,2752 1279.7,2753.1 1276.7,2755 1274.2,2757.6 1272.3,2760.9 1271.3,2764.7 1271.2,2768.8 1272.2,2772.9 1274.2,2776.7 1277.1,2780.1 1280.9,2782.7 1285.3,2784.3 1290.2,2784.9 1295.1,2784.2 1299.9,2782.4 1304.2,2779.3 1307.7,2775.2 1310.2,2770.3 1311.4,2764.7 1311.3,2758.9 1309.7,2753.2 1306.7,2747.9 1302.4,2743.4 1297.1,2740 1291,2737.9 1284.4,2737.3 1277.7,2738.4 1271.4,2741.1 1265.8,2745.3 1261.3,2750.9 1258.2,2757.4 1256.8,2764.7" fill="none" stroke="#41586a" stroke-width="7.7" stroke-linecap="round" stroke-linejoin="round"/><polyline points="1371.9,2764.7 1371.4,2765.3 1371.1,2766.1 1371.1,2767.1 1371.4,2768.1 1372.1,2769.1 1373.1,2769.9 1374.4,2770.5 1376,2770.6 1377.6,2770.4 1379.3,2769.7 1380.8,2768.4 1382,2766.8 1382.9,2764.7 1383.1,2762.4 1382.8,2760 1381.8,2757.6 1380.2,2755.4 1378,2753.6 1375.2,2752.3 1372.1,2751.8 1368.9,2752 1365.7,2753.1 1362.7,2755 1360.2,2757.6 1358.3,2760.9 1357.3,2764.7 1357.2,2768.8 1358.2,2772.9 1360.2,2776.7 1363.1,2780.1 1366.9,2782.7 1371.3,2784.3 1376.2,2784.9 1381.1,2784.2 1385.9,2782.4 1390.2,2779.3 1393.7,2775.2 1396.2,2770.3 1397.4,2764.7 1397.3,2758.9 1395.7,2753.2 1392.7,2747.9 1388.4,2743.4 1383.1,2740 1377,2737.9 1370.4,2737.3 1363.7,2738.4 1357.4,2741.1 1351.8,2745.3 1347.3,2750.9 1344.2,2757.4 1342.8,2764.7" fill="none" stroke="#41586a" stroke-width="7.7" stroke-linecap="round" stroke-linejoin="round"/><polyline points="1457.9,2764.7 1457.4,2765.3 1457.1,2766.1 1457.1,2767.1 1457.4,2768.1 1458.1,2769.1 1459.1,2769.9 1460.4,2770.5 1462,2770.6 1463.6,2770.4 1465.3,2769.7 1466.8,2768.4 1468,2766.8 1468.9,2764.7 1469.1,2762.4 1468.8,2760 1467.8,2757.6 1466.2,2755.4 1464,2753.6 1461.2,2752.3 1458.1,2751.8 1454.9,2752 1451.7,2753.1 1448.7,2755 1446.2,2757.6 1444.3,2760.9 1443.3,2764.7 1443.2,2768.8 1444.2,2772.9 1446.2,2776.7 1449.1,2780.1 1452.9,2782.7 1457.3,2784.3 1462.2,2784.9 1467.1,2784.2 1471.9,2782.4 1476.2,2779.3 1479.7,2775.2 1482.2,2770.3 1483.4,2764.7 1483.3,2758.9 1481.7,2753.2 1478.7,2747.9 1474.4,2743.4 1469.1,2740 1463,2737.9 1456.4,2737.3 1449.7,2738.4 1443.4,2741.1 1437.8,2745.3 1433.3,2750.9 1430.2,2757.4 1428.8,2764.7" fill="none" stroke="#41586a" stroke-width="7.7" stroke-linecap="round" stroke-linejoin="round"/><polyline points="1543.9,2764.7 1543.4,2765.3 1543.1,2766.1 1543.1,2767.1 1543.4,2768.1 1544.1,2769.1 1545.1,2769.9 1546.4,2770.5 1548,2770.6 1549.6,2770.4 1551.3,2769.7 1552.8,2768.4 1554,2766.8 1554.9,2764.7 1555.1,2762.4 1554.8,2760 1553.8,2757.6 1552.2,2755.4 1550,2753.6 1547.2,2752.3 1544.1,2751.8 1540.9,2752 1537.7,2753.1 1534.7,2755 1532.2,2757.6 1530.3,2760.9 1529.3,2764.7 1529.2,2768.8 1530.2,2772.9 1532.2,2776.7 1535.1,2780.1 1538.9,2782.7 1543.3,2784.3 1548.2,2784.9 1553.1,2784.2 1557.9,2782.4 1562.2,2779.3 1565.7,2775.2 1568.2,2770.3 1569.4,2764.7 1569.3,2758.9 1567.7,2753.2 1564.7,2747.9 1560.4,2743.4 1555.1,2740 1549,2737.9 1542.4,2737.3 1535.7,2738.4 1529.4,2741.1 1523.8,2745.3 1519.3,2750.9 1516.2,2757.4 1514.8,2764.7" fill="none" stroke="#41586a" stroke-width="7.7" stroke-linecap="round" stroke-linejoin="round"/><polyline points="1629.9,2764.7 1629.4,2765.3 1629.1,2766.1 1629.1,2767.1 1629.4,2768.1 1630.1,2769.1 1631.1,2769.9 1632.4,2770.5 1634,2770.6 1635.6,2770.4 1637.3,2769.7 1638.8,2768.4 1640,2766.8 1640.9,2764.7 1641.1,2762.4 1640.8,2760 1639.8,2757.6 1638.2,2755.4 1636,2753.6 1633.2,2752.3 1630.1,2751.8 1626.9,2752 1623.7,2753.1 1620.7,2755 1618.2,2757.6 1616.3,2760.9 1615.3,2764.7 1615.2,2768.8 1616.2,2772.9 1618.2,2776.7 1621.1,2780.1 1624.9,2782.7 1629.3,2784.3 1634.2,2784.9 1639.1,2784.2 1643.9,2782.4 1648.2,2779.3 1651.7,2775.2 1654.2,2770.3 1655.4,2764.7 1655.3,2758.9 1653.7,2753.2 1650.7,2747.9 1646.4,2743.4 1641.1,2740 1635,2737.9 1628.4,2737.3 1621.7,2738.4 1615.4,2741.1 1609.8,2745.3 1605.3,2750.9 1602.2,2757.4 1600.8,2764.7" fill="none" stroke="#41586a" stroke-width="7.7" stroke-linecap="round" stroke-linejoin="round"/><polyline points="1715.9,2764.7 1715.4,2765.3 1715.1,2766.1 1715.1,2767.1 1715.4,2768.1 1716.1,2769.1 1717.1,2769.9 1718.4,2770.5 1720,2770.6 1721.6,2770.4 1723.3,2769.7 1724.8,2768.4 1726,2766.8 1726.9,2764.7 1727.1,2762.4 1726.8,2760 1725.8,2757.6 1724.2,2755.4 1722,2753.6 1719.2,2752.3 1716.1,2751.8 1712.9,2752 1709.7,2753.1 1706.7,2755 1704.2,2757.6 1702.3,2760.9 1701.3,2764.7 1701.2,2768.8 1702.2,2772.9 1704.2,2776.7 1707.1,2780.1 1710.9,2782.7 1715.3,2784.3 1720.2,2784.9 1725.1,2784.2 1729.9,2782.4 1734.2,2779.3 1737.7,2775.2 1740.2,2770.3 1741.4,2764.7 1741.3,2758.9 1739.7,2753.2 1736.7,2747.9 1732.4,2743.4 1727.1,2740 1721,2737.9 1714.4,2737.3 1707.7,2738.4 1701.4,2741.1 1695.8,2745.3 1691.3,2750.9 1688.2,2757.4 1686.8,2764.7" fill="none" stroke="#41586a" stroke-width="7.7" stroke-linecap="round" stroke-linejoin="round"/><polyline points="1801.9,2764.7 1801.4,2765.3 1801.1,2766.1 1801.1,2767.1 1801.4,2768.1 1802.1,2769.1 1803.1,2769.9 1804.4,2770.5 1806,2770.6 1807.6,2770.4 1809.3,2769.7 1810.8,2768.4 1812,2766.8 1812.9,2764.7 1813.1,2762.4 1812.8,2760 1811.8,2757.6 1810.2,2755.4 1808,2753.6 1805.2,2752.3 1802.1,2751.8 1798.9,2752 1795.7,2753.1 1792.7,2755 1790.2,2757.6 1788.3,2760.9 1787.3,2764.7 1787.2,2768.8 1788.2,2772.9 1790.2,2776.7 1793.1,2780.1 1796.9,2782.7 1801.3,2784.3 1806.2,2784.9 1811.1,2784.2 1815.9,2782.4 1820.2,2779.3 1823.7,2775.2 1826.2,2770.3 1827.4,2764.7 1827.3,2758.9 1825.7,2753.2 1822.7,2747.9 1818.4,2743.4 1813.1,2740 1807,2737.9 1800.4,2737.3 1793.7,2738.4 1787.4,2741.1 1781.8,2745.3 1777.3,2750.9 1774.2,2757.4 1772.8,2764.7" fill="none" stroke="#41586a" stroke-width="7.7" stroke-linecap="round" stroke-linejoin="round"/><polyline points="1887.9,2764.7 1887.4,2765.3 1887.1,2766.1 1887.1,2767.1 1887.4,2768.1 1888.1,2769.1 1889.1,2769.9 1890.4,2770.5 1892,2770.6 1893.6,2770.4 1895.3,2769.7 1896.8,2768.4 1898,2766.8 1898.9,2764.7 1899.1,2762.4 1898.8,2760 1897.8,2757.6 1896.2,2755.4 1894,2753.6 1891.2,2752.3 1888.1,2751.8 1884.9,2752 1881.7,2753.1 1878.7,2755 1876.2,2757.6 1874.3,2760.9 1873.3,2764.7 1873.2,2768.8 1874.2,2772.9 1876.2,2776.7 1879.1,2780.1 1882.9,2782.7 1887.3,2784.3 1892.2,2784.9 1897.1,2784.2 1901.9,2782.4 1906.2,2779.3 1909.7,2775.2 1912.2,2770.3 1913.4,2764.7 1913.3,2758.9 1911.7,2753.2 1908.7,2747.9 1904.4,2743.4 1899.1,2740 1893,2737.9 1886.4,2737.3 1879.7,2738.4 1873.4,2741.1 1867.8,2745.3 1863.3,2750.9 1860.2,2757.4 1858.8,2764.7" fill="none" stroke="#41586a" stroke-width="7.7" stroke-linecap="round" stroke-linejoin="round"/><polyline points="1973.9,2764.7 1973.4,2765.3 1973.1,2766.1 1973.1,2767.1 1973.4,2768.1 1974.1,2769.1 1975.1,2769.9 1976.4,2770.5 1978,2770.6 1979.6,2770.4 1981.3,2769.7 1982.8,2768.4 1984,2766.8 1984.9,2764.7 1985.1,2762.4 1984.8,2760 1983.8,2757.6 1982.2,2755.4 1980,2753.6 1977.2,2752.3 1974.1,2751.8 1970.9,2752 1967.7,2753.1 1964.7,2755 1962.2,2757.6 1960.3,2760.9 1959.3,2764.7 1959.2,2768.8 1960.2,2772.9 1962.2,2776.7 1965.1,2780.1 1968.9,2782.7 1973.3,2784.3 1978.2,2784.9 1983.1,2784.2 1987.9,2782.4 1992.2,2779.3 1995.7,2775.2 1998.2,2770.3 1999.4,2764.7 1999.3,2758.9 1997.7,2753.2 1994.7,2747.9 1990.4,2743.4 1985.1,2740 1979,2737.9 1972.4,2737.3 1965.7,2738.4 1959.4,2741.1 1953.8,2745.3 1949.3,2750.9 1946.2,2757.4 1944.8,2764.7" fill="none" stroke="#41586a" stroke-width="7.7" stroke-linecap="round" stroke-linejoin="round"/><polyline points="2059.9,2764.7 2059.4,2765.3 2059.1,2766.1 2059.1,2767.1 2059.4,2768.1 2060.1,2769.1 2061.1,2769.9 2062.4,2770.5 2064,2770.6 2065.6,2770.4 2067.3,2769.7 2068.8,2768.4 2070,2766.8 2070.9,2764.7 2071.1,2762.4 2070.8,2760 2069.8,2757.6 2068.2,2755.4 2066,2753.6 2063.2,2752.3 2060.1,2751.8 2056.9,2752 2053.7,2753.1 2050.7,2755 2048.2,2757.6 2046.3,2760.9 2045.3,2764.7 2045.2,2768.8 2046.2,2772.9 2048.2,2776.7 2051.1,2780.1 2054.9,2782.7 2059.3,2784.3 2064.2,2784.9 2069.1,2784.2 2073.9,2782.4 2078.2,2779.3 2081.7,2775.2 2084.2,2770.3 2085.4,2764.7 2085.3,2758.9 2083.7,2753.2 2080.7,2747.9 2076.4,2743.4 2071.1,2740 2065,2737.9 2058.4,2737.3 2051.7,2738.4 2045.4,2741.1 2039.8,2745.3 2035.3,2750.9 2032.2,2757.4 2030.8,2764.7" fill="none" stroke="#41586a" stroke-width="7.7" stroke-linecap="round" stroke-linejoin="round"/><rect x="104" y="104" width="2192" height="2792" fill="none" stroke="#41586a" stroke-width="16" opacity="0.85"/><rect x="150" y="150" width="2100" height="2700" fill="none" stroke="#41586a" stroke-width="4" opacity="0.55"/></g><rect width="2400" height="3000" filter="url(#a75-mottle)" style="mix-blend-mode:multiply" opacity="0.5"/><rect width="2400" height="3000" filter="url(#a75-fade)" style="mix-blend-mode:screen" opacity="0.55"/><rect width="2400" height="3000" filter="url(#a75-grain)" style="mix-blend-mode:multiply" opacity="0.32"/><ellipse cx="236.1" cy="1116.6" rx="150.8" ry="150.8" fill="#6b4a22" opacity="0.060" filter="url(#a75-blur9)"/><ellipse cx="789.3" cy="604.5" rx="229.2" ry="221.6" fill="#6b4a22" opacity="0.026" filter="url(#a75-blur9)"/><ellipse cx="478.7" cy="700.8" rx="190.8" ry="137.2" fill="#6b4a22" opacity="0.049" filter="url(#a75-blur9)"/><ellipse cx="569.5" cy="2339.3" rx="248.2" ry="177.8" fill="#6b4a22" opacity="0.026" filter="url(#a75-blur9)"/><ellipse cx="922" cy="1632.4" rx="121" ry="121.3" fill="#6b4a22" opacity="0.032" filter="url(#a75-blur9)"/><ellipse cx="366.2" cy="265" rx="154.2" ry="157.8" fill="#6b4a22" opacity="0.026" filter="url(#a75-blur9)"/><polyline points="1567.9,2598.2 1622.3,2710.5 1618.6,2822.3 1547.9,2934.4 1550.3,3066.7 1560.9,3137.8 1500.7,3264.7" fill="none" stroke="#2e2116" stroke-width="3.5" opacity="0.22" stroke-linejoin="round"/><polyline points="1567.9,2598.2 1622.3,2710.5 1618.6,2822.3 1547.9,2934.4 1550.3,3066.7 1560.9,3137.8 1500.7,3264.7" fill="none" stroke="#fff8ea" stroke-width="2.4" opacity="0.14" transform="translate(2.5 2.5)" stroke-linejoin="round"/><polyline points="1275.9,1330.8 1282.3,1269.6 1310.2,1138.5 1260.2,1066.9 1168.9,1044.3 1087.5,1045.6 984,1046 926.4,997.5 836.9,954 760.9,910.4 684.6,801.1 619.7,796.1 552.6,761" fill="none" stroke="#2e2116" stroke-width="3.8" opacity="0.23" stroke-linejoin="round"/><polyline points="1275.9,1330.8 1282.3,1269.6 1310.2,1138.5 1260.2,1066.9 1168.9,1044.3 1087.5,1045.6 984,1046 926.4,997.5 836.9,954 760.9,910.4 684.6,801.1 619.7,796.1 552.6,761" fill="none" stroke="#fff8ea" stroke-width="2.6" opacity="0.11" transform="translate(2.5 2.5)" stroke-linejoin="round"/><polyline points="411.3,676.3 371,611 342.5,568.5 362.6,485 330.2,386.2 313,287.6 321.6,196.8 315.4,105.7 301.5,-11.6" fill="none" stroke="#2e2116" stroke-width="3.9" opacity="0.28" stroke-linejoin="round"/><polyline points="411.3,676.3 371,611 342.5,568.5 362.6,485 330.2,386.2 313,287.6 321.6,196.8 315.4,105.7 301.5,-11.6" fill="none" stroke="#fff8ea" stroke-width="2.8" opacity="0.10" transform="translate(2.5 2.5)" stroke-linejoin="round"/><polyline points="1773.3,2209 1839.9,2123.9 1906.3,2071.8 1980.8,1983.3 2035.6,1944.3 2113,1939.2 2192,1837.8 2226.1,1760.7" fill="none" stroke="#2e2116" stroke-width="2.4" opacity="0.14" stroke-linejoin="round"/><polyline points="1773.3,2209 1839.9,2123.9 1906.3,2071.8 1980.8,1983.3 2035.6,1944.3 2113,1939.2 2192,1837.8 2226.1,1760.7" fill="none" stroke="#fff8ea" stroke-width="1.7" opacity="0.16" transform="translate(2.5 2.5)" stroke-linejoin="round"/><polyline points="406.9,2606.6 458.2,2645.1 530.1,2670.7 623.9,2776.1 669.3,2884.6 672.3,2980.2 705,3031.4" fill="none" stroke="#2e2116" stroke-width="3.7" opacity="0.19" stroke-linejoin="round"/><polyline points="406.9,2606.6 458.2,2645.1 530.1,2670.7 623.9,2776.1 669.3,2884.6 672.3,2980.2 705,3031.4" fill="none" stroke="#fff8ea" stroke-width="2.6" opacity="0.15" transform="translate(2.5 2.5)" stroke-linejoin="round"/><polyline points="2135.8,1848.2 2222.3,1936.1 2232.1,2027.5 2317.5,2123.4 2403.7,2193.4 2534.1,2201.6" fill="none" stroke="#2e2116" stroke-width="4.1" opacity="0.23" stroke-linejoin="round"/><polyline points="2135.8,1848.2 2222.3,1936.1 2232.1,2027.5 2317.5,2123.4 2403.7,2193.4 2534.1,2201.6" fill="none" stroke="#fff8ea" stroke-width="2.9" opacity="0.08" transform="translate(2.5 2.5)" stroke-linejoin="round"/><polyline points="2190.3,2632.1 2145.7,2662.1 2041.2,2704.6 1996.2,2733.8 1918.3,2738.2 1867.5,2718.2 1785.2,2738.9 1709.7,2851.2 1647.3,2934.9 1562.7,3008.9 1513.9,3030.4 1456.1,3034.2" fill="none" stroke="#2e2116" stroke-width="3.8" opacity="0.27" stroke-linejoin="round"/><polyline points="2190.3,2632.1 2145.7,2662.1 2041.2,2704.6 1996.2,2733.8 1918.3,2738.2 1867.5,2718.2 1785.2,2738.9 1709.7,2851.2 1647.3,2934.9 1562.7,3008.9 1513.9,3030.4 1456.1,3034.2" fill="none" stroke="#fff8ea" stroke-width="2.7" opacity="0.09" transform="translate(2.5 2.5)" stroke-linejoin="round"/><path d="M1835.2,1274.7 Q1829.6,1299 1814.3,1314.5 Q1799,1330 1788.2,1307.8 Q1777.3,1285.6 1774.6,1255 Q1771.9,1224.4 1784.7,1214.5 Q1797.4,1204.5 1814.2,1198.3 Q1830.9,1192.1 1835.8,1221.2 Q1840.8,1250.3 1835.2,1274.7 Z" fill="#dcd3c2" opacity="0.76"/><path d="M1132.6,2094.4 Q1124.6,2108.4 1107.2,2113.3 Q1089.8,2118.2 1071.6,2105.2 Q1053.4,2092.1 1054.3,2079.3 Q1055.2,2066.4 1072,2053.3 Q1088.8,2040.3 1107.1,2050.9 Q1125.3,2061.5 1132.9,2070.9 Q1140.6,2080.4 1132.6,2094.4 Z" fill="#dcd3c2" opacity="0.90"/><path d="M384,2081 Q358.3,2095 311.1,2091.7 Q263.9,2088.3 219.5,2084.4 Q175,2080.4 172.6,2066.2 Q170.2,2051.9 216.8,2046.2 Q263.4,2040.5 304,2043.8 Q344.6,2047.2 377.1,2057.1 Q409.6,2067.1 384,2081 Z" fill="#dcd3c2" opacity="0.87"/><path d="M1588.5,1196.3 Q1573.2,1208.9 1539.8,1217.8 Q1506.3,1226.7 1475.8,1211.9 Q1445.3,1197.2 1443.7,1181 Q1442,1164.7 1471.7,1157 Q1501.4,1149.2 1527.5,1156 Q1553.6,1162.8 1578.8,1173.3 Q1603.9,1183.8 1588.5,1196.3 Z" fill="#dcd3c2" opacity="0.93"/><path d="M1864.7,2126 Q1825.4,2146.8 1794.5,2148.3 Q1763.6,2149.8 1726.3,2136.6 Q1688.9,2123.5 1686.1,2102.6 Q1683.3,2081.7 1723.1,2066.8 Q1763,2051.9 1802.7,2056.4 Q1842.3,2061 1873.2,2083.1 Q1904.1,2105.3 1864.7,2126 Z" fill="#dcd3c2" opacity="0.84"/><path d="M1666.8,2591.5 Q1658.9,2624.4 1635.9,2629.9 Q1612.8,2635.4 1594.7,2616.2 Q1576.5,2597 1587.4,2564 Q1598.4,2531 1607,2520.6 Q1615.7,2510.2 1638.8,2510 Q1661.8,2509.8 1668.3,2534.2 Q1674.7,2558.6 1666.8,2591.5 Z" fill="#dcd3c2" opacity="0.76"/><rect width="2400" height="3000" fill="url(#a75-vig)"/></svg></svg>