<svg xmlns="http://www.w3.org/2000/svg" width="2400" height="1800" viewBox="0 0 2400 1800"><rect width="2400" height="1800" fill="#dfe4dc"/><rect y="1400" width="2400" height="400" fill="#c2a67e"/><line x1="60" y1="1400" x2="10" y2="1800" stroke="#00000015" stroke-width="5"/><line x1="260" y1="1400" x2="210" y2="1800" stroke="#00000015" stroke-width="5"/><line x1="460" y1="1400" x2="410" y2="1800" stroke="#00000015" stroke-width="5"/><line x1="660" y1="1400" x2="610" y2="1800" stroke="#00000015" stroke-width="5"/><line x1="860" y1="1400" x2="810" y2="1800" stroke="#00000015" stroke-width="5"/><line x1="1060" y1="1400" x2="1010" y2="1800" stroke="#00000015" stroke-width="5"/><line x1="1260" y1="1400" x2="1210" y2="1800" stroke="#00000015" stroke-width="5"/><line x1="1460" y1="1400" x2="1410" y2="1800" stroke="#00000015" stroke-width="5"/><line x1="1660" y1="1400" x2="1610" y2="1800" stroke="#00000015" stroke-width="5"/><line x1="1860" y1="1400" x2="1810" y2="1800" stroke="#00000015" stroke-width="5"/><line x1="2060" y1="1400" x2="2010" y2="1800" stroke="#00000015" stroke-width="5"/><line x1="2260" y1="1400" x2="2210" y2="1800" stroke="#00000015" stroke-width="5"/><rect x="180" y="260" width="900" height="620" fill="#8a6a48"/><rect x="215" y="295" width="830" height="550" fill="#41524a"/><line x1="280" y1="420" x2="760" y2="420" stroke="#ffffff66" stroke-width="9" stroke-linecap="round"/><line x1="280" y1="520" x2="620" y2="520" stroke="#ffffff44" stroke-width="9" stroke-linecap="round"/><circle cx="880" cy="560" r="90" fill="none" stroke="#ffffff55" stroke-width="8"/><rect x="215" y="845" width="830" height="22" fill="#6f5436"/><rect x="330" y="1240" width="640" height="60" rx="10" fill="#9c7449"/><rect x="370" y="1300" width="60" height="240" fill="#8a6540"/><rect x="870" y="1300" width="60" height="240" fill="#8a6540"/><rect x="430" y="1160" width="150" height="80" rx="8" fill="#a2542f"/><rect x="450" y="1120" width="150" height="40" rx="8" fill="#b6ab95"/><circle cx="800" cy="1130" r="86" fill="#7fa3b8"/><path d="M760,1060 Q820,1100 780,1190 M740,1090 Q800,1120 850,1100" stroke="#5d8069" stroke-width="16" fill="none" stroke-linecap="round"/><circle cx="800" cy="1130" r="86" fill="none" stroke="#6b5233" stroke-width="7"/><line x1="800" y1="1216" x2="800" y2="1250" stroke="#6b5233" stroke-width="10"/><rect x="750" y="1244" width="100" height="14" rx="7" fill="#6b5233"/><rect x="1980" y="700" width="300" height="800" fill="#9c7449"/><rect x="2000" y="930" width="260" height="16" fill="#7c5a37"/><rect x="2020" y="790" width="36" height="140" fill="#b3502f"/><rect x="2066" y="802" width="36" height="128" fill="#39685c"/><rect x="2112" y="790" width="36" height="140" fill="#c9a227"/><rect x="2158" y="802" width="36" height="128" fill="#2c4661"/><rect x="2204" y="790" width="36" height="140" fill="#8a4423"/><rect x="2000" y="1180" width="260" height="16" fill="#7c5a37"/><rect x="2020" y="1040" width="36" height="140" fill="#39685c"/><rect x="2066" y="1052" width="36" height="128" fill="#c9a227"/><rect x="2112" y="1040" width="36" height="140" fill="#2c4661"/><rect x="2158" y="1052" width="36" height="128" fill="#8a4423"/><rect x="2204" y="1040" width="36" height="140" fill="#b3502f"/><rect x="2000" y="1430" width="260" height="16" fill="#7c5a37"/><rect x="2020" y="1290" width="36" height="140" fill="#c9a227"/><rect x="2066" y="1302" width="36" height="128" fill="#2c4661"/><rect x="2112" y="1290" width="36" height="140" fill="#8a4423"/><rect x="2158" y="1302" width="36" height="128" fill="#b3502f"/><rect x="2204" y="1290" width="36" height="140" fill="#39685c"/><defs><filter id="a2c-sh" x="-30%" y="-30%" width="160%" height="160%"><feGaussianBlur stdDeviation="16"/></filter></defs><rect x="1340.5" y="298.5" width="517" height="635" fill="#000" opacity="0.28" filter="url(#a2c-sh)"/><rect x="1326.5" y="276.5" width="517" height="635" fill="#3d342a"/><rect x="1341.8" y="291.8" width="486.4" height="604.5" fill="none" stroke="#00000055" stroke-width="3"/><rect x="1350" y="300" width="470" height="588" fill="#f6f2ea"/><svg x="1385.3" y="335.3" width="399.5" height="517.5" viewBox="0 0 2400 3000" preserveAspectRatio="xMidYMid slice"><filter id="a2-warp" x="-4%" y="-4%" width="108%" height="108%"><feTurbulence type="fractalNoise" baseFrequency="0.0105" numOctaves="2" seed="6228" result="w"/><feDisplacementMap in="SourceGraphic" in2="w" scale="12" xChannelSelector="R" yChannelSelector="G"/></filter><filter id="a2-grain" x="0%" y="0%" width="100%" height="100%"><feTurbulence type="fractalNoise" baseFrequency="0.6" numOctaves="2" seed="6235"/><feColorMatrix type="matrix" values="0.33 0.33 0.33 0 0.62  0.33 0.33 0.33 0 0.62  0.33 0.33 0.33 0 0.62  0 0 0 0 1"/></filter><filter id="a2-mottle" x="0%" y="0%" width="100%" height="100%"><feTurbulence type="fractalNoise" baseFrequency="0.0045" numOctaves="3" seed="6241"/><feColorMatrix type="matrix" values="0.2 0.2 0.2 0 0.78  0.2 0.2 0.2 0 0.78  0.2 0.2 0.2 0 0.78  0 0 0 0 1"/></filter><filter id="a2-fade" x="0%" y="0%" width="100%" height="100%"><feTurbulence type="fractalNoise" baseFrequency="0.006" numOctaves="2" seed="6257"/><feColorMatrix type="matrix" values="0.3 0.3 0.3 0 -0.08  0.3 0.3 0.3 0 -0.08  0.3 0.3 0.3 0 -0.1  0 0 0 0 1"/></filter><filter id="a2-blur9"><feGaussianBlur stdDeviation="9"/></filter><radialGradient id="a2-vig" cx="50%" cy="44%" r="78%"><stop offset="52%" stop-color="#241a10" stop-opacity="0"/><stop offset="100%" stop-color="#241a10" stop-opacity="0.17"/></radialGradient><radialGradient id="a2-warm" cx="58%" cy="30%" r="85%"><stop offset="0%" stop-color="#e8c890" stop-opacity="0.14"/><stop offset="70%" stop-color="#e8c890" stop-opacity="0"/></radialGradient><rect width="2400" height="3000" fill="#dcd3c2"/><rect width="2400" height="3000" fill="url(#a2-warm)"/><rect y="1697.2" width="2400" height="297.6" fill="#8a6a40" opacity="0.026" transform="rotate(1.9 1200 1697.2)"/><rect y="1123.6" width="2400" height="212.4" fill="#ffffff" opacity="0.023" transform="rotate(1.6 1200 1123.6)"/><rect y="1357.1" width="2400" height="145.7" fill="#8a6a40" opacity="0.041" transform="rotate(0.6 1200 1357.1)"/><rect y="339.3" width="2400" height="234" fill="#ffffff" opacity="0.028" transform="rotate(-1.4 1200 339.3)"/><rect y="2956.8" width="2400" height="311.5" fill="#8a6a40" opacity="0.024" transform="rotate(1 1200 2956.8)"/><rect y="2518.8" width="2400" height="279.2" fill="#ffffff" opacity="0.026" transform="rotate(0.4 1200 2518.8)"/><rect y="2905.3" width="2400" height="207.1" fill="#8a6a40" opacity="0.040" transform="rotate(-0.6 1200 2905.3)"/><g filter="url(#a2-warp)"><path d="M283,271 L 357,271 L 357,197 L 298.9,197 L 298.9,242.8 L 328.8,242.8 L 328.8,219.9 M371,271 L 445,271 L 445,197 L 386.9,197 L 386.9,242.8 L 416.8,242.8 L 416.8,219.9 M459,271 L 533,271 L 533,197 L 474.9,197 L 474.9,242.8 L 504.8,242.8 L 504.8,219.9 M547,271 L 621,271 L 621,197 L 562.9,197 L 562.9,242.8 L 592.8,242.8 L 592.8,219.9 M635,271 L 709,271 L 709,197 L 650.9,197 L 650.9,242.8 L 680.8,242.8 L 680.8,219.9 M723,271 L 797,271 L 797,197 L 738.9,197 L 738.9,242.8 L 768.8,242.8 L 768.8,219.9 M811,271 L 885,271 L 885,197 L 826.9,197 L 826.9,242.8 L 856.8,242.8 L 856.8,219.9 M899,271 L 973,271 L 973,197 L 914.9,197 L 914.9,242.8 L 944.8,242.8 L 944.8,219.9 M987,271 L 1061,271 L 1061,197 L 1002.9,197 L 1002.9,242.8 L 1032.8,242.8 L 1032.8,219.9 M1075,271 L 1149,271 L 1149,197 L 1090.9,197 L 1090.9,242.8 L 1120.8,242.8 L 1120.8,219.9 M1163,271 L 1237,271 L 1237,197 L 1178.9,197 L 1178.9,242.8 L 1208.8,242.8 L 1208.8,219.9 M1251,271 L 1325,271 L 1325,197 L 1266.9,197 L 1266.9,242.8 L 1296.8,242.8 L 1296.8,219.9 M1339,271 L 1413,271 L 1413,197 L 1354.9,197 L 1354.9,242.8 L 1384.8,242.8 L 1384.8,219.9 M1427,271 L 1501,271 L 1501,197 L 1442.9,197 L 1442.9,242.8 L 1472.8,242.8 L 1472.8,219.9 M1515,271 L 1589,271 L 1589,197 L 1530.9,197 L 1530.9,242.8 L 1560.8,242.8 L 1560.8,219.9 M1603,271 L 1677,271 L 1677,197 L 1618.9,197 L 1618.9,242.8 L 1648.8,242.8 L 1648.8,219.9 M1691,271 L 1765,271 L 1765,197 L 1706.9,197 L 1706.9,242.8 L 1736.8,242.8 L 1736.8,219.9 M1779,271 L 1853,271 L 1853,197 L 1794.9,197 L 1794.9,242.8 L 1824.8,242.8 L 1824.8,219.9 M1867,271 L 1941,271 L 1941,197 L 1882.9,197 L 1882.9,242.8 L 1912.8,242.8 L 1912.8,219.9 M1955,271 L 2029,271 L 2029,197 L 1970.9,197 L 1970.9,242.8 L 2000.8,242.8 L 2000.8,219.9 M2043,271 L 2117,271 L 2117,197 L 2058.9,197 L 2058.9,242.8 L 2088.8,242.8 L 2088.8,219.9 " fill="none" stroke="#41586a" stroke-width="11.4"/><line x1="240" y1="2796" x2="2160" y2="2796" stroke="#41586a" stroke-width="7.7"/><polyline points="287.8,2749.9 287.3,2750.6 287,2751.5 287,2752.5 287.3,2753.7 288.1,2754.8 289.2,2755.7 290.7,2756.3 292.4,2756.5 294.3,2756.3 296.1,2755.4 297.8,2754.1 299.2,2752.2 300.1,2749.9 300.4,2747.3 300.1,2744.6 299,2741.9 297.1,2739.5 294.6,2737.5 291.6,2736.1 288.2,2735.5 284.5,2735.7 280.9,2736.9 277.6,2739 274.8,2742 272.7,2745.7 271.6,2749.9 271.5,2754.5 272.6,2759 274.8,2763.3 278.1,2767.1 282.3,2770 287.3,2771.8 292.7,2772.4 298.2,2771.7 303.5,2769.6 308.3,2766.2 312.2,2761.6 315,2756.1 316.4,2749.9 316.2,2743.4 314.4,2737.1 311.1,2731.1 306.4,2726.1 300.4,2722.3 293.6,2720 286.2,2719.3 278.8,2720.5 271.7,2723.5 265.5,2728.2 260.4,2734.4 257,2741.8 255.4,2749.9" fill="none" stroke="#41586a" stroke-width="8.6" stroke-linecap="round" stroke-linejoin="round"/><polyline points="383.8,2749.9 383.3,2750.6 383,2751.5 383,2752.5 383.3,2753.7 384.1,2754.8 385.2,2755.7 386.7,2756.3 388.4,2756.5 390.3,2756.3 392.1,2755.4 393.8,2754.1 395.2,2752.2 396.1,2749.9 396.4,2747.3 396.1,2744.6 395,2741.9 393.1,2739.5 390.6,2737.5 387.6,2736.1 384.2,2735.5 380.5,2735.7 376.9,2736.9 373.6,2739 370.8,2742 368.7,2745.7 367.6,2749.9 367.5,2754.5 368.6,2759 370.8,2763.3 374.1,2767.1 378.3,2770 383.3,2771.8 388.7,2772.4 394.2,2771.7 399.5,2769.6 404.3,2766.2 408.2,2761.6 411,2756.1 412.4,2749.9 412.2,2743.4 410.4,2737.1 407.1,2731.1 402.4,2726.1 396.4,2722.3 389.6,2720 382.2,2719.3 374.8,2720.5 367.7,2723.5 361.5,2728.2 356.4,2734.4 353,2741.8 351.4,2749.9" fill="none" stroke="#41586a" stroke-width="8.6" stroke-linecap="round" stroke-linejoin="round"/><polyline points="479.8,2749.9 479.3,2750.6 479,2751.5 479,2752.5 479.3,2753.7 480.1,2754.8 481.2,2755.7 482.7,2756.3 484.4,2756.5 486.3,2756.3 488.1,2755.4 489.8,2754.1 491.2,2752.2 492.1,2749.9 492.4,2747.3 492.1,2744.6 491,2741.9 489.1,2739.5 486.6,2737.5 483.6,2736.1 480.2,2735.5 476.5,2735.7 472.9,2736.9 469.6,2739 466.8,2742 464.7,2745.7 463.6,2749.9 463.5,2754.5 464.6,2759 466.8,2763.3 470.1,2767.1 474.3,2770 479.3,2771.8 484.7,2772.4 490.2,2771.7 495.5,2769.6 500.3,2766.2 504.2,2761.6 507,2756.1 508.4,2749.9 508.2,2743.4 506.4,2737.1 503.1,2731.1 498.4,2726.1 492.4,2722.3 485.6,2720 478.2,2719.3 470.8,2720.5 463.7,2723.5 457.5,2728.2 452.4,2734.4 449,2741.8 447.4,2749.9" fill="none" stroke="#41586a" stroke-width="8.6" stroke-linecap="round" stroke-linejoin="round"/><polyline points="575.8,2749.9 575.3,2750.6 575,2751.5 575,2752.5 575.3,2753.7 576.1,2754.8 577.2,2755.7 578.7,2756.3 580.4,2756.5 582.3,2756.3 584.1,2755.4 585.8,2754.1 587.2,2752.2 588.1,2749.9 588.4,2747.3 588.1,2744.6 587,2741.9 585.1,2739.5 582.6,2737.5 579.6,2736.1 576.2,2735.5 572.5,2735.7 568.9,2736.9 565.6,2739 562.8,2742 560.7,2745.7 559.6,2749.9 559.5,2754.5 560.6,2759 562.8,2763.3 566.1,2767.1 570.3,2770 575.3,2771.8 580.7,2772.4 586.2,2771.7 591.5,2769.6 596.3,2766.2 600.2,2761.6 603,2756.1 604.4,2749.9 604.2,2743.4 602.4,2737.1 599.1,2731.1 594.4,2726.1 588.4,2722.3 581.6,2720 574.2,2719.3 566.8,2720.5 559.7,2723.5 553.5,2728.2 548.4,2734.4 545,2741.8 543.4,2749.9" fill="none" stroke="#41586a" stroke-width="8.6" stroke-linecap="round" stroke-linejoin="round"/><polyline points="671.8,2749.9 671.3,2750.6 671,2751.5 671,2752.5 671.3,2753.7 672.1,2754.8 673.2,2755.7 674.7,2756.3 676.4,2756.5 678.3,2756.3 680.1,2755.4 681.8,2754.1 683.2,2752.2 684.1,2749.9 684.4,2747.3 684.1,2744.6 683,2741.9 681.1,2739.5 678.6,2737.5 675.6,2736.1 672.2,2735.5 668.5,2735.7 664.9,2736.9 661.6,2739 658.8,2742 656.7,2745.7 655.6,2749.9 655.5,2754.5 656.6,2759 658.8,2763.3 662.1,2767.1 666.3,2770 671.3,2771.8 676.7,2772.4 682.2,2771.7 687.5,2769.6 692.3,2766.2 696.2,2761.6 699,2756.1 700.4,2749.9 700.2,2743.4 698.4,2737.1 695.1,2731.1 690.4,2726.1 684.4,2722.3 677.6,2720 670.2,2719.3 662.8,2720.5 655.7,2723.5 649.5,2728.2 644.4,2734.4 641,2741.8 639.4,2749.9" fill="none" stroke="#41586a" stroke-width="8.6" stroke-linecap="round" stroke-linejoin="round"/><polyline points="767.8,2749.9 767.3,2750.6 767,2751.5 767,2752.5 767.3,2753.7 768.1,2754.8 769.2,2755.7 770.7,2756.3 772.4,2756.5 774.3,2756.3 776.1,2755.4 777.8,2754.1 779.2,2752.2 780.1,2749.9 780.4,2747.3 780.1,2744.6 779,2741.9 777.1,2739.5 774.6,2737.5 771.6,2736.1 768.2,2735.5 764.5,2735.7 760.9,2736.9 757.6,2739 754.8,2742 752.7,2745.7 751.6,2749.9 751.5,2754.5 752.6,2759 754.8,2763.3 758.1,2767.1 762.3,2770 767.3,2771.8 772.7,2772.4 778.2,2771.7 783.5,2769.6 788.3,2766.2 792.2,2761.6 795,2756.1 796.4,2749.9 796.2,2743.4 794.4,2737.1 791.1,2731.1 786.4,2726.1 780.4,2722.3 773.6,2720 766.2,2719.3 758.8,2720.5 751.7,2723.5 745.5,2728.2 740.4,2734.4 737,2741.8 735.4,2749.9" fill="none" stroke="#41586a" stroke-width="8.6" stroke-linecap="round" stroke-linejoin="round"/><polyline points="863.8,2749.9 863.3,2750.6 863,2751.5 863,2752.5 863.3,2753.7 864.1,2754.8 865.2,2755.7 866.7,2756.3 868.4,2756.5 870.3,2756.3 872.1,2755.4 873.8,2754.1 875.2,2752.2 876.1,2749.9 876.4,2747.3 876.1,2744.6 875,2741.9 873.1,2739.5 870.6,2737.5 867.6,2736.1 864.2,2735.5 860.5,2735.7 856.9,2736.9 853.6,2739 850.8,2742 848.7,2745.7 847.6,2749.9 847.5,2754.5 848.6,2759 850.8,2763.3 854.1,2767.1 858.3,2770 863.3,2771.8 868.7,2772.4 874.2,2771.7 879.5,2769.6 884.3,2766.2 888.2,2761.6 891,2756.1 892.4,2749.9 892.2,2743.4 890.4,2737.1 887.1,2731.1 882.4,2726.1 876.4,2722.3 869.6,2720 862.2,2719.3 854.8,2720.5 847.7,2723.5 841.5,2728.2 836.4,2734.4 833,2741.8 831.4,2749.9" fill="none" stroke="#41586a" stroke-width="8.6" stroke-linecap="round" stroke-linejoin="round"/><polyline points="959.8,2749.9 959.3,2750.6 959,2751.5 959,2752.5 959.3,2753.7 960.1,2754.8 961.2,2755.7 962.7,2756.3 964.4,2756.5 966.3,2756.3 968.1,2755.4 969.8,2754.1 971.2,2752.2 972.1,2749.9 972.4,2747.3 972.1,2744.6 971,2741.9 969.1,2739.5 966.6,2737.5 963.6,2736.1 960.2,2735.5 956.5,2735.7 952.9,2736.9 949.6,2739 946.8,2742 944.7,2745.7 943.6,2749.9 943.5,2754.5 944.6,2759 946.8,2763.3 950.1,2767.1 954.3,2770 959.3,2771.8 964.7,2772.4 970.2,2771.7 975.5,2769.6 980.3,2766.2 984.2,2761.6 987,2756.1 988.4,2749.9 988.2,2743.4 986.4,2737.1 983.1,2731.1 978.4,2726.1 972.4,2722.3 965.6,2720 958.2,2719.3 950.8,2720.5 943.7,2723.5 937.5,2728.2 932.4,2734.4 929,2741.8 927.4,2749.9" fill="none" stroke="#41586a" stroke-width="8.6" stroke-linecap="round" stroke-linejoin="round"/><polyline points="1055.8,2749.9 1055.3,2750.6 1055,2751.5 1055,2752.5 1055.3,2753.7 1056.1,2754.8 1057.2,2755.7 1058.7,2756.3 1060.4,2756.5 1062.3,2756.3 1064.1,2755.4 1065.8,2754.1 1067.2,2752.2 1068.1,2749.9 1068.4,2747.3 1068.1,2744.6 1067,2741.9 1065.1,2739.5 1062.6,2737.5 1059.6,2736.1 1056.2,2735.5 1052.5,2735.7 1048.9,2736.9 1045.6,2739 1042.8,2742 1040.7,2745.7 1039.6,2749.9 1039.5,2754.5 1040.6,2759 1042.8,2763.3 1046.1,2767.1 1050.3,2770 1055.3,2771.8 1060.7,2772.4 1066.2,2771.7 1071.5,2769.6 1076.3,2766.2 1080.2,2761.6 1083,2756.1 1084.4,2749.9 1084.2,2743.4 1082.4,2737.1 1079.1,2731.1 1074.4,2726.1 1068.4,2722.3 1061.6,2720 1054.2,2719.3 1046.8,2720.5 1039.7,2723.5 1033.5,2728.2 1028.4,2734.4 1025,2741.8 1023.4,2749.9" fill="none" stroke="#41586a" stroke-width="8.6" stroke-linecap="round" stroke-linejoin="round"/><polyline points="1151.8,2749.9 1151.3,2750.6 1151,2751.5 1151,2752.5 1151.3,2753.7 1152.1,2754.8 1153.2,2755.7 1154.7,2756.3 1156.4,2756.5 1158.3,2756.3 1160.1,2755.4 1161.8,2754.1 1163.2,2752.2 1164.1,2749.9 1164.4,2747.3 1164.1,2744.6 1163,2741.9 1161.1,2739.5 1158.6,2737.5 1155.6,2736.1 1152.2,2735.5 1148.5,2735.7 1144.9,2736.9 1141.6,2739 1138.8,2742 1136.7,2745.7 1135.6,2749.9 1135.5,2754.5 1136.6,2759 1138.8,2763.3 1142.1,2767.1 1146.3,2770 1151.3,2771.8 1156.7,2772.4 1162.2,2771.7 1167.5,2769.6 1172.3,2766.2 1176.2,2761.6 1179,2756.1 1180.4,2749.9 1180.2,2743.4 1178.4,2737.1 1175.1,2731.1 1170.4,2726.1 1164.4,2722.3 1157.6,2720 1150.2,2719.3 1142.8,2720.5 1135.7,2723.5 1129.5,2728.2 1124.4,2734.4 1121,2741.8 1119.4,2749.9" fill="none" stroke="#41586a" stroke-width="8.6" stroke-linecap="round" stroke-linejoin="round"/><polyline points="1247.8,2749.9 1247.3,2750.6 1247,2751.5 1247,2752.5 1247.3,2753.7 1248.1,2754.8 1249.2,2755.7 1250.7,2756.3 1252.4,2756.5 1254.3,2756.3 1256.1,2755.4 1257.8,2754.1 1259.2,2752.2 1260.1,2749.9 1260.4,2747.3 1260.1,2744.6 1259,2741.9 1257.1,2739.5 1254.6,2737.5 1251.6,2736.1 1248.2,2735.5 1244.5,2735.7 1240.9,2736.9 1237.6,2739 1234.8,2742 1232.7,2745.7 1231.6,2749.9 1231.5,2754.5 1232.6,2759 1234.8,2763.3 1238.1,2767.1 1242.3,2770 1247.3,2771.8 1252.7,2772.4 1258.2,2771.7 1263.5,2769.6 1268.3,2766.2 1272.2,2761.6 1275,2756.1 1276.4,2749.9 1276.2,2743.4 1274.4,2737.1 1271.1,2731.1 1266.4,2726.1 1260.4,2722.3 1253.6,2720 1246.2,2719.3 1238.8,2720.5 1231.7,2723.5 1225.5,2728.2 1220.4,2734.4 1217,2741.8 1215.4,2749.9" fill="none" stroke="#41586a" stroke-width="8.6" stroke-linecap="round" stroke-linejoin="round"/><polyline points="1343.8,2749.9 1343.3,2750.6 1343,2751.5 1343,2752.5 1343.3,2753.7 1344.1,2754.8 1345.2,2755.7 1346.7,2756.3 1348.4,2756.5 1350.3,2756.3 1352.1,2755.4 1353.8,2754.1 1355.2,2752.2 1356.1,2749.9 1356.4,2747.3 1356.1,2744.6 1355,2741.9 1353.1,2739.5 1350.6,2737.5 1347.6,2736.1 1344.2,2735.5 1340.5,2735.7 1336.9,2736.9 1333.6,2739 1330.8,2742 1328.7,2745.7 1327.6,2749.9 1327.5,2754.5 1328.6,2759 1330.8,2763.3 1334.1,2767.1 1338.3,2770 1343.3,2771.8 1348.7,2772.4 1354.2,2771.7 1359.5,2769.6 1364.3,2766.2 1368.2,2761.6 1371,2756.1 1372.4,2749.9 1372.2,2743.4 1370.4,2737.1 1367.1,2731.1 1362.4,2726.1 1356.4,2722.3 1349.6,2720 1342.2,2719.3 1334.8,2720.5 1327.7,2723.5 1321.5,2728.2 1316.4,2734.4 1313,2741.8 1311.4,2749.9" fill="none" stroke="#41586a" stroke-width="8.6" stroke-linecap="round" stroke-linejoin="round"/><polyline points="1439.8,2749.9 1439.3,2750.6 1439,2751.5 1439,2752.5 1439.3,2753.7 1440.1,2754.8 1441.2,2755.7 1442.7,2756.3 1444.4,2756.5 1446.3,2756.3 1448.1,2755.4 1449.8,2754.1 1451.2,2752.2 1452.1,2749.9 1452.4,2747.3 1452.1,2744.6 1451,2741.9 1449.1,2739.5 1446.6,2737.5 1443.6,2736.1 1440.2,2735.5 1436.5,2735.7 1432.9,2736.9 1429.6,2739 1426.8,2742 1424.7,2745.7 1423.6,2749.9 1423.5,2754.5 1424.6,2759 1426.8,2763.3 1430.1,2767.1 1434.3,2770 1439.3,2771.8 1444.7,2772.4 1450.2,2771.7 1455.5,2769.6 1460.3,2766.2 1464.2,2761.6 1467,2756.1 1468.4,2749.9 1468.2,2743.4 1466.4,2737.1 1463.1,2731.1 1458.4,2726.1 1452.4,2722.3 1445.6,2720 1438.2,2719.3 1430.8,2720.5 1423.7,2723.5 1417.5,2728.2 1412.4,2734.4 1409,2741.8 1407.4,2749.9" fill="none" stroke="#41586a" stroke-width="8.6" stroke-linecap="round" stroke-linejoin="round"/><polyline points="1535.8,2749.9 1535.3,2750.6 1535,2751.5 1535,2752.5 1535.3,2753.7 1536.1,2754.8 1537.2,2755.7 1538.7,2756.3 1540.4,2756.5 1542.3,2756.3 1544.1,2755.4 1545.8,2754.1 1547.2,2752.2 1548.1,2749.9 1548.4,2747.3 1548.1,2744.6 1547,2741.9 1545.1,2739.5 1542.6,2737.5 1539.6,2736.1 1536.2,2735.5 1532.5,2735.7 1528.9,2736.9 1525.6,2739 1522.8,2742 1520.7,2745.7 1519.6,2749.9 1519.5,2754.5 1520.6,2759 1522.8,2763.3 1526.1,2767.1 1530.3,2770 1535.3,2771.8 1540.7,2772.4 1546.2,2771.7 1551.5,2769.6 1556.3,2766.2 1560.2,2761.6 1563,2756.1 1564.4,2749.9 1564.2,2743.4 1562.4,2737.1 1559.1,2731.1 1554.4,2726.1 1548.4,2722.3 1541.6,2720 1534.2,2719.3 1526.8,2720.5 1519.7,2723.5 1513.5,2728.2 1508.4,2734.4 1505,2741.8 1503.4,2749.9" fill="none" stroke="#41586a" stroke-width="8.6" stroke-linecap="round" stroke-linejoin="round"/><polyline points="1631.8,2749.9 1631.3,2750.6 1631,2751.5 1631,2752.5 1631.3,2753.7 1632.1,2754.8 1633.2,2755.7 1634.7,2756.3 1636.4,2756.5 1638.3,2756.3 1640.1,2755.4 1641.8,2754.1 1643.2,2752.2 1644.1,2749.9 1644.4,2747.3 1644.1,2744.6 1643,2741.9 1641.1,2739.5 1638.6,2737.5 1635.6,2736.1 1632.2,2735.5 1628.5,2735.7 1624.9,2736.9 1621.6,2739 1618.8,2742 1616.7,2745.7 1615.6,2749.9 1615.5,2754.5 1616.6,2759 1618.8,2763.3 1622.1,2767.1 1626.3,2770 1631.3,2771.8 1636.7,2772.4 1642.2,2771.7 1647.5,2769.6 1652.3,2766.2 1656.2,2761.6 1659,2756.1 1660.4,2749.9 1660.2,2743.4 1658.4,2737.1 1655.1,2731.1 1650.4,2726.1 1644.4,2722.3 1637.6,2720 1630.2,2719.3 1622.8,2720.5 1615.7,2723.5 1609.5,2728.2 1604.4,2734.4 1601,2741.8 1599.4,2749.9" fill="none" stroke="#41586a" stroke-width="8.6" stroke-linecap="round" stroke-linejoin="round"/><polyline points="1727.8,2749.9 1727.3,2750.6 1727,2751.5 1727,2752.5 1727.3,2753.7 1728.1,2754.8 1729.2,2755.7 1730.7,2756.3 1732.4,2756.5 1734.3,2756.3 1736.1,2755.4 1737.8,2754.1 1739.2,2752.2 1740.1,2749.9 1740.4,2747.3 1740.1,2744.6 1739,2741.9 1737.1,2739.5 1734.6,2737.5 1731.6,2736.1 1728.2,2735.5 1724.5,2735.7 1720.9,2736.9 1717.6,2739 1714.8,2742 1712.7,2745.7 1711.6,2749.9 1711.5,2754.5 1712.6,2759 1714.8,2763.3 1718.1,2767.1 1722.3,2770 1727.3,2771.8 1732.7,2772.4 1738.2,2771.7 1743.5,2769.6 1748.3,2766.2 1752.2,2761.6 1755,2756.1 1756.4,2749.9 1756.2,2743.4 1754.4,2737.1 1751.1,2731.1 1746.4,2726.1 1740.4,2722.3 1733.6,2720 1726.2,2719.3 1718.8,2720.5 1711.7,2723.5 1705.5,2728.2 1700.4,2734.4 1697,2741.8 1695.4,2749.9" fill="none" stroke="#41586a" stroke-width="8.6" stroke-linecap="round" stroke-linejoin="round"/><polyline points="1823.8,2749.9 1823.3,2750.6 1823,2751.5 1823,2752.5 1823.3,2753.7 1824.1,2754.8 1825.2,2755.7 1826.7,2756.3 1828.4,2756.5 1830.3,2756.3 1832.1,2755.4 1833.8,2754.1 1835.2,2752.2 1836.1,2749.9 1836.4,2747.3 1836.1,2744.6 1835,2741.9 1833.1,2739.5 1830.6,2737.5 1827.6,2736.1 1824.2,2735.5 1820.5,2735.7 1816.9,2736.9 1813.6,2739 1810.8,2742 1808.7,2745.7 1807.6,2749.9 1807.5,2754.5 1808.6,2759 1810.8,2763.3 1814.1,2767.1 1818.3,2770 1823.3,2771.8 1828.7,2772.4 1834.2,2771.7 1839.5,2769.6 1844.3,2766.2 1848.2,2761.6 1851,2756.1 1852.4,2749.9 1852.2,2743.4 1850.4,2737.1 1847.1,2731.1 1842.4,2726.1 1836.4,2722.3 1829.6,2720 1822.2,2719.3 1814.8,2720.5 1807.7,2723.5 1801.5,2728.2 1796.4,2734.4 1793,2741.8 1791.4,2749.9" fill="none" stroke="#41586a" stroke-width="8.6" stroke-linecap="round" stroke-linejoin="round"/><polyline points="1919.8,2749.9 1919.3,2750.6 1919,2751.5 1919,2752.5 1919.3,2753.7 1920.1,2754.8 1921.2,2755.7 1922.7,2756.3 1924.4,2756.5 1926.3,2756.3 1928.1,2755.4 1929.8,2754.1 1931.2,2752.2 1932.1,2749.9 1932.4,2747.3 1932.1,2744.6 1931,2741.9 1929.1,2739.5 1926.6,2737.5 1923.6,2736.1 1920.2,2735.5 1916.5,2735.7 1912.9,2736.9 1909.6,2739 1906.8,2742 1904.7,2745.7 1903.6,2749.9 1903.5,2754.5 1904.6,2759 1906.8,2763.3 1910.1,2767.1 1914.3,2770 1919.3,2771.8 1924.7,2772.4 1930.2,2771.7 1935.5,2769.6 1940.3,2766.2 1944.2,2761.6 1947,2756.1 1948.4,2749.9 1948.2,2743.4 1946.4,2737.1 1943.1,2731.1 1938.4,2726.1 1932.4,2722.3 1925.6,2720 1918.2,2719.3 1910.8,2720.5 1903.7,2723.5 1897.5,2728.2 1892.4,2734.4 1889,2741.8 1887.4,2749.9" fill="none" stroke="#41586a" stroke-width="8.6" stroke-linecap="round" stroke-linejoin="round"/><polyline points="2015.8,2749.9 2015.3,2750.6 2015,2751.5 2015,2752.5 2015.3,2753.7 2016.1,2754.8 2017.2,2755.7 2018.7,2756.3 2020.4,2756.5 2022.3,2756.3 2024.1,2755.4 2025.8,2754.1 2027.2,2752.2 2028.1,2749.9 2028.4,2747.3 2028.1,2744.6 2027,2741.9 2025.1,2739.5 2022.6,2737.5 2019.6,2736.1 2016.2,2735.5 2012.5,2735.7 2008.9,2736.9 2005.6,2739 2002.8,2742 2000.7,2745.7 1999.6,2749.9 1999.5,2754.5 2000.6,2759 2002.8,2763.3 2006.1,2767.1 2010.3,2770 2015.3,2771.8 2020.7,2772.4 2026.2,2771.7 2031.5,2769.6 2036.3,2766.2 2040.2,2761.6 2043,2756.1 2044.4,2749.9 2044.2,2743.4 2042.4,2737.1 2039.1,2731.1 2034.4,2726.1 2028.4,2722.3 2021.6,2720 2014.2,2719.3 2006.8,2720.5 1999.7,2723.5 1993.5,2728.2 1988.4,2734.4 1985,2741.8 1983.4,2749.9" fill="none" stroke="#41586a" stroke-width="8.6" stroke-linecap="round" stroke-linejoin="round"/><polyline points="2111.8,2749.9 2111.3,2750.6 2111,2751.5 2111,2752.5 2111.3,2753.7 2112.1,2754.8 2113.2,2755.7 2114.7,2756.3 2116.4,2756.5 2118.3,2756.3 2120.1,2755.4 2121.8,2754.1 2123.2,2752.2 2124.1,2749.9 2124.4,2747.3 2124.1,2744.6 2123,2741.9 2121.1,2739.5 2118.6,2737.5 2115.6,2736.1 2112.2,2735.5 2108.5,2735.7 2104.9,2736.9 2101.6,2739 2098.8,2742 2096.7,2745.7 2095.6,2749.9 2095.5,2754.5 2096.6,2759 2098.8,2763.3 2102.1,2767.1 2106.3,2770 2111.3,2771.8 2116.7,2772.4 2122.2,2771.7 2127.5,2769.6 2132.3,2766.2 2136.2,2761.6 2139,2756.1 2140.4,2749.9 2140.2,2743.4 2138.4,2737.1 2135.1,2731.1 2130.4,2726.1 2124.4,2722.3 2117.6,2720 2110.2,2719.3 2102.8,2720.5 2095.7,2723.5 2089.5,2728.2 2084.4,2734.4 2081,2741.8 2079.4,2749.9" fill="none" stroke="#41586a" stroke-width="8.6" stroke-linecap="round" stroke-linejoin="round"/><rect x="640" y="2560" width="1120" height="34" fill="#41586a"/><rect x="540" y="2594" width="1320" height="26" fill="#41586a" opacity="0.75"/><path d="M1099.8,788.6 C839.8,728.6 604.3,1253.7 774.3,1413.7" fill="none" stroke="#41586a" stroke-width="52" stroke-linecap="round"/><path d="M1300.2,788.6 C1560.2,728.6 1795.7,1253.7 1625.7,1413.7" fill="none" stroke="#41586a" stroke-width="52" stroke-linecap="round"/><path d="M1099.8,688.6 C1059.8,1088.6 680.9,1242.4 680.9,1735.6 C680.9,2124.9 1073.6,2210 1103.6,2470 L1036.1,2530 L1036.1,2560 L1363.9,2560 L1363.9,2530 L1296.4,2470 C1326.4,2210 1719.1,2124.9 1719.1,1735.6 C1719.1,1242.4 1340.2,1088.6 1300.2,688.6 Z" fill="#41586a"/><rect x="1028.9" y="618.6" width="342.1" height="72" rx="22" fill="#41586a"/><clipPath id="a2-vase"><path d="M1099.8,688.6 C1059.8,1088.6 680.9,1242.4 680.9,1735.6 C680.9,2124.9 1073.6,2210 1103.6,2470 L1036.1,2530 L1036.1,2560 L1363.9,2560 L1363.9,2530 L1296.4,2470 C1326.4,2210 1719.1,2124.9 1719.1,1735.6 C1719.1,1242.4 1340.2,1088.6 1300.2,688.6 Z"/></clipPath><g clip-path="url(#a2-vase)"><path d="M701.4,1498.3 L 778.6,1498.3 L 778.6,1421.1 L 717.9,1421.1 L 717.9,1468.9 L 749.2,1468.9 L 749.2,1445 M793.4,1498.3 L 870.6,1498.3 L 870.6,1421.1 L 809.9,1421.1 L 809.9,1468.9 L 841.2,1468.9 L 841.2,1445 M885.4,1498.3 L 962.6,1498.3 L 962.6,1421.1 L 901.9,1421.1 L 901.9,1468.9 L 933.2,1468.9 L 933.2,1445 M977.4,1498.3 L 1054.6,1498.3 L 1054.6,1421.1 L 993.9,1421.1 L 993.9,1468.9 L 1025.2,1468.9 L 1025.2,1445 M1069.4,1498.3 L 1146.6,1498.3 L 1146.6,1421.1 L 1085.9,1421.1 L 1085.9,1468.9 L 1117.2,1468.9 L 1117.2,1445 M1161.4,1498.3 L 1238.6,1498.3 L 1238.6,1421.1 L 1177.9,1421.1 L 1177.9,1468.9 L 1209.2,1468.9 L 1209.2,1445 M1253.4,1498.3 L 1330.6,1498.3 L 1330.6,1421.1 L 1269.9,1421.1 L 1269.9,1468.9 L 1301.2,1468.9 L 1301.2,1445 M1345.4,1498.3 L 1422.6,1498.3 L 1422.6,1421.1 L 1361.9,1421.1 L 1361.9,1468.9 L 1393.2,1468.9 L 1393.2,1445 M1437.4,1498.3 L 1514.6,1498.3 L 1514.6,1421.1 L 1453.9,1421.1 L 1453.9,1468.9 L 1485.2,1468.9 L 1485.2,1445 M1529.4,1498.3 L 1606.6,1498.3 L 1606.6,1421.1 L 1545.9,1421.1 L 1545.9,1468.9 L 1577.2,1468.9 L 1577.2,1445 M1621.4,1498.3 L 1698.6,1498.3 L 1698.6,1421.1 L 1637.9,1421.1 L 1637.9,1468.9 L 1669.2,1468.9 L 1669.2,1445 " fill="none" stroke="#dcd3c2" stroke-width="12"/><line x1="680.9" y1="1543.7" x2="1719.1" y2="1543.7" stroke="#dcd3c2" stroke-width="10"/><line x1="680.8725860796403" y1="1885.6" x2="1719.1274139203597" y2="1885.6" stroke="#dcd3c2" stroke-width="8.8"/><polyline points="759.8,1832.8 759.2,1833.5 758.8,1834.5 758.8,1835.8 759.2,1837.1 760.1,1838.3 761.4,1839.4 763.1,1840.1 765.1,1840.3 767.2,1840 769.3,1839.1 771.3,1837.5 772.8,1835.4 773.9,1832.8 774.2,1829.8 773.8,1826.7 772.6,1823.6 770.5,1820.8 767.6,1818.5 764.1,1816.9 760.2,1816.2 756,1816.5 751.9,1817.8 748.1,1820.3 744.9,1823.7 742.5,1827.9 741.2,1832.8 741.1,1838 742.3,1843.2 744.9,1848.1 748.7,1852.4 753.5,1855.7 759.2,1857.9 765.3,1858.6 771.7,1857.7 777.8,1855.3 783.3,1851.4 787.8,1846.2 790.9,1839.8 792.5,1832.8 792.3,1825.3 790.3,1818 786.5,1811.2 781,1805.5 774.2,1801.1 766.4,1798.4 757.9,1797.7 749.4,1799.1 741.3,1802.5 734.2,1807.9 728.4,1815 724.4,1823.5 722.6,1832.8" fill="none" stroke="#dcd3c2" stroke-width="9.9" stroke-linecap="round" stroke-linejoin="round"/><polyline points="869.8,1832.8 869.2,1833.5 868.8,1834.5 868.8,1835.8 869.2,1837.1 870.1,1838.3 871.4,1839.4 873.1,1840.1 875.1,1840.3 877.2,1840 879.3,1839.1 881.3,1837.5 882.8,1835.4 883.9,1832.8 884.2,1829.8 883.8,1826.7 882.6,1823.6 880.5,1820.8 877.6,1818.5 874.1,1816.9 870.2,1816.2 866,1816.5 861.9,1817.8 858.1,1820.3 854.9,1823.7 852.5,1827.9 851.2,1832.8 851.1,1838 852.3,1843.2 854.9,1848.1 858.7,1852.4 863.5,1855.7 869.2,1857.9 875.3,1858.6 881.7,1857.7 887.8,1855.3 893.3,1851.4 897.8,1846.2 900.9,1839.8 902.5,1832.8 902.3,1825.3 900.3,1818 896.5,1811.2 891,1805.5 884.2,1801.1 876.4,1798.4 867.9,1797.7 859.4,1799.1 851.3,1802.5 844.2,1807.9 838.4,1815 834.4,1823.5 832.6,1832.8" fill="none" stroke="#dcd3c2" stroke-width="9.9" stroke-linecap="round" stroke-linejoin="round"/><polyline points="979.8,1832.8 979.2,1833.5 978.8,1834.5 978.8,1835.8 979.2,1837.1 980.1,1838.3 981.4,1839.4 983.1,1840.1 985.1,1840.3 987.2,1840 989.3,1839.1 991.3,1837.5 992.8,1835.4 993.9,1832.8 994.2,1829.8 993.8,1826.7 992.6,1823.6 990.5,1820.8 987.6,1818.5 984.1,1816.9 980.2,1816.2 976,1816.5 971.9,1817.8 968.1,1820.3 964.9,1823.7 962.5,1827.9 961.2,1832.8 961.1,1838 962.3,1843.2 964.9,1848.1 968.7,1852.4 973.5,1855.7 979.2,1857.9 985.3,1858.6 991.7,1857.7 997.8,1855.3 1003.3,1851.4 1007.8,1846.2 1010.9,1839.8 1012.5,1832.8 1012.3,1825.3 1010.3,1818 1006.5,1811.2 1001,1805.5 994.2,1801.1 986.4,1798.4 977.9,1797.7 969.4,1799.1 961.3,1802.5 954.2,1807.9 948.4,1815 944.4,1823.5 942.6,1832.8" fill="none" stroke="#dcd3c2" stroke-width="9.9" stroke-linecap="round" stroke-linejoin="round"/><polyline points="1089.8,1832.8 1089.2,1833.5 1088.8,1834.5 1088.8,1835.8 1089.2,1837.1 1090.1,1838.3 1091.4,1839.4 1093.1,1840.1 1095.1,1840.3 1097.2,1840 1099.3,1839.1 1101.3,1837.5 1102.8,1835.4 1103.9,1832.8 1104.2,1829.8 1103.8,1826.7 1102.6,1823.6 1100.5,1820.8 1097.6,1818.5 1094.1,1816.9 1090.2,1816.2 1086,1816.5 1081.9,1817.8 1078.1,1820.3 1074.9,1823.7 1072.5,1827.9 1071.2,1832.8 1071.1,1838 1072.3,1843.2 1074.9,1848.1 1078.7,1852.4 1083.5,1855.7 1089.2,1857.9 1095.3,1858.6 1101.7,1857.7 1107.8,1855.3 1113.3,1851.4 1117.8,1846.2 1120.9,1839.8 1122.5,1832.8 1122.3,1825.3 1120.3,1818 1116.5,1811.2 1111,1805.5 1104.2,1801.1 1096.4,1798.4 1087.9,1797.7 1079.4,1799.1 1071.3,1802.5 1064.2,1807.9 1058.4,1815 1054.4,1823.5 1052.6,1832.8" fill="none" stroke="#dcd3c2" stroke-width="9.9" stroke-linecap="round" stroke-linejoin="round"/><polyline points="1199.8,1832.8 1199.2,1833.5 1198.8,1834.5 1198.8,1835.8 1199.2,1837.1 1200.1,1838.3 1201.4,1839.4 1203.1,1840.1 1205.1,1840.3 1207.2,1840 1209.3,1839.1 1211.3,1837.5 1212.8,1835.4 1213.9,1832.8 1214.2,1829.8 1213.8,1826.7 1212.6,1823.6 1210.5,1820.8 1207.6,1818.5 1204.1,1816.9 1200.2,1816.2 1196,1816.5 1191.9,1817.8 1188.1,1820.3 1184.9,1823.7 1182.5,1827.9 1181.2,1832.8 1181.1,1838 1182.3,1843.2 1184.9,1848.1 1188.7,1852.4 1193.5,1855.7 1199.2,1857.9 1205.3,1858.6 1211.7,1857.7 1217.8,1855.3 1223.3,1851.4 1227.8,1846.2 1230.9,1839.8 1232.5,1832.8 1232.3,1825.3 1230.3,1818 1226.5,1811.2 1221,1805.5 1214.2,1801.1 1206.4,1798.4 1197.9,1797.7 1189.4,1799.1 1181.3,1802.5 1174.2,1807.9 1168.4,1815 1164.4,1823.5 1162.6,1832.8" fill="none" stroke="#dcd3c2" stroke-width="9.9" stroke-linecap="round" stroke-linejoin="round"/><polyline points="1309.8,1832.8 1309.2,1833.5 1308.8,1834.5 1308.8,1835.8 1309.2,1837.1 1310.1,1838.3 1311.4,1839.4 1313.1,1840.1 1315.1,1840.3 1317.2,1840 1319.3,1839.1 1321.3,1837.5 1322.8,1835.4 1323.9,1832.8 1324.2,1829.8 1323.8,1826.7 1322.6,1823.6 1320.5,1820.8 1317.6,1818.5 1314.1,1816.9 1310.2,1816.2 1306,1816.5 1301.9,1817.8 1298.1,1820.3 1294.9,1823.7 1292.5,1827.9 1291.2,1832.8 1291.1,1838 1292.3,1843.2 1294.9,1848.1 1298.7,1852.4 1303.5,1855.7 1309.2,1857.9 1315.3,1858.6 1321.7,1857.7 1327.8,1855.3 1333.3,1851.4 1337.8,1846.2 1340.9,1839.8 1342.5,1832.8 1342.3,1825.3 1340.3,1818 1336.5,1811.2 1331,1805.5 1324.2,1801.1 1316.4,1798.4 1307.9,1797.7 1299.4,1799.1 1291.3,1802.5 1284.2,1807.9 1278.4,1815 1274.4,1823.5 1272.6,1832.8" fill="none" stroke="#dcd3c2" stroke-width="9.9" stroke-linecap="round" stroke-linejoin="round"/><polyline points="1419.8,1832.8 1419.2,1833.5 1418.8,1834.5 1418.8,1835.8 1419.2,1837.1 1420.1,1838.3 1421.4,1839.4 1423.1,1840.1 1425.1,1840.3 1427.2,1840 1429.3,1839.1 1431.3,1837.5 1432.8,1835.4 1433.9,1832.8 1434.2,1829.8 1433.8,1826.7 1432.6,1823.6 1430.5,1820.8 1427.6,1818.5 1424.1,1816.9 1420.2,1816.2 1416,1816.5 1411.9,1817.8 1408.1,1820.3 1404.9,1823.7 1402.5,1827.9 1401.2,1832.8 1401.1,1838 1402.3,1843.2 1404.9,1848.1 1408.7,1852.4 1413.5,1855.7 1419.2,1857.9 1425.3,1858.6 1431.7,1857.7 1437.8,1855.3 1443.3,1851.4 1447.8,1846.2 1450.9,1839.8 1452.5,1832.8 1452.3,1825.3 1450.3,1818 1446.5,1811.2 1441,1805.5 1434.2,1801.1 1426.4,1798.4 1417.9,1797.7 1409.4,1799.1 1401.3,1802.5 1394.2,1807.9 1388.4,1815 1384.4,1823.5 1382.6,1832.8" fill="none" stroke="#dcd3c2" stroke-width="9.9" stroke-linecap="round" stroke-linejoin="round"/><polyline points="1529.8,1832.8 1529.2,1833.5 1528.8,1834.5 1528.8,1835.8 1529.2,1837.1 1530.1,1838.3 1531.4,1839.4 1533.1,1840.1 1535.1,1840.3 1537.2,1840 1539.3,1839.1 1541.3,1837.5 1542.8,1835.4 1543.9,1832.8 1544.2,1829.8 1543.8,1826.7 1542.6,1823.6 1540.5,1820.8 1537.6,1818.5 1534.1,1816.9 1530.2,1816.2 1526,1816.5 1521.9,1817.8 1518.1,1820.3 1514.9,1823.7 1512.5,1827.9 1511.2,1832.8 1511.1,1838 1512.3,1843.2 1514.9,1848.1 1518.7,1852.4 1523.5,1855.7 1529.2,1857.9 1535.3,1858.6 1541.7,1857.7 1547.8,1855.3 1553.3,1851.4 1557.8,1846.2 1560.9,1839.8 1562.5,1832.8 1562.3,1825.3 1560.3,1818 1556.5,1811.2 1551,1805.5 1544.2,1801.1 1536.4,1798.4 1527.9,1797.7 1519.4,1799.1 1511.3,1802.5 1504.2,1807.9 1498.4,1815 1494.4,1823.5 1492.6,1832.8" fill="none" stroke="#dcd3c2" stroke-width="9.9" stroke-linecap="round" stroke-linejoin="round"/><polyline points="1639.8,1832.8 1639.2,1833.5 1638.8,1834.5 1638.8,1835.8 1639.2,1837.1 1640.1,1838.3 1641.4,1839.4 1643.1,1840.1 1645.1,1840.3 1647.2,1840 1649.3,1839.1 1651.3,1837.5 1652.8,1835.4 1653.9,1832.8 1654.2,1829.8 1653.8,1826.7 1652.6,1823.6 1650.5,1820.8 1647.6,1818.5 1644.1,1816.9 1640.2,1816.2 1636,1816.5 1631.9,1817.8 1628.1,1820.3 1624.9,1823.7 1622.5,1827.9 1621.2,1832.8 1621.1,1838 1622.3,1843.2 1624.9,1848.1 1628.7,1852.4 1633.5,1855.7 1639.2,1857.9 1645.3,1858.6 1651.7,1857.7 1657.8,1855.3 1663.3,1851.4 1667.8,1846.2 1670.9,1839.8 1672.5,1832.8 1672.3,1825.3 1670.3,1818 1666.5,1811.2 1661,1805.5 1654.2,1801.1 1646.4,1798.4 1637.9,1797.7 1629.4,1799.1 1621.3,1802.5 1614.2,1807.9 1608.4,1815 1604.4,1823.5 1602.6,1832.8" fill="none" stroke="#dcd3c2" stroke-width="9.9" stroke-linecap="round" stroke-linejoin="round"/><line x1="680.9" y1="1945.6" x2="1719.1" y2="1945.6" stroke="#dcd3c2" stroke-width="10"/><path d="M727.5,2290 L795,2140 L862.5,2290 Z M862.5,2290 L930,2140 L997.5,2290 Z M997.5,2290 L1065,2140 L1132.5,2290 Z M1132.5,2290 L1200,2140 L1267.5,2290 Z M1267.5,2290 L1335,2140 L1402.5,2290 Z M1402.5,2290 L1470,2140 L1537.5,2290 Z M1537.5,2290 L1605,2140 L1672.5,2290 Z " fill="#dcd3c2"/><polyline points="1113.8,882.6 1171.3,828.6 1228.7,882.6 1286.2,828.6 " fill="none" stroke="#dcd3c2" stroke-width="9.7" stroke-linejoin="miter"/></g><rect x="104" y="104" width="2192" height="2792" fill="none" stroke="#41586a" stroke-width="16" opacity="0.85"/><rect x="150" y="150" width="2100" height="2700" fill="none" stroke="#41586a" stroke-width="4" opacity="0.55"/></g><rect width="2400" height="3000" filter="url(#a2-mottle)" style="mix-blend-mode:multiply" opacity="0.5"/><rect width="2400" height="3000" filter="url(#a2-fade)" style="mix-blend-mode:screen" opacity="0.55"/><rect width="2400" height="3000" filter="url(#a2-grain)" style="mix-blend-mode:multiply" opacity="0.32"/><ellipse cx="1470.5" cy="965.4" rx="210.2" ry="192.7" fill="#6b4a22" opacity="0.054" filter="url(#a2-blur9)"/><ellipse cx="1527.8" cy="1029.8" rx="253.2" ry="186.7" fill="#6b4a22" opacity="0.055" filter="url(#a2-blur9)"/><ellipse cx="803.4" cy="2494.9" rx="147.9" ry="139.4" fill="#6b4a22" opacity="0.044" filter="url(#a2-blur9)"/><ellipse cx="1233.4" cy="1572.1" rx="236.1" ry="146.9" fill="#6b4a22" opacity="0.044" filter="url(#a2-blur9)"/><ellipse cx="1930.6" cy="2390" rx="325.5" ry="201.4" fill="#6b4a22" opacity="0.068" filter="url(#a2-blur9)"/><ellipse cx="2032.6" cy="1568" rx="90.9" ry="85" fill="#6b4a22" opacity="0.050" filter="url(#a2-blur9)"/><polyline points="1712.7,219 1779,131.1 1764.5,45.5 1678.2,-50.4 1666.7,-99.4 1658.4,-212.2 1725.8,-311.3 1696.5,-452.7 1647.4,-587.9 1559.6,-706.7 1495.9,-748.6 1409.6,-726.6 1357.6,-732.1" fill="none" stroke="#2e2116" stroke-width="3.2" opacity="0.25" stroke-linejoin="round"/><polyline points="1712.7,219 1779,131.1 1764.5,45.5 1678.2,-50.4 1666.7,-99.4 1658.4,-212.2 1725.8,-311.3 1696.5,-452.7 1647.4,-587.9 1559.6,-706.7 1495.9,-748.6 1409.6,-726.6 1357.6,-732.1" fill="none" stroke="#fff8ea" stroke-width="2.2" opacity="0.16" transform="translate(2.5 2.5)" stroke-linejoin="round"/><polyline points="514.9,548.9 376.6,521 314.1,562.2 228.3,605.7 195.4,732 189.3,839.2 196.8,924.8 307.3,1013.1 408.2,1088.7 488.2,1121.6" fill="none" stroke="#2e2116" stroke-width="2.5" opacity="0.17" stroke-linejoin="round"/><polyline points="514.9,548.9 376.6,521 314.1,562.2 228.3,605.7 195.4,732 189.3,839.2 196.8,924.8 307.3,1013.1 408.2,1088.7 488.2,1121.6" fill="none" stroke="#fff8ea" stroke-width="1.8" opacity="0.16" transform="translate(2.5 2.5)" stroke-linejoin="round"/><polyline points="1966.1,2216.8 1869.6,2165.3 1786.7,2122.6 1698.5,2100 1645.7,2057.5 1555.3,2021.5 1488.4,2051.9 1464.3,2142.3 1437.4,2267.4 1403,2359.2 1349.7,2424.8 1356.1,2482.9" fill="none" stroke="#2e2116" stroke-width="2.2" opacity="0.28" stroke-linejoin="round"/><polyline points="1966.1,2216.8 1869.6,2165.3 1786.7,2122.6 1698.5,2100 1645.7,2057.5 1555.3,2021.5 1488.4,2051.9 1464.3,2142.3 1437.4,2267.4 1403,2359.2 1349.7,2424.8 1356.1,2482.9" fill="none" stroke="#fff8ea" stroke-width="1.5" opacity="0.12" transform="translate(2.5 2.5)" stroke-linejoin="round"/><polyline points="434.6,2194.9 394.1,2085.5 358.3,2049 356.4,1988 422.6,1929.2 471.4,1799.4 439.9,1676.6 387.1,1628.4" fill="none" stroke="#2e2116" stroke-width="2.4" opacity="0.19" stroke-linejoin="round"/><polyline points="434.6,2194.9 394.1,2085.5 358.3,2049 356.4,1988 422.6,1929.2 471.4,1799.4 439.9,1676.6 387.1,1628.4" fill="none" stroke="#fff8ea" stroke-width="1.7" opacity="0.12" transform="translate(2.5 2.5)" stroke-linejoin="round"/><polyline points="439.3,826.6 413.4,935.3 361.2,1061.8 318.3,1119 174.5,1154.4 77.4,1181.3 -5.9,1144.3" fill="none" stroke="#2e2116" stroke-width="3" opacity="0.30" stroke-linejoin="round"/><polyline points="439.3,826.6 413.4,935.3 361.2,1061.8 318.3,1119 174.5,1154.4 77.4,1181.3 -5.9,1144.3" fill="none" stroke="#fff8ea" stroke-width="2.1" opacity="0.11" transform="translate(2.5 2.5)" stroke-linejoin="round"/><polyline points="231.9,2199.4 215.2,2319 265.7,2391 337.3,2398.4 381.1,2447.6 463.7,2503.1 541.4,2508.8 640.1,2478.3 706.2,2458.7" fill="none" stroke="#2e2116" stroke-width="4.5" opacity="0.18" stroke-linejoin="round"/><polyline points="231.9,2199.4 215.2,2319 265.7,2391 337.3,2398.4 381.1,2447.6 463.7,2503.1 541.4,2508.8 640.1,2478.3 706.2,2458.7" fill="none" stroke="#fff8ea" stroke-width="3.1" opacity="0.16" transform="translate(2.5 2.5)" stroke-linejoin="round"/><polyline points="923.1,1536.9 895,1582.4 843.3,1636.6 821.7,1694.6 730,1755.9 635.6,1755.9 525.4,1794.2 465.9,1894.5 371.2,1965.8" fill="none" stroke="#2e2116" stroke-width="2.9" opacity="0.21" stroke-linejoin="round"/><polyline points="923.1,1536.9 895,1582.4 843.3,1636.6 821.7,1694.6 730,1755.9 635.6,1755.9 525.4,1794.2 465.9,1894.5 371.2,1965.8" fill="none" stroke="#fff8ea" stroke-width="2" opacity="0.13" transform="translate(2.5 2.5)" stroke-linejoin="round"/><polyline points="742.6,1411.7 660.9,1295.5 605.5,1214.2 556.5,1156.3 560.4,1035.8 519.2,942.4 489.9,871.1 508.8,799.9" fill="none" stroke="#2e2116" stroke-width="3" opacity="0.20" stroke-linejoin="round"/><polyline points="742.6,1411.7 660.9,1295.5 605.5,1214.2 556.5,1156.3 560.4,1035.8 519.2,942.4 489.9,871.1 508.8,799.9" fill="none" stroke="#fff8ea" stroke-width="2.1" opacity="0.12" transform="translate(2.5 2.5)" stroke-linejoin="round"/><path d="M1830.7,484 Q1823.9,500.3 1793.5,524.6 Q1763,548.8 1750.3,520.4 Q1737.6,492 1724.2,470 Q1710.8,448 1739.4,423.7 Q1768,399.3 1794.7,412.2 Q1821.4,425.1 1829.5,446.4 Q1837.6,467.7 1830.7,484 Z" fill="#dcd3c2" opacity="0.90"/><path d="M1862.7,2541.2 Q1849.7,2564.6 1831,2587.3 Q1812.2,2610 1793.1,2583.4 Q1774.1,2556.8 1774,2516.1 Q1773.9,2475.4 1791.9,2470.9 Q1809.9,2466.3 1828.3,2465.1 Q1846.6,2463.9 1861.1,2490.8 Q1875.6,2517.8 1862.7,2541.2 Z" fill="#dcd3c2" opacity="0.87"/><path d="M432.5,2100.3 Q397.9,2112 353.2,2114.2 Q308.6,2116.4 284.7,2107.9 Q260.9,2099.5 246.1,2090.1 Q231.2,2080.7 267.3,2072.2 Q303.4,2063.8 351,2069.1 Q398.6,2074.5 432.8,2081.5 Q467.1,2088.5 432.5,2100.3 Z" fill="#dcd3c2" opacity="0.84"/><path d="M992.4,1601.2 Q974.2,1614.1 943.7,1612.5 Q913.3,1610.9 886.5,1607 Q859.8,1603.2 863.4,1588.1 Q866.9,1573.1 887.2,1564 Q907.5,1554.8 942.8,1563.6 Q978.1,1572.4 994.4,1580.3 Q1010.7,1588.2 992.4,1601.2 Z" fill="#dcd3c2" opacity="0.92"/><rect width="2400" height="3000" fill="url(#a2-vig)"/></svg></svg>