<svg xmlns="http://www.w3.org/2000/svg" width="2400" height="1800" viewBox="0 0 2400 1800"><rect width="2400" height="1800" fill="#e9e1d2"/><rect y="1430" width="2400" height="370" fill="#c8b190"/><line x1="120" y1="1430" x2="60" y2="1800" stroke="#00000018" stroke-width="6"/><line x1="380" y1="1430" x2="320" y2="1800" stroke="#00000018" stroke-width="6"/><line x1="640" y1="1430" x2="580" y2="1800" stroke="#00000018" stroke-width="6"/><line x1="900" y1="1430" x2="840" y2="1800" stroke="#00000018" stroke-width="6"/><line x1="1160" y1="1430" x2="1100" y2="1800" stroke="#00000018" stroke-width="6"/><line x1="1420" y1="1430" x2="1360" y2="1800" stroke="#00000018" stroke-width="6"/><line x1="1680" y1="1430" x2="1620" y2="1800" stroke="#00000018" stroke-width="6"/><line x1="1940" y1="1430" x2="1880" y2="1800" stroke="#00000018" stroke-width="6"/><line x1="2200" y1="1430" x2="2140" y2="1800" stroke="#00000018" stroke-width="6"/><rect y="1418" width="2400" height="16" fill="#d7cbb6"/><rect x="700" y="980" width="1000" height="460" rx="26" fill="#a87e57"/><rect x="660" y="1290" width="1080" height="210" rx="30" fill="#f1ebdf"/><rect x="660" y="1420" width="1080" height="120" rx="24" fill="#8a5a33" opacity="0.85"/><rect x="770" y="1180" width="300" height="150" rx="40" fill="#faf6ec"/><rect x="1330" y="1180" width="300" height="150" rx="40" fill="#b8a483"/><rect x="640" y="1530" width="1120" height="26" rx="12" fill="#a87e57"/><rect x="360" y="1260" width="240" height="220" rx="10" fill="#a87e57"/><rect x="380" y="1300" width="200" height="14" fill="#00000022"/><line x1="480" y1="1260" x2="480" y2="1130" stroke="#5a4632" stroke-width="12"/><path d="M410,1130 L550,1130 L520,1020 L440,1020 Z" fill="#8a5a33"/><path d="M2060,1520 Q 1910,1282.5 1835,1345" fill="none" stroke="#5d7052" stroke-width="20" stroke-linecap="round"/><path d="M2060,1520 Q 1960,1282.5 1910,1295" fill="none" stroke="#5d7052" stroke-width="20" stroke-linecap="round"/><path d="M2060,1520 Q 2010,1282.5 1985,1245" fill="none" stroke="#5d7052" stroke-width="20" stroke-linecap="round"/><path d="M2060,1520 Q 2060,1282.5 2060,1195" fill="none" stroke="#5d7052" stroke-width="20" stroke-linecap="round"/><path d="M2060,1520 Q 2110,1282.5 2135,1245" fill="none" stroke="#5d7052" stroke-width="20" stroke-linecap="round"/><path d="M2060,1520 Q 2160,1282.5 2210,1295" fill="none" stroke="#5d7052" stroke-width="20" stroke-linecap="round"/><path d="M2060,1520 Q 2210,1282.5 2285,1345" fill="none" stroke="#5d7052" stroke-width="20" stroke-linecap="round"/><path d="M1972.5,1520 L2147.5,1520 L2125,1657.5 L1995,1657.5 Z" fill="#a9714d"/><defs><filter id="a51b-sh" x="-30%" y="-30%" width="160%" height="160%"><feGaussianBlur stdDeviation="16"/></filter></defs><rect x="928" y="246" width="572" height="702" fill="#000" opacity="0.28" filter="url(#a51b-sh)"/><rect x="914" y="224" width="572" height="702" fill="#4a3d2f"/><rect x="930.9" y="240.9" width="538.2" height="668.2" fill="none" stroke="#00000055" stroke-width="3"/><rect x="940" y="250" width="520" height="650" fill="#f6f2ea"/><svg x="979" y="289" width="442" height="572" viewBox="0 0 2400 3000" preserveAspectRatio="xMidYMid slice"><filter id="a51-warp" x="-4%" y="-4%" width="108%" height="108%"><feTurbulence type="fractalNoise" baseFrequency="0.0105" numOctaves="2" seed="265" result="w"/><feDisplacementMap in="SourceGraphic" in2="w" scale="7" xChannelSelector="R" yChannelSelector="G"/></filter><filter id="a51-grain" x="0%" y="0%" width="100%" height="100%"><feTurbulence type="fractalNoise" baseFrequency="0.6" numOctaves="2" seed="272"/><feColorMatrix type="matrix" values="0.33 0.33 0.33 0 0.62  0.33 0.33 0.33 0 0.62  0.33 0.33 0.33 0 0.62  0 0 0 0 1"/></filter><filter id="a51-mottle" x="0%" y="0%" width="100%" height="100%"><feTurbulence type="fractalNoise" baseFrequency="0.0045" numOctaves="3" seed="278"/><feColorMatrix type="matrix" values="0.2 0.2 0.2 0 0.78  0.2 0.2 0.2 0 0.78  0.2 0.2 0.2 0 0.78  0 0 0 0 1"/></filter><filter id="a51-fade" x="0%" y="0%" width="100%" height="100%"><feTurbulence type="fractalNoise" baseFrequency="0.006" numOctaves="2" seed="294"/><feColorMatrix type="matrix" values="0.3 0.3 0.3 0 -0.08  0.3 0.3 0.3 0 -0.08  0.3 0.3 0.3 0 -0.1  0 0 0 0 1"/></filter><filter id="a51-blur9"><feGaussianBlur stdDeviation="9"/></filter><radialGradient id="a51-vig" cx="50%" cy="44%" r="78%"><stop offset="52%" stop-color="#241a10" stop-opacity="0"/><stop offset="100%" stop-color="#241a10" stop-opacity="0.17"/></radialGradient><radialGradient id="a51-warm" cx="55%" cy="30%" r="85%"><stop offset="0%" stop-color="#e8c890" stop-opacity="0.14"/><stop offset="70%" stop-color="#e8c890" stop-opacity="0"/></radialGradient><rect width="2400" height="3000" fill="#ece2cb"/><rect width="2400" height="3000" fill="url(#a51-warm)"/><g filter="url(#a51-warp)"><path d="M1981,1825.3 Q1937.2,2130.7 1706.3,2370 Q1475.4,2609.3 1206.3,2604 Q937.3,2598.7 735.4,2350.3 Q533.4,2102 463.8,1811 Q394.2,1520 423.9,1184.5 Q453.7,849 691,678.9 Q928.2,508.7 1201.8,460.8 Q1475.5,412.8 1671.9,624.9 Q1868.4,837.1 1946.7,1178.5 Q2024.9,1520 1981,1825.3 Z" fill="#b8a483" stroke="#453521" stroke-width="10"/><clipPath id="a51-st"><path d="M1981,1825.3 Q1937.2,2130.7 1706.3,2370 Q1475.4,2609.3 1206.3,2604 Q937.3,2598.7 735.4,2350.3 Q533.4,2102 463.8,1811 Q394.2,1520 423.9,1184.5 Q453.7,849 691,678.9 Q928.2,508.7 1201.8,460.8 Q1475.5,412.8 1671.9,624.9 Q1868.4,837.1 1946.7,1178.5 Q2024.9,1520 1981,1825.3 Z"/></clipPath><g clip-path="url(#a51-st)"><polyline points="1200,1572.3 1203.6,1574.7 1208.3,1575.9 1213.7,1575.6 1219.4,1573.5 1224.7,1569.6 1229.1,1563.8 1231.9,1556.4 1232.8,1548 1231.4,1538.9 1227.4,1530 1220.8,1521.8 1211.8,1515.2 1200.9,1510.9 1188.6,1509.3 1175.6,1510.9 1162.8,1516 1151.1,1524.5 1141.4,1536 1134.6,1550.3 1131.3,1566.4 1132.1,1583.4 1137.3,1600.5 1146.8,1616.3 1160.3,1629.8 1177.2,1640 1196.8,1645.9 1217.9,1647 1239.3,1642.8 1259.7,1633.2 1277.7,1618.6 1292,1599.6 1301.6,1577 1305.5,1552.2 1303.3,1526.4 1294.8,1501.3 1280.1,1478.4 1259.8,1459.3 1235,1445.2 1206.8,1437.4 1176.9,1436.5 1147,1442.9 1118.9,1456.7 1094.5,1477.2 1075.2,1503.5 1062.6,1534.3 1057.6,1567.9 1060.8,1602.4 1072.5,1635.7 1092.1,1665.9 1118.9,1690.9 1151.5,1709.1 1188.2,1719.2 1226.9,1720.3 1265.4,1711.9 1301.3,1694.2 1332.6,1668 1357,1634.6 1373,1595.7 1379.4,1553.4 1375.4,1510.1 1360.9,1468.4 1336.6,1430.8 1303.4,1399.6 1263.2,1377 1218.1,1364.3 1170.6,1362.8 1123.5,1372.9 1079.5,1394.2" fill="none" stroke="#453521" stroke-width="22" stroke-linecap="round" stroke-linejoin="round"/><polyline points="990.2,1208.8 989.9,1204.5 991.2,1199.8 994.1,1195.3 998.8,1191.5 1004.9,1188.8 1012.1,1187.9 1019.9,1189.1 1027.6,1192.6 1034.8,1198.4 1040.5,1206.3 1044.3,1216.1 1045.5,1227.1 1043.8,1238.8 1039,1250.3 1031.1,1260.7 1020.3,1269.2 1007.1,1275.1 992.3,1277.7 976.5,1276.5 961,1271.3 946.6,1262.1 934.4,1249.1 925.4,1233 920.5,1214.5 920.2,1194.7 924.8,1174.8 934.4,1156 948.8,1139.6 967.2,1126.7 988.9,1118.4 1012.5,1115.5 1036.8,1118.5 1060.3,1127.5 1081.6,1142.3 1099,1162.3 1111.5,1186.4 1118,1213.6 1117.7,1242.1 1110.4,1270.4 1096.2,1296.8 1075.7,1319.4 1049.8,1336.9 1019.8,1347.8 987.3,1351.3 954.3,1346.9 922.8,1334.4 894.5,1314.3 871.5,1287.6 855.2,1255.5 846.9,1219.7 847.4,1182.4 857,1145.6 875.5,1111.6 902,1082.5 935.3,1060.1 973.5,1046.2 1014.7,1041.7 1056.4,1047.3 1096.2,1063 1131.7,1088.1 1160.6,1121.4 1181,1161.3 1191.4,1205.6 1191,1251.8 1179.3,1297.1 1156.9,1339 1124.6,1374.8 1084.2,1402.3" fill="none" stroke="#453521" stroke-width="22" stroke-linecap="round" stroke-linejoin="round"/><polyline points="1409.8,1208.8 1410.1,1204.5 1408.8,1199.8 1405.9,1195.3 1401.2,1191.5 1395.1,1188.8 1387.9,1187.9 1380.1,1189.1 1372.4,1192.6 1365.2,1198.4 1359.5,1206.3 1355.7,1216.1 1354.5,1227.1 1356.2,1238.8 1361,1250.3 1368.9,1260.7 1379.7,1269.2 1392.9,1275.1 1407.7,1277.7 1423.5,1276.5 1439,1271.3 1453.4,1262.1 1465.6,1249.1 1474.6,1233 1479.5,1214.5 1479.8,1194.7 1475.2,1174.8 1465.6,1156 1451.2,1139.6 1432.8,1126.7 1411.1,1118.4 1387.5,1115.5 1363.2,1118.5 1339.7,1127.5 1318.4,1142.3 1301,1162.3 1288.5,1186.4 1282,1213.6 1282.3,1242.1 1289.6,1270.4 1303.8,1296.8 1324.3,1319.4 1350.2,1336.9 1380.2,1347.8 1412.7,1351.3 1445.7,1346.9 1477.2,1334.4 1505.5,1314.3 1528.5,1287.6 1544.8,1255.5 1553.1,1219.7 1552.6,1182.4 1543,1145.6 1524.5,1111.6 1498,1082.5 1464.7,1060.1 1426.5,1046.2 1385.3,1041.7 1343.6,1047.3 1303.8,1063 1268.3,1088.1 1239.4,1121.4 1219,1161.3 1208.6,1205.6 1209,1251.8 1220.7,1297.1 1243.1,1339 1275.4,1374.8 1315.8,1402.3" fill="none" stroke="#453521" stroke-width="22" stroke-linecap="round" stroke-linejoin="round"/><polyline points="1410.7,1928.9 1412.4,1928.5 1414,1927.4 1415.4,1925.7 1416.3,1923.4 1416.5,1920.7 1415.8,1917.7 1414.2,1914.9 1411.7,1912.3 1408.4,1910.4 1404.4,1909.4 1400,1909.4 1395.5,1910.6 1391.2,1913.1 1387.4,1916.8 1384.6,1921.6 1383,1927.2 1382.8,1933.3 1384.2,1939.6 1387.2,1945.6 1391.9,1950.9 1397.9,1955 1405.1,1957.6 1412.9,1958.4 1421.1,1957.2 1428.9,1954 1436,1948.7 1441.7,1941.6 1445.7,1933.1 1447.5,1923.6 1446.9,1913.6 1443.8,1903.8 1438.3,1894.8 1430.5,1887.2 1420.9,1881.5 1409.9,1878.3 1398.1,1877.8 1386.3,1880.3 1375.2,1885.7 1365.5,1893.8 1357.8,1904.3 1352.8,1916.6 1350.9,1930 1352.3,1943.8 1357.2,1957.1 1365.2,1969.1 1376.2,1978.9 1389.4,1986 1404.3,1989.8 1420,1989.8 1435.4,1986 1449.8,1978.4 1462.1,1967.4 1471.6,1953.5 1477.5,1937.4 1479.4,1920.1 1477.1,1902.5 1470.4,1885.8" fill="none" stroke="#453521" stroke-width="14" stroke-linecap="round" stroke-linejoin="round"/><polyline points="1168.4,2148.8 1170.5,2148.7 1172.6,2147.8 1174.6,2146.1 1176.1,2143.7 1176.9,2140.5 1176.8,2137 1175.6,2133.3 1173.3,2129.8 1169.8,2126.9 1165.5,2124.8 1160.3,2123.8 1154.8,2124.2 1149.2,2126.2 1144.1,2129.6 1139.7,2134.6 1136.6,2140.7 1135,2147.8 1135.2,2155.4 1137.5,2163.1 1141.7,2170.2 1147.8,2176.4 1155.6,2181 1164.5,2183.6 1174.2,2184 1184.1,2182 1193.4,2177.4 1201.7,2170.5 1208.1,2161.4 1212.3,2150.8 1213.9,2139.1 1212.5,2127 1208,2115.3 1200.7,2104.7 1190.7,2096 1178.6,2089.9 1165.1,2086.7 1150.8,2087 1136.7,2090.8 1123.6,2098.1 1112.4,2108.6 1103.9,2121.8 1098.7,2136.9 1097.3,2153.3 1100,2169.8 1106.7,2185.5 1117.3,2199.4 1131.1,2210.6 1147.6,2218.2 1165.8,2221.7 1184.6,2220.6 1203,2215 1219.7,2204.9 1233.8,2190.8 1244.2,2173.5 1250.3,2153.7 1251.4,2132.8 1247.4,2111.9" fill="none" stroke="#453521" stroke-width="14" stroke-linecap="round" stroke-linejoin="round"/><polyline points="846.7,2003.7 845.4,2004.3 843.8,2004.4 842.1,2003.9 840.4,2002.9 838.9,2001.2 837.9,1998.9 837.6,1996.3 838,1993.4 839.2,1990.5 841.3,1987.9 844.2,1985.8 847.7,1984.4 851.8,1983.9 856,1984.5 860.2,1986.2 864,1989.1 867.1,1993 869.3,1997.8 870.2,2003.3 869.7,2009 867.8,2014.6 864.3,2019.8 859.6,2024.2 853.7,2027.3 847,2029 839.8,2029 832.6,2027.2 825.9,2023.5 820,2018.2 815.6,2011.4 812.8,2003.4 812,1994.9 813.4,1986.1 817,1977.7 822.6,1970.2 830.1,1964.2 839,1960.1 848.9,1958.2 859.2,1958.8 869.3,1961.9 878.5,1967.5 886.3,1975.4 892.1,1985.1 895.4,1996.1 896,2007.9 893.6,2019.7 888.4,2030.8 880.5,2040.5 870.3,2048.1 858.3,2053.1 845.2,2055.2 831.8,2053.9 818.8,2049.5 807.1,2041.8 797.4,2031.4 790.4,2018.8 786.6,2004.6" fill="none" stroke="#453521" stroke-width="14" stroke-linecap="round" stroke-linejoin="round"/><polyline points="1239.2,802 1238.5,803.3 1238.3,805 1238.6,806.8 1239.6,808.6 1241.3,810.2 1243.6,811.4 1246.3,812 1249.3,811.7 1252.3,810.7 1255.2,808.7 1257.6,805.8 1259.3,802.2 1260.1,798.1 1259.7,793.6 1258.2,789.2 1255.5,785 1251.6,781.5 1246.8,779 1241.3,777.7 1235.3,777.8 1229.3,779.4 1223.7,782.6 1218.8,787.2 1215.2,793.1 1213,800 1212.5,807.4 1213.9,815 1217.2,822.3 1222.4,828.7 1229.1,833.8 1237.2,837.2 1246,838.5 1255.2,837.7 1264.1,834.6 1272.3,829.2 1279,821.9 1283.9,812.9 1286.6,802.8 1286.7,792 1284.1,781.4 1278.9,771.4 1271.3,762.8 1261.6,756.1 1250.4,751.9 1238.2,750.6 1225.8,752.2 1213.9,756.9 1203.3,764.4 1194.7,774.5 1188.7,786.6 1185.7,800 1186,814.1 1189.8,827.8 1196.9,840.5 1207.1,851.2 1219.7,859.4 1234.2,864.3" fill="none" stroke="#453521" stroke-width="14" stroke-linecap="round" stroke-linejoin="round"/><polyline points="521.8,2450 556.5,2373.5 591.1,2450" fill="none" stroke="#453521" stroke-width="12.6"/><polyline points="620.8,2450 655.5,2373.5 690.1,2450" fill="none" stroke="#453521" stroke-width="12.6"/><polyline points="719.8,2450 754.5,2373.5 789.1,2450" fill="none" stroke="#453521" stroke-width="12.6"/><polyline points="818.9,2450 853.5,2373.5 888.1,2450" fill="none" stroke="#453521" stroke-width="12.6"/><polyline points="917.9,2450 952.5,2373.5 987.1,2450" fill="none" stroke="#453521" stroke-width="12.6"/><polyline points="1016.9,2450 1051.5,2373.5 1086.2,2450" fill="none" stroke="#453521" stroke-width="12.6"/><polyline points="1115.8,2450 1150.5,2373.5 1185.2,2450" fill="none" stroke="#453521" stroke-width="12.6"/><polyline points="1214.8,2450 1249.5,2373.5 1284.2,2450" fill="none" stroke="#453521" stroke-width="12.6"/><polyline points="1313.8,2450 1348.5,2373.5 1383.2,2450" fill="none" stroke="#453521" stroke-width="12.6"/><polyline points="1412.8,2450 1447.5,2373.5 1482.2,2450" fill="none" stroke="#453521" stroke-width="12.6"/><polyline points="1511.8,2450 1546.5,2373.5 1581.2,2450" fill="none" stroke="#453521" stroke-width="12.6"/><polyline points="1610.8,2450 1645.5,2373.5 1680.2,2450" fill="none" stroke="#453521" stroke-width="12.6"/><polyline points="1709.8,2450 1744.5,2373.5 1779.2,2450" fill="none" stroke="#453521" stroke-width="12.6"/><polyline points="1808.8,2450 1843.5,2373.5 1878.2,2450" fill="none" stroke="#453521" stroke-width="12.6"/></g><circle cx="390" cy="200" r="15.6" fill="#453521"/><circle cx="450" cy="200" r="15.6" fill="#453521"/><circle cx="510" cy="200" r="15.6" fill="#453521"/><circle cx="570" cy="200" r="15.6" fill="#453521"/><circle cx="630" cy="200" r="15.6" fill="#453521"/><circle cx="690" cy="200" r="15.6" fill="#453521"/><circle cx="750" cy="200" r="15.6" fill="#453521"/><circle cx="810" cy="200" r="15.6" fill="#453521"/><circle cx="870" cy="200" r="15.6" fill="#453521"/><circle cx="930" cy="200" r="15.6" fill="#453521"/><circle cx="990" cy="200" r="15.6" fill="#453521"/><circle cx="1050" cy="200" r="15.6" fill="#453521"/><circle cx="1110" cy="200" r="15.6" fill="#453521"/><circle cx="1170" cy="200" r="15.6" fill="#453521"/><circle cx="1230" cy="200" r="15.6" fill="#453521"/><circle cx="1290" cy="200" r="15.6" fill="#453521"/><circle cx="1350" cy="200" r="15.6" fill="#453521"/><circle cx="1410" cy="200" r="15.6" fill="#453521"/><circle cx="1470" cy="200" r="15.6" fill="#453521"/><circle cx="1530" cy="200" r="15.6" fill="#453521"/><circle cx="1590" cy="200" r="15.6" fill="#453521"/><circle cx="1650" cy="200" r="15.6" fill="#453521"/><circle cx="1710" cy="200" r="15.6" fill="#453521"/><circle cx="1770" cy="200" r="15.6" fill="#453521"/><circle cx="1830" cy="200" r="15.6" fill="#453521"/><circle cx="1890" cy="200" r="15.6" fill="#453521"/><circle cx="1950" cy="200" r="15.6" fill="#453521"/><circle cx="2010" cy="200" r="15.6" fill="#453521"/><circle cx="390" cy="2800" r="15.6" fill="#453521"/><circle cx="450" cy="2800" r="15.6" fill="#453521"/><circle cx="510" cy="2800" r="15.6" fill="#453521"/><circle cx="570" cy="2800" r="15.6" fill="#453521"/><circle cx="630" cy="2800" r="15.6" fill="#453521"/><circle cx="690" cy="2800" r="15.6" fill="#453521"/><circle cx="750" cy="2800" r="15.6" fill="#453521"/><circle cx="810" cy="2800" r="15.6" fill="#453521"/><circle cx="870" cy="2800" r="15.6" fill="#453521"/><circle cx="930" cy="2800" r="15.6" fill="#453521"/><circle cx="990" cy="2800" r="15.6" fill="#453521"/><circle cx="1050" cy="2800" r="15.6" fill="#453521"/><circle cx="1110" cy="2800" r="15.6" fill="#453521"/><circle cx="1170" cy="2800" r="15.6" fill="#453521"/><circle cx="1230" cy="2800" r="15.6" fill="#453521"/><circle cx="1290" cy="2800" r="15.6" fill="#453521"/><circle cx="1350" cy="2800" r="15.6" fill="#453521"/><circle cx="1410" cy="2800" r="15.6" fill="#453521"/><circle cx="1470" cy="2800" r="15.6" fill="#453521"/><circle cx="1530" cy="2800" r="15.6" fill="#453521"/><circle cx="1590" cy="2800" r="15.6" fill="#453521"/><circle cx="1650" cy="2800" r="15.6" fill="#453521"/><circle cx="1710" cy="2800" r="15.6" fill="#453521"/><circle cx="1770" cy="2800" r="15.6" fill="#453521"/><circle cx="1830" cy="2800" r="15.6" fill="#453521"/><circle cx="1890" cy="2800" r="15.6" fill="#453521"/><circle cx="1950" cy="2800" r="15.6" fill="#453521"/><circle cx="2010" cy="2800" r="15.6" fill="#453521"/><rect x="130" y="130" width="2140" height="2740" fill="none" stroke="#453521" stroke-width="5"/><rect x="152" y="152" width="2096" height="2696" fill="none" stroke="#453521" stroke-width="2.5" opacity="0.8"/></g><rect width="2400" height="3000" filter="url(#a51-mottle)" style="mix-blend-mode:multiply" opacity="0.5"/><rect width="2400" height="3000" filter="url(#a51-fade)" style="mix-blend-mode:screen" opacity="0.55"/><rect width="2400" height="3000" filter="url(#a51-grain)" style="mix-blend-mode:multiply" opacity="0.32"/><ellipse cx="702" cy="1286" rx="194.6" ry="186" fill="#6b4a22" opacity="0.046" filter="url(#a51-blur9)"/><ellipse cx="627.3" cy="2227.8" rx="336.6" ry="265.5" fill="#6b4a22" opacity="0.043" filter="url(#a51-blur9)"/><ellipse cx="1636.7" cy="2034.8" rx="236.6" ry="234.4" fill="#6b4a22" opacity="0.058" filter="url(#a51-blur9)"/><ellipse cx="361.9" cy="447.5" rx="242.6" ry="256" fill="#6b4a22" opacity="0.033" filter="url(#a51-blur9)"/><ellipse cx="2180.1" cy="2317.2" rx="292.6" ry="224.2" fill="#6b4a22" opacity="0.049" filter="url(#a51-blur9)"/><g opacity="0.3"><rect y="3" width="2400" height="2" fill="#ece2cb"/><rect y="11" width="2400" height="2" fill="#ece2cb"/><rect y="19" width="2400" height="2" fill="#ece2cb"/><rect y="27" width="2400" height="2" fill="#ece2cb"/><rect y="35" width="2400" height="2" fill="#ece2cb"/><rect y="43" width="2400" height="2" fill="#ece2cb"/><rect y="51" width="2400" height="2" fill="#ece2cb"/><rect y="59" width="2400" height="2" fill="#ece2cb"/><rect y="67" width="2400" height="2" fill="#ece2cb"/><rect y="75" width="2400" height="2" fill="#ece2cb"/><rect y="83" width="2400" height="2" fill="#ece2cb"/><rect y="91" width="2400" height="2" fill="#ece2cb"/><rect y="99" width="2400" height="2" fill="#ece2cb"/><rect y="107" width="2400" height="2" fill="#ece2cb"/><rect y="115" width="2400" height="2" fill="#ece2cb"/><rect y="123" width="2400" height="2" fill="#ece2cb"/><rect y="131" width="2400" height="2" fill="#ece2cb"/><rect y="139" width="2400" height="2" fill="#ece2cb"/><rect y="147" width="2400" height="2" fill="#ece2cb"/><rect y="155" width="2400" height="2" fill="#ece2cb"/><rect y="163" width="2400" height="2" fill="#ece2cb"/><rect y="171" width="2400" height="2" fill="#ece2cb"/><rect y="179" width="2400" height="2" fill="#ece2cb"/><rect y="187" width="2400" height="2" fill="#ece2cb"/><rect y="195" width="2400" height="2" fill="#ece2cb"/><rect y="203" width="2400" height="2" fill="#ece2cb"/><rect y="211" width="2400" height="2" fill="#ece2cb"/><rect y="219" width="2400" height="2" fill="#ece2cb"/><rect y="227" width="2400" height="2" fill="#ece2cb"/><rect y="235" width="2400" height="2" fill="#ece2cb"/><rect y="243" width="2400" height="2" fill="#ece2cb"/><rect y="251" width="2400" height="2" fill="#ece2cb"/><rect y="259" width="2400" height="2" fill="#ece2cb"/><rect y="267" width="2400" height="2" fill="#ece2cb"/><rect y="275" width="2400" height="2" fill="#ece2cb"/><rect y="283" width="2400" height="2" fill="#ece2cb"/><rect y="291" width="2400" height="2" fill="#ece2cb"/><rect y="299" width="2400" height="2" fill="#ece2cb"/><rect y="307" width="2400" height="2" fill="#ece2cb"/><rect y="315" width="2400" height="2" fill="#ece2cb"/><rect y="323" width="2400" height="2" fill="#ece2cb"/><rect y="331" width="2400" height="2" fill="#ece2cb"/><rect y="339" width="2400" height="2" fill="#ece2cb"/><rect y="347" width="2400" height="2" fill="#ece2cb"/><rect y="355" width="2400" height="2" fill="#ece2cb"/><rect y="363" width="2400" height="2" fill="#ece2cb"/><rect y="371" width="2400" height="2" fill="#ece2cb"/><rect y="379" width="2400" height="2" fill="#ece2cb"/><rect y="387" width="2400" height="2" fill="#ece2cb"/><rect y="395" width="2400" height="2" fill="#ece2cb"/><rect y="403" width="2400" height="2" fill="#ece2cb"/><rect y="411" width="2400" height="2" fill="#ece2cb"/><rect y="419" width="2400" height="2" fill="#ece2cb"/><rect y="427" width="2400" height="2" fill="#ece2cb"/><rect y="435" width="2400" height="2" fill="#ece2cb"/><rect y="443" width="2400" height="2" fill="#ece2cb"/><rect y="451" width="2400" height="2" fill="#ece2cb"/><rect y="459" width="2400" height="2" fill="#ece2cb"/><rect y="467" width="2400" height="2" fill="#ece2cb"/><rect y="475" width="2400" height="2" fill="#ece2cb"/><rect y="483" width="2400" height="2" fill="#ece2cb"/><rect y="491" width="2400" height="2" fill="#ece2cb"/><rect y="499" width="2400" height="2" fill="#ece2cb"/><rect y="507" width="2400" height="2" fill="#ece2cb"/><rect y="515" width="2400" height="2" fill="#ece2cb"/><rect y="523" width="2400" height="2" fill="#ece2cb"/><rect y="531" width="2400" height="2" fill="#ece2cb"/><rect y="539" width="2400" height="2" fill="#ece2cb"/><rect y="547" width="2400" height="2" fill="#ece2cb"/><rect y="555" width="2400" height="2" fill="#ece2cb"/><rect y="563" width="2400" height="2" fill="#ece2cb"/><rect y="571" width="2400" height="2" fill="#ece2cb"/><rect y="579" width="2400" height="2" fill="#ece2cb"/><rect y="587" width="2400" height="2" fill="#ece2cb"/><rect y="595" width="2400" height="2" fill="#ece2cb"/><rect y="603" width="2400" height="2" fill="#ece2cb"/><rect y="611" width="2400" height="2" fill="#ece2cb"/><rect y="619" width="2400" height="2" fill="#ece2cb"/><rect y="627" width="2400" height="2" fill="#ece2cb"/><rect y="635" width="2400" height="2" fill="#ece2cb"/><rect y="643" width="2400" height="2" fill="#ece2cb"/><rect y="651" width="2400" height="2" fill="#ece2cb"/><rect y="659" width="2400" height="2" fill="#ece2cb"/><rect y="667" width="2400" height="2" fill="#ece2cb"/><rect y="675" width="2400" height="2" fill="#ece2cb"/><rect y="683" width="2400" height="2" fill="#ece2cb"/><rect y="691" width="2400" height="2" fill="#ece2cb"/><rect y="699" width="2400" height="2" fill="#ece2cb"/><rect y="707" width="2400" height="2" fill="#ece2cb"/><rect y="715" width="2400" height="2" fill="#ece2cb"/><rect y="723" width="2400" height="2" fill="#ece2cb"/><rect y="731" width="2400" height="2" fill="#ece2cb"/><rect y="739" width="2400" height="2" fill="#ece2cb"/><rect y="747" width="2400" height="2" fill="#ece2cb"/><rect y="755" width="2400" height="2" fill="#ece2cb"/><rect y="763" width="2400" height="2" fill="#ece2cb"/><rect y="771" width="2400" height="2" fill="#ece2cb"/><rect y="779" width="2400" height="2" fill="#ece2cb"/><rect y="787" width="2400" height="2" fill="#ece2cb"/><rect y="795" width="2400" height="2" fill="#ece2cb"/><rect y="803" width="2400" height="2" fill="#ece2cb"/><rect y="811" width="2400" height="2" fill="#ece2cb"/><rect y="819" width="2400" height="2" fill="#ece2cb"/><rect y="827" width="2400" height="2" fill="#ece2cb"/><rect y="835" width="2400" height="2" fill="#ece2cb"/><rect y="843" width="2400" height="2" fill="#ece2cb"/><rect y="851" width="2400" height="2" fill="#ece2cb"/><rect y="859" width="2400" height="2" fill="#ece2cb"/><rect y="867" width="2400" height="2" fill="#ece2cb"/><rect y="875" width="2400" height="2" fill="#ece2cb"/><rect y="883" width="2400" height="2" fill="#ece2cb"/><rect y="891" width="2400" height="2" fill="#ece2cb"/><rect y="899" width="2400" height="2" fill="#ece2cb"/><rect y="907" width="2400" height="2" fill="#ece2cb"/><rect y="915" width="2400" height="2" fill="#ece2cb"/><rect y="923" width="2400" height="2" fill="#ece2cb"/><rect y="931" width="2400" height="2" fill="#ece2cb"/><rect y="939" width="2400" height="2" fill="#ece2cb"/><rect y="947" width="2400" height="2" fill="#ece2cb"/><rect y="955" width="2400" height="2" fill="#ece2cb"/><rect y="963" width="2400" height="2" fill="#ece2cb"/><rect y="971" width="2400" height="2" fill="#ece2cb"/><rect y="979" width="2400" height="2" fill="#ece2cb"/><rect y="987" width="2400" height="2" fill="#ece2cb"/><rect y="995" width="2400" height="2" fill="#ece2cb"/><rect y="1003" width="2400" height="2" fill="#ece2cb"/><rect y="1011" width="2400" height="2" fill="#ece2cb"/><rect y="1019" width="2400" height="2" fill="#ece2cb"/><rect y="1027" width="2400" height="2" fill="#ece2cb"/><rect y="1035" width="2400" height="2" fill="#ece2cb"/><rect y="1043" width="2400" height="2" fill="#ece2cb"/><rect y="1051" width="2400" height="2" fill="#ece2cb"/><rect y="1059" width="2400" height="2" fill="#ece2cb"/><rect y="1067" width="2400" height="2" fill="#ece2cb"/><rect y="1075" width="2400" height="2" fill="#ece2cb"/><rect y="1083" width="2400" height="2" fill="#ece2cb"/><rect y="1091" width="2400" height="2" fill="#ece2cb"/><rect y="1099" width="2400" height="2" fill="#ece2cb"/><rect y="1107" width="2400" height="2" fill="#ece2cb"/><rect y="1115" width="2400" height="2" fill="#ece2cb"/><rect y="1123" width="2400" height="2" fill="#ece2cb"/><rect y="1131" width="2400" height="2" fill="#ece2cb"/><rect y="1139" width="2400" height="2" fill="#ece2cb"/><rect y="1147" width="2400" height="2" fill="#ece2cb"/><rect y="1155" width="2400" height="2" fill="#ece2cb"/><rect y="1163" width="2400" height="2" fill="#ece2cb"/><rect y="1171" width="2400" height="2" fill="#ece2cb"/><rect y="1179" width="2400" height="2" fill="#ece2cb"/><rect y="1187" width="2400" height="2" fill="#ece2cb"/><rect y="1195" width="2400" height="2" fill="#ece2cb"/><rect y="1203" width="2400" height="2" fill="#ece2cb"/><rect y="1211" width="2400" height="2" fill="#ece2cb"/><rect y="1219" width="2400" height="2" fill="#ece2cb"/><rect y="1227" width="2400" height="2" fill="#ece2cb"/><rect y="1235" width="2400" height="2" fill="#ece2cb"/><rect y="1243" width="2400" height="2" fill="#ece2cb"/><rect y="1251" width="2400" height="2" fill="#ece2cb"/><rect y="1259" width="2400" height="2" fill="#ece2cb"/><rect y="1267" width="2400" height="2" fill="#ece2cb"/><rect y="1275" width="2400" height="2" fill="#ece2cb"/><rect y="1283" width="2400" height="2" fill="#ece2cb"/><rect y="1291" width="2400" height="2" fill="#ece2cb"/><rect y="1299" width="2400" height="2" fill="#ece2cb"/><rect y="1307" width="2400" height="2" fill="#ece2cb"/><rect y="1315" width="2400" height="2" fill="#ece2cb"/><rect y="1323" width="2400" height="2" fill="#ece2cb"/><rect y="1331" width="2400" height="2" fill="#ece2cb"/><rect y="1339" width="2400" height="2" fill="#ece2cb"/><rect y="1347" width="2400" height="2" fill="#ece2cb"/><rect y="1355" width="2400" height="2" fill="#ece2cb"/><rect y="1363" width="2400" height="2" fill="#ece2cb"/><rect y="1371" width="2400" height="2" fill="#ece2cb"/><rect y="1379" width="2400" height="2" fill="#ece2cb"/><rect y="1387" width="2400" height="2" fill="#ece2cb"/><rect y="1395" width="2400" height="2" fill="#ece2cb"/><rect y="1403" width="2400" height="2" fill="#ece2cb"/><rect y="1411" width="2400" height="2" fill="#ece2cb"/><rect y="1419" width="2400" height="2" fill="#ece2cb"/><rect y="1427" width="2400" height="2" fill="#ece2cb"/><rect y="1435" width="2400" height="2" fill="#ece2cb"/><rect y="1443" width="2400" height="2" fill="#ece2cb"/><rect y="1451" width="2400" height="2" fill="#ece2cb"/><rect y="1459" width="2400" height="2" fill="#ece2cb"/><rect y="1467" width="2400" height="2" fill="#ece2cb"/><rect y="1475" width="2400" height="2" fill="#ece2cb"/><rect y="1483" width="2400" height="2" fill="#ece2cb"/><rect y="1491" width="2400" height="2" fill="#ece2cb"/><rect y="1499" width="2400" height="2" fill="#ece2cb"/><rect y="1507" width="2400" height="2" fill="#ece2cb"/><rect y="1515" width="2400" height="2" fill="#ece2cb"/><rect y="1523" width="2400" height="2" fill="#ece2cb"/><rect y="1531" width="2400" height="2" fill="#ece2cb"/><rect y="1539" width="2400" height="2" fill="#ece2cb"/><rect y="1547" width="2400" height="2" fill="#ece2cb"/><rect y="1555" width="2400" height="2" fill="#ece2cb"/><rect y="1563" width="2400" height="2" fill="#ece2cb"/><rect y="1571" width="2400" height="2" fill="#ece2cb"/><rect y="1579" width="2400" height="2" fill="#ece2cb"/><rect y="1587" width="2400" height="2" fill="#ece2cb"/><rect y="1595" width="2400" height="2" fill="#ece2cb"/><rect y="1603" width="2400" height="2" fill="#ece2cb"/><rect y="1611" width="2400" height="2" fill="#ece2cb"/><rect y="1619" width="2400" height="2" fill="#ece2cb"/><rect y="1627" width="2400" height="2" fill="#ece2cb"/><rect y="1635" width="2400" height="2" fill="#ece2cb"/><rect y="1643" width="2400" height="2" fill="#ece2cb"/><rect y="1651" width="2400" height="2" fill="#ece2cb"/><rect y="1659" width="2400" height="2" fill="#ece2cb"/><rect y="1667" width="2400" height="2" fill="#ece2cb"/><rect y="1675" width="2400" height="2" fill="#ece2cb"/><rect y="1683" width="2400" height="2" fill="#ece2cb"/><rect y="1691" width="2400" height="2" fill="#ece2cb"/><rect y="1699" width="2400" height="2" fill="#ece2cb"/><rect y="1707" width="2400" height="2" fill="#ece2cb"/><rect y="1715" width="2400" height="2" fill="#ece2cb"/><rect y="1723" width="2400" height="2" fill="#ece2cb"/><rect y="1731" width="2400" height="2" fill="#ece2cb"/><rect y="1739" width="2400" height="2" fill="#ece2cb"/><rect y="1747" width="2400" height="2" fill="#ece2cb"/><rect y="1755" width="2400" height="2" fill="#ece2cb"/><rect y="1763" width="2400" height="2" fill="#ece2cb"/><rect y="1771" width="2400" height="2" fill="#ece2cb"/><rect y="1779" width="2400" height="2" fill="#ece2cb"/><rect y="1787" width="2400" height="2" fill="#ece2cb"/><rect y="1795" width="2400" height="2" fill="#ece2cb"/><rect y="1803" width="2400" height="2" fill="#ece2cb"/><rect y="1811" width="2400" height="2" fill="#ece2cb"/><rect y="1819" width="2400" height="2" fill="#ece2cb"/><rect y="1827" width="2400" height="2" fill="#ece2cb"/><rect y="1835" width="2400" height="2" fill="#ece2cb"/><rect y="1843" width="2400" height="2" fill="#ece2cb"/><rect y="1851" width="2400" height="2" fill="#ece2cb"/><rect y="1859" width="2400" height="2" fill="#ece2cb"/><rect y="1867" width="2400" height="2" fill="#ece2cb"/><rect y="1875" width="2400" height="2" fill="#ece2cb"/><rect y="1883" width="2400" height="2" fill="#ece2cb"/><rect y="1891" width="2400" height="2" fill="#ece2cb"/><rect y="1899" width="2400" height="2" fill="#ece2cb"/><rect y="1907" width="2400" height="2" fill="#ece2cb"/><rect y="1915" width="2400" height="2" fill="#ece2cb"/><rect y="1923" width="2400" height="2" fill="#ece2cb"/><rect y="1931" width="2400" height="2" fill="#ece2cb"/><rect y="1939" width="2400" height="2" fill="#ece2cb"/><rect y="1947" width="2400" height="2" fill="#ece2cb"/><rect y="1955" width="2400" height="2" fill="#ece2cb"/><rect y="1963" width="2400" height="2" fill="#ece2cb"/><rect y="1971" width="2400" height="2" fill="#ece2cb"/><rect y="1979" width="2400" height="2" fill="#ece2cb"/><rect y="1987" width="2400" height="2" fill="#ece2cb"/><rect y="1995" width="2400" height="2" fill="#ece2cb"/><rect y="2003" width="2400" height="2" fill="#ece2cb"/><rect y="2011" width="2400" height="2" fill="#ece2cb"/><rect y="2019" width="2400" height="2" fill="#ece2cb"/><rect y="2027" width="2400" height="2" fill="#ece2cb"/><rect y="2035" width="2400" height="2" fill="#ece2cb"/><rect y="2043" width="2400" height="2" fill="#ece2cb"/><rect y="2051" width="2400" height="2" fill="#ece2cb"/><rect y="2059" width="2400" height="2" fill="#ece2cb"/><rect y="2067" width="2400" height="2" fill="#ece2cb"/><rect y="2075" width="2400" height="2" fill="#ece2cb"/><rect y="2083" width="2400" height="2" fill="#ece2cb"/><rect y="2091" width="2400" height="2" fill="#ece2cb"/><rect y="2099" width="2400" height="2" fill="#ece2cb"/><rect y="2107" width="2400" height="2" fill="#ece2cb"/><rect y="2115" width="2400" height="2" fill="#ece2cb"/><rect y="2123" width="2400" height="2" fill="#ece2cb"/><rect y="2131" width="2400" height="2" fill="#ece2cb"/><rect y="2139" width="2400" height="2" fill="#ece2cb"/><rect y="2147" width="2400" height="2" fill="#ece2cb"/><rect y="2155" width="2400" height="2" fill="#ece2cb"/><rect y="2163" width="2400" height="2" fill="#ece2cb"/><rect y="2171" width="2400" height="2" fill="#ece2cb"/><rect y="2179" width="2400" height="2" fill="#ece2cb"/><rect y="2187" width="2400" height="2" fill="#ece2cb"/><rect y="2195" width="2400" height="2" fill="#ece2cb"/><rect y="2203" width="2400" height="2" fill="#ece2cb"/><rect y="2211" width="2400" height="2" fill="#ece2cb"/><rect y="2219" width="2400" height="2" fill="#ece2cb"/><rect y="2227" width="2400" height="2" fill="#ece2cb"/><rect y="2235" width="2400" height="2" fill="#ece2cb"/><rect y="2243" width="2400" height="2" fill="#ece2cb"/><rect y="2251" width="2400" height="2" fill="#ece2cb"/><rect y="2259" width="2400" height="2" fill="#ece2cb"/><rect y="2267" width="2400" height="2" fill="#ece2cb"/><rect y="2275" width="2400" height="2" fill="#ece2cb"/><rect y="2283" width="2400" height="2" fill="#ece2cb"/><rect y="2291" width="2400" height="2" fill="#ece2cb"/><rect y="2299" width="2400" height="2" fill="#ece2cb"/><rect y="2307" width="2400" height="2" fill="#ece2cb"/><rect y="2315" width="2400" height="2" fill="#ece2cb"/><rect y="2323" width="2400" height="2" fill="#ece2cb"/><rect y="2331" width="2400" height="2" fill="#ece2cb"/><rect y="2339" width="2400" height="2" fill="#ece2cb"/><rect y="2347" width="2400" height="2" fill="#ece2cb"/><rect y="2355" width="2400" height="2" fill="#ece2cb"/><rect y="2363" width="2400" height="2" fill="#ece2cb"/><rect y="2371" width="2400" height="2" fill="#ece2cb"/><rect y="2379" width="2400" height="2" fill="#ece2cb"/><rect y="2387" width="2400" height="2" fill="#ece2cb"/><rect y="2395" width="2400" height="2" fill="#ece2cb"/><rect y="2403" width="2400" height="2" fill="#ece2cb"/><rect y="2411" width="2400" height="2" fill="#ece2cb"/><rect y="2419" width="2400" height="2" fill="#ece2cb"/><rect y="2427" width="2400" height="2" fill="#ece2cb"/><rect y="2435" width="2400" height="2" fill="#ece2cb"/><rect y="2443" width="2400" height="2" fill="#ece2cb"/><rect y="2451" width="2400" height="2" fill="#ece2cb"/><rect y="2459" width="2400" height="2" fill="#ece2cb"/><rect y="2467" width="2400" height="2" fill="#ece2cb"/><rect y="2475" width="2400" height="2" fill="#ece2cb"/><rect y="2483" width="2400" height="2" fill="#ece2cb"/><rect y="2491" width="2400" height="2" fill="#ece2cb"/><rect y="2499" width="2400" height="2" fill="#ece2cb"/><rect y="2507" width="2400" height="2" fill="#ece2cb"/><rect y="2515" width="2400" height="2" fill="#ece2cb"/><rect y="2523" width="2400" height="2" fill="#ece2cb"/><rect y="2531" width="2400" height="2" fill="#ece2cb"/><rect y="2539" width="2400" height="2" fill="#ece2cb"/><rect y="2547" width="2400" height="2" fill="#ece2cb"/><rect y="2555" width="2400" height="2" fill="#ece2cb"/><rect y="2563" width="2400" height="2" fill="#ece2cb"/><rect y="2571" width="2400" height="2" fill="#ece2cb"/><rect y="2579" width="2400" height="2" fill="#ece2cb"/><rect y="2587" width="2400" height="2" fill="#ece2cb"/><rect y="2595" width="2400" height="2" fill="#ece2cb"/><rect y="2603" width="2400" height="2" fill="#ece2cb"/><rect y="2611" width="2400" height="2" fill="#ece2cb"/><rect y="2619" width="2400" height="2" fill="#ece2cb"/><rect y="2627" width="2400" height="2" fill="#ece2cb"/><rect y="2635" width="2400" height="2" fill="#ece2cb"/><rect y="2643" width="2400" height="2" fill="#ece2cb"/><rect y="2651" width="2400" height="2" fill="#ece2cb"/><rect y="2659" width="2400" height="2" fill="#ece2cb"/><rect y="2667" width="2400" height="2" fill="#ece2cb"/><rect y="2675" width="2400" height="2" fill="#ece2cb"/><rect y="2683" width="2400" height="2" fill="#ece2cb"/><rect y="2691" width="2400" height="2" fill="#ece2cb"/><rect y="2699" width="2400" height="2" fill="#ece2cb"/><rect y="2707" width="2400" height="2" fill="#ece2cb"/><rect y="2715" width="2400" height="2" fill="#ece2cb"/><rect y="2723" width="2400" height="2" fill="#ece2cb"/><rect y="2731" width="2400" height="2" fill="#ece2cb"/><rect y="2739" width="2400" height="2" fill="#ece2cb"/><rect y="2747" width="2400" height="2" fill="#ece2cb"/><rect y="2755" width="2400" height="2" fill="#ece2cb"/><rect y="2763" width="2400" height="2" fill="#ece2cb"/><rect y="2771" width="2400" height="2" fill="#ece2cb"/><rect y="2779" width="2400" height="2" fill="#ece2cb"/><rect y="2787" width="2400" height="2" fill="#ece2cb"/><rect y="2795" width="2400" height="2" fill="#ece2cb"/><rect y="2803" width="2400" height="2" fill="#ece2cb"/><rect y="2811" width="2400" height="2" fill="#ece2cb"/><rect y="2819" width="2400" height="2" fill="#ece2cb"/><rect y="2827" width="2400" height="2" fill="#ece2cb"/><rect y="2835" width="2400" height="2" fill="#ece2cb"/><rect y="2843" width="2400" height="2" fill="#ece2cb"/><rect y="2851" width="2400" height="2" fill="#ece2cb"/><rect y="2859" width="2400" height="2" fill="#ece2cb"/><rect y="2867" width="2400" height="2" fill="#ece2cb"/><rect y="2875" width="2400" height="2" fill="#ece2cb"/><rect y="2883" width="2400" height="2" fill="#ece2cb"/><rect y="2891" width="2400" height="2" fill="#ece2cb"/><rect y="2899" width="2400" height="2" fill="#ece2cb"/><rect y="2907" width="2400" height="2" fill="#ece2cb"/><rect y="2915" width="2400" height="2" fill="#ece2cb"/><rect y="2923" width="2400" height="2" fill="#ece2cb"/><rect y="2931" width="2400" height="2" fill="#ece2cb"/><rect y="2939" width="2400" height="2" fill="#ece2cb"/><rect y="2947" width="2400" height="2" fill="#ece2cb"/><rect y="2955" width="2400" height="2" fill="#ece2cb"/><rect y="2963" width="2400" height="2" fill="#ece2cb"/><rect y="2971" width="2400" height="2" fill="#ece2cb"/><rect y="2979" width="2400" height="2" fill="#ece2cb"/><rect y="2987" width="2400" height="2" fill="#ece2cb"/><rect y="2995" width="2400" height="2" fill="#ece2cb"/></g><rect x="88" y="88" width="2224" height="2824" fill="none" stroke="#3a2c1a" stroke-width="4" opacity="0.2"/><rect x="94" y="94" width="2212" height="2812" fill="none" stroke="#fff6e0" stroke-width="2" opacity="0.25"/><circle cx="1310.2" cy="1248.3" r="14.4" fill="#8a5a2e" opacity="0.080"/><circle cx="937.5" cy="2202.9" r="6.2" fill="#8a5a2e" opacity="0.119"/><circle cx="1814.5" cy="2741.2" r="13" fill="#8a5a2e" opacity="0.041"/><circle cx="2084.4" cy="712.4" r="6.4" fill="#8a5a2e" opacity="0.054"/><circle cx="1931.1" cy="412.8" r="10.2" fill="#8a5a2e" opacity="0.103"/><circle cx="971.6" cy="1867.7" r="14.7" fill="#8a5a2e" opacity="0.050"/><circle cx="183.9" cy="1890.1" r="7.9" fill="#8a5a2e" opacity="0.091"/><circle cx="1994.2" cy="2347.3" r="15.4" fill="#8a5a2e" opacity="0.126"/><circle cx="2263.2" cy="1755.1" r="7.4" fill="#8a5a2e" opacity="0.061"/><circle cx="134.9" cy="1279.1" r="9.3" fill="#8a5a2e" opacity="0.056"/><circle cx="1701.6" cy="2743.9" r="16" fill="#8a5a2e" opacity="0.128"/><circle cx="2092.6" cy="650.5" r="11.7" fill="#8a5a2e" opacity="0.083"/><circle cx="2116.4" cy="1035.5" r="11.6" fill="#8a5a2e" opacity="0.112"/><circle cx="649.6" cy="410.3" r="3.4" fill="#8a5a2e" opacity="0.112"/><circle cx="861" cy="2884.5" r="10.3" fill="#8a5a2e" opacity="0.106"/><circle cx="900.9" cy="1020.2" r="4.5" fill="#8a5a2e" opacity="0.115"/><circle cx="770" cy="2144.2" r="4" fill="#8a5a2e" opacity="0.124"/><circle cx="1230.4" cy="734" r="13.8" fill="#8a5a2e" opacity="0.127"/><circle cx="1274.3" cy="2447.8" r="8.6" fill="#8a5a2e" opacity="0.087"/><circle cx="430.2" cy="2834.8" r="12.7" fill="#8a5a2e" opacity="0.095"/><circle cx="596.8" cy="1084.1" r="10.8" fill="#8a5a2e" opacity="0.040"/><circle cx="2131.8" cy="2076.4" r="12.7" fill="#8a5a2e" opacity="0.084"/><circle cx="1276.8" cy="2560.2" r="5.4" fill="#8a5a2e" opacity="0.056"/><circle cx="1879.6" cy="1119.5" r="5.2" fill="#8a5a2e" opacity="0.063"/><circle cx="599" cy="2455.1" r="8" fill="#8a5a2e" opacity="0.082"/><circle cx="2261.2" cy="1457" r="10.2" fill="#8a5a2e" opacity="0.122"/><circle cx="1933.2" cy="1001.1" r="14.6" fill="#8a5a2e" opacity="0.129"/><rect width="2400" height="3000" fill="url(#a51-vig)"/></svg></svg>