<svg xmlns="http://www.w3.org/2000/svg" width="2400" height="1800" viewBox="0 0 2400 1800"><rect width="2400" height="1800" fill="#e9e1d2"/><rect y="1430" width="2400" height="370" fill="#c8b190"/><line x1="120" y1="1430" x2="60" y2="1800" stroke="#00000018" stroke-width="6"/><line x1="380" y1="1430" x2="320" y2="1800" stroke="#00000018" stroke-width="6"/><line x1="640" y1="1430" x2="580" y2="1800" stroke="#00000018" stroke-width="6"/><line x1="900" y1="1430" x2="840" y2="1800" stroke="#00000018" stroke-width="6"/><line x1="1160" y1="1430" x2="1100" y2="1800" stroke="#00000018" stroke-width="6"/><line x1="1420" y1="1430" x2="1360" y2="1800" stroke="#00000018" stroke-width="6"/><line x1="1680" y1="1430" x2="1620" y2="1800" stroke="#00000018" stroke-width="6"/><line x1="1940" y1="1430" x2="1880" y2="1800" stroke="#00000018" stroke-width="6"/><line x1="2200" y1="1430" x2="2140" y2="1800" stroke="#00000018" stroke-width="6"/><rect y="1418" width="2400" height="16" fill="#d7cbb6"/><rect x="700" y="980" width="1000" height="460" rx="26" fill="#a87e57"/><rect x="660" y="1290" width="1080" height="210" rx="30" fill="#f1ebdf"/><rect x="660" y="1420" width="1080" height="120" rx="24" fill="#8a5a33" opacity="0.85"/><rect x="770" y="1180" width="300" height="150" rx="40" fill="#faf6ec"/><rect x="1330" y="1180" width="300" height="150" rx="40" fill="#b8a483"/><rect x="640" y="1530" width="1120" height="26" rx="12" fill="#a87e57"/><rect x="360" y="1260" width="240" height="220" rx="10" fill="#a87e57"/><rect x="380" y="1300" width="200" height="14" fill="#00000022"/><line x1="480" y1="1260" x2="480" y2="1130" stroke="#5a4632" stroke-width="12"/><path d="M410,1130 L550,1130 L520,1020 L440,1020 Z" fill="#8a5a33"/><path d="M2060,1520 Q 1910,1282.5 1835,1345" fill="none" stroke="#5d7052" stroke-width="20" stroke-linecap="round"/><path d="M2060,1520 Q 1960,1282.5 1910,1295" fill="none" stroke="#5d7052" stroke-width="20" stroke-linecap="round"/><path d="M2060,1520 Q 2010,1282.5 1985,1245" fill="none" stroke="#5d7052" stroke-width="20" stroke-linecap="round"/><path d="M2060,1520 Q 2060,1282.5 2060,1195" fill="none" stroke="#5d7052" stroke-width="20" stroke-linecap="round"/><path d="M2060,1520 Q 2110,1282.5 2135,1245" fill="none" stroke="#5d7052" stroke-width="20" stroke-linecap="round"/><path d="M2060,1520 Q 2160,1282.5 2210,1295" fill="none" stroke="#5d7052" stroke-width="20" stroke-linecap="round"/><path d="M2060,1520 Q 2210,1282.5 2285,1345" fill="none" stroke="#5d7052" stroke-width="20" stroke-linecap="round"/><path d="M1972.5,1520 L2147.5,1520 L2125,1657.5 L1995,1657.5 Z" fill="#a9714d"/><defs><filter id="a59b-sh" x="-30%" y="-30%" width="160%" height="160%"><feGaussianBlur stdDeviation="16"/></filter></defs><rect x="928" y="246" width="572" height="702" fill="#000" opacity="0.28" filter="url(#a59b-sh)"/><rect x="914" y="224" width="572" height="702" fill="#4a3d2f"/><rect x="930.9" y="240.9" width="538.2" height="668.2" fill="none" stroke="#00000055" stroke-width="3"/><rect x="940" y="250" width="520" height="650" fill="#f6f2ea"/><svg x="979" y="289" width="442" height="572" viewBox="0 0 2400 3000" preserveAspectRatio="xMidYMid slice"><filter id="a59-warp" x="-4%" y="-4%" width="108%" height="108%"><feTurbulence type="fractalNoise" baseFrequency="0.0105" numOctaves="2" seed="5169" result="w"/><feDisplacementMap in="SourceGraphic" in2="w" scale="7" xChannelSelector="R" yChannelSelector="G"/></filter><filter id="a59-grain" x="0%" y="0%" width="100%" height="100%"><feTurbulence type="fractalNoise" baseFrequency="0.6" numOctaves="2" seed="5176"/><feColorMatrix type="matrix" values="0.33 0.33 0.33 0 0.62  0.33 0.33 0.33 0 0.62  0.33 0.33 0.33 0 0.62  0 0 0 0 1"/></filter><filter id="a59-mottle" x="0%" y="0%" width="100%" height="100%"><feTurbulence type="fractalNoise" baseFrequency="0.0045" numOctaves="3" seed="5182"/><feColorMatrix type="matrix" values="0.2 0.2 0.2 0 0.78  0.2 0.2 0.2 0 0.78  0.2 0.2 0.2 0 0.78  0 0 0 0 1"/></filter><filter id="a59-fade" x="0%" y="0%" width="100%" height="100%"><feTurbulence type="fractalNoise" baseFrequency="0.006" numOctaves="2" seed="5198"/><feColorMatrix type="matrix" values="0.3 0.3 0.3 0 -0.08  0.3 0.3 0.3 0 -0.08  0.3 0.3 0.3 0 -0.1  0 0 0 0 1"/></filter><filter id="a59-blur9"><feGaussianBlur stdDeviation="9"/></filter><radialGradient id="a59-vig" cx="50%" cy="44%" r="78%"><stop offset="52%" stop-color="#241a10" stop-opacity="0"/><stop offset="100%" stop-color="#241a10" stop-opacity="0.17"/></radialGradient><radialGradient id="a59-warm" cx="39%" cy="30%" r="85%"><stop offset="0%" stop-color="#e8c890" stop-opacity="0.14"/><stop offset="70%" stop-color="#e8c890" stop-opacity="0"/></radialGradient><rect width="2400" height="3000" fill="#ece2cb"/><rect width="2400" height="3000" fill="url(#a59-warm)"/><g filter="url(#a59-warp)"><path d="M1971.3,1835.1 Q1932,2150.3 1705.3,2388.8 Q1478.6,2627.4 1194.6,2549 Q910.6,2470.7 706.6,2293.7 Q502.5,2116.8 385.4,1818.4 Q268.3,1520 403.2,1205.6 Q538.2,891.3 735.8,729.9 Q933.5,568.6 1204.2,534.5 Q1474.9,500.4 1668,692.3 Q1861,884.2 1935.8,1202.1 Q2010.6,1520 1971.3,1835.1 Z" fill="#b8a483" stroke="#453521" stroke-width="10"/><clipPath id="a59-st"><path d="M1971.3,1835.1 Q1932,2150.3 1705.3,2388.8 Q1478.6,2627.4 1194.6,2549 Q910.6,2470.7 706.6,2293.7 Q502.5,2116.8 385.4,1818.4 Q268.3,1520 403.2,1205.6 Q538.2,891.3 735.8,729.9 Q933.5,568.6 1204.2,534.5 Q1474.9,500.4 1668,692.3 Q1861,884.2 1935.8,1202.1 Q2010.6,1520 1971.3,1835.1 Z"/></clipPath><g clip-path="url(#a59-st)"><polyline points="1200,1572.3 1203.6,1574.7 1208.3,1575.9 1213.7,1575.6 1219.4,1573.5 1224.7,1569.6 1229.1,1563.8 1231.9,1556.4 1232.8,1548 1231.4,1538.9 1227.4,1530 1220.8,1521.8 1211.8,1515.2 1200.9,1510.9 1188.6,1509.3 1175.6,1510.9 1162.8,1516 1151.1,1524.5 1141.4,1536 1134.6,1550.3 1131.3,1566.4 1132.1,1583.4 1137.3,1600.5 1146.8,1616.3 1160.3,1629.8 1177.2,1640 1196.8,1645.9 1217.9,1647 1239.3,1642.8 1259.7,1633.2 1277.7,1618.6 1292,1599.6 1301.6,1577 1305.5,1552.2 1303.3,1526.4 1294.8,1501.3 1280.1,1478.4 1259.8,1459.3 1235,1445.2 1206.8,1437.4 1176.9,1436.5 1147,1442.9 1118.9,1456.7 1094.5,1477.2 1075.2,1503.5 1062.6,1534.3 1057.6,1567.9 1060.8,1602.4 1072.5,1635.7 1092.1,1665.9 1118.9,1690.9 1151.5,1709.1 1188.2,1719.2 1226.9,1720.3 1265.4,1711.9 1301.3,1694.2 1332.6,1668 1357,1634.6 1373,1595.7 1379.4,1553.4 1375.4,1510.1 1360.9,1468.4 1336.6,1430.8 1303.4,1399.6 1263.2,1377 1218.1,1364.3 1170.6,1362.8 1123.5,1372.9 1079.5,1394.2" fill="none" stroke="#453521" stroke-width="22" stroke-linecap="round" stroke-linejoin="round"/><polyline points="990.2,1208.8 989.9,1204.5 991.2,1199.8 994.1,1195.3 998.8,1191.5 1004.9,1188.8 1012.1,1187.9 1019.9,1189.1 1027.6,1192.6 1034.8,1198.4 1040.5,1206.3 1044.3,1216.1 1045.5,1227.1 1043.8,1238.8 1039,1250.3 1031.1,1260.7 1020.3,1269.2 1007.1,1275.1 992.3,1277.7 976.5,1276.5 961,1271.3 946.6,1262.1 934.4,1249.1 925.4,1233 920.5,1214.5 920.2,1194.7 924.8,1174.8 934.4,1156 948.8,1139.6 967.2,1126.7 988.9,1118.4 1012.5,1115.5 1036.8,1118.5 1060.3,1127.5 1081.6,1142.3 1099,1162.3 1111.5,1186.4 1118,1213.6 1117.7,1242.1 1110.4,1270.4 1096.2,1296.8 1075.7,1319.4 1049.8,1336.9 1019.8,1347.8 987.3,1351.3 954.3,1346.9 922.8,1334.4 894.5,1314.3 871.5,1287.6 855.2,1255.5 846.9,1219.7 847.4,1182.4 857,1145.6 875.5,1111.6 902,1082.5 935.3,1060.1 973.5,1046.2 1014.7,1041.7 1056.4,1047.3 1096.2,1063 1131.7,1088.1 1160.6,1121.4 1181,1161.3 1191.4,1205.6 1191,1251.8 1179.3,1297.1 1156.9,1339 1124.6,1374.8 1084.2,1402.3" fill="none" stroke="#453521" stroke-width="22" stroke-linecap="round" stroke-linejoin="round"/><polyline points="1409.8,1208.8 1410.1,1204.5 1408.8,1199.8 1405.9,1195.3 1401.2,1191.5 1395.1,1188.8 1387.9,1187.9 1380.1,1189.1 1372.4,1192.6 1365.2,1198.4 1359.5,1206.3 1355.7,1216.1 1354.5,1227.1 1356.2,1238.8 1361,1250.3 1368.9,1260.7 1379.7,1269.2 1392.9,1275.1 1407.7,1277.7 1423.5,1276.5 1439,1271.3 1453.4,1262.1 1465.6,1249.1 1474.6,1233 1479.5,1214.5 1479.8,1194.7 1475.2,1174.8 1465.6,1156 1451.2,1139.6 1432.8,1126.7 1411.1,1118.4 1387.5,1115.5 1363.2,1118.5 1339.7,1127.5 1318.4,1142.3 1301,1162.3 1288.5,1186.4 1282,1213.6 1282.3,1242.1 1289.6,1270.4 1303.8,1296.8 1324.3,1319.4 1350.2,1336.9 1380.2,1347.8 1412.7,1351.3 1445.7,1346.9 1477.2,1334.4 1505.5,1314.3 1528.5,1287.6 1544.8,1255.5 1553.1,1219.7 1552.6,1182.4 1543,1145.6 1524.5,1111.6 1498,1082.5 1464.7,1060.1 1426.5,1046.2 1385.3,1041.7 1343.6,1047.3 1303.8,1063 1268.3,1088.1 1239.4,1121.4 1219,1161.3 1208.6,1205.6 1209,1251.8 1220.7,1297.1 1243.1,1339 1275.4,1374.8 1315.8,1402.3" fill="none" stroke="#453521" stroke-width="22" stroke-linecap="round" stroke-linejoin="round"/><polyline points="1402,2181.4 1401.7,2179.8 1400.8,2178.2 1399.2,2176.9 1397.2,2176 1394.7,2175.7 1391.9,2176.2 1389.2,2177.5 1386.8,2179.7 1384.8,2182.7 1383.7,2186.3 1383.5,2190.3 1384.4,2194.6 1386.5,2198.7 1389.8,2202.3 1394.1,2205.1 1399.2,2206.9 1404.8,2207.4 1410.7,2206.3 1416.4,2203.8 1421.4,2199.7 1425.5,2194.3 1428.3,2187.8 1429.3,2180.6 1428.6,2173.1 1425.9,2165.7 1421.4,2158.9 1415.1,2153.3 1407.4,2149.3 1398.7,2147.2 1389.5,2147.3 1380.3,2149.7 1371.7,2154.4 1364.4,2161.2 1358.7,2169.9 1355.3,2179.9 1354.3,2190.7 1356.1,2201.7 1360.6,2212.2 1367.6,2221.6 1376.9,2229.1 1388,2234.2 1400.3,2236.6 1413.1,2235.9 1425.6,2232 1437,2225.1 1446.6,2215.5 1453.8,2203.5 1457.9,2190 1458.6,2175.5 1455.8,2161.1 1449.4,2147.5 1439.8,2135.6 1427.4,2126.3 1412.8,2120.1 1396.9,2117.5 1380.6,2118.9 1364.8,2124.3" fill="none" stroke="#453521" stroke-width="14" stroke-linecap="round" stroke-linejoin="round"/><polyline points="827,1955.4 827.5,1958.1 829,1960.8 831.5,1963.1 835,1964.7 839.2,1965.2 843.8,1964.4 848.5,1962.2 852.6,1958.6 855.9,1953.6 857.9,1947.5 858.3,1940.7 856.8,1933.5 853.3,1926.6 847.9,1920.4 840.7,1915.5 832.1,1912.5 822.6,1911.6 812.7,1913.3 803.1,1917.5 794.4,1924.2 787.5,1933.3 782.8,1944.2 780.8,1956.4 782,1969.1 786.4,1981.6 793.9,1993 804.4,2002.6 817.3,2009.5 831.9,2013.2 847.5,2013.2 863,2009.3 877.5,2001.5 890.1,1990.1 899.7,1975.6 905.7,1958.7 907.5,1940.5 904.7,1921.9 897.3,1904.1 885.6,1888.3 870,1875.4 851.3,1866.6 830.6,1862.4 809,1863.4 787.9,1869.7 768.5,1881.2 752.2,1897.3 740,1917.3 732.8,1940.1 731.4,1964.5 735.9,1988.9 746.4,2011.9 762.5,2032.1 783.3,2048 807.8,2058.7 834.5,2063.2 862.1,2061.1 888.7,2052.3" fill="none" stroke="#453521" stroke-width="14" stroke-linecap="round" stroke-linejoin="round"/><polyline points="1865.9,1363.7 1867.7,1363.5 1869.5,1362.6 1871.1,1361 1872.2,1358.8 1872.6,1356 1872.3,1353 1870.9,1349.9 1868.7,1347.1 1865.5,1344.8 1861.6,1343.4 1857.1,1342.9 1852.4,1343.7 1847.8,1345.8 1843.6,1349.2 1840.3,1353.7 1838,1359.2 1837.2,1365.4 1838,1372 1840.5,1378.3 1844.7,1384.2 1850.4,1388.9 1857.4,1392.3 1865.3,1393.9 1873.6,1393.5 1881.9,1391 1889.6,1386.4 1896.1,1379.8 1901,1371.6 1903.8,1362.1 1904.2,1351.9 1902.1,1341.7 1897.4,1332 1890.3,1323.5 1881.1,1316.8 1870.2,1312.4 1858.4,1310.8 1846.1,1312.1 1834.3,1316.4 1823.7,1323.7 1814.9,1333.5 1808.6,1345.5 1805.3,1358.9 1805.4,1373 1808.9,1386.9 1815.9,1399.9 1826,1411 1838.7,1419.5 1853.4,1424.8 1869.2,1426.4 1885.3,1424.1 1900.6,1417.9 1914.2,1408 1925.2,1394.8 1932.8,1379.1 1936.5,1361.8 1935.9,1343.7 1930.8,1326.1" fill="none" stroke="#453521" stroke-width="14" stroke-linecap="round" stroke-linejoin="round"/><polyline points="1740.3,1129 1741.1,1131.1 1742.8,1133 1745.2,1134.4 1748.3,1135.1 1751.8,1134.9 1755.4,1133.5 1758.7,1131 1761.5,1127.4 1763.3,1122.8 1763.9,1117.6 1763.1,1112 1760.7,1106.5 1756.8,1101.4 1751.4,1097.4 1744.9,1094.6 1737.4,1093.6 1729.6,1094.4 1721.9,1097.4 1714.9,1102.3 1709,1109.2 1704.9,1117.6 1702.9,1127.1 1703.3,1137.3 1706.3,1147.3 1711.8,1156.7 1719.8,1164.7 1729.8,1170.7 1741.3,1174.1 1753.7,1174.7 1766.3,1172.2 1778.1,1166.5 1788.6,1157.8 1796.8,1146.6 1802.2,1133.4 1804.3,1118.8 1802.7,1103.8 1797.5,1089.3 1788.6,1076.2 1776.6,1065.3 1761.9,1057.5 1745.4,1053.4 1728.1,1053.5 1710.8,1057.8 1694.9,1066.3 1681.1,1078.7 1670.6,1094.4 1664,1112.5 1662,1132 1664.8,1151.9 1672.4,1170.8 1684.6,1187.6 1700.8,1201.3 1720.2,1210.7 1741.7,1215.3 1764,1214.6 1785.8,1208.4 1805.9,1197" fill="none" stroke="#453521" stroke-width="14" stroke-linecap="round" stroke-linejoin="round"/><polyline points="521.8,2450 556.5,2373.5 591.1,2450" fill="none" stroke="#453521" stroke-width="12.6"/><polyline points="620.8,2450 655.5,2373.5 690.1,2450" fill="none" stroke="#453521" stroke-width="12.6"/><polyline points="719.8,2450 754.5,2373.5 789.1,2450" fill="none" stroke="#453521" stroke-width="12.6"/><polyline points="818.9,2450 853.5,2373.5 888.1,2450" fill="none" stroke="#453521" stroke-width="12.6"/><polyline points="917.9,2450 952.5,2373.5 987.1,2450" fill="none" stroke="#453521" stroke-width="12.6"/><polyline points="1016.9,2450 1051.5,2373.5 1086.2,2450" fill="none" stroke="#453521" stroke-width="12.6"/><polyline points="1115.8,2450 1150.5,2373.5 1185.2,2450" fill="none" stroke="#453521" stroke-width="12.6"/><polyline points="1214.8,2450 1249.5,2373.5 1284.2,2450" fill="none" stroke="#453521" stroke-width="12.6"/><polyline points="1313.8,2450 1348.5,2373.5 1383.2,2450" fill="none" stroke="#453521" stroke-width="12.6"/><polyline points="1412.8,2450 1447.5,2373.5 1482.2,2450" fill="none" stroke="#453521" stroke-width="12.6"/><polyline points="1511.8,2450 1546.5,2373.5 1581.2,2450" fill="none" stroke="#453521" stroke-width="12.6"/><polyline points="1610.8,2450 1645.5,2373.5 1680.2,2450" fill="none" stroke="#453521" stroke-width="12.6"/><polyline points="1709.8,2450 1744.5,2373.5 1779.2,2450" fill="none" stroke="#453521" stroke-width="12.6"/><polyline points="1808.8,2450 1843.5,2373.5 1878.2,2450" fill="none" stroke="#453521" stroke-width="12.6"/></g><circle cx="390" cy="200" r="15.6" fill="#453521"/><circle cx="450" cy="200" r="15.6" fill="#453521"/><circle cx="510" cy="200" r="15.6" fill="#453521"/><circle cx="570" cy="200" r="15.6" fill="#453521"/><circle cx="630" cy="200" r="15.6" fill="#453521"/><circle cx="690" cy="200" r="15.6" fill="#453521"/><circle cx="750" cy="200" r="15.6" fill="#453521"/><circle cx="810" cy="200" r="15.6" fill="#453521"/><circle cx="870" cy="200" r="15.6" fill="#453521"/><circle cx="930" cy="200" r="15.6" fill="#453521"/><circle cx="990" cy="200" r="15.6" fill="#453521"/><circle cx="1050" cy="200" r="15.6" fill="#453521"/><circle cx="1110" cy="200" r="15.6" fill="#453521"/><circle cx="1170" cy="200" r="15.6" fill="#453521"/><circle cx="1230" cy="200" r="15.6" fill="#453521"/><circle cx="1290" cy="200" r="15.6" fill="#453521"/><circle cx="1350" cy="200" r="15.6" fill="#453521"/><circle cx="1410" cy="200" r="15.6" fill="#453521"/><circle cx="1470" cy="200" r="15.6" fill="#453521"/><circle cx="1530" cy="200" r="15.6" fill="#453521"/><circle cx="1590" cy="200" r="15.6" fill="#453521"/><circle cx="1650" cy="200" r="15.6" fill="#453521"/><circle cx="1710" cy="200" r="15.6" fill="#453521"/><circle cx="1770" cy="200" r="15.6" fill="#453521"/><circle cx="1830" cy="200" r="15.6" fill="#453521"/><circle cx="1890" cy="200" r="15.6" fill="#453521"/><circle cx="1950" cy="200" r="15.6" fill="#453521"/><circle cx="2010" cy="200" r="15.6" fill="#453521"/><circle cx="390" cy="2800" r="15.6" fill="#453521"/><circle cx="450" cy="2800" r="15.6" fill="#453521"/><circle cx="510" cy="2800" r="15.6" fill="#453521"/><circle cx="570" cy="2800" r="15.6" fill="#453521"/><circle cx="630" cy="2800" r="15.6" fill="#453521"/><circle cx="690" cy="2800" r="15.6" fill="#453521"/><circle cx="750" cy="2800" r="15.6" fill="#453521"/><circle cx="810" cy="2800" r="15.6" fill="#453521"/><circle cx="870" cy="2800" r="15.6" fill="#453521"/><circle cx="930" cy="2800" r="15.6" fill="#453521"/><circle cx="990" cy="2800" r="15.6" fill="#453521"/><circle cx="1050" cy="2800" r="15.6" fill="#453521"/><circle cx="1110" cy="2800" r="15.6" fill="#453521"/><circle cx="1170" cy="2800" r="15.6" fill="#453521"/><circle cx="1230" cy="2800" r="15.6" fill="#453521"/><circle cx="1290" cy="2800" r="15.6" fill="#453521"/><circle cx="1350" cy="2800" r="15.6" fill="#453521"/><circle cx="1410" cy="2800" r="15.6" fill="#453521"/><circle cx="1470" cy="2800" r="15.6" fill="#453521"/><circle cx="1530" cy="2800" r="15.6" fill="#453521"/><circle cx="1590" cy="2800" r="15.6" fill="#453521"/><circle cx="1650" cy="2800" r="15.6" fill="#453521"/><circle cx="1710" cy="2800" r="15.6" fill="#453521"/><circle cx="1770" cy="2800" r="15.6" fill="#453521"/><circle cx="1830" cy="2800" r="15.6" fill="#453521"/><circle cx="1890" cy="2800" r="15.6" fill="#453521"/><circle cx="1950" cy="2800" r="15.6" fill="#453521"/><circle cx="2010" cy="2800" r="15.6" fill="#453521"/><rect x="130" y="130" width="2140" height="2740" fill="none" stroke="#453521" stroke-width="5"/><rect x="152" y="152" width="2096" height="2696" fill="none" stroke="#453521" stroke-width="2.5" opacity="0.8"/></g><rect width="2400" height="3000" filter="url(#a59-mottle)" style="mix-blend-mode:multiply" opacity="0.5"/><rect width="2400" height="3000" filter="url(#a59-fade)" style="mix-blend-mode:screen" opacity="0.55"/><rect width="2400" height="3000" filter="url(#a59-grain)" style="mix-blend-mode:multiply" opacity="0.32"/><ellipse cx="850" cy="2809.8" rx="273.8" ry="208.1" fill="#6b4a22" opacity="0.067" filter="url(#a59-blur9)"/><ellipse cx="617.6" cy="2827.8" rx="173.8" ry="127.6" fill="#6b4a22" opacity="0.051" filter="url(#a59-blur9)"/><ellipse cx="1292.3" cy="1682.7" rx="139.7" ry="111.8" fill="#6b4a22" opacity="0.039" filter="url(#a59-blur9)"/><ellipse cx="1893.5" cy="1880" rx="98.7" ry="87.3" fill="#6b4a22" opacity="0.061" filter="url(#a59-blur9)"/><ellipse cx="2002.1" cy="2601.5" rx="336.8" ry="210.8" fill="#6b4a22" opacity="0.065" filter="url(#a59-blur9)"/><g opacity="0.3"><rect y="3" width="2400" height="2" fill="#ece2cb"/><rect y="11" width="2400" height="2" fill="#ece2cb"/><rect y="19" width="2400" height="2" fill="#ece2cb"/><rect y="27" width="2400" height="2" fill="#ece2cb"/><rect y="35" width="2400" height="2" fill="#ece2cb"/><rect y="43" width="2400" height="2" fill="#ece2cb"/><rect y="51" width="2400" height="2" fill="#ece2cb"/><rect y="59" width="2400" height="2" fill="#ece2cb"/><rect y="67" width="2400" height="2" fill="#ece2cb"/><rect y="75" width="2400" height="2" fill="#ece2cb"/><rect y="83" width="2400" height="2" fill="#ece2cb"/><rect y="91" width="2400" height="2" fill="#ece2cb"/><rect y="99" width="2400" height="2" fill="#ece2cb"/><rect y="107" width="2400" height="2" fill="#ece2cb"/><rect y="115" width="2400" height="2" fill="#ece2cb"/><rect y="123" width="2400" height="2" fill="#ece2cb"/><rect y="131" width="2400" height="2" fill="#ece2cb"/><rect y="139" width="2400" height="2" fill="#ece2cb"/><rect y="147" width="2400" height="2" fill="#ece2cb"/><rect y="155" width="2400" height="2" fill="#ece2cb"/><rect y="163" width="2400" height="2" fill="#ece2cb"/><rect y="171" width="2400" height="2" fill="#ece2cb"/><rect y="179" width="2400" height="2" fill="#ece2cb"/><rect y="187" width="2400" height="2" fill="#ece2cb"/><rect y="195" width="2400" height="2" fill="#ece2cb"/><rect y="203" width="2400" height="2" fill="#ece2cb"/><rect y="211" width="2400" height="2" fill="#ece2cb"/><rect y="219" width="2400" height="2" fill="#ece2cb"/><rect y="227" width="2400" height="2" fill="#ece2cb"/><rect y="235" width="2400" height="2" fill="#ece2cb"/><rect y="243" width="2400" height="2" fill="#ece2cb"/><rect y="251" width="2400" height="2" fill="#ece2cb"/><rect y="259" width="2400" height="2" fill="#ece2cb"/><rect y="267" width="2400" height="2" fill="#ece2cb"/><rect y="275" width="2400" height="2" fill="#ece2cb"/><rect y="283" width="2400" height="2" fill="#ece2cb"/><rect y="291" width="2400" height="2" fill="#ece2cb"/><rect y="299" width="2400" height="2" fill="#ece2cb"/><rect y="307" width="2400" height="2" fill="#ece2cb"/><rect y="315" width="2400" height="2" fill="#ece2cb"/><rect y="323" width="2400" height="2" fill="#ece2cb"/><rect y="331" width="2400" height="2" fill="#ece2cb"/><rect y="339" width="2400" height="2" fill="#ece2cb"/><rect y="347" width="2400" height="2" fill="#ece2cb"/><rect y="355" width="2400" height="2" fill="#ece2cb"/><rect y="363" width="2400" height="2" fill="#ece2cb"/><rect y="371" width="2400" height="2" fill="#ece2cb"/><rect y="379" width="2400" height="2" fill="#ece2cb"/><rect y="387" width="2400" height="2" fill="#ece2cb"/><rect y="395" width="2400" height="2" fill="#ece2cb"/><rect y="403" width="2400" height="2" fill="#ece2cb"/><rect y="411" width="2400" height="2" fill="#ece2cb"/><rect y="419" width="2400" height="2" fill="#ece2cb"/><rect y="427" width="2400" height="2" fill="#ece2cb"/><rect y="435" width="2400" height="2" fill="#ece2cb"/><rect y="443" width="2400" height="2" fill="#ece2cb"/><rect y="451" width="2400" height="2" fill="#ece2cb"/><rect y="459" width="2400" height="2" fill="#ece2cb"/><rect y="467" width="2400" height="2" fill="#ece2cb"/><rect y="475" width="2400" height="2" fill="#ece2cb"/><rect y="483" width="2400" height="2" fill="#ece2cb"/><rect y="491" width="2400" height="2" fill="#ece2cb"/><rect y="499" width="2400" height="2" fill="#ece2cb"/><rect y="507" width="2400" height="2" fill="#ece2cb"/><rect y="515" width="2400" height="2" fill="#ece2cb"/><rect y="523" width="2400" height="2" fill="#ece2cb"/><rect y="531" width="2400" height="2" fill="#ece2cb"/><rect y="539" width="2400" height="2" fill="#ece2cb"/><rect y="547" width="2400" height="2" fill="#ece2cb"/><rect y="555" width="2400" height="2" fill="#ece2cb"/><rect y="563" width="2400" height="2" fill="#ece2cb"/><rect y="571" width="2400" height="2" fill="#ece2cb"/><rect y="579" width="2400" height="2" fill="#ece2cb"/><rect y="587" width="2400" height="2" fill="#ece2cb"/><rect y="595" width="2400" height="2" fill="#ece2cb"/><rect y="603" width="2400" height="2" fill="#ece2cb"/><rect y="611" width="2400" height="2" fill="#ece2cb"/><rect y="619" width="2400" height="2" fill="#ece2cb"/><rect y="627" width="2400" height="2" fill="#ece2cb"/><rect y="635" width="2400" height="2" fill="#ece2cb"/><rect y="643" width="2400" height="2" fill="#ece2cb"/><rect y="651" width="2400" height="2" fill="#ece2cb"/><rect y="659" width="2400" height="2" fill="#ece2cb"/><rect y="667" width="2400" height="2" fill="#ece2cb"/><rect y="675" width="2400" height="2" fill="#ece2cb"/><rect y="683" width="2400" height="2" fill="#ece2cb"/><rect y="691" width="2400" height="2" fill="#ece2cb"/><rect y="699" width="2400" height="2" fill="#ece2cb"/><rect y="707" width="2400" height="2" fill="#ece2cb"/><rect y="715" width="2400" height="2" fill="#ece2cb"/><rect y="723" width="2400" height="2" fill="#ece2cb"/><rect y="731" width="2400" height="2" fill="#ece2cb"/><rect y="739" width="2400" height="2" fill="#ece2cb"/><rect y="747" width="2400" height="2" fill="#ece2cb"/><rect y="755" width="2400" height="2" fill="#ece2cb"/><rect y="763" width="2400" height="2" fill="#ece2cb"/><rect y="771" width="2400" height="2" fill="#ece2cb"/><rect y="779" width="2400" height="2" fill="#ece2cb"/><rect y="787" width="2400" height="2" fill="#ece2cb"/><rect y="795" width="2400" height="2" fill="#ece2cb"/><rect y="803" width="2400" height="2" fill="#ece2cb"/><rect y="811" width="2400" height="2" fill="#ece2cb"/><rect y="819" width="2400" height="2" fill="#ece2cb"/><rect y="827" width="2400" height="2" fill="#ece2cb"/><rect y="835" width="2400" height="2" fill="#ece2cb"/><rect y="843" width="2400" height="2" fill="#ece2cb"/><rect y="851" width="2400" height="2" fill="#ece2cb"/><rect y="859" width="2400" height="2" fill="#ece2cb"/><rect y="867" width="2400" height="2" fill="#ece2cb"/><rect y="875" width="2400" height="2" fill="#ece2cb"/><rect y="883" width="2400" height="2" fill="#ece2cb"/><rect y="891" width="2400" height="2" fill="#ece2cb"/><rect y="899" width="2400" height="2" fill="#ece2cb"/><rect y="907" width="2400" height="2" fill="#ece2cb"/><rect y="915" width="2400" height="2" fill="#ece2cb"/><rect y="923" width="2400" height="2" fill="#ece2cb"/><rect y="931" width="2400" height="2" fill="#ece2cb"/><rect y="939" width="2400" height="2" fill="#ece2cb"/><rect y="947" width="2400" height="2" fill="#ece2cb"/><rect y="955" width="2400" height="2" fill="#ece2cb"/><rect y="963" width="2400" height="2" fill="#ece2cb"/><rect y="971" width="2400" height="2" fill="#ece2cb"/><rect y="979" width="2400" height="2" fill="#ece2cb"/><rect y="987" width="2400" height="2" fill="#ece2cb"/><rect y="995" width="2400" height="2" fill="#ece2cb"/><rect y="1003" width="2400" height="2" fill="#ece2cb"/><rect y="1011" width="2400" height="2" fill="#ece2cb"/><rect y="1019" width="2400" height="2" fill="#ece2cb"/><rect y="1027" width="2400" height="2" fill="#ece2cb"/><rect y="1035" width="2400" height="2" fill="#ece2cb"/><rect y="1043" width="2400" height="2" fill="#ece2cb"/><rect y="1051" width="2400" height="2" fill="#ece2cb"/><rect y="1059" width="2400" height="2" fill="#ece2cb"/><rect y="1067" width="2400" height="2" fill="#ece2cb"/><rect y="1075" width="2400" height="2" fill="#ece2cb"/><rect y="1083" width="2400" height="2" fill="#ece2cb"/><rect y="1091" width="2400" height="2" fill="#ece2cb"/><rect y="1099" width="2400" height="2" fill="#ece2cb"/><rect y="1107" width="2400" height="2" fill="#ece2cb"/><rect y="1115" width="2400" height="2" fill="#ece2cb"/><rect y="1123" width="2400" height="2" fill="#ece2cb"/><rect y="1131" width="2400" height="2" fill="#ece2cb"/><rect y="1139" width="2400" height="2" fill="#ece2cb"/><rect y="1147" width="2400" height="2" fill="#ece2cb"/><rect y="1155" width="2400" height="2" fill="#ece2cb"/><rect y="1163" width="2400" height="2" fill="#ece2cb"/><rect y="1171" width="2400" height="2" fill="#ece2cb"/><rect y="1179" width="2400" height="2" fill="#ece2cb"/><rect y="1187" width="2400" height="2" fill="#ece2cb"/><rect y="1195" width="2400" height="2" fill="#ece2cb"/><rect y="1203" width="2400" height="2" fill="#ece2cb"/><rect y="1211" width="2400" height="2" fill="#ece2cb"/><rect y="1219" width="2400" height="2" fill="#ece2cb"/><rect y="1227" width="2400" height="2" fill="#ece2cb"/><rect y="1235" width="2400" height="2" fill="#ece2cb"/><rect y="1243" width="2400" height="2" fill="#ece2cb"/><rect y="1251" width="2400" height="2" fill="#ece2cb"/><rect y="1259" width="2400" height="2" fill="#ece2cb"/><rect y="1267" width="2400" height="2" fill="#ece2cb"/><rect y="1275" width="2400" height="2" fill="#ece2cb"/><rect y="1283" width="2400" height="2" fill="#ece2cb"/><rect y="1291" width="2400" height="2" fill="#ece2cb"/><rect y="1299" width="2400" height="2" fill="#ece2cb"/><rect y="1307" width="2400" height="2" fill="#ece2cb"/><rect y="1315" width="2400" height="2" fill="#ece2cb"/><rect y="1323" width="2400" height="2" fill="#ece2cb"/><rect y="1331" width="2400" height="2" fill="#ece2cb"/><rect y="1339" width="2400" height="2" fill="#ece2cb"/><rect y="1347" width="2400" height="2" fill="#ece2cb"/><rect y="1355" width="2400" height="2" fill="#ece2cb"/><rect y="1363" width="2400" height="2" fill="#ece2cb"/><rect y="1371" width="2400" height="2" fill="#ece2cb"/><rect y="1379" width="2400" height="2" fill="#ece2cb"/><rect y="1387" width="2400" height="2" fill="#ece2cb"/><rect y="1395" width="2400" height="2" fill="#ece2cb"/><rect y="1403" width="2400" height="2" fill="#ece2cb"/><rect y="1411" width="2400" height="2" fill="#ece2cb"/><rect y="1419" width="2400" height="2" fill="#ece2cb"/><rect y="1427" width="2400" height="2" fill="#ece2cb"/><rect y="1435" width="2400" height="2" fill="#ece2cb"/><rect y="1443" width="2400" height="2" fill="#ece2cb"/><rect y="1451" width="2400" height="2" fill="#ece2cb"/><rect y="1459" width="2400" height="2" fill="#ece2cb"/><rect y="1467" width="2400" height="2" fill="#ece2cb"/><rect y="1475" width="2400" height="2" fill="#ece2cb"/><rect y="1483" width="2400" height="2" fill="#ece2cb"/><rect y="1491" width="2400" height="2" fill="#ece2cb"/><rect y="1499" width="2400" height="2" fill="#ece2cb"/><rect y="1507" width="2400" height="2" fill="#ece2cb"/><rect y="1515" width="2400" height="2" fill="#ece2cb"/><rect y="1523" width="2400" height="2" fill="#ece2cb"/><rect y="1531" width="2400" height="2" fill="#ece2cb"/><rect y="1539" width="2400" height="2" fill="#ece2cb"/><rect y="1547" width="2400" height="2" fill="#ece2cb"/><rect y="1555" width="2400" height="2" fill="#ece2cb"/><rect y="1563" width="2400" height="2" fill="#ece2cb"/><rect y="1571" width="2400" height="2" fill="#ece2cb"/><rect y="1579" width="2400" height="2" fill="#ece2cb"/><rect y="1587" width="2400" height="2" fill="#ece2cb"/><rect y="1595" width="2400" height="2" fill="#ece2cb"/><rect y="1603" width="2400" height="2" fill="#ece2cb"/><rect y="1611" width="2400" height="2" fill="#ece2cb"/><rect y="1619" width="2400" height="2" fill="#ece2cb"/><rect y="1627" width="2400" height="2" fill="#ece2cb"/><rect y="1635" width="2400" height="2" fill="#ece2cb"/><rect y="1643" width="2400" height="2" fill="#ece2cb"/><rect y="1651" width="2400" height="2" fill="#ece2cb"/><rect y="1659" width="2400" height="2" fill="#ece2cb"/><rect y="1667" width="2400" height="2" fill="#ece2cb"/><rect y="1675" width="2400" height="2" fill="#ece2cb"/><rect y="1683" width="2400" height="2" fill="#ece2cb"/><rect y="1691" width="2400" height="2" fill="#ece2cb"/><rect y="1699" width="2400" height="2" fill="#ece2cb"/><rect y="1707" width="2400" height="2" fill="#ece2cb"/><rect y="1715" width="2400" height="2" fill="#ece2cb"/><rect y="1723" width="2400" height="2" fill="#ece2cb"/><rect y="1731" width="2400" height="2" fill="#ece2cb"/><rect y="1739" width="2400" height="2" fill="#ece2cb"/><rect y="1747" width="2400" height="2" fill="#ece2cb"/><rect y="1755" width="2400" height="2" fill="#ece2cb"/><rect y="1763" width="2400" height="2" fill="#ece2cb"/><rect y="1771" width="2400" height="2" fill="#ece2cb"/><rect y="1779" width="2400" height="2" fill="#ece2cb"/><rect y="1787" width="2400" height="2" fill="#ece2cb"/><rect y="1795" width="2400" height="2" fill="#ece2cb"/><rect y="1803" width="2400" height="2" fill="#ece2cb"/><rect y="1811" width="2400" height="2" fill="#ece2cb"/><rect y="1819" width="2400" height="2" fill="#ece2cb"/><rect y="1827" width="2400" height="2" fill="#ece2cb"/><rect y="1835" width="2400" height="2" fill="#ece2cb"/><rect y="1843" width="2400" height="2" fill="#ece2cb"/><rect y="1851" width="2400" height="2" fill="#ece2cb"/><rect y="1859" width="2400" height="2" fill="#ece2cb"/><rect y="1867" width="2400" height="2" fill="#ece2cb"/><rect y="1875" width="2400" height="2" fill="#ece2cb"/><rect y="1883" width="2400" height="2" fill="#ece2cb"/><rect y="1891" width="2400" height="2" fill="#ece2cb"/><rect y="1899" width="2400" height="2" fill="#ece2cb"/><rect y="1907" width="2400" height="2" fill="#ece2cb"/><rect y="1915" width="2400" height="2" fill="#ece2cb"/><rect y="1923" width="2400" height="2" fill="#ece2cb"/><rect y="1931" width="2400" height="2" fill="#ece2cb"/><rect y="1939" width="2400" height="2" fill="#ece2cb"/><rect y="1947" width="2400" height="2" fill="#ece2cb"/><rect y="1955" width="2400" height="2" fill="#ece2cb"/><rect y="1963" width="2400" height="2" fill="#ece2cb"/><rect y="1971" width="2400" height="2" fill="#ece2cb"/><rect y="1979" width="2400" height="2" fill="#ece2cb"/><rect y="1987" width="2400" height="2" fill="#ece2cb"/><rect y="1995" width="2400" height="2" fill="#ece2cb"/><rect y="2003" width="2400" height="2" fill="#ece2cb"/><rect y="2011" width="2400" height="2" fill="#ece2cb"/><rect y="2019" width="2400" height="2" fill="#ece2cb"/><rect y="2027" width="2400" height="2" fill="#ece2cb"/><rect y="2035" width="2400" height="2" fill="#ece2cb"/><rect y="2043" width="2400" height="2" fill="#ece2cb"/><rect y="2051" width="2400" height="2" fill="#ece2cb"/><rect y="2059" width="2400" height="2" fill="#ece2cb"/><rect y="2067" width="2400" height="2" fill="#ece2cb"/><rect y="2075" width="2400" height="2" fill="#ece2cb"/><rect y="2083" width="2400" height="2" fill="#ece2cb"/><rect y="2091" width="2400" height="2" fill="#ece2cb"/><rect y="2099" width="2400" height="2" fill="#ece2cb"/><rect y="2107" width="2400" height="2" fill="#ece2cb"/><rect y="2115" width="2400" height="2" fill="#ece2cb"/><rect y="2123" width="2400" height="2" fill="#ece2cb"/><rect y="2131" width="2400" height="2" fill="#ece2cb"/><rect y="2139" width="2400" height="2" fill="#ece2cb"/><rect y="2147" width="2400" height="2" fill="#ece2cb"/><rect y="2155" width="2400" height="2" fill="#ece2cb"/><rect y="2163" width="2400" height="2" fill="#ece2cb"/><rect y="2171" width="2400" height="2" fill="#ece2cb"/><rect y="2179" width="2400" height="2" fill="#ece2cb"/><rect y="2187" width="2400" height="2" fill="#ece2cb"/><rect y="2195" width="2400" height="2" fill="#ece2cb"/><rect y="2203" width="2400" height="2" fill="#ece2cb"/><rect y="2211" width="2400" height="2" fill="#ece2cb"/><rect y="2219" width="2400" height="2" fill="#ece2cb"/><rect y="2227" width="2400" height="2" fill="#ece2cb"/><rect y="2235" width="2400" height="2" fill="#ece2cb"/><rect y="2243" width="2400" height="2" fill="#ece2cb"/><rect y="2251" width="2400" height="2" fill="#ece2cb"/><rect y="2259" width="2400" height="2" fill="#ece2cb"/><rect y="2267" width="2400" height="2" fill="#ece2cb"/><rect y="2275" width="2400" height="2" fill="#ece2cb"/><rect y="2283" width="2400" height="2" fill="#ece2cb"/><rect y="2291" width="2400" height="2" fill="#ece2cb"/><rect y="2299" width="2400" height="2" fill="#ece2cb"/><rect y="2307" width="2400" height="2" fill="#ece2cb"/><rect y="2315" width="2400" height="2" fill="#ece2cb"/><rect y="2323" width="2400" height="2" fill="#ece2cb"/><rect y="2331" width="2400" height="2" fill="#ece2cb"/><rect y="2339" width="2400" height="2" fill="#ece2cb"/><rect y="2347" width="2400" height="2" fill="#ece2cb"/><rect y="2355" width="2400" height="2" fill="#ece2cb"/><rect y="2363" width="2400" height="2" fill="#ece2cb"/><rect y="2371" width="2400" height="2" fill="#ece2cb"/><rect y="2379" width="2400" height="2" fill="#ece2cb"/><rect y="2387" width="2400" height="2" fill="#ece2cb"/><rect y="2395" width="2400" height="2" fill="#ece2cb"/><rect y="2403" width="2400" height="2" fill="#ece2cb"/><rect y="2411" width="2400" height="2" fill="#ece2cb"/><rect y="2419" width="2400" height="2" fill="#ece2cb"/><rect y="2427" width="2400" height="2" fill="#ece2cb"/><rect y="2435" width="2400" height="2" fill="#ece2cb"/><rect y="2443" width="2400" height="2" fill="#ece2cb"/><rect y="2451" width="2400" height="2" fill="#ece2cb"/><rect y="2459" width="2400" height="2" fill="#ece2cb"/><rect y="2467" width="2400" height="2" fill="#ece2cb"/><rect y="2475" width="2400" height="2" fill="#ece2cb"/><rect y="2483" width="2400" height="2" fill="#ece2cb"/><rect y="2491" width="2400" height="2" fill="#ece2cb"/><rect y="2499" width="2400" height="2" fill="#ece2cb"/><rect y="2507" width="2400" height="2" fill="#ece2cb"/><rect y="2515" width="2400" height="2" fill="#ece2cb"/><rect y="2523" width="2400" height="2" fill="#ece2cb"/><rect y="2531" width="2400" height="2" fill="#ece2cb"/><rect y="2539" width="2400" height="2" fill="#ece2cb"/><rect y="2547" width="2400" height="2" fill="#ece2cb"/><rect y="2555" width="2400" height="2" fill="#ece2cb"/><rect y="2563" width="2400" height="2" fill="#ece2cb"/><rect y="2571" width="2400" height="2" fill="#ece2cb"/><rect y="2579" width="2400" height="2" fill="#ece2cb"/><rect y="2587" width="2400" height="2" fill="#ece2cb"/><rect y="2595" width="2400" height="2" fill="#ece2cb"/><rect y="2603" width="2400" height="2" fill="#ece2cb"/><rect y="2611" width="2400" height="2" fill="#ece2cb"/><rect y="2619" width="2400" height="2" fill="#ece2cb"/><rect y="2627" width="2400" height="2" fill="#ece2cb"/><rect y="2635" width="2400" height="2" fill="#ece2cb"/><rect y="2643" width="2400" height="2" fill="#ece2cb"/><rect y="2651" width="2400" height="2" fill="#ece2cb"/><rect y="2659" width="2400" height="2" fill="#ece2cb"/><rect y="2667" width="2400" height="2" fill="#ece2cb"/><rect y="2675" width="2400" height="2" fill="#ece2cb"/><rect y="2683" width="2400" height="2" fill="#ece2cb"/><rect y="2691" width="2400" height="2" fill="#ece2cb"/><rect y="2699" width="2400" height="2" fill="#ece2cb"/><rect y="2707" width="2400" height="2" fill="#ece2cb"/><rect y="2715" width="2400" height="2" fill="#ece2cb"/><rect y="2723" width="2400" height="2" fill="#ece2cb"/><rect y="2731" width="2400" height="2" fill="#ece2cb"/><rect y="2739" width="2400" height="2" fill="#ece2cb"/><rect y="2747" width="2400" height="2" fill="#ece2cb"/><rect y="2755" width="2400" height="2" fill="#ece2cb"/><rect y="2763" width="2400" height="2" fill="#ece2cb"/><rect y="2771" width="2400" height="2" fill="#ece2cb"/><rect y="2779" width="2400" height="2" fill="#ece2cb"/><rect y="2787" width="2400" height="2" fill="#ece2cb"/><rect y="2795" width="2400" height="2" fill="#ece2cb"/><rect y="2803" width="2400" height="2" fill="#ece2cb"/><rect y="2811" width="2400" height="2" fill="#ece2cb"/><rect y="2819" width="2400" height="2" fill="#ece2cb"/><rect y="2827" width="2400" height="2" fill="#ece2cb"/><rect y="2835" width="2400" height="2" fill="#ece2cb"/><rect y="2843" width="2400" height="2" fill="#ece2cb"/><rect y="2851" width="2400" height="2" fill="#ece2cb"/><rect y="2859" width="2400" height="2" fill="#ece2cb"/><rect y="2867" width="2400" height="2" fill="#ece2cb"/><rect y="2875" width="2400" height="2" fill="#ece2cb"/><rect y="2883" width="2400" height="2" fill="#ece2cb"/><rect y="2891" width="2400" height="2" fill="#ece2cb"/><rect y="2899" width="2400" height="2" fill="#ece2cb"/><rect y="2907" width="2400" height="2" fill="#ece2cb"/><rect y="2915" width="2400" height="2" fill="#ece2cb"/><rect y="2923" width="2400" height="2" fill="#ece2cb"/><rect y="2931" width="2400" height="2" fill="#ece2cb"/><rect y="2939" width="2400" height="2" fill="#ece2cb"/><rect y="2947" width="2400" height="2" fill="#ece2cb"/><rect y="2955" width="2400" height="2" fill="#ece2cb"/><rect y="2963" width="2400" height="2" fill="#ece2cb"/><rect y="2971" width="2400" height="2" fill="#ece2cb"/><rect y="2979" width="2400" height="2" fill="#ece2cb"/><rect y="2987" width="2400" height="2" fill="#ece2cb"/><rect y="2995" width="2400" height="2" fill="#ece2cb"/></g><rect x="88" y="88" width="2224" height="2824" fill="none" stroke="#3a2c1a" stroke-width="4" opacity="0.2"/><rect x="94" y="94" width="2212" height="2812" fill="none" stroke="#fff6e0" stroke-width="2" opacity="0.25"/><circle cx="831.5" cy="1689" r="9.2" fill="#8a5a2e" opacity="0.057"/><circle cx="178.4" cy="2158.4" r="12.7" fill="#8a5a2e" opacity="0.059"/><circle cx="538.2" cy="1033.3" r="12.1" fill="#8a5a2e" opacity="0.085"/><circle cx="1753.2" cy="1447" r="13.9" fill="#8a5a2e" opacity="0.041"/><circle cx="328.8" cy="2426.9" r="7.3" fill="#8a5a2e" opacity="0.071"/><circle cx="941.4" cy="1623.6" r="6.6" fill="#8a5a2e" opacity="0.121"/><circle cx="2286.7" cy="574.2" r="6.7" fill="#8a5a2e" opacity="0.072"/><circle cx="941.5" cy="2037.7" r="5.5" fill="#8a5a2e" opacity="0.115"/><circle cx="91.1" cy="1553.4" r="13.8" fill="#8a5a2e" opacity="0.076"/><circle cx="1960.7" cy="2792" r="10.9" fill="#8a5a2e" opacity="0.060"/><circle cx="652.3" cy="352.7" r="8.2" fill="#8a5a2e" opacity="0.086"/><circle cx="1455.1" cy="1667.9" r="12.5" fill="#8a5a2e" opacity="0.049"/><circle cx="2180.9" cy="1023" r="11.8" fill="#8a5a2e" opacity="0.093"/><circle cx="1511.5" cy="603.8" r="7" fill="#8a5a2e" opacity="0.098"/><circle cx="702.3" cy="167.8" r="5.4" fill="#8a5a2e" opacity="0.050"/><circle cx="501.3" cy="848.8" r="11.9" fill="#8a5a2e" opacity="0.125"/><circle cx="1289" cy="2593.8" r="11.6" fill="#8a5a2e" opacity="0.074"/><circle cx="169.6" cy="942.7" r="12.3" fill="#8a5a2e" opacity="0.117"/><circle cx="2209.3" cy="687.6" r="12.9" fill="#8a5a2e" opacity="0.098"/><circle cx="902.5" cy="590.9" r="5" fill="#8a5a2e" opacity="0.123"/><rect width="2400" height="3000" fill="url(#a59-vig)"/></svg></svg>