<svg xmlns="http://www.w3.org/2000/svg" width="2400" height="1800" viewBox="0 0 2400 1800"><rect width="2400" height="1800" fill="#e9e1d2"/><rect y="1430" width="2400" height="370" fill="#c8b190"/><line x1="120" y1="1430" x2="60" y2="1800" stroke="#00000018" stroke-width="6"/><line x1="380" y1="1430" x2="320" y2="1800" stroke="#00000018" stroke-width="6"/><line x1="640" y1="1430" x2="580" y2="1800" stroke="#00000018" stroke-width="6"/><line x1="900" y1="1430" x2="840" y2="1800" stroke="#00000018" stroke-width="6"/><line x1="1160" y1="1430" x2="1100" y2="1800" stroke="#00000018" stroke-width="6"/><line x1="1420" y1="1430" x2="1360" y2="1800" stroke="#00000018" stroke-width="6"/><line x1="1680" y1="1430" x2="1620" y2="1800" stroke="#00000018" stroke-width="6"/><line x1="1940" y1="1430" x2="1880" y2="1800" stroke="#00000018" stroke-width="6"/><line x1="2200" y1="1430" x2="2140" y2="1800" stroke="#00000018" stroke-width="6"/><rect y="1418" width="2400" height="16" fill="#d7cbb6"/><rect x="700" y="980" width="1000" height="460" rx="26" fill="#a87e57"/><rect x="660" y="1290" width="1080" height="210" rx="30" fill="#f1ebdf"/><rect x="660" y="1420" width="1080" height="120" rx="24" fill="#b3502f" opacity="0.85"/><rect x="770" y="1180" width="300" height="150" rx="40" fill="#faf6ec"/><rect x="1330" y="1180" width="300" height="150" rx="40" fill="#c9b98e"/><rect x="640" y="1530" width="1120" height="26" rx="12" fill="#a87e57"/><rect x="360" y="1260" width="240" height="220" rx="10" fill="#a87e57"/><rect x="380" y="1300" width="200" height="14" fill="#00000022"/><line x1="480" y1="1260" x2="480" y2="1130" stroke="#5a4632" stroke-width="12"/><path d="M410,1130 L550,1130 L520,1020 L440,1020 Z" fill="#b3502f"/><path d="M2060,1520 Q 1910,1282.5 1835,1345" fill="none" stroke="#5d7052" stroke-width="20" stroke-linecap="round"/><path d="M2060,1520 Q 1960,1282.5 1910,1295" fill="none" stroke="#5d7052" stroke-width="20" stroke-linecap="round"/><path d="M2060,1520 Q 2010,1282.5 1985,1245" fill="none" stroke="#5d7052" stroke-width="20" stroke-linecap="round"/><path d="M2060,1520 Q 2060,1282.5 2060,1195" fill="none" stroke="#5d7052" stroke-width="20" stroke-linecap="round"/><path d="M2060,1520 Q 2110,1282.5 2135,1245" fill="none" stroke="#5d7052" stroke-width="20" stroke-linecap="round"/><path d="M2060,1520 Q 2160,1282.5 2210,1295" fill="none" stroke="#5d7052" stroke-width="20" stroke-linecap="round"/><path d="M2060,1520 Q 2210,1282.5 2285,1345" fill="none" stroke="#5d7052" stroke-width="20" stroke-linecap="round"/><path d="M1972.5,1520 L2147.5,1520 L2125,1657.5 L1995,1657.5 Z" fill="#a9714d"/><defs><filter id="a57b-sh" x="-30%" y="-30%" width="160%" height="160%"><feGaussianBlur stdDeviation="16"/></filter></defs><rect x="928" y="246" width="572" height="702" fill="#000" opacity="0.28" filter="url(#a57b-sh)"/><rect x="914" y="224" width="572" height="702" fill="#4a3d2f"/><rect x="930.9" y="240.9" width="538.2" height="668.2" fill="none" stroke="#00000055" stroke-width="3"/><rect x="940" y="250" width="520" height="650" fill="#f6f2ea"/><svg x="979" y="289" width="442" height="572" viewBox="0 0 2400 3000" preserveAspectRatio="xMidYMid slice"><rect width="2400" height="3000" fill="#e9dcbc"/><radialGradient id="a57-vig" cx="50%" cy="42%" r="80%"><stop offset="55%" stop-color="#000" stop-opacity="0"/><stop offset="100%" stop-color="#000" stop-opacity="0.15"/></radialGradient><rect width="2400" height="3000" fill="url(#a57-vig)"/><circle cx="1064.5" cy="1245.5" r="2.6" fill="#2c4661" opacity="0.040"/><circle cx="1715" cy="356.4" r="1.6" fill="#2c4661" opacity="0.037"/><circle cx="560.7" cy="2675" r="3.5" fill="#2c4661" opacity="0.070"/><circle cx="350.1" cy="2134.2" r="3.5" fill="#2c4661" opacity="0.076"/><circle cx="54" cy="755.8" r="3.9" fill="#2c4661" opacity="0.040"/><circle cx="535.1" cy="906.1" r="4.2" fill="#2c4661" opacity="0.059"/><circle cx="1914.8" cy="1059.1" r="2" fill="#2c4661" opacity="0.051"/><circle cx="1870" cy="1779.5" r="2" fill="#2c4661" opacity="0.043"/><circle cx="1367.8" cy="1144.6" r="2.1" fill="#2c4661" opacity="0.065"/><circle cx="1254.7" cy="2896.5" r="2.1" fill="#2c4661" opacity="0.050"/><circle cx="1290.2" cy="417.6" r="3.6" fill="#2c4661" opacity="0.036"/><circle cx="308.3" cy="2354" r="4.3" fill="#2c4661" opacity="0.040"/><circle cx="1670.8" cy="2397.1" r="2.8" fill="#2c4661" opacity="0.061"/><circle cx="328.7" cy="2358.8" r="3.7" fill="#2c4661" opacity="0.070"/><circle cx="1797.9" cy="100.8" r="3.3" fill="#2c4661" opacity="0.068"/><circle cx="1329.5" cy="1159" r="2.9" fill="#2c4661" opacity="0.052"/><circle cx="1970.4" cy="1103.3" r="3.3" fill="#2c4661" opacity="0.043"/><circle cx="942.1" cy="992" r="4.4" fill="#2c4661" opacity="0.040"/><circle cx="1855.1" cy="1362.4" r="1.6" fill="#2c4661" opacity="0.067"/><circle cx="1731.8" cy="2259.2" r="2.8" fill="#2c4661" opacity="0.038"/><circle cx="922.4" cy="1188.6" r="4" fill="#2c4661" opacity="0.065"/><circle cx="958.4" cy="2895.6" r="3.4" fill="#2c4661" opacity="0.039"/><circle cx="268.3" cy="2431.9" r="1.6" fill="#2c4661" opacity="0.059"/><circle cx="2012.9" cy="2791.6" r="3.8" fill="#2c4661" opacity="0.070"/><circle cx="1284.6" cy="1814.8" r="4" fill="#2c4661" opacity="0.073"/><circle cx="1598.8" cy="2079.6" r="1.6" fill="#2c4661" opacity="0.035"/><circle cx="482" cy="1571" r="2.4" fill="#2c4661" opacity="0.042"/><circle cx="516.7" cy="1153.7" r="4.1" fill="#2c4661" opacity="0.070"/><circle cx="1565.9" cy="1138.4" r="3.3" fill="#2c4661" opacity="0.038"/><circle cx="1249.2" cy="2571.8" r="3.6" fill="#2c4661" opacity="0.044"/><circle cx="1824.1" cy="1764.2" r="3.3" fill="#2c4661" opacity="0.079"/><circle cx="45.8" cy="1525.1" r="4.4" fill="#2c4661" opacity="0.039"/><circle cx="1605.8" cy="644.9" r="2.6" fill="#2c4661" opacity="0.054"/><circle cx="553.7" cy="1703.6" r="3.5" fill="#2c4661" opacity="0.076"/><circle cx="595.5" cy="2598" r="2.9" fill="#2c4661" opacity="0.048"/><circle cx="2273" cy="488.3" r="2.4" fill="#2c4661" opacity="0.070"/><circle cx="519.2" cy="728.3" r="3.9" fill="#2c4661" opacity="0.044"/><circle cx="1955.1" cy="955.9" r="3.4" fill="#2c4661" opacity="0.079"/><circle cx="110.2" cy="303.1" r="1.8" fill="#2c4661" opacity="0.080"/><circle cx="1083.7" cy="2781.6" r="1.5" fill="#2c4661" opacity="0.035"/><circle cx="796.8" cy="1685.8" r="2.9" fill="#2c4661" opacity="0.052"/><circle cx="1731.3" cy="1258.7" r="3.2" fill="#2c4661" opacity="0.050"/><circle cx="658.6" cy="2503.8" r="2.6" fill="#2c4661" opacity="0.053"/><circle cx="1644.9" cy="1802.8" r="3" fill="#2c4661" opacity="0.062"/><circle cx="1590.2" cy="2130.4" r="4.5" fill="#2c4661" opacity="0.075"/><circle cx="1447.3" cy="1460.7" r="3" fill="#2c4661" opacity="0.061"/><circle cx="1833" cy="40.4" r="2.2" fill="#2c4661" opacity="0.045"/><circle cx="220.3" cy="2959.5" r="2.6" fill="#2c4661" opacity="0.075"/><circle cx="1744.4" cy="1622.2" r="3.2" fill="#2c4661" opacity="0.074"/><circle cx="1158.5" cy="964.9" r="1.8" fill="#2c4661" opacity="0.066"/><circle cx="2064" cy="460.6" r="2" fill="#2c4661" opacity="0.071"/><circle cx="772.4" cy="127.3" r="2.1" fill="#2c4661" opacity="0.075"/><circle cx="1276.8" cy="418.7" r="2.5" fill="#2c4661" opacity="0.079"/><circle cx="347.4" cy="927.4" r="1.8" fill="#2c4661" opacity="0.053"/><circle cx="238.7" cy="41.2" r="3.8" fill="#2c4661" opacity="0.030"/><circle cx="1862.3" cy="1204.6" r="4.1" fill="#2c4661" opacity="0.049"/><circle cx="1478.1" cy="871.2" r="4.2" fill="#2c4661" opacity="0.045"/><circle cx="187.6" cy="2713.8" r="2.3" fill="#2c4661" opacity="0.071"/><circle cx="468.9" cy="912.9" r="3" fill="#2c4661" opacity="0.065"/><circle cx="1576.4" cy="1089.6" r="2" fill="#2c4661" opacity="0.068"/><circle cx="1852.8" cy="1396.7" r="4.4" fill="#2c4661" opacity="0.075"/><circle cx="1647.8" cy="1485.1" r="4.1" fill="#2c4661" opacity="0.059"/><circle cx="2093.9" cy="1838.3" r="2.5" fill="#2c4661" opacity="0.057"/><circle cx="942.5" cy="549.5" r="1.5" fill="#2c4661" opacity="0.032"/><circle cx="1345.3" cy="1317.1" r="4.4" fill="#2c4661" opacity="0.036"/><circle cx="498.6" cy="2089.5" r="3" fill="#2c4661" opacity="0.050"/><circle cx="88.7" cy="1680.4" r="3.2" fill="#2c4661" opacity="0.043"/><circle cx="1351.5" cy="2957.9" r="3.5" fill="#2c4661" opacity="0.050"/><circle cx="1956.6" cy="2900.8" r="3.5" fill="#2c4661" opacity="0.040"/><circle cx="111.2" cy="248" r="2.8" fill="#2c4661" opacity="0.071"/><circle cx="1630.2" cy="867.2" r="2" fill="#2c4661" opacity="0.050"/><circle cx="97.6" cy="189.3" r="2.1" fill="#2c4661" opacity="0.049"/><circle cx="84.4" cy="1289.8" r="1.8" fill="#2c4661" opacity="0.042"/><circle cx="1840.4" cy="1654.4" r="3.6" fill="#2c4661" opacity="0.075"/><circle cx="623.8" cy="1801.4" r="2.3" fill="#2c4661" opacity="0.075"/><circle cx="114" cy="137.3" r="3.4" fill="#2c4661" opacity="0.071"/><circle cx="1536" cy="2105.6" r="3.5" fill="#2c4661" opacity="0.056"/><circle cx="165.7" cy="2700" r="2" fill="#2c4661" opacity="0.050"/><circle cx="1146.7" cy="484.5" r="2" fill="#2c4661" opacity="0.037"/><circle cx="533.2" cy="1491.7" r="3.7" fill="#2c4661" opacity="0.077"/><path d="M2008.4,1843.7 Q1901.5,2167.5 1684.2,2398.1 Q1467,2628.8 1195,2593.2 Q923,2557.6 715.9,2355.3 Q508.9,2153 402.7,1836.5 Q296.5,1520 364.8,1205 Q433.1,890 676.3,682.8 Q919.4,475.7 1192.9,441.9 Q1466.4,408.2 1708.4,651.5 Q1950.5,894.9 2032.9,1207.5 Q2115.4,1520 2008.4,1843.7 Z" fill="#c9b98e" stroke="#2c4661" stroke-width="10"/><clipPath id="a57-st"><path d="M2008.4,1843.7 Q1901.5,2167.5 1684.2,2398.1 Q1467,2628.8 1195,2593.2 Q923,2557.6 715.9,2355.3 Q508.9,2153 402.7,1836.5 Q296.5,1520 364.8,1205 Q433.1,890 676.3,682.8 Q919.4,475.7 1192.9,441.9 Q1466.4,408.2 1708.4,651.5 Q1950.5,894.9 2032.9,1207.5 Q2115.4,1520 2008.4,1843.7 Z"/></clipPath><g clip-path="url(#a57-st)"><polyline points="1200,1572.3 1203.6,1574.7 1208.3,1575.9 1213.7,1575.6 1219.4,1573.5 1224.7,1569.6 1229.1,1563.8 1231.9,1556.4 1232.8,1548 1231.4,1538.9 1227.4,1530 1220.8,1521.8 1211.8,1515.2 1200.9,1510.9 1188.6,1509.3 1175.6,1510.9 1162.8,1516 1151.1,1524.5 1141.4,1536 1134.6,1550.3 1131.3,1566.4 1132.1,1583.4 1137.3,1600.5 1146.8,1616.3 1160.3,1629.8 1177.2,1640 1196.8,1645.9 1217.9,1647 1239.3,1642.8 1259.7,1633.2 1277.7,1618.6 1292,1599.6 1301.6,1577 1305.5,1552.2 1303.3,1526.4 1294.8,1501.3 1280.1,1478.4 1259.8,1459.3 1235,1445.2 1206.8,1437.4 1176.9,1436.5 1147,1442.9 1118.9,1456.7 1094.5,1477.2 1075.2,1503.5 1062.6,1534.3 1057.6,1567.9 1060.8,1602.4 1072.5,1635.7 1092.1,1665.9 1118.9,1690.9 1151.5,1709.1 1188.2,1719.2 1226.9,1720.3 1265.4,1711.9 1301.3,1694.2 1332.6,1668 1357,1634.6 1373,1595.7 1379.4,1553.4 1375.4,1510.1 1360.9,1468.4 1336.6,1430.8 1303.4,1399.6 1263.2,1377 1218.1,1364.3 1170.6,1362.8 1123.5,1372.9 1079.5,1394.2" fill="none" stroke="#2c4661" stroke-width="22" stroke-linecap="round" stroke-linejoin="round"/><polyline points="990.2,1208.8 989.9,1204.5 991.2,1199.8 994.1,1195.3 998.8,1191.5 1004.9,1188.8 1012.1,1187.9 1019.9,1189.1 1027.6,1192.6 1034.8,1198.4 1040.5,1206.3 1044.3,1216.1 1045.5,1227.1 1043.8,1238.8 1039,1250.3 1031.1,1260.7 1020.3,1269.2 1007.1,1275.1 992.3,1277.7 976.5,1276.5 961,1271.3 946.6,1262.1 934.4,1249.1 925.4,1233 920.5,1214.5 920.2,1194.7 924.8,1174.8 934.4,1156 948.8,1139.6 967.2,1126.7 988.9,1118.4 1012.5,1115.5 1036.8,1118.5 1060.3,1127.5 1081.6,1142.3 1099,1162.3 1111.5,1186.4 1118,1213.6 1117.7,1242.1 1110.4,1270.4 1096.2,1296.8 1075.7,1319.4 1049.8,1336.9 1019.8,1347.8 987.3,1351.3 954.3,1346.9 922.8,1334.4 894.5,1314.3 871.5,1287.6 855.2,1255.5 846.9,1219.7 847.4,1182.4 857,1145.6 875.5,1111.6 902,1082.5 935.3,1060.1 973.5,1046.2 1014.7,1041.7 1056.4,1047.3 1096.2,1063 1131.7,1088.1 1160.6,1121.4 1181,1161.3 1191.4,1205.6 1191,1251.8 1179.3,1297.1 1156.9,1339 1124.6,1374.8 1084.2,1402.3" fill="none" stroke="#2c4661" stroke-width="22" stroke-linecap="round" stroke-linejoin="round"/><polyline points="1409.8,1208.8 1410.1,1204.5 1408.8,1199.8 1405.9,1195.3 1401.2,1191.5 1395.1,1188.8 1387.9,1187.9 1380.1,1189.1 1372.4,1192.6 1365.2,1198.4 1359.5,1206.3 1355.7,1216.1 1354.5,1227.1 1356.2,1238.8 1361,1250.3 1368.9,1260.7 1379.7,1269.2 1392.9,1275.1 1407.7,1277.7 1423.5,1276.5 1439,1271.3 1453.4,1262.1 1465.6,1249.1 1474.6,1233 1479.5,1214.5 1479.8,1194.7 1475.2,1174.8 1465.6,1156 1451.2,1139.6 1432.8,1126.7 1411.1,1118.4 1387.5,1115.5 1363.2,1118.5 1339.7,1127.5 1318.4,1142.3 1301,1162.3 1288.5,1186.4 1282,1213.6 1282.3,1242.1 1289.6,1270.4 1303.8,1296.8 1324.3,1319.4 1350.2,1336.9 1380.2,1347.8 1412.7,1351.3 1445.7,1346.9 1477.2,1334.4 1505.5,1314.3 1528.5,1287.6 1544.8,1255.5 1553.1,1219.7 1552.6,1182.4 1543,1145.6 1524.5,1111.6 1498,1082.5 1464.7,1060.1 1426.5,1046.2 1385.3,1041.7 1343.6,1047.3 1303.8,1063 1268.3,1088.1 1239.4,1121.4 1219,1161.3 1208.6,1205.6 1209,1251.8 1220.7,1297.1 1243.1,1339 1275.4,1374.8 1315.8,1402.3" fill="none" stroke="#2c4661" stroke-width="22" stroke-linecap="round" stroke-linejoin="round"/><polyline points="791.2,2131.9 788.9,2131.9 786.4,2132.8 784.1,2134.6 782.3,2137.3 781.2,2140.8 781.2,2144.8 782.4,2149 784.9,2153 788.6,2156.5 793.4,2159.1 799.2,2160.4 805.4,2160.2 811.8,2158.3 817.8,2154.6 822.9,2149.3 826.7,2142.5 828.8,2134.6 828.9,2126 826.7,2117.2 822.3,2109 815.7,2101.8 807.2,2096.2 797.2,2092.8 786.3,2091.9 775.1,2093.8 764.4,2098.5 754.8,2105.9 747.1,2115.8 741.8,2127.6 739.6,2140.8 740.6,2154.4 745,2167.8 752.8,2180.1 763.7,2190.3 777,2197.8 792.1,2202 808.2,2202.3 824.3,2198.7 839.4,2191.1 852.5,2179.8 862.7,2165.4 869.2,2148.5 871.5,2130.2 869.3,2111.4 862.4,2093.4 851.2,2077.3 836.1,2064.1 817.9,2054.7 797.6,2049.9 776.3,2050.2 755.4,2055.7 736,2066.3 719.5,2081.5 707,2100.6 699.2,2122.5 697,2146.1 700.6,2169.8" fill="none" stroke="#2c4661" stroke-width="14" stroke-linecap="round" stroke-linejoin="round"/><polyline points="1485.6,1841.1 1487,1840.4 1488.6,1840.3 1490.4,1840.7 1492.2,1841.8 1493.8,1843.5 1494.9,1845.8 1495.3,1848.5 1495,1851.5 1493.8,1854.5 1491.7,1857.3 1488.8,1859.6 1485.1,1861.1 1480.9,1861.7 1476.5,1861.2 1472.1,1859.5 1468.1,1856.7 1464.7,1852.7 1462.4,1847.8 1461.3,1842.2 1461.6,1836.2 1463.5,1830.3 1466.9,1824.8 1471.7,1820.2 1477.7,1816.7 1484.6,1814.8 1492.1,1814.6 1499.6,1816.3 1506.7,1819.9 1512.9,1825.3 1517.7,1832.2 1520.8,1840.4 1521.8,1849.3 1520.6,1858.4 1517.2,1867.2 1511.5,1875.1 1504,1881.5 1494.8,1886.1 1484.6,1888.3 1473.9,1888 1463.3,1885 1453.6,1879.5 1445.3,1871.6 1439.1,1861.6 1435.3,1850.3 1434.4,1838.1 1436.5,1825.8 1441.6,1814.1 1449.6,1803.9 1459.9,1795.7 1472.2,1790.1 1485.7,1787.6 1499.7,1788.5 1513.3,1792.8 1525.6,1800.4 1536,1810.9 1543.6,1823.8 1547.9,1838.5" fill="none" stroke="#2c4661" stroke-width="14" stroke-linecap="round" stroke-linejoin="round"/><polyline points="637,1418.7 636.8,1416.1 635.4,1413.3 633,1410.9 629.6,1409.2 625.5,1408.4 620.9,1408.9 616.2,1410.8 611.8,1414.2 608.3,1418.9 606,1424.9 605.2,1431.6 606.3,1438.8 609.3,1445.9 614.4,1452.3 621.2,1457.5 629.5,1461.1 639,1462.4 648.9,1461.4 658.6,1457.7 667.6,1451.5 675,1443 680.3,1432.4 682.9,1420.5 682.5,1407.8 678.9,1395.1 672,1383.4 662.2,1373.3 649.8,1365.7 635.5,1361.2 620,1360.3 604.4,1363.3 589.5,1370.2 576.5,1380.8 566.1,1394.7 559.2,1411 556.4,1429 558.1,1447.6 564.4,1465.7 575.1,1482 589.9,1495.6 607.9,1505.5 628.2,1510.8 649.6,1511 670.9,1506 690.8,1495.7 707.9,1480.6 721.2,1461.5 729.6,1439.3 732.4,1415.2 729.3,1390.8 720.2,1367.4 705.4,1346.5 685.7,1329.4 662,1317.5 635.7,1311.4 608.3,1312 581.3,1319.2" fill="none" stroke="#2c4661" stroke-width="14" stroke-linecap="round" stroke-linejoin="round"/><polyline points="521.8,2450 556.5,2373.5 591.1,2450" fill="none" stroke="#2c4661" stroke-width="12.6"/><polyline points="620.8,2450 655.5,2373.5 690.1,2450" fill="none" stroke="#2c4661" stroke-width="12.6"/><polyline points="719.8,2450 754.5,2373.5 789.1,2450" fill="none" stroke="#2c4661" stroke-width="12.6"/><polyline points="818.9,2450 853.5,2373.5 888.1,2450" fill="none" stroke="#2c4661" stroke-width="12.6"/><polyline points="917.9,2450 952.5,2373.5 987.1,2450" fill="none" stroke="#2c4661" stroke-width="12.6"/><polyline points="1016.9,2450 1051.5,2373.5 1086.2,2450" fill="none" stroke="#2c4661" stroke-width="12.6"/><polyline points="1115.8,2450 1150.5,2373.5 1185.2,2450" fill="none" stroke="#2c4661" stroke-width="12.6"/><polyline points="1214.8,2450 1249.5,2373.5 1284.2,2450" fill="none" stroke="#2c4661" stroke-width="12.6"/><polyline points="1313.8,2450 1348.5,2373.5 1383.2,2450" fill="none" stroke="#2c4661" stroke-width="12.6"/><polyline points="1412.8,2450 1447.5,2373.5 1482.2,2450" fill="none" stroke="#2c4661" stroke-width="12.6"/><polyline points="1511.8,2450 1546.5,2373.5 1581.2,2450" fill="none" stroke="#2c4661" stroke-width="12.6"/><polyline points="1610.8,2450 1645.5,2373.5 1680.2,2450" fill="none" stroke="#2c4661" stroke-width="12.6"/><polyline points="1709.8,2450 1744.5,2373.5 1779.2,2450" fill="none" stroke="#2c4661" stroke-width="12.6"/><polyline points="1808.8,2450 1843.5,2373.5 1878.2,2450" fill="none" stroke="#2c4661" stroke-width="12.6"/></g><circle cx="390" cy="200" r="15.6" fill="#2c4661"/><circle cx="450" cy="200" r="15.6" fill="#2c4661"/><circle cx="510" cy="200" r="15.6" fill="#2c4661"/><circle cx="570" cy="200" r="15.6" fill="#2c4661"/><circle cx="630" cy="200" r="15.6" fill="#2c4661"/><circle cx="690" cy="200" r="15.6" fill="#2c4661"/><circle cx="750" cy="200" r="15.6" fill="#2c4661"/><circle cx="810" cy="200" r="15.6" fill="#2c4661"/><circle cx="870" cy="200" r="15.6" fill="#2c4661"/><circle cx="930" cy="200" r="15.6" fill="#2c4661"/><circle cx="990" cy="200" r="15.6" fill="#2c4661"/><circle cx="1050" cy="200" r="15.6" fill="#2c4661"/><circle cx="1110" cy="200" r="15.6" fill="#2c4661"/><circle cx="1170" cy="200" r="15.6" fill="#2c4661"/><circle cx="1230" cy="200" r="15.6" fill="#2c4661"/><circle cx="1290" cy="200" r="15.6" fill="#2c4661"/><circle cx="1350" cy="200" r="15.6" fill="#2c4661"/><circle cx="1410" cy="200" r="15.6" fill="#2c4661"/><circle cx="1470" cy="200" r="15.6" fill="#2c4661"/><circle cx="1530" cy="200" r="15.6" fill="#2c4661"/><circle cx="1590" cy="200" r="15.6" fill="#2c4661"/><circle cx="1650" cy="200" r="15.6" fill="#2c4661"/><circle cx="1710" cy="200" r="15.6" fill="#2c4661"/><circle cx="1770" cy="200" r="15.6" fill="#2c4661"/><circle cx="1830" cy="200" r="15.6" fill="#2c4661"/><circle cx="1890" cy="200" r="15.6" fill="#2c4661"/><circle cx="1950" cy="200" r="15.6" fill="#2c4661"/><circle cx="2010" cy="200" r="15.6" fill="#2c4661"/><circle cx="390" cy="2800" r="15.6" fill="#2c4661"/><circle cx="450" cy="2800" r="15.6" fill="#2c4661"/><circle cx="510" cy="2800" r="15.6" fill="#2c4661"/><circle cx="570" cy="2800" r="15.6" fill="#2c4661"/><circle cx="630" cy="2800" r="15.6" fill="#2c4661"/><circle cx="690" cy="2800" r="15.6" fill="#2c4661"/><circle cx="750" cy="2800" r="15.6" fill="#2c4661"/><circle cx="810" cy="2800" r="15.6" fill="#2c4661"/><circle cx="870" cy="2800" r="15.6" fill="#2c4661"/><circle cx="930" cy="2800" r="15.6" fill="#2c4661"/><circle cx="990" cy="2800" r="15.6" fill="#2c4661"/><circle cx="1050" cy="2800" r="15.6" fill="#2c4661"/><circle cx="1110" cy="2800" r="15.6" fill="#2c4661"/><circle cx="1170" cy="2800" r="15.6" fill="#2c4661"/><circle cx="1230" cy="2800" r="15.6" fill="#2c4661"/><circle cx="1290" cy="2800" r="15.6" fill="#2c4661"/><circle cx="1350" cy="2800" r="15.6" fill="#2c4661"/><circle cx="1410" cy="2800" r="15.6" fill="#2c4661"/><circle cx="1470" cy="2800" r="15.6" fill="#2c4661"/><circle cx="1530" cy="2800" r="15.6" fill="#2c4661"/><circle cx="1590" cy="2800" r="15.6" fill="#2c4661"/><circle cx="1650" cy="2800" r="15.6" fill="#2c4661"/><circle cx="1710" cy="2800" r="15.6" fill="#2c4661"/><circle cx="1770" cy="2800" r="15.6" fill="#2c4661"/><circle cx="1830" cy="2800" r="15.6" fill="#2c4661"/><circle cx="1890" cy="2800" r="15.6" fill="#2c4661"/><circle cx="1950" cy="2800" r="15.6" fill="#2c4661"/><circle cx="2010" cy="2800" r="15.6" fill="#2c4661"/><rect x="100" y="100" width="2200" height="2800" fill="none" stroke="#2c4661" stroke-width="9"/><rect x="142" y="142" width="2116" height="2716" fill="none" stroke="#2c4661" stroke-width="3" opacity="0.65"/></svg></svg>