<svg xmlns="http://www.w3.org/2000/svg" width="2400" height="1800" viewBox="0 0 2400 1800"><rect width="2400" height="1800" fill="#e9e1d2"/><rect y="1430" width="2400" height="370" fill="#c8b190"/><line x1="120" y1="1430" x2="60" y2="1800" stroke="#00000018" stroke-width="6"/><line x1="380" y1="1430" x2="320" y2="1800" stroke="#00000018" stroke-width="6"/><line x1="640" y1="1430" x2="580" y2="1800" stroke="#00000018" stroke-width="6"/><line x1="900" y1="1430" x2="840" y2="1800" stroke="#00000018" stroke-width="6"/><line x1="1160" y1="1430" x2="1100" y2="1800" stroke="#00000018" stroke-width="6"/><line x1="1420" y1="1430" x2="1360" y2="1800" stroke="#00000018" stroke-width="6"/><line x1="1680" y1="1430" x2="1620" y2="1800" stroke="#00000018" stroke-width="6"/><line x1="1940" y1="1430" x2="1880" y2="1800" stroke="#00000018" stroke-width="6"/><line x1="2200" y1="1430" x2="2140" y2="1800" stroke="#00000018" stroke-width="6"/><rect y="1418" width="2400" height="16" fill="#d7cbb6"/><rect x="700" y="980" width="1000" height="460" rx="26" fill="#a87e57"/><rect x="660" y="1290" width="1080" height="210" rx="30" fill="#f1ebdf"/><rect x="660" y="1420" width="1080" height="120" rx="24" fill="#a8502f" opacity="0.85"/><rect x="770" y="1180" width="300" height="150" rx="40" fill="#faf6ec"/><rect x="1330" y="1180" width="300" height="150" rx="40" fill="#b8a276"/><rect x="640" y="1530" width="1120" height="26" rx="12" fill="#a87e57"/><rect x="360" y="1260" width="240" height="220" rx="10" fill="#a87e57"/><rect x="380" y="1300" width="200" height="14" fill="#00000022"/><line x1="480" y1="1260" x2="480" y2="1130" stroke="#5a4632" stroke-width="12"/><path d="M410,1130 L550,1130 L520,1020 L440,1020 Z" fill="#a8502f"/><path d="M2060,1520 Q 1910,1282.5 1835,1345" fill="none" stroke="#5d7052" stroke-width="20" stroke-linecap="round"/><path d="M2060,1520 Q 1960,1282.5 1910,1295" fill="none" stroke="#5d7052" stroke-width="20" stroke-linecap="round"/><path d="M2060,1520 Q 2010,1282.5 1985,1245" fill="none" stroke="#5d7052" stroke-width="20" stroke-linecap="round"/><path d="M2060,1520 Q 2060,1282.5 2060,1195" fill="none" stroke="#5d7052" stroke-width="20" stroke-linecap="round"/><path d="M2060,1520 Q 2110,1282.5 2135,1245" fill="none" stroke="#5d7052" stroke-width="20" stroke-linecap="round"/><path d="M2060,1520 Q 2160,1282.5 2210,1295" fill="none" stroke="#5d7052" stroke-width="20" stroke-linecap="round"/><path d="M2060,1520 Q 2210,1282.5 2285,1345" fill="none" stroke="#5d7052" stroke-width="20" stroke-linecap="round"/><path d="M1972.5,1520 L2147.5,1520 L2125,1657.5 L1995,1657.5 Z" fill="#a9714d"/><defs><filter id="a24b-sh" x="-30%" y="-30%" width="160%" height="160%"><feGaussianBlur stdDeviation="16"/></filter></defs><rect x="928" y="246" width="572" height="702" fill="#000" opacity="0.28" filter="url(#a24b-sh)"/><rect x="914" y="224" width="572" height="702" fill="#4a3d2f"/><rect x="930.9" y="240.9" width="538.2" height="668.2" fill="none" stroke="#00000055" stroke-width="3"/><rect x="940" y="250" width="520" height="650" fill="#f6f2ea"/><svg x="979" y="289" width="442" height="572" viewBox="0 0 2400 3000" preserveAspectRatio="xMidYMid slice"><filter id="a24-warp" x="-4%" y="-4%" width="108%" height="108%"><feTurbulence type="fractalNoise" baseFrequency="0.0105" numOctaves="2" seed="1714" result="w"/><feDisplacementMap in="SourceGraphic" in2="w" scale="11" xChannelSelector="R" yChannelSelector="G"/></filter><filter id="a24-grain" x="0%" y="0%" width="100%" height="100%"><feTurbulence type="fractalNoise" baseFrequency="0.6" numOctaves="2" seed="1721"/><feColorMatrix type="matrix" values="0.33 0.33 0.33 0 0.62  0.33 0.33 0.33 0 0.62  0.33 0.33 0.33 0 0.62  0 0 0 0 1"/></filter><filter id="a24-mottle" x="0%" y="0%" width="100%" height="100%"><feTurbulence type="fractalNoise" baseFrequency="0.0045" numOctaves="3" seed="1727"/><feColorMatrix type="matrix" values="0.2 0.2 0.2 0 0.78  0.2 0.2 0.2 0 0.78  0.2 0.2 0.2 0 0.78  0 0 0 0 1"/></filter><filter id="a24-fade" x="0%" y="0%" width="100%" height="100%"><feTurbulence type="fractalNoise" baseFrequency="0.006" numOctaves="2" seed="1743"/><feColorMatrix type="matrix" values="0.3 0.3 0.3 0 -0.08  0.3 0.3 0.3 0 -0.08  0.3 0.3 0.3 0 -0.1  0 0 0 0 1"/></filter><filter id="a24-blur9"><feGaussianBlur stdDeviation="9"/></filter><radialGradient id="a24-vig" cx="50%" cy="44%" r="78%"><stop offset="52%" stop-color="#241a10" stop-opacity="0"/><stop offset="100%" stop-color="#241a10" stop-opacity="0.17"/></radialGradient><radialGradient id="a24-warm" cx="64%" cy="30%" r="85%"><stop offset="0%" stop-color="#e8c890" stop-opacity="0.14"/><stop offset="70%" stop-color="#e8c890" stop-opacity="0"/></radialGradient><rect width="2400" height="3000" fill="#d9c49a"/><rect width="2400" height="3000" fill="url(#a24-warm)"/><rect x="0" width="23.5" height="3000" fill="#6b4e26" opacity="0.041"/><rect x="32.6" width="41.7" height="3000" fill="#6b4e26" opacity="0.074"/><rect x="90.5" width="35.3" height="3000" fill="#6b4e26" opacity="0.091"/><rect x="139.5" width="29.1" height="3000" fill="#6b4e26" opacity="0.063"/><rect x="179.9" width="31.6" height="3000" fill="#6b4e26" opacity="0.079"/><rect x="223.9" width="26.8" height="3000" fill="#6b4e26" opacity="0.075"/><rect x="261.1" width="32.7" height="3000" fill="#6b4e26" opacity="0.088"/><rect x="306.6" width="37.7" height="3000" fill="#6b4e26" opacity="0.043"/><rect x="359" width="35.2" height="3000" fill="#6b4e26" opacity="0.054"/><rect x="407.9" width="38.2" height="3000" fill="#6b4e26" opacity="0.091"/><rect x="461" width="34.1" height="3000" fill="#6b4e26" opacity="0.041"/><rect x="508.3" width="21.9" height="3000" fill="#6b4e26" opacity="0.045"/><rect x="538.8" width="22.7" height="3000" fill="#6b4e26" opacity="0.043"/><rect x="570.3" width="27.2" height="3000" fill="#6b4e26" opacity="0.072"/><rect x="608.1" width="34.9" height="3000" fill="#6b4e26" opacity="0.032"/><rect x="656.6" width="43" height="3000" fill="#6b4e26" opacity="0.053"/><rect x="716.3" width="33.1" height="3000" fill="#6b4e26" opacity="0.064"/><rect x="762.3" width="35.9" height="3000" fill="#6b4e26" opacity="0.080"/><rect x="812.1" width="37" height="3000" fill="#6b4e26" opacity="0.056"/><rect x="863.5" width="23.6" height="3000" fill="#6b4e26" opacity="0.077"/><rect x="896.3" width="22" height="3000" fill="#6b4e26" opacity="0.041"/><rect x="926.9" width="37.5" height="3000" fill="#6b4e26" opacity="0.033"/><rect x="978.9" width="27.6" height="3000" fill="#6b4e26" opacity="0.072"/><rect x="1017.3" width="38.4" height="3000" fill="#6b4e26" opacity="0.068"/><rect x="1070.7" width="27.3" height="3000" fill="#6b4e26" opacity="0.048"/><rect x="1108.6" width="33.2" height="3000" fill="#6b4e26" opacity="0.096"/><rect x="1154.7" width="22.9" height="3000" fill="#6b4e26" opacity="0.052"/><rect x="1186.5" width="20.2" height="3000" fill="#6b4e26" opacity="0.055"/><rect x="1214.7" width="34.9" height="3000" fill="#6b4e26" opacity="0.069"/><rect x="1263.1" width="25.9" height="3000" fill="#6b4e26" opacity="0.039"/><rect x="1299.1" width="27" height="3000" fill="#6b4e26" opacity="0.034"/><rect x="1336.6" width="36" height="3000" fill="#6b4e26" opacity="0.072"/><rect x="1386.7" width="34.9" height="3000" fill="#6b4e26" opacity="0.098"/><rect x="1435.2" width="32.9" height="3000" fill="#6b4e26" opacity="0.099"/><rect x="1480.9" width="33.4" height="3000" fill="#6b4e26" opacity="0.098"/><rect x="1527.3" width="40.9" height="3000" fill="#6b4e26" opacity="0.070"/><rect x="1584.2" width="23.6" height="3000" fill="#6b4e26" opacity="0.090"/><rect x="1617" width="38.8" height="3000" fill="#6b4e26" opacity="0.076"/><rect x="1670.9" width="40.4" height="3000" fill="#6b4e26" opacity="0.097"/><rect x="1727" width="23.7" height="3000" fill="#6b4e26" opacity="0.048"/><rect x="1759.9" width="23.1" height="3000" fill="#6b4e26" opacity="0.089"/><rect x="1792" width="30.3" height="3000" fill="#6b4e26" opacity="0.090"/><rect x="1834" width="39.8" height="3000" fill="#6b4e26" opacity="0.053"/><rect x="1889.3" width="26.9" height="3000" fill="#6b4e26" opacity="0.098"/><rect x="1926.7" width="40.1" height="3000" fill="#6b4e26" opacity="0.050"/><rect x="1982.3" width="33.7" height="3000" fill="#6b4e26" opacity="0.087"/><rect x="2029.2" width="29.1" height="3000" fill="#6b4e26" opacity="0.068"/><rect x="2069.6" width="36.7" height="3000" fill="#6b4e26" opacity="0.061"/><rect x="2120.6" width="24.2" height="3000" fill="#6b4e26" opacity="0.089"/><rect x="2154.3" width="24" height="3000" fill="#6b4e26" opacity="0.050"/><rect x="2187.6" width="23.2" height="3000" fill="#6b4e26" opacity="0.035"/><rect x="2219.9" width="35.8" height="3000" fill="#6b4e26" opacity="0.089"/><rect x="2269.6" width="19.8" height="3000" fill="#6b4e26" opacity="0.056"/><rect x="2297.1" width="40.6" height="3000" fill="#6b4e26" opacity="0.065"/><rect x="2353.5" width="40.9" height="3000" fill="#6b4e26" opacity="0.065"/><rect y="0" width="2400" height="25.1" fill="#7c5c30" opacity="0.024"/><rect y="41.8" width="2400" height="22.8" fill="#7c5c30" opacity="0.057"/><rect y="79.9" width="2400" height="27.4" fill="#7c5c30" opacity="0.039"/><rect y="125.6" width="2400" height="19.1" fill="#7c5c30" opacity="0.057"/><rect y="157.3" width="2400" height="27.8" fill="#7c5c30" opacity="0.031"/><rect y="203.7" width="2400" height="14.3" fill="#7c5c30" opacity="0.043"/><rect y="227.6" width="2400" height="13" fill="#7c5c30" opacity="0.057"/><rect y="249.2" width="2400" height="13.6" fill="#7c5c30" opacity="0.057"/><rect y="271.9" width="2400" height="19.5" fill="#7c5c30" opacity="0.036"/><rect y="304.4" width="2400" height="18.2" fill="#7c5c30" opacity="0.054"/><rect y="334.7" width="2400" height="26.4" fill="#7c5c30" opacity="0.048"/><rect y="378.7" width="2400" height="27" fill="#7c5c30" opacity="0.053"/><rect y="423.7" width="2400" height="20.9" fill="#7c5c30" opacity="0.020"/><rect y="458.5" width="2400" height="25.7" fill="#7c5c30" opacity="0.033"/><rect y="501.4" width="2400" height="27.8" fill="#7c5c30" opacity="0.052"/><rect y="547.8" width="2400" height="19.8" fill="#7c5c30" opacity="0.038"/><rect y="580.7" width="2400" height="20.5" fill="#7c5c30" opacity="0.028"/><rect y="614.9" width="2400" height="23.4" fill="#7c5c30" opacity="0.059"/><rect y="654" width="2400" height="14.7" fill="#7c5c30" opacity="0.022"/><rect y="678.4" width="2400" height="23.1" fill="#7c5c30" opacity="0.053"/><rect y="716.9" width="2400" height="22.8" fill="#7c5c30" opacity="0.035"/><rect y="755" width="2400" height="16.6" fill="#7c5c30" opacity="0.039"/><rect y="782.7" width="2400" height="25.4" fill="#7c5c30" opacity="0.023"/><rect y="825" width="2400" height="14.4" fill="#7c5c30" opacity="0.046"/><rect y="849" width="2400" height="26.4" fill="#7c5c30" opacity="0.037"/><rect y="892.9" width="2400" height="25.9" fill="#7c5c30" opacity="0.055"/><rect y="936.1" width="2400" height="27.3" fill="#7c5c30" opacity="0.030"/><rect y="981.6" width="2400" height="24.9" fill="#7c5c30" opacity="0.043"/><rect y="1023.2" width="2400" height="20.3" fill="#7c5c30" opacity="0.041"/><rect y="1057.1" width="2400" height="16.3" fill="#7c5c30" opacity="0.042"/><rect y="1084.2" width="2400" height="20.1" fill="#7c5c30" opacity="0.040"/><rect y="1117.7" width="2400" height="13.5" fill="#7c5c30" opacity="0.022"/><rect y="1140.3" width="2400" height="16.1" fill="#7c5c30" opacity="0.039"/><rect y="1167.1" width="2400" height="16.8" fill="#7c5c30" opacity="0.033"/><rect y="1195.2" width="2400" height="28.5" fill="#7c5c30" opacity="0.050"/><rect y="1242.8" width="2400" height="25.7" fill="#7c5c30" opacity="0.044"/><rect y="1285.7" width="2400" height="28.5" fill="#7c5c30" opacity="0.058"/><rect y="1333.1" width="2400" height="14.2" fill="#7c5c30" opacity="0.057"/><rect y="1356.8" width="2400" height="16.7" fill="#7c5c30" opacity="0.050"/><rect y="1384.7" width="2400" height="16" fill="#7c5c30" opacity="0.037"/><rect y="1411.3" width="2400" height="23.9" fill="#7c5c30" opacity="0.059"/><rect y="1451.2" width="2400" height="23.3" fill="#7c5c30" opacity="0.038"/><rect y="1490" width="2400" height="27.1" fill="#7c5c30" opacity="0.025"/><rect y="1535.1" width="2400" height="15.8" fill="#7c5c30" opacity="0.031"/><rect y="1561.5" width="2400" height="19.5" fill="#7c5c30" opacity="0.055"/><rect y="1594" width="2400" height="27.2" fill="#7c5c30" opacity="0.026"/><rect y="1639.3" width="2400" height="28.5" fill="#7c5c30" opacity="0.032"/><rect y="1686.8" width="2400" height="15.4" fill="#7c5c30" opacity="0.024"/><rect y="1712.5" width="2400" height="16.9" fill="#7c5c30" opacity="0.031"/><rect y="1740.7" width="2400" height="13.9" fill="#7c5c30" opacity="0.051"/><rect y="1763.9" width="2400" height="17.8" fill="#7c5c30" opacity="0.029"/><rect y="1793.6" width="2400" height="15.1" fill="#7c5c30" opacity="0.041"/><rect y="1818.8" width="2400" height="19.9" fill="#7c5c30" opacity="0.030"/><rect y="1852" width="2400" height="20.7" fill="#7c5c30" opacity="0.022"/><rect y="1886.5" width="2400" height="18.4" fill="#7c5c30" opacity="0.026"/><rect y="1917.2" width="2400" height="25.2" fill="#7c5c30" opacity="0.059"/><rect y="1959.3" width="2400" height="23.9" fill="#7c5c30" opacity="0.022"/><rect y="1999.1" width="2400" height="13.6" fill="#7c5c30" opacity="0.032"/><rect y="2021.7" width="2400" height="26.1" fill="#7c5c30" opacity="0.052"/><rect y="2065.1" width="2400" height="15" fill="#7c5c30" opacity="0.028"/><rect y="2090.1" width="2400" height="19.6" fill="#7c5c30" opacity="0.056"/><rect y="2122.7" width="2400" height="25.3" fill="#7c5c30" opacity="0.032"/><rect y="2164.9" width="2400" height="13.4" fill="#7c5c30" opacity="0.024"/><rect y="2187.2" width="2400" height="19.3" fill="#7c5c30" opacity="0.030"/><rect y="2219.4" width="2400" height="23.8" fill="#7c5c30" opacity="0.039"/><rect y="2259" width="2400" height="24.1" fill="#7c5c30" opacity="0.050"/><rect y="2299.2" width="2400" height="12.4" fill="#7c5c30" opacity="0.046"/><rect y="2319.7" width="2400" height="14.2" fill="#7c5c30" opacity="0.034"/><rect y="2343.4" width="2400" height="21.8" fill="#7c5c30" opacity="0.056"/><rect y="2379.8" width="2400" height="12.7" fill="#7c5c30" opacity="0.040"/><rect y="2401" width="2400" height="27.4" fill="#7c5c30" opacity="0.057"/><rect y="2446.6" width="2400" height="22.2" fill="#7c5c30" opacity="0.032"/><rect y="2483.6" width="2400" height="28.5" fill="#7c5c30" opacity="0.050"/><rect y="2531.1" width="2400" height="17.2" fill="#7c5c30" opacity="0.031"/><rect y="2559.7" width="2400" height="15.2" fill="#7c5c30" opacity="0.035"/><rect y="2585" width="2400" height="24.3" fill="#7c5c30" opacity="0.044"/><rect y="2625.5" width="2400" height="26.4" fill="#7c5c30" opacity="0.021"/><rect y="2669.4" width="2400" height="17.9" fill="#7c5c30" opacity="0.025"/><rect y="2699.2" width="2400" height="27.4" fill="#7c5c30" opacity="0.027"/><rect y="2744.9" width="2400" height="12.4" fill="#7c5c30" opacity="0.034"/><rect y="2765.6" width="2400" height="19.6" fill="#7c5c30" opacity="0.038"/><rect y="2798.3" width="2400" height="14.1" fill="#7c5c30" opacity="0.040"/><rect y="2821.8" width="2400" height="22.3" fill="#7c5c30" opacity="0.045"/><rect y="2859" width="2400" height="26.9" fill="#7c5c30" opacity="0.052"/><rect y="2903.8" width="2400" height="15.7" fill="#7c5c30" opacity="0.052"/><rect y="2929.8" width="2400" height="20" fill="#7c5c30" opacity="0.058"/><rect y="2963.2" width="2400" height="12.3" fill="#7c5c30" opacity="0.052"/><rect y="2983.8" width="2400" height="15" fill="#7c5c30" opacity="0.031"/><g filter="url(#a24-warp)"><rect x="210" y="300" width="1980" height="8.9" fill="#2c2820"/><rect x="210" y="308.4" width="1980" height="8.9" fill="#a8502f"/><rect x="210" y="316.8" width="1980" height="8.9" fill="#2c2820"/><rect x="210" y="325.2" width="1980" height="8.9" fill="#b8a276"/><rect x="210" y="333.6" width="1980" height="8.9" fill="#2c2820"/><rect x="210" y="885" width="1980" height="8.9" fill="#2c2820"/><rect x="210" y="893.4" width="1980" height="8.9" fill="#a8502f"/><rect x="210" y="901.8" width="1980" height="8.9" fill="#2c2820"/><rect x="210" y="910.2" width="1980" height="8.9" fill="#b8a276"/><rect x="210" y="918.6" width="1980" height="8.9" fill="#2c2820"/><rect x="210" y="1470" width="1980" height="8.9" fill="#2c2820"/><rect x="210" y="1478.4" width="1980" height="8.9" fill="#a8502f"/><rect x="210" y="1486.8" width="1980" height="8.9" fill="#2c2820"/><rect x="210" y="1495.2" width="1980" height="8.9" fill="#b8a276"/><rect x="210" y="1503.6" width="1980" height="8.9" fill="#2c2820"/><rect x="210" y="2055" width="1980" height="8.9" fill="#2c2820"/><rect x="210" y="2063.4" width="1980" height="8.9" fill="#a8502f"/><rect x="210" y="2071.8" width="1980" height="8.9" fill="#2c2820"/><rect x="210" y="2080.2" width="1980" height="8.9" fill="#b8a276"/><rect x="210" y="2088.6" width="1980" height="8.9" fill="#2c2820"/><rect x="210" y="2640" width="1980" height="8.9" fill="#2c2820"/><rect x="210" y="2648.4" width="1980" height="8.9" fill="#a8502f"/><rect x="210" y="2656.8" width="1980" height="8.9" fill="#2c2820"/><rect x="210" y="2665.2" width="1980" height="8.9" fill="#b8a276"/><rect x="210" y="2673.6" width="1980" height="8.9" fill="#2c2820"/><path d="M0 0 Q 72.1 -112.1 0 -295 Q -72.1 -112.1 0 0 Z" fill="#2c2820" opacity="1" transform="translate(408 809.7) rotate(-58)"/><path d="M0 0 Q 72.1 -132.2 0 -347.8 Q -72.1 -132.2 0 0 Z" fill="#a8502f" opacity="1" transform="translate(408 809.7) rotate(-29)"/><path d="M0 0 Q 72.1 -152.2 0 -400.6 Q -72.1 -152.2 0 0 Z" fill="#2c2820" opacity="1" transform="translate(408 809.7) rotate(0)"/><path d="M0 0 Q 72.1 -132.2 0 -347.8 Q -72.1 -132.2 0 0 Z" fill="#a8502f" opacity="1" transform="translate(408 809.7) rotate(29)"/><path d="M0 0 Q 72.1 -112.1 0 -295 Q -72.1 -112.1 0 0 Z" fill="#2c2820" opacity="1" transform="translate(408 809.7) rotate(58)"/><path d="M287.8,809.7 Q408,945.9 528.2,809.7 Z" fill="#2c2820"/><path d="M0 0 Q 66.6 -126.5 0 -332.9 Q -66.6 -126.5 0 0 Z" fill="#a8502f" opacity="1" transform="translate(804 809.7) rotate(0)"/><line x1="804" y1="809.7" x2="804" y2="856.5" stroke="#2c2820" stroke-width="20.8"/><path d="M0 0 Q 75 -116.6 0 -306.8 Q -75 -116.6 0 0 Z" fill="#2c2820" opacity="1" transform="translate(1200 809.7) rotate(-58)"/><path d="M0 0 Q 75 -133.3 0 -350.8 Q -75 -133.3 0 0 Z" fill="#a8502f" opacity="1" transform="translate(1200 809.7) rotate(-34.8)"/><path d="M0 0 Q 75 -150 0 -394.7 Q -75 -150 0 0 Z" fill="#2c2820" opacity="1" transform="translate(1200 809.7) rotate(-11.6)"/><path d="M0 0 Q 75 -150 0 -394.7 Q -75 -150 0 0 Z" fill="#a8502f" opacity="1" transform="translate(1200 809.7) rotate(11.6)"/><path d="M0 0 Q 75 -133.3 0 -350.8 Q -75 -133.3 0 0 Z" fill="#2c2820" opacity="1" transform="translate(1200 809.7) rotate(34.8)"/><path d="M0 0 Q 75 -116.6 0 -306.8 Q -75 -116.6 0 0 Z" fill="#a8502f" opacity="1" transform="translate(1200 809.7) rotate(58)"/><path d="M1075,809.7 Q1200,951.4 1325,809.7 Z" fill="#2c2820"/><path d="M0 0 Q 61.1 -116.2 0 -305.7 Q -61.1 -116.2 0 0 Z" fill="#a8502f" opacity="1" transform="translate(1596 809.7) rotate(0)"/><line x1="1596" y1="809.7" x2="1596" y2="856.5" stroke="#2c2820" stroke-width="19.1"/><path d="M0 0 Q 67.8 -105.3 0 -277.2 Q -67.8 -105.3 0 0 Z" fill="#2c2820" opacity="1" transform="translate(1992 809.7) rotate(-58)"/><path d="M0 0 Q 67.8 -117.9 0 -310.3 Q -67.8 -117.9 0 0 Z" fill="#a8502f" opacity="1" transform="translate(1992 809.7) rotate(-38.7)"/><path d="M0 0 Q 67.8 -130.5 0 -343.3 Q -67.8 -130.5 0 0 Z" fill="#2c2820" opacity="1" transform="translate(1992 809.7) rotate(-19.3)"/><path d="M0 0 Q 67.8 -143 0 -376.4 Q -67.8 -143 0 0 Z" fill="#a8502f" opacity="1" transform="translate(1992 809.7) rotate(0)"/><path d="M0 0 Q 67.8 -130.5 0 -343.3 Q -67.8 -130.5 0 0 Z" fill="#2c2820" opacity="1" transform="translate(1992 809.7) rotate(19.3)"/><path d="M0 0 Q 67.8 -117.9 0 -310.3 Q -67.8 -117.9 0 0 Z" fill="#a8502f" opacity="1" transform="translate(1992 809.7) rotate(38.7)"/><path d="M0 0 Q 67.8 -105.3 0 -277.2 Q -67.8 -105.3 0 0 Z" fill="#2c2820" opacity="1" transform="translate(1992 809.7) rotate(58)"/><path d="M1879.1,809.7 Q1992,937.7 2104.9,809.7 Z" fill="#2c2820"/><line x1="408" y1="1394.7" x2="408" y2="1168.3" stroke="#2c2820" stroke-width="24.7"/><line x1="408" y1="1168.3" x2="245.2" y2="1089" stroke="#2c2820" stroke-width="18.5" stroke-linecap="round"/><circle cx="245.2" cy="1089" r="18.5" fill="#a8502f"/><line x1="408" y1="1168.3" x2="259.7" y2="1034.8" stroke="#2c2820" stroke-width="18.5" stroke-linecap="round"/><circle cx="259.7" cy="1034.8" r="18.5" fill="#a8502f"/><line x1="408" y1="1168.3" x2="292.4" y2="983.4" stroke="#2c2820" stroke-width="18.5" stroke-linecap="round"/><circle cx="292.4" cy="983.4" r="18.5" fill="#a8502f"/><line x1="408" y1="1168.3" x2="342.8" y2="940.9" stroke="#2c2820" stroke-width="18.5" stroke-linecap="round"/><circle cx="342.8" cy="940.9" r="18.5" fill="#a8502f"/><line x1="408" y1="1168.3" x2="408" y2="913.2" stroke="#2c2820" stroke-width="18.5" stroke-linecap="round"/><circle cx="408" cy="913.2" r="18.5" fill="#a8502f"/><line x1="408" y1="1168.3" x2="473.2" y2="940.9" stroke="#2c2820" stroke-width="18.5" stroke-linecap="round"/><circle cx="473.2" cy="940.9" r="18.5" fill="#a8502f"/><line x1="408" y1="1168.3" x2="523.6" y2="983.4" stroke="#2c2820" stroke-width="18.5" stroke-linecap="round"/><circle cx="523.6" cy="983.4" r="18.5" fill="#a8502f"/><line x1="408" y1="1168.3" x2="556.3" y2="1034.8" stroke="#2c2820" stroke-width="18.5" stroke-linecap="round"/><circle cx="556.3" cy="1034.8" r="18.5" fill="#a8502f"/><line x1="408" y1="1168.3" x2="570.8" y2="1089" stroke="#2c2820" stroke-width="18.5" stroke-linecap="round"/><circle cx="570.8" cy="1089" r="18.5" fill="#a8502f"/><line x1="804" y1="1394.7" x2="804" y2="1194.2" stroke="#2c2820" stroke-width="21.9"/><line x1="804" y1="1194.2" x2="659.8" y2="1123.9" stroke="#2c2820" stroke-width="16.4" stroke-linecap="round"/><circle cx="659.8" cy="1123.9" r="16.4" fill="#a8502f"/><line x1="804" y1="1194.2" x2="672.6" y2="1075.9" stroke="#2c2820" stroke-width="16.4" stroke-linecap="round"/><circle cx="672.6" cy="1075.9" r="16.4" fill="#a8502f"/><line x1="804" y1="1194.2" x2="701.6" y2="1030.3" stroke="#2c2820" stroke-width="16.4" stroke-linecap="round"/><circle cx="701.6" cy="1030.3" r="16.4" fill="#a8502f"/><line x1="804" y1="1194.2" x2="746.2" y2="992.7" stroke="#2c2820" stroke-width="16.4" stroke-linecap="round"/><circle cx="746.2" cy="992.7" r="16.4" fill="#a8502f"/><line x1="804" y1="1194.2" x2="804" y2="968.2" stroke="#2c2820" stroke-width="16.4" stroke-linecap="round"/><circle cx="804" cy="968.2" r="16.4" fill="#a8502f"/><line x1="804" y1="1194.2" x2="861.8" y2="992.7" stroke="#2c2820" stroke-width="16.4" stroke-linecap="round"/><circle cx="861.8" cy="992.7" r="16.4" fill="#a8502f"/><line x1="804" y1="1194.2" x2="906.4" y2="1030.3" stroke="#2c2820" stroke-width="16.4" stroke-linecap="round"/><circle cx="906.4" cy="1030.3" r="16.4" fill="#a8502f"/><line x1="804" y1="1194.2" x2="935.4" y2="1075.9" stroke="#2c2820" stroke-width="16.4" stroke-linecap="round"/><circle cx="935.4" cy="1075.9" r="16.4" fill="#a8502f"/><line x1="804" y1="1194.2" x2="948.2" y2="1123.9" stroke="#2c2820" stroke-width="16.4" stroke-linecap="round"/><circle cx="948.2" cy="1123.9" r="16.4" fill="#a8502f"/><line x1="1200" y1="1394.7" x2="1200" y2="1181.3" stroke="#2c2820" stroke-width="23.3"/><line x1="1200" y1="1181.3" x2="1046.6" y2="1106.5" stroke="#2c2820" stroke-width="17.5" stroke-linecap="round"/><circle cx="1046.6" cy="1106.5" r="17.5" fill="#a8502f"/><line x1="1200" y1="1181.3" x2="1060.2" y2="1055.4" stroke="#2c2820" stroke-width="17.5" stroke-linecap="round"/><circle cx="1060.2" cy="1055.4" r="17.5" fill="#a8502f"/><line x1="1200" y1="1181.3" x2="1091" y2="1006.9" stroke="#2c2820" stroke-width="17.5" stroke-linecap="round"/><circle cx="1091" cy="1006.9" r="17.5" fill="#a8502f"/><line x1="1200" y1="1181.3" x2="1138.5" y2="966.8" stroke="#2c2820" stroke-width="17.5" stroke-linecap="round"/><circle cx="1138.5" cy="966.8" r="17.5" fill="#a8502f"/><line x1="1200" y1="1181.3" x2="1200" y2="940.7" stroke="#2c2820" stroke-width="17.5" stroke-linecap="round"/><circle cx="1200" cy="940.7" r="17.5" fill="#a8502f"/><line x1="1200" y1="1181.3" x2="1261.5" y2="966.8" stroke="#2c2820" stroke-width="17.5" stroke-linecap="round"/><circle cx="1261.5" cy="966.8" r="17.5" fill="#a8502f"/><line x1="1200" y1="1181.3" x2="1309" y2="1006.9" stroke="#2c2820" stroke-width="17.5" stroke-linecap="round"/><circle cx="1309" cy="1006.9" r="17.5" fill="#a8502f"/><line x1="1200" y1="1181.3" x2="1339.8" y2="1055.4" stroke="#2c2820" stroke-width="17.5" stroke-linecap="round"/><circle cx="1339.8" cy="1055.4" r="17.5" fill="#a8502f"/><line x1="1200" y1="1181.3" x2="1353.4" y2="1106.5" stroke="#2c2820" stroke-width="17.5" stroke-linecap="round"/><circle cx="1353.4" cy="1106.5" r="17.5" fill="#a8502f"/><line x1="1596" y1="1394.7" x2="1596" y2="1179.8" stroke="#2c2820" stroke-width="23.4"/><line x1="1596" y1="1179.8" x2="1441.5" y2="1104.4" stroke="#2c2820" stroke-width="17.6" stroke-linecap="round"/><circle cx="1441.5" cy="1104.4" r="17.6" fill="#a8502f"/><line x1="1596" y1="1179.8" x2="1455.2" y2="1053" stroke="#2c2820" stroke-width="17.6" stroke-linecap="round"/><circle cx="1455.2" cy="1053" r="17.6" fill="#a8502f"/><line x1="1596" y1="1179.8" x2="1486.3" y2="1004.2" stroke="#2c2820" stroke-width="17.6" stroke-linecap="round"/><circle cx="1486.3" cy="1004.2" r="17.6" fill="#a8502f"/><line x1="1596" y1="1179.8" x2="1534.1" y2="963.8" stroke="#2c2820" stroke-width="17.6" stroke-linecap="round"/><circle cx="1534.1" cy="963.8" r="17.6" fill="#a8502f"/><line x1="1596" y1="1179.8" x2="1596" y2="937.5" stroke="#2c2820" stroke-width="17.6" stroke-linecap="round"/><circle cx="1596" cy="937.5" r="17.6" fill="#a8502f"/><line x1="1596" y1="1179.8" x2="1657.9" y2="963.8" stroke="#2c2820" stroke-width="17.6" stroke-linecap="round"/><circle cx="1657.9" cy="963.8" r="17.6" fill="#a8502f"/><line x1="1596" y1="1179.8" x2="1705.7" y2="1004.2" stroke="#2c2820" stroke-width="17.6" stroke-linecap="round"/><circle cx="1705.7" cy="1004.2" r="17.6" fill="#a8502f"/><line x1="1596" y1="1179.8" x2="1736.8" y2="1053" stroke="#2c2820" stroke-width="17.6" stroke-linecap="round"/><circle cx="1736.8" cy="1053" r="17.6" fill="#a8502f"/><line x1="1596" y1="1179.8" x2="1750.5" y2="1104.4" stroke="#2c2820" stroke-width="17.6" stroke-linecap="round"/><circle cx="1750.5" cy="1104.4" r="17.6" fill="#a8502f"/><line x1="1992" y1="1394.7" x2="1992" y2="1192.7" stroke="#2c2820" stroke-width="22"/><line x1="1992" y1="1192.7" x2="1846.8" y2="1121.9" stroke="#2c2820" stroke-width="16.5" stroke-linecap="round"/><circle cx="1846.8" cy="1121.9" r="16.5" fill="#a8502f"/><line x1="1992" y1="1192.7" x2="1859.7" y2="1073.6" stroke="#2c2820" stroke-width="16.5" stroke-linecap="round"/><circle cx="1859.7" cy="1073.6" r="16.5" fill="#a8502f"/><line x1="1992" y1="1192.7" x2="1888.9" y2="1027.7" stroke="#2c2820" stroke-width="16.5" stroke-linecap="round"/><circle cx="1888.9" cy="1027.7" r="16.5" fill="#a8502f"/><line x1="1992" y1="1192.7" x2="1933.8" y2="989.8" stroke="#2c2820" stroke-width="16.5" stroke-linecap="round"/><circle cx="1933.8" cy="989.8" r="16.5" fill="#a8502f"/><line x1="1992" y1="1192.7" x2="1992" y2="965.1" stroke="#2c2820" stroke-width="16.5" stroke-linecap="round"/><circle cx="1992" cy="965.1" r="16.5" fill="#a8502f"/><line x1="1992" y1="1192.7" x2="2050.2" y2="989.8" stroke="#2c2820" stroke-width="16.5" stroke-linecap="round"/><circle cx="2050.2" cy="989.8" r="16.5" fill="#a8502f"/><line x1="1992" y1="1192.7" x2="2095.1" y2="1027.7" stroke="#2c2820" stroke-width="16.5" stroke-linecap="round"/><circle cx="2095.1" cy="1027.7" r="16.5" fill="#a8502f"/><line x1="1992" y1="1192.7" x2="2124.3" y2="1073.6" stroke="#2c2820" stroke-width="16.5" stroke-linecap="round"/><circle cx="2124.3" cy="1073.6" r="16.5" fill="#a8502f"/><line x1="1992" y1="1192.7" x2="2137.2" y2="1121.9" stroke="#2c2820" stroke-width="16.5" stroke-linecap="round"/><circle cx="2137.2" cy="1121.9" r="16.5" fill="#a8502f"/><path d="M0 0 Q 73.4 -114.1 0 -300.3 Q -73.4 -114.1 0 0 Z" fill="#2c2820" opacity="1" transform="translate(457.5 1979.7) rotate(-58)"/><path d="M0 0 Q 73.4 -130.4 0 -343.3 Q -73.4 -130.4 0 0 Z" fill="#a8502f" opacity="1" transform="translate(457.5 1979.7) rotate(-34.8)"/><path d="M0 0 Q 73.4 -146.8 0 -386.3 Q -73.4 -146.8 0 0 Z" fill="#2c2820" opacity="1" transform="translate(457.5 1979.7) rotate(-11.6)"/><path d="M0 0 Q 73.4 -146.8 0 -386.3 Q -73.4 -146.8 0 0 Z" fill="#a8502f" opacity="1" transform="translate(457.5 1979.7) rotate(11.6)"/><path d="M0 0 Q 73.4 -130.4 0 -343.3 Q -73.4 -130.4 0 0 Z" fill="#2c2820" opacity="1" transform="translate(457.5 1979.7) rotate(34.8)"/><path d="M0 0 Q 73.4 -114.1 0 -300.3 Q -73.4 -114.1 0 0 Z" fill="#a8502f" opacity="1" transform="translate(457.5 1979.7) rotate(58)"/><path d="M335.2,1979.7 Q457.5,2118.3 579.8,1979.7 Z" fill="#2c2820"/><path d="M0 0 Q 59.4 -112.9 0 -297.1 Q -59.4 -112.9 0 0 Z" fill="#a8502f" opacity="1" transform="translate(952.5 1979.7) rotate(0)"/><line x1="952.5" y1="1979.7" x2="952.5" y2="2026.5" stroke="#2c2820" stroke-width="18.6"/><path d="M0 0 Q 67 -104.2 0 -274.3 Q -67 -104.2 0 0 Z" fill="#2c2820" opacity="1" transform="translate(1447.5 1979.7) rotate(-58)"/><path d="M0 0 Q 67 -116.7 0 -307 Q -67 -116.7 0 0 Z" fill="#a8502f" opacity="1" transform="translate(1447.5 1979.7) rotate(-38.7)"/><path d="M0 0 Q 67 -129.1 0 -339.7 Q -67 -129.1 0 0 Z" fill="#2c2820" opacity="1" transform="translate(1447.5 1979.7) rotate(-19.3)"/><path d="M0 0 Q 67 -141.5 0 -372.5 Q -67 -141.5 0 0 Z" fill="#a8502f" opacity="1" transform="translate(1447.5 1979.7) rotate(0)"/><path d="M0 0 Q 67 -129.1 0 -339.7 Q -67 -129.1 0 0 Z" fill="#2c2820" opacity="1" transform="translate(1447.5 1979.7) rotate(19.3)"/><path d="M0 0 Q 67 -116.7 0 -307 Q -67 -116.7 0 0 Z" fill="#a8502f" opacity="1" transform="translate(1447.5 1979.7) rotate(38.7)"/><path d="M0 0 Q 67 -104.2 0 -274.3 Q -67 -104.2 0 0 Z" fill="#2c2820" opacity="1" transform="translate(1447.5 1979.7) rotate(58)"/><path d="M1335.8,1979.7 Q1447.5,2106.3 1559.2,1979.7 Z" fill="#2c2820"/><path d="M0 0 Q 65.1 -123.6 0 -325.3 Q -65.1 -123.6 0 0 Z" fill="#a8502f" opacity="1" transform="translate(1942.5 1979.7) rotate(0)"/><line x1="1942.5" y1="1979.7" x2="1942.5" y2="2026.5" stroke="#2c2820" stroke-width="20.3"/><line x1="457.5" y1="2564.7" x2="457.5" y2="2359.1" stroke="#2c2820" stroke-width="22.4"/><line x1="457.5" y1="2359.1" x2="309.7" y2="2287" stroke="#2c2820" stroke-width="16.8" stroke-linecap="round"/><circle cx="309.7" cy="2287" r="16.8" fill="#a8502f"/><line x1="457.5" y1="2359.1" x2="322.8" y2="2237.8" stroke="#2c2820" stroke-width="16.8" stroke-linecap="round"/><circle cx="322.8" cy="2237.8" r="16.8" fill="#a8502f"/><line x1="457.5" y1="2359.1" x2="352.5" y2="2191.1" stroke="#2c2820" stroke-width="16.8" stroke-linecap="round"/><circle cx="352.5" cy="2191.1" r="16.8" fill="#a8502f"/><line x1="457.5" y1="2359.1" x2="398.3" y2="2152.5" stroke="#2c2820" stroke-width="16.8" stroke-linecap="round"/><circle cx="398.3" cy="2152.5" r="16.8" fill="#a8502f"/><line x1="457.5" y1="2359.1" x2="457.5" y2="2127.4" stroke="#2c2820" stroke-width="16.8" stroke-linecap="round"/><circle cx="457.5" cy="2127.4" r="16.8" fill="#a8502f"/><line x1="457.5" y1="2359.1" x2="516.7" y2="2152.5" stroke="#2c2820" stroke-width="16.8" stroke-linecap="round"/><circle cx="516.7" cy="2152.5" r="16.8" fill="#a8502f"/><line x1="457.5" y1="2359.1" x2="562.5" y2="2191.1" stroke="#2c2820" stroke-width="16.8" stroke-linecap="round"/><circle cx="562.5" cy="2191.1" r="16.8" fill="#a8502f"/><line x1="457.5" y1="2359.1" x2="592.2" y2="2237.8" stroke="#2c2820" stroke-width="16.8" stroke-linecap="round"/><circle cx="592.2" cy="2237.8" r="16.8" fill="#a8502f"/><line x1="457.5" y1="2359.1" x2="605.3" y2="2287" stroke="#2c2820" stroke-width="16.8" stroke-linecap="round"/><circle cx="605.3" cy="2287" r="16.8" fill="#a8502f"/><line x1="952.5" y1="2564.7" x2="952.5" y2="2360.3" stroke="#2c2820" stroke-width="22.3"/><line x1="952.5" y1="2360.3" x2="805.5" y2="2288.6" stroke="#2c2820" stroke-width="16.7" stroke-linecap="round"/><circle cx="805.5" cy="2288.6" r="16.7" fill="#a8502f"/><line x1="952.5" y1="2360.3" x2="818.6" y2="2239.7" stroke="#2c2820" stroke-width="16.7" stroke-linecap="round"/><circle cx="818.6" cy="2239.7" r="16.7" fill="#a8502f"/><line x1="952.5" y1="2360.3" x2="848.1" y2="2193.3" stroke="#2c2820" stroke-width="16.7" stroke-linecap="round"/><circle cx="848.1" cy="2193.3" r="16.7" fill="#a8502f"/><line x1="952.5" y1="2360.3" x2="893.6" y2="2154.9" stroke="#2c2820" stroke-width="16.7" stroke-linecap="round"/><circle cx="893.6" cy="2154.9" r="16.7" fill="#a8502f"/><line x1="952.5" y1="2360.3" x2="952.5" y2="2129.9" stroke="#2c2820" stroke-width="16.7" stroke-linecap="round"/><circle cx="952.5" cy="2129.9" r="16.7" fill="#a8502f"/><line x1="952.5" y1="2360.3" x2="1011.4" y2="2154.9" stroke="#2c2820" stroke-width="16.7" stroke-linecap="round"/><circle cx="1011.4" cy="2154.9" r="16.7" fill="#a8502f"/><line x1="952.5" y1="2360.3" x2="1056.9" y2="2193.3" stroke="#2c2820" stroke-width="16.7" stroke-linecap="round"/><circle cx="1056.9" cy="2193.3" r="16.7" fill="#a8502f"/><line x1="952.5" y1="2360.3" x2="1086.4" y2="2239.7" stroke="#2c2820" stroke-width="16.7" stroke-linecap="round"/><circle cx="1086.4" cy="2239.7" r="16.7" fill="#a8502f"/><line x1="952.5" y1="2360.3" x2="1099.5" y2="2288.6" stroke="#2c2820" stroke-width="16.7" stroke-linecap="round"/><circle cx="1099.5" cy="2288.6" r="16.7" fill="#a8502f"/><line x1="1447.5" y1="2564.7" x2="1447.5" y2="2351.6" stroke="#2c2820" stroke-width="23.2"/><line x1="1447.5" y1="2351.6" x2="1294.3" y2="2276.9" stroke="#2c2820" stroke-width="17.4" stroke-linecap="round"/><circle cx="1294.3" cy="2276.9" r="17.4" fill="#a8502f"/><line x1="1447.5" y1="2351.6" x2="1307.9" y2="2225.9" stroke="#2c2820" stroke-width="17.4" stroke-linecap="round"/><circle cx="1307.9" cy="2225.9" r="17.4" fill="#a8502f"/><line x1="1447.5" y1="2351.6" x2="1338.7" y2="2177.5" stroke="#2c2820" stroke-width="17.4" stroke-linecap="round"/><circle cx="1338.7" cy="2177.5" r="17.4" fill="#a8502f"/><line x1="1447.5" y1="2351.6" x2="1386.1" y2="2137.4" stroke="#2c2820" stroke-width="17.4" stroke-linecap="round"/><circle cx="1386.1" cy="2137.4" r="17.4" fill="#a8502f"/><line x1="1447.5" y1="2351.6" x2="1447.5" y2="2111.4" stroke="#2c2820" stroke-width="17.4" stroke-linecap="round"/><circle cx="1447.5" cy="2111.4" r="17.4" fill="#a8502f"/><line x1="1447.5" y1="2351.6" x2="1508.9" y2="2137.4" stroke="#2c2820" stroke-width="17.4" stroke-linecap="round"/><circle cx="1508.9" cy="2137.4" r="17.4" fill="#a8502f"/><line x1="1447.5" y1="2351.6" x2="1556.3" y2="2177.5" stroke="#2c2820" stroke-width="17.4" stroke-linecap="round"/><circle cx="1556.3" cy="2177.5" r="17.4" fill="#a8502f"/><line x1="1447.5" y1="2351.6" x2="1587.1" y2="2225.9" stroke="#2c2820" stroke-width="17.4" stroke-linecap="round"/><circle cx="1587.1" cy="2225.9" r="17.4" fill="#a8502f"/><line x1="1447.5" y1="2351.6" x2="1600.7" y2="2276.9" stroke="#2c2820" stroke-width="17.4" stroke-linecap="round"/><circle cx="1600.7" cy="2276.9" r="17.4" fill="#a8502f"/><line x1="1942.5" y1="2564.7" x2="1942.5" y2="2361.1" stroke="#2c2820" stroke-width="22.2"/><line x1="1942.5" y1="2361.1" x2="1796.1" y2="2289.7" stroke="#2c2820" stroke-width="16.7" stroke-linecap="round"/><circle cx="1796.1" cy="2289.7" r="16.7" fill="#a8502f"/><line x1="1942.5" y1="2361.1" x2="1809.1" y2="2241" stroke="#2c2820" stroke-width="16.7" stroke-linecap="round"/><circle cx="1809.1" cy="2241" r="16.7" fill="#a8502f"/><line x1="1942.5" y1="2361.1" x2="1838.5" y2="2194.7" stroke="#2c2820" stroke-width="16.7" stroke-linecap="round"/><circle cx="1838.5" cy="2194.7" r="16.7" fill="#a8502f"/><line x1="1942.5" y1="2361.1" x2="1883.8" y2="2156.5" stroke="#2c2820" stroke-width="16.7" stroke-linecap="round"/><circle cx="1883.8" cy="2156.5" r="16.7" fill="#a8502f"/><line x1="1942.5" y1="2361.1" x2="1942.5" y2="2131.6" stroke="#2c2820" stroke-width="16.7" stroke-linecap="round"/><circle cx="1942.5" cy="2131.6" r="16.7" fill="#a8502f"/><line x1="1942.5" y1="2361.1" x2="2001.2" y2="2156.5" stroke="#2c2820" stroke-width="16.7" stroke-linecap="round"/><circle cx="2001.2" cy="2156.5" r="16.7" fill="#a8502f"/><line x1="1942.5" y1="2361.1" x2="2046.5" y2="2194.7" stroke="#2c2820" stroke-width="16.7" stroke-linecap="round"/><circle cx="2046.5" cy="2194.7" r="16.7" fill="#a8502f"/><line x1="1942.5" y1="2361.1" x2="2075.9" y2="2241" stroke="#2c2820" stroke-width="16.7" stroke-linecap="round"/><circle cx="2075.9" cy="2241" r="16.7" fill="#a8502f"/><line x1="1942.5" y1="2361.1" x2="2088.9" y2="2289.7" stroke="#2c2820" stroke-width="16.7" stroke-linecap="round"/><circle cx="2088.9" cy="2289.7" r="16.7" fill="#a8502f"/><rect x="120" y="120" width="2160" height="2760" fill="none" stroke="#2c2820" stroke-width="6" opacity="0.85"/></g><rect width="2400" height="3000" filter="url(#a24-mottle)" style="mix-blend-mode:multiply" opacity="0.5"/><rect width="2400" height="3000" filter="url(#a24-fade)" style="mix-blend-mode:screen" opacity="0.55"/><rect width="2400" height="3000" filter="url(#a24-grain)" style="mix-blend-mode:multiply" opacity="0.32"/><ellipse cx="235.1" cy="2440.6" rx="144.3" ry="138.6" fill="#6b4a22" opacity="0.050" filter="url(#a24-blur9)"/><ellipse cx="264.3" cy="847.4" rx="280.9" ry="260.2" fill="#6b4a22" opacity="0.050" filter="url(#a24-blur9)"/><ellipse cx="1417.2" cy="2643" rx="113.2" ry="82.3" fill="#6b4a22" opacity="0.067" filter="url(#a24-blur9)"/><ellipse cx="183.6" cy="2765.5" rx="299.1" ry="268.7" fill="#6b4a22" opacity="0.036" filter="url(#a24-blur9)"/><rect x="0" width="34.4" height="3000" fill="#fff2d0" opacity="0.028"/><rect x="68.8" width="25" height="3000" fill="#fff2d0" opacity="0.029"/><rect x="118.9" width="34.6" height="3000" fill="#fff2d0" opacity="0.039"/><rect x="188.1" width="27.2" height="3000" fill="#fff2d0" opacity="0.036"/><rect x="242.5" width="22.5" height="3000" fill="#fff2d0" opacity="0.030"/><rect x="287.5" width="16.2" height="3000" fill="#fff2d0" opacity="0.031"/><rect x="319.9" width="25.8" height="3000" fill="#fff2d0" opacity="0.023"/><rect x="371.5" width="29.1" height="3000" fill="#fff2d0" opacity="0.017"/><rect x="429.6" width="29.2" height="3000" fill="#fff2d0" opacity="0.022"/><rect x="488" width="32.4" height="3000" fill="#fff2d0" opacity="0.017"/><rect x="552.8" width="33.3" height="3000" fill="#fff2d0" opacity="0.039"/><rect x="619.4" width="26.7" height="3000" fill="#fff2d0" opacity="0.038"/><rect x="672.9" width="16.4" height="3000" fill="#fff2d0" opacity="0.015"/><rect x="705.8" width="15.6" height="3000" fill="#fff2d0" opacity="0.041"/><rect x="737" width="15.8" height="3000" fill="#fff2d0" opacity="0.016"/><rect x="768.7" width="28.5" height="3000" fill="#fff2d0" opacity="0.031"/><rect x="825.8" width="33.1" height="3000" fill="#fff2d0" opacity="0.029"/><rect x="891.9" width="22.6" height="3000" fill="#fff2d0" opacity="0.038"/><rect x="937.1" width="28.3" height="3000" fill="#fff2d0" opacity="0.026"/><rect x="993.6" width="29.3" height="3000" fill="#fff2d0" opacity="0.036"/><rect x="1052.2" width="20.3" height="3000" fill="#fff2d0" opacity="0.035"/><rect x="1092.8" width="20.1" height="3000" fill="#fff2d0" opacity="0.027"/><rect x="1132.9" width="22.1" height="3000" fill="#fff2d0" opacity="0.017"/><rect x="1177.1" width="17.7" height="3000" fill="#fff2d0" opacity="0.026"/><rect x="1212.4" width="34.6" height="3000" fill="#fff2d0" opacity="0.017"/><rect x="1281.6" width="17.7" height="3000" fill="#fff2d0" opacity="0.036"/><rect x="1316.9" width="23.7" height="3000" fill="#fff2d0" opacity="0.015"/><rect x="1364.2" width="19" height="3000" fill="#fff2d0" opacity="0.015"/><rect x="1402.3" width="27.6" height="3000" fill="#fff2d0" opacity="0.032"/><rect x="1457.6" width="32.7" height="3000" fill="#fff2d0" opacity="0.036"/><rect x="1523" width="26" height="3000" fill="#fff2d0" opacity="0.022"/><rect x="1575.1" width="30.8" height="3000" fill="#fff2d0" opacity="0.034"/><rect x="1636.6" width="31.6" height="3000" fill="#fff2d0" opacity="0.023"/><rect x="1699.8" width="27.5" height="3000" fill="#fff2d0" opacity="0.027"/><rect x="1754.8" width="24.1" height="3000" fill="#fff2d0" opacity="0.020"/><rect x="1803" width="25.8" height="3000" fill="#fff2d0" opacity="0.024"/><rect x="1854.5" width="23.3" height="3000" fill="#fff2d0" opacity="0.037"/><rect x="1901.2" width="22" height="3000" fill="#fff2d0" opacity="0.041"/><rect x="1945.2" width="24.4" height="3000" fill="#fff2d0" opacity="0.031"/><rect x="1993.9" width="34.8" height="3000" fill="#fff2d0" opacity="0.033"/><rect x="2063.6" width="34.8" height="3000" fill="#fff2d0" opacity="0.026"/><rect x="2133.2" width="19.9" height="3000" fill="#fff2d0" opacity="0.025"/><rect x="2173.1" width="32.8" height="3000" fill="#fff2d0" opacity="0.036"/><rect x="2238.8" width="34.3" height="3000" fill="#fff2d0" opacity="0.030"/><rect x="2307.3" width="28.2" height="3000" fill="#fff2d0" opacity="0.026"/><rect x="2363.7" width="28.6" height="3000" fill="#fff2d0" opacity="0.043"/><linearGradient id="a24-er" x1="0" x2="1" y1="0" y2="0"><stop offset="0" stop-color="#3a2a12" stop-opacity="0.22"/><stop offset="1" stop-color="#3a2a12" stop-opacity="0"/></linearGradient><rect x="0" y="0" width="90" height="3000" fill="url(#a24-er)"/><linearGradient id="a24-el" x1="1" x2="0" y1="0" y2="0"><stop offset="0" stop-color="#3a2a12" stop-opacity="0.22"/><stop offset="1" stop-color="#3a2a12" stop-opacity="0"/></linearGradient><rect x="2310" y="0" width="90" height="3000" fill="url(#a24-el)"/><linearGradient id="a24-ed" x1="0" x2="0" y1="0" y2="1"><stop offset="0" stop-color="#3a2a12" stop-opacity="0.22"/><stop offset="1" stop-color="#3a2a12" stop-opacity="0"/></linearGradient><rect x="0" y="0" width="2400" height="90" fill="url(#a24-ed)"/><linearGradient id="a24-eu" x1="0" x2="0" y1="1" y2="0"><stop offset="0" stop-color="#3a2a12" stop-opacity="0.22"/><stop offset="1" stop-color="#3a2a12" stop-opacity="0"/></linearGradient><rect x="0" y="2910" width="2400" height="90" fill="url(#a24-eu)"/><circle cx="1401.5" cy="1205.3" r="6.7" fill="#8a5a2e" opacity="0.080"/><circle cx="1431.9" cy="1863.9" r="4.4" fill="#8a5a2e" opacity="0.052"/><circle cx="1760.5" cy="1382.3" r="3.6" fill="#8a5a2e" opacity="0.047"/><circle cx="1394.9" cy="1701.4" r="7.5" fill="#8a5a2e" opacity="0.083"/><circle cx="443.9" cy="938.9" r="6.7" fill="#8a5a2e" opacity="0.064"/><circle cx="1076.3" cy="1312.8" r="3.7" fill="#8a5a2e" opacity="0.050"/><circle cx="1878.8" cy="917.4" r="6.1" fill="#8a5a2e" opacity="0.100"/><circle cx="1832.1" cy="1235.9" r="8" fill="#8a5a2e" opacity="0.100"/><circle cx="1823.2" cy="1686.9" r="7" fill="#8a5a2e" opacity="0.069"/><circle cx="355.3" cy="2201.7" r="5.3" fill="#8a5a2e" opacity="0.057"/><circle cx="2222.7" cy="2553.3" r="15.6" fill="#8a5a2e" opacity="0.079"/><circle cx="116.5" cy="1315.3" r="8" fill="#8a5a2e" opacity="0.110"/><circle cx="1760.8" cy="1957.6" r="5.8" fill="#8a5a2e" opacity="0.097"/><rect width="2400" height="3000" fill="url(#a24-vig)"/></svg></svg>