<svg xmlns="http://www.w3.org/2000/svg" width="2400" height="1800" viewBox="0 0 2400 1800"><rect width="2400" height="1800" fill="#e5ddcf"/><rect y="1430" width="2400" height="370" fill="#b89a76"/><line x1="100" y1="1430" x2="45" y2="1800" stroke="#00000016" stroke-width="5"/><line x1="330" y1="1430" x2="275" y2="1800" stroke="#00000016" stroke-width="5"/><line x1="560" y1="1430" x2="505" y2="1800" stroke="#00000016" stroke-width="5"/><line x1="790" y1="1430" x2="735" y2="1800" stroke="#00000016" stroke-width="5"/><line x1="1020" y1="1430" x2="965" y2="1800" stroke="#00000016" stroke-width="5"/><line x1="1250" y1="1430" x2="1195" y2="1800" stroke="#00000016" stroke-width="5"/><line x1="1480" y1="1430" x2="1425" y2="1800" stroke="#00000016" stroke-width="5"/><line x1="1710" y1="1430" x2="1655" y2="1800" stroke="#00000016" stroke-width="5"/><line x1="1940" y1="1430" x2="1885" y2="1800" stroke="#00000016" stroke-width="5"/><line x1="2170" y1="1430" x2="2115" y2="1800" stroke="#00000016" stroke-width="5"/><rect x="620" y="1180" width="1180" height="52" rx="10" fill="#8a6540"/><rect x="680" y="1232" width="70" height="330" fill="#775433"/><rect x="1670" y="1232" width="70" height="330" fill="#775433"/><rect x="760" y="1120" width="220" height="34" rx="6" fill="#87681c"/><rect x="780" y="1086" width="200" height="34" rx="6" fill="#39685c"/><rect x="800" y="1052" width="170" height="34" rx="6" fill="#c9a227"/><circle cx="1240" cy="1130" r="46" fill="#3f3428"/><rect x="1226" y="1048" width="16" height="60" fill="#3f3428" transform="rotate(18 1240 1090)"/><rect x="1420" y="1100" width="260" height="26" rx="13" fill="#e8dcc0"/><rect x="1450" y="1072" width="260" height="26" rx="13" fill="#dfd0ad"/><rect x="1080" y="1300" width="360" height="34" rx="14" fill="#6f5436"/><rect x="1100" y="1334" width="40" height="220" fill="#6f5436"/><rect x="1380" y="1334" width="40" height="220" fill="#6f5436"/><rect x="1080" y="1030" width="42" height="290" rx="14" fill="#6f5436"/><rect x="260" y="480" width="560" height="24" fill="#8a6540"/><rect x="300" y="360" width="90" height="120" fill="#b3502f"/><rect x="400" y="380" width="80" height="100" fill="#2c4661"/><rect x="490" y="350" width="86" height="130" fill="#96a396"/><path d="M700,480 Q 616,347 574,382" fill="none" stroke="#5d7052" stroke-width="11.2" stroke-linecap="round"/><path d="M700,480 Q 644,347 616,354" fill="none" stroke="#5d7052" stroke-width="11.2" stroke-linecap="round"/><path d="M700,480 Q 672,347 658,326" fill="none" stroke="#5d7052" stroke-width="11.2" stroke-linecap="round"/><path d="M700,480 Q 700,347 700,298" fill="none" stroke="#5d7052" stroke-width="11.2" stroke-linecap="round"/><path d="M700,480 Q 728,347 742,326" fill="none" stroke="#5d7052" stroke-width="11.2" stroke-linecap="round"/><path d="M700,480 Q 756,347 784,354" fill="none" stroke="#5d7052" stroke-width="11.2" stroke-linecap="round"/><path d="M700,480 Q 784,347 826,382" fill="none" stroke="#5d7052" stroke-width="11.2" stroke-linecap="round"/><path d="M651,480 L749,480 L736.4,557 L663.6,557 Z" fill="#a9714d"/><path d="M320,1520 Q 164,1273 86,1338" fill="none" stroke="#5d7052" stroke-width="20.8" stroke-linecap="round"/><path d="M320,1520 Q 216,1273 164,1286" fill="none" stroke="#5d7052" stroke-width="20.8" stroke-linecap="round"/><path d="M320,1520 Q 268,1273 242,1234" fill="none" stroke="#5d7052" stroke-width="20.8" stroke-linecap="round"/><path d="M320,1520 Q 320,1273 320,1182" fill="none" stroke="#5d7052" stroke-width="20.8" stroke-linecap="round"/><path d="M320,1520 Q 372,1273 398,1234" fill="none" stroke="#5d7052" stroke-width="20.8" stroke-linecap="round"/><path d="M320,1520 Q 424,1273 476,1286" fill="none" stroke="#5d7052" stroke-width="20.8" stroke-linecap="round"/><path d="M320,1520 Q 476,1273 554,1338" fill="none" stroke="#5d7052" stroke-width="20.8" stroke-linecap="round"/><path d="M229,1520 L411,1520 L387.6,1663 L252.4,1663 Z" fill="#a9714d"/><defs><filter id="a82s-sh" x="-30%" y="-30%" width="160%" height="160%"><feGaussianBlur stdDeviation="16"/></filter></defs><rect x="1206" y="294" width="616" height="756" fill="#000" opacity="0.28" filter="url(#a82s-sh)"/><rect x="1192" y="272" width="616" height="756" fill="#443a2d"/><rect x="1210.2" y="290.2" width="579.6" height="719.6" fill="none" stroke="#00000055" stroke-width="3"/><rect x="1220" y="300" width="560" height="700" fill="#f6f2ea"/><svg x="1262" y="342" width="476" height="616" viewBox="0 0 2400 3000" preserveAspectRatio="xMidYMid slice"><rect width="2400" height="3000" fill="#141b25"/><radialGradient id="a82-vig" cx="50%" cy="42%" r="80%"><stop offset="55%" stop-color="#000" stop-opacity="0"/><stop offset="100%" stop-color="#000" stop-opacity="0.15"/></radialGradient><rect width="2400" height="3000" fill="url(#a82-vig)"/><circle cx="417.7" cy="1542.1" r="1.6" fill="#c9a227" opacity="0.070"/><circle cx="1389.1" cy="855" r="1.5" fill="#c9a227" opacity="0.070"/><circle cx="2070.3" cy="438.8" r="4.2" fill="#c9a227" opacity="0.031"/><circle cx="694" cy="2379.3" r="4.1" fill="#c9a227" opacity="0.073"/><circle cx="2290.9" cy="869.3" r="3" fill="#c9a227" opacity="0.065"/><circle cx="2171.6" cy="2938.2" r="3.8" fill="#c9a227" opacity="0.038"/><circle cx="1621.9" cy="774.5" r="4.1" fill="#c9a227" opacity="0.043"/><circle cx="615.5" cy="1266.3" r="2.5" fill="#c9a227" opacity="0.041"/><circle cx="2025" cy="1409.6" r="3.3" fill="#c9a227" opacity="0.041"/><circle cx="1146.7" cy="1153.3" r="3.2" fill="#c9a227" opacity="0.055"/><circle cx="539.8" cy="1060.4" r="3.1" fill="#c9a227" opacity="0.053"/><circle cx="1939.9" cy="2235.3" r="4" fill="#c9a227" opacity="0.038"/><circle cx="393.3" cy="1073.3" r="2.1" fill="#c9a227" opacity="0.069"/><circle cx="1894.5" cy="2524" r="3.3" fill="#c9a227" opacity="0.041"/><circle cx="59.4" cy="1690.9" r="3.9" fill="#c9a227" opacity="0.045"/><circle cx="537.1" cy="2124.3" r="4.3" fill="#c9a227" opacity="0.034"/><circle cx="2329.8" cy="2608.6" r="4.1" fill="#c9a227" opacity="0.061"/><circle cx="469.6" cy="901.2" r="3.3" fill="#c9a227" opacity="0.048"/><circle cx="383.6" cy="57.6" r="4.2" fill="#c9a227" opacity="0.031"/><circle cx="139.7" cy="805.8" r="1.7" fill="#c9a227" opacity="0.074"/><circle cx="1378.4" cy="2056.4" r="3.3" fill="#c9a227" opacity="0.073"/><circle cx="1604.2" cy="810" r="4.5" fill="#c9a227" opacity="0.043"/><circle cx="146.1" cy="1153.8" r="2.2" fill="#c9a227" opacity="0.036"/><circle cx="2213" cy="1350.6" r="3.3" fill="#c9a227" opacity="0.054"/><circle cx="293.3" cy="555.4" r="3.5" fill="#c9a227" opacity="0.041"/><circle cx="775.1" cy="1245.9" r="2.7" fill="#c9a227" opacity="0.041"/><circle cx="750.5" cy="1473.5" r="4.3" fill="#c9a227" opacity="0.050"/><circle cx="922.2" cy="908.3" r="3.9" fill="#c9a227" opacity="0.069"/><circle cx="324.5" cy="2378.4" r="1.9" fill="#c9a227" opacity="0.065"/><circle cx="2079.3" cy="2186.8" r="1.7" fill="#c9a227" opacity="0.070"/><circle cx="779.3" cy="690.4" r="2.1" fill="#c9a227" opacity="0.053"/><circle cx="2302" cy="1649.7" r="1.9" fill="#c9a227" opacity="0.069"/><circle cx="619.4" cy="50.2" r="2.3" fill="#c9a227" opacity="0.062"/><circle cx="142.8" cy="1481.7" r="3.2" fill="#c9a227" opacity="0.064"/><circle cx="44" cy="117.9" r="1.5" fill="#c9a227" opacity="0.055"/><circle cx="660.1" cy="2717.5" r="2.8" fill="#c9a227" opacity="0.057"/><circle cx="1499.8" cy="799.4" r="2.9" fill="#c9a227" opacity="0.072"/><circle cx="1066.4" cy="2534.7" r="1.9" fill="#c9a227" opacity="0.032"/><circle cx="617" cy="2537.8" r="2.7" fill="#c9a227" opacity="0.035"/><circle cx="1939.1" cy="1972.8" r="2.6" fill="#c9a227" opacity="0.068"/><circle cx="941.9" cy="2466" r="2.3" fill="#c9a227" opacity="0.074"/><circle cx="392.7" cy="1898.4" r="3.9" fill="#c9a227" opacity="0.032"/><circle cx="464.6" cy="1040.2" r="3" fill="#c9a227" opacity="0.053"/><circle cx="1208.6" cy="308.8" r="2.2" fill="#c9a227" opacity="0.042"/><circle cx="632" cy="1422.8" r="1.8" fill="#c9a227" opacity="0.044"/><circle cx="422.8" cy="1201.4" r="1.8" fill="#c9a227" opacity="0.078"/><circle cx="1254.2" cy="905.4" r="3.5" fill="#c9a227" opacity="0.052"/><circle cx="2237.7" cy="2134" r="4" fill="#c9a227" opacity="0.034"/><circle cx="1485.3" cy="1242.3" r="3.8" fill="#c9a227" opacity="0.076"/><circle cx="2108.7" cy="2783.7" r="3" fill="#c9a227" opacity="0.057"/><circle cx="1701.6" cy="2492.4" r="3" fill="#c9a227" opacity="0.062"/><circle cx="983.6" cy="2380.2" r="1.7" fill="#c9a227" opacity="0.040"/><circle cx="558.5" cy="2900" r="4.4" fill="#c9a227" opacity="0.058"/><circle cx="1835.7" cy="1107.6" r="1.8" fill="#c9a227" opacity="0.063"/><circle cx="1794" cy="2793.7" r="3.9" fill="#c9a227" opacity="0.049"/><circle cx="1499.7" cy="1739" r="3.5" fill="#c9a227" opacity="0.044"/><circle cx="1269.8" cy="96.1" r="2.8" fill="#c9a227" opacity="0.060"/><circle cx="1657.8" cy="1952.1" r="4.1" fill="#c9a227" opacity="0.034"/><circle cx="1326.2" cy="382.4" r="3" fill="#c9a227" opacity="0.040"/><circle cx="1460.5" cy="435.4" r="4.2" fill="#c9a227" opacity="0.072"/><circle cx="1782.1" cy="1748.5" r="2.7" fill="#c9a227" opacity="0.046"/><circle cx="922.5" cy="558.9" r="4.2" fill="#c9a227" opacity="0.064"/><circle cx="838.7" cy="978.6" r="2.4" fill="#c9a227" opacity="0.034"/><circle cx="2041.5" cy="1049.8" r="3.7" fill="#c9a227" opacity="0.062"/><circle cx="1927.7" cy="2128.3" r="2.1" fill="#c9a227" opacity="0.079"/><circle cx="1448.9" cy="2907.8" r="4.3" fill="#c9a227" opacity="0.036"/><circle cx="1715" cy="280.2" r="4.5" fill="#c9a227" opacity="0.071"/><circle cx="2238.9" cy="2649.4" r="2.7" fill="#c9a227" opacity="0.055"/><circle cx="208.2" cy="1126.9" r="2.9" fill="#c9a227" opacity="0.064"/><circle cx="959.9" cy="1255.1" r="3.4" fill="#c9a227" opacity="0.043"/><circle cx="2029.1" cy="733" r="4" fill="#c9a227" opacity="0.068"/><circle cx="1982.5" cy="76.2" r="2.2" fill="#c9a227" opacity="0.041"/><circle cx="162.7" cy="2009.2" r="3.5" fill="#c9a227" opacity="0.074"/><circle cx="2356.5" cy="1971.8" r="3.6" fill="#c9a227" opacity="0.059"/><circle cx="725.9" cy="2506.1" r="4.3" fill="#c9a227" opacity="0.073"/><circle cx="2126.6" cy="2330.6" r="2.1" fill="#c9a227" opacity="0.066"/><circle cx="316.1" cy="1624.2" r="2.7" fill="#c9a227" opacity="0.065"/><circle cx="2194.9" cy="974.9" r="3.3" fill="#c9a227" opacity="0.047"/><circle cx="1389" cy="986.1" r="3.6" fill="#c9a227" opacity="0.044"/><circle cx="2301" cy="406.7" r="1.6" fill="#c9a227" opacity="0.076"/><path d="M340,494.6 L418.2,320.9 L496.4,494.6 Z M496.4,494.6 L574.6,320.9 L652.7,494.6 Z M652.7,494.6 L730.9,320.9 L809.1,494.6 Z M809.1,494.6 L887.3,320.9 L965.5,494.6 Z M965.5,494.6 L1043.6,320.9 L1121.8,494.6 Z M1121.8,494.6 L1200,320.9 L1278.2,494.6 Z M1278.2,494.6 L1356.4,320.9 L1434.5,494.6 Z M1434.5,494.6 L1512.7,320.9 L1590.9,494.6 Z M1590.9,494.6 L1669.1,320.9 L1747.3,494.6 Z M1747.3,494.6 L1825.4,320.9 L1903.6,494.6 Z M1903.6,494.6 L1981.8,320.9 L2060,494.6 Z " fill="#c9a227"/><line x1="250" y1="555.5" x2="2150" y2="555.5" stroke="#c9a227" stroke-width="6"/><rect x="250" y="555.5" width="1900" height="343.2" fill="#c9a227"/><rect x="280" y="623.3" width="103.8" height="103.8" fill="#141b25"/><rect x="383.8" y="727.1" width="103.8" height="103.8" fill="#141b25"/><rect x="487.6" y="623.3" width="103.8" height="103.8" fill="#141b25"/><rect x="591.3" y="727.1" width="103.8" height="103.8" fill="#141b25"/><rect x="695.1" y="623.3" width="103.8" height="103.8" fill="#141b25"/><rect x="798.9" y="727.1" width="103.8" height="103.8" fill="#141b25"/><rect x="902.7" y="623.3" width="103.8" height="103.8" fill="#141b25"/><rect x="1006.4" y="727.1" width="103.8" height="103.8" fill="#141b25"/><rect x="1110.2" y="623.3" width="103.8" height="103.8" fill="#141b25"/><rect x="1214" y="727.1" width="103.8" height="103.8" fill="#141b25"/><rect x="1317.8" y="623.3" width="103.8" height="103.8" fill="#141b25"/><rect x="1421.5" y="727.1" width="103.8" height="103.8" fill="#141b25"/><rect x="1525.3" y="623.3" width="103.8" height="103.8" fill="#141b25"/><rect x="1629.1" y="727.1" width="103.8" height="103.8" fill="#141b25"/><rect x="1732.9" y="623.3" width="103.8" height="103.8" fill="#141b25"/><rect x="1836.6" y="727.1" width="103.8" height="103.8" fill="#141b25"/><rect x="1940.4" y="623.3" width="103.8" height="103.8" fill="#141b25"/><line x1="250" y1="898.6" x2="2150" y2="898.6" stroke="#c9a227" stroke-width="6"/><polyline points="351.4,1072.4 398.2,969.1 444.9,1072.4" fill="none" stroke="#c9a227" stroke-width="17"/><polyline points="485,1072.4 531.8,969.1 578.6,1072.4" fill="none" stroke="#c9a227" stroke-width="17"/><polyline points="618.7,1072.4 665.4,969.1 712.2,1072.4" fill="none" stroke="#c9a227" stroke-width="17"/><polyline points="752.3,1072.4 799.1,969.1 845.9,1072.4" fill="none" stroke="#c9a227" stroke-width="17"/><polyline points="885.9,1072.4 932.7,969.1 979.5,1072.4" fill="none" stroke="#c9a227" stroke-width="17"/><polyline points="1019.6,1072.4 1066.4,969.1 1113.1,1072.4" fill="none" stroke="#c9a227" stroke-width="17"/><polyline points="1153.2,1072.4 1200,969.1 1246.8,1072.4" fill="none" stroke="#c9a227" stroke-width="17"/><polyline points="1286.9,1072.4 1333.6,969.1 1380.4,1072.4" fill="none" stroke="#c9a227" stroke-width="17"/><polyline points="1420.5,1072.4 1467.3,969.1 1514.1,1072.4" fill="none" stroke="#c9a227" stroke-width="17"/><polyline points="1554.1,1072.4 1600.9,969.1 1647.7,1072.4" fill="none" stroke="#c9a227" stroke-width="17"/><polyline points="1687.8,1072.4 1734.6,969.1 1781.3,1072.4" fill="none" stroke="#c9a227" stroke-width="17"/><polyline points="1821.4,1072.4 1868.2,969.1 1915,1072.4" fill="none" stroke="#c9a227" stroke-width="17"/><polyline points="1955.1,1072.4 2001.8,969.1 2048.6,1072.4" fill="none" stroke="#c9a227" stroke-width="17"/><line x1="250" y1="1124.6" x2="2150" y2="1124.6" stroke="#c9a227" stroke-width="6"/><path d="M0 0 Q 29.6 -45.9 0 -120.9 Q -29.6 -45.9 0 0 Z" fill="#87681c" opacity="1" transform="translate(411.4 1351.6) rotate(-58)"/><path d="M0 0 Q 29.6 -52.5 0 -138.2 Q -29.6 -52.5 0 0 Z" fill="#87681c" opacity="1" transform="translate(411.4 1351.6) rotate(-34.8)"/><path d="M0 0 Q 29.6 -59.1 0 -155.6 Q -29.6 -59.1 0 0 Z" fill="#87681c" opacity="1" transform="translate(411.4 1351.6) rotate(-11.6)"/><path d="M0 0 Q 29.6 -59.1 0 -155.6 Q -29.6 -59.1 0 0 Z" fill="#87681c" opacity="1" transform="translate(411.4 1351.6) rotate(11.6)"/><path d="M0 0 Q 29.6 -52.5 0 -138.2 Q -29.6 -52.5 0 0 Z" fill="#87681c" opacity="1" transform="translate(411.4 1351.6) rotate(34.8)"/><path d="M0 0 Q 29.6 -45.9 0 -120.9 Q -29.6 -45.9 0 0 Z" fill="#87681c" opacity="1" transform="translate(411.4 1351.6) rotate(58)"/><path d="M362.2,1351.6 Q411.4,1407.4 460.7,1351.6 Z" fill="#87681c"/><path d="M0 0 Q 29.6 -45.9 0 -120.9 Q -29.6 -45.9 0 0 Z" fill="#87681c" opacity="1" transform="translate(674.3 1351.6) rotate(-58)"/><path d="M0 0 Q 29.6 -54.2 0 -142.6 Q -29.6 -54.2 0 0 Z" fill="#87681c" opacity="1" transform="translate(674.3 1351.6) rotate(-29)"/><path d="M0 0 Q 29.6 -62.4 0 -164.2 Q -29.6 -62.4 0 0 Z" fill="#87681c" opacity="1" transform="translate(674.3 1351.6) rotate(0)"/><path d="M0 0 Q 29.6 -54.2 0 -142.6 Q -29.6 -54.2 0 0 Z" fill="#87681c" opacity="1" transform="translate(674.3 1351.6) rotate(29)"/><path d="M0 0 Q 29.6 -45.9 0 -120.9 Q -29.6 -45.9 0 0 Z" fill="#87681c" opacity="1" transform="translate(674.3 1351.6) rotate(58)"/><path d="M625,1351.6 Q674.3,1407.4 723.5,1351.6 Z" fill="#87681c"/><path d="M0 0 Q 29.6 -45.9 0 -120.9 Q -29.6 -45.9 0 0 Z" fill="#87681c" opacity="1" transform="translate(937.1 1351.6) rotate(-58)"/><path d="M0 0 Q 29.6 -54.2 0 -142.6 Q -29.6 -54.2 0 0 Z" fill="#87681c" opacity="1" transform="translate(937.1 1351.6) rotate(-29)"/><path d="M0 0 Q 29.6 -62.4 0 -164.2 Q -29.6 -62.4 0 0 Z" fill="#87681c" opacity="1" transform="translate(937.1 1351.6) rotate(0)"/><path d="M0 0 Q 29.6 -54.2 0 -142.6 Q -29.6 -54.2 0 0 Z" fill="#87681c" opacity="1" transform="translate(937.1 1351.6) rotate(29)"/><path d="M0 0 Q 29.6 -45.9 0 -120.9 Q -29.6 -45.9 0 0 Z" fill="#87681c" opacity="1" transform="translate(937.1 1351.6) rotate(58)"/><path d="M887.9,1351.6 Q937.1,1407.4 986.4,1351.6 Z" fill="#87681c"/><path d="M0 0 Q 29.6 -45.9 0 -120.9 Q -29.6 -45.9 0 0 Z" fill="#87681c" opacity="1" transform="translate(1200 1351.6) rotate(-58)"/><path d="M0 0 Q 29.6 -54.2 0 -142.6 Q -29.6 -54.2 0 0 Z" fill="#87681c" opacity="1" transform="translate(1200 1351.6) rotate(-29)"/><path d="M0 0 Q 29.6 -62.4 0 -164.2 Q -29.6 -62.4 0 0 Z" fill="#87681c" opacity="1" transform="translate(1200 1351.6) rotate(0)"/><path d="M0 0 Q 29.6 -54.2 0 -142.6 Q -29.6 -54.2 0 0 Z" fill="#87681c" opacity="1" transform="translate(1200 1351.6) rotate(29)"/><path d="M0 0 Q 29.6 -45.9 0 -120.9 Q -29.6 -45.9 0 0 Z" fill="#87681c" opacity="1" transform="translate(1200 1351.6) rotate(58)"/><path d="M1150.7,1351.6 Q1200,1407.4 1249.3,1351.6 Z" fill="#87681c"/><path d="M0 0 Q 29.6 -45.9 0 -120.9 Q -29.6 -45.9 0 0 Z" fill="#87681c" opacity="1" transform="translate(1462.9 1351.6) rotate(-58)"/><path d="M0 0 Q 29.6 -52.5 0 -138.2 Q -29.6 -52.5 0 0 Z" fill="#87681c" opacity="1" transform="translate(1462.9 1351.6) rotate(-34.8)"/><path d="M0 0 Q 29.6 -59.1 0 -155.6 Q -29.6 -59.1 0 0 Z" fill="#87681c" opacity="1" transform="translate(1462.9 1351.6) rotate(-11.6)"/><path d="M0 0 Q 29.6 -59.1 0 -155.6 Q -29.6 -59.1 0 0 Z" fill="#87681c" opacity="1" transform="translate(1462.9 1351.6) rotate(11.6)"/><path d="M0 0 Q 29.6 -52.5 0 -138.2 Q -29.6 -52.5 0 0 Z" fill="#87681c" opacity="1" transform="translate(1462.9 1351.6) rotate(34.8)"/><path d="M0 0 Q 29.6 -45.9 0 -120.9 Q -29.6 -45.9 0 0 Z" fill="#87681c" opacity="1" transform="translate(1462.9 1351.6) rotate(58)"/><path d="M1413.6,1351.6 Q1462.9,1407.4 1512.1,1351.6 Z" fill="#87681c"/><path d="M0 0 Q 29.6 -45.9 0 -120.9 Q -29.6 -45.9 0 0 Z" fill="#87681c" opacity="1" transform="translate(1725.7 1351.6) rotate(-58)"/><path d="M0 0 Q 29.6 -54.2 0 -142.6 Q -29.6 -54.2 0 0 Z" fill="#87681c" opacity="1" transform="translate(1725.7 1351.6) rotate(-29)"/><path d="M0 0 Q 29.6 -62.4 0 -164.2 Q -29.6 -62.4 0 0 Z" fill="#87681c" opacity="1" transform="translate(1725.7 1351.6) rotate(0)"/><path d="M0 0 Q 29.6 -54.2 0 -142.6 Q -29.6 -54.2 0 0 Z" fill="#87681c" opacity="1" transform="translate(1725.7 1351.6) rotate(29)"/><path d="M0 0 Q 29.6 -45.9 0 -120.9 Q -29.6 -45.9 0 0 Z" fill="#87681c" opacity="1" transform="translate(1725.7 1351.6) rotate(58)"/><path d="M1676.5,1351.6 Q1725.7,1407.4 1775,1351.6 Z" fill="#87681c"/><path d="M0 0 Q 29.6 -45.9 0 -120.9 Q -29.6 -45.9 0 0 Z" fill="#87681c" opacity="1" transform="translate(1988.6 1351.6) rotate(-58)"/><path d="M0 0 Q 29.6 -52.5 0 -138.2 Q -29.6 -52.5 0 0 Z" fill="#87681c" opacity="1" transform="translate(1988.6 1351.6) rotate(-34.8)"/><path d="M0 0 Q 29.6 -59.1 0 -155.6 Q -29.6 -59.1 0 0 Z" fill="#87681c" opacity="1" transform="translate(1988.6 1351.6) rotate(-11.6)"/><path d="M0 0 Q 29.6 -59.1 0 -155.6 Q -29.6 -59.1 0 0 Z" fill="#87681c" opacity="1" transform="translate(1988.6 1351.6) rotate(11.6)"/><path d="M0 0 Q 29.6 -52.5 0 -138.2 Q -29.6 -52.5 0 0 Z" fill="#87681c" opacity="1" transform="translate(1988.6 1351.6) rotate(34.8)"/><path d="M0 0 Q 29.6 -45.9 0 -120.9 Q -29.6 -45.9 0 0 Z" fill="#87681c" opacity="1" transform="translate(1988.6 1351.6) rotate(58)"/><path d="M1939.3,1351.6 Q1988.6,1407.4 2037.8,1351.6 Z" fill="#87681c"/><line x1="250" y1="1396.1" x2="2150" y2="1396.1" stroke="#c9a227" stroke-width="6"/><rect x="250" y="1396.1" width="1900" height="163.9" fill="#c9a227"/><path d="M289.5,1429.9 L332.9,1526.2 L376.2,1429.9 Z M376.2,1429.9 L419.6,1526.2 L462.9,1429.9 Z M462.9,1429.9 L506.3,1526.2 L549.7,1429.9 Z M549.7,1429.9 L593,1526.2 L636.4,1429.9 Z M636.4,1429.9 L679.7,1526.2 L723.1,1429.9 Z M723.1,1429.9 L766.4,1526.2 L809.8,1429.9 Z M809.8,1429.9 L853.1,1526.2 L896.5,1429.9 Z M896.5,1429.9 L939.9,1526.2 L983.2,1429.9 Z M983.2,1429.9 L1026.6,1526.2 L1069.9,1429.9 Z M1069.9,1429.9 L1113.3,1526.2 L1156.6,1429.9 Z M1156.6,1429.9 L1200,1526.2 L1243.4,1429.9 Z M1243.4,1429.9 L1286.7,1526.2 L1330.1,1429.9 Z M1330.1,1429.9 L1373.4,1526.2 L1416.8,1429.9 Z M1416.8,1429.9 L1460.1,1526.2 L1503.5,1429.9 Z M1503.5,1429.9 L1546.9,1526.2 L1590.2,1429.9 Z M1590.2,1429.9 L1633.6,1526.2 L1676.9,1429.9 Z M1676.9,1429.9 L1720.3,1526.2 L1763.6,1429.9 Z M1763.6,1429.9 L1807,1526.2 L1850.3,1429.9 Z M1850.3,1429.9 L1893.7,1526.2 L1937.1,1429.9 Z M1937.1,1429.9 L1980.4,1526.2 L2023.8,1429.9 Z M2023.8,1429.9 L2067.1,1526.2 L2110.5,1429.9 Z " fill="#141b25"/><line x1="250" y1="1560" x2="2150" y2="1560" stroke="#c9a227" stroke-width="6"/><line x1="280" y1="1768.8" x2="2120" y2="1768.8" stroke="#87681c" stroke-width="9.5"/><line x1="451.4" y1="1760.9" x2="382.3" y2="1716" stroke="#87681c" stroke-width="15.8" stroke-linecap="round"/><line x1="451.4" y1="1760.9" x2="389.9" y2="1682.2" stroke="#87681c" stroke-width="15.8" stroke-linecap="round"/><line x1="451.4" y1="1760.9" x2="413.2" y2="1650" stroke="#87681c" stroke-width="15.8" stroke-linecap="round"/><line x1="451.4" y1="1760.9" x2="451.4" y2="1626.2" stroke="#87681c" stroke-width="15.8" stroke-linecap="round"/><line x1="451.4" y1="1760.9" x2="489.6" y2="1650" stroke="#87681c" stroke-width="15.8" stroke-linecap="round"/><line x1="451.4" y1="1760.9" x2="512.8" y2="1682.2" stroke="#87681c" stroke-width="15.8" stroke-linecap="round"/><line x1="451.4" y1="1760.9" x2="520.5" y2="1716" stroke="#87681c" stroke-width="15.8" stroke-linecap="round"/><line x1="665.3" y1="1760.9" x2="596.2" y2="1716" stroke="#87681c" stroke-width="15.8" stroke-linecap="round"/><line x1="665.3" y1="1760.9" x2="603.8" y2="1682.2" stroke="#87681c" stroke-width="15.8" stroke-linecap="round"/><line x1="665.3" y1="1760.9" x2="627.1" y2="1650" stroke="#87681c" stroke-width="15.8" stroke-linecap="round"/><line x1="665.3" y1="1760.9" x2="665.3" y2="1626.2" stroke="#87681c" stroke-width="15.8" stroke-linecap="round"/><line x1="665.3" y1="1760.9" x2="703.5" y2="1650" stroke="#87681c" stroke-width="15.8" stroke-linecap="round"/><line x1="665.3" y1="1760.9" x2="726.7" y2="1682.2" stroke="#87681c" stroke-width="15.8" stroke-linecap="round"/><line x1="665.3" y1="1760.9" x2="734.4" y2="1716" stroke="#87681c" stroke-width="15.8" stroke-linecap="round"/><line x1="879.2" y1="1760.9" x2="810.1" y2="1716" stroke="#87681c" stroke-width="15.8" stroke-linecap="round"/><line x1="879.2" y1="1760.9" x2="817.7" y2="1682.2" stroke="#87681c" stroke-width="15.8" stroke-linecap="round"/><line x1="879.2" y1="1760.9" x2="841" y2="1650" stroke="#87681c" stroke-width="15.8" stroke-linecap="round"/><line x1="879.2" y1="1760.9" x2="879.2" y2="1626.2" stroke="#87681c" stroke-width="15.8" stroke-linecap="round"/><line x1="879.2" y1="1760.9" x2="917.3" y2="1650" stroke="#87681c" stroke-width="15.8" stroke-linecap="round"/><line x1="879.2" y1="1760.9" x2="940.6" y2="1682.2" stroke="#87681c" stroke-width="15.8" stroke-linecap="round"/><line x1="879.2" y1="1760.9" x2="948.3" y2="1716" stroke="#87681c" stroke-width="15.8" stroke-linecap="round"/><line x1="1093.1" y1="1760.9" x2="1024" y2="1716" stroke="#87681c" stroke-width="15.8" stroke-linecap="round"/><line x1="1093.1" y1="1760.9" x2="1031.6" y2="1682.2" stroke="#87681c" stroke-width="15.8" stroke-linecap="round"/><line x1="1093.1" y1="1760.9" x2="1054.9" y2="1650" stroke="#87681c" stroke-width="15.8" stroke-linecap="round"/><line x1="1093.1" y1="1760.9" x2="1093.1" y2="1626.2" stroke="#87681c" stroke-width="15.8" stroke-linecap="round"/><line x1="1093.1" y1="1760.9" x2="1131.2" y2="1650" stroke="#87681c" stroke-width="15.8" stroke-linecap="round"/><line x1="1093.1" y1="1760.9" x2="1154.5" y2="1682.2" stroke="#87681c" stroke-width="15.8" stroke-linecap="round"/><line x1="1093.1" y1="1760.9" x2="1162.2" y2="1716" stroke="#87681c" stroke-width="15.8" stroke-linecap="round"/><line x1="1306.9" y1="1760.9" x2="1237.8" y2="1716" stroke="#87681c" stroke-width="15.8" stroke-linecap="round"/><line x1="1306.9" y1="1760.9" x2="1245.5" y2="1682.2" stroke="#87681c" stroke-width="15.8" stroke-linecap="round"/><line x1="1306.9" y1="1760.9" x2="1268.8" y2="1650" stroke="#87681c" stroke-width="15.8" stroke-linecap="round"/><line x1="1306.9" y1="1760.9" x2="1306.9" y2="1626.2" stroke="#87681c" stroke-width="15.8" stroke-linecap="round"/><line x1="1306.9" y1="1760.9" x2="1345.1" y2="1650" stroke="#87681c" stroke-width="15.8" stroke-linecap="round"/><line x1="1306.9" y1="1760.9" x2="1368.4" y2="1682.2" stroke="#87681c" stroke-width="15.8" stroke-linecap="round"/><line x1="1306.9" y1="1760.9" x2="1376" y2="1716" stroke="#87681c" stroke-width="15.8" stroke-linecap="round"/><line x1="1520.8" y1="1760.9" x2="1451.7" y2="1716" stroke="#87681c" stroke-width="15.8" stroke-linecap="round"/><line x1="1520.8" y1="1760.9" x2="1459.4" y2="1682.2" stroke="#87681c" stroke-width="15.8" stroke-linecap="round"/><line x1="1520.8" y1="1760.9" x2="1482.7" y2="1650" stroke="#87681c" stroke-width="15.8" stroke-linecap="round"/><line x1="1520.8" y1="1760.9" x2="1520.8" y2="1626.2" stroke="#87681c" stroke-width="15.8" stroke-linecap="round"/><line x1="1520.8" y1="1760.9" x2="1559" y2="1650" stroke="#87681c" stroke-width="15.8" stroke-linecap="round"/><line x1="1520.8" y1="1760.9" x2="1582.3" y2="1682.2" stroke="#87681c" stroke-width="15.8" stroke-linecap="round"/><line x1="1520.8" y1="1760.9" x2="1589.9" y2="1716" stroke="#87681c" stroke-width="15.8" stroke-linecap="round"/><line x1="1734.7" y1="1760.9" x2="1665.6" y2="1716" stroke="#87681c" stroke-width="15.8" stroke-linecap="round"/><line x1="1734.7" y1="1760.9" x2="1673.3" y2="1682.2" stroke="#87681c" stroke-width="15.8" stroke-linecap="round"/><line x1="1734.7" y1="1760.9" x2="1696.5" y2="1650" stroke="#87681c" stroke-width="15.8" stroke-linecap="round"/><line x1="1734.7" y1="1760.9" x2="1734.7" y2="1626.2" stroke="#87681c" stroke-width="15.8" stroke-linecap="round"/><line x1="1734.7" y1="1760.9" x2="1772.9" y2="1650" stroke="#87681c" stroke-width="15.8" stroke-linecap="round"/><line x1="1734.7" y1="1760.9" x2="1796.2" y2="1682.2" stroke="#87681c" stroke-width="15.8" stroke-linecap="round"/><line x1="1734.7" y1="1760.9" x2="1803.8" y2="1716" stroke="#87681c" stroke-width="15.8" stroke-linecap="round"/><line x1="1948.6" y1="1760.9" x2="1879.5" y2="1716" stroke="#87681c" stroke-width="15.8" stroke-linecap="round"/><line x1="1948.6" y1="1760.9" x2="1887.2" y2="1682.2" stroke="#87681c" stroke-width="15.8" stroke-linecap="round"/><line x1="1948.6" y1="1760.9" x2="1910.4" y2="1650" stroke="#87681c" stroke-width="15.8" stroke-linecap="round"/><line x1="1948.6" y1="1760.9" x2="1948.6" y2="1626.2" stroke="#87681c" stroke-width="15.8" stroke-linecap="round"/><line x1="1948.6" y1="1760.9" x2="1986.8" y2="1650" stroke="#87681c" stroke-width="15.8" stroke-linecap="round"/><line x1="1948.6" y1="1760.9" x2="2010.1" y2="1682.2" stroke="#87681c" stroke-width="15.8" stroke-linecap="round"/><line x1="1948.6" y1="1760.9" x2="2017.7" y2="1716" stroke="#87681c" stroke-width="15.8" stroke-linecap="round"/><line x1="250" y1="1814.9" x2="2150" y2="1814.9" stroke="#c9a227" stroke-width="6"/><path d="M0 0 Q 34.7 -53.9 0 -141.9 Q -34.7 -53.9 0 0 Z" fill="#c9a227" opacity="1" transform="translate(433.3 2081.2) rotate(-58)"/><path d="M0 0 Q 34.7 -61.6 0 -162.2 Q -34.7 -61.6 0 0 Z" fill="#c9a227" opacity="1" transform="translate(433.3 2081.2) rotate(-34.8)"/><path d="M0 0 Q 34.7 -69.3 0 -182.5 Q -34.7 -69.3 0 0 Z" fill="#c9a227" opacity="1" transform="translate(433.3 2081.2) rotate(-11.6)"/><path d="M0 0 Q 34.7 -69.3 0 -182.5 Q -34.7 -69.3 0 0 Z" fill="#c9a227" opacity="1" transform="translate(433.3 2081.2) rotate(11.6)"/><path d="M0 0 Q 34.7 -61.6 0 -162.2 Q -34.7 -61.6 0 0 Z" fill="#c9a227" opacity="1" transform="translate(433.3 2081.2) rotate(34.8)"/><path d="M0 0 Q 34.7 -53.9 0 -141.9 Q -34.7 -53.9 0 0 Z" fill="#c9a227" opacity="1" transform="translate(433.3 2081.2) rotate(58)"/><path d="M375.5,2081.2 Q433.3,2146.7 491.1,2081.2 Z" fill="#c9a227"/><path d="M0 0 Q 34.7 -53.9 0 -141.9 Q -34.7 -53.9 0 0 Z" fill="#c9a227" opacity="1" transform="translate(740 2081.2) rotate(-58)"/><path d="M0 0 Q 34.7 -60.3 0 -158.8 Q -34.7 -60.3 0 0 Z" fill="#c9a227" opacity="1" transform="translate(740 2081.2) rotate(-38.7)"/><path d="M0 0 Q 34.7 -66.8 0 -175.7 Q -34.7 -66.8 0 0 Z" fill="#c9a227" opacity="1" transform="translate(740 2081.2) rotate(-19.3)"/><path d="M0 0 Q 34.7 -73.2 0 -192.6 Q -34.7 -73.2 0 0 Z" fill="#c9a227" opacity="1" transform="translate(740 2081.2) rotate(0)"/><path d="M0 0 Q 34.7 -66.8 0 -175.7 Q -34.7 -66.8 0 0 Z" fill="#c9a227" opacity="1" transform="translate(740 2081.2) rotate(19.3)"/><path d="M0 0 Q 34.7 -60.3 0 -158.8 Q -34.7 -60.3 0 0 Z" fill="#c9a227" opacity="1" transform="translate(740 2081.2) rotate(38.7)"/><path d="M0 0 Q 34.7 -53.9 0 -141.9 Q -34.7 -53.9 0 0 Z" fill="#c9a227" opacity="1" transform="translate(740 2081.2) rotate(58)"/><path d="M682.2,2081.2 Q740,2146.7 797.8,2081.2 Z" fill="#c9a227"/><path d="M0 0 Q 34.7 -53.9 0 -141.9 Q -34.7 -53.9 0 0 Z" fill="#c9a227" opacity="1" transform="translate(1046.7 2081.2) rotate(-58)"/><path d="M0 0 Q 34.7 -61.6 0 -162.2 Q -34.7 -61.6 0 0 Z" fill="#c9a227" opacity="1" transform="translate(1046.7 2081.2) rotate(-34.8)"/><path d="M0 0 Q 34.7 -69.3 0 -182.5 Q -34.7 -69.3 0 0 Z" fill="#c9a227" opacity="1" transform="translate(1046.7 2081.2) rotate(-11.6)"/><path d="M0 0 Q 34.7 -69.3 0 -182.5 Q -34.7 -69.3 0 0 Z" fill="#c9a227" opacity="1" transform="translate(1046.7 2081.2) rotate(11.6)"/><path d="M0 0 Q 34.7 -61.6 0 -162.2 Q -34.7 -61.6 0 0 Z" fill="#c9a227" opacity="1" transform="translate(1046.7 2081.2) rotate(34.8)"/><path d="M0 0 Q 34.7 -53.9 0 -141.9 Q -34.7 -53.9 0 0 Z" fill="#c9a227" opacity="1" transform="translate(1046.7 2081.2) rotate(58)"/><path d="M988.9,2081.2 Q1046.7,2146.7 1104.5,2081.2 Z" fill="#c9a227"/><path d="M0 0 Q 34.7 -53.9 0 -141.9 Q -34.7 -53.9 0 0 Z" fill="#c9a227" opacity="1" transform="translate(1353.3 2081.2) rotate(-58)"/><path d="M0 0 Q 34.7 -60.3 0 -158.8 Q -34.7 -60.3 0 0 Z" fill="#c9a227" opacity="1" transform="translate(1353.3 2081.2) rotate(-38.7)"/><path d="M0 0 Q 34.7 -66.8 0 -175.7 Q -34.7 -66.8 0 0 Z" fill="#c9a227" opacity="1" transform="translate(1353.3 2081.2) rotate(-19.3)"/><path d="M0 0 Q 34.7 -73.2 0 -192.6 Q -34.7 -73.2 0 0 Z" fill="#c9a227" opacity="1" transform="translate(1353.3 2081.2) rotate(0)"/><path d="M0 0 Q 34.7 -66.8 0 -175.7 Q -34.7 -66.8 0 0 Z" fill="#c9a227" opacity="1" transform="translate(1353.3 2081.2) rotate(19.3)"/><path d="M0 0 Q 34.7 -60.3 0 -158.8 Q -34.7 -60.3 0 0 Z" fill="#c9a227" opacity="1" transform="translate(1353.3 2081.2) rotate(38.7)"/><path d="M0 0 Q 34.7 -53.9 0 -141.9 Q -34.7 -53.9 0 0 Z" fill="#c9a227" opacity="1" transform="translate(1353.3 2081.2) rotate(58)"/><path d="M1295.5,2081.2 Q1353.3,2146.7 1411.1,2081.2 Z" fill="#c9a227"/><path d="M0 0 Q 34.7 -53.9 0 -141.9 Q -34.7 -53.9 0 0 Z" fill="#c9a227" opacity="1" transform="translate(1660 2081.2) rotate(-58)"/><path d="M0 0 Q 34.7 -61.6 0 -162.2 Q -34.7 -61.6 0 0 Z" fill="#c9a227" opacity="1" transform="translate(1660 2081.2) rotate(-34.8)"/><path d="M0 0 Q 34.7 -69.3 0 -182.5 Q -34.7 -69.3 0 0 Z" fill="#c9a227" opacity="1" transform="translate(1660 2081.2) rotate(-11.6)"/><path d="M0 0 Q 34.7 -69.3 0 -182.5 Q -34.7 -69.3 0 0 Z" fill="#c9a227" opacity="1" transform="translate(1660 2081.2) rotate(11.6)"/><path d="M0 0 Q 34.7 -61.6 0 -162.2 Q -34.7 -61.6 0 0 Z" fill="#c9a227" opacity="1" transform="translate(1660 2081.2) rotate(34.8)"/><path d="M0 0 Q 34.7 -53.9 0 -141.9 Q -34.7 -53.9 0 0 Z" fill="#c9a227" opacity="1" transform="translate(1660 2081.2) rotate(58)"/><path d="M1602.2,2081.2 Q1660,2146.7 1717.8,2081.2 Z" fill="#c9a227"/><path d="M0 0 Q 34.7 -53.9 0 -141.9 Q -34.7 -53.9 0 0 Z" fill="#c9a227" opacity="1" transform="translate(1966.7 2081.2) rotate(-58)"/><path d="M0 0 Q 34.7 -63.6 0 -167.2 Q -34.7 -63.6 0 0 Z" fill="#c9a227" opacity="1" transform="translate(1966.7 2081.2) rotate(-29)"/><path d="M0 0 Q 34.7 -73.2 0 -192.6 Q -34.7 -73.2 0 0 Z" fill="#c9a227" opacity="1" transform="translate(1966.7 2081.2) rotate(0)"/><path d="M0 0 Q 34.7 -63.6 0 -167.2 Q -34.7 -63.6 0 0 Z" fill="#c9a227" opacity="1" transform="translate(1966.7 2081.2) rotate(29)"/><path d="M0 0 Q 34.7 -53.9 0 -141.9 Q -34.7 -53.9 0 0 Z" fill="#c9a227" opacity="1" transform="translate(1966.7 2081.2) rotate(58)"/><path d="M1908.9,2081.2 Q1966.7,2146.7 2024.5,2081.2 Z" fill="#c9a227"/><line x1="250" y1="2133.4" x2="2150" y2="2133.4" stroke="#c9a227" stroke-width="6"/><rect x="250" y="2133.4" width="1900" height="320.8" fill="#c9a227"/><line x1="280" y1="2396.2" x2="2120" y2="2396.2" stroke="#141b25" stroke-width="16.4"/><polyline points="482.9,2297.9 481.7,2299.3 481,2301.2 481,2303.5 481.8,2305.9 483.4,2308.3 485.8,2310.2 489,2311.5 492.7,2312 496.6,2311.4 500.6,2309.7 504.2,2306.8 507.1,2302.8 509.1,2297.9 509.7,2292.4 508.9,2286.5 506.6,2280.8 502.7,2275.6 497.4,2271.3 490.9,2268.4 483.6,2267 475.8,2267.6 468.2,2270.1 461.1,2274.6 455.1,2281 450.7,2288.9 448.2,2297.9 448.1,2307.6 450.4,2317.3 455.1,2326.5 462.1,2334.4 471.1,2340.7 481.6,2344.6 493.2,2345.9 505,2344.4 516.3,2339.9 526.5,2332.6 534.9,2322.9 540.8,2311.1 543.7,2297.9 543.4,2284.1 539.6,2270.4 532.5,2257.8 522.4,2247.1 509.7,2238.9 495.1,2234 479.4,2232.6 463.5,2235.2 448.5,2241.6 435.1,2251.7 424.4,2264.9 417,2280.6 413.6,2297.9" fill="none" stroke="#141b25" stroke-width="18.4" stroke-linecap="round" stroke-linejoin="round"/><polyline points="687.7,2297.9 686.5,2299.3 685.8,2301.2 685.8,2303.5 686.6,2305.9 688.2,2308.3 690.6,2310.2 693.8,2311.5 697.5,2312 701.4,2311.4 705.4,2309.7 709,2306.8 711.9,2302.8 713.9,2297.9 714.5,2292.4 713.7,2286.5 711.4,2280.8 707.5,2275.6 702.2,2271.3 695.7,2268.4 688.4,2267 680.6,2267.6 672.9,2270.1 665.9,2274.6 659.9,2281 655.5,2288.9 653,2297.9 652.9,2307.6 655.2,2317.3 659.9,2326.5 666.9,2334.4 675.9,2340.7 686.4,2344.6 697.9,2345.9 709.8,2344.4 721.1,2339.9 731.3,2332.6 739.7,2322.9 745.6,2311.1 748.5,2297.9 748.2,2284.1 744.4,2270.4 737.3,2257.8 727.2,2247.1 714.5,2238.9 699.9,2234 684.2,2232.6 668.3,2235.2 653.3,2241.6 639.9,2251.7 629.2,2264.9 621.8,2280.6 618.4,2297.9" fill="none" stroke="#141b25" stroke-width="18.4" stroke-linecap="round" stroke-linejoin="round"/><polyline points="892.5,2297.9 891.3,2299.3 890.6,2301.2 890.6,2303.5 891.4,2305.9 893,2308.3 895.4,2310.2 898.6,2311.5 902.3,2312 906.2,2311.4 910.2,2309.7 913.8,2306.8 916.7,2302.8 918.7,2297.9 919.3,2292.4 918.5,2286.5 916.2,2280.8 912.3,2275.6 907,2271.3 900.5,2268.4 893.2,2267 885.4,2267.6 877.7,2270.1 870.7,2274.6 864.7,2281 860.3,2288.9 857.8,2297.9 857.7,2307.6 859.9,2317.3 864.7,2326.5 871.7,2334.4 880.7,2340.7 891.2,2344.6 902.7,2345.9 914.5,2344.4 925.9,2339.9 936.1,2332.6 944.5,2322.9 950.4,2311.1 953.3,2297.9 953,2284.1 949.2,2270.4 942.1,2257.8 932,2247.1 919.3,2238.9 904.7,2234 889,2232.6 873.1,2235.2 858.1,2241.6 844.7,2251.7 834,2264.9 826.6,2280.6 823.2,2297.9" fill="none" stroke="#141b25" stroke-width="18.4" stroke-linecap="round" stroke-linejoin="round"/><polyline points="1097.3,2297.9 1096.1,2299.3 1095.4,2301.2 1095.4,2303.5 1096.2,2305.9 1097.8,2308.3 1100.2,2310.2 1103.4,2311.5 1107,2312 1111,2311.4 1115,2309.7 1118.6,2306.8 1121.5,2302.8 1123.4,2297.9 1124.1,2292.4 1123.3,2286.5 1121,2280.8 1117.1,2275.6 1111.8,2271.3 1105.3,2268.4 1098,2267 1090.2,2267.6 1082.5,2270.1 1075.4,2274.6 1069.5,2281 1065.1,2288.9 1062.6,2297.9 1062.5,2307.6 1064.7,2317.3 1069.5,2326.5 1076.5,2334.4 1085.5,2340.7 1096,2344.6 1107.5,2345.9 1119.3,2344.4 1130.7,2339.9 1140.9,2332.6 1149.3,2322.9 1155.2,2311.1 1158.1,2297.9 1157.8,2284.1 1154,2270.4 1146.9,2257.8 1136.8,2247.1 1124.1,2238.9 1109.5,2234 1093.8,2232.6 1077.9,2235.2 1062.8,2241.6 1049.5,2251.7 1038.8,2264.9 1031.4,2280.6 1028,2297.9" fill="none" stroke="#141b25" stroke-width="18.4" stroke-linecap="round" stroke-linejoin="round"/><polyline points="1302.1,2297.9 1300.9,2299.3 1300.2,2301.2 1300.2,2303.5 1301,2305.9 1302.6,2308.3 1305,2310.2 1308.2,2311.5 1311.8,2312 1315.8,2311.4 1319.8,2309.7 1323.4,2306.8 1326.3,2302.8 1328.2,2297.9 1328.9,2292.4 1328.1,2286.5 1325.8,2280.8 1321.9,2275.6 1316.6,2271.3 1310.1,2268.4 1302.7,2267 1295,2267.6 1287.3,2270.1 1280.2,2274.6 1274.3,2281 1269.8,2288.9 1267.4,2297.9 1267.3,2307.6 1269.5,2317.3 1274.3,2326.5 1281.3,2334.4 1290.3,2340.7 1300.8,2344.6 1312.3,2345.9 1324.1,2344.4 1335.5,2339.9 1345.7,2332.6 1354.1,2322.9 1360,2311.1 1362.9,2297.9 1362.5,2284.1 1358.8,2270.4 1351.7,2257.8 1341.6,2247.1 1328.9,2238.9 1314.3,2234 1298.6,2232.6 1282.7,2235.2 1267.6,2241.6 1254.3,2251.7 1243.6,2264.9 1236.2,2280.6 1232.8,2297.9" fill="none" stroke="#141b25" stroke-width="18.4" stroke-linecap="round" stroke-linejoin="round"/><polyline points="1506.9,2297.9 1505.7,2299.3 1505,2301.2 1505,2303.5 1505.7,2305.9 1507.4,2308.3 1509.8,2310.2 1512.9,2311.5 1516.6,2312 1520.6,2311.4 1524.6,2309.7 1528.2,2306.8 1531.1,2302.8 1533,2297.9 1533.7,2292.4 1532.9,2286.5 1530.6,2280.8 1526.7,2275.6 1521.4,2271.3 1514.9,2268.4 1507.5,2267 1499.8,2267.6 1492.1,2270.1 1485,2274.6 1479,2281 1474.6,2288.9 1472.2,2297.9 1472.1,2307.6 1474.3,2317.3 1479,2326.5 1486.1,2334.4 1495.1,2340.7 1505.6,2344.6 1517.1,2345.9 1528.9,2344.4 1540.3,2339.9 1550.5,2332.6 1558.9,2322.9 1564.8,2311.1 1567.7,2297.9 1567.3,2284.1 1563.6,2270.4 1556.5,2257.8 1546.4,2247.1 1533.6,2238.9 1519,2234 1503.4,2232.6 1487.5,2235.2 1472.4,2241.6 1459.1,2251.7 1448.4,2264.9 1441,2280.6 1437.6,2297.9" fill="none" stroke="#141b25" stroke-width="18.4" stroke-linecap="round" stroke-linejoin="round"/><polyline points="1711.7,2297.9 1710.5,2299.3 1709.8,2301.2 1709.8,2303.5 1710.5,2305.9 1712.1,2308.3 1714.6,2310.2 1717.7,2311.5 1721.4,2312 1725.4,2311.4 1729.4,2309.7 1733,2306.8 1735.9,2302.8 1737.8,2297.9 1738.5,2292.4 1737.7,2286.5 1735.4,2280.8 1731.5,2275.6 1726.2,2271.3 1719.7,2268.4 1712.3,2267 1704.6,2267.6 1696.9,2270.1 1689.8,2274.6 1683.8,2281 1679.4,2288.9 1677,2297.9 1676.8,2307.6 1679.1,2317.3 1683.8,2326.5 1690.9,2334.4 1699.9,2340.7 1710.4,2344.6 1721.9,2345.9 1733.7,2344.4 1745.1,2339.9 1755.3,2332.6 1763.7,2322.9 1769.5,2311.1 1772.5,2297.9 1772.1,2284.1 1768.4,2270.4 1761.3,2257.8 1751.1,2247.1 1738.4,2238.9 1723.8,2234 1708.2,2232.6 1692.3,2235.2 1677.2,2241.6 1663.9,2251.7 1653.2,2264.9 1645.8,2280.6 1642.4,2297.9" fill="none" stroke="#141b25" stroke-width="18.4" stroke-linecap="round" stroke-linejoin="round"/><polyline points="1916.4,2297.9 1915.3,2299.3 1914.6,2301.2 1914.6,2303.5 1915.3,2305.9 1916.9,2308.3 1919.4,2310.2 1922.5,2311.5 1926.2,2312 1930.2,2311.4 1934.2,2309.7 1937.8,2306.8 1940.7,2302.8 1942.6,2297.9 1943.3,2292.4 1942.5,2286.5 1940.1,2280.8 1936.3,2275.6 1930.9,2271.3 1924.5,2268.4 1917.1,2267 1909.4,2267.6 1901.7,2270.1 1894.6,2274.6 1888.6,2281 1884.2,2288.9 1881.8,2297.9 1881.6,2307.6 1883.9,2317.3 1888.6,2326.5 1895.6,2334.4 1904.7,2340.7 1915.2,2344.6 1926.7,2345.9 1938.5,2344.4 1949.9,2339.9 1960.1,2332.6 1968.5,2322.9 1974.3,2311.1 1977.3,2297.9 1976.9,2284.1 1973.2,2270.4 1966.1,2257.8 1955.9,2247.1 1943.2,2238.9 1928.6,2234 1912.9,2232.6 1897.1,2235.2 1882,2241.6 1868.7,2251.7 1858,2264.9 1850.6,2280.6 1847.1,2297.9" fill="none" stroke="#141b25" stroke-width="18.4" stroke-linecap="round" stroke-linejoin="round"/><line x1="250" y1="2454.2" x2="2150" y2="2454.2" stroke="#c9a227" stroke-width="6"/><path d="M351.1,2677.8 L 512.4,2677.8 L 512.4,2516.4 L 385.6,2516.4 L 385.6,2616.3 L 450.9,2616.3 L 450.9,2566.4 M543.1,2677.8 L 704.5,2677.8 L 704.5,2516.4 L 577.7,2516.4 L 577.7,2616.3 L 643,2616.3 L 643,2566.4 M735.2,2677.8 L 896.5,2677.8 L 896.5,2516.4 L 769.8,2516.4 L 769.8,2616.3 L 835.1,2616.3 L 835.1,2566.4 M927.3,2677.8 L 1088.6,2677.8 L 1088.6,2516.4 L 961.8,2516.4 L 961.8,2616.3 L 1027.1,2616.3 L 1027.1,2566.4 M1119.3,2677.8 L 1280.7,2677.8 L 1280.7,2516.4 L 1153.9,2516.4 L 1153.9,2616.3 L 1219.2,2616.3 L 1219.2,2566.4 M1311.4,2677.8 L 1472.7,2677.8 L 1472.7,2516.4 L 1346,2516.4 L 1346,2616.3 L 1411.3,2616.3 L 1411.3,2566.4 M1503.5,2677.8 L 1664.8,2677.8 L 1664.8,2516.4 L 1538,2516.4 L 1538,2616.3 L 1603.3,2616.3 L 1603.3,2566.4 M1695.5,2677.8 L 1856.9,2677.8 L 1856.9,2516.4 L 1730.1,2516.4 L 1730.1,2616.3 L 1795.4,2616.3 L 1795.4,2566.4 M1887.6,2677.8 L 2048.9,2677.8 L 2048.9,2516.4 L 1922.2,2516.4 L 1922.2,2616.3 L 1987.5,2616.3 L 1987.5,2566.4 " fill="none" stroke="#c9a227" stroke-width="25"/><line x1="250" y1="2740" x2="2150" y2="2740" stroke="#c9a227" stroke-width="6"/><line x1="250" y1="260" x2="2150" y2="260" stroke="#c9a227" stroke-width="6"/><rect x="100" y="100" width="2200" height="2800" fill="none" stroke="#c9a227" stroke-width="9"/><rect x="142" y="142" width="2116" height="2716" fill="none" stroke="#c9a227" stroke-width="3" opacity="0.65"/></svg></svg>