<svg xmlns="http://www.w3.org/2000/svg" width="2400" height="1800" viewBox="0 0 2400 1800"><rect width="2400" height="1800" fill="#e5ddcf"/><rect y="1430" width="2400" height="370" fill="#b89a76"/><line x1="100" y1="1430" x2="45" y2="1800" stroke="#00000016" stroke-width="5"/><line x1="330" y1="1430" x2="275" y2="1800" stroke="#00000016" stroke-width="5"/><line x1="560" y1="1430" x2="505" y2="1800" stroke="#00000016" stroke-width="5"/><line x1="790" y1="1430" x2="735" y2="1800" stroke="#00000016" stroke-width="5"/><line x1="1020" y1="1430" x2="965" y2="1800" stroke="#00000016" stroke-width="5"/><line x1="1250" y1="1430" x2="1195" y2="1800" stroke="#00000016" stroke-width="5"/><line x1="1480" y1="1430" x2="1425" y2="1800" stroke="#00000016" stroke-width="5"/><line x1="1710" y1="1430" x2="1655" y2="1800" stroke="#00000016" stroke-width="5"/><line x1="1940" y1="1430" x2="1885" y2="1800" stroke="#00000016" stroke-width="5"/><line x1="2170" y1="1430" x2="2115" y2="1800" stroke="#00000016" stroke-width="5"/><rect x="620" y="1180" width="1180" height="52" rx="10" fill="#8a6540"/><rect x="680" y="1232" width="70" height="330" fill="#775433"/><rect x="1670" y="1232" width="70" height="330" fill="#775433"/><rect x="760" y="1120" width="220" height="34" rx="6" fill="#4a7457"/><rect x="780" y="1086" width="200" height="34" rx="6" fill="#39685c"/><rect x="800" y="1052" width="170" height="34" rx="6" fill="#c9a227"/><circle cx="1240" cy="1130" r="46" fill="#3f3428"/><rect x="1226" y="1048" width="16" height="60" fill="#3f3428" transform="rotate(18 1240 1090)"/><rect x="1420" y="1100" width="260" height="26" rx="13" fill="#e8dcc0"/><rect x="1450" y="1072" width="260" height="26" rx="13" fill="#dfd0ad"/><rect x="1080" y="1300" width="360" height="34" rx="14" fill="#6f5436"/><rect x="1100" y="1334" width="40" height="220" fill="#6f5436"/><rect x="1380" y="1334" width="40" height="220" fill="#6f5436"/><rect x="1080" y="1030" width="42" height="290" rx="14" fill="#6f5436"/><rect x="260" y="480" width="560" height="24" fill="#8a6540"/><rect x="300" y="360" width="90" height="120" fill="#b3502f"/><rect x="400" y="380" width="80" height="100" fill="#2c4661"/><rect x="490" y="350" width="86" height="130" fill="#96a396"/><path d="M700,480 Q 616,347 574,382" fill="none" stroke="#5d7052" stroke-width="11.2" stroke-linecap="round"/><path d="M700,480 Q 644,347 616,354" fill="none" stroke="#5d7052" stroke-width="11.2" stroke-linecap="round"/><path d="M700,480 Q 672,347 658,326" fill="none" stroke="#5d7052" stroke-width="11.2" stroke-linecap="round"/><path d="M700,480 Q 700,347 700,298" fill="none" stroke="#5d7052" stroke-width="11.2" stroke-linecap="round"/><path d="M700,480 Q 728,347 742,326" fill="none" stroke="#5d7052" stroke-width="11.2" stroke-linecap="round"/><path d="M700,480 Q 756,347 784,354" fill="none" stroke="#5d7052" stroke-width="11.2" stroke-linecap="round"/><path d="M700,480 Q 784,347 826,382" fill="none" stroke="#5d7052" stroke-width="11.2" stroke-linecap="round"/><path d="M651,480 L749,480 L736.4,557 L663.6,557 Z" fill="#a9714d"/><path d="M320,1520 Q 164,1273 86,1338" fill="none" stroke="#5d7052" stroke-width="20.8" stroke-linecap="round"/><path d="M320,1520 Q 216,1273 164,1286" fill="none" stroke="#5d7052" stroke-width="20.8" stroke-linecap="round"/><path d="M320,1520 Q 268,1273 242,1234" fill="none" stroke="#5d7052" stroke-width="20.8" stroke-linecap="round"/><path d="M320,1520 Q 320,1273 320,1182" fill="none" stroke="#5d7052" stroke-width="20.8" stroke-linecap="round"/><path d="M320,1520 Q 372,1273 398,1234" fill="none" stroke="#5d7052" stroke-width="20.8" stroke-linecap="round"/><path d="M320,1520 Q 424,1273 476,1286" fill="none" stroke="#5d7052" stroke-width="20.8" stroke-linecap="round"/><path d="M320,1520 Q 476,1273 554,1338" fill="none" stroke="#5d7052" stroke-width="20.8" stroke-linecap="round"/><path d="M229,1520 L411,1520 L387.6,1663 L252.4,1663 Z" fill="#a9714d"/><defs><filter id="a25s-sh" x="-30%" y="-30%" width="160%" height="160%"><feGaussianBlur stdDeviation="16"/></filter></defs><rect x="1206" y="294" width="616" height="756" fill="#000" opacity="0.28" filter="url(#a25s-sh)"/><rect x="1192" y="272" width="616" height="756" fill="#443a2d"/><rect x="1210.2" y="290.2" width="579.6" height="719.6" fill="none" stroke="#00000055" stroke-width="3"/><rect x="1220" y="300" width="560" height="700" fill="#f6f2ea"/><svg x="1262" y="342" width="476" height="616" viewBox="0 0 2400 3000" preserveAspectRatio="xMidYMid slice"><filter id="a25-warp" x="-4%" y="-4%" width="108%" height="108%"><feTurbulence type="fractalNoise" baseFrequency="0.0105" numOctaves="2" seed="2327" result="w"/><feDisplacementMap in="SourceGraphic" in2="w" scale="11" xChannelSelector="R" yChannelSelector="G"/></filter><filter id="a25-grain" x="0%" y="0%" width="100%" height="100%"><feTurbulence type="fractalNoise" baseFrequency="0.6" numOctaves="2" seed="2334"/><feColorMatrix type="matrix" values="0.33 0.33 0.33 0 0.62  0.33 0.33 0.33 0 0.62  0.33 0.33 0.33 0 0.62  0 0 0 0 1"/></filter><filter id="a25-mottle" x="0%" y="0%" width="100%" height="100%"><feTurbulence type="fractalNoise" baseFrequency="0.0045" numOctaves="3" seed="2340"/><feColorMatrix type="matrix" values="0.2 0.2 0.2 0 0.78  0.2 0.2 0.2 0 0.78  0.2 0.2 0.2 0 0.78  0 0 0 0 1"/></filter><filter id="a25-fade" x="0%" y="0%" width="100%" height="100%"><feTurbulence type="fractalNoise" baseFrequency="0.006" numOctaves="2" seed="2356"/><feColorMatrix type="matrix" values="0.3 0.3 0.3 0 -0.08  0.3 0.3 0.3 0 -0.08  0.3 0.3 0.3 0 -0.1  0 0 0 0 1"/></filter><filter id="a25-blur9"><feGaussianBlur stdDeviation="9"/></filter><radialGradient id="a25-vig" cx="50%" cy="44%" r="78%"><stop offset="52%" stop-color="#241a10" stop-opacity="0"/><stop offset="100%" stop-color="#241a10" stop-opacity="0.17"/></radialGradient><radialGradient id="a25-warm" cx="37%" cy="30%" r="85%"><stop offset="0%" stop-color="#e8c890" stop-opacity="0.14"/><stop offset="70%" stop-color="#e8c890" stop-opacity="0"/></radialGradient><rect width="2400" height="3000" fill="#d5bf94"/><rect width="2400" height="3000" fill="url(#a25-warm)"/><rect x="0" width="27" height="3000" fill="#6b4e26" opacity="0.099"/><rect x="37.6" width="40.4" height="3000" fill="#6b4e26" opacity="0.099"/><rect x="93.7" width="20.5" height="3000" fill="#6b4e26" opacity="0.080"/><rect x="122.1" width="32.9" height="3000" fill="#6b4e26" opacity="0.080"/><rect x="167.7" width="34.8" height="3000" fill="#6b4e26" opacity="0.070"/><rect x="216" width="25" height="3000" fill="#6b4e26" opacity="0.035"/><rect x="250.8" width="26.1" height="3000" fill="#6b4e26" opacity="0.056"/><rect x="287" width="32.9" height="3000" fill="#6b4e26" opacity="0.042"/><rect x="332.6" width="25.1" height="3000" fill="#6b4e26" opacity="0.073"/><rect x="367.5" width="41.2" height="3000" fill="#6b4e26" opacity="0.091"/><rect x="424.7" width="36.2" height="3000" fill="#6b4e26" opacity="0.055"/><rect x="475" width="25.4" height="3000" fill="#6b4e26" opacity="0.074"/><rect x="510.3" width="37" height="3000" fill="#6b4e26" opacity="0.095"/><rect x="561.7" width="26.1" height="3000" fill="#6b4e26" opacity="0.086"/><rect x="597.9" width="32.6" height="3000" fill="#6b4e26" opacity="0.090"/><rect x="643.2" width="24.7" height="3000" fill="#6b4e26" opacity="0.095"/><rect x="677.6" width="31.9" height="3000" fill="#6b4e26" opacity="0.092"/><rect x="721.9" width="20.9" height="3000" fill="#6b4e26" opacity="0.090"/><rect x="751" width="24.3" height="3000" fill="#6b4e26" opacity="0.037"/><rect x="784.8" width="23.4" height="3000" fill="#6b4e26" opacity="0.089"/><rect x="817.3" width="30.9" height="3000" fill="#6b4e26" opacity="0.067"/><rect x="860.2" width="34.6" height="3000" fill="#6b4e26" opacity="0.091"/><rect x="908.2" width="39.4" height="3000" fill="#6b4e26" opacity="0.079"/><rect x="963" width="42.9" height="3000" fill="#6b4e26" opacity="0.086"/><rect x="1022.5" width="22.6" height="3000" fill="#6b4e26" opacity="0.043"/><rect x="1054" width="25.4" height="3000" fill="#6b4e26" opacity="0.037"/><rect x="1089.3" width="22.4" height="3000" fill="#6b4e26" opacity="0.087"/><rect x="1120.4" width="33.5" height="3000" fill="#6b4e26" opacity="0.045"/><rect x="1166.9" width="31.2" height="3000" fill="#6b4e26" opacity="0.086"/><rect x="1210.3" width="18.8" height="3000" fill="#6b4e26" opacity="0.083"/><rect x="1236.4" width="27.3" height="3000" fill="#6b4e26" opacity="0.071"/><rect x="1274.4" width="32.9" height="3000" fill="#6b4e26" opacity="0.032"/><rect x="1320.1" width="20.3" height="3000" fill="#6b4e26" opacity="0.093"/><rect x="1348.2" width="34.8" height="3000" fill="#6b4e26" opacity="0.078"/><rect x="1396.5" width="32.7" height="3000" fill="#6b4e26" opacity="0.073"/><rect x="1441.9" width="37" height="3000" fill="#6b4e26" opacity="0.081"/><rect x="1493.3" width="24.9" height="3000" fill="#6b4e26" opacity="0.040"/><rect x="1527.8" width="41.4" height="3000" fill="#6b4e26" opacity="0.059"/><rect x="1585.3" width="42.9" height="3000" fill="#6b4e26" opacity="0.050"/><rect x="1644.8" width="31.4" height="3000" fill="#6b4e26" opacity="0.052"/><rect x="1688.4" width="20" height="3000" fill="#6b4e26" opacity="0.060"/><rect x="1716.3" width="21.1" height="3000" fill="#6b4e26" opacity="0.069"/><rect x="1745.6" width="42" height="3000" fill="#6b4e26" opacity="0.064"/><rect x="1803.9" width="36.7" height="3000" fill="#6b4e26" opacity="0.068"/><rect x="1854.9" width="30.5" height="3000" fill="#6b4e26" opacity="0.037"/><rect x="1897.2" width="42.4" height="3000" fill="#6b4e26" opacity="0.099"/><rect x="1956.1" width="26.7" height="3000" fill="#6b4e26" opacity="0.073"/><rect x="1993.2" width="30.9" height="3000" fill="#6b4e26" opacity="0.063"/><rect x="2036.1" width="42.4" height="3000" fill="#6b4e26" opacity="0.031"/><rect x="2095.1" width="38.4" height="3000" fill="#6b4e26" opacity="0.060"/><rect x="2148.3" width="27.8" height="3000" fill="#6b4e26" opacity="0.088"/><rect x="2186.9" width="33.1" height="3000" fill="#6b4e26" opacity="0.037"/><rect x="2233" width="36.9" height="3000" fill="#6b4e26" opacity="0.081"/><rect x="2284.2" width="21.2" height="3000" fill="#6b4e26" opacity="0.031"/><rect x="2313.7" width="33.3" height="3000" fill="#6b4e26" opacity="0.096"/><rect x="2359.9" width="22.4" height="3000" fill="#6b4e26" opacity="0.064"/><rect x="2391.1" width="23.5" height="3000" fill="#6b4e26" opacity="0.068"/><rect y="0" width="2400" height="25.4" fill="#7c5c30" opacity="0.050"/><rect y="42.4" width="2400" height="13.2" fill="#7c5c30" opacity="0.055"/><rect y="64.3" width="2400" height="25.5" fill="#7c5c30" opacity="0.043"/><rect y="106.8" width="2400" height="13.4" fill="#7c5c30" opacity="0.023"/><rect y="129.2" width="2400" height="14.8" fill="#7c5c30" opacity="0.028"/><rect y="153.8" width="2400" height="21.8" fill="#7c5c30" opacity="0.041"/><rect y="190" width="2400" height="26.3" fill="#7c5c30" opacity="0.055"/><rect y="233.8" width="2400" height="14" fill="#7c5c30" opacity="0.057"/><rect y="257" width="2400" height="17.5" fill="#7c5c30" opacity="0.052"/><rect y="286.2" width="2400" height="15.2" fill="#7c5c30" opacity="0.030"/><rect y="311.4" width="2400" height="19.4" fill="#7c5c30" opacity="0.024"/><rect y="343.8" width="2400" height="15.7" fill="#7c5c30" opacity="0.044"/><rect y="369.9" width="2400" height="23.6" fill="#7c5c30" opacity="0.047"/><rect y="409.2" width="2400" height="24.7" fill="#7c5c30" opacity="0.054"/><rect y="450.4" width="2400" height="23.6" fill="#7c5c30" opacity="0.033"/><rect y="489.8" width="2400" height="23" fill="#7c5c30" opacity="0.033"/><rect y="528.1" width="2400" height="23.4" fill="#7c5c30" opacity="0.021"/><rect y="567.2" width="2400" height="24.1" fill="#7c5c30" opacity="0.051"/><rect y="607.4" width="2400" height="22.1" fill="#7c5c30" opacity="0.057"/><rect y="644.3" width="2400" height="18.2" fill="#7c5c30" opacity="0.055"/><rect y="674.6" width="2400" height="22.1" fill="#7c5c30" opacity="0.045"/><rect y="711.4" width="2400" height="15.4" fill="#7c5c30" opacity="0.048"/><rect y="737" width="2400" height="12" fill="#7c5c30" opacity="0.025"/><rect y="757" width="2400" height="17.6" fill="#7c5c30" opacity="0.057"/><rect y="786.4" width="2400" height="13.2" fill="#7c5c30" opacity="0.058"/><rect y="808.4" width="2400" height="28.5" fill="#7c5c30" opacity="0.053"/><rect y="855.9" width="2400" height="25.8" fill="#7c5c30" opacity="0.036"/><rect y="898.9" width="2400" height="14.2" fill="#7c5c30" opacity="0.026"/><rect y="922.6" width="2400" height="23.9" fill="#7c5c30" opacity="0.058"/><rect y="962.4" width="2400" height="14.9" fill="#7c5c30" opacity="0.035"/><rect y="987.2" width="2400" height="26.3" fill="#7c5c30" opacity="0.039"/><rect y="1031.1" width="2400" height="12.1" fill="#7c5c30" opacity="0.024"/><rect y="1051.1" width="2400" height="26.6" fill="#7c5c30" opacity="0.025"/><rect y="1095.5" width="2400" height="24.1" fill="#7c5c30" opacity="0.057"/><rect y="1135.7" width="2400" height="16.7" fill="#7c5c30" opacity="0.036"/><rect y="1163.5" width="2400" height="12.1" fill="#7c5c30" opacity="0.040"/><rect y="1183.8" width="2400" height="27.7" fill="#7c5c30" opacity="0.037"/><rect y="1230" width="2400" height="21.8" fill="#7c5c30" opacity="0.025"/><rect y="1266.2" width="2400" height="22.6" fill="#7c5c30" opacity="0.022"/><rect y="1304" width="2400" height="24.1" fill="#7c5c30" opacity="0.042"/><rect y="1344.1" width="2400" height="24.8" fill="#7c5c30" opacity="0.032"/><rect y="1385.5" width="2400" height="17" fill="#7c5c30" opacity="0.042"/><rect y="1413.7" width="2400" height="14.3" fill="#7c5c30" opacity="0.044"/><rect y="1437.7" width="2400" height="23.1" fill="#7c5c30" opacity="0.033"/><rect y="1476.1" width="2400" height="17.6" fill="#7c5c30" opacity="0.026"/><rect y="1505.5" width="2400" height="13.7" fill="#7c5c30" opacity="0.031"/><rect y="1528.4" width="2400" height="20.4" fill="#7c5c30" opacity="0.042"/><rect y="1562.3" width="2400" height="15.6" fill="#7c5c30" opacity="0.028"/><rect y="1588.2" width="2400" height="13.9" fill="#7c5c30" opacity="0.047"/><rect y="1611.4" width="2400" height="20.2" fill="#7c5c30" opacity="0.041"/><rect y="1645.1" width="2400" height="18.6" fill="#7c5c30" opacity="0.031"/><rect y="1676.1" width="2400" height="22.7" fill="#7c5c30" opacity="0.040"/><rect y="1714" width="2400" height="28.8" fill="#7c5c30" opacity="0.059"/><rect y="1762" width="2400" height="26.3" fill="#7c5c30" opacity="0.033"/><rect y="1805.9" width="2400" height="28.2" fill="#7c5c30" opacity="0.044"/><rect y="1852.9" width="2400" height="26" fill="#7c5c30" opacity="0.053"/><rect y="1896.2" width="2400" height="27.8" fill="#7c5c30" opacity="0.059"/><rect y="1942.6" width="2400" height="13.5" fill="#7c5c30" opacity="0.028"/><rect y="1965.1" width="2400" height="18.7" fill="#7c5c30" opacity="0.033"/><rect y="1996.2" width="2400" height="15.7" fill="#7c5c30" opacity="0.026"/><rect y="2022.5" width="2400" height="24.8" fill="#7c5c30" opacity="0.020"/><rect y="2063.7" width="2400" height="18.3" fill="#7c5c30" opacity="0.055"/><rect y="2094.2" width="2400" height="27" fill="#7c5c30" opacity="0.031"/><rect y="2139.3" width="2400" height="15" fill="#7c5c30" opacity="0.056"/><rect y="2164.3" width="2400" height="28.4" fill="#7c5c30" opacity="0.032"/><rect y="2211.6" width="2400" height="24" fill="#7c5c30" opacity="0.054"/><rect y="2251.6" width="2400" height="20.8" fill="#7c5c30" opacity="0.044"/><rect y="2286.3" width="2400" height="12.5" fill="#7c5c30" opacity="0.035"/><rect y="2307.1" width="2400" height="22.5" fill="#7c5c30" opacity="0.059"/><rect y="2344.6" width="2400" height="23.2" fill="#7c5c30" opacity="0.052"/><rect y="2383.3" width="2400" height="28.4" fill="#7c5c30" opacity="0.050"/><rect y="2430.6" width="2400" height="19" fill="#7c5c30" opacity="0.047"/><rect y="2462.2" width="2400" height="17.1" fill="#7c5c30" opacity="0.032"/><rect y="2490.7" width="2400" height="21.8" fill="#7c5c30" opacity="0.055"/><rect y="2527" width="2400" height="26" fill="#7c5c30" opacity="0.060"/><rect y="2570.3" width="2400" height="12.2" fill="#7c5c30" opacity="0.052"/><rect y="2590.6" width="2400" height="22.7" fill="#7c5c30" opacity="0.032"/><rect y="2628.5" width="2400" height="15.4" fill="#7c5c30" opacity="0.023"/><rect y="2654.1" width="2400" height="21.8" fill="#7c5c30" opacity="0.025"/><rect y="2690.4" width="2400" height="20.7" fill="#7c5c30" opacity="0.022"/><rect y="2725" width="2400" height="14.4" fill="#7c5c30" opacity="0.056"/><rect y="2749" width="2400" height="24.5" fill="#7c5c30" opacity="0.056"/><rect y="2789.8" width="2400" height="22" fill="#7c5c30" opacity="0.036"/><rect y="2826.4" width="2400" height="22.8" fill="#7c5c30" opacity="0.021"/><rect y="2864.5" width="2400" height="23.2" fill="#7c5c30" opacity="0.053"/><rect y="2903.3" width="2400" height="23.8" fill="#7c5c30" opacity="0.030"/><rect y="2942.9" width="2400" height="16.1" fill="#7c5c30" opacity="0.029"/><rect y="2969.7" width="2400" height="24.5" fill="#7c5c30" opacity="0.040"/><g filter="url(#a25-warp)"><rect x="210" y="300" width="1980" height="8.9" fill="#302b22"/><rect x="210" y="308.4" width="1980" height="8.9" fill="#4a7457"/><rect x="210" y="316.8" width="1980" height="8.9" fill="#302b22"/><rect x="210" y="325.2" width="1980" height="8.9" fill="#b19b6e"/><rect x="210" y="333.6" width="1980" height="8.9" fill="#302b22"/><rect x="210" y="885" width="1980" height="8.9" fill="#302b22"/><rect x="210" y="893.4" width="1980" height="8.9" fill="#4a7457"/><rect x="210" y="901.8" width="1980" height="8.9" fill="#302b22"/><rect x="210" y="910.2" width="1980" height="8.9" fill="#b19b6e"/><rect x="210" y="918.6" width="1980" height="8.9" fill="#302b22"/><rect x="210" y="1470" width="1980" height="8.9" fill="#302b22"/><rect x="210" y="1478.4" width="1980" height="8.9" fill="#4a7457"/><rect x="210" y="1486.8" width="1980" height="8.9" fill="#302b22"/><rect x="210" y="1495.2" width="1980" height="8.9" fill="#b19b6e"/><rect x="210" y="1503.6" width="1980" height="8.9" fill="#302b22"/><rect x="210" y="2055" width="1980" height="8.9" fill="#302b22"/><rect x="210" y="2063.4" width="1980" height="8.9" fill="#4a7457"/><rect x="210" y="2071.8" width="1980" height="8.9" fill="#302b22"/><rect x="210" y="2080.2" width="1980" height="8.9" fill="#b19b6e"/><rect x="210" y="2088.6" width="1980" height="8.9" fill="#302b22"/><rect x="210" y="2640" width="1980" height="8.9" fill="#302b22"/><rect x="210" y="2648.4" width="1980" height="8.9" fill="#4a7457"/><rect x="210" y="2656.8" width="1980" height="8.9" fill="#302b22"/><rect x="210" y="2665.2" width="1980" height="8.9" fill="#b19b6e"/><rect x="210" y="2673.6" width="1980" height="8.9" fill="#302b22"/><path d="M0 0 Q 68.3 -106.2 0 -279.5 Q -68.3 -106.2 0 0 Z" fill="#302b22" opacity="1" transform="translate(457.5 809.7) rotate(-58)"/><path d="M0 0 Q 68.3 -118.9 0 -312.8 Q -68.3 -118.9 0 0 Z" fill="#4a7457" opacity="1" transform="translate(457.5 809.7) rotate(-38.7)"/><path d="M0 0 Q 68.3 -131.5 0 -346.2 Q -68.3 -131.5 0 0 Z" fill="#302b22" opacity="1" transform="translate(457.5 809.7) rotate(-19.3)"/><path d="M0 0 Q 68.3 -144.2 0 -379.5 Q -68.3 -144.2 0 0 Z" fill="#4a7457" opacity="1" transform="translate(457.5 809.7) rotate(0)"/><path d="M0 0 Q 68.3 -131.5 0 -346.2 Q -68.3 -131.5 0 0 Z" fill="#302b22" opacity="1" transform="translate(457.5 809.7) rotate(19.3)"/><path d="M0 0 Q 68.3 -118.9 0 -312.8 Q -68.3 -118.9 0 0 Z" fill="#4a7457" opacity="1" transform="translate(457.5 809.7) rotate(38.7)"/><path d="M0 0 Q 68.3 -106.2 0 -279.5 Q -68.3 -106.2 0 0 Z" fill="#302b22" opacity="1" transform="translate(457.5 809.7) rotate(58)"/><path d="M343.6,809.7 Q457.5,938.7 571.4,809.7 Z" fill="#302b22"/><path d="M0 0 Q 58.7 -111.6 0 -293.6 Q -58.7 -111.6 0 0 Z" fill="#4a7457" opacity="1" transform="translate(952.5 809.7) rotate(0)"/><line x1="952.5" y1="809.7" x2="952.5" y2="856.5" stroke="#302b22" stroke-width="18.3"/><path d="M0 0 Q 75.7 -117.7 0 -309.8 Q -75.7 -117.7 0 0 Z" fill="#302b22" opacity="1" transform="translate(1447.5 809.7) rotate(-58)"/><path d="M0 0 Q 75.7 -131.8 0 -346.8 Q -75.7 -131.8 0 0 Z" fill="#4a7457" opacity="1" transform="translate(1447.5 809.7) rotate(-38.7)"/><path d="M0 0 Q 75.7 -145.8 0 -383.8 Q -75.7 -145.8 0 0 Z" fill="#302b22" opacity="1" transform="translate(1447.5 809.7) rotate(-19.3)"/><path d="M0 0 Q 75.7 -159.9 0 -420.7 Q -75.7 -159.9 0 0 Z" fill="#4a7457" opacity="1" transform="translate(1447.5 809.7) rotate(0)"/><path d="M0 0 Q 75.7 -145.8 0 -383.8 Q -75.7 -145.8 0 0 Z" fill="#302b22" opacity="1" transform="translate(1447.5 809.7) rotate(19.3)"/><path d="M0 0 Q 75.7 -131.8 0 -346.8 Q -75.7 -131.8 0 0 Z" fill="#4a7457" opacity="1" transform="translate(1447.5 809.7) rotate(38.7)"/><path d="M0 0 Q 75.7 -117.7 0 -309.8 Q -75.7 -117.7 0 0 Z" fill="#302b22" opacity="1" transform="translate(1447.5 809.7) rotate(58)"/><path d="M1321.3,809.7 Q1447.5,952.8 1573.7,809.7 Z" fill="#302b22"/><path d="M0 0 Q 60.5 -114.9 0 -302.5 Q -60.5 -114.9 0 0 Z" fill="#4a7457" opacity="1" transform="translate(1942.5 809.7) rotate(0)"/><line x1="1942.5" y1="809.7" x2="1942.5" y2="856.5" stroke="#302b22" stroke-width="18.9"/><line x1="408" y1="1394.7" x2="408" y2="1184.9" stroke="#302b22" stroke-width="22.9"/><line x1="408" y1="1184.9" x2="257.1" y2="1111.3" stroke="#302b22" stroke-width="17.2" stroke-linecap="round"/><circle cx="257.1" cy="1111.3" r="17.2" fill="#4a7457"/><line x1="408" y1="1184.9" x2="270.5" y2="1061.1" stroke="#302b22" stroke-width="17.2" stroke-linecap="round"/><circle cx="270.5" cy="1061.1" r="17.2" fill="#4a7457"/><line x1="408" y1="1184.9" x2="300.9" y2="1013.4" stroke="#302b22" stroke-width="17.2" stroke-linecap="round"/><circle cx="300.9" cy="1013.4" r="17.2" fill="#4a7457"/><line x1="408" y1="1184.9" x2="347.5" y2="974.1" stroke="#302b22" stroke-width="17.2" stroke-linecap="round"/><circle cx="347.5" cy="974.1" r="17.2" fill="#4a7457"/><line x1="408" y1="1184.9" x2="408" y2="948.4" stroke="#302b22" stroke-width="17.2" stroke-linecap="round"/><circle cx="408" cy="948.4" r="17.2" fill="#4a7457"/><line x1="408" y1="1184.9" x2="468.5" y2="974.1" stroke="#302b22" stroke-width="17.2" stroke-linecap="round"/><circle cx="468.5" cy="974.1" r="17.2" fill="#4a7457"/><line x1="408" y1="1184.9" x2="515.1" y2="1013.4" stroke="#302b22" stroke-width="17.2" stroke-linecap="round"/><circle cx="515.1" cy="1013.4" r="17.2" fill="#4a7457"/><line x1="408" y1="1184.9" x2="545.5" y2="1061.1" stroke="#302b22" stroke-width="17.2" stroke-linecap="round"/><circle cx="545.5" cy="1061.1" r="17.2" fill="#4a7457"/><line x1="408" y1="1184.9" x2="558.9" y2="1111.3" stroke="#302b22" stroke-width="17.2" stroke-linecap="round"/><circle cx="558.9" cy="1111.3" r="17.2" fill="#4a7457"/><line x1="804" y1="1394.7" x2="804" y2="1172.5" stroke="#302b22" stroke-width="24.2"/><line x1="804" y1="1172.5" x2="644.2" y2="1094.5" stroke="#302b22" stroke-width="18.2" stroke-linecap="round"/><circle cx="644.2" cy="1094.5" r="18.2" fill="#4a7457"/><line x1="804" y1="1172.5" x2="658.4" y2="1041.3" stroke="#302b22" stroke-width="18.2" stroke-linecap="round"/><circle cx="658.4" cy="1041.3" r="18.2" fill="#4a7457"/><line x1="804" y1="1172.5" x2="690.5" y2="990.8" stroke="#302b22" stroke-width="18.2" stroke-linecap="round"/><circle cx="690.5" cy="990.8" r="18.2" fill="#4a7457"/><line x1="804" y1="1172.5" x2="740" y2="949.1" stroke="#302b22" stroke-width="18.2" stroke-linecap="round"/><circle cx="740" cy="949.1" r="18.2" fill="#4a7457"/><line x1="804" y1="1172.5" x2="804" y2="921.9" stroke="#302b22" stroke-width="18.2" stroke-linecap="round"/><circle cx="804" cy="921.9" r="18.2" fill="#4a7457"/><line x1="804" y1="1172.5" x2="868" y2="949.1" stroke="#302b22" stroke-width="18.2" stroke-linecap="round"/><circle cx="868" cy="949.1" r="18.2" fill="#4a7457"/><line x1="804" y1="1172.5" x2="917.5" y2="990.8" stroke="#302b22" stroke-width="18.2" stroke-linecap="round"/><circle cx="917.5" cy="990.8" r="18.2" fill="#4a7457"/><line x1="804" y1="1172.5" x2="949.6" y2="1041.3" stroke="#302b22" stroke-width="18.2" stroke-linecap="round"/><circle cx="949.6" cy="1041.3" r="18.2" fill="#4a7457"/><line x1="804" y1="1172.5" x2="963.8" y2="1094.5" stroke="#302b22" stroke-width="18.2" stroke-linecap="round"/><circle cx="963.8" cy="1094.5" r="18.2" fill="#4a7457"/><line x1="1200" y1="1394.7" x2="1200" y2="1186.8" stroke="#302b22" stroke-width="22.7"/><line x1="1200" y1="1186.8" x2="1050.5" y2="1113.9" stroke="#302b22" stroke-width="17" stroke-linecap="round"/><circle cx="1050.5" cy="1113.9" r="17" fill="#4a7457"/><line x1="1200" y1="1186.8" x2="1063.7" y2="1064.1" stroke="#302b22" stroke-width="17" stroke-linecap="round"/><circle cx="1063.7" cy="1064.1" r="17" fill="#4a7457"/><line x1="1200" y1="1186.8" x2="1093.8" y2="1016.9" stroke="#302b22" stroke-width="17" stroke-linecap="round"/><circle cx="1093.8" cy="1016.9" r="17" fill="#4a7457"/><line x1="1200" y1="1186.8" x2="1140.1" y2="977.8" stroke="#302b22" stroke-width="17" stroke-linecap="round"/><circle cx="1140.1" cy="977.8" r="17" fill="#4a7457"/><line x1="1200" y1="1186.8" x2="1200" y2="952.4" stroke="#302b22" stroke-width="17" stroke-linecap="round"/><circle cx="1200" cy="952.4" r="17" fill="#4a7457"/><line x1="1200" y1="1186.8" x2="1259.9" y2="977.8" stroke="#302b22" stroke-width="17" stroke-linecap="round"/><circle cx="1259.9" cy="977.8" r="17" fill="#4a7457"/><line x1="1200" y1="1186.8" x2="1306.2" y2="1016.9" stroke="#302b22" stroke-width="17" stroke-linecap="round"/><circle cx="1306.2" cy="1016.9" r="17" fill="#4a7457"/><line x1="1200" y1="1186.8" x2="1336.3" y2="1064.1" stroke="#302b22" stroke-width="17" stroke-linecap="round"/><circle cx="1336.3" cy="1064.1" r="17" fill="#4a7457"/><line x1="1200" y1="1186.8" x2="1349.5" y2="1113.9" stroke="#302b22" stroke-width="17" stroke-linecap="round"/><circle cx="1349.5" cy="1113.9" r="17" fill="#4a7457"/><line x1="1596" y1="1394.7" x2="1596" y2="1168.9" stroke="#302b22" stroke-width="24.6"/><line x1="1596" y1="1168.9" x2="1433.6" y2="1089.7" stroke="#302b22" stroke-width="18.5" stroke-linecap="round"/><circle cx="1433.6" cy="1089.7" r="18.5" fill="#4a7457"/><line x1="1596" y1="1168.9" x2="1448" y2="1035.6" stroke="#302b22" stroke-width="18.5" stroke-linecap="round"/><circle cx="1448" cy="1035.6" r="18.5" fill="#4a7457"/><line x1="1596" y1="1168.9" x2="1480.7" y2="984.3" stroke="#302b22" stroke-width="18.5" stroke-linecap="round"/><circle cx="1480.7" cy="984.3" r="18.5" fill="#4a7457"/><line x1="1596" y1="1168.9" x2="1530.9" y2="941.9" stroke="#302b22" stroke-width="18.5" stroke-linecap="round"/><circle cx="1530.9" cy="941.9" r="18.5" fill="#4a7457"/><line x1="1596" y1="1168.9" x2="1596" y2="914.3" stroke="#302b22" stroke-width="18.5" stroke-linecap="round"/><circle cx="1596" cy="914.3" r="18.5" fill="#4a7457"/><line x1="1596" y1="1168.9" x2="1661.1" y2="941.9" stroke="#302b22" stroke-width="18.5" stroke-linecap="round"/><circle cx="1661.1" cy="941.9" r="18.5" fill="#4a7457"/><line x1="1596" y1="1168.9" x2="1711.3" y2="984.3" stroke="#302b22" stroke-width="18.5" stroke-linecap="round"/><circle cx="1711.3" cy="984.3" r="18.5" fill="#4a7457"/><line x1="1596" y1="1168.9" x2="1744" y2="1035.6" stroke="#302b22" stroke-width="18.5" stroke-linecap="round"/><circle cx="1744" cy="1035.6" r="18.5" fill="#4a7457"/><line x1="1596" y1="1168.9" x2="1758.4" y2="1089.7" stroke="#302b22" stroke-width="18.5" stroke-linecap="round"/><circle cx="1758.4" cy="1089.7" r="18.5" fill="#4a7457"/><line x1="1992" y1="1394.7" x2="1992" y2="1184.2" stroke="#302b22" stroke-width="23"/><line x1="1992" y1="1184.2" x2="1840.6" y2="1110.3" stroke="#302b22" stroke-width="17.2" stroke-linecap="round"/><circle cx="1840.6" cy="1110.3" r="17.2" fill="#4a7457"/><line x1="1992" y1="1184.2" x2="1854" y2="1059.9" stroke="#302b22" stroke-width="17.2" stroke-linecap="round"/><circle cx="1854" cy="1059.9" r="17.2" fill="#4a7457"/><line x1="1992" y1="1184.2" x2="1884.5" y2="1012.1" stroke="#302b22" stroke-width="17.2" stroke-linecap="round"/><circle cx="1884.5" cy="1012.1" r="17.2" fill="#4a7457"/><line x1="1992" y1="1184.2" x2="1931.3" y2="972.6" stroke="#302b22" stroke-width="17.2" stroke-linecap="round"/><circle cx="1931.3" cy="972.6" r="17.2" fill="#4a7457"/><line x1="1992" y1="1184.2" x2="1992" y2="946.8" stroke="#302b22" stroke-width="17.2" stroke-linecap="round"/><circle cx="1992" cy="946.8" r="17.2" fill="#4a7457"/><line x1="1992" y1="1184.2" x2="2052.7" y2="972.6" stroke="#302b22" stroke-width="17.2" stroke-linecap="round"/><circle cx="2052.7" cy="972.6" r="17.2" fill="#4a7457"/><line x1="1992" y1="1184.2" x2="2099.5" y2="1012.1" stroke="#302b22" stroke-width="17.2" stroke-linecap="round"/><circle cx="2099.5" cy="1012.1" r="17.2" fill="#4a7457"/><line x1="1992" y1="1184.2" x2="2130" y2="1059.9" stroke="#302b22" stroke-width="17.2" stroke-linecap="round"/><circle cx="2130" cy="1059.9" r="17.2" fill="#4a7457"/><line x1="1992" y1="1184.2" x2="2143.4" y2="1110.3" stroke="#302b22" stroke-width="17.2" stroke-linecap="round"/><circle cx="2143.4" cy="1110.3" r="17.2" fill="#4a7457"/><path d="M0 0 Q 70.1 -108.9 0 -286.7 Q -70.1 -108.9 0 0 Z" fill="#302b22" opacity="1" transform="translate(408 1979.7) rotate(-58)"/><path d="M0 0 Q 70.1 -128.4 0 -338 Q -70.1 -128.4 0 0 Z" fill="#4a7457" opacity="1" transform="translate(408 1979.7) rotate(-29)"/><path d="M0 0 Q 70.1 -147.9 0 -389.3 Q -70.1 -147.9 0 0 Z" fill="#302b22" opacity="1" transform="translate(408 1979.7) rotate(0)"/><path d="M0 0 Q 70.1 -128.4 0 -338 Q -70.1 -128.4 0 0 Z" fill="#4a7457" opacity="1" transform="translate(408 1979.7) rotate(29)"/><path d="M0 0 Q 70.1 -108.9 0 -286.7 Q -70.1 -108.9 0 0 Z" fill="#302b22" opacity="1" transform="translate(408 1979.7) rotate(58)"/><path d="M291.2,1979.7 Q408,2112.1 524.8,1979.7 Z" fill="#302b22"/><path d="M0 0 Q 59.8 -113.7 0 -299.2 Q -59.8 -113.7 0 0 Z" fill="#4a7457" opacity="1" transform="translate(804 1979.7) rotate(0)"/><line x1="804" y1="1979.7" x2="804" y2="2026.5" stroke="#302b22" stroke-width="18.7"/><path d="M0 0 Q 69 -107.2 0 -282.1 Q -69 -107.2 0 0 Z" fill="#302b22" opacity="1" transform="translate(1200 1979.7) rotate(-58)"/><path d="M0 0 Q 69 -122.6 0 -322.5 Q -69 -122.6 0 0 Z" fill="#4a7457" opacity="1" transform="translate(1200 1979.7) rotate(-34.8)"/><path d="M0 0 Q 69 -137.9 0 -363 Q -69 -137.9 0 0 Z" fill="#302b22" opacity="1" transform="translate(1200 1979.7) rotate(-11.6)"/><path d="M0 0 Q 69 -137.9 0 -363 Q -69 -137.9 0 0 Z" fill="#4a7457" opacity="1" transform="translate(1200 1979.7) rotate(11.6)"/><path d="M0 0 Q 69 -122.6 0 -322.5 Q -69 -122.6 0 0 Z" fill="#302b22" opacity="1" transform="translate(1200 1979.7) rotate(34.8)"/><path d="M0 0 Q 69 -107.2 0 -282.1 Q -69 -107.2 0 0 Z" fill="#4a7457" opacity="1" transform="translate(1200 1979.7) rotate(58)"/><path d="M1085.1,1979.7 Q1200,2110 1314.9,1979.7 Z" fill="#302b22"/><path d="M0 0 Q 60 -114 0 -299.9 Q -60 -114 0 0 Z" fill="#4a7457" opacity="1" transform="translate(1596 1979.7) rotate(0)"/><line x1="1596" y1="1979.7" x2="1596" y2="2026.5" stroke="#302b22" stroke-width="18.7"/><path d="M0 0 Q 74.8 -116.3 0 -306.1 Q -74.8 -116.3 0 0 Z" fill="#302b22" opacity="1" transform="translate(1992 1979.7) rotate(-58)"/><path d="M0 0 Q 74.8 -130.2 0 -342.6 Q -74.8 -130.2 0 0 Z" fill="#4a7457" opacity="1" transform="translate(1992 1979.7) rotate(-38.7)"/><path d="M0 0 Q 74.8 -144.1 0 -379.1 Q -74.8 -144.1 0 0 Z" fill="#302b22" opacity="1" transform="translate(1992 1979.7) rotate(-19.3)"/><path d="M0 0 Q 74.8 -158 0 -415.7 Q -74.8 -158 0 0 Z" fill="#4a7457" opacity="1" transform="translate(1992 1979.7) rotate(0)"/><path d="M0 0 Q 74.8 -144.1 0 -379.1 Q -74.8 -144.1 0 0 Z" fill="#302b22" opacity="1" transform="translate(1992 1979.7) rotate(19.3)"/><path d="M0 0 Q 74.8 -130.2 0 -342.6 Q -74.8 -130.2 0 0 Z" fill="#4a7457" opacity="1" transform="translate(1992 1979.7) rotate(38.7)"/><path d="M0 0 Q 74.8 -116.3 0 -306.1 Q -74.8 -116.3 0 0 Z" fill="#302b22" opacity="1" transform="translate(1992 1979.7) rotate(58)"/><path d="M1867.3,1979.7 Q1992,2121 2116.7,1979.7 Z" fill="#302b22"/><line x1="408" y1="2564.7" x2="408" y2="2338.5" stroke="#302b22" stroke-width="24.7"/><line x1="408" y1="2338.5" x2="245.4" y2="2259.2" stroke="#302b22" stroke-width="18.5" stroke-linecap="round"/><circle cx="245.4" cy="2259.2" r="18.5" fill="#4a7457"/><line x1="408" y1="2338.5" x2="259.8" y2="2205.1" stroke="#302b22" stroke-width="18.5" stroke-linecap="round"/><circle cx="259.8" cy="2205.1" r="18.5" fill="#4a7457"/><line x1="408" y1="2338.5" x2="292.5" y2="2153.7" stroke="#302b22" stroke-width="18.5" stroke-linecap="round"/><circle cx="292.5" cy="2153.7" r="18.5" fill="#4a7457"/><line x1="408" y1="2338.5" x2="342.8" y2="2111.2" stroke="#302b22" stroke-width="18.5" stroke-linecap="round"/><circle cx="342.8" cy="2111.2" r="18.5" fill="#4a7457"/><line x1="408" y1="2338.5" x2="408" y2="2083.6" stroke="#302b22" stroke-width="18.5" stroke-linecap="round"/><circle cx="408" cy="2083.6" r="18.5" fill="#4a7457"/><line x1="408" y1="2338.5" x2="473.2" y2="2111.2" stroke="#302b22" stroke-width="18.5" stroke-linecap="round"/><circle cx="473.2" cy="2111.2" r="18.5" fill="#4a7457"/><line x1="408" y1="2338.5" x2="523.5" y2="2153.7" stroke="#302b22" stroke-width="18.5" stroke-linecap="round"/><circle cx="523.5" cy="2153.7" r="18.5" fill="#4a7457"/><line x1="408" y1="2338.5" x2="556.2" y2="2205.1" stroke="#302b22" stroke-width="18.5" stroke-linecap="round"/><circle cx="556.2" cy="2205.1" r="18.5" fill="#4a7457"/><line x1="408" y1="2338.5" x2="570.6" y2="2259.2" stroke="#302b22" stroke-width="18.5" stroke-linecap="round"/><circle cx="570.6" cy="2259.2" r="18.5" fill="#4a7457"/><line x1="804" y1="2564.7" x2="804" y2="2338.1" stroke="#302b22" stroke-width="24.7"/><line x1="804" y1="2338.1" x2="641.1" y2="2258.6" stroke="#302b22" stroke-width="18.5" stroke-linecap="round"/><circle cx="641.1" cy="2258.6" r="18.5" fill="#4a7457"/><line x1="804" y1="2338.1" x2="655.5" y2="2204.4" stroke="#302b22" stroke-width="18.5" stroke-linecap="round"/><circle cx="655.5" cy="2204.4" r="18.5" fill="#4a7457"/><line x1="804" y1="2338.1" x2="688.3" y2="2152.9" stroke="#302b22" stroke-width="18.5" stroke-linecap="round"/><circle cx="688.3" cy="2152.9" r="18.5" fill="#4a7457"/><line x1="804" y1="2338.1" x2="738.7" y2="2110.4" stroke="#302b22" stroke-width="18.5" stroke-linecap="round"/><circle cx="738.7" cy="2110.4" r="18.5" fill="#4a7457"/><line x1="804" y1="2338.1" x2="804" y2="2082.7" stroke="#302b22" stroke-width="18.5" stroke-linecap="round"/><circle cx="804" cy="2082.7" r="18.5" fill="#4a7457"/><line x1="804" y1="2338.1" x2="869.3" y2="2110.4" stroke="#302b22" stroke-width="18.5" stroke-linecap="round"/><circle cx="869.3" cy="2110.4" r="18.5" fill="#4a7457"/><line x1="804" y1="2338.1" x2="919.7" y2="2152.9" stroke="#302b22" stroke-width="18.5" stroke-linecap="round"/><circle cx="919.7" cy="2152.9" r="18.5" fill="#4a7457"/><line x1="804" y1="2338.1" x2="952.5" y2="2204.4" stroke="#302b22" stroke-width="18.5" stroke-linecap="round"/><circle cx="952.5" cy="2204.4" r="18.5" fill="#4a7457"/><line x1="804" y1="2338.1" x2="966.9" y2="2258.6" stroke="#302b22" stroke-width="18.5" stroke-linecap="round"/><circle cx="966.9" cy="2258.6" r="18.5" fill="#4a7457"/><line x1="1200" y1="2564.7" x2="1200" y2="2357.5" stroke="#302b22" stroke-width="22.6"/><line x1="1200" y1="2357.5" x2="1051" y2="2284.8" stroke="#302b22" stroke-width="17" stroke-linecap="round"/><circle cx="1051" cy="2284.8" r="17" fill="#4a7457"/><line x1="1200" y1="2357.5" x2="1064.2" y2="2235.2" stroke="#302b22" stroke-width="17" stroke-linecap="round"/><circle cx="1064.2" cy="2235.2" r="17" fill="#4a7457"/><line x1="1200" y1="2357.5" x2="1094.2" y2="2188.2" stroke="#302b22" stroke-width="17" stroke-linecap="round"/><circle cx="1094.2" cy="2188.2" r="17" fill="#4a7457"/><line x1="1200" y1="2357.5" x2="1140.3" y2="2149.3" stroke="#302b22" stroke-width="17" stroke-linecap="round"/><circle cx="1140.3" cy="2149.3" r="17" fill="#4a7457"/><line x1="1200" y1="2357.5" x2="1200" y2="2123.9" stroke="#302b22" stroke-width="17" stroke-linecap="round"/><circle cx="1200" cy="2123.9" r="17" fill="#4a7457"/><line x1="1200" y1="2357.5" x2="1259.7" y2="2149.3" stroke="#302b22" stroke-width="17" stroke-linecap="round"/><circle cx="1259.7" cy="2149.3" r="17" fill="#4a7457"/><line x1="1200" y1="2357.5" x2="1305.8" y2="2188.2" stroke="#302b22" stroke-width="17" stroke-linecap="round"/><circle cx="1305.8" cy="2188.2" r="17" fill="#4a7457"/><line x1="1200" y1="2357.5" x2="1335.8" y2="2235.2" stroke="#302b22" stroke-width="17" stroke-linecap="round"/><circle cx="1335.8" cy="2235.2" r="17" fill="#4a7457"/><line x1="1200" y1="2357.5" x2="1349" y2="2284.8" stroke="#302b22" stroke-width="17" stroke-linecap="round"/><circle cx="1349" cy="2284.8" r="17" fill="#4a7457"/><line x1="1596" y1="2564.7" x2="1596" y2="2359.6" stroke="#302b22" stroke-width="22.4"/><line x1="1596" y1="2359.6" x2="1448.6" y2="2287.7" stroke="#302b22" stroke-width="16.8" stroke-linecap="round"/><circle cx="1448.6" cy="2287.7" r="16.8" fill="#4a7457"/><line x1="1596" y1="2359.6" x2="1461.6" y2="2238.6" stroke="#302b22" stroke-width="16.8" stroke-linecap="round"/><circle cx="1461.6" cy="2238.6" r="16.8" fill="#4a7457"/><line x1="1596" y1="2359.6" x2="1491.3" y2="2192.1" stroke="#302b22" stroke-width="16.8" stroke-linecap="round"/><circle cx="1491.3" cy="2192.1" r="16.8" fill="#4a7457"/><line x1="1596" y1="2359.6" x2="1536.9" y2="2153.6" stroke="#302b22" stroke-width="16.8" stroke-linecap="round"/><circle cx="1536.9" cy="2153.6" r="16.8" fill="#4a7457"/><line x1="1596" y1="2359.6" x2="1596" y2="2128.5" stroke="#302b22" stroke-width="16.8" stroke-linecap="round"/><circle cx="1596" cy="2128.5" r="16.8" fill="#4a7457"/><line x1="1596" y1="2359.6" x2="1655.1" y2="2153.6" stroke="#302b22" stroke-width="16.8" stroke-linecap="round"/><circle cx="1655.1" cy="2153.6" r="16.8" fill="#4a7457"/><line x1="1596" y1="2359.6" x2="1700.7" y2="2192.1" stroke="#302b22" stroke-width="16.8" stroke-linecap="round"/><circle cx="1700.7" cy="2192.1" r="16.8" fill="#4a7457"/><line x1="1596" y1="2359.6" x2="1730.4" y2="2238.6" stroke="#302b22" stroke-width="16.8" stroke-linecap="round"/><circle cx="1730.4" cy="2238.6" r="16.8" fill="#4a7457"/><line x1="1596" y1="2359.6" x2="1743.4" y2="2287.7" stroke="#302b22" stroke-width="16.8" stroke-linecap="round"/><circle cx="1743.4" cy="2287.7" r="16.8" fill="#4a7457"/><line x1="1992" y1="2564.7" x2="1992" y2="2343.5" stroke="#302b22" stroke-width="24.1"/><line x1="1992" y1="2343.5" x2="1833" y2="2266" stroke="#302b22" stroke-width="18.1" stroke-linecap="round"/><circle cx="1833" cy="2266" r="18.1" fill="#4a7457"/><line x1="1992" y1="2343.5" x2="1847.1" y2="2213.1" stroke="#302b22" stroke-width="18.1" stroke-linecap="round"/><circle cx="1847.1" cy="2213.1" r="18.1" fill="#4a7457"/><line x1="1992" y1="2343.5" x2="1879.1" y2="2162.8" stroke="#302b22" stroke-width="18.1" stroke-linecap="round"/><circle cx="1879.1" cy="2162.8" r="18.1" fill="#4a7457"/><line x1="1992" y1="2343.5" x2="1928.3" y2="2121.3" stroke="#302b22" stroke-width="18.1" stroke-linecap="round"/><circle cx="1928.3" cy="2121.3" r="18.1" fill="#4a7457"/><line x1="1992" y1="2343.5" x2="1992" y2="2094.3" stroke="#302b22" stroke-width="18.1" stroke-linecap="round"/><circle cx="1992" cy="2094.3" r="18.1" fill="#4a7457"/><line x1="1992" y1="2343.5" x2="2055.7" y2="2121.3" stroke="#302b22" stroke-width="18.1" stroke-linecap="round"/><circle cx="2055.7" cy="2121.3" r="18.1" fill="#4a7457"/><line x1="1992" y1="2343.5" x2="2104.9" y2="2162.8" stroke="#302b22" stroke-width="18.1" stroke-linecap="round"/><circle cx="2104.9" cy="2162.8" r="18.1" fill="#4a7457"/><line x1="1992" y1="2343.5" x2="2136.9" y2="2213.1" stroke="#302b22" stroke-width="18.1" stroke-linecap="round"/><circle cx="2136.9" cy="2213.1" r="18.1" fill="#4a7457"/><line x1="1992" y1="2343.5" x2="2151" y2="2266" stroke="#302b22" stroke-width="18.1" stroke-linecap="round"/><circle cx="2151" cy="2266" r="18.1" fill="#4a7457"/><rect x="120" y="120" width="2160" height="2760" fill="none" stroke="#302b22" stroke-width="6" opacity="0.85"/></g><rect width="2400" height="3000" filter="url(#a25-mottle)" style="mix-blend-mode:multiply" opacity="0.5"/><rect width="2400" height="3000" filter="url(#a25-fade)" style="mix-blend-mode:screen" opacity="0.55"/><rect width="2400" height="3000" filter="url(#a25-grain)" style="mix-blend-mode:multiply" opacity="0.32"/><ellipse cx="2124.8" cy="2841.8" rx="255.5" ry="210.5" fill="#6b4a22" opacity="0.063" filter="url(#a25-blur9)"/><ellipse cx="1730.3" cy="927.4" rx="244.3" ry="255.2" fill="#6b4a22" opacity="0.050" filter="url(#a25-blur9)"/><ellipse cx="1363.5" cy="2296" rx="206.4" ry="223.3" fill="#6b4a22" opacity="0.065" filter="url(#a25-blur9)"/><ellipse cx="469.1" cy="2185.3" rx="337.4" ry="358.6" fill="#6b4a22" opacity="0.051" filter="url(#a25-blur9)"/><ellipse cx="536.8" cy="263.5" rx="201.3" ry="197.6" fill="#6b4a22" opacity="0.031" filter="url(#a25-blur9)"/><ellipse cx="2139.2" cy="921.2" rx="233.6" ry="163.2" fill="#6b4a22" opacity="0.052" filter="url(#a25-blur9)"/><rect x="0" width="28.2" height="3000" fill="#fff2d0" opacity="0.019"/><rect x="56.3" width="18.8" height="3000" fill="#fff2d0" opacity="0.042"/><rect x="94" width="30.4" height="3000" fill="#fff2d0" opacity="0.034"/><rect x="154.8" width="22.7" height="3000" fill="#fff2d0" opacity="0.032"/><rect x="200.3" width="30.5" height="3000" fill="#fff2d0" opacity="0.040"/><rect x="261.3" width="20.5" height="3000" fill="#fff2d0" opacity="0.042"/><rect x="302.2" width="24.7" height="3000" fill="#fff2d0" opacity="0.033"/><rect x="351.6" width="31.1" height="3000" fill="#fff2d0" opacity="0.018"/><rect x="413.9" width="15.7" height="3000" fill="#fff2d0" opacity="0.031"/><rect x="445.2" width="32.3" height="3000" fill="#fff2d0" opacity="0.017"/><rect x="509.9" width="27.6" height="3000" fill="#fff2d0" opacity="0.017"/><rect x="565" width="20.9" height="3000" fill="#fff2d0" opacity="0.041"/><rect x="606.7" width="32.8" height="3000" fill="#fff2d0" opacity="0.018"/><rect x="672.4" width="33.6" height="3000" fill="#fff2d0" opacity="0.044"/><rect x="739.6" width="18.7" height="3000" fill="#fff2d0" opacity="0.045"/><rect x="777" width="16.8" height="3000" fill="#fff2d0" opacity="0.021"/><rect x="810.6" width="25.1" height="3000" fill="#fff2d0" opacity="0.029"/><rect x="860.7" width="23.9" height="3000" fill="#fff2d0" opacity="0.035"/><rect x="908.6" width="17.6" height="3000" fill="#fff2d0" opacity="0.016"/><rect x="943.7" width="16.6" height="3000" fill="#fff2d0" opacity="0.038"/><rect x="976.8" width="18.1" height="3000" fill="#fff2d0" opacity="0.022"/><rect x="1013" width="24" height="3000" fill="#fff2d0" opacity="0.020"/><rect x="1061" width="31" height="3000" fill="#fff2d0" opacity="0.043"/><rect x="1123" width="24.5" height="3000" fill="#fff2d0" opacity="0.033"/><rect x="1171.9" width="26.2" height="3000" fill="#fff2d0" opacity="0.030"/><rect x="1224.4" width="28.2" height="3000" fill="#fff2d0" opacity="0.035"/><rect x="1280.9" width="18.2" height="3000" fill="#fff2d0" opacity="0.043"/><rect x="1317.2" width="17.8" height="3000" fill="#fff2d0" opacity="0.044"/><rect x="1352.8" width="34.7" height="3000" fill="#fff2d0" opacity="0.032"/><rect x="1422.2" width="30.1" height="3000" fill="#fff2d0" opacity="0.028"/><rect x="1482.5" width="21.4" height="3000" fill="#fff2d0" opacity="0.034"/><rect x="1525.3" width="28.3" height="3000" fill="#fff2d0" opacity="0.036"/><rect x="1582" width="22.5" height="3000" fill="#fff2d0" opacity="0.044"/><rect x="1627" width="28.2" height="3000" fill="#fff2d0" opacity="0.041"/><rect x="1683.5" width="27.5" height="3000" fill="#fff2d0" opacity="0.021"/><rect x="1738.6" width="21.9" height="3000" fill="#fff2d0" opacity="0.018"/><rect x="1782.3" width="26.3" height="3000" fill="#fff2d0" opacity="0.027"/><rect x="1834.9" width="33.9" height="3000" fill="#fff2d0" opacity="0.027"/><rect x="1902.6" width="27.5" height="3000" fill="#fff2d0" opacity="0.033"/><rect x="1957.6" width="16.4" height="3000" fill="#fff2d0" opacity="0.019"/><rect x="1990.4" width="27.4" height="3000" fill="#fff2d0" opacity="0.035"/><rect x="2045.2" width="25.6" height="3000" fill="#fff2d0" opacity="0.027"/><rect x="2096.4" width="28.3" height="3000" fill="#fff2d0" opacity="0.041"/><rect x="2153" width="29" height="3000" fill="#fff2d0" opacity="0.017"/><rect x="2211" width="16.7" height="3000" fill="#fff2d0" opacity="0.036"/><rect x="2244.4" width="27.4" height="3000" fill="#fff2d0" opacity="0.024"/><rect x="2299.2" width="16.7" height="3000" fill="#fff2d0" opacity="0.038"/><rect x="2332.5" width="20.7" height="3000" fill="#fff2d0" opacity="0.028"/><rect x="2373.9" width="24.3" height="3000" fill="#fff2d0" opacity="0.035"/><linearGradient id="a25-er" x1="0" x2="1" y1="0" y2="0"><stop offset="0" stop-color="#3a2a12" stop-opacity="0.22"/><stop offset="1" stop-color="#3a2a12" stop-opacity="0"/></linearGradient><rect x="0" y="0" width="90" height="3000" fill="url(#a25-er)"/><linearGradient id="a25-el" x1="1" x2="0" y1="0" y2="0"><stop offset="0" stop-color="#3a2a12" stop-opacity="0.22"/><stop offset="1" stop-color="#3a2a12" stop-opacity="0"/></linearGradient><rect x="2310" y="0" width="90" height="3000" fill="url(#a25-el)"/><linearGradient id="a25-ed" x1="0" x2="0" y1="0" y2="1"><stop offset="0" stop-color="#3a2a12" stop-opacity="0.22"/><stop offset="1" stop-color="#3a2a12" stop-opacity="0"/></linearGradient><rect x="0" y="0" width="2400" height="90" fill="url(#a25-ed)"/><linearGradient id="a25-eu" x1="0" x2="0" y1="1" y2="0"><stop offset="0" stop-color="#3a2a12" stop-opacity="0.22"/><stop offset="1" stop-color="#3a2a12" stop-opacity="0"/></linearGradient><rect x="0" y="2910" width="2400" height="90" fill="url(#a25-eu)"/><circle cx="704.5" cy="1921.8" r="5.4" fill="#8a5a2e" opacity="0.088"/><circle cx="1974.4" cy="984.6" r="14.1" fill="#8a5a2e" opacity="0.055"/><circle cx="2308.8" cy="2722.1" r="6.1" fill="#8a5a2e" opacity="0.081"/><circle cx="385.3" cy="1534.3" r="14.2" fill="#8a5a2e" opacity="0.055"/><circle cx="2247.8" cy="1127.3" r="12.8" fill="#8a5a2e" opacity="0.100"/><circle cx="1733.5" cy="987.8" r="11.6" fill="#8a5a2e" opacity="0.053"/><circle cx="1818.8" cy="2615.2" r="16" fill="#8a5a2e" opacity="0.078"/><circle cx="992" cy="1631.5" r="5.6" fill="#8a5a2e" opacity="0.106"/><circle cx="1143.1" cy="1742.5" r="12.8" fill="#8a5a2e" opacity="0.074"/><circle cx="1340.4" cy="130.3" r="5.9" fill="#8a5a2e" opacity="0.066"/><circle cx="1444.7" cy="2398.6" r="5.5" fill="#8a5a2e" opacity="0.081"/><circle cx="2238.7" cy="1152.8" r="13.7" fill="#8a5a2e" opacity="0.123"/><circle cx="1940" cy="949.2" r="8.2" fill="#8a5a2e" opacity="0.113"/><circle cx="1999.5" cy="2183.6" r="14.1" fill="#8a5a2e" opacity="0.043"/><circle cx="680.4" cy="2696.9" r="13.2" fill="#8a5a2e" opacity="0.119"/><rect width="2400" height="3000" fill="url(#a25-vig)"/></svg></svg>