<svg xmlns="http://www.w3.org/2000/svg" width="2400" height="1800" viewBox="0 0 2400 1800"><rect width="2400" height="1800" fill="#e5ddcf"/><rect y="1430" width="2400" height="370" fill="#b89a76"/><line x1="100" y1="1430" x2="45" y2="1800" stroke="#00000016" stroke-width="5"/><line x1="330" y1="1430" x2="275" y2="1800" stroke="#00000016" stroke-width="5"/><line x1="560" y1="1430" x2="505" y2="1800" stroke="#00000016" stroke-width="5"/><line x1="790" y1="1430" x2="735" y2="1800" stroke="#00000016" stroke-width="5"/><line x1="1020" y1="1430" x2="965" y2="1800" stroke="#00000016" stroke-width="5"/><line x1="1250" y1="1430" x2="1195" y2="1800" stroke="#00000016" stroke-width="5"/><line x1="1480" y1="1430" x2="1425" y2="1800" stroke="#00000016" stroke-width="5"/><line x1="1710" y1="1430" x2="1655" y2="1800" stroke="#00000016" stroke-width="5"/><line x1="1940" y1="1430" x2="1885" y2="1800" stroke="#00000016" stroke-width="5"/><line x1="2170" y1="1430" x2="2115" y2="1800" stroke="#00000016" stroke-width="5"/><rect x="620" y="1180" width="1180" height="52" rx="10" fill="#8a6540"/><rect x="680" y="1232" width="70" height="330" fill="#775433"/><rect x="1670" y="1232" width="70" height="330" fill="#775433"/><rect x="760" y="1120" width="220" height="34" rx="6" fill="#8a4423"/><rect x="780" y="1086" width="200" height="34" rx="6" fill="#39685c"/><rect x="800" y="1052" width="170" height="34" rx="6" fill="#c9a227"/><circle cx="1240" cy="1130" r="46" fill="#3f3428"/><rect x="1226" y="1048" width="16" height="60" fill="#3f3428" transform="rotate(18 1240 1090)"/><rect x="1420" y="1100" width="260" height="26" rx="13" fill="#e8dcc0"/><rect x="1450" y="1072" width="260" height="26" rx="13" fill="#dfd0ad"/><rect x="1080" y="1300" width="360" height="34" rx="14" fill="#6f5436"/><rect x="1100" y="1334" width="40" height="220" fill="#6f5436"/><rect x="1380" y="1334" width="40" height="220" fill="#6f5436"/><rect x="1080" y="1030" width="42" height="290" rx="14" fill="#6f5436"/><rect x="260" y="480" width="560" height="24" fill="#8a6540"/><rect x="300" y="360" width="90" height="120" fill="#b3502f"/><rect x="400" y="380" width="80" height="100" fill="#2c4661"/><rect x="490" y="350" width="86" height="130" fill="#96a396"/><path d="M700,480 Q 616,347 574,382" fill="none" stroke="#5d7052" stroke-width="11.2" stroke-linecap="round"/><path d="M700,480 Q 644,347 616,354" fill="none" stroke="#5d7052" stroke-width="11.2" stroke-linecap="round"/><path d="M700,480 Q 672,347 658,326" fill="none" stroke="#5d7052" stroke-width="11.2" stroke-linecap="round"/><path d="M700,480 Q 700,347 700,298" fill="none" stroke="#5d7052" stroke-width="11.2" stroke-linecap="round"/><path d="M700,480 Q 728,347 742,326" fill="none" stroke="#5d7052" stroke-width="11.2" stroke-linecap="round"/><path d="M700,480 Q 756,347 784,354" fill="none" stroke="#5d7052" stroke-width="11.2" stroke-linecap="round"/><path d="M700,480 Q 784,347 826,382" fill="none" stroke="#5d7052" stroke-width="11.2" stroke-linecap="round"/><path d="M651,480 L749,480 L736.4,557 L663.6,557 Z" fill="#a9714d"/><path d="M320,1520 Q 164,1273 86,1338" fill="none" stroke="#5d7052" stroke-width="20.8" stroke-linecap="round"/><path d="M320,1520 Q 216,1273 164,1286" fill="none" stroke="#5d7052" stroke-width="20.8" stroke-linecap="round"/><path d="M320,1520 Q 268,1273 242,1234" fill="none" stroke="#5d7052" stroke-width="20.8" stroke-linecap="round"/><path d="M320,1520 Q 320,1273 320,1182" fill="none" stroke="#5d7052" stroke-width="20.8" stroke-linecap="round"/><path d="M320,1520 Q 372,1273 398,1234" fill="none" stroke="#5d7052" stroke-width="20.8" stroke-linecap="round"/><path d="M320,1520 Q 424,1273 476,1286" fill="none" stroke="#5d7052" stroke-width="20.8" stroke-linecap="round"/><path d="M320,1520 Q 476,1273 554,1338" fill="none" stroke="#5d7052" stroke-width="20.8" stroke-linecap="round"/><path d="M229,1520 L411,1520 L387.6,1663 L252.4,1663 Z" fill="#a9714d"/><defs><filter id="a31s-sh" x="-30%" y="-30%" width="160%" height="160%"><feGaussianBlur stdDeviation="16"/></filter></defs><rect x="1206" y="294" width="616" height="756" fill="#000" opacity="0.28" filter="url(#a31s-sh)"/><rect x="1192" y="272" width="616" height="756" fill="#443a2d"/><rect x="1210.2" y="290.2" width="579.6" height="719.6" fill="none" stroke="#00000055" stroke-width="3"/><rect x="1220" y="300" width="560" height="700" fill="#f6f2ea"/><svg x="1262" y="342" width="476" height="616" viewBox="0 0 2400 3000" preserveAspectRatio="xMidYMid slice"><rect width="2400" height="3000" fill="#c8703f"/><radialGradient id="a31-vig" cx="50%" cy="42%" r="80%"><stop offset="55%" stop-color="#000" stop-opacity="0"/><stop offset="100%" stop-color="#000" stop-opacity="0.15"/></radialGradient><rect width="2400" height="3000" fill="url(#a31-vig)"/><circle cx="976.2" cy="958.1" r="3.7" fill="#26160e" opacity="0.071"/><circle cx="1838.7" cy="2121.2" r="4" fill="#26160e" opacity="0.034"/><circle cx="2200.8" cy="704.4" r="3.3" fill="#26160e" opacity="0.044"/><circle cx="136.7" cy="1776.5" r="3.6" fill="#26160e" opacity="0.041"/><circle cx="1679.6" cy="604.9" r="3.8" fill="#26160e" opacity="0.078"/><circle cx="2188.6" cy="2149" r="3.6" fill="#26160e" opacity="0.065"/><circle cx="1398" cy="1779.8" r="3.1" fill="#26160e" opacity="0.041"/><circle cx="1289.1" cy="2481" r="3.7" fill="#26160e" opacity="0.058"/><circle cx="420.8" cy="1968" r="4.4" fill="#26160e" opacity="0.070"/><circle cx="2291.5" cy="369.3" r="4.1" fill="#26160e" opacity="0.050"/><circle cx="1788.8" cy="644.1" r="2.3" fill="#26160e" opacity="0.078"/><circle cx="530.4" cy="2919.3" r="4.4" fill="#26160e" opacity="0.066"/><circle cx="1161.1" cy="2608.8" r="3.2" fill="#26160e" opacity="0.078"/><circle cx="886.8" cy="129.5" r="4.4" fill="#26160e" opacity="0.031"/><circle cx="472.8" cy="2941.7" r="4.3" fill="#26160e" opacity="0.042"/><circle cx="316.7" cy="733.8" r="2.8" fill="#26160e" opacity="0.031"/><circle cx="1220.1" cy="1446.5" r="2.4" fill="#26160e" opacity="0.032"/><circle cx="1310.5" cy="2772.8" r="2.2" fill="#26160e" opacity="0.079"/><circle cx="794.7" cy="541.7" r="1.7" fill="#26160e" opacity="0.059"/><circle cx="1780.8" cy="2245.1" r="3.9" fill="#26160e" opacity="0.056"/><circle cx="2059.5" cy="2774.3" r="2.3" fill="#26160e" opacity="0.074"/><circle cx="626.2" cy="1937.9" r="3" fill="#26160e" opacity="0.044"/><circle cx="1320.2" cy="1311.1" r="2.8" fill="#26160e" opacity="0.046"/><circle cx="1325.9" cy="928.7" r="4.4" fill="#26160e" opacity="0.067"/><circle cx="2009.2" cy="1265.3" r="3.4" fill="#26160e" opacity="0.043"/><circle cx="1023.5" cy="270.7" r="3.5" fill="#26160e" opacity="0.052"/><circle cx="271.5" cy="379" r="2.9" fill="#26160e" opacity="0.053"/><circle cx="1995.7" cy="1201.6" r="3.5" fill="#26160e" opacity="0.031"/><circle cx="1737.1" cy="571.4" r="3.3" fill="#26160e" opacity="0.048"/><circle cx="355" cy="2037.1" r="3.3" fill="#26160e" opacity="0.071"/><circle cx="1286.4" cy="2915.3" r="4.4" fill="#26160e" opacity="0.068"/><circle cx="344.3" cy="1194.9" r="3.3" fill="#26160e" opacity="0.069"/><circle cx="453.6" cy="2196.5" r="4.2" fill="#26160e" opacity="0.076"/><circle cx="873.3" cy="1870.7" r="1.9" fill="#26160e" opacity="0.031"/><circle cx="1753.8" cy="449.4" r="1.6" fill="#26160e" opacity="0.038"/><circle cx="825" cy="661" r="2.3" fill="#26160e" opacity="0.053"/><circle cx="108.7" cy="2210.1" r="3.2" fill="#26160e" opacity="0.031"/><circle cx="1684.5" cy="2020.7" r="4.3" fill="#26160e" opacity="0.041"/><circle cx="168.7" cy="2156.2" r="4.3" fill="#26160e" opacity="0.053"/><circle cx="1848" cy="2838.4" r="2.8" fill="#26160e" opacity="0.073"/><circle cx="2169.9" cy="941.5" r="4.5" fill="#26160e" opacity="0.061"/><circle cx="816.6" cy="1159.1" r="4.2" fill="#26160e" opacity="0.064"/><circle cx="2145.1" cy="1449.7" r="3.4" fill="#26160e" opacity="0.066"/><circle cx="480.2" cy="1650.4" r="2.2" fill="#26160e" opacity="0.032"/><circle cx="1937.9" cy="456.7" r="1.6" fill="#26160e" opacity="0.080"/><circle cx="687.9" cy="2333.4" r="3.2" fill="#26160e" opacity="0.060"/><circle cx="2315.8" cy="1263.7" r="4.4" fill="#26160e" opacity="0.059"/><circle cx="2102.4" cy="1285" r="4.4" fill="#26160e" opacity="0.034"/><circle cx="2266.9" cy="1637.6" r="3.7" fill="#26160e" opacity="0.050"/><circle cx="403" cy="2022.6" r="4.4" fill="#26160e" opacity="0.057"/><circle cx="2094.2" cy="1313.1" r="1.7" fill="#26160e" opacity="0.041"/><circle cx="2151.6" cy="1574.6" r="1.5" fill="#26160e" opacity="0.072"/><circle cx="293.1" cy="2319.6" r="4.4" fill="#26160e" opacity="0.056"/><circle cx="1806.1" cy="471.6" r="3.1" fill="#26160e" opacity="0.069"/><circle cx="1605.5" cy="2216.2" r="4" fill="#26160e" opacity="0.067"/><circle cx="2126.2" cy="79.9" r="2.9" fill="#26160e" opacity="0.047"/><circle cx="877.9" cy="324.6" r="2.7" fill="#26160e" opacity="0.032"/><circle cx="1089.6" cy="2275" r="2.1" fill="#26160e" opacity="0.072"/><circle cx="1887" cy="1848.1" r="3.3" fill="#26160e" opacity="0.077"/><circle cx="1754.9" cy="2179.9" r="3.9" fill="#26160e" opacity="0.055"/><circle cx="242.1" cy="1053.2" r="4.1" fill="#26160e" opacity="0.057"/><circle cx="1499.7" cy="2638.4" r="1.8" fill="#26160e" opacity="0.076"/><circle cx="572.5" cy="1170.9" r="4.2" fill="#26160e" opacity="0.052"/><circle cx="1642.9" cy="1519" r="4" fill="#26160e" opacity="0.031"/><circle cx="844" cy="1928.8" r="1.8" fill="#26160e" opacity="0.056"/><circle cx="2132.2" cy="1635.2" r="1.7" fill="#26160e" opacity="0.060"/><circle cx="541.8" cy="2192.9" r="2.5" fill="#26160e" opacity="0.063"/><circle cx="1521.3" cy="2045.2" r="3.7" fill="#26160e" opacity="0.055"/><circle cx="297.7" cy="383.4" r="3.1" fill="#26160e" opacity="0.068"/><circle cx="1196.7" cy="1208.4" r="4" fill="#26160e" opacity="0.053"/><circle cx="2030.5" cy="1239.7" r="3.3" fill="#26160e" opacity="0.054"/><circle cx="2076.4" cy="159.3" r="3.9" fill="#26160e" opacity="0.077"/><circle cx="2260.1" cy="1308.7" r="4.1" fill="#26160e" opacity="0.071"/><circle cx="806" cy="1335.5" r="4.3" fill="#26160e" opacity="0.078"/><circle cx="2259" cy="421.3" r="3.6" fill="#26160e" opacity="0.061"/><circle cx="1923" cy="2779.3" r="4.2" fill="#26160e" opacity="0.038"/><circle cx="185.1" cy="2430.8" r="2.7" fill="#26160e" opacity="0.032"/><circle cx="949.1" cy="259.7" r="3.3" fill="#26160e" opacity="0.047"/><circle cx="1579" cy="1804.3" r="3.8" fill="#26160e" opacity="0.058"/><circle cx="1080.5" cy="493" r="4.4" fill="#26160e" opacity="0.062"/><clipPath id="a31-gz"><rect x="150" y="150" width="2100" height="2700"/></clipPath><g clip-path="url(#a31-gz)"><circle cx="1111.8" cy="825.8" r="338.3" fill="#8a4423"/><path d="M150,2050 C 700,1962.9 1100,2137.1 1600,1997.8 S 2200,2084.8 2250,2030 L2250,2850 L150,2850 Z" fill="#26160e" opacity="0.35"/><path d="M150,2270 C 700,2154.4 1100,2385.6 1600,2200.7 S 2200,2316.2 2250,2250 L2250,2850 L150,2850 Z" fill="#e0a077" opacity="0.9"/><path d="M150,2520 C 700,2426.5 1100,2613.5 1600,2463.9 S 2200,2557.4 2250,2500 L2250,2850 L150,2850 Z" fill="#26160e" opacity="1"/><polygon points="702.9,1255.4 220,2130 843.4,2130" fill="#26160e"/><polygon points="702.9,1255.4 843.4,2130 1185.8,2130" fill="#26160e" opacity="0.6"/><polygon points="1198,1426.5 661.1,2130 1317.7,2130" fill="#26160e"/><polygon points="1198,1426.5 1317.7,2130 1734.9,2130" fill="#26160e" opacity="0.6"/><polygon points="1713.1,1567.1 1294.8,2130 1800,2130" fill="#26160e"/><polygon points="1713.1,1567.1 1800,2130 2131.4,2130" fill="#26160e" opacity="0.6"/><path d="M1129.3,914.3 q 26,-24 52,0 q 26,-24 52,0" fill="none" stroke="#26160e" stroke-width="8" stroke-linecap="round"/><path d="M1090.5,601.8 q 26,-24 52,0 q 26,-24 52,0" fill="none" stroke="#26160e" stroke-width="8" stroke-linecap="round"/><path d="M825.6,1061.1 q 26,-24 52,0 q 26,-24 52,0" fill="none" stroke="#26160e" stroke-width="8" stroke-linecap="round"/></g><polyline points="240,2800 300,2740 360,2800 420,2740 480,2800 540,2740 600,2800 660,2740 720,2800 780,2740 840,2800 900,2740 960,2800 1020,2740 1080,2800 1140,2740 1200,2800 1260,2740 1320,2800 1380,2740 1440,2800 1500,2740 1560,2800 1620,2740 1680,2800 1740,2740 1800,2800 1860,2740 1920,2800 1980,2740 2040,2800 2100,2740 2160,2800 " fill="none" stroke="#26160e" stroke-width="10.8" stroke-linejoin="miter"/><rect x="100" y="100" width="2200" height="2800" fill="none" stroke="#26160e" stroke-width="9"/><rect x="142" y="142" width="2116" height="2716" fill="none" stroke="#26160e" stroke-width="3" opacity="0.65"/></svg></svg>