<svg xmlns="http://www.w3.org/2000/svg" width="2400" height="1800" viewBox="0 0 2400 1800"><rect width="2400" height="1800" fill="#e9e1d2"/><rect y="1430" width="2400" height="370" fill="#c8b190"/><line x1="120" y1="1430" x2="60" y2="1800" stroke="#00000018" stroke-width="6"/><line x1="380" y1="1430" x2="320" y2="1800" stroke="#00000018" stroke-width="6"/><line x1="640" y1="1430" x2="580" y2="1800" stroke="#00000018" stroke-width="6"/><line x1="900" y1="1430" x2="840" y2="1800" stroke="#00000018" stroke-width="6"/><line x1="1160" y1="1430" x2="1100" y2="1800" stroke="#00000018" stroke-width="6"/><line x1="1420" y1="1430" x2="1360" y2="1800" stroke="#00000018" stroke-width="6"/><line x1="1680" y1="1430" x2="1620" y2="1800" stroke="#00000018" stroke-width="6"/><line x1="1940" y1="1430" x2="1880" y2="1800" stroke="#00000018" stroke-width="6"/><line x1="2200" y1="1430" x2="2140" y2="1800" stroke="#00000018" stroke-width="6"/><rect y="1418" width="2400" height="16" fill="#d7cbb6"/><rect x="700" y="980" width="1000" height="460" rx="26" fill="#a87e57"/><rect x="660" y="1290" width="1080" height="210" rx="30" fill="#f1ebdf"/><rect x="660" y="1420" width="1080" height="120" rx="24" fill="#8a6a4b" opacity="0.85"/><rect x="770" y="1180" width="300" height="150" rx="40" fill="#faf6ec"/><rect x="1330" y="1180" width="300" height="150" rx="40" fill="#3d434d"/><rect x="640" y="1530" width="1120" height="26" rx="12" fill="#a87e57"/><rect x="360" y="1260" width="240" height="220" rx="10" fill="#a87e57"/><rect x="380" y="1300" width="200" height="14" fill="#00000022"/><line x1="480" y1="1260" x2="480" y2="1130" stroke="#5a4632" stroke-width="12"/><path d="M410,1130 L550,1130 L520,1020 L440,1020 Z" fill="#8a6a4b"/><path d="M2060,1520 Q 1910,1282.5 1835,1345" fill="none" stroke="#5d7052" stroke-width="20" stroke-linecap="round"/><path d="M2060,1520 Q 1960,1282.5 1910,1295" fill="none" stroke="#5d7052" stroke-width="20" stroke-linecap="round"/><path d="M2060,1520 Q 2010,1282.5 1985,1245" fill="none" stroke="#5d7052" stroke-width="20" stroke-linecap="round"/><path d="M2060,1520 Q 2060,1282.5 2060,1195" fill="none" stroke="#5d7052" stroke-width="20" stroke-linecap="round"/><path d="M2060,1520 Q 2110,1282.5 2135,1245" fill="none" stroke="#5d7052" stroke-width="20" stroke-linecap="round"/><path d="M2060,1520 Q 2160,1282.5 2210,1295" fill="none" stroke="#5d7052" stroke-width="20" stroke-linecap="round"/><path d="M2060,1520 Q 2210,1282.5 2285,1345" fill="none" stroke="#5d7052" stroke-width="20" stroke-linecap="round"/><path d="M1972.5,1520 L2147.5,1520 L2125,1657.5 L1995,1657.5 Z" fill="#a9714d"/><defs><filter id="a61b-sh" x="-30%" y="-30%" width="160%" height="160%"><feGaussianBlur stdDeviation="16"/></filter></defs><rect x="928" y="246" width="572" height="702" fill="#000" opacity="0.28" filter="url(#a61b-sh)"/><rect x="914" y="224" width="572" height="702" fill="#4a3d2f"/><rect x="930.9" y="240.9" width="538.2" height="668.2" fill="none" stroke="#00000055" stroke-width="3"/><rect x="940" y="250" width="520" height="650" fill="#f6f2ea"/><svg x="979" y="289" width="442" height="572" viewBox="0 0 2400 3000" preserveAspectRatio="xMidYMid slice"><rect width="2400" height="3000" fill="#2b2f36"/><radialGradient id="a61-vig" cx="50%" cy="42%" r="80%"><stop offset="55%" stop-color="#000" stop-opacity="0"/><stop offset="100%" stop-color="#000" stop-opacity="0.15"/></radialGradient><rect width="2400" height="3000" fill="url(#a61-vig)"/><circle cx="946.7" cy="744.5" r="2.3" fill="#b3873e" opacity="0.074"/><circle cx="1174" cy="1756" r="3" fill="#b3873e" opacity="0.077"/><circle cx="1000.6" cy="1362.9" r="3.6" fill="#b3873e" opacity="0.072"/><circle cx="1776" cy="1559.2" r="3.8" fill="#b3873e" opacity="0.078"/><circle cx="1113.6" cy="1780.3" r="3.4" fill="#b3873e" opacity="0.063"/><circle cx="1047.9" cy="1473.4" r="4" fill="#b3873e" opacity="0.050"/><circle cx="1863.8" cy="1757" r="4.2" fill="#b3873e" opacity="0.065"/><circle cx="1697.2" cy="234.6" r="3.8" fill="#b3873e" opacity="0.073"/><circle cx="1932.4" cy="1124.9" r="3.4" fill="#b3873e" opacity="0.065"/><circle cx="916.2" cy="449.5" r="2.1" fill="#b3873e" opacity="0.032"/><circle cx="891.9" cy="1496.4" r="4.2" fill="#b3873e" opacity="0.053"/><circle cx="2335.2" cy="2493.4" r="2.2" fill="#b3873e" opacity="0.072"/><circle cx="481.1" cy="755.5" r="1.7" fill="#b3873e" opacity="0.041"/><circle cx="1260.3" cy="42.8" r="2.2" fill="#b3873e" opacity="0.070"/><circle cx="1028.2" cy="2328.1" r="2.6" fill="#b3873e" opacity="0.073"/><circle cx="2160.8" cy="247.4" r="4" fill="#b3873e" opacity="0.031"/><circle cx="1616.7" cy="2779.3" r="1.8" fill="#b3873e" opacity="0.040"/><circle cx="757.1" cy="2026.9" r="2.5" fill="#b3873e" opacity="0.055"/><circle cx="2206.2" cy="632.9" r="3.3" fill="#b3873e" opacity="0.036"/><circle cx="1771.8" cy="1131.5" r="4.1" fill="#b3873e" opacity="0.039"/><circle cx="857.3" cy="992.1" r="3.2" fill="#b3873e" opacity="0.071"/><circle cx="2286.6" cy="463.7" r="2.1" fill="#b3873e" opacity="0.050"/><circle cx="93.2" cy="1988.4" r="1.7" fill="#b3873e" opacity="0.031"/><circle cx="384.4" cy="1536.4" r="3.5" fill="#b3873e" opacity="0.063"/><circle cx="2227" cy="1101.1" r="4.2" fill="#b3873e" opacity="0.073"/><circle cx="565.3" cy="2272.1" r="4.2" fill="#b3873e" opacity="0.067"/><circle cx="383" cy="1856.5" r="2.1" fill="#b3873e" opacity="0.064"/><circle cx="2179.5" cy="2573.9" r="2" fill="#b3873e" opacity="0.046"/><circle cx="1700.1" cy="2724.5" r="1.8" fill="#b3873e" opacity="0.080"/><circle cx="780.6" cy="400.3" r="2.2" fill="#b3873e" opacity="0.061"/><circle cx="228.8" cy="459.9" r="2" fill="#b3873e" opacity="0.060"/><circle cx="701.4" cy="86.1" r="4.3" fill="#b3873e" opacity="0.075"/><circle cx="1797.4" cy="351.8" r="3" fill="#b3873e" opacity="0.037"/><circle cx="1183.6" cy="1294" r="1.7" fill="#b3873e" opacity="0.034"/><circle cx="909.2" cy="2346.3" r="2" fill="#b3873e" opacity="0.076"/><circle cx="1466" cy="864.5" r="2" fill="#b3873e" opacity="0.066"/><circle cx="664.6" cy="1777.6" r="1.9" fill="#b3873e" opacity="0.080"/><circle cx="1989.1" cy="1875.6" r="1.9" fill="#b3873e" opacity="0.066"/><circle cx="283" cy="437.5" r="3.2" fill="#b3873e" opacity="0.036"/><circle cx="2217.8" cy="2417.1" r="2.7" fill="#b3873e" opacity="0.041"/><circle cx="653.5" cy="2410" r="3.7" fill="#b3873e" opacity="0.069"/><circle cx="444.4" cy="2135" r="1.8" fill="#b3873e" opacity="0.048"/><circle cx="887.4" cy="1743.9" r="3.8" fill="#b3873e" opacity="0.062"/><circle cx="2181.2" cy="823.6" r="2.4" fill="#b3873e" opacity="0.038"/><circle cx="1040.9" cy="1640.1" r="3.5" fill="#b3873e" opacity="0.077"/><circle cx="465.1" cy="1221.3" r="3.4" fill="#b3873e" opacity="0.063"/><circle cx="231.3" cy="2904.3" r="3.6" fill="#b3873e" opacity="0.038"/><circle cx="770.1" cy="990.4" r="2.8" fill="#b3873e" opacity="0.067"/><circle cx="1367.6" cy="581.4" r="3.6" fill="#b3873e" opacity="0.041"/><circle cx="2248.5" cy="1976.8" r="2.9" fill="#b3873e" opacity="0.047"/><circle cx="2262.4" cy="119.5" r="3.5" fill="#b3873e" opacity="0.043"/><circle cx="1042.9" cy="1010.2" r="3.8" fill="#b3873e" opacity="0.053"/><circle cx="1569.3" cy="2542.6" r="4.5" fill="#b3873e" opacity="0.066"/><circle cx="2288.4" cy="2784.4" r="3.9" fill="#b3873e" opacity="0.054"/><circle cx="464.1" cy="577.2" r="4.1" fill="#b3873e" opacity="0.051"/><circle cx="1958.5" cy="2309.1" r="2" fill="#b3873e" opacity="0.061"/><circle cx="1006.6" cy="777.2" r="3.3" fill="#b3873e" opacity="0.060"/><circle cx="1355.8" cy="1269.6" r="2.3" fill="#b3873e" opacity="0.041"/><circle cx="1219.5" cy="581.7" r="4.2" fill="#b3873e" opacity="0.076"/><circle cx="1713.4" cy="1205.1" r="1.5" fill="#b3873e" opacity="0.078"/><circle cx="770" cy="1620.4" r="3.5" fill="#b3873e" opacity="0.061"/><circle cx="594.8" cy="1896.6" r="4.3" fill="#b3873e" opacity="0.045"/><circle cx="2257.2" cy="2276.1" r="4.4" fill="#b3873e" opacity="0.068"/><circle cx="1471.5" cy="2291" r="2.1" fill="#b3873e" opacity="0.059"/><circle cx="153.6" cy="2288.7" r="3.7" fill="#b3873e" opacity="0.080"/><circle cx="540.9" cy="2033" r="3.1" fill="#b3873e" opacity="0.073"/><circle cx="1533.4" cy="473.7" r="1.6" fill="#b3873e" opacity="0.031"/><circle cx="2227.9" cy="2472.4" r="3.3" fill="#b3873e" opacity="0.078"/><circle cx="694.3" cy="2186.3" r="1.6" fill="#b3873e" opacity="0.032"/><circle cx="138.8" cy="2585.9" r="3.8" fill="#b3873e" opacity="0.046"/><circle cx="1361.8" cy="1843.7" r="3.6" fill="#b3873e" opacity="0.046"/><circle cx="1821.3" cy="1762.3" r="2.7" fill="#b3873e" opacity="0.053"/><circle cx="2351.7" cy="2345.5" r="3.7" fill="#b3873e" opacity="0.073"/><circle cx="867.8" cy="769.2" r="1.7" fill="#b3873e" opacity="0.054"/><circle cx="1109.4" cy="2411.8" r="4.1" fill="#b3873e" opacity="0.050"/><circle cx="1771.4" cy="2889.1" r="2.4" fill="#b3873e" opacity="0.054"/><circle cx="1155.3" cy="348.7" r="3.7" fill="#b3873e" opacity="0.066"/><circle cx="1154.5" cy="919.9" r="3.4" fill="#b3873e" opacity="0.047"/><circle cx="1202.5" cy="795.9" r="3.8" fill="#b3873e" opacity="0.048"/><circle cx="2062.8" cy="1961.2" r="1.6" fill="#b3873e" opacity="0.049"/><path d="M1821.3,1929.7 Q1712.8,2279.5 1519,2516.1 Q1325.1,2752.8 1079.9,2650.3 Q834.7,2547.8 693.5,2261.2 Q552.3,1974.5 564,1587.5 Q575.8,1200.4 703.2,897.6 Q830.6,594.9 1073.4,543.2 Q1316.3,491.6 1540.8,672.2 Q1765.3,852.8 1847.5,1216.4 Q1929.8,1580 1821.3,1929.7 Z" fill="#3d434d" stroke="#b3873e" stroke-width="10"/><clipPath id="a61-rs"><path d="M1821.3,1929.7 Q1712.8,2279.5 1519,2516.1 Q1325.1,2752.8 1079.9,2650.3 Q834.7,2547.8 693.5,2261.2 Q552.3,1974.5 564,1587.5 Q575.8,1200.4 703.2,897.6 Q830.6,594.9 1073.4,543.2 Q1316.3,491.6 1540.8,672.2 Q1765.3,852.8 1847.5,1216.4 Q1929.8,1580 1821.3,1929.7 Z"/></clipPath><g clip-path="url(#a61-rs)"><path d="M740,2560 C 580,1900 900,1500 1200,1400 C 1500,1300 1760,1000 1500,640" fill="none" stroke="#b3873e" stroke-width="150" opacity="0.25"/><line x1="740" y1="2518" x2="740" y2="2602" stroke="#b3873e" stroke-width="14" stroke-linecap="round"/><line x1="740" y1="2558.5" x2="704.7" y2="2588.7" stroke="#b3873e" stroke-width="12" stroke-linecap="round"/><line x1="740" y1="2537.9" x2="704.7" y2="2568.1" stroke="#b3873e" stroke-width="12" stroke-linecap="round"/><line x1="761.6" y1="2403" x2="761.6" y2="2487" stroke="#b3873e" stroke-width="14" stroke-linecap="round"/><line x1="761.6" y1="2414.4" x2="726.3" y2="2444.6" stroke="#b3873e" stroke-width="12" stroke-linecap="round"/><line x1="784.4" y1="2286.2" x2="784.4" y2="2370.2" stroke="#b3873e" stroke-width="14" stroke-linecap="round"/><line x1="784.4" y1="2315.4" x2="819.7" y2="2345.7" stroke="#b3873e" stroke-width="12" stroke-linecap="round"/><line x1="784.4" y1="2312.2" x2="749.1" y2="2342.4" stroke="#b3873e" stroke-width="12" stroke-linecap="round"/><line x1="809.7" y1="2166" x2="809.7" y2="2250" stroke="#b3873e" stroke-width="14" stroke-linecap="round"/><line x1="809.7" y1="2199.6" x2="845" y2="2229.8" stroke="#b3873e" stroke-width="12" stroke-linecap="round"/><line x1="809.7" y1="2181.6" x2="845" y2="2211.8" stroke="#b3873e" stroke-width="12" stroke-linecap="round"/><line x1="838.6" y1="2041.3" x2="838.6" y2="2125.3" stroke="#b3873e" stroke-width="14" stroke-linecap="round"/><line x1="838.6" y1="2057.3" x2="873.9" y2="2087.6" stroke="#b3873e" stroke-width="12" stroke-linecap="round"/><line x1="872.1" y1="1911.9" x2="872.1" y2="1995.9" stroke="#b3873e" stroke-width="14" stroke-linecap="round"/><line x1="872.1" y1="1942.9" x2="907.4" y2="1973.2" stroke="#b3873e" stroke-width="12" stroke-linecap="round"/><line x1="872.1" y1="1927.8" x2="836.8" y2="1958" stroke="#b3873e" stroke-width="12" stroke-linecap="round"/><line x1="910.9" y1="1778.3" x2="910.9" y2="1862.3" stroke="#b3873e" stroke-width="14" stroke-linecap="round"/><line x1="910.9" y1="1795.3" x2="946.1" y2="1825.5" stroke="#b3873e" stroke-width="12" stroke-linecap="round"/><line x1="955.4" y1="1641.4" x2="955.4" y2="1725.4" stroke="#b3873e" stroke-width="14" stroke-linecap="round"/><line x1="955.4" y1="1668" x2="990.7" y2="1698.3" stroke="#b3873e" stroke-width="12" stroke-linecap="round"/><line x1="955.4" y1="1677.7" x2="990.7" y2="1707.9" stroke="#b3873e" stroke-width="12" stroke-linecap="round"/><line x1="1006.1" y1="1502.9" x2="1006.1" y2="1586.9" stroke="#b3873e" stroke-width="14" stroke-linecap="round"/><line x1="1006.1" y1="1513.2" x2="1041.4" y2="1543.4" stroke="#b3873e" stroke-width="12" stroke-linecap="round"/><line x1="1062.9" y1="1364.7" x2="1062.9" y2="1448.7" stroke="#b3873e" stroke-width="14" stroke-linecap="round"/><line x1="1062.9" y1="1392.2" x2="1098.1" y2="1422.4" stroke="#b3873e" stroke-width="12" stroke-linecap="round"/><line x1="1125.4" y1="1228.6" x2="1125.4" y2="1312.6" stroke="#b3873e" stroke-width="14" stroke-linecap="round"/><line x1="1125.4" y1="1249.5" x2="1160.7" y2="1279.8" stroke="#b3873e" stroke-width="12" stroke-linecap="round"/><line x1="1193.3" y1="1096.1" x2="1193.3" y2="1180.1" stroke="#b3873e" stroke-width="14" stroke-linecap="round"/><line x1="1193.3" y1="1124.7" x2="1228.6" y2="1154.9" stroke="#b3873e" stroke-width="12" stroke-linecap="round"/><line x1="1193.3" y1="1134.2" x2="1158" y2="1164.4" stroke="#b3873e" stroke-width="12" stroke-linecap="round"/><line x1="1265.7" y1="968.1" x2="1265.7" y2="1052.1" stroke="#b3873e" stroke-width="14" stroke-linecap="round"/><line x1="1265.7" y1="1009.7" x2="1230.4" y2="1040" stroke="#b3873e" stroke-width="12" stroke-linecap="round"/><line x1="1265.7" y1="988.5" x2="1301" y2="1018.8" stroke="#b3873e" stroke-width="12" stroke-linecap="round"/><line x1="1341.7" y1="844.8" x2="1341.7" y2="928.8" stroke="#b3873e" stroke-width="14" stroke-linecap="round"/><line x1="1341.7" y1="859.7" x2="1306.4" y2="890" stroke="#b3873e" stroke-width="12" stroke-linecap="round"/><line x1="1341.7" y1="882.2" x2="1306.4" y2="912.5" stroke="#b3873e" stroke-width="12" stroke-linecap="round"/><line x1="1420.2" y1="725.7" x2="1420.2" y2="809.7" stroke="#b3873e" stroke-width="14" stroke-linecap="round"/><line x1="1420.2" y1="749.2" x2="1384.9" y2="779.5" stroke="#b3873e" stroke-width="12" stroke-linecap="round"/><line x1="1420.2" y1="754" x2="1384.9" y2="784.2" stroke="#b3873e" stroke-width="12" stroke-linecap="round"/><line x1="1500" y1="609.6" x2="1500" y2="693.6" stroke="#b3873e" stroke-width="14" stroke-linecap="round"/><line x1="1500" y1="648.3" x2="1464.7" y2="678.5" stroke="#b3873e" stroke-width="12" stroke-linecap="round"/><polyline points="1506.6,640 1508.1,642 1508.9,644.7 1508.8,647.8 1507.7,651.1 1505.5,654.2 1502.1,656.8 1497.9,658.5 1492.9,659.1 1487.6,658.3 1482.3,655.9 1477.5,652.1 1473.6,646.8 1471,640.3 1470.1,633 1471.1,625.3 1474.1,617.7 1479.2,610.7 1486.2,605 1494.7,601 1504.3,599.2 1514.5,599.7 1524.6,602.9 1534,608.7 1542,616.9 1548,627.1 1551.4,638.9 1551.9,651.6 1549.1,664.4 1543.2,676.5 1534.3,687.2 1522.7,695.6 1509,701.1 1494,703.2 1478.6,701.6 1463.6,696.1 1450,687 1438.7,674.5 1430.6,659.4 1426.2,642.3 1426.1,624.3 1430.4,606.4 1439.1,589.7 1451.9,575.2 1468.1,564 1486.8,556.9 1507.2,554.4 1527.9,557 1547.9,564.6 1565.7,577 1580.3,593.6 1590.7,613.6 1596.1,636 1596,659.4 1590.2,682.4 1578.8,703.8 1562.3,722.1 1541.6,736.2 1517.8,745.1 1492.1,748 1466,744.6" fill="none" stroke="#b3873e" stroke-width="18" stroke-linecap="round" stroke-linejoin="round"/><polyline points="733.4,2560 731.9,2562 731.1,2564.7 731.2,2567.8 732.3,2571.1 734.5,2574.2 737.9,2576.8 742.1,2578.5 747.1,2579.1 752.4,2578.3 757.7,2575.9 762.5,2572.1 766.4,2566.8 769,2560.3 769.9,2553 768.9,2545.3 765.9,2537.7 760.8,2530.7 753.8,2525 745.3,2521 735.7,2519.2 725.5,2519.7 715.4,2522.9 706,2528.7 698,2536.9 692,2547.1 688.6,2558.9 688.1,2571.6 690.9,2584.4 696.8,2596.5 705.7,2607.2 717.3,2615.6 731,2621.1 746,2623.2 761.4,2621.6 776.4,2616.1 790,2607 801.3,2594.5 809.4,2579.4 813.8,2562.3 813.9,2544.3 809.6,2526.4 800.9,2509.7 788.1,2495.2 771.9,2484 753.2,2476.9 732.8,2474.4 712.1,2477 692.1,2484.6 674.3,2497 659.7,2513.6 649.3,2533.6 643.9,2556 644,2579.4 649.8,2602.4 661.2,2623.8 677.7,2642.1 698.4,2656.2 722.2,2665.1 747.9,2668 774,2664.6" fill="none" stroke="#b3873e" stroke-width="18" stroke-linecap="round" stroke-linejoin="round"/></g><rect x="100" y="100" width="2200" height="2800" fill="none" stroke="#b3873e" stroke-width="9"/><rect x="142" y="142" width="2116" height="2716" fill="none" stroke="#b3873e" stroke-width="3" opacity="0.65"/></svg></svg>