<svg xmlns="http://www.w3.org/2000/svg" width="2400" height="1800" viewBox="0 0 2400 1800"><rect width="2400" height="1800" fill="#dfe4dc"/><rect y="1400" width="2400" height="400" fill="#c2a67e"/><line x1="60" y1="1400" x2="10" y2="1800" stroke="#00000015" stroke-width="5"/><line x1="260" y1="1400" x2="210" y2="1800" stroke="#00000015" stroke-width="5"/><line x1="460" y1="1400" x2="410" y2="1800" stroke="#00000015" stroke-width="5"/><line x1="660" y1="1400" x2="610" y2="1800" stroke="#00000015" stroke-width="5"/><line x1="860" y1="1400" x2="810" y2="1800" stroke="#00000015" stroke-width="5"/><line x1="1060" y1="1400" x2="1010" y2="1800" stroke="#00000015" stroke-width="5"/><line x1="1260" y1="1400" x2="1210" y2="1800" stroke="#00000015" stroke-width="5"/><line x1="1460" y1="1400" x2="1410" y2="1800" stroke="#00000015" stroke-width="5"/><line x1="1660" y1="1400" x2="1610" y2="1800" stroke="#00000015" stroke-width="5"/><line x1="1860" y1="1400" x2="1810" y2="1800" stroke="#00000015" stroke-width="5"/><line x1="2060" y1="1400" x2="2010" y2="1800" stroke="#00000015" stroke-width="5"/><line x1="2260" y1="1400" x2="2210" y2="1800" stroke="#00000015" stroke-width="5"/><rect x="180" y="260" width="900" height="620" fill="#8a6a48"/><rect x="215" y="295" width="830" height="550" fill="#41524a"/><line x1="280" y1="420" x2="760" y2="420" stroke="#ffffff66" stroke-width="9" stroke-linecap="round"/><line x1="280" y1="520" x2="620" y2="520" stroke="#ffffff44" stroke-width="9" stroke-linecap="round"/><circle cx="880" cy="560" r="90" fill="none" stroke="#ffffff55" stroke-width="8"/><rect x="215" y="845" width="830" height="22" fill="#6f5436"/><rect x="330" y="1240" width="640" height="60" rx="10" fill="#9c7449"/><rect x="370" y="1300" width="60" height="240" fill="#8a6540"/><rect x="870" y="1300" width="60" height="240" fill="#8a6540"/><rect x="430" y="1160" width="150" height="80" rx="8" fill="#a4552c"/><rect x="450" y="1120" width="150" height="40" rx="8" fill="#c2ac83"/><circle cx="800" cy="1130" r="86" fill="#7fa3b8"/><path d="M760,1060 Q820,1100 780,1190 M740,1090 Q800,1120 850,1100" stroke="#5d8069" stroke-width="16" fill="none" stroke-linecap="round"/><circle cx="800" cy="1130" r="86" fill="none" stroke="#6b5233" stroke-width="7"/><line x1="800" y1="1216" x2="800" y2="1250" stroke="#6b5233" stroke-width="10"/><rect x="750" y="1244" width="100" height="14" rx="7" fill="#6b5233"/><rect x="1980" y="700" width="300" height="800" fill="#9c7449"/><rect x="2000" y="930" width="260" height="16" fill="#7c5a37"/><rect x="2020" y="790" width="36" height="140" fill="#b3502f"/><rect x="2066" y="802" width="36" height="128" fill="#39685c"/><rect x="2112" y="790" width="36" height="140" fill="#c9a227"/><rect x="2158" y="802" width="36" height="128" fill="#2c4661"/><rect x="2204" y="790" width="36" height="140" fill="#8a4423"/><rect x="2000" y="1180" width="260" height="16" fill="#7c5a37"/><rect x="2020" y="1040" width="36" height="140" fill="#39685c"/><rect x="2066" y="1052" width="36" height="128" fill="#c9a227"/><rect x="2112" y="1040" width="36" height="140" fill="#2c4661"/><rect x="2158" y="1052" width="36" height="128" fill="#8a4423"/><rect x="2204" y="1040" width="36" height="140" fill="#b3502f"/><rect x="2000" y="1430" width="260" height="16" fill="#7c5a37"/><rect x="2020" y="1290" width="36" height="140" fill="#c9a227"/><rect x="2066" y="1302" width="36" height="128" fill="#2c4661"/><rect x="2112" y="1290" width="36" height="140" fill="#8a4423"/><rect x="2158" y="1302" width="36" height="128" fill="#b3502f"/><rect x="2204" y="1290" width="36" height="140" fill="#39685c"/><defs><filter id="a89c-sh" x="-30%" y="-30%" width="160%" height="160%"><feGaussianBlur stdDeviation="16"/></filter></defs><rect x="1340.5" y="298.5" width="517" height="635" fill="#000" opacity="0.28" filter="url(#a89c-sh)"/><rect x="1326.5" y="276.5" width="517" height="635" fill="#3d342a"/><rect x="1341.8" y="291.8" width="486.4" height="604.5" fill="none" stroke="#00000055" stroke-width="3"/><rect x="1350" y="300" width="470" height="588" fill="#f6f2ea"/><svg x="1385.3" y="335.3" width="399.5" height="517.5" viewBox="0 0 2400 3000" preserveAspectRatio="xMidYMid slice"><filter id="a89-warp" x="-4%" y="-4%" width="108%" height="108%"><feTurbulence type="fractalNoise" baseFrequency="0.0105" numOctaves="2" seed="5559" result="w"/><feDisplacementMap in="SourceGraphic" in2="w" scale="12" xChannelSelector="R" yChannelSelector="G"/></filter><filter id="a89-grain" x="0%" y="0%" width="100%" height="100%"><feTurbulence type="fractalNoise" baseFrequency="0.6" numOctaves="2" seed="5566"/><feColorMatrix type="matrix" values="0.33 0.33 0.33 0 0.62  0.33 0.33 0.33 0 0.62  0.33 0.33 0.33 0 0.62  0 0 0 0 1"/></filter><filter id="a89-mottle" x="0%" y="0%" width="100%" height="100%"><feTurbulence type="fractalNoise" baseFrequency="0.0045" numOctaves="3" seed="5572"/><feColorMatrix type="matrix" values="0.2 0.2 0.2 0 0.78  0.2 0.2 0.2 0 0.78  0.2 0.2 0.2 0 0.78  0 0 0 0 1"/></filter><filter id="a89-fade" x="0%" y="0%" width="100%" height="100%"><feTurbulence type="fractalNoise" baseFrequency="0.006" numOctaves="2" seed="5588"/><feColorMatrix type="matrix" values="0.3 0.3 0.3 0 -0.08  0.3 0.3 0.3 0 -0.08  0.3 0.3 0.3 0 -0.1  0 0 0 0 1"/></filter><filter id="a89-blur9"><feGaussianBlur stdDeviation="9"/></filter><radialGradient id="a89-vig" cx="50%" cy="44%" r="78%"><stop offset="52%" stop-color="#241a10" stop-opacity="0"/><stop offset="100%" stop-color="#241a10" stop-opacity="0.17"/></radialGradient><radialGradient id="a89-warm" cx="69%" cy="30%" r="85%"><stop offset="0%" stop-color="#e8c890" stop-opacity="0.14"/><stop offset="70%" stop-color="#e8c890" stop-opacity="0"/></radialGradient><rect width="2400" height="3000" fill="#ddcfb2"/><rect width="2400" height="3000" fill="url(#a89-warm)"/><rect y="871.8" width="2400" height="353.1" fill="#8a6a40" opacity="0.042" transform="rotate(1.4 1200 871.8)"/><rect y="1346.2" width="2400" height="210.6" fill="#ffffff" opacity="0.043" transform="rotate(1.9 1200 1346.2)"/><rect y="330.3" width="2400" height="227.4" fill="#8a6a40" opacity="0.042" transform="rotate(-0.8 1200 330.3)"/><rect y="1747.3" width="2400" height="257.3" fill="#ffffff" opacity="0.048" transform="rotate(0.2 1200 1747.3)"/><rect y="95.7" width="2400" height="152" fill="#8a6a40" opacity="0.032" transform="rotate(-1.7 1200 95.7)"/><rect y="1782.8" width="2400" height="336.1" fill="#ffffff" opacity="0.045" transform="rotate(-1.3 1200 1782.8)"/><rect y="2971" width="2400" height="356" fill="#8a6a40" opacity="0.049" transform="rotate(-1.1 1200 2971)"/><g filter="url(#a89-warp)"><line x1="280" y1="513.7" x2="2120" y2="513.7" stroke="#6d3a22" stroke-width="11.6"/><line x1="420.2" y1="504.1" x2="336.2" y2="449.6" stroke="#6d3a22" stroke-width="19.3" stroke-linecap="round"/><line x1="420.2" y1="504.1" x2="345.5" y2="408.5" stroke="#6d3a22" stroke-width="19.3" stroke-linecap="round"/><line x1="420.2" y1="504.1" x2="373.8" y2="369.4" stroke="#6d3a22" stroke-width="19.3" stroke-linecap="round"/><line x1="420.2" y1="504.1" x2="420.2" y2="340.5" stroke="#6d3a22" stroke-width="19.3" stroke-linecap="round"/><line x1="420.2" y1="504.1" x2="466.6" y2="369.4" stroke="#6d3a22" stroke-width="19.3" stroke-linecap="round"/><line x1="420.2" y1="504.1" x2="494.9" y2="408.5" stroke="#6d3a22" stroke-width="19.3" stroke-linecap="round"/><line x1="420.2" y1="504.1" x2="504.2" y2="449.6" stroke="#6d3a22" stroke-width="19.3" stroke-linecap="round"/><line x1="680.1" y1="504.1" x2="596.2" y2="449.6" stroke="#6d3a22" stroke-width="19.3" stroke-linecap="round"/><line x1="680.1" y1="504.1" x2="605.5" y2="408.5" stroke="#6d3a22" stroke-width="19.3" stroke-linecap="round"/><line x1="680.1" y1="504.1" x2="633.8" y2="369.4" stroke="#6d3a22" stroke-width="19.3" stroke-linecap="round"/><line x1="680.1" y1="504.1" x2="680.1" y2="340.5" stroke="#6d3a22" stroke-width="19.3" stroke-linecap="round"/><line x1="680.1" y1="504.1" x2="726.5" y2="369.4" stroke="#6d3a22" stroke-width="19.3" stroke-linecap="round"/><line x1="680.1" y1="504.1" x2="754.8" y2="408.5" stroke="#6d3a22" stroke-width="19.3" stroke-linecap="round"/><line x1="680.1" y1="504.1" x2="764.1" y2="449.6" stroke="#6d3a22" stroke-width="19.3" stroke-linecap="round"/><line x1="940.1" y1="504.1" x2="856.1" y2="449.6" stroke="#6d3a22" stroke-width="19.3" stroke-linecap="round"/><line x1="940.1" y1="504.1" x2="865.4" y2="408.5" stroke="#6d3a22" stroke-width="19.3" stroke-linecap="round"/><line x1="940.1" y1="504.1" x2="893.7" y2="369.4" stroke="#6d3a22" stroke-width="19.3" stroke-linecap="round"/><line x1="940.1" y1="504.1" x2="940.1" y2="340.5" stroke="#6d3a22" stroke-width="19.3" stroke-linecap="round"/><line x1="940.1" y1="504.1" x2="986.5" y2="369.4" stroke="#6d3a22" stroke-width="19.3" stroke-linecap="round"/><line x1="940.1" y1="504.1" x2="1014.8" y2="408.5" stroke="#6d3a22" stroke-width="19.3" stroke-linecap="round"/><line x1="940.1" y1="504.1" x2="1024" y2="449.6" stroke="#6d3a22" stroke-width="19.3" stroke-linecap="round"/><line x1="1200" y1="504.1" x2="1116" y2="449.6" stroke="#6d3a22" stroke-width="19.3" stroke-linecap="round"/><line x1="1200" y1="504.1" x2="1125.3" y2="408.5" stroke="#6d3a22" stroke-width="19.3" stroke-linecap="round"/><line x1="1200" y1="504.1" x2="1153.6" y2="369.4" stroke="#6d3a22" stroke-width="19.3" stroke-linecap="round"/><line x1="1200" y1="504.1" x2="1200" y2="340.5" stroke="#6d3a22" stroke-width="19.3" stroke-linecap="round"/><line x1="1200" y1="504.1" x2="1246.4" y2="369.4" stroke="#6d3a22" stroke-width="19.3" stroke-linecap="round"/><line x1="1200" y1="504.1" x2="1274.7" y2="408.5" stroke="#6d3a22" stroke-width="19.3" stroke-linecap="round"/><line x1="1200" y1="504.1" x2="1284" y2="449.6" stroke="#6d3a22" stroke-width="19.3" stroke-linecap="round"/><line x1="1459.9" y1="504.1" x2="1376" y2="449.6" stroke="#6d3a22" stroke-width="19.3" stroke-linecap="round"/><line x1="1459.9" y1="504.1" x2="1385.2" y2="408.5" stroke="#6d3a22" stroke-width="19.3" stroke-linecap="round"/><line x1="1459.9" y1="504.1" x2="1413.5" y2="369.4" stroke="#6d3a22" stroke-width="19.3" stroke-linecap="round"/><line x1="1459.9" y1="504.1" x2="1459.9" y2="340.5" stroke="#6d3a22" stroke-width="19.3" stroke-linecap="round"/><line x1="1459.9" y1="504.1" x2="1506.3" y2="369.4" stroke="#6d3a22" stroke-width="19.3" stroke-linecap="round"/><line x1="1459.9" y1="504.1" x2="1534.6" y2="408.5" stroke="#6d3a22" stroke-width="19.3" stroke-linecap="round"/><line x1="1459.9" y1="504.1" x2="1543.9" y2="449.6" stroke="#6d3a22" stroke-width="19.3" stroke-linecap="round"/><line x1="1719.9" y1="504.1" x2="1635.9" y2="449.6" stroke="#6d3a22" stroke-width="19.3" stroke-linecap="round"/><line x1="1719.9" y1="504.1" x2="1645.2" y2="408.5" stroke="#6d3a22" stroke-width="19.3" stroke-linecap="round"/><line x1="1719.9" y1="504.1" x2="1673.5" y2="369.4" stroke="#6d3a22" stroke-width="19.3" stroke-linecap="round"/><line x1="1719.9" y1="504.1" x2="1719.9" y2="340.5" stroke="#6d3a22" stroke-width="19.3" stroke-linecap="round"/><line x1="1719.9" y1="504.1" x2="1766.2" y2="369.4" stroke="#6d3a22" stroke-width="19.3" stroke-linecap="round"/><line x1="1719.9" y1="504.1" x2="1794.5" y2="408.5" stroke="#6d3a22" stroke-width="19.3" stroke-linecap="round"/><line x1="1719.9" y1="504.1" x2="1803.8" y2="449.6" stroke="#6d3a22" stroke-width="19.3" stroke-linecap="round"/><line x1="1979.8" y1="504.1" x2="1895.8" y2="449.6" stroke="#6d3a22" stroke-width="19.3" stroke-linecap="round"/><line x1="1979.8" y1="504.1" x2="1905.1" y2="408.5" stroke="#6d3a22" stroke-width="19.3" stroke-linecap="round"/><line x1="1979.8" y1="504.1" x2="1933.4" y2="369.4" stroke="#6d3a22" stroke-width="19.3" stroke-linecap="round"/><line x1="1979.8" y1="504.1" x2="1979.8" y2="340.5" stroke="#6d3a22" stroke-width="19.3" stroke-linecap="round"/><line x1="1979.8" y1="504.1" x2="2026.2" y2="369.4" stroke="#6d3a22" stroke-width="19.3" stroke-linecap="round"/><line x1="1979.8" y1="504.1" x2="2054.5" y2="408.5" stroke="#6d3a22" stroke-width="19.3" stroke-linecap="round"/><line x1="1979.8" y1="504.1" x2="2063.8" y2="449.6" stroke="#6d3a22" stroke-width="19.3" stroke-linecap="round"/><line x1="250" y1="569.7" x2="2150" y2="569.7" stroke="#6d3a22" stroke-width="6"/><rect x="250" y="569.7" width="1900" height="405.4" fill="#6d3a22"/><polyline points="280,874.6 484.4,670.3 688.9,874.6 893.3,670.3 1097.8,874.6 1302.2,670.3 1506.7,874.6 1711.1,670.3 1915.6,874.6 2120,670.3 " fill="none" stroke="#ddcfb2" stroke-width="36.8" stroke-linejoin="miter"/><line x1="250" y1="975.1" x2="2150" y2="975.1" stroke="#6d3a22" stroke-width="6"/><path d="M357.5,1256 L451.1,1048 L544.7,1256 Z M544.7,1256 L638.4,1048 L732,1256 Z M732,1256 L825.6,1048 L919.2,1256 Z M919.2,1256 L1012.8,1048 L1106.4,1256 Z M1106.4,1256 L1200,1048 L1293.6,1256 Z M1293.6,1256 L1387.2,1048 L1480.8,1256 Z M1480.8,1256 L1574.4,1048 L1668,1256 Z M1668,1256 L1761.6,1048 L1855.3,1256 Z M1855.3,1256 L1948.9,1048 L2042.5,1256 Z " fill="#6d3a22"/><line x1="250" y1="1328.9" x2="2150" y2="1328.9" stroke="#6d3a22" stroke-width="6"/><line x1="280" y1="1658.8" x2="2120" y2="1658.8" stroke="#a4552c" stroke-width="15"/><line x1="524" y1="1646.3" x2="414.8" y2="1575.4" stroke="#a4552c" stroke-width="25" stroke-linecap="round"/><line x1="524" y1="1646.3" x2="426.9" y2="1522" stroke="#a4552c" stroke-width="25" stroke-linecap="round"/><line x1="524" y1="1646.3" x2="463.7" y2="1471.1" stroke="#a4552c" stroke-width="25" stroke-linecap="round"/><line x1="524" y1="1646.3" x2="524" y2="1433.5" stroke="#a4552c" stroke-width="25" stroke-linecap="round"/><line x1="524" y1="1646.3" x2="584.3" y2="1471.1" stroke="#a4552c" stroke-width="25" stroke-linecap="round"/><line x1="524" y1="1646.3" x2="621.1" y2="1522" stroke="#a4552c" stroke-width="25" stroke-linecap="round"/><line x1="524" y1="1646.3" x2="633.2" y2="1575.4" stroke="#a4552c" stroke-width="25" stroke-linecap="round"/><line x1="862" y1="1646.3" x2="752.8" y2="1575.4" stroke="#a4552c" stroke-width="25" stroke-linecap="round"/><line x1="862" y1="1646.3" x2="764.9" y2="1522" stroke="#a4552c" stroke-width="25" stroke-linecap="round"/><line x1="862" y1="1646.3" x2="801.7" y2="1471.1" stroke="#a4552c" stroke-width="25" stroke-linecap="round"/><line x1="862" y1="1646.3" x2="862" y2="1433.5" stroke="#a4552c" stroke-width="25" stroke-linecap="round"/><line x1="862" y1="1646.3" x2="922.3" y2="1471.1" stroke="#a4552c" stroke-width="25" stroke-linecap="round"/><line x1="862" y1="1646.3" x2="959.1" y2="1522" stroke="#a4552c" stroke-width="25" stroke-linecap="round"/><line x1="862" y1="1646.3" x2="971.2" y2="1575.4" stroke="#a4552c" stroke-width="25" stroke-linecap="round"/><line x1="1200" y1="1646.3" x2="1090.8" y2="1575.4" stroke="#a4552c" stroke-width="25" stroke-linecap="round"/><line x1="1200" y1="1646.3" x2="1102.9" y2="1522" stroke="#a4552c" stroke-width="25" stroke-linecap="round"/><line x1="1200" y1="1646.3" x2="1139.7" y2="1471.1" stroke="#a4552c" stroke-width="25" stroke-linecap="round"/><line x1="1200" y1="1646.3" x2="1200" y2="1433.5" stroke="#a4552c" stroke-width="25" stroke-linecap="round"/><line x1="1200" y1="1646.3" x2="1260.3" y2="1471.1" stroke="#a4552c" stroke-width="25" stroke-linecap="round"/><line x1="1200" y1="1646.3" x2="1297.1" y2="1522" stroke="#a4552c" stroke-width="25" stroke-linecap="round"/><line x1="1200" y1="1646.3" x2="1309.2" y2="1575.4" stroke="#a4552c" stroke-width="25" stroke-linecap="round"/><line x1="1538" y1="1646.3" x2="1428.8" y2="1575.4" stroke="#a4552c" stroke-width="25" stroke-linecap="round"/><line x1="1538" y1="1646.3" x2="1440.9" y2="1522" stroke="#a4552c" stroke-width="25" stroke-linecap="round"/><line x1="1538" y1="1646.3" x2="1477.7" y2="1471.1" stroke="#a4552c" stroke-width="25" stroke-linecap="round"/><line x1="1538" y1="1646.3" x2="1538" y2="1433.5" stroke="#a4552c" stroke-width="25" stroke-linecap="round"/><line x1="1538" y1="1646.3" x2="1598.3" y2="1471.1" stroke="#a4552c" stroke-width="25" stroke-linecap="round"/><line x1="1538" y1="1646.3" x2="1635.1" y2="1522" stroke="#a4552c" stroke-width="25" stroke-linecap="round"/><line x1="1538" y1="1646.3" x2="1647.2" y2="1575.4" stroke="#a4552c" stroke-width="25" stroke-linecap="round"/><line x1="1876" y1="1646.3" x2="1766.8" y2="1575.4" stroke="#a4552c" stroke-width="25" stroke-linecap="round"/><line x1="1876" y1="1646.3" x2="1778.9" y2="1522" stroke="#a4552c" stroke-width="25" stroke-linecap="round"/><line x1="1876" y1="1646.3" x2="1815.7" y2="1471.1" stroke="#a4552c" stroke-width="25" stroke-linecap="round"/><line x1="1876" y1="1646.3" x2="1876" y2="1433.5" stroke="#a4552c" stroke-width="25" stroke-linecap="round"/><line x1="1876" y1="1646.3" x2="1936.3" y2="1471.1" stroke="#a4552c" stroke-width="25" stroke-linecap="round"/><line x1="1876" y1="1646.3" x2="1973.1" y2="1522" stroke="#a4552c" stroke-width="25" stroke-linecap="round"/><line x1="1876" y1="1646.3" x2="1985.2" y2="1575.4" stroke="#a4552c" stroke-width="25" stroke-linecap="round"/><line x1="250" y1="1731.6" x2="2150" y2="1731.6" stroke="#6d3a22" stroke-width="6"/><rect x="250" y="1731.6" width="1900" height="253.2" fill="#6d3a22"/><path d="M329,1783.8 L396,1932.7 L463,1783.8 Z M463,1783.8 L530,1932.7 L597,1783.8 Z M597,1783.8 L664,1932.7 L731,1783.8 Z M731,1783.8 L798,1932.7 L865,1783.8 Z M865,1783.8 L932,1932.7 L999,1783.8 Z M999,1783.8 L1066,1932.7 L1133,1783.8 Z M1133,1783.8 L1200,1932.7 L1267,1783.8 Z M1267,1783.8 L1334,1932.7 L1401,1783.8 Z M1401,1783.8 L1468,1932.7 L1535,1783.8 Z M1535,1783.8 L1602,1932.7 L1669,1783.8 Z M1669,1783.8 L1736,1932.7 L1803,1783.8 Z M1803,1783.8 L1870,1932.7 L1937,1783.8 Z M1937,1783.8 L2004,1932.7 L2071,1783.8 Z " fill="#ddcfb2"/><line x1="250" y1="1984.9" x2="2150" y2="1984.9" stroke="#6d3a22" stroke-width="6"/><polyline points="317.1,2165.6 365.8,2058.2 414.4,2165.6" fill="none" stroke="#a4552c" stroke-width="17.7"/><polyline points="456.2,2165.6 504.8,2058.2 553.5,2165.6" fill="none" stroke="#a4552c" stroke-width="17.7"/><polyline points="595.2,2165.6 643.9,2058.2 692.5,2165.6" fill="none" stroke="#a4552c" stroke-width="17.7"/><polyline points="734.2,2165.6 782.9,2058.2 831.6,2165.6" fill="none" stroke="#a4552c" stroke-width="17.7"/><polyline points="873.3,2165.6 921.9,2058.2 970.6,2165.6" fill="none" stroke="#a4552c" stroke-width="17.7"/><polyline points="1012.3,2165.6 1061,2058.2 1109.6,2165.6" fill="none" stroke="#a4552c" stroke-width="17.7"/><polyline points="1151.3,2165.6 1200,2058.2 1248.7,2165.6" fill="none" stroke="#a4552c" stroke-width="17.7"/><polyline points="1290.4,2165.6 1339,2058.2 1387.7,2165.6" fill="none" stroke="#a4552c" stroke-width="17.7"/><polyline points="1429.4,2165.6 1478.1,2058.2 1526.7,2165.6" fill="none" stroke="#a4552c" stroke-width="17.7"/><polyline points="1568.4,2165.6 1617.1,2058.2 1665.8,2165.6" fill="none" stroke="#a4552c" stroke-width="17.7"/><polyline points="1707.5,2165.6 1756.1,2058.2 1804.8,2165.6" fill="none" stroke="#a4552c" stroke-width="17.7"/><polyline points="1846.5,2165.6 1895.2,2058.2 1943.8,2165.6" fill="none" stroke="#a4552c" stroke-width="17.7"/><polyline points="1985.6,2165.6 2034.2,2058.2 2082.9,2165.6" fill="none" stroke="#a4552c" stroke-width="17.7"/><line x1="250" y1="2220" x2="2150" y2="2220" stroke="#6d3a22" stroke-width="6"/><line x1="280" y1="2432.9" x2="2120" y2="2432.9" stroke="#6d3a22" stroke-width="13.3"/><polyline points="370,2353.3 369.1,2354.4 368.5,2355.9 368.5,2357.8 369.1,2359.8 370.4,2361.7 372.4,2363.3 374.9,2364.3 377.9,2364.7 381.2,2364.2 384.4,2362.8 387.3,2360.5 389.7,2357.2 391.2,2353.3 391.8,2348.8 391.1,2344.1 389.2,2339.4 386.1,2335.2 381.8,2331.7 376.5,2329.3 370.6,2328.3 364.3,2328.7 358.1,2330.8 352.3,2334.4 347.5,2339.6 343.9,2345.9 341.9,2353.3 341.8,2361.1 343.6,2369 347.5,2376.4 353.2,2382.9 360.5,2387.9 369,2391.1 378.3,2392.2 387.9,2390.9 397.1,2387.3 405.4,2381.4 412.2,2373.5 416.9,2363.9 419.3,2353.3 419,2342.1 416,2331 410.2,2320.8 402,2312.1 391.7,2305.5 379.9,2301.5 367.2,2300.4 354.3,2302.5 342.1,2307.7 331.3,2315.8 322.6,2326.5 316.6,2339.2 313.9,2353.3" fill="none" stroke="#6d3a22" stroke-width="14.9" stroke-linecap="round" stroke-linejoin="round"/><polyline points="536,2353.3 535,2354.4 534.5,2355.9 534.4,2357.8 535.1,2359.8 536.4,2361.7 538.3,2363.3 540.9,2364.3 543.9,2364.7 547.1,2364.2 550.3,2362.8 553.2,2360.5 555.6,2357.2 557.2,2353.3 557.7,2348.8 557.1,2344.1 555.2,2339.4 552,2335.2 547.7,2331.7 542.4,2329.3 536.5,2328.3 530.2,2328.7 524,2330.8 518.3,2334.4 513.4,2339.6 509.8,2345.9 507.9,2353.3 507.8,2361.1 509.6,2369 513.4,2376.4 519.1,2382.9 526.4,2387.9 534.9,2391.1 544.3,2392.2 553.8,2390.9 563,2387.3 571.3,2381.4 578.1,2373.5 582.9,2363.9 585.2,2353.3 585,2342.1 581.9,2331 576.2,2320.8 568,2312.1 557.7,2305.5 545.8,2301.5 533.1,2300.4 520.3,2302.5 508.1,2307.7 497.2,2315.8 488.6,2326.5 482.6,2339.2 479.8,2353.3" fill="none" stroke="#6d3a22" stroke-width="14.9" stroke-linecap="round" stroke-linejoin="round"/><polyline points="701.9,2353.3 701,2354.4 700.4,2355.9 700.4,2357.8 701,2359.8 702.3,2361.7 704.3,2363.3 706.8,2364.3 709.8,2364.7 713,2364.2 716.3,2362.8 719.2,2360.5 721.5,2357.2 723.1,2353.3 723.6,2348.8 723,2344.1 721.1,2339.4 718,2335.2 713.6,2331.7 708.4,2329.3 702.4,2328.3 696.2,2328.7 690,2330.8 684.2,2334.4 679.4,2339.6 675.8,2345.9 673.8,2353.3 673.7,2361.1 675.5,2369 679.4,2376.4 685,2382.9 692.3,2387.9 700.9,2391.1 710.2,2392.2 719.8,2390.9 729,2387.3 737.3,2381.4 744,2373.5 748.8,2363.9 751.2,2353.3 750.9,2342.1 747.9,2331 742.1,2320.8 733.9,2312.1 723.6,2305.5 711.8,2301.5 699.1,2300.4 686.2,2302.5 674,2307.7 663.2,2315.8 654.5,2326.5 648.5,2339.2 645.7,2353.3" fill="none" stroke="#6d3a22" stroke-width="14.9" stroke-linecap="round" stroke-linejoin="round"/><polyline points="867.8,2353.3 866.9,2354.4 866.3,2355.9 866.3,2357.8 866.9,2359.8 868.2,2361.7 870.2,2363.3 872.8,2364.3 875.8,2364.7 879,2364.2 882.2,2362.8 885.1,2360.5 887.5,2357.2 889.1,2353.3 889.6,2348.8 888.9,2344.1 887,2339.4 883.9,2335.2 879.6,2331.7 874.3,2329.3 868.4,2328.3 862.1,2328.7 855.9,2330.8 850.2,2334.4 845.3,2339.6 841.7,2345.9 839.8,2353.3 839.6,2361.1 841.5,2369 845.3,2376.4 851,2382.9 858.3,2387.9 866.8,2391.1 876.2,2392.2 885.7,2390.9 894.9,2387.3 903.2,2381.4 910,2373.5 914.8,2363.9 917.1,2353.3 916.9,2342.1 913.8,2331 908.1,2320.8 899.8,2312.1 889.6,2305.5 877.7,2301.5 865,2300.4 852.2,2302.5 839.9,2307.7 829.1,2315.8 820.4,2326.5 814.5,2339.2 811.7,2353.3" fill="none" stroke="#6d3a22" stroke-width="14.9" stroke-linecap="round" stroke-linejoin="round"/><polyline points="1033.8,2353.3 1032.8,2354.4 1032.3,2355.9 1032.3,2357.8 1032.9,2359.8 1034.2,2361.7 1036.2,2363.3 1038.7,2364.3 1041.7,2364.7 1044.9,2364.2 1048.1,2362.8 1051.1,2360.5 1053.4,2357.2 1055,2353.3 1055.5,2348.8 1054.9,2344.1 1053,2339.4 1049.8,2335.2 1045.5,2331.7 1040.3,2329.3 1034.3,2328.3 1028.1,2328.7 1021.8,2330.8 1016.1,2334.4 1011.3,2339.6 1007.7,2345.9 1005.7,2353.3 1005.6,2361.1 1007.4,2369 1011.2,2376.4 1016.9,2382.9 1024.2,2387.9 1032.8,2391.1 1042.1,2392.2 1051.7,2390.9 1060.9,2387.3 1069.2,2381.4 1075.9,2373.5 1080.7,2363.9 1083.1,2353.3 1082.8,2342.1 1079.8,2331 1074,2320.8 1065.8,2312.1 1055.5,2305.5 1043.7,2301.5 1031,2300.4 1018.1,2302.5 1005.9,2307.7 995.1,2315.8 986.4,2326.5 980.4,2339.2 977.6,2353.3" fill="none" stroke="#6d3a22" stroke-width="14.9" stroke-linecap="round" stroke-linejoin="round"/><polyline points="1199.7,2353.3 1198.8,2354.4 1198.2,2355.9 1198.2,2357.8 1198.8,2359.8 1200.1,2361.7 1202.1,2363.3 1204.7,2364.3 1207.7,2364.7 1210.9,2364.2 1214.1,2362.8 1217,2360.5 1219.4,2357.2 1220.9,2353.3 1221.5,2348.8 1220.8,2344.1 1218.9,2339.4 1215.8,2335.2 1211.5,2331.7 1206.2,2329.3 1200.3,2328.3 1194,2328.7 1187.8,2330.8 1182,2334.4 1177.2,2339.6 1173.6,2345.9 1171.7,2353.3 1171.5,2361.1 1173.4,2369 1177.2,2376.4 1182.9,2382.9 1190.2,2387.9 1198.7,2391.1 1208,2392.2 1217.6,2390.9 1226.8,2387.3 1235.1,2381.4 1241.9,2373.5 1246.6,2363.9 1249,2353.3 1248.7,2342.1 1245.7,2331 1240,2320.8 1231.7,2312.1 1221.4,2305.5 1209.6,2301.5 1196.9,2300.4 1184,2302.5 1171.8,2307.7 1161,2315.8 1152.3,2326.5 1146.4,2339.2 1143.6,2353.3" fill="none" stroke="#6d3a22" stroke-width="14.9" stroke-linecap="round" stroke-linejoin="round"/><polyline points="1365.7,2353.3 1364.7,2354.4 1364.2,2355.9 1364.2,2357.8 1364.8,2359.8 1366.1,2361.7 1368.1,2363.3 1370.6,2364.3 1373.6,2364.7 1376.8,2364.2 1380,2362.8 1383,2360.5 1385.3,2357.2 1386.9,2353.3 1387.4,2348.8 1386.8,2344.1 1384.9,2339.4 1381.7,2335.2 1377.4,2331.7 1372.2,2329.3 1366.2,2328.3 1360,2328.7 1353.7,2330.8 1348,2334.4 1343.1,2339.6 1339.6,2345.9 1337.6,2353.3 1337.5,2361.1 1339.3,2369 1343.1,2376.4 1348.8,2382.9 1356.1,2387.9 1364.7,2391.1 1374,2392.2 1383.6,2390.9 1392.8,2387.3 1401,2381.4 1407.8,2373.5 1412.6,2363.9 1415,2353.3 1414.7,2342.1 1411.6,2331 1405.9,2320.8 1397.7,2312.1 1387.4,2305.5 1375.6,2301.5 1362.8,2300.4 1350,2302.5 1337.8,2307.7 1327,2315.8 1318.3,2326.5 1312.3,2339.2 1309.5,2353.3" fill="none" stroke="#6d3a22" stroke-width="14.9" stroke-linecap="round" stroke-linejoin="round"/><polyline points="1531.6,2353.3 1530.7,2354.4 1530.1,2355.9 1530.1,2357.8 1530.7,2359.8 1532,2361.7 1534,2363.3 1536.6,2364.3 1539.5,2364.7 1542.8,2364.2 1546,2362.8 1548.9,2360.5 1551.3,2357.2 1552.8,2353.3 1553.4,2348.8 1552.7,2344.1 1550.8,2339.4 1547.7,2335.2 1543.4,2331.7 1538.1,2329.3 1532.2,2328.3 1525.9,2328.7 1519.7,2330.8 1513.9,2334.4 1509.1,2339.6 1505.5,2345.9 1503.5,2353.3 1503.4,2361.1 1505.3,2369 1509.1,2376.4 1514.8,2382.9 1522.1,2387.9 1530.6,2391.1 1539.9,2392.2 1549.5,2390.9 1558.7,2387.3 1567,2381.4 1573.8,2373.5 1578.5,2363.9 1580.9,2353.3 1580.6,2342.1 1577.6,2331 1571.8,2320.8 1563.6,2312.1 1553.3,2305.5 1541.5,2301.5 1528.8,2300.4 1515.9,2302.5 1503.7,2307.7 1492.9,2315.8 1484.2,2326.5 1478.3,2339.2 1475.5,2353.3" fill="none" stroke="#6d3a22" stroke-width="14.9" stroke-linecap="round" stroke-linejoin="round"/><polyline points="1697.6,2353.3 1696.6,2354.4 1696.1,2355.9 1696,2357.8 1696.7,2359.8 1698,2361.7 1699.9,2363.3 1702.5,2364.3 1705.5,2364.7 1708.7,2364.2 1711.9,2362.8 1714.8,2360.5 1717.2,2357.2 1718.8,2353.3 1719.3,2348.8 1718.7,2344.1 1716.8,2339.4 1713.6,2335.2 1709.3,2331.7 1704.1,2329.3 1698.1,2328.3 1691.8,2328.7 1685.6,2330.8 1679.9,2334.4 1675,2339.6 1671.5,2345.9 1669.5,2353.3 1669.4,2361.1 1671.2,2369 1675,2376.4 1680.7,2382.9 1688,2387.9 1696.6,2391.1 1705.9,2392.2 1715.4,2390.9 1724.7,2387.3 1732.9,2381.4 1739.7,2373.5 1744.5,2363.9 1746.9,2353.3 1746.6,2342.1 1743.5,2331 1737.8,2320.8 1729.6,2312.1 1719.3,2305.5 1707.4,2301.5 1694.7,2300.4 1681.9,2302.5 1669.7,2307.7 1658.9,2315.8 1650.2,2326.5 1644.2,2339.2 1641.4,2353.3" fill="none" stroke="#6d3a22" stroke-width="14.9" stroke-linecap="round" stroke-linejoin="round"/><polyline points="1863.5,2353.3 1862.6,2354.4 1862,2355.9 1862,2357.8 1862.6,2359.8 1863.9,2361.7 1865.9,2363.3 1868.4,2364.3 1871.4,2364.7 1874.7,2364.2 1877.9,2362.8 1880.8,2360.5 1883.2,2357.2 1884.7,2353.3 1885.3,2348.8 1884.6,2344.1 1882.7,2339.4 1879.6,2335.2 1875.3,2331.7 1870,2329.3 1864.1,2328.3 1857.8,2328.7 1851.6,2330.8 1845.8,2334.4 1841,2339.6 1837.4,2345.9 1835.4,2353.3 1835.3,2361.1 1837.1,2369 1841,2376.4 1846.7,2382.9 1854,2387.9 1862.5,2391.1 1871.8,2392.2 1881.4,2390.9 1890.6,2387.3 1898.9,2381.4 1905.7,2373.5 1910.4,2363.9 1912.8,2353.3 1912.5,2342.1 1909.5,2331 1903.7,2320.8 1895.5,2312.1 1885.2,2305.5 1873.4,2301.5 1860.7,2300.4 1847.8,2302.5 1835.6,2307.7 1824.8,2315.8 1816.1,2326.5 1810.1,2339.2 1807.4,2353.3" fill="none" stroke="#6d3a22" stroke-width="14.9" stroke-linecap="round" stroke-linejoin="round"/><polyline points="2029.5,2353.3 2028.5,2354.4 2028,2355.9 2027.9,2357.8 2028.6,2359.8 2029.9,2361.7 2031.8,2363.3 2034.4,2364.3 2037.4,2364.7 2040.6,2364.2 2043.8,2362.8 2046.7,2360.5 2049.1,2357.2 2050.7,2353.3 2051.2,2348.8 2050.6,2344.1 2048.7,2339.4 2045.5,2335.2 2041.2,2331.7 2035.9,2329.3 2030,2328.3 2023.7,2328.7 2017.5,2330.8 2011.8,2334.4 2006.9,2339.6 2003.3,2345.9 2001.4,2353.3 2001.3,2361.1 2003.1,2369 2006.9,2376.4 2012.6,2382.9 2019.9,2387.9 2028.4,2391.1 2037.8,2392.2 2047.3,2390.9 2056.5,2387.3 2064.8,2381.4 2071.6,2373.5 2076.4,2363.9 2078.7,2353.3 2078.5,2342.1 2075.4,2331 2069.7,2320.8 2061.5,2312.1 2051.2,2305.5 2039.3,2301.5 2026.6,2300.4 2013.8,2302.5 2001.6,2307.7 1990.8,2315.8 1982.1,2326.5 1976.1,2339.2 1973.3,2353.3" fill="none" stroke="#6d3a22" stroke-width="14.9" stroke-linecap="round" stroke-linejoin="round"/><line x1="250" y1="2479.9" x2="2150" y2="2479.9" stroke="#6d3a22" stroke-width="6"/><rect x="250" y="2479.9" width="1900" height="260.1" fill="#6d3a22"/><path d="M0 0 Q 28.3 -44 0 -115.8 Q -28.3 -44 0 0 Z" fill="#ddcfb2" opacity="1" transform="translate(411.4 2697.3) rotate(-58)"/><path d="M0 0 Q 28.3 -49.3 0 -129.7 Q -28.3 -49.3 0 0 Z" fill="#ddcfb2" opacity="1" transform="translate(411.4 2697.3) rotate(-38.7)"/><path d="M0 0 Q 28.3 -54.5 0 -143.5 Q -28.3 -54.5 0 0 Z" fill="#ddcfb2" opacity="1" transform="translate(411.4 2697.3) rotate(-19.3)"/><path d="M0 0 Q 28.3 -59.8 0 -157.3 Q -28.3 -59.8 0 0 Z" fill="#ddcfb2" opacity="1" transform="translate(411.4 2697.3) rotate(0)"/><path d="M0 0 Q 28.3 -54.5 0 -143.5 Q -28.3 -54.5 0 0 Z" fill="#ddcfb2" opacity="1" transform="translate(411.4 2697.3) rotate(19.3)"/><path d="M0 0 Q 28.3 -49.3 0 -129.7 Q -28.3 -49.3 0 0 Z" fill="#ddcfb2" opacity="1" transform="translate(411.4 2697.3) rotate(38.7)"/><path d="M0 0 Q 28.3 -44 0 -115.8 Q -28.3 -44 0 0 Z" fill="#ddcfb2" opacity="1" transform="translate(411.4 2697.3) rotate(58)"/><path d="M364.2,2697.3 Q411.4,2750.8 458.6,2697.3 Z" fill="#ddcfb2"/><path d="M0 0 Q 28.3 -44 0 -115.8 Q -28.3 -44 0 0 Z" fill="#ddcfb2" opacity="1" transform="translate(674.3 2697.3) rotate(-58)"/><path d="M0 0 Q 28.3 -50.3 0 -132.4 Q -28.3 -50.3 0 0 Z" fill="#ddcfb2" opacity="1" transform="translate(674.3 2697.3) rotate(-34.8)"/><path d="M0 0 Q 28.3 -56.6 0 -149 Q -28.3 -56.6 0 0 Z" fill="#ddcfb2" opacity="1" transform="translate(674.3 2697.3) rotate(-11.6)"/><path d="M0 0 Q 28.3 -56.6 0 -149 Q -28.3 -56.6 0 0 Z" fill="#ddcfb2" opacity="1" transform="translate(674.3 2697.3) rotate(11.6)"/><path d="M0 0 Q 28.3 -50.3 0 -132.4 Q -28.3 -50.3 0 0 Z" fill="#ddcfb2" opacity="1" transform="translate(674.3 2697.3) rotate(34.8)"/><path d="M0 0 Q 28.3 -44 0 -115.8 Q -28.3 -44 0 0 Z" fill="#ddcfb2" opacity="1" transform="translate(674.3 2697.3) rotate(58)"/><path d="M627.1,2697.3 Q674.3,2750.8 721.5,2697.3 Z" fill="#ddcfb2"/><path d="M0 0 Q 28.3 -44 0 -115.8 Q -28.3 -44 0 0 Z" fill="#ddcfb2" opacity="1" transform="translate(937.1 2697.3) rotate(-58)"/><path d="M0 0 Q 28.3 -49.3 0 -129.7 Q -28.3 -49.3 0 0 Z" fill="#ddcfb2" opacity="1" transform="translate(937.1 2697.3) rotate(-38.7)"/><path d="M0 0 Q 28.3 -54.5 0 -143.5 Q -28.3 -54.5 0 0 Z" fill="#ddcfb2" opacity="1" transform="translate(937.1 2697.3) rotate(-19.3)"/><path d="M0 0 Q 28.3 -59.8 0 -157.3 Q -28.3 -59.8 0 0 Z" fill="#ddcfb2" opacity="1" transform="translate(937.1 2697.3) rotate(0)"/><path d="M0 0 Q 28.3 -54.5 0 -143.5 Q -28.3 -54.5 0 0 Z" fill="#ddcfb2" opacity="1" transform="translate(937.1 2697.3) rotate(19.3)"/><path d="M0 0 Q 28.3 -49.3 0 -129.7 Q -28.3 -49.3 0 0 Z" fill="#ddcfb2" opacity="1" transform="translate(937.1 2697.3) rotate(38.7)"/><path d="M0 0 Q 28.3 -44 0 -115.8 Q -28.3 -44 0 0 Z" fill="#ddcfb2" opacity="1" transform="translate(937.1 2697.3) rotate(58)"/><path d="M890,2697.3 Q937.1,2750.8 984.3,2697.3 Z" fill="#ddcfb2"/><path d="M0 0 Q 28.3 -44 0 -115.8 Q -28.3 -44 0 0 Z" fill="#ddcfb2" opacity="1" transform="translate(1200 2697.3) rotate(-58)"/><path d="M0 0 Q 28.3 -49.3 0 -129.7 Q -28.3 -49.3 0 0 Z" fill="#ddcfb2" opacity="1" transform="translate(1200 2697.3) rotate(-38.7)"/><path d="M0 0 Q 28.3 -54.5 0 -143.5 Q -28.3 -54.5 0 0 Z" fill="#ddcfb2" opacity="1" transform="translate(1200 2697.3) rotate(-19.3)"/><path d="M0 0 Q 28.3 -59.8 0 -157.3 Q -28.3 -59.8 0 0 Z" fill="#ddcfb2" opacity="1" transform="translate(1200 2697.3) rotate(0)"/><path d="M0 0 Q 28.3 -54.5 0 -143.5 Q -28.3 -54.5 0 0 Z" fill="#ddcfb2" opacity="1" transform="translate(1200 2697.3) rotate(19.3)"/><path d="M0 0 Q 28.3 -49.3 0 -129.7 Q -28.3 -49.3 0 0 Z" fill="#ddcfb2" opacity="1" transform="translate(1200 2697.3) rotate(38.7)"/><path d="M0 0 Q 28.3 -44 0 -115.8 Q -28.3 -44 0 0 Z" fill="#ddcfb2" opacity="1" transform="translate(1200 2697.3) rotate(58)"/><path d="M1152.8,2697.3 Q1200,2750.8 1247.2,2697.3 Z" fill="#ddcfb2"/><path d="M0 0 Q 28.3 -44 0 -115.8 Q -28.3 -44 0 0 Z" fill="#ddcfb2" opacity="1" transform="translate(1462.9 2697.3) rotate(-58)"/><path d="M0 0 Q 28.3 -51.9 0 -136.6 Q -28.3 -51.9 0 0 Z" fill="#ddcfb2" opacity="1" transform="translate(1462.9 2697.3) rotate(-29)"/><path d="M0 0 Q 28.3 -59.8 0 -157.3 Q -28.3 -59.8 0 0 Z" fill="#ddcfb2" opacity="1" transform="translate(1462.9 2697.3) rotate(0)"/><path d="M0 0 Q 28.3 -51.9 0 -136.6 Q -28.3 -51.9 0 0 Z" fill="#ddcfb2" opacity="1" transform="translate(1462.9 2697.3) rotate(29)"/><path d="M0 0 Q 28.3 -44 0 -115.8 Q -28.3 -44 0 0 Z" fill="#ddcfb2" opacity="1" transform="translate(1462.9 2697.3) rotate(58)"/><path d="M1415.7,2697.3 Q1462.9,2750.8 1510,2697.3 Z" fill="#ddcfb2"/><path d="M0 0 Q 28.3 -44 0 -115.8 Q -28.3 -44 0 0 Z" fill="#ddcfb2" opacity="1" transform="translate(1725.7 2697.3) rotate(-58)"/><path d="M0 0 Q 28.3 -50.3 0 -132.4 Q -28.3 -50.3 0 0 Z" fill="#ddcfb2" opacity="1" transform="translate(1725.7 2697.3) rotate(-34.8)"/><path d="M0 0 Q 28.3 -56.6 0 -149 Q -28.3 -56.6 0 0 Z" fill="#ddcfb2" opacity="1" transform="translate(1725.7 2697.3) rotate(-11.6)"/><path d="M0 0 Q 28.3 -56.6 0 -149 Q -28.3 -56.6 0 0 Z" fill="#ddcfb2" opacity="1" transform="translate(1725.7 2697.3) rotate(11.6)"/><path d="M0 0 Q 28.3 -50.3 0 -132.4 Q -28.3 -50.3 0 0 Z" fill="#ddcfb2" opacity="1" transform="translate(1725.7 2697.3) rotate(34.8)"/><path d="M0 0 Q 28.3 -44 0 -115.8 Q -28.3 -44 0 0 Z" fill="#ddcfb2" opacity="1" transform="translate(1725.7 2697.3) rotate(58)"/><path d="M1678.5,2697.3 Q1725.7,2750.8 1772.9,2697.3 Z" fill="#ddcfb2"/><path d="M0 0 Q 28.3 -44 0 -115.8 Q -28.3 -44 0 0 Z" fill="#ddcfb2" opacity="1" transform="translate(1988.6 2697.3) rotate(-58)"/><path d="M0 0 Q 28.3 -50.3 0 -132.4 Q -28.3 -50.3 0 0 Z" fill="#ddcfb2" opacity="1" transform="translate(1988.6 2697.3) rotate(-34.8)"/><path d="M0 0 Q 28.3 -56.6 0 -149 Q -28.3 -56.6 0 0 Z" fill="#ddcfb2" opacity="1" transform="translate(1988.6 2697.3) rotate(-11.6)"/><path d="M0 0 Q 28.3 -56.6 0 -149 Q -28.3 -56.6 0 0 Z" fill="#ddcfb2" opacity="1" transform="translate(1988.6 2697.3) rotate(11.6)"/><path d="M0 0 Q 28.3 -50.3 0 -132.4 Q -28.3 -50.3 0 0 Z" fill="#ddcfb2" opacity="1" transform="translate(1988.6 2697.3) rotate(34.8)"/><path d="M0 0 Q 28.3 -44 0 -115.8 Q -28.3 -44 0 0 Z" fill="#ddcfb2" opacity="1" transform="translate(1988.6 2697.3) rotate(58)"/><path d="M1941.4,2697.3 Q1988.6,2750.8 2035.8,2697.3 Z" fill="#ddcfb2"/><line x1="250" y1="2740" x2="2150" y2="2740" stroke="#6d3a22" stroke-width="6"/><line x1="250" y1="260" x2="2150" y2="260" stroke="#6d3a22" stroke-width="6"/><rect x="104" y="104" width="2192" height="2792" fill="none" stroke="#6d3a22" stroke-width="16" opacity="0.85"/><rect x="150" y="150" width="2100" height="2700" fill="none" stroke="#6d3a22" stroke-width="4" opacity="0.55"/></g><rect width="2400" height="3000" filter="url(#a89-mottle)" style="mix-blend-mode:multiply" opacity="0.5"/><rect width="2400" height="3000" filter="url(#a89-fade)" style="mix-blend-mode:screen" opacity="0.55"/><rect width="2400" height="3000" filter="url(#a89-grain)" style="mix-blend-mode:multiply" opacity="0.32"/><ellipse cx="2176.6" cy="2292.6" rx="250.8" ry="210.9" fill="#6b4a22" opacity="0.028" filter="url(#a89-blur9)"/><ellipse cx="1300.9" cy="687.1" rx="294.6" ry="286.6" fill="#6b4a22" opacity="0.033" filter="url(#a89-blur9)"/><ellipse cx="1442.8" cy="2531.4" rx="217.2" ry="188.4" fill="#6b4a22" opacity="0.047" filter="url(#a89-blur9)"/><ellipse cx="1189.7" cy="375.7" rx="255.5" ry="271.8" fill="#6b4a22" opacity="0.050" filter="url(#a89-blur9)"/><ellipse cx="276.8" cy="1195.7" rx="300.5" ry="173.9" fill="#6b4a22" opacity="0.056" filter="url(#a89-blur9)"/><polyline points="904.3,1795.9 868.5,1667.5 742.6,1601.6 612.3,1542.9 525.1,1495 484.6,1392.6 426.5,1336 372.5,1269 253.2,1220.8 167.7,1135.9 27.3,1139.6" fill="none" stroke="#2e2116" stroke-width="2.8" opacity="0.19" stroke-linejoin="round"/><polyline points="904.3,1795.9 868.5,1667.5 742.6,1601.6 612.3,1542.9 525.1,1495 484.6,1392.6 426.5,1336 372.5,1269 253.2,1220.8 167.7,1135.9 27.3,1139.6" fill="none" stroke="#fff8ea" stroke-width="2" opacity="0.15" transform="translate(2.5 2.5)" stroke-linejoin="round"/><polyline points="1390.7,1970.8 1287.7,1995.8 1222.8,2000.5 1169.5,2004.2 1085.1,2030.8 966.1,2067 853.5,2080.5 799.9,2058.7 720.1,2034.6 644.2,2023.4 581.1,2061.1 489.7,2116.6 431.7,2131.9" fill="none" stroke="#2e2116" stroke-width="2.3" opacity="0.30" stroke-linejoin="round"/><polyline points="1390.7,1970.8 1287.7,1995.8 1222.8,2000.5 1169.5,2004.2 1085.1,2030.8 966.1,2067 853.5,2080.5 799.9,2058.7 720.1,2034.6 644.2,2023.4 581.1,2061.1 489.7,2116.6 431.7,2131.9" fill="none" stroke="#fff8ea" stroke-width="1.6" opacity="0.09" transform="translate(2.5 2.5)" stroke-linejoin="round"/><polyline points="979.5,222.9 1037,279.8 1108.2,327.3 1183.5,312.6 1231.5,291.3 1376.9,320.1 1426.2,414.3 1509.1,454.5 1616.1,519.8" fill="none" stroke="#2e2116" stroke-width="2.1" opacity="0.15" stroke-linejoin="round"/><polyline points="979.5,222.9 1037,279.8 1108.2,327.3 1183.5,312.6 1231.5,291.3 1376.9,320.1 1426.2,414.3 1509.1,454.5 1616.1,519.8" fill="none" stroke="#fff8ea" stroke-width="1.4" opacity="0.16" transform="translate(2.5 2.5)" stroke-linejoin="round"/><polyline points="1211.3,1696.5 1331.2,1665.7 1392.6,1638 1485.7,1615.5 1570.7,1657.8 1657.6,1621.5 1778.5,1575.7 1858.9,1501.4 1910.8,1436.2 1967.7,1341.9 2057.5,1258.8 2105,1181.6 2112,1130.7" fill="none" stroke="#2e2116" stroke-width="3.5" opacity="0.21" stroke-linejoin="round"/><polyline points="1211.3,1696.5 1331.2,1665.7 1392.6,1638 1485.7,1615.5 1570.7,1657.8 1657.6,1621.5 1778.5,1575.7 1858.9,1501.4 1910.8,1436.2 1967.7,1341.9 2057.5,1258.8 2105,1181.6 2112,1130.7" fill="none" stroke="#fff8ea" stroke-width="2.4" opacity="0.10" transform="translate(2.5 2.5)" stroke-linejoin="round"/><polyline points="1352.7,2352.2 1460.4,2385.7 1519.8,2450.7 1610.6,2560.3 1633.8,2695.9 1704.6,2738.2 1763.3,2741 1891.4,2794.3 1976,2788.4 2059.6,2836.1 2181.1,2845.8 2234.9,2841.7 2282,2889.9" fill="none" stroke="#2e2116" stroke-width="4" opacity="0.26" stroke-linejoin="round"/><polyline points="1352.7,2352.2 1460.4,2385.7 1519.8,2450.7 1610.6,2560.3 1633.8,2695.9 1704.6,2738.2 1763.3,2741 1891.4,2794.3 1976,2788.4 2059.6,2836.1 2181.1,2845.8 2234.9,2841.7 2282,2889.9" fill="none" stroke="#fff8ea" stroke-width="2.8" opacity="0.11" transform="translate(2.5 2.5)" stroke-linejoin="round"/><polyline points="1252.7,1970.8 1199.3,2001.8 1173.2,2126.8 1114.8,2157.4 1017.2,2171.1 914.5,2173.1 809.2,2105.8 790.7,2017.5 829.7,1912.1 858.9,1852.8 810.4,1741 827.9,1647.3 818.1,1561.6" fill="none" stroke="#2e2116" stroke-width="4.2" opacity="0.18" stroke-linejoin="round"/><polyline points="1252.7,1970.8 1199.3,2001.8 1173.2,2126.8 1114.8,2157.4 1017.2,2171.1 914.5,2173.1 809.2,2105.8 790.7,2017.5 829.7,1912.1 858.9,1852.8 810.4,1741 827.9,1647.3 818.1,1561.6" fill="none" stroke="#fff8ea" stroke-width="2.9" opacity="0.13" transform="translate(2.5 2.5)" stroke-linejoin="round"/><path d="M569,801.1 Q556.1,825.8 528,819.1 Q499.9,812.4 482.3,802.9 Q464.7,793.3 457,771.5 Q449.2,749.6 475,745.6 Q500.7,741.6 532,745.8 Q563.2,749.9 572.6,763.2 Q581.9,776.4 569,801.1 Z" fill="#ddcfb2" opacity="0.81"/><path d="M952.7,1081 Q938.8,1098.3 919.8,1101.5 Q900.8,1104.8 888.7,1091.1 Q876.7,1077.4 879,1059.1 Q881.3,1040.8 893.4,1034.7 Q905.5,1028.6 921.3,1028.8 Q937.2,1029.1 952,1046.5 Q966.7,1063.8 952.7,1081 Z" fill="#ddcfb2" opacity="0.93"/><path d="M1538.4,1335.7 Q1515.7,1352.1 1471.3,1349.8 Q1426.9,1347.5 1381,1338.3 Q1335.1,1329 1340.3,1317.6 Q1345.5,1306.2 1387.1,1301.1 Q1428.6,1296 1476.6,1299.3 Q1524.6,1302.5 1542.9,1310.9 Q1561.1,1319.3 1538.4,1335.7 Z" fill="#ddcfb2" opacity="0.92"/><path d="M2088,2706.8 Q2061,2738 2038.5,2734.5 Q2016,2731 1997.3,2718.9 Q1978.7,2706.8 1982.5,2678 Q1986.3,2649.3 2001.2,2612.6 Q2016,2575.9 2042.5,2599.5 Q2069,2623.1 2092,2649.3 Q2115,2675.6 2088,2706.8 Z" fill="#ddcfb2" opacity="0.79"/><rect width="2400" height="3000" fill="url(#a89-vig)"/></svg></svg>