<svg xmlns="http://www.w3.org/2000/svg" width="2400" height="1800" viewBox="0 0 2400 1800"><rect width="2400" height="1800" fill="#e3dccd"/><rect x="160" y="240" width="560" height="1060" fill="none" stroke="#cabfa9" stroke-width="10"/><rect x="200" y="280" width="480" height="980" fill="none" stroke="#cabfa9" stroke-width="5"/><rect x="1680" y="240" width="560" height="1060" fill="none" stroke="#cabfa9" stroke-width="10"/><rect x="1720" y="280" width="480" height="980" fill="none" stroke="#cabfa9" stroke-width="5"/><rect y="1380" width="2400" height="420" fill="#a98f6d"/><line x1="0" y1="1380" x2="-70" y2="1800" stroke="#00000018" stroke-width="6"/><line x1="190" y1="1380" x2="120" y2="1800" stroke="#00000018" stroke-width="6"/><line x1="380" y1="1380" x2="310" y2="1800" stroke="#00000018" stroke-width="6"/><line x1="570" y1="1380" x2="500" y2="1800" stroke="#00000018" stroke-width="6"/><line x1="760" y1="1380" x2="690" y2="1800" stroke="#00000018" stroke-width="6"/><line x1="950" y1="1380" x2="880" y2="1800" stroke="#00000018" stroke-width="6"/><line x1="1140" y1="1380" x2="1070" y2="1800" stroke="#00000018" stroke-width="6"/><line x1="1330" y1="1380" x2="1260" y2="1800" stroke="#00000018" stroke-width="6"/><line x1="1520" y1="1380" x2="1450" y2="1800" stroke="#00000018" stroke-width="6"/><line x1="1710" y1="1380" x2="1640" y2="1800" stroke="#00000018" stroke-width="6"/><line x1="1900" y1="1380" x2="1830" y2="1800" stroke="#00000018" stroke-width="6"/><line x1="2090" y1="1380" x2="2020" y2="1800" stroke="#00000018" stroke-width="6"/><line x1="2280" y1="1380" x2="2210" y2="1800" stroke="#00000018" stroke-width="6"/><rect y="1364" width="2400" height="18" fill="#d3c8b2"/><path d="M700,1500 L1700,1500 L1860,1800 L540,1800 Z" fill="#a4652f" opacity="0.75"/><path d="M760,1540 L1640,1540 L1760,1760 L640,1760 Z" fill="none" stroke="#f4ecdd" stroke-width="10" opacity="0.8"/><rect x="880" y="1180" width="640" height="40" rx="8" fill="#6f5436"/><rect x="920" y="1220" width="44" height="240" fill="#5e4629"/><rect x="1436" y="1220" width="44" height="240" fill="#5e4629"/><path d="M1160,1180 q -14,-90 40,-160 M1200,1180 q 4,-120 -10,-200 M1230,1180 q 30,-90 90,-130" stroke="#5d7052" stroke-width="12" fill="none" stroke-linecap="round"/><path d="M1150,1180 L1250,1180 L1230,1080 L1170,1080 Z" fill="#bfa87f" transform="translate(0,0)"/><path d="M1155,1060 h90 l-12,124 h-66 Z" fill="#b98a5a"/><rect x="1380" y="1120" width="18" height="60" fill="#8f6b3d"/><ellipse cx="1389" cy="1116" rx="16" ry="10" fill="#c9a227"/><defs><filter id="a50h-sh" x="-30%" y="-30%" width="160%" height="160%"><feGaussianBlur stdDeviation="16"/></filter></defs><rect x="950" y="258" width="528" height="648" fill="#000" opacity="0.28" filter="url(#a50h-sh)"/><rect x="936" y="236" width="528" height="648" fill="#33291f"/><rect x="951.6" y="251.6" width="496.8" height="616.8" fill="none" stroke="#00000055" stroke-width="3"/><rect x="960" y="260" width="480" height="600" fill="#f6f2ea"/><svg x="996" y="296" width="408" height="528" viewBox="0 0 2400 3000" preserveAspectRatio="xMidYMid slice"><filter id="a50-warp" x="-4%" y="-4%" width="108%" height="108%"><feTurbulence type="fractalNoise" baseFrequency="0.0105" numOctaves="2" seed="8652" result="w"/><feDisplacementMap in="SourceGraphic" in2="w" scale="7" xChannelSelector="R" yChannelSelector="G"/></filter><filter id="a50-grain" x="0%" y="0%" width="100%" height="100%"><feTurbulence type="fractalNoise" baseFrequency="0.6" numOctaves="2" seed="8659"/><feColorMatrix type="matrix" values="0.33 0.33 0.33 0 0.62  0.33 0.33 0.33 0 0.62  0.33 0.33 0.33 0 0.62  0 0 0 0 1"/></filter><filter id="a50-mottle" x="0%" y="0%" width="100%" height="100%"><feTurbulence type="fractalNoise" baseFrequency="0.0045" numOctaves="3" seed="8665"/><feColorMatrix type="matrix" values="0.2 0.2 0.2 0 0.78  0.2 0.2 0.2 0 0.78  0.2 0.2 0.2 0 0.78  0 0 0 0 1"/></filter><filter id="a50-fade" x="0%" y="0%" width="100%" height="100%"><feTurbulence type="fractalNoise" baseFrequency="0.006" numOctaves="2" seed="8681"/><feColorMatrix type="matrix" values="0.3 0.3 0.3 0 -0.08  0.3 0.3 0.3 0 -0.08  0.3 0.3 0.3 0 -0.1  0 0 0 0 1"/></filter><filter id="a50-blur9"><feGaussianBlur stdDeviation="9"/></filter><radialGradient id="a50-vig" cx="50%" cy="44%" r="78%"><stop offset="52%" stop-color="#241a10" stop-opacity="0"/><stop offset="100%" stop-color="#241a10" stop-opacity="0.17"/></radialGradient><radialGradient id="a50-warm" cx="42%" cy="30%" r="85%"><stop offset="0%" stop-color="#e8c890" stop-opacity="0.14"/><stop offset="70%" stop-color="#e8c890" stop-opacity="0"/></radialGradient><rect width="2400" height="3000" fill="#ede3ca"/><rect width="2400" height="3000" fill="url(#a50-warm)"/><g filter="url(#a50-warp)"><path d="M1981,1865.8 Q1905.1,2211.6 1684.3,2348.8 Q1463.6,2486 1190.2,2480.7 Q916.8,2475.4 706.1,2327 Q495.4,2178.7 377.3,1849.3 Q259.1,1520 403.9,1212.9 Q548.6,905.7 745,687.3 Q941.3,468.9 1206.3,442.3 Q1471.2,415.8 1707.9,632.5 Q1944.5,849.2 2000.7,1184.6 Q2057,1520 1981,1865.8 Z" fill="#bfa87f" stroke="#4e3b22" stroke-width="10"/><clipPath id="a50-st"><path d="M1981,1865.8 Q1905.1,2211.6 1684.3,2348.8 Q1463.6,2486 1190.2,2480.7 Q916.8,2475.4 706.1,2327 Q495.4,2178.7 377.3,1849.3 Q259.1,1520 403.9,1212.9 Q548.6,905.7 745,687.3 Q941.3,468.9 1206.3,442.3 Q1471.2,415.8 1707.9,632.5 Q1944.5,849.2 2000.7,1184.6 Q2057,1520 1981,1865.8 Z"/></clipPath><g clip-path="url(#a50-st)"><polyline points="1200,1572.3 1203.6,1574.7 1208.3,1575.9 1213.7,1575.6 1219.4,1573.5 1224.7,1569.6 1229.1,1563.8 1231.9,1556.4 1232.8,1548 1231.4,1538.9 1227.4,1530 1220.8,1521.8 1211.8,1515.2 1200.9,1510.9 1188.6,1509.3 1175.6,1510.9 1162.8,1516 1151.1,1524.5 1141.4,1536 1134.6,1550.3 1131.3,1566.4 1132.1,1583.4 1137.3,1600.5 1146.8,1616.3 1160.3,1629.8 1177.2,1640 1196.8,1645.9 1217.9,1647 1239.3,1642.8 1259.7,1633.2 1277.7,1618.6 1292,1599.6 1301.6,1577 1305.5,1552.2 1303.3,1526.4 1294.8,1501.3 1280.1,1478.4 1259.8,1459.3 1235,1445.2 1206.8,1437.4 1176.9,1436.5 1147,1442.9 1118.9,1456.7 1094.5,1477.2 1075.2,1503.5 1062.6,1534.3 1057.6,1567.9 1060.8,1602.4 1072.5,1635.7 1092.1,1665.9 1118.9,1690.9 1151.5,1709.1 1188.2,1719.2 1226.9,1720.3 1265.4,1711.9 1301.3,1694.2 1332.6,1668 1357,1634.6 1373,1595.7 1379.4,1553.4 1375.4,1510.1 1360.9,1468.4 1336.6,1430.8 1303.4,1399.6 1263.2,1377 1218.1,1364.3 1170.6,1362.8 1123.5,1372.9 1079.5,1394.2" fill="none" stroke="#4e3b22" stroke-width="22" stroke-linecap="round" stroke-linejoin="round"/><polyline points="990.2,1208.8 989.9,1204.5 991.2,1199.8 994.1,1195.3 998.8,1191.5 1004.9,1188.8 1012.1,1187.9 1019.9,1189.1 1027.6,1192.6 1034.8,1198.4 1040.5,1206.3 1044.3,1216.1 1045.5,1227.1 1043.8,1238.8 1039,1250.3 1031.1,1260.7 1020.3,1269.2 1007.1,1275.1 992.3,1277.7 976.5,1276.5 961,1271.3 946.6,1262.1 934.4,1249.1 925.4,1233 920.5,1214.5 920.2,1194.7 924.8,1174.8 934.4,1156 948.8,1139.6 967.2,1126.7 988.9,1118.4 1012.5,1115.5 1036.8,1118.5 1060.3,1127.5 1081.6,1142.3 1099,1162.3 1111.5,1186.4 1118,1213.6 1117.7,1242.1 1110.4,1270.4 1096.2,1296.8 1075.7,1319.4 1049.8,1336.9 1019.8,1347.8 987.3,1351.3 954.3,1346.9 922.8,1334.4 894.5,1314.3 871.5,1287.6 855.2,1255.5 846.9,1219.7 847.4,1182.4 857,1145.6 875.5,1111.6 902,1082.5 935.3,1060.1 973.5,1046.2 1014.7,1041.7 1056.4,1047.3 1096.2,1063 1131.7,1088.1 1160.6,1121.4 1181,1161.3 1191.4,1205.6 1191,1251.8 1179.3,1297.1 1156.9,1339 1124.6,1374.8 1084.2,1402.3" fill="none" stroke="#4e3b22" stroke-width="22" stroke-linecap="round" stroke-linejoin="round"/><polyline points="1409.8,1208.8 1410.1,1204.5 1408.8,1199.8 1405.9,1195.3 1401.2,1191.5 1395.1,1188.8 1387.9,1187.9 1380.1,1189.1 1372.4,1192.6 1365.2,1198.4 1359.5,1206.3 1355.7,1216.1 1354.5,1227.1 1356.2,1238.8 1361,1250.3 1368.9,1260.7 1379.7,1269.2 1392.9,1275.1 1407.7,1277.7 1423.5,1276.5 1439,1271.3 1453.4,1262.1 1465.6,1249.1 1474.6,1233 1479.5,1214.5 1479.8,1194.7 1475.2,1174.8 1465.6,1156 1451.2,1139.6 1432.8,1126.7 1411.1,1118.4 1387.5,1115.5 1363.2,1118.5 1339.7,1127.5 1318.4,1142.3 1301,1162.3 1288.5,1186.4 1282,1213.6 1282.3,1242.1 1289.6,1270.4 1303.8,1296.8 1324.3,1319.4 1350.2,1336.9 1380.2,1347.8 1412.7,1351.3 1445.7,1346.9 1477.2,1334.4 1505.5,1314.3 1528.5,1287.6 1544.8,1255.5 1553.1,1219.7 1552.6,1182.4 1543,1145.6 1524.5,1111.6 1498,1082.5 1464.7,1060.1 1426.5,1046.2 1385.3,1041.7 1343.6,1047.3 1303.8,1063 1268.3,1088.1 1239.4,1121.4 1219,1161.3 1208.6,1205.6 1209,1251.8 1220.7,1297.1 1243.1,1339 1275.4,1374.8 1315.8,1402.3" fill="none" stroke="#4e3b22" stroke-width="22" stroke-linecap="round" stroke-linejoin="round"/><polyline points="537.2,1499.5 538.5,1500.2 540.2,1500.5 542.1,1500.1 543.9,1499.2 545.6,1497.5 546.8,1495.2 547.4,1492.5 547.2,1489.5 546.1,1486.4 544.1,1483.5 541.3,1481 537.7,1479.2 533.5,1478.4 529,1478.7 524.5,1480.2 520.3,1482.9 516.7,1486.8 514.1,1491.6 512.7,1497.2 512.7,1503.2 514.3,1509.3 517.5,1515 522.1,1519.9 528,1523.7 534.9,1526 542.4,1526.5 550.1,1525.2 557.4,1521.9 563.9,1516.8 569.2,1510 572.7,1502 574.2,1493.1 573.4,1483.8 570.4,1474.7 565.1,1466.5 557.8,1459.6 548.8,1454.5 538.6,1451.8 527.7,1451.5 516.9,1454 506.8,1459.1 498,1466.7 491.2,1476.4 486.9,1487.7 485.3,1500 486.9,1512.5 491.4,1524.5 498.9,1535.3 509,1544.1 521.1,1550.3 534.7,1553.5 548.8,1553.3 562.7,1549.6 575.6,1542.6 586.5,1532.5 594.9,1519.8 600,1505.3" fill="none" stroke="#4e3b22" stroke-width="14" stroke-linecap="round" stroke-linejoin="round"/><polyline points="609,1147.6 608.8,1145.1 607.6,1142.7 605.4,1140.5 602.4,1138.9 598.7,1138.1 594.5,1138.5 590.3,1140.2 586.4,1143.2 583.1,1147.4 581,1152.7 580.2,1158.8 581.1,1165.3 583.8,1171.7 588.2,1177.5 594.3,1182.3 601.8,1185.5 610.3,1186.9 619.2,1186 628,1182.9 636.1,1177.4 642.9,1169.7 647.7,1160.3 650.2,1149.6 650,1138.2 646.9,1126.7 640.8,1116.1 632.1,1106.9 621,1100 608.2,1095.8 594.3,1094.8 580.2,1097.4 566.8,1103.4 554.9,1112.8 545.4,1125.1 539,1139.8 536.3,1156 537.7,1172.7 543.2,1189 552.7,1203.9 565.8,1216.2 581.9,1225.3 600.1,1230.3 619.4,1230.7 638.6,1226.4 656.5,1217.4 672.1,1204 684.2,1186.9 692,1167 694.8,1145.4 692.2,1123.4 684.3,1102.2 671.2,1083.2 653.7,1067.7 632.5,1056.7 608.9,1051 584.2,1051.2 559.9,1057.4" fill="none" stroke="#4e3b22" stroke-width="14" stroke-linecap="round" stroke-linejoin="round"/><polyline points="1402.5,1994.2 1401.4,1996.5 1399.4,1998.5 1396.6,1999.9 1393,2000.4 1389.2,1999.8 1385.3,1998 1381.7,1994.9 1378.9,1990.6 1377.2,1985.3 1377,1979.4 1378.4,1973.2 1381.5,1967.2 1386.3,1961.9 1392.7,1957.8 1400.3,1955.3 1408.7,1954.7 1417.4,1956.3 1425.8,1960.3 1433.3,1966.4 1439.3,1974.6 1443.2,1984.4 1444.7,1995.2 1443.4,2006.6 1439.2,2017.6 1432.1,2027.6 1422.5,2035.9 1410.8,2041.8 1397.6,2044.7 1383.7,2044.3 1369.8,2040.4 1357,2033.1 1346,2022.5 1337.7,2009.2 1332.7,1993.9 1331.6,1977.4 1334.6,1960.8 1341.7,1944.9 1352.8,1930.9 1367.2,1919.8 1384.3,1912.3 1403.1,1909 1422.5,1910.5 1441.5,1916.8 1458.7,1927.7 1473.1,1942.7 1483.6,1961.2 1489.5,1982 1490.1,2004.1 1485.3,2026.1 1475.2,2046.7 1460.1,2064.6 1440.8,2078.5 1418.2,2087.5 1393.8,2090.9 1368.8,2088.2 1344.9,2079.5 1323.4,2064.9" fill="none" stroke="#4e3b22" stroke-width="14" stroke-linecap="round" stroke-linejoin="round"/><polyline points="521.8,2450 556.5,2373.5 591.1,2450" fill="none" stroke="#4e3b22" stroke-width="12.6"/><polyline points="620.8,2450 655.5,2373.5 690.1,2450" fill="none" stroke="#4e3b22" stroke-width="12.6"/><polyline points="719.8,2450 754.5,2373.5 789.1,2450" fill="none" stroke="#4e3b22" stroke-width="12.6"/><polyline points="818.9,2450 853.5,2373.5 888.1,2450" fill="none" stroke="#4e3b22" stroke-width="12.6"/><polyline points="917.9,2450 952.5,2373.5 987.1,2450" fill="none" stroke="#4e3b22" stroke-width="12.6"/><polyline points="1016.9,2450 1051.5,2373.5 1086.2,2450" fill="none" stroke="#4e3b22" stroke-width="12.6"/><polyline points="1115.8,2450 1150.5,2373.5 1185.2,2450" fill="none" stroke="#4e3b22" stroke-width="12.6"/><polyline points="1214.8,2450 1249.5,2373.5 1284.2,2450" fill="none" stroke="#4e3b22" stroke-width="12.6"/><polyline points="1313.8,2450 1348.5,2373.5 1383.2,2450" fill="none" stroke="#4e3b22" stroke-width="12.6"/><polyline points="1412.8,2450 1447.5,2373.5 1482.2,2450" fill="none" stroke="#4e3b22" stroke-width="12.6"/><polyline points="1511.8,2450 1546.5,2373.5 1581.2,2450" fill="none" stroke="#4e3b22" stroke-width="12.6"/><polyline points="1610.8,2450 1645.5,2373.5 1680.2,2450" fill="none" stroke="#4e3b22" stroke-width="12.6"/><polyline points="1709.8,2450 1744.5,2373.5 1779.2,2450" fill="none" stroke="#4e3b22" stroke-width="12.6"/><polyline points="1808.8,2450 1843.5,2373.5 1878.2,2450" fill="none" stroke="#4e3b22" stroke-width="12.6"/></g><circle cx="390" cy="200" r="15.6" fill="#4e3b22"/><circle cx="450" cy="200" r="15.6" fill="#4e3b22"/><circle cx="510" cy="200" r="15.6" fill="#4e3b22"/><circle cx="570" cy="200" r="15.6" fill="#4e3b22"/><circle cx="630" cy="200" r="15.6" fill="#4e3b22"/><circle cx="690" cy="200" r="15.6" fill="#4e3b22"/><circle cx="750" cy="200" r="15.6" fill="#4e3b22"/><circle cx="810" cy="200" r="15.6" fill="#4e3b22"/><circle cx="870" cy="200" r="15.6" fill="#4e3b22"/><circle cx="930" cy="200" r="15.6" fill="#4e3b22"/><circle cx="990" cy="200" r="15.6" fill="#4e3b22"/><circle cx="1050" cy="200" r="15.6" fill="#4e3b22"/><circle cx="1110" cy="200" r="15.6" fill="#4e3b22"/><circle cx="1170" cy="200" r="15.6" fill="#4e3b22"/><circle cx="1230" cy="200" r="15.6" fill="#4e3b22"/><circle cx="1290" cy="200" r="15.6" fill="#4e3b22"/><circle cx="1350" cy="200" r="15.6" fill="#4e3b22"/><circle cx="1410" cy="200" r="15.6" fill="#4e3b22"/><circle cx="1470" cy="200" r="15.6" fill="#4e3b22"/><circle cx="1530" cy="200" r="15.6" fill="#4e3b22"/><circle cx="1590" cy="200" r="15.6" fill="#4e3b22"/><circle cx="1650" cy="200" r="15.6" fill="#4e3b22"/><circle cx="1710" cy="200" r="15.6" fill="#4e3b22"/><circle cx="1770" cy="200" r="15.6" fill="#4e3b22"/><circle cx="1830" cy="200" r="15.6" fill="#4e3b22"/><circle cx="1890" cy="200" r="15.6" fill="#4e3b22"/><circle cx="1950" cy="200" r="15.6" fill="#4e3b22"/><circle cx="2010" cy="200" r="15.6" fill="#4e3b22"/><circle cx="390" cy="2800" r="15.6" fill="#4e3b22"/><circle cx="450" cy="2800" r="15.6" fill="#4e3b22"/><circle cx="510" cy="2800" r="15.6" fill="#4e3b22"/><circle cx="570" cy="2800" r="15.6" fill="#4e3b22"/><circle cx="630" cy="2800" r="15.6" fill="#4e3b22"/><circle cx="690" cy="2800" r="15.6" fill="#4e3b22"/><circle cx="750" cy="2800" r="15.6" fill="#4e3b22"/><circle cx="810" cy="2800" r="15.6" fill="#4e3b22"/><circle cx="870" cy="2800" r="15.6" fill="#4e3b22"/><circle cx="930" cy="2800" r="15.6" fill="#4e3b22"/><circle cx="990" cy="2800" r="15.6" fill="#4e3b22"/><circle cx="1050" cy="2800" r="15.6" fill="#4e3b22"/><circle cx="1110" cy="2800" r="15.6" fill="#4e3b22"/><circle cx="1170" cy="2800" r="15.6" fill="#4e3b22"/><circle cx="1230" cy="2800" r="15.6" fill="#4e3b22"/><circle cx="1290" cy="2800" r="15.6" fill="#4e3b22"/><circle cx="1350" cy="2800" r="15.6" fill="#4e3b22"/><circle cx="1410" cy="2800" r="15.6" fill="#4e3b22"/><circle cx="1470" cy="2800" r="15.6" fill="#4e3b22"/><circle cx="1530" cy="2800" r="15.6" fill="#4e3b22"/><circle cx="1590" cy="2800" r="15.6" fill="#4e3b22"/><circle cx="1650" cy="2800" r="15.6" fill="#4e3b22"/><circle cx="1710" cy="2800" r="15.6" fill="#4e3b22"/><circle cx="1770" cy="2800" r="15.6" fill="#4e3b22"/><circle cx="1830" cy="2800" r="15.6" fill="#4e3b22"/><circle cx="1890" cy="2800" r="15.6" fill="#4e3b22"/><circle cx="1950" cy="2800" r="15.6" fill="#4e3b22"/><circle cx="2010" cy="2800" r="15.6" fill="#4e3b22"/><rect x="130" y="130" width="2140" height="2740" fill="none" stroke="#4e3b22" stroke-width="5"/><rect x="152" y="152" width="2096" height="2696" fill="none" stroke="#4e3b22" stroke-width="2.5" opacity="0.8"/></g><rect width="2400" height="3000" filter="url(#a50-mottle)" style="mix-blend-mode:multiply" opacity="0.5"/><rect width="2400" height="3000" filter="url(#a50-fade)" style="mix-blend-mode:screen" opacity="0.55"/><rect width="2400" height="3000" filter="url(#a50-grain)" style="mix-blend-mode:multiply" opacity="0.32"/><ellipse cx="328.1" cy="2788.2" rx="210.9" ry="148.1" fill="#6b4a22" opacity="0.068" filter="url(#a50-blur9)"/><ellipse cx="1904.3" cy="329.8" rx="256.8" ry="164.4" fill="#6b4a22" opacity="0.045" filter="url(#a50-blur9)"/><ellipse cx="316.9" cy="2230.7" rx="292.7" ry="227.7" fill="#6b4a22" opacity="0.051" filter="url(#a50-blur9)"/><g opacity="0.3"><rect y="3" width="2400" height="2" fill="#ede3ca"/><rect y="11" width="2400" height="2" fill="#ede3ca"/><rect y="19" width="2400" height="2" fill="#ede3ca"/><rect y="27" width="2400" height="2" fill="#ede3ca"/><rect y="35" width="2400" height="2" fill="#ede3ca"/><rect y="43" width="2400" height="2" fill="#ede3ca"/><rect y="51" width="2400" height="2" fill="#ede3ca"/><rect y="59" width="2400" height="2" fill="#ede3ca"/><rect y="67" width="2400" height="2" fill="#ede3ca"/><rect y="75" width="2400" height="2" fill="#ede3ca"/><rect y="83" width="2400" height="2" fill="#ede3ca"/><rect y="91" width="2400" height="2" fill="#ede3ca"/><rect y="99" width="2400" height="2" fill="#ede3ca"/><rect y="107" width="2400" height="2" fill="#ede3ca"/><rect y="115" width="2400" height="2" fill="#ede3ca"/><rect y="123" width="2400" height="2" fill="#ede3ca"/><rect y="131" width="2400" height="2" fill="#ede3ca"/><rect y="139" width="2400" height="2" fill="#ede3ca"/><rect y="147" width="2400" height="2" fill="#ede3ca"/><rect y="155" width="2400" height="2" fill="#ede3ca"/><rect y="163" width="2400" height="2" fill="#ede3ca"/><rect y="171" width="2400" height="2" fill="#ede3ca"/><rect y="179" width="2400" height="2" fill="#ede3ca"/><rect y="187" width="2400" height="2" fill="#ede3ca"/><rect y="195" width="2400" height="2" fill="#ede3ca"/><rect y="203" width="2400" height="2" fill="#ede3ca"/><rect y="211" width="2400" height="2" fill="#ede3ca"/><rect y="219" width="2400" height="2" fill="#ede3ca"/><rect y="227" width="2400" height="2" fill="#ede3ca"/><rect y="235" width="2400" height="2" fill="#ede3ca"/><rect y="243" width="2400" height="2" fill="#ede3ca"/><rect y="251" width="2400" height="2" fill="#ede3ca"/><rect y="259" width="2400" height="2" fill="#ede3ca"/><rect y="267" width="2400" height="2" fill="#ede3ca"/><rect y="275" width="2400" height="2" fill="#ede3ca"/><rect y="283" width="2400" height="2" fill="#ede3ca"/><rect y="291" width="2400" height="2" fill="#ede3ca"/><rect y="299" width="2400" height="2" fill="#ede3ca"/><rect y="307" width="2400" height="2" fill="#ede3ca"/><rect y="315" width="2400" height="2" fill="#ede3ca"/><rect y="323" width="2400" height="2" fill="#ede3ca"/><rect y="331" width="2400" height="2" fill="#ede3ca"/><rect y="339" width="2400" height="2" fill="#ede3ca"/><rect y="347" width="2400" height="2" fill="#ede3ca"/><rect y="355" width="2400" height="2" fill="#ede3ca"/><rect y="363" width="2400" height="2" fill="#ede3ca"/><rect y="371" width="2400" height="2" fill="#ede3ca"/><rect y="379" width="2400" height="2" fill="#ede3ca"/><rect y="387" width="2400" height="2" fill="#ede3ca"/><rect y="395" width="2400" height="2" fill="#ede3ca"/><rect y="403" width="2400" height="2" fill="#ede3ca"/><rect y="411" width="2400" height="2" fill="#ede3ca"/><rect y="419" width="2400" height="2" fill="#ede3ca"/><rect y="427" width="2400" height="2" fill="#ede3ca"/><rect y="435" width="2400" height="2" fill="#ede3ca"/><rect y="443" width="2400" height="2" fill="#ede3ca"/><rect y="451" width="2400" height="2" fill="#ede3ca"/><rect y="459" width="2400" height="2" fill="#ede3ca"/><rect y="467" width="2400" height="2" fill="#ede3ca"/><rect y="475" width="2400" height="2" fill="#ede3ca"/><rect y="483" width="2400" height="2" fill="#ede3ca"/><rect y="491" width="2400" height="2" fill="#ede3ca"/><rect y="499" width="2400" height="2" fill="#ede3ca"/><rect y="507" width="2400" height="2" fill="#ede3ca"/><rect y="515" width="2400" height="2" fill="#ede3ca"/><rect y="523" width="2400" height="2" fill="#ede3ca"/><rect y="531" width="2400" height="2" fill="#ede3ca"/><rect y="539" width="2400" height="2" fill="#ede3ca"/><rect y="547" width="2400" height="2" fill="#ede3ca"/><rect y="555" width="2400" height="2" fill="#ede3ca"/><rect y="563" width="2400" height="2" fill="#ede3ca"/><rect y="571" width="2400" height="2" fill="#ede3ca"/><rect y="579" width="2400" height="2" fill="#ede3ca"/><rect y="587" width="2400" height="2" fill="#ede3ca"/><rect y="595" width="2400" height="2" fill="#ede3ca"/><rect y="603" width="2400" height="2" fill="#ede3ca"/><rect y="611" width="2400" height="2" fill="#ede3ca"/><rect y="619" width="2400" height="2" fill="#ede3ca"/><rect y="627" width="2400" height="2" fill="#ede3ca"/><rect y="635" width="2400" height="2" fill="#ede3ca"/><rect y="643" width="2400" height="2" fill="#ede3ca"/><rect y="651" width="2400" height="2" fill="#ede3ca"/><rect y="659" width="2400" height="2" fill="#ede3ca"/><rect y="667" width="2400" height="2" fill="#ede3ca"/><rect y="675" width="2400" height="2" fill="#ede3ca"/><rect y="683" width="2400" height="2" fill="#ede3ca"/><rect y="691" width="2400" height="2" fill="#ede3ca"/><rect y="699" width="2400" height="2" fill="#ede3ca"/><rect y="707" width="2400" height="2" fill="#ede3ca"/><rect y="715" width="2400" height="2" fill="#ede3ca"/><rect y="723" width="2400" height="2" fill="#ede3ca"/><rect y="731" width="2400" height="2" fill="#ede3ca"/><rect y="739" width="2400" height="2" fill="#ede3ca"/><rect y="747" width="2400" height="2" fill="#ede3ca"/><rect y="755" width="2400" height="2" fill="#ede3ca"/><rect y="763" width="2400" height="2" fill="#ede3ca"/><rect y="771" width="2400" height="2" fill="#ede3ca"/><rect y="779" width="2400" height="2" fill="#ede3ca"/><rect y="787" width="2400" height="2" fill="#ede3ca"/><rect y="795" width="2400" height="2" fill="#ede3ca"/><rect y="803" width="2400" height="2" fill="#ede3ca"/><rect y="811" width="2400" height="2" fill="#ede3ca"/><rect y="819" width="2400" height="2" fill="#ede3ca"/><rect y="827" width="2400" height="2" fill="#ede3ca"/><rect y="835" width="2400" height="2" fill="#ede3ca"/><rect y="843" width="2400" height="2" fill="#ede3ca"/><rect y="851" width="2400" height="2" fill="#ede3ca"/><rect y="859" width="2400" height="2" fill="#ede3ca"/><rect y="867" width="2400" height="2" fill="#ede3ca"/><rect y="875" width="2400" height="2" fill="#ede3ca"/><rect y="883" width="2400" height="2" fill="#ede3ca"/><rect y="891" width="2400" height="2" fill="#ede3ca"/><rect y="899" width="2400" height="2" fill="#ede3ca"/><rect y="907" width="2400" height="2" fill="#ede3ca"/><rect y="915" width="2400" height="2" fill="#ede3ca"/><rect y="923" width="2400" height="2" fill="#ede3ca"/><rect y="931" width="2400" height="2" fill="#ede3ca"/><rect y="939" width="2400" height="2" fill="#ede3ca"/><rect y="947" width="2400" height="2" fill="#ede3ca"/><rect y="955" width="2400" height="2" fill="#ede3ca"/><rect y="963" width="2400" height="2" fill="#ede3ca"/><rect y="971" width="2400" height="2" fill="#ede3ca"/><rect y="979" width="2400" height="2" fill="#ede3ca"/><rect y="987" width="2400" height="2" fill="#ede3ca"/><rect y="995" width="2400" height="2" fill="#ede3ca"/><rect y="1003" width="2400" height="2" fill="#ede3ca"/><rect y="1011" width="2400" height="2" fill="#ede3ca"/><rect y="1019" width="2400" height="2" fill="#ede3ca"/><rect y="1027" width="2400" height="2" fill="#ede3ca"/><rect y="1035" width="2400" height="2" fill="#ede3ca"/><rect y="1043" width="2400" height="2" fill="#ede3ca"/><rect y="1051" width="2400" height="2" fill="#ede3ca"/><rect y="1059" width="2400" height="2" fill="#ede3ca"/><rect y="1067" width="2400" height="2" fill="#ede3ca"/><rect y="1075" width="2400" height="2" fill="#ede3ca"/><rect y="1083" width="2400" height="2" fill="#ede3ca"/><rect y="1091" width="2400" height="2" fill="#ede3ca"/><rect y="1099" width="2400" height="2" fill="#ede3ca"/><rect y="1107" width="2400" height="2" fill="#ede3ca"/><rect y="1115" width="2400" height="2" fill="#ede3ca"/><rect y="1123" width="2400" height="2" fill="#ede3ca"/><rect y="1131" width="2400" height="2" fill="#ede3ca"/><rect y="1139" width="2400" height="2" fill="#ede3ca"/><rect y="1147" width="2400" height="2" fill="#ede3ca"/><rect y="1155" width="2400" height="2" fill="#ede3ca"/><rect y="1163" width="2400" height="2" fill="#ede3ca"/><rect y="1171" width="2400" height="2" fill="#ede3ca"/><rect y="1179" width="2400" height="2" fill="#ede3ca"/><rect y="1187" width="2400" height="2" fill="#ede3ca"/><rect y="1195" width="2400" height="2" fill="#ede3ca"/><rect y="1203" width="2400" height="2" fill="#ede3ca"/><rect y="1211" width="2400" height="2" fill="#ede3ca"/><rect y="1219" width="2400" height="2" fill="#ede3ca"/><rect y="1227" width="2400" height="2" fill="#ede3ca"/><rect y="1235" width="2400" height="2" fill="#ede3ca"/><rect y="1243" width="2400" height="2" fill="#ede3ca"/><rect y="1251" width="2400" height="2" fill="#ede3ca"/><rect y="1259" width="2400" height="2" fill="#ede3ca"/><rect y="1267" width="2400" height="2" fill="#ede3ca"/><rect y="1275" width="2400" height="2" fill="#ede3ca"/><rect y="1283" width="2400" height="2" fill="#ede3ca"/><rect y="1291" width="2400" height="2" fill="#ede3ca"/><rect y="1299" width="2400" height="2" fill="#ede3ca"/><rect y="1307" width="2400" height="2" fill="#ede3ca"/><rect y="1315" width="2400" height="2" fill="#ede3ca"/><rect y="1323" width="2400" height="2" fill="#ede3ca"/><rect y="1331" width="2400" height="2" fill="#ede3ca"/><rect y="1339" width="2400" height="2" fill="#ede3ca"/><rect y="1347" width="2400" height="2" fill="#ede3ca"/><rect y="1355" width="2400" height="2" fill="#ede3ca"/><rect y="1363" width="2400" height="2" fill="#ede3ca"/><rect y="1371" width="2400" height="2" fill="#ede3ca"/><rect y="1379" width="2400" height="2" fill="#ede3ca"/><rect y="1387" width="2400" height="2" fill="#ede3ca"/><rect y="1395" width="2400" height="2" fill="#ede3ca"/><rect y="1403" width="2400" height="2" fill="#ede3ca"/><rect y="1411" width="2400" height="2" fill="#ede3ca"/><rect y="1419" width="2400" height="2" fill="#ede3ca"/><rect y="1427" width="2400" height="2" fill="#ede3ca"/><rect y="1435" width="2400" height="2" fill="#ede3ca"/><rect y="1443" width="2400" height="2" fill="#ede3ca"/><rect y="1451" width="2400" height="2" fill="#ede3ca"/><rect y="1459" width="2400" height="2" fill="#ede3ca"/><rect y="1467" width="2400" height="2" fill="#ede3ca"/><rect y="1475" width="2400" height="2" fill="#ede3ca"/><rect y="1483" width="2400" height="2" fill="#ede3ca"/><rect y="1491" width="2400" height="2" fill="#ede3ca"/><rect y="1499" width="2400" height="2" fill="#ede3ca"/><rect y="1507" width="2400" height="2" fill="#ede3ca"/><rect y="1515" width="2400" height="2" fill="#ede3ca"/><rect y="1523" width="2400" height="2" fill="#ede3ca"/><rect y="1531" width="2400" height="2" fill="#ede3ca"/><rect y="1539" width="2400" height="2" fill="#ede3ca"/><rect y="1547" width="2400" height="2" fill="#ede3ca"/><rect y="1555" width="2400" height="2" fill="#ede3ca"/><rect y="1563" width="2400" height="2" fill="#ede3ca"/><rect y="1571" width="2400" height="2" fill="#ede3ca"/><rect y="1579" width="2400" height="2" fill="#ede3ca"/><rect y="1587" width="2400" height="2" fill="#ede3ca"/><rect y="1595" width="2400" height="2" fill="#ede3ca"/><rect y="1603" width="2400" height="2" fill="#ede3ca"/><rect y="1611" width="2400" height="2" fill="#ede3ca"/><rect y="1619" width="2400" height="2" fill="#ede3ca"/><rect y="1627" width="2400" height="2" fill="#ede3ca"/><rect y="1635" width="2400" height="2" fill="#ede3ca"/><rect y="1643" width="2400" height="2" fill="#ede3ca"/><rect y="1651" width="2400" height="2" fill="#ede3ca"/><rect y="1659" width="2400" height="2" fill="#ede3ca"/><rect y="1667" width="2400" height="2" fill="#ede3ca"/><rect y="1675" width="2400" height="2" fill="#ede3ca"/><rect y="1683" width="2400" height="2" fill="#ede3ca"/><rect y="1691" width="2400" height="2" fill="#ede3ca"/><rect y="1699" width="2400" height="2" fill="#ede3ca"/><rect y="1707" width="2400" height="2" fill="#ede3ca"/><rect y="1715" width="2400" height="2" fill="#ede3ca"/><rect y="1723" width="2400" height="2" fill="#ede3ca"/><rect y="1731" width="2400" height="2" fill="#ede3ca"/><rect y="1739" width="2400" height="2" fill="#ede3ca"/><rect y="1747" width="2400" height="2" fill="#ede3ca"/><rect y="1755" width="2400" height="2" fill="#ede3ca"/><rect y="1763" width="2400" height="2" fill="#ede3ca"/><rect y="1771" width="2400" height="2" fill="#ede3ca"/><rect y="1779" width="2400" height="2" fill="#ede3ca"/><rect y="1787" width="2400" height="2" fill="#ede3ca"/><rect y="1795" width="2400" height="2" fill="#ede3ca"/><rect y="1803" width="2400" height="2" fill="#ede3ca"/><rect y="1811" width="2400" height="2" fill="#ede3ca"/><rect y="1819" width="2400" height="2" fill="#ede3ca"/><rect y="1827" width="2400" height="2" fill="#ede3ca"/><rect y="1835" width="2400" height="2" fill="#ede3ca"/><rect y="1843" width="2400" height="2" fill="#ede3ca"/><rect y="1851" width="2400" height="2" fill="#ede3ca"/><rect y="1859" width="2400" height="2" fill="#ede3ca"/><rect y="1867" width="2400" height="2" fill="#ede3ca"/><rect y="1875" width="2400" height="2" fill="#ede3ca"/><rect y="1883" width="2400" height="2" fill="#ede3ca"/><rect y="1891" width="2400" height="2" fill="#ede3ca"/><rect y="1899" width="2400" height="2" fill="#ede3ca"/><rect y="1907" width="2400" height="2" fill="#ede3ca"/><rect y="1915" width="2400" height="2" fill="#ede3ca"/><rect y="1923" width="2400" height="2" fill="#ede3ca"/><rect y="1931" width="2400" height="2" fill="#ede3ca"/><rect y="1939" width="2400" height="2" fill="#ede3ca"/><rect y="1947" width="2400" height="2" fill="#ede3ca"/><rect y="1955" width="2400" height="2" fill="#ede3ca"/><rect y="1963" width="2400" height="2" fill="#ede3ca"/><rect y="1971" width="2400" height="2" fill="#ede3ca"/><rect y="1979" width="2400" height="2" fill="#ede3ca"/><rect y="1987" width="2400" height="2" fill="#ede3ca"/><rect y="1995" width="2400" height="2" fill="#ede3ca"/><rect y="2003" width="2400" height="2" fill="#ede3ca"/><rect y="2011" width="2400" height="2" fill="#ede3ca"/><rect y="2019" width="2400" height="2" fill="#ede3ca"/><rect y="2027" width="2400" height="2" fill="#ede3ca"/><rect y="2035" width="2400" height="2" fill="#ede3ca"/><rect y="2043" width="2400" height="2" fill="#ede3ca"/><rect y="2051" width="2400" height="2" fill="#ede3ca"/><rect y="2059" width="2400" height="2" fill="#ede3ca"/><rect y="2067" width="2400" height="2" fill="#ede3ca"/><rect y="2075" width="2400" height="2" fill="#ede3ca"/><rect y="2083" width="2400" height="2" fill="#ede3ca"/><rect y="2091" width="2400" height="2" fill="#ede3ca"/><rect y="2099" width="2400" height="2" fill="#ede3ca"/><rect y="2107" width="2400" height="2" fill="#ede3ca"/><rect y="2115" width="2400" height="2" fill="#ede3ca"/><rect y="2123" width="2400" height="2" fill="#ede3ca"/><rect y="2131" width="2400" height="2" fill="#ede3ca"/><rect y="2139" width="2400" height="2" fill="#ede3ca"/><rect y="2147" width="2400" height="2" fill="#ede3ca"/><rect y="2155" width="2400" height="2" fill="#ede3ca"/><rect y="2163" width="2400" height="2" fill="#ede3ca"/><rect y="2171" width="2400" height="2" fill="#ede3ca"/><rect y="2179" width="2400" height="2" fill="#ede3ca"/><rect y="2187" width="2400" height="2" fill="#ede3ca"/><rect y="2195" width="2400" height="2" fill="#ede3ca"/><rect y="2203" width="2400" height="2" fill="#ede3ca"/><rect y="2211" width="2400" height="2" fill="#ede3ca"/><rect y="2219" width="2400" height="2" fill="#ede3ca"/><rect y="2227" width="2400" height="2" fill="#ede3ca"/><rect y="2235" width="2400" height="2" fill="#ede3ca"/><rect y="2243" width="2400" height="2" fill="#ede3ca"/><rect y="2251" width="2400" height="2" fill="#ede3ca"/><rect y="2259" width="2400" height="2" fill="#ede3ca"/><rect y="2267" width="2400" height="2" fill="#ede3ca"/><rect y="2275" width="2400" height="2" fill="#ede3ca"/><rect y="2283" width="2400" height="2" fill="#ede3ca"/><rect y="2291" width="2400" height="2" fill="#ede3ca"/><rect y="2299" width="2400" height="2" fill="#ede3ca"/><rect y="2307" width="2400" height="2" fill="#ede3ca"/><rect y="2315" width="2400" height="2" fill="#ede3ca"/><rect y="2323" width="2400" height="2" fill="#ede3ca"/><rect y="2331" width="2400" height="2" fill="#ede3ca"/><rect y="2339" width="2400" height="2" fill="#ede3ca"/><rect y="2347" width="2400" height="2" fill="#ede3ca"/><rect y="2355" width="2400" height="2" fill="#ede3ca"/><rect y="2363" width="2400" height="2" fill="#ede3ca"/><rect y="2371" width="2400" height="2" fill="#ede3ca"/><rect y="2379" width="2400" height="2" fill="#ede3ca"/><rect y="2387" width="2400" height="2" fill="#ede3ca"/><rect y="2395" width="2400" height="2" fill="#ede3ca"/><rect y="2403" width="2400" height="2" fill="#ede3ca"/><rect y="2411" width="2400" height="2" fill="#ede3ca"/><rect y="2419" width="2400" height="2" fill="#ede3ca"/><rect y="2427" width="2400" height="2" fill="#ede3ca"/><rect y="2435" width="2400" height="2" fill="#ede3ca"/><rect y="2443" width="2400" height="2" fill="#ede3ca"/><rect y="2451" width="2400" height="2" fill="#ede3ca"/><rect y="2459" width="2400" height="2" fill="#ede3ca"/><rect y="2467" width="2400" height="2" fill="#ede3ca"/><rect y="2475" width="2400" height="2" fill="#ede3ca"/><rect y="2483" width="2400" height="2" fill="#ede3ca"/><rect y="2491" width="2400" height="2" fill="#ede3ca"/><rect y="2499" width="2400" height="2" fill="#ede3ca"/><rect y="2507" width="2400" height="2" fill="#ede3ca"/><rect y="2515" width="2400" height="2" fill="#ede3ca"/><rect y="2523" width="2400" height="2" fill="#ede3ca"/><rect y="2531" width="2400" height="2" fill="#ede3ca"/><rect y="2539" width="2400" height="2" fill="#ede3ca"/><rect y="2547" width="2400" height="2" fill="#ede3ca"/><rect y="2555" width="2400" height="2" fill="#ede3ca"/><rect y="2563" width="2400" height="2" fill="#ede3ca"/><rect y="2571" width="2400" height="2" fill="#ede3ca"/><rect y="2579" width="2400" height="2" fill="#ede3ca"/><rect y="2587" width="2400" height="2" fill="#ede3ca"/><rect y="2595" width="2400" height="2" fill="#ede3ca"/><rect y="2603" width="2400" height="2" fill="#ede3ca"/><rect y="2611" width="2400" height="2" fill="#ede3ca"/><rect y="2619" width="2400" height="2" fill="#ede3ca"/><rect y="2627" width="2400" height="2" fill="#ede3ca"/><rect y="2635" width="2400" height="2" fill="#ede3ca"/><rect y="2643" width="2400" height="2" fill="#ede3ca"/><rect y="2651" width="2400" height="2" fill="#ede3ca"/><rect y="2659" width="2400" height="2" fill="#ede3ca"/><rect y="2667" width="2400" height="2" fill="#ede3ca"/><rect y="2675" width="2400" height="2" fill="#ede3ca"/><rect y="2683" width="2400" height="2" fill="#ede3ca"/><rect y="2691" width="2400" height="2" fill="#ede3ca"/><rect y="2699" width="2400" height="2" fill="#ede3ca"/><rect y="2707" width="2400" height="2" fill="#ede3ca"/><rect y="2715" width="2400" height="2" fill="#ede3ca"/><rect y="2723" width="2400" height="2" fill="#ede3ca"/><rect y="2731" width="2400" height="2" fill="#ede3ca"/><rect y="2739" width="2400" height="2" fill="#ede3ca"/><rect y="2747" width="2400" height="2" fill="#ede3ca"/><rect y="2755" width="2400" height="2" fill="#ede3ca"/><rect y="2763" width="2400" height="2" fill="#ede3ca"/><rect y="2771" width="2400" height="2" fill="#ede3ca"/><rect y="2779" width="2400" height="2" fill="#ede3ca"/><rect y="2787" width="2400" height="2" fill="#ede3ca"/><rect y="2795" width="2400" height="2" fill="#ede3ca"/><rect y="2803" width="2400" height="2" fill="#ede3ca"/><rect y="2811" width="2400" height="2" fill="#ede3ca"/><rect y="2819" width="2400" height="2" fill="#ede3ca"/><rect y="2827" width="2400" height="2" fill="#ede3ca"/><rect y="2835" width="2400" height="2" fill="#ede3ca"/><rect y="2843" width="2400" height="2" fill="#ede3ca"/><rect y="2851" width="2400" height="2" fill="#ede3ca"/><rect y="2859" width="2400" height="2" fill="#ede3ca"/><rect y="2867" width="2400" height="2" fill="#ede3ca"/><rect y="2875" width="2400" height="2" fill="#ede3ca"/><rect y="2883" width="2400" height="2" fill="#ede3ca"/><rect y="2891" width="2400" height="2" fill="#ede3ca"/><rect y="2899" width="2400" height="2" fill="#ede3ca"/><rect y="2907" width="2400" height="2" fill="#ede3ca"/><rect y="2915" width="2400" height="2" fill="#ede3ca"/><rect y="2923" width="2400" height="2" fill="#ede3ca"/><rect y="2931" width="2400" height="2" fill="#ede3ca"/><rect y="2939" width="2400" height="2" fill="#ede3ca"/><rect y="2947" width="2400" height="2" fill="#ede3ca"/><rect y="2955" width="2400" height="2" fill="#ede3ca"/><rect y="2963" width="2400" height="2" fill="#ede3ca"/><rect y="2971" width="2400" height="2" fill="#ede3ca"/><rect y="2979" width="2400" height="2" fill="#ede3ca"/><rect y="2987" width="2400" height="2" fill="#ede3ca"/><rect y="2995" width="2400" height="2" fill="#ede3ca"/></g><rect x="88" y="88" width="2224" height="2824" fill="none" stroke="#3a2c1a" stroke-width="4" opacity="0.2"/><rect x="94" y="94" width="2212" height="2812" fill="none" stroke="#fff6e0" stroke-width="2" opacity="0.25"/><circle cx="1959.6" cy="2085" r="15.6" fill="#8a5a2e" opacity="0.110"/><circle cx="2244.8" cy="488.2" r="3.4" fill="#8a5a2e" opacity="0.069"/><circle cx="1730.7" cy="1355.6" r="3.7" fill="#8a5a2e" opacity="0.121"/><circle cx="830.3" cy="1710.9" r="4.9" fill="#8a5a2e" opacity="0.062"/><circle cx="1891" cy="1244.3" r="4.2" fill="#8a5a2e" opacity="0.111"/><circle cx="88.3" cy="1629" r="11.3" fill="#8a5a2e" opacity="0.069"/><circle cx="1634" cy="1800.6" r="15.9" fill="#8a5a2e" opacity="0.094"/><circle cx="2164.4" cy="124.5" r="12.6" fill="#8a5a2e" opacity="0.104"/><circle cx="547.8" cy="2730" r="12.9" fill="#8a5a2e" opacity="0.089"/><circle cx="1394.3" cy="1947.6" r="15.3" fill="#8a5a2e" opacity="0.059"/><circle cx="2035.2" cy="1203.5" r="8.3" fill="#8a5a2e" opacity="0.050"/><circle cx="2014.5" cy="573.5" r="9.5" fill="#8a5a2e" opacity="0.106"/><circle cx="1989.4" cy="742.8" r="5.2" fill="#8a5a2e" opacity="0.079"/><circle cx="647.6" cy="995.2" r="5.1" fill="#8a5a2e" opacity="0.081"/><circle cx="1435.1" cy="1907.8" r="13.4" fill="#8a5a2e" opacity="0.117"/><circle cx="2312.4" cy="746.3" r="5.4" fill="#8a5a2e" opacity="0.053"/><circle cx="2051.7" cy="581.9" r="5" fill="#8a5a2e" opacity="0.070"/><circle cx="489.3" cy="1318.3" r="3.9" fill="#8a5a2e" opacity="0.043"/><circle cx="2181.2" cy="661.4" r="14.9" fill="#8a5a2e" opacity="0.080"/><circle cx="1933" cy="1005.4" r="8.6" fill="#8a5a2e" opacity="0.119"/><rect width="2400" height="3000" fill="url(#a50-vig)"/></svg></svg>