<svg xmlns="http://www.w3.org/2000/svg" width="2400" height="1800" viewBox="0 0 2400 1800"><rect width="2400" height="1800" fill="#e8e2d6"/><rect y="1420" width="2400" height="380" fill="#cbb597"/><ellipse cx="1200" cy="1640" rx="760" ry="130" fill="#b09a75" opacity="0.55"/><ellipse cx="1200" cy="1640" rx="600" ry="96" fill="none" stroke="#96603a" stroke-width="10" opacity="0.5"/><rect x="700" y="1120" width="1000" height="300" rx="40" fill="#97a08c"/><rect x="640" y="1060" width="120" height="380" rx="40" fill="#87907c"/><rect x="1640" y="1060" width="120" height="380" rx="40" fill="#87907c"/><rect x="740" y="1010" width="920" height="180" rx="36" fill="#a3ac97"/><rect x="800" y="1060" width="240" height="160" rx="30" fill="#96603a"/><rect x="1380" y="1060" width="240" height="160" rx="30" fill="#b09a75"/><rect x="700" y="1420" width="26" height="120" fill="#6f6353"/><rect x="1674" y="1420" width="26" height="120" fill="#6f6353"/><path d="M360,1520 Q330,820 800,880" fill="none" stroke="#4c4438" stroke-width="16"/><path d="M760,870 L840,880 L810,960 L770,955 Z" fill="#4c4438"/><rect x="300" y="1510" width="130" height="20" rx="10" fill="#4c4438"/><path d="M2080,1500 Q 1918,1243.5 1837,1311" fill="none" stroke="#5d7052" stroke-width="21.6" stroke-linecap="round"/><path d="M2080,1500 Q 1972,1243.5 1918,1257" fill="none" stroke="#5d7052" stroke-width="21.6" stroke-linecap="round"/><path d="M2080,1500 Q 2026,1243.5 1999,1203" fill="none" stroke="#5d7052" stroke-width="21.6" stroke-linecap="round"/><path d="M2080,1500 Q 2080,1243.5 2080,1149" fill="none" stroke="#5d7052" stroke-width="21.6" stroke-linecap="round"/><path d="M2080,1500 Q 2134,1243.5 2161,1203" fill="none" stroke="#5d7052" stroke-width="21.6" stroke-linecap="round"/><path d="M2080,1500 Q 2188,1243.5 2242,1257" fill="none" stroke="#5d7052" stroke-width="21.6" stroke-linecap="round"/><path d="M2080,1500 Q 2242,1243.5 2323,1311" fill="none" stroke="#5d7052" stroke-width="21.6" stroke-linecap="round"/><path d="M1985.5,1500 L2174.5,1500 L2150.2,1648.5 L2009.8,1648.5 Z" fill="#a9714d"/><defs><filter id="a96l-sh" x="-30%" y="-30%" width="160%" height="160%"><feGaussianBlur stdDeviation="16"/></filter></defs><rect x="939" y="217" width="550" height="675" fill="#000" opacity="0.28" filter="url(#a96l-sh)"/><rect x="925" y="195" width="550" height="675" fill="#2e2823"/><rect x="941.3" y="211.3" width="517.5" height="642.5" fill="none" stroke="#00000055" stroke-width="3"/><rect x="950" y="220" width="500" height="625" fill="#f6f2ea"/><svg x="987.5" y="257.5" width="425" height="550" viewBox="0 0 2400 3000" preserveAspectRatio="xMidYMid slice"><filter id="a96-warp" x="-4%" y="-4%" width="108%" height="108%"><feTurbulence type="fractalNoise" baseFrequency="0.0105" numOctaves="2" seed="850" result="w"/><feDisplacementMap in="SourceGraphic" in2="w" scale="7" xChannelSelector="R" yChannelSelector="G"/></filter><filter id="a96-grain" x="0%" y="0%" width="100%" height="100%"><feTurbulence type="fractalNoise" baseFrequency="0.6" numOctaves="2" seed="857"/><feColorMatrix type="matrix" values="0.33 0.33 0.33 0 0.62  0.33 0.33 0.33 0 0.62  0.33 0.33 0.33 0 0.62  0 0 0 0 1"/></filter><filter id="a96-mottle" x="0%" y="0%" width="100%" height="100%"><feTurbulence type="fractalNoise" baseFrequency="0.0045" numOctaves="3" seed="863"/><feColorMatrix type="matrix" values="0.2 0.2 0.2 0 0.78  0.2 0.2 0.2 0 0.78  0.2 0.2 0.2 0 0.78  0 0 0 0 1"/></filter><filter id="a96-fade" x="0%" y="0%" width="100%" height="100%"><feTurbulence type="fractalNoise" baseFrequency="0.006" numOctaves="2" seed="879"/><feColorMatrix type="matrix" values="0.3 0.3 0.3 0 -0.08  0.3 0.3 0.3 0 -0.08  0.3 0.3 0.3 0 -0.1  0 0 0 0 1"/></filter><filter id="a96-blur9"><feGaussianBlur stdDeviation="9"/></filter><radialGradient id="a96-vig" cx="50%" cy="44%" r="78%"><stop offset="52%" stop-color="#241a10" stop-opacity="0"/><stop offset="100%" stop-color="#241a10" stop-opacity="0.17"/></radialGradient><radialGradient id="a96-warm" cx="40%" cy="30%" r="85%"><stop offset="0%" stop-color="#e8c890" stop-opacity="0.14"/><stop offset="70%" stop-color="#e8c890" stop-opacity="0"/></radialGradient><rect width="2400" height="3000" fill="#e8dcc0"/><rect width="2400" height="3000" fill="url(#a96-warm)"/><g filter="url(#a96-warp)"><path d="M1177.1,1578 A130,130 0 1 1 1244.2,1572.3" fill="none" stroke="#3d2f1c" stroke-width="40.6" stroke-linecap="round"/><line x1="1157.4" y1="1572.8" x2="1125.7" y2="1664.1" stroke="#3d2f1c" stroke-width="40.6" stroke-linecap="round"/><path d="M1236.3,1226.3 A226.7,226.7 0 1 1 1119.5,1238.1" fill="none" stroke="#3d2f1c" stroke-width="40.6" stroke-linecap="round"/><line x1="1087.4" y1="1253.3" x2="1039.4" y2="1169.4" stroke="#3d2f1c" stroke-width="40.6" stroke-linecap="round"/><path d="M1060.4,1741.6 A323.3,323.3 0 1 1 1224.9,1772.4" fill="none" stroke="#3d2f1c" stroke-width="40.6" stroke-linecap="round"/><line x1="1016.5" y1="1716.2" x2="961.6" y2="1795.8" stroke="#3d2f1c" stroke-width="40.6" stroke-linecap="round"/><path d="M1229.3,1031 A420,420 0 1 1 1015.8,1072.5" fill="none" stroke="#3d2f1c" stroke-width="40.6" stroke-linecap="round"/><line x1="959.1" y1="1106" x2="903.6" y2="1026.8" stroke="#3d2f1c" stroke-width="40.6" stroke-linecap="round"/><path d="M1083.4,1953.3 A516.7,516.7 0 1 1 1350.7,1944.2" fill="none" stroke="#3d2f1c" stroke-width="40.6" stroke-linecap="round"/><line x1="1006.1" y1="1928.9" x2="969.8" y2="2018.5" stroke="#3d2f1c" stroke-width="40.6" stroke-linecap="round"/><path d="M1320,848.5 A613.3,613.3 0 1 1 1003.2,869.1" fill="none" stroke="#3d2f1c" stroke-width="40.6" stroke-linecap="round"/><line x1="914.8" y1="907" x2="869.8" y2="821.5" stroke="#3d2f1c" stroke-width="40.6" stroke-linecap="round"/><path d="M1122,2155.7 A710,710 0 1 1 1485.3,2100.2" fill="none" stroke="#3d2f1c" stroke-width="40.6" stroke-linecap="round"/><line x1="1012.5" y1="2134.8" x2="987" y2="2228" stroke="#3d2f1c" stroke-width="40.6" stroke-linecap="round"/><path d="M1316.2,651.8 A806.7,806.7 0 1 1 901.5,700.6" fill="none" stroke="#3d2f1c" stroke-width="40.6" stroke-linecap="round"/><line x1="788" y1="756.5" x2="738.6" y2="673.4" stroke="#3d2f1c" stroke-width="40.6" stroke-linecap="round"/><path d="M1002.5,2331.5 A903.3,903.3 0 1 1 1469.7,2312.1" fill="none" stroke="#3d2f1c" stroke-width="40.6" stroke-linecap="round"/><circle cx="1200" cy="1450" r="56" fill="#96603a"/><path d="M324.7,287.3 L 395.3,287.3 L 395.3,216.7 L 339.8,216.7 L 339.8,260.4 L 368.4,260.4 L 368.4,238.6 M408.7,287.3 L 479.3,287.3 L 479.3,216.7 L 423.8,216.7 L 423.8,260.4 L 452.4,260.4 L 452.4,238.6 M492.7,287.3 L 563.3,287.3 L 563.3,216.7 L 507.8,216.7 L 507.8,260.4 L 536.4,260.4 L 536.4,238.6 M576.7,287.3 L 647.3,287.3 L 647.3,216.7 L 591.8,216.7 L 591.8,260.4 L 620.4,260.4 L 620.4,238.6 M660.7,287.3 L 731.3,287.3 L 731.3,216.7 L 675.8,216.7 L 675.8,260.4 L 704.4,260.4 L 704.4,238.6 M744.7,287.3 L 815.3,287.3 L 815.3,216.7 L 759.8,216.7 L 759.8,260.4 L 788.4,260.4 L 788.4,238.6 M828.7,287.3 L 899.3,287.3 L 899.3,216.7 L 843.8,216.7 L 843.8,260.4 L 872.4,260.4 L 872.4,238.6 M912.7,287.3 L 983.3,287.3 L 983.3,216.7 L 927.8,216.7 L 927.8,260.4 L 956.4,260.4 L 956.4,238.6 M996.7,287.3 L 1067.3,287.3 L 1067.3,216.7 L 1011.8,216.7 L 1011.8,260.4 L 1040.4,260.4 L 1040.4,238.6 M1080.7,287.3 L 1151.3,287.3 L 1151.3,216.7 L 1095.8,216.7 L 1095.8,260.4 L 1124.4,260.4 L 1124.4,238.6 M1164.7,287.3 L 1235.3,287.3 L 1235.3,216.7 L 1179.8,216.7 L 1179.8,260.4 L 1208.4,260.4 L 1208.4,238.6 M1248.7,287.3 L 1319.3,287.3 L 1319.3,216.7 L 1263.8,216.7 L 1263.8,260.4 L 1292.4,260.4 L 1292.4,238.6 M1332.7,287.3 L 1403.3,287.3 L 1403.3,216.7 L 1347.8,216.7 L 1347.8,260.4 L 1376.4,260.4 L 1376.4,238.6 M1416.7,287.3 L 1487.3,287.3 L 1487.3,216.7 L 1431.8,216.7 L 1431.8,260.4 L 1460.4,260.4 L 1460.4,238.6 M1500.7,287.3 L 1571.3,287.3 L 1571.3,216.7 L 1515.8,216.7 L 1515.8,260.4 L 1544.4,260.4 L 1544.4,238.6 M1584.7,287.3 L 1655.3,287.3 L 1655.3,216.7 L 1599.8,216.7 L 1599.8,260.4 L 1628.4,260.4 L 1628.4,238.6 M1668.7,287.3 L 1739.3,287.3 L 1739.3,216.7 L 1683.8,216.7 L 1683.8,260.4 L 1712.4,260.4 L 1712.4,238.6 M1752.7,287.3 L 1823.3,287.3 L 1823.3,216.7 L 1767.8,216.7 L 1767.8,260.4 L 1796.4,260.4 L 1796.4,238.6 M1836.7,287.3 L 1907.3,287.3 L 1907.3,216.7 L 1851.8,216.7 L 1851.8,260.4 L 1880.4,260.4 L 1880.4,238.6 M1920.7,287.3 L 1991.3,287.3 L 1991.3,216.7 L 1935.8,216.7 L 1935.8,260.4 L 1964.4,260.4 L 1964.4,238.6 M2004.7,287.3 L 2075.3,287.3 L 2075.3,216.7 L 2019.8,216.7 L 2019.8,260.4 L 2048.4,260.4 L 2048.4,238.6 " fill="none" stroke="#3d2f1c" stroke-width="10.9"/><path d="M324.7,2777.3 L 395.3,2777.3 L 395.3,2706.7 L 339.8,2706.7 L 339.8,2750.4 L 368.4,2750.4 L 368.4,2728.6 M408.7,2777.3 L 479.3,2777.3 L 479.3,2706.7 L 423.8,2706.7 L 423.8,2750.4 L 452.4,2750.4 L 452.4,2728.6 M492.7,2777.3 L 563.3,2777.3 L 563.3,2706.7 L 507.8,2706.7 L 507.8,2750.4 L 536.4,2750.4 L 536.4,2728.6 M576.7,2777.3 L 647.3,2777.3 L 647.3,2706.7 L 591.8,2706.7 L 591.8,2750.4 L 620.4,2750.4 L 620.4,2728.6 M660.7,2777.3 L 731.3,2777.3 L 731.3,2706.7 L 675.8,2706.7 L 675.8,2750.4 L 704.4,2750.4 L 704.4,2728.6 M744.7,2777.3 L 815.3,2777.3 L 815.3,2706.7 L 759.8,2706.7 L 759.8,2750.4 L 788.4,2750.4 L 788.4,2728.6 M828.7,2777.3 L 899.3,2777.3 L 899.3,2706.7 L 843.8,2706.7 L 843.8,2750.4 L 872.4,2750.4 L 872.4,2728.6 M912.7,2777.3 L 983.3,2777.3 L 983.3,2706.7 L 927.8,2706.7 L 927.8,2750.4 L 956.4,2750.4 L 956.4,2728.6 M996.7,2777.3 L 1067.3,2777.3 L 1067.3,2706.7 L 1011.8,2706.7 L 1011.8,2750.4 L 1040.4,2750.4 L 1040.4,2728.6 M1080.7,2777.3 L 1151.3,2777.3 L 1151.3,2706.7 L 1095.8,2706.7 L 1095.8,2750.4 L 1124.4,2750.4 L 1124.4,2728.6 M1164.7,2777.3 L 1235.3,2777.3 L 1235.3,2706.7 L 1179.8,2706.7 L 1179.8,2750.4 L 1208.4,2750.4 L 1208.4,2728.6 M1248.7,2777.3 L 1319.3,2777.3 L 1319.3,2706.7 L 1263.8,2706.7 L 1263.8,2750.4 L 1292.4,2750.4 L 1292.4,2728.6 M1332.7,2777.3 L 1403.3,2777.3 L 1403.3,2706.7 L 1347.8,2706.7 L 1347.8,2750.4 L 1376.4,2750.4 L 1376.4,2728.6 M1416.7,2777.3 L 1487.3,2777.3 L 1487.3,2706.7 L 1431.8,2706.7 L 1431.8,2750.4 L 1460.4,2750.4 L 1460.4,2728.6 M1500.7,2777.3 L 1571.3,2777.3 L 1571.3,2706.7 L 1515.8,2706.7 L 1515.8,2750.4 L 1544.4,2750.4 L 1544.4,2728.6 M1584.7,2777.3 L 1655.3,2777.3 L 1655.3,2706.7 L 1599.8,2706.7 L 1599.8,2750.4 L 1628.4,2750.4 L 1628.4,2728.6 M1668.7,2777.3 L 1739.3,2777.3 L 1739.3,2706.7 L 1683.8,2706.7 L 1683.8,2750.4 L 1712.4,2750.4 L 1712.4,2728.6 M1752.7,2777.3 L 1823.3,2777.3 L 1823.3,2706.7 L 1767.8,2706.7 L 1767.8,2750.4 L 1796.4,2750.4 L 1796.4,2728.6 M1836.7,2777.3 L 1907.3,2777.3 L 1907.3,2706.7 L 1851.8,2706.7 L 1851.8,2750.4 L 1880.4,2750.4 L 1880.4,2728.6 M1920.7,2777.3 L 1991.3,2777.3 L 1991.3,2706.7 L 1935.8,2706.7 L 1935.8,2750.4 L 1964.4,2750.4 L 1964.4,2728.6 M2004.7,2777.3 L 2075.3,2777.3 L 2075.3,2706.7 L 2019.8,2706.7 L 2019.8,2750.4 L 2048.4,2750.4 L 2048.4,2728.6 " fill="none" stroke="#3d2f1c" stroke-width="10.9"/><rect x="130" y="130" width="2140" height="2740" fill="none" stroke="#3d2f1c" stroke-width="5"/><rect x="152" y="152" width="2096" height="2696" fill="none" stroke="#3d2f1c" stroke-width="2.5" opacity="0.8"/></g><rect width="2400" height="3000" filter="url(#a96-mottle)" style="mix-blend-mode:multiply" opacity="0.5"/><rect width="2400" height="3000" filter="url(#a96-fade)" style="mix-blend-mode:screen" opacity="0.55"/><rect width="2400" height="3000" filter="url(#a96-grain)" style="mix-blend-mode:multiply" opacity="0.32"/><ellipse cx="1831" cy="2261.2" rx="127.4" ry="122.1" fill="#6b4a22" opacity="0.042" filter="url(#a96-blur9)"/><ellipse cx="1843.5" cy="1303.9" rx="101.5" ry="75.2" fill="#6b4a22" opacity="0.031" filter="url(#a96-blur9)"/><ellipse cx="621.9" cy="1269.8" rx="186.9" ry="156.6" fill="#6b4a22" opacity="0.055" filter="url(#a96-blur9)"/><ellipse cx="1218.1" cy="2769.6" rx="280.2" ry="210.5" fill="#6b4a22" opacity="0.067" filter="url(#a96-blur9)"/><ellipse cx="1644.4" cy="1549" rx="143.7" ry="98.1" fill="#6b4a22" opacity="0.048" filter="url(#a96-blur9)"/><ellipse cx="1842.9" cy="420.1" rx="121" ry="88.4" fill="#6b4a22" opacity="0.045" filter="url(#a96-blur9)"/><g opacity="0.3"><rect y="3" width="2400" height="2" fill="#e8dcc0"/><rect y="11" width="2400" height="2" fill="#e8dcc0"/><rect y="19" width="2400" height="2" fill="#e8dcc0"/><rect y="27" width="2400" height="2" fill="#e8dcc0"/><rect y="35" width="2400" height="2" fill="#e8dcc0"/><rect y="43" width="2400" height="2" fill="#e8dcc0"/><rect y="51" width="2400" height="2" fill="#e8dcc0"/><rect y="59" width="2400" height="2" fill="#e8dcc0"/><rect y="67" width="2400" height="2" fill="#e8dcc0"/><rect y="75" width="2400" height="2" fill="#e8dcc0"/><rect y="83" width="2400" height="2" fill="#e8dcc0"/><rect y="91" width="2400" height="2" fill="#e8dcc0"/><rect y="99" width="2400" height="2" fill="#e8dcc0"/><rect y="107" width="2400" height="2" fill="#e8dcc0"/><rect y="115" width="2400" height="2" fill="#e8dcc0"/><rect y="123" width="2400" height="2" fill="#e8dcc0"/><rect y="131" width="2400" height="2" fill="#e8dcc0"/><rect y="139" width="2400" height="2" fill="#e8dcc0"/><rect y="147" width="2400" height="2" fill="#e8dcc0"/><rect y="155" width="2400" height="2" fill="#e8dcc0"/><rect y="163" width="2400" height="2" fill="#e8dcc0"/><rect y="171" width="2400" height="2" fill="#e8dcc0"/><rect y="179" width="2400" height="2" fill="#e8dcc0"/><rect y="187" width="2400" height="2" fill="#e8dcc0"/><rect y="195" width="2400" height="2" fill="#e8dcc0"/><rect y="203" width="2400" height="2" fill="#e8dcc0"/><rect y="211" width="2400" height="2" fill="#e8dcc0"/><rect y="219" width="2400" height="2" fill="#e8dcc0"/><rect y="227" width="2400" height="2" fill="#e8dcc0"/><rect y="235" width="2400" height="2" fill="#e8dcc0"/><rect y="243" width="2400" height="2" fill="#e8dcc0"/><rect y="251" width="2400" height="2" fill="#e8dcc0"/><rect y="259" width="2400" height="2" fill="#e8dcc0"/><rect y="267" width="2400" height="2" fill="#e8dcc0"/><rect y="275" width="2400" height="2" fill="#e8dcc0"/><rect y="283" width="2400" height="2" fill="#e8dcc0"/><rect y="291" width="2400" height="2" fill="#e8dcc0"/><rect y="299" width="2400" height="2" fill="#e8dcc0"/><rect y="307" width="2400" height="2" fill="#e8dcc0"/><rect y="315" width="2400" height="2" fill="#e8dcc0"/><rect y="323" width="2400" height="2" fill="#e8dcc0"/><rect y="331" width="2400" height="2" fill="#e8dcc0"/><rect y="339" width="2400" height="2" fill="#e8dcc0"/><rect y="347" width="2400" height="2" fill="#e8dcc0"/><rect y="355" width="2400" height="2" fill="#e8dcc0"/><rect y="363" width="2400" height="2" fill="#e8dcc0"/><rect y="371" width="2400" height="2" fill="#e8dcc0"/><rect y="379" width="2400" height="2" fill="#e8dcc0"/><rect y="387" width="2400" height="2" fill="#e8dcc0"/><rect y="395" width="2400" height="2" fill="#e8dcc0"/><rect y="403" width="2400" height="2" fill="#e8dcc0"/><rect y="411" width="2400" height="2" fill="#e8dcc0"/><rect y="419" width="2400" height="2" fill="#e8dcc0"/><rect y="427" width="2400" height="2" fill="#e8dcc0"/><rect y="435" width="2400" height="2" fill="#e8dcc0"/><rect y="443" width="2400" height="2" fill="#e8dcc0"/><rect y="451" width="2400" height="2" fill="#e8dcc0"/><rect y="459" width="2400" height="2" fill="#e8dcc0"/><rect y="467" width="2400" height="2" fill="#e8dcc0"/><rect y="475" width="2400" height="2" fill="#e8dcc0"/><rect y="483" width="2400" height="2" fill="#e8dcc0"/><rect y="491" width="2400" height="2" fill="#e8dcc0"/><rect y="499" width="2400" height="2" fill="#e8dcc0"/><rect y="507" width="2400" height="2" fill="#e8dcc0"/><rect y="515" width="2400" height="2" fill="#e8dcc0"/><rect y="523" width="2400" height="2" fill="#e8dcc0"/><rect y="531" width="2400" height="2" fill="#e8dcc0"/><rect y="539" width="2400" height="2" fill="#e8dcc0"/><rect y="547" width="2400" height="2" fill="#e8dcc0"/><rect y="555" width="2400" height="2" fill="#e8dcc0"/><rect y="563" width="2400" height="2" fill="#e8dcc0"/><rect y="571" width="2400" height="2" fill="#e8dcc0"/><rect y="579" width="2400" height="2" fill="#e8dcc0"/><rect y="587" width="2400" height="2" fill="#e8dcc0"/><rect y="595" width="2400" height="2" fill="#e8dcc0"/><rect y="603" width="2400" height="2" fill="#e8dcc0"/><rect y="611" width="2400" height="2" fill="#e8dcc0"/><rect y="619" width="2400" height="2" fill="#e8dcc0"/><rect y="627" width="2400" height="2" fill="#e8dcc0"/><rect y="635" width="2400" height="2" fill="#e8dcc0"/><rect y="643" width="2400" height="2" fill="#e8dcc0"/><rect y="651" width="2400" height="2" fill="#e8dcc0"/><rect y="659" width="2400" height="2" fill="#e8dcc0"/><rect y="667" width="2400" height="2" fill="#e8dcc0"/><rect y="675" width="2400" height="2" fill="#e8dcc0"/><rect y="683" width="2400" height="2" fill="#e8dcc0"/><rect y="691" width="2400" height="2" fill="#e8dcc0"/><rect y="699" width="2400" height="2" fill="#e8dcc0"/><rect y="707" width="2400" height="2" fill="#e8dcc0"/><rect y="715" width="2400" height="2" fill="#e8dcc0"/><rect y="723" width="2400" height="2" fill="#e8dcc0"/><rect y="731" width="2400" height="2" fill="#e8dcc0"/><rect y="739" width="2400" height="2" fill="#e8dcc0"/><rect y="747" width="2400" height="2" fill="#e8dcc0"/><rect y="755" width="2400" height="2" fill="#e8dcc0"/><rect y="763" width="2400" height="2" fill="#e8dcc0"/><rect y="771" width="2400" height="2" fill="#e8dcc0"/><rect y="779" width="2400" height="2" fill="#e8dcc0"/><rect y="787" width="2400" height="2" fill="#e8dcc0"/><rect y="795" width="2400" height="2" fill="#e8dcc0"/><rect y="803" width="2400" height="2" fill="#e8dcc0"/><rect y="811" width="2400" height="2" fill="#e8dcc0"/><rect y="819" width="2400" height="2" fill="#e8dcc0"/><rect y="827" width="2400" height="2" fill="#e8dcc0"/><rect y="835" width="2400" height="2" fill="#e8dcc0"/><rect y="843" width="2400" height="2" fill="#e8dcc0"/><rect y="851" width="2400" height="2" fill="#e8dcc0"/><rect y="859" width="2400" height="2" fill="#e8dcc0"/><rect y="867" width="2400" height="2" fill="#e8dcc0"/><rect y="875" width="2400" height="2" fill="#e8dcc0"/><rect y="883" width="2400" height="2" fill="#e8dcc0"/><rect y="891" width="2400" height="2" fill="#e8dcc0"/><rect y="899" width="2400" height="2" fill="#e8dcc0"/><rect y="907" width="2400" height="2" fill="#e8dcc0"/><rect y="915" width="2400" height="2" fill="#e8dcc0"/><rect y="923" width="2400" height="2" fill="#e8dcc0"/><rect y="931" width="2400" height="2" fill="#e8dcc0"/><rect y="939" width="2400" height="2" fill="#e8dcc0"/><rect y="947" width="2400" height="2" fill="#e8dcc0"/><rect y="955" width="2400" height="2" fill="#e8dcc0"/><rect y="963" width="2400" height="2" fill="#e8dcc0"/><rect y="971" width="2400" height="2" fill="#e8dcc0"/><rect y="979" width="2400" height="2" fill="#e8dcc0"/><rect y="987" width="2400" height="2" fill="#e8dcc0"/><rect y="995" width="2400" height="2" fill="#e8dcc0"/><rect y="1003" width="2400" height="2" fill="#e8dcc0"/><rect y="1011" width="2400" height="2" fill="#e8dcc0"/><rect y="1019" width="2400" height="2" fill="#e8dcc0"/><rect y="1027" width="2400" height="2" fill="#e8dcc0"/><rect y="1035" width="2400" height="2" fill="#e8dcc0"/><rect y="1043" width="2400" height="2" fill="#e8dcc0"/><rect y="1051" width="2400" height="2" fill="#e8dcc0"/><rect y="1059" width="2400" height="2" fill="#e8dcc0"/><rect y="1067" width="2400" height="2" fill="#e8dcc0"/><rect y="1075" width="2400" height="2" fill="#e8dcc0"/><rect y="1083" width="2400" height="2" fill="#e8dcc0"/><rect y="1091" width="2400" height="2" fill="#e8dcc0"/><rect y="1099" width="2400" height="2" fill="#e8dcc0"/><rect y="1107" width="2400" height="2" fill="#e8dcc0"/><rect y="1115" width="2400" height="2" fill="#e8dcc0"/><rect y="1123" width="2400" height="2" fill="#e8dcc0"/><rect y="1131" width="2400" height="2" fill="#e8dcc0"/><rect y="1139" width="2400" height="2" fill="#e8dcc0"/><rect y="1147" width="2400" height="2" fill="#e8dcc0"/><rect y="1155" width="2400" height="2" fill="#e8dcc0"/><rect y="1163" width="2400" height="2" fill="#e8dcc0"/><rect y="1171" width="2400" height="2" fill="#e8dcc0"/><rect y="1179" width="2400" height="2" fill="#e8dcc0"/><rect y="1187" width="2400" height="2" fill="#e8dcc0"/><rect y="1195" width="2400" height="2" fill="#e8dcc0"/><rect y="1203" width="2400" height="2" fill="#e8dcc0"/><rect y="1211" width="2400" height="2" fill="#e8dcc0"/><rect y="1219" width="2400" height="2" fill="#e8dcc0"/><rect y="1227" width="2400" height="2" fill="#e8dcc0"/><rect y="1235" width="2400" height="2" fill="#e8dcc0"/><rect y="1243" width="2400" height="2" fill="#e8dcc0"/><rect y="1251" width="2400" height="2" fill="#e8dcc0"/><rect y="1259" width="2400" height="2" fill="#e8dcc0"/><rect y="1267" width="2400" height="2" fill="#e8dcc0"/><rect y="1275" width="2400" height="2" fill="#e8dcc0"/><rect y="1283" width="2400" height="2" fill="#e8dcc0"/><rect y="1291" width="2400" height="2" fill="#e8dcc0"/><rect y="1299" width="2400" height="2" fill="#e8dcc0"/><rect y="1307" width="2400" height="2" fill="#e8dcc0"/><rect y="1315" width="2400" height="2" fill="#e8dcc0"/><rect y="1323" width="2400" height="2" fill="#e8dcc0"/><rect y="1331" width="2400" height="2" fill="#e8dcc0"/><rect y="1339" width="2400" height="2" fill="#e8dcc0"/><rect y="1347" width="2400" height="2" fill="#e8dcc0"/><rect y="1355" width="2400" height="2" fill="#e8dcc0"/><rect y="1363" width="2400" height="2" fill="#e8dcc0"/><rect y="1371" width="2400" height="2" fill="#e8dcc0"/><rect y="1379" width="2400" height="2" fill="#e8dcc0"/><rect y="1387" width="2400" height="2" fill="#e8dcc0"/><rect y="1395" width="2400" height="2" fill="#e8dcc0"/><rect y="1403" width="2400" height="2" fill="#e8dcc0"/><rect y="1411" width="2400" height="2" fill="#e8dcc0"/><rect y="1419" width="2400" height="2" fill="#e8dcc0"/><rect y="1427" width="2400" height="2" fill="#e8dcc0"/><rect y="1435" width="2400" height="2" fill="#e8dcc0"/><rect y="1443" width="2400" height="2" fill="#e8dcc0"/><rect y="1451" width="2400" height="2" fill="#e8dcc0"/><rect y="1459" width="2400" height="2" fill="#e8dcc0"/><rect y="1467" width="2400" height="2" fill="#e8dcc0"/><rect y="1475" width="2400" height="2" fill="#e8dcc0"/><rect y="1483" width="2400" height="2" fill="#e8dcc0"/><rect y="1491" width="2400" height="2" fill="#e8dcc0"/><rect y="1499" width="2400" height="2" fill="#e8dcc0"/><rect y="1507" width="2400" height="2" fill="#e8dcc0"/><rect y="1515" width="2400" height="2" fill="#e8dcc0"/><rect y="1523" width="2400" height="2" fill="#e8dcc0"/><rect y="1531" width="2400" height="2" fill="#e8dcc0"/><rect y="1539" width="2400" height="2" fill="#e8dcc0"/><rect y="1547" width="2400" height="2" fill="#e8dcc0"/><rect y="1555" width="2400" height="2" fill="#e8dcc0"/><rect y="1563" width="2400" height="2" fill="#e8dcc0"/><rect y="1571" width="2400" height="2" fill="#e8dcc0"/><rect y="1579" width="2400" height="2" fill="#e8dcc0"/><rect y="1587" width="2400" height="2" fill="#e8dcc0"/><rect y="1595" width="2400" height="2" fill="#e8dcc0"/><rect y="1603" width="2400" height="2" fill="#e8dcc0"/><rect y="1611" width="2400" height="2" fill="#e8dcc0"/><rect y="1619" width="2400" height="2" fill="#e8dcc0"/><rect y="1627" width="2400" height="2" fill="#e8dcc0"/><rect y="1635" width="2400" height="2" fill="#e8dcc0"/><rect y="1643" width="2400" height="2" fill="#e8dcc0"/><rect y="1651" width="2400" height="2" fill="#e8dcc0"/><rect y="1659" width="2400" height="2" fill="#e8dcc0"/><rect y="1667" width="2400" height="2" fill="#e8dcc0"/><rect y="1675" width="2400" height="2" fill="#e8dcc0"/><rect y="1683" width="2400" height="2" fill="#e8dcc0"/><rect y="1691" width="2400" height="2" fill="#e8dcc0"/><rect y="1699" width="2400" height="2" fill="#e8dcc0"/><rect y="1707" width="2400" height="2" fill="#e8dcc0"/><rect y="1715" width="2400" height="2" fill="#e8dcc0"/><rect y="1723" width="2400" height="2" fill="#e8dcc0"/><rect y="1731" width="2400" height="2" fill="#e8dcc0"/><rect y="1739" width="2400" height="2" fill="#e8dcc0"/><rect y="1747" width="2400" height="2" fill="#e8dcc0"/><rect y="1755" width="2400" height="2" fill="#e8dcc0"/><rect y="1763" width="2400" height="2" fill="#e8dcc0"/><rect y="1771" width="2400" height="2" fill="#e8dcc0"/><rect y="1779" width="2400" height="2" fill="#e8dcc0"/><rect y="1787" width="2400" height="2" fill="#e8dcc0"/><rect y="1795" width="2400" height="2" fill="#e8dcc0"/><rect y="1803" width="2400" height="2" fill="#e8dcc0"/><rect y="1811" width="2400" height="2" fill="#e8dcc0"/><rect y="1819" width="2400" height="2" fill="#e8dcc0"/><rect y="1827" width="2400" height="2" fill="#e8dcc0"/><rect y="1835" width="2400" height="2" fill="#e8dcc0"/><rect y="1843" width="2400" height="2" fill="#e8dcc0"/><rect y="1851" width="2400" height="2" fill="#e8dcc0"/><rect y="1859" width="2400" height="2" fill="#e8dcc0"/><rect y="1867" width="2400" height="2" fill="#e8dcc0"/><rect y="1875" width="2400" height="2" fill="#e8dcc0"/><rect y="1883" width="2400" height="2" fill="#e8dcc0"/><rect y="1891" width="2400" height="2" fill="#e8dcc0"/><rect y="1899" width="2400" height="2" fill="#e8dcc0"/><rect y="1907" width="2400" height="2" fill="#e8dcc0"/><rect y="1915" width="2400" height="2" fill="#e8dcc0"/><rect y="1923" width="2400" height="2" fill="#e8dcc0"/><rect y="1931" width="2400" height="2" fill="#e8dcc0"/><rect y="1939" width="2400" height="2" fill="#e8dcc0"/><rect y="1947" width="2400" height="2" fill="#e8dcc0"/><rect y="1955" width="2400" height="2" fill="#e8dcc0"/><rect y="1963" width="2400" height="2" fill="#e8dcc0"/><rect y="1971" width="2400" height="2" fill="#e8dcc0"/><rect y="1979" width="2400" height="2" fill="#e8dcc0"/><rect y="1987" width="2400" height="2" fill="#e8dcc0"/><rect y="1995" width="2400" height="2" fill="#e8dcc0"/><rect y="2003" width="2400" height="2" fill="#e8dcc0"/><rect y="2011" width="2400" height="2" fill="#e8dcc0"/><rect y="2019" width="2400" height="2" fill="#e8dcc0"/><rect y="2027" width="2400" height="2" fill="#e8dcc0"/><rect y="2035" width="2400" height="2" fill="#e8dcc0"/><rect y="2043" width="2400" height="2" fill="#e8dcc0"/><rect y="2051" width="2400" height="2" fill="#e8dcc0"/><rect y="2059" width="2400" height="2" fill="#e8dcc0"/><rect y="2067" width="2400" height="2" fill="#e8dcc0"/><rect y="2075" width="2400" height="2" fill="#e8dcc0"/><rect y="2083" width="2400" height="2" fill="#e8dcc0"/><rect y="2091" width="2400" height="2" fill="#e8dcc0"/><rect y="2099" width="2400" height="2" fill="#e8dcc0"/><rect y="2107" width="2400" height="2" fill="#e8dcc0"/><rect y="2115" width="2400" height="2" fill="#e8dcc0"/><rect y="2123" width="2400" height="2" fill="#e8dcc0"/><rect y="2131" width="2400" height="2" fill="#e8dcc0"/><rect y="2139" width="2400" height="2" fill="#e8dcc0"/><rect y="2147" width="2400" height="2" fill="#e8dcc0"/><rect y="2155" width="2400" height="2" fill="#e8dcc0"/><rect y="2163" width="2400" height="2" fill="#e8dcc0"/><rect y="2171" width="2400" height="2" fill="#e8dcc0"/><rect y="2179" width="2400" height="2" fill="#e8dcc0"/><rect y="2187" width="2400" height="2" fill="#e8dcc0"/><rect y="2195" width="2400" height="2" fill="#e8dcc0"/><rect y="2203" width="2400" height="2" fill="#e8dcc0"/><rect y="2211" width="2400" height="2" fill="#e8dcc0"/><rect y="2219" width="2400" height="2" fill="#e8dcc0"/><rect y="2227" width="2400" height="2" fill="#e8dcc0"/><rect y="2235" width="2400" height="2" fill="#e8dcc0"/><rect y="2243" width="2400" height="2" fill="#e8dcc0"/><rect y="2251" width="2400" height="2" fill="#e8dcc0"/><rect y="2259" width="2400" height="2" fill="#e8dcc0"/><rect y="2267" width="2400" height="2" fill="#e8dcc0"/><rect y="2275" width="2400" height="2" fill="#e8dcc0"/><rect y="2283" width="2400" height="2" fill="#e8dcc0"/><rect y="2291" width="2400" height="2" fill="#e8dcc0"/><rect y="2299" width="2400" height="2" fill="#e8dcc0"/><rect y="2307" width="2400" height="2" fill="#e8dcc0"/><rect y="2315" width="2400" height="2" fill="#e8dcc0"/><rect y="2323" width="2400" height="2" fill="#e8dcc0"/><rect y="2331" width="2400" height="2" fill="#e8dcc0"/><rect y="2339" width="2400" height="2" fill="#e8dcc0"/><rect y="2347" width="2400" height="2" fill="#e8dcc0"/><rect y="2355" width="2400" height="2" fill="#e8dcc0"/><rect y="2363" width="2400" height="2" fill="#e8dcc0"/><rect y="2371" width="2400" height="2" fill="#e8dcc0"/><rect y="2379" width="2400" height="2" fill="#e8dcc0"/><rect y="2387" width="2400" height="2" fill="#e8dcc0"/><rect y="2395" width="2400" height="2" fill="#e8dcc0"/><rect y="2403" width="2400" height="2" fill="#e8dcc0"/><rect y="2411" width="2400" height="2" fill="#e8dcc0"/><rect y="2419" width="2400" height="2" fill="#e8dcc0"/><rect y="2427" width="2400" height="2" fill="#e8dcc0"/><rect y="2435" width="2400" height="2" fill="#e8dcc0"/><rect y="2443" width="2400" height="2" fill="#e8dcc0"/><rect y="2451" width="2400" height="2" fill="#e8dcc0"/><rect y="2459" width="2400" height="2" fill="#e8dcc0"/><rect y="2467" width="2400" height="2" fill="#e8dcc0"/><rect y="2475" width="2400" height="2" fill="#e8dcc0"/><rect y="2483" width="2400" height="2" fill="#e8dcc0"/><rect y="2491" width="2400" height="2" fill="#e8dcc0"/><rect y="2499" width="2400" height="2" fill="#e8dcc0"/><rect y="2507" width="2400" height="2" fill="#e8dcc0"/><rect y="2515" width="2400" height="2" fill="#e8dcc0"/><rect y="2523" width="2400" height="2" fill="#e8dcc0"/><rect y="2531" width="2400" height="2" fill="#e8dcc0"/><rect y="2539" width="2400" height="2" fill="#e8dcc0"/><rect y="2547" width="2400" height="2" fill="#e8dcc0"/><rect y="2555" width="2400" height="2" fill="#e8dcc0"/><rect y="2563" width="2400" height="2" fill="#e8dcc0"/><rect y="2571" width="2400" height="2" fill="#e8dcc0"/><rect y="2579" width="2400" height="2" fill="#e8dcc0"/><rect y="2587" width="2400" height="2" fill="#e8dcc0"/><rect y="2595" width="2400" height="2" fill="#e8dcc0"/><rect y="2603" width="2400" height="2" fill="#e8dcc0"/><rect y="2611" width="2400" height="2" fill="#e8dcc0"/><rect y="2619" width="2400" height="2" fill="#e8dcc0"/><rect y="2627" width="2400" height="2" fill="#e8dcc0"/><rect y="2635" width="2400" height="2" fill="#e8dcc0"/><rect y="2643" width="2400" height="2" fill="#e8dcc0"/><rect y="2651" width="2400" height="2" fill="#e8dcc0"/><rect y="2659" width="2400" height="2" fill="#e8dcc0"/><rect y="2667" width="2400" height="2" fill="#e8dcc0"/><rect y="2675" width="2400" height="2" fill="#e8dcc0"/><rect y="2683" width="2400" height="2" fill="#e8dcc0"/><rect y="2691" width="2400" height="2" fill="#e8dcc0"/><rect y="2699" width="2400" height="2" fill="#e8dcc0"/><rect y="2707" width="2400" height="2" fill="#e8dcc0"/><rect y="2715" width="2400" height="2" fill="#e8dcc0"/><rect y="2723" width="2400" height="2" fill="#e8dcc0"/><rect y="2731" width="2400" height="2" fill="#e8dcc0"/><rect y="2739" width="2400" height="2" fill="#e8dcc0"/><rect y="2747" width="2400" height="2" fill="#e8dcc0"/><rect y="2755" width="2400" height="2" fill="#e8dcc0"/><rect y="2763" width="2400" height="2" fill="#e8dcc0"/><rect y="2771" width="2400" height="2" fill="#e8dcc0"/><rect y="2779" width="2400" height="2" fill="#e8dcc0"/><rect y="2787" width="2400" height="2" fill="#e8dcc0"/><rect y="2795" width="2400" height="2" fill="#e8dcc0"/><rect y="2803" width="2400" height="2" fill="#e8dcc0"/><rect y="2811" width="2400" height="2" fill="#e8dcc0"/><rect y="2819" width="2400" height="2" fill="#e8dcc0"/><rect y="2827" width="2400" height="2" fill="#e8dcc0"/><rect y="2835" width="2400" height="2" fill="#e8dcc0"/><rect y="2843" width="2400" height="2" fill="#e8dcc0"/><rect y="2851" width="2400" height="2" fill="#e8dcc0"/><rect y="2859" width="2400" height="2" fill="#e8dcc0"/><rect y="2867" width="2400" height="2" fill="#e8dcc0"/><rect y="2875" width="2400" height="2" fill="#e8dcc0"/><rect y="2883" width="2400" height="2" fill="#e8dcc0"/><rect y="2891" width="2400" height="2" fill="#e8dcc0"/><rect y="2899" width="2400" height="2" fill="#e8dcc0"/><rect y="2907" width="2400" height="2" fill="#e8dcc0"/><rect y="2915" width="2400" height="2" fill="#e8dcc0"/><rect y="2923" width="2400" height="2" fill="#e8dcc0"/><rect y="2931" width="2400" height="2" fill="#e8dcc0"/><rect y="2939" width="2400" height="2" fill="#e8dcc0"/><rect y="2947" width="2400" height="2" fill="#e8dcc0"/><rect y="2955" width="2400" height="2" fill="#e8dcc0"/><rect y="2963" width="2400" height="2" fill="#e8dcc0"/><rect y="2971" width="2400" height="2" fill="#e8dcc0"/><rect y="2979" width="2400" height="2" fill="#e8dcc0"/><rect y="2987" width="2400" height="2" fill="#e8dcc0"/><rect y="2995" width="2400" height="2" fill="#e8dcc0"/></g><rect x="88" y="88" width="2224" height="2824" fill="none" stroke="#3a2c1a" stroke-width="4" opacity="0.2"/><rect x="94" y="94" width="2212" height="2812" fill="none" stroke="#fff6e0" stroke-width="2" opacity="0.25"/><circle cx="2004.1" cy="587.3" r="12.8" fill="#8a5a2e" opacity="0.097"/><circle cx="677.1" cy="2867.1" r="5.4" fill="#8a5a2e" opacity="0.098"/><circle cx="358" cy="2203.7" r="13.2" fill="#8a5a2e" opacity="0.074"/><circle cx="1033.1" cy="1554.6" r="15.1" fill="#8a5a2e" opacity="0.119"/><circle cx="1547.3" cy="2848" r="5.4" fill="#8a5a2e" opacity="0.043"/><circle cx="660.9" cy="1235.4" r="4.5" fill="#8a5a2e" opacity="0.126"/><circle cx="1215" cy="1170.7" r="13" fill="#8a5a2e" opacity="0.069"/><circle cx="2080.6" cy="602.3" r="7.8" fill="#8a5a2e" opacity="0.071"/><circle cx="1800" cy="1101" r="12.9" fill="#8a5a2e" opacity="0.072"/><circle cx="286.2" cy="2256.8" r="3.6" fill="#8a5a2e" opacity="0.062"/><circle cx="1914.2" cy="2339.2" r="7.7" fill="#8a5a2e" opacity="0.106"/><circle cx="1517.3" cy="1907.9" r="12.6" fill="#8a5a2e" opacity="0.086"/><circle cx="1440.7" cy="1479.7" r="6.1" fill="#8a5a2e" opacity="0.103"/><circle cx="1462.3" cy="1023.3" r="8.8" fill="#8a5a2e" opacity="0.054"/><circle cx="1781" cy="2163.8" r="7.8" fill="#8a5a2e" opacity="0.104"/><circle cx="1956.5" cy="1490.7" r="5.7" fill="#8a5a2e" opacity="0.099"/><circle cx="1325.4" cy="2062.1" r="12.4" fill="#8a5a2e" opacity="0.065"/><circle cx="1481.7" cy="2578.5" r="15.4" fill="#8a5a2e" opacity="0.112"/><circle cx="839.5" cy="2827.7" r="7.8" fill="#8a5a2e" opacity="0.071"/><rect width="2400" height="3000" fill="url(#a96-vig)"/></svg></svg>