<svg xmlns="http://www.w3.org/2000/svg" width="2400" height="1800" viewBox="0 0 2400 1800"><rect width="2400" height="1800" fill="#e9e1d2"/><rect y="1430" width="2400" height="370" fill="#c8b190"/><line x1="120" y1="1430" x2="60" y2="1800" stroke="#00000018" stroke-width="6"/><line x1="380" y1="1430" x2="320" y2="1800" stroke="#00000018" stroke-width="6"/><line x1="640" y1="1430" x2="580" y2="1800" stroke="#00000018" stroke-width="6"/><line x1="900" y1="1430" x2="840" y2="1800" stroke="#00000018" stroke-width="6"/><line x1="1160" y1="1430" x2="1100" y2="1800" stroke="#00000018" stroke-width="6"/><line x1="1420" y1="1430" x2="1360" y2="1800" stroke="#00000018" stroke-width="6"/><line x1="1680" y1="1430" x2="1620" y2="1800" stroke="#00000018" stroke-width="6"/><line x1="1940" y1="1430" x2="1880" y2="1800" stroke="#00000018" stroke-width="6"/><line x1="2200" y1="1430" x2="2140" y2="1800" stroke="#00000018" stroke-width="6"/><rect y="1418" width="2400" height="16" fill="#d7cbb6"/><rect x="700" y="980" width="1000" height="460" rx="26" fill="#a87e57"/><rect x="660" y="1290" width="1080" height="210" rx="30" fill="#f1ebdf"/><rect x="660" y="1420" width="1080" height="120" rx="24" fill="#4a7457" opacity="0.85"/><rect x="770" y="1180" width="300" height="150" rx="40" fill="#faf6ec"/><rect x="1330" y="1180" width="300" height="150" rx="40" fill="#b19b6e"/><rect x="640" y="1530" width="1120" height="26" rx="12" fill="#a87e57"/><rect x="360" y="1260" width="240" height="220" rx="10" fill="#a87e57"/><rect x="380" y="1300" width="200" height="14" fill="#00000022"/><line x1="480" y1="1260" x2="480" y2="1130" stroke="#5a4632" stroke-width="12"/><path d="M410,1130 L550,1130 L520,1020 L440,1020 Z" fill="#4a7457"/><path d="M2060,1520 Q 1910,1282.5 1835,1345" fill="none" stroke="#5d7052" stroke-width="20" stroke-linecap="round"/><path d="M2060,1520 Q 1960,1282.5 1910,1295" fill="none" stroke="#5d7052" stroke-width="20" stroke-linecap="round"/><path d="M2060,1520 Q 2010,1282.5 1985,1245" fill="none" stroke="#5d7052" stroke-width="20" stroke-linecap="round"/><path d="M2060,1520 Q 2060,1282.5 2060,1195" fill="none" stroke="#5d7052" stroke-width="20" stroke-linecap="round"/><path d="M2060,1520 Q 2110,1282.5 2135,1245" fill="none" stroke="#5d7052" stroke-width="20" stroke-linecap="round"/><path d="M2060,1520 Q 2160,1282.5 2210,1295" fill="none" stroke="#5d7052" stroke-width="20" stroke-linecap="round"/><path d="M2060,1520 Q 2210,1282.5 2285,1345" fill="none" stroke="#5d7052" stroke-width="20" stroke-linecap="round"/><path d="M1972.5,1520 L2147.5,1520 L2125,1657.5 L1995,1657.5 Z" fill="#a9714d"/><defs><filter id="a32b-sh" x="-30%" y="-30%" width="160%" height="160%"><feGaussianBlur stdDeviation="16"/></filter></defs><rect x="928" y="246" width="572" height="702" fill="#000" opacity="0.28" filter="url(#a32b-sh)"/><rect x="914" y="224" width="572" height="702" fill="#4a3d2f"/><rect x="930.9" y="240.9" width="538.2" height="668.2" fill="none" stroke="#00000055" stroke-width="3"/><rect x="940" y="250" width="520" height="650" fill="#f6f2ea"/><svg x="979" y="289" width="442" height="572" viewBox="0 0 2400 3000" preserveAspectRatio="xMidYMid slice"><filter id="a32-warp" x="-4%" y="-4%" width="108%" height="108%"><feTurbulence type="fractalNoise" baseFrequency="0.0105" numOctaves="2" seed="6618" result="w"/><feDisplacementMap in="SourceGraphic" in2="w" scale="11" xChannelSelector="R" yChannelSelector="G"/></filter><filter id="a32-grain" x="0%" y="0%" width="100%" height="100%"><feTurbulence type="fractalNoise" baseFrequency="0.6" numOctaves="2" seed="6625"/><feColorMatrix type="matrix" values="0.33 0.33 0.33 0 0.62  0.33 0.33 0.33 0 0.62  0.33 0.33 0.33 0 0.62  0 0 0 0 1"/></filter><filter id="a32-mottle" x="0%" y="0%" width="100%" height="100%"><feTurbulence type="fractalNoise" baseFrequency="0.0045" numOctaves="3" seed="6631"/><feColorMatrix type="matrix" values="0.2 0.2 0.2 0 0.78  0.2 0.2 0.2 0 0.78  0.2 0.2 0.2 0 0.78  0 0 0 0 1"/></filter><filter id="a32-fade" x="0%" y="0%" width="100%" height="100%"><feTurbulence type="fractalNoise" baseFrequency="0.006" numOctaves="2" seed="6647"/><feColorMatrix type="matrix" values="0.3 0.3 0.3 0 -0.08  0.3 0.3 0.3 0 -0.08  0.3 0.3 0.3 0 -0.1  0 0 0 0 1"/></filter><filter id="a32-blur9"><feGaussianBlur stdDeviation="9"/></filter><radialGradient id="a32-vig" cx="50%" cy="44%" r="78%"><stop offset="52%" stop-color="#241a10" stop-opacity="0"/><stop offset="100%" stop-color="#241a10" stop-opacity="0.17"/></radialGradient><radialGradient id="a32-warm" cx="48%" cy="30%" r="85%"><stop offset="0%" stop-color="#e8c890" stop-opacity="0.14"/><stop offset="70%" stop-color="#e8c890" stop-opacity="0"/></radialGradient><rect width="2400" height="3000" fill="#d5bf94"/><rect width="2400" height="3000" fill="url(#a32-warm)"/><rect x="0" width="36.6" height="3000" fill="#6b4e26" opacity="0.074"/><rect x="50.8" width="40.2" height="3000" fill="#6b4e26" opacity="0.052"/><rect x="106.7" width="25" height="3000" fill="#6b4e26" opacity="0.042"/><rect x="141.5" width="41.4" height="3000" fill="#6b4e26" opacity="0.050"/><rect x="199" width="38.1" height="3000" fill="#6b4e26" opacity="0.033"/><rect x="251.9" width="29.3" height="3000" fill="#6b4e26" opacity="0.053"/><rect x="292.5" width="30.7" height="3000" fill="#6b4e26" opacity="0.080"/><rect x="335.1" width="27.6" height="3000" fill="#6b4e26" opacity="0.086"/><rect x="373.4" width="29.7" height="3000" fill="#6b4e26" opacity="0.074"/><rect x="414.7" width="34.7" height="3000" fill="#6b4e26" opacity="0.056"/><rect x="462.9" width="23.4" height="3000" fill="#6b4e26" opacity="0.032"/><rect x="495.4" width="24.9" height="3000" fill="#6b4e26" opacity="0.074"/><rect x="530" width="28.8" height="3000" fill="#6b4e26" opacity="0.032"/><rect x="570" width="42.1" height="3000" fill="#6b4e26" opacity="0.095"/><rect x="628.5" width="33.8" height="3000" fill="#6b4e26" opacity="0.082"/><rect x="675.4" width="29.4" height="3000" fill="#6b4e26" opacity="0.032"/><rect x="716.2" width="35.7" height="3000" fill="#6b4e26" opacity="0.067"/><rect x="765.8" width="35.8" height="3000" fill="#6b4e26" opacity="0.058"/><rect x="815.5" width="37.4" height="3000" fill="#6b4e26" opacity="0.057"/><rect x="867.4" width="32.2" height="3000" fill="#6b4e26" opacity="0.055"/><rect x="912.1" width="25.8" height="3000" fill="#6b4e26" opacity="0.050"/><rect x="947.9" width="23.3" height="3000" fill="#6b4e26" opacity="0.038"/><rect x="980.2" width="37.3" height="3000" fill="#6b4e26" opacity="0.097"/><rect x="1031.9" width="40.8" height="3000" fill="#6b4e26" opacity="0.073"/><rect x="1088.6" width="25.5" height="3000" fill="#6b4e26" opacity="0.031"/><rect x="1124" width="30.1" height="3000" fill="#6b4e26" opacity="0.063"/><rect x="1165.7" width="33.8" height="3000" fill="#6b4e26" opacity="0.038"/><rect x="1212.7" width="23.7" height="3000" fill="#6b4e26" opacity="0.044"/><rect x="1245.6" width="23.5" height="3000" fill="#6b4e26" opacity="0.032"/><rect x="1278.2" width="42.9" height="3000" fill="#6b4e26" opacity="0.034"/><rect x="1337.7" width="37.7" height="3000" fill="#6b4e26" opacity="0.030"/><rect x="1390.1" width="21.5" height="3000" fill="#6b4e26" opacity="0.075"/><rect x="1420" width="37.5" height="3000" fill="#6b4e26" opacity="0.057"/><rect x="1472.1" width="37.8" height="3000" fill="#6b4e26" opacity="0.073"/><rect x="1524.6" width="33.1" height="3000" fill="#6b4e26" opacity="0.081"/><rect x="1570.5" width="33.5" height="3000" fill="#6b4e26" opacity="0.086"/><rect x="1617.1" width="26.4" height="3000" fill="#6b4e26" opacity="0.052"/><rect x="1653.8" width="38.4" height="3000" fill="#6b4e26" opacity="0.082"/><rect x="1707.1" width="22" height="3000" fill="#6b4e26" opacity="0.045"/><rect x="1737.7" width="31.4" height="3000" fill="#6b4e26" opacity="0.092"/><rect x="1781.3" width="35.4" height="3000" fill="#6b4e26" opacity="0.091"/><rect x="1830.4" width="29.3" height="3000" fill="#6b4e26" opacity="0.055"/><rect x="1871.1" width="20.4" height="3000" fill="#6b4e26" opacity="0.037"/><rect x="1899.5" width="41.3" height="3000" fill="#6b4e26" opacity="0.086"/><rect x="1956.9" width="33.5" height="3000" fill="#6b4e26" opacity="0.041"/><rect x="2003.4" width="22.1" height="3000" fill="#6b4e26" opacity="0.068"/><rect x="2034.1" width="23.3" height="3000" fill="#6b4e26" opacity="0.031"/><rect x="2066.4" width="35.9" height="3000" fill="#6b4e26" opacity="0.038"/><rect x="2116.3" width="21.3" height="3000" fill="#6b4e26" opacity="0.062"/><rect x="2145.9" width="34.6" height="3000" fill="#6b4e26" opacity="0.087"/><rect x="2193.9" width="36.9" height="3000" fill="#6b4e26" opacity="0.078"/><rect x="2245.2" width="33.3" height="3000" fill="#6b4e26" opacity="0.099"/><rect x="2291.5" width="41.3" height="3000" fill="#6b4e26" opacity="0.087"/><rect x="2348.8" width="42.5" height="3000" fill="#6b4e26" opacity="0.080"/><rect y="0" width="2400" height="12" fill="#7c5c30" opacity="0.033"/><rect y="20" width="2400" height="25.8" fill="#7c5c30" opacity="0.034"/><rect y="63.1" width="2400" height="22.2" fill="#7c5c30" opacity="0.054"/><rect y="100" width="2400" height="13.9" fill="#7c5c30" opacity="0.053"/><rect y="123.2" width="2400" height="20.2" fill="#7c5c30" opacity="0.056"/><rect y="156.8" width="2400" height="19.8" fill="#7c5c30" opacity="0.038"/><rect y="189.7" width="2400" height="23.2" fill="#7c5c30" opacity="0.026"/><rect y="228.3" width="2400" height="20.7" fill="#7c5c30" opacity="0.028"/><rect y="262.9" width="2400" height="22.3" fill="#7c5c30" opacity="0.048"/><rect y="300" width="2400" height="13.6" fill="#7c5c30" opacity="0.050"/><rect y="322.7" width="2400" height="27" fill="#7c5c30" opacity="0.056"/><rect y="367.7" width="2400" height="25.3" fill="#7c5c30" opacity="0.052"/><rect y="409.9" width="2400" height="27.1" fill="#7c5c30" opacity="0.034"/><rect y="455" width="2400" height="18.3" fill="#7c5c30" opacity="0.022"/><rect y="485.5" width="2400" height="24.4" fill="#7c5c30" opacity="0.026"/><rect y="526.1" width="2400" height="27" fill="#7c5c30" opacity="0.039"/><rect y="571.1" width="2400" height="14.5" fill="#7c5c30" opacity="0.046"/><rect y="595.2" width="2400" height="17.9" fill="#7c5c30" opacity="0.032"/><rect y="625.1" width="2400" height="22" fill="#7c5c30" opacity="0.052"/><rect y="661.8" width="2400" height="15.3" fill="#7c5c30" opacity="0.047"/><rect y="687.2" width="2400" height="25.4" fill="#7c5c30" opacity="0.051"/><rect y="729.5" width="2400" height="13.9" fill="#7c5c30" opacity="0.047"/><rect y="752.7" width="2400" height="21.4" fill="#7c5c30" opacity="0.048"/><rect y="788.4" width="2400" height="25" fill="#7c5c30" opacity="0.059"/><rect y="830" width="2400" height="21.2" fill="#7c5c30" opacity="0.055"/><rect y="865.4" width="2400" height="12.1" fill="#7c5c30" opacity="0.045"/><rect y="885.5" width="2400" height="18.6" fill="#7c5c30" opacity="0.038"/><rect y="916.5" width="2400" height="27.5" fill="#7c5c30" opacity="0.059"/><rect y="962.4" width="2400" height="19.9" fill="#7c5c30" opacity="0.055"/><rect y="995.6" width="2400" height="18" fill="#7c5c30" opacity="0.055"/><rect y="1025.6" width="2400" height="14.4" fill="#7c5c30" opacity="0.047"/><rect y="1049.5" width="2400" height="16.6" fill="#7c5c30" opacity="0.048"/><rect y="1077.2" width="2400" height="12.7" fill="#7c5c30" opacity="0.058"/><rect y="1098.3" width="2400" height="20.9" fill="#7c5c30" opacity="0.028"/><rect y="1133.1" width="2400" height="20.3" fill="#7c5c30" opacity="0.036"/><rect y="1166.9" width="2400" height="28.7" fill="#7c5c30" opacity="0.035"/><rect y="1214.7" width="2400" height="22.4" fill="#7c5c30" opacity="0.043"/><rect y="1252" width="2400" height="24" fill="#7c5c30" opacity="0.025"/><rect y="1292" width="2400" height="27.4" fill="#7c5c30" opacity="0.044"/><rect y="1337.7" width="2400" height="12.5" fill="#7c5c30" opacity="0.030"/><rect y="1358.5" width="2400" height="14.4" fill="#7c5c30" opacity="0.023"/><rect y="1382.4" width="2400" height="23.2" fill="#7c5c30" opacity="0.035"/><rect y="1421" width="2400" height="26.9" fill="#7c5c30" opacity="0.023"/><rect y="1465.8" width="2400" height="23.2" fill="#7c5c30" opacity="0.049"/><rect y="1504.4" width="2400" height="16" fill="#7c5c30" opacity="0.044"/><rect y="1531.1" width="2400" height="21.8" fill="#7c5c30" opacity="0.052"/><rect y="1567.4" width="2400" height="25" fill="#7c5c30" opacity="0.046"/><rect y="1609.1" width="2400" height="12.7" fill="#7c5c30" opacity="0.027"/><rect y="1630.2" width="2400" height="21.4" fill="#7c5c30" opacity="0.040"/><rect y="1665.9" width="2400" height="24.8" fill="#7c5c30" opacity="0.052"/><rect y="1707.2" width="2400" height="23.6" fill="#7c5c30" opacity="0.023"/><rect y="1746.6" width="2400" height="18.7" fill="#7c5c30" opacity="0.034"/><rect y="1777.8" width="2400" height="25.1" fill="#7c5c30" opacity="0.031"/><rect y="1819.7" width="2400" height="16.2" fill="#7c5c30" opacity="0.057"/><rect y="1846.7" width="2400" height="24" fill="#7c5c30" opacity="0.056"/><rect y="1886.7" width="2400" height="23.5" fill="#7c5c30" opacity="0.025"/><rect y="1925.9" width="2400" height="19" fill="#7c5c30" opacity="0.043"/><rect y="1957.6" width="2400" height="20.8" fill="#7c5c30" opacity="0.049"/><rect y="1992.3" width="2400" height="15.9" fill="#7c5c30" opacity="0.045"/><rect y="2018.8" width="2400" height="20.3" fill="#7c5c30" opacity="0.024"/><rect y="2052.7" width="2400" height="16.6" fill="#7c5c30" opacity="0.040"/><rect y="2080.4" width="2400" height="19.8" fill="#7c5c30" opacity="0.046"/><rect y="2113.5" width="2400" height="20.9" fill="#7c5c30" opacity="0.038"/><rect y="2148.3" width="2400" height="24.5" fill="#7c5c30" opacity="0.053"/><rect y="2189.1" width="2400" height="20.3" fill="#7c5c30" opacity="0.042"/><rect y="2223" width="2400" height="20.6" fill="#7c5c30" opacity="0.046"/><rect y="2257.4" width="2400" height="16.2" fill="#7c5c30" opacity="0.050"/><rect y="2284.4" width="2400" height="12.8" fill="#7c5c30" opacity="0.051"/><rect y="2305.8" width="2400" height="20.1" fill="#7c5c30" opacity="0.027"/><rect y="2339.3" width="2400" height="20.2" fill="#7c5c30" opacity="0.021"/><rect y="2373" width="2400" height="12.7" fill="#7c5c30" opacity="0.039"/><rect y="2394.2" width="2400" height="19.3" fill="#7c5c30" opacity="0.046"/><rect y="2426.4" width="2400" height="26.8" fill="#7c5c30" opacity="0.050"/><rect y="2471" width="2400" height="18" fill="#7c5c30" opacity="0.032"/><rect y="2501.1" width="2400" height="27" fill="#7c5c30" opacity="0.044"/><rect y="2546.2" width="2400" height="12.4" fill="#7c5c30" opacity="0.026"/><rect y="2566.8" width="2400" height="27.5" fill="#7c5c30" opacity="0.040"/><rect y="2612.7" width="2400" height="15" fill="#7c5c30" opacity="0.028"/><rect y="2637.8" width="2400" height="26.5" fill="#7c5c30" opacity="0.044"/><rect y="2682" width="2400" height="13.7" fill="#7c5c30" opacity="0.058"/><rect y="2704.9" width="2400" height="13.7" fill="#7c5c30" opacity="0.051"/><rect y="2727.8" width="2400" height="22.9" fill="#7c5c30" opacity="0.028"/><rect y="2765.9" width="2400" height="25.1" fill="#7c5c30" opacity="0.029"/><rect y="2807.8" width="2400" height="27.8" fill="#7c5c30" opacity="0.053"/><rect y="2854.1" width="2400" height="25.3" fill="#7c5c30" opacity="0.050"/><rect y="2896.3" width="2400" height="16.9" fill="#7c5c30" opacity="0.041"/><rect y="2924.5" width="2400" height="16" fill="#7c5c30" opacity="0.045"/><rect y="2951.2" width="2400" height="19.9" fill="#7c5c30" opacity="0.022"/><rect y="2984.4" width="2400" height="13.3" fill="#7c5c30" opacity="0.031"/><g filter="url(#a32-warp)"><clipPath id="a32-gz"><rect x="150" y="150" width="2100" height="2700"/></clipPath><g clip-path="url(#a32-gz)"><circle cx="1207.9" cy="780.4" r="370.4" fill="#4a7457"/><path d="M150,2050 C 700,1910.8 1100,2189.2 1600,1966.5 S 2200,2105.7 2250,2030 L2250,2850 L150,2850 Z" fill="#302b22" opacity="0.35"/><path d="M150,2270 C 700,2136.5 1100,2403.5 1600,2189.9 S 2200,2323.4 2250,2250 L2250,2850 L150,2850 Z" fill="#b19b6e" opacity="0.9"/><path d="M150,2520 C 700,2438 1100,2602 1600,2470.8 S 2200,2552.8 2250,2500 L2250,2850 L150,2850 Z" fill="#302b22" opacity="1"/><polygon points="699,1216 220,2130 794.1,2130" fill="#302b22"/><polygon points="699,1216 794.1,2130 1177.9,2130" fill="#302b22" opacity="0.6"/><polygon points="1268.2,1599.5 846.2,2130 1327.7,2130" fill="#302b22"/><polygon points="1268.2,1599.5 1327.7,2130 1690.1,2130" fill="#302b22" opacity="0.6"/><path d="M917.9,1036.2 q 26,-24 52,0 q 26,-24 52,0" fill="none" stroke="#302b22" stroke-width="8" stroke-linecap="round"/><path d="M1584.6,1016.2 q 26,-24 52,0 q 26,-24 52,0" fill="none" stroke="#302b22" stroke-width="8" stroke-linecap="round"/></g><polyline points="240,2800 300,2740 360,2800 420,2740 480,2800 540,2740 600,2800 660,2740 720,2800 780,2740 840,2800 900,2740 960,2800 1020,2740 1080,2800 1140,2740 1200,2800 1260,2740 1320,2800 1380,2740 1440,2800 1500,2740 1560,2800 1620,2740 1680,2800 1740,2740 1800,2800 1860,2740 1920,2800 1980,2740 2040,2800 2100,2740 2160,2800 " fill="none" stroke="#302b22" stroke-width="10.8" stroke-linejoin="miter"/><rect x="120" y="120" width="2160" height="2760" fill="none" stroke="#302b22" stroke-width="6" opacity="0.85"/></g><rect width="2400" height="3000" filter="url(#a32-mottle)" style="mix-blend-mode:multiply" opacity="0.5"/><rect width="2400" height="3000" filter="url(#a32-fade)" style="mix-blend-mode:screen" opacity="0.55"/><rect width="2400" height="3000" filter="url(#a32-grain)" style="mix-blend-mode:multiply" opacity="0.32"/><ellipse cx="1137.7" cy="1300.3" rx="142.4" ry="115.6" fill="#6b4a22" opacity="0.052" filter="url(#a32-blur9)"/><ellipse cx="810.1" cy="1031.8" rx="235.1" ry="165.4" fill="#6b4a22" opacity="0.057" filter="url(#a32-blur9)"/><ellipse cx="1196.4" cy="2583.4" rx="176.9" ry="119" fill="#6b4a22" opacity="0.060" filter="url(#a32-blur9)"/><ellipse cx="1714.4" cy="2829.3" rx="286.3" ry="172.2" fill="#6b4a22" opacity="0.064" filter="url(#a32-blur9)"/><ellipse cx="2069.5" cy="487.4" rx="287.7" ry="301.8" fill="#6b4a22" opacity="0.030" filter="url(#a32-blur9)"/><ellipse cx="743.1" cy="1381.9" rx="164.3" ry="107.2" fill="#6b4a22" opacity="0.064" filter="url(#a32-blur9)"/><rect x="0" width="16.6" height="3000" fill="#fff2d0" opacity="0.023"/><rect x="33.3" width="21.4" height="3000" fill="#fff2d0" opacity="0.042"/><rect x="76.1" width="22.6" height="3000" fill="#fff2d0" opacity="0.041"/><rect x="121.4" width="29.4" height="3000" fill="#fff2d0" opacity="0.038"/><rect x="180.2" width="16.8" height="3000" fill="#fff2d0" opacity="0.037"/><rect x="213.8" width="29.8" height="3000" fill="#fff2d0" opacity="0.040"/><rect x="273.4" width="32.3" height="3000" fill="#fff2d0" opacity="0.036"/><rect x="338" width="18.1" height="3000" fill="#fff2d0" opacity="0.036"/><rect x="374.2" width="33.8" height="3000" fill="#fff2d0" opacity="0.029"/><rect x="441.8" width="18.7" height="3000" fill="#fff2d0" opacity="0.025"/><rect x="479.2" width="21.9" height="3000" fill="#fff2d0" opacity="0.020"/><rect x="523" width="19.2" height="3000" fill="#fff2d0" opacity="0.037"/><rect x="561.4" width="19.7" height="3000" fill="#fff2d0" opacity="0.030"/><rect x="600.7" width="26.2" height="3000" fill="#fff2d0" opacity="0.038"/><rect x="653.2" width="17.8" height="3000" fill="#fff2d0" opacity="0.027"/><rect x="688.8" width="21.5" height="3000" fill="#fff2d0" opacity="0.026"/><rect x="731.7" width="34.8" height="3000" fill="#fff2d0" opacity="0.022"/><rect x="801.3" width="20.7" height="3000" fill="#fff2d0" opacity="0.021"/><rect x="842.7" width="15.3" height="3000" fill="#fff2d0" opacity="0.027"/><rect x="873.4" width="34.8" height="3000" fill="#fff2d0" opacity="0.033"/><rect x="943" width="16.8" height="3000" fill="#fff2d0" opacity="0.033"/><rect x="976.7" width="21.9" height="3000" fill="#fff2d0" opacity="0.030"/><rect x="1020.4" width="17.7" height="3000" fill="#fff2d0" opacity="0.037"/><rect x="1055.9" width="18.9" height="3000" fill="#fff2d0" opacity="0.044"/><rect x="1093.7" width="29.1" height="3000" fill="#fff2d0" opacity="0.039"/><rect x="1152" width="15.3" height="3000" fill="#fff2d0" opacity="0.035"/><rect x="1182.6" width="33" height="3000" fill="#fff2d0" opacity="0.039"/><rect x="1248.5" width="16.3" height="3000" fill="#fff2d0" opacity="0.021"/><rect x="1281.2" width="33.2" height="3000" fill="#fff2d0" opacity="0.017"/><rect x="1347.7" width="26.1" height="3000" fill="#fff2d0" opacity="0.041"/><rect x="1399.9" width="20.4" height="3000" fill="#fff2d0" opacity="0.040"/><rect x="1440.6" width="22.5" height="3000" fill="#fff2d0" opacity="0.022"/><rect x="1485.7" width="27" height="3000" fill="#fff2d0" opacity="0.028"/><rect x="1539.6" width="21.2" height="3000" fill="#fff2d0" opacity="0.024"/><rect x="1582" width="29.1" height="3000" fill="#fff2d0" opacity="0.032"/><rect x="1640.3" width="32" height="3000" fill="#fff2d0" opacity="0.018"/><rect x="1704.3" width="31.5" height="3000" fill="#fff2d0" opacity="0.042"/><rect x="1767.2" width="34.8" height="3000" fill="#fff2d0" opacity="0.016"/><rect x="1836.9" width="32.5" height="3000" fill="#fff2d0" opacity="0.045"/><rect x="1901.9" width="19.6" height="3000" fill="#fff2d0" opacity="0.037"/><rect x="1941" width="19.8" height="3000" fill="#fff2d0" opacity="0.035"/><rect x="1980.6" width="34.1" height="3000" fill="#fff2d0" opacity="0.043"/><rect x="2048.9" width="21.6" height="3000" fill="#fff2d0" opacity="0.021"/><rect x="2092" width="22.4" height="3000" fill="#fff2d0" opacity="0.042"/><rect x="2136.9" width="16.9" height="3000" fill="#fff2d0" opacity="0.032"/><rect x="2170.8" width="19.9" height="3000" fill="#fff2d0" opacity="0.028"/><rect x="2210.5" width="16.2" height="3000" fill="#fff2d0" opacity="0.027"/><rect x="2243" width="26.5" height="3000" fill="#fff2d0" opacity="0.029"/><rect x="2296.1" width="22" height="3000" fill="#fff2d0" opacity="0.023"/><rect x="2340" width="29.2" height="3000" fill="#fff2d0" opacity="0.017"/><rect x="2398.4" width="34.5" height="3000" fill="#fff2d0" opacity="0.035"/><linearGradient id="a32-er" x1="0" x2="1" y1="0" y2="0"><stop offset="0" stop-color="#3a2a12" stop-opacity="0.22"/><stop offset="1" stop-color="#3a2a12" stop-opacity="0"/></linearGradient><rect x="0" y="0" width="90" height="3000" fill="url(#a32-er)"/><linearGradient id="a32-el" x1="1" x2="0" y1="0" y2="0"><stop offset="0" stop-color="#3a2a12" stop-opacity="0.22"/><stop offset="1" stop-color="#3a2a12" stop-opacity="0"/></linearGradient><rect x="2310" y="0" width="90" height="3000" fill="url(#a32-el)"/><linearGradient id="a32-ed" x1="0" x2="0" y1="0" y2="1"><stop offset="0" stop-color="#3a2a12" stop-opacity="0.22"/><stop offset="1" stop-color="#3a2a12" stop-opacity="0"/></linearGradient><rect x="0" y="0" width="2400" height="90" fill="url(#a32-ed)"/><linearGradient id="a32-eu" x1="0" x2="0" y1="1" y2="0"><stop offset="0" stop-color="#3a2a12" stop-opacity="0.22"/><stop offset="1" stop-color="#3a2a12" stop-opacity="0"/></linearGradient><rect x="0" y="2910" width="2400" height="90" fill="url(#a32-eu)"/><circle cx="898.4" cy="559" r="4.3" fill="#8a5a2e" opacity="0.114"/><circle cx="1540.8" cy="2545.2" r="12.5" fill="#8a5a2e" opacity="0.055"/><circle cx="679.7" cy="1797.5" r="8.2" fill="#8a5a2e" opacity="0.089"/><circle cx="1906.4" cy="494.9" r="5.7" fill="#8a5a2e" opacity="0.093"/><circle cx="1164.4" cy="1644.6" r="15.1" fill="#8a5a2e" opacity="0.071"/><circle cx="1990.3" cy="2507.6" r="3.3" fill="#8a5a2e" opacity="0.102"/><circle cx="905.3" cy="1882.3" r="14.9" fill="#8a5a2e" opacity="0.085"/><circle cx="386.9" cy="2514" r="15.3" fill="#8a5a2e" opacity="0.048"/><circle cx="98.5" cy="154.2" r="13.8" fill="#8a5a2e" opacity="0.108"/><circle cx="268.8" cy="2826.5" r="10.5" fill="#8a5a2e" opacity="0.054"/><rect width="2400" height="3000" fill="url(#a32-vig)"/></svg></svg>