<svg xmlns="http://www.w3.org/2000/svg" width="2400" height="1800" viewBox="0 0 2400 1800"><rect width="2400" height="1800" fill="#dfe4dc"/><rect y="1400" width="2400" height="400" fill="#c2a67e"/><line x1="60" y1="1400" x2="10" y2="1800" stroke="#00000015" stroke-width="5"/><line x1="260" y1="1400" x2="210" y2="1800" stroke="#00000015" stroke-width="5"/><line x1="460" y1="1400" x2="410" y2="1800" stroke="#00000015" stroke-width="5"/><line x1="660" y1="1400" x2="610" y2="1800" stroke="#00000015" stroke-width="5"/><line x1="860" y1="1400" x2="810" y2="1800" stroke="#00000015" stroke-width="5"/><line x1="1060" y1="1400" x2="1010" y2="1800" stroke="#00000015" stroke-width="5"/><line x1="1260" y1="1400" x2="1210" y2="1800" stroke="#00000015" stroke-width="5"/><line x1="1460" y1="1400" x2="1410" y2="1800" stroke="#00000015" stroke-width="5"/><line x1="1660" y1="1400" x2="1610" y2="1800" stroke="#00000015" stroke-width="5"/><line x1="1860" y1="1400" x2="1810" y2="1800" stroke="#00000015" stroke-width="5"/><line x1="2060" y1="1400" x2="2010" y2="1800" stroke="#00000015" stroke-width="5"/><line x1="2260" y1="1400" x2="2210" y2="1800" stroke="#00000015" stroke-width="5"/><rect x="180" y="260" width="900" height="620" fill="#8a6a48"/><rect x="215" y="295" width="830" height="550" fill="#41524a"/><line x1="280" y1="420" x2="760" y2="420" stroke="#ffffff66" stroke-width="9" stroke-linecap="round"/><line x1="280" y1="520" x2="620" y2="520" stroke="#ffffff44" stroke-width="9" stroke-linecap="round"/><circle cx="880" cy="560" r="90" fill="none" stroke="#ffffff55" stroke-width="8"/><rect x="215" y="845" width="830" height="22" fill="#6f5436"/><rect x="330" y="1240" width="640" height="60" rx="10" fill="#9c7449"/><rect x="370" y="1300" width="60" height="240" fill="#8a6540"/><rect x="870" y="1300" width="60" height="240" fill="#8a6540"/><rect x="430" y="1160" width="150" height="80" rx="8" fill="#c98f4e"/><rect x="450" y="1120" width="150" height="40" rx="8" fill="#7c3a31"/><circle cx="800" cy="1130" r="86" fill="#7fa3b8"/><path d="M760,1060 Q820,1100 780,1190 M740,1090 Q800,1120 850,1100" stroke="#5d8069" stroke-width="16" fill="none" stroke-linecap="round"/><circle cx="800" cy="1130" r="86" fill="none" stroke="#6b5233" stroke-width="7"/><line x1="800" y1="1216" x2="800" y2="1250" stroke="#6b5233" stroke-width="10"/><rect x="750" y="1244" width="100" height="14" rx="7" fill="#6b5233"/><rect x="1980" y="700" width="300" height="800" fill="#9c7449"/><rect x="2000" y="930" width="260" height="16" fill="#7c5a37"/><rect x="2020" y="790" width="36" height="140" fill="#b3502f"/><rect x="2066" y="802" width="36" height="128" fill="#39685c"/><rect x="2112" y="790" width="36" height="140" fill="#c9a227"/><rect x="2158" y="802" width="36" height="128" fill="#2c4661"/><rect x="2204" y="790" width="36" height="140" fill="#8a4423"/><rect x="2000" y="1180" width="260" height="16" fill="#7c5a37"/><rect x="2020" y="1040" width="36" height="140" fill="#39685c"/><rect x="2066" y="1052" width="36" height="128" fill="#c9a227"/><rect x="2112" y="1040" width="36" height="140" fill="#2c4661"/><rect x="2158" y="1052" width="36" height="128" fill="#8a4423"/><rect x="2204" y="1040" width="36" height="140" fill="#b3502f"/><rect x="2000" y="1430" width="260" height="16" fill="#7c5a37"/><rect x="2020" y="1290" width="36" height="140" fill="#c9a227"/><rect x="2066" y="1302" width="36" height="128" fill="#2c4661"/><rect x="2112" y="1290" width="36" height="140" fill="#8a4423"/><rect x="2158" y="1302" width="36" height="128" fill="#b3502f"/><rect x="2204" y="1290" width="36" height="140" fill="#39685c"/><defs><filter id="a53c-sh" x="-30%" y="-30%" width="160%" height="160%"><feGaussianBlur stdDeviation="16"/></filter></defs><rect x="1340.5" y="298.5" width="517" height="635" fill="#000" opacity="0.28" filter="url(#a53c-sh)"/><rect x="1326.5" y="276.5" width="517" height="635" fill="#3d342a"/><rect x="1341.8" y="291.8" width="486.4" height="604.5" fill="none" stroke="#00000055" stroke-width="3"/><rect x="1350" y="300" width="470" height="588" fill="#f6f2ea"/><svg x="1385.3" y="335.3" width="399.5" height="517.5" viewBox="0 0 2400 3000" preserveAspectRatio="xMidYMid slice"><rect width="2400" height="3000" fill="#571f1c"/><radialGradient id="a53-vig" cx="50%" cy="42%" r="80%"><stop offset="55%" stop-color="#000" stop-opacity="0"/><stop offset="100%" stop-color="#000" stop-opacity="0.15"/></radialGradient><rect width="2400" height="3000" fill="url(#a53-vig)"/><circle cx="1780.1" cy="1748.7" r="3.5" fill="#e9dabe" opacity="0.065"/><circle cx="744.2" cy="1071.2" r="1.7" fill="#e9dabe" opacity="0.068"/><circle cx="1476.4" cy="747.8" r="2.6" fill="#e9dabe" opacity="0.041"/><circle cx="676.7" cy="54.3" r="2" fill="#e9dabe" opacity="0.071"/><circle cx="941.7" cy="2771.3" r="3.1" fill="#e9dabe" opacity="0.053"/><circle cx="580.6" cy="274.2" r="4.5" fill="#e9dabe" opacity="0.075"/><circle cx="1693.7" cy="813.6" r="4.5" fill="#e9dabe" opacity="0.045"/><circle cx="209.6" cy="1449.2" r="3" fill="#e9dabe" opacity="0.037"/><circle cx="2071" cy="110.4" r="2.1" fill="#e9dabe" opacity="0.030"/><circle cx="1507" cy="758.2" r="3.7" fill="#e9dabe" opacity="0.033"/><circle cx="185.6" cy="1552.3" r="2.8" fill="#e9dabe" opacity="0.059"/><circle cx="1887" cy="2715.7" r="2.3" fill="#e9dabe" opacity="0.043"/><circle cx="964.1" cy="1609.6" r="2.1" fill="#e9dabe" opacity="0.060"/><circle cx="1182.8" cy="1746.4" r="4.5" fill="#e9dabe" opacity="0.034"/><circle cx="505.9" cy="1141.3" r="2.8" fill="#e9dabe" opacity="0.034"/><circle cx="2035.8" cy="2084.6" r="2.5" fill="#e9dabe" opacity="0.043"/><circle cx="1574.1" cy="264.6" r="3.6" fill="#e9dabe" opacity="0.030"/><circle cx="791.7" cy="2475.8" r="1.9" fill="#e9dabe" opacity="0.037"/><circle cx="826.9" cy="2717.7" r="3.3" fill="#e9dabe" opacity="0.034"/><circle cx="1017.7" cy="1119.5" r="3.7" fill="#e9dabe" opacity="0.052"/><circle cx="1737.1" cy="1412.9" r="2.2" fill="#e9dabe" opacity="0.061"/><circle cx="1342.7" cy="1245.7" r="4.2" fill="#e9dabe" opacity="0.052"/><circle cx="337.3" cy="81.8" r="1.9" fill="#e9dabe" opacity="0.032"/><circle cx="2052.7" cy="2874.5" r="3.8" fill="#e9dabe" opacity="0.049"/><circle cx="1653.4" cy="2738.1" r="2.9" fill="#e9dabe" opacity="0.069"/><circle cx="798.3" cy="1241.9" r="3.9" fill="#e9dabe" opacity="0.040"/><circle cx="2143.3" cy="2167.8" r="3.4" fill="#e9dabe" opacity="0.057"/><circle cx="1571.2" cy="708.8" r="1.8" fill="#e9dabe" opacity="0.064"/><circle cx="205.5" cy="1273.5" r="3.3" fill="#e9dabe" opacity="0.069"/><circle cx="1117.8" cy="1238.5" r="2.9" fill="#e9dabe" opacity="0.049"/><circle cx="1808.2" cy="2314.5" r="2.8" fill="#e9dabe" opacity="0.075"/><circle cx="156.4" cy="1777.2" r="1.9" fill="#e9dabe" opacity="0.058"/><circle cx="131.8" cy="2441.1" r="2.3" fill="#e9dabe" opacity="0.048"/><circle cx="1884" cy="1324" r="4.1" fill="#e9dabe" opacity="0.077"/><circle cx="253.9" cy="2184" r="2.1" fill="#e9dabe" opacity="0.071"/><circle cx="65.3" cy="163.3" r="1.8" fill="#e9dabe" opacity="0.073"/><circle cx="2044.5" cy="393.3" r="2.3" fill="#e9dabe" opacity="0.042"/><circle cx="285.8" cy="1307.6" r="2.2" fill="#e9dabe" opacity="0.073"/><circle cx="1551.6" cy="862.4" r="2.2" fill="#e9dabe" opacity="0.042"/><circle cx="509" cy="1735" r="2.6" fill="#e9dabe" opacity="0.070"/><circle cx="2081.6" cy="62.4" r="2.7" fill="#e9dabe" opacity="0.043"/><circle cx="1120.7" cy="2093.3" r="1.7" fill="#e9dabe" opacity="0.039"/><circle cx="2164.1" cy="499.5" r="1.9" fill="#e9dabe" opacity="0.077"/><circle cx="1000" cy="74.3" r="2.6" fill="#e9dabe" opacity="0.074"/><circle cx="904.3" cy="521.6" r="3.5" fill="#e9dabe" opacity="0.042"/><circle cx="1316.5" cy="1556.2" r="3.5" fill="#e9dabe" opacity="0.046"/><circle cx="2203.8" cy="1931.5" r="2.8" fill="#e9dabe" opacity="0.060"/><circle cx="1987.6" cy="1793" r="2.2" fill="#e9dabe" opacity="0.062"/><circle cx="340.5" cy="774.1" r="2.2" fill="#e9dabe" opacity="0.037"/><circle cx="1053.2" cy="852" r="3.9" fill="#e9dabe" opacity="0.064"/><circle cx="2267.9" cy="2414.5" r="4.3" fill="#e9dabe" opacity="0.075"/><circle cx="1221.9" cy="1200.7" r="3.3" fill="#e9dabe" opacity="0.059"/><circle cx="1048.9" cy="2065.7" r="2" fill="#e9dabe" opacity="0.076"/><circle cx="1972.3" cy="166.2" r="2.7" fill="#e9dabe" opacity="0.036"/><circle cx="329.7" cy="2445.2" r="4.5" fill="#e9dabe" opacity="0.040"/><circle cx="458.6" cy="2527.7" r="1.6" fill="#e9dabe" opacity="0.075"/><circle cx="239.7" cy="2543.4" r="1.6" fill="#e9dabe" opacity="0.078"/><circle cx="2119.1" cy="1171.1" r="2.6" fill="#e9dabe" opacity="0.050"/><circle cx="1048.6" cy="2065.5" r="1.8" fill="#e9dabe" opacity="0.036"/><circle cx="1369.9" cy="1810.7" r="1.7" fill="#e9dabe" opacity="0.048"/><circle cx="2334.2" cy="2621.7" r="2.2" fill="#e9dabe" opacity="0.034"/><circle cx="248" cy="1806.6" r="4.5" fill="#e9dabe" opacity="0.043"/><circle cx="1568.3" cy="1659.3" r="2.7" fill="#e9dabe" opacity="0.047"/><circle cx="571.6" cy="1107.2" r="4.1" fill="#e9dabe" opacity="0.046"/><circle cx="355.1" cy="2149.3" r="1.9" fill="#e9dabe" opacity="0.044"/><circle cx="460.5" cy="2497.5" r="3.6" fill="#e9dabe" opacity="0.035"/><circle cx="660.9" cy="2402.5" r="3.7" fill="#e9dabe" opacity="0.035"/><circle cx="214" cy="2850.3" r="2.9" fill="#e9dabe" opacity="0.072"/><circle cx="2317.3" cy="2865.5" r="2" fill="#e9dabe" opacity="0.039"/><circle cx="1818.4" cy="2583.2" r="3.5" fill="#e9dabe" opacity="0.066"/><circle cx="175" cy="394.8" r="4.3" fill="#e9dabe" opacity="0.072"/><circle cx="1371.4" cy="426.3" r="4" fill="#e9dabe" opacity="0.077"/><circle cx="753.1" cy="393.6" r="2.7" fill="#e9dabe" opacity="0.079"/><circle cx="2235.9" cy="2314.4" r="4.3" fill="#e9dabe" opacity="0.067"/><circle cx="630.8" cy="1056.8" r="1.6" fill="#e9dabe" opacity="0.031"/><circle cx="2148.4" cy="1333" r="3.9" fill="#e9dabe" opacity="0.035"/><circle cx="526.5" cy="1699.4" r="3.3" fill="#e9dabe" opacity="0.042"/><circle cx="1953.7" cy="135.6" r="2.3" fill="#e9dabe" opacity="0.038"/><circle cx="901.5" cy="2830.7" r="3.6" fill="#e9dabe" opacity="0.050"/><circle cx="1105.4" cy="2639.8" r="3.5" fill="#e9dabe" opacity="0.056"/><path d="M2024.1,1863.9 Q1946.4,2207.7 1715.2,2412.9 Q1484,2618.1 1206,2619.6 Q927.9,2621.2 688.8,2374.8 Q449.7,2128.3 422.9,1824.2 Q396,1520 454.5,1199.7 Q513,879.4 729.4,716 Q945.8,552.6 1220.5,511.1 Q1495.2,469.7 1716.8,671.3 Q1938.4,872.9 2020.1,1196.5 Q2101.8,1520 2024.1,1863.9 Z" fill="#7c3a31" stroke="#e9dabe" stroke-width="10"/><clipPath id="a53-st"><path d="M2024.1,1863.9 Q1946.4,2207.7 1715.2,2412.9 Q1484,2618.1 1206,2619.6 Q927.9,2621.2 688.8,2374.8 Q449.7,2128.3 422.9,1824.2 Q396,1520 454.5,1199.7 Q513,879.4 729.4,716 Q945.8,552.6 1220.5,511.1 Q1495.2,469.7 1716.8,671.3 Q1938.4,872.9 2020.1,1196.5 Q2101.8,1520 2024.1,1863.9 Z"/></clipPath><g clip-path="url(#a53-st)"><polyline points="1200,1572.3 1203.6,1574.7 1208.3,1575.9 1213.7,1575.6 1219.4,1573.5 1224.7,1569.6 1229.1,1563.8 1231.9,1556.4 1232.8,1548 1231.4,1538.9 1227.4,1530 1220.8,1521.8 1211.8,1515.2 1200.9,1510.9 1188.6,1509.3 1175.6,1510.9 1162.8,1516 1151.1,1524.5 1141.4,1536 1134.6,1550.3 1131.3,1566.4 1132.1,1583.4 1137.3,1600.5 1146.8,1616.3 1160.3,1629.8 1177.2,1640 1196.8,1645.9 1217.9,1647 1239.3,1642.8 1259.7,1633.2 1277.7,1618.6 1292,1599.6 1301.6,1577 1305.5,1552.2 1303.3,1526.4 1294.8,1501.3 1280.1,1478.4 1259.8,1459.3 1235,1445.2 1206.8,1437.4 1176.9,1436.5 1147,1442.9 1118.9,1456.7 1094.5,1477.2 1075.2,1503.5 1062.6,1534.3 1057.6,1567.9 1060.8,1602.4 1072.5,1635.7 1092.1,1665.9 1118.9,1690.9 1151.5,1709.1 1188.2,1719.2 1226.9,1720.3 1265.4,1711.9 1301.3,1694.2 1332.6,1668 1357,1634.6 1373,1595.7 1379.4,1553.4 1375.4,1510.1 1360.9,1468.4 1336.6,1430.8 1303.4,1399.6 1263.2,1377 1218.1,1364.3 1170.6,1362.8 1123.5,1372.9 1079.5,1394.2" fill="none" stroke="#e9dabe" stroke-width="22" stroke-linecap="round" stroke-linejoin="round"/><polyline points="990.2,1208.8 989.9,1204.5 991.2,1199.8 994.1,1195.3 998.8,1191.5 1004.9,1188.8 1012.1,1187.9 1019.9,1189.1 1027.6,1192.6 1034.8,1198.4 1040.5,1206.3 1044.3,1216.1 1045.5,1227.1 1043.8,1238.8 1039,1250.3 1031.1,1260.7 1020.3,1269.2 1007.1,1275.1 992.3,1277.7 976.5,1276.5 961,1271.3 946.6,1262.1 934.4,1249.1 925.4,1233 920.5,1214.5 920.2,1194.7 924.8,1174.8 934.4,1156 948.8,1139.6 967.2,1126.7 988.9,1118.4 1012.5,1115.5 1036.8,1118.5 1060.3,1127.5 1081.6,1142.3 1099,1162.3 1111.5,1186.4 1118,1213.6 1117.7,1242.1 1110.4,1270.4 1096.2,1296.8 1075.7,1319.4 1049.8,1336.9 1019.8,1347.8 987.3,1351.3 954.3,1346.9 922.8,1334.4 894.5,1314.3 871.5,1287.6 855.2,1255.5 846.9,1219.7 847.4,1182.4 857,1145.6 875.5,1111.6 902,1082.5 935.3,1060.1 973.5,1046.2 1014.7,1041.7 1056.4,1047.3 1096.2,1063 1131.7,1088.1 1160.6,1121.4 1181,1161.3 1191.4,1205.6 1191,1251.8 1179.3,1297.1 1156.9,1339 1124.6,1374.8 1084.2,1402.3" fill="none" stroke="#e9dabe" stroke-width="22" stroke-linecap="round" stroke-linejoin="round"/><polyline points="1409.8,1208.8 1410.1,1204.5 1408.8,1199.8 1405.9,1195.3 1401.2,1191.5 1395.1,1188.8 1387.9,1187.9 1380.1,1189.1 1372.4,1192.6 1365.2,1198.4 1359.5,1206.3 1355.7,1216.1 1354.5,1227.1 1356.2,1238.8 1361,1250.3 1368.9,1260.7 1379.7,1269.2 1392.9,1275.1 1407.7,1277.7 1423.5,1276.5 1439,1271.3 1453.4,1262.1 1465.6,1249.1 1474.6,1233 1479.5,1214.5 1479.8,1194.7 1475.2,1174.8 1465.6,1156 1451.2,1139.6 1432.8,1126.7 1411.1,1118.4 1387.5,1115.5 1363.2,1118.5 1339.7,1127.5 1318.4,1142.3 1301,1162.3 1288.5,1186.4 1282,1213.6 1282.3,1242.1 1289.6,1270.4 1303.8,1296.8 1324.3,1319.4 1350.2,1336.9 1380.2,1347.8 1412.7,1351.3 1445.7,1346.9 1477.2,1334.4 1505.5,1314.3 1528.5,1287.6 1544.8,1255.5 1553.1,1219.7 1552.6,1182.4 1543,1145.6 1524.5,1111.6 1498,1082.5 1464.7,1060.1 1426.5,1046.2 1385.3,1041.7 1343.6,1047.3 1303.8,1063 1268.3,1088.1 1239.4,1121.4 1219,1161.3 1208.6,1205.6 1209,1251.8 1220.7,1297.1 1243.1,1339 1275.4,1374.8 1315.8,1402.3" fill="none" stroke="#e9dabe" stroke-width="22" stroke-linecap="round" stroke-linejoin="round"/><polyline points="614,1259.3 613.2,1257.2 613.1,1254.8 614,1252.1 615.8,1249.6 618.5,1247.5 622,1246.2 626.1,1245.8 630.4,1246.7 634.8,1248.8 638.6,1252.2 641.7,1256.8 643.6,1262.4 644,1268.6 642.7,1275.1 639.7,1281.4 635,1287 628.7,1291.5 621.2,1294.4 612.8,1295.4 604.1,1294.2 595.5,1290.8 587.8,1285.1 581.5,1277.5 577.1,1268.2 575.1,1257.7 575.6,1246.7 579,1235.8 585.2,1225.7 593.8,1217.2 604.6,1210.8 617,1207.2 630.3,1206.7 643.6,1209.5 656.2,1215.7 667.3,1224.9 675.9,1236.9 681.6,1250.9 683.7,1266.3 682,1282 676.4,1297.3 667,1311.1 654.4,1322.4 639,1330.5 621.8,1334.7 603.6,1334.7 585.7,1330.1 569.1,1321.2 554.8,1308.3 543.9,1292 537.1,1273.2 535,1252.9 537.9,1232.4 545.8,1212.8 558.5,1195.4 575.2,1181.4 595.2,1171.6 617.3,1166.9" fill="none" stroke="#e9dabe" stroke-width="14" stroke-linecap="round" stroke-linejoin="round"/><polyline points="1437.6,2024.5 1435.7,2025.1 1434,2026.5 1432.6,2028.6 1431.8,2031.2 1431.9,2034.3 1433,2037.5 1435,2040.6 1438.1,2043.2 1442,2045 1446.6,2045.8 1451.5,2045.3 1456.5,2043.5 1461.1,2040.2 1464.9,2035.7 1467.6,2030 1468.9,2023.6 1468.5,2016.6 1466.2,2009.7 1462.2,2003.3 1456.4,1997.9 1449.2,1993.9 1440.9,1991.7 1432,1991.6 1423,1993.7 1414.5,1998.2 1407.1,2004.9 1401.4,2013.4 1397.9,2023.3 1396.8,2034.2 1398.5,2045.4 1402.9,2056.1 1410.1,2065.6 1419.6,2073.4 1431,2078.7 1443.7,2081.2 1456.9,2080.5 1469.9,2076.5 1481.9,2069.3 1491.9,2059.2 1499.4,2046.7 1503.8,2032.4 1504.5,2017.1 1501.5,2001.8 1494.7,1987.4 1484.5,1974.7 1471.2,1964.7 1455.5,1958.2 1438.4,1955.5 1420.9,1957.1 1403.9,1962.9 1388.5,1972.9 1375.8,1986.5 1366.6,2003.1 1361.6,2021.8 1361.3,2041.5 1365.7,2060.9 1374.9,2079.1" fill="none" stroke="#e9dabe" stroke-width="14" stroke-linecap="round" stroke-linejoin="round"/><polyline points="636.2,1093.6 637,1095.2 638.6,1096.6 640.7,1097.5 643.3,1097.7 646.1,1097.1 648.8,1095.7 651.2,1093.3 653.1,1090 654.1,1086.2 654,1081.9 652.8,1077.4 650.3,1073.2 646.5,1069.6 641.7,1066.8 636.1,1065.3 630,1065.3 623.8,1066.8 617.8,1070 612.7,1074.8 608.7,1081 606.2,1088.2 605.6,1096.2 607.1,1104.3 610.6,1112.1 616.1,1119.1 623.4,1124.7 632.1,1128.5 641.8,1130.1 651.9,1129.2 661.8,1125.8 670.8,1119.9 678.3,1111.8 683.7,1101.8 686.7,1090.5 686.8,1078.5 684,1066.6 678.1,1055.4 669.6,1045.7 658.6,1038.2 645.9,1033.5 632.2,1032 618.1,1033.8 604.6,1039.2 592.6,1047.8 582.8,1059.3 576,1073.1 572.6,1088.5 573.1,1104.5 577.5,1120.3 585.7,1134.8 597.4,1147.1 612,1156.4 628.7,1161.9 646.5,1163.4 664.5,1160.4 681.5,1153 696.5,1141.6" fill="none" stroke="#e9dabe" stroke-width="14" stroke-linecap="round" stroke-linejoin="round"/><polyline points="1377.9,2130.9 1378.7,2132.5 1379,2134.5 1378.5,2136.7 1377.3,2138.9 1375.2,2140.8 1372.5,2142.2 1369.2,2142.9 1365.6,2142.6 1362,2141.2 1358.5,2138.8 1355.7,2135.3 1353.7,2131 1352.8,2126 1353.2,2120.6 1355.1,2115.2 1358.5,2110.3 1363.2,2106.1 1369,2103.1 1375.7,2101.6 1382.9,2101.8 1390.1,2103.8 1396.8,2107.8 1402.6,2113.4 1407,2120.6 1409.5,2128.9 1410,2137.9 1408.2,2147 1404.1,2155.7 1397.8,2163.3 1389.6,2169.4 1379.9,2173.4 1369.2,2174.9 1358.1,2173.8 1347.4,2169.9 1337.7,2163.4 1329.6,2154.4 1323.8,2143.5 1320.8,2131.3 1320.8,2118.3 1324.1,2105.5 1330.4,2093.5 1339.7,2083.3 1351.5,2075.4 1365.1,2070.5 1379.8,2069 1394.7,2071.1 1408.9,2076.9 1421.6,2086.2 1431.8,2098.4 1439,2113.1 1442.4,2129.3 1441.8,2146.2 1437.1,2162.7 1428.3,2177.9 1415.9,2190.7 1400.6,2200.3 1383.1,2206.1" fill="none" stroke="#e9dabe" stroke-width="14" stroke-linecap="round" stroke-linejoin="round"/><polyline points="1246.4,769.8 1245.3,768.4 1244.7,766.5 1244.7,764.2 1245.5,761.8 1247.1,759.5 1249.5,757.6 1252.6,756.4 1256.2,756 1260.1,756.6 1263.9,758.3 1267.4,761.1 1270.2,765 1272,769.7 1272.6,775.1 1271.8,780.7 1269.5,786.3 1265.7,791.3 1260.6,795.3 1254.3,798.1 1247.2,799.4 1239.7,798.8 1232.4,796.2 1225.6,791.8 1219.9,785.6 1215.8,778 1213.6,769.3 1213.5,760 1215.9,750.7 1220.5,741.9 1227.4,734.4 1236.2,728.5 1246.4,724.9 1257.4,723.9 1268.7,725.6 1279.5,730.1 1289.2,737.3 1297,746.8 1302.4,758.3 1304.9,771 1304.2,784.2 1300.3,797.2 1293.2,809.1 1283.2,819.1 1270.8,826.6 1256.7,830.9 1241.6,831.8 1226.5,828.9 1212.3,822.3 1199.9,812.2 1190,799.3 1183.5,784 1180.7,767.3 1182.2,750.2 1187.8,733.6 1197.4,718.6 1210.6,706.1 1226.6,697.1" fill="none" stroke="#e9dabe" stroke-width="14" stroke-linecap="round" stroke-linejoin="round"/><polyline points="521.8,2450 556.5,2373.5 591.1,2450" fill="none" stroke="#e9dabe" stroke-width="12.6"/><polyline points="620.8,2450 655.5,2373.5 690.1,2450" fill="none" stroke="#e9dabe" stroke-width="12.6"/><polyline points="719.8,2450 754.5,2373.5 789.1,2450" fill="none" stroke="#e9dabe" stroke-width="12.6"/><polyline points="818.9,2450 853.5,2373.5 888.1,2450" fill="none" stroke="#e9dabe" stroke-width="12.6"/><polyline points="917.9,2450 952.5,2373.5 987.1,2450" fill="none" stroke="#e9dabe" stroke-width="12.6"/><polyline points="1016.9,2450 1051.5,2373.5 1086.2,2450" fill="none" stroke="#e9dabe" stroke-width="12.6"/><polyline points="1115.8,2450 1150.5,2373.5 1185.2,2450" fill="none" stroke="#e9dabe" stroke-width="12.6"/><polyline points="1214.8,2450 1249.5,2373.5 1284.2,2450" fill="none" stroke="#e9dabe" stroke-width="12.6"/><polyline points="1313.8,2450 1348.5,2373.5 1383.2,2450" fill="none" stroke="#e9dabe" stroke-width="12.6"/><polyline points="1412.8,2450 1447.5,2373.5 1482.2,2450" fill="none" stroke="#e9dabe" stroke-width="12.6"/><polyline points="1511.8,2450 1546.5,2373.5 1581.2,2450" fill="none" stroke="#e9dabe" stroke-width="12.6"/><polyline points="1610.8,2450 1645.5,2373.5 1680.2,2450" fill="none" stroke="#e9dabe" stroke-width="12.6"/><polyline points="1709.8,2450 1744.5,2373.5 1779.2,2450" fill="none" stroke="#e9dabe" stroke-width="12.6"/><polyline points="1808.8,2450 1843.5,2373.5 1878.2,2450" fill="none" stroke="#e9dabe" stroke-width="12.6"/></g><circle cx="390" cy="200" r="15.6" fill="#e9dabe"/><circle cx="450" cy="200" r="15.6" fill="#e9dabe"/><circle cx="510" cy="200" r="15.6" fill="#e9dabe"/><circle cx="570" cy="200" r="15.6" fill="#e9dabe"/><circle cx="630" cy="200" r="15.6" fill="#e9dabe"/><circle cx="690" cy="200" r="15.6" fill="#e9dabe"/><circle cx="750" cy="200" r="15.6" fill="#e9dabe"/><circle cx="810" cy="200" r="15.6" fill="#e9dabe"/><circle cx="870" cy="200" r="15.6" fill="#e9dabe"/><circle cx="930" cy="200" r="15.6" fill="#e9dabe"/><circle cx="990" cy="200" r="15.6" fill="#e9dabe"/><circle cx="1050" cy="200" r="15.6" fill="#e9dabe"/><circle cx="1110" cy="200" r="15.6" fill="#e9dabe"/><circle cx="1170" cy="200" r="15.6" fill="#e9dabe"/><circle cx="1230" cy="200" r="15.6" fill="#e9dabe"/><circle cx="1290" cy="200" r="15.6" fill="#e9dabe"/><circle cx="1350" cy="200" r="15.6" fill="#e9dabe"/><circle cx="1410" cy="200" r="15.6" fill="#e9dabe"/><circle cx="1470" cy="200" r="15.6" fill="#e9dabe"/><circle cx="1530" cy="200" r="15.6" fill="#e9dabe"/><circle cx="1590" cy="200" r="15.6" fill="#e9dabe"/><circle cx="1650" cy="200" r="15.6" fill="#e9dabe"/><circle cx="1710" cy="200" r="15.6" fill="#e9dabe"/><circle cx="1770" cy="200" r="15.6" fill="#e9dabe"/><circle cx="1830" cy="200" r="15.6" fill="#e9dabe"/><circle cx="1890" cy="200" r="15.6" fill="#e9dabe"/><circle cx="1950" cy="200" r="15.6" fill="#e9dabe"/><circle cx="2010" cy="200" r="15.6" fill="#e9dabe"/><circle cx="390" cy="2800" r="15.6" fill="#e9dabe"/><circle cx="450" cy="2800" r="15.6" fill="#e9dabe"/><circle cx="510" cy="2800" r="15.6" fill="#e9dabe"/><circle cx="570" cy="2800" r="15.6" fill="#e9dabe"/><circle cx="630" cy="2800" r="15.6" fill="#e9dabe"/><circle cx="690" cy="2800" r="15.6" fill="#e9dabe"/><circle cx="750" cy="2800" r="15.6" fill="#e9dabe"/><circle cx="810" cy="2800" r="15.6" fill="#e9dabe"/><circle cx="870" cy="2800" r="15.6" fill="#e9dabe"/><circle cx="930" cy="2800" r="15.6" fill="#e9dabe"/><circle cx="990" cy="2800" r="15.6" fill="#e9dabe"/><circle cx="1050" cy="2800" r="15.6" fill="#e9dabe"/><circle cx="1110" cy="2800" r="15.6" fill="#e9dabe"/><circle cx="1170" cy="2800" r="15.6" fill="#e9dabe"/><circle cx="1230" cy="2800" r="15.6" fill="#e9dabe"/><circle cx="1290" cy="2800" r="15.6" fill="#e9dabe"/><circle cx="1350" cy="2800" r="15.6" fill="#e9dabe"/><circle cx="1410" cy="2800" r="15.6" fill="#e9dabe"/><circle cx="1470" cy="2800" r="15.6" fill="#e9dabe"/><circle cx="1530" cy="2800" r="15.6" fill="#e9dabe"/><circle cx="1590" cy="2800" r="15.6" fill="#e9dabe"/><circle cx="1650" cy="2800" r="15.6" fill="#e9dabe"/><circle cx="1710" cy="2800" r="15.6" fill="#e9dabe"/><circle cx="1770" cy="2800" r="15.6" fill="#e9dabe"/><circle cx="1830" cy="2800" r="15.6" fill="#e9dabe"/><circle cx="1890" cy="2800" r="15.6" fill="#e9dabe"/><circle cx="1950" cy="2800" r="15.6" fill="#e9dabe"/><circle cx="2010" cy="2800" r="15.6" fill="#e9dabe"/><rect x="100" y="100" width="2200" height="2800" fill="none" stroke="#e9dabe" stroke-width="9"/><rect x="142" y="142" width="2116" height="2716" fill="none" stroke="#e9dabe" stroke-width="3" opacity="0.65"/></svg></svg>