<svg xmlns="http://www.w3.org/2000/svg" width="2400" height="1800" viewBox="0 0 2400 1800"><rect width="2400" height="1800" fill="#dfe4dc"/><rect y="1400" width="2400" height="400" fill="#c2a67e"/><line x1="60" y1="1400" x2="10" y2="1800" stroke="#00000015" stroke-width="5"/><line x1="260" y1="1400" x2="210" y2="1800" stroke="#00000015" stroke-width="5"/><line x1="460" y1="1400" x2="410" y2="1800" stroke="#00000015" stroke-width="5"/><line x1="660" y1="1400" x2="610" y2="1800" stroke="#00000015" stroke-width="5"/><line x1="860" y1="1400" x2="810" y2="1800" stroke="#00000015" stroke-width="5"/><line x1="1060" y1="1400" x2="1010" y2="1800" stroke="#00000015" stroke-width="5"/><line x1="1260" y1="1400" x2="1210" y2="1800" stroke="#00000015" stroke-width="5"/><line x1="1460" y1="1400" x2="1410" y2="1800" stroke="#00000015" stroke-width="5"/><line x1="1660" y1="1400" x2="1610" y2="1800" stroke="#00000015" stroke-width="5"/><line x1="1860" y1="1400" x2="1810" y2="1800" stroke="#00000015" stroke-width="5"/><line x1="2060" y1="1400" x2="2010" y2="1800" stroke="#00000015" stroke-width="5"/><line x1="2260" y1="1400" x2="2210" y2="1800" stroke="#00000015" stroke-width="5"/><rect x="180" y="260" width="900" height="620" fill="#8a6a48"/><rect x="215" y="295" width="830" height="550" fill="#41524a"/><line x1="280" y1="420" x2="760" y2="420" stroke="#ffffff66" stroke-width="9" stroke-linecap="round"/><line x1="280" y1="520" x2="620" y2="520" stroke="#ffffff44" stroke-width="9" stroke-linecap="round"/><circle cx="880" cy="560" r="90" fill="none" stroke="#ffffff55" stroke-width="8"/><rect x="215" y="845" width="830" height="22" fill="#6f5436"/><rect x="330" y="1240" width="640" height="60" rx="10" fill="#9c7449"/><rect x="370" y="1300" width="60" height="240" fill="#8a6540"/><rect x="870" y="1300" width="60" height="240" fill="#8a6540"/><rect x="430" y="1160" width="150" height="80" rx="8" fill="#c98f4e"/><rect x="450" y="1120" width="150" height="40" rx="8" fill="#7c3a31"/><circle cx="800" cy="1130" r="86" fill="#7fa3b8"/><path d="M760,1060 Q820,1100 780,1190 M740,1090 Q800,1120 850,1100" stroke="#5d8069" stroke-width="16" fill="none" stroke-linecap="round"/><circle cx="800" cy="1130" r="86" fill="none" stroke="#6b5233" stroke-width="7"/><line x1="800" y1="1216" x2="800" y2="1250" stroke="#6b5233" stroke-width="10"/><rect x="750" y="1244" width="100" height="14" rx="7" fill="#6b5233"/><rect x="1980" y="700" width="300" height="800" fill="#9c7449"/><rect x="2000" y="930" width="260" height="16" fill="#7c5a37"/><rect x="2020" y="790" width="36" height="140" fill="#b3502f"/><rect x="2066" y="802" width="36" height="128" fill="#39685c"/><rect x="2112" y="790" width="36" height="140" fill="#c9a227"/><rect x="2158" y="802" width="36" height="128" fill="#2c4661"/><rect x="2204" y="790" width="36" height="140" fill="#8a4423"/><rect x="2000" y="1180" width="260" height="16" fill="#7c5a37"/><rect x="2020" y="1040" width="36" height="140" fill="#39685c"/><rect x="2066" y="1052" width="36" height="128" fill="#c9a227"/><rect x="2112" y="1040" width="36" height="140" fill="#2c4661"/><rect x="2158" y="1052" width="36" height="128" fill="#8a4423"/><rect x="2204" y="1040" width="36" height="140" fill="#b3502f"/><rect x="2000" y="1430" width="260" height="16" fill="#7c5a37"/><rect x="2020" y="1290" width="36" height="140" fill="#c9a227"/><rect x="2066" y="1302" width="36" height="128" fill="#2c4661"/><rect x="2112" y="1290" width="36" height="140" fill="#8a4423"/><rect x="2158" y="1302" width="36" height="128" fill="#b3502f"/><rect x="2204" y="1290" width="36" height="140" fill="#39685c"/><defs><filter id="a60c-sh" x="-30%" y="-30%" width="160%" height="160%"><feGaussianBlur stdDeviation="16"/></filter></defs><rect x="1340.5" y="298.5" width="517" height="635" fill="#000" opacity="0.28" filter="url(#a60c-sh)"/><rect x="1326.5" y="276.5" width="517" height="635" fill="#3d342a"/><rect x="1341.8" y="291.8" width="486.4" height="604.5" fill="none" stroke="#00000055" stroke-width="3"/><rect x="1350" y="300" width="470" height="588" fill="#f6f2ea"/><svg x="1385.3" y="335.3" width="399.5" height="517.5" viewBox="0 0 2400 3000" preserveAspectRatio="xMidYMid slice"><rect width="2400" height="3000" fill="#571f1c"/><radialGradient id="a60-vig" cx="50%" cy="42%" r="80%"><stop offset="55%" stop-color="#000" stop-opacity="0"/><stop offset="100%" stop-color="#000" stop-opacity="0.15"/></radialGradient><rect width="2400" height="3000" fill="url(#a60-vig)"/><circle cx="1541.1" cy="2944.9" r="2.5" fill="#e9dabe" opacity="0.037"/><circle cx="1687.8" cy="1786.9" r="4.4" fill="#e9dabe" opacity="0.068"/><circle cx="1457.5" cy="1444.7" r="2.9" fill="#e9dabe" opacity="0.062"/><circle cx="1559.2" cy="2742.1" r="3.1" fill="#e9dabe" opacity="0.056"/><circle cx="1703.5" cy="1471.7" r="2.9" fill="#e9dabe" opacity="0.074"/><circle cx="992.6" cy="1172.5" r="2.9" fill="#e9dabe" opacity="0.072"/><circle cx="343.9" cy="2192.2" r="4.4" fill="#e9dabe" opacity="0.055"/><circle cx="735.4" cy="2608.7" r="4.2" fill="#e9dabe" opacity="0.032"/><circle cx="1391.6" cy="1123.1" r="3.9" fill="#e9dabe" opacity="0.042"/><circle cx="2292.8" cy="1084.7" r="1.7" fill="#e9dabe" opacity="0.060"/><circle cx="1046" cy="933.5" r="3.5" fill="#e9dabe" opacity="0.040"/><circle cx="1592.7" cy="426.4" r="1.8" fill="#e9dabe" opacity="0.062"/><circle cx="1442.2" cy="351.6" r="2.7" fill="#e9dabe" opacity="0.079"/><circle cx="1332.1" cy="2206.5" r="2.8" fill="#e9dabe" opacity="0.073"/><circle cx="1537.7" cy="1039.7" r="3.4" fill="#e9dabe" opacity="0.076"/><circle cx="170.9" cy="2622.2" r="2.1" fill="#e9dabe" opacity="0.048"/><circle cx="1308.6" cy="673.5" r="3.7" fill="#e9dabe" opacity="0.048"/><circle cx="1435.8" cy="2870.7" r="2.3" fill="#e9dabe" opacity="0.078"/><circle cx="552.7" cy="1873.3" r="3.8" fill="#e9dabe" opacity="0.064"/><circle cx="2336.9" cy="611.8" r="3.5" fill="#e9dabe" opacity="0.069"/><circle cx="2340.1" cy="2910.2" r="2.2" fill="#e9dabe" opacity="0.041"/><circle cx="1383.1" cy="2672.6" r="2" fill="#e9dabe" opacity="0.075"/><circle cx="954.5" cy="2524" r="3.1" fill="#e9dabe" opacity="0.060"/><circle cx="2320.1" cy="164.3" r="2.3" fill="#e9dabe" opacity="0.076"/><circle cx="2050.8" cy="2073.8" r="1.6" fill="#e9dabe" opacity="0.052"/><circle cx="512.2" cy="1190.4" r="4.4" fill="#e9dabe" opacity="0.036"/><circle cx="269.7" cy="2384.1" r="2.7" fill="#e9dabe" opacity="0.071"/><circle cx="2220.6" cy="1941.1" r="3.4" fill="#e9dabe" opacity="0.076"/><circle cx="1561.1" cy="738.6" r="2.3" fill="#e9dabe" opacity="0.030"/><circle cx="1979.6" cy="859.8" r="4.2" fill="#e9dabe" opacity="0.036"/><circle cx="2224.8" cy="52" r="4.4" fill="#e9dabe" opacity="0.068"/><circle cx="1085.9" cy="877.3" r="1.9" fill="#e9dabe" opacity="0.079"/><circle cx="1266.5" cy="1588.5" r="1.7" fill="#e9dabe" opacity="0.071"/><circle cx="454.3" cy="549.7" r="2.5" fill="#e9dabe" opacity="0.056"/><circle cx="661.9" cy="400.5" r="3.6" fill="#e9dabe" opacity="0.073"/><circle cx="209" cy="2819.4" r="1.6" fill="#e9dabe" opacity="0.035"/><circle cx="675.6" cy="1168.1" r="3.6" fill="#e9dabe" opacity="0.040"/><circle cx="369.6" cy="1393.1" r="2.9" fill="#e9dabe" opacity="0.035"/><circle cx="1349.5" cy="593.4" r="3.7" fill="#e9dabe" opacity="0.070"/><circle cx="2225.6" cy="2742.9" r="4.1" fill="#e9dabe" opacity="0.059"/><circle cx="1844" cy="1530.7" r="3.2" fill="#e9dabe" opacity="0.080"/><circle cx="433.1" cy="2479.4" r="3.7" fill="#e9dabe" opacity="0.052"/><circle cx="885.6" cy="2110.2" r="1.7" fill="#e9dabe" opacity="0.036"/><circle cx="712.9" cy="132.2" r="3.8" fill="#e9dabe" opacity="0.046"/><circle cx="1310" cy="1805.3" r="3" fill="#e9dabe" opacity="0.051"/><circle cx="1820" cy="2800.3" r="1.9" fill="#e9dabe" opacity="0.049"/><circle cx="1061.7" cy="56.3" r="1.8" fill="#e9dabe" opacity="0.066"/><circle cx="40.8" cy="2586" r="2.4" fill="#e9dabe" opacity="0.064"/><circle cx="1067.7" cy="1884.7" r="2.6" fill="#e9dabe" opacity="0.075"/><circle cx="470.1" cy="2455.4" r="4" fill="#e9dabe" opacity="0.044"/><circle cx="615.6" cy="396" r="2.9" fill="#e9dabe" opacity="0.057"/><circle cx="420.9" cy="1682" r="3.1" fill="#e9dabe" opacity="0.067"/><circle cx="951.5" cy="2915.1" r="2.1" fill="#e9dabe" opacity="0.074"/><circle cx="2168" cy="2596.7" r="4.5" fill="#e9dabe" opacity="0.031"/><circle cx="1853.5" cy="2783.5" r="2" fill="#e9dabe" opacity="0.049"/><circle cx="375.5" cy="53.4" r="1.6" fill="#e9dabe" opacity="0.076"/><circle cx="1067.5" cy="1495.7" r="1.8" fill="#e9dabe" opacity="0.077"/><circle cx="1227.1" cy="1450.2" r="3.2" fill="#e9dabe" opacity="0.048"/><circle cx="1195.7" cy="730.1" r="3.5" fill="#e9dabe" opacity="0.074"/><circle cx="946.3" cy="1744.2" r="2.3" fill="#e9dabe" opacity="0.058"/><circle cx="978.6" cy="2470.9" r="2" fill="#e9dabe" opacity="0.045"/><circle cx="1226.7" cy="188.1" r="4.4" fill="#e9dabe" opacity="0.080"/><circle cx="861.6" cy="1936.9" r="3.6" fill="#e9dabe" opacity="0.048"/><circle cx="1867.9" cy="879" r="2" fill="#e9dabe" opacity="0.036"/><circle cx="1546.3" cy="1530.3" r="4.1" fill="#e9dabe" opacity="0.063"/><circle cx="1065.2" cy="2475.7" r="2" fill="#e9dabe" opacity="0.049"/><circle cx="1174.8" cy="635.2" r="2.9" fill="#e9dabe" opacity="0.069"/><circle cx="1711.8" cy="2268.3" r="2.3" fill="#e9dabe" opacity="0.055"/><circle cx="47.9" cy="2741.7" r="2.6" fill="#e9dabe" opacity="0.079"/><circle cx="829" cy="1987.8" r="1.7" fill="#e9dabe" opacity="0.071"/><circle cx="1177.4" cy="1504.2" r="3.9" fill="#e9dabe" opacity="0.041"/><circle cx="2326.9" cy="2033.4" r="3" fill="#e9dabe" opacity="0.031"/><circle cx="1160.1" cy="2731" r="1.5" fill="#e9dabe" opacity="0.068"/><circle cx="336.6" cy="1573.2" r="1.7" fill="#e9dabe" opacity="0.072"/><circle cx="1071.9" cy="1753.8" r="3" fill="#e9dabe" opacity="0.073"/><circle cx="425.7" cy="958.4" r="1.7" fill="#e9dabe" opacity="0.055"/><circle cx="706.1" cy="2605.2" r="4.4" fill="#e9dabe" opacity="0.056"/><circle cx="579.3" cy="1024.9" r="1.7" fill="#e9dabe" opacity="0.030"/><circle cx="198.4" cy="1074.5" r="2.5" fill="#e9dabe" opacity="0.074"/><circle cx="2123.4" cy="2523.4" r="2.6" fill="#e9dabe" opacity="0.032"/><path d="M1912.6,1770.6 Q1844.2,2041.2 1709.7,2247.7 Q1575.1,2454.1 1387.6,2518.2 Q1200,2582.2 1009.6,2542 Q819.2,2501.7 682.3,2287.1 Q545.5,2072.6 496.8,1786.3 Q448.2,1500 484.7,1211.2 Q521.2,922.4 665.1,720.9 Q809,519.4 1004.5,443.8 Q1200,368.2 1383.6,446 Q1567.1,523.9 1702.8,736.8 Q1838.4,949.8 1909.7,1224.9 Q1980.9,1500 1912.6,1770.6 Z" fill="#7c3a31" stroke="#e9dabe" stroke-width="9"/><clipPath id="a60-tb"><path d="M1843.8,1760 Q1797.6,2020 1671.3,2210.3 Q1545,2400.7 1372.5,2470.3 Q1200,2540 1027.5,2470.3 Q855,2400.7 728.7,2210.3 Q602.4,2020 556.2,1760 Q510,1500 556.2,1240 Q602.4,980 728.7,789.7 Q855,599.3 1027.5,529.7 Q1200,460 1372.5,529.7 Q1545,599.3 1671.3,789.7 Q1797.6,980 1843.8,1240 Q1890,1500 1843.8,1760 Z"/></clipPath><g clip-path="url(#a60-tb)"><line x1="560" y1="560" x2="1840" y2="560" stroke="#e9dabe" stroke-width="4" opacity="0.35"/><path d="M600,664.4 l 23.9,-15.2 l 0,10.9 l 54.3,0 l 0,8 L621.7,670.4 Z" fill="#e9dabe"/><rect x="731.6" y="621" width="10" height="86.9" fill="#e9dabe"/><rect x="753.6" y="621" width="10" height="86.9" fill="#e9dabe"/><rect x="874.2" y="621" width="10" height="86.9" fill="#e9dabe"/><rect x="896.2" y="621" width="10" height="86.9" fill="#e9dabe"/><path d="M1003.9,631.9 L1036.5,664.4 L1003.9,697 l -8,-6 L1021.2,664.4 l -26.1,-23.9 Z" fill="#e9dabe"/><path d="M1145.5,631.9 L1178.1,664.4 L1145.5,697 l -8,-6 L1162.9,664.4 l -26.1,-23.9 Z" fill="#e9dabe"/><path d="M1295.1,664.4 l 23.9,-15.2 l 0,10.9 l 54.3,0 l 0,8 L1316.8,670.4 Z" fill="#e9dabe"/><rect x="1436.7" y="621" width="10" height="86.9" fill="#e9dabe"/><rect x="1458.7" y="621" width="10" height="86.9" fill="#e9dabe"/><path d="M1577.4,631.9 L1609.9,664.4 L1577.4,697 l -8,-6 L1594.7,664.4 l -26.1,-23.9 Z" fill="#e9dabe"/><path d="M1700,631.9 L1732.6,664.4 L1700,697 l -8,-6 L1717.4,664.4 l -26.1,-23.9 Z" fill="#e9dabe"/><line x1="560" y1="768.9" x2="1840" y2="768.9" stroke="#e9dabe" stroke-width="4" opacity="0.35"/><rect x="600" y="829.9" width="10" height="86.9" fill="#e9dabe"/><rect x="622" y="829.9" width="10" height="86.9" fill="#e9dabe"/><path d="M736.6,840.7 L769.2,873.3 L736.6,905.9 l -8,-6 L754,873.3 l -26.1,-23.9 Z" fill="#e9dabe"/><path d="M873.2,819 l 17.4,23.9 l -8.7,0 L875.4,927.6 l -8,0 Z" fill="#e9dabe"/><path d="M999.9,840.7 L1032.5,873.3 L999.9,905.9 l -8,-6 L1017.2,873.3 l -26.1,-23.9 Z" fill="#e9dabe"/><path d="M1122.5,873.3 l 23.9,-15.2 l 0,10.9 l 54.3,0 l 0,8 L1144.2,879.3 Z" fill="#e9dabe"/><path d="M1247.1,873.3 l 23.9,-15.2 l 0,10.9 l 54.3,0 l 0,8 L1268.8,879.3 Z" fill="#e9dabe"/><rect x="1369.7" y="829.9" width="10" height="86.9" fill="#e9dabe"/><rect x="1391.7" y="829.9" width="10" height="86.9" fill="#e9dabe"/><path d="M1500.4,819 l 17.4,23.9 l -8.7,0 L1502.5,927.6 l -8,0 Z" fill="#e9dabe"/><path d="M1644,873.3 l 23.9,-15.2 l 0,10.9 l 54.3,0 l 0,8 L1665.7,879.3 Z" fill="#e9dabe"/><line x1="560" y1="977.8" x2="1840" y2="977.8" stroke="#e9dabe" stroke-width="4" opacity="0.35"/><path d="M600,1049.6 L632.6,1082.2 L600,1114.8 l -8,-6 L617.4,1082.2 l -26.1,-23.9 Z" fill="#e9dabe"/><path d="M731.6,1049.6 L764.2,1082.2 L731.6,1114.8 l -8,-6 L749,1082.2 l -26.1,-23.9 Z" fill="#e9dabe"/><rect x="883.2" y="1038.8" width="10" height="86.9" fill="#e9dabe"/><rect x="905.2" y="1038.8" width="10" height="86.9" fill="#e9dabe"/><rect x="1021.9" y="1038.8" width="10" height="86.9" fill="#e9dabe"/><rect x="1043.9" y="1038.8" width="10" height="86.9" fill="#e9dabe"/><path d="M1164.5,1082.2 l 23.9,-15.2 l 0,10.9 l 54.3,0 l 0,8 L1186.2,1088.2 Z" fill="#e9dabe"/><rect x="1303.1" y="1038.8" width="10" height="86.9" fill="#e9dabe"/><rect x="1325.1" y="1038.8" width="10" height="86.9" fill="#e9dabe"/><path d="M1442.7,1027.9 l 17.4,23.9 l -8.7,0 L1444.9,1136.5 l -8,0 Z" fill="#e9dabe"/><path d="M1579.4,1027.9 l 17.4,23.9 l -8.7,0 L1581.5,1136.5 l -8,0 Z" fill="#e9dabe"/><rect x="1707" y="1038.8" width="10" height="86.9" fill="#e9dabe"/><rect x="1729" y="1038.8" width="10" height="86.9" fill="#e9dabe"/><line x1="560" y1="1186.7" x2="1840" y2="1186.7" stroke="#e9dabe" stroke-width="4" opacity="0.35"/><rect x="600" y="1247.7" width="10" height="86.9" fill="#e9dabe"/><rect x="622" y="1247.7" width="10" height="86.9" fill="#e9dabe"/><rect x="730.6" y="1247.7" width="10" height="86.9" fill="#e9dabe"/><rect x="752.6" y="1247.7" width="10" height="86.9" fill="#e9dabe"/><path d="M857.2,1258.5 L889.8,1291.1 L857.2,1323.7 l -8,-6 L874.6,1291.1 l -26.1,-23.9 Z" fill="#e9dabe"/><path d="M1002.9,1258.5 L1035.5,1291.1 L1002.9,1323.7 l -8,-6 L1020.2,1291.1 l -26.1,-23.9 Z" fill="#e9dabe"/><path d="M1140.5,1236.8 l 17.4,23.9 l -8.7,0 L1142.7,1345.4 l -8,0 Z" fill="#e9dabe"/><rect x="1291.1" y="1247.7" width="10" height="86.9" fill="#e9dabe"/><rect x="1313.1" y="1247.7" width="10" height="86.9" fill="#e9dabe"/><path d="M1413.7,1236.8 l 17.4,23.9 l -8.7,0 L1415.9,1345.4 l -8,0 Z" fill="#e9dabe"/><rect x="1547.4" y="1247.7" width="10" height="86.9" fill="#e9dabe"/><rect x="1569.4" y="1247.7" width="10" height="86.9" fill="#e9dabe"/><path d="M1679,1236.8 l 17.4,23.9 l -8.7,0 L1681.2,1345.4 l -8,0 Z" fill="#e9dabe"/><line x1="560" y1="1395.6" x2="1840" y2="1395.6" stroke="#e9dabe" stroke-width="4" opacity="0.35"/><rect x="600" y="1456.6" width="10" height="86.9" fill="#e9dabe"/><rect x="622" y="1456.6" width="10" height="86.9" fill="#e9dabe"/><path d="M751.6,1467.4 L784.2,1500 L751.6,1532.6 l -8,-6 L769,1500 l -26.1,-23.9 Z" fill="#e9dabe"/><path d="M879.2,1445.7 l 17.4,23.9 l -8.7,0 L881.4,1554.3 l -8,0 Z" fill="#e9dabe"/><path d="M1013.9,1467.4 L1046.5,1500 L1013.9,1532.6 l -8,-6 L1031.2,1500 l -26.1,-23.9 Z" fill="#e9dabe"/><path d="M1144.5,1500 l 23.9,-15.2 l 0,10.9 l 54.3,0 l 0,8 L1166.2,1506 Z" fill="#e9dabe"/><path d="M1270.1,1445.7 l 17.4,23.9 l -8.7,0 L1272.3,1554.3 l -8,0 Z" fill="#e9dabe"/><path d="M1400.7,1445.7 l 17.4,23.9 l -8.7,0 L1402.9,1554.3 l -8,0 Z" fill="#e9dabe"/><path d="M1544.4,1467.4 L1576.9,1500 L1544.4,1532.6 l -8,-6 L1561.7,1500 l -26.1,-23.9 Z" fill="#e9dabe"/><rect x="1678" y="1456.6" width="10" height="86.9" fill="#e9dabe"/><rect x="1700" y="1456.6" width="10" height="86.9" fill="#e9dabe"/><line x1="560" y1="1604.4" x2="1840" y2="1604.4" stroke="#e9dabe" stroke-width="4" opacity="0.35"/><rect x="600" y="1665.4" width="10" height="86.9" fill="#e9dabe"/><rect x="622" y="1665.4" width="10" height="86.9" fill="#e9dabe"/><path d="M752.6,1708.9 l 23.9,-15.2 l 0,10.9 l 54.3,0 l 0,8 L774.3,1714.9 Z" fill="#e9dabe"/><rect x="878.2" y="1665.4" width="10" height="86.9" fill="#e9dabe"/><rect x="900.2" y="1665.4" width="10" height="86.9" fill="#e9dabe"/><rect x="1016.9" y="1665.4" width="10" height="86.9" fill="#e9dabe"/><rect x="1038.9" y="1665.4" width="10" height="86.9" fill="#e9dabe"/><path d="M1160.5,1708.9 l 23.9,-15.2 l 0,10.9 l 54.3,0 l 0,8 L1182.2,1714.9 Z" fill="#e9dabe"/><path d="M1307.1,1676.3 L1339.7,1708.9 L1307.1,1741.5 l -8,-6 L1324.5,1708.9 l -26.1,-23.9 Z" fill="#e9dabe"/><path d="M1434.7,1654.6 l 17.4,23.9 l -8.7,0 L1436.9,1763.2 l -8,0 Z" fill="#e9dabe"/><path d="M1578.4,1676.3 L1610.9,1708.9 L1578.4,1741.5 l -8,-6 L1595.7,1708.9 l -26.1,-23.9 Z" fill="#e9dabe"/><path d="M1704,1708.9 l 23.9,-15.2 l 0,10.9 l 54.3,0 l 0,8 L1725.7,1714.9 Z" fill="#e9dabe"/><line x1="560" y1="1813.3" x2="1840" y2="1813.3" stroke="#e9dabe" stroke-width="4" opacity="0.35"/><path d="M600,1863.5 l 17.4,23.9 l -8.7,0 L602.2,1972.1 l -8,0 Z" fill="#e9dabe"/><path d="M732.6,1917.8 l 23.9,-15.2 l 0,10.9 l 54.3,0 l 0,8 L754.3,1923.8 Z" fill="#e9dabe"/><rect x="871.2" y="1874.3" width="10" height="86.9" fill="#e9dabe"/><rect x="893.2" y="1874.3" width="10" height="86.9" fill="#e9dabe"/><path d="M1016.9,1863.5 l 17.4,23.9 l -8.7,0 L1019,1972.1 l -8,0 Z" fill="#e9dabe"/><path d="M1143.5,1917.8 l 23.9,-15.2 l 0,10.9 l 54.3,0 l 0,8 L1165.2,1923.8 Z" fill="#e9dabe"/><path d="M1296.1,1885.2 L1328.7,1917.8 L1296.1,1950.4 l -8,-6 L1313.5,1917.8 l -26.1,-23.9 Z" fill="#e9dabe"/><path d="M1427.7,1863.5 l 17.4,23.9 l -8.7,0 L1429.9,1972.1 l -8,0 Z" fill="#e9dabe"/><path d="M1554.4,1863.5 l 17.4,23.9 l -8.7,0 L1556.5,1972.1 l -8,0 Z" fill="#e9dabe"/><path d="M1700,1917.8 l 23.9,-15.2 l 0,10.9 l 54.3,0 l 0,8 L1721.7,1923.8 Z" fill="#e9dabe"/><line x1="560" y1="2022.2" x2="1840" y2="2022.2" stroke="#e9dabe" stroke-width="4" opacity="0.35"/><path d="M600,2094.1 L632.6,2126.7 L600,2159.3 l -8,-6 L617.4,2126.7 l -26.1,-23.9 Z" fill="#e9dabe"/><path d="M733.6,2126.7 l 23.9,-15.2 l 0,10.9 l 54.3,0 l 0,8 L755.3,2132.7 Z" fill="#e9dabe"/><path d="M870.2,2094.1 L902.8,2126.7 L870.2,2159.3 l -8,-6 L887.6,2126.7 l -26.1,-23.9 Z" fill="#e9dabe"/><path d="M995.9,2072.4 l 17.4,23.9 l -8.7,0 L998,2181 l -8,0 Z" fill="#e9dabe"/><path d="M1133.5,2126.7 l 23.9,-15.2 l 0,10.9 l 54.3,0 l 0,8 L1155.2,2132.7 Z" fill="#e9dabe"/><path d="M1268.1,2072.4 l 17.4,23.9 l -8.7,0 L1270.3,2181 l -8,0 Z" fill="#e9dabe"/><path d="M1395.7,2072.4 l 17.4,23.9 l -8.7,0 L1397.9,2181 l -8,0 Z" fill="#e9dabe"/><path d="M1523.4,2072.4 l 17.4,23.9 l -8.7,0 L1525.5,2181 l -8,0 Z" fill="#e9dabe"/><path d="M1651,2094.1 L1683.6,2126.7 L1651,2159.3 l -8,-6 L1668.4,2126.7 l -26.1,-23.9 Z" fill="#e9dabe"/><line x1="560" y1="2231.1" x2="1840" y2="2231.1" stroke="#e9dabe" stroke-width="4" opacity="0.35"/><path d="M600,2335.6 l 23.9,-15.2 l 0,10.9 l 54.3,0 l 0,8 L621.7,2341.6 Z" fill="#e9dabe"/><path d="M741.6,2335.6 l 23.9,-15.2 l 0,10.9 l 54.3,0 l 0,8 L763.3,2341.6 Z" fill="#e9dabe"/><rect x="870.2" y="2292.1" width="10" height="86.9" fill="#e9dabe"/><rect x="892.2" y="2292.1" width="10" height="86.9" fill="#e9dabe"/><path d="M1000.9,2281.2 l 17.4,23.9 l -8.7,0 L1003,2389.9 l -8,0 Z" fill="#e9dabe"/><path d="M1140.5,2303 L1173.1,2335.6 L1140.5,2368.1 l -8,-6 L1157.9,2335.6 l -26.1,-23.9 Z" fill="#e9dabe"/><path d="M1265.1,2303 L1297.7,2335.6 L1265.1,2368.1 l -8,-6 L1282.5,2335.6 l -26.1,-23.9 Z" fill="#e9dabe"/><path d="M1411.7,2335.6 l 23.9,-15.2 l 0,10.9 l 54.3,0 l 0,8 L1433.5,2341.6 Z" fill="#e9dabe"/><path d="M1535.4,2335.6 l 23.9,-15.2 l 0,10.9 l 54.3,0 l 0,8 L1557.1,2341.6 Z" fill="#e9dabe"/><path d="M1665,2303 L1697.6,2335.6 L1665,2368.1 l -8,-6 L1682.4,2335.6 l -26.1,-23.9 Z" fill="#e9dabe"/></g><rect x="100" y="100" width="2200" height="2800" fill="none" stroke="#e9dabe" stroke-width="9"/><rect x="142" y="142" width="2116" height="2716" fill="none" stroke="#e9dabe" stroke-width="3" opacity="0.65"/></svg></svg>