<svg xmlns="http://www.w3.org/2000/svg" width="2400" height="1800" viewBox="0 0 2400 1800"><rect width="2400" height="1800" fill="#e9e1d2"/><rect y="1430" width="2400" height="370" fill="#c8b190"/><line x1="120" y1="1430" x2="60" y2="1800" stroke="#00000018" stroke-width="6"/><line x1="380" y1="1430" x2="320" y2="1800" stroke="#00000018" stroke-width="6"/><line x1="640" y1="1430" x2="580" y2="1800" stroke="#00000018" stroke-width="6"/><line x1="900" y1="1430" x2="840" y2="1800" stroke="#00000018" stroke-width="6"/><line x1="1160" y1="1430" x2="1100" y2="1800" stroke="#00000018" stroke-width="6"/><line x1="1420" y1="1430" x2="1360" y2="1800" stroke="#00000018" stroke-width="6"/><line x1="1680" y1="1430" x2="1620" y2="1800" stroke="#00000018" stroke-width="6"/><line x1="1940" y1="1430" x2="1880" y2="1800" stroke="#00000018" stroke-width="6"/><line x1="2200" y1="1430" x2="2140" y2="1800" stroke="#00000018" stroke-width="6"/><rect y="1418" width="2400" height="16" fill="#d7cbb6"/><rect x="700" y="980" width="1000" height="460" rx="26" fill="#a87e57"/><rect x="660" y="1290" width="1080" height="210" rx="30" fill="#f1ebdf"/><rect x="660" y="1420" width="1080" height="120" rx="24" fill="#a8792c" opacity="0.85"/><rect x="770" y="1180" width="300" height="150" rx="40" fill="#faf6ec"/><rect x="1330" y="1180" width="300" height="150" rx="40" fill="#b09a6c"/><rect x="640" y="1530" width="1120" height="26" rx="12" fill="#a87e57"/><rect x="360" y="1260" width="240" height="220" rx="10" fill="#a87e57"/><rect x="380" y="1300" width="200" height="14" fill="#00000022"/><line x1="480" y1="1260" x2="480" y2="1130" stroke="#5a4632" stroke-width="12"/><path d="M410,1130 L550,1130 L520,1020 L440,1020 Z" fill="#a8792c"/><path d="M2060,1520 Q 1910,1282.5 1835,1345" fill="none" stroke="#5d7052" stroke-width="20" stroke-linecap="round"/><path d="M2060,1520 Q 1960,1282.5 1910,1295" fill="none" stroke="#5d7052" stroke-width="20" stroke-linecap="round"/><path d="M2060,1520 Q 2010,1282.5 1985,1245" fill="none" stroke="#5d7052" stroke-width="20" stroke-linecap="round"/><path d="M2060,1520 Q 2060,1282.5 2060,1195" fill="none" stroke="#5d7052" stroke-width="20" stroke-linecap="round"/><path d="M2060,1520 Q 2110,1282.5 2135,1245" fill="none" stroke="#5d7052" stroke-width="20" stroke-linecap="round"/><path d="M2060,1520 Q 2160,1282.5 2210,1295" fill="none" stroke="#5d7052" stroke-width="20" stroke-linecap="round"/><path d="M2060,1520 Q 2210,1282.5 2285,1345" fill="none" stroke="#5d7052" stroke-width="20" stroke-linecap="round"/><path d="M1972.5,1520 L2147.5,1520 L2125,1657.5 L1995,1657.5 Z" fill="#a9714d"/><defs><filter id="a23b-sh" x="-30%" y="-30%" width="160%" height="160%"><feGaussianBlur stdDeviation="16"/></filter></defs><rect x="928" y="246" width="572" height="702" fill="#000" opacity="0.28" filter="url(#a23b-sh)"/><rect x="914" y="224" width="572" height="702" fill="#4a3d2f"/><rect x="930.9" y="240.9" width="538.2" height="668.2" fill="none" stroke="#00000055" stroke-width="3"/><rect x="940" y="250" width="520" height="650" fill="#f6f2ea"/><svg x="979" y="289" width="442" height="572" viewBox="0 0 2400 3000" preserveAspectRatio="xMidYMid slice"><filter id="a23-warp" x="-4%" y="-4%" width="108%" height="108%"><feTurbulence type="fractalNoise" baseFrequency="0.0105" numOctaves="2" seed="1101" result="w"/><feDisplacementMap in="SourceGraphic" in2="w" scale="11" xChannelSelector="R" yChannelSelector="G"/></filter><filter id="a23-grain" x="0%" y="0%" width="100%" height="100%"><feTurbulence type="fractalNoise" baseFrequency="0.6" numOctaves="2" seed="1108"/><feColorMatrix type="matrix" values="0.33 0.33 0.33 0 0.62  0.33 0.33 0.33 0 0.62  0.33 0.33 0.33 0 0.62  0 0 0 0 1"/></filter><filter id="a23-mottle" x="0%" y="0%" width="100%" height="100%"><feTurbulence type="fractalNoise" baseFrequency="0.0045" numOctaves="3" seed="1114"/><feColorMatrix type="matrix" values="0.2 0.2 0.2 0 0.78  0.2 0.2 0.2 0 0.78  0.2 0.2 0.2 0 0.78  0 0 0 0 1"/></filter><filter id="a23-fade" x="0%" y="0%" width="100%" height="100%"><feTurbulence type="fractalNoise" baseFrequency="0.006" numOctaves="2" seed="1130"/><feColorMatrix type="matrix" values="0.3 0.3 0.3 0 -0.08  0.3 0.3 0.3 0 -0.08  0.3 0.3 0.3 0 -0.1  0 0 0 0 1"/></filter><filter id="a23-blur9"><feGaussianBlur stdDeviation="9"/></filter><radialGradient id="a23-vig" cx="50%" cy="44%" r="78%"><stop offset="52%" stop-color="#241a10" stop-opacity="0"/><stop offset="100%" stop-color="#241a10" stop-opacity="0.17"/></radialGradient><radialGradient id="a23-warm" cx="51%" cy="30%" r="85%"><stop offset="0%" stop-color="#e8c890" stop-opacity="0.14"/><stop offset="70%" stop-color="#e8c890" stop-opacity="0"/></radialGradient><rect width="2400" height="3000" fill="#d3ba8c"/><rect width="2400" height="3000" fill="url(#a23-warm)"/><rect x="0" width="39.9" height="3000" fill="#6b4e26" opacity="0.082"/><rect x="55.4" width="27.3" height="3000" fill="#6b4e26" opacity="0.068"/><rect x="93.4" width="30.7" height="3000" fill="#6b4e26" opacity="0.066"/><rect x="136" width="25.4" height="3000" fill="#6b4e26" opacity="0.061"/><rect x="171.3" width="39.3" height="3000" fill="#6b4e26" opacity="0.080"/><rect x="225.8" width="26.8" height="3000" fill="#6b4e26" opacity="0.050"/><rect x="263.1" width="35.9" height="3000" fill="#6b4e26" opacity="0.072"/><rect x="312.9" width="27.2" height="3000" fill="#6b4e26" opacity="0.078"/><rect x="350.8" width="40.5" height="3000" fill="#6b4e26" opacity="0.082"/><rect x="407" width="24.3" height="3000" fill="#6b4e26" opacity="0.048"/><rect x="440.7" width="37.1" height="3000" fill="#6b4e26" opacity="0.083"/><rect x="492.2" width="40.3" height="3000" fill="#6b4e26" opacity="0.081"/><rect x="548.2" width="38.9" height="3000" fill="#6b4e26" opacity="0.038"/><rect x="602.2" width="22.1" height="3000" fill="#6b4e26" opacity="0.037"/><rect x="633" width="35.9" height="3000" fill="#6b4e26" opacity="0.055"/><rect x="682.8" width="30.1" height="3000" fill="#6b4e26" opacity="0.082"/><rect x="724.6" width="40.3" height="3000" fill="#6b4e26" opacity="0.081"/><rect x="780.6" width="34.2" height="3000" fill="#6b4e26" opacity="0.038"/><rect x="828.2" width="41.5" height="3000" fill="#6b4e26" opacity="0.075"/><rect x="885.8" width="41.8" height="3000" fill="#6b4e26" opacity="0.062"/><rect x="943.9" width="23.9" height="3000" fill="#6b4e26" opacity="0.076"/><rect x="977" width="21.5" height="3000" fill="#6b4e26" opacity="0.086"/><rect x="1006.8" width="28.1" height="3000" fill="#6b4e26" opacity="0.080"/><rect x="1045.8" width="34.2" height="3000" fill="#6b4e26" opacity="0.075"/><rect x="1093.3" width="23.6" height="3000" fill="#6b4e26" opacity="0.049"/><rect x="1126.1" width="19.4" height="3000" fill="#6b4e26" opacity="0.049"/><rect x="1153" width="37.4" height="3000" fill="#6b4e26" opacity="0.066"/><rect x="1205" width="30.3" height="3000" fill="#6b4e26" opacity="0.062"/><rect x="1247.1" width="38.1" height="3000" fill="#6b4e26" opacity="0.074"/><rect x="1300" width="42.3" height="3000" fill="#6b4e26" opacity="0.079"/><rect x="1358.8" width="28.4" height="3000" fill="#6b4e26" opacity="0.044"/><rect x="1398.2" width="39.3" height="3000" fill="#6b4e26" opacity="0.099"/><rect x="1452.8" width="32.4" height="3000" fill="#6b4e26" opacity="0.038"/><rect x="1497.8" width="34.9" height="3000" fill="#6b4e26" opacity="0.070"/><rect x="1546.3" width="32.1" height="3000" fill="#6b4e26" opacity="0.043"/><rect x="1590.9" width="24.2" height="3000" fill="#6b4e26" opacity="0.074"/><rect x="1624.5" width="21.8" height="3000" fill="#6b4e26" opacity="0.075"/><rect x="1654.7" width="37.3" height="3000" fill="#6b4e26" opacity="0.064"/><rect x="1706.5" width="20.7" height="3000" fill="#6b4e26" opacity="0.086"/><rect x="1735.2" width="24" height="3000" fill="#6b4e26" opacity="0.080"/><rect x="1768.5" width="39.6" height="3000" fill="#6b4e26" opacity="0.074"/><rect x="1823.6" width="26.4" height="3000" fill="#6b4e26" opacity="0.099"/><rect x="1860.3" width="41.8" height="3000" fill="#6b4e26" opacity="0.045"/><rect x="1918.3" width="27" height="3000" fill="#6b4e26" opacity="0.080"/><rect x="1955.8" width="30.3" height="3000" fill="#6b4e26" opacity="0.093"/><rect x="1997.9" width="40.5" height="3000" fill="#6b4e26" opacity="0.068"/><rect x="2054.2" width="36.7" height="3000" fill="#6b4e26" opacity="0.085"/><rect x="2105.1" width="25.3" height="3000" fill="#6b4e26" opacity="0.056"/><rect x="2140.3" width="20.5" height="3000" fill="#6b4e26" opacity="0.039"/><rect x="2168.8" width="23.4" height="3000" fill="#6b4e26" opacity="0.056"/><rect x="2201.3" width="27.8" height="3000" fill="#6b4e26" opacity="0.084"/><rect x="2239.9" width="40.4" height="3000" fill="#6b4e26" opacity="0.056"/><rect x="2296" width="19.4" height="3000" fill="#6b4e26" opacity="0.066"/><rect x="2322.9" width="41.1" height="3000" fill="#6b4e26" opacity="0.041"/><rect x="2380" width="28" height="3000" fill="#6b4e26" opacity="0.030"/><rect y="0" width="2400" height="24.3" fill="#7c5c30" opacity="0.045"/><rect y="40.4" width="2400" height="15.8" fill="#7c5c30" opacity="0.050"/><rect y="66.8" width="2400" height="13.7" fill="#7c5c30" opacity="0.047"/><rect y="89.6" width="2400" height="13.2" fill="#7c5c30" opacity="0.042"/><rect y="111.5" width="2400" height="17.1" fill="#7c5c30" opacity="0.040"/><rect y="140" width="2400" height="15.4" fill="#7c5c30" opacity="0.057"/><rect y="165.8" width="2400" height="25.8" fill="#7c5c30" opacity="0.027"/><rect y="208.7" width="2400" height="23.1" fill="#7c5c30" opacity="0.040"/><rect y="247.2" width="2400" height="26.7" fill="#7c5c30" opacity="0.021"/><rect y="291.8" width="2400" height="26.9" fill="#7c5c30" opacity="0.021"/><rect y="336.6" width="2400" height="13.3" fill="#7c5c30" opacity="0.043"/><rect y="358.9" width="2400" height="13.5" fill="#7c5c30" opacity="0.050"/><rect y="381.4" width="2400" height="19.2" fill="#7c5c30" opacity="0.045"/><rect y="413.3" width="2400" height="19.1" fill="#7c5c30" opacity="0.052"/><rect y="445.2" width="2400" height="20.6" fill="#7c5c30" opacity="0.055"/><rect y="479.6" width="2400" height="26.4" fill="#7c5c30" opacity="0.042"/><rect y="523.6" width="2400" height="17.7" fill="#7c5c30" opacity="0.051"/><rect y="553.1" width="2400" height="15.7" fill="#7c5c30" opacity="0.032"/><rect y="579.3" width="2400" height="23.2" fill="#7c5c30" opacity="0.049"/><rect y="617.9" width="2400" height="18.2" fill="#7c5c30" opacity="0.046"/><rect y="648.3" width="2400" height="27.7" fill="#7c5c30" opacity="0.032"/><rect y="694.4" width="2400" height="13.5" fill="#7c5c30" opacity="0.058"/><rect y="716.9" width="2400" height="19.9" fill="#7c5c30" opacity="0.057"/><rect y="750" width="2400" height="14.5" fill="#7c5c30" opacity="0.057"/><rect y="774.3" width="2400" height="16.3" fill="#7c5c30" opacity="0.041"/><rect y="801.5" width="2400" height="15.9" fill="#7c5c30" opacity="0.060"/><rect y="827.9" width="2400" height="18.8" fill="#7c5c30" opacity="0.034"/><rect y="859.3" width="2400" height="12.4" fill="#7c5c30" opacity="0.046"/><rect y="879.8" width="2400" height="19.2" fill="#7c5c30" opacity="0.049"/><rect y="911.9" width="2400" height="19.7" fill="#7c5c30" opacity="0.030"/><rect y="944.8" width="2400" height="12.6" fill="#7c5c30" opacity="0.032"/><rect y="965.9" width="2400" height="22.5" fill="#7c5c30" opacity="0.040"/><rect y="1003.3" width="2400" height="28.2" fill="#7c5c30" opacity="0.041"/><rect y="1050.3" width="2400" height="22.3" fill="#7c5c30" opacity="0.033"/><rect y="1087.4" width="2400" height="28" fill="#7c5c30" opacity="0.052"/><rect y="1134.2" width="2400" height="26.7" fill="#7c5c30" opacity="0.032"/><rect y="1178.7" width="2400" height="24.6" fill="#7c5c30" opacity="0.028"/><rect y="1219.7" width="2400" height="16.9" fill="#7c5c30" opacity="0.033"/><rect y="1247.8" width="2400" height="15.7" fill="#7c5c30" opacity="0.035"/><rect y="1273.9" width="2400" height="21.6" fill="#7c5c30" opacity="0.057"/><rect y="1310" width="2400" height="23.9" fill="#7c5c30" opacity="0.028"/><rect y="1349.8" width="2400" height="19" fill="#7c5c30" opacity="0.046"/><rect y="1381.4" width="2400" height="12.2" fill="#7c5c30" opacity="0.048"/><rect y="1401.8" width="2400" height="12.5" fill="#7c5c30" opacity="0.053"/><rect y="1422.7" width="2400" height="17.5" fill="#7c5c30" opacity="0.051"/><rect y="1451.8" width="2400" height="12.5" fill="#7c5c30" opacity="0.042"/><rect y="1472.6" width="2400" height="28" fill="#7c5c30" opacity="0.031"/><rect y="1519.2" width="2400" height="19.7" fill="#7c5c30" opacity="0.021"/><rect y="1552.1" width="2400" height="18.2" fill="#7c5c30" opacity="0.042"/><rect y="1582.5" width="2400" height="21.8" fill="#7c5c30" opacity="0.057"/><rect y="1618.9" width="2400" height="20.5" fill="#7c5c30" opacity="0.021"/><rect y="1653.1" width="2400" height="15.3" fill="#7c5c30" opacity="0.020"/><rect y="1678.6" width="2400" height="20.9" fill="#7c5c30" opacity="0.048"/><rect y="1713.3" width="2400" height="22" fill="#7c5c30" opacity="0.043"/><rect y="1750" width="2400" height="14" fill="#7c5c30" opacity="0.039"/><rect y="1773.2" width="2400" height="15" fill="#7c5c30" opacity="0.030"/><rect y="1798.2" width="2400" height="14.9" fill="#7c5c30" opacity="0.050"/><rect y="1823" width="2400" height="15.9" fill="#7c5c30" opacity="0.052"/><rect y="1849.5" width="2400" height="13.9" fill="#7c5c30" opacity="0.040"/><rect y="1872.6" width="2400" height="23.4" fill="#7c5c30" opacity="0.037"/><rect y="1911.6" width="2400" height="13.6" fill="#7c5c30" opacity="0.035"/><rect y="1934.2" width="2400" height="14.1" fill="#7c5c30" opacity="0.048"/><rect y="1957.7" width="2400" height="15.9" fill="#7c5c30" opacity="0.051"/><rect y="1984.3" width="2400" height="16.3" fill="#7c5c30" opacity="0.055"/><rect y="2011.5" width="2400" height="12.7" fill="#7c5c30" opacity="0.024"/><rect y="2032.7" width="2400" height="13.8" fill="#7c5c30" opacity="0.034"/><rect y="2055.7" width="2400" height="22.4" fill="#7c5c30" opacity="0.052"/><rect y="2093" width="2400" height="28.3" fill="#7c5c30" opacity="0.058"/><rect y="2140.1" width="2400" height="19.9" fill="#7c5c30" opacity="0.056"/><rect y="2173.2" width="2400" height="13.7" fill="#7c5c30" opacity="0.030"/><rect y="2196" width="2400" height="13.6" fill="#7c5c30" opacity="0.032"/><rect y="2218.7" width="2400" height="18.6" fill="#7c5c30" opacity="0.033"/><rect y="2249.8" width="2400" height="16.2" fill="#7c5c30" opacity="0.052"/><rect y="2276.8" width="2400" height="17.7" fill="#7c5c30" opacity="0.021"/><rect y="2306.3" width="2400" height="16" fill="#7c5c30" opacity="0.025"/><rect y="2333.1" width="2400" height="12.4" fill="#7c5c30" opacity="0.046"/><rect y="2353.7" width="2400" height="18" fill="#7c5c30" opacity="0.020"/><rect y="2383.6" width="2400" height="28.3" fill="#7c5c30" opacity="0.036"/><rect y="2430.7" width="2400" height="13.4" fill="#7c5c30" opacity="0.038"/><rect y="2453" width="2400" height="12.4" fill="#7c5c30" opacity="0.028"/><rect y="2473.7" width="2400" height="28.8" fill="#7c5c30" opacity="0.048"/><rect y="2521.6" width="2400" height="12.4" fill="#7c5c30" opacity="0.047"/><rect y="2542.3" width="2400" height="15.9" fill="#7c5c30" opacity="0.034"/><rect y="2568.8" width="2400" height="12.1" fill="#7c5c30" opacity="0.058"/><rect y="2588.9" width="2400" height="15.6" fill="#7c5c30" opacity="0.046"/><rect y="2614.9" width="2400" height="28.1" fill="#7c5c30" opacity="0.036"/><rect y="2661.8" width="2400" height="12.8" fill="#7c5c30" opacity="0.035"/><rect y="2683.1" width="2400" height="17.5" fill="#7c5c30" opacity="0.024"/><rect y="2712.2" width="2400" height="28.5" fill="#7c5c30" opacity="0.030"/><rect y="2759.6" width="2400" height="19.7" fill="#7c5c30" opacity="0.044"/><rect y="2792.4" width="2400" height="24.8" fill="#7c5c30" opacity="0.050"/><rect y="2833.7" width="2400" height="24" fill="#7c5c30" opacity="0.023"/><rect y="2873.7" width="2400" height="20.9" fill="#7c5c30" opacity="0.058"/><rect y="2908.6" width="2400" height="23.3" fill="#7c5c30" opacity="0.025"/><rect y="2947.4" width="2400" height="27.3" fill="#7c5c30" opacity="0.027"/><rect y="2992.9" width="2400" height="26.6" fill="#7c5c30" opacity="0.049"/><g filter="url(#a23-warp)"><rect x="210" y="300" width="1980" height="8.9" fill="#332d23"/><rect x="210" y="308.4" width="1980" height="8.9" fill="#a8792c"/><rect x="210" y="316.8" width="1980" height="8.9" fill="#332d23"/><rect x="210" y="325.2" width="1980" height="8.9" fill="#b09a6c"/><rect x="210" y="333.6" width="1980" height="8.9" fill="#332d23"/><rect x="210" y="885" width="1980" height="8.9" fill="#332d23"/><rect x="210" y="893.4" width="1980" height="8.9" fill="#a8792c"/><rect x="210" y="901.8" width="1980" height="8.9" fill="#332d23"/><rect x="210" y="910.2" width="1980" height="8.9" fill="#b09a6c"/><rect x="210" y="918.6" width="1980" height="8.9" fill="#332d23"/><rect x="210" y="1470" width="1980" height="8.9" fill="#332d23"/><rect x="210" y="1478.4" width="1980" height="8.9" fill="#a8792c"/><rect x="210" y="1486.8" width="1980" height="8.9" fill="#332d23"/><rect x="210" y="1495.2" width="1980" height="8.9" fill="#b09a6c"/><rect x="210" y="1503.6" width="1980" height="8.9" fill="#332d23"/><rect x="210" y="2055" width="1980" height="8.9" fill="#332d23"/><rect x="210" y="2063.4" width="1980" height="8.9" fill="#a8792c"/><rect x="210" y="2071.8" width="1980" height="8.9" fill="#332d23"/><rect x="210" y="2080.2" width="1980" height="8.9" fill="#b09a6c"/><rect x="210" y="2088.6" width="1980" height="8.9" fill="#332d23"/><rect x="210" y="2640" width="1980" height="8.9" fill="#332d23"/><rect x="210" y="2648.4" width="1980" height="8.9" fill="#a8792c"/><rect x="210" y="2656.8" width="1980" height="8.9" fill="#332d23"/><rect x="210" y="2665.2" width="1980" height="8.9" fill="#b09a6c"/><rect x="210" y="2673.6" width="1980" height="8.9" fill="#332d23"/><path d="M0 0 Q 75.3 -117.1 0 -308 Q -75.3 -117.1 0 0 Z" fill="#332d23" opacity="1" transform="translate(457.5 809.7) rotate(-58)"/><path d="M0 0 Q 75.3 -133.8 0 -352.2 Q -75.3 -133.8 0 0 Z" fill="#a8792c" opacity="1" transform="translate(457.5 809.7) rotate(-34.8)"/><path d="M0 0 Q 75.3 -150.6 0 -396.3 Q -75.3 -150.6 0 0 Z" fill="#332d23" opacity="1" transform="translate(457.5 809.7) rotate(-11.6)"/><path d="M0 0 Q 75.3 -150.6 0 -396.3 Q -75.3 -150.6 0 0 Z" fill="#a8792c" opacity="1" transform="translate(457.5 809.7) rotate(11.6)"/><path d="M0 0 Q 75.3 -133.8 0 -352.2 Q -75.3 -133.8 0 0 Z" fill="#332d23" opacity="1" transform="translate(457.5 809.7) rotate(34.8)"/><path d="M0 0 Q 75.3 -117.1 0 -308 Q -75.3 -117.1 0 0 Z" fill="#a8792c" opacity="1" transform="translate(457.5 809.7) rotate(58)"/><path d="M332,809.7 Q457.5,951.9 583,809.7 Z" fill="#332d23"/><path d="M0 0 Q 61.1 -116.1 0 -305.6 Q -61.1 -116.1 0 0 Z" fill="#a8792c" opacity="1" transform="translate(952.5 809.7) rotate(0)"/><line x1="952.5" y1="809.7" x2="952.5" y2="856.5" stroke="#332d23" stroke-width="19.1"/><path d="M0 0 Q 70.8 -110.1 0 -289.8 Q -70.8 -110.1 0 0 Z" fill="#332d23" opacity="1" transform="translate(1447.5 809.7) rotate(-58)"/><path d="M0 0 Q 70.8 -125.9 0 -331.3 Q -70.8 -125.9 0 0 Z" fill="#a8792c" opacity="1" transform="translate(1447.5 809.7) rotate(-34.8)"/><path d="M0 0 Q 70.8 -141.7 0 -372.8 Q -70.8 -141.7 0 0 Z" fill="#332d23" opacity="1" transform="translate(1447.5 809.7) rotate(-11.6)"/><path d="M0 0 Q 70.8 -141.7 0 -372.8 Q -70.8 -141.7 0 0 Z" fill="#a8792c" opacity="1" transform="translate(1447.5 809.7) rotate(11.6)"/><path d="M0 0 Q 70.8 -125.9 0 -331.3 Q -70.8 -125.9 0 0 Z" fill="#332d23" opacity="1" transform="translate(1447.5 809.7) rotate(34.8)"/><path d="M0 0 Q 70.8 -110.1 0 -289.8 Q -70.8 -110.1 0 0 Z" fill="#a8792c" opacity="1" transform="translate(1447.5 809.7) rotate(58)"/><path d="M1329.4,809.7 Q1447.5,943.5 1565.6,809.7 Z" fill="#332d23"/><path d="M0 0 Q 61.5 -116.9 0 -307.5 Q -61.5 -116.9 0 0 Z" fill="#a8792c" opacity="1" transform="translate(1942.5 809.7) rotate(0)"/><line x1="1942.5" y1="809.7" x2="1942.5" y2="856.5" stroke="#332d23" stroke-width="19.2"/><line x1="408" y1="1394.7" x2="408" y2="1174" stroke="#332d23" stroke-width="24.1"/><line x1="408" y1="1174" x2="249.3" y2="1096.5" stroke="#332d23" stroke-width="18.1" stroke-linecap="round"/><circle cx="249.3" cy="1096.5" r="18.1" fill="#a8792c"/><line x1="408" y1="1174" x2="263.3" y2="1043.7" stroke="#332d23" stroke-width="18.1" stroke-linecap="round"/><circle cx="263.3" cy="1043.7" r="18.1" fill="#a8792c"/><line x1="408" y1="1174" x2="295.3" y2="993.6" stroke="#332d23" stroke-width="18.1" stroke-linecap="round"/><circle cx="295.3" cy="993.6" r="18.1" fill="#a8792c"/><line x1="408" y1="1174" x2="344.4" y2="952.1" stroke="#332d23" stroke-width="18.1" stroke-linecap="round"/><circle cx="344.4" cy="952.1" r="18.1" fill="#a8792c"/><line x1="408" y1="1174" x2="408" y2="925.1" stroke="#332d23" stroke-width="18.1" stroke-linecap="round"/><circle cx="408" cy="925.1" r="18.1" fill="#a8792c"/><line x1="408" y1="1174" x2="471.6" y2="952.1" stroke="#332d23" stroke-width="18.1" stroke-linecap="round"/><circle cx="471.6" cy="952.1" r="18.1" fill="#a8792c"/><line x1="408" y1="1174" x2="520.7" y2="993.6" stroke="#332d23" stroke-width="18.1" stroke-linecap="round"/><circle cx="520.7" cy="993.6" r="18.1" fill="#a8792c"/><line x1="408" y1="1174" x2="552.7" y2="1043.7" stroke="#332d23" stroke-width="18.1" stroke-linecap="round"/><circle cx="552.7" cy="1043.7" r="18.1" fill="#a8792c"/><line x1="408" y1="1174" x2="566.7" y2="1096.5" stroke="#332d23" stroke-width="18.1" stroke-linecap="round"/><circle cx="566.7" cy="1096.5" r="18.1" fill="#a8792c"/><line x1="804" y1="1394.7" x2="804" y2="1187.9" stroke="#332d23" stroke-width="22.6"/><line x1="804" y1="1187.9" x2="655.3" y2="1115.4" stroke="#332d23" stroke-width="16.9" stroke-linecap="round"/><circle cx="655.3" cy="1115.4" r="16.9" fill="#a8792c"/><line x1="804" y1="1187.9" x2="668.5" y2="1065.9" stroke="#332d23" stroke-width="16.9" stroke-linecap="round"/><circle cx="668.5" cy="1065.9" r="16.9" fill="#a8792c"/><line x1="804" y1="1187.9" x2="698.4" y2="1018.9" stroke="#332d23" stroke-width="16.9" stroke-linecap="round"/><circle cx="698.4" cy="1018.9" r="16.9" fill="#a8792c"/><line x1="804" y1="1187.9" x2="744.4" y2="980.1" stroke="#332d23" stroke-width="16.9" stroke-linecap="round"/><circle cx="744.4" cy="980.1" r="16.9" fill="#a8792c"/><line x1="804" y1="1187.9" x2="804" y2="954.8" stroke="#332d23" stroke-width="16.9" stroke-linecap="round"/><circle cx="804" cy="954.8" r="16.9" fill="#a8792c"/><line x1="804" y1="1187.9" x2="863.6" y2="980.1" stroke="#332d23" stroke-width="16.9" stroke-linecap="round"/><circle cx="863.6" cy="980.1" r="16.9" fill="#a8792c"/><line x1="804" y1="1187.9" x2="909.6" y2="1018.9" stroke="#332d23" stroke-width="16.9" stroke-linecap="round"/><circle cx="909.6" cy="1018.9" r="16.9" fill="#a8792c"/><line x1="804" y1="1187.9" x2="939.5" y2="1065.9" stroke="#332d23" stroke-width="16.9" stroke-linecap="round"/><circle cx="939.5" cy="1065.9" r="16.9" fill="#a8792c"/><line x1="804" y1="1187.9" x2="952.7" y2="1115.4" stroke="#332d23" stroke-width="16.9" stroke-linecap="round"/><circle cx="952.7" cy="1115.4" r="16.9" fill="#a8792c"/><line x1="1200" y1="1394.7" x2="1200" y2="1172.3" stroke="#332d23" stroke-width="24.3"/><line x1="1200" y1="1172.3" x2="1040.1" y2="1094.3" stroke="#332d23" stroke-width="18.2" stroke-linecap="round"/><circle cx="1040.1" cy="1094.3" r="18.2" fill="#a8792c"/><line x1="1200" y1="1172.3" x2="1054.2" y2="1041" stroke="#332d23" stroke-width="18.2" stroke-linecap="round"/><circle cx="1054.2" cy="1041" r="18.2" fill="#a8792c"/><line x1="1200" y1="1172.3" x2="1086.4" y2="990.5" stroke="#332d23" stroke-width="18.2" stroke-linecap="round"/><circle cx="1086.4" cy="990.5" r="18.2" fill="#a8792c"/><line x1="1200" y1="1172.3" x2="1135.9" y2="948.7" stroke="#332d23" stroke-width="18.2" stroke-linecap="round"/><circle cx="1135.9" cy="948.7" r="18.2" fill="#a8792c"/><line x1="1200" y1="1172.3" x2="1200" y2="921.5" stroke="#332d23" stroke-width="18.2" stroke-linecap="round"/><circle cx="1200" cy="921.5" r="18.2" fill="#a8792c"/><line x1="1200" y1="1172.3" x2="1264.1" y2="948.7" stroke="#332d23" stroke-width="18.2" stroke-linecap="round"/><circle cx="1264.1" cy="948.7" r="18.2" fill="#a8792c"/><line x1="1200" y1="1172.3" x2="1313.6" y2="990.5" stroke="#332d23" stroke-width="18.2" stroke-linecap="round"/><circle cx="1313.6" cy="990.5" r="18.2" fill="#a8792c"/><line x1="1200" y1="1172.3" x2="1345.8" y2="1041" stroke="#332d23" stroke-width="18.2" stroke-linecap="round"/><circle cx="1345.8" cy="1041" r="18.2" fill="#a8792c"/><line x1="1200" y1="1172.3" x2="1359.9" y2="1094.3" stroke="#332d23" stroke-width="18.2" stroke-linecap="round"/><circle cx="1359.9" cy="1094.3" r="18.2" fill="#a8792c"/><line x1="1596" y1="1394.7" x2="1596" y2="1186.9" stroke="#332d23" stroke-width="22.7"/><line x1="1596" y1="1186.9" x2="1446.6" y2="1114" stroke="#332d23" stroke-width="17" stroke-linecap="round"/><circle cx="1446.6" cy="1114" r="17" fill="#a8792c"/><line x1="1596" y1="1186.9" x2="1459.8" y2="1064.2" stroke="#332d23" stroke-width="17" stroke-linecap="round"/><circle cx="1459.8" cy="1064.2" r="17" fill="#a8792c"/><line x1="1596" y1="1186.9" x2="1489.9" y2="1017" stroke="#332d23" stroke-width="17" stroke-linecap="round"/><circle cx="1489.9" cy="1017" r="17" fill="#a8792c"/><line x1="1596" y1="1186.9" x2="1536.1" y2="978" stroke="#332d23" stroke-width="17" stroke-linecap="round"/><circle cx="1536.1" cy="978" r="17" fill="#a8792c"/><line x1="1596" y1="1186.9" x2="1596" y2="952.6" stroke="#332d23" stroke-width="17" stroke-linecap="round"/><circle cx="1596" cy="952.6" r="17" fill="#a8792c"/><line x1="1596" y1="1186.9" x2="1655.9" y2="978" stroke="#332d23" stroke-width="17" stroke-linecap="round"/><circle cx="1655.9" cy="978" r="17" fill="#a8792c"/><line x1="1596" y1="1186.9" x2="1702.1" y2="1017" stroke="#332d23" stroke-width="17" stroke-linecap="round"/><circle cx="1702.1" cy="1017" r="17" fill="#a8792c"/><line x1="1596" y1="1186.9" x2="1732.2" y2="1064.2" stroke="#332d23" stroke-width="17" stroke-linecap="round"/><circle cx="1732.2" cy="1064.2" r="17" fill="#a8792c"/><line x1="1596" y1="1186.9" x2="1745.4" y2="1114" stroke="#332d23" stroke-width="17" stroke-linecap="round"/><circle cx="1745.4" cy="1114" r="17" fill="#a8792c"/><line x1="1992" y1="1394.7" x2="1992" y2="1193.4" stroke="#332d23" stroke-width="22"/><line x1="1992" y1="1193.4" x2="1847.2" y2="1122.7" stroke="#332d23" stroke-width="16.5" stroke-linecap="round"/><circle cx="1847.2" cy="1122.7" r="16.5" fill="#a8792c"/><line x1="1992" y1="1193.4" x2="1860.1" y2="1074.6" stroke="#332d23" stroke-width="16.5" stroke-linecap="round"/><circle cx="1860.1" cy="1074.6" r="16.5" fill="#a8792c"/><line x1="1992" y1="1193.4" x2="1889.2" y2="1028.8" stroke="#332d23" stroke-width="16.5" stroke-linecap="round"/><circle cx="1889.2" cy="1028.8" r="16.5" fill="#a8792c"/><line x1="1992" y1="1193.4" x2="1934" y2="991" stroke="#332d23" stroke-width="16.5" stroke-linecap="round"/><circle cx="1934" cy="991" r="16.5" fill="#a8792c"/><line x1="1992" y1="1193.4" x2="1992" y2="966.4" stroke="#332d23" stroke-width="16.5" stroke-linecap="round"/><circle cx="1992" cy="966.4" r="16.5" fill="#a8792c"/><line x1="1992" y1="1193.4" x2="2050" y2="991" stroke="#332d23" stroke-width="16.5" stroke-linecap="round"/><circle cx="2050" cy="991" r="16.5" fill="#a8792c"/><line x1="1992" y1="1193.4" x2="2094.8" y2="1028.8" stroke="#332d23" stroke-width="16.5" stroke-linecap="round"/><circle cx="2094.8" cy="1028.8" r="16.5" fill="#a8792c"/><line x1="1992" y1="1193.4" x2="2123.9" y2="1074.6" stroke="#332d23" stroke-width="16.5" stroke-linecap="round"/><circle cx="2123.9" cy="1074.6" r="16.5" fill="#a8792c"/><line x1="1992" y1="1193.4" x2="2136.8" y2="1122.7" stroke="#332d23" stroke-width="16.5" stroke-linecap="round"/><circle cx="2136.8" cy="1122.7" r="16.5" fill="#a8792c"/><path d="M0 0 Q 66.5 -103.4 0 -272.2 Q -66.5 -103.4 0 0 Z" fill="#332d23" opacity="1" transform="translate(457.5 1979.7) rotate(-58)"/><path d="M0 0 Q 66.5 -118.2 0 -311.2 Q -66.5 -118.2 0 0 Z" fill="#a8792c" opacity="1" transform="translate(457.5 1979.7) rotate(-34.8)"/><path d="M0 0 Q 66.5 -133.1 0 -350.2 Q -66.5 -133.1 0 0 Z" fill="#332d23" opacity="1" transform="translate(457.5 1979.7) rotate(-11.6)"/><path d="M0 0 Q 66.5 -133.1 0 -350.2 Q -66.5 -133.1 0 0 Z" fill="#a8792c" opacity="1" transform="translate(457.5 1979.7) rotate(11.6)"/><path d="M0 0 Q 66.5 -118.2 0 -311.2 Q -66.5 -118.2 0 0 Z" fill="#332d23" opacity="1" transform="translate(457.5 1979.7) rotate(34.8)"/><path d="M0 0 Q 66.5 -103.4 0 -272.2 Q -66.5 -103.4 0 0 Z" fill="#a8792c" opacity="1" transform="translate(457.5 1979.7) rotate(58)"/><path d="M346.6,1979.7 Q457.5,2105.4 568.4,1979.7 Z" fill="#332d23"/><path d="M0 0 Q 66.9 -127.1 0 -334.6 Q -66.9 -127.1 0 0 Z" fill="#a8792c" opacity="1" transform="translate(952.5 1979.7) rotate(0)"/><line x1="952.5" y1="1979.7" x2="952.5" y2="2026.5" stroke="#332d23" stroke-width="20.9"/><path d="M0 0 Q 71.2 -110.6 0 -291.1 Q -71.2 -110.6 0 0 Z" fill="#332d23" opacity="1" transform="translate(1447.5 1979.7) rotate(-58)"/><path d="M0 0 Q 71.2 -123.8 0 -325.9 Q -71.2 -123.8 0 0 Z" fill="#a8792c" opacity="1" transform="translate(1447.5 1979.7) rotate(-38.7)"/><path d="M0 0 Q 71.2 -137 0 -360.6 Q -71.2 -137 0 0 Z" fill="#332d23" opacity="1" transform="translate(1447.5 1979.7) rotate(-19.3)"/><path d="M0 0 Q 71.2 -150.2 0 -395.4 Q -71.2 -150.2 0 0 Z" fill="#a8792c" opacity="1" transform="translate(1447.5 1979.7) rotate(0)"/><path d="M0 0 Q 71.2 -137 0 -360.6 Q -71.2 -137 0 0 Z" fill="#332d23" opacity="1" transform="translate(1447.5 1979.7) rotate(19.3)"/><path d="M0 0 Q 71.2 -123.8 0 -325.9 Q -71.2 -123.8 0 0 Z" fill="#a8792c" opacity="1" transform="translate(1447.5 1979.7) rotate(38.7)"/><path d="M0 0 Q 71.2 -110.6 0 -291.1 Q -71.2 -110.6 0 0 Z" fill="#332d23" opacity="1" transform="translate(1447.5 1979.7) rotate(58)"/><path d="M1328.9,1979.7 Q1447.5,2114.1 1566.1,1979.7 Z" fill="#332d23"/><path d="M0 0 Q 65.9 -125.2 0 -329.5 Q -65.9 -125.2 0 0 Z" fill="#a8792c" opacity="1" transform="translate(1942.5 1979.7) rotate(0)"/><line x1="1942.5" y1="1979.7" x2="1942.5" y2="2026.5" stroke="#332d23" stroke-width="20.6"/><line x1="408" y1="2564.7" x2="408" y2="2349" stroke="#332d23" stroke-width="23.5"/><line x1="408" y1="2349" x2="252.9" y2="2273.4" stroke="#332d23" stroke-width="17.6" stroke-linecap="round"/><circle cx="252.9" cy="2273.4" r="17.6" fill="#a8792c"/><line x1="408" y1="2349" x2="266.7" y2="2221.7" stroke="#332d23" stroke-width="17.6" stroke-linecap="round"/><circle cx="266.7" cy="2221.7" r="17.6" fill="#a8792c"/><line x1="408" y1="2349" x2="297.9" y2="2172.7" stroke="#332d23" stroke-width="17.6" stroke-linecap="round"/><circle cx="297.9" cy="2172.7" r="17.6" fill="#a8792c"/><line x1="408" y1="2349" x2="345.8" y2="2132.3" stroke="#332d23" stroke-width="17.6" stroke-linecap="round"/><circle cx="345.8" cy="2132.3" r="17.6" fill="#a8792c"/><line x1="408" y1="2349" x2="408" y2="2105.9" stroke="#332d23" stroke-width="17.6" stroke-linecap="round"/><circle cx="408" cy="2105.9" r="17.6" fill="#a8792c"/><line x1="408" y1="2349" x2="470.2" y2="2132.3" stroke="#332d23" stroke-width="17.6" stroke-linecap="round"/><circle cx="470.2" cy="2132.3" r="17.6" fill="#a8792c"/><line x1="408" y1="2349" x2="518.1" y2="2172.7" stroke="#332d23" stroke-width="17.6" stroke-linecap="round"/><circle cx="518.1" cy="2172.7" r="17.6" fill="#a8792c"/><line x1="408" y1="2349" x2="549.3" y2="2221.7" stroke="#332d23" stroke-width="17.6" stroke-linecap="round"/><circle cx="549.3" cy="2221.7" r="17.6" fill="#a8792c"/><line x1="408" y1="2349" x2="563.1" y2="2273.4" stroke="#332d23" stroke-width="17.6" stroke-linecap="round"/><circle cx="563.1" cy="2273.4" r="17.6" fill="#a8792c"/><line x1="804" y1="2564.7" x2="804" y2="2338.4" stroke="#332d23" stroke-width="24.7"/><line x1="804" y1="2338.4" x2="641.3" y2="2259" stroke="#332d23" stroke-width="18.5" stroke-linecap="round"/><circle cx="641.3" cy="2259" r="18.5" fill="#a8792c"/><line x1="804" y1="2338.4" x2="655.7" y2="2204.9" stroke="#332d23" stroke-width="18.5" stroke-linecap="round"/><circle cx="655.7" cy="2204.9" r="18.5" fill="#a8792c"/><line x1="804" y1="2338.4" x2="688.4" y2="2153.4" stroke="#332d23" stroke-width="18.5" stroke-linecap="round"/><circle cx="688.4" cy="2153.4" r="18.5" fill="#a8792c"/><line x1="804" y1="2338.4" x2="738.8" y2="2111" stroke="#332d23" stroke-width="18.5" stroke-linecap="round"/><circle cx="738.8" cy="2111" r="18.5" fill="#a8792c"/><line x1="804" y1="2338.4" x2="804" y2="2083.3" stroke="#332d23" stroke-width="18.5" stroke-linecap="round"/><circle cx="804" cy="2083.3" r="18.5" fill="#a8792c"/><line x1="804" y1="2338.4" x2="869.2" y2="2111" stroke="#332d23" stroke-width="18.5" stroke-linecap="round"/><circle cx="869.2" cy="2111" r="18.5" fill="#a8792c"/><line x1="804" y1="2338.4" x2="919.6" y2="2153.4" stroke="#332d23" stroke-width="18.5" stroke-linecap="round"/><circle cx="919.6" cy="2153.4" r="18.5" fill="#a8792c"/><line x1="804" y1="2338.4" x2="952.3" y2="2204.9" stroke="#332d23" stroke-width="18.5" stroke-linecap="round"/><circle cx="952.3" cy="2204.9" r="18.5" fill="#a8792c"/><line x1="804" y1="2338.4" x2="966.7" y2="2259" stroke="#332d23" stroke-width="18.5" stroke-linecap="round"/><circle cx="966.7" cy="2259" r="18.5" fill="#a8792c"/><line x1="1200" y1="2564.7" x2="1200" y2="2351.8" stroke="#332d23" stroke-width="23.2"/><line x1="1200" y1="2351.8" x2="1046.9" y2="2277.1" stroke="#332d23" stroke-width="17.4" stroke-linecap="round"/><circle cx="1046.9" cy="2277.1" r="17.4" fill="#a8792c"/><line x1="1200" y1="2351.8" x2="1060.5" y2="2226.1" stroke="#332d23" stroke-width="17.4" stroke-linecap="round"/><circle cx="1060.5" cy="2226.1" r="17.4" fill="#a8792c"/><line x1="1200" y1="2351.8" x2="1091.3" y2="2177.8" stroke="#332d23" stroke-width="17.4" stroke-linecap="round"/><circle cx="1091.3" cy="2177.8" r="17.4" fill="#a8792c"/><line x1="1200" y1="2351.8" x2="1138.6" y2="2137.8" stroke="#332d23" stroke-width="17.4" stroke-linecap="round"/><circle cx="1138.6" cy="2137.8" r="17.4" fill="#a8792c"/><line x1="1200" y1="2351.8" x2="1200" y2="2111.7" stroke="#332d23" stroke-width="17.4" stroke-linecap="round"/><circle cx="1200" cy="2111.7" r="17.4" fill="#a8792c"/><line x1="1200" y1="2351.8" x2="1261.4" y2="2137.8" stroke="#332d23" stroke-width="17.4" stroke-linecap="round"/><circle cx="1261.4" cy="2137.8" r="17.4" fill="#a8792c"/><line x1="1200" y1="2351.8" x2="1308.7" y2="2177.8" stroke="#332d23" stroke-width="17.4" stroke-linecap="round"/><circle cx="1308.7" cy="2177.8" r="17.4" fill="#a8792c"/><line x1="1200" y1="2351.8" x2="1339.5" y2="2226.1" stroke="#332d23" stroke-width="17.4" stroke-linecap="round"/><circle cx="1339.5" cy="2226.1" r="17.4" fill="#a8792c"/><line x1="1200" y1="2351.8" x2="1353.1" y2="2277.1" stroke="#332d23" stroke-width="17.4" stroke-linecap="round"/><circle cx="1353.1" cy="2277.1" r="17.4" fill="#a8792c"/><line x1="1596" y1="2564.7" x2="1596" y2="2363.3" stroke="#332d23" stroke-width="22"/><line x1="1596" y1="2363.3" x2="1451.2" y2="2292.7" stroke="#332d23" stroke-width="16.5" stroke-linecap="round"/><circle cx="1451.2" cy="2292.7" r="16.5" fill="#a8792c"/><line x1="1596" y1="2363.3" x2="1464" y2="2244.5" stroke="#332d23" stroke-width="16.5" stroke-linecap="round"/><circle cx="1464" cy="2244.5" r="16.5" fill="#a8792c"/><line x1="1596" y1="2363.3" x2="1493.2" y2="2198.8" stroke="#332d23" stroke-width="16.5" stroke-linecap="round"/><circle cx="1493.2" cy="2198.8" r="16.5" fill="#a8792c"/><line x1="1596" y1="2363.3" x2="1538" y2="2160.9" stroke="#332d23" stroke-width="16.5" stroke-linecap="round"/><circle cx="1538" cy="2160.9" r="16.5" fill="#a8792c"/><line x1="1596" y1="2363.3" x2="1596" y2="2136.3" stroke="#332d23" stroke-width="16.5" stroke-linecap="round"/><circle cx="1596" cy="2136.3" r="16.5" fill="#a8792c"/><line x1="1596" y1="2363.3" x2="1654" y2="2160.9" stroke="#332d23" stroke-width="16.5" stroke-linecap="round"/><circle cx="1654" cy="2160.9" r="16.5" fill="#a8792c"/><line x1="1596" y1="2363.3" x2="1698.8" y2="2198.8" stroke="#332d23" stroke-width="16.5" stroke-linecap="round"/><circle cx="1698.8" cy="2198.8" r="16.5" fill="#a8792c"/><line x1="1596" y1="2363.3" x2="1728" y2="2244.5" stroke="#332d23" stroke-width="16.5" stroke-linecap="round"/><circle cx="1728" cy="2244.5" r="16.5" fill="#a8792c"/><line x1="1596" y1="2363.3" x2="1740.8" y2="2292.7" stroke="#332d23" stroke-width="16.5" stroke-linecap="round"/><circle cx="1740.8" cy="2292.7" r="16.5" fill="#a8792c"/><line x1="1992" y1="2564.7" x2="1992" y2="2348.8" stroke="#332d23" stroke-width="23.6"/><line x1="1992" y1="2348.8" x2="1836.8" y2="2273.1" stroke="#332d23" stroke-width="17.7" stroke-linecap="round"/><circle cx="1836.8" cy="2273.1" r="17.7" fill="#a8792c"/><line x1="1992" y1="2348.8" x2="1850.5" y2="2221.4" stroke="#332d23" stroke-width="17.7" stroke-linecap="round"/><circle cx="1850.5" cy="2221.4" r="17.7" fill="#a8792c"/><line x1="1992" y1="2348.8" x2="1881.8" y2="2172.4" stroke="#332d23" stroke-width="17.7" stroke-linecap="round"/><circle cx="1881.8" cy="2172.4" r="17.7" fill="#a8792c"/><line x1="1992" y1="2348.8" x2="1929.8" y2="2131.8" stroke="#332d23" stroke-width="17.7" stroke-linecap="round"/><circle cx="1929.8" cy="2131.8" r="17.7" fill="#a8792c"/><line x1="1992" y1="2348.8" x2="1992" y2="2105.4" stroke="#332d23" stroke-width="17.7" stroke-linecap="round"/><circle cx="1992" cy="2105.4" r="17.7" fill="#a8792c"/><line x1="1992" y1="2348.8" x2="2054.2" y2="2131.8" stroke="#332d23" stroke-width="17.7" stroke-linecap="round"/><circle cx="2054.2" cy="2131.8" r="17.7" fill="#a8792c"/><line x1="1992" y1="2348.8" x2="2102.2" y2="2172.4" stroke="#332d23" stroke-width="17.7" stroke-linecap="round"/><circle cx="2102.2" cy="2172.4" r="17.7" fill="#a8792c"/><line x1="1992" y1="2348.8" x2="2133.5" y2="2221.4" stroke="#332d23" stroke-width="17.7" stroke-linecap="round"/><circle cx="2133.5" cy="2221.4" r="17.7" fill="#a8792c"/><line x1="1992" y1="2348.8" x2="2147.2" y2="2273.1" stroke="#332d23" stroke-width="17.7" stroke-linecap="round"/><circle cx="2147.2" cy="2273.1" r="17.7" fill="#a8792c"/><rect x="120" y="120" width="2160" height="2760" fill="none" stroke="#332d23" stroke-width="6" opacity="0.85"/></g><rect width="2400" height="3000" filter="url(#a23-mottle)" style="mix-blend-mode:multiply" opacity="0.5"/><rect width="2400" height="3000" filter="url(#a23-fade)" style="mix-blend-mode:screen" opacity="0.55"/><rect width="2400" height="3000" filter="url(#a23-grain)" style="mix-blend-mode:multiply" opacity="0.32"/><ellipse cx="2112.8" cy="357.9" rx="213.8" ry="192" fill="#6b4a22" opacity="0.065" filter="url(#a23-blur9)"/><ellipse cx="402" cy="1678.5" rx="267.5" ry="219.8" fill="#6b4a22" opacity="0.051" filter="url(#a23-blur9)"/><ellipse cx="666" cy="852.8" rx="222.2" ry="242.4" fill="#6b4a22" opacity="0.045" filter="url(#a23-blur9)"/><ellipse cx="537.7" cy="581.8" rx="334.4" ry="214.7" fill="#6b4a22" opacity="0.041" filter="url(#a23-blur9)"/><ellipse cx="2204.1" cy="936.8" rx="311" ry="305.4" fill="#6b4a22" opacity="0.058" filter="url(#a23-blur9)"/><rect x="0" width="25.8" height="3000" fill="#fff2d0" opacity="0.027"/><rect x="51.5" width="25" height="3000" fill="#fff2d0" opacity="0.038"/><rect x="101.6" width="28.4" height="3000" fill="#fff2d0" opacity="0.016"/><rect x="158.3" width="24.3" height="3000" fill="#fff2d0" opacity="0.021"/><rect x="206.9" width="27.9" height="3000" fill="#fff2d0" opacity="0.043"/><rect x="262.7" width="25.3" height="3000" fill="#fff2d0" opacity="0.032"/><rect x="313.3" width="18.7" height="3000" fill="#fff2d0" opacity="0.033"/><rect x="350.7" width="19.5" height="3000" fill="#fff2d0" opacity="0.020"/><rect x="389.6" width="16.8" height="3000" fill="#fff2d0" opacity="0.020"/><rect x="423.2" width="29.3" height="3000" fill="#fff2d0" opacity="0.040"/><rect x="481.7" width="20.7" height="3000" fill="#fff2d0" opacity="0.040"/><rect x="523.2" width="15.2" height="3000" fill="#fff2d0" opacity="0.036"/><rect x="553.5" width="22.7" height="3000" fill="#fff2d0" opacity="0.038"/><rect x="598.8" width="28.9" height="3000" fill="#fff2d0" opacity="0.042"/><rect x="656.6" width="26.3" height="3000" fill="#fff2d0" opacity="0.030"/><rect x="709.3" width="27.5" height="3000" fill="#fff2d0" opacity="0.037"/><rect x="764.3" width="24.1" height="3000" fill="#fff2d0" opacity="0.038"/><rect x="812.6" width="15.3" height="3000" fill="#fff2d0" opacity="0.024"/><rect x="843.2" width="17" height="3000" fill="#fff2d0" opacity="0.017"/><rect x="877.3" width="24.8" height="3000" fill="#fff2d0" opacity="0.035"/><rect x="926.9" width="15.2" height="3000" fill="#fff2d0" opacity="0.022"/><rect x="957.4" width="21.5" height="3000" fill="#fff2d0" opacity="0.040"/><rect x="1000.5" width="32.3" height="3000" fill="#fff2d0" opacity="0.038"/><rect x="1065.1" width="24.5" height="3000" fill="#fff2d0" opacity="0.031"/><rect x="1114.1" width="32.5" height="3000" fill="#fff2d0" opacity="0.019"/><rect x="1179" width="27.5" height="3000" fill="#fff2d0" opacity="0.027"/><rect x="1234.1" width="29.2" height="3000" fill="#fff2d0" opacity="0.023"/><rect x="1292.5" width="25.9" height="3000" fill="#fff2d0" opacity="0.018"/><rect x="1344.4" width="22.6" height="3000" fill="#fff2d0" opacity="0.034"/><rect x="1389.6" width="28.6" height="3000" fill="#fff2d0" opacity="0.016"/><rect x="1446.8" width="18.2" height="3000" fill="#fff2d0" opacity="0.019"/><rect x="1483.2" width="16.1" height="3000" fill="#fff2d0" opacity="0.031"/><rect x="1515.4" width="28.7" height="3000" fill="#fff2d0" opacity="0.035"/><rect x="1572.8" width="19.9" height="3000" fill="#fff2d0" opacity="0.032"/><rect x="1612.5" width="32.8" height="3000" fill="#fff2d0" opacity="0.036"/><rect x="1678.1" width="16.5" height="3000" fill="#fff2d0" opacity="0.035"/><rect x="1711.2" width="24.5" height="3000" fill="#fff2d0" opacity="0.025"/><rect x="1760.2" width="27.3" height="3000" fill="#fff2d0" opacity="0.043"/><rect x="1814.7" width="17.5" height="3000" fill="#fff2d0" opacity="0.017"/><rect x="1849.6" width="20" height="3000" fill="#fff2d0" opacity="0.034"/><rect x="1889.6" width="34.5" height="3000" fill="#fff2d0" opacity="0.036"/><rect x="1958.5" width="19.8" height="3000" fill="#fff2d0" opacity="0.025"/><rect x="1998.2" width="17.2" height="3000" fill="#fff2d0" opacity="0.026"/><rect x="2032.5" width="31.4" height="3000" fill="#fff2d0" opacity="0.028"/><rect x="2095.4" width="15.6" height="3000" fill="#fff2d0" opacity="0.044"/><rect x="2126.5" width="26.4" height="3000" fill="#fff2d0" opacity="0.033"/><rect x="2179.4" width="28.7" height="3000" fill="#fff2d0" opacity="0.041"/><rect x="2236.9" width="28" height="3000" fill="#fff2d0" opacity="0.027"/><rect x="2292.8" width="26.1" height="3000" fill="#fff2d0" opacity="0.030"/><rect x="2344.9" width="32.4" height="3000" fill="#fff2d0" opacity="0.025"/><linearGradient id="a23-er" x1="0" x2="1" y1="0" y2="0"><stop offset="0" stop-color="#3a2a12" stop-opacity="0.22"/><stop offset="1" stop-color="#3a2a12" stop-opacity="0"/></linearGradient><rect x="0" y="0" width="90" height="3000" fill="url(#a23-er)"/><linearGradient id="a23-el" x1="1" x2="0" y1="0" y2="0"><stop offset="0" stop-color="#3a2a12" stop-opacity="0.22"/><stop offset="1" stop-color="#3a2a12" stop-opacity="0"/></linearGradient><rect x="2310" y="0" width="90" height="3000" fill="url(#a23-el)"/><linearGradient id="a23-ed" x1="0" x2="0" y1="0" y2="1"><stop offset="0" stop-color="#3a2a12" stop-opacity="0.22"/><stop offset="1" stop-color="#3a2a12" stop-opacity="0"/></linearGradient><rect x="0" y="0" width="2400" height="90" fill="url(#a23-ed)"/><linearGradient id="a23-eu" x1="0" x2="0" y1="1" y2="0"><stop offset="0" stop-color="#3a2a12" stop-opacity="0.22"/><stop offset="1" stop-color="#3a2a12" stop-opacity="0"/></linearGradient><rect x="0" y="2910" width="2400" height="90" fill="url(#a23-eu)"/><circle cx="1307.8" cy="1340.7" r="13.3" fill="#8a5a2e" opacity="0.104"/><circle cx="114" cy="1917.6" r="9.9" fill="#8a5a2e" opacity="0.105"/><circle cx="207.6" cy="2719.3" r="9.6" fill="#8a5a2e" opacity="0.112"/><circle cx="695.3" cy="603.9" r="8.5" fill="#8a5a2e" opacity="0.062"/><circle cx="447.4" cy="732.7" r="15.1" fill="#8a5a2e" opacity="0.077"/><circle cx="1788.2" cy="812.1" r="4.7" fill="#8a5a2e" opacity="0.081"/><circle cx="727" cy="160.6" r="14.3" fill="#8a5a2e" opacity="0.064"/><circle cx="2218.2" cy="1947.9" r="15.4" fill="#8a5a2e" opacity="0.074"/><circle cx="417.1" cy="714.9" r="4.9" fill="#8a5a2e" opacity="0.079"/><circle cx="1371.1" cy="2543.9" r="4.9" fill="#8a5a2e" opacity="0.107"/><circle cx="2112.8" cy="2680.4" r="4.6" fill="#8a5a2e" opacity="0.117"/><circle cx="1643" cy="972.3" r="10.9" fill="#8a5a2e" opacity="0.045"/><rect width="2400" height="3000" fill="url(#a23-vig)"/></svg></svg>