<svg xmlns="http://www.w3.org/2000/svg" width="2400" height="1800" viewBox="0 0 2400 1800"><rect width="2400" height="1800" fill="#dfe4dc"/><rect y="1400" width="2400" height="400" fill="#c2a67e"/><line x1="60" y1="1400" x2="10" y2="1800" stroke="#00000015" stroke-width="5"/><line x1="260" y1="1400" x2="210" y2="1800" stroke="#00000015" stroke-width="5"/><line x1="460" y1="1400" x2="410" y2="1800" stroke="#00000015" stroke-width="5"/><line x1="660" y1="1400" x2="610" y2="1800" stroke="#00000015" stroke-width="5"/><line x1="860" y1="1400" x2="810" y2="1800" stroke="#00000015" stroke-width="5"/><line x1="1060" y1="1400" x2="1010" y2="1800" stroke="#00000015" stroke-width="5"/><line x1="1260" y1="1400" x2="1210" y2="1800" stroke="#00000015" stroke-width="5"/><line x1="1460" y1="1400" x2="1410" y2="1800" stroke="#00000015" stroke-width="5"/><line x1="1660" y1="1400" x2="1610" y2="1800" stroke="#00000015" stroke-width="5"/><line x1="1860" y1="1400" x2="1810" y2="1800" stroke="#00000015" stroke-width="5"/><line x1="2060" y1="1400" x2="2010" y2="1800" stroke="#00000015" stroke-width="5"/><line x1="2260" y1="1400" x2="2210" y2="1800" stroke="#00000015" stroke-width="5"/><rect x="180" y="260" width="900" height="620" fill="#8a6a48"/><rect x="215" y="295" width="830" height="550" fill="#41524a"/><line x1="280" y1="420" x2="760" y2="420" stroke="#ffffff66" stroke-width="9" stroke-linecap="round"/><line x1="280" y1="520" x2="620" y2="520" stroke="#ffffff44" stroke-width="9" stroke-linecap="round"/><circle cx="880" cy="560" r="90" fill="none" stroke="#ffffff55" stroke-width="8"/><rect x="215" y="845" width="830" height="22" fill="#6f5436"/><rect x="330" y="1240" width="640" height="60" rx="10" fill="#9c7449"/><rect x="370" y="1300" width="60" height="240" fill="#8a6540"/><rect x="870" y="1300" width="60" height="240" fill="#8a6540"/><rect x="430" y="1160" width="150" height="80" rx="8" fill="#96422a"/><rect x="450" y="1120" width="150" height="40" rx="8" fill="#b49d72"/><circle cx="800" cy="1130" r="86" fill="#7fa3b8"/><path d="M760,1060 Q820,1100 780,1190 M740,1090 Q800,1120 850,1100" stroke="#5d8069" stroke-width="16" fill="none" stroke-linecap="round"/><circle cx="800" cy="1130" r="86" fill="none" stroke="#6b5233" stroke-width="7"/><line x1="800" y1="1216" x2="800" y2="1250" stroke="#6b5233" stroke-width="10"/><rect x="750" y="1244" width="100" height="14" rx="7" fill="#6b5233"/><rect x="1980" y="700" width="300" height="800" fill="#9c7449"/><rect x="2000" y="930" width="260" height="16" fill="#7c5a37"/><rect x="2020" y="790" width="36" height="140" fill="#b3502f"/><rect x="2066" y="802" width="36" height="128" fill="#39685c"/><rect x="2112" y="790" width="36" height="140" fill="#c9a227"/><rect x="2158" y="802" width="36" height="128" fill="#2c4661"/><rect x="2204" y="790" width="36" height="140" fill="#8a4423"/><rect x="2000" y="1180" width="260" height="16" fill="#7c5a37"/><rect x="2020" y="1040" width="36" height="140" fill="#39685c"/><rect x="2066" y="1052" width="36" height="128" fill="#c9a227"/><rect x="2112" y="1040" width="36" height="140" fill="#2c4661"/><rect x="2158" y="1052" width="36" height="128" fill="#8a4423"/><rect x="2204" y="1040" width="36" height="140" fill="#b3502f"/><rect x="2000" y="1430" width="260" height="16" fill="#7c5a37"/><rect x="2020" y="1290" width="36" height="140" fill="#c9a227"/><rect x="2066" y="1302" width="36" height="128" fill="#2c4661"/><rect x="2112" y="1290" width="36" height="140" fill="#8a4423"/><rect x="2158" y="1302" width="36" height="128" fill="#b3502f"/><rect x="2204" y="1290" width="36" height="140" fill="#39685c"/><defs><filter id="a36c-sh" x="-30%" y="-30%" width="160%" height="160%"><feGaussianBlur stdDeviation="16"/></filter></defs><rect x="1340.5" y="298.5" width="517" height="635" fill="#000" opacity="0.28" filter="url(#a36c-sh)"/><rect x="1326.5" y="276.5" width="517" height="635" fill="#3d342a"/><rect x="1341.8" y="291.8" width="486.4" height="604.5" fill="none" stroke="#00000055" stroke-width="3"/><rect x="1350" y="300" width="470" height="588" fill="#f6f2ea"/><svg x="1385.3" y="335.3" width="399.5" height="517.5" viewBox="0 0 2400 3000" preserveAspectRatio="xMidYMid slice"><filter id="a36-warp" x="-4%" y="-4%" width="108%" height="108%"><feTurbulence type="fractalNoise" baseFrequency="0.0105" numOctaves="2" seed="70" result="w"/><feDisplacementMap in="SourceGraphic" in2="w" scale="11" xChannelSelector="R" yChannelSelector="G"/></filter><filter id="a36-grain" x="0%" y="0%" width="100%" height="100%"><feTurbulence type="fractalNoise" baseFrequency="0.6" numOctaves="2" seed="77"/><feColorMatrix type="matrix" values="0.33 0.33 0.33 0 0.62  0.33 0.33 0.33 0 0.62  0.33 0.33 0.33 0 0.62  0 0 0 0 1"/></filter><filter id="a36-mottle" x="0%" y="0%" width="100%" height="100%"><feTurbulence type="fractalNoise" baseFrequency="0.0045" numOctaves="3" seed="83"/><feColorMatrix type="matrix" values="0.2 0.2 0.2 0 0.78  0.2 0.2 0.2 0 0.78  0.2 0.2 0.2 0 0.78  0 0 0 0 1"/></filter><filter id="a36-fade" x="0%" y="0%" width="100%" height="100%"><feTurbulence type="fractalNoise" baseFrequency="0.006" numOctaves="2" seed="99"/><feColorMatrix type="matrix" values="0.3 0.3 0.3 0 -0.08  0.3 0.3 0.3 0 -0.08  0.3 0.3 0.3 0 -0.1  0 0 0 0 1"/></filter><filter id="a36-blur9"><feGaussianBlur stdDeviation="9"/></filter><radialGradient id="a36-vig" cx="50%" cy="44%" r="78%"><stop offset="52%" stop-color="#241a10" stop-opacity="0"/><stop offset="100%" stop-color="#241a10" stop-opacity="0.17"/></radialGradient><radialGradient id="a36-warm" cx="60%" cy="30%" r="85%"><stop offset="0%" stop-color="#e8c890" stop-opacity="0.14"/><stop offset="70%" stop-color="#e8c890" stop-opacity="0"/></radialGradient><rect width="2400" height="3000" fill="#d8c298"/><rect width="2400" height="3000" fill="url(#a36-warm)"/><rect x="0" width="42.4" height="3000" fill="#6b4e26" opacity="0.075"/><rect x="58.9" width="30.9" height="3000" fill="#6b4e26" opacity="0.094"/><rect x="101.8" width="42.4" height="3000" fill="#6b4e26" opacity="0.053"/><rect x="160.8" width="27.1" height="3000" fill="#6b4e26" opacity="0.090"/><rect x="198.3" width="34.8" height="3000" fill="#6b4e26" opacity="0.071"/><rect x="246.7" width="19" height="3000" fill="#6b4e26" opacity="0.089"/><rect x="273.2" width="26.9" height="3000" fill="#6b4e26" opacity="0.045"/><rect x="310.6" width="36.2" height="3000" fill="#6b4e26" opacity="0.038"/><rect x="360.9" width="37.7" height="3000" fill="#6b4e26" opacity="0.092"/><rect x="413.2" width="24.1" height="3000" fill="#6b4e26" opacity="0.069"/><rect x="446.7" width="40.6" height="3000" fill="#6b4e26" opacity="0.065"/><rect x="503.1" width="30.2" height="3000" fill="#6b4e26" opacity="0.043"/><rect x="545" width="38.3" height="3000" fill="#6b4e26" opacity="0.079"/><rect x="598.2" width="29.8" height="3000" fill="#6b4e26" opacity="0.035"/><rect x="639.6" width="30.6" height="3000" fill="#6b4e26" opacity="0.080"/><rect x="682.1" width="26.9" height="3000" fill="#6b4e26" opacity="0.090"/><rect x="719.4" width="33.8" height="3000" fill="#6b4e26" opacity="0.038"/><rect x="766.3" width="36.2" height="3000" fill="#6b4e26" opacity="0.052"/><rect x="816.6" width="28.6" height="3000" fill="#6b4e26" opacity="0.097"/><rect x="856.3" width="29.6" height="3000" fill="#6b4e26" opacity="0.039"/><rect x="897.4" width="35.8" height="3000" fill="#6b4e26" opacity="0.063"/><rect x="947.1" width="27" height="3000" fill="#6b4e26" opacity="0.047"/><rect x="984.6" width="31.1" height="3000" fill="#6b4e26" opacity="0.094"/><rect x="1027.8" width="29.5" height="3000" fill="#6b4e26" opacity="0.071"/><rect x="1068.8" width="23.9" height="3000" fill="#6b4e26" opacity="0.047"/><rect x="1102.1" width="40.7" height="3000" fill="#6b4e26" opacity="0.047"/><rect x="1158.6" width="20.1" height="3000" fill="#6b4e26" opacity="0.076"/><rect x="1186.5" width="23.6" height="3000" fill="#6b4e26" opacity="0.033"/><rect x="1219.3" width="22.2" height="3000" fill="#6b4e26" opacity="0.045"/><rect x="1250.1" width="28.2" height="3000" fill="#6b4e26" opacity="0.099"/><rect x="1289.3" width="30.1" height="3000" fill="#6b4e26" opacity="0.063"/><rect x="1331.1" width="19.5" height="3000" fill="#6b4e26" opacity="0.035"/><rect x="1358.2" width="37.1" height="3000" fill="#6b4e26" opacity="0.069"/><rect x="1409.8" width="41.8" height="3000" fill="#6b4e26" opacity="0.099"/><rect x="1467.9" width="21.7" height="3000" fill="#6b4e26" opacity="0.060"/><rect x="1498" width="19" height="3000" fill="#6b4e26" opacity="0.047"/><rect x="1524.4" width="27.4" height="3000" fill="#6b4e26" opacity="0.090"/><rect x="1562.5" width="36.3" height="3000" fill="#6b4e26" opacity="0.052"/><rect x="1612.8" width="25.1" height="3000" fill="#6b4e26" opacity="0.032"/><rect x="1647.7" width="27.2" height="3000" fill="#6b4e26" opacity="0.070"/><rect x="1685.5" width="25.2" height="3000" fill="#6b4e26" opacity="0.092"/><rect x="1720.5" width="41.8" height="3000" fill="#6b4e26" opacity="0.061"/><rect x="1778.6" width="34" height="3000" fill="#6b4e26" opacity="0.051"/><rect x="1825.8" width="34.6" height="3000" fill="#6b4e26" opacity="0.060"/><rect x="1873.9" width="39" height="3000" fill="#6b4e26" opacity="0.061"/><rect x="1928" width="36.6" height="3000" fill="#6b4e26" opacity="0.073"/><rect x="1978.8" width="36.7" height="3000" fill="#6b4e26" opacity="0.039"/><rect x="2029.8" width="30.5" height="3000" fill="#6b4e26" opacity="0.095"/><rect x="2072.2" width="28.4" height="3000" fill="#6b4e26" opacity="0.036"/><rect x="2111.6" width="24.7" height="3000" fill="#6b4e26" opacity="0.075"/><rect x="2145.8" width="31.8" height="3000" fill="#6b4e26" opacity="0.072"/><rect x="2190" width="22.5" height="3000" fill="#6b4e26" opacity="0.089"/><rect x="2221.3" width="30.2" height="3000" fill="#6b4e26" opacity="0.046"/><rect x="2263.2" width="41.8" height="3000" fill="#6b4e26" opacity="0.086"/><rect x="2321.2" width="37.8" height="3000" fill="#6b4e26" opacity="0.095"/><rect x="2373.7" width="36.2" height="3000" fill="#6b4e26" opacity="0.096"/><rect y="0" width="2400" height="22.8" fill="#7c5c30" opacity="0.056"/><rect y="38" width="2400" height="18.3" fill="#7c5c30" opacity="0.031"/><rect y="68.5" width="2400" height="24" fill="#7c5c30" opacity="0.034"/><rect y="108.4" width="2400" height="28.6" fill="#7c5c30" opacity="0.047"/><rect y="156.1" width="2400" height="17.6" fill="#7c5c30" opacity="0.027"/><rect y="185.4" width="2400" height="26.6" fill="#7c5c30" opacity="0.044"/><rect y="229.7" width="2400" height="28.7" fill="#7c5c30" opacity="0.025"/><rect y="277.6" width="2400" height="28.5" fill="#7c5c30" opacity="0.025"/><rect y="325" width="2400" height="26.7" fill="#7c5c30" opacity="0.039"/><rect y="369.6" width="2400" height="26.1" fill="#7c5c30" opacity="0.058"/><rect y="413.1" width="2400" height="19.3" fill="#7c5c30" opacity="0.045"/><rect y="445.3" width="2400" height="24.1" fill="#7c5c30" opacity="0.056"/><rect y="485.5" width="2400" height="22" fill="#7c5c30" opacity="0.058"/><rect y="522.1" width="2400" height="14" fill="#7c5c30" opacity="0.034"/><rect y="545.4" width="2400" height="23.3" fill="#7c5c30" opacity="0.039"/><rect y="584.3" width="2400" height="22.9" fill="#7c5c30" opacity="0.053"/><rect y="622.5" width="2400" height="17.7" fill="#7c5c30" opacity="0.054"/><rect y="652.1" width="2400" height="22.7" fill="#7c5c30" opacity="0.030"/><rect y="690" width="2400" height="21" fill="#7c5c30" opacity="0.041"/><rect y="725" width="2400" height="16.8" fill="#7c5c30" opacity="0.052"/><rect y="753" width="2400" height="15" fill="#7c5c30" opacity="0.037"/><rect y="778" width="2400" height="12.9" fill="#7c5c30" opacity="0.021"/><rect y="799.5" width="2400" height="22.8" fill="#7c5c30" opacity="0.036"/><rect y="837.5" width="2400" height="18.6" fill="#7c5c30" opacity="0.057"/><rect y="868.6" width="2400" height="28.4" fill="#7c5c30" opacity="0.022"/><rect y="915.8" width="2400" height="28.3" fill="#7c5c30" opacity="0.027"/><rect y="963" width="2400" height="25.3" fill="#7c5c30" opacity="0.037"/><rect y="1005.2" width="2400" height="25.9" fill="#7c5c30" opacity="0.029"/><rect y="1048.4" width="2400" height="13.6" fill="#7c5c30" opacity="0.049"/><rect y="1071.2" width="2400" height="17.4" fill="#7c5c30" opacity="0.052"/><rect y="1100.2" width="2400" height="24.6" fill="#7c5c30" opacity="0.052"/><rect y="1141.2" width="2400" height="23.7" fill="#7c5c30" opacity="0.059"/><rect y="1180.6" width="2400" height="20" fill="#7c5c30" opacity="0.031"/><rect y="1214" width="2400" height="18.7" fill="#7c5c30" opacity="0.043"/><rect y="1245.1" width="2400" height="27.6" fill="#7c5c30" opacity="0.026"/><rect y="1291.2" width="2400" height="26" fill="#7c5c30" opacity="0.045"/><rect y="1334.4" width="2400" height="12.2" fill="#7c5c30" opacity="0.041"/><rect y="1354.8" width="2400" height="15.9" fill="#7c5c30" opacity="0.056"/><rect y="1381.3" width="2400" height="25.6" fill="#7c5c30" opacity="0.055"/><rect y="1424" width="2400" height="23.1" fill="#7c5c30" opacity="0.032"/><rect y="1462.5" width="2400" height="22.7" fill="#7c5c30" opacity="0.039"/><rect y="1500.3" width="2400" height="28.7" fill="#7c5c30" opacity="0.051"/><rect y="1548.1" width="2400" height="17.7" fill="#7c5c30" opacity="0.032"/><rect y="1577.7" width="2400" height="18.3" fill="#7c5c30" opacity="0.021"/><rect y="1608.2" width="2400" height="21.7" fill="#7c5c30" opacity="0.028"/><rect y="1644.3" width="2400" height="15.7" fill="#7c5c30" opacity="0.051"/><rect y="1670.5" width="2400" height="14.4" fill="#7c5c30" opacity="0.030"/><rect y="1694.5" width="2400" height="17.5" fill="#7c5c30" opacity="0.046"/><rect y="1723.7" width="2400" height="25.4" fill="#7c5c30" opacity="0.056"/><rect y="1766" width="2400" height="24.7" fill="#7c5c30" opacity="0.051"/><rect y="1807.1" width="2400" height="17.6" fill="#7c5c30" opacity="0.050"/><rect y="1836.4" width="2400" height="28.2" fill="#7c5c30" opacity="0.026"/><rect y="1883.4" width="2400" height="20.2" fill="#7c5c30" opacity="0.039"/><rect y="1917" width="2400" height="14.3" fill="#7c5c30" opacity="0.036"/><rect y="1940.8" width="2400" height="19" fill="#7c5c30" opacity="0.041"/><rect y="1972.4" width="2400" height="26.5" fill="#7c5c30" opacity="0.052"/><rect y="2016.5" width="2400" height="14.3" fill="#7c5c30" opacity="0.053"/><rect y="2040.3" width="2400" height="12.9" fill="#7c5c30" opacity="0.029"/><rect y="2061.9" width="2400" height="16.2" fill="#7c5c30" opacity="0.032"/><rect y="2088.9" width="2400" height="23.9" fill="#7c5c30" opacity="0.029"/><rect y="2128.7" width="2400" height="12.2" fill="#7c5c30" opacity="0.051"/><rect y="2148.9" width="2400" height="16.7" fill="#7c5c30" opacity="0.047"/><rect y="2176.8" width="2400" height="12" fill="#7c5c30" opacity="0.034"/><rect y="2196.9" width="2400" height="13.2" fill="#7c5c30" opacity="0.021"/><rect y="2219" width="2400" height="27.2" fill="#7c5c30" opacity="0.056"/><rect y="2264.3" width="2400" height="23" fill="#7c5c30" opacity="0.030"/><rect y="2302.6" width="2400" height="13" fill="#7c5c30" opacity="0.024"/><rect y="2324.3" width="2400" height="26.5" fill="#7c5c30" opacity="0.054"/><rect y="2368.6" width="2400" height="25.3" fill="#7c5c30" opacity="0.029"/><rect y="2410.8" width="2400" height="27.5" fill="#7c5c30" opacity="0.054"/><rect y="2456.6" width="2400" height="27.1" fill="#7c5c30" opacity="0.040"/><rect y="2501.7" width="2400" height="23.1" fill="#7c5c30" opacity="0.025"/><rect y="2540.2" width="2400" height="16" fill="#7c5c30" opacity="0.042"/><rect y="2566.8" width="2400" height="19.7" fill="#7c5c30" opacity="0.033"/><rect y="2599.7" width="2400" height="14.3" fill="#7c5c30" opacity="0.041"/><rect y="2623.5" width="2400" height="24.1" fill="#7c5c30" opacity="0.040"/><rect y="2663.7" width="2400" height="22.7" fill="#7c5c30" opacity="0.032"/><rect y="2701.5" width="2400" height="25.2" fill="#7c5c30" opacity="0.055"/><rect y="2743.6" width="2400" height="16.8" fill="#7c5c30" opacity="0.025"/><rect y="2771.6" width="2400" height="22.1" fill="#7c5c30" opacity="0.021"/><rect y="2808.5" width="2400" height="18.7" fill="#7c5c30" opacity="0.058"/><rect y="2839.7" width="2400" height="21.1" fill="#7c5c30" opacity="0.048"/><rect y="2874.9" width="2400" height="17.9" fill="#7c5c30" opacity="0.027"/><rect y="2904.7" width="2400" height="14.5" fill="#7c5c30" opacity="0.034"/><rect y="2929" width="2400" height="17.5" fill="#7c5c30" opacity="0.038"/><rect y="2958.2" width="2400" height="14.1" fill="#7c5c30" opacity="0.055"/><rect y="2981.7" width="2400" height="20.6" fill="#7c5c30" opacity="0.024"/><g filter="url(#a36-warp)"><clipPath id="a36-gz"><rect x="150" y="150" width="2100" height="2700"/></clipPath><g clip-path="url(#a36-gz)"><circle cx="984.7" cy="813.9" r="330.7" fill="#96422a"/><path d="M150,2050 C 700,1948.2 1100,2151.8 1600,1988.9 S 2200,2090.7 2250,2030 L2250,2850 L150,2850 Z" fill="#312a1e" opacity="0.35"/><path d="M150,2270 C 700,2188.6 1100,2351.4 1600,2221.2 S 2200,2302.5 2250,2250 L2250,2850 L150,2850 Z" fill="#b49d72" opacity="0.9"/><path d="M150,2520 C 700,2431.8 1100,2608.2 1600,2467.1 S 2200,2555.3 2250,2500 L2250,2850 L150,2850 Z" fill="#312a1e" opacity="1"/><polygon points="663.4,1226.8 220,2130 791.3,2130" fill="#312a1e"/><polygon points="663.4,1226.8 791.3,2130 1106.8,2130" fill="#312a1e" opacity="0.6"/><polygon points="1186.1,1460 682.9,2130 1319.4,2130" fill="#312a1e"/><polygon points="1186.1,1460 1319.4,2130 1689.3,2130" fill="#312a1e" opacity="0.6"/><polygon points="1865.9,1528.2 1551.9,2130 1950.6,2130" fill="#312a1e"/><polygon points="1865.9,1528.2 1950.6,2130 2180,2130" fill="#312a1e" opacity="0.6"/><path d="M1731.2,833.4 q 26,-24 52,0 q 26,-24 52,0" fill="none" stroke="#312a1e" stroke-width="8" stroke-linecap="round"/><path d="M1228.3,1046.3 q 26,-24 52,0 q 26,-24 52,0" fill="none" stroke="#312a1e" stroke-width="8" stroke-linecap="round"/></g><polyline points="240,2800 300,2740 360,2800 420,2740 480,2800 540,2740 600,2800 660,2740 720,2800 780,2740 840,2800 900,2740 960,2800 1020,2740 1080,2800 1140,2740 1200,2800 1260,2740 1320,2800 1380,2740 1440,2800 1500,2740 1560,2800 1620,2740 1680,2800 1740,2740 1800,2800 1860,2740 1920,2800 1980,2740 2040,2800 2100,2740 2160,2800 " fill="none" stroke="#312a1e" stroke-width="10.8" stroke-linejoin="miter"/><rect x="120" y="120" width="2160" height="2760" fill="none" stroke="#312a1e" stroke-width="6" opacity="0.85"/></g><rect width="2400" height="3000" filter="url(#a36-mottle)" style="mix-blend-mode:multiply" opacity="0.5"/><rect width="2400" height="3000" filter="url(#a36-fade)" style="mix-blend-mode:screen" opacity="0.55"/><rect width="2400" height="3000" filter="url(#a36-grain)" style="mix-blend-mode:multiply" opacity="0.32"/><ellipse cx="742.8" cy="848.5" rx="296.5" ry="186.9" fill="#6b4a22" opacity="0.026" filter="url(#a36-blur9)"/><ellipse cx="2131.1" cy="1772.7" rx="314" ry="203.9" fill="#6b4a22" opacity="0.052" filter="url(#a36-blur9)"/><ellipse cx="744.4" cy="794.3" rx="140.1" ry="148.9" fill="#6b4a22" opacity="0.056" filter="url(#a36-blur9)"/><ellipse cx="1036.4" cy="2842.7" rx="153.5" ry="134.6" fill="#6b4a22" opacity="0.042" filter="url(#a36-blur9)"/><ellipse cx="200.1" cy="1882.7" rx="122" ry="114.3" fill="#6b4a22" opacity="0.054" filter="url(#a36-blur9)"/><rect x="0" width="33.2" height="3000" fill="#fff2d0" opacity="0.019"/><rect x="66.4" width="31.6" height="3000" fill="#fff2d0" opacity="0.019"/><rect x="129.7" width="29.8" height="3000" fill="#fff2d0" opacity="0.044"/><rect x="189.2" width="18.2" height="3000" fill="#fff2d0" opacity="0.033"/><rect x="225.6" width="32.8" height="3000" fill="#fff2d0" opacity="0.040"/><rect x="291.2" width="23.9" height="3000" fill="#fff2d0" opacity="0.038"/><rect x="339" width="17.3" height="3000" fill="#fff2d0" opacity="0.031"/><rect x="373.6" width="16.1" height="3000" fill="#fff2d0" opacity="0.034"/><rect x="405.8" width="28.3" height="3000" fill="#fff2d0" opacity="0.025"/><rect x="462.4" width="32.3" height="3000" fill="#fff2d0" opacity="0.031"/><rect x="527" width="32.9" height="3000" fill="#fff2d0" opacity="0.038"/><rect x="592.7" width="28.8" height="3000" fill="#fff2d0" opacity="0.042"/><rect x="650.3" width="15.6" height="3000" fill="#fff2d0" opacity="0.037"/><rect x="681.6" width="32.2" height="3000" fill="#fff2d0" opacity="0.015"/><rect x="745.9" width="27.3" height="3000" fill="#fff2d0" opacity="0.037"/><rect x="800.4" width="32.4" height="3000" fill="#fff2d0" opacity="0.028"/><rect x="865.2" width="30.9" height="3000" fill="#fff2d0" opacity="0.036"/><rect x="927.1" width="33.4" height="3000" fill="#fff2d0" opacity="0.039"/><rect x="993.9" width="32.2" height="3000" fill="#fff2d0" opacity="0.026"/><rect x="1058.3" width="23.7" height="3000" fill="#fff2d0" opacity="0.032"/><rect x="1105.8" width="27.1" height="3000" fill="#fff2d0" opacity="0.028"/><rect x="1160" width="24.5" height="3000" fill="#fff2d0" opacity="0.018"/><rect x="1209.1" width="33.7" height="3000" fill="#fff2d0" opacity="0.043"/><rect x="1276.6" width="34.9" height="3000" fill="#fff2d0" opacity="0.044"/><rect x="1346.3" width="26.3" height="3000" fill="#fff2d0" opacity="0.022"/><rect x="1398.9" width="31.8" height="3000" fill="#fff2d0" opacity="0.041"/><rect x="1462.5" width="26.4" height="3000" fill="#fff2d0" opacity="0.034"/><rect x="1515.3" width="30.7" height="3000" fill="#fff2d0" opacity="0.033"/><rect x="1576.7" width="30.5" height="3000" fill="#fff2d0" opacity="0.033"/><rect x="1637.7" width="32" height="3000" fill="#fff2d0" opacity="0.039"/><rect x="1701.8" width="17.2" height="3000" fill="#fff2d0" opacity="0.015"/><rect x="1736.2" width="30.1" height="3000" fill="#fff2d0" opacity="0.017"/><rect x="1796.3" width="34" height="3000" fill="#fff2d0" opacity="0.032"/><rect x="1864.4" width="18.8" height="3000" fill="#fff2d0" opacity="0.022"/><rect x="1902.1" width="24.2" height="3000" fill="#fff2d0" opacity="0.044"/><rect x="1950.5" width="24.1" height="3000" fill="#fff2d0" opacity="0.017"/><rect x="1998.7" width="16.4" height="3000" fill="#fff2d0" opacity="0.031"/><rect x="2031.5" width="26.2" height="3000" fill="#fff2d0" opacity="0.035"/><rect x="2084" width="23.8" height="3000" fill="#fff2d0" opacity="0.044"/><rect x="2131.6" width="17.1" height="3000" fill="#fff2d0" opacity="0.029"/><rect x="2165.8" width="22" height="3000" fill="#fff2d0" opacity="0.026"/><rect x="2209.8" width="25.4" height="3000" fill="#fff2d0" opacity="0.027"/><rect x="2260.5" width="24.9" height="3000" fill="#fff2d0" opacity="0.034"/><rect x="2310.3" width="22.5" height="3000" fill="#fff2d0" opacity="0.035"/><rect x="2355.4" width="29.4" height="3000" fill="#fff2d0" opacity="0.031"/><linearGradient id="a36-er" x1="0" x2="1" y1="0" y2="0"><stop offset="0" stop-color="#3a2a12" stop-opacity="0.22"/><stop offset="1" stop-color="#3a2a12" stop-opacity="0"/></linearGradient><rect x="0" y="0" width="90" height="3000" fill="url(#a36-er)"/><linearGradient id="a36-el" x1="1" x2="0" y1="0" y2="0"><stop offset="0" stop-color="#3a2a12" stop-opacity="0.22"/><stop offset="1" stop-color="#3a2a12" stop-opacity="0"/></linearGradient><rect x="2310" y="0" width="90" height="3000" fill="url(#a36-el)"/><linearGradient id="a36-ed" x1="0" x2="0" y1="0" y2="1"><stop offset="0" stop-color="#3a2a12" stop-opacity="0.22"/><stop offset="1" stop-color="#3a2a12" stop-opacity="0"/></linearGradient><rect x="0" y="0" width="2400" height="90" fill="url(#a36-ed)"/><linearGradient id="a36-eu" x1="0" x2="0" y1="1" y2="0"><stop offset="0" stop-color="#3a2a12" stop-opacity="0.22"/><stop offset="1" stop-color="#3a2a12" stop-opacity="0"/></linearGradient><rect x="0" y="2910" width="2400" height="90" fill="url(#a36-eu)"/><circle cx="687.4" cy="1286" r="10.1" fill="#8a5a2e" opacity="0.113"/><circle cx="1841.5" cy="1362.2" r="14.3" fill="#8a5a2e" opacity="0.113"/><circle cx="1048.8" cy="139.6" r="5.4" fill="#8a5a2e" opacity="0.089"/><circle cx="1465.1" cy="513.1" r="12.1" fill="#8a5a2e" opacity="0.125"/><circle cx="1077.5" cy="2048.2" r="13.5" fill="#8a5a2e" opacity="0.102"/><circle cx="1885.9" cy="1060.9" r="13.4" fill="#8a5a2e" opacity="0.093"/><circle cx="701.5" cy="649.9" r="15.1" fill="#8a5a2e" opacity="0.084"/><circle cx="1708.9" cy="1197.6" r="5.9" fill="#8a5a2e" opacity="0.075"/><circle cx="1575" cy="812.3" r="8.9" fill="#8a5a2e" opacity="0.091"/><circle cx="1594.7" cy="2000.2" r="9.6" fill="#8a5a2e" opacity="0.120"/><circle cx="2137.1" cy="1436.6" r="3.4" fill="#8a5a2e" opacity="0.099"/><circle cx="1055.4" cy="880.2" r="9.1" fill="#8a5a2e" opacity="0.120"/><circle cx="617" cy="2850" r="15.5" fill="#8a5a2e" opacity="0.104"/><circle cx="91.6" cy="391.6" r="6" fill="#8a5a2e" opacity="0.128"/><rect width="2400" height="3000" fill="url(#a36-vig)"/></svg></svg>