<svg xmlns="http://www.w3.org/2000/svg" width="2400" height="1800" viewBox="0 0 2400 1800"><rect width="2400" height="1800" fill="#e5ddcf"/><rect y="1430" width="2400" height="370" fill="#b89a76"/><line x1="100" y1="1430" x2="45" y2="1800" stroke="#00000016" stroke-width="5"/><line x1="330" y1="1430" x2="275" y2="1800" stroke="#00000016" stroke-width="5"/><line x1="560" y1="1430" x2="505" y2="1800" stroke="#00000016" stroke-width="5"/><line x1="790" y1="1430" x2="735" y2="1800" stroke="#00000016" stroke-width="5"/><line x1="1020" y1="1430" x2="965" y2="1800" stroke="#00000016" stroke-width="5"/><line x1="1250" y1="1430" x2="1195" y2="1800" stroke="#00000016" stroke-width="5"/><line x1="1480" y1="1430" x2="1425" y2="1800" stroke="#00000016" stroke-width="5"/><line x1="1710" y1="1430" x2="1655" y2="1800" stroke="#00000016" stroke-width="5"/><line x1="1940" y1="1430" x2="1885" y2="1800" stroke="#00000016" stroke-width="5"/><line x1="2170" y1="1430" x2="2115" y2="1800" stroke="#00000016" stroke-width="5"/><rect x="620" y="1180" width="1180" height="52" rx="10" fill="#8a6540"/><rect x="680" y="1232" width="70" height="330" fill="#775433"/><rect x="1670" y="1232" width="70" height="330" fill="#775433"/><rect x="760" y="1120" width="220" height="34" rx="6" fill="#96a396"/><rect x="780" y="1086" width="200" height="34" rx="6" fill="#39685c"/><rect x="800" y="1052" width="170" height="34" rx="6" fill="#c9a227"/><circle cx="1240" cy="1130" r="46" fill="#3f3428"/><rect x="1226" y="1048" width="16" height="60" fill="#3f3428" transform="rotate(18 1240 1090)"/><rect x="1420" y="1100" width="260" height="26" rx="13" fill="#e8dcc0"/><rect x="1450" y="1072" width="260" height="26" rx="13" fill="#dfd0ad"/><rect x="1080" y="1300" width="360" height="34" rx="14" fill="#6f5436"/><rect x="1100" y="1334" width="40" height="220" fill="#6f5436"/><rect x="1380" y="1334" width="40" height="220" fill="#6f5436"/><rect x="1080" y="1030" width="42" height="290" rx="14" fill="#6f5436"/><rect x="260" y="480" width="560" height="24" fill="#8a6540"/><rect x="300" y="360" width="90" height="120" fill="#b3502f"/><rect x="400" y="380" width="80" height="100" fill="#2c4661"/><rect x="490" y="350" width="86" height="130" fill="#96a396"/><path d="M700,480 Q 616,347 574,382" fill="none" stroke="#5d7052" stroke-width="11.2" stroke-linecap="round"/><path d="M700,480 Q 644,347 616,354" fill="none" stroke="#5d7052" stroke-width="11.2" stroke-linecap="round"/><path d="M700,480 Q 672,347 658,326" fill="none" stroke="#5d7052" stroke-width="11.2" stroke-linecap="round"/><path d="M700,480 Q 700,347 700,298" fill="none" stroke="#5d7052" stroke-width="11.2" stroke-linecap="round"/><path d="M700,480 Q 728,347 742,326" fill="none" stroke="#5d7052" stroke-width="11.2" stroke-linecap="round"/><path d="M700,480 Q 756,347 784,354" fill="none" stroke="#5d7052" stroke-width="11.2" stroke-linecap="round"/><path d="M700,480 Q 784,347 826,382" fill="none" stroke="#5d7052" stroke-width="11.2" stroke-linecap="round"/><path d="M651,480 L749,480 L736.4,557 L663.6,557 Z" fill="#a9714d"/><path d="M320,1520 Q 164,1273 86,1338" fill="none" stroke="#5d7052" stroke-width="20.8" stroke-linecap="round"/><path d="M320,1520 Q 216,1273 164,1286" fill="none" stroke="#5d7052" stroke-width="20.8" stroke-linecap="round"/><path d="M320,1520 Q 268,1273 242,1234" fill="none" stroke="#5d7052" stroke-width="20.8" stroke-linecap="round"/><path d="M320,1520 Q 320,1273 320,1182" fill="none" stroke="#5d7052" stroke-width="20.8" stroke-linecap="round"/><path d="M320,1520 Q 372,1273 398,1234" fill="none" stroke="#5d7052" stroke-width="20.8" stroke-linecap="round"/><path d="M320,1520 Q 424,1273 476,1286" fill="none" stroke="#5d7052" stroke-width="20.8" stroke-linecap="round"/><path d="M320,1520 Q 476,1273 554,1338" fill="none" stroke="#5d7052" stroke-width="20.8" stroke-linecap="round"/><path d="M229,1520 L411,1520 L387.6,1663 L252.4,1663 Z" fill="#a9714d"/><defs><filter id="a67s-sh" x="-30%" y="-30%" width="160%" height="160%"><feGaussianBlur stdDeviation="16"/></filter></defs><rect x="1206" y="294" width="616" height="756" fill="#000" opacity="0.28" filter="url(#a67s-sh)"/><rect x="1192" y="272" width="616" height="756" fill="#443a2d"/><rect x="1210.2" y="290.2" width="579.6" height="719.6" fill="none" stroke="#00000055" stroke-width="3"/><rect x="1220" y="300" width="560" height="700" fill="#f6f2ea"/><svg x="1262" y="342" width="476" height="616" viewBox="0 0 2400 3000" preserveAspectRatio="xMidYMid slice"><rect width="2400" height="3000" fill="#e7e1d3"/><radialGradient id="a67-vig" cx="50%" cy="42%" r="80%"><stop offset="55%" stop-color="#000" stop-opacity="0"/><stop offset="100%" stop-color="#000" stop-opacity="0.15"/></radialGradient><rect width="2400" height="3000" fill="url(#a67-vig)"/><circle cx="760.4" cy="1879.4" r="2" fill="#39685c" opacity="0.041"/><circle cx="537.6" cy="43.1" r="1.9" fill="#39685c" opacity="0.035"/><circle cx="2273.5" cy="1483.6" r="4" fill="#39685c" opacity="0.049"/><circle cx="1205.9" cy="1869.7" r="3.1" fill="#39685c" opacity="0.056"/><circle cx="1516.4" cy="1084.6" r="3.2" fill="#39685c" opacity="0.061"/><circle cx="835.9" cy="2555" r="2.9" fill="#39685c" opacity="0.032"/><circle cx="2112.3" cy="504.7" r="3.1" fill="#39685c" opacity="0.040"/><circle cx="208.2" cy="1058.2" r="3.8" fill="#39685c" opacity="0.062"/><circle cx="1362" cy="1563.6" r="3.8" fill="#39685c" opacity="0.052"/><circle cx="547.7" cy="504.8" r="1.5" fill="#39685c" opacity="0.060"/><circle cx="1508.9" cy="385.6" r="2.1" fill="#39685c" opacity="0.041"/><circle cx="325.5" cy="1941.6" r="2.1" fill="#39685c" opacity="0.075"/><circle cx="552" cy="463.4" r="4.4" fill="#39685c" opacity="0.061"/><circle cx="1965.2" cy="2109.4" r="2.5" fill="#39685c" opacity="0.078"/><circle cx="867.5" cy="673" r="2.4" fill="#39685c" opacity="0.065"/><circle cx="783.7" cy="1074.4" r="4.4" fill="#39685c" opacity="0.051"/><circle cx="769.1" cy="1037" r="2.8" fill="#39685c" opacity="0.056"/><circle cx="1720" cy="2319.9" r="3.1" fill="#39685c" opacity="0.078"/><circle cx="2286.2" cy="388.1" r="3" fill="#39685c" opacity="0.075"/><circle cx="1946.8" cy="2393.2" r="2.5" fill="#39685c" opacity="0.048"/><circle cx="2072.8" cy="687.3" r="3.3" fill="#39685c" opacity="0.046"/><circle cx="1924.2" cy="2573.4" r="2.2" fill="#39685c" opacity="0.050"/><circle cx="1901.6" cy="2594.3" r="3.3" fill="#39685c" opacity="0.063"/><circle cx="649.2" cy="2137.5" r="1.7" fill="#39685c" opacity="0.049"/><circle cx="208.1" cy="1426.2" r="3.5" fill="#39685c" opacity="0.041"/><circle cx="331.7" cy="1200" r="3.6" fill="#39685c" opacity="0.051"/><circle cx="1164.3" cy="202" r="3.1" fill="#39685c" opacity="0.035"/><circle cx="296" cy="1240.9" r="1.9" fill="#39685c" opacity="0.069"/><circle cx="1002.9" cy="2418.4" r="4.1" fill="#39685c" opacity="0.056"/><circle cx="1318.4" cy="1137.4" r="3.3" fill="#39685c" opacity="0.038"/><circle cx="2328.7" cy="306.3" r="2" fill="#39685c" opacity="0.074"/><circle cx="959" cy="864.2" r="2.3" fill="#39685c" opacity="0.070"/><circle cx="1262.8" cy="101.7" r="2.7" fill="#39685c" opacity="0.048"/><circle cx="1649.2" cy="1263.3" r="4.3" fill="#39685c" opacity="0.062"/><circle cx="91.4" cy="976.8" r="1.7" fill="#39685c" opacity="0.034"/><circle cx="487.9" cy="1608.9" r="3.9" fill="#39685c" opacity="0.074"/><circle cx="446.5" cy="2414.9" r="1.7" fill="#39685c" opacity="0.070"/><circle cx="318" cy="281.6" r="1.7" fill="#39685c" opacity="0.055"/><circle cx="986.7" cy="1697.5" r="3.1" fill="#39685c" opacity="0.033"/><circle cx="951.1" cy="2490.6" r="1.8" fill="#39685c" opacity="0.041"/><circle cx="762.6" cy="118" r="3.4" fill="#39685c" opacity="0.043"/><circle cx="1171.3" cy="727.8" r="2.6" fill="#39685c" opacity="0.071"/><circle cx="45.5" cy="723" r="3.1" fill="#39685c" opacity="0.032"/><circle cx="1765" cy="751.2" r="3.6" fill="#39685c" opacity="0.070"/><circle cx="231.5" cy="1967.2" r="3.3" fill="#39685c" opacity="0.077"/><circle cx="1527.5" cy="2326.7" r="3.5" fill="#39685c" opacity="0.067"/><circle cx="432.7" cy="2638.6" r="2" fill="#39685c" opacity="0.074"/><circle cx="679.5" cy="659.3" r="3.4" fill="#39685c" opacity="0.074"/><circle cx="1046.9" cy="1542.2" r="1.8" fill="#39685c" opacity="0.032"/><circle cx="591.7" cy="1646" r="2.4" fill="#39685c" opacity="0.053"/><circle cx="1623.7" cy="1208.1" r="4.2" fill="#39685c" opacity="0.043"/><circle cx="1794.4" cy="969.4" r="1.5" fill="#39685c" opacity="0.077"/><circle cx="1638.4" cy="321.7" r="2.2" fill="#39685c" opacity="0.045"/><circle cx="520.1" cy="2029.7" r="3.1" fill="#39685c" opacity="0.045"/><circle cx="2053.9" cy="1534.9" r="1.6" fill="#39685c" opacity="0.041"/><circle cx="2008.7" cy="2164.7" r="1.8" fill="#39685c" opacity="0.068"/><circle cx="1527.4" cy="1161.4" r="4" fill="#39685c" opacity="0.043"/><circle cx="423" cy="2840" r="1.7" fill="#39685c" opacity="0.060"/><circle cx="66.3" cy="864.2" r="3.5" fill="#39685c" opacity="0.071"/><circle cx="210.6" cy="2823.5" r="2.6" fill="#39685c" opacity="0.035"/><circle cx="303.4" cy="1013.6" r="3.5" fill="#39685c" opacity="0.042"/><circle cx="430.1" cy="182.1" r="2.4" fill="#39685c" opacity="0.040"/><circle cx="2247.7" cy="1830.7" r="3.2" fill="#39685c" opacity="0.045"/><circle cx="2255.8" cy="209.7" r="4.3" fill="#39685c" opacity="0.050"/><circle cx="1095.7" cy="239.3" r="1.5" fill="#39685c" opacity="0.078"/><circle cx="460.3" cy="698.1" r="3.8" fill="#39685c" opacity="0.062"/><circle cx="1251.1" cy="908.4" r="3.8" fill="#39685c" opacity="0.032"/><circle cx="1825.7" cy="756.3" r="3.1" fill="#39685c" opacity="0.074"/><circle cx="1657.3" cy="2289.9" r="3.9" fill="#39685c" opacity="0.060"/><circle cx="2310.6" cy="1907" r="3.3" fill="#39685c" opacity="0.034"/><circle cx="1795.8" cy="1723.6" r="4.2" fill="#39685c" opacity="0.033"/><circle cx="1362.6" cy="2860.2" r="2.4" fill="#39685c" opacity="0.073"/><circle cx="1692.3" cy="2724.4" r="3" fill="#39685c" opacity="0.060"/><circle cx="1261.3" cy="814.1" r="2.8" fill="#39685c" opacity="0.041"/><circle cx="1133.8" cy="215.1" r="2.1" fill="#39685c" opacity="0.038"/><circle cx="873.4" cy="1710.4" r="2" fill="#39685c" opacity="0.067"/><circle cx="749.5" cy="2365.1" r="2.5" fill="#39685c" opacity="0.077"/><circle cx="2214.7" cy="1426.7" r="2.3" fill="#39685c" opacity="0.057"/><circle cx="312" cy="951.6" r="2.9" fill="#39685c" opacity="0.067"/><circle cx="1807.6" cy="1960.3" r="4" fill="#39685c" opacity="0.051"/><path d="M1822.7,1949.7 Q1752.2,2319.5 1538,2510.4 Q1323.8,2701.3 1082.5,2623.1 Q841.3,2544.9 676.9,2269.7 Q512.5,1994.6 517.8,1591.3 Q523.1,1188 696.1,889.9 Q869.1,591.9 1097.6,491.5 Q1326,391.2 1517.2,624.1 Q1708.5,856.9 1800.9,1218.5 Q1893.3,1580 1822.7,1949.7 Z" fill="#cfc7b2" stroke="#39685c" stroke-width="10"/><clipPath id="a67-rs"><path d="M1822.7,1949.7 Q1752.2,2319.5 1538,2510.4 Q1323.8,2701.3 1082.5,2623.1 Q841.3,2544.9 676.9,2269.7 Q512.5,1994.6 517.8,1591.3 Q523.1,1188 696.1,889.9 Q869.1,591.9 1097.6,491.5 Q1326,391.2 1517.2,624.1 Q1708.5,856.9 1800.9,1218.5 Q1893.3,1580 1822.7,1949.7 Z"/></clipPath><g clip-path="url(#a67-rs)"><path d="M740,2560 C 580,1900 900,1500 1200,1400 C 1500,1300 1760,1000 1500,640" fill="none" stroke="#39685c" stroke-width="150" opacity="0.25"/><line x1="740" y1="2518" x2="740" y2="2602" stroke="#39685c" stroke-width="14" stroke-linecap="round"/><line x1="740" y1="2556.5" x2="704.7" y2="2586.8" stroke="#39685c" stroke-width="12" stroke-linecap="round"/><line x1="761.6" y1="2403" x2="761.6" y2="2487" stroke="#39685c" stroke-width="14" stroke-linecap="round"/><line x1="761.6" y1="2415.5" x2="726.3" y2="2445.7" stroke="#39685c" stroke-width="12" stroke-linecap="round"/><line x1="784.4" y1="2286.2" x2="784.4" y2="2370.2" stroke="#39685c" stroke-width="14" stroke-linecap="round"/><line x1="784.4" y1="2299.9" x2="749.1" y2="2330.2" stroke="#39685c" stroke-width="12" stroke-linecap="round"/><line x1="809.7" y1="2166" x2="809.7" y2="2250" stroke="#39685c" stroke-width="14" stroke-linecap="round"/><line x1="809.7" y1="2188.8" x2="845" y2="2219.1" stroke="#39685c" stroke-width="12" stroke-linecap="round"/><line x1="809.7" y1="2183.9" x2="845" y2="2214.1" stroke="#39685c" stroke-width="12" stroke-linecap="round"/><line x1="838.6" y1="2041.3" x2="838.6" y2="2125.3" stroke="#39685c" stroke-width="14" stroke-linecap="round"/><line x1="838.6" y1="2060.4" x2="803.3" y2="2090.6" stroke="#39685c" stroke-width="12" stroke-linecap="round"/><line x1="872.1" y1="1911.9" x2="872.1" y2="1995.9" stroke="#39685c" stroke-width="14" stroke-linecap="round"/><line x1="872.1" y1="1923.2" x2="836.8" y2="1953.4" stroke="#39685c" stroke-width="12" stroke-linecap="round"/><line x1="872.1" y1="1940.5" x2="907.4" y2="1970.7" stroke="#39685c" stroke-width="12" stroke-linecap="round"/><line x1="910.9" y1="1778.3" x2="910.9" y2="1862.3" stroke="#39685c" stroke-width="14" stroke-linecap="round"/><line x1="910.9" y1="1793.6" x2="875.6" y2="1823.8" stroke="#39685c" stroke-width="12" stroke-linecap="round"/><line x1="955.4" y1="1641.4" x2="955.4" y2="1725.4" stroke="#39685c" stroke-width="14" stroke-linecap="round"/><line x1="955.4" y1="1672.5" x2="920.2" y2="1702.8" stroke="#39685c" stroke-width="12" stroke-linecap="round"/><line x1="955.4" y1="1660" x2="920.2" y2="1690.2" stroke="#39685c" stroke-width="12" stroke-linecap="round"/><line x1="1006.1" y1="1502.9" x2="1006.1" y2="1586.9" stroke="#39685c" stroke-width="14" stroke-linecap="round"/><line x1="1006.1" y1="1516" x2="970.8" y2="1546.3" stroke="#39685c" stroke-width="12" stroke-linecap="round"/><line x1="1006.1" y1="1521.5" x2="970.8" y2="1551.7" stroke="#39685c" stroke-width="12" stroke-linecap="round"/><line x1="1062.9" y1="1364.7" x2="1062.9" y2="1448.7" stroke="#39685c" stroke-width="14" stroke-linecap="round"/><line x1="1062.9" y1="1381.1" x2="1027.6" y2="1411.4" stroke="#39685c" stroke-width="12" stroke-linecap="round"/><line x1="1062.9" y1="1396.6" x2="1098.1" y2="1426.8" stroke="#39685c" stroke-width="12" stroke-linecap="round"/><line x1="1125.4" y1="1228.6" x2="1125.4" y2="1312.6" stroke="#39685c" stroke-width="14" stroke-linecap="round"/><line x1="1125.4" y1="1262" x2="1160.7" y2="1292.3" stroke="#39685c" stroke-width="12" stroke-linecap="round"/><line x1="1193.3" y1="1096.1" x2="1193.3" y2="1180.1" stroke="#39685c" stroke-width="14" stroke-linecap="round"/><line x1="1193.3" y1="1121.1" x2="1228.6" y2="1151.4" stroke="#39685c" stroke-width="12" stroke-linecap="round"/><line x1="1265.7" y1="968.1" x2="1265.7" y2="1052.1" stroke="#39685c" stroke-width="14" stroke-linecap="round"/><line x1="1265.7" y1="984.7" x2="1230.4" y2="1014.9" stroke="#39685c" stroke-width="12" stroke-linecap="round"/><line x1="1341.7" y1="844.8" x2="1341.7" y2="928.8" stroke="#39685c" stroke-width="14" stroke-linecap="round"/><line x1="1341.7" y1="883.2" x2="1306.4" y2="913.4" stroke="#39685c" stroke-width="12" stroke-linecap="round"/><line x1="1341.7" y1="858.2" x2="1377" y2="888.5" stroke="#39685c" stroke-width="12" stroke-linecap="round"/><line x1="1420.2" y1="725.7" x2="1420.2" y2="809.7" stroke="#39685c" stroke-width="14" stroke-linecap="round"/><line x1="1420.2" y1="743.2" x2="1384.9" y2="773.4" stroke="#39685c" stroke-width="12" stroke-linecap="round"/><line x1="1420.2" y1="755.1" x2="1455.5" y2="785.3" stroke="#39685c" stroke-width="12" stroke-linecap="round"/><line x1="1500" y1="609.6" x2="1500" y2="693.6" stroke="#39685c" stroke-width="14" stroke-linecap="round"/><line x1="1500" y1="636.8" x2="1535.3" y2="667" stroke="#39685c" stroke-width="12" stroke-linecap="round"/><line x1="1500" y1="634.1" x2="1464.7" y2="664.4" stroke="#39685c" stroke-width="12" stroke-linecap="round"/><polyline points="1506.6,640 1508.1,642 1508.9,644.7 1508.8,647.8 1507.7,651.1 1505.5,654.2 1502.1,656.8 1497.9,658.5 1492.9,659.1 1487.6,658.3 1482.3,655.9 1477.5,652.1 1473.6,646.8 1471,640.3 1470.1,633 1471.1,625.3 1474.1,617.7 1479.2,610.7 1486.2,605 1494.7,601 1504.3,599.2 1514.5,599.7 1524.6,602.9 1534,608.7 1542,616.9 1548,627.1 1551.4,638.9 1551.9,651.6 1549.1,664.4 1543.2,676.5 1534.3,687.2 1522.7,695.6 1509,701.1 1494,703.2 1478.6,701.6 1463.6,696.1 1450,687 1438.7,674.5 1430.6,659.4 1426.2,642.3 1426.1,624.3 1430.4,606.4 1439.1,589.7 1451.9,575.2 1468.1,564 1486.8,556.9 1507.2,554.4 1527.9,557 1547.9,564.6 1565.7,577 1580.3,593.6 1590.7,613.6 1596.1,636 1596,659.4 1590.2,682.4 1578.8,703.8 1562.3,722.1 1541.6,736.2 1517.8,745.1 1492.1,748 1466,744.6" fill="none" stroke="#39685c" stroke-width="18" stroke-linecap="round" stroke-linejoin="round"/><polyline points="733.4,2560 731.9,2562 731.1,2564.7 731.2,2567.8 732.3,2571.1 734.5,2574.2 737.9,2576.8 742.1,2578.5 747.1,2579.1 752.4,2578.3 757.7,2575.9 762.5,2572.1 766.4,2566.8 769,2560.3 769.9,2553 768.9,2545.3 765.9,2537.7 760.8,2530.7 753.8,2525 745.3,2521 735.7,2519.2 725.5,2519.7 715.4,2522.9 706,2528.7 698,2536.9 692,2547.1 688.6,2558.9 688.1,2571.6 690.9,2584.4 696.8,2596.5 705.7,2607.2 717.3,2615.6 731,2621.1 746,2623.2 761.4,2621.6 776.4,2616.1 790,2607 801.3,2594.5 809.4,2579.4 813.8,2562.3 813.9,2544.3 809.6,2526.4 800.9,2509.7 788.1,2495.2 771.9,2484 753.2,2476.9 732.8,2474.4 712.1,2477 692.1,2484.6 674.3,2497 659.7,2513.6 649.3,2533.6 643.9,2556 644,2579.4 649.8,2602.4 661.2,2623.8 677.7,2642.1 698.4,2656.2 722.2,2665.1 747.9,2668 774,2664.6" fill="none" stroke="#39685c" stroke-width="18" stroke-linecap="round" stroke-linejoin="round"/></g><rect x="100" y="100" width="2200" height="2800" fill="none" stroke="#39685c" stroke-width="9"/><rect x="142" y="142" width="2116" height="2716" fill="none" stroke="#39685c" stroke-width="3" opacity="0.65"/></svg></svg>