<svg xmlns="http://www.w3.org/2000/svg" width="2400" height="1800" viewBox="0 0 2400 1800"><rect width="2400" height="1800" fill="#e8e2d6"/><rect y="1420" width="2400" height="380" fill="#cbb597"/><ellipse cx="1200" cy="1640" rx="760" ry="130" fill="#24486e" opacity="0.55"/><ellipse cx="1200" cy="1640" rx="600" ry="96" fill="none" stroke="#4d84b5" stroke-width="10" opacity="0.5"/><rect x="700" y="1120" width="1000" height="300" rx="40" fill="#97a08c"/><rect x="640" y="1060" width="120" height="380" rx="40" fill="#87907c"/><rect x="1640" y="1060" width="120" height="380" rx="40" fill="#87907c"/><rect x="740" y="1010" width="920" height="180" rx="36" fill="#a3ac97"/><rect x="800" y="1060" width="240" height="160" rx="30" fill="#4d84b5"/><rect x="1380" y="1060" width="240" height="160" rx="30" fill="#24486e"/><rect x="700" y="1420" width="26" height="120" fill="#6f6353"/><rect x="1674" y="1420" width="26" height="120" fill="#6f6353"/><path d="M360,1520 Q330,820 800,880" fill="none" stroke="#4c4438" stroke-width="16"/><path d="M760,870 L840,880 L810,960 L770,955 Z" fill="#4c4438"/><rect x="300" y="1510" width="130" height="20" rx="10" fill="#4c4438"/><path d="M2080,1500 Q 1918,1243.5 1837,1311" fill="none" stroke="#5d7052" stroke-width="21.6" stroke-linecap="round"/><path d="M2080,1500 Q 1972,1243.5 1918,1257" fill="none" stroke="#5d7052" stroke-width="21.6" stroke-linecap="round"/><path d="M2080,1500 Q 2026,1243.5 1999,1203" fill="none" stroke="#5d7052" stroke-width="21.6" stroke-linecap="round"/><path d="M2080,1500 Q 2080,1243.5 2080,1149" fill="none" stroke="#5d7052" stroke-width="21.6" stroke-linecap="round"/><path d="M2080,1500 Q 2134,1243.5 2161,1203" fill="none" stroke="#5d7052" stroke-width="21.6" stroke-linecap="round"/><path d="M2080,1500 Q 2188,1243.5 2242,1257" fill="none" stroke="#5d7052" stroke-width="21.6" stroke-linecap="round"/><path d="M2080,1500 Q 2242,1243.5 2323,1311" fill="none" stroke="#5d7052" stroke-width="21.6" stroke-linecap="round"/><path d="M1985.5,1500 L2174.5,1500 L2150.2,1648.5 L2009.8,1648.5 Z" fill="#a9714d"/><defs><filter id="a96l-sh" x="-30%" y="-30%" width="160%" height="160%"><feGaussianBlur stdDeviation="16"/></filter></defs><rect x="939" y="217" width="550" height="675" fill="#000" opacity="0.28" filter="url(#a96l-sh)"/><rect x="925" y="195" width="550" height="675" fill="#2e2823"/><rect x="941.3" y="211.3" width="517.5" height="642.5" fill="none" stroke="#00000055" stroke-width="3"/><rect x="950" y="220" width="500" height="625" fill="#f6f2ea"/><svg x="987.5" y="257.5" width="425" height="550" viewBox="0 0 2400 3000" preserveAspectRatio="xMidYMid slice"><rect width="2400" height="3000" fill="#16324f"/><radialGradient id="a96-vig" cx="50%" cy="42%" r="80%"><stop offset="55%" stop-color="#000" stop-opacity="0"/><stop offset="100%" stop-color="#000" stop-opacity="0.15"/></radialGradient><rect width="2400" height="3000" fill="url(#a96-vig)"/><circle cx="2146.9" cy="993.3" r="2.4" fill="#d8b45a" opacity="0.074"/><circle cx="288.1" cy="1296.2" r="2.6" fill="#d8b45a" opacity="0.039"/><circle cx="643.6" cy="1252.6" r="4.2" fill="#d8b45a" opacity="0.070"/><circle cx="1854.1" cy="476.6" r="3.7" fill="#d8b45a" opacity="0.049"/><circle cx="1910.9" cy="1287.9" r="1.6" fill="#d8b45a" opacity="0.047"/><circle cx="338.9" cy="696.1" r="2.7" fill="#d8b45a" opacity="0.049"/><circle cx="1253.5" cy="1992.5" r="3" fill="#d8b45a" opacity="0.079"/><circle cx="1804.8" cy="1109.7" r="4.3" fill="#d8b45a" opacity="0.066"/><circle cx="1242.1" cy="666.7" r="2.2" fill="#d8b45a" opacity="0.055"/><circle cx="1910.3" cy="332.1" r="1.9" fill="#d8b45a" opacity="0.046"/><circle cx="1053.8" cy="777.5" r="4.1" fill="#d8b45a" opacity="0.039"/><circle cx="1793.3" cy="1893.6" r="2.3" fill="#d8b45a" opacity="0.079"/><circle cx="470.7" cy="1907.3" r="1.9" fill="#d8b45a" opacity="0.067"/><circle cx="1866.3" cy="1154.3" r="2.8" fill="#d8b45a" opacity="0.056"/><circle cx="2200.5" cy="2593.9" r="3.5" fill="#d8b45a" opacity="0.079"/><circle cx="462.8" cy="123.4" r="2.3" fill="#d8b45a" opacity="0.050"/><circle cx="311.3" cy="2814.7" r="3" fill="#d8b45a" opacity="0.049"/><circle cx="1820.3" cy="973.7" r="4.2" fill="#d8b45a" opacity="0.039"/><circle cx="887.9" cy="1053.3" r="3.8" fill="#d8b45a" opacity="0.048"/><circle cx="1805.9" cy="1062.7" r="1.8" fill="#d8b45a" opacity="0.068"/><circle cx="144.9" cy="751.5" r="4" fill="#d8b45a" opacity="0.070"/><circle cx="881.6" cy="2186.4" r="3.4" fill="#d8b45a" opacity="0.062"/><circle cx="1753.5" cy="1526.7" r="3.3" fill="#d8b45a" opacity="0.055"/><circle cx="598.7" cy="2093.8" r="3.4" fill="#d8b45a" opacity="0.047"/><circle cx="1070.9" cy="498.1" r="3.8" fill="#d8b45a" opacity="0.067"/><circle cx="899.6" cy="2120" r="4" fill="#d8b45a" opacity="0.055"/><circle cx="522.1" cy="1958.8" r="3.2" fill="#d8b45a" opacity="0.065"/><circle cx="1723.1" cy="851.6" r="3.4" fill="#d8b45a" opacity="0.074"/><circle cx="2252.1" cy="2370.4" r="2.5" fill="#d8b45a" opacity="0.078"/><circle cx="901.1" cy="1056.1" r="2.2" fill="#d8b45a" opacity="0.074"/><circle cx="168.3" cy="923.8" r="4.2" fill="#d8b45a" opacity="0.042"/><circle cx="553.7" cy="1509.4" r="3.1" fill="#d8b45a" opacity="0.075"/><circle cx="1653.2" cy="1289.4" r="1.8" fill="#d8b45a" opacity="0.046"/><circle cx="1445.1" cy="1037.2" r="4.1" fill="#d8b45a" opacity="0.030"/><circle cx="1653.5" cy="396.6" r="3.1" fill="#d8b45a" opacity="0.052"/><circle cx="580.2" cy="272.7" r="3.5" fill="#d8b45a" opacity="0.072"/><circle cx="497.9" cy="2557.8" r="1.8" fill="#d8b45a" opacity="0.042"/><circle cx="528.5" cy="1738.8" r="4.4" fill="#d8b45a" opacity="0.046"/><circle cx="528" cy="1256.7" r="4.5" fill="#d8b45a" opacity="0.033"/><circle cx="1015.9" cy="2861.7" r="4.1" fill="#d8b45a" opacity="0.058"/><circle cx="607.3" cy="345.7" r="2.3" fill="#d8b45a" opacity="0.036"/><circle cx="460.3" cy="2066.3" r="3.1" fill="#d8b45a" opacity="0.075"/><circle cx="1131.4" cy="2351.5" r="3.9" fill="#d8b45a" opacity="0.073"/><circle cx="236.8" cy="2711.1" r="4.5" fill="#d8b45a" opacity="0.037"/><circle cx="1053" cy="1316.9" r="2.5" fill="#d8b45a" opacity="0.058"/><circle cx="1723.8" cy="1502.6" r="4" fill="#d8b45a" opacity="0.071"/><circle cx="120" cy="243" r="3.1" fill="#d8b45a" opacity="0.048"/><circle cx="2271.3" cy="2403.4" r="4.5" fill="#d8b45a" opacity="0.066"/><circle cx="2234.9" cy="335.6" r="3.7" fill="#d8b45a" opacity="0.065"/><circle cx="2349.6" cy="2443.6" r="2.6" fill="#d8b45a" opacity="0.043"/><circle cx="2204.3" cy="681.6" r="2.4" fill="#d8b45a" opacity="0.055"/><circle cx="2217.6" cy="2565.5" r="2.2" fill="#d8b45a" opacity="0.053"/><circle cx="982.4" cy="386.7" r="2.8" fill="#d8b45a" opacity="0.071"/><circle cx="597.7" cy="1080.3" r="2.4" fill="#d8b45a" opacity="0.061"/><circle cx="587.9" cy="1014.6" r="3.5" fill="#d8b45a" opacity="0.078"/><circle cx="914" cy="1665.2" r="3.2" fill="#d8b45a" opacity="0.041"/><circle cx="920.9" cy="2782.4" r="4.2" fill="#d8b45a" opacity="0.039"/><circle cx="503.4" cy="1482.6" r="3" fill="#d8b45a" opacity="0.062"/><circle cx="2114.3" cy="2091.2" r="4.1" fill="#d8b45a" opacity="0.053"/><circle cx="384.9" cy="2078.1" r="2.9" fill="#d8b45a" opacity="0.040"/><circle cx="195.5" cy="1611.3" r="3.8" fill="#d8b45a" opacity="0.063"/><circle cx="966.5" cy="2791.4" r="4.4" fill="#d8b45a" opacity="0.055"/><circle cx="1750.2" cy="794.9" r="1.7" fill="#d8b45a" opacity="0.044"/><circle cx="589.5" cy="274" r="4.1" fill="#d8b45a" opacity="0.065"/><circle cx="1372.8" cy="519.9" r="4" fill="#d8b45a" opacity="0.061"/><circle cx="1592.9" cy="2027" r="3.9" fill="#d8b45a" opacity="0.045"/><circle cx="1494.8" cy="2825.2" r="3.7" fill="#d8b45a" opacity="0.032"/><circle cx="999.8" cy="359.3" r="2" fill="#d8b45a" opacity="0.079"/><circle cx="932.4" cy="807.6" r="4.5" fill="#d8b45a" opacity="0.061"/><circle cx="2110.1" cy="1277.1" r="2.9" fill="#d8b45a" opacity="0.054"/><circle cx="1588.4" cy="2899.7" r="3" fill="#d8b45a" opacity="0.039"/><circle cx="122.5" cy="2632.1" r="1.8" fill="#d8b45a" opacity="0.057"/><circle cx="1881.6" cy="603.3" r="4.2" fill="#d8b45a" opacity="0.073"/><circle cx="1375.9" cy="261.3" r="4.2" fill="#d8b45a" opacity="0.063"/><circle cx="122.7" cy="1402.7" r="3.8" fill="#d8b45a" opacity="0.071"/><circle cx="447.2" cy="1796.7" r="3.6" fill="#d8b45a" opacity="0.062"/><circle cx="287.6" cy="2792.3" r="4.3" fill="#d8b45a" opacity="0.077"/><circle cx="2278.7" cy="2767.6" r="3.8" fill="#d8b45a" opacity="0.049"/><circle cx="1025.4" cy="657.6" r="2.3" fill="#d8b45a" opacity="0.047"/><circle cx="1681.4" cy="2394.5" r="1.6" fill="#d8b45a" opacity="0.047"/><path d="M1163.8,1574.8 A130,130 0 1 1 1231,1576.2" fill="none" stroke="#d8b45a" stroke-width="45.7" stroke-linecap="round"/><line x1="1144.7" y1="1567.6" x2="1098.4" y2="1666" stroke="#d8b45a" stroke-width="45.7" stroke-linecap="round"/><path d="M1263.1,1219.7 A238.8,238.8 0 1 1 1139.5,1219" fill="none" stroke="#d8b45a" stroke-width="45.7" stroke-linecap="round"/><line x1="1104.1" y1="1231.3" x2="1060.5" y2="1131.7" stroke="#d8b45a" stroke-width="45.7" stroke-linecap="round"/><path d="M1095.5,1781.4 A347.5,347.5 0 1 1 1275.2,1789.3" fill="none" stroke="#d8b45a" stroke-width="45.7" stroke-linecap="round"/><line x1="1045" y1="1761" x2="996.5" y2="1858.3" stroke="#d8b45a" stroke-width="45.7" stroke-linecap="round"/><path d="M1414.5,1047.3 A456.3,456.3 0 1 1 1184.4,994" fill="none" stroke="#d8b45a" stroke-width="45.7" stroke-linecap="round"/><line x1="1113.3" y1="1002.1" x2="1092.6" y2="895.3" stroke="#d8b45a" stroke-width="45.7" stroke-linecap="round"/><path d="M1039.8,1991.8 A565,565 0 1 1 1332.2,1999.3" fill="none" stroke="#d8b45a" stroke-width="45.7" stroke-linecap="round"/><line x1="957.1" y1="1960.1" x2="910.3" y2="2058.3" stroke="#d8b45a" stroke-width="45.7" stroke-linecap="round"/><path d="M1509.6,851.6 A673.8,673.8 0 1 1 1168.9,777" fill="none" stroke="#d8b45a" stroke-width="45.7" stroke-linecap="round"/><line x1="1064" y1="790.1" x2="1042.1" y2="683.6" stroke="#d8b45a" stroke-width="45.7" stroke-linecap="round"/><path d="M937.3,2187.1 A782.5,782.5 0 1 1 1341.1,2219.7" fill="none" stroke="#d8b45a" stroke-width="45.7" stroke-linecap="round"/><line x1="825.3" y1="2136.9" x2="773.2" y2="2232.4" stroke="#d8b45a" stroke-width="45.7" stroke-linecap="round"/><path d="M1220.9,559 A891.3,891.3 0 1 1 772.6,667.9" fill="none" stroke="#d8b45a" stroke-width="45.7" stroke-linecap="round"/><circle cx="1200" cy="1450" r="56" fill="#4d84b5"/><path d="M324.7,287.3 L 395.3,287.3 L 395.3,216.7 L 339.8,216.7 L 339.8,260.4 L 368.4,260.4 L 368.4,238.6 M408.7,287.3 L 479.3,287.3 L 479.3,216.7 L 423.8,216.7 L 423.8,260.4 L 452.4,260.4 L 452.4,238.6 M492.7,287.3 L 563.3,287.3 L 563.3,216.7 L 507.8,216.7 L 507.8,260.4 L 536.4,260.4 L 536.4,238.6 M576.7,287.3 L 647.3,287.3 L 647.3,216.7 L 591.8,216.7 L 591.8,260.4 L 620.4,260.4 L 620.4,238.6 M660.7,287.3 L 731.3,287.3 L 731.3,216.7 L 675.8,216.7 L 675.8,260.4 L 704.4,260.4 L 704.4,238.6 M744.7,287.3 L 815.3,287.3 L 815.3,216.7 L 759.8,216.7 L 759.8,260.4 L 788.4,260.4 L 788.4,238.6 M828.7,287.3 L 899.3,287.3 L 899.3,216.7 L 843.8,216.7 L 843.8,260.4 L 872.4,260.4 L 872.4,238.6 M912.7,287.3 L 983.3,287.3 L 983.3,216.7 L 927.8,216.7 L 927.8,260.4 L 956.4,260.4 L 956.4,238.6 M996.7,287.3 L 1067.3,287.3 L 1067.3,216.7 L 1011.8,216.7 L 1011.8,260.4 L 1040.4,260.4 L 1040.4,238.6 M1080.7,287.3 L 1151.3,287.3 L 1151.3,216.7 L 1095.8,216.7 L 1095.8,260.4 L 1124.4,260.4 L 1124.4,238.6 M1164.7,287.3 L 1235.3,287.3 L 1235.3,216.7 L 1179.8,216.7 L 1179.8,260.4 L 1208.4,260.4 L 1208.4,238.6 M1248.7,287.3 L 1319.3,287.3 L 1319.3,216.7 L 1263.8,216.7 L 1263.8,260.4 L 1292.4,260.4 L 1292.4,238.6 M1332.7,287.3 L 1403.3,287.3 L 1403.3,216.7 L 1347.8,216.7 L 1347.8,260.4 L 1376.4,260.4 L 1376.4,238.6 M1416.7,287.3 L 1487.3,287.3 L 1487.3,216.7 L 1431.8,216.7 L 1431.8,260.4 L 1460.4,260.4 L 1460.4,238.6 M1500.7,287.3 L 1571.3,287.3 L 1571.3,216.7 L 1515.8,216.7 L 1515.8,260.4 L 1544.4,260.4 L 1544.4,238.6 M1584.7,287.3 L 1655.3,287.3 L 1655.3,216.7 L 1599.8,216.7 L 1599.8,260.4 L 1628.4,260.4 L 1628.4,238.6 M1668.7,287.3 L 1739.3,287.3 L 1739.3,216.7 L 1683.8,216.7 L 1683.8,260.4 L 1712.4,260.4 L 1712.4,238.6 M1752.7,287.3 L 1823.3,287.3 L 1823.3,216.7 L 1767.8,216.7 L 1767.8,260.4 L 1796.4,260.4 L 1796.4,238.6 M1836.7,287.3 L 1907.3,287.3 L 1907.3,216.7 L 1851.8,216.7 L 1851.8,260.4 L 1880.4,260.4 L 1880.4,238.6 M1920.7,287.3 L 1991.3,287.3 L 1991.3,216.7 L 1935.8,216.7 L 1935.8,260.4 L 1964.4,260.4 L 1964.4,238.6 M2004.7,287.3 L 2075.3,287.3 L 2075.3,216.7 L 2019.8,216.7 L 2019.8,260.4 L 2048.4,260.4 L 2048.4,238.6 " fill="none" stroke="#d8b45a" stroke-width="10.9"/><path d="M324.7,2777.3 L 395.3,2777.3 L 395.3,2706.7 L 339.8,2706.7 L 339.8,2750.4 L 368.4,2750.4 L 368.4,2728.6 M408.7,2777.3 L 479.3,2777.3 L 479.3,2706.7 L 423.8,2706.7 L 423.8,2750.4 L 452.4,2750.4 L 452.4,2728.6 M492.7,2777.3 L 563.3,2777.3 L 563.3,2706.7 L 507.8,2706.7 L 507.8,2750.4 L 536.4,2750.4 L 536.4,2728.6 M576.7,2777.3 L 647.3,2777.3 L 647.3,2706.7 L 591.8,2706.7 L 591.8,2750.4 L 620.4,2750.4 L 620.4,2728.6 M660.7,2777.3 L 731.3,2777.3 L 731.3,2706.7 L 675.8,2706.7 L 675.8,2750.4 L 704.4,2750.4 L 704.4,2728.6 M744.7,2777.3 L 815.3,2777.3 L 815.3,2706.7 L 759.8,2706.7 L 759.8,2750.4 L 788.4,2750.4 L 788.4,2728.6 M828.7,2777.3 L 899.3,2777.3 L 899.3,2706.7 L 843.8,2706.7 L 843.8,2750.4 L 872.4,2750.4 L 872.4,2728.6 M912.7,2777.3 L 983.3,2777.3 L 983.3,2706.7 L 927.8,2706.7 L 927.8,2750.4 L 956.4,2750.4 L 956.4,2728.6 M996.7,2777.3 L 1067.3,2777.3 L 1067.3,2706.7 L 1011.8,2706.7 L 1011.8,2750.4 L 1040.4,2750.4 L 1040.4,2728.6 M1080.7,2777.3 L 1151.3,2777.3 L 1151.3,2706.7 L 1095.8,2706.7 L 1095.8,2750.4 L 1124.4,2750.4 L 1124.4,2728.6 M1164.7,2777.3 L 1235.3,2777.3 L 1235.3,2706.7 L 1179.8,2706.7 L 1179.8,2750.4 L 1208.4,2750.4 L 1208.4,2728.6 M1248.7,2777.3 L 1319.3,2777.3 L 1319.3,2706.7 L 1263.8,2706.7 L 1263.8,2750.4 L 1292.4,2750.4 L 1292.4,2728.6 M1332.7,2777.3 L 1403.3,2777.3 L 1403.3,2706.7 L 1347.8,2706.7 L 1347.8,2750.4 L 1376.4,2750.4 L 1376.4,2728.6 M1416.7,2777.3 L 1487.3,2777.3 L 1487.3,2706.7 L 1431.8,2706.7 L 1431.8,2750.4 L 1460.4,2750.4 L 1460.4,2728.6 M1500.7,2777.3 L 1571.3,2777.3 L 1571.3,2706.7 L 1515.8,2706.7 L 1515.8,2750.4 L 1544.4,2750.4 L 1544.4,2728.6 M1584.7,2777.3 L 1655.3,2777.3 L 1655.3,2706.7 L 1599.8,2706.7 L 1599.8,2750.4 L 1628.4,2750.4 L 1628.4,2728.6 M1668.7,2777.3 L 1739.3,2777.3 L 1739.3,2706.7 L 1683.8,2706.7 L 1683.8,2750.4 L 1712.4,2750.4 L 1712.4,2728.6 M1752.7,2777.3 L 1823.3,2777.3 L 1823.3,2706.7 L 1767.8,2706.7 L 1767.8,2750.4 L 1796.4,2750.4 L 1796.4,2728.6 M1836.7,2777.3 L 1907.3,2777.3 L 1907.3,2706.7 L 1851.8,2706.7 L 1851.8,2750.4 L 1880.4,2750.4 L 1880.4,2728.6 M1920.7,2777.3 L 1991.3,2777.3 L 1991.3,2706.7 L 1935.8,2706.7 L 1935.8,2750.4 L 1964.4,2750.4 L 1964.4,2728.6 M2004.7,2777.3 L 2075.3,2777.3 L 2075.3,2706.7 L 2019.8,2706.7 L 2019.8,2750.4 L 2048.4,2750.4 L 2048.4,2728.6 " fill="none" stroke="#d8b45a" stroke-width="10.9"/><rect x="100" y="100" width="2200" height="2800" fill="none" stroke="#d8b45a" stroke-width="9"/><rect x="142" y="142" width="2116" height="2716" fill="none" stroke="#d8b45a" stroke-width="3" opacity="0.65"/></svg></svg>