<svg xmlns="http://www.w3.org/2000/svg" width="2400" height="1800" viewBox="0 0 2400 1800"><rect width="2400" height="1800" fill="#e3dccd"/><rect x="160" y="240" width="560" height="1060" fill="none" stroke="#cabfa9" stroke-width="10"/><rect x="200" y="280" width="480" height="980" fill="none" stroke="#cabfa9" stroke-width="5"/><rect x="1680" y="240" width="560" height="1060" fill="none" stroke="#cabfa9" stroke-width="10"/><rect x="1720" y="280" width="480" height="980" fill="none" stroke="#cabfa9" stroke-width="5"/><rect y="1380" width="2400" height="420" fill="#a98f6d"/><line x1="0" y1="1380" x2="-70" y2="1800" stroke="#00000018" stroke-width="6"/><line x1="190" y1="1380" x2="120" y2="1800" stroke="#00000018" stroke-width="6"/><line x1="380" y1="1380" x2="310" y2="1800" stroke="#00000018" stroke-width="6"/><line x1="570" y1="1380" x2="500" y2="1800" stroke="#00000018" stroke-width="6"/><line x1="760" y1="1380" x2="690" y2="1800" stroke="#00000018" stroke-width="6"/><line x1="950" y1="1380" x2="880" y2="1800" stroke="#00000018" stroke-width="6"/><line x1="1140" y1="1380" x2="1070" y2="1800" stroke="#00000018" stroke-width="6"/><line x1="1330" y1="1380" x2="1260" y2="1800" stroke="#00000018" stroke-width="6"/><line x1="1520" y1="1380" x2="1450" y2="1800" stroke="#00000018" stroke-width="6"/><line x1="1710" y1="1380" x2="1640" y2="1800" stroke="#00000018" stroke-width="6"/><line x1="1900" y1="1380" x2="1830" y2="1800" stroke="#00000018" stroke-width="6"/><line x1="2090" y1="1380" x2="2020" y2="1800" stroke="#00000018" stroke-width="6"/><line x1="2280" y1="1380" x2="2210" y2="1800" stroke="#00000018" stroke-width="6"/><rect y="1364" width="2400" height="18" fill="#d3c8b2"/><path d="M700,1500 L1700,1500 L1860,1800 L540,1800 Z" fill="#b3502f" opacity="0.75"/><path d="M760,1540 L1640,1540 L1760,1760 L640,1760 Z" fill="none" stroke="#f4ecdd" stroke-width="10" opacity="0.8"/><rect x="880" y="1180" width="640" height="40" rx="8" fill="#6f5436"/><rect x="920" y="1220" width="44" height="240" fill="#5e4629"/><rect x="1436" y="1220" width="44" height="240" fill="#5e4629"/><path d="M1160,1180 q -14,-90 40,-160 M1200,1180 q 4,-120 -10,-200 M1230,1180 q 30,-90 90,-130" stroke="#5d7052" stroke-width="12" fill="none" stroke-linecap="round"/><path d="M1150,1180 L1250,1180 L1230,1080 L1170,1080 Z" fill="#cdb488" transform="translate(0,0)"/><path d="M1155,1060 h90 l-12,124 h-66 Z" fill="#b98a5a"/><rect x="1380" y="1120" width="18" height="60" fill="#8f6b3d"/><ellipse cx="1389" cy="1116" rx="16" ry="10" fill="#c9a227"/><defs><filter id="a35h-sh" x="-30%" y="-30%" width="160%" height="160%"><feGaussianBlur stdDeviation="16"/></filter></defs><rect x="950" y="258" width="528" height="648" fill="#000" opacity="0.28" filter="url(#a35h-sh)"/><rect x="936" y="236" width="528" height="648" fill="#33291f"/><rect x="951.6" y="251.6" width="496.8" height="616.8" fill="none" stroke="#00000055" stroke-width="3"/><rect x="960" y="260" width="480" height="600" fill="#f6f2ea"/><svg x="996" y="296" width="408" height="528" viewBox="0 0 2400 3000" preserveAspectRatio="xMidYMid slice"><rect width="2400" height="3000" fill="#e4cfa4"/><radialGradient id="a35-vig" cx="50%" cy="42%" r="80%"><stop offset="55%" stop-color="#000" stop-opacity="0"/><stop offset="100%" stop-color="#000" stop-opacity="0.15"/></radialGradient><rect width="2400" height="3000" fill="url(#a35-vig)"/><circle cx="1723.7" cy="2049.8" r="4.5" fill="#6e421d" opacity="0.057"/><circle cx="808" cy="1935" r="3.7" fill="#6e421d" opacity="0.069"/><circle cx="365.8" cy="2572" r="4" fill="#6e421d" opacity="0.048"/><circle cx="2223.1" cy="232.8" r="3.7" fill="#6e421d" opacity="0.078"/><circle cx="1107.2" cy="1681.3" r="3.5" fill="#6e421d" opacity="0.067"/><circle cx="1911.2" cy="1885" r="1.9" fill="#6e421d" opacity="0.069"/><circle cx="2243.4" cy="468.3" r="3.3" fill="#6e421d" opacity="0.052"/><circle cx="1320.3" cy="1505.3" r="4.3" fill="#6e421d" opacity="0.031"/><circle cx="223.2" cy="1086.4" r="3.8" fill="#6e421d" opacity="0.037"/><circle cx="46.7" cy="654.5" r="2.3" fill="#6e421d" opacity="0.035"/><circle cx="1446.9" cy="1070" r="2.4" fill="#6e421d" opacity="0.057"/><circle cx="107.7" cy="2875.2" r="2.5" fill="#6e421d" opacity="0.071"/><circle cx="1140.5" cy="1951" r="2.9" fill="#6e421d" opacity="0.031"/><circle cx="1542.5" cy="528.6" r="2.1" fill="#6e421d" opacity="0.079"/><circle cx="2132.4" cy="2473.1" r="2" fill="#6e421d" opacity="0.048"/><circle cx="969.4" cy="150.4" r="3.8" fill="#6e421d" opacity="0.031"/><circle cx="482.9" cy="2472.8" r="4.1" fill="#6e421d" opacity="0.037"/><circle cx="1113.8" cy="1622.7" r="3.4" fill="#6e421d" opacity="0.049"/><circle cx="143.4" cy="2254" r="2.9" fill="#6e421d" opacity="0.032"/><circle cx="1502.8" cy="2390.5" r="1.6" fill="#6e421d" opacity="0.043"/><circle cx="884.1" cy="2775.1" r="4.3" fill="#6e421d" opacity="0.035"/><circle cx="2214.5" cy="490.3" r="2.5" fill="#6e421d" opacity="0.075"/><circle cx="1144.8" cy="1378.1" r="2" fill="#6e421d" opacity="0.033"/><circle cx="922.6" cy="683.1" r="3.7" fill="#6e421d" opacity="0.051"/><circle cx="1990.3" cy="1175.4" r="4" fill="#6e421d" opacity="0.075"/><circle cx="471.6" cy="2768.1" r="2.5" fill="#6e421d" opacity="0.065"/><circle cx="450.1" cy="2468.1" r="3.9" fill="#6e421d" opacity="0.077"/><circle cx="1673.6" cy="1759.9" r="3.5" fill="#6e421d" opacity="0.067"/><circle cx="1333.9" cy="2464.8" r="2.8" fill="#6e421d" opacity="0.057"/><circle cx="983.9" cy="703.8" r="2.6" fill="#6e421d" opacity="0.077"/><circle cx="1314.5" cy="1690.1" r="3.6" fill="#6e421d" opacity="0.065"/><circle cx="461.9" cy="254.1" r="2" fill="#6e421d" opacity="0.059"/><circle cx="1066.3" cy="2596.8" r="1.9" fill="#6e421d" opacity="0.060"/><circle cx="1876.9" cy="1056.3" r="3.8" fill="#6e421d" opacity="0.075"/><circle cx="1822.7" cy="2083" r="2.5" fill="#6e421d" opacity="0.077"/><circle cx="837.8" cy="1924" r="4.4" fill="#6e421d" opacity="0.066"/><circle cx="1368.3" cy="2822.6" r="3.1" fill="#6e421d" opacity="0.061"/><circle cx="295" cy="2269.9" r="3.6" fill="#6e421d" opacity="0.073"/><circle cx="190.4" cy="699.2" r="4.3" fill="#6e421d" opacity="0.042"/><circle cx="627.8" cy="231.3" r="3.5" fill="#6e421d" opacity="0.059"/><circle cx="247.1" cy="1530" r="4.2" fill="#6e421d" opacity="0.046"/><circle cx="445.6" cy="2573.9" r="2.9" fill="#6e421d" opacity="0.057"/><circle cx="1082.7" cy="1408.2" r="2.6" fill="#6e421d" opacity="0.059"/><circle cx="1083.9" cy="1513.8" r="4.4" fill="#6e421d" opacity="0.031"/><circle cx="1804" cy="2505.1" r="3.1" fill="#6e421d" opacity="0.057"/><circle cx="1570.9" cy="1239.7" r="2.6" fill="#6e421d" opacity="0.045"/><circle cx="105.4" cy="2888.3" r="4.3" fill="#6e421d" opacity="0.042"/><circle cx="1131.9" cy="1297.1" r="4.3" fill="#6e421d" opacity="0.030"/><circle cx="2264" cy="894.9" r="3.3" fill="#6e421d" opacity="0.044"/><circle cx="2235.1" cy="2472.8" r="2.5" fill="#6e421d" opacity="0.058"/><circle cx="1679.9" cy="1941.5" r="2.5" fill="#6e421d" opacity="0.063"/><circle cx="928.7" cy="1668.9" r="3.6" fill="#6e421d" opacity="0.058"/><circle cx="1803.8" cy="940" r="3.4" fill="#6e421d" opacity="0.053"/><circle cx="283.7" cy="2846.7" r="2.1" fill="#6e421d" opacity="0.072"/><circle cx="1901.9" cy="823.9" r="3.3" fill="#6e421d" opacity="0.048"/><circle cx="1303.9" cy="875.2" r="3.7" fill="#6e421d" opacity="0.061"/><circle cx="1583.4" cy="2191.1" r="2.6" fill="#6e421d" opacity="0.079"/><circle cx="1317.7" cy="1299" r="1.9" fill="#6e421d" opacity="0.035"/><circle cx="1653.8" cy="1635.5" r="3.7" fill="#6e421d" opacity="0.073"/><circle cx="2290.9" cy="2650.1" r="3.9" fill="#6e421d" opacity="0.041"/><circle cx="421.8" cy="1665.5" r="1.6" fill="#6e421d" opacity="0.038"/><circle cx="859.5" cy="2804.8" r="3.7" fill="#6e421d" opacity="0.032"/><circle cx="1381.7" cy="527.1" r="1.9" fill="#6e421d" opacity="0.051"/><circle cx="2221" cy="2227.5" r="3.7" fill="#6e421d" opacity="0.062"/><circle cx="211.1" cy="923.4" r="3.7" fill="#6e421d" opacity="0.066"/><circle cx="362.1" cy="457.6" r="3.9" fill="#6e421d" opacity="0.076"/><circle cx="1614.5" cy="452.9" r="3.4" fill="#6e421d" opacity="0.064"/><circle cx="1011.8" cy="1059.4" r="3.5" fill="#6e421d" opacity="0.080"/><circle cx="1178.2" cy="2553.3" r="1.8" fill="#6e421d" opacity="0.041"/><circle cx="292.1" cy="599.7" r="3.6" fill="#6e421d" opacity="0.051"/><circle cx="2235.3" cy="1943.1" r="2.8" fill="#6e421d" opacity="0.036"/><circle cx="1744.3" cy="137.2" r="3.7" fill="#6e421d" opacity="0.072"/><circle cx="1113.5" cy="1146.5" r="2.9" fill="#6e421d" opacity="0.031"/><circle cx="1460.3" cy="893" r="4.3" fill="#6e421d" opacity="0.054"/><circle cx="2106.6" cy="2848.9" r="3.7" fill="#6e421d" opacity="0.068"/><circle cx="230.5" cy="1142.2" r="4" fill="#6e421d" opacity="0.049"/><circle cx="2333.5" cy="2640.3" r="2.1" fill="#6e421d" opacity="0.067"/><circle cx="1956.2" cy="1673.8" r="3.2" fill="#6e421d" opacity="0.068"/><circle cx="1349.2" cy="513.5" r="1.9" fill="#6e421d" opacity="0.044"/><circle cx="1693.2" cy="2544.7" r="3.6" fill="#6e421d" opacity="0.073"/><clipPath id="a35-gz"><rect x="150" y="150" width="2100" height="2700"/></clipPath><g clip-path="url(#a35-gz)"><circle cx="1316.4" cy="795.7" r="312.1" fill="#b3502f"/><path d="M150,2050 C 700,1912.4 1100,2187.6 1600,1967.4 S 2200,2105 2250,2030 L2250,2850 L150,2850 Z" fill="#6e421d" opacity="0.35"/><path d="M150,2270 C 700,2173.4 1100,2366.6 1600,2212 S 2200,2308.6 2250,2250 L2250,2850 L150,2850 Z" fill="#cdb488" opacity="0.9"/><path d="M150,2520 C 700,2386.3 1100,2653.7 1600,2439.8 S 2200,2573.5 2250,2500 L2250,2850 L150,2850 Z" fill="#6e421d" opacity="1"/><polygon points="692.8,1425.2 220,2130 791.5,2130" fill="#6e421d"/><polygon points="692.8,1425.2 791.5,2130 1165.5,2130" fill="#6e421d" opacity="0.6"/><polygon points="1145.8,1558.9 727.5,2130 1241.5,2130" fill="#6e421d"/><polygon points="1145.8,1558.9 1241.5,2130 1564.2,2130" fill="#6e421d" opacity="0.6"/><polygon points="1890.2,1435.9 1600.4,2130 1932.5,2130" fill="#6e421d"/><polygon points="1890.2,1435.9 1932.5,2130 2180,2130" fill="#6e421d" opacity="0.6"/><path d="M560.8,789.1 q 26,-24 52,0 q 26,-24 52,0" fill="none" stroke="#6e421d" stroke-width="8" stroke-linecap="round"/><path d="M796.4,819.6 q 26,-24 52,0 q 26,-24 52,0" fill="none" stroke="#6e421d" stroke-width="8" stroke-linecap="round"/></g><polyline points="240,2800 300,2740 360,2800 420,2740 480,2800 540,2740 600,2800 660,2740 720,2800 780,2740 840,2800 900,2740 960,2800 1020,2740 1080,2800 1140,2740 1200,2800 1260,2740 1320,2800 1380,2740 1440,2800 1500,2740 1560,2800 1620,2740 1680,2800 1740,2740 1800,2800 1860,2740 1920,2800 1980,2740 2040,2800 2100,2740 2160,2800 " fill="none" stroke="#6e421d" stroke-width="10.8" stroke-linejoin="miter"/><rect x="100" y="100" width="2200" height="2800" fill="none" stroke="#6e421d" stroke-width="9"/><rect x="142" y="142" width="2116" height="2716" fill="none" stroke="#6e421d" stroke-width="3" opacity="0.65"/></svg></svg>