<svg xmlns="http://www.w3.org/2000/svg" width="2400" height="1800" viewBox="0 0 2400 1800"><rect width="2400" height="1800" fill="#dfe4dc"/><rect y="1400" width="2400" height="400" fill="#c2a67e"/><line x1="60" y1="1400" x2="10" y2="1800" stroke="#00000015" stroke-width="5"/><line x1="260" y1="1400" x2="210" y2="1800" stroke="#00000015" stroke-width="5"/><line x1="460" y1="1400" x2="410" y2="1800" stroke="#00000015" stroke-width="5"/><line x1="660" y1="1400" x2="610" y2="1800" stroke="#00000015" stroke-width="5"/><line x1="860" y1="1400" x2="810" y2="1800" stroke="#00000015" stroke-width="5"/><line x1="1060" y1="1400" x2="1010" y2="1800" stroke="#00000015" stroke-width="5"/><line x1="1260" y1="1400" x2="1210" y2="1800" stroke="#00000015" stroke-width="5"/><line x1="1460" y1="1400" x2="1410" y2="1800" stroke="#00000015" stroke-width="5"/><line x1="1660" y1="1400" x2="1610" y2="1800" stroke="#00000015" stroke-width="5"/><line x1="1860" y1="1400" x2="1810" y2="1800" stroke="#00000015" stroke-width="5"/><line x1="2060" y1="1400" x2="2010" y2="1800" stroke="#00000015" stroke-width="5"/><line x1="2260" y1="1400" x2="2210" y2="1800" stroke="#00000015" stroke-width="5"/><rect x="180" y="260" width="900" height="620" fill="#8a6a48"/><rect x="215" y="295" width="830" height="550" fill="#41524a"/><line x1="280" y1="420" x2="760" y2="420" stroke="#ffffff66" stroke-width="9" stroke-linecap="round"/><line x1="280" y1="520" x2="620" y2="520" stroke="#ffffff44" stroke-width="9" stroke-linecap="round"/><circle cx="880" cy="560" r="90" fill="none" stroke="#ffffff55" stroke-width="8"/><rect x="215" y="845" width="830" height="22" fill="#6f5436"/><rect x="330" y="1240" width="640" height="60" rx="10" fill="#9c7449"/><rect x="370" y="1300" width="60" height="240" fill="#8a6540"/><rect x="870" y="1300" width="60" height="240" fill="#8a6540"/><rect x="430" y="1160" width="150" height="80" rx="8" fill="#a65e33"/><rect x="450" y="1120" width="150" height="40" rx="8" fill="#bcae97"/><circle cx="800" cy="1130" r="86" fill="#7fa3b8"/><path d="M760,1060 Q820,1100 780,1190 M740,1090 Q800,1120 850,1100" stroke="#5d8069" stroke-width="16" fill="none" stroke-linecap="round"/><circle cx="800" cy="1130" r="86" fill="none" stroke="#6b5233" stroke-width="7"/><line x1="800" y1="1216" x2="800" y2="1250" stroke="#6b5233" stroke-width="10"/><rect x="750" y="1244" width="100" height="14" rx="7" fill="#6b5233"/><rect x="1980" y="700" width="300" height="800" fill="#9c7449"/><rect x="2000" y="930" width="260" height="16" fill="#7c5a37"/><rect x="2020" y="790" width="36" height="140" fill="#b3502f"/><rect x="2066" y="802" width="36" height="128" fill="#39685c"/><rect x="2112" y="790" width="36" height="140" fill="#c9a227"/><rect x="2158" y="802" width="36" height="128" fill="#2c4661"/><rect x="2204" y="790" width="36" height="140" fill="#8a4423"/><rect x="2000" y="1180" width="260" height="16" fill="#7c5a37"/><rect x="2020" y="1040" width="36" height="140" fill="#39685c"/><rect x="2066" y="1052" width="36" height="128" fill="#c9a227"/><rect x="2112" y="1040" width="36" height="140" fill="#2c4661"/><rect x="2158" y="1052" width="36" height="128" fill="#8a4423"/><rect x="2204" y="1040" width="36" height="140" fill="#b3502f"/><rect x="2000" y="1430" width="260" height="16" fill="#7c5a37"/><rect x="2020" y="1290" width="36" height="140" fill="#c9a227"/><rect x="2066" y="1302" width="36" height="128" fill="#2c4661"/><rect x="2112" y="1290" width="36" height="140" fill="#8a4423"/><rect x="2158" y="1302" width="36" height="128" fill="#b3502f"/><rect x="2204" y="1290" width="36" height="140" fill="#39685c"/><defs><filter id="a85c-sh" x="-30%" y="-30%" width="160%" height="160%"><feGaussianBlur stdDeviation="16"/></filter></defs><rect x="1340.5" y="298.5" width="517" height="635" fill="#000" opacity="0.28" filter="url(#a85c-sh)"/><rect x="1326.5" y="276.5" width="517" height="635" fill="#3d342a"/><rect x="1341.8" y="291.8" width="486.4" height="604.5" fill="none" stroke="#00000055" stroke-width="3"/><rect x="1350" y="300" width="470" height="588" fill="#f6f2ea"/><svg x="1385.3" y="335.3" width="399.5" height="517.5" viewBox="0 0 2400 3000" preserveAspectRatio="xMidYMid slice"><filter id="a85-warp" x="-4%" y="-4%" width="108%" height="108%"><feTurbulence type="fractalNoise" baseFrequency="0.0105" numOctaves="2" seed="3107" result="w"/><feDisplacementMap in="SourceGraphic" in2="w" scale="12" xChannelSelector="R" yChannelSelector="G"/></filter><filter id="a85-grain" x="0%" y="0%" width="100%" height="100%"><feTurbulence type="fractalNoise" baseFrequency="0.6" numOctaves="2" seed="3114"/><feColorMatrix type="matrix" values="0.33 0.33 0.33 0 0.62  0.33 0.33 0.33 0 0.62  0.33 0.33 0.33 0 0.62  0 0 0 0 1"/></filter><filter id="a85-mottle" x="0%" y="0%" width="100%" height="100%"><feTurbulence type="fractalNoise" baseFrequency="0.0045" numOctaves="3" seed="3120"/><feColorMatrix type="matrix" values="0.2 0.2 0.2 0 0.78  0.2 0.2 0.2 0 0.78  0.2 0.2 0.2 0 0.78  0 0 0 0 1"/></filter><filter id="a85-fade" x="0%" y="0%" width="100%" height="100%"><feTurbulence type="fractalNoise" baseFrequency="0.006" numOctaves="2" seed="3136"/><feColorMatrix type="matrix" values="0.3 0.3 0.3 0 -0.08  0.3 0.3 0.3 0 -0.08  0.3 0.3 0.3 0 -0.1  0 0 0 0 1"/></filter><filter id="a85-blur9"><feGaussianBlur stdDeviation="9"/></filter><radialGradient id="a85-vig" cx="50%" cy="44%" r="78%"><stop offset="52%" stop-color="#241a10" stop-opacity="0"/><stop offset="100%" stop-color="#241a10" stop-opacity="0.17"/></radialGradient><radialGradient id="a85-warm" cx="57%" cy="30%" r="85%"><stop offset="0%" stop-color="#e8c890" stop-opacity="0.14"/><stop offset="70%" stop-color="#e8c890" stop-opacity="0"/></radialGradient><rect width="2400" height="3000" fill="#e0d6c5"/><rect width="2400" height="3000" fill="url(#a85-warm)"/><rect y="59.1" width="2400" height="279.6" fill="#8a6a40" opacity="0.023" transform="rotate(-1.5 1200 59.1)"/><rect y="727.9" width="2400" height="285.7" fill="#ffffff" opacity="0.030" transform="rotate(-1.2 1200 727.9)"/><rect y="1300.4" width="2400" height="384.1" fill="#8a6a40" opacity="0.030" transform="rotate(-0.9 1200 1300.4)"/><rect y="1890.5" width="2400" height="239.5" fill="#ffffff" opacity="0.045" transform="rotate(-1.4 1200 1890.5)"/><rect y="1844" width="2400" height="275.1" fill="#8a6a40" opacity="0.030" transform="rotate(-0.4 1200 1844)"/><rect y="338.1" width="2400" height="295.2" fill="#ffffff" opacity="0.038" transform="rotate(1.4 1200 338.1)"/><rect y="2817.4" width="2400" height="144.1" fill="#8a6a40" opacity="0.028" transform="rotate(-1.4 1200 2817.4)"/><g filter="url(#a85-warp)"><polyline points="312.4,398.2 349.6,316.1 386.8,398.2" fill="none" stroke="#4a4034" stroke-width="13.5"/><polyline points="418.7,398.2 455.9,316.1 493.1,398.2" fill="none" stroke="#4a4034" stroke-width="13.5"/><polyline points="525,398.2 562.2,316.1 599.4,398.2" fill="none" stroke="#4a4034" stroke-width="13.5"/><polyline points="631.3,398.2 668.5,316.1 705.7,398.2" fill="none" stroke="#4a4034" stroke-width="13.5"/><polyline points="737.6,398.2 774.8,316.1 812,398.2" fill="none" stroke="#4a4034" stroke-width="13.5"/><polyline points="843.9,398.2 881.1,316.1 918.3,398.2" fill="none" stroke="#4a4034" stroke-width="13.5"/><polyline points="950.2,398.2 987.4,316.1 1024.6,398.2" fill="none" stroke="#4a4034" stroke-width="13.5"/><polyline points="1056.5,398.2 1093.7,316.1 1130.9,398.2" fill="none" stroke="#4a4034" stroke-width="13.5"/><polyline points="1162.8,398.2 1200,316.1 1237.2,398.2" fill="none" stroke="#4a4034" stroke-width="13.5"/><polyline points="1269.1,398.2 1306.3,316.1 1343.5,398.2" fill="none" stroke="#4a4034" stroke-width="13.5"/><polyline points="1375.4,398.2 1412.6,316.1 1449.8,398.2" fill="none" stroke="#4a4034" stroke-width="13.5"/><polyline points="1481.7,398.2 1518.9,316.1 1556.1,398.2" fill="none" stroke="#4a4034" stroke-width="13.5"/><polyline points="1588,398.2 1625.2,316.1 1662.4,398.2" fill="none" stroke="#4a4034" stroke-width="13.5"/><polyline points="1694.3,398.2 1731.5,316.1 1768.7,398.2" fill="none" stroke="#4a4034" stroke-width="13.5"/><polyline points="1800.6,398.2 1837.8,316.1 1875,398.2" fill="none" stroke="#4a4034" stroke-width="13.5"/><polyline points="1906.9,398.2 1944.1,316.1 1981.3,398.2" fill="none" stroke="#4a4034" stroke-width="13.5"/><polyline points="2013.2,398.2 2050.4,316.1 2087.6,398.2" fill="none" stroke="#4a4034" stroke-width="13.5"/><line x1="250" y1="439.8" x2="2150" y2="439.8" stroke="#4a4034" stroke-width="6"/><rect x="250" y="439.8" width="1900" height="385.7" fill="#4a4034"/><line x1="280" y1="755.7" x2="2120" y2="755.7" stroke="#e0d6c5" stroke-width="14.4"/><line x1="552.6" y1="743.8" x2="448.1" y2="675.9" stroke="#e0d6c5" stroke-width="24" stroke-linecap="round"/><line x1="552.6" y1="743.8" x2="459.6" y2="624.7" stroke="#e0d6c5" stroke-width="24" stroke-linecap="round"/><line x1="552.6" y1="743.8" x2="494.9" y2="576" stroke="#e0d6c5" stroke-width="24" stroke-linecap="round"/><line x1="552.6" y1="743.8" x2="552.6" y2="540" stroke="#e0d6c5" stroke-width="24" stroke-linecap="round"/><line x1="552.6" y1="743.8" x2="610.4" y2="576" stroke="#e0d6c5" stroke-width="24" stroke-linecap="round"/><line x1="552.6" y1="743.8" x2="645.6" y2="624.7" stroke="#e0d6c5" stroke-width="24" stroke-linecap="round"/><line x1="552.6" y1="743.8" x2="657.2" y2="675.9" stroke="#e0d6c5" stroke-width="24" stroke-linecap="round"/><line x1="876.3" y1="743.8" x2="771.8" y2="675.9" stroke="#e0d6c5" stroke-width="24" stroke-linecap="round"/><line x1="876.3" y1="743.8" x2="783.3" y2="624.7" stroke="#e0d6c5" stroke-width="24" stroke-linecap="round"/><line x1="876.3" y1="743.8" x2="818.6" y2="576" stroke="#e0d6c5" stroke-width="24" stroke-linecap="round"/><line x1="876.3" y1="743.8" x2="876.3" y2="540" stroke="#e0d6c5" stroke-width="24" stroke-linecap="round"/><line x1="876.3" y1="743.8" x2="934.1" y2="576" stroke="#e0d6c5" stroke-width="24" stroke-linecap="round"/><line x1="876.3" y1="743.8" x2="969.3" y2="624.7" stroke="#e0d6c5" stroke-width="24" stroke-linecap="round"/><line x1="876.3" y1="743.8" x2="980.9" y2="675.9" stroke="#e0d6c5" stroke-width="24" stroke-linecap="round"/><line x1="1200" y1="743.8" x2="1095.4" y2="675.9" stroke="#e0d6c5" stroke-width="24" stroke-linecap="round"/><line x1="1200" y1="743.8" x2="1107" y2="624.7" stroke="#e0d6c5" stroke-width="24" stroke-linecap="round"/><line x1="1200" y1="743.8" x2="1142.2" y2="576" stroke="#e0d6c5" stroke-width="24" stroke-linecap="round"/><line x1="1200" y1="743.8" x2="1200" y2="540" stroke="#e0d6c5" stroke-width="24" stroke-linecap="round"/><line x1="1200" y1="743.8" x2="1257.8" y2="576" stroke="#e0d6c5" stroke-width="24" stroke-linecap="round"/><line x1="1200" y1="743.8" x2="1293" y2="624.7" stroke="#e0d6c5" stroke-width="24" stroke-linecap="round"/><line x1="1200" y1="743.8" x2="1304.6" y2="675.9" stroke="#e0d6c5" stroke-width="24" stroke-linecap="round"/><line x1="1523.7" y1="743.8" x2="1419.1" y2="675.9" stroke="#e0d6c5" stroke-width="24" stroke-linecap="round"/><line x1="1523.7" y1="743.8" x2="1430.7" y2="624.7" stroke="#e0d6c5" stroke-width="24" stroke-linecap="round"/><line x1="1523.7" y1="743.8" x2="1465.9" y2="576" stroke="#e0d6c5" stroke-width="24" stroke-linecap="round"/><line x1="1523.7" y1="743.8" x2="1523.7" y2="540" stroke="#e0d6c5" stroke-width="24" stroke-linecap="round"/><line x1="1523.7" y1="743.8" x2="1581.4" y2="576" stroke="#e0d6c5" stroke-width="24" stroke-linecap="round"/><line x1="1523.7" y1="743.8" x2="1616.7" y2="624.7" stroke="#e0d6c5" stroke-width="24" stroke-linecap="round"/><line x1="1523.7" y1="743.8" x2="1628.2" y2="675.9" stroke="#e0d6c5" stroke-width="24" stroke-linecap="round"/><line x1="1847.4" y1="743.8" x2="1742.8" y2="675.9" stroke="#e0d6c5" stroke-width="24" stroke-linecap="round"/><line x1="1847.4" y1="743.8" x2="1754.4" y2="624.7" stroke="#e0d6c5" stroke-width="24" stroke-linecap="round"/><line x1="1847.4" y1="743.8" x2="1789.6" y2="576" stroke="#e0d6c5" stroke-width="24" stroke-linecap="round"/><line x1="1847.4" y1="743.8" x2="1847.4" y2="540" stroke="#e0d6c5" stroke-width="24" stroke-linecap="round"/><line x1="1847.4" y1="743.8" x2="1905.1" y2="576" stroke="#e0d6c5" stroke-width="24" stroke-linecap="round"/><line x1="1847.4" y1="743.8" x2="1940.4" y2="624.7" stroke="#e0d6c5" stroke-width="24" stroke-linecap="round"/><line x1="1847.4" y1="743.8" x2="1951.9" y2="675.9" stroke="#e0d6c5" stroke-width="24" stroke-linecap="round"/><line x1="250" y1="825.5" x2="2150" y2="825.5" stroke="#4a4034" stroke-width="6"/><line x1="280" y1="1140" x2="2120" y2="1140" stroke="#4a4034" stroke-width="19.6"/><polyline points="464.4,1022.3 463,1024 462.2,1026.3 462.2,1029 463.1,1031.9 465,1034.7 467.9,1037.1 471.7,1038.7 476.1,1039.2 480.9,1038.5 485.6,1036.4 489.9,1032.9 493.4,1028.2 495.7,1022.3 496.5,1015.7 495.6,1008.7 492.8,1001.9 488.1,995.7 481.8,990.5 474,987 465.2,985.4 455.9,986.1 446.8,989.1 438.3,994.5 431.1,1002.1 425.9,1011.5 422.9,1022.3 422.8,1033.9 425.5,1045.5 431.1,1056.5 439.5,1066.1 450.3,1073.5 462.9,1078.2 476.7,1079.8 490.8,1078 504.4,1072.6 516.6,1063.9 526.6,1052.2 533.7,1038.1 537.2,1022.3 536.8,1005.8 532.3,989.5 523.8,974.4 511.7,961.5 496.5,951.8 479,945.8 460.2,944.2 441.2,947.3 423.2,955 407.2,967 394.4,982.8 385.6,1001.6 381.5,1022.3" fill="none" stroke="#4a4034" stroke-width="22.1" stroke-linecap="round" stroke-linejoin="round"/><polyline points="709.5,1022.3 708.1,1024 707.3,1026.3 707.2,1029 708.1,1031.9 710.1,1034.7 713,1037.1 716.8,1038.7 721.2,1039.2 725.9,1038.5 730.7,1036.4 735,1032.9 738.5,1028.2 740.8,1022.3 741.6,1015.7 740.6,1008.7 737.8,1001.9 733.2,995.7 726.8,990.5 719.1,987 710.3,985.4 701,986.1 691.8,989.1 683.4,994.5 676.2,1002.1 670.9,1011.5 668,1022.3 667.8,1033.9 670.5,1045.5 676.2,1056.5 684.6,1066.1 695.4,1073.5 708,1078.2 721.8,1079.8 735.9,1078 749.5,1072.6 761.7,1063.9 771.7,1052.2 778.8,1038.1 782.3,1022.3 781.8,1005.8 777.4,989.5 768.9,974.4 756.7,961.5 741.5,951.8 724.1,945.8 705.3,944.2 686.3,947.3 668.3,955 652.3,967 639.5,982.8 630.7,1001.6 626.5,1022.3" fill="none" stroke="#4a4034" stroke-width="22.1" stroke-linecap="round" stroke-linejoin="round"/><polyline points="954.5,1022.3 953.1,1024 952.3,1026.3 952.3,1029 953.2,1031.9 955.1,1034.7 958,1037.1 961.8,1038.7 966.2,1039.2 971,1038.5 975.7,1036.4 980.1,1032.9 983.6,1028.2 985.9,1022.3 986.7,1015.7 985.7,1008.7 982.9,1001.9 978.2,995.7 971.9,990.5 964.1,987 955.4,985.4 946.1,986.1 936.9,989.1 928.4,994.5 921.3,1002.1 916,1011.5 913.1,1022.3 912.9,1033.9 915.6,1045.5 921.3,1056.5 929.6,1066.1 940.4,1073.5 953,1078.2 966.8,1079.8 980.9,1078 994.6,1072.6 1006.8,1063.9 1016.8,1052.2 1023.8,1038.1 1027.3,1022.3 1026.9,1005.8 1022.4,989.5 1013.9,974.4 1001.8,961.5 986.6,951.8 969.1,945.8 950.4,944.2 931.4,947.3 913.3,955 897.4,967 884.5,982.8 875.7,1001.6 871.6,1022.3" fill="none" stroke="#4a4034" stroke-width="22.1" stroke-linecap="round" stroke-linejoin="round"/><polyline points="1199.6,1022.3 1198.2,1024 1197.4,1026.3 1197.4,1029 1198.3,1031.9 1200.2,1034.7 1203.1,1037.1 1206.9,1038.7 1211.3,1039.2 1216.1,1038.5 1220.8,1036.4 1225.1,1032.9 1228.6,1028.2 1230.9,1022.3 1231.7,1015.7 1230.8,1008.7 1228,1001.9 1223.3,995.7 1217,990.5 1209.2,987 1200.4,985.4 1191.1,986.1 1182,989.1 1173.5,994.5 1166.3,1002.1 1161,1011.5 1158.1,1022.3 1158,1033.9 1160.7,1045.5 1166.3,1056.5 1174.7,1066.1 1185.5,1073.5 1198.1,1078.2 1211.9,1079.8 1226,1078 1239.6,1072.6 1251.8,1063.9 1261.8,1052.2 1268.9,1038.1 1272.4,1022.3 1272,1005.8 1267.5,989.5 1259,974.4 1246.9,961.5 1231.7,951.8 1214.2,945.8 1195.4,944.2 1176.4,947.3 1158.4,955 1142.4,967 1129.6,982.8 1120.8,1001.6 1116.7,1022.3" fill="none" stroke="#4a4034" stroke-width="22.1" stroke-linecap="round" stroke-linejoin="round"/><polyline points="1444.7,1022.3 1443.3,1024 1442.5,1026.3 1442.4,1029 1443.3,1031.9 1445.3,1034.7 1448.2,1037.1 1452,1038.7 1456.4,1039.2 1461.1,1038.5 1465.9,1036.4 1470.2,1032.9 1473.7,1028.2 1476,1022.3 1476.8,1015.7 1475.8,1008.7 1473,1001.9 1468.4,995.7 1462,990.5 1454.3,987 1445.5,985.4 1436.2,986.1 1427,989.1 1418.5,994.5 1411.4,1002.1 1406.1,1011.5 1403.2,1022.3 1403,1033.9 1405.7,1045.5 1411.4,1056.5 1419.8,1066.1 1430.6,1073.5 1443.2,1078.2 1456.9,1079.8 1471.1,1078 1484.7,1072.6 1496.9,1063.9 1506.9,1052.2 1513.9,1038.1 1517.5,1022.3 1517,1005.8 1512.6,989.5 1504.1,974.4 1491.9,961.5 1476.7,951.8 1459.3,945.8 1440.5,944.2 1421.5,947.3 1403.5,955 1387.5,967 1374.7,982.8 1365.9,1001.6 1361.7,1022.3" fill="none" stroke="#4a4034" stroke-width="22.1" stroke-linecap="round" stroke-linejoin="round"/><polyline points="1689.7,1022.3 1688.3,1024 1687.5,1026.3 1687.5,1029 1688.4,1031.9 1690.3,1034.7 1693.2,1037.1 1697,1038.7 1701.4,1039.2 1706.2,1038.5 1710.9,1036.4 1715.3,1032.9 1718.8,1028.2 1721.1,1022.3 1721.9,1015.7 1720.9,1008.7 1718.1,1001.9 1713.4,995.7 1707.1,990.5 1699.3,987 1690.6,985.4 1681.3,986.1 1672.1,989.1 1663.6,994.5 1656.5,1002.1 1651.2,1011.5 1648.3,1022.3 1648.1,1033.9 1650.8,1045.5 1656.5,1056.5 1664.8,1066.1 1675.6,1073.5 1688.2,1078.2 1702,1079.8 1716.1,1078 1729.7,1072.6 1742,1063.9 1752,1052.2 1759,1038.1 1762.5,1022.3 1762.1,1005.8 1757.6,989.5 1749.1,974.4 1737,961.5 1721.8,951.8 1704.3,945.8 1685.6,944.2 1666.6,947.3 1648.5,955 1632.6,967 1619.7,982.8 1610.9,1001.6 1606.8,1022.3" fill="none" stroke="#4a4034" stroke-width="22.1" stroke-linecap="round" stroke-linejoin="round"/><polyline points="1934.8,1022.3 1933.4,1024 1932.6,1026.3 1932.6,1029 1933.5,1031.9 1935.4,1034.7 1938.3,1037.1 1942.1,1038.7 1946.5,1039.2 1951.3,1038.5 1956,1036.4 1960.3,1032.9 1963.8,1028.2 1966.1,1022.3 1966.9,1015.7 1966,1008.7 1963.2,1001.9 1958.5,995.7 1952.2,990.5 1944.4,987 1935.6,985.4 1926.3,986.1 1917.2,989.1 1908.7,994.5 1901.5,1002.1 1896.2,1011.5 1893.3,1022.3 1893.2,1033.9 1895.9,1045.5 1901.5,1056.5 1909.9,1066.1 1920.7,1073.5 1933.3,1078.2 1947.1,1079.8 1961.2,1078 1974.8,1072.6 1987,1063.9 1997,1052.2 2004.1,1038.1 2007.6,1022.3 2007.2,1005.8 2002.7,989.5 1994.2,974.4 1982.1,961.5 1966.9,951.8 1949.4,945.8 1930.6,944.2 1911.6,947.3 1893.6,955 1877.6,967 1864.8,982.8 1856,1001.6 1851.9,1022.3" fill="none" stroke="#4a4034" stroke-width="22.1" stroke-linecap="round" stroke-linejoin="round"/><line x1="250" y1="1209.4" x2="2150" y2="1209.4" stroke="#4a4034" stroke-width="6"/><circle cx="430.7" cy="1396.3" r="57.2" fill="#a65e33"/><circle cx="650.5" cy="1396.3" r="57.2" fill="#a65e33"/><circle cx="870.3" cy="1396.3" r="57.2" fill="#a65e33"/><circle cx="1090.1" cy="1396.3" r="57.2" fill="#a65e33"/><circle cx="1309.9" cy="1396.3" r="57.2" fill="#a65e33"/><circle cx="1529.7" cy="1396.3" r="57.2" fill="#a65e33"/><circle cx="1749.5" cy="1396.3" r="57.2" fill="#a65e33"/><circle cx="1969.3" cy="1396.3" r="57.2" fill="#a65e33"/><line x1="250" y1="1583.2" x2="2150" y2="1583.2" stroke="#4a4034" stroke-width="6"/><rect x="250" y="1583.2" width="1900" height="313.1" fill="#4a4034"/><path d="M0 0 Q 34.1 -53 0 -139.4 Q -34.1 -53 0 0 Z" fill="#e0d6c5" opacity="1" transform="translate(433.3 1844.9) rotate(-58)"/><path d="M0 0 Q 34.1 -59.3 0 -156.1 Q -34.1 -59.3 0 0 Z" fill="#e0d6c5" opacity="1" transform="translate(433.3 1844.9) rotate(-38.7)"/><path d="M0 0 Q 34.1 -65.6 0 -172.7 Q -34.1 -65.6 0 0 Z" fill="#e0d6c5" opacity="1" transform="translate(433.3 1844.9) rotate(-19.3)"/><path d="M0 0 Q 34.1 -72 0 -189.3 Q -34.1 -72 0 0 Z" fill="#e0d6c5" opacity="1" transform="translate(433.3 1844.9) rotate(0)"/><path d="M0 0 Q 34.1 -65.6 0 -172.7 Q -34.1 -65.6 0 0 Z" fill="#e0d6c5" opacity="1" transform="translate(433.3 1844.9) rotate(19.3)"/><path d="M0 0 Q 34.1 -59.3 0 -156.1 Q -34.1 -59.3 0 0 Z" fill="#e0d6c5" opacity="1" transform="translate(433.3 1844.9) rotate(38.7)"/><path d="M0 0 Q 34.1 -53 0 -139.4 Q -34.1 -53 0 0 Z" fill="#e0d6c5" opacity="1" transform="translate(433.3 1844.9) rotate(58)"/><path d="M376.5,1844.9 Q433.3,1909.3 490.1,1844.9 Z" fill="#e0d6c5"/><path d="M0 0 Q 34.1 -53 0 -139.4 Q -34.1 -53 0 0 Z" fill="#e0d6c5" opacity="1" transform="translate(740 1844.9) rotate(-58)"/><path d="M0 0 Q 34.1 -62.5 0 -164.4 Q -34.1 -62.5 0 0 Z" fill="#e0d6c5" opacity="1" transform="translate(740 1844.9) rotate(-29)"/><path d="M0 0 Q 34.1 -72 0 -189.3 Q -34.1 -72 0 0 Z" fill="#e0d6c5" opacity="1" transform="translate(740 1844.9) rotate(0)"/><path d="M0 0 Q 34.1 -62.5 0 -164.4 Q -34.1 -62.5 0 0 Z" fill="#e0d6c5" opacity="1" transform="translate(740 1844.9) rotate(29)"/><path d="M0 0 Q 34.1 -53 0 -139.4 Q -34.1 -53 0 0 Z" fill="#e0d6c5" opacity="1" transform="translate(740 1844.9) rotate(58)"/><path d="M683.2,1844.9 Q740,1909.3 796.8,1844.9 Z" fill="#e0d6c5"/><path d="M0 0 Q 34.1 -53 0 -139.4 Q -34.1 -53 0 0 Z" fill="#e0d6c5" opacity="1" transform="translate(1046.7 1844.9) rotate(-58)"/><path d="M0 0 Q 34.1 -59.3 0 -156.1 Q -34.1 -59.3 0 0 Z" fill="#e0d6c5" opacity="1" transform="translate(1046.7 1844.9) rotate(-38.7)"/><path d="M0 0 Q 34.1 -65.6 0 -172.7 Q -34.1 -65.6 0 0 Z" fill="#e0d6c5" opacity="1" transform="translate(1046.7 1844.9) rotate(-19.3)"/><path d="M0 0 Q 34.1 -72 0 -189.3 Q -34.1 -72 0 0 Z" fill="#e0d6c5" opacity="1" transform="translate(1046.7 1844.9) rotate(0)"/><path d="M0 0 Q 34.1 -65.6 0 -172.7 Q -34.1 -65.6 0 0 Z" fill="#e0d6c5" opacity="1" transform="translate(1046.7 1844.9) rotate(19.3)"/><path d="M0 0 Q 34.1 -59.3 0 -156.1 Q -34.1 -59.3 0 0 Z" fill="#e0d6c5" opacity="1" transform="translate(1046.7 1844.9) rotate(38.7)"/><path d="M0 0 Q 34.1 -53 0 -139.4 Q -34.1 -53 0 0 Z" fill="#e0d6c5" opacity="1" transform="translate(1046.7 1844.9) rotate(58)"/><path d="M989.9,1844.9 Q1046.7,1909.3 1103.5,1844.9 Z" fill="#e0d6c5"/><path d="M0 0 Q 34.1 -53 0 -139.4 Q -34.1 -53 0 0 Z" fill="#e0d6c5" opacity="1" transform="translate(1353.3 1844.9) rotate(-58)"/><path d="M0 0 Q 34.1 -62.5 0 -164.4 Q -34.1 -62.5 0 0 Z" fill="#e0d6c5" opacity="1" transform="translate(1353.3 1844.9) rotate(-29)"/><path d="M0 0 Q 34.1 -72 0 -189.3 Q -34.1 -72 0 0 Z" fill="#e0d6c5" opacity="1" transform="translate(1353.3 1844.9) rotate(0)"/><path d="M0 0 Q 34.1 -62.5 0 -164.4 Q -34.1 -62.5 0 0 Z" fill="#e0d6c5" opacity="1" transform="translate(1353.3 1844.9) rotate(29)"/><path d="M0 0 Q 34.1 -53 0 -139.4 Q -34.1 -53 0 0 Z" fill="#e0d6c5" opacity="1" transform="translate(1353.3 1844.9) rotate(58)"/><path d="M1296.5,1844.9 Q1353.3,1909.3 1410.1,1844.9 Z" fill="#e0d6c5"/><path d="M0 0 Q 34.1 -53 0 -139.4 Q -34.1 -53 0 0 Z" fill="#e0d6c5" opacity="1" transform="translate(1660 1844.9) rotate(-58)"/><path d="M0 0 Q 34.1 -60.6 0 -159.4 Q -34.1 -60.6 0 0 Z" fill="#e0d6c5" opacity="1" transform="translate(1660 1844.9) rotate(-34.8)"/><path d="M0 0 Q 34.1 -68.2 0 -179.4 Q -34.1 -68.2 0 0 Z" fill="#e0d6c5" opacity="1" transform="translate(1660 1844.9) rotate(-11.6)"/><path d="M0 0 Q 34.1 -68.2 0 -179.4 Q -34.1 -68.2 0 0 Z" fill="#e0d6c5" opacity="1" transform="translate(1660 1844.9) rotate(11.6)"/><path d="M0 0 Q 34.1 -60.6 0 -159.4 Q -34.1 -60.6 0 0 Z" fill="#e0d6c5" opacity="1" transform="translate(1660 1844.9) rotate(34.8)"/><path d="M0 0 Q 34.1 -53 0 -139.4 Q -34.1 -53 0 0 Z" fill="#e0d6c5" opacity="1" transform="translate(1660 1844.9) rotate(58)"/><path d="M1603.2,1844.9 Q1660,1909.3 1716.8,1844.9 Z" fill="#e0d6c5"/><path d="M0 0 Q 34.1 -53 0 -139.4 Q -34.1 -53 0 0 Z" fill="#e0d6c5" opacity="1" transform="translate(1966.7 1844.9) rotate(-58)"/><path d="M0 0 Q 34.1 -60.6 0 -159.4 Q -34.1 -60.6 0 0 Z" fill="#e0d6c5" opacity="1" transform="translate(1966.7 1844.9) rotate(-34.8)"/><path d="M0 0 Q 34.1 -68.2 0 -179.4 Q -34.1 -68.2 0 0 Z" fill="#e0d6c5" opacity="1" transform="translate(1966.7 1844.9) rotate(-11.6)"/><path d="M0 0 Q 34.1 -68.2 0 -179.4 Q -34.1 -68.2 0 0 Z" fill="#e0d6c5" opacity="1" transform="translate(1966.7 1844.9) rotate(11.6)"/><path d="M0 0 Q 34.1 -60.6 0 -159.4 Q -34.1 -60.6 0 0 Z" fill="#e0d6c5" opacity="1" transform="translate(1966.7 1844.9) rotate(34.8)"/><path d="M0 0 Q 34.1 -53 0 -139.4 Q -34.1 -53 0 0 Z" fill="#e0d6c5" opacity="1" transform="translate(1966.7 1844.9) rotate(58)"/><path d="M1909.9,1844.9 Q1966.7,1909.3 2023.5,1844.9 Z" fill="#e0d6c5"/><line x1="250" y1="1896.3" x2="2150" y2="1896.3" stroke="#4a4034" stroke-width="6"/><path d="M397.1,2169.5 L 594.3,2169.5 L 594.3,1972.3 L 439.4,1972.3 L 439.4,2094.4 L 519.2,2094.4 L 519.2,2033.4 M631.9,2169.5 L 829.1,2169.5 L 829.1,1972.3 L 674.1,1972.3 L 674.1,2094.4 L 753.9,2094.4 L 753.9,2033.4 M866.6,2169.5 L 1063.8,2169.5 L 1063.8,1972.3 L 908.9,1972.3 L 908.9,2094.4 L 988.7,2094.4 L 988.7,2033.4 M1101.4,2169.5 L 1298.6,2169.5 L 1298.6,1972.3 L 1143.7,1972.3 L 1143.7,2094.4 L 1223.5,2094.4 L 1223.5,2033.4 M1336.2,2169.5 L 1533.4,2169.5 L 1533.4,1972.3 L 1378.4,1972.3 L 1378.4,2094.4 L 1458.2,2094.4 L 1458.2,2033.4 M1570.9,2169.5 L 1768.1,2169.5 L 1768.1,1972.3 L 1613.2,1972.3 L 1613.2,2094.4 L 1693,2094.4 L 1693,2033.4 M1805.7,2169.5 L 2002.9,2169.5 L 2002.9,1972.3 L 1848,1972.3 L 1848,2094.4 L 1927.8,2094.4 L 1927.8,2033.4 " fill="none" stroke="#a65e33" stroke-width="30.5"/><line x1="250" y1="2245.6" x2="2150" y2="2245.6" stroke="#4a4034" stroke-width="6"/><polyline points="346.4,2435.3 397.5,2322.6 448.5,2435.3" fill="none" stroke="#4a4034" stroke-width="18.6"/><polyline points="492.3,2435.3 543.4,2322.6 594.5,2435.3" fill="none" stroke="#4a4034" stroke-width="18.6"/><polyline points="638.2,2435.3 689.3,2322.6 740.4,2435.3" fill="none" stroke="#4a4034" stroke-width="18.6"/><polyline points="784.1,2435.3 835.2,2322.6 886.3,2435.3" fill="none" stroke="#4a4034" stroke-width="18.6"/><polyline points="930.1,2435.3 981.1,2322.6 1032.2,2435.3" fill="none" stroke="#4a4034" stroke-width="18.6"/><polyline points="1076,2435.3 1127,2322.6 1178.1,2435.3" fill="none" stroke="#4a4034" stroke-width="18.6"/><polyline points="1221.9,2435.3 1273,2322.6 1324,2435.3" fill="none" stroke="#4a4034" stroke-width="18.6"/><polyline points="1367.8,2435.3 1418.9,2322.6 1469.9,2435.3" fill="none" stroke="#4a4034" stroke-width="18.6"/><polyline points="1513.7,2435.3 1564.8,2322.6 1615.9,2435.3" fill="none" stroke="#4a4034" stroke-width="18.6"/><polyline points="1659.6,2435.3 1710.7,2322.6 1761.8,2435.3" fill="none" stroke="#4a4034" stroke-width="18.6"/><polyline points="1805.5,2435.3 1856.6,2322.6 1907.7,2435.3" fill="none" stroke="#4a4034" stroke-width="18.6"/><polyline points="1951.5,2435.3 2002.5,2322.6 2053.6,2435.3" fill="none" stroke="#4a4034" stroke-width="18.6"/><line x1="250" y1="2492.4" x2="2150" y2="2492.4" stroke="#4a4034" stroke-width="6"/><rect x="250" y="2492.4" width="1900" height="247.6" fill="#4a4034"/><path d="M282.6,2689 L348.2,2543.4 L413.7,2689 Z M413.7,2689 L479.2,2543.4 L544.7,2689 Z M544.7,2689 L610.3,2543.4 L675.8,2689 Z M675.8,2689 L741.3,2543.4 L806.8,2689 Z M806.8,2689 L872.4,2543.4 L937.9,2689 Z M937.9,2689 L1003.4,2543.4 L1068.9,2689 Z M1068.9,2689 L1134.5,2543.4 L1200,2689 Z M1200,2689 L1265.5,2543.4 L1331.1,2689 Z M1331.1,2689 L1396.6,2543.4 L1462.1,2689 Z M1462.1,2689 L1527.6,2543.4 L1593.2,2689 Z M1593.2,2689 L1658.7,2543.4 L1724.2,2689 Z M1724.2,2689 L1789.7,2543.4 L1855.3,2689 Z M1855.3,2689 L1920.8,2543.4 L1986.3,2689 Z M1986.3,2689 L2051.8,2543.4 L2117.4,2689 Z " fill="#e0d6c5"/><line x1="250" y1="2740" x2="2150" y2="2740" stroke="#4a4034" stroke-width="6"/><line x1="250" y1="260" x2="2150" y2="260" stroke="#4a4034" stroke-width="6"/><rect x="104" y="104" width="2192" height="2792" fill="none" stroke="#4a4034" stroke-width="16" opacity="0.85"/><rect x="150" y="150" width="2100" height="2700" fill="none" stroke="#4a4034" stroke-width="4" opacity="0.55"/></g><rect width="2400" height="3000" filter="url(#a85-mottle)" style="mix-blend-mode:multiply" opacity="0.5"/><rect width="2400" height="3000" filter="url(#a85-fade)" style="mix-blend-mode:screen" opacity="0.55"/><rect width="2400" height="3000" filter="url(#a85-grain)" style="mix-blend-mode:multiply" opacity="0.32"/><ellipse cx="1315.8" cy="582.7" rx="318.3" ry="263.9" fill="#6b4a22" opacity="0.044" filter="url(#a85-blur9)"/><ellipse cx="1243.1" cy="1687.8" rx="119.8" ry="123.9" fill="#6b4a22" opacity="0.064" filter="url(#a85-blur9)"/><ellipse cx="1947.8" cy="917.7" rx="104.6" ry="110.2" fill="#6b4a22" opacity="0.064" filter="url(#a85-blur9)"/><polyline points="2092.8,560.8 2005.2,626.5 1973.7,666.3 1870.2,734.7 1722.7,747.1 1620.7,715.6 1510.5,628.4 1491,505.1 1504.1,387.2 1563.5,300.7 1648,280.8" fill="none" stroke="#2e2116" stroke-width="2.6" opacity="0.26" stroke-linejoin="round"/><polyline points="2092.8,560.8 2005.2,626.5 1973.7,666.3 1870.2,734.7 1722.7,747.1 1620.7,715.6 1510.5,628.4 1491,505.1 1504.1,387.2 1563.5,300.7 1648,280.8" fill="none" stroke="#fff8ea" stroke-width="1.8" opacity="0.14" transform="translate(2.5 2.5)" stroke-linejoin="round"/><polyline points="285.8,822.4 270.7,724.7 205.1,682.4 164.2,641.7 94.5,584.3 39.6,578.3 -26.1,546.3 -128.9,585.6 -215.2,627.2 -297.9,664.3 -411.6,750 -539.9,743.9 -614.5,690.7" fill="none" stroke="#2e2116" stroke-width="3.3" opacity="0.18" stroke-linejoin="round"/><polyline points="285.8,822.4 270.7,724.7 205.1,682.4 164.2,641.7 94.5,584.3 39.6,578.3 -26.1,546.3 -128.9,585.6 -215.2,627.2 -297.9,664.3 -411.6,750 -539.9,743.9 -614.5,690.7" fill="none" stroke="#fff8ea" stroke-width="2.3" opacity="0.13" transform="translate(2.5 2.5)" stroke-linejoin="round"/><polyline points="1161.1,2763.7 1074.5,2715.1 981,2705 897.4,2699.3 798.2,2640.8 772.7,2589.5 706.9,2488.3 655.7,2450.4" fill="none" stroke="#2e2116" stroke-width="3.4" opacity="0.29" stroke-linejoin="round"/><polyline points="1161.1,2763.7 1074.5,2715.1 981,2705 897.4,2699.3 798.2,2640.8 772.7,2589.5 706.9,2488.3 655.7,2450.4" fill="none" stroke="#fff8ea" stroke-width="2.4" opacity="0.15" transform="translate(2.5 2.5)" stroke-linejoin="round"/><polyline points="675.8,475.5 747.6,406.1 833.9,364.2 883.9,340.9 941.2,243 925.7,111.1 861.4,3.2 766.5,-55.3 660.5,-140.6" fill="none" stroke="#2e2116" stroke-width="2.8" opacity="0.27" stroke-linejoin="round"/><polyline points="675.8,475.5 747.6,406.1 833.9,364.2 883.9,340.9 941.2,243 925.7,111.1 861.4,3.2 766.5,-55.3 660.5,-140.6" fill="none" stroke="#fff8ea" stroke-width="2" opacity="0.16" transform="translate(2.5 2.5)" stroke-linejoin="round"/><polyline points="1306.1,1889.3 1369.9,1753.7 1317.4,1624.1 1257.2,1595.2 1144.4,1529.9 1108,1460.5 1057.3,1421.6 946.5,1435.4 879.4,1404.7" fill="none" stroke="#2e2116" stroke-width="2.1" opacity="0.21" stroke-linejoin="round"/><polyline points="1306.1,1889.3 1369.9,1753.7 1317.4,1624.1 1257.2,1595.2 1144.4,1529.9 1108,1460.5 1057.3,1421.6 946.5,1435.4 879.4,1404.7" fill="none" stroke="#fff8ea" stroke-width="1.4" opacity="0.16" transform="translate(2.5 2.5)" stroke-linejoin="round"/><polyline points="530.6,1687.1 634.6,1732.1 740.5,1728.8 843.6,1690.8 931.5,1640.7 1034.9,1542.8 1144.1,1517.8 1196.5,1502 1263,1491.5" fill="none" stroke="#2e2116" stroke-width="2.1" opacity="0.18" stroke-linejoin="round"/><polyline points="530.6,1687.1 634.6,1732.1 740.5,1728.8 843.6,1690.8 931.5,1640.7 1034.9,1542.8 1144.1,1517.8 1196.5,1502 1263,1491.5" fill="none" stroke="#fff8ea" stroke-width="1.5" opacity="0.16" transform="translate(2.5 2.5)" stroke-linejoin="round"/><polyline points="1033.6,2142.8 1124.9,2203 1204.9,2230.6 1275,2354.4 1308.4,2425.5 1333.6,2502 1385.9,2549.5 1483.8,2585 1603.2,2668.4 1705.8,2709 1830.4,2716.3 1943.5,2766.3 2010.1,2800.3" fill="none" stroke="#2e2116" stroke-width="4" opacity="0.24" stroke-linejoin="round"/><polyline points="1033.6,2142.8 1124.9,2203 1204.9,2230.6 1275,2354.4 1308.4,2425.5 1333.6,2502 1385.9,2549.5 1483.8,2585 1603.2,2668.4 1705.8,2709 1830.4,2716.3 1943.5,2766.3 2010.1,2800.3" fill="none" stroke="#fff8ea" stroke-width="2.8" opacity="0.14" transform="translate(2.5 2.5)" stroke-linejoin="round"/><polyline points="1585.3,2051.2 1662.4,2077 1718.8,2093.1 1809.4,2038.3 1868.9,1988.4 1965.9,1976.9 2090.7,1939.3 2162.3,1835.5 2157.3,1753 2047.2,1671 1921.1,1682.9" fill="none" stroke="#2e2116" stroke-width="2.7" opacity="0.15" stroke-linejoin="round"/><polyline points="1585.3,2051.2 1662.4,2077 1718.8,2093.1 1809.4,2038.3 1868.9,1988.4 1965.9,1976.9 2090.7,1939.3 2162.3,1835.5 2157.3,1753 2047.2,1671 1921.1,1682.9" fill="none" stroke="#fff8ea" stroke-width="1.9" opacity="0.10" transform="translate(2.5 2.5)" stroke-linejoin="round"/><path d="M1678.5,2388.3 Q1659.7,2403.4 1638.9,2412.4 Q1618,2421.5 1592.4,2408.9 Q1566.8,2396.2 1570.6,2374.3 Q1574.4,2352.5 1593.4,2336.8 Q1612.4,2321.1 1637.5,2333.7 Q1662.6,2346.2 1679.9,2359.7 Q1697.2,2373.2 1678.5,2388.3 Z" fill="#e0d6c5" opacity="0.88"/><path d="M1775.1,1595.5 Q1762.3,1627.2 1743.3,1619.4 Q1724.3,1611.7 1701.3,1604.7 Q1678.4,1597.8 1679.7,1564.2 Q1680.9,1530.7 1701.4,1513.9 Q1721.9,1497 1741.3,1509.4 Q1760.6,1521.7 1774.3,1542.8 Q1787.9,1563.9 1775.1,1595.5 Z" fill="#e0d6c5" opacity="0.81"/><path d="M2069.1,686.2 Q2065.5,706.8 2052.3,709.8 Q2039.1,712.8 2028.4,695.9 Q2017.6,678.9 2022.7,664.3 Q2027.9,649.7 2033,643.6 Q2038.1,637.5 2054.4,639.4 Q2070.7,641.2 2071.7,653.4 Q2072.8,665.6 2069.1,686.2 Z" fill="#e0d6c5" opacity="0.89"/><path d="M586.6,1175.7 Q576.4,1196.8 556.1,1192.9 Q535.9,1188.9 520.1,1181.1 Q504.2,1173.2 499.2,1156.4 Q494.2,1139.6 514.5,1124.8 Q534.8,1110 560.4,1120.3 Q586,1130.6 591.4,1142.6 Q596.8,1154.6 586.6,1175.7 Z" fill="#e0d6c5" opacity="0.84"/><rect width="2400" height="3000" fill="url(#a85-vig)"/></svg></svg>