<svg xmlns="http://www.w3.org/2000/svg" width="2400" height="1800" viewBox="0 0 2400 1800"><rect width="2400" height="1800" fill="#dfe4dc"/><rect y="1400" width="2400" height="400" fill="#c2a67e"/><line x1="60" y1="1400" x2="10" y2="1800" stroke="#00000015" stroke-width="5"/><line x1="260" y1="1400" x2="210" y2="1800" stroke="#00000015" stroke-width="5"/><line x1="460" y1="1400" x2="410" y2="1800" stroke="#00000015" stroke-width="5"/><line x1="660" y1="1400" x2="610" y2="1800" stroke="#00000015" stroke-width="5"/><line x1="860" y1="1400" x2="810" y2="1800" stroke="#00000015" stroke-width="5"/><line x1="1060" y1="1400" x2="1010" y2="1800" stroke="#00000015" stroke-width="5"/><line x1="1260" y1="1400" x2="1210" y2="1800" stroke="#00000015" stroke-width="5"/><line x1="1460" y1="1400" x2="1410" y2="1800" stroke="#00000015" stroke-width="5"/><line x1="1660" y1="1400" x2="1610" y2="1800" stroke="#00000015" stroke-width="5"/><line x1="1860" y1="1400" x2="1810" y2="1800" stroke="#00000015" stroke-width="5"/><line x1="2060" y1="1400" x2="2010" y2="1800" stroke="#00000015" stroke-width="5"/><line x1="2260" y1="1400" x2="2210" y2="1800" stroke="#00000015" stroke-width="5"/><rect x="180" y="260" width="900" height="620" fill="#8a6a48"/><rect x="215" y="295" width="830" height="550" fill="#41524a"/><line x1="280" y1="420" x2="760" y2="420" stroke="#ffffff66" stroke-width="9" stroke-linecap="round"/><line x1="280" y1="520" x2="620" y2="520" stroke="#ffffff44" stroke-width="9" stroke-linecap="round"/><circle cx="880" cy="560" r="90" fill="none" stroke="#ffffff55" stroke-width="8"/><rect x="215" y="845" width="830" height="22" fill="#6f5436"/><rect x="330" y="1240" width="640" height="60" rx="10" fill="#9c7449"/><rect x="370" y="1300" width="60" height="240" fill="#8a6540"/><rect x="870" y="1300" width="60" height="240" fill="#8a6540"/><rect x="430" y="1160" width="150" height="80" rx="8" fill="#b3502f"/><rect x="450" y="1120" width="150" height="40" rx="8" fill="#c9b98e"/><circle cx="800" cy="1130" r="86" fill="#7fa3b8"/><path d="M760,1060 Q820,1100 780,1190 M740,1090 Q800,1120 850,1100" stroke="#5d8069" stroke-width="16" fill="none" stroke-linecap="round"/><circle cx="800" cy="1130" r="86" fill="none" stroke="#6b5233" stroke-width="7"/><line x1="800" y1="1216" x2="800" y2="1250" stroke="#6b5233" stroke-width="10"/><rect x="750" y="1244" width="100" height="14" rx="7" fill="#6b5233"/><rect x="1980" y="700" width="300" height="800" fill="#9c7449"/><rect x="2000" y="930" width="260" height="16" fill="#7c5a37"/><rect x="2020" y="790" width="36" height="140" fill="#b3502f"/><rect x="2066" y="802" width="36" height="128" fill="#39685c"/><rect x="2112" y="790" width="36" height="140" fill="#c9a227"/><rect x="2158" y="802" width="36" height="128" fill="#2c4661"/><rect x="2204" y="790" width="36" height="140" fill="#8a4423"/><rect x="2000" y="1180" width="260" height="16" fill="#7c5a37"/><rect x="2020" y="1040" width="36" height="140" fill="#39685c"/><rect x="2066" y="1052" width="36" height="128" fill="#c9a227"/><rect x="2112" y="1040" width="36" height="140" fill="#2c4661"/><rect x="2158" y="1052" width="36" height="128" fill="#8a4423"/><rect x="2204" y="1040" width="36" height="140" fill="#b3502f"/><rect x="2000" y="1430" width="260" height="16" fill="#7c5a37"/><rect x="2020" y="1290" width="36" height="140" fill="#c9a227"/><rect x="2066" y="1302" width="36" height="128" fill="#2c4661"/><rect x="2112" y="1290" width="36" height="140" fill="#8a4423"/><rect x="2158" y="1302" width="36" height="128" fill="#b3502f"/><rect x="2204" y="1290" width="36" height="140" fill="#39685c"/><defs><filter id="a19c-sh" x="-30%" y="-30%" width="160%" height="160%"><feGaussianBlur stdDeviation="16"/></filter></defs><rect x="1340.5" y="298.5" width="517" height="635" fill="#000" opacity="0.28" filter="url(#a19c-sh)"/><rect x="1326.5" y="276.5" width="517" height="635" fill="#3d342a"/><rect x="1341.8" y="291.8" width="486.4" height="604.5" fill="none" stroke="#00000055" stroke-width="3"/><rect x="1350" y="300" width="470" height="588" fill="#f6f2ea"/><svg x="1385.3" y="335.3" width="399.5" height="517.5" viewBox="0 0 2400 3000" preserveAspectRatio="xMidYMid slice"><rect width="2400" height="3000" fill="#e9dcbc"/><radialGradient id="a19-vig" cx="50%" cy="42%" r="80%"><stop offset="55%" stop-color="#000" stop-opacity="0"/><stop offset="100%" stop-color="#000" stop-opacity="0.15"/></radialGradient><rect width="2400" height="3000" fill="url(#a19-vig)"/><circle cx="1591.6" cy="880.1" r="3.9" fill="#2c4661" opacity="0.066"/><circle cx="2083.8" cy="659.5" r="1.6" fill="#2c4661" opacity="0.035"/><circle cx="1518.9" cy="2952.2" r="3.3" fill="#2c4661" opacity="0.070"/><circle cx="162.7" cy="456.7" r="3.3" fill="#2c4661" opacity="0.070"/><circle cx="988.3" cy="1152.5" r="4.3" fill="#2c4661" opacity="0.072"/><circle cx="1617.4" cy="2652.7" r="2.6" fill="#2c4661" opacity="0.035"/><circle cx="133.2" cy="323.3" r="2.9" fill="#2c4661" opacity="0.078"/><circle cx="1107.5" cy="556.9" r="3.4" fill="#2c4661" opacity="0.050"/><circle cx="637.1" cy="2802" r="4" fill="#2c4661" opacity="0.065"/><circle cx="1786.9" cy="1682.3" r="4" fill="#2c4661" opacity="0.047"/><circle cx="970.2" cy="2550.7" r="2.8" fill="#2c4661" opacity="0.037"/><circle cx="1505.8" cy="1004.2" r="3.6" fill="#2c4661" opacity="0.065"/><circle cx="1577" cy="392.4" r="2.5" fill="#2c4661" opacity="0.057"/><circle cx="2309.9" cy="2645.4" r="2" fill="#2c4661" opacity="0.061"/><circle cx="2284.2" cy="696.5" r="3.1" fill="#2c4661" opacity="0.055"/><circle cx="2180.2" cy="2522.3" r="3.3" fill="#2c4661" opacity="0.034"/><circle cx="2007.9" cy="938.7" r="1.6" fill="#2c4661" opacity="0.055"/><circle cx="1025.5" cy="1755.2" r="2.1" fill="#2c4661" opacity="0.050"/><circle cx="78.7" cy="1497.4" r="2.9" fill="#2c4661" opacity="0.073"/><circle cx="70.4" cy="197.2" r="3.3" fill="#2c4661" opacity="0.052"/><circle cx="508.4" cy="2286.7" r="3.8" fill="#2c4661" opacity="0.049"/><circle cx="922.8" cy="560" r="1.9" fill="#2c4661" opacity="0.049"/><circle cx="1684.1" cy="2087.2" r="4.2" fill="#2c4661" opacity="0.032"/><circle cx="1713.7" cy="1440.3" r="2.5" fill="#2c4661" opacity="0.060"/><circle cx="1972.4" cy="1158.8" r="2.7" fill="#2c4661" opacity="0.035"/><circle cx="1104.1" cy="2466.7" r="1.6" fill="#2c4661" opacity="0.045"/><circle cx="1978.1" cy="1813.5" r="2.5" fill="#2c4661" opacity="0.058"/><circle cx="215.5" cy="2946.3" r="3.6" fill="#2c4661" opacity="0.055"/><circle cx="2164.9" cy="2228.7" r="3.4" fill="#2c4661" opacity="0.069"/><circle cx="1032.8" cy="2929.7" r="3.3" fill="#2c4661" opacity="0.045"/><circle cx="2060" cy="2009.5" r="4.4" fill="#2c4661" opacity="0.032"/><circle cx="280.2" cy="2694.1" r="2.1" fill="#2c4661" opacity="0.058"/><circle cx="1068.8" cy="2708.8" r="4.2" fill="#2c4661" opacity="0.078"/><circle cx="1346.1" cy="631.9" r="4" fill="#2c4661" opacity="0.043"/><circle cx="1106.3" cy="228.5" r="3.4" fill="#2c4661" opacity="0.045"/><circle cx="643.2" cy="2355.9" r="2.2" fill="#2c4661" opacity="0.056"/><circle cx="102.8" cy="814.6" r="2" fill="#2c4661" opacity="0.062"/><circle cx="420" cy="442.1" r="2.9" fill="#2c4661" opacity="0.067"/><circle cx="1322" cy="2319.2" r="2" fill="#2c4661" opacity="0.051"/><circle cx="2220.5" cy="2435.8" r="3.2" fill="#2c4661" opacity="0.046"/><circle cx="2192.9" cy="712.7" r="2.3" fill="#2c4661" opacity="0.065"/><circle cx="483.9" cy="2877.4" r="3.3" fill="#2c4661" opacity="0.047"/><circle cx="678.3" cy="735.4" r="3.9" fill="#2c4661" opacity="0.060"/><circle cx="1615.2" cy="871.9" r="2" fill="#2c4661" opacity="0.052"/><circle cx="1442.3" cy="569.6" r="2.4" fill="#2c4661" opacity="0.053"/><circle cx="1816.8" cy="1795.3" r="4.2" fill="#2c4661" opacity="0.079"/><circle cx="1522.9" cy="735.3" r="4.4" fill="#2c4661" opacity="0.038"/><circle cx="1798.2" cy="2831" r="2.5" fill="#2c4661" opacity="0.057"/><circle cx="57.4" cy="2645.6" r="2.6" fill="#2c4661" opacity="0.040"/><circle cx="1297.2" cy="345.9" r="3.4" fill="#2c4661" opacity="0.072"/><circle cx="1434.1" cy="2337.1" r="1.8" fill="#2c4661" opacity="0.075"/><circle cx="1496.9" cy="2885.3" r="3.1" fill="#2c4661" opacity="0.038"/><circle cx="1676" cy="438.6" r="2.5" fill="#2c4661" opacity="0.063"/><circle cx="2180.6" cy="963.4" r="4" fill="#2c4661" opacity="0.049"/><circle cx="400.7" cy="1853.2" r="2.9" fill="#2c4661" opacity="0.037"/><circle cx="490.6" cy="531.7" r="3.4" fill="#2c4661" opacity="0.053"/><circle cx="414.3" cy="656.6" r="4.2" fill="#2c4661" opacity="0.064"/><circle cx="2004.6" cy="436.8" r="2.5" fill="#2c4661" opacity="0.044"/><circle cx="1825.2" cy="2108.9" r="2.8" fill="#2c4661" opacity="0.041"/><circle cx="1481.4" cy="1955.5" r="2.6" fill="#2c4661" opacity="0.054"/><circle cx="142.3" cy="2181" r="4" fill="#2c4661" opacity="0.059"/><circle cx="52.4" cy="2241" r="4.3" fill="#2c4661" opacity="0.030"/><circle cx="107.8" cy="1301.6" r="4.4" fill="#2c4661" opacity="0.038"/><circle cx="415.3" cy="1027.4" r="4.1" fill="#2c4661" opacity="0.061"/><circle cx="279.3" cy="1831.5" r="2.5" fill="#2c4661" opacity="0.039"/><circle cx="1214.3" cy="1338" r="1.6" fill="#2c4661" opacity="0.032"/><circle cx="1791.8" cy="202" r="3.8" fill="#2c4661" opacity="0.049"/><circle cx="478.8" cy="1570.5" r="4" fill="#2c4661" opacity="0.065"/><circle cx="410.9" cy="1848.8" r="4.2" fill="#2c4661" opacity="0.079"/><circle cx="2291.3" cy="1362.9" r="3.1" fill="#2c4661" opacity="0.056"/><circle cx="262.5" cy="125.7" r="3.4" fill="#2c4661" opacity="0.067"/><circle cx="640.6" cy="942.4" r="3.7" fill="#2c4661" opacity="0.052"/><circle cx="1213.5" cy="2352.3" r="3.1" fill="#2c4661" opacity="0.055"/><circle cx="225.8" cy="728.4" r="3.1" fill="#2c4661" opacity="0.047"/><circle cx="1384.8" cy="2201.4" r="3.8" fill="#2c4661" opacity="0.051"/><circle cx="300.4" cy="790.1" r="3" fill="#2c4661" opacity="0.075"/><circle cx="1878.7" cy="1449.8" r="2.2" fill="#2c4661" opacity="0.076"/><circle cx="43.9" cy="2296.8" r="4" fill="#2c4661" opacity="0.077"/><circle cx="1251.4" cy="2310.8" r="2" fill="#2c4661" opacity="0.076"/><circle cx="624.6" cy="808.4" r="4.4" fill="#2c4661" opacity="0.060"/><circle cx="1200" cy="984.6" r="394.9" fill="#b3502f" opacity="0.92"/><circle cx="1200" cy="984.6" r="464.9" fill="none" stroke="#b3502f" stroke-width="7" stroke-dasharray="4 30" stroke-linecap="round"/><rect x="330" y="2450" width="1740" height="52" fill="#2c4661"/><rect x="240" y="2502" width="1920" height="52" fill="#2c4661" opacity="0.85"/><rect x="150" y="2554" width="2100" height="52" fill="#2c4661" opacity="0.7"/><path d="M685,2450 L712,839.8 L928,839.8 L955,2450 Z" fill="#2c4661"/><line x1="748" y1="869.8" x2="730" y2="2440" stroke="#e9dcbc" stroke-width="9" opacity="0.55"/><line x1="784" y1="869.8" x2="775" y2="2440" stroke="#e9dcbc" stroke-width="9" opacity="0.55"/><line x1="820" y1="869.8" x2="820" y2="2440" stroke="#e9dcbc" stroke-width="9" opacity="0.55"/><line x1="856" y1="869.8" x2="865" y2="2440" stroke="#e9dcbc" stroke-width="9" opacity="0.55"/><line x1="892" y1="869.8" x2="910" y2="2440" stroke="#e9dcbc" stroke-width="9" opacity="0.55"/><path d="M0 0 Q 26 -36.5 0 -96 Q -26 -36.5 0 0 Z" fill="#2c4661" opacity="1" transform="translate(721.8 839.8) rotate(-32)"/><path d="M0 0 Q 26 -36.5 0 -96 Q -26 -36.5 0 0 Z" fill="#2c4661" opacity="1" transform="translate(770.9 839.8) rotate(-16)"/><path d="M0 0 Q 26 -36.5 0 -96 Q -26 -36.5 0 0 Z" fill="#2c4661" opacity="1" transform="translate(820 839.8) rotate(0)"/><path d="M0 0 Q 26 -36.5 0 -96 Q -26 -36.5 0 0 Z" fill="#2c4661" opacity="1" transform="translate(869.1 839.8) rotate(16)"/><path d="M0 0 Q 26 -36.5 0 -96 Q -26 -36.5 0 0 Z" fill="#2c4661" opacity="1" transform="translate(918.2 839.8) rotate(32)"/><path d="M0 0 Q 26 -46.4 0 -122 Q -26 -46.4 0 0 Z" fill="#2c4661" opacity="1" transform="translate(721.8 787.8) rotate(-32)"/><path d="M0 0 Q 26 -46.4 0 -122 Q -26 -46.4 0 0 Z" fill="#2c4661" opacity="1" transform="translate(770.9 787.8) rotate(-16)"/><path d="M0 0 Q 26 -46.4 0 -122 Q -26 -46.4 0 0 Z" fill="#2c4661" opacity="1" transform="translate(820 787.8) rotate(0)"/><path d="M0 0 Q 26 -46.4 0 -122 Q -26 -46.4 0 0 Z" fill="#2c4661" opacity="1" transform="translate(869.1 787.8) rotate(16)"/><path d="M0 0 Q 26 -46.4 0 -122 Q -26 -46.4 0 0 Z" fill="#2c4661" opacity="1" transform="translate(918.2 787.8) rotate(32)"/><rect x="652" y="681.8" width="336" height="44" fill="#2c4661"/><rect x="659" y="2406" width="322" height="44" fill="#2c4661"/><path d="M1445,2450 L1472,1586.9 L1688,1586.9 L1715,2450 Z" fill="#2c4661"/><line x1="1508" y1="1616.9" x2="1490" y2="2440" stroke="#e9dcbc" stroke-width="9" opacity="0.55"/><line x1="1544" y1="1616.9" x2="1535" y2="2440" stroke="#e9dcbc" stroke-width="9" opacity="0.55"/><line x1="1580" y1="1616.9" x2="1580" y2="2440" stroke="#e9dcbc" stroke-width="9" opacity="0.55"/><line x1="1616" y1="1616.9" x2="1625" y2="2440" stroke="#e9dcbc" stroke-width="9" opacity="0.55"/><line x1="1652" y1="1616.9" x2="1670" y2="2440" stroke="#e9dcbc" stroke-width="9" opacity="0.55"/><polyline points="1472,1586.9 1544,1540.9 1607,1594.9 1688,1556.9" fill="#e9dcbc" stroke="none"/><path d="M260.9,289.1 L 333.1,289.1 L 333.1,216.9 L 276.4,216.9 L 276.4,261.6 L 305.6,261.6 L 305.6,239.2 M346.9,289.1 L 419.1,289.1 L 419.1,216.9 L 362.4,216.9 L 362.4,261.6 L 391.6,261.6 L 391.6,239.2 M432.9,289.1 L 505.1,289.1 L 505.1,216.9 L 448.4,216.9 L 448.4,261.6 L 477.6,261.6 L 477.6,239.2 M518.9,289.1 L 591.1,289.1 L 591.1,216.9 L 534.4,216.9 L 534.4,261.6 L 563.6,261.6 L 563.6,239.2 M604.9,289.1 L 677.1,289.1 L 677.1,216.9 L 620.4,216.9 L 620.4,261.6 L 649.6,261.6 L 649.6,239.2 M690.9,289.1 L 763.1,289.1 L 763.1,216.9 L 706.4,216.9 L 706.4,261.6 L 735.6,261.6 L 735.6,239.2 M776.9,289.1 L 849.1,289.1 L 849.1,216.9 L 792.4,216.9 L 792.4,261.6 L 821.6,261.6 L 821.6,239.2 M862.9,289.1 L 935.1,289.1 L 935.1,216.9 L 878.4,216.9 L 878.4,261.6 L 907.6,261.6 L 907.6,239.2 M948.9,289.1 L 1021.1,289.1 L 1021.1,216.9 L 964.4,216.9 L 964.4,261.6 L 993.6,261.6 L 993.6,239.2 M1034.9,289.1 L 1107.1,289.1 L 1107.1,216.9 L 1050.4,216.9 L 1050.4,261.6 L 1079.6,261.6 L 1079.6,239.2 M1120.9,289.1 L 1193.1,289.1 L 1193.1,216.9 L 1136.4,216.9 L 1136.4,261.6 L 1165.6,261.6 L 1165.6,239.2 M1206.9,289.1 L 1279.1,289.1 L 1279.1,216.9 L 1222.4,216.9 L 1222.4,261.6 L 1251.6,261.6 L 1251.6,239.2 M1292.9,289.1 L 1365.1,289.1 L 1365.1,216.9 L 1308.4,216.9 L 1308.4,261.6 L 1337.6,261.6 L 1337.6,239.2 M1378.9,289.1 L 1451.1,289.1 L 1451.1,216.9 L 1394.4,216.9 L 1394.4,261.6 L 1423.6,261.6 L 1423.6,239.2 M1464.9,289.1 L 1537.1,289.1 L 1537.1,216.9 L 1480.4,216.9 L 1480.4,261.6 L 1509.6,261.6 L 1509.6,239.2 M1550.9,289.1 L 1623.1,289.1 L 1623.1,216.9 L 1566.4,216.9 L 1566.4,261.6 L 1595.6,261.6 L 1595.6,239.2 M1636.9,289.1 L 1709.1,289.1 L 1709.1,216.9 L 1652.4,216.9 L 1652.4,261.6 L 1681.6,261.6 L 1681.6,239.2 M1722.9,289.1 L 1795.1,289.1 L 1795.1,216.9 L 1738.4,216.9 L 1738.4,261.6 L 1767.6,261.6 L 1767.6,239.2 M1808.9,289.1 L 1881.1,289.1 L 1881.1,216.9 L 1824.4,216.9 L 1824.4,261.6 L 1853.6,261.6 L 1853.6,239.2 M1894.9,289.1 L 1967.1,289.1 L 1967.1,216.9 L 1910.4,216.9 L 1910.4,261.6 L 1939.6,261.6 L 1939.6,239.2 M1980.9,289.1 L 2053.1,289.1 L 2053.1,216.9 L 1996.4,216.9 L 1996.4,261.6 L 2025.6,261.6 L 2025.6,239.2 M2066.9,289.1 L 2139.1,289.1 L 2139.1,216.9 L 2082.4,216.9 L 2082.4,261.6 L 2111.6,261.6 L 2111.6,239.2 " fill="none" stroke="#2c4661" stroke-width="11.2"/><rect x="100" y="100" width="2200" height="2800" fill="none" stroke="#2c4661" stroke-width="9"/><rect x="142" y="142" width="2116" height="2716" fill="none" stroke="#2c4661" stroke-width="3" opacity="0.65"/></svg></svg>