<svg xmlns="http://www.w3.org/2000/svg" width="2400" height="1800" viewBox="0 0 2400 1800"><rect width="2400" height="1800" fill="#dfe4dc"/><rect y="1400" width="2400" height="400" fill="#c2a67e"/><line x1="60" y1="1400" x2="10" y2="1800" stroke="#00000015" stroke-width="5"/><line x1="260" y1="1400" x2="210" y2="1800" stroke="#00000015" stroke-width="5"/><line x1="460" y1="1400" x2="410" y2="1800" stroke="#00000015" stroke-width="5"/><line x1="660" y1="1400" x2="610" y2="1800" stroke="#00000015" stroke-width="5"/><line x1="860" y1="1400" x2="810" y2="1800" stroke="#00000015" stroke-width="5"/><line x1="1060" y1="1400" x2="1010" y2="1800" stroke="#00000015" stroke-width="5"/><line x1="1260" y1="1400" x2="1210" y2="1800" stroke="#00000015" stroke-width="5"/><line x1="1460" y1="1400" x2="1410" y2="1800" stroke="#00000015" stroke-width="5"/><line x1="1660" y1="1400" x2="1610" y2="1800" stroke="#00000015" stroke-width="5"/><line x1="1860" y1="1400" x2="1810" y2="1800" stroke="#00000015" stroke-width="5"/><line x1="2060" y1="1400" x2="2010" y2="1800" stroke="#00000015" stroke-width="5"/><line x1="2260" y1="1400" x2="2210" y2="1800" stroke="#00000015" stroke-width="5"/><rect x="180" y="260" width="900" height="620" fill="#8a6a48"/><rect x="215" y="295" width="830" height="550" fill="#41524a"/><line x1="280" y1="420" x2="760" y2="420" stroke="#ffffff66" stroke-width="9" stroke-linecap="round"/><line x1="280" y1="520" x2="620" y2="520" stroke="#ffffff44" stroke-width="9" stroke-linecap="round"/><circle cx="880" cy="560" r="90" fill="none" stroke="#ffffff55" stroke-width="8"/><rect x="215" y="845" width="830" height="22" fill="#6f5436"/><rect x="330" y="1240" width="640" height="60" rx="10" fill="#9c7449"/><rect x="370" y="1300" width="60" height="240" fill="#8a6540"/><rect x="870" y="1300" width="60" height="240" fill="#8a6540"/><rect x="430" y="1160" width="150" height="80" rx="8" fill="#96a396"/><rect x="450" y="1120" width="150" height="40" rx="8" fill="#cfc7b2"/><circle cx="800" cy="1130" r="86" fill="#7fa3b8"/><path d="M760,1060 Q820,1100 780,1190 M740,1090 Q800,1120 850,1100" stroke="#5d8069" stroke-width="16" fill="none" stroke-linecap="round"/><circle cx="800" cy="1130" r="86" fill="none" stroke="#6b5233" stroke-width="7"/><line x1="800" y1="1216" x2="800" y2="1250" stroke="#6b5233" stroke-width="10"/><rect x="750" y="1244" width="100" height="14" rx="7" fill="#6b5233"/><rect x="1980" y="700" width="300" height="800" fill="#9c7449"/><rect x="2000" y="930" width="260" height="16" fill="#7c5a37"/><rect x="2020" y="790" width="36" height="140" fill="#b3502f"/><rect x="2066" y="802" width="36" height="128" fill="#39685c"/><rect x="2112" y="790" width="36" height="140" fill="#c9a227"/><rect x="2158" y="802" width="36" height="128" fill="#2c4661"/><rect x="2204" y="790" width="36" height="140" fill="#8a4423"/><rect x="2000" y="1180" width="260" height="16" fill="#7c5a37"/><rect x="2020" y="1040" width="36" height="140" fill="#39685c"/><rect x="2066" y="1052" width="36" height="128" fill="#c9a227"/><rect x="2112" y="1040" width="36" height="140" fill="#2c4661"/><rect x="2158" y="1052" width="36" height="128" fill="#8a4423"/><rect x="2204" y="1040" width="36" height="140" fill="#b3502f"/><rect x="2000" y="1430" width="260" height="16" fill="#7c5a37"/><rect x="2020" y="1290" width="36" height="140" fill="#c9a227"/><rect x="2066" y="1302" width="36" height="128" fill="#2c4661"/><rect x="2112" y="1290" width="36" height="140" fill="#8a4423"/><rect x="2158" y="1302" width="36" height="128" fill="#b3502f"/><rect x="2204" y="1290" width="36" height="140" fill="#39685c"/><defs><filter id="a98c-sh" x="-30%" y="-30%" width="160%" height="160%"><feGaussianBlur stdDeviation="16"/></filter></defs><rect x="1340.5" y="298.5" width="517" height="635" fill="#000" opacity="0.28" filter="url(#a98c-sh)"/><rect x="1326.5" y="276.5" width="517" height="635" fill="#3d342a"/><rect x="1341.8" y="291.8" width="486.4" height="604.5" fill="none" stroke="#00000055" stroke-width="3"/><rect x="1350" y="300" width="470" height="588" fill="#f6f2ea"/><svg x="1385.3" y="335.3" width="399.5" height="517.5" viewBox="0 0 2400 3000" preserveAspectRatio="xMidYMid slice"><rect width="2400" height="3000" fill="#e7e1d3"/><radialGradient id="a98-vig" cx="50%" cy="42%" r="80%"><stop offset="55%" stop-color="#000" stop-opacity="0"/><stop offset="100%" stop-color="#000" stop-opacity="0.15"/></radialGradient><rect width="2400" height="3000" fill="url(#a98-vig)"/><circle cx="666.3" cy="2063.7" r="2.8" fill="#39685c" opacity="0.066"/><circle cx="1086" cy="292.4" r="2.5" fill="#39685c" opacity="0.047"/><circle cx="566.8" cy="823" r="3.2" fill="#39685c" opacity="0.077"/><circle cx="189.5" cy="2511.2" r="4.2" fill="#39685c" opacity="0.042"/><circle cx="932.1" cy="2659.4" r="3.8" fill="#39685c" opacity="0.038"/><circle cx="397.7" cy="754.5" r="2.7" fill="#39685c" opacity="0.053"/><circle cx="671.4" cy="1235.2" r="4.4" fill="#39685c" opacity="0.030"/><circle cx="451.3" cy="392.1" r="3.3" fill="#39685c" opacity="0.049"/><circle cx="1313.1" cy="2158.1" r="4.1" fill="#39685c" opacity="0.038"/><circle cx="2009.1" cy="1198.6" r="2.4" fill="#39685c" opacity="0.069"/><circle cx="1376.3" cy="1528.3" r="2" fill="#39685c" opacity="0.047"/><circle cx="1469.5" cy="1273.1" r="2.5" fill="#39685c" opacity="0.078"/><circle cx="1630.2" cy="2199.6" r="2.6" fill="#39685c" opacity="0.054"/><circle cx="386.5" cy="1947.5" r="3.3" fill="#39685c" opacity="0.035"/><circle cx="541.3" cy="279.3" r="2.9" fill="#39685c" opacity="0.034"/><circle cx="719.5" cy="1604.4" r="4.4" fill="#39685c" opacity="0.043"/><circle cx="1931.8" cy="1033.5" r="2.8" fill="#39685c" opacity="0.068"/><circle cx="858.1" cy="898.3" r="1.7" fill="#39685c" opacity="0.050"/><circle cx="1293.3" cy="1974.7" r="4.3" fill="#39685c" opacity="0.044"/><circle cx="2203.3" cy="2024.9" r="1.8" fill="#39685c" opacity="0.033"/><circle cx="979.4" cy="1359.6" r="3.3" fill="#39685c" opacity="0.041"/><circle cx="853.9" cy="2625.8" r="1.8" fill="#39685c" opacity="0.038"/><circle cx="2258.7" cy="1735.8" r="2.6" fill="#39685c" opacity="0.049"/><circle cx="432.1" cy="771.5" r="2.3" fill="#39685c" opacity="0.043"/><circle cx="1417.6" cy="424.9" r="2.7" fill="#39685c" opacity="0.080"/><circle cx="1869.9" cy="1238" r="4.3" fill="#39685c" opacity="0.069"/><circle cx="847.2" cy="229.3" r="3.9" fill="#39685c" opacity="0.062"/><circle cx="202.2" cy="1860.6" r="2.8" fill="#39685c" opacity="0.057"/><circle cx="1594.9" cy="2418.7" r="2" fill="#39685c" opacity="0.035"/><circle cx="456.4" cy="1042.9" r="1.5" fill="#39685c" opacity="0.080"/><circle cx="1379.8" cy="2246.7" r="4" fill="#39685c" opacity="0.071"/><circle cx="1036.2" cy="1390.4" r="3.5" fill="#39685c" opacity="0.077"/><circle cx="2013.1" cy="2324.5" r="3" fill="#39685c" opacity="0.079"/><circle cx="1525.7" cy="782.3" r="4.3" fill="#39685c" opacity="0.065"/><circle cx="1789.6" cy="1277.6" r="1.9" fill="#39685c" opacity="0.074"/><circle cx="2122.2" cy="2473.2" r="1.7" fill="#39685c" opacity="0.035"/><circle cx="384.3" cy="356.1" r="3.7" fill="#39685c" opacity="0.065"/><circle cx="1731" cy="2143.1" r="2.7" fill="#39685c" opacity="0.075"/><circle cx="1269.7" cy="1284" r="3.7" fill="#39685c" opacity="0.064"/><circle cx="411.9" cy="2938.6" r="3.8" fill="#39685c" opacity="0.054"/><circle cx="491.6" cy="1413" r="2.4" fill="#39685c" opacity="0.050"/><circle cx="1232" cy="317.5" r="2.9" fill="#39685c" opacity="0.052"/><circle cx="301.9" cy="948.6" r="4.2" fill="#39685c" opacity="0.074"/><circle cx="217.3" cy="1335.3" r="2" fill="#39685c" opacity="0.045"/><circle cx="2011.8" cy="127.3" r="4.4" fill="#39685c" opacity="0.052"/><circle cx="1417.4" cy="863" r="2.4" fill="#39685c" opacity="0.065"/><circle cx="363" cy="871.4" r="1.8" fill="#39685c" opacity="0.061"/><circle cx="1111.4" cy="215.5" r="4" fill="#39685c" opacity="0.032"/><circle cx="718.3" cy="1467.1" r="2.9" fill="#39685c" opacity="0.032"/><circle cx="1242" cy="2851.3" r="2.2" fill="#39685c" opacity="0.062"/><circle cx="420.9" cy="721.6" r="4" fill="#39685c" opacity="0.041"/><circle cx="1464.5" cy="2355.7" r="2.2" fill="#39685c" opacity="0.077"/><circle cx="1049.9" cy="2482.3" r="2.2" fill="#39685c" opacity="0.047"/><circle cx="1542.8" cy="2572.4" r="2.3" fill="#39685c" opacity="0.062"/><circle cx="2173" cy="2007.8" r="2.9" fill="#39685c" opacity="0.030"/><circle cx="1920.1" cy="2059.2" r="3.7" fill="#39685c" opacity="0.034"/><circle cx="1492.2" cy="99.4" r="3.1" fill="#39685c" opacity="0.039"/><circle cx="476.2" cy="942.4" r="3.2" fill="#39685c" opacity="0.062"/><circle cx="1985.5" cy="462.2" r="4.3" fill="#39685c" opacity="0.080"/><circle cx="1586.9" cy="1182.7" r="1.9" fill="#39685c" opacity="0.051"/><circle cx="1844.1" cy="894.4" r="3.2" fill="#39685c" opacity="0.079"/><circle cx="2333.8" cy="794.3" r="3.8" fill="#39685c" opacity="0.059"/><circle cx="1540.6" cy="660.9" r="3.1" fill="#39685c" opacity="0.036"/><circle cx="1600.8" cy="1381.8" r="4.3" fill="#39685c" opacity="0.077"/><circle cx="1294.9" cy="2301.7" r="2" fill="#39685c" opacity="0.062"/><circle cx="1125.2" cy="2833.9" r="4.3" fill="#39685c" opacity="0.080"/><circle cx="1382.5" cy="1748.7" r="3.4" fill="#39685c" opacity="0.032"/><circle cx="1354" cy="1452.3" r="2" fill="#39685c" opacity="0.059"/><circle cx="160.6" cy="1034.8" r="2.4" fill="#39685c" opacity="0.063"/><circle cx="229.5" cy="593.1" r="3.2" fill="#39685c" opacity="0.048"/><circle cx="1518.7" cy="2439.3" r="1.5" fill="#39685c" opacity="0.059"/><circle cx="470.9" cy="1513.7" r="4.5" fill="#39685c" opacity="0.047"/><circle cx="2074.9" cy="1014.6" r="3.4" fill="#39685c" opacity="0.032"/><circle cx="1840.6" cy="2066.2" r="1.6" fill="#39685c" opacity="0.044"/><circle cx="365.5" cy="298.8" r="2" fill="#39685c" opacity="0.064"/><circle cx="1575.6" cy="1743.6" r="2.3" fill="#39685c" opacity="0.046"/><circle cx="805" cy="2061.4" r="4" fill="#39685c" opacity="0.041"/><circle cx="1380.9" cy="429.8" r="1.5" fill="#39685c" opacity="0.056"/><circle cx="427.8" cy="2239.5" r="3.6" fill="#39685c" opacity="0.032"/><circle cx="2143.4" cy="914.5" r="1.6" fill="#39685c" opacity="0.054"/><path d="M1173.1,1577.2 A130,130 0 1 1 1240.3,1573.6" fill="none" stroke="#39685c" stroke-width="40.6" stroke-linecap="round"/><line x1="1153.6" y1="1571.4" x2="1119" y2="1661.7" stroke="#39685c" stroke-width="40.6" stroke-linecap="round"/><path d="M1234,1225.9 A226.7,226.7 0 1 1 1117.4,1238.9" fill="none" stroke="#39685c" stroke-width="40.6" stroke-linecap="round"/><line x1="1085.4" y1="1254.5" x2="1036.5" y2="1171.1" stroke="#39685c" stroke-width="40.6" stroke-linecap="round"/><path d="M1049.2,1736 A323.3,323.3 0 1 1 1212.5,1773.1" fill="none" stroke="#39685c" stroke-width="40.6" stroke-linecap="round"/><line x1="1006.4" y1="1708.9" x2="948.5" y2="1786.3" stroke="#39685c" stroke-width="40.6" stroke-linecap="round"/><path d="M1259.3,1034.2 A420,420 0 1 1 1043.5,1060.3" fill="none" stroke="#39685c" stroke-width="40.6" stroke-linecap="round"/><line x1="984.4" y1="1089.5" x2="934.8" y2="1006.6" stroke="#39685c" stroke-width="40.6" stroke-linecap="round"/><path d="M1013.7,1931.9 A516.7,516.7 0 1 1 1279.6,1960.5" fill="none" stroke="#39685c" stroke-width="40.6" stroke-linecap="round"/><line x1="940.6" y1="1896.8" x2="892" y2="1980.4" stroke="#39685c" stroke-width="40.6" stroke-linecap="round"/><path d="M1474.2,901.4 A613.3,613.3 0 1 1 1163.2,837.8" fill="none" stroke="#39685c" stroke-width="40.6" stroke-linecap="round"/><line x1="1067.8" y1="851.1" x2="1047" y2="756.7" stroke="#39685c" stroke-width="40.6" stroke-linecap="round"/><path d="M1072.2,2148.4 A710,710 0 1 1 1438.5,2118.7" fill="none" stroke="#39685c" stroke-width="40.6" stroke-linecap="round"/><line x1="964.5" y1="2119.8" x2="932.4" y2="2211" stroke="#39685c" stroke-width="40.6" stroke-linecap="round"/><path d="M1537.8,717.4 A806.7,806.7 0 1 1 1126.2,646.7" fill="none" stroke="#39685c" stroke-width="40.6" stroke-linecap="round"/><line x1="1001.5" y1="668.1" x2="977.7" y2="574.5" stroke="#39685c" stroke-width="40.6" stroke-linecap="round"/><path d="M1029.6,2337.1 A903.3,903.3 0 1 1 1496,2303.5" fill="none" stroke="#39685c" stroke-width="40.6" stroke-linecap="round"/><circle cx="1200" cy="1450" r="56" fill="#96a396"/><path d="M324.7,287.3 L 395.3,287.3 L 395.3,216.7 L 339.8,216.7 L 339.8,260.4 L 368.4,260.4 L 368.4,238.6 M408.7,287.3 L 479.3,287.3 L 479.3,216.7 L 423.8,216.7 L 423.8,260.4 L 452.4,260.4 L 452.4,238.6 M492.7,287.3 L 563.3,287.3 L 563.3,216.7 L 507.8,216.7 L 507.8,260.4 L 536.4,260.4 L 536.4,238.6 M576.7,287.3 L 647.3,287.3 L 647.3,216.7 L 591.8,216.7 L 591.8,260.4 L 620.4,260.4 L 620.4,238.6 M660.7,287.3 L 731.3,287.3 L 731.3,216.7 L 675.8,216.7 L 675.8,260.4 L 704.4,260.4 L 704.4,238.6 M744.7,287.3 L 815.3,287.3 L 815.3,216.7 L 759.8,216.7 L 759.8,260.4 L 788.4,260.4 L 788.4,238.6 M828.7,287.3 L 899.3,287.3 L 899.3,216.7 L 843.8,216.7 L 843.8,260.4 L 872.4,260.4 L 872.4,238.6 M912.7,287.3 L 983.3,287.3 L 983.3,216.7 L 927.8,216.7 L 927.8,260.4 L 956.4,260.4 L 956.4,238.6 M996.7,287.3 L 1067.3,287.3 L 1067.3,216.7 L 1011.8,216.7 L 1011.8,260.4 L 1040.4,260.4 L 1040.4,238.6 M1080.7,287.3 L 1151.3,287.3 L 1151.3,216.7 L 1095.8,216.7 L 1095.8,260.4 L 1124.4,260.4 L 1124.4,238.6 M1164.7,287.3 L 1235.3,287.3 L 1235.3,216.7 L 1179.8,216.7 L 1179.8,260.4 L 1208.4,260.4 L 1208.4,238.6 M1248.7,287.3 L 1319.3,287.3 L 1319.3,216.7 L 1263.8,216.7 L 1263.8,260.4 L 1292.4,260.4 L 1292.4,238.6 M1332.7,287.3 L 1403.3,287.3 L 1403.3,216.7 L 1347.8,216.7 L 1347.8,260.4 L 1376.4,260.4 L 1376.4,238.6 M1416.7,287.3 L 1487.3,287.3 L 1487.3,216.7 L 1431.8,216.7 L 1431.8,260.4 L 1460.4,260.4 L 1460.4,238.6 M1500.7,287.3 L 1571.3,287.3 L 1571.3,216.7 L 1515.8,216.7 L 1515.8,260.4 L 1544.4,260.4 L 1544.4,238.6 M1584.7,287.3 L 1655.3,287.3 L 1655.3,216.7 L 1599.8,216.7 L 1599.8,260.4 L 1628.4,260.4 L 1628.4,238.6 M1668.7,287.3 L 1739.3,287.3 L 1739.3,216.7 L 1683.8,216.7 L 1683.8,260.4 L 1712.4,260.4 L 1712.4,238.6 M1752.7,287.3 L 1823.3,287.3 L 1823.3,216.7 L 1767.8,216.7 L 1767.8,260.4 L 1796.4,260.4 L 1796.4,238.6 M1836.7,287.3 L 1907.3,287.3 L 1907.3,216.7 L 1851.8,216.7 L 1851.8,260.4 L 1880.4,260.4 L 1880.4,238.6 M1920.7,287.3 L 1991.3,287.3 L 1991.3,216.7 L 1935.8,216.7 L 1935.8,260.4 L 1964.4,260.4 L 1964.4,238.6 M2004.7,287.3 L 2075.3,287.3 L 2075.3,216.7 L 2019.8,216.7 L 2019.8,260.4 L 2048.4,260.4 L 2048.4,238.6 " fill="none" stroke="#39685c" stroke-width="10.9"/><path d="M324.7,2777.3 L 395.3,2777.3 L 395.3,2706.7 L 339.8,2706.7 L 339.8,2750.4 L 368.4,2750.4 L 368.4,2728.6 M408.7,2777.3 L 479.3,2777.3 L 479.3,2706.7 L 423.8,2706.7 L 423.8,2750.4 L 452.4,2750.4 L 452.4,2728.6 M492.7,2777.3 L 563.3,2777.3 L 563.3,2706.7 L 507.8,2706.7 L 507.8,2750.4 L 536.4,2750.4 L 536.4,2728.6 M576.7,2777.3 L 647.3,2777.3 L 647.3,2706.7 L 591.8,2706.7 L 591.8,2750.4 L 620.4,2750.4 L 620.4,2728.6 M660.7,2777.3 L 731.3,2777.3 L 731.3,2706.7 L 675.8,2706.7 L 675.8,2750.4 L 704.4,2750.4 L 704.4,2728.6 M744.7,2777.3 L 815.3,2777.3 L 815.3,2706.7 L 759.8,2706.7 L 759.8,2750.4 L 788.4,2750.4 L 788.4,2728.6 M828.7,2777.3 L 899.3,2777.3 L 899.3,2706.7 L 843.8,2706.7 L 843.8,2750.4 L 872.4,2750.4 L 872.4,2728.6 M912.7,2777.3 L 983.3,2777.3 L 983.3,2706.7 L 927.8,2706.7 L 927.8,2750.4 L 956.4,2750.4 L 956.4,2728.6 M996.7,2777.3 L 1067.3,2777.3 L 1067.3,2706.7 L 1011.8,2706.7 L 1011.8,2750.4 L 1040.4,2750.4 L 1040.4,2728.6 M1080.7,2777.3 L 1151.3,2777.3 L 1151.3,2706.7 L 1095.8,2706.7 L 1095.8,2750.4 L 1124.4,2750.4 L 1124.4,2728.6 M1164.7,2777.3 L 1235.3,2777.3 L 1235.3,2706.7 L 1179.8,2706.7 L 1179.8,2750.4 L 1208.4,2750.4 L 1208.4,2728.6 M1248.7,2777.3 L 1319.3,2777.3 L 1319.3,2706.7 L 1263.8,2706.7 L 1263.8,2750.4 L 1292.4,2750.4 L 1292.4,2728.6 M1332.7,2777.3 L 1403.3,2777.3 L 1403.3,2706.7 L 1347.8,2706.7 L 1347.8,2750.4 L 1376.4,2750.4 L 1376.4,2728.6 M1416.7,2777.3 L 1487.3,2777.3 L 1487.3,2706.7 L 1431.8,2706.7 L 1431.8,2750.4 L 1460.4,2750.4 L 1460.4,2728.6 M1500.7,2777.3 L 1571.3,2777.3 L 1571.3,2706.7 L 1515.8,2706.7 L 1515.8,2750.4 L 1544.4,2750.4 L 1544.4,2728.6 M1584.7,2777.3 L 1655.3,2777.3 L 1655.3,2706.7 L 1599.8,2706.7 L 1599.8,2750.4 L 1628.4,2750.4 L 1628.4,2728.6 M1668.7,2777.3 L 1739.3,2777.3 L 1739.3,2706.7 L 1683.8,2706.7 L 1683.8,2750.4 L 1712.4,2750.4 L 1712.4,2728.6 M1752.7,2777.3 L 1823.3,2777.3 L 1823.3,2706.7 L 1767.8,2706.7 L 1767.8,2750.4 L 1796.4,2750.4 L 1796.4,2728.6 M1836.7,2777.3 L 1907.3,2777.3 L 1907.3,2706.7 L 1851.8,2706.7 L 1851.8,2750.4 L 1880.4,2750.4 L 1880.4,2728.6 M1920.7,2777.3 L 1991.3,2777.3 L 1991.3,2706.7 L 1935.8,2706.7 L 1935.8,2750.4 L 1964.4,2750.4 L 1964.4,2728.6 M2004.7,2777.3 L 2075.3,2777.3 L 2075.3,2706.7 L 2019.8,2706.7 L 2019.8,2750.4 L 2048.4,2750.4 L 2048.4,2728.6 " fill="none" stroke="#39685c" stroke-width="10.9"/><rect x="100" y="100" width="2200" height="2800" fill="none" stroke="#39685c" stroke-width="9"/><rect x="142" y="142" width="2116" height="2716" fill="none" stroke="#39685c" stroke-width="3" opacity="0.65"/></svg></svg>