<svg xmlns="http://www.w3.org/2000/svg" width="2400" height="1800" viewBox="0 0 2400 1800"><rect width="2400" height="1800" fill="#dfe4dc"/><rect y="1400" width="2400" height="400" fill="#c2a67e"/><line x1="60" y1="1400" x2="10" y2="1800" stroke="#00000015" stroke-width="5"/><line x1="260" y1="1400" x2="210" y2="1800" stroke="#00000015" stroke-width="5"/><line x1="460" y1="1400" x2="410" y2="1800" stroke="#00000015" stroke-width="5"/><line x1="660" y1="1400" x2="610" y2="1800" stroke="#00000015" stroke-width="5"/><line x1="860" y1="1400" x2="810" y2="1800" stroke="#00000015" stroke-width="5"/><line x1="1060" y1="1400" x2="1010" y2="1800" stroke="#00000015" stroke-width="5"/><line x1="1260" y1="1400" x2="1210" y2="1800" stroke="#00000015" stroke-width="5"/><line x1="1460" y1="1400" x2="1410" y2="1800" stroke="#00000015" stroke-width="5"/><line x1="1660" y1="1400" x2="1610" y2="1800" stroke="#00000015" stroke-width="5"/><line x1="1860" y1="1400" x2="1810" y2="1800" stroke="#00000015" stroke-width="5"/><line x1="2060" y1="1400" x2="2010" y2="1800" stroke="#00000015" stroke-width="5"/><line x1="2260" y1="1400" x2="2210" y2="1800" stroke="#00000015" stroke-width="5"/><rect x="180" y="260" width="900" height="620" fill="#8a6a48"/><rect x="215" y="295" width="830" height="550" fill="#41524a"/><line x1="280" y1="420" x2="760" y2="420" stroke="#ffffff66" stroke-width="9" stroke-linecap="round"/><line x1="280" y1="520" x2="620" y2="520" stroke="#ffffff44" stroke-width="9" stroke-linecap="round"/><circle cx="880" cy="560" r="90" fill="none" stroke="#ffffff55" stroke-width="8"/><rect x="215" y="845" width="830" height="22" fill="#6f5436"/><rect x="330" y="1240" width="640" height="60" rx="10" fill="#9c7449"/><rect x="370" y="1300" width="60" height="240" fill="#8a6540"/><rect x="870" y="1300" width="60" height="240" fill="#8a6540"/><rect x="430" y="1160" width="150" height="80" rx="8" fill="#e0a077"/><rect x="450" y="1120" width="150" height="40" rx="8" fill="#4a2c1c"/><circle cx="800" cy="1130" r="86" fill="#7fa3b8"/><path d="M760,1060 Q820,1100 780,1190 M740,1090 Q800,1120 850,1100" stroke="#5d8069" stroke-width="16" fill="none" stroke-linecap="round"/><circle cx="800" cy="1130" r="86" fill="none" stroke="#6b5233" stroke-width="7"/><line x1="800" y1="1216" x2="800" y2="1250" stroke="#6b5233" stroke-width="10"/><rect x="750" y="1244" width="100" height="14" rx="7" fill="#6b5233"/><rect x="1980" y="700" width="300" height="800" fill="#9c7449"/><rect x="2000" y="930" width="260" height="16" fill="#7c5a37"/><rect x="2020" y="790" width="36" height="140" fill="#b3502f"/><rect x="2066" y="802" width="36" height="128" fill="#39685c"/><rect x="2112" y="790" width="36" height="140" fill="#c9a227"/><rect x="2158" y="802" width="36" height="128" fill="#2c4661"/><rect x="2204" y="790" width="36" height="140" fill="#8a4423"/><rect x="2000" y="1180" width="260" height="16" fill="#7c5a37"/><rect x="2020" y="1040" width="36" height="140" fill="#39685c"/><rect x="2066" y="1052" width="36" height="128" fill="#c9a227"/><rect x="2112" y="1040" width="36" height="140" fill="#2c4661"/><rect x="2158" y="1052" width="36" height="128" fill="#8a4423"/><rect x="2204" y="1040" width="36" height="140" fill="#b3502f"/><rect x="2000" y="1430" width="260" height="16" fill="#7c5a37"/><rect x="2020" y="1290" width="36" height="140" fill="#c9a227"/><rect x="2066" y="1302" width="36" height="128" fill="#2c4661"/><rect x="2112" y="1290" width="36" height="140" fill="#8a4423"/><rect x="2158" y="1302" width="36" height="128" fill="#b3502f"/><rect x="2204" y="1290" width="36" height="140" fill="#39685c"/><defs><filter id="a32c-sh" x="-30%" y="-30%" width="160%" height="160%"><feGaussianBlur stdDeviation="16"/></filter></defs><rect x="1340.5" y="298.5" width="517" height="635" fill="#000" opacity="0.28" filter="url(#a32c-sh)"/><rect x="1326.5" y="276.5" width="517" height="635" fill="#3d342a"/><rect x="1341.8" y="291.8" width="486.4" height="604.5" fill="none" stroke="#00000055" stroke-width="3"/><rect x="1350" y="300" width="470" height="588" fill="#f6f2ea"/><svg x="1385.3" y="335.3" width="399.5" height="517.5" viewBox="0 0 2400 3000" preserveAspectRatio="xMidYMid slice"><rect width="2400" height="3000" fill="#211510"/><radialGradient id="a32-vig" cx="50%" cy="42%" r="80%"><stop offset="55%" stop-color="#000" stop-opacity="0"/><stop offset="100%" stop-color="#000" stop-opacity="0.15"/></radialGradient><rect width="2400" height="3000" fill="url(#a32-vig)"/><circle cx="1734.6" cy="1873.5" r="4.1" fill="#c8703f" opacity="0.046"/><circle cx="638.4" cy="521.7" r="4.3" fill="#c8703f" opacity="0.044"/><circle cx="1875.5" cy="171.8" r="2.8" fill="#c8703f" opacity="0.046"/><circle cx="1172.1" cy="2127.1" r="2.6" fill="#c8703f" opacity="0.070"/><circle cx="1083" cy="1860.1" r="3.5" fill="#c8703f" opacity="0.048"/><circle cx="483.6" cy="115.4" r="2.3" fill="#c8703f" opacity="0.061"/><circle cx="994.8" cy="138.6" r="4.4" fill="#c8703f" opacity="0.077"/><circle cx="1469.2" cy="2194.2" r="2.8" fill="#c8703f" opacity="0.031"/><circle cx="1647.7" cy="1599" r="3.6" fill="#c8703f" opacity="0.050"/><circle cx="1807.3" cy="1178.7" r="3.2" fill="#c8703f" opacity="0.048"/><circle cx="708.1" cy="894.2" r="2.1" fill="#c8703f" opacity="0.036"/><circle cx="1796.3" cy="2824.8" r="4.2" fill="#c8703f" opacity="0.061"/><circle cx="679.5" cy="83.6" r="2.9" fill="#c8703f" opacity="0.053"/><circle cx="1467.8" cy="370.6" r="2.1" fill="#c8703f" opacity="0.040"/><circle cx="488.9" cy="112.1" r="4.5" fill="#c8703f" opacity="0.033"/><circle cx="1842.2" cy="59.1" r="1.8" fill="#c8703f" opacity="0.062"/><circle cx="1821.7" cy="1150.6" r="3.8" fill="#c8703f" opacity="0.061"/><circle cx="1403.1" cy="2154.8" r="3.3" fill="#c8703f" opacity="0.070"/><circle cx="769.5" cy="966.2" r="3.9" fill="#c8703f" opacity="0.067"/><circle cx="353.6" cy="671.9" r="3.1" fill="#c8703f" opacity="0.074"/><circle cx="1617.6" cy="2572.1" r="2.8" fill="#c8703f" opacity="0.048"/><circle cx="203.4" cy="333.1" r="4.3" fill="#c8703f" opacity="0.070"/><circle cx="1438.3" cy="499.6" r="1.9" fill="#c8703f" opacity="0.057"/><circle cx="469.3" cy="92.3" r="3.6" fill="#c8703f" opacity="0.036"/><circle cx="285.9" cy="1382.7" r="3.4" fill="#c8703f" opacity="0.071"/><circle cx="1765.8" cy="2057.3" r="3.3" fill="#c8703f" opacity="0.079"/><circle cx="2177.9" cy="2410.5" r="4.4" fill="#c8703f" opacity="0.065"/><circle cx="41.8" cy="1000.7" r="4" fill="#c8703f" opacity="0.047"/><circle cx="1445.2" cy="2545.2" r="1.8" fill="#c8703f" opacity="0.071"/><circle cx="1169.5" cy="2679.7" r="2.9" fill="#c8703f" opacity="0.052"/><circle cx="1581.9" cy="468.9" r="3.1" fill="#c8703f" opacity="0.040"/><circle cx="1459.8" cy="2049.3" r="1.8" fill="#c8703f" opacity="0.068"/><circle cx="2115.3" cy="2646.8" r="3.9" fill="#c8703f" opacity="0.070"/><circle cx="2119.1" cy="1046.4" r="2.6" fill="#c8703f" opacity="0.032"/><circle cx="1750.5" cy="502.9" r="4.2" fill="#c8703f" opacity="0.054"/><circle cx="385.1" cy="1962.3" r="2.6" fill="#c8703f" opacity="0.045"/><circle cx="1416.4" cy="2358.6" r="2.1" fill="#c8703f" opacity="0.064"/><circle cx="1885.7" cy="2282.9" r="1.8" fill="#c8703f" opacity="0.064"/><circle cx="1337.9" cy="2072" r="3.8" fill="#c8703f" opacity="0.079"/><circle cx="1312.7" cy="2592.8" r="1.5" fill="#c8703f" opacity="0.061"/><circle cx="948" cy="1385.4" r="4.3" fill="#c8703f" opacity="0.079"/><circle cx="1130.8" cy="2596.3" r="2.6" fill="#c8703f" opacity="0.073"/><circle cx="365.6" cy="2033.3" r="2.3" fill="#c8703f" opacity="0.065"/><circle cx="130.6" cy="2785.1" r="3.1" fill="#c8703f" opacity="0.041"/><circle cx="1186.9" cy="1236.5" r="4.5" fill="#c8703f" opacity="0.048"/><circle cx="1473.7" cy="1691.2" r="3.6" fill="#c8703f" opacity="0.036"/><circle cx="2167.7" cy="1785" r="1.6" fill="#c8703f" opacity="0.042"/><circle cx="366.5" cy="236.6" r="3.5" fill="#c8703f" opacity="0.048"/><circle cx="2092.9" cy="290.4" r="3.5" fill="#c8703f" opacity="0.066"/><circle cx="595.1" cy="1804.1" r="3.2" fill="#c8703f" opacity="0.070"/><circle cx="1837.3" cy="1946.7" r="1.6" fill="#c8703f" opacity="0.039"/><circle cx="1339.9" cy="1516.3" r="3.8" fill="#c8703f" opacity="0.070"/><circle cx="1647.2" cy="248.6" r="2.7" fill="#c8703f" opacity="0.048"/><circle cx="1853.1" cy="827.7" r="2.3" fill="#c8703f" opacity="0.076"/><circle cx="1692.9" cy="2693.7" r="3.6" fill="#c8703f" opacity="0.037"/><circle cx="1008.7" cy="1700.9" r="3.1" fill="#c8703f" opacity="0.067"/><circle cx="576.4" cy="1861.1" r="3" fill="#c8703f" opacity="0.035"/><circle cx="680.6" cy="1522" r="2.9" fill="#c8703f" opacity="0.062"/><circle cx="1270.5" cy="1349.5" r="3.7" fill="#c8703f" opacity="0.071"/><circle cx="1189" cy="1627.2" r="3" fill="#c8703f" opacity="0.063"/><circle cx="626.1" cy="2234.5" r="1.6" fill="#c8703f" opacity="0.069"/><circle cx="1157.6" cy="568.8" r="3" fill="#c8703f" opacity="0.031"/><circle cx="137.6" cy="1462.6" r="2.8" fill="#c8703f" opacity="0.063"/><circle cx="2082.1" cy="2261.8" r="2.6" fill="#c8703f" opacity="0.044"/><circle cx="2117.6" cy="1761.6" r="1.6" fill="#c8703f" opacity="0.038"/><circle cx="2186.5" cy="1515.8" r="2" fill="#c8703f" opacity="0.040"/><circle cx="2047.7" cy="1818.1" r="1.8" fill="#c8703f" opacity="0.078"/><circle cx="279.4" cy="2299.4" r="3.4" fill="#c8703f" opacity="0.040"/><circle cx="1850.7" cy="662.2" r="4.3" fill="#c8703f" opacity="0.071"/><circle cx="1882.1" cy="2210.1" r="2.4" fill="#c8703f" opacity="0.056"/><circle cx="591.5" cy="1873.6" r="2.9" fill="#c8703f" opacity="0.032"/><circle cx="219.2" cy="866.3" r="3.3" fill="#c8703f" opacity="0.056"/><circle cx="289.5" cy="2931.2" r="4.3" fill="#c8703f" opacity="0.044"/><circle cx="348.5" cy="439.5" r="3.7" fill="#c8703f" opacity="0.071"/><circle cx="120.4" cy="1317.1" r="3.2" fill="#c8703f" opacity="0.069"/><circle cx="793.2" cy="1731.5" r="1.8" fill="#c8703f" opacity="0.048"/><circle cx="841" cy="2649.3" r="3.8" fill="#c8703f" opacity="0.069"/><circle cx="2035.9" cy="540" r="4.3" fill="#c8703f" opacity="0.054"/><circle cx="1028.4" cy="652" r="2.9" fill="#c8703f" opacity="0.060"/><circle cx="769.2" cy="993.6" r="3.2" fill="#c8703f" opacity="0.044"/><clipPath id="a32-gz"><rect x="150" y="150" width="2100" height="2700"/></clipPath><g clip-path="url(#a32-gz)"><circle cx="1199" cy="931.2" r="385.8" fill="#e0a077"/><path d="M150,2050 C 700,1962.2 1100,2137.8 1600,1997.3 S 2200,2085.1 2250,2030 L2250,2850 L150,2850 Z" fill="#c8703f" opacity="0.35"/><path d="M150,2270 C 700,2192.2 1100,2347.8 1600,2223.3 S 2200,2301.1 2250,2250 L2250,2850 L150,2850 Z" fill="#4a2c1c" opacity="0.9"/><path d="M150,2520 C 700,2398.5 1100,2641.5 1600,2447.1 S 2200,2568.6 2250,2500 L2250,2850 L150,2850 Z" fill="#c8703f" opacity="1"/><polygon points="702.8,1476.2 220,2130 840.2,2130" fill="#c8703f"/><polygon points="702.8,1476.2 840.2,2130 1185.6,2130" fill="#c8703f" opacity="0.6"/><polygon points="1218.3,1448.4 717.8,2130 1303.8,2130" fill="#c8703f"/><polygon points="1218.3,1448.4 1303.8,2130 1718.7,2130" fill="#c8703f" opacity="0.6"/><polygon points="1773.3,1635.3 1366.5,2130 1828.1,2130" fill="#c8703f"/><polygon points="1773.3,1635.3 1828.1,2130 2180,2130" fill="#c8703f" opacity="0.6"/><path d="M879.7,1040.8 q 26,-24 52,0 q 26,-24 52,0" fill="none" stroke="#c8703f" stroke-width="8" stroke-linecap="round"/><path d="M1723,932.9 q 26,-24 52,0 q 26,-24 52,0" fill="none" stroke="#c8703f" stroke-width="8" stroke-linecap="round"/><path d="M534.6,932.1 q 26,-24 52,0 q 26,-24 52,0" fill="none" stroke="#c8703f" stroke-width="8" stroke-linecap="round"/><path d="M1660,1019.9 q 26,-24 52,0 q 26,-24 52,0" fill="none" stroke="#c8703f" stroke-width="8" stroke-linecap="round"/></g><polyline points="240,2800 300,2740 360,2800 420,2740 480,2800 540,2740 600,2800 660,2740 720,2800 780,2740 840,2800 900,2740 960,2800 1020,2740 1080,2800 1140,2740 1200,2800 1260,2740 1320,2800 1380,2740 1440,2800 1500,2740 1560,2800 1620,2740 1680,2800 1740,2740 1800,2800 1860,2740 1920,2800 1980,2740 2040,2800 2100,2740 2160,2800 " fill="none" stroke="#c8703f" stroke-width="10.8" stroke-linejoin="miter"/><rect x="100" y="100" width="2200" height="2800" fill="none" stroke="#c8703f" stroke-width="9"/><rect x="142" y="142" width="2116" height="2716" fill="none" stroke="#c8703f" stroke-width="3" opacity="0.65"/></svg></svg>