<svg xmlns="http://www.w3.org/2000/svg" width="2400" height="1800" viewBox="0 0 2400 1800"><rect width="2400" height="1800" fill="#e3dccd"/><rect x="160" y="240" width="560" height="1060" fill="none" stroke="#cabfa9" stroke-width="10"/><rect x="200" y="280" width="480" height="980" fill="none" stroke="#cabfa9" stroke-width="5"/><rect x="1680" y="240" width="560" height="1060" fill="none" stroke="#cabfa9" stroke-width="10"/><rect x="1720" y="280" width="480" height="980" fill="none" stroke="#cabfa9" stroke-width="5"/><rect y="1380" width="2400" height="420" fill="#a98f6d"/><line x1="0" y1="1380" x2="-70" y2="1800" stroke="#00000018" stroke-width="6"/><line x1="190" y1="1380" x2="120" y2="1800" stroke="#00000018" stroke-width="6"/><line x1="380" y1="1380" x2="310" y2="1800" stroke="#00000018" stroke-width="6"/><line x1="570" y1="1380" x2="500" y2="1800" stroke="#00000018" stroke-width="6"/><line x1="760" y1="1380" x2="690" y2="1800" stroke="#00000018" stroke-width="6"/><line x1="950" y1="1380" x2="880" y2="1800" stroke="#00000018" stroke-width="6"/><line x1="1140" y1="1380" x2="1070" y2="1800" stroke="#00000018" stroke-width="6"/><line x1="1330" y1="1380" x2="1260" y2="1800" stroke="#00000018" stroke-width="6"/><line x1="1520" y1="1380" x2="1450" y2="1800" stroke="#00000018" stroke-width="6"/><line x1="1710" y1="1380" x2="1640" y2="1800" stroke="#00000018" stroke-width="6"/><line x1="1900" y1="1380" x2="1830" y2="1800" stroke="#00000018" stroke-width="6"/><line x1="2090" y1="1380" x2="2020" y2="1800" stroke="#00000018" stroke-width="6"/><line x1="2280" y1="1380" x2="2210" y2="1800" stroke="#00000018" stroke-width="6"/><rect y="1364" width="2400" height="18" fill="#d3c8b2"/><path d="M700,1500 L1700,1500 L1860,1800 L540,1800 Z" fill="#7c5636" opacity="0.75"/><path d="M760,1540 L1640,1540 L1760,1760 L640,1760 Z" fill="none" stroke="#f4ecdd" stroke-width="10" opacity="0.8"/><rect x="880" y="1180" width="640" height="40" rx="8" fill="#6f5436"/><rect x="920" y="1220" width="44" height="240" fill="#5e4629"/><rect x="1436" y="1220" width="44" height="240" fill="#5e4629"/><path d="M1160,1180 q -14,-90 40,-160 M1200,1180 q 4,-120 -10,-200 M1230,1180 q 30,-90 90,-130" stroke="#5d7052" stroke-width="12" fill="none" stroke-linecap="round"/><path d="M1150,1180 L1250,1180 L1230,1080 L1170,1080 Z" fill="#a99878" transform="translate(0,0)"/><path d="M1155,1060 h90 l-12,124 h-66 Z" fill="#b98a5a"/><rect x="1380" y="1120" width="18" height="60" fill="#8f6b3d"/><ellipse cx="1389" cy="1116" rx="16" ry="10" fill="#c9a227"/><defs><filter id="a68h-sh" x="-30%" y="-30%" width="160%" height="160%"><feGaussianBlur stdDeviation="16"/></filter></defs><rect x="950" y="258" width="528" height="648" fill="#000" opacity="0.28" filter="url(#a68h-sh)"/><rect x="936" y="236" width="528" height="648" fill="#33291f"/><rect x="951.6" y="251.6" width="496.8" height="616.8" fill="none" stroke="#00000055" stroke-width="3"/><rect x="960" y="260" width="480" height="600" fill="#f6f2ea"/><svg x="996" y="296" width="408" height="528" viewBox="0 0 2400 3000" preserveAspectRatio="xMidYMid slice"><filter id="a68-warp" x="-4%" y="-4%" width="108%" height="108%"><feTurbulence type="fractalNoise" baseFrequency="0.0105" numOctaves="2" seed="1686" result="w"/><feDisplacementMap in="SourceGraphic" in2="w" scale="7" xChannelSelector="R" yChannelSelector="G"/></filter><filter id="a68-grain" x="0%" y="0%" width="100%" height="100%"><feTurbulence type="fractalNoise" baseFrequency="0.6" numOctaves="2" seed="1693"/><feColorMatrix type="matrix" values="0.33 0.33 0.33 0 0.62  0.33 0.33 0.33 0 0.62  0.33 0.33 0.33 0 0.62  0 0 0 0 1"/></filter><filter id="a68-mottle" x="0%" y="0%" width="100%" height="100%"><feTurbulence type="fractalNoise" baseFrequency="0.0045" numOctaves="3" seed="1699"/><feColorMatrix type="matrix" values="0.2 0.2 0.2 0 0.78  0.2 0.2 0.2 0 0.78  0.2 0.2 0.2 0 0.78  0 0 0 0 1"/></filter><filter id="a68-fade" x="0%" y="0%" width="100%" height="100%"><feTurbulence type="fractalNoise" baseFrequency="0.006" numOctaves="2" seed="1715"/><feColorMatrix type="matrix" values="0.3 0.3 0.3 0 -0.08  0.3 0.3 0.3 0 -0.08  0.3 0.3 0.3 0 -0.1  0 0 0 0 1"/></filter><filter id="a68-blur9"><feGaussianBlur stdDeviation="9"/></filter><radialGradient id="a68-vig" cx="50%" cy="44%" r="78%"><stop offset="52%" stop-color="#241a10" stop-opacity="0"/><stop offset="100%" stop-color="#241a10" stop-opacity="0.17"/></radialGradient><radialGradient id="a68-warm" cx="36%" cy="30%" r="85%"><stop offset="0%" stop-color="#e8c890" stop-opacity="0.14"/><stop offset="70%" stop-color="#e8c890" stop-opacity="0"/></radialGradient><rect width="2400" height="3000" fill="#e5dbc6"/><rect width="2400" height="3000" fill="url(#a68-warm)"/><g filter="url(#a68-warp)"><path d="M1914.4,1780.9 Q1866.3,2061.8 1720.3,2280.9 Q1574.4,2500 1387.2,2541.9 Q1200,2583.8 1016.6,2542.2 Q833.2,2500.6 693.2,2272 Q553.3,2043.4 498.9,1771.7 Q444.4,1500 498.3,1224.7 Q552.3,949.3 691.7,732.2 Q831.1,515 1015.5,448.2 Q1200,381.4 1388.4,465.6 Q1576.8,549.9 1725.9,741.5 Q1875,933.1 1918.8,1216.6 Q1962.6,1500 1914.4,1780.9 Z" fill="#a99878" stroke="#38322a" stroke-width="9"/><clipPath id="a68-tb"><path d="M1843.8,1760 Q1797.6,2020 1671.3,2210.3 Q1545,2400.7 1372.5,2470.3 Q1200,2540 1027.5,2470.3 Q855,2400.7 728.7,2210.3 Q602.4,2020 556.2,1760 Q510,1500 556.2,1240 Q602.4,980 728.7,789.7 Q855,599.3 1027.5,529.7 Q1200,460 1372.5,529.7 Q1545,599.3 1671.3,789.7 Q1797.6,980 1843.8,1240 Q1890,1500 1843.8,1760 Z"/></clipPath><g clip-path="url(#a68-tb)"><line x1="560" y1="560" x2="1840" y2="560" stroke="#38322a" stroke-width="4" opacity="0.35"/><rect x="600" y="621" width="10" height="86.9" fill="#38322a"/><rect x="622" y="621" width="10" height="86.9" fill="#38322a"/><path d="M750.6,610.1 l 17.4,23.9 l -8.7,0 L752.8,718.8 l -8,0 Z" fill="#38322a"/><path d="M880.2,631.9 L912.8,664.4 L880.2,697 l -8,-6 L897.6,664.4 l -26.1,-23.9 Z" fill="#38322a"/><rect x="1028.9" y="621" width="10" height="86.9" fill="#38322a"/><rect x="1050.9" y="621" width="10" height="86.9" fill="#38322a"/><path d="M1153.5,664.4 l 23.9,-15.2 l 0,10.9 l 54.3,0 l 0,8 L1175.2,670.4 Z" fill="#38322a"/><path d="M1283.1,610.1 l 17.4,23.9 l -8.7,0 L1285.3,718.8 l -8,0 Z" fill="#38322a"/><path d="M1428.7,631.9 L1461.3,664.4 L1428.7,697 l -8,-6 L1446.1,664.4 l -26.1,-23.9 Z" fill="#38322a"/><path d="M1567.4,664.4 l 23.9,-15.2 l 0,10.9 l 54.3,0 l 0,8 L1589.1,670.4 Z" fill="#38322a"/><rect x="1700" y="621" width="10" height="86.9" fill="#38322a"/><rect x="1722" y="621" width="10" height="86.9" fill="#38322a"/><line x1="560" y1="768.9" x2="1840" y2="768.9" stroke="#38322a" stroke-width="4" opacity="0.35"/><path d="M600,873.3 l 23.9,-15.2 l 0,10.9 l 54.3,0 l 0,8 L621.7,879.3 Z" fill="#38322a"/><path d="M725.6,873.3 l 23.9,-15.2 l 0,10.9 l 54.3,0 l 0,8 L747.3,879.3 Z" fill="#38322a"/><rect x="874.2" y="829.9" width="10" height="86.9" fill="#38322a"/><rect x="896.2" y="829.9" width="10" height="86.9" fill="#38322a"/><path d="M1001.9,873.3 l 23.9,-15.2 l 0,10.9 l 54.3,0 l 0,8 L1023.6,879.3 Z" fill="#38322a"/><path d="M1124.5,840.7 L1157.1,873.3 L1124.5,905.9 l -8,-6 L1141.9,873.3 l -26.1,-23.9 Z" fill="#38322a"/><rect x="1272.1" y="829.9" width="10" height="86.9" fill="#38322a"/><rect x="1294.1" y="829.9" width="10" height="86.9" fill="#38322a"/><path d="M1416.7,873.3 l 23.9,-15.2 l 0,10.9 l 54.3,0 l 0,8 L1438.5,879.3 Z" fill="#38322a"/><path d="M1541.4,819 l 17.4,23.9 l -8.7,0 L1543.5,927.6 l -8,0 Z" fill="#38322a"/><path d="M1667,873.3 l 23.9,-15.2 l 0,10.9 l 54.3,0 l 0,8 L1688.7,879.3 Z" fill="#38322a"/><line x1="560" y1="977.8" x2="1840" y2="977.8" stroke="#38322a" stroke-width="4" opacity="0.35"/><path d="M600,1082.2 l 23.9,-15.2 l 0,10.9 l 54.3,0 l 0,8 L621.7,1088.2 Z" fill="#38322a"/><path d="M746.6,1082.2 l 23.9,-15.2 l 0,10.9 l 54.3,0 l 0,8 L768.3,1088.2 Z" fill="#38322a"/><path d="M897.2,1049.6 L929.8,1082.2 L897.2,1114.8 l -8,-6 L914.6,1082.2 l -26.1,-23.9 Z" fill="#38322a"/><path d="M1038.9,1082.2 l 23.9,-15.2 l 0,10.9 l 54.3,0 l 0,8 L1060.6,1088.2 Z" fill="#38322a"/><rect x="1180.5" y="1038.8" width="10" height="86.9" fill="#38322a"/><rect x="1202.5" y="1038.8" width="10" height="86.9" fill="#38322a"/><path d="M1328.1,1049.6 L1360.7,1082.2 L1328.1,1114.8 l -8,-6 L1345.5,1082.2 l -26.1,-23.9 Z" fill="#38322a"/><path d="M1463.7,1082.2 l 23.9,-15.2 l 0,10.9 l 54.3,0 l 0,8 L1485.5,1088.2 Z" fill="#38322a"/><path d="M1598.4,1049.6 L1630.9,1082.2 L1598.4,1114.8 l -8,-6 L1615.7,1082.2 l -26.1,-23.9 Z" fill="#38322a"/><path d="M1730,1027.9 l 17.4,23.9 l -8.7,0 L1732.2,1136.5 l -8,0 Z" fill="#38322a"/><line x1="560" y1="1186.7" x2="1840" y2="1186.7" stroke="#38322a" stroke-width="4" opacity="0.35"/><rect x="600" y="1247.7" width="10" height="86.9" fill="#38322a"/><rect x="622" y="1247.7" width="10" height="86.9" fill="#38322a"/><path d="M752.6,1236.8 l 17.4,23.9 l -8.7,0 L754.8,1345.4 l -8,0 Z" fill="#38322a"/><path d="M903.2,1258.5 L935.8,1291.1 L903.2,1323.7 l -8,-6 L920.6,1291.1 l -26.1,-23.9 Z" fill="#38322a"/><rect x="1046.9" y="1247.7" width="10" height="86.9" fill="#38322a"/><rect x="1068.9" y="1247.7" width="10" height="86.9" fill="#38322a"/><path d="M1193.5,1258.5 L1226.1,1291.1 L1193.5,1323.7 l -8,-6 L1210.9,1291.1 l -26.1,-23.9 Z" fill="#38322a"/><path d="M1319.1,1236.8 l 17.4,23.9 l -8.7,0 L1321.3,1345.4 l -8,0 Z" fill="#38322a"/><path d="M1456.7,1258.5 L1489.3,1291.1 L1456.7,1323.7 l -8,-6 L1474.1,1291.1 l -26.1,-23.9 Z" fill="#38322a"/><path d="M1603.4,1291.1 l 23.9,-15.2 l 0,10.9 l 54.3,0 l 0,8 L1625.1,1297.1 Z" fill="#38322a"/><path d="M1727,1291.1 l 23.9,-15.2 l 0,10.9 l 54.3,0 l 0,8 L1748.7,1297.1 Z" fill="#38322a"/><line x1="560" y1="1395.6" x2="1840" y2="1395.6" stroke="#38322a" stroke-width="4" opacity="0.35"/><path d="M600,1445.7 l 17.4,23.9 l -8.7,0 L602.2,1554.3 l -8,0 Z" fill="#38322a"/><rect x="749.6" y="1456.6" width="10" height="86.9" fill="#38322a"/><rect x="771.6" y="1456.6" width="10" height="86.9" fill="#38322a"/><path d="M876.2,1500 l 23.9,-15.2 l 0,10.9 l 54.3,0 l 0,8 L898,1506 Z" fill="#38322a"/><path d="M1024.9,1445.7 l 17.4,23.9 l -8.7,0 L1027,1554.3 l -8,0 Z" fill="#38322a"/><path d="M1156.5,1445.7 l 17.4,23.9 l -8.7,0 L1158.7,1554.3 l -8,0 Z" fill="#38322a"/><rect x="1306.1" y="1456.6" width="10" height="86.9" fill="#38322a"/><rect x="1328.1" y="1456.6" width="10" height="86.9" fill="#38322a"/><rect x="1456.7" y="1456.6" width="10" height="86.9" fill="#38322a"/><rect x="1478.7" y="1456.6" width="10" height="86.9" fill="#38322a"/><rect x="1581.4" y="1456.6" width="10" height="86.9" fill="#38322a"/><rect x="1603.4" y="1456.6" width="10" height="86.9" fill="#38322a"/><rect x="1714" y="1456.6" width="10" height="86.9" fill="#38322a"/><rect x="1736" y="1456.6" width="10" height="86.9" fill="#38322a"/><line x1="560" y1="1604.4" x2="1840" y2="1604.4" stroke="#38322a" stroke-width="4" opacity="0.35"/><path d="M600,1676.3 L632.6,1708.9 L600,1741.5 l -8,-6 L617.4,1708.9 l -26.1,-23.9 Z" fill="#38322a"/><path d="M731.6,1654.6 l 17.4,23.9 l -8.7,0 L733.8,1763.2 l -8,0 Z" fill="#38322a"/><rect x="881.2" y="1665.4" width="10" height="86.9" fill="#38322a"/><rect x="903.2" y="1665.4" width="10" height="86.9" fill="#38322a"/><path d="M1014.9,1676.3 L1047.5,1708.9 L1014.9,1741.5 l -8,-6 L1032.2,1708.9 l -26.1,-23.9 Z" fill="#38322a"/><path d="M1153.5,1676.3 L1186.1,1708.9 L1153.5,1741.5 l -8,-6 L1170.9,1708.9 l -26.1,-23.9 Z" fill="#38322a"/><rect x="1298.1" y="1665.4" width="10" height="86.9" fill="#38322a"/><rect x="1320.1" y="1665.4" width="10" height="86.9" fill="#38322a"/><path d="M1448.7,1654.6 l 17.4,23.9 l -8.7,0 L1450.9,1763.2 l -8,0 Z" fill="#38322a"/><path d="M1595.4,1708.9 l 23.9,-15.2 l 0,10.9 l 54.3,0 l 0,8 L1617.1,1714.9 Z" fill="#38322a"/><path d="M1744,1708.9 l 23.9,-15.2 l 0,10.9 l 54.3,0 l 0,8 L1765.7,1714.9 Z" fill="#38322a"/><line x1="560" y1="1813.3" x2="1840" y2="1813.3" stroke="#38322a" stroke-width="4" opacity="0.35"/><path d="M600,1863.5 l 17.4,23.9 l -8.7,0 L602.2,1972.1 l -8,0 Z" fill="#38322a"/><path d="M746.6,1885.2 L779.2,1917.8 L746.6,1950.4 l -8,-6 L764,1917.8 l -26.1,-23.9 Z" fill="#38322a"/><rect x="890.2" y="1874.3" width="10" height="86.9" fill="#38322a"/><rect x="912.2" y="1874.3" width="10" height="86.9" fill="#38322a"/><path d="M1036.9,1863.5 l 17.4,23.9 l -8.7,0 L1039,1972.1 l -8,0 Z" fill="#38322a"/><rect x="1179.5" y="1874.3" width="10" height="86.9" fill="#38322a"/><rect x="1201.5" y="1874.3" width="10" height="86.9" fill="#38322a"/><path d="M1303.1,1863.5 l 17.4,23.9 l -8.7,0 L1305.3,1972.1 l -8,0 Z" fill="#38322a"/><rect x="1442.7" y="1874.3" width="10" height="86.9" fill="#38322a"/><rect x="1464.7" y="1874.3" width="10" height="86.9" fill="#38322a"/><path d="M1583.4,1885.2 L1615.9,1917.8 L1583.4,1950.4 l -8,-6 L1600.7,1917.8 l -26.1,-23.9 Z" fill="#38322a"/><rect x="1723" y="1874.3" width="10" height="86.9" fill="#38322a"/><rect x="1745" y="1874.3" width="10" height="86.9" fill="#38322a"/><line x1="560" y1="2022.2" x2="1840" y2="2022.2" stroke="#38322a" stroke-width="4" opacity="0.35"/><path d="M600,2094.1 L632.6,2126.7 L600,2159.3 l -8,-6 L617.4,2126.7 l -26.1,-23.9 Z" fill="#38322a"/><rect x="728.6" y="2083.2" width="10" height="86.9" fill="#38322a"/><rect x="750.6" y="2083.2" width="10" height="86.9" fill="#38322a"/><path d="M865.2,2094.1 L897.8,2126.7 L865.2,2159.3 l -8,-6 L882.6,2126.7 l -26.1,-23.9 Z" fill="#38322a"/><path d="M1008.9,2072.4 l 17.4,23.9 l -8.7,0 L1011,2181 l -8,0 Z" fill="#38322a"/><path d="M1138.5,2126.7 l 23.9,-15.2 l 0,10.9 l 54.3,0 l 0,8 L1160.2,2132.7 Z" fill="#38322a"/><path d="M1288.1,2126.7 l 23.9,-15.2 l 0,10.9 l 54.3,0 l 0,8 L1309.8,2132.7 Z" fill="#38322a"/><rect x="1436.7" y="2083.2" width="10" height="86.9" fill="#38322a"/><rect x="1458.7" y="2083.2" width="10" height="86.9" fill="#38322a"/><path d="M1564.4,2094.1 L1596.9,2126.7 L1564.4,2159.3 l -8,-6 L1581.7,2126.7 l -26.1,-23.9 Z" fill="#38322a"/><rect x="1700" y="2083.2" width="10" height="86.9" fill="#38322a"/><rect x="1722" y="2083.2" width="10" height="86.9" fill="#38322a"/><line x1="560" y1="2231.1" x2="1840" y2="2231.1" stroke="#38322a" stroke-width="4" opacity="0.35"/><path d="M600,2335.6 l 23.9,-15.2 l 0,10.9 l 54.3,0 l 0,8 L621.7,2341.6 Z" fill="#38322a"/><path d="M737.6,2281.2 l 17.4,23.9 l -8.7,0 L739.8,2389.9 l -8,0 Z" fill="#38322a"/><path d="M880.2,2303 L912.8,2335.6 L880.2,2368.1 l -8,-6 L897.6,2335.6 l -26.1,-23.9 Z" fill="#38322a"/><rect x="1032.9" y="2292.1" width="10" height="86.9" fill="#38322a"/><rect x="1054.9" y="2292.1" width="10" height="86.9" fill="#38322a"/><rect x="1182.5" y="2292.1" width="10" height="86.9" fill="#38322a"/><rect x="1204.5" y="2292.1" width="10" height="86.9" fill="#38322a"/><path d="M1321.1,2303 L1353.7,2335.6 L1321.1,2368.1 l -8,-6 L1338.5,2335.6 l -26.1,-23.9 Z" fill="#38322a"/><path d="M1469.7,2335.6 l 23.9,-15.2 l 0,10.9 l 54.3,0 l 0,8 L1491.5,2341.6 Z" fill="#38322a"/><path d="M1618.4,2303 L1650.9,2335.6 L1618.4,2368.1 l -8,-6 L1635.7,2335.6 l -26.1,-23.9 Z" fill="#38322a"/><path d="M1751,2303 L1783.6,2335.6 L1751,2368.1 l -8,-6 L1768.4,2335.6 l -26.1,-23.9 Z" fill="#38322a"/></g><rect x="130" y="130" width="2140" height="2740" fill="none" stroke="#38322a" stroke-width="5"/><rect x="152" y="152" width="2096" height="2696" fill="none" stroke="#38322a" stroke-width="2.5" opacity="0.8"/></g><rect width="2400" height="3000" filter="url(#a68-mottle)" style="mix-blend-mode:multiply" opacity="0.5"/><rect width="2400" height="3000" filter="url(#a68-fade)" style="mix-blend-mode:screen" opacity="0.55"/><rect width="2400" height="3000" filter="url(#a68-grain)" style="mix-blend-mode:multiply" opacity="0.32"/><ellipse cx="824.9" cy="1703.6" rx="243.9" ry="145.7" fill="#6b4a22" opacity="0.031" filter="url(#a68-blur9)"/><ellipse cx="1557.8" cy="572.6" rx="144.5" ry="109.2" fill="#6b4a22" opacity="0.037" filter="url(#a68-blur9)"/><ellipse cx="1677.2" cy="2787.4" rx="225" ry="241.9" fill="#6b4a22" opacity="0.063" filter="url(#a68-blur9)"/><ellipse cx="435.3" cy="2672.3" rx="93.1" ry="94.4" fill="#6b4a22" opacity="0.025" filter="url(#a68-blur9)"/><g opacity="0.3"><rect y="3" width="2400" height="2" fill="#e5dbc6"/><rect y="11" width="2400" height="2" fill="#e5dbc6"/><rect y="19" width="2400" height="2" fill="#e5dbc6"/><rect y="27" width="2400" height="2" fill="#e5dbc6"/><rect y="35" width="2400" height="2" fill="#e5dbc6"/><rect y="43" width="2400" height="2" fill="#e5dbc6"/><rect y="51" width="2400" height="2" fill="#e5dbc6"/><rect y="59" width="2400" height="2" fill="#e5dbc6"/><rect y="67" width="2400" height="2" fill="#e5dbc6"/><rect y="75" width="2400" height="2" fill="#e5dbc6"/><rect y="83" width="2400" height="2" fill="#e5dbc6"/><rect y="91" width="2400" height="2" fill="#e5dbc6"/><rect y="99" width="2400" height="2" fill="#e5dbc6"/><rect y="107" width="2400" height="2" fill="#e5dbc6"/><rect y="115" width="2400" height="2" fill="#e5dbc6"/><rect y="123" width="2400" height="2" fill="#e5dbc6"/><rect y="131" width="2400" height="2" fill="#e5dbc6"/><rect y="139" width="2400" height="2" fill="#e5dbc6"/><rect y="147" width="2400" height="2" fill="#e5dbc6"/><rect y="155" width="2400" height="2" fill="#e5dbc6"/><rect y="163" width="2400" height="2" fill="#e5dbc6"/><rect y="171" width="2400" height="2" fill="#e5dbc6"/><rect y="179" width="2400" height="2" fill="#e5dbc6"/><rect y="187" width="2400" height="2" fill="#e5dbc6"/><rect y="195" width="2400" height="2" fill="#e5dbc6"/><rect y="203" width="2400" height="2" fill="#e5dbc6"/><rect y="211" width="2400" height="2" fill="#e5dbc6"/><rect y="219" width="2400" height="2" fill="#e5dbc6"/><rect y="227" width="2400" height="2" fill="#e5dbc6"/><rect y="235" width="2400" height="2" fill="#e5dbc6"/><rect y="243" width="2400" height="2" fill="#e5dbc6"/><rect y="251" width="2400" height="2" fill="#e5dbc6"/><rect y="259" width="2400" height="2" fill="#e5dbc6"/><rect y="267" width="2400" height="2" fill="#e5dbc6"/><rect y="275" width="2400" height="2" fill="#e5dbc6"/><rect y="283" width="2400" height="2" fill="#e5dbc6"/><rect y="291" width="2400" height="2" fill="#e5dbc6"/><rect y="299" width="2400" height="2" fill="#e5dbc6"/><rect y="307" width="2400" height="2" fill="#e5dbc6"/><rect y="315" width="2400" height="2" fill="#e5dbc6"/><rect y="323" width="2400" height="2" fill="#e5dbc6"/><rect y="331" width="2400" height="2" fill="#e5dbc6"/><rect y="339" width="2400" height="2" fill="#e5dbc6"/><rect y="347" width="2400" height="2" fill="#e5dbc6"/><rect y="355" width="2400" height="2" fill="#e5dbc6"/><rect y="363" width="2400" height="2" fill="#e5dbc6"/><rect y="371" width="2400" height="2" fill="#e5dbc6"/><rect y="379" width="2400" height="2" fill="#e5dbc6"/><rect y="387" width="2400" height="2" fill="#e5dbc6"/><rect y="395" width="2400" height="2" fill="#e5dbc6"/><rect y="403" width="2400" height="2" fill="#e5dbc6"/><rect y="411" width="2400" height="2" fill="#e5dbc6"/><rect y="419" width="2400" height="2" fill="#e5dbc6"/><rect y="427" width="2400" height="2" fill="#e5dbc6"/><rect y="435" width="2400" height="2" fill="#e5dbc6"/><rect y="443" width="2400" height="2" fill="#e5dbc6"/><rect y="451" width="2400" height="2" fill="#e5dbc6"/><rect y="459" width="2400" height="2" fill="#e5dbc6"/><rect y="467" width="2400" height="2" fill="#e5dbc6"/><rect y="475" width="2400" height="2" fill="#e5dbc6"/><rect y="483" width="2400" height="2" fill="#e5dbc6"/><rect y="491" width="2400" height="2" fill="#e5dbc6"/><rect y="499" width="2400" height="2" fill="#e5dbc6"/><rect y="507" width="2400" height="2" fill="#e5dbc6"/><rect y="515" width="2400" height="2" fill="#e5dbc6"/><rect y="523" width="2400" height="2" fill="#e5dbc6"/><rect y="531" width="2400" height="2" fill="#e5dbc6"/><rect y="539" width="2400" height="2" fill="#e5dbc6"/><rect y="547" width="2400" height="2" fill="#e5dbc6"/><rect y="555" width="2400" height="2" fill="#e5dbc6"/><rect y="563" width="2400" height="2" fill="#e5dbc6"/><rect y="571" width="2400" height="2" fill="#e5dbc6"/><rect y="579" width="2400" height="2" fill="#e5dbc6"/><rect y="587" width="2400" height="2" fill="#e5dbc6"/><rect y="595" width="2400" height="2" fill="#e5dbc6"/><rect y="603" width="2400" height="2" fill="#e5dbc6"/><rect y="611" width="2400" height="2" fill="#e5dbc6"/><rect y="619" width="2400" height="2" fill="#e5dbc6"/><rect y="627" width="2400" height="2" fill="#e5dbc6"/><rect y="635" width="2400" height="2" fill="#e5dbc6"/><rect y="643" width="2400" height="2" fill="#e5dbc6"/><rect y="651" width="2400" height="2" fill="#e5dbc6"/><rect y="659" width="2400" height="2" fill="#e5dbc6"/><rect y="667" width="2400" height="2" fill="#e5dbc6"/><rect y="675" width="2400" height="2" fill="#e5dbc6"/><rect y="683" width="2400" height="2" fill="#e5dbc6"/><rect y="691" width="2400" height="2" fill="#e5dbc6"/><rect y="699" width="2400" height="2" fill="#e5dbc6"/><rect y="707" width="2400" height="2" fill="#e5dbc6"/><rect y="715" width="2400" height="2" fill="#e5dbc6"/><rect y="723" width="2400" height="2" fill="#e5dbc6"/><rect y="731" width="2400" height="2" fill="#e5dbc6"/><rect y="739" width="2400" height="2" fill="#e5dbc6"/><rect y="747" width="2400" height="2" fill="#e5dbc6"/><rect y="755" width="2400" height="2" fill="#e5dbc6"/><rect y="763" width="2400" height="2" fill="#e5dbc6"/><rect y="771" width="2400" height="2" fill="#e5dbc6"/><rect y="779" width="2400" height="2" fill="#e5dbc6"/><rect y="787" width="2400" height="2" fill="#e5dbc6"/><rect y="795" width="2400" height="2" fill="#e5dbc6"/><rect y="803" width="2400" height="2" fill="#e5dbc6"/><rect y="811" width="2400" height="2" fill="#e5dbc6"/><rect y="819" width="2400" height="2" fill="#e5dbc6"/><rect y="827" width="2400" height="2" fill="#e5dbc6"/><rect y="835" width="2400" height="2" fill="#e5dbc6"/><rect y="843" width="2400" height="2" fill="#e5dbc6"/><rect y="851" width="2400" height="2" fill="#e5dbc6"/><rect y="859" width="2400" height="2" fill="#e5dbc6"/><rect y="867" width="2400" height="2" fill="#e5dbc6"/><rect y="875" width="2400" height="2" fill="#e5dbc6"/><rect y="883" width="2400" height="2" fill="#e5dbc6"/><rect y="891" width="2400" height="2" fill="#e5dbc6"/><rect y="899" width="2400" height="2" fill="#e5dbc6"/><rect y="907" width="2400" height="2" fill="#e5dbc6"/><rect y="915" width="2400" height="2" fill="#e5dbc6"/><rect y="923" width="2400" height="2" fill="#e5dbc6"/><rect y="931" width="2400" height="2" fill="#e5dbc6"/><rect y="939" width="2400" height="2" fill="#e5dbc6"/><rect y="947" width="2400" height="2" fill="#e5dbc6"/><rect y="955" width="2400" height="2" fill="#e5dbc6"/><rect y="963" width="2400" height="2" fill="#e5dbc6"/><rect y="971" width="2400" height="2" fill="#e5dbc6"/><rect y="979" width="2400" height="2" fill="#e5dbc6"/><rect y="987" width="2400" height="2" fill="#e5dbc6"/><rect y="995" width="2400" height="2" fill="#e5dbc6"/><rect y="1003" width="2400" height="2" fill="#e5dbc6"/><rect y="1011" width="2400" height="2" fill="#e5dbc6"/><rect y="1019" width="2400" height="2" fill="#e5dbc6"/><rect y="1027" width="2400" height="2" fill="#e5dbc6"/><rect y="1035" width="2400" height="2" fill="#e5dbc6"/><rect y="1043" width="2400" height="2" fill="#e5dbc6"/><rect y="1051" width="2400" height="2" fill="#e5dbc6"/><rect y="1059" width="2400" height="2" fill="#e5dbc6"/><rect y="1067" width="2400" height="2" fill="#e5dbc6"/><rect y="1075" width="2400" height="2" fill="#e5dbc6"/><rect y="1083" width="2400" height="2" fill="#e5dbc6"/><rect y="1091" width="2400" height="2" fill="#e5dbc6"/><rect y="1099" width="2400" height="2" fill="#e5dbc6"/><rect y="1107" width="2400" height="2" fill="#e5dbc6"/><rect y="1115" width="2400" height="2" fill="#e5dbc6"/><rect y="1123" width="2400" height="2" fill="#e5dbc6"/><rect y="1131" width="2400" height="2" fill="#e5dbc6"/><rect y="1139" width="2400" height="2" fill="#e5dbc6"/><rect y="1147" width="2400" height="2" fill="#e5dbc6"/><rect y="1155" width="2400" height="2" fill="#e5dbc6"/><rect y="1163" width="2400" height="2" fill="#e5dbc6"/><rect y="1171" width="2400" height="2" fill="#e5dbc6"/><rect y="1179" width="2400" height="2" fill="#e5dbc6"/><rect y="1187" width="2400" height="2" fill="#e5dbc6"/><rect y="1195" width="2400" height="2" fill="#e5dbc6"/><rect y="1203" width="2400" height="2" fill="#e5dbc6"/><rect y="1211" width="2400" height="2" fill="#e5dbc6"/><rect y="1219" width="2400" height="2" fill="#e5dbc6"/><rect y="1227" width="2400" height="2" fill="#e5dbc6"/><rect y="1235" width="2400" height="2" fill="#e5dbc6"/><rect y="1243" width="2400" height="2" fill="#e5dbc6"/><rect y="1251" width="2400" height="2" fill="#e5dbc6"/><rect y="1259" width="2400" height="2" fill="#e5dbc6"/><rect y="1267" width="2400" height="2" fill="#e5dbc6"/><rect y="1275" width="2400" height="2" fill="#e5dbc6"/><rect y="1283" width="2400" height="2" fill="#e5dbc6"/><rect y="1291" width="2400" height="2" fill="#e5dbc6"/><rect y="1299" width="2400" height="2" fill="#e5dbc6"/><rect y="1307" width="2400" height="2" fill="#e5dbc6"/><rect y="1315" width="2400" height="2" fill="#e5dbc6"/><rect y="1323" width="2400" height="2" fill="#e5dbc6"/><rect y="1331" width="2400" height="2" fill="#e5dbc6"/><rect y="1339" width="2400" height="2" fill="#e5dbc6"/><rect y="1347" width="2400" height="2" fill="#e5dbc6"/><rect y="1355" width="2400" height="2" fill="#e5dbc6"/><rect y="1363" width="2400" height="2" fill="#e5dbc6"/><rect y="1371" width="2400" height="2" fill="#e5dbc6"/><rect y="1379" width="2400" height="2" fill="#e5dbc6"/><rect y="1387" width="2400" height="2" fill="#e5dbc6"/><rect y="1395" width="2400" height="2" fill="#e5dbc6"/><rect y="1403" width="2400" height="2" fill="#e5dbc6"/><rect y="1411" width="2400" height="2" fill="#e5dbc6"/><rect y="1419" width="2400" height="2" fill="#e5dbc6"/><rect y="1427" width="2400" height="2" fill="#e5dbc6"/><rect y="1435" width="2400" height="2" fill="#e5dbc6"/><rect y="1443" width="2400" height="2" fill="#e5dbc6"/><rect y="1451" width="2400" height="2" fill="#e5dbc6"/><rect y="1459" width="2400" height="2" fill="#e5dbc6"/><rect y="1467" width="2400" height="2" fill="#e5dbc6"/><rect y="1475" width="2400" height="2" fill="#e5dbc6"/><rect y="1483" width="2400" height="2" fill="#e5dbc6"/><rect y="1491" width="2400" height="2" fill="#e5dbc6"/><rect y="1499" width="2400" height="2" fill="#e5dbc6"/><rect y="1507" width="2400" height="2" fill="#e5dbc6"/><rect y="1515" width="2400" height="2" fill="#e5dbc6"/><rect y="1523" width="2400" height="2" fill="#e5dbc6"/><rect y="1531" width="2400" height="2" fill="#e5dbc6"/><rect y="1539" width="2400" height="2" fill="#e5dbc6"/><rect y="1547" width="2400" height="2" fill="#e5dbc6"/><rect y="1555" width="2400" height="2" fill="#e5dbc6"/><rect y="1563" width="2400" height="2" fill="#e5dbc6"/><rect y="1571" width="2400" height="2" fill="#e5dbc6"/><rect y="1579" width="2400" height="2" fill="#e5dbc6"/><rect y="1587" width="2400" height="2" fill="#e5dbc6"/><rect y="1595" width="2400" height="2" fill="#e5dbc6"/><rect y="1603" width="2400" height="2" fill="#e5dbc6"/><rect y="1611" width="2400" height="2" fill="#e5dbc6"/><rect y="1619" width="2400" height="2" fill="#e5dbc6"/><rect y="1627" width="2400" height="2" fill="#e5dbc6"/><rect y="1635" width="2400" height="2" fill="#e5dbc6"/><rect y="1643" width="2400" height="2" fill="#e5dbc6"/><rect y="1651" width="2400" height="2" fill="#e5dbc6"/><rect y="1659" width="2400" height="2" fill="#e5dbc6"/><rect y="1667" width="2400" height="2" fill="#e5dbc6"/><rect y="1675" width="2400" height="2" fill="#e5dbc6"/><rect y="1683" width="2400" height="2" fill="#e5dbc6"/><rect y="1691" width="2400" height="2" fill="#e5dbc6"/><rect y="1699" width="2400" height="2" fill="#e5dbc6"/><rect y="1707" width="2400" height="2" fill="#e5dbc6"/><rect y="1715" width="2400" height="2" fill="#e5dbc6"/><rect y="1723" width="2400" height="2" fill="#e5dbc6"/><rect y="1731" width="2400" height="2" fill="#e5dbc6"/><rect y="1739" width="2400" height="2" fill="#e5dbc6"/><rect y="1747" width="2400" height="2" fill="#e5dbc6"/><rect y="1755" width="2400" height="2" fill="#e5dbc6"/><rect y="1763" width="2400" height="2" fill="#e5dbc6"/><rect y="1771" width="2400" height="2" fill="#e5dbc6"/><rect y="1779" width="2400" height="2" fill="#e5dbc6"/><rect y="1787" width="2400" height="2" fill="#e5dbc6"/><rect y="1795" width="2400" height="2" fill="#e5dbc6"/><rect y="1803" width="2400" height="2" fill="#e5dbc6"/><rect y="1811" width="2400" height="2" fill="#e5dbc6"/><rect y="1819" width="2400" height="2" fill="#e5dbc6"/><rect y="1827" width="2400" height="2" fill="#e5dbc6"/><rect y="1835" width="2400" height="2" fill="#e5dbc6"/><rect y="1843" width="2400" height="2" fill="#e5dbc6"/><rect y="1851" width="2400" height="2" fill="#e5dbc6"/><rect y="1859" width="2400" height="2" fill="#e5dbc6"/><rect y="1867" width="2400" height="2" fill="#e5dbc6"/><rect y="1875" width="2400" height="2" fill="#e5dbc6"/><rect y="1883" width="2400" height="2" fill="#e5dbc6"/><rect y="1891" width="2400" height="2" fill="#e5dbc6"/><rect y="1899" width="2400" height="2" fill="#e5dbc6"/><rect y="1907" width="2400" height="2" fill="#e5dbc6"/><rect y="1915" width="2400" height="2" fill="#e5dbc6"/><rect y="1923" width="2400" height="2" fill="#e5dbc6"/><rect y="1931" width="2400" height="2" fill="#e5dbc6"/><rect y="1939" width="2400" height="2" fill="#e5dbc6"/><rect y="1947" width="2400" height="2" fill="#e5dbc6"/><rect y="1955" width="2400" height="2" fill="#e5dbc6"/><rect y="1963" width="2400" height="2" fill="#e5dbc6"/><rect y="1971" width="2400" height="2" fill="#e5dbc6"/><rect y="1979" width="2400" height="2" fill="#e5dbc6"/><rect y="1987" width="2400" height="2" fill="#e5dbc6"/><rect y="1995" width="2400" height="2" fill="#e5dbc6"/><rect y="2003" width="2400" height="2" fill="#e5dbc6"/><rect y="2011" width="2400" height="2" fill="#e5dbc6"/><rect y="2019" width="2400" height="2" fill="#e5dbc6"/><rect y="2027" width="2400" height="2" fill="#e5dbc6"/><rect y="2035" width="2400" height="2" fill="#e5dbc6"/><rect y="2043" width="2400" height="2" fill="#e5dbc6"/><rect y="2051" width="2400" height="2" fill="#e5dbc6"/><rect y="2059" width="2400" height="2" fill="#e5dbc6"/><rect y="2067" width="2400" height="2" fill="#e5dbc6"/><rect y="2075" width="2400" height="2" fill="#e5dbc6"/><rect y="2083" width="2400" height="2" fill="#e5dbc6"/><rect y="2091" width="2400" height="2" fill="#e5dbc6"/><rect y="2099" width="2400" height="2" fill="#e5dbc6"/><rect y="2107" width="2400" height="2" fill="#e5dbc6"/><rect y="2115" width="2400" height="2" fill="#e5dbc6"/><rect y="2123" width="2400" height="2" fill="#e5dbc6"/><rect y="2131" width="2400" height="2" fill="#e5dbc6"/><rect y="2139" width="2400" height="2" fill="#e5dbc6"/><rect y="2147" width="2400" height="2" fill="#e5dbc6"/><rect y="2155" width="2400" height="2" fill="#e5dbc6"/><rect y="2163" width="2400" height="2" fill="#e5dbc6"/><rect y="2171" width="2400" height="2" fill="#e5dbc6"/><rect y="2179" width="2400" height="2" fill="#e5dbc6"/><rect y="2187" width="2400" height="2" fill="#e5dbc6"/><rect y="2195" width="2400" height="2" fill="#e5dbc6"/><rect y="2203" width="2400" height="2" fill="#e5dbc6"/><rect y="2211" width="2400" height="2" fill="#e5dbc6"/><rect y="2219" width="2400" height="2" fill="#e5dbc6"/><rect y="2227" width="2400" height="2" fill="#e5dbc6"/><rect y="2235" width="2400" height="2" fill="#e5dbc6"/><rect y="2243" width="2400" height="2" fill="#e5dbc6"/><rect y="2251" width="2400" height="2" fill="#e5dbc6"/><rect y="2259" width="2400" height="2" fill="#e5dbc6"/><rect y="2267" width="2400" height="2" fill="#e5dbc6"/><rect y="2275" width="2400" height="2" fill="#e5dbc6"/><rect y="2283" width="2400" height="2" fill="#e5dbc6"/><rect y="2291" width="2400" height="2" fill="#e5dbc6"/><rect y="2299" width="2400" height="2" fill="#e5dbc6"/><rect y="2307" width="2400" height="2" fill="#e5dbc6"/><rect y="2315" width="2400" height="2" fill="#e5dbc6"/><rect y="2323" width="2400" height="2" fill="#e5dbc6"/><rect y="2331" width="2400" height="2" fill="#e5dbc6"/><rect y="2339" width="2400" height="2" fill="#e5dbc6"/><rect y="2347" width="2400" height="2" fill="#e5dbc6"/><rect y="2355" width="2400" height="2" fill="#e5dbc6"/><rect y="2363" width="2400" height="2" fill="#e5dbc6"/><rect y="2371" width="2400" height="2" fill="#e5dbc6"/><rect y="2379" width="2400" height="2" fill="#e5dbc6"/><rect y="2387" width="2400" height="2" fill="#e5dbc6"/><rect y="2395" width="2400" height="2" fill="#e5dbc6"/><rect y="2403" width="2400" height="2" fill="#e5dbc6"/><rect y="2411" width="2400" height="2" fill="#e5dbc6"/><rect y="2419" width="2400" height="2" fill="#e5dbc6"/><rect y="2427" width="2400" height="2" fill="#e5dbc6"/><rect y="2435" width="2400" height="2" fill="#e5dbc6"/><rect y="2443" width="2400" height="2" fill="#e5dbc6"/><rect y="2451" width="2400" height="2" fill="#e5dbc6"/><rect y="2459" width="2400" height="2" fill="#e5dbc6"/><rect y="2467" width="2400" height="2" fill="#e5dbc6"/><rect y="2475" width="2400" height="2" fill="#e5dbc6"/><rect y="2483" width="2400" height="2" fill="#e5dbc6"/><rect y="2491" width="2400" height="2" fill="#e5dbc6"/><rect y="2499" width="2400" height="2" fill="#e5dbc6"/><rect y="2507" width="2400" height="2" fill="#e5dbc6"/><rect y="2515" width="2400" height="2" fill="#e5dbc6"/><rect y="2523" width="2400" height="2" fill="#e5dbc6"/><rect y="2531" width="2400" height="2" fill="#e5dbc6"/><rect y="2539" width="2400" height="2" fill="#e5dbc6"/><rect y="2547" width="2400" height="2" fill="#e5dbc6"/><rect y="2555" width="2400" height="2" fill="#e5dbc6"/><rect y="2563" width="2400" height="2" fill="#e5dbc6"/><rect y="2571" width="2400" height="2" fill="#e5dbc6"/><rect y="2579" width="2400" height="2" fill="#e5dbc6"/><rect y="2587" width="2400" height="2" fill="#e5dbc6"/><rect y="2595" width="2400" height="2" fill="#e5dbc6"/><rect y="2603" width="2400" height="2" fill="#e5dbc6"/><rect y="2611" width="2400" height="2" fill="#e5dbc6"/><rect y="2619" width="2400" height="2" fill="#e5dbc6"/><rect y="2627" width="2400" height="2" fill="#e5dbc6"/><rect y="2635" width="2400" height="2" fill="#e5dbc6"/><rect y="2643" width="2400" height="2" fill="#e5dbc6"/><rect y="2651" width="2400" height="2" fill="#e5dbc6"/><rect y="2659" width="2400" height="2" fill="#e5dbc6"/><rect y="2667" width="2400" height="2" fill="#e5dbc6"/><rect y="2675" width="2400" height="2" fill="#e5dbc6"/><rect y="2683" width="2400" height="2" fill="#e5dbc6"/><rect y="2691" width="2400" height="2" fill="#e5dbc6"/><rect y="2699" width="2400" height="2" fill="#e5dbc6"/><rect y="2707" width="2400" height="2" fill="#e5dbc6"/><rect y="2715" width="2400" height="2" fill="#e5dbc6"/><rect y="2723" width="2400" height="2" fill="#e5dbc6"/><rect y="2731" width="2400" height="2" fill="#e5dbc6"/><rect y="2739" width="2400" height="2" fill="#e5dbc6"/><rect y="2747" width="2400" height="2" fill="#e5dbc6"/><rect y="2755" width="2400" height="2" fill="#e5dbc6"/><rect y="2763" width="2400" height="2" fill="#e5dbc6"/><rect y="2771" width="2400" height="2" fill="#e5dbc6"/><rect y="2779" width="2400" height="2" fill="#e5dbc6"/><rect y="2787" width="2400" height="2" fill="#e5dbc6"/><rect y="2795" width="2400" height="2" fill="#e5dbc6"/><rect y="2803" width="2400" height="2" fill="#e5dbc6"/><rect y="2811" width="2400" height="2" fill="#e5dbc6"/><rect y="2819" width="2400" height="2" fill="#e5dbc6"/><rect y="2827" width="2400" height="2" fill="#e5dbc6"/><rect y="2835" width="2400" height="2" fill="#e5dbc6"/><rect y="2843" width="2400" height="2" fill="#e5dbc6"/><rect y="2851" width="2400" height="2" fill="#e5dbc6"/><rect y="2859" width="2400" height="2" fill="#e5dbc6"/><rect y="2867" width="2400" height="2" fill="#e5dbc6"/><rect y="2875" width="2400" height="2" fill="#e5dbc6"/><rect y="2883" width="2400" height="2" fill="#e5dbc6"/><rect y="2891" width="2400" height="2" fill="#e5dbc6"/><rect y="2899" width="2400" height="2" fill="#e5dbc6"/><rect y="2907" width="2400" height="2" fill="#e5dbc6"/><rect y="2915" width="2400" height="2" fill="#e5dbc6"/><rect y="2923" width="2400" height="2" fill="#e5dbc6"/><rect y="2931" width="2400" height="2" fill="#e5dbc6"/><rect y="2939" width="2400" height="2" fill="#e5dbc6"/><rect y="2947" width="2400" height="2" fill="#e5dbc6"/><rect y="2955" width="2400" height="2" fill="#e5dbc6"/><rect y="2963" width="2400" height="2" fill="#e5dbc6"/><rect y="2971" width="2400" height="2" fill="#e5dbc6"/><rect y="2979" width="2400" height="2" fill="#e5dbc6"/><rect y="2987" width="2400" height="2" fill="#e5dbc6"/><rect y="2995" width="2400" height="2" fill="#e5dbc6"/></g><rect x="88" y="88" width="2224" height="2824" fill="none" stroke="#3a2c1a" stroke-width="4" opacity="0.2"/><rect x="94" y="94" width="2212" height="2812" fill="none" stroke="#fff6e0" stroke-width="2" opacity="0.25"/><circle cx="780.5" cy="2719.4" r="13.8" fill="#8a5a2e" opacity="0.089"/><circle cx="224.7" cy="2752.1" r="10" fill="#8a5a2e" opacity="0.054"/><circle cx="1838.5" cy="1893.6" r="14.6" fill="#8a5a2e" opacity="0.094"/><circle cx="1512.1" cy="435.7" r="7.6" fill="#8a5a2e" opacity="0.108"/><circle cx="398.7" cy="2432.1" r="15.8" fill="#8a5a2e" opacity="0.058"/><circle cx="715.3" cy="401.1" r="6.5" fill="#8a5a2e" opacity="0.126"/><circle cx="908.8" cy="2303.5" r="13.2" fill="#8a5a2e" opacity="0.105"/><circle cx="244.4" cy="2614.1" r="15.8" fill="#8a5a2e" opacity="0.096"/><circle cx="1775.1" cy="2305" r="9.1" fill="#8a5a2e" opacity="0.100"/><circle cx="1507.6" cy="1876.4" r="7.7" fill="#8a5a2e" opacity="0.082"/><circle cx="1323.9" cy="1874.4" r="6.5" fill="#8a5a2e" opacity="0.076"/><circle cx="355.4" cy="2719.3" r="11.3" fill="#8a5a2e" opacity="0.048"/><circle cx="104.8" cy="2788.7" r="5.7" fill="#8a5a2e" opacity="0.054"/><circle cx="691.6" cy="620.5" r="4.4" fill="#8a5a2e" opacity="0.122"/><circle cx="1680" cy="2337.2" r="9.4" fill="#8a5a2e" opacity="0.127"/><circle cx="801.9" cy="2117.4" r="12.5" fill="#8a5a2e" opacity="0.066"/><circle cx="1331.3" cy="1627.9" r="14.4" fill="#8a5a2e" opacity="0.059"/><circle cx="2248" cy="1422.5" r="10.7" fill="#8a5a2e" opacity="0.085"/><circle cx="2117.5" cy="1649.8" r="15.9" fill="#8a5a2e" opacity="0.044"/><circle cx="119.1" cy="898.7" r="14.1" fill="#8a5a2e" opacity="0.076"/><circle cx="1521" cy="514.4" r="5.8" fill="#8a5a2e" opacity="0.063"/><circle cx="1092.3" cy="1142.6" r="14.6" fill="#8a5a2e" opacity="0.044"/><circle cx="113.1" cy="2405.7" r="4.3" fill="#8a5a2e" opacity="0.063"/><circle cx="1797.2" cy="615.5" r="14.4" fill="#8a5a2e" opacity="0.068"/><circle cx="1131.1" cy="764.4" r="11.5" fill="#8a5a2e" opacity="0.045"/><circle cx="1116.5" cy="395.1" r="13.1" fill="#8a5a2e" opacity="0.073"/><circle cx="950" cy="1968.8" r="14.1" fill="#8a5a2e" opacity="0.126"/><rect width="2400" height="3000" fill="url(#a68-vig)"/></svg></svg>