<svg xmlns="http://www.w3.org/2000/svg" width="2400" height="1800" viewBox="0 0 2400 1800"><rect width="2400" height="1800" fill="#dfe4dc"/><rect y="1400" width="2400" height="400" fill="#c2a67e"/><line x1="60" y1="1400" x2="10" y2="1800" stroke="#00000015" stroke-width="5"/><line x1="260" y1="1400" x2="210" y2="1800" stroke="#00000015" stroke-width="5"/><line x1="460" y1="1400" x2="410" y2="1800" stroke="#00000015" stroke-width="5"/><line x1="660" y1="1400" x2="610" y2="1800" stroke="#00000015" stroke-width="5"/><line x1="860" y1="1400" x2="810" y2="1800" stroke="#00000015" stroke-width="5"/><line x1="1060" y1="1400" x2="1010" y2="1800" stroke="#00000015" stroke-width="5"/><line x1="1260" y1="1400" x2="1210" y2="1800" stroke="#00000015" stroke-width="5"/><line x1="1460" y1="1400" x2="1410" y2="1800" stroke="#00000015" stroke-width="5"/><line x1="1660" y1="1400" x2="1610" y2="1800" stroke="#00000015" stroke-width="5"/><line x1="1860" y1="1400" x2="1810" y2="1800" stroke="#00000015" stroke-width="5"/><line x1="2060" y1="1400" x2="2010" y2="1800" stroke="#00000015" stroke-width="5"/><line x1="2260" y1="1400" x2="2210" y2="1800" stroke="#00000015" stroke-width="5"/><rect x="180" y="260" width="900" height="620" fill="#8a6a48"/><rect x="215" y="295" width="830" height="550" fill="#41524a"/><line x1="280" y1="420" x2="760" y2="420" stroke="#ffffff66" stroke-width="9" stroke-linecap="round"/><line x1="280" y1="520" x2="620" y2="520" stroke="#ffffff44" stroke-width="9" stroke-linecap="round"/><circle cx="880" cy="560" r="90" fill="none" stroke="#ffffff55" stroke-width="8"/><rect x="215" y="845" width="830" height="22" fill="#6f5436"/><rect x="330" y="1240" width="640" height="60" rx="10" fill="#9c7449"/><rect x="370" y="1300" width="60" height="240" fill="#8a6540"/><rect x="870" y="1300" width="60" height="240" fill="#8a6540"/><rect x="430" y="1160" width="150" height="80" rx="8" fill="#935f34"/><rect x="450" y="1120" width="150" height="40" rx="8" fill="#b6a17b"/><circle cx="800" cy="1130" r="86" fill="#7fa3b8"/><path d="M760,1060 Q820,1100 780,1190 M740,1090 Q800,1120 850,1100" stroke="#5d8069" stroke-width="16" fill="none" stroke-linecap="round"/><circle cx="800" cy="1130" r="86" fill="none" stroke="#6b5233" stroke-width="7"/><line x1="800" y1="1216" x2="800" y2="1250" stroke="#6b5233" stroke-width="10"/><rect x="750" y="1244" width="100" height="14" rx="7" fill="#6b5233"/><rect x="1980" y="700" width="300" height="800" fill="#9c7449"/><rect x="2000" y="930" width="260" height="16" fill="#7c5a37"/><rect x="2020" y="790" width="36" height="140" fill="#b3502f"/><rect x="2066" y="802" width="36" height="128" fill="#39685c"/><rect x="2112" y="790" width="36" height="140" fill="#c9a227"/><rect x="2158" y="802" width="36" height="128" fill="#2c4661"/><rect x="2204" y="790" width="36" height="140" fill="#8a4423"/><rect x="2000" y="1180" width="260" height="16" fill="#7c5a37"/><rect x="2020" y="1040" width="36" height="140" fill="#39685c"/><rect x="2066" y="1052" width="36" height="128" fill="#c9a227"/><rect x="2112" y="1040" width="36" height="140" fill="#2c4661"/><rect x="2158" y="1052" width="36" height="128" fill="#8a4423"/><rect x="2204" y="1040" width="36" height="140" fill="#b3502f"/><rect x="2000" y="1430" width="260" height="16" fill="#7c5a37"/><rect x="2020" y="1290" width="36" height="140" fill="#c9a227"/><rect x="2066" y="1302" width="36" height="128" fill="#2c4661"/><rect x="2112" y="1290" width="36" height="140" fill="#8a4423"/><rect x="2158" y="1302" width="36" height="128" fill="#b3502f"/><rect x="2204" y="1290" width="36" height="140" fill="#39685c"/><defs><filter id="a63c-sh" x="-30%" y="-30%" width="160%" height="160%"><feGaussianBlur stdDeviation="16"/></filter></defs><rect x="1340.5" y="298.5" width="517" height="635" fill="#000" opacity="0.28" filter="url(#a63c-sh)"/><rect x="1326.5" y="276.5" width="517" height="635" fill="#3d342a"/><rect x="1341.8" y="291.8" width="486.4" height="604.5" fill="none" stroke="#00000055" stroke-width="3"/><rect x="1350" y="300" width="470" height="588" fill="#f6f2ea"/><svg x="1385.3" y="335.3" width="399.5" height="517.5" viewBox="0 0 2400 3000" preserveAspectRatio="xMidYMid slice"><filter id="a63-warp" x="-4%" y="-4%" width="108%" height="108%"><feTurbulence type="fractalNoise" baseFrequency="0.0105" numOctaves="2" seed="7621" result="w"/><feDisplacementMap in="SourceGraphic" in2="w" scale="7" xChannelSelector="R" yChannelSelector="G"/></filter><filter id="a63-grain" x="0%" y="0%" width="100%" height="100%"><feTurbulence type="fractalNoise" baseFrequency="0.6" numOctaves="2" seed="7628"/><feColorMatrix type="matrix" values="0.33 0.33 0.33 0 0.62  0.33 0.33 0.33 0 0.62  0.33 0.33 0.33 0 0.62  0 0 0 0 1"/></filter><filter id="a63-mottle" x="0%" y="0%" width="100%" height="100%"><feTurbulence type="fractalNoise" baseFrequency="0.0045" numOctaves="3" seed="7634"/><feColorMatrix type="matrix" values="0.2 0.2 0.2 0 0.78  0.2 0.2 0.2 0 0.78  0.2 0.2 0.2 0 0.78  0 0 0 0 1"/></filter><filter id="a63-fade" x="0%" y="0%" width="100%" height="100%"><feTurbulence type="fractalNoise" baseFrequency="0.006" numOctaves="2" seed="7650"/><feColorMatrix type="matrix" values="0.3 0.3 0.3 0 -0.08  0.3 0.3 0.3 0 -0.08  0.3 0.3 0.3 0 -0.1  0 0 0 0 1"/></filter><filter id="a63-blur9"><feGaussianBlur stdDeviation="9"/></filter><radialGradient id="a63-vig" cx="50%" cy="44%" r="78%"><stop offset="52%" stop-color="#241a10" stop-opacity="0"/><stop offset="100%" stop-color="#241a10" stop-opacity="0.17"/></radialGradient><radialGradient id="a63-warm" cx="51%" cy="30%" r="85%"><stop offset="0%" stop-color="#e8c890" stop-opacity="0.14"/><stop offset="70%" stop-color="#e8c890" stop-opacity="0"/></radialGradient><rect width="2400" height="3000" fill="#eadfc4"/><rect width="2400" height="3000" fill="url(#a63-warm)"/><g filter="url(#a63-warp)"><path d="M1793.7,1942.5 Q1715.8,2305 1517.9,2506.8 Q1320,2708.7 1080.9,2666.5 Q841.7,2624.4 701.4,2299.8 Q561,1975.1 549.6,1583.2 Q538.1,1191.2 688.3,901.8 Q838.5,612.3 1078.9,516.6 Q1319.3,420.8 1537.4,649.4 Q1755.4,878 1813.5,1229 Q1871.5,1580 1793.7,1942.5 Z" fill="#b6a17b" stroke="#493a24" stroke-width="10"/><clipPath id="a63-rs"><path d="M1793.7,1942.5 Q1715.8,2305 1517.9,2506.8 Q1320,2708.7 1080.9,2666.5 Q841.7,2624.4 701.4,2299.8 Q561,1975.1 549.6,1583.2 Q538.1,1191.2 688.3,901.8 Q838.5,612.3 1078.9,516.6 Q1319.3,420.8 1537.4,649.4 Q1755.4,878 1813.5,1229 Q1871.5,1580 1793.7,1942.5 Z"/></clipPath><g clip-path="url(#a63-rs)"><path d="M740,2560 C 580,1900 900,1500 1200,1400 C 1500,1300 1760,1000 1500,640" fill="none" stroke="#493a24" stroke-width="150" opacity="0.25"/><line x1="740" y1="2518" x2="740" y2="2602" stroke="#493a24" stroke-width="14" stroke-linecap="round"/><line x1="740" y1="2532.4" x2="775.3" y2="2562.6" stroke="#493a24" stroke-width="12" stroke-linecap="round"/><line x1="761.6" y1="2403" x2="761.6" y2="2487" stroke="#493a24" stroke-width="14" stroke-linecap="round"/><line x1="761.6" y1="2415.2" x2="796.8" y2="2445.4" stroke="#493a24" stroke-width="12" stroke-linecap="round"/><line x1="761.6" y1="2439.7" x2="796.8" y2="2470" stroke="#493a24" stroke-width="12" stroke-linecap="round"/><line x1="784.4" y1="2286.2" x2="784.4" y2="2370.2" stroke="#493a24" stroke-width="14" stroke-linecap="round"/><line x1="784.4" y1="2305.7" x2="819.7" y2="2335.9" stroke="#493a24" stroke-width="12" stroke-linecap="round"/><line x1="809.7" y1="2166" x2="809.7" y2="2250" stroke="#493a24" stroke-width="14" stroke-linecap="round"/><line x1="809.7" y1="2204.9" x2="774.4" y2="2235.2" stroke="#493a24" stroke-width="12" stroke-linecap="round"/><line x1="809.7" y1="2196.4" x2="774.4" y2="2226.7" stroke="#493a24" stroke-width="12" stroke-linecap="round"/><line x1="838.6" y1="2041.3" x2="838.6" y2="2125.3" stroke="#493a24" stroke-width="14" stroke-linecap="round"/><line x1="838.6" y1="2065" x2="873.9" y2="2095.2" stroke="#493a24" stroke-width="12" stroke-linecap="round"/><line x1="838.6" y1="2075.4" x2="873.9" y2="2105.6" stroke="#493a24" stroke-width="12" stroke-linecap="round"/><line x1="872.1" y1="1911.9" x2="872.1" y2="1995.9" stroke="#493a24" stroke-width="14" stroke-linecap="round"/><line x1="872.1" y1="1933.7" x2="907.4" y2="1963.9" stroke="#493a24" stroke-width="12" stroke-linecap="round"/><line x1="872.1" y1="1924.1" x2="836.8" y2="1954.3" stroke="#493a24" stroke-width="12" stroke-linecap="round"/><line x1="910.9" y1="1778.3" x2="910.9" y2="1862.3" stroke="#493a24" stroke-width="14" stroke-linecap="round"/><line x1="910.9" y1="1804.3" x2="946.1" y2="1834.5" stroke="#493a24" stroke-width="12" stroke-linecap="round"/><line x1="955.4" y1="1641.4" x2="955.4" y2="1725.4" stroke="#493a24" stroke-width="14" stroke-linecap="round"/><line x1="955.4" y1="1659.2" x2="920.2" y2="1689.4" stroke="#493a24" stroke-width="12" stroke-linecap="round"/><line x1="1006.1" y1="1502.9" x2="1006.1" y2="1586.9" stroke="#493a24" stroke-width="14" stroke-linecap="round"/><line x1="1006.1" y1="1520.8" x2="970.8" y2="1551.1" stroke="#493a24" stroke-width="12" stroke-linecap="round"/><line x1="1006.1" y1="1533.5" x2="970.8" y2="1563.7" stroke="#493a24" stroke-width="12" stroke-linecap="round"/><line x1="1062.9" y1="1364.7" x2="1062.9" y2="1448.7" stroke="#493a24" stroke-width="14" stroke-linecap="round"/><line x1="1062.9" y1="1392.3" x2="1027.6" y2="1422.5" stroke="#493a24" stroke-width="12" stroke-linecap="round"/><line x1="1062.9" y1="1397.5" x2="1027.6" y2="1427.7" stroke="#493a24" stroke-width="12" stroke-linecap="round"/><line x1="1125.4" y1="1228.6" x2="1125.4" y2="1312.6" stroke="#493a24" stroke-width="14" stroke-linecap="round"/><line x1="1125.4" y1="1253.6" x2="1160.7" y2="1283.8" stroke="#493a24" stroke-width="12" stroke-linecap="round"/><line x1="1193.3" y1="1096.1" x2="1193.3" y2="1180.1" stroke="#493a24" stroke-width="14" stroke-linecap="round"/><line x1="1193.3" y1="1121.1" x2="1158" y2="1151.3" stroke="#493a24" stroke-width="12" stroke-linecap="round"/><line x1="1193.3" y1="1133.4" x2="1158" y2="1163.6" stroke="#493a24" stroke-width="12" stroke-linecap="round"/><line x1="1265.7" y1="968.1" x2="1265.7" y2="1052.1" stroke="#493a24" stroke-width="14" stroke-linecap="round"/><line x1="1265.7" y1="988.8" x2="1301" y2="1019" stroke="#493a24" stroke-width="12" stroke-linecap="round"/><line x1="1265.7" y1="1007.6" x2="1230.4" y2="1037.8" stroke="#493a24" stroke-width="12" stroke-linecap="round"/><line x1="1341.7" y1="844.8" x2="1341.7" y2="928.8" stroke="#493a24" stroke-width="14" stroke-linecap="round"/><line x1="1341.7" y1="862.8" x2="1377" y2="893.1" stroke="#493a24" stroke-width="12" stroke-linecap="round"/><line x1="1420.2" y1="725.7" x2="1420.2" y2="809.7" stroke="#493a24" stroke-width="14" stroke-linecap="round"/><line x1="1420.2" y1="744.8" x2="1455.5" y2="775.1" stroke="#493a24" stroke-width="12" stroke-linecap="round"/><line x1="1420.2" y1="738.2" x2="1384.9" y2="768.4" stroke="#493a24" stroke-width="12" stroke-linecap="round"/><line x1="1500" y1="609.6" x2="1500" y2="693.6" stroke="#493a24" stroke-width="14" stroke-linecap="round"/><line x1="1500" y1="638.7" x2="1535.3" y2="669" stroke="#493a24" stroke-width="12" stroke-linecap="round"/><line x1="1500" y1="651.3" x2="1464.7" y2="681.5" stroke="#493a24" stroke-width="12" stroke-linecap="round"/><polyline points="1506.6,640 1508.1,642 1508.9,644.7 1508.8,647.8 1507.7,651.1 1505.5,654.2 1502.1,656.8 1497.9,658.5 1492.9,659.1 1487.6,658.3 1482.3,655.9 1477.5,652.1 1473.6,646.8 1471,640.3 1470.1,633 1471.1,625.3 1474.1,617.7 1479.2,610.7 1486.2,605 1494.7,601 1504.3,599.2 1514.5,599.7 1524.6,602.9 1534,608.7 1542,616.9 1548,627.1 1551.4,638.9 1551.9,651.6 1549.1,664.4 1543.2,676.5 1534.3,687.2 1522.7,695.6 1509,701.1 1494,703.2 1478.6,701.6 1463.6,696.1 1450,687 1438.7,674.5 1430.6,659.4 1426.2,642.3 1426.1,624.3 1430.4,606.4 1439.1,589.7 1451.9,575.2 1468.1,564 1486.8,556.9 1507.2,554.4 1527.9,557 1547.9,564.6 1565.7,577 1580.3,593.6 1590.7,613.6 1596.1,636 1596,659.4 1590.2,682.4 1578.8,703.8 1562.3,722.1 1541.6,736.2 1517.8,745.1 1492.1,748 1466,744.6" fill="none" stroke="#493a24" stroke-width="18" stroke-linecap="round" stroke-linejoin="round"/><polyline points="733.4,2560 731.9,2562 731.1,2564.7 731.2,2567.8 732.3,2571.1 734.5,2574.2 737.9,2576.8 742.1,2578.5 747.1,2579.1 752.4,2578.3 757.7,2575.9 762.5,2572.1 766.4,2566.8 769,2560.3 769.9,2553 768.9,2545.3 765.9,2537.7 760.8,2530.7 753.8,2525 745.3,2521 735.7,2519.2 725.5,2519.7 715.4,2522.9 706,2528.7 698,2536.9 692,2547.1 688.6,2558.9 688.1,2571.6 690.9,2584.4 696.8,2596.5 705.7,2607.2 717.3,2615.6 731,2621.1 746,2623.2 761.4,2621.6 776.4,2616.1 790,2607 801.3,2594.5 809.4,2579.4 813.8,2562.3 813.9,2544.3 809.6,2526.4 800.9,2509.7 788.1,2495.2 771.9,2484 753.2,2476.9 732.8,2474.4 712.1,2477 692.1,2484.6 674.3,2497 659.7,2513.6 649.3,2533.6 643.9,2556 644,2579.4 649.8,2602.4 661.2,2623.8 677.7,2642.1 698.4,2656.2 722.2,2665.1 747.9,2668 774,2664.6" fill="none" stroke="#493a24" stroke-width="18" stroke-linecap="round" stroke-linejoin="round"/></g><rect x="130" y="130" width="2140" height="2740" fill="none" stroke="#493a24" stroke-width="5"/><rect x="152" y="152" width="2096" height="2696" fill="none" stroke="#493a24" stroke-width="2.5" opacity="0.8"/></g><rect width="2400" height="3000" filter="url(#a63-mottle)" style="mix-blend-mode:multiply" opacity="0.5"/><rect width="2400" height="3000" filter="url(#a63-fade)" style="mix-blend-mode:screen" opacity="0.55"/><rect width="2400" height="3000" filter="url(#a63-grain)" style="mix-blend-mode:multiply" opacity="0.32"/><ellipse cx="816.7" cy="2172.7" rx="328.5" ry="312.1" fill="#6b4a22" opacity="0.032" filter="url(#a63-blur9)"/><ellipse cx="1716.5" cy="1839.2" rx="283.6" ry="240" fill="#6b4a22" opacity="0.031" filter="url(#a63-blur9)"/><ellipse cx="753.3" cy="2386.8" rx="255.1" ry="268.3" fill="#6b4a22" opacity="0.066" filter="url(#a63-blur9)"/><g opacity="0.3"><rect y="3" width="2400" height="2" fill="#eadfc4"/><rect y="11" width="2400" height="2" fill="#eadfc4"/><rect y="19" width="2400" height="2" fill="#eadfc4"/><rect y="27" width="2400" height="2" fill="#eadfc4"/><rect y="35" width="2400" height="2" fill="#eadfc4"/><rect y="43" width="2400" height="2" fill="#eadfc4"/><rect y="51" width="2400" height="2" fill="#eadfc4"/><rect y="59" width="2400" height="2" fill="#eadfc4"/><rect y="67" width="2400" height="2" fill="#eadfc4"/><rect y="75" width="2400" height="2" fill="#eadfc4"/><rect y="83" width="2400" height="2" fill="#eadfc4"/><rect y="91" width="2400" height="2" fill="#eadfc4"/><rect y="99" width="2400" height="2" fill="#eadfc4"/><rect y="107" width="2400" height="2" fill="#eadfc4"/><rect y="115" width="2400" height="2" fill="#eadfc4"/><rect y="123" width="2400" height="2" fill="#eadfc4"/><rect y="131" width="2400" height="2" fill="#eadfc4"/><rect y="139" width="2400" height="2" fill="#eadfc4"/><rect y="147" width="2400" height="2" fill="#eadfc4"/><rect y="155" width="2400" height="2" fill="#eadfc4"/><rect y="163" width="2400" height="2" fill="#eadfc4"/><rect y="171" width="2400" height="2" fill="#eadfc4"/><rect y="179" width="2400" height="2" fill="#eadfc4"/><rect y="187" width="2400" height="2" fill="#eadfc4"/><rect y="195" width="2400" height="2" fill="#eadfc4"/><rect y="203" width="2400" height="2" fill="#eadfc4"/><rect y="211" width="2400" height="2" fill="#eadfc4"/><rect y="219" width="2400" height="2" fill="#eadfc4"/><rect y="227" width="2400" height="2" fill="#eadfc4"/><rect y="235" width="2400" height="2" fill="#eadfc4"/><rect y="243" width="2400" height="2" fill="#eadfc4"/><rect y="251" width="2400" height="2" fill="#eadfc4"/><rect y="259" width="2400" height="2" fill="#eadfc4"/><rect y="267" width="2400" height="2" fill="#eadfc4"/><rect y="275" width="2400" height="2" fill="#eadfc4"/><rect y="283" width="2400" height="2" fill="#eadfc4"/><rect y="291" width="2400" height="2" fill="#eadfc4"/><rect y="299" width="2400" height="2" fill="#eadfc4"/><rect y="307" width="2400" height="2" fill="#eadfc4"/><rect y="315" width="2400" height="2" fill="#eadfc4"/><rect y="323" width="2400" height="2" fill="#eadfc4"/><rect y="331" width="2400" height="2" fill="#eadfc4"/><rect y="339" width="2400" height="2" fill="#eadfc4"/><rect y="347" width="2400" height="2" fill="#eadfc4"/><rect y="355" width="2400" height="2" fill="#eadfc4"/><rect y="363" width="2400" height="2" fill="#eadfc4"/><rect y="371" width="2400" height="2" fill="#eadfc4"/><rect y="379" width="2400" height="2" fill="#eadfc4"/><rect y="387" width="2400" height="2" fill="#eadfc4"/><rect y="395" width="2400" height="2" fill="#eadfc4"/><rect y="403" width="2400" height="2" fill="#eadfc4"/><rect y="411" width="2400" height="2" fill="#eadfc4"/><rect y="419" width="2400" height="2" fill="#eadfc4"/><rect y="427" width="2400" height="2" fill="#eadfc4"/><rect y="435" width="2400" height="2" fill="#eadfc4"/><rect y="443" width="2400" height="2" fill="#eadfc4"/><rect y="451" width="2400" height="2" fill="#eadfc4"/><rect y="459" width="2400" height="2" fill="#eadfc4"/><rect y="467" width="2400" height="2" fill="#eadfc4"/><rect y="475" width="2400" height="2" fill="#eadfc4"/><rect y="483" width="2400" height="2" fill="#eadfc4"/><rect y="491" width="2400" height="2" fill="#eadfc4"/><rect y="499" width="2400" height="2" fill="#eadfc4"/><rect y="507" width="2400" height="2" fill="#eadfc4"/><rect y="515" width="2400" height="2" fill="#eadfc4"/><rect y="523" width="2400" height="2" fill="#eadfc4"/><rect y="531" width="2400" height="2" fill="#eadfc4"/><rect y="539" width="2400" height="2" fill="#eadfc4"/><rect y="547" width="2400" height="2" fill="#eadfc4"/><rect y="555" width="2400" height="2" fill="#eadfc4"/><rect y="563" width="2400" height="2" fill="#eadfc4"/><rect y="571" width="2400" height="2" fill="#eadfc4"/><rect y="579" width="2400" height="2" fill="#eadfc4"/><rect y="587" width="2400" height="2" fill="#eadfc4"/><rect y="595" width="2400" height="2" fill="#eadfc4"/><rect y="603" width="2400" height="2" fill="#eadfc4"/><rect y="611" width="2400" height="2" fill="#eadfc4"/><rect y="619" width="2400" height="2" fill="#eadfc4"/><rect y="627" width="2400" height="2" fill="#eadfc4"/><rect y="635" width="2400" height="2" fill="#eadfc4"/><rect y="643" width="2400" height="2" fill="#eadfc4"/><rect y="651" width="2400" height="2" fill="#eadfc4"/><rect y="659" width="2400" height="2" fill="#eadfc4"/><rect y="667" width="2400" height="2" fill="#eadfc4"/><rect y="675" width="2400" height="2" fill="#eadfc4"/><rect y="683" width="2400" height="2" fill="#eadfc4"/><rect y="691" width="2400" height="2" fill="#eadfc4"/><rect y="699" width="2400" height="2" fill="#eadfc4"/><rect y="707" width="2400" height="2" fill="#eadfc4"/><rect y="715" width="2400" height="2" fill="#eadfc4"/><rect y="723" width="2400" height="2" fill="#eadfc4"/><rect y="731" width="2400" height="2" fill="#eadfc4"/><rect y="739" width="2400" height="2" fill="#eadfc4"/><rect y="747" width="2400" height="2" fill="#eadfc4"/><rect y="755" width="2400" height="2" fill="#eadfc4"/><rect y="763" width="2400" height="2" fill="#eadfc4"/><rect y="771" width="2400" height="2" fill="#eadfc4"/><rect y="779" width="2400" height="2" fill="#eadfc4"/><rect y="787" width="2400" height="2" fill="#eadfc4"/><rect y="795" width="2400" height="2" fill="#eadfc4"/><rect y="803" width="2400" height="2" fill="#eadfc4"/><rect y="811" width="2400" height="2" fill="#eadfc4"/><rect y="819" width="2400" height="2" fill="#eadfc4"/><rect y="827" width="2400" height="2" fill="#eadfc4"/><rect y="835" width="2400" height="2" fill="#eadfc4"/><rect y="843" width="2400" height="2" fill="#eadfc4"/><rect y="851" width="2400" height="2" fill="#eadfc4"/><rect y="859" width="2400" height="2" fill="#eadfc4"/><rect y="867" width="2400" height="2" fill="#eadfc4"/><rect y="875" width="2400" height="2" fill="#eadfc4"/><rect y="883" width="2400" height="2" fill="#eadfc4"/><rect y="891" width="2400" height="2" fill="#eadfc4"/><rect y="899" width="2400" height="2" fill="#eadfc4"/><rect y="907" width="2400" height="2" fill="#eadfc4"/><rect y="915" width="2400" height="2" fill="#eadfc4"/><rect y="923" width="2400" height="2" fill="#eadfc4"/><rect y="931" width="2400" height="2" fill="#eadfc4"/><rect y="939" width="2400" height="2" fill="#eadfc4"/><rect y="947" width="2400" height="2" fill="#eadfc4"/><rect y="955" width="2400" height="2" fill="#eadfc4"/><rect y="963" width="2400" height="2" fill="#eadfc4"/><rect y="971" width="2400" height="2" fill="#eadfc4"/><rect y="979" width="2400" height="2" fill="#eadfc4"/><rect y="987" width="2400" height="2" fill="#eadfc4"/><rect y="995" width="2400" height="2" fill="#eadfc4"/><rect y="1003" width="2400" height="2" fill="#eadfc4"/><rect y="1011" width="2400" height="2" fill="#eadfc4"/><rect y="1019" width="2400" height="2" fill="#eadfc4"/><rect y="1027" width="2400" height="2" fill="#eadfc4"/><rect y="1035" width="2400" height="2" fill="#eadfc4"/><rect y="1043" width="2400" height="2" fill="#eadfc4"/><rect y="1051" width="2400" height="2" fill="#eadfc4"/><rect y="1059" width="2400" height="2" fill="#eadfc4"/><rect y="1067" width="2400" height="2" fill="#eadfc4"/><rect y="1075" width="2400" height="2" fill="#eadfc4"/><rect y="1083" width="2400" height="2" fill="#eadfc4"/><rect y="1091" width="2400" height="2" fill="#eadfc4"/><rect y="1099" width="2400" height="2" fill="#eadfc4"/><rect y="1107" width="2400" height="2" fill="#eadfc4"/><rect y="1115" width="2400" height="2" fill="#eadfc4"/><rect y="1123" width="2400" height="2" fill="#eadfc4"/><rect y="1131" width="2400" height="2" fill="#eadfc4"/><rect y="1139" width="2400" height="2" fill="#eadfc4"/><rect y="1147" width="2400" height="2" fill="#eadfc4"/><rect y="1155" width="2400" height="2" fill="#eadfc4"/><rect y="1163" width="2400" height="2" fill="#eadfc4"/><rect y="1171" width="2400" height="2" fill="#eadfc4"/><rect y="1179" width="2400" height="2" fill="#eadfc4"/><rect y="1187" width="2400" height="2" fill="#eadfc4"/><rect y="1195" width="2400" height="2" fill="#eadfc4"/><rect y="1203" width="2400" height="2" fill="#eadfc4"/><rect y="1211" width="2400" height="2" fill="#eadfc4"/><rect y="1219" width="2400" height="2" fill="#eadfc4"/><rect y="1227" width="2400" height="2" fill="#eadfc4"/><rect y="1235" width="2400" height="2" fill="#eadfc4"/><rect y="1243" width="2400" height="2" fill="#eadfc4"/><rect y="1251" width="2400" height="2" fill="#eadfc4"/><rect y="1259" width="2400" height="2" fill="#eadfc4"/><rect y="1267" width="2400" height="2" fill="#eadfc4"/><rect y="1275" width="2400" height="2" fill="#eadfc4"/><rect y="1283" width="2400" height="2" fill="#eadfc4"/><rect y="1291" width="2400" height="2" fill="#eadfc4"/><rect y="1299" width="2400" height="2" fill="#eadfc4"/><rect y="1307" width="2400" height="2" fill="#eadfc4"/><rect y="1315" width="2400" height="2" fill="#eadfc4"/><rect y="1323" width="2400" height="2" fill="#eadfc4"/><rect y="1331" width="2400" height="2" fill="#eadfc4"/><rect y="1339" width="2400" height="2" fill="#eadfc4"/><rect y="1347" width="2400" height="2" fill="#eadfc4"/><rect y="1355" width="2400" height="2" fill="#eadfc4"/><rect y="1363" width="2400" height="2" fill="#eadfc4"/><rect y="1371" width="2400" height="2" fill="#eadfc4"/><rect y="1379" width="2400" height="2" fill="#eadfc4"/><rect y="1387" width="2400" height="2" fill="#eadfc4"/><rect y="1395" width="2400" height="2" fill="#eadfc4"/><rect y="1403" width="2400" height="2" fill="#eadfc4"/><rect y="1411" width="2400" height="2" fill="#eadfc4"/><rect y="1419" width="2400" height="2" fill="#eadfc4"/><rect y="1427" width="2400" height="2" fill="#eadfc4"/><rect y="1435" width="2400" height="2" fill="#eadfc4"/><rect y="1443" width="2400" height="2" fill="#eadfc4"/><rect y="1451" width="2400" height="2" fill="#eadfc4"/><rect y="1459" width="2400" height="2" fill="#eadfc4"/><rect y="1467" width="2400" height="2" fill="#eadfc4"/><rect y="1475" width="2400" height="2" fill="#eadfc4"/><rect y="1483" width="2400" height="2" fill="#eadfc4"/><rect y="1491" width="2400" height="2" fill="#eadfc4"/><rect y="1499" width="2400" height="2" fill="#eadfc4"/><rect y="1507" width="2400" height="2" fill="#eadfc4"/><rect y="1515" width="2400" height="2" fill="#eadfc4"/><rect y="1523" width="2400" height="2" fill="#eadfc4"/><rect y="1531" width="2400" height="2" fill="#eadfc4"/><rect y="1539" width="2400" height="2" fill="#eadfc4"/><rect y="1547" width="2400" height="2" fill="#eadfc4"/><rect y="1555" width="2400" height="2" fill="#eadfc4"/><rect y="1563" width="2400" height="2" fill="#eadfc4"/><rect y="1571" width="2400" height="2" fill="#eadfc4"/><rect y="1579" width="2400" height="2" fill="#eadfc4"/><rect y="1587" width="2400" height="2" fill="#eadfc4"/><rect y="1595" width="2400" height="2" fill="#eadfc4"/><rect y="1603" width="2400" height="2" fill="#eadfc4"/><rect y="1611" width="2400" height="2" fill="#eadfc4"/><rect y="1619" width="2400" height="2" fill="#eadfc4"/><rect y="1627" width="2400" height="2" fill="#eadfc4"/><rect y="1635" width="2400" height="2" fill="#eadfc4"/><rect y="1643" width="2400" height="2" fill="#eadfc4"/><rect y="1651" width="2400" height="2" fill="#eadfc4"/><rect y="1659" width="2400" height="2" fill="#eadfc4"/><rect y="1667" width="2400" height="2" fill="#eadfc4"/><rect y="1675" width="2400" height="2" fill="#eadfc4"/><rect y="1683" width="2400" height="2" fill="#eadfc4"/><rect y="1691" width="2400" height="2" fill="#eadfc4"/><rect y="1699" width="2400" height="2" fill="#eadfc4"/><rect y="1707" width="2400" height="2" fill="#eadfc4"/><rect y="1715" width="2400" height="2" fill="#eadfc4"/><rect y="1723" width="2400" height="2" fill="#eadfc4"/><rect y="1731" width="2400" height="2" fill="#eadfc4"/><rect y="1739" width="2400" height="2" fill="#eadfc4"/><rect y="1747" width="2400" height="2" fill="#eadfc4"/><rect y="1755" width="2400" height="2" fill="#eadfc4"/><rect y="1763" width="2400" height="2" fill="#eadfc4"/><rect y="1771" width="2400" height="2" fill="#eadfc4"/><rect y="1779" width="2400" height="2" fill="#eadfc4"/><rect y="1787" width="2400" height="2" fill="#eadfc4"/><rect y="1795" width="2400" height="2" fill="#eadfc4"/><rect y="1803" width="2400" height="2" fill="#eadfc4"/><rect y="1811" width="2400" height="2" fill="#eadfc4"/><rect y="1819" width="2400" height="2" fill="#eadfc4"/><rect y="1827" width="2400" height="2" fill="#eadfc4"/><rect y="1835" width="2400" height="2" fill="#eadfc4"/><rect y="1843" width="2400" height="2" fill="#eadfc4"/><rect y="1851" width="2400" height="2" fill="#eadfc4"/><rect y="1859" width="2400" height="2" fill="#eadfc4"/><rect y="1867" width="2400" height="2" fill="#eadfc4"/><rect y="1875" width="2400" height="2" fill="#eadfc4"/><rect y="1883" width="2400" height="2" fill="#eadfc4"/><rect y="1891" width="2400" height="2" fill="#eadfc4"/><rect y="1899" width="2400" height="2" fill="#eadfc4"/><rect y="1907" width="2400" height="2" fill="#eadfc4"/><rect y="1915" width="2400" height="2" fill="#eadfc4"/><rect y="1923" width="2400" height="2" fill="#eadfc4"/><rect y="1931" width="2400" height="2" fill="#eadfc4"/><rect y="1939" width="2400" height="2" fill="#eadfc4"/><rect y="1947" width="2400" height="2" fill="#eadfc4"/><rect y="1955" width="2400" height="2" fill="#eadfc4"/><rect y="1963" width="2400" height="2" fill="#eadfc4"/><rect y="1971" width="2400" height="2" fill="#eadfc4"/><rect y="1979" width="2400" height="2" fill="#eadfc4"/><rect y="1987" width="2400" height="2" fill="#eadfc4"/><rect y="1995" width="2400" height="2" fill="#eadfc4"/><rect y="2003" width="2400" height="2" fill="#eadfc4"/><rect y="2011" width="2400" height="2" fill="#eadfc4"/><rect y="2019" width="2400" height="2" fill="#eadfc4"/><rect y="2027" width="2400" height="2" fill="#eadfc4"/><rect y="2035" width="2400" height="2" fill="#eadfc4"/><rect y="2043" width="2400" height="2" fill="#eadfc4"/><rect y="2051" width="2400" height="2" fill="#eadfc4"/><rect y="2059" width="2400" height="2" fill="#eadfc4"/><rect y="2067" width="2400" height="2" fill="#eadfc4"/><rect y="2075" width="2400" height="2" fill="#eadfc4"/><rect y="2083" width="2400" height="2" fill="#eadfc4"/><rect y="2091" width="2400" height="2" fill="#eadfc4"/><rect y="2099" width="2400" height="2" fill="#eadfc4"/><rect y="2107" width="2400" height="2" fill="#eadfc4"/><rect y="2115" width="2400" height="2" fill="#eadfc4"/><rect y="2123" width="2400" height="2" fill="#eadfc4"/><rect y="2131" width="2400" height="2" fill="#eadfc4"/><rect y="2139" width="2400" height="2" fill="#eadfc4"/><rect y="2147" width="2400" height="2" fill="#eadfc4"/><rect y="2155" width="2400" height="2" fill="#eadfc4"/><rect y="2163" width="2400" height="2" fill="#eadfc4"/><rect y="2171" width="2400" height="2" fill="#eadfc4"/><rect y="2179" width="2400" height="2" fill="#eadfc4"/><rect y="2187" width="2400" height="2" fill="#eadfc4"/><rect y="2195" width="2400" height="2" fill="#eadfc4"/><rect y="2203" width="2400" height="2" fill="#eadfc4"/><rect y="2211" width="2400" height="2" fill="#eadfc4"/><rect y="2219" width="2400" height="2" fill="#eadfc4"/><rect y="2227" width="2400" height="2" fill="#eadfc4"/><rect y="2235" width="2400" height="2" fill="#eadfc4"/><rect y="2243" width="2400" height="2" fill="#eadfc4"/><rect y="2251" width="2400" height="2" fill="#eadfc4"/><rect y="2259" width="2400" height="2" fill="#eadfc4"/><rect y="2267" width="2400" height="2" fill="#eadfc4"/><rect y="2275" width="2400" height="2" fill="#eadfc4"/><rect y="2283" width="2400" height="2" fill="#eadfc4"/><rect y="2291" width="2400" height="2" fill="#eadfc4"/><rect y="2299" width="2400" height="2" fill="#eadfc4"/><rect y="2307" width="2400" height="2" fill="#eadfc4"/><rect y="2315" width="2400" height="2" fill="#eadfc4"/><rect y="2323" width="2400" height="2" fill="#eadfc4"/><rect y="2331" width="2400" height="2" fill="#eadfc4"/><rect y="2339" width="2400" height="2" fill="#eadfc4"/><rect y="2347" width="2400" height="2" fill="#eadfc4"/><rect y="2355" width="2400" height="2" fill="#eadfc4"/><rect y="2363" width="2400" height="2" fill="#eadfc4"/><rect y="2371" width="2400" height="2" fill="#eadfc4"/><rect y="2379" width="2400" height="2" fill="#eadfc4"/><rect y="2387" width="2400" height="2" fill="#eadfc4"/><rect y="2395" width="2400" height="2" fill="#eadfc4"/><rect y="2403" width="2400" height="2" fill="#eadfc4"/><rect y="2411" width="2400" height="2" fill="#eadfc4"/><rect y="2419" width="2400" height="2" fill="#eadfc4"/><rect y="2427" width="2400" height="2" fill="#eadfc4"/><rect y="2435" width="2400" height="2" fill="#eadfc4"/><rect y="2443" width="2400" height="2" fill="#eadfc4"/><rect y="2451" width="2400" height="2" fill="#eadfc4"/><rect y="2459" width="2400" height="2" fill="#eadfc4"/><rect y="2467" width="2400" height="2" fill="#eadfc4"/><rect y="2475" width="2400" height="2" fill="#eadfc4"/><rect y="2483" width="2400" height="2" fill="#eadfc4"/><rect y="2491" width="2400" height="2" fill="#eadfc4"/><rect y="2499" width="2400" height="2" fill="#eadfc4"/><rect y="2507" width="2400" height="2" fill="#eadfc4"/><rect y="2515" width="2400" height="2" fill="#eadfc4"/><rect y="2523" width="2400" height="2" fill="#eadfc4"/><rect y="2531" width="2400" height="2" fill="#eadfc4"/><rect y="2539" width="2400" height="2" fill="#eadfc4"/><rect y="2547" width="2400" height="2" fill="#eadfc4"/><rect y="2555" width="2400" height="2" fill="#eadfc4"/><rect y="2563" width="2400" height="2" fill="#eadfc4"/><rect y="2571" width="2400" height="2" fill="#eadfc4"/><rect y="2579" width="2400" height="2" fill="#eadfc4"/><rect y="2587" width="2400" height="2" fill="#eadfc4"/><rect y="2595" width="2400" height="2" fill="#eadfc4"/><rect y="2603" width="2400" height="2" fill="#eadfc4"/><rect y="2611" width="2400" height="2" fill="#eadfc4"/><rect y="2619" width="2400" height="2" fill="#eadfc4"/><rect y="2627" width="2400" height="2" fill="#eadfc4"/><rect y="2635" width="2400" height="2" fill="#eadfc4"/><rect y="2643" width="2400" height="2" fill="#eadfc4"/><rect y="2651" width="2400" height="2" fill="#eadfc4"/><rect y="2659" width="2400" height="2" fill="#eadfc4"/><rect y="2667" width="2400" height="2" fill="#eadfc4"/><rect y="2675" width="2400" height="2" fill="#eadfc4"/><rect y="2683" width="2400" height="2" fill="#eadfc4"/><rect y="2691" width="2400" height="2" fill="#eadfc4"/><rect y="2699" width="2400" height="2" fill="#eadfc4"/><rect y="2707" width="2400" height="2" fill="#eadfc4"/><rect y="2715" width="2400" height="2" fill="#eadfc4"/><rect y="2723" width="2400" height="2" fill="#eadfc4"/><rect y="2731" width="2400" height="2" fill="#eadfc4"/><rect y="2739" width="2400" height="2" fill="#eadfc4"/><rect y="2747" width="2400" height="2" fill="#eadfc4"/><rect y="2755" width="2400" height="2" fill="#eadfc4"/><rect y="2763" width="2400" height="2" fill="#eadfc4"/><rect y="2771" width="2400" height="2" fill="#eadfc4"/><rect y="2779" width="2400" height="2" fill="#eadfc4"/><rect y="2787" width="2400" height="2" fill="#eadfc4"/><rect y="2795" width="2400" height="2" fill="#eadfc4"/><rect y="2803" width="2400" height="2" fill="#eadfc4"/><rect y="2811" width="2400" height="2" fill="#eadfc4"/><rect y="2819" width="2400" height="2" fill="#eadfc4"/><rect y="2827" width="2400" height="2" fill="#eadfc4"/><rect y="2835" width="2400" height="2" fill="#eadfc4"/><rect y="2843" width="2400" height="2" fill="#eadfc4"/><rect y="2851" width="2400" height="2" fill="#eadfc4"/><rect y="2859" width="2400" height="2" fill="#eadfc4"/><rect y="2867" width="2400" height="2" fill="#eadfc4"/><rect y="2875" width="2400" height="2" fill="#eadfc4"/><rect y="2883" width="2400" height="2" fill="#eadfc4"/><rect y="2891" width="2400" height="2" fill="#eadfc4"/><rect y="2899" width="2400" height="2" fill="#eadfc4"/><rect y="2907" width="2400" height="2" fill="#eadfc4"/><rect y="2915" width="2400" height="2" fill="#eadfc4"/><rect y="2923" width="2400" height="2" fill="#eadfc4"/><rect y="2931" width="2400" height="2" fill="#eadfc4"/><rect y="2939" width="2400" height="2" fill="#eadfc4"/><rect y="2947" width="2400" height="2" fill="#eadfc4"/><rect y="2955" width="2400" height="2" fill="#eadfc4"/><rect y="2963" width="2400" height="2" fill="#eadfc4"/><rect y="2971" width="2400" height="2" fill="#eadfc4"/><rect y="2979" width="2400" height="2" fill="#eadfc4"/><rect y="2987" width="2400" height="2" fill="#eadfc4"/><rect y="2995" width="2400" height="2" fill="#eadfc4"/></g><rect x="88" y="88" width="2224" height="2824" fill="none" stroke="#3a2c1a" stroke-width="4" opacity="0.2"/><rect x="94" y="94" width="2212" height="2812" fill="none" stroke="#fff6e0" stroke-width="2" opacity="0.25"/><circle cx="716.4" cy="1358.7" r="5.8" fill="#8a5a2e" opacity="0.104"/><circle cx="1972" cy="1832.7" r="3.2" fill="#8a5a2e" opacity="0.072"/><circle cx="876.4" cy="2254.9" r="3.6" fill="#8a5a2e" opacity="0.056"/><circle cx="1095.6" cy="2467.3" r="15.8" fill="#8a5a2e" opacity="0.112"/><circle cx="210.2" cy="1700.3" r="13.7" fill="#8a5a2e" opacity="0.126"/><circle cx="1604.4" cy="1183.9" r="14.1" fill="#8a5a2e" opacity="0.054"/><circle cx="1756.4" cy="1349.3" r="12.8" fill="#8a5a2e" opacity="0.083"/><circle cx="194.1" cy="1424.3" r="7.7" fill="#8a5a2e" opacity="0.081"/><circle cx="1096.4" cy="1510.4" r="11.3" fill="#8a5a2e" opacity="0.077"/><circle cx="1118.1" cy="561.8" r="3.5" fill="#8a5a2e" opacity="0.084"/><circle cx="1193.7" cy="2706.3" r="6.8" fill="#8a5a2e" opacity="0.088"/><circle cx="1251.7" cy="577.4" r="11.2" fill="#8a5a2e" opacity="0.101"/><circle cx="428" cy="1928.7" r="9.1" fill="#8a5a2e" opacity="0.098"/><circle cx="1362.8" cy="1410.4" r="9.1" fill="#8a5a2e" opacity="0.119"/><circle cx="1560.2" cy="2841.1" r="6.7" fill="#8a5a2e" opacity="0.127"/><circle cx="1721.3" cy="1850.5" r="7.4" fill="#8a5a2e" opacity="0.072"/><circle cx="1367.6" cy="1370.2" r="5.7" fill="#8a5a2e" opacity="0.122"/><circle cx="2065.1" cy="1307.5" r="15.1" fill="#8a5a2e" opacity="0.118"/><circle cx="1894.7" cy="1095" r="10" fill="#8a5a2e" opacity="0.107"/><circle cx="1690.2" cy="893.6" r="13" fill="#8a5a2e" opacity="0.068"/><circle cx="1915" cy="2909.9" r="11.1" fill="#8a5a2e" opacity="0.078"/><circle cx="144.4" cy="389" r="11.1" fill="#8a5a2e" opacity="0.078"/><circle cx="2142.7" cy="2407.7" r="14.8" fill="#8a5a2e" opacity="0.064"/><circle cx="1123.4" cy="487.7" r="8.6" fill="#8a5a2e" opacity="0.087"/><circle cx="1902.3" cy="1796.2" r="11.9" fill="#8a5a2e" opacity="0.110"/><rect width="2400" height="3000" fill="url(#a63-vig)"/></svg></svg>