<svg xmlns="http://www.w3.org/2000/svg" width="2400" height="1800" viewBox="0 0 2400 1800"><rect width="2400" height="1800" fill="#dfe4dc"/><rect y="1400" width="2400" height="400" fill="#c2a67e"/><line x1="60" y1="1400" x2="10" y2="1800" stroke="#00000015" stroke-width="5"/><line x1="260" y1="1400" x2="210" y2="1800" stroke="#00000015" stroke-width="5"/><line x1="460" y1="1400" x2="410" y2="1800" stroke="#00000015" stroke-width="5"/><line x1="660" y1="1400" x2="610" y2="1800" stroke="#00000015" stroke-width="5"/><line x1="860" y1="1400" x2="810" y2="1800" stroke="#00000015" stroke-width="5"/><line x1="1060" y1="1400" x2="1010" y2="1800" stroke="#00000015" stroke-width="5"/><line x1="1260" y1="1400" x2="1210" y2="1800" stroke="#00000015" stroke-width="5"/><line x1="1460" y1="1400" x2="1410" y2="1800" stroke="#00000015" stroke-width="5"/><line x1="1660" y1="1400" x2="1610" y2="1800" stroke="#00000015" stroke-width="5"/><line x1="1860" y1="1400" x2="1810" y2="1800" stroke="#00000015" stroke-width="5"/><line x1="2060" y1="1400" x2="2010" y2="1800" stroke="#00000015" stroke-width="5"/><line x1="2260" y1="1400" x2="2210" y2="1800" stroke="#00000015" stroke-width="5"/><rect x="180" y="260" width="900" height="620" fill="#8a6a48"/><rect x="215" y="295" width="830" height="550" fill="#41524a"/><line x1="280" y1="420" x2="760" y2="420" stroke="#ffffff66" stroke-width="9" stroke-linecap="round"/><line x1="280" y1="520" x2="620" y2="520" stroke="#ffffff44" stroke-width="9" stroke-linecap="round"/><circle cx="880" cy="560" r="90" fill="none" stroke="#ffffff55" stroke-width="8"/><rect x="215" y="845" width="830" height="22" fill="#6f5436"/><rect x="330" y="1240" width="640" height="60" rx="10" fill="#9c7449"/><rect x="370" y="1300" width="60" height="240" fill="#8a6540"/><rect x="870" y="1300" width="60" height="240" fill="#8a6540"/><rect x="430" y="1160" width="150" height="80" rx="8" fill="#8a4423"/><rect x="450" y="1120" width="150" height="40" rx="8" fill="#e0a077"/><circle cx="800" cy="1130" r="86" fill="#7fa3b8"/><path d="M760,1060 Q820,1100 780,1190 M740,1090 Q800,1120 850,1100" stroke="#5d8069" stroke-width="16" fill="none" stroke-linecap="round"/><circle cx="800" cy="1130" r="86" fill="none" stroke="#6b5233" stroke-width="7"/><line x1="800" y1="1216" x2="800" y2="1250" stroke="#6b5233" stroke-width="10"/><rect x="750" y="1244" width="100" height="14" rx="7" fill="#6b5233"/><rect x="1980" y="700" width="300" height="800" fill="#9c7449"/><rect x="2000" y="930" width="260" height="16" fill="#7c5a37"/><rect x="2020" y="790" width="36" height="140" fill="#b3502f"/><rect x="2066" y="802" width="36" height="128" fill="#39685c"/><rect x="2112" y="790" width="36" height="140" fill="#c9a227"/><rect x="2158" y="802" width="36" height="128" fill="#2c4661"/><rect x="2204" y="790" width="36" height="140" fill="#8a4423"/><rect x="2000" y="1180" width="260" height="16" fill="#7c5a37"/><rect x="2020" y="1040" width="36" height="140" fill="#39685c"/><rect x="2066" y="1052" width="36" height="128" fill="#c9a227"/><rect x="2112" y="1040" width="36" height="140" fill="#2c4661"/><rect x="2158" y="1052" width="36" height="128" fill="#8a4423"/><rect x="2204" y="1040" width="36" height="140" fill="#b3502f"/><rect x="2000" y="1430" width="260" height="16" fill="#7c5a37"/><rect x="2020" y="1290" width="36" height="140" fill="#c9a227"/><rect x="2066" y="1302" width="36" height="128" fill="#2c4661"/><rect x="2112" y="1290" width="36" height="140" fill="#8a4423"/><rect x="2158" y="1302" width="36" height="128" fill="#b3502f"/><rect x="2204" y="1290" width="36" height="140" fill="#39685c"/><defs><filter id="a55c-sh" x="-30%" y="-30%" width="160%" height="160%"><feGaussianBlur stdDeviation="16"/></filter></defs><rect x="1340.5" y="298.5" width="517" height="635" fill="#000" opacity="0.28" filter="url(#a55c-sh)"/><rect x="1326.5" y="276.5" width="517" height="635" fill="#3d342a"/><rect x="1341.8" y="291.8" width="486.4" height="604.5" fill="none" stroke="#00000055" stroke-width="3"/><rect x="1350" y="300" width="470" height="588" fill="#f6f2ea"/><svg x="1385.3" y="335.3" width="399.5" height="517.5" viewBox="0 0 2400 3000" preserveAspectRatio="xMidYMid slice"><rect width="2400" height="3000" fill="#c8703f"/><radialGradient id="a55-vig" cx="50%" cy="42%" r="80%"><stop offset="55%" stop-color="#000" stop-opacity="0"/><stop offset="100%" stop-color="#000" stop-opacity="0.15"/></radialGradient><rect width="2400" height="3000" fill="url(#a55-vig)"/><circle cx="1822.7" cy="2163.1" r="3" fill="#26160e" opacity="0.072"/><circle cx="2242" cy="2054.1" r="2.2" fill="#26160e" opacity="0.046"/><circle cx="1602.2" cy="1088.6" r="2.7" fill="#26160e" opacity="0.069"/><circle cx="1241.3" cy="899.2" r="2.7" fill="#26160e" opacity="0.061"/><circle cx="51.4" cy="639.2" r="1.6" fill="#26160e" opacity="0.049"/><circle cx="1310.4" cy="1129" r="3.2" fill="#26160e" opacity="0.053"/><circle cx="2147.9" cy="1577.1" r="1.5" fill="#26160e" opacity="0.043"/><circle cx="145.5" cy="1493.4" r="1.8" fill="#26160e" opacity="0.063"/><circle cx="724.1" cy="1130.3" r="3.6" fill="#26160e" opacity="0.073"/><circle cx="1010.1" cy="1694.4" r="3.8" fill="#26160e" opacity="0.072"/><circle cx="92.1" cy="1161.6" r="4.1" fill="#26160e" opacity="0.031"/><circle cx="670.4" cy="960.8" r="4.1" fill="#26160e" opacity="0.038"/><circle cx="1768.1" cy="2539.1" r="1.9" fill="#26160e" opacity="0.042"/><circle cx="1250.2" cy="1665.9" r="2.7" fill="#26160e" opacity="0.046"/><circle cx="1481.2" cy="1172.6" r="3.2" fill="#26160e" opacity="0.033"/><circle cx="375" cy="289.8" r="2" fill="#26160e" opacity="0.062"/><circle cx="375.1" cy="625.1" r="2.4" fill="#26160e" opacity="0.079"/><circle cx="1749.6" cy="1022.3" r="3.8" fill="#26160e" opacity="0.060"/><circle cx="1254.3" cy="2809.1" r="2.5" fill="#26160e" opacity="0.068"/><circle cx="346.7" cy="2436.9" r="3.5" fill="#26160e" opacity="0.077"/><circle cx="834" cy="634.2" r="4.5" fill="#26160e" opacity="0.077"/><circle cx="1266.6" cy="1185.8" r="4.4" fill="#26160e" opacity="0.060"/><circle cx="501.8" cy="1813.7" r="3.6" fill="#26160e" opacity="0.045"/><circle cx="1989" cy="365.1" r="4.2" fill="#26160e" opacity="0.070"/><circle cx="1676.3" cy="818.7" r="2.1" fill="#26160e" opacity="0.051"/><circle cx="1923" cy="99.9" r="2.5" fill="#26160e" opacity="0.062"/><circle cx="1121.1" cy="441" r="3.4" fill="#26160e" opacity="0.067"/><circle cx="1201.3" cy="151.3" r="4.5" fill="#26160e" opacity="0.073"/><circle cx="2026.2" cy="1926.4" r="1.7" fill="#26160e" opacity="0.031"/><circle cx="334" cy="903.4" r="4.5" fill="#26160e" opacity="0.068"/><circle cx="1523.5" cy="2620.6" r="3.6" fill="#26160e" opacity="0.071"/><circle cx="553.5" cy="325.7" r="2.7" fill="#26160e" opacity="0.064"/><circle cx="50" cy="2724.3" r="1.9" fill="#26160e" opacity="0.077"/><circle cx="1941.5" cy="199.7" r="1.6" fill="#26160e" opacity="0.054"/><circle cx="287.3" cy="1785.5" r="2.3" fill="#26160e" opacity="0.037"/><circle cx="1449.8" cy="2788" r="2" fill="#26160e" opacity="0.070"/><circle cx="2119.1" cy="1680.6" r="2.7" fill="#26160e" opacity="0.072"/><circle cx="784.7" cy="1700.2" r="3.2" fill="#26160e" opacity="0.043"/><circle cx="1373.6" cy="880.1" r="3.4" fill="#26160e" opacity="0.048"/><circle cx="1594.7" cy="352.9" r="4.3" fill="#26160e" opacity="0.042"/><circle cx="2283.6" cy="1586.7" r="3.6" fill="#26160e" opacity="0.039"/><circle cx="2077" cy="988.4" r="1.6" fill="#26160e" opacity="0.038"/><circle cx="306.9" cy="907.1" r="4.2" fill="#26160e" opacity="0.065"/><circle cx="414.9" cy="1424.5" r="1.9" fill="#26160e" opacity="0.047"/><circle cx="749.5" cy="1829.3" r="2.8" fill="#26160e" opacity="0.031"/><circle cx="896.2" cy="2509.9" r="3.5" fill="#26160e" opacity="0.034"/><circle cx="1889.3" cy="1351.1" r="3.8" fill="#26160e" opacity="0.044"/><circle cx="1062.2" cy="2886.9" r="2.4" fill="#26160e" opacity="0.057"/><circle cx="1036.8" cy="83.1" r="2.6" fill="#26160e" opacity="0.058"/><circle cx="336.5" cy="478.4" r="3.7" fill="#26160e" opacity="0.038"/><circle cx="933.9" cy="2928.4" r="4.1" fill="#26160e" opacity="0.073"/><circle cx="765.8" cy="1372.4" r="2" fill="#26160e" opacity="0.044"/><circle cx="2215.5" cy="2362.9" r="2.3" fill="#26160e" opacity="0.080"/><circle cx="464.3" cy="1426" r="2.9" fill="#26160e" opacity="0.059"/><circle cx="351.4" cy="2882.3" r="2.2" fill="#26160e" opacity="0.069"/><circle cx="1039" cy="311.3" r="3.1" fill="#26160e" opacity="0.074"/><circle cx="190.6" cy="1638.1" r="3.2" fill="#26160e" opacity="0.044"/><circle cx="2007" cy="2283" r="2.1" fill="#26160e" opacity="0.060"/><circle cx="503" cy="224.6" r="1.6" fill="#26160e" opacity="0.059"/><circle cx="2323.3" cy="2313.5" r="4.4" fill="#26160e" opacity="0.033"/><circle cx="1500.4" cy="2316" r="2.3" fill="#26160e" opacity="0.078"/><circle cx="1944.9" cy="1884.9" r="4.1" fill="#26160e" opacity="0.043"/><circle cx="1744.9" cy="2678.3" r="4.5" fill="#26160e" opacity="0.079"/><circle cx="1752.2" cy="1881.3" r="3.8" fill="#26160e" opacity="0.069"/><circle cx="1043.7" cy="2025.2" r="1.8" fill="#26160e" opacity="0.065"/><circle cx="1149.8" cy="318.8" r="3.6" fill="#26160e" opacity="0.035"/><circle cx="1233.7" cy="643.4" r="2.1" fill="#26160e" opacity="0.039"/><circle cx="496.8" cy="1817.3" r="2.3" fill="#26160e" opacity="0.037"/><circle cx="1968" cy="2497.7" r="3.7" fill="#26160e" opacity="0.045"/><circle cx="1330.6" cy="2379.8" r="2.2" fill="#26160e" opacity="0.065"/><circle cx="1470.2" cy="689" r="3.2" fill="#26160e" opacity="0.071"/><circle cx="2112.6" cy="342.8" r="2.3" fill="#26160e" opacity="0.062"/><circle cx="677.1" cy="262" r="3.2" fill="#26160e" opacity="0.065"/><circle cx="814.7" cy="100.9" r="3.6" fill="#26160e" opacity="0.049"/><circle cx="371.3" cy="1457.4" r="1.8" fill="#26160e" opacity="0.065"/><circle cx="2216.2" cy="2374.3" r="2.4" fill="#26160e" opacity="0.064"/><circle cx="1421.1" cy="1040.8" r="1.6" fill="#26160e" opacity="0.037"/><circle cx="1818.1" cy="2372.6" r="4" fill="#26160e" opacity="0.044"/><circle cx="1370" cy="744.2" r="2.3" fill="#26160e" opacity="0.042"/><circle cx="1321.4" cy="1268.6" r="3" fill="#26160e" opacity="0.038"/><path d="M2028.4,1830.2 Q1925.3,2140.4 1695.8,2337 Q1466.3,2533.6 1207.1,2565.2 Q948,2596.7 702.5,2400 Q457,2203.3 358.5,1861.6 Q260,1520 394.6,1189 Q529.2,858.1 731.1,648.1 Q933.1,438.1 1204.3,432.8 Q1475.6,427.5 1689.4,671.5 Q1903.3,915.4 2017.4,1217.7 Q2131.6,1520 2028.4,1830.2 Z" fill="#e0a077" stroke="#26160e" stroke-width="10"/><clipPath id="a55-st"><path d="M2028.4,1830.2 Q1925.3,2140.4 1695.8,2337 Q1466.3,2533.6 1207.1,2565.2 Q948,2596.7 702.5,2400 Q457,2203.3 358.5,1861.6 Q260,1520 394.6,1189 Q529.2,858.1 731.1,648.1 Q933.1,438.1 1204.3,432.8 Q1475.6,427.5 1689.4,671.5 Q1903.3,915.4 2017.4,1217.7 Q2131.6,1520 2028.4,1830.2 Z"/></clipPath><g clip-path="url(#a55-st)"><polyline points="1200,1572.3 1203.6,1574.7 1208.3,1575.9 1213.7,1575.6 1219.4,1573.5 1224.7,1569.6 1229.1,1563.8 1231.9,1556.4 1232.8,1548 1231.4,1538.9 1227.4,1530 1220.8,1521.8 1211.8,1515.2 1200.9,1510.9 1188.6,1509.3 1175.6,1510.9 1162.8,1516 1151.1,1524.5 1141.4,1536 1134.6,1550.3 1131.3,1566.4 1132.1,1583.4 1137.3,1600.5 1146.8,1616.3 1160.3,1629.8 1177.2,1640 1196.8,1645.9 1217.9,1647 1239.3,1642.8 1259.7,1633.2 1277.7,1618.6 1292,1599.6 1301.6,1577 1305.5,1552.2 1303.3,1526.4 1294.8,1501.3 1280.1,1478.4 1259.8,1459.3 1235,1445.2 1206.8,1437.4 1176.9,1436.5 1147,1442.9 1118.9,1456.7 1094.5,1477.2 1075.2,1503.5 1062.6,1534.3 1057.6,1567.9 1060.8,1602.4 1072.5,1635.7 1092.1,1665.9 1118.9,1690.9 1151.5,1709.1 1188.2,1719.2 1226.9,1720.3 1265.4,1711.9 1301.3,1694.2 1332.6,1668 1357,1634.6 1373,1595.7 1379.4,1553.4 1375.4,1510.1 1360.9,1468.4 1336.6,1430.8 1303.4,1399.6 1263.2,1377 1218.1,1364.3 1170.6,1362.8 1123.5,1372.9 1079.5,1394.2" fill="none" stroke="#26160e" stroke-width="22" stroke-linecap="round" stroke-linejoin="round"/><polyline points="990.2,1208.8 989.9,1204.5 991.2,1199.8 994.1,1195.3 998.8,1191.5 1004.9,1188.8 1012.1,1187.9 1019.9,1189.1 1027.6,1192.6 1034.8,1198.4 1040.5,1206.3 1044.3,1216.1 1045.5,1227.1 1043.8,1238.8 1039,1250.3 1031.1,1260.7 1020.3,1269.2 1007.1,1275.1 992.3,1277.7 976.5,1276.5 961,1271.3 946.6,1262.1 934.4,1249.1 925.4,1233 920.5,1214.5 920.2,1194.7 924.8,1174.8 934.4,1156 948.8,1139.6 967.2,1126.7 988.9,1118.4 1012.5,1115.5 1036.8,1118.5 1060.3,1127.5 1081.6,1142.3 1099,1162.3 1111.5,1186.4 1118,1213.6 1117.7,1242.1 1110.4,1270.4 1096.2,1296.8 1075.7,1319.4 1049.8,1336.9 1019.8,1347.8 987.3,1351.3 954.3,1346.9 922.8,1334.4 894.5,1314.3 871.5,1287.6 855.2,1255.5 846.9,1219.7 847.4,1182.4 857,1145.6 875.5,1111.6 902,1082.5 935.3,1060.1 973.5,1046.2 1014.7,1041.7 1056.4,1047.3 1096.2,1063 1131.7,1088.1 1160.6,1121.4 1181,1161.3 1191.4,1205.6 1191,1251.8 1179.3,1297.1 1156.9,1339 1124.6,1374.8 1084.2,1402.3" fill="none" stroke="#26160e" stroke-width="22" stroke-linecap="round" stroke-linejoin="round"/><polyline points="1409.8,1208.8 1410.1,1204.5 1408.8,1199.8 1405.9,1195.3 1401.2,1191.5 1395.1,1188.8 1387.9,1187.9 1380.1,1189.1 1372.4,1192.6 1365.2,1198.4 1359.5,1206.3 1355.7,1216.1 1354.5,1227.1 1356.2,1238.8 1361,1250.3 1368.9,1260.7 1379.7,1269.2 1392.9,1275.1 1407.7,1277.7 1423.5,1276.5 1439,1271.3 1453.4,1262.1 1465.6,1249.1 1474.6,1233 1479.5,1214.5 1479.8,1194.7 1475.2,1174.8 1465.6,1156 1451.2,1139.6 1432.8,1126.7 1411.1,1118.4 1387.5,1115.5 1363.2,1118.5 1339.7,1127.5 1318.4,1142.3 1301,1162.3 1288.5,1186.4 1282,1213.6 1282.3,1242.1 1289.6,1270.4 1303.8,1296.8 1324.3,1319.4 1350.2,1336.9 1380.2,1347.8 1412.7,1351.3 1445.7,1346.9 1477.2,1334.4 1505.5,1314.3 1528.5,1287.6 1544.8,1255.5 1553.1,1219.7 1552.6,1182.4 1543,1145.6 1524.5,1111.6 1498,1082.5 1464.7,1060.1 1426.5,1046.2 1385.3,1041.7 1343.6,1047.3 1303.8,1063 1268.3,1088.1 1239.4,1121.4 1219,1161.3 1208.6,1205.6 1209,1251.8 1220.7,1297.1 1243.1,1339 1275.4,1374.8 1315.8,1402.3" fill="none" stroke="#26160e" stroke-width="22" stroke-linecap="round" stroke-linejoin="round"/><polyline points="679.2,1415.4 677.4,1415.7 675.5,1415.3 673.5,1414.2 671.8,1412.4 670.6,1409.9 670.1,1406.9 670.5,1403.7 671.8,1400.3 674.2,1397.3 677.5,1394.7 681.6,1393.1 686.3,1392.5 691.3,1393.1 696.3,1395.1 700.8,1398.5 704.5,1403.1 707,1408.8 708.1,1415.2 707.6,1422 705.2,1428.8 701.2,1434.9 695.5,1440.1 688.4,1443.9 680.4,1445.9 671.7,1445.9 663.1,1443.7 655,1439.3 648.1,1432.8 642.7,1424.6 639.4,1415 638.5,1404.7 640.2,1394.1 644.6,1384 651.4,1375 660.5,1367.8 671.3,1362.8 683.3,1360.6 695.8,1361.3 708,1365.2 719.2,1372.1 728.6,1381.6 735.5,1393.5 739.5,1406.9 740.1,1421.2 737.2,1435.5 730.7,1449 721,1460.7 708.5,1469.9 693.9,1476 678,1478.4 661.6,1476.8 645.8,1471.2 631.6,1461.8 619.9,1449.1 611.4,1433.6 606.9,1416.3 606.7,1398" fill="none" stroke="#26160e" stroke-width="14" stroke-linecap="round" stroke-linejoin="round"/><polyline points="1253,2190 1255,2191.3 1256.5,2193.5 1257.4,2196.4 1257.3,2199.8 1256.2,2203.4 1253.8,2206.8 1250.4,2209.6 1245.9,2211.6 1240.7,2212.3 1235.1,2211.6 1229.4,2209.4 1224.3,2205.5 1220,2200.1 1217.2,2193.5 1216,2185.9 1216.8,2177.9 1219.7,2170 1224.7,2162.7 1231.6,2156.6 1240.3,2152.2 1250.1,2150.1 1260.6,2150.4 1271,2153.4 1280.8,2159.1 1289.1,2167.3 1295.4,2177.6 1299.1,2189.6 1299.8,2202.5 1297.3,2215.5 1291.4,2228 1282.5,2238.9 1270.8,2247.6 1257,2253.3 1241.8,2255.6 1226.1,2254.1 1210.8,2248.6 1197,2239.4 1185.6,2226.9 1177.3,2211.5 1172.9,2194.3 1172.9,2176 1177.3,2157.9 1186.2,2141.1 1199.2,2126.6 1215.6,2115.4 1234.6,2108.4 1255.2,2106.1 1276.1,2109 1296.1,2116.9 1313.9,2129.7 1328.3,2146.8 1338.4,2167.1 1343.4,2189.7 1342.7,2213.3 1336.3,2236.4 1324.3,2257.6 1307.2,2275.6" fill="none" stroke="#26160e" stroke-width="14" stroke-linecap="round" stroke-linejoin="round"/><polyline points="1659.8,1233.2 1657.6,1233.9 1655.6,1235.4 1654,1237.7 1653.1,1240.8 1653.1,1244.3 1654.2,1248 1656.5,1251.6 1659.9,1254.6 1664.4,1256.8 1669.6,1257.8 1675.3,1257.4 1681.1,1255.4 1686.4,1251.8 1690.9,1246.6 1694.2,1240.2 1695.8,1232.8 1695.4,1224.8 1693,1216.9 1688.5,1209.4 1682,1203 1673.8,1198.2 1664.3,1195.5 1654.1,1195.2 1643.7,1197.5 1633.9,1202.5 1625.3,1209.9 1618.5,1219.6 1614.2,1231 1612.7,1243.4 1614.4,1256.3 1619.3,1268.6 1627.3,1279.8 1638,1288.9 1651,1295.3 1665.5,1298.4 1680.7,1297.9 1695.8,1293.7 1709.6,1285.7 1721.4,1274.3 1730.3,1260 1735.6,1243.7 1736.9,1226.2 1733.7,1208.5 1726.3,1191.8 1714.7,1177.1 1699.7,1165.3 1681.9,1157.4 1662.3,1153.9 1642.1,1155.3 1622.5,1161.7 1604.6,1172.8 1589.7,1188.2 1578.8,1207.1 1572.6,1228.4 1571.8,1250.9 1576.4,1273.4 1586.6,1294.4" fill="none" stroke="#26160e" stroke-width="14" stroke-linecap="round" stroke-linejoin="round"/><polyline points="521.8,2450 556.5,2373.5 591.1,2450" fill="none" stroke="#26160e" stroke-width="12.6"/><polyline points="620.8,2450 655.5,2373.5 690.1,2450" fill="none" stroke="#26160e" stroke-width="12.6"/><polyline points="719.8,2450 754.5,2373.5 789.1,2450" fill="none" stroke="#26160e" stroke-width="12.6"/><polyline points="818.9,2450 853.5,2373.5 888.1,2450" fill="none" stroke="#26160e" stroke-width="12.6"/><polyline points="917.9,2450 952.5,2373.5 987.1,2450" fill="none" stroke="#26160e" stroke-width="12.6"/><polyline points="1016.9,2450 1051.5,2373.5 1086.2,2450" fill="none" stroke="#26160e" stroke-width="12.6"/><polyline points="1115.8,2450 1150.5,2373.5 1185.2,2450" fill="none" stroke="#26160e" stroke-width="12.6"/><polyline points="1214.8,2450 1249.5,2373.5 1284.2,2450" fill="none" stroke="#26160e" stroke-width="12.6"/><polyline points="1313.8,2450 1348.5,2373.5 1383.2,2450" fill="none" stroke="#26160e" stroke-width="12.6"/><polyline points="1412.8,2450 1447.5,2373.5 1482.2,2450" fill="none" stroke="#26160e" stroke-width="12.6"/><polyline points="1511.8,2450 1546.5,2373.5 1581.2,2450" fill="none" stroke="#26160e" stroke-width="12.6"/><polyline points="1610.8,2450 1645.5,2373.5 1680.2,2450" fill="none" stroke="#26160e" stroke-width="12.6"/><polyline points="1709.8,2450 1744.5,2373.5 1779.2,2450" fill="none" stroke="#26160e" stroke-width="12.6"/><polyline points="1808.8,2450 1843.5,2373.5 1878.2,2450" fill="none" stroke="#26160e" stroke-width="12.6"/></g><circle cx="390" cy="200" r="15.6" fill="#26160e"/><circle cx="450" cy="200" r="15.6" fill="#26160e"/><circle cx="510" cy="200" r="15.6" fill="#26160e"/><circle cx="570" cy="200" r="15.6" fill="#26160e"/><circle cx="630" cy="200" r="15.6" fill="#26160e"/><circle cx="690" cy="200" r="15.6" fill="#26160e"/><circle cx="750" cy="200" r="15.6" fill="#26160e"/><circle cx="810" cy="200" r="15.6" fill="#26160e"/><circle cx="870" cy="200" r="15.6" fill="#26160e"/><circle cx="930" cy="200" r="15.6" fill="#26160e"/><circle cx="990" cy="200" r="15.6" fill="#26160e"/><circle cx="1050" cy="200" r="15.6" fill="#26160e"/><circle cx="1110" cy="200" r="15.6" fill="#26160e"/><circle cx="1170" cy="200" r="15.6" fill="#26160e"/><circle cx="1230" cy="200" r="15.6" fill="#26160e"/><circle cx="1290" cy="200" r="15.6" fill="#26160e"/><circle cx="1350" cy="200" r="15.6" fill="#26160e"/><circle cx="1410" cy="200" r="15.6" fill="#26160e"/><circle cx="1470" cy="200" r="15.6" fill="#26160e"/><circle cx="1530" cy="200" r="15.6" fill="#26160e"/><circle cx="1590" cy="200" r="15.6" fill="#26160e"/><circle cx="1650" cy="200" r="15.6" fill="#26160e"/><circle cx="1710" cy="200" r="15.6" fill="#26160e"/><circle cx="1770" cy="200" r="15.6" fill="#26160e"/><circle cx="1830" cy="200" r="15.6" fill="#26160e"/><circle cx="1890" cy="200" r="15.6" fill="#26160e"/><circle cx="1950" cy="200" r="15.6" fill="#26160e"/><circle cx="2010" cy="200" r="15.6" fill="#26160e"/><circle cx="390" cy="2800" r="15.6" fill="#26160e"/><circle cx="450" cy="2800" r="15.6" fill="#26160e"/><circle cx="510" cy="2800" r="15.6" fill="#26160e"/><circle cx="570" cy="2800" r="15.6" fill="#26160e"/><circle cx="630" cy="2800" r="15.6" fill="#26160e"/><circle cx="690" cy="2800" r="15.6" fill="#26160e"/><circle cx="750" cy="2800" r="15.6" fill="#26160e"/><circle cx="810" cy="2800" r="15.6" fill="#26160e"/><circle cx="870" cy="2800" r="15.6" fill="#26160e"/><circle cx="930" cy="2800" r="15.6" fill="#26160e"/><circle cx="990" cy="2800" r="15.6" fill="#26160e"/><circle cx="1050" cy="2800" r="15.6" fill="#26160e"/><circle cx="1110" cy="2800" r="15.6" fill="#26160e"/><circle cx="1170" cy="2800" r="15.6" fill="#26160e"/><circle cx="1230" cy="2800" r="15.6" fill="#26160e"/><circle cx="1290" cy="2800" r="15.6" fill="#26160e"/><circle cx="1350" cy="2800" r="15.6" fill="#26160e"/><circle cx="1410" cy="2800" r="15.6" fill="#26160e"/><circle cx="1470" cy="2800" r="15.6" fill="#26160e"/><circle cx="1530" cy="2800" r="15.6" fill="#26160e"/><circle cx="1590" cy="2800" r="15.6" fill="#26160e"/><circle cx="1650" cy="2800" r="15.6" fill="#26160e"/><circle cx="1710" cy="2800" r="15.6" fill="#26160e"/><circle cx="1770" cy="2800" r="15.6" fill="#26160e"/><circle cx="1830" cy="2800" r="15.6" fill="#26160e"/><circle cx="1890" cy="2800" r="15.6" fill="#26160e"/><circle cx="1950" cy="2800" r="15.6" fill="#26160e"/><circle cx="2010" cy="2800" r="15.6" fill="#26160e"/><rect x="100" y="100" width="2200" height="2800" fill="none" stroke="#26160e" stroke-width="9"/><rect x="142" y="142" width="2116" height="2716" fill="none" stroke="#26160e" stroke-width="3" opacity="0.65"/></svg></svg>