<svg xmlns="http://www.w3.org/2000/svg" width="2400" height="1800" viewBox="0 0 2400 1800"><rect width="2400" height="1800" fill="#e3dccd"/><rect x="160" y="240" width="560" height="1060" fill="none" stroke="#cabfa9" stroke-width="10"/><rect x="200" y="280" width="480" height="980" fill="none" stroke="#cabfa9" stroke-width="5"/><rect x="1680" y="240" width="560" height="1060" fill="none" stroke="#cabfa9" stroke-width="10"/><rect x="1720" y="280" width="480" height="980" fill="none" stroke="#cabfa9" stroke-width="5"/><rect y="1380" width="2400" height="420" fill="#a98f6d"/><line x1="0" y1="1380" x2="-70" y2="1800" stroke="#00000018" stroke-width="6"/><line x1="190" y1="1380" x2="120" y2="1800" stroke="#00000018" stroke-width="6"/><line x1="380" y1="1380" x2="310" y2="1800" stroke="#00000018" stroke-width="6"/><line x1="570" y1="1380" x2="500" y2="1800" stroke="#00000018" stroke-width="6"/><line x1="760" y1="1380" x2="690" y2="1800" stroke="#00000018" stroke-width="6"/><line x1="950" y1="1380" x2="880" y2="1800" stroke="#00000018" stroke-width="6"/><line x1="1140" y1="1380" x2="1070" y2="1800" stroke="#00000018" stroke-width="6"/><line x1="1330" y1="1380" x2="1260" y2="1800" stroke="#00000018" stroke-width="6"/><line x1="1520" y1="1380" x2="1450" y2="1800" stroke="#00000018" stroke-width="6"/><line x1="1710" y1="1380" x2="1640" y2="1800" stroke="#00000018" stroke-width="6"/><line x1="1900" y1="1380" x2="1830" y2="1800" stroke="#00000018" stroke-width="6"/><line x1="2090" y1="1380" x2="2020" y2="1800" stroke="#00000018" stroke-width="6"/><line x1="2280" y1="1380" x2="2210" y2="1800" stroke="#00000018" stroke-width="6"/><rect y="1364" width="2400" height="18" fill="#d3c8b2"/><path d="M700,1500 L1700,1500 L1860,1800 L540,1800 Z" fill="#87681c" opacity="0.75"/><path d="M760,1540 L1640,1540 L1760,1760 L640,1760 Z" fill="none" stroke="#f4ecdd" stroke-width="10" opacity="0.8"/><rect x="880" y="1180" width="640" height="40" rx="8" fill="#6f5436"/><rect x="920" y="1220" width="44" height="240" fill="#5e4629"/><rect x="1436" y="1220" width="44" height="240" fill="#5e4629"/><path d="M1160,1180 q -14,-90 40,-160 M1200,1180 q 4,-120 -10,-200 M1230,1180 q 30,-90 90,-130" stroke="#5d7052" stroke-width="12" fill="none" stroke-linecap="round"/><path d="M1150,1180 L1250,1180 L1230,1080 L1170,1080 Z" fill="#233142" transform="translate(0,0)"/><path d="M1155,1060 h90 l-12,124 h-66 Z" fill="#b98a5a"/><rect x="1380" y="1120" width="18" height="60" fill="#8f6b3d"/><ellipse cx="1389" cy="1116" rx="16" ry="10" fill="#c9a227"/><defs><filter id="a20h-sh" x="-30%" y="-30%" width="160%" height="160%"><feGaussianBlur stdDeviation="16"/></filter></defs><rect x="950" y="258" width="528" height="648" fill="#000" opacity="0.28" filter="url(#a20h-sh)"/><rect x="936" y="236" width="528" height="648" fill="#33291f"/><rect x="951.6" y="251.6" width="496.8" height="616.8" fill="none" stroke="#00000055" stroke-width="3"/><rect x="960" y="260" width="480" height="600" fill="#f6f2ea"/><svg x="996" y="296" width="408" height="528" viewBox="0 0 2400 3000" preserveAspectRatio="xMidYMid slice"><rect width="2400" height="3000" fill="#141b25"/><radialGradient id="a20-vig" cx="50%" cy="42%" r="80%"><stop offset="55%" stop-color="#000" stop-opacity="0"/><stop offset="100%" stop-color="#000" stop-opacity="0.15"/></radialGradient><rect width="2400" height="3000" fill="url(#a20-vig)"/><circle cx="2044.6" cy="1328" r="2.6" fill="#c9a227" opacity="0.062"/><circle cx="1323.7" cy="2524.3" r="1.5" fill="#c9a227" opacity="0.034"/><circle cx="936.4" cy="2096" r="3.4" fill="#c9a227" opacity="0.041"/><circle cx="334.6" cy="2387.8" r="2.8" fill="#c9a227" opacity="0.073"/><circle cx="643.7" cy="650.3" r="3.2" fill="#c9a227" opacity="0.080"/><circle cx="1428.2" cy="236" r="3" fill="#c9a227" opacity="0.054"/><circle cx="1908.7" cy="449.7" r="2.3" fill="#c9a227" opacity="0.043"/><circle cx="1664.7" cy="1015.7" r="2.5" fill="#c9a227" opacity="0.074"/><circle cx="311.3" cy="1367.5" r="1.7" fill="#c9a227" opacity="0.041"/><circle cx="667.7" cy="293.6" r="3.3" fill="#c9a227" opacity="0.068"/><circle cx="621.8" cy="1793.2" r="2.5" fill="#c9a227" opacity="0.069"/><circle cx="1933.9" cy="253.1" r="3.6" fill="#c9a227" opacity="0.034"/><circle cx="1731.8" cy="1878.9" r="3.8" fill="#c9a227" opacity="0.066"/><circle cx="1369.9" cy="2632.4" r="2.6" fill="#c9a227" opacity="0.064"/><circle cx="1155.6" cy="1056.7" r="3.5" fill="#c9a227" opacity="0.038"/><circle cx="1243.7" cy="2887.1" r="3.4" fill="#c9a227" opacity="0.068"/><circle cx="503.6" cy="2066.5" r="1.9" fill="#c9a227" opacity="0.031"/><circle cx="1316" cy="1575" r="3.1" fill="#c9a227" opacity="0.071"/><circle cx="291" cy="518.4" r="2.8" fill="#c9a227" opacity="0.062"/><circle cx="974.9" cy="383.4" r="2.4" fill="#c9a227" opacity="0.075"/><circle cx="1628.5" cy="1295" r="1.9" fill="#c9a227" opacity="0.066"/><circle cx="1871" cy="2762.1" r="2.5" fill="#c9a227" opacity="0.044"/><circle cx="1944.7" cy="645.4" r="2.1" fill="#c9a227" opacity="0.076"/><circle cx="1477.7" cy="2287.9" r="4.2" fill="#c9a227" opacity="0.048"/><circle cx="1231.2" cy="713.8" r="4.4" fill="#c9a227" opacity="0.040"/><circle cx="819.1" cy="464" r="2.5" fill="#c9a227" opacity="0.064"/><circle cx="1861" cy="1751.7" r="3.8" fill="#c9a227" opacity="0.056"/><circle cx="1825.8" cy="618.9" r="3.1" fill="#c9a227" opacity="0.041"/><circle cx="217.5" cy="274.4" r="2.9" fill="#c9a227" opacity="0.060"/><circle cx="1646.1" cy="1756.1" r="3.8" fill="#c9a227" opacity="0.069"/><circle cx="2184.3" cy="1480" r="3.7" fill="#c9a227" opacity="0.044"/><circle cx="2142.3" cy="1651.1" r="4.1" fill="#c9a227" opacity="0.049"/><circle cx="1409.2" cy="2745.2" r="4.3" fill="#c9a227" opacity="0.055"/><circle cx="1852" cy="1728.6" r="2.7" fill="#c9a227" opacity="0.054"/><circle cx="1276.5" cy="387.9" r="4.1" fill="#c9a227" opacity="0.046"/><circle cx="601.1" cy="2770.7" r="4.2" fill="#c9a227" opacity="0.069"/><circle cx="351.6" cy="2612.4" r="2.9" fill="#c9a227" opacity="0.052"/><circle cx="675.4" cy="1392.9" r="2.2" fill="#c9a227" opacity="0.063"/><circle cx="272.5" cy="2060.1" r="4.4" fill="#c9a227" opacity="0.051"/><circle cx="2325.4" cy="1063.1" r="3.2" fill="#c9a227" opacity="0.070"/><circle cx="1840.6" cy="223.5" r="2.9" fill="#c9a227" opacity="0.053"/><circle cx="1705.4" cy="1049.2" r="3.6" fill="#c9a227" opacity="0.060"/><circle cx="2314.1" cy="544" r="3" fill="#c9a227" opacity="0.032"/><circle cx="1682.9" cy="240.6" r="3.4" fill="#c9a227" opacity="0.057"/><circle cx="758.2" cy="2181.7" r="4.5" fill="#c9a227" opacity="0.067"/><circle cx="2015.1" cy="2658.2" r="2" fill="#c9a227" opacity="0.056"/><circle cx="1265.6" cy="181.8" r="2.8" fill="#c9a227" opacity="0.033"/><circle cx="2186.6" cy="322.2" r="2.1" fill="#c9a227" opacity="0.066"/><circle cx="1589.4" cy="298.9" r="3.6" fill="#c9a227" opacity="0.073"/><circle cx="1506.6" cy="1932.8" r="2.6" fill="#c9a227" opacity="0.066"/><circle cx="1220.2" cy="2950.4" r="4.3" fill="#c9a227" opacity="0.049"/><circle cx="2184" cy="2343.8" r="3.2" fill="#c9a227" opacity="0.053"/><circle cx="894.7" cy="1284.6" r="4.2" fill="#c9a227" opacity="0.033"/><circle cx="1942.8" cy="1504.8" r="4" fill="#c9a227" opacity="0.047"/><circle cx="2049.7" cy="1488.5" r="3.7" fill="#c9a227" opacity="0.052"/><circle cx="146.4" cy="1393.8" r="3.2" fill="#c9a227" opacity="0.035"/><circle cx="1725.1" cy="2294.6" r="2.9" fill="#c9a227" opacity="0.048"/><circle cx="2054.7" cy="1519.1" r="3.6" fill="#c9a227" opacity="0.035"/><circle cx="357.8" cy="2129.7" r="3.2" fill="#c9a227" opacity="0.044"/><circle cx="977.2" cy="62.8" r="4.4" fill="#c9a227" opacity="0.044"/><circle cx="874.9" cy="701.8" r="3" fill="#c9a227" opacity="0.066"/><circle cx="529.1" cy="480.2" r="3.3" fill="#c9a227" opacity="0.063"/><circle cx="1722.3" cy="901.9" r="2.6" fill="#c9a227" opacity="0.035"/><circle cx="366.1" cy="2482.9" r="2.6" fill="#c9a227" opacity="0.059"/><circle cx="434.7" cy="243.2" r="3.7" fill="#c9a227" opacity="0.058"/><circle cx="1375.7" cy="703.6" r="2.3" fill="#c9a227" opacity="0.080"/><circle cx="795" cy="1726.7" r="3" fill="#c9a227" opacity="0.056"/><circle cx="1783.6" cy="2366.9" r="2.9" fill="#c9a227" opacity="0.031"/><circle cx="1782.6" cy="1387.3" r="2.1" fill="#c9a227" opacity="0.060"/><circle cx="819.6" cy="2160.9" r="3.5" fill="#c9a227" opacity="0.057"/><circle cx="1708.6" cy="397.3" r="1.6" fill="#c9a227" opacity="0.035"/><circle cx="2275" cy="521.1" r="1.8" fill="#c9a227" opacity="0.055"/><circle cx="1174.6" cy="1138.9" r="2.6" fill="#c9a227" opacity="0.069"/><circle cx="750.4" cy="610.9" r="2.9" fill="#c9a227" opacity="0.035"/><circle cx="2012.7" cy="2199.7" r="4" fill="#c9a227" opacity="0.079"/><circle cx="498" cy="263.6" r="4.5" fill="#c9a227" opacity="0.035"/><circle cx="1071.1" cy="1808.9" r="2.2" fill="#c9a227" opacity="0.075"/><circle cx="1955.7" cy="1844.2" r="3.8" fill="#c9a227" opacity="0.077"/><circle cx="1436.8" cy="2038.4" r="2.9" fill="#c9a227" opacity="0.037"/><circle cx="1575" cy="1568.8" r="3.6" fill="#c9a227" opacity="0.074"/><rect x="210" y="300" width="1980" height="8.9" fill="#c9a227"/><rect x="210" y="308.4" width="1980" height="8.9" fill="#87681c"/><rect x="210" y="316.8" width="1980" height="8.9" fill="#c9a227"/><rect x="210" y="325.2" width="1980" height="8.9" fill="#233142"/><rect x="210" y="333.6" width="1980" height="8.9" fill="#c9a227"/><rect x="210" y="885" width="1980" height="8.9" fill="#c9a227"/><rect x="210" y="893.4" width="1980" height="8.9" fill="#87681c"/><rect x="210" y="901.8" width="1980" height="8.9" fill="#c9a227"/><rect x="210" y="910.2" width="1980" height="8.9" fill="#233142"/><rect x="210" y="918.6" width="1980" height="8.9" fill="#c9a227"/><rect x="210" y="1470" width="1980" height="8.9" fill="#c9a227"/><rect x="210" y="1478.4" width="1980" height="8.9" fill="#87681c"/><rect x="210" y="1486.8" width="1980" height="8.9" fill="#c9a227"/><rect x="210" y="1495.2" width="1980" height="8.9" fill="#233142"/><rect x="210" y="1503.6" width="1980" height="8.9" fill="#c9a227"/><rect x="210" y="2055" width="1980" height="8.9" fill="#c9a227"/><rect x="210" y="2063.4" width="1980" height="8.9" fill="#87681c"/><rect x="210" y="2071.8" width="1980" height="8.9" fill="#c9a227"/><rect x="210" y="2080.2" width="1980" height="8.9" fill="#233142"/><rect x="210" y="2088.6" width="1980" height="8.9" fill="#c9a227"/><rect x="210" y="2640" width="1980" height="8.9" fill="#c9a227"/><rect x="210" y="2648.4" width="1980" height="8.9" fill="#87681c"/><rect x="210" y="2656.8" width="1980" height="8.9" fill="#c9a227"/><rect x="210" y="2665.2" width="1980" height="8.9" fill="#233142"/><rect x="210" y="2673.6" width="1980" height="8.9" fill="#c9a227"/><path d="M0 0 Q 75.8 -117.8 0 -310 Q -75.8 -117.8 0 0 Z" fill="#c9a227" opacity="1" transform="translate(408 809.7) rotate(-58)"/><path d="M0 0 Q 75.8 -138.9 0 -365.5 Q -75.8 -138.9 0 0 Z" fill="#87681c" opacity="1" transform="translate(408 809.7) rotate(-29)"/><path d="M0 0 Q 75.8 -160 0 -421 Q -75.8 -160 0 0 Z" fill="#c9a227" opacity="1" transform="translate(408 809.7) rotate(0)"/><path d="M0 0 Q 75.8 -138.9 0 -365.5 Q -75.8 -138.9 0 0 Z" fill="#87681c" opacity="1" transform="translate(408 809.7) rotate(29)"/><path d="M0 0 Q 75.8 -117.8 0 -310 Q -75.8 -117.8 0 0 Z" fill="#c9a227" opacity="1" transform="translate(408 809.7) rotate(58)"/><path d="M281.7,809.7 Q408,952.8 534.3,809.7 Z" fill="#c9a227"/><path d="M0 0 Q 58.6 -111.4 0 -293.2 Q -58.6 -111.4 0 0 Z" fill="#87681c" opacity="1" transform="translate(804 809.7) rotate(0)"/><line x1="804" y1="809.7" x2="804" y2="856.5" stroke="#c9a227" stroke-width="18.3"/><path d="M0 0 Q 73.4 -114 0 -300.1 Q -73.4 -114 0 0 Z" fill="#c9a227" opacity="1" transform="translate(1200 809.7) rotate(-58)"/><path d="M0 0 Q 73.4 -130.4 0 -343 Q -73.4 -130.4 0 0 Z" fill="#87681c" opacity="1" transform="translate(1200 809.7) rotate(-34.8)"/><path d="M0 0 Q 73.4 -146.7 0 -386 Q -73.4 -146.7 0 0 Z" fill="#c9a227" opacity="1" transform="translate(1200 809.7) rotate(-11.6)"/><path d="M0 0 Q 73.4 -146.7 0 -386 Q -73.4 -146.7 0 0 Z" fill="#87681c" opacity="1" transform="translate(1200 809.7) rotate(11.6)"/><path d="M0 0 Q 73.4 -130.4 0 -343 Q -73.4 -130.4 0 0 Z" fill="#c9a227" opacity="1" transform="translate(1200 809.7) rotate(34.8)"/><path d="M0 0 Q 73.4 -114 0 -300.1 Q -73.4 -114 0 0 Z" fill="#87681c" opacity="1" transform="translate(1200 809.7) rotate(58)"/><path d="M1077.7,809.7 Q1200,948.3 1322.3,809.7 Z" fill="#c9a227"/><path d="M0 0 Q 60.5 -115 0 -302.6 Q -60.5 -115 0 0 Z" fill="#87681c" opacity="1" transform="translate(1596 809.7) rotate(0)"/><line x1="1596" y1="809.7" x2="1596" y2="856.5" stroke="#c9a227" stroke-width="18.9"/><path d="M0 0 Q 66 -102.5 0 -269.9 Q -66 -102.5 0 0 Z" fill="#c9a227" opacity="1" transform="translate(1992 809.7) rotate(-58)"/><path d="M0 0 Q 66 -120.9 0 -318.2 Q -66 -120.9 0 0 Z" fill="#87681c" opacity="1" transform="translate(1992 809.7) rotate(-29)"/><path d="M0 0 Q 66 -139.3 0 -366.5 Q -66 -139.3 0 0 Z" fill="#c9a227" opacity="1" transform="translate(1992 809.7) rotate(0)"/><path d="M0 0 Q 66 -120.9 0 -318.2 Q -66 -120.9 0 0 Z" fill="#87681c" opacity="1" transform="translate(1992 809.7) rotate(29)"/><path d="M0 0 Q 66 -102.5 0 -269.9 Q -66 -102.5 0 0 Z" fill="#c9a227" opacity="1" transform="translate(1992 809.7) rotate(58)"/><path d="M1882.1,809.7 Q1992,934.3 2101.9,809.7 Z" fill="#c9a227"/><line x1="457.5" y1="1394.7" x2="457.5" y2="1163.1" stroke="#c9a227" stroke-width="25.3"/><line x1="457.5" y1="1163.1" x2="291" y2="1081.9" stroke="#c9a227" stroke-width="18.9" stroke-linecap="round"/><circle cx="291" cy="1081.9" r="18.9" fill="#87681c"/><line x1="457.5" y1="1163.1" x2="305.7" y2="1026.5" stroke="#c9a227" stroke-width="18.9" stroke-linecap="round"/><circle cx="305.7" cy="1026.5" r="18.9" fill="#87681c"/><line x1="457.5" y1="1163.1" x2="339.2" y2="973.8" stroke="#c9a227" stroke-width="18.9" stroke-linecap="round"/><circle cx="339.2" cy="973.8" r="18.9" fill="#87681c"/><line x1="457.5" y1="1163.1" x2="390.8" y2="930.4" stroke="#c9a227" stroke-width="18.9" stroke-linecap="round"/><circle cx="390.8" cy="930.4" r="18.9" fill="#87681c"/><line x1="457.5" y1="1163.1" x2="457.5" y2="902" stroke="#c9a227" stroke-width="18.9" stroke-linecap="round"/><circle cx="457.5" cy="902" r="18.9" fill="#87681c"/><line x1="457.5" y1="1163.1" x2="524.2" y2="930.4" stroke="#c9a227" stroke-width="18.9" stroke-linecap="round"/><circle cx="524.2" cy="930.4" r="18.9" fill="#87681c"/><line x1="457.5" y1="1163.1" x2="575.8" y2="973.8" stroke="#c9a227" stroke-width="18.9" stroke-linecap="round"/><circle cx="575.8" cy="973.8" r="18.9" fill="#87681c"/><line x1="457.5" y1="1163.1" x2="609.3" y2="1026.5" stroke="#c9a227" stroke-width="18.9" stroke-linecap="round"/><circle cx="609.3" cy="1026.5" r="18.9" fill="#87681c"/><line x1="457.5" y1="1163.1" x2="624" y2="1081.9" stroke="#c9a227" stroke-width="18.9" stroke-linecap="round"/><circle cx="624" cy="1081.9" r="18.9" fill="#87681c"/><line x1="952.5" y1="1394.7" x2="952.5" y2="1176.4" stroke="#c9a227" stroke-width="23.8"/><line x1="952.5" y1="1176.4" x2="795.5" y2="1099.8" stroke="#c9a227" stroke-width="17.9" stroke-linecap="round"/><circle cx="795.5" cy="1099.8" r="17.9" fill="#87681c"/><line x1="952.5" y1="1176.4" x2="809.4" y2="1047.6" stroke="#c9a227" stroke-width="17.9" stroke-linecap="round"/><circle cx="809.4" cy="1047.6" r="17.9" fill="#87681c"/><line x1="952.5" y1="1176.4" x2="841" y2="998" stroke="#c9a227" stroke-width="17.9" stroke-linecap="round"/><circle cx="841" cy="998" r="17.9" fill="#87681c"/><line x1="952.5" y1="1176.4" x2="889.6" y2="957" stroke="#c9a227" stroke-width="17.9" stroke-linecap="round"/><circle cx="889.6" cy="957" r="17.9" fill="#87681c"/><line x1="952.5" y1="1176.4" x2="952.5" y2="930.3" stroke="#c9a227" stroke-width="17.9" stroke-linecap="round"/><circle cx="952.5" cy="930.3" r="17.9" fill="#87681c"/><line x1="952.5" y1="1176.4" x2="1015.4" y2="957" stroke="#c9a227" stroke-width="17.9" stroke-linecap="round"/><circle cx="1015.4" cy="957" r="17.9" fill="#87681c"/><line x1="952.5" y1="1176.4" x2="1064" y2="998" stroke="#c9a227" stroke-width="17.9" stroke-linecap="round"/><circle cx="1064" cy="998" r="17.9" fill="#87681c"/><line x1="952.5" y1="1176.4" x2="1095.6" y2="1047.6" stroke="#c9a227" stroke-width="17.9" stroke-linecap="round"/><circle cx="1095.6" cy="1047.6" r="17.9" fill="#87681c"/><line x1="952.5" y1="1176.4" x2="1109.5" y2="1099.8" stroke="#c9a227" stroke-width="17.9" stroke-linecap="round"/><circle cx="1109.5" cy="1099.8" r="17.9" fill="#87681c"/><line x1="1447.5" y1="1394.7" x2="1447.5" y2="1180.7" stroke="#c9a227" stroke-width="23.3"/><line x1="1447.5" y1="1180.7" x2="1293.6" y2="1105.7" stroke="#c9a227" stroke-width="17.5" stroke-linecap="round"/><circle cx="1293.6" cy="1105.7" r="17.5" fill="#87681c"/><line x1="1447.5" y1="1180.7" x2="1307.3" y2="1054.5" stroke="#c9a227" stroke-width="17.5" stroke-linecap="round"/><circle cx="1307.3" cy="1054.5" r="17.5" fill="#87681c"/><line x1="1447.5" y1="1180.7" x2="1338.2" y2="1005.9" stroke="#c9a227" stroke-width="17.5" stroke-linecap="round"/><circle cx="1338.2" cy="1005.9" r="17.5" fill="#87681c"/><line x1="1447.5" y1="1180.7" x2="1385.8" y2="965.7" stroke="#c9a227" stroke-width="17.5" stroke-linecap="round"/><circle cx="1385.8" cy="965.7" r="17.5" fill="#87681c"/><line x1="1447.5" y1="1180.7" x2="1447.5" y2="939.5" stroke="#c9a227" stroke-width="17.5" stroke-linecap="round"/><circle cx="1447.5" cy="939.5" r="17.5" fill="#87681c"/><line x1="1447.5" y1="1180.7" x2="1509.2" y2="965.7" stroke="#c9a227" stroke-width="17.5" stroke-linecap="round"/><circle cx="1509.2" cy="965.7" r="17.5" fill="#87681c"/><line x1="1447.5" y1="1180.7" x2="1556.8" y2="1005.9" stroke="#c9a227" stroke-width="17.5" stroke-linecap="round"/><circle cx="1556.8" cy="1005.9" r="17.5" fill="#87681c"/><line x1="1447.5" y1="1180.7" x2="1587.7" y2="1054.5" stroke="#c9a227" stroke-width="17.5" stroke-linecap="round"/><circle cx="1587.7" cy="1054.5" r="17.5" fill="#87681c"/><line x1="1447.5" y1="1180.7" x2="1601.4" y2="1105.7" stroke="#c9a227" stroke-width="17.5" stroke-linecap="round"/><circle cx="1601.4" cy="1105.7" r="17.5" fill="#87681c"/><line x1="1942.5" y1="1394.7" x2="1942.5" y2="1166.9" stroke="#c9a227" stroke-width="24.8"/><line x1="1942.5" y1="1166.9" x2="1778.7" y2="1087" stroke="#c9a227" stroke-width="18.6" stroke-linecap="round"/><circle cx="1778.7" cy="1087" r="18.6" fill="#87681c"/><line x1="1942.5" y1="1166.9" x2="1793.2" y2="1032.5" stroke="#c9a227" stroke-width="18.6" stroke-linecap="round"/><circle cx="1793.2" cy="1032.5" r="18.6" fill="#87681c"/><line x1="1942.5" y1="1166.9" x2="1826.2" y2="980.8" stroke="#c9a227" stroke-width="18.6" stroke-linecap="round"/><circle cx="1826.2" cy="980.8" r="18.6" fill="#87681c"/><line x1="1942.5" y1="1166.9" x2="1876.9" y2="938" stroke="#c9a227" stroke-width="18.6" stroke-linecap="round"/><circle cx="1876.9" cy="938" r="18.6" fill="#87681c"/><line x1="1942.5" y1="1166.9" x2="1942.5" y2="910.1" stroke="#c9a227" stroke-width="18.6" stroke-linecap="round"/><circle cx="1942.5" cy="910.1" r="18.6" fill="#87681c"/><line x1="1942.5" y1="1166.9" x2="2008.1" y2="938" stroke="#c9a227" stroke-width="18.6" stroke-linecap="round"/><circle cx="2008.1" cy="938" r="18.6" fill="#87681c"/><line x1="1942.5" y1="1166.9" x2="2058.8" y2="980.8" stroke="#c9a227" stroke-width="18.6" stroke-linecap="round"/><circle cx="2058.8" cy="980.8" r="18.6" fill="#87681c"/><line x1="1942.5" y1="1166.9" x2="2091.8" y2="1032.5" stroke="#c9a227" stroke-width="18.6" stroke-linecap="round"/><circle cx="2091.8" cy="1032.5" r="18.6" fill="#87681c"/><line x1="1942.5" y1="1166.9" x2="2106.3" y2="1087" stroke="#c9a227" stroke-width="18.6" stroke-linecap="round"/><circle cx="2106.3" cy="1087" r="18.6" fill="#87681c"/><path d="M0 0 Q 75.5 -117.3 0 -308.8 Q -75.5 -117.3 0 0 Z" fill="#c9a227" opacity="1" transform="translate(408 1979.7) rotate(-58)"/><path d="M0 0 Q 75.5 -134.1 0 -353 Q -75.5 -134.1 0 0 Z" fill="#87681c" opacity="1" transform="translate(408 1979.7) rotate(-34.8)"/><path d="M0 0 Q 75.5 -151 0 -397.2 Q -75.5 -151 0 0 Z" fill="#c9a227" opacity="1" transform="translate(408 1979.7) rotate(-11.6)"/><path d="M0 0 Q 75.5 -151 0 -397.2 Q -75.5 -151 0 0 Z" fill="#87681c" opacity="1" transform="translate(408 1979.7) rotate(11.6)"/><path d="M0 0 Q 75.5 -134.1 0 -353 Q -75.5 -134.1 0 0 Z" fill="#c9a227" opacity="1" transform="translate(408 1979.7) rotate(34.8)"/><path d="M0 0 Q 75.5 -117.3 0 -308.8 Q -75.5 -117.3 0 0 Z" fill="#87681c" opacity="1" transform="translate(408 1979.7) rotate(58)"/><path d="M282.2,1979.7 Q408,2122.3 533.8,1979.7 Z" fill="#c9a227"/><path d="M0 0 Q 60 -114 0 -300.1 Q -60 -114 0 0 Z" fill="#87681c" opacity="1" transform="translate(804 1979.7) rotate(0)"/><line x1="804" y1="1979.7" x2="804" y2="2026.5" stroke="#c9a227" stroke-width="18.8"/><path d="M0 0 Q 67.1 -104.3 0 -274.6 Q -67.1 -104.3 0 0 Z" fill="#c9a227" opacity="1" transform="translate(1200 1979.7) rotate(-58)"/><path d="M0 0 Q 67.1 -119.3 0 -313.9 Q -67.1 -119.3 0 0 Z" fill="#87681c" opacity="1" transform="translate(1200 1979.7) rotate(-34.8)"/><path d="M0 0 Q 67.1 -134.2 0 -353.2 Q -67.1 -134.2 0 0 Z" fill="#c9a227" opacity="1" transform="translate(1200 1979.7) rotate(-11.6)"/><path d="M0 0 Q 67.1 -134.2 0 -353.2 Q -67.1 -134.2 0 0 Z" fill="#87681c" opacity="1" transform="translate(1200 1979.7) rotate(11.6)"/><path d="M0 0 Q 67.1 -119.3 0 -313.9 Q -67.1 -119.3 0 0 Z" fill="#c9a227" opacity="1" transform="translate(1200 1979.7) rotate(34.8)"/><path d="M0 0 Q 67.1 -104.3 0 -274.6 Q -67.1 -104.3 0 0 Z" fill="#87681c" opacity="1" transform="translate(1200 1979.7) rotate(58)"/><path d="M1088.1,1979.7 Q1200,2106.5 1311.9,1979.7 Z" fill="#c9a227"/><path d="M0 0 Q 63.7 -121 0 -318.5 Q -63.7 -121 0 0 Z" fill="#87681c" opacity="1" transform="translate(1596 1979.7) rotate(0)"/><line x1="1596" y1="1979.7" x2="1596" y2="2026.5" stroke="#c9a227" stroke-width="19.9"/><path d="M0 0 Q 65.5 -101.8 0 -268 Q -65.5 -101.8 0 0 Z" fill="#c9a227" opacity="1" transform="translate(1992 1979.7) rotate(-58)"/><path d="M0 0 Q 65.5 -114 0 -300 Q -65.5 -114 0 0 Z" fill="#87681c" opacity="1" transform="translate(1992 1979.7) rotate(-38.7)"/><path d="M0 0 Q 65.5 -126.1 0 -331.9 Q -65.5 -126.1 0 0 Z" fill="#c9a227" opacity="1" transform="translate(1992 1979.7) rotate(-19.3)"/><path d="M0 0 Q 65.5 -138.3 0 -363.9 Q -65.5 -138.3 0 0 Z" fill="#87681c" opacity="1" transform="translate(1992 1979.7) rotate(0)"/><path d="M0 0 Q 65.5 -126.1 0 -331.9 Q -65.5 -126.1 0 0 Z" fill="#c9a227" opacity="1" transform="translate(1992 1979.7) rotate(19.3)"/><path d="M0 0 Q 65.5 -114 0 -300 Q -65.5 -114 0 0 Z" fill="#87681c" opacity="1" transform="translate(1992 1979.7) rotate(38.7)"/><path d="M0 0 Q 65.5 -101.8 0 -268 Q -65.5 -101.8 0 0 Z" fill="#c9a227" opacity="1" transform="translate(1992 1979.7) rotate(58)"/><path d="M1882.8,1979.7 Q1992,2103.4 2101.2,1979.7 Z" fill="#c9a227"/><line x1="408" y1="2564.7" x2="408" y2="2364" stroke="#c9a227" stroke-width="21.9"/><line x1="408" y1="2364" x2="263.7" y2="2293.6" stroke="#c9a227" stroke-width="16.4" stroke-linecap="round"/><circle cx="263.7" cy="2293.6" r="16.4" fill="#87681c"/><line x1="408" y1="2364" x2="276.5" y2="2245.5" stroke="#c9a227" stroke-width="16.4" stroke-linecap="round"/><circle cx="276.5" cy="2245.5" r="16.4" fill="#87681c"/><line x1="408" y1="2364" x2="305.5" y2="2199.9" stroke="#c9a227" stroke-width="16.4" stroke-linecap="round"/><circle cx="305.5" cy="2199.9" r="16.4" fill="#87681c"/><line x1="408" y1="2364" x2="350.2" y2="2162.2" stroke="#c9a227" stroke-width="16.4" stroke-linecap="round"/><circle cx="350.2" cy="2162.2" r="16.4" fill="#87681c"/><line x1="408" y1="2364" x2="408" y2="2137.7" stroke="#c9a227" stroke-width="16.4" stroke-linecap="round"/><circle cx="408" cy="2137.7" r="16.4" fill="#87681c"/><line x1="408" y1="2364" x2="465.8" y2="2162.2" stroke="#c9a227" stroke-width="16.4" stroke-linecap="round"/><circle cx="465.8" cy="2162.2" r="16.4" fill="#87681c"/><line x1="408" y1="2364" x2="510.5" y2="2199.9" stroke="#c9a227" stroke-width="16.4" stroke-linecap="round"/><circle cx="510.5" cy="2199.9" r="16.4" fill="#87681c"/><line x1="408" y1="2364" x2="539.5" y2="2245.5" stroke="#c9a227" stroke-width="16.4" stroke-linecap="round"/><circle cx="539.5" cy="2245.5" r="16.4" fill="#87681c"/><line x1="408" y1="2364" x2="552.3" y2="2293.6" stroke="#c9a227" stroke-width="16.4" stroke-linecap="round"/><circle cx="552.3" cy="2293.6" r="16.4" fill="#87681c"/><line x1="804" y1="2564.7" x2="804" y2="2346.7" stroke="#c9a227" stroke-width="23.8"/><line x1="804" y1="2346.7" x2="647.2" y2="2270.2" stroke="#c9a227" stroke-width="17.8" stroke-linecap="round"/><circle cx="647.2" cy="2270.2" r="17.8" fill="#87681c"/><line x1="804" y1="2346.7" x2="661.1" y2="2218" stroke="#c9a227" stroke-width="17.8" stroke-linecap="round"/><circle cx="661.1" cy="2218" r="17.8" fill="#87681c"/><line x1="804" y1="2346.7" x2="692.7" y2="2168.5" stroke="#c9a227" stroke-width="17.8" stroke-linecap="round"/><circle cx="692.7" cy="2168.5" r="17.8" fill="#87681c"/><line x1="804" y1="2346.7" x2="741.2" y2="2127.6" stroke="#c9a227" stroke-width="17.8" stroke-linecap="round"/><circle cx="741.2" cy="2127.6" r="17.8" fill="#87681c"/><line x1="804" y1="2346.7" x2="804" y2="2100.9" stroke="#c9a227" stroke-width="17.8" stroke-linecap="round"/><circle cx="804" cy="2100.9" r="17.8" fill="#87681c"/><line x1="804" y1="2346.7" x2="866.8" y2="2127.6" stroke="#c9a227" stroke-width="17.8" stroke-linecap="round"/><circle cx="866.8" cy="2127.6" r="17.8" fill="#87681c"/><line x1="804" y1="2346.7" x2="915.3" y2="2168.5" stroke="#c9a227" stroke-width="17.8" stroke-linecap="round"/><circle cx="915.3" cy="2168.5" r="17.8" fill="#87681c"/><line x1="804" y1="2346.7" x2="946.9" y2="2218" stroke="#c9a227" stroke-width="17.8" stroke-linecap="round"/><circle cx="946.9" cy="2218" r="17.8" fill="#87681c"/><line x1="804" y1="2346.7" x2="960.8" y2="2270.2" stroke="#c9a227" stroke-width="17.8" stroke-linecap="round"/><circle cx="960.8" cy="2270.2" r="17.8" fill="#87681c"/><line x1="1200" y1="2564.7" x2="1200" y2="2346.6" stroke="#c9a227" stroke-width="23.8"/><line x1="1200" y1="2346.6" x2="1043.2" y2="2270.1" stroke="#c9a227" stroke-width="17.8" stroke-linecap="round"/><circle cx="1043.2" cy="2270.1" r="17.8" fill="#87681c"/><line x1="1200" y1="2346.6" x2="1057.1" y2="2217.9" stroke="#c9a227" stroke-width="17.8" stroke-linecap="round"/><circle cx="1057.1" cy="2217.9" r="17.8" fill="#87681c"/><line x1="1200" y1="2346.6" x2="1088.6" y2="2168.3" stroke="#c9a227" stroke-width="17.8" stroke-linecap="round"/><circle cx="1088.6" cy="2168.3" r="17.8" fill="#87681c"/><line x1="1200" y1="2346.6" x2="1137.1" y2="2127.4" stroke="#c9a227" stroke-width="17.8" stroke-linecap="round"/><circle cx="1137.1" cy="2127.4" r="17.8" fill="#87681c"/><line x1="1200" y1="2346.6" x2="1200" y2="2100.7" stroke="#c9a227" stroke-width="17.8" stroke-linecap="round"/><circle cx="1200" cy="2100.7" r="17.8" fill="#87681c"/><line x1="1200" y1="2346.6" x2="1262.9" y2="2127.4" stroke="#c9a227" stroke-width="17.8" stroke-linecap="round"/><circle cx="1262.9" cy="2127.4" r="17.8" fill="#87681c"/><line x1="1200" y1="2346.6" x2="1311.4" y2="2168.3" stroke="#c9a227" stroke-width="17.8" stroke-linecap="round"/><circle cx="1311.4" cy="2168.3" r="17.8" fill="#87681c"/><line x1="1200" y1="2346.6" x2="1342.9" y2="2217.9" stroke="#c9a227" stroke-width="17.8" stroke-linecap="round"/><circle cx="1342.9" cy="2217.9" r="17.8" fill="#87681c"/><line x1="1200" y1="2346.6" x2="1356.8" y2="2270.1" stroke="#c9a227" stroke-width="17.8" stroke-linecap="round"/><circle cx="1356.8" cy="2270.1" r="17.8" fill="#87681c"/><line x1="1596" y1="2564.7" x2="1596" y2="2338.6" stroke="#c9a227" stroke-width="24.7"/><line x1="1596" y1="2338.6" x2="1433.4" y2="2259.3" stroke="#c9a227" stroke-width="18.5" stroke-linecap="round"/><circle cx="1433.4" cy="2259.3" r="18.5" fill="#87681c"/><line x1="1596" y1="2338.6" x2="1447.8" y2="2205.2" stroke="#c9a227" stroke-width="18.5" stroke-linecap="round"/><circle cx="1447.8" cy="2205.2" r="18.5" fill="#87681c"/><line x1="1596" y1="2338.6" x2="1480.5" y2="2153.8" stroke="#c9a227" stroke-width="18.5" stroke-linecap="round"/><circle cx="1480.5" cy="2153.8" r="18.5" fill="#87681c"/><line x1="1596" y1="2338.6" x2="1530.8" y2="2111.4" stroke="#c9a227" stroke-width="18.5" stroke-linecap="round"/><circle cx="1530.8" cy="2111.4" r="18.5" fill="#87681c"/><line x1="1596" y1="2338.6" x2="1596" y2="2083.7" stroke="#c9a227" stroke-width="18.5" stroke-linecap="round"/><circle cx="1596" cy="2083.7" r="18.5" fill="#87681c"/><line x1="1596" y1="2338.6" x2="1661.2" y2="2111.4" stroke="#c9a227" stroke-width="18.5" stroke-linecap="round"/><circle cx="1661.2" cy="2111.4" r="18.5" fill="#87681c"/><line x1="1596" y1="2338.6" x2="1711.5" y2="2153.8" stroke="#c9a227" stroke-width="18.5" stroke-linecap="round"/><circle cx="1711.5" cy="2153.8" r="18.5" fill="#87681c"/><line x1="1596" y1="2338.6" x2="1744.2" y2="2205.2" stroke="#c9a227" stroke-width="18.5" stroke-linecap="round"/><circle cx="1744.2" cy="2205.2" r="18.5" fill="#87681c"/><line x1="1596" y1="2338.6" x2="1758.6" y2="2259.3" stroke="#c9a227" stroke-width="18.5" stroke-linecap="round"/><circle cx="1758.6" cy="2259.3" r="18.5" fill="#87681c"/><line x1="1992" y1="2564.7" x2="1992" y2="2354.1" stroke="#c9a227" stroke-width="23"/><line x1="1992" y1="2354.1" x2="1840.6" y2="2280.3" stroke="#c9a227" stroke-width="17.2" stroke-linecap="round"/><circle cx="1840.6" cy="2280.3" r="17.2" fill="#87681c"/><line x1="1992" y1="2354.1" x2="1854" y2="2229.9" stroke="#c9a227" stroke-width="17.2" stroke-linecap="round"/><circle cx="1854" cy="2229.9" r="17.2" fill="#87681c"/><line x1="1992" y1="2354.1" x2="1884.5" y2="2182.1" stroke="#c9a227" stroke-width="17.2" stroke-linecap="round"/><circle cx="1884.5" cy="2182.1" r="17.2" fill="#87681c"/><line x1="1992" y1="2354.1" x2="1931.3" y2="2142.6" stroke="#c9a227" stroke-width="17.2" stroke-linecap="round"/><circle cx="1931.3" cy="2142.6" r="17.2" fill="#87681c"/><line x1="1992" y1="2354.1" x2="1992" y2="2116.8" stroke="#c9a227" stroke-width="17.2" stroke-linecap="round"/><circle cx="1992" cy="2116.8" r="17.2" fill="#87681c"/><line x1="1992" y1="2354.1" x2="2052.7" y2="2142.6" stroke="#c9a227" stroke-width="17.2" stroke-linecap="round"/><circle cx="2052.7" cy="2142.6" r="17.2" fill="#87681c"/><line x1="1992" y1="2354.1" x2="2099.5" y2="2182.1" stroke="#c9a227" stroke-width="17.2" stroke-linecap="round"/><circle cx="2099.5" cy="2182.1" r="17.2" fill="#87681c"/><line x1="1992" y1="2354.1" x2="2130" y2="2229.9" stroke="#c9a227" stroke-width="17.2" stroke-linecap="round"/><circle cx="2130" cy="2229.9" r="17.2" fill="#87681c"/><line x1="1992" y1="2354.1" x2="2143.4" y2="2280.3" stroke="#c9a227" stroke-width="17.2" stroke-linecap="round"/><circle cx="2143.4" cy="2280.3" r="17.2" fill="#87681c"/><rect x="100" y="100" width="2200" height="2800" fill="none" stroke="#c9a227" stroke-width="9"/><rect x="142" y="142" width="2116" height="2716" fill="none" stroke="#c9a227" stroke-width="3" opacity="0.65"/></svg></svg>