<svg xmlns="http://www.w3.org/2000/svg" width="2400" height="1800" viewBox="0 0 2400 1800"><rect width="2400" height="1800" fill="#e9e1d2"/><rect y="1430" width="2400" height="370" fill="#c8b190"/><line x1="120" y1="1430" x2="60" y2="1800" stroke="#00000018" stroke-width="6"/><line x1="380" y1="1430" x2="320" y2="1800" stroke="#00000018" stroke-width="6"/><line x1="640" y1="1430" x2="580" y2="1800" stroke="#00000018" stroke-width="6"/><line x1="900" y1="1430" x2="840" y2="1800" stroke="#00000018" stroke-width="6"/><line x1="1160" y1="1430" x2="1100" y2="1800" stroke="#00000018" stroke-width="6"/><line x1="1420" y1="1430" x2="1360" y2="1800" stroke="#00000018" stroke-width="6"/><line x1="1680" y1="1430" x2="1620" y2="1800" stroke="#00000018" stroke-width="6"/><line x1="1940" y1="1430" x2="1880" y2="1800" stroke="#00000018" stroke-width="6"/><line x1="2200" y1="1430" x2="2140" y2="1800" stroke="#00000018" stroke-width="6"/><rect y="1418" width="2400" height="16" fill="#d7cbb6"/><rect x="700" y="980" width="1000" height="460" rx="26" fill="#a87e57"/><rect x="660" y="1290" width="1080" height="210" rx="30" fill="#f1ebdf"/><rect x="660" y="1420" width="1080" height="120" rx="24" fill="#b3502f" opacity="0.85"/><rect x="770" y="1180" width="300" height="150" rx="40" fill="#faf6ec"/><rect x="1330" y="1180" width="300" height="150" rx="40" fill="#cdb488"/><rect x="640" y="1530" width="1120" height="26" rx="12" fill="#a87e57"/><rect x="360" y="1260" width="240" height="220" rx="10" fill="#a87e57"/><rect x="380" y="1300" width="200" height="14" fill="#00000022"/><line x1="480" y1="1260" x2="480" y2="1130" stroke="#5a4632" stroke-width="12"/><path d="M410,1130 L550,1130 L520,1020 L440,1020 Z" fill="#b3502f"/><path d="M2060,1520 Q 1910,1282.5 1835,1345" fill="none" stroke="#5d7052" stroke-width="20" stroke-linecap="round"/><path d="M2060,1520 Q 1960,1282.5 1910,1295" fill="none" stroke="#5d7052" stroke-width="20" stroke-linecap="round"/><path d="M2060,1520 Q 2010,1282.5 1985,1245" fill="none" stroke="#5d7052" stroke-width="20" stroke-linecap="round"/><path d="M2060,1520 Q 2060,1282.5 2060,1195" fill="none" stroke="#5d7052" stroke-width="20" stroke-linecap="round"/><path d="M2060,1520 Q 2110,1282.5 2135,1245" fill="none" stroke="#5d7052" stroke-width="20" stroke-linecap="round"/><path d="M2060,1520 Q 2160,1282.5 2210,1295" fill="none" stroke="#5d7052" stroke-width="20" stroke-linecap="round"/><path d="M2060,1520 Q 2210,1282.5 2285,1345" fill="none" stroke="#5d7052" stroke-width="20" stroke-linecap="round"/><path d="M1972.5,1520 L2147.5,1520 L2125,1657.5 L1995,1657.5 Z" fill="#a9714d"/><defs><filter id="a80b-sh" x="-30%" y="-30%" width="160%" height="160%"><feGaussianBlur stdDeviation="16"/></filter></defs><rect x="928" y="246" width="572" height="702" fill="#000" opacity="0.28" filter="url(#a80b-sh)"/><rect x="914" y="224" width="572" height="702" fill="#4a3d2f"/><rect x="930.9" y="240.9" width="538.2" height="668.2" fill="none" stroke="#00000055" stroke-width="3"/><rect x="940" y="250" width="520" height="650" fill="#f6f2ea"/><svg x="979" y="289" width="442" height="572" viewBox="0 0 2400 3000" preserveAspectRatio="xMidYMid slice"><rect width="2400" height="3000" fill="#e4cfa4"/><radialGradient id="a80-vig" cx="50%" cy="42%" r="80%"><stop offset="55%" stop-color="#000" stop-opacity="0"/><stop offset="100%" stop-color="#000" stop-opacity="0.15"/></radialGradient><rect width="2400" height="3000" fill="url(#a80-vig)"/><circle cx="1338.8" cy="1228.5" r="2.1" fill="#6e421d" opacity="0.073"/><circle cx="220.6" cy="128.7" r="4.2" fill="#6e421d" opacity="0.044"/><circle cx="744" cy="1802.8" r="2" fill="#6e421d" opacity="0.076"/><circle cx="529.3" cy="43.4" r="1.6" fill="#6e421d" opacity="0.034"/><circle cx="654.6" cy="1575.6" r="3.5" fill="#6e421d" opacity="0.060"/><circle cx="951.1" cy="431.9" r="2.4" fill="#6e421d" opacity="0.079"/><circle cx="1178.3" cy="1362.1" r="3.3" fill="#6e421d" opacity="0.035"/><circle cx="1864.5" cy="41.3" r="2.8" fill="#6e421d" opacity="0.047"/><circle cx="1431.7" cy="72.6" r="3.1" fill="#6e421d" opacity="0.049"/><circle cx="1667.8" cy="1821.9" r="2" fill="#6e421d" opacity="0.062"/><circle cx="200.1" cy="2323.7" r="3.4" fill="#6e421d" opacity="0.056"/><circle cx="1710" cy="2399.8" r="3.2" fill="#6e421d" opacity="0.049"/><circle cx="1451.8" cy="2671.9" r="1.9" fill="#6e421d" opacity="0.054"/><circle cx="2287.4" cy="908.1" r="2.7" fill="#6e421d" opacity="0.058"/><circle cx="944" cy="1584.3" r="3.4" fill="#6e421d" opacity="0.041"/><circle cx="855.9" cy="2455.3" r="2.6" fill="#6e421d" opacity="0.073"/><circle cx="1618.5" cy="2268.1" r="4.1" fill="#6e421d" opacity="0.033"/><circle cx="1268" cy="1214.3" r="1.8" fill="#6e421d" opacity="0.044"/><circle cx="764" cy="2230.4" r="4.4" fill="#6e421d" opacity="0.049"/><circle cx="1149.3" cy="213.2" r="2.9" fill="#6e421d" opacity="0.061"/><circle cx="515.5" cy="2329.2" r="2.8" fill="#6e421d" opacity="0.045"/><circle cx="1911.2" cy="1389.1" r="4.3" fill="#6e421d" opacity="0.035"/><circle cx="710.9" cy="2310.6" r="1.9" fill="#6e421d" opacity="0.032"/><circle cx="1865.8" cy="425.3" r="4.2" fill="#6e421d" opacity="0.055"/><circle cx="1494" cy="1044.5" r="2" fill="#6e421d" opacity="0.032"/><circle cx="2111" cy="801.1" r="4" fill="#6e421d" opacity="0.047"/><circle cx="1923.4" cy="2257.5" r="3" fill="#6e421d" opacity="0.071"/><circle cx="574.9" cy="75" r="2.5" fill="#6e421d" opacity="0.076"/><circle cx="2053.7" cy="2913.3" r="3.8" fill="#6e421d" opacity="0.054"/><circle cx="788.1" cy="1186.7" r="1.9" fill="#6e421d" opacity="0.079"/><circle cx="1159.7" cy="1460" r="3.2" fill="#6e421d" opacity="0.037"/><circle cx="2341.9" cy="2162.6" r="4.2" fill="#6e421d" opacity="0.065"/><circle cx="1529.2" cy="92.6" r="2.4" fill="#6e421d" opacity="0.070"/><circle cx="1768.6" cy="1747" r="2.7" fill="#6e421d" opacity="0.043"/><circle cx="2021" cy="1028.2" r="4.3" fill="#6e421d" opacity="0.069"/><circle cx="1350.2" cy="1077.4" r="3.7" fill="#6e421d" opacity="0.056"/><circle cx="254.1" cy="2897.3" r="2.8" fill="#6e421d" opacity="0.057"/><circle cx="1049.6" cy="767.1" r="3.3" fill="#6e421d" opacity="0.080"/><circle cx="1816.9" cy="488" r="2.5" fill="#6e421d" opacity="0.033"/><circle cx="607.8" cy="509.8" r="1.9" fill="#6e421d" opacity="0.042"/><circle cx="832.2" cy="1563.5" r="1.5" fill="#6e421d" opacity="0.043"/><circle cx="1525.6" cy="2538.6" r="3.6" fill="#6e421d" opacity="0.031"/><circle cx="952.6" cy="2408.1" r="1.7" fill="#6e421d" opacity="0.031"/><circle cx="596.1" cy="651.6" r="4.1" fill="#6e421d" opacity="0.047"/><circle cx="1192.9" cy="102.4" r="1.7" fill="#6e421d" opacity="0.053"/><circle cx="394.2" cy="637.1" r="1.7" fill="#6e421d" opacity="0.053"/><circle cx="1591.4" cy="977.9" r="3.1" fill="#6e421d" opacity="0.060"/><circle cx="1062.8" cy="2705.4" r="2.4" fill="#6e421d" opacity="0.031"/><circle cx="574.5" cy="77" r="2.9" fill="#6e421d" opacity="0.050"/><circle cx="2195.2" cy="124.6" r="3" fill="#6e421d" opacity="0.044"/><circle cx="1604" cy="2303.9" r="1.7" fill="#6e421d" opacity="0.071"/><circle cx="697.3" cy="1164.5" r="3.6" fill="#6e421d" opacity="0.042"/><circle cx="1192.4" cy="2775.5" r="3.1" fill="#6e421d" opacity="0.077"/><circle cx="1393.6" cy="1240.1" r="2.5" fill="#6e421d" opacity="0.073"/><circle cx="1971.7" cy="2849" r="4.3" fill="#6e421d" opacity="0.067"/><circle cx="1878.8" cy="1761.1" r="4.1" fill="#6e421d" opacity="0.073"/><circle cx="399.1" cy="793.6" r="2.7" fill="#6e421d" opacity="0.031"/><circle cx="1587.4" cy="2254.5" r="2.8" fill="#6e421d" opacity="0.051"/><circle cx="2270.4" cy="1260.2" r="2" fill="#6e421d" opacity="0.042"/><circle cx="1810.2" cy="1386.5" r="1.7" fill="#6e421d" opacity="0.060"/><circle cx="833.6" cy="579.5" r="2.9" fill="#6e421d" opacity="0.079"/><circle cx="2342.7" cy="1218.8" r="2.6" fill="#6e421d" opacity="0.037"/><circle cx="1203.1" cy="298.7" r="3.7" fill="#6e421d" opacity="0.077"/><circle cx="1326.5" cy="2836.7" r="3.4" fill="#6e421d" opacity="0.063"/><circle cx="2264.9" cy="266.4" r="2.6" fill="#6e421d" opacity="0.066"/><circle cx="673.4" cy="2598.9" r="2.9" fill="#6e421d" opacity="0.047"/><circle cx="1388.3" cy="2928.8" r="2.2" fill="#6e421d" opacity="0.064"/><circle cx="2183.3" cy="1735.2" r="4.3" fill="#6e421d" opacity="0.073"/><circle cx="1946" cy="1177.4" r="2.9" fill="#6e421d" opacity="0.074"/><circle cx="469.2" cy="2914" r="2.3" fill="#6e421d" opacity="0.078"/><circle cx="1206.3" cy="2880" r="1.8" fill="#6e421d" opacity="0.074"/><circle cx="1272.4" cy="1142.5" r="3.9" fill="#6e421d" opacity="0.061"/><circle cx="1507.8" cy="2481.2" r="2" fill="#6e421d" opacity="0.048"/><circle cx="408.1" cy="1926.8" r="2.9" fill="#6e421d" opacity="0.043"/><circle cx="369.5" cy="1840.7" r="1.9" fill="#6e421d" opacity="0.059"/><circle cx="1463.2" cy="2714.5" r="2.1" fill="#6e421d" opacity="0.057"/><circle cx="267.9" cy="1694.4" r="3.3" fill="#6e421d" opacity="0.042"/><circle cx="1644.2" cy="872.9" r="3.5" fill="#6e421d" opacity="0.065"/><circle cx="833.8" cy="1536.8" r="3.4" fill="#6e421d" opacity="0.059"/><circle cx="1870.2" cy="2335.7" r="4.4" fill="#6e421d" opacity="0.074"/><polyline points="361.1,446.4 411.3,335.6 461.5,446.4" fill="none" stroke="#6e421d" stroke-width="18.3"/><polyline points="504.5,446.4 554.7,335.6 604.9,446.4" fill="none" stroke="#6e421d" stroke-width="18.3"/><polyline points="647.9,446.4 698.1,335.6 748.3,446.4" fill="none" stroke="#6e421d" stroke-width="18.3"/><polyline points="791.3,446.4 841.5,335.6 891.7,446.4" fill="none" stroke="#6e421d" stroke-width="18.3"/><polyline points="934.7,446.4 984.9,335.6 1035.1,446.4" fill="none" stroke="#6e421d" stroke-width="18.3"/><polyline points="1078.1,446.4 1128.3,335.6 1178.5,446.4" fill="none" stroke="#6e421d" stroke-width="18.3"/><polyline points="1221.5,446.4 1271.7,335.6 1321.9,446.4" fill="none" stroke="#6e421d" stroke-width="18.3"/><polyline points="1364.9,446.4 1415.1,335.6 1465.3,446.4" fill="none" stroke="#6e421d" stroke-width="18.3"/><polyline points="1508.3,446.4 1558.5,335.6 1608.7,446.4" fill="none" stroke="#6e421d" stroke-width="18.3"/><polyline points="1651.7,446.4 1701.9,335.6 1752.1,446.4" fill="none" stroke="#6e421d" stroke-width="18.3"/><polyline points="1795.1,446.4 1845.3,335.6 1895.5,446.4" fill="none" stroke="#6e421d" stroke-width="18.3"/><polyline points="1938.5,446.4 1988.7,335.6 2038.9,446.4" fill="none" stroke="#6e421d" stroke-width="18.3"/><line x1="250" y1="502.5" x2="2150" y2="502.5" stroke="#6e421d" stroke-width="6"/><rect x="250" y="502.5" width="1900" height="245.2" fill="#6e421d"/><rect x="280" y="550.9" width="74.2" height="74.2" fill="#e4cfa4"/><rect x="354.2" y="625.1" width="74.2" height="74.2" fill="#e4cfa4"/><rect x="428.3" y="550.9" width="74.2" height="74.2" fill="#e4cfa4"/><rect x="502.5" y="625.1" width="74.2" height="74.2" fill="#e4cfa4"/><rect x="576.6" y="550.9" width="74.2" height="74.2" fill="#e4cfa4"/><rect x="650.8" y="625.1" width="74.2" height="74.2" fill="#e4cfa4"/><rect x="725" y="550.9" width="74.2" height="74.2" fill="#e4cfa4"/><rect x="799.1" y="625.1" width="74.2" height="74.2" fill="#e4cfa4"/><rect x="873.3" y="550.9" width="74.2" height="74.2" fill="#e4cfa4"/><rect x="947.4" y="625.1" width="74.2" height="74.2" fill="#e4cfa4"/><rect x="1021.6" y="550.9" width="74.2" height="74.2" fill="#e4cfa4"/><rect x="1095.8" y="625.1" width="74.2" height="74.2" fill="#e4cfa4"/><rect x="1169.9" y="550.9" width="74.2" height="74.2" fill="#e4cfa4"/><rect x="1244.1" y="625.1" width="74.2" height="74.2" fill="#e4cfa4"/><rect x="1318.2" y="550.9" width="74.2" height="74.2" fill="#e4cfa4"/><rect x="1392.4" y="625.1" width="74.2" height="74.2" fill="#e4cfa4"/><rect x="1466.6" y="550.9" width="74.2" height="74.2" fill="#e4cfa4"/><rect x="1540.7" y="625.1" width="74.2" height="74.2" fill="#e4cfa4"/><rect x="1614.9" y="550.9" width="74.2" height="74.2" fill="#e4cfa4"/><rect x="1689" y="625.1" width="74.2" height="74.2" fill="#e4cfa4"/><rect x="1763.2" y="550.9" width="74.2" height="74.2" fill="#e4cfa4"/><rect x="1837.4" y="625.1" width="74.2" height="74.2" fill="#e4cfa4"/><rect x="1911.5" y="550.9" width="74.2" height="74.2" fill="#e4cfa4"/><rect x="1985.7" y="625.1" width="74.2" height="74.2" fill="#e4cfa4"/><line x1="250" y1="747.7" x2="2150" y2="747.7" stroke="#6e421d" stroke-width="6"/><circle cx="367.2" cy="876.5" r="39.4" fill="#6e421d"/><circle cx="518.6" cy="876.5" r="39.4" fill="#6e421d"/><circle cx="670" cy="876.5" r="39.4" fill="#6e421d"/><circle cx="821.4" cy="876.5" r="39.4" fill="#6e421d"/><circle cx="972.9" cy="876.5" r="39.4" fill="#6e421d"/><circle cx="1124.3" cy="876.5" r="39.4" fill="#6e421d"/><circle cx="1275.7" cy="876.5" r="39.4" fill="#6e421d"/><circle cx="1427.1" cy="876.5" r="39.4" fill="#6e421d"/><circle cx="1578.6" cy="876.5" r="39.4" fill="#6e421d"/><circle cx="1730" cy="876.5" r="39.4" fill="#6e421d"/><circle cx="1881.4" cy="876.5" r="39.4" fill="#6e421d"/><circle cx="2032.8" cy="876.5" r="39.4" fill="#6e421d"/><line x1="250" y1="1005.2" x2="2150" y2="1005.2" stroke="#6e421d" stroke-width="6"/><polyline points="280,1175.8 395,1061.5 510,1175.8 625,1061.5 740,1175.8 855,1061.5 970,1175.8 1085,1061.5 1200,1175.8 1315,1061.5 1430,1175.8 1545,1061.5 1660,1175.8 1775,1061.5 1890,1175.8 2005,1061.5 2120,1175.8 " fill="none" stroke="#b3502f" stroke-width="20.6" stroke-linejoin="miter"/><line x1="250" y1="1232.1" x2="2150" y2="1232.1" stroke="#6e421d" stroke-width="6"/><rect x="250" y="1232.1" width="1900" height="202.7" fill="#6e421d"/><path d="M288.4,1273.8 L342,1393 L395.6,1273.8 Z M395.6,1273.8 L449.2,1393 L502.9,1273.8 Z M502.9,1273.8 L556.5,1393 L610.1,1273.8 Z M610.1,1273.8 L663.7,1393 L717.4,1273.8 Z M717.4,1273.8 L771,1393 L824.6,1273.8 Z M824.6,1273.8 L878.2,1393 L931.9,1273.8 Z M931.9,1273.8 L985.5,1393 L1039.1,1273.8 Z M1039.1,1273.8 L1092.7,1393 L1146.4,1273.8 Z M1146.4,1273.8 L1200,1393 L1253.6,1273.8 Z M1253.6,1273.8 L1307.3,1393 L1360.9,1273.8 Z M1360.9,1273.8 L1414.5,1393 L1468.1,1273.8 Z M1468.1,1273.8 L1521.8,1393 L1575.4,1273.8 Z M1575.4,1273.8 L1629,1393 L1682.6,1273.8 Z M1682.6,1273.8 L1736.3,1393 L1789.9,1273.8 Z M1789.9,1273.8 L1843.5,1393 L1897.1,1273.8 Z M1897.1,1273.8 L1950.8,1393 L2004.4,1273.8 Z M2004.4,1273.8 L2058,1393 L2111.6,1273.8 Z " fill="#e4cfa4"/><line x1="250" y1="1434.7" x2="2150" y2="1434.7" stroke="#6e421d" stroke-width="6"/><circle cx="371.4" cy="1575.7" r="43.1" fill="#b3502f"/><circle cx="537.1" cy="1575.7" r="43.1" fill="#b3502f"/><circle cx="702.8" cy="1575.7" r="43.1" fill="#b3502f"/><circle cx="868.5" cy="1575.7" r="43.1" fill="#b3502f"/><circle cx="1034.3" cy="1575.7" r="43.1" fill="#b3502f"/><circle cx="1200" cy="1575.7" r="43.1" fill="#b3502f"/><circle cx="1365.7" cy="1575.7" r="43.1" fill="#b3502f"/><circle cx="1531.5" cy="1575.7" r="43.1" fill="#b3502f"/><circle cx="1697.2" cy="1575.7" r="43.1" fill="#b3502f"/><circle cx="1862.9" cy="1575.7" r="43.1" fill="#b3502f"/><circle cx="2028.6" cy="1575.7" r="43.1" fill="#b3502f"/><line x1="250" y1="1716.6" x2="2150" y2="1716.6" stroke="#6e421d" stroke-width="6"/><line x1="280" y1="1933.1" x2="2120" y2="1933.1" stroke="#6e421d" stroke-width="13.5"/><polyline points="440.5,1852.1 439.6,1853.2 439,1854.8 439,1856.7 439.6,1858.7 440.9,1860.6 442.9,1862.2 445.5,1863.3 448.6,1863.7 451.9,1863.2 455.1,1861.8 458.1,1859.4 460.5,1856.1 462.1,1852.1 462.6,1847.5 462,1842.7 460.1,1838 456.9,1833.7 452.5,1830.2 447.1,1827.8 441.1,1826.7 434.7,1827.1 428.4,1829.2 422.6,1832.9 417.6,1838.1 414,1844.6 412,1852.1 411.9,1860.1 413.7,1868.1 417.6,1875.6 423.4,1882.2 430.8,1887.3 439.5,1890.6 449,1891.7 458.7,1890.4 468.1,1886.7 476.5,1880.7 483.4,1872.7 488.2,1862.9 490.6,1852.1 490.4,1840.7 487.3,1829.5 481.4,1819.1 473.1,1810.2 462.6,1803.5 450.6,1799.4 437.7,1798.3 424.6,1800.4 412.2,1805.7 401.2,1814 392.3,1824.9 386.3,1837.8 383.4,1852.1" fill="none" stroke="#6e421d" stroke-width="15.2" stroke-linecap="round" stroke-linejoin="round"/><polyline points="609.2,1852.1 608.3,1853.2 607.7,1854.8 607.7,1856.7 608.3,1858.7 609.7,1860.6 611.7,1862.2 614.3,1863.3 617.3,1863.7 620.6,1863.2 623.8,1861.8 626.8,1859.4 629.2,1856.1 630.8,1852.1 631.4,1847.5 630.7,1842.7 628.8,1838 625.6,1833.7 621.2,1830.2 615.8,1827.8 609.8,1826.7 603.4,1827.1 597.1,1829.2 591.3,1832.9 586.3,1838.1 582.7,1844.6 580.7,1852.1 580.6,1860.1 582.4,1868.1 586.3,1875.6 592.1,1882.2 599.5,1887.3 608.2,1890.6 617.7,1891.7 627.4,1890.4 636.8,1886.7 645.2,1880.7 652.1,1872.7 656.9,1862.9 659.4,1852.1 659.1,1840.7 656,1829.5 650.1,1819.1 641.8,1810.2 631.3,1803.5 619.3,1799.4 606.4,1798.3 593.3,1800.4 580.9,1805.7 569.9,1814 561.1,1824.9 555,1837.8 552.2,1852.1" fill="none" stroke="#6e421d" stroke-width="15.2" stroke-linecap="round" stroke-linejoin="round"/><polyline points="778,1852.1 777,1853.2 776.4,1854.8 776.4,1856.7 777,1858.7 778.4,1860.6 780.4,1862.2 783,1863.3 786,1863.7 789.3,1863.2 792.5,1861.8 795.5,1859.4 797.9,1856.1 799.5,1852.1 800.1,1847.5 799.4,1842.7 797.5,1838 794.3,1833.7 789.9,1830.2 784.6,1827.8 778.5,1826.7 772.1,1827.1 765.8,1829.2 760,1832.9 755,1838.1 751.4,1844.6 749.4,1852.1 749.3,1860.1 751.2,1868.1 755,1875.6 760.8,1882.2 768.2,1887.3 776.9,1890.6 786.4,1891.7 796.1,1890.4 805.5,1886.7 813.9,1880.7 820.8,1872.7 825.6,1862.9 828.1,1852.1 827.8,1840.7 824.7,1829.5 818.8,1819.1 810.5,1810.2 800,1803.5 788,1799.4 775.1,1798.3 762,1800.4 749.6,1805.7 738.6,1814 729.8,1824.9 723.7,1837.8 720.9,1852.1" fill="none" stroke="#6e421d" stroke-width="15.2" stroke-linecap="round" stroke-linejoin="round"/><polyline points="946.7,1852.1 945.7,1853.2 945.1,1854.8 945.1,1856.7 945.7,1858.7 947.1,1860.6 949.1,1862.2 951.7,1863.3 954.7,1863.7 958,1863.2 961.3,1861.8 964.2,1859.4 966.6,1856.1 968.2,1852.1 968.8,1847.5 968.1,1842.7 966.2,1838 963,1833.7 958.6,1830.2 953.3,1827.8 947.2,1826.7 940.8,1827.1 934.5,1829.2 928.7,1832.9 923.8,1838.1 920.1,1844.6 918.1,1852.1 918,1860.1 919.9,1868.1 923.8,1875.6 929.5,1882.2 936.9,1887.3 945.6,1890.6 955.1,1891.7 964.8,1890.4 974.2,1886.7 982.6,1880.7 989.5,1872.7 994.4,1862.9 996.8,1852.1 996.5,1840.7 993.4,1829.5 987.6,1819.1 979.2,1810.2 968.7,1803.5 956.7,1799.4 943.8,1798.3 930.7,1800.4 918.3,1805.7 907.3,1814 898.5,1824.9 892.4,1837.8 889.6,1852.1" fill="none" stroke="#6e421d" stroke-width="15.2" stroke-linecap="round" stroke-linejoin="round"/><polyline points="1115.4,1852.1 1114.4,1853.2 1113.8,1854.8 1113.8,1856.7 1114.5,1858.7 1115.8,1860.6 1117.8,1862.2 1120.4,1863.3 1123.4,1863.7 1126.7,1863.2 1130,1861.8 1132.9,1859.4 1135.3,1856.1 1136.9,1852.1 1137.5,1847.5 1136.8,1842.7 1134.9,1838 1131.7,1833.7 1127.3,1830.2 1122,1827.8 1115.9,1826.7 1109.6,1827.1 1103.2,1829.2 1097.4,1832.9 1092.5,1838.1 1088.8,1844.6 1086.8,1852.1 1086.7,1860.1 1088.6,1868.1 1092.5,1875.6 1098.2,1882.2 1105.7,1887.3 1114.3,1890.6 1123.8,1891.7 1133.5,1890.4 1142.9,1886.7 1151.3,1880.7 1158.2,1872.7 1163.1,1862.9 1165.5,1852.1 1165.2,1840.7 1162.1,1829.5 1156.3,1819.1 1147.9,1810.2 1137.4,1803.5 1125.4,1799.4 1112.5,1798.3 1099.4,1800.4 1087,1805.7 1076,1814 1067.2,1824.9 1061.1,1837.8 1058.3,1852.1" fill="none" stroke="#6e421d" stroke-width="15.2" stroke-linecap="round" stroke-linejoin="round"/><polyline points="1284.1,1852.1 1283.1,1853.2 1282.6,1854.8 1282.5,1856.7 1283.2,1858.7 1284.5,1860.6 1286.5,1862.2 1289.1,1863.3 1292.1,1863.7 1295.4,1863.2 1298.7,1861.8 1301.6,1859.4 1304.1,1856.1 1305.6,1852.1 1306.2,1847.5 1305.5,1842.7 1303.6,1838 1300.4,1833.7 1296,1830.2 1290.7,1827.8 1284.6,1826.7 1278.3,1827.1 1271.9,1829.2 1266.1,1832.9 1261.2,1838.1 1257.5,1844.6 1255.5,1852.1 1255.4,1860.1 1257.3,1868.1 1261.2,1875.6 1266.9,1882.2 1274.4,1887.3 1283.1,1890.6 1292.5,1891.7 1302.3,1890.4 1311.6,1886.7 1320,1880.7 1326.9,1872.7 1331.8,1862.9 1334.2,1852.1 1333.9,1840.7 1330.8,1829.5 1325,1819.1 1316.6,1810.2 1306.2,1803.5 1294.1,1799.4 1281.2,1798.3 1268.1,1800.4 1255.7,1805.7 1244.7,1814 1235.9,1824.9 1229.8,1837.8 1227,1852.1" fill="none" stroke="#6e421d" stroke-width="15.2" stroke-linecap="round" stroke-linejoin="round"/><polyline points="1452.8,1852.1 1451.8,1853.2 1451.3,1854.8 1451.2,1856.7 1451.9,1858.7 1453.2,1860.6 1455.2,1862.2 1457.8,1863.3 1460.8,1863.7 1464.1,1863.2 1467.4,1861.8 1470.4,1859.4 1472.8,1856.1 1474.4,1852.1 1474.9,1847.5 1474.2,1842.7 1472.3,1838 1469.1,1833.7 1464.7,1830.2 1459.4,1827.8 1453.4,1826.7 1447,1827.1 1440.6,1829.2 1434.8,1832.9 1429.9,1838.1 1426.3,1844.6 1424.2,1852.1 1424.1,1860.1 1426,1868.1 1429.9,1875.6 1435.7,1882.2 1443.1,1887.3 1451.8,1890.6 1461.2,1891.7 1471,1890.4 1480.3,1886.7 1488.8,1880.7 1495.6,1872.7 1500.5,1862.9 1502.9,1852.1 1502.6,1840.7 1499.5,1829.5 1493.7,1819.1 1485.3,1810.2 1474.9,1803.5 1462.8,1799.4 1449.9,1798.3 1436.8,1800.4 1424.4,1805.7 1413.4,1814 1404.6,1824.9 1398.5,1837.8 1395.7,1852.1" fill="none" stroke="#6e421d" stroke-width="15.2" stroke-linecap="round" stroke-linejoin="round"/><polyline points="1621.5,1852.1 1620.5,1853.2 1620,1854.8 1620,1856.7 1620.6,1858.7 1621.9,1860.6 1623.9,1862.2 1626.5,1863.3 1629.6,1863.7 1632.8,1863.2 1636.1,1861.8 1639.1,1859.4 1641.5,1856.1 1643.1,1852.1 1643.6,1847.5 1643,1842.7 1641,1838 1637.8,1833.7 1633.4,1830.2 1628.1,1827.8 1622.1,1826.7 1615.7,1827.1 1609.4,1829.2 1603.5,1832.9 1598.6,1838.1 1595,1844.6 1593,1852.1 1592.8,1860.1 1594.7,1868.1 1598.6,1875.6 1604.4,1882.2 1611.8,1887.3 1620.5,1890.6 1630,1891.7 1639.7,1890.4 1649,1886.7 1657.5,1880.7 1664.3,1872.7 1669.2,1862.9 1671.6,1852.1 1671.3,1840.7 1668.2,1829.5 1662.4,1819.1 1654,1810.2 1643.6,1803.5 1631.5,1799.4 1618.6,1798.3 1605.6,1800.4 1593.1,1805.7 1582.2,1814 1573.3,1824.9 1567.2,1837.8 1564.4,1852.1" fill="none" stroke="#6e421d" stroke-width="15.2" stroke-linecap="round" stroke-linejoin="round"/><polyline points="1790.2,1852.1 1789.3,1853.2 1788.7,1854.8 1788.7,1856.7 1789.3,1858.7 1790.6,1860.6 1792.6,1862.2 1795.2,1863.3 1798.3,1863.7 1801.5,1863.2 1804.8,1861.8 1807.8,1859.4 1810.2,1856.1 1811.8,1852.1 1812.3,1847.5 1811.7,1842.7 1809.7,1838 1806.5,1833.7 1802.2,1830.2 1796.8,1827.8 1790.8,1826.7 1784.4,1827.1 1778.1,1829.2 1772.2,1832.9 1767.3,1838.1 1763.7,1844.6 1761.7,1852.1 1761.5,1860.1 1763.4,1868.1 1767.3,1875.6 1773.1,1882.2 1780.5,1887.3 1789.2,1890.6 1798.7,1891.7 1808.4,1890.4 1817.8,1886.7 1826.2,1880.7 1833.1,1872.7 1837.9,1862.9 1840.3,1852.1 1840,1840.7 1836.9,1829.5 1831.1,1819.1 1822.7,1810.2 1812.3,1803.5 1800.3,1799.4 1787.3,1798.3 1774.3,1800.4 1761.9,1805.7 1750.9,1814 1742,1824.9 1736,1837.8 1733.1,1852.1" fill="none" stroke="#6e421d" stroke-width="15.2" stroke-linecap="round" stroke-linejoin="round"/><polyline points="1958.9,1852.1 1958,1853.2 1957.4,1854.8 1957.4,1856.7 1958,1858.7 1959.3,1860.6 1961.3,1862.2 1963.9,1863.3 1967,1863.7 1970.3,1863.2 1973.5,1861.8 1976.5,1859.4 1978.9,1856.1 1980.5,1852.1 1981,1847.5 1980.4,1842.7 1978.4,1838 1975.2,1833.7 1970.9,1830.2 1965.5,1827.8 1959.5,1826.7 1953.1,1827.1 1946.8,1829.2 1940.9,1832.9 1936,1838.1 1932.4,1844.6 1930.4,1852.1 1930.2,1860.1 1932.1,1868.1 1936,1875.6 1941.8,1882.2 1949.2,1887.3 1957.9,1890.6 1967.4,1891.7 1977.1,1890.4 1986.5,1886.7 1994.9,1880.7 2001.8,1872.7 2006.6,1862.9 2009,1852.1 2008.7,1840.7 2005.7,1829.5 1999.8,1819.1 1991.5,1810.2 1981,1803.5 1969,1799.4 1956,1798.3 1943,1800.4 1930.6,1805.7 1919.6,1814 1910.7,1824.9 1904.7,1837.8 1901.8,1852.1" fill="none" stroke="#6e421d" stroke-width="15.2" stroke-linecap="round" stroke-linejoin="round"/><line x1="250" y1="1980.8" x2="2150" y2="1980.8" stroke="#6e421d" stroke-width="6"/><rect x="250" y="1980.8" width="1900" height="252" fill="#6e421d"/><circle cx="385.1" cy="2106.8" r="38.5" fill="#e4cfa4"/><circle cx="533.2" cy="2106.8" r="38.5" fill="#e4cfa4"/><circle cx="681.4" cy="2106.8" r="38.5" fill="#e4cfa4"/><circle cx="829.6" cy="2106.8" r="38.5" fill="#e4cfa4"/><circle cx="977.7" cy="2106.8" r="38.5" fill="#e4cfa4"/><circle cx="1125.9" cy="2106.8" r="38.5" fill="#e4cfa4"/><circle cx="1274.1" cy="2106.8" r="38.5" fill="#e4cfa4"/><circle cx="1422.3" cy="2106.8" r="38.5" fill="#e4cfa4"/><circle cx="1570.4" cy="2106.8" r="38.5" fill="#e4cfa4"/><circle cx="1718.6" cy="2106.8" r="38.5" fill="#e4cfa4"/><circle cx="1866.8" cy="2106.8" r="38.5" fill="#e4cfa4"/><circle cx="2014.9" cy="2106.8" r="38.5" fill="#e4cfa4"/><line x1="250" y1="2232.8" x2="2150" y2="2232.8" stroke="#6e421d" stroke-width="6"/><line x1="280" y1="2453.8" x2="2120" y2="2453.8" stroke="#6e421d" stroke-width="13.8"/><polyline points="424.7,2371.2 423.8,2372.3 423.2,2373.9 423.2,2375.9 423.8,2377.9 425.2,2379.9 427.2,2381.5 429.9,2382.6 433,2383 436.3,2382.5 439.6,2381.1 442.7,2378.6 445.1,2375.3 446.7,2371.2 447.3,2366.5 446.6,2361.6 444.7,2356.8 441.4,2352.4 436.9,2348.8 431.5,2346.3 425.3,2345.2 418.8,2345.7 412.3,2347.8 406.4,2351.6 401.3,2356.9 397.6,2363.6 395.6,2371.2 395.5,2379.3 397.4,2387.5 401.3,2395.2 407.2,2401.9 414.8,2407.1 423.7,2410.5 433.4,2411.6 443.3,2410.3 452.9,2406.5 461.4,2400.4 468.5,2392.2 473.4,2382.2 475.9,2371.2 475.6,2359.5 472.4,2348.1 466.5,2337.5 457.9,2328.4 447.3,2321.6 435,2317.4 421.8,2316.3 408.5,2318.4 395.8,2323.8 384.6,2332.3 375.5,2343.4 369.3,2356.6 366.5,2371.2" fill="none" stroke="#6e421d" stroke-width="15.5" stroke-linecap="round" stroke-linejoin="round"/><polyline points="597,2371.2 596,2372.3 595.4,2373.9 595.4,2375.9 596,2377.9 597.4,2379.9 599.4,2381.5 602.1,2382.6 605.2,2383 608.5,2382.5 611.9,2381.1 614.9,2378.6 617.3,2375.3 619,2371.2 619.5,2366.5 618.9,2361.6 616.9,2356.8 613.6,2352.4 609.2,2348.8 603.7,2346.3 597.5,2345.2 591,2345.7 584.6,2347.8 578.6,2351.6 573.6,2356.9 569.9,2363.6 567.8,2371.2 567.7,2379.3 569.6,2387.5 573.6,2395.2 579.5,2401.9 587,2407.1 595.9,2410.5 605.6,2411.6 615.5,2410.3 625.1,2406.5 633.7,2400.4 640.7,2392.2 645.6,2382.2 648.1,2371.2 647.8,2359.5 644.7,2348.1 638.7,2337.5 630.2,2328.4 619.5,2321.6 607.2,2317.4 594,2316.3 580.7,2318.4 568,2323.8 556.8,2332.3 547.8,2343.4 541.6,2356.6 538.7,2371.2" fill="none" stroke="#6e421d" stroke-width="15.5" stroke-linecap="round" stroke-linejoin="round"/><polyline points="769.2,2371.2 768.2,2372.3 767.6,2373.9 767.6,2375.9 768.2,2377.9 769.6,2379.9 771.6,2381.5 774.3,2382.6 777.4,2383 780.7,2382.5 784.1,2381.1 787.1,2378.6 789.6,2375.3 791.2,2371.2 791.7,2366.5 791.1,2361.6 789.1,2356.8 785.8,2352.4 781.4,2348.8 775.9,2346.3 769.7,2345.2 763.2,2345.7 756.8,2347.8 750.8,2351.6 745.8,2356.9 742.1,2363.6 740,2371.2 739.9,2379.3 741.8,2387.5 745.8,2395.2 751.7,2401.9 759.3,2407.1 768.1,2410.5 777.8,2411.6 787.7,2410.3 797.3,2406.5 805.9,2400.4 812.9,2392.2 817.9,2382.2 820.3,2371.2 820,2359.5 816.9,2348.1 810.9,2337.5 802.4,2328.4 791.7,2321.6 779.4,2317.4 766.2,2316.3 752.9,2318.4 740.2,2323.8 729,2332.3 720,2343.4 713.8,2356.6 710.9,2371.2" fill="none" stroke="#6e421d" stroke-width="15.5" stroke-linecap="round" stroke-linejoin="round"/><polyline points="941.4,2371.2 940.4,2372.3 939.8,2373.9 939.8,2375.9 940.5,2377.9 941.8,2379.9 943.9,2381.5 946.5,2382.6 949.6,2383 953,2382.5 956.3,2381.1 959.3,2378.6 961.8,2375.3 963.4,2371.2 964,2366.5 963.3,2361.6 961.3,2356.8 958.1,2352.4 953.6,2348.8 948.1,2346.3 942,2345.2 935.5,2345.7 929,2347.8 923,2351.6 918,2356.9 914.3,2363.6 912.3,2371.2 912.1,2379.3 914,2387.5 918,2395.2 923.9,2401.9 931.5,2407.1 940.3,2410.5 950,2411.6 959.9,2410.3 969.5,2406.5 978.1,2400.4 985.1,2392.2 990.1,2382.2 992.5,2371.2 992.3,2359.5 989.1,2348.1 983.1,2337.5 974.6,2328.4 963.9,2321.6 951.6,2317.4 938.5,2316.3 925.1,2318.4 912.4,2323.8 901.2,2332.3 892.2,2343.4 886,2356.6 883.1,2371.2" fill="none" stroke="#6e421d" stroke-width="15.5" stroke-linecap="round" stroke-linejoin="round"/><polyline points="1113.6,2371.2 1112.6,2372.3 1112.1,2373.9 1112,2375.9 1112.7,2377.9 1114,2379.9 1116.1,2381.5 1118.7,2382.6 1121.8,2383 1125.2,2382.5 1128.5,2381.1 1131.5,2378.6 1134,2375.3 1135.6,2371.2 1136.2,2366.5 1135.5,2361.6 1133.5,2356.8 1130.3,2352.4 1125.8,2348.8 1120.4,2346.3 1114.2,2345.2 1107.7,2345.7 1101.2,2347.8 1095.3,2351.6 1090.2,2356.9 1086.5,2363.6 1084.5,2371.2 1084.3,2379.3 1086.3,2387.5 1090.2,2395.2 1096.1,2401.9 1103.7,2407.1 1112.6,2410.5 1122.2,2411.6 1132.2,2410.3 1141.7,2406.5 1150.3,2400.4 1157.3,2392.2 1162.3,2382.2 1164.8,2371.2 1164.5,2359.5 1161.3,2348.1 1155.4,2337.5 1146.8,2328.4 1136.1,2321.6 1123.9,2317.4 1110.7,2316.3 1097.3,2318.4 1084.7,2323.8 1073.4,2332.3 1064.4,2343.4 1058.2,2356.6 1055.3,2371.2" fill="none" stroke="#6e421d" stroke-width="15.5" stroke-linecap="round" stroke-linejoin="round"/><polyline points="1285.8,2371.2 1284.9,2372.3 1284.3,2373.9 1284.3,2375.9 1284.9,2377.9 1286.2,2379.9 1288.3,2381.5 1290.9,2382.6 1294.1,2383 1297.4,2382.5 1300.7,2381.1 1303.8,2378.6 1306.2,2375.3 1307.8,2371.2 1308.4,2366.5 1307.7,2361.6 1305.8,2356.8 1302.5,2352.4 1298,2348.8 1292.6,2346.3 1286.4,2345.2 1279.9,2345.7 1273.4,2347.8 1267.5,2351.6 1262.4,2356.9 1258.7,2363.6 1256.7,2371.2 1256.6,2379.3 1258.5,2387.5 1262.4,2395.2 1268.3,2401.9 1275.9,2407.1 1284.8,2410.5 1294.5,2411.6 1304.4,2410.3 1314,2406.5 1322.5,2400.4 1329.6,2392.2 1334.5,2382.2 1337,2371.2 1336.7,2359.5 1333.5,2348.1 1327.6,2337.5 1319,2328.4 1308.4,2321.6 1296.1,2317.4 1282.9,2316.3 1269.6,2318.4 1256.9,2323.8 1245.7,2332.3 1236.6,2343.4 1230.4,2356.6 1227.6,2371.2" fill="none" stroke="#6e421d" stroke-width="15.5" stroke-linecap="round" stroke-linejoin="round"/><polyline points="1458.1,2371.2 1457.1,2372.3 1456.5,2373.9 1456.5,2375.9 1457.1,2377.9 1458.5,2379.9 1460.5,2381.5 1463.2,2382.6 1466.3,2383 1469.6,2382.5 1472.9,2381.1 1476,2378.6 1478.4,2375.3 1480.1,2371.2 1480.6,2366.5 1480,2361.6 1478,2356.8 1474.7,2352.4 1470.2,2348.8 1464.8,2346.3 1458.6,2345.2 1452.1,2345.7 1445.7,2347.8 1439.7,2351.6 1434.7,2356.9 1431,2363.6 1428.9,2371.2 1428.8,2379.3 1430.7,2387.5 1434.7,2395.2 1440.6,2401.9 1448.1,2407.1 1457,2410.5 1466.7,2411.6 1476.6,2410.3 1486.2,2406.5 1494.8,2400.4 1501.8,2392.2 1506.7,2382.2 1509.2,2371.2 1508.9,2359.5 1505.8,2348.1 1499.8,2337.5 1491.3,2328.4 1480.6,2321.6 1468.3,2317.4 1455.1,2316.3 1441.8,2318.4 1429.1,2323.8 1417.9,2332.3 1408.9,2343.4 1402.7,2356.6 1399.8,2371.2" fill="none" stroke="#6e421d" stroke-width="15.5" stroke-linecap="round" stroke-linejoin="round"/><polyline points="1630.3,2371.2 1629.3,2372.3 1628.7,2373.9 1628.7,2375.9 1629.3,2377.9 1630.7,2379.9 1632.7,2381.5 1635.4,2382.6 1638.5,2383 1641.8,2382.5 1645.2,2381.1 1648.2,2378.6 1650.7,2375.3 1652.3,2371.2 1652.8,2366.5 1652.2,2361.6 1650.2,2356.8 1646.9,2352.4 1642.5,2348.8 1637,2346.3 1630.8,2345.2 1624.3,2345.7 1617.9,2347.8 1611.9,2351.6 1606.9,2356.9 1603.2,2363.6 1601.1,2371.2 1601,2379.3 1602.9,2387.5 1606.9,2395.2 1612.8,2401.9 1620.4,2407.1 1629.2,2410.5 1638.9,2411.6 1648.8,2410.3 1658.4,2406.5 1667,2400.4 1674,2392.2 1679,2382.2 1681.4,2371.2 1681.1,2359.5 1678,2348.1 1672,2337.5 1663.5,2328.4 1652.8,2321.6 1640.5,2317.4 1627.3,2316.3 1614,2318.4 1601.3,2323.8 1590.1,2332.3 1581.1,2343.4 1574.9,2356.6 1572,2371.2" fill="none" stroke="#6e421d" stroke-width="15.5" stroke-linecap="round" stroke-linejoin="round"/><polyline points="1802.5,2371.2 1801.5,2372.3 1800.9,2373.9 1800.9,2375.9 1801.6,2377.9 1802.9,2379.9 1805,2381.5 1807.6,2382.6 1810.7,2383 1814.1,2382.5 1817.4,2381.1 1820.4,2378.6 1822.9,2375.3 1824.5,2371.2 1825.1,2366.5 1824.4,2361.6 1822.4,2356.8 1819.1,2352.4 1814.7,2348.8 1809.2,2346.3 1803.1,2345.2 1796.5,2345.7 1790.1,2347.8 1784.1,2351.6 1779.1,2356.9 1775.4,2363.6 1773.4,2371.2 1773.2,2379.3 1775.1,2387.5 1779.1,2395.2 1785,2401.9 1792.6,2407.1 1801.4,2410.5 1811.1,2411.6 1821,2410.3 1830.6,2406.5 1839.2,2400.4 1846.2,2392.2 1851.2,2382.2 1853.6,2371.2 1853.3,2359.5 1850.2,2348.1 1844.2,2337.5 1835.7,2328.4 1825,2321.6 1812.7,2317.4 1799.5,2316.3 1786.2,2318.4 1773.5,2323.8 1762.3,2332.3 1753.3,2343.4 1747.1,2356.6 1744.2,2371.2" fill="none" stroke="#6e421d" stroke-width="15.5" stroke-linecap="round" stroke-linejoin="round"/><polyline points="1974.7,2371.2 1973.7,2372.3 1973.2,2373.9 1973.1,2375.9 1973.8,2377.9 1975.1,2379.9 1977.2,2381.5 1979.8,2382.6 1982.9,2383 1986.3,2382.5 1989.6,2381.1 1992.6,2378.6 1995.1,2375.3 1996.7,2371.2 1997.3,2366.5 1996.6,2361.6 1994.6,2356.8 1991.4,2352.4 1986.9,2348.8 1981.4,2346.3 1975.3,2345.2 1968.8,2345.7 1962.3,2347.8 1956.4,2351.6 1951.3,2356.9 1947.6,2363.6 1945.6,2371.2 1945.4,2379.3 1947.3,2387.5 1951.3,2395.2 1957.2,2401.9 1964.8,2407.1 1973.7,2410.5 1983.3,2411.6 1993.3,2410.3 2002.8,2406.5 2011.4,2400.4 2018.4,2392.2 2023.4,2382.2 2025.9,2371.2 2025.6,2359.5 2022.4,2348.1 2016.4,2337.5 2007.9,2328.4 1997.2,2321.6 1985,2317.4 1971.8,2316.3 1958.4,2318.4 1945.8,2323.8 1934.5,2332.3 1925.5,2343.4 1919.3,2356.6 1916.4,2371.2" fill="none" stroke="#6e421d" stroke-width="15.5" stroke-linecap="round" stroke-linejoin="round"/><line x1="250" y1="2502.6" x2="2150" y2="2502.6" stroke="#6e421d" stroke-width="6"/><line x1="280" y1="2697.1" x2="2120" y2="2697.1" stroke="#b3502f" stroke-width="8.9"/><line x1="403.1" y1="2689.7" x2="338.8" y2="2647.9" stroke="#b3502f" stroke-width="14.8" stroke-linecap="round"/><line x1="403.1" y1="2689.7" x2="345.9" y2="2616.4" stroke="#b3502f" stroke-width="14.8" stroke-linecap="round"/><line x1="403.1" y1="2689.7" x2="367.6" y2="2586.4" stroke="#b3502f" stroke-width="14.8" stroke-linecap="round"/><line x1="403.1" y1="2689.7" x2="403.1" y2="2564.3" stroke="#b3502f" stroke-width="14.8" stroke-linecap="round"/><line x1="403.1" y1="2689.7" x2="438.7" y2="2586.4" stroke="#b3502f" stroke-width="14.8" stroke-linecap="round"/><line x1="403.1" y1="2689.7" x2="460.4" y2="2616.4" stroke="#b3502f" stroke-width="14.8" stroke-linecap="round"/><line x1="403.1" y1="2689.7" x2="467.5" y2="2647.9" stroke="#b3502f" stroke-width="14.8" stroke-linecap="round"/><line x1="602.4" y1="2689.7" x2="538" y2="2647.9" stroke="#b3502f" stroke-width="14.8" stroke-linecap="round"/><line x1="602.4" y1="2689.7" x2="545.1" y2="2616.4" stroke="#b3502f" stroke-width="14.8" stroke-linecap="round"/><line x1="602.4" y1="2689.7" x2="566.8" y2="2586.4" stroke="#b3502f" stroke-width="14.8" stroke-linecap="round"/><line x1="602.4" y1="2689.7" x2="602.4" y2="2564.3" stroke="#b3502f" stroke-width="14.8" stroke-linecap="round"/><line x1="602.4" y1="2689.7" x2="637.9" y2="2586.4" stroke="#b3502f" stroke-width="14.8" stroke-linecap="round"/><line x1="602.4" y1="2689.7" x2="659.6" y2="2616.4" stroke="#b3502f" stroke-width="14.8" stroke-linecap="round"/><line x1="602.4" y1="2689.7" x2="666.7" y2="2647.9" stroke="#b3502f" stroke-width="14.8" stroke-linecap="round"/><line x1="801.6" y1="2689.7" x2="737.2" y2="2647.9" stroke="#b3502f" stroke-width="14.8" stroke-linecap="round"/><line x1="801.6" y1="2689.7" x2="744.3" y2="2616.4" stroke="#b3502f" stroke-width="14.8" stroke-linecap="round"/><line x1="801.6" y1="2689.7" x2="766" y2="2586.4" stroke="#b3502f" stroke-width="14.8" stroke-linecap="round"/><line x1="801.6" y1="2689.7" x2="801.6" y2="2564.3" stroke="#b3502f" stroke-width="14.8" stroke-linecap="round"/><line x1="801.6" y1="2689.7" x2="837.1" y2="2586.4" stroke="#b3502f" stroke-width="14.8" stroke-linecap="round"/><line x1="801.6" y1="2689.7" x2="858.8" y2="2616.4" stroke="#b3502f" stroke-width="14.8" stroke-linecap="round"/><line x1="801.6" y1="2689.7" x2="865.9" y2="2647.9" stroke="#b3502f" stroke-width="14.8" stroke-linecap="round"/><line x1="1000.8" y1="2689.7" x2="936.4" y2="2647.9" stroke="#b3502f" stroke-width="14.8" stroke-linecap="round"/><line x1="1000.8" y1="2689.7" x2="943.5" y2="2616.4" stroke="#b3502f" stroke-width="14.8" stroke-linecap="round"/><line x1="1000.8" y1="2689.7" x2="965.2" y2="2586.4" stroke="#b3502f" stroke-width="14.8" stroke-linecap="round"/><line x1="1000.8" y1="2689.7" x2="1000.8" y2="2564.3" stroke="#b3502f" stroke-width="14.8" stroke-linecap="round"/><line x1="1000.8" y1="2689.7" x2="1036.3" y2="2586.4" stroke="#b3502f" stroke-width="14.8" stroke-linecap="round"/><line x1="1000.8" y1="2689.7" x2="1058" y2="2616.4" stroke="#b3502f" stroke-width="14.8" stroke-linecap="round"/><line x1="1000.8" y1="2689.7" x2="1065.1" y2="2647.9" stroke="#b3502f" stroke-width="14.8" stroke-linecap="round"/><line x1="1200" y1="2689.7" x2="1135.6" y2="2647.9" stroke="#b3502f" stroke-width="14.8" stroke-linecap="round"/><line x1="1200" y1="2689.7" x2="1142.8" y2="2616.4" stroke="#b3502f" stroke-width="14.8" stroke-linecap="round"/><line x1="1200" y1="2689.7" x2="1164.4" y2="2586.4" stroke="#b3502f" stroke-width="14.8" stroke-linecap="round"/><line x1="1200" y1="2689.7" x2="1200" y2="2564.3" stroke="#b3502f" stroke-width="14.8" stroke-linecap="round"/><line x1="1200" y1="2689.7" x2="1235.6" y2="2586.4" stroke="#b3502f" stroke-width="14.8" stroke-linecap="round"/><line x1="1200" y1="2689.7" x2="1257.2" y2="2616.4" stroke="#b3502f" stroke-width="14.8" stroke-linecap="round"/><line x1="1200" y1="2689.7" x2="1264.4" y2="2647.9" stroke="#b3502f" stroke-width="14.8" stroke-linecap="round"/><line x1="1399.2" y1="2689.7" x2="1334.9" y2="2647.9" stroke="#b3502f" stroke-width="14.8" stroke-linecap="round"/><line x1="1399.2" y1="2689.7" x2="1342" y2="2616.4" stroke="#b3502f" stroke-width="14.8" stroke-linecap="round"/><line x1="1399.2" y1="2689.7" x2="1363.7" y2="2586.4" stroke="#b3502f" stroke-width="14.8" stroke-linecap="round"/><line x1="1399.2" y1="2689.7" x2="1399.2" y2="2564.3" stroke="#b3502f" stroke-width="14.8" stroke-linecap="round"/><line x1="1399.2" y1="2689.7" x2="1434.8" y2="2586.4" stroke="#b3502f" stroke-width="14.8" stroke-linecap="round"/><line x1="1399.2" y1="2689.7" x2="1456.5" y2="2616.4" stroke="#b3502f" stroke-width="14.8" stroke-linecap="round"/><line x1="1399.2" y1="2689.7" x2="1463.6" y2="2647.9" stroke="#b3502f" stroke-width="14.8" stroke-linecap="round"/><line x1="1598.4" y1="2689.7" x2="1534.1" y2="2647.9" stroke="#b3502f" stroke-width="14.8" stroke-linecap="round"/><line x1="1598.4" y1="2689.7" x2="1541.2" y2="2616.4" stroke="#b3502f" stroke-width="14.8" stroke-linecap="round"/><line x1="1598.4" y1="2689.7" x2="1562.9" y2="2586.4" stroke="#b3502f" stroke-width="14.8" stroke-linecap="round"/><line x1="1598.4" y1="2689.7" x2="1598.4" y2="2564.3" stroke="#b3502f" stroke-width="14.8" stroke-linecap="round"/><line x1="1598.4" y1="2689.7" x2="1634" y2="2586.4" stroke="#b3502f" stroke-width="14.8" stroke-linecap="round"/><line x1="1598.4" y1="2689.7" x2="1655.7" y2="2616.4" stroke="#b3502f" stroke-width="14.8" stroke-linecap="round"/><line x1="1598.4" y1="2689.7" x2="1662.8" y2="2647.9" stroke="#b3502f" stroke-width="14.8" stroke-linecap="round"/><line x1="1797.6" y1="2689.7" x2="1733.3" y2="2647.9" stroke="#b3502f" stroke-width="14.8" stroke-linecap="round"/><line x1="1797.6" y1="2689.7" x2="1740.4" y2="2616.4" stroke="#b3502f" stroke-width="14.8" stroke-linecap="round"/><line x1="1797.6" y1="2689.7" x2="1762.1" y2="2586.4" stroke="#b3502f" stroke-width="14.8" stroke-linecap="round"/><line x1="1797.6" y1="2689.7" x2="1797.6" y2="2564.3" stroke="#b3502f" stroke-width="14.8" stroke-linecap="round"/><line x1="1797.6" y1="2689.7" x2="1833.2" y2="2586.4" stroke="#b3502f" stroke-width="14.8" stroke-linecap="round"/><line x1="1797.6" y1="2689.7" x2="1854.9" y2="2616.4" stroke="#b3502f" stroke-width="14.8" stroke-linecap="round"/><line x1="1797.6" y1="2689.7" x2="1862" y2="2647.9" stroke="#b3502f" stroke-width="14.8" stroke-linecap="round"/><line x1="1996.9" y1="2689.7" x2="1932.5" y2="2647.9" stroke="#b3502f" stroke-width="14.8" stroke-linecap="round"/><line x1="1996.9" y1="2689.7" x2="1939.6" y2="2616.4" stroke="#b3502f" stroke-width="14.8" stroke-linecap="round"/><line x1="1996.9" y1="2689.7" x2="1961.3" y2="2586.4" stroke="#b3502f" stroke-width="14.8" stroke-linecap="round"/><line x1="1996.9" y1="2689.7" x2="1996.9" y2="2564.3" stroke="#b3502f" stroke-width="14.8" stroke-linecap="round"/><line x1="1996.9" y1="2689.7" x2="2032.4" y2="2586.4" stroke="#b3502f" stroke-width="14.8" stroke-linecap="round"/><line x1="1996.9" y1="2689.7" x2="2054.1" y2="2616.4" stroke="#b3502f" stroke-width="14.8" stroke-linecap="round"/><line x1="1996.9" y1="2689.7" x2="2061.2" y2="2647.9" stroke="#b3502f" stroke-width="14.8" stroke-linecap="round"/><line x1="250" y1="2740" x2="2150" y2="2740" stroke="#6e421d" stroke-width="6"/><line x1="250" y1="260" x2="2150" y2="260" stroke="#6e421d" stroke-width="6"/><rect x="100" y="100" width="2200" height="2800" fill="none" stroke="#6e421d" stroke-width="9"/><rect x="142" y="142" width="2116" height="2716" fill="none" stroke="#6e421d" stroke-width="3" opacity="0.65"/></svg></svg>