<svg xmlns="http://www.w3.org/2000/svg" width="2400" height="1800" viewBox="0 0 2400 1800"><rect width="2400" height="1800" fill="#e9e1d2"/><rect y="1430" width="2400" height="370" fill="#c8b190"/><line x1="120" y1="1430" x2="60" y2="1800" stroke="#00000018" stroke-width="6"/><line x1="380" y1="1430" x2="320" y2="1800" stroke="#00000018" stroke-width="6"/><line x1="640" y1="1430" x2="580" y2="1800" stroke="#00000018" stroke-width="6"/><line x1="900" y1="1430" x2="840" y2="1800" stroke="#00000018" stroke-width="6"/><line x1="1160" y1="1430" x2="1100" y2="1800" stroke="#00000018" stroke-width="6"/><line x1="1420" y1="1430" x2="1360" y2="1800" stroke="#00000018" stroke-width="6"/><line x1="1680" y1="1430" x2="1620" y2="1800" stroke="#00000018" stroke-width="6"/><line x1="1940" y1="1430" x2="1880" y2="1800" stroke="#00000018" stroke-width="6"/><line x1="2200" y1="1430" x2="2140" y2="1800" stroke="#00000018" stroke-width="6"/><rect y="1418" width="2400" height="16" fill="#d7cbb6"/><rect x="700" y="980" width="1000" height="460" rx="26" fill="#a87e57"/><rect x="660" y="1290" width="1080" height="210" rx="30" fill="#f1ebdf"/><rect x="660" y="1420" width="1080" height="120" rx="24" fill="#b3502f" opacity="0.85"/><rect x="770" y="1180" width="300" height="150" rx="40" fill="#faf6ec"/><rect x="1330" y="1180" width="300" height="150" rx="40" fill="#c9b98e"/><rect x="640" y="1530" width="1120" height="26" rx="12" fill="#a87e57"/><rect x="360" y="1260" width="240" height="220" rx="10" fill="#a87e57"/><rect x="380" y="1300" width="200" height="14" fill="#00000022"/><line x1="480" y1="1260" x2="480" y2="1130" stroke="#5a4632" stroke-width="12"/><path d="M410,1130 L550,1130 L520,1020 L440,1020 Z" fill="#b3502f"/><path d="M2060,1520 Q 1910,1282.5 1835,1345" fill="none" stroke="#5d7052" stroke-width="20" stroke-linecap="round"/><path d="M2060,1520 Q 1960,1282.5 1910,1295" fill="none" stroke="#5d7052" stroke-width="20" stroke-linecap="round"/><path d="M2060,1520 Q 2010,1282.5 1985,1245" fill="none" stroke="#5d7052" stroke-width="20" stroke-linecap="round"/><path d="M2060,1520 Q 2060,1282.5 2060,1195" fill="none" stroke="#5d7052" stroke-width="20" stroke-linecap="round"/><path d="M2060,1520 Q 2110,1282.5 2135,1245" fill="none" stroke="#5d7052" stroke-width="20" stroke-linecap="round"/><path d="M2060,1520 Q 2160,1282.5 2210,1295" fill="none" stroke="#5d7052" stroke-width="20" stroke-linecap="round"/><path d="M2060,1520 Q 2210,1282.5 2285,1345" fill="none" stroke="#5d7052" stroke-width="20" stroke-linecap="round"/><path d="M1972.5,1520 L2147.5,1520 L2125,1657.5 L1995,1657.5 Z" fill="#a9714d"/><defs><filter id="a95b-sh" x="-30%" y="-30%" width="160%" height="160%"><feGaussianBlur stdDeviation="16"/></filter></defs><rect x="928" y="246" width="572" height="702" fill="#000" opacity="0.28" filter="url(#a95b-sh)"/><rect x="914" y="224" width="572" height="702" fill="#4a3d2f"/><rect x="930.9" y="240.9" width="538.2" height="668.2" fill="none" stroke="#00000055" stroke-width="3"/><rect x="940" y="250" width="520" height="650" fill="#f6f2ea"/><svg x="979" y="289" width="442" height="572" viewBox="0 0 2400 3000" preserveAspectRatio="xMidYMid slice"><rect width="2400" height="3000" fill="#e9dcbc"/><radialGradient id="a95-vig" cx="50%" cy="42%" r="80%"><stop offset="55%" stop-color="#000" stop-opacity="0"/><stop offset="100%" stop-color="#000" stop-opacity="0.15"/></radialGradient><rect width="2400" height="3000" fill="url(#a95-vig)"/><circle cx="2011.6" cy="1396.4" r="4.5" fill="#2c4661" opacity="0.053"/><circle cx="2158.3" cy="1380.4" r="1.9" fill="#2c4661" opacity="0.062"/><circle cx="1891" cy="2817.2" r="3.3" fill="#2c4661" opacity="0.069"/><circle cx="2165.2" cy="2174.2" r="4.4" fill="#2c4661" opacity="0.054"/><circle cx="688.4" cy="2117.5" r="2.1" fill="#2c4661" opacity="0.034"/><circle cx="1444.3" cy="2367.6" r="3.6" fill="#2c4661" opacity="0.037"/><circle cx="434.8" cy="2475.4" r="2.3" fill="#2c4661" opacity="0.058"/><circle cx="1238.1" cy="678" r="3.1" fill="#2c4661" opacity="0.068"/><circle cx="1397.1" cy="284.6" r="4.3" fill="#2c4661" opacity="0.053"/><circle cx="153.3" cy="1875.9" r="3" fill="#2c4661" opacity="0.034"/><circle cx="946" cy="995.8" r="2" fill="#2c4661" opacity="0.072"/><circle cx="2329.9" cy="449.2" r="1.9" fill="#2c4661" opacity="0.076"/><circle cx="1828.4" cy="1450.3" r="2.8" fill="#2c4661" opacity="0.053"/><circle cx="519.3" cy="1846.8" r="2.8" fill="#2c4661" opacity="0.053"/><circle cx="508.6" cy="534.4" r="3" fill="#2c4661" opacity="0.061"/><circle cx="449.2" cy="2204" r="1.5" fill="#2c4661" opacity="0.032"/><circle cx="149.6" cy="1329.7" r="4.1" fill="#2c4661" opacity="0.050"/><circle cx="1418.8" cy="267.9" r="2.4" fill="#2c4661" opacity="0.055"/><circle cx="2229.7" cy="1800.3" r="3.7" fill="#2c4661" opacity="0.079"/><circle cx="887" cy="1787.7" r="3.4" fill="#2c4661" opacity="0.046"/><circle cx="1966.5" cy="1629.9" r="1.8" fill="#2c4661" opacity="0.047"/><circle cx="1933.6" cy="602.9" r="3.1" fill="#2c4661" opacity="0.046"/><circle cx="980.2" cy="1206.2" r="2.8" fill="#2c4661" opacity="0.076"/><circle cx="831.3" cy="179.9" r="3.5" fill="#2c4661" opacity="0.052"/><circle cx="919.4" cy="2707.2" r="2.4" fill="#2c4661" opacity="0.048"/><circle cx="692.2" cy="566.3" r="2.4" fill="#2c4661" opacity="0.063"/><circle cx="662.5" cy="1163" r="3.5" fill="#2c4661" opacity="0.031"/><circle cx="2237.9" cy="125.8" r="1.8" fill="#2c4661" opacity="0.034"/><circle cx="537.8" cy="410.9" r="4.2" fill="#2c4661" opacity="0.067"/><circle cx="1443.1" cy="1781.8" r="2.3" fill="#2c4661" opacity="0.043"/><circle cx="2026.7" cy="2585.8" r="2.5" fill="#2c4661" opacity="0.041"/><circle cx="2153.4" cy="2499.2" r="3.1" fill="#2c4661" opacity="0.030"/><circle cx="1192.1" cy="1066.7" r="3.3" fill="#2c4661" opacity="0.077"/><circle cx="1905.7" cy="660.7" r="2.5" fill="#2c4661" opacity="0.058"/><circle cx="1462.2" cy="820.5" r="2.8" fill="#2c4661" opacity="0.064"/><circle cx="896.1" cy="2677.8" r="1.9" fill="#2c4661" opacity="0.054"/><circle cx="2273.8" cy="844" r="3.4" fill="#2c4661" opacity="0.064"/><circle cx="120.5" cy="1461" r="2.4" fill="#2c4661" opacity="0.051"/><circle cx="1083.3" cy="1212.3" r="3" fill="#2c4661" opacity="0.040"/><circle cx="929.1" cy="232.6" r="2" fill="#2c4661" opacity="0.074"/><circle cx="730.7" cy="2551.7" r="1.6" fill="#2c4661" opacity="0.045"/><circle cx="1037.3" cy="1949.8" r="2.2" fill="#2c4661" opacity="0.074"/><circle cx="2306.4" cy="2779.7" r="1.9" fill="#2c4661" opacity="0.050"/><circle cx="1849.2" cy="1267.9" r="4" fill="#2c4661" opacity="0.071"/><circle cx="416.9" cy="2003.4" r="3.2" fill="#2c4661" opacity="0.048"/><circle cx="2197" cy="243" r="1.9" fill="#2c4661" opacity="0.047"/><circle cx="551" cy="2646.9" r="2.6" fill="#2c4661" opacity="0.080"/><circle cx="613.4" cy="1178" r="3.1" fill="#2c4661" opacity="0.041"/><circle cx="2092.7" cy="1635.1" r="4.3" fill="#2c4661" opacity="0.079"/><circle cx="2041.9" cy="2798.5" r="4.2" fill="#2c4661" opacity="0.057"/><circle cx="1933.4" cy="279.4" r="2.2" fill="#2c4661" opacity="0.057"/><circle cx="2079.1" cy="2487.8" r="2.1" fill="#2c4661" opacity="0.065"/><circle cx="1523.9" cy="202.9" r="3.5" fill="#2c4661" opacity="0.039"/><circle cx="1425.6" cy="2632.1" r="3.8" fill="#2c4661" opacity="0.048"/><circle cx="1512" cy="424.2" r="4.4" fill="#2c4661" opacity="0.052"/><circle cx="2195" cy="1123.7" r="4.3" fill="#2c4661" opacity="0.051"/><circle cx="156" cy="2678.3" r="3.7" fill="#2c4661" opacity="0.037"/><circle cx="2299.8" cy="641.7" r="1.6" fill="#2c4661" opacity="0.065"/><circle cx="2183.7" cy="1261.4" r="1.6" fill="#2c4661" opacity="0.067"/><circle cx="1726.8" cy="1134.2" r="3.7" fill="#2c4661" opacity="0.042"/><circle cx="958.1" cy="91.8" r="3.2" fill="#2c4661" opacity="0.046"/><circle cx="320" cy="109.4" r="4.4" fill="#2c4661" opacity="0.067"/><circle cx="508.6" cy="956.7" r="2.6" fill="#2c4661" opacity="0.035"/><circle cx="1019.8" cy="1481.3" r="1.6" fill="#2c4661" opacity="0.043"/><circle cx="1732.5" cy="391.1" r="3.7" fill="#2c4661" opacity="0.047"/><circle cx="477" cy="2555.4" r="1.5" fill="#2c4661" opacity="0.034"/><circle cx="481.3" cy="1946.7" r="4.5" fill="#2c4661" opacity="0.078"/><circle cx="2345.7" cy="2589.7" r="1.5" fill="#2c4661" opacity="0.031"/><circle cx="120.8" cy="1108.9" r="3.8" fill="#2c4661" opacity="0.064"/><circle cx="378.5" cy="2192.9" r="2.7" fill="#2c4661" opacity="0.077"/><circle cx="834.9" cy="2616.2" r="4.1" fill="#2c4661" opacity="0.039"/><circle cx="1741.3" cy="997.4" r="2" fill="#2c4661" opacity="0.049"/><circle cx="956.5" cy="1469.6" r="4.3" fill="#2c4661" opacity="0.035"/><circle cx="612" cy="175.7" r="4.1" fill="#2c4661" opacity="0.076"/><circle cx="920.2" cy="1449.5" r="3.5" fill="#2c4661" opacity="0.034"/><circle cx="250.3" cy="2463.2" r="1.8" fill="#2c4661" opacity="0.056"/><circle cx="1348.3" cy="514.3" r="3.7" fill="#2c4661" opacity="0.079"/><circle cx="1627.6" cy="2607.6" r="4.3" fill="#2c4661" opacity="0.036"/><circle cx="2142.9" cy="1889.4" r="4.2" fill="#2c4661" opacity="0.063"/><circle cx="2297.9" cy="152.4" r="1.9" fill="#2c4661" opacity="0.071"/><path d="M1166,1575.5 A130,130 0 1 1 1233.3,1575.7" fill="none" stroke="#2c4661" stroke-width="45.7" stroke-linecap="round"/><line x1="1146.8" y1="1568.6" x2="1102.3" y2="1667.8" stroke="#2c4661" stroke-width="45.7" stroke-linecap="round"/><path d="M1258.5,1218.5 A238.8,238.8 0 1 1 1134.9,1220.3" fill="none" stroke="#2c4661" stroke-width="45.7" stroke-linecap="round"/><line x1="1099.8" y1="1233.3" x2="1054.2" y2="1134.6" stroke="#2c4661" stroke-width="45.7" stroke-linecap="round"/><path d="M1169.3,1796.1 A347.5,347.5 0 1 1 1346.4,1765.1" fill="none" stroke="#2c4661" stroke-width="45.7" stroke-linecap="round"/><line x1="1115.5" y1="1787.1" x2="1089" y2="1892.6" stroke="#2c4661" stroke-width="45.7" stroke-linecap="round"/><path d="M1409.7,1044.8 A456.3,456.3 0 1 1 1179.1,994.2" fill="none" stroke="#2c4661" stroke-width="45.7" stroke-linecap="round"/><line x1="1108" y1="1003.1" x2="1086.1" y2="896.6" stroke="#2c4661" stroke-width="45.7" stroke-linecap="round"/><path d="M1073.5,2000.7 A565,565 0 1 1 1365.8,1990.1" fill="none" stroke="#2c4661" stroke-width="45.7" stroke-linecap="round"/><line x1="988.9" y1="1974.1" x2="948.3" y2="2075" stroke="#2c4661" stroke-width="45.7" stroke-linecap="round"/><path d="M1505.9,849.7 A673.8,673.8 0 1 1 1164.8,777.2" fill="none" stroke="#2c4661" stroke-width="45.7" stroke-linecap="round"/><line x1="1059.9" y1="791" x2="1037.3" y2="684.6" stroke="#2c4661" stroke-width="45.7" stroke-linecap="round"/><path d="M1182,2232.3 A782.5,782.5 0 1 1 1575.5,2136.5" fill="none" stroke="#2c4661" stroke-width="45.7" stroke-linecap="round"/><line x1="1059.8" y1="2219.8" x2="1040.3" y2="2326.8" stroke="#2c4661" stroke-width="45.7" stroke-linecap="round"/><path d="M1433.5,589.9 A891.3,891.3 0 1 1 972.2,588.4" fill="none" stroke="#2c4661" stroke-width="45.7" stroke-linecap="round"/><circle cx="1200" cy="1450" r="56" fill="#b3502f"/><path d="M324.7,287.3 L 395.3,287.3 L 395.3,216.7 L 339.8,216.7 L 339.8,260.4 L 368.4,260.4 L 368.4,238.6 M408.7,287.3 L 479.3,287.3 L 479.3,216.7 L 423.8,216.7 L 423.8,260.4 L 452.4,260.4 L 452.4,238.6 M492.7,287.3 L 563.3,287.3 L 563.3,216.7 L 507.8,216.7 L 507.8,260.4 L 536.4,260.4 L 536.4,238.6 M576.7,287.3 L 647.3,287.3 L 647.3,216.7 L 591.8,216.7 L 591.8,260.4 L 620.4,260.4 L 620.4,238.6 M660.7,287.3 L 731.3,287.3 L 731.3,216.7 L 675.8,216.7 L 675.8,260.4 L 704.4,260.4 L 704.4,238.6 M744.7,287.3 L 815.3,287.3 L 815.3,216.7 L 759.8,216.7 L 759.8,260.4 L 788.4,260.4 L 788.4,238.6 M828.7,287.3 L 899.3,287.3 L 899.3,216.7 L 843.8,216.7 L 843.8,260.4 L 872.4,260.4 L 872.4,238.6 M912.7,287.3 L 983.3,287.3 L 983.3,216.7 L 927.8,216.7 L 927.8,260.4 L 956.4,260.4 L 956.4,238.6 M996.7,287.3 L 1067.3,287.3 L 1067.3,216.7 L 1011.8,216.7 L 1011.8,260.4 L 1040.4,260.4 L 1040.4,238.6 M1080.7,287.3 L 1151.3,287.3 L 1151.3,216.7 L 1095.8,216.7 L 1095.8,260.4 L 1124.4,260.4 L 1124.4,238.6 M1164.7,287.3 L 1235.3,287.3 L 1235.3,216.7 L 1179.8,216.7 L 1179.8,260.4 L 1208.4,260.4 L 1208.4,238.6 M1248.7,287.3 L 1319.3,287.3 L 1319.3,216.7 L 1263.8,216.7 L 1263.8,260.4 L 1292.4,260.4 L 1292.4,238.6 M1332.7,287.3 L 1403.3,287.3 L 1403.3,216.7 L 1347.8,216.7 L 1347.8,260.4 L 1376.4,260.4 L 1376.4,238.6 M1416.7,287.3 L 1487.3,287.3 L 1487.3,216.7 L 1431.8,216.7 L 1431.8,260.4 L 1460.4,260.4 L 1460.4,238.6 M1500.7,287.3 L 1571.3,287.3 L 1571.3,216.7 L 1515.8,216.7 L 1515.8,260.4 L 1544.4,260.4 L 1544.4,238.6 M1584.7,287.3 L 1655.3,287.3 L 1655.3,216.7 L 1599.8,216.7 L 1599.8,260.4 L 1628.4,260.4 L 1628.4,238.6 M1668.7,287.3 L 1739.3,287.3 L 1739.3,216.7 L 1683.8,216.7 L 1683.8,260.4 L 1712.4,260.4 L 1712.4,238.6 M1752.7,287.3 L 1823.3,287.3 L 1823.3,216.7 L 1767.8,216.7 L 1767.8,260.4 L 1796.4,260.4 L 1796.4,238.6 M1836.7,287.3 L 1907.3,287.3 L 1907.3,216.7 L 1851.8,216.7 L 1851.8,260.4 L 1880.4,260.4 L 1880.4,238.6 M1920.7,287.3 L 1991.3,287.3 L 1991.3,216.7 L 1935.8,216.7 L 1935.8,260.4 L 1964.4,260.4 L 1964.4,238.6 M2004.7,287.3 L 2075.3,287.3 L 2075.3,216.7 L 2019.8,216.7 L 2019.8,260.4 L 2048.4,260.4 L 2048.4,238.6 " fill="none" stroke="#2c4661" stroke-width="10.9"/><path d="M324.7,2777.3 L 395.3,2777.3 L 395.3,2706.7 L 339.8,2706.7 L 339.8,2750.4 L 368.4,2750.4 L 368.4,2728.6 M408.7,2777.3 L 479.3,2777.3 L 479.3,2706.7 L 423.8,2706.7 L 423.8,2750.4 L 452.4,2750.4 L 452.4,2728.6 M492.7,2777.3 L 563.3,2777.3 L 563.3,2706.7 L 507.8,2706.7 L 507.8,2750.4 L 536.4,2750.4 L 536.4,2728.6 M576.7,2777.3 L 647.3,2777.3 L 647.3,2706.7 L 591.8,2706.7 L 591.8,2750.4 L 620.4,2750.4 L 620.4,2728.6 M660.7,2777.3 L 731.3,2777.3 L 731.3,2706.7 L 675.8,2706.7 L 675.8,2750.4 L 704.4,2750.4 L 704.4,2728.6 M744.7,2777.3 L 815.3,2777.3 L 815.3,2706.7 L 759.8,2706.7 L 759.8,2750.4 L 788.4,2750.4 L 788.4,2728.6 M828.7,2777.3 L 899.3,2777.3 L 899.3,2706.7 L 843.8,2706.7 L 843.8,2750.4 L 872.4,2750.4 L 872.4,2728.6 M912.7,2777.3 L 983.3,2777.3 L 983.3,2706.7 L 927.8,2706.7 L 927.8,2750.4 L 956.4,2750.4 L 956.4,2728.6 M996.7,2777.3 L 1067.3,2777.3 L 1067.3,2706.7 L 1011.8,2706.7 L 1011.8,2750.4 L 1040.4,2750.4 L 1040.4,2728.6 M1080.7,2777.3 L 1151.3,2777.3 L 1151.3,2706.7 L 1095.8,2706.7 L 1095.8,2750.4 L 1124.4,2750.4 L 1124.4,2728.6 M1164.7,2777.3 L 1235.3,2777.3 L 1235.3,2706.7 L 1179.8,2706.7 L 1179.8,2750.4 L 1208.4,2750.4 L 1208.4,2728.6 M1248.7,2777.3 L 1319.3,2777.3 L 1319.3,2706.7 L 1263.8,2706.7 L 1263.8,2750.4 L 1292.4,2750.4 L 1292.4,2728.6 M1332.7,2777.3 L 1403.3,2777.3 L 1403.3,2706.7 L 1347.8,2706.7 L 1347.8,2750.4 L 1376.4,2750.4 L 1376.4,2728.6 M1416.7,2777.3 L 1487.3,2777.3 L 1487.3,2706.7 L 1431.8,2706.7 L 1431.8,2750.4 L 1460.4,2750.4 L 1460.4,2728.6 M1500.7,2777.3 L 1571.3,2777.3 L 1571.3,2706.7 L 1515.8,2706.7 L 1515.8,2750.4 L 1544.4,2750.4 L 1544.4,2728.6 M1584.7,2777.3 L 1655.3,2777.3 L 1655.3,2706.7 L 1599.8,2706.7 L 1599.8,2750.4 L 1628.4,2750.4 L 1628.4,2728.6 M1668.7,2777.3 L 1739.3,2777.3 L 1739.3,2706.7 L 1683.8,2706.7 L 1683.8,2750.4 L 1712.4,2750.4 L 1712.4,2728.6 M1752.7,2777.3 L 1823.3,2777.3 L 1823.3,2706.7 L 1767.8,2706.7 L 1767.8,2750.4 L 1796.4,2750.4 L 1796.4,2728.6 M1836.7,2777.3 L 1907.3,2777.3 L 1907.3,2706.7 L 1851.8,2706.7 L 1851.8,2750.4 L 1880.4,2750.4 L 1880.4,2728.6 M1920.7,2777.3 L 1991.3,2777.3 L 1991.3,2706.7 L 1935.8,2706.7 L 1935.8,2750.4 L 1964.4,2750.4 L 1964.4,2728.6 M2004.7,2777.3 L 2075.3,2777.3 L 2075.3,2706.7 L 2019.8,2706.7 L 2019.8,2750.4 L 2048.4,2750.4 L 2048.4,2728.6 " fill="none" stroke="#2c4661" stroke-width="10.9"/><rect x="100" y="100" width="2200" height="2800" fill="none" stroke="#2c4661" stroke-width="9"/><rect x="142" y="142" width="2116" height="2716" fill="none" stroke="#2c4661" stroke-width="3" opacity="0.65"/></svg></svg>