<svg xmlns="http://www.w3.org/2000/svg" width="2400" height="1800" viewBox="0 0 2400 1800"><rect width="2400" height="1800" fill="#e9e1d2"/><rect y="1430" width="2400" height="370" fill="#c8b190"/><line x1="120" y1="1430" x2="60" y2="1800" stroke="#00000018" stroke-width="6"/><line x1="380" y1="1430" x2="320" y2="1800" stroke="#00000018" stroke-width="6"/><line x1="640" y1="1430" x2="580" y2="1800" stroke="#00000018" stroke-width="6"/><line x1="900" y1="1430" x2="840" y2="1800" stroke="#00000018" stroke-width="6"/><line x1="1160" y1="1430" x2="1100" y2="1800" stroke="#00000018" stroke-width="6"/><line x1="1420" y1="1430" x2="1360" y2="1800" stroke="#00000018" stroke-width="6"/><line x1="1680" y1="1430" x2="1620" y2="1800" stroke="#00000018" stroke-width="6"/><line x1="1940" y1="1430" x2="1880" y2="1800" stroke="#00000018" stroke-width="6"/><line x1="2200" y1="1430" x2="2140" y2="1800" stroke="#00000018" stroke-width="6"/><rect y="1418" width="2400" height="16" fill="#d7cbb6"/><rect x="700" y="980" width="1000" height="460" rx="26" fill="#a87e57"/><rect x="660" y="1290" width="1080" height="210" rx="30" fill="#f1ebdf"/><rect x="660" y="1420" width="1080" height="120" rx="24" fill="#96a396" opacity="0.85"/><rect x="770" y="1180" width="300" height="150" rx="40" fill="#faf6ec"/><rect x="1330" y="1180" width="300" height="150" rx="40" fill="#cfc7b2"/><rect x="640" y="1530" width="1120" height="26" rx="12" fill="#a87e57"/><rect x="360" y="1260" width="240" height="220" rx="10" fill="#a87e57"/><rect x="380" y="1300" width="200" height="14" fill="#00000022"/><line x1="480" y1="1260" x2="480" y2="1130" stroke="#5a4632" stroke-width="12"/><path d="M410,1130 L550,1130 L520,1020 L440,1020 Z" fill="#96a396"/><path d="M2060,1520 Q 1910,1282.5 1835,1345" fill="none" stroke="#5d7052" stroke-width="20" stroke-linecap="round"/><path d="M2060,1520 Q 1960,1282.5 1910,1295" fill="none" stroke="#5d7052" stroke-width="20" stroke-linecap="round"/><path d="M2060,1520 Q 2010,1282.5 1985,1245" fill="none" stroke="#5d7052" stroke-width="20" stroke-linecap="round"/><path d="M2060,1520 Q 2060,1282.5 2060,1195" fill="none" stroke="#5d7052" stroke-width="20" stroke-linecap="round"/><path d="M2060,1520 Q 2110,1282.5 2135,1245" fill="none" stroke="#5d7052" stroke-width="20" stroke-linecap="round"/><path d="M2060,1520 Q 2160,1282.5 2210,1295" fill="none" stroke="#5d7052" stroke-width="20" stroke-linecap="round"/><path d="M2060,1520 Q 2210,1282.5 2285,1345" fill="none" stroke="#5d7052" stroke-width="20" stroke-linecap="round"/><path d="M1972.5,1520 L2147.5,1520 L2125,1657.5 L1995,1657.5 Z" fill="#a9714d"/><defs><filter id="a81b-sh" x="-30%" y="-30%" width="160%" height="160%"><feGaussianBlur stdDeviation="16"/></filter></defs><rect x="928" y="246" width="572" height="702" fill="#000" opacity="0.28" filter="url(#a81b-sh)"/><rect x="914" y="224" width="572" height="702" fill="#4a3d2f"/><rect x="930.9" y="240.9" width="538.2" height="668.2" fill="none" stroke="#00000055" stroke-width="3"/><rect x="940" y="250" width="520" height="650" fill="#f6f2ea"/><svg x="979" y="289" width="442" height="572" viewBox="0 0 2400 3000" preserveAspectRatio="xMidYMid slice"><rect width="2400" height="3000" fill="#e7e1d3"/><radialGradient id="a81-vig" cx="50%" cy="42%" r="80%"><stop offset="55%" stop-color="#000" stop-opacity="0"/><stop offset="100%" stop-color="#000" stop-opacity="0.15"/></radialGradient><rect width="2400" height="3000" fill="url(#a81-vig)"/><circle cx="371" cy="1367.7" r="3.4" fill="#39685c" opacity="0.045"/><circle cx="43.2" cy="529.8" r="3.6" fill="#39685c" opacity="0.066"/><circle cx="304.2" cy="134.2" r="3.7" fill="#39685c" opacity="0.042"/><circle cx="622.2" cy="1196.4" r="3.6" fill="#39685c" opacity="0.044"/><circle cx="1634.2" cy="1167.7" r="3" fill="#39685c" opacity="0.044"/><circle cx="1755.2" cy="792.2" r="1.9" fill="#39685c" opacity="0.041"/><circle cx="2007.2" cy="1530.4" r="2.1" fill="#39685c" opacity="0.075"/><circle cx="1756" cy="2278.1" r="4.5" fill="#39685c" opacity="0.039"/><circle cx="486.7" cy="338.8" r="3.2" fill="#39685c" opacity="0.045"/><circle cx="1645.3" cy="1405.8" r="4.4" fill="#39685c" opacity="0.041"/><circle cx="582.3" cy="1647.7" r="2.4" fill="#39685c" opacity="0.073"/><circle cx="185.1" cy="872.4" r="4.4" fill="#39685c" opacity="0.069"/><circle cx="1499.8" cy="793.4" r="1.7" fill="#39685c" opacity="0.075"/><circle cx="1783.5" cy="826.5" r="2.6" fill="#39685c" opacity="0.075"/><circle cx="196.5" cy="395.2" r="3.3" fill="#39685c" opacity="0.041"/><circle cx="1295.6" cy="503.6" r="2.5" fill="#39685c" opacity="0.068"/><circle cx="2114.5" cy="884.6" r="4.2" fill="#39685c" opacity="0.059"/><circle cx="2126" cy="2235.8" r="4" fill="#39685c" opacity="0.056"/><circle cx="715.2" cy="225" r="1.9" fill="#39685c" opacity="0.045"/><circle cx="1775" cy="1990.8" r="2.7" fill="#39685c" opacity="0.078"/><circle cx="2178" cy="2277.2" r="3.8" fill="#39685c" opacity="0.035"/><circle cx="1286" cy="2116.1" r="2.4" fill="#39685c" opacity="0.079"/><circle cx="2265.5" cy="2008" r="4.3" fill="#39685c" opacity="0.060"/><circle cx="2158.3" cy="2079.2" r="2.1" fill="#39685c" opacity="0.071"/><circle cx="2061.8" cy="75.1" r="2.2" fill="#39685c" opacity="0.072"/><circle cx="2069.2" cy="2417.3" r="1.8" fill="#39685c" opacity="0.052"/><circle cx="2322.2" cy="2155.5" r="2.8" fill="#39685c" opacity="0.077"/><circle cx="514.9" cy="2026.9" r="1.6" fill="#39685c" opacity="0.042"/><circle cx="1759.1" cy="1793.1" r="4.1" fill="#39685c" opacity="0.058"/><circle cx="909.8" cy="2837.5" r="4.1" fill="#39685c" opacity="0.070"/><circle cx="2186.5" cy="1144.6" r="3.1" fill="#39685c" opacity="0.067"/><circle cx="93.4" cy="859.2" r="3.6" fill="#39685c" opacity="0.042"/><circle cx="2063.1" cy="2520.6" r="4.1" fill="#39685c" opacity="0.059"/><circle cx="778.5" cy="1492.9" r="1.7" fill="#39685c" opacity="0.053"/><circle cx="1140.3" cy="1000.8" r="2" fill="#39685c" opacity="0.038"/><circle cx="1719.2" cy="768.9" r="2.6" fill="#39685c" opacity="0.043"/><circle cx="1174.4" cy="2504.7" r="3.9" fill="#39685c" opacity="0.055"/><circle cx="1966" cy="2472.3" r="1.7" fill="#39685c" opacity="0.050"/><circle cx="507.6" cy="2130.3" r="2.3" fill="#39685c" opacity="0.058"/><circle cx="1912.7" cy="80.4" r="4.4" fill="#39685c" opacity="0.063"/><circle cx="825.3" cy="40.9" r="1.5" fill="#39685c" opacity="0.033"/><circle cx="317.8" cy="1592.6" r="4.3" fill="#39685c" opacity="0.074"/><circle cx="1654.7" cy="894.6" r="4.1" fill="#39685c" opacity="0.034"/><circle cx="1389.7" cy="1297.9" r="3.5" fill="#39685c" opacity="0.075"/><circle cx="866.1" cy="1512" r="4.1" fill="#39685c" opacity="0.031"/><circle cx="1328.2" cy="2959.9" r="2.5" fill="#39685c" opacity="0.058"/><circle cx="755.5" cy="2835.7" r="3" fill="#39685c" opacity="0.037"/><circle cx="1587.7" cy="2247.1" r="1.7" fill="#39685c" opacity="0.038"/><circle cx="1149.4" cy="174.4" r="2" fill="#39685c" opacity="0.068"/><circle cx="278.8" cy="1974" r="2.4" fill="#39685c" opacity="0.055"/><circle cx="1842.7" cy="2422.7" r="3.8" fill="#39685c" opacity="0.045"/><circle cx="631.2" cy="985.5" r="2.3" fill="#39685c" opacity="0.032"/><circle cx="917.3" cy="1286" r="2.2" fill="#39685c" opacity="0.046"/><circle cx="1928.6" cy="2346.3" r="2" fill="#39685c" opacity="0.056"/><circle cx="1091.2" cy="868.1" r="2.8" fill="#39685c" opacity="0.077"/><circle cx="2340.3" cy="1318.7" r="2.7" fill="#39685c" opacity="0.035"/><circle cx="1250.1" cy="742.6" r="2.4" fill="#39685c" opacity="0.054"/><circle cx="1136.2" cy="354.6" r="4.2" fill="#39685c" opacity="0.077"/><circle cx="456.5" cy="1355.3" r="3.3" fill="#39685c" opacity="0.040"/><circle cx="593.8" cy="625.7" r="3.9" fill="#39685c" opacity="0.063"/><circle cx="320.7" cy="1826.7" r="2" fill="#39685c" opacity="0.048"/><circle cx="368.9" cy="1985.8" r="4.3" fill="#39685c" opacity="0.051"/><circle cx="1737.4" cy="1871.9" r="3.4" fill="#39685c" opacity="0.048"/><circle cx="1406.9" cy="2693.5" r="3.1" fill="#39685c" opacity="0.056"/><circle cx="126.7" cy="2705.5" r="4.4" fill="#39685c" opacity="0.056"/><circle cx="812.1" cy="2880.5" r="4.2" fill="#39685c" opacity="0.036"/><circle cx="1827.1" cy="299.1" r="2.3" fill="#39685c" opacity="0.063"/><circle cx="2039.8" cy="2238.9" r="4.2" fill="#39685c" opacity="0.079"/><circle cx="2269.6" cy="1775.9" r="1.6" fill="#39685c" opacity="0.075"/><circle cx="2177.8" cy="1433.4" r="3.1" fill="#39685c" opacity="0.046"/><circle cx="1982.4" cy="141.7" r="1.6" fill="#39685c" opacity="0.046"/><circle cx="1793.6" cy="2641.8" r="4.2" fill="#39685c" opacity="0.080"/><circle cx="1128.4" cy="61.8" r="3.4" fill="#39685c" opacity="0.071"/><circle cx="1315.7" cy="912.4" r="2.3" fill="#39685c" opacity="0.070"/><circle cx="1254.2" cy="232.3" r="2.5" fill="#39685c" opacity="0.039"/><circle cx="122.4" cy="62" r="1.6" fill="#39685c" opacity="0.043"/><circle cx="1175.1" cy="1956.9" r="4.2" fill="#39685c" opacity="0.062"/><circle cx="563.4" cy="2302" r="2.9" fill="#39685c" opacity="0.058"/><circle cx="1372.9" cy="923.6" r="2.9" fill="#39685c" opacity="0.052"/><circle cx="1355.8" cy="2148.4" r="2.1" fill="#39685c" opacity="0.042"/><rect x="280" y="327.9" width="103.9" height="103.9" fill="#39685c"/><rect x="383.9" y="431.8" width="103.9" height="103.9" fill="#39685c"/><rect x="487.8" y="327.9" width="103.9" height="103.9" fill="#39685c"/><rect x="591.7" y="431.8" width="103.9" height="103.9" fill="#39685c"/><rect x="695.6" y="327.9" width="103.9" height="103.9" fill="#39685c"/><rect x="799.6" y="431.8" width="103.9" height="103.9" fill="#39685c"/><rect x="903.5" y="327.9" width="103.9" height="103.9" fill="#39685c"/><rect x="1007.4" y="431.8" width="103.9" height="103.9" fill="#39685c"/><rect x="1111.3" y="327.9" width="103.9" height="103.9" fill="#39685c"/><rect x="1215.2" y="431.8" width="103.9" height="103.9" fill="#39685c"/><rect x="1319.1" y="327.9" width="103.9" height="103.9" fill="#39685c"/><rect x="1423" y="431.8" width="103.9" height="103.9" fill="#39685c"/><rect x="1526.9" y="327.9" width="103.9" height="103.9" fill="#39685c"/><rect x="1630.9" y="431.8" width="103.9" height="103.9" fill="#39685c"/><rect x="1734.8" y="327.9" width="103.9" height="103.9" fill="#39685c"/><rect x="1838.7" y="431.8" width="103.9" height="103.9" fill="#39685c"/><rect x="1942.6" y="327.9" width="103.9" height="103.9" fill="#39685c"/><line x1="250" y1="603.6" x2="2150" y2="603.6" stroke="#39685c" stroke-width="6"/><rect x="250" y="603.6" width="1900" height="300.6" fill="#39685c"/><polyline points="280,829.7 433.3,678.2 586.7,829.7 740,678.2 893.3,829.7 1046.7,678.2 1200,829.7 1353.3,678.2 1506.7,829.7 1660,678.2 1813.3,829.7 1966.7,678.2 2120,829.7 " fill="none" stroke="#e7e1d3" stroke-width="27.3" stroke-linejoin="miter"/><line x1="250" y1="904.2" x2="2150" y2="904.2" stroke="#39685c" stroke-width="6"/><path d="M0 0 Q 22.8 -35.4 0 -93.1 Q -22.8 -35.4 0 0 Z" fill="#39685c" opacity="1" transform="translate(382.2 1079) rotate(-58)"/><path d="M0 0 Q 22.8 -41.7 0 -109.8 Q -22.8 -41.7 0 0 Z" fill="#39685c" opacity="1" transform="translate(382.2 1079) rotate(-29)"/><path d="M0 0 Q 22.8 -48.1 0 -126.5 Q -22.8 -48.1 0 0 Z" fill="#39685c" opacity="1" transform="translate(382.2 1079) rotate(0)"/><path d="M0 0 Q 22.8 -41.7 0 -109.8 Q -22.8 -41.7 0 0 Z" fill="#39685c" opacity="1" transform="translate(382.2 1079) rotate(29)"/><path d="M0 0 Q 22.8 -35.4 0 -93.1 Q -22.8 -35.4 0 0 Z" fill="#39685c" opacity="1" transform="translate(382.2 1079) rotate(58)"/><path d="M344.3,1079 Q382.2,1122 420.2,1079 Z" fill="#39685c"/><path d="M0 0 Q 22.8 -35.4 0 -93.1 Q -22.8 -35.4 0 0 Z" fill="#39685c" opacity="1" transform="translate(586.7 1079) rotate(-58)"/><path d="M0 0 Q 22.8 -39.6 0 -104.2 Q -22.8 -39.6 0 0 Z" fill="#39685c" opacity="1" transform="translate(586.7 1079) rotate(-38.7)"/><path d="M0 0 Q 22.8 -43.8 0 -115.3 Q -22.8 -43.8 0 0 Z" fill="#39685c" opacity="1" transform="translate(586.7 1079) rotate(-19.3)"/><path d="M0 0 Q 22.8 -48.1 0 -126.5 Q -22.8 -48.1 0 0 Z" fill="#39685c" opacity="1" transform="translate(586.7 1079) rotate(0)"/><path d="M0 0 Q 22.8 -43.8 0 -115.3 Q -22.8 -43.8 0 0 Z" fill="#39685c" opacity="1" transform="translate(586.7 1079) rotate(19.3)"/><path d="M0 0 Q 22.8 -39.6 0 -104.2 Q -22.8 -39.6 0 0 Z" fill="#39685c" opacity="1" transform="translate(586.7 1079) rotate(38.7)"/><path d="M0 0 Q 22.8 -35.4 0 -93.1 Q -22.8 -35.4 0 0 Z" fill="#39685c" opacity="1" transform="translate(586.7 1079) rotate(58)"/><path d="M548.7,1079 Q586.7,1122 624.6,1079 Z" fill="#39685c"/><path d="M0 0 Q 22.8 -35.4 0 -93.1 Q -22.8 -35.4 0 0 Z" fill="#39685c" opacity="1" transform="translate(791.1 1079) rotate(-58)"/><path d="M0 0 Q 22.8 -41.7 0 -109.8 Q -22.8 -41.7 0 0 Z" fill="#39685c" opacity="1" transform="translate(791.1 1079) rotate(-29)"/><path d="M0 0 Q 22.8 -48.1 0 -126.5 Q -22.8 -48.1 0 0 Z" fill="#39685c" opacity="1" transform="translate(791.1 1079) rotate(0)"/><path d="M0 0 Q 22.8 -41.7 0 -109.8 Q -22.8 -41.7 0 0 Z" fill="#39685c" opacity="1" transform="translate(791.1 1079) rotate(29)"/><path d="M0 0 Q 22.8 -35.4 0 -93.1 Q -22.8 -35.4 0 0 Z" fill="#39685c" opacity="1" transform="translate(791.1 1079) rotate(58)"/><path d="M753.2,1079 Q791.1,1122 829,1079 Z" fill="#39685c"/><path d="M0 0 Q 22.8 -35.4 0 -93.1 Q -22.8 -35.4 0 0 Z" fill="#39685c" opacity="1" transform="translate(995.6 1079) rotate(-58)"/><path d="M0 0 Q 22.8 -39.6 0 -104.2 Q -22.8 -39.6 0 0 Z" fill="#39685c" opacity="1" transform="translate(995.6 1079) rotate(-38.7)"/><path d="M0 0 Q 22.8 -43.8 0 -115.3 Q -22.8 -43.8 0 0 Z" fill="#39685c" opacity="1" transform="translate(995.6 1079) rotate(-19.3)"/><path d="M0 0 Q 22.8 -48.1 0 -126.5 Q -22.8 -48.1 0 0 Z" fill="#39685c" opacity="1" transform="translate(995.6 1079) rotate(0)"/><path d="M0 0 Q 22.8 -43.8 0 -115.3 Q -22.8 -43.8 0 0 Z" fill="#39685c" opacity="1" transform="translate(995.6 1079) rotate(19.3)"/><path d="M0 0 Q 22.8 -39.6 0 -104.2 Q -22.8 -39.6 0 0 Z" fill="#39685c" opacity="1" transform="translate(995.6 1079) rotate(38.7)"/><path d="M0 0 Q 22.8 -35.4 0 -93.1 Q -22.8 -35.4 0 0 Z" fill="#39685c" opacity="1" transform="translate(995.6 1079) rotate(58)"/><path d="M957.6,1079 Q995.6,1122 1033.5,1079 Z" fill="#39685c"/><path d="M0 0 Q 22.8 -35.4 0 -93.1 Q -22.8 -35.4 0 0 Z" fill="#39685c" opacity="1" transform="translate(1200 1079) rotate(-58)"/><path d="M0 0 Q 22.8 -40.5 0 -106.5 Q -22.8 -40.5 0 0 Z" fill="#39685c" opacity="1" transform="translate(1200 1079) rotate(-34.8)"/><path d="M0 0 Q 22.8 -45.5 0 -119.8 Q -22.8 -45.5 0 0 Z" fill="#39685c" opacity="1" transform="translate(1200 1079) rotate(-11.6)"/><path d="M0 0 Q 22.8 -45.5 0 -119.8 Q -22.8 -45.5 0 0 Z" fill="#39685c" opacity="1" transform="translate(1200 1079) rotate(11.6)"/><path d="M0 0 Q 22.8 -40.5 0 -106.5 Q -22.8 -40.5 0 0 Z" fill="#39685c" opacity="1" transform="translate(1200 1079) rotate(34.8)"/><path d="M0 0 Q 22.8 -35.4 0 -93.1 Q -22.8 -35.4 0 0 Z" fill="#39685c" opacity="1" transform="translate(1200 1079) rotate(58)"/><path d="M1162.1,1079 Q1200,1122 1237.9,1079 Z" fill="#39685c"/><path d="M0 0 Q 22.8 -35.4 0 -93.1 Q -22.8 -35.4 0 0 Z" fill="#39685c" opacity="1" transform="translate(1404.4 1079) rotate(-58)"/><path d="M0 0 Q 22.8 -40.5 0 -106.5 Q -22.8 -40.5 0 0 Z" fill="#39685c" opacity="1" transform="translate(1404.4 1079) rotate(-34.8)"/><path d="M0 0 Q 22.8 -45.5 0 -119.8 Q -22.8 -45.5 0 0 Z" fill="#39685c" opacity="1" transform="translate(1404.4 1079) rotate(-11.6)"/><path d="M0 0 Q 22.8 -45.5 0 -119.8 Q -22.8 -45.5 0 0 Z" fill="#39685c" opacity="1" transform="translate(1404.4 1079) rotate(11.6)"/><path d="M0 0 Q 22.8 -40.5 0 -106.5 Q -22.8 -40.5 0 0 Z" fill="#39685c" opacity="1" transform="translate(1404.4 1079) rotate(34.8)"/><path d="M0 0 Q 22.8 -35.4 0 -93.1 Q -22.8 -35.4 0 0 Z" fill="#39685c" opacity="1" transform="translate(1404.4 1079) rotate(58)"/><path d="M1366.5,1079 Q1404.4,1122 1442.4,1079 Z" fill="#39685c"/><path d="M0 0 Q 22.8 -35.4 0 -93.1 Q -22.8 -35.4 0 0 Z" fill="#39685c" opacity="1" transform="translate(1608.9 1079) rotate(-58)"/><path d="M0 0 Q 22.8 -40.5 0 -106.5 Q -22.8 -40.5 0 0 Z" fill="#39685c" opacity="1" transform="translate(1608.9 1079) rotate(-34.8)"/><path d="M0 0 Q 22.8 -45.5 0 -119.8 Q -22.8 -45.5 0 0 Z" fill="#39685c" opacity="1" transform="translate(1608.9 1079) rotate(-11.6)"/><path d="M0 0 Q 22.8 -45.5 0 -119.8 Q -22.8 -45.5 0 0 Z" fill="#39685c" opacity="1" transform="translate(1608.9 1079) rotate(11.6)"/><path d="M0 0 Q 22.8 -40.5 0 -106.5 Q -22.8 -40.5 0 0 Z" fill="#39685c" opacity="1" transform="translate(1608.9 1079) rotate(34.8)"/><path d="M0 0 Q 22.8 -35.4 0 -93.1 Q -22.8 -35.4 0 0 Z" fill="#39685c" opacity="1" transform="translate(1608.9 1079) rotate(58)"/><path d="M1571,1079 Q1608.9,1122 1646.8,1079 Z" fill="#39685c"/><path d="M0 0 Q 22.8 -35.4 0 -93.1 Q -22.8 -35.4 0 0 Z" fill="#39685c" opacity="1" transform="translate(1813.3 1079) rotate(-58)"/><path d="M0 0 Q 22.8 -39.6 0 -104.2 Q -22.8 -39.6 0 0 Z" fill="#39685c" opacity="1" transform="translate(1813.3 1079) rotate(-38.7)"/><path d="M0 0 Q 22.8 -43.8 0 -115.3 Q -22.8 -43.8 0 0 Z" fill="#39685c" opacity="1" transform="translate(1813.3 1079) rotate(-19.3)"/><path d="M0 0 Q 22.8 -48.1 0 -126.5 Q -22.8 -48.1 0 0 Z" fill="#39685c" opacity="1" transform="translate(1813.3 1079) rotate(0)"/><path d="M0 0 Q 22.8 -43.8 0 -115.3 Q -22.8 -43.8 0 0 Z" fill="#39685c" opacity="1" transform="translate(1813.3 1079) rotate(19.3)"/><path d="M0 0 Q 22.8 -39.6 0 -104.2 Q -22.8 -39.6 0 0 Z" fill="#39685c" opacity="1" transform="translate(1813.3 1079) rotate(38.7)"/><path d="M0 0 Q 22.8 -35.4 0 -93.1 Q -22.8 -35.4 0 0 Z" fill="#39685c" opacity="1" transform="translate(1813.3 1079) rotate(58)"/><path d="M1775.4,1079 Q1813.3,1122 1851.3,1079 Z" fill="#39685c"/><path d="M0 0 Q 22.8 -35.4 0 -93.1 Q -22.8 -35.4 0 0 Z" fill="#39685c" opacity="1" transform="translate(2017.8 1079) rotate(-58)"/><path d="M0 0 Q 22.8 -40.5 0 -106.5 Q -22.8 -40.5 0 0 Z" fill="#39685c" opacity="1" transform="translate(2017.8 1079) rotate(-34.8)"/><path d="M0 0 Q 22.8 -45.5 0 -119.8 Q -22.8 -45.5 0 0 Z" fill="#39685c" opacity="1" transform="translate(2017.8 1079) rotate(-11.6)"/><path d="M0 0 Q 22.8 -45.5 0 -119.8 Q -22.8 -45.5 0 0 Z" fill="#39685c" opacity="1" transform="translate(2017.8 1079) rotate(11.6)"/><path d="M0 0 Q 22.8 -40.5 0 -106.5 Q -22.8 -40.5 0 0 Z" fill="#39685c" opacity="1" transform="translate(2017.8 1079) rotate(34.8)"/><path d="M0 0 Q 22.8 -35.4 0 -93.1 Q -22.8 -35.4 0 0 Z" fill="#39685c" opacity="1" transform="translate(2017.8 1079) rotate(58)"/><path d="M1979.8,1079 Q2017.8,1122 2055.7,1079 Z" fill="#39685c"/><line x1="250" y1="1113.3" x2="2150" y2="1113.3" stroke="#39685c" stroke-width="6"/><line x1="280" y1="1316.4" x2="2120" y2="1316.4" stroke="#96a396" stroke-width="12.7"/><polyline points="408.6,1240.4 407.7,1241.5 407.2,1243 407.1,1244.7 407.7,1246.6 409,1248.4 410.8,1249.9 413.3,1251 416.1,1251.3 419.2,1250.9 422.3,1249.5 425.1,1247.3 427.3,1244.2 428.8,1240.4 429.3,1236.1 428.7,1231.6 426.9,1227.2 423.9,1223.2 419.8,1219.9 414.8,1217.6 409.1,1216.6 403.1,1217 397.2,1219 391.7,1222.4 387.1,1227.3 383.7,1233.4 381.8,1240.4 381.7,1247.9 383.4,1255.4 387.1,1262.5 392.5,1268.7 399.5,1273.5 407.6,1276.5 416.5,1277.5 425.6,1276.3 434.4,1272.9 442.3,1267.3 448.8,1259.7 453.3,1250.6 455.6,1240.4 455.3,1229.7 452.4,1219.2 446.9,1209.5 439.1,1201.2 429.3,1194.9 418,1191 405.9,1190 393.6,1192 382,1196.9 371.7,1204.7 363.4,1214.9 357.7,1227 355,1240.4" fill="none" stroke="#96a396" stroke-width="14.2" stroke-linecap="round" stroke-linejoin="round"/><polyline points="566.8,1240.4 565.9,1241.5 565.4,1243 565.4,1244.7 566,1246.6 567.2,1248.4 569.1,1249.9 571.5,1251 574.4,1251.3 577.4,1250.9 580.5,1249.5 583.3,1247.3 585.6,1244.2 587,1240.4 587.5,1236.1 586.9,1231.6 585.1,1227.2 582.1,1223.2 578,1219.9 573,1217.6 567.3,1216.6 561.4,1217 555.4,1219 549.9,1222.4 545.3,1227.3 541.9,1233.4 540,1240.4 539.9,1247.9 541.7,1255.4 545.3,1262.5 550.7,1268.7 557.7,1273.5 565.9,1276.5 574.7,1277.5 583.9,1276.3 592.6,1272.9 600.5,1267.3 607,1259.7 611.5,1250.6 613.8,1240.4 613.5,1229.7 610.6,1219.2 605.2,1209.5 597.3,1201.2 587.5,1194.9 576.2,1191 564.1,1190 551.9,1192 540.2,1196.9 529.9,1204.7 521.6,1214.9 515.9,1227 513.3,1240.4" fill="none" stroke="#96a396" stroke-width="14.2" stroke-linecap="round" stroke-linejoin="round"/><polyline points="725,1240.4 724.1,1241.5 723.6,1243 723.6,1244.7 724.2,1246.6 725.4,1248.4 727.3,1249.9 729.7,1251 732.6,1251.3 735.7,1250.9 738.7,1249.5 741.5,1247.3 743.8,1244.2 745.3,1240.4 745.8,1236.1 745.2,1231.6 743.4,1227.2 740.4,1223.2 736.3,1219.9 731.2,1217.6 725.6,1216.6 719.6,1217 713.7,1219 708.2,1222.4 703.6,1227.3 700.2,1233.4 698.3,1240.4 698.2,1247.9 699.9,1255.4 703.6,1262.5 709,1268.7 715.9,1273.5 724.1,1276.5 733,1277.5 742.1,1276.3 750.9,1272.9 758.8,1267.3 765.2,1259.7 769.8,1250.6 772,1240.4 771.8,1229.7 768.9,1219.2 763.4,1209.5 755.6,1201.2 745.7,1194.9 734.5,1191 722.3,1190 710.1,1192 698.4,1196.9 688.1,1204.7 679.9,1214.9 674.2,1227 671.5,1240.4" fill="none" stroke="#96a396" stroke-width="14.2" stroke-linecap="round" stroke-linejoin="round"/><polyline points="883.3,1240.4 882.4,1241.5 881.8,1243 881.8,1244.7 882.4,1246.6 883.7,1248.4 885.5,1249.9 888,1251 890.8,1251.3 893.9,1250.9 897,1249.5 899.8,1247.3 902,1244.2 903.5,1240.4 904,1236.1 903.4,1231.6 901.6,1227.2 898.6,1223.2 894.5,1219.9 889.5,1217.6 883.8,1216.6 877.8,1217 871.9,1219 866.4,1222.4 861.8,1227.3 858.4,1233.4 856.5,1240.4 856.4,1247.9 858.1,1255.4 861.8,1262.5 867.2,1268.7 874.2,1273.5 882.3,1276.5 891.2,1277.5 900.3,1276.3 909.1,1272.9 917,1267.3 923.5,1259.7 928,1250.6 930.3,1240.4 930,1229.7 927.1,1219.2 921.6,1209.5 913.8,1201.2 904,1194.9 892.7,1191 880.6,1190 868.3,1192 856.7,1196.9 846.4,1204.7 838.1,1214.9 832.4,1227 829.7,1240.4" fill="none" stroke="#96a396" stroke-width="14.2" stroke-linecap="round" stroke-linejoin="round"/><polyline points="1041.5,1240.4 1040.6,1241.5 1040.1,1243 1040.1,1244.7 1040.7,1246.6 1041.9,1248.4 1043.8,1249.9 1046.2,1251 1049.1,1251.3 1052.1,1250.9 1055.2,1249.5 1058,1247.3 1060.2,1244.2 1061.7,1240.4 1062.2,1236.1 1061.6,1231.6 1059.8,1227.2 1056.8,1223.2 1052.7,1219.9 1047.7,1217.6 1042,1216.6 1036.1,1217 1030.1,1219 1024.6,1222.4 1020,1227.3 1016.6,1233.4 1014.7,1240.4 1014.6,1247.9 1016.4,1255.4 1020,1262.5 1025.4,1268.7 1032.4,1273.5 1040.5,1276.5 1049.4,1277.5 1058.6,1276.3 1067.3,1272.9 1075.2,1267.3 1081.7,1259.7 1086.2,1250.6 1088.5,1240.4 1088.2,1229.7 1085.3,1219.2 1079.9,1209.5 1072,1201.2 1062.2,1194.9 1050.9,1191 1038.8,1190 1026.6,1192 1014.9,1196.9 1004.6,1204.7 996.3,1214.9 990.6,1227 988,1240.4" fill="none" stroke="#96a396" stroke-width="14.2" stroke-linecap="round" stroke-linejoin="round"/><polyline points="1199.7,1240.4 1198.8,1241.5 1198.3,1243 1198.3,1244.7 1198.9,1246.6 1200.1,1248.4 1202,1249.9 1204.4,1251 1207.3,1251.3 1210.4,1250.9 1213.4,1249.5 1216.2,1247.3 1218.5,1244.2 1220,1240.4 1220.5,1236.1 1219.9,1231.6 1218.1,1227.2 1215.1,1223.2 1210.9,1219.9 1205.9,1217.6 1200.3,1216.6 1194.3,1217 1188.4,1219 1182.9,1222.4 1178.3,1227.3 1174.9,1233.4 1173,1240.4 1172.9,1247.9 1174.6,1255.4 1178.3,1262.5 1183.7,1268.7 1190.6,1273.5 1198.8,1276.5 1207.7,1277.5 1216.8,1276.3 1225.6,1272.9 1233.5,1267.3 1239.9,1259.7 1244.5,1250.6 1246.7,1240.4 1246.5,1229.7 1243.6,1219.2 1238.1,1209.5 1230.3,1201.2 1220.4,1194.9 1209.2,1191 1197,1190 1184.8,1192 1173.1,1196.9 1162.8,1204.7 1154.5,1214.9 1148.9,1227 1146.2,1240.4" fill="none" stroke="#96a396" stroke-width="14.2" stroke-linecap="round" stroke-linejoin="round"/><polyline points="1358,1240.4 1357.1,1241.5 1356.5,1243 1356.5,1244.7 1357.1,1246.6 1358.4,1248.4 1360.2,1249.9 1362.7,1251 1365.5,1251.3 1368.6,1250.9 1371.7,1249.5 1374.5,1247.3 1376.7,1244.2 1378.2,1240.4 1378.7,1236.1 1378.1,1231.6 1376.3,1227.2 1373.3,1223.2 1369.2,1219.9 1364.2,1217.6 1358.5,1216.6 1352.5,1217 1346.6,1219 1341.1,1222.4 1336.5,1227.3 1333.1,1233.4 1331.2,1240.4 1331.1,1247.9 1332.8,1255.4 1336.5,1262.5 1341.9,1268.7 1348.9,1273.5 1357,1276.5 1365.9,1277.5 1375,1276.3 1383.8,1272.9 1391.7,1267.3 1398.2,1259.7 1402.7,1250.6 1405,1240.4 1404.7,1229.7 1401.8,1219.2 1396.3,1209.5 1388.5,1201.2 1378.7,1194.9 1367.4,1191 1355.3,1190 1343,1192 1331.4,1196.9 1321.1,1204.7 1312.8,1214.9 1307.1,1227 1304.4,1240.4" fill="none" stroke="#96a396" stroke-width="14.2" stroke-linecap="round" stroke-linejoin="round"/><polyline points="1516.2,1240.4 1515.3,1241.5 1514.8,1243 1514.8,1244.7 1515.3,1246.6 1516.6,1248.4 1518.5,1249.9 1520.9,1251 1523.8,1251.3 1526.8,1250.9 1529.9,1249.5 1532.7,1247.3 1534.9,1244.2 1536.4,1240.4 1536.9,1236.1 1536.3,1231.6 1534.5,1227.2 1531.5,1223.2 1527.4,1219.9 1522.4,1217.6 1516.7,1216.6 1510.7,1217 1504.8,1219 1499.3,1222.4 1494.7,1227.3 1491.3,1233.4 1489.4,1240.4 1489.3,1247.9 1491.1,1255.4 1494.7,1262.5 1500.1,1268.7 1507.1,1273.5 1515.2,1276.5 1524.1,1277.5 1533.3,1276.3 1542,1272.9 1549.9,1267.3 1556.4,1259.7 1560.9,1250.6 1563.2,1240.4 1562.9,1229.7 1560,1219.2 1554.6,1209.5 1546.7,1201.2 1536.9,1194.9 1525.6,1191 1513.5,1190 1501.3,1192 1489.6,1196.9 1479.3,1204.7 1471,1214.9 1465.3,1227 1462.7,1240.4" fill="none" stroke="#96a396" stroke-width="14.2" stroke-linecap="round" stroke-linejoin="round"/><polyline points="1674.4,1240.4 1673.5,1241.5 1673,1243 1673,1244.7 1673.6,1246.6 1674.8,1248.4 1676.7,1249.9 1679.1,1251 1682,1251.3 1685.1,1250.9 1688.1,1249.5 1690.9,1247.3 1693.2,1244.2 1694.7,1240.4 1695.2,1236.1 1694.6,1231.6 1692.8,1227.2 1689.7,1223.2 1685.6,1219.9 1680.6,1217.6 1675,1216.6 1669,1217 1663.1,1219 1657.6,1222.4 1653,1227.3 1649.5,1233.4 1647.7,1240.4 1647.5,1247.9 1649.3,1255.4 1653,1262.5 1658.4,1268.7 1665.3,1273.5 1673.5,1276.5 1682.4,1277.5 1691.5,1276.3 1700.3,1272.9 1708.2,1267.3 1714.6,1259.7 1719.2,1250.6 1721.4,1240.4 1721.2,1229.7 1718.3,1219.2 1712.8,1209.5 1705,1201.2 1695.1,1194.9 1683.9,1191 1671.7,1190 1659.5,1192 1647.8,1196.9 1637.5,1204.7 1629.2,1214.9 1623.6,1227 1620.9,1240.4" fill="none" stroke="#96a396" stroke-width="14.2" stroke-linecap="round" stroke-linejoin="round"/><polyline points="1832.7,1240.4 1831.8,1241.5 1831.2,1243 1831.2,1244.7 1831.8,1246.6 1833.1,1248.4 1834.9,1249.9 1837.4,1251 1840.2,1251.3 1843.3,1250.9 1846.4,1249.5 1849.2,1247.3 1851.4,1244.2 1852.9,1240.4 1853.4,1236.1 1852.8,1231.6 1851,1227.2 1848,1223.2 1843.9,1219.9 1838.9,1217.6 1833.2,1216.6 1827.2,1217 1821.3,1219 1815.8,1222.4 1811.2,1227.3 1807.8,1233.4 1805.9,1240.4 1805.8,1247.9 1807.5,1255.4 1811.2,1262.5 1816.6,1268.7 1823.6,1273.5 1831.7,1276.5 1840.6,1277.5 1849.7,1276.3 1858.5,1272.9 1866.4,1267.3 1872.9,1259.7 1877.4,1250.6 1879.7,1240.4 1879.4,1229.7 1876.5,1219.2 1871,1209.5 1863.2,1201.2 1853.4,1194.9 1842.1,1191 1830,1190 1817.7,1192 1806.1,1196.9 1795.8,1204.7 1787.5,1214.9 1781.8,1227 1779.1,1240.4" fill="none" stroke="#96a396" stroke-width="14.2" stroke-linecap="round" stroke-linejoin="round"/><polyline points="1990.9,1240.4 1990,1241.5 1989.5,1243 1989.5,1244.7 1990,1246.6 1991.3,1248.4 1993.2,1249.9 1995.6,1251 1998.5,1251.3 2001.5,1250.9 2004.6,1249.5 2007.4,1247.3 2009.6,1244.2 2011.1,1240.4 2011.6,1236.1 2011,1231.6 2009.2,1227.2 2006.2,1223.2 2002.1,1219.9 1997.1,1217.6 1991.4,1216.6 1985.4,1217 1979.5,1219 1974,1222.4 1969.4,1227.3 1966,1233.4 1964.1,1240.4 1964,1247.9 1965.8,1255.4 1969.4,1262.5 1974.8,1268.7 1981.8,1273.5 1989.9,1276.5 1998.8,1277.5 2008,1276.3 2016.7,1272.9 2024.6,1267.3 2031.1,1259.7 2035.6,1250.6 2037.9,1240.4 2037.6,1229.7 2034.7,1219.2 2029.3,1209.5 2021.4,1201.2 2011.6,1194.9 2000.3,1191 1988.2,1190 1976,1192 1964.3,1196.9 1954,1204.7 1945.7,1214.9 1940,1227 1937.4,1240.4" fill="none" stroke="#96a396" stroke-width="14.2" stroke-linecap="round" stroke-linejoin="round"/><line x1="250" y1="1361.2" x2="2150" y2="1361.2" stroke="#39685c" stroke-width="6"/><rect x="250" y="1361.2" width="1900" height="276.3" fill="#39685c"/><circle cx="387.6" cy="1499.3" r="42.2" fill="#e7e1d3"/><circle cx="550.1" cy="1499.3" r="42.2" fill="#e7e1d3"/><circle cx="712.6" cy="1499.3" r="42.2" fill="#e7e1d3"/><circle cx="875" cy="1499.3" r="42.2" fill="#e7e1d3"/><circle cx="1037.5" cy="1499.3" r="42.2" fill="#e7e1d3"/><circle cx="1200" cy="1499.3" r="42.2" fill="#e7e1d3"/><circle cx="1362.5" cy="1499.3" r="42.2" fill="#e7e1d3"/><circle cx="1525" cy="1499.3" r="42.2" fill="#e7e1d3"/><circle cx="1687.4" cy="1499.3" r="42.2" fill="#e7e1d3"/><circle cx="1849.9" cy="1499.3" r="42.2" fill="#e7e1d3"/><circle cx="2012.4" cy="1499.3" r="42.2" fill="#e7e1d3"/><line x1="250" y1="1637.5" x2="2150" y2="1637.5" stroke="#39685c" stroke-width="6"/><line x1="280" y1="1823" x2="2120" y2="1823" stroke="#96a396" stroke-width="8.4"/><line x1="440" y1="1816" x2="378.6" y2="1776.1" stroke="#96a396" stroke-width="14.1" stroke-linecap="round"/><line x1="440" y1="1816" x2="385.4" y2="1746.1" stroke="#96a396" stroke-width="14.1" stroke-linecap="round"/><line x1="440" y1="1816" x2="406.1" y2="1717.5" stroke="#96a396" stroke-width="14.1" stroke-linecap="round"/><line x1="440" y1="1816" x2="440" y2="1696.3" stroke="#96a396" stroke-width="14.1" stroke-linecap="round"/><line x1="440" y1="1816" x2="473.9" y2="1717.5" stroke="#96a396" stroke-width="14.1" stroke-linecap="round"/><line x1="440" y1="1816" x2="494.6" y2="1746.1" stroke="#96a396" stroke-width="14.1" stroke-linecap="round"/><line x1="440" y1="1816" x2="501.3" y2="1776.1" stroke="#96a396" stroke-width="14.1" stroke-linecap="round"/><line x1="630" y1="1816" x2="568.6" y2="1776.1" stroke="#96a396" stroke-width="14.1" stroke-linecap="round"/><line x1="630" y1="1816" x2="575.4" y2="1746.1" stroke="#96a396" stroke-width="14.1" stroke-linecap="round"/><line x1="630" y1="1816" x2="596.1" y2="1717.5" stroke="#96a396" stroke-width="14.1" stroke-linecap="round"/><line x1="630" y1="1816" x2="630" y2="1696.3" stroke="#96a396" stroke-width="14.1" stroke-linecap="round"/><line x1="630" y1="1816" x2="663.9" y2="1717.5" stroke="#96a396" stroke-width="14.1" stroke-linecap="round"/><line x1="630" y1="1816" x2="684.6" y2="1746.1" stroke="#96a396" stroke-width="14.1" stroke-linecap="round"/><line x1="630" y1="1816" x2="691.4" y2="1776.1" stroke="#96a396" stroke-width="14.1" stroke-linecap="round"/><line x1="820" y1="1816" x2="758.6" y2="1776.1" stroke="#96a396" stroke-width="14.1" stroke-linecap="round"/><line x1="820" y1="1816" x2="765.4" y2="1746.1" stroke="#96a396" stroke-width="14.1" stroke-linecap="round"/><line x1="820" y1="1816" x2="786.1" y2="1717.5" stroke="#96a396" stroke-width="14.1" stroke-linecap="round"/><line x1="820" y1="1816" x2="820" y2="1696.3" stroke="#96a396" stroke-width="14.1" stroke-linecap="round"/><line x1="820" y1="1816" x2="853.9" y2="1717.5" stroke="#96a396" stroke-width="14.1" stroke-linecap="round"/><line x1="820" y1="1816" x2="874.6" y2="1746.1" stroke="#96a396" stroke-width="14.1" stroke-linecap="round"/><line x1="820" y1="1816" x2="881.4" y2="1776.1" stroke="#96a396" stroke-width="14.1" stroke-linecap="round"/><line x1="1010" y1="1816" x2="948.6" y2="1776.1" stroke="#96a396" stroke-width="14.1" stroke-linecap="round"/><line x1="1010" y1="1816" x2="955.4" y2="1746.1" stroke="#96a396" stroke-width="14.1" stroke-linecap="round"/><line x1="1010" y1="1816" x2="976.1" y2="1717.5" stroke="#96a396" stroke-width="14.1" stroke-linecap="round"/><line x1="1010" y1="1816" x2="1010" y2="1696.3" stroke="#96a396" stroke-width="14.1" stroke-linecap="round"/><line x1="1010" y1="1816" x2="1043.9" y2="1717.5" stroke="#96a396" stroke-width="14.1" stroke-linecap="round"/><line x1="1010" y1="1816" x2="1064.6" y2="1746.1" stroke="#96a396" stroke-width="14.1" stroke-linecap="round"/><line x1="1010" y1="1816" x2="1071.4" y2="1776.1" stroke="#96a396" stroke-width="14.1" stroke-linecap="round"/><line x1="1200" y1="1816" x2="1138.6" y2="1776.1" stroke="#96a396" stroke-width="14.1" stroke-linecap="round"/><line x1="1200" y1="1816" x2="1145.4" y2="1746.1" stroke="#96a396" stroke-width="14.1" stroke-linecap="round"/><line x1="1200" y1="1816" x2="1166.1" y2="1717.5" stroke="#96a396" stroke-width="14.1" stroke-linecap="round"/><line x1="1200" y1="1816" x2="1200" y2="1696.3" stroke="#96a396" stroke-width="14.1" stroke-linecap="round"/><line x1="1200" y1="1816" x2="1233.9" y2="1717.5" stroke="#96a396" stroke-width="14.1" stroke-linecap="round"/><line x1="1200" y1="1816" x2="1254.6" y2="1746.1" stroke="#96a396" stroke-width="14.1" stroke-linecap="round"/><line x1="1200" y1="1816" x2="1261.4" y2="1776.1" stroke="#96a396" stroke-width="14.1" stroke-linecap="round"/><line x1="1390" y1="1816" x2="1328.6" y2="1776.1" stroke="#96a396" stroke-width="14.1" stroke-linecap="round"/><line x1="1390" y1="1816" x2="1335.4" y2="1746.1" stroke="#96a396" stroke-width="14.1" stroke-linecap="round"/><line x1="1390" y1="1816" x2="1356.1" y2="1717.5" stroke="#96a396" stroke-width="14.1" stroke-linecap="round"/><line x1="1390" y1="1816" x2="1390" y2="1696.3" stroke="#96a396" stroke-width="14.1" stroke-linecap="round"/><line x1="1390" y1="1816" x2="1423.9" y2="1717.5" stroke="#96a396" stroke-width="14.1" stroke-linecap="round"/><line x1="1390" y1="1816" x2="1444.6" y2="1746.1" stroke="#96a396" stroke-width="14.1" stroke-linecap="round"/><line x1="1390" y1="1816" x2="1451.4" y2="1776.1" stroke="#96a396" stroke-width="14.1" stroke-linecap="round"/><line x1="1580" y1="1816" x2="1518.6" y2="1776.1" stroke="#96a396" stroke-width="14.1" stroke-linecap="round"/><line x1="1580" y1="1816" x2="1525.4" y2="1746.1" stroke="#96a396" stroke-width="14.1" stroke-linecap="round"/><line x1="1580" y1="1816" x2="1546.1" y2="1717.5" stroke="#96a396" stroke-width="14.1" stroke-linecap="round"/><line x1="1580" y1="1816" x2="1580" y2="1696.3" stroke="#96a396" stroke-width="14.1" stroke-linecap="round"/><line x1="1580" y1="1816" x2="1613.9" y2="1717.5" stroke="#96a396" stroke-width="14.1" stroke-linecap="round"/><line x1="1580" y1="1816" x2="1634.6" y2="1746.1" stroke="#96a396" stroke-width="14.1" stroke-linecap="round"/><line x1="1580" y1="1816" x2="1641.4" y2="1776.1" stroke="#96a396" stroke-width="14.1" stroke-linecap="round"/><line x1="1770" y1="1816" x2="1708.6" y2="1776.1" stroke="#96a396" stroke-width="14.1" stroke-linecap="round"/><line x1="1770" y1="1816" x2="1715.4" y2="1746.1" stroke="#96a396" stroke-width="14.1" stroke-linecap="round"/><line x1="1770" y1="1816" x2="1736.1" y2="1717.5" stroke="#96a396" stroke-width="14.1" stroke-linecap="round"/><line x1="1770" y1="1816" x2="1770" y2="1696.3" stroke="#96a396" stroke-width="14.1" stroke-linecap="round"/><line x1="1770" y1="1816" x2="1803.9" y2="1717.5" stroke="#96a396" stroke-width="14.1" stroke-linecap="round"/><line x1="1770" y1="1816" x2="1824.6" y2="1746.1" stroke="#96a396" stroke-width="14.1" stroke-linecap="round"/><line x1="1770" y1="1816" x2="1831.4" y2="1776.1" stroke="#96a396" stroke-width="14.1" stroke-linecap="round"/><line x1="1960" y1="1816" x2="1898.7" y2="1776.1" stroke="#96a396" stroke-width="14.1" stroke-linecap="round"/><line x1="1960" y1="1816" x2="1905.4" y2="1746.1" stroke="#96a396" stroke-width="14.1" stroke-linecap="round"/><line x1="1960" y1="1816" x2="1926.1" y2="1717.5" stroke="#96a396" stroke-width="14.1" stroke-linecap="round"/><line x1="1960" y1="1816" x2="1960" y2="1696.3" stroke="#96a396" stroke-width="14.1" stroke-linecap="round"/><line x1="1960" y1="1816" x2="1993.9" y2="1717.5" stroke="#96a396" stroke-width="14.1" stroke-linecap="round"/><line x1="1960" y1="1816" x2="2014.6" y2="1746.1" stroke="#96a396" stroke-width="14.1" stroke-linecap="round"/><line x1="1960" y1="1816" x2="2021.4" y2="1776.1" stroke="#96a396" stroke-width="14.1" stroke-linecap="round"/><line x1="250" y1="1863.9" x2="2150" y2="1863.9" stroke="#39685c" stroke-width="6"/><path d="M299.4,2077 L 453.1,2077 L 453.1,1923.3 L 332.3,1923.3 L 332.3,2018.4 L 394.6,2018.4 L 394.6,1970.9 M482.4,2077 L 636.2,2077 L 636.2,1923.3 L 515.4,1923.3 L 515.4,2018.4 L 577.6,2018.4 L 577.6,1970.9 M665.5,2077 L 819.2,2077 L 819.2,1923.3 L 698.4,1923.3 L 698.4,2018.4 L 760.7,2018.4 L 760.7,1970.9 M848.5,2077 L 1002.3,2077 L 1002.3,1923.3 L 881.5,1923.3 L 881.5,2018.4 L 943.7,2018.4 L 943.7,1970.9 M1031.6,2077 L 1185.4,2077 L 1185.4,1923.3 L 1064.5,1923.3 L 1064.5,2018.4 L 1126.8,2018.4 L 1126.8,1970.9 M1214.6,2077 L 1368.4,2077 L 1368.4,1923.3 L 1247.6,1923.3 L 1247.6,2018.4 L 1309.8,2018.4 L 1309.8,1970.9 M1397.7,2077 L 1551.5,2077 L 1551.5,1923.3 L 1430.7,1923.3 L 1430.7,2018.4 L 1492.9,2018.4 L 1492.9,1970.9 M1580.8,2077 L 1734.5,2077 L 1734.5,1923.3 L 1613.7,1923.3 L 1613.7,2018.4 L 1675.9,2018.4 L 1675.9,1970.9 M1763.8,2077 L 1917.6,2077 L 1917.6,1923.3 L 1796.8,1923.3 L 1796.8,2018.4 L 1859,2018.4 L 1859,1970.9 M1946.9,2077 L 2100.6,2077 L 2100.6,1923.3 L 1979.8,1923.3 L 1979.8,2018.4 L 2042.1,2018.4 L 2042.1,1970.9 " fill="none" stroke="#39685c" stroke-width="23.8"/><line x1="250" y1="2136.3" x2="2150" y2="2136.3" stroke="#39685c" stroke-width="6"/><rect x="250" y="2136.3" width="1900" height="372.6" fill="#39685c"/><polyline points="280,2416.5 464,2228.7 648,2416.5 832,2228.7 1016,2416.5 1200,2228.7 1384,2416.5 1568,2228.7 1752,2416.5 1936,2228.7 2120,2416.5 " fill="none" stroke="#e7e1d3" stroke-width="33.8" stroke-linejoin="miter"/><line x1="250" y1="2509" x2="2150" y2="2509" stroke="#39685c" stroke-width="6"/><path d="M0 0 Q 25.2 -39.1 0 -102.9 Q -25.2 -39.1 0 0 Z" fill="#39685c" opacity="1" transform="translate(395 2702.1) rotate(-58)"/><path d="M0 0 Q 25.2 -44.7 0 -117.6 Q -25.2 -44.7 0 0 Z" fill="#39685c" opacity="1" transform="translate(395 2702.1) rotate(-34.8)"/><path d="M0 0 Q 25.2 -50.3 0 -132.4 Q -25.2 -50.3 0 0 Z" fill="#39685c" opacity="1" transform="translate(395 2702.1) rotate(-11.6)"/><path d="M0 0 Q 25.2 -50.3 0 -132.4 Q -25.2 -50.3 0 0 Z" fill="#39685c" opacity="1" transform="translate(395 2702.1) rotate(11.6)"/><path d="M0 0 Q 25.2 -44.7 0 -117.6 Q -25.2 -44.7 0 0 Z" fill="#39685c" opacity="1" transform="translate(395 2702.1) rotate(34.8)"/><path d="M0 0 Q 25.2 -39.1 0 -102.9 Q -25.2 -39.1 0 0 Z" fill="#39685c" opacity="1" transform="translate(395 2702.1) rotate(58)"/><path d="M353.1,2702.1 Q395,2749.6 436.9,2702.1 Z" fill="#39685c"/><path d="M0 0 Q 25.2 -39.1 0 -102.9 Q -25.2 -39.1 0 0 Z" fill="#39685c" opacity="1" transform="translate(625 2702.1) rotate(-58)"/><path d="M0 0 Q 25.2 -43.8 0 -115.2 Q -25.2 -43.8 0 0 Z" fill="#39685c" opacity="1" transform="translate(625 2702.1) rotate(-38.7)"/><path d="M0 0 Q 25.2 -48.4 0 -127.5 Q -25.2 -48.4 0 0 Z" fill="#39685c" opacity="1" transform="translate(625 2702.1) rotate(-19.3)"/><path d="M0 0 Q 25.2 -53.1 0 -139.7 Q -25.2 -53.1 0 0 Z" fill="#39685c" opacity="1" transform="translate(625 2702.1) rotate(0)"/><path d="M0 0 Q 25.2 -48.4 0 -127.5 Q -25.2 -48.4 0 0 Z" fill="#39685c" opacity="1" transform="translate(625 2702.1) rotate(19.3)"/><path d="M0 0 Q 25.2 -43.8 0 -115.2 Q -25.2 -43.8 0 0 Z" fill="#39685c" opacity="1" transform="translate(625 2702.1) rotate(38.7)"/><path d="M0 0 Q 25.2 -39.1 0 -102.9 Q -25.2 -39.1 0 0 Z" fill="#39685c" opacity="1" transform="translate(625 2702.1) rotate(58)"/><path d="M583.1,2702.1 Q625,2749.6 666.9,2702.1 Z" fill="#39685c"/><path d="M0 0 Q 25.2 -39.1 0 -102.9 Q -25.2 -39.1 0 0 Z" fill="#39685c" opacity="1" transform="translate(855 2702.1) rotate(-58)"/><path d="M0 0 Q 25.2 -46.1 0 -121.3 Q -25.2 -46.1 0 0 Z" fill="#39685c" opacity="1" transform="translate(855 2702.1) rotate(-29)"/><path d="M0 0 Q 25.2 -53.1 0 -139.7 Q -25.2 -53.1 0 0 Z" fill="#39685c" opacity="1" transform="translate(855 2702.1) rotate(0)"/><path d="M0 0 Q 25.2 -46.1 0 -121.3 Q -25.2 -46.1 0 0 Z" fill="#39685c" opacity="1" transform="translate(855 2702.1) rotate(29)"/><path d="M0 0 Q 25.2 -39.1 0 -102.9 Q -25.2 -39.1 0 0 Z" fill="#39685c" opacity="1" transform="translate(855 2702.1) rotate(58)"/><path d="M813.1,2702.1 Q855,2749.6 896.9,2702.1 Z" fill="#39685c"/><path d="M0 0 Q 25.2 -39.1 0 -102.9 Q -25.2 -39.1 0 0 Z" fill="#39685c" opacity="1" transform="translate(1085 2702.1) rotate(-58)"/><path d="M0 0 Q 25.2 -44.7 0 -117.6 Q -25.2 -44.7 0 0 Z" fill="#39685c" opacity="1" transform="translate(1085 2702.1) rotate(-34.8)"/><path d="M0 0 Q 25.2 -50.3 0 -132.4 Q -25.2 -50.3 0 0 Z" fill="#39685c" opacity="1" transform="translate(1085 2702.1) rotate(-11.6)"/><path d="M0 0 Q 25.2 -50.3 0 -132.4 Q -25.2 -50.3 0 0 Z" fill="#39685c" opacity="1" transform="translate(1085 2702.1) rotate(11.6)"/><path d="M0 0 Q 25.2 -44.7 0 -117.6 Q -25.2 -44.7 0 0 Z" fill="#39685c" opacity="1" transform="translate(1085 2702.1) rotate(34.8)"/><path d="M0 0 Q 25.2 -39.1 0 -102.9 Q -25.2 -39.1 0 0 Z" fill="#39685c" opacity="1" transform="translate(1085 2702.1) rotate(58)"/><path d="M1043.1,2702.1 Q1085,2749.6 1126.9,2702.1 Z" fill="#39685c"/><path d="M0 0 Q 25.2 -39.1 0 -102.9 Q -25.2 -39.1 0 0 Z" fill="#39685c" opacity="1" transform="translate(1315 2702.1) rotate(-58)"/><path d="M0 0 Q 25.2 -46.1 0 -121.3 Q -25.2 -46.1 0 0 Z" fill="#39685c" opacity="1" transform="translate(1315 2702.1) rotate(-29)"/><path d="M0 0 Q 25.2 -53.1 0 -139.7 Q -25.2 -53.1 0 0 Z" fill="#39685c" opacity="1" transform="translate(1315 2702.1) rotate(0)"/><path d="M0 0 Q 25.2 -46.1 0 -121.3 Q -25.2 -46.1 0 0 Z" fill="#39685c" opacity="1" transform="translate(1315 2702.1) rotate(29)"/><path d="M0 0 Q 25.2 -39.1 0 -102.9 Q -25.2 -39.1 0 0 Z" fill="#39685c" opacity="1" transform="translate(1315 2702.1) rotate(58)"/><path d="M1273.1,2702.1 Q1315,2749.6 1356.9,2702.1 Z" fill="#39685c"/><path d="M0 0 Q 25.2 -39.1 0 -102.9 Q -25.2 -39.1 0 0 Z" fill="#39685c" opacity="1" transform="translate(1545 2702.1) rotate(-58)"/><path d="M0 0 Q 25.2 -43.8 0 -115.2 Q -25.2 -43.8 0 0 Z" fill="#39685c" opacity="1" transform="translate(1545 2702.1) rotate(-38.7)"/><path d="M0 0 Q 25.2 -48.4 0 -127.5 Q -25.2 -48.4 0 0 Z" fill="#39685c" opacity="1" transform="translate(1545 2702.1) rotate(-19.3)"/><path d="M0 0 Q 25.2 -53.1 0 -139.7 Q -25.2 -53.1 0 0 Z" fill="#39685c" opacity="1" transform="translate(1545 2702.1) rotate(0)"/><path d="M0 0 Q 25.2 -48.4 0 -127.5 Q -25.2 -48.4 0 0 Z" fill="#39685c" opacity="1" transform="translate(1545 2702.1) rotate(19.3)"/><path d="M0 0 Q 25.2 -43.8 0 -115.2 Q -25.2 -43.8 0 0 Z" fill="#39685c" opacity="1" transform="translate(1545 2702.1) rotate(38.7)"/><path d="M0 0 Q 25.2 -39.1 0 -102.9 Q -25.2 -39.1 0 0 Z" fill="#39685c" opacity="1" transform="translate(1545 2702.1) rotate(58)"/><path d="M1503.1,2702.1 Q1545,2749.6 1586.9,2702.1 Z" fill="#39685c"/><path d="M0 0 Q 25.2 -39.1 0 -102.9 Q -25.2 -39.1 0 0 Z" fill="#39685c" opacity="1" transform="translate(1775 2702.1) rotate(-58)"/><path d="M0 0 Q 25.2 -44.7 0 -117.6 Q -25.2 -44.7 0 0 Z" fill="#39685c" opacity="1" transform="translate(1775 2702.1) rotate(-34.8)"/><path d="M0 0 Q 25.2 -50.3 0 -132.4 Q -25.2 -50.3 0 0 Z" fill="#39685c" opacity="1" transform="translate(1775 2702.1) rotate(-11.6)"/><path d="M0 0 Q 25.2 -50.3 0 -132.4 Q -25.2 -50.3 0 0 Z" fill="#39685c" opacity="1" transform="translate(1775 2702.1) rotate(11.6)"/><path d="M0 0 Q 25.2 -44.7 0 -117.6 Q -25.2 -44.7 0 0 Z" fill="#39685c" opacity="1" transform="translate(1775 2702.1) rotate(34.8)"/><path d="M0 0 Q 25.2 -39.1 0 -102.9 Q -25.2 -39.1 0 0 Z" fill="#39685c" opacity="1" transform="translate(1775 2702.1) rotate(58)"/><path d="M1733.1,2702.1 Q1775,2749.6 1816.9,2702.1 Z" fill="#39685c"/><path d="M0 0 Q 25.2 -39.1 0 -102.9 Q -25.2 -39.1 0 0 Z" fill="#39685c" opacity="1" transform="translate(2005 2702.1) rotate(-58)"/><path d="M0 0 Q 25.2 -44.7 0 -117.6 Q -25.2 -44.7 0 0 Z" fill="#39685c" opacity="1" transform="translate(2005 2702.1) rotate(-34.8)"/><path d="M0 0 Q 25.2 -50.3 0 -132.4 Q -25.2 -50.3 0 0 Z" fill="#39685c" opacity="1" transform="translate(2005 2702.1) rotate(-11.6)"/><path d="M0 0 Q 25.2 -50.3 0 -132.4 Q -25.2 -50.3 0 0 Z" fill="#39685c" opacity="1" transform="translate(2005 2702.1) rotate(11.6)"/><path d="M0 0 Q 25.2 -44.7 0 -117.6 Q -25.2 -44.7 0 0 Z" fill="#39685c" opacity="1" transform="translate(2005 2702.1) rotate(34.8)"/><path d="M0 0 Q 25.2 -39.1 0 -102.9 Q -25.2 -39.1 0 0 Z" fill="#39685c" opacity="1" transform="translate(2005 2702.1) rotate(58)"/><path d="M1963.1,2702.1 Q2005,2749.6 2046.9,2702.1 Z" fill="#39685c"/><line x1="250" y1="2740" x2="2150" y2="2740" stroke="#39685c" stroke-width="6"/><line x1="250" y1="260" x2="2150" y2="260" stroke="#39685c" stroke-width="6"/><rect x="100" y="100" width="2200" height="2800" fill="none" stroke="#39685c" stroke-width="9"/><rect x="142" y="142" width="2116" height="2716" fill="none" stroke="#39685c" stroke-width="3" opacity="0.65"/></svg></svg>