<svg xmlns="http://www.w3.org/2000/svg" width="2400" height="1800" viewBox="0 0 2400 1800"><rect width="2400" height="1800" fill="#dfe4dc"/><rect y="1400" width="2400" height="400" fill="#c2a67e"/><line x1="60" y1="1400" x2="10" y2="1800" stroke="#00000015" stroke-width="5"/><line x1="260" y1="1400" x2="210" y2="1800" stroke="#00000015" stroke-width="5"/><line x1="460" y1="1400" x2="410" y2="1800" stroke="#00000015" stroke-width="5"/><line x1="660" y1="1400" x2="610" y2="1800" stroke="#00000015" stroke-width="5"/><line x1="860" y1="1400" x2="810" y2="1800" stroke="#00000015" stroke-width="5"/><line x1="1060" y1="1400" x2="1010" y2="1800" stroke="#00000015" stroke-width="5"/><line x1="1260" y1="1400" x2="1210" y2="1800" stroke="#00000015" stroke-width="5"/><line x1="1460" y1="1400" x2="1410" y2="1800" stroke="#00000015" stroke-width="5"/><line x1="1660" y1="1400" x2="1610" y2="1800" stroke="#00000015" stroke-width="5"/><line x1="1860" y1="1400" x2="1810" y2="1800" stroke="#00000015" stroke-width="5"/><line x1="2060" y1="1400" x2="2010" y2="1800" stroke="#00000015" stroke-width="5"/><line x1="2260" y1="1400" x2="2210" y2="1800" stroke="#00000015" stroke-width="5"/><rect x="180" y="260" width="900" height="620" fill="#8a6a48"/><rect x="215" y="295" width="830" height="550" fill="#41524a"/><line x1="280" y1="420" x2="760" y2="420" stroke="#ffffff66" stroke-width="9" stroke-linecap="round"/><line x1="280" y1="520" x2="620" y2="520" stroke="#ffffff44" stroke-width="9" stroke-linecap="round"/><circle cx="880" cy="560" r="90" fill="none" stroke="#ffffff55" stroke-width="8"/><rect x="215" y="845" width="830" height="22" fill="#6f5436"/><rect x="330" y="1240" width="640" height="60" rx="10" fill="#9c7449"/><rect x="370" y="1300" width="60" height="240" fill="#8a6540"/><rect x="870" y="1300" width="60" height="240" fill="#8a6540"/><rect x="430" y="1160" width="150" height="80" rx="8" fill="#b3702f"/><rect x="450" y="1120" width="150" height="40" rx="8" fill="#c9b795"/><circle cx="800" cy="1130" r="86" fill="#7fa3b8"/><path d="M760,1060 Q820,1100 780,1190 M740,1090 Q800,1120 850,1100" stroke="#5d8069" stroke-width="16" fill="none" stroke-linecap="round"/><circle cx="800" cy="1130" r="86" fill="none" stroke="#6b5233" stroke-width="7"/><line x1="800" y1="1216" x2="800" y2="1250" stroke="#6b5233" stroke-width="10"/><rect x="750" y="1244" width="100" height="14" rx="7" fill="#6b5233"/><rect x="1980" y="700" width="300" height="800" fill="#9c7449"/><rect x="2000" y="930" width="260" height="16" fill="#7c5a37"/><rect x="2020" y="790" width="36" height="140" fill="#b3502f"/><rect x="2066" y="802" width="36" height="128" fill="#39685c"/><rect x="2112" y="790" width="36" height="140" fill="#c9a227"/><rect x="2158" y="802" width="36" height="128" fill="#2c4661"/><rect x="2204" y="790" width="36" height="140" fill="#8a4423"/><rect x="2000" y="1180" width="260" height="16" fill="#7c5a37"/><rect x="2020" y="1040" width="36" height="140" fill="#39685c"/><rect x="2066" y="1052" width="36" height="128" fill="#c9a227"/><rect x="2112" y="1040" width="36" height="140" fill="#2c4661"/><rect x="2158" y="1052" width="36" height="128" fill="#8a4423"/><rect x="2204" y="1040" width="36" height="140" fill="#b3502f"/><rect x="2000" y="1430" width="260" height="16" fill="#7c5a37"/><rect x="2020" y="1290" width="36" height="140" fill="#c9a227"/><rect x="2066" y="1302" width="36" height="128" fill="#2c4661"/><rect x="2112" y="1290" width="36" height="140" fill="#8a4423"/><rect x="2158" y="1302" width="36" height="128" fill="#b3502f"/><rect x="2204" y="1290" width="36" height="140" fill="#39685c"/><defs><filter id="a73c-sh" x="-30%" y="-30%" width="160%" height="160%"><feGaussianBlur stdDeviation="16"/></filter></defs><rect x="1340.5" y="298.5" width="517" height="635" fill="#000" opacity="0.28" filter="url(#a73c-sh)"/><rect x="1326.5" y="276.5" width="517" height="635" fill="#3d342a"/><rect x="1341.8" y="291.8" width="486.4" height="604.5" fill="none" stroke="#00000055" stroke-width="3"/><rect x="1350" y="300" width="470" height="588" fill="#f6f2ea"/><svg x="1385.3" y="335.3" width="399.5" height="517.5" viewBox="0 0 2400 3000" preserveAspectRatio="xMidYMid slice"><filter id="a73-warp" x="-4%" y="-4%" width="108%" height="108%"><feTurbulence type="fractalNoise" baseFrequency="0.0105" numOctaves="2" seed="4751" result="w"/><feDisplacementMap in="SourceGraphic" in2="w" scale="12" xChannelSelector="R" yChannelSelector="G"/></filter><filter id="a73-grain" x="0%" y="0%" width="100%" height="100%"><feTurbulence type="fractalNoise" baseFrequency="0.6" numOctaves="2" seed="4758"/><feColorMatrix type="matrix" values="0.33 0.33 0.33 0 0.62  0.33 0.33 0.33 0 0.62  0.33 0.33 0.33 0 0.62  0 0 0 0 1"/></filter><filter id="a73-mottle" x="0%" y="0%" width="100%" height="100%"><feTurbulence type="fractalNoise" baseFrequency="0.0045" numOctaves="3" seed="4764"/><feColorMatrix type="matrix" values="0.2 0.2 0.2 0 0.78  0.2 0.2 0.2 0 0.78  0.2 0.2 0.2 0 0.78  0 0 0 0 1"/></filter><filter id="a73-fade" x="0%" y="0%" width="100%" height="100%"><feTurbulence type="fractalNoise" baseFrequency="0.006" numOctaves="2" seed="4780"/><feColorMatrix type="matrix" values="0.3 0.3 0.3 0 -0.08  0.3 0.3 0.3 0 -0.08  0.3 0.3 0.3 0 -0.1  0 0 0 0 1"/></filter><filter id="a73-blur9"><feGaussianBlur stdDeviation="9"/></filter><radialGradient id="a73-vig" cx="50%" cy="44%" r="78%"><stop offset="52%" stop-color="#241a10" stop-opacity="0"/><stop offset="100%" stop-color="#241a10" stop-opacity="0.17"/></radialGradient><radialGradient id="a73-warm" cx="61%" cy="30%" r="85%"><stop offset="0%" stop-color="#e8c890" stop-opacity="0.14"/><stop offset="70%" stop-color="#e8c890" stop-opacity="0"/></radialGradient><rect width="2400" height="3000" fill="#e3d7c0"/><rect width="2400" height="3000" fill="url(#a73-warm)"/><rect y="1622.5" width="2400" height="239.8" fill="#8a6a40" opacity="0.021" transform="rotate(-0.9 1200 1622.5)"/><rect y="1799.2" width="2400" height="180.6" fill="#ffffff" opacity="0.048" transform="rotate(1.5 1200 1799.2)"/><rect y="863.4" width="2400" height="141.9" fill="#8a6a40" opacity="0.040" transform="rotate(-1.2 1200 863.4)"/><rect y="1740" width="2400" height="325.1" fill="#ffffff" opacity="0.040" transform="rotate(-1.1 1200 1740)"/><rect y="2578.4" width="2400" height="404.9" fill="#8a6a40" opacity="0.025" transform="rotate(0 1200 2578.4)"/><rect y="2426.4" width="2400" height="205.1" fill="#ffffff" opacity="0.025" transform="rotate(-1.5 1200 2426.4)"/><rect y="2309.3" width="2400" height="308.9" fill="#8a6a40" opacity="0.042" transform="rotate(0.7 1200 2309.3)"/><g filter="url(#a73-warp)"><polyline points="1133.5,2062.6 1097.3,2057.7 1061.4,2050.8 1026,2041.8 991.2,2030.8 957,2017.8 923.7,2002.9 891.2,1986.1 859.8,1967.5 829.5,1947 800.4,1924.9 772.7,1901.2 746.3,1875.8 721.5,1849.1 698.2,1820.9 676.6,1791.4 656.7,1760.8 638.6,1729 622.3,1696.3 608,1662.7 595.6,1628.3 585.2,1593.3 576.9,1557.7 570.6,1521.7 566.3,1485.4 564.2,1449 564.2,1412.4 566.2,1375.9 570.4,1339.6 576.6,1303.6 584.9,1268 595.2,1233 607.5,1198.6 621.8,1165 637.9,1132.2 656,1100.4 675.8,1069.7 697.3,1040.2 720.5,1012 745.3,985.1 771.6,959.8 799.3,936 828.4,913.8 858.6,893.3 890,874.6 922.4,857.7 955.7,842.7 989.8,829.6 1024.7,818.5 " fill="none" stroke="#8a4a2c" stroke-width="14" stroke-linecap="round"/><polyline points="1266.5,2062.6 1302.7,2057.7 1338.6,2050.8 1374,2041.8 1408.8,2030.8 1443,2017.8 1476.3,2002.9 1508.8,1986.1 1540.2,1967.5 1570.5,1947 1599.6,1924.9 1627.3,1901.2 1653.7,1875.8 1678.5,1849.1 1701.8,1820.9 1723.4,1791.4 1743.3,1760.8 1761.4,1729 1777.7,1696.3 1792,1662.7 1804.4,1628.3 1814.8,1593.3 1823.1,1557.7 1829.4,1521.7 1833.7,1485.4 1835.8,1449 1835.8,1412.4 1833.8,1375.9 1829.6,1339.6 1823.4,1303.6 1815.1,1268 1804.8,1233 1792.5,1198.6 1778.2,1165 1762.1,1132.2 1744,1100.4 1724.2,1069.7 1702.7,1040.2 1679.5,1012 1654.7,985.1 1628.4,959.8 1600.7,936 1571.6,913.8 1541.4,893.3 1510,874.6 1477.6,857.7 1444.3,842.7 1410.2,829.6 1375.3,818.5 " fill="none" stroke="#8a4a2c" stroke-width="14" stroke-linecap="round"/><path d="M0 0 Q 36 -66.5 0 -175 Q -36 -66.5 0 0 Z" fill="#8a4a2c" opacity="1" transform="translate(1310.5 2056.4) rotate(-70)"/><path d="M0 0 Q 34.9 -64.5 0 -169.8 Q -34.9 -64.5 0 0 Z" fill="#8a4a2c" opacity="1" transform="translate(1425 2025) rotate(-140.7)"/><circle cx="1425" cy="2025" r="15" fill="#b3702f"/><path d="M0 0 Q 33.8 -62.5 0 -164.5 Q -33.8 -62.5 0 0 Z" fill="#8a4a2c" opacity="1" transform="translate(1531.7 1972.8) rotate(-91.4)"/><path d="M0 0 Q 32.8 -60.5 0 -159.3 Q -32.8 -60.5 0 0 Z" fill="#8a4a2c" opacity="1" transform="translate(1626.8 1901.6) rotate(-162.1)"/><path d="M0 0 Q 31.7 -58.5 0 -154 Q -31.7 -58.5 0 0 Z" fill="#8a4a2c" opacity="1" transform="translate(1707 1814.1) rotate(-112.9)"/><circle cx="1707" cy="1814.1" r="15" fill="#b3702f"/><path d="M0 0 Q 30.6 -56.5 0 -148.8 Q -30.6 -56.5 0 0 Z" fill="#8a4a2c" opacity="1" transform="translate(1769.6 1713.1) rotate(-183.6)"/><path d="M0 0 Q 29.5 -54.5 0 -143.5 Q -29.5 -54.5 0 0 Z" fill="#8a4a2c" opacity="1" transform="translate(1812.3 1602.3) rotate(-134.3)"/><path d="M0 0 Q 28.4 -52.5 0 -138.3 Q -28.4 -52.5 0 0 Z" fill="#8a4a2c" opacity="1" transform="translate(1833.7 1485.4) rotate(-205)"/><circle cx="1833.7" cy="1485.4" r="15" fill="#b3702f"/><path d="M0 0 Q 27.4 -50.5 0 -133 Q -27.4 -50.5 0 0 Z" fill="#8a4a2c" opacity="1" transform="translate(1832.9 1366.7) rotate(-155.7)"/><path d="M0 0 Q 26.3 -48.5 0 -127.8 Q -26.3 -48.5 0 0 Z" fill="#8a4a2c" opacity="1" transform="translate(1810.1 1250.1) rotate(-226.4)"/><path d="M0 0 Q 25.2 -46.5 0 -122.5 Q -25.2 -46.5 0 0 Z" fill="#8a4a2c" opacity="1" transform="translate(1766 1139.8) rotate(-177.1)"/><circle cx="1766" cy="1139.8" r="15" fill="#b3702f"/><path d="M0 0 Q 24.1 -44.6 0 -117.3 Q -24.1 -44.6 0 0 Z" fill="#8a4a2c" opacity="1" transform="translate(1702.2 1039.6) rotate(-247.9)"/><path d="M0 0 Q 23 -42.6 0 -112 Q -23 -42.6 0 0 Z" fill="#8a4a2c" opacity="1" transform="translate(1620.9 953.1) rotate(-198.6)"/><path d="M0 0 Q 22 -40.6 0 -106.8 Q -22 -40.6 0 0 Z" fill="#8a4a2c" opacity="1" transform="translate(1524.9 883.1) rotate(-269.3)"/><circle cx="1524.9" cy="883.1" r="15" fill="#b3702f"/><path d="M0 0 Q 20.9 -38.6 0 -101.5 Q -20.9 -38.6 0 0 Z" fill="#8a4a2c" opacity="1" transform="translate(1417.6 832.3) rotate(-220)"/><path d="M0 0 Q 36 -66.5 0 -175 Q -36 -66.5 0 0 Z" fill="#8a4a2c" opacity="1" transform="translate(1089.5 2056.4) rotate(70)"/><path d="M0 0 Q 34.9 -64.5 0 -169.8 Q -34.9 -64.5 0 0 Z" fill="#8a4a2c" opacity="1" transform="translate(975 2025) rotate(140.7)"/><circle cx="975" cy="2025" r="15" fill="#b3702f"/><path d="M0 0 Q 33.8 -62.5 0 -164.5 Q -33.8 -62.5 0 0 Z" fill="#8a4a2c" opacity="1" transform="translate(868.3 1972.8) rotate(91.4)"/><path d="M0 0 Q 32.8 -60.5 0 -159.3 Q -32.8 -60.5 0 0 Z" fill="#8a4a2c" opacity="1" transform="translate(773.2 1901.6) rotate(162.1)"/><path d="M0 0 Q 31.7 -58.5 0 -154 Q -31.7 -58.5 0 0 Z" fill="#8a4a2c" opacity="1" transform="translate(693 1814.1) rotate(112.9)"/><circle cx="693" cy="1814.1" r="15" fill="#b3702f"/><path d="M0 0 Q 30.6 -56.5 0 -148.8 Q -30.6 -56.5 0 0 Z" fill="#8a4a2c" opacity="1" transform="translate(630.4 1713.1) rotate(183.6)"/><path d="M0 0 Q 29.5 -54.5 0 -143.5 Q -29.5 -54.5 0 0 Z" fill="#8a4a2c" opacity="1" transform="translate(587.7 1602.3) rotate(134.3)"/><path d="M0 0 Q 28.4 -52.5 0 -138.3 Q -28.4 -52.5 0 0 Z" fill="#8a4a2c" opacity="1" transform="translate(566.3 1485.4) rotate(205)"/><circle cx="566.3" cy="1485.4" r="15" fill="#b3702f"/><path d="M0 0 Q 27.4 -50.5 0 -133 Q -27.4 -50.5 0 0 Z" fill="#8a4a2c" opacity="1" transform="translate(567.1 1366.7) rotate(155.7)"/><path d="M0 0 Q 26.3 -48.5 0 -127.8 Q -26.3 -48.5 0 0 Z" fill="#8a4a2c" opacity="1" transform="translate(589.9 1250.1) rotate(226.4)"/><path d="M0 0 Q 25.2 -46.5 0 -122.5 Q -25.2 -46.5 0 0 Z" fill="#8a4a2c" opacity="1" transform="translate(634 1139.8) rotate(177.1)"/><circle cx="634" cy="1139.8" r="15" fill="#b3702f"/><path d="M0 0 Q 24.1 -44.6 0 -117.3 Q -24.1 -44.6 0 0 Z" fill="#8a4a2c" opacity="1" transform="translate(697.8 1039.6) rotate(247.9)"/><path d="M0 0 Q 23 -42.6 0 -112 Q -23 -42.6 0 0 Z" fill="#8a4a2c" opacity="1" transform="translate(779.1 953.1) rotate(198.6)"/><path d="M0 0 Q 22 -40.6 0 -106.8 Q -22 -40.6 0 0 Z" fill="#8a4a2c" opacity="1" transform="translate(875.1 883.1) rotate(269.3)"/><circle cx="875.1" cy="883.1" r="15" fill="#b3702f"/><path d="M0 0 Q 20.9 -38.6 0 -101.5 Q -20.9 -38.6 0 0 Z" fill="#8a4a2c" opacity="1" transform="translate(982.4 832.3) rotate(220)"/><path d="M1170,2042.1 l -120,150 l 60,10 l 80,-110 Z" fill="#b3702f"/><path d="M1230,2042.1 l 120,150 l -60,10 l -80,-110 Z" fill="#b3702f"/><circle cx="1200" cy="1430" r="220" fill="#b3702f"/><circle cx="1292.4" cy="1390.4" r="193.6" fill="#e3d7c0"/><path d="M286.4,273.6 L 353.6,273.6 L 353.6,206.4 L 300.8,206.4 L 300.8,248 L 328,248 L 328,227.2 M366.4,273.6 L 433.6,273.6 L 433.6,206.4 L 380.8,206.4 L 380.8,248 L 408,248 L 408,227.2 M446.4,273.6 L 513.6,273.6 L 513.6,206.4 L 460.8,206.4 L 460.8,248 L 488,248 L 488,227.2 M526.4,273.6 L 593.6,273.6 L 593.6,206.4 L 540.8,206.4 L 540.8,248 L 568,248 L 568,227.2 M606.4,273.6 L 673.6,273.6 L 673.6,206.4 L 620.8,206.4 L 620.8,248 L 648,248 L 648,227.2 M686.4,273.6 L 753.6,273.6 L 753.6,206.4 L 700.8,206.4 L 700.8,248 L 728,248 L 728,227.2 M766.4,273.6 L 833.6,273.6 L 833.6,206.4 L 780.8,206.4 L 780.8,248 L 808,248 L 808,227.2 M846.4,273.6 L 913.6,273.6 L 913.6,206.4 L 860.8,206.4 L 860.8,248 L 888,248 L 888,227.2 M926.4,273.6 L 993.6,273.6 L 993.6,206.4 L 940.8,206.4 L 940.8,248 L 968,248 L 968,227.2 M1006.4,273.6 L 1073.6,273.6 L 1073.6,206.4 L 1020.8,206.4 L 1020.8,248 L 1048,248 L 1048,227.2 M1086.4,273.6 L 1153.6,273.6 L 1153.6,206.4 L 1100.8,206.4 L 1100.8,248 L 1128,248 L 1128,227.2 M1166.4,273.6 L 1233.6,273.6 L 1233.6,206.4 L 1180.8,206.4 L 1180.8,248 L 1208,248 L 1208,227.2 M1246.4,273.6 L 1313.6,273.6 L 1313.6,206.4 L 1260.8,206.4 L 1260.8,248 L 1288,248 L 1288,227.2 M1326.4,273.6 L 1393.6,273.6 L 1393.6,206.4 L 1340.8,206.4 L 1340.8,248 L 1368,248 L 1368,227.2 M1406.4,273.6 L 1473.6,273.6 L 1473.6,206.4 L 1420.8,206.4 L 1420.8,248 L 1448,248 L 1448,227.2 M1486.4,273.6 L 1553.6,273.6 L 1553.6,206.4 L 1500.8,206.4 L 1500.8,248 L 1528,248 L 1528,227.2 M1566.4,273.6 L 1633.6,273.6 L 1633.6,206.4 L 1580.8,206.4 L 1580.8,248 L 1608,248 L 1608,227.2 M1646.4,273.6 L 1713.6,273.6 L 1713.6,206.4 L 1660.8,206.4 L 1660.8,248 L 1688,248 L 1688,227.2 M1726.4,273.6 L 1793.6,273.6 L 1793.6,206.4 L 1740.8,206.4 L 1740.8,248 L 1768,248 L 1768,227.2 M1806.4,273.6 L 1873.6,273.6 L 1873.6,206.4 L 1820.8,206.4 L 1820.8,248 L 1848,248 L 1848,227.2 M1886.4,273.6 L 1953.6,273.6 L 1953.6,206.4 L 1900.8,206.4 L 1900.8,248 L 1928,248 L 1928,227.2 M1966.4,273.6 L 2033.6,273.6 L 2033.6,206.4 L 1980.8,206.4 L 1980.8,248 L 2008,248 L 2008,227.2 M2046.4,273.6 L 2113.6,273.6 L 2113.6,206.4 L 2060.8,206.4 L 2060.8,248 L 2088,248 L 2088,227.2 " fill="none" stroke="#8a4a2c" stroke-width="10.4"/><line x1="280" y1="2806" x2="2120" y2="2806" stroke="#8a4a2c" stroke-width="6.9"/><polyline points="339.9,2764.7 339.4,2765.3 339.1,2766.1 339.1,2767.1 339.4,2768.1 340.1,2769.1 341.1,2769.9 342.4,2770.5 344,2770.6 345.6,2770.4 347.3,2769.7 348.8,2768.4 350,2766.8 350.9,2764.7 351.1,2762.4 350.8,2760 349.8,2757.6 348.2,2755.4 346,2753.6 343.2,2752.3 340.1,2751.8 336.9,2752 333.7,2753.1 330.7,2755 328.2,2757.6 326.3,2760.9 325.3,2764.7 325.2,2768.8 326.2,2772.9 328.2,2776.7 331.1,2780.1 334.9,2782.7 339.3,2784.3 344.2,2784.9 349.1,2784.2 353.9,2782.4 358.2,2779.3 361.7,2775.2 364.2,2770.3 365.4,2764.7 365.3,2758.9 363.7,2753.2 360.7,2747.9 356.4,2743.4 351.1,2740 345,2737.9 338.4,2737.3 331.7,2738.4 325.4,2741.1 319.8,2745.3 315.3,2750.9 312.2,2757.4 310.8,2764.7" fill="none" stroke="#8a4a2c" stroke-width="7.7" stroke-linecap="round" stroke-linejoin="round"/><polyline points="425.9,2764.7 425.4,2765.3 425.1,2766.1 425.1,2767.1 425.4,2768.1 426.1,2769.1 427.1,2769.9 428.4,2770.5 430,2770.6 431.6,2770.4 433.3,2769.7 434.8,2768.4 436,2766.8 436.9,2764.7 437.1,2762.4 436.8,2760 435.8,2757.6 434.2,2755.4 432,2753.6 429.2,2752.3 426.1,2751.8 422.9,2752 419.7,2753.1 416.7,2755 414.2,2757.6 412.3,2760.9 411.3,2764.7 411.2,2768.8 412.2,2772.9 414.2,2776.7 417.1,2780.1 420.9,2782.7 425.3,2784.3 430.2,2784.9 435.1,2784.2 439.9,2782.4 444.2,2779.3 447.7,2775.2 450.2,2770.3 451.4,2764.7 451.3,2758.9 449.7,2753.2 446.7,2747.9 442.4,2743.4 437.1,2740 431,2737.9 424.4,2737.3 417.7,2738.4 411.4,2741.1 405.8,2745.3 401.3,2750.9 398.2,2757.4 396.8,2764.7" fill="none" stroke="#8a4a2c" stroke-width="7.7" stroke-linecap="round" stroke-linejoin="round"/><polyline points="511.9,2764.7 511.4,2765.3 511.1,2766.1 511.1,2767.1 511.4,2768.1 512.1,2769.1 513.1,2769.9 514.4,2770.5 516,2770.6 517.6,2770.4 519.3,2769.7 520.8,2768.4 522,2766.8 522.9,2764.7 523.1,2762.4 522.8,2760 521.8,2757.6 520.2,2755.4 518,2753.6 515.2,2752.3 512.1,2751.8 508.9,2752 505.7,2753.1 502.7,2755 500.2,2757.6 498.3,2760.9 497.3,2764.7 497.2,2768.8 498.2,2772.9 500.2,2776.7 503.1,2780.1 506.9,2782.7 511.3,2784.3 516.2,2784.9 521.1,2784.2 525.9,2782.4 530.2,2779.3 533.7,2775.2 536.2,2770.3 537.4,2764.7 537.3,2758.9 535.7,2753.2 532.7,2747.9 528.4,2743.4 523.1,2740 517,2737.9 510.4,2737.3 503.7,2738.4 497.4,2741.1 491.8,2745.3 487.3,2750.9 484.2,2757.4 482.8,2764.7" fill="none" stroke="#8a4a2c" stroke-width="7.7" stroke-linecap="round" stroke-linejoin="round"/><polyline points="597.9,2764.7 597.4,2765.3 597.1,2766.1 597.1,2767.1 597.4,2768.1 598.1,2769.1 599.1,2769.9 600.4,2770.5 602,2770.6 603.6,2770.4 605.3,2769.7 606.8,2768.4 608,2766.8 608.9,2764.7 609.1,2762.4 608.8,2760 607.8,2757.6 606.2,2755.4 604,2753.6 601.2,2752.3 598.1,2751.8 594.9,2752 591.7,2753.1 588.7,2755 586.2,2757.6 584.3,2760.9 583.3,2764.7 583.2,2768.8 584.2,2772.9 586.2,2776.7 589.1,2780.1 592.9,2782.7 597.3,2784.3 602.2,2784.9 607.1,2784.2 611.9,2782.4 616.2,2779.3 619.7,2775.2 622.2,2770.3 623.4,2764.7 623.3,2758.9 621.7,2753.2 618.7,2747.9 614.4,2743.4 609.1,2740 603,2737.9 596.4,2737.3 589.7,2738.4 583.4,2741.1 577.8,2745.3 573.3,2750.9 570.2,2757.4 568.8,2764.7" fill="none" stroke="#8a4a2c" stroke-width="7.7" stroke-linecap="round" stroke-linejoin="round"/><polyline points="683.9,2764.7 683.4,2765.3 683.1,2766.1 683.1,2767.1 683.4,2768.1 684.1,2769.1 685.1,2769.9 686.4,2770.5 688,2770.6 689.6,2770.4 691.3,2769.7 692.8,2768.4 694,2766.8 694.9,2764.7 695.1,2762.4 694.8,2760 693.8,2757.6 692.2,2755.4 690,2753.6 687.2,2752.3 684.1,2751.8 680.9,2752 677.7,2753.1 674.7,2755 672.2,2757.6 670.3,2760.9 669.3,2764.7 669.2,2768.8 670.2,2772.9 672.2,2776.7 675.1,2780.1 678.9,2782.7 683.3,2784.3 688.2,2784.9 693.1,2784.2 697.9,2782.4 702.2,2779.3 705.7,2775.2 708.2,2770.3 709.4,2764.7 709.3,2758.9 707.7,2753.2 704.7,2747.9 700.4,2743.4 695.1,2740 689,2737.9 682.4,2737.3 675.7,2738.4 669.4,2741.1 663.8,2745.3 659.3,2750.9 656.2,2757.4 654.8,2764.7" fill="none" stroke="#8a4a2c" stroke-width="7.7" stroke-linecap="round" stroke-linejoin="round"/><polyline points="769.9,2764.7 769.4,2765.3 769.1,2766.1 769.1,2767.1 769.4,2768.1 770.1,2769.1 771.1,2769.9 772.4,2770.5 774,2770.6 775.6,2770.4 777.3,2769.7 778.8,2768.4 780,2766.8 780.9,2764.7 781.1,2762.4 780.8,2760 779.8,2757.6 778.2,2755.4 776,2753.6 773.2,2752.3 770.1,2751.8 766.9,2752 763.7,2753.1 760.7,2755 758.2,2757.6 756.3,2760.9 755.3,2764.7 755.2,2768.8 756.2,2772.9 758.2,2776.7 761.1,2780.1 764.9,2782.7 769.3,2784.3 774.2,2784.9 779.1,2784.2 783.9,2782.4 788.2,2779.3 791.7,2775.2 794.2,2770.3 795.4,2764.7 795.3,2758.9 793.7,2753.2 790.7,2747.9 786.4,2743.4 781.1,2740 775,2737.9 768.4,2737.3 761.7,2738.4 755.4,2741.1 749.8,2745.3 745.3,2750.9 742.2,2757.4 740.8,2764.7" fill="none" stroke="#8a4a2c" stroke-width="7.7" stroke-linecap="round" stroke-linejoin="round"/><polyline points="855.9,2764.7 855.4,2765.3 855.1,2766.1 855.1,2767.1 855.4,2768.1 856.1,2769.1 857.1,2769.9 858.4,2770.5 860,2770.6 861.6,2770.4 863.3,2769.7 864.8,2768.4 866,2766.8 866.9,2764.7 867.1,2762.4 866.8,2760 865.8,2757.6 864.2,2755.4 862,2753.6 859.2,2752.3 856.1,2751.8 852.9,2752 849.7,2753.1 846.7,2755 844.2,2757.6 842.3,2760.9 841.3,2764.7 841.2,2768.8 842.2,2772.9 844.2,2776.7 847.1,2780.1 850.9,2782.7 855.3,2784.3 860.2,2784.9 865.1,2784.2 869.9,2782.4 874.2,2779.3 877.7,2775.2 880.2,2770.3 881.4,2764.7 881.3,2758.9 879.7,2753.2 876.7,2747.9 872.4,2743.4 867.1,2740 861,2737.9 854.4,2737.3 847.7,2738.4 841.4,2741.1 835.8,2745.3 831.3,2750.9 828.2,2757.4 826.8,2764.7" fill="none" stroke="#8a4a2c" stroke-width="7.7" stroke-linecap="round" stroke-linejoin="round"/><polyline points="941.9,2764.7 941.4,2765.3 941.1,2766.1 941.1,2767.1 941.4,2768.1 942.1,2769.1 943.1,2769.9 944.4,2770.5 946,2770.6 947.6,2770.4 949.3,2769.7 950.8,2768.4 952,2766.8 952.9,2764.7 953.1,2762.4 952.8,2760 951.8,2757.6 950.2,2755.4 948,2753.6 945.2,2752.3 942.1,2751.8 938.9,2752 935.7,2753.1 932.7,2755 930.2,2757.6 928.3,2760.9 927.3,2764.7 927.2,2768.8 928.2,2772.9 930.2,2776.7 933.1,2780.1 936.9,2782.7 941.3,2784.3 946.2,2784.9 951.1,2784.2 955.9,2782.4 960.2,2779.3 963.7,2775.2 966.2,2770.3 967.4,2764.7 967.3,2758.9 965.7,2753.2 962.7,2747.9 958.4,2743.4 953.1,2740 947,2737.9 940.4,2737.3 933.7,2738.4 927.4,2741.1 921.8,2745.3 917.3,2750.9 914.2,2757.4 912.8,2764.7" fill="none" stroke="#8a4a2c" stroke-width="7.7" stroke-linecap="round" stroke-linejoin="round"/><polyline points="1027.9,2764.7 1027.4,2765.3 1027.1,2766.1 1027.1,2767.1 1027.4,2768.1 1028.1,2769.1 1029.1,2769.9 1030.4,2770.5 1032,2770.6 1033.6,2770.4 1035.3,2769.7 1036.8,2768.4 1038,2766.8 1038.9,2764.7 1039.1,2762.4 1038.8,2760 1037.8,2757.6 1036.2,2755.4 1034,2753.6 1031.2,2752.3 1028.1,2751.8 1024.9,2752 1021.7,2753.1 1018.7,2755 1016.2,2757.6 1014.3,2760.9 1013.3,2764.7 1013.2,2768.8 1014.2,2772.9 1016.2,2776.7 1019.1,2780.1 1022.9,2782.7 1027.3,2784.3 1032.2,2784.9 1037.1,2784.2 1041.9,2782.4 1046.2,2779.3 1049.7,2775.2 1052.2,2770.3 1053.4,2764.7 1053.3,2758.9 1051.7,2753.2 1048.7,2747.9 1044.4,2743.4 1039.1,2740 1033,2737.9 1026.4,2737.3 1019.7,2738.4 1013.4,2741.1 1007.8,2745.3 1003.3,2750.9 1000.2,2757.4 998.8,2764.7" fill="none" stroke="#8a4a2c" stroke-width="7.7" stroke-linecap="round" stroke-linejoin="round"/><polyline points="1113.9,2764.7 1113.4,2765.3 1113.1,2766.1 1113.1,2767.1 1113.4,2768.1 1114.1,2769.1 1115.1,2769.9 1116.4,2770.5 1118,2770.6 1119.6,2770.4 1121.3,2769.7 1122.8,2768.4 1124,2766.8 1124.9,2764.7 1125.1,2762.4 1124.8,2760 1123.8,2757.6 1122.2,2755.4 1120,2753.6 1117.2,2752.3 1114.1,2751.8 1110.9,2752 1107.7,2753.1 1104.7,2755 1102.2,2757.6 1100.3,2760.9 1099.3,2764.7 1099.2,2768.8 1100.2,2772.9 1102.2,2776.7 1105.1,2780.1 1108.9,2782.7 1113.3,2784.3 1118.2,2784.9 1123.1,2784.2 1127.9,2782.4 1132.2,2779.3 1135.7,2775.2 1138.2,2770.3 1139.4,2764.7 1139.3,2758.9 1137.7,2753.2 1134.7,2747.9 1130.4,2743.4 1125.1,2740 1119,2737.9 1112.4,2737.3 1105.7,2738.4 1099.4,2741.1 1093.8,2745.3 1089.3,2750.9 1086.2,2757.4 1084.8,2764.7" fill="none" stroke="#8a4a2c" stroke-width="7.7" stroke-linecap="round" stroke-linejoin="round"/><polyline points="1199.9,2764.7 1199.4,2765.3 1199.1,2766.1 1199.1,2767.1 1199.4,2768.1 1200.1,2769.1 1201.1,2769.9 1202.4,2770.5 1204,2770.6 1205.6,2770.4 1207.3,2769.7 1208.8,2768.4 1210,2766.8 1210.9,2764.7 1211.1,2762.4 1210.8,2760 1209.8,2757.6 1208.2,2755.4 1206,2753.6 1203.2,2752.3 1200.1,2751.8 1196.9,2752 1193.7,2753.1 1190.7,2755 1188.2,2757.6 1186.3,2760.9 1185.3,2764.7 1185.2,2768.8 1186.2,2772.9 1188.2,2776.7 1191.1,2780.1 1194.9,2782.7 1199.3,2784.3 1204.2,2784.9 1209.1,2784.2 1213.9,2782.4 1218.2,2779.3 1221.7,2775.2 1224.2,2770.3 1225.4,2764.7 1225.3,2758.9 1223.7,2753.2 1220.7,2747.9 1216.4,2743.4 1211.1,2740 1205,2737.9 1198.4,2737.3 1191.7,2738.4 1185.4,2741.1 1179.8,2745.3 1175.3,2750.9 1172.2,2757.4 1170.8,2764.7" fill="none" stroke="#8a4a2c" stroke-width="7.7" stroke-linecap="round" stroke-linejoin="round"/><polyline points="1285.9,2764.7 1285.4,2765.3 1285.1,2766.1 1285.1,2767.1 1285.4,2768.1 1286.1,2769.1 1287.1,2769.9 1288.4,2770.5 1290,2770.6 1291.6,2770.4 1293.3,2769.7 1294.8,2768.4 1296,2766.8 1296.9,2764.7 1297.1,2762.4 1296.8,2760 1295.8,2757.6 1294.2,2755.4 1292,2753.6 1289.2,2752.3 1286.1,2751.8 1282.9,2752 1279.7,2753.1 1276.7,2755 1274.2,2757.6 1272.3,2760.9 1271.3,2764.7 1271.2,2768.8 1272.2,2772.9 1274.2,2776.7 1277.1,2780.1 1280.9,2782.7 1285.3,2784.3 1290.2,2784.9 1295.1,2784.2 1299.9,2782.4 1304.2,2779.3 1307.7,2775.2 1310.2,2770.3 1311.4,2764.7 1311.3,2758.9 1309.7,2753.2 1306.7,2747.9 1302.4,2743.4 1297.1,2740 1291,2737.9 1284.4,2737.3 1277.7,2738.4 1271.4,2741.1 1265.8,2745.3 1261.3,2750.9 1258.2,2757.4 1256.8,2764.7" fill="none" stroke="#8a4a2c" stroke-width="7.7" stroke-linecap="round" stroke-linejoin="round"/><polyline points="1371.9,2764.7 1371.4,2765.3 1371.1,2766.1 1371.1,2767.1 1371.4,2768.1 1372.1,2769.1 1373.1,2769.9 1374.4,2770.5 1376,2770.6 1377.6,2770.4 1379.3,2769.7 1380.8,2768.4 1382,2766.8 1382.9,2764.7 1383.1,2762.4 1382.8,2760 1381.8,2757.6 1380.2,2755.4 1378,2753.6 1375.2,2752.3 1372.1,2751.8 1368.9,2752 1365.7,2753.1 1362.7,2755 1360.2,2757.6 1358.3,2760.9 1357.3,2764.7 1357.2,2768.8 1358.2,2772.9 1360.2,2776.7 1363.1,2780.1 1366.9,2782.7 1371.3,2784.3 1376.2,2784.9 1381.1,2784.2 1385.9,2782.4 1390.2,2779.3 1393.7,2775.2 1396.2,2770.3 1397.4,2764.7 1397.3,2758.9 1395.7,2753.2 1392.7,2747.9 1388.4,2743.4 1383.1,2740 1377,2737.9 1370.4,2737.3 1363.7,2738.4 1357.4,2741.1 1351.8,2745.3 1347.3,2750.9 1344.2,2757.4 1342.8,2764.7" fill="none" stroke="#8a4a2c" stroke-width="7.7" stroke-linecap="round" stroke-linejoin="round"/><polyline points="1457.9,2764.7 1457.4,2765.3 1457.1,2766.1 1457.1,2767.1 1457.4,2768.1 1458.1,2769.1 1459.1,2769.9 1460.4,2770.5 1462,2770.6 1463.6,2770.4 1465.3,2769.7 1466.8,2768.4 1468,2766.8 1468.9,2764.7 1469.1,2762.4 1468.8,2760 1467.8,2757.6 1466.2,2755.4 1464,2753.6 1461.2,2752.3 1458.1,2751.8 1454.9,2752 1451.7,2753.1 1448.7,2755 1446.2,2757.6 1444.3,2760.9 1443.3,2764.7 1443.2,2768.8 1444.2,2772.9 1446.2,2776.7 1449.1,2780.1 1452.9,2782.7 1457.3,2784.3 1462.2,2784.9 1467.1,2784.2 1471.9,2782.4 1476.2,2779.3 1479.7,2775.2 1482.2,2770.3 1483.4,2764.7 1483.3,2758.9 1481.7,2753.2 1478.7,2747.9 1474.4,2743.4 1469.1,2740 1463,2737.9 1456.4,2737.3 1449.7,2738.4 1443.4,2741.1 1437.8,2745.3 1433.3,2750.9 1430.2,2757.4 1428.8,2764.7" fill="none" stroke="#8a4a2c" stroke-width="7.7" stroke-linecap="round" stroke-linejoin="round"/><polyline points="1543.9,2764.7 1543.4,2765.3 1543.1,2766.1 1543.1,2767.1 1543.4,2768.1 1544.1,2769.1 1545.1,2769.9 1546.4,2770.5 1548,2770.6 1549.6,2770.4 1551.3,2769.7 1552.8,2768.4 1554,2766.8 1554.9,2764.7 1555.1,2762.4 1554.8,2760 1553.8,2757.6 1552.2,2755.4 1550,2753.6 1547.2,2752.3 1544.1,2751.8 1540.9,2752 1537.7,2753.1 1534.7,2755 1532.2,2757.6 1530.3,2760.9 1529.3,2764.7 1529.2,2768.8 1530.2,2772.9 1532.2,2776.7 1535.1,2780.1 1538.9,2782.7 1543.3,2784.3 1548.2,2784.9 1553.1,2784.2 1557.9,2782.4 1562.2,2779.3 1565.7,2775.2 1568.2,2770.3 1569.4,2764.7 1569.3,2758.9 1567.7,2753.2 1564.7,2747.9 1560.4,2743.4 1555.1,2740 1549,2737.9 1542.4,2737.3 1535.7,2738.4 1529.4,2741.1 1523.8,2745.3 1519.3,2750.9 1516.2,2757.4 1514.8,2764.7" fill="none" stroke="#8a4a2c" stroke-width="7.7" stroke-linecap="round" stroke-linejoin="round"/><polyline points="1629.9,2764.7 1629.4,2765.3 1629.1,2766.1 1629.1,2767.1 1629.4,2768.1 1630.1,2769.1 1631.1,2769.9 1632.4,2770.5 1634,2770.6 1635.6,2770.4 1637.3,2769.7 1638.8,2768.4 1640,2766.8 1640.9,2764.7 1641.1,2762.4 1640.8,2760 1639.8,2757.6 1638.2,2755.4 1636,2753.6 1633.2,2752.3 1630.1,2751.8 1626.9,2752 1623.7,2753.1 1620.7,2755 1618.2,2757.6 1616.3,2760.9 1615.3,2764.7 1615.2,2768.8 1616.2,2772.9 1618.2,2776.7 1621.1,2780.1 1624.9,2782.7 1629.3,2784.3 1634.2,2784.9 1639.1,2784.2 1643.9,2782.4 1648.2,2779.3 1651.7,2775.2 1654.2,2770.3 1655.4,2764.7 1655.3,2758.9 1653.7,2753.2 1650.7,2747.9 1646.4,2743.4 1641.1,2740 1635,2737.9 1628.4,2737.3 1621.7,2738.4 1615.4,2741.1 1609.8,2745.3 1605.3,2750.9 1602.2,2757.4 1600.8,2764.7" fill="none" stroke="#8a4a2c" stroke-width="7.7" stroke-linecap="round" stroke-linejoin="round"/><polyline points="1715.9,2764.7 1715.4,2765.3 1715.1,2766.1 1715.1,2767.1 1715.4,2768.1 1716.1,2769.1 1717.1,2769.9 1718.4,2770.5 1720,2770.6 1721.6,2770.4 1723.3,2769.7 1724.8,2768.4 1726,2766.8 1726.9,2764.7 1727.1,2762.4 1726.8,2760 1725.8,2757.6 1724.2,2755.4 1722,2753.6 1719.2,2752.3 1716.1,2751.8 1712.9,2752 1709.7,2753.1 1706.7,2755 1704.2,2757.6 1702.3,2760.9 1701.3,2764.7 1701.2,2768.8 1702.2,2772.9 1704.2,2776.7 1707.1,2780.1 1710.9,2782.7 1715.3,2784.3 1720.2,2784.9 1725.1,2784.2 1729.9,2782.4 1734.2,2779.3 1737.7,2775.2 1740.2,2770.3 1741.4,2764.7 1741.3,2758.9 1739.7,2753.2 1736.7,2747.9 1732.4,2743.4 1727.1,2740 1721,2737.9 1714.4,2737.3 1707.7,2738.4 1701.4,2741.1 1695.8,2745.3 1691.3,2750.9 1688.2,2757.4 1686.8,2764.7" fill="none" stroke="#8a4a2c" stroke-width="7.7" stroke-linecap="round" stroke-linejoin="round"/><polyline points="1801.9,2764.7 1801.4,2765.3 1801.1,2766.1 1801.1,2767.1 1801.4,2768.1 1802.1,2769.1 1803.1,2769.9 1804.4,2770.5 1806,2770.6 1807.6,2770.4 1809.3,2769.7 1810.8,2768.4 1812,2766.8 1812.9,2764.7 1813.1,2762.4 1812.8,2760 1811.8,2757.6 1810.2,2755.4 1808,2753.6 1805.2,2752.3 1802.1,2751.8 1798.9,2752 1795.7,2753.1 1792.7,2755 1790.2,2757.6 1788.3,2760.9 1787.3,2764.7 1787.2,2768.8 1788.2,2772.9 1790.2,2776.7 1793.1,2780.1 1796.9,2782.7 1801.3,2784.3 1806.2,2784.9 1811.1,2784.2 1815.9,2782.4 1820.2,2779.3 1823.7,2775.2 1826.2,2770.3 1827.4,2764.7 1827.3,2758.9 1825.7,2753.2 1822.7,2747.9 1818.4,2743.4 1813.1,2740 1807,2737.9 1800.4,2737.3 1793.7,2738.4 1787.4,2741.1 1781.8,2745.3 1777.3,2750.9 1774.2,2757.4 1772.8,2764.7" fill="none" stroke="#8a4a2c" stroke-width="7.7" stroke-linecap="round" stroke-linejoin="round"/><polyline points="1887.9,2764.7 1887.4,2765.3 1887.1,2766.1 1887.1,2767.1 1887.4,2768.1 1888.1,2769.1 1889.1,2769.9 1890.4,2770.5 1892,2770.6 1893.6,2770.4 1895.3,2769.7 1896.8,2768.4 1898,2766.8 1898.9,2764.7 1899.1,2762.4 1898.8,2760 1897.8,2757.6 1896.2,2755.4 1894,2753.6 1891.2,2752.3 1888.1,2751.8 1884.9,2752 1881.7,2753.1 1878.7,2755 1876.2,2757.6 1874.3,2760.9 1873.3,2764.7 1873.2,2768.8 1874.2,2772.9 1876.2,2776.7 1879.1,2780.1 1882.9,2782.7 1887.3,2784.3 1892.2,2784.9 1897.1,2784.2 1901.9,2782.4 1906.2,2779.3 1909.7,2775.2 1912.2,2770.3 1913.4,2764.7 1913.3,2758.9 1911.7,2753.2 1908.7,2747.9 1904.4,2743.4 1899.1,2740 1893,2737.9 1886.4,2737.3 1879.7,2738.4 1873.4,2741.1 1867.8,2745.3 1863.3,2750.9 1860.2,2757.4 1858.8,2764.7" fill="none" stroke="#8a4a2c" stroke-width="7.7" stroke-linecap="round" stroke-linejoin="round"/><polyline points="1973.9,2764.7 1973.4,2765.3 1973.1,2766.1 1973.1,2767.1 1973.4,2768.1 1974.1,2769.1 1975.1,2769.9 1976.4,2770.5 1978,2770.6 1979.6,2770.4 1981.3,2769.7 1982.8,2768.4 1984,2766.8 1984.9,2764.7 1985.1,2762.4 1984.8,2760 1983.8,2757.6 1982.2,2755.4 1980,2753.6 1977.2,2752.3 1974.1,2751.8 1970.9,2752 1967.7,2753.1 1964.7,2755 1962.2,2757.6 1960.3,2760.9 1959.3,2764.7 1959.2,2768.8 1960.2,2772.9 1962.2,2776.7 1965.1,2780.1 1968.9,2782.7 1973.3,2784.3 1978.2,2784.9 1983.1,2784.2 1987.9,2782.4 1992.2,2779.3 1995.7,2775.2 1998.2,2770.3 1999.4,2764.7 1999.3,2758.9 1997.7,2753.2 1994.7,2747.9 1990.4,2743.4 1985.1,2740 1979,2737.9 1972.4,2737.3 1965.7,2738.4 1959.4,2741.1 1953.8,2745.3 1949.3,2750.9 1946.2,2757.4 1944.8,2764.7" fill="none" stroke="#8a4a2c" stroke-width="7.7" stroke-linecap="round" stroke-linejoin="round"/><polyline points="2059.9,2764.7 2059.4,2765.3 2059.1,2766.1 2059.1,2767.1 2059.4,2768.1 2060.1,2769.1 2061.1,2769.9 2062.4,2770.5 2064,2770.6 2065.6,2770.4 2067.3,2769.7 2068.8,2768.4 2070,2766.8 2070.9,2764.7 2071.1,2762.4 2070.8,2760 2069.8,2757.6 2068.2,2755.4 2066,2753.6 2063.2,2752.3 2060.1,2751.8 2056.9,2752 2053.7,2753.1 2050.7,2755 2048.2,2757.6 2046.3,2760.9 2045.3,2764.7 2045.2,2768.8 2046.2,2772.9 2048.2,2776.7 2051.1,2780.1 2054.9,2782.7 2059.3,2784.3 2064.2,2784.9 2069.1,2784.2 2073.9,2782.4 2078.2,2779.3 2081.7,2775.2 2084.2,2770.3 2085.4,2764.7 2085.3,2758.9 2083.7,2753.2 2080.7,2747.9 2076.4,2743.4 2071.1,2740 2065,2737.9 2058.4,2737.3 2051.7,2738.4 2045.4,2741.1 2039.8,2745.3 2035.3,2750.9 2032.2,2757.4 2030.8,2764.7" fill="none" stroke="#8a4a2c" stroke-width="7.7" stroke-linecap="round" stroke-linejoin="round"/><rect x="104" y="104" width="2192" height="2792" fill="none" stroke="#8a4a2c" stroke-width="16" opacity="0.85"/><rect x="150" y="150" width="2100" height="2700" fill="none" stroke="#8a4a2c" stroke-width="4" opacity="0.55"/></g><rect width="2400" height="3000" filter="url(#a73-mottle)" style="mix-blend-mode:multiply" opacity="0.5"/><rect width="2400" height="3000" filter="url(#a73-fade)" style="mix-blend-mode:screen" opacity="0.55"/><rect width="2400" height="3000" filter="url(#a73-grain)" style="mix-blend-mode:multiply" opacity="0.32"/><ellipse cx="657.1" cy="1115.7" rx="177.8" ry="194.1" fill="#6b4a22" opacity="0.031" filter="url(#a73-blur9)"/><ellipse cx="1222.9" cy="539.3" rx="308.3" ry="212.3" fill="#6b4a22" opacity="0.033" filter="url(#a73-blur9)"/><ellipse cx="416.7" cy="1838.1" rx="318.2" ry="340.7" fill="#6b4a22" opacity="0.029" filter="url(#a73-blur9)"/><ellipse cx="2156.8" cy="1001.5" rx="267.5" ry="233.6" fill="#6b4a22" opacity="0.054" filter="url(#a73-blur9)"/><polyline points="1293.8,2451.6 1172.8,2436.9 1074,2526.1 1012.8,2611.4 994.1,2663.6 968.2,2713.5 957,2831.2 1000.6,2936.6" fill="none" stroke="#2e2116" stroke-width="3.7" opacity="0.23" stroke-linejoin="round"/><polyline points="1293.8,2451.6 1172.8,2436.9 1074,2526.1 1012.8,2611.4 994.1,2663.6 968.2,2713.5 957,2831.2 1000.6,2936.6" fill="none" stroke="#fff8ea" stroke-width="2.6" opacity="0.13" transform="translate(2.5 2.5)" stroke-linejoin="round"/><polyline points="1546.4,1042.1 1594.5,1170.2 1617.7,1250 1582.5,1334.2 1601.9,1380.3 1557,1478.4" fill="none" stroke="#2e2116" stroke-width="4" opacity="0.26" stroke-linejoin="round"/><polyline points="1546.4,1042.1 1594.5,1170.2 1617.7,1250 1582.5,1334.2 1601.9,1380.3 1557,1478.4" fill="none" stroke="#fff8ea" stroke-width="2.8" opacity="0.11" transform="translate(2.5 2.5)" stroke-linejoin="round"/><polyline points="942.4,2166.8 1007.9,2116.3 1062.1,2126.2 1120.6,2146.9 1183.8,2154.4 1242,2191.4 1333,2284.4 1348.7,2396.7 1306.4,2528 1205.7,2615.2 1172,2708.5" fill="none" stroke="#2e2116" stroke-width="2.9" opacity="0.17" stroke-linejoin="round"/><polyline points="942.4,2166.8 1007.9,2116.3 1062.1,2126.2 1120.6,2146.9 1183.8,2154.4 1242,2191.4 1333,2284.4 1348.7,2396.7 1306.4,2528 1205.7,2615.2 1172,2708.5" fill="none" stroke="#fff8ea" stroke-width="2.1" opacity="0.13" transform="translate(2.5 2.5)" stroke-linejoin="round"/><polyline points="678.7,828.5 594.9,869.7 491.1,902.4 368.6,935.5 266.4,868.6 182.7,841 81.5,785.1 30.8,744.7" fill="none" stroke="#2e2116" stroke-width="2.5" opacity="0.23" stroke-linejoin="round"/><polyline points="678.7,828.5 594.9,869.7 491.1,902.4 368.6,935.5 266.4,868.6 182.7,841 81.5,785.1 30.8,744.7" fill="none" stroke="#fff8ea" stroke-width="1.7" opacity="0.11" transform="translate(2.5 2.5)" stroke-linejoin="round"/><polyline points="413.4,1879.6 390.3,1749.4 315.9,1657.5 308.1,1580.5 301.7,1487.6 266.8,1359.9 179.1,1277.8 52.5,1277.6 6.9,1232.5 -99,1170.5" fill="none" stroke="#2e2116" stroke-width="2.7" opacity="0.16" stroke-linejoin="round"/><polyline points="413.4,1879.6 390.3,1749.4 315.9,1657.5 308.1,1580.5 301.7,1487.6 266.8,1359.9 179.1,1277.8 52.5,1277.6 6.9,1232.5 -99,1170.5" fill="none" stroke="#fff8ea" stroke-width="1.9" opacity="0.13" transform="translate(2.5 2.5)" stroke-linejoin="round"/><polyline points="1184.1,1039.3 1075.5,1103.5 993.9,1134 921.5,1169.8 864.5,1225.1 751.4,1282.8 621.5,1250 570.6,1235.8 492.1,1218.6 425,1267.6 417.8,1370.8 443.9,1470.8 514.6,1592.8" fill="none" stroke="#2e2116" stroke-width="2.4" opacity="0.20" stroke-linejoin="round"/><polyline points="1184.1,1039.3 1075.5,1103.5 993.9,1134 921.5,1169.8 864.5,1225.1 751.4,1282.8 621.5,1250 570.6,1235.8 492.1,1218.6 425,1267.6 417.8,1370.8 443.9,1470.8 514.6,1592.8" fill="none" stroke="#fff8ea" stroke-width="1.7" opacity="0.14" transform="translate(2.5 2.5)" stroke-linejoin="round"/><path d="M1322.6,1262.3 Q1306,1302.3 1254.2,1295.7 Q1202.5,1289.2 1155.5,1275.8 Q1108.5,1262.5 1118.7,1228.2 Q1128.8,1194 1169,1168.1 Q1209.1,1142.2 1255.7,1156.9 Q1302.3,1171.6 1320.7,1197 Q1339.2,1222.4 1322.6,1262.3 Z" fill="#e3d7c0" opacity="0.78"/><path d="M1172.8,924.2 Q1167.5,938.5 1129,941.9 Q1090.5,945.4 1047.5,941.4 Q1004.6,937.5 1010.8,913.5 Q1017.1,889.5 1049.5,875.9 Q1081.9,862.3 1127.1,859.3 Q1172.3,856.2 1175.2,883 Q1178.2,909.8 1172.8,924.2 Z" fill="#e3d7c0" opacity="0.84"/><path d="M1932,441.2 Q1920.5,455.7 1891.8,459.7 Q1863,463.7 1816,454.6 Q1769,445.4 1770.3,427.3 Q1771.6,409.2 1816.9,400.3 Q1862.3,391.5 1900.6,396.4 Q1938.9,401.4 1941.2,414 Q1943.4,426.7 1932,441.2 Z" fill="#e3d7c0" opacity="0.84"/><path d="M2073.4,857.8 Q2070.9,884.7 2043.5,877.6 Q2016.1,870.5 1998.6,865.5 Q1981.2,860.6 1985.1,835.7 Q1989.1,810.8 2003.6,799.2 Q2018.1,787.5 2039.2,781.8 Q2060.4,776.1 2068.1,803.5 Q2075.8,831 2073.4,857.8 Z" fill="#e3d7c0" opacity="0.92"/><rect width="2400" height="3000" fill="url(#a73-vig)"/></svg></svg>