<svg xmlns="http://www.w3.org/2000/svg" width="2400" height="1800" viewBox="0 0 2400 1800"><rect width="2400" height="1800" fill="#e5ddcf"/><rect y="1430" width="2400" height="370" fill="#b89a76"/><line x1="100" y1="1430" x2="45" y2="1800" stroke="#00000016" stroke-width="5"/><line x1="330" y1="1430" x2="275" y2="1800" stroke="#00000016" stroke-width="5"/><line x1="560" y1="1430" x2="505" y2="1800" stroke="#00000016" stroke-width="5"/><line x1="790" y1="1430" x2="735" y2="1800" stroke="#00000016" stroke-width="5"/><line x1="1020" y1="1430" x2="965" y2="1800" stroke="#00000016" stroke-width="5"/><line x1="1250" y1="1430" x2="1195" y2="1800" stroke="#00000016" stroke-width="5"/><line x1="1480" y1="1430" x2="1425" y2="1800" stroke="#00000016" stroke-width="5"/><line x1="1710" y1="1430" x2="1655" y2="1800" stroke="#00000016" stroke-width="5"/><line x1="1940" y1="1430" x2="1885" y2="1800" stroke="#00000016" stroke-width="5"/><line x1="2170" y1="1430" x2="2115" y2="1800" stroke="#00000016" stroke-width="5"/><rect x="620" y="1180" width="1180" height="52" rx="10" fill="#8a6540"/><rect x="680" y="1232" width="70" height="330" fill="#775433"/><rect x="1670" y="1232" width="70" height="330" fill="#775433"/><rect x="760" y="1120" width="220" height="34" rx="6" fill="#c98f4e"/><rect x="780" y="1086" width="200" height="34" rx="6" fill="#39685c"/><rect x="800" y="1052" width="170" height="34" rx="6" fill="#c9a227"/><circle cx="1240" cy="1130" r="46" fill="#3f3428"/><rect x="1226" y="1048" width="16" height="60" fill="#3f3428" transform="rotate(18 1240 1090)"/><rect x="1420" y="1100" width="260" height="26" rx="13" fill="#e8dcc0"/><rect x="1450" y="1072" width="260" height="26" rx="13" fill="#dfd0ad"/><rect x="1080" y="1300" width="360" height="34" rx="14" fill="#6f5436"/><rect x="1100" y="1334" width="40" height="220" fill="#6f5436"/><rect x="1380" y="1334" width="40" height="220" fill="#6f5436"/><rect x="1080" y="1030" width="42" height="290" rx="14" fill="#6f5436"/><rect x="260" y="480" width="560" height="24" fill="#8a6540"/><rect x="300" y="360" width="90" height="120" fill="#b3502f"/><rect x="400" y="380" width="80" height="100" fill="#2c4661"/><rect x="490" y="350" width="86" height="130" fill="#96a396"/><path d="M700,480 Q 616,347 574,382" fill="none" stroke="#5d7052" stroke-width="11.2" stroke-linecap="round"/><path d="M700,480 Q 644,347 616,354" fill="none" stroke="#5d7052" stroke-width="11.2" stroke-linecap="round"/><path d="M700,480 Q 672,347 658,326" fill="none" stroke="#5d7052" stroke-width="11.2" stroke-linecap="round"/><path d="M700,480 Q 700,347 700,298" fill="none" stroke="#5d7052" stroke-width="11.2" stroke-linecap="round"/><path d="M700,480 Q 728,347 742,326" fill="none" stroke="#5d7052" stroke-width="11.2" stroke-linecap="round"/><path d="M700,480 Q 756,347 784,354" fill="none" stroke="#5d7052" stroke-width="11.2" stroke-linecap="round"/><path d="M700,480 Q 784,347 826,382" fill="none" stroke="#5d7052" stroke-width="11.2" stroke-linecap="round"/><path d="M651,480 L749,480 L736.4,557 L663.6,557 Z" fill="#a9714d"/><path d="M320,1520 Q 164,1273 86,1338" fill="none" stroke="#5d7052" stroke-width="20.8" stroke-linecap="round"/><path d="M320,1520 Q 216,1273 164,1286" fill="none" stroke="#5d7052" stroke-width="20.8" stroke-linecap="round"/><path d="M320,1520 Q 268,1273 242,1234" fill="none" stroke="#5d7052" stroke-width="20.8" stroke-linecap="round"/><path d="M320,1520 Q 320,1273 320,1182" fill="none" stroke="#5d7052" stroke-width="20.8" stroke-linecap="round"/><path d="M320,1520 Q 372,1273 398,1234" fill="none" stroke="#5d7052" stroke-width="20.8" stroke-linecap="round"/><path d="M320,1520 Q 424,1273 476,1286" fill="none" stroke="#5d7052" stroke-width="20.8" stroke-linecap="round"/><path d="M320,1520 Q 476,1273 554,1338" fill="none" stroke="#5d7052" stroke-width="20.8" stroke-linecap="round"/><path d="M229,1520 L411,1520 L387.6,1663 L252.4,1663 Z" fill="#a9714d"/><defs><filter id="a22s-sh" x="-30%" y="-30%" width="160%" height="160%"><feGaussianBlur stdDeviation="16"/></filter></defs><rect x="1206" y="294" width="616" height="756" fill="#000" opacity="0.28" filter="url(#a22s-sh)"/><rect x="1192" y="272" width="616" height="756" fill="#443a2d"/><rect x="1210.2" y="290.2" width="579.6" height="719.6" fill="none" stroke="#00000055" stroke-width="3"/><rect x="1220" y="300" width="560" height="700" fill="#f6f2ea"/><svg x="1262" y="342" width="476" height="616" viewBox="0 0 2400 3000" preserveAspectRatio="xMidYMid slice"><rect width="2400" height="3000" fill="#571f1c"/><radialGradient id="a22-vig" cx="50%" cy="42%" r="80%"><stop offset="55%" stop-color="#000" stop-opacity="0"/><stop offset="100%" stop-color="#000" stop-opacity="0.15"/></radialGradient><rect width="2400" height="3000" fill="url(#a22-vig)"/><circle cx="2261.8" cy="2484.6" r="3.4" fill="#e9dabe" opacity="0.055"/><circle cx="1730.8" cy="2817.8" r="2.4" fill="#e9dabe" opacity="0.040"/><circle cx="424" cy="1029.6" r="2.9" fill="#e9dabe" opacity="0.063"/><circle cx="272" cy="1128.1" r="2.9" fill="#e9dabe" opacity="0.075"/><circle cx="396.6" cy="1837.5" r="1.8" fill="#e9dabe" opacity="0.033"/><circle cx="2025.2" cy="2354.7" r="4.2" fill="#e9dabe" opacity="0.045"/><circle cx="469" cy="1323.6" r="1.9" fill="#e9dabe" opacity="0.076"/><circle cx="1584.4" cy="819.7" r="3.9" fill="#e9dabe" opacity="0.058"/><circle cx="1301" cy="699.4" r="3.1" fill="#e9dabe" opacity="0.044"/><circle cx="359.2" cy="2535.5" r="2.9" fill="#e9dabe" opacity="0.041"/><circle cx="1038.4" cy="2929.8" r="1.9" fill="#e9dabe" opacity="0.053"/><circle cx="2302.1" cy="600" r="1.9" fill="#e9dabe" opacity="0.076"/><circle cx="2194.9" cy="2432.1" r="4.4" fill="#e9dabe" opacity="0.071"/><circle cx="493.9" cy="1970.1" r="1.6" fill="#e9dabe" opacity="0.031"/><circle cx="180.1" cy="2414.1" r="2.6" fill="#e9dabe" opacity="0.070"/><circle cx="1928.5" cy="1510.2" r="3.5" fill="#e9dabe" opacity="0.075"/><circle cx="1089.5" cy="167.6" r="2.2" fill="#e9dabe" opacity="0.072"/><circle cx="760.5" cy="1396.7" r="3.1" fill="#e9dabe" opacity="0.062"/><circle cx="1911.4" cy="2422.8" r="4.1" fill="#e9dabe" opacity="0.078"/><circle cx="429.3" cy="351.5" r="2.3" fill="#e9dabe" opacity="0.064"/><circle cx="1544.6" cy="1681.2" r="2.4" fill="#e9dabe" opacity="0.073"/><circle cx="1987.6" cy="2011.3" r="2.6" fill="#e9dabe" opacity="0.057"/><circle cx="2253.1" cy="1698.9" r="3.2" fill="#e9dabe" opacity="0.032"/><circle cx="1121.8" cy="2122.3" r="4.5" fill="#e9dabe" opacity="0.055"/><circle cx="1186.3" cy="2294" r="2.3" fill="#e9dabe" opacity="0.069"/><circle cx="144.1" cy="1434.5" r="2.7" fill="#e9dabe" opacity="0.050"/><circle cx="1282" cy="158.4" r="2.4" fill="#e9dabe" opacity="0.052"/><circle cx="559" cy="326.7" r="4.4" fill="#e9dabe" opacity="0.077"/><circle cx="1895.5" cy="2401.5" r="4" fill="#e9dabe" opacity="0.073"/><circle cx="297.6" cy="94.9" r="1.6" fill="#e9dabe" opacity="0.045"/><circle cx="1373.3" cy="1461.9" r="3" fill="#e9dabe" opacity="0.041"/><circle cx="702.9" cy="1260.8" r="2.6" fill="#e9dabe" opacity="0.073"/><circle cx="2147.4" cy="1817.7" r="3.1" fill="#e9dabe" opacity="0.059"/><circle cx="867.8" cy="1379" r="2.9" fill="#e9dabe" opacity="0.034"/><circle cx="2335" cy="1251.9" r="2.6" fill="#e9dabe" opacity="0.035"/><circle cx="779.8" cy="2038.1" r="4.3" fill="#e9dabe" opacity="0.073"/><circle cx="1871.3" cy="204.5" r="2.9" fill="#e9dabe" opacity="0.034"/><circle cx="1609" cy="1200.8" r="3.9" fill="#e9dabe" opacity="0.065"/><circle cx="1811.2" cy="742.3" r="3.9" fill="#e9dabe" opacity="0.050"/><circle cx="1416.7" cy="1468.5" r="1.6" fill="#e9dabe" opacity="0.067"/><circle cx="2070" cy="1324.5" r="3.6" fill="#e9dabe" opacity="0.054"/><circle cx="2022.9" cy="1547.5" r="2.4" fill="#e9dabe" opacity="0.047"/><circle cx="2142.1" cy="269" r="1.6" fill="#e9dabe" opacity="0.052"/><circle cx="2039.9" cy="2875.9" r="1.9" fill="#e9dabe" opacity="0.071"/><circle cx="1311.5" cy="1551.8" r="3.4" fill="#e9dabe" opacity="0.036"/><circle cx="923.2" cy="1623.6" r="3.9" fill="#e9dabe" opacity="0.068"/><circle cx="2264.5" cy="1490" r="4.3" fill="#e9dabe" opacity="0.077"/><circle cx="1429.4" cy="2879.9" r="1.6" fill="#e9dabe" opacity="0.056"/><circle cx="2076.6" cy="2677" r="3.9" fill="#e9dabe" opacity="0.069"/><circle cx="1467.9" cy="2515.9" r="3.1" fill="#e9dabe" opacity="0.055"/><circle cx="688.6" cy="1276.6" r="2" fill="#e9dabe" opacity="0.033"/><circle cx="1162.3" cy="707.7" r="2.4" fill="#e9dabe" opacity="0.060"/><circle cx="1142.5" cy="557.1" r="4.3" fill="#e9dabe" opacity="0.041"/><circle cx="1310.5" cy="2907.9" r="2.4" fill="#e9dabe" opacity="0.053"/><circle cx="1647.6" cy="658" r="2.3" fill="#e9dabe" opacity="0.078"/><circle cx="2263" cy="2642.9" r="3.6" fill="#e9dabe" opacity="0.040"/><circle cx="144" cy="2624.9" r="4.1" fill="#e9dabe" opacity="0.039"/><circle cx="1270.9" cy="2293" r="1.8" fill="#e9dabe" opacity="0.033"/><circle cx="822.3" cy="1502.7" r="2.9" fill="#e9dabe" opacity="0.049"/><circle cx="914.6" cy="533.2" r="2.4" fill="#e9dabe" opacity="0.037"/><circle cx="1236.9" cy="2557.3" r="1.9" fill="#e9dabe" opacity="0.057"/><circle cx="1669.2" cy="747.1" r="3.7" fill="#e9dabe" opacity="0.057"/><circle cx="300.4" cy="1260.4" r="2.3" fill="#e9dabe" opacity="0.046"/><circle cx="1142" cy="908.4" r="1.5" fill="#e9dabe" opacity="0.035"/><circle cx="2282" cy="544.1" r="3.6" fill="#e9dabe" opacity="0.055"/><circle cx="154.2" cy="746.9" r="4.3" fill="#e9dabe" opacity="0.064"/><circle cx="2226.6" cy="2900.9" r="3.5" fill="#e9dabe" opacity="0.078"/><circle cx="1614.9" cy="2843.5" r="3.7" fill="#e9dabe" opacity="0.074"/><circle cx="2208.6" cy="819.4" r="2.2" fill="#e9dabe" opacity="0.034"/><circle cx="460.7" cy="781.1" r="3.2" fill="#e9dabe" opacity="0.068"/><circle cx="2251.7" cy="622" r="1.7" fill="#e9dabe" opacity="0.069"/><circle cx="187.9" cy="2352.7" r="3.5" fill="#e9dabe" opacity="0.033"/><circle cx="1860.3" cy="2424.3" r="3.1" fill="#e9dabe" opacity="0.033"/><circle cx="1019.4" cy="941.2" r="4.3" fill="#e9dabe" opacity="0.045"/><circle cx="655" cy="687.9" r="2.2" fill="#e9dabe" opacity="0.060"/><circle cx="235.6" cy="986.5" r="3.7" fill="#e9dabe" opacity="0.048"/><circle cx="531.8" cy="1917.9" r="3.9" fill="#e9dabe" opacity="0.050"/><circle cx="2323.5" cy="568.3" r="2.9" fill="#e9dabe" opacity="0.060"/><circle cx="508.5" cy="2644.3" r="1.8" fill="#e9dabe" opacity="0.065"/><circle cx="346.3" cy="1414.3" r="3.6" fill="#e9dabe" opacity="0.034"/><rect x="210" y="300" width="1980" height="8.9" fill="#e9dabe"/><rect x="210" y="308.4" width="1980" height="8.9" fill="#c98f4e"/><rect x="210" y="316.8" width="1980" height="8.9" fill="#e9dabe"/><rect x="210" y="325.2" width="1980" height="8.9" fill="#7c3a31"/><rect x="210" y="333.6" width="1980" height="8.9" fill="#e9dabe"/><rect x="210" y="885" width="1980" height="8.9" fill="#e9dabe"/><rect x="210" y="893.4" width="1980" height="8.9" fill="#c98f4e"/><rect x="210" y="901.8" width="1980" height="8.9" fill="#e9dabe"/><rect x="210" y="910.2" width="1980" height="8.9" fill="#7c3a31"/><rect x="210" y="918.6" width="1980" height="8.9" fill="#e9dabe"/><rect x="210" y="1470" width="1980" height="8.9" fill="#e9dabe"/><rect x="210" y="1478.4" width="1980" height="8.9" fill="#c98f4e"/><rect x="210" y="1486.8" width="1980" height="8.9" fill="#e9dabe"/><rect x="210" y="1495.2" width="1980" height="8.9" fill="#7c3a31"/><rect x="210" y="1503.6" width="1980" height="8.9" fill="#e9dabe"/><rect x="210" y="2055" width="1980" height="8.9" fill="#e9dabe"/><rect x="210" y="2063.4" width="1980" height="8.9" fill="#c98f4e"/><rect x="210" y="2071.8" width="1980" height="8.9" fill="#e9dabe"/><rect x="210" y="2080.2" width="1980" height="8.9" fill="#7c3a31"/><rect x="210" y="2088.6" width="1980" height="8.9" fill="#e9dabe"/><rect x="210" y="2640" width="1980" height="8.9" fill="#e9dabe"/><rect x="210" y="2648.4" width="1980" height="8.9" fill="#c98f4e"/><rect x="210" y="2656.8" width="1980" height="8.9" fill="#e9dabe"/><rect x="210" y="2665.2" width="1980" height="8.9" fill="#7c3a31"/><rect x="210" y="2673.6" width="1980" height="8.9" fill="#e9dabe"/><path d="M0 0 Q 66.2 -102.9 0 -270.8 Q -66.2 -102.9 0 0 Z" fill="#e9dabe" opacity="1" transform="translate(408 809.7) rotate(-58)"/><path d="M0 0 Q 66.2 -121.3 0 -319.3 Q -66.2 -121.3 0 0 Z" fill="#c98f4e" opacity="1" transform="translate(408 809.7) rotate(-29)"/><path d="M0 0 Q 66.2 -139.8 0 -367.8 Q -66.2 -139.8 0 0 Z" fill="#e9dabe" opacity="1" transform="translate(408 809.7) rotate(0)"/><path d="M0 0 Q 66.2 -121.3 0 -319.3 Q -66.2 -121.3 0 0 Z" fill="#c98f4e" opacity="1" transform="translate(408 809.7) rotate(29)"/><path d="M0 0 Q 66.2 -102.9 0 -270.8 Q -66.2 -102.9 0 0 Z" fill="#e9dabe" opacity="1" transform="translate(408 809.7) rotate(58)"/><path d="M297.7,809.7 Q408,934.7 518.3,809.7 Z" fill="#e9dabe"/><path d="M0 0 Q 64.8 -123.2 0 -324.1 Q -64.8 -123.2 0 0 Z" fill="#c98f4e" opacity="1" transform="translate(804 809.7) rotate(0)"/><line x1="804" y1="809.7" x2="804" y2="856.5" stroke="#e9dabe" stroke-width="20.3"/><path d="M0 0 Q 68.3 -106.1 0 -279.2 Q -68.3 -106.1 0 0 Z" fill="#e9dabe" opacity="1" transform="translate(1200 809.7) rotate(-58)"/><path d="M0 0 Q 68.3 -121.3 0 -319.2 Q -68.3 -121.3 0 0 Z" fill="#c98f4e" opacity="1" transform="translate(1200 809.7) rotate(-34.8)"/><path d="M0 0 Q 68.3 -136.5 0 -359.2 Q -68.3 -136.5 0 0 Z" fill="#e9dabe" opacity="1" transform="translate(1200 809.7) rotate(-11.6)"/><path d="M0 0 Q 68.3 -136.5 0 -359.2 Q -68.3 -136.5 0 0 Z" fill="#c98f4e" opacity="1" transform="translate(1200 809.7) rotate(11.6)"/><path d="M0 0 Q 68.3 -121.3 0 -319.2 Q -68.3 -121.3 0 0 Z" fill="#e9dabe" opacity="1" transform="translate(1200 809.7) rotate(34.8)"/><path d="M0 0 Q 68.3 -106.1 0 -279.2 Q -68.3 -106.1 0 0 Z" fill="#c98f4e" opacity="1" transform="translate(1200 809.7) rotate(58)"/><path d="M1086.2,809.7 Q1200,938.6 1313.8,809.7 Z" fill="#e9dabe"/><path d="M0 0 Q 62.5 -118.8 0 -312.7 Q -62.5 -118.8 0 0 Z" fill="#c98f4e" opacity="1" transform="translate(1596 809.7) rotate(0)"/><line x1="1596" y1="809.7" x2="1596" y2="856.5" stroke="#e9dabe" stroke-width="19.5"/><path d="M0 0 Q 73.4 -114.1 0 -300.3 Q -73.4 -114.1 0 0 Z" fill="#e9dabe" opacity="1" transform="translate(1992 809.7) rotate(-58)"/><path d="M0 0 Q 73.4 -130.4 0 -343.3 Q -73.4 -130.4 0 0 Z" fill="#c98f4e" opacity="1" transform="translate(1992 809.7) rotate(-34.8)"/><path d="M0 0 Q 73.4 -146.8 0 -386.3 Q -73.4 -146.8 0 0 Z" fill="#e9dabe" opacity="1" transform="translate(1992 809.7) rotate(-11.6)"/><path d="M0 0 Q 73.4 -146.8 0 -386.3 Q -73.4 -146.8 0 0 Z" fill="#c98f4e" opacity="1" transform="translate(1992 809.7) rotate(11.6)"/><path d="M0 0 Q 73.4 -130.4 0 -343.3 Q -73.4 -130.4 0 0 Z" fill="#e9dabe" opacity="1" transform="translate(1992 809.7) rotate(34.8)"/><path d="M0 0 Q 73.4 -114.1 0 -300.3 Q -73.4 -114.1 0 0 Z" fill="#c98f4e" opacity="1" transform="translate(1992 809.7) rotate(58)"/><path d="M1869.7,809.7 Q1992,948.3 2114.3,809.7 Z" fill="#e9dabe"/><line x1="408" y1="1394.7" x2="408" y2="1173.5" stroke="#e9dabe" stroke-width="24.1"/><line x1="408" y1="1173.5" x2="248.9" y2="1095.9" stroke="#e9dabe" stroke-width="18.1" stroke-linecap="round"/><circle cx="248.9" cy="1095.9" r="18.1" fill="#c98f4e"/><line x1="408" y1="1173.5" x2="263" y2="1043" stroke="#e9dabe" stroke-width="18.1" stroke-linecap="round"/><circle cx="263" cy="1043" r="18.1" fill="#c98f4e"/><line x1="408" y1="1173.5" x2="295" y2="992.7" stroke="#e9dabe" stroke-width="18.1" stroke-linecap="round"/><circle cx="295" cy="992.7" r="18.1" fill="#c98f4e"/><line x1="408" y1="1173.5" x2="344.3" y2="951.2" stroke="#e9dabe" stroke-width="18.1" stroke-linecap="round"/><circle cx="344.3" cy="951.2" r="18.1" fill="#c98f4e"/><line x1="408" y1="1173.5" x2="408" y2="924.1" stroke="#e9dabe" stroke-width="18.1" stroke-linecap="round"/><circle cx="408" cy="924.1" r="18.1" fill="#c98f4e"/><line x1="408" y1="1173.5" x2="471.7" y2="951.2" stroke="#e9dabe" stroke-width="18.1" stroke-linecap="round"/><circle cx="471.7" cy="951.2" r="18.1" fill="#c98f4e"/><line x1="408" y1="1173.5" x2="521" y2="992.7" stroke="#e9dabe" stroke-width="18.1" stroke-linecap="round"/><circle cx="521" cy="992.7" r="18.1" fill="#c98f4e"/><line x1="408" y1="1173.5" x2="553" y2="1043" stroke="#e9dabe" stroke-width="18.1" stroke-linecap="round"/><circle cx="553" cy="1043" r="18.1" fill="#c98f4e"/><line x1="408" y1="1173.5" x2="567.1" y2="1095.9" stroke="#e9dabe" stroke-width="18.1" stroke-linecap="round"/><circle cx="567.1" cy="1095.9" r="18.1" fill="#c98f4e"/><line x1="804" y1="1394.7" x2="804" y2="1178.3" stroke="#e9dabe" stroke-width="23.6"/><line x1="804" y1="1178.3" x2="648.4" y2="1102.5" stroke="#e9dabe" stroke-width="17.7" stroke-linecap="round"/><circle cx="648.4" cy="1102.5" r="17.7" fill="#c98f4e"/><line x1="804" y1="1178.3" x2="662.2" y2="1050.7" stroke="#e9dabe" stroke-width="17.7" stroke-linecap="round"/><circle cx="662.2" cy="1050.7" r="17.7" fill="#c98f4e"/><line x1="804" y1="1178.3" x2="693.5" y2="1001.5" stroke="#e9dabe" stroke-width="17.7" stroke-linecap="round"/><circle cx="693.5" cy="1001.5" r="17.7" fill="#c98f4e"/><line x1="804" y1="1178.3" x2="741.7" y2="960.9" stroke="#e9dabe" stroke-width="17.7" stroke-linecap="round"/><circle cx="741.7" cy="960.9" r="17.7" fill="#c98f4e"/><line x1="804" y1="1178.3" x2="804" y2="934.4" stroke="#e9dabe" stroke-width="17.7" stroke-linecap="round"/><circle cx="804" cy="934.4" r="17.7" fill="#c98f4e"/><line x1="804" y1="1178.3" x2="866.3" y2="960.9" stroke="#e9dabe" stroke-width="17.7" stroke-linecap="round"/><circle cx="866.3" cy="960.9" r="17.7" fill="#c98f4e"/><line x1="804" y1="1178.3" x2="914.5" y2="1001.5" stroke="#e9dabe" stroke-width="17.7" stroke-linecap="round"/><circle cx="914.5" cy="1001.5" r="17.7" fill="#c98f4e"/><line x1="804" y1="1178.3" x2="945.8" y2="1050.7" stroke="#e9dabe" stroke-width="17.7" stroke-linecap="round"/><circle cx="945.8" cy="1050.7" r="17.7" fill="#c98f4e"/><line x1="804" y1="1178.3" x2="959.6" y2="1102.5" stroke="#e9dabe" stroke-width="17.7" stroke-linecap="round"/><circle cx="959.6" cy="1102.5" r="17.7" fill="#c98f4e"/><line x1="1200" y1="1394.7" x2="1200" y2="1189.3" stroke="#e9dabe" stroke-width="22.4"/><line x1="1200" y1="1189.3" x2="1052.3" y2="1117.2" stroke="#e9dabe" stroke-width="16.8" stroke-linecap="round"/><circle cx="1052.3" cy="1117.2" r="16.8" fill="#c98f4e"/><line x1="1200" y1="1189.3" x2="1065.4" y2="1068" stroke="#e9dabe" stroke-width="16.8" stroke-linecap="round"/><circle cx="1065.4" cy="1068" r="16.8" fill="#c98f4e"/><line x1="1200" y1="1189.3" x2="1095.1" y2="1021.4" stroke="#e9dabe" stroke-width="16.8" stroke-linecap="round"/><circle cx="1095.1" cy="1021.4" r="16.8" fill="#c98f4e"/><line x1="1200" y1="1189.3" x2="1140.8" y2="982.8" stroke="#e9dabe" stroke-width="16.8" stroke-linecap="round"/><circle cx="1140.8" cy="982.8" r="16.8" fill="#c98f4e"/><line x1="1200" y1="1189.3" x2="1200" y2="957.7" stroke="#e9dabe" stroke-width="16.8" stroke-linecap="round"/><circle cx="1200" cy="957.7" r="16.8" fill="#c98f4e"/><line x1="1200" y1="1189.3" x2="1259.2" y2="982.8" stroke="#e9dabe" stroke-width="16.8" stroke-linecap="round"/><circle cx="1259.2" cy="982.8" r="16.8" fill="#c98f4e"/><line x1="1200" y1="1189.3" x2="1304.9" y2="1021.4" stroke="#e9dabe" stroke-width="16.8" stroke-linecap="round"/><circle cx="1304.9" cy="1021.4" r="16.8" fill="#c98f4e"/><line x1="1200" y1="1189.3" x2="1334.6" y2="1068" stroke="#e9dabe" stroke-width="16.8" stroke-linecap="round"/><circle cx="1334.6" cy="1068" r="16.8" fill="#c98f4e"/><line x1="1200" y1="1189.3" x2="1347.7" y2="1117.2" stroke="#e9dabe" stroke-width="16.8" stroke-linecap="round"/><circle cx="1347.7" cy="1117.2" r="16.8" fill="#c98f4e"/><line x1="1596" y1="1394.7" x2="1596" y2="1179.7" stroke="#e9dabe" stroke-width="23.4"/><line x1="1596" y1="1179.7" x2="1441.4" y2="1104.4" stroke="#e9dabe" stroke-width="17.6" stroke-linecap="round"/><circle cx="1441.4" cy="1104.4" r="17.6" fill="#c98f4e"/><line x1="1596" y1="1179.7" x2="1455.1" y2="1052.9" stroke="#e9dabe" stroke-width="17.6" stroke-linecap="round"/><circle cx="1455.1" cy="1052.9" r="17.6" fill="#c98f4e"/><line x1="1596" y1="1179.7" x2="1486.2" y2="1004.1" stroke="#e9dabe" stroke-width="17.6" stroke-linecap="round"/><circle cx="1486.2" cy="1004.1" r="17.6" fill="#c98f4e"/><line x1="1596" y1="1179.7" x2="1534.1" y2="963.7" stroke="#e9dabe" stroke-width="17.6" stroke-linecap="round"/><circle cx="1534.1" cy="963.7" r="17.6" fill="#c98f4e"/><line x1="1596" y1="1179.7" x2="1596" y2="937.4" stroke="#e9dabe" stroke-width="17.6" stroke-linecap="round"/><circle cx="1596" cy="937.4" r="17.6" fill="#c98f4e"/><line x1="1596" y1="1179.7" x2="1657.9" y2="963.7" stroke="#e9dabe" stroke-width="17.6" stroke-linecap="round"/><circle cx="1657.9" cy="963.7" r="17.6" fill="#c98f4e"/><line x1="1596" y1="1179.7" x2="1705.8" y2="1004.1" stroke="#e9dabe" stroke-width="17.6" stroke-linecap="round"/><circle cx="1705.8" cy="1004.1" r="17.6" fill="#c98f4e"/><line x1="1596" y1="1179.7" x2="1736.9" y2="1052.9" stroke="#e9dabe" stroke-width="17.6" stroke-linecap="round"/><circle cx="1736.9" cy="1052.9" r="17.6" fill="#c98f4e"/><line x1="1596" y1="1179.7" x2="1750.6" y2="1104.4" stroke="#e9dabe" stroke-width="17.6" stroke-linecap="round"/><circle cx="1750.6" cy="1104.4" r="17.6" fill="#c98f4e"/><line x1="1992" y1="1394.7" x2="1992" y2="1174.9" stroke="#e9dabe" stroke-width="24"/><line x1="1992" y1="1174.9" x2="1834" y2="1097.8" stroke="#e9dabe" stroke-width="18" stroke-linecap="round"/><circle cx="1834" cy="1097.8" r="18" fill="#c98f4e"/><line x1="1992" y1="1174.9" x2="1848" y2="1045.2" stroke="#e9dabe" stroke-width="18" stroke-linecap="round"/><circle cx="1848" cy="1045.2" r="18" fill="#c98f4e"/><line x1="1992" y1="1174.9" x2="1879.8" y2="995.3" stroke="#e9dabe" stroke-width="18" stroke-linecap="round"/><circle cx="1879.8" cy="995.3" r="18" fill="#c98f4e"/><line x1="1992" y1="1174.9" x2="1928.7" y2="954.1" stroke="#e9dabe" stroke-width="18" stroke-linecap="round"/><circle cx="1928.7" cy="954.1" r="18" fill="#c98f4e"/><line x1="1992" y1="1174.9" x2="1992" y2="927.2" stroke="#e9dabe" stroke-width="18" stroke-linecap="round"/><circle cx="1992" cy="927.2" r="18" fill="#c98f4e"/><line x1="1992" y1="1174.9" x2="2055.3" y2="954.1" stroke="#e9dabe" stroke-width="18" stroke-linecap="round"/><circle cx="2055.3" cy="954.1" r="18" fill="#c98f4e"/><line x1="1992" y1="1174.9" x2="2104.2" y2="995.3" stroke="#e9dabe" stroke-width="18" stroke-linecap="round"/><circle cx="2104.2" cy="995.3" r="18" fill="#c98f4e"/><line x1="1992" y1="1174.9" x2="2136" y2="1045.2" stroke="#e9dabe" stroke-width="18" stroke-linecap="round"/><circle cx="2136" cy="1045.2" r="18" fill="#c98f4e"/><line x1="1992" y1="1174.9" x2="2150" y2="1097.8" stroke="#e9dabe" stroke-width="18" stroke-linecap="round"/><circle cx="2150" cy="1097.8" r="18" fill="#c98f4e"/><path d="M0 0 Q 67.3 -104.6 0 -275.2 Q -67.3 -104.6 0 0 Z" fill="#e9dabe" opacity="1" transform="translate(408 1979.7) rotate(-58)"/><path d="M0 0 Q 67.3 -119.6 0 -314.7 Q -67.3 -119.6 0 0 Z" fill="#c98f4e" opacity="1" transform="translate(408 1979.7) rotate(-34.8)"/><path d="M0 0 Q 67.3 -134.6 0 -354.1 Q -67.3 -134.6 0 0 Z" fill="#e9dabe" opacity="1" transform="translate(408 1979.7) rotate(-11.6)"/><path d="M0 0 Q 67.3 -134.6 0 -354.1 Q -67.3 -134.6 0 0 Z" fill="#c98f4e" opacity="1" transform="translate(408 1979.7) rotate(11.6)"/><path d="M0 0 Q 67.3 -119.6 0 -314.7 Q -67.3 -119.6 0 0 Z" fill="#e9dabe" opacity="1" transform="translate(408 1979.7) rotate(34.8)"/><path d="M0 0 Q 67.3 -104.6 0 -275.2 Q -67.3 -104.6 0 0 Z" fill="#c98f4e" opacity="1" transform="translate(408 1979.7) rotate(58)"/><path d="M295.9,1979.7 Q408,2106.8 520.1,1979.7 Z" fill="#e9dabe"/><path d="M0 0 Q 59.7 -113.4 0 -298.4 Q -59.7 -113.4 0 0 Z" fill="#c98f4e" opacity="1" transform="translate(804 1979.7) rotate(0)"/><line x1="804" y1="1979.7" x2="804" y2="2026.5" stroke="#e9dabe" stroke-width="18.6"/><path d="M0 0 Q 68.4 -106.3 0 -279.6 Q -68.4 -106.3 0 0 Z" fill="#e9dabe" opacity="1" transform="translate(1200 1979.7) rotate(-58)"/><path d="M0 0 Q 68.4 -125.3 0 -329.7 Q -68.4 -125.3 0 0 Z" fill="#c98f4e" opacity="1" transform="translate(1200 1979.7) rotate(-29)"/><path d="M0 0 Q 68.4 -144.3 0 -379.7 Q -68.4 -144.3 0 0 Z" fill="#e9dabe" opacity="1" transform="translate(1200 1979.7) rotate(0)"/><path d="M0 0 Q 68.4 -125.3 0 -329.7 Q -68.4 -125.3 0 0 Z" fill="#c98f4e" opacity="1" transform="translate(1200 1979.7) rotate(29)"/><path d="M0 0 Q 68.4 -106.3 0 -279.6 Q -68.4 -106.3 0 0 Z" fill="#e9dabe" opacity="1" transform="translate(1200 1979.7) rotate(58)"/><path d="M1086.1,1979.7 Q1200,2108.8 1313.9,1979.7 Z" fill="#e9dabe"/><path d="M0 0 Q 58.5 -111.1 0 -292.5 Q -58.5 -111.1 0 0 Z" fill="#c98f4e" opacity="1" transform="translate(1596 1979.7) rotate(0)"/><line x1="1596" y1="1979.7" x2="1596" y2="2026.5" stroke="#e9dabe" stroke-width="18.3"/><path d="M0 0 Q 70.3 -109.2 0 -287.5 Q -70.3 -109.2 0 0 Z" fill="#e9dabe" opacity="1" transform="translate(1992 1979.7) rotate(-58)"/><path d="M0 0 Q 70.3 -122.3 0 -321.8 Q -70.3 -122.3 0 0 Z" fill="#c98f4e" opacity="1" transform="translate(1992 1979.7) rotate(-38.7)"/><path d="M0 0 Q 70.3 -135.3 0 -356.1 Q -70.3 -135.3 0 0 Z" fill="#e9dabe" opacity="1" transform="translate(1992 1979.7) rotate(-19.3)"/><path d="M0 0 Q 70.3 -148.3 0 -390.4 Q -70.3 -148.3 0 0 Z" fill="#c98f4e" opacity="1" transform="translate(1992 1979.7) rotate(0)"/><path d="M0 0 Q 70.3 -135.3 0 -356.1 Q -70.3 -135.3 0 0 Z" fill="#e9dabe" opacity="1" transform="translate(1992 1979.7) rotate(19.3)"/><path d="M0 0 Q 70.3 -122.3 0 -321.8 Q -70.3 -122.3 0 0 Z" fill="#c98f4e" opacity="1" transform="translate(1992 1979.7) rotate(38.7)"/><path d="M0 0 Q 70.3 -109.2 0 -287.5 Q -70.3 -109.2 0 0 Z" fill="#e9dabe" opacity="1" transform="translate(1992 1979.7) rotate(58)"/><path d="M1874.9,1979.7 Q1992,2112.4 2109.1,1979.7 Z" fill="#e9dabe"/><line x1="457.5" y1="2564.7" x2="457.5" y2="2357" stroke="#e9dabe" stroke-width="22.7"/><line x1="457.5" y1="2357" x2="308.2" y2="2284.2" stroke="#e9dabe" stroke-width="17" stroke-linecap="round"/><circle cx="308.2" cy="2284.2" r="17" fill="#c98f4e"/><line x1="457.5" y1="2357" x2="321.4" y2="2234.4" stroke="#e9dabe" stroke-width="17" stroke-linecap="round"/><circle cx="321.4" cy="2234.4" r="17" fill="#c98f4e"/><line x1="457.5" y1="2357" x2="351.4" y2="2187.3" stroke="#e9dabe" stroke-width="17" stroke-linecap="round"/><circle cx="351.4" cy="2187.3" r="17" fill="#c98f4e"/><line x1="457.5" y1="2357" x2="397.6" y2="2148.3" stroke="#e9dabe" stroke-width="17" stroke-linecap="round"/><circle cx="397.6" cy="2148.3" r="17" fill="#c98f4e"/><line x1="457.5" y1="2357" x2="457.5" y2="2122.9" stroke="#e9dabe" stroke-width="17" stroke-linecap="round"/><circle cx="457.5" cy="2122.9" r="17" fill="#c98f4e"/><line x1="457.5" y1="2357" x2="517.4" y2="2148.3" stroke="#e9dabe" stroke-width="17" stroke-linecap="round"/><circle cx="517.4" cy="2148.3" r="17" fill="#c98f4e"/><line x1="457.5" y1="2357" x2="563.6" y2="2187.3" stroke="#e9dabe" stroke-width="17" stroke-linecap="round"/><circle cx="563.6" cy="2187.3" r="17" fill="#c98f4e"/><line x1="457.5" y1="2357" x2="593.6" y2="2234.4" stroke="#e9dabe" stroke-width="17" stroke-linecap="round"/><circle cx="593.6" cy="2234.4" r="17" fill="#c98f4e"/><line x1="457.5" y1="2357" x2="606.8" y2="2284.2" stroke="#e9dabe" stroke-width="17" stroke-linecap="round"/><circle cx="606.8" cy="2284.2" r="17" fill="#c98f4e"/><line x1="952.5" y1="2564.7" x2="952.5" y2="2362.7" stroke="#e9dabe" stroke-width="22"/><line x1="952.5" y1="2362.7" x2="807.3" y2="2291.9" stroke="#e9dabe" stroke-width="16.5" stroke-linecap="round"/><circle cx="807.3" cy="2291.9" r="16.5" fill="#c98f4e"/><line x1="952.5" y1="2362.7" x2="820.1" y2="2243.5" stroke="#e9dabe" stroke-width="16.5" stroke-linecap="round"/><circle cx="820.1" cy="2243.5" r="16.5" fill="#c98f4e"/><line x1="952.5" y1="2362.7" x2="849.3" y2="2197.6" stroke="#e9dabe" stroke-width="16.5" stroke-linecap="round"/><circle cx="849.3" cy="2197.6" r="16.5" fill="#c98f4e"/><line x1="952.5" y1="2362.7" x2="894.3" y2="2159.7" stroke="#e9dabe" stroke-width="16.5" stroke-linecap="round"/><circle cx="894.3" cy="2159.7" r="16.5" fill="#c98f4e"/><line x1="952.5" y1="2362.7" x2="952.5" y2="2135" stroke="#e9dabe" stroke-width="16.5" stroke-linecap="round"/><circle cx="952.5" cy="2135" r="16.5" fill="#c98f4e"/><line x1="952.5" y1="2362.7" x2="1010.7" y2="2159.7" stroke="#e9dabe" stroke-width="16.5" stroke-linecap="round"/><circle cx="1010.7" cy="2159.7" r="16.5" fill="#c98f4e"/><line x1="952.5" y1="2362.7" x2="1055.7" y2="2197.6" stroke="#e9dabe" stroke-width="16.5" stroke-linecap="round"/><circle cx="1055.7" cy="2197.6" r="16.5" fill="#c98f4e"/><line x1="952.5" y1="2362.7" x2="1084.9" y2="2243.5" stroke="#e9dabe" stroke-width="16.5" stroke-linecap="round"/><circle cx="1084.9" cy="2243.5" r="16.5" fill="#c98f4e"/><line x1="952.5" y1="2362.7" x2="1097.7" y2="2291.9" stroke="#e9dabe" stroke-width="16.5" stroke-linecap="round"/><circle cx="1097.7" cy="2291.9" r="16.5" fill="#c98f4e"/><line x1="1447.5" y1="2564.7" x2="1447.5" y2="2342.3" stroke="#e9dabe" stroke-width="24.3"/><line x1="1447.5" y1="2342.3" x2="1287.6" y2="2264.3" stroke="#e9dabe" stroke-width="18.2" stroke-linecap="round"/><circle cx="1287.6" cy="2264.3" r="18.2" fill="#c98f4e"/><line x1="1447.5" y1="2342.3" x2="1301.7" y2="2211" stroke="#e9dabe" stroke-width="18.2" stroke-linecap="round"/><circle cx="1301.7" cy="2211" r="18.2" fill="#c98f4e"/><line x1="1447.5" y1="2342.3" x2="1333.9" y2="2160.5" stroke="#e9dabe" stroke-width="18.2" stroke-linecap="round"/><circle cx="1333.9" cy="2160.5" r="18.2" fill="#c98f4e"/><line x1="1447.5" y1="2342.3" x2="1383.4" y2="2118.8" stroke="#e9dabe" stroke-width="18.2" stroke-linecap="round"/><circle cx="1383.4" cy="2118.8" r="18.2" fill="#c98f4e"/><line x1="1447.5" y1="2342.3" x2="1447.5" y2="2091.6" stroke="#e9dabe" stroke-width="18.2" stroke-linecap="round"/><circle cx="1447.5" cy="2091.6" r="18.2" fill="#c98f4e"/><line x1="1447.5" y1="2342.3" x2="1511.6" y2="2118.8" stroke="#e9dabe" stroke-width="18.2" stroke-linecap="round"/><circle cx="1511.6" cy="2118.8" r="18.2" fill="#c98f4e"/><line x1="1447.5" y1="2342.3" x2="1561.1" y2="2160.5" stroke="#e9dabe" stroke-width="18.2" stroke-linecap="round"/><circle cx="1561.1" cy="2160.5" r="18.2" fill="#c98f4e"/><line x1="1447.5" y1="2342.3" x2="1593.3" y2="2211" stroke="#e9dabe" stroke-width="18.2" stroke-linecap="round"/><circle cx="1593.3" cy="2211" r="18.2" fill="#c98f4e"/><line x1="1447.5" y1="2342.3" x2="1607.4" y2="2264.3" stroke="#e9dabe" stroke-width="18.2" stroke-linecap="round"/><circle cx="1607.4" cy="2264.3" r="18.2" fill="#c98f4e"/><line x1="1942.5" y1="2564.7" x2="1942.5" y2="2338" stroke="#e9dabe" stroke-width="24.7"/><line x1="1942.5" y1="2338" x2="1779.5" y2="2258.5" stroke="#e9dabe" stroke-width="18.5" stroke-linecap="round"/><circle cx="1779.5" cy="2258.5" r="18.5" fill="#c98f4e"/><line x1="1942.5" y1="2338" x2="1794" y2="2204.3" stroke="#e9dabe" stroke-width="18.5" stroke-linecap="round"/><circle cx="1794" cy="2204.3" r="18.5" fill="#c98f4e"/><line x1="1942.5" y1="2338" x2="1826.8" y2="2152.8" stroke="#e9dabe" stroke-width="18.5" stroke-linecap="round"/><circle cx="1826.8" cy="2152.8" r="18.5" fill="#c98f4e"/><line x1="1942.5" y1="2338" x2="1877.2" y2="2110.3" stroke="#e9dabe" stroke-width="18.5" stroke-linecap="round"/><circle cx="1877.2" cy="2110.3" r="18.5" fill="#c98f4e"/><line x1="1942.5" y1="2338" x2="1942.5" y2="2082.5" stroke="#e9dabe" stroke-width="18.5" stroke-linecap="round"/><circle cx="1942.5" cy="2082.5" r="18.5" fill="#c98f4e"/><line x1="1942.5" y1="2338" x2="2007.8" y2="2110.3" stroke="#e9dabe" stroke-width="18.5" stroke-linecap="round"/><circle cx="2007.8" cy="2110.3" r="18.5" fill="#c98f4e"/><line x1="1942.5" y1="2338" x2="2058.2" y2="2152.8" stroke="#e9dabe" stroke-width="18.5" stroke-linecap="round"/><circle cx="2058.2" cy="2152.8" r="18.5" fill="#c98f4e"/><line x1="1942.5" y1="2338" x2="2091" y2="2204.3" stroke="#e9dabe" stroke-width="18.5" stroke-linecap="round"/><circle cx="2091" cy="2204.3" r="18.5" fill="#c98f4e"/><line x1="1942.5" y1="2338" x2="2105.5" y2="2258.5" stroke="#e9dabe" stroke-width="18.5" stroke-linecap="round"/><circle cx="2105.5" cy="2258.5" r="18.5" fill="#c98f4e"/><rect x="100" y="100" width="2200" height="2800" fill="none" stroke="#e9dabe" stroke-width="9"/><rect x="142" y="142" width="2116" height="2716" fill="none" stroke="#e9dabe" stroke-width="3" opacity="0.65"/></svg></svg>