<svg xmlns="http://www.w3.org/2000/svg" width="2400" height="1800" viewBox="0 0 2400 1800"><rect width="2400" height="1800" fill="#e9e1d2"/><rect y="1430" width="2400" height="370" fill="#c8b190"/><line x1="120" y1="1430" x2="60" y2="1800" stroke="#00000018" stroke-width="6"/><line x1="380" y1="1430" x2="320" y2="1800" stroke="#00000018" stroke-width="6"/><line x1="640" y1="1430" x2="580" y2="1800" stroke="#00000018" stroke-width="6"/><line x1="900" y1="1430" x2="840" y2="1800" stroke="#00000018" stroke-width="6"/><line x1="1160" y1="1430" x2="1100" y2="1800" stroke="#00000018" stroke-width="6"/><line x1="1420" y1="1430" x2="1360" y2="1800" stroke="#00000018" stroke-width="6"/><line x1="1680" y1="1430" x2="1620" y2="1800" stroke="#00000018" stroke-width="6"/><line x1="1940" y1="1430" x2="1880" y2="1800" stroke="#00000018" stroke-width="6"/><line x1="2200" y1="1430" x2="2140" y2="1800" stroke="#00000018" stroke-width="6"/><rect y="1418" width="2400" height="16" fill="#d7cbb6"/><rect x="700" y="980" width="1000" height="460" rx="26" fill="#a87e57"/><rect x="660" y="1290" width="1080" height="210" rx="30" fill="#f1ebdf"/><rect x="660" y="1420" width="1080" height="120" rx="24" fill="#87681c" opacity="0.85"/><rect x="770" y="1180" width="300" height="150" rx="40" fill="#faf6ec"/><rect x="1330" y="1180" width="300" height="150" rx="40" fill="#233142"/><rect x="640" y="1530" width="1120" height="26" rx="12" fill="#a87e57"/><rect x="360" y="1260" width="240" height="220" rx="10" fill="#a87e57"/><rect x="380" y="1300" width="200" height="14" fill="#00000022"/><line x1="480" y1="1260" x2="480" y2="1130" stroke="#5a4632" stroke-width="12"/><path d="M410,1130 L550,1130 L520,1020 L440,1020 Z" fill="#87681c"/><path d="M2060,1520 Q 1910,1282.5 1835,1345" fill="none" stroke="#5d7052" stroke-width="20" stroke-linecap="round"/><path d="M2060,1520 Q 1960,1282.5 1910,1295" fill="none" stroke="#5d7052" stroke-width="20" stroke-linecap="round"/><path d="M2060,1520 Q 2010,1282.5 1985,1245" fill="none" stroke="#5d7052" stroke-width="20" stroke-linecap="round"/><path d="M2060,1520 Q 2060,1282.5 2060,1195" fill="none" stroke="#5d7052" stroke-width="20" stroke-linecap="round"/><path d="M2060,1520 Q 2110,1282.5 2135,1245" fill="none" stroke="#5d7052" stroke-width="20" stroke-linecap="round"/><path d="M2060,1520 Q 2160,1282.5 2210,1295" fill="none" stroke="#5d7052" stroke-width="20" stroke-linecap="round"/><path d="M2060,1520 Q 2210,1282.5 2285,1345" fill="none" stroke="#5d7052" stroke-width="20" stroke-linecap="round"/><path d="M1972.5,1520 L2147.5,1520 L2125,1657.5 L1995,1657.5 Z" fill="#a9714d"/><defs><filter id="a37b-sh" x="-30%" y="-30%" width="160%" height="160%"><feGaussianBlur stdDeviation="16"/></filter></defs><rect x="928" y="246" width="572" height="702" fill="#000" opacity="0.28" filter="url(#a37b-sh)"/><rect x="914" y="224" width="572" height="702" fill="#4a3d2f"/><rect x="930.9" y="240.9" width="538.2" height="668.2" fill="none" stroke="#00000055" stroke-width="3"/><rect x="940" y="250" width="520" height="650" fill="#f6f2ea"/><svg x="979" y="289" width="442" height="572" viewBox="0 0 2400 3000" preserveAspectRatio="xMidYMid slice"><rect width="2400" height="3000" fill="#141b25"/><radialGradient id="a37-vig" cx="50%" cy="42%" r="80%"><stop offset="55%" stop-color="#000" stop-opacity="0"/><stop offset="100%" stop-color="#000" stop-opacity="0.15"/></radialGradient><rect width="2400" height="3000" fill="url(#a37-vig)"/><circle cx="119.1" cy="2594.2" r="4.3" fill="#c9a227" opacity="0.041"/><circle cx="1294" cy="1942.3" r="2.8" fill="#c9a227" opacity="0.040"/><circle cx="2064.4" cy="2604.7" r="3.3" fill="#c9a227" opacity="0.076"/><circle cx="306.3" cy="2783.7" r="4" fill="#c9a227" opacity="0.069"/><circle cx="1488.2" cy="2769.4" r="1.5" fill="#c9a227" opacity="0.067"/><circle cx="899.6" cy="1089" r="3.2" fill="#c9a227" opacity="0.076"/><circle cx="2358.8" cy="653.7" r="2" fill="#c9a227" opacity="0.059"/><circle cx="1660.3" cy="835.2" r="2.3" fill="#c9a227" opacity="0.052"/><circle cx="1172.4" cy="1741.3" r="2.2" fill="#c9a227" opacity="0.073"/><circle cx="1414.7" cy="2759.6" r="3.3" fill="#c9a227" opacity="0.075"/><circle cx="307.2" cy="1581.2" r="2.4" fill="#c9a227" opacity="0.057"/><circle cx="265.2" cy="2441" r="3.6" fill="#c9a227" opacity="0.072"/><circle cx="253.8" cy="40.1" r="2" fill="#c9a227" opacity="0.057"/><circle cx="2008" cy="589" r="3.5" fill="#c9a227" opacity="0.065"/><circle cx="1025.8" cy="345" r="2" fill="#c9a227" opacity="0.068"/><circle cx="1430.3" cy="775.7" r="3.6" fill="#c9a227" opacity="0.064"/><circle cx="1068" cy="1954.9" r="3.1" fill="#c9a227" opacity="0.032"/><circle cx="300.8" cy="1076.6" r="3.7" fill="#c9a227" opacity="0.034"/><circle cx="165.8" cy="843.1" r="2.1" fill="#c9a227" opacity="0.070"/><circle cx="1513.8" cy="924.4" r="4.2" fill="#c9a227" opacity="0.042"/><circle cx="1072" cy="824.4" r="1.9" fill="#c9a227" opacity="0.068"/><circle cx="1654.5" cy="232.5" r="3.2" fill="#c9a227" opacity="0.074"/><circle cx="226.9" cy="1221" r="2.2" fill="#c9a227" opacity="0.045"/><circle cx="1769.2" cy="2743.3" r="2.4" fill="#c9a227" opacity="0.042"/><circle cx="916.9" cy="1180.8" r="2.2" fill="#c9a227" opacity="0.058"/><circle cx="352.6" cy="2879.5" r="4.1" fill="#c9a227" opacity="0.048"/><circle cx="635.7" cy="343.6" r="3.1" fill="#c9a227" opacity="0.044"/><circle cx="1403.3" cy="1109.7" r="2.6" fill="#c9a227" opacity="0.071"/><circle cx="1247.8" cy="1360.6" r="3.7" fill="#c9a227" opacity="0.053"/><circle cx="1608.5" cy="1279.1" r="3.9" fill="#c9a227" opacity="0.063"/><circle cx="459.9" cy="103.7" r="2.6" fill="#c9a227" opacity="0.050"/><circle cx="1133" cy="262.6" r="3.7" fill="#c9a227" opacity="0.046"/><circle cx="2058.4" cy="830.6" r="2.6" fill="#c9a227" opacity="0.061"/><circle cx="1273.3" cy="2238" r="2.4" fill="#c9a227" opacity="0.052"/><circle cx="79.8" cy="2276.4" r="4.3" fill="#c9a227" opacity="0.038"/><circle cx="1923.8" cy="1458.4" r="3.6" fill="#c9a227" opacity="0.060"/><circle cx="1988.4" cy="2524.7" r="1.5" fill="#c9a227" opacity="0.078"/><circle cx="2270.7" cy="1435.1" r="2.5" fill="#c9a227" opacity="0.032"/><circle cx="1393.2" cy="1126.5" r="3.8" fill="#c9a227" opacity="0.056"/><circle cx="1739.7" cy="647.2" r="3.1" fill="#c9a227" opacity="0.057"/><circle cx="2255.1" cy="333.9" r="2.5" fill="#c9a227" opacity="0.074"/><circle cx="1688.3" cy="248.6" r="3" fill="#c9a227" opacity="0.064"/><circle cx="1593.9" cy="1204.2" r="2" fill="#c9a227" opacity="0.039"/><circle cx="278.6" cy="2691.9" r="2.5" fill="#c9a227" opacity="0.047"/><circle cx="93.7" cy="405.7" r="4.1" fill="#c9a227" opacity="0.035"/><circle cx="637.8" cy="579.7" r="3.7" fill="#c9a227" opacity="0.072"/><circle cx="1731.2" cy="1531.7" r="3.5" fill="#c9a227" opacity="0.031"/><circle cx="1772" cy="359" r="1.6" fill="#c9a227" opacity="0.048"/><circle cx="1524.6" cy="2622.3" r="4.4" fill="#c9a227" opacity="0.053"/><circle cx="2215.3" cy="1017.5" r="4.3" fill="#c9a227" opacity="0.046"/><circle cx="786.3" cy="1249" r="2.1" fill="#c9a227" opacity="0.044"/><circle cx="2063.8" cy="421.8" r="1.7" fill="#c9a227" opacity="0.044"/><circle cx="1012.8" cy="127.1" r="2.8" fill="#c9a227" opacity="0.067"/><circle cx="354" cy="2215.8" r="4.4" fill="#c9a227" opacity="0.056"/><circle cx="1224.8" cy="2355.1" r="2.8" fill="#c9a227" opacity="0.079"/><circle cx="832.3" cy="244.5" r="2.6" fill="#c9a227" opacity="0.064"/><circle cx="2350.9" cy="2581" r="2.4" fill="#c9a227" opacity="0.057"/><circle cx="905.3" cy="1204.2" r="2.6" fill="#c9a227" opacity="0.033"/><circle cx="1325.2" cy="2382.4" r="2.8" fill="#c9a227" opacity="0.042"/><circle cx="1391.3" cy="1278.3" r="3" fill="#c9a227" opacity="0.045"/><circle cx="1396" cy="2858.7" r="2" fill="#c9a227" opacity="0.061"/><circle cx="1453.5" cy="1523.7" r="3.6" fill="#c9a227" opacity="0.057"/><circle cx="1865.6" cy="132.7" r="2.8" fill="#c9a227" opacity="0.059"/><circle cx="753" cy="2326.3" r="2.2" fill="#c9a227" opacity="0.047"/><circle cx="1513.4" cy="126.6" r="1.6" fill="#c9a227" opacity="0.067"/><circle cx="302.1" cy="287.3" r="3.2" fill="#c9a227" opacity="0.035"/><circle cx="434.8" cy="2892.9" r="2" fill="#c9a227" opacity="0.040"/><circle cx="1555.4" cy="2858.1" r="1.6" fill="#c9a227" opacity="0.047"/><circle cx="1127.3" cy="2851.2" r="2.4" fill="#c9a227" opacity="0.072"/><circle cx="995.2" cy="523.4" r="4" fill="#c9a227" opacity="0.031"/><circle cx="136.3" cy="845.3" r="4.5" fill="#c9a227" opacity="0.065"/><circle cx="1918.8" cy="799.7" r="4.2" fill="#c9a227" opacity="0.053"/><circle cx="1683.3" cy="1253.7" r="3" fill="#c9a227" opacity="0.058"/><circle cx="87.3" cy="1668.3" r="3" fill="#c9a227" opacity="0.069"/><circle cx="2242.6" cy="2001.5" r="2.9" fill="#c9a227" opacity="0.070"/><circle cx="2107.9" cy="2934.9" r="3.2" fill="#c9a227" opacity="0.057"/><circle cx="1301.7" cy="742.1" r="1.8" fill="#c9a227" opacity="0.030"/><circle cx="2242.2" cy="2524.1" r="2.4" fill="#c9a227" opacity="0.033"/><circle cx="1047.2" cy="2708.4" r="2.9" fill="#c9a227" opacity="0.077"/><circle cx="1298.4" cy="787.5" r="3.1" fill="#c9a227" opacity="0.038"/><clipPath id="a37-gz"><rect x="150" y="150" width="2100" height="2700"/></clipPath><g clip-path="url(#a37-gz)"><circle cx="1436.5" cy="798.8" r="407.2" fill="#87681c"/><path d="M150,2050 C 700,1910.7 1100,2189.3 1600,1966.4 S 2200,2105.7 2250,2030 L2250,2850 L150,2850 Z" fill="#c9a227" opacity="0.35"/><path d="M150,2270 C 700,2189.4 1100,2350.6 1600,2221.6 S 2200,2302.3 2250,2250 L2250,2850 L150,2850 Z" fill="#233142" opacity="0.9"/><path d="M150,2520 C 700,2396.8 1100,2643.2 1600,2446.1 S 2200,2569.3 2250,2500 L2250,2850 L150,2850 Z" fill="#c9a227" opacity="1"/><polygon points="698.1,1417 220,2130 814.5,2130" fill="#c9a227"/><polygon points="698.1,1417 814.5,2130 1176.2,2130" fill="#c9a227" opacity="0.6"/><polygon points="1209.9,1626.4 818.3,2130 1306.3,2130" fill="#c9a227"/><polygon points="1209.9,1626.4 1306.3,2130 1601.4,2130" fill="#c9a227" opacity="0.6"/><path d="M935.9,792.9 q 26,-24 52,0 q 26,-24 52,0" fill="none" stroke="#c9a227" stroke-width="8" stroke-linecap="round"/><path d="M622.2,735.1 q 26,-24 52,0 q 26,-24 52,0" fill="none" stroke="#c9a227" stroke-width="8" stroke-linecap="round"/><path d="M1097.7,632.2 q 26,-24 52,0 q 26,-24 52,0" fill="none" stroke="#c9a227" stroke-width="8" stroke-linecap="round"/></g><polyline points="240,2800 300,2740 360,2800 420,2740 480,2800 540,2740 600,2800 660,2740 720,2800 780,2740 840,2800 900,2740 960,2800 1020,2740 1080,2800 1140,2740 1200,2800 1260,2740 1320,2800 1380,2740 1440,2800 1500,2740 1560,2800 1620,2740 1680,2800 1740,2740 1800,2800 1860,2740 1920,2800 1980,2740 2040,2800 2100,2740 2160,2800 " fill="none" stroke="#c9a227" stroke-width="10.8" stroke-linejoin="miter"/><rect x="100" y="100" width="2200" height="2800" fill="none" stroke="#c9a227" stroke-width="9"/><rect x="142" y="142" width="2116" height="2716" fill="none" stroke="#c9a227" stroke-width="3" opacity="0.65"/></svg></svg>