<svg xmlns="http://www.w3.org/2000/svg" width="2400" height="1800" viewBox="0 0 2400 1800"><rect width="2400" height="1800" fill="#dfe4dc"/><rect y="1400" width="2400" height="400" fill="#c2a67e"/><line x1="60" y1="1400" x2="10" y2="1800" stroke="#00000015" stroke-width="5"/><line x1="260" y1="1400" x2="210" y2="1800" stroke="#00000015" stroke-width="5"/><line x1="460" y1="1400" x2="410" y2="1800" stroke="#00000015" stroke-width="5"/><line x1="660" y1="1400" x2="610" y2="1800" stroke="#00000015" stroke-width="5"/><line x1="860" y1="1400" x2="810" y2="1800" stroke="#00000015" stroke-width="5"/><line x1="1060" y1="1400" x2="1010" y2="1800" stroke="#00000015" stroke-width="5"/><line x1="1260" y1="1400" x2="1210" y2="1800" stroke="#00000015" stroke-width="5"/><line x1="1460" y1="1400" x2="1410" y2="1800" stroke="#00000015" stroke-width="5"/><line x1="1660" y1="1400" x2="1610" y2="1800" stroke="#00000015" stroke-width="5"/><line x1="1860" y1="1400" x2="1810" y2="1800" stroke="#00000015" stroke-width="5"/><line x1="2060" y1="1400" x2="2010" y2="1800" stroke="#00000015" stroke-width="5"/><line x1="2260" y1="1400" x2="2210" y2="1800" stroke="#00000015" stroke-width="5"/><rect x="180" y="260" width="900" height="620" fill="#8a6a48"/><rect x="215" y="295" width="830" height="550" fill="#41524a"/><line x1="280" y1="420" x2="760" y2="420" stroke="#ffffff66" stroke-width="9" stroke-linecap="round"/><line x1="280" y1="520" x2="620" y2="520" stroke="#ffffff44" stroke-width="9" stroke-linecap="round"/><circle cx="880" cy="560" r="90" fill="none" stroke="#ffffff55" stroke-width="8"/><rect x="215" y="845" width="830" height="22" fill="#6f5436"/><rect x="330" y="1240" width="640" height="60" rx="10" fill="#9c7449"/><rect x="370" y="1300" width="60" height="240" fill="#8a6540"/><rect x="870" y="1300" width="60" height="240" fill="#8a6540"/><rect x="430" y="1160" width="150" height="80" rx="8" fill="#8a4423"/><rect x="450" y="1120" width="150" height="40" rx="8" fill="#e0a077"/><circle cx="800" cy="1130" r="86" fill="#7fa3b8"/><path d="M760,1060 Q820,1100 780,1190 M740,1090 Q800,1120 850,1100" stroke="#5d8069" stroke-width="16" fill="none" stroke-linecap="round"/><circle cx="800" cy="1130" r="86" fill="none" stroke="#6b5233" stroke-width="7"/><line x1="800" y1="1216" x2="800" y2="1250" stroke="#6b5233" stroke-width="10"/><rect x="750" y="1244" width="100" height="14" rx="7" fill="#6b5233"/><rect x="1980" y="700" width="300" height="800" fill="#9c7449"/><rect x="2000" y="930" width="260" height="16" fill="#7c5a37"/><rect x="2020" y="790" width="36" height="140" fill="#b3502f"/><rect x="2066" y="802" width="36" height="128" fill="#39685c"/><rect x="2112" y="790" width="36" height="140" fill="#c9a227"/><rect x="2158" y="802" width="36" height="128" fill="#2c4661"/><rect x="2204" y="790" width="36" height="140" fill="#8a4423"/><rect x="2000" y="1180" width="260" height="16" fill="#7c5a37"/><rect x="2020" y="1040" width="36" height="140" fill="#39685c"/><rect x="2066" y="1052" width="36" height="128" fill="#c9a227"/><rect x="2112" y="1040" width="36" height="140" fill="#2c4661"/><rect x="2158" y="1052" width="36" height="128" fill="#8a4423"/><rect x="2204" y="1040" width="36" height="140" fill="#b3502f"/><rect x="2000" y="1430" width="260" height="16" fill="#7c5a37"/><rect x="2020" y="1290" width="36" height="140" fill="#c9a227"/><rect x="2066" y="1302" width="36" height="128" fill="#2c4661"/><rect x="2112" y="1290" width="36" height="140" fill="#8a4423"/><rect x="2158" y="1302" width="36" height="128" fill="#b3502f"/><rect x="2204" y="1290" width="36" height="140" fill="#39685c"/><defs><filter id="a179c-sh" x="-30%" y="-30%" width="160%" height="160%"><feGaussianBlur stdDeviation="16"/></filter></defs><rect x="1340.5" y="298.5" width="517" height="635" fill="#000" opacity="0.28" filter="url(#a179c-sh)"/><rect x="1326.5" y="276.5" width="517" height="635" fill="#3d342a"/><rect x="1341.8" y="291.8" width="486.4" height="604.5" fill="none" stroke="#00000055" stroke-width="3"/><rect x="1350" y="300" width="470" height="588" fill="#f6f2ea"/><svg x="1385.3" y="335.3" width="399.5" height="517.5" viewBox="0 0 2400 3000" preserveAspectRatio="xMidYMid slice"><rect width="2400" height="3000" fill="#c8703f"/><radialGradient id="a179-vig" cx="50%" cy="42%" r="80%"><stop offset="55%" stop-color="#000" stop-opacity="0"/><stop offset="100%" stop-color="#000" stop-opacity="0.15"/></radialGradient><rect width="2400" height="3000" fill="url(#a179-vig)"/><circle cx="1210.8" cy="1500.2" r="2" fill="#26160e" opacity="0.040"/><circle cx="1287.2" cy="583.6" r="3.6" fill="#26160e" opacity="0.072"/><circle cx="1000.2" cy="1959.1" r="4.4" fill="#26160e" opacity="0.046"/><circle cx="1858" cy="2391" r="2" fill="#26160e" opacity="0.049"/><circle cx="1363.9" cy="91.3" r="2.5" fill="#26160e" opacity="0.034"/><circle cx="1565.3" cy="542.2" r="3.2" fill="#26160e" opacity="0.065"/><circle cx="1359.8" cy="1312.6" r="2.8" fill="#26160e" opacity="0.055"/><circle cx="1933.4" cy="1651.9" r="1.7" fill="#26160e" opacity="0.038"/><circle cx="1590.8" cy="1994.8" r="2.2" fill="#26160e" opacity="0.053"/><circle cx="914.6" cy="2924.7" r="4.4" fill="#26160e" opacity="0.058"/><circle cx="2057" cy="610.8" r="3.8" fill="#26160e" opacity="0.041"/><circle cx="1986.2" cy="348.4" r="1.7" fill="#26160e" opacity="0.049"/><circle cx="1878.9" cy="434.5" r="4.1" fill="#26160e" opacity="0.058"/><circle cx="1368.3" cy="1313.2" r="4.4" fill="#26160e" opacity="0.034"/><circle cx="97.3" cy="103.3" r="2.4" fill="#26160e" opacity="0.061"/><circle cx="267.5" cy="1406.8" r="3.5" fill="#26160e" opacity="0.047"/><circle cx="1399" cy="679.1" r="2.7" fill="#26160e" opacity="0.049"/><circle cx="1254.1" cy="1068.3" r="2.6" fill="#26160e" opacity="0.075"/><circle cx="1040.3" cy="2697.6" r="1.6" fill="#26160e" opacity="0.053"/><circle cx="702.7" cy="2649.8" r="3.9" fill="#26160e" opacity="0.078"/><circle cx="861.7" cy="708" r="1.9" fill="#26160e" opacity="0.062"/><circle cx="826.8" cy="1349.3" r="4.4" fill="#26160e" opacity="0.031"/><circle cx="1747.9" cy="2218.6" r="4.4" fill="#26160e" opacity="0.067"/><circle cx="1238.5" cy="1575.9" r="1.5" fill="#26160e" opacity="0.042"/><circle cx="2088.9" cy="2568" r="3.5" fill="#26160e" opacity="0.057"/><circle cx="2321.1" cy="246" r="3.3" fill="#26160e" opacity="0.044"/><circle cx="1431" cy="339.2" r="3.3" fill="#26160e" opacity="0.053"/><circle cx="1898" cy="2888.3" r="3.4" fill="#26160e" opacity="0.032"/><circle cx="2238.8" cy="1856.9" r="2.1" fill="#26160e" opacity="0.057"/><circle cx="1755.1" cy="503.3" r="3" fill="#26160e" opacity="0.077"/><circle cx="1727.9" cy="1571.7" r="2.7" fill="#26160e" opacity="0.078"/><circle cx="1666.1" cy="1840.4" r="2" fill="#26160e" opacity="0.032"/><circle cx="951.9" cy="2661.8" r="2.2" fill="#26160e" opacity="0.054"/><circle cx="154.1" cy="1231.6" r="3.7" fill="#26160e" opacity="0.077"/><circle cx="1551.5" cy="2052.4" r="2.7" fill="#26160e" opacity="0.063"/><circle cx="1484.4" cy="61.2" r="2.7" fill="#26160e" opacity="0.032"/><circle cx="1509.9" cy="2830.4" r="1.8" fill="#26160e" opacity="0.069"/><circle cx="837.5" cy="479.4" r="4.3" fill="#26160e" opacity="0.032"/><circle cx="891.6" cy="1070.2" r="2.4" fill="#26160e" opacity="0.069"/><circle cx="1177.5" cy="2151.4" r="2.3" fill="#26160e" opacity="0.032"/><circle cx="1161" cy="119.4" r="3.5" fill="#26160e" opacity="0.066"/><circle cx="529.4" cy="2149.2" r="4" fill="#26160e" opacity="0.049"/><circle cx="1054.3" cy="1418.5" r="2.9" fill="#26160e" opacity="0.067"/><circle cx="112.8" cy="719.8" r="3" fill="#26160e" opacity="0.050"/><circle cx="1371.2" cy="1023.5" r="2.4" fill="#26160e" opacity="0.056"/><circle cx="2282" cy="2423.2" r="3.4" fill="#26160e" opacity="0.039"/><circle cx="367.7" cy="291.9" r="3.5" fill="#26160e" opacity="0.030"/><circle cx="1632.5" cy="1312.6" r="4.2" fill="#26160e" opacity="0.054"/><circle cx="1275.7" cy="178.3" r="3.5" fill="#26160e" opacity="0.035"/><circle cx="2136.9" cy="2383.2" r="4.1" fill="#26160e" opacity="0.077"/><circle cx="1367.4" cy="902" r="2.3" fill="#26160e" opacity="0.060"/><circle cx="1329.7" cy="588.8" r="3.2" fill="#26160e" opacity="0.069"/><circle cx="1390.2" cy="2929" r="3.6" fill="#26160e" opacity="0.035"/><circle cx="1568.2" cy="1211.6" r="2.7" fill="#26160e" opacity="0.044"/><circle cx="1538.3" cy="2946.7" r="1.9" fill="#26160e" opacity="0.073"/><circle cx="1497.5" cy="2708.3" r="3.7" fill="#26160e" opacity="0.078"/><circle cx="2065.6" cy="230.6" r="2.8" fill="#26160e" opacity="0.035"/><circle cx="1417.5" cy="1953.9" r="3.8" fill="#26160e" opacity="0.067"/><circle cx="473.2" cy="397.3" r="2.4" fill="#26160e" opacity="0.046"/><circle cx="1472.9" cy="1030.8" r="2.4" fill="#26160e" opacity="0.072"/><circle cx="2116.6" cy="1098.1" r="3.4" fill="#26160e" opacity="0.054"/><circle cx="1583.8" cy="145" r="2.8" fill="#26160e" opacity="0.069"/><circle cx="1305.2" cy="1950.3" r="3.1" fill="#26160e" opacity="0.079"/><circle cx="378.2" cy="2528.4" r="4" fill="#26160e" opacity="0.045"/><circle cx="1266" cy="2403.9" r="2.7" fill="#26160e" opacity="0.039"/><circle cx="2327.5" cy="1436.3" r="2.4" fill="#26160e" opacity="0.058"/><circle cx="1100" cy="487.7" r="3.9" fill="#26160e" opacity="0.059"/><circle cx="257.7" cy="2089.8" r="2.5" fill="#26160e" opacity="0.065"/><circle cx="2312.6" cy="1377.2" r="3.2" fill="#26160e" opacity="0.059"/><circle cx="148.8" cy="1649.8" r="2.8" fill="#26160e" opacity="0.044"/><circle cx="405.1" cy="1740" r="4.4" fill="#26160e" opacity="0.061"/><circle cx="1913.9" cy="1713.2" r="1.5" fill="#26160e" opacity="0.073"/><circle cx="2039.1" cy="2547.6" r="2.9" fill="#26160e" opacity="0.055"/><circle cx="494.8" cy="2895" r="3.9" fill="#26160e" opacity="0.071"/><circle cx="1318.3" cy="1313.3" r="3.4" fill="#26160e" opacity="0.065"/><circle cx="101.8" cy="1103.8" r="1.7" fill="#26160e" opacity="0.068"/><circle cx="1609.3" cy="455" r="2.3" fill="#26160e" opacity="0.049"/><circle cx="2359.6" cy="2344.4" r="4.3" fill="#26160e" opacity="0.048"/><circle cx="1571.6" cy="372" r="2.5" fill="#26160e" opacity="0.032"/><circle cx="598" cy="1463.1" r="4" fill="#26160e" opacity="0.044"/><rect x="190" y="190" width="2020" height="2620" fill="none" stroke="#26160e" stroke-width="14"/><rect x="260" y="260" width="1880" height="2480" fill="none" stroke="#26160e" stroke-width="7"/><rect x="148" y="148" width="84" height="84" fill="#8a4423"/><rect x="148" y="2768" width="84" height="84" fill="#8a4423"/><rect x="2168" y="148" width="84" height="84" fill="#8a4423"/><rect x="2168" y="2768" width="84" height="84" fill="#8a4423"/><path d="M1070,2120 L1100,1260 L1300,1260 L1330,2120 Z" fill="#26160e"/><rect x="900" y="1200" width="600" height="86" rx="30" fill="#26160e"/><line x1="930" y1="1243" x2="1470" y2="1243" stroke="#8a4423" stroke-width="14"/><rect x="934" y="1050" width="532" height="86" rx="30" fill="#26160e"/><line x1="964" y1="1093" x2="1436" y2="1093" stroke="#8a4423" stroke-width="14"/><rect x="968" y="900" width="464" height="86" rx="30" fill="#26160e"/><line x1="998" y1="943" x2="1402" y2="943" stroke="#8a4423" stroke-width="14"/><rect x="1002" y="750" width="396" height="86" rx="30" fill="#26160e"/><line x1="1032" y1="793" x2="1368" y2="793" stroke="#8a4423" stroke-width="14"/><rect x="870" y="2120" width="660" height="90" fill="#26160e"/><line x1="1096" y1="1380" x2="1096" y2="2080" stroke="#8a4423" stroke-width="12" opacity="0.7"/><line x1="1148" y1="1380" x2="1148" y2="2080" stroke="#8a4423" stroke-width="12" opacity="0.7"/><line x1="1200" y1="1380" x2="1200" y2="2080" stroke="#8a4423" stroke-width="12" opacity="0.7"/><line x1="1252" y1="1380" x2="1252" y2="2080" stroke="#8a4423" stroke-width="12" opacity="0.7"/><line x1="1304" y1="1380" x2="1304" y2="2080" stroke="#8a4423" stroke-width="12" opacity="0.7"/><polygon points="1952.1,2482.8 1962.2,2508.3 1987.6,2518.3 1962.2,2528.4 1952.1,2553.8 1942.1,2528.4 1916.6,2518.3 1942.1,2508.3 " fill="#8a4423"/><polygon points="428.6,2547.6 439.6,2575.6 467.6,2586.6 439.6,2597.7 428.6,2625.6 417.6,2597.7 389.6,2586.6 417.6,2575.6 " fill="#8a4423"/><polygon points="630.4,2453.3 641,2480.2 667.9,2490.7 641,2501.3 630.4,2528.2 619.8,2501.3 593,2490.7 619.8,2480.2 " fill="#8a4423"/><polygon points="1464.8,2449.4 1477.1,2480.5 1508.2,2492.8 1477.1,2505.1 1464.8,2536.2 1452.5,2505.1 1421.4,2492.8 1452.5,2480.5 " fill="#8a4423"/><polygon points="1964.4,2576.9 1975.3,2604.5 2002.9,2615.4 1975.3,2626.3 1964.4,2654 1953.5,2626.3 1925.9,2615.4 1953.5,2604.5 " fill="#8a4423"/><polygon points="1421.8,484.8 1431,508.1 1454.3,517.3 1431,526.5 1421.8,549.7 1412.7,526.5 1389.4,517.3 1412.7,508.1 " fill="#8a4423"/><rect x="100" y="100" width="2200" height="2800" fill="none" stroke="#26160e" stroke-width="9"/><rect x="142" y="142" width="2116" height="2716" fill="none" stroke="#26160e" stroke-width="3" opacity="0.65"/></svg></svg>