<svg xmlns="http://www.w3.org/2000/svg" width="2400" height="1800" viewBox="0 0 2400 1800"><rect width="2400" height="1800" fill="#e3dccd"/><rect x="160" y="240" width="560" height="1060" fill="none" stroke="#cabfa9" stroke-width="10"/><rect x="200" y="280" width="480" height="980" fill="none" stroke="#cabfa9" stroke-width="5"/><rect x="1680" y="240" width="560" height="1060" fill="none" stroke="#cabfa9" stroke-width="10"/><rect x="1720" y="280" width="480" height="980" fill="none" stroke="#cabfa9" stroke-width="5"/><rect y="1380" width="2400" height="420" fill="#a98f6d"/><line x1="0" y1="1380" x2="-70" y2="1800" stroke="#00000018" stroke-width="6"/><line x1="190" y1="1380" x2="120" y2="1800" stroke="#00000018" stroke-width="6"/><line x1="380" y1="1380" x2="310" y2="1800" stroke="#00000018" stroke-width="6"/><line x1="570" y1="1380" x2="500" y2="1800" stroke="#00000018" stroke-width="6"/><line x1="760" y1="1380" x2="690" y2="1800" stroke="#00000018" stroke-width="6"/><line x1="950" y1="1380" x2="880" y2="1800" stroke="#00000018" stroke-width="6"/><line x1="1140" y1="1380" x2="1070" y2="1800" stroke="#00000018" stroke-width="6"/><line x1="1330" y1="1380" x2="1260" y2="1800" stroke="#00000018" stroke-width="6"/><line x1="1520" y1="1380" x2="1450" y2="1800" stroke="#00000018" stroke-width="6"/><line x1="1710" y1="1380" x2="1640" y2="1800" stroke="#00000018" stroke-width="6"/><line x1="1900" y1="1380" x2="1830" y2="1800" stroke="#00000018" stroke-width="6"/><line x1="2090" y1="1380" x2="2020" y2="1800" stroke="#00000018" stroke-width="6"/><line x1="2280" y1="1380" x2="2210" y2="1800" stroke="#00000018" stroke-width="6"/><rect y="1364" width="2400" height="18" fill="#d3c8b2"/><path d="M700,1500 L1700,1500 L1860,1800 L540,1800 Z" fill="#a8792c" opacity="0.75"/><path d="M760,1540 L1640,1540 L1760,1760 L640,1760 Z" fill="none" stroke="#f4ecdd" stroke-width="10" opacity="0.8"/><rect x="880" y="1180" width="640" height="40" rx="8" fill="#6f5436"/><rect x="920" y="1220" width="44" height="240" fill="#5e4629"/><rect x="1436" y="1220" width="44" height="240" fill="#5e4629"/><path d="M1160,1180 q -14,-90 40,-160 M1200,1180 q 4,-120 -10,-200 M1230,1180 q 30,-90 90,-130" stroke="#5d7052" stroke-width="12" fill="none" stroke-linecap="round"/><path d="M1150,1180 L1250,1180 L1230,1080 L1170,1080 Z" fill="#b09a6c" transform="translate(0,0)"/><path d="M1155,1060 h90 l-12,124 h-66 Z" fill="#b98a5a"/><rect x="1380" y="1120" width="18" height="60" fill="#8f6b3d"/><ellipse cx="1389" cy="1116" rx="16" ry="10" fill="#c9a227"/><defs><filter id="a176h-sh" x="-30%" y="-30%" width="160%" height="160%"><feGaussianBlur stdDeviation="16"/></filter></defs><rect x="950" y="258" width="528" height="648" fill="#000" opacity="0.28" filter="url(#a176h-sh)"/><rect x="936" y="236" width="528" height="648" fill="#33291f"/><rect x="951.6" y="251.6" width="496.8" height="616.8" fill="none" stroke="#00000055" stroke-width="3"/><rect x="960" y="260" width="480" height="600" fill="#f6f2ea"/><svg x="996" y="296" width="408" height="528" viewBox="0 0 2400 3000" preserveAspectRatio="xMidYMid slice"><filter id="a176-warp" x="-4%" y="-4%" width="108%" height="108%"><feTurbulence type="fractalNoise" baseFrequency="0.0105" numOctaves="2" seed="4890" result="w"/><feDisplacementMap in="SourceGraphic" in2="w" scale="11" xChannelSelector="R" yChannelSelector="G"/></filter><filter id="a176-grain" x="0%" y="0%" width="100%" height="100%"><feTurbulence type="fractalNoise" baseFrequency="0.6" numOctaves="2" seed="4897"/><feColorMatrix type="matrix" values="0.33 0.33 0.33 0 0.62  0.33 0.33 0.33 0 0.62  0.33 0.33 0.33 0 0.62  0 0 0 0 1"/></filter><filter id="a176-mottle" x="0%" y="0%" width="100%" height="100%"><feTurbulence type="fractalNoise" baseFrequency="0.0045" numOctaves="3" seed="4903"/><feColorMatrix type="matrix" values="0.2 0.2 0.2 0 0.78  0.2 0.2 0.2 0 0.78  0.2 0.2 0.2 0 0.78  0 0 0 0 1"/></filter><filter id="a176-fade" x="0%" y="0%" width="100%" height="100%"><feTurbulence type="fractalNoise" baseFrequency="0.006" numOctaves="2" seed="4919"/><feColorMatrix type="matrix" values="0.3 0.3 0.3 0 -0.08  0.3 0.3 0.3 0 -0.08  0.3 0.3 0.3 0 -0.1  0 0 0 0 1"/></filter><filter id="a176-blur9"><feGaussianBlur stdDeviation="9"/></filter><radialGradient id="a176-vig" cx="50%" cy="44%" r="78%"><stop offset="52%" stop-color="#241a10" stop-opacity="0"/><stop offset="100%" stop-color="#241a10" stop-opacity="0.17"/></radialGradient><radialGradient id="a176-warm" cx="40%" cy="30%" r="85%"><stop offset="0%" stop-color="#e8c890" stop-opacity="0.14"/><stop offset="70%" stop-color="#e8c890" stop-opacity="0"/></radialGradient><rect width="2400" height="3000" fill="#d3ba8c"/><rect width="2400" height="3000" fill="url(#a176-warm)"/><rect x="0" width="42.8" height="3000" fill="#6b4e26" opacity="0.062"/><rect x="59.4" width="34.8" height="3000" fill="#6b4e26" opacity="0.090"/><rect x="107.8" width="28.7" height="3000" fill="#6b4e26" opacity="0.039"/><rect x="147.6" width="33" height="3000" fill="#6b4e26" opacity="0.085"/><rect x="193.5" width="42.1" height="3000" fill="#6b4e26" opacity="0.044"/><rect x="252" width="36.7" height="3000" fill="#6b4e26" opacity="0.039"/><rect x="302.9" width="31.6" height="3000" fill="#6b4e26" opacity="0.079"/><rect x="346.8" width="41.1" height="3000" fill="#6b4e26" opacity="0.061"/><rect x="403.9" width="36.6" height="3000" fill="#6b4e26" opacity="0.081"/><rect x="454.8" width="30" height="3000" fill="#6b4e26" opacity="0.090"/><rect x="496.4" width="29" height="3000" fill="#6b4e26" opacity="0.099"/><rect x="536.7" width="23.3" height="3000" fill="#6b4e26" opacity="0.094"/><rect x="569" width="37.4" height="3000" fill="#6b4e26" opacity="0.040"/><rect x="621" width="30.9" height="3000" fill="#6b4e26" opacity="0.064"/><rect x="663.9" width="19.6" height="3000" fill="#6b4e26" opacity="0.090"/><rect x="691.1" width="26.4" height="3000" fill="#6b4e26" opacity="0.062"/><rect x="727.7" width="20.8" height="3000" fill="#6b4e26" opacity="0.085"/><rect x="756.7" width="26.4" height="3000" fill="#6b4e26" opacity="0.080"/><rect x="793.4" width="42.1" height="3000" fill="#6b4e26" opacity="0.043"/><rect x="851.9" width="40.1" height="3000" fill="#6b4e26" opacity="0.099"/><rect x="907.6" width="32.4" height="3000" fill="#6b4e26" opacity="0.095"/><rect x="952.5" width="22.7" height="3000" fill="#6b4e26" opacity="0.058"/><rect x="984" width="21.9" height="3000" fill="#6b4e26" opacity="0.061"/><rect x="1014.4" width="31.7" height="3000" fill="#6b4e26" opacity="0.036"/><rect x="1058.4" width="32.9" height="3000" fill="#6b4e26" opacity="0.037"/><rect x="1104.1" width="34" height="3000" fill="#6b4e26" opacity="0.030"/><rect x="1151.4" width="28.6" height="3000" fill="#6b4e26" opacity="0.084"/><rect x="1191.1" width="32.9" height="3000" fill="#6b4e26" opacity="0.082"/><rect x="1236.8" width="36.5" height="3000" fill="#6b4e26" opacity="0.097"/><rect x="1287.5" width="38.1" height="3000" fill="#6b4e26" opacity="0.087"/><rect x="1340.4" width="29.8" height="3000" fill="#6b4e26" opacity="0.038"/><rect x="1381.8" width="39.2" height="3000" fill="#6b4e26" opacity="0.067"/><rect x="1436.2" width="35.3" height="3000" fill="#6b4e26" opacity="0.052"/><rect x="1485.2" width="36.6" height="3000" fill="#6b4e26" opacity="0.083"/><rect x="1536" width="30.6" height="3000" fill="#6b4e26" opacity="0.067"/><rect x="1578.5" width="36.8" height="3000" fill="#6b4e26" opacity="0.096"/><rect x="1629.7" width="27.1" height="3000" fill="#6b4e26" opacity="0.093"/><rect x="1667.3" width="21" height="3000" fill="#6b4e26" opacity="0.032"/><rect x="1696.5" width="41" height="3000" fill="#6b4e26" opacity="0.043"/><rect x="1753.5" width="32.5" height="3000" fill="#6b4e26" opacity="0.050"/><rect x="1798.6" width="21" height="3000" fill="#6b4e26" opacity="0.093"/><rect x="1827.8" width="26.7" height="3000" fill="#6b4e26" opacity="0.061"/><rect x="1865" width="27.4" height="3000" fill="#6b4e26" opacity="0.036"/><rect x="1903" width="28" height="3000" fill="#6b4e26" opacity="0.088"/><rect x="1941.9" width="27.8" height="3000" fill="#6b4e26" opacity="0.033"/><rect x="1980.5" width="24.2" height="3000" fill="#6b4e26" opacity="0.088"/><rect x="2014.1" width="28" height="3000" fill="#6b4e26" opacity="0.091"/><rect x="2053" width="27.7" height="3000" fill="#6b4e26" opacity="0.077"/><rect x="2091.5" width="22.1" height="3000" fill="#6b4e26" opacity="0.084"/><rect x="2122.2" width="20.3" height="3000" fill="#6b4e26" opacity="0.083"/><rect x="2150.5" width="19.8" height="3000" fill="#6b4e26" opacity="0.042"/><rect x="2178" width="40.5" height="3000" fill="#6b4e26" opacity="0.042"/><rect x="2234.3" width="42.5" height="3000" fill="#6b4e26" opacity="0.096"/><rect x="2293.3" width="34" height="3000" fill="#6b4e26" opacity="0.046"/><rect x="2340.5" width="29.5" height="3000" fill="#6b4e26" opacity="0.087"/><rect x="2381.5" width="19.5" height="3000" fill="#6b4e26" opacity="0.063"/><rect y="0" width="2400" height="20.5" fill="#7c5c30" opacity="0.021"/><rect y="34.2" width="2400" height="27.8" fill="#7c5c30" opacity="0.040"/><rect y="80.5" width="2400" height="27.2" fill="#7c5c30" opacity="0.022"/><rect y="125.8" width="2400" height="26.6" fill="#7c5c30" opacity="0.044"/><rect y="170.2" width="2400" height="26.2" fill="#7c5c30" opacity="0.038"/><rect y="213.8" width="2400" height="25.7" fill="#7c5c30" opacity="0.032"/><rect y="256.6" width="2400" height="28.6" fill="#7c5c30" opacity="0.057"/><rect y="304.2" width="2400" height="13.5" fill="#7c5c30" opacity="0.042"/><rect y="326.6" width="2400" height="15.2" fill="#7c5c30" opacity="0.046"/><rect y="352" width="2400" height="14.6" fill="#7c5c30" opacity="0.035"/><rect y="376.3" width="2400" height="21.9" fill="#7c5c30" opacity="0.034"/><rect y="412.8" width="2400" height="12.7" fill="#7c5c30" opacity="0.022"/><rect y="433.9" width="2400" height="12.2" fill="#7c5c30" opacity="0.057"/><rect y="454.2" width="2400" height="21" fill="#7c5c30" opacity="0.049"/><rect y="489.2" width="2400" height="24.3" fill="#7c5c30" opacity="0.053"/><rect y="529.7" width="2400" height="21.9" fill="#7c5c30" opacity="0.052"/><rect y="566.1" width="2400" height="23.2" fill="#7c5c30" opacity="0.038"/><rect y="604.8" width="2400" height="26.5" fill="#7c5c30" opacity="0.059"/><rect y="649" width="2400" height="25.5" fill="#7c5c30" opacity="0.021"/><rect y="691.5" width="2400" height="27" fill="#7c5c30" opacity="0.052"/><rect y="736.4" width="2400" height="15.4" fill="#7c5c30" opacity="0.034"/><rect y="762.1" width="2400" height="23.6" fill="#7c5c30" opacity="0.036"/><rect y="801.3" width="2400" height="21.5" fill="#7c5c30" opacity="0.029"/><rect y="837.1" width="2400" height="13.3" fill="#7c5c30" opacity="0.040"/><rect y="859.4" width="2400" height="21.3" fill="#7c5c30" opacity="0.047"/><rect y="894.9" width="2400" height="23.2" fill="#7c5c30" opacity="0.045"/><rect y="933.6" width="2400" height="19.4" fill="#7c5c30" opacity="0.044"/><rect y="965.9" width="2400" height="15.3" fill="#7c5c30" opacity="0.031"/><rect y="991.4" width="2400" height="22.6" fill="#7c5c30" opacity="0.047"/><rect y="1029" width="2400" height="23.3" fill="#7c5c30" opacity="0.049"/><rect y="1067.9" width="2400" height="27.6" fill="#7c5c30" opacity="0.035"/><rect y="1113.9" width="2400" height="23.3" fill="#7c5c30" opacity="0.023"/><rect y="1152.7" width="2400" height="12.4" fill="#7c5c30" opacity="0.053"/><rect y="1173.4" width="2400" height="28.4" fill="#7c5c30" opacity="0.028"/><rect y="1220.7" width="2400" height="22.5" fill="#7c5c30" opacity="0.043"/><rect y="1258.2" width="2400" height="27.7" fill="#7c5c30" opacity="0.043"/><rect y="1304.3" width="2400" height="18.7" fill="#7c5c30" opacity="0.043"/><rect y="1335.5" width="2400" height="16.4" fill="#7c5c30" opacity="0.043"/><rect y="1362.9" width="2400" height="14.6" fill="#7c5c30" opacity="0.040"/><rect y="1387.2" width="2400" height="17.3" fill="#7c5c30" opacity="0.050"/><rect y="1416.1" width="2400" height="25.4" fill="#7c5c30" opacity="0.051"/><rect y="1458.4" width="2400" height="14.6" fill="#7c5c30" opacity="0.025"/><rect y="1482.7" width="2400" height="27.1" fill="#7c5c30" opacity="0.042"/><rect y="1527.8" width="2400" height="28.6" fill="#7c5c30" opacity="0.057"/><rect y="1575.6" width="2400" height="22.4" fill="#7c5c30" opacity="0.045"/><rect y="1612.9" width="2400" height="21.1" fill="#7c5c30" opacity="0.038"/><rect y="1648" width="2400" height="24.1" fill="#7c5c30" opacity="0.053"/><rect y="1688.2" width="2400" height="13.2" fill="#7c5c30" opacity="0.032"/><rect y="1710.1" width="2400" height="13.3" fill="#7c5c30" opacity="0.057"/><rect y="1732.2" width="2400" height="20.6" fill="#7c5c30" opacity="0.038"/><rect y="1766.5" width="2400" height="12.9" fill="#7c5c30" opacity="0.056"/><rect y="1788" width="2400" height="25.8" fill="#7c5c30" opacity="0.040"/><rect y="1830.9" width="2400" height="21.3" fill="#7c5c30" opacity="0.038"/><rect y="1866.5" width="2400" height="16.4" fill="#7c5c30" opacity="0.042"/><rect y="1893.8" width="2400" height="25.3" fill="#7c5c30" opacity="0.027"/><rect y="1935.9" width="2400" height="13.7" fill="#7c5c30" opacity="0.059"/><rect y="1958.7" width="2400" height="23.5" fill="#7c5c30" opacity="0.049"/><rect y="1997.8" width="2400" height="12.3" fill="#7c5c30" opacity="0.020"/><rect y="2018.2" width="2400" height="17" fill="#7c5c30" opacity="0.059"/><rect y="2046.6" width="2400" height="25.6" fill="#7c5c30" opacity="0.034"/><rect y="2089.3" width="2400" height="28.5" fill="#7c5c30" opacity="0.047"/><rect y="2136.8" width="2400" height="26.5" fill="#7c5c30" opacity="0.055"/><rect y="2180.9" width="2400" height="15.7" fill="#7c5c30" opacity="0.049"/><rect y="2207.1" width="2400" height="15.4" fill="#7c5c30" opacity="0.027"/><rect y="2232.8" width="2400" height="16.1" fill="#7c5c30" opacity="0.057"/><rect y="2259.7" width="2400" height="22.1" fill="#7c5c30" opacity="0.024"/><rect y="2296.5" width="2400" height="24.9" fill="#7c5c30" opacity="0.040"/><rect y="2337.9" width="2400" height="28" fill="#7c5c30" opacity="0.021"/><rect y="2384.6" width="2400" height="18.8" fill="#7c5c30" opacity="0.057"/><rect y="2415.9" width="2400" height="24.8" fill="#7c5c30" opacity="0.049"/><rect y="2457.3" width="2400" height="13.9" fill="#7c5c30" opacity="0.032"/><rect y="2480.3" width="2400" height="17.9" fill="#7c5c30" opacity="0.051"/><rect y="2510.2" width="2400" height="24.9" fill="#7c5c30" opacity="0.029"/><rect y="2551.7" width="2400" height="17.8" fill="#7c5c30" opacity="0.022"/><rect y="2581.4" width="2400" height="22.4" fill="#7c5c30" opacity="0.037"/><rect y="2618.9" width="2400" height="28.2" fill="#7c5c30" opacity="0.022"/><rect y="2665.8" width="2400" height="22.9" fill="#7c5c30" opacity="0.053"/><rect y="2703.9" width="2400" height="25.4" fill="#7c5c30" opacity="0.059"/><rect y="2746.2" width="2400" height="15.6" fill="#7c5c30" opacity="0.047"/><rect y="2772.2" width="2400" height="28.7" fill="#7c5c30" opacity="0.055"/><rect y="2820" width="2400" height="13.4" fill="#7c5c30" opacity="0.033"/><rect y="2842.3" width="2400" height="22.6" fill="#7c5c30" opacity="0.029"/><rect y="2879.9" width="2400" height="22.1" fill="#7c5c30" opacity="0.038"/><rect y="2916.6" width="2400" height="16.1" fill="#7c5c30" opacity="0.044"/><rect y="2943.5" width="2400" height="15.7" fill="#7c5c30" opacity="0.035"/><rect y="2969.6" width="2400" height="18.2" fill="#7c5c30" opacity="0.050"/><rect y="3000" width="2400" height="20.3" fill="#7c5c30" opacity="0.050"/><g filter="url(#a176-warp)"><rect x="190" y="190" width="2020" height="2620" fill="none" stroke="#332d23" stroke-width="14"/><rect x="260" y="260" width="1880" height="2480" fill="none" stroke="#332d23" stroke-width="7"/><rect x="148" y="148" width="84" height="84" fill="#a8792c"/><rect x="148" y="2768" width="84" height="84" fill="#a8792c"/><rect x="2168" y="148" width="84" height="84" fill="#a8792c"/><rect x="2168" y="2768" width="84" height="84" fill="#a8792c"/><line x1="1200" y1="2180" x2="1200" y2="1480" stroke="#332d23" stroke-width="46"/><path d="M0 0 Q 115.2 -179.1 0 -471.3 Q -115.2 -179.1 0 0 Z" fill="#332d23" opacity="1" transform="translate(1200 1480) rotate(-58)"/><path d="M0 0 Q 115.2 -211.1 0 -555.6 Q -115.2 -211.1 0 0 Z" fill="#a8792c" opacity="1" transform="translate(1200 1480) rotate(-29)"/><path d="M0 0 Q 115.2 -243.2 0 -640 Q -115.2 -243.2 0 0 Z" fill="#332d23" opacity="1" transform="translate(1200 1480) rotate(0)"/><path d="M0 0 Q 115.2 -211.1 0 -555.6 Q -115.2 -211.1 0 0 Z" fill="#a8792c" opacity="1" transform="translate(1200 1480) rotate(29)"/><path d="M0 0 Q 115.2 -179.1 0 -471.3 Q -115.2 -179.1 0 0 Z" fill="#332d23" opacity="1" transform="translate(1200 1480) rotate(58)"/><path d="M1008,1480 Q1200,1697.6 1392,1480 Z" fill="#332d23"/><rect x="940" y="2180" width="520" height="70" fill="#332d23"/><circle cx="1200" cy="860" r="120" fill="#a8792c"/><polygon points="1288.9,2458.3 1296.4,2477.2 1315.2,2484.6 1296.4,2492 1288.9,2510.9 1281.5,2492 1262.7,2484.6 1281.5,2477.2 " fill="#a8792c"/><polygon points="738.7,2498.8 750.9,2529.6 781.7,2541.7 750.9,2553.9 738.7,2584.7 726.6,2553.9 695.8,2541.7 726.6,2529.6 " fill="#a8792c"/><polygon points="616.8,2545.8 626,2569.2 649.5,2578.5 626,2587.7 616.8,2611.1 607.6,2587.7 584.2,2578.5 607.6,2569.2 " fill="#a8792c"/><polygon points="1120.7,435.4 1131.6,463.2 1159.5,474.2 1131.6,485.1 1120.7,513 1109.7,485.1 1081.9,474.2 1109.7,463.2 " fill="#a8792c"/><polygon points="1418.8,475.6 1428.3,499.8 1452.5,509.3 1428.3,518.9 1418.8,543.1 1409.2,518.9 1385,509.3 1409.2,499.8 " fill="#a8792c"/><polygon points="1607.8,465.3 1617,488.4 1640.2,497.6 1617,506.7 1607.8,529.9 1598.7,506.7 1575.5,497.6 1598.7,488.4 " fill="#a8792c"/><rect x="120" y="120" width="2160" height="2760" fill="none" stroke="#332d23" stroke-width="6" opacity="0.85"/></g><rect width="2400" height="3000" filter="url(#a176-mottle)" style="mix-blend-mode:multiply" opacity="0.5"/><rect width="2400" height="3000" filter="url(#a176-fade)" style="mix-blend-mode:screen" opacity="0.55"/><rect width="2400" height="3000" filter="url(#a176-grain)" style="mix-blend-mode:multiply" opacity="0.32"/><ellipse cx="732.8" cy="1757.9" rx="129.9" ry="114.8" fill="#6b4a22" opacity="0.063" filter="url(#a176-blur9)"/><ellipse cx="1928" cy="2511.4" rx="292.5" ry="233" fill="#6b4a22" opacity="0.041" filter="url(#a176-blur9)"/><ellipse cx="341.1" cy="640.6" rx="288.1" ry="235.7" fill="#6b4a22" opacity="0.064" filter="url(#a176-blur9)"/><rect x="0" width="19.8" height="3000" fill="#fff2d0" opacity="0.017"/><rect x="39.7" width="20.4" height="3000" fill="#fff2d0" opacity="0.034"/><rect x="80.4" width="17.1" height="3000" fill="#fff2d0" opacity="0.033"/><rect x="114.6" width="16.2" height="3000" fill="#fff2d0" opacity="0.037"/><rect x="147" width="21.2" height="3000" fill="#fff2d0" opacity="0.029"/><rect x="189.4" width="34.3" height="3000" fill="#fff2d0" opacity="0.035"/><rect x="258" width="23.6" height="3000" fill="#fff2d0" opacity="0.020"/><rect x="305.3" width="31.3" height="3000" fill="#fff2d0" opacity="0.037"/><rect x="367.8" width="33" height="3000" fill="#fff2d0" opacity="0.027"/><rect x="433.8" width="21.2" height="3000" fill="#fff2d0" opacity="0.042"/><rect x="476.2" width="15.7" height="3000" fill="#fff2d0" opacity="0.038"/><rect x="507.6" width="20.1" height="3000" fill="#fff2d0" opacity="0.034"/><rect x="547.7" width="31.4" height="3000" fill="#fff2d0" opacity="0.029"/><rect x="610.6" width="25.1" height="3000" fill="#fff2d0" opacity="0.029"/><rect x="660.8" width="33.7" height="3000" fill="#fff2d0" opacity="0.037"/><rect x="728.2" width="15.3" height="3000" fill="#fff2d0" opacity="0.032"/><rect x="758.8" width="22.7" height="3000" fill="#fff2d0" opacity="0.040"/><rect x="804.1" width="26.1" height="3000" fill="#fff2d0" opacity="0.039"/><rect x="856.4" width="29.4" height="3000" fill="#fff2d0" opacity="0.032"/><rect x="915.1" width="28.1" height="3000" fill="#fff2d0" opacity="0.023"/><rect x="971.2" width="28.6" height="3000" fill="#fff2d0" opacity="0.020"/><rect x="1028.3" width="31.3" height="3000" fill="#fff2d0" opacity="0.019"/><rect x="1090.8" width="29.1" height="3000" fill="#fff2d0" opacity="0.021"/><rect x="1149" width="22.1" height="3000" fill="#fff2d0" opacity="0.020"/><rect x="1193.2" width="30.3" height="3000" fill="#fff2d0" opacity="0.042"/><rect x="1253.7" width="22.9" height="3000" fill="#fff2d0" opacity="0.024"/><rect x="1299.6" width="16.7" height="3000" fill="#fff2d0" opacity="0.031"/><rect x="1332.9" width="24" height="3000" fill="#fff2d0" opacity="0.017"/><rect x="1380.9" width="34.6" height="3000" fill="#fff2d0" opacity="0.023"/><rect x="1450.2" width="16.1" height="3000" fill="#fff2d0" opacity="0.044"/><rect x="1482.4" width="29.7" height="3000" fill="#fff2d0" opacity="0.029"/><rect x="1541.8" width="23.8" height="3000" fill="#fff2d0" opacity="0.032"/><rect x="1589.4" width="27.7" height="3000" fill="#fff2d0" opacity="0.031"/><rect x="1644.8" width="20.2" height="3000" fill="#fff2d0" opacity="0.035"/><rect x="1685.3" width="19.7" height="3000" fill="#fff2d0" opacity="0.022"/><rect x="1724.6" width="25.1" height="3000" fill="#fff2d0" opacity="0.045"/><rect x="1774.8" width="20.7" height="3000" fill="#fff2d0" opacity="0.018"/><rect x="1816.2" width="33" height="3000" fill="#fff2d0" opacity="0.021"/><rect x="1882.2" width="17.1" height="3000" fill="#fff2d0" opacity="0.043"/><rect x="1916.3" width="26.1" height="3000" fill="#fff2d0" opacity="0.034"/><rect x="1968.5" width="15.5" height="3000" fill="#fff2d0" opacity="0.033"/><rect x="1999.6" width="16.9" height="3000" fill="#fff2d0" opacity="0.034"/><rect x="2033.3" width="17.5" height="3000" fill="#fff2d0" opacity="0.027"/><rect x="2068.4" width="34.5" height="3000" fill="#fff2d0" opacity="0.034"/><rect x="2137.4" width="25.2" height="3000" fill="#fff2d0" opacity="0.045"/><rect x="2187.8" width="15.3" height="3000" fill="#fff2d0" opacity="0.034"/><rect x="2218.4" width="23.1" height="3000" fill="#fff2d0" opacity="0.034"/><rect x="2264.6" width="29.3" height="3000" fill="#fff2d0" opacity="0.026"/><rect x="2323.3" width="16.7" height="3000" fill="#fff2d0" opacity="0.026"/><rect x="2356.6" width="26.8" height="3000" fill="#fff2d0" opacity="0.022"/><linearGradient id="a176-er" x1="0" x2="1" y1="0" y2="0"><stop offset="0" stop-color="#3a2a12" stop-opacity="0.22"/><stop offset="1" stop-color="#3a2a12" stop-opacity="0"/></linearGradient><rect x="0" y="0" width="90" height="3000" fill="url(#a176-er)"/><linearGradient id="a176-el" x1="1" x2="0" y1="0" y2="0"><stop offset="0" stop-color="#3a2a12" stop-opacity="0.22"/><stop offset="1" stop-color="#3a2a12" stop-opacity="0"/></linearGradient><rect x="2310" y="0" width="90" height="3000" fill="url(#a176-el)"/><linearGradient id="a176-ed" x1="0" x2="0" y1="0" y2="1"><stop offset="0" stop-color="#3a2a12" stop-opacity="0.22"/><stop offset="1" stop-color="#3a2a12" stop-opacity="0"/></linearGradient><rect x="0" y="0" width="2400" height="90" fill="url(#a176-ed)"/><linearGradient id="a176-eu" x1="0" x2="0" y1="1" y2="0"><stop offset="0" stop-color="#3a2a12" stop-opacity="0.22"/><stop offset="1" stop-color="#3a2a12" stop-opacity="0"/></linearGradient><rect x="0" y="2910" width="2400" height="90" fill="url(#a176-eu)"/><circle cx="861.8" cy="2016.9" r="15.1" fill="#8a5a2e" opacity="0.128"/><circle cx="2027.3" cy="954.1" r="8.3" fill="#8a5a2e" opacity="0.045"/><circle cx="1597.4" cy="1659.2" r="11.5" fill="#8a5a2e" opacity="0.126"/><circle cx="546.4" cy="2338.1" r="6.5" fill="#8a5a2e" opacity="0.053"/><circle cx="1280.7" cy="2669.7" r="12.9" fill="#8a5a2e" opacity="0.105"/><circle cx="1229.9" cy="2186.2" r="9.8" fill="#8a5a2e" opacity="0.044"/><circle cx="964" cy="992.4" r="12.3" fill="#8a5a2e" opacity="0.057"/><circle cx="1692.6" cy="2812.1" r="13.7" fill="#8a5a2e" opacity="0.120"/><circle cx="596.3" cy="2051.6" r="13.5" fill="#8a5a2e" opacity="0.086"/><circle cx="1870.7" cy="1606" r="11.1" fill="#8a5a2e" opacity="0.066"/><circle cx="1154.1" cy="105" r="14.7" fill="#8a5a2e" opacity="0.064"/><circle cx="1196.4" cy="2037.3" r="8.5" fill="#8a5a2e" opacity="0.084"/><rect width="2400" height="3000" fill="url(#a176-vig)"/></svg></svg>