<svg xmlns="http://www.w3.org/2000/svg" width="2400" height="1800" viewBox="0 0 2400 1800"><rect width="2400" height="1800" fill="#e9e1d2"/><rect y="1430" width="2400" height="370" fill="#c8b190"/><line x1="120" y1="1430" x2="60" y2="1800" stroke="#00000018" stroke-width="6"/><line x1="380" y1="1430" x2="320" y2="1800" stroke="#00000018" stroke-width="6"/><line x1="640" y1="1430" x2="580" y2="1800" stroke="#00000018" stroke-width="6"/><line x1="900" y1="1430" x2="840" y2="1800" stroke="#00000018" stroke-width="6"/><line x1="1160" y1="1430" x2="1100" y2="1800" stroke="#00000018" stroke-width="6"/><line x1="1420" y1="1430" x2="1360" y2="1800" stroke="#00000018" stroke-width="6"/><line x1="1680" y1="1430" x2="1620" y2="1800" stroke="#00000018" stroke-width="6"/><line x1="1940" y1="1430" x2="1880" y2="1800" stroke="#00000018" stroke-width="6"/><line x1="2200" y1="1430" x2="2140" y2="1800" stroke="#00000018" stroke-width="6"/><rect y="1418" width="2400" height="16" fill="#d7cbb6"/><rect x="700" y="980" width="1000" height="460" rx="26" fill="#a87e57"/><rect x="660" y="1290" width="1080" height="210" rx="30" fill="#f1ebdf"/><rect x="660" y="1420" width="1080" height="120" rx="24" fill="#bda15a" opacity="0.85"/><rect x="770" y="1180" width="300" height="150" rx="40" fill="#faf6ec"/><rect x="1330" y="1180" width="300" height="150" rx="40" fill="#57674b"/><rect x="640" y="1530" width="1120" height="26" rx="12" fill="#a87e57"/><rect x="360" y="1260" width="240" height="220" rx="10" fill="#a87e57"/><rect x="380" y="1300" width="200" height="14" fill="#00000022"/><line x1="480" y1="1260" x2="480" y2="1130" stroke="#5a4632" stroke-width="12"/><path d="M410,1130 L550,1130 L520,1020 L440,1020 Z" fill="#bda15a"/><path d="M2060,1520 Q 1910,1282.5 1835,1345" fill="none" stroke="#5d7052" stroke-width="20" stroke-linecap="round"/><path d="M2060,1520 Q 1960,1282.5 1910,1295" fill="none" stroke="#5d7052" stroke-width="20" stroke-linecap="round"/><path d="M2060,1520 Q 2010,1282.5 1985,1245" fill="none" stroke="#5d7052" stroke-width="20" stroke-linecap="round"/><path d="M2060,1520 Q 2060,1282.5 2060,1195" fill="none" stroke="#5d7052" stroke-width="20" stroke-linecap="round"/><path d="M2060,1520 Q 2110,1282.5 2135,1245" fill="none" stroke="#5d7052" stroke-width="20" stroke-linecap="round"/><path d="M2060,1520 Q 2160,1282.5 2210,1295" fill="none" stroke="#5d7052" stroke-width="20" stroke-linecap="round"/><path d="M2060,1520 Q 2210,1282.5 2285,1345" fill="none" stroke="#5d7052" stroke-width="20" stroke-linecap="round"/><path d="M1972.5,1520 L2147.5,1520 L2125,1657.5 L1995,1657.5 Z" fill="#a9714d"/><defs><filter id="a152b-sh" x="-30%" y="-30%" width="160%" height="160%"><feGaussianBlur stdDeviation="16"/></filter></defs><rect x="928" y="246" width="572" height="702" fill="#000" opacity="0.28" filter="url(#a152b-sh)"/><rect x="914" y="224" width="572" height="702" fill="#4a3d2f"/><rect x="930.9" y="240.9" width="538.2" height="668.2" fill="none" stroke="#00000055" stroke-width="3"/><rect x="940" y="250" width="520" height="650" fill="#f6f2ea"/><svg x="979" y="289" width="442" height="572" viewBox="0 0 2400 3000" preserveAspectRatio="xMidYMid slice"><rect width="2400" height="3000" fill="#3d4a33"/><radialGradient id="a152-vig" cx="50%" cy="42%" r="80%"><stop offset="55%" stop-color="#000" stop-opacity="0"/><stop offset="100%" stop-color="#000" stop-opacity="0.15"/></radialGradient><rect width="2400" height="3000" fill="url(#a152-vig)"/><circle cx="453.5" cy="1127.2" r="4.4" fill="#e6ddc4" opacity="0.076"/><circle cx="1829" cy="1024" r="4" fill="#e6ddc4" opacity="0.041"/><circle cx="273.6" cy="1601.1" r="3.4" fill="#e6ddc4" opacity="0.064"/><circle cx="2085.4" cy="1195.4" r="2.2" fill="#e6ddc4" opacity="0.066"/><circle cx="757.4" cy="1990.6" r="2.4" fill="#e6ddc4" opacity="0.045"/><circle cx="664.5" cy="1524.2" r="2.6" fill="#e6ddc4" opacity="0.067"/><circle cx="2047.1" cy="1541.1" r="2.7" fill="#e6ddc4" opacity="0.056"/><circle cx="688.8" cy="749.3" r="3.7" fill="#e6ddc4" opacity="0.054"/><circle cx="1723.6" cy="2782.4" r="2.4" fill="#e6ddc4" opacity="0.041"/><circle cx="1714.6" cy="1912" r="1.9" fill="#e6ddc4" opacity="0.046"/><circle cx="2101" cy="952.7" r="4.1" fill="#e6ddc4" opacity="0.062"/><circle cx="994.5" cy="2173.6" r="3.2" fill="#e6ddc4" opacity="0.070"/><circle cx="555.2" cy="2562.8" r="2.3" fill="#e6ddc4" opacity="0.070"/><circle cx="633.8" cy="1506.9" r="2.2" fill="#e6ddc4" opacity="0.078"/><circle cx="1933.4" cy="1023" r="1.8" fill="#e6ddc4" opacity="0.041"/><circle cx="2101.4" cy="1485.4" r="2.5" fill="#e6ddc4" opacity="0.046"/><circle cx="544.4" cy="133" r="3.6" fill="#e6ddc4" opacity="0.077"/><circle cx="726.6" cy="1279.5" r="1.6" fill="#e6ddc4" opacity="0.040"/><circle cx="1648.5" cy="2047.1" r="4.4" fill="#e6ddc4" opacity="0.055"/><circle cx="687" cy="1124.3" r="1.5" fill="#e6ddc4" opacity="0.063"/><circle cx="919.7" cy="2040.8" r="2.7" fill="#e6ddc4" opacity="0.077"/><circle cx="125.3" cy="2251.4" r="3.6" fill="#e6ddc4" opacity="0.072"/><circle cx="2130.4" cy="398.1" r="3.9" fill="#e6ddc4" opacity="0.057"/><circle cx="2104.6" cy="2533.8" r="3.8" fill="#e6ddc4" opacity="0.042"/><circle cx="1169.5" cy="651" r="1.7" fill="#e6ddc4" opacity="0.040"/><circle cx="540.2" cy="799" r="3.6" fill="#e6ddc4" opacity="0.045"/><circle cx="1307.1" cy="2867" r="4.2" fill="#e6ddc4" opacity="0.036"/><circle cx="1120.2" cy="1684.5" r="2.3" fill="#e6ddc4" opacity="0.034"/><circle cx="2146.5" cy="1158" r="3.3" fill="#e6ddc4" opacity="0.059"/><circle cx="272.3" cy="414.2" r="4" fill="#e6ddc4" opacity="0.069"/><circle cx="1922.7" cy="1964.9" r="3.1" fill="#e6ddc4" opacity="0.037"/><circle cx="1462" cy="1856.7" r="2.4" fill="#e6ddc4" opacity="0.034"/><circle cx="1090.2" cy="2521.2" r="2" fill="#e6ddc4" opacity="0.072"/><circle cx="911.1" cy="2043.7" r="3.1" fill="#e6ddc4" opacity="0.069"/><circle cx="642" cy="527.7" r="3.3" fill="#e6ddc4" opacity="0.039"/><circle cx="643.1" cy="66.3" r="2.2" fill="#e6ddc4" opacity="0.045"/><circle cx="59.4" cy="957.7" r="1.6" fill="#e6ddc4" opacity="0.043"/><circle cx="1030.7" cy="2683.9" r="2.4" fill="#e6ddc4" opacity="0.064"/><circle cx="2276.2" cy="2801.5" r="3.3" fill="#e6ddc4" opacity="0.037"/><circle cx="1788.9" cy="1611.2" r="3.2" fill="#e6ddc4" opacity="0.049"/><circle cx="148.6" cy="2775.1" r="1.6" fill="#e6ddc4" opacity="0.073"/><circle cx="64.4" cy="718.1" r="2.6" fill="#e6ddc4" opacity="0.076"/><circle cx="1076.5" cy="933.9" r="3" fill="#e6ddc4" opacity="0.080"/><circle cx="1264.5" cy="255" r="4.1" fill="#e6ddc4" opacity="0.050"/><circle cx="1327.6" cy="256" r="1.6" fill="#e6ddc4" opacity="0.054"/><circle cx="1888.3" cy="2454.6" r="3.7" fill="#e6ddc4" opacity="0.059"/><circle cx="1430.1" cy="265.7" r="3.4" fill="#e6ddc4" opacity="0.060"/><circle cx="1569.4" cy="1352.9" r="1.8" fill="#e6ddc4" opacity="0.043"/><circle cx="2045.8" cy="1715.3" r="4.4" fill="#e6ddc4" opacity="0.052"/><circle cx="953.7" cy="2289.7" r="1.6" fill="#e6ddc4" opacity="0.040"/><circle cx="894.7" cy="2646.5" r="3.5" fill="#e6ddc4" opacity="0.052"/><circle cx="2125.8" cy="144.1" r="2.9" fill="#e6ddc4" opacity="0.067"/><circle cx="987.9" cy="2621.9" r="2.3" fill="#e6ddc4" opacity="0.066"/><circle cx="1894.5" cy="1013.9" r="4.3" fill="#e6ddc4" opacity="0.032"/><circle cx="1943.2" cy="1471.8" r="2" fill="#e6ddc4" opacity="0.049"/><circle cx="926.9" cy="253.5" r="3.5" fill="#e6ddc4" opacity="0.062"/><circle cx="1070.7" cy="400.6" r="2.8" fill="#e6ddc4" opacity="0.056"/><circle cx="1551.9" cy="995.2" r="3.4" fill="#e6ddc4" opacity="0.072"/><circle cx="545.5" cy="1844.6" r="3.4" fill="#e6ddc4" opacity="0.074"/><circle cx="1802" cy="1113.7" r="2.5" fill="#e6ddc4" opacity="0.054"/><circle cx="2335.8" cy="229.9" r="3.8" fill="#e6ddc4" opacity="0.037"/><circle cx="2101.7" cy="663.9" r="2" fill="#e6ddc4" opacity="0.062"/><circle cx="760.2" cy="1745.2" r="1.8" fill="#e6ddc4" opacity="0.042"/><circle cx="1298.6" cy="2561.1" r="4.1" fill="#e6ddc4" opacity="0.038"/><circle cx="1257.3" cy="2196.7" r="3.7" fill="#e6ddc4" opacity="0.036"/><circle cx="1637.8" cy="2547.8" r="2.3" fill="#e6ddc4" opacity="0.075"/><circle cx="157.6" cy="281.7" r="1.7" fill="#e6ddc4" opacity="0.044"/><circle cx="1508.9" cy="727.5" r="3.9" fill="#e6ddc4" opacity="0.067"/><circle cx="1914.9" cy="1101.2" r="2" fill="#e6ddc4" opacity="0.063"/><circle cx="1195.4" cy="2387.7" r="1.9" fill="#e6ddc4" opacity="0.049"/><circle cx="52.2" cy="122.9" r="3.9" fill="#e6ddc4" opacity="0.045"/><circle cx="912.8" cy="1395.7" r="4" fill="#e6ddc4" opacity="0.043"/><circle cx="1719.7" cy="2812.9" r="1.6" fill="#e6ddc4" opacity="0.030"/><circle cx="52.7" cy="1119.3" r="4" fill="#e6ddc4" opacity="0.057"/><circle cx="1631.9" cy="2794.2" r="3.9" fill="#e6ddc4" opacity="0.048"/><circle cx="2300.8" cy="1187.9" r="2.5" fill="#e6ddc4" opacity="0.078"/><circle cx="708" cy="1729.8" r="3.1" fill="#e6ddc4" opacity="0.041"/><circle cx="1986.1" cy="2122.3" r="3.3" fill="#e6ddc4" opacity="0.070"/><circle cx="131.7" cy="2833.7" r="2" fill="#e6ddc4" opacity="0.042"/><circle cx="2288.2" cy="2888.8" r="3.2" fill="#e6ddc4" opacity="0.033"/><rect x="190" y="2434" width="2020" height="66" fill="#e6ddc4" opacity="1"/><rect x="250" y="2368" width="1900" height="66" fill="#e6ddc4" opacity="0.92"/><rect x="310" y="2302" width="1780" height="66" fill="#e6ddc4" opacity="0.84"/><rect x="316" y="1300" width="108" height="1002" fill="#e6ddc4"/><line x1="338.2" y1="1340" x2="338.2" y2="2288" stroke="#3d4a33" stroke-width="7" opacity="0.5"/><line x1="370" y1="1340" x2="370" y2="2288" stroke="#3d4a33" stroke-width="7" opacity="0.5"/><line x1="401.8" y1="1340" x2="401.8" y2="2288" stroke="#3d4a33" stroke-width="7" opacity="0.5"/><rect x="294" y="1260" width="152" height="40" fill="#e6ddc4"/><rect x="304" y="2298" width="132" height="30" fill="#e6ddc4"/><rect x="869.3" y="1300" width="108" height="1002" fill="#e6ddc4"/><line x1="891.6" y1="1340" x2="891.6" y2="2288" stroke="#3d4a33" stroke-width="7" opacity="0.5"/><line x1="923.3" y1="1340" x2="923.3" y2="2288" stroke="#3d4a33" stroke-width="7" opacity="0.5"/><line x1="955.1" y1="1340" x2="955.1" y2="2288" stroke="#3d4a33" stroke-width="7" opacity="0.5"/><rect x="847.3" y="1260" width="152" height="40" fill="#e6ddc4"/><rect x="857.3" y="2298" width="132" height="30" fill="#e6ddc4"/><rect x="1422.7" y="1300" width="108" height="1002" fill="#e6ddc4"/><line x1="1444.9" y1="1340" x2="1444.9" y2="2288" stroke="#3d4a33" stroke-width="7" opacity="0.5"/><line x1="1476.7" y1="1340" x2="1476.7" y2="2288" stroke="#3d4a33" stroke-width="7" opacity="0.5"/><line x1="1508.4" y1="1340" x2="1508.4" y2="2288" stroke="#3d4a33" stroke-width="7" opacity="0.5"/><rect x="1400.7" y="1260" width="152" height="40" fill="#e6ddc4"/><rect x="1410.7" y="2298" width="132" height="30" fill="#e6ddc4"/><rect x="1976" y="1300" width="108" height="1002" fill="#e6ddc4"/><line x1="1998.2" y1="1340" x2="1998.2" y2="2288" stroke="#3d4a33" stroke-width="7" opacity="0.5"/><line x1="2030" y1="1340" x2="2030" y2="2288" stroke="#3d4a33" stroke-width="7" opacity="0.5"/><line x1="2061.8" y1="1340" x2="2061.8" y2="2288" stroke="#3d4a33" stroke-width="7" opacity="0.5"/><rect x="1954" y="1260" width="152" height="40" fill="#e6ddc4"/><rect x="1964" y="2298" width="132" height="30" fill="#e6ddc4"/><rect x="240" y="1176" width="1920" height="84" fill="#e6ddc4"/><rect x="240" y="1046" width="1920" height="130" fill="#57674b"/><rect x="275" y="1064" width="18" height="94" fill="#e6ddc4"/><rect x="301" y="1064" width="18" height="94" fill="#e6ddc4"/><rect x="327" y="1064" width="18" height="94" fill="#e6ddc4"/><circle cx="421.3" cy="1111" r="30" fill="none" stroke="#e6ddc4" stroke-width="10"/><rect x="497.5" y="1064" width="18" height="94" fill="#e6ddc4"/><rect x="523.5" y="1064" width="18" height="94" fill="#e6ddc4"/><rect x="549.5" y="1064" width="18" height="94" fill="#e6ddc4"/><circle cx="643.8" cy="1111" r="30" fill="none" stroke="#e6ddc4" stroke-width="10"/><rect x="720" y="1064" width="18" height="94" fill="#e6ddc4"/><rect x="746" y="1064" width="18" height="94" fill="#e6ddc4"/><rect x="772" y="1064" width="18" height="94" fill="#e6ddc4"/><circle cx="866.3" cy="1111" r="30" fill="none" stroke="#e6ddc4" stroke-width="10"/><rect x="942.5" y="1064" width="18" height="94" fill="#e6ddc4"/><rect x="968.5" y="1064" width="18" height="94" fill="#e6ddc4"/><rect x="994.5" y="1064" width="18" height="94" fill="#e6ddc4"/><circle cx="1088.8" cy="1111" r="30" fill="none" stroke="#e6ddc4" stroke-width="10"/><rect x="1165" y="1064" width="18" height="94" fill="#e6ddc4"/><rect x="1191" y="1064" width="18" height="94" fill="#e6ddc4"/><rect x="1217" y="1064" width="18" height="94" fill="#e6ddc4"/><circle cx="1311.3" cy="1111" r="30" fill="none" stroke="#e6ddc4" stroke-width="10"/><rect x="1387.5" y="1064" width="18" height="94" fill="#e6ddc4"/><rect x="1413.5" y="1064" width="18" height="94" fill="#e6ddc4"/><rect x="1439.5" y="1064" width="18" height="94" fill="#e6ddc4"/><circle cx="1533.8" cy="1111" r="30" fill="none" stroke="#e6ddc4" stroke-width="10"/><rect x="1610" y="1064" width="18" height="94" fill="#e6ddc4"/><rect x="1636" y="1064" width="18" height="94" fill="#e6ddc4"/><rect x="1662" y="1064" width="18" height="94" fill="#e6ddc4"/><circle cx="1756.3" cy="1111" r="30" fill="none" stroke="#e6ddc4" stroke-width="10"/><rect x="1832.5" y="1064" width="18" height="94" fill="#e6ddc4"/><rect x="1858.5" y="1064" width="18" height="94" fill="#e6ddc4"/><rect x="1884.5" y="1064" width="18" height="94" fill="#e6ddc4"/><circle cx="1978.8" cy="1111" r="30" fill="none" stroke="#e6ddc4" stroke-width="10"/><rect x="2055" y="1064" width="18" height="94" fill="#e6ddc4"/><rect x="2081" y="1064" width="18" height="94" fill="#e6ddc4"/><rect x="2107" y="1064" width="18" height="94" fill="#e6ddc4"/><rect x="210" y="1000" width="1980" height="46" fill="#e6ddc4"/><polygon points="210,1000 1200,630.9 2190,1000" fill="none" stroke="#e6ddc4" stroke-width="26"/><polygon points="1200,788 1214.8,844.3 1265.1,814.9 1235.7,865.2 1292,880 1235.7,894.8 1265.1,945.1 1214.8,915.7 1200,972 1185.2,915.7 1134.9,945.1 1164.3,894.8 1108,880 1164.3,865.2 1134.9,814.9 1185.2,844.3 " fill="#bda15a"/><circle cx="740" cy="930" r="34" fill="#bda15a"/><circle cx="1660" cy="930" r="34" fill="#bda15a"/><line x1="1200" y1="620.9" x2="1153.9" y2="579.5" stroke="#e6ddc4" stroke-width="13" stroke-linecap="round"/><line x1="1200" y1="620.9" x2="1174.8" y2="564.3" stroke="#e6ddc4" stroke-width="13" stroke-linecap="round"/><line x1="1200" y1="620.9" x2="1200" y2="558.9" stroke="#e6ddc4" stroke-width="13" stroke-linecap="round"/><line x1="1200" y1="620.9" x2="1225.2" y2="564.3" stroke="#e6ddc4" stroke-width="13" stroke-linecap="round"/><line x1="1200" y1="620.9" x2="1246.1" y2="579.5" stroke="#e6ddc4" stroke-width="13" stroke-linecap="round"/><line x1="210" y1="990" x2="163.9" y2="948.5" stroke="#e6ddc4" stroke-width="13" stroke-linecap="round"/><line x1="210" y1="990" x2="184.8" y2="933.4" stroke="#e6ddc4" stroke-width="13" stroke-linecap="round"/><line x1="210" y1="990" x2="210" y2="928" stroke="#e6ddc4" stroke-width="13" stroke-linecap="round"/><line x1="210" y1="990" x2="235.2" y2="933.4" stroke="#e6ddc4" stroke-width="13" stroke-linecap="round"/><line x1="210" y1="990" x2="256.1" y2="948.5" stroke="#e6ddc4" stroke-width="13" stroke-linecap="round"/><line x1="2190" y1="990" x2="2143.9" y2="948.5" stroke="#e6ddc4" stroke-width="13" stroke-linecap="round"/><line x1="2190" y1="990" x2="2164.8" y2="933.4" stroke="#e6ddc4" stroke-width="13" stroke-linecap="round"/><line x1="2190" y1="990" x2="2190" y2="928" stroke="#e6ddc4" stroke-width="13" stroke-linecap="round"/><line x1="2190" y1="990" x2="2215.2" y2="933.4" stroke="#e6ddc4" stroke-width="13" stroke-linecap="round"/><line x1="2190" y1="990" x2="2236.1" y2="948.5" stroke="#e6ddc4" stroke-width="13" stroke-linecap="round"/><path d="M324.7,2797.3 L 395.3,2797.3 L 395.3,2726.7 L 339.8,2726.7 L 339.8,2770.4 L 368.4,2770.4 L 368.4,2748.6 M408.7,2797.3 L 479.3,2797.3 L 479.3,2726.7 L 423.8,2726.7 L 423.8,2770.4 L 452.4,2770.4 L 452.4,2748.6 M492.7,2797.3 L 563.3,2797.3 L 563.3,2726.7 L 507.8,2726.7 L 507.8,2770.4 L 536.4,2770.4 L 536.4,2748.6 M576.7,2797.3 L 647.3,2797.3 L 647.3,2726.7 L 591.8,2726.7 L 591.8,2770.4 L 620.4,2770.4 L 620.4,2748.6 M660.7,2797.3 L 731.3,2797.3 L 731.3,2726.7 L 675.8,2726.7 L 675.8,2770.4 L 704.4,2770.4 L 704.4,2748.6 M744.7,2797.3 L 815.3,2797.3 L 815.3,2726.7 L 759.8,2726.7 L 759.8,2770.4 L 788.4,2770.4 L 788.4,2748.6 M828.7,2797.3 L 899.3,2797.3 L 899.3,2726.7 L 843.8,2726.7 L 843.8,2770.4 L 872.4,2770.4 L 872.4,2748.6 M912.7,2797.3 L 983.3,2797.3 L 983.3,2726.7 L 927.8,2726.7 L 927.8,2770.4 L 956.4,2770.4 L 956.4,2748.6 M996.7,2797.3 L 1067.3,2797.3 L 1067.3,2726.7 L 1011.8,2726.7 L 1011.8,2770.4 L 1040.4,2770.4 L 1040.4,2748.6 M1080.7,2797.3 L 1151.3,2797.3 L 1151.3,2726.7 L 1095.8,2726.7 L 1095.8,2770.4 L 1124.4,2770.4 L 1124.4,2748.6 M1164.7,2797.3 L 1235.3,2797.3 L 1235.3,2726.7 L 1179.8,2726.7 L 1179.8,2770.4 L 1208.4,2770.4 L 1208.4,2748.6 M1248.7,2797.3 L 1319.3,2797.3 L 1319.3,2726.7 L 1263.8,2726.7 L 1263.8,2770.4 L 1292.4,2770.4 L 1292.4,2748.6 M1332.7,2797.3 L 1403.3,2797.3 L 1403.3,2726.7 L 1347.8,2726.7 L 1347.8,2770.4 L 1376.4,2770.4 L 1376.4,2748.6 M1416.7,2797.3 L 1487.3,2797.3 L 1487.3,2726.7 L 1431.8,2726.7 L 1431.8,2770.4 L 1460.4,2770.4 L 1460.4,2748.6 M1500.7,2797.3 L 1571.3,2797.3 L 1571.3,2726.7 L 1515.8,2726.7 L 1515.8,2770.4 L 1544.4,2770.4 L 1544.4,2748.6 M1584.7,2797.3 L 1655.3,2797.3 L 1655.3,2726.7 L 1599.8,2726.7 L 1599.8,2770.4 L 1628.4,2770.4 L 1628.4,2748.6 M1668.7,2797.3 L 1739.3,2797.3 L 1739.3,2726.7 L 1683.8,2726.7 L 1683.8,2770.4 L 1712.4,2770.4 L 1712.4,2748.6 M1752.7,2797.3 L 1823.3,2797.3 L 1823.3,2726.7 L 1767.8,2726.7 L 1767.8,2770.4 L 1796.4,2770.4 L 1796.4,2748.6 M1836.7,2797.3 L 1907.3,2797.3 L 1907.3,2726.7 L 1851.8,2726.7 L 1851.8,2770.4 L 1880.4,2770.4 L 1880.4,2748.6 M1920.7,2797.3 L 1991.3,2797.3 L 1991.3,2726.7 L 1935.8,2726.7 L 1935.8,2770.4 L 1964.4,2770.4 L 1964.4,2748.6 M2004.7,2797.3 L 2075.3,2797.3 L 2075.3,2726.7 L 2019.8,2726.7 L 2019.8,2770.4 L 2048.4,2770.4 L 2048.4,2748.6 " fill="none" stroke="#e6ddc4" stroke-width="10.9"/><rect x="100" y="100" width="2200" height="2800" fill="none" stroke="#e6ddc4" stroke-width="9"/><rect x="142" y="142" width="2116" height="2716" fill="none" stroke="#e6ddc4" stroke-width="3" opacity="0.65"/></svg></svg>