<svg xmlns="http://www.w3.org/2000/svg" width="2400" height="1800" viewBox="0 0 2400 1800"><rect width="2400" height="1800" fill="#e5ddcf"/><rect y="1430" width="2400" height="370" fill="#b89a76"/><line x1="100" y1="1430" x2="45" y2="1800" stroke="#00000016" stroke-width="5"/><line x1="330" y1="1430" x2="275" y2="1800" stroke="#00000016" stroke-width="5"/><line x1="560" y1="1430" x2="505" y2="1800" stroke="#00000016" stroke-width="5"/><line x1="790" y1="1430" x2="735" y2="1800" stroke="#00000016" stroke-width="5"/><line x1="1020" y1="1430" x2="965" y2="1800" stroke="#00000016" stroke-width="5"/><line x1="1250" y1="1430" x2="1195" y2="1800" stroke="#00000016" stroke-width="5"/><line x1="1480" y1="1430" x2="1425" y2="1800" stroke="#00000016" stroke-width="5"/><line x1="1710" y1="1430" x2="1655" y2="1800" stroke="#00000016" stroke-width="5"/><line x1="1940" y1="1430" x2="1885" y2="1800" stroke="#00000016" stroke-width="5"/><line x1="2170" y1="1430" x2="2115" y2="1800" stroke="#00000016" stroke-width="5"/><rect x="620" y="1180" width="1180" height="52" rx="10" fill="#8a6540"/><rect x="680" y="1232" width="70" height="330" fill="#775433"/><rect x="1670" y="1232" width="70" height="330" fill="#775433"/><rect x="760" y="1120" width="220" height="34" rx="6" fill="#8a6a4b"/><rect x="780" y="1086" width="200" height="34" rx="6" fill="#39685c"/><rect x="800" y="1052" width="170" height="34" rx="6" fill="#c9a227"/><circle cx="1240" cy="1130" r="46" fill="#3f3428"/><rect x="1226" y="1048" width="16" height="60" fill="#3f3428" transform="rotate(18 1240 1090)"/><rect x="1420" y="1100" width="260" height="26" rx="13" fill="#e8dcc0"/><rect x="1450" y="1072" width="260" height="26" rx="13" fill="#dfd0ad"/><rect x="1080" y="1300" width="360" height="34" rx="14" fill="#6f5436"/><rect x="1100" y="1334" width="40" height="220" fill="#6f5436"/><rect x="1380" y="1334" width="40" height="220" fill="#6f5436"/><rect x="1080" y="1030" width="42" height="290" rx="14" fill="#6f5436"/><rect x="260" y="480" width="560" height="24" fill="#8a6540"/><rect x="300" y="360" width="90" height="120" fill="#b3502f"/><rect x="400" y="380" width="80" height="100" fill="#2c4661"/><rect x="490" y="350" width="86" height="130" fill="#96a396"/><path d="M700,480 Q 616,347 574,382" fill="none" stroke="#5d7052" stroke-width="11.2" stroke-linecap="round"/><path d="M700,480 Q 644,347 616,354" fill="none" stroke="#5d7052" stroke-width="11.2" stroke-linecap="round"/><path d="M700,480 Q 672,347 658,326" fill="none" stroke="#5d7052" stroke-width="11.2" stroke-linecap="round"/><path d="M700,480 Q 700,347 700,298" fill="none" stroke="#5d7052" stroke-width="11.2" stroke-linecap="round"/><path d="M700,480 Q 728,347 742,326" fill="none" stroke="#5d7052" stroke-width="11.2" stroke-linecap="round"/><path d="M700,480 Q 756,347 784,354" fill="none" stroke="#5d7052" stroke-width="11.2" stroke-linecap="round"/><path d="M700,480 Q 784,347 826,382" fill="none" stroke="#5d7052" stroke-width="11.2" stroke-linecap="round"/><path d="M651,480 L749,480 L736.4,557 L663.6,557 Z" fill="#a9714d"/><path d="M320,1520 Q 164,1273 86,1338" fill="none" stroke="#5d7052" stroke-width="20.8" stroke-linecap="round"/><path d="M320,1520 Q 216,1273 164,1286" fill="none" stroke="#5d7052" stroke-width="20.8" stroke-linecap="round"/><path d="M320,1520 Q 268,1273 242,1234" fill="none" stroke="#5d7052" stroke-width="20.8" stroke-linecap="round"/><path d="M320,1520 Q 320,1273 320,1182" fill="none" stroke="#5d7052" stroke-width="20.8" stroke-linecap="round"/><path d="M320,1520 Q 372,1273 398,1234" fill="none" stroke="#5d7052" stroke-width="20.8" stroke-linecap="round"/><path d="M320,1520 Q 424,1273 476,1286" fill="none" stroke="#5d7052" stroke-width="20.8" stroke-linecap="round"/><path d="M320,1520 Q 476,1273 554,1338" fill="none" stroke="#5d7052" stroke-width="20.8" stroke-linecap="round"/><path d="M229,1520 L411,1520 L387.6,1663 L252.4,1663 Z" fill="#a9714d"/><defs><filter id="a154s-sh" x="-30%" y="-30%" width="160%" height="160%"><feGaussianBlur stdDeviation="16"/></filter></defs><rect x="1206" y="294" width="616" height="756" fill="#000" opacity="0.28" filter="url(#a154s-sh)"/><rect x="1192" y="272" width="616" height="756" fill="#443a2d"/><rect x="1210.2" y="290.2" width="579.6" height="719.6" fill="none" stroke="#00000055" stroke-width="3"/><rect x="1220" y="300" width="560" height="700" fill="#f6f2ea"/><svg x="1262" y="342" width="476" height="616" viewBox="0 0 2400 3000" preserveAspectRatio="xMidYMid slice"><rect width="2400" height="3000" fill="#2b2f36"/><radialGradient id="a154-vig" cx="50%" cy="42%" r="80%"><stop offset="55%" stop-color="#000" stop-opacity="0"/><stop offset="100%" stop-color="#000" stop-opacity="0.15"/></radialGradient><rect width="2400" height="3000" fill="url(#a154-vig)"/><circle cx="2304.8" cy="519.1" r="3.2" fill="#b3873e" opacity="0.038"/><circle cx="1805.6" cy="625.4" r="3" fill="#b3873e" opacity="0.074"/><circle cx="1085.4" cy="1356.7" r="2.2" fill="#b3873e" opacity="0.041"/><circle cx="311.7" cy="1646.2" r="2.6" fill="#b3873e" opacity="0.078"/><circle cx="1171.6" cy="1616.3" r="2.5" fill="#b3873e" opacity="0.061"/><circle cx="1715.5" cy="372.2" r="4.3" fill="#b3873e" opacity="0.079"/><circle cx="1710.2" cy="1709" r="1.7" fill="#b3873e" opacity="0.068"/><circle cx="109.1" cy="1714.6" r="3.5" fill="#b3873e" opacity="0.032"/><circle cx="2164" cy="1721.2" r="4.1" fill="#b3873e" opacity="0.069"/><circle cx="1700.5" cy="829.7" r="2.9" fill="#b3873e" opacity="0.033"/><circle cx="1413" cy="2076" r="4.1" fill="#b3873e" opacity="0.075"/><circle cx="504.1" cy="1474.9" r="3.9" fill="#b3873e" opacity="0.062"/><circle cx="2015.9" cy="1000.5" r="3" fill="#b3873e" opacity="0.065"/><circle cx="1808.5" cy="2399.2" r="3.5" fill="#b3873e" opacity="0.068"/><circle cx="866.7" cy="1437.5" r="3.4" fill="#b3873e" opacity="0.043"/><circle cx="1188.4" cy="1818.7" r="2.3" fill="#b3873e" opacity="0.046"/><circle cx="1191.3" cy="1972.5" r="3.1" fill="#b3873e" opacity="0.074"/><circle cx="1758.7" cy="1715.8" r="4.2" fill="#b3873e" opacity="0.048"/><circle cx="1303.5" cy="1223.6" r="2.2" fill="#b3873e" opacity="0.064"/><circle cx="1324.5" cy="1842.6" r="3.3" fill="#b3873e" opacity="0.066"/><circle cx="2044.6" cy="546" r="2.2" fill="#b3873e" opacity="0.065"/><circle cx="2228.8" cy="1797.3" r="4.1" fill="#b3873e" opacity="0.039"/><circle cx="669.2" cy="711.6" r="2.7" fill="#b3873e" opacity="0.047"/><circle cx="1562.9" cy="2128.9" r="3.8" fill="#b3873e" opacity="0.049"/><circle cx="1485.3" cy="2800.9" r="1.6" fill="#b3873e" opacity="0.037"/><circle cx="1143" cy="1178.7" r="2.4" fill="#b3873e" opacity="0.032"/><circle cx="526.3" cy="1762.9" r="2.5" fill="#b3873e" opacity="0.073"/><circle cx="277.2" cy="1312.2" r="2" fill="#b3873e" opacity="0.077"/><circle cx="584" cy="2947" r="3.1" fill="#b3873e" opacity="0.064"/><circle cx="59.4" cy="1499.8" r="3.6" fill="#b3873e" opacity="0.065"/><circle cx="460" cy="2741.4" r="3.4" fill="#b3873e" opacity="0.062"/><circle cx="1044.5" cy="951.2" r="2.8" fill="#b3873e" opacity="0.043"/><circle cx="2172.1" cy="2172.4" r="2.6" fill="#b3873e" opacity="0.035"/><circle cx="1852.8" cy="946.5" r="4.1" fill="#b3873e" opacity="0.065"/><circle cx="1449" cy="1079.4" r="2.7" fill="#b3873e" opacity="0.038"/><circle cx="986.6" cy="965.9" r="2.6" fill="#b3873e" opacity="0.062"/><circle cx="913.4" cy="180.2" r="3.5" fill="#b3873e" opacity="0.033"/><circle cx="1578.4" cy="751.7" r="1.6" fill="#b3873e" opacity="0.054"/><circle cx="1796.4" cy="575.3" r="1.6" fill="#b3873e" opacity="0.077"/><circle cx="485.5" cy="1883.6" r="3.2" fill="#b3873e" opacity="0.034"/><circle cx="705.4" cy="154.4" r="2.8" fill="#b3873e" opacity="0.062"/><circle cx="373.8" cy="2229.5" r="2.6" fill="#b3873e" opacity="0.056"/><circle cx="566.4" cy="781" r="1.6" fill="#b3873e" opacity="0.042"/><circle cx="1032.4" cy="1592.9" r="1.7" fill="#b3873e" opacity="0.048"/><circle cx="1564.2" cy="2461.5" r="3.4" fill="#b3873e" opacity="0.057"/><circle cx="1213.6" cy="207.1" r="3.7" fill="#b3873e" opacity="0.078"/><circle cx="2086.9" cy="259.6" r="2.9" fill="#b3873e" opacity="0.058"/><circle cx="1843.4" cy="515" r="1.8" fill="#b3873e" opacity="0.052"/><circle cx="765.5" cy="1440.4" r="2.8" fill="#b3873e" opacity="0.067"/><circle cx="1354.4" cy="2268.3" r="3.4" fill="#b3873e" opacity="0.058"/><circle cx="2170.4" cy="1696.5" r="3.6" fill="#b3873e" opacity="0.052"/><circle cx="2356.3" cy="2521" r="3.1" fill="#b3873e" opacity="0.065"/><circle cx="994.9" cy="2424.8" r="3.9" fill="#b3873e" opacity="0.076"/><circle cx="863.9" cy="1208.1" r="2.1" fill="#b3873e" opacity="0.043"/><circle cx="59.8" cy="1124.1" r="1.8" fill="#b3873e" opacity="0.079"/><circle cx="1243.2" cy="2651" r="2.6" fill="#b3873e" opacity="0.067"/><circle cx="689.2" cy="2421" r="3.6" fill="#b3873e" opacity="0.043"/><circle cx="2073.8" cy="2542.7" r="2" fill="#b3873e" opacity="0.054"/><circle cx="1688.8" cy="2939.4" r="3.7" fill="#b3873e" opacity="0.074"/><circle cx="1037.2" cy="332" r="4.1" fill="#b3873e" opacity="0.071"/><circle cx="1729.7" cy="1996.8" r="2.7" fill="#b3873e" opacity="0.065"/><circle cx="2090.6" cy="1663.6" r="2" fill="#b3873e" opacity="0.054"/><circle cx="161.5" cy="1373.8" r="2.7" fill="#b3873e" opacity="0.044"/><circle cx="1395.1" cy="1039.6" r="1.6" fill="#b3873e" opacity="0.062"/><circle cx="1344.6" cy="2151.5" r="4" fill="#b3873e" opacity="0.043"/><circle cx="819.5" cy="1683" r="4" fill="#b3873e" opacity="0.061"/><circle cx="816.1" cy="2093.6" r="3.4" fill="#b3873e" opacity="0.050"/><circle cx="1621.8" cy="579.4" r="1.7" fill="#b3873e" opacity="0.043"/><circle cx="1042.7" cy="2419.7" r="2.7" fill="#b3873e" opacity="0.069"/><circle cx="1278.7" cy="819.2" r="3.4" fill="#b3873e" opacity="0.045"/><circle cx="1813.3" cy="542.4" r="2.8" fill="#b3873e" opacity="0.031"/><circle cx="222.7" cy="2351" r="3.7" fill="#b3873e" opacity="0.077"/><circle cx="1667.6" cy="2385.4" r="3.2" fill="#b3873e" opacity="0.036"/><circle cx="1965.8" cy="551.4" r="3.1" fill="#b3873e" opacity="0.068"/><circle cx="2147" cy="1536.6" r="2.6" fill="#b3873e" opacity="0.065"/><circle cx="2313.5" cy="2866.3" r="2.8" fill="#b3873e" opacity="0.042"/><circle cx="388" cy="845.2" r="3.3" fill="#b3873e" opacity="0.046"/><circle cx="1786.7" cy="934.3" r="3.5" fill="#b3873e" opacity="0.036"/><circle cx="1192.8" cy="1940" r="3.4" fill="#b3873e" opacity="0.046"/><circle cx="1386.7" cy="1745.2" r="3.2" fill="#b3873e" opacity="0.052"/><rect x="190" y="2434" width="2020" height="66" fill="#b3873e" opacity="1"/><rect x="250" y="2368" width="1900" height="66" fill="#b3873e" opacity="0.92"/><rect x="310" y="2302" width="1780" height="66" fill="#b3873e" opacity="0.84"/><rect x="316" y="1300" width="108" height="1002" fill="#b3873e"/><line x1="338.2" y1="1340" x2="338.2" y2="2288" stroke="#2b2f36" stroke-width="7" opacity="0.5"/><line x1="370" y1="1340" x2="370" y2="2288" stroke="#2b2f36" stroke-width="7" opacity="0.5"/><line x1="401.8" y1="1340" x2="401.8" y2="2288" stroke="#2b2f36" stroke-width="7" opacity="0.5"/><rect x="294" y="1260" width="152" height="40" fill="#b3873e"/><rect x="304" y="2298" width="132" height="30" fill="#b3873e"/><rect x="869.3" y="1300" width="108" height="1002" fill="#b3873e"/><line x1="891.6" y1="1340" x2="891.6" y2="2288" stroke="#2b2f36" stroke-width="7" opacity="0.5"/><line x1="923.3" y1="1340" x2="923.3" y2="2288" stroke="#2b2f36" stroke-width="7" opacity="0.5"/><line x1="955.1" y1="1340" x2="955.1" y2="2288" stroke="#2b2f36" stroke-width="7" opacity="0.5"/><rect x="847.3" y="1260" width="152" height="40" fill="#b3873e"/><rect x="857.3" y="2298" width="132" height="30" fill="#b3873e"/><rect x="1422.7" y="1300" width="108" height="1002" fill="#b3873e"/><line x1="1444.9" y1="1340" x2="1444.9" y2="2288" stroke="#2b2f36" stroke-width="7" opacity="0.5"/><line x1="1476.7" y1="1340" x2="1476.7" y2="2288" stroke="#2b2f36" stroke-width="7" opacity="0.5"/><line x1="1508.4" y1="1340" x2="1508.4" y2="2288" stroke="#2b2f36" stroke-width="7" opacity="0.5"/><rect x="1400.7" y="1260" width="152" height="40" fill="#b3873e"/><rect x="1410.7" y="2298" width="132" height="30" fill="#b3873e"/><rect x="1976" y="1300" width="108" height="1002" fill="#b3873e"/><line x1="1998.2" y1="1340" x2="1998.2" y2="2288" stroke="#2b2f36" stroke-width="7" opacity="0.5"/><line x1="2030" y1="1340" x2="2030" y2="2288" stroke="#2b2f36" stroke-width="7" opacity="0.5"/><line x1="2061.8" y1="1340" x2="2061.8" y2="2288" stroke="#2b2f36" stroke-width="7" opacity="0.5"/><rect x="1954" y="1260" width="152" height="40" fill="#b3873e"/><rect x="1964" y="2298" width="132" height="30" fill="#b3873e"/><rect x="240" y="1176" width="1920" height="84" fill="#b3873e"/><rect x="240" y="1046" width="1920" height="130" fill="#3d434d"/><rect x="275" y="1064" width="18" height="94" fill="#b3873e"/><rect x="301" y="1064" width="18" height="94" fill="#b3873e"/><rect x="327" y="1064" width="18" height="94" fill="#b3873e"/><circle cx="421.3" cy="1111" r="30" fill="none" stroke="#b3873e" stroke-width="10"/><rect x="497.5" y="1064" width="18" height="94" fill="#b3873e"/><rect x="523.5" y="1064" width="18" height="94" fill="#b3873e"/><rect x="549.5" y="1064" width="18" height="94" fill="#b3873e"/><circle cx="643.8" cy="1111" r="30" fill="none" stroke="#b3873e" stroke-width="10"/><rect x="720" y="1064" width="18" height="94" fill="#b3873e"/><rect x="746" y="1064" width="18" height="94" fill="#b3873e"/><rect x="772" y="1064" width="18" height="94" fill="#b3873e"/><circle cx="866.3" cy="1111" r="30" fill="none" stroke="#b3873e" stroke-width="10"/><rect x="942.5" y="1064" width="18" height="94" fill="#b3873e"/><rect x="968.5" y="1064" width="18" height="94" fill="#b3873e"/><rect x="994.5" y="1064" width="18" height="94" fill="#b3873e"/><circle cx="1088.8" cy="1111" r="30" fill="none" stroke="#b3873e" stroke-width="10"/><rect x="1165" y="1064" width="18" height="94" fill="#b3873e"/><rect x="1191" y="1064" width="18" height="94" fill="#b3873e"/><rect x="1217" y="1064" width="18" height="94" fill="#b3873e"/><circle cx="1311.3" cy="1111" r="30" fill="none" stroke="#b3873e" stroke-width="10"/><rect x="1387.5" y="1064" width="18" height="94" fill="#b3873e"/><rect x="1413.5" y="1064" width="18" height="94" fill="#b3873e"/><rect x="1439.5" y="1064" width="18" height="94" fill="#b3873e"/><circle cx="1533.8" cy="1111" r="30" fill="none" stroke="#b3873e" stroke-width="10"/><rect x="1610" y="1064" width="18" height="94" fill="#b3873e"/><rect x="1636" y="1064" width="18" height="94" fill="#b3873e"/><rect x="1662" y="1064" width="18" height="94" fill="#b3873e"/><circle cx="1756.3" cy="1111" r="30" fill="none" stroke="#b3873e" stroke-width="10"/><rect x="1832.5" y="1064" width="18" height="94" fill="#b3873e"/><rect x="1858.5" y="1064" width="18" height="94" fill="#b3873e"/><rect x="1884.5" y="1064" width="18" height="94" fill="#b3873e"/><circle cx="1978.8" cy="1111" r="30" fill="none" stroke="#b3873e" stroke-width="10"/><rect x="2055" y="1064" width="18" height="94" fill="#b3873e"/><rect x="2081" y="1064" width="18" height="94" fill="#b3873e"/><rect x="2107" y="1064" width="18" height="94" fill="#b3873e"/><rect x="210" y="1000" width="1980" height="46" fill="#b3873e"/><polygon points="210,1000 1200,610.6 2190,1000" fill="none" stroke="#b3873e" stroke-width="26"/><polygon points="1200,788 1214.8,844.3 1265.1,814.9 1235.7,865.2 1292,880 1235.7,894.8 1265.1,945.1 1214.8,915.7 1200,972 1185.2,915.7 1134.9,945.1 1164.3,894.8 1108,880 1164.3,865.2 1134.9,814.9 1185.2,844.3 " fill="#8a6a4b"/><circle cx="740" cy="930" r="34" fill="#8a6a4b"/><circle cx="1660" cy="930" r="34" fill="#8a6a4b"/><line x1="1200" y1="600.6" x2="1153.9" y2="559.1" stroke="#b3873e" stroke-width="13" stroke-linecap="round"/><line x1="1200" y1="600.6" x2="1174.8" y2="543.9" stroke="#b3873e" stroke-width="13" stroke-linecap="round"/><line x1="1200" y1="600.6" x2="1200" y2="538.6" stroke="#b3873e" stroke-width="13" stroke-linecap="round"/><line x1="1200" y1="600.6" x2="1225.2" y2="543.9" stroke="#b3873e" stroke-width="13" stroke-linecap="round"/><line x1="1200" y1="600.6" x2="1246.1" y2="559.1" stroke="#b3873e" stroke-width="13" stroke-linecap="round"/><line x1="210" y1="990" x2="163.9" y2="948.5" stroke="#b3873e" stroke-width="13" stroke-linecap="round"/><line x1="210" y1="990" x2="184.8" y2="933.4" stroke="#b3873e" stroke-width="13" stroke-linecap="round"/><line x1="210" y1="990" x2="210" y2="928" stroke="#b3873e" stroke-width="13" stroke-linecap="round"/><line x1="210" y1="990" x2="235.2" y2="933.4" stroke="#b3873e" stroke-width="13" stroke-linecap="round"/><line x1="210" y1="990" x2="256.1" y2="948.5" stroke="#b3873e" stroke-width="13" stroke-linecap="round"/><line x1="2190" y1="990" x2="2143.9" y2="948.5" stroke="#b3873e" stroke-width="13" stroke-linecap="round"/><line x1="2190" y1="990" x2="2164.8" y2="933.4" stroke="#b3873e" stroke-width="13" stroke-linecap="round"/><line x1="2190" y1="990" x2="2190" y2="928" stroke="#b3873e" stroke-width="13" stroke-linecap="round"/><line x1="2190" y1="990" x2="2215.2" y2="933.4" stroke="#b3873e" stroke-width="13" stroke-linecap="round"/><line x1="2190" y1="990" x2="2236.1" y2="948.5" stroke="#b3873e" stroke-width="13" stroke-linecap="round"/><path d="M324.7,2797.3 L 395.3,2797.3 L 395.3,2726.7 L 339.8,2726.7 L 339.8,2770.4 L 368.4,2770.4 L 368.4,2748.6 M408.7,2797.3 L 479.3,2797.3 L 479.3,2726.7 L 423.8,2726.7 L 423.8,2770.4 L 452.4,2770.4 L 452.4,2748.6 M492.7,2797.3 L 563.3,2797.3 L 563.3,2726.7 L 507.8,2726.7 L 507.8,2770.4 L 536.4,2770.4 L 536.4,2748.6 M576.7,2797.3 L 647.3,2797.3 L 647.3,2726.7 L 591.8,2726.7 L 591.8,2770.4 L 620.4,2770.4 L 620.4,2748.6 M660.7,2797.3 L 731.3,2797.3 L 731.3,2726.7 L 675.8,2726.7 L 675.8,2770.4 L 704.4,2770.4 L 704.4,2748.6 M744.7,2797.3 L 815.3,2797.3 L 815.3,2726.7 L 759.8,2726.7 L 759.8,2770.4 L 788.4,2770.4 L 788.4,2748.6 M828.7,2797.3 L 899.3,2797.3 L 899.3,2726.7 L 843.8,2726.7 L 843.8,2770.4 L 872.4,2770.4 L 872.4,2748.6 M912.7,2797.3 L 983.3,2797.3 L 983.3,2726.7 L 927.8,2726.7 L 927.8,2770.4 L 956.4,2770.4 L 956.4,2748.6 M996.7,2797.3 L 1067.3,2797.3 L 1067.3,2726.7 L 1011.8,2726.7 L 1011.8,2770.4 L 1040.4,2770.4 L 1040.4,2748.6 M1080.7,2797.3 L 1151.3,2797.3 L 1151.3,2726.7 L 1095.8,2726.7 L 1095.8,2770.4 L 1124.4,2770.4 L 1124.4,2748.6 M1164.7,2797.3 L 1235.3,2797.3 L 1235.3,2726.7 L 1179.8,2726.7 L 1179.8,2770.4 L 1208.4,2770.4 L 1208.4,2748.6 M1248.7,2797.3 L 1319.3,2797.3 L 1319.3,2726.7 L 1263.8,2726.7 L 1263.8,2770.4 L 1292.4,2770.4 L 1292.4,2748.6 M1332.7,2797.3 L 1403.3,2797.3 L 1403.3,2726.7 L 1347.8,2726.7 L 1347.8,2770.4 L 1376.4,2770.4 L 1376.4,2748.6 M1416.7,2797.3 L 1487.3,2797.3 L 1487.3,2726.7 L 1431.8,2726.7 L 1431.8,2770.4 L 1460.4,2770.4 L 1460.4,2748.6 M1500.7,2797.3 L 1571.3,2797.3 L 1571.3,2726.7 L 1515.8,2726.7 L 1515.8,2770.4 L 1544.4,2770.4 L 1544.4,2748.6 M1584.7,2797.3 L 1655.3,2797.3 L 1655.3,2726.7 L 1599.8,2726.7 L 1599.8,2770.4 L 1628.4,2770.4 L 1628.4,2748.6 M1668.7,2797.3 L 1739.3,2797.3 L 1739.3,2726.7 L 1683.8,2726.7 L 1683.8,2770.4 L 1712.4,2770.4 L 1712.4,2748.6 M1752.7,2797.3 L 1823.3,2797.3 L 1823.3,2726.7 L 1767.8,2726.7 L 1767.8,2770.4 L 1796.4,2770.4 L 1796.4,2748.6 M1836.7,2797.3 L 1907.3,2797.3 L 1907.3,2726.7 L 1851.8,2726.7 L 1851.8,2770.4 L 1880.4,2770.4 L 1880.4,2748.6 M1920.7,2797.3 L 1991.3,2797.3 L 1991.3,2726.7 L 1935.8,2726.7 L 1935.8,2770.4 L 1964.4,2770.4 L 1964.4,2748.6 M2004.7,2797.3 L 2075.3,2797.3 L 2075.3,2726.7 L 2019.8,2726.7 L 2019.8,2770.4 L 2048.4,2770.4 L 2048.4,2748.6 " fill="none" stroke="#b3873e" stroke-width="10.9"/><rect x="100" y="100" width="2200" height="2800" fill="none" stroke="#b3873e" stroke-width="9"/><rect x="142" y="142" width="2116" height="2716" fill="none" stroke="#b3873e" stroke-width="3" opacity="0.65"/></svg></svg>