<svg xmlns="http://www.w3.org/2000/svg" width="2400" height="1800" viewBox="0 0 2400 1800"><rect width="2400" height="1800" fill="#e3dccd"/><rect x="160" y="240" width="560" height="1060" fill="none" stroke="#cabfa9" stroke-width="10"/><rect x="200" y="280" width="480" height="980" fill="none" stroke="#cabfa9" stroke-width="5"/><rect x="1680" y="240" width="560" height="1060" fill="none" stroke="#cabfa9" stroke-width="10"/><rect x="1720" y="280" width="480" height="980" fill="none" stroke="#cabfa9" stroke-width="5"/><rect y="1380" width="2400" height="420" fill="#a98f6d"/><line x1="0" y1="1380" x2="-70" y2="1800" stroke="#00000018" stroke-width="6"/><line x1="190" y1="1380" x2="120" y2="1800" stroke="#00000018" stroke-width="6"/><line x1="380" y1="1380" x2="310" y2="1800" stroke="#00000018" stroke-width="6"/><line x1="570" y1="1380" x2="500" y2="1800" stroke="#00000018" stroke-width="6"/><line x1="760" y1="1380" x2="690" y2="1800" stroke="#00000018" stroke-width="6"/><line x1="950" y1="1380" x2="880" y2="1800" stroke="#00000018" stroke-width="6"/><line x1="1140" y1="1380" x2="1070" y2="1800" stroke="#00000018" stroke-width="6"/><line x1="1330" y1="1380" x2="1260" y2="1800" stroke="#00000018" stroke-width="6"/><line x1="1520" y1="1380" x2="1450" y2="1800" stroke="#00000018" stroke-width="6"/><line x1="1710" y1="1380" x2="1640" y2="1800" stroke="#00000018" stroke-width="6"/><line x1="1900" y1="1380" x2="1830" y2="1800" stroke="#00000018" stroke-width="6"/><line x1="2090" y1="1380" x2="2020" y2="1800" stroke="#00000018" stroke-width="6"/><line x1="2280" y1="1380" x2="2210" y2="1800" stroke="#00000018" stroke-width="6"/><rect y="1364" width="2400" height="18" fill="#d3c8b2"/><path d="M700,1500 L1700,1500 L1860,1800 L540,1800 Z" fill="#8a4423" opacity="0.75"/><path d="M760,1540 L1640,1540 L1760,1760 L640,1760 Z" fill="none" stroke="#f4ecdd" stroke-width="10" opacity="0.8"/><rect x="880" y="1180" width="640" height="40" rx="8" fill="#6f5436"/><rect x="920" y="1220" width="44" height="240" fill="#5e4629"/><rect x="1436" y="1220" width="44" height="240" fill="#5e4629"/><path d="M1160,1180 q -14,-90 40,-160 M1200,1180 q 4,-120 -10,-200 M1230,1180 q 30,-90 90,-130" stroke="#5d7052" stroke-width="12" fill="none" stroke-linecap="round"/><path d="M1150,1180 L1250,1180 L1230,1080 L1170,1080 Z" fill="#e0a077" transform="translate(0,0)"/><path d="M1155,1060 h90 l-12,124 h-66 Z" fill="#b98a5a"/><rect x="1380" y="1120" width="18" height="60" fill="#8f6b3d"/><ellipse cx="1389" cy="1116" rx="16" ry="10" fill="#c9a227"/><defs><filter id="a179h-sh" x="-30%" y="-30%" width="160%" height="160%"><feGaussianBlur stdDeviation="16"/></filter></defs><rect x="950" y="258" width="528" height="648" fill="#000" opacity="0.28" filter="url(#a179h-sh)"/><rect x="936" y="236" width="528" height="648" fill="#33291f"/><rect x="951.6" y="251.6" width="496.8" height="616.8" fill="none" stroke="#00000055" stroke-width="3"/><rect x="960" y="260" width="480" height="600" fill="#f6f2ea"/><svg x="996" y="296" width="408" height="528" viewBox="0 0 2400 3000" preserveAspectRatio="xMidYMid slice"><rect width="2400" height="3000" fill="#c8703f"/><radialGradient id="a179-vig" cx="50%" cy="42%" r="80%"><stop offset="55%" stop-color="#000" stop-opacity="0"/><stop offset="100%" stop-color="#000" stop-opacity="0.15"/></radialGradient><rect width="2400" height="3000" fill="url(#a179-vig)"/><circle cx="1210.8" cy="1500.2" r="2" fill="#26160e" opacity="0.040"/><circle cx="1287.2" cy="583.6" r="3.6" fill="#26160e" opacity="0.072"/><circle cx="1000.2" cy="1959.1" r="4.4" fill="#26160e" opacity="0.046"/><circle cx="1858" cy="2391" r="2" fill="#26160e" opacity="0.049"/><circle cx="1363.9" cy="91.3" r="2.5" fill="#26160e" opacity="0.034"/><circle cx="1565.3" cy="542.2" r="3.2" fill="#26160e" opacity="0.065"/><circle cx="1359.8" cy="1312.6" r="2.8" fill="#26160e" opacity="0.055"/><circle cx="1933.4" cy="1651.9" r="1.7" fill="#26160e" opacity="0.038"/><circle cx="1590.8" cy="1994.8" r="2.2" fill="#26160e" opacity="0.053"/><circle cx="914.6" cy="2924.7" r="4.4" fill="#26160e" opacity="0.058"/><circle cx="2057" cy="610.8" r="3.8" fill="#26160e" opacity="0.041"/><circle cx="1986.2" cy="348.4" r="1.7" fill="#26160e" opacity="0.049"/><circle cx="1878.9" cy="434.5" r="4.1" fill="#26160e" opacity="0.058"/><circle cx="1368.3" cy="1313.2" r="4.4" fill="#26160e" opacity="0.034"/><circle cx="97.3" cy="103.3" r="2.4" fill="#26160e" opacity="0.061"/><circle cx="267.5" cy="1406.8" r="3.5" fill="#26160e" opacity="0.047"/><circle cx="1399" cy="679.1" r="2.7" fill="#26160e" opacity="0.049"/><circle cx="1254.1" cy="1068.3" r="2.6" fill="#26160e" opacity="0.075"/><circle cx="1040.3" cy="2697.6" r="1.6" fill="#26160e" opacity="0.053"/><circle cx="702.7" cy="2649.8" r="3.9" fill="#26160e" opacity="0.078"/><circle cx="861.7" cy="708" r="1.9" fill="#26160e" opacity="0.062"/><circle cx="826.8" cy="1349.3" r="4.4" fill="#26160e" opacity="0.031"/><circle cx="1747.9" cy="2218.6" r="4.4" fill="#26160e" opacity="0.067"/><circle cx="1238.5" cy="1575.9" r="1.5" fill="#26160e" opacity="0.042"/><circle cx="2088.9" cy="2568" r="3.5" fill="#26160e" opacity="0.057"/><circle cx="2321.1" cy="246" r="3.3" fill="#26160e" opacity="0.044"/><circle cx="1431" cy="339.2" r="3.3" fill="#26160e" opacity="0.053"/><circle cx="1898" cy="2888.3" r="3.4" fill="#26160e" opacity="0.032"/><circle cx="2238.8" cy="1856.9" r="2.1" fill="#26160e" opacity="0.057"/><circle cx="1755.1" cy="503.3" r="3" fill="#26160e" opacity="0.077"/><circle cx="1727.9" cy="1571.7" r="2.7" fill="#26160e" opacity="0.078"/><circle cx="1666.1" cy="1840.4" r="2" fill="#26160e" opacity="0.032"/><circle cx="951.9" cy="2661.8" r="2.2" fill="#26160e" opacity="0.054"/><circle cx="154.1" cy="1231.6" r="3.7" fill="#26160e" opacity="0.077"/><circle cx="1551.5" cy="2052.4" r="2.7" fill="#26160e" opacity="0.063"/><circle cx="1484.4" cy="61.2" r="2.7" fill="#26160e" opacity="0.032"/><circle cx="1509.9" cy="2830.4" r="1.8" fill="#26160e" opacity="0.069"/><circle cx="837.5" cy="479.4" r="4.3" fill="#26160e" opacity="0.032"/><circle cx="891.6" cy="1070.2" r="2.4" fill="#26160e" opacity="0.069"/><circle cx="1177.5" cy="2151.4" r="2.3" fill="#26160e" opacity="0.032"/><circle cx="1161" cy="119.4" r="3.5" fill="#26160e" opacity="0.066"/><circle cx="529.4" cy="2149.2" r="4" fill="#26160e" opacity="0.049"/><circle cx="1054.3" cy="1418.5" r="2.9" fill="#26160e" opacity="0.067"/><circle cx="112.8" cy="719.8" r="3" fill="#26160e" opacity="0.050"/><circle cx="1371.2" cy="1023.5" r="2.4" fill="#26160e" opacity="0.056"/><circle cx="2282" cy="2423.2" r="3.4" fill="#26160e" opacity="0.039"/><circle cx="367.7" cy="291.9" r="3.5" fill="#26160e" opacity="0.030"/><circle cx="1632.5" cy="1312.6" r="4.2" fill="#26160e" opacity="0.054"/><circle cx="1275.7" cy="178.3" r="3.5" fill="#26160e" opacity="0.035"/><circle cx="2136.9" cy="2383.2" r="4.1" fill="#26160e" opacity="0.077"/><circle cx="1367.4" cy="902" r="2.3" fill="#26160e" opacity="0.060"/><circle cx="1329.7" cy="588.8" r="3.2" fill="#26160e" opacity="0.069"/><circle cx="1390.2" cy="2929" r="3.6" fill="#26160e" opacity="0.035"/><circle cx="1568.2" cy="1211.6" r="2.7" fill="#26160e" opacity="0.044"/><circle cx="1538.3" cy="2946.7" r="1.9" fill="#26160e" opacity="0.073"/><circle cx="1497.5" cy="2708.3" r="3.7" fill="#26160e" opacity="0.078"/><circle cx="2065.6" cy="230.6" r="2.8" fill="#26160e" opacity="0.035"/><circle cx="1417.5" cy="1953.9" r="3.8" fill="#26160e" opacity="0.067"/><circle cx="473.2" cy="397.3" r="2.4" fill="#26160e" opacity="0.046"/><circle cx="1472.9" cy="1030.8" r="2.4" fill="#26160e" opacity="0.072"/><circle cx="2116.6" cy="1098.1" r="3.4" fill="#26160e" opacity="0.054"/><circle cx="1583.8" cy="145" r="2.8" fill="#26160e" opacity="0.069"/><circle cx="1305.2" cy="1950.3" r="3.1" fill="#26160e" opacity="0.079"/><circle cx="378.2" cy="2528.4" r="4" fill="#26160e" opacity="0.045"/><circle cx="1266" cy="2403.9" r="2.7" fill="#26160e" opacity="0.039"/><circle cx="2327.5" cy="1436.3" r="2.4" fill="#26160e" opacity="0.058"/><circle cx="1100" cy="487.7" r="3.9" fill="#26160e" opacity="0.059"/><circle cx="257.7" cy="2089.8" r="2.5" fill="#26160e" opacity="0.065"/><circle cx="2312.6" cy="1377.2" r="3.2" fill="#26160e" opacity="0.059"/><circle cx="148.8" cy="1649.8" r="2.8" fill="#26160e" opacity="0.044"/><circle cx="405.1" cy="1740" r="4.4" fill="#26160e" opacity="0.061"/><circle cx="1913.9" cy="1713.2" r="1.5" fill="#26160e" opacity="0.073"/><circle cx="2039.1" cy="2547.6" r="2.9" fill="#26160e" opacity="0.055"/><circle cx="494.8" cy="2895" r="3.9" fill="#26160e" opacity="0.071"/><circle cx="1318.3" cy="1313.3" r="3.4" fill="#26160e" opacity="0.065"/><circle cx="101.8" cy="1103.8" r="1.7" fill="#26160e" opacity="0.068"/><circle cx="1609.3" cy="455" r="2.3" fill="#26160e" opacity="0.049"/><circle cx="2359.6" cy="2344.4" r="4.3" fill="#26160e" opacity="0.048"/><circle cx="1571.6" cy="372" r="2.5" fill="#26160e" opacity="0.032"/><circle cx="598" cy="1463.1" r="4" fill="#26160e" opacity="0.044"/><rect x="190" y="190" width="2020" height="2620" fill="none" stroke="#26160e" stroke-width="14"/><rect x="260" y="260" width="1880" height="2480" fill="none" stroke="#26160e" stroke-width="7"/><rect x="148" y="148" width="84" height="84" fill="#8a4423"/><rect x="148" y="2768" width="84" height="84" fill="#8a4423"/><rect x="2168" y="148" width="84" height="84" fill="#8a4423"/><rect x="2168" y="2768" width="84" height="84" fill="#8a4423"/><path d="M1070,2120 L1100,1260 L1300,1260 L1330,2120 Z" fill="#26160e"/><rect x="900" y="1200" width="600" height="86" rx="30" fill="#26160e"/><line x1="930" y1="1243" x2="1470" y2="1243" stroke="#8a4423" stroke-width="14"/><rect x="934" y="1050" width="532" height="86" rx="30" fill="#26160e"/><line x1="964" y1="1093" x2="1436" y2="1093" stroke="#8a4423" stroke-width="14"/><rect x="968" y="900" width="464" height="86" rx="30" fill="#26160e"/><line x1="998" y1="943" x2="1402" y2="943" stroke="#8a4423" stroke-width="14"/><rect x="1002" y="750" width="396" height="86" rx="30" fill="#26160e"/><line x1="1032" y1="793" x2="1368" y2="793" stroke="#8a4423" stroke-width="14"/><rect x="870" y="2120" width="660" height="90" fill="#26160e"/><line x1="1096" y1="1380" x2="1096" y2="2080" stroke="#8a4423" stroke-width="12" opacity="0.7"/><line x1="1148" y1="1380" x2="1148" y2="2080" stroke="#8a4423" stroke-width="12" opacity="0.7"/><line x1="1200" y1="1380" x2="1200" y2="2080" stroke="#8a4423" stroke-width="12" opacity="0.7"/><line x1="1252" y1="1380" x2="1252" y2="2080" stroke="#8a4423" stroke-width="12" opacity="0.7"/><line x1="1304" y1="1380" x2="1304" y2="2080" stroke="#8a4423" stroke-width="12" opacity="0.7"/><polygon points="1952.1,2482.8 1962.2,2508.3 1987.6,2518.3 1962.2,2528.4 1952.1,2553.8 1942.1,2528.4 1916.6,2518.3 1942.1,2508.3 " fill="#8a4423"/><polygon points="428.6,2547.6 439.6,2575.6 467.6,2586.6 439.6,2597.7 428.6,2625.6 417.6,2597.7 389.6,2586.6 417.6,2575.6 " fill="#8a4423"/><polygon points="630.4,2453.3 641,2480.2 667.9,2490.7 641,2501.3 630.4,2528.2 619.8,2501.3 593,2490.7 619.8,2480.2 " fill="#8a4423"/><polygon points="1464.8,2449.4 1477.1,2480.5 1508.2,2492.8 1477.1,2505.1 1464.8,2536.2 1452.5,2505.1 1421.4,2492.8 1452.5,2480.5 " fill="#8a4423"/><polygon points="1964.4,2576.9 1975.3,2604.5 2002.9,2615.4 1975.3,2626.3 1964.4,2654 1953.5,2626.3 1925.9,2615.4 1953.5,2604.5 " fill="#8a4423"/><polygon points="1421.8,484.8 1431,508.1 1454.3,517.3 1431,526.5 1421.8,549.7 1412.7,526.5 1389.4,517.3 1412.7,508.1 " fill="#8a4423"/><rect x="100" y="100" width="2200" height="2800" fill="none" stroke="#26160e" stroke-width="9"/><rect x="142" y="142" width="2116" height="2716" fill="none" stroke="#26160e" stroke-width="3" opacity="0.65"/></svg></svg>