<svg xmlns="http://www.w3.org/2000/svg" width="2400" height="1800" viewBox="0 0 2400 1800"><rect width="2400" height="1800" fill="#dfe4dc"/><rect y="1400" width="2400" height="400" fill="#c2a67e"/><line x1="60" y1="1400" x2="10" y2="1800" stroke="#00000015" stroke-width="5"/><line x1="260" y1="1400" x2="210" y2="1800" stroke="#00000015" stroke-width="5"/><line x1="460" y1="1400" x2="410" y2="1800" stroke="#00000015" stroke-width="5"/><line x1="660" y1="1400" x2="610" y2="1800" stroke="#00000015" stroke-width="5"/><line x1="860" y1="1400" x2="810" y2="1800" stroke="#00000015" stroke-width="5"/><line x1="1060" y1="1400" x2="1010" y2="1800" stroke="#00000015" stroke-width="5"/><line x1="1260" y1="1400" x2="1210" y2="1800" stroke="#00000015" stroke-width="5"/><line x1="1460" y1="1400" x2="1410" y2="1800" stroke="#00000015" stroke-width="5"/><line x1="1660" y1="1400" x2="1610" y2="1800" stroke="#00000015" stroke-width="5"/><line x1="1860" y1="1400" x2="1810" y2="1800" stroke="#00000015" stroke-width="5"/><line x1="2060" y1="1400" x2="2010" y2="1800" stroke="#00000015" stroke-width="5"/><line x1="2260" y1="1400" x2="2210" y2="1800" stroke="#00000015" stroke-width="5"/><rect x="180" y="260" width="900" height="620" fill="#8a6a48"/><rect x="215" y="295" width="830" height="550" fill="#41524a"/><line x1="280" y1="420" x2="760" y2="420" stroke="#ffffff66" stroke-width="9" stroke-linecap="round"/><line x1="280" y1="520" x2="620" y2="520" stroke="#ffffff44" stroke-width="9" stroke-linecap="round"/><circle cx="880" cy="560" r="90" fill="none" stroke="#ffffff55" stroke-width="8"/><rect x="215" y="845" width="830" height="22" fill="#6f5436"/><rect x="330" y="1240" width="640" height="60" rx="10" fill="#9c7449"/><rect x="370" y="1300" width="60" height="240" fill="#8a6540"/><rect x="870" y="1300" width="60" height="240" fill="#8a6540"/><rect x="430" y="1160" width="150" height="80" rx="8" fill="#b3502f"/><rect x="450" y="1120" width="150" height="40" rx="8" fill="#cdb488"/><circle cx="800" cy="1130" r="86" fill="#7fa3b8"/><path d="M760,1060 Q820,1100 780,1190 M740,1090 Q800,1120 850,1100" stroke="#5d8069" stroke-width="16" fill="none" stroke-linecap="round"/><circle cx="800" cy="1130" r="86" fill="none" stroke="#6b5233" stroke-width="7"/><line x1="800" y1="1216" x2="800" y2="1250" stroke="#6b5233" stroke-width="10"/><rect x="750" y="1244" width="100" height="14" rx="7" fill="#6b5233"/><rect x="1980" y="700" width="300" height="800" fill="#9c7449"/><rect x="2000" y="930" width="260" height="16" fill="#7c5a37"/><rect x="2020" y="790" width="36" height="140" fill="#b3502f"/><rect x="2066" y="802" width="36" height="128" fill="#39685c"/><rect x="2112" y="790" width="36" height="140" fill="#c9a227"/><rect x="2158" y="802" width="36" height="128" fill="#2c4661"/><rect x="2204" y="790" width="36" height="140" fill="#8a4423"/><rect x="2000" y="1180" width="260" height="16" fill="#7c5a37"/><rect x="2020" y="1040" width="36" height="140" fill="#39685c"/><rect x="2066" y="1052" width="36" height="128" fill="#c9a227"/><rect x="2112" y="1040" width="36" height="140" fill="#2c4661"/><rect x="2158" y="1052" width="36" height="128" fill="#8a4423"/><rect x="2204" y="1040" width="36" height="140" fill="#b3502f"/><rect x="2000" y="1430" width="260" height="16" fill="#7c5a37"/><rect x="2020" y="1290" width="36" height="140" fill="#c9a227"/><rect x="2066" y="1302" width="36" height="128" fill="#2c4661"/><rect x="2112" y="1290" width="36" height="140" fill="#8a4423"/><rect x="2158" y="1302" width="36" height="128" fill="#b3502f"/><rect x="2204" y="1290" width="36" height="140" fill="#39685c"/><defs><filter id="a173c-sh" x="-30%" y="-30%" width="160%" height="160%"><feGaussianBlur stdDeviation="16"/></filter></defs><rect x="1340.5" y="298.5" width="517" height="635" fill="#000" opacity="0.28" filter="url(#a173c-sh)"/><rect x="1326.5" y="276.5" width="517" height="635" fill="#3d342a"/><rect x="1341.8" y="291.8" width="486.4" height="604.5" fill="none" stroke="#00000055" stroke-width="3"/><rect x="1350" y="300" width="470" height="588" fill="#f6f2ea"/><svg x="1385.3" y="335.3" width="399.5" height="517.5" viewBox="0 0 2400 3000" preserveAspectRatio="xMidYMid slice"><rect width="2400" height="3000" fill="#e4cfa4"/><radialGradient id="a173-vig" cx="50%" cy="42%" r="80%"><stop offset="55%" stop-color="#000" stop-opacity="0"/><stop offset="100%" stop-color="#000" stop-opacity="0.15"/></radialGradient><rect width="2400" height="3000" fill="url(#a173-vig)"/><circle cx="2297.3" cy="87.4" r="2.5" fill="#6e421d" opacity="0.037"/><circle cx="1029.9" cy="631.1" r="3.7" fill="#6e421d" opacity="0.055"/><circle cx="1800.5" cy="1768.9" r="1.8" fill="#6e421d" opacity="0.041"/><circle cx="579.5" cy="76.3" r="3.1" fill="#6e421d" opacity="0.068"/><circle cx="1691" cy="1869" r="3.2" fill="#6e421d" opacity="0.072"/><circle cx="234.9" cy="2665.5" r="3.2" fill="#6e421d" opacity="0.038"/><circle cx="1093.8" cy="295.9" r="4" fill="#6e421d" opacity="0.065"/><circle cx="1877.9" cy="2684.4" r="2.3" fill="#6e421d" opacity="0.045"/><circle cx="1977" cy="762.7" r="3.9" fill="#6e421d" opacity="0.068"/><circle cx="1469.4" cy="1079" r="2.8" fill="#6e421d" opacity="0.033"/><circle cx="1544.9" cy="1141.2" r="2.7" fill="#6e421d" opacity="0.053"/><circle cx="109.6" cy="2599.4" r="1.9" fill="#6e421d" opacity="0.066"/><circle cx="1301.9" cy="740.3" r="3.5" fill="#6e421d" opacity="0.078"/><circle cx="1150.2" cy="1786" r="1.7" fill="#6e421d" opacity="0.034"/><circle cx="151.1" cy="1777.6" r="3.4" fill="#6e421d" opacity="0.044"/><circle cx="1406.6" cy="671" r="2.2" fill="#6e421d" opacity="0.052"/><circle cx="2170.2" cy="629.2" r="2.6" fill="#6e421d" opacity="0.078"/><circle cx="910.3" cy="665.1" r="4.3" fill="#6e421d" opacity="0.036"/><circle cx="2006.9" cy="2719.6" r="4.1" fill="#6e421d" opacity="0.055"/><circle cx="1106.3" cy="872.8" r="2" fill="#6e421d" opacity="0.043"/><circle cx="680" cy="1939.9" r="1.6" fill="#6e421d" opacity="0.035"/><circle cx="125.3" cy="299" r="4" fill="#6e421d" opacity="0.061"/><circle cx="1695.1" cy="2894.8" r="2.2" fill="#6e421d" opacity="0.062"/><circle cx="1775.6" cy="2007.4" r="2.8" fill="#6e421d" opacity="0.031"/><circle cx="785.3" cy="2791.6" r="4.3" fill="#6e421d" opacity="0.056"/><circle cx="1547.9" cy="1100.6" r="2.9" fill="#6e421d" opacity="0.079"/><circle cx="676.9" cy="992.4" r="1.9" fill="#6e421d" opacity="0.044"/><circle cx="269.3" cy="1881.9" r="2.3" fill="#6e421d" opacity="0.077"/><circle cx="2341.7" cy="1492.4" r="3.5" fill="#6e421d" opacity="0.051"/><circle cx="953" cy="1533.5" r="2.2" fill="#6e421d" opacity="0.076"/><circle cx="325" cy="1921" r="2" fill="#6e421d" opacity="0.034"/><circle cx="1733.6" cy="2066.7" r="2.3" fill="#6e421d" opacity="0.031"/><circle cx="261.8" cy="1374.6" r="3.7" fill="#6e421d" opacity="0.059"/><circle cx="2177.8" cy="721.8" r="3.1" fill="#6e421d" opacity="0.045"/><circle cx="1578" cy="287.7" r="2.6" fill="#6e421d" opacity="0.065"/><circle cx="2016.5" cy="889.7" r="3.7" fill="#6e421d" opacity="0.041"/><circle cx="2132.6" cy="836.3" r="3.4" fill="#6e421d" opacity="0.031"/><circle cx="1940.3" cy="1988" r="2.1" fill="#6e421d" opacity="0.031"/><circle cx="1303.4" cy="730.7" r="3" fill="#6e421d" opacity="0.075"/><circle cx="1158.8" cy="1227.6" r="2.8" fill="#6e421d" opacity="0.040"/><circle cx="1028.6" cy="1907.6" r="3.1" fill="#6e421d" opacity="0.054"/><circle cx="2073.7" cy="1486.9" r="4.1" fill="#6e421d" opacity="0.039"/><circle cx="106.3" cy="2151.3" r="1.5" fill="#6e421d" opacity="0.047"/><circle cx="665.6" cy="932.9" r="4.1" fill="#6e421d" opacity="0.035"/><circle cx="439.9" cy="111.1" r="3.4" fill="#6e421d" opacity="0.036"/><circle cx="2044" cy="2283.3" r="3" fill="#6e421d" opacity="0.032"/><circle cx="2196.2" cy="2094.4" r="3.2" fill="#6e421d" opacity="0.053"/><circle cx="1319.9" cy="2834.9" r="2.9" fill="#6e421d" opacity="0.060"/><circle cx="1905.6" cy="962" r="2.3" fill="#6e421d" opacity="0.071"/><circle cx="267.1" cy="554.4" r="2.1" fill="#6e421d" opacity="0.067"/><circle cx="1321.9" cy="2786.4" r="2" fill="#6e421d" opacity="0.067"/><circle cx="314.5" cy="1801.9" r="3.7" fill="#6e421d" opacity="0.052"/><circle cx="524.6" cy="2520.7" r="3.8" fill="#6e421d" opacity="0.069"/><circle cx="972" cy="114.7" r="2.8" fill="#6e421d" opacity="0.042"/><circle cx="1467.6" cy="2755.7" r="2.8" fill="#6e421d" opacity="0.079"/><circle cx="1374.4" cy="2060" r="3.1" fill="#6e421d" opacity="0.077"/><circle cx="2243" cy="1878.7" r="3.8" fill="#6e421d" opacity="0.048"/><circle cx="867" cy="373" r="3.5" fill="#6e421d" opacity="0.043"/><circle cx="2320" cy="912.6" r="4.5" fill="#6e421d" opacity="0.044"/><circle cx="1267.9" cy="1051.9" r="3.3" fill="#6e421d" opacity="0.067"/><circle cx="292.3" cy="836.2" r="3" fill="#6e421d" opacity="0.047"/><circle cx="377.9" cy="2582.3" r="1.9" fill="#6e421d" opacity="0.045"/><circle cx="969.9" cy="1467.6" r="3.7" fill="#6e421d" opacity="0.033"/><circle cx="444.6" cy="765.6" r="3.4" fill="#6e421d" opacity="0.034"/><circle cx="1392.3" cy="226.8" r="2.1" fill="#6e421d" opacity="0.031"/><circle cx="2150.5" cy="1448.9" r="2.4" fill="#6e421d" opacity="0.068"/><circle cx="1149.9" cy="927.7" r="3.4" fill="#6e421d" opacity="0.062"/><circle cx="854.4" cy="773" r="3.7" fill="#6e421d" opacity="0.054"/><circle cx="73.2" cy="1207.8" r="1.6" fill="#6e421d" opacity="0.044"/><circle cx="264.7" cy="2301.5" r="2.1" fill="#6e421d" opacity="0.064"/><circle cx="2329.4" cy="1026.1" r="3.9" fill="#6e421d" opacity="0.069"/><circle cx="802.2" cy="2839" r="2.4" fill="#6e421d" opacity="0.054"/><circle cx="236.3" cy="1875.7" r="2.9" fill="#6e421d" opacity="0.068"/><circle cx="518.6" cy="1338.7" r="1.5" fill="#6e421d" opacity="0.056"/><circle cx="1398.8" cy="2731.8" r="3.1" fill="#6e421d" opacity="0.041"/><circle cx="977.1" cy="919" r="3.5" fill="#6e421d" opacity="0.035"/><circle cx="1258" cy="2063.5" r="3.3" fill="#6e421d" opacity="0.048"/><circle cx="1207" cy="2569.7" r="2.4" fill="#6e421d" opacity="0.030"/><circle cx="1653.2" cy="2662.1" r="2" fill="#6e421d" opacity="0.045"/><circle cx="615.2" cy="1564" r="2.2" fill="#6e421d" opacity="0.044"/><rect x="190" y="190" width="2020" height="2620" fill="none" stroke="#6e421d" stroke-width="14"/><rect x="260" y="260" width="1880" height="2480" fill="none" stroke="#6e421d" stroke-width="7"/><rect x="148" y="148" width="84" height="84" fill="#b3502f"/><rect x="148" y="2768" width="84" height="84" fill="#b3502f"/><rect x="2168" y="148" width="84" height="84" fill="#b3502f"/><rect x="2168" y="2768" width="84" height="84" fill="#b3502f"/><circle cx="1200" cy="1300" r="210" fill="#b3502f"/><circle cx="1200" cy="1300" r="252" fill="none" stroke="#6e421d" stroke-width="18"/><line x1="1040" y1="1320" x2="182.1" y2="1290" stroke="#6e421d" stroke-width="34" stroke-linecap="round"/><line x1="1040" y1="1320" x2="198.8" y2="1230.6" stroke="#6e421d" stroke-width="34" stroke-linecap="round"/><line x1="1040" y1="1320" x2="231.9" y2="1172.9" stroke="#6e421d" stroke-width="34" stroke-linecap="round"/><line x1="1040" y1="1320" x2="280.7" y2="1118.1" stroke="#6e421d" stroke-width="34" stroke-linecap="round"/><line x1="1040" y1="1320" x2="344.2" y2="1067.3" stroke="#6e421d" stroke-width="34" stroke-linecap="round"/><line x1="1040" y1="1320" x2="421.4" y2="1021.3" stroke="#6e421d" stroke-width="34" stroke-linecap="round"/><line x1="1040" y1="1320" x2="510.5" y2="981.2" stroke="#6e421d" stroke-width="34" stroke-linecap="round"/><line x1="1040" y1="1320" x2="610" y2="947.6" stroke="#6e421d" stroke-width="34" stroke-linecap="round"/><line x1="1040" y1="1320" x2="361.7" y2="1296.3" stroke="#6e421d" stroke-width="30" stroke-linecap="round"/><line x1="1040" y1="1320" x2="374.9" y2="1249.3" stroke="#6e421d" stroke-width="30" stroke-linecap="round"/><line x1="1040" y1="1320" x2="401" y2="1203.7" stroke="#6e421d" stroke-width="30" stroke-linecap="round"/><line x1="1040" y1="1320" x2="439.6" y2="1160.4" stroke="#6e421d" stroke-width="30" stroke-linecap="round"/><line x1="1040" y1="1320" x2="489.9" y2="1120.2" stroke="#6e421d" stroke-width="30" stroke-linecap="round"/><line x1="1040" y1="1320" x2="550.8" y2="1083.8" stroke="#6e421d" stroke-width="30" stroke-linecap="round"/><line x1="1040" y1="1320" x2="621.4" y2="1052.1" stroke="#6e421d" stroke-width="30" stroke-linecap="round"/><line x1="1040" y1="1320" x2="700" y2="1025.6" stroke="#6e421d" stroke-width="30" stroke-linecap="round"/><line x1="1040" y1="1320" x2="541.2" y2="1302.6" stroke="#6e421d" stroke-width="26" stroke-linecap="round"/><line x1="1040" y1="1320" x2="550.9" y2="1268" stroke="#6e421d" stroke-width="26" stroke-linecap="round"/><line x1="1040" y1="1320" x2="570.2" y2="1234.5" stroke="#6e421d" stroke-width="26" stroke-linecap="round"/><line x1="1040" y1="1320" x2="598.5" y2="1202.6" stroke="#6e421d" stroke-width="26" stroke-linecap="round"/><line x1="1040" y1="1320" x2="635.5" y2="1173.1" stroke="#6e421d" stroke-width="26" stroke-linecap="round"/><line x1="1040" y1="1320" x2="680.3" y2="1146.3" stroke="#6e421d" stroke-width="26" stroke-linecap="round"/><line x1="1040" y1="1320" x2="732.2" y2="1123" stroke="#6e421d" stroke-width="26" stroke-linecap="round"/><line x1="1040" y1="1320" x2="790" y2="1103.5" stroke="#6e421d" stroke-width="26" stroke-linecap="round"/><path d="M1070,1500 q -40,260 -200,380" fill="none" stroke="#6e421d" stroke-width="30" stroke-linecap="round"/><line x1="1360" y1="1320" x2="2217.9" y2="1290" stroke="#6e421d" stroke-width="34" stroke-linecap="round"/><line x1="1360" y1="1320" x2="2201.2" y2="1230.6" stroke="#6e421d" stroke-width="34" stroke-linecap="round"/><line x1="1360" y1="1320" x2="2168.1" y2="1172.9" stroke="#6e421d" stroke-width="34" stroke-linecap="round"/><line x1="1360" y1="1320" x2="2119.3" y2="1118.1" stroke="#6e421d" stroke-width="34" stroke-linecap="round"/><line x1="1360" y1="1320" x2="2055.8" y2="1067.3" stroke="#6e421d" stroke-width="34" stroke-linecap="round"/><line x1="1360" y1="1320" x2="1978.6" y2="1021.3" stroke="#6e421d" stroke-width="34" stroke-linecap="round"/><line x1="1360" y1="1320" x2="1889.5" y2="981.2" stroke="#6e421d" stroke-width="34" stroke-linecap="round"/><line x1="1360" y1="1320" x2="1790" y2="947.6" stroke="#6e421d" stroke-width="34" stroke-linecap="round"/><line x1="1360" y1="1320" x2="2038.3" y2="1296.3" stroke="#6e421d" stroke-width="30" stroke-linecap="round"/><line x1="1360" y1="1320" x2="2025.1" y2="1249.3" stroke="#6e421d" stroke-width="30" stroke-linecap="round"/><line x1="1360" y1="1320" x2="1999" y2="1203.7" stroke="#6e421d" stroke-width="30" stroke-linecap="round"/><line x1="1360" y1="1320" x2="1960.4" y2="1160.4" stroke="#6e421d" stroke-width="30" stroke-linecap="round"/><line x1="1360" y1="1320" x2="1910.1" y2="1120.2" stroke="#6e421d" stroke-width="30" stroke-linecap="round"/><line x1="1360" y1="1320" x2="1849.2" y2="1083.8" stroke="#6e421d" stroke-width="30" stroke-linecap="round"/><line x1="1360" y1="1320" x2="1778.6" y2="1052.1" stroke="#6e421d" stroke-width="30" stroke-linecap="round"/><line x1="1360" y1="1320" x2="1700" y2="1025.6" stroke="#6e421d" stroke-width="30" stroke-linecap="round"/><line x1="1360" y1="1320" x2="1858.8" y2="1302.6" stroke="#6e421d" stroke-width="26" stroke-linecap="round"/><line x1="1360" y1="1320" x2="1849.1" y2="1268" stroke="#6e421d" stroke-width="26" stroke-linecap="round"/><line x1="1360" y1="1320" x2="1829.8" y2="1234.5" stroke="#6e421d" stroke-width="26" stroke-linecap="round"/><line x1="1360" y1="1320" x2="1801.5" y2="1202.6" stroke="#6e421d" stroke-width="26" stroke-linecap="round"/><line x1="1360" y1="1320" x2="1764.5" y2="1173.1" stroke="#6e421d" stroke-width="26" stroke-linecap="round"/><line x1="1360" y1="1320" x2="1719.7" y2="1146.3" stroke="#6e421d" stroke-width="26" stroke-linecap="round"/><line x1="1360" y1="1320" x2="1667.8" y2="1123" stroke="#6e421d" stroke-width="26" stroke-linecap="round"/><line x1="1360" y1="1320" x2="1610" y2="1103.5" stroke="#6e421d" stroke-width="26" stroke-linecap="round"/><path d="M1330,1500 q 40,260 200,380" fill="none" stroke="#6e421d" stroke-width="30" stroke-linecap="round"/><polygon points="878.6,2531.1 886.3,2550.4 905.6,2558 886.3,2565.6 878.6,2585 871,2565.6 851.7,2558 871,2550.4 " fill="#b3502f"/><polygon points="1467.4,2460.2 1479.1,2489.9 1508.8,2501.6 1479.1,2513.4 1467.4,2543.1 1455.7,2513.4 1426,2501.6 1455.7,2489.9 " fill="#b3502f"/><polygon points="1935.6,2487.8 1947.2,2517.4 1976.8,2529 1947.2,2540.7 1935.6,2570.3 1923.9,2540.7 1894.3,2529 1923.9,2517.4 " fill="#b3502f"/><polygon points="1806.2,407.6 1815.4,431 1838.7,440.2 1815.4,449.4 1806.2,472.8 1796.9,449.4 1773.6,440.2 1796.9,431 " fill="#b3502f"/><polygon points="1043.3,2449.8 1054.9,2479.3 1084.4,2490.9 1054.9,2502.5 1043.3,2531.9 1031.7,2502.5 1002.2,2490.9 1031.7,2479.3 " fill="#b3502f"/><polygon points="899,2492 908.4,2515.8 932.3,2525.2 908.4,2534.6 899,2558.4 889.6,2534.6 865.8,2525.2 889.6,2515.8 " fill="#b3502f"/><rect x="100" y="100" width="2200" height="2800" fill="none" stroke="#6e421d" stroke-width="9"/><rect x="142" y="142" width="2116" height="2716" fill="none" stroke="#6e421d" stroke-width="3" opacity="0.65"/></svg></svg>