<svg xmlns="http://www.w3.org/2000/svg" width="2400" height="1800" viewBox="0 0 2400 1800"><rect width="2400" height="1800" fill="#dfe4dc"/><rect y="1400" width="2400" height="400" fill="#c2a67e"/><line x1="60" y1="1400" x2="10" y2="1800" stroke="#00000015" stroke-width="5"/><line x1="260" y1="1400" x2="210" y2="1800" stroke="#00000015" stroke-width="5"/><line x1="460" y1="1400" x2="410" y2="1800" stroke="#00000015" stroke-width="5"/><line x1="660" y1="1400" x2="610" y2="1800" stroke="#00000015" stroke-width="5"/><line x1="860" y1="1400" x2="810" y2="1800" stroke="#00000015" stroke-width="5"/><line x1="1060" y1="1400" x2="1010" y2="1800" stroke="#00000015" stroke-width="5"/><line x1="1260" y1="1400" x2="1210" y2="1800" stroke="#00000015" stroke-width="5"/><line x1="1460" y1="1400" x2="1410" y2="1800" stroke="#00000015" stroke-width="5"/><line x1="1660" y1="1400" x2="1610" y2="1800" stroke="#00000015" stroke-width="5"/><line x1="1860" y1="1400" x2="1810" y2="1800" stroke="#00000015" stroke-width="5"/><line x1="2060" y1="1400" x2="2010" y2="1800" stroke="#00000015" stroke-width="5"/><line x1="2260" y1="1400" x2="2210" y2="1800" stroke="#00000015" stroke-width="5"/><rect x="180" y="260" width="900" height="620" fill="#8a6a48"/><rect x="215" y="295" width="830" height="550" fill="#41524a"/><line x1="280" y1="420" x2="760" y2="420" stroke="#ffffff66" stroke-width="9" stroke-linecap="round"/><line x1="280" y1="520" x2="620" y2="520" stroke="#ffffff44" stroke-width="9" stroke-linecap="round"/><circle cx="880" cy="560" r="90" fill="none" stroke="#ffffff55" stroke-width="8"/><rect x="215" y="845" width="830" height="22" fill="#6f5436"/><rect x="330" y="1240" width="640" height="60" rx="10" fill="#9c7449"/><rect x="370" y="1300" width="60" height="240" fill="#8a6540"/><rect x="870" y="1300" width="60" height="240" fill="#8a6540"/><rect x="430" y="1160" width="150" height="80" rx="8" fill="#e0a077"/><rect x="450" y="1120" width="150" height="40" rx="8" fill="#4a2c1c"/><circle cx="800" cy="1130" r="86" fill="#7fa3b8"/><path d="M760,1060 Q820,1100 780,1190 M740,1090 Q800,1120 850,1100" stroke="#5d8069" stroke-width="16" fill="none" stroke-linecap="round"/><circle cx="800" cy="1130" r="86" fill="none" stroke="#6b5233" stroke-width="7"/><line x1="800" y1="1216" x2="800" y2="1250" stroke="#6b5233" stroke-width="10"/><rect x="750" y="1244" width="100" height="14" rx="7" fill="#6b5233"/><rect x="1980" y="700" width="300" height="800" fill="#9c7449"/><rect x="2000" y="930" width="260" height="16" fill="#7c5a37"/><rect x="2020" y="790" width="36" height="140" fill="#b3502f"/><rect x="2066" y="802" width="36" height="128" fill="#39685c"/><rect x="2112" y="790" width="36" height="140" fill="#c9a227"/><rect x="2158" y="802" width="36" height="128" fill="#2c4661"/><rect x="2204" y="790" width="36" height="140" fill="#8a4423"/><rect x="2000" y="1180" width="260" height="16" fill="#7c5a37"/><rect x="2020" y="1040" width="36" height="140" fill="#39685c"/><rect x="2066" y="1052" width="36" height="128" fill="#c9a227"/><rect x="2112" y="1040" width="36" height="140" fill="#2c4661"/><rect x="2158" y="1052" width="36" height="128" fill="#8a4423"/><rect x="2204" y="1040" width="36" height="140" fill="#b3502f"/><rect x="2000" y="1430" width="260" height="16" fill="#7c5a37"/><rect x="2020" y="1290" width="36" height="140" fill="#c9a227"/><rect x="2066" y="1302" width="36" height="128" fill="#2c4661"/><rect x="2112" y="1290" width="36" height="140" fill="#8a4423"/><rect x="2158" y="1302" width="36" height="128" fill="#b3502f"/><rect x="2204" y="1290" width="36" height="140" fill="#39685c"/><defs><filter id="a170c-sh" x="-30%" y="-30%" width="160%" height="160%"><feGaussianBlur stdDeviation="16"/></filter></defs><rect x="1340.5" y="298.5" width="517" height="635" fill="#000" opacity="0.28" filter="url(#a170c-sh)"/><rect x="1326.5" y="276.5" width="517" height="635" fill="#3d342a"/><rect x="1341.8" y="291.8" width="486.4" height="604.5" fill="none" stroke="#00000055" stroke-width="3"/><rect x="1350" y="300" width="470" height="588" fill="#f6f2ea"/><svg x="1385.3" y="335.3" width="399.5" height="517.5" viewBox="0 0 2400 3000" preserveAspectRatio="xMidYMid slice"><rect width="2400" height="3000" fill="#211510"/><radialGradient id="a170-vig" cx="50%" cy="42%" r="80%"><stop offset="55%" stop-color="#000" stop-opacity="0"/><stop offset="100%" stop-color="#000" stop-opacity="0.15"/></radialGradient><rect width="2400" height="3000" fill="url(#a170-vig)"/><circle cx="528.7" cy="177.7" r="2.1" fill="#c8703f" opacity="0.056"/><circle cx="573" cy="2715.6" r="2.8" fill="#c8703f" opacity="0.064"/><circle cx="1318" cy="2359.8" r="2.2" fill="#c8703f" opacity="0.050"/><circle cx="1500.7" cy="654.2" r="3.3" fill="#c8703f" opacity="0.071"/><circle cx="2040" cy="1077.3" r="2.3" fill="#c8703f" opacity="0.080"/><circle cx="91.7" cy="653.8" r="3.8" fill="#c8703f" opacity="0.057"/><circle cx="994.3" cy="2001.2" r="3.2" fill="#c8703f" opacity="0.076"/><circle cx="917.7" cy="121.9" r="4" fill="#c8703f" opacity="0.036"/><circle cx="1343.8" cy="1454" r="3.3" fill="#c8703f" opacity="0.071"/><circle cx="267.1" cy="1977.4" r="2.2" fill="#c8703f" opacity="0.047"/><circle cx="736.2" cy="1968.2" r="1.6" fill="#c8703f" opacity="0.059"/><circle cx="1474.4" cy="1069.6" r="2.1" fill="#c8703f" opacity="0.077"/><circle cx="939.2" cy="2280.1" r="2.5" fill="#c8703f" opacity="0.043"/><circle cx="1993.6" cy="1719.9" r="3.9" fill="#c8703f" opacity="0.064"/><circle cx="497" cy="2455.1" r="3.3" fill="#c8703f" opacity="0.040"/><circle cx="1684.8" cy="443.3" r="3.3" fill="#c8703f" opacity="0.076"/><circle cx="1562.8" cy="589.3" r="4.5" fill="#c8703f" opacity="0.041"/><circle cx="1302.7" cy="2037.9" r="3.7" fill="#c8703f" opacity="0.045"/><circle cx="1489.5" cy="1957.7" r="2.9" fill="#c8703f" opacity="0.072"/><circle cx="1287.7" cy="1982.9" r="1.8" fill="#c8703f" opacity="0.046"/><circle cx="935.7" cy="2830.8" r="3.4" fill="#c8703f" opacity="0.039"/><circle cx="712.6" cy="428.6" r="2.6" fill="#c8703f" opacity="0.042"/><circle cx="1019.8" cy="784.4" r="3.5" fill="#c8703f" opacity="0.077"/><circle cx="1483.5" cy="1133.9" r="2.7" fill="#c8703f" opacity="0.057"/><circle cx="2178.7" cy="2067.7" r="3.7" fill="#c8703f" opacity="0.075"/><circle cx="1519.1" cy="2590" r="3.8" fill="#c8703f" opacity="0.040"/><circle cx="349.5" cy="387.1" r="4.2" fill="#c8703f" opacity="0.031"/><circle cx="1788.3" cy="2796.6" r="1.9" fill="#c8703f" opacity="0.039"/><circle cx="1284.4" cy="169.7" r="1.7" fill="#c8703f" opacity="0.074"/><circle cx="900" cy="1711.3" r="3.2" fill="#c8703f" opacity="0.043"/><circle cx="1513.3" cy="1949.5" r="1.7" fill="#c8703f" opacity="0.067"/><circle cx="2359" cy="500.4" r="3.6" fill="#c8703f" opacity="0.042"/><circle cx="744.3" cy="1614.6" r="3.1" fill="#c8703f" opacity="0.039"/><circle cx="2147.2" cy="903.5" r="2.1" fill="#c8703f" opacity="0.067"/><circle cx="1069.4" cy="2730.3" r="4.1" fill="#c8703f" opacity="0.032"/><circle cx="212.3" cy="1389.4" r="3.8" fill="#c8703f" opacity="0.047"/><circle cx="480.5" cy="1247.7" r="3.8" fill="#c8703f" opacity="0.067"/><circle cx="1203.3" cy="1580.9" r="3" fill="#c8703f" opacity="0.038"/><circle cx="424.4" cy="515.3" r="4.4" fill="#c8703f" opacity="0.073"/><circle cx="1844.3" cy="1304.5" r="2.6" fill="#c8703f" opacity="0.056"/><circle cx="1367.4" cy="212.8" r="3.4" fill="#c8703f" opacity="0.044"/><circle cx="569.4" cy="2436.1" r="3.4" fill="#c8703f" opacity="0.061"/><circle cx="206.4" cy="2344.4" r="4" fill="#c8703f" opacity="0.072"/><circle cx="2003.6" cy="89" r="2.9" fill="#c8703f" opacity="0.074"/><circle cx="1017.8" cy="2939.6" r="2.9" fill="#c8703f" opacity="0.060"/><circle cx="1154.7" cy="1602.3" r="3.9" fill="#c8703f" opacity="0.046"/><circle cx="1613.1" cy="371.3" r="2.5" fill="#c8703f" opacity="0.073"/><circle cx="254.8" cy="1283.4" r="2.2" fill="#c8703f" opacity="0.077"/><circle cx="1887.2" cy="2466.5" r="2.2" fill="#c8703f" opacity="0.050"/><circle cx="634.8" cy="2532.2" r="2.7" fill="#c8703f" opacity="0.067"/><circle cx="1304.3" cy="686.8" r="2.3" fill="#c8703f" opacity="0.056"/><circle cx="1238.2" cy="2849.1" r="1.7" fill="#c8703f" opacity="0.045"/><circle cx="985.1" cy="836.6" r="3.1" fill="#c8703f" opacity="0.060"/><circle cx="1098.9" cy="2613.2" r="2.6" fill="#c8703f" opacity="0.061"/><circle cx="515.8" cy="701.5" r="1.9" fill="#c8703f" opacity="0.051"/><circle cx="1852.4" cy="1505.5" r="4.4" fill="#c8703f" opacity="0.046"/><circle cx="2328.1" cy="831.1" r="3.2" fill="#c8703f" opacity="0.051"/><circle cx="817" cy="1970.7" r="3.4" fill="#c8703f" opacity="0.078"/><circle cx="522.5" cy="673.4" r="3" fill="#c8703f" opacity="0.037"/><circle cx="2030.7" cy="1458.6" r="2.8" fill="#c8703f" opacity="0.048"/><circle cx="1841.3" cy="1770.7" r="2.4" fill="#c8703f" opacity="0.033"/><circle cx="631.4" cy="2794.8" r="3.6" fill="#c8703f" opacity="0.077"/><circle cx="2044.9" cy="458.1" r="4" fill="#c8703f" opacity="0.065"/><circle cx="1599" cy="310.5" r="2.5" fill="#c8703f" opacity="0.036"/><circle cx="692.9" cy="1452.4" r="4.3" fill="#c8703f" opacity="0.070"/><circle cx="615.6" cy="2729.8" r="2.3" fill="#c8703f" opacity="0.059"/><circle cx="1287.7" cy="2662" r="2.3" fill="#c8703f" opacity="0.073"/><circle cx="2058.3" cy="1658.5" r="2.6" fill="#c8703f" opacity="0.069"/><circle cx="1327.3" cy="358.2" r="2.3" fill="#c8703f" opacity="0.066"/><circle cx="1154.3" cy="684.7" r="2.7" fill="#c8703f" opacity="0.056"/><circle cx="1123.6" cy="2156.9" r="2.8" fill="#c8703f" opacity="0.062"/><circle cx="2324.7" cy="411.3" r="4" fill="#c8703f" opacity="0.064"/><circle cx="1131.2" cy="1549" r="3.8" fill="#c8703f" opacity="0.066"/><circle cx="980.9" cy="744.1" r="3.6" fill="#c8703f" opacity="0.043"/><circle cx="576.5" cy="215.3" r="2.5" fill="#c8703f" opacity="0.047"/><circle cx="1981.3" cy="125.3" r="3.2" fill="#c8703f" opacity="0.043"/><circle cx="1716" cy="1600" r="2.5" fill="#c8703f" opacity="0.048"/><circle cx="1972.8" cy="1359.4" r="2.2" fill="#c8703f" opacity="0.057"/><circle cx="2294.8" cy="2579.4" r="3.6" fill="#c8703f" opacity="0.065"/><circle cx="1646" cy="2268.5" r="1.9" fill="#c8703f" opacity="0.037"/><rect x="190" y="190" width="2020" height="2620" fill="none" stroke="#c8703f" stroke-width="14"/><rect x="260" y="260" width="1880" height="2480" fill="none" stroke="#c8703f" stroke-width="7"/><rect x="148" y="148" width="84" height="84" fill="#e0a077"/><rect x="148" y="2768" width="84" height="84" fill="#e0a077"/><rect x="2168" y="148" width="84" height="84" fill="#e0a077"/><rect x="2168" y="2768" width="84" height="84" fill="#e0a077"/><ellipse cx="1200" cy="960" rx="230" ry="300" fill="none" stroke="#c8703f" stroke-width="110"/><rect x="1148" y="1230" width="104" height="900" rx="40" fill="#c8703f"/><rect x="800" y="1230" width="800" height="104" rx="40" fill="#c8703f"/><circle cx="1200" cy="960" r="66" fill="#e0a077"/><polygon points="722.2,2551 730.2,2571.2 750.4,2579.2 730.2,2587.1 722.2,2607.3 714.3,2587.1 694.1,2579.2 714.3,2571.2 " fill="#e0a077"/><polygon points="770.1,2468.5 781.1,2496.3 808.8,2507.2 781.1,2518.2 770.1,2545.9 759.2,2518.2 731.4,2507.2 759.2,2496.3 " fill="#e0a077"/><polygon points="1905.5,395.8 1915.1,420.3 1939.6,430 1915.1,439.7 1905.5,464.2 1895.8,439.7 1871.3,430 1895.8,420.3 " fill="#e0a077"/><polygon points="1196.3,2418.6 1205.7,2442.5 1229.7,2452 1205.7,2461.4 1196.3,2485.3 1186.9,2461.4 1162.9,2452 1186.9,2442.5 " fill="#e0a077"/><polygon points="1737.1,2448.4 1746.6,2472.4 1770.6,2481.9 1746.6,2491.4 1737.1,2515.5 1727.6,2491.4 1703.5,2481.9 1727.6,2472.4 " fill="#e0a077"/><polygon points="1880.6,456.3 1890.2,480.7 1914.6,490.3 1890.2,500 1880.6,524.3 1870.9,500 1846.6,490.3 1870.9,480.7 " fill="#e0a077"/><rect x="100" y="100" width="2200" height="2800" fill="none" stroke="#c8703f" stroke-width="9"/><rect x="142" y="142" width="2116" height="2716" fill="none" stroke="#c8703f" stroke-width="3" opacity="0.65"/></svg></svg>