<svg xmlns="http://www.w3.org/2000/svg" width="2400" height="1800" viewBox="0 0 2400 1800"><rect width="2400" height="1800" fill="#e9e1d2"/><rect y="1430" width="2400" height="370" fill="#c8b190"/><line x1="120" y1="1430" x2="60" y2="1800" stroke="#00000018" stroke-width="6"/><line x1="380" y1="1430" x2="320" y2="1800" stroke="#00000018" stroke-width="6"/><line x1="640" y1="1430" x2="580" y2="1800" stroke="#00000018" stroke-width="6"/><line x1="900" y1="1430" x2="840" y2="1800" stroke="#00000018" stroke-width="6"/><line x1="1160" y1="1430" x2="1100" y2="1800" stroke="#00000018" stroke-width="6"/><line x1="1420" y1="1430" x2="1360" y2="1800" stroke="#00000018" stroke-width="6"/><line x1="1680" y1="1430" x2="1620" y2="1800" stroke="#00000018" stroke-width="6"/><line x1="1940" y1="1430" x2="1880" y2="1800" stroke="#00000018" stroke-width="6"/><line x1="2200" y1="1430" x2="2140" y2="1800" stroke="#00000018" stroke-width="6"/><rect y="1418" width="2400" height="16" fill="#d7cbb6"/><rect x="700" y="980" width="1000" height="460" rx="26" fill="#a87e57"/><rect x="660" y="1290" width="1080" height="210" rx="30" fill="#f1ebdf"/><rect x="660" y="1420" width="1080" height="120" rx="24" fill="#96a396" opacity="0.85"/><rect x="770" y="1180" width="300" height="150" rx="40" fill="#faf6ec"/><rect x="1330" y="1180" width="300" height="150" rx="40" fill="#cfc7b2"/><rect x="640" y="1530" width="1120" height="26" rx="12" fill="#a87e57"/><rect x="360" y="1260" width="240" height="220" rx="10" fill="#a87e57"/><rect x="380" y="1300" width="200" height="14" fill="#00000022"/><line x1="480" y1="1260" x2="480" y2="1130" stroke="#5a4632" stroke-width="12"/><path d="M410,1130 L550,1130 L520,1020 L440,1020 Z" fill="#96a396"/><path d="M2060,1520 Q 1910,1282.5 1835,1345" fill="none" stroke="#5d7052" stroke-width="20" stroke-linecap="round"/><path d="M2060,1520 Q 1960,1282.5 1910,1295" fill="none" stroke="#5d7052" stroke-width="20" stroke-linecap="round"/><path d="M2060,1520 Q 2010,1282.5 1985,1245" fill="none" stroke="#5d7052" stroke-width="20" stroke-linecap="round"/><path d="M2060,1520 Q 2060,1282.5 2060,1195" fill="none" stroke="#5d7052" stroke-width="20" stroke-linecap="round"/><path d="M2060,1520 Q 2110,1282.5 2135,1245" fill="none" stroke="#5d7052" stroke-width="20" stroke-linecap="round"/><path d="M2060,1520 Q 2160,1282.5 2210,1295" fill="none" stroke="#5d7052" stroke-width="20" stroke-linecap="round"/><path d="M2060,1520 Q 2210,1282.5 2285,1345" fill="none" stroke="#5d7052" stroke-width="20" stroke-linecap="round"/><path d="M1972.5,1520 L2147.5,1520 L2125,1657.5 L1995,1657.5 Z" fill="#a9714d"/><defs><filter id="a136b-sh" x="-30%" y="-30%" width="160%" height="160%"><feGaussianBlur stdDeviation="16"/></filter></defs><rect x="928" y="246" width="572" height="702" fill="#000" opacity="0.28" filter="url(#a136b-sh)"/><rect x="914" y="224" width="572" height="702" fill="#4a3d2f"/><rect x="930.9" y="240.9" width="538.2" height="668.2" fill="none" stroke="#00000055" stroke-width="3"/><rect x="940" y="250" width="520" height="650" fill="#f6f2ea"/><svg x="979" y="289" width="442" height="572" viewBox="0 0 2400 3000" preserveAspectRatio="xMidYMid slice"><rect width="2400" height="3000" fill="#e7e1d3"/><radialGradient id="a136-vig" cx="50%" cy="42%" r="80%"><stop offset="55%" stop-color="#000" stop-opacity="0"/><stop offset="100%" stop-color="#000" stop-opacity="0.15"/></radialGradient><rect width="2400" height="3000" fill="url(#a136-vig)"/><circle cx="1117.4" cy="2819.1" r="3.1" fill="#39685c" opacity="0.039"/><circle cx="259.9" cy="1788.7" r="1.6" fill="#39685c" opacity="0.065"/><circle cx="1038.5" cy="2850.6" r="2.5" fill="#39685c" opacity="0.076"/><circle cx="2101.2" cy="1226.2" r="1.5" fill="#39685c" opacity="0.076"/><circle cx="120.4" cy="1091.4" r="1.5" fill="#39685c" opacity="0.049"/><circle cx="586.2" cy="1952.8" r="1.8" fill="#39685c" opacity="0.054"/><circle cx="2028" cy="2752.8" r="2.2" fill="#39685c" opacity="0.034"/><circle cx="267.8" cy="1886.5" r="2.8" fill="#39685c" opacity="0.030"/><circle cx="2294.3" cy="235.4" r="4.2" fill="#39685c" opacity="0.067"/><circle cx="289" cy="1291.1" r="4.4" fill="#39685c" opacity="0.062"/><circle cx="1967" cy="2782.1" r="3" fill="#39685c" opacity="0.069"/><circle cx="1726.4" cy="1428.5" r="1.7" fill="#39685c" opacity="0.062"/><circle cx="831.2" cy="656.8" r="2.4" fill="#39685c" opacity="0.077"/><circle cx="273.3" cy="911.6" r="4.4" fill="#39685c" opacity="0.052"/><circle cx="1137.3" cy="109.5" r="3.9" fill="#39685c" opacity="0.057"/><circle cx="299.2" cy="401.2" r="4" fill="#39685c" opacity="0.057"/><circle cx="1196.1" cy="1991.2" r="3.4" fill="#39685c" opacity="0.038"/><circle cx="1571.5" cy="1134.2" r="4.1" fill="#39685c" opacity="0.037"/><circle cx="2205.7" cy="1445.3" r="4" fill="#39685c" opacity="0.053"/><circle cx="1885.7" cy="2726.9" r="4.1" fill="#39685c" opacity="0.069"/><circle cx="837.3" cy="595.4" r="2.3" fill="#39685c" opacity="0.073"/><circle cx="2152.7" cy="2397.2" r="3.3" fill="#39685c" opacity="0.065"/><circle cx="1218.5" cy="1643.4" r="2" fill="#39685c" opacity="0.031"/><circle cx="711.6" cy="1040.7" r="1.6" fill="#39685c" opacity="0.030"/><circle cx="2262.3" cy="2300.4" r="1.8" fill="#39685c" opacity="0.058"/><circle cx="1594.1" cy="2824.5" r="3.8" fill="#39685c" opacity="0.034"/><circle cx="344.5" cy="967.8" r="1.9" fill="#39685c" opacity="0.045"/><circle cx="2179.2" cy="1437.7" r="3.7" fill="#39685c" opacity="0.045"/><circle cx="1647.1" cy="1158.1" r="1.5" fill="#39685c" opacity="0.059"/><circle cx="2096.2" cy="267.6" r="3.3" fill="#39685c" opacity="0.078"/><circle cx="2190.7" cy="1148.6" r="4.4" fill="#39685c" opacity="0.057"/><circle cx="2155.9" cy="2000.5" r="4.3" fill="#39685c" opacity="0.075"/><circle cx="564.1" cy="2105" r="3.5" fill="#39685c" opacity="0.041"/><circle cx="2287.3" cy="2252.3" r="4" fill="#39685c" opacity="0.051"/><circle cx="829.6" cy="1133.2" r="1.7" fill="#39685c" opacity="0.073"/><circle cx="1343.9" cy="1031.1" r="2.1" fill="#39685c" opacity="0.079"/><circle cx="928.1" cy="580.3" r="3.9" fill="#39685c" opacity="0.040"/><circle cx="234.9" cy="1821.7" r="1.6" fill="#39685c" opacity="0.070"/><circle cx="1074.3" cy="1531" r="3.3" fill="#39685c" opacity="0.079"/><circle cx="769.3" cy="1706.3" r="3.4" fill="#39685c" opacity="0.062"/><circle cx="855.4" cy="2128.7" r="3.7" fill="#39685c" opacity="0.060"/><circle cx="582" cy="737.3" r="2.7" fill="#39685c" opacity="0.050"/><circle cx="1932.8" cy="50.5" r="3.4" fill="#39685c" opacity="0.039"/><circle cx="593.5" cy="1282.5" r="2.3" fill="#39685c" opacity="0.039"/><circle cx="204.3" cy="2677.5" r="2.3" fill="#39685c" opacity="0.060"/><circle cx="2346.2" cy="1753.2" r="3" fill="#39685c" opacity="0.062"/><circle cx="1765.3" cy="1648" r="2.5" fill="#39685c" opacity="0.062"/><circle cx="302.2" cy="184.3" r="3.9" fill="#39685c" opacity="0.049"/><circle cx="1232.5" cy="2600.2" r="2.6" fill="#39685c" opacity="0.045"/><circle cx="1110.3" cy="539.8" r="2.5" fill="#39685c" opacity="0.048"/><circle cx="1614.2" cy="1206.9" r="2.6" fill="#39685c" opacity="0.032"/><circle cx="2150.7" cy="1487.1" r="2.9" fill="#39685c" opacity="0.033"/><circle cx="100.5" cy="1762.7" r="2.9" fill="#39685c" opacity="0.055"/><circle cx="1863.7" cy="1746.9" r="4" fill="#39685c" opacity="0.047"/><circle cx="1292.3" cy="2169.8" r="4.2" fill="#39685c" opacity="0.062"/><circle cx="1041.6" cy="2487" r="2.6" fill="#39685c" opacity="0.074"/><circle cx="132.6" cy="2134.3" r="3.9" fill="#39685c" opacity="0.041"/><circle cx="901.8" cy="2735" r="3.1" fill="#39685c" opacity="0.054"/><circle cx="2244.7" cy="2372.3" r="2.9" fill="#39685c" opacity="0.063"/><circle cx="2111" cy="1613.4" r="1.7" fill="#39685c" opacity="0.063"/><circle cx="1689.8" cy="699.9" r="3.7" fill="#39685c" opacity="0.063"/><circle cx="1221.7" cy="2188.3" r="1.9" fill="#39685c" opacity="0.037"/><circle cx="1761.8" cy="1897.3" r="3.2" fill="#39685c" opacity="0.077"/><circle cx="1253.2" cy="1453.1" r="1.8" fill="#39685c" opacity="0.039"/><circle cx="168" cy="2954" r="2.1" fill="#39685c" opacity="0.037"/><circle cx="139.8" cy="2943.1" r="2.2" fill="#39685c" opacity="0.031"/><circle cx="174.7" cy="2274.1" r="2.9" fill="#39685c" opacity="0.068"/><circle cx="2242" cy="1711.1" r="2" fill="#39685c" opacity="0.051"/><circle cx="2044.2" cy="2620.5" r="3.2" fill="#39685c" opacity="0.070"/><circle cx="910.2" cy="2066.1" r="2.6" fill="#39685c" opacity="0.071"/><circle cx="654.8" cy="575" r="3" fill="#39685c" opacity="0.053"/><circle cx="546.2" cy="2924.3" r="3.9" fill="#39685c" opacity="0.068"/><circle cx="399" cy="425" r="2.2" fill="#39685c" opacity="0.059"/><circle cx="1602.2" cy="1228.3" r="4.3" fill="#39685c" opacity="0.037"/><circle cx="1307.5" cy="878.1" r="2.9" fill="#39685c" opacity="0.052"/><circle cx="1088.4" cy="1192.7" r="4.3" fill="#39685c" opacity="0.054"/><circle cx="345.7" cy="458.2" r="2.1" fill="#39685c" opacity="0.055"/><circle cx="677.1" cy="1833.9" r="3" fill="#39685c" opacity="0.062"/><circle cx="715.4" cy="2760.5" r="3.4" fill="#39685c" opacity="0.052"/><circle cx="1613.2" cy="1409.5" r="3.8" fill="#39685c" opacity="0.050"/><rect x="200" y="170" width="2000" height="14.5" fill="#39685c"/><rect x="200" y="184" width="2000" height="14.5" fill="#96a396"/><rect x="200" y="198" width="2000" height="14.5" fill="#39685c"/><rect x="200" y="212" width="2000" height="14.5" fill="#cfc7b2"/><rect x="200" y="226" width="2000" height="14.5" fill="#39685c"/><rect x="200" y="2760" width="2000" height="14.5" fill="#39685c"/><rect x="200" y="2774" width="2000" height="14.5" fill="#96a396"/><rect x="200" y="2788" width="2000" height="14.5" fill="#39685c"/><rect x="200" y="2802" width="2000" height="14.5" fill="#cfc7b2"/><rect x="200" y="2816" width="2000" height="14.5" fill="#39685c"/><circle cx="1200" cy="1030" r="150" fill="#96a396"/><circle cx="1200" cy="1030" r="196" fill="none" stroke="#96a396" stroke-width="10"/><line x1="1110" y1="1540" x2="357.4" y2="1481.8" stroke="#39685c" stroke-width="34" stroke-linecap="round"/><line x1="1110" y1="1540" x2="383.2" y2="1417.8" stroke="#39685c" stroke-width="34" stroke-linecap="round"/><line x1="1110" y1="1540" x2="426.9" y2="1356.8" stroke="#39685c" stroke-width="34" stroke-linecap="round"/><line x1="1110" y1="1540" x2="487.4" y2="1300.2" stroke="#39685c" stroke-width="34" stroke-linecap="round"/><line x1="1110" y1="1540" x2="563.3" y2="1249.6" stroke="#39685c" stroke-width="34" stroke-linecap="round"/><line x1="1110" y1="1540" x2="652.6" y2="1206.2" stroke="#39685c" stroke-width="34" stroke-linecap="round"/><line x1="1110" y1="1540" x2="753.2" y2="1170.9" stroke="#39685c" stroke-width="34" stroke-linecap="round"/><line x1="1110" y1="1540" x2="862.6" y2="1144.8" stroke="#39685c" stroke-width="34" stroke-linecap="round"/><line x1="1110" y1="1540" x2="978" y2="1128.4" stroke="#39685c" stroke-width="34" stroke-linecap="round"/><line x1="1110" y1="1540" x2="515.8" y2="1494.1" stroke="#96a396" stroke-width="30" stroke-linecap="round"/><line x1="1110" y1="1540" x2="536.2" y2="1443.5" stroke="#96a396" stroke-width="30" stroke-linecap="round"/><line x1="1110" y1="1540" x2="570.7" y2="1395.3" stroke="#96a396" stroke-width="30" stroke-linecap="round"/><line x1="1110" y1="1540" x2="618.5" y2="1350.7" stroke="#96a396" stroke-width="30" stroke-linecap="round"/><line x1="1110" y1="1540" x2="678.4" y2="1310.8" stroke="#96a396" stroke-width="30" stroke-linecap="round"/><line x1="1110" y1="1540" x2="748.9" y2="1276.5" stroke="#96a396" stroke-width="30" stroke-linecap="round"/><line x1="1110" y1="1540" x2="828.3" y2="1248.6" stroke="#96a396" stroke-width="30" stroke-linecap="round"/><line x1="1110" y1="1540" x2="914.7" y2="1228" stroke="#96a396" stroke-width="30" stroke-linecap="round"/><line x1="1110" y1="1540" x2="1005.8" y2="1215" stroke="#96a396" stroke-width="30" stroke-linecap="round"/><line x1="1110" y1="1540" x2="664.4" y2="1505.6" stroke="#39685c" stroke-width="26" stroke-linecap="round"/><line x1="1110" y1="1540" x2="679.7" y2="1467.6" stroke="#39685c" stroke-width="26" stroke-linecap="round"/><line x1="1110" y1="1540" x2="705.5" y2="1431.5" stroke="#39685c" stroke-width="26" stroke-linecap="round"/><line x1="1110" y1="1540" x2="741.4" y2="1398" stroke="#39685c" stroke-width="26" stroke-linecap="round"/><line x1="1110" y1="1540" x2="786.3" y2="1368.1" stroke="#39685c" stroke-width="26" stroke-linecap="round"/><line x1="1110" y1="1540" x2="839.2" y2="1342.3" stroke="#39685c" stroke-width="26" stroke-linecap="round"/><line x1="1110" y1="1540" x2="898.7" y2="1321.5" stroke="#39685c" stroke-width="26" stroke-linecap="round"/><line x1="1110" y1="1540" x2="963.5" y2="1306" stroke="#39685c" stroke-width="26" stroke-linecap="round"/><line x1="1110" y1="1540" x2="1031.9" y2="1296.3" stroke="#39685c" stroke-width="26" stroke-linecap="round"/><line x1="1290" y1="1540" x2="2042.6" y2="1481.8" stroke="#39685c" stroke-width="34" stroke-linecap="round"/><line x1="1290" y1="1540" x2="2016.8" y2="1417.8" stroke="#39685c" stroke-width="34" stroke-linecap="round"/><line x1="1290" y1="1540" x2="1973.1" y2="1356.8" stroke="#39685c" stroke-width="34" stroke-linecap="round"/><line x1="1290" y1="1540" x2="1912.6" y2="1300.2" stroke="#39685c" stroke-width="34" stroke-linecap="round"/><line x1="1290" y1="1540" x2="1836.7" y2="1249.6" stroke="#39685c" stroke-width="34" stroke-linecap="round"/><line x1="1290" y1="1540" x2="1747.4" y2="1206.2" stroke="#39685c" stroke-width="34" stroke-linecap="round"/><line x1="1290" y1="1540" x2="1646.8" y2="1170.9" stroke="#39685c" stroke-width="34" stroke-linecap="round"/><line x1="1290" y1="1540" x2="1537.4" y2="1144.8" stroke="#39685c" stroke-width="34" stroke-linecap="round"/><line x1="1290" y1="1540" x2="1422" y2="1128.4" stroke="#39685c" stroke-width="34" stroke-linecap="round"/><line x1="1290" y1="1540" x2="1884.2" y2="1494.1" stroke="#96a396" stroke-width="30" stroke-linecap="round"/><line x1="1290" y1="1540" x2="1863.8" y2="1443.5" stroke="#96a396" stroke-width="30" stroke-linecap="round"/><line x1="1290" y1="1540" x2="1829.3" y2="1395.3" stroke="#96a396" stroke-width="30" stroke-linecap="round"/><line x1="1290" y1="1540" x2="1781.5" y2="1350.7" stroke="#96a396" stroke-width="30" stroke-linecap="round"/><line x1="1290" y1="1540" x2="1721.6" y2="1310.8" stroke="#96a396" stroke-width="30" stroke-linecap="round"/><line x1="1290" y1="1540" x2="1651.1" y2="1276.5" stroke="#96a396" stroke-width="30" stroke-linecap="round"/><line x1="1290" y1="1540" x2="1571.7" y2="1248.6" stroke="#96a396" stroke-width="30" stroke-linecap="round"/><line x1="1290" y1="1540" x2="1485.3" y2="1228" stroke="#96a396" stroke-width="30" stroke-linecap="round"/><line x1="1290" y1="1540" x2="1394.2" y2="1215" stroke="#96a396" stroke-width="30" stroke-linecap="round"/><line x1="1290" y1="1540" x2="1735.6" y2="1505.6" stroke="#39685c" stroke-width="26" stroke-linecap="round"/><line x1="1290" y1="1540" x2="1720.3" y2="1467.6" stroke="#39685c" stroke-width="26" stroke-linecap="round"/><line x1="1290" y1="1540" x2="1694.5" y2="1431.5" stroke="#39685c" stroke-width="26" stroke-linecap="round"/><line x1="1290" y1="1540" x2="1658.6" y2="1398" stroke="#39685c" stroke-width="26" stroke-linecap="round"/><line x1="1290" y1="1540" x2="1613.7" y2="1368.1" stroke="#39685c" stroke-width="26" stroke-linecap="round"/><line x1="1290" y1="1540" x2="1560.8" y2="1342.3" stroke="#39685c" stroke-width="26" stroke-linecap="round"/><line x1="1290" y1="1540" x2="1501.3" y2="1321.5" stroke="#39685c" stroke-width="26" stroke-linecap="round"/><line x1="1290" y1="1540" x2="1436.5" y2="1306" stroke="#39685c" stroke-width="26" stroke-linecap="round"/><line x1="1290" y1="1540" x2="1368.1" y2="1296.3" stroke="#39685c" stroke-width="26" stroke-linecap="round"/><path d="M1080,1500 q -150,-60 -210,-150" fill="none" stroke="#39685c" stroke-width="26" stroke-linecap="round"/><path d="M1035,1660 q -190,20 -260,-40" fill="none" stroke="#39685c" stroke-width="26" stroke-linecap="round"/><path d="M1070,1810 q -150,90 -230,80" fill="none" stroke="#39685c" stroke-width="26" stroke-linecap="round"/><path d="M1320,1500 q 150,-60 210,-150" fill="none" stroke="#39685c" stroke-width="26" stroke-linecap="round"/><path d="M1365,1660 q 190,20 260,-40" fill="none" stroke="#39685c" stroke-width="26" stroke-linecap="round"/><path d="M1330,1810 q 150,90 230,80" fill="none" stroke="#39685c" stroke-width="26" stroke-linecap="round"/><ellipse cx="1200" cy="1660" rx="180" ry="240" fill="#39685c"/><line x1="1200" y1="1540" x2="1200" y2="1896" stroke="#e7e1d3" stroke-width="9" opacity="0.7"/><path d="M1028,1552 Q 1200,1630 1372,1552" fill="none" stroke="#e7e1d3" stroke-width="9" opacity="0.7"/><path d="M1080,1450 A 130,130 0 0 1 1320,1450 L1278,1495 L1122,1495 Z" fill="#39685c"/><line x1="1112" y1="1392" x2="1084" y2="1338" stroke="#39685c" stroke-width="16" stroke-linecap="round"/><line x1="1156" y1="1392" x2="1142" y2="1338" stroke="#39685c" stroke-width="16" stroke-linecap="round"/><line x1="1200" y1="1392" x2="1200" y2="1338" stroke="#39685c" stroke-width="16" stroke-linecap="round"/><line x1="1244" y1="1392" x2="1258" y2="1338" stroke="#39685c" stroke-width="16" stroke-linecap="round"/><line x1="1288" y1="1392" x2="1316" y2="1338" stroke="#39685c" stroke-width="16" stroke-linecap="round"/><path d="M780,1990 Q 1200,2160 1620,1990 L1560,1990 Q 1200,2090 840,1990 Z" fill="#96a396"/><rect x="100" y="100" width="2200" height="2800" fill="none" stroke="#39685c" stroke-width="9"/><rect x="142" y="142" width="2116" height="2716" fill="none" stroke="#39685c" stroke-width="3" opacity="0.65"/></svg></svg>