<svg xmlns="http://www.w3.org/2000/svg" width="2400" height="1800" viewBox="0 0 2400 1800"><rect width="2400" height="1800" fill="#dfe4dc"/><rect y="1400" width="2400" height="400" fill="#c2a67e"/><line x1="60" y1="1400" x2="10" y2="1800" stroke="#00000015" stroke-width="5"/><line x1="260" y1="1400" x2="210" y2="1800" stroke="#00000015" stroke-width="5"/><line x1="460" y1="1400" x2="410" y2="1800" stroke="#00000015" stroke-width="5"/><line x1="660" y1="1400" x2="610" y2="1800" stroke="#00000015" stroke-width="5"/><line x1="860" y1="1400" x2="810" y2="1800" stroke="#00000015" stroke-width="5"/><line x1="1060" y1="1400" x2="1010" y2="1800" stroke="#00000015" stroke-width="5"/><line x1="1260" y1="1400" x2="1210" y2="1800" stroke="#00000015" stroke-width="5"/><line x1="1460" y1="1400" x2="1410" y2="1800" stroke="#00000015" stroke-width="5"/><line x1="1660" y1="1400" x2="1610" y2="1800" stroke="#00000015" stroke-width="5"/><line x1="1860" y1="1400" x2="1810" y2="1800" stroke="#00000015" stroke-width="5"/><line x1="2060" y1="1400" x2="2010" y2="1800" stroke="#00000015" stroke-width="5"/><line x1="2260" y1="1400" x2="2210" y2="1800" stroke="#00000015" stroke-width="5"/><rect x="180" y="260" width="900" height="620" fill="#8a6a48"/><rect x="215" y="295" width="830" height="550" fill="#41524a"/><line x1="280" y1="420" x2="760" y2="420" stroke="#ffffff66" stroke-width="9" stroke-linecap="round"/><line x1="280" y1="520" x2="620" y2="520" stroke="#ffffff44" stroke-width="9" stroke-linecap="round"/><circle cx="880" cy="560" r="90" fill="none" stroke="#ffffff55" stroke-width="8"/><rect x="215" y="845" width="830" height="22" fill="#6f5436"/><rect x="330" y="1240" width="640" height="60" rx="10" fill="#9c7449"/><rect x="370" y="1300" width="60" height="240" fill="#8a6540"/><rect x="870" y="1300" width="60" height="240" fill="#8a6540"/><rect x="430" y="1160" width="150" height="80" rx="8" fill="#b3502f"/><rect x="450" y="1120" width="150" height="40" rx="8" fill="#cdb488"/><circle cx="800" cy="1130" r="86" fill="#7fa3b8"/><path d="M760,1060 Q820,1100 780,1190 M740,1090 Q800,1120 850,1100" stroke="#5d8069" stroke-width="16" fill="none" stroke-linecap="round"/><circle cx="800" cy="1130" r="86" fill="none" stroke="#6b5233" stroke-width="7"/><line x1="800" y1="1216" x2="800" y2="1250" stroke="#6b5233" stroke-width="10"/><rect x="750" y="1244" width="100" height="14" rx="7" fill="#6b5233"/><rect x="1980" y="700" width="300" height="800" fill="#9c7449"/><rect x="2000" y="930" width="260" height="16" fill="#7c5a37"/><rect x="2020" y="790" width="36" height="140" fill="#b3502f"/><rect x="2066" y="802" width="36" height="128" fill="#39685c"/><rect x="2112" y="790" width="36" height="140" fill="#c9a227"/><rect x="2158" y="802" width="36" height="128" fill="#2c4661"/><rect x="2204" y="790" width="36" height="140" fill="#8a4423"/><rect x="2000" y="1180" width="260" height="16" fill="#7c5a37"/><rect x="2020" y="1040" width="36" height="140" fill="#39685c"/><rect x="2066" y="1052" width="36" height="128" fill="#c9a227"/><rect x="2112" y="1040" width="36" height="140" fill="#2c4661"/><rect x="2158" y="1052" width="36" height="128" fill="#8a4423"/><rect x="2204" y="1040" width="36" height="140" fill="#b3502f"/><rect x="2000" y="1430" width="260" height="16" fill="#7c5a37"/><rect x="2020" y="1290" width="36" height="140" fill="#c9a227"/><rect x="2066" y="1302" width="36" height="128" fill="#2c4661"/><rect x="2112" y="1290" width="36" height="140" fill="#8a4423"/><rect x="2158" y="1302" width="36" height="128" fill="#b3502f"/><rect x="2204" y="1290" width="36" height="140" fill="#39685c"/><defs><filter id="a135c-sh" x="-30%" y="-30%" width="160%" height="160%"><feGaussianBlur stdDeviation="16"/></filter></defs><rect x="1340.5" y="298.5" width="517" height="635" fill="#000" opacity="0.28" filter="url(#a135c-sh)"/><rect x="1326.5" y="276.5" width="517" height="635" fill="#3d342a"/><rect x="1341.8" y="291.8" width="486.4" height="604.5" fill="none" stroke="#00000055" stroke-width="3"/><rect x="1350" y="300" width="470" height="588" fill="#f6f2ea"/><svg x="1385.3" y="335.3" width="399.5" height="517.5" viewBox="0 0 2400 3000" preserveAspectRatio="xMidYMid slice"><rect width="2400" height="3000" fill="#e4cfa4"/><radialGradient id="a135-vig" cx="50%" cy="42%" r="80%"><stop offset="55%" stop-color="#000" stop-opacity="0"/><stop offset="100%" stop-color="#000" stop-opacity="0.15"/></radialGradient><rect width="2400" height="3000" fill="url(#a135-vig)"/><circle cx="1090" cy="2760.2" r="3.5" fill="#6e421d" opacity="0.038"/><circle cx="201.8" cy="494.5" r="2.3" fill="#6e421d" opacity="0.067"/><circle cx="678.6" cy="1468.3" r="3.9" fill="#6e421d" opacity="0.073"/><circle cx="2253.7" cy="2516.1" r="4.3" fill="#6e421d" opacity="0.059"/><circle cx="827" cy="636.9" r="4.3" fill="#6e421d" opacity="0.071"/><circle cx="1726.7" cy="1460.2" r="3.5" fill="#6e421d" opacity="0.032"/><circle cx="1875.3" cy="2557.6" r="3.7" fill="#6e421d" opacity="0.079"/><circle cx="1698.6" cy="2278.3" r="2.8" fill="#6e421d" opacity="0.064"/><circle cx="2169.3" cy="1025.2" r="3.2" fill="#6e421d" opacity="0.049"/><circle cx="56.1" cy="2479.1" r="1.8" fill="#6e421d" opacity="0.050"/><circle cx="1754.9" cy="1182.2" r="1.8" fill="#6e421d" opacity="0.049"/><circle cx="1110.2" cy="2134" r="3.1" fill="#6e421d" opacity="0.031"/><circle cx="1648.6" cy="51.9" r="2.6" fill="#6e421d" opacity="0.078"/><circle cx="1744.7" cy="368.5" r="3.9" fill="#6e421d" opacity="0.041"/><circle cx="106.5" cy="2167.8" r="2.2" fill="#6e421d" opacity="0.076"/><circle cx="499.9" cy="2946.8" r="3.2" fill="#6e421d" opacity="0.036"/><circle cx="475" cy="2567.4" r="1.8" fill="#6e421d" opacity="0.064"/><circle cx="721.4" cy="2029.2" r="2.6" fill="#6e421d" opacity="0.062"/><circle cx="1361.4" cy="1521.3" r="4.2" fill="#6e421d" opacity="0.045"/><circle cx="2057.2" cy="2490" r="1.7" fill="#6e421d" opacity="0.075"/><circle cx="1754.7" cy="2185.3" r="1.5" fill="#6e421d" opacity="0.072"/><circle cx="1049.3" cy="804.9" r="1.7" fill="#6e421d" opacity="0.052"/><circle cx="1870.5" cy="1095" r="3.2" fill="#6e421d" opacity="0.035"/><circle cx="334.3" cy="2934.3" r="1.7" fill="#6e421d" opacity="0.035"/><circle cx="142.1" cy="2148.1" r="4.3" fill="#6e421d" opacity="0.050"/><circle cx="1441.8" cy="606.7" r="2.5" fill="#6e421d" opacity="0.062"/><circle cx="2218.8" cy="1443.2" r="1.8" fill="#6e421d" opacity="0.058"/><circle cx="1766.7" cy="1442.9" r="4" fill="#6e421d" opacity="0.052"/><circle cx="1125.5" cy="784.9" r="3.5" fill="#6e421d" opacity="0.050"/><circle cx="719.4" cy="289.4" r="2" fill="#6e421d" opacity="0.053"/><circle cx="1594.9" cy="1751.7" r="1.8" fill="#6e421d" opacity="0.059"/><circle cx="1805.4" cy="1046.6" r="4" fill="#6e421d" opacity="0.068"/><circle cx="980.3" cy="710.1" r="3.6" fill="#6e421d" opacity="0.037"/><circle cx="953.6" cy="2935" r="2.7" fill="#6e421d" opacity="0.048"/><circle cx="860" cy="874.7" r="1.7" fill="#6e421d" opacity="0.070"/><circle cx="619.7" cy="2031.3" r="2.4" fill="#6e421d" opacity="0.035"/><circle cx="1612.2" cy="672.7" r="3.3" fill="#6e421d" opacity="0.056"/><circle cx="825" cy="1109.1" r="3.3" fill="#6e421d" opacity="0.032"/><circle cx="2296.8" cy="1449.9" r="3.8" fill="#6e421d" opacity="0.060"/><circle cx="148.6" cy="611.6" r="3.8" fill="#6e421d" opacity="0.042"/><circle cx="1923.8" cy="2195.9" r="4.3" fill="#6e421d" opacity="0.058"/><circle cx="2316.7" cy="1215.9" r="1.7" fill="#6e421d" opacity="0.039"/><circle cx="421.3" cy="496.4" r="3.6" fill="#6e421d" opacity="0.034"/><circle cx="332.3" cy="1213.4" r="4.3" fill="#6e421d" opacity="0.035"/><circle cx="257" cy="2211.5" r="4" fill="#6e421d" opacity="0.049"/><circle cx="513" cy="530.1" r="3.9" fill="#6e421d" opacity="0.071"/><circle cx="2232.3" cy="1884.7" r="4.3" fill="#6e421d" opacity="0.038"/><circle cx="930.1" cy="1589.9" r="1.7" fill="#6e421d" opacity="0.049"/><circle cx="2005.8" cy="77.6" r="3.8" fill="#6e421d" opacity="0.041"/><circle cx="338.9" cy="877.5" r="2.5" fill="#6e421d" opacity="0.047"/><circle cx="989.3" cy="88" r="1.7" fill="#6e421d" opacity="0.051"/><circle cx="1597.6" cy="841.3" r="3.8" fill="#6e421d" opacity="0.076"/><circle cx="1287.1" cy="1620" r="3.5" fill="#6e421d" opacity="0.061"/><circle cx="1762.6" cy="1278.6" r="3.9" fill="#6e421d" opacity="0.045"/><circle cx="395.3" cy="2225.3" r="3.5" fill="#6e421d" opacity="0.044"/><circle cx="2285.4" cy="1102.6" r="1.8" fill="#6e421d" opacity="0.073"/><circle cx="589.2" cy="2735.6" r="2.1" fill="#6e421d" opacity="0.040"/><circle cx="573.2" cy="252.9" r="2.7" fill="#6e421d" opacity="0.071"/><circle cx="2256.1" cy="2446.6" r="2.4" fill="#6e421d" opacity="0.055"/><circle cx="460.3" cy="400.9" r="2.1" fill="#6e421d" opacity="0.043"/><circle cx="1941.9" cy="1634.3" r="2.4" fill="#6e421d" opacity="0.045"/><circle cx="1562.2" cy="1000.1" r="2.3" fill="#6e421d" opacity="0.051"/><circle cx="120" cy="2821.9" r="3.4" fill="#6e421d" opacity="0.075"/><circle cx="1172" cy="1084.8" r="2.9" fill="#6e421d" opacity="0.070"/><circle cx="1529.7" cy="2430.5" r="3.3" fill="#6e421d" opacity="0.042"/><circle cx="251.9" cy="2286.6" r="3" fill="#6e421d" opacity="0.042"/><circle cx="905.1" cy="1326.2" r="4.3" fill="#6e421d" opacity="0.031"/><circle cx="2351.1" cy="2679.8" r="3.2" fill="#6e421d" opacity="0.030"/><circle cx="684.2" cy="425.5" r="3" fill="#6e421d" opacity="0.046"/><circle cx="186" cy="1910.4" r="1.8" fill="#6e421d" opacity="0.054"/><circle cx="1849.9" cy="1619.5" r="2.3" fill="#6e421d" opacity="0.040"/><circle cx="1154.6" cy="2781.7" r="3.3" fill="#6e421d" opacity="0.068"/><circle cx="1162.2" cy="391.9" r="1.8" fill="#6e421d" opacity="0.055"/><circle cx="248.1" cy="2524.6" r="4.5" fill="#6e421d" opacity="0.064"/><circle cx="1913.9" cy="2091.7" r="3.6" fill="#6e421d" opacity="0.043"/><circle cx="1523.1" cy="1212.4" r="3" fill="#6e421d" opacity="0.033"/><circle cx="1589.8" cy="2349.1" r="2.2" fill="#6e421d" opacity="0.057"/><circle cx="2294.6" cy="475.9" r="4.3" fill="#6e421d" opacity="0.068"/><circle cx="441.8" cy="554.7" r="4.3" fill="#6e421d" opacity="0.070"/><circle cx="1060.8" cy="2620.6" r="3.2" fill="#6e421d" opacity="0.034"/><rect x="200" y="170" width="2000" height="14.5" fill="#6e421d"/><rect x="200" y="184" width="2000" height="14.5" fill="#b3502f"/><rect x="200" y="198" width="2000" height="14.5" fill="#6e421d"/><rect x="200" y="212" width="2000" height="14.5" fill="#cdb488"/><rect x="200" y="226" width="2000" height="14.5" fill="#6e421d"/><rect x="200" y="2760" width="2000" height="14.5" fill="#6e421d"/><rect x="200" y="2774" width="2000" height="14.5" fill="#b3502f"/><rect x="200" y="2788" width="2000" height="14.5" fill="#6e421d"/><rect x="200" y="2802" width="2000" height="14.5" fill="#cdb488"/><rect x="200" y="2816" width="2000" height="14.5" fill="#6e421d"/><circle cx="1200" cy="1030" r="150" fill="#b3502f"/><circle cx="1200" cy="1030" r="196" fill="none" stroke="#b3502f" stroke-width="10"/><line x1="1110" y1="1540" x2="357.4" y2="1481.8" stroke="#6e421d" stroke-width="34" stroke-linecap="round"/><line x1="1110" y1="1540" x2="383.2" y2="1417.8" stroke="#6e421d" stroke-width="34" stroke-linecap="round"/><line x1="1110" y1="1540" x2="426.9" y2="1356.8" stroke="#6e421d" stroke-width="34" stroke-linecap="round"/><line x1="1110" y1="1540" x2="487.4" y2="1300.2" stroke="#6e421d" stroke-width="34" stroke-linecap="round"/><line x1="1110" y1="1540" x2="563.3" y2="1249.6" stroke="#6e421d" stroke-width="34" stroke-linecap="round"/><line x1="1110" y1="1540" x2="652.6" y2="1206.2" stroke="#6e421d" stroke-width="34" stroke-linecap="round"/><line x1="1110" y1="1540" x2="753.2" y2="1170.9" stroke="#6e421d" stroke-width="34" stroke-linecap="round"/><line x1="1110" y1="1540" x2="862.6" y2="1144.8" stroke="#6e421d" stroke-width="34" stroke-linecap="round"/><line x1="1110" y1="1540" x2="978" y2="1128.4" stroke="#6e421d" stroke-width="34" stroke-linecap="round"/><line x1="1110" y1="1540" x2="515.8" y2="1494.1" stroke="#b3502f" stroke-width="30" stroke-linecap="round"/><line x1="1110" y1="1540" x2="536.2" y2="1443.5" stroke="#b3502f" stroke-width="30" stroke-linecap="round"/><line x1="1110" y1="1540" x2="570.7" y2="1395.3" stroke="#b3502f" stroke-width="30" stroke-linecap="round"/><line x1="1110" y1="1540" x2="618.5" y2="1350.7" stroke="#b3502f" stroke-width="30" stroke-linecap="round"/><line x1="1110" y1="1540" x2="678.4" y2="1310.8" stroke="#b3502f" stroke-width="30" stroke-linecap="round"/><line x1="1110" y1="1540" x2="748.9" y2="1276.5" stroke="#b3502f" stroke-width="30" stroke-linecap="round"/><line x1="1110" y1="1540" x2="828.3" y2="1248.6" stroke="#b3502f" stroke-width="30" stroke-linecap="round"/><line x1="1110" y1="1540" x2="914.7" y2="1228" stroke="#b3502f" stroke-width="30" stroke-linecap="round"/><line x1="1110" y1="1540" x2="1005.8" y2="1215" stroke="#b3502f" stroke-width="30" stroke-linecap="round"/><line x1="1110" y1="1540" x2="664.4" y2="1505.6" stroke="#6e421d" stroke-width="26" stroke-linecap="round"/><line x1="1110" y1="1540" x2="679.7" y2="1467.6" stroke="#6e421d" stroke-width="26" stroke-linecap="round"/><line x1="1110" y1="1540" x2="705.5" y2="1431.5" stroke="#6e421d" stroke-width="26" stroke-linecap="round"/><line x1="1110" y1="1540" x2="741.4" y2="1398" stroke="#6e421d" stroke-width="26" stroke-linecap="round"/><line x1="1110" y1="1540" x2="786.3" y2="1368.1" stroke="#6e421d" stroke-width="26" stroke-linecap="round"/><line x1="1110" y1="1540" x2="839.2" y2="1342.3" stroke="#6e421d" stroke-width="26" stroke-linecap="round"/><line x1="1110" y1="1540" x2="898.7" y2="1321.5" stroke="#6e421d" stroke-width="26" stroke-linecap="round"/><line x1="1110" y1="1540" x2="963.5" y2="1306" stroke="#6e421d" stroke-width="26" stroke-linecap="round"/><line x1="1110" y1="1540" x2="1031.9" y2="1296.3" stroke="#6e421d" stroke-width="26" stroke-linecap="round"/><line x1="1290" y1="1540" x2="2042.6" y2="1481.8" stroke="#6e421d" stroke-width="34" stroke-linecap="round"/><line x1="1290" y1="1540" x2="2016.8" y2="1417.8" stroke="#6e421d" stroke-width="34" stroke-linecap="round"/><line x1="1290" y1="1540" x2="1973.1" y2="1356.8" stroke="#6e421d" stroke-width="34" stroke-linecap="round"/><line x1="1290" y1="1540" x2="1912.6" y2="1300.2" stroke="#6e421d" stroke-width="34" stroke-linecap="round"/><line x1="1290" y1="1540" x2="1836.7" y2="1249.6" stroke="#6e421d" stroke-width="34" stroke-linecap="round"/><line x1="1290" y1="1540" x2="1747.4" y2="1206.2" stroke="#6e421d" stroke-width="34" stroke-linecap="round"/><line x1="1290" y1="1540" x2="1646.8" y2="1170.9" stroke="#6e421d" stroke-width="34" stroke-linecap="round"/><line x1="1290" y1="1540" x2="1537.4" y2="1144.8" stroke="#6e421d" stroke-width="34" stroke-linecap="round"/><line x1="1290" y1="1540" x2="1422" y2="1128.4" stroke="#6e421d" stroke-width="34" stroke-linecap="round"/><line x1="1290" y1="1540" x2="1884.2" y2="1494.1" stroke="#b3502f" stroke-width="30" stroke-linecap="round"/><line x1="1290" y1="1540" x2="1863.8" y2="1443.5" stroke="#b3502f" stroke-width="30" stroke-linecap="round"/><line x1="1290" y1="1540" x2="1829.3" y2="1395.3" stroke="#b3502f" stroke-width="30" stroke-linecap="round"/><line x1="1290" y1="1540" x2="1781.5" y2="1350.7" stroke="#b3502f" stroke-width="30" stroke-linecap="round"/><line x1="1290" y1="1540" x2="1721.6" y2="1310.8" stroke="#b3502f" stroke-width="30" stroke-linecap="round"/><line x1="1290" y1="1540" x2="1651.1" y2="1276.5" stroke="#b3502f" stroke-width="30" stroke-linecap="round"/><line x1="1290" y1="1540" x2="1571.7" y2="1248.6" stroke="#b3502f" stroke-width="30" stroke-linecap="round"/><line x1="1290" y1="1540" x2="1485.3" y2="1228" stroke="#b3502f" stroke-width="30" stroke-linecap="round"/><line x1="1290" y1="1540" x2="1394.2" y2="1215" stroke="#b3502f" stroke-width="30" stroke-linecap="round"/><line x1="1290" y1="1540" x2="1735.6" y2="1505.6" stroke="#6e421d" stroke-width="26" stroke-linecap="round"/><line x1="1290" y1="1540" x2="1720.3" y2="1467.6" stroke="#6e421d" stroke-width="26" stroke-linecap="round"/><line x1="1290" y1="1540" x2="1694.5" y2="1431.5" stroke="#6e421d" stroke-width="26" stroke-linecap="round"/><line x1="1290" y1="1540" x2="1658.6" y2="1398" stroke="#6e421d" stroke-width="26" stroke-linecap="round"/><line x1="1290" y1="1540" x2="1613.7" y2="1368.1" stroke="#6e421d" stroke-width="26" stroke-linecap="round"/><line x1="1290" y1="1540" x2="1560.8" y2="1342.3" stroke="#6e421d" stroke-width="26" stroke-linecap="round"/><line x1="1290" y1="1540" x2="1501.3" y2="1321.5" stroke="#6e421d" stroke-width="26" stroke-linecap="round"/><line x1="1290" y1="1540" x2="1436.5" y2="1306" stroke="#6e421d" stroke-width="26" stroke-linecap="round"/><line x1="1290" y1="1540" x2="1368.1" y2="1296.3" stroke="#6e421d" stroke-width="26" stroke-linecap="round"/><path d="M1080,1500 q -150,-60 -210,-150" fill="none" stroke="#6e421d" stroke-width="26" stroke-linecap="round"/><path d="M1035,1660 q -190,20 -260,-40" fill="none" stroke="#6e421d" stroke-width="26" stroke-linecap="round"/><path d="M1070,1810 q -150,90 -230,80" fill="none" stroke="#6e421d" stroke-width="26" stroke-linecap="round"/><path d="M1320,1500 q 150,-60 210,-150" fill="none" stroke="#6e421d" stroke-width="26" stroke-linecap="round"/><path d="M1365,1660 q 190,20 260,-40" fill="none" stroke="#6e421d" stroke-width="26" stroke-linecap="round"/><path d="M1330,1810 q 150,90 230,80" fill="none" stroke="#6e421d" stroke-width="26" stroke-linecap="round"/><ellipse cx="1200" cy="1660" rx="180" ry="240" fill="#6e421d"/><line x1="1200" y1="1540" x2="1200" y2="1896" stroke="#e4cfa4" stroke-width="9" opacity="0.7"/><path d="M1028,1552 Q 1200,1630 1372,1552" fill="none" stroke="#e4cfa4" stroke-width="9" opacity="0.7"/><path d="M1080,1450 A 130,130 0 0 1 1320,1450 L1278,1495 L1122,1495 Z" fill="#6e421d"/><line x1="1112" y1="1392" x2="1084" y2="1338" stroke="#6e421d" stroke-width="16" stroke-linecap="round"/><line x1="1156" y1="1392" x2="1142" y2="1338" stroke="#6e421d" stroke-width="16" stroke-linecap="round"/><line x1="1200" y1="1392" x2="1200" y2="1338" stroke="#6e421d" stroke-width="16" stroke-linecap="round"/><line x1="1244" y1="1392" x2="1258" y2="1338" stroke="#6e421d" stroke-width="16" stroke-linecap="round"/><line x1="1288" y1="1392" x2="1316" y2="1338" stroke="#6e421d" stroke-width="16" stroke-linecap="round"/><path d="M780,1990 Q 1200,2160 1620,1990 L1560,1990 Q 1200,2090 840,1990 Z" fill="#b3502f"/><rect x="100" y="100" width="2200" height="2800" fill="none" stroke="#6e421d" stroke-width="9"/><rect x="142" y="142" width="2116" height="2716" fill="none" stroke="#6e421d" stroke-width="3" opacity="0.65"/></svg></svg>