<svg xmlns="http://www.w3.org/2000/svg" width="2400" height="1800" viewBox="0 0 2400 1800"><rect width="2400" height="1800" fill="#dfe4dc"/><rect y="1400" width="2400" height="400" fill="#c2a67e"/><line x1="60" y1="1400" x2="10" y2="1800" stroke="#00000015" stroke-width="5"/><line x1="260" y1="1400" x2="210" y2="1800" stroke="#00000015" stroke-width="5"/><line x1="460" y1="1400" x2="410" y2="1800" stroke="#00000015" stroke-width="5"/><line x1="660" y1="1400" x2="610" y2="1800" stroke="#00000015" stroke-width="5"/><line x1="860" y1="1400" x2="810" y2="1800" stroke="#00000015" stroke-width="5"/><line x1="1060" y1="1400" x2="1010" y2="1800" stroke="#00000015" stroke-width="5"/><line x1="1260" y1="1400" x2="1210" y2="1800" stroke="#00000015" stroke-width="5"/><line x1="1460" y1="1400" x2="1410" y2="1800" stroke="#00000015" stroke-width="5"/><line x1="1660" y1="1400" x2="1610" y2="1800" stroke="#00000015" stroke-width="5"/><line x1="1860" y1="1400" x2="1810" y2="1800" stroke="#00000015" stroke-width="5"/><line x1="2060" y1="1400" x2="2010" y2="1800" stroke="#00000015" stroke-width="5"/><line x1="2260" y1="1400" x2="2210" y2="1800" stroke="#00000015" stroke-width="5"/><rect x="180" y="260" width="900" height="620" fill="#8a6a48"/><rect x="215" y="295" width="830" height="550" fill="#41524a"/><line x1="280" y1="420" x2="760" y2="420" stroke="#ffffff66" stroke-width="9" stroke-linecap="round"/><line x1="280" y1="520" x2="620" y2="520" stroke="#ffffff44" stroke-width="9" stroke-linecap="round"/><circle cx="880" cy="560" r="90" fill="none" stroke="#ffffff55" stroke-width="8"/><rect x="215" y="845" width="830" height="22" fill="#6f5436"/><rect x="330" y="1240" width="640" height="60" rx="10" fill="#9c7449"/><rect x="370" y="1300" width="60" height="240" fill="#8a6540"/><rect x="870" y="1300" width="60" height="240" fill="#8a6540"/><rect x="430" y="1160" width="150" height="80" rx="8" fill="#bda15a"/><rect x="450" y="1120" width="150" height="40" rx="8" fill="#57674b"/><circle cx="800" cy="1130" r="86" fill="#7fa3b8"/><path d="M760,1060 Q820,1100 780,1190 M740,1090 Q800,1120 850,1100" stroke="#5d8069" stroke-width="16" fill="none" stroke-linecap="round"/><circle cx="800" cy="1130" r="86" fill="none" stroke="#6b5233" stroke-width="7"/><line x1="800" y1="1216" x2="800" y2="1250" stroke="#6b5233" stroke-width="10"/><rect x="750" y="1244" width="100" height="14" rx="7" fill="#6b5233"/><rect x="1980" y="700" width="300" height="800" fill="#9c7449"/><rect x="2000" y="930" width="260" height="16" fill="#7c5a37"/><rect x="2020" y="790" width="36" height="140" fill="#b3502f"/><rect x="2066" y="802" width="36" height="128" fill="#39685c"/><rect x="2112" y="790" width="36" height="140" fill="#c9a227"/><rect x="2158" y="802" width="36" height="128" fill="#2c4661"/><rect x="2204" y="790" width="36" height="140" fill="#8a4423"/><rect x="2000" y="1180" width="260" height="16" fill="#7c5a37"/><rect x="2020" y="1040" width="36" height="140" fill="#39685c"/><rect x="2066" y="1052" width="36" height="128" fill="#c9a227"/><rect x="2112" y="1040" width="36" height="140" fill="#2c4661"/><rect x="2158" y="1052" width="36" height="128" fill="#8a4423"/><rect x="2204" y="1040" width="36" height="140" fill="#b3502f"/><rect x="2000" y="1430" width="260" height="16" fill="#7c5a37"/><rect x="2020" y="1290" width="36" height="140" fill="#c9a227"/><rect x="2066" y="1302" width="36" height="128" fill="#2c4661"/><rect x="2112" y="1290" width="36" height="140" fill="#8a4423"/><rect x="2158" y="1302" width="36" height="128" fill="#b3502f"/><rect x="2204" y="1290" width="36" height="140" fill="#39685c"/><defs><filter id="a145c-sh" x="-30%" y="-30%" width="160%" height="160%"><feGaussianBlur stdDeviation="16"/></filter></defs><rect x="1340.5" y="298.5" width="517" height="635" fill="#000" opacity="0.28" filter="url(#a145c-sh)"/><rect x="1326.5" y="276.5" width="517" height="635" fill="#3d342a"/><rect x="1341.8" y="291.8" width="486.4" height="604.5" fill="none" stroke="#00000055" stroke-width="3"/><rect x="1350" y="300" width="470" height="588" fill="#f6f2ea"/><svg x="1385.3" y="335.3" width="399.5" height="517.5" viewBox="0 0 2400 3000" preserveAspectRatio="xMidYMid slice"><rect width="2400" height="3000" fill="#3d4a33"/><radialGradient id="a145-vig" cx="50%" cy="42%" r="80%"><stop offset="55%" stop-color="#000" stop-opacity="0"/><stop offset="100%" stop-color="#000" stop-opacity="0.15"/></radialGradient><rect width="2400" height="3000" fill="url(#a145-vig)"/><circle cx="2245.6" cy="2214.7" r="3.4" fill="#e6ddc4" opacity="0.077"/><circle cx="185.4" cy="364.6" r="2.2" fill="#e6ddc4" opacity="0.077"/><circle cx="103.9" cy="397.6" r="2.6" fill="#e6ddc4" opacity="0.041"/><circle cx="236.3" cy="166.5" r="3.7" fill="#e6ddc4" opacity="0.060"/><circle cx="591.5" cy="1300.5" r="4.4" fill="#e6ddc4" opacity="0.076"/><circle cx="1109.9" cy="2554.3" r="3.4" fill="#e6ddc4" opacity="0.074"/><circle cx="1892" cy="758.7" r="3.4" fill="#e6ddc4" opacity="0.076"/><circle cx="1292.3" cy="2599.3" r="2.4" fill="#e6ddc4" opacity="0.073"/><circle cx="1556.5" cy="1098.5" r="3" fill="#e6ddc4" opacity="0.049"/><circle cx="2304.1" cy="863" r="3.6" fill="#e6ddc4" opacity="0.073"/><circle cx="1419.5" cy="570.9" r="2.3" fill="#e6ddc4" opacity="0.068"/><circle cx="369.7" cy="651.1" r="3.2" fill="#e6ddc4" opacity="0.063"/><circle cx="1527.3" cy="1290.9" r="4" fill="#e6ddc4" opacity="0.062"/><circle cx="2073.9" cy="1378.1" r="3.8" fill="#e6ddc4" opacity="0.044"/><circle cx="95.1" cy="1085.3" r="3.1" fill="#e6ddc4" opacity="0.057"/><circle cx="373.6" cy="359.3" r="2.4" fill="#e6ddc4" opacity="0.044"/><circle cx="1590.6" cy="1899.4" r="3.1" fill="#e6ddc4" opacity="0.033"/><circle cx="256.4" cy="446.5" r="4.5" fill="#e6ddc4" opacity="0.074"/><circle cx="797.2" cy="226" r="2" fill="#e6ddc4" opacity="0.074"/><circle cx="1325" cy="2367.6" r="4.3" fill="#e6ddc4" opacity="0.047"/><circle cx="2010.1" cy="644.1" r="2.9" fill="#e6ddc4" opacity="0.049"/><circle cx="169.9" cy="2637.8" r="2.2" fill="#e6ddc4" opacity="0.056"/><circle cx="1863.2" cy="1823.3" r="2.3" fill="#e6ddc4" opacity="0.071"/><circle cx="744.8" cy="603.3" r="1.6" fill="#e6ddc4" opacity="0.070"/><circle cx="817.4" cy="1658.4" r="4.1" fill="#e6ddc4" opacity="0.044"/><circle cx="856" cy="1435.8" r="2.1" fill="#e6ddc4" opacity="0.056"/><circle cx="1433.1" cy="2908.1" r="3.8" fill="#e6ddc4" opacity="0.053"/><circle cx="1313.6" cy="44.1" r="3.2" fill="#e6ddc4" opacity="0.072"/><circle cx="2237.9" cy="591.6" r="2.6" fill="#e6ddc4" opacity="0.070"/><circle cx="1518.6" cy="1255.7" r="3.9" fill="#e6ddc4" opacity="0.068"/><circle cx="1131.1" cy="1139.3" r="1.6" fill="#e6ddc4" opacity="0.076"/><circle cx="1261.9" cy="1889.5" r="2.9" fill="#e6ddc4" opacity="0.055"/><circle cx="952.3" cy="1752.4" r="4.1" fill="#e6ddc4" opacity="0.058"/><circle cx="1203.2" cy="823.1" r="2.5" fill="#e6ddc4" opacity="0.077"/><circle cx="2276.7" cy="2876.5" r="2.8" fill="#e6ddc4" opacity="0.041"/><circle cx="1857.9" cy="957.4" r="4" fill="#e6ddc4" opacity="0.064"/><circle cx="1756.3" cy="1218.4" r="3.8" fill="#e6ddc4" opacity="0.042"/><circle cx="1376.1" cy="1713.9" r="2.8" fill="#e6ddc4" opacity="0.044"/><circle cx="1416.7" cy="451.6" r="2.2" fill="#e6ddc4" opacity="0.059"/><circle cx="1803.2" cy="274.6" r="3.5" fill="#e6ddc4" opacity="0.049"/><circle cx="290.5" cy="1441.3" r="2.8" fill="#e6ddc4" opacity="0.039"/><circle cx="377.2" cy="2133.6" r="2" fill="#e6ddc4" opacity="0.040"/><circle cx="1903.4" cy="2271.9" r="3.6" fill="#e6ddc4" opacity="0.036"/><circle cx="1539.3" cy="1218.3" r="1.9" fill="#e6ddc4" opacity="0.069"/><circle cx="1282.5" cy="784.6" r="1.6" fill="#e6ddc4" opacity="0.058"/><circle cx="1842.1" cy="1378.3" r="1.8" fill="#e6ddc4" opacity="0.070"/><circle cx="1975.8" cy="1019.8" r="2.8" fill="#e6ddc4" opacity="0.057"/><circle cx="665.7" cy="530.1" r="3" fill="#e6ddc4" opacity="0.065"/><circle cx="858.5" cy="60.2" r="1.6" fill="#e6ddc4" opacity="0.054"/><circle cx="1207.5" cy="1279.6" r="3.5" fill="#e6ddc4" opacity="0.054"/><circle cx="2297.9" cy="1305" r="2.9" fill="#e6ddc4" opacity="0.063"/><circle cx="1850.4" cy="1772.5" r="2.9" fill="#e6ddc4" opacity="0.068"/><circle cx="53.8" cy="178.7" r="3.6" fill="#e6ddc4" opacity="0.076"/><circle cx="386.7" cy="2066.8" r="2.6" fill="#e6ddc4" opacity="0.072"/><circle cx="1230.3" cy="1455.1" r="3.3" fill="#e6ddc4" opacity="0.055"/><circle cx="1771.9" cy="356.2" r="2.5" fill="#e6ddc4" opacity="0.071"/><circle cx="1378.2" cy="1048.4" r="3" fill="#e6ddc4" opacity="0.031"/><circle cx="378.4" cy="1047.2" r="1.8" fill="#e6ddc4" opacity="0.056"/><circle cx="1190.5" cy="652.8" r="4.4" fill="#e6ddc4" opacity="0.051"/><circle cx="1407" cy="1775.5" r="2.4" fill="#e6ddc4" opacity="0.062"/><circle cx="480.9" cy="161" r="3.1" fill="#e6ddc4" opacity="0.033"/><circle cx="851.6" cy="2836.4" r="3.4" fill="#e6ddc4" opacity="0.065"/><circle cx="1013" cy="1849.1" r="2.4" fill="#e6ddc4" opacity="0.032"/><circle cx="1486.1" cy="1316.4" r="3.1" fill="#e6ddc4" opacity="0.073"/><circle cx="1879.6" cy="2894.7" r="1.8" fill="#e6ddc4" opacity="0.061"/><circle cx="2281" cy="368.6" r="2.4" fill="#e6ddc4" opacity="0.058"/><circle cx="1270.5" cy="1637.8" r="2.1" fill="#e6ddc4" opacity="0.039"/><circle cx="795.7" cy="274.9" r="4.5" fill="#e6ddc4" opacity="0.032"/><circle cx="1455.6" cy="533.4" r="1.8" fill="#e6ddc4" opacity="0.047"/><circle cx="959" cy="514.5" r="2.5" fill="#e6ddc4" opacity="0.065"/><circle cx="2273.5" cy="766.5" r="3.2" fill="#e6ddc4" opacity="0.072"/><circle cx="1878.4" cy="2782.9" r="1.6" fill="#e6ddc4" opacity="0.046"/><circle cx="2095.1" cy="1846.8" r="1.8" fill="#e6ddc4" opacity="0.035"/><circle cx="1116.8" cy="1974.4" r="3.7" fill="#e6ddc4" opacity="0.030"/><circle cx="2232.3" cy="889.1" r="4" fill="#e6ddc4" opacity="0.031"/><circle cx="869.7" cy="2617.4" r="2.5" fill="#e6ddc4" opacity="0.045"/><circle cx="1460.7" cy="432.4" r="3.3" fill="#e6ddc4" opacity="0.055"/><circle cx="68.7" cy="984.3" r="2.9" fill="#e6ddc4" opacity="0.036"/><circle cx="1256.6" cy="608.1" r="2" fill="#e6ddc4" opacity="0.069"/><circle cx="337.4" cy="581.1" r="4.2" fill="#e6ddc4" opacity="0.037"/><circle cx="1088.4" cy="939.9" r="393.7" fill="#bda15a" opacity="0.95"/><line x1="200" y1="2430" x2="2200" y2="2430" stroke="#e6ddc4" stroke-width="16"/><rect x="930" y="2340" width="540" height="90" fill="#e6ddc4"/><rect x="1005.6" y="2260" width="388.8" height="80" fill="#e6ddc4"/><path d="M1065,2260 L1116.3,902.1 L1283.7,902.1 L1335,2260 Z" fill="#e6ddc4"/><polygon points="1200,752.1 1116.3,904.1 1283.7,904.1" fill="#bda15a"/><circle cx="1200" cy="1012.1" r="19.32" fill="#3d4a33" opacity="0.9"/><polygon points="1200,1099.1 1177,1145.1 1223,1145.1" fill="#3d4a33" opacity="0.9"/><circle cx="1200" cy="1232.1" r="18.400000000000002" fill="none" stroke="#3d4a33" stroke-width="10" opacity="0.9"/><line x1="1200" y1="1250.5" x2="1200" y2="1278.1" stroke="#3d4a33" stroke-width="10" opacity="0.9"/><circle cx="1200" cy="1342.1" r="19.32" fill="#3d4a33" opacity="0.9"/><circle cx="1200" cy="1452.1" r="18.400000000000002" fill="none" stroke="#3d4a33" stroke-width="10" opacity="0.9"/><line x1="1200" y1="1470.5" x2="1200" y2="1498.1" stroke="#3d4a33" stroke-width="10" opacity="0.9"/><circle cx="1200" cy="1562.1" r="19.32" fill="#3d4a33" opacity="0.9"/><circle cx="1200" cy="1672.1" r="18.400000000000002" fill="none" stroke="#3d4a33" stroke-width="10" opacity="0.9"/><line x1="1200" y1="1690.5" x2="1200" y2="1718.1" stroke="#3d4a33" stroke-width="10" opacity="0.9"/><polyline points="1154,1796.1 1177,1770.1 1200,1796.1 1223,1770.1 1246,1796.1 " fill="none" stroke="#3d4a33" stroke-width="4.7" stroke-linejoin="miter"/><circle cx="1200" cy="1892.1" r="18.400000000000002" fill="none" stroke="#3d4a33" stroke-width="10" opacity="0.9"/><line x1="1200" y1="1910.5" x2="1200" y2="1938.1" stroke="#3d4a33" stroke-width="10" opacity="0.9"/><polyline points="1154,2016.1 1177,1990.1 1200,2016.1 1223,1990.1 1246,2016.1 " fill="none" stroke="#3d4a33" stroke-width="4.7" stroke-linejoin="miter"/><polygon points="1200,2089.1 1177,2135.1 1223,2135.1" fill="#3d4a33" opacity="0.9"/><rect x="200" y="2770" width="2000" height="13.3" fill="#e6ddc4"/><rect x="200" y="2782.8" width="2000" height="13.3" fill="#bda15a"/><rect x="200" y="2795.6" width="2000" height="13.3" fill="#e6ddc4"/><rect x="200" y="2808.4" width="2000" height="13.3" fill="#57674b"/><rect x="200" y="2821.2" width="2000" height="13.3" fill="#e6ddc4"/><rect x="100" y="100" width="2200" height="2800" fill="none" stroke="#e6ddc4" stroke-width="9"/><rect x="142" y="142" width="2116" height="2716" fill="none" stroke="#e6ddc4" stroke-width="3" opacity="0.65"/></svg></svg>