<svg xmlns="http://www.w3.org/2000/svg" width="2400" height="1800" viewBox="0 0 2400 1800"><rect width="2400" height="1800" fill="#dfe4dc"/><rect y="1400" width="2400" height="400" fill="#c2a67e"/><line x1="60" y1="1400" x2="10" y2="1800" stroke="#00000015" stroke-width="5"/><line x1="260" y1="1400" x2="210" y2="1800" stroke="#00000015" stroke-width="5"/><line x1="460" y1="1400" x2="410" y2="1800" stroke="#00000015" stroke-width="5"/><line x1="660" y1="1400" x2="610" y2="1800" stroke="#00000015" stroke-width="5"/><line x1="860" y1="1400" x2="810" y2="1800" stroke="#00000015" stroke-width="5"/><line x1="1060" y1="1400" x2="1010" y2="1800" stroke="#00000015" stroke-width="5"/><line x1="1260" y1="1400" x2="1210" y2="1800" stroke="#00000015" stroke-width="5"/><line x1="1460" y1="1400" x2="1410" y2="1800" stroke="#00000015" stroke-width="5"/><line x1="1660" y1="1400" x2="1610" y2="1800" stroke="#00000015" stroke-width="5"/><line x1="1860" y1="1400" x2="1810" y2="1800" stroke="#00000015" stroke-width="5"/><line x1="2060" y1="1400" x2="2010" y2="1800" stroke="#00000015" stroke-width="5"/><line x1="2260" y1="1400" x2="2210" y2="1800" stroke="#00000015" stroke-width="5"/><rect x="180" y="260" width="900" height="620" fill="#8a6a48"/><rect x="215" y="295" width="830" height="550" fill="#41524a"/><line x1="280" y1="420" x2="760" y2="420" stroke="#ffffff66" stroke-width="9" stroke-linecap="round"/><line x1="280" y1="520" x2="620" y2="520" stroke="#ffffff44" stroke-width="9" stroke-linecap="round"/><circle cx="880" cy="560" r="90" fill="none" stroke="#ffffff55" stroke-width="8"/><rect x="215" y="845" width="830" height="22" fill="#6f5436"/><rect x="330" y="1240" width="640" height="60" rx="10" fill="#9c7449"/><rect x="370" y="1300" width="60" height="240" fill="#8a6540"/><rect x="870" y="1300" width="60" height="240" fill="#8a6540"/><rect x="430" y="1160" width="150" height="80" rx="8" fill="#7c5636"/><rect x="450" y="1120" width="150" height="40" rx="8" fill="#a99878"/><circle cx="800" cy="1130" r="86" fill="#7fa3b8"/><path d="M760,1060 Q820,1100 780,1190 M740,1090 Q800,1120 850,1100" stroke="#5d8069" stroke-width="16" fill="none" stroke-linecap="round"/><circle cx="800" cy="1130" r="86" fill="none" stroke="#6b5233" stroke-width="7"/><line x1="800" y1="1216" x2="800" y2="1250" stroke="#6b5233" stroke-width="10"/><rect x="750" y="1244" width="100" height="14" rx="7" fill="#6b5233"/><rect x="1980" y="700" width="300" height="800" fill="#9c7449"/><rect x="2000" y="930" width="260" height="16" fill="#7c5a37"/><rect x="2020" y="790" width="36" height="140" fill="#b3502f"/><rect x="2066" y="802" width="36" height="128" fill="#39685c"/><rect x="2112" y="790" width="36" height="140" fill="#c9a227"/><rect x="2158" y="802" width="36" height="128" fill="#2c4661"/><rect x="2204" y="790" width="36" height="140" fill="#8a4423"/><rect x="2000" y="1180" width="260" height="16" fill="#7c5a37"/><rect x="2020" y="1040" width="36" height="140" fill="#39685c"/><rect x="2066" y="1052" width="36" height="128" fill="#c9a227"/><rect x="2112" y="1040" width="36" height="140" fill="#2c4661"/><rect x="2158" y="1052" width="36" height="128" fill="#8a4423"/><rect x="2204" y="1040" width="36" height="140" fill="#b3502f"/><rect x="2000" y="1430" width="260" height="16" fill="#7c5a37"/><rect x="2020" y="1290" width="36" height="140" fill="#c9a227"/><rect x="2066" y="1302" width="36" height="128" fill="#2c4661"/><rect x="2112" y="1290" width="36" height="140" fill="#8a4423"/><rect x="2158" y="1302" width="36" height="128" fill="#b3502f"/><rect x="2204" y="1290" width="36" height="140" fill="#39685c"/><defs><filter id="a119c-sh" x="-30%" y="-30%" width="160%" height="160%"><feGaussianBlur stdDeviation="16"/></filter></defs><rect x="1340.5" y="298.5" width="517" height="635" fill="#000" opacity="0.28" filter="url(#a119c-sh)"/><rect x="1326.5" y="276.5" width="517" height="635" fill="#3d342a"/><rect x="1341.8" y="291.8" width="486.4" height="604.5" fill="none" stroke="#00000055" stroke-width="3"/><rect x="1350" y="300" width="470" height="588" fill="#f6f2ea"/><svg x="1385.3" y="335.3" width="399.5" height="517.5" viewBox="0 0 2400 3000" preserveAspectRatio="xMidYMid slice"><filter id="a119-warp" x="-4%" y="-4%" width="108%" height="108%"><feTurbulence type="fractalNoise" baseFrequency="0.0105" numOctaves="2" seed="5949" result="w"/><feDisplacementMap in="SourceGraphic" in2="w" scale="7" xChannelSelector="R" yChannelSelector="G"/></filter><filter id="a119-grain" x="0%" y="0%" width="100%" height="100%"><feTurbulence type="fractalNoise" baseFrequency="0.6" numOctaves="2" seed="5956"/><feColorMatrix type="matrix" values="0.33 0.33 0.33 0 0.62  0.33 0.33 0.33 0 0.62  0.33 0.33 0.33 0 0.62  0 0 0 0 1"/></filter><filter id="a119-mottle" x="0%" y="0%" width="100%" height="100%"><feTurbulence type="fractalNoise" baseFrequency="0.0045" numOctaves="3" seed="5962"/><feColorMatrix type="matrix" values="0.2 0.2 0.2 0 0.78  0.2 0.2 0.2 0 0.78  0.2 0.2 0.2 0 0.78  0 0 0 0 1"/></filter><filter id="a119-fade" x="0%" y="0%" width="100%" height="100%"><feTurbulence type="fractalNoise" baseFrequency="0.006" numOctaves="2" seed="5978"/><feColorMatrix type="matrix" values="0.3 0.3 0.3 0 -0.08  0.3 0.3 0.3 0 -0.08  0.3 0.3 0.3 0 -0.1  0 0 0 0 1"/></filter><filter id="a119-blur9"><feGaussianBlur stdDeviation="9"/></filter><radialGradient id="a119-vig" cx="50%" cy="44%" r="78%"><stop offset="52%" stop-color="#241a10" stop-opacity="0"/><stop offset="100%" stop-color="#241a10" stop-opacity="0.17"/></radialGradient><radialGradient id="a119-warm" cx="59%" cy="30%" r="85%"><stop offset="0%" stop-color="#e8c890" stop-opacity="0.14"/><stop offset="70%" stop-color="#e8c890" stop-opacity="0"/></radialGradient><rect width="2400" height="3000" fill="#e5dbc6"/><rect width="2400" height="3000" fill="url(#a119-warm)"/><g filter="url(#a119-warp)"><circle cx="1200" cy="1400" r="1010" fill="none" stroke="#38322a" stroke-width="10"/><circle cx="1200" cy="1400" r="964" fill="none" stroke="#38322a" stroke-width="4" opacity="0.7"/><line x1="2170" y1="1400" x2="2210" y2="1400" stroke="#38322a" stroke-width="10"/><line x1="2182.2" y1="1485.9" x2="2206.2" y2="1488" stroke="#38322a" stroke-width="5"/><line x1="2171" y1="1571.2" x2="2194.7" y2="1575.4" stroke="#38322a" stroke-width="5"/><line x1="2152.4" y1="1655.2" x2="2175.6" y2="1661.4" stroke="#38322a" stroke-width="5"/><line x1="2126.5" y1="1737.2" x2="2149.1" y2="1745.4" stroke="#38322a" stroke-width="5"/><line x1="2093.6" y1="1816.7" x2="2115.4" y2="1826.8" stroke="#38322a" stroke-width="5"/><line x1="2040" y1="1885" x2="2074.7" y2="1905" stroke="#38322a" stroke-width="10"/><line x1="2007.7" y1="1965.5" x2="2027.3" y2="1979.3" stroke="#38322a" stroke-width="5"/><line x1="1955.3" y1="2033.8" x2="1973.7" y2="2049.2" stroke="#38322a" stroke-width="5"/><line x1="1897.2" y1="2097.2" x2="1914.2" y2="2114.2" stroke="#38322a" stroke-width="5"/><line x1="1833.8" y1="2155.3" x2="1849.2" y2="2173.7" stroke="#38322a" stroke-width="5"/><line x1="1765.5" y1="2207.7" x2="1779.3" y2="2227.3" stroke="#38322a" stroke-width="5"/><line x1="1685" y1="2240" x2="1705" y2="2274.7" stroke="#38322a" stroke-width="10"/><line x1="1616.7" y1="2293.6" x2="1626.8" y2="2315.4" stroke="#38322a" stroke-width="5"/><line x1="1537.2" y1="2326.5" x2="1545.4" y2="2349.1" stroke="#38322a" stroke-width="5"/><line x1="1455.2" y1="2352.4" x2="1461.4" y2="2375.6" stroke="#38322a" stroke-width="5"/><line x1="1371.2" y1="2371" x2="1375.4" y2="2394.7" stroke="#38322a" stroke-width="5"/><line x1="1285.9" y1="2382.2" x2="1288" y2="2406.2" stroke="#38322a" stroke-width="5"/><line x1="1200" y1="2370" x2="1200" y2="2410" stroke="#38322a" stroke-width="10"/><line x1="1114.1" y1="2382.2" x2="1112" y2="2406.2" stroke="#38322a" stroke-width="5"/><line x1="1028.8" y1="2371" x2="1024.6" y2="2394.7" stroke="#38322a" stroke-width="5"/><line x1="944.8" y1="2352.4" x2="938.6" y2="2375.6" stroke="#38322a" stroke-width="5"/><line x1="862.8" y1="2326.5" x2="854.6" y2="2349.1" stroke="#38322a" stroke-width="5"/><line x1="783.3" y1="2293.6" x2="773.2" y2="2315.4" stroke="#38322a" stroke-width="5"/><line x1="715" y1="2240" x2="695" y2="2274.7" stroke="#38322a" stroke-width="10"/><line x1="634.5" y1="2207.7" x2="620.7" y2="2227.3" stroke="#38322a" stroke-width="5"/><line x1="566.2" y1="2155.3" x2="550.8" y2="2173.7" stroke="#38322a" stroke-width="5"/><line x1="502.8" y1="2097.2" x2="485.8" y2="2114.2" stroke="#38322a" stroke-width="5"/><line x1="444.7" y1="2033.8" x2="426.3" y2="2049.2" stroke="#38322a" stroke-width="5"/><line x1="392.3" y1="1965.5" x2="372.7" y2="1979.3" stroke="#38322a" stroke-width="5"/><line x1="360" y1="1885" x2="325.3" y2="1905" stroke="#38322a" stroke-width="10"/><line x1="306.4" y1="1816.7" x2="284.6" y2="1826.8" stroke="#38322a" stroke-width="5"/><line x1="273.5" y1="1737.2" x2="250.9" y2="1745.4" stroke="#38322a" stroke-width="5"/><line x1="247.6" y1="1655.2" x2="224.4" y2="1661.4" stroke="#38322a" stroke-width="5"/><line x1="229" y1="1571.2" x2="205.3" y2="1575.4" stroke="#38322a" stroke-width="5"/><line x1="217.8" y1="1485.9" x2="193.8" y2="1488" stroke="#38322a" stroke-width="5"/><line x1="230" y1="1400" x2="190" y2="1400" stroke="#38322a" stroke-width="10"/><line x1="217.8" y1="1314.1" x2="193.8" y2="1312" stroke="#38322a" stroke-width="5"/><line x1="229" y1="1228.8" x2="205.3" y2="1224.6" stroke="#38322a" stroke-width="5"/><line x1="247.6" y1="1144.8" x2="224.4" y2="1138.6" stroke="#38322a" stroke-width="5"/><line x1="273.5" y1="1062.8" x2="250.9" y2="1054.6" stroke="#38322a" stroke-width="5"/><line x1="306.4" y1="983.3" x2="284.6" y2="973.2" stroke="#38322a" stroke-width="5"/><line x1="360" y1="915" x2="325.3" y2="895" stroke="#38322a" stroke-width="10"/><line x1="392.3" y1="834.5" x2="372.7" y2="820.7" stroke="#38322a" stroke-width="5"/><line x1="444.7" y1="766.2" x2="426.3" y2="750.8" stroke="#38322a" stroke-width="5"/><line x1="502.8" y1="702.8" x2="485.8" y2="685.8" stroke="#38322a" stroke-width="5"/><line x1="566.2" y1="644.7" x2="550.8" y2="626.3" stroke="#38322a" stroke-width="5"/><line x1="634.5" y1="592.3" x2="620.7" y2="572.7" stroke="#38322a" stroke-width="5"/><line x1="715" y1="560" x2="695" y2="525.3" stroke="#38322a" stroke-width="10"/><line x1="783.3" y1="506.4" x2="773.2" y2="484.6" stroke="#38322a" stroke-width="5"/><line x1="862.8" y1="473.5" x2="854.6" y2="450.9" stroke="#38322a" stroke-width="5"/><line x1="944.8" y1="447.6" x2="938.6" y2="424.4" stroke="#38322a" stroke-width="5"/><line x1="1028.8" y1="429" x2="1024.6" y2="405.3" stroke="#38322a" stroke-width="5"/><line x1="1114.1" y1="417.8" x2="1112" y2="393.8" stroke="#38322a" stroke-width="5"/><line x1="1200" y1="430" x2="1200" y2="390" stroke="#38322a" stroke-width="10"/><line x1="1285.9" y1="417.8" x2="1288" y2="393.8" stroke="#38322a" stroke-width="5"/><line x1="1371.2" y1="429" x2="1375.4" y2="405.3" stroke="#38322a" stroke-width="5"/><line x1="1455.2" y1="447.6" x2="1461.4" y2="424.4" stroke="#38322a" stroke-width="5"/><line x1="1537.2" y1="473.5" x2="1545.4" y2="450.9" stroke="#38322a" stroke-width="5"/><line x1="1616.7" y1="506.4" x2="1626.8" y2="484.6" stroke="#38322a" stroke-width="5"/><line x1="1685" y1="560" x2="1705" y2="525.3" stroke="#38322a" stroke-width="10"/><line x1="1765.5" y1="592.3" x2="1779.3" y2="572.7" stroke="#38322a" stroke-width="5"/><line x1="1833.8" y1="644.7" x2="1849.2" y2="626.3" stroke="#38322a" stroke-width="5"/><line x1="1897.2" y1="702.8" x2="1914.2" y2="685.8" stroke="#38322a" stroke-width="5"/><line x1="1955.3" y1="766.2" x2="1973.7" y2="750.8" stroke="#38322a" stroke-width="5"/><line x1="2007.7" y1="834.5" x2="2027.3" y2="820.7" stroke="#38322a" stroke-width="5"/><line x1="2040" y1="915" x2="2074.7" y2="895" stroke="#38322a" stroke-width="10"/><line x1="2093.6" y1="983.3" x2="2115.4" y2="973.2" stroke="#38322a" stroke-width="5"/><line x1="2126.5" y1="1062.8" x2="2149.1" y2="1054.6" stroke="#38322a" stroke-width="5"/><line x1="2152.4" y1="1144.8" x2="2175.6" y2="1138.6" stroke="#38322a" stroke-width="5"/><line x1="2171" y1="1228.8" x2="2194.7" y2="1224.6" stroke="#38322a" stroke-width="5"/><line x1="2182.2" y1="1314.1" x2="2206.2" y2="1312" stroke="#38322a" stroke-width="5"/><circle cx="1200" cy="1400" r="280" fill="none" stroke="#38322a" stroke-width="3" opacity="0.28" stroke-dasharray="3 26"/><circle cx="1200" cy="1400" r="530" fill="none" stroke="#38322a" stroke-width="3" opacity="0.28" stroke-dasharray="3 26"/><circle cx="1200" cy="1400" r="780" fill="none" stroke="#38322a" stroke-width="3" opacity="0.28" stroke-dasharray="3 26"/><circle cx="1213.2" cy="1467.3" r="7.2" fill="#38322a" opacity="0.65"/><circle cx="720" cy="1771.6" r="6.6" fill="#38322a" opacity="0.76"/><circle cx="1087.1" cy="2014.6" r="5.9" fill="#38322a" opacity="0.70"/><circle cx="1984.6" cy="1572.2" r="4" fill="#38322a" opacity="0.47"/><circle cx="1433.7" cy="1679.9" r="5.2" fill="#38322a" opacity="0.48"/><circle cx="1944.1" cy="993.2" r="4.8" fill="#38322a" opacity="0.46"/><circle cx="1026.6" cy="1007.1" r="6" fill="#38322a" opacity="0.99"/><circle cx="1138.7" cy="762.5" r="5.7" fill="#38322a" opacity="0.49"/><circle cx="2009.3" cy="1279.8" r="6.8" fill="#38322a" opacity="0.79"/><circle cx="1133.3" cy="1942.4" r="6.9" fill="#38322a" opacity="0.87"/><circle cx="553.1" cy="1198.9" r="6.1" fill="#38322a" opacity="0.84"/><circle cx="1110.5" cy="1505.4" r="4" fill="#38322a" opacity="0.82"/><circle cx="748.9" cy="2108.5" r="7.5" fill="#38322a" opacity="0.80"/><circle cx="1307.6" cy="995.7" r="6.5" fill="#38322a" opacity="0.68"/><circle cx="1339.1" cy="2093.8" r="3.6" fill="#38322a" opacity="0.93"/><circle cx="1073.7" cy="853.8" r="5" fill="#38322a" opacity="0.58"/><circle cx="952.3" cy="773.1" r="3.4" fill="#38322a" opacity="0.46"/><circle cx="1808.6" cy="909.2" r="4.4" fill="#38322a" opacity="0.48"/><circle cx="360.9" cy="1761.8" r="3.3" fill="#38322a" opacity="0.96"/><circle cx="1222.4" cy="1099.3" r="6.4" fill="#38322a" opacity="0.51"/><circle cx="722.3" cy="1116" r="7.7" fill="#38322a" opacity="0.97"/><circle cx="1026.3" cy="859.4" r="4.8" fill="#38322a" opacity="0.63"/><circle cx="1503.4" cy="1065.6" r="5.4" fill="#38322a" opacity="0.96"/><circle cx="826.3" cy="2041.5" r="3" fill="#38322a" opacity="0.97"/><circle cx="759.7" cy="2064.6" r="4" fill="#38322a" opacity="0.99"/><circle cx="1433.7" cy="618.4" r="4.2" fill="#38322a" opacity="0.67"/><circle cx="852.7" cy="1198" r="5.2" fill="#38322a" opacity="0.99"/><circle cx="1151.7" cy="1199.9" r="7.4" fill="#38322a" opacity="0.48"/><circle cx="934.7" cy="1855.7" r="4.5" fill="#38322a" opacity="0.96"/><circle cx="1413" cy="1931.1" r="5.3" fill="#38322a" opacity="0.66"/><circle cx="1465.9" cy="589.4" r="4.8" fill="#38322a" opacity="0.59"/><circle cx="1872.8" cy="1900.1" r="3.7" fill="#38322a" opacity="0.92"/><circle cx="1835.2" cy="819.5" r="3.9" fill="#38322a" opacity="0.74"/><circle cx="947.3" cy="1234.4" r="5" fill="#38322a" opacity="0.96"/><circle cx="1455.2" cy="792.3" r="3.8" fill="#38322a" opacity="0.54"/><circle cx="1066.5" cy="987.7" r="4.9" fill="#38322a" opacity="0.86"/><circle cx="1326.7" cy="655.7" r="7" fill="#38322a" opacity="0.68"/><circle cx="570.6" cy="771.7" r="4.1" fill="#38322a" opacity="0.59"/><circle cx="886.6" cy="1713.1" r="6.6" fill="#38322a" opacity="0.49"/><circle cx="1472.5" cy="1916.7" r="4.9" fill="#38322a" opacity="0.93"/><circle cx="1074" cy="862.4" r="4.9" fill="#38322a" opacity="0.79"/><circle cx="871.4" cy="1300.7" r="6.3" fill="#38322a" opacity="0.82"/><circle cx="1468.6" cy="1770.7" r="7.4" fill="#38322a" opacity="0.84"/><circle cx="1987.1" cy="1050.6" r="4.6" fill="#38322a" opacity="0.95"/><circle cx="802.3" cy="1510.2" r="3.9" fill="#38322a" opacity="0.84"/><circle cx="1305.4" cy="1911.5" r="4.2" fill="#38322a" opacity="0.52"/><circle cx="1623.6" cy="2181.1" r="6.7" fill="#38322a" opacity="0.65"/><circle cx="1041.5" cy="1444.2" r="7" fill="#38322a" opacity="0.96"/><circle cx="1127.3" cy="947" r="3.2" fill="#38322a" opacity="0.45"/><circle cx="1431.2" cy="1511.6" r="3.2" fill="#38322a" opacity="0.87"/><circle cx="313" cy="1384.1" r="5" fill="#38322a" opacity="0.65"/><circle cx="1203.5" cy="2197.6" r="3" fill="#38322a" opacity="0.67"/><circle cx="834.8" cy="868.2" r="3.9" fill="#38322a" opacity="0.94"/><circle cx="1181.6" cy="2250.4" r="4.7" fill="#38322a" opacity="0.60"/><circle cx="448.7" cy="1212.6" r="6.7" fill="#38322a" opacity="0.55"/><circle cx="1612.5" cy="655.7" r="7.8" fill="#38322a" opacity="0.69"/><circle cx="1201" cy="1022.7" r="5.6" fill="#38322a" opacity="0.55"/><circle cx="1472.1" cy="1989.5" r="4.8" fill="#38322a" opacity="0.45"/><circle cx="1697.1" cy="1385.4" r="7.7" fill="#38322a" opacity="0.83"/><circle cx="733.9" cy="1537" r="7.7" fill="#38322a" opacity="0.50"/><circle cx="1257.2" cy="742.1" r="7.1" fill="#38322a" opacity="0.50"/><circle cx="879.6" cy="1562.4" r="4.1" fill="#38322a" opacity="0.87"/><circle cx="1338.4" cy="1570.7" r="5.4" fill="#38322a" opacity="0.46"/><circle cx="802.3" cy="1045.8" r="3.7" fill="#38322a" opacity="0.74"/><circle cx="976.5" cy="2030.9" r="7.6" fill="#38322a" opacity="0.55"/><path d="M825.2,1221 Q879,1211.3 932.8,1221 Q879,1230.7 825.2,1221 Z M879,1167.2 Q888.7,1221 879,1274.8 Q869.3,1221 879,1167.2 Z" fill="#38322a"/><path d="M707.3,876.8 Q758,867.6 808.8,876.8 Q758,885.9 707.3,876.8 Z M758,826 Q767.2,876.8 758,927.5 Q748.9,876.8 758,826 Z" fill="#38322a"/><path d="M585.5,1016 Q632.2,1007.6 678.9,1016 Q632.2,1024.4 585.5,1016 Z M632.2,969.3 Q640.6,1016 632.2,1062.7 Q623.8,1016 632.2,969.3 Z" fill="#38322a"/><path d="M1220.4,1625.7 Q1263.9,1617.8 1307.4,1625.7 Q1263.9,1633.5 1220.4,1625.7 Z M1263.9,1582.1 Q1271.8,1625.7 1263.9,1669.2 Q1256.1,1625.7 1263.9,1582.1 Z" fill="#38322a"/><path d="M1250.8,1040.6 Q1308.2,1030.3 1365.6,1040.6 Q1308.2,1050.9 1250.8,1040.6 Z M1308.2,983.2 Q1318.5,1040.6 1308.2,1098 Q1297.9,1040.6 1308.2,983.2 Z" fill="#38322a"/><polyline points="1700.8,1497.4 1687.4,1429 1554.7,1317.7 1649,1178.7 1621.8,1195 1794.6,1110.7 1986.7,1097.4 " fill="none" stroke="#38322a" stroke-width="4" opacity="0.55"/><circle cx="1700.8" cy="1497.4" r="12" fill="#38322a"/><circle cx="1687.4" cy="1429" r="10.8" fill="#38322a"/><circle cx="1554.7" cy="1317.7" r="10.7" fill="#38322a"/><circle cx="1649" cy="1178.7" r="13.8" fill="#38322a"/><circle cx="1621.8" cy="1195" r="14" fill="#38322a"/><circle cx="1794.6" cy="1110.7" r="9.3" fill="#38322a"/><circle cx="1986.7" cy="1097.4" r="10.1" fill="#38322a"/><polyline points="1515,1599.7 1619,1599.5 1578.3,1524.9 1692.1,1392.7 1823.4,1521.5 1998.7,1638.8 " fill="none" stroke="#38322a" stroke-width="4" opacity="0.55"/><circle cx="1515" cy="1599.7" r="12" fill="#38322a"/><circle cx="1619" cy="1599.5" r="11.6" fill="#38322a"/><circle cx="1578.3" cy="1524.9" r="8.4" fill="#38322a"/><circle cx="1692.1" cy="1392.7" r="11.3" fill="#38322a"/><circle cx="1823.4" cy="1521.5" r="13.1" fill="#38322a"/><circle cx="1998.7" cy="1638.8" r="11.6" fill="#38322a"/><circle cx="1439.2" cy="1993.6" r="88" fill="#38322a"/><circle cx="1476.2" cy="1977.8" r="77.4" fill="#e5dbc6"/><path d="M370.1,2819.9 L 433.9,2819.9 L 433.9,2756.1 L 383.8,2756.1 L 383.8,2795.6 L 409.6,2795.6 L 409.6,2775.8 M446.1,2819.9 L 509.9,2819.9 L 509.9,2756.1 L 459.8,2756.1 L 459.8,2795.6 L 485.6,2795.6 L 485.6,2775.8 M522.1,2819.9 L 585.9,2819.9 L 585.9,2756.1 L 535.8,2756.1 L 535.8,2795.6 L 561.6,2795.6 L 561.6,2775.8 M598.1,2819.9 L 661.9,2819.9 L 661.9,2756.1 L 611.8,2756.1 L 611.8,2795.6 L 637.6,2795.6 L 637.6,2775.8 M674.1,2819.9 L 737.9,2819.9 L 737.9,2756.1 L 687.8,2756.1 L 687.8,2795.6 L 713.6,2795.6 L 713.6,2775.8 M750.1,2819.9 L 813.9,2819.9 L 813.9,2756.1 L 763.8,2756.1 L 763.8,2795.6 L 789.6,2795.6 L 789.6,2775.8 M826.1,2819.9 L 889.9,2819.9 L 889.9,2756.1 L 839.8,2756.1 L 839.8,2795.6 L 865.6,2795.6 L 865.6,2775.8 M902.1,2819.9 L 965.9,2819.9 L 965.9,2756.1 L 915.8,2756.1 L 915.8,2795.6 L 941.6,2795.6 L 941.6,2775.8 M978.1,2819.9 L 1041.9,2819.9 L 1041.9,2756.1 L 991.8,2756.1 L 991.8,2795.6 L 1017.6,2795.6 L 1017.6,2775.8 M1054.1,2819.9 L 1117.9,2819.9 L 1117.9,2756.1 L 1067.8,2756.1 L 1067.8,2795.6 L 1093.6,2795.6 L 1093.6,2775.8 M1130.1,2819.9 L 1193.9,2819.9 L 1193.9,2756.1 L 1143.8,2756.1 L 1143.8,2795.6 L 1169.6,2795.6 L 1169.6,2775.8 M1206.1,2819.9 L 1269.9,2819.9 L 1269.9,2756.1 L 1219.8,2756.1 L 1219.8,2795.6 L 1245.6,2795.6 L 1245.6,2775.8 M1282.1,2819.9 L 1345.9,2819.9 L 1345.9,2756.1 L 1295.8,2756.1 L 1295.8,2795.6 L 1321.6,2795.6 L 1321.6,2775.8 M1358.1,2819.9 L 1421.9,2819.9 L 1421.9,2756.1 L 1371.8,2756.1 L 1371.8,2795.6 L 1397.6,2795.6 L 1397.6,2775.8 M1434.1,2819.9 L 1497.9,2819.9 L 1497.9,2756.1 L 1447.8,2756.1 L 1447.8,2795.6 L 1473.6,2795.6 L 1473.6,2775.8 M1510.1,2819.9 L 1573.9,2819.9 L 1573.9,2756.1 L 1523.8,2756.1 L 1523.8,2795.6 L 1549.6,2795.6 L 1549.6,2775.8 M1586.1,2819.9 L 1649.9,2819.9 L 1649.9,2756.1 L 1599.8,2756.1 L 1599.8,2795.6 L 1625.6,2795.6 L 1625.6,2775.8 M1662.1,2819.9 L 1725.9,2819.9 L 1725.9,2756.1 L 1675.8,2756.1 L 1675.8,2795.6 L 1701.6,2795.6 L 1701.6,2775.8 M1738.1,2819.9 L 1801.9,2819.9 L 1801.9,2756.1 L 1751.8,2756.1 L 1751.8,2795.6 L 1777.6,2795.6 L 1777.6,2775.8 M1814.1,2819.9 L 1877.9,2819.9 L 1877.9,2756.1 L 1827.8,2756.1 L 1827.8,2795.6 L 1853.6,2795.6 L 1853.6,2775.8 M1890.1,2819.9 L 1953.9,2819.9 L 1953.9,2756.1 L 1903.8,2756.1 L 1903.8,2795.6 L 1929.6,2795.6 L 1929.6,2775.8 M1966.1,2819.9 L 2029.9,2819.9 L 2029.9,2756.1 L 1979.8,2756.1 L 1979.8,2795.6 L 2005.6,2795.6 L 2005.6,2775.8 " fill="none" stroke="#38322a" stroke-width="9.9"/><rect x="130" y="130" width="2140" height="2740" fill="none" stroke="#38322a" stroke-width="5"/><rect x="152" y="152" width="2096" height="2696" fill="none" stroke="#38322a" stroke-width="2.5" opacity="0.8"/></g><rect width="2400" height="3000" filter="url(#a119-mottle)" style="mix-blend-mode:multiply" opacity="0.5"/><rect width="2400" height="3000" filter="url(#a119-fade)" style="mix-blend-mode:screen" opacity="0.55"/><rect width="2400" height="3000" filter="url(#a119-grain)" style="mix-blend-mode:multiply" opacity="0.32"/><ellipse cx="210.4" cy="2502.7" rx="131.8" ry="102.1" fill="#6b4a22" opacity="0.033" filter="url(#a119-blur9)"/><ellipse cx="552.1" cy="961.7" rx="259.4" ry="180.6" fill="#6b4a22" opacity="0.027" filter="url(#a119-blur9)"/><ellipse cx="1531.5" cy="1785.2" rx="215.1" ry="148.4" fill="#6b4a22" opacity="0.028" filter="url(#a119-blur9)"/><g opacity="0.3"><rect y="3" width="2400" height="2" fill="#e5dbc6"/><rect y="11" width="2400" height="2" fill="#e5dbc6"/><rect y="19" width="2400" height="2" fill="#e5dbc6"/><rect y="27" width="2400" height="2" fill="#e5dbc6"/><rect y="35" width="2400" height="2" fill="#e5dbc6"/><rect y="43" width="2400" height="2" fill="#e5dbc6"/><rect y="51" width="2400" height="2" fill="#e5dbc6"/><rect y="59" width="2400" height="2" fill="#e5dbc6"/><rect y="67" width="2400" height="2" fill="#e5dbc6"/><rect y="75" width="2400" height="2" fill="#e5dbc6"/><rect y="83" width="2400" height="2" fill="#e5dbc6"/><rect y="91" width="2400" height="2" fill="#e5dbc6"/><rect y="99" width="2400" height="2" fill="#e5dbc6"/><rect y="107" width="2400" height="2" fill="#e5dbc6"/><rect y="115" width="2400" height="2" fill="#e5dbc6"/><rect y="123" width="2400" height="2" fill="#e5dbc6"/><rect y="131" width="2400" height="2" fill="#e5dbc6"/><rect y="139" width="2400" height="2" fill="#e5dbc6"/><rect y="147" width="2400" height="2" fill="#e5dbc6"/><rect y="155" width="2400" height="2" fill="#e5dbc6"/><rect y="163" width="2400" height="2" fill="#e5dbc6"/><rect y="171" width="2400" height="2" fill="#e5dbc6"/><rect y="179" width="2400" height="2" fill="#e5dbc6"/><rect y="187" width="2400" height="2" fill="#e5dbc6"/><rect y="195" width="2400" height="2" fill="#e5dbc6"/><rect y="203" width="2400" height="2" fill="#e5dbc6"/><rect y="211" width="2400" height="2" fill="#e5dbc6"/><rect y="219" width="2400" height="2" fill="#e5dbc6"/><rect y="227" width="2400" height="2" fill="#e5dbc6"/><rect y="235" width="2400" height="2" fill="#e5dbc6"/><rect y="243" width="2400" height="2" fill="#e5dbc6"/><rect y="251" width="2400" height="2" fill="#e5dbc6"/><rect y="259" width="2400" height="2" fill="#e5dbc6"/><rect y="267" width="2400" height="2" fill="#e5dbc6"/><rect y="275" width="2400" height="2" fill="#e5dbc6"/><rect y="283" width="2400" height="2" fill="#e5dbc6"/><rect y="291" width="2400" height="2" fill="#e5dbc6"/><rect y="299" width="2400" height="2" fill="#e5dbc6"/><rect y="307" width="2400" height="2" fill="#e5dbc6"/><rect y="315" width="2400" height="2" fill="#e5dbc6"/><rect y="323" width="2400" height="2" fill="#e5dbc6"/><rect y="331" width="2400" height="2" fill="#e5dbc6"/><rect y="339" width="2400" height="2" fill="#e5dbc6"/><rect y="347" width="2400" height="2" fill="#e5dbc6"/><rect y="355" width="2400" height="2" fill="#e5dbc6"/><rect y="363" width="2400" height="2" fill="#e5dbc6"/><rect y="371" width="2400" height="2" fill="#e5dbc6"/><rect y="379" width="2400" height="2" fill="#e5dbc6"/><rect y="387" width="2400" height="2" fill="#e5dbc6"/><rect y="395" width="2400" height="2" fill="#e5dbc6"/><rect y="403" width="2400" height="2" fill="#e5dbc6"/><rect y="411" width="2400" height="2" fill="#e5dbc6"/><rect y="419" width="2400" height="2" fill="#e5dbc6"/><rect y="427" width="2400" height="2" fill="#e5dbc6"/><rect y="435" width="2400" height="2" fill="#e5dbc6"/><rect y="443" width="2400" height="2" fill="#e5dbc6"/><rect y="451" width="2400" height="2" fill="#e5dbc6"/><rect y="459" width="2400" height="2" fill="#e5dbc6"/><rect y="467" width="2400" height="2" fill="#e5dbc6"/><rect y="475" width="2400" height="2" fill="#e5dbc6"/><rect y="483" width="2400" height="2" fill="#e5dbc6"/><rect y="491" width="2400" height="2" fill="#e5dbc6"/><rect y="499" width="2400" height="2" fill="#e5dbc6"/><rect y="507" width="2400" height="2" fill="#e5dbc6"/><rect y="515" width="2400" height="2" fill="#e5dbc6"/><rect y="523" width="2400" height="2" fill="#e5dbc6"/><rect y="531" width="2400" height="2" fill="#e5dbc6"/><rect y="539" width="2400" height="2" fill="#e5dbc6"/><rect y="547" width="2400" height="2" fill="#e5dbc6"/><rect y="555" width="2400" height="2" fill="#e5dbc6"/><rect y="563" width="2400" height="2" fill="#e5dbc6"/><rect y="571" width="2400" height="2" fill="#e5dbc6"/><rect y="579" width="2400" height="2" fill="#e5dbc6"/><rect y="587" width="2400" height="2" fill="#e5dbc6"/><rect y="595" width="2400" height="2" fill="#e5dbc6"/><rect y="603" width="2400" height="2" fill="#e5dbc6"/><rect y="611" width="2400" height="2" fill="#e5dbc6"/><rect y="619" width="2400" height="2" fill="#e5dbc6"/><rect y="627" width="2400" height="2" fill="#e5dbc6"/><rect y="635" width="2400" height="2" fill="#e5dbc6"/><rect y="643" width="2400" height="2" fill="#e5dbc6"/><rect y="651" width="2400" height="2" fill="#e5dbc6"/><rect y="659" width="2400" height="2" fill="#e5dbc6"/><rect y="667" width="2400" height="2" fill="#e5dbc6"/><rect y="675" width="2400" height="2" fill="#e5dbc6"/><rect y="683" width="2400" height="2" fill="#e5dbc6"/><rect y="691" width="2400" height="2" fill="#e5dbc6"/><rect y="699" width="2400" height="2" fill="#e5dbc6"/><rect y="707" width="2400" height="2" fill="#e5dbc6"/><rect y="715" width="2400" height="2" fill="#e5dbc6"/><rect y="723" width="2400" height="2" fill="#e5dbc6"/><rect y="731" width="2400" height="2" fill="#e5dbc6"/><rect y="739" width="2400" height="2" fill="#e5dbc6"/><rect y="747" width="2400" height="2" fill="#e5dbc6"/><rect y="755" width="2400" height="2" fill="#e5dbc6"/><rect y="763" width="2400" height="2" fill="#e5dbc6"/><rect y="771" width="2400" height="2" fill="#e5dbc6"/><rect y="779" width="2400" height="2" fill="#e5dbc6"/><rect y="787" width="2400" height="2" fill="#e5dbc6"/><rect y="795" width="2400" height="2" fill="#e5dbc6"/><rect y="803" width="2400" height="2" fill="#e5dbc6"/><rect y="811" width="2400" height="2" fill="#e5dbc6"/><rect y="819" width="2400" height="2" fill="#e5dbc6"/><rect y="827" width="2400" height="2" fill="#e5dbc6"/><rect y="835" width="2400" height="2" fill="#e5dbc6"/><rect y="843" width="2400" height="2" fill="#e5dbc6"/><rect y="851" width="2400" height="2" fill="#e5dbc6"/><rect y="859" width="2400" height="2" fill="#e5dbc6"/><rect y="867" width="2400" height="2" fill="#e5dbc6"/><rect y="875" width="2400" height="2" fill="#e5dbc6"/><rect y="883" width="2400" height="2" fill="#e5dbc6"/><rect y="891" width="2400" height="2" fill="#e5dbc6"/><rect y="899" width="2400" height="2" fill="#e5dbc6"/><rect y="907" width="2400" height="2" fill="#e5dbc6"/><rect y="915" width="2400" height="2" fill="#e5dbc6"/><rect y="923" width="2400" height="2" fill="#e5dbc6"/><rect y="931" width="2400" height="2" fill="#e5dbc6"/><rect y="939" width="2400" height="2" fill="#e5dbc6"/><rect y="947" width="2400" height="2" fill="#e5dbc6"/><rect y="955" width="2400" height="2" fill="#e5dbc6"/><rect y="963" width="2400" height="2" fill="#e5dbc6"/><rect y="971" width="2400" height="2" fill="#e5dbc6"/><rect y="979" width="2400" height="2" fill="#e5dbc6"/><rect y="987" width="2400" height="2" fill="#e5dbc6"/><rect y="995" width="2400" height="2" fill="#e5dbc6"/><rect y="1003" width="2400" height="2" fill="#e5dbc6"/><rect y="1011" width="2400" height="2" fill="#e5dbc6"/><rect y="1019" width="2400" height="2" fill="#e5dbc6"/><rect y="1027" width="2400" height="2" fill="#e5dbc6"/><rect y="1035" width="2400" height="2" fill="#e5dbc6"/><rect y="1043" width="2400" height="2" fill="#e5dbc6"/><rect y="1051" width="2400" height="2" fill="#e5dbc6"/><rect y="1059" width="2400" height="2" fill="#e5dbc6"/><rect y="1067" width="2400" height="2" fill="#e5dbc6"/><rect y="1075" width="2400" height="2" fill="#e5dbc6"/><rect y="1083" width="2400" height="2" fill="#e5dbc6"/><rect y="1091" width="2400" height="2" fill="#e5dbc6"/><rect y="1099" width="2400" height="2" fill="#e5dbc6"/><rect y="1107" width="2400" height="2" fill="#e5dbc6"/><rect y="1115" width="2400" height="2" fill="#e5dbc6"/><rect y="1123" width="2400" height="2" fill="#e5dbc6"/><rect y="1131" width="2400" height="2" fill="#e5dbc6"/><rect y="1139" width="2400" height="2" fill="#e5dbc6"/><rect y="1147" width="2400" height="2" fill="#e5dbc6"/><rect y="1155" width="2400" height="2" fill="#e5dbc6"/><rect y="1163" width="2400" height="2" fill="#e5dbc6"/><rect y="1171" width="2400" height="2" fill="#e5dbc6"/><rect y="1179" width="2400" height="2" fill="#e5dbc6"/><rect y="1187" width="2400" height="2" fill="#e5dbc6"/><rect y="1195" width="2400" height="2" fill="#e5dbc6"/><rect y="1203" width="2400" height="2" fill="#e5dbc6"/><rect y="1211" width="2400" height="2" fill="#e5dbc6"/><rect y="1219" width="2400" height="2" fill="#e5dbc6"/><rect y="1227" width="2400" height="2" fill="#e5dbc6"/><rect y="1235" width="2400" height="2" fill="#e5dbc6"/><rect y="1243" width="2400" height="2" fill="#e5dbc6"/><rect y="1251" width="2400" height="2" fill="#e5dbc6"/><rect y="1259" width="2400" height="2" fill="#e5dbc6"/><rect y="1267" width="2400" height="2" fill="#e5dbc6"/><rect y="1275" width="2400" height="2" fill="#e5dbc6"/><rect y="1283" width="2400" height="2" fill="#e5dbc6"/><rect y="1291" width="2400" height="2" fill="#e5dbc6"/><rect y="1299" width="2400" height="2" fill="#e5dbc6"/><rect y="1307" width="2400" height="2" fill="#e5dbc6"/><rect y="1315" width="2400" height="2" fill="#e5dbc6"/><rect y="1323" width="2400" height="2" fill="#e5dbc6"/><rect y="1331" width="2400" height="2" fill="#e5dbc6"/><rect y="1339" width="2400" height="2" fill="#e5dbc6"/><rect y="1347" width="2400" height="2" fill="#e5dbc6"/><rect y="1355" width="2400" height="2" fill="#e5dbc6"/><rect y="1363" width="2400" height="2" fill="#e5dbc6"/><rect y="1371" width="2400" height="2" fill="#e5dbc6"/><rect y="1379" width="2400" height="2" fill="#e5dbc6"/><rect y="1387" width="2400" height="2" fill="#e5dbc6"/><rect y="1395" width="2400" height="2" fill="#e5dbc6"/><rect y="1403" width="2400" height="2" fill="#e5dbc6"/><rect y="1411" width="2400" height="2" fill="#e5dbc6"/><rect y="1419" width="2400" height="2" fill="#e5dbc6"/><rect y="1427" width="2400" height="2" fill="#e5dbc6"/><rect y="1435" width="2400" height="2" fill="#e5dbc6"/><rect y="1443" width="2400" height="2" fill="#e5dbc6"/><rect y="1451" width="2400" height="2" fill="#e5dbc6"/><rect y="1459" width="2400" height="2" fill="#e5dbc6"/><rect y="1467" width="2400" height="2" fill="#e5dbc6"/><rect y="1475" width="2400" height="2" fill="#e5dbc6"/><rect y="1483" width="2400" height="2" fill="#e5dbc6"/><rect y="1491" width="2400" height="2" fill="#e5dbc6"/><rect y="1499" width="2400" height="2" fill="#e5dbc6"/><rect y="1507" width="2400" height="2" fill="#e5dbc6"/><rect y="1515" width="2400" height="2" fill="#e5dbc6"/><rect y="1523" width="2400" height="2" fill="#e5dbc6"/><rect y="1531" width="2400" height="2" fill="#e5dbc6"/><rect y="1539" width="2400" height="2" fill="#e5dbc6"/><rect y="1547" width="2400" height="2" fill="#e5dbc6"/><rect y="1555" width="2400" height="2" fill="#e5dbc6"/><rect y="1563" width="2400" height="2" fill="#e5dbc6"/><rect y="1571" width="2400" height="2" fill="#e5dbc6"/><rect y="1579" width="2400" height="2" fill="#e5dbc6"/><rect y="1587" width="2400" height="2" fill="#e5dbc6"/><rect y="1595" width="2400" height="2" fill="#e5dbc6"/><rect y="1603" width="2400" height="2" fill="#e5dbc6"/><rect y="1611" width="2400" height="2" fill="#e5dbc6"/><rect y="1619" width="2400" height="2" fill="#e5dbc6"/><rect y="1627" width="2400" height="2" fill="#e5dbc6"/><rect y="1635" width="2400" height="2" fill="#e5dbc6"/><rect y="1643" width="2400" height="2" fill="#e5dbc6"/><rect y="1651" width="2400" height="2" fill="#e5dbc6"/><rect y="1659" width="2400" height="2" fill="#e5dbc6"/><rect y="1667" width="2400" height="2" fill="#e5dbc6"/><rect y="1675" width="2400" height="2" fill="#e5dbc6"/><rect y="1683" width="2400" height="2" fill="#e5dbc6"/><rect y="1691" width="2400" height="2" fill="#e5dbc6"/><rect y="1699" width="2400" height="2" fill="#e5dbc6"/><rect y="1707" width="2400" height="2" fill="#e5dbc6"/><rect y="1715" width="2400" height="2" fill="#e5dbc6"/><rect y="1723" width="2400" height="2" fill="#e5dbc6"/><rect y="1731" width="2400" height="2" fill="#e5dbc6"/><rect y="1739" width="2400" height="2" fill="#e5dbc6"/><rect y="1747" width="2400" height="2" fill="#e5dbc6"/><rect y="1755" width="2400" height="2" fill="#e5dbc6"/><rect y="1763" width="2400" height="2" fill="#e5dbc6"/><rect y="1771" width="2400" height="2" fill="#e5dbc6"/><rect y="1779" width="2400" height="2" fill="#e5dbc6"/><rect y="1787" width="2400" height="2" fill="#e5dbc6"/><rect y="1795" width="2400" height="2" fill="#e5dbc6"/><rect y="1803" width="2400" height="2" fill="#e5dbc6"/><rect y="1811" width="2400" height="2" fill="#e5dbc6"/><rect y="1819" width="2400" height="2" fill="#e5dbc6"/><rect y="1827" width="2400" height="2" fill="#e5dbc6"/><rect y="1835" width="2400" height="2" fill="#e5dbc6"/><rect y="1843" width="2400" height="2" fill="#e5dbc6"/><rect y="1851" width="2400" height="2" fill="#e5dbc6"/><rect y="1859" width="2400" height="2" fill="#e5dbc6"/><rect y="1867" width="2400" height="2" fill="#e5dbc6"/><rect y="1875" width="2400" height="2" fill="#e5dbc6"/><rect y="1883" width="2400" height="2" fill="#e5dbc6"/><rect y="1891" width="2400" height="2" fill="#e5dbc6"/><rect y="1899" width="2400" height="2" fill="#e5dbc6"/><rect y="1907" width="2400" height="2" fill="#e5dbc6"/><rect y="1915" width="2400" height="2" fill="#e5dbc6"/><rect y="1923" width="2400" height="2" fill="#e5dbc6"/><rect y="1931" width="2400" height="2" fill="#e5dbc6"/><rect y="1939" width="2400" height="2" fill="#e5dbc6"/><rect y="1947" width="2400" height="2" fill="#e5dbc6"/><rect y="1955" width="2400" height="2" fill="#e5dbc6"/><rect y="1963" width="2400" height="2" fill="#e5dbc6"/><rect y="1971" width="2400" height="2" fill="#e5dbc6"/><rect y="1979" width="2400" height="2" fill="#e5dbc6"/><rect y="1987" width="2400" height="2" fill="#e5dbc6"/><rect y="1995" width="2400" height="2" fill="#e5dbc6"/><rect y="2003" width="2400" height="2" fill="#e5dbc6"/><rect y="2011" width="2400" height="2" fill="#e5dbc6"/><rect y="2019" width="2400" height="2" fill="#e5dbc6"/><rect y="2027" width="2400" height="2" fill="#e5dbc6"/><rect y="2035" width="2400" height="2" fill="#e5dbc6"/><rect y="2043" width="2400" height="2" fill="#e5dbc6"/><rect y="2051" width="2400" height="2" fill="#e5dbc6"/><rect y="2059" width="2400" height="2" fill="#e5dbc6"/><rect y="2067" width="2400" height="2" fill="#e5dbc6"/><rect y="2075" width="2400" height="2" fill="#e5dbc6"/><rect y="2083" width="2400" height="2" fill="#e5dbc6"/><rect y="2091" width="2400" height="2" fill="#e5dbc6"/><rect y="2099" width="2400" height="2" fill="#e5dbc6"/><rect y="2107" width="2400" height="2" fill="#e5dbc6"/><rect y="2115" width="2400" height="2" fill="#e5dbc6"/><rect y="2123" width="2400" height="2" fill="#e5dbc6"/><rect y="2131" width="2400" height="2" fill="#e5dbc6"/><rect y="2139" width="2400" height="2" fill="#e5dbc6"/><rect y="2147" width="2400" height="2" fill="#e5dbc6"/><rect y="2155" width="2400" height="2" fill="#e5dbc6"/><rect y="2163" width="2400" height="2" fill="#e5dbc6"/><rect y="2171" width="2400" height="2" fill="#e5dbc6"/><rect y="2179" width="2400" height="2" fill="#e5dbc6"/><rect y="2187" width="2400" height="2" fill="#e5dbc6"/><rect y="2195" width="2400" height="2" fill="#e5dbc6"/><rect y="2203" width="2400" height="2" fill="#e5dbc6"/><rect y="2211" width="2400" height="2" fill="#e5dbc6"/><rect y="2219" width="2400" height="2" fill="#e5dbc6"/><rect y="2227" width="2400" height="2" fill="#e5dbc6"/><rect y="2235" width="2400" height="2" fill="#e5dbc6"/><rect y="2243" width="2400" height="2" fill="#e5dbc6"/><rect y="2251" width="2400" height="2" fill="#e5dbc6"/><rect y="2259" width="2400" height="2" fill="#e5dbc6"/><rect y="2267" width="2400" height="2" fill="#e5dbc6"/><rect y="2275" width="2400" height="2" fill="#e5dbc6"/><rect y="2283" width="2400" height="2" fill="#e5dbc6"/><rect y="2291" width="2400" height="2" fill="#e5dbc6"/><rect y="2299" width="2400" height="2" fill="#e5dbc6"/><rect y="2307" width="2400" height="2" fill="#e5dbc6"/><rect y="2315" width="2400" height="2" fill="#e5dbc6"/><rect y="2323" width="2400" height="2" fill="#e5dbc6"/><rect y="2331" width="2400" height="2" fill="#e5dbc6"/><rect y="2339" width="2400" height="2" fill="#e5dbc6"/><rect y="2347" width="2400" height="2" fill="#e5dbc6"/><rect y="2355" width="2400" height="2" fill="#e5dbc6"/><rect y="2363" width="2400" height="2" fill="#e5dbc6"/><rect y="2371" width="2400" height="2" fill="#e5dbc6"/><rect y="2379" width="2400" height="2" fill="#e5dbc6"/><rect y="2387" width="2400" height="2" fill="#e5dbc6"/><rect y="2395" width="2400" height="2" fill="#e5dbc6"/><rect y="2403" width="2400" height="2" fill="#e5dbc6"/><rect y="2411" width="2400" height="2" fill="#e5dbc6"/><rect y="2419" width="2400" height="2" fill="#e5dbc6"/><rect y="2427" width="2400" height="2" fill="#e5dbc6"/><rect y="2435" width="2400" height="2" fill="#e5dbc6"/><rect y="2443" width="2400" height="2" fill="#e5dbc6"/><rect y="2451" width="2400" height="2" fill="#e5dbc6"/><rect y="2459" width="2400" height="2" fill="#e5dbc6"/><rect y="2467" width="2400" height="2" fill="#e5dbc6"/><rect y="2475" width="2400" height="2" fill="#e5dbc6"/><rect y="2483" width="2400" height="2" fill="#e5dbc6"/><rect y="2491" width="2400" height="2" fill="#e5dbc6"/><rect y="2499" width="2400" height="2" fill="#e5dbc6"/><rect y="2507" width="2400" height="2" fill="#e5dbc6"/><rect y="2515" width="2400" height="2" fill="#e5dbc6"/><rect y="2523" width="2400" height="2" fill="#e5dbc6"/><rect y="2531" width="2400" height="2" fill="#e5dbc6"/><rect y="2539" width="2400" height="2" fill="#e5dbc6"/><rect y="2547" width="2400" height="2" fill="#e5dbc6"/><rect y="2555" width="2400" height="2" fill="#e5dbc6"/><rect y="2563" width="2400" height="2" fill="#e5dbc6"/><rect y="2571" width="2400" height="2" fill="#e5dbc6"/><rect y="2579" width="2400" height="2" fill="#e5dbc6"/><rect y="2587" width="2400" height="2" fill="#e5dbc6"/><rect y="2595" width="2400" height="2" fill="#e5dbc6"/><rect y="2603" width="2400" height="2" fill="#e5dbc6"/><rect y="2611" width="2400" height="2" fill="#e5dbc6"/><rect y="2619" width="2400" height="2" fill="#e5dbc6"/><rect y="2627" width="2400" height="2" fill="#e5dbc6"/><rect y="2635" width="2400" height="2" fill="#e5dbc6"/><rect y="2643" width="2400" height="2" fill="#e5dbc6"/><rect y="2651" width="2400" height="2" fill="#e5dbc6"/><rect y="2659" width="2400" height="2" fill="#e5dbc6"/><rect y="2667" width="2400" height="2" fill="#e5dbc6"/><rect y="2675" width="2400" height="2" fill="#e5dbc6"/><rect y="2683" width="2400" height="2" fill="#e5dbc6"/><rect y="2691" width="2400" height="2" fill="#e5dbc6"/><rect y="2699" width="2400" height="2" fill="#e5dbc6"/><rect y="2707" width="2400" height="2" fill="#e5dbc6"/><rect y="2715" width="2400" height="2" fill="#e5dbc6"/><rect y="2723" width="2400" height="2" fill="#e5dbc6"/><rect y="2731" width="2400" height="2" fill="#e5dbc6"/><rect y="2739" width="2400" height="2" fill="#e5dbc6"/><rect y="2747" width="2400" height="2" fill="#e5dbc6"/><rect y="2755" width="2400" height="2" fill="#e5dbc6"/><rect y="2763" width="2400" height="2" fill="#e5dbc6"/><rect y="2771" width="2400" height="2" fill="#e5dbc6"/><rect y="2779" width="2400" height="2" fill="#e5dbc6"/><rect y="2787" width="2400" height="2" fill="#e5dbc6"/><rect y="2795" width="2400" height="2" fill="#e5dbc6"/><rect y="2803" width="2400" height="2" fill="#e5dbc6"/><rect y="2811" width="2400" height="2" fill="#e5dbc6"/><rect y="2819" width="2400" height="2" fill="#e5dbc6"/><rect y="2827" width="2400" height="2" fill="#e5dbc6"/><rect y="2835" width="2400" height="2" fill="#e5dbc6"/><rect y="2843" width="2400" height="2" fill="#e5dbc6"/><rect y="2851" width="2400" height="2" fill="#e5dbc6"/><rect y="2859" width="2400" height="2" fill="#e5dbc6"/><rect y="2867" width="2400" height="2" fill="#e5dbc6"/><rect y="2875" width="2400" height="2" fill="#e5dbc6"/><rect y="2883" width="2400" height="2" fill="#e5dbc6"/><rect y="2891" width="2400" height="2" fill="#e5dbc6"/><rect y="2899" width="2400" height="2" fill="#e5dbc6"/><rect y="2907" width="2400" height="2" fill="#e5dbc6"/><rect y="2915" width="2400" height="2" fill="#e5dbc6"/><rect y="2923" width="2400" height="2" fill="#e5dbc6"/><rect y="2931" width="2400" height="2" fill="#e5dbc6"/><rect y="2939" width="2400" height="2" fill="#e5dbc6"/><rect y="2947" width="2400" height="2" fill="#e5dbc6"/><rect y="2955" width="2400" height="2" fill="#e5dbc6"/><rect y="2963" width="2400" height="2" fill="#e5dbc6"/><rect y="2971" width="2400" height="2" fill="#e5dbc6"/><rect y="2979" width="2400" height="2" fill="#e5dbc6"/><rect y="2987" width="2400" height="2" fill="#e5dbc6"/><rect y="2995" width="2400" height="2" fill="#e5dbc6"/></g><rect x="88" y="88" width="2224" height="2824" fill="none" stroke="#3a2c1a" stroke-width="4" opacity="0.2"/><rect x="94" y="94" width="2212" height="2812" fill="none" stroke="#fff6e0" stroke-width="2" opacity="0.25"/><circle cx="1913.9" cy="2839.5" r="12.4" fill="#8a5a2e" opacity="0.042"/><circle cx="1552.2" cy="1276.6" r="10.5" fill="#8a5a2e" opacity="0.113"/><circle cx="1363.3" cy="812.5" r="5.1" fill="#8a5a2e" opacity="0.115"/><circle cx="189.8" cy="1104.1" r="13.8" fill="#8a5a2e" opacity="0.102"/><circle cx="2023.5" cy="997.7" r="4.5" fill="#8a5a2e" opacity="0.120"/><circle cx="779.6" cy="1082.5" r="8.5" fill="#8a5a2e" opacity="0.098"/><circle cx="909.7" cy="2684.8" r="9.2" fill="#8a5a2e" opacity="0.055"/><circle cx="2281.5" cy="2402" r="11.1" fill="#8a5a2e" opacity="0.108"/><circle cx="696.1" cy="2589.1" r="3" fill="#8a5a2e" opacity="0.049"/><circle cx="2098.8" cy="2030.4" r="5.1" fill="#8a5a2e" opacity="0.046"/><circle cx="843.3" cy="1188.6" r="9.6" fill="#8a5a2e" opacity="0.127"/><circle cx="1309.5" cy="1725.4" r="5.9" fill="#8a5a2e" opacity="0.130"/><circle cx="147.9" cy="708.4" r="9.2" fill="#8a5a2e" opacity="0.077"/><circle cx="836.6" cy="2049.7" r="4.7" fill="#8a5a2e" opacity="0.045"/><circle cx="509.9" cy="962.7" r="6.9" fill="#8a5a2e" opacity="0.066"/><circle cx="1771.2" cy="1522.2" r="7.2" fill="#8a5a2e" opacity="0.128"/><circle cx="290.2" cy="695.9" r="3.8" fill="#8a5a2e" opacity="0.041"/><circle cx="2266.4" cy="2695" r="11.8" fill="#8a5a2e" opacity="0.084"/><circle cx="1389.1" cy="2473.8" r="15.4" fill="#8a5a2e" opacity="0.045"/><circle cx="529.9" cy="2639.9" r="11.6" fill="#8a5a2e" opacity="0.090"/><circle cx="751.4" cy="1051.4" r="8.7" fill="#8a5a2e" opacity="0.052"/><circle cx="1978.2" cy="1345.3" r="6.6" fill="#8a5a2e" opacity="0.057"/><circle cx="1677.1" cy="507.9" r="11.1" fill="#8a5a2e" opacity="0.050"/><rect width="2400" height="3000" fill="url(#a119-vig)"/></svg></svg>