<svg xmlns="http://www.w3.org/2000/svg" width="2400" height="1800" viewBox="0 0 2400 1800"><rect width="2400" height="1800" fill="#dfe4dc"/><rect y="1400" width="2400" height="400" fill="#c2a67e"/><line x1="60" y1="1400" x2="10" y2="1800" stroke="#00000015" stroke-width="5"/><line x1="260" y1="1400" x2="210" y2="1800" stroke="#00000015" stroke-width="5"/><line x1="460" y1="1400" x2="410" y2="1800" stroke="#00000015" stroke-width="5"/><line x1="660" y1="1400" x2="610" y2="1800" stroke="#00000015" stroke-width="5"/><line x1="860" y1="1400" x2="810" y2="1800" stroke="#00000015" stroke-width="5"/><line x1="1060" y1="1400" x2="1010" y2="1800" stroke="#00000015" stroke-width="5"/><line x1="1260" y1="1400" x2="1210" y2="1800" stroke="#00000015" stroke-width="5"/><line x1="1460" y1="1400" x2="1410" y2="1800" stroke="#00000015" stroke-width="5"/><line x1="1660" y1="1400" x2="1610" y2="1800" stroke="#00000015" stroke-width="5"/><line x1="1860" y1="1400" x2="1810" y2="1800" stroke="#00000015" stroke-width="5"/><line x1="2060" y1="1400" x2="2010" y2="1800" stroke="#00000015" stroke-width="5"/><line x1="2260" y1="1400" x2="2210" y2="1800" stroke="#00000015" stroke-width="5"/><rect x="180" y="260" width="900" height="620" fill="#8a6a48"/><rect x="215" y="295" width="830" height="550" fill="#41524a"/><line x1="280" y1="420" x2="760" y2="420" stroke="#ffffff66" stroke-width="9" stroke-linecap="round"/><line x1="280" y1="520" x2="620" y2="520" stroke="#ffffff44" stroke-width="9" stroke-linecap="round"/><circle cx="880" cy="560" r="90" fill="none" stroke="#ffffff55" stroke-width="8"/><rect x="215" y="845" width="830" height="22" fill="#6f5436"/><rect x="330" y="1240" width="640" height="60" rx="10" fill="#9c7449"/><rect x="370" y="1300" width="60" height="240" fill="#8a6540"/><rect x="870" y="1300" width="60" height="240" fill="#8a6540"/><rect x="430" y="1160" width="150" height="80" rx="8" fill="#87681c"/><rect x="450" y="1120" width="150" height="40" rx="8" fill="#233142"/><circle cx="800" cy="1130" r="86" fill="#7fa3b8"/><path d="M760,1060 Q820,1100 780,1190 M740,1090 Q800,1120 850,1100" stroke="#5d8069" stroke-width="16" fill="none" stroke-linecap="round"/><circle cx="800" cy="1130" r="86" fill="none" stroke="#6b5233" stroke-width="7"/><line x1="800" y1="1216" x2="800" y2="1250" stroke="#6b5233" stroke-width="10"/><rect x="750" y="1244" width="100" height="14" rx="7" fill="#6b5233"/><rect x="1980" y="700" width="300" height="800" fill="#9c7449"/><rect x="2000" y="930" width="260" height="16" fill="#7c5a37"/><rect x="2020" y="790" width="36" height="140" fill="#b3502f"/><rect x="2066" y="802" width="36" height="128" fill="#39685c"/><rect x="2112" y="790" width="36" height="140" fill="#c9a227"/><rect x="2158" y="802" width="36" height="128" fill="#2c4661"/><rect x="2204" y="790" width="36" height="140" fill="#8a4423"/><rect x="2000" y="1180" width="260" height="16" fill="#7c5a37"/><rect x="2020" y="1040" width="36" height="140" fill="#39685c"/><rect x="2066" y="1052" width="36" height="128" fill="#c9a227"/><rect x="2112" y="1040" width="36" height="140" fill="#2c4661"/><rect x="2158" y="1052" width="36" height="128" fill="#8a4423"/><rect x="2204" y="1040" width="36" height="140" fill="#b3502f"/><rect x="2000" y="1430" width="260" height="16" fill="#7c5a37"/><rect x="2020" y="1290" width="36" height="140" fill="#c9a227"/><rect x="2066" y="1302" width="36" height="128" fill="#2c4661"/><rect x="2112" y="1290" width="36" height="140" fill="#8a4423"/><rect x="2158" y="1302" width="36" height="128" fill="#b3502f"/><rect x="2204" y="1290" width="36" height="140" fill="#39685c"/><defs><filter id="a175c-sh" x="-30%" y="-30%" width="160%" height="160%"><feGaussianBlur stdDeviation="16"/></filter></defs><rect x="1340.5" y="298.5" width="517" height="635" fill="#000" opacity="0.28" filter="url(#a175c-sh)"/><rect x="1326.5" y="276.5" width="517" height="635" fill="#3d342a"/><rect x="1341.8" y="291.8" width="486.4" height="604.5" fill="none" stroke="#00000055" stroke-width="3"/><rect x="1350" y="300" width="470" height="588" fill="#f6f2ea"/><svg x="1385.3" y="335.3" width="399.5" height="517.5" viewBox="0 0 2400 3000" preserveAspectRatio="xMidYMid slice"><rect width="2400" height="3000" fill="#141b25"/><radialGradient id="a175-vig" cx="50%" cy="42%" r="80%"><stop offset="55%" stop-color="#000" stop-opacity="0"/><stop offset="100%" stop-color="#000" stop-opacity="0.15"/></radialGradient><rect width="2400" height="3000" fill="url(#a175-vig)"/><circle cx="818.9" cy="1771" r="1.6" fill="#c9a227" opacity="0.041"/><circle cx="2147.7" cy="1235" r="2.2" fill="#c9a227" opacity="0.031"/><circle cx="1189.4" cy="667.2" r="3.9" fill="#c9a227" opacity="0.065"/><circle cx="1321.6" cy="111" r="2.5" fill="#c9a227" opacity="0.040"/><circle cx="1707.8" cy="2065.3" r="2.3" fill="#c9a227" opacity="0.069"/><circle cx="1853.4" cy="2182.6" r="2.9" fill="#c9a227" opacity="0.071"/><circle cx="2130.5" cy="2285.1" r="3.9" fill="#c9a227" opacity="0.052"/><circle cx="327.8" cy="2745.2" r="4.1" fill="#c9a227" opacity="0.042"/><circle cx="2004.5" cy="886.1" r="2.8" fill="#c9a227" opacity="0.048"/><circle cx="760.1" cy="538.1" r="3.2" fill="#c9a227" opacity="0.054"/><circle cx="1109.9" cy="2387.2" r="2" fill="#c9a227" opacity="0.079"/><circle cx="899.8" cy="2421.6" r="4.4" fill="#c9a227" opacity="0.054"/><circle cx="2291.7" cy="2817.5" r="2.5" fill="#c9a227" opacity="0.070"/><circle cx="2024.9" cy="2734" r="3.1" fill="#c9a227" opacity="0.056"/><circle cx="1373.6" cy="2418" r="4.1" fill="#c9a227" opacity="0.063"/><circle cx="1290" cy="2525.1" r="4.3" fill="#c9a227" opacity="0.034"/><circle cx="994.3" cy="520.8" r="4.1" fill="#c9a227" opacity="0.039"/><circle cx="664.3" cy="1208.3" r="1.5" fill="#c9a227" opacity="0.048"/><circle cx="2057.2" cy="415.8" r="4.3" fill="#c9a227" opacity="0.035"/><circle cx="812.7" cy="84.4" r="1.6" fill="#c9a227" opacity="0.049"/><circle cx="1147.7" cy="2099.3" r="2.4" fill="#c9a227" opacity="0.057"/><circle cx="1639.4" cy="2489.1" r="1.7" fill="#c9a227" opacity="0.064"/><circle cx="856.8" cy="688.8" r="3.1" fill="#c9a227" opacity="0.059"/><circle cx="1078.2" cy="59.3" r="3.6" fill="#c9a227" opacity="0.044"/><circle cx="533.2" cy="2404.8" r="1.6" fill="#c9a227" opacity="0.031"/><circle cx="1768.8" cy="248" r="3.6" fill="#c9a227" opacity="0.072"/><circle cx="1987.6" cy="185" r="4.4" fill="#c9a227" opacity="0.057"/><circle cx="2131.2" cy="580" r="3.1" fill="#c9a227" opacity="0.073"/><circle cx="1287.4" cy="2795.3" r="1.5" fill="#c9a227" opacity="0.044"/><circle cx="2142.5" cy="2402.1" r="3.9" fill="#c9a227" opacity="0.053"/><circle cx="2337.7" cy="204.6" r="3.4" fill="#c9a227" opacity="0.032"/><circle cx="146.5" cy="2477.2" r="2.6" fill="#c9a227" opacity="0.049"/><circle cx="2129.1" cy="718" r="3.3" fill="#c9a227" opacity="0.068"/><circle cx="1809.8" cy="2902.7" r="3.8" fill="#c9a227" opacity="0.069"/><circle cx="1369.5" cy="1780.2" r="1.8" fill="#c9a227" opacity="0.034"/><circle cx="1076.9" cy="895.4" r="2.2" fill="#c9a227" opacity="0.062"/><circle cx="2233.8" cy="2375" r="3.7" fill="#c9a227" opacity="0.046"/><circle cx="819.8" cy="939.7" r="3.9" fill="#c9a227" opacity="0.032"/><circle cx="739.3" cy="1965.4" r="2.3" fill="#c9a227" opacity="0.035"/><circle cx="2161.7" cy="1555.9" r="1.5" fill="#c9a227" opacity="0.071"/><circle cx="83.8" cy="327.8" r="2.2" fill="#c9a227" opacity="0.077"/><circle cx="1201.3" cy="1608.5" r="2.6" fill="#c9a227" opacity="0.045"/><circle cx="378.4" cy="2614.5" r="2.3" fill="#c9a227" opacity="0.051"/><circle cx="1494.5" cy="47.2" r="3.9" fill="#c9a227" opacity="0.033"/><circle cx="2137.5" cy="2632.1" r="2.4" fill="#c9a227" opacity="0.039"/><circle cx="152.6" cy="1349.5" r="2.8" fill="#c9a227" opacity="0.045"/><circle cx="1724" cy="1989.9" r="2.6" fill="#c9a227" opacity="0.036"/><circle cx="873" cy="1088.5" r="3" fill="#c9a227" opacity="0.068"/><circle cx="1898.8" cy="1082.6" r="2.4" fill="#c9a227" opacity="0.077"/><circle cx="1125" cy="1624" r="3.3" fill="#c9a227" opacity="0.075"/><circle cx="182.5" cy="605" r="1.6" fill="#c9a227" opacity="0.072"/><circle cx="906.1" cy="512.8" r="4.2" fill="#c9a227" opacity="0.032"/><circle cx="1621.5" cy="894" r="2.5" fill="#c9a227" opacity="0.079"/><circle cx="1314.7" cy="2008.9" r="2.4" fill="#c9a227" opacity="0.069"/><circle cx="943.7" cy="1424.9" r="2.6" fill="#c9a227" opacity="0.065"/><circle cx="1713.7" cy="461.6" r="2.9" fill="#c9a227" opacity="0.061"/><circle cx="1966.7" cy="1420.5" r="3.3" fill="#c9a227" opacity="0.034"/><circle cx="1198.7" cy="685.8" r="3.7" fill="#c9a227" opacity="0.058"/><circle cx="1425.7" cy="569.1" r="1.7" fill="#c9a227" opacity="0.044"/><circle cx="1037.8" cy="2610.6" r="2.7" fill="#c9a227" opacity="0.033"/><circle cx="351.6" cy="1818.8" r="2.3" fill="#c9a227" opacity="0.061"/><circle cx="1225.4" cy="592.9" r="2" fill="#c9a227" opacity="0.077"/><circle cx="863.6" cy="1740.6" r="3.6" fill="#c9a227" opacity="0.049"/><circle cx="1860.7" cy="1291.2" r="1.7" fill="#c9a227" opacity="0.069"/><circle cx="680.6" cy="1124.2" r="3.4" fill="#c9a227" opacity="0.060"/><circle cx="877.9" cy="1517" r="2.5" fill="#c9a227" opacity="0.076"/><circle cx="1160.5" cy="798.7" r="2.6" fill="#c9a227" opacity="0.064"/><circle cx="840.3" cy="1187.2" r="2.2" fill="#c9a227" opacity="0.064"/><circle cx="1495.2" cy="2892.6" r="3.7" fill="#c9a227" opacity="0.080"/><circle cx="658.2" cy="2896.5" r="2.6" fill="#c9a227" opacity="0.031"/><circle cx="1251.6" cy="1220.4" r="1.8" fill="#c9a227" opacity="0.054"/><circle cx="985.8" cy="2742.6" r="2.2" fill="#c9a227" opacity="0.053"/><circle cx="1449.6" cy="2418.6" r="1.9" fill="#c9a227" opacity="0.043"/><circle cx="44" cy="942.7" r="4.4" fill="#c9a227" opacity="0.080"/><circle cx="2169.8" cy="2925.3" r="2.4" fill="#c9a227" opacity="0.073"/><circle cx="207.9" cy="1249.2" r="2.7" fill="#c9a227" opacity="0.047"/><circle cx="416.2" cy="2226.7" r="1.6" fill="#c9a227" opacity="0.034"/><circle cx="2303.2" cy="139.2" r="2.6" fill="#c9a227" opacity="0.054"/><circle cx="1896.5" cy="2523.9" r="2" fill="#c9a227" opacity="0.048"/><circle cx="1482.2" cy="1247.5" r="1.6" fill="#c9a227" opacity="0.074"/><rect x="190" y="190" width="2020" height="2620" fill="none" stroke="#c9a227" stroke-width="14"/><rect x="260" y="260" width="1880" height="2480" fill="none" stroke="#c9a227" stroke-width="7"/><rect x="148" y="148" width="84" height="84" fill="#87681c"/><rect x="148" y="2768" width="84" height="84" fill="#87681c"/><rect x="2168" y="148" width="84" height="84" fill="#87681c"/><rect x="2168" y="2768" width="84" height="84" fill="#87681c"/><path d="M1070,2120 L1100,1260 L1300,1260 L1330,2120 Z" fill="#c9a227"/><rect x="900" y="1200" width="600" height="86" rx="30" fill="#c9a227"/><line x1="930" y1="1243" x2="1470" y2="1243" stroke="#87681c" stroke-width="14"/><rect x="934" y="1050" width="532" height="86" rx="30" fill="#c9a227"/><line x1="964" y1="1093" x2="1436" y2="1093" stroke="#87681c" stroke-width="14"/><rect x="968" y="900" width="464" height="86" rx="30" fill="#c9a227"/><line x1="998" y1="943" x2="1402" y2="943" stroke="#87681c" stroke-width="14"/><rect x="1002" y="750" width="396" height="86" rx="30" fill="#c9a227"/><line x1="1032" y1="793" x2="1368" y2="793" stroke="#87681c" stroke-width="14"/><rect x="870" y="2120" width="660" height="90" fill="#c9a227"/><line x1="1096" y1="1380" x2="1096" y2="2080" stroke="#87681c" stroke-width="12" opacity="0.7"/><line x1="1148" y1="1380" x2="1148" y2="2080" stroke="#87681c" stroke-width="12" opacity="0.7"/><line x1="1200" y1="1380" x2="1200" y2="2080" stroke="#87681c" stroke-width="12" opacity="0.7"/><line x1="1252" y1="1380" x2="1252" y2="2080" stroke="#87681c" stroke-width="12" opacity="0.7"/><line x1="1304" y1="1380" x2="1304" y2="2080" stroke="#87681c" stroke-width="12" opacity="0.7"/><polygon points="1814.1,517.1 1823.4,540.7 1847,550 1823.4,559.4 1814.1,583 1804.7,559.4 1781.1,550 1804.7,540.7 " fill="#87681c"/><polygon points="790.2,2461.8 797.6,2480.7 816.5,2488.2 797.6,2495.6 790.2,2514.5 782.7,2495.6 763.9,2488.2 782.7,2480.7 " fill="#87681c"/><polygon points="873.3,2444.6 882.6,2468.2 906.2,2477.5 882.6,2486.8 873.3,2510.4 864,2486.8 840.4,2477.5 864,2468.2 " fill="#87681c"/><polygon points="1713.4,374.5 1724.1,401.8 1751.3,412.5 1724.1,423.2 1713.4,450.4 1702.6,423.2 1675.4,412.5 1702.6,401.8 " fill="#87681c"/><polygon points="553.4,2479.4 565,2508.7 594.3,2520.3 565,2531.9 553.4,2561.2 541.8,2531.9 512.4,2520.3 541.8,2508.7 " fill="#87681c"/><polygon points="1493.2,2432 1504.6,2460.9 1533.4,2472.3 1504.6,2483.7 1493.2,2512.6 1481.8,2483.7 1452.9,2472.3 1481.8,2460.9 " fill="#87681c"/><rect x="100" y="100" width="2200" height="2800" fill="none" stroke="#c9a227" stroke-width="9"/><rect x="142" y="142" width="2116" height="2716" fill="none" stroke="#c9a227" stroke-width="3" opacity="0.65"/></svg></svg>