<svg xmlns="http://www.w3.org/2000/svg" width="2400" height="1800" viewBox="0 0 2400 1800"><rect width="2400" height="1800" fill="#e9e1d2"/><rect y="1430" width="2400" height="370" fill="#c8b190"/><line x1="120" y1="1430" x2="60" y2="1800" stroke="#00000018" stroke-width="6"/><line x1="380" y1="1430" x2="320" y2="1800" stroke="#00000018" stroke-width="6"/><line x1="640" y1="1430" x2="580" y2="1800" stroke="#00000018" stroke-width="6"/><line x1="900" y1="1430" x2="840" y2="1800" stroke="#00000018" stroke-width="6"/><line x1="1160" y1="1430" x2="1100" y2="1800" stroke="#00000018" stroke-width="6"/><line x1="1420" y1="1430" x2="1360" y2="1800" stroke="#00000018" stroke-width="6"/><line x1="1680" y1="1430" x2="1620" y2="1800" stroke="#00000018" stroke-width="6"/><line x1="1940" y1="1430" x2="1880" y2="1800" stroke="#00000018" stroke-width="6"/><line x1="2200" y1="1430" x2="2140" y2="1800" stroke="#00000018" stroke-width="6"/><rect y="1418" width="2400" height="16" fill="#d7cbb6"/><rect x="700" y="980" width="1000" height="460" rx="26" fill="#a87e57"/><rect x="660" y="1290" width="1080" height="210" rx="30" fill="#f1ebdf"/><rect x="660" y="1420" width="1080" height="120" rx="24" fill="#2f5575" opacity="0.85"/><rect x="770" y="1180" width="300" height="150" rx="40" fill="#faf6ec"/><rect x="1330" y="1180" width="300" height="150" rx="40" fill="#b39d70"/><rect x="640" y="1530" width="1120" height="26" rx="12" fill="#a87e57"/><rect x="360" y="1260" width="240" height="220" rx="10" fill="#a87e57"/><rect x="380" y="1300" width="200" height="14" fill="#00000022"/><line x1="480" y1="1260" x2="480" y2="1130" stroke="#5a4632" stroke-width="12"/><path d="M410,1130 L550,1130 L520,1020 L440,1020 Z" fill="#2f5575"/><path d="M2060,1520 Q 1910,1282.5 1835,1345" fill="none" stroke="#5d7052" stroke-width="20" stroke-linecap="round"/><path d="M2060,1520 Q 1960,1282.5 1910,1295" fill="none" stroke="#5d7052" stroke-width="20" stroke-linecap="round"/><path d="M2060,1520 Q 2010,1282.5 1985,1245" fill="none" stroke="#5d7052" stroke-width="20" stroke-linecap="round"/><path d="M2060,1520 Q 2060,1282.5 2060,1195" fill="none" stroke="#5d7052" stroke-width="20" stroke-linecap="round"/><path d="M2060,1520 Q 2110,1282.5 2135,1245" fill="none" stroke="#5d7052" stroke-width="20" stroke-linecap="round"/><path d="M2060,1520 Q 2160,1282.5 2210,1295" fill="none" stroke="#5d7052" stroke-width="20" stroke-linecap="round"/><path d="M2060,1520 Q 2210,1282.5 2285,1345" fill="none" stroke="#5d7052" stroke-width="20" stroke-linecap="round"/><path d="M1972.5,1520 L2147.5,1520 L2125,1657.5 L1995,1657.5 Z" fill="#a9714d"/><defs><filter id="a131b-sh" x="-30%" y="-30%" width="160%" height="160%"><feGaussianBlur stdDeviation="16"/></filter></defs><rect x="928" y="246" width="572" height="702" fill="#000" opacity="0.28" filter="url(#a131b-sh)"/><rect x="914" y="224" width="572" height="702" fill="#4a3d2f"/><rect x="930.9" y="240.9" width="538.2" height="668.2" fill="none" stroke="#00000055" stroke-width="3"/><rect x="940" y="250" width="520" height="650" fill="#f6f2ea"/><svg x="979" y="289" width="442" height="572" viewBox="0 0 2400 3000" preserveAspectRatio="xMidYMid slice"><filter id="a131-warp" x="-4%" y="-4%" width="108%" height="108%"><feTurbulence type="fractalNoise" baseFrequency="0.0105" numOctaves="2" seed="4305" result="w"/><feDisplacementMap in="SourceGraphic" in2="w" scale="11" xChannelSelector="R" yChannelSelector="G"/></filter><filter id="a131-grain" x="0%" y="0%" width="100%" height="100%"><feTurbulence type="fractalNoise" baseFrequency="0.6" numOctaves="2" seed="4312"/><feColorMatrix type="matrix" values="0.33 0.33 0.33 0 0.62  0.33 0.33 0.33 0 0.62  0.33 0.33 0.33 0 0.62  0 0 0 0 1"/></filter><filter id="a131-mottle" x="0%" y="0%" width="100%" height="100%"><feTurbulence type="fractalNoise" baseFrequency="0.0045" numOctaves="3" seed="4318"/><feColorMatrix type="matrix" values="0.2 0.2 0.2 0 0.78  0.2 0.2 0.2 0 0.78  0.2 0.2 0.2 0 0.78  0 0 0 0 1"/></filter><filter id="a131-fade" x="0%" y="0%" width="100%" height="100%"><feTurbulence type="fractalNoise" baseFrequency="0.006" numOctaves="2" seed="4334"/><feColorMatrix type="matrix" values="0.3 0.3 0.3 0 -0.08  0.3 0.3 0.3 0 -0.08  0.3 0.3 0.3 0 -0.1  0 0 0 0 1"/></filter><filter id="a131-blur9"><feGaussianBlur stdDeviation="9"/></filter><radialGradient id="a131-vig" cx="50%" cy="44%" r="78%"><stop offset="52%" stop-color="#241a10" stop-opacity="0"/><stop offset="100%" stop-color="#241a10" stop-opacity="0.17"/></radialGradient><radialGradient id="a131-warm" cx="55%" cy="30%" r="85%"><stop offset="0%" stop-color="#e8c890" stop-opacity="0.14"/><stop offset="70%" stop-color="#e8c890" stop-opacity="0"/></radialGradient><rect width="2400" height="3000" fill="#d7c096"/><rect width="2400" height="3000" fill="url(#a131-warm)"/><rect x="0" width="33.9" height="3000" fill="#6b4e26" opacity="0.079"/><rect x="47" width="37.5" height="3000" fill="#6b4e26" opacity="0.065"/><rect x="99.1" width="41.4" height="3000" fill="#6b4e26" opacity="0.094"/><rect x="156.5" width="24.2" height="3000" fill="#6b4e26" opacity="0.041"/><rect x="190.2" width="31.9" height="3000" fill="#6b4e26" opacity="0.082"/><rect x="234.5" width="36.3" height="3000" fill="#6b4e26" opacity="0.087"/><rect x="284.9" width="40.4" height="3000" fill="#6b4e26" opacity="0.077"/><rect x="340.9" width="39.6" height="3000" fill="#6b4e26" opacity="0.075"/><rect x="395.9" width="33.1" height="3000" fill="#6b4e26" opacity="0.072"/><rect x="441.8" width="32.1" height="3000" fill="#6b4e26" opacity="0.052"/><rect x="486.4" width="27.4" height="3000" fill="#6b4e26" opacity="0.031"/><rect x="524.5" width="25" height="3000" fill="#6b4e26" opacity="0.099"/><rect x="559.1" width="22.8" height="3000" fill="#6b4e26" opacity="0.088"/><rect x="590.9" width="38.2" height="3000" fill="#6b4e26" opacity="0.035"/><rect x="644" width="22.6" height="3000" fill="#6b4e26" opacity="0.052"/><rect x="675.4" width="33" height="3000" fill="#6b4e26" opacity="0.078"/><rect x="721.1" width="33.6" height="3000" fill="#6b4e26" opacity="0.077"/><rect x="767.8" width="30.6" height="3000" fill="#6b4e26" opacity="0.087"/><rect x="810.3" width="33.3" height="3000" fill="#6b4e26" opacity="0.046"/><rect x="856.6" width="30.2" height="3000" fill="#6b4e26" opacity="0.076"/><rect x="898.5" width="28.4" height="3000" fill="#6b4e26" opacity="0.061"/><rect x="938" width="30.1" height="3000" fill="#6b4e26" opacity="0.042"/><rect x="979.9" width="25.2" height="3000" fill="#6b4e26" opacity="0.046"/><rect x="1014.9" width="23.6" height="3000" fill="#6b4e26" opacity="0.072"/><rect x="1047.7" width="25.2" height="3000" fill="#6b4e26" opacity="0.049"/><rect x="1082.7" width="30.2" height="3000" fill="#6b4e26" opacity="0.052"/><rect x="1124.6" width="26.8" height="3000" fill="#6b4e26" opacity="0.099"/><rect x="1161.9" width="27.1" height="3000" fill="#6b4e26" opacity="0.059"/><rect x="1199.5" width="29.1" height="3000" fill="#6b4e26" opacity="0.035"/><rect x="1239.9" width="20.5" height="3000" fill="#6b4e26" opacity="0.056"/><rect x="1268.4" width="39.5" height="3000" fill="#6b4e26" opacity="0.049"/><rect x="1323.3" width="39.8" height="3000" fill="#6b4e26" opacity="0.070"/><rect x="1378.5" width="41" height="3000" fill="#6b4e26" opacity="0.078"/><rect x="1435.5" width="25.4" height="3000" fill="#6b4e26" opacity="0.060"/><rect x="1470.8" width="30" height="3000" fill="#6b4e26" opacity="0.078"/><rect x="1512.4" width="32.6" height="3000" fill="#6b4e26" opacity="0.059"/><rect x="1557.7" width="30.9" height="3000" fill="#6b4e26" opacity="0.053"/><rect x="1600.7" width="28.3" height="3000" fill="#6b4e26" opacity="0.082"/><rect x="1639.9" width="24" height="3000" fill="#6b4e26" opacity="0.039"/><rect x="1673.3" width="31.3" height="3000" fill="#6b4e26" opacity="0.031"/><rect x="1716.7" width="30.9" height="3000" fill="#6b4e26" opacity="0.047"/><rect x="1759.6" width="32.7" height="3000" fill="#6b4e26" opacity="0.038"/><rect x="1805" width="30.9" height="3000" fill="#6b4e26" opacity="0.098"/><rect x="1847.9" width="36.3" height="3000" fill="#6b4e26" opacity="0.080"/><rect x="1898.3" width="42.8" height="3000" fill="#6b4e26" opacity="0.062"/><rect x="1957.8" width="20.7" height="3000" fill="#6b4e26" opacity="0.050"/><rect x="1986.5" width="21.2" height="3000" fill="#6b4e26" opacity="0.070"/><rect x="2015.9" width="28.4" height="3000" fill="#6b4e26" opacity="0.082"/><rect x="2055.4" width="43" height="3000" fill="#6b4e26" opacity="0.034"/><rect x="2115" width="29.4" height="3000" fill="#6b4e26" opacity="0.046"/><rect x="2155.9" width="41.7" height="3000" fill="#6b4e26" opacity="0.091"/><rect x="2213.8" width="27.8" height="3000" fill="#6b4e26" opacity="0.058"/><rect x="2252.4" width="24.4" height="3000" fill="#6b4e26" opacity="0.095"/><rect x="2286.4" width="39.9" height="3000" fill="#6b4e26" opacity="0.050"/><rect x="2341.7" width="35.7" height="3000" fill="#6b4e26" opacity="0.095"/><rect x="2391.3" width="39.7" height="3000" fill="#6b4e26" opacity="0.045"/><rect y="0" width="2400" height="19.8" fill="#7c5c30" opacity="0.024"/><rect y="33" width="2400" height="16.1" fill="#7c5c30" opacity="0.046"/><rect y="59.7" width="2400" height="28.3" fill="#7c5c30" opacity="0.059"/><rect y="106.9" width="2400" height="26.5" fill="#7c5c30" opacity="0.038"/><rect y="151.1" width="2400" height="19.7" fill="#7c5c30" opacity="0.052"/><rect y="184" width="2400" height="19.5" fill="#7c5c30" opacity="0.032"/><rect y="216.5" width="2400" height="28.5" fill="#7c5c30" opacity="0.035"/><rect y="264" width="2400" height="28.3" fill="#7c5c30" opacity="0.035"/><rect y="311.2" width="2400" height="12.4" fill="#7c5c30" opacity="0.032"/><rect y="331.9" width="2400" height="27.5" fill="#7c5c30" opacity="0.036"/><rect y="377.8" width="2400" height="28.1" fill="#7c5c30" opacity="0.038"/><rect y="424.6" width="2400" height="27.1" fill="#7c5c30" opacity="0.031"/><rect y="469.7" width="2400" height="24.9" fill="#7c5c30" opacity="0.053"/><rect y="511.3" width="2400" height="19.7" fill="#7c5c30" opacity="0.051"/><rect y="544.2" width="2400" height="24.4" fill="#7c5c30" opacity="0.028"/><rect y="584.8" width="2400" height="16.6" fill="#7c5c30" opacity="0.045"/><rect y="612.5" width="2400" height="15.1" fill="#7c5c30" opacity="0.032"/><rect y="637.7" width="2400" height="19.4" fill="#7c5c30" opacity="0.060"/><rect y="669.9" width="2400" height="20" fill="#7c5c30" opacity="0.032"/><rect y="703.4" width="2400" height="25.7" fill="#7c5c30" opacity="0.051"/><rect y="746.2" width="2400" height="21.6" fill="#7c5c30" opacity="0.060"/><rect y="782.2" width="2400" height="17.6" fill="#7c5c30" opacity="0.046"/><rect y="811.6" width="2400" height="21.5" fill="#7c5c30" opacity="0.029"/><rect y="847.3" width="2400" height="16.5" fill="#7c5c30" opacity="0.043"/><rect y="874.8" width="2400" height="23.8" fill="#7c5c30" opacity="0.054"/><rect y="914.5" width="2400" height="17.3" fill="#7c5c30" opacity="0.038"/><rect y="943.3" width="2400" height="13.7" fill="#7c5c30" opacity="0.033"/><rect y="966.2" width="2400" height="21.8" fill="#7c5c30" opacity="0.030"/><rect y="1002.5" width="2400" height="17.4" fill="#7c5c30" opacity="0.040"/><rect y="1031.6" width="2400" height="22.6" fill="#7c5c30" opacity="0.032"/><rect y="1069.2" width="2400" height="23.2" fill="#7c5c30" opacity="0.053"/><rect y="1107.8" width="2400" height="28.2" fill="#7c5c30" opacity="0.046"/><rect y="1154.8" width="2400" height="18.2" fill="#7c5c30" opacity="0.044"/><rect y="1185.1" width="2400" height="25.1" fill="#7c5c30" opacity="0.052"/><rect y="1227" width="2400" height="22.5" fill="#7c5c30" opacity="0.028"/><rect y="1264.5" width="2400" height="27.5" fill="#7c5c30" opacity="0.023"/><rect y="1310.3" width="2400" height="26" fill="#7c5c30" opacity="0.051"/><rect y="1353.6" width="2400" height="17.1" fill="#7c5c30" opacity="0.047"/><rect y="1382" width="2400" height="22.5" fill="#7c5c30" opacity="0.052"/><rect y="1419.6" width="2400" height="12.5" fill="#7c5c30" opacity="0.036"/><rect y="1440.4" width="2400" height="18.6" fill="#7c5c30" opacity="0.032"/><rect y="1471.5" width="2400" height="21" fill="#7c5c30" opacity="0.025"/><rect y="1506.6" width="2400" height="25" fill="#7c5c30" opacity="0.040"/><rect y="1548.3" width="2400" height="18.7" fill="#7c5c30" opacity="0.027"/><rect y="1579.5" width="2400" height="20.9" fill="#7c5c30" opacity="0.028"/><rect y="1614.3" width="2400" height="21.2" fill="#7c5c30" opacity="0.031"/><rect y="1649.6" width="2400" height="21.4" fill="#7c5c30" opacity="0.042"/><rect y="1685.3" width="2400" height="12.5" fill="#7c5c30" opacity="0.048"/><rect y="1706.1" width="2400" height="13.5" fill="#7c5c30" opacity="0.021"/><rect y="1728.6" width="2400" height="26.6" fill="#7c5c30" opacity="0.027"/><rect y="1772.9" width="2400" height="19" fill="#7c5c30" opacity="0.030"/><rect y="1804.6" width="2400" height="16.7" fill="#7c5c30" opacity="0.036"/><rect y="1832.4" width="2400" height="16.6" fill="#7c5c30" opacity="0.059"/><rect y="1860.1" width="2400" height="12.3" fill="#7c5c30" opacity="0.028"/><rect y="1880.6" width="2400" height="24.6" fill="#7c5c30" opacity="0.027"/><rect y="1921.6" width="2400" height="16.6" fill="#7c5c30" opacity="0.044"/><rect y="1949.3" width="2400" height="17.1" fill="#7c5c30" opacity="0.039"/><rect y="1977.8" width="2400" height="24.4" fill="#7c5c30" opacity="0.059"/><rect y="2018.5" width="2400" height="19.8" fill="#7c5c30" opacity="0.053"/><rect y="2051.6" width="2400" height="24.5" fill="#7c5c30" opacity="0.039"/><rect y="2092.3" width="2400" height="22.4" fill="#7c5c30" opacity="0.029"/><rect y="2129.7" width="2400" height="20.8" fill="#7c5c30" opacity="0.043"/><rect y="2164.4" width="2400" height="16.1" fill="#7c5c30" opacity="0.053"/><rect y="2191.2" width="2400" height="17.6" fill="#7c5c30" opacity="0.028"/><rect y="2220.5" width="2400" height="18.6" fill="#7c5c30" opacity="0.053"/><rect y="2251.6" width="2400" height="17.8" fill="#7c5c30" opacity="0.041"/><rect y="2281.3" width="2400" height="20.9" fill="#7c5c30" opacity="0.026"/><rect y="2316.2" width="2400" height="24.4" fill="#7c5c30" opacity="0.035"/><rect y="2356.9" width="2400" height="15.6" fill="#7c5c30" opacity="0.036"/><rect y="2382.9" width="2400" height="21.3" fill="#7c5c30" opacity="0.049"/><rect y="2418.4" width="2400" height="23.1" fill="#7c5c30" opacity="0.048"/><rect y="2456.9" width="2400" height="13.7" fill="#7c5c30" opacity="0.037"/><rect y="2479.6" width="2400" height="20.4" fill="#7c5c30" opacity="0.051"/><rect y="2513.6" width="2400" height="22.5" fill="#7c5c30" opacity="0.039"/><rect y="2551.1" width="2400" height="24.2" fill="#7c5c30" opacity="0.048"/><rect y="2591.5" width="2400" height="20.6" fill="#7c5c30" opacity="0.027"/><rect y="2625.9" width="2400" height="23" fill="#7c5c30" opacity="0.038"/><rect y="2664.2" width="2400" height="13.2" fill="#7c5c30" opacity="0.021"/><rect y="2686.1" width="2400" height="20.6" fill="#7c5c30" opacity="0.034"/><rect y="2720.5" width="2400" height="13.1" fill="#7c5c30" opacity="0.049"/><rect y="2742.4" width="2400" height="28.1" fill="#7c5c30" opacity="0.050"/><rect y="2789.2" width="2400" height="28.6" fill="#7c5c30" opacity="0.059"/><rect y="2836.9" width="2400" height="18.6" fill="#7c5c30" opacity="0.021"/><rect y="2867.8" width="2400" height="13.6" fill="#7c5c30" opacity="0.046"/><rect y="2890.5" width="2400" height="16.6" fill="#7c5c30" opacity="0.026"/><rect y="2918.1" width="2400" height="17" fill="#7c5c30" opacity="0.034"/><rect y="2946.5" width="2400" height="24.9" fill="#7c5c30" opacity="0.055"/><rect y="2988" width="2400" height="14.4" fill="#7c5c30" opacity="0.053"/><g filter="url(#a131-warp)"><rect x="200" y="170" width="2000" height="14.5" fill="#2e2a22"/><rect x="200" y="184" width="2000" height="14.5" fill="#2f5575"/><rect x="200" y="198" width="2000" height="14.5" fill="#2e2a22"/><rect x="200" y="212" width="2000" height="14.5" fill="#b39d70"/><rect x="200" y="226" width="2000" height="14.5" fill="#2e2a22"/><rect x="200" y="2760" width="2000" height="14.5" fill="#2e2a22"/><rect x="200" y="2774" width="2000" height="14.5" fill="#2f5575"/><rect x="200" y="2788" width="2000" height="14.5" fill="#2e2a22"/><rect x="200" y="2802" width="2000" height="14.5" fill="#b39d70"/><rect x="200" y="2816" width="2000" height="14.5" fill="#2e2a22"/><circle cx="1200" cy="1030" r="150" fill="#2f5575"/><circle cx="1200" cy="1030" r="196" fill="none" stroke="#2f5575" stroke-width="10"/><line x1="1110" y1="1540" x2="357.4" y2="1481.8" stroke="#2e2a22" stroke-width="34" stroke-linecap="round"/><line x1="1110" y1="1540" x2="383.2" y2="1417.8" stroke="#2e2a22" stroke-width="34" stroke-linecap="round"/><line x1="1110" y1="1540" x2="426.9" y2="1356.8" stroke="#2e2a22" stroke-width="34" stroke-linecap="round"/><line x1="1110" y1="1540" x2="487.4" y2="1300.2" stroke="#2e2a22" stroke-width="34" stroke-linecap="round"/><line x1="1110" y1="1540" x2="563.3" y2="1249.6" stroke="#2e2a22" stroke-width="34" stroke-linecap="round"/><line x1="1110" y1="1540" x2="652.6" y2="1206.2" stroke="#2e2a22" stroke-width="34" stroke-linecap="round"/><line x1="1110" y1="1540" x2="753.2" y2="1170.9" stroke="#2e2a22" stroke-width="34" stroke-linecap="round"/><line x1="1110" y1="1540" x2="862.6" y2="1144.8" stroke="#2e2a22" stroke-width="34" stroke-linecap="round"/><line x1="1110" y1="1540" x2="978" y2="1128.4" stroke="#2e2a22" stroke-width="34" stroke-linecap="round"/><line x1="1110" y1="1540" x2="515.8" y2="1494.1" stroke="#2f5575" stroke-width="30" stroke-linecap="round"/><line x1="1110" y1="1540" x2="536.2" y2="1443.5" stroke="#2f5575" stroke-width="30" stroke-linecap="round"/><line x1="1110" y1="1540" x2="570.7" y2="1395.3" stroke="#2f5575" stroke-width="30" stroke-linecap="round"/><line x1="1110" y1="1540" x2="618.5" y2="1350.7" stroke="#2f5575" stroke-width="30" stroke-linecap="round"/><line x1="1110" y1="1540" x2="678.4" y2="1310.8" stroke="#2f5575" stroke-width="30" stroke-linecap="round"/><line x1="1110" y1="1540" x2="748.9" y2="1276.5" stroke="#2f5575" stroke-width="30" stroke-linecap="round"/><line x1="1110" y1="1540" x2="828.3" y2="1248.6" stroke="#2f5575" stroke-width="30" stroke-linecap="round"/><line x1="1110" y1="1540" x2="914.7" y2="1228" stroke="#2f5575" stroke-width="30" stroke-linecap="round"/><line x1="1110" y1="1540" x2="1005.8" y2="1215" stroke="#2f5575" stroke-width="30" stroke-linecap="round"/><line x1="1110" y1="1540" x2="664.4" y2="1505.6" stroke="#2e2a22" stroke-width="26" stroke-linecap="round"/><line x1="1110" y1="1540" x2="679.7" y2="1467.6" stroke="#2e2a22" stroke-width="26" stroke-linecap="round"/><line x1="1110" y1="1540" x2="705.5" y2="1431.5" stroke="#2e2a22" stroke-width="26" stroke-linecap="round"/><line x1="1110" y1="1540" x2="741.4" y2="1398" stroke="#2e2a22" stroke-width="26" stroke-linecap="round"/><line x1="1110" y1="1540" x2="786.3" y2="1368.1" stroke="#2e2a22" stroke-width="26" stroke-linecap="round"/><line x1="1110" y1="1540" x2="839.2" y2="1342.3" stroke="#2e2a22" stroke-width="26" stroke-linecap="round"/><line x1="1110" y1="1540" x2="898.7" y2="1321.5" stroke="#2e2a22" stroke-width="26" stroke-linecap="round"/><line x1="1110" y1="1540" x2="963.5" y2="1306" stroke="#2e2a22" stroke-width="26" stroke-linecap="round"/><line x1="1110" y1="1540" x2="1031.9" y2="1296.3" stroke="#2e2a22" stroke-width="26" stroke-linecap="round"/><line x1="1290" y1="1540" x2="2042.6" y2="1481.8" stroke="#2e2a22" stroke-width="34" stroke-linecap="round"/><line x1="1290" y1="1540" x2="2016.8" y2="1417.8" stroke="#2e2a22" stroke-width="34" stroke-linecap="round"/><line x1="1290" y1="1540" x2="1973.1" y2="1356.8" stroke="#2e2a22" stroke-width="34" stroke-linecap="round"/><line x1="1290" y1="1540" x2="1912.6" y2="1300.2" stroke="#2e2a22" stroke-width="34" stroke-linecap="round"/><line x1="1290" y1="1540" x2="1836.7" y2="1249.6" stroke="#2e2a22" stroke-width="34" stroke-linecap="round"/><line x1="1290" y1="1540" x2="1747.4" y2="1206.2" stroke="#2e2a22" stroke-width="34" stroke-linecap="round"/><line x1="1290" y1="1540" x2="1646.8" y2="1170.9" stroke="#2e2a22" stroke-width="34" stroke-linecap="round"/><line x1="1290" y1="1540" x2="1537.4" y2="1144.8" stroke="#2e2a22" stroke-width="34" stroke-linecap="round"/><line x1="1290" y1="1540" x2="1422" y2="1128.4" stroke="#2e2a22" stroke-width="34" stroke-linecap="round"/><line x1="1290" y1="1540" x2="1884.2" y2="1494.1" stroke="#2f5575" stroke-width="30" stroke-linecap="round"/><line x1="1290" y1="1540" x2="1863.8" y2="1443.5" stroke="#2f5575" stroke-width="30" stroke-linecap="round"/><line x1="1290" y1="1540" x2="1829.3" y2="1395.3" stroke="#2f5575" stroke-width="30" stroke-linecap="round"/><line x1="1290" y1="1540" x2="1781.5" y2="1350.7" stroke="#2f5575" stroke-width="30" stroke-linecap="round"/><line x1="1290" y1="1540" x2="1721.6" y2="1310.8" stroke="#2f5575" stroke-width="30" stroke-linecap="round"/><line x1="1290" y1="1540" x2="1651.1" y2="1276.5" stroke="#2f5575" stroke-width="30" stroke-linecap="round"/><line x1="1290" y1="1540" x2="1571.7" y2="1248.6" stroke="#2f5575" stroke-width="30" stroke-linecap="round"/><line x1="1290" y1="1540" x2="1485.3" y2="1228" stroke="#2f5575" stroke-width="30" stroke-linecap="round"/><line x1="1290" y1="1540" x2="1394.2" y2="1215" stroke="#2f5575" stroke-width="30" stroke-linecap="round"/><line x1="1290" y1="1540" x2="1735.6" y2="1505.6" stroke="#2e2a22" stroke-width="26" stroke-linecap="round"/><line x1="1290" y1="1540" x2="1720.3" y2="1467.6" stroke="#2e2a22" stroke-width="26" stroke-linecap="round"/><line x1="1290" y1="1540" x2="1694.5" y2="1431.5" stroke="#2e2a22" stroke-width="26" stroke-linecap="round"/><line x1="1290" y1="1540" x2="1658.6" y2="1398" stroke="#2e2a22" stroke-width="26" stroke-linecap="round"/><line x1="1290" y1="1540" x2="1613.7" y2="1368.1" stroke="#2e2a22" stroke-width="26" stroke-linecap="round"/><line x1="1290" y1="1540" x2="1560.8" y2="1342.3" stroke="#2e2a22" stroke-width="26" stroke-linecap="round"/><line x1="1290" y1="1540" x2="1501.3" y2="1321.5" stroke="#2e2a22" stroke-width="26" stroke-linecap="round"/><line x1="1290" y1="1540" x2="1436.5" y2="1306" stroke="#2e2a22" stroke-width="26" stroke-linecap="round"/><line x1="1290" y1="1540" x2="1368.1" y2="1296.3" stroke="#2e2a22" stroke-width="26" stroke-linecap="round"/><path d="M1080,1500 q -150,-60 -210,-150" fill="none" stroke="#2e2a22" stroke-width="26" stroke-linecap="round"/><path d="M1035,1660 q -190,20 -260,-40" fill="none" stroke="#2e2a22" stroke-width="26" stroke-linecap="round"/><path d="M1070,1810 q -150,90 -230,80" fill="none" stroke="#2e2a22" stroke-width="26" stroke-linecap="round"/><path d="M1320,1500 q 150,-60 210,-150" fill="none" stroke="#2e2a22" stroke-width="26" stroke-linecap="round"/><path d="M1365,1660 q 190,20 260,-40" fill="none" stroke="#2e2a22" stroke-width="26" stroke-linecap="round"/><path d="M1330,1810 q 150,90 230,80" fill="none" stroke="#2e2a22" stroke-width="26" stroke-linecap="round"/><ellipse cx="1200" cy="1660" rx="180" ry="240" fill="#2e2a22"/><line x1="1200" y1="1540" x2="1200" y2="1896" stroke="#d7c096" stroke-width="9" opacity="0.7"/><path d="M1028,1552 Q 1200,1630 1372,1552" fill="none" stroke="#d7c096" stroke-width="9" opacity="0.7"/><path d="M1080,1450 A 130,130 0 0 1 1320,1450 L1278,1495 L1122,1495 Z" fill="#2e2a22"/><line x1="1112" y1="1392" x2="1084" y2="1338" stroke="#2e2a22" stroke-width="16" stroke-linecap="round"/><line x1="1156" y1="1392" x2="1142" y2="1338" stroke="#2e2a22" stroke-width="16" stroke-linecap="round"/><line x1="1200" y1="1392" x2="1200" y2="1338" stroke="#2e2a22" stroke-width="16" stroke-linecap="round"/><line x1="1244" y1="1392" x2="1258" y2="1338" stroke="#2e2a22" stroke-width="16" stroke-linecap="round"/><line x1="1288" y1="1392" x2="1316" y2="1338" stroke="#2e2a22" stroke-width="16" stroke-linecap="round"/><path d="M780,1990 Q 1200,2160 1620,1990 L1560,1990 Q 1200,2090 840,1990 Z" fill="#2f5575"/><rect x="120" y="120" width="2160" height="2760" fill="none" stroke="#2e2a22" stroke-width="6" opacity="0.85"/></g><rect width="2400" height="3000" filter="url(#a131-mottle)" style="mix-blend-mode:multiply" opacity="0.5"/><rect width="2400" height="3000" filter="url(#a131-fade)" style="mix-blend-mode:screen" opacity="0.55"/><rect width="2400" height="3000" filter="url(#a131-grain)" style="mix-blend-mode:multiply" opacity="0.32"/><ellipse cx="1071.6" cy="2734.9" rx="228.3" ry="158.8" fill="#6b4a22" opacity="0.027" filter="url(#a131-blur9)"/><ellipse cx="356.2" cy="1767.4" rx="226.7" ry="193.3" fill="#6b4a22" opacity="0.065" filter="url(#a131-blur9)"/><ellipse cx="1857.6" cy="1908.3" rx="228" ry="145.9" fill="#6b4a22" opacity="0.070" filter="url(#a131-blur9)"/><ellipse cx="2170.8" cy="2443.9" rx="155.4" ry="117.6" fill="#6b4a22" opacity="0.039" filter="url(#a131-blur9)"/><ellipse cx="1387.4" cy="1998.6" rx="234.3" ry="193.6" fill="#6b4a22" opacity="0.068" filter="url(#a131-blur9)"/><ellipse cx="1504.6" cy="602" rx="102.6" ry="61.2" fill="#6b4a22" opacity="0.068" filter="url(#a131-blur9)"/><rect x="0" width="23.4" height="3000" fill="#fff2d0" opacity="0.019"/><rect x="46.8" width="31.3" height="3000" fill="#fff2d0" opacity="0.034"/><rect x="109.4" width="31.8" height="3000" fill="#fff2d0" opacity="0.037"/><rect x="172.9" width="33" height="3000" fill="#fff2d0" opacity="0.021"/><rect x="239" width="17.5" height="3000" fill="#fff2d0" opacity="0.017"/><rect x="273.9" width="29.1" height="3000" fill="#fff2d0" opacity="0.030"/><rect x="332.2" width="16.2" height="3000" fill="#fff2d0" opacity="0.030"/><rect x="364.5" width="15.7" height="3000" fill="#fff2d0" opacity="0.034"/><rect x="395.9" width="30.5" height="3000" fill="#fff2d0" opacity="0.016"/><rect x="456.8" width="24.5" height="3000" fill="#fff2d0" opacity="0.027"/><rect x="505.9" width="25" height="3000" fill="#fff2d0" opacity="0.032"/><rect x="556" width="17.3" height="3000" fill="#fff2d0" opacity="0.038"/><rect x="590.6" width="30.1" height="3000" fill="#fff2d0" opacity="0.039"/><rect x="650.7" width="32.6" height="3000" fill="#fff2d0" opacity="0.019"/><rect x="716" width="21.6" height="3000" fill="#fff2d0" opacity="0.021"/><rect x="759.3" width="25.7" height="3000" fill="#fff2d0" opacity="0.017"/><rect x="810.6" width="26" height="3000" fill="#fff2d0" opacity="0.022"/><rect x="862.7" width="21.3" height="3000" fill="#fff2d0" opacity="0.034"/><rect x="905.4" width="34.6" height="3000" fill="#fff2d0" opacity="0.039"/><rect x="974.6" width="22.9" height="3000" fill="#fff2d0" opacity="0.021"/><rect x="1020.3" width="35" height="3000" fill="#fff2d0" opacity="0.033"/><rect x="1090.3" width="19.4" height="3000" fill="#fff2d0" opacity="0.015"/><rect x="1129" width="17.2" height="3000" fill="#fff2d0" opacity="0.038"/><rect x="1163.4" width="23.2" height="3000" fill="#fff2d0" opacity="0.032"/><rect x="1209.9" width="27.5" height="3000" fill="#fff2d0" opacity="0.023"/><rect x="1264.9" width="16" height="3000" fill="#fff2d0" opacity="0.045"/><rect x="1297" width="33.4" height="3000" fill="#fff2d0" opacity="0.041"/><rect x="1363.8" width="26.4" height="3000" fill="#fff2d0" opacity="0.026"/><rect x="1416.6" width="34.9" height="3000" fill="#fff2d0" opacity="0.036"/><rect x="1486.5" width="17.4" height="3000" fill="#fff2d0" opacity="0.018"/><rect x="1521.3" width="31.5" height="3000" fill="#fff2d0" opacity="0.042"/><rect x="1584.3" width="33.7" height="3000" fill="#fff2d0" opacity="0.035"/><rect x="1651.7" width="20.9" height="3000" fill="#fff2d0" opacity="0.044"/><rect x="1693.5" width="31" height="3000" fill="#fff2d0" opacity="0.022"/><rect x="1755.5" width="26.7" height="3000" fill="#fff2d0" opacity="0.045"/><rect x="1808.8" width="27.7" height="3000" fill="#fff2d0" opacity="0.020"/><rect x="1864.1" width="26.5" height="3000" fill="#fff2d0" opacity="0.028"/><rect x="1917.1" width="16.9" height="3000" fill="#fff2d0" opacity="0.019"/><rect x="1950.8" width="26.9" height="3000" fill="#fff2d0" opacity="0.019"/><rect x="2004.6" width="34.8" height="3000" fill="#fff2d0" opacity="0.017"/><rect x="2074.2" width="22.1" height="3000" fill="#fff2d0" opacity="0.023"/><rect x="2118.3" width="33.9" height="3000" fill="#fff2d0" opacity="0.035"/><rect x="2186.1" width="21.8" height="3000" fill="#fff2d0" opacity="0.042"/><rect x="2229.7" width="27" height="3000" fill="#fff2d0" opacity="0.041"/><rect x="2283.6" width="20.9" height="3000" fill="#fff2d0" opacity="0.023"/><rect x="2325.4" width="23.8" height="3000" fill="#fff2d0" opacity="0.039"/><rect x="2373.1" width="26.7" height="3000" fill="#fff2d0" opacity="0.033"/><linearGradient id="a131-er" x1="0" x2="1" y1="0" y2="0"><stop offset="0" stop-color="#3a2a12" stop-opacity="0.22"/><stop offset="1" stop-color="#3a2a12" stop-opacity="0"/></linearGradient><rect x="0" y="0" width="90" height="3000" fill="url(#a131-er)"/><linearGradient id="a131-el" x1="1" x2="0" y1="0" y2="0"><stop offset="0" stop-color="#3a2a12" stop-opacity="0.22"/><stop offset="1" stop-color="#3a2a12" stop-opacity="0"/></linearGradient><rect x="2310" y="0" width="90" height="3000" fill="url(#a131-el)"/><linearGradient id="a131-ed" x1="0" x2="0" y1="0" y2="1"><stop offset="0" stop-color="#3a2a12" stop-opacity="0.22"/><stop offset="1" stop-color="#3a2a12" stop-opacity="0"/></linearGradient><rect x="0" y="0" width="2400" height="90" fill="url(#a131-ed)"/><linearGradient id="a131-eu" x1="0" x2="0" y1="1" y2="0"><stop offset="0" stop-color="#3a2a12" stop-opacity="0.22"/><stop offset="1" stop-color="#3a2a12" stop-opacity="0"/></linearGradient><rect x="0" y="2910" width="2400" height="90" fill="url(#a131-eu)"/><circle cx="1893.5" cy="2380.1" r="11.1" fill="#8a5a2e" opacity="0.108"/><circle cx="849.5" cy="1255.1" r="5.7" fill="#8a5a2e" opacity="0.076"/><circle cx="1781.7" cy="2582.6" r="14.4" fill="#8a5a2e" opacity="0.076"/><circle cx="1323.4" cy="1934.6" r="4.4" fill="#8a5a2e" opacity="0.105"/><circle cx="2125.1" cy="2131.2" r="3.4" fill="#8a5a2e" opacity="0.053"/><circle cx="668.2" cy="1860.2" r="10.3" fill="#8a5a2e" opacity="0.052"/><circle cx="2048.2" cy="2253.2" r="6.2" fill="#8a5a2e" opacity="0.061"/><circle cx="682.5" cy="1164.1" r="4.2" fill="#8a5a2e" opacity="0.074"/><circle cx="704" cy="2581.8" r="12.1" fill="#8a5a2e" opacity="0.100"/><circle cx="1328" cy="2059.5" r="14.6" fill="#8a5a2e" opacity="0.055"/><circle cx="2256.6" cy="2414.9" r="10.7" fill="#8a5a2e" opacity="0.050"/><circle cx="710.2" cy="1797.8" r="12.1" fill="#8a5a2e" opacity="0.123"/><circle cx="978.4" cy="660.1" r="7.7" fill="#8a5a2e" opacity="0.120"/><circle cx="943.6" cy="1724.3" r="10.4" fill="#8a5a2e" opacity="0.074"/><circle cx="641" cy="1156.8" r="15.8" fill="#8a5a2e" opacity="0.104"/><circle cx="892.1" cy="663.1" r="12.6" fill="#8a5a2e" opacity="0.043"/><rect width="2400" height="3000" fill="url(#a131-vig)"/></svg></svg>