<svg xmlns="http://www.w3.org/2000/svg" width="2400" height="1800" viewBox="0 0 2400 1800"><rect width="2400" height="1800" fill="#e8e2d6"/><rect y="1420" width="2400" height="380" fill="#cbb597"/><ellipse cx="1200" cy="1640" rx="760" ry="130" fill="#c2ac83" opacity="0.55"/><ellipse cx="1200" cy="1640" rx="600" ry="96" fill="none" stroke="#a4552c" stroke-width="10" opacity="0.5"/><rect x="700" y="1120" width="1000" height="300" rx="40" fill="#97a08c"/><rect x="640" y="1060" width="120" height="380" rx="40" fill="#87907c"/><rect x="1640" y="1060" width="120" height="380" rx="40" fill="#87907c"/><rect x="740" y="1010" width="920" height="180" rx="36" fill="#a3ac97"/><rect x="800" y="1060" width="240" height="160" rx="30" fill="#a4552c"/><rect x="1380" y="1060" width="240" height="160" rx="30" fill="#c2ac83"/><rect x="700" y="1420" width="26" height="120" fill="#6f6353"/><rect x="1674" y="1420" width="26" height="120" fill="#6f6353"/><path d="M360,1520 Q330,820 800,880" fill="none" stroke="#4c4438" stroke-width="16"/><path d="M760,870 L840,880 L810,960 L770,955 Z" fill="#4c4438"/><rect x="300" y="1510" width="130" height="20" rx="10" fill="#4c4438"/><path d="M2080,1500 Q 1918,1243.5 1837,1311" fill="none" stroke="#5d7052" stroke-width="21.6" stroke-linecap="round"/><path d="M2080,1500 Q 1972,1243.5 1918,1257" fill="none" stroke="#5d7052" stroke-width="21.6" stroke-linecap="round"/><path d="M2080,1500 Q 2026,1243.5 1999,1203" fill="none" stroke="#5d7052" stroke-width="21.6" stroke-linecap="round"/><path d="M2080,1500 Q 2080,1243.5 2080,1149" fill="none" stroke="#5d7052" stroke-width="21.6" stroke-linecap="round"/><path d="M2080,1500 Q 2134,1243.5 2161,1203" fill="none" stroke="#5d7052" stroke-width="21.6" stroke-linecap="round"/><path d="M2080,1500 Q 2188,1243.5 2242,1257" fill="none" stroke="#5d7052" stroke-width="21.6" stroke-linecap="round"/><path d="M2080,1500 Q 2242,1243.5 2323,1311" fill="none" stroke="#5d7052" stroke-width="21.6" stroke-linecap="round"/><path d="M1985.5,1500 L2174.5,1500 L2150.2,1648.5 L2009.8,1648.5 Z" fill="#a9714d"/><defs><filter id="a198l-sh" x="-30%" y="-30%" width="160%" height="160%"><feGaussianBlur stdDeviation="16"/></filter></defs><rect x="939" y="217" width="550" height="675" fill="#000" opacity="0.28" filter="url(#a198l-sh)"/><rect x="925" y="195" width="550" height="675" fill="#2e2823"/><rect x="941.3" y="211.3" width="517.5" height="642.5" fill="none" stroke="#00000055" stroke-width="3"/><rect x="950" y="220" width="500" height="625" fill="#f6f2ea"/><svg x="987.5" y="257.5" width="425" height="550" viewBox="0 0 2400 3000" preserveAspectRatio="xMidYMid slice"><filter id="a198-warp" x="-4%" y="-4%" width="108%" height="108%"><feTurbulence type="fractalNoise" baseFrequency="0.0105" numOctaves="2" seed="376" result="w"/><feDisplacementMap in="SourceGraphic" in2="w" scale="12" xChannelSelector="R" yChannelSelector="G"/></filter><filter id="a198-grain" x="0%" y="0%" width="100%" height="100%"><feTurbulence type="fractalNoise" baseFrequency="0.6" numOctaves="2" seed="383"/><feColorMatrix type="matrix" values="0.33 0.33 0.33 0 0.62  0.33 0.33 0.33 0 0.62  0.33 0.33 0.33 0 0.62  0 0 0 0 1"/></filter><filter id="a198-mottle" x="0%" y="0%" width="100%" height="100%"><feTurbulence type="fractalNoise" baseFrequency="0.0045" numOctaves="3" seed="389"/><feColorMatrix type="matrix" values="0.2 0.2 0.2 0 0.78  0.2 0.2 0.2 0 0.78  0.2 0.2 0.2 0 0.78  0 0 0 0 1"/></filter><filter id="a198-fade" x="0%" y="0%" width="100%" height="100%"><feTurbulence type="fractalNoise" baseFrequency="0.006" numOctaves="2" seed="405"/><feColorMatrix type="matrix" values="0.3 0.3 0.3 0 -0.08  0.3 0.3 0.3 0 -0.08  0.3 0.3 0.3 0 -0.1  0 0 0 0 1"/></filter><filter id="a198-blur9"><feGaussianBlur stdDeviation="9"/></filter><radialGradient id="a198-vig" cx="50%" cy="44%" r="78%"><stop offset="52%" stop-color="#241a10" stop-opacity="0"/><stop offset="100%" stop-color="#241a10" stop-opacity="0.17"/></radialGradient><radialGradient id="a198-warm" cx="46%" cy="30%" r="85%"><stop offset="0%" stop-color="#e8c890" stop-opacity="0.14"/><stop offset="70%" stop-color="#e8c890" stop-opacity="0"/></radialGradient><rect width="2400" height="3000" fill="#ddcfb2"/><rect width="2400" height="3000" fill="url(#a198-warm)"/><rect y="1573.2" width="2400" height="343.6" fill="#8a6a40" opacity="0.050" transform="rotate(0.5 1200 1573.2)"/><rect y="2061.8" width="2400" height="237.4" fill="#ffffff" opacity="0.033" transform="rotate(1.6 1200 2061.8)"/><rect y="1142.4" width="2400" height="251.6" fill="#8a6a40" opacity="0.031" transform="rotate(-1.5 1200 1142.4)"/><rect y="1647.9" width="2400" height="185.7" fill="#ffffff" opacity="0.041" transform="rotate(0.5 1200 1647.9)"/><rect y="1283.1" width="2400" height="415.7" fill="#8a6a40" opacity="0.021" transform="rotate(-0.8 1200 1283.1)"/><rect y="1654.5" width="2400" height="251.8" fill="#ffffff" opacity="0.040" transform="rotate(0.5 1200 1654.5)"/><rect y="1863.6" width="2400" height="331.5" fill="#8a6a40" opacity="0.021" transform="rotate(-0.3 1200 1863.6)"/><g filter="url(#a198-warp)"><circle cx="1200" cy="1420" r="900" fill="none" stroke="#6d3a22" stroke-width="12"/><line x1="2066" y1="1420" x2="2100" y2="1420" stroke="#6d3a22" stroke-width="8"/><line x1="2058.6" y1="1533" x2="2092.3" y2="1537.5" stroke="#6d3a22" stroke-width="8"/><line x1="2036.5" y1="1644.1" x2="2069.3" y2="1652.9" stroke="#6d3a22" stroke-width="8"/><line x1="2000.1" y1="1751.4" x2="2031.5" y2="1764.4" stroke="#6d3a22" stroke-width="8"/><line x1="1950" y1="1853" x2="1979.4" y2="1870" stroke="#6d3a22" stroke-width="8"/><line x1="1887" y1="1947.2" x2="1914" y2="1967.9" stroke="#6d3a22" stroke-width="8"/><line x1="1812.4" y1="2032.4" x2="1836.4" y2="2056.4" stroke="#6d3a22" stroke-width="8"/><line x1="1727.2" y1="2107" x2="1747.9" y2="2134" stroke="#6d3a22" stroke-width="8"/><line x1="1633" y1="2170" x2="1650" y2="2199.4" stroke="#6d3a22" stroke-width="8"/><line x1="1531.4" y1="2220.1" x2="1544.4" y2="2251.5" stroke="#6d3a22" stroke-width="8"/><line x1="1424.1" y1="2256.5" x2="1432.9" y2="2289.3" stroke="#6d3a22" stroke-width="8"/><line x1="1313" y1="2278.6" x2="1317.5" y2="2312.3" stroke="#6d3a22" stroke-width="8"/><line x1="1200" y1="2286" x2="1200" y2="2320" stroke="#6d3a22" stroke-width="8"/><line x1="1087" y1="2278.6" x2="1082.5" y2="2312.3" stroke="#6d3a22" stroke-width="8"/><line x1="975.9" y1="2256.5" x2="967.1" y2="2289.3" stroke="#6d3a22" stroke-width="8"/><line x1="868.6" y1="2220.1" x2="855.6" y2="2251.5" stroke="#6d3a22" stroke-width="8"/><line x1="767" y1="2170" x2="750" y2="2199.4" stroke="#6d3a22" stroke-width="8"/><line x1="672.8" y1="2107" x2="652.1" y2="2134" stroke="#6d3a22" stroke-width="8"/><line x1="587.6" y1="2032.4" x2="563.6" y2="2056.4" stroke="#6d3a22" stroke-width="8"/><line x1="513" y1="1947.2" x2="486" y2="1967.9" stroke="#6d3a22" stroke-width="8"/><line x1="450" y1="1853" x2="420.6" y2="1870" stroke="#6d3a22" stroke-width="8"/><line x1="399.9" y1="1751.4" x2="368.5" y2="1764.4" stroke="#6d3a22" stroke-width="8"/><line x1="363.5" y1="1644.1" x2="330.7" y2="1652.9" stroke="#6d3a22" stroke-width="8"/><line x1="341.4" y1="1533" x2="307.7" y2="1537.5" stroke="#6d3a22" stroke-width="8"/><line x1="334" y1="1420" x2="300" y2="1420" stroke="#6d3a22" stroke-width="8"/><line x1="341.4" y1="1307" x2="307.7" y2="1302.5" stroke="#6d3a22" stroke-width="8"/><line x1="363.5" y1="1195.9" x2="330.7" y2="1187.1" stroke="#6d3a22" stroke-width="8"/><line x1="399.9" y1="1088.6" x2="368.5" y2="1075.6" stroke="#6d3a22" stroke-width="8"/><line x1="450" y1="987" x2="420.6" y2="970" stroke="#6d3a22" stroke-width="8"/><line x1="513" y1="892.8" x2="486" y2="872.1" stroke="#6d3a22" stroke-width="8"/><line x1="587.6" y1="807.6" x2="563.6" y2="783.6" stroke="#6d3a22" stroke-width="8"/><line x1="672.8" y1="733" x2="652.1" y2="706" stroke="#6d3a22" stroke-width="8"/><line x1="767" y1="670" x2="750" y2="640.6" stroke="#6d3a22" stroke-width="8"/><line x1="868.6" y1="619.9" x2="855.6" y2="588.5" stroke="#6d3a22" stroke-width="8"/><line x1="975.9" y1="583.5" x2="967.1" y2="550.7" stroke="#6d3a22" stroke-width="8"/><line x1="1087" y1="561.4" x2="1082.5" y2="527.7" stroke="#6d3a22" stroke-width="8"/><line x1="1200" y1="554" x2="1200" y2="520" stroke="#6d3a22" stroke-width="8"/><line x1="1313" y1="561.4" x2="1317.5" y2="527.7" stroke="#6d3a22" stroke-width="8"/><line x1="1424.1" y1="583.5" x2="1432.9" y2="550.7" stroke="#6d3a22" stroke-width="8"/><line x1="1531.4" y1="619.9" x2="1544.4" y2="588.5" stroke="#6d3a22" stroke-width="8"/><line x1="1633" y1="670" x2="1650" y2="640.6" stroke="#6d3a22" stroke-width="8"/><line x1="1727.2" y1="733" x2="1747.9" y2="706" stroke="#6d3a22" stroke-width="8"/><line x1="1812.4" y1="807.6" x2="1836.4" y2="783.6" stroke="#6d3a22" stroke-width="8"/><line x1="1887" y1="892.8" x2="1914" y2="872.1" stroke="#6d3a22" stroke-width="8"/><line x1="1950" y1="987" x2="1979.4" y2="970" stroke="#6d3a22" stroke-width="8"/><line x1="2000.1" y1="1088.6" x2="2031.5" y2="1075.6" stroke="#6d3a22" stroke-width="8"/><line x1="2036.5" y1="1195.9" x2="2069.3" y2="1187.1" stroke="#6d3a22" stroke-width="8"/><line x1="2058.6" y1="1307" x2="2092.3" y2="1302.5" stroke="#6d3a22" stroke-width="8"/><polygon points="2010,1420 1807.6,1346.9 1807.6,1493.1" fill="#6d3a22"/><polygon points="1974,1658.8 1802.2,1529.3 1759.1,1668.9" fill="#a4552c"/><polygon points="1869.3,1876.3 1743.2,1701.9 1660.9,1822.7" fill="#6d3a22"/><polygon points="1705,2053.3 1636,1849.5 1521.7,1940.6" fill="#a4552c"/><polygon points="1495.9,2174 1490,1958.9 1354,2012.3" fill="#6d3a22"/><polygon points="1260.5,2227.7 1318.3,2020.5 1172.5,2031.4" fill="#a4552c"/><polygon points="1019.8,2209.7 1136,2028.6 993.6,1996.1" fill="#6d3a22"/><polygon points="795,2121.5 959.5,1982.8 832.9,1909.7" fill="#a4552c"/><polygon points="606.2,1970.9 804.3,1886.9 704.9,1779.7" fill="#6d3a22"/><polygon points="470.2,1771.4 684.3,1749.5 620.8,1617.8" fill="#a4552c"/><polygon points="399,1540.7 610.1,1582.8 588.3,1438.3" fill="#6d3a22"/><polygon points="399,1299.3 588.3,1401.7 610.1,1257.2" fill="#a4552c"/><polygon points="470.2,1068.6 620.8,1222.2 684.3,1090.5" fill="#6d3a22"/><polygon points="606.2,869.1 704.9,1060.3 804.3,953.1" fill="#a4552c"/><polygon points="795,718.5 832.9,930.3 959.5,857.2" fill="#6d3a22"/><polygon points="1019.8,630.3 993.6,843.9 1136,811.4" fill="#a4552c"/><polygon points="1260.5,612.3 1172.5,808.6 1318.3,819.5" fill="#6d3a22"/><polygon points="1495.9,666 1354,827.7 1490,881.1" fill="#a4552c"/><polygon points="1705,786.7 1521.7,899.4 1636,990.5" fill="#6d3a22"/><polygon points="1869.3,963.7 1660.9,1017.3 1743.2,1138.1" fill="#a4552c"/><polygon points="1974,1181.2 1759.1,1171.1 1802.2,1310.7" fill="#6d3a22"/><circle cx="1200" cy="1420" r="558" fill="none" stroke="#6d3a22" stroke-width="8"/><path d="M0 0 Q 67.5 -198.4 0 -522 Q -67.5 -198.4 0 0 Z" fill="#a4552c" opacity="0.96" transform="translate(1209.8 1422) rotate(191.3)"/><path d="M0 0 Q 67.5 -198.4 0 -522 Q -67.5 -198.4 0 0 Z" fill="#6d3a22" opacity="0.96" transform="translate(1208.3 1425.6) rotate(213.8)"/><path d="M0 0 Q 67.5 -198.4 0 -522 Q -67.5 -198.4 0 0 Z" fill="#a4552c" opacity="0.96" transform="translate(1205.6 1428.3) rotate(236.3)"/><path d="M0 0 Q 67.5 -198.4 0 -522 Q -67.5 -198.4 0 0 Z" fill="#6d3a22" opacity="0.96" transform="translate(1202 1429.8) rotate(258.8)"/><path d="M0 0 Q 67.5 -198.4 0 -522 Q -67.5 -198.4 0 0 Z" fill="#a4552c" opacity="0.96" transform="translate(1198 1429.8) rotate(281.3)"/><path d="M0 0 Q 67.5 -198.4 0 -522 Q -67.5 -198.4 0 0 Z" fill="#6d3a22" opacity="0.96" transform="translate(1194.4 1428.3) rotate(303.8)"/><path d="M0 0 Q 67.5 -198.4 0 -522 Q -67.5 -198.4 0 0 Z" fill="#a4552c" opacity="0.96" transform="translate(1191.7 1425.6) rotate(326.3)"/><path d="M0 0 Q 67.5 -198.4 0 -522 Q -67.5 -198.4 0 0 Z" fill="#6d3a22" opacity="0.96" transform="translate(1190.2 1422) rotate(348.8)"/><path d="M0 0 Q 67.5 -198.4 0 -522 Q -67.5 -198.4 0 0 Z" fill="#a4552c" opacity="0.96" transform="translate(1190.2 1418) rotate(371.3)"/><path d="M0 0 Q 67.5 -198.4 0 -522 Q -67.5 -198.4 0 0 Z" fill="#6d3a22" opacity="0.96" transform="translate(1191.7 1414.4) rotate(393.8)"/><path d="M0 0 Q 67.5 -198.4 0 -522 Q -67.5 -198.4 0 0 Z" fill="#a4552c" opacity="0.96" transform="translate(1194.4 1411.7) rotate(416.3)"/><path d="M0 0 Q 67.5 -198.4 0 -522 Q -67.5 -198.4 0 0 Z" fill="#6d3a22" opacity="0.96" transform="translate(1198 1410.2) rotate(438.8)"/><path d="M0 0 Q 67.5 -198.4 0 -522 Q -67.5 -198.4 0 0 Z" fill="#a4552c" opacity="0.96" transform="translate(1202 1410.2) rotate(461.3)"/><path d="M0 0 Q 67.5 -198.4 0 -522 Q -67.5 -198.4 0 0 Z" fill="#6d3a22" opacity="0.96" transform="translate(1205.6 1411.7) rotate(483.8)"/><path d="M0 0 Q 67.5 -198.4 0 -522 Q -67.5 -198.4 0 0 Z" fill="#a4552c" opacity="0.96" transform="translate(1208.3 1414.4) rotate(506.3)"/><path d="M0 0 Q 67.5 -198.4 0 -522 Q -67.5 -198.4 0 0 Z" fill="#6d3a22" opacity="0.96" transform="translate(1209.8 1418) rotate(528.8)"/><path d="M0 0 Q 76.5 -116.3 0 -306 Q -76.5 -116.3 0 0 Z" fill="#c2ac83" opacity="0.98" transform="translate(1200 1420) rotate(180)"/><path d="M0 0 Q 76.5 -116.3 0 -306 Q -76.5 -116.3 0 0 Z" fill="#c2ac83" opacity="0.98" transform="translate(1200 1420) rotate(225)"/><path d="M0 0 Q 76.5 -116.3 0 -306 Q -76.5 -116.3 0 0 Z" fill="#c2ac83" opacity="0.98" transform="translate(1200 1420) rotate(270)"/><path d="M0 0 Q 76.5 -116.3 0 -306 Q -76.5 -116.3 0 0 Z" fill="#c2ac83" opacity="0.98" transform="translate(1200 1420) rotate(315)"/><path d="M0 0 Q 76.5 -116.3 0 -306 Q -76.5 -116.3 0 0 Z" fill="#c2ac83" opacity="0.98" transform="translate(1200 1420) rotate(360)"/><path d="M0 0 Q 76.5 -116.3 0 -306 Q -76.5 -116.3 0 0 Z" fill="#c2ac83" opacity="0.98" transform="translate(1200 1420) rotate(405)"/><path d="M0 0 Q 76.5 -116.3 0 -306 Q -76.5 -116.3 0 0 Z" fill="#c2ac83" opacity="0.98" transform="translate(1200 1420) rotate(450)"/><path d="M0 0 Q 76.5 -116.3 0 -306 Q -76.5 -116.3 0 0 Z" fill="#c2ac83" opacity="0.98" transform="translate(1200 1420) rotate(495)"/><circle cx="1200" cy="1420" r="110" fill="#6d3a22"/><circle cx="1200" cy="1420" r="44" fill="#a4552c"/><circle cx="388" cy="208" r="14.6" fill="#6d3a22"/><circle cx="444" cy="208" r="14.6" fill="#6d3a22"/><circle cx="500" cy="208" r="14.6" fill="#6d3a22"/><circle cx="556" cy="208" r="14.6" fill="#6d3a22"/><circle cx="612" cy="208" r="14.6" fill="#6d3a22"/><circle cx="668" cy="208" r="14.6" fill="#6d3a22"/><circle cx="724" cy="208" r="14.6" fill="#6d3a22"/><circle cx="780" cy="208" r="14.6" fill="#6d3a22"/><circle cx="836" cy="208" r="14.6" fill="#6d3a22"/><circle cx="892" cy="208" r="14.6" fill="#6d3a22"/><circle cx="948" cy="208" r="14.6" fill="#6d3a22"/><circle cx="1004" cy="208" r="14.6" fill="#6d3a22"/><circle cx="1060" cy="208" r="14.6" fill="#6d3a22"/><circle cx="1116" cy="208" r="14.6" fill="#6d3a22"/><circle cx="1172" cy="208" r="14.6" fill="#6d3a22"/><circle cx="1228" cy="208" r="14.6" fill="#6d3a22"/><circle cx="1284" cy="208" r="14.6" fill="#6d3a22"/><circle cx="1340" cy="208" r="14.6" fill="#6d3a22"/><circle cx="1396" cy="208" r="14.6" fill="#6d3a22"/><circle cx="1452" cy="208" r="14.6" fill="#6d3a22"/><circle cx="1508" cy="208" r="14.6" fill="#6d3a22"/><circle cx="1564" cy="208" r="14.6" fill="#6d3a22"/><circle cx="1620" cy="208" r="14.6" fill="#6d3a22"/><circle cx="1676" cy="208" r="14.6" fill="#6d3a22"/><circle cx="1732" cy="208" r="14.6" fill="#6d3a22"/><circle cx="1788" cy="208" r="14.6" fill="#6d3a22"/><circle cx="1844" cy="208" r="14.6" fill="#6d3a22"/><circle cx="1900" cy="208" r="14.6" fill="#6d3a22"/><circle cx="1956" cy="208" r="14.6" fill="#6d3a22"/><circle cx="2012" cy="208" r="14.6" fill="#6d3a22"/><circle cx="388" cy="2792" r="14.6" fill="#6d3a22"/><circle cx="444" cy="2792" r="14.6" fill="#6d3a22"/><circle cx="500" cy="2792" r="14.6" fill="#6d3a22"/><circle cx="556" cy="2792" r="14.6" fill="#6d3a22"/><circle cx="612" cy="2792" r="14.6" fill="#6d3a22"/><circle cx="668" cy="2792" r="14.6" fill="#6d3a22"/><circle cx="724" cy="2792" r="14.6" fill="#6d3a22"/><circle cx="780" cy="2792" r="14.6" fill="#6d3a22"/><circle cx="836" cy="2792" r="14.6" fill="#6d3a22"/><circle cx="892" cy="2792" r="14.6" fill="#6d3a22"/><circle cx="948" cy="2792" r="14.6" fill="#6d3a22"/><circle cx="1004" cy="2792" r="14.6" fill="#6d3a22"/><circle cx="1060" cy="2792" r="14.6" fill="#6d3a22"/><circle cx="1116" cy="2792" r="14.6" fill="#6d3a22"/><circle cx="1172" cy="2792" r="14.6" fill="#6d3a22"/><circle cx="1228" cy="2792" r="14.6" fill="#6d3a22"/><circle cx="1284" cy="2792" r="14.6" fill="#6d3a22"/><circle cx="1340" cy="2792" r="14.6" fill="#6d3a22"/><circle cx="1396" cy="2792" r="14.6" fill="#6d3a22"/><circle cx="1452" cy="2792" r="14.6" fill="#6d3a22"/><circle cx="1508" cy="2792" r="14.6" fill="#6d3a22"/><circle cx="1564" cy="2792" r="14.6" fill="#6d3a22"/><circle cx="1620" cy="2792" r="14.6" fill="#6d3a22"/><circle cx="1676" cy="2792" r="14.6" fill="#6d3a22"/><circle cx="1732" cy="2792" r="14.6" fill="#6d3a22"/><circle cx="1788" cy="2792" r="14.6" fill="#6d3a22"/><circle cx="1844" cy="2792" r="14.6" fill="#6d3a22"/><circle cx="1900" cy="2792" r="14.6" fill="#6d3a22"/><circle cx="1956" cy="2792" r="14.6" fill="#6d3a22"/><circle cx="2012" cy="2792" r="14.6" fill="#6d3a22"/><rect x="104" y="104" width="2192" height="2792" fill="none" stroke="#6d3a22" stroke-width="16" opacity="0.85"/><rect x="150" y="150" width="2100" height="2700" fill="none" stroke="#6d3a22" stroke-width="4" opacity="0.55"/></g><rect width="2400" height="3000" filter="url(#a198-mottle)" style="mix-blend-mode:multiply" opacity="0.5"/><rect width="2400" height="3000" filter="url(#a198-fade)" style="mix-blend-mode:screen" opacity="0.55"/><rect width="2400" height="3000" filter="url(#a198-grain)" style="mix-blend-mode:multiply" opacity="0.32"/><ellipse cx="404.7" cy="1073.2" rx="257.9" ry="208.3" fill="#6b4a22" opacity="0.036" filter="url(#a198-blur9)"/><ellipse cx="1132.6" cy="1129.6" rx="315.2" ry="226.9" fill="#6b4a22" opacity="0.027" filter="url(#a198-blur9)"/><ellipse cx="1595" cy="870.1" rx="179.5" ry="112.8" fill="#6b4a22" opacity="0.067" filter="url(#a198-blur9)"/><polyline points="207,2473.2 138.7,2503.5 63.4,2540.2 17.1,2665.1 -37.4,2714.9 -79.4,2750 -137.9,2820.7 -249.2,2849.9 -334.1,2884.5 -398.3,2918.4 -530.5,2893.5 -587.9,2844.8 -706.8,2759.3" fill="none" stroke="#2e2116" stroke-width="3.4" opacity="0.21" stroke-linejoin="round"/><polyline points="207,2473.2 138.7,2503.5 63.4,2540.2 17.1,2665.1 -37.4,2714.9 -79.4,2750 -137.9,2820.7 -249.2,2849.9 -334.1,2884.5 -398.3,2918.4 -530.5,2893.5 -587.9,2844.8 -706.8,2759.3" fill="none" stroke="#fff8ea" stroke-width="2.4" opacity="0.11" transform="translate(2.5 2.5)" stroke-linejoin="round"/><polyline points="2059.6,385.9 2182.2,395.7 2264.8,366 2378,433.3 2399.4,579.8 2448.9,662.4 2455.9,728.2" fill="none" stroke="#2e2116" stroke-width="2.1" opacity="0.28" stroke-linejoin="round"/><polyline points="2059.6,385.9 2182.2,395.7 2264.8,366 2378,433.3 2399.4,579.8 2448.9,662.4 2455.9,728.2" fill="none" stroke="#fff8ea" stroke-width="1.5" opacity="0.14" transform="translate(2.5 2.5)" stroke-linejoin="round"/><polyline points="1981.4,210.9 2059.5,273.9 2067.6,346.7 2075,470.4 2139.4,521.8 2209.8,644.2 2250.6,696 2357.2,728.3 2423.1,696.3 2480.9,652.2 2575.9,571" fill="none" stroke="#2e2116" stroke-width="4.4" opacity="0.21" stroke-linejoin="round"/><polyline points="1981.4,210.9 2059.5,273.9 2067.6,346.7 2075,470.4 2139.4,521.8 2209.8,644.2 2250.6,696 2357.2,728.3 2423.1,696.3 2480.9,652.2 2575.9,571" fill="none" stroke="#fff8ea" stroke-width="3.1" opacity="0.09" transform="translate(2.5 2.5)" stroke-linejoin="round"/><polyline points="1337,825.7 1284.1,862.2 1179.2,926.5 1086.4,917.5 1032.3,883.6 979.9,889.2 922.1,869 802.2,939.5 680.4,1019.5" fill="none" stroke="#2e2116" stroke-width="3" opacity="0.19" stroke-linejoin="round"/><polyline points="1337,825.7 1284.1,862.2 1179.2,926.5 1086.4,917.5 1032.3,883.6 979.9,889.2 922.1,869 802.2,939.5 680.4,1019.5" fill="none" stroke="#fff8ea" stroke-width="2.1" opacity="0.10" transform="translate(2.5 2.5)" stroke-linejoin="round"/><polyline points="575.3,1925.1 705.4,1968 821.6,2057.6 845.1,2115.3 852.9,2187.8 874,2276.8 951,2313 1075.4,2334.4 1171.5,2288.5 1305.6,2292.6" fill="none" stroke="#2e2116" stroke-width="3.4" opacity="0.23" stroke-linejoin="round"/><polyline points="575.3,1925.1 705.4,1968 821.6,2057.6 845.1,2115.3 852.9,2187.8 874,2276.8 951,2313 1075.4,2334.4 1171.5,2288.5 1305.6,2292.6" fill="none" stroke="#fff8ea" stroke-width="2.4" opacity="0.13" transform="translate(2.5 2.5)" stroke-linejoin="round"/><polyline points="285.2,592.3 201.3,703.3 225.2,797.3 224.4,900.8 305.9,999.5 332.2,1080.1 265.7,1198.7" fill="none" stroke="#2e2116" stroke-width="3.2" opacity="0.26" stroke-linejoin="round"/><polyline points="285.2,592.3 201.3,703.3 225.2,797.3 224.4,900.8 305.9,999.5 332.2,1080.1 265.7,1198.7" fill="none" stroke="#fff8ea" stroke-width="2.2" opacity="0.08" transform="translate(2.5 2.5)" stroke-linejoin="round"/><polyline points="1946.2,291.9 1830.5,370.3 1786,422.9 1773.3,552.8 1790.3,663.4 1747.9,727 1742.5,779.3 1755.4,900 1732.3,1040.2" fill="none" stroke="#2e2116" stroke-width="3.6" opacity="0.27" stroke-linejoin="round"/><polyline points="1946.2,291.9 1830.5,370.3 1786,422.9 1773.3,552.8 1790.3,663.4 1747.9,727 1742.5,779.3 1755.4,900 1732.3,1040.2" fill="none" stroke="#fff8ea" stroke-width="2.5" opacity="0.15" transform="translate(2.5 2.5)" stroke-linejoin="round"/><polyline points="851.7,2190.4 989.6,2216.2 1123.9,2252.4 1166.5,2308.8 1245.9,2399.9 1331.3,2449.3 1371.4,2586" fill="none" stroke="#2e2116" stroke-width="2.1" opacity="0.23" stroke-linejoin="round"/><polyline points="851.7,2190.4 989.6,2216.2 1123.9,2252.4 1166.5,2308.8 1245.9,2399.9 1331.3,2449.3 1371.4,2586" fill="none" stroke="#fff8ea" stroke-width="1.5" opacity="0.13" transform="translate(2.5 2.5)" stroke-linejoin="round"/><path d="M1978.6,2238.7 Q1970.3,2257 1958.5,2250.8 Q1946.7,2244.6 1934,2241.7 Q1921.3,2238.8 1922.1,2220.7 Q1922.8,2202.5 1934.3,2192.8 Q1945.8,2183.2 1957.1,2186.6 Q1968.4,2189.9 1977.7,2205.2 Q1987,2220.4 1978.6,2238.7 Z" fill="#ddcfb2" opacity="0.83"/><path d="M1949,1277.9 Q1923.4,1291 1881,1295.4 Q1838.6,1299.9 1813.2,1289.3 Q1787.8,1278.8 1796.9,1265.4 Q1805.9,1251.9 1821.8,1246.3 Q1837.7,1240.8 1876.9,1244.4 Q1916.1,1248.1 1945.3,1256.5 Q1974.5,1264.9 1949,1277.9 Z" fill="#ddcfb2" opacity="0.88"/><path d="M1981.8,1202.9 Q1950.6,1211.2 1914,1215.4 Q1877.4,1219.5 1854.3,1211.9 Q1831.2,1204.2 1827.5,1193.7 Q1823.8,1183.1 1853.6,1180.5 Q1883.5,1177.9 1920.4,1179.3 Q1957.3,1180.8 1985.2,1187.7 Q2013,1194.6 1981.8,1202.9 Z" fill="#ddcfb2" opacity="0.86"/><rect width="2400" height="3000" fill="url(#a198-vig)"/></svg></svg>