<svg xmlns="http://www.w3.org/2000/svg" width="2400" height="1800" viewBox="0 0 2400 1800"><rect width="2400" height="1800" fill="#dfe4dc"/><rect y="1400" width="2400" height="400" fill="#c2a67e"/><line x1="60" y1="1400" x2="10" y2="1800" stroke="#00000015" stroke-width="5"/><line x1="260" y1="1400" x2="210" y2="1800" stroke="#00000015" stroke-width="5"/><line x1="460" y1="1400" x2="410" y2="1800" stroke="#00000015" stroke-width="5"/><line x1="660" y1="1400" x2="610" y2="1800" stroke="#00000015" stroke-width="5"/><line x1="860" y1="1400" x2="810" y2="1800" stroke="#00000015" stroke-width="5"/><line x1="1060" y1="1400" x2="1010" y2="1800" stroke="#00000015" stroke-width="5"/><line x1="1260" y1="1400" x2="1210" y2="1800" stroke="#00000015" stroke-width="5"/><line x1="1460" y1="1400" x2="1410" y2="1800" stroke="#00000015" stroke-width="5"/><line x1="1660" y1="1400" x2="1610" y2="1800" stroke="#00000015" stroke-width="5"/><line x1="1860" y1="1400" x2="1810" y2="1800" stroke="#00000015" stroke-width="5"/><line x1="2060" y1="1400" x2="2010" y2="1800" stroke="#00000015" stroke-width="5"/><line x1="2260" y1="1400" x2="2210" y2="1800" stroke="#00000015" stroke-width="5"/><rect x="180" y="260" width="900" height="620" fill="#8a6a48"/><rect x="215" y="295" width="830" height="550" fill="#41524a"/><line x1="280" y1="420" x2="760" y2="420" stroke="#ffffff66" stroke-width="9" stroke-linecap="round"/><line x1="280" y1="520" x2="620" y2="520" stroke="#ffffff44" stroke-width="9" stroke-linecap="round"/><circle cx="880" cy="560" r="90" fill="none" stroke="#ffffff55" stroke-width="8"/><rect x="215" y="845" width="830" height="22" fill="#6f5436"/><rect x="330" y="1240" width="640" height="60" rx="10" fill="#9c7449"/><rect x="370" y="1300" width="60" height="240" fill="#8a6540"/><rect x="870" y="1300" width="60" height="240" fill="#8a6540"/><rect x="430" y="1160" width="150" height="80" rx="8" fill="#b3672f"/><rect x="450" y="1120" width="150" height="40" rx="8" fill="#bfa87c"/><circle cx="800" cy="1130" r="86" fill="#7fa3b8"/><path d="M760,1060 Q820,1100 780,1190 M740,1090 Q800,1120 850,1100" stroke="#5d8069" stroke-width="16" fill="none" stroke-linecap="round"/><circle cx="800" cy="1130" r="86" fill="none" stroke="#6b5233" stroke-width="7"/><line x1="800" y1="1216" x2="800" y2="1250" stroke="#6b5233" stroke-width="10"/><rect x="750" y="1244" width="100" height="14" rx="7" fill="#6b5233"/><rect x="1980" y="700" width="300" height="800" fill="#9c7449"/><rect x="2000" y="930" width="260" height="16" fill="#7c5a37"/><rect x="2020" y="790" width="36" height="140" fill="#b3502f"/><rect x="2066" y="802" width="36" height="128" fill="#39685c"/><rect x="2112" y="790" width="36" height="140" fill="#c9a227"/><rect x="2158" y="802" width="36" height="128" fill="#2c4661"/><rect x="2204" y="790" width="36" height="140" fill="#8a4423"/><rect x="2000" y="1180" width="260" height="16" fill="#7c5a37"/><rect x="2020" y="1040" width="36" height="140" fill="#39685c"/><rect x="2066" y="1052" width="36" height="128" fill="#c9a227"/><rect x="2112" y="1040" width="36" height="140" fill="#2c4661"/><rect x="2158" y="1052" width="36" height="128" fill="#8a4423"/><rect x="2204" y="1040" width="36" height="140" fill="#b3502f"/><rect x="2000" y="1430" width="260" height="16" fill="#7c5a37"/><rect x="2020" y="1290" width="36" height="140" fill="#c9a227"/><rect x="2066" y="1302" width="36" height="128" fill="#2c4661"/><rect x="2112" y="1290" width="36" height="140" fill="#8a4423"/><rect x="2158" y="1302" width="36" height="128" fill="#b3502f"/><rect x="2204" y="1290" width="36" height="140" fill="#39685c"/><defs><filter id="a186c-sh" x="-30%" y="-30%" width="160%" height="160%"><feGaussianBlur stdDeviation="16"/></filter></defs><rect x="1340.5" y="298.5" width="517" height="635" fill="#000" opacity="0.28" filter="url(#a186c-sh)"/><rect x="1326.5" y="276.5" width="517" height="635" fill="#3d342a"/><rect x="1341.8" y="291.8" width="486.4" height="604.5" fill="none" stroke="#00000055" stroke-width="3"/><rect x="1350" y="300" width="470" height="588" fill="#f6f2ea"/><svg x="1385.3" y="335.3" width="399.5" height="517.5" viewBox="0 0 2400 3000" preserveAspectRatio="xMidYMid slice"><filter id="a186-warp" x="-4%" y="-4%" width="108%" height="108%"><feTurbulence type="fractalNoise" baseFrequency="0.0105" numOctaves="2" seed="2020" result="w"/><feDisplacementMap in="SourceGraphic" in2="w" scale="11" xChannelSelector="R" yChannelSelector="G"/></filter><filter id="a186-grain" x="0%" y="0%" width="100%" height="100%"><feTurbulence type="fractalNoise" baseFrequency="0.6" numOctaves="2" seed="2027"/><feColorMatrix type="matrix" values="0.33 0.33 0.33 0 0.62  0.33 0.33 0.33 0 0.62  0.33 0.33 0.33 0 0.62  0 0 0 0 1"/></filter><filter id="a186-mottle" x="0%" y="0%" width="100%" height="100%"><feTurbulence type="fractalNoise" baseFrequency="0.0045" numOctaves="3" seed="2033"/><feColorMatrix type="matrix" values="0.2 0.2 0.2 0 0.78  0.2 0.2 0.2 0 0.78  0.2 0.2 0.2 0 0.78  0 0 0 0 1"/></filter><filter id="a186-fade" x="0%" y="0%" width="100%" height="100%"><feTurbulence type="fractalNoise" baseFrequency="0.006" numOctaves="2" seed="2049"/><feColorMatrix type="matrix" values="0.3 0.3 0.3 0 -0.08  0.3 0.3 0.3 0 -0.08  0.3 0.3 0.3 0 -0.1  0 0 0 0 1"/></filter><filter id="a186-blur9"><feGaussianBlur stdDeviation="9"/></filter><radialGradient id="a186-vig" cx="50%" cy="44%" r="78%"><stop offset="52%" stop-color="#241a10" stop-opacity="0"/><stop offset="100%" stop-color="#241a10" stop-opacity="0.17"/></radialGradient><radialGradient id="a186-warm" cx="50%" cy="30%" r="85%"><stop offset="0%" stop-color="#e8c890" stop-opacity="0.14"/><stop offset="70%" stop-color="#e8c890" stop-opacity="0"/></radialGradient><rect width="2400" height="3000" fill="#dcc8a0"/><rect width="2400" height="3000" fill="url(#a186-warm)"/><rect x="0" width="40.3" height="3000" fill="#6b4e26" opacity="0.088"/><rect x="56" width="39.1" height="3000" fill="#6b4e26" opacity="0.034"/><rect x="110.4" width="30.6" height="3000" fill="#6b4e26" opacity="0.082"/><rect x="152.9" width="38.8" height="3000" fill="#6b4e26" opacity="0.048"/><rect x="206.8" width="31.7" height="3000" fill="#6b4e26" opacity="0.098"/><rect x="250.9" width="42.5" height="3000" fill="#6b4e26" opacity="0.073"/><rect x="309.9" width="25" height="3000" fill="#6b4e26" opacity="0.074"/><rect x="344.7" width="37.7" height="3000" fill="#6b4e26" opacity="0.031"/><rect x="397" width="21.1" height="3000" fill="#6b4e26" opacity="0.082"/><rect x="426.3" width="20.7" height="3000" fill="#6b4e26" opacity="0.085"/><rect x="455" width="37" height="3000" fill="#6b4e26" opacity="0.053"/><rect x="506.4" width="43.1" height="3000" fill="#6b4e26" opacity="0.085"/><rect x="566.3" width="31.6" height="3000" fill="#6b4e26" opacity="0.058"/><rect x="610.2" width="39.1" height="3000" fill="#6b4e26" opacity="0.045"/><rect x="664.4" width="20.5" height="3000" fill="#6b4e26" opacity="0.092"/><rect x="692.9" width="35" height="3000" fill="#6b4e26" opacity="0.033"/><rect x="741.6" width="25.2" height="3000" fill="#6b4e26" opacity="0.034"/><rect x="776.6" width="41.5" height="3000" fill="#6b4e26" opacity="0.071"/><rect x="834.2" width="20.6" height="3000" fill="#6b4e26" opacity="0.069"/><rect x="862.8" width="27" height="3000" fill="#6b4e26" opacity="0.094"/><rect x="900.3" width="40.7" height="3000" fill="#6b4e26" opacity="0.031"/><rect x="956.9" width="24.9" height="3000" fill="#6b4e26" opacity="0.067"/><rect x="991.5" width="24.9" height="3000" fill="#6b4e26" opacity="0.096"/><rect x="1026" width="39.1" height="3000" fill="#6b4e26" opacity="0.093"/><rect x="1080.3" width="38.9" height="3000" fill="#6b4e26" opacity="0.057"/><rect x="1134.3" width="28.1" height="3000" fill="#6b4e26" opacity="0.092"/><rect x="1173.3" width="20.3" height="3000" fill="#6b4e26" opacity="0.035"/><rect x="1201.5" width="28.6" height="3000" fill="#6b4e26" opacity="0.071"/><rect x="1241.2" width="25.4" height="3000" fill="#6b4e26" opacity="0.075"/><rect x="1276.4" width="26.4" height="3000" fill="#6b4e26" opacity="0.057"/><rect x="1313.1" width="20" height="3000" fill="#6b4e26" opacity="0.097"/><rect x="1340.9" width="35.2" height="3000" fill="#6b4e26" opacity="0.057"/><rect x="1389.7" width="25.8" height="3000" fill="#6b4e26" opacity="0.072"/><rect x="1425.5" width="21.3" height="3000" fill="#6b4e26" opacity="0.092"/><rect x="1455.1" width="27.7" height="3000" fill="#6b4e26" opacity="0.072"/><rect x="1493.5" width="29.2" height="3000" fill="#6b4e26" opacity="0.042"/><rect x="1534.2" width="40.6" height="3000" fill="#6b4e26" opacity="0.075"/><rect x="1590.5" width="23.9" height="3000" fill="#6b4e26" opacity="0.083"/><rect x="1623.7" width="23" height="3000" fill="#6b4e26" opacity="0.083"/><rect x="1655.6" width="42.8" height="3000" fill="#6b4e26" opacity="0.051"/><rect x="1715.1" width="39.4" height="3000" fill="#6b4e26" opacity="0.095"/><rect x="1769.8" width="33.7" height="3000" fill="#6b4e26" opacity="0.035"/><rect x="1816.6" width="39.3" height="3000" fill="#6b4e26" opacity="0.052"/><rect x="1871.2" width="34.9" height="3000" fill="#6b4e26" opacity="0.078"/><rect x="1919.7" width="19.1" height="3000" fill="#6b4e26" opacity="0.068"/><rect x="1946.3" width="38.8" height="3000" fill="#6b4e26" opacity="0.080"/><rect x="2000.2" width="25.6" height="3000" fill="#6b4e26" opacity="0.065"/><rect x="2035.8" width="19.7" height="3000" fill="#6b4e26" opacity="0.096"/><rect x="2063.1" width="22.5" height="3000" fill="#6b4e26" opacity="0.075"/><rect x="2094.4" width="37.8" height="3000" fill="#6b4e26" opacity="0.086"/><rect x="2146.9" width="32.7" height="3000" fill="#6b4e26" opacity="0.030"/><rect x="2192.3" width="21.9" height="3000" fill="#6b4e26" opacity="0.034"/><rect x="2222.7" width="41.9" height="3000" fill="#6b4e26" opacity="0.094"/><rect x="2280.9" width="28.1" height="3000" fill="#6b4e26" opacity="0.096"/><rect x="2320" width="41.9" height="3000" fill="#6b4e26" opacity="0.096"/><rect x="2378.2" width="32.3" height="3000" fill="#6b4e26" opacity="0.091"/><rect y="0" width="2400" height="20.8" fill="#7c5c30" opacity="0.027"/><rect y="34.6" width="2400" height="19.3" fill="#7c5c30" opacity="0.046"/><rect y="66.7" width="2400" height="20.4" fill="#7c5c30" opacity="0.029"/><rect y="100.6" width="2400" height="21.5" fill="#7c5c30" opacity="0.046"/><rect y="136.4" width="2400" height="21" fill="#7c5c30" opacity="0.021"/><rect y="171.5" width="2400" height="28.8" fill="#7c5c30" opacity="0.045"/><rect y="219.4" width="2400" height="13.5" fill="#7c5c30" opacity="0.042"/><rect y="242" width="2400" height="14.3" fill="#7c5c30" opacity="0.028"/><rect y="265.8" width="2400" height="15.4" fill="#7c5c30" opacity="0.022"/><rect y="291.5" width="2400" height="13.7" fill="#7c5c30" opacity="0.059"/><rect y="314.3" width="2400" height="14.9" fill="#7c5c30" opacity="0.059"/><rect y="339.2" width="2400" height="27.7" fill="#7c5c30" opacity="0.049"/><rect y="385.4" width="2400" height="12.9" fill="#7c5c30" opacity="0.055"/><rect y="407" width="2400" height="16.3" fill="#7c5c30" opacity="0.035"/><rect y="434.1" width="2400" height="20.8" fill="#7c5c30" opacity="0.055"/><rect y="468.8" width="2400" height="25.8" fill="#7c5c30" opacity="0.041"/><rect y="511.8" width="2400" height="18.7" fill="#7c5c30" opacity="0.037"/><rect y="542.9" width="2400" height="27.4" fill="#7c5c30" opacity="0.047"/><rect y="588.5" width="2400" height="16.8" fill="#7c5c30" opacity="0.054"/><rect y="616.6" width="2400" height="19.7" fill="#7c5c30" opacity="0.034"/><rect y="649.3" width="2400" height="22.6" fill="#7c5c30" opacity="0.041"/><rect y="687" width="2400" height="23.2" fill="#7c5c30" opacity="0.032"/><rect y="725.6" width="2400" height="19.7" fill="#7c5c30" opacity="0.050"/><rect y="758.4" width="2400" height="13.3" fill="#7c5c30" opacity="0.044"/><rect y="780.6" width="2400" height="18.9" fill="#7c5c30" opacity="0.052"/><rect y="812.1" width="2400" height="17.7" fill="#7c5c30" opacity="0.041"/><rect y="841.5" width="2400" height="25.2" fill="#7c5c30" opacity="0.055"/><rect y="883.5" width="2400" height="14.3" fill="#7c5c30" opacity="0.027"/><rect y="907.3" width="2400" height="19.4" fill="#7c5c30" opacity="0.047"/><rect y="939.6" width="2400" height="24.7" fill="#7c5c30" opacity="0.028"/><rect y="980.8" width="2400" height="22.6" fill="#7c5c30" opacity="0.056"/><rect y="1018.5" width="2400" height="23.7" fill="#7c5c30" opacity="0.055"/><rect y="1058" width="2400" height="15.4" fill="#7c5c30" opacity="0.050"/><rect y="1083.6" width="2400" height="25.3" fill="#7c5c30" opacity="0.029"/><rect y="1125.8" width="2400" height="25" fill="#7c5c30" opacity="0.047"/><rect y="1167.5" width="2400" height="15.3" fill="#7c5c30" opacity="0.043"/><rect y="1192.9" width="2400" height="20.1" fill="#7c5c30" opacity="0.036"/><rect y="1226.4" width="2400" height="14.9" fill="#7c5c30" opacity="0.031"/><rect y="1251.3" width="2400" height="20.6" fill="#7c5c30" opacity="0.054"/><rect y="1285.6" width="2400" height="15.1" fill="#7c5c30" opacity="0.047"/><rect y="1310.8" width="2400" height="18.6" fill="#7c5c30" opacity="0.029"/><rect y="1341.7" width="2400" height="28.4" fill="#7c5c30" opacity="0.024"/><rect y="1389" width="2400" height="17.2" fill="#7c5c30" opacity="0.027"/><rect y="1417.7" width="2400" height="28.5" fill="#7c5c30" opacity="0.039"/><rect y="1465.2" width="2400" height="25.9" fill="#7c5c30" opacity="0.031"/><rect y="1508.4" width="2400" height="27.2" fill="#7c5c30" opacity="0.021"/><rect y="1553.8" width="2400" height="18.4" fill="#7c5c30" opacity="0.053"/><rect y="1584.4" width="2400" height="27.7" fill="#7c5c30" opacity="0.034"/><rect y="1630.6" width="2400" height="26.4" fill="#7c5c30" opacity="0.060"/><rect y="1674.5" width="2400" height="22.1" fill="#7c5c30" opacity="0.053"/><rect y="1711.4" width="2400" height="20.6" fill="#7c5c30" opacity="0.033"/><rect y="1745.8" width="2400" height="25.1" fill="#7c5c30" opacity="0.032"/><rect y="1787.6" width="2400" height="22.8" fill="#7c5c30" opacity="0.043"/><rect y="1825.6" width="2400" height="23.8" fill="#7c5c30" opacity="0.032"/><rect y="1865.2" width="2400" height="23.4" fill="#7c5c30" opacity="0.030"/><rect y="1904.2" width="2400" height="23.6" fill="#7c5c30" opacity="0.058"/><rect y="1943.5" width="2400" height="17.8" fill="#7c5c30" opacity="0.046"/><rect y="1973.2" width="2400" height="17.5" fill="#7c5c30" opacity="0.048"/><rect y="2002.4" width="2400" height="13" fill="#7c5c30" opacity="0.034"/><rect y="2024" width="2400" height="16.5" fill="#7c5c30" opacity="0.037"/><rect y="2051.5" width="2400" height="23.6" fill="#7c5c30" opacity="0.041"/><rect y="2090.8" width="2400" height="26.7" fill="#7c5c30" opacity="0.040"/><rect y="2135.3" width="2400" height="15.6" fill="#7c5c30" opacity="0.038"/><rect y="2161.4" width="2400" height="19" fill="#7c5c30" opacity="0.055"/><rect y="2193" width="2400" height="21.1" fill="#7c5c30" opacity="0.055"/><rect y="2228.3" width="2400" height="18.9" fill="#7c5c30" opacity="0.029"/><rect y="2259.9" width="2400" height="15.3" fill="#7c5c30" opacity="0.022"/><rect y="2285.3" width="2400" height="14" fill="#7c5c30" opacity="0.059"/><rect y="2308.6" width="2400" height="18.4" fill="#7c5c30" opacity="0.020"/><rect y="2339.2" width="2400" height="18.5" fill="#7c5c30" opacity="0.059"/><rect y="2370" width="2400" height="20.9" fill="#7c5c30" opacity="0.030"/><rect y="2404.7" width="2400" height="28.5" fill="#7c5c30" opacity="0.060"/><rect y="2452.1" width="2400" height="23.3" fill="#7c5c30" opacity="0.050"/><rect y="2491" width="2400" height="21.2" fill="#7c5c30" opacity="0.058"/><rect y="2526.4" width="2400" height="21.3" fill="#7c5c30" opacity="0.057"/><rect y="2561.9" width="2400" height="24.8" fill="#7c5c30" opacity="0.047"/><rect y="2603.3" width="2400" height="13.1" fill="#7c5c30" opacity="0.029"/><rect y="2625.1" width="2400" height="25.7" fill="#7c5c30" opacity="0.025"/><rect y="2668" width="2400" height="23.4" fill="#7c5c30" opacity="0.037"/><rect y="2706.9" width="2400" height="21.3" fill="#7c5c30" opacity="0.029"/><rect y="2742.5" width="2400" height="14.3" fill="#7c5c30" opacity="0.040"/><rect y="2766.3" width="2400" height="25.4" fill="#7c5c30" opacity="0.051"/><rect y="2808.7" width="2400" height="19.7" fill="#7c5c30" opacity="0.056"/><rect y="2841.5" width="2400" height="19.4" fill="#7c5c30" opacity="0.049"/><rect y="2873.9" width="2400" height="24.2" fill="#7c5c30" opacity="0.022"/><rect y="2914.3" width="2400" height="12.4" fill="#7c5c30" opacity="0.056"/><rect y="2935" width="2400" height="16.9" fill="#7c5c30" opacity="0.058"/><rect y="2963.1" width="2400" height="20.2" fill="#7c5c30" opacity="0.032"/><rect y="2996.7" width="2400" height="12.2" fill="#7c5c30" opacity="0.031"/><g filter="url(#a186-warp)"><line x1="1200" y1="480" x2="1200" y2="2520" stroke="#37301f" stroke-width="5" opacity="0.4"/><circle cx="1200" cy="480" r="128" fill="none" stroke="#37301f" stroke-width="12"/><line x1="640" y1="480" x2="720" y2="480" stroke="#37301f" stroke-width="8"/><line x1="1680" y1="480" x2="1760" y2="480" stroke="#37301f" stroke-width="8"/><circle cx="1200" cy="820" r="128" fill="#37301f"/><circle cx="1257.6" cy="820" r="117.8" fill="#dcc8a0"/><line x1="640" y1="820" x2="720" y2="820" stroke="#37301f" stroke-width="8"/><line x1="1680" y1="820" x2="1760" y2="820" stroke="#37301f" stroke-width="8"/><path d="M1200,1032 A128,128 0 0 0 1200,1288 Z" fill="#37301f"/><circle cx="1200" cy="1160" r="128" fill="none" stroke="#37301f" stroke-width="10"/><line x1="640" y1="1160" x2="720" y2="1160" stroke="#37301f" stroke-width="8"/><line x1="1680" y1="1160" x2="1760" y2="1160" stroke="#37301f" stroke-width="8"/><line x1="1460" y1="1500" x2="1530" y2="1500" stroke="#b3672f" stroke-width="14" stroke-linecap="round"/><line x1="1440.2" y1="1599.5" x2="1504.9" y2="1626.3" stroke="#b3672f" stroke-width="14" stroke-linecap="round"/><line x1="1383.8" y1="1683.8" x2="1433.3" y2="1733.3" stroke="#b3672f" stroke-width="14" stroke-linecap="round"/><line x1="1299.5" y1="1740.2" x2="1326.3" y2="1804.9" stroke="#b3672f" stroke-width="14" stroke-linecap="round"/><line x1="1200" y1="1760" x2="1200" y2="1830" stroke="#b3672f" stroke-width="14" stroke-linecap="round"/><line x1="1100.5" y1="1740.2" x2="1073.7" y2="1804.9" stroke="#b3672f" stroke-width="14" stroke-linecap="round"/><line x1="1016.2" y1="1683.8" x2="966.7" y2="1733.3" stroke="#b3672f" stroke-width="14" stroke-linecap="round"/><line x1="959.8" y1="1599.5" x2="895.1" y2="1626.3" stroke="#b3672f" stroke-width="14" stroke-linecap="round"/><line x1="940" y1="1500" x2="870" y2="1500" stroke="#b3672f" stroke-width="14" stroke-linecap="round"/><line x1="959.8" y1="1400.5" x2="895.1" y2="1373.7" stroke="#b3672f" stroke-width="14" stroke-linecap="round"/><line x1="1016.2" y1="1316.2" x2="966.7" y2="1266.7" stroke="#b3672f" stroke-width="14" stroke-linecap="round"/><line x1="1100.5" y1="1259.8" x2="1073.7" y2="1195.1" stroke="#b3672f" stroke-width="14" stroke-linecap="round"/><line x1="1200" y1="1240" x2="1200" y2="1170" stroke="#b3672f" stroke-width="14" stroke-linecap="round"/><line x1="1299.5" y1="1259.8" x2="1326.3" y2="1195.1" stroke="#b3672f" stroke-width="14" stroke-linecap="round"/><line x1="1383.8" y1="1316.2" x2="1433.3" y2="1266.7" stroke="#b3672f" stroke-width="14" stroke-linecap="round"/><line x1="1440.2" y1="1400.5" x2="1504.9" y2="1373.7" stroke="#b3672f" stroke-width="14" stroke-linecap="round"/><circle cx="1200" cy="1500" r="220" fill="#37301f"/><line x1="640" y1="1500" x2="720" y2="1500" stroke="#37301f" stroke-width="8"/><line x1="1680" y1="1500" x2="1760" y2="1500" stroke="#37301f" stroke-width="8"/><path d="M1200,1712 A128,128 0 0 1 1200,1968 Z" fill="#37301f"/><circle cx="1200" cy="1840" r="128" fill="none" stroke="#37301f" stroke-width="10"/><line x1="640" y1="1840" x2="720" y2="1840" stroke="#37301f" stroke-width="8"/><line x1="1680" y1="1840" x2="1760" y2="1840" stroke="#37301f" stroke-width="8"/><circle cx="1200" cy="2180" r="128" fill="#37301f"/><circle cx="1142.4" cy="2180" r="117.8" fill="#dcc8a0"/><line x1="640" y1="2180" x2="720" y2="2180" stroke="#37301f" stroke-width="8"/><line x1="1680" y1="2180" x2="1760" y2="2180" stroke="#37301f" stroke-width="8"/><circle cx="1200" cy="2520" r="128" fill="none" stroke="#37301f" stroke-width="12"/><line x1="640" y1="2520" x2="720" y2="2520" stroke="#37301f" stroke-width="8"/><line x1="1680" y1="2520" x2="1760" y2="2520" stroke="#37301f" stroke-width="8"/><circle cx="644" cy="1089.6" r="6.7" fill="#37301f" opacity="0.41"/><circle cx="1938.1" cy="1044" r="6.1" fill="#37301f" opacity="0.87"/><circle cx="1820.6" cy="2457.8" r="4.9" fill="#37301f" opacity="0.54"/><circle cx="384.8" cy="1230.4" r="3.8" fill="#37301f" opacity="0.82"/><circle cx="2041" cy="531.5" r="4.7" fill="#37301f" opacity="0.86"/><circle cx="1814.7" cy="2066.2" r="3.2" fill="#37301f" opacity="0.78"/><circle cx="1750.1" cy="1863.3" r="4.1" fill="#37301f" opacity="0.61"/><circle cx="400.5" cy="1565.9" r="6.8" fill="#37301f" opacity="0.65"/><circle cx="1966.3" cy="1882.7" r="4.4" fill="#37301f" opacity="0.79"/><circle cx="612.4" cy="1854.4" r="4.1" fill="#37301f" opacity="0.59"/><circle cx="1966.4" cy="2527.3" r="4.5" fill="#37301f" opacity="0.41"/><circle cx="465.2" cy="1457.1" r="6.5" fill="#37301f" opacity="0.55"/><circle cx="499.2" cy="1658.2" r="5.1" fill="#37301f" opacity="0.75"/><circle cx="685.7" cy="575.9" r="4.1" fill="#37301f" opacity="0.89"/><circle cx="1931.5" cy="1080.3" r="5.6" fill="#37301f" opacity="0.84"/><polyline points="300,266 356.3,210 412.5,266 468.8,210 525,266 581.3,210 637.5,266 693.8,210 750,266 806.3,210 862.5,266 918.8,210 975,266 1031.3,210 1087.5,266 1143.8,210 1200,266 1256.3,210 1312.5,266 1368.8,210 1425,266 1481.3,210 1537.5,266 1593.8,210 1650,266 1706.3,210 1762.5,266 1818.8,210 1875,266 1931.3,210 1987.5,266 2043.8,210 2100,266 " fill="none" stroke="#37301f" stroke-width="10.1" stroke-linejoin="miter"/><line x1="300" y1="2804" x2="2100" y2="2804" stroke="#37301f" stroke-width="6.7"/><polyline points="359.9,2763.7 359.4,2764.2 359.1,2765 359.1,2766 359.4,2767 360.1,2767.9 361.1,2768.7 362.4,2769.3 363.9,2769.5 365.5,2769.2 367.1,2768.5 368.6,2767.3 369.8,2765.7 370.6,2763.7 370.9,2761.4 370.5,2759 369.6,2756.7 368,2754.5 365.8,2752.8 363.2,2751.6 360.1,2751 357,2751.2 353.8,2752.3 350.9,2754.1 348.5,2756.7 346.6,2760 345.7,2763.7 345.6,2767.6 346.5,2771.6 348.5,2775.4 351.3,2778.7 355,2781.2 359.4,2782.8 364.1,2783.4 368.9,2782.8 373.6,2780.9 377.8,2777.9 381.2,2773.9 383.6,2769.1 384.8,2763.7 384.7,2758 383.1,2752.4 380.2,2747.3 376.1,2742.8 370.9,2739.5 364.9,2737.5 358.4,2736.9 351.9,2738 345.7,2740.6 340.3,2744.7 335.9,2750.1 332.8,2756.6 331.4,2763.7" fill="none" stroke="#37301f" stroke-width="7.6" stroke-linecap="round" stroke-linejoin="round"/><polyline points="443.9,2763.7 443.4,2764.2 443.1,2765 443.1,2766 443.4,2767 444.1,2767.9 445.1,2768.7 446.4,2769.3 447.9,2769.5 449.5,2769.2 451.1,2768.5 452.6,2767.3 453.8,2765.7 454.6,2763.7 454.9,2761.4 454.5,2759 453.6,2756.7 452,2754.5 449.8,2752.8 447.2,2751.6 444.1,2751 441,2751.2 437.8,2752.3 434.9,2754.1 432.5,2756.7 430.6,2760 429.7,2763.7 429.6,2767.6 430.5,2771.6 432.5,2775.4 435.3,2778.7 439,2781.2 443.4,2782.8 448.1,2783.4 452.9,2782.8 457.6,2780.9 461.8,2777.9 465.2,2773.9 467.6,2769.1 468.8,2763.7 468.7,2758 467.1,2752.4 464.2,2747.3 460.1,2742.8 454.9,2739.5 448.9,2737.5 442.4,2736.9 435.9,2738 429.7,2740.6 424.3,2744.7 419.9,2750.1 416.8,2756.6 415.4,2763.7" fill="none" stroke="#37301f" stroke-width="7.6" stroke-linecap="round" stroke-linejoin="round"/><polyline points="527.9,2763.7 527.4,2764.2 527.1,2765 527.1,2766 527.4,2767 528.1,2767.9 529.1,2768.7 530.4,2769.3 531.9,2769.5 533.5,2769.2 535.1,2768.5 536.6,2767.3 537.8,2765.7 538.6,2763.7 538.9,2761.4 538.5,2759 537.6,2756.7 536,2754.5 533.8,2752.8 531.2,2751.6 528.1,2751 525,2751.2 521.8,2752.3 518.9,2754.1 516.5,2756.7 514.6,2760 513.7,2763.7 513.6,2767.6 514.5,2771.6 516.5,2775.4 519.3,2778.7 523,2781.2 527.4,2782.8 532.1,2783.4 536.9,2782.8 541.6,2780.9 545.8,2777.9 549.2,2773.9 551.6,2769.1 552.8,2763.7 552.7,2758 551.1,2752.4 548.2,2747.3 544.1,2742.8 538.9,2739.5 532.9,2737.5 526.4,2736.9 519.9,2738 513.7,2740.6 508.3,2744.7 503.9,2750.1 500.8,2756.6 499.4,2763.7" fill="none" stroke="#37301f" stroke-width="7.6" stroke-linecap="round" stroke-linejoin="round"/><polyline points="611.9,2763.7 611.4,2764.2 611.1,2765 611.1,2766 611.4,2767 612.1,2767.9 613.1,2768.7 614.4,2769.3 615.9,2769.5 617.5,2769.2 619.1,2768.5 620.6,2767.3 621.8,2765.7 622.6,2763.7 622.9,2761.4 622.5,2759 621.6,2756.7 620,2754.5 617.8,2752.8 615.2,2751.6 612.1,2751 609,2751.2 605.8,2752.3 602.9,2754.1 600.5,2756.7 598.6,2760 597.7,2763.7 597.6,2767.6 598.5,2771.6 600.5,2775.4 603.3,2778.7 607,2781.2 611.4,2782.8 616.1,2783.4 620.9,2782.8 625.6,2780.9 629.8,2777.9 633.2,2773.9 635.6,2769.1 636.8,2763.7 636.7,2758 635.1,2752.4 632.2,2747.3 628.1,2742.8 622.9,2739.5 616.9,2737.5 610.4,2736.9 603.9,2738 597.7,2740.6 592.3,2744.7 587.9,2750.1 584.8,2756.6 583.4,2763.7" fill="none" stroke="#37301f" stroke-width="7.6" stroke-linecap="round" stroke-linejoin="round"/><polyline points="695.9,2763.7 695.4,2764.2 695.1,2765 695.1,2766 695.4,2767 696.1,2767.9 697.1,2768.7 698.4,2769.3 699.9,2769.5 701.5,2769.2 703.1,2768.5 704.6,2767.3 705.8,2765.7 706.6,2763.7 706.9,2761.4 706.5,2759 705.6,2756.7 704,2754.5 701.8,2752.8 699.2,2751.6 696.1,2751 693,2751.2 689.8,2752.3 686.9,2754.1 684.5,2756.7 682.6,2760 681.7,2763.7 681.6,2767.6 682.5,2771.6 684.5,2775.4 687.3,2778.7 691,2781.2 695.4,2782.8 700.1,2783.4 704.9,2782.8 709.6,2780.9 713.8,2777.9 717.2,2773.9 719.6,2769.1 720.8,2763.7 720.7,2758 719.1,2752.4 716.2,2747.3 712.1,2742.8 706.9,2739.5 700.9,2737.5 694.4,2736.9 687.9,2738 681.7,2740.6 676.3,2744.7 671.9,2750.1 668.8,2756.6 667.4,2763.7" fill="none" stroke="#37301f" stroke-width="7.6" stroke-linecap="round" stroke-linejoin="round"/><polyline points="779.9,2763.7 779.4,2764.2 779.1,2765 779.1,2766 779.4,2767 780.1,2767.9 781.1,2768.7 782.4,2769.3 783.9,2769.5 785.5,2769.2 787.1,2768.5 788.6,2767.3 789.8,2765.7 790.6,2763.7 790.9,2761.4 790.5,2759 789.6,2756.7 788,2754.5 785.8,2752.8 783.2,2751.6 780.1,2751 777,2751.2 773.8,2752.3 770.9,2754.1 768.5,2756.7 766.6,2760 765.7,2763.7 765.6,2767.6 766.5,2771.6 768.5,2775.4 771.3,2778.7 775,2781.2 779.4,2782.8 784.1,2783.4 788.9,2782.8 793.6,2780.9 797.8,2777.9 801.2,2773.9 803.6,2769.1 804.8,2763.7 804.7,2758 803.1,2752.4 800.2,2747.3 796.1,2742.8 790.9,2739.5 784.9,2737.5 778.4,2736.9 771.9,2738 765.7,2740.6 760.3,2744.7 755.9,2750.1 752.8,2756.6 751.4,2763.7" fill="none" stroke="#37301f" stroke-width="7.6" stroke-linecap="round" stroke-linejoin="round"/><polyline points="863.9,2763.7 863.4,2764.2 863.1,2765 863.1,2766 863.4,2767 864.1,2767.9 865.1,2768.7 866.4,2769.3 867.9,2769.5 869.5,2769.2 871.1,2768.5 872.6,2767.3 873.8,2765.7 874.6,2763.7 874.9,2761.4 874.5,2759 873.6,2756.7 872,2754.5 869.8,2752.8 867.2,2751.6 864.1,2751 861,2751.2 857.8,2752.3 854.9,2754.1 852.5,2756.7 850.6,2760 849.7,2763.7 849.6,2767.6 850.5,2771.6 852.5,2775.4 855.3,2778.7 859,2781.2 863.4,2782.8 868.1,2783.4 872.9,2782.8 877.6,2780.9 881.8,2777.9 885.2,2773.9 887.6,2769.1 888.8,2763.7 888.7,2758 887.1,2752.4 884.2,2747.3 880.1,2742.8 874.9,2739.5 868.9,2737.5 862.4,2736.9 855.9,2738 849.7,2740.6 844.3,2744.7 839.9,2750.1 836.8,2756.6 835.4,2763.7" fill="none" stroke="#37301f" stroke-width="7.6" stroke-linecap="round" stroke-linejoin="round"/><polyline points="947.9,2763.7 947.4,2764.2 947.1,2765 947.1,2766 947.4,2767 948.1,2767.9 949.1,2768.7 950.4,2769.3 951.9,2769.5 953.5,2769.2 955.1,2768.5 956.6,2767.3 957.8,2765.7 958.6,2763.7 958.9,2761.4 958.5,2759 957.6,2756.7 956,2754.5 953.8,2752.8 951.2,2751.6 948.1,2751 945,2751.2 941.8,2752.3 938.9,2754.1 936.5,2756.7 934.6,2760 933.7,2763.7 933.6,2767.6 934.5,2771.6 936.5,2775.4 939.3,2778.7 943,2781.2 947.4,2782.8 952.1,2783.4 956.9,2782.8 961.6,2780.9 965.8,2777.9 969.2,2773.9 971.6,2769.1 972.8,2763.7 972.7,2758 971.1,2752.4 968.2,2747.3 964.1,2742.8 958.9,2739.5 952.9,2737.5 946.4,2736.9 939.9,2738 933.7,2740.6 928.3,2744.7 923.9,2750.1 920.8,2756.6 919.4,2763.7" fill="none" stroke="#37301f" stroke-width="7.6" stroke-linecap="round" stroke-linejoin="round"/><polyline points="1031.9,2763.7 1031.4,2764.2 1031.1,2765 1031.1,2766 1031.4,2767 1032.1,2767.9 1033.1,2768.7 1034.4,2769.3 1035.9,2769.5 1037.5,2769.2 1039.1,2768.5 1040.6,2767.3 1041.8,2765.7 1042.6,2763.7 1042.9,2761.4 1042.5,2759 1041.6,2756.7 1040,2754.5 1037.8,2752.8 1035.2,2751.6 1032.1,2751 1029,2751.2 1025.8,2752.3 1022.9,2754.1 1020.5,2756.7 1018.6,2760 1017.7,2763.7 1017.6,2767.6 1018.5,2771.6 1020.5,2775.4 1023.3,2778.7 1027,2781.2 1031.4,2782.8 1036.1,2783.4 1040.9,2782.8 1045.6,2780.9 1049.8,2777.9 1053.2,2773.9 1055.6,2769.1 1056.8,2763.7 1056.7,2758 1055.1,2752.4 1052.2,2747.3 1048.1,2742.8 1042.9,2739.5 1036.9,2737.5 1030.4,2736.9 1023.9,2738 1017.7,2740.6 1012.3,2744.7 1007.9,2750.1 1004.8,2756.6 1003.4,2763.7" fill="none" stroke="#37301f" stroke-width="7.6" stroke-linecap="round" stroke-linejoin="round"/><polyline points="1115.9,2763.7 1115.4,2764.2 1115.1,2765 1115.1,2766 1115.4,2767 1116.1,2767.9 1117.1,2768.7 1118.4,2769.3 1119.9,2769.5 1121.5,2769.2 1123.1,2768.5 1124.6,2767.3 1125.8,2765.7 1126.6,2763.7 1126.9,2761.4 1126.5,2759 1125.6,2756.7 1124,2754.5 1121.8,2752.8 1119.2,2751.6 1116.1,2751 1113,2751.2 1109.8,2752.3 1106.9,2754.1 1104.5,2756.7 1102.6,2760 1101.7,2763.7 1101.6,2767.6 1102.5,2771.6 1104.5,2775.4 1107.3,2778.7 1111,2781.2 1115.4,2782.8 1120.1,2783.4 1124.9,2782.8 1129.6,2780.9 1133.8,2777.9 1137.2,2773.9 1139.6,2769.1 1140.8,2763.7 1140.7,2758 1139.1,2752.4 1136.2,2747.3 1132.1,2742.8 1126.9,2739.5 1120.9,2737.5 1114.4,2736.9 1107.9,2738 1101.7,2740.6 1096.3,2744.7 1091.9,2750.1 1088.8,2756.6 1087.4,2763.7" fill="none" stroke="#37301f" stroke-width="7.6" stroke-linecap="round" stroke-linejoin="round"/><polyline points="1199.9,2763.7 1199.4,2764.2 1199.1,2765 1199.1,2766 1199.4,2767 1200.1,2767.9 1201.1,2768.7 1202.4,2769.3 1203.9,2769.5 1205.5,2769.2 1207.1,2768.5 1208.6,2767.3 1209.8,2765.7 1210.6,2763.7 1210.9,2761.4 1210.5,2759 1209.6,2756.7 1208,2754.5 1205.8,2752.8 1203.2,2751.6 1200.1,2751 1197,2751.2 1193.8,2752.3 1190.9,2754.1 1188.5,2756.7 1186.6,2760 1185.7,2763.7 1185.6,2767.6 1186.5,2771.6 1188.5,2775.4 1191.3,2778.7 1195,2781.2 1199.4,2782.8 1204.1,2783.4 1208.9,2782.8 1213.6,2780.9 1217.8,2777.9 1221.2,2773.9 1223.6,2769.1 1224.8,2763.7 1224.7,2758 1223.1,2752.4 1220.2,2747.3 1216.1,2742.8 1210.9,2739.5 1204.9,2737.5 1198.4,2736.9 1191.9,2738 1185.7,2740.6 1180.3,2744.7 1175.9,2750.1 1172.8,2756.6 1171.4,2763.7" fill="none" stroke="#37301f" stroke-width="7.6" stroke-linecap="round" stroke-linejoin="round"/><polyline points="1283.9,2763.7 1283.4,2764.2 1283.1,2765 1283.1,2766 1283.4,2767 1284.1,2767.9 1285.1,2768.7 1286.4,2769.3 1287.9,2769.5 1289.5,2769.2 1291.1,2768.5 1292.6,2767.3 1293.8,2765.7 1294.6,2763.7 1294.9,2761.4 1294.5,2759 1293.6,2756.7 1292,2754.5 1289.8,2752.8 1287.2,2751.6 1284.1,2751 1281,2751.2 1277.8,2752.3 1274.9,2754.1 1272.5,2756.7 1270.6,2760 1269.7,2763.7 1269.6,2767.6 1270.5,2771.6 1272.5,2775.4 1275.3,2778.7 1279,2781.2 1283.4,2782.8 1288.1,2783.4 1292.9,2782.8 1297.6,2780.9 1301.8,2777.9 1305.2,2773.9 1307.6,2769.1 1308.8,2763.7 1308.7,2758 1307.1,2752.4 1304.2,2747.3 1300.1,2742.8 1294.9,2739.5 1288.9,2737.5 1282.4,2736.9 1275.9,2738 1269.7,2740.6 1264.3,2744.7 1259.9,2750.1 1256.8,2756.6 1255.4,2763.7" fill="none" stroke="#37301f" stroke-width="7.6" stroke-linecap="round" stroke-linejoin="round"/><polyline points="1367.9,2763.7 1367.4,2764.2 1367.1,2765 1367.1,2766 1367.4,2767 1368.1,2767.9 1369.1,2768.7 1370.4,2769.3 1371.9,2769.5 1373.5,2769.2 1375.1,2768.5 1376.6,2767.3 1377.8,2765.7 1378.6,2763.7 1378.9,2761.4 1378.5,2759 1377.6,2756.7 1376,2754.5 1373.8,2752.8 1371.2,2751.6 1368.1,2751 1365,2751.2 1361.8,2752.3 1358.9,2754.1 1356.5,2756.7 1354.6,2760 1353.7,2763.7 1353.6,2767.6 1354.5,2771.6 1356.5,2775.4 1359.3,2778.7 1363,2781.2 1367.4,2782.8 1372.1,2783.4 1376.9,2782.8 1381.6,2780.9 1385.8,2777.9 1389.2,2773.9 1391.6,2769.1 1392.8,2763.7 1392.7,2758 1391.1,2752.4 1388.2,2747.3 1384.1,2742.8 1378.9,2739.5 1372.9,2737.5 1366.4,2736.9 1359.9,2738 1353.7,2740.6 1348.3,2744.7 1343.9,2750.1 1340.8,2756.6 1339.4,2763.7" fill="none" stroke="#37301f" stroke-width="7.6" stroke-linecap="round" stroke-linejoin="round"/><polyline points="1451.9,2763.7 1451.4,2764.2 1451.1,2765 1451.1,2766 1451.4,2767 1452.1,2767.9 1453.1,2768.7 1454.4,2769.3 1455.9,2769.5 1457.5,2769.2 1459.1,2768.5 1460.6,2767.3 1461.8,2765.7 1462.6,2763.7 1462.9,2761.4 1462.5,2759 1461.6,2756.7 1460,2754.5 1457.8,2752.8 1455.2,2751.6 1452.1,2751 1449,2751.2 1445.8,2752.3 1442.9,2754.1 1440.5,2756.7 1438.6,2760 1437.7,2763.7 1437.6,2767.6 1438.5,2771.6 1440.5,2775.4 1443.3,2778.7 1447,2781.2 1451.4,2782.8 1456.1,2783.4 1460.9,2782.8 1465.6,2780.9 1469.8,2777.9 1473.2,2773.9 1475.6,2769.1 1476.8,2763.7 1476.7,2758 1475.1,2752.4 1472.2,2747.3 1468.1,2742.8 1462.9,2739.5 1456.9,2737.5 1450.4,2736.9 1443.9,2738 1437.7,2740.6 1432.3,2744.7 1427.9,2750.1 1424.8,2756.6 1423.4,2763.7" fill="none" stroke="#37301f" stroke-width="7.6" stroke-linecap="round" stroke-linejoin="round"/><polyline points="1535.9,2763.7 1535.4,2764.2 1535.1,2765 1535.1,2766 1535.4,2767 1536.1,2767.9 1537.1,2768.7 1538.4,2769.3 1539.9,2769.5 1541.5,2769.2 1543.1,2768.5 1544.6,2767.3 1545.8,2765.7 1546.6,2763.7 1546.9,2761.4 1546.5,2759 1545.6,2756.7 1544,2754.5 1541.8,2752.8 1539.2,2751.6 1536.1,2751 1533,2751.2 1529.8,2752.3 1526.9,2754.1 1524.5,2756.7 1522.6,2760 1521.7,2763.7 1521.6,2767.6 1522.5,2771.6 1524.5,2775.4 1527.3,2778.7 1531,2781.2 1535.4,2782.8 1540.1,2783.4 1544.9,2782.8 1549.6,2780.9 1553.8,2777.9 1557.2,2773.9 1559.6,2769.1 1560.8,2763.7 1560.7,2758 1559.1,2752.4 1556.2,2747.3 1552.1,2742.8 1546.9,2739.5 1540.9,2737.5 1534.4,2736.9 1527.9,2738 1521.7,2740.6 1516.3,2744.7 1511.9,2750.1 1508.8,2756.6 1507.4,2763.7" fill="none" stroke="#37301f" stroke-width="7.6" stroke-linecap="round" stroke-linejoin="round"/><polyline points="1619.9,2763.7 1619.4,2764.2 1619.1,2765 1619.1,2766 1619.4,2767 1620.1,2767.9 1621.1,2768.7 1622.4,2769.3 1623.9,2769.5 1625.5,2769.2 1627.1,2768.5 1628.6,2767.3 1629.8,2765.7 1630.6,2763.7 1630.9,2761.4 1630.5,2759 1629.6,2756.7 1628,2754.5 1625.8,2752.8 1623.2,2751.6 1620.1,2751 1617,2751.2 1613.8,2752.3 1610.9,2754.1 1608.5,2756.7 1606.6,2760 1605.7,2763.7 1605.6,2767.6 1606.5,2771.6 1608.5,2775.4 1611.3,2778.7 1615,2781.2 1619.4,2782.8 1624.1,2783.4 1628.9,2782.8 1633.6,2780.9 1637.8,2777.9 1641.2,2773.9 1643.6,2769.1 1644.8,2763.7 1644.7,2758 1643.1,2752.4 1640.2,2747.3 1636.1,2742.8 1630.9,2739.5 1624.9,2737.5 1618.4,2736.9 1611.9,2738 1605.7,2740.6 1600.3,2744.7 1595.9,2750.1 1592.8,2756.6 1591.4,2763.7" fill="none" stroke="#37301f" stroke-width="7.6" stroke-linecap="round" stroke-linejoin="round"/><polyline points="1703.9,2763.7 1703.4,2764.2 1703.1,2765 1703.1,2766 1703.4,2767 1704.1,2767.9 1705.1,2768.7 1706.4,2769.3 1707.9,2769.5 1709.5,2769.2 1711.1,2768.5 1712.6,2767.3 1713.8,2765.7 1714.6,2763.7 1714.9,2761.4 1714.5,2759 1713.6,2756.7 1712,2754.5 1709.8,2752.8 1707.2,2751.6 1704.1,2751 1701,2751.2 1697.8,2752.3 1694.9,2754.1 1692.5,2756.7 1690.6,2760 1689.7,2763.7 1689.6,2767.6 1690.5,2771.6 1692.5,2775.4 1695.3,2778.7 1699,2781.2 1703.4,2782.8 1708.1,2783.4 1712.9,2782.8 1717.6,2780.9 1721.8,2777.9 1725.2,2773.9 1727.6,2769.1 1728.8,2763.7 1728.7,2758 1727.1,2752.4 1724.2,2747.3 1720.1,2742.8 1714.9,2739.5 1708.9,2737.5 1702.4,2736.9 1695.9,2738 1689.7,2740.6 1684.3,2744.7 1679.9,2750.1 1676.8,2756.6 1675.4,2763.7" fill="none" stroke="#37301f" stroke-width="7.6" stroke-linecap="round" stroke-linejoin="round"/><polyline points="1787.9,2763.7 1787.4,2764.2 1787.1,2765 1787.1,2766 1787.4,2767 1788.1,2767.9 1789.1,2768.7 1790.4,2769.3 1791.9,2769.5 1793.5,2769.2 1795.1,2768.5 1796.6,2767.3 1797.8,2765.7 1798.6,2763.7 1798.9,2761.4 1798.5,2759 1797.6,2756.7 1796,2754.5 1793.8,2752.8 1791.2,2751.6 1788.1,2751 1785,2751.2 1781.8,2752.3 1778.9,2754.1 1776.5,2756.7 1774.6,2760 1773.7,2763.7 1773.6,2767.6 1774.5,2771.6 1776.5,2775.4 1779.3,2778.7 1783,2781.2 1787.4,2782.8 1792.1,2783.4 1796.9,2782.8 1801.6,2780.9 1805.8,2777.9 1809.2,2773.9 1811.6,2769.1 1812.8,2763.7 1812.7,2758 1811.1,2752.4 1808.2,2747.3 1804.1,2742.8 1798.9,2739.5 1792.9,2737.5 1786.4,2736.9 1779.9,2738 1773.7,2740.6 1768.3,2744.7 1763.9,2750.1 1760.8,2756.6 1759.4,2763.7" fill="none" stroke="#37301f" stroke-width="7.6" stroke-linecap="round" stroke-linejoin="round"/><polyline points="1871.9,2763.7 1871.4,2764.2 1871.1,2765 1871.1,2766 1871.4,2767 1872.1,2767.9 1873.1,2768.7 1874.4,2769.3 1875.9,2769.5 1877.5,2769.2 1879.1,2768.5 1880.6,2767.3 1881.8,2765.7 1882.6,2763.7 1882.9,2761.4 1882.5,2759 1881.6,2756.7 1880,2754.5 1877.8,2752.8 1875.2,2751.6 1872.1,2751 1869,2751.2 1865.8,2752.3 1862.9,2754.1 1860.5,2756.7 1858.6,2760 1857.7,2763.7 1857.6,2767.6 1858.5,2771.6 1860.5,2775.4 1863.3,2778.7 1867,2781.2 1871.4,2782.8 1876.1,2783.4 1880.9,2782.8 1885.6,2780.9 1889.8,2777.9 1893.2,2773.9 1895.6,2769.1 1896.8,2763.7 1896.7,2758 1895.1,2752.4 1892.2,2747.3 1888.1,2742.8 1882.9,2739.5 1876.9,2737.5 1870.4,2736.9 1863.9,2738 1857.7,2740.6 1852.3,2744.7 1847.9,2750.1 1844.8,2756.6 1843.4,2763.7" fill="none" stroke="#37301f" stroke-width="7.6" stroke-linecap="round" stroke-linejoin="round"/><polyline points="1955.9,2763.7 1955.4,2764.2 1955.1,2765 1955.1,2766 1955.4,2767 1956.1,2767.9 1957.1,2768.7 1958.4,2769.3 1959.9,2769.5 1961.5,2769.2 1963.1,2768.5 1964.6,2767.3 1965.8,2765.7 1966.6,2763.7 1966.9,2761.4 1966.5,2759 1965.6,2756.7 1964,2754.5 1961.8,2752.8 1959.2,2751.6 1956.1,2751 1953,2751.2 1949.8,2752.3 1946.9,2754.1 1944.5,2756.7 1942.6,2760 1941.7,2763.7 1941.6,2767.6 1942.5,2771.6 1944.5,2775.4 1947.3,2778.7 1951,2781.2 1955.4,2782.8 1960.1,2783.4 1964.9,2782.8 1969.6,2780.9 1973.8,2777.9 1977.2,2773.9 1979.6,2769.1 1980.8,2763.7 1980.7,2758 1979.1,2752.4 1976.2,2747.3 1972.1,2742.8 1966.9,2739.5 1960.9,2737.5 1954.4,2736.9 1947.9,2738 1941.7,2740.6 1936.3,2744.7 1931.9,2750.1 1928.8,2756.6 1927.4,2763.7" fill="none" stroke="#37301f" stroke-width="7.6" stroke-linecap="round" stroke-linejoin="round"/><polyline points="2039.9,2763.7 2039.4,2764.2 2039.1,2765 2039.1,2766 2039.4,2767 2040.1,2767.9 2041.1,2768.7 2042.4,2769.3 2043.9,2769.5 2045.5,2769.2 2047.1,2768.5 2048.6,2767.3 2049.8,2765.7 2050.6,2763.7 2050.9,2761.4 2050.5,2759 2049.6,2756.7 2048,2754.5 2045.8,2752.8 2043.2,2751.6 2040.1,2751 2037,2751.2 2033.8,2752.3 2030.9,2754.1 2028.5,2756.7 2026.6,2760 2025.7,2763.7 2025.6,2767.6 2026.5,2771.6 2028.5,2775.4 2031.3,2778.7 2035,2781.2 2039.4,2782.8 2044.1,2783.4 2048.9,2782.8 2053.6,2780.9 2057.8,2777.9 2061.2,2773.9 2063.6,2769.1 2064.8,2763.7 2064.7,2758 2063.1,2752.4 2060.2,2747.3 2056.1,2742.8 2050.9,2739.5 2044.9,2737.5 2038.4,2736.9 2031.9,2738 2025.7,2740.6 2020.3,2744.7 2015.9,2750.1 2012.8,2756.6 2011.4,2763.7" fill="none" stroke="#37301f" stroke-width="7.6" stroke-linecap="round" stroke-linejoin="round"/><rect x="120" y="120" width="2160" height="2760" fill="none" stroke="#37301f" stroke-width="6" opacity="0.85"/></g><rect width="2400" height="3000" filter="url(#a186-mottle)" style="mix-blend-mode:multiply" opacity="0.5"/><rect width="2400" height="3000" filter="url(#a186-fade)" style="mix-blend-mode:screen" opacity="0.55"/><rect width="2400" height="3000" filter="url(#a186-grain)" style="mix-blend-mode:multiply" opacity="0.32"/><ellipse cx="415.5" cy="2658.5" rx="116.4" ry="104.9" fill="#6b4a22" opacity="0.065" filter="url(#a186-blur9)"/><ellipse cx="984.3" cy="566.5" rx="209.7" ry="137.3" fill="#6b4a22" opacity="0.056" filter="url(#a186-blur9)"/><ellipse cx="2193.4" cy="1497.5" rx="110.3" ry="93" fill="#6b4a22" opacity="0.053" filter="url(#a186-blur9)"/><ellipse cx="222.4" cy="2518.3" rx="320.7" ry="265.2" fill="#6b4a22" opacity="0.027" filter="url(#a186-blur9)"/><ellipse cx="709.9" cy="762" rx="231.2" ry="135.8" fill="#6b4a22" opacity="0.037" filter="url(#a186-blur9)"/><rect x="0" width="15.5" height="3000" fill="#fff2d0" opacity="0.044"/><rect x="31" width="21.8" height="3000" fill="#fff2d0" opacity="0.023"/><rect x="74.6" width="24.2" height="3000" fill="#fff2d0" opacity="0.033"/><rect x="123.1" width="23.5" height="3000" fill="#fff2d0" opacity="0.034"/><rect x="170.1" width="31.4" height="3000" fill="#fff2d0" opacity="0.027"/><rect x="232.9" width="27.1" height="3000" fill="#fff2d0" opacity="0.041"/><rect x="287.1" width="29.9" height="3000" fill="#fff2d0" opacity="0.031"/><rect x="346.9" width="15.9" height="3000" fill="#fff2d0" opacity="0.029"/><rect x="378.7" width="31.9" height="3000" fill="#fff2d0" opacity="0.027"/><rect x="442.6" width="17.1" height="3000" fill="#fff2d0" opacity="0.036"/><rect x="476.7" width="15.5" height="3000" fill="#fff2d0" opacity="0.036"/><rect x="507.7" width="25.8" height="3000" fill="#fff2d0" opacity="0.017"/><rect x="559.3" width="24.1" height="3000" fill="#fff2d0" opacity="0.038"/><rect x="607.5" width="20.4" height="3000" fill="#fff2d0" opacity="0.032"/><rect x="648.2" width="29.7" height="3000" fill="#fff2d0" opacity="0.042"/><rect x="707.7" width="33.9" height="3000" fill="#fff2d0" opacity="0.028"/><rect x="775.5" width="28.7" height="3000" fill="#fff2d0" opacity="0.031"/><rect x="832.9" width="30.8" height="3000" fill="#fff2d0" opacity="0.029"/><rect x="894.5" width="30.1" height="3000" fill="#fff2d0" opacity="0.018"/><rect x="954.7" width="21" height="3000" fill="#fff2d0" opacity="0.031"/><rect x="996.7" width="20.3" height="3000" fill="#fff2d0" opacity="0.027"/><rect x="1037.4" width="20.1" height="3000" fill="#fff2d0" opacity="0.022"/><rect x="1077.5" width="26.5" height="3000" fill="#fff2d0" opacity="0.022"/><rect x="1130.5" width="17.8" height="3000" fill="#fff2d0" opacity="0.017"/><rect x="1166.1" width="17.8" height="3000" fill="#fff2d0" opacity="0.031"/><rect x="1201.8" width="20.5" height="3000" fill="#fff2d0" opacity="0.018"/><rect x="1242.7" width="16.3" height="3000" fill="#fff2d0" opacity="0.029"/><rect x="1275.3" width="15.8" height="3000" fill="#fff2d0" opacity="0.044"/><rect x="1306.9" width="30" height="3000" fill="#fff2d0" opacity="0.022"/><rect x="1366.8" width="25.5" height="3000" fill="#fff2d0" opacity="0.023"/><rect x="1417.8" width="30.8" height="3000" fill="#fff2d0" opacity="0.016"/><rect x="1479.4" width="19.9" height="3000" fill="#fff2d0" opacity="0.032"/><rect x="1519.2" width="27.7" height="3000" fill="#fff2d0" opacity="0.028"/><rect x="1574.6" width="34.3" height="3000" fill="#fff2d0" opacity="0.036"/><rect x="1643.2" width="23.2" height="3000" fill="#fff2d0" opacity="0.022"/><rect x="1689.6" width="30.6" height="3000" fill="#fff2d0" opacity="0.027"/><rect x="1750.8" width="29.9" height="3000" fill="#fff2d0" opacity="0.022"/><rect x="1810.5" width="19.6" height="3000" fill="#fff2d0" opacity="0.017"/><rect x="1849.7" width="26.2" height="3000" fill="#fff2d0" opacity="0.032"/><rect x="1902.1" width="27.7" height="3000" fill="#fff2d0" opacity="0.037"/><rect x="1957.4" width="16.4" height="3000" fill="#fff2d0" opacity="0.034"/><rect x="1990.2" width="34" height="3000" fill="#fff2d0" opacity="0.017"/><rect x="2058.2" width="21.1" height="3000" fill="#fff2d0" opacity="0.033"/><rect x="2100.4" width="19.3" height="3000" fill="#fff2d0" opacity="0.017"/><rect x="2139" width="23" height="3000" fill="#fff2d0" opacity="0.024"/><rect x="2185.1" width="33.9" height="3000" fill="#fff2d0" opacity="0.044"/><rect x="2252.8" width="34" height="3000" fill="#fff2d0" opacity="0.020"/><rect x="2320.8" width="18.3" height="3000" fill="#fff2d0" opacity="0.042"/><rect x="2357.4" width="19.3" height="3000" fill="#fff2d0" opacity="0.033"/><rect x="2396.1" width="28.4" height="3000" fill="#fff2d0" opacity="0.016"/><linearGradient id="a186-er" x1="0" x2="1" y1="0" y2="0"><stop offset="0" stop-color="#3a2a12" stop-opacity="0.22"/><stop offset="1" stop-color="#3a2a12" stop-opacity="0"/></linearGradient><rect x="0" y="0" width="90" height="3000" fill="url(#a186-er)"/><linearGradient id="a186-el" x1="1" x2="0" y1="0" y2="0"><stop offset="0" stop-color="#3a2a12" stop-opacity="0.22"/><stop offset="1" stop-color="#3a2a12" stop-opacity="0"/></linearGradient><rect x="2310" y="0" width="90" height="3000" fill="url(#a186-el)"/><linearGradient id="a186-ed" x1="0" x2="0" y1="0" y2="1"><stop offset="0" stop-color="#3a2a12" stop-opacity="0.22"/><stop offset="1" stop-color="#3a2a12" stop-opacity="0"/></linearGradient><rect x="0" y="0" width="2400" height="90" fill="url(#a186-ed)"/><linearGradient id="a186-eu" x1="0" x2="0" y1="1" y2="0"><stop offset="0" stop-color="#3a2a12" stop-opacity="0.22"/><stop offset="1" stop-color="#3a2a12" stop-opacity="0"/></linearGradient><rect x="0" y="2910" width="2400" height="90" fill="url(#a186-eu)"/><circle cx="1785.9" cy="514.6" r="14.5" fill="#8a5a2e" opacity="0.114"/><circle cx="1960.5" cy="192" r="7.4" fill="#8a5a2e" opacity="0.078"/><circle cx="1078" cy="244.9" r="14.6" fill="#8a5a2e" opacity="0.054"/><circle cx="1589.6" cy="355.5" r="6.4" fill="#8a5a2e" opacity="0.064"/><circle cx="1201.4" cy="1846.5" r="6" fill="#8a5a2e" opacity="0.112"/><circle cx="523.1" cy="1888.6" r="8.1" fill="#8a5a2e" opacity="0.044"/><circle cx="1377.1" cy="1144.8" r="6.4" fill="#8a5a2e" opacity="0.103"/><circle cx="1633.3" cy="133.7" r="13" fill="#8a5a2e" opacity="0.123"/><circle cx="473.8" cy="110.8" r="15.6" fill="#8a5a2e" opacity="0.112"/><rect width="2400" height="3000" fill="url(#a186-vig)"/></svg></svg>