<svg xmlns="http://www.w3.org/2000/svg" width="2400" height="1800" viewBox="0 0 2400 1800"><rect width="2400" height="1800" fill="#e5ddcf"/><rect y="1430" width="2400" height="370" fill="#b89a76"/><line x1="100" y1="1430" x2="45" y2="1800" stroke="#00000016" stroke-width="5"/><line x1="330" y1="1430" x2="275" y2="1800" stroke="#00000016" stroke-width="5"/><line x1="560" y1="1430" x2="505" y2="1800" stroke="#00000016" stroke-width="5"/><line x1="790" y1="1430" x2="735" y2="1800" stroke="#00000016" stroke-width="5"/><line x1="1020" y1="1430" x2="965" y2="1800" stroke="#00000016" stroke-width="5"/><line x1="1250" y1="1430" x2="1195" y2="1800" stroke="#00000016" stroke-width="5"/><line x1="1480" y1="1430" x2="1425" y2="1800" stroke="#00000016" stroke-width="5"/><line x1="1710" y1="1430" x2="1655" y2="1800" stroke="#00000016" stroke-width="5"/><line x1="1940" y1="1430" x2="1885" y2="1800" stroke="#00000016" stroke-width="5"/><line x1="2170" y1="1430" x2="2115" y2="1800" stroke="#00000016" stroke-width="5"/><rect x="620" y="1180" width="1180" height="52" rx="10" fill="#8a6540"/><rect x="680" y="1232" width="70" height="330" fill="#775433"/><rect x="1670" y="1232" width="70" height="330" fill="#775433"/><rect x="760" y="1120" width="220" height="34" rx="6" fill="#a8502f"/><rect x="780" y="1086" width="200" height="34" rx="6" fill="#39685c"/><rect x="800" y="1052" width="170" height="34" rx="6" fill="#c9a227"/><circle cx="1240" cy="1130" r="46" fill="#3f3428"/><rect x="1226" y="1048" width="16" height="60" fill="#3f3428" transform="rotate(18 1240 1090)"/><rect x="1420" y="1100" width="260" height="26" rx="13" fill="#e8dcc0"/><rect x="1450" y="1072" width="260" height="26" rx="13" fill="#dfd0ad"/><rect x="1080" y="1300" width="360" height="34" rx="14" fill="#6f5436"/><rect x="1100" y="1334" width="40" height="220" fill="#6f5436"/><rect x="1380" y="1334" width="40" height="220" fill="#6f5436"/><rect x="1080" y="1030" width="42" height="290" rx="14" fill="#6f5436"/><rect x="260" y="480" width="560" height="24" fill="#8a6540"/><rect x="300" y="360" width="90" height="120" fill="#b3502f"/><rect x="400" y="380" width="80" height="100" fill="#2c4661"/><rect x="490" y="350" width="86" height="130" fill="#96a396"/><path d="M700,480 Q 616,347 574,382" fill="none" stroke="#5d7052" stroke-width="11.2" stroke-linecap="round"/><path d="M700,480 Q 644,347 616,354" fill="none" stroke="#5d7052" stroke-width="11.2" stroke-linecap="round"/><path d="M700,480 Q 672,347 658,326" fill="none" stroke="#5d7052" stroke-width="11.2" stroke-linecap="round"/><path d="M700,480 Q 700,347 700,298" fill="none" stroke="#5d7052" stroke-width="11.2" stroke-linecap="round"/><path d="M700,480 Q 728,347 742,326" fill="none" stroke="#5d7052" stroke-width="11.2" stroke-linecap="round"/><path d="M700,480 Q 756,347 784,354" fill="none" stroke="#5d7052" stroke-width="11.2" stroke-linecap="round"/><path d="M700,480 Q 784,347 826,382" fill="none" stroke="#5d7052" stroke-width="11.2" stroke-linecap="round"/><path d="M651,480 L749,480 L736.4,557 L663.6,557 Z" fill="#a9714d"/><path d="M320,1520 Q 164,1273 86,1338" fill="none" stroke="#5d7052" stroke-width="20.8" stroke-linecap="round"/><path d="M320,1520 Q 216,1273 164,1286" fill="none" stroke="#5d7052" stroke-width="20.8" stroke-linecap="round"/><path d="M320,1520 Q 268,1273 242,1234" fill="none" stroke="#5d7052" stroke-width="20.8" stroke-linecap="round"/><path d="M320,1520 Q 320,1273 320,1182" fill="none" stroke="#5d7052" stroke-width="20.8" stroke-linecap="round"/><path d="M320,1520 Q 372,1273 398,1234" fill="none" stroke="#5d7052" stroke-width="20.8" stroke-linecap="round"/><path d="M320,1520 Q 424,1273 476,1286" fill="none" stroke="#5d7052" stroke-width="20.8" stroke-linecap="round"/><path d="M320,1520 Q 476,1273 554,1338" fill="none" stroke="#5d7052" stroke-width="20.8" stroke-linecap="round"/><path d="M229,1520 L411,1520 L387.6,1663 L252.4,1663 Z" fill="#a9714d"/><defs><filter id="a133s-sh" x="-30%" y="-30%" width="160%" height="160%"><feGaussianBlur stdDeviation="16"/></filter></defs><rect x="1206" y="294" width="616" height="756" fill="#000" opacity="0.28" filter="url(#a133s-sh)"/><rect x="1192" y="272" width="616" height="756" fill="#443a2d"/><rect x="1210.2" y="290.2" width="579.6" height="719.6" fill="none" stroke="#00000055" stroke-width="3"/><rect x="1220" y="300" width="560" height="700" fill="#f6f2ea"/><svg x="1262" y="342" width="476" height="616" viewBox="0 0 2400 3000" preserveAspectRatio="xMidYMid slice"><filter id="a133-warp" x="-4%" y="-4%" width="108%" height="108%"><feTurbulence type="fractalNoise" baseFrequency="0.0105" numOctaves="2" seed="5531" result="w"/><feDisplacementMap in="SourceGraphic" in2="w" scale="11" xChannelSelector="R" yChannelSelector="G"/></filter><filter id="a133-grain" x="0%" y="0%" width="100%" height="100%"><feTurbulence type="fractalNoise" baseFrequency="0.6" numOctaves="2" seed="5538"/><feColorMatrix type="matrix" values="0.33 0.33 0.33 0 0.62  0.33 0.33 0.33 0 0.62  0.33 0.33 0.33 0 0.62  0 0 0 0 1"/></filter><filter id="a133-mottle" x="0%" y="0%" width="100%" height="100%"><feTurbulence type="fractalNoise" baseFrequency="0.0045" numOctaves="3" seed="5544"/><feColorMatrix type="matrix" values="0.2 0.2 0.2 0 0.78  0.2 0.2 0.2 0 0.78  0.2 0.2 0.2 0 0.78  0 0 0 0 1"/></filter><filter id="a133-fade" x="0%" y="0%" width="100%" height="100%"><feTurbulence type="fractalNoise" baseFrequency="0.006" numOctaves="2" seed="5560"/><feColorMatrix type="matrix" values="0.3 0.3 0.3 0 -0.08  0.3 0.3 0.3 0 -0.08  0.3 0.3 0.3 0 -0.1  0 0 0 0 1"/></filter><filter id="a133-blur9"><feGaussianBlur stdDeviation="9"/></filter><radialGradient id="a133-vig" cx="50%" cy="44%" r="78%"><stop offset="52%" stop-color="#241a10" stop-opacity="0"/><stop offset="100%" stop-color="#241a10" stop-opacity="0.17"/></radialGradient><radialGradient id="a133-warm" cx="41%" cy="30%" r="85%"><stop offset="0%" stop-color="#e8c890" stop-opacity="0.14"/><stop offset="70%" stop-color="#e8c890" stop-opacity="0"/></radialGradient><rect width="2400" height="3000" fill="#d9c49a"/><rect width="2400" height="3000" fill="url(#a133-warm)"/><rect x="0" width="21.1" height="3000" fill="#6b4e26" opacity="0.055"/><rect x="29.3" width="31.9" height="3000" fill="#6b4e26" opacity="0.058"/><rect x="73.6" width="39.4" height="3000" fill="#6b4e26" opacity="0.058"/><rect x="128.3" width="40.6" height="3000" fill="#6b4e26" opacity="0.032"/><rect x="184.7" width="24.9" height="3000" fill="#6b4e26" opacity="0.040"/><rect x="219.2" width="21" height="3000" fill="#6b4e26" opacity="0.049"/><rect x="248.4" width="19.3" height="3000" fill="#6b4e26" opacity="0.060"/><rect x="275.2" width="30.6" height="3000" fill="#6b4e26" opacity="0.096"/><rect x="317.7" width="27.5" height="3000" fill="#6b4e26" opacity="0.035"/><rect x="355.9" width="33.3" height="3000" fill="#6b4e26" opacity="0.074"/><rect x="402.2" width="36.2" height="3000" fill="#6b4e26" opacity="0.077"/><rect x="452.5" width="37.1" height="3000" fill="#6b4e26" opacity="0.089"/><rect x="504" width="30.6" height="3000" fill="#6b4e26" opacity="0.060"/><rect x="546.5" width="38.5" height="3000" fill="#6b4e26" opacity="0.093"/><rect x="599.9" width="25.8" height="3000" fill="#6b4e26" opacity="0.031"/><rect x="635.8" width="32.7" height="3000" fill="#6b4e26" opacity="0.070"/><rect x="681.2" width="20.9" height="3000" fill="#6b4e26" opacity="0.070"/><rect x="710.3" width="42.4" height="3000" fill="#6b4e26" opacity="0.051"/><rect x="769.2" width="40.2" height="3000" fill="#6b4e26" opacity="0.087"/><rect x="825" width="40.7" height="3000" fill="#6b4e26" opacity="0.075"/><rect x="881.5" width="21.5" height="3000" fill="#6b4e26" opacity="0.096"/><rect x="911.4" width="38.6" height="3000" fill="#6b4e26" opacity="0.042"/><rect x="965" width="29.5" height="3000" fill="#6b4e26" opacity="0.089"/><rect x="1006" width="29.5" height="3000" fill="#6b4e26" opacity="0.067"/><rect x="1046.9" width="22.5" height="3000" fill="#6b4e26" opacity="0.091"/><rect x="1078.2" width="31.4" height="3000" fill="#6b4e26" opacity="0.035"/><rect x="1121.7" width="32" height="3000" fill="#6b4e26" opacity="0.070"/><rect x="1166.2" width="43.2" height="3000" fill="#6b4e26" opacity="0.076"/><rect x="1226.1" width="22.6" height="3000" fill="#6b4e26" opacity="0.084"/><rect x="1257.5" width="40.9" height="3000" fill="#6b4e26" opacity="0.064"/><rect x="1314.4" width="23.1" height="3000" fill="#6b4e26" opacity="0.100"/><rect x="1346.5" width="25.1" height="3000" fill="#6b4e26" opacity="0.043"/><rect x="1381.3" width="35.3" height="3000" fill="#6b4e26" opacity="0.056"/><rect x="1430.3" width="35.3" height="3000" fill="#6b4e26" opacity="0.086"/><rect x="1479.4" width="20.1" height="3000" fill="#6b4e26" opacity="0.071"/><rect x="1507.3" width="24.5" height="3000" fill="#6b4e26" opacity="0.062"/><rect x="1541.3" width="23.5" height="3000" fill="#6b4e26" opacity="0.070"/><rect x="1574" width="41.5" height="3000" fill="#6b4e26" opacity="0.049"/><rect x="1631.6" width="19.7" height="3000" fill="#6b4e26" opacity="0.051"/><rect x="1659" width="41.8" height="3000" fill="#6b4e26" opacity="0.049"/><rect x="1717.1" width="22.9" height="3000" fill="#6b4e26" opacity="0.040"/><rect x="1748.9" width="24.7" height="3000" fill="#6b4e26" opacity="0.049"/><rect x="1783.2" width="30.1" height="3000" fill="#6b4e26" opacity="0.042"/><rect x="1825.1" width="22.1" height="3000" fill="#6b4e26" opacity="0.088"/><rect x="1855.8" width="26.5" height="3000" fill="#6b4e26" opacity="0.072"/><rect x="1892.5" width="27.3" height="3000" fill="#6b4e26" opacity="0.100"/><rect x="1930.5" width="31.4" height="3000" fill="#6b4e26" opacity="0.038"/><rect x="1974.1" width="32.6" height="3000" fill="#6b4e26" opacity="0.031"/><rect x="2019.4" width="19.4" height="3000" fill="#6b4e26" opacity="0.046"/><rect x="2046.3" width="29.4" height="3000" fill="#6b4e26" opacity="0.097"/><rect x="2087.1" width="26.3" height="3000" fill="#6b4e26" opacity="0.077"/><rect x="2123.7" width="22.9" height="3000" fill="#6b4e26" opacity="0.037"/><rect x="2155.5" width="42.8" height="3000" fill="#6b4e26" opacity="0.041"/><rect x="2214.9" width="39.7" height="3000" fill="#6b4e26" opacity="0.055"/><rect x="2270.1" width="31.3" height="3000" fill="#6b4e26" opacity="0.050"/><rect x="2313.5" width="23.2" height="3000" fill="#6b4e26" opacity="0.036"/><rect x="2345.7" width="36.5" height="3000" fill="#6b4e26" opacity="0.051"/><rect x="2396.5" width="40.8" height="3000" fill="#6b4e26" opacity="0.099"/><rect y="0" width="2400" height="27.4" fill="#7c5c30" opacity="0.054"/><rect y="45.7" width="2400" height="21.9" fill="#7c5c30" opacity="0.042"/><rect y="82.3" width="2400" height="19.6" fill="#7c5c30" opacity="0.029"/><rect y="114.9" width="2400" height="24.9" fill="#7c5c30" opacity="0.059"/><rect y="156.3" width="2400" height="12.2" fill="#7c5c30" opacity="0.028"/><rect y="176.7" width="2400" height="13.4" fill="#7c5c30" opacity="0.022"/><rect y="199" width="2400" height="14.1" fill="#7c5c30" opacity="0.021"/><rect y="222.5" width="2400" height="20.3" fill="#7c5c30" opacity="0.032"/><rect y="256.4" width="2400" height="24.4" fill="#7c5c30" opacity="0.039"/><rect y="297" width="2400" height="12.3" fill="#7c5c30" opacity="0.059"/><rect y="317.6" width="2400" height="26.1" fill="#7c5c30" opacity="0.039"/><rect y="361" width="2400" height="15" fill="#7c5c30" opacity="0.059"/><rect y="386" width="2400" height="19.4" fill="#7c5c30" opacity="0.034"/><rect y="418.3" width="2400" height="19.5" fill="#7c5c30" opacity="0.051"/><rect y="450.8" width="2400" height="18.6" fill="#7c5c30" opacity="0.043"/><rect y="481.8" width="2400" height="13.3" fill="#7c5c30" opacity="0.030"/><rect y="504" width="2400" height="24.1" fill="#7c5c30" opacity="0.055"/><rect y="544.1" width="2400" height="21.9" fill="#7c5c30" opacity="0.052"/><rect y="580.7" width="2400" height="28.8" fill="#7c5c30" opacity="0.039"/><rect y="628.6" width="2400" height="17.2" fill="#7c5c30" opacity="0.055"/><rect y="657.4" width="2400" height="23.1" fill="#7c5c30" opacity="0.030"/><rect y="695.9" width="2400" height="17.2" fill="#7c5c30" opacity="0.038"/><rect y="724.7" width="2400" height="15.7" fill="#7c5c30" opacity="0.030"/><rect y="750.9" width="2400" height="24.9" fill="#7c5c30" opacity="0.024"/><rect y="792.4" width="2400" height="23.2" fill="#7c5c30" opacity="0.054"/><rect y="831" width="2400" height="12.6" fill="#7c5c30" opacity="0.028"/><rect y="852" width="2400" height="13.9" fill="#7c5c30" opacity="0.060"/><rect y="875.1" width="2400" height="24.6" fill="#7c5c30" opacity="0.044"/><rect y="916.1" width="2400" height="22" fill="#7c5c30" opacity="0.048"/><rect y="952.7" width="2400" height="13.1" fill="#7c5c30" opacity="0.027"/><rect y="974.5" width="2400" height="14.6" fill="#7c5c30" opacity="0.044"/><rect y="998.9" width="2400" height="27.5" fill="#7c5c30" opacity="0.042"/><rect y="1044.7" width="2400" height="16.5" fill="#7c5c30" opacity="0.045"/><rect y="1072.1" width="2400" height="24.2" fill="#7c5c30" opacity="0.038"/><rect y="1112.5" width="2400" height="26.4" fill="#7c5c30" opacity="0.040"/><rect y="1156.4" width="2400" height="14.3" fill="#7c5c30" opacity="0.040"/><rect y="1180.2" width="2400" height="13.1" fill="#7c5c30" opacity="0.053"/><rect y="1202" width="2400" height="24.6" fill="#7c5c30" opacity="0.035"/><rect y="1242.9" width="2400" height="23.5" fill="#7c5c30" opacity="0.042"/><rect y="1282.1" width="2400" height="15.6" fill="#7c5c30" opacity="0.035"/><rect y="1308" width="2400" height="23.3" fill="#7c5c30" opacity="0.031"/><rect y="1346.9" width="2400" height="17" fill="#7c5c30" opacity="0.044"/><rect y="1375.3" width="2400" height="20.5" fill="#7c5c30" opacity="0.060"/><rect y="1409.5" width="2400" height="18" fill="#7c5c30" opacity="0.022"/><rect y="1439.4" width="2400" height="22.5" fill="#7c5c30" opacity="0.023"/><rect y="1476.9" width="2400" height="18.5" fill="#7c5c30" opacity="0.033"/><rect y="1507.8" width="2400" height="24.4" fill="#7c5c30" opacity="0.056"/><rect y="1548.5" width="2400" height="13.1" fill="#7c5c30" opacity="0.036"/><rect y="1570.3" width="2400" height="16.1" fill="#7c5c30" opacity="0.054"/><rect y="1597.2" width="2400" height="15.2" fill="#7c5c30" opacity="0.024"/><rect y="1622.5" width="2400" height="22.6" fill="#7c5c30" opacity="0.031"/><rect y="1660.2" width="2400" height="28" fill="#7c5c30" opacity="0.035"/><rect y="1706.8" width="2400" height="20.8" fill="#7c5c30" opacity="0.027"/><rect y="1741.5" width="2400" height="17.6" fill="#7c5c30" opacity="0.049"/><rect y="1770.8" width="2400" height="20.6" fill="#7c5c30" opacity="0.034"/><rect y="1805.2" width="2400" height="27.7" fill="#7c5c30" opacity="0.045"/><rect y="1851.4" width="2400" height="12.8" fill="#7c5c30" opacity="0.056"/><rect y="1872.7" width="2400" height="23" fill="#7c5c30" opacity="0.041"/><rect y="1911.1" width="2400" height="13.7" fill="#7c5c30" opacity="0.046"/><rect y="1934" width="2400" height="18.4" fill="#7c5c30" opacity="0.046"/><rect y="1964.7" width="2400" height="13.5" fill="#7c5c30" opacity="0.058"/><rect y="1987.1" width="2400" height="23.8" fill="#7c5c30" opacity="0.047"/><rect y="2026.8" width="2400" height="18.1" fill="#7c5c30" opacity="0.034"/><rect y="2057" width="2400" height="22.1" fill="#7c5c30" opacity="0.038"/><rect y="2093.8" width="2400" height="23" fill="#7c5c30" opacity="0.059"/><rect y="2132.2" width="2400" height="24.3" fill="#7c5c30" opacity="0.054"/><rect y="2172.7" width="2400" height="13.7" fill="#7c5c30" opacity="0.031"/><rect y="2195.6" width="2400" height="20.1" fill="#7c5c30" opacity="0.045"/><rect y="2229.1" width="2400" height="12.9" fill="#7c5c30" opacity="0.055"/><rect y="2250.6" width="2400" height="19.6" fill="#7c5c30" opacity="0.032"/><rect y="2283.2" width="2400" height="13.9" fill="#7c5c30" opacity="0.044"/><rect y="2306.3" width="2400" height="18.1" fill="#7c5c30" opacity="0.029"/><rect y="2336.5" width="2400" height="25.9" fill="#7c5c30" opacity="0.052"/><rect y="2379.7" width="2400" height="16.2" fill="#7c5c30" opacity="0.052"/><rect y="2406.7" width="2400" height="17.5" fill="#7c5c30" opacity="0.031"/><rect y="2435.8" width="2400" height="15.8" fill="#7c5c30" opacity="0.031"/><rect y="2462.2" width="2400" height="14.8" fill="#7c5c30" opacity="0.048"/><rect y="2486.8" width="2400" height="25.6" fill="#7c5c30" opacity="0.037"/><rect y="2529.4" width="2400" height="20.8" fill="#7c5c30" opacity="0.025"/><rect y="2564.1" width="2400" height="17.9" fill="#7c5c30" opacity="0.054"/><rect y="2593.8" width="2400" height="17.2" fill="#7c5c30" opacity="0.054"/><rect y="2622.5" width="2400" height="27.5" fill="#7c5c30" opacity="0.037"/><rect y="2668.3" width="2400" height="17.1" fill="#7c5c30" opacity="0.043"/><rect y="2696.9" width="2400" height="22.7" fill="#7c5c30" opacity="0.021"/><rect y="2734.7" width="2400" height="26.6" fill="#7c5c30" opacity="0.031"/><rect y="2779" width="2400" height="14.3" fill="#7c5c30" opacity="0.056"/><rect y="2802.9" width="2400" height="21.4" fill="#7c5c30" opacity="0.038"/><rect y="2838.6" width="2400" height="20.7" fill="#7c5c30" opacity="0.044"/><rect y="2873" width="2400" height="23.7" fill="#7c5c30" opacity="0.038"/><rect y="2912.5" width="2400" height="18.8" fill="#7c5c30" opacity="0.039"/><rect y="2943.7" width="2400" height="17.1" fill="#7c5c30" opacity="0.055"/><rect y="2972.3" width="2400" height="15.2" fill="#7c5c30" opacity="0.052"/><rect y="2997.6" width="2400" height="16.7" fill="#7c5c30" opacity="0.053"/><g filter="url(#a133-warp)"><rect x="200" y="170" width="2000" height="14.5" fill="#2c2820"/><rect x="200" y="184" width="2000" height="14.5" fill="#a8502f"/><rect x="200" y="198" width="2000" height="14.5" fill="#2c2820"/><rect x="200" y="212" width="2000" height="14.5" fill="#b8a276"/><rect x="200" y="226" width="2000" height="14.5" fill="#2c2820"/><rect x="200" y="2760" width="2000" height="14.5" fill="#2c2820"/><rect x="200" y="2774" width="2000" height="14.5" fill="#a8502f"/><rect x="200" y="2788" width="2000" height="14.5" fill="#2c2820"/><rect x="200" y="2802" width="2000" height="14.5" fill="#b8a276"/><rect x="200" y="2816" width="2000" height="14.5" fill="#2c2820"/><circle cx="1200" cy="1030" r="150" fill="#a8502f"/><circle cx="1200" cy="1030" r="196" fill="none" stroke="#a8502f" stroke-width="10"/><line x1="1110" y1="1540" x2="357.4" y2="1481.8" stroke="#2c2820" stroke-width="34" stroke-linecap="round"/><line x1="1110" y1="1540" x2="383.2" y2="1417.8" stroke="#2c2820" stroke-width="34" stroke-linecap="round"/><line x1="1110" y1="1540" x2="426.9" y2="1356.8" stroke="#2c2820" stroke-width="34" stroke-linecap="round"/><line x1="1110" y1="1540" x2="487.4" y2="1300.2" stroke="#2c2820" stroke-width="34" stroke-linecap="round"/><line x1="1110" y1="1540" x2="563.3" y2="1249.6" stroke="#2c2820" stroke-width="34" stroke-linecap="round"/><line x1="1110" y1="1540" x2="652.6" y2="1206.2" stroke="#2c2820" stroke-width="34" stroke-linecap="round"/><line x1="1110" y1="1540" x2="753.2" y2="1170.9" stroke="#2c2820" stroke-width="34" stroke-linecap="round"/><line x1="1110" y1="1540" x2="862.6" y2="1144.8" stroke="#2c2820" stroke-width="34" stroke-linecap="round"/><line x1="1110" y1="1540" x2="978" y2="1128.4" stroke="#2c2820" stroke-width="34" stroke-linecap="round"/><line x1="1110" y1="1540" x2="515.8" y2="1494.1" stroke="#a8502f" stroke-width="30" stroke-linecap="round"/><line x1="1110" y1="1540" x2="536.2" y2="1443.5" stroke="#a8502f" stroke-width="30" stroke-linecap="round"/><line x1="1110" y1="1540" x2="570.7" y2="1395.3" stroke="#a8502f" stroke-width="30" stroke-linecap="round"/><line x1="1110" y1="1540" x2="618.5" y2="1350.7" stroke="#a8502f" stroke-width="30" stroke-linecap="round"/><line x1="1110" y1="1540" x2="678.4" y2="1310.8" stroke="#a8502f" stroke-width="30" stroke-linecap="round"/><line x1="1110" y1="1540" x2="748.9" y2="1276.5" stroke="#a8502f" stroke-width="30" stroke-linecap="round"/><line x1="1110" y1="1540" x2="828.3" y2="1248.6" stroke="#a8502f" stroke-width="30" stroke-linecap="round"/><line x1="1110" y1="1540" x2="914.7" y2="1228" stroke="#a8502f" stroke-width="30" stroke-linecap="round"/><line x1="1110" y1="1540" x2="1005.8" y2="1215" stroke="#a8502f" stroke-width="30" stroke-linecap="round"/><line x1="1110" y1="1540" x2="664.4" y2="1505.6" stroke="#2c2820" stroke-width="26" stroke-linecap="round"/><line x1="1110" y1="1540" x2="679.7" y2="1467.6" stroke="#2c2820" stroke-width="26" stroke-linecap="round"/><line x1="1110" y1="1540" x2="705.5" y2="1431.5" stroke="#2c2820" stroke-width="26" stroke-linecap="round"/><line x1="1110" y1="1540" x2="741.4" y2="1398" stroke="#2c2820" stroke-width="26" stroke-linecap="round"/><line x1="1110" y1="1540" x2="786.3" y2="1368.1" stroke="#2c2820" stroke-width="26" stroke-linecap="round"/><line x1="1110" y1="1540" x2="839.2" y2="1342.3" stroke="#2c2820" stroke-width="26" stroke-linecap="round"/><line x1="1110" y1="1540" x2="898.7" y2="1321.5" stroke="#2c2820" stroke-width="26" stroke-linecap="round"/><line x1="1110" y1="1540" x2="963.5" y2="1306" stroke="#2c2820" stroke-width="26" stroke-linecap="round"/><line x1="1110" y1="1540" x2="1031.9" y2="1296.3" stroke="#2c2820" stroke-width="26" stroke-linecap="round"/><line x1="1290" y1="1540" x2="2042.6" y2="1481.8" stroke="#2c2820" stroke-width="34" stroke-linecap="round"/><line x1="1290" y1="1540" x2="2016.8" y2="1417.8" stroke="#2c2820" stroke-width="34" stroke-linecap="round"/><line x1="1290" y1="1540" x2="1973.1" y2="1356.8" stroke="#2c2820" stroke-width="34" stroke-linecap="round"/><line x1="1290" y1="1540" x2="1912.6" y2="1300.2" stroke="#2c2820" stroke-width="34" stroke-linecap="round"/><line x1="1290" y1="1540" x2="1836.7" y2="1249.6" stroke="#2c2820" stroke-width="34" stroke-linecap="round"/><line x1="1290" y1="1540" x2="1747.4" y2="1206.2" stroke="#2c2820" stroke-width="34" stroke-linecap="round"/><line x1="1290" y1="1540" x2="1646.8" y2="1170.9" stroke="#2c2820" stroke-width="34" stroke-linecap="round"/><line x1="1290" y1="1540" x2="1537.4" y2="1144.8" stroke="#2c2820" stroke-width="34" stroke-linecap="round"/><line x1="1290" y1="1540" x2="1422" y2="1128.4" stroke="#2c2820" stroke-width="34" stroke-linecap="round"/><line x1="1290" y1="1540" x2="1884.2" y2="1494.1" stroke="#a8502f" stroke-width="30" stroke-linecap="round"/><line x1="1290" y1="1540" x2="1863.8" y2="1443.5" stroke="#a8502f" stroke-width="30" stroke-linecap="round"/><line x1="1290" y1="1540" x2="1829.3" y2="1395.3" stroke="#a8502f" stroke-width="30" stroke-linecap="round"/><line x1="1290" y1="1540" x2="1781.5" y2="1350.7" stroke="#a8502f" stroke-width="30" stroke-linecap="round"/><line x1="1290" y1="1540" x2="1721.6" y2="1310.8" stroke="#a8502f" stroke-width="30" stroke-linecap="round"/><line x1="1290" y1="1540" x2="1651.1" y2="1276.5" stroke="#a8502f" stroke-width="30" stroke-linecap="round"/><line x1="1290" y1="1540" x2="1571.7" y2="1248.6" stroke="#a8502f" stroke-width="30" stroke-linecap="round"/><line x1="1290" y1="1540" x2="1485.3" y2="1228" stroke="#a8502f" stroke-width="30" stroke-linecap="round"/><line x1="1290" y1="1540" x2="1394.2" y2="1215" stroke="#a8502f" stroke-width="30" stroke-linecap="round"/><line x1="1290" y1="1540" x2="1735.6" y2="1505.6" stroke="#2c2820" stroke-width="26" stroke-linecap="round"/><line x1="1290" y1="1540" x2="1720.3" y2="1467.6" stroke="#2c2820" stroke-width="26" stroke-linecap="round"/><line x1="1290" y1="1540" x2="1694.5" y2="1431.5" stroke="#2c2820" stroke-width="26" stroke-linecap="round"/><line x1="1290" y1="1540" x2="1658.6" y2="1398" stroke="#2c2820" stroke-width="26" stroke-linecap="round"/><line x1="1290" y1="1540" x2="1613.7" y2="1368.1" stroke="#2c2820" stroke-width="26" stroke-linecap="round"/><line x1="1290" y1="1540" x2="1560.8" y2="1342.3" stroke="#2c2820" stroke-width="26" stroke-linecap="round"/><line x1="1290" y1="1540" x2="1501.3" y2="1321.5" stroke="#2c2820" stroke-width="26" stroke-linecap="round"/><line x1="1290" y1="1540" x2="1436.5" y2="1306" stroke="#2c2820" stroke-width="26" stroke-linecap="round"/><line x1="1290" y1="1540" x2="1368.1" y2="1296.3" stroke="#2c2820" stroke-width="26" stroke-linecap="round"/><path d="M1080,1500 q -150,-60 -210,-150" fill="none" stroke="#2c2820" stroke-width="26" stroke-linecap="round"/><path d="M1035,1660 q -190,20 -260,-40" fill="none" stroke="#2c2820" stroke-width="26" stroke-linecap="round"/><path d="M1070,1810 q -150,90 -230,80" fill="none" stroke="#2c2820" stroke-width="26" stroke-linecap="round"/><path d="M1320,1500 q 150,-60 210,-150" fill="none" stroke="#2c2820" stroke-width="26" stroke-linecap="round"/><path d="M1365,1660 q 190,20 260,-40" fill="none" stroke="#2c2820" stroke-width="26" stroke-linecap="round"/><path d="M1330,1810 q 150,90 230,80" fill="none" stroke="#2c2820" stroke-width="26" stroke-linecap="round"/><ellipse cx="1200" cy="1660" rx="180" ry="240" fill="#2c2820"/><line x1="1200" y1="1540" x2="1200" y2="1896" stroke="#d9c49a" stroke-width="9" opacity="0.7"/><path d="M1028,1552 Q 1200,1630 1372,1552" fill="none" stroke="#d9c49a" stroke-width="9" opacity="0.7"/><path d="M1080,1450 A 130,130 0 0 1 1320,1450 L1278,1495 L1122,1495 Z" fill="#2c2820"/><line x1="1112" y1="1392" x2="1084" y2="1338" stroke="#2c2820" stroke-width="16" stroke-linecap="round"/><line x1="1156" y1="1392" x2="1142" y2="1338" stroke="#2c2820" stroke-width="16" stroke-linecap="round"/><line x1="1200" y1="1392" x2="1200" y2="1338" stroke="#2c2820" stroke-width="16" stroke-linecap="round"/><line x1="1244" y1="1392" x2="1258" y2="1338" stroke="#2c2820" stroke-width="16" stroke-linecap="round"/><line x1="1288" y1="1392" x2="1316" y2="1338" stroke="#2c2820" stroke-width="16" stroke-linecap="round"/><path d="M780,1990 Q 1200,2160 1620,1990 L1560,1990 Q 1200,2090 840,1990 Z" fill="#a8502f"/><rect x="120" y="120" width="2160" height="2760" fill="none" stroke="#2c2820" stroke-width="6" opacity="0.85"/></g><rect width="2400" height="3000" filter="url(#a133-mottle)" style="mix-blend-mode:multiply" opacity="0.5"/><rect width="2400" height="3000" filter="url(#a133-fade)" style="mix-blend-mode:screen" opacity="0.55"/><rect width="2400" height="3000" filter="url(#a133-grain)" style="mix-blend-mode:multiply" opacity="0.32"/><ellipse cx="1505.1" cy="2341.6" rx="312.4" ry="279.7" fill="#6b4a22" opacity="0.067" filter="url(#a133-blur9)"/><ellipse cx="590.9" cy="2803.3" rx="156.8" ry="120.6" fill="#6b4a22" opacity="0.038" filter="url(#a133-blur9)"/><ellipse cx="1007.1" cy="343.3" rx="148" ry="106.1" fill="#6b4a22" opacity="0.025" filter="url(#a133-blur9)"/><ellipse cx="459.9" cy="2288.1" rx="163.2" ry="170.4" fill="#6b4a22" opacity="0.027" filter="url(#a133-blur9)"/><rect x="0" width="31.4" height="3000" fill="#fff2d0" opacity="0.027"/><rect x="62.7" width="25.2" height="3000" fill="#fff2d0" opacity="0.040"/><rect x="113" width="19.7" height="3000" fill="#fff2d0" opacity="0.026"/><rect x="152.5" width="20.2" height="3000" fill="#fff2d0" opacity="0.016"/><rect x="192.9" width="30.7" height="3000" fill="#fff2d0" opacity="0.031"/><rect x="254.3" width="25.4" height="3000" fill="#fff2d0" opacity="0.030"/><rect x="305.1" width="23.3" height="3000" fill="#fff2d0" opacity="0.044"/><rect x="351.6" width="21.9" height="3000" fill="#fff2d0" opacity="0.025"/><rect x="395.5" width="20.8" height="3000" fill="#fff2d0" opacity="0.024"/><rect x="437.1" width="26.5" height="3000" fill="#fff2d0" opacity="0.031"/><rect x="490" width="28.2" height="3000" fill="#fff2d0" opacity="0.032"/><rect x="546.5" width="32.4" height="3000" fill="#fff2d0" opacity="0.021"/><rect x="611.3" width="26.1" height="3000" fill="#fff2d0" opacity="0.037"/><rect x="663.4" width="16.6" height="3000" fill="#fff2d0" opacity="0.019"/><rect x="696.6" width="20.2" height="3000" fill="#fff2d0" opacity="0.034"/><rect x="736.9" width="16.7" height="3000" fill="#fff2d0" opacity="0.025"/><rect x="770.2" width="22.6" height="3000" fill="#fff2d0" opacity="0.029"/><rect x="815.5" width="16.2" height="3000" fill="#fff2d0" opacity="0.021"/><rect x="848" width="22.2" height="3000" fill="#fff2d0" opacity="0.036"/><rect x="892.3" width="16.8" height="3000" fill="#fff2d0" opacity="0.038"/><rect x="925.9" width="21.8" height="3000" fill="#fff2d0" opacity="0.036"/><rect x="969.5" width="22" height="3000" fill="#fff2d0" opacity="0.032"/><rect x="1013.6" width="30.1" height="3000" fill="#fff2d0" opacity="0.030"/><rect x="1073.8" width="15" height="3000" fill="#fff2d0" opacity="0.041"/><rect x="1103.8" width="34.5" height="3000" fill="#fff2d0" opacity="0.039"/><rect x="1172.9" width="15.2" height="3000" fill="#fff2d0" opacity="0.032"/><rect x="1203.4" width="16.1" height="3000" fill="#fff2d0" opacity="0.029"/><rect x="1235.5" width="24.9" height="3000" fill="#fff2d0" opacity="0.018"/><rect x="1285.3" width="23.6" height="3000" fill="#fff2d0" opacity="0.018"/><rect x="1332.5" width="26.1" height="3000" fill="#fff2d0" opacity="0.041"/><rect x="1384.7" width="32" height="3000" fill="#fff2d0" opacity="0.033"/><rect x="1448.6" width="34.3" height="3000" fill="#fff2d0" opacity="0.027"/><rect x="1517.2" width="23.1" height="3000" fill="#fff2d0" opacity="0.040"/><rect x="1563.3" width="29.4" height="3000" fill="#fff2d0" opacity="0.042"/><rect x="1622.1" width="17.1" height="3000" fill="#fff2d0" opacity="0.015"/><rect x="1656.2" width="34.1" height="3000" fill="#fff2d0" opacity="0.037"/><rect x="1724.4" width="15.8" height="3000" fill="#fff2d0" opacity="0.019"/><rect x="1756" width="17.3" height="3000" fill="#fff2d0" opacity="0.044"/><rect x="1790.6" width="20" height="3000" fill="#fff2d0" opacity="0.037"/><rect x="1830.6" width="21.9" height="3000" fill="#fff2d0" opacity="0.020"/><rect x="1874.4" width="22.9" height="3000" fill="#fff2d0" opacity="0.044"/><rect x="1920.2" width="19.4" height="3000" fill="#fff2d0" opacity="0.043"/><rect x="1959" width="19.5" height="3000" fill="#fff2d0" opacity="0.031"/><rect x="1998.1" width="24.8" height="3000" fill="#fff2d0" opacity="0.039"/><rect x="2047.7" width="30" height="3000" fill="#fff2d0" opacity="0.033"/><rect x="2107.7" width="20.8" height="3000" fill="#fff2d0" opacity="0.021"/><rect x="2149.3" width="26.3" height="3000" fill="#fff2d0" opacity="0.033"/><rect x="2201.9" width="20.4" height="3000" fill="#fff2d0" opacity="0.044"/><rect x="2242.6" width="26" height="3000" fill="#fff2d0" opacity="0.029"/><rect x="2294.6" width="26.2" height="3000" fill="#fff2d0" opacity="0.039"/><rect x="2347" width="25.8" height="3000" fill="#fff2d0" opacity="0.042"/><rect x="2398.6" width="24.6" height="3000" fill="#fff2d0" opacity="0.035"/><linearGradient id="a133-er" x1="0" x2="1" y1="0" y2="0"><stop offset="0" stop-color="#3a2a12" stop-opacity="0.22"/><stop offset="1" stop-color="#3a2a12" stop-opacity="0"/></linearGradient><rect x="0" y="0" width="90" height="3000" fill="url(#a133-er)"/><linearGradient id="a133-el" x1="1" x2="0" y1="0" y2="0"><stop offset="0" stop-color="#3a2a12" stop-opacity="0.22"/><stop offset="1" stop-color="#3a2a12" stop-opacity="0"/></linearGradient><rect x="2310" y="0" width="90" height="3000" fill="url(#a133-el)"/><linearGradient id="a133-ed" x1="0" x2="0" y1="0" y2="1"><stop offset="0" stop-color="#3a2a12" stop-opacity="0.22"/><stop offset="1" stop-color="#3a2a12" stop-opacity="0"/></linearGradient><rect x="0" y="0" width="2400" height="90" fill="url(#a133-ed)"/><linearGradient id="a133-eu" x1="0" x2="0" y1="1" y2="0"><stop offset="0" stop-color="#3a2a12" stop-opacity="0.22"/><stop offset="1" stop-color="#3a2a12" stop-opacity="0"/></linearGradient><rect x="0" y="2910" width="2400" height="90" fill="url(#a133-eu)"/><circle cx="840.6" cy="1350.2" r="11.5" fill="#8a5a2e" opacity="0.126"/><circle cx="1672.4" cy="1255.7" r="3.3" fill="#8a5a2e" opacity="0.041"/><circle cx="599.4" cy="504.4" r="5.2" fill="#8a5a2e" opacity="0.102"/><circle cx="2005.2" cy="2408.1" r="5.4" fill="#8a5a2e" opacity="0.046"/><circle cx="1334.8" cy="608.3" r="13.8" fill="#8a5a2e" opacity="0.103"/><circle cx="1561.2" cy="2912.8" r="6.1" fill="#8a5a2e" opacity="0.050"/><circle cx="122.3" cy="2121.4" r="15.9" fill="#8a5a2e" opacity="0.050"/><circle cx="576.9" cy="2654.2" r="7.2" fill="#8a5a2e" opacity="0.090"/><circle cx="1671.8" cy="406.7" r="5.8" fill="#8a5a2e" opacity="0.087"/><circle cx="1867" cy="635.8" r="10.5" fill="#8a5a2e" opacity="0.080"/><circle cx="1978.6" cy="1010.3" r="13" fill="#8a5a2e" opacity="0.093"/><rect width="2400" height="3000" fill="url(#a133-vig)"/></svg></svg>