<svg xmlns="http://www.w3.org/2000/svg" width="2400" height="1800" viewBox="0 0 2400 1800"><rect width="2400" height="1800" fill="#dfe4dc"/><rect y="1400" width="2400" height="400" fill="#c2a67e"/><line x1="60" y1="1400" x2="10" y2="1800" stroke="#00000015" stroke-width="5"/><line x1="260" y1="1400" x2="210" y2="1800" stroke="#00000015" stroke-width="5"/><line x1="460" y1="1400" x2="410" y2="1800" stroke="#00000015" stroke-width="5"/><line x1="660" y1="1400" x2="610" y2="1800" stroke="#00000015" stroke-width="5"/><line x1="860" y1="1400" x2="810" y2="1800" stroke="#00000015" stroke-width="5"/><line x1="1060" y1="1400" x2="1010" y2="1800" stroke="#00000015" stroke-width="5"/><line x1="1260" y1="1400" x2="1210" y2="1800" stroke="#00000015" stroke-width="5"/><line x1="1460" y1="1400" x2="1410" y2="1800" stroke="#00000015" stroke-width="5"/><line x1="1660" y1="1400" x2="1610" y2="1800" stroke="#00000015" stroke-width="5"/><line x1="1860" y1="1400" x2="1810" y2="1800" stroke="#00000015" stroke-width="5"/><line x1="2060" y1="1400" x2="2010" y2="1800" stroke="#00000015" stroke-width="5"/><line x1="2260" y1="1400" x2="2210" y2="1800" stroke="#00000015" stroke-width="5"/><rect x="180" y="260" width="900" height="620" fill="#8a6a48"/><rect x="215" y="295" width="830" height="550" fill="#41524a"/><line x1="280" y1="420" x2="760" y2="420" stroke="#ffffff66" stroke-width="9" stroke-linecap="round"/><line x1="280" y1="520" x2="620" y2="520" stroke="#ffffff44" stroke-width="9" stroke-linecap="round"/><circle cx="880" cy="560" r="90" fill="none" stroke="#ffffff55" stroke-width="8"/><rect x="215" y="845" width="830" height="22" fill="#6f5436"/><rect x="330" y="1240" width="640" height="60" rx="10" fill="#9c7449"/><rect x="370" y="1300" width="60" height="240" fill="#8a6540"/><rect x="870" y="1300" width="60" height="240" fill="#8a6540"/><rect x="430" y="1160" width="150" height="80" rx="8" fill="#8a5a33"/><rect x="450" y="1120" width="150" height="40" rx="8" fill="#ab946c"/><circle cx="800" cy="1130" r="86" fill="#7fa3b8"/><path d="M760,1060 Q820,1100 780,1190 M740,1090 Q800,1120 850,1100" stroke="#5d8069" stroke-width="16" fill="none" stroke-linecap="round"/><circle cx="800" cy="1130" r="86" fill="none" stroke="#6b5233" stroke-width="7"/><line x1="800" y1="1216" x2="800" y2="1250" stroke="#6b5233" stroke-width="10"/><rect x="750" y="1244" width="100" height="14" rx="7" fill="#6b5233"/><rect x="1980" y="700" width="300" height="800" fill="#9c7449"/><rect x="2000" y="930" width="260" height="16" fill="#7c5a37"/><rect x="2020" y="790" width="36" height="140" fill="#b3502f"/><rect x="2066" y="802" width="36" height="128" fill="#39685c"/><rect x="2112" y="790" width="36" height="140" fill="#c9a227"/><rect x="2158" y="802" width="36" height="128" fill="#2c4661"/><rect x="2204" y="790" width="36" height="140" fill="#8a4423"/><rect x="2000" y="1180" width="260" height="16" fill="#7c5a37"/><rect x="2020" y="1040" width="36" height="140" fill="#39685c"/><rect x="2066" y="1052" width="36" height="128" fill="#c9a227"/><rect x="2112" y="1040" width="36" height="140" fill="#2c4661"/><rect x="2158" y="1052" width="36" height="128" fill="#8a4423"/><rect x="2204" y="1040" width="36" height="140" fill="#b3502f"/><rect x="2000" y="1430" width="260" height="16" fill="#7c5a37"/><rect x="2020" y="1290" width="36" height="140" fill="#c9a227"/><rect x="2066" y="1302" width="36" height="128" fill="#2c4661"/><rect x="2112" y="1290" width="36" height="140" fill="#8a4423"/><rect x="2158" y="1302" width="36" height="128" fill="#b3502f"/><rect x="2204" y="1290" width="36" height="140" fill="#39685c"/><defs><filter id="a113c-sh" x="-30%" y="-30%" width="160%" height="160%"><feGaussianBlur stdDeviation="16"/></filter></defs><rect x="1340.5" y="298.5" width="517" height="635" fill="#000" opacity="0.28" filter="url(#a113c-sh)"/><rect x="1326.5" y="276.5" width="517" height="635" fill="#3d342a"/><rect x="1341.8" y="291.8" width="486.4" height="604.5" fill="none" stroke="#00000055" stroke-width="3"/><rect x="1350" y="300" width="470" height="588" fill="#f6f2ea"/><svg x="1385.3" y="335.3" width="399.5" height="517.5" viewBox="0 0 2400 3000" preserveAspectRatio="xMidYMid slice"><filter id="a113-warp" x="-4%" y="-4%" width="108%" height="108%"><feTurbulence type="fractalNoise" baseFrequency="0.0105" numOctaves="2" seed="2271" result="w"/><feDisplacementMap in="SourceGraphic" in2="w" scale="7" xChannelSelector="R" yChannelSelector="G"/></filter><filter id="a113-grain" x="0%" y="0%" width="100%" height="100%"><feTurbulence type="fractalNoise" baseFrequency="0.6" numOctaves="2" seed="2278"/><feColorMatrix type="matrix" values="0.33 0.33 0.33 0 0.62  0.33 0.33 0.33 0 0.62  0.33 0.33 0.33 0 0.62  0 0 0 0 1"/></filter><filter id="a113-mottle" x="0%" y="0%" width="100%" height="100%"><feTurbulence type="fractalNoise" baseFrequency="0.0045" numOctaves="3" seed="2284"/><feColorMatrix type="matrix" values="0.2 0.2 0.2 0 0.78  0.2 0.2 0.2 0 0.78  0.2 0.2 0.2 0 0.78  0 0 0 0 1"/></filter><filter id="a113-fade" x="0%" y="0%" width="100%" height="100%"><feTurbulence type="fractalNoise" baseFrequency="0.006" numOctaves="2" seed="2300"/><feColorMatrix type="matrix" values="0.3 0.3 0.3 0 -0.08  0.3 0.3 0.3 0 -0.08  0.3 0.3 0.3 0 -0.1  0 0 0 0 1"/></filter><filter id="a113-blur9"><feGaussianBlur stdDeviation="9"/></filter><radialGradient id="a113-vig" cx="50%" cy="44%" r="78%"><stop offset="52%" stop-color="#241a10" stop-opacity="0"/><stop offset="100%" stop-color="#241a10" stop-opacity="0.17"/></radialGradient><radialGradient id="a113-warm" cx="61%" cy="30%" r="85%"><stop offset="0%" stop-color="#e8c890" stop-opacity="0.14"/><stop offset="70%" stop-color="#e8c890" stop-opacity="0"/></radialGradient><rect width="2400" height="3000" fill="#e2d4b4"/><rect width="2400" height="3000" fill="url(#a113-warm)"/><g filter="url(#a113-warp)"><circle cx="1200" cy="1400" r="1010" fill="none" stroke="#433320" stroke-width="10"/><circle cx="1200" cy="1400" r="964" fill="none" stroke="#433320" stroke-width="4" opacity="0.7"/><line x1="2170" y1="1400" x2="2210" y2="1400" stroke="#433320" stroke-width="10"/><line x1="2182.2" y1="1485.9" x2="2206.2" y2="1488" stroke="#433320" stroke-width="5"/><line x1="2171" y1="1571.2" x2="2194.7" y2="1575.4" stroke="#433320" stroke-width="5"/><line x1="2152.4" y1="1655.2" x2="2175.6" y2="1661.4" stroke="#433320" stroke-width="5"/><line x1="2126.5" y1="1737.2" x2="2149.1" y2="1745.4" stroke="#433320" stroke-width="5"/><line x1="2093.6" y1="1816.7" x2="2115.4" y2="1826.8" stroke="#433320" stroke-width="5"/><line x1="2040" y1="1885" x2="2074.7" y2="1905" stroke="#433320" stroke-width="10"/><line x1="2007.7" y1="1965.5" x2="2027.3" y2="1979.3" stroke="#433320" stroke-width="5"/><line x1="1955.3" y1="2033.8" x2="1973.7" y2="2049.2" stroke="#433320" stroke-width="5"/><line x1="1897.2" y1="2097.2" x2="1914.2" y2="2114.2" stroke="#433320" stroke-width="5"/><line x1="1833.8" y1="2155.3" x2="1849.2" y2="2173.7" stroke="#433320" stroke-width="5"/><line x1="1765.5" y1="2207.7" x2="1779.3" y2="2227.3" stroke="#433320" stroke-width="5"/><line x1="1685" y1="2240" x2="1705" y2="2274.7" stroke="#433320" stroke-width="10"/><line x1="1616.7" y1="2293.6" x2="1626.8" y2="2315.4" stroke="#433320" stroke-width="5"/><line x1="1537.2" y1="2326.5" x2="1545.4" y2="2349.1" stroke="#433320" stroke-width="5"/><line x1="1455.2" y1="2352.4" x2="1461.4" y2="2375.6" stroke="#433320" stroke-width="5"/><line x1="1371.2" y1="2371" x2="1375.4" y2="2394.7" stroke="#433320" stroke-width="5"/><line x1="1285.9" y1="2382.2" x2="1288" y2="2406.2" stroke="#433320" stroke-width="5"/><line x1="1200" y1="2370" x2="1200" y2="2410" stroke="#433320" stroke-width="10"/><line x1="1114.1" y1="2382.2" x2="1112" y2="2406.2" stroke="#433320" stroke-width="5"/><line x1="1028.8" y1="2371" x2="1024.6" y2="2394.7" stroke="#433320" stroke-width="5"/><line x1="944.8" y1="2352.4" x2="938.6" y2="2375.6" stroke="#433320" stroke-width="5"/><line x1="862.8" y1="2326.5" x2="854.6" y2="2349.1" stroke="#433320" stroke-width="5"/><line x1="783.3" y1="2293.6" x2="773.2" y2="2315.4" stroke="#433320" stroke-width="5"/><line x1="715" y1="2240" x2="695" y2="2274.7" stroke="#433320" stroke-width="10"/><line x1="634.5" y1="2207.7" x2="620.7" y2="2227.3" stroke="#433320" stroke-width="5"/><line x1="566.2" y1="2155.3" x2="550.8" y2="2173.7" stroke="#433320" stroke-width="5"/><line x1="502.8" y1="2097.2" x2="485.8" y2="2114.2" stroke="#433320" stroke-width="5"/><line x1="444.7" y1="2033.8" x2="426.3" y2="2049.2" stroke="#433320" stroke-width="5"/><line x1="392.3" y1="1965.5" x2="372.7" y2="1979.3" stroke="#433320" stroke-width="5"/><line x1="360" y1="1885" x2="325.3" y2="1905" stroke="#433320" stroke-width="10"/><line x1="306.4" y1="1816.7" x2="284.6" y2="1826.8" stroke="#433320" stroke-width="5"/><line x1="273.5" y1="1737.2" x2="250.9" y2="1745.4" stroke="#433320" stroke-width="5"/><line x1="247.6" y1="1655.2" x2="224.4" y2="1661.4" stroke="#433320" stroke-width="5"/><line x1="229" y1="1571.2" x2="205.3" y2="1575.4" stroke="#433320" stroke-width="5"/><line x1="217.8" y1="1485.9" x2="193.8" y2="1488" stroke="#433320" stroke-width="5"/><line x1="230" y1="1400" x2="190" y2="1400" stroke="#433320" stroke-width="10"/><line x1="217.8" y1="1314.1" x2="193.8" y2="1312" stroke="#433320" stroke-width="5"/><line x1="229" y1="1228.8" x2="205.3" y2="1224.6" stroke="#433320" stroke-width="5"/><line x1="247.6" y1="1144.8" x2="224.4" y2="1138.6" stroke="#433320" stroke-width="5"/><line x1="273.5" y1="1062.8" x2="250.9" y2="1054.6" stroke="#433320" stroke-width="5"/><line x1="306.4" y1="983.3" x2="284.6" y2="973.2" stroke="#433320" stroke-width="5"/><line x1="360" y1="915" x2="325.3" y2="895" stroke="#433320" stroke-width="10"/><line x1="392.3" y1="834.5" x2="372.7" y2="820.7" stroke="#433320" stroke-width="5"/><line x1="444.7" y1="766.2" x2="426.3" y2="750.8" stroke="#433320" stroke-width="5"/><line x1="502.8" y1="702.8" x2="485.8" y2="685.8" stroke="#433320" stroke-width="5"/><line x1="566.2" y1="644.7" x2="550.8" y2="626.3" stroke="#433320" stroke-width="5"/><line x1="634.5" y1="592.3" x2="620.7" y2="572.7" stroke="#433320" stroke-width="5"/><line x1="715" y1="560" x2="695" y2="525.3" stroke="#433320" stroke-width="10"/><line x1="783.3" y1="506.4" x2="773.2" y2="484.6" stroke="#433320" stroke-width="5"/><line x1="862.8" y1="473.5" x2="854.6" y2="450.9" stroke="#433320" stroke-width="5"/><line x1="944.8" y1="447.6" x2="938.6" y2="424.4" stroke="#433320" stroke-width="5"/><line x1="1028.8" y1="429" x2="1024.6" y2="405.3" stroke="#433320" stroke-width="5"/><line x1="1114.1" y1="417.8" x2="1112" y2="393.8" stroke="#433320" stroke-width="5"/><line x1="1200" y1="430" x2="1200" y2="390" stroke="#433320" stroke-width="10"/><line x1="1285.9" y1="417.8" x2="1288" y2="393.8" stroke="#433320" stroke-width="5"/><line x1="1371.2" y1="429" x2="1375.4" y2="405.3" stroke="#433320" stroke-width="5"/><line x1="1455.2" y1="447.6" x2="1461.4" y2="424.4" stroke="#433320" stroke-width="5"/><line x1="1537.2" y1="473.5" x2="1545.4" y2="450.9" stroke="#433320" stroke-width="5"/><line x1="1616.7" y1="506.4" x2="1626.8" y2="484.6" stroke="#433320" stroke-width="5"/><line x1="1685" y1="560" x2="1705" y2="525.3" stroke="#433320" stroke-width="10"/><line x1="1765.5" y1="592.3" x2="1779.3" y2="572.7" stroke="#433320" stroke-width="5"/><line x1="1833.8" y1="644.7" x2="1849.2" y2="626.3" stroke="#433320" stroke-width="5"/><line x1="1897.2" y1="702.8" x2="1914.2" y2="685.8" stroke="#433320" stroke-width="5"/><line x1="1955.3" y1="766.2" x2="1973.7" y2="750.8" stroke="#433320" stroke-width="5"/><line x1="2007.7" y1="834.5" x2="2027.3" y2="820.7" stroke="#433320" stroke-width="5"/><line x1="2040" y1="915" x2="2074.7" y2="895" stroke="#433320" stroke-width="10"/><line x1="2093.6" y1="983.3" x2="2115.4" y2="973.2" stroke="#433320" stroke-width="5"/><line x1="2126.5" y1="1062.8" x2="2149.1" y2="1054.6" stroke="#433320" stroke-width="5"/><line x1="2152.4" y1="1144.8" x2="2175.6" y2="1138.6" stroke="#433320" stroke-width="5"/><line x1="2171" y1="1228.8" x2="2194.7" y2="1224.6" stroke="#433320" stroke-width="5"/><line x1="2182.2" y1="1314.1" x2="2206.2" y2="1312" stroke="#433320" stroke-width="5"/><circle cx="1200" cy="1400" r="280" fill="none" stroke="#433320" stroke-width="3" opacity="0.28" stroke-dasharray="3 26"/><circle cx="1200" cy="1400" r="530" fill="none" stroke="#433320" stroke-width="3" opacity="0.28" stroke-dasharray="3 26"/><circle cx="1200" cy="1400" r="780" fill="none" stroke="#433320" stroke-width="3" opacity="0.28" stroke-dasharray="3 26"/><circle cx="1109.1" cy="797.7" r="6.9" fill="#433320" opacity="0.91"/><circle cx="957.6" cy="1739" r="5.2" fill="#433320" opacity="0.94"/><circle cx="501.2" cy="1172.1" r="3.3" fill="#433320" opacity="0.60"/><circle cx="1246.8" cy="1978.6" r="6.1" fill="#433320" opacity="0.77"/><circle cx="1099.3" cy="705.3" r="5.1" fill="#433320" opacity="0.82"/><circle cx="858.7" cy="2109.7" r="3.3" fill="#433320" opacity="0.85"/><circle cx="1736.1" cy="1945.8" r="6.5" fill="#433320" opacity="0.70"/><circle cx="840.5" cy="1785.4" r="3.3" fill="#433320" opacity="0.89"/><circle cx="561.9" cy="1594.5" r="6.3" fill="#433320" opacity="0.74"/><circle cx="1533.5" cy="1068.3" r="7.4" fill="#433320" opacity="0.91"/><circle cx="747.2" cy="1692.5" r="7.5" fill="#433320" opacity="0.54"/><circle cx="1219.5" cy="664.3" r="7.9" fill="#433320" opacity="0.52"/><circle cx="468.3" cy="1752" r="6.7" fill="#433320" opacity="0.55"/><circle cx="1273" cy="1370.9" r="6" fill="#433320" opacity="0.70"/><circle cx="374.6" cy="1285.5" r="3.1" fill="#433320" opacity="0.46"/><circle cx="449" cy="1264.8" r="4.3" fill="#433320" opacity="0.69"/><circle cx="1632.7" cy="1281.1" r="5.8" fill="#433320" opacity="0.76"/><circle cx="1329" cy="839.9" r="4.8" fill="#433320" opacity="0.50"/><circle cx="1454.7" cy="1135.7" r="3.7" fill="#433320" opacity="0.75"/><circle cx="1809.8" cy="1061" r="4.6" fill="#433320" opacity="0.82"/><circle cx="1159.8" cy="540.3" r="7.3" fill="#433320" opacity="0.79"/><circle cx="1347" cy="1787.7" r="7.9" fill="#433320" opacity="1.00"/><circle cx="1534.9" cy="1524.8" r="7.1" fill="#433320" opacity="0.74"/><circle cx="1433.7" cy="1040.7" r="3.6" fill="#433320" opacity="0.77"/><circle cx="1759.6" cy="1479.6" r="7.8" fill="#433320" opacity="0.58"/><circle cx="499.9" cy="1424.4" r="7.8" fill="#433320" opacity="0.79"/><circle cx="992.4" cy="1545.4" r="3.6" fill="#433320" opacity="0.57"/><circle cx="1485.2" cy="1876.9" r="3.2" fill="#433320" opacity="0.86"/><circle cx="1476.6" cy="744.6" r="5.2" fill="#433320" opacity="0.81"/><circle cx="621.2" cy="1192.6" r="4.6" fill="#433320" opacity="0.69"/><circle cx="900.1" cy="2155.1" r="4.3" fill="#433320" opacity="0.58"/><circle cx="1213.1" cy="788.5" r="6" fill="#433320" opacity="0.46"/><circle cx="1440.9" cy="1752.3" r="5.8" fill="#433320" opacity="0.83"/><circle cx="1669.6" cy="1557.7" r="7.2" fill="#433320" opacity="0.88"/><circle cx="859.7" cy="742.3" r="4.4" fill="#433320" opacity="0.68"/><circle cx="847.7" cy="1612.4" r="6.6" fill="#433320" opacity="0.46"/><circle cx="1543.6" cy="1345.8" r="6.2" fill="#433320" opacity="0.90"/><circle cx="2084.5" cy="1307.6" r="6" fill="#433320" opacity="0.77"/><circle cx="1882.8" cy="1403.5" r="7.6" fill="#433320" opacity="0.47"/><circle cx="1533.2" cy="1707.9" r="3.2" fill="#433320" opacity="0.59"/><circle cx="759.9" cy="1377.2" r="4.8" fill="#433320" opacity="0.59"/><circle cx="1349.2" cy="1367.9" r="5.4" fill="#433320" opacity="0.54"/><circle cx="624.5" cy="1764.7" r="6.3" fill="#433320" opacity="0.76"/><circle cx="1602.1" cy="2058.9" r="5.7" fill="#433320" opacity="0.57"/><circle cx="1066.8" cy="966.4" r="6.1" fill="#433320" opacity="0.73"/><circle cx="1797" cy="942.8" r="3.2" fill="#433320" opacity="0.93"/><circle cx="1948.1" cy="1059.2" r="7.8" fill="#433320" opacity="0.66"/><circle cx="1853.2" cy="919.2" r="4" fill="#433320" opacity="0.71"/><circle cx="1742.1" cy="870.5" r="7" fill="#433320" opacity="0.93"/><circle cx="1088.7" cy="1300.6" r="7" fill="#433320" opacity="0.64"/><circle cx="1634.6" cy="1749.7" r="7.5" fill="#433320" opacity="0.66"/><circle cx="1223.3" cy="1985.8" r="3.7" fill="#433320" opacity="0.66"/><circle cx="921.4" cy="1339.6" r="3.4" fill="#433320" opacity="0.48"/><circle cx="1436.8" cy="1765.3" r="7.8" fill="#433320" opacity="0.85"/><circle cx="982.9" cy="970" r="3.2" fill="#433320" opacity="0.62"/><circle cx="1304.6" cy="907.5" r="3.3" fill="#433320" opacity="0.49"/><circle cx="663" cy="1175.3" r="6.8" fill="#433320" opacity="0.91"/><circle cx="933" cy="546.4" r="4" fill="#433320" opacity="0.45"/><circle cx="1121.9" cy="2233.7" r="6.2" fill="#433320" opacity="0.68"/><circle cx="911.8" cy="1993.5" r="6.3" fill="#433320" opacity="0.93"/><circle cx="1597.5" cy="1737" r="6.8" fill="#433320" opacity="0.84"/><circle cx="1286.1" cy="1318.6" r="4.8" fill="#433320" opacity="0.61"/><circle cx="1771.6" cy="1680.2" r="3.2" fill="#433320" opacity="0.61"/><circle cx="1311.8" cy="533.3" r="4.4" fill="#433320" opacity="0.75"/><circle cx="2064.7" cy="1557" r="4.1" fill="#433320" opacity="0.57"/><path d="M723.9,1952 Q774.3,1942.9 824.7,1952 Q774.3,1961 723.9,1952 Z M774.3,1901.5 Q783.4,1952 774.3,2002.4 Q765.2,1952 774.3,1901.5 Z" fill="#433320"/><path d="M944.6,2056 Q989.6,2047.9 1034.5,2056 Q989.6,2064.1 944.6,2056 Z M989.6,2011.1 Q997.6,2056 989.6,2100.9 Q981.5,2056 989.6,2011.1 Z" fill="#433320"/><path d="M910.3,1389.3 Q956.4,1381 1002.6,1389.3 Q956.4,1397.6 910.3,1389.3 Z M956.4,1343.2 Q964.7,1389.3 956.4,1435.5 Q948.1,1389.3 956.4,1343.2 Z" fill="#433320"/><path d="M578.3,1857.3 Q633.3,1847.5 688.2,1857.3 Q633.3,1867.2 578.3,1857.3 Z M633.3,1802.4 Q643.2,1857.3 633.3,1912.3 Q623.4,1857.3 633.3,1802.4 Z" fill="#433320"/><path d="M1695.7,1177.7 Q1752.4,1167.5 1809.1,1177.7 Q1752.4,1187.9 1695.7,1177.7 Z M1752.4,1121 Q1762.6,1177.7 1752.4,1234.4 Q1742.2,1177.7 1752.4,1121 Z" fill="#433320"/><path d="M1244.5,1690.9 Q1305.9,1679.8 1367.4,1690.9 Q1305.9,1702 1244.5,1690.9 Z M1305.9,1629.4 Q1317,1690.9 1305.9,1752.4 Q1294.9,1690.9 1305.9,1629.4 Z" fill="#433320"/><polyline points="833.8,1318.3 977.8,1167.8 1190,993.5 1225.4,902.4 1218.1,1096.7 1294.5,902.7 " fill="none" stroke="#433320" stroke-width="4" opacity="0.55"/><circle cx="833.8" cy="1318.3" r="12" fill="#433320"/><circle cx="977.8" cy="1167.8" r="12.7" fill="#433320"/><circle cx="1190" cy="993.5" r="9.2" fill="#433320"/><circle cx="1225.4" cy="902.4" r="9.2" fill="#433320"/><circle cx="1218.1" cy="1096.7" r="13" fill="#433320"/><circle cx="1294.5" cy="902.7" r="12" fill="#433320"/><polyline points="1239.6,1005 1308.9,1059.9 1096.1,1089.5 1070.4,1242.1 959.3,1281.4 " fill="none" stroke="#433320" stroke-width="4" opacity="0.55"/><circle cx="1239.6" cy="1005" r="12" fill="#433320"/><circle cx="1308.9" cy="1059.9" r="8.3" fill="#433320"/><circle cx="1096.1" cy="1089.5" r="13.3" fill="#433320"/><circle cx="1070.4" cy="1242.1" r="9.1" fill="#433320"/><circle cx="959.3" cy="1281.4" r="12.6" fill="#433320"/><polyline points="1395.5,1082.7 1217.3,1086.4 1397.3,1028 1435.3,873 1222.2,996.1 " fill="none" stroke="#433320" stroke-width="4" opacity="0.55"/><circle cx="1395.5" cy="1082.7" r="12" fill="#433320"/><circle cx="1217.3" cy="1086.4" r="10.7" fill="#433320"/><circle cx="1397.3" cy="1028" r="13.2" fill="#433320"/><circle cx="1435.3" cy="873" r="9.2" fill="#433320"/><circle cx="1222.2" cy="996.1" r="8.3" fill="#433320"/><circle cx="1548.4" cy="1936.8" r="88" fill="#433320"/><circle cx="1585.4" cy="1921" r="77.4" fill="#e2d4b4"/><path d="M370.1,2819.9 L 433.9,2819.9 L 433.9,2756.1 L 383.8,2756.1 L 383.8,2795.6 L 409.6,2795.6 L 409.6,2775.8 M446.1,2819.9 L 509.9,2819.9 L 509.9,2756.1 L 459.8,2756.1 L 459.8,2795.6 L 485.6,2795.6 L 485.6,2775.8 M522.1,2819.9 L 585.9,2819.9 L 585.9,2756.1 L 535.8,2756.1 L 535.8,2795.6 L 561.6,2795.6 L 561.6,2775.8 M598.1,2819.9 L 661.9,2819.9 L 661.9,2756.1 L 611.8,2756.1 L 611.8,2795.6 L 637.6,2795.6 L 637.6,2775.8 M674.1,2819.9 L 737.9,2819.9 L 737.9,2756.1 L 687.8,2756.1 L 687.8,2795.6 L 713.6,2795.6 L 713.6,2775.8 M750.1,2819.9 L 813.9,2819.9 L 813.9,2756.1 L 763.8,2756.1 L 763.8,2795.6 L 789.6,2795.6 L 789.6,2775.8 M826.1,2819.9 L 889.9,2819.9 L 889.9,2756.1 L 839.8,2756.1 L 839.8,2795.6 L 865.6,2795.6 L 865.6,2775.8 M902.1,2819.9 L 965.9,2819.9 L 965.9,2756.1 L 915.8,2756.1 L 915.8,2795.6 L 941.6,2795.6 L 941.6,2775.8 M978.1,2819.9 L 1041.9,2819.9 L 1041.9,2756.1 L 991.8,2756.1 L 991.8,2795.6 L 1017.6,2795.6 L 1017.6,2775.8 M1054.1,2819.9 L 1117.9,2819.9 L 1117.9,2756.1 L 1067.8,2756.1 L 1067.8,2795.6 L 1093.6,2795.6 L 1093.6,2775.8 M1130.1,2819.9 L 1193.9,2819.9 L 1193.9,2756.1 L 1143.8,2756.1 L 1143.8,2795.6 L 1169.6,2795.6 L 1169.6,2775.8 M1206.1,2819.9 L 1269.9,2819.9 L 1269.9,2756.1 L 1219.8,2756.1 L 1219.8,2795.6 L 1245.6,2795.6 L 1245.6,2775.8 M1282.1,2819.9 L 1345.9,2819.9 L 1345.9,2756.1 L 1295.8,2756.1 L 1295.8,2795.6 L 1321.6,2795.6 L 1321.6,2775.8 M1358.1,2819.9 L 1421.9,2819.9 L 1421.9,2756.1 L 1371.8,2756.1 L 1371.8,2795.6 L 1397.6,2795.6 L 1397.6,2775.8 M1434.1,2819.9 L 1497.9,2819.9 L 1497.9,2756.1 L 1447.8,2756.1 L 1447.8,2795.6 L 1473.6,2795.6 L 1473.6,2775.8 M1510.1,2819.9 L 1573.9,2819.9 L 1573.9,2756.1 L 1523.8,2756.1 L 1523.8,2795.6 L 1549.6,2795.6 L 1549.6,2775.8 M1586.1,2819.9 L 1649.9,2819.9 L 1649.9,2756.1 L 1599.8,2756.1 L 1599.8,2795.6 L 1625.6,2795.6 L 1625.6,2775.8 M1662.1,2819.9 L 1725.9,2819.9 L 1725.9,2756.1 L 1675.8,2756.1 L 1675.8,2795.6 L 1701.6,2795.6 L 1701.6,2775.8 M1738.1,2819.9 L 1801.9,2819.9 L 1801.9,2756.1 L 1751.8,2756.1 L 1751.8,2795.6 L 1777.6,2795.6 L 1777.6,2775.8 M1814.1,2819.9 L 1877.9,2819.9 L 1877.9,2756.1 L 1827.8,2756.1 L 1827.8,2795.6 L 1853.6,2795.6 L 1853.6,2775.8 M1890.1,2819.9 L 1953.9,2819.9 L 1953.9,2756.1 L 1903.8,2756.1 L 1903.8,2795.6 L 1929.6,2795.6 L 1929.6,2775.8 M1966.1,2819.9 L 2029.9,2819.9 L 2029.9,2756.1 L 1979.8,2756.1 L 1979.8,2795.6 L 2005.6,2795.6 L 2005.6,2775.8 " fill="none" stroke="#433320" stroke-width="9.9"/><rect x="130" y="130" width="2140" height="2740" fill="none" stroke="#433320" stroke-width="5"/><rect x="152" y="152" width="2096" height="2696" fill="none" stroke="#433320" stroke-width="2.5" opacity="0.8"/></g><rect width="2400" height="3000" filter="url(#a113-mottle)" style="mix-blend-mode:multiply" opacity="0.5"/><rect width="2400" height="3000" filter="url(#a113-fade)" style="mix-blend-mode:screen" opacity="0.55"/><rect width="2400" height="3000" filter="url(#a113-grain)" style="mix-blend-mode:multiply" opacity="0.32"/><ellipse cx="1228.9" cy="1587.8" rx="237.8" ry="165.7" fill="#6b4a22" opacity="0.061" filter="url(#a113-blur9)"/><ellipse cx="247.9" cy="2239.4" rx="192" ry="160.9" fill="#6b4a22" opacity="0.026" filter="url(#a113-blur9)"/><ellipse cx="1577.3" cy="1461.9" rx="137.3" ry="93" fill="#6b4a22" opacity="0.068" filter="url(#a113-blur9)"/><ellipse cx="1508.8" cy="347.7" rx="227.7" ry="239.2" fill="#6b4a22" opacity="0.037" filter="url(#a113-blur9)"/><g opacity="0.3"><rect y="3" width="2400" height="2" fill="#e2d4b4"/><rect y="11" width="2400" height="2" fill="#e2d4b4"/><rect y="19" width="2400" height="2" fill="#e2d4b4"/><rect y="27" width="2400" height="2" fill="#e2d4b4"/><rect y="35" width="2400" height="2" fill="#e2d4b4"/><rect y="43" width="2400" height="2" fill="#e2d4b4"/><rect y="51" width="2400" height="2" fill="#e2d4b4"/><rect y="59" width="2400" height="2" fill="#e2d4b4"/><rect y="67" width="2400" height="2" fill="#e2d4b4"/><rect y="75" width="2400" height="2" fill="#e2d4b4"/><rect y="83" width="2400" height="2" fill="#e2d4b4"/><rect y="91" width="2400" height="2" fill="#e2d4b4"/><rect y="99" width="2400" height="2" fill="#e2d4b4"/><rect y="107" width="2400" height="2" fill="#e2d4b4"/><rect y="115" width="2400" height="2" fill="#e2d4b4"/><rect y="123" width="2400" height="2" fill="#e2d4b4"/><rect y="131" width="2400" height="2" fill="#e2d4b4"/><rect y="139" width="2400" height="2" fill="#e2d4b4"/><rect y="147" width="2400" height="2" fill="#e2d4b4"/><rect y="155" width="2400" height="2" fill="#e2d4b4"/><rect y="163" width="2400" height="2" fill="#e2d4b4"/><rect y="171" width="2400" height="2" fill="#e2d4b4"/><rect y="179" width="2400" height="2" fill="#e2d4b4"/><rect y="187" width="2400" height="2" fill="#e2d4b4"/><rect y="195" width="2400" height="2" fill="#e2d4b4"/><rect y="203" width="2400" height="2" fill="#e2d4b4"/><rect y="211" width="2400" height="2" fill="#e2d4b4"/><rect y="219" width="2400" height="2" fill="#e2d4b4"/><rect y="227" width="2400" height="2" fill="#e2d4b4"/><rect y="235" width="2400" height="2" fill="#e2d4b4"/><rect y="243" width="2400" height="2" fill="#e2d4b4"/><rect y="251" width="2400" height="2" fill="#e2d4b4"/><rect y="259" width="2400" height="2" fill="#e2d4b4"/><rect y="267" width="2400" height="2" fill="#e2d4b4"/><rect y="275" width="2400" height="2" fill="#e2d4b4"/><rect y="283" width="2400" height="2" fill="#e2d4b4"/><rect y="291" width="2400" height="2" fill="#e2d4b4"/><rect y="299" width="2400" height="2" fill="#e2d4b4"/><rect y="307" width="2400" height="2" fill="#e2d4b4"/><rect y="315" width="2400" height="2" fill="#e2d4b4"/><rect y="323" width="2400" height="2" fill="#e2d4b4"/><rect y="331" width="2400" height="2" fill="#e2d4b4"/><rect y="339" width="2400" height="2" fill="#e2d4b4"/><rect y="347" width="2400" height="2" fill="#e2d4b4"/><rect y="355" width="2400" height="2" fill="#e2d4b4"/><rect y="363" width="2400" height="2" fill="#e2d4b4"/><rect y="371" width="2400" height="2" fill="#e2d4b4"/><rect y="379" width="2400" height="2" fill="#e2d4b4"/><rect y="387" width="2400" height="2" fill="#e2d4b4"/><rect y="395" width="2400" height="2" fill="#e2d4b4"/><rect y="403" width="2400" height="2" fill="#e2d4b4"/><rect y="411" width="2400" height="2" fill="#e2d4b4"/><rect y="419" width="2400" height="2" fill="#e2d4b4"/><rect y="427" width="2400" height="2" fill="#e2d4b4"/><rect y="435" width="2400" height="2" fill="#e2d4b4"/><rect y="443" width="2400" height="2" fill="#e2d4b4"/><rect y="451" width="2400" height="2" fill="#e2d4b4"/><rect y="459" width="2400" height="2" fill="#e2d4b4"/><rect y="467" width="2400" height="2" fill="#e2d4b4"/><rect y="475" width="2400" height="2" fill="#e2d4b4"/><rect y="483" width="2400" height="2" fill="#e2d4b4"/><rect y="491" width="2400" height="2" fill="#e2d4b4"/><rect y="499" width="2400" height="2" fill="#e2d4b4"/><rect y="507" width="2400" height="2" fill="#e2d4b4"/><rect y="515" width="2400" height="2" fill="#e2d4b4"/><rect y="523" width="2400" height="2" fill="#e2d4b4"/><rect y="531" width="2400" height="2" fill="#e2d4b4"/><rect y="539" width="2400" height="2" fill="#e2d4b4"/><rect y="547" width="2400" height="2" fill="#e2d4b4"/><rect y="555" width="2400" height="2" fill="#e2d4b4"/><rect y="563" width="2400" height="2" fill="#e2d4b4"/><rect y="571" width="2400" height="2" fill="#e2d4b4"/><rect y="579" width="2400" height="2" fill="#e2d4b4"/><rect y="587" width="2400" height="2" fill="#e2d4b4"/><rect y="595" width="2400" height="2" fill="#e2d4b4"/><rect y="603" width="2400" height="2" fill="#e2d4b4"/><rect y="611" width="2400" height="2" fill="#e2d4b4"/><rect y="619" width="2400" height="2" fill="#e2d4b4"/><rect y="627" width="2400" height="2" fill="#e2d4b4"/><rect y="635" width="2400" height="2" fill="#e2d4b4"/><rect y="643" width="2400" height="2" fill="#e2d4b4"/><rect y="651" width="2400" height="2" fill="#e2d4b4"/><rect y="659" width="2400" height="2" fill="#e2d4b4"/><rect y="667" width="2400" height="2" fill="#e2d4b4"/><rect y="675" width="2400" height="2" fill="#e2d4b4"/><rect y="683" width="2400" height="2" fill="#e2d4b4"/><rect y="691" width="2400" height="2" fill="#e2d4b4"/><rect y="699" width="2400" height="2" fill="#e2d4b4"/><rect y="707" width="2400" height="2" fill="#e2d4b4"/><rect y="715" width="2400" height="2" fill="#e2d4b4"/><rect y="723" width="2400" height="2" fill="#e2d4b4"/><rect y="731" width="2400" height="2" fill="#e2d4b4"/><rect y="739" width="2400" height="2" fill="#e2d4b4"/><rect y="747" width="2400" height="2" fill="#e2d4b4"/><rect y="755" width="2400" height="2" fill="#e2d4b4"/><rect y="763" width="2400" height="2" fill="#e2d4b4"/><rect y="771" width="2400" height="2" fill="#e2d4b4"/><rect y="779" width="2400" height="2" fill="#e2d4b4"/><rect y="787" width="2400" height="2" fill="#e2d4b4"/><rect y="795" width="2400" height="2" fill="#e2d4b4"/><rect y="803" width="2400" height="2" fill="#e2d4b4"/><rect y="811" width="2400" height="2" fill="#e2d4b4"/><rect y="819" width="2400" height="2" fill="#e2d4b4"/><rect y="827" width="2400" height="2" fill="#e2d4b4"/><rect y="835" width="2400" height="2" fill="#e2d4b4"/><rect y="843" width="2400" height="2" fill="#e2d4b4"/><rect y="851" width="2400" height="2" fill="#e2d4b4"/><rect y="859" width="2400" height="2" fill="#e2d4b4"/><rect y="867" width="2400" height="2" fill="#e2d4b4"/><rect y="875" width="2400" height="2" fill="#e2d4b4"/><rect y="883" width="2400" height="2" fill="#e2d4b4"/><rect y="891" width="2400" height="2" fill="#e2d4b4"/><rect y="899" width="2400" height="2" fill="#e2d4b4"/><rect y="907" width="2400" height="2" fill="#e2d4b4"/><rect y="915" width="2400" height="2" fill="#e2d4b4"/><rect y="923" width="2400" height="2" fill="#e2d4b4"/><rect y="931" width="2400" height="2" fill="#e2d4b4"/><rect y="939" width="2400" height="2" fill="#e2d4b4"/><rect y="947" width="2400" height="2" fill="#e2d4b4"/><rect y="955" width="2400" height="2" fill="#e2d4b4"/><rect y="963" width="2400" height="2" fill="#e2d4b4"/><rect y="971" width="2400" height="2" fill="#e2d4b4"/><rect y="979" width="2400" height="2" fill="#e2d4b4"/><rect y="987" width="2400" height="2" fill="#e2d4b4"/><rect y="995" width="2400" height="2" fill="#e2d4b4"/><rect y="1003" width="2400" height="2" fill="#e2d4b4"/><rect y="1011" width="2400" height="2" fill="#e2d4b4"/><rect y="1019" width="2400" height="2" fill="#e2d4b4"/><rect y="1027" width="2400" height="2" fill="#e2d4b4"/><rect y="1035" width="2400" height="2" fill="#e2d4b4"/><rect y="1043" width="2400" height="2" fill="#e2d4b4"/><rect y="1051" width="2400" height="2" fill="#e2d4b4"/><rect y="1059" width="2400" height="2" fill="#e2d4b4"/><rect y="1067" width="2400" height="2" fill="#e2d4b4"/><rect y="1075" width="2400" height="2" fill="#e2d4b4"/><rect y="1083" width="2400" height="2" fill="#e2d4b4"/><rect y="1091" width="2400" height="2" fill="#e2d4b4"/><rect y="1099" width="2400" height="2" fill="#e2d4b4"/><rect y="1107" width="2400" height="2" fill="#e2d4b4"/><rect y="1115" width="2400" height="2" fill="#e2d4b4"/><rect y="1123" width="2400" height="2" fill="#e2d4b4"/><rect y="1131" width="2400" height="2" fill="#e2d4b4"/><rect y="1139" width="2400" height="2" fill="#e2d4b4"/><rect y="1147" width="2400" height="2" fill="#e2d4b4"/><rect y="1155" width="2400" height="2" fill="#e2d4b4"/><rect y="1163" width="2400" height="2" fill="#e2d4b4"/><rect y="1171" width="2400" height="2" fill="#e2d4b4"/><rect y="1179" width="2400" height="2" fill="#e2d4b4"/><rect y="1187" width="2400" height="2" fill="#e2d4b4"/><rect y="1195" width="2400" height="2" fill="#e2d4b4"/><rect y="1203" width="2400" height="2" fill="#e2d4b4"/><rect y="1211" width="2400" height="2" fill="#e2d4b4"/><rect y="1219" width="2400" height="2" fill="#e2d4b4"/><rect y="1227" width="2400" height="2" fill="#e2d4b4"/><rect y="1235" width="2400" height="2" fill="#e2d4b4"/><rect y="1243" width="2400" height="2" fill="#e2d4b4"/><rect y="1251" width="2400" height="2" fill="#e2d4b4"/><rect y="1259" width="2400" height="2" fill="#e2d4b4"/><rect y="1267" width="2400" height="2" fill="#e2d4b4"/><rect y="1275" width="2400" height="2" fill="#e2d4b4"/><rect y="1283" width="2400" height="2" fill="#e2d4b4"/><rect y="1291" width="2400" height="2" fill="#e2d4b4"/><rect y="1299" width="2400" height="2" fill="#e2d4b4"/><rect y="1307" width="2400" height="2" fill="#e2d4b4"/><rect y="1315" width="2400" height="2" fill="#e2d4b4"/><rect y="1323" width="2400" height="2" fill="#e2d4b4"/><rect y="1331" width="2400" height="2" fill="#e2d4b4"/><rect y="1339" width="2400" height="2" fill="#e2d4b4"/><rect y="1347" width="2400" height="2" fill="#e2d4b4"/><rect y="1355" width="2400" height="2" fill="#e2d4b4"/><rect y="1363" width="2400" height="2" fill="#e2d4b4"/><rect y="1371" width="2400" height="2" fill="#e2d4b4"/><rect y="1379" width="2400" height="2" fill="#e2d4b4"/><rect y="1387" width="2400" height="2" fill="#e2d4b4"/><rect y="1395" width="2400" height="2" fill="#e2d4b4"/><rect y="1403" width="2400" height="2" fill="#e2d4b4"/><rect y="1411" width="2400" height="2" fill="#e2d4b4"/><rect y="1419" width="2400" height="2" fill="#e2d4b4"/><rect y="1427" width="2400" height="2" fill="#e2d4b4"/><rect y="1435" width="2400" height="2" fill="#e2d4b4"/><rect y="1443" width="2400" height="2" fill="#e2d4b4"/><rect y="1451" width="2400" height="2" fill="#e2d4b4"/><rect y="1459" width="2400" height="2" fill="#e2d4b4"/><rect y="1467" width="2400" height="2" fill="#e2d4b4"/><rect y="1475" width="2400" height="2" fill="#e2d4b4"/><rect y="1483" width="2400" height="2" fill="#e2d4b4"/><rect y="1491" width="2400" height="2" fill="#e2d4b4"/><rect y="1499" width="2400" height="2" fill="#e2d4b4"/><rect y="1507" width="2400" height="2" fill="#e2d4b4"/><rect y="1515" width="2400" height="2" fill="#e2d4b4"/><rect y="1523" width="2400" height="2" fill="#e2d4b4"/><rect y="1531" width="2400" height="2" fill="#e2d4b4"/><rect y="1539" width="2400" height="2" fill="#e2d4b4"/><rect y="1547" width="2400" height="2" fill="#e2d4b4"/><rect y="1555" width="2400" height="2" fill="#e2d4b4"/><rect y="1563" width="2400" height="2" fill="#e2d4b4"/><rect y="1571" width="2400" height="2" fill="#e2d4b4"/><rect y="1579" width="2400" height="2" fill="#e2d4b4"/><rect y="1587" width="2400" height="2" fill="#e2d4b4"/><rect y="1595" width="2400" height="2" fill="#e2d4b4"/><rect y="1603" width="2400" height="2" fill="#e2d4b4"/><rect y="1611" width="2400" height="2" fill="#e2d4b4"/><rect y="1619" width="2400" height="2" fill="#e2d4b4"/><rect y="1627" width="2400" height="2" fill="#e2d4b4"/><rect y="1635" width="2400" height="2" fill="#e2d4b4"/><rect y="1643" width="2400" height="2" fill="#e2d4b4"/><rect y="1651" width="2400" height="2" fill="#e2d4b4"/><rect y="1659" width="2400" height="2" fill="#e2d4b4"/><rect y="1667" width="2400" height="2" fill="#e2d4b4"/><rect y="1675" width="2400" height="2" fill="#e2d4b4"/><rect y="1683" width="2400" height="2" fill="#e2d4b4"/><rect y="1691" width="2400" height="2" fill="#e2d4b4"/><rect y="1699" width="2400" height="2" fill="#e2d4b4"/><rect y="1707" width="2400" height="2" fill="#e2d4b4"/><rect y="1715" width="2400" height="2" fill="#e2d4b4"/><rect y="1723" width="2400" height="2" fill="#e2d4b4"/><rect y="1731" width="2400" height="2" fill="#e2d4b4"/><rect y="1739" width="2400" height="2" fill="#e2d4b4"/><rect y="1747" width="2400" height="2" fill="#e2d4b4"/><rect y="1755" width="2400" height="2" fill="#e2d4b4"/><rect y="1763" width="2400" height="2" fill="#e2d4b4"/><rect y="1771" width="2400" height="2" fill="#e2d4b4"/><rect y="1779" width="2400" height="2" fill="#e2d4b4"/><rect y="1787" width="2400" height="2" fill="#e2d4b4"/><rect y="1795" width="2400" height="2" fill="#e2d4b4"/><rect y="1803" width="2400" height="2" fill="#e2d4b4"/><rect y="1811" width="2400" height="2" fill="#e2d4b4"/><rect y="1819" width="2400" height="2" fill="#e2d4b4"/><rect y="1827" width="2400" height="2" fill="#e2d4b4"/><rect y="1835" width="2400" height="2" fill="#e2d4b4"/><rect y="1843" width="2400" height="2" fill="#e2d4b4"/><rect y="1851" width="2400" height="2" fill="#e2d4b4"/><rect y="1859" width="2400" height="2" fill="#e2d4b4"/><rect y="1867" width="2400" height="2" fill="#e2d4b4"/><rect y="1875" width="2400" height="2" fill="#e2d4b4"/><rect y="1883" width="2400" height="2" fill="#e2d4b4"/><rect y="1891" width="2400" height="2" fill="#e2d4b4"/><rect y="1899" width="2400" height="2" fill="#e2d4b4"/><rect y="1907" width="2400" height="2" fill="#e2d4b4"/><rect y="1915" width="2400" height="2" fill="#e2d4b4"/><rect y="1923" width="2400" height="2" fill="#e2d4b4"/><rect y="1931" width="2400" height="2" fill="#e2d4b4"/><rect y="1939" width="2400" height="2" fill="#e2d4b4"/><rect y="1947" width="2400" height="2" fill="#e2d4b4"/><rect y="1955" width="2400" height="2" fill="#e2d4b4"/><rect y="1963" width="2400" height="2" fill="#e2d4b4"/><rect y="1971" width="2400" height="2" fill="#e2d4b4"/><rect y="1979" width="2400" height="2" fill="#e2d4b4"/><rect y="1987" width="2400" height="2" fill="#e2d4b4"/><rect y="1995" width="2400" height="2" fill="#e2d4b4"/><rect y="2003" width="2400" height="2" fill="#e2d4b4"/><rect y="2011" width="2400" height="2" fill="#e2d4b4"/><rect y="2019" width="2400" height="2" fill="#e2d4b4"/><rect y="2027" width="2400" height="2" fill="#e2d4b4"/><rect y="2035" width="2400" height="2" fill="#e2d4b4"/><rect y="2043" width="2400" height="2" fill="#e2d4b4"/><rect y="2051" width="2400" height="2" fill="#e2d4b4"/><rect y="2059" width="2400" height="2" fill="#e2d4b4"/><rect y="2067" width="2400" height="2" fill="#e2d4b4"/><rect y="2075" width="2400" height="2" fill="#e2d4b4"/><rect y="2083" width="2400" height="2" fill="#e2d4b4"/><rect y="2091" width="2400" height="2" fill="#e2d4b4"/><rect y="2099" width="2400" height="2" fill="#e2d4b4"/><rect y="2107" width="2400" height="2" fill="#e2d4b4"/><rect y="2115" width="2400" height="2" fill="#e2d4b4"/><rect y="2123" width="2400" height="2" fill="#e2d4b4"/><rect y="2131" width="2400" height="2" fill="#e2d4b4"/><rect y="2139" width="2400" height="2" fill="#e2d4b4"/><rect y="2147" width="2400" height="2" fill="#e2d4b4"/><rect y="2155" width="2400" height="2" fill="#e2d4b4"/><rect y="2163" width="2400" height="2" fill="#e2d4b4"/><rect y="2171" width="2400" height="2" fill="#e2d4b4"/><rect y="2179" width="2400" height="2" fill="#e2d4b4"/><rect y="2187" width="2400" height="2" fill="#e2d4b4"/><rect y="2195" width="2400" height="2" fill="#e2d4b4"/><rect y="2203" width="2400" height="2" fill="#e2d4b4"/><rect y="2211" width="2400" height="2" fill="#e2d4b4"/><rect y="2219" width="2400" height="2" fill="#e2d4b4"/><rect y="2227" width="2400" height="2" fill="#e2d4b4"/><rect y="2235" width="2400" height="2" fill="#e2d4b4"/><rect y="2243" width="2400" height="2" fill="#e2d4b4"/><rect y="2251" width="2400" height="2" fill="#e2d4b4"/><rect y="2259" width="2400" height="2" fill="#e2d4b4"/><rect y="2267" width="2400" height="2" fill="#e2d4b4"/><rect y="2275" width="2400" height="2" fill="#e2d4b4"/><rect y="2283" width="2400" height="2" fill="#e2d4b4"/><rect y="2291" width="2400" height="2" fill="#e2d4b4"/><rect y="2299" width="2400" height="2" fill="#e2d4b4"/><rect y="2307" width="2400" height="2" fill="#e2d4b4"/><rect y="2315" width="2400" height="2" fill="#e2d4b4"/><rect y="2323" width="2400" height="2" fill="#e2d4b4"/><rect y="2331" width="2400" height="2" fill="#e2d4b4"/><rect y="2339" width="2400" height="2" fill="#e2d4b4"/><rect y="2347" width="2400" height="2" fill="#e2d4b4"/><rect y="2355" width="2400" height="2" fill="#e2d4b4"/><rect y="2363" width="2400" height="2" fill="#e2d4b4"/><rect y="2371" width="2400" height="2" fill="#e2d4b4"/><rect y="2379" width="2400" height="2" fill="#e2d4b4"/><rect y="2387" width="2400" height="2" fill="#e2d4b4"/><rect y="2395" width="2400" height="2" fill="#e2d4b4"/><rect y="2403" width="2400" height="2" fill="#e2d4b4"/><rect y="2411" width="2400" height="2" fill="#e2d4b4"/><rect y="2419" width="2400" height="2" fill="#e2d4b4"/><rect y="2427" width="2400" height="2" fill="#e2d4b4"/><rect y="2435" width="2400" height="2" fill="#e2d4b4"/><rect y="2443" width="2400" height="2" fill="#e2d4b4"/><rect y="2451" width="2400" height="2" fill="#e2d4b4"/><rect y="2459" width="2400" height="2" fill="#e2d4b4"/><rect y="2467" width="2400" height="2" fill="#e2d4b4"/><rect y="2475" width="2400" height="2" fill="#e2d4b4"/><rect y="2483" width="2400" height="2" fill="#e2d4b4"/><rect y="2491" width="2400" height="2" fill="#e2d4b4"/><rect y="2499" width="2400" height="2" fill="#e2d4b4"/><rect y="2507" width="2400" height="2" fill="#e2d4b4"/><rect y="2515" width="2400" height="2" fill="#e2d4b4"/><rect y="2523" width="2400" height="2" fill="#e2d4b4"/><rect y="2531" width="2400" height="2" fill="#e2d4b4"/><rect y="2539" width="2400" height="2" fill="#e2d4b4"/><rect y="2547" width="2400" height="2" fill="#e2d4b4"/><rect y="2555" width="2400" height="2" fill="#e2d4b4"/><rect y="2563" width="2400" height="2" fill="#e2d4b4"/><rect y="2571" width="2400" height="2" fill="#e2d4b4"/><rect y="2579" width="2400" height="2" fill="#e2d4b4"/><rect y="2587" width="2400" height="2" fill="#e2d4b4"/><rect y="2595" width="2400" height="2" fill="#e2d4b4"/><rect y="2603" width="2400" height="2" fill="#e2d4b4"/><rect y="2611" width="2400" height="2" fill="#e2d4b4"/><rect y="2619" width="2400" height="2" fill="#e2d4b4"/><rect y="2627" width="2400" height="2" fill="#e2d4b4"/><rect y="2635" width="2400" height="2" fill="#e2d4b4"/><rect y="2643" width="2400" height="2" fill="#e2d4b4"/><rect y="2651" width="2400" height="2" fill="#e2d4b4"/><rect y="2659" width="2400" height="2" fill="#e2d4b4"/><rect y="2667" width="2400" height="2" fill="#e2d4b4"/><rect y="2675" width="2400" height="2" fill="#e2d4b4"/><rect y="2683" width="2400" height="2" fill="#e2d4b4"/><rect y="2691" width="2400" height="2" fill="#e2d4b4"/><rect y="2699" width="2400" height="2" fill="#e2d4b4"/><rect y="2707" width="2400" height="2" fill="#e2d4b4"/><rect y="2715" width="2400" height="2" fill="#e2d4b4"/><rect y="2723" width="2400" height="2" fill="#e2d4b4"/><rect y="2731" width="2400" height="2" fill="#e2d4b4"/><rect y="2739" width="2400" height="2" fill="#e2d4b4"/><rect y="2747" width="2400" height="2" fill="#e2d4b4"/><rect y="2755" width="2400" height="2" fill="#e2d4b4"/><rect y="2763" width="2400" height="2" fill="#e2d4b4"/><rect y="2771" width="2400" height="2" fill="#e2d4b4"/><rect y="2779" width="2400" height="2" fill="#e2d4b4"/><rect y="2787" width="2400" height="2" fill="#e2d4b4"/><rect y="2795" width="2400" height="2" fill="#e2d4b4"/><rect y="2803" width="2400" height="2" fill="#e2d4b4"/><rect y="2811" width="2400" height="2" fill="#e2d4b4"/><rect y="2819" width="2400" height="2" fill="#e2d4b4"/><rect y="2827" width="2400" height="2" fill="#e2d4b4"/><rect y="2835" width="2400" height="2" fill="#e2d4b4"/><rect y="2843" width="2400" height="2" fill="#e2d4b4"/><rect y="2851" width="2400" height="2" fill="#e2d4b4"/><rect y="2859" width="2400" height="2" fill="#e2d4b4"/><rect y="2867" width="2400" height="2" fill="#e2d4b4"/><rect y="2875" width="2400" height="2" fill="#e2d4b4"/><rect y="2883" width="2400" height="2" fill="#e2d4b4"/><rect y="2891" width="2400" height="2" fill="#e2d4b4"/><rect y="2899" width="2400" height="2" fill="#e2d4b4"/><rect y="2907" width="2400" height="2" fill="#e2d4b4"/><rect y="2915" width="2400" height="2" fill="#e2d4b4"/><rect y="2923" width="2400" height="2" fill="#e2d4b4"/><rect y="2931" width="2400" height="2" fill="#e2d4b4"/><rect y="2939" width="2400" height="2" fill="#e2d4b4"/><rect y="2947" width="2400" height="2" fill="#e2d4b4"/><rect y="2955" width="2400" height="2" fill="#e2d4b4"/><rect y="2963" width="2400" height="2" fill="#e2d4b4"/><rect y="2971" width="2400" height="2" fill="#e2d4b4"/><rect y="2979" width="2400" height="2" fill="#e2d4b4"/><rect y="2987" width="2400" height="2" fill="#e2d4b4"/><rect y="2995" width="2400" height="2" fill="#e2d4b4"/></g><rect x="88" y="88" width="2224" height="2824" fill="none" stroke="#3a2c1a" stroke-width="4" opacity="0.2"/><rect x="94" y="94" width="2212" height="2812" fill="none" stroke="#fff6e0" stroke-width="2" opacity="0.25"/><circle cx="1557.4" cy="2717.6" r="7.7" fill="#8a5a2e" opacity="0.101"/><circle cx="307.5" cy="1502.4" r="3.6" fill="#8a5a2e" opacity="0.120"/><circle cx="1529.3" cy="441.7" r="7.2" fill="#8a5a2e" opacity="0.090"/><circle cx="903.6" cy="1054.6" r="12.6" fill="#8a5a2e" opacity="0.059"/><circle cx="1754.3" cy="2667.4" r="6.3" fill="#8a5a2e" opacity="0.062"/><circle cx="479.1" cy="2310.9" r="14.2" fill="#8a5a2e" opacity="0.083"/><circle cx="313.5" cy="555.8" r="3.6" fill="#8a5a2e" opacity="0.076"/><circle cx="338.5" cy="992.1" r="4.1" fill="#8a5a2e" opacity="0.046"/><circle cx="975.9" cy="1113" r="8.2" fill="#8a5a2e" opacity="0.067"/><circle cx="650.8" cy="1587.5" r="5" fill="#8a5a2e" opacity="0.129"/><circle cx="1053.9" cy="1160" r="12.9" fill="#8a5a2e" opacity="0.051"/><circle cx="1382.8" cy="651.7" r="8.8" fill="#8a5a2e" opacity="0.065"/><circle cx="2238.5" cy="1597.6" r="7.8" fill="#8a5a2e" opacity="0.074"/><circle cx="1283.5" cy="2453.3" r="11.3" fill="#8a5a2e" opacity="0.075"/><circle cx="2262.3" cy="1965" r="7.8" fill="#8a5a2e" opacity="0.087"/><circle cx="1978.1" cy="806" r="9.3" fill="#8a5a2e" opacity="0.091"/><circle cx="2136.9" cy="88.4" r="8.2" fill="#8a5a2e" opacity="0.098"/><circle cx="2142.4" cy="952.9" r="15" fill="#8a5a2e" opacity="0.102"/><circle cx="1238" cy="1216.3" r="14.2" fill="#8a5a2e" opacity="0.122"/><circle cx="1429.1" cy="1279.5" r="4.4" fill="#8a5a2e" opacity="0.073"/><circle cx="988.3" cy="538.6" r="13.3" fill="#8a5a2e" opacity="0.090"/><circle cx="1655.1" cy="2038.4" r="3" fill="#8a5a2e" opacity="0.081"/><circle cx="507.1" cy="1987.5" r="5" fill="#8a5a2e" opacity="0.102"/><circle cx="502.8" cy="1190.7" r="10.3" fill="#8a5a2e" opacity="0.071"/><circle cx="1965.9" cy="2065.3" r="4.4" fill="#8a5a2e" opacity="0.120"/><circle cx="2097.4" cy="2072.8" r="9.9" fill="#8a5a2e" opacity="0.077"/><circle cx="655.5" cy="844.8" r="10" fill="#8a5a2e" opacity="0.050"/><rect width="2400" height="3000" fill="url(#a113-vig)"/></svg></svg>