<svg xmlns="http://www.w3.org/2000/svg" width="2400" height="1800" viewBox="0 0 2400 1800"><rect width="2400" height="1800" fill="#e8e2d6"/><rect y="1420" width="2400" height="380" fill="#cbb597"/><ellipse cx="1200" cy="1640" rx="760" ry="130" fill="#cfc7b2" opacity="0.55"/><ellipse cx="1200" cy="1640" rx="600" ry="96" fill="none" stroke="#96a396" stroke-width="10" opacity="0.5"/><rect x="700" y="1120" width="1000" height="300" rx="40" fill="#97a08c"/><rect x="640" y="1060" width="120" height="380" rx="40" fill="#87907c"/><rect x="1640" y="1060" width="120" height="380" rx="40" fill="#87907c"/><rect x="740" y="1010" width="920" height="180" rx="36" fill="#a3ac97"/><rect x="800" y="1060" width="240" height="160" rx="30" fill="#96a396"/><rect x="1380" y="1060" width="240" height="160" rx="30" fill="#cfc7b2"/><rect x="700" y="1420" width="26" height="120" fill="#6f6353"/><rect x="1674" y="1420" width="26" height="120" fill="#6f6353"/><path d="M360,1520 Q330,820 800,880" fill="none" stroke="#4c4438" stroke-width="16"/><path d="M760,870 L840,880 L810,960 L770,955 Z" fill="#4c4438"/><rect x="300" y="1510" width="130" height="20" rx="10" fill="#4c4438"/><path d="M2080,1500 Q 1918,1243.5 1837,1311" fill="none" stroke="#5d7052" stroke-width="21.6" stroke-linecap="round"/><path d="M2080,1500 Q 1972,1243.5 1918,1257" fill="none" stroke="#5d7052" stroke-width="21.6" stroke-linecap="round"/><path d="M2080,1500 Q 2026,1243.5 1999,1203" fill="none" stroke="#5d7052" stroke-width="21.6" stroke-linecap="round"/><path d="M2080,1500 Q 2080,1243.5 2080,1149" fill="none" stroke="#5d7052" stroke-width="21.6" stroke-linecap="round"/><path d="M2080,1500 Q 2134,1243.5 2161,1203" fill="none" stroke="#5d7052" stroke-width="21.6" stroke-linecap="round"/><path d="M2080,1500 Q 2188,1243.5 2242,1257" fill="none" stroke="#5d7052" stroke-width="21.6" stroke-linecap="round"/><path d="M2080,1500 Q 2242,1243.5 2323,1311" fill="none" stroke="#5d7052" stroke-width="21.6" stroke-linecap="round"/><path d="M1985.5,1500 L2174.5,1500 L2150.2,1648.5 L2009.8,1648.5 Z" fill="#a9714d"/><defs><filter id="a174l-sh" x="-30%" y="-30%" width="160%" height="160%"><feGaussianBlur stdDeviation="16"/></filter></defs><rect x="939" y="217" width="550" height="675" fill="#000" opacity="0.28" filter="url(#a174l-sh)"/><rect x="925" y="195" width="550" height="675" fill="#2e2823"/><rect x="941.3" y="211.3" width="517.5" height="642.5" fill="none" stroke="#00000055" stroke-width="3"/><rect x="950" y="220" width="500" height="625" fill="#f6f2ea"/><svg x="987.5" y="257.5" width="425" height="550" viewBox="0 0 2400 3000" preserveAspectRatio="xMidYMid slice"><rect width="2400" height="3000" fill="#e7e1d3"/><radialGradient id="a174-vig" cx="50%" cy="42%" r="80%"><stop offset="55%" stop-color="#000" stop-opacity="0"/><stop offset="100%" stop-color="#000" stop-opacity="0.15"/></radialGradient><rect width="2400" height="3000" fill="url(#a174-vig)"/><circle cx="1466.7" cy="1511" r="2.3" fill="#39685c" opacity="0.033"/><circle cx="1720.5" cy="320.4" r="4.4" fill="#39685c" opacity="0.048"/><circle cx="1529.4" cy="1764" r="3" fill="#39685c" opacity="0.031"/><circle cx="2335.9" cy="2232.4" r="4.3" fill="#39685c" opacity="0.040"/><circle cx="1097.1" cy="1161.2" r="2.1" fill="#39685c" opacity="0.079"/><circle cx="2143.6" cy="1480" r="1.9" fill="#39685c" opacity="0.067"/><circle cx="1418" cy="1114.1" r="1.9" fill="#39685c" opacity="0.050"/><circle cx="1959.7" cy="437.4" r="3.2" fill="#39685c" opacity="0.063"/><circle cx="2313.7" cy="2744" r="2.2" fill="#39685c" opacity="0.043"/><circle cx="1357.8" cy="1825.3" r="2" fill="#39685c" opacity="0.070"/><circle cx="717.2" cy="1819.5" r="1.6" fill="#39685c" opacity="0.073"/><circle cx="1694" cy="2536.5" r="3.2" fill="#39685c" opacity="0.062"/><circle cx="1871.1" cy="1508.5" r="3.1" fill="#39685c" opacity="0.058"/><circle cx="798" cy="2119.2" r="2.3" fill="#39685c" opacity="0.058"/><circle cx="440.7" cy="511.9" r="3.9" fill="#39685c" opacity="0.061"/><circle cx="1251.4" cy="2811.3" r="2.4" fill="#39685c" opacity="0.058"/><circle cx="1743.1" cy="2619.4" r="2.6" fill="#39685c" opacity="0.076"/><circle cx="1876.5" cy="773" r="2.6" fill="#39685c" opacity="0.060"/><circle cx="2049.2" cy="1385.3" r="4.2" fill="#39685c" opacity="0.054"/><circle cx="49.8" cy="87.4" r="4.1" fill="#39685c" opacity="0.036"/><circle cx="1364.9" cy="1455.5" r="3.9" fill="#39685c" opacity="0.053"/><circle cx="236.4" cy="398.7" r="2.9" fill="#39685c" opacity="0.076"/><circle cx="2295.2" cy="2799.5" r="2.9" fill="#39685c" opacity="0.068"/><circle cx="1169.8" cy="689.5" r="2.7" fill="#39685c" opacity="0.064"/><circle cx="1739.4" cy="1756.6" r="1.8" fill="#39685c" opacity="0.065"/><circle cx="981.4" cy="2248.2" r="2.6" fill="#39685c" opacity="0.066"/><circle cx="1149.7" cy="2344.2" r="4.2" fill="#39685c" opacity="0.061"/><circle cx="1685.1" cy="503.4" r="3" fill="#39685c" opacity="0.061"/><circle cx="550.5" cy="329.2" r="2" fill="#39685c" opacity="0.070"/><circle cx="1679.4" cy="374.3" r="2.5" fill="#39685c" opacity="0.034"/><circle cx="1772.6" cy="2708.4" r="2" fill="#39685c" opacity="0.041"/><circle cx="183.3" cy="1444.3" r="4.1" fill="#39685c" opacity="0.061"/><circle cx="1775.2" cy="1098.6" r="3.9" fill="#39685c" opacity="0.049"/><circle cx="253.7" cy="359.7" r="3.8" fill="#39685c" opacity="0.047"/><circle cx="1871" cy="1714.3" r="3.2" fill="#39685c" opacity="0.054"/><circle cx="1210.2" cy="845.1" r="2.1" fill="#39685c" opacity="0.049"/><circle cx="623" cy="1722.1" r="2.1" fill="#39685c" opacity="0.035"/><circle cx="2320.1" cy="174.1" r="2" fill="#39685c" opacity="0.080"/><circle cx="908.8" cy="917.6" r="3.3" fill="#39685c" opacity="0.038"/><circle cx="968.1" cy="107.5" r="3.9" fill="#39685c" opacity="0.072"/><circle cx="1546.4" cy="1170.7" r="4.1" fill="#39685c" opacity="0.064"/><circle cx="610.1" cy="306.4" r="1.7" fill="#39685c" opacity="0.078"/><circle cx="1758.2" cy="263.5" r="2.4" fill="#39685c" opacity="0.077"/><circle cx="1801.6" cy="537.3" r="4.4" fill="#39685c" opacity="0.079"/><circle cx="1716.8" cy="722.7" r="2" fill="#39685c" opacity="0.065"/><circle cx="54.6" cy="468.1" r="3.1" fill="#39685c" opacity="0.074"/><circle cx="1967.7" cy="1640.9" r="1.7" fill="#39685c" opacity="0.067"/><circle cx="499.2" cy="806.8" r="2.4" fill="#39685c" opacity="0.046"/><circle cx="2088.2" cy="2233.6" r="2.1" fill="#39685c" opacity="0.055"/><circle cx="894" cy="983.6" r="3.3" fill="#39685c" opacity="0.058"/><circle cx="1970.3" cy="2337.4" r="1.6" fill="#39685c" opacity="0.045"/><circle cx="1937.4" cy="983.7" r="4.5" fill="#39685c" opacity="0.058"/><circle cx="788.9" cy="1528.5" r="3" fill="#39685c" opacity="0.075"/><circle cx="2025.9" cy="2927.6" r="3.9" fill="#39685c" opacity="0.054"/><circle cx="1886.2" cy="312.1" r="3.8" fill="#39685c" opacity="0.054"/><circle cx="2292.2" cy="170.3" r="3.4" fill="#39685c" opacity="0.059"/><circle cx="1139.9" cy="1177.9" r="4.3" fill="#39685c" opacity="0.046"/><circle cx="274.3" cy="504.2" r="2.7" fill="#39685c" opacity="0.045"/><circle cx="1468.6" cy="885.3" r="3.4" fill="#39685c" opacity="0.046"/><circle cx="1492.2" cy="1667.1" r="2.1" fill="#39685c" opacity="0.041"/><circle cx="1700.1" cy="1214.5" r="4.3" fill="#39685c" opacity="0.038"/><circle cx="924.3" cy="992.6" r="4.3" fill="#39685c" opacity="0.070"/><circle cx="2091.5" cy="2091.5" r="1.8" fill="#39685c" opacity="0.063"/><circle cx="663.1" cy="81.1" r="3.6" fill="#39685c" opacity="0.077"/><circle cx="341.1" cy="1729.3" r="3.5" fill="#39685c" opacity="0.065"/><circle cx="1956.6" cy="2492.3" r="1.9" fill="#39685c" opacity="0.055"/><circle cx="296.9" cy="1280.4" r="2.5" fill="#39685c" opacity="0.078"/><circle cx="1975.5" cy="217" r="3" fill="#39685c" opacity="0.073"/><circle cx="600.4" cy="2812" r="3.2" fill="#39685c" opacity="0.070"/><circle cx="1000.6" cy="787.9" r="3.4" fill="#39685c" opacity="0.078"/><circle cx="1768.5" cy="2083.8" r="4.3" fill="#39685c" opacity="0.058"/><circle cx="2089.8" cy="1405.4" r="2.3" fill="#39685c" opacity="0.064"/><circle cx="695" cy="2363.4" r="4.4" fill="#39685c" opacity="0.066"/><circle cx="1140.8" cy="58.6" r="1.6" fill="#39685c" opacity="0.048"/><circle cx="1617.9" cy="482.7" r="2.3" fill="#39685c" opacity="0.045"/><circle cx="764.9" cy="2815.8" r="2.9" fill="#39685c" opacity="0.043"/><circle cx="1824.9" cy="1414.4" r="2.5" fill="#39685c" opacity="0.047"/><circle cx="1397.7" cy="1748.6" r="2.2" fill="#39685c" opacity="0.044"/><circle cx="801.2" cy="1092.9" r="1.6" fill="#39685c" opacity="0.032"/><circle cx="2194.7" cy="292.9" r="4.5" fill="#39685c" opacity="0.058"/><rect x="190" y="190" width="2020" height="2620" fill="none" stroke="#39685c" stroke-width="14"/><rect x="260" y="260" width="1880" height="2480" fill="none" stroke="#39685c" stroke-width="7"/><rect x="148" y="148" width="84" height="84" fill="#96a396"/><rect x="148" y="2768" width="84" height="84" fill="#96a396"/><rect x="2168" y="148" width="84" height="84" fill="#96a396"/><rect x="2168" y="2768" width="84" height="84" fill="#96a396"/><ellipse cx="1200" cy="960" rx="230" ry="300" fill="none" stroke="#39685c" stroke-width="110"/><rect x="1148" y="1230" width="104" height="900" rx="40" fill="#39685c"/><rect x="800" y="1230" width="800" height="104" rx="40" fill="#39685c"/><circle cx="1200" cy="960" r="66" fill="#96a396"/><polygon points="963,2420 975.3,2451.2 1006.5,2463.5 975.3,2475.8 963,2507 950.7,2475.8 919.5,2463.5 950.7,2451.2 " fill="#96a396"/><polygon points="1631.4,2539.9 1643.8,2571.5 1675.4,2583.9 1643.8,2596.4 1631.4,2627.9 1618.9,2596.4 1587.4,2583.9 1618.9,2571.5 " fill="#96a396"/><polygon points="1326.7,395 1335.1,416.2 1356.2,424.5 1335.1,432.9 1326.7,454 1318.4,432.9 1297.2,424.5 1318.4,416.2 " fill="#96a396"/><polygon points="1848.8,496.4 1858,519.9 1881.5,529.1 1858,538.4 1848.8,561.9 1839.5,538.4 1816,529.1 1839.5,519.9 " fill="#96a396"/><polygon points="696,2452.9 704.5,2474.4 726,2482.8 704.5,2491.3 696,2512.8 687.5,2491.3 666,2482.8 687.5,2474.4 " fill="#96a396"/><polygon points="772.4,2557.6 781.4,2580.4 804.2,2589.4 781.4,2598.4 772.4,2621.2 763.4,2598.4 740.6,2589.4 763.4,2580.4 " fill="#96a396"/><rect x="100" y="100" width="2200" height="2800" fill="none" stroke="#39685c" stroke-width="9"/><rect x="142" y="142" width="2116" height="2716" fill="none" stroke="#39685c" stroke-width="3" opacity="0.65"/></svg></svg>