<svg xmlns="http://www.w3.org/2000/svg" width="2400" height="1800" viewBox="0 0 2400 1800"><rect width="2400" height="1800" fill="#e9e1d2"/><rect y="1430" width="2400" height="370" fill="#c8b190"/><line x1="120" y1="1430" x2="60" y2="1800" stroke="#00000018" stroke-width="6"/><line x1="380" y1="1430" x2="320" y2="1800" stroke="#00000018" stroke-width="6"/><line x1="640" y1="1430" x2="580" y2="1800" stroke="#00000018" stroke-width="6"/><line x1="900" y1="1430" x2="840" y2="1800" stroke="#00000018" stroke-width="6"/><line x1="1160" y1="1430" x2="1100" y2="1800" stroke="#00000018" stroke-width="6"/><line x1="1420" y1="1430" x2="1360" y2="1800" stroke="#00000018" stroke-width="6"/><line x1="1680" y1="1430" x2="1620" y2="1800" stroke="#00000018" stroke-width="6"/><line x1="1940" y1="1430" x2="1880" y2="1800" stroke="#00000018" stroke-width="6"/><line x1="2200" y1="1430" x2="2140" y2="1800" stroke="#00000018" stroke-width="6"/><rect y="1418" width="2400" height="16" fill="#d7cbb6"/><rect x="700" y="980" width="1000" height="460" rx="26" fill="#a87e57"/><rect x="660" y="1290" width="1080" height="210" rx="30" fill="#f1ebdf"/><rect x="660" y="1420" width="1080" height="120" rx="24" fill="#e0a077" opacity="0.85"/><rect x="770" y="1180" width="300" height="150" rx="40" fill="#faf6ec"/><rect x="1330" y="1180" width="300" height="150" rx="40" fill="#4a2c1c"/><rect x="640" y="1530" width="1120" height="26" rx="12" fill="#a87e57"/><rect x="360" y="1260" width="240" height="220" rx="10" fill="#a87e57"/><rect x="380" y="1300" width="200" height="14" fill="#00000022"/><line x1="480" y1="1260" x2="480" y2="1130" stroke="#5a4632" stroke-width="12"/><path d="M410,1130 L550,1130 L520,1020 L440,1020 Z" fill="#e0a077"/><path d="M2060,1520 Q 1910,1282.5 1835,1345" fill="none" stroke="#5d7052" stroke-width="20" stroke-linecap="round"/><path d="M2060,1520 Q 1960,1282.5 1910,1295" fill="none" stroke="#5d7052" stroke-width="20" stroke-linecap="round"/><path d="M2060,1520 Q 2010,1282.5 1985,1245" fill="none" stroke="#5d7052" stroke-width="20" stroke-linecap="round"/><path d="M2060,1520 Q 2060,1282.5 2060,1195" fill="none" stroke="#5d7052" stroke-width="20" stroke-linecap="round"/><path d="M2060,1520 Q 2110,1282.5 2135,1245" fill="none" stroke="#5d7052" stroke-width="20" stroke-linecap="round"/><path d="M2060,1520 Q 2160,1282.5 2210,1295" fill="none" stroke="#5d7052" stroke-width="20" stroke-linecap="round"/><path d="M2060,1520 Q 2210,1282.5 2285,1345" fill="none" stroke="#5d7052" stroke-width="20" stroke-linecap="round"/><path d="M1972.5,1520 L2147.5,1520 L2125,1657.5 L1995,1657.5 Z" fill="#a9714d"/><defs><filter id="a149b-sh" x="-30%" y="-30%" width="160%" height="160%"><feGaussianBlur stdDeviation="16"/></filter></defs><rect x="928" y="246" width="572" height="702" fill="#000" opacity="0.28" filter="url(#a149b-sh)"/><rect x="914" y="224" width="572" height="702" fill="#4a3d2f"/><rect x="930.9" y="240.9" width="538.2" height="668.2" fill="none" stroke="#00000055" stroke-width="3"/><rect x="940" y="250" width="520" height="650" fill="#f6f2ea"/><svg x="979" y="289" width="442" height="572" viewBox="0 0 2400 3000" preserveAspectRatio="xMidYMid slice"><rect width="2400" height="3000" fill="#211510"/><radialGradient id="a149-vig" cx="50%" cy="42%" r="80%"><stop offset="55%" stop-color="#000" stop-opacity="0"/><stop offset="100%" stop-color="#000" stop-opacity="0.15"/></radialGradient><rect width="2400" height="3000" fill="url(#a149-vig)"/><circle cx="1322.9" cy="1311.7" r="3.5" fill="#c8703f" opacity="0.036"/><circle cx="1542.9" cy="2953.8" r="3.9" fill="#c8703f" opacity="0.043"/><circle cx="2279.5" cy="1067.2" r="3.8" fill="#c8703f" opacity="0.058"/><circle cx="408.2" cy="317.8" r="3.9" fill="#c8703f" opacity="0.079"/><circle cx="592.8" cy="670.2" r="2.5" fill="#c8703f" opacity="0.058"/><circle cx="1186.9" cy="2243.1" r="1.8" fill="#c8703f" opacity="0.036"/><circle cx="1767.8" cy="1730.2" r="2.9" fill="#c8703f" opacity="0.078"/><circle cx="1287.2" cy="2734.9" r="3.3" fill="#c8703f" opacity="0.047"/><circle cx="1525.5" cy="1258.8" r="1.6" fill="#c8703f" opacity="0.056"/><circle cx="611.5" cy="780.7" r="1.5" fill="#c8703f" opacity="0.058"/><circle cx="1728.5" cy="75.8" r="3.6" fill="#c8703f" opacity="0.062"/><circle cx="618.7" cy="2571.8" r="3.1" fill="#c8703f" opacity="0.047"/><circle cx="591.7" cy="119.6" r="2" fill="#c8703f" opacity="0.076"/><circle cx="817.6" cy="794.5" r="3" fill="#c8703f" opacity="0.063"/><circle cx="1816.9" cy="374.4" r="3.2" fill="#c8703f" opacity="0.033"/><circle cx="865.5" cy="1725.7" r="1.8" fill="#c8703f" opacity="0.040"/><circle cx="836.5" cy="2892.7" r="2.5" fill="#c8703f" opacity="0.063"/><circle cx="457.1" cy="2276.4" r="3.2" fill="#c8703f" opacity="0.059"/><circle cx="41.8" cy="1293.3" r="2.5" fill="#c8703f" opacity="0.063"/><circle cx="1508.8" cy="1628.9" r="2.7" fill="#c8703f" opacity="0.067"/><circle cx="1968.3" cy="2821.1" r="3.7" fill="#c8703f" opacity="0.035"/><circle cx="341.6" cy="1695.7" r="4.2" fill="#c8703f" opacity="0.075"/><circle cx="523.8" cy="76.4" r="3.6" fill="#c8703f" opacity="0.071"/><circle cx="1912" cy="274" r="1.7" fill="#c8703f" opacity="0.070"/><circle cx="2329.3" cy="1120.4" r="2.7" fill="#c8703f" opacity="0.061"/><circle cx="244.2" cy="2251.3" r="2" fill="#c8703f" opacity="0.049"/><circle cx="1433.7" cy="2427" r="4.5" fill="#c8703f" opacity="0.074"/><circle cx="1509.3" cy="258.1" r="4" fill="#c8703f" opacity="0.052"/><circle cx="666.4" cy="375.9" r="2.1" fill="#c8703f" opacity="0.058"/><circle cx="1000.8" cy="144.5" r="2.6" fill="#c8703f" opacity="0.080"/><circle cx="1117.2" cy="1372.1" r="3.8" fill="#c8703f" opacity="0.051"/><circle cx="2215.1" cy="2064.5" r="1.6" fill="#c8703f" opacity="0.046"/><circle cx="1982.4" cy="1219.2" r="3.7" fill="#c8703f" opacity="0.038"/><circle cx="1589.2" cy="1591.9" r="4.2" fill="#c8703f" opacity="0.047"/><circle cx="418.5" cy="691.1" r="1.5" fill="#c8703f" opacity="0.032"/><circle cx="44.8" cy="350.4" r="3.3" fill="#c8703f" opacity="0.061"/><circle cx="42.8" cy="662.3" r="2.4" fill="#c8703f" opacity="0.079"/><circle cx="325.2" cy="2121.9" r="2" fill="#c8703f" opacity="0.048"/><circle cx="2019" cy="2945.1" r="2.5" fill="#c8703f" opacity="0.055"/><circle cx="1145.4" cy="2154" r="2.5" fill="#c8703f" opacity="0.030"/><circle cx="1876.9" cy="2619.1" r="1.7" fill="#c8703f" opacity="0.041"/><circle cx="344.7" cy="2562" r="4.1" fill="#c8703f" opacity="0.040"/><circle cx="550.9" cy="1741.2" r="3.5" fill="#c8703f" opacity="0.055"/><circle cx="2132.7" cy="2834.3" r="4.4" fill="#c8703f" opacity="0.049"/><circle cx="1053.7" cy="1673.8" r="3.3" fill="#c8703f" opacity="0.070"/><circle cx="552.6" cy="639" r="3.1" fill="#c8703f" opacity="0.054"/><circle cx="632.2" cy="563.6" r="2.5" fill="#c8703f" opacity="0.053"/><circle cx="2319.5" cy="330.2" r="2.8" fill="#c8703f" opacity="0.047"/><circle cx="642.2" cy="2087.7" r="2.7" fill="#c8703f" opacity="0.053"/><circle cx="42.4" cy="2170" r="3.3" fill="#c8703f" opacity="0.061"/><circle cx="1429.7" cy="1211.3" r="1.9" fill="#c8703f" opacity="0.070"/><circle cx="1245" cy="1549.2" r="2.4" fill="#c8703f" opacity="0.061"/><circle cx="1285.9" cy="1406.8" r="4" fill="#c8703f" opacity="0.063"/><circle cx="1085" cy="1351.2" r="2.9" fill="#c8703f" opacity="0.043"/><circle cx="130.6" cy="1754.1" r="2.7" fill="#c8703f" opacity="0.051"/><circle cx="1372.4" cy="2663.5" r="3.8" fill="#c8703f" opacity="0.071"/><circle cx="1365.7" cy="347.6" r="2.9" fill="#c8703f" opacity="0.039"/><circle cx="632.4" cy="1675.8" r="2.2" fill="#c8703f" opacity="0.078"/><circle cx="1945.9" cy="869.2" r="2.4" fill="#c8703f" opacity="0.031"/><circle cx="69.8" cy="324.8" r="1.7" fill="#c8703f" opacity="0.041"/><circle cx="1172.9" cy="2627" r="2.6" fill="#c8703f" opacity="0.070"/><circle cx="1180.1" cy="1835.8" r="2.3" fill="#c8703f" opacity="0.051"/><circle cx="2093.1" cy="1834.2" r="1.9" fill="#c8703f" opacity="0.069"/><circle cx="2336.3" cy="820.7" r="3.5" fill="#c8703f" opacity="0.038"/><circle cx="1612.4" cy="2898.6" r="2.4" fill="#c8703f" opacity="0.043"/><circle cx="1807" cy="1685.3" r="3.9" fill="#c8703f" opacity="0.053"/><circle cx="874.2" cy="1993.5" r="2.2" fill="#c8703f" opacity="0.049"/><circle cx="2130.9" cy="1390.2" r="3.5" fill="#c8703f" opacity="0.052"/><circle cx="281.6" cy="153.4" r="1.7" fill="#c8703f" opacity="0.038"/><circle cx="790.1" cy="986" r="4.2" fill="#c8703f" opacity="0.069"/><circle cx="869.3" cy="672.1" r="3.3" fill="#c8703f" opacity="0.059"/><circle cx="1361.8" cy="1502.3" r="2.5" fill="#c8703f" opacity="0.065"/><circle cx="2059.2" cy="651.7" r="1.7" fill="#c8703f" opacity="0.074"/><circle cx="195.9" cy="2067.3" r="4.3" fill="#c8703f" opacity="0.044"/><circle cx="1817.7" cy="2777.3" r="1.7" fill="#c8703f" opacity="0.033"/><circle cx="695.1" cy="1914.4" r="4.1" fill="#c8703f" opacity="0.061"/><circle cx="971.7" cy="112.6" r="3.3" fill="#c8703f" opacity="0.039"/><circle cx="1203" cy="613.9" r="3.5" fill="#c8703f" opacity="0.046"/><circle cx="1276.3" cy="2933.1" r="1.8" fill="#c8703f" opacity="0.080"/><circle cx="202.1" cy="1406.2" r="3.8" fill="#c8703f" opacity="0.067"/><circle cx="923.1" cy="958.6" r="390.3" fill="#e0a077" opacity="0.95"/><line x1="200" y1="2430" x2="2200" y2="2430" stroke="#c8703f" stroke-width="16"/><rect x="610" y="2340" width="440" height="90" fill="#c8703f"/><rect x="671.6" y="2260" width="316.8" height="80" fill="#c8703f"/><path d="M720,2260 L761.8,962.8 L898.2,962.8 L940,2260 Z" fill="#c8703f"/><polygon points="830,812.8 761.8,964.8 898.2,964.8" fill="#e0a077"/><circle cx="830" cy="1072.8" r="18.400000000000002" fill="none" stroke="#211510" stroke-width="10" opacity="0.9"/><line x1="830" y1="1091.2" x2="830" y2="1118.8" stroke="#211510" stroke-width="10" opacity="0.9"/><polygon points="830,1159.8 807,1205.8 853,1205.8" fill="#211510" opacity="0.9"/><rect x="807" y="1284.8" width="46" height="16" fill="#211510" opacity="0.9"/><polygon points="830,1379.8 807,1425.8 853,1425.8" fill="#211510" opacity="0.9"/><rect x="807" y="1504.8" width="46" height="16" fill="#211510" opacity="0.9"/><circle cx="830" cy="1622.8" r="19.32" fill="#211510" opacity="0.9"/><polyline points="784,1746.8 807,1720.8 830,1746.8 853,1720.8 876,1746.8 " fill="none" stroke="#211510" stroke-width="4.7" stroke-linejoin="miter"/><polygon points="830,1819.8 807,1865.8 853,1865.8" fill="#211510" opacity="0.9"/><polygon points="830,1929.8 807,1975.8 853,1975.8" fill="#211510" opacity="0.9"/><circle cx="830" cy="2062.8" r="18.400000000000002" fill="none" stroke="#211510" stroke-width="10" opacity="0.9"/><line x1="830" y1="2081.2" x2="830" y2="2108.8" stroke="#211510" stroke-width="10" opacity="0.9"/><rect x="1350" y="2340" width="440" height="90" fill="#c8703f"/><rect x="1411.6" y="2260" width="316.8" height="80" fill="#c8703f"/><path d="M1460,2260 L1501.8,1160.1 L1638.2,1160.1 L1680,2260 Z" fill="#c8703f"/><polygon points="1570,1010.1 1501.8,1162.1 1638.2,1162.1" fill="#e0a077"/><rect x="1547" y="1262.1" width="46" height="16" fill="#211510" opacity="0.9"/><rect x="1547" y="1372.1" width="46" height="16" fill="#211510" opacity="0.9"/><polyline points="1524,1504.1 1547,1478.1 1570,1504.1 1593,1478.1 1616,1504.1 " fill="none" stroke="#211510" stroke-width="4.7" stroke-linejoin="miter"/><polygon points="1570,1577.1 1547,1623.1 1593,1623.1" fill="#211510" opacity="0.9"/><circle cx="1570" cy="1710.1" r="19.32" fill="#211510" opacity="0.9"/><polyline points="1524,1834.1 1547,1808.1 1570,1834.1 1593,1808.1 1616,1834.1 " fill="none" stroke="#211510" stroke-width="4.7" stroke-linejoin="miter"/><polyline points="1524,1944.1 1547,1918.1 1570,1944.1 1593,1918.1 1616,1944.1 " fill="none" stroke="#211510" stroke-width="4.7" stroke-linejoin="miter"/><rect x="1547" y="2032.1" width="46" height="16" fill="#211510" opacity="0.9"/><rect x="200" y="2770" width="2000" height="13.3" fill="#c8703f"/><rect x="200" y="2782.8" width="2000" height="13.3" fill="#e0a077"/><rect x="200" y="2795.6" width="2000" height="13.3" fill="#c8703f"/><rect x="200" y="2808.4" width="2000" height="13.3" fill="#4a2c1c"/><rect x="200" y="2821.2" width="2000" height="13.3" fill="#c8703f"/><rect x="100" y="100" width="2200" height="2800" fill="none" stroke="#c8703f" stroke-width="9"/><rect x="142" y="142" width="2116" height="2716" fill="none" stroke="#c8703f" stroke-width="3" opacity="0.65"/></svg></svg>