<svg xmlns="http://www.w3.org/2000/svg" width="2400" height="1800" viewBox="0 0 2400 1800"><rect width="2400" height="1800" fill="#e9e1d2"/><rect y="1430" width="2400" height="370" fill="#c8b190"/><line x1="120" y1="1430" x2="60" y2="1800" stroke="#00000018" stroke-width="6"/><line x1="380" y1="1430" x2="320" y2="1800" stroke="#00000018" stroke-width="6"/><line x1="640" y1="1430" x2="580" y2="1800" stroke="#00000018" stroke-width="6"/><line x1="900" y1="1430" x2="840" y2="1800" stroke="#00000018" stroke-width="6"/><line x1="1160" y1="1430" x2="1100" y2="1800" stroke="#00000018" stroke-width="6"/><line x1="1420" y1="1430" x2="1360" y2="1800" stroke="#00000018" stroke-width="6"/><line x1="1680" y1="1430" x2="1620" y2="1800" stroke="#00000018" stroke-width="6"/><line x1="1940" y1="1430" x2="1880" y2="1800" stroke="#00000018" stroke-width="6"/><line x1="2200" y1="1430" x2="2140" y2="1800" stroke="#00000018" stroke-width="6"/><rect y="1418" width="2400" height="16" fill="#d7cbb6"/><rect x="700" y="980" width="1000" height="460" rx="26" fill="#a87e57"/><rect x="660" y="1290" width="1080" height="210" rx="30" fill="#f1ebdf"/><rect x="660" y="1420" width="1080" height="120" rx="24" fill="#87681c" opacity="0.85"/><rect x="770" y="1180" width="300" height="150" rx="40" fill="#faf6ec"/><rect x="1330" y="1180" width="300" height="150" rx="40" fill="#233142"/><rect x="640" y="1530" width="1120" height="26" rx="12" fill="#a87e57"/><rect x="360" y="1260" width="240" height="220" rx="10" fill="#a87e57"/><rect x="380" y="1300" width="200" height="14" fill="#00000022"/><line x1="480" y1="1260" x2="480" y2="1130" stroke="#5a4632" stroke-width="12"/><path d="M410,1130 L550,1130 L520,1020 L440,1020 Z" fill="#87681c"/><path d="M2060,1520 Q 1910,1282.5 1835,1345" fill="none" stroke="#5d7052" stroke-width="20" stroke-linecap="round"/><path d="M2060,1520 Q 1960,1282.5 1910,1295" fill="none" stroke="#5d7052" stroke-width="20" stroke-linecap="round"/><path d="M2060,1520 Q 2010,1282.5 1985,1245" fill="none" stroke="#5d7052" stroke-width="20" stroke-linecap="round"/><path d="M2060,1520 Q 2060,1282.5 2060,1195" fill="none" stroke="#5d7052" stroke-width="20" stroke-linecap="round"/><path d="M2060,1520 Q 2110,1282.5 2135,1245" fill="none" stroke="#5d7052" stroke-width="20" stroke-linecap="round"/><path d="M2060,1520 Q 2160,1282.5 2210,1295" fill="none" stroke="#5d7052" stroke-width="20" stroke-linecap="round"/><path d="M2060,1520 Q 2210,1282.5 2285,1345" fill="none" stroke="#5d7052" stroke-width="20" stroke-linecap="round"/><path d="M1972.5,1520 L2147.5,1520 L2125,1657.5 L1995,1657.5 Z" fill="#a9714d"/><defs><filter id="a144b-sh" x="-30%" y="-30%" width="160%" height="160%"><feGaussianBlur stdDeviation="16"/></filter></defs><rect x="928" y="246" width="572" height="702" fill="#000" opacity="0.28" filter="url(#a144b-sh)"/><rect x="914" y="224" width="572" height="702" fill="#4a3d2f"/><rect x="930.9" y="240.9" width="538.2" height="668.2" fill="none" stroke="#00000055" stroke-width="3"/><rect x="940" y="250" width="520" height="650" fill="#f6f2ea"/><svg x="979" y="289" width="442" height="572" viewBox="0 0 2400 3000" preserveAspectRatio="xMidYMid slice"><rect width="2400" height="3000" fill="#141b25"/><radialGradient id="a144-vig" cx="50%" cy="42%" r="80%"><stop offset="55%" stop-color="#000" stop-opacity="0"/><stop offset="100%" stop-color="#000" stop-opacity="0.15"/></radialGradient><rect width="2400" height="3000" fill="url(#a144-vig)"/><circle cx="1575.3" cy="767.2" r="2.8" fill="#c9a227" opacity="0.041"/><circle cx="1629.2" cy="79" r="2.8" fill="#c9a227" opacity="0.041"/><circle cx="904.7" cy="266.5" r="3.8" fill="#c9a227" opacity="0.032"/><circle cx="141.1" cy="1924.1" r="2.8" fill="#c9a227" opacity="0.059"/><circle cx="2349.3" cy="2571.9" r="2.7" fill="#c9a227" opacity="0.061"/><circle cx="684" cy="1367.5" r="4.2" fill="#c9a227" opacity="0.030"/><circle cx="2259.1" cy="2637" r="2.4" fill="#c9a227" opacity="0.035"/><circle cx="640.1" cy="518.6" r="3.3" fill="#c9a227" opacity="0.056"/><circle cx="1211.5" cy="1304.4" r="1.5" fill="#c9a227" opacity="0.044"/><circle cx="2115.4" cy="2671.7" r="4.4" fill="#c9a227" opacity="0.073"/><circle cx="204.6" cy="1656.6" r="3.6" fill="#c9a227" opacity="0.036"/><circle cx="1177" cy="1145.9" r="2.7" fill="#c9a227" opacity="0.073"/><circle cx="1600.3" cy="1374.4" r="2.3" fill="#c9a227" opacity="0.033"/><circle cx="881.2" cy="2180" r="4.4" fill="#c9a227" opacity="0.040"/><circle cx="1472.1" cy="1184.1" r="3.1" fill="#c9a227" opacity="0.069"/><circle cx="2065.7" cy="1471.5" r="3.2" fill="#c9a227" opacity="0.080"/><circle cx="2181.4" cy="2449.6" r="2.4" fill="#c9a227" opacity="0.063"/><circle cx="1811.2" cy="812.3" r="3.3" fill="#c9a227" opacity="0.065"/><circle cx="467.6" cy="2356" r="3.8" fill="#c9a227" opacity="0.031"/><circle cx="1603.3" cy="1341.6" r="4.3" fill="#c9a227" opacity="0.049"/><circle cx="515.7" cy="973.3" r="3.4" fill="#c9a227" opacity="0.079"/><circle cx="606.6" cy="550.1" r="2.8" fill="#c9a227" opacity="0.054"/><circle cx="1378.6" cy="1051.8" r="2.6" fill="#c9a227" opacity="0.079"/><circle cx="2347.4" cy="1458.2" r="3.1" fill="#c9a227" opacity="0.060"/><circle cx="2255.6" cy="1455.2" r="2.2" fill="#c9a227" opacity="0.053"/><circle cx="1718.2" cy="2952.6" r="3.4" fill="#c9a227" opacity="0.058"/><circle cx="925.7" cy="2284.9" r="3.7" fill="#c9a227" opacity="0.033"/><circle cx="76.9" cy="253.8" r="2.5" fill="#c9a227" opacity="0.052"/><circle cx="852.2" cy="1391.4" r="1.5" fill="#c9a227" opacity="0.050"/><circle cx="257.4" cy="941.4" r="3.1" fill="#c9a227" opacity="0.074"/><circle cx="633" cy="1276.7" r="2.7" fill="#c9a227" opacity="0.049"/><circle cx="1530.4" cy="955" r="3.9" fill="#c9a227" opacity="0.065"/><circle cx="1125.5" cy="902.9" r="3.6" fill="#c9a227" opacity="0.059"/><circle cx="784" cy="982.1" r="2.3" fill="#c9a227" opacity="0.039"/><circle cx="484.5" cy="2744.3" r="3.2" fill="#c9a227" opacity="0.043"/><circle cx="2348.3" cy="199.4" r="4" fill="#c9a227" opacity="0.035"/><circle cx="245.1" cy="1539.6" r="1.6" fill="#c9a227" opacity="0.034"/><circle cx="1310.7" cy="2220" r="3.4" fill="#c9a227" opacity="0.070"/><circle cx="2125.8" cy="2016.6" r="3.3" fill="#c9a227" opacity="0.077"/><circle cx="2193" cy="1898.3" r="3.7" fill="#c9a227" opacity="0.054"/><circle cx="1864.2" cy="757.4" r="3.2" fill="#c9a227" opacity="0.055"/><circle cx="125.8" cy="2060.7" r="3.7" fill="#c9a227" opacity="0.054"/><circle cx="2093.7" cy="2055.1" r="3.8" fill="#c9a227" opacity="0.064"/><circle cx="942.9" cy="423.6" r="2.7" fill="#c9a227" opacity="0.033"/><circle cx="2322.5" cy="270.5" r="2.4" fill="#c9a227" opacity="0.050"/><circle cx="73" cy="2633.5" r="2.2" fill="#c9a227" opacity="0.048"/><circle cx="2223.4" cy="2325.8" r="3.2" fill="#c9a227" opacity="0.043"/><circle cx="1218.6" cy="317.9" r="3.8" fill="#c9a227" opacity="0.058"/><circle cx="2236.4" cy="1344.2" r="3.1" fill="#c9a227" opacity="0.079"/><circle cx="247.4" cy="2064.3" r="4" fill="#c9a227" opacity="0.030"/><circle cx="266.2" cy="2075.5" r="1.9" fill="#c9a227" opacity="0.032"/><circle cx="867.6" cy="2547" r="2.2" fill="#c9a227" opacity="0.075"/><circle cx="1590.6" cy="2466.7" r="3.7" fill="#c9a227" opacity="0.069"/><circle cx="598.8" cy="1013.8" r="4.4" fill="#c9a227" opacity="0.051"/><circle cx="1957.2" cy="1279.4" r="2.1" fill="#c9a227" opacity="0.040"/><circle cx="97.9" cy="1403.5" r="3.1" fill="#c9a227" opacity="0.037"/><circle cx="2111.2" cy="161.3" r="2.8" fill="#c9a227" opacity="0.043"/><circle cx="1538.3" cy="2624" r="3.8" fill="#c9a227" opacity="0.053"/><circle cx="92.7" cy="798" r="4" fill="#c9a227" opacity="0.066"/><circle cx="253.4" cy="2649.9" r="4" fill="#c9a227" opacity="0.031"/><circle cx="1072.8" cy="2224.2" r="4.5" fill="#c9a227" opacity="0.032"/><circle cx="1312.6" cy="1715.2" r="3" fill="#c9a227" opacity="0.033"/><circle cx="571.9" cy="1344.7" r="2.6" fill="#c9a227" opacity="0.057"/><circle cx="2092.6" cy="947.1" r="4" fill="#c9a227" opacity="0.036"/><circle cx="2231.5" cy="1887.5" r="4.1" fill="#c9a227" opacity="0.076"/><circle cx="66.7" cy="943.5" r="3.9" fill="#c9a227" opacity="0.034"/><circle cx="2315" cy="2700" r="1.9" fill="#c9a227" opacity="0.052"/><circle cx="1917" cy="2051.2" r="2.4" fill="#c9a227" opacity="0.077"/><circle cx="2040.3" cy="669.7" r="1.6" fill="#c9a227" opacity="0.065"/><circle cx="628" cy="540.6" r="3.2" fill="#c9a227" opacity="0.048"/><circle cx="1127.5" cy="47.8" r="2.6" fill="#c9a227" opacity="0.078"/><circle cx="1898.8" cy="1825" r="3.5" fill="#c9a227" opacity="0.041"/><circle cx="2132" cy="1030.3" r="2.7" fill="#c9a227" opacity="0.041"/><circle cx="970.4" cy="172.6" r="2.1" fill="#c9a227" opacity="0.046"/><circle cx="1645.7" cy="103.1" r="3.6" fill="#c9a227" opacity="0.052"/><circle cx="1132.9" cy="526.7" r="1.9" fill="#c9a227" opacity="0.038"/><circle cx="1635.7" cy="1919.7" r="2.4" fill="#c9a227" opacity="0.070"/><circle cx="1173" cy="437.9" r="4.4" fill="#c9a227" opacity="0.043"/><circle cx="192.2" cy="1323" r="2.8" fill="#c9a227" opacity="0.074"/><circle cx="601.6" cy="2288.5" r="2.1" fill="#c9a227" opacity="0.070"/><circle cx="1154.1" cy="839.1" r="395.9" fill="#87681c" opacity="0.95"/><line x1="200" y1="2430" x2="2200" y2="2430" stroke="#c9a227" stroke-width="16"/><rect x="610" y="2340" width="440" height="90" fill="#c9a227"/><rect x="671.6" y="2260" width="316.8" height="80" fill="#c9a227"/><path d="M720,2260 L761.8,1008.9 L898.2,1008.9 L940,2260 Z" fill="#c9a227"/><polygon points="830,858.9 761.8,1010.9 898.2,1010.9" fill="#87681c"/><circle cx="830" cy="1118.9" r="18.400000000000002" fill="none" stroke="#141b25" stroke-width="10" opacity="0.9"/><line x1="830" y1="1137.3" x2="830" y2="1164.9" stroke="#141b25" stroke-width="10" opacity="0.9"/><circle cx="830" cy="1228.9" r="18.400000000000002" fill="none" stroke="#141b25" stroke-width="10" opacity="0.9"/><line x1="830" y1="1247.3" x2="830" y2="1274.9" stroke="#141b25" stroke-width="10" opacity="0.9"/><rect x="807" y="1330.9" width="46" height="16" fill="#141b25" opacity="0.9"/><polyline points="784,1462.9 807,1436.9 830,1462.9 853,1436.9 876,1462.9 " fill="none" stroke="#141b25" stroke-width="4.7" stroke-linejoin="miter"/><polyline points="784,1572.9 807,1546.9 830,1572.9 853,1546.9 876,1572.9 " fill="none" stroke="#141b25" stroke-width="4.7" stroke-linejoin="miter"/><circle cx="830" cy="1668.9" r="19.32" fill="#141b25" opacity="0.9"/><polygon points="830,1755.9 807,1801.9 853,1801.9" fill="#141b25" opacity="0.9"/><circle cx="830" cy="1888.9" r="18.400000000000002" fill="none" stroke="#141b25" stroke-width="10" opacity="0.9"/><line x1="830" y1="1907.3" x2="830" y2="1934.9" stroke="#141b25" stroke-width="10" opacity="0.9"/><circle cx="830" cy="1998.9" r="18.400000000000002" fill="none" stroke="#141b25" stroke-width="10" opacity="0.9"/><line x1="830" y1="2017.3" x2="830" y2="2044.9" stroke="#141b25" stroke-width="10" opacity="0.9"/><polygon points="830,2085.9 807,2131.9 853,2131.9" fill="#141b25" opacity="0.9"/><rect x="1350" y="2340" width="440" height="90" fill="#c9a227"/><rect x="1411.6" y="2260" width="316.8" height="80" fill="#c9a227"/><path d="M1460,2260 L1501.8,1172.3 L1638.2,1172.3 L1680,2260 Z" fill="#c9a227"/><polygon points="1570,1022.3 1501.8,1174.3 1638.2,1174.3" fill="#87681c"/><circle cx="1570" cy="1282.3" r="18.400000000000002" fill="none" stroke="#141b25" stroke-width="10" opacity="0.9"/><line x1="1570" y1="1300.7" x2="1570" y2="1328.3" stroke="#141b25" stroke-width="10" opacity="0.9"/><circle cx="1570" cy="1392.3" r="19.32" fill="#141b25" opacity="0.9"/><circle cx="1570" cy="1502.3" r="19.32" fill="#141b25" opacity="0.9"/><circle cx="1570" cy="1612.3" r="18.400000000000002" fill="none" stroke="#141b25" stroke-width="10" opacity="0.9"/><line x1="1570" y1="1630.7" x2="1570" y2="1658.3" stroke="#141b25" stroke-width="10" opacity="0.9"/><circle cx="1570" cy="1722.3" r="18.400000000000002" fill="none" stroke="#141b25" stroke-width="10" opacity="0.9"/><line x1="1570" y1="1740.7" x2="1570" y2="1768.3" stroke="#141b25" stroke-width="10" opacity="0.9"/><polygon points="1570,1809.3 1547,1855.3 1593,1855.3" fill="#141b25" opacity="0.9"/><rect x="1547" y="1934.3" width="46" height="16" fill="#141b25" opacity="0.9"/><circle cx="1570" cy="2052.3" r="19.32" fill="#141b25" opacity="0.9"/><rect x="200" y="2770" width="2000" height="13.3" fill="#c9a227"/><rect x="200" y="2782.8" width="2000" height="13.3" fill="#87681c"/><rect x="200" y="2795.6" width="2000" height="13.3" fill="#c9a227"/><rect x="200" y="2808.4" width="2000" height="13.3" fill="#233142"/><rect x="200" y="2821.2" width="2000" height="13.3" fill="#c9a227"/><rect x="100" y="100" width="2200" height="2800" fill="none" stroke="#c9a227" stroke-width="9"/><rect x="142" y="142" width="2116" height="2716" fill="none" stroke="#c9a227" stroke-width="3" opacity="0.65"/></svg></svg>