<svg xmlns="http://www.w3.org/2000/svg" width="2400" height="1800" viewBox="0 0 2400 1800"><rect width="2400" height="1800" fill="#e9e1d2"/><rect y="1430" width="2400" height="370" fill="#c8b190"/><line x1="120" y1="1430" x2="60" y2="1800" stroke="#00000018" stroke-width="6"/><line x1="380" y1="1430" x2="320" y2="1800" stroke="#00000018" stroke-width="6"/><line x1="640" y1="1430" x2="580" y2="1800" stroke="#00000018" stroke-width="6"/><line x1="900" y1="1430" x2="840" y2="1800" stroke="#00000018" stroke-width="6"/><line x1="1160" y1="1430" x2="1100" y2="1800" stroke="#00000018" stroke-width="6"/><line x1="1420" y1="1430" x2="1360" y2="1800" stroke="#00000018" stroke-width="6"/><line x1="1680" y1="1430" x2="1620" y2="1800" stroke="#00000018" stroke-width="6"/><line x1="1940" y1="1430" x2="1880" y2="1800" stroke="#00000018" stroke-width="6"/><line x1="2200" y1="1430" x2="2140" y2="1800" stroke="#00000018" stroke-width="6"/><rect y="1418" width="2400" height="16" fill="#d7cbb6"/><rect x="700" y="980" width="1000" height="460" rx="26" fill="#a87e57"/><rect x="660" y="1290" width="1080" height="210" rx="30" fill="#f1ebdf"/><rect x="660" y="1420" width="1080" height="120" rx="24" fill="#a4552c" opacity="0.85"/><rect x="770" y="1180" width="300" height="150" rx="40" fill="#faf6ec"/><rect x="1330" y="1180" width="300" height="150" rx="40" fill="#c2ac83"/><rect x="640" y="1530" width="1120" height="26" rx="12" fill="#a87e57"/><rect x="360" y="1260" width="240" height="220" rx="10" fill="#a87e57"/><rect x="380" y="1300" width="200" height="14" fill="#00000022"/><line x1="480" y1="1260" x2="480" y2="1130" stroke="#5a4632" stroke-width="12"/><path d="M410,1130 L550,1130 L520,1020 L440,1020 Z" fill="#a4552c"/><path d="M2060,1520 Q 1910,1282.5 1835,1345" fill="none" stroke="#5d7052" stroke-width="20" stroke-linecap="round"/><path d="M2060,1520 Q 1960,1282.5 1910,1295" fill="none" stroke="#5d7052" stroke-width="20" stroke-linecap="round"/><path d="M2060,1520 Q 2010,1282.5 1985,1245" fill="none" stroke="#5d7052" stroke-width="20" stroke-linecap="round"/><path d="M2060,1520 Q 2060,1282.5 2060,1195" fill="none" stroke="#5d7052" stroke-width="20" stroke-linecap="round"/><path d="M2060,1520 Q 2110,1282.5 2135,1245" fill="none" stroke="#5d7052" stroke-width="20" stroke-linecap="round"/><path d="M2060,1520 Q 2160,1282.5 2210,1295" fill="none" stroke="#5d7052" stroke-width="20" stroke-linecap="round"/><path d="M2060,1520 Q 2210,1282.5 2285,1345" fill="none" stroke="#5d7052" stroke-width="20" stroke-linecap="round"/><path d="M1972.5,1520 L2147.5,1520 L2125,1657.5 L1995,1657.5 Z" fill="#a9714d"/><defs><filter id="a190b-sh" x="-30%" y="-30%" width="160%" height="160%"><feGaussianBlur stdDeviation="16"/></filter></defs><rect x="928" y="246" width="572" height="702" fill="#000" opacity="0.28" filter="url(#a190b-sh)"/><rect x="914" y="224" width="572" height="702" fill="#4a3d2f"/><rect x="930.9" y="240.9" width="538.2" height="668.2" fill="none" stroke="#00000055" stroke-width="3"/><rect x="940" y="250" width="520" height="650" fill="#f6f2ea"/><svg x="979" y="289" width="442" height="572" viewBox="0 0 2400 3000" preserveAspectRatio="xMidYMid slice"><filter id="a190-warp" x="-4%" y="-4%" width="108%" height="108%"><feTurbulence type="fractalNoise" baseFrequency="0.0105" numOctaves="2" seed="4472" result="w"/><feDisplacementMap in="SourceGraphic" in2="w" scale="12" xChannelSelector="R" yChannelSelector="G"/></filter><filter id="a190-grain" x="0%" y="0%" width="100%" height="100%"><feTurbulence type="fractalNoise" baseFrequency="0.6" numOctaves="2" seed="4479"/><feColorMatrix type="matrix" values="0.33 0.33 0.33 0 0.62  0.33 0.33 0.33 0 0.62  0.33 0.33 0.33 0 0.62  0 0 0 0 1"/></filter><filter id="a190-mottle" x="0%" y="0%" width="100%" height="100%"><feTurbulence type="fractalNoise" baseFrequency="0.0045" numOctaves="3" seed="4485"/><feColorMatrix type="matrix" values="0.2 0.2 0.2 0 0.78  0.2 0.2 0.2 0 0.78  0.2 0.2 0.2 0 0.78  0 0 0 0 1"/></filter><filter id="a190-fade" x="0%" y="0%" width="100%" height="100%"><feTurbulence type="fractalNoise" baseFrequency="0.006" numOctaves="2" seed="4501"/><feColorMatrix type="matrix" values="0.3 0.3 0.3 0 -0.08  0.3 0.3 0.3 0 -0.08  0.3 0.3 0.3 0 -0.1  0 0 0 0 1"/></filter><filter id="a190-blur9"><feGaussianBlur stdDeviation="9"/></filter><radialGradient id="a190-vig" cx="50%" cy="44%" r="78%"><stop offset="52%" stop-color="#241a10" stop-opacity="0"/><stop offset="100%" stop-color="#241a10" stop-opacity="0.17"/></radialGradient><radialGradient id="a190-warm" cx="62%" cy="30%" r="85%"><stop offset="0%" stop-color="#e8c890" stop-opacity="0.14"/><stop offset="70%" stop-color="#e8c890" stop-opacity="0"/></radialGradient><rect width="2400" height="3000" fill="#ddcfb2"/><rect width="2400" height="3000" fill="url(#a190-warm)"/><rect y="772" width="2400" height="220.2" fill="#8a6a40" opacity="0.030" transform="rotate(1 1200 772)"/><rect y="332.9" width="2400" height="185.3" fill="#ffffff" opacity="0.034" transform="rotate(-0.7 1200 332.9)"/><rect y="1223" width="2400" height="380.8" fill="#8a6a40" opacity="0.022" transform="rotate(1.7 1200 1223)"/><rect y="2038.5" width="2400" height="158.1" fill="#ffffff" opacity="0.049" transform="rotate(-0.2 1200 2038.5)"/><rect y="2980.3" width="2400" height="243.4" fill="#8a6a40" opacity="0.049" transform="rotate(0.2 1200 2980.3)"/><rect y="2994.1" width="2400" height="242.5" fill="#ffffff" opacity="0.021" transform="rotate(1 1200 2994.1)"/><rect y="680.2" width="2400" height="393.9" fill="#8a6a40" opacity="0.043" transform="rotate(1.8 1200 680.2)"/><g filter="url(#a190-warp)"><circle cx="1200" cy="1420" r="900" fill="none" stroke="#6d3a22" stroke-width="12"/><line x1="2066" y1="1420" x2="2100" y2="1420" stroke="#6d3a22" stroke-width="8"/><line x1="2058.6" y1="1533" x2="2092.3" y2="1537.5" stroke="#6d3a22" stroke-width="8"/><line x1="2036.5" y1="1644.1" x2="2069.3" y2="1652.9" stroke="#6d3a22" stroke-width="8"/><line x1="2000.1" y1="1751.4" x2="2031.5" y2="1764.4" stroke="#6d3a22" stroke-width="8"/><line x1="1950" y1="1853" x2="1979.4" y2="1870" stroke="#6d3a22" stroke-width="8"/><line x1="1887" y1="1947.2" x2="1914" y2="1967.9" stroke="#6d3a22" stroke-width="8"/><line x1="1812.4" y1="2032.4" x2="1836.4" y2="2056.4" stroke="#6d3a22" stroke-width="8"/><line x1="1727.2" y1="2107" x2="1747.9" y2="2134" stroke="#6d3a22" stroke-width="8"/><line x1="1633" y1="2170" x2="1650" y2="2199.4" stroke="#6d3a22" stroke-width="8"/><line x1="1531.4" y1="2220.1" x2="1544.4" y2="2251.5" stroke="#6d3a22" stroke-width="8"/><line x1="1424.1" y1="2256.5" x2="1432.9" y2="2289.3" stroke="#6d3a22" stroke-width="8"/><line x1="1313" y1="2278.6" x2="1317.5" y2="2312.3" stroke="#6d3a22" stroke-width="8"/><line x1="1200" y1="2286" x2="1200" y2="2320" stroke="#6d3a22" stroke-width="8"/><line x1="1087" y1="2278.6" x2="1082.5" y2="2312.3" stroke="#6d3a22" stroke-width="8"/><line x1="975.9" y1="2256.5" x2="967.1" y2="2289.3" stroke="#6d3a22" stroke-width="8"/><line x1="868.6" y1="2220.1" x2="855.6" y2="2251.5" stroke="#6d3a22" stroke-width="8"/><line x1="767" y1="2170" x2="750" y2="2199.4" stroke="#6d3a22" stroke-width="8"/><line x1="672.8" y1="2107" x2="652.1" y2="2134" stroke="#6d3a22" stroke-width="8"/><line x1="587.6" y1="2032.4" x2="563.6" y2="2056.4" stroke="#6d3a22" stroke-width="8"/><line x1="513" y1="1947.2" x2="486" y2="1967.9" stroke="#6d3a22" stroke-width="8"/><line x1="450" y1="1853" x2="420.6" y2="1870" stroke="#6d3a22" stroke-width="8"/><line x1="399.9" y1="1751.4" x2="368.5" y2="1764.4" stroke="#6d3a22" stroke-width="8"/><line x1="363.5" y1="1644.1" x2="330.7" y2="1652.9" stroke="#6d3a22" stroke-width="8"/><line x1="341.4" y1="1533" x2="307.7" y2="1537.5" stroke="#6d3a22" stroke-width="8"/><line x1="334" y1="1420" x2="300" y2="1420" stroke="#6d3a22" stroke-width="8"/><line x1="341.4" y1="1307" x2="307.7" y2="1302.5" stroke="#6d3a22" stroke-width="8"/><line x1="363.5" y1="1195.9" x2="330.7" y2="1187.1" stroke="#6d3a22" stroke-width="8"/><line x1="399.9" y1="1088.6" x2="368.5" y2="1075.6" stroke="#6d3a22" stroke-width="8"/><line x1="450" y1="987" x2="420.6" y2="970" stroke="#6d3a22" stroke-width="8"/><line x1="513" y1="892.8" x2="486" y2="872.1" stroke="#6d3a22" stroke-width="8"/><line x1="587.6" y1="807.6" x2="563.6" y2="783.6" stroke="#6d3a22" stroke-width="8"/><line x1="672.8" y1="733" x2="652.1" y2="706" stroke="#6d3a22" stroke-width="8"/><line x1="767" y1="670" x2="750" y2="640.6" stroke="#6d3a22" stroke-width="8"/><line x1="868.6" y1="619.9" x2="855.6" y2="588.5" stroke="#6d3a22" stroke-width="8"/><line x1="975.9" y1="583.5" x2="967.1" y2="550.7" stroke="#6d3a22" stroke-width="8"/><line x1="1087" y1="561.4" x2="1082.5" y2="527.7" stroke="#6d3a22" stroke-width="8"/><line x1="1200" y1="554" x2="1200" y2="520" stroke="#6d3a22" stroke-width="8"/><line x1="1313" y1="561.4" x2="1317.5" y2="527.7" stroke="#6d3a22" stroke-width="8"/><line x1="1424.1" y1="583.5" x2="1432.9" y2="550.7" stroke="#6d3a22" stroke-width="8"/><line x1="1531.4" y1="619.9" x2="1544.4" y2="588.5" stroke="#6d3a22" stroke-width="8"/><line x1="1633" y1="670" x2="1650" y2="640.6" stroke="#6d3a22" stroke-width="8"/><line x1="1727.2" y1="733" x2="1747.9" y2="706" stroke="#6d3a22" stroke-width="8"/><line x1="1812.4" y1="807.6" x2="1836.4" y2="783.6" stroke="#6d3a22" stroke-width="8"/><line x1="1887" y1="892.8" x2="1914" y2="872.1" stroke="#6d3a22" stroke-width="8"/><line x1="1950" y1="987" x2="1979.4" y2="970" stroke="#6d3a22" stroke-width="8"/><line x1="2000.1" y1="1088.6" x2="2031.5" y2="1075.6" stroke="#6d3a22" stroke-width="8"/><line x1="2036.5" y1="1195.9" x2="2069.3" y2="1187.1" stroke="#6d3a22" stroke-width="8"/><line x1="2058.6" y1="1307" x2="2092.3" y2="1302.5" stroke="#6d3a22" stroke-width="8"/><polygon points="2010,1420 1808.6,1356 1808.6,1484" fill="#6d3a22"/><polygon points="1982.4,1629.6 1804.5,1515.7 1771.4,1639.3" fill="#a4552c"/><polygon points="1901.5,1825 1759.1,1668.9 1695.1,1779.7" fill="#6d3a22"/><polygon points="1772.8,1992.8 1675.6,1805.1 1585.1,1895.6" fill="#a4552c"/><polygon points="1605,2121.5 1559.7,1915.1 1448.9,1979.1" fill="#6d3a22"/><polygon points="1409.6,2202.4 1419.3,1991.4 1295.7,2024.5" fill="#a4552c"/><polygon points="1200,2230 1264,2028.6 1136,2028.6" fill="#6d3a22"/><polygon points="990.4,2202.4 1104.3,2024.5 980.7,1991.4" fill="#a4552c"/><polygon points="795,2121.5 951.1,1979.1 840.3,1915.1" fill="#6d3a22"/><polygon points="627.2,1992.8 814.9,1895.6 724.4,1805.1" fill="#a4552c"/><polygon points="498.5,1825 704.9,1779.7 640.9,1668.9" fill="#6d3a22"/><polygon points="417.6,1629.6 628.6,1639.3 595.5,1515.7" fill="#a4552c"/><polygon points="390,1420 591.4,1484 591.4,1356" fill="#6d3a22"/><polygon points="417.6,1210.4 595.5,1324.3 628.6,1200.7" fill="#a4552c"/><polygon points="498.5,1015 640.9,1171.1 704.9,1060.3" fill="#6d3a22"/><polygon points="627.2,847.2 724.4,1034.9 814.9,944.4" fill="#a4552c"/><polygon points="795,718.5 840.3,924.9 951.1,860.9" fill="#6d3a22"/><polygon points="990.4,637.6 980.7,848.6 1104.3,815.5" fill="#a4552c"/><polygon points="1200,610 1136,811.4 1264,811.4" fill="#6d3a22"/><polygon points="1409.6,637.6 1295.7,815.5 1419.3,848.6" fill="#a4552c"/><polygon points="1605,718.5 1448.9,860.9 1559.7,924.9" fill="#6d3a22"/><polygon points="1772.8,847.2 1585.1,944.4 1675.6,1034.9" fill="#a4552c"/><polygon points="1901.5,1015 1695.1,1060.3 1759.1,1171.1" fill="#6d3a22"/><polygon points="1982.4,1210.4 1771.4,1200.7 1804.5,1324.3" fill="#a4552c"/><circle cx="1200" cy="1420" r="558" fill="none" stroke="#6d3a22" stroke-width="8"/><path d="M0 0 Q 67.5 -198.4 0 -522 Q -67.5 -198.4 0 0 Z" fill="#a4552c" opacity="0.96" transform="translate(1209.8 1422) rotate(191.3)"/><path d="M0 0 Q 67.5 -198.4 0 -522 Q -67.5 -198.4 0 0 Z" fill="#6d3a22" opacity="0.96" transform="translate(1208.3 1425.6) rotate(213.8)"/><path d="M0 0 Q 67.5 -198.4 0 -522 Q -67.5 -198.4 0 0 Z" fill="#a4552c" opacity="0.96" transform="translate(1205.6 1428.3) rotate(236.3)"/><path d="M0 0 Q 67.5 -198.4 0 -522 Q -67.5 -198.4 0 0 Z" fill="#6d3a22" opacity="0.96" transform="translate(1202 1429.8) rotate(258.8)"/><path d="M0 0 Q 67.5 -198.4 0 -522 Q -67.5 -198.4 0 0 Z" fill="#a4552c" opacity="0.96" transform="translate(1198 1429.8) rotate(281.3)"/><path d="M0 0 Q 67.5 -198.4 0 -522 Q -67.5 -198.4 0 0 Z" fill="#6d3a22" opacity="0.96" transform="translate(1194.4 1428.3) rotate(303.8)"/><path d="M0 0 Q 67.5 -198.4 0 -522 Q -67.5 -198.4 0 0 Z" fill="#a4552c" opacity="0.96" transform="translate(1191.7 1425.6) rotate(326.3)"/><path d="M0 0 Q 67.5 -198.4 0 -522 Q -67.5 -198.4 0 0 Z" fill="#6d3a22" opacity="0.96" transform="translate(1190.2 1422) rotate(348.8)"/><path d="M0 0 Q 67.5 -198.4 0 -522 Q -67.5 -198.4 0 0 Z" fill="#a4552c" opacity="0.96" transform="translate(1190.2 1418) rotate(371.3)"/><path d="M0 0 Q 67.5 -198.4 0 -522 Q -67.5 -198.4 0 0 Z" fill="#6d3a22" opacity="0.96" transform="translate(1191.7 1414.4) rotate(393.8)"/><path d="M0 0 Q 67.5 -198.4 0 -522 Q -67.5 -198.4 0 0 Z" fill="#a4552c" opacity="0.96" transform="translate(1194.4 1411.7) rotate(416.3)"/><path d="M0 0 Q 67.5 -198.4 0 -522 Q -67.5 -198.4 0 0 Z" fill="#6d3a22" opacity="0.96" transform="translate(1198 1410.2) rotate(438.8)"/><path d="M0 0 Q 67.5 -198.4 0 -522 Q -67.5 -198.4 0 0 Z" fill="#a4552c" opacity="0.96" transform="translate(1202 1410.2) rotate(461.3)"/><path d="M0 0 Q 67.5 -198.4 0 -522 Q -67.5 -198.4 0 0 Z" fill="#6d3a22" opacity="0.96" transform="translate(1205.6 1411.7) rotate(483.8)"/><path d="M0 0 Q 67.5 -198.4 0 -522 Q -67.5 -198.4 0 0 Z" fill="#a4552c" opacity="0.96" transform="translate(1208.3 1414.4) rotate(506.3)"/><path d="M0 0 Q 67.5 -198.4 0 -522 Q -67.5 -198.4 0 0 Z" fill="#6d3a22" opacity="0.96" transform="translate(1209.8 1418) rotate(528.8)"/><path d="M0 0 Q 76.5 -116.3 0 -306 Q -76.5 -116.3 0 0 Z" fill="#c2ac83" opacity="0.98" transform="translate(1200 1420) rotate(180)"/><path d="M0 0 Q 76.5 -116.3 0 -306 Q -76.5 -116.3 0 0 Z" fill="#c2ac83" opacity="0.98" transform="translate(1200 1420) rotate(225)"/><path d="M0 0 Q 76.5 -116.3 0 -306 Q -76.5 -116.3 0 0 Z" fill="#c2ac83" opacity="0.98" transform="translate(1200 1420) rotate(270)"/><path d="M0 0 Q 76.5 -116.3 0 -306 Q -76.5 -116.3 0 0 Z" fill="#c2ac83" opacity="0.98" transform="translate(1200 1420) rotate(315)"/><path d="M0 0 Q 76.5 -116.3 0 -306 Q -76.5 -116.3 0 0 Z" fill="#c2ac83" opacity="0.98" transform="translate(1200 1420) rotate(360)"/><path d="M0 0 Q 76.5 -116.3 0 -306 Q -76.5 -116.3 0 0 Z" fill="#c2ac83" opacity="0.98" transform="translate(1200 1420) rotate(405)"/><path d="M0 0 Q 76.5 -116.3 0 -306 Q -76.5 -116.3 0 0 Z" fill="#c2ac83" opacity="0.98" transform="translate(1200 1420) rotate(450)"/><path d="M0 0 Q 76.5 -116.3 0 -306 Q -76.5 -116.3 0 0 Z" fill="#c2ac83" opacity="0.98" transform="translate(1200 1420) rotate(495)"/><circle cx="1200" cy="1420" r="110" fill="#6d3a22"/><circle cx="1200" cy="1420" r="44" fill="#a4552c"/><circle cx="388" cy="208" r="14.6" fill="#6d3a22"/><circle cx="444" cy="208" r="14.6" fill="#6d3a22"/><circle cx="500" cy="208" r="14.6" fill="#6d3a22"/><circle cx="556" cy="208" r="14.6" fill="#6d3a22"/><circle cx="612" cy="208" r="14.6" fill="#6d3a22"/><circle cx="668" cy="208" r="14.6" fill="#6d3a22"/><circle cx="724" cy="208" r="14.6" fill="#6d3a22"/><circle cx="780" cy="208" r="14.6" fill="#6d3a22"/><circle cx="836" cy="208" r="14.6" fill="#6d3a22"/><circle cx="892" cy="208" r="14.6" fill="#6d3a22"/><circle cx="948" cy="208" r="14.6" fill="#6d3a22"/><circle cx="1004" cy="208" r="14.6" fill="#6d3a22"/><circle cx="1060" cy="208" r="14.6" fill="#6d3a22"/><circle cx="1116" cy="208" r="14.6" fill="#6d3a22"/><circle cx="1172" cy="208" r="14.6" fill="#6d3a22"/><circle cx="1228" cy="208" r="14.6" fill="#6d3a22"/><circle cx="1284" cy="208" r="14.6" fill="#6d3a22"/><circle cx="1340" cy="208" r="14.6" fill="#6d3a22"/><circle cx="1396" cy="208" r="14.6" fill="#6d3a22"/><circle cx="1452" cy="208" r="14.6" fill="#6d3a22"/><circle cx="1508" cy="208" r="14.6" fill="#6d3a22"/><circle cx="1564" cy="208" r="14.6" fill="#6d3a22"/><circle cx="1620" cy="208" r="14.6" fill="#6d3a22"/><circle cx="1676" cy="208" r="14.6" fill="#6d3a22"/><circle cx="1732" cy="208" r="14.6" fill="#6d3a22"/><circle cx="1788" cy="208" r="14.6" fill="#6d3a22"/><circle cx="1844" cy="208" r="14.6" fill="#6d3a22"/><circle cx="1900" cy="208" r="14.6" fill="#6d3a22"/><circle cx="1956" cy="208" r="14.6" fill="#6d3a22"/><circle cx="2012" cy="208" r="14.6" fill="#6d3a22"/><circle cx="388" cy="2792" r="14.6" fill="#6d3a22"/><circle cx="444" cy="2792" r="14.6" fill="#6d3a22"/><circle cx="500" cy="2792" r="14.6" fill="#6d3a22"/><circle cx="556" cy="2792" r="14.6" fill="#6d3a22"/><circle cx="612" cy="2792" r="14.6" fill="#6d3a22"/><circle cx="668" cy="2792" r="14.6" fill="#6d3a22"/><circle cx="724" cy="2792" r="14.6" fill="#6d3a22"/><circle cx="780" cy="2792" r="14.6" fill="#6d3a22"/><circle cx="836" cy="2792" r="14.6" fill="#6d3a22"/><circle cx="892" cy="2792" r="14.6" fill="#6d3a22"/><circle cx="948" cy="2792" r="14.6" fill="#6d3a22"/><circle cx="1004" cy="2792" r="14.6" fill="#6d3a22"/><circle cx="1060" cy="2792" r="14.6" fill="#6d3a22"/><circle cx="1116" cy="2792" r="14.6" fill="#6d3a22"/><circle cx="1172" cy="2792" r="14.6" fill="#6d3a22"/><circle cx="1228" cy="2792" r="14.6" fill="#6d3a22"/><circle cx="1284" cy="2792" r="14.6" fill="#6d3a22"/><circle cx="1340" cy="2792" r="14.6" fill="#6d3a22"/><circle cx="1396" cy="2792" r="14.6" fill="#6d3a22"/><circle cx="1452" cy="2792" r="14.6" fill="#6d3a22"/><circle cx="1508" cy="2792" r="14.6" fill="#6d3a22"/><circle cx="1564" cy="2792" r="14.6" fill="#6d3a22"/><circle cx="1620" cy="2792" r="14.6" fill="#6d3a22"/><circle cx="1676" cy="2792" r="14.6" fill="#6d3a22"/><circle cx="1732" cy="2792" r="14.6" fill="#6d3a22"/><circle cx="1788" cy="2792" r="14.6" fill="#6d3a22"/><circle cx="1844" cy="2792" r="14.6" fill="#6d3a22"/><circle cx="1900" cy="2792" r="14.6" fill="#6d3a22"/><circle cx="1956" cy="2792" r="14.6" fill="#6d3a22"/><circle cx="2012" cy="2792" r="14.6" fill="#6d3a22"/><rect x="104" y="104" width="2192" height="2792" fill="none" stroke="#6d3a22" stroke-width="16" opacity="0.85"/><rect x="150" y="150" width="2100" height="2700" fill="none" stroke="#6d3a22" stroke-width="4" opacity="0.55"/></g><rect width="2400" height="3000" filter="url(#a190-mottle)" style="mix-blend-mode:multiply" opacity="0.5"/><rect width="2400" height="3000" filter="url(#a190-fade)" style="mix-blend-mode:screen" opacity="0.55"/><rect width="2400" height="3000" filter="url(#a190-grain)" style="mix-blend-mode:multiply" opacity="0.32"/><ellipse cx="481.8" cy="549" rx="256.8" ry="185.5" fill="#6b4a22" opacity="0.056" filter="url(#a190-blur9)"/><ellipse cx="623.6" cy="2138.2" rx="92.7" ry="97.4" fill="#6b4a22" opacity="0.033" filter="url(#a190-blur9)"/><ellipse cx="1528.8" cy="1052.5" rx="277.7" ry="154.1" fill="#6b4a22" opacity="0.050" filter="url(#a190-blur9)"/><ellipse cx="671.3" cy="1517.6" rx="220.5" ry="128.3" fill="#6b4a22" opacity="0.050" filter="url(#a190-blur9)"/><ellipse cx="761.6" cy="2230.1" rx="176.4" ry="107.7" fill="#6b4a22" opacity="0.033" filter="url(#a190-blur9)"/><ellipse cx="1986" cy="2475.4" rx="207.7" ry="126.9" fill="#6b4a22" opacity="0.063" filter="url(#a190-blur9)"/><polyline points="1208.6,1734.6 1181.1,1635.2 1129.5,1574.5 1025.9,1566.7 971.8,1565.4 837.2,1586.9" fill="none" stroke="#2e2116" stroke-width="2.8" opacity="0.27" stroke-linejoin="round"/><polyline points="1208.6,1734.6 1181.1,1635.2 1129.5,1574.5 1025.9,1566.7 971.8,1565.4 837.2,1586.9" fill="none" stroke="#fff8ea" stroke-width="2" opacity="0.13" transform="translate(2.5 2.5)" stroke-linejoin="round"/><polyline points="1928.5,2683 1978.3,2658.3 2120.1,2638.2 2189.7,2683.2 2244.6,2775.5 2323.1,2873.6 2420.8,2983.9 2556.3,3030.3 2624.9,2990 2728.7,2887" fill="none" stroke="#2e2116" stroke-width="4.2" opacity="0.21" stroke-linejoin="round"/><polyline points="1928.5,2683 1978.3,2658.3 2120.1,2638.2 2189.7,2683.2 2244.6,2775.5 2323.1,2873.6 2420.8,2983.9 2556.3,3030.3 2624.9,2990 2728.7,2887" fill="none" stroke="#fff8ea" stroke-width="2.9" opacity="0.15" transform="translate(2.5 2.5)" stroke-linejoin="round"/><polyline points="1320.8,1861.3 1393.2,1850.9 1448.7,1883.4 1498.3,1953.8 1504.3,2058.4 1455.8,2126.4 1394.5,2262.5 1300.6,2300.3 1252.3,2314.2 1188.2,2280.8 1041.9,2290.9" fill="none" stroke="#2e2116" stroke-width="3.4" opacity="0.30" stroke-linejoin="round"/><polyline points="1320.8,1861.3 1393.2,1850.9 1448.7,1883.4 1498.3,1953.8 1504.3,2058.4 1455.8,2126.4 1394.5,2262.5 1300.6,2300.3 1252.3,2314.2 1188.2,2280.8 1041.9,2290.9" fill="none" stroke="#fff8ea" stroke-width="2.4" opacity="0.12" transform="translate(2.5 2.5)" stroke-linejoin="round"/><polyline points="1133.2,2366.7 1036,2290.5 913.2,2289.3 854.8,2243.4 849.3,2176 786,2080.2 782.8,1993.8 846,1880.8 815.7,1780.7 779.7,1648.4 837.8,1541.5 849.8,1492.6" fill="none" stroke="#2e2116" stroke-width="2.7" opacity="0.22" stroke-linejoin="round"/><polyline points="1133.2,2366.7 1036,2290.5 913.2,2289.3 854.8,2243.4 849.3,2176 786,2080.2 782.8,1993.8 846,1880.8 815.7,1780.7 779.7,1648.4 837.8,1541.5 849.8,1492.6" fill="none" stroke="#fff8ea" stroke-width="1.9" opacity="0.14" transform="translate(2.5 2.5)" stroke-linejoin="round"/><polyline points="1833.3,626.2 1889.9,627.8 1948.7,658.3 2056.3,736.9 2126.5,762.2 2253.7,702.5 2353.9,640 2416.1,577.7" fill="none" stroke="#2e2116" stroke-width="4.3" opacity="0.16" stroke-linejoin="round"/><polyline points="1833.3,626.2 1889.9,627.8 1948.7,658.3 2056.3,736.9 2126.5,762.2 2253.7,702.5 2353.9,640 2416.1,577.7" fill="none" stroke="#fff8ea" stroke-width="3" opacity="0.12" transform="translate(2.5 2.5)" stroke-linejoin="round"/><polyline points="1437.1,1717.8 1453,1613.9 1424.2,1489.9 1410.5,1430.9 1329.2,1313.7 1229.3,1258.4 1152.4,1168 1049.1,1163.4 1006.5,1204.8 1001.9,1348.3 1021.1,1486.8" fill="none" stroke="#2e2116" stroke-width="4" opacity="0.15" stroke-linejoin="round"/><polyline points="1437.1,1717.8 1453,1613.9 1424.2,1489.9 1410.5,1430.9 1329.2,1313.7 1229.3,1258.4 1152.4,1168 1049.1,1163.4 1006.5,1204.8 1001.9,1348.3 1021.1,1486.8" fill="none" stroke="#fff8ea" stroke-width="2.8" opacity="0.12" transform="translate(2.5 2.5)" stroke-linejoin="round"/><polyline points="236.8,1011.8 265.9,959 290.8,834.8 272.3,726.5 175.2,649.9 45.3,654.6" fill="none" stroke="#2e2116" stroke-width="3.1" opacity="0.26" stroke-linejoin="round"/><polyline points="236.8,1011.8 265.9,959 290.8,834.8 272.3,726.5 175.2,649.9 45.3,654.6" fill="none" stroke="#fff8ea" stroke-width="2.2" opacity="0.12" transform="translate(2.5 2.5)" stroke-linejoin="round"/><path d="M538.1,1751 Q529.7,1782.1 498.7,1790.9 Q467.8,1799.6 433.9,1781 Q400.1,1762.4 412.3,1726.5 Q424.4,1690.7 448.3,1660.1 Q472.1,1629.6 498.9,1635.5 Q525.7,1641.5 536.1,1680.7 Q546.5,1719.9 538.1,1751 Z" fill="#ddcfb2" opacity="0.91"/><path d="M614.9,2232.1 Q617.7,2244.5 589.7,2249.6 Q561.8,2254.8 547.8,2247.9 Q533.9,2241.1 525.5,2223.7 Q517.2,2206.3 540.4,2193.8 Q563.6,2181.3 585.8,2185 Q608.1,2188.7 610.2,2204.2 Q612.2,2219.7 614.9,2232.1 Z" fill="#ddcfb2" opacity="0.83"/><path d="M485.4,1657 Q475.2,1665.7 446.9,1671.6 Q418.7,1677.5 408.3,1670.7 Q397.9,1663.9 383.2,1651.2 Q368.4,1638.4 394.3,1627.3 Q420.3,1616.1 455,1623.8 Q489.6,1631.5 492.6,1639.9 Q495.6,1648.2 485.4,1657 Z" fill="#ddcfb2" opacity="0.84"/><path d="M1267.3,1316 Q1254.9,1339.2 1221.7,1347.2 Q1188.5,1355.2 1160.7,1337.8 Q1132.9,1320.4 1127.1,1291.1 Q1121.4,1261.8 1149.7,1230 Q1178.1,1198.3 1218.7,1206.4 Q1259.4,1214.6 1269.5,1253.7 Q1279.6,1292.8 1267.3,1316 Z" fill="#ddcfb2" opacity="0.94"/><path d="M689.8,2649.6 Q665.8,2686 642,2693 Q618.2,2700.1 601.1,2669 Q584.1,2637.8 573.7,2606.5 Q563.4,2575.2 590.1,2556.8 Q616.8,2538.3 652,2549.9 Q687.1,2561.4 700.4,2587.3 Q713.8,2613.3 689.8,2649.6 Z" fill="#ddcfb2" opacity="0.86"/><rect width="2400" height="3000" fill="url(#a190-vig)"/></svg></svg>