<svg xmlns="http://www.w3.org/2000/svg" width="2400" height="1800" viewBox="0 0 2400 1800"><rect width="2400" height="1800" fill="#e9e1d2"/><rect y="1430" width="2400" height="370" fill="#c8b190"/><line x1="120" y1="1430" x2="60" y2="1800" stroke="#00000018" stroke-width="6"/><line x1="380" y1="1430" x2="320" y2="1800" stroke="#00000018" stroke-width="6"/><line x1="640" y1="1430" x2="580" y2="1800" stroke="#00000018" stroke-width="6"/><line x1="900" y1="1430" x2="840" y2="1800" stroke="#00000018" stroke-width="6"/><line x1="1160" y1="1430" x2="1100" y2="1800" stroke="#00000018" stroke-width="6"/><line x1="1420" y1="1430" x2="1360" y2="1800" stroke="#00000018" stroke-width="6"/><line x1="1680" y1="1430" x2="1620" y2="1800" stroke="#00000018" stroke-width="6"/><line x1="1940" y1="1430" x2="1880" y2="1800" stroke="#00000018" stroke-width="6"/><line x1="2200" y1="1430" x2="2140" y2="1800" stroke="#00000018" stroke-width="6"/><rect y="1418" width="2400" height="16" fill="#d7cbb6"/><rect x="700" y="980" width="1000" height="460" rx="26" fill="#a87e57"/><rect x="660" y="1290" width="1080" height="210" rx="30" fill="#f1ebdf"/><rect x="660" y="1420" width="1080" height="120" rx="24" fill="#87681c" opacity="0.85"/><rect x="770" y="1180" width="300" height="150" rx="40" fill="#faf6ec"/><rect x="1330" y="1180" width="300" height="150" rx="40" fill="#233142"/><rect x="640" y="1530" width="1120" height="26" rx="12" fill="#a87e57"/><rect x="360" y="1260" width="240" height="220" rx="10" fill="#a87e57"/><rect x="380" y="1300" width="200" height="14" fill="#00000022"/><line x1="480" y1="1260" x2="480" y2="1130" stroke="#5a4632" stroke-width="12"/><path d="M410,1130 L550,1130 L520,1020 L440,1020 Z" fill="#87681c"/><path d="M2060,1520 Q 1910,1282.5 1835,1345" fill="none" stroke="#5d7052" stroke-width="20" stroke-linecap="round"/><path d="M2060,1520 Q 1960,1282.5 1910,1295" fill="none" stroke="#5d7052" stroke-width="20" stroke-linecap="round"/><path d="M2060,1520 Q 2010,1282.5 1985,1245" fill="none" stroke="#5d7052" stroke-width="20" stroke-linecap="round"/><path d="M2060,1520 Q 2060,1282.5 2060,1195" fill="none" stroke="#5d7052" stroke-width="20" stroke-linecap="round"/><path d="M2060,1520 Q 2110,1282.5 2135,1245" fill="none" stroke="#5d7052" stroke-width="20" stroke-linecap="round"/><path d="M2060,1520 Q 2160,1282.5 2210,1295" fill="none" stroke="#5d7052" stroke-width="20" stroke-linecap="round"/><path d="M2060,1520 Q 2210,1282.5 2285,1345" fill="none" stroke="#5d7052" stroke-width="20" stroke-linecap="round"/><path d="M1972.5,1520 L2147.5,1520 L2125,1657.5 L1995,1657.5 Z" fill="#a9714d"/><defs><filter id="a113b-sh" x="-30%" y="-30%" width="160%" height="160%"><feGaussianBlur stdDeviation="16"/></filter></defs><rect x="928" y="246" width="572" height="702" fill="#000" opacity="0.28" filter="url(#a113b-sh)"/><rect x="914" y="224" width="572" height="702" fill="#4a3d2f"/><rect x="930.9" y="240.9" width="538.2" height="668.2" fill="none" stroke="#00000055" stroke-width="3"/><rect x="940" y="250" width="520" height="650" fill="#f6f2ea"/><svg x="979" y="289" width="442" height="572" viewBox="0 0 2400 3000" preserveAspectRatio="xMidYMid slice"><rect width="2400" height="3000" fill="#141b25"/><radialGradient id="a113-vig" cx="50%" cy="42%" r="80%"><stop offset="55%" stop-color="#000" stop-opacity="0"/><stop offset="100%" stop-color="#000" stop-opacity="0.15"/></radialGradient><rect width="2400" height="3000" fill="url(#a113-vig)"/><circle cx="46.6" cy="2160.4" r="2.8" fill="#c9a227" opacity="0.069"/><circle cx="1960.5" cy="2655.8" r="2.5" fill="#c9a227" opacity="0.040"/><circle cx="1051.6" cy="2655.4" r="2.3" fill="#c9a227" opacity="0.058"/><circle cx="1520.8" cy="202.6" r="2.3" fill="#c9a227" opacity="0.056"/><circle cx="590.2" cy="1202.4" r="3.4" fill="#c9a227" opacity="0.059"/><circle cx="1697.2" cy="2163.1" r="3.2" fill="#c9a227" opacity="0.051"/><circle cx="1618.9" cy="1742.2" r="2.5" fill="#c9a227" opacity="0.067"/><circle cx="180" cy="2151.9" r="4.1" fill="#c9a227" opacity="0.036"/><circle cx="1644.3" cy="2069.2" r="2.9" fill="#c9a227" opacity="0.060"/><circle cx="897.2" cy="998.4" r="1.7" fill="#c9a227" opacity="0.070"/><circle cx="312.6" cy="1362.5" r="3.1" fill="#c9a227" opacity="0.063"/><circle cx="1258.7" cy="1201.8" r="4.1" fill="#c9a227" opacity="0.043"/><circle cx="2092.8" cy="2482.6" r="1.9" fill="#c9a227" opacity="0.050"/><circle cx="836.5" cy="2676.4" r="2" fill="#c9a227" opacity="0.074"/><circle cx="1789.8" cy="1908.6" r="4.4" fill="#c9a227" opacity="0.036"/><circle cx="271.6" cy="1291.6" r="3.8" fill="#c9a227" opacity="0.067"/><circle cx="453.8" cy="2743.9" r="4.3" fill="#c9a227" opacity="0.030"/><circle cx="1413" cy="1384.2" r="4.2" fill="#c9a227" opacity="0.056"/><circle cx="1943.3" cy="125.1" r="1.6" fill="#c9a227" opacity="0.037"/><circle cx="1265.8" cy="2048.9" r="2.3" fill="#c9a227" opacity="0.052"/><circle cx="382" cy="2835.4" r="2.2" fill="#c9a227" opacity="0.058"/><circle cx="1352.4" cy="1446.4" r="3.9" fill="#c9a227" opacity="0.050"/><circle cx="864.3" cy="290.5" r="3.9" fill="#c9a227" opacity="0.074"/><circle cx="409.2" cy="425.8" r="3.1" fill="#c9a227" opacity="0.034"/><circle cx="2172.7" cy="1719.5" r="2.5" fill="#c9a227" opacity="0.064"/><circle cx="1187" cy="2208.3" r="4.1" fill="#c9a227" opacity="0.073"/><circle cx="1494.3" cy="1544.7" r="2.1" fill="#c9a227" opacity="0.040"/><circle cx="2335.6" cy="2947.2" r="3.1" fill="#c9a227" opacity="0.033"/><circle cx="390" cy="2408.4" r="3.1" fill="#c9a227" opacity="0.063"/><circle cx="1992.9" cy="673.9" r="1.9" fill="#c9a227" opacity="0.060"/><circle cx="816.8" cy="105.7" r="2.6" fill="#c9a227" opacity="0.078"/><circle cx="576.9" cy="251.6" r="3" fill="#c9a227" opacity="0.059"/><circle cx="2272.7" cy="1850.8" r="3.9" fill="#c9a227" opacity="0.050"/><circle cx="216" cy="399" r="2.2" fill="#c9a227" opacity="0.031"/><circle cx="421" cy="1105.1" r="1.6" fill="#c9a227" opacity="0.067"/><circle cx="1894.2" cy="2415.6" r="3.3" fill="#c9a227" opacity="0.052"/><circle cx="1558.5" cy="317.9" r="3.2" fill="#c9a227" opacity="0.052"/><circle cx="775.2" cy="1336.5" r="3" fill="#c9a227" opacity="0.046"/><circle cx="1849.5" cy="778.7" r="2.2" fill="#c9a227" opacity="0.062"/><circle cx="1787.9" cy="1330.6" r="3.3" fill="#c9a227" opacity="0.031"/><circle cx="478.8" cy="491.3" r="2.1" fill="#c9a227" opacity="0.058"/><circle cx="1655.9" cy="2589.3" r="1.7" fill="#c9a227" opacity="0.044"/><circle cx="1969" cy="2345.6" r="4.4" fill="#c9a227" opacity="0.064"/><circle cx="1543.2" cy="874.9" r="2.8" fill="#c9a227" opacity="0.064"/><circle cx="999.7" cy="623.6" r="3.7" fill="#c9a227" opacity="0.031"/><circle cx="305.2" cy="2887.3" r="1.9" fill="#c9a227" opacity="0.062"/><circle cx="1950.1" cy="2928.4" r="4.5" fill="#c9a227" opacity="0.077"/><circle cx="1428.9" cy="1739.4" r="3.5" fill="#c9a227" opacity="0.030"/><circle cx="1318" cy="2705.5" r="1.6" fill="#c9a227" opacity="0.078"/><circle cx="315.5" cy="749.9" r="1.6" fill="#c9a227" opacity="0.043"/><circle cx="606.5" cy="1524.1" r="2.2" fill="#c9a227" opacity="0.048"/><circle cx="624.5" cy="2778" r="4.4" fill="#c9a227" opacity="0.031"/><circle cx="1152.7" cy="540.7" r="3" fill="#c9a227" opacity="0.051"/><circle cx="1312.4" cy="1982.4" r="3.2" fill="#c9a227" opacity="0.061"/><circle cx="417.7" cy="2095.7" r="3.1" fill="#c9a227" opacity="0.041"/><circle cx="2280" cy="2091.5" r="2.2" fill="#c9a227" opacity="0.061"/><circle cx="1215.5" cy="1427.3" r="4.2" fill="#c9a227" opacity="0.063"/><circle cx="141.4" cy="2602.3" r="2.1" fill="#c9a227" opacity="0.077"/><circle cx="1892.5" cy="2867.7" r="2.7" fill="#c9a227" opacity="0.072"/><circle cx="2125.7" cy="2309.6" r="2.1" fill="#c9a227" opacity="0.054"/><circle cx="1990.7" cy="2600.5" r="3.5" fill="#c9a227" opacity="0.070"/><circle cx="2059.6" cy="1851" r="3.3" fill="#c9a227" opacity="0.031"/><circle cx="1912.8" cy="1053.7" r="4.3" fill="#c9a227" opacity="0.035"/><circle cx="892.9" cy="2651.5" r="2.6" fill="#c9a227" opacity="0.040"/><circle cx="605.3" cy="1225.8" r="1.9" fill="#c9a227" opacity="0.050"/><circle cx="861" cy="1599.3" r="1.8" fill="#c9a227" opacity="0.034"/><circle cx="165.1" cy="2720.7" r="2" fill="#c9a227" opacity="0.041"/><circle cx="2259.8" cy="2147.2" r="3.4" fill="#c9a227" opacity="0.064"/><circle cx="676" cy="155" r="2.4" fill="#c9a227" opacity="0.059"/><circle cx="1857.3" cy="914.5" r="1.7" fill="#c9a227" opacity="0.034"/><circle cx="2117.8" cy="1684.1" r="2.7" fill="#c9a227" opacity="0.068"/><circle cx="1980.8" cy="1048.4" r="3.6" fill="#c9a227" opacity="0.077"/><circle cx="490.9" cy="49.8" r="4.3" fill="#c9a227" opacity="0.043"/><circle cx="1961.9" cy="1907.7" r="2.8" fill="#c9a227" opacity="0.035"/><circle cx="786.9" cy="1541.9" r="3.5" fill="#c9a227" opacity="0.074"/><circle cx="1627" cy="366.8" r="2.5" fill="#c9a227" opacity="0.068"/><circle cx="1703.2" cy="1938.3" r="4.1" fill="#c9a227" opacity="0.031"/><circle cx="862.2" cy="897.8" r="3.6" fill="#c9a227" opacity="0.034"/><circle cx="1150.7" cy="131" r="2.4" fill="#c9a227" opacity="0.051"/><circle cx="1827.4" cy="2674.8" r="2.4" fill="#c9a227" opacity="0.057"/><circle cx="1200" cy="1400" r="1010" fill="none" stroke="#c9a227" stroke-width="10"/><circle cx="1200" cy="1400" r="964" fill="none" stroke="#c9a227" stroke-width="4" opacity="0.7"/><line x1="2170" y1="1400" x2="2210" y2="1400" stroke="#c9a227" stroke-width="10"/><line x1="2182.2" y1="1485.9" x2="2206.2" y2="1488" stroke="#c9a227" stroke-width="5"/><line x1="2171" y1="1571.2" x2="2194.7" y2="1575.4" stroke="#c9a227" stroke-width="5"/><line x1="2152.4" y1="1655.2" x2="2175.6" y2="1661.4" stroke="#c9a227" stroke-width="5"/><line x1="2126.5" y1="1737.2" x2="2149.1" y2="1745.4" stroke="#c9a227" stroke-width="5"/><line x1="2093.6" y1="1816.7" x2="2115.4" y2="1826.8" stroke="#c9a227" stroke-width="5"/><line x1="2040" y1="1885" x2="2074.7" y2="1905" stroke="#c9a227" stroke-width="10"/><line x1="2007.7" y1="1965.5" x2="2027.3" y2="1979.3" stroke="#c9a227" stroke-width="5"/><line x1="1955.3" y1="2033.8" x2="1973.7" y2="2049.2" stroke="#c9a227" stroke-width="5"/><line x1="1897.2" y1="2097.2" x2="1914.2" y2="2114.2" stroke="#c9a227" stroke-width="5"/><line x1="1833.8" y1="2155.3" x2="1849.2" y2="2173.7" stroke="#c9a227" stroke-width="5"/><line x1="1765.5" y1="2207.7" x2="1779.3" y2="2227.3" stroke="#c9a227" stroke-width="5"/><line x1="1685" y1="2240" x2="1705" y2="2274.7" stroke="#c9a227" stroke-width="10"/><line x1="1616.7" y1="2293.6" x2="1626.8" y2="2315.4" stroke="#c9a227" stroke-width="5"/><line x1="1537.2" y1="2326.5" x2="1545.4" y2="2349.1" stroke="#c9a227" stroke-width="5"/><line x1="1455.2" y1="2352.4" x2="1461.4" y2="2375.6" stroke="#c9a227" stroke-width="5"/><line x1="1371.2" y1="2371" x2="1375.4" y2="2394.7" stroke="#c9a227" stroke-width="5"/><line x1="1285.9" y1="2382.2" x2="1288" y2="2406.2" stroke="#c9a227" stroke-width="5"/><line x1="1200" y1="2370" x2="1200" y2="2410" stroke="#c9a227" stroke-width="10"/><line x1="1114.1" y1="2382.2" x2="1112" y2="2406.2" stroke="#c9a227" stroke-width="5"/><line x1="1028.8" y1="2371" x2="1024.6" y2="2394.7" stroke="#c9a227" stroke-width="5"/><line x1="944.8" y1="2352.4" x2="938.6" y2="2375.6" stroke="#c9a227" stroke-width="5"/><line x1="862.8" y1="2326.5" x2="854.6" y2="2349.1" stroke="#c9a227" stroke-width="5"/><line x1="783.3" y1="2293.6" x2="773.2" y2="2315.4" stroke="#c9a227" stroke-width="5"/><line x1="715" y1="2240" x2="695" y2="2274.7" stroke="#c9a227" stroke-width="10"/><line x1="634.5" y1="2207.7" x2="620.7" y2="2227.3" stroke="#c9a227" stroke-width="5"/><line x1="566.2" y1="2155.3" x2="550.8" y2="2173.7" stroke="#c9a227" stroke-width="5"/><line x1="502.8" y1="2097.2" x2="485.8" y2="2114.2" stroke="#c9a227" stroke-width="5"/><line x1="444.7" y1="2033.8" x2="426.3" y2="2049.2" stroke="#c9a227" stroke-width="5"/><line x1="392.3" y1="1965.5" x2="372.7" y2="1979.3" stroke="#c9a227" stroke-width="5"/><line x1="360" y1="1885" x2="325.3" y2="1905" stroke="#c9a227" stroke-width="10"/><line x1="306.4" y1="1816.7" x2="284.6" y2="1826.8" stroke="#c9a227" stroke-width="5"/><line x1="273.5" y1="1737.2" x2="250.9" y2="1745.4" stroke="#c9a227" stroke-width="5"/><line x1="247.6" y1="1655.2" x2="224.4" y2="1661.4" stroke="#c9a227" stroke-width="5"/><line x1="229" y1="1571.2" x2="205.3" y2="1575.4" stroke="#c9a227" stroke-width="5"/><line x1="217.8" y1="1485.9" x2="193.8" y2="1488" stroke="#c9a227" stroke-width="5"/><line x1="230" y1="1400" x2="190" y2="1400" stroke="#c9a227" stroke-width="10"/><line x1="217.8" y1="1314.1" x2="193.8" y2="1312" stroke="#c9a227" stroke-width="5"/><line x1="229" y1="1228.8" x2="205.3" y2="1224.6" stroke="#c9a227" stroke-width="5"/><line x1="247.6" y1="1144.8" x2="224.4" y2="1138.6" stroke="#c9a227" stroke-width="5"/><line x1="273.5" y1="1062.8" x2="250.9" y2="1054.6" stroke="#c9a227" stroke-width="5"/><line x1="306.4" y1="983.3" x2="284.6" y2="973.2" stroke="#c9a227" stroke-width="5"/><line x1="360" y1="915" x2="325.3" y2="895" stroke="#c9a227" stroke-width="10"/><line x1="392.3" y1="834.5" x2="372.7" y2="820.7" stroke="#c9a227" stroke-width="5"/><line x1="444.7" y1="766.2" x2="426.3" y2="750.8" stroke="#c9a227" stroke-width="5"/><line x1="502.8" y1="702.8" x2="485.8" y2="685.8" stroke="#c9a227" stroke-width="5"/><line x1="566.2" y1="644.7" x2="550.8" y2="626.3" stroke="#c9a227" stroke-width="5"/><line x1="634.5" y1="592.3" x2="620.7" y2="572.7" stroke="#c9a227" stroke-width="5"/><line x1="715" y1="560" x2="695" y2="525.3" stroke="#c9a227" stroke-width="10"/><line x1="783.3" y1="506.4" x2="773.2" y2="484.6" stroke="#c9a227" stroke-width="5"/><line x1="862.8" y1="473.5" x2="854.6" y2="450.9" stroke="#c9a227" stroke-width="5"/><line x1="944.8" y1="447.6" x2="938.6" y2="424.4" stroke="#c9a227" stroke-width="5"/><line x1="1028.8" y1="429" x2="1024.6" y2="405.3" stroke="#c9a227" stroke-width="5"/><line x1="1114.1" y1="417.8" x2="1112" y2="393.8" stroke="#c9a227" stroke-width="5"/><line x1="1200" y1="430" x2="1200" y2="390" stroke="#c9a227" stroke-width="10"/><line x1="1285.9" y1="417.8" x2="1288" y2="393.8" stroke="#c9a227" stroke-width="5"/><line x1="1371.2" y1="429" x2="1375.4" y2="405.3" stroke="#c9a227" stroke-width="5"/><line x1="1455.2" y1="447.6" x2="1461.4" y2="424.4" stroke="#c9a227" stroke-width="5"/><line x1="1537.2" y1="473.5" x2="1545.4" y2="450.9" stroke="#c9a227" stroke-width="5"/><line x1="1616.7" y1="506.4" x2="1626.8" y2="484.6" stroke="#c9a227" stroke-width="5"/><line x1="1685" y1="560" x2="1705" y2="525.3" stroke="#c9a227" stroke-width="10"/><line x1="1765.5" y1="592.3" x2="1779.3" y2="572.7" stroke="#c9a227" stroke-width="5"/><line x1="1833.8" y1="644.7" x2="1849.2" y2="626.3" stroke="#c9a227" stroke-width="5"/><line x1="1897.2" y1="702.8" x2="1914.2" y2="685.8" stroke="#c9a227" stroke-width="5"/><line x1="1955.3" y1="766.2" x2="1973.7" y2="750.8" stroke="#c9a227" stroke-width="5"/><line x1="2007.7" y1="834.5" x2="2027.3" y2="820.7" stroke="#c9a227" stroke-width="5"/><line x1="2040" y1="915" x2="2074.7" y2="895" stroke="#c9a227" stroke-width="10"/><line x1="2093.6" y1="983.3" x2="2115.4" y2="973.2" stroke="#c9a227" stroke-width="5"/><line x1="2126.5" y1="1062.8" x2="2149.1" y2="1054.6" stroke="#c9a227" stroke-width="5"/><line x1="2152.4" y1="1144.8" x2="2175.6" y2="1138.6" stroke="#c9a227" stroke-width="5"/><line x1="2171" y1="1228.8" x2="2194.7" y2="1224.6" stroke="#c9a227" stroke-width="5"/><line x1="2182.2" y1="1314.1" x2="2206.2" y2="1312" stroke="#c9a227" stroke-width="5"/><circle cx="1200" cy="1400" r="280" fill="none" stroke="#c9a227" stroke-width="3" opacity="0.28" stroke-dasharray="3 26"/><circle cx="1200" cy="1400" r="530" fill="none" stroke="#c9a227" stroke-width="3" opacity="0.28" stroke-dasharray="3 26"/><circle cx="1200" cy="1400" r="780" fill="none" stroke="#c9a227" stroke-width="3" opacity="0.28" stroke-dasharray="3 26"/><circle cx="2064.7" cy="1557" r="4.1" fill="#c9a227" opacity="0.57"/><circle cx="1744.6" cy="1459.3" r="6.4" fill="#c9a227" opacity="0.77"/><circle cx="972.2" cy="2110" r="5" fill="#c9a227" opacity="0.98"/><circle cx="1727.1" cy="1699.7" r="3.8" fill="#c9a227" opacity="0.67"/><circle cx="1189.8" cy="694.5" r="7.7" fill="#c9a227" opacity="0.72"/><circle cx="1283.6" cy="1003.1" r="3.7" fill="#c9a227" opacity="0.99"/><circle cx="1831.8" cy="1168.5" r="5.1" fill="#c9a227" opacity="0.91"/><circle cx="1777.9" cy="1970.2" r="3.9" fill="#c9a227" opacity="0.99"/><circle cx="1255.9" cy="1568.9" r="5.9" fill="#c9a227" opacity="0.60"/><circle cx="608" cy="1642.4" r="7.9" fill="#c9a227" opacity="0.91"/><circle cx="1148" cy="1300.1" r="6.3" fill="#c9a227" opacity="0.46"/><circle cx="1262.8" cy="773" r="5.6" fill="#c9a227" opacity="0.81"/><circle cx="1855.9" cy="1584.4" r="3.1" fill="#c9a227" opacity="0.77"/><circle cx="1810" cy="1439.2" r="7.4" fill="#c9a227" opacity="0.55"/><circle cx="1210.6" cy="2111.4" r="6.8" fill="#c9a227" opacity="0.54"/><circle cx="1509.4" cy="897.8" r="3.2" fill="#c9a227" opacity="0.50"/><circle cx="708.2" cy="1577.8" r="7.5" fill="#c9a227" opacity="0.64"/><circle cx="1360.9" cy="714.1" r="3.6" fill="#c9a227" opacity="0.56"/><circle cx="2022.9" cy="1481.8" r="3.2" fill="#c9a227" opacity="0.46"/><circle cx="1504" cy="1868.4" r="5.6" fill="#c9a227" opacity="0.74"/><circle cx="1110.4" cy="2222" r="3.2" fill="#c9a227" opacity="0.88"/><circle cx="1035.8" cy="1374.6" r="6.4" fill="#c9a227" opacity="0.72"/><circle cx="1304.8" cy="2288.4" r="6.2" fill="#c9a227" opacity="0.49"/><circle cx="1598.1" cy="1148.4" r="7" fill="#c9a227" opacity="0.81"/><circle cx="716.2" cy="1985" r="3.5" fill="#c9a227" opacity="0.73"/><circle cx="1763.4" cy="920.2" r="3.6" fill="#c9a227" opacity="0.63"/><circle cx="836.9" cy="1798.2" r="6.7" fill="#c9a227" opacity="0.56"/><circle cx="1591.2" cy="1155.3" r="4.2" fill="#c9a227" opacity="0.55"/><circle cx="1614.7" cy="921.1" r="3.5" fill="#c9a227" opacity="0.54"/><circle cx="951.9" cy="1590.2" r="4.6" fill="#c9a227" opacity="0.50"/><circle cx="751.2" cy="1726.2" r="5" fill="#c9a227" opacity="0.61"/><circle cx="842.2" cy="1329.9" r="7.9" fill="#c9a227" opacity="0.69"/><circle cx="1229.5" cy="1084.8" r="5.9" fill="#c9a227" opacity="0.56"/><circle cx="1063.2" cy="2292.7" r="5.7" fill="#c9a227" opacity="0.65"/><circle cx="382" cy="1204.7" r="6.2" fill="#c9a227" opacity="0.67"/><circle cx="911.6" cy="921" r="5.6" fill="#c9a227" opacity="0.92"/><circle cx="512.5" cy="1481.6" r="7.6" fill="#c9a227" opacity="0.45"/><circle cx="658.7" cy="702.7" r="4.5" fill="#c9a227" opacity="0.96"/><circle cx="621.4" cy="1338.1" r="7.3" fill="#c9a227" opacity="0.95"/><circle cx="935" cy="1540.6" r="4.8" fill="#c9a227" opacity="0.67"/><circle cx="1382.1" cy="736.4" r="6.5" fill="#c9a227" opacity="0.83"/><circle cx="813.5" cy="1509.6" r="6.4" fill="#c9a227" opacity="0.54"/><circle cx="1416" cy="1933.3" r="5.8" fill="#c9a227" opacity="0.64"/><circle cx="1104.1" cy="1110.7" r="7.4" fill="#c9a227" opacity="0.95"/><circle cx="621.9" cy="1293.4" r="4.3" fill="#c9a227" opacity="0.60"/><circle cx="1520.2" cy="1668.4" r="5.6" fill="#c9a227" opacity="0.68"/><circle cx="1582.7" cy="1790.8" r="3.1" fill="#c9a227" opacity="0.85"/><circle cx="1827.9" cy="1806.7" r="4.8" fill="#c9a227" opacity="0.90"/><circle cx="974.7" cy="1720.7" r="4.6" fill="#c9a227" opacity="0.55"/><circle cx="340.6" cy="1283.3" r="3.3" fill="#c9a227" opacity="0.91"/><circle cx="1516.9" cy="572.3" r="6.6" fill="#c9a227" opacity="0.70"/><circle cx="1173.1" cy="1819.6" r="4.6" fill="#c9a227" opacity="0.84"/><circle cx="2020.3" cy="1173.2" r="6.9" fill="#c9a227" opacity="0.48"/><circle cx="2004.1" cy="1460.9" r="6.5" fill="#c9a227" opacity="0.89"/><circle cx="288.2" cy="1393.3" r="6.4" fill="#c9a227" opacity="0.68"/><circle cx="1930.2" cy="986.1" r="4.6" fill="#c9a227" opacity="0.45"/><circle cx="426.8" cy="1711.7" r="4.9" fill="#c9a227" opacity="0.86"/><circle cx="695" cy="1764.5" r="5.6" fill="#c9a227" opacity="0.96"/><circle cx="1021.7" cy="595.4" r="5" fill="#c9a227" opacity="0.74"/><circle cx="344" cy="1484.4" r="7.2" fill="#c9a227" opacity="0.86"/><circle cx="1328.2" cy="1294.1" r="4.3" fill="#c9a227" opacity="0.61"/><circle cx="1144.4" cy="681.8" r="4.2" fill="#c9a227" opacity="0.95"/><circle cx="1799.5" cy="1500.7" r="6.6" fill="#c9a227" opacity="0.74"/><circle cx="1823.3" cy="1699.9" r="7.4" fill="#c9a227" opacity="0.96"/><circle cx="1139.8" cy="1047.7" r="3.4" fill="#c9a227" opacity="0.49"/><circle cx="1104.2" cy="1938.4" r="7.6" fill="#c9a227" opacity="0.68"/><path d="M1325,1106.4 Q1365,1099.2 1405.1,1106.4 Q1365,1113.6 1325,1106.4 Z M1365,1066.3 Q1372.3,1106.4 1365,1146.4 Q1357.8,1106.4 1365,1066.3 Z" fill="#c9a227"/><path d="M1095.4,1800.3 Q1154.1,1789.7 1212.9,1800.3 Q1154.1,1810.8 1095.4,1800.3 Z M1154.1,1741.5 Q1164.7,1800.3 1154.1,1859 Q1143.6,1800.3 1154.1,1741.5 Z" fill="#c9a227"/><path d="M1195.8,1340.5 Q1232.5,1333.9 1269.1,1340.5 Q1232.5,1347.1 1195.8,1340.5 Z M1232.5,1303.8 Q1239.1,1340.5 1232.5,1377.1 Q1225.9,1340.5 1232.5,1303.8 Z" fill="#c9a227"/><path d="M758.8,804.4 Q795.3,797.8 831.8,804.4 Q795.3,811 758.8,804.4 Z M795.3,767.9 Q801.9,804.4 795.3,840.9 Q788.7,804.4 795.3,767.9 Z" fill="#c9a227"/><path d="M1616.2,1159 Q1663.9,1150.4 1711.6,1159 Q1663.9,1167.5 1616.2,1159 Z M1663.9,1111.3 Q1672.5,1159 1663.9,1206.6 Q1655.3,1159 1663.9,1111.3 Z" fill="#c9a227"/><polyline points="1478.3,1173.2 1401.8,1065.4 1205.7,951.4 1065.3,946.3 1147.5,1033.8 1064.5,1229.2 " fill="none" stroke="#c9a227" stroke-width="4" opacity="0.55"/><circle cx="1478.3" cy="1173.2" r="12" fill="#c9a227"/><circle cx="1401.8" cy="1065.4" r="13.4" fill="#c9a227"/><circle cx="1205.7" cy="951.4" r="12.1" fill="#c9a227"/><circle cx="1065.3" cy="946.3" r="8.3" fill="#c9a227"/><circle cx="1147.5" cy="1033.8" r="11.2" fill="#c9a227"/><circle cx="1064.5" cy="1229.2" r="11.2" fill="#c9a227"/><polyline points="876.6,1397.4 791.7,1231.7 718.4,1254 653.3,1173.6 597.3,1314 494.6,1443.3 " fill="none" stroke="#c9a227" stroke-width="4" opacity="0.55"/><circle cx="876.6" cy="1397.4" r="12" fill="#c9a227"/><circle cx="791.7" cy="1231.7" r="9.1" fill="#c9a227"/><circle cx="718.4" cy="1254" r="12.9" fill="#c9a227"/><circle cx="653.3" cy="1173.6" r="12.5" fill="#c9a227"/><circle cx="597.3" cy="1314" r="11" fill="#c9a227"/><circle cx="494.6" cy="1443.3" r="11.8" fill="#c9a227"/><polyline points="1012.4,1554.4 838.4,1396.5 1031.7,1264.7 1241.6,1162.8 1319.1,965.6 1441.3,964.6 " fill="none" stroke="#c9a227" stroke-width="4" opacity="0.55"/><circle cx="1012.4" cy="1554.4" r="12" fill="#c9a227"/><circle cx="838.4" cy="1396.5" r="12.5" fill="#c9a227"/><circle cx="1031.7" cy="1264.7" r="9.7" fill="#c9a227"/><circle cx="1241.6" cy="1162.8" r="11.1" fill="#c9a227"/><circle cx="1319.1" cy="965.6" r="9.2" fill="#c9a227"/><circle cx="1441.3" cy="964.6" r="8.7" fill="#c9a227"/><circle cx="802.3" cy="1901.4" r="88" fill="#c9a227"/><circle cx="839.3" cy="1885.6" r="77.4" fill="#141b25"/><path d="M370.1,2819.9 L 433.9,2819.9 L 433.9,2756.1 L 383.8,2756.1 L 383.8,2795.6 L 409.6,2795.6 L 409.6,2775.8 M446.1,2819.9 L 509.9,2819.9 L 509.9,2756.1 L 459.8,2756.1 L 459.8,2795.6 L 485.6,2795.6 L 485.6,2775.8 M522.1,2819.9 L 585.9,2819.9 L 585.9,2756.1 L 535.8,2756.1 L 535.8,2795.6 L 561.6,2795.6 L 561.6,2775.8 M598.1,2819.9 L 661.9,2819.9 L 661.9,2756.1 L 611.8,2756.1 L 611.8,2795.6 L 637.6,2795.6 L 637.6,2775.8 M674.1,2819.9 L 737.9,2819.9 L 737.9,2756.1 L 687.8,2756.1 L 687.8,2795.6 L 713.6,2795.6 L 713.6,2775.8 M750.1,2819.9 L 813.9,2819.9 L 813.9,2756.1 L 763.8,2756.1 L 763.8,2795.6 L 789.6,2795.6 L 789.6,2775.8 M826.1,2819.9 L 889.9,2819.9 L 889.9,2756.1 L 839.8,2756.1 L 839.8,2795.6 L 865.6,2795.6 L 865.6,2775.8 M902.1,2819.9 L 965.9,2819.9 L 965.9,2756.1 L 915.8,2756.1 L 915.8,2795.6 L 941.6,2795.6 L 941.6,2775.8 M978.1,2819.9 L 1041.9,2819.9 L 1041.9,2756.1 L 991.8,2756.1 L 991.8,2795.6 L 1017.6,2795.6 L 1017.6,2775.8 M1054.1,2819.9 L 1117.9,2819.9 L 1117.9,2756.1 L 1067.8,2756.1 L 1067.8,2795.6 L 1093.6,2795.6 L 1093.6,2775.8 M1130.1,2819.9 L 1193.9,2819.9 L 1193.9,2756.1 L 1143.8,2756.1 L 1143.8,2795.6 L 1169.6,2795.6 L 1169.6,2775.8 M1206.1,2819.9 L 1269.9,2819.9 L 1269.9,2756.1 L 1219.8,2756.1 L 1219.8,2795.6 L 1245.6,2795.6 L 1245.6,2775.8 M1282.1,2819.9 L 1345.9,2819.9 L 1345.9,2756.1 L 1295.8,2756.1 L 1295.8,2795.6 L 1321.6,2795.6 L 1321.6,2775.8 M1358.1,2819.9 L 1421.9,2819.9 L 1421.9,2756.1 L 1371.8,2756.1 L 1371.8,2795.6 L 1397.6,2795.6 L 1397.6,2775.8 M1434.1,2819.9 L 1497.9,2819.9 L 1497.9,2756.1 L 1447.8,2756.1 L 1447.8,2795.6 L 1473.6,2795.6 L 1473.6,2775.8 M1510.1,2819.9 L 1573.9,2819.9 L 1573.9,2756.1 L 1523.8,2756.1 L 1523.8,2795.6 L 1549.6,2795.6 L 1549.6,2775.8 M1586.1,2819.9 L 1649.9,2819.9 L 1649.9,2756.1 L 1599.8,2756.1 L 1599.8,2795.6 L 1625.6,2795.6 L 1625.6,2775.8 M1662.1,2819.9 L 1725.9,2819.9 L 1725.9,2756.1 L 1675.8,2756.1 L 1675.8,2795.6 L 1701.6,2795.6 L 1701.6,2775.8 M1738.1,2819.9 L 1801.9,2819.9 L 1801.9,2756.1 L 1751.8,2756.1 L 1751.8,2795.6 L 1777.6,2795.6 L 1777.6,2775.8 M1814.1,2819.9 L 1877.9,2819.9 L 1877.9,2756.1 L 1827.8,2756.1 L 1827.8,2795.6 L 1853.6,2795.6 L 1853.6,2775.8 M1890.1,2819.9 L 1953.9,2819.9 L 1953.9,2756.1 L 1903.8,2756.1 L 1903.8,2795.6 L 1929.6,2795.6 L 1929.6,2775.8 M1966.1,2819.9 L 2029.9,2819.9 L 2029.9,2756.1 L 1979.8,2756.1 L 1979.8,2795.6 L 2005.6,2795.6 L 2005.6,2775.8 " fill="none" stroke="#c9a227" stroke-width="9.9"/><rect x="100" y="100" width="2200" height="2800" fill="none" stroke="#c9a227" stroke-width="9"/><rect x="142" y="142" width="2116" height="2716" fill="none" stroke="#c9a227" stroke-width="3" opacity="0.65"/></svg></svg>