<svg xmlns="http://www.w3.org/2000/svg" width="2400" height="1800" viewBox="0 0 2400 1800"><rect width="2400" height="1800" fill="#dfe4dc"/><rect y="1400" width="2400" height="400" fill="#c2a67e"/><line x1="60" y1="1400" x2="10" y2="1800" stroke="#00000015" stroke-width="5"/><line x1="260" y1="1400" x2="210" y2="1800" stroke="#00000015" stroke-width="5"/><line x1="460" y1="1400" x2="410" y2="1800" stroke="#00000015" stroke-width="5"/><line x1="660" y1="1400" x2="610" y2="1800" stroke="#00000015" stroke-width="5"/><line x1="860" y1="1400" x2="810" y2="1800" stroke="#00000015" stroke-width="5"/><line x1="1060" y1="1400" x2="1010" y2="1800" stroke="#00000015" stroke-width="5"/><line x1="1260" y1="1400" x2="1210" y2="1800" stroke="#00000015" stroke-width="5"/><line x1="1460" y1="1400" x2="1410" y2="1800" stroke="#00000015" stroke-width="5"/><line x1="1660" y1="1400" x2="1610" y2="1800" stroke="#00000015" stroke-width="5"/><line x1="1860" y1="1400" x2="1810" y2="1800" stroke="#00000015" stroke-width="5"/><line x1="2060" y1="1400" x2="2010" y2="1800" stroke="#00000015" stroke-width="5"/><line x1="2260" y1="1400" x2="2210" y2="1800" stroke="#00000015" stroke-width="5"/><rect x="180" y="260" width="900" height="620" fill="#8a6a48"/><rect x="215" y="295" width="830" height="550" fill="#41524a"/><line x1="280" y1="420" x2="760" y2="420" stroke="#ffffff66" stroke-width="9" stroke-linecap="round"/><line x1="280" y1="520" x2="620" y2="520" stroke="#ffffff44" stroke-width="9" stroke-linecap="round"/><circle cx="880" cy="560" r="90" fill="none" stroke="#ffffff55" stroke-width="8"/><rect x="215" y="845" width="830" height="22" fill="#6f5436"/><rect x="330" y="1240" width="640" height="60" rx="10" fill="#9c7449"/><rect x="370" y="1300" width="60" height="240" fill="#8a6540"/><rect x="870" y="1300" width="60" height="240" fill="#8a6540"/><rect x="430" y="1160" width="150" height="80" rx="8" fill="#a8502f"/><rect x="450" y="1120" width="150" height="40" rx="8" fill="#b8a276"/><circle cx="800" cy="1130" r="86" fill="#7fa3b8"/><path d="M760,1060 Q820,1100 780,1190 M740,1090 Q800,1120 850,1100" stroke="#5d8069" stroke-width="16" fill="none" stroke-linecap="round"/><circle cx="800" cy="1130" r="86" fill="none" stroke="#6b5233" stroke-width="7"/><line x1="800" y1="1216" x2="800" y2="1250" stroke="#6b5233" stroke-width="10"/><rect x="750" y="1244" width="100" height="14" rx="7" fill="#6b5233"/><rect x="1980" y="700" width="300" height="800" fill="#9c7449"/><rect x="2000" y="930" width="260" height="16" fill="#7c5a37"/><rect x="2020" y="790" width="36" height="140" fill="#b3502f"/><rect x="2066" y="802" width="36" height="128" fill="#39685c"/><rect x="2112" y="790" width="36" height="140" fill="#c9a227"/><rect x="2158" y="802" width="36" height="128" fill="#2c4661"/><rect x="2204" y="790" width="36" height="140" fill="#8a4423"/><rect x="2000" y="1180" width="260" height="16" fill="#7c5a37"/><rect x="2020" y="1040" width="36" height="140" fill="#39685c"/><rect x="2066" y="1052" width="36" height="128" fill="#c9a227"/><rect x="2112" y="1040" width="36" height="140" fill="#2c4661"/><rect x="2158" y="1052" width="36" height="128" fill="#8a4423"/><rect x="2204" y="1040" width="36" height="140" fill="#b3502f"/><rect x="2000" y="1430" width="260" height="16" fill="#7c5a37"/><rect x="2020" y="1290" width="36" height="140" fill="#c9a227"/><rect x="2066" y="1302" width="36" height="128" fill="#2c4661"/><rect x="2112" y="1290" width="36" height="140" fill="#8a4423"/><rect x="2158" y="1302" width="36" height="128" fill="#b3502f"/><rect x="2204" y="1290" width="36" height="140" fill="#39685c"/><defs><filter id="a177c-sh" x="-30%" y="-30%" width="160%" height="160%"><feGaussianBlur stdDeviation="16"/></filter></defs><rect x="1340.5" y="298.5" width="517" height="635" fill="#000" opacity="0.28" filter="url(#a177c-sh)"/><rect x="1326.5" y="276.5" width="517" height="635" fill="#3d342a"/><rect x="1341.8" y="291.8" width="486.4" height="604.5" fill="none" stroke="#00000055" stroke-width="3"/><rect x="1350" y="300" width="470" height="588" fill="#f6f2ea"/><svg x="1385.3" y="335.3" width="399.5" height="517.5" viewBox="0 0 2400 3000" preserveAspectRatio="xMidYMid slice"><filter id="a177-warp" x="-4%" y="-4%" width="108%" height="108%"><feTurbulence type="fractalNoise" baseFrequency="0.0105" numOctaves="2" seed="5503" result="w"/><feDisplacementMap in="SourceGraphic" in2="w" scale="11" xChannelSelector="R" yChannelSelector="G"/></filter><filter id="a177-grain" x="0%" y="0%" width="100%" height="100%"><feTurbulence type="fractalNoise" baseFrequency="0.6" numOctaves="2" seed="5510"/><feColorMatrix type="matrix" values="0.33 0.33 0.33 0 0.62  0.33 0.33 0.33 0 0.62  0.33 0.33 0.33 0 0.62  0 0 0 0 1"/></filter><filter id="a177-mottle" x="0%" y="0%" width="100%" height="100%"><feTurbulence type="fractalNoise" baseFrequency="0.0045" numOctaves="3" seed="5516"/><feColorMatrix type="matrix" values="0.2 0.2 0.2 0 0.78  0.2 0.2 0.2 0 0.78  0.2 0.2 0.2 0 0.78  0 0 0 0 1"/></filter><filter id="a177-fade" x="0%" y="0%" width="100%" height="100%"><feTurbulence type="fractalNoise" baseFrequency="0.006" numOctaves="2" seed="5532"/><feColorMatrix type="matrix" values="0.3 0.3 0.3 0 -0.08  0.3 0.3 0.3 0 -0.08  0.3 0.3 0.3 0 -0.1  0 0 0 0 1"/></filter><filter id="a177-blur9"><feGaussianBlur stdDeviation="9"/></filter><radialGradient id="a177-vig" cx="50%" cy="44%" r="78%"><stop offset="52%" stop-color="#241a10" stop-opacity="0"/><stop offset="100%" stop-color="#241a10" stop-opacity="0.17"/></radialGradient><radialGradient id="a177-warm" cx="53%" cy="30%" r="85%"><stop offset="0%" stop-color="#e8c890" stop-opacity="0.14"/><stop offset="70%" stop-color="#e8c890" stop-opacity="0"/></radialGradient><rect width="2400" height="3000" fill="#d9c49a"/><rect width="2400" height="3000" fill="url(#a177-warm)"/><rect x="0" width="41" height="3000" fill="#6b4e26" opacity="0.081"/><rect x="56.9" width="19.4" height="3000" fill="#6b4e26" opacity="0.100"/><rect x="83.8" width="33.5" height="3000" fill="#6b4e26" opacity="0.047"/><rect x="130.3" width="37.4" height="3000" fill="#6b4e26" opacity="0.070"/><rect x="182.2" width="29.5" height="3000" fill="#6b4e26" opacity="0.075"/><rect x="223.2" width="40.1" height="3000" fill="#6b4e26" opacity="0.078"/><rect x="278.9" width="24.6" height="3000" fill="#6b4e26" opacity="0.065"/><rect x="313" width="27.9" height="3000" fill="#6b4e26" opacity="0.031"/><rect x="351.8" width="32.2" height="3000" fill="#6b4e26" opacity="0.055"/><rect x="396.5" width="35.1" height="3000" fill="#6b4e26" opacity="0.084"/><rect x="445.2" width="40" height="3000" fill="#6b4e26" opacity="0.061"/><rect x="500.8" width="42.5" height="3000" fill="#6b4e26" opacity="0.031"/><rect x="559.7" width="35.7" height="3000" fill="#6b4e26" opacity="0.044"/><rect x="609.3" width="25.7" height="3000" fill="#6b4e26" opacity="0.074"/><rect x="645.1" width="23" height="3000" fill="#6b4e26" opacity="0.034"/><rect x="677" width="26.1" height="3000" fill="#6b4e26" opacity="0.053"/><rect x="713.3" width="32.1" height="3000" fill="#6b4e26" opacity="0.030"/><rect x="758" width="19.5" height="3000" fill="#6b4e26" opacity="0.040"/><rect x="785.1" width="24.3" height="3000" fill="#6b4e26" opacity="0.074"/><rect x="818.8" width="40.3" height="3000" fill="#6b4e26" opacity="0.091"/><rect x="874.7" width="33.2" height="3000" fill="#6b4e26" opacity="0.082"/><rect x="920.8" width="31.3" height="3000" fill="#6b4e26" opacity="0.080"/><rect x="964.3" width="19.4" height="3000" fill="#6b4e26" opacity="0.082"/><rect x="991.3" width="32.8" height="3000" fill="#6b4e26" opacity="0.056"/><rect x="1036.9" width="34.9" height="3000" fill="#6b4e26" opacity="0.043"/><rect x="1085.4" width="37.7" height="3000" fill="#6b4e26" opacity="0.046"/><rect x="1137.7" width="28.8" height="3000" fill="#6b4e26" opacity="0.077"/><rect x="1177.6" width="32.8" height="3000" fill="#6b4e26" opacity="0.085"/><rect x="1223.2" width="25.8" height="3000" fill="#6b4e26" opacity="0.086"/><rect x="1259" width="35" height="3000" fill="#6b4e26" opacity="0.073"/><rect x="1307.6" width="39" height="3000" fill="#6b4e26" opacity="0.043"/><rect x="1361.7" width="31" height="3000" fill="#6b4e26" opacity="0.084"/><rect x="1404.8" width="26.5" height="3000" fill="#6b4e26" opacity="0.040"/><rect x="1441.6" width="29.1" height="3000" fill="#6b4e26" opacity="0.035"/><rect x="1482.1" width="31.6" height="3000" fill="#6b4e26" opacity="0.081"/><rect x="1525.9" width="29.1" height="3000" fill="#6b4e26" opacity="0.064"/><rect x="1566.4" width="25.7" height="3000" fill="#6b4e26" opacity="0.044"/><rect x="1602.1" width="29.7" height="3000" fill="#6b4e26" opacity="0.096"/><rect x="1643.3" width="35.1" height="3000" fill="#6b4e26" opacity="0.047"/><rect x="1692.1" width="21.7" height="3000" fill="#6b4e26" opacity="0.039"/><rect x="1722.1" width="27.8" height="3000" fill="#6b4e26" opacity="0.066"/><rect x="1760.8" width="26.8" height="3000" fill="#6b4e26" opacity="0.062"/><rect x="1798.1" width="38.2" height="3000" fill="#6b4e26" opacity="0.057"/><rect x="1851.1" width="37.6" height="3000" fill="#6b4e26" opacity="0.036"/><rect x="1903.3" width="28.4" height="3000" fill="#6b4e26" opacity="0.065"/><rect x="1942.8" width="35.9" height="3000" fill="#6b4e26" opacity="0.093"/><rect x="1992.6" width="41.8" height="3000" fill="#6b4e26" opacity="0.095"/><rect x="2050.8" width="35.9" height="3000" fill="#6b4e26" opacity="0.037"/><rect x="2100.7" width="19.4" height="3000" fill="#6b4e26" opacity="0.096"/><rect x="2127.6" width="25" height="3000" fill="#6b4e26" opacity="0.086"/><rect x="2162.4" width="20.3" height="3000" fill="#6b4e26" opacity="0.046"/><rect x="2190.6" width="36.4" height="3000" fill="#6b4e26" opacity="0.059"/><rect x="2241.2" width="29.3" height="3000" fill="#6b4e26" opacity="0.086"/><rect x="2281.9" width="30.8" height="3000" fill="#6b4e26" opacity="0.061"/><rect x="2324.7" width="37.9" height="3000" fill="#6b4e26" opacity="0.071"/><rect x="2377.3" width="33.2" height="3000" fill="#6b4e26" opacity="0.059"/><rect y="0" width="2400" height="16.6" fill="#7c5c30" opacity="0.057"/><rect y="27.7" width="2400" height="21.8" fill="#7c5c30" opacity="0.030"/><rect y="64.1" width="2400" height="25.1" fill="#7c5c30" opacity="0.054"/><rect y="105.9" width="2400" height="16.1" fill="#7c5c30" opacity="0.033"/><rect y="132.6" width="2400" height="16" fill="#7c5c30" opacity="0.058"/><rect y="159.3" width="2400" height="26.7" fill="#7c5c30" opacity="0.050"/><rect y="203.8" width="2400" height="27" fill="#7c5c30" opacity="0.059"/><rect y="248.8" width="2400" height="23.6" fill="#7c5c30" opacity="0.030"/><rect y="288.1" width="2400" height="13.3" fill="#7c5c30" opacity="0.037"/><rect y="310.2" width="2400" height="24.5" fill="#7c5c30" opacity="0.049"/><rect y="351.1" width="2400" height="14" fill="#7c5c30" opacity="0.020"/><rect y="374.4" width="2400" height="18.7" fill="#7c5c30" opacity="0.033"/><rect y="405.7" width="2400" height="14.8" fill="#7c5c30" opacity="0.031"/><rect y="430.3" width="2400" height="27.8" fill="#7c5c30" opacity="0.041"/><rect y="476.6" width="2400" height="16.8" fill="#7c5c30" opacity="0.029"/><rect y="504.5" width="2400" height="20.6" fill="#7c5c30" opacity="0.044"/><rect y="538.9" width="2400" height="14.8" fill="#7c5c30" opacity="0.043"/><rect y="563.5" width="2400" height="27.7" fill="#7c5c30" opacity="0.025"/><rect y="609.7" width="2400" height="24.8" fill="#7c5c30" opacity="0.054"/><rect y="651.1" width="2400" height="22.3" fill="#7c5c30" opacity="0.035"/><rect y="688.3" width="2400" height="15.4" fill="#7c5c30" opacity="0.034"/><rect y="713.9" width="2400" height="19.9" fill="#7c5c30" opacity="0.057"/><rect y="747.1" width="2400" height="28.4" fill="#7c5c30" opacity="0.040"/><rect y="794.5" width="2400" height="14.6" fill="#7c5c30" opacity="0.028"/><rect y="818.8" width="2400" height="25.6" fill="#7c5c30" opacity="0.026"/><rect y="861.5" width="2400" height="26.8" fill="#7c5c30" opacity="0.056"/><rect y="906.1" width="2400" height="26.2" fill="#7c5c30" opacity="0.047"/><rect y="949.8" width="2400" height="21.2" fill="#7c5c30" opacity="0.022"/><rect y="985.1" width="2400" height="25.5" fill="#7c5c30" opacity="0.045"/><rect y="1027.6" width="2400" height="23.3" fill="#7c5c30" opacity="0.025"/><rect y="1066.5" width="2400" height="25.2" fill="#7c5c30" opacity="0.036"/><rect y="1108.5" width="2400" height="22.9" fill="#7c5c30" opacity="0.053"/><rect y="1146.6" width="2400" height="20.2" fill="#7c5c30" opacity="0.036"/><rect y="1180.3" width="2400" height="25" fill="#7c5c30" opacity="0.024"/><rect y="1222" width="2400" height="12.6" fill="#7c5c30" opacity="0.043"/><rect y="1242.9" width="2400" height="14.6" fill="#7c5c30" opacity="0.023"/><rect y="1267.3" width="2400" height="22.1" fill="#7c5c30" opacity="0.060"/><rect y="1304.1" width="2400" height="26.6" fill="#7c5c30" opacity="0.025"/><rect y="1348.4" width="2400" height="28.6" fill="#7c5c30" opacity="0.024"/><rect y="1396" width="2400" height="14.5" fill="#7c5c30" opacity="0.048"/><rect y="1420.2" width="2400" height="12.4" fill="#7c5c30" opacity="0.039"/><rect y="1440.8" width="2400" height="15.1" fill="#7c5c30" opacity="0.033"/><rect y="1466" width="2400" height="14.5" fill="#7c5c30" opacity="0.053"/><rect y="1490.1" width="2400" height="26.3" fill="#7c5c30" opacity="0.044"/><rect y="1534" width="2400" height="20.9" fill="#7c5c30" opacity="0.038"/><rect y="1568.8" width="2400" height="25" fill="#7c5c30" opacity="0.024"/><rect y="1610.4" width="2400" height="23.4" fill="#7c5c30" opacity="0.045"/><rect y="1649.3" width="2400" height="14.9" fill="#7c5c30" opacity="0.027"/><rect y="1674.1" width="2400" height="25" fill="#7c5c30" opacity="0.032"/><rect y="1715.8" width="2400" height="26.9" fill="#7c5c30" opacity="0.040"/><rect y="1760.6" width="2400" height="20.5" fill="#7c5c30" opacity="0.040"/><rect y="1794.7" width="2400" height="20.7" fill="#7c5c30" opacity="0.022"/><rect y="1829.2" width="2400" height="17.4" fill="#7c5c30" opacity="0.045"/><rect y="1858.3" width="2400" height="16.8" fill="#7c5c30" opacity="0.029"/><rect y="1886.2" width="2400" height="12.5" fill="#7c5c30" opacity="0.059"/><rect y="1907" width="2400" height="25.6" fill="#7c5c30" opacity="0.041"/><rect y="1949.8" width="2400" height="16.1" fill="#7c5c30" opacity="0.034"/><rect y="1976.6" width="2400" height="26.2" fill="#7c5c30" opacity="0.050"/><rect y="2020.2" width="2400" height="24.8" fill="#7c5c30" opacity="0.027"/><rect y="2061.5" width="2400" height="19.8" fill="#7c5c30" opacity="0.041"/><rect y="2094.5" width="2400" height="27.4" fill="#7c5c30" opacity="0.027"/><rect y="2140.1" width="2400" height="17.2" fill="#7c5c30" opacity="0.023"/><rect y="2168.8" width="2400" height="24.6" fill="#7c5c30" opacity="0.022"/><rect y="2209.9" width="2400" height="12.9" fill="#7c5c30" opacity="0.058"/><rect y="2231.4" width="2400" height="23.8" fill="#7c5c30" opacity="0.026"/><rect y="2271.1" width="2400" height="25.9" fill="#7c5c30" opacity="0.055"/><rect y="2314.2" width="2400" height="12.5" fill="#7c5c30" opacity="0.030"/><rect y="2335" width="2400" height="13.4" fill="#7c5c30" opacity="0.041"/><rect y="2357.2" width="2400" height="18.3" fill="#7c5c30" opacity="0.028"/><rect y="2387.8" width="2400" height="25.7" fill="#7c5c30" opacity="0.050"/><rect y="2430.7" width="2400" height="19.5" fill="#7c5c30" opacity="0.044"/><rect y="2463.2" width="2400" height="13" fill="#7c5c30" opacity="0.020"/><rect y="2484.8" width="2400" height="12.6" fill="#7c5c30" opacity="0.056"/><rect y="2505.9" width="2400" height="23" fill="#7c5c30" opacity="0.021"/><rect y="2544.1" width="2400" height="26" fill="#7c5c30" opacity="0.040"/><rect y="2587.5" width="2400" height="18.4" fill="#7c5c30" opacity="0.048"/><rect y="2618.2" width="2400" height="24.6" fill="#7c5c30" opacity="0.025"/><rect y="2659.2" width="2400" height="22.2" fill="#7c5c30" opacity="0.056"/><rect y="2696.3" width="2400" height="17.1" fill="#7c5c30" opacity="0.027"/><rect y="2724.7" width="2400" height="27" fill="#7c5c30" opacity="0.050"/><rect y="2769.7" width="2400" height="18.2" fill="#7c5c30" opacity="0.043"/><rect y="2800.1" width="2400" height="12.2" fill="#7c5c30" opacity="0.028"/><rect y="2820.4" width="2400" height="13.6" fill="#7c5c30" opacity="0.047"/><rect y="2843.1" width="2400" height="24.8" fill="#7c5c30" opacity="0.036"/><rect y="2884.4" width="2400" height="24.9" fill="#7c5c30" opacity="0.039"/><rect y="2926" width="2400" height="24.3" fill="#7c5c30" opacity="0.035"/><rect y="2966.5" width="2400" height="13.4" fill="#7c5c30" opacity="0.023"/><rect y="2988.8" width="2400" height="27.2" fill="#7c5c30" opacity="0.058"/><g filter="url(#a177-warp)"><rect x="190" y="190" width="2020" height="2620" fill="none" stroke="#2c2820" stroke-width="14"/><rect x="260" y="260" width="1880" height="2480" fill="none" stroke="#2c2820" stroke-width="7"/><rect x="148" y="148" width="84" height="84" fill="#a8502f"/><rect x="148" y="2768" width="84" height="84" fill="#a8502f"/><rect x="2168" y="148" width="84" height="84" fill="#a8502f"/><rect x="2168" y="2768" width="84" height="84" fill="#a8502f"/><circle cx="1200" cy="1300" r="210" fill="#a8502f"/><circle cx="1200" cy="1300" r="252" fill="none" stroke="#2c2820" stroke-width="18"/><line x1="1040" y1="1320" x2="182.1" y2="1290" stroke="#2c2820" stroke-width="34" stroke-linecap="round"/><line x1="1040" y1="1320" x2="198.8" y2="1230.6" stroke="#2c2820" stroke-width="34" stroke-linecap="round"/><line x1="1040" y1="1320" x2="231.9" y2="1172.9" stroke="#2c2820" stroke-width="34" stroke-linecap="round"/><line x1="1040" y1="1320" x2="280.7" y2="1118.1" stroke="#2c2820" stroke-width="34" stroke-linecap="round"/><line x1="1040" y1="1320" x2="344.2" y2="1067.3" stroke="#2c2820" stroke-width="34" stroke-linecap="round"/><line x1="1040" y1="1320" x2="421.4" y2="1021.3" stroke="#2c2820" stroke-width="34" stroke-linecap="round"/><line x1="1040" y1="1320" x2="510.5" y2="981.2" stroke="#2c2820" stroke-width="34" stroke-linecap="round"/><line x1="1040" y1="1320" x2="610" y2="947.6" stroke="#2c2820" stroke-width="34" stroke-linecap="round"/><line x1="1040" y1="1320" x2="361.7" y2="1296.3" stroke="#2c2820" stroke-width="30" stroke-linecap="round"/><line x1="1040" y1="1320" x2="374.9" y2="1249.3" stroke="#2c2820" stroke-width="30" stroke-linecap="round"/><line x1="1040" y1="1320" x2="401" y2="1203.7" stroke="#2c2820" stroke-width="30" stroke-linecap="round"/><line x1="1040" y1="1320" x2="439.6" y2="1160.4" stroke="#2c2820" stroke-width="30" stroke-linecap="round"/><line x1="1040" y1="1320" x2="489.9" y2="1120.2" stroke="#2c2820" stroke-width="30" stroke-linecap="round"/><line x1="1040" y1="1320" x2="550.8" y2="1083.8" stroke="#2c2820" stroke-width="30" stroke-linecap="round"/><line x1="1040" y1="1320" x2="621.4" y2="1052.1" stroke="#2c2820" stroke-width="30" stroke-linecap="round"/><line x1="1040" y1="1320" x2="700" y2="1025.6" stroke="#2c2820" stroke-width="30" stroke-linecap="round"/><line x1="1040" y1="1320" x2="541.2" y2="1302.6" stroke="#2c2820" stroke-width="26" stroke-linecap="round"/><line x1="1040" y1="1320" x2="550.9" y2="1268" stroke="#2c2820" stroke-width="26" stroke-linecap="round"/><line x1="1040" y1="1320" x2="570.2" y2="1234.5" stroke="#2c2820" stroke-width="26" stroke-linecap="round"/><line x1="1040" y1="1320" x2="598.5" y2="1202.6" stroke="#2c2820" stroke-width="26" stroke-linecap="round"/><line x1="1040" y1="1320" x2="635.5" y2="1173.1" stroke="#2c2820" stroke-width="26" stroke-linecap="round"/><line x1="1040" y1="1320" x2="680.3" y2="1146.3" stroke="#2c2820" stroke-width="26" stroke-linecap="round"/><line x1="1040" y1="1320" x2="732.2" y2="1123" stroke="#2c2820" stroke-width="26" stroke-linecap="round"/><line x1="1040" y1="1320" x2="790" y2="1103.5" stroke="#2c2820" stroke-width="26" stroke-linecap="round"/><path d="M1070,1500 q -40,260 -200,380" fill="none" stroke="#2c2820" stroke-width="30" stroke-linecap="round"/><line x1="1360" y1="1320" x2="2217.9" y2="1290" stroke="#2c2820" stroke-width="34" stroke-linecap="round"/><line x1="1360" y1="1320" x2="2201.2" y2="1230.6" stroke="#2c2820" stroke-width="34" stroke-linecap="round"/><line x1="1360" y1="1320" x2="2168.1" y2="1172.9" stroke="#2c2820" stroke-width="34" stroke-linecap="round"/><line x1="1360" y1="1320" x2="2119.3" y2="1118.1" stroke="#2c2820" stroke-width="34" stroke-linecap="round"/><line x1="1360" y1="1320" x2="2055.8" y2="1067.3" stroke="#2c2820" stroke-width="34" stroke-linecap="round"/><line x1="1360" y1="1320" x2="1978.6" y2="1021.3" stroke="#2c2820" stroke-width="34" stroke-linecap="round"/><line x1="1360" y1="1320" x2="1889.5" y2="981.2" stroke="#2c2820" stroke-width="34" stroke-linecap="round"/><line x1="1360" y1="1320" x2="1790" y2="947.6" stroke="#2c2820" stroke-width="34" stroke-linecap="round"/><line x1="1360" y1="1320" x2="2038.3" y2="1296.3" stroke="#2c2820" stroke-width="30" stroke-linecap="round"/><line x1="1360" y1="1320" x2="2025.1" y2="1249.3" stroke="#2c2820" stroke-width="30" stroke-linecap="round"/><line x1="1360" y1="1320" x2="1999" y2="1203.7" stroke="#2c2820" stroke-width="30" stroke-linecap="round"/><line x1="1360" y1="1320" x2="1960.4" y2="1160.4" stroke="#2c2820" stroke-width="30" stroke-linecap="round"/><line x1="1360" y1="1320" x2="1910.1" y2="1120.2" stroke="#2c2820" stroke-width="30" stroke-linecap="round"/><line x1="1360" y1="1320" x2="1849.2" y2="1083.8" stroke="#2c2820" stroke-width="30" stroke-linecap="round"/><line x1="1360" y1="1320" x2="1778.6" y2="1052.1" stroke="#2c2820" stroke-width="30" stroke-linecap="round"/><line x1="1360" y1="1320" x2="1700" y2="1025.6" stroke="#2c2820" stroke-width="30" stroke-linecap="round"/><line x1="1360" y1="1320" x2="1858.8" y2="1302.6" stroke="#2c2820" stroke-width="26" stroke-linecap="round"/><line x1="1360" y1="1320" x2="1849.1" y2="1268" stroke="#2c2820" stroke-width="26" stroke-linecap="round"/><line x1="1360" y1="1320" x2="1829.8" y2="1234.5" stroke="#2c2820" stroke-width="26" stroke-linecap="round"/><line x1="1360" y1="1320" x2="1801.5" y2="1202.6" stroke="#2c2820" stroke-width="26" stroke-linecap="round"/><line x1="1360" y1="1320" x2="1764.5" y2="1173.1" stroke="#2c2820" stroke-width="26" stroke-linecap="round"/><line x1="1360" y1="1320" x2="1719.7" y2="1146.3" stroke="#2c2820" stroke-width="26" stroke-linecap="round"/><line x1="1360" y1="1320" x2="1667.8" y2="1123" stroke="#2c2820" stroke-width="26" stroke-linecap="round"/><line x1="1360" y1="1320" x2="1610" y2="1103.5" stroke="#2c2820" stroke-width="26" stroke-linecap="round"/><path d="M1330,1500 q 40,260 200,380" fill="none" stroke="#2c2820" stroke-width="30" stroke-linecap="round"/><polygon points="1102.9,479 1112.8,504.1 1137.9,514 1112.8,523.9 1102.9,549.1 1092.9,523.9 1067.8,514 1092.9,504.1 " fill="#a8502f"/><polygon points="1345.8,2532.5 1353.9,2552.9 1374.3,2560.9 1353.9,2569 1345.8,2589.3 1337.8,2569 1317.4,2560.9 1337.8,2552.9 " fill="#a8502f"/><polygon points="799.7,2495.9 811.3,2525.2 840.6,2536.8 811.3,2548.4 799.7,2577.7 788.1,2548.4 758.8,2536.8 788.1,2525.2 " fill="#a8502f"/><polygon points="1303.3,355.8 1315.4,386.5 1346.1,398.6 1315.4,410.7 1303.3,441.5 1291.2,410.7 1260.5,398.6 1291.2,386.5 " fill="#a8502f"/><polygon points="1724.4,389 1731.8,407.7 1750.6,415.1 1731.8,422.5 1724.4,441.3 1717,422.5 1698.3,415.1 1717,407.7 " fill="#a8502f"/><polygon points="1480.2,433.3 1490.6,459.6 1516.9,470 1490.6,480.4 1480.2,506.7 1469.8,480.4 1443.4,470 1469.8,459.6 " fill="#a8502f"/><rect x="120" y="120" width="2160" height="2760" fill="none" stroke="#2c2820" stroke-width="6" opacity="0.85"/></g><rect width="2400" height="3000" filter="url(#a177-mottle)" style="mix-blend-mode:multiply" opacity="0.5"/><rect width="2400" height="3000" filter="url(#a177-fade)" style="mix-blend-mode:screen" opacity="0.55"/><rect width="2400" height="3000" filter="url(#a177-grain)" style="mix-blend-mode:multiply" opacity="0.32"/><ellipse cx="1182" cy="936.3" rx="298" ry="207.6" fill="#6b4a22" opacity="0.061" filter="url(#a177-blur9)"/><ellipse cx="1444.7" cy="2733.2" rx="275.8" ry="156.5" fill="#6b4a22" opacity="0.056" filter="url(#a177-blur9)"/><ellipse cx="1081.3" cy="1611.9" rx="103.5" ry="68.6" fill="#6b4a22" opacity="0.068" filter="url(#a177-blur9)"/><ellipse cx="524.2" cy="2603.8" rx="284.9" ry="171.5" fill="#6b4a22" opacity="0.068" filter="url(#a177-blur9)"/><rect x="0" width="16" height="3000" fill="#fff2d0" opacity="0.019"/><rect x="32" width="27.5" height="3000" fill="#fff2d0" opacity="0.038"/><rect x="87.1" width="17.8" height="3000" fill="#fff2d0" opacity="0.023"/><rect x="122.6" width="33.6" height="3000" fill="#fff2d0" opacity="0.026"/><rect x="189.7" width="34.6" height="3000" fill="#fff2d0" opacity="0.041"/><rect x="258.9" width="22.2" height="3000" fill="#fff2d0" opacity="0.020"/><rect x="303.3" width="33.7" height="3000" fill="#fff2d0" opacity="0.027"/><rect x="370.6" width="18.2" height="3000" fill="#fff2d0" opacity="0.035"/><rect x="407" width="26.6" height="3000" fill="#fff2d0" opacity="0.031"/><rect x="460.2" width="30.5" height="3000" fill="#fff2d0" opacity="0.018"/><rect x="521.1" width="17.8" height="3000" fill="#fff2d0" opacity="0.025"/><rect x="556.7" width="28" height="3000" fill="#fff2d0" opacity="0.025"/><rect x="612.7" width="21.5" height="3000" fill="#fff2d0" opacity="0.027"/><rect x="655.7" width="28.7" height="3000" fill="#fff2d0" opacity="0.026"/><rect x="713.1" width="28.3" height="3000" fill="#fff2d0" opacity="0.044"/><rect x="769.8" width="32.4" height="3000" fill="#fff2d0" opacity="0.032"/><rect x="834.6" width="29.6" height="3000" fill="#fff2d0" opacity="0.031"/><rect x="893.8" width="24.1" height="3000" fill="#fff2d0" opacity="0.020"/><rect x="941.9" width="30.9" height="3000" fill="#fff2d0" opacity="0.019"/><rect x="1003.6" width="22.9" height="3000" fill="#fff2d0" opacity="0.037"/><rect x="1049.3" width="16.2" height="3000" fill="#fff2d0" opacity="0.045"/><rect x="1081.8" width="17.6" height="3000" fill="#fff2d0" opacity="0.043"/><rect x="1117.1" width="19.6" height="3000" fill="#fff2d0" opacity="0.030"/><rect x="1156.3" width="20.6" height="3000" fill="#fff2d0" opacity="0.041"/><rect x="1197.4" width="17.4" height="3000" fill="#fff2d0" opacity="0.037"/><rect x="1232.3" width="22.9" height="3000" fill="#fff2d0" opacity="0.041"/><rect x="1278.1" width="34.5" height="3000" fill="#fff2d0" opacity="0.036"/><rect x="1347.1" width="23.6" height="3000" fill="#fff2d0" opacity="0.043"/><rect x="1394.3" width="30.2" height="3000" fill="#fff2d0" opacity="0.038"/><rect x="1454.8" width="28" height="3000" fill="#fff2d0" opacity="0.036"/><rect x="1510.8" width="21.2" height="3000" fill="#fff2d0" opacity="0.031"/><rect x="1553.2" width="25.2" height="3000" fill="#fff2d0" opacity="0.022"/><rect x="1603.6" width="17.5" height="3000" fill="#fff2d0" opacity="0.043"/><rect x="1638.5" width="33.6" height="3000" fill="#fff2d0" opacity="0.031"/><rect x="1705.8" width="22" height="3000" fill="#fff2d0" opacity="0.015"/><rect x="1749.9" width="27.2" height="3000" fill="#fff2d0" opacity="0.019"/><rect x="1804.3" width="21.9" height="3000" fill="#fff2d0" opacity="0.037"/><rect x="1848" width="21.4" height="3000" fill="#fff2d0" opacity="0.016"/><rect x="1890.8" width="29" height="3000" fill="#fff2d0" opacity="0.021"/><rect x="1948.8" width="23.2" height="3000" fill="#fff2d0" opacity="0.022"/><rect x="1995.2" width="17.1" height="3000" fill="#fff2d0" opacity="0.028"/><rect x="2029.4" width="33" height="3000" fill="#fff2d0" opacity="0.037"/><rect x="2095.4" width="26.7" height="3000" fill="#fff2d0" opacity="0.034"/><rect x="2148.7" width="23" height="3000" fill="#fff2d0" opacity="0.034"/><rect x="2194.7" width="24.8" height="3000" fill="#fff2d0" opacity="0.041"/><rect x="2244.3" width="21.7" height="3000" fill="#fff2d0" opacity="0.028"/><rect x="2287.7" width="15.9" height="3000" fill="#fff2d0" opacity="0.037"/><rect x="2319.4" width="26.8" height="3000" fill="#fff2d0" opacity="0.032"/><rect x="2373" width="16.9" height="3000" fill="#fff2d0" opacity="0.019"/><linearGradient id="a177-er" x1="0" x2="1" y1="0" y2="0"><stop offset="0" stop-color="#3a2a12" stop-opacity="0.22"/><stop offset="1" stop-color="#3a2a12" stop-opacity="0"/></linearGradient><rect x="0" y="0" width="90" height="3000" fill="url(#a177-er)"/><linearGradient id="a177-el" x1="1" x2="0" y1="0" y2="0"><stop offset="0" stop-color="#3a2a12" stop-opacity="0.22"/><stop offset="1" stop-color="#3a2a12" stop-opacity="0"/></linearGradient><rect x="2310" y="0" width="90" height="3000" fill="url(#a177-el)"/><linearGradient id="a177-ed" x1="0" x2="0" y1="0" y2="1"><stop offset="0" stop-color="#3a2a12" stop-opacity="0.22"/><stop offset="1" stop-color="#3a2a12" stop-opacity="0"/></linearGradient><rect x="0" y="0" width="2400" height="90" fill="url(#a177-ed)"/><linearGradient id="a177-eu" x1="0" x2="0" y1="1" y2="0"><stop offset="0" stop-color="#3a2a12" stop-opacity="0.22"/><stop offset="1" stop-color="#3a2a12" stop-opacity="0"/></linearGradient><rect x="0" y="2910" width="2400" height="90" fill="url(#a177-eu)"/><circle cx="592.8" cy="2708.2" r="15.4" fill="#8a5a2e" opacity="0.117"/><circle cx="1795.1" cy="1111.3" r="7.6" fill="#8a5a2e" opacity="0.058"/><circle cx="1181" cy="1618.5" r="13.7" fill="#8a5a2e" opacity="0.106"/><circle cx="353.7" cy="728.8" r="6.7" fill="#8a5a2e" opacity="0.106"/><circle cx="1992.6" cy="2681.4" r="8.7" fill="#8a5a2e" opacity="0.041"/><circle cx="284.6" cy="551.9" r="11.9" fill="#8a5a2e" opacity="0.080"/><circle cx="1328.9" cy="1770.7" r="11.5" fill="#8a5a2e" opacity="0.092"/><circle cx="1915.9" cy="615.9" r="9.9" fill="#8a5a2e" opacity="0.072"/><circle cx="1437.7" cy="1260.8" r="10.9" fill="#8a5a2e" opacity="0.098"/><circle cx="124.4" cy="2511.2" r="8.9" fill="#8a5a2e" opacity="0.118"/><circle cx="895.7" cy="2355.1" r="6.7" fill="#8a5a2e" opacity="0.043"/><circle cx="2052.5" cy="2607.4" r="11.7" fill="#8a5a2e" opacity="0.043"/><rect width="2400" height="3000" fill="url(#a177-vig)"/></svg></svg>