<svg xmlns="http://www.w3.org/2000/svg" width="2400" height="1800" viewBox="0 0 2400 1800"><rect width="2400" height="1800" fill="#e9e1d2"/><rect y="1430" width="2400" height="370" fill="#c8b190"/><line x1="120" y1="1430" x2="60" y2="1800" stroke="#00000018" stroke-width="6"/><line x1="380" y1="1430" x2="320" y2="1800" stroke="#00000018" stroke-width="6"/><line x1="640" y1="1430" x2="580" y2="1800" stroke="#00000018" stroke-width="6"/><line x1="900" y1="1430" x2="840" y2="1800" stroke="#00000018" stroke-width="6"/><line x1="1160" y1="1430" x2="1100" y2="1800" stroke="#00000018" stroke-width="6"/><line x1="1420" y1="1430" x2="1360" y2="1800" stroke="#00000018" stroke-width="6"/><line x1="1680" y1="1430" x2="1620" y2="1800" stroke="#00000018" stroke-width="6"/><line x1="1940" y1="1430" x2="1880" y2="1800" stroke="#00000018" stroke-width="6"/><line x1="2200" y1="1430" x2="2140" y2="1800" stroke="#00000018" stroke-width="6"/><rect y="1418" width="2400" height="16" fill="#d7cbb6"/><rect x="700" y="980" width="1000" height="460" rx="26" fill="#a87e57"/><rect x="660" y="1290" width="1080" height="210" rx="30" fill="#f1ebdf"/><rect x="660" y="1420" width="1080" height="120" rx="24" fill="#8a6a4b" opacity="0.85"/><rect x="770" y="1180" width="300" height="150" rx="40" fill="#faf6ec"/><rect x="1330" y="1180" width="300" height="150" rx="40" fill="#3d434d"/><rect x="640" y="1530" width="1120" height="26" rx="12" fill="#a87e57"/><rect x="360" y="1260" width="240" height="220" rx="10" fill="#a87e57"/><rect x="380" y="1300" width="200" height="14" fill="#00000022"/><line x1="480" y1="1260" x2="480" y2="1130" stroke="#5a4632" stroke-width="12"/><path d="M410,1130 L550,1130 L520,1020 L440,1020 Z" fill="#8a6a4b"/><path d="M2060,1520 Q 1910,1282.5 1835,1345" fill="none" stroke="#5d7052" stroke-width="20" stroke-linecap="round"/><path d="M2060,1520 Q 1960,1282.5 1910,1295" fill="none" stroke="#5d7052" stroke-width="20" stroke-linecap="round"/><path d="M2060,1520 Q 2010,1282.5 1985,1245" fill="none" stroke="#5d7052" stroke-width="20" stroke-linecap="round"/><path d="M2060,1520 Q 2060,1282.5 2060,1195" fill="none" stroke="#5d7052" stroke-width="20" stroke-linecap="round"/><path d="M2060,1520 Q 2110,1282.5 2135,1245" fill="none" stroke="#5d7052" stroke-width="20" stroke-linecap="round"/><path d="M2060,1520 Q 2160,1282.5 2210,1295" fill="none" stroke="#5d7052" stroke-width="20" stroke-linecap="round"/><path d="M2060,1520 Q 2210,1282.5 2285,1345" fill="none" stroke="#5d7052" stroke-width="20" stroke-linecap="round"/><path d="M1972.5,1520 L2147.5,1520 L2125,1657.5 L1995,1657.5 Z" fill="#a9714d"/><defs><filter id="a147b-sh" x="-30%" y="-30%" width="160%" height="160%"><feGaussianBlur stdDeviation="16"/></filter></defs><rect x="928" y="246" width="572" height="702" fill="#000" opacity="0.28" filter="url(#a147b-sh)"/><rect x="914" y="224" width="572" height="702" fill="#4a3d2f"/><rect x="930.9" y="240.9" width="538.2" height="668.2" fill="none" stroke="#00000055" stroke-width="3"/><rect x="940" y="250" width="520" height="650" fill="#f6f2ea"/><svg x="979" y="289" width="442" height="572" viewBox="0 0 2400 3000" preserveAspectRatio="xMidYMid slice"><rect width="2400" height="3000" fill="#2b2f36"/><radialGradient id="a147-vig" cx="50%" cy="42%" r="80%"><stop offset="55%" stop-color="#000" stop-opacity="0"/><stop offset="100%" stop-color="#000" stop-opacity="0.15"/></radialGradient><rect width="2400" height="3000" fill="url(#a147-vig)"/><circle cx="901.9" cy="96.4" r="3.3" fill="#b3873e" opacity="0.059"/><circle cx="1861.4" cy="2783.7" r="3.5" fill="#b3873e" opacity="0.063"/><circle cx="1927.4" cy="897.3" r="3.6" fill="#b3873e" opacity="0.077"/><circle cx="242" cy="2507" r="3.7" fill="#b3873e" opacity="0.034"/><circle cx="1830.2" cy="707.9" r="3.5" fill="#b3873e" opacity="0.067"/><circle cx="1585.5" cy="1525.6" r="3.7" fill="#b3873e" opacity="0.056"/><circle cx="952.3" cy="2163.8" r="3.4" fill="#b3873e" opacity="0.057"/><circle cx="1390.1" cy="1397.2" r="1.7" fill="#b3873e" opacity="0.054"/><circle cx="1415.5" cy="2552.9" r="4.3" fill="#b3873e" opacity="0.058"/><circle cx="1714" cy="2580.3" r="3.2" fill="#b3873e" opacity="0.044"/><circle cx="1536.2" cy="327.4" r="3.8" fill="#b3873e" opacity="0.050"/><circle cx="1538.4" cy="2469.6" r="3.5" fill="#b3873e" opacity="0.049"/><circle cx="239.7" cy="667.5" r="2.4" fill="#b3873e" opacity="0.068"/><circle cx="713.9" cy="1911.4" r="4.3" fill="#b3873e" opacity="0.065"/><circle cx="1960.1" cy="348.6" r="2.8" fill="#b3873e" opacity="0.050"/><circle cx="597" cy="106.8" r="3.1" fill="#b3873e" opacity="0.053"/><circle cx="2251.7" cy="1170.1" r="2" fill="#b3873e" opacity="0.046"/><circle cx="66" cy="2874.1" r="3.2" fill="#b3873e" opacity="0.040"/><circle cx="1492.3" cy="609.7" r="1.6" fill="#b3873e" opacity="0.078"/><circle cx="318.3" cy="1599.3" r="4.5" fill="#b3873e" opacity="0.070"/><circle cx="1130.6" cy="2373.9" r="2.1" fill="#b3873e" opacity="0.053"/><circle cx="523" cy="1930.1" r="4.3" fill="#b3873e" opacity="0.046"/><circle cx="180.7" cy="1446.4" r="4.1" fill="#b3873e" opacity="0.034"/><circle cx="1853.2" cy="594.5" r="2.5" fill="#b3873e" opacity="0.053"/><circle cx="1322.3" cy="1632.5" r="2" fill="#b3873e" opacity="0.045"/><circle cx="1655.1" cy="2929" r="2.6" fill="#b3873e" opacity="0.042"/><circle cx="1668.5" cy="1252.6" r="3.2" fill="#b3873e" opacity="0.042"/><circle cx="256.5" cy="2379" r="1.6" fill="#b3873e" opacity="0.057"/><circle cx="1883.8" cy="1322.4" r="3.7" fill="#b3873e" opacity="0.049"/><circle cx="1353.4" cy="1445.6" r="2.1" fill="#b3873e" opacity="0.061"/><circle cx="240.3" cy="247.2" r="2.9" fill="#b3873e" opacity="0.035"/><circle cx="1439" cy="1280.6" r="2.5" fill="#b3873e" opacity="0.052"/><circle cx="976.8" cy="2260.1" r="1.5" fill="#b3873e" opacity="0.042"/><circle cx="1536" cy="820.8" r="2.2" fill="#b3873e" opacity="0.062"/><circle cx="2299.7" cy="1128" r="4.1" fill="#b3873e" opacity="0.071"/><circle cx="137.1" cy="1605.7" r="2.7" fill="#b3873e" opacity="0.042"/><circle cx="86.3" cy="915.1" r="3.3" fill="#b3873e" opacity="0.067"/><circle cx="1724" cy="2885.1" r="4.3" fill="#b3873e" opacity="0.051"/><circle cx="783.4" cy="2350.1" r="3.4" fill="#b3873e" opacity="0.032"/><circle cx="707" cy="2078.1" r="2.2" fill="#b3873e" opacity="0.080"/><circle cx="634.6" cy="148.4" r="1.6" fill="#b3873e" opacity="0.042"/><circle cx="943.1" cy="2722.5" r="4.1" fill="#b3873e" opacity="0.043"/><circle cx="2211.7" cy="409.5" r="4.1" fill="#b3873e" opacity="0.066"/><circle cx="1431.6" cy="2817.8" r="4" fill="#b3873e" opacity="0.065"/><circle cx="639.9" cy="2077.7" r="4.1" fill="#b3873e" opacity="0.075"/><circle cx="1047.8" cy="351.7" r="1.8" fill="#b3873e" opacity="0.044"/><circle cx="524.1" cy="1453.4" r="4.4" fill="#b3873e" opacity="0.052"/><circle cx="1693.1" cy="1099.7" r="3.2" fill="#b3873e" opacity="0.054"/><circle cx="1382.5" cy="1239.7" r="2.3" fill="#b3873e" opacity="0.059"/><circle cx="804" cy="1745.9" r="2.9" fill="#b3873e" opacity="0.033"/><circle cx="2225.2" cy="1183" r="3.4" fill="#b3873e" opacity="0.050"/><circle cx="2060.5" cy="2690.4" r="4.4" fill="#b3873e" opacity="0.033"/><circle cx="1676.2" cy="2041.8" r="1.9" fill="#b3873e" opacity="0.066"/><circle cx="1273.4" cy="217.8" r="4.2" fill="#b3873e" opacity="0.063"/><circle cx="1667.9" cy="2291.3" r="4.2" fill="#b3873e" opacity="0.044"/><circle cx="569.7" cy="1810.8" r="1.7" fill="#b3873e" opacity="0.044"/><circle cx="179.5" cy="1213.1" r="3" fill="#b3873e" opacity="0.077"/><circle cx="233" cy="2768.3" r="1.7" fill="#b3873e" opacity="0.048"/><circle cx="1932.2" cy="914.5" r="1.6" fill="#b3873e" opacity="0.037"/><circle cx="1057.6" cy="2849.1" r="3.5" fill="#b3873e" opacity="0.040"/><circle cx="1117.9" cy="2539.8" r="4.1" fill="#b3873e" opacity="0.038"/><circle cx="916.2" cy="1205.5" r="2.8" fill="#b3873e" opacity="0.071"/><circle cx="178.9" cy="2907.7" r="2.3" fill="#b3873e" opacity="0.042"/><circle cx="555.7" cy="466.1" r="2.6" fill="#b3873e" opacity="0.059"/><circle cx="2181.4" cy="1456.9" r="4" fill="#b3873e" opacity="0.073"/><circle cx="1271" cy="1969.7" r="2.3" fill="#b3873e" opacity="0.063"/><circle cx="1492.1" cy="1304.4" r="1.9" fill="#b3873e" opacity="0.042"/><circle cx="1215.5" cy="2661.5" r="2.8" fill="#b3873e" opacity="0.045"/><circle cx="532.1" cy="1195.5" r="3.7" fill="#b3873e" opacity="0.051"/><circle cx="666.1" cy="657" r="2.1" fill="#b3873e" opacity="0.043"/><circle cx="1230.6" cy="2914.3" r="3.1" fill="#b3873e" opacity="0.034"/><circle cx="2234.4" cy="2123" r="3.7" fill="#b3873e" opacity="0.077"/><circle cx="788.3" cy="1166.7" r="2" fill="#b3873e" opacity="0.058"/><circle cx="1208.1" cy="2300.2" r="4.4" fill="#b3873e" opacity="0.078"/><circle cx="286.8" cy="541.3" r="3.1" fill="#b3873e" opacity="0.051"/><circle cx="435" cy="1784.9" r="1.8" fill="#b3873e" opacity="0.065"/><circle cx="806.1" cy="1959.6" r="2.6" fill="#b3873e" opacity="0.070"/><circle cx="2170.9" cy="1775.5" r="3.6" fill="#b3873e" opacity="0.043"/><circle cx="591.3" cy="575.4" r="3.2" fill="#b3873e" opacity="0.042"/><circle cx="1895.4" cy="1476.1" r="1.7" fill="#b3873e" opacity="0.076"/><circle cx="1093.4" cy="845.6" r="368.8" fill="#8a6a4b" opacity="0.95"/><line x1="200" y1="2430" x2="2200" y2="2430" stroke="#b3873e" stroke-width="16"/><rect x="930" y="2340" width="540" height="90" fill="#b3873e"/><rect x="1005.6" y="2260" width="388.8" height="80" fill="#b3873e"/><path d="M1065,2260 L1116.3,805.6 L1283.7,805.6 L1335,2260 Z" fill="#b3873e"/><polygon points="1200,655.6 1116.3,807.6 1283.7,807.6" fill="#8a6a4b"/><circle cx="1200" cy="915.6" r="18.400000000000002" fill="none" stroke="#2b2f36" stroke-width="10" opacity="0.9"/><line x1="1200" y1="934" x2="1200" y2="961.6" stroke="#2b2f36" stroke-width="10" opacity="0.9"/><circle cx="1200" cy="1025.6" r="18.400000000000002" fill="none" stroke="#2b2f36" stroke-width="10" opacity="0.9"/><line x1="1200" y1="1044" x2="1200" y2="1071.6" stroke="#2b2f36" stroke-width="10" opacity="0.9"/><circle cx="1200" cy="1135.6" r="18.400000000000002" fill="none" stroke="#2b2f36" stroke-width="10" opacity="0.9"/><line x1="1200" y1="1154" x2="1200" y2="1181.6" stroke="#2b2f36" stroke-width="10" opacity="0.9"/><circle cx="1200" cy="1245.6" r="18.400000000000002" fill="none" stroke="#2b2f36" stroke-width="10" opacity="0.9"/><line x1="1200" y1="1264" x2="1200" y2="1291.6" stroke="#2b2f36" stroke-width="10" opacity="0.9"/><polyline points="1154,1369.6 1177,1343.6 1200,1369.6 1223,1343.6 1246,1369.6 " fill="none" stroke="#2b2f36" stroke-width="4.7" stroke-linejoin="miter"/><circle cx="1200" cy="1465.6" r="18.400000000000002" fill="none" stroke="#2b2f36" stroke-width="10" opacity="0.9"/><line x1="1200" y1="1484" x2="1200" y2="1511.6" stroke="#2b2f36" stroke-width="10" opacity="0.9"/><polyline points="1154,1589.6 1177,1563.6 1200,1589.6 1223,1563.6 1246,1589.6 " fill="none" stroke="#2b2f36" stroke-width="4.7" stroke-linejoin="miter"/><polygon points="1200,1662.6 1177,1708.6 1223,1708.6" fill="#2b2f36" opacity="0.9"/><polyline points="1154,1809.6 1177,1783.6 1200,1809.6 1223,1783.6 1246,1809.6 " fill="none" stroke="#2b2f36" stroke-width="4.7" stroke-linejoin="miter"/><polygon points="1200,1882.6 1177,1928.6 1223,1928.6" fill="#2b2f36" opacity="0.9"/><polyline points="1154,2029.6 1177,2003.6 1200,2029.6 1223,2003.6 1246,2029.6 " fill="none" stroke="#2b2f36" stroke-width="4.7" stroke-linejoin="miter"/><circle cx="1200" cy="2125.6" r="18.400000000000002" fill="none" stroke="#2b2f36" stroke-width="10" opacity="0.9"/><line x1="1200" y1="2144" x2="1200" y2="2171.6" stroke="#2b2f36" stroke-width="10" opacity="0.9"/><rect x="200" y="2770" width="2000" height="13.3" fill="#b3873e"/><rect x="200" y="2782.8" width="2000" height="13.3" fill="#8a6a4b"/><rect x="200" y="2795.6" width="2000" height="13.3" fill="#b3873e"/><rect x="200" y="2808.4" width="2000" height="13.3" fill="#3d434d"/><rect x="200" y="2821.2" width="2000" height="13.3" fill="#b3873e"/><rect x="100" y="100" width="2200" height="2800" fill="none" stroke="#b3873e" stroke-width="9"/><rect x="142" y="142" width="2116" height="2716" fill="none" stroke="#b3873e" stroke-width="3" opacity="0.65"/></svg></svg>