<svg xmlns="http://www.w3.org/2000/svg" width="2400" height="1800" viewBox="0 0 2400 1800"><rect width="2400" height="1800" fill="#dfe4dc"/><rect y="1400" width="2400" height="400" fill="#c2a67e"/><line x1="60" y1="1400" x2="10" y2="1800" stroke="#00000015" stroke-width="5"/><line x1="260" y1="1400" x2="210" y2="1800" stroke="#00000015" stroke-width="5"/><line x1="460" y1="1400" x2="410" y2="1800" stroke="#00000015" stroke-width="5"/><line x1="660" y1="1400" x2="610" y2="1800" stroke="#00000015" stroke-width="5"/><line x1="860" y1="1400" x2="810" y2="1800" stroke="#00000015" stroke-width="5"/><line x1="1060" y1="1400" x2="1010" y2="1800" stroke="#00000015" stroke-width="5"/><line x1="1260" y1="1400" x2="1210" y2="1800" stroke="#00000015" stroke-width="5"/><line x1="1460" y1="1400" x2="1410" y2="1800" stroke="#00000015" stroke-width="5"/><line x1="1660" y1="1400" x2="1610" y2="1800" stroke="#00000015" stroke-width="5"/><line x1="1860" y1="1400" x2="1810" y2="1800" stroke="#00000015" stroke-width="5"/><line x1="2060" y1="1400" x2="2010" y2="1800" stroke="#00000015" stroke-width="5"/><line x1="2260" y1="1400" x2="2210" y2="1800" stroke="#00000015" stroke-width="5"/><rect x="180" y="260" width="900" height="620" fill="#8a6a48"/><rect x="215" y="295" width="830" height="550" fill="#41524a"/><line x1="280" y1="420" x2="760" y2="420" stroke="#ffffff66" stroke-width="9" stroke-linecap="round"/><line x1="280" y1="520" x2="620" y2="520" stroke="#ffffff44" stroke-width="9" stroke-linecap="round"/><circle cx="880" cy="560" r="90" fill="none" stroke="#ffffff55" stroke-width="8"/><rect x="215" y="845" width="830" height="22" fill="#6f5436"/><rect x="330" y="1240" width="640" height="60" rx="10" fill="#9c7449"/><rect x="370" y="1300" width="60" height="240" fill="#8a6540"/><rect x="870" y="1300" width="60" height="240" fill="#8a6540"/><rect x="430" y="1160" width="150" height="80" rx="8" fill="#9c7426"/><rect x="450" y="1120" width="150" height="40" rx="8" fill="#a99060"/><circle cx="800" cy="1130" r="86" fill="#7fa3b8"/><path d="M760,1060 Q820,1100 780,1190 M740,1090 Q800,1120 850,1100" stroke="#5d8069" stroke-width="16" fill="none" stroke-linecap="round"/><circle cx="800" cy="1130" r="86" fill="none" stroke="#6b5233" stroke-width="7"/><line x1="800" y1="1216" x2="800" y2="1250" stroke="#6b5233" stroke-width="10"/><rect x="750" y="1244" width="100" height="14" rx="7" fill="#6b5233"/><rect x="1980" y="700" width="300" height="800" fill="#9c7449"/><rect x="2000" y="930" width="260" height="16" fill="#7c5a37"/><rect x="2020" y="790" width="36" height="140" fill="#b3502f"/><rect x="2066" y="802" width="36" height="128" fill="#39685c"/><rect x="2112" y="790" width="36" height="140" fill="#c9a227"/><rect x="2158" y="802" width="36" height="128" fill="#2c4661"/><rect x="2204" y="790" width="36" height="140" fill="#8a4423"/><rect x="2000" y="1180" width="260" height="16" fill="#7c5a37"/><rect x="2020" y="1040" width="36" height="140" fill="#39685c"/><rect x="2066" y="1052" width="36" height="128" fill="#c9a227"/><rect x="2112" y="1040" width="36" height="140" fill="#2c4661"/><rect x="2158" y="1052" width="36" height="128" fill="#8a4423"/><rect x="2204" y="1040" width="36" height="140" fill="#b3502f"/><rect x="2000" y="1430" width="260" height="16" fill="#7c5a37"/><rect x="2020" y="1290" width="36" height="140" fill="#c9a227"/><rect x="2066" y="1302" width="36" height="128" fill="#2c4661"/><rect x="2112" y="1290" width="36" height="140" fill="#8a4423"/><rect x="2158" y="1302" width="36" height="128" fill="#b3502f"/><rect x="2204" y="1290" width="36" height="140" fill="#39685c"/><defs><filter id="a173c-sh" x="-30%" y="-30%" width="160%" height="160%"><feGaussianBlur stdDeviation="16"/></filter></defs><rect x="1340.5" y="298.5" width="517" height="635" fill="#000" opacity="0.28" filter="url(#a173c-sh)"/><rect x="1326.5" y="276.5" width="517" height="635" fill="#3d342a"/><rect x="1341.8" y="291.8" width="486.4" height="604.5" fill="none" stroke="#00000055" stroke-width="3"/><rect x="1350" y="300" width="470" height="588" fill="#f6f2ea"/><svg x="1385.3" y="335.3" width="399.5" height="517.5" viewBox="0 0 2400 3000" preserveAspectRatio="xMidYMid slice"><filter id="a173-warp" x="-4%" y="-4%" width="108%" height="108%"><feTurbulence type="fractalNoise" baseFrequency="0.0105" numOctaves="2" seed="3051" result="w"/><feDisplacementMap in="SourceGraphic" in2="w" scale="11" xChannelSelector="R" yChannelSelector="G"/></filter><filter id="a173-grain" x="0%" y="0%" width="100%" height="100%"><feTurbulence type="fractalNoise" baseFrequency="0.6" numOctaves="2" seed="3058"/><feColorMatrix type="matrix" values="0.33 0.33 0.33 0 0.62  0.33 0.33 0.33 0 0.62  0.33 0.33 0.33 0 0.62  0 0 0 0 1"/></filter><filter id="a173-mottle" x="0%" y="0%" width="100%" height="100%"><feTurbulence type="fractalNoise" baseFrequency="0.0045" numOctaves="3" seed="3064"/><feColorMatrix type="matrix" values="0.2 0.2 0.2 0 0.78  0.2 0.2 0.2 0 0.78  0.2 0.2 0.2 0 0.78  0 0 0 0 1"/></filter><filter id="a173-fade" x="0%" y="0%" width="100%" height="100%"><feTurbulence type="fractalNoise" baseFrequency="0.006" numOctaves="2" seed="3080"/><feColorMatrix type="matrix" values="0.3 0.3 0.3 0 -0.08  0.3 0.3 0.3 0 -0.08  0.3 0.3 0.3 0 -0.1  0 0 0 0 1"/></filter><filter id="a173-blur9"><feGaussianBlur stdDeviation="9"/></filter><radialGradient id="a173-vig" cx="50%" cy="44%" r="78%"><stop offset="52%" stop-color="#241a10" stop-opacity="0"/><stop offset="100%" stop-color="#241a10" stop-opacity="0.17"/></radialGradient><radialGradient id="a173-warm" cx="41%" cy="30%" r="85%"><stop offset="0%" stop-color="#e8c890" stop-opacity="0.14"/><stop offset="70%" stop-color="#e8c890" stop-opacity="0"/></radialGradient><rect width="2400" height="3000" fill="#cfb684"/><rect width="2400" height="3000" fill="url(#a173-warm)"/><rect x="0" width="42.5" height="3000" fill="#6b4e26" opacity="0.031"/><rect x="59.1" width="26.5" height="3000" fill="#6b4e26" opacity="0.040"/><rect x="95.9" width="29.2" height="3000" fill="#6b4e26" opacity="0.044"/><rect x="136.5" width="37.1" height="3000" fill="#6b4e26" opacity="0.065"/><rect x="188" width="37.3" height="3000" fill="#6b4e26" opacity="0.071"/><rect x="239.8" width="21" height="3000" fill="#6b4e26" opacity="0.046"/><rect x="268.9" width="24.4" height="3000" fill="#6b4e26" opacity="0.031"/><rect x="302.8" width="31.8" height="3000" fill="#6b4e26" opacity="0.083"/><rect x="347" width="36.1" height="3000" fill="#6b4e26" opacity="0.074"/><rect x="397.2" width="32.7" height="3000" fill="#6b4e26" opacity="0.089"/><rect x="442.6" width="20.8" height="3000" fill="#6b4e26" opacity="0.093"/><rect x="471.4" width="32.8" height="3000" fill="#6b4e26" opacity="0.041"/><rect x="516.9" width="29.8" height="3000" fill="#6b4e26" opacity="0.036"/><rect x="558.4" width="38.8" height="3000" fill="#6b4e26" opacity="0.079"/><rect x="612.3" width="38.1" height="3000" fill="#6b4e26" opacity="0.093"/><rect x="665.2" width="25.2" height="3000" fill="#6b4e26" opacity="0.051"/><rect x="700.3" width="39.2" height="3000" fill="#6b4e26" opacity="0.047"/><rect x="754.6" width="37.9" height="3000" fill="#6b4e26" opacity="0.083"/><rect x="807.3" width="33.8" height="3000" fill="#6b4e26" opacity="0.055"/><rect x="854.3" width="29.1" height="3000" fill="#6b4e26" opacity="0.034"/><rect x="894.7" width="34.6" height="3000" fill="#6b4e26" opacity="0.056"/><rect x="942.7" width="28.8" height="3000" fill="#6b4e26" opacity="0.062"/><rect x="982.7" width="19.5" height="3000" fill="#6b4e26" opacity="0.091"/><rect x="1009.7" width="21.9" height="3000" fill="#6b4e26" opacity="0.080"/><rect x="1040.2" width="32" height="3000" fill="#6b4e26" opacity="0.047"/><rect x="1084.6" width="34.8" height="3000" fill="#6b4e26" opacity="0.097"/><rect x="1133" width="30.4" height="3000" fill="#6b4e26" opacity="0.072"/><rect x="1175.2" width="20.3" height="3000" fill="#6b4e26" opacity="0.035"/><rect x="1203.5" width="19.9" height="3000" fill="#6b4e26" opacity="0.072"/><rect x="1231.1" width="34.4" height="3000" fill="#6b4e26" opacity="0.050"/><rect x="1278.9" width="33.1" height="3000" fill="#6b4e26" opacity="0.045"/><rect x="1324.9" width="24.8" height="3000" fill="#6b4e26" opacity="0.061"/><rect x="1359.3" width="41.2" height="3000" fill="#6b4e26" opacity="0.044"/><rect x="1416.5" width="28.1" height="3000" fill="#6b4e26" opacity="0.097"/><rect x="1455.5" width="27.9" height="3000" fill="#6b4e26" opacity="0.045"/><rect x="1494.3" width="41.9" height="3000" fill="#6b4e26" opacity="0.038"/><rect x="1552.5" width="39.5" height="3000" fill="#6b4e26" opacity="0.094"/><rect x="1607.3" width="39.9" height="3000" fill="#6b4e26" opacity="0.065"/><rect x="1662.8" width="30" height="3000" fill="#6b4e26" opacity="0.050"/><rect x="1704.4" width="22.6" height="3000" fill="#6b4e26" opacity="0.049"/><rect x="1735.8" width="25.5" height="3000" fill="#6b4e26" opacity="0.076"/><rect x="1771.2" width="19.7" height="3000" fill="#6b4e26" opacity="0.037"/><rect x="1798.5" width="19.6" height="3000" fill="#6b4e26" opacity="0.036"/><rect x="1825.8" width="39" height="3000" fill="#6b4e26" opacity="0.074"/><rect x="1879.9" width="36.2" height="3000" fill="#6b4e26" opacity="0.098"/><rect x="1930.1" width="24.7" height="3000" fill="#6b4e26" opacity="0.075"/><rect x="1964.5" width="37" height="3000" fill="#6b4e26" opacity="0.077"/><rect x="2015.9" width="29.5" height="3000" fill="#6b4e26" opacity="0.031"/><rect x="2056.9" width="26.6" height="3000" fill="#6b4e26" opacity="0.096"/><rect x="2093.8" width="41.7" height="3000" fill="#6b4e26" opacity="0.066"/><rect x="2151.8" width="34.6" height="3000" fill="#6b4e26" opacity="0.055"/><rect x="2199.9" width="29.8" height="3000" fill="#6b4e26" opacity="0.099"/><rect x="2241.3" width="25.4" height="3000" fill="#6b4e26" opacity="0.053"/><rect x="2276.7" width="21.7" height="3000" fill="#6b4e26" opacity="0.049"/><rect x="2306.8" width="21.1" height="3000" fill="#6b4e26" opacity="0.074"/><rect x="2336.2" width="25" height="3000" fill="#6b4e26" opacity="0.095"/><rect x="2370.9" width="43" height="3000" fill="#6b4e26" opacity="0.065"/><rect y="0" width="2400" height="23.4" fill="#7c5c30" opacity="0.036"/><rect y="38.9" width="2400" height="18.6" fill="#7c5c30" opacity="0.040"/><rect y="70" width="2400" height="16.1" fill="#7c5c30" opacity="0.057"/><rect y="96.8" width="2400" height="14.1" fill="#7c5c30" opacity="0.046"/><rect y="120.3" width="2400" height="14.8" fill="#7c5c30" opacity="0.023"/><rect y="144.9" width="2400" height="24.3" fill="#7c5c30" opacity="0.048"/><rect y="185.4" width="2400" height="16.7" fill="#7c5c30" opacity="0.021"/><rect y="213.1" width="2400" height="13.6" fill="#7c5c30" opacity="0.038"/><rect y="235.8" width="2400" height="24.5" fill="#7c5c30" opacity="0.043"/><rect y="276.7" width="2400" height="27.5" fill="#7c5c30" opacity="0.029"/><rect y="322.5" width="2400" height="21" fill="#7c5c30" opacity="0.032"/><rect y="357.6" width="2400" height="23.1" fill="#7c5c30" opacity="0.023"/><rect y="396.2" width="2400" height="18" fill="#7c5c30" opacity="0.048"/><rect y="426.2" width="2400" height="26.3" fill="#7c5c30" opacity="0.032"/><rect y="470.1" width="2400" height="24.3" fill="#7c5c30" opacity="0.029"/><rect y="510.5" width="2400" height="27.2" fill="#7c5c30" opacity="0.031"/><rect y="555.8" width="2400" height="22.5" fill="#7c5c30" opacity="0.021"/><rect y="593.3" width="2400" height="25.8" fill="#7c5c30" opacity="0.047"/><rect y="636.3" width="2400" height="15.1" fill="#7c5c30" opacity="0.021"/><rect y="661.5" width="2400" height="21.1" fill="#7c5c30" opacity="0.029"/><rect y="696.7" width="2400" height="20.2" fill="#7c5c30" opacity="0.056"/><rect y="730.4" width="2400" height="20.1" fill="#7c5c30" opacity="0.036"/><rect y="763.9" width="2400" height="19.5" fill="#7c5c30" opacity="0.028"/><rect y="796.4" width="2400" height="19.2" fill="#7c5c30" opacity="0.046"/><rect y="828.3" width="2400" height="20.9" fill="#7c5c30" opacity="0.039"/><rect y="863.1" width="2400" height="26.7" fill="#7c5c30" opacity="0.040"/><rect y="907.7" width="2400" height="26.3" fill="#7c5c30" opacity="0.027"/><rect y="951.6" width="2400" height="12.5" fill="#7c5c30" opacity="0.049"/><rect y="972.4" width="2400" height="12.2" fill="#7c5c30" opacity="0.033"/><rect y="992.7" width="2400" height="16.5" fill="#7c5c30" opacity="0.032"/><rect y="1020.2" width="2400" height="26.7" fill="#7c5c30" opacity="0.024"/><rect y="1064.8" width="2400" height="14.9" fill="#7c5c30" opacity="0.021"/><rect y="1089.6" width="2400" height="22.7" fill="#7c5c30" opacity="0.025"/><rect y="1127.4" width="2400" height="26.5" fill="#7c5c30" opacity="0.051"/><rect y="1171.6" width="2400" height="20.4" fill="#7c5c30" opacity="0.022"/><rect y="1205.7" width="2400" height="27.6" fill="#7c5c30" opacity="0.048"/><rect y="1251.7" width="2400" height="21.5" fill="#7c5c30" opacity="0.039"/><rect y="1287.5" width="2400" height="21.3" fill="#7c5c30" opacity="0.058"/><rect y="1323" width="2400" height="20" fill="#7c5c30" opacity="0.044"/><rect y="1356.3" width="2400" height="25.5" fill="#7c5c30" opacity="0.033"/><rect y="1398.8" width="2400" height="16.7" fill="#7c5c30" opacity="0.053"/><rect y="1426.6" width="2400" height="13.6" fill="#7c5c30" opacity="0.027"/><rect y="1449.4" width="2400" height="15.5" fill="#7c5c30" opacity="0.050"/><rect y="1475.2" width="2400" height="21.3" fill="#7c5c30" opacity="0.058"/><rect y="1510.6" width="2400" height="14.6" fill="#7c5c30" opacity="0.050"/><rect y="1535" width="2400" height="14" fill="#7c5c30" opacity="0.044"/><rect y="1558.3" width="2400" height="24.3" fill="#7c5c30" opacity="0.038"/><rect y="1598.9" width="2400" height="15.5" fill="#7c5c30" opacity="0.054"/><rect y="1624.7" width="2400" height="24.6" fill="#7c5c30" opacity="0.051"/><rect y="1665.8" width="2400" height="18.7" fill="#7c5c30" opacity="0.021"/><rect y="1697" width="2400" height="19.1" fill="#7c5c30" opacity="0.029"/><rect y="1728.9" width="2400" height="22.3" fill="#7c5c30" opacity="0.057"/><rect y="1766.1" width="2400" height="19.1" fill="#7c5c30" opacity="0.059"/><rect y="1798" width="2400" height="21.7" fill="#7c5c30" opacity="0.048"/><rect y="1834.1" width="2400" height="20.7" fill="#7c5c30" opacity="0.058"/><rect y="1868.6" width="2400" height="28" fill="#7c5c30" opacity="0.045"/><rect y="1915.2" width="2400" height="24.7" fill="#7c5c30" opacity="0.035"/><rect y="1956.4" width="2400" height="18" fill="#7c5c30" opacity="0.025"/><rect y="1986.4" width="2400" height="23.1" fill="#7c5c30" opacity="0.031"/><rect y="2024.9" width="2400" height="28.5" fill="#7c5c30" opacity="0.032"/><rect y="2072.4" width="2400" height="28.7" fill="#7c5c30" opacity="0.031"/><rect y="2120.3" width="2400" height="20.9" fill="#7c5c30" opacity="0.034"/><rect y="2155.1" width="2400" height="22.3" fill="#7c5c30" opacity="0.049"/><rect y="2192.3" width="2400" height="13.8" fill="#7c5c30" opacity="0.031"/><rect y="2215.4" width="2400" height="20.5" fill="#7c5c30" opacity="0.033"/><rect y="2249.6" width="2400" height="14.4" fill="#7c5c30" opacity="0.055"/><rect y="2273.6" width="2400" height="14.3" fill="#7c5c30" opacity="0.032"/><rect y="2297.5" width="2400" height="18.7" fill="#7c5c30" opacity="0.040"/><rect y="2328.7" width="2400" height="24.2" fill="#7c5c30" opacity="0.023"/><rect y="2369.1" width="2400" height="14.9" fill="#7c5c30" opacity="0.030"/><rect y="2393.9" width="2400" height="22.4" fill="#7c5c30" opacity="0.023"/><rect y="2431.3" width="2400" height="21.8" fill="#7c5c30" opacity="0.023"/><rect y="2467.6" width="2400" height="15.4" fill="#7c5c30" opacity="0.021"/><rect y="2493.2" width="2400" height="27.3" fill="#7c5c30" opacity="0.039"/><rect y="2538.6" width="2400" height="16.8" fill="#7c5c30" opacity="0.051"/><rect y="2566.7" width="2400" height="20" fill="#7c5c30" opacity="0.032"/><rect y="2600.1" width="2400" height="22.8" fill="#7c5c30" opacity="0.045"/><rect y="2638" width="2400" height="17.9" fill="#7c5c30" opacity="0.030"/><rect y="2667.9" width="2400" height="24.5" fill="#7c5c30" opacity="0.039"/><rect y="2708.6" width="2400" height="12.2" fill="#7c5c30" opacity="0.036"/><rect y="2729" width="2400" height="12.3" fill="#7c5c30" opacity="0.031"/><rect y="2749.6" width="2400" height="13.6" fill="#7c5c30" opacity="0.051"/><rect y="2772.3" width="2400" height="15.4" fill="#7c5c30" opacity="0.047"/><rect y="2797.9" width="2400" height="28.6" fill="#7c5c30" opacity="0.034"/><rect y="2845.5" width="2400" height="25.4" fill="#7c5c30" opacity="0.051"/><rect y="2887.8" width="2400" height="17.5" fill="#7c5c30" opacity="0.058"/><rect y="2917" width="2400" height="17.2" fill="#7c5c30" opacity="0.039"/><rect y="2945.7" width="2400" height="13.4" fill="#7c5c30" opacity="0.045"/><rect y="2968.1" width="2400" height="19.9" fill="#7c5c30" opacity="0.050"/><g filter="url(#a173-warp)"><rect x="190" y="190" width="2020" height="2620" fill="none" stroke="#2e2818" stroke-width="14"/><rect x="260" y="260" width="1880" height="2480" fill="none" stroke="#2e2818" stroke-width="7"/><rect x="148" y="148" width="84" height="84" fill="#9c7426"/><rect x="148" y="2768" width="84" height="84" fill="#9c7426"/><rect x="2168" y="148" width="84" height="84" fill="#9c7426"/><rect x="2168" y="2768" width="84" height="84" fill="#9c7426"/><circle cx="1200" cy="1300" r="210" fill="#9c7426"/><circle cx="1200" cy="1300" r="252" fill="none" stroke="#2e2818" stroke-width="18"/><line x1="1040" y1="1320" x2="182.1" y2="1290" stroke="#2e2818" stroke-width="34" stroke-linecap="round"/><line x1="1040" y1="1320" x2="198.8" y2="1230.6" stroke="#2e2818" stroke-width="34" stroke-linecap="round"/><line x1="1040" y1="1320" x2="231.9" y2="1172.9" stroke="#2e2818" stroke-width="34" stroke-linecap="round"/><line x1="1040" y1="1320" x2="280.7" y2="1118.1" stroke="#2e2818" stroke-width="34" stroke-linecap="round"/><line x1="1040" y1="1320" x2="344.2" y2="1067.3" stroke="#2e2818" stroke-width="34" stroke-linecap="round"/><line x1="1040" y1="1320" x2="421.4" y2="1021.3" stroke="#2e2818" stroke-width="34" stroke-linecap="round"/><line x1="1040" y1="1320" x2="510.5" y2="981.2" stroke="#2e2818" stroke-width="34" stroke-linecap="round"/><line x1="1040" y1="1320" x2="610" y2="947.6" stroke="#2e2818" stroke-width="34" stroke-linecap="round"/><line x1="1040" y1="1320" x2="361.7" y2="1296.3" stroke="#2e2818" stroke-width="30" stroke-linecap="round"/><line x1="1040" y1="1320" x2="374.9" y2="1249.3" stroke="#2e2818" stroke-width="30" stroke-linecap="round"/><line x1="1040" y1="1320" x2="401" y2="1203.7" stroke="#2e2818" stroke-width="30" stroke-linecap="round"/><line x1="1040" y1="1320" x2="439.6" y2="1160.4" stroke="#2e2818" stroke-width="30" stroke-linecap="round"/><line x1="1040" y1="1320" x2="489.9" y2="1120.2" stroke="#2e2818" stroke-width="30" stroke-linecap="round"/><line x1="1040" y1="1320" x2="550.8" y2="1083.8" stroke="#2e2818" stroke-width="30" stroke-linecap="round"/><line x1="1040" y1="1320" x2="621.4" y2="1052.1" stroke="#2e2818" stroke-width="30" stroke-linecap="round"/><line x1="1040" y1="1320" x2="700" y2="1025.6" stroke="#2e2818" stroke-width="30" stroke-linecap="round"/><line x1="1040" y1="1320" x2="541.2" y2="1302.6" stroke="#2e2818" stroke-width="26" stroke-linecap="round"/><line x1="1040" y1="1320" x2="550.9" y2="1268" stroke="#2e2818" stroke-width="26" stroke-linecap="round"/><line x1="1040" y1="1320" x2="570.2" y2="1234.5" stroke="#2e2818" stroke-width="26" stroke-linecap="round"/><line x1="1040" y1="1320" x2="598.5" y2="1202.6" stroke="#2e2818" stroke-width="26" stroke-linecap="round"/><line x1="1040" y1="1320" x2="635.5" y2="1173.1" stroke="#2e2818" stroke-width="26" stroke-linecap="round"/><line x1="1040" y1="1320" x2="680.3" y2="1146.3" stroke="#2e2818" stroke-width="26" stroke-linecap="round"/><line x1="1040" y1="1320" x2="732.2" y2="1123" stroke="#2e2818" stroke-width="26" stroke-linecap="round"/><line x1="1040" y1="1320" x2="790" y2="1103.5" stroke="#2e2818" stroke-width="26" stroke-linecap="round"/><path d="M1070,1500 q -40,260 -200,380" fill="none" stroke="#2e2818" stroke-width="30" stroke-linecap="round"/><line x1="1360" y1="1320" x2="2217.9" y2="1290" stroke="#2e2818" stroke-width="34" stroke-linecap="round"/><line x1="1360" y1="1320" x2="2201.2" y2="1230.6" stroke="#2e2818" stroke-width="34" stroke-linecap="round"/><line x1="1360" y1="1320" x2="2168.1" y2="1172.9" stroke="#2e2818" stroke-width="34" stroke-linecap="round"/><line x1="1360" y1="1320" x2="2119.3" y2="1118.1" stroke="#2e2818" stroke-width="34" stroke-linecap="round"/><line x1="1360" y1="1320" x2="2055.8" y2="1067.3" stroke="#2e2818" stroke-width="34" stroke-linecap="round"/><line x1="1360" y1="1320" x2="1978.6" y2="1021.3" stroke="#2e2818" stroke-width="34" stroke-linecap="round"/><line x1="1360" y1="1320" x2="1889.5" y2="981.2" stroke="#2e2818" stroke-width="34" stroke-linecap="round"/><line x1="1360" y1="1320" x2="1790" y2="947.6" stroke="#2e2818" stroke-width="34" stroke-linecap="round"/><line x1="1360" y1="1320" x2="2038.3" y2="1296.3" stroke="#2e2818" stroke-width="30" stroke-linecap="round"/><line x1="1360" y1="1320" x2="2025.1" y2="1249.3" stroke="#2e2818" stroke-width="30" stroke-linecap="round"/><line x1="1360" y1="1320" x2="1999" y2="1203.7" stroke="#2e2818" stroke-width="30" stroke-linecap="round"/><line x1="1360" y1="1320" x2="1960.4" y2="1160.4" stroke="#2e2818" stroke-width="30" stroke-linecap="round"/><line x1="1360" y1="1320" x2="1910.1" y2="1120.2" stroke="#2e2818" stroke-width="30" stroke-linecap="round"/><line x1="1360" y1="1320" x2="1849.2" y2="1083.8" stroke="#2e2818" stroke-width="30" stroke-linecap="round"/><line x1="1360" y1="1320" x2="1778.6" y2="1052.1" stroke="#2e2818" stroke-width="30" stroke-linecap="round"/><line x1="1360" y1="1320" x2="1700" y2="1025.6" stroke="#2e2818" stroke-width="30" stroke-linecap="round"/><line x1="1360" y1="1320" x2="1858.8" y2="1302.6" stroke="#2e2818" stroke-width="26" stroke-linecap="round"/><line x1="1360" y1="1320" x2="1849.1" y2="1268" stroke="#2e2818" stroke-width="26" stroke-linecap="round"/><line x1="1360" y1="1320" x2="1829.8" y2="1234.5" stroke="#2e2818" stroke-width="26" stroke-linecap="round"/><line x1="1360" y1="1320" x2="1801.5" y2="1202.6" stroke="#2e2818" stroke-width="26" stroke-linecap="round"/><line x1="1360" y1="1320" x2="1764.5" y2="1173.1" stroke="#2e2818" stroke-width="26" stroke-linecap="round"/><line x1="1360" y1="1320" x2="1719.7" y2="1146.3" stroke="#2e2818" stroke-width="26" stroke-linecap="round"/><line x1="1360" y1="1320" x2="1667.8" y2="1123" stroke="#2e2818" stroke-width="26" stroke-linecap="round"/><line x1="1360" y1="1320" x2="1610" y2="1103.5" stroke="#2e2818" stroke-width="26" stroke-linecap="round"/><path d="M1330,1500 q 40,260 200,380" fill="none" stroke="#2e2818" stroke-width="30" stroke-linecap="round"/><polygon points="741.8,2416.1 752.1,2442.3 778.3,2452.6 752.1,2463 741.8,2489.2 731.5,2463 705.3,2452.6 731.5,2442.3 " fill="#9c7426"/><polygon points="1858.1,446.7 1867,469.2 1889.5,478.1 1867,487 1858.1,509.5 1849.2,487 1826.7,478.1 1849.2,469.2 " fill="#9c7426"/><polygon points="1477.9,2502.3 1488.4,2528.8 1514.8,2539.2 1488.4,2549.7 1477.9,2576.2 1467.5,2549.7 1441,2539.2 1467.5,2528.8 " fill="#9c7426"/><polygon points="980.4,444.5 987.8,463.2 1006.5,470.5 987.8,477.9 980.4,496.6 973.1,477.9 954.4,470.5 973.1,463.2 " fill="#9c7426"/><polygon points="1504.8,511.2 1513.4,533 1535.2,541.6 1513.4,550.2 1504.8,572.1 1496.1,550.2 1474.3,541.6 1496.1,533 " fill="#9c7426"/><polygon points="1234.2,377.5 1246.1,407.7 1276.3,419.6 1246.1,431.5 1234.2,461.8 1222.3,431.5 1192,419.6 1222.3,407.7 " fill="#9c7426"/><rect x="120" y="120" width="2160" height="2760" fill="none" stroke="#2e2818" stroke-width="6" opacity="0.85"/></g><rect width="2400" height="3000" filter="url(#a173-mottle)" style="mix-blend-mode:multiply" opacity="0.5"/><rect width="2400" height="3000" filter="url(#a173-fade)" style="mix-blend-mode:screen" opacity="0.55"/><rect width="2400" height="3000" filter="url(#a173-grain)" style="mix-blend-mode:multiply" opacity="0.32"/><ellipse cx="1736.7" cy="292" rx="257.9" ry="210.4" fill="#6b4a22" opacity="0.039" filter="url(#a173-blur9)"/><ellipse cx="1736.8" cy="2460.8" rx="332.9" ry="237.6" fill="#6b4a22" opacity="0.046" filter="url(#a173-blur9)"/><ellipse cx="1738.8" cy="2436.8" rx="312.1" ry="229.1" fill="#6b4a22" opacity="0.044" filter="url(#a173-blur9)"/><ellipse cx="337.4" cy="1138.9" rx="189.9" ry="190.2" fill="#6b4a22" opacity="0.036" filter="url(#a173-blur9)"/><ellipse cx="1594.3" cy="2409.1" rx="166.8" ry="167" fill="#6b4a22" opacity="0.045" filter="url(#a173-blur9)"/><rect x="0" width="33.1" height="3000" fill="#fff2d0" opacity="0.027"/><rect x="66.2" width="20.2" height="3000" fill="#fff2d0" opacity="0.022"/><rect x="106.6" width="34.3" height="3000" fill="#fff2d0" opacity="0.039"/><rect x="175.3" width="32.2" height="3000" fill="#fff2d0" opacity="0.025"/><rect x="239.8" width="31.6" height="3000" fill="#fff2d0" opacity="0.024"/><rect x="302.9" width="25.3" height="3000" fill="#fff2d0" opacity="0.042"/><rect x="353.5" width="26.5" height="3000" fill="#fff2d0" opacity="0.026"/><rect x="406.5" width="27" height="3000" fill="#fff2d0" opacity="0.029"/><rect x="460.4" width="25.1" height="3000" fill="#fff2d0" opacity="0.041"/><rect x="510.7" width="15.9" height="3000" fill="#fff2d0" opacity="0.033"/><rect x="542.5" width="27.8" height="3000" fill="#fff2d0" opacity="0.026"/><rect x="598" width="19.9" height="3000" fill="#fff2d0" opacity="0.034"/><rect x="637.8" width="32.4" height="3000" fill="#fff2d0" opacity="0.025"/><rect x="702.5" width="32.7" height="3000" fill="#fff2d0" opacity="0.041"/><rect x="767.9" width="30.5" height="3000" fill="#fff2d0" opacity="0.016"/><rect x="828.9" width="21.4" height="3000" fill="#fff2d0" opacity="0.026"/><rect x="871.6" width="30.6" height="3000" fill="#fff2d0" opacity="0.023"/><rect x="932.8" width="31.9" height="3000" fill="#fff2d0" opacity="0.038"/><rect x="996.7" width="31.9" height="3000" fill="#fff2d0" opacity="0.025"/><rect x="1060.4" width="17.3" height="3000" fill="#fff2d0" opacity="0.021"/><rect x="1095" width="15.6" height="3000" fill="#fff2d0" opacity="0.038"/><rect x="1126.3" width="21" height="3000" fill="#fff2d0" opacity="0.028"/><rect x="1168.4" width="18.3" height="3000" fill="#fff2d0" opacity="0.019"/><rect x="1205" width="34.3" height="3000" fill="#fff2d0" opacity="0.030"/><rect x="1273.5" width="18.1" height="3000" fill="#fff2d0" opacity="0.030"/><rect x="1309.8" width="18.3" height="3000" fill="#fff2d0" opacity="0.017"/><rect x="1346.3" width="32.7" height="3000" fill="#fff2d0" opacity="0.044"/><rect x="1411.8" width="24.3" height="3000" fill="#fff2d0" opacity="0.020"/><rect x="1460.4" width="25.1" height="3000" fill="#fff2d0" opacity="0.022"/><rect x="1510.7" width="25.3" height="3000" fill="#fff2d0" opacity="0.042"/><rect x="1561.2" width="29.8" height="3000" fill="#fff2d0" opacity="0.033"/><rect x="1620.8" width="32.6" height="3000" fill="#fff2d0" opacity="0.023"/><rect x="1686.1" width="26.9" height="3000" fill="#fff2d0" opacity="0.027"/><rect x="1739.8" width="33.6" height="3000" fill="#fff2d0" opacity="0.028"/><rect x="1807" width="17.9" height="3000" fill="#fff2d0" opacity="0.040"/><rect x="1842.8" width="21.5" height="3000" fill="#fff2d0" opacity="0.035"/><rect x="1885.8" width="15.9" height="3000" fill="#fff2d0" opacity="0.021"/><rect x="1917.7" width="27" height="3000" fill="#fff2d0" opacity="0.017"/><rect x="1971.6" width="23.9" height="3000" fill="#fff2d0" opacity="0.032"/><rect x="2019.5" width="23.8" height="3000" fill="#fff2d0" opacity="0.037"/><rect x="2067.2" width="31.2" height="3000" fill="#fff2d0" opacity="0.026"/><rect x="2129.7" width="26.7" height="3000" fill="#fff2d0" opacity="0.020"/><rect x="2183" width="19.5" height="3000" fill="#fff2d0" opacity="0.020"/><rect x="2222.1" width="30.4" height="3000" fill="#fff2d0" opacity="0.039"/><rect x="2282.9" width="31.5" height="3000" fill="#fff2d0" opacity="0.021"/><rect x="2345.9" width="25.9" height="3000" fill="#fff2d0" opacity="0.037"/><rect x="2397.7" width="29.9" height="3000" fill="#fff2d0" opacity="0.016"/><linearGradient id="a173-er" x1="0" x2="1" y1="0" y2="0"><stop offset="0" stop-color="#3a2a12" stop-opacity="0.22"/><stop offset="1" stop-color="#3a2a12" stop-opacity="0"/></linearGradient><rect x="0" y="0" width="90" height="3000" fill="url(#a173-er)"/><linearGradient id="a173-el" x1="1" x2="0" y1="0" y2="0"><stop offset="0" stop-color="#3a2a12" stop-opacity="0.22"/><stop offset="1" stop-color="#3a2a12" stop-opacity="0"/></linearGradient><rect x="2310" y="0" width="90" height="3000" fill="url(#a173-el)"/><linearGradient id="a173-ed" x1="0" x2="0" y1="0" y2="1"><stop offset="0" stop-color="#3a2a12" stop-opacity="0.22"/><stop offset="1" stop-color="#3a2a12" stop-opacity="0"/></linearGradient><rect x="0" y="0" width="2400" height="90" fill="url(#a173-ed)"/><linearGradient id="a173-eu" x1="0" x2="0" y1="1" y2="0"><stop offset="0" stop-color="#3a2a12" stop-opacity="0.22"/><stop offset="1" stop-color="#3a2a12" stop-opacity="0"/></linearGradient><rect x="0" y="2910" width="2400" height="90" fill="url(#a173-eu)"/><circle cx="1966" cy="585.9" r="15.3" fill="#8a5a2e" opacity="0.065"/><circle cx="1837.3" cy="2823.3" r="6.9" fill="#8a5a2e" opacity="0.103"/><circle cx="837.6" cy="1836" r="12.4" fill="#8a5a2e" opacity="0.063"/><circle cx="268.7" cy="2368.5" r="3.9" fill="#8a5a2e" opacity="0.072"/><circle cx="1681.3" cy="1216.8" r="14.3" fill="#8a5a2e" opacity="0.080"/><circle cx="2052.2" cy="1079.1" r="12.2" fill="#8a5a2e" opacity="0.100"/><circle cx="1061.2" cy="1359.8" r="13.7" fill="#8a5a2e" opacity="0.105"/><circle cx="1902.9" cy="1766.3" r="9.2" fill="#8a5a2e" opacity="0.104"/><circle cx="1122.6" cy="721.9" r="12.5" fill="#8a5a2e" opacity="0.104"/><circle cx="1288.1" cy="2504.4" r="13.9" fill="#8a5a2e" opacity="0.118"/><circle cx="2208.5" cy="2565.1" r="9.8" fill="#8a5a2e" opacity="0.090"/><circle cx="1690.3" cy="2306.1" r="8" fill="#8a5a2e" opacity="0.090"/><rect width="2400" height="3000" fill="url(#a173-vig)"/></svg></svg>