<svg xmlns="http://www.w3.org/2000/svg" width="2400" height="1800" viewBox="0 0 2400 1800"><rect width="2400" height="1800" fill="#dfe4dc"/><rect y="1400" width="2400" height="400" fill="#c2a67e"/><line x1="60" y1="1400" x2="10" y2="1800" stroke="#00000015" stroke-width="5"/><line x1="260" y1="1400" x2="210" y2="1800" stroke="#00000015" stroke-width="5"/><line x1="460" y1="1400" x2="410" y2="1800" stroke="#00000015" stroke-width="5"/><line x1="660" y1="1400" x2="610" y2="1800" stroke="#00000015" stroke-width="5"/><line x1="860" y1="1400" x2="810" y2="1800" stroke="#00000015" stroke-width="5"/><line x1="1060" y1="1400" x2="1010" y2="1800" stroke="#00000015" stroke-width="5"/><line x1="1260" y1="1400" x2="1210" y2="1800" stroke="#00000015" stroke-width="5"/><line x1="1460" y1="1400" x2="1410" y2="1800" stroke="#00000015" stroke-width="5"/><line x1="1660" y1="1400" x2="1610" y2="1800" stroke="#00000015" stroke-width="5"/><line x1="1860" y1="1400" x2="1810" y2="1800" stroke="#00000015" stroke-width="5"/><line x1="2060" y1="1400" x2="2010" y2="1800" stroke="#00000015" stroke-width="5"/><line x1="2260" y1="1400" x2="2210" y2="1800" stroke="#00000015" stroke-width="5"/><rect x="180" y="260" width="900" height="620" fill="#8a6a48"/><rect x="215" y="295" width="830" height="550" fill="#41524a"/><line x1="280" y1="420" x2="760" y2="420" stroke="#ffffff66" stroke-width="9" stroke-linecap="round"/><line x1="280" y1="520" x2="620" y2="520" stroke="#ffffff44" stroke-width="9" stroke-linecap="round"/><circle cx="880" cy="560" r="90" fill="none" stroke="#ffffff55" stroke-width="8"/><rect x="215" y="845" width="830" height="22" fill="#6f5436"/><rect x="330" y="1240" width="640" height="60" rx="10" fill="#9c7449"/><rect x="370" y="1300" width="60" height="240" fill="#8a6540"/><rect x="870" y="1300" width="60" height="240" fill="#8a6540"/><rect x="430" y="1160" width="150" height="80" rx="8" fill="#4d84b5"/><rect x="450" y="1120" width="150" height="40" rx="8" fill="#24486e"/><circle cx="800" cy="1130" r="86" fill="#7fa3b8"/><path d="M760,1060 Q820,1100 780,1190 M740,1090 Q800,1120 850,1100" stroke="#5d8069" stroke-width="16" fill="none" stroke-linecap="round"/><circle cx="800" cy="1130" r="86" fill="none" stroke="#6b5233" stroke-width="7"/><line x1="800" y1="1216" x2="800" y2="1250" stroke="#6b5233" stroke-width="10"/><rect x="750" y="1244" width="100" height="14" rx="7" fill="#6b5233"/><rect x="1980" y="700" width="300" height="800" fill="#9c7449"/><rect x="2000" y="930" width="260" height="16" fill="#7c5a37"/><rect x="2020" y="790" width="36" height="140" fill="#b3502f"/><rect x="2066" y="802" width="36" height="128" fill="#39685c"/><rect x="2112" y="790" width="36" height="140" fill="#c9a227"/><rect x="2158" y="802" width="36" height="128" fill="#2c4661"/><rect x="2204" y="790" width="36" height="140" fill="#8a4423"/><rect x="2000" y="1180" width="260" height="16" fill="#7c5a37"/><rect x="2020" y="1040" width="36" height="140" fill="#39685c"/><rect x="2066" y="1052" width="36" height="128" fill="#c9a227"/><rect x="2112" y="1040" width="36" height="140" fill="#2c4661"/><rect x="2158" y="1052" width="36" height="128" fill="#8a4423"/><rect x="2204" y="1040" width="36" height="140" fill="#b3502f"/><rect x="2000" y="1430" width="260" height="16" fill="#7c5a37"/><rect x="2020" y="1290" width="36" height="140" fill="#c9a227"/><rect x="2066" y="1302" width="36" height="128" fill="#2c4661"/><rect x="2112" y="1290" width="36" height="140" fill="#8a4423"/><rect x="2158" y="1302" width="36" height="128" fill="#b3502f"/><rect x="2204" y="1290" width="36" height="140" fill="#39685c"/><defs><filter id="a134c-sh" x="-30%" y="-30%" width="160%" height="160%"><feGaussianBlur stdDeviation="16"/></filter></defs><rect x="1340.5" y="298.5" width="517" height="635" fill="#000" opacity="0.28" filter="url(#a134c-sh)"/><rect x="1326.5" y="276.5" width="517" height="635" fill="#3d342a"/><rect x="1341.8" y="291.8" width="486.4" height="604.5" fill="none" stroke="#00000055" stroke-width="3"/><rect x="1350" y="300" width="470" height="588" fill="#f6f2ea"/><svg x="1385.3" y="335.3" width="399.5" height="517.5" viewBox="0 0 2400 3000" preserveAspectRatio="xMidYMid slice"><rect width="2400" height="3000" fill="#16324f"/><radialGradient id="a134-vig" cx="50%" cy="42%" r="80%"><stop offset="55%" stop-color="#000" stop-opacity="0"/><stop offset="100%" stop-color="#000" stop-opacity="0.15"/></radialGradient><rect width="2400" height="3000" fill="url(#a134-vig)"/><circle cx="611.4" cy="1118.8" r="1.7" fill="#d8b45a" opacity="0.034"/><circle cx="675.9" cy="2157" r="4.4" fill="#d8b45a" opacity="0.046"/><circle cx="1414.8" cy="2371.4" r="1.7" fill="#d8b45a" opacity="0.051"/><circle cx="1195.8" cy="1837.4" r="4.4" fill="#d8b45a" opacity="0.070"/><circle cx="1809.8" cy="2394.4" r="2.6" fill="#d8b45a" opacity="0.048"/><circle cx="2274.5" cy="1307.7" r="4.4" fill="#d8b45a" opacity="0.058"/><circle cx="1707.6" cy="2340.8" r="2.4" fill="#d8b45a" opacity="0.061"/><circle cx="1832.9" cy="1648.7" r="3.3" fill="#d8b45a" opacity="0.056"/><circle cx="1900.7" cy="2482.8" r="4.1" fill="#d8b45a" opacity="0.043"/><circle cx="55.2" cy="1772.9" r="2.7" fill="#d8b45a" opacity="0.050"/><circle cx="712.7" cy="2298.8" r="3.9" fill="#d8b45a" opacity="0.067"/><circle cx="1428.2" cy="1828.9" r="4.3" fill="#d8b45a" opacity="0.045"/><circle cx="2282.6" cy="1237.9" r="2.6" fill="#d8b45a" opacity="0.067"/><circle cx="313.9" cy="1466.9" r="1.8" fill="#d8b45a" opacity="0.058"/><circle cx="301.3" cy="704.8" r="1.6" fill="#d8b45a" opacity="0.035"/><circle cx="1481.3" cy="499.1" r="2.2" fill="#d8b45a" opacity="0.063"/><circle cx="807.5" cy="1769.4" r="1.5" fill="#d8b45a" opacity="0.055"/><circle cx="1525.2" cy="811.1" r="1.9" fill="#d8b45a" opacity="0.058"/><circle cx="1578.3" cy="1417.2" r="3.4" fill="#d8b45a" opacity="0.070"/><circle cx="1564.3" cy="341.2" r="1.7" fill="#d8b45a" opacity="0.039"/><circle cx="116.9" cy="1291.2" r="1.6" fill="#d8b45a" opacity="0.031"/><circle cx="2116.5" cy="67.2" r="3.1" fill="#d8b45a" opacity="0.064"/><circle cx="1158.2" cy="740.9" r="2.6" fill="#d8b45a" opacity="0.045"/><circle cx="806.6" cy="1113.8" r="3.7" fill="#d8b45a" opacity="0.076"/><circle cx="2307.5" cy="1427.3" r="2.8" fill="#d8b45a" opacity="0.038"/><circle cx="1240.6" cy="587.8" r="1.7" fill="#d8b45a" opacity="0.073"/><circle cx="884.4" cy="2428" r="4.3" fill="#d8b45a" opacity="0.062"/><circle cx="1563.9" cy="608.4" r="3.3" fill="#d8b45a" opacity="0.050"/><circle cx="70.9" cy="1905.1" r="2.1" fill="#d8b45a" opacity="0.042"/><circle cx="2145.1" cy="1027" r="2.1" fill="#d8b45a" opacity="0.034"/><circle cx="313.1" cy="2648" r="3.4" fill="#d8b45a" opacity="0.052"/><circle cx="1005" cy="1693.5" r="1.8" fill="#d8b45a" opacity="0.050"/><circle cx="2114.6" cy="1048.5" r="2.3" fill="#d8b45a" opacity="0.057"/><circle cx="1304.2" cy="97.7" r="2.4" fill="#d8b45a" opacity="0.036"/><circle cx="1509.6" cy="1091.1" r="3.6" fill="#d8b45a" opacity="0.079"/><circle cx="952.2" cy="174.5" r="4.5" fill="#d8b45a" opacity="0.072"/><circle cx="1585.3" cy="1046.4" r="2.6" fill="#d8b45a" opacity="0.070"/><circle cx="619" cy="536.8" r="1.9" fill="#d8b45a" opacity="0.055"/><circle cx="2229.5" cy="2012.8" r="2.8" fill="#d8b45a" opacity="0.079"/><circle cx="553.2" cy="2656.5" r="1.9" fill="#d8b45a" opacity="0.066"/><circle cx="829.2" cy="1293" r="2.9" fill="#d8b45a" opacity="0.033"/><circle cx="271.4" cy="2797.5" r="2.9" fill="#d8b45a" opacity="0.073"/><circle cx="666.3" cy="1615.6" r="1.6" fill="#d8b45a" opacity="0.072"/><circle cx="442.1" cy="761.5" r="4.4" fill="#d8b45a" opacity="0.079"/><circle cx="1838.8" cy="2054.3" r="2.3" fill="#d8b45a" opacity="0.044"/><circle cx="442.7" cy="1971.8" r="1.8" fill="#d8b45a" opacity="0.071"/><circle cx="229" cy="224.7" r="3.5" fill="#d8b45a" opacity="0.035"/><circle cx="1754.8" cy="353.7" r="2.7" fill="#d8b45a" opacity="0.071"/><circle cx="1448.5" cy="853.8" r="2.3" fill="#d8b45a" opacity="0.061"/><circle cx="1907.1" cy="795.2" r="2.9" fill="#d8b45a" opacity="0.049"/><circle cx="869.5" cy="1343.4" r="4.4" fill="#d8b45a" opacity="0.046"/><circle cx="1077.5" cy="1708.5" r="2.4" fill="#d8b45a" opacity="0.046"/><circle cx="933.3" cy="1381.2" r="3.4" fill="#d8b45a" opacity="0.055"/><circle cx="1438.3" cy="1345" r="1.8" fill="#d8b45a" opacity="0.033"/><circle cx="327.8" cy="303.7" r="3.8" fill="#d8b45a" opacity="0.072"/><circle cx="1863" cy="2012.9" r="1.7" fill="#d8b45a" opacity="0.038"/><circle cx="1012.8" cy="1841.1" r="2.5" fill="#d8b45a" opacity="0.039"/><circle cx="1154.2" cy="248.3" r="3.2" fill="#d8b45a" opacity="0.066"/><circle cx="393.6" cy="916.3" r="2.9" fill="#d8b45a" opacity="0.066"/><circle cx="1368.4" cy="2410.3" r="3.8" fill="#d8b45a" opacity="0.066"/><circle cx="2236.2" cy="1554.3" r="2.2" fill="#d8b45a" opacity="0.055"/><circle cx="1379.6" cy="2464.1" r="2.4" fill="#d8b45a" opacity="0.062"/><circle cx="355.4" cy="2950" r="1.6" fill="#d8b45a" opacity="0.066"/><circle cx="2221.9" cy="2626.4" r="4.3" fill="#d8b45a" opacity="0.065"/><circle cx="1943.2" cy="2903.2" r="3.3" fill="#d8b45a" opacity="0.077"/><circle cx="1268.3" cy="2192" r="2.1" fill="#d8b45a" opacity="0.041"/><circle cx="1393.3" cy="2281.7" r="3.4" fill="#d8b45a" opacity="0.070"/><circle cx="1088.3" cy="1476.3" r="1.7" fill="#d8b45a" opacity="0.041"/><circle cx="1831.9" cy="324.8" r="3.8" fill="#d8b45a" opacity="0.071"/><circle cx="83.1" cy="2625.3" r="4" fill="#d8b45a" opacity="0.037"/><circle cx="1120.9" cy="683.1" r="3.1" fill="#d8b45a" opacity="0.071"/><circle cx="1117.2" cy="2234.8" r="3.2" fill="#d8b45a" opacity="0.037"/><circle cx="1051.3" cy="100.9" r="1.8" fill="#d8b45a" opacity="0.073"/><circle cx="1702.3" cy="2288.6" r="4.1" fill="#d8b45a" opacity="0.040"/><circle cx="1261.5" cy="90.1" r="2.4" fill="#d8b45a" opacity="0.051"/><circle cx="988.5" cy="1944.1" r="2.5" fill="#d8b45a" opacity="0.043"/><circle cx="395.2" cy="2690.1" r="3.2" fill="#d8b45a" opacity="0.040"/><circle cx="839.7" cy="2263.3" r="3.8" fill="#d8b45a" opacity="0.068"/><circle cx="944.6" cy="2929" r="4.4" fill="#d8b45a" opacity="0.050"/><circle cx="439.1" cy="723.7" r="3.7" fill="#d8b45a" opacity="0.065"/><rect x="200" y="170" width="2000" height="14.5" fill="#d8b45a"/><rect x="200" y="184" width="2000" height="14.5" fill="#4d84b5"/><rect x="200" y="198" width="2000" height="14.5" fill="#d8b45a"/><rect x="200" y="212" width="2000" height="14.5" fill="#24486e"/><rect x="200" y="226" width="2000" height="14.5" fill="#d8b45a"/><rect x="200" y="2760" width="2000" height="14.5" fill="#d8b45a"/><rect x="200" y="2774" width="2000" height="14.5" fill="#4d84b5"/><rect x="200" y="2788" width="2000" height="14.5" fill="#d8b45a"/><rect x="200" y="2802" width="2000" height="14.5" fill="#24486e"/><rect x="200" y="2816" width="2000" height="14.5" fill="#d8b45a"/><circle cx="1200" cy="1030" r="150" fill="#4d84b5"/><circle cx="1200" cy="1030" r="196" fill="none" stroke="#4d84b5" stroke-width="10"/><line x1="1110" y1="1540" x2="357.4" y2="1481.8" stroke="#d8b45a" stroke-width="34" stroke-linecap="round"/><line x1="1110" y1="1540" x2="383.2" y2="1417.8" stroke="#d8b45a" stroke-width="34" stroke-linecap="round"/><line x1="1110" y1="1540" x2="426.9" y2="1356.8" stroke="#d8b45a" stroke-width="34" stroke-linecap="round"/><line x1="1110" y1="1540" x2="487.4" y2="1300.2" stroke="#d8b45a" stroke-width="34" stroke-linecap="round"/><line x1="1110" y1="1540" x2="563.3" y2="1249.6" stroke="#d8b45a" stroke-width="34" stroke-linecap="round"/><line x1="1110" y1="1540" x2="652.6" y2="1206.2" stroke="#d8b45a" stroke-width="34" stroke-linecap="round"/><line x1="1110" y1="1540" x2="753.2" y2="1170.9" stroke="#d8b45a" stroke-width="34" stroke-linecap="round"/><line x1="1110" y1="1540" x2="862.6" y2="1144.8" stroke="#d8b45a" stroke-width="34" stroke-linecap="round"/><line x1="1110" y1="1540" x2="978" y2="1128.4" stroke="#d8b45a" stroke-width="34" stroke-linecap="round"/><line x1="1110" y1="1540" x2="515.8" y2="1494.1" stroke="#4d84b5" stroke-width="30" stroke-linecap="round"/><line x1="1110" y1="1540" x2="536.2" y2="1443.5" stroke="#4d84b5" stroke-width="30" stroke-linecap="round"/><line x1="1110" y1="1540" x2="570.7" y2="1395.3" stroke="#4d84b5" stroke-width="30" stroke-linecap="round"/><line x1="1110" y1="1540" x2="618.5" y2="1350.7" stroke="#4d84b5" stroke-width="30" stroke-linecap="round"/><line x1="1110" y1="1540" x2="678.4" y2="1310.8" stroke="#4d84b5" stroke-width="30" stroke-linecap="round"/><line x1="1110" y1="1540" x2="748.9" y2="1276.5" stroke="#4d84b5" stroke-width="30" stroke-linecap="round"/><line x1="1110" y1="1540" x2="828.3" y2="1248.6" stroke="#4d84b5" stroke-width="30" stroke-linecap="round"/><line x1="1110" y1="1540" x2="914.7" y2="1228" stroke="#4d84b5" stroke-width="30" stroke-linecap="round"/><line x1="1110" y1="1540" x2="1005.8" y2="1215" stroke="#4d84b5" stroke-width="30" stroke-linecap="round"/><line x1="1110" y1="1540" x2="664.4" y2="1505.6" stroke="#d8b45a" stroke-width="26" stroke-linecap="round"/><line x1="1110" y1="1540" x2="679.7" y2="1467.6" stroke="#d8b45a" stroke-width="26" stroke-linecap="round"/><line x1="1110" y1="1540" x2="705.5" y2="1431.5" stroke="#d8b45a" stroke-width="26" stroke-linecap="round"/><line x1="1110" y1="1540" x2="741.4" y2="1398" stroke="#d8b45a" stroke-width="26" stroke-linecap="round"/><line x1="1110" y1="1540" x2="786.3" y2="1368.1" stroke="#d8b45a" stroke-width="26" stroke-linecap="round"/><line x1="1110" y1="1540" x2="839.2" y2="1342.3" stroke="#d8b45a" stroke-width="26" stroke-linecap="round"/><line x1="1110" y1="1540" x2="898.7" y2="1321.5" stroke="#d8b45a" stroke-width="26" stroke-linecap="round"/><line x1="1110" y1="1540" x2="963.5" y2="1306" stroke="#d8b45a" stroke-width="26" stroke-linecap="round"/><line x1="1110" y1="1540" x2="1031.9" y2="1296.3" stroke="#d8b45a" stroke-width="26" stroke-linecap="round"/><line x1="1290" y1="1540" x2="2042.6" y2="1481.8" stroke="#d8b45a" stroke-width="34" stroke-linecap="round"/><line x1="1290" y1="1540" x2="2016.8" y2="1417.8" stroke="#d8b45a" stroke-width="34" stroke-linecap="round"/><line x1="1290" y1="1540" x2="1973.1" y2="1356.8" stroke="#d8b45a" stroke-width="34" stroke-linecap="round"/><line x1="1290" y1="1540" x2="1912.6" y2="1300.2" stroke="#d8b45a" stroke-width="34" stroke-linecap="round"/><line x1="1290" y1="1540" x2="1836.7" y2="1249.6" stroke="#d8b45a" stroke-width="34" stroke-linecap="round"/><line x1="1290" y1="1540" x2="1747.4" y2="1206.2" stroke="#d8b45a" stroke-width="34" stroke-linecap="round"/><line x1="1290" y1="1540" x2="1646.8" y2="1170.9" stroke="#d8b45a" stroke-width="34" stroke-linecap="round"/><line x1="1290" y1="1540" x2="1537.4" y2="1144.8" stroke="#d8b45a" stroke-width="34" stroke-linecap="round"/><line x1="1290" y1="1540" x2="1422" y2="1128.4" stroke="#d8b45a" stroke-width="34" stroke-linecap="round"/><line x1="1290" y1="1540" x2="1884.2" y2="1494.1" stroke="#4d84b5" stroke-width="30" stroke-linecap="round"/><line x1="1290" y1="1540" x2="1863.8" y2="1443.5" stroke="#4d84b5" stroke-width="30" stroke-linecap="round"/><line x1="1290" y1="1540" x2="1829.3" y2="1395.3" stroke="#4d84b5" stroke-width="30" stroke-linecap="round"/><line x1="1290" y1="1540" x2="1781.5" y2="1350.7" stroke="#4d84b5" stroke-width="30" stroke-linecap="round"/><line x1="1290" y1="1540" x2="1721.6" y2="1310.8" stroke="#4d84b5" stroke-width="30" stroke-linecap="round"/><line x1="1290" y1="1540" x2="1651.1" y2="1276.5" stroke="#4d84b5" stroke-width="30" stroke-linecap="round"/><line x1="1290" y1="1540" x2="1571.7" y2="1248.6" stroke="#4d84b5" stroke-width="30" stroke-linecap="round"/><line x1="1290" y1="1540" x2="1485.3" y2="1228" stroke="#4d84b5" stroke-width="30" stroke-linecap="round"/><line x1="1290" y1="1540" x2="1394.2" y2="1215" stroke="#4d84b5" stroke-width="30" stroke-linecap="round"/><line x1="1290" y1="1540" x2="1735.6" y2="1505.6" stroke="#d8b45a" stroke-width="26" stroke-linecap="round"/><line x1="1290" y1="1540" x2="1720.3" y2="1467.6" stroke="#d8b45a" stroke-width="26" stroke-linecap="round"/><line x1="1290" y1="1540" x2="1694.5" y2="1431.5" stroke="#d8b45a" stroke-width="26" stroke-linecap="round"/><line x1="1290" y1="1540" x2="1658.6" y2="1398" stroke="#d8b45a" stroke-width="26" stroke-linecap="round"/><line x1="1290" y1="1540" x2="1613.7" y2="1368.1" stroke="#d8b45a" stroke-width="26" stroke-linecap="round"/><line x1="1290" y1="1540" x2="1560.8" y2="1342.3" stroke="#d8b45a" stroke-width="26" stroke-linecap="round"/><line x1="1290" y1="1540" x2="1501.3" y2="1321.5" stroke="#d8b45a" stroke-width="26" stroke-linecap="round"/><line x1="1290" y1="1540" x2="1436.5" y2="1306" stroke="#d8b45a" stroke-width="26" stroke-linecap="round"/><line x1="1290" y1="1540" x2="1368.1" y2="1296.3" stroke="#d8b45a" stroke-width="26" stroke-linecap="round"/><path d="M1080,1500 q -150,-60 -210,-150" fill="none" stroke="#d8b45a" stroke-width="26" stroke-linecap="round"/><path d="M1035,1660 q -190,20 -260,-40" fill="none" stroke="#d8b45a" stroke-width="26" stroke-linecap="round"/><path d="M1070,1810 q -150,90 -230,80" fill="none" stroke="#d8b45a" stroke-width="26" stroke-linecap="round"/><path d="M1320,1500 q 150,-60 210,-150" fill="none" stroke="#d8b45a" stroke-width="26" stroke-linecap="round"/><path d="M1365,1660 q 190,20 260,-40" fill="none" stroke="#d8b45a" stroke-width="26" stroke-linecap="round"/><path d="M1330,1810 q 150,90 230,80" fill="none" stroke="#d8b45a" stroke-width="26" stroke-linecap="round"/><ellipse cx="1200" cy="1660" rx="180" ry="240" fill="#d8b45a"/><line x1="1200" y1="1540" x2="1200" y2="1896" stroke="#16324f" stroke-width="9" opacity="0.7"/><path d="M1028,1552 Q 1200,1630 1372,1552" fill="none" stroke="#16324f" stroke-width="9" opacity="0.7"/><path d="M1080,1450 A 130,130 0 0 1 1320,1450 L1278,1495 L1122,1495 Z" fill="#d8b45a"/><line x1="1112" y1="1392" x2="1084" y2="1338" stroke="#d8b45a" stroke-width="16" stroke-linecap="round"/><line x1="1156" y1="1392" x2="1142" y2="1338" stroke="#d8b45a" stroke-width="16" stroke-linecap="round"/><line x1="1200" y1="1392" x2="1200" y2="1338" stroke="#d8b45a" stroke-width="16" stroke-linecap="round"/><line x1="1244" y1="1392" x2="1258" y2="1338" stroke="#d8b45a" stroke-width="16" stroke-linecap="round"/><line x1="1288" y1="1392" x2="1316" y2="1338" stroke="#d8b45a" stroke-width="16" stroke-linecap="round"/><path d="M780,1990 Q 1200,2160 1620,1990 L1560,1990 Q 1200,2090 840,1990 Z" fill="#4d84b5"/><rect x="100" y="100" width="2200" height="2800" fill="none" stroke="#d8b45a" stroke-width="9"/><rect x="142" y="142" width="2116" height="2716" fill="none" stroke="#d8b45a" stroke-width="3" opacity="0.65"/></svg></svg>