<svg xmlns="http://www.w3.org/2000/svg" width="2400" height="1800" viewBox="0 0 2400 1800"><rect width="2400" height="1800" fill="#dfe4dc"/><rect y="1400" width="2400" height="400" fill="#c2a67e"/><line x1="60" y1="1400" x2="10" y2="1800" stroke="#00000015" stroke-width="5"/><line x1="260" y1="1400" x2="210" y2="1800" stroke="#00000015" stroke-width="5"/><line x1="460" y1="1400" x2="410" y2="1800" stroke="#00000015" stroke-width="5"/><line x1="660" y1="1400" x2="610" y2="1800" stroke="#00000015" stroke-width="5"/><line x1="860" y1="1400" x2="810" y2="1800" stroke="#00000015" stroke-width="5"/><line x1="1060" y1="1400" x2="1010" y2="1800" stroke="#00000015" stroke-width="5"/><line x1="1260" y1="1400" x2="1210" y2="1800" stroke="#00000015" stroke-width="5"/><line x1="1460" y1="1400" x2="1410" y2="1800" stroke="#00000015" stroke-width="5"/><line x1="1660" y1="1400" x2="1610" y2="1800" stroke="#00000015" stroke-width="5"/><line x1="1860" y1="1400" x2="1810" y2="1800" stroke="#00000015" stroke-width="5"/><line x1="2060" y1="1400" x2="2010" y2="1800" stroke="#00000015" stroke-width="5"/><line x1="2260" y1="1400" x2="2210" y2="1800" stroke="#00000015" stroke-width="5"/><rect x="180" y="260" width="900" height="620" fill="#8a6a48"/><rect x="215" y="295" width="830" height="550" fill="#41524a"/><line x1="280" y1="420" x2="760" y2="420" stroke="#ffffff66" stroke-width="9" stroke-linecap="round"/><line x1="280" y1="520" x2="620" y2="520" stroke="#ffffff44" stroke-width="9" stroke-linecap="round"/><circle cx="880" cy="560" r="90" fill="none" stroke="#ffffff55" stroke-width="8"/><rect x="215" y="845" width="830" height="22" fill="#6f5436"/><rect x="330" y="1240" width="640" height="60" rx="10" fill="#9c7449"/><rect x="370" y="1300" width="60" height="240" fill="#8a6540"/><rect x="870" y="1300" width="60" height="240" fill="#8a6540"/><rect x="430" y="1160" width="150" height="80" rx="8" fill="#87681c"/><rect x="450" y="1120" width="150" height="40" rx="8" fill="#233142"/><circle cx="800" cy="1130" r="86" fill="#7fa3b8"/><path d="M760,1060 Q820,1100 780,1190 M740,1090 Q800,1120 850,1100" stroke="#5d8069" stroke-width="16" fill="none" stroke-linecap="round"/><circle cx="800" cy="1130" r="86" fill="none" stroke="#6b5233" stroke-width="7"/><line x1="800" y1="1216" x2="800" y2="1250" stroke="#6b5233" stroke-width="10"/><rect x="750" y="1244" width="100" height="14" rx="7" fill="#6b5233"/><rect x="1980" y="700" width="300" height="800" fill="#9c7449"/><rect x="2000" y="930" width="260" height="16" fill="#7c5a37"/><rect x="2020" y="790" width="36" height="140" fill="#b3502f"/><rect x="2066" y="802" width="36" height="128" fill="#39685c"/><rect x="2112" y="790" width="36" height="140" fill="#c9a227"/><rect x="2158" y="802" width="36" height="128" fill="#2c4661"/><rect x="2204" y="790" width="36" height="140" fill="#8a4423"/><rect x="2000" y="1180" width="260" height="16" fill="#7c5a37"/><rect x="2020" y="1040" width="36" height="140" fill="#39685c"/><rect x="2066" y="1052" width="36" height="128" fill="#c9a227"/><rect x="2112" y="1040" width="36" height="140" fill="#2c4661"/><rect x="2158" y="1052" width="36" height="128" fill="#8a4423"/><rect x="2204" y="1040" width="36" height="140" fill="#b3502f"/><rect x="2000" y="1430" width="260" height="16" fill="#7c5a37"/><rect x="2020" y="1290" width="36" height="140" fill="#c9a227"/><rect x="2066" y="1302" width="36" height="128" fill="#2c4661"/><rect x="2112" y="1290" width="36" height="140" fill="#8a4423"/><rect x="2158" y="1302" width="36" height="128" fill="#b3502f"/><rect x="2204" y="1290" width="36" height="140" fill="#39685c"/><defs><filter id="a99c-sh" x="-30%" y="-30%" width="160%" height="160%"><feGaussianBlur stdDeviation="16"/></filter></defs><rect x="1340.5" y="298.5" width="517" height="635" fill="#000" opacity="0.28" filter="url(#a99c-sh)"/><rect x="1326.5" y="276.5" width="517" height="635" fill="#3d342a"/><rect x="1341.8" y="291.8" width="486.4" height="604.5" fill="none" stroke="#00000055" stroke-width="3"/><rect x="1350" y="300" width="470" height="588" fill="#f6f2ea"/><svg x="1385.3" y="335.3" width="399.5" height="517.5" viewBox="0 0 2400 3000" preserveAspectRatio="xMidYMid slice"><rect width="2400" height="3000" fill="#141b25"/><radialGradient id="a99-vig" cx="50%" cy="42%" r="80%"><stop offset="55%" stop-color="#000" stop-opacity="0"/><stop offset="100%" stop-color="#000" stop-opacity="0.15"/></radialGradient><rect width="2400" height="3000" fill="url(#a99-vig)"/><circle cx="2103.1" cy="2551.6" r="3.3" fill="#c9a227" opacity="0.037"/><circle cx="1699.7" cy="1223.7" r="4.1" fill="#c9a227" opacity="0.049"/><circle cx="863.5" cy="2782.9" r="3.3" fill="#c9a227" opacity="0.052"/><circle cx="2340.1" cy="41.3" r="2.6" fill="#c9a227" opacity="0.055"/><circle cx="1225.5" cy="2611.7" r="2.8" fill="#c9a227" opacity="0.067"/><circle cx="1379.6" cy="484.1" r="2.8" fill="#c9a227" opacity="0.031"/><circle cx="1499.2" cy="403.3" r="3.9" fill="#c9a227" opacity="0.053"/><circle cx="1159.5" cy="2003.3" r="3.6" fill="#c9a227" opacity="0.043"/><circle cx="1071.6" cy="463.6" r="3.6" fill="#c9a227" opacity="0.056"/><circle cx="713.3" cy="2699.3" r="3" fill="#c9a227" opacity="0.071"/><circle cx="684.3" cy="2924.7" r="3.7" fill="#c9a227" opacity="0.079"/><circle cx="1693.6" cy="426.6" r="4.2" fill="#c9a227" opacity="0.036"/><circle cx="221.2" cy="757.3" r="3.2" fill="#c9a227" opacity="0.035"/><circle cx="1268.5" cy="627.9" r="1.6" fill="#c9a227" opacity="0.039"/><circle cx="96.8" cy="1330.1" r="3" fill="#c9a227" opacity="0.031"/><circle cx="1619.7" cy="1481.3" r="3.1" fill="#c9a227" opacity="0.042"/><circle cx="1952.9" cy="732.7" r="3.7" fill="#c9a227" opacity="0.044"/><circle cx="1970.1" cy="2501.3" r="2.3" fill="#c9a227" opacity="0.072"/><circle cx="2158.1" cy="1046.4" r="3.7" fill="#c9a227" opacity="0.036"/><circle cx="1179.8" cy="1998" r="2.1" fill="#c9a227" opacity="0.042"/><circle cx="1435.7" cy="315.9" r="2.5" fill="#c9a227" opacity="0.048"/><circle cx="98.4" cy="1201" r="2.7" fill="#c9a227" opacity="0.042"/><circle cx="1751.9" cy="2606.3" r="3.6" fill="#c9a227" opacity="0.032"/><circle cx="1172.2" cy="1146.5" r="2.2" fill="#c9a227" opacity="0.033"/><circle cx="454.1" cy="1915.3" r="3.7" fill="#c9a227" opacity="0.047"/><circle cx="1231.8" cy="1943" r="3.6" fill="#c9a227" opacity="0.056"/><circle cx="328.6" cy="2769.9" r="3.6" fill="#c9a227" opacity="0.036"/><circle cx="1257.4" cy="1251" r="3.8" fill="#c9a227" opacity="0.075"/><circle cx="1914.3" cy="2469.8" r="3.2" fill="#c9a227" opacity="0.050"/><circle cx="760" cy="2865.2" r="4.2" fill="#c9a227" opacity="0.031"/><circle cx="1271.5" cy="1057.2" r="3.1" fill="#c9a227" opacity="0.042"/><circle cx="931.9" cy="2726.2" r="3.1" fill="#c9a227" opacity="0.053"/><circle cx="2353.5" cy="1197.8" r="3.5" fill="#c9a227" opacity="0.080"/><circle cx="775.6" cy="1835.3" r="2.9" fill="#c9a227" opacity="0.051"/><circle cx="403.1" cy="162.5" r="3.9" fill="#c9a227" opacity="0.042"/><circle cx="1298.5" cy="1993" r="2.2" fill="#c9a227" opacity="0.061"/><circle cx="2271.4" cy="1925.1" r="2.8" fill="#c9a227" opacity="0.030"/><circle cx="2337.7" cy="2610.1" r="4.1" fill="#c9a227" opacity="0.064"/><circle cx="569.6" cy="2148.5" r="3.8" fill="#c9a227" opacity="0.057"/><circle cx="1263.6" cy="947.8" r="2.2" fill="#c9a227" opacity="0.053"/><circle cx="1868.7" cy="2483.4" r="3" fill="#c9a227" opacity="0.063"/><circle cx="1589.7" cy="1691.4" r="2.5" fill="#c9a227" opacity="0.036"/><circle cx="2250" cy="1566.7" r="3.3" fill="#c9a227" opacity="0.067"/><circle cx="2063.1" cy="682" r="1.6" fill="#c9a227" opacity="0.055"/><circle cx="1082.8" cy="1562.2" r="3.7" fill="#c9a227" opacity="0.078"/><circle cx="2040.4" cy="2773.4" r="3.9" fill="#c9a227" opacity="0.050"/><circle cx="497.2" cy="296.2" r="4.3" fill="#c9a227" opacity="0.053"/><circle cx="606.3" cy="1777.7" r="2.2" fill="#c9a227" opacity="0.031"/><circle cx="2289.4" cy="999.8" r="3.7" fill="#c9a227" opacity="0.041"/><circle cx="1810" cy="681.1" r="3.3" fill="#c9a227" opacity="0.063"/><circle cx="2351.6" cy="638.7" r="2.6" fill="#c9a227" opacity="0.059"/><circle cx="1946.8" cy="795.7" r="4.1" fill="#c9a227" opacity="0.062"/><circle cx="576.9" cy="733.9" r="2" fill="#c9a227" opacity="0.032"/><circle cx="409.5" cy="2680.3" r="4" fill="#c9a227" opacity="0.041"/><circle cx="2179.6" cy="2245.5" r="2.7" fill="#c9a227" opacity="0.054"/><circle cx="1416.5" cy="1579.2" r="3.5" fill="#c9a227" opacity="0.077"/><circle cx="466" cy="1824" r="2.1" fill="#c9a227" opacity="0.068"/><circle cx="2330.2" cy="1778.3" r="4.3" fill="#c9a227" opacity="0.040"/><circle cx="421.3" cy="2802.8" r="1.6" fill="#c9a227" opacity="0.074"/><circle cx="1297.1" cy="832.1" r="3.6" fill="#c9a227" opacity="0.070"/><circle cx="119.3" cy="1753.1" r="4" fill="#c9a227" opacity="0.073"/><circle cx="2244.1" cy="2155.4" r="3.5" fill="#c9a227" opacity="0.039"/><circle cx="2187.9" cy="280.6" r="3.4" fill="#c9a227" opacity="0.059"/><circle cx="539.7" cy="2321" r="2.4" fill="#c9a227" opacity="0.075"/><circle cx="133.6" cy="1250.6" r="4.2" fill="#c9a227" opacity="0.058"/><circle cx="1127.8" cy="2009.8" r="2.7" fill="#c9a227" opacity="0.077"/><circle cx="382.7" cy="1818" r="4.1" fill="#c9a227" opacity="0.045"/><circle cx="2222.7" cy="953.2" r="2.2" fill="#c9a227" opacity="0.030"/><circle cx="1084.8" cy="1345" r="4.4" fill="#c9a227" opacity="0.077"/><circle cx="567.7" cy="1189.3" r="1.6" fill="#c9a227" opacity="0.073"/><circle cx="2266.9" cy="1994" r="2.3" fill="#c9a227" opacity="0.039"/><circle cx="902.7" cy="1200.2" r="2.4" fill="#c9a227" opacity="0.080"/><circle cx="1504.2" cy="1305.5" r="3.5" fill="#c9a227" opacity="0.037"/><circle cx="1716" cy="53.9" r="3.3" fill="#c9a227" opacity="0.052"/><circle cx="1845.3" cy="2882.6" r="3.7" fill="#c9a227" opacity="0.061"/><circle cx="1210.3" cy="691.3" r="3" fill="#c9a227" opacity="0.077"/><circle cx="2265" cy="1943.4" r="2.8" fill="#c9a227" opacity="0.062"/><circle cx="2015.9" cy="156.8" r="3.5" fill="#c9a227" opacity="0.068"/><circle cx="662.9" cy="1427.3" r="3.3" fill="#c9a227" opacity="0.048"/><circle cx="1150.9" cy="861.9" r="4.2" fill="#c9a227" opacity="0.063"/><path d="M1190.1,1579.6 A130,130 0 1 1 1256.2,1567.2" fill="none" stroke="#c9a227" stroke-width="52.2" stroke-linecap="round"/><line x1="1169.9" y1="1576.5" x2="1141.2" y2="1697.4" stroke="#c9a227" stroke-width="52.2" stroke-linecap="round"/><path d="M1254.5,1201.6 A254.3,254.3 0 1 1 1123,1207.7" fill="none" stroke="#c9a227" stroke-width="52.2" stroke-linecap="round"/><line x1="1086" y1="1222.7" x2="1030.3" y2="1111.6" stroke="#c9a227" stroke-width="52.2" stroke-linecap="round"/><path d="M1044.7,1795.2 A378.6,378.6 0 1 1 1238.1,1826.6" fill="none" stroke="#c9a227" stroke-width="52.2" stroke-linecap="round"/><line x1="992.6" y1="1766.7" x2="924.5" y2="1870.7" stroke="#c9a227" stroke-width="52.2" stroke-linecap="round"/><path d="M1323.3,962.5 A502.9,502.9 0 1 1 1063,966.2" fill="none" stroke="#c9a227" stroke-width="52.2" stroke-linecap="round"/><line x1="989" y1="993.5" x2="936.9" y2="880.7" stroke="#c9a227" stroke-width="52.2" stroke-linecap="round"/><path d="M1124.8,2072.6 A627.1,627.1 0 1 1 1446.1,2026.8" fill="none" stroke="#c9a227" stroke-width="52.2" stroke-linecap="round"/><line x1="1028.3" y1="2053.2" x2="994.2" y2="2172.7" stroke="#c9a227" stroke-width="52.2" stroke-linecap="round"/><path d="M1462.7,746 A751.4,751.4 0 1 1 1075.5,709" fill="none" stroke="#c9a227" stroke-width="52.2" stroke-linecap="round"/><line x1="961.1" y1="737.5" x2="921.6" y2="619.7" stroke="#c9a227" stroke-width="52.2" stroke-linecap="round"/><path d="M861.1,2257.5 A875.7,875.7 0 1 1 1310.3,2318.7" fill="none" stroke="#c9a227" stroke-width="52.2" stroke-linecap="round"/><circle cx="1200" cy="1450" r="56" fill="#87681c"/><path d="M324.7,287.3 L 395.3,287.3 L 395.3,216.7 L 339.8,216.7 L 339.8,260.4 L 368.4,260.4 L 368.4,238.6 M408.7,287.3 L 479.3,287.3 L 479.3,216.7 L 423.8,216.7 L 423.8,260.4 L 452.4,260.4 L 452.4,238.6 M492.7,287.3 L 563.3,287.3 L 563.3,216.7 L 507.8,216.7 L 507.8,260.4 L 536.4,260.4 L 536.4,238.6 M576.7,287.3 L 647.3,287.3 L 647.3,216.7 L 591.8,216.7 L 591.8,260.4 L 620.4,260.4 L 620.4,238.6 M660.7,287.3 L 731.3,287.3 L 731.3,216.7 L 675.8,216.7 L 675.8,260.4 L 704.4,260.4 L 704.4,238.6 M744.7,287.3 L 815.3,287.3 L 815.3,216.7 L 759.8,216.7 L 759.8,260.4 L 788.4,260.4 L 788.4,238.6 M828.7,287.3 L 899.3,287.3 L 899.3,216.7 L 843.8,216.7 L 843.8,260.4 L 872.4,260.4 L 872.4,238.6 M912.7,287.3 L 983.3,287.3 L 983.3,216.7 L 927.8,216.7 L 927.8,260.4 L 956.4,260.4 L 956.4,238.6 M996.7,287.3 L 1067.3,287.3 L 1067.3,216.7 L 1011.8,216.7 L 1011.8,260.4 L 1040.4,260.4 L 1040.4,238.6 M1080.7,287.3 L 1151.3,287.3 L 1151.3,216.7 L 1095.8,216.7 L 1095.8,260.4 L 1124.4,260.4 L 1124.4,238.6 M1164.7,287.3 L 1235.3,287.3 L 1235.3,216.7 L 1179.8,216.7 L 1179.8,260.4 L 1208.4,260.4 L 1208.4,238.6 M1248.7,287.3 L 1319.3,287.3 L 1319.3,216.7 L 1263.8,216.7 L 1263.8,260.4 L 1292.4,260.4 L 1292.4,238.6 M1332.7,287.3 L 1403.3,287.3 L 1403.3,216.7 L 1347.8,216.7 L 1347.8,260.4 L 1376.4,260.4 L 1376.4,238.6 M1416.7,287.3 L 1487.3,287.3 L 1487.3,216.7 L 1431.8,216.7 L 1431.8,260.4 L 1460.4,260.4 L 1460.4,238.6 M1500.7,287.3 L 1571.3,287.3 L 1571.3,216.7 L 1515.8,216.7 L 1515.8,260.4 L 1544.4,260.4 L 1544.4,238.6 M1584.7,287.3 L 1655.3,287.3 L 1655.3,216.7 L 1599.8,216.7 L 1599.8,260.4 L 1628.4,260.4 L 1628.4,238.6 M1668.7,287.3 L 1739.3,287.3 L 1739.3,216.7 L 1683.8,216.7 L 1683.8,260.4 L 1712.4,260.4 L 1712.4,238.6 M1752.7,287.3 L 1823.3,287.3 L 1823.3,216.7 L 1767.8,216.7 L 1767.8,260.4 L 1796.4,260.4 L 1796.4,238.6 M1836.7,287.3 L 1907.3,287.3 L 1907.3,216.7 L 1851.8,216.7 L 1851.8,260.4 L 1880.4,260.4 L 1880.4,238.6 M1920.7,287.3 L 1991.3,287.3 L 1991.3,216.7 L 1935.8,216.7 L 1935.8,260.4 L 1964.4,260.4 L 1964.4,238.6 M2004.7,287.3 L 2075.3,287.3 L 2075.3,216.7 L 2019.8,216.7 L 2019.8,260.4 L 2048.4,260.4 L 2048.4,238.6 " fill="none" stroke="#c9a227" stroke-width="10.9"/><path d="M324.7,2777.3 L 395.3,2777.3 L 395.3,2706.7 L 339.8,2706.7 L 339.8,2750.4 L 368.4,2750.4 L 368.4,2728.6 M408.7,2777.3 L 479.3,2777.3 L 479.3,2706.7 L 423.8,2706.7 L 423.8,2750.4 L 452.4,2750.4 L 452.4,2728.6 M492.7,2777.3 L 563.3,2777.3 L 563.3,2706.7 L 507.8,2706.7 L 507.8,2750.4 L 536.4,2750.4 L 536.4,2728.6 M576.7,2777.3 L 647.3,2777.3 L 647.3,2706.7 L 591.8,2706.7 L 591.8,2750.4 L 620.4,2750.4 L 620.4,2728.6 M660.7,2777.3 L 731.3,2777.3 L 731.3,2706.7 L 675.8,2706.7 L 675.8,2750.4 L 704.4,2750.4 L 704.4,2728.6 M744.7,2777.3 L 815.3,2777.3 L 815.3,2706.7 L 759.8,2706.7 L 759.8,2750.4 L 788.4,2750.4 L 788.4,2728.6 M828.7,2777.3 L 899.3,2777.3 L 899.3,2706.7 L 843.8,2706.7 L 843.8,2750.4 L 872.4,2750.4 L 872.4,2728.6 M912.7,2777.3 L 983.3,2777.3 L 983.3,2706.7 L 927.8,2706.7 L 927.8,2750.4 L 956.4,2750.4 L 956.4,2728.6 M996.7,2777.3 L 1067.3,2777.3 L 1067.3,2706.7 L 1011.8,2706.7 L 1011.8,2750.4 L 1040.4,2750.4 L 1040.4,2728.6 M1080.7,2777.3 L 1151.3,2777.3 L 1151.3,2706.7 L 1095.8,2706.7 L 1095.8,2750.4 L 1124.4,2750.4 L 1124.4,2728.6 M1164.7,2777.3 L 1235.3,2777.3 L 1235.3,2706.7 L 1179.8,2706.7 L 1179.8,2750.4 L 1208.4,2750.4 L 1208.4,2728.6 M1248.7,2777.3 L 1319.3,2777.3 L 1319.3,2706.7 L 1263.8,2706.7 L 1263.8,2750.4 L 1292.4,2750.4 L 1292.4,2728.6 M1332.7,2777.3 L 1403.3,2777.3 L 1403.3,2706.7 L 1347.8,2706.7 L 1347.8,2750.4 L 1376.4,2750.4 L 1376.4,2728.6 M1416.7,2777.3 L 1487.3,2777.3 L 1487.3,2706.7 L 1431.8,2706.7 L 1431.8,2750.4 L 1460.4,2750.4 L 1460.4,2728.6 M1500.7,2777.3 L 1571.3,2777.3 L 1571.3,2706.7 L 1515.8,2706.7 L 1515.8,2750.4 L 1544.4,2750.4 L 1544.4,2728.6 M1584.7,2777.3 L 1655.3,2777.3 L 1655.3,2706.7 L 1599.8,2706.7 L 1599.8,2750.4 L 1628.4,2750.4 L 1628.4,2728.6 M1668.7,2777.3 L 1739.3,2777.3 L 1739.3,2706.7 L 1683.8,2706.7 L 1683.8,2750.4 L 1712.4,2750.4 L 1712.4,2728.6 M1752.7,2777.3 L 1823.3,2777.3 L 1823.3,2706.7 L 1767.8,2706.7 L 1767.8,2750.4 L 1796.4,2750.4 L 1796.4,2728.6 M1836.7,2777.3 L 1907.3,2777.3 L 1907.3,2706.7 L 1851.8,2706.7 L 1851.8,2750.4 L 1880.4,2750.4 L 1880.4,2728.6 M1920.7,2777.3 L 1991.3,2777.3 L 1991.3,2706.7 L 1935.8,2706.7 L 1935.8,2750.4 L 1964.4,2750.4 L 1964.4,2728.6 M2004.7,2777.3 L 2075.3,2777.3 L 2075.3,2706.7 L 2019.8,2706.7 L 2019.8,2750.4 L 2048.4,2750.4 L 2048.4,2728.6 " fill="none" stroke="#c9a227" stroke-width="10.9"/><rect x="100" y="100" width="2200" height="2800" fill="none" stroke="#c9a227" stroke-width="9"/><rect x="142" y="142" width="2116" height="2716" fill="none" stroke="#c9a227" stroke-width="3" opacity="0.65"/></svg></svg>