<svg xmlns="http://www.w3.org/2000/svg" width="2400" height="1800" viewBox="0 0 2400 1800"><rect width="2400" height="1800" fill="#dfe4dc"/><rect y="1400" width="2400" height="400" fill="#c2a67e"/><line x1="60" y1="1400" x2="10" y2="1800" stroke="#00000015" stroke-width="5"/><line x1="260" y1="1400" x2="210" y2="1800" stroke="#00000015" stroke-width="5"/><line x1="460" y1="1400" x2="410" y2="1800" stroke="#00000015" stroke-width="5"/><line x1="660" y1="1400" x2="610" y2="1800" stroke="#00000015" stroke-width="5"/><line x1="860" y1="1400" x2="810" y2="1800" stroke="#00000015" stroke-width="5"/><line x1="1060" y1="1400" x2="1010" y2="1800" stroke="#00000015" stroke-width="5"/><line x1="1260" y1="1400" x2="1210" y2="1800" stroke="#00000015" stroke-width="5"/><line x1="1460" y1="1400" x2="1410" y2="1800" stroke="#00000015" stroke-width="5"/><line x1="1660" y1="1400" x2="1610" y2="1800" stroke="#00000015" stroke-width="5"/><line x1="1860" y1="1400" x2="1810" y2="1800" stroke="#00000015" stroke-width="5"/><line x1="2060" y1="1400" x2="2010" y2="1800" stroke="#00000015" stroke-width="5"/><line x1="2260" y1="1400" x2="2210" y2="1800" stroke="#00000015" stroke-width="5"/><rect x="180" y="260" width="900" height="620" fill="#8a6a48"/><rect x="215" y="295" width="830" height="550" fill="#41524a"/><line x1="280" y1="420" x2="760" y2="420" stroke="#ffffff66" stroke-width="9" stroke-linecap="round"/><line x1="280" y1="520" x2="620" y2="520" stroke="#ffffff44" stroke-width="9" stroke-linecap="round"/><circle cx="880" cy="560" r="90" fill="none" stroke="#ffffff55" stroke-width="8"/><rect x="215" y="845" width="830" height="22" fill="#6f5436"/><rect x="330" y="1240" width="640" height="60" rx="10" fill="#9c7449"/><rect x="370" y="1300" width="60" height="240" fill="#8a6540"/><rect x="870" y="1300" width="60" height="240" fill="#8a6540"/><rect x="430" y="1160" width="150" height="80" rx="8" fill="#875732"/><rect x="450" y="1120" width="150" height="40" rx="8" fill="#a6926e"/><circle cx="800" cy="1130" r="86" fill="#7fa3b8"/><path d="M760,1060 Q820,1100 780,1190 M740,1090 Q800,1120 850,1100" stroke="#5d8069" stroke-width="16" fill="none" stroke-linecap="round"/><circle cx="800" cy="1130" r="86" fill="none" stroke="#6b5233" stroke-width="7"/><line x1="800" y1="1216" x2="800" y2="1250" stroke="#6b5233" stroke-width="10"/><rect x="750" y="1244" width="100" height="14" rx="7" fill="#6b5233"/><rect x="1980" y="700" width="300" height="800" fill="#9c7449"/><rect x="2000" y="930" width="260" height="16" fill="#7c5a37"/><rect x="2020" y="790" width="36" height="140" fill="#b3502f"/><rect x="2066" y="802" width="36" height="128" fill="#39685c"/><rect x="2112" y="790" width="36" height="140" fill="#c9a227"/><rect x="2158" y="802" width="36" height="128" fill="#2c4661"/><rect x="2204" y="790" width="36" height="140" fill="#8a4423"/><rect x="2000" y="1180" width="260" height="16" fill="#7c5a37"/><rect x="2020" y="1040" width="36" height="140" fill="#39685c"/><rect x="2066" y="1052" width="36" height="128" fill="#c9a227"/><rect x="2112" y="1040" width="36" height="140" fill="#2c4661"/><rect x="2158" y="1052" width="36" height="128" fill="#8a4423"/><rect x="2204" y="1040" width="36" height="140" fill="#b3502f"/><rect x="2000" y="1430" width="260" height="16" fill="#7c5a37"/><rect x="2020" y="1290" width="36" height="140" fill="#c9a227"/><rect x="2066" y="1302" width="36" height="128" fill="#2c4661"/><rect x="2112" y="1290" width="36" height="140" fill="#8a4423"/><rect x="2158" y="1302" width="36" height="128" fill="#b3502f"/><rect x="2204" y="1290" width="36" height="140" fill="#39685c"/><defs><filter id="a144c-sh" x="-30%" y="-30%" width="160%" height="160%"><feGaussianBlur stdDeviation="16"/></filter></defs><rect x="1340.5" y="298.5" width="517" height="635" fill="#000" opacity="0.28" filter="url(#a144c-sh)"/><rect x="1326.5" y="276.5" width="517" height="635" fill="#3d342a"/><rect x="1341.8" y="291.8" width="486.4" height="604.5" fill="none" stroke="#00000055" stroke-width="3"/><rect x="1350" y="300" width="470" height="588" fill="#f6f2ea"/><svg x="1385.3" y="335.3" width="399.5" height="517.5" viewBox="0 0 2400 3000" preserveAspectRatio="xMidYMid slice"><filter id="a144-warp" x="-4%" y="-4%" width="108%" height="108%"><feTurbulence type="fractalNoise" baseFrequency="0.0105" numOctaves="2" seed="3274" result="w"/><feDisplacementMap in="SourceGraphic" in2="w" scale="7" xChannelSelector="R" yChannelSelector="G"/></filter><filter id="a144-grain" x="0%" y="0%" width="100%" height="100%"><feTurbulence type="fractalNoise" baseFrequency="0.6" numOctaves="2" seed="3281"/><feColorMatrix type="matrix" values="0.33 0.33 0.33 0 0.62  0.33 0.33 0.33 0 0.62  0.33 0.33 0.33 0 0.62  0 0 0 0 1"/></filter><filter id="a144-mottle" x="0%" y="0%" width="100%" height="100%"><feTurbulence type="fractalNoise" baseFrequency="0.0045" numOctaves="3" seed="3287"/><feColorMatrix type="matrix" values="0.2 0.2 0.2 0 0.78  0.2 0.2 0.2 0 0.78  0.2 0.2 0.2 0 0.78  0 0 0 0 1"/></filter><filter id="a144-fade" x="0%" y="0%" width="100%" height="100%"><feTurbulence type="fractalNoise" baseFrequency="0.006" numOctaves="2" seed="3303"/><feColorMatrix type="matrix" values="0.3 0.3 0.3 0 -0.08  0.3 0.3 0.3 0 -0.08  0.3 0.3 0.3 0 -0.1  0 0 0 0 1"/></filter><filter id="a144-blur9"><feGaussianBlur stdDeviation="9"/></filter><radialGradient id="a144-vig" cx="50%" cy="44%" r="78%"><stop offset="52%" stop-color="#241a10" stop-opacity="0"/><stop offset="100%" stop-color="#241a10" stop-opacity="0.17"/></radialGradient><radialGradient id="a144-warm" cx="64%" cy="30%" r="85%"><stop offset="0%" stop-color="#e8c890" stop-opacity="0.14"/><stop offset="70%" stop-color="#e8c890" stop-opacity="0"/></radialGradient><rect width="2400" height="3000" fill="#e0d5bd"/><rect width="2400" height="3000" fill="url(#a144-warm)"/><g filter="url(#a144-warp)"><circle cx="1024.3" cy="908.6" r="306.2" fill="#875732" opacity="0.95"/><line x1="200" y1="2430" x2="2200" y2="2430" stroke="#3a2e1e" stroke-width="16"/><rect x="930" y="2340" width="540" height="90" fill="#3a2e1e"/><rect x="1005.6" y="2260" width="388.8" height="80" fill="#3a2e1e"/><path d="M1065,2260 L1116.3,827.2 L1283.7,827.2 L1335,2260 Z" fill="#3a2e1e"/><polygon points="1200,677.2 1116.3,829.2 1283.7,829.2" fill="#875732"/><circle cx="1200" cy="937.2" r="19.32" fill="#e0d5bd" opacity="0.9"/><polygon points="1200,1024.2 1177,1070.2 1223,1070.2" fill="#e0d5bd" opacity="0.9"/><rect x="1177" y="1149.2" width="46" height="16" fill="#e0d5bd" opacity="0.9"/><rect x="1177" y="1259.2" width="46" height="16" fill="#e0d5bd" opacity="0.9"/><circle cx="1200" cy="1377.2" r="19.32" fill="#e0d5bd" opacity="0.9"/><polyline points="1154,1501.2 1177,1475.2 1200,1501.2 1223,1475.2 1246,1501.2 " fill="none" stroke="#e0d5bd" stroke-width="4.7" stroke-linejoin="miter"/><circle cx="1200" cy="1597.2" r="19.32" fill="#e0d5bd" opacity="0.9"/><circle cx="1200" cy="1707.2" r="19.32" fill="#e0d5bd" opacity="0.9"/><polyline points="1154,1831.2 1177,1805.2 1200,1831.2 1223,1805.2 1246,1831.2 " fill="none" stroke="#e0d5bd" stroke-width="4.7" stroke-linejoin="miter"/><polygon points="1200,1904.2 1177,1950.2 1223,1950.2" fill="#e0d5bd" opacity="0.9"/><polygon points="1200,2014.2 1177,2060.2 1223,2060.2" fill="#e0d5bd" opacity="0.9"/><rect x="200" y="2770" width="2000" height="13.3" fill="#3a2e1e"/><rect x="200" y="2782.8" width="2000" height="13.3" fill="#875732"/><rect x="200" y="2795.6" width="2000" height="13.3" fill="#3a2e1e"/><rect x="200" y="2808.4" width="2000" height="13.3" fill="#a6926e"/><rect x="200" y="2821.2" width="2000" height="13.3" fill="#3a2e1e"/><rect x="130" y="130" width="2140" height="2740" fill="none" stroke="#3a2e1e" stroke-width="5"/><rect x="152" y="152" width="2096" height="2696" fill="none" stroke="#3a2e1e" stroke-width="2.5" opacity="0.8"/></g><rect width="2400" height="3000" filter="url(#a144-mottle)" style="mix-blend-mode:multiply" opacity="0.5"/><rect width="2400" height="3000" filter="url(#a144-fade)" style="mix-blend-mode:screen" opacity="0.55"/><rect width="2400" height="3000" filter="url(#a144-grain)" style="mix-blend-mode:multiply" opacity="0.32"/><ellipse cx="1970.9" cy="1254.6" rx="245.6" ry="172.6" fill="#6b4a22" opacity="0.045" filter="url(#a144-blur9)"/><ellipse cx="2074.9" cy="172.2" rx="329.1" ry="342" fill="#6b4a22" opacity="0.039" filter="url(#a144-blur9)"/><ellipse cx="374.7" cy="848.4" rx="131" ry="116.2" fill="#6b4a22" opacity="0.048" filter="url(#a144-blur9)"/><ellipse cx="1210.4" cy="1319.2" rx="94.1" ry="66.2" fill="#6b4a22" opacity="0.065" filter="url(#a144-blur9)"/><ellipse cx="2042.6" cy="2748" rx="306.4" ry="180.5" fill="#6b4a22" opacity="0.050" filter="url(#a144-blur9)"/><ellipse cx="1625.6" cy="454.8" rx="212.5" ry="161.2" fill="#6b4a22" opacity="0.043" filter="url(#a144-blur9)"/><g opacity="0.3"><rect y="3" width="2400" height="2" fill="#e0d5bd"/><rect y="11" width="2400" height="2" fill="#e0d5bd"/><rect y="19" width="2400" height="2" fill="#e0d5bd"/><rect y="27" width="2400" height="2" fill="#e0d5bd"/><rect y="35" width="2400" height="2" fill="#e0d5bd"/><rect y="43" width="2400" height="2" fill="#e0d5bd"/><rect y="51" width="2400" height="2" fill="#e0d5bd"/><rect y="59" width="2400" height="2" fill="#e0d5bd"/><rect y="67" width="2400" height="2" fill="#e0d5bd"/><rect y="75" width="2400" height="2" fill="#e0d5bd"/><rect y="83" width="2400" height="2" fill="#e0d5bd"/><rect y="91" width="2400" height="2" fill="#e0d5bd"/><rect y="99" width="2400" height="2" fill="#e0d5bd"/><rect y="107" width="2400" height="2" fill="#e0d5bd"/><rect y="115" width="2400" height="2" fill="#e0d5bd"/><rect y="123" width="2400" height="2" fill="#e0d5bd"/><rect y="131" width="2400" height="2" fill="#e0d5bd"/><rect y="139" width="2400" height="2" fill="#e0d5bd"/><rect y="147" width="2400" height="2" fill="#e0d5bd"/><rect y="155" width="2400" height="2" fill="#e0d5bd"/><rect y="163" width="2400" height="2" fill="#e0d5bd"/><rect y="171" width="2400" height="2" fill="#e0d5bd"/><rect y="179" width="2400" height="2" fill="#e0d5bd"/><rect y="187" width="2400" height="2" fill="#e0d5bd"/><rect y="195" width="2400" height="2" fill="#e0d5bd"/><rect y="203" width="2400" height="2" fill="#e0d5bd"/><rect y="211" width="2400" height="2" fill="#e0d5bd"/><rect y="219" width="2400" height="2" fill="#e0d5bd"/><rect y="227" width="2400" height="2" fill="#e0d5bd"/><rect y="235" width="2400" height="2" fill="#e0d5bd"/><rect y="243" width="2400" height="2" fill="#e0d5bd"/><rect y="251" width="2400" height="2" fill="#e0d5bd"/><rect y="259" width="2400" height="2" fill="#e0d5bd"/><rect y="267" width="2400" height="2" fill="#e0d5bd"/><rect y="275" width="2400" height="2" fill="#e0d5bd"/><rect y="283" width="2400" height="2" fill="#e0d5bd"/><rect y="291" width="2400" height="2" fill="#e0d5bd"/><rect y="299" width="2400" height="2" fill="#e0d5bd"/><rect y="307" width="2400" height="2" fill="#e0d5bd"/><rect y="315" width="2400" height="2" fill="#e0d5bd"/><rect y="323" width="2400" height="2" fill="#e0d5bd"/><rect y="331" width="2400" height="2" fill="#e0d5bd"/><rect y="339" width="2400" height="2" fill="#e0d5bd"/><rect y="347" width="2400" height="2" fill="#e0d5bd"/><rect y="355" width="2400" height="2" fill="#e0d5bd"/><rect y="363" width="2400" height="2" fill="#e0d5bd"/><rect y="371" width="2400" height="2" fill="#e0d5bd"/><rect y="379" width="2400" height="2" fill="#e0d5bd"/><rect y="387" width="2400" height="2" fill="#e0d5bd"/><rect y="395" width="2400" height="2" fill="#e0d5bd"/><rect y="403" width="2400" height="2" fill="#e0d5bd"/><rect y="411" width="2400" height="2" fill="#e0d5bd"/><rect y="419" width="2400" height="2" fill="#e0d5bd"/><rect y="427" width="2400" height="2" fill="#e0d5bd"/><rect y="435" width="2400" height="2" fill="#e0d5bd"/><rect y="443" width="2400" height="2" fill="#e0d5bd"/><rect y="451" width="2400" height="2" fill="#e0d5bd"/><rect y="459" width="2400" height="2" fill="#e0d5bd"/><rect y="467" width="2400" height="2" fill="#e0d5bd"/><rect y="475" width="2400" height="2" fill="#e0d5bd"/><rect y="483" width="2400" height="2" fill="#e0d5bd"/><rect y="491" width="2400" height="2" fill="#e0d5bd"/><rect y="499" width="2400" height="2" fill="#e0d5bd"/><rect y="507" width="2400" height="2" fill="#e0d5bd"/><rect y="515" width="2400" height="2" fill="#e0d5bd"/><rect y="523" width="2400" height="2" fill="#e0d5bd"/><rect y="531" width="2400" height="2" fill="#e0d5bd"/><rect y="539" width="2400" height="2" fill="#e0d5bd"/><rect y="547" width="2400" height="2" fill="#e0d5bd"/><rect y="555" width="2400" height="2" fill="#e0d5bd"/><rect y="563" width="2400" height="2" fill="#e0d5bd"/><rect y="571" width="2400" height="2" fill="#e0d5bd"/><rect y="579" width="2400" height="2" fill="#e0d5bd"/><rect y="587" width="2400" height="2" fill="#e0d5bd"/><rect y="595" width="2400" height="2" fill="#e0d5bd"/><rect y="603" width="2400" height="2" fill="#e0d5bd"/><rect y="611" width="2400" height="2" fill="#e0d5bd"/><rect y="619" width="2400" height="2" fill="#e0d5bd"/><rect y="627" width="2400" height="2" fill="#e0d5bd"/><rect y="635" width="2400" height="2" fill="#e0d5bd"/><rect y="643" width="2400" height="2" fill="#e0d5bd"/><rect y="651" width="2400" height="2" fill="#e0d5bd"/><rect y="659" width="2400" height="2" fill="#e0d5bd"/><rect y="667" width="2400" height="2" fill="#e0d5bd"/><rect y="675" width="2400" height="2" fill="#e0d5bd"/><rect y="683" width="2400" height="2" fill="#e0d5bd"/><rect y="691" width="2400" height="2" fill="#e0d5bd"/><rect y="699" width="2400" height="2" fill="#e0d5bd"/><rect y="707" width="2400" height="2" fill="#e0d5bd"/><rect y="715" width="2400" height="2" fill="#e0d5bd"/><rect y="723" width="2400" height="2" fill="#e0d5bd"/><rect y="731" width="2400" height="2" fill="#e0d5bd"/><rect y="739" width="2400" height="2" fill="#e0d5bd"/><rect y="747" width="2400" height="2" fill="#e0d5bd"/><rect y="755" width="2400" height="2" fill="#e0d5bd"/><rect y="763" width="2400" height="2" fill="#e0d5bd"/><rect y="771" width="2400" height="2" fill="#e0d5bd"/><rect y="779" width="2400" height="2" fill="#e0d5bd"/><rect y="787" width="2400" height="2" fill="#e0d5bd"/><rect y="795" width="2400" height="2" fill="#e0d5bd"/><rect y="803" width="2400" height="2" fill="#e0d5bd"/><rect y="811" width="2400" height="2" fill="#e0d5bd"/><rect y="819" width="2400" height="2" fill="#e0d5bd"/><rect y="827" width="2400" height="2" fill="#e0d5bd"/><rect y="835" width="2400" height="2" fill="#e0d5bd"/><rect y="843" width="2400" height="2" fill="#e0d5bd"/><rect y="851" width="2400" height="2" fill="#e0d5bd"/><rect y="859" width="2400" height="2" fill="#e0d5bd"/><rect y="867" width="2400" height="2" fill="#e0d5bd"/><rect y="875" width="2400" height="2" fill="#e0d5bd"/><rect y="883" width="2400" height="2" fill="#e0d5bd"/><rect y="891" width="2400" height="2" fill="#e0d5bd"/><rect y="899" width="2400" height="2" fill="#e0d5bd"/><rect y="907" width="2400" height="2" fill="#e0d5bd"/><rect y="915" width="2400" height="2" fill="#e0d5bd"/><rect y="923" width="2400" height="2" fill="#e0d5bd"/><rect y="931" width="2400" height="2" fill="#e0d5bd"/><rect y="939" width="2400" height="2" fill="#e0d5bd"/><rect y="947" width="2400" height="2" fill="#e0d5bd"/><rect y="955" width="2400" height="2" fill="#e0d5bd"/><rect y="963" width="2400" height="2" fill="#e0d5bd"/><rect y="971" width="2400" height="2" fill="#e0d5bd"/><rect y="979" width="2400" height="2" fill="#e0d5bd"/><rect y="987" width="2400" height="2" fill="#e0d5bd"/><rect y="995" width="2400" height="2" fill="#e0d5bd"/><rect y="1003" width="2400" height="2" fill="#e0d5bd"/><rect y="1011" width="2400" height="2" fill="#e0d5bd"/><rect y="1019" width="2400" height="2" fill="#e0d5bd"/><rect y="1027" width="2400" height="2" fill="#e0d5bd"/><rect y="1035" width="2400" height="2" fill="#e0d5bd"/><rect y="1043" width="2400" height="2" fill="#e0d5bd"/><rect y="1051" width="2400" height="2" fill="#e0d5bd"/><rect y="1059" width="2400" height="2" fill="#e0d5bd"/><rect y="1067" width="2400" height="2" fill="#e0d5bd"/><rect y="1075" width="2400" height="2" fill="#e0d5bd"/><rect y="1083" width="2400" height="2" fill="#e0d5bd"/><rect y="1091" width="2400" height="2" fill="#e0d5bd"/><rect y="1099" width="2400" height="2" fill="#e0d5bd"/><rect y="1107" width="2400" height="2" fill="#e0d5bd"/><rect y="1115" width="2400" height="2" fill="#e0d5bd"/><rect y="1123" width="2400" height="2" fill="#e0d5bd"/><rect y="1131" width="2400" height="2" fill="#e0d5bd"/><rect y="1139" width="2400" height="2" fill="#e0d5bd"/><rect y="1147" width="2400" height="2" fill="#e0d5bd"/><rect y="1155" width="2400" height="2" fill="#e0d5bd"/><rect y="1163" width="2400" height="2" fill="#e0d5bd"/><rect y="1171" width="2400" height="2" fill="#e0d5bd"/><rect y="1179" width="2400" height="2" fill="#e0d5bd"/><rect y="1187" width="2400" height="2" fill="#e0d5bd"/><rect y="1195" width="2400" height="2" fill="#e0d5bd"/><rect y="1203" width="2400" height="2" fill="#e0d5bd"/><rect y="1211" width="2400" height="2" fill="#e0d5bd"/><rect y="1219" width="2400" height="2" fill="#e0d5bd"/><rect y="1227" width="2400" height="2" fill="#e0d5bd"/><rect y="1235" width="2400" height="2" fill="#e0d5bd"/><rect y="1243" width="2400" height="2" fill="#e0d5bd"/><rect y="1251" width="2400" height="2" fill="#e0d5bd"/><rect y="1259" width="2400" height="2" fill="#e0d5bd"/><rect y="1267" width="2400" height="2" fill="#e0d5bd"/><rect y="1275" width="2400" height="2" fill="#e0d5bd"/><rect y="1283" width="2400" height="2" fill="#e0d5bd"/><rect y="1291" width="2400" height="2" fill="#e0d5bd"/><rect y="1299" width="2400" height="2" fill="#e0d5bd"/><rect y="1307" width="2400" height="2" fill="#e0d5bd"/><rect y="1315" width="2400" height="2" fill="#e0d5bd"/><rect y="1323" width="2400" height="2" fill="#e0d5bd"/><rect y="1331" width="2400" height="2" fill="#e0d5bd"/><rect y="1339" width="2400" height="2" fill="#e0d5bd"/><rect y="1347" width="2400" height="2" fill="#e0d5bd"/><rect y="1355" width="2400" height="2" fill="#e0d5bd"/><rect y="1363" width="2400" height="2" fill="#e0d5bd"/><rect y="1371" width="2400" height="2" fill="#e0d5bd"/><rect y="1379" width="2400" height="2" fill="#e0d5bd"/><rect y="1387" width="2400" height="2" fill="#e0d5bd"/><rect y="1395" width="2400" height="2" fill="#e0d5bd"/><rect y="1403" width="2400" height="2" fill="#e0d5bd"/><rect y="1411" width="2400" height="2" fill="#e0d5bd"/><rect y="1419" width="2400" height="2" fill="#e0d5bd"/><rect y="1427" width="2400" height="2" fill="#e0d5bd"/><rect y="1435" width="2400" height="2" fill="#e0d5bd"/><rect y="1443" width="2400" height="2" fill="#e0d5bd"/><rect y="1451" width="2400" height="2" fill="#e0d5bd"/><rect y="1459" width="2400" height="2" fill="#e0d5bd"/><rect y="1467" width="2400" height="2" fill="#e0d5bd"/><rect y="1475" width="2400" height="2" fill="#e0d5bd"/><rect y="1483" width="2400" height="2" fill="#e0d5bd"/><rect y="1491" width="2400" height="2" fill="#e0d5bd"/><rect y="1499" width="2400" height="2" fill="#e0d5bd"/><rect y="1507" width="2400" height="2" fill="#e0d5bd"/><rect y="1515" width="2400" height="2" fill="#e0d5bd"/><rect y="1523" width="2400" height="2" fill="#e0d5bd"/><rect y="1531" width="2400" height="2" fill="#e0d5bd"/><rect y="1539" width="2400" height="2" fill="#e0d5bd"/><rect y="1547" width="2400" height="2" fill="#e0d5bd"/><rect y="1555" width="2400" height="2" fill="#e0d5bd"/><rect y="1563" width="2400" height="2" fill="#e0d5bd"/><rect y="1571" width="2400" height="2" fill="#e0d5bd"/><rect y="1579" width="2400" height="2" fill="#e0d5bd"/><rect y="1587" width="2400" height="2" fill="#e0d5bd"/><rect y="1595" width="2400" height="2" fill="#e0d5bd"/><rect y="1603" width="2400" height="2" fill="#e0d5bd"/><rect y="1611" width="2400" height="2" fill="#e0d5bd"/><rect y="1619" width="2400" height="2" fill="#e0d5bd"/><rect y="1627" width="2400" height="2" fill="#e0d5bd"/><rect y="1635" width="2400" height="2" fill="#e0d5bd"/><rect y="1643" width="2400" height="2" fill="#e0d5bd"/><rect y="1651" width="2400" height="2" fill="#e0d5bd"/><rect y="1659" width="2400" height="2" fill="#e0d5bd"/><rect y="1667" width="2400" height="2" fill="#e0d5bd"/><rect y="1675" width="2400" height="2" fill="#e0d5bd"/><rect y="1683" width="2400" height="2" fill="#e0d5bd"/><rect y="1691" width="2400" height="2" fill="#e0d5bd"/><rect y="1699" width="2400" height="2" fill="#e0d5bd"/><rect y="1707" width="2400" height="2" fill="#e0d5bd"/><rect y="1715" width="2400" height="2" fill="#e0d5bd"/><rect y="1723" width="2400" height="2" fill="#e0d5bd"/><rect y="1731" width="2400" height="2" fill="#e0d5bd"/><rect y="1739" width="2400" height="2" fill="#e0d5bd"/><rect y="1747" width="2400" height="2" fill="#e0d5bd"/><rect y="1755" width="2400" height="2" fill="#e0d5bd"/><rect y="1763" width="2400" height="2" fill="#e0d5bd"/><rect y="1771" width="2400" height="2" fill="#e0d5bd"/><rect y="1779" width="2400" height="2" fill="#e0d5bd"/><rect y="1787" width="2400" height="2" fill="#e0d5bd"/><rect y="1795" width="2400" height="2" fill="#e0d5bd"/><rect y="1803" width="2400" height="2" fill="#e0d5bd"/><rect y="1811" width="2400" height="2" fill="#e0d5bd"/><rect y="1819" width="2400" height="2" fill="#e0d5bd"/><rect y="1827" width="2400" height="2" fill="#e0d5bd"/><rect y="1835" width="2400" height="2" fill="#e0d5bd"/><rect y="1843" width="2400" height="2" fill="#e0d5bd"/><rect y="1851" width="2400" height="2" fill="#e0d5bd"/><rect y="1859" width="2400" height="2" fill="#e0d5bd"/><rect y="1867" width="2400" height="2" fill="#e0d5bd"/><rect y="1875" width="2400" height="2" fill="#e0d5bd"/><rect y="1883" width="2400" height="2" fill="#e0d5bd"/><rect y="1891" width="2400" height="2" fill="#e0d5bd"/><rect y="1899" width="2400" height="2" fill="#e0d5bd"/><rect y="1907" width="2400" height="2" fill="#e0d5bd"/><rect y="1915" width="2400" height="2" fill="#e0d5bd"/><rect y="1923" width="2400" height="2" fill="#e0d5bd"/><rect y="1931" width="2400" height="2" fill="#e0d5bd"/><rect y="1939" width="2400" height="2" fill="#e0d5bd"/><rect y="1947" width="2400" height="2" fill="#e0d5bd"/><rect y="1955" width="2400" height="2" fill="#e0d5bd"/><rect y="1963" width="2400" height="2" fill="#e0d5bd"/><rect y="1971" width="2400" height="2" fill="#e0d5bd"/><rect y="1979" width="2400" height="2" fill="#e0d5bd"/><rect y="1987" width="2400" height="2" fill="#e0d5bd"/><rect y="1995" width="2400" height="2" fill="#e0d5bd"/><rect y="2003" width="2400" height="2" fill="#e0d5bd"/><rect y="2011" width="2400" height="2" fill="#e0d5bd"/><rect y="2019" width="2400" height="2" fill="#e0d5bd"/><rect y="2027" width="2400" height="2" fill="#e0d5bd"/><rect y="2035" width="2400" height="2" fill="#e0d5bd"/><rect y="2043" width="2400" height="2" fill="#e0d5bd"/><rect y="2051" width="2400" height="2" fill="#e0d5bd"/><rect y="2059" width="2400" height="2" fill="#e0d5bd"/><rect y="2067" width="2400" height="2" fill="#e0d5bd"/><rect y="2075" width="2400" height="2" fill="#e0d5bd"/><rect y="2083" width="2400" height="2" fill="#e0d5bd"/><rect y="2091" width="2400" height="2" fill="#e0d5bd"/><rect y="2099" width="2400" height="2" fill="#e0d5bd"/><rect y="2107" width="2400" height="2" fill="#e0d5bd"/><rect y="2115" width="2400" height="2" fill="#e0d5bd"/><rect y="2123" width="2400" height="2" fill="#e0d5bd"/><rect y="2131" width="2400" height="2" fill="#e0d5bd"/><rect y="2139" width="2400" height="2" fill="#e0d5bd"/><rect y="2147" width="2400" height="2" fill="#e0d5bd"/><rect y="2155" width="2400" height="2" fill="#e0d5bd"/><rect y="2163" width="2400" height="2" fill="#e0d5bd"/><rect y="2171" width="2400" height="2" fill="#e0d5bd"/><rect y="2179" width="2400" height="2" fill="#e0d5bd"/><rect y="2187" width="2400" height="2" fill="#e0d5bd"/><rect y="2195" width="2400" height="2" fill="#e0d5bd"/><rect y="2203" width="2400" height="2" fill="#e0d5bd"/><rect y="2211" width="2400" height="2" fill="#e0d5bd"/><rect y="2219" width="2400" height="2" fill="#e0d5bd"/><rect y="2227" width="2400" height="2" fill="#e0d5bd"/><rect y="2235" width="2400" height="2" fill="#e0d5bd"/><rect y="2243" width="2400" height="2" fill="#e0d5bd"/><rect y="2251" width="2400" height="2" fill="#e0d5bd"/><rect y="2259" width="2400" height="2" fill="#e0d5bd"/><rect y="2267" width="2400" height="2" fill="#e0d5bd"/><rect y="2275" width="2400" height="2" fill="#e0d5bd"/><rect y="2283" width="2400" height="2" fill="#e0d5bd"/><rect y="2291" width="2400" height="2" fill="#e0d5bd"/><rect y="2299" width="2400" height="2" fill="#e0d5bd"/><rect y="2307" width="2400" height="2" fill="#e0d5bd"/><rect y="2315" width="2400" height="2" fill="#e0d5bd"/><rect y="2323" width="2400" height="2" fill="#e0d5bd"/><rect y="2331" width="2400" height="2" fill="#e0d5bd"/><rect y="2339" width="2400" height="2" fill="#e0d5bd"/><rect y="2347" width="2400" height="2" fill="#e0d5bd"/><rect y="2355" width="2400" height="2" fill="#e0d5bd"/><rect y="2363" width="2400" height="2" fill="#e0d5bd"/><rect y="2371" width="2400" height="2" fill="#e0d5bd"/><rect y="2379" width="2400" height="2" fill="#e0d5bd"/><rect y="2387" width="2400" height="2" fill="#e0d5bd"/><rect y="2395" width="2400" height="2" fill="#e0d5bd"/><rect y="2403" width="2400" height="2" fill="#e0d5bd"/><rect y="2411" width="2400" height="2" fill="#e0d5bd"/><rect y="2419" width="2400" height="2" fill="#e0d5bd"/><rect y="2427" width="2400" height="2" fill="#e0d5bd"/><rect y="2435" width="2400" height="2" fill="#e0d5bd"/><rect y="2443" width="2400" height="2" fill="#e0d5bd"/><rect y="2451" width="2400" height="2" fill="#e0d5bd"/><rect y="2459" width="2400" height="2" fill="#e0d5bd"/><rect y="2467" width="2400" height="2" fill="#e0d5bd"/><rect y="2475" width="2400" height="2" fill="#e0d5bd"/><rect y="2483" width="2400" height="2" fill="#e0d5bd"/><rect y="2491" width="2400" height="2" fill="#e0d5bd"/><rect y="2499" width="2400" height="2" fill="#e0d5bd"/><rect y="2507" width="2400" height="2" fill="#e0d5bd"/><rect y="2515" width="2400" height="2" fill="#e0d5bd"/><rect y="2523" width="2400" height="2" fill="#e0d5bd"/><rect y="2531" width="2400" height="2" fill="#e0d5bd"/><rect y="2539" width="2400" height="2" fill="#e0d5bd"/><rect y="2547" width="2400" height="2" fill="#e0d5bd"/><rect y="2555" width="2400" height="2" fill="#e0d5bd"/><rect y="2563" width="2400" height="2" fill="#e0d5bd"/><rect y="2571" width="2400" height="2" fill="#e0d5bd"/><rect y="2579" width="2400" height="2" fill="#e0d5bd"/><rect y="2587" width="2400" height="2" fill="#e0d5bd"/><rect y="2595" width="2400" height="2" fill="#e0d5bd"/><rect y="2603" width="2400" height="2" fill="#e0d5bd"/><rect y="2611" width="2400" height="2" fill="#e0d5bd"/><rect y="2619" width="2400" height="2" fill="#e0d5bd"/><rect y="2627" width="2400" height="2" fill="#e0d5bd"/><rect y="2635" width="2400" height="2" fill="#e0d5bd"/><rect y="2643" width="2400" height="2" fill="#e0d5bd"/><rect y="2651" width="2400" height="2" fill="#e0d5bd"/><rect y="2659" width="2400" height="2" fill="#e0d5bd"/><rect y="2667" width="2400" height="2" fill="#e0d5bd"/><rect y="2675" width="2400" height="2" fill="#e0d5bd"/><rect y="2683" width="2400" height="2" fill="#e0d5bd"/><rect y="2691" width="2400" height="2" fill="#e0d5bd"/><rect y="2699" width="2400" height="2" fill="#e0d5bd"/><rect y="2707" width="2400" height="2" fill="#e0d5bd"/><rect y="2715" width="2400" height="2" fill="#e0d5bd"/><rect y="2723" width="2400" height="2" fill="#e0d5bd"/><rect y="2731" width="2400" height="2" fill="#e0d5bd"/><rect y="2739" width="2400" height="2" fill="#e0d5bd"/><rect y="2747" width="2400" height="2" fill="#e0d5bd"/><rect y="2755" width="2400" height="2" fill="#e0d5bd"/><rect y="2763" width="2400" height="2" fill="#e0d5bd"/><rect y="2771" width="2400" height="2" fill="#e0d5bd"/><rect y="2779" width="2400" height="2" fill="#e0d5bd"/><rect y="2787" width="2400" height="2" fill="#e0d5bd"/><rect y="2795" width="2400" height="2" fill="#e0d5bd"/><rect y="2803" width="2400" height="2" fill="#e0d5bd"/><rect y="2811" width="2400" height="2" fill="#e0d5bd"/><rect y="2819" width="2400" height="2" fill="#e0d5bd"/><rect y="2827" width="2400" height="2" fill="#e0d5bd"/><rect y="2835" width="2400" height="2" fill="#e0d5bd"/><rect y="2843" width="2400" height="2" fill="#e0d5bd"/><rect y="2851" width="2400" height="2" fill="#e0d5bd"/><rect y="2859" width="2400" height="2" fill="#e0d5bd"/><rect y="2867" width="2400" height="2" fill="#e0d5bd"/><rect y="2875" width="2400" height="2" fill="#e0d5bd"/><rect y="2883" width="2400" height="2" fill="#e0d5bd"/><rect y="2891" width="2400" height="2" fill="#e0d5bd"/><rect y="2899" width="2400" height="2" fill="#e0d5bd"/><rect y="2907" width="2400" height="2" fill="#e0d5bd"/><rect y="2915" width="2400" height="2" fill="#e0d5bd"/><rect y="2923" width="2400" height="2" fill="#e0d5bd"/><rect y="2931" width="2400" height="2" fill="#e0d5bd"/><rect y="2939" width="2400" height="2" fill="#e0d5bd"/><rect y="2947" width="2400" height="2" fill="#e0d5bd"/><rect y="2955" width="2400" height="2" fill="#e0d5bd"/><rect y="2963" width="2400" height="2" fill="#e0d5bd"/><rect y="2971" width="2400" height="2" fill="#e0d5bd"/><rect y="2979" width="2400" height="2" fill="#e0d5bd"/><rect y="2987" width="2400" height="2" fill="#e0d5bd"/><rect y="2995" width="2400" height="2" fill="#e0d5bd"/></g><rect x="88" y="88" width="2224" height="2824" fill="none" stroke="#3a2c1a" stroke-width="4" opacity="0.2"/><rect x="94" y="94" width="2212" height="2812" fill="none" stroke="#fff6e0" stroke-width="2" opacity="0.25"/><circle cx="1586.5" cy="1377.9" r="6.7" fill="#8a5a2e" opacity="0.045"/><circle cx="892.2" cy="2161.4" r="15.6" fill="#8a5a2e" opacity="0.059"/><circle cx="1462.7" cy="1192.7" r="10" fill="#8a5a2e" opacity="0.110"/><circle cx="2035.9" cy="1472.2" r="10.4" fill="#8a5a2e" opacity="0.130"/><circle cx="2147.6" cy="2423.6" r="6.9" fill="#8a5a2e" opacity="0.100"/><circle cx="1790.1" cy="831.2" r="10.7" fill="#8a5a2e" opacity="0.103"/><circle cx="492.9" cy="2332.6" r="12.9" fill="#8a5a2e" opacity="0.041"/><circle cx="1589.3" cy="1345.9" r="15.2" fill="#8a5a2e" opacity="0.075"/><circle cx="539.3" cy="987.8" r="11.3" fill="#8a5a2e" opacity="0.129"/><circle cx="627.1" cy="576.1" r="8.6" fill="#8a5a2e" opacity="0.083"/><circle cx="1372.4" cy="1064.1" r="7.7" fill="#8a5a2e" opacity="0.128"/><circle cx="2307.9" cy="1459.4" r="9.7" fill="#8a5a2e" opacity="0.094"/><circle cx="2219.2" cy="1456.5" r="6" fill="#8a5a2e" opacity="0.081"/><circle cx="1700.3" cy="2912.8" r="11.1" fill="#8a5a2e" opacity="0.090"/><circle cx="935.2" cy="2263.4" r="12.4" fill="#8a5a2e" opacity="0.046"/><circle cx="115.7" cy="287.9" r="7.2" fill="#8a5a2e" opacity="0.080"/><circle cx="864.2" cy="1394.4" r="3.1" fill="#8a5a2e" opacity="0.076"/><circle cx="289.9" cy="956.7" r="9.9" fill="#8a5a2e" opacity="0.120"/><circle cx="652.5" cy="1282.9" r="8.1" fill="#8a5a2e" opacity="0.075"/><circle cx="1519" cy="969.9" r="13.5" fill="#8a5a2e" opacity="0.103"/><circle cx="1128.1" cy="919.3" r="12.1" fill="#8a5a2e" opacity="0.092"/><circle cx="798.3" cy="996.3" r="6.4" fill="#8a5a2e" opacity="0.056"/><circle cx="509.2" cy="2710.2" r="10.4" fill="#8a5a2e" opacity="0.063"/><circle cx="2308.7" cy="235" r="13.8" fill="#8a5a2e" opacity="0.049"/><circle cx="278" cy="1538.6" r="3.5" fill="#8a5a2e" opacity="0.047"/><circle cx="1306.8" cy="2200.3" r="11.1" fill="#8a5a2e" opacity="0.113"/><circle cx="2093.9" cy="2002.4" r="10.9" fill="#8a5a2e" opacity="0.125"/><circle cx="2158.7" cy="1887.4" r="12.6" fill="#8a5a2e" opacity="0.083"/><circle cx="1841.3" cy="777.8" r="10.4" fill="#8a5a2e" opacity="0.086"/><rect width="2400" height="3000" fill="url(#a144-vig)"/></svg></svg>