<svg xmlns="http://www.w3.org/2000/svg" width="2400" height="1800" viewBox="0 0 2400 1800"><rect width="2400" height="1800" fill="#dfe4dc"/><rect y="1400" width="2400" height="400" fill="#c2a67e"/><line x1="60" y1="1400" x2="10" y2="1800" stroke="#00000015" stroke-width="5"/><line x1="260" y1="1400" x2="210" y2="1800" stroke="#00000015" stroke-width="5"/><line x1="460" y1="1400" x2="410" y2="1800" stroke="#00000015" stroke-width="5"/><line x1="660" y1="1400" x2="610" y2="1800" stroke="#00000015" stroke-width="5"/><line x1="860" y1="1400" x2="810" y2="1800" stroke="#00000015" stroke-width="5"/><line x1="1060" y1="1400" x2="1010" y2="1800" stroke="#00000015" stroke-width="5"/><line x1="1260" y1="1400" x2="1210" y2="1800" stroke="#00000015" stroke-width="5"/><line x1="1460" y1="1400" x2="1410" y2="1800" stroke="#00000015" stroke-width="5"/><line x1="1660" y1="1400" x2="1610" y2="1800" stroke="#00000015" stroke-width="5"/><line x1="1860" y1="1400" x2="1810" y2="1800" stroke="#00000015" stroke-width="5"/><line x1="2060" y1="1400" x2="2010" y2="1800" stroke="#00000015" stroke-width="5"/><line x1="2260" y1="1400" x2="2210" y2="1800" stroke="#00000015" stroke-width="5"/><rect x="180" y="260" width="900" height="620" fill="#8a6a48"/><rect x="215" y="295" width="830" height="550" fill="#41524a"/><line x1="280" y1="420" x2="760" y2="420" stroke="#ffffff66" stroke-width="9" stroke-linecap="round"/><line x1="280" y1="520" x2="620" y2="520" stroke="#ffffff44" stroke-width="9" stroke-linecap="round"/><circle cx="880" cy="560" r="90" fill="none" stroke="#ffffff55" stroke-width="8"/><rect x="215" y="845" width="830" height="22" fill="#6f5436"/><rect x="330" y="1240" width="640" height="60" rx="10" fill="#9c7449"/><rect x="370" y="1300" width="60" height="240" fill="#8a6540"/><rect x="870" y="1300" width="60" height="240" fill="#8a6540"/><rect x="430" y="1160" width="150" height="80" rx="8" fill="#4d84b5"/><rect x="450" y="1120" width="150" height="40" rx="8" fill="#24486e"/><circle cx="800" cy="1130" r="86" fill="#7fa3b8"/><path d="M760,1060 Q820,1100 780,1190 M740,1090 Q800,1120 850,1100" stroke="#5d8069" stroke-width="16" fill="none" stroke-linecap="round"/><circle cx="800" cy="1130" r="86" fill="none" stroke="#6b5233" stroke-width="7"/><line x1="800" y1="1216" x2="800" y2="1250" stroke="#6b5233" stroke-width="10"/><rect x="750" y="1244" width="100" height="14" rx="7" fill="#6b5233"/><rect x="1980" y="700" width="300" height="800" fill="#9c7449"/><rect x="2000" y="930" width="260" height="16" fill="#7c5a37"/><rect x="2020" y="790" width="36" height="140" fill="#b3502f"/><rect x="2066" y="802" width="36" height="128" fill="#39685c"/><rect x="2112" y="790" width="36" height="140" fill="#c9a227"/><rect x="2158" y="802" width="36" height="128" fill="#2c4661"/><rect x="2204" y="790" width="36" height="140" fill="#8a4423"/><rect x="2000" y="1180" width="260" height="16" fill="#7c5a37"/><rect x="2020" y="1040" width="36" height="140" fill="#39685c"/><rect x="2066" y="1052" width="36" height="128" fill="#c9a227"/><rect x="2112" y="1040" width="36" height="140" fill="#2c4661"/><rect x="2158" y="1052" width="36" height="128" fill="#8a4423"/><rect x="2204" y="1040" width="36" height="140" fill="#b3502f"/><rect x="2000" y="1430" width="260" height="16" fill="#7c5a37"/><rect x="2020" y="1290" width="36" height="140" fill="#c9a227"/><rect x="2066" y="1302" width="36" height="128" fill="#2c4661"/><rect x="2112" y="1290" width="36" height="140" fill="#8a4423"/><rect x="2158" y="1302" width="36" height="128" fill="#b3502f"/><rect x="2204" y="1290" width="36" height="140" fill="#39685c"/><defs><filter id="a141c-sh" x="-30%" y="-30%" width="160%" height="160%"><feGaussianBlur stdDeviation="16"/></filter></defs><rect x="1340.5" y="298.5" width="517" height="635" fill="#000" opacity="0.28" filter="url(#a141c-sh)"/><rect x="1326.5" y="276.5" width="517" height="635" fill="#3d342a"/><rect x="1341.8" y="291.8" width="486.4" height="604.5" fill="none" stroke="#00000055" stroke-width="3"/><rect x="1350" y="300" width="470" height="588" fill="#f6f2ea"/><svg x="1385.3" y="335.3" width="399.5" height="517.5" viewBox="0 0 2400 3000" preserveAspectRatio="xMidYMid slice"><rect width="2400" height="3000" fill="#16324f"/><radialGradient id="a141-vig" cx="50%" cy="42%" r="80%"><stop offset="55%" stop-color="#000" stop-opacity="0"/><stop offset="100%" stop-color="#000" stop-opacity="0.15"/></radialGradient><rect width="2400" height="3000" fill="url(#a141-vig)"/><circle cx="1271.9" cy="671.9" r="2.5" fill="#d8b45a" opacity="0.064"/><circle cx="2290" cy="923.7" r="4.2" fill="#d8b45a" opacity="0.038"/><circle cx="1969.1" cy="531.7" r="1.6" fill="#d8b45a" opacity="0.072"/><circle cx="2031.5" cy="1291.4" r="3.3" fill="#d8b45a" opacity="0.068"/><circle cx="840.8" cy="2661.3" r="3.2" fill="#d8b45a" opacity="0.079"/><circle cx="1561.7" cy="85.7" r="3.9" fill="#d8b45a" opacity="0.056"/><circle cx="1122.3" cy="1019.4" r="1.6" fill="#d8b45a" opacity="0.051"/><circle cx="310.3" cy="1880.6" r="2.1" fill="#d8b45a" opacity="0.068"/><circle cx="1162.1" cy="736.9" r="2.4" fill="#d8b45a" opacity="0.036"/><circle cx="788.5" cy="175.4" r="2.4" fill="#d8b45a" opacity="0.062"/><circle cx="1225.7" cy="1776.6" r="1.8" fill="#d8b45a" opacity="0.032"/><circle cx="1811.4" cy="524.8" r="2.9" fill="#d8b45a" opacity="0.045"/><circle cx="2239.3" cy="2087.8" r="2.5" fill="#d8b45a" opacity="0.052"/><circle cx="1676.4" cy="2236.9" r="2.8" fill="#d8b45a" opacity="0.043"/><circle cx="889.9" cy="582.8" r="2.5" fill="#d8b45a" opacity="0.064"/><circle cx="1606" cy="2548.2" r="2.3" fill="#d8b45a" opacity="0.056"/><circle cx="1262" cy="1829" r="3.9" fill="#d8b45a" opacity="0.077"/><circle cx="1691.5" cy="2183.8" r="1.5" fill="#d8b45a" opacity="0.076"/><circle cx="1614.3" cy="2476" r="1.8" fill="#d8b45a" opacity="0.069"/><circle cx="1763.5" cy="611.9" r="2.2" fill="#d8b45a" opacity="0.061"/><circle cx="1131.5" cy="2252" r="2" fill="#d8b45a" opacity="0.063"/><circle cx="1739.1" cy="2670.6" r="2.9" fill="#d8b45a" opacity="0.030"/><circle cx="1783.6" cy="118" r="4.3" fill="#d8b45a" opacity="0.050"/><circle cx="1272.3" cy="1456.9" r="4.3" fill="#d8b45a" opacity="0.073"/><circle cx="1623.2" cy="2468.2" r="3.8" fill="#d8b45a" opacity="0.031"/><circle cx="1233.4" cy="1608.3" r="2.2" fill="#d8b45a" opacity="0.042"/><circle cx="2091" cy="1536.3" r="2.6" fill="#d8b45a" opacity="0.065"/><circle cx="1354.1" cy="269.3" r="4.5" fill="#d8b45a" opacity="0.063"/><circle cx="2309.5" cy="1332" r="3.3" fill="#d8b45a" opacity="0.065"/><circle cx="629.3" cy="1632.2" r="2.3" fill="#d8b45a" opacity="0.044"/><circle cx="1967.5" cy="1853.7" r="4.3" fill="#d8b45a" opacity="0.039"/><circle cx="1807.1" cy="1058.8" r="4.3" fill="#d8b45a" opacity="0.037"/><circle cx="459.2" cy="1287.7" r="2.8" fill="#d8b45a" opacity="0.073"/><circle cx="2178.9" cy="452.8" r="2.8" fill="#d8b45a" opacity="0.040"/><circle cx="1536.4" cy="109.6" r="2.2" fill="#d8b45a" opacity="0.065"/><circle cx="1685.7" cy="1266.6" r="1.7" fill="#d8b45a" opacity="0.039"/><circle cx="959.2" cy="2085.1" r="3.4" fill="#d8b45a" opacity="0.073"/><circle cx="132" cy="2571.7" r="1.9" fill="#d8b45a" opacity="0.064"/><circle cx="803.2" cy="518.8" r="1.9" fill="#d8b45a" opacity="0.046"/><circle cx="483.8" cy="1233" r="2.7" fill="#d8b45a" opacity="0.048"/><circle cx="1689.7" cy="745.4" r="2.1" fill="#d8b45a" opacity="0.077"/><circle cx="2215.7" cy="2581.6" r="2.5" fill="#d8b45a" opacity="0.058"/><circle cx="1113" cy="1003.3" r="2.7" fill="#d8b45a" opacity="0.052"/><circle cx="2222.5" cy="2527.1" r="1.7" fill="#d8b45a" opacity="0.037"/><circle cx="2094.8" cy="427.5" r="3.8" fill="#d8b45a" opacity="0.061"/><circle cx="1833" cy="2633.7" r="3.9" fill="#d8b45a" opacity="0.054"/><circle cx="1349.1" cy="73.4" r="3.8" fill="#d8b45a" opacity="0.047"/><circle cx="2229" cy="1996.8" r="1.6" fill="#d8b45a" opacity="0.067"/><circle cx="666.1" cy="2812.5" r="1.9" fill="#d8b45a" opacity="0.042"/><circle cx="599.6" cy="1296.7" r="4" fill="#d8b45a" opacity="0.064"/><circle cx="447.2" cy="403.1" r="1.7" fill="#d8b45a" opacity="0.052"/><circle cx="40.6" cy="432.2" r="1.8" fill="#d8b45a" opacity="0.067"/><circle cx="1094.5" cy="508.4" r="4" fill="#d8b45a" opacity="0.056"/><circle cx="1711.6" cy="2937.3" r="2" fill="#d8b45a" opacity="0.039"/><circle cx="2193.8" cy="463.7" r="3.3" fill="#d8b45a" opacity="0.060"/><circle cx="1989.7" cy="1331.9" r="4.1" fill="#d8b45a" opacity="0.031"/><circle cx="2030.9" cy="2355.1" r="2" fill="#d8b45a" opacity="0.060"/><circle cx="1608.9" cy="1338.4" r="3.8" fill="#d8b45a" opacity="0.039"/><circle cx="1043.8" cy="1819.8" r="3.4" fill="#d8b45a" opacity="0.039"/><circle cx="391.4" cy="1884.9" r="2.1" fill="#d8b45a" opacity="0.040"/><circle cx="1909.6" cy="1090.6" r="3.3" fill="#d8b45a" opacity="0.037"/><circle cx="1783.3" cy="2863" r="4.4" fill="#d8b45a" opacity="0.047"/><circle cx="2057.8" cy="1426" r="1.5" fill="#d8b45a" opacity="0.046"/><circle cx="1635.1" cy="2113.4" r="4.2" fill="#d8b45a" opacity="0.047"/><circle cx="1869.8" cy="2281.5" r="4.5" fill="#d8b45a" opacity="0.076"/><circle cx="1593.6" cy="466.6" r="4" fill="#d8b45a" opacity="0.059"/><circle cx="1406.4" cy="1745.5" r="4.4" fill="#d8b45a" opacity="0.058"/><circle cx="671" cy="224.2" r="3.8" fill="#d8b45a" opacity="0.038"/><circle cx="185" cy="206.1" r="2" fill="#d8b45a" opacity="0.033"/><circle cx="191.5" cy="897.5" r="3.2" fill="#d8b45a" opacity="0.042"/><circle cx="1317.6" cy="2673.2" r="2.3" fill="#d8b45a" opacity="0.045"/><circle cx="502.2" cy="92.1" r="3.6" fill="#d8b45a" opacity="0.056"/><circle cx="201.5" cy="739.2" r="2.3" fill="#d8b45a" opacity="0.044"/><circle cx="332.9" cy="2075.6" r="3.8" fill="#d8b45a" opacity="0.035"/><circle cx="1382" cy="2693.8" r="1.8" fill="#d8b45a" opacity="0.079"/><circle cx="609.5" cy="863.5" r="2" fill="#d8b45a" opacity="0.057"/><circle cx="1508" cy="2552.3" r="4.4" fill="#d8b45a" opacity="0.063"/><circle cx="1658.6" cy="289.5" r="4.2" fill="#d8b45a" opacity="0.048"/><circle cx="1478.8" cy="154.7" r="4.2" fill="#d8b45a" opacity="0.054"/><circle cx="851.8" cy="1340.7" r="1.7" fill="#d8b45a" opacity="0.063"/><circle cx="1017.3" cy="869.3" r="359.8" fill="#4d84b5" opacity="0.95"/><line x1="200" y1="2430" x2="2200" y2="2430" stroke="#d8b45a" stroke-width="16"/><rect x="930" y="2340" width="540" height="90" fill="#d8b45a"/><rect x="1005.6" y="2260" width="388.8" height="80" fill="#d8b45a"/><path d="M1065,2260 L1116.3,894.3 L1283.7,894.3 L1335,2260 Z" fill="#d8b45a"/><polygon points="1200,744.3 1116.3,896.3 1283.7,896.3" fill="#4d84b5"/><polygon points="1200,981.3 1177,1027.3 1223,1027.3" fill="#16324f" opacity="0.9"/><circle cx="1200" cy="1114.3" r="18.400000000000002" fill="none" stroke="#16324f" stroke-width="10" opacity="0.9"/><line x1="1200" y1="1132.7" x2="1200" y2="1160.3" stroke="#16324f" stroke-width="10" opacity="0.9"/><polygon points="1200,1201.3 1177,1247.3 1223,1247.3" fill="#16324f" opacity="0.9"/><circle cx="1200" cy="1334.3" r="19.32" fill="#16324f" opacity="0.9"/><polygon points="1200,1421.3 1177,1467.3 1223,1467.3" fill="#16324f" opacity="0.9"/><circle cx="1200" cy="1554.3" r="19.32" fill="#16324f" opacity="0.9"/><circle cx="1200" cy="1664.3" r="19.32" fill="#16324f" opacity="0.9"/><circle cx="1200" cy="1774.3" r="18.400000000000002" fill="none" stroke="#16324f" stroke-width="10" opacity="0.9"/><line x1="1200" y1="1792.7" x2="1200" y2="1820.3" stroke="#16324f" stroke-width="10" opacity="0.9"/><rect x="1177" y="1876.3" width="46" height="16" fill="#16324f" opacity="0.9"/><polygon points="1200,1971.3 1177,2017.3 1223,2017.3" fill="#16324f" opacity="0.9"/><rect x="1177" y="2096.3" width="46" height="16" fill="#16324f" opacity="0.9"/><rect x="200" y="2770" width="2000" height="13.3" fill="#d8b45a"/><rect x="200" y="2782.8" width="2000" height="13.3" fill="#4d84b5"/><rect x="200" y="2795.6" width="2000" height="13.3" fill="#d8b45a"/><rect x="200" y="2808.4" width="2000" height="13.3" fill="#24486e"/><rect x="200" y="2821.2" width="2000" height="13.3" fill="#d8b45a"/><rect x="100" y="100" width="2200" height="2800" fill="none" stroke="#d8b45a" stroke-width="9"/><rect x="142" y="142" width="2116" height="2716" fill="none" stroke="#d8b45a" stroke-width="3" opacity="0.65"/></svg></svg>