<svg xmlns="http://www.w3.org/2000/svg" width="2400" height="1800" viewBox="0 0 2400 1800"><rect width="2400" height="1800" fill="#e9e1d2"/><rect y="1430" width="2400" height="370" fill="#c8b190"/><line x1="120" y1="1430" x2="60" y2="1800" stroke="#00000018" stroke-width="6"/><line x1="380" y1="1430" x2="320" y2="1800" stroke="#00000018" stroke-width="6"/><line x1="640" y1="1430" x2="580" y2="1800" stroke="#00000018" stroke-width="6"/><line x1="900" y1="1430" x2="840" y2="1800" stroke="#00000018" stroke-width="6"/><line x1="1160" y1="1430" x2="1100" y2="1800" stroke="#00000018" stroke-width="6"/><line x1="1420" y1="1430" x2="1360" y2="1800" stroke="#00000018" stroke-width="6"/><line x1="1680" y1="1430" x2="1620" y2="1800" stroke="#00000018" stroke-width="6"/><line x1="1940" y1="1430" x2="1880" y2="1800" stroke="#00000018" stroke-width="6"/><line x1="2200" y1="1430" x2="2140" y2="1800" stroke="#00000018" stroke-width="6"/><rect y="1418" width="2400" height="16" fill="#d7cbb6"/><rect x="700" y="980" width="1000" height="460" rx="26" fill="#a87e57"/><rect x="660" y="1290" width="1080" height="210" rx="30" fill="#f1ebdf"/><rect x="660" y="1420" width="1080" height="120" rx="24" fill="#a8792c" opacity="0.85"/><rect x="770" y="1180" width="300" height="150" rx="40" fill="#faf6ec"/><rect x="1330" y="1180" width="300" height="150" rx="40" fill="#b09a6c"/><rect x="640" y="1530" width="1120" height="26" rx="12" fill="#a87e57"/><rect x="360" y="1260" width="240" height="220" rx="10" fill="#a87e57"/><rect x="380" y="1300" width="200" height="14" fill="#00000022"/><line x1="480" y1="1260" x2="480" y2="1130" stroke="#5a4632" stroke-width="12"/><path d="M410,1130 L550,1130 L520,1020 L440,1020 Z" fill="#a8792c"/><path d="M2060,1520 Q 1910,1282.5 1835,1345" fill="none" stroke="#5d7052" stroke-width="20" stroke-linecap="round"/><path d="M2060,1520 Q 1960,1282.5 1910,1295" fill="none" stroke="#5d7052" stroke-width="20" stroke-linecap="round"/><path d="M2060,1520 Q 2010,1282.5 1985,1245" fill="none" stroke="#5d7052" stroke-width="20" stroke-linecap="round"/><path d="M2060,1520 Q 2060,1282.5 2060,1195" fill="none" stroke="#5d7052" stroke-width="20" stroke-linecap="round"/><path d="M2060,1520 Q 2110,1282.5 2135,1245" fill="none" stroke="#5d7052" stroke-width="20" stroke-linecap="round"/><path d="M2060,1520 Q 2160,1282.5 2210,1295" fill="none" stroke="#5d7052" stroke-width="20" stroke-linecap="round"/><path d="M2060,1520 Q 2210,1282.5 2285,1345" fill="none" stroke="#5d7052" stroke-width="20" stroke-linecap="round"/><path d="M1972.5,1520 L2147.5,1520 L2125,1657.5 L1995,1657.5 Z" fill="#a9714d"/><defs><filter id="a132b-sh" x="-30%" y="-30%" width="160%" height="160%"><feGaussianBlur stdDeviation="16"/></filter></defs><rect x="928" y="246" width="572" height="702" fill="#000" opacity="0.28" filter="url(#a132b-sh)"/><rect x="914" y="224" width="572" height="702" fill="#4a3d2f"/><rect x="930.9" y="240.9" width="538.2" height="668.2" fill="none" stroke="#00000055" stroke-width="3"/><rect x="940" y="250" width="520" height="650" fill="#f6f2ea"/><svg x="979" y="289" width="442" height="572" viewBox="0 0 2400 3000" preserveAspectRatio="xMidYMid slice"><filter id="a132-warp" x="-4%" y="-4%" width="108%" height="108%"><feTurbulence type="fractalNoise" baseFrequency="0.0105" numOctaves="2" seed="4918" result="w"/><feDisplacementMap in="SourceGraphic" in2="w" scale="11" xChannelSelector="R" yChannelSelector="G"/></filter><filter id="a132-grain" x="0%" y="0%" width="100%" height="100%"><feTurbulence type="fractalNoise" baseFrequency="0.6" numOctaves="2" seed="4925"/><feColorMatrix type="matrix" values="0.33 0.33 0.33 0 0.62  0.33 0.33 0.33 0 0.62  0.33 0.33 0.33 0 0.62  0 0 0 0 1"/></filter><filter id="a132-mottle" x="0%" y="0%" width="100%" height="100%"><feTurbulence type="fractalNoise" baseFrequency="0.0045" numOctaves="3" seed="4931"/><feColorMatrix type="matrix" values="0.2 0.2 0.2 0 0.78  0.2 0.2 0.2 0 0.78  0.2 0.2 0.2 0 0.78  0 0 0 0 1"/></filter><filter id="a132-fade" x="0%" y="0%" width="100%" height="100%"><feTurbulence type="fractalNoise" baseFrequency="0.006" numOctaves="2" seed="4947"/><feColorMatrix type="matrix" values="0.3 0.3 0.3 0 -0.08  0.3 0.3 0.3 0 -0.08  0.3 0.3 0.3 0 -0.1  0 0 0 0 1"/></filter><filter id="a132-blur9"><feGaussianBlur stdDeviation="9"/></filter><radialGradient id="a132-vig" cx="50%" cy="44%" r="78%"><stop offset="52%" stop-color="#241a10" stop-opacity="0"/><stop offset="100%" stop-color="#241a10" stop-opacity="0.17"/></radialGradient><radialGradient id="a132-warm" cx="68%" cy="30%" r="85%"><stop offset="0%" stop-color="#e8c890" stop-opacity="0.14"/><stop offset="70%" stop-color="#e8c890" stop-opacity="0"/></radialGradient><rect width="2400" height="3000" fill="#d3ba8c"/><rect width="2400" height="3000" fill="url(#a132-warm)"/><rect x="0" width="37.8" height="3000" fill="#6b4e26" opacity="0.063"/><rect x="52.5" width="34" height="3000" fill="#6b4e26" opacity="0.060"/><rect x="99.8" width="39" height="3000" fill="#6b4e26" opacity="0.075"/><rect x="154" width="19.7" height="3000" fill="#6b4e26" opacity="0.089"/><rect x="181.4" width="23.8" height="3000" fill="#6b4e26" opacity="0.066"/><rect x="214.5" width="42.6" height="3000" fill="#6b4e26" opacity="0.060"/><rect x="273.6" width="22.5" height="3000" fill="#6b4e26" opacity="0.083"/><rect x="304.8" width="22.5" height="3000" fill="#6b4e26" opacity="0.039"/><rect x="336.1" width="22.3" height="3000" fill="#6b4e26" opacity="0.059"/><rect x="367" width="25.4" height="3000" fill="#6b4e26" opacity="0.089"/><rect x="402.3" width="23.9" height="3000" fill="#6b4e26" opacity="0.053"/><rect x="435.5" width="42" height="3000" fill="#6b4e26" opacity="0.053"/><rect x="493.9" width="19.9" height="3000" fill="#6b4e26" opacity="0.099"/><rect x="521.4" width="42.2" height="3000" fill="#6b4e26" opacity="0.063"/><rect x="580" width="21" height="3000" fill="#6b4e26" opacity="0.037"/><rect x="609.2" width="28.7" height="3000" fill="#6b4e26" opacity="0.093"/><rect x="649" width="42.8" height="3000" fill="#6b4e26" opacity="0.031"/><rect x="708.5" width="34.4" height="3000" fill="#6b4e26" opacity="0.082"/><rect x="756.2" width="22.2" height="3000" fill="#6b4e26" opacity="0.075"/><rect x="787.1" width="27.8" height="3000" fill="#6b4e26" opacity="0.037"/><rect x="825.7" width="23.7" height="3000" fill="#6b4e26" opacity="0.076"/><rect x="858.6" width="28.7" height="3000" fill="#6b4e26" opacity="0.085"/><rect x="898.5" width="20.4" height="3000" fill="#6b4e26" opacity="0.094"/><rect x="926.8" width="25" height="3000" fill="#6b4e26" opacity="0.034"/><rect x="961.5" width="32.1" height="3000" fill="#6b4e26" opacity="0.051"/><rect x="1006" width="33.3" height="3000" fill="#6b4e26" opacity="0.061"/><rect x="1052.3" width="38.3" height="3000" fill="#6b4e26" opacity="0.055"/><rect x="1105.4" width="41.3" height="3000" fill="#6b4e26" opacity="0.080"/><rect x="1162.8" width="25.3" height="3000" fill="#6b4e26" opacity="0.093"/><rect x="1197.9" width="31.8" height="3000" fill="#6b4e26" opacity="0.041"/><rect x="1242" width="39.5" height="3000" fill="#6b4e26" opacity="0.067"/><rect x="1296.9" width="23" height="3000" fill="#6b4e26" opacity="0.050"/><rect x="1328.8" width="41.6" height="3000" fill="#6b4e26" opacity="0.079"/><rect x="1386.6" width="24.2" height="3000" fill="#6b4e26" opacity="0.085"/><rect x="1420.2" width="35.3" height="3000" fill="#6b4e26" opacity="0.090"/><rect x="1469.2" width="38.5" height="3000" fill="#6b4e26" opacity="0.099"/><rect x="1522.7" width="25.7" height="3000" fill="#6b4e26" opacity="0.097"/><rect x="1558.3" width="37.1" height="3000" fill="#6b4e26" opacity="0.031"/><rect x="1609.9" width="26.6" height="3000" fill="#6b4e26" opacity="0.078"/><rect x="1646.8" width="34.5" height="3000" fill="#6b4e26" opacity="0.031"/><rect x="1694.7" width="29.6" height="3000" fill="#6b4e26" opacity="0.094"/><rect x="1735.8" width="29.7" height="3000" fill="#6b4e26" opacity="0.063"/><rect x="1777.1" width="24.1" height="3000" fill="#6b4e26" opacity="0.061"/><rect x="1810.6" width="20.9" height="3000" fill="#6b4e26" opacity="0.081"/><rect x="1839.5" width="36.2" height="3000" fill="#6b4e26" opacity="0.035"/><rect x="1889.9" width="34.7" height="3000" fill="#6b4e26" opacity="0.041"/><rect x="1938.1" width="38.5" height="3000" fill="#6b4e26" opacity="0.071"/><rect x="1991.6" width="38" height="3000" fill="#6b4e26" opacity="0.053"/><rect x="2044.4" width="40.7" height="3000" fill="#6b4e26" opacity="0.096"/><rect x="2100.9" width="34.1" height="3000" fill="#6b4e26" opacity="0.088"/><rect x="2148.2" width="27.1" height="3000" fill="#6b4e26" opacity="0.040"/><rect x="2185.8" width="20.1" height="3000" fill="#6b4e26" opacity="0.061"/><rect x="2213.7" width="33.8" height="3000" fill="#6b4e26" opacity="0.060"/><rect x="2260.7" width="20.4" height="3000" fill="#6b4e26" opacity="0.045"/><rect x="2289" width="20.2" height="3000" fill="#6b4e26" opacity="0.052"/><rect x="2317" width="22.4" height="3000" fill="#6b4e26" opacity="0.058"/><rect x="2348.2" width="32.3" height="3000" fill="#6b4e26" opacity="0.031"/><rect x="2393.1" width="41.5" height="3000" fill="#6b4e26" opacity="0.055"/><rect y="0" width="2400" height="20.6" fill="#7c5c30" opacity="0.023"/><rect y="34.4" width="2400" height="23.3" fill="#7c5c30" opacity="0.037"/><rect y="73.2" width="2400" height="21.2" fill="#7c5c30" opacity="0.054"/><rect y="108.5" width="2400" height="26.7" fill="#7c5c30" opacity="0.037"/><rect y="153" width="2400" height="27.5" fill="#7c5c30" opacity="0.045"/><rect y="198.9" width="2400" height="16.1" fill="#7c5c30" opacity="0.039"/><rect y="225.7" width="2400" height="15.4" fill="#7c5c30" opacity="0.056"/><rect y="251.4" width="2400" height="14.4" fill="#7c5c30" opacity="0.052"/><rect y="275.4" width="2400" height="23" fill="#7c5c30" opacity="0.036"/><rect y="313.6" width="2400" height="15.8" fill="#7c5c30" opacity="0.039"/><rect y="339.9" width="2400" height="15.6" fill="#7c5c30" opacity="0.025"/><rect y="365.9" width="2400" height="23.3" fill="#7c5c30" opacity="0.059"/><rect y="404.7" width="2400" height="14" fill="#7c5c30" opacity="0.026"/><rect y="428.1" width="2400" height="19.3" fill="#7c5c30" opacity="0.031"/><rect y="460.3" width="2400" height="20.1" fill="#7c5c30" opacity="0.052"/><rect y="493.9" width="2400" height="14" fill="#7c5c30" opacity="0.058"/><rect y="517.3" width="2400" height="21.6" fill="#7c5c30" opacity="0.045"/><rect y="553.2" width="2400" height="21.3" fill="#7c5c30" opacity="0.059"/><rect y="588.7" width="2400" height="22.1" fill="#7c5c30" opacity="0.031"/><rect y="625.5" width="2400" height="23.1" fill="#7c5c30" opacity="0.046"/><rect y="663.9" width="2400" height="13.4" fill="#7c5c30" opacity="0.034"/><rect y="686.2" width="2400" height="28" fill="#7c5c30" opacity="0.030"/><rect y="732.9" width="2400" height="14" fill="#7c5c30" opacity="0.038"/><rect y="756.2" width="2400" height="22" fill="#7c5c30" opacity="0.049"/><rect y="792.9" width="2400" height="21.7" fill="#7c5c30" opacity="0.029"/><rect y="829" width="2400" height="19.4" fill="#7c5c30" opacity="0.035"/><rect y="861.3" width="2400" height="19.8" fill="#7c5c30" opacity="0.035"/><rect y="894.3" width="2400" height="12.7" fill="#7c5c30" opacity="0.050"/><rect y="915.4" width="2400" height="19.9" fill="#7c5c30" opacity="0.045"/><rect y="948.6" width="2400" height="24.7" fill="#7c5c30" opacity="0.059"/><rect y="989.8" width="2400" height="14.6" fill="#7c5c30" opacity="0.044"/><rect y="1014.1" width="2400" height="16.4" fill="#7c5c30" opacity="0.041"/><rect y="1041.5" width="2400" height="27.2" fill="#7c5c30" opacity="0.035"/><rect y="1086.8" width="2400" height="23.2" fill="#7c5c30" opacity="0.056"/><rect y="1125.4" width="2400" height="12.7" fill="#7c5c30" opacity="0.027"/><rect y="1146.6" width="2400" height="12.8" fill="#7c5c30" opacity="0.032"/><rect y="1168" width="2400" height="25.3" fill="#7c5c30" opacity="0.031"/><rect y="1210.3" width="2400" height="21.4" fill="#7c5c30" opacity="0.020"/><rect y="1245.8" width="2400" height="19.5" fill="#7c5c30" opacity="0.057"/><rect y="1278.4" width="2400" height="16.6" fill="#7c5c30" opacity="0.048"/><rect y="1306.1" width="2400" height="14.7" fill="#7c5c30" opacity="0.026"/><rect y="1330.7" width="2400" height="18.4" fill="#7c5c30" opacity="0.027"/><rect y="1361.3" width="2400" height="25" fill="#7c5c30" opacity="0.029"/><rect y="1403" width="2400" height="26.5" fill="#7c5c30" opacity="0.052"/><rect y="1447.2" width="2400" height="17.2" fill="#7c5c30" opacity="0.039"/><rect y="1475.9" width="2400" height="20.7" fill="#7c5c30" opacity="0.037"/><rect y="1510.4" width="2400" height="22.7" fill="#7c5c30" opacity="0.028"/><rect y="1548.3" width="2400" height="24" fill="#7c5c30" opacity="0.054"/><rect y="1588.2" width="2400" height="27.2" fill="#7c5c30" opacity="0.042"/><rect y="1633.6" width="2400" height="23.2" fill="#7c5c30" opacity="0.038"/><rect y="1672.3" width="2400" height="22.2" fill="#7c5c30" opacity="0.052"/><rect y="1709.3" width="2400" height="26.6" fill="#7c5c30" opacity="0.054"/><rect y="1753.6" width="2400" height="16.6" fill="#7c5c30" opacity="0.026"/><rect y="1781.3" width="2400" height="15.4" fill="#7c5c30" opacity="0.043"/><rect y="1807" width="2400" height="17.2" fill="#7c5c30" opacity="0.032"/><rect y="1835.8" width="2400" height="23.3" fill="#7c5c30" opacity="0.021"/><rect y="1874.6" width="2400" height="12.4" fill="#7c5c30" opacity="0.041"/><rect y="1895.3" width="2400" height="18.8" fill="#7c5c30" opacity="0.032"/><rect y="1926.6" width="2400" height="25.1" fill="#7c5c30" opacity="0.040"/><rect y="1968.5" width="2400" height="23.1" fill="#7c5c30" opacity="0.034"/><rect y="2007" width="2400" height="16.1" fill="#7c5c30" opacity="0.045"/><rect y="2033.8" width="2400" height="17.7" fill="#7c5c30" opacity="0.043"/><rect y="2063.3" width="2400" height="17.8" fill="#7c5c30" opacity="0.037"/><rect y="2092.9" width="2400" height="24.4" fill="#7c5c30" opacity="0.035"/><rect y="2133.5" width="2400" height="19.1" fill="#7c5c30" opacity="0.049"/><rect y="2165.3" width="2400" height="23.5" fill="#7c5c30" opacity="0.026"/><rect y="2204.5" width="2400" height="12.7" fill="#7c5c30" opacity="0.043"/><rect y="2225.7" width="2400" height="13.8" fill="#7c5c30" opacity="0.044"/><rect y="2248.7" width="2400" height="17.4" fill="#7c5c30" opacity="0.042"/><rect y="2277.7" width="2400" height="25.5" fill="#7c5c30" opacity="0.059"/><rect y="2320.2" width="2400" height="15" fill="#7c5c30" opacity="0.045"/><rect y="2345.2" width="2400" height="14.4" fill="#7c5c30" opacity="0.053"/><rect y="2369.2" width="2400" height="23.5" fill="#7c5c30" opacity="0.036"/><rect y="2408.5" width="2400" height="16.4" fill="#7c5c30" opacity="0.044"/><rect y="2435.7" width="2400" height="16.5" fill="#7c5c30" opacity="0.060"/><rect y="2463.2" width="2400" height="14.9" fill="#7c5c30" opacity="0.021"/><rect y="2488" width="2400" height="18.3" fill="#7c5c30" opacity="0.048"/><rect y="2518.5" width="2400" height="28.6" fill="#7c5c30" opacity="0.024"/><rect y="2566.2" width="2400" height="16.9" fill="#7c5c30" opacity="0.028"/><rect y="2594.4" width="2400" height="28.5" fill="#7c5c30" opacity="0.052"/><rect y="2641.9" width="2400" height="15.5" fill="#7c5c30" opacity="0.045"/><rect y="2667.8" width="2400" height="22.8" fill="#7c5c30" opacity="0.049"/><rect y="2705.9" width="2400" height="19.4" fill="#7c5c30" opacity="0.035"/><rect y="2738.3" width="2400" height="14.7" fill="#7c5c30" opacity="0.043"/><rect y="2762.7" width="2400" height="25.1" fill="#7c5c30" opacity="0.024"/><rect y="2804.6" width="2400" height="14.4" fill="#7c5c30" opacity="0.048"/><rect y="2828.5" width="2400" height="15" fill="#7c5c30" opacity="0.021"/><rect y="2853.4" width="2400" height="23.5" fill="#7c5c30" opacity="0.032"/><rect y="2892.5" width="2400" height="18.5" fill="#7c5c30" opacity="0.042"/><rect y="2923.3" width="2400" height="24.7" fill="#7c5c30" opacity="0.033"/><rect y="2964.4" width="2400" height="24.1" fill="#7c5c30" opacity="0.055"/><g filter="url(#a132-warp)"><rect x="200" y="170" width="2000" height="14.5" fill="#332d23"/><rect x="200" y="184" width="2000" height="14.5" fill="#a8792c"/><rect x="200" y="198" width="2000" height="14.5" fill="#332d23"/><rect x="200" y="212" width="2000" height="14.5" fill="#b09a6c"/><rect x="200" y="226" width="2000" height="14.5" fill="#332d23"/><rect x="200" y="2760" width="2000" height="14.5" fill="#332d23"/><rect x="200" y="2774" width="2000" height="14.5" fill="#a8792c"/><rect x="200" y="2788" width="2000" height="14.5" fill="#332d23"/><rect x="200" y="2802" width="2000" height="14.5" fill="#b09a6c"/><rect x="200" y="2816" width="2000" height="14.5" fill="#332d23"/><circle cx="1200" cy="1030" r="150" fill="#a8792c"/><circle cx="1200" cy="1030" r="196" fill="none" stroke="#a8792c" stroke-width="10"/><line x1="1110" y1="1540" x2="357.4" y2="1481.8" stroke="#332d23" stroke-width="34" stroke-linecap="round"/><line x1="1110" y1="1540" x2="383.2" y2="1417.8" stroke="#332d23" stroke-width="34" stroke-linecap="round"/><line x1="1110" y1="1540" x2="426.9" y2="1356.8" stroke="#332d23" stroke-width="34" stroke-linecap="round"/><line x1="1110" y1="1540" x2="487.4" y2="1300.2" stroke="#332d23" stroke-width="34" stroke-linecap="round"/><line x1="1110" y1="1540" x2="563.3" y2="1249.6" stroke="#332d23" stroke-width="34" stroke-linecap="round"/><line x1="1110" y1="1540" x2="652.6" y2="1206.2" stroke="#332d23" stroke-width="34" stroke-linecap="round"/><line x1="1110" y1="1540" x2="753.2" y2="1170.9" stroke="#332d23" stroke-width="34" stroke-linecap="round"/><line x1="1110" y1="1540" x2="862.6" y2="1144.8" stroke="#332d23" stroke-width="34" stroke-linecap="round"/><line x1="1110" y1="1540" x2="978" y2="1128.4" stroke="#332d23" stroke-width="34" stroke-linecap="round"/><line x1="1110" y1="1540" x2="515.8" y2="1494.1" stroke="#a8792c" stroke-width="30" stroke-linecap="round"/><line x1="1110" y1="1540" x2="536.2" y2="1443.5" stroke="#a8792c" stroke-width="30" stroke-linecap="round"/><line x1="1110" y1="1540" x2="570.7" y2="1395.3" stroke="#a8792c" stroke-width="30" stroke-linecap="round"/><line x1="1110" y1="1540" x2="618.5" y2="1350.7" stroke="#a8792c" stroke-width="30" stroke-linecap="round"/><line x1="1110" y1="1540" x2="678.4" y2="1310.8" stroke="#a8792c" stroke-width="30" stroke-linecap="round"/><line x1="1110" y1="1540" x2="748.9" y2="1276.5" stroke="#a8792c" stroke-width="30" stroke-linecap="round"/><line x1="1110" y1="1540" x2="828.3" y2="1248.6" stroke="#a8792c" stroke-width="30" stroke-linecap="round"/><line x1="1110" y1="1540" x2="914.7" y2="1228" stroke="#a8792c" stroke-width="30" stroke-linecap="round"/><line x1="1110" y1="1540" x2="1005.8" y2="1215" stroke="#a8792c" stroke-width="30" stroke-linecap="round"/><line x1="1110" y1="1540" x2="664.4" y2="1505.6" stroke="#332d23" stroke-width="26" stroke-linecap="round"/><line x1="1110" y1="1540" x2="679.7" y2="1467.6" stroke="#332d23" stroke-width="26" stroke-linecap="round"/><line x1="1110" y1="1540" x2="705.5" y2="1431.5" stroke="#332d23" stroke-width="26" stroke-linecap="round"/><line x1="1110" y1="1540" x2="741.4" y2="1398" stroke="#332d23" stroke-width="26" stroke-linecap="round"/><line x1="1110" y1="1540" x2="786.3" y2="1368.1" stroke="#332d23" stroke-width="26" stroke-linecap="round"/><line x1="1110" y1="1540" x2="839.2" y2="1342.3" stroke="#332d23" stroke-width="26" stroke-linecap="round"/><line x1="1110" y1="1540" x2="898.7" y2="1321.5" stroke="#332d23" stroke-width="26" stroke-linecap="round"/><line x1="1110" y1="1540" x2="963.5" y2="1306" stroke="#332d23" stroke-width="26" stroke-linecap="round"/><line x1="1110" y1="1540" x2="1031.9" y2="1296.3" stroke="#332d23" stroke-width="26" stroke-linecap="round"/><line x1="1290" y1="1540" x2="2042.6" y2="1481.8" stroke="#332d23" stroke-width="34" stroke-linecap="round"/><line x1="1290" y1="1540" x2="2016.8" y2="1417.8" stroke="#332d23" stroke-width="34" stroke-linecap="round"/><line x1="1290" y1="1540" x2="1973.1" y2="1356.8" stroke="#332d23" stroke-width="34" stroke-linecap="round"/><line x1="1290" y1="1540" x2="1912.6" y2="1300.2" stroke="#332d23" stroke-width="34" stroke-linecap="round"/><line x1="1290" y1="1540" x2="1836.7" y2="1249.6" stroke="#332d23" stroke-width="34" stroke-linecap="round"/><line x1="1290" y1="1540" x2="1747.4" y2="1206.2" stroke="#332d23" stroke-width="34" stroke-linecap="round"/><line x1="1290" y1="1540" x2="1646.8" y2="1170.9" stroke="#332d23" stroke-width="34" stroke-linecap="round"/><line x1="1290" y1="1540" x2="1537.4" y2="1144.8" stroke="#332d23" stroke-width="34" stroke-linecap="round"/><line x1="1290" y1="1540" x2="1422" y2="1128.4" stroke="#332d23" stroke-width="34" stroke-linecap="round"/><line x1="1290" y1="1540" x2="1884.2" y2="1494.1" stroke="#a8792c" stroke-width="30" stroke-linecap="round"/><line x1="1290" y1="1540" x2="1863.8" y2="1443.5" stroke="#a8792c" stroke-width="30" stroke-linecap="round"/><line x1="1290" y1="1540" x2="1829.3" y2="1395.3" stroke="#a8792c" stroke-width="30" stroke-linecap="round"/><line x1="1290" y1="1540" x2="1781.5" y2="1350.7" stroke="#a8792c" stroke-width="30" stroke-linecap="round"/><line x1="1290" y1="1540" x2="1721.6" y2="1310.8" stroke="#a8792c" stroke-width="30" stroke-linecap="round"/><line x1="1290" y1="1540" x2="1651.1" y2="1276.5" stroke="#a8792c" stroke-width="30" stroke-linecap="round"/><line x1="1290" y1="1540" x2="1571.7" y2="1248.6" stroke="#a8792c" stroke-width="30" stroke-linecap="round"/><line x1="1290" y1="1540" x2="1485.3" y2="1228" stroke="#a8792c" stroke-width="30" stroke-linecap="round"/><line x1="1290" y1="1540" x2="1394.2" y2="1215" stroke="#a8792c" stroke-width="30" stroke-linecap="round"/><line x1="1290" y1="1540" x2="1735.6" y2="1505.6" stroke="#332d23" stroke-width="26" stroke-linecap="round"/><line x1="1290" y1="1540" x2="1720.3" y2="1467.6" stroke="#332d23" stroke-width="26" stroke-linecap="round"/><line x1="1290" y1="1540" x2="1694.5" y2="1431.5" stroke="#332d23" stroke-width="26" stroke-linecap="round"/><line x1="1290" y1="1540" x2="1658.6" y2="1398" stroke="#332d23" stroke-width="26" stroke-linecap="round"/><line x1="1290" y1="1540" x2="1613.7" y2="1368.1" stroke="#332d23" stroke-width="26" stroke-linecap="round"/><line x1="1290" y1="1540" x2="1560.8" y2="1342.3" stroke="#332d23" stroke-width="26" stroke-linecap="round"/><line x1="1290" y1="1540" x2="1501.3" y2="1321.5" stroke="#332d23" stroke-width="26" stroke-linecap="round"/><line x1="1290" y1="1540" x2="1436.5" y2="1306" stroke="#332d23" stroke-width="26" stroke-linecap="round"/><line x1="1290" y1="1540" x2="1368.1" y2="1296.3" stroke="#332d23" stroke-width="26" stroke-linecap="round"/><path d="M1080,1500 q -150,-60 -210,-150" fill="none" stroke="#332d23" stroke-width="26" stroke-linecap="round"/><path d="M1035,1660 q -190,20 -260,-40" fill="none" stroke="#332d23" stroke-width="26" stroke-linecap="round"/><path d="M1070,1810 q -150,90 -230,80" fill="none" stroke="#332d23" stroke-width="26" stroke-linecap="round"/><path d="M1320,1500 q 150,-60 210,-150" fill="none" stroke="#332d23" stroke-width="26" stroke-linecap="round"/><path d="M1365,1660 q 190,20 260,-40" fill="none" stroke="#332d23" stroke-width="26" stroke-linecap="round"/><path d="M1330,1810 q 150,90 230,80" fill="none" stroke="#332d23" stroke-width="26" stroke-linecap="round"/><ellipse cx="1200" cy="1660" rx="180" ry="240" fill="#332d23"/><line x1="1200" y1="1540" x2="1200" y2="1896" stroke="#d3ba8c" stroke-width="9" opacity="0.7"/><path d="M1028,1552 Q 1200,1630 1372,1552" fill="none" stroke="#d3ba8c" stroke-width="9" opacity="0.7"/><path d="M1080,1450 A 130,130 0 0 1 1320,1450 L1278,1495 L1122,1495 Z" fill="#332d23"/><line x1="1112" y1="1392" x2="1084" y2="1338" stroke="#332d23" stroke-width="16" stroke-linecap="round"/><line x1="1156" y1="1392" x2="1142" y2="1338" stroke="#332d23" stroke-width="16" stroke-linecap="round"/><line x1="1200" y1="1392" x2="1200" y2="1338" stroke="#332d23" stroke-width="16" stroke-linecap="round"/><line x1="1244" y1="1392" x2="1258" y2="1338" stroke="#332d23" stroke-width="16" stroke-linecap="round"/><line x1="1288" y1="1392" x2="1316" y2="1338" stroke="#332d23" stroke-width="16" stroke-linecap="round"/><path d="M780,1990 Q 1200,2160 1620,1990 L1560,1990 Q 1200,2090 840,1990 Z" fill="#a8792c"/><rect x="120" y="120" width="2160" height="2760" fill="none" stroke="#332d23" stroke-width="6" opacity="0.85"/></g><rect width="2400" height="3000" filter="url(#a132-mottle)" style="mix-blend-mode:multiply" opacity="0.5"/><rect width="2400" height="3000" filter="url(#a132-fade)" style="mix-blend-mode:screen" opacity="0.55"/><rect width="2400" height="3000" filter="url(#a132-grain)" style="mix-blend-mode:multiply" opacity="0.32"/><ellipse cx="901" cy="2744.8" rx="146.6" ry="91.1" fill="#6b4a22" opacity="0.045" filter="url(#a132-blur9)"/><ellipse cx="1448.5" cy="1042.2" rx="327.7" ry="200.1" fill="#6b4a22" opacity="0.026" filter="url(#a132-blur9)"/><ellipse cx="1718.1" cy="1847.5" rx="214.4" ry="176.6" fill="#6b4a22" opacity="0.054" filter="url(#a132-blur9)"/><rect x="0" width="23.1" height="3000" fill="#fff2d0" opacity="0.021"/><rect x="46.3" width="22.6" height="3000" fill="#fff2d0" opacity="0.020"/><rect x="91.4" width="19.8" height="3000" fill="#fff2d0" opacity="0.040"/><rect x="131" width="16.1" height="3000" fill="#fff2d0" opacity="0.023"/><rect x="163.3" width="19.7" height="3000" fill="#fff2d0" opacity="0.023"/><rect x="202.7" width="22.4" height="3000" fill="#fff2d0" opacity="0.020"/><rect x="247.4" width="29.3" height="3000" fill="#fff2d0" opacity="0.039"/><rect x="306" width="32.7" height="3000" fill="#fff2d0" opacity="0.031"/><rect x="371.4" width="29.8" height="3000" fill="#fff2d0" opacity="0.027"/><rect x="431" width="29.8" height="3000" fill="#fff2d0" opacity="0.032"/><rect x="490.7" width="27.6" height="3000" fill="#fff2d0" opacity="0.025"/><rect x="546" width="34.7" height="3000" fill="#fff2d0" opacity="0.033"/><rect x="615.3" width="17.3" height="3000" fill="#fff2d0" opacity="0.026"/><rect x="649.9" width="21.7" height="3000" fill="#fff2d0" opacity="0.032"/><rect x="693.3" width="26.7" height="3000" fill="#fff2d0" opacity="0.038"/><rect x="746.7" width="32.6" height="3000" fill="#fff2d0" opacity="0.036"/><rect x="811.9" width="30.5" height="3000" fill="#fff2d0" opacity="0.032"/><rect x="872.9" width="15.6" height="3000" fill="#fff2d0" opacity="0.027"/><rect x="904.1" width="27.8" height="3000" fill="#fff2d0" opacity="0.033"/><rect x="959.8" width="26.4" height="3000" fill="#fff2d0" opacity="0.036"/><rect x="1012.6" width="16" height="3000" fill="#fff2d0" opacity="0.025"/><rect x="1044.6" width="25.1" height="3000" fill="#fff2d0" opacity="0.041"/><rect x="1094.8" width="26.2" height="3000" fill="#fff2d0" opacity="0.024"/><rect x="1147.3" width="17.8" height="3000" fill="#fff2d0" opacity="0.020"/><rect x="1182.9" width="34.3" height="3000" fill="#fff2d0" opacity="0.035"/><rect x="1251.4" width="25.8" height="3000" fill="#fff2d0" opacity="0.027"/><rect x="1303.1" width="21.6" height="3000" fill="#fff2d0" opacity="0.021"/><rect x="1346.3" width="30.9" height="3000" fill="#fff2d0" opacity="0.029"/><rect x="1408.2" width="19.5" height="3000" fill="#fff2d0" opacity="0.041"/><rect x="1447.2" width="30.2" height="3000" fill="#fff2d0" opacity="0.034"/><rect x="1507.6" width="27.3" height="3000" fill="#fff2d0" opacity="0.037"/><rect x="1562.1" width="15" height="3000" fill="#fff2d0" opacity="0.019"/><rect x="1592.2" width="23.6" height="3000" fill="#fff2d0" opacity="0.032"/><rect x="1639.5" width="34.8" height="3000" fill="#fff2d0" opacity="0.032"/><rect x="1709.1" width="26.4" height="3000" fill="#fff2d0" opacity="0.026"/><rect x="1762" width="26.7" height="3000" fill="#fff2d0" opacity="0.037"/><rect x="1815.4" width="33.2" height="3000" fill="#fff2d0" opacity="0.039"/><rect x="1881.8" width="19.5" height="3000" fill="#fff2d0" opacity="0.037"/><rect x="1920.7" width="25" height="3000" fill="#fff2d0" opacity="0.031"/><rect x="1970.8" width="24.4" height="3000" fill="#fff2d0" opacity="0.030"/><rect x="2019.6" width="23.1" height="3000" fill="#fff2d0" opacity="0.044"/><rect x="2065.7" width="16.5" height="3000" fill="#fff2d0" opacity="0.020"/><rect x="2098.7" width="26" height="3000" fill="#fff2d0" opacity="0.040"/><rect x="2150.7" width="23" height="3000" fill="#fff2d0" opacity="0.042"/><rect x="2196.7" width="28.4" height="3000" fill="#fff2d0" opacity="0.031"/><rect x="2253.5" width="26.6" height="3000" fill="#fff2d0" opacity="0.035"/><rect x="2306.6" width="19.7" height="3000" fill="#fff2d0" opacity="0.043"/><rect x="2346.1" width="24.2" height="3000" fill="#fff2d0" opacity="0.037"/><rect x="2394.5" width="15.9" height="3000" fill="#fff2d0" opacity="0.040"/><linearGradient id="a132-er" x1="0" x2="1" y1="0" y2="0"><stop offset="0" stop-color="#3a2a12" stop-opacity="0.22"/><stop offset="1" stop-color="#3a2a12" stop-opacity="0"/></linearGradient><rect x="0" y="0" width="90" height="3000" fill="url(#a132-er)"/><linearGradient id="a132-el" x1="1" x2="0" y1="0" y2="0"><stop offset="0" stop-color="#3a2a12" stop-opacity="0.22"/><stop offset="1" stop-color="#3a2a12" stop-opacity="0"/></linearGradient><rect x="2310" y="0" width="90" height="3000" fill="url(#a132-el)"/><linearGradient id="a132-ed" x1="0" x2="0" y1="0" y2="1"><stop offset="0" stop-color="#3a2a12" stop-opacity="0.22"/><stop offset="1" stop-color="#3a2a12" stop-opacity="0"/></linearGradient><rect x="0" y="0" width="2400" height="90" fill="url(#a132-ed)"/><linearGradient id="a132-eu" x1="0" x2="0" y1="1" y2="0"><stop offset="0" stop-color="#3a2a12" stop-opacity="0.22"/><stop offset="1" stop-color="#3a2a12" stop-opacity="0"/></linearGradient><rect x="0" y="2910" width="2400" height="90" fill="url(#a132-eu)"/><circle cx="1678.9" cy="2158.4" r="4.7" fill="#8a5a2e" opacity="0.099"/><circle cx="553.5" cy="1429.4" r="13.5" fill="#8a5a2e" opacity="0.113"/><circle cx="442.7" cy="1384.7" r="6.2" fill="#8a5a2e" opacity="0.043"/><circle cx="1523.4" cy="2427.2" r="5.8" fill="#8a5a2e" opacity="0.066"/><circle cx="2243.8" cy="1958.7" r="12.2" fill="#8a5a2e" opacity="0.079"/><circle cx="859.1" cy="2866.5" r="6.4" fill="#8a5a2e" opacity="0.050"/><circle cx="1737.7" cy="1936.4" r="5.3" fill="#8a5a2e" opacity="0.080"/><circle cx="207.4" cy="2456.3" r="4.9" fill="#8a5a2e" opacity="0.045"/><circle cx="1463.3" cy="2763.1" r="11.6" fill="#8a5a2e" opacity="0.113"/><circle cx="1656.7" cy="1862.2" r="14.4" fill="#8a5a2e" opacity="0.067"/><circle cx="327.5" cy="336.8" r="8.3" fill="#8a5a2e" opacity="0.099"/><rect width="2400" height="3000" fill="url(#a132-vig)"/></svg></svg>