<svg xmlns="http://www.w3.org/2000/svg" width="2400" height="1800" viewBox="0 0 2400 1800"><rect width="2400" height="1800" fill="#e9e1d2"/><rect y="1430" width="2400" height="370" fill="#c8b190"/><line x1="120" y1="1430" x2="60" y2="1800" stroke="#00000018" stroke-width="6"/><line x1="380" y1="1430" x2="320" y2="1800" stroke="#00000018" stroke-width="6"/><line x1="640" y1="1430" x2="580" y2="1800" stroke="#00000018" stroke-width="6"/><line x1="900" y1="1430" x2="840" y2="1800" stroke="#00000018" stroke-width="6"/><line x1="1160" y1="1430" x2="1100" y2="1800" stroke="#00000018" stroke-width="6"/><line x1="1420" y1="1430" x2="1360" y2="1800" stroke="#00000018" stroke-width="6"/><line x1="1680" y1="1430" x2="1620" y2="1800" stroke="#00000018" stroke-width="6"/><line x1="1940" y1="1430" x2="1880" y2="1800" stroke="#00000018" stroke-width="6"/><line x1="2200" y1="1430" x2="2140" y2="1800" stroke="#00000018" stroke-width="6"/><rect y="1418" width="2400" height="16" fill="#d7cbb6"/><rect x="700" y="980" width="1000" height="460" rx="26" fill="#a87e57"/><rect x="660" y="1290" width="1080" height="210" rx="30" fill="#f1ebdf"/><rect x="660" y="1420" width="1080" height="120" rx="24" fill="#96603a" opacity="0.85"/><rect x="770" y="1180" width="300" height="150" rx="40" fill="#faf6ec"/><rect x="1330" y="1180" width="300" height="150" rx="40" fill="#b09a75"/><rect x="640" y="1530" width="1120" height="26" rx="12" fill="#a87e57"/><rect x="360" y="1260" width="240" height="220" rx="10" fill="#a87e57"/><rect x="380" y="1300" width="200" height="14" fill="#00000022"/><line x1="480" y1="1260" x2="480" y2="1130" stroke="#5a4632" stroke-width="12"/><path d="M410,1130 L550,1130 L520,1020 L440,1020 Z" fill="#96603a"/><path d="M2060,1520 Q 1910,1282.5 1835,1345" fill="none" stroke="#5d7052" stroke-width="20" stroke-linecap="round"/><path d="M2060,1520 Q 1960,1282.5 1910,1295" fill="none" stroke="#5d7052" stroke-width="20" stroke-linecap="round"/><path d="M2060,1520 Q 2010,1282.5 1985,1245" fill="none" stroke="#5d7052" stroke-width="20" stroke-linecap="round"/><path d="M2060,1520 Q 2060,1282.5 2060,1195" fill="none" stroke="#5d7052" stroke-width="20" stroke-linecap="round"/><path d="M2060,1520 Q 2110,1282.5 2135,1245" fill="none" stroke="#5d7052" stroke-width="20" stroke-linecap="round"/><path d="M2060,1520 Q 2160,1282.5 2210,1295" fill="none" stroke="#5d7052" stroke-width="20" stroke-linecap="round"/><path d="M2060,1520 Q 2210,1282.5 2285,1345" fill="none" stroke="#5d7052" stroke-width="20" stroke-linecap="round"/><path d="M1972.5,1520 L2147.5,1520 L2125,1657.5 L1995,1657.5 Z" fill="#a9714d"/><defs><filter id="a118b-sh" x="-30%" y="-30%" width="160%" height="160%"><feGaussianBlur stdDeviation="16"/></filter></defs><rect x="928" y="246" width="572" height="702" fill="#000" opacity="0.28" filter="url(#a118b-sh)"/><rect x="914" y="224" width="572" height="702" fill="#4a3d2f"/><rect x="930.9" y="240.9" width="538.2" height="668.2" fill="none" stroke="#00000055" stroke-width="3"/><rect x="940" y="250" width="520" height="650" fill="#f6f2ea"/><svg x="979" y="289" width="442" height="572" viewBox="0 0 2400 3000" preserveAspectRatio="xMidYMid slice"><filter id="a118-warp" x="-4%" y="-4%" width="108%" height="108%"><feTurbulence type="fractalNoise" baseFrequency="0.0105" numOctaves="2" seed="5336" result="w"/><feDisplacementMap in="SourceGraphic" in2="w" scale="7" xChannelSelector="R" yChannelSelector="G"/></filter><filter id="a118-grain" x="0%" y="0%" width="100%" height="100%"><feTurbulence type="fractalNoise" baseFrequency="0.6" numOctaves="2" seed="5343"/><feColorMatrix type="matrix" values="0.33 0.33 0.33 0 0.62  0.33 0.33 0.33 0 0.62  0.33 0.33 0.33 0 0.62  0 0 0 0 1"/></filter><filter id="a118-mottle" x="0%" y="0%" width="100%" height="100%"><feTurbulence type="fractalNoise" baseFrequency="0.0045" numOctaves="3" seed="5349"/><feColorMatrix type="matrix" values="0.2 0.2 0.2 0 0.78  0.2 0.2 0.2 0 0.78  0.2 0.2 0.2 0 0.78  0 0 0 0 1"/></filter><filter id="a118-fade" x="0%" y="0%" width="100%" height="100%"><feTurbulence type="fractalNoise" baseFrequency="0.006" numOctaves="2" seed="5365"/><feColorMatrix type="matrix" values="0.3 0.3 0.3 0 -0.08  0.3 0.3 0.3 0 -0.08  0.3 0.3 0.3 0 -0.1  0 0 0 0 1"/></filter><filter id="a118-blur9"><feGaussianBlur stdDeviation="9"/></filter><radialGradient id="a118-vig" cx="50%" cy="44%" r="78%"><stop offset="52%" stop-color="#241a10" stop-opacity="0"/><stop offset="100%" stop-color="#241a10" stop-opacity="0.17"/></radialGradient><radialGradient id="a118-warm" cx="46%" cy="30%" r="85%"><stop offset="0%" stop-color="#e8c890" stop-opacity="0.14"/><stop offset="70%" stop-color="#e8c890" stop-opacity="0"/></radialGradient><rect width="2400" height="3000" fill="#e8dcc0"/><rect width="2400" height="3000" fill="url(#a118-warm)"/><g filter="url(#a118-warp)"><circle cx="1200" cy="1400" r="1010" fill="none" stroke="#3d2f1c" stroke-width="10"/><circle cx="1200" cy="1400" r="964" fill="none" stroke="#3d2f1c" stroke-width="4" opacity="0.7"/><line x1="2170" y1="1400" x2="2210" y2="1400" stroke="#3d2f1c" stroke-width="10"/><line x1="2182.2" y1="1485.9" x2="2206.2" y2="1488" stroke="#3d2f1c" stroke-width="5"/><line x1="2171" y1="1571.2" x2="2194.7" y2="1575.4" stroke="#3d2f1c" stroke-width="5"/><line x1="2152.4" y1="1655.2" x2="2175.6" y2="1661.4" stroke="#3d2f1c" stroke-width="5"/><line x1="2126.5" y1="1737.2" x2="2149.1" y2="1745.4" stroke="#3d2f1c" stroke-width="5"/><line x1="2093.6" y1="1816.7" x2="2115.4" y2="1826.8" stroke="#3d2f1c" stroke-width="5"/><line x1="2040" y1="1885" x2="2074.7" y2="1905" stroke="#3d2f1c" stroke-width="10"/><line x1="2007.7" y1="1965.5" x2="2027.3" y2="1979.3" stroke="#3d2f1c" stroke-width="5"/><line x1="1955.3" y1="2033.8" x2="1973.7" y2="2049.2" stroke="#3d2f1c" stroke-width="5"/><line x1="1897.2" y1="2097.2" x2="1914.2" y2="2114.2" stroke="#3d2f1c" stroke-width="5"/><line x1="1833.8" y1="2155.3" x2="1849.2" y2="2173.7" stroke="#3d2f1c" stroke-width="5"/><line x1="1765.5" y1="2207.7" x2="1779.3" y2="2227.3" stroke="#3d2f1c" stroke-width="5"/><line x1="1685" y1="2240" x2="1705" y2="2274.7" stroke="#3d2f1c" stroke-width="10"/><line x1="1616.7" y1="2293.6" x2="1626.8" y2="2315.4" stroke="#3d2f1c" stroke-width="5"/><line x1="1537.2" y1="2326.5" x2="1545.4" y2="2349.1" stroke="#3d2f1c" stroke-width="5"/><line x1="1455.2" y1="2352.4" x2="1461.4" y2="2375.6" stroke="#3d2f1c" stroke-width="5"/><line x1="1371.2" y1="2371" x2="1375.4" y2="2394.7" stroke="#3d2f1c" stroke-width="5"/><line x1="1285.9" y1="2382.2" x2="1288" y2="2406.2" stroke="#3d2f1c" stroke-width="5"/><line x1="1200" y1="2370" x2="1200" y2="2410" stroke="#3d2f1c" stroke-width="10"/><line x1="1114.1" y1="2382.2" x2="1112" y2="2406.2" stroke="#3d2f1c" stroke-width="5"/><line x1="1028.8" y1="2371" x2="1024.6" y2="2394.7" stroke="#3d2f1c" stroke-width="5"/><line x1="944.8" y1="2352.4" x2="938.6" y2="2375.6" stroke="#3d2f1c" stroke-width="5"/><line x1="862.8" y1="2326.5" x2="854.6" y2="2349.1" stroke="#3d2f1c" stroke-width="5"/><line x1="783.3" y1="2293.6" x2="773.2" y2="2315.4" stroke="#3d2f1c" stroke-width="5"/><line x1="715" y1="2240" x2="695" y2="2274.7" stroke="#3d2f1c" stroke-width="10"/><line x1="634.5" y1="2207.7" x2="620.7" y2="2227.3" stroke="#3d2f1c" stroke-width="5"/><line x1="566.2" y1="2155.3" x2="550.8" y2="2173.7" stroke="#3d2f1c" stroke-width="5"/><line x1="502.8" y1="2097.2" x2="485.8" y2="2114.2" stroke="#3d2f1c" stroke-width="5"/><line x1="444.7" y1="2033.8" x2="426.3" y2="2049.2" stroke="#3d2f1c" stroke-width="5"/><line x1="392.3" y1="1965.5" x2="372.7" y2="1979.3" stroke="#3d2f1c" stroke-width="5"/><line x1="360" y1="1885" x2="325.3" y2="1905" stroke="#3d2f1c" stroke-width="10"/><line x1="306.4" y1="1816.7" x2="284.6" y2="1826.8" stroke="#3d2f1c" stroke-width="5"/><line x1="273.5" y1="1737.2" x2="250.9" y2="1745.4" stroke="#3d2f1c" stroke-width="5"/><line x1="247.6" y1="1655.2" x2="224.4" y2="1661.4" stroke="#3d2f1c" stroke-width="5"/><line x1="229" y1="1571.2" x2="205.3" y2="1575.4" stroke="#3d2f1c" stroke-width="5"/><line x1="217.8" y1="1485.9" x2="193.8" y2="1488" stroke="#3d2f1c" stroke-width="5"/><line x1="230" y1="1400" x2="190" y2="1400" stroke="#3d2f1c" stroke-width="10"/><line x1="217.8" y1="1314.1" x2="193.8" y2="1312" stroke="#3d2f1c" stroke-width="5"/><line x1="229" y1="1228.8" x2="205.3" y2="1224.6" stroke="#3d2f1c" stroke-width="5"/><line x1="247.6" y1="1144.8" x2="224.4" y2="1138.6" stroke="#3d2f1c" stroke-width="5"/><line x1="273.5" y1="1062.8" x2="250.9" y2="1054.6" stroke="#3d2f1c" stroke-width="5"/><line x1="306.4" y1="983.3" x2="284.6" y2="973.2" stroke="#3d2f1c" stroke-width="5"/><line x1="360" y1="915" x2="325.3" y2="895" stroke="#3d2f1c" stroke-width="10"/><line x1="392.3" y1="834.5" x2="372.7" y2="820.7" stroke="#3d2f1c" stroke-width="5"/><line x1="444.7" y1="766.2" x2="426.3" y2="750.8" stroke="#3d2f1c" stroke-width="5"/><line x1="502.8" y1="702.8" x2="485.8" y2="685.8" stroke="#3d2f1c" stroke-width="5"/><line x1="566.2" y1="644.7" x2="550.8" y2="626.3" stroke="#3d2f1c" stroke-width="5"/><line x1="634.5" y1="592.3" x2="620.7" y2="572.7" stroke="#3d2f1c" stroke-width="5"/><line x1="715" y1="560" x2="695" y2="525.3" stroke="#3d2f1c" stroke-width="10"/><line x1="783.3" y1="506.4" x2="773.2" y2="484.6" stroke="#3d2f1c" stroke-width="5"/><line x1="862.8" y1="473.5" x2="854.6" y2="450.9" stroke="#3d2f1c" stroke-width="5"/><line x1="944.8" y1="447.6" x2="938.6" y2="424.4" stroke="#3d2f1c" stroke-width="5"/><line x1="1028.8" y1="429" x2="1024.6" y2="405.3" stroke="#3d2f1c" stroke-width="5"/><line x1="1114.1" y1="417.8" x2="1112" y2="393.8" stroke="#3d2f1c" stroke-width="5"/><line x1="1200" y1="430" x2="1200" y2="390" stroke="#3d2f1c" stroke-width="10"/><line x1="1285.9" y1="417.8" x2="1288" y2="393.8" stroke="#3d2f1c" stroke-width="5"/><line x1="1371.2" y1="429" x2="1375.4" y2="405.3" stroke="#3d2f1c" stroke-width="5"/><line x1="1455.2" y1="447.6" x2="1461.4" y2="424.4" stroke="#3d2f1c" stroke-width="5"/><line x1="1537.2" y1="473.5" x2="1545.4" y2="450.9" stroke="#3d2f1c" stroke-width="5"/><line x1="1616.7" y1="506.4" x2="1626.8" y2="484.6" stroke="#3d2f1c" stroke-width="5"/><line x1="1685" y1="560" x2="1705" y2="525.3" stroke="#3d2f1c" stroke-width="10"/><line x1="1765.5" y1="592.3" x2="1779.3" y2="572.7" stroke="#3d2f1c" stroke-width="5"/><line x1="1833.8" y1="644.7" x2="1849.2" y2="626.3" stroke="#3d2f1c" stroke-width="5"/><line x1="1897.2" y1="702.8" x2="1914.2" y2="685.8" stroke="#3d2f1c" stroke-width="5"/><line x1="1955.3" y1="766.2" x2="1973.7" y2="750.8" stroke="#3d2f1c" stroke-width="5"/><line x1="2007.7" y1="834.5" x2="2027.3" y2="820.7" stroke="#3d2f1c" stroke-width="5"/><line x1="2040" y1="915" x2="2074.7" y2="895" stroke="#3d2f1c" stroke-width="10"/><line x1="2093.6" y1="983.3" x2="2115.4" y2="973.2" stroke="#3d2f1c" stroke-width="5"/><line x1="2126.5" y1="1062.8" x2="2149.1" y2="1054.6" stroke="#3d2f1c" stroke-width="5"/><line x1="2152.4" y1="1144.8" x2="2175.6" y2="1138.6" stroke="#3d2f1c" stroke-width="5"/><line x1="2171" y1="1228.8" x2="2194.7" y2="1224.6" stroke="#3d2f1c" stroke-width="5"/><line x1="2182.2" y1="1314.1" x2="2206.2" y2="1312" stroke="#3d2f1c" stroke-width="5"/><circle cx="1200" cy="1400" r="280" fill="none" stroke="#3d2f1c" stroke-width="3" opacity="0.28" stroke-dasharray="3 26"/><circle cx="1200" cy="1400" r="530" fill="none" stroke="#3d2f1c" stroke-width="3" opacity="0.28" stroke-dasharray="3 26"/><circle cx="1200" cy="1400" r="780" fill="none" stroke="#3d2f1c" stroke-width="3" opacity="0.28" stroke-dasharray="3 26"/><circle cx="1312" cy="1260.1" r="4.7" fill="#3d2f1c" opacity="0.61"/><circle cx="1332" cy="1827.1" r="5" fill="#3d2f1c" opacity="0.85"/><circle cx="1513.5" cy="1527.1" r="4.8" fill="#3d2f1c" opacity="0.71"/><circle cx="1392.3" cy="784" r="6" fill="#3d2f1c" opacity="0.95"/><circle cx="1871.5" cy="1386.1" r="7.4" fill="#3d2f1c" opacity="0.89"/><circle cx="657.6" cy="1073.2" r="5.4" fill="#3d2f1c" opacity="0.80"/><circle cx="1978.7" cy="1284.3" r="6.9" fill="#3d2f1c" opacity="0.45"/><circle cx="1620.5" cy="2062.8" r="4.4" fill="#3d2f1c" opacity="0.81"/><circle cx="599.5" cy="898.8" r="6.3" fill="#3d2f1c" opacity="0.72"/><circle cx="1731" cy="1336.3" r="5.1" fill="#3d2f1c" opacity="0.51"/><circle cx="1643.6" cy="1897.5" r="6.3" fill="#3d2f1c" opacity="0.86"/><circle cx="1530.1" cy="1985.6" r="7.6" fill="#3d2f1c" opacity="0.56"/><circle cx="1643.2" cy="1322.6" r="7.6" fill="#3d2f1c" opacity="0.68"/><circle cx="407.9" cy="1216.7" r="4.2" fill="#3d2f1c" opacity="0.74"/><circle cx="1713.6" cy="1650.4" r="5.7" fill="#3d2f1c" opacity="0.65"/><circle cx="1060.5" cy="1262.4" r="3.8" fill="#3d2f1c" opacity="0.49"/><circle cx="826.5" cy="1988.3" r="5.7" fill="#3d2f1c" opacity="0.97"/><circle cx="1285.8" cy="777.8" r="3.8" fill="#3d2f1c" opacity="0.98"/><circle cx="1595.2" cy="898" r="6" fill="#3d2f1c" opacity="0.95"/><circle cx="546.2" cy="2016.7" r="5.1" fill="#3d2f1c" opacity="0.80"/><circle cx="809.8" cy="1941.3" r="6.6" fill="#3d2f1c" opacity="0.72"/><circle cx="1864.7" cy="1459.5" r="7.7" fill="#3d2f1c" opacity="0.69"/><circle cx="1343.2" cy="1258.6" r="4.4" fill="#3d2f1c" opacity="0.92"/><circle cx="786.4" cy="1242.2" r="6.9" fill="#3d2f1c" opacity="0.67"/><circle cx="388.6" cy="1213.2" r="5.8" fill="#3d2f1c" opacity="0.66"/><circle cx="580.2" cy="754.9" r="3.4" fill="#3d2f1c" opacity="0.82"/><circle cx="1439.1" cy="1261.4" r="5.3" fill="#3d2f1c" opacity="0.68"/><circle cx="596.7" cy="1337.2" r="7.6" fill="#3d2f1c" opacity="0.93"/><circle cx="616.3" cy="854.5" r="7.3" fill="#3d2f1c" opacity="0.94"/><circle cx="1380.8" cy="1173.2" r="5.8" fill="#3d2f1c" opacity="0.48"/><circle cx="868.8" cy="2142.1" r="3.7" fill="#3d2f1c" opacity="0.64"/><circle cx="1155.9" cy="2279.5" r="6.1" fill="#3d2f1c" opacity="0.61"/><circle cx="2108" cy="1450.9" r="7.6" fill="#3d2f1c" opacity="0.97"/><circle cx="763.7" cy="947.9" r="3.1" fill="#3d2f1c" opacity="0.47"/><circle cx="653.8" cy="971.9" r="6.4" fill="#3d2f1c" opacity="0.61"/><circle cx="844.6" cy="1472" r="4.1" fill="#3d2f1c" opacity="0.71"/><circle cx="510.9" cy="2009" r="6.6" fill="#3d2f1c" opacity="0.73"/><circle cx="1449.7" cy="922.2" r="5.3" fill="#3d2f1c" opacity="0.73"/><circle cx="1383.4" cy="2060.6" r="5.1" fill="#3d2f1c" opacity="0.87"/><circle cx="1499.1" cy="558.7" r="4.9" fill="#3d2f1c" opacity="0.57"/><circle cx="1228.1" cy="1402.3" r="4.6" fill="#3d2f1c" opacity="0.66"/><circle cx="827.5" cy="1325.3" r="7.4" fill="#3d2f1c" opacity="0.75"/><circle cx="697" cy="818.8" r="4.9" fill="#3d2f1c" opacity="0.89"/><circle cx="449.7" cy="1008.7" r="7.4" fill="#3d2f1c" opacity="0.55"/><circle cx="376.6" cy="994.3" r="5.4" fill="#3d2f1c" opacity="0.98"/><circle cx="1870.8" cy="2026.2" r="6.8" fill="#3d2f1c" opacity="0.62"/><circle cx="832.1" cy="695.2" r="8" fill="#3d2f1c" opacity="0.83"/><circle cx="1040.8" cy="1414.1" r="3.9" fill="#3d2f1c" opacity="0.51"/><circle cx="395.1" cy="1804.8" r="3.7" fill="#3d2f1c" opacity="0.61"/><circle cx="1663.2" cy="2063.2" r="4.3" fill="#3d2f1c" opacity="0.47"/><circle cx="1829.5" cy="998.8" r="3.2" fill="#3d2f1c" opacity="0.68"/><circle cx="943.6" cy="1959.3" r="5" fill="#3d2f1c" opacity="0.86"/><circle cx="1796.3" cy="2089.1" r="4" fill="#3d2f1c" opacity="0.96"/><circle cx="548.1" cy="997.5" r="6.8" fill="#3d2f1c" opacity="0.87"/><circle cx="2042" cy="1073.5" r="7.6" fill="#3d2f1c" opacity="0.68"/><circle cx="1515.8" cy="2043.1" r="4.3" fill="#3d2f1c" opacity="0.51"/><circle cx="1133.8" cy="1994.7" r="5.6" fill="#3d2f1c" opacity="0.86"/><circle cx="473.6" cy="1341.4" r="3.5" fill="#3d2f1c" opacity="0.77"/><circle cx="1045.9" cy="585.5" r="6.9" fill="#3d2f1c" opacity="0.71"/><circle cx="596.8" cy="767.5" r="4.4" fill="#3d2f1c" opacity="0.97"/><circle cx="1737.6" cy="2035.6" r="6.4" fill="#3d2f1c" opacity="0.50"/><circle cx="771.4" cy="1136.3" r="3.7" fill="#3d2f1c" opacity="1.00"/><path d="M467.9,1272.6 Q507.8,1265.5 547.8,1272.6 Q507.8,1279.8 467.9,1272.6 Z M507.8,1232.7 Q515,1272.6 507.8,1312.6 Q500.7,1272.6 507.8,1232.7 Z" fill="#3d2f1c"/><path d="M1756.7,1670.6 Q1804.8,1662 1852.9,1670.6 Q1804.8,1679.3 1756.7,1670.6 Z M1804.8,1622.5 Q1813.5,1670.6 1804.8,1718.7 Q1796.2,1670.6 1804.8,1622.5 Z" fill="#3d2f1c"/><path d="M1220.2,1367.9 Q1260.1,1360.8 1299.9,1367.9 Q1260.1,1375.1 1220.2,1367.9 Z M1260.1,1328.1 Q1267.2,1367.9 1260.1,1407.8 Q1252.9,1367.9 1260.1,1328.1 Z" fill="#3d2f1c"/><path d="M1277.6,1371.2 Q1337,1360.5 1396.3,1371.2 Q1337,1381.9 1277.6,1371.2 Z M1337,1311.9 Q1347.6,1371.2 1337,1430.5 Q1326.3,1371.2 1337,1311.9 Z" fill="#3d2f1c"/><path d="M516.9,1227.1 Q557.4,1219.8 598,1227.1 Q557.4,1234.4 516.9,1227.1 Z M557.4,1186.5 Q564.7,1227.1 557.4,1267.7 Q550.1,1227.1 557.4,1186.5 Z" fill="#3d2f1c"/><path d="M1823.1,1504.8 Q1882,1494.2 1940.8,1504.8 Q1882,1515.4 1823.1,1504.8 Z M1882,1446 Q1892.6,1504.8 1882,1563.6 Q1871.4,1504.8 1882,1446 Z" fill="#3d2f1c"/><polyline points="1808.9,1388.2 1693.9,1563.6 1510.9,1443.8 1463.2,1487.9 1484.9,1291.7 1489,1099.7 1694.3,1032.8 " fill="none" stroke="#3d2f1c" stroke-width="4" opacity="0.55"/><circle cx="1808.9" cy="1388.2" r="12" fill="#3d2f1c"/><circle cx="1693.9" cy="1563.6" r="11.6" fill="#3d2f1c"/><circle cx="1510.9" cy="1443.8" r="10.9" fill="#3d2f1c"/><circle cx="1463.2" cy="1487.9" r="13.8" fill="#3d2f1c"/><circle cx="1484.9" cy="1291.7" r="9.3" fill="#3d2f1c"/><circle cx="1489" cy="1099.7" r="9.5" fill="#3d2f1c"/><circle cx="1694.3" cy="1032.8" r="13.8" fill="#3d2f1c"/><polyline points="1359,1218.8 1349.3,1080 1231.9,1262.7 1269.6,1074.4 1392.6,1118.8 1289.8,967.9 1165,846.7 " fill="none" stroke="#3d2f1c" stroke-width="4" opacity="0.55"/><circle cx="1359" cy="1218.8" r="12" fill="#3d2f1c"/><circle cx="1349.3" cy="1080" r="8.9" fill="#3d2f1c"/><circle cx="1231.9" cy="1262.7" r="13.5" fill="#3d2f1c"/><circle cx="1269.6" cy="1074.4" r="13.7" fill="#3d2f1c"/><circle cx="1392.6" cy="1118.8" r="12.1" fill="#3d2f1c"/><circle cx="1289.8" cy="967.9" r="12.4" fill="#3d2f1c"/><circle cx="1165" cy="846.7" r="13.3" fill="#3d2f1c"/><circle cx="1166.6" cy="2039.1" r="88" fill="#3d2f1c"/><circle cx="1203.5" cy="2023.3" r="77.4" fill="#e8dcc0"/><path d="M370.1,2819.9 L 433.9,2819.9 L 433.9,2756.1 L 383.8,2756.1 L 383.8,2795.6 L 409.6,2795.6 L 409.6,2775.8 M446.1,2819.9 L 509.9,2819.9 L 509.9,2756.1 L 459.8,2756.1 L 459.8,2795.6 L 485.6,2795.6 L 485.6,2775.8 M522.1,2819.9 L 585.9,2819.9 L 585.9,2756.1 L 535.8,2756.1 L 535.8,2795.6 L 561.6,2795.6 L 561.6,2775.8 M598.1,2819.9 L 661.9,2819.9 L 661.9,2756.1 L 611.8,2756.1 L 611.8,2795.6 L 637.6,2795.6 L 637.6,2775.8 M674.1,2819.9 L 737.9,2819.9 L 737.9,2756.1 L 687.8,2756.1 L 687.8,2795.6 L 713.6,2795.6 L 713.6,2775.8 M750.1,2819.9 L 813.9,2819.9 L 813.9,2756.1 L 763.8,2756.1 L 763.8,2795.6 L 789.6,2795.6 L 789.6,2775.8 M826.1,2819.9 L 889.9,2819.9 L 889.9,2756.1 L 839.8,2756.1 L 839.8,2795.6 L 865.6,2795.6 L 865.6,2775.8 M902.1,2819.9 L 965.9,2819.9 L 965.9,2756.1 L 915.8,2756.1 L 915.8,2795.6 L 941.6,2795.6 L 941.6,2775.8 M978.1,2819.9 L 1041.9,2819.9 L 1041.9,2756.1 L 991.8,2756.1 L 991.8,2795.6 L 1017.6,2795.6 L 1017.6,2775.8 M1054.1,2819.9 L 1117.9,2819.9 L 1117.9,2756.1 L 1067.8,2756.1 L 1067.8,2795.6 L 1093.6,2795.6 L 1093.6,2775.8 M1130.1,2819.9 L 1193.9,2819.9 L 1193.9,2756.1 L 1143.8,2756.1 L 1143.8,2795.6 L 1169.6,2795.6 L 1169.6,2775.8 M1206.1,2819.9 L 1269.9,2819.9 L 1269.9,2756.1 L 1219.8,2756.1 L 1219.8,2795.6 L 1245.6,2795.6 L 1245.6,2775.8 M1282.1,2819.9 L 1345.9,2819.9 L 1345.9,2756.1 L 1295.8,2756.1 L 1295.8,2795.6 L 1321.6,2795.6 L 1321.6,2775.8 M1358.1,2819.9 L 1421.9,2819.9 L 1421.9,2756.1 L 1371.8,2756.1 L 1371.8,2795.6 L 1397.6,2795.6 L 1397.6,2775.8 M1434.1,2819.9 L 1497.9,2819.9 L 1497.9,2756.1 L 1447.8,2756.1 L 1447.8,2795.6 L 1473.6,2795.6 L 1473.6,2775.8 M1510.1,2819.9 L 1573.9,2819.9 L 1573.9,2756.1 L 1523.8,2756.1 L 1523.8,2795.6 L 1549.6,2795.6 L 1549.6,2775.8 M1586.1,2819.9 L 1649.9,2819.9 L 1649.9,2756.1 L 1599.8,2756.1 L 1599.8,2795.6 L 1625.6,2795.6 L 1625.6,2775.8 M1662.1,2819.9 L 1725.9,2819.9 L 1725.9,2756.1 L 1675.8,2756.1 L 1675.8,2795.6 L 1701.6,2795.6 L 1701.6,2775.8 M1738.1,2819.9 L 1801.9,2819.9 L 1801.9,2756.1 L 1751.8,2756.1 L 1751.8,2795.6 L 1777.6,2795.6 L 1777.6,2775.8 M1814.1,2819.9 L 1877.9,2819.9 L 1877.9,2756.1 L 1827.8,2756.1 L 1827.8,2795.6 L 1853.6,2795.6 L 1853.6,2775.8 M1890.1,2819.9 L 1953.9,2819.9 L 1953.9,2756.1 L 1903.8,2756.1 L 1903.8,2795.6 L 1929.6,2795.6 L 1929.6,2775.8 M1966.1,2819.9 L 2029.9,2819.9 L 2029.9,2756.1 L 1979.8,2756.1 L 1979.8,2795.6 L 2005.6,2795.6 L 2005.6,2775.8 " fill="none" stroke="#3d2f1c" stroke-width="9.9"/><rect x="130" y="130" width="2140" height="2740" fill="none" stroke="#3d2f1c" stroke-width="5"/><rect x="152" y="152" width="2096" height="2696" fill="none" stroke="#3d2f1c" stroke-width="2.5" opacity="0.8"/></g><rect width="2400" height="3000" filter="url(#a118-mottle)" style="mix-blend-mode:multiply" opacity="0.5"/><rect width="2400" height="3000" filter="url(#a118-fade)" style="mix-blend-mode:screen" opacity="0.55"/><rect width="2400" height="3000" filter="url(#a118-grain)" style="mix-blend-mode:multiply" opacity="0.32"/><ellipse cx="1942.3" cy="522.7" rx="297.3" ry="212.4" fill="#6b4a22" opacity="0.058" filter="url(#a118-blur9)"/><ellipse cx="923.9" cy="1854.5" rx="138.3" ry="139.1" fill="#6b4a22" opacity="0.026" filter="url(#a118-blur9)"/><ellipse cx="1236.7" cy="2250.3" rx="219.2" ry="234.3" fill="#6b4a22" opacity="0.048" filter="url(#a118-blur9)"/><ellipse cx="191.5" cy="1895.5" rx="258.1" ry="160.2" fill="#6b4a22" opacity="0.037" filter="url(#a118-blur9)"/><ellipse cx="1423.3" cy="2271.6" rx="147.6" ry="147.4" fill="#6b4a22" opacity="0.043" filter="url(#a118-blur9)"/><g opacity="0.3"><rect y="3" width="2400" height="2" fill="#e8dcc0"/><rect y="11" width="2400" height="2" fill="#e8dcc0"/><rect y="19" width="2400" height="2" fill="#e8dcc0"/><rect y="27" width="2400" height="2" fill="#e8dcc0"/><rect y="35" width="2400" height="2" fill="#e8dcc0"/><rect y="43" width="2400" height="2" fill="#e8dcc0"/><rect y="51" width="2400" height="2" fill="#e8dcc0"/><rect y="59" width="2400" height="2" fill="#e8dcc0"/><rect y="67" width="2400" height="2" fill="#e8dcc0"/><rect y="75" width="2400" height="2" fill="#e8dcc0"/><rect y="83" width="2400" height="2" fill="#e8dcc0"/><rect y="91" width="2400" height="2" fill="#e8dcc0"/><rect y="99" width="2400" height="2" fill="#e8dcc0"/><rect y="107" width="2400" height="2" fill="#e8dcc0"/><rect y="115" width="2400" height="2" fill="#e8dcc0"/><rect y="123" width="2400" height="2" fill="#e8dcc0"/><rect y="131" width="2400" height="2" fill="#e8dcc0"/><rect y="139" width="2400" height="2" fill="#e8dcc0"/><rect y="147" width="2400" height="2" fill="#e8dcc0"/><rect y="155" width="2400" height="2" fill="#e8dcc0"/><rect y="163" width="2400" height="2" fill="#e8dcc0"/><rect y="171" width="2400" height="2" fill="#e8dcc0"/><rect y="179" width="2400" height="2" fill="#e8dcc0"/><rect y="187" width="2400" height="2" fill="#e8dcc0"/><rect y="195" width="2400" height="2" fill="#e8dcc0"/><rect y="203" width="2400" height="2" fill="#e8dcc0"/><rect y="211" width="2400" height="2" fill="#e8dcc0"/><rect y="219" width="2400" height="2" fill="#e8dcc0"/><rect y="227" width="2400" height="2" fill="#e8dcc0"/><rect y="235" width="2400" height="2" fill="#e8dcc0"/><rect y="243" width="2400" height="2" fill="#e8dcc0"/><rect y="251" width="2400" height="2" fill="#e8dcc0"/><rect y="259" width="2400" height="2" fill="#e8dcc0"/><rect y="267" width="2400" height="2" fill="#e8dcc0"/><rect y="275" width="2400" height="2" fill="#e8dcc0"/><rect y="283" width="2400" height="2" fill="#e8dcc0"/><rect y="291" width="2400" height="2" fill="#e8dcc0"/><rect y="299" width="2400" height="2" fill="#e8dcc0"/><rect y="307" width="2400" height="2" fill="#e8dcc0"/><rect y="315" width="2400" height="2" fill="#e8dcc0"/><rect y="323" width="2400" height="2" fill="#e8dcc0"/><rect y="331" width="2400" height="2" fill="#e8dcc0"/><rect y="339" width="2400" height="2" fill="#e8dcc0"/><rect y="347" width="2400" height="2" fill="#e8dcc0"/><rect y="355" width="2400" height="2" fill="#e8dcc0"/><rect y="363" width="2400" height="2" fill="#e8dcc0"/><rect y="371" width="2400" height="2" fill="#e8dcc0"/><rect y="379" width="2400" height="2" fill="#e8dcc0"/><rect y="387" width="2400" height="2" fill="#e8dcc0"/><rect y="395" width="2400" height="2" fill="#e8dcc0"/><rect y="403" width="2400" height="2" fill="#e8dcc0"/><rect y="411" width="2400" height="2" fill="#e8dcc0"/><rect y="419" width="2400" height="2" fill="#e8dcc0"/><rect y="427" width="2400" height="2" fill="#e8dcc0"/><rect y="435" width="2400" height="2" fill="#e8dcc0"/><rect y="443" width="2400" height="2" fill="#e8dcc0"/><rect y="451" width="2400" height="2" fill="#e8dcc0"/><rect y="459" width="2400" height="2" fill="#e8dcc0"/><rect y="467" width="2400" height="2" fill="#e8dcc0"/><rect y="475" width="2400" height="2" fill="#e8dcc0"/><rect y="483" width="2400" height="2" fill="#e8dcc0"/><rect y="491" width="2400" height="2" fill="#e8dcc0"/><rect y="499" width="2400" height="2" fill="#e8dcc0"/><rect y="507" width="2400" height="2" fill="#e8dcc0"/><rect y="515" width="2400" height="2" fill="#e8dcc0"/><rect y="523" width="2400" height="2" fill="#e8dcc0"/><rect y="531" width="2400" height="2" fill="#e8dcc0"/><rect y="539" width="2400" height="2" fill="#e8dcc0"/><rect y="547" width="2400" height="2" fill="#e8dcc0"/><rect y="555" width="2400" height="2" fill="#e8dcc0"/><rect y="563" width="2400" height="2" fill="#e8dcc0"/><rect y="571" width="2400" height="2" fill="#e8dcc0"/><rect y="579" width="2400" height="2" fill="#e8dcc0"/><rect y="587" width="2400" height="2" fill="#e8dcc0"/><rect y="595" width="2400" height="2" fill="#e8dcc0"/><rect y="603" width="2400" height="2" fill="#e8dcc0"/><rect y="611" width="2400" height="2" fill="#e8dcc0"/><rect y="619" width="2400" height="2" fill="#e8dcc0"/><rect y="627" width="2400" height="2" fill="#e8dcc0"/><rect y="635" width="2400" height="2" fill="#e8dcc0"/><rect y="643" width="2400" height="2" fill="#e8dcc0"/><rect y="651" width="2400" height="2" fill="#e8dcc0"/><rect y="659" width="2400" height="2" fill="#e8dcc0"/><rect y="667" width="2400" height="2" fill="#e8dcc0"/><rect y="675" width="2400" height="2" fill="#e8dcc0"/><rect y="683" width="2400" height="2" fill="#e8dcc0"/><rect y="691" width="2400" height="2" fill="#e8dcc0"/><rect y="699" width="2400" height="2" fill="#e8dcc0"/><rect y="707" width="2400" height="2" fill="#e8dcc0"/><rect y="715" width="2400" height="2" fill="#e8dcc0"/><rect y="723" width="2400" height="2" fill="#e8dcc0"/><rect y="731" width="2400" height="2" fill="#e8dcc0"/><rect y="739" width="2400" height="2" fill="#e8dcc0"/><rect y="747" width="2400" height="2" fill="#e8dcc0"/><rect y="755" width="2400" height="2" fill="#e8dcc0"/><rect y="763" width="2400" height="2" fill="#e8dcc0"/><rect y="771" width="2400" height="2" fill="#e8dcc0"/><rect y="779" width="2400" height="2" fill="#e8dcc0"/><rect y="787" width="2400" height="2" fill="#e8dcc0"/><rect y="795" width="2400" height="2" fill="#e8dcc0"/><rect y="803" width="2400" height="2" fill="#e8dcc0"/><rect y="811" width="2400" height="2" fill="#e8dcc0"/><rect y="819" width="2400" height="2" fill="#e8dcc0"/><rect y="827" width="2400" height="2" fill="#e8dcc0"/><rect y="835" width="2400" height="2" fill="#e8dcc0"/><rect y="843" width="2400" height="2" fill="#e8dcc0"/><rect y="851" width="2400" height="2" fill="#e8dcc0"/><rect y="859" width="2400" height="2" fill="#e8dcc0"/><rect y="867" width="2400" height="2" fill="#e8dcc0"/><rect y="875" width="2400" height="2" fill="#e8dcc0"/><rect y="883" width="2400" height="2" fill="#e8dcc0"/><rect y="891" width="2400" height="2" fill="#e8dcc0"/><rect y="899" width="2400" height="2" fill="#e8dcc0"/><rect y="907" width="2400" height="2" fill="#e8dcc0"/><rect y="915" width="2400" height="2" fill="#e8dcc0"/><rect y="923" width="2400" height="2" fill="#e8dcc0"/><rect y="931" width="2400" height="2" fill="#e8dcc0"/><rect y="939" width="2400" height="2" fill="#e8dcc0"/><rect y="947" width="2400" height="2" fill="#e8dcc0"/><rect y="955" width="2400" height="2" fill="#e8dcc0"/><rect y="963" width="2400" height="2" fill="#e8dcc0"/><rect y="971" width="2400" height="2" fill="#e8dcc0"/><rect y="979" width="2400" height="2" fill="#e8dcc0"/><rect y="987" width="2400" height="2" fill="#e8dcc0"/><rect y="995" width="2400" height="2" fill="#e8dcc0"/><rect y="1003" width="2400" height="2" fill="#e8dcc0"/><rect y="1011" width="2400" height="2" fill="#e8dcc0"/><rect y="1019" width="2400" height="2" fill="#e8dcc0"/><rect y="1027" width="2400" height="2" fill="#e8dcc0"/><rect y="1035" width="2400" height="2" fill="#e8dcc0"/><rect y="1043" width="2400" height="2" fill="#e8dcc0"/><rect y="1051" width="2400" height="2" fill="#e8dcc0"/><rect y="1059" width="2400" height="2" fill="#e8dcc0"/><rect y="1067" width="2400" height="2" fill="#e8dcc0"/><rect y="1075" width="2400" height="2" fill="#e8dcc0"/><rect y="1083" width="2400" height="2" fill="#e8dcc0"/><rect y="1091" width="2400" height="2" fill="#e8dcc0"/><rect y="1099" width="2400" height="2" fill="#e8dcc0"/><rect y="1107" width="2400" height="2" fill="#e8dcc0"/><rect y="1115" width="2400" height="2" fill="#e8dcc0"/><rect y="1123" width="2400" height="2" fill="#e8dcc0"/><rect y="1131" width="2400" height="2" fill="#e8dcc0"/><rect y="1139" width="2400" height="2" fill="#e8dcc0"/><rect y="1147" width="2400" height="2" fill="#e8dcc0"/><rect y="1155" width="2400" height="2" fill="#e8dcc0"/><rect y="1163" width="2400" height="2" fill="#e8dcc0"/><rect y="1171" width="2400" height="2" fill="#e8dcc0"/><rect y="1179" width="2400" height="2" fill="#e8dcc0"/><rect y="1187" width="2400" height="2" fill="#e8dcc0"/><rect y="1195" width="2400" height="2" fill="#e8dcc0"/><rect y="1203" width="2400" height="2" fill="#e8dcc0"/><rect y="1211" width="2400" height="2" fill="#e8dcc0"/><rect y="1219" width="2400" height="2" fill="#e8dcc0"/><rect y="1227" width="2400" height="2" fill="#e8dcc0"/><rect y="1235" width="2400" height="2" fill="#e8dcc0"/><rect y="1243" width="2400" height="2" fill="#e8dcc0"/><rect y="1251" width="2400" height="2" fill="#e8dcc0"/><rect y="1259" width="2400" height="2" fill="#e8dcc0"/><rect y="1267" width="2400" height="2" fill="#e8dcc0"/><rect y="1275" width="2400" height="2" fill="#e8dcc0"/><rect y="1283" width="2400" height="2" fill="#e8dcc0"/><rect y="1291" width="2400" height="2" fill="#e8dcc0"/><rect y="1299" width="2400" height="2" fill="#e8dcc0"/><rect y="1307" width="2400" height="2" fill="#e8dcc0"/><rect y="1315" width="2400" height="2" fill="#e8dcc0"/><rect y="1323" width="2400" height="2" fill="#e8dcc0"/><rect y="1331" width="2400" height="2" fill="#e8dcc0"/><rect y="1339" width="2400" height="2" fill="#e8dcc0"/><rect y="1347" width="2400" height="2" fill="#e8dcc0"/><rect y="1355" width="2400" height="2" fill="#e8dcc0"/><rect y="1363" width="2400" height="2" fill="#e8dcc0"/><rect y="1371" width="2400" height="2" fill="#e8dcc0"/><rect y="1379" width="2400" height="2" fill="#e8dcc0"/><rect y="1387" width="2400" height="2" fill="#e8dcc0"/><rect y="1395" width="2400" height="2" fill="#e8dcc0"/><rect y="1403" width="2400" height="2" fill="#e8dcc0"/><rect y="1411" width="2400" height="2" fill="#e8dcc0"/><rect y="1419" width="2400" height="2" fill="#e8dcc0"/><rect y="1427" width="2400" height="2" fill="#e8dcc0"/><rect y="1435" width="2400" height="2" fill="#e8dcc0"/><rect y="1443" width="2400" height="2" fill="#e8dcc0"/><rect y="1451" width="2400" height="2" fill="#e8dcc0"/><rect y="1459" width="2400" height="2" fill="#e8dcc0"/><rect y="1467" width="2400" height="2" fill="#e8dcc0"/><rect y="1475" width="2400" height="2" fill="#e8dcc0"/><rect y="1483" width="2400" height="2" fill="#e8dcc0"/><rect y="1491" width="2400" height="2" fill="#e8dcc0"/><rect y="1499" width="2400" height="2" fill="#e8dcc0"/><rect y="1507" width="2400" height="2" fill="#e8dcc0"/><rect y="1515" width="2400" height="2" fill="#e8dcc0"/><rect y="1523" width="2400" height="2" fill="#e8dcc0"/><rect y="1531" width="2400" height="2" fill="#e8dcc0"/><rect y="1539" width="2400" height="2" fill="#e8dcc0"/><rect y="1547" width="2400" height="2" fill="#e8dcc0"/><rect y="1555" width="2400" height="2" fill="#e8dcc0"/><rect y="1563" width="2400" height="2" fill="#e8dcc0"/><rect y="1571" width="2400" height="2" fill="#e8dcc0"/><rect y="1579" width="2400" height="2" fill="#e8dcc0"/><rect y="1587" width="2400" height="2" fill="#e8dcc0"/><rect y="1595" width="2400" height="2" fill="#e8dcc0"/><rect y="1603" width="2400" height="2" fill="#e8dcc0"/><rect y="1611" width="2400" height="2" fill="#e8dcc0"/><rect y="1619" width="2400" height="2" fill="#e8dcc0"/><rect y="1627" width="2400" height="2" fill="#e8dcc0"/><rect y="1635" width="2400" height="2" fill="#e8dcc0"/><rect y="1643" width="2400" height="2" fill="#e8dcc0"/><rect y="1651" width="2400" height="2" fill="#e8dcc0"/><rect y="1659" width="2400" height="2" fill="#e8dcc0"/><rect y="1667" width="2400" height="2" fill="#e8dcc0"/><rect y="1675" width="2400" height="2" fill="#e8dcc0"/><rect y="1683" width="2400" height="2" fill="#e8dcc0"/><rect y="1691" width="2400" height="2" fill="#e8dcc0"/><rect y="1699" width="2400" height="2" fill="#e8dcc0"/><rect y="1707" width="2400" height="2" fill="#e8dcc0"/><rect y="1715" width="2400" height="2" fill="#e8dcc0"/><rect y="1723" width="2400" height="2" fill="#e8dcc0"/><rect y="1731" width="2400" height="2" fill="#e8dcc0"/><rect y="1739" width="2400" height="2" fill="#e8dcc0"/><rect y="1747" width="2400" height="2" fill="#e8dcc0"/><rect y="1755" width="2400" height="2" fill="#e8dcc0"/><rect y="1763" width="2400" height="2" fill="#e8dcc0"/><rect y="1771" width="2400" height="2" fill="#e8dcc0"/><rect y="1779" width="2400" height="2" fill="#e8dcc0"/><rect y="1787" width="2400" height="2" fill="#e8dcc0"/><rect y="1795" width="2400" height="2" fill="#e8dcc0"/><rect y="1803" width="2400" height="2" fill="#e8dcc0"/><rect y="1811" width="2400" height="2" fill="#e8dcc0"/><rect y="1819" width="2400" height="2" fill="#e8dcc0"/><rect y="1827" width="2400" height="2" fill="#e8dcc0"/><rect y="1835" width="2400" height="2" fill="#e8dcc0"/><rect y="1843" width="2400" height="2" fill="#e8dcc0"/><rect y="1851" width="2400" height="2" fill="#e8dcc0"/><rect y="1859" width="2400" height="2" fill="#e8dcc0"/><rect y="1867" width="2400" height="2" fill="#e8dcc0"/><rect y="1875" width="2400" height="2" fill="#e8dcc0"/><rect y="1883" width="2400" height="2" fill="#e8dcc0"/><rect y="1891" width="2400" height="2" fill="#e8dcc0"/><rect y="1899" width="2400" height="2" fill="#e8dcc0"/><rect y="1907" width="2400" height="2" fill="#e8dcc0"/><rect y="1915" width="2400" height="2" fill="#e8dcc0"/><rect y="1923" width="2400" height="2" fill="#e8dcc0"/><rect y="1931" width="2400" height="2" fill="#e8dcc0"/><rect y="1939" width="2400" height="2" fill="#e8dcc0"/><rect y="1947" width="2400" height="2" fill="#e8dcc0"/><rect y="1955" width="2400" height="2" fill="#e8dcc0"/><rect y="1963" width="2400" height="2" fill="#e8dcc0"/><rect y="1971" width="2400" height="2" fill="#e8dcc0"/><rect y="1979" width="2400" height="2" fill="#e8dcc0"/><rect y="1987" width="2400" height="2" fill="#e8dcc0"/><rect y="1995" width="2400" height="2" fill="#e8dcc0"/><rect y="2003" width="2400" height="2" fill="#e8dcc0"/><rect y="2011" width="2400" height="2" fill="#e8dcc0"/><rect y="2019" width="2400" height="2" fill="#e8dcc0"/><rect y="2027" width="2400" height="2" fill="#e8dcc0"/><rect y="2035" width="2400" height="2" fill="#e8dcc0"/><rect y="2043" width="2400" height="2" fill="#e8dcc0"/><rect y="2051" width="2400" height="2" fill="#e8dcc0"/><rect y="2059" width="2400" height="2" fill="#e8dcc0"/><rect y="2067" width="2400" height="2" fill="#e8dcc0"/><rect y="2075" width="2400" height="2" fill="#e8dcc0"/><rect y="2083" width="2400" height="2" fill="#e8dcc0"/><rect y="2091" width="2400" height="2" fill="#e8dcc0"/><rect y="2099" width="2400" height="2" fill="#e8dcc0"/><rect y="2107" width="2400" height="2" fill="#e8dcc0"/><rect y="2115" width="2400" height="2" fill="#e8dcc0"/><rect y="2123" width="2400" height="2" fill="#e8dcc0"/><rect y="2131" width="2400" height="2" fill="#e8dcc0"/><rect y="2139" width="2400" height="2" fill="#e8dcc0"/><rect y="2147" width="2400" height="2" fill="#e8dcc0"/><rect y="2155" width="2400" height="2" fill="#e8dcc0"/><rect y="2163" width="2400" height="2" fill="#e8dcc0"/><rect y="2171" width="2400" height="2" fill="#e8dcc0"/><rect y="2179" width="2400" height="2" fill="#e8dcc0"/><rect y="2187" width="2400" height="2" fill="#e8dcc0"/><rect y="2195" width="2400" height="2" fill="#e8dcc0"/><rect y="2203" width="2400" height="2" fill="#e8dcc0"/><rect y="2211" width="2400" height="2" fill="#e8dcc0"/><rect y="2219" width="2400" height="2" fill="#e8dcc0"/><rect y="2227" width="2400" height="2" fill="#e8dcc0"/><rect y="2235" width="2400" height="2" fill="#e8dcc0"/><rect y="2243" width="2400" height="2" fill="#e8dcc0"/><rect y="2251" width="2400" height="2" fill="#e8dcc0"/><rect y="2259" width="2400" height="2" fill="#e8dcc0"/><rect y="2267" width="2400" height="2" fill="#e8dcc0"/><rect y="2275" width="2400" height="2" fill="#e8dcc0"/><rect y="2283" width="2400" height="2" fill="#e8dcc0"/><rect y="2291" width="2400" height="2" fill="#e8dcc0"/><rect y="2299" width="2400" height="2" fill="#e8dcc0"/><rect y="2307" width="2400" height="2" fill="#e8dcc0"/><rect y="2315" width="2400" height="2" fill="#e8dcc0"/><rect y="2323" width="2400" height="2" fill="#e8dcc0"/><rect y="2331" width="2400" height="2" fill="#e8dcc0"/><rect y="2339" width="2400" height="2" fill="#e8dcc0"/><rect y="2347" width="2400" height="2" fill="#e8dcc0"/><rect y="2355" width="2400" height="2" fill="#e8dcc0"/><rect y="2363" width="2400" height="2" fill="#e8dcc0"/><rect y="2371" width="2400" height="2" fill="#e8dcc0"/><rect y="2379" width="2400" height="2" fill="#e8dcc0"/><rect y="2387" width="2400" height="2" fill="#e8dcc0"/><rect y="2395" width="2400" height="2" fill="#e8dcc0"/><rect y="2403" width="2400" height="2" fill="#e8dcc0"/><rect y="2411" width="2400" height="2" fill="#e8dcc0"/><rect y="2419" width="2400" height="2" fill="#e8dcc0"/><rect y="2427" width="2400" height="2" fill="#e8dcc0"/><rect y="2435" width="2400" height="2" fill="#e8dcc0"/><rect y="2443" width="2400" height="2" fill="#e8dcc0"/><rect y="2451" width="2400" height="2" fill="#e8dcc0"/><rect y="2459" width="2400" height="2" fill="#e8dcc0"/><rect y="2467" width="2400" height="2" fill="#e8dcc0"/><rect y="2475" width="2400" height="2" fill="#e8dcc0"/><rect y="2483" width="2400" height="2" fill="#e8dcc0"/><rect y="2491" width="2400" height="2" fill="#e8dcc0"/><rect y="2499" width="2400" height="2" fill="#e8dcc0"/><rect y="2507" width="2400" height="2" fill="#e8dcc0"/><rect y="2515" width="2400" height="2" fill="#e8dcc0"/><rect y="2523" width="2400" height="2" fill="#e8dcc0"/><rect y="2531" width="2400" height="2" fill="#e8dcc0"/><rect y="2539" width="2400" height="2" fill="#e8dcc0"/><rect y="2547" width="2400" height="2" fill="#e8dcc0"/><rect y="2555" width="2400" height="2" fill="#e8dcc0"/><rect y="2563" width="2400" height="2" fill="#e8dcc0"/><rect y="2571" width="2400" height="2" fill="#e8dcc0"/><rect y="2579" width="2400" height="2" fill="#e8dcc0"/><rect y="2587" width="2400" height="2" fill="#e8dcc0"/><rect y="2595" width="2400" height="2" fill="#e8dcc0"/><rect y="2603" width="2400" height="2" fill="#e8dcc0"/><rect y="2611" width="2400" height="2" fill="#e8dcc0"/><rect y="2619" width="2400" height="2" fill="#e8dcc0"/><rect y="2627" width="2400" height="2" fill="#e8dcc0"/><rect y="2635" width="2400" height="2" fill="#e8dcc0"/><rect y="2643" width="2400" height="2" fill="#e8dcc0"/><rect y="2651" width="2400" height="2" fill="#e8dcc0"/><rect y="2659" width="2400" height="2" fill="#e8dcc0"/><rect y="2667" width="2400" height="2" fill="#e8dcc0"/><rect y="2675" width="2400" height="2" fill="#e8dcc0"/><rect y="2683" width="2400" height="2" fill="#e8dcc0"/><rect y="2691" width="2400" height="2" fill="#e8dcc0"/><rect y="2699" width="2400" height="2" fill="#e8dcc0"/><rect y="2707" width="2400" height="2" fill="#e8dcc0"/><rect y="2715" width="2400" height="2" fill="#e8dcc0"/><rect y="2723" width="2400" height="2" fill="#e8dcc0"/><rect y="2731" width="2400" height="2" fill="#e8dcc0"/><rect y="2739" width="2400" height="2" fill="#e8dcc0"/><rect y="2747" width="2400" height="2" fill="#e8dcc0"/><rect y="2755" width="2400" height="2" fill="#e8dcc0"/><rect y="2763" width="2400" height="2" fill="#e8dcc0"/><rect y="2771" width="2400" height="2" fill="#e8dcc0"/><rect y="2779" width="2400" height="2" fill="#e8dcc0"/><rect y="2787" width="2400" height="2" fill="#e8dcc0"/><rect y="2795" width="2400" height="2" fill="#e8dcc0"/><rect y="2803" width="2400" height="2" fill="#e8dcc0"/><rect y="2811" width="2400" height="2" fill="#e8dcc0"/><rect y="2819" width="2400" height="2" fill="#e8dcc0"/><rect y="2827" width="2400" height="2" fill="#e8dcc0"/><rect y="2835" width="2400" height="2" fill="#e8dcc0"/><rect y="2843" width="2400" height="2" fill="#e8dcc0"/><rect y="2851" width="2400" height="2" fill="#e8dcc0"/><rect y="2859" width="2400" height="2" fill="#e8dcc0"/><rect y="2867" width="2400" height="2" fill="#e8dcc0"/><rect y="2875" width="2400" height="2" fill="#e8dcc0"/><rect y="2883" width="2400" height="2" fill="#e8dcc0"/><rect y="2891" width="2400" height="2" fill="#e8dcc0"/><rect y="2899" width="2400" height="2" fill="#e8dcc0"/><rect y="2907" width="2400" height="2" fill="#e8dcc0"/><rect y="2915" width="2400" height="2" fill="#e8dcc0"/><rect y="2923" width="2400" height="2" fill="#e8dcc0"/><rect y="2931" width="2400" height="2" fill="#e8dcc0"/><rect y="2939" width="2400" height="2" fill="#e8dcc0"/><rect y="2947" width="2400" height="2" fill="#e8dcc0"/><rect y="2955" width="2400" height="2" fill="#e8dcc0"/><rect y="2963" width="2400" height="2" fill="#e8dcc0"/><rect y="2971" width="2400" height="2" fill="#e8dcc0"/><rect y="2979" width="2400" height="2" fill="#e8dcc0"/><rect y="2987" width="2400" height="2" fill="#e8dcc0"/><rect y="2995" width="2400" height="2" fill="#e8dcc0"/></g><rect x="88" y="88" width="2224" height="2824" fill="none" stroke="#3a2c1a" stroke-width="4" opacity="0.2"/><rect x="94" y="94" width="2212" height="2812" fill="none" stroke="#fff6e0" stroke-width="2" opacity="0.25"/><circle cx="275.1" cy="100.6" r="5.6" fill="#8a5a2e" opacity="0.088"/><circle cx="641.8" cy="2281.6" r="6.3" fill="#8a5a2e" opacity="0.070"/><circle cx="164.9" cy="2719.5" r="13.5" fill="#8a5a2e" opacity="0.048"/><circle cx="1051.7" cy="1844.9" r="4.7" fill="#8a5a2e" opacity="0.130"/><circle cx="1797.1" cy="317.6" r="9.1" fill="#8a5a2e" opacity="0.077"/><circle cx="2022.6" cy="566.2" r="6.8" fill="#8a5a2e" opacity="0.112"/><circle cx="2215.7" cy="2250.2" r="9.6" fill="#8a5a2e" opacity="0.126"/><circle cx="1627.8" cy="1137.1" r="8.1" fill="#8a5a2e" opacity="0.073"/><circle cx="2077.1" cy="655" r="10.9" fill="#8a5a2e" opacity="0.126"/><circle cx="858.4" cy="677.1" r="6" fill="#8a5a2e" opacity="0.094"/><circle cx="332.7" cy="130.3" r="12.1" fill="#8a5a2e" opacity="0.072"/><circle cx="615" cy="2044.8" r="15.3" fill="#8a5a2e" opacity="0.047"/><circle cx="179.6" cy="1522.6" r="3.9" fill="#8a5a2e" opacity="0.123"/><circle cx="1912" cy="453.1" r="10.6" fill="#8a5a2e" opacity="0.076"/><circle cx="2018.1" cy="1941.7" r="14.7" fill="#8a5a2e" opacity="0.043"/><circle cx="2188.9" cy="1346.4" r="3.2" fill="#8a5a2e" opacity="0.086"/><circle cx="992.4" cy="2908.5" r="13.4" fill="#8a5a2e" opacity="0.097"/><circle cx="615.2" cy="2687.9" r="14.2" fill="#8a5a2e" opacity="0.116"/><circle cx="362.2" cy="1331.1" r="12.4" fill="#8a5a2e" opacity="0.120"/><circle cx="650.3" cy="1616" r="9.1" fill="#8a5a2e" opacity="0.120"/><circle cx="2184.2" cy="410.2" r="8.8" fill="#8a5a2e" opacity="0.129"/><circle cx="1324.8" cy="2847.1" r="13.8" fill="#8a5a2e" opacity="0.040"/><circle cx="883.6" cy="951.9" r="6.3" fill="#8a5a2e" opacity="0.074"/><circle cx="1434.4" cy="1730.8" r="13.3" fill="#8a5a2e" opacity="0.118"/><circle cx="941" cy="2149.4" r="14.6" fill="#8a5a2e" opacity="0.124"/><circle cx="1262.8" cy="1669.1" r="6.7" fill="#8a5a2e" opacity="0.068"/><circle cx="1339.1" cy="319.8" r="9" fill="#8a5a2e" opacity="0.047"/><circle cx="2291" cy="765.2" r="15.8" fill="#8a5a2e" opacity="0.088"/><circle cx="1833.3" cy="1408.6" r="8" fill="#8a5a2e" opacity="0.063"/><circle cx="2011.2" cy="2359.2" r="12.5" fill="#8a5a2e" opacity="0.065"/><rect width="2400" height="3000" fill="url(#a118-vig)"/></svg></svg>