<svg xmlns="http://www.w3.org/2000/svg" width="2400" height="1800" viewBox="0 0 2400 1800"><rect width="2400" height="1800" fill="#e3dccd"/><rect x="160" y="240" width="560" height="1060" fill="none" stroke="#cabfa9" stroke-width="10"/><rect x="200" y="280" width="480" height="980" fill="none" stroke="#cabfa9" stroke-width="5"/><rect x="1680" y="240" width="560" height="1060" fill="none" stroke="#cabfa9" stroke-width="10"/><rect x="1720" y="280" width="480" height="980" fill="none" stroke="#cabfa9" stroke-width="5"/><rect y="1380" width="2400" height="420" fill="#a98f6d"/><line x1="0" y1="1380" x2="-70" y2="1800" stroke="#00000018" stroke-width="6"/><line x1="190" y1="1380" x2="120" y2="1800" stroke="#00000018" stroke-width="6"/><line x1="380" y1="1380" x2="310" y2="1800" stroke="#00000018" stroke-width="6"/><line x1="570" y1="1380" x2="500" y2="1800" stroke="#00000018" stroke-width="6"/><line x1="760" y1="1380" x2="690" y2="1800" stroke="#00000018" stroke-width="6"/><line x1="950" y1="1380" x2="880" y2="1800" stroke="#00000018" stroke-width="6"/><line x1="1140" y1="1380" x2="1070" y2="1800" stroke="#00000018" stroke-width="6"/><line x1="1330" y1="1380" x2="1260" y2="1800" stroke="#00000018" stroke-width="6"/><line x1="1520" y1="1380" x2="1450" y2="1800" stroke="#00000018" stroke-width="6"/><line x1="1710" y1="1380" x2="1640" y2="1800" stroke="#00000018" stroke-width="6"/><line x1="1900" y1="1380" x2="1830" y2="1800" stroke="#00000018" stroke-width="6"/><line x1="2090" y1="1380" x2="2020" y2="1800" stroke="#00000018" stroke-width="6"/><line x1="2280" y1="1380" x2="2210" y2="1800" stroke="#00000018" stroke-width="6"/><rect y="1364" width="2400" height="18" fill="#d3c8b2"/><path d="M700,1500 L1700,1500 L1860,1800 L540,1800 Z" fill="#b3502f" opacity="0.75"/><path d="M760,1540 L1640,1540 L1760,1760 L640,1760 Z" fill="none" stroke="#f4ecdd" stroke-width="10" opacity="0.8"/><rect x="880" y="1180" width="640" height="40" rx="8" fill="#6f5436"/><rect x="920" y="1220" width="44" height="240" fill="#5e4629"/><rect x="1436" y="1220" width="44" height="240" fill="#5e4629"/><path d="M1160,1180 q -14,-90 40,-160 M1200,1180 q 4,-120 -10,-200 M1230,1180 q 30,-90 90,-130" stroke="#5d7052" stroke-width="12" fill="none" stroke-linecap="round"/><path d="M1150,1180 L1250,1180 L1230,1080 L1170,1080 Z" fill="#cdb488" transform="translate(0,0)"/><path d="M1155,1060 h90 l-12,124 h-66 Z" fill="#b98a5a"/><rect x="1380" y="1120" width="18" height="60" fill="#8f6b3d"/><ellipse cx="1389" cy="1116" rx="16" ry="10" fill="#c9a227"/><defs><filter id="a173h-sh" x="-30%" y="-30%" width="160%" height="160%"><feGaussianBlur stdDeviation="16"/></filter></defs><rect x="950" y="258" width="528" height="648" fill="#000" opacity="0.28" filter="url(#a173h-sh)"/><rect x="936" y="236" width="528" height="648" fill="#33291f"/><rect x="951.6" y="251.6" width="496.8" height="616.8" fill="none" stroke="#00000055" stroke-width="3"/><rect x="960" y="260" width="480" height="600" fill="#f6f2ea"/><svg x="996" y="296" width="408" height="528" viewBox="0 0 2400 3000" preserveAspectRatio="xMidYMid slice"><rect width="2400" height="3000" fill="#e4cfa4"/><radialGradient id="a173-vig" cx="50%" cy="42%" r="80%"><stop offset="55%" stop-color="#000" stop-opacity="0"/><stop offset="100%" stop-color="#000" stop-opacity="0.15"/></radialGradient><rect width="2400" height="3000" fill="url(#a173-vig)"/><circle cx="2297.3" cy="87.4" r="2.5" fill="#6e421d" opacity="0.037"/><circle cx="1029.9" cy="631.1" r="3.7" fill="#6e421d" opacity="0.055"/><circle cx="1800.5" cy="1768.9" r="1.8" fill="#6e421d" opacity="0.041"/><circle cx="579.5" cy="76.3" r="3.1" fill="#6e421d" opacity="0.068"/><circle cx="1691" cy="1869" r="3.2" fill="#6e421d" opacity="0.072"/><circle cx="234.9" cy="2665.5" r="3.2" fill="#6e421d" opacity="0.038"/><circle cx="1093.8" cy="295.9" r="4" fill="#6e421d" opacity="0.065"/><circle cx="1877.9" cy="2684.4" r="2.3" fill="#6e421d" opacity="0.045"/><circle cx="1977" cy="762.7" r="3.9" fill="#6e421d" opacity="0.068"/><circle cx="1469.4" cy="1079" r="2.8" fill="#6e421d" opacity="0.033"/><circle cx="1544.9" cy="1141.2" r="2.7" fill="#6e421d" opacity="0.053"/><circle cx="109.6" cy="2599.4" r="1.9" fill="#6e421d" opacity="0.066"/><circle cx="1301.9" cy="740.3" r="3.5" fill="#6e421d" opacity="0.078"/><circle cx="1150.2" cy="1786" r="1.7" fill="#6e421d" opacity="0.034"/><circle cx="151.1" cy="1777.6" r="3.4" fill="#6e421d" opacity="0.044"/><circle cx="1406.6" cy="671" r="2.2" fill="#6e421d" opacity="0.052"/><circle cx="2170.2" cy="629.2" r="2.6" fill="#6e421d" opacity="0.078"/><circle cx="910.3" cy="665.1" r="4.3" fill="#6e421d" opacity="0.036"/><circle cx="2006.9" cy="2719.6" r="4.1" fill="#6e421d" opacity="0.055"/><circle cx="1106.3" cy="872.8" r="2" fill="#6e421d" opacity="0.043"/><circle cx="680" cy="1939.9" r="1.6" fill="#6e421d" opacity="0.035"/><circle cx="125.3" cy="299" r="4" fill="#6e421d" opacity="0.061"/><circle cx="1695.1" cy="2894.8" r="2.2" fill="#6e421d" opacity="0.062"/><circle cx="1775.6" cy="2007.4" r="2.8" fill="#6e421d" opacity="0.031"/><circle cx="785.3" cy="2791.6" r="4.3" fill="#6e421d" opacity="0.056"/><circle cx="1547.9" cy="1100.6" r="2.9" fill="#6e421d" opacity="0.079"/><circle cx="676.9" cy="992.4" r="1.9" fill="#6e421d" opacity="0.044"/><circle cx="269.3" cy="1881.9" r="2.3" fill="#6e421d" opacity="0.077"/><circle cx="2341.7" cy="1492.4" r="3.5" fill="#6e421d" opacity="0.051"/><circle cx="953" cy="1533.5" r="2.2" fill="#6e421d" opacity="0.076"/><circle cx="325" cy="1921" r="2" fill="#6e421d" opacity="0.034"/><circle cx="1733.6" cy="2066.7" r="2.3" fill="#6e421d" opacity="0.031"/><circle cx="261.8" cy="1374.6" r="3.7" fill="#6e421d" opacity="0.059"/><circle cx="2177.8" cy="721.8" r="3.1" fill="#6e421d" opacity="0.045"/><circle cx="1578" cy="287.7" r="2.6" fill="#6e421d" opacity="0.065"/><circle cx="2016.5" cy="889.7" r="3.7" fill="#6e421d" opacity="0.041"/><circle cx="2132.6" cy="836.3" r="3.4" fill="#6e421d" opacity="0.031"/><circle cx="1940.3" cy="1988" r="2.1" fill="#6e421d" opacity="0.031"/><circle cx="1303.4" cy="730.7" r="3" fill="#6e421d" opacity="0.075"/><circle cx="1158.8" cy="1227.6" r="2.8" fill="#6e421d" opacity="0.040"/><circle cx="1028.6" cy="1907.6" r="3.1" fill="#6e421d" opacity="0.054"/><circle cx="2073.7" cy="1486.9" r="4.1" fill="#6e421d" opacity="0.039"/><circle cx="106.3" cy="2151.3" r="1.5" fill="#6e421d" opacity="0.047"/><circle cx="665.6" cy="932.9" r="4.1" fill="#6e421d" opacity="0.035"/><circle cx="439.9" cy="111.1" r="3.4" fill="#6e421d" opacity="0.036"/><circle cx="2044" cy="2283.3" r="3" fill="#6e421d" opacity="0.032"/><circle cx="2196.2" cy="2094.4" r="3.2" fill="#6e421d" opacity="0.053"/><circle cx="1319.9" cy="2834.9" r="2.9" fill="#6e421d" opacity="0.060"/><circle cx="1905.6" cy="962" r="2.3" fill="#6e421d" opacity="0.071"/><circle cx="267.1" cy="554.4" r="2.1" fill="#6e421d" opacity="0.067"/><circle cx="1321.9" cy="2786.4" r="2" fill="#6e421d" opacity="0.067"/><circle cx="314.5" cy="1801.9" r="3.7" fill="#6e421d" opacity="0.052"/><circle cx="524.6" cy="2520.7" r="3.8" fill="#6e421d" opacity="0.069"/><circle cx="972" cy="114.7" r="2.8" fill="#6e421d" opacity="0.042"/><circle cx="1467.6" cy="2755.7" r="2.8" fill="#6e421d" opacity="0.079"/><circle cx="1374.4" cy="2060" r="3.1" fill="#6e421d" opacity="0.077"/><circle cx="2243" cy="1878.7" r="3.8" fill="#6e421d" opacity="0.048"/><circle cx="867" cy="373" r="3.5" fill="#6e421d" opacity="0.043"/><circle cx="2320" cy="912.6" r="4.5" fill="#6e421d" opacity="0.044"/><circle cx="1267.9" cy="1051.9" r="3.3" fill="#6e421d" opacity="0.067"/><circle cx="292.3" cy="836.2" r="3" fill="#6e421d" opacity="0.047"/><circle cx="377.9" cy="2582.3" r="1.9" fill="#6e421d" opacity="0.045"/><circle cx="969.9" cy="1467.6" r="3.7" fill="#6e421d" opacity="0.033"/><circle cx="444.6" cy="765.6" r="3.4" fill="#6e421d" opacity="0.034"/><circle cx="1392.3" cy="226.8" r="2.1" fill="#6e421d" opacity="0.031"/><circle cx="2150.5" cy="1448.9" r="2.4" fill="#6e421d" opacity="0.068"/><circle cx="1149.9" cy="927.7" r="3.4" fill="#6e421d" opacity="0.062"/><circle cx="854.4" cy="773" r="3.7" fill="#6e421d" opacity="0.054"/><circle cx="73.2" cy="1207.8" r="1.6" fill="#6e421d" opacity="0.044"/><circle cx="264.7" cy="2301.5" r="2.1" fill="#6e421d" opacity="0.064"/><circle cx="2329.4" cy="1026.1" r="3.9" fill="#6e421d" opacity="0.069"/><circle cx="802.2" cy="2839" r="2.4" fill="#6e421d" opacity="0.054"/><circle cx="236.3" cy="1875.7" r="2.9" fill="#6e421d" opacity="0.068"/><circle cx="518.6" cy="1338.7" r="1.5" fill="#6e421d" opacity="0.056"/><circle cx="1398.8" cy="2731.8" r="3.1" fill="#6e421d" opacity="0.041"/><circle cx="977.1" cy="919" r="3.5" fill="#6e421d" opacity="0.035"/><circle cx="1258" cy="2063.5" r="3.3" fill="#6e421d" opacity="0.048"/><circle cx="1207" cy="2569.7" r="2.4" fill="#6e421d" opacity="0.030"/><circle cx="1653.2" cy="2662.1" r="2" fill="#6e421d" opacity="0.045"/><circle cx="615.2" cy="1564" r="2.2" fill="#6e421d" opacity="0.044"/><rect x="190" y="190" width="2020" height="2620" fill="none" stroke="#6e421d" stroke-width="14"/><rect x="260" y="260" width="1880" height="2480" fill="none" stroke="#6e421d" stroke-width="7"/><rect x="148" y="148" width="84" height="84" fill="#b3502f"/><rect x="148" y="2768" width="84" height="84" fill="#b3502f"/><rect x="2168" y="148" width="84" height="84" fill="#b3502f"/><rect x="2168" y="2768" width="84" height="84" fill="#b3502f"/><circle cx="1200" cy="1300" r="210" fill="#b3502f"/><circle cx="1200" cy="1300" r="252" fill="none" stroke="#6e421d" stroke-width="18"/><line x1="1040" y1="1320" x2="182.1" y2="1290" stroke="#6e421d" stroke-width="34" stroke-linecap="round"/><line x1="1040" y1="1320" x2="198.8" y2="1230.6" stroke="#6e421d" stroke-width="34" stroke-linecap="round"/><line x1="1040" y1="1320" x2="231.9" y2="1172.9" stroke="#6e421d" stroke-width="34" stroke-linecap="round"/><line x1="1040" y1="1320" x2="280.7" y2="1118.1" stroke="#6e421d" stroke-width="34" stroke-linecap="round"/><line x1="1040" y1="1320" x2="344.2" y2="1067.3" stroke="#6e421d" stroke-width="34" stroke-linecap="round"/><line x1="1040" y1="1320" x2="421.4" y2="1021.3" stroke="#6e421d" stroke-width="34" stroke-linecap="round"/><line x1="1040" y1="1320" x2="510.5" y2="981.2" stroke="#6e421d" stroke-width="34" stroke-linecap="round"/><line x1="1040" y1="1320" x2="610" y2="947.6" stroke="#6e421d" stroke-width="34" stroke-linecap="round"/><line x1="1040" y1="1320" x2="361.7" y2="1296.3" stroke="#6e421d" stroke-width="30" stroke-linecap="round"/><line x1="1040" y1="1320" x2="374.9" y2="1249.3" stroke="#6e421d" stroke-width="30" stroke-linecap="round"/><line x1="1040" y1="1320" x2="401" y2="1203.7" stroke="#6e421d" stroke-width="30" stroke-linecap="round"/><line x1="1040" y1="1320" x2="439.6" y2="1160.4" stroke="#6e421d" stroke-width="30" stroke-linecap="round"/><line x1="1040" y1="1320" x2="489.9" y2="1120.2" stroke="#6e421d" stroke-width="30" stroke-linecap="round"/><line x1="1040" y1="1320" x2="550.8" y2="1083.8" stroke="#6e421d" stroke-width="30" stroke-linecap="round"/><line x1="1040" y1="1320" x2="621.4" y2="1052.1" stroke="#6e421d" stroke-width="30" stroke-linecap="round"/><line x1="1040" y1="1320" x2="700" y2="1025.6" stroke="#6e421d" stroke-width="30" stroke-linecap="round"/><line x1="1040" y1="1320" x2="541.2" y2="1302.6" stroke="#6e421d" stroke-width="26" stroke-linecap="round"/><line x1="1040" y1="1320" x2="550.9" y2="1268" stroke="#6e421d" stroke-width="26" stroke-linecap="round"/><line x1="1040" y1="1320" x2="570.2" y2="1234.5" stroke="#6e421d" stroke-width="26" stroke-linecap="round"/><line x1="1040" y1="1320" x2="598.5" y2="1202.6" stroke="#6e421d" stroke-width="26" stroke-linecap="round"/><line x1="1040" y1="1320" x2="635.5" y2="1173.1" stroke="#6e421d" stroke-width="26" stroke-linecap="round"/><line x1="1040" y1="1320" x2="680.3" y2="1146.3" stroke="#6e421d" stroke-width="26" stroke-linecap="round"/><line x1="1040" y1="1320" x2="732.2" y2="1123" stroke="#6e421d" stroke-width="26" stroke-linecap="round"/><line x1="1040" y1="1320" x2="790" y2="1103.5" stroke="#6e421d" stroke-width="26" stroke-linecap="round"/><path d="M1070,1500 q -40,260 -200,380" fill="none" stroke="#6e421d" stroke-width="30" stroke-linecap="round"/><line x1="1360" y1="1320" x2="2217.9" y2="1290" stroke="#6e421d" stroke-width="34" stroke-linecap="round"/><line x1="1360" y1="1320" x2="2201.2" y2="1230.6" stroke="#6e421d" stroke-width="34" stroke-linecap="round"/><line x1="1360" y1="1320" x2="2168.1" y2="1172.9" stroke="#6e421d" stroke-width="34" stroke-linecap="round"/><line x1="1360" y1="1320" x2="2119.3" y2="1118.1" stroke="#6e421d" stroke-width="34" stroke-linecap="round"/><line x1="1360" y1="1320" x2="2055.8" y2="1067.3" stroke="#6e421d" stroke-width="34" stroke-linecap="round"/><line x1="1360" y1="1320" x2="1978.6" y2="1021.3" stroke="#6e421d" stroke-width="34" stroke-linecap="round"/><line x1="1360" y1="1320" x2="1889.5" y2="981.2" stroke="#6e421d" stroke-width="34" stroke-linecap="round"/><line x1="1360" y1="1320" x2="1790" y2="947.6" stroke="#6e421d" stroke-width="34" stroke-linecap="round"/><line x1="1360" y1="1320" x2="2038.3" y2="1296.3" stroke="#6e421d" stroke-width="30" stroke-linecap="round"/><line x1="1360" y1="1320" x2="2025.1" y2="1249.3" stroke="#6e421d" stroke-width="30" stroke-linecap="round"/><line x1="1360" y1="1320" x2="1999" y2="1203.7" stroke="#6e421d" stroke-width="30" stroke-linecap="round"/><line x1="1360" y1="1320" x2="1960.4" y2="1160.4" stroke="#6e421d" stroke-width="30" stroke-linecap="round"/><line x1="1360" y1="1320" x2="1910.1" y2="1120.2" stroke="#6e421d" stroke-width="30" stroke-linecap="round"/><line x1="1360" y1="1320" x2="1849.2" y2="1083.8" stroke="#6e421d" stroke-width="30" stroke-linecap="round"/><line x1="1360" y1="1320" x2="1778.6" y2="1052.1" stroke="#6e421d" stroke-width="30" stroke-linecap="round"/><line x1="1360" y1="1320" x2="1700" y2="1025.6" stroke="#6e421d" stroke-width="30" stroke-linecap="round"/><line x1="1360" y1="1320" x2="1858.8" y2="1302.6" stroke="#6e421d" stroke-width="26" stroke-linecap="round"/><line x1="1360" y1="1320" x2="1849.1" y2="1268" stroke="#6e421d" stroke-width="26" stroke-linecap="round"/><line x1="1360" y1="1320" x2="1829.8" y2="1234.5" stroke="#6e421d" stroke-width="26" stroke-linecap="round"/><line x1="1360" y1="1320" x2="1801.5" y2="1202.6" stroke="#6e421d" stroke-width="26" stroke-linecap="round"/><line x1="1360" y1="1320" x2="1764.5" y2="1173.1" stroke="#6e421d" stroke-width="26" stroke-linecap="round"/><line x1="1360" y1="1320" x2="1719.7" y2="1146.3" stroke="#6e421d" stroke-width="26" stroke-linecap="round"/><line x1="1360" y1="1320" x2="1667.8" y2="1123" stroke="#6e421d" stroke-width="26" stroke-linecap="round"/><line x1="1360" y1="1320" x2="1610" y2="1103.5" stroke="#6e421d" stroke-width="26" stroke-linecap="round"/><path d="M1330,1500 q 40,260 200,380" fill="none" stroke="#6e421d" stroke-width="30" stroke-linecap="round"/><polygon points="878.6,2531.1 886.3,2550.4 905.6,2558 886.3,2565.6 878.6,2585 871,2565.6 851.7,2558 871,2550.4 " fill="#b3502f"/><polygon points="1467.4,2460.2 1479.1,2489.9 1508.8,2501.6 1479.1,2513.4 1467.4,2543.1 1455.7,2513.4 1426,2501.6 1455.7,2489.9 " fill="#b3502f"/><polygon points="1935.6,2487.8 1947.2,2517.4 1976.8,2529 1947.2,2540.7 1935.6,2570.3 1923.9,2540.7 1894.3,2529 1923.9,2517.4 " fill="#b3502f"/><polygon points="1806.2,407.6 1815.4,431 1838.7,440.2 1815.4,449.4 1806.2,472.8 1796.9,449.4 1773.6,440.2 1796.9,431 " fill="#b3502f"/><polygon points="1043.3,2449.8 1054.9,2479.3 1084.4,2490.9 1054.9,2502.5 1043.3,2531.9 1031.7,2502.5 1002.2,2490.9 1031.7,2479.3 " fill="#b3502f"/><polygon points="899,2492 908.4,2515.8 932.3,2525.2 908.4,2534.6 899,2558.4 889.6,2534.6 865.8,2525.2 889.6,2515.8 " fill="#b3502f"/><rect x="100" y="100" width="2200" height="2800" fill="none" stroke="#6e421d" stroke-width="9"/><rect x="142" y="142" width="2116" height="2716" fill="none" stroke="#6e421d" stroke-width="3" opacity="0.65"/></svg></svg>