<svg xmlns="http://www.w3.org/2000/svg" width="2400" height="1800" viewBox="0 0 2400 1800"><rect width="2400" height="1800" fill="#dfe4dc"/><rect y="1400" width="2400" height="400" fill="#c2a67e"/><line x1="60" y1="1400" x2="10" y2="1800" stroke="#00000015" stroke-width="5"/><line x1="260" y1="1400" x2="210" y2="1800" stroke="#00000015" stroke-width="5"/><line x1="460" y1="1400" x2="410" y2="1800" stroke="#00000015" stroke-width="5"/><line x1="660" y1="1400" x2="610" y2="1800" stroke="#00000015" stroke-width="5"/><line x1="860" y1="1400" x2="810" y2="1800" stroke="#00000015" stroke-width="5"/><line x1="1060" y1="1400" x2="1010" y2="1800" stroke="#00000015" stroke-width="5"/><line x1="1260" y1="1400" x2="1210" y2="1800" stroke="#00000015" stroke-width="5"/><line x1="1460" y1="1400" x2="1410" y2="1800" stroke="#00000015" stroke-width="5"/><line x1="1660" y1="1400" x2="1610" y2="1800" stroke="#00000015" stroke-width="5"/><line x1="1860" y1="1400" x2="1810" y2="1800" stroke="#00000015" stroke-width="5"/><line x1="2060" y1="1400" x2="2010" y2="1800" stroke="#00000015" stroke-width="5"/><line x1="2260" y1="1400" x2="2210" y2="1800" stroke="#00000015" stroke-width="5"/><rect x="180" y="260" width="900" height="620" fill="#8a6a48"/><rect x="215" y="295" width="830" height="550" fill="#41524a"/><line x1="280" y1="420" x2="760" y2="420" stroke="#ffffff66" stroke-width="9" stroke-linecap="round"/><line x1="280" y1="520" x2="620" y2="520" stroke="#ffffff44" stroke-width="9" stroke-linecap="round"/><circle cx="880" cy="560" r="90" fill="none" stroke="#ffffff55" stroke-width="8"/><rect x="215" y="845" width="830" height="22" fill="#6f5436"/><rect x="330" y="1240" width="640" height="60" rx="10" fill="#9c7449"/><rect x="370" y="1300" width="60" height="240" fill="#8a6540"/><rect x="870" y="1300" width="60" height="240" fill="#8a6540"/><rect x="430" y="1160" width="150" height="80" rx="8" fill="#b3502f"/><rect x="450" y="1120" width="150" height="40" rx="8" fill="#cbb488"/><circle cx="800" cy="1130" r="86" fill="#7fa3b8"/><path d="M760,1060 Q820,1100 780,1190 M740,1090 Q800,1120 850,1100" stroke="#5d8069" stroke-width="16" fill="none" stroke-linecap="round"/><circle cx="800" cy="1130" r="86" fill="none" stroke="#6b5233" stroke-width="7"/><line x1="800" y1="1216" x2="800" y2="1250" stroke="#6b5233" stroke-width="10"/><rect x="750" y="1244" width="100" height="14" rx="7" fill="#6b5233"/><rect x="1980" y="700" width="300" height="800" fill="#9c7449"/><rect x="2000" y="930" width="260" height="16" fill="#7c5a37"/><rect x="2020" y="790" width="36" height="140" fill="#b3502f"/><rect x="2066" y="802" width="36" height="128" fill="#39685c"/><rect x="2112" y="790" width="36" height="140" fill="#c9a227"/><rect x="2158" y="802" width="36" height="128" fill="#2c4661"/><rect x="2204" y="790" width="36" height="140" fill="#8a4423"/><rect x="2000" y="1180" width="260" height="16" fill="#7c5a37"/><rect x="2020" y="1040" width="36" height="140" fill="#39685c"/><rect x="2066" y="1052" width="36" height="128" fill="#c9a227"/><rect x="2112" y="1040" width="36" height="140" fill="#2c4661"/><rect x="2158" y="1052" width="36" height="128" fill="#8a4423"/><rect x="2204" y="1040" width="36" height="140" fill="#b3502f"/><rect x="2000" y="1430" width="260" height="16" fill="#7c5a37"/><rect x="2020" y="1290" width="36" height="140" fill="#c9a227"/><rect x="2066" y="1302" width="36" height="128" fill="#2c4661"/><rect x="2112" y="1290" width="36" height="140" fill="#8a4423"/><rect x="2158" y="1302" width="36" height="128" fill="#b3502f"/><rect x="2204" y="1290" width="36" height="140" fill="#39685c"/><defs><filter id="a195c-sh" x="-30%" y="-30%" width="160%" height="160%"><feGaussianBlur stdDeviation="16"/></filter></defs><rect x="1340.5" y="298.5" width="517" height="635" fill="#000" opacity="0.28" filter="url(#a195c-sh)"/><rect x="1326.5" y="276.5" width="517" height="635" fill="#3d342a"/><rect x="1341.8" y="291.8" width="486.4" height="604.5" fill="none" stroke="#00000055" stroke-width="3"/><rect x="1350" y="300" width="470" height="588" fill="#f6f2ea"/><svg x="1385.3" y="335.3" width="399.5" height="517.5" viewBox="0 0 2400 3000" preserveAspectRatio="xMidYMid slice"><filter id="a195-warp" x="-4%" y="-4%" width="108%" height="108%"><feTurbulence type="fractalNoise" baseFrequency="0.0105" numOctaves="2" seed="7537" result="w"/><feDisplacementMap in="SourceGraphic" in2="w" scale="12" xChannelSelector="R" yChannelSelector="G"/></filter><filter id="a195-grain" x="0%" y="0%" width="100%" height="100%"><feTurbulence type="fractalNoise" baseFrequency="0.6" numOctaves="2" seed="7544"/><feColorMatrix type="matrix" values="0.33 0.33 0.33 0 0.62  0.33 0.33 0.33 0 0.62  0.33 0.33 0.33 0 0.62  0 0 0 0 1"/></filter><filter id="a195-mottle" x="0%" y="0%" width="100%" height="100%"><feTurbulence type="fractalNoise" baseFrequency="0.0045" numOctaves="3" seed="7550"/><feColorMatrix type="matrix" values="0.2 0.2 0.2 0 0.78  0.2 0.2 0.2 0 0.78  0.2 0.2 0.2 0 0.78  0 0 0 0 1"/></filter><filter id="a195-fade" x="0%" y="0%" width="100%" height="100%"><feTurbulence type="fractalNoise" baseFrequency="0.006" numOctaves="2" seed="7566"/><feColorMatrix type="matrix" values="0.3 0.3 0.3 0 -0.08  0.3 0.3 0.3 0 -0.08  0.3 0.3 0.3 0 -0.1  0 0 0 0 1"/></filter><filter id="a195-blur9"><feGaussianBlur stdDeviation="9"/></filter><radialGradient id="a195-vig" cx="50%" cy="44%" r="78%"><stop offset="52%" stop-color="#241a10" stop-opacity="0"/><stop offset="100%" stop-color="#241a10" stop-opacity="0.17"/></radialGradient><radialGradient id="a195-warm" cx="47%" cy="30%" r="85%"><stop offset="0%" stop-color="#e8c890" stop-opacity="0.14"/><stop offset="70%" stop-color="#e8c890" stop-opacity="0"/></radialGradient><rect width="2400" height="3000" fill="#e7dbbe"/><rect width="2400" height="3000" fill="url(#a195-warm)"/><rect y="2095.1" width="2400" height="317.3" fill="#8a6a40" opacity="0.024" transform="rotate(-0.2 1200 2095.1)"/><rect y="2312.9" width="2400" height="238.8" fill="#ffffff" opacity="0.037" transform="rotate(-0.7 1200 2312.9)"/><rect y="288" width="2400" height="156.2" fill="#8a6a40" opacity="0.040" transform="rotate(1.3 1200 288)"/><rect y="2460.9" width="2400" height="384.1" fill="#ffffff" opacity="0.034" transform="rotate(-1.5 1200 2460.9)"/><rect y="1361.6" width="2400" height="416.3" fill="#8a6a40" opacity="0.034" transform="rotate(-0.6 1200 1361.6)"/><rect y="2027.7" width="2400" height="318.9" fill="#ffffff" opacity="0.035" transform="rotate(1.4 1200 2027.7)"/><rect y="205.7" width="2400" height="152.1" fill="#8a6a40" opacity="0.033" transform="rotate(-1.7 1200 205.7)"/><g filter="url(#a195-warp)"><circle cx="1200" cy="1420" r="900" fill="none" stroke="#875a28" stroke-width="12"/><line x1="2066" y1="1420" x2="2100" y2="1420" stroke="#875a28" stroke-width="8"/><line x1="2058.6" y1="1533" x2="2092.3" y2="1537.5" stroke="#875a28" stroke-width="8"/><line x1="2036.5" y1="1644.1" x2="2069.3" y2="1652.9" stroke="#875a28" stroke-width="8"/><line x1="2000.1" y1="1751.4" x2="2031.5" y2="1764.4" stroke="#875a28" stroke-width="8"/><line x1="1950" y1="1853" x2="1979.4" y2="1870" stroke="#875a28" stroke-width="8"/><line x1="1887" y1="1947.2" x2="1914" y2="1967.9" stroke="#875a28" stroke-width="8"/><line x1="1812.4" y1="2032.4" x2="1836.4" y2="2056.4" stroke="#875a28" stroke-width="8"/><line x1="1727.2" y1="2107" x2="1747.9" y2="2134" stroke="#875a28" stroke-width="8"/><line x1="1633" y1="2170" x2="1650" y2="2199.4" stroke="#875a28" stroke-width="8"/><line x1="1531.4" y1="2220.1" x2="1544.4" y2="2251.5" stroke="#875a28" stroke-width="8"/><line x1="1424.1" y1="2256.5" x2="1432.9" y2="2289.3" stroke="#875a28" stroke-width="8"/><line x1="1313" y1="2278.6" x2="1317.5" y2="2312.3" stroke="#875a28" stroke-width="8"/><line x1="1200" y1="2286" x2="1200" y2="2320" stroke="#875a28" stroke-width="8"/><line x1="1087" y1="2278.6" x2="1082.5" y2="2312.3" stroke="#875a28" stroke-width="8"/><line x1="975.9" y1="2256.5" x2="967.1" y2="2289.3" stroke="#875a28" stroke-width="8"/><line x1="868.6" y1="2220.1" x2="855.6" y2="2251.5" stroke="#875a28" stroke-width="8"/><line x1="767" y1="2170" x2="750" y2="2199.4" stroke="#875a28" stroke-width="8"/><line x1="672.8" y1="2107" x2="652.1" y2="2134" stroke="#875a28" stroke-width="8"/><line x1="587.6" y1="2032.4" x2="563.6" y2="2056.4" stroke="#875a28" stroke-width="8"/><line x1="513" y1="1947.2" x2="486" y2="1967.9" stroke="#875a28" stroke-width="8"/><line x1="450" y1="1853" x2="420.6" y2="1870" stroke="#875a28" stroke-width="8"/><line x1="399.9" y1="1751.4" x2="368.5" y2="1764.4" stroke="#875a28" stroke-width="8"/><line x1="363.5" y1="1644.1" x2="330.7" y2="1652.9" stroke="#875a28" stroke-width="8"/><line x1="341.4" y1="1533" x2="307.7" y2="1537.5" stroke="#875a28" stroke-width="8"/><line x1="334" y1="1420" x2="300" y2="1420" stroke="#875a28" stroke-width="8"/><line x1="341.4" y1="1307" x2="307.7" y2="1302.5" stroke="#875a28" stroke-width="8"/><line x1="363.5" y1="1195.9" x2="330.7" y2="1187.1" stroke="#875a28" stroke-width="8"/><line x1="399.9" y1="1088.6" x2="368.5" y2="1075.6" stroke="#875a28" stroke-width="8"/><line x1="450" y1="987" x2="420.6" y2="970" stroke="#875a28" stroke-width="8"/><line x1="513" y1="892.8" x2="486" y2="872.1" stroke="#875a28" stroke-width="8"/><line x1="587.6" y1="807.6" x2="563.6" y2="783.6" stroke="#875a28" stroke-width="8"/><line x1="672.8" y1="733" x2="652.1" y2="706" stroke="#875a28" stroke-width="8"/><line x1="767" y1="670" x2="750" y2="640.6" stroke="#875a28" stroke-width="8"/><line x1="868.6" y1="619.9" x2="855.6" y2="588.5" stroke="#875a28" stroke-width="8"/><line x1="975.9" y1="583.5" x2="967.1" y2="550.7" stroke="#875a28" stroke-width="8"/><line x1="1087" y1="561.4" x2="1082.5" y2="527.7" stroke="#875a28" stroke-width="8"/><line x1="1200" y1="554" x2="1200" y2="520" stroke="#875a28" stroke-width="8"/><line x1="1313" y1="561.4" x2="1317.5" y2="527.7" stroke="#875a28" stroke-width="8"/><line x1="1424.1" y1="583.5" x2="1432.9" y2="550.7" stroke="#875a28" stroke-width="8"/><line x1="1531.4" y1="619.9" x2="1544.4" y2="588.5" stroke="#875a28" stroke-width="8"/><line x1="1633" y1="670" x2="1650" y2="640.6" stroke="#875a28" stroke-width="8"/><line x1="1727.2" y1="733" x2="1747.9" y2="706" stroke="#875a28" stroke-width="8"/><line x1="1812.4" y1="807.6" x2="1836.4" y2="783.6" stroke="#875a28" stroke-width="8"/><line x1="1887" y1="892.8" x2="1914" y2="872.1" stroke="#875a28" stroke-width="8"/><line x1="1950" y1="987" x2="1979.4" y2="970" stroke="#875a28" stroke-width="8"/><line x1="2000.1" y1="1088.6" x2="2031.5" y2="1075.6" stroke="#875a28" stroke-width="8"/><line x1="2036.5" y1="1195.9" x2="2069.3" y2="1187.1" stroke="#875a28" stroke-width="8"/><line x1="2058.6" y1="1307" x2="2092.3" y2="1302.5" stroke="#875a28" stroke-width="8"/><polygon points="2010,1420 1809.4,1363.1 1809.4,1476.9" fill="#875a28"/><polygon points="1988.2,1606.8 1806,1505.2 1779.8,1615.9" fill="#b3502f"/><polygon points="1923.8,1783.5 1770.1,1642.6 1719,1744.3" fill="#875a28"/><polygon points="1820.5,1940.7 1703.4,1768.1 1630.2,1855.3" fill="#b3502f"/><polygon points="1683.7,2069.7 1609.5,1874.8 1518.2,1942.7" fill="#875a28"/><polygon points="1520.8,2163.8 1493.6,1957 1389.1,2002" fill="#b3502f"/><polygon points="1340.7,2217.7 1361.8,2010.2 1249.8,2030" fill="#875a28"/><polygon points="1152.9,2228.6 1221.4,2031.6 1107.8,2025" fill="#b3502f"/><polygon points="967.7,2196 1079.7,2020.1 970.7,1987.4" fill="#875a28"/><polygon points="795,2121.5 944.6,1976.2 846.1,1919.3" fill="#b3502f"/><polygon points="644.1,2009.2 823.2,1902.3 740.5,1824.2" fill="#875a28"/><polygon points="523.3,1865.1 722.2,1802.4 659.6,1707.3" fill="#b3502f"/><polygon points="438.8,1697 646.9,1681.9 607.9,1575" fill="#875a28"/><polygon points="395.5,1514 601.4,1547.2 588.2,1434.2" fill="#b3502f"/><polygon points="395.5,1326 588.2,1405.8 601.4,1292.8" fill="#875a28"/><polygon points="438.8,1143 607.9,1265 646.9,1158.1" fill="#b3502f"/><polygon points="523.3,974.9 659.6,1132.7 722.2,1037.6" fill="#875a28"/><polygon points="644.1,830.8 740.5,1015.8 823.2,937.7" fill="#b3502f"/><polygon points="795,718.5 846.1,920.7 944.6,863.8" fill="#875a28"/><polygon points="967.7,644 970.7,852.6 1079.7,819.9" fill="#b3502f"/><polygon points="1152.9,611.4 1107.8,815 1221.4,808.4" fill="#875a28"/><polygon points="1340.7,622.3 1249.8,810 1361.8,829.8" fill="#b3502f"/><polygon points="1520.8,676.2 1389.1,838 1493.6,883" fill="#875a28"/><polygon points="1683.7,770.3 1518.2,897.3 1609.5,965.2" fill="#b3502f"/><polygon points="1820.5,899.3 1630.2,984.7 1703.4,1071.9" fill="#875a28"/><polygon points="1923.8,1056.5 1719,1095.7 1770.1,1197.4" fill="#b3502f"/><polygon points="1988.2,1233.2 1779.8,1224.1 1806,1334.8" fill="#875a28"/><circle cx="1200" cy="1420" r="558" fill="none" stroke="#875a28" stroke-width="8"/><path d="M0 0 Q 67.5 -198.4 0 -522 Q -67.5 -198.4 0 0 Z" fill="#b3502f" opacity="0.96" transform="translate(1209.8 1422) rotate(191.3)"/><path d="M0 0 Q 67.5 -198.4 0 -522 Q -67.5 -198.4 0 0 Z" fill="#875a28" opacity="0.96" transform="translate(1208.3 1425.6) rotate(213.8)"/><path d="M0 0 Q 67.5 -198.4 0 -522 Q -67.5 -198.4 0 0 Z" fill="#b3502f" opacity="0.96" transform="translate(1205.6 1428.3) rotate(236.3)"/><path d="M0 0 Q 67.5 -198.4 0 -522 Q -67.5 -198.4 0 0 Z" fill="#875a28" opacity="0.96" transform="translate(1202 1429.8) rotate(258.8)"/><path d="M0 0 Q 67.5 -198.4 0 -522 Q -67.5 -198.4 0 0 Z" fill="#b3502f" opacity="0.96" transform="translate(1198 1429.8) rotate(281.3)"/><path d="M0 0 Q 67.5 -198.4 0 -522 Q -67.5 -198.4 0 0 Z" fill="#875a28" opacity="0.96" transform="translate(1194.4 1428.3) rotate(303.8)"/><path d="M0 0 Q 67.5 -198.4 0 -522 Q -67.5 -198.4 0 0 Z" fill="#b3502f" opacity="0.96" transform="translate(1191.7 1425.6) rotate(326.3)"/><path d="M0 0 Q 67.5 -198.4 0 -522 Q -67.5 -198.4 0 0 Z" fill="#875a28" opacity="0.96" transform="translate(1190.2 1422) rotate(348.8)"/><path d="M0 0 Q 67.5 -198.4 0 -522 Q -67.5 -198.4 0 0 Z" fill="#b3502f" opacity="0.96" transform="translate(1190.2 1418) rotate(371.3)"/><path d="M0 0 Q 67.5 -198.4 0 -522 Q -67.5 -198.4 0 0 Z" fill="#875a28" opacity="0.96" transform="translate(1191.7 1414.4) rotate(393.8)"/><path d="M0 0 Q 67.5 -198.4 0 -522 Q -67.5 -198.4 0 0 Z" fill="#b3502f" opacity="0.96" transform="translate(1194.4 1411.7) rotate(416.3)"/><path d="M0 0 Q 67.5 -198.4 0 -522 Q -67.5 -198.4 0 0 Z" fill="#875a28" opacity="0.96" transform="translate(1198 1410.2) rotate(438.8)"/><path d="M0 0 Q 67.5 -198.4 0 -522 Q -67.5 -198.4 0 0 Z" fill="#b3502f" opacity="0.96" transform="translate(1202 1410.2) rotate(461.3)"/><path d="M0 0 Q 67.5 -198.4 0 -522 Q -67.5 -198.4 0 0 Z" fill="#875a28" opacity="0.96" transform="translate(1205.6 1411.7) rotate(483.8)"/><path d="M0 0 Q 67.5 -198.4 0 -522 Q -67.5 -198.4 0 0 Z" fill="#b3502f" opacity="0.96" transform="translate(1208.3 1414.4) rotate(506.3)"/><path d="M0 0 Q 67.5 -198.4 0 -522 Q -67.5 -198.4 0 0 Z" fill="#875a28" opacity="0.96" transform="translate(1209.8 1418) rotate(528.8)"/><path d="M0 0 Q 76.5 -116.3 0 -306 Q -76.5 -116.3 0 0 Z" fill="#cbb488" opacity="0.98" transform="translate(1200 1420) rotate(180)"/><path d="M0 0 Q 76.5 -116.3 0 -306 Q -76.5 -116.3 0 0 Z" fill="#cbb488" opacity="0.98" transform="translate(1200 1420) rotate(225)"/><path d="M0 0 Q 76.5 -116.3 0 -306 Q -76.5 -116.3 0 0 Z" fill="#cbb488" opacity="0.98" transform="translate(1200 1420) rotate(270)"/><path d="M0 0 Q 76.5 -116.3 0 -306 Q -76.5 -116.3 0 0 Z" fill="#cbb488" opacity="0.98" transform="translate(1200 1420) rotate(315)"/><path d="M0 0 Q 76.5 -116.3 0 -306 Q -76.5 -116.3 0 0 Z" fill="#cbb488" opacity="0.98" transform="translate(1200 1420) rotate(360)"/><path d="M0 0 Q 76.5 -116.3 0 -306 Q -76.5 -116.3 0 0 Z" fill="#cbb488" opacity="0.98" transform="translate(1200 1420) rotate(405)"/><path d="M0 0 Q 76.5 -116.3 0 -306 Q -76.5 -116.3 0 0 Z" fill="#cbb488" opacity="0.98" transform="translate(1200 1420) rotate(450)"/><path d="M0 0 Q 76.5 -116.3 0 -306 Q -76.5 -116.3 0 0 Z" fill="#cbb488" opacity="0.98" transform="translate(1200 1420) rotate(495)"/><circle cx="1200" cy="1420" r="110" fill="#875a28"/><circle cx="1200" cy="1420" r="44" fill="#b3502f"/><circle cx="388" cy="208" r="14.6" fill="#875a28"/><circle cx="444" cy="208" r="14.6" fill="#875a28"/><circle cx="500" cy="208" r="14.6" fill="#875a28"/><circle cx="556" cy="208" r="14.6" fill="#875a28"/><circle cx="612" cy="208" r="14.6" fill="#875a28"/><circle cx="668" cy="208" r="14.6" fill="#875a28"/><circle cx="724" cy="208" r="14.6" fill="#875a28"/><circle cx="780" cy="208" r="14.6" fill="#875a28"/><circle cx="836" cy="208" r="14.6" fill="#875a28"/><circle cx="892" cy="208" r="14.6" fill="#875a28"/><circle cx="948" cy="208" r="14.6" fill="#875a28"/><circle cx="1004" cy="208" r="14.6" fill="#875a28"/><circle cx="1060" cy="208" r="14.6" fill="#875a28"/><circle cx="1116" cy="208" r="14.6" fill="#875a28"/><circle cx="1172" cy="208" r="14.6" fill="#875a28"/><circle cx="1228" cy="208" r="14.6" fill="#875a28"/><circle cx="1284" cy="208" r="14.6" fill="#875a28"/><circle cx="1340" cy="208" r="14.6" fill="#875a28"/><circle cx="1396" cy="208" r="14.6" fill="#875a28"/><circle cx="1452" cy="208" r="14.6" fill="#875a28"/><circle cx="1508" cy="208" r="14.6" fill="#875a28"/><circle cx="1564" cy="208" r="14.6" fill="#875a28"/><circle cx="1620" cy="208" r="14.6" fill="#875a28"/><circle cx="1676" cy="208" r="14.6" fill="#875a28"/><circle cx="1732" cy="208" r="14.6" fill="#875a28"/><circle cx="1788" cy="208" r="14.6" fill="#875a28"/><circle cx="1844" cy="208" r="14.6" fill="#875a28"/><circle cx="1900" cy="208" r="14.6" fill="#875a28"/><circle cx="1956" cy="208" r="14.6" fill="#875a28"/><circle cx="2012" cy="208" r="14.6" fill="#875a28"/><circle cx="388" cy="2792" r="14.6" fill="#875a28"/><circle cx="444" cy="2792" r="14.6" fill="#875a28"/><circle cx="500" cy="2792" r="14.6" fill="#875a28"/><circle cx="556" cy="2792" r="14.6" fill="#875a28"/><circle cx="612" cy="2792" r="14.6" fill="#875a28"/><circle cx="668" cy="2792" r="14.6" fill="#875a28"/><circle cx="724" cy="2792" r="14.6" fill="#875a28"/><circle cx="780" cy="2792" r="14.6" fill="#875a28"/><circle cx="836" cy="2792" r="14.6" fill="#875a28"/><circle cx="892" cy="2792" r="14.6" fill="#875a28"/><circle cx="948" cy="2792" r="14.6" fill="#875a28"/><circle cx="1004" cy="2792" r="14.6" fill="#875a28"/><circle cx="1060" cy="2792" r="14.6" fill="#875a28"/><circle cx="1116" cy="2792" r="14.6" fill="#875a28"/><circle cx="1172" cy="2792" r="14.6" fill="#875a28"/><circle cx="1228" cy="2792" r="14.6" fill="#875a28"/><circle cx="1284" cy="2792" r="14.6" fill="#875a28"/><circle cx="1340" cy="2792" r="14.6" fill="#875a28"/><circle cx="1396" cy="2792" r="14.6" fill="#875a28"/><circle cx="1452" cy="2792" r="14.6" fill="#875a28"/><circle cx="1508" cy="2792" r="14.6" fill="#875a28"/><circle cx="1564" cy="2792" r="14.6" fill="#875a28"/><circle cx="1620" cy="2792" r="14.6" fill="#875a28"/><circle cx="1676" cy="2792" r="14.6" fill="#875a28"/><circle cx="1732" cy="2792" r="14.6" fill="#875a28"/><circle cx="1788" cy="2792" r="14.6" fill="#875a28"/><circle cx="1844" cy="2792" r="14.6" fill="#875a28"/><circle cx="1900" cy="2792" r="14.6" fill="#875a28"/><circle cx="1956" cy="2792" r="14.6" fill="#875a28"/><circle cx="2012" cy="2792" r="14.6" fill="#875a28"/><rect x="104" y="104" width="2192" height="2792" fill="none" stroke="#875a28" stroke-width="16" opacity="0.85"/><rect x="150" y="150" width="2100" height="2700" fill="none" stroke="#875a28" stroke-width="4" opacity="0.55"/></g><rect width="2400" height="3000" filter="url(#a195-mottle)" style="mix-blend-mode:multiply" opacity="0.5"/><rect width="2400" height="3000" filter="url(#a195-fade)" style="mix-blend-mode:screen" opacity="0.55"/><rect width="2400" height="3000" filter="url(#a195-grain)" style="mix-blend-mode:multiply" opacity="0.32"/><ellipse cx="1612.7" cy="832.2" rx="99.2" ry="100.3" fill="#6b4a22" opacity="0.027" filter="url(#a195-blur9)"/><ellipse cx="951.6" cy="1984.8" rx="299.6" ry="187" fill="#6b4a22" opacity="0.036" filter="url(#a195-blur9)"/><ellipse cx="1497.8" cy="1780.3" rx="309.1" ry="283.3" fill="#6b4a22" opacity="0.068" filter="url(#a195-blur9)"/><polyline points="801.3,2347.2 827.3,2293.7 948,2257 1068.3,2295.7 1125.3,2279.2 1259.9,2324.2 1346.9,2373.6" fill="none" stroke="#2e2116" stroke-width="3.5" opacity="0.21" stroke-linejoin="round"/><polyline points="801.3,2347.2 827.3,2293.7 948,2257 1068.3,2295.7 1125.3,2279.2 1259.9,2324.2 1346.9,2373.6" fill="none" stroke="#fff8ea" stroke-width="2.4" opacity="0.11" transform="translate(2.5 2.5)" stroke-linejoin="round"/><polyline points="941,2531 992.2,2565.3 1089.5,2568.5 1138.8,2584.6 1274.8,2604.5 1353.4,2674.5 1425.3,2708.2 1459.1,2756.6 1556.7,2780.7 1623.7,2762.2" fill="none" stroke="#2e2116" stroke-width="2.9" opacity="0.17" stroke-linejoin="round"/><polyline points="941,2531 992.2,2565.3 1089.5,2568.5 1138.8,2584.6 1274.8,2604.5 1353.4,2674.5 1425.3,2708.2 1459.1,2756.6 1556.7,2780.7 1623.7,2762.2" fill="none" stroke="#fff8ea" stroke-width="2" opacity="0.08" transform="translate(2.5 2.5)" stroke-linejoin="round"/><polyline points="1419.2,266.2 1321.4,197 1278.8,80.9 1170,8.3 1151.1,-42.1 1209.8,-174.1" fill="none" stroke="#2e2116" stroke-width="2.5" opacity="0.25" stroke-linejoin="round"/><polyline points="1419.2,266.2 1321.4,197 1278.8,80.9 1170,8.3 1151.1,-42.1 1209.8,-174.1" fill="none" stroke="#fff8ea" stroke-width="1.7" opacity="0.14" transform="translate(2.5 2.5)" stroke-linejoin="round"/><polyline points="645,2179.2 681.2,2215 738.4,2293.4 750.4,2351.4 741.8,2403.3 698.1,2480.1 662.4,2545 674.7,2648.5 620.4,2747 587.3,2801 574.2,2850.3 536.9,2929" fill="none" stroke="#2e2116" stroke-width="3.9" opacity="0.26" stroke-linejoin="round"/><polyline points="645,2179.2 681.2,2215 738.4,2293.4 750.4,2351.4 741.8,2403.3 698.1,2480.1 662.4,2545 674.7,2648.5 620.4,2747 587.3,2801 574.2,2850.3 536.9,2929" fill="none" stroke="#fff8ea" stroke-width="2.7" opacity="0.13" transform="translate(2.5 2.5)" stroke-linejoin="round"/><polyline points="2172,1391.9 2185,1325.6 2294.3,1251.2 2394.8,1275.6 2508.6,1284.5 2633.6,1342 2755.9,1344.7 2804.6,1324.2 2854.1,1233.1 2919.5,1104.7 2946.6,1003 2920.6,871.1" fill="none" stroke="#2e2116" stroke-width="2.3" opacity="0.23" stroke-linejoin="round"/><polyline points="2172,1391.9 2185,1325.6 2294.3,1251.2 2394.8,1275.6 2508.6,1284.5 2633.6,1342 2755.9,1344.7 2804.6,1324.2 2854.1,1233.1 2919.5,1104.7 2946.6,1003 2920.6,871.1" fill="none" stroke="#fff8ea" stroke-width="1.6" opacity="0.10" transform="translate(2.5 2.5)" stroke-linejoin="round"/><polyline points="1463.5,1032.7 1516.9,970.3 1597.7,885.1 1601.2,826 1514.4,719.6 1508.8,642.2 1470.1,517.7 1334,458.6 1241.5,389.4" fill="none" stroke="#2e2116" stroke-width="3.9" opacity="0.29" stroke-linejoin="round"/><polyline points="1463.5,1032.7 1516.9,970.3 1597.7,885.1 1601.2,826 1514.4,719.6 1508.8,642.2 1470.1,517.7 1334,458.6 1241.5,389.4" fill="none" stroke="#fff8ea" stroke-width="2.8" opacity="0.15" transform="translate(2.5 2.5)" stroke-linejoin="round"/><polyline points="781.4,2190.9 683.5,2288.6 652.8,2354.3 638.2,2425.9 564.9,2513.5 496.5,2513.9" fill="none" stroke="#2e2116" stroke-width="4.2" opacity="0.27" stroke-linejoin="round"/><polyline points="781.4,2190.9 683.5,2288.6 652.8,2354.3 638.2,2425.9 564.9,2513.5 496.5,2513.9" fill="none" stroke="#fff8ea" stroke-width="3" opacity="0.11" transform="translate(2.5 2.5)" stroke-linejoin="round"/><polyline points="431,255.8 403.4,143 317.2,95.7 193.2,118.3 165,163.1 112.9,191.5 41.8,236.4 14.3,360.9 49.3,472.9 71.7,607 165.4,717.2 241.9,715 277.8,677.4" fill="none" stroke="#2e2116" stroke-width="3.1" opacity="0.16" stroke-linejoin="round"/><polyline points="431,255.8 403.4,143 317.2,95.7 193.2,118.3 165,163.1 112.9,191.5 41.8,236.4 14.3,360.9 49.3,472.9 71.7,607 165.4,717.2 241.9,715 277.8,677.4" fill="none" stroke="#fff8ea" stroke-width="2.2" opacity="0.13" transform="translate(2.5 2.5)" stroke-linejoin="round"/><path d="M2179.6,2542.3 Q2142.8,2564.7 2103.6,2563.8 Q2064.5,2562.9 2021.1,2559 Q1977.8,2555.2 1997.2,2520.8 Q2016.6,2486.4 2039.1,2478.2 Q2061.6,2470 2102.8,2466.7 Q2144,2463.4 2180.2,2491.6 Q2216.3,2519.9 2179.6,2542.3 Z" fill="#e7dbbe" opacity="0.93"/><path d="M1651.4,1203.6 Q1648.5,1218.9 1608.1,1222.9 Q1567.8,1226.8 1535.8,1214.1 Q1503.8,1201.5 1501.8,1189.1 Q1499.8,1176.7 1536.1,1163.4 Q1572.4,1150.1 1604.7,1160.7 Q1637,1171.3 1645.7,1179.8 Q1654.4,1188.4 1651.4,1203.6 Z" fill="#e7dbbe" opacity="0.82"/><path d="M1644.6,2575.4 Q1636.1,2606 1613.6,2615.1 Q1591,2624.2 1579.9,2597.1 Q1568.8,2570 1572.7,2543.4 Q1576.5,2516.8 1585.8,2499.6 Q1595,2482.4 1609.2,2476.9 Q1623.4,2471.5 1638.3,2508.1 Q1653.2,2544.7 1644.6,2575.4 Z" fill="#e7dbbe" opacity="0.90"/><path d="M1068.2,1320.3 Q1058.9,1349.4 1047.6,1365.2 Q1036.4,1381 1028.6,1350.7 Q1020.7,1320.4 1021,1292.1 Q1021.4,1263.8 1027,1236.4 Q1032.6,1209 1048,1213.9 Q1063.4,1218.8 1070.5,1255 Q1077.6,1291.1 1068.2,1320.3 Z" fill="#e7dbbe" opacity="0.76"/><path d="M1692.2,1781.6 Q1685.6,1797.2 1668.6,1800.9 Q1651.5,1804.7 1635.7,1796.6 Q1619.9,1788.4 1627.7,1769.3 Q1635.5,1750.2 1643.9,1733.3 Q1652.2,1716.4 1667.6,1726.4 Q1683.1,1736.3 1690.9,1751.2 Q1698.8,1766 1692.2,1781.6 Z" fill="#e7dbbe" opacity="0.88"/><rect width="2400" height="3000" fill="url(#a195-vig)"/></svg></svg>