<svg xmlns="http://www.w3.org/2000/svg" width="2400" height="1800" viewBox="0 0 2400 1800"><rect width="2400" height="1800" fill="#e9e1d2"/><rect y="1430" width="2400" height="370" fill="#c8b190"/><line x1="120" y1="1430" x2="60" y2="1800" stroke="#00000018" stroke-width="6"/><line x1="380" y1="1430" x2="320" y2="1800" stroke="#00000018" stroke-width="6"/><line x1="640" y1="1430" x2="580" y2="1800" stroke="#00000018" stroke-width="6"/><line x1="900" y1="1430" x2="840" y2="1800" stroke="#00000018" stroke-width="6"/><line x1="1160" y1="1430" x2="1100" y2="1800" stroke="#00000018" stroke-width="6"/><line x1="1420" y1="1430" x2="1360" y2="1800" stroke="#00000018" stroke-width="6"/><line x1="1680" y1="1430" x2="1620" y2="1800" stroke="#00000018" stroke-width="6"/><line x1="1940" y1="1430" x2="1880" y2="1800" stroke="#00000018" stroke-width="6"/><line x1="2200" y1="1430" x2="2140" y2="1800" stroke="#00000018" stroke-width="6"/><rect y="1418" width="2400" height="16" fill="#d7cbb6"/><rect x="700" y="980" width="1000" height="460" rx="26" fill="#a87e57"/><rect x="660" y="1290" width="1080" height="210" rx="30" fill="#f1ebdf"/><rect x="660" y="1420" width="1080" height="120" rx="24" fill="#a2542f" opacity="0.85"/><rect x="770" y="1180" width="300" height="150" rx="40" fill="#faf6ec"/><rect x="1330" y="1180" width="300" height="150" rx="40" fill="#b6ab95"/><rect x="640" y="1530" width="1120" height="26" rx="12" fill="#a87e57"/><rect x="360" y="1260" width="240" height="220" rx="10" fill="#a87e57"/><rect x="380" y="1300" width="200" height="14" fill="#00000022"/><line x1="480" y1="1260" x2="480" y2="1130" stroke="#5a4632" stroke-width="12"/><path d="M410,1130 L550,1130 L520,1020 L440,1020 Z" fill="#a2542f"/><path d="M2060,1520 Q 1910,1282.5 1835,1345" fill="none" stroke="#5d7052" stroke-width="20" stroke-linecap="round"/><path d="M2060,1520 Q 1960,1282.5 1910,1295" fill="none" stroke="#5d7052" stroke-width="20" stroke-linecap="round"/><path d="M2060,1520 Q 2010,1282.5 1985,1245" fill="none" stroke="#5d7052" stroke-width="20" stroke-linecap="round"/><path d="M2060,1520 Q 2060,1282.5 2060,1195" fill="none" stroke="#5d7052" stroke-width="20" stroke-linecap="round"/><path d="M2060,1520 Q 2110,1282.5 2135,1245" fill="none" stroke="#5d7052" stroke-width="20" stroke-linecap="round"/><path d="M2060,1520 Q 2160,1282.5 2210,1295" fill="none" stroke="#5d7052" stroke-width="20" stroke-linecap="round"/><path d="M2060,1520 Q 2210,1282.5 2285,1345" fill="none" stroke="#5d7052" stroke-width="20" stroke-linecap="round"/><path d="M1972.5,1520 L2147.5,1520 L2125,1657.5 L1995,1657.5 Z" fill="#a9714d"/><defs><filter id="a191b-sh" x="-30%" y="-30%" width="160%" height="160%"><feGaussianBlur stdDeviation="16"/></filter></defs><rect x="928" y="246" width="572" height="702" fill="#000" opacity="0.28" filter="url(#a191b-sh)"/><rect x="914" y="224" width="572" height="702" fill="#4a3d2f"/><rect x="930.9" y="240.9" width="538.2" height="668.2" fill="none" stroke="#00000055" stroke-width="3"/><rect x="940" y="250" width="520" height="650" fill="#f6f2ea"/><svg x="979" y="289" width="442" height="572" viewBox="0 0 2400 3000" preserveAspectRatio="xMidYMid slice"><filter id="a191-warp" x="-4%" y="-4%" width="108%" height="108%"><feTurbulence type="fractalNoise" baseFrequency="0.0105" numOctaves="2" seed="5085" result="w"/><feDisplacementMap in="SourceGraphic" in2="w" scale="12" xChannelSelector="R" yChannelSelector="G"/></filter><filter id="a191-grain" x="0%" y="0%" width="100%" height="100%"><feTurbulence type="fractalNoise" baseFrequency="0.6" numOctaves="2" seed="5092"/><feColorMatrix type="matrix" values="0.33 0.33 0.33 0 0.62  0.33 0.33 0.33 0 0.62  0.33 0.33 0.33 0 0.62  0 0 0 0 1"/></filter><filter id="a191-mottle" x="0%" y="0%" width="100%" height="100%"><feTurbulence type="fractalNoise" baseFrequency="0.0045" numOctaves="3" seed="5098"/><feColorMatrix type="matrix" values="0.2 0.2 0.2 0 0.78  0.2 0.2 0.2 0 0.78  0.2 0.2 0.2 0 0.78  0 0 0 0 1"/></filter><filter id="a191-fade" x="0%" y="0%" width="100%" height="100%"><feTurbulence type="fractalNoise" baseFrequency="0.006" numOctaves="2" seed="5114"/><feColorMatrix type="matrix" values="0.3 0.3 0.3 0 -0.08  0.3 0.3 0.3 0 -0.08  0.3 0.3 0.3 0 -0.1  0 0 0 0 1"/></filter><filter id="a191-blur9"><feGaussianBlur stdDeviation="9"/></filter><radialGradient id="a191-vig" cx="50%" cy="44%" r="78%"><stop offset="52%" stop-color="#241a10" stop-opacity="0"/><stop offset="100%" stop-color="#241a10" stop-opacity="0.17"/></radialGradient><radialGradient id="a191-warm" cx="35%" cy="30%" r="85%"><stop offset="0%" stop-color="#e8c890" stop-opacity="0.14"/><stop offset="70%" stop-color="#e8c890" stop-opacity="0"/></radialGradient><rect width="2400" height="3000" fill="#dcd3c2"/><rect width="2400" height="3000" fill="url(#a191-warm)"/><rect y="2208.3" width="2400" height="235.1" fill="#8a6a40" opacity="0.048" transform="rotate(0.8 1200 2208.3)"/><rect y="135.6" width="2400" height="146.7" fill="#ffffff" opacity="0.024" transform="rotate(0.6 1200 135.6)"/><rect y="1369.3" width="2400" height="232.5" fill="#8a6a40" opacity="0.048" transform="rotate(0.6 1200 1369.3)"/><rect y="2066.1" width="2400" height="334.9" fill="#ffffff" opacity="0.041" transform="rotate(-0.9 1200 2066.1)"/><rect y="2837.1" width="2400" height="241.3" fill="#8a6a40" opacity="0.027" transform="rotate(1.8 1200 2837.1)"/><rect y="1447.8" width="2400" height="340.1" fill="#ffffff" opacity="0.040" transform="rotate(0.8 1200 1447.8)"/><rect y="2841.4" width="2400" height="381.7" fill="#8a6a40" opacity="0.040" transform="rotate(0.4 1200 2841.4)"/><g filter="url(#a191-warp)"><circle cx="1200" cy="1420" r="900" fill="none" stroke="#41586a" stroke-width="12"/><line x1="2066" y1="1420" x2="2100" y2="1420" stroke="#41586a" stroke-width="8"/><line x1="2058.6" y1="1533" x2="2092.3" y2="1537.5" stroke="#41586a" stroke-width="8"/><line x1="2036.5" y1="1644.1" x2="2069.3" y2="1652.9" stroke="#41586a" stroke-width="8"/><line x1="2000.1" y1="1751.4" x2="2031.5" y2="1764.4" stroke="#41586a" stroke-width="8"/><line x1="1950" y1="1853" x2="1979.4" y2="1870" stroke="#41586a" stroke-width="8"/><line x1="1887" y1="1947.2" x2="1914" y2="1967.9" stroke="#41586a" stroke-width="8"/><line x1="1812.4" y1="2032.4" x2="1836.4" y2="2056.4" stroke="#41586a" stroke-width="8"/><line x1="1727.2" y1="2107" x2="1747.9" y2="2134" stroke="#41586a" stroke-width="8"/><line x1="1633" y1="2170" x2="1650" y2="2199.4" stroke="#41586a" stroke-width="8"/><line x1="1531.4" y1="2220.1" x2="1544.4" y2="2251.5" stroke="#41586a" stroke-width="8"/><line x1="1424.1" y1="2256.5" x2="1432.9" y2="2289.3" stroke="#41586a" stroke-width="8"/><line x1="1313" y1="2278.6" x2="1317.5" y2="2312.3" stroke="#41586a" stroke-width="8"/><line x1="1200" y1="2286" x2="1200" y2="2320" stroke="#41586a" stroke-width="8"/><line x1="1087" y1="2278.6" x2="1082.5" y2="2312.3" stroke="#41586a" stroke-width="8"/><line x1="975.9" y1="2256.5" x2="967.1" y2="2289.3" stroke="#41586a" stroke-width="8"/><line x1="868.6" y1="2220.1" x2="855.6" y2="2251.5" stroke="#41586a" stroke-width="8"/><line x1="767" y1="2170" x2="750" y2="2199.4" stroke="#41586a" stroke-width="8"/><line x1="672.8" y1="2107" x2="652.1" y2="2134" stroke="#41586a" stroke-width="8"/><line x1="587.6" y1="2032.4" x2="563.6" y2="2056.4" stroke="#41586a" stroke-width="8"/><line x1="513" y1="1947.2" x2="486" y2="1967.9" stroke="#41586a" stroke-width="8"/><line x1="450" y1="1853" x2="420.6" y2="1870" stroke="#41586a" stroke-width="8"/><line x1="399.9" y1="1751.4" x2="368.5" y2="1764.4" stroke="#41586a" stroke-width="8"/><line x1="363.5" y1="1644.1" x2="330.7" y2="1652.9" stroke="#41586a" stroke-width="8"/><line x1="341.4" y1="1533" x2="307.7" y2="1537.5" stroke="#41586a" stroke-width="8"/><line x1="334" y1="1420" x2="300" y2="1420" stroke="#41586a" stroke-width="8"/><line x1="341.4" y1="1307" x2="307.7" y2="1302.5" stroke="#41586a" stroke-width="8"/><line x1="363.5" y1="1195.9" x2="330.7" y2="1187.1" stroke="#41586a" stroke-width="8"/><line x1="399.9" y1="1088.6" x2="368.5" y2="1075.6" stroke="#41586a" stroke-width="8"/><line x1="450" y1="987" x2="420.6" y2="970" stroke="#41586a" stroke-width="8"/><line x1="513" y1="892.8" x2="486" y2="872.1" stroke="#41586a" stroke-width="8"/><line x1="587.6" y1="807.6" x2="563.6" y2="783.6" stroke="#41586a" stroke-width="8"/><line x1="672.8" y1="733" x2="652.1" y2="706" stroke="#41586a" stroke-width="8"/><line x1="767" y1="670" x2="750" y2="640.6" stroke="#41586a" stroke-width="8"/><line x1="868.6" y1="619.9" x2="855.6" y2="588.5" stroke="#41586a" stroke-width="8"/><line x1="975.9" y1="583.5" x2="967.1" y2="550.7" stroke="#41586a" stroke-width="8"/><line x1="1087" y1="561.4" x2="1082.5" y2="527.7" stroke="#41586a" stroke-width="8"/><line x1="1200" y1="554" x2="1200" y2="520" stroke="#41586a" stroke-width="8"/><line x1="1313" y1="561.4" x2="1317.5" y2="527.7" stroke="#41586a" stroke-width="8"/><line x1="1424.1" y1="583.5" x2="1432.9" y2="550.7" stroke="#41586a" stroke-width="8"/><line x1="1531.4" y1="619.9" x2="1544.4" y2="588.5" stroke="#41586a" stroke-width="8"/><line x1="1633" y1="670" x2="1650" y2="640.6" stroke="#41586a" stroke-width="8"/><line x1="1727.2" y1="733" x2="1747.9" y2="706" stroke="#41586a" stroke-width="8"/><line x1="1812.4" y1="807.6" x2="1836.4" y2="783.6" stroke="#41586a" stroke-width="8"/><line x1="1887" y1="892.8" x2="1914" y2="872.1" stroke="#41586a" stroke-width="8"/><line x1="1950" y1="987" x2="1979.4" y2="970" stroke="#41586a" stroke-width="8"/><line x1="2000.1" y1="1088.6" x2="2031.5" y2="1075.6" stroke="#41586a" stroke-width="8"/><line x1="2036.5" y1="1195.9" x2="2069.3" y2="1187.1" stroke="#41586a" stroke-width="8"/><line x1="2058.6" y1="1307" x2="2092.3" y2="1302.5" stroke="#41586a" stroke-width="8"/><polygon points="2010,1420 1809.5,1365.1 1809.5,1474.9" fill="#41586a"/><polygon points="1989.7,1600.2 1806.5,1502.2 1782,1609.1" fill="#a2542f"/><polygon points="1929.8,1771.4 1773,1635 1725.4,1733.9" fill="#41586a"/><polygon points="1833.3,1925 1710.8,1757.1 1642.4,1842.9" fill="#a2542f"/><polygon points="1705,2053.3 1622.9,1862.4 1537.1,1930.8" fill="#41586a"/><polygon points="1551.4,2149.8 1513.9,1945.4 1415,1993" fill="#a2542f"/><polygon points="1380.2,2209.7 1389.1,2002 1282.2,2026.5" fill="#41586a"/><polygon points="1200,2230 1254.9,2029.5 1145.1,2029.5" fill="#a2542f"/><polygon points="1019.8,2209.7 1117.8,2026.5 1010.9,2002" fill="#41586a"/><polygon points="848.6,2149.8 985,1993 886.1,1945.4" fill="#a2542f"/><polygon points="695,2053.3 862.9,1930.8 777.1,1862.4" fill="#41586a"/><polygon points="566.7,1925 757.6,1842.9 689.2,1757.1" fill="#a2542f"/><polygon points="470.2,1771.4 674.6,1733.9 627,1635" fill="#41586a"/><polygon points="410.3,1600.2 618,1609.1 593.5,1502.2" fill="#a2542f"/><polygon points="390,1420 590.5,1474.9 590.5,1365.1" fill="#41586a"/><polygon points="410.3,1239.8 593.5,1337.8 618,1230.9" fill="#a2542f"/><polygon points="470.2,1068.6 627,1205 674.6,1106.1" fill="#41586a"/><polygon points="566.7,915 689.2,1082.9 757.6,997.1" fill="#a2542f"/><polygon points="695,786.7 777.1,977.6 862.9,909.2" fill="#41586a"/><polygon points="848.6,690.2 886.1,894.6 985,847" fill="#a2542f"/><polygon points="1019.8,630.3 1010.9,838 1117.8,813.5" fill="#41586a"/><polygon points="1200,610 1145.1,810.5 1254.9,810.5" fill="#a2542f"/><polygon points="1380.2,630.3 1282.2,813.5 1389.1,838" fill="#41586a"/><polygon points="1551.4,690.2 1415,847 1513.9,894.6" fill="#a2542f"/><polygon points="1705,786.7 1537.1,909.2 1622.9,977.6" fill="#41586a"/><polygon points="1833.3,915 1642.4,997.1 1710.8,1082.9" fill="#a2542f"/><polygon points="1929.8,1068.6 1725.4,1106.1 1773,1205" fill="#41586a"/><polygon points="1989.7,1239.8 1782,1230.9 1806.5,1337.8" fill="#a2542f"/><circle cx="1200" cy="1420" r="558" fill="none" stroke="#41586a" stroke-width="8"/><path d="M0 0 Q 67.5 -198.4 0 -522 Q -67.5 -198.4 0 0 Z" fill="#a2542f" opacity="0.96" transform="translate(1209.8 1422) rotate(191.3)"/><path d="M0 0 Q 67.5 -198.4 0 -522 Q -67.5 -198.4 0 0 Z" fill="#41586a" opacity="0.96" transform="translate(1208.3 1425.6) rotate(213.8)"/><path d="M0 0 Q 67.5 -198.4 0 -522 Q -67.5 -198.4 0 0 Z" fill="#a2542f" opacity="0.96" transform="translate(1205.6 1428.3) rotate(236.3)"/><path d="M0 0 Q 67.5 -198.4 0 -522 Q -67.5 -198.4 0 0 Z" fill="#41586a" opacity="0.96" transform="translate(1202 1429.8) rotate(258.8)"/><path d="M0 0 Q 67.5 -198.4 0 -522 Q -67.5 -198.4 0 0 Z" fill="#a2542f" opacity="0.96" transform="translate(1198 1429.8) rotate(281.3)"/><path d="M0 0 Q 67.5 -198.4 0 -522 Q -67.5 -198.4 0 0 Z" fill="#41586a" opacity="0.96" transform="translate(1194.4 1428.3) rotate(303.8)"/><path d="M0 0 Q 67.5 -198.4 0 -522 Q -67.5 -198.4 0 0 Z" fill="#a2542f" opacity="0.96" transform="translate(1191.7 1425.6) rotate(326.3)"/><path d="M0 0 Q 67.5 -198.4 0 -522 Q -67.5 -198.4 0 0 Z" fill="#41586a" opacity="0.96" transform="translate(1190.2 1422) rotate(348.8)"/><path d="M0 0 Q 67.5 -198.4 0 -522 Q -67.5 -198.4 0 0 Z" fill="#a2542f" opacity="0.96" transform="translate(1190.2 1418) rotate(371.3)"/><path d="M0 0 Q 67.5 -198.4 0 -522 Q -67.5 -198.4 0 0 Z" fill="#41586a" opacity="0.96" transform="translate(1191.7 1414.4) rotate(393.8)"/><path d="M0 0 Q 67.5 -198.4 0 -522 Q -67.5 -198.4 0 0 Z" fill="#a2542f" opacity="0.96" transform="translate(1194.4 1411.7) rotate(416.3)"/><path d="M0 0 Q 67.5 -198.4 0 -522 Q -67.5 -198.4 0 0 Z" fill="#41586a" opacity="0.96" transform="translate(1198 1410.2) rotate(438.8)"/><path d="M0 0 Q 67.5 -198.4 0 -522 Q -67.5 -198.4 0 0 Z" fill="#a2542f" opacity="0.96" transform="translate(1202 1410.2) rotate(461.3)"/><path d="M0 0 Q 67.5 -198.4 0 -522 Q -67.5 -198.4 0 0 Z" fill="#41586a" opacity="0.96" transform="translate(1205.6 1411.7) rotate(483.8)"/><path d="M0 0 Q 67.5 -198.4 0 -522 Q -67.5 -198.4 0 0 Z" fill="#a2542f" opacity="0.96" transform="translate(1208.3 1414.4) rotate(506.3)"/><path d="M0 0 Q 67.5 -198.4 0 -522 Q -67.5 -198.4 0 0 Z" fill="#41586a" opacity="0.96" transform="translate(1209.8 1418) rotate(528.8)"/><path d="M0 0 Q 76.5 -116.3 0 -306 Q -76.5 -116.3 0 0 Z" fill="#b6ab95" opacity="0.98" transform="translate(1200 1420) rotate(180)"/><path d="M0 0 Q 76.5 -116.3 0 -306 Q -76.5 -116.3 0 0 Z" fill="#b6ab95" opacity="0.98" transform="translate(1200 1420) rotate(225)"/><path d="M0 0 Q 76.5 -116.3 0 -306 Q -76.5 -116.3 0 0 Z" fill="#b6ab95" opacity="0.98" transform="translate(1200 1420) rotate(270)"/><path d="M0 0 Q 76.5 -116.3 0 -306 Q -76.5 -116.3 0 0 Z" fill="#b6ab95" opacity="0.98" transform="translate(1200 1420) rotate(315)"/><path d="M0 0 Q 76.5 -116.3 0 -306 Q -76.5 -116.3 0 0 Z" fill="#b6ab95" opacity="0.98" transform="translate(1200 1420) rotate(360)"/><path d="M0 0 Q 76.5 -116.3 0 -306 Q -76.5 -116.3 0 0 Z" fill="#b6ab95" opacity="0.98" transform="translate(1200 1420) rotate(405)"/><path d="M0 0 Q 76.5 -116.3 0 -306 Q -76.5 -116.3 0 0 Z" fill="#b6ab95" opacity="0.98" transform="translate(1200 1420) rotate(450)"/><path d="M0 0 Q 76.5 -116.3 0 -306 Q -76.5 -116.3 0 0 Z" fill="#b6ab95" opacity="0.98" transform="translate(1200 1420) rotate(495)"/><circle cx="1200" cy="1420" r="110" fill="#41586a"/><circle cx="1200" cy="1420" r="44" fill="#a2542f"/><circle cx="388" cy="208" r="14.6" fill="#41586a"/><circle cx="444" cy="208" r="14.6" fill="#41586a"/><circle cx="500" cy="208" r="14.6" fill="#41586a"/><circle cx="556" cy="208" r="14.6" fill="#41586a"/><circle cx="612" cy="208" r="14.6" fill="#41586a"/><circle cx="668" cy="208" r="14.6" fill="#41586a"/><circle cx="724" cy="208" r="14.6" fill="#41586a"/><circle cx="780" cy="208" r="14.6" fill="#41586a"/><circle cx="836" cy="208" r="14.6" fill="#41586a"/><circle cx="892" cy="208" r="14.6" fill="#41586a"/><circle cx="948" cy="208" r="14.6" fill="#41586a"/><circle cx="1004" cy="208" r="14.6" fill="#41586a"/><circle cx="1060" cy="208" r="14.6" fill="#41586a"/><circle cx="1116" cy="208" r="14.6" fill="#41586a"/><circle cx="1172" cy="208" r="14.6" fill="#41586a"/><circle cx="1228" cy="208" r="14.6" fill="#41586a"/><circle cx="1284" cy="208" r="14.6" fill="#41586a"/><circle cx="1340" cy="208" r="14.6" fill="#41586a"/><circle cx="1396" cy="208" r="14.6" fill="#41586a"/><circle cx="1452" cy="208" r="14.6" fill="#41586a"/><circle cx="1508" cy="208" r="14.6" fill="#41586a"/><circle cx="1564" cy="208" r="14.6" fill="#41586a"/><circle cx="1620" cy="208" r="14.6" fill="#41586a"/><circle cx="1676" cy="208" r="14.6" fill="#41586a"/><circle cx="1732" cy="208" r="14.6" fill="#41586a"/><circle cx="1788" cy="208" r="14.6" fill="#41586a"/><circle cx="1844" cy="208" r="14.6" fill="#41586a"/><circle cx="1900" cy="208" r="14.6" fill="#41586a"/><circle cx="1956" cy="208" r="14.6" fill="#41586a"/><circle cx="2012" cy="208" r="14.6" fill="#41586a"/><circle cx="388" cy="2792" r="14.6" fill="#41586a"/><circle cx="444" cy="2792" r="14.6" fill="#41586a"/><circle cx="500" cy="2792" r="14.6" fill="#41586a"/><circle cx="556" cy="2792" r="14.6" fill="#41586a"/><circle cx="612" cy="2792" r="14.6" fill="#41586a"/><circle cx="668" cy="2792" r="14.6" fill="#41586a"/><circle cx="724" cy="2792" r="14.6" fill="#41586a"/><circle cx="780" cy="2792" r="14.6" fill="#41586a"/><circle cx="836" cy="2792" r="14.6" fill="#41586a"/><circle cx="892" cy="2792" r="14.6" fill="#41586a"/><circle cx="948" cy="2792" r="14.6" fill="#41586a"/><circle cx="1004" cy="2792" r="14.6" fill="#41586a"/><circle cx="1060" cy="2792" r="14.6" fill="#41586a"/><circle cx="1116" cy="2792" r="14.6" fill="#41586a"/><circle cx="1172" cy="2792" r="14.6" fill="#41586a"/><circle cx="1228" cy="2792" r="14.6" fill="#41586a"/><circle cx="1284" cy="2792" r="14.6" fill="#41586a"/><circle cx="1340" cy="2792" r="14.6" fill="#41586a"/><circle cx="1396" cy="2792" r="14.6" fill="#41586a"/><circle cx="1452" cy="2792" r="14.6" fill="#41586a"/><circle cx="1508" cy="2792" r="14.6" fill="#41586a"/><circle cx="1564" cy="2792" r="14.6" fill="#41586a"/><circle cx="1620" cy="2792" r="14.6" fill="#41586a"/><circle cx="1676" cy="2792" r="14.6" fill="#41586a"/><circle cx="1732" cy="2792" r="14.6" fill="#41586a"/><circle cx="1788" cy="2792" r="14.6" fill="#41586a"/><circle cx="1844" cy="2792" r="14.6" fill="#41586a"/><circle cx="1900" cy="2792" r="14.6" fill="#41586a"/><circle cx="1956" cy="2792" r="14.6" fill="#41586a"/><circle cx="2012" cy="2792" r="14.6" fill="#41586a"/><rect x="104" y="104" width="2192" height="2792" fill="none" stroke="#41586a" stroke-width="16" opacity="0.85"/><rect x="150" y="150" width="2100" height="2700" fill="none" stroke="#41586a" stroke-width="4" opacity="0.55"/></g><rect width="2400" height="3000" filter="url(#a191-mottle)" style="mix-blend-mode:multiply" opacity="0.5"/><rect width="2400" height="3000" filter="url(#a191-fade)" style="mix-blend-mode:screen" opacity="0.55"/><rect width="2400" height="3000" filter="url(#a191-grain)" style="mix-blend-mode:multiply" opacity="0.32"/><ellipse cx="728" cy="1409.5" rx="308.3" ry="192.4" fill="#6b4a22" opacity="0.064" filter="url(#a191-blur9)"/><ellipse cx="1864.1" cy="1798.9" rx="218.5" ry="159.6" fill="#6b4a22" opacity="0.066" filter="url(#a191-blur9)"/><ellipse cx="1694.8" cy="335.6" rx="315.4" ry="306.1" fill="#6b4a22" opacity="0.059" filter="url(#a191-blur9)"/><polyline points="1103.4,2567.8 965.4,2521.5 845.6,2495.3 800.5,2521.5 733.3,2499.8 664.1,2506.9 608.9,2479.4 505.9,2517.1 400.2,2455.2" fill="none" stroke="#2e2116" stroke-width="3.8" opacity="0.29" stroke-linejoin="round"/><polyline points="1103.4,2567.8 965.4,2521.5 845.6,2495.3 800.5,2521.5 733.3,2499.8 664.1,2506.9 608.9,2479.4 505.9,2517.1 400.2,2455.2" fill="none" stroke="#fff8ea" stroke-width="2.7" opacity="0.10" transform="translate(2.5 2.5)" stroke-linejoin="round"/><polyline points="782.5,1479 809.2,1601.9 827.4,1739.8 818.6,1848.6 875.2,1952.5 865.2,2014.2 856.3,2067.9 801.9,2160" fill="none" stroke="#2e2116" stroke-width="2.1" opacity="0.26" stroke-linejoin="round"/><polyline points="782.5,1479 809.2,1601.9 827.4,1739.8 818.6,1848.6 875.2,1952.5 865.2,2014.2 856.3,2067.9 801.9,2160" fill="none" stroke="#fff8ea" stroke-width="1.5" opacity="0.10" transform="translate(2.5 2.5)" stroke-linejoin="round"/><polyline points="2037.4,2772.8 2003.6,2718.6 1895.8,2684 1813.1,2732 1686.8,2805 1610.8,2818.7 1539.4,2782.3 1511.7,2662 1469.2,2542.1 1483.3,2476.4 1565.1,2383 1574.8,2274.5" fill="none" stroke="#2e2116" stroke-width="4" opacity="0.18" stroke-linejoin="round"/><polyline points="2037.4,2772.8 2003.6,2718.6 1895.8,2684 1813.1,2732 1686.8,2805 1610.8,2818.7 1539.4,2782.3 1511.7,2662 1469.2,2542.1 1483.3,2476.4 1565.1,2383 1574.8,2274.5" fill="none" stroke="#fff8ea" stroke-width="2.8" opacity="0.15" transform="translate(2.5 2.5)" stroke-linejoin="round"/><polyline points="200.7,2731.7 340.8,2725.3 407.4,2684.6 506.9,2680.1 574.1,2752.3 646.6,2803.6" fill="none" stroke="#2e2116" stroke-width="2.8" opacity="0.22" stroke-linejoin="round"/><polyline points="200.7,2731.7 340.8,2725.3 407.4,2684.6 506.9,2680.1 574.1,2752.3 646.6,2803.6" fill="none" stroke="#fff8ea" stroke-width="2" opacity="0.15" transform="translate(2.5 2.5)" stroke-linejoin="round"/><polyline points="988.7,1304.6 1120,1265 1261.3,1300.6 1384.4,1371.8 1398.9,1425.4 1437.1,1466.8 1540.1,1475.1 1658.5,1495.5 1747.6,1605.3 1797.6,1644.2 1880.6,1693.2 1950.8,1793.4" fill="none" stroke="#2e2116" stroke-width="4.4" opacity="0.14" stroke-linejoin="round"/><polyline points="988.7,1304.6 1120,1265 1261.3,1300.6 1384.4,1371.8 1398.9,1425.4 1437.1,1466.8 1540.1,1475.1 1658.5,1495.5 1747.6,1605.3 1797.6,1644.2 1880.6,1693.2 1950.8,1793.4" fill="none" stroke="#fff8ea" stroke-width="3.1" opacity="0.15" transform="translate(2.5 2.5)" stroke-linejoin="round"/><polyline points="1139.5,1737 1172.9,1860.1 1130.6,1940.9 1097.9,2038.7 1055.3,2107.7 1022.6,2192.9 1080,2317.4 1129.3,2366.5 1217,2389.8 1281.1,2506.7 1281.3,2600.8" fill="none" stroke="#2e2116" stroke-width="3.9" opacity="0.27" stroke-linejoin="round"/><polyline points="1139.5,1737 1172.9,1860.1 1130.6,1940.9 1097.9,2038.7 1055.3,2107.7 1022.6,2192.9 1080,2317.4 1129.3,2366.5 1217,2389.8 1281.1,2506.7 1281.3,2600.8" fill="none" stroke="#fff8ea" stroke-width="2.7" opacity="0.10" transform="translate(2.5 2.5)" stroke-linejoin="round"/><polyline points="656.9,619.2 781.6,604.4 883,701 985.2,751.2 1128.6,735.7 1206.6,636.7 1271.9,628.7" fill="none" stroke="#2e2116" stroke-width="4.5" opacity="0.25" stroke-linejoin="round"/><polyline points="656.9,619.2 781.6,604.4 883,701 985.2,751.2 1128.6,735.7 1206.6,636.7 1271.9,628.7" fill="none" stroke="#fff8ea" stroke-width="3.1" opacity="0.12" transform="translate(2.5 2.5)" stroke-linejoin="round"/><path d="M2038.4,716.6 Q2008.1,743.3 1965.6,746 Q1923.1,748.7 1876.9,731.4 Q1830.7,714.2 1852.9,690.5 Q1875.1,666.9 1904,649.4 Q1932.9,632 1974.1,631.8 Q2015.2,631.7 2042,660.7 Q2068.8,689.8 2038.4,716.6 Z" fill="#dcd3c2" opacity="0.82"/><path d="M2240.2,2169.2 Q2206.5,2179.3 2166.9,2176.3 Q2127.4,2173.3 2101.3,2169.4 Q2075.2,2165.5 2060.8,2157.3 Q2046.5,2149.1 2084.8,2144.6 Q2123.1,2140.2 2169.9,2139.4 Q2216.6,2138.6 2245.2,2148.9 Q2273.8,2159.1 2240.2,2169.2 Z" fill="#dcd3c2" opacity="0.83"/><path d="M317.8,751.6 Q315.1,775.3 271.8,779.1 Q228.5,782.9 186.4,769.6 Q144.3,756.3 160.4,729.2 Q176.4,702.2 204.1,664.9 Q231.8,627.6 264.4,645 Q296.9,662.3 308.7,695.2 Q320.6,728 317.8,751.6 Z" fill="#dcd3c2" opacity="0.79"/><path d="M1172.5,1825.7 Q1171.3,1835.4 1156.2,1838.6 Q1141,1841.9 1133.1,1835.6 Q1125.3,1829.3 1117.7,1816.4 Q1110.1,1803.5 1124.1,1797.5 Q1138.1,1791.6 1152.7,1792.2 Q1167.3,1792.8 1170.5,1804.4 Q1173.7,1816 1172.5,1825.7 Z" fill="#dcd3c2" opacity="0.87"/><rect width="2400" height="3000" fill="url(#a191-vig)"/></svg></svg>