<svg xmlns="http://www.w3.org/2000/svg" width="2400" height="1800" viewBox="0 0 2400 1800"><rect width="2400" height="1800" fill="#e5ddcf"/><rect y="1430" width="2400" height="370" fill="#b89a76"/><line x1="100" y1="1430" x2="45" y2="1800" stroke="#00000016" stroke-width="5"/><line x1="330" y1="1430" x2="275" y2="1800" stroke="#00000016" stroke-width="5"/><line x1="560" y1="1430" x2="505" y2="1800" stroke="#00000016" stroke-width="5"/><line x1="790" y1="1430" x2="735" y2="1800" stroke="#00000016" stroke-width="5"/><line x1="1020" y1="1430" x2="965" y2="1800" stroke="#00000016" stroke-width="5"/><line x1="1250" y1="1430" x2="1195" y2="1800" stroke="#00000016" stroke-width="5"/><line x1="1480" y1="1430" x2="1425" y2="1800" stroke="#00000016" stroke-width="5"/><line x1="1710" y1="1430" x2="1655" y2="1800" stroke="#00000016" stroke-width="5"/><line x1="1940" y1="1430" x2="1885" y2="1800" stroke="#00000016" stroke-width="5"/><line x1="2170" y1="1430" x2="2115" y2="1800" stroke="#00000016" stroke-width="5"/><rect x="620" y="1180" width="1180" height="52" rx="10" fill="#8a6540"/><rect x="680" y="1232" width="70" height="330" fill="#775433"/><rect x="1670" y="1232" width="70" height="330" fill="#775433"/><rect x="760" y="1120" width="220" height="34" rx="6" fill="#b3502f"/><rect x="780" y="1086" width="200" height="34" rx="6" fill="#39685c"/><rect x="800" y="1052" width="170" height="34" rx="6" fill="#c9a227"/><circle cx="1240" cy="1130" r="46" fill="#3f3428"/><rect x="1226" y="1048" width="16" height="60" fill="#3f3428" transform="rotate(18 1240 1090)"/><rect x="1420" y="1100" width="260" height="26" rx="13" fill="#e8dcc0"/><rect x="1450" y="1072" width="260" height="26" rx="13" fill="#dfd0ad"/><rect x="1080" y="1300" width="360" height="34" rx="14" fill="#6f5436"/><rect x="1100" y="1334" width="40" height="220" fill="#6f5436"/><rect x="1380" y="1334" width="40" height="220" fill="#6f5436"/><rect x="1080" y="1030" width="42" height="290" rx="14" fill="#6f5436"/><rect x="260" y="480" width="560" height="24" fill="#8a6540"/><rect x="300" y="360" width="90" height="120" fill="#b3502f"/><rect x="400" y="380" width="80" height="100" fill="#2c4661"/><rect x="490" y="350" width="86" height="130" fill="#96a396"/><path d="M700,480 Q 616,347 574,382" fill="none" stroke="#5d7052" stroke-width="11.2" stroke-linecap="round"/><path d="M700,480 Q 644,347 616,354" fill="none" stroke="#5d7052" stroke-width="11.2" stroke-linecap="round"/><path d="M700,480 Q 672,347 658,326" fill="none" stroke="#5d7052" stroke-width="11.2" stroke-linecap="round"/><path d="M700,480 Q 700,347 700,298" fill="none" stroke="#5d7052" stroke-width="11.2" stroke-linecap="round"/><path d="M700,480 Q 728,347 742,326" fill="none" stroke="#5d7052" stroke-width="11.2" stroke-linecap="round"/><path d="M700,480 Q 756,347 784,354" fill="none" stroke="#5d7052" stroke-width="11.2" stroke-linecap="round"/><path d="M700,480 Q 784,347 826,382" fill="none" stroke="#5d7052" stroke-width="11.2" stroke-linecap="round"/><path d="M651,480 L749,480 L736.4,557 L663.6,557 Z" fill="#a9714d"/><path d="M320,1520 Q 164,1273 86,1338" fill="none" stroke="#5d7052" stroke-width="20.8" stroke-linecap="round"/><path d="M320,1520 Q 216,1273 164,1286" fill="none" stroke="#5d7052" stroke-width="20.8" stroke-linecap="round"/><path d="M320,1520 Q 268,1273 242,1234" fill="none" stroke="#5d7052" stroke-width="20.8" stroke-linecap="round"/><path d="M320,1520 Q 320,1273 320,1182" fill="none" stroke="#5d7052" stroke-width="20.8" stroke-linecap="round"/><path d="M320,1520 Q 372,1273 398,1234" fill="none" stroke="#5d7052" stroke-width="20.8" stroke-linecap="round"/><path d="M320,1520 Q 424,1273 476,1286" fill="none" stroke="#5d7052" stroke-width="20.8" stroke-linecap="round"/><path d="M320,1520 Q 476,1273 554,1338" fill="none" stroke="#5d7052" stroke-width="20.8" stroke-linecap="round"/><path d="M229,1520 L411,1520 L387.6,1663 L252.4,1663 Z" fill="#a9714d"/><defs><filter id="a133s-sh" x="-30%" y="-30%" width="160%" height="160%"><feGaussianBlur stdDeviation="16"/></filter></defs><rect x="1206" y="294" width="616" height="756" fill="#000" opacity="0.28" filter="url(#a133s-sh)"/><rect x="1192" y="272" width="616" height="756" fill="#443a2d"/><rect x="1210.2" y="290.2" width="579.6" height="719.6" fill="none" stroke="#00000055" stroke-width="3"/><rect x="1220" y="300" width="560" height="700" fill="#f6f2ea"/><svg x="1262" y="342" width="476" height="616" viewBox="0 0 2400 3000" preserveAspectRatio="xMidYMid slice"><rect width="2400" height="3000" fill="#e9dcbc"/><radialGradient id="a133-vig" cx="50%" cy="42%" r="80%"><stop offset="55%" stop-color="#000" stop-opacity="0"/><stop offset="100%" stop-color="#000" stop-opacity="0.15"/></radialGradient><rect width="2400" height="3000" fill="url(#a133-vig)"/><circle cx="265.7" cy="1076.4" r="3.1" fill="#2c4661" opacity="0.050"/><circle cx="1999.8" cy="1214.8" r="4.2" fill="#2c4661" opacity="0.031"/><circle cx="623.4" cy="463" r="1.8" fill="#2c4661" opacity="0.043"/><circle cx="93.7" cy="1279.5" r="3" fill="#2c4661" opacity="0.077"/><circle cx="872.9" cy="242" r="3.3" fill="#2c4661" opacity="0.061"/><circle cx="1697.4" cy="2014.3" r="3.8" fill="#2c4661" opacity="0.072"/><circle cx="1165" cy="1274.7" r="3.9" fill="#2c4661" opacity="0.075"/><circle cx="714" cy="64.9" r="3.2" fill="#2c4661" opacity="0.059"/><circle cx="248" cy="1716.1" r="4.4" fill="#2c4661" opacity="0.045"/><circle cx="2075" cy="2419.2" r="4.2" fill="#2c4661" opacity="0.062"/><circle cx="307.1" cy="2808.3" r="3.9" fill="#2c4661" opacity="0.039"/><circle cx="1063" cy="2493.1" r="2.8" fill="#2c4661" opacity="0.057"/><circle cx="397.9" cy="2597" r="3" fill="#2c4661" opacity="0.033"/><circle cx="1299.3" cy="1689.2" r="4.5" fill="#2c4661" opacity="0.063"/><circle cx="408" cy="2306.9" r="4.2" fill="#2c4661" opacity="0.054"/><circle cx="455.9" cy="2950.4" r="2.3" fill="#2c4661" opacity="0.039"/><circle cx="1612.1" cy="1104.1" r="3.5" fill="#2c4661" opacity="0.070"/><circle cx="167.3" cy="1740.7" r="2.2" fill="#2c4661" opacity="0.053"/><circle cx="493.6" cy="1701.3" r="4.3" fill="#2c4661" opacity="0.043"/><circle cx="133.8" cy="926.7" r="4.3" fill="#2c4661" opacity="0.043"/><circle cx="439.1" cy="441" r="2.2" fill="#2c4661" opacity="0.044"/><circle cx="1123" cy="532.1" r="1.9" fill="#2c4661" opacity="0.071"/><circle cx="773.9" cy="1798.6" r="2.6" fill="#2c4661" opacity="0.080"/><circle cx="1242.1" cy="379.6" r="3.2" fill="#2c4661" opacity="0.031"/><circle cx="103.1" cy="699.4" r="2.8" fill="#2c4661" opacity="0.078"/><circle cx="761.9" cy="1999.7" r="2" fill="#2c4661" opacity="0.035"/><circle cx="2318.8" cy="513.5" r="4.1" fill="#2c4661" opacity="0.048"/><circle cx="1229.9" cy="891.2" r="2" fill="#2c4661" opacity="0.034"/><circle cx="1729.1" cy="921.8" r="4.2" fill="#2c4661" opacity="0.079"/><circle cx="2170.3" cy="2493.6" r="3.3" fill="#2c4661" opacity="0.058"/><circle cx="1085.5" cy="725.2" r="3.8" fill="#2c4661" opacity="0.079"/><circle cx="69.3" cy="653.5" r="1.7" fill="#2c4661" opacity="0.032"/><circle cx="329" cy="126.5" r="3" fill="#2c4661" opacity="0.045"/><circle cx="1750.8" cy="1415.7" r="1.6" fill="#2c4661" opacity="0.079"/><circle cx="1982.7" cy="1455.8" r="2" fill="#2c4661" opacity="0.079"/><circle cx="1055.2" cy="1044" r="2.8" fill="#2c4661" opacity="0.068"/><circle cx="948.3" cy="1711.3" r="1.7" fill="#2c4661" opacity="0.042"/><circle cx="1708.4" cy="2580.4" r="3.3" fill="#2c4661" opacity="0.070"/><circle cx="2357.6" cy="1420.1" r="2.4" fill="#2c4661" opacity="0.073"/><circle cx="1577.4" cy="742.9" r="2.4" fill="#2c4661" opacity="0.053"/><circle cx="557.2" cy="761.9" r="3.8" fill="#2c4661" opacity="0.034"/><circle cx="1585.1" cy="2534.9" r="1.6" fill="#2c4661" opacity="0.040"/><circle cx="297.6" cy="2956.2" r="3.7" fill="#2c4661" opacity="0.060"/><circle cx="1414.5" cy="2107.2" r="1.7" fill="#2c4661" opacity="0.039"/><circle cx="405.1" cy="1822.5" r="4.3" fill="#2c4661" opacity="0.058"/><circle cx="655.7" cy="1852.1" r="3.7" fill="#2c4661" opacity="0.052"/><circle cx="2027.5" cy="1493.5" r="1.9" fill="#2c4661" opacity="0.055"/><circle cx="185.9" cy="2439.8" r="3.7" fill="#2c4661" opacity="0.049"/><circle cx="1631.3" cy="1649.5" r="2.1" fill="#2c4661" opacity="0.048"/><circle cx="1603.1" cy="876.1" r="2.4" fill="#2c4661" opacity="0.061"/><circle cx="1215.1" cy="2947.8" r="2.6" fill="#2c4661" opacity="0.033"/><circle cx="1486" cy="225" r="2.7" fill="#2c4661" opacity="0.046"/><circle cx="1752.7" cy="2658.2" r="1.7" fill="#2c4661" opacity="0.050"/><circle cx="610.9" cy="2493.8" r="2.1" fill="#2c4661" opacity="0.035"/><circle cx="1505.1" cy="849.4" r="4.4" fill="#2c4661" opacity="0.048"/><circle cx="1258.7" cy="585" r="2.5" fill="#2c4661" opacity="0.067"/><circle cx="1228.8" cy="1073.3" r="4.3" fill="#2c4661" opacity="0.061"/><circle cx="150.9" cy="2635.2" r="3.5" fill="#2c4661" opacity="0.056"/><circle cx="281.1" cy="1933.2" r="2.6" fill="#2c4661" opacity="0.062"/><circle cx="240.3" cy="2819.3" r="3.6" fill="#2c4661" opacity="0.064"/><circle cx="883.1" cy="1049.1" r="3.3" fill="#2c4661" opacity="0.052"/><circle cx="1564.8" cy="2888.2" r="3.7" fill="#2c4661" opacity="0.072"/><circle cx="280.4" cy="847" r="3" fill="#2c4661" opacity="0.062"/><circle cx="161.7" cy="2580.9" r="2.9" fill="#2c4661" opacity="0.045"/><circle cx="297.2" cy="1809.8" r="2.6" fill="#2c4661" opacity="0.041"/><circle cx="1962.4" cy="2371.9" r="2.2" fill="#2c4661" opacity="0.070"/><circle cx="796.8" cy="826.8" r="2.2" fill="#2c4661" opacity="0.044"/><circle cx="425.6" cy="2073.7" r="3.9" fill="#2c4661" opacity="0.052"/><circle cx="1252.8" cy="399.6" r="2.5" fill="#2c4661" opacity="0.073"/><circle cx="759.7" cy="2501.2" r="4.3" fill="#2c4661" opacity="0.051"/><circle cx="750.5" cy="1726.5" r="3.4" fill="#2c4661" opacity="0.031"/><circle cx="2057.1" cy="839.5" r="1.9" fill="#2c4661" opacity="0.075"/><circle cx="1337.9" cy="1324.6" r="3" fill="#2c4661" opacity="0.060"/><circle cx="1651.7" cy="1332.6" r="2.7" fill="#2c4661" opacity="0.053"/><circle cx="748.2" cy="2597.5" r="2.1" fill="#2c4661" opacity="0.070"/><circle cx="694.3" cy="2440.4" r="2.5" fill="#2c4661" opacity="0.062"/><circle cx="1923.1" cy="2638.1" r="3.4" fill="#2c4661" opacity="0.076"/><circle cx="527.1" cy="2909.5" r="2.3" fill="#2c4661" opacity="0.050"/><circle cx="712.5" cy="1231.8" r="1.7" fill="#2c4661" opacity="0.042"/><circle cx="745.8" cy="53.8" r="1.9" fill="#2c4661" opacity="0.070"/><rect x="200" y="170" width="2000" height="14.5" fill="#2c4661"/><rect x="200" y="184" width="2000" height="14.5" fill="#b3502f"/><rect x="200" y="198" width="2000" height="14.5" fill="#2c4661"/><rect x="200" y="212" width="2000" height="14.5" fill="#c9b98e"/><rect x="200" y="226" width="2000" height="14.5" fill="#2c4661"/><rect x="200" y="2760" width="2000" height="14.5" fill="#2c4661"/><rect x="200" y="2774" width="2000" height="14.5" fill="#b3502f"/><rect x="200" y="2788" width="2000" height="14.5" fill="#2c4661"/><rect x="200" y="2802" width="2000" height="14.5" fill="#c9b98e"/><rect x="200" y="2816" width="2000" height="14.5" fill="#2c4661"/><circle cx="1200" cy="1030" r="150" fill="#b3502f"/><circle cx="1200" cy="1030" r="196" fill="none" stroke="#b3502f" stroke-width="10"/><line x1="1110" y1="1540" x2="357.4" y2="1481.8" stroke="#2c4661" stroke-width="34" stroke-linecap="round"/><line x1="1110" y1="1540" x2="383.2" y2="1417.8" stroke="#2c4661" stroke-width="34" stroke-linecap="round"/><line x1="1110" y1="1540" x2="426.9" y2="1356.8" stroke="#2c4661" stroke-width="34" stroke-linecap="round"/><line x1="1110" y1="1540" x2="487.4" y2="1300.2" stroke="#2c4661" stroke-width="34" stroke-linecap="round"/><line x1="1110" y1="1540" x2="563.3" y2="1249.6" stroke="#2c4661" stroke-width="34" stroke-linecap="round"/><line x1="1110" y1="1540" x2="652.6" y2="1206.2" stroke="#2c4661" stroke-width="34" stroke-linecap="round"/><line x1="1110" y1="1540" x2="753.2" y2="1170.9" stroke="#2c4661" stroke-width="34" stroke-linecap="round"/><line x1="1110" y1="1540" x2="862.6" y2="1144.8" stroke="#2c4661" stroke-width="34" stroke-linecap="round"/><line x1="1110" y1="1540" x2="978" y2="1128.4" stroke="#2c4661" stroke-width="34" stroke-linecap="round"/><line x1="1110" y1="1540" x2="515.8" y2="1494.1" stroke="#b3502f" stroke-width="30" stroke-linecap="round"/><line x1="1110" y1="1540" x2="536.2" y2="1443.5" stroke="#b3502f" stroke-width="30" stroke-linecap="round"/><line x1="1110" y1="1540" x2="570.7" y2="1395.3" stroke="#b3502f" stroke-width="30" stroke-linecap="round"/><line x1="1110" y1="1540" x2="618.5" y2="1350.7" stroke="#b3502f" stroke-width="30" stroke-linecap="round"/><line x1="1110" y1="1540" x2="678.4" y2="1310.8" stroke="#b3502f" stroke-width="30" stroke-linecap="round"/><line x1="1110" y1="1540" x2="748.9" y2="1276.5" stroke="#b3502f" stroke-width="30" stroke-linecap="round"/><line x1="1110" y1="1540" x2="828.3" y2="1248.6" stroke="#b3502f" stroke-width="30" stroke-linecap="round"/><line x1="1110" y1="1540" x2="914.7" y2="1228" stroke="#b3502f" stroke-width="30" stroke-linecap="round"/><line x1="1110" y1="1540" x2="1005.8" y2="1215" stroke="#b3502f" stroke-width="30" stroke-linecap="round"/><line x1="1110" y1="1540" x2="664.4" y2="1505.6" stroke="#2c4661" stroke-width="26" stroke-linecap="round"/><line x1="1110" y1="1540" x2="679.7" y2="1467.6" stroke="#2c4661" stroke-width="26" stroke-linecap="round"/><line x1="1110" y1="1540" x2="705.5" y2="1431.5" stroke="#2c4661" stroke-width="26" stroke-linecap="round"/><line x1="1110" y1="1540" x2="741.4" y2="1398" stroke="#2c4661" stroke-width="26" stroke-linecap="round"/><line x1="1110" y1="1540" x2="786.3" y2="1368.1" stroke="#2c4661" stroke-width="26" stroke-linecap="round"/><line x1="1110" y1="1540" x2="839.2" y2="1342.3" stroke="#2c4661" stroke-width="26" stroke-linecap="round"/><line x1="1110" y1="1540" x2="898.7" y2="1321.5" stroke="#2c4661" stroke-width="26" stroke-linecap="round"/><line x1="1110" y1="1540" x2="963.5" y2="1306" stroke="#2c4661" stroke-width="26" stroke-linecap="round"/><line x1="1110" y1="1540" x2="1031.9" y2="1296.3" stroke="#2c4661" stroke-width="26" stroke-linecap="round"/><line x1="1290" y1="1540" x2="2042.6" y2="1481.8" stroke="#2c4661" stroke-width="34" stroke-linecap="round"/><line x1="1290" y1="1540" x2="2016.8" y2="1417.8" stroke="#2c4661" stroke-width="34" stroke-linecap="round"/><line x1="1290" y1="1540" x2="1973.1" y2="1356.8" stroke="#2c4661" stroke-width="34" stroke-linecap="round"/><line x1="1290" y1="1540" x2="1912.6" y2="1300.2" stroke="#2c4661" stroke-width="34" stroke-linecap="round"/><line x1="1290" y1="1540" x2="1836.7" y2="1249.6" stroke="#2c4661" stroke-width="34" stroke-linecap="round"/><line x1="1290" y1="1540" x2="1747.4" y2="1206.2" stroke="#2c4661" stroke-width="34" stroke-linecap="round"/><line x1="1290" y1="1540" x2="1646.8" y2="1170.9" stroke="#2c4661" stroke-width="34" stroke-linecap="round"/><line x1="1290" y1="1540" x2="1537.4" y2="1144.8" stroke="#2c4661" stroke-width="34" stroke-linecap="round"/><line x1="1290" y1="1540" x2="1422" y2="1128.4" stroke="#2c4661" stroke-width="34" stroke-linecap="round"/><line x1="1290" y1="1540" x2="1884.2" y2="1494.1" stroke="#b3502f" stroke-width="30" stroke-linecap="round"/><line x1="1290" y1="1540" x2="1863.8" y2="1443.5" stroke="#b3502f" stroke-width="30" stroke-linecap="round"/><line x1="1290" y1="1540" x2="1829.3" y2="1395.3" stroke="#b3502f" stroke-width="30" stroke-linecap="round"/><line x1="1290" y1="1540" x2="1781.5" y2="1350.7" stroke="#b3502f" stroke-width="30" stroke-linecap="round"/><line x1="1290" y1="1540" x2="1721.6" y2="1310.8" stroke="#b3502f" stroke-width="30" stroke-linecap="round"/><line x1="1290" y1="1540" x2="1651.1" y2="1276.5" stroke="#b3502f" stroke-width="30" stroke-linecap="round"/><line x1="1290" y1="1540" x2="1571.7" y2="1248.6" stroke="#b3502f" stroke-width="30" stroke-linecap="round"/><line x1="1290" y1="1540" x2="1485.3" y2="1228" stroke="#b3502f" stroke-width="30" stroke-linecap="round"/><line x1="1290" y1="1540" x2="1394.2" y2="1215" stroke="#b3502f" stroke-width="30" stroke-linecap="round"/><line x1="1290" y1="1540" x2="1735.6" y2="1505.6" stroke="#2c4661" stroke-width="26" stroke-linecap="round"/><line x1="1290" y1="1540" x2="1720.3" y2="1467.6" stroke="#2c4661" stroke-width="26" stroke-linecap="round"/><line x1="1290" y1="1540" x2="1694.5" y2="1431.5" stroke="#2c4661" stroke-width="26" stroke-linecap="round"/><line x1="1290" y1="1540" x2="1658.6" y2="1398" stroke="#2c4661" stroke-width="26" stroke-linecap="round"/><line x1="1290" y1="1540" x2="1613.7" y2="1368.1" stroke="#2c4661" stroke-width="26" stroke-linecap="round"/><line x1="1290" y1="1540" x2="1560.8" y2="1342.3" stroke="#2c4661" stroke-width="26" stroke-linecap="round"/><line x1="1290" y1="1540" x2="1501.3" y2="1321.5" stroke="#2c4661" stroke-width="26" stroke-linecap="round"/><line x1="1290" y1="1540" x2="1436.5" y2="1306" stroke="#2c4661" stroke-width="26" stroke-linecap="round"/><line x1="1290" y1="1540" x2="1368.1" y2="1296.3" stroke="#2c4661" stroke-width="26" stroke-linecap="round"/><path d="M1080,1500 q -150,-60 -210,-150" fill="none" stroke="#2c4661" stroke-width="26" stroke-linecap="round"/><path d="M1035,1660 q -190,20 -260,-40" fill="none" stroke="#2c4661" stroke-width="26" stroke-linecap="round"/><path d="M1070,1810 q -150,90 -230,80" fill="none" stroke="#2c4661" stroke-width="26" stroke-linecap="round"/><path d="M1320,1500 q 150,-60 210,-150" fill="none" stroke="#2c4661" stroke-width="26" stroke-linecap="round"/><path d="M1365,1660 q 190,20 260,-40" fill="none" stroke="#2c4661" stroke-width="26" stroke-linecap="round"/><path d="M1330,1810 q 150,90 230,80" fill="none" stroke="#2c4661" stroke-width="26" stroke-linecap="round"/><ellipse cx="1200" cy="1660" rx="180" ry="240" fill="#2c4661"/><line x1="1200" y1="1540" x2="1200" y2="1896" stroke="#e9dcbc" stroke-width="9" opacity="0.7"/><path d="M1028,1552 Q 1200,1630 1372,1552" fill="none" stroke="#e9dcbc" stroke-width="9" opacity="0.7"/><path d="M1080,1450 A 130,130 0 0 1 1320,1450 L1278,1495 L1122,1495 Z" fill="#2c4661"/><line x1="1112" y1="1392" x2="1084" y2="1338" stroke="#2c4661" stroke-width="16" stroke-linecap="round"/><line x1="1156" y1="1392" x2="1142" y2="1338" stroke="#2c4661" stroke-width="16" stroke-linecap="round"/><line x1="1200" y1="1392" x2="1200" y2="1338" stroke="#2c4661" stroke-width="16" stroke-linecap="round"/><line x1="1244" y1="1392" x2="1258" y2="1338" stroke="#2c4661" stroke-width="16" stroke-linecap="round"/><line x1="1288" y1="1392" x2="1316" y2="1338" stroke="#2c4661" stroke-width="16" stroke-linecap="round"/><path d="M780,1990 Q 1200,2160 1620,1990 L1560,1990 Q 1200,2090 840,1990 Z" fill="#b3502f"/><rect x="100" y="100" width="2200" height="2800" fill="none" stroke="#2c4661" stroke-width="9"/><rect x="142" y="142" width="2116" height="2716" fill="none" stroke="#2c4661" stroke-width="3" opacity="0.65"/></svg></svg>