<svg xmlns="http://www.w3.org/2000/svg" width="2400" height="1800" viewBox="0 0 2400 1800"><rect width="2400" height="1800" fill="#dfe4dc"/><rect y="1400" width="2400" height="400" fill="#c2a67e"/><line x1="60" y1="1400" x2="10" y2="1800" stroke="#00000015" stroke-width="5"/><line x1="260" y1="1400" x2="210" y2="1800" stroke="#00000015" stroke-width="5"/><line x1="460" y1="1400" x2="410" y2="1800" stroke="#00000015" stroke-width="5"/><line x1="660" y1="1400" x2="610" y2="1800" stroke="#00000015" stroke-width="5"/><line x1="860" y1="1400" x2="810" y2="1800" stroke="#00000015" stroke-width="5"/><line x1="1060" y1="1400" x2="1010" y2="1800" stroke="#00000015" stroke-width="5"/><line x1="1260" y1="1400" x2="1210" y2="1800" stroke="#00000015" stroke-width="5"/><line x1="1460" y1="1400" x2="1410" y2="1800" stroke="#00000015" stroke-width="5"/><line x1="1660" y1="1400" x2="1610" y2="1800" stroke="#00000015" stroke-width="5"/><line x1="1860" y1="1400" x2="1810" y2="1800" stroke="#00000015" stroke-width="5"/><line x1="2060" y1="1400" x2="2010" y2="1800" stroke="#00000015" stroke-width="5"/><line x1="2260" y1="1400" x2="2210" y2="1800" stroke="#00000015" stroke-width="5"/><rect x="180" y="260" width="900" height="620" fill="#8a6a48"/><rect x="215" y="295" width="830" height="550" fill="#41524a"/><line x1="280" y1="420" x2="760" y2="420" stroke="#ffffff66" stroke-width="9" stroke-linecap="round"/><line x1="280" y1="520" x2="620" y2="520" stroke="#ffffff44" stroke-width="9" stroke-linecap="round"/><circle cx="880" cy="560" r="90" fill="none" stroke="#ffffff55" stroke-width="8"/><rect x="215" y="845" width="830" height="22" fill="#6f5436"/><rect x="330" y="1240" width="640" height="60" rx="10" fill="#9c7449"/><rect x="370" y="1300" width="60" height="240" fill="#8a6540"/><rect x="870" y="1300" width="60" height="240" fill="#8a6540"/><rect x="430" y="1160" width="150" height="80" rx="8" fill="#b3502f"/><rect x="450" y="1120" width="150" height="40" rx="8" fill="#c9b98e"/><circle cx="800" cy="1130" r="86" fill="#7fa3b8"/><path d="M760,1060 Q820,1100 780,1190 M740,1090 Q800,1120 850,1100" stroke="#5d8069" stroke-width="16" fill="none" stroke-linecap="round"/><circle cx="800" cy="1130" r="86" fill="none" stroke="#6b5233" stroke-width="7"/><line x1="800" y1="1216" x2="800" y2="1250" stroke="#6b5233" stroke-width="10"/><rect x="750" y="1244" width="100" height="14" rx="7" fill="#6b5233"/><rect x="1980" y="700" width="300" height="800" fill="#9c7449"/><rect x="2000" y="930" width="260" height="16" fill="#7c5a37"/><rect x="2020" y="790" width="36" height="140" fill="#b3502f"/><rect x="2066" y="802" width="36" height="128" fill="#39685c"/><rect x="2112" y="790" width="36" height="140" fill="#c9a227"/><rect x="2158" y="802" width="36" height="128" fill="#2c4661"/><rect x="2204" y="790" width="36" height="140" fill="#8a4423"/><rect x="2000" y="1180" width="260" height="16" fill="#7c5a37"/><rect x="2020" y="1040" width="36" height="140" fill="#39685c"/><rect x="2066" y="1052" width="36" height="128" fill="#c9a227"/><rect x="2112" y="1040" width="36" height="140" fill="#2c4661"/><rect x="2158" y="1052" width="36" height="128" fill="#8a4423"/><rect x="2204" y="1040" width="36" height="140" fill="#b3502f"/><rect x="2000" y="1430" width="260" height="16" fill="#7c5a37"/><rect x="2020" y="1290" width="36" height="140" fill="#c9a227"/><rect x="2066" y="1302" width="36" height="128" fill="#2c4661"/><rect x="2112" y="1290" width="36" height="140" fill="#8a4423"/><rect x="2158" y="1302" width="36" height="128" fill="#b3502f"/><rect x="2204" y="1290" width="36" height="140" fill="#39685c"/><defs><filter id="a140c-sh" x="-30%" y="-30%" width="160%" height="160%"><feGaussianBlur stdDeviation="16"/></filter></defs><rect x="1340.5" y="298.5" width="517" height="635" fill="#000" opacity="0.28" filter="url(#a140c-sh)"/><rect x="1326.5" y="276.5" width="517" height="635" fill="#3d342a"/><rect x="1341.8" y="291.8" width="486.4" height="604.5" fill="none" stroke="#00000055" stroke-width="3"/><rect x="1350" y="300" width="470" height="588" fill="#f6f2ea"/><svg x="1385.3" y="335.3" width="399.5" height="517.5" viewBox="0 0 2400 3000" preserveAspectRatio="xMidYMid slice"><rect width="2400" height="3000" fill="#e9dcbc"/><radialGradient id="a140-vig" cx="50%" cy="42%" r="80%"><stop offset="55%" stop-color="#000" stop-opacity="0"/><stop offset="100%" stop-color="#000" stop-opacity="0.15"/></radialGradient><rect width="2400" height="3000" fill="url(#a140-vig)"/><circle cx="696.7" cy="2501.4" r="3.6" fill="#2c4661" opacity="0.034"/><circle cx="1108.1" cy="290" r="2.6" fill="#2c4661" opacity="0.034"/><circle cx="869.6" cy="2179" r="3.8" fill="#2c4661" opacity="0.060"/><circle cx="2004.4" cy="334.9" r="3.3" fill="#2c4661" opacity="0.059"/><circle cx="188.5" cy="2468.2" r="4" fill="#2c4661" opacity="0.039"/><circle cx="706" cy="1296.7" r="2.1" fill="#2c4661" opacity="0.049"/><circle cx="1538.6" cy="2290.8" r="3.7" fill="#2c4661" opacity="0.036"/><circle cx="2282.9" cy="2463.7" r="3.8" fill="#2c4661" opacity="0.040"/><circle cx="744.4" cy="520.4" r="1.9" fill="#2c4661" opacity="0.070"/><circle cx="1532.5" cy="1188.5" r="3.1" fill="#2c4661" opacity="0.045"/><circle cx="1142.4" cy="1890.9" r="3.2" fill="#2c4661" opacity="0.037"/><circle cx="1279.4" cy="342" r="3.8" fill="#2c4661" opacity="0.052"/><circle cx="1486.4" cy="429.2" r="2.6" fill="#2c4661" opacity="0.069"/><circle cx="492.2" cy="438.7" r="3.1" fill="#2c4661" opacity="0.040"/><circle cx="1615.5" cy="813.3" r="2.8" fill="#2c4661" opacity="0.058"/><circle cx="1539.7" cy="117.1" r="2" fill="#2c4661" opacity="0.052"/><circle cx="2326.5" cy="925.6" r="4" fill="#2c4661" opacity="0.078"/><circle cx="1480.9" cy="993.6" r="4.1" fill="#2c4661" opacity="0.061"/><circle cx="2188.9" cy="1241.3" r="3.8" fill="#2c4661" opacity="0.031"/><circle cx="2013" cy="263.7" r="2.2" fill="#2c4661" opacity="0.034"/><circle cx="738.3" cy="1586.1" r="3" fill="#2c4661" opacity="0.032"/><circle cx="539.5" cy="2946.4" r="4.3" fill="#2c4661" opacity="0.063"/><circle cx="633.9" cy="1997.6" r="4.3" fill="#2c4661" opacity="0.043"/><circle cx="1611.7" cy="970.6" r="2.6" fill="#2c4661" opacity="0.052"/><circle cx="903.2" cy="2082.8" r="3.9" fill="#2c4661" opacity="0.040"/><circle cx="2207.3" cy="1311" r="3.7" fill="#2c4661" opacity="0.032"/><circle cx="1895.2" cy="885.4" r="3.8" fill="#2c4661" opacity="0.079"/><circle cx="2239.5" cy="1735.2" r="2.1" fill="#2c4661" opacity="0.075"/><circle cx="1388.4" cy="159.7" r="3.2" fill="#2c4661" opacity="0.050"/><circle cx="603.5" cy="1299.6" r="3.6" fill="#2c4661" opacity="0.078"/><circle cx="1564.6" cy="540.7" r="2" fill="#2c4661" opacity="0.042"/><circle cx="220.1" cy="1032" r="2.9" fill="#2c4661" opacity="0.076"/><circle cx="1615.8" cy="712.9" r="4.1" fill="#2c4661" opacity="0.070"/><circle cx="459" cy="2071.2" r="3.6" fill="#2c4661" opacity="0.069"/><circle cx="122" cy="193.2" r="2.1" fill="#2c4661" opacity="0.032"/><circle cx="824.4" cy="774.1" r="3.9" fill="#2c4661" opacity="0.075"/><circle cx="1705.1" cy="1445.9" r="4.4" fill="#2c4661" opacity="0.044"/><circle cx="2133.2" cy="2952.9" r="3.1" fill="#2c4661" opacity="0.075"/><circle cx="1690.5" cy="2612.8" r="3.7" fill="#2c4661" opacity="0.055"/><circle cx="2221.4" cy="58.4" r="4" fill="#2c4661" opacity="0.063"/><circle cx="1556.3" cy="217.3" r="2.8" fill="#2c4661" opacity="0.039"/><circle cx="2087.2" cy="2135.6" r="1.6" fill="#2c4661" opacity="0.035"/><circle cx="303.4" cy="919.4" r="2.3" fill="#2c4661" opacity="0.050"/><circle cx="2315" cy="2893.6" r="4.4" fill="#2c4661" opacity="0.074"/><circle cx="882.4" cy="1579.4" r="2.5" fill="#2c4661" opacity="0.066"/><circle cx="271.7" cy="1035" r="1.7" fill="#2c4661" opacity="0.065"/><circle cx="513.8" cy="1745.2" r="3.5" fill="#2c4661" opacity="0.080"/><circle cx="2209.5" cy="1633.2" r="2.6" fill="#2c4661" opacity="0.030"/><circle cx="1700.6" cy="2046.9" r="3.5" fill="#2c4661" opacity="0.058"/><circle cx="1202.9" cy="2118.4" r="3.4" fill="#2c4661" opacity="0.036"/><circle cx="1437.7" cy="2350.4" r="2.6" fill="#2c4661" opacity="0.050"/><circle cx="1535" cy="1974.5" r="2.5" fill="#2c4661" opacity="0.049"/><circle cx="165.6" cy="2138.5" r="3.3" fill="#2c4661" opacity="0.067"/><circle cx="1388.5" cy="1403.8" r="2.1" fill="#2c4661" opacity="0.058"/><circle cx="1753.3" cy="1671.6" r="4" fill="#2c4661" opacity="0.051"/><circle cx="1245.1" cy="888.3" r="1.7" fill="#2c4661" opacity="0.041"/><circle cx="1333.1" cy="2893.5" r="3.4" fill="#2c4661" opacity="0.060"/><circle cx="1041" cy="1888.4" r="3.4" fill="#2c4661" opacity="0.045"/><circle cx="548" cy="583.2" r="3.7" fill="#2c4661" opacity="0.079"/><circle cx="848.1" cy="1705.5" r="2.4" fill="#2c4661" opacity="0.079"/><circle cx="1748.5" cy="2103.8" r="2.3" fill="#2c4661" opacity="0.064"/><circle cx="1865.6" cy="2449.8" r="2.2" fill="#2c4661" opacity="0.077"/><circle cx="1966.7" cy="2035.2" r="2.8" fill="#2c4661" opacity="0.032"/><circle cx="794.1" cy="2399.4" r="2.9" fill="#2c4661" opacity="0.057"/><circle cx="361.7" cy="752.5" r="3.2" fill="#2c4661" opacity="0.075"/><circle cx="2132.5" cy="1178.9" r="2" fill="#2c4661" opacity="0.035"/><circle cx="1958.1" cy="1061.4" r="3.8" fill="#2c4661" opacity="0.059"/><circle cx="1970.9" cy="2783.5" r="4" fill="#2c4661" opacity="0.049"/><circle cx="1218" cy="938.6" r="1.8" fill="#2c4661" opacity="0.076"/><circle cx="2299.2" cy="1570" r="3.9" fill="#2c4661" opacity="0.036"/><circle cx="537" cy="373.1" r="4.4" fill="#2c4661" opacity="0.075"/><circle cx="1736.5" cy="534.9" r="4.5" fill="#2c4661" opacity="0.078"/><circle cx="1070.6" cy="2079.1" r="2" fill="#2c4661" opacity="0.040"/><circle cx="1131" cy="1098.7" r="2.7" fill="#2c4661" opacity="0.077"/><circle cx="1039.3" cy="1588.4" r="1.9" fill="#2c4661" opacity="0.057"/><circle cx="438" cy="1665.2" r="4.1" fill="#2c4661" opacity="0.055"/><circle cx="1680" cy="69" r="3.8" fill="#2c4661" opacity="0.077"/><circle cx="2319.3" cy="1958.3" r="3.9" fill="#2c4661" opacity="0.044"/><circle cx="1093.5" cy="1848.4" r="3.2" fill="#2c4661" opacity="0.056"/><circle cx="1217.8" cy="1953" r="2.3" fill="#2c4661" opacity="0.070"/><circle cx="1103.6" cy="1005.9" r="314.8" fill="#b3502f" opacity="0.95"/><line x1="200" y1="2430" x2="2200" y2="2430" stroke="#2c4661" stroke-width="16"/><rect x="930" y="2340" width="540" height="90" fill="#2c4661"/><rect x="1005.6" y="2260" width="388.8" height="80" fill="#2c4661"/><path d="M1065,2260 L1116.3,820.5 L1283.7,820.5 L1335,2260 Z" fill="#2c4661"/><polygon points="1200,670.5 1116.3,822.5 1283.7,822.5" fill="#b3502f"/><polygon points="1200,907.5 1177,953.5 1223,953.5" fill="#e9dcbc" opacity="0.9"/><rect x="1177" y="1032.5" width="46" height="16" fill="#e9dcbc" opacity="0.9"/><circle cx="1200" cy="1150.5" r="18.400000000000002" fill="none" stroke="#e9dcbc" stroke-width="10" opacity="0.9"/><line x1="1200" y1="1168.9" x2="1200" y2="1196.5" stroke="#e9dcbc" stroke-width="10" opacity="0.9"/><rect x="1177" y="1252.5" width="46" height="16" fill="#e9dcbc" opacity="0.9"/><polyline points="1154,1384.5 1177,1358.5 1200,1384.5 1223,1358.5 1246,1384.5 " fill="none" stroke="#e9dcbc" stroke-width="4.7" stroke-linejoin="miter"/><circle cx="1200" cy="1480.5" r="18.400000000000002" fill="none" stroke="#e9dcbc" stroke-width="10" opacity="0.9"/><line x1="1200" y1="1498.9" x2="1200" y2="1526.5" stroke="#e9dcbc" stroke-width="10" opacity="0.9"/><circle cx="1200" cy="1590.5" r="19.32" fill="#e9dcbc" opacity="0.9"/><circle cx="1200" cy="1700.5" r="18.400000000000002" fill="none" stroke="#e9dcbc" stroke-width="10" opacity="0.9"/><line x1="1200" y1="1718.9" x2="1200" y2="1746.5" stroke="#e9dcbc" stroke-width="10" opacity="0.9"/><circle cx="1200" cy="1810.5" r="18.400000000000002" fill="none" stroke="#e9dcbc" stroke-width="10" opacity="0.9"/><line x1="1200" y1="1828.9" x2="1200" y2="1856.5" stroke="#e9dcbc" stroke-width="10" opacity="0.9"/><circle cx="1200" cy="1920.5" r="19.32" fill="#e9dcbc" opacity="0.9"/><rect x="1177" y="2022.5" width="46" height="16" fill="#e9dcbc" opacity="0.9"/><rect x="200" y="2770" width="2000" height="13.3" fill="#2c4661"/><rect x="200" y="2782.8" width="2000" height="13.3" fill="#b3502f"/><rect x="200" y="2795.6" width="2000" height="13.3" fill="#2c4661"/><rect x="200" y="2808.4" width="2000" height="13.3" fill="#c9b98e"/><rect x="200" y="2821.2" width="2000" height="13.3" fill="#2c4661"/><rect x="100" y="100" width="2200" height="2800" fill="none" stroke="#2c4661" stroke-width="9"/><rect x="142" y="142" width="2116" height="2716" fill="none" stroke="#2c4661" stroke-width="3" opacity="0.65"/></svg></svg>