<svg xmlns="http://www.w3.org/2000/svg" width="2400" height="1800" viewBox="0 0 2400 1800"><rect width="2400" height="1800" fill="#e5ddcf"/><rect y="1430" width="2400" height="370" fill="#b89a76"/><line x1="100" y1="1430" x2="45" y2="1800" stroke="#00000016" stroke-width="5"/><line x1="330" y1="1430" x2="275" y2="1800" stroke="#00000016" stroke-width="5"/><line x1="560" y1="1430" x2="505" y2="1800" stroke="#00000016" stroke-width="5"/><line x1="790" y1="1430" x2="735" y2="1800" stroke="#00000016" stroke-width="5"/><line x1="1020" y1="1430" x2="965" y2="1800" stroke="#00000016" stroke-width="5"/><line x1="1250" y1="1430" x2="1195" y2="1800" stroke="#00000016" stroke-width="5"/><line x1="1480" y1="1430" x2="1425" y2="1800" stroke="#00000016" stroke-width="5"/><line x1="1710" y1="1430" x2="1655" y2="1800" stroke="#00000016" stroke-width="5"/><line x1="1940" y1="1430" x2="1885" y2="1800" stroke="#00000016" stroke-width="5"/><line x1="2170" y1="1430" x2="2115" y2="1800" stroke="#00000016" stroke-width="5"/><rect x="620" y="1180" width="1180" height="52" rx="10" fill="#8a6540"/><rect x="680" y="1232" width="70" height="330" fill="#775433"/><rect x="1670" y="1232" width="70" height="330" fill="#775433"/><rect x="760" y="1120" width="220" height="34" rx="6" fill="#a8713c"/><rect x="780" y="1086" width="200" height="34" rx="6" fill="#39685c"/><rect x="800" y="1052" width="170" height="34" rx="6" fill="#c9a227"/><circle cx="1240" cy="1130" r="46" fill="#3f3428"/><rect x="1226" y="1048" width="16" height="60" fill="#3f3428" transform="rotate(18 1240 1090)"/><rect x="1420" y="1100" width="260" height="26" rx="13" fill="#e8dcc0"/><rect x="1450" y="1072" width="260" height="26" rx="13" fill="#dfd0ad"/><rect x="1080" y="1300" width="360" height="34" rx="14" fill="#6f5436"/><rect x="1100" y="1334" width="40" height="220" fill="#6f5436"/><rect x="1380" y="1334" width="40" height="220" fill="#6f5436"/><rect x="1080" y="1030" width="42" height="290" rx="14" fill="#6f5436"/><rect x="260" y="480" width="560" height="24" fill="#8a6540"/><rect x="300" y="360" width="90" height="120" fill="#b3502f"/><rect x="400" y="380" width="80" height="100" fill="#2c4661"/><rect x="490" y="350" width="86" height="130" fill="#96a396"/><path d="M700,480 Q 616,347 574,382" fill="none" stroke="#5d7052" stroke-width="11.2" stroke-linecap="round"/><path d="M700,480 Q 644,347 616,354" fill="none" stroke="#5d7052" stroke-width="11.2" stroke-linecap="round"/><path d="M700,480 Q 672,347 658,326" fill="none" stroke="#5d7052" stroke-width="11.2" stroke-linecap="round"/><path d="M700,480 Q 700,347 700,298" fill="none" stroke="#5d7052" stroke-width="11.2" stroke-linecap="round"/><path d="M700,480 Q 728,347 742,326" fill="none" stroke="#5d7052" stroke-width="11.2" stroke-linecap="round"/><path d="M700,480 Q 756,347 784,354" fill="none" stroke="#5d7052" stroke-width="11.2" stroke-linecap="round"/><path d="M700,480 Q 784,347 826,382" fill="none" stroke="#5d7052" stroke-width="11.2" stroke-linecap="round"/><path d="M651,480 L749,480 L736.4,557 L663.6,557 Z" fill="#a9714d"/><path d="M320,1520 Q 164,1273 86,1338" fill="none" stroke="#5d7052" stroke-width="20.8" stroke-linecap="round"/><path d="M320,1520 Q 216,1273 164,1286" fill="none" stroke="#5d7052" stroke-width="20.8" stroke-linecap="round"/><path d="M320,1520 Q 268,1273 242,1234" fill="none" stroke="#5d7052" stroke-width="20.8" stroke-linecap="round"/><path d="M320,1520 Q 320,1273 320,1182" fill="none" stroke="#5d7052" stroke-width="20.8" stroke-linecap="round"/><path d="M320,1520 Q 372,1273 398,1234" fill="none" stroke="#5d7052" stroke-width="20.8" stroke-linecap="round"/><path d="M320,1520 Q 424,1273 476,1286" fill="none" stroke="#5d7052" stroke-width="20.8" stroke-linecap="round"/><path d="M320,1520 Q 476,1273 554,1338" fill="none" stroke="#5d7052" stroke-width="20.8" stroke-linecap="round"/><path d="M229,1520 L411,1520 L387.6,1663 L252.4,1663 Z" fill="#a9714d"/><defs><filter id="a196s-sh" x="-30%" y="-30%" width="160%" height="160%"><feGaussianBlur stdDeviation="16"/></filter></defs><rect x="1206" y="294" width="616" height="756" fill="#000" opacity="0.28" filter="url(#a196s-sh)"/><rect x="1192" y="272" width="616" height="756" fill="#443a2d"/><rect x="1210.2" y="290.2" width="579.6" height="719.6" fill="none" stroke="#00000055" stroke-width="3"/><rect x="1220" y="300" width="560" height="700" fill="#f6f2ea"/><svg x="1262" y="342" width="476" height="616" viewBox="0 0 2400 3000" preserveAspectRatio="xMidYMid slice"><filter id="a196-warp" x="-4%" y="-4%" width="108%" height="108%"><feTurbulence type="fractalNoise" baseFrequency="0.0105" numOctaves="2" seed="8150" result="w"/><feDisplacementMap in="SourceGraphic" in2="w" scale="12" xChannelSelector="R" yChannelSelector="G"/></filter><filter id="a196-grain" x="0%" y="0%" width="100%" height="100%"><feTurbulence type="fractalNoise" baseFrequency="0.6" numOctaves="2" seed="8157"/><feColorMatrix type="matrix" values="0.33 0.33 0.33 0 0.62  0.33 0.33 0.33 0 0.62  0.33 0.33 0.33 0 0.62  0 0 0 0 1"/></filter><filter id="a196-mottle" x="0%" y="0%" width="100%" height="100%"><feTurbulence type="fractalNoise" baseFrequency="0.0045" numOctaves="3" seed="8163"/><feColorMatrix type="matrix" values="0.2 0.2 0.2 0 0.78  0.2 0.2 0.2 0 0.78  0.2 0.2 0.2 0 0.78  0 0 0 0 1"/></filter><filter id="a196-fade" x="0%" y="0%" width="100%" height="100%"><feTurbulence type="fractalNoise" baseFrequency="0.006" numOctaves="2" seed="8179"/><feColorMatrix type="matrix" values="0.3 0.3 0.3 0 -0.08  0.3 0.3 0.3 0 -0.08  0.3 0.3 0.3 0 -0.1  0 0 0 0 1"/></filter><filter id="a196-blur9"><feGaussianBlur stdDeviation="9"/></filter><radialGradient id="a196-vig" cx="50%" cy="44%" r="78%"><stop offset="52%" stop-color="#241a10" stop-opacity="0"/><stop offset="100%" stop-color="#241a10" stop-opacity="0.17"/></radialGradient><radialGradient id="a196-warm" cx="60%" cy="30%" r="85%"><stop offset="0%" stop-color="#e8c890" stop-opacity="0.14"/><stop offset="70%" stop-color="#e8c890" stop-opacity="0"/></radialGradient><rect width="2400" height="3000" fill="#e2dbc9"/><rect width="2400" height="3000" fill="url(#a196-warm)"/><rect y="774.6" width="2400" height="247" fill="#8a6a40" opacity="0.025" transform="rotate(1.6 1200 774.6)"/><rect y="2100.8" width="2400" height="182.3" fill="#ffffff" opacity="0.037" transform="rotate(-1.2 1200 2100.8)"/><rect y="2039.9" width="2400" height="133.8" fill="#8a6a40" opacity="0.025" transform="rotate(0.2 1200 2039.9)"/><rect y="8.2" width="2400" height="167" fill="#ffffff" opacity="0.032" transform="rotate(1 1200 8.2)"/><rect y="1402.8" width="2400" height="395.9" fill="#8a6a40" opacity="0.044" transform="rotate(1.3 1200 1402.8)"/><rect y="2912.8" width="2400" height="128.6" fill="#ffffff" opacity="0.024" transform="rotate(1.1 1200 2912.8)"/><rect y="1852" width="2400" height="173.8" fill="#8a6a40" opacity="0.040" transform="rotate(1.7 1200 1852)"/><g filter="url(#a196-warp)"><circle cx="1200" cy="1420" r="900" fill="none" stroke="#4c6b5c" stroke-width="12"/><line x1="2066" y1="1420" x2="2100" y2="1420" stroke="#4c6b5c" stroke-width="8"/><line x1="2058.6" y1="1533" x2="2092.3" y2="1537.5" stroke="#4c6b5c" stroke-width="8"/><line x1="2036.5" y1="1644.1" x2="2069.3" y2="1652.9" stroke="#4c6b5c" stroke-width="8"/><line x1="2000.1" y1="1751.4" x2="2031.5" y2="1764.4" stroke="#4c6b5c" stroke-width="8"/><line x1="1950" y1="1853" x2="1979.4" y2="1870" stroke="#4c6b5c" stroke-width="8"/><line x1="1887" y1="1947.2" x2="1914" y2="1967.9" stroke="#4c6b5c" stroke-width="8"/><line x1="1812.4" y1="2032.4" x2="1836.4" y2="2056.4" stroke="#4c6b5c" stroke-width="8"/><line x1="1727.2" y1="2107" x2="1747.9" y2="2134" stroke="#4c6b5c" stroke-width="8"/><line x1="1633" y1="2170" x2="1650" y2="2199.4" stroke="#4c6b5c" stroke-width="8"/><line x1="1531.4" y1="2220.1" x2="1544.4" y2="2251.5" stroke="#4c6b5c" stroke-width="8"/><line x1="1424.1" y1="2256.5" x2="1432.9" y2="2289.3" stroke="#4c6b5c" stroke-width="8"/><line x1="1313" y1="2278.6" x2="1317.5" y2="2312.3" stroke="#4c6b5c" stroke-width="8"/><line x1="1200" y1="2286" x2="1200" y2="2320" stroke="#4c6b5c" stroke-width="8"/><line x1="1087" y1="2278.6" x2="1082.5" y2="2312.3" stroke="#4c6b5c" stroke-width="8"/><line x1="975.9" y1="2256.5" x2="967.1" y2="2289.3" stroke="#4c6b5c" stroke-width="8"/><line x1="868.6" y1="2220.1" x2="855.6" y2="2251.5" stroke="#4c6b5c" stroke-width="8"/><line x1="767" y1="2170" x2="750" y2="2199.4" stroke="#4c6b5c" stroke-width="8"/><line x1="672.8" y1="2107" x2="652.1" y2="2134" stroke="#4c6b5c" stroke-width="8"/><line x1="587.6" y1="2032.4" x2="563.6" y2="2056.4" stroke="#4c6b5c" stroke-width="8"/><line x1="513" y1="1947.2" x2="486" y2="1967.9" stroke="#4c6b5c" stroke-width="8"/><line x1="450" y1="1853" x2="420.6" y2="1870" stroke="#4c6b5c" stroke-width="8"/><line x1="399.9" y1="1751.4" x2="368.5" y2="1764.4" stroke="#4c6b5c" stroke-width="8"/><line x1="363.5" y1="1644.1" x2="330.7" y2="1652.9" stroke="#4c6b5c" stroke-width="8"/><line x1="341.4" y1="1533" x2="307.7" y2="1537.5" stroke="#4c6b5c" stroke-width="8"/><line x1="334" y1="1420" x2="300" y2="1420" stroke="#4c6b5c" stroke-width="8"/><line x1="341.4" y1="1307" x2="307.7" y2="1302.5" stroke="#4c6b5c" stroke-width="8"/><line x1="363.5" y1="1195.9" x2="330.7" y2="1187.1" stroke="#4c6b5c" stroke-width="8"/><line x1="399.9" y1="1088.6" x2="368.5" y2="1075.6" stroke="#4c6b5c" stroke-width="8"/><line x1="450" y1="987" x2="420.6" y2="970" stroke="#4c6b5c" stroke-width="8"/><line x1="513" y1="892.8" x2="486" y2="872.1" stroke="#4c6b5c" stroke-width="8"/><line x1="587.6" y1="807.6" x2="563.6" y2="783.6" stroke="#4c6b5c" stroke-width="8"/><line x1="672.8" y1="733" x2="652.1" y2="706" stroke="#4c6b5c" stroke-width="8"/><line x1="767" y1="670" x2="750" y2="640.6" stroke="#4c6b5c" stroke-width="8"/><line x1="868.6" y1="619.9" x2="855.6" y2="588.5" stroke="#4c6b5c" stroke-width="8"/><line x1="975.9" y1="583.5" x2="967.1" y2="550.7" stroke="#4c6b5c" stroke-width="8"/><line x1="1087" y1="561.4" x2="1082.5" y2="527.7" stroke="#4c6b5c" stroke-width="8"/><line x1="1200" y1="554" x2="1200" y2="520" stroke="#4c6b5c" stroke-width="8"/><line x1="1313" y1="561.4" x2="1317.5" y2="527.7" stroke="#4c6b5c" stroke-width="8"/><line x1="1424.1" y1="583.5" x2="1432.9" y2="550.7" stroke="#4c6b5c" stroke-width="8"/><line x1="1531.4" y1="619.9" x2="1544.4" y2="588.5" stroke="#4c6b5c" stroke-width="8"/><line x1="1633" y1="670" x2="1650" y2="640.6" stroke="#4c6b5c" stroke-width="8"/><line x1="1727.2" y1="733" x2="1747.9" y2="706" stroke="#4c6b5c" stroke-width="8"/><line x1="1812.4" y1="807.6" x2="1836.4" y2="783.6" stroke="#4c6b5c" stroke-width="8"/><line x1="1887" y1="892.8" x2="1914" y2="872.1" stroke="#4c6b5c" stroke-width="8"/><line x1="1950" y1="987" x2="1979.4" y2="970" stroke="#4c6b5c" stroke-width="8"/><line x1="2000.1" y1="1088.6" x2="2031.5" y2="1075.6" stroke="#4c6b5c" stroke-width="8"/><line x1="2036.5" y1="1195.9" x2="2069.3" y2="1187.1" stroke="#4c6b5c" stroke-width="8"/><line x1="2058.6" y1="1307" x2="2092.3" y2="1302.5" stroke="#4c6b5c" stroke-width="8"/><polygon points="2010,1420 1808.6,1356 1808.6,1484" fill="#4c6b5c"/><polygon points="1982.4,1629.6 1804.5,1515.7 1771.4,1639.3" fill="#a8713c"/><polygon points="1901.5,1825 1759.1,1668.9 1695.1,1779.7" fill="#4c6b5c"/><polygon points="1772.8,1992.8 1675.6,1805.1 1585.1,1895.6" fill="#a8713c"/><polygon points="1605,2121.5 1559.7,1915.1 1448.9,1979.1" fill="#4c6b5c"/><polygon points="1409.6,2202.4 1419.3,1991.4 1295.7,2024.5" fill="#a8713c"/><polygon points="1200,2230 1264,2028.6 1136,2028.6" fill="#4c6b5c"/><polygon points="990.4,2202.4 1104.3,2024.5 980.7,1991.4" fill="#a8713c"/><polygon points="795,2121.5 951.1,1979.1 840.3,1915.1" fill="#4c6b5c"/><polygon points="627.2,1992.8 814.9,1895.6 724.4,1805.1" fill="#a8713c"/><polygon points="498.5,1825 704.9,1779.7 640.9,1668.9" fill="#4c6b5c"/><polygon points="417.6,1629.6 628.6,1639.3 595.5,1515.7" fill="#a8713c"/><polygon points="390,1420 591.4,1484 591.4,1356" fill="#4c6b5c"/><polygon points="417.6,1210.4 595.5,1324.3 628.6,1200.7" fill="#a8713c"/><polygon points="498.5,1015 640.9,1171.1 704.9,1060.3" fill="#4c6b5c"/><polygon points="627.2,847.2 724.4,1034.9 814.9,944.4" fill="#a8713c"/><polygon points="795,718.5 840.3,924.9 951.1,860.9" fill="#4c6b5c"/><polygon points="990.4,637.6 980.7,848.6 1104.3,815.5" fill="#a8713c"/><polygon points="1200,610 1136,811.4 1264,811.4" fill="#4c6b5c"/><polygon points="1409.6,637.6 1295.7,815.5 1419.3,848.6" fill="#a8713c"/><polygon points="1605,718.5 1448.9,860.9 1559.7,924.9" fill="#4c6b5c"/><polygon points="1772.8,847.2 1585.1,944.4 1675.6,1034.9" fill="#a8713c"/><polygon points="1901.5,1015 1695.1,1060.3 1759.1,1171.1" fill="#4c6b5c"/><polygon points="1982.4,1210.4 1771.4,1200.7 1804.5,1324.3" fill="#a8713c"/><circle cx="1200" cy="1420" r="558" fill="none" stroke="#4c6b5c" stroke-width="8"/><path d="M0 0 Q 67.5 -198.4 0 -522 Q -67.5 -198.4 0 0 Z" fill="#a8713c" opacity="0.96" transform="translate(1209.8 1422) rotate(191.3)"/><path d="M0 0 Q 67.5 -198.4 0 -522 Q -67.5 -198.4 0 0 Z" fill="#4c6b5c" opacity="0.96" transform="translate(1208.3 1425.6) rotate(213.8)"/><path d="M0 0 Q 67.5 -198.4 0 -522 Q -67.5 -198.4 0 0 Z" fill="#a8713c" opacity="0.96" transform="translate(1205.6 1428.3) rotate(236.3)"/><path d="M0 0 Q 67.5 -198.4 0 -522 Q -67.5 -198.4 0 0 Z" fill="#4c6b5c" opacity="0.96" transform="translate(1202 1429.8) rotate(258.8)"/><path d="M0 0 Q 67.5 -198.4 0 -522 Q -67.5 -198.4 0 0 Z" fill="#a8713c" opacity="0.96" transform="translate(1198 1429.8) rotate(281.3)"/><path d="M0 0 Q 67.5 -198.4 0 -522 Q -67.5 -198.4 0 0 Z" fill="#4c6b5c" opacity="0.96" transform="translate(1194.4 1428.3) rotate(303.8)"/><path d="M0 0 Q 67.5 -198.4 0 -522 Q -67.5 -198.4 0 0 Z" fill="#a8713c" opacity="0.96" transform="translate(1191.7 1425.6) rotate(326.3)"/><path d="M0 0 Q 67.5 -198.4 0 -522 Q -67.5 -198.4 0 0 Z" fill="#4c6b5c" opacity="0.96" transform="translate(1190.2 1422) rotate(348.8)"/><path d="M0 0 Q 67.5 -198.4 0 -522 Q -67.5 -198.4 0 0 Z" fill="#a8713c" opacity="0.96" transform="translate(1190.2 1418) rotate(371.3)"/><path d="M0 0 Q 67.5 -198.4 0 -522 Q -67.5 -198.4 0 0 Z" fill="#4c6b5c" opacity="0.96" transform="translate(1191.7 1414.4) rotate(393.8)"/><path d="M0 0 Q 67.5 -198.4 0 -522 Q -67.5 -198.4 0 0 Z" fill="#a8713c" opacity="0.96" transform="translate(1194.4 1411.7) rotate(416.3)"/><path d="M0 0 Q 67.5 -198.4 0 -522 Q -67.5 -198.4 0 0 Z" fill="#4c6b5c" opacity="0.96" transform="translate(1198 1410.2) rotate(438.8)"/><path d="M0 0 Q 67.5 -198.4 0 -522 Q -67.5 -198.4 0 0 Z" fill="#a8713c" opacity="0.96" transform="translate(1202 1410.2) rotate(461.3)"/><path d="M0 0 Q 67.5 -198.4 0 -522 Q -67.5 -198.4 0 0 Z" fill="#4c6b5c" opacity="0.96" transform="translate(1205.6 1411.7) rotate(483.8)"/><path d="M0 0 Q 67.5 -198.4 0 -522 Q -67.5 -198.4 0 0 Z" fill="#a8713c" opacity="0.96" transform="translate(1208.3 1414.4) rotate(506.3)"/><path d="M0 0 Q 67.5 -198.4 0 -522 Q -67.5 -198.4 0 0 Z" fill="#4c6b5c" opacity="0.96" transform="translate(1209.8 1418) rotate(528.8)"/><path d="M0 0 Q 76.5 -116.3 0 -306 Q -76.5 -116.3 0 0 Z" fill="#bdb49c" opacity="0.98" transform="translate(1200 1420) rotate(180)"/><path d="M0 0 Q 76.5 -116.3 0 -306 Q -76.5 -116.3 0 0 Z" fill="#bdb49c" opacity="0.98" transform="translate(1200 1420) rotate(225)"/><path d="M0 0 Q 76.5 -116.3 0 -306 Q -76.5 -116.3 0 0 Z" fill="#bdb49c" opacity="0.98" transform="translate(1200 1420) rotate(270)"/><path d="M0 0 Q 76.5 -116.3 0 -306 Q -76.5 -116.3 0 0 Z" fill="#bdb49c" opacity="0.98" transform="translate(1200 1420) rotate(315)"/><path d="M0 0 Q 76.5 -116.3 0 -306 Q -76.5 -116.3 0 0 Z" fill="#bdb49c" opacity="0.98" transform="translate(1200 1420) rotate(360)"/><path d="M0 0 Q 76.5 -116.3 0 -306 Q -76.5 -116.3 0 0 Z" fill="#bdb49c" opacity="0.98" transform="translate(1200 1420) rotate(405)"/><path d="M0 0 Q 76.5 -116.3 0 -306 Q -76.5 -116.3 0 0 Z" fill="#bdb49c" opacity="0.98" transform="translate(1200 1420) rotate(450)"/><path d="M0 0 Q 76.5 -116.3 0 -306 Q -76.5 -116.3 0 0 Z" fill="#bdb49c" opacity="0.98" transform="translate(1200 1420) rotate(495)"/><circle cx="1200" cy="1420" r="110" fill="#4c6b5c"/><circle cx="1200" cy="1420" r="44" fill="#a8713c"/><circle cx="388" cy="208" r="14.6" fill="#4c6b5c"/><circle cx="444" cy="208" r="14.6" fill="#4c6b5c"/><circle cx="500" cy="208" r="14.6" fill="#4c6b5c"/><circle cx="556" cy="208" r="14.6" fill="#4c6b5c"/><circle cx="612" cy="208" r="14.6" fill="#4c6b5c"/><circle cx="668" cy="208" r="14.6" fill="#4c6b5c"/><circle cx="724" cy="208" r="14.6" fill="#4c6b5c"/><circle cx="780" cy="208" r="14.6" fill="#4c6b5c"/><circle cx="836" cy="208" r="14.6" fill="#4c6b5c"/><circle cx="892" cy="208" r="14.6" fill="#4c6b5c"/><circle cx="948" cy="208" r="14.6" fill="#4c6b5c"/><circle cx="1004" cy="208" r="14.6" fill="#4c6b5c"/><circle cx="1060" cy="208" r="14.6" fill="#4c6b5c"/><circle cx="1116" cy="208" r="14.6" fill="#4c6b5c"/><circle cx="1172" cy="208" r="14.6" fill="#4c6b5c"/><circle cx="1228" cy="208" r="14.6" fill="#4c6b5c"/><circle cx="1284" cy="208" r="14.6" fill="#4c6b5c"/><circle cx="1340" cy="208" r="14.6" fill="#4c6b5c"/><circle cx="1396" cy="208" r="14.6" fill="#4c6b5c"/><circle cx="1452" cy="208" r="14.6" fill="#4c6b5c"/><circle cx="1508" cy="208" r="14.6" fill="#4c6b5c"/><circle cx="1564" cy="208" r="14.6" fill="#4c6b5c"/><circle cx="1620" cy="208" r="14.6" fill="#4c6b5c"/><circle cx="1676" cy="208" r="14.6" fill="#4c6b5c"/><circle cx="1732" cy="208" r="14.6" fill="#4c6b5c"/><circle cx="1788" cy="208" r="14.6" fill="#4c6b5c"/><circle cx="1844" cy="208" r="14.6" fill="#4c6b5c"/><circle cx="1900" cy="208" r="14.6" fill="#4c6b5c"/><circle cx="1956" cy="208" r="14.6" fill="#4c6b5c"/><circle cx="2012" cy="208" r="14.6" fill="#4c6b5c"/><circle cx="388" cy="2792" r="14.6" fill="#4c6b5c"/><circle cx="444" cy="2792" r="14.6" fill="#4c6b5c"/><circle cx="500" cy="2792" r="14.6" fill="#4c6b5c"/><circle cx="556" cy="2792" r="14.6" fill="#4c6b5c"/><circle cx="612" cy="2792" r="14.6" fill="#4c6b5c"/><circle cx="668" cy="2792" r="14.6" fill="#4c6b5c"/><circle cx="724" cy="2792" r="14.6" fill="#4c6b5c"/><circle cx="780" cy="2792" r="14.6" fill="#4c6b5c"/><circle cx="836" cy="2792" r="14.6" fill="#4c6b5c"/><circle cx="892" cy="2792" r="14.6" fill="#4c6b5c"/><circle cx="948" cy="2792" r="14.6" fill="#4c6b5c"/><circle cx="1004" cy="2792" r="14.6" fill="#4c6b5c"/><circle cx="1060" cy="2792" r="14.6" fill="#4c6b5c"/><circle cx="1116" cy="2792" r="14.6" fill="#4c6b5c"/><circle cx="1172" cy="2792" r="14.6" fill="#4c6b5c"/><circle cx="1228" cy="2792" r="14.6" fill="#4c6b5c"/><circle cx="1284" cy="2792" r="14.6" fill="#4c6b5c"/><circle cx="1340" cy="2792" r="14.6" fill="#4c6b5c"/><circle cx="1396" cy="2792" r="14.6" fill="#4c6b5c"/><circle cx="1452" cy="2792" r="14.6" fill="#4c6b5c"/><circle cx="1508" cy="2792" r="14.6" fill="#4c6b5c"/><circle cx="1564" cy="2792" r="14.6" fill="#4c6b5c"/><circle cx="1620" cy="2792" r="14.6" fill="#4c6b5c"/><circle cx="1676" cy="2792" r="14.6" fill="#4c6b5c"/><circle cx="1732" cy="2792" r="14.6" fill="#4c6b5c"/><circle cx="1788" cy="2792" r="14.6" fill="#4c6b5c"/><circle cx="1844" cy="2792" r="14.6" fill="#4c6b5c"/><circle cx="1900" cy="2792" r="14.6" fill="#4c6b5c"/><circle cx="1956" cy="2792" r="14.6" fill="#4c6b5c"/><circle cx="2012" cy="2792" r="14.6" fill="#4c6b5c"/><rect x="104" y="104" width="2192" height="2792" fill="none" stroke="#4c6b5c" stroke-width="16" opacity="0.85"/><rect x="150" y="150" width="2100" height="2700" fill="none" stroke="#4c6b5c" stroke-width="4" opacity="0.55"/></g><rect width="2400" height="3000" filter="url(#a196-mottle)" style="mix-blend-mode:multiply" opacity="0.5"/><rect width="2400" height="3000" filter="url(#a196-fade)" style="mix-blend-mode:screen" opacity="0.55"/><rect width="2400" height="3000" filter="url(#a196-grain)" style="mix-blend-mode:multiply" opacity="0.32"/><ellipse cx="1583.6" cy="558.1" rx="167.9" ry="160.9" fill="#6b4a22" opacity="0.036" filter="url(#a196-blur9)"/><ellipse cx="1458.6" cy="1541.5" rx="283.4" ry="286.3" fill="#6b4a22" opacity="0.064" filter="url(#a196-blur9)"/><ellipse cx="1771.8" cy="284.3" rx="180" ry="110" fill="#6b4a22" opacity="0.029" filter="url(#a196-blur9)"/><ellipse cx="1606.4" cy="1716.4" rx="109.1" ry="76.9" fill="#6b4a22" opacity="0.043" filter="url(#a196-blur9)"/><ellipse cx="1708.9" cy="1844.2" rx="128.5" ry="130.2" fill="#6b4a22" opacity="0.049" filter="url(#a196-blur9)"/><ellipse cx="1114.6" cy="898.1" rx="325.8" ry="273.5" fill="#6b4a22" opacity="0.040" filter="url(#a196-blur9)"/><polyline points="1300.7,1304.2 1381.7,1215.4 1413.5,1174.7 1403.2,1110.9 1463.2,1037 1488.9,979.2 1570,885.4 1561.8,825.9 1566.2,736.6" fill="none" stroke="#2e2116" stroke-width="2.4" opacity="0.22" stroke-linejoin="round"/><polyline points="1300.7,1304.2 1381.7,1215.4 1413.5,1174.7 1403.2,1110.9 1463.2,1037 1488.9,979.2 1570,885.4 1561.8,825.9 1566.2,736.6" fill="none" stroke="#fff8ea" stroke-width="1.7" opacity="0.13" transform="translate(2.5 2.5)" stroke-linejoin="round"/><polyline points="1404.7,745.4 1347.4,771.9 1279.2,741.2 1193.4,709.6 1056.7,703.4 1001.5,697.5 873.7,671.3 777,582.8 756.1,501.3" fill="none" stroke="#2e2116" stroke-width="2.4" opacity="0.16" stroke-linejoin="round"/><polyline points="1404.7,745.4 1347.4,771.9 1279.2,741.2 1193.4,709.6 1056.7,703.4 1001.5,697.5 873.7,671.3 777,582.8 756.1,501.3" fill="none" stroke="#fff8ea" stroke-width="1.7" opacity="0.08" transform="translate(2.5 2.5)" stroke-linejoin="round"/><polyline points="844.8,446.2 874.1,332.7 901.2,266.6 965.4,212.6 1016.3,184.3 1060.4,151.2 1062.5,75.3 1092,-0.2 1118,-43.9 1189.6,-102.6 1261.1,-129.7 1363.5,-141.5" fill="none" stroke="#2e2116" stroke-width="2.9" opacity="0.16" stroke-linejoin="round"/><polyline points="844.8,446.2 874.1,332.7 901.2,266.6 965.4,212.6 1016.3,184.3 1060.4,151.2 1062.5,75.3 1092,-0.2 1118,-43.9 1189.6,-102.6 1261.1,-129.7 1363.5,-141.5" fill="none" stroke="#fff8ea" stroke-width="2" opacity="0.15" transform="translate(2.5 2.5)" stroke-linejoin="round"/><polyline points="1810.5,1812.9 1886.9,1788.2 1933,1815.2 1963.7,1921.9 1916.5,2015.7 1864.9,2055.8" fill="none" stroke="#2e2116" stroke-width="2.9" opacity="0.26" stroke-linejoin="round"/><polyline points="1810.5,1812.9 1886.9,1788.2 1933,1815.2 1963.7,1921.9 1916.5,2015.7 1864.9,2055.8" fill="none" stroke="#fff8ea" stroke-width="2" opacity="0.09" transform="translate(2.5 2.5)" stroke-linejoin="round"/><polyline points="801.3,924.7 775.3,1034.7 703.9,1106.1 566.4,1135.1 469.2,1059.5 426.2,936.6 361.9,886.3 217.8,896.4 160.9,897.3 71.1,914.4 16.2,933 -87,955 -163.8,1049.6" fill="none" stroke="#2e2116" stroke-width="3.7" opacity="0.24" stroke-linejoin="round"/><polyline points="801.3,924.7 775.3,1034.7 703.9,1106.1 566.4,1135.1 469.2,1059.5 426.2,936.6 361.9,886.3 217.8,896.4 160.9,897.3 71.1,914.4 16.2,933 -87,955 -163.8,1049.6" fill="none" stroke="#fff8ea" stroke-width="2.6" opacity="0.10" transform="translate(2.5 2.5)" stroke-linejoin="round"/><polyline points="1404.1,306.3 1526.4,339.8 1564.4,392.9 1708.1,424.5 1750.6,492.4 1770.7,589.3 1728,642 1742.4,725.6 1723.7,786.6 1755.3,834.5" fill="none" stroke="#2e2116" stroke-width="3.4" opacity="0.29" stroke-linejoin="round"/><polyline points="1404.1,306.3 1526.4,339.8 1564.4,392.9 1708.1,424.5 1750.6,492.4 1770.7,589.3 1728,642 1742.4,725.6 1723.7,786.6 1755.3,834.5" fill="none" stroke="#fff8ea" stroke-width="2.4" opacity="0.11" transform="translate(2.5 2.5)" stroke-linejoin="round"/><polyline points="799.6,581.1 717.9,667.2 607.3,681.1 512.8,639.1 439.9,627.8 380,650.1 337.9,680.9 276.3,679.6 209.2,624.8 122.6,574.6" fill="none" stroke="#2e2116" stroke-width="2.8" opacity="0.24" stroke-linejoin="round"/><polyline points="799.6,581.1 717.9,667.2 607.3,681.1 512.8,639.1 439.9,627.8 380,650.1 337.9,680.9 276.3,679.6 209.2,624.8 122.6,574.6" fill="none" stroke="#fff8ea" stroke-width="2" opacity="0.10" transform="translate(2.5 2.5)" stroke-linejoin="round"/><polyline points="1206.5,1222.3 1111.5,1257.9 1035.8,1258.1 962,1227.4 867.1,1232.6 729.4,1177.8 664.9,1127.8 656.1,1041.7 580.9,944.9 561.6,881.9 560.7,800.5 527.2,669" fill="none" stroke="#2e2116" stroke-width="3.3" opacity="0.28" stroke-linejoin="round"/><polyline points="1206.5,1222.3 1111.5,1257.9 1035.8,1258.1 962,1227.4 867.1,1232.6 729.4,1177.8 664.9,1127.8 656.1,1041.7 580.9,944.9 561.6,881.9 560.7,800.5 527.2,669" fill="none" stroke="#fff8ea" stroke-width="2.3" opacity="0.15" transform="translate(2.5 2.5)" stroke-linejoin="round"/><path d="M1582.4,577 Q1539.9,587.1 1506.9,599.8 Q1474,612.6 1448.1,595.5 Q1422.2,578.3 1403.9,565.2 Q1385.6,552 1431.7,539.3 Q1477.8,526.7 1511.5,535.8 Q1545.2,545 1585,555.9 Q1624.8,566.9 1582.4,577 Z" fill="#e2dbc9" opacity="0.83"/><path d="M355.7,1758.8 Q346.4,1769.6 324.8,1777.9 Q303.1,1786.3 276.6,1772.8 Q250.1,1759.4 265.5,1745 Q281,1730.6 290,1722.6 Q299,1714.5 325.4,1721.5 Q351.9,1728.5 358.4,1738.3 Q364.9,1748.1 355.7,1758.8 Z" fill="#e2dbc9" opacity="0.76"/><path d="M1188.8,1892 Q1193.3,1905.3 1150.8,1903.2 Q1108.4,1901.1 1096.2,1895.1 Q1084.1,1889.1 1065.2,1879.8 Q1046.2,1870.6 1077.3,1860.8 Q1108.3,1851.1 1145.1,1850.2 Q1182,1849.4 1183.2,1864.1 Q1184.3,1878.7 1188.8,1892 Z" fill="#e2dbc9" opacity="0.82"/><rect width="2400" height="3000" fill="url(#a196-vig)"/></svg></svg>