<svg xmlns="http://www.w3.org/2000/svg" width="2400" height="1800" viewBox="0 0 2400 1800"><rect width="2400" height="1800" fill="#e9e1d2"/><rect y="1430" width="2400" height="370" fill="#c8b190"/><line x1="120" y1="1430" x2="60" y2="1800" stroke="#00000018" stroke-width="6"/><line x1="380" y1="1430" x2="320" y2="1800" stroke="#00000018" stroke-width="6"/><line x1="640" y1="1430" x2="580" y2="1800" stroke="#00000018" stroke-width="6"/><line x1="900" y1="1430" x2="840" y2="1800" stroke="#00000018" stroke-width="6"/><line x1="1160" y1="1430" x2="1100" y2="1800" stroke="#00000018" stroke-width="6"/><line x1="1420" y1="1430" x2="1360" y2="1800" stroke="#00000018" stroke-width="6"/><line x1="1680" y1="1430" x2="1620" y2="1800" stroke="#00000018" stroke-width="6"/><line x1="1940" y1="1430" x2="1880" y2="1800" stroke="#00000018" stroke-width="6"/><line x1="2200" y1="1430" x2="2140" y2="1800" stroke="#00000018" stroke-width="6"/><rect y="1418" width="2400" height="16" fill="#d7cbb6"/><rect x="700" y="980" width="1000" height="460" rx="26" fill="#a87e57"/><rect x="660" y="1290" width="1080" height="210" rx="30" fill="#f1ebdf"/><rect x="660" y="1420" width="1080" height="120" rx="24" fill="#b3502f" opacity="0.85"/><rect x="770" y="1180" width="300" height="150" rx="40" fill="#faf6ec"/><rect x="1330" y="1180" width="300" height="150" rx="40" fill="#cdb488"/><rect x="640" y="1530" width="1120" height="26" rx="12" fill="#a87e57"/><rect x="360" y="1260" width="240" height="220" rx="10" fill="#a87e57"/><rect x="380" y="1300" width="200" height="14" fill="#00000022"/><line x1="480" y1="1260" x2="480" y2="1130" stroke="#5a4632" stroke-width="12"/><path d="M410,1130 L550,1130 L520,1020 L440,1020 Z" fill="#b3502f"/><path d="M2060,1520 Q 1910,1282.5 1835,1345" fill="none" stroke="#5d7052" stroke-width="20" stroke-linecap="round"/><path d="M2060,1520 Q 1960,1282.5 1910,1295" fill="none" stroke="#5d7052" stroke-width="20" stroke-linecap="round"/><path d="M2060,1520 Q 2010,1282.5 1985,1245" fill="none" stroke="#5d7052" stroke-width="20" stroke-linecap="round"/><path d="M2060,1520 Q 2060,1282.5 2060,1195" fill="none" stroke="#5d7052" stroke-width="20" stroke-linecap="round"/><path d="M2060,1520 Q 2110,1282.5 2135,1245" fill="none" stroke="#5d7052" stroke-width="20" stroke-linecap="round"/><path d="M2060,1520 Q 2160,1282.5 2210,1295" fill="none" stroke="#5d7052" stroke-width="20" stroke-linecap="round"/><path d="M2060,1520 Q 2210,1282.5 2285,1345" fill="none" stroke="#5d7052" stroke-width="20" stroke-linecap="round"/><path d="M1972.5,1520 L2147.5,1520 L2125,1657.5 L1995,1657.5 Z" fill="#a9714d"/><defs><filter id="a159b-sh" x="-30%" y="-30%" width="160%" height="160%"><feGaussianBlur stdDeviation="16"/></filter></defs><rect x="928" y="246" width="572" height="702" fill="#000" opacity="0.28" filter="url(#a159b-sh)"/><rect x="914" y="224" width="572" height="702" fill="#4a3d2f"/><rect x="930.9" y="240.9" width="538.2" height="668.2" fill="none" stroke="#00000055" stroke-width="3"/><rect x="940" y="250" width="520" height="650" fill="#f6f2ea"/><svg x="979" y="289" width="442" height="572" viewBox="0 0 2400 3000" preserveAspectRatio="xMidYMid slice"><rect width="2400" height="3000" fill="#e4cfa4"/><radialGradient id="a159-vig" cx="50%" cy="42%" r="80%"><stop offset="55%" stop-color="#000" stop-opacity="0"/><stop offset="100%" stop-color="#000" stop-opacity="0.15"/></radialGradient><rect width="2400" height="3000" fill="url(#a159-vig)"/><circle cx="1947.7" cy="1159.5" r="2.5" fill="#6e421d" opacity="0.064"/><circle cx="842.5" cy="281.2" r="1.8" fill="#6e421d" opacity="0.048"/><circle cx="1631" cy="1246.7" r="3.8" fill="#6e421d" opacity="0.043"/><circle cx="2025.4" cy="1939.2" r="2.1" fill="#6e421d" opacity="0.079"/><circle cx="579.8" cy="308.4" r="4.2" fill="#6e421d" opacity="0.054"/><circle cx="1366.3" cy="141.7" r="4.3" fill="#6e421d" opacity="0.066"/><circle cx="2342.6" cy="2505.3" r="4" fill="#6e421d" opacity="0.077"/><circle cx="1129.6" cy="125.4" r="3.6" fill="#6e421d" opacity="0.059"/><circle cx="562.8" cy="2720.8" r="3.4" fill="#6e421d" opacity="0.043"/><circle cx="220.7" cy="1831.4" r="4.1" fill="#6e421d" opacity="0.067"/><circle cx="1541.9" cy="1226.9" r="2.5" fill="#6e421d" opacity="0.075"/><circle cx="597.1" cy="2061.9" r="3.6" fill="#6e421d" opacity="0.052"/><circle cx="901.4" cy="2624.1" r="2.4" fill="#6e421d" opacity="0.050"/><circle cx="765" cy="2276.2" r="3.2" fill="#6e421d" opacity="0.061"/><circle cx="218.8" cy="252.3" r="4.1" fill="#6e421d" opacity="0.059"/><circle cx="1053.1" cy="598.7" r="4.1" fill="#6e421d" opacity="0.075"/><circle cx="488.1" cy="1856.9" r="2.9" fill="#6e421d" opacity="0.053"/><circle cx="1200" cy="1715.7" r="3.3" fill="#6e421d" opacity="0.054"/><circle cx="2185.6" cy="2753.5" r="3" fill="#6e421d" opacity="0.053"/><circle cx="1372.9" cy="2150.5" r="2.6" fill="#6e421d" opacity="0.071"/><circle cx="1607.3" cy="1853.4" r="2.4" fill="#6e421d" opacity="0.032"/><circle cx="127.4" cy="2034.6" r="3.5" fill="#6e421d" opacity="0.058"/><circle cx="1886.6" cy="2224.4" r="1.6" fill="#6e421d" opacity="0.070"/><circle cx="1188.3" cy="2835.2" r="2.7" fill="#6e421d" opacity="0.054"/><circle cx="846.4" cy="909.8" r="1.7" fill="#6e421d" opacity="0.077"/><circle cx="2117.8" cy="75.9" r="3.7" fill="#6e421d" opacity="0.036"/><circle cx="1550" cy="1872.6" r="3" fill="#6e421d" opacity="0.060"/><circle cx="73.2" cy="2558.1" r="1.9" fill="#6e421d" opacity="0.035"/><circle cx="2083.2" cy="1078.1" r="3.4" fill="#6e421d" opacity="0.045"/><circle cx="1580.9" cy="1584.1" r="2.8" fill="#6e421d" opacity="0.048"/><circle cx="2051.5" cy="1066.1" r="3.4" fill="#6e421d" opacity="0.038"/><circle cx="1302.2" cy="2023.1" r="3.9" fill="#6e421d" opacity="0.034"/><circle cx="1910.7" cy="897" r="4.4" fill="#6e421d" opacity="0.040"/><circle cx="1137.7" cy="2000.3" r="1.9" fill="#6e421d" opacity="0.034"/><circle cx="2069.8" cy="89.3" r="3.3" fill="#6e421d" opacity="0.074"/><circle cx="1576.9" cy="1213.9" r="2.3" fill="#6e421d" opacity="0.068"/><circle cx="2304.5" cy="1112.6" r="2.1" fill="#6e421d" opacity="0.040"/><circle cx="1193.9" cy="251" r="1.9" fill="#6e421d" opacity="0.054"/><circle cx="1620.2" cy="2261.7" r="2.8" fill="#6e421d" opacity="0.047"/><circle cx="1259.7" cy="1823.4" r="4.1" fill="#6e421d" opacity="0.064"/><circle cx="2151.3" cy="2220.8" r="1.9" fill="#6e421d" opacity="0.071"/><circle cx="2044.1" cy="336" r="3" fill="#6e421d" opacity="0.031"/><circle cx="1103.4" cy="879.2" r="4.2" fill="#6e421d" opacity="0.049"/><circle cx="1869.1" cy="2507.7" r="3.8" fill="#6e421d" opacity="0.078"/><circle cx="925.1" cy="1309.8" r="4" fill="#6e421d" opacity="0.069"/><circle cx="791.2" cy="1891.1" r="2.9" fill="#6e421d" opacity="0.062"/><circle cx="1545.9" cy="2811.5" r="2" fill="#6e421d" opacity="0.076"/><circle cx="1929.6" cy="1255.1" r="2.3" fill="#6e421d" opacity="0.042"/><circle cx="2133.5" cy="1858.2" r="3.9" fill="#6e421d" opacity="0.036"/><circle cx="1079.6" cy="677.1" r="3.9" fill="#6e421d" opacity="0.073"/><circle cx="1833.2" cy="817.7" r="3.2" fill="#6e421d" opacity="0.043"/><circle cx="751.3" cy="2052.1" r="3.5" fill="#6e421d" opacity="0.068"/><circle cx="1510.8" cy="2709.6" r="4.4" fill="#6e421d" opacity="0.049"/><circle cx="1004.7" cy="2062.1" r="1.8" fill="#6e421d" opacity="0.060"/><circle cx="1589.5" cy="782.1" r="1.9" fill="#6e421d" opacity="0.068"/><circle cx="1730.3" cy="2001.5" r="3.5" fill="#6e421d" opacity="0.055"/><circle cx="1718.3" cy="167.6" r="4.5" fill="#6e421d" opacity="0.077"/><circle cx="2080.7" cy="171.4" r="4.5" fill="#6e421d" opacity="0.080"/><circle cx="725.9" cy="1220.8" r="2.6" fill="#6e421d" opacity="0.042"/><circle cx="1545.4" cy="664.9" r="2.9" fill="#6e421d" opacity="0.076"/><circle cx="2191.7" cy="1446.5" r="4.2" fill="#6e421d" opacity="0.039"/><circle cx="205" cy="1882" r="4.2" fill="#6e421d" opacity="0.062"/><circle cx="1278.6" cy="1416" r="4.1" fill="#6e421d" opacity="0.034"/><circle cx="298.1" cy="526.9" r="3.9" fill="#6e421d" opacity="0.039"/><circle cx="700.5" cy="2892.9" r="3.2" fill="#6e421d" opacity="0.073"/><circle cx="1631.6" cy="2727.5" r="4.5" fill="#6e421d" opacity="0.049"/><circle cx="992.4" cy="1321.9" r="3.8" fill="#6e421d" opacity="0.046"/><circle cx="1192.8" cy="1957.6" r="4.3" fill="#6e421d" opacity="0.072"/><circle cx="2009.8" cy="221.4" r="4" fill="#6e421d" opacity="0.044"/><circle cx="1882.2" cy="807.6" r="4.4" fill="#6e421d" opacity="0.073"/><circle cx="2038.9" cy="1763.5" r="2.6" fill="#6e421d" opacity="0.050"/><circle cx="1753.6" cy="1412.5" r="1.9" fill="#6e421d" opacity="0.067"/><circle cx="2191.1" cy="1136.5" r="1.8" fill="#6e421d" opacity="0.079"/><circle cx="370.8" cy="1428.7" r="2.3" fill="#6e421d" opacity="0.047"/><circle cx="270.9" cy="717.5" r="2.3" fill="#6e421d" opacity="0.041"/><circle cx="78.7" cy="1282.9" r="2.4" fill="#6e421d" opacity="0.054"/><circle cx="1808.6" cy="2659.8" r="2.5" fill="#6e421d" opacity="0.038"/><circle cx="2330.7" cy="2644.1" r="3.8" fill="#6e421d" opacity="0.041"/><circle cx="2129.5" cy="2614.8" r="3.4" fill="#6e421d" opacity="0.061"/><circle cx="2078.6" cy="2040.7" r="2.1" fill="#6e421d" opacity="0.034"/><rect x="190" y="2434" width="2020" height="66" fill="#6e421d" opacity="1"/><rect x="250" y="2368" width="1900" height="66" fill="#6e421d" opacity="0.92"/><rect x="310" y="2302" width="1780" height="66" fill="#6e421d" opacity="0.84"/><rect x="316" y="1300" width="108" height="1002" fill="#6e421d"/><line x1="338.2" y1="1340" x2="338.2" y2="2288" stroke="#e4cfa4" stroke-width="7" opacity="0.5"/><line x1="370" y1="1340" x2="370" y2="2288" stroke="#e4cfa4" stroke-width="7" opacity="0.5"/><line x1="401.8" y1="1340" x2="401.8" y2="2288" stroke="#e4cfa4" stroke-width="7" opacity="0.5"/><rect x="294" y="1260" width="152" height="40" fill="#6e421d"/><rect x="304" y="2298" width="132" height="30" fill="#6e421d"/><rect x="869.3" y="1300" width="108" height="1002" fill="#6e421d"/><line x1="891.6" y1="1340" x2="891.6" y2="2288" stroke="#e4cfa4" stroke-width="7" opacity="0.5"/><line x1="923.3" y1="1340" x2="923.3" y2="2288" stroke="#e4cfa4" stroke-width="7" opacity="0.5"/><line x1="955.1" y1="1340" x2="955.1" y2="2288" stroke="#e4cfa4" stroke-width="7" opacity="0.5"/><rect x="847.3" y="1260" width="152" height="40" fill="#6e421d"/><rect x="857.3" y="2298" width="132" height="30" fill="#6e421d"/><rect x="1422.7" y="1300" width="108" height="1002" fill="#6e421d"/><line x1="1444.9" y1="1340" x2="1444.9" y2="2288" stroke="#e4cfa4" stroke-width="7" opacity="0.5"/><line x1="1476.7" y1="1340" x2="1476.7" y2="2288" stroke="#e4cfa4" stroke-width="7" opacity="0.5"/><line x1="1508.4" y1="1340" x2="1508.4" y2="2288" stroke="#e4cfa4" stroke-width="7" opacity="0.5"/><rect x="1400.7" y="1260" width="152" height="40" fill="#6e421d"/><rect x="1410.7" y="2298" width="132" height="30" fill="#6e421d"/><rect x="1976" y="1300" width="108" height="1002" fill="#6e421d"/><line x1="1998.2" y1="1340" x2="1998.2" y2="2288" stroke="#e4cfa4" stroke-width="7" opacity="0.5"/><line x1="2030" y1="1340" x2="2030" y2="2288" stroke="#e4cfa4" stroke-width="7" opacity="0.5"/><line x1="2061.8" y1="1340" x2="2061.8" y2="2288" stroke="#e4cfa4" stroke-width="7" opacity="0.5"/><rect x="1954" y="1260" width="152" height="40" fill="#6e421d"/><rect x="1964" y="2298" width="132" height="30" fill="#6e421d"/><rect x="240" y="1176" width="1920" height="84" fill="#6e421d"/><rect x="240" y="1046" width="1920" height="130" fill="#cdb488"/><rect x="275" y="1064" width="18" height="94" fill="#6e421d"/><rect x="301" y="1064" width="18" height="94" fill="#6e421d"/><rect x="327" y="1064" width="18" height="94" fill="#6e421d"/><circle cx="421.3" cy="1111" r="30" fill="none" stroke="#6e421d" stroke-width="10"/><rect x="497.5" y="1064" width="18" height="94" fill="#6e421d"/><rect x="523.5" y="1064" width="18" height="94" fill="#6e421d"/><rect x="549.5" y="1064" width="18" height="94" fill="#6e421d"/><circle cx="643.8" cy="1111" r="30" fill="none" stroke="#6e421d" stroke-width="10"/><rect x="720" y="1064" width="18" height="94" fill="#6e421d"/><rect x="746" y="1064" width="18" height="94" fill="#6e421d"/><rect x="772" y="1064" width="18" height="94" fill="#6e421d"/><circle cx="866.3" cy="1111" r="30" fill="none" stroke="#6e421d" stroke-width="10"/><rect x="942.5" y="1064" width="18" height="94" fill="#6e421d"/><rect x="968.5" y="1064" width="18" height="94" fill="#6e421d"/><rect x="994.5" y="1064" width="18" height="94" fill="#6e421d"/><circle cx="1088.8" cy="1111" r="30" fill="none" stroke="#6e421d" stroke-width="10"/><rect x="1165" y="1064" width="18" height="94" fill="#6e421d"/><rect x="1191" y="1064" width="18" height="94" fill="#6e421d"/><rect x="1217" y="1064" width="18" height="94" fill="#6e421d"/><circle cx="1311.3" cy="1111" r="30" fill="none" stroke="#6e421d" stroke-width="10"/><rect x="1387.5" y="1064" width="18" height="94" fill="#6e421d"/><rect x="1413.5" y="1064" width="18" height="94" fill="#6e421d"/><rect x="1439.5" y="1064" width="18" height="94" fill="#6e421d"/><circle cx="1533.8" cy="1111" r="30" fill="none" stroke="#6e421d" stroke-width="10"/><rect x="1610" y="1064" width="18" height="94" fill="#6e421d"/><rect x="1636" y="1064" width="18" height="94" fill="#6e421d"/><rect x="1662" y="1064" width="18" height="94" fill="#6e421d"/><circle cx="1756.3" cy="1111" r="30" fill="none" stroke="#6e421d" stroke-width="10"/><rect x="1832.5" y="1064" width="18" height="94" fill="#6e421d"/><rect x="1858.5" y="1064" width="18" height="94" fill="#6e421d"/><rect x="1884.5" y="1064" width="18" height="94" fill="#6e421d"/><circle cx="1978.8" cy="1111" r="30" fill="none" stroke="#6e421d" stroke-width="10"/><rect x="2055" y="1064" width="18" height="94" fill="#6e421d"/><rect x="2081" y="1064" width="18" height="94" fill="#6e421d"/><rect x="2107" y="1064" width="18" height="94" fill="#6e421d"/><rect x="210" y="1000" width="1980" height="46" fill="#6e421d"/><polygon points="210,1000 1200,601.9 2190,1000" fill="none" stroke="#6e421d" stroke-width="26"/><polygon points="1200,788 1214.8,844.3 1265.1,814.9 1235.7,865.2 1292,880 1235.7,894.8 1265.1,945.1 1214.8,915.7 1200,972 1185.2,915.7 1134.9,945.1 1164.3,894.8 1108,880 1164.3,865.2 1134.9,814.9 1185.2,844.3 " fill="#b3502f"/><circle cx="740" cy="930" r="34" fill="#b3502f"/><circle cx="1660" cy="930" r="34" fill="#b3502f"/><line x1="1200" y1="591.9" x2="1153.9" y2="550.4" stroke="#6e421d" stroke-width="13" stroke-linecap="round"/><line x1="1200" y1="591.9" x2="1174.8" y2="535.3" stroke="#6e421d" stroke-width="13" stroke-linecap="round"/><line x1="1200" y1="591.9" x2="1200" y2="529.9" stroke="#6e421d" stroke-width="13" stroke-linecap="round"/><line x1="1200" y1="591.9" x2="1225.2" y2="535.3" stroke="#6e421d" stroke-width="13" stroke-linecap="round"/><line x1="1200" y1="591.9" x2="1246.1" y2="550.4" stroke="#6e421d" stroke-width="13" stroke-linecap="round"/><line x1="210" y1="990" x2="163.9" y2="948.5" stroke="#6e421d" stroke-width="13" stroke-linecap="round"/><line x1="210" y1="990" x2="184.8" y2="933.4" stroke="#6e421d" stroke-width="13" stroke-linecap="round"/><line x1="210" y1="990" x2="210" y2="928" stroke="#6e421d" stroke-width="13" stroke-linecap="round"/><line x1="210" y1="990" x2="235.2" y2="933.4" stroke="#6e421d" stroke-width="13" stroke-linecap="round"/><line x1="210" y1="990" x2="256.1" y2="948.5" stroke="#6e421d" stroke-width="13" stroke-linecap="round"/><line x1="2190" y1="990" x2="2143.9" y2="948.5" stroke="#6e421d" stroke-width="13" stroke-linecap="round"/><line x1="2190" y1="990" x2="2164.8" y2="933.4" stroke="#6e421d" stroke-width="13" stroke-linecap="round"/><line x1="2190" y1="990" x2="2190" y2="928" stroke="#6e421d" stroke-width="13" stroke-linecap="round"/><line x1="2190" y1="990" x2="2215.2" y2="933.4" stroke="#6e421d" stroke-width="13" stroke-linecap="round"/><line x1="2190" y1="990" x2="2236.1" y2="948.5" stroke="#6e421d" stroke-width="13" stroke-linecap="round"/><path d="M324.7,2797.3 L 395.3,2797.3 L 395.3,2726.7 L 339.8,2726.7 L 339.8,2770.4 L 368.4,2770.4 L 368.4,2748.6 M408.7,2797.3 L 479.3,2797.3 L 479.3,2726.7 L 423.8,2726.7 L 423.8,2770.4 L 452.4,2770.4 L 452.4,2748.6 M492.7,2797.3 L 563.3,2797.3 L 563.3,2726.7 L 507.8,2726.7 L 507.8,2770.4 L 536.4,2770.4 L 536.4,2748.6 M576.7,2797.3 L 647.3,2797.3 L 647.3,2726.7 L 591.8,2726.7 L 591.8,2770.4 L 620.4,2770.4 L 620.4,2748.6 M660.7,2797.3 L 731.3,2797.3 L 731.3,2726.7 L 675.8,2726.7 L 675.8,2770.4 L 704.4,2770.4 L 704.4,2748.6 M744.7,2797.3 L 815.3,2797.3 L 815.3,2726.7 L 759.8,2726.7 L 759.8,2770.4 L 788.4,2770.4 L 788.4,2748.6 M828.7,2797.3 L 899.3,2797.3 L 899.3,2726.7 L 843.8,2726.7 L 843.8,2770.4 L 872.4,2770.4 L 872.4,2748.6 M912.7,2797.3 L 983.3,2797.3 L 983.3,2726.7 L 927.8,2726.7 L 927.8,2770.4 L 956.4,2770.4 L 956.4,2748.6 M996.7,2797.3 L 1067.3,2797.3 L 1067.3,2726.7 L 1011.8,2726.7 L 1011.8,2770.4 L 1040.4,2770.4 L 1040.4,2748.6 M1080.7,2797.3 L 1151.3,2797.3 L 1151.3,2726.7 L 1095.8,2726.7 L 1095.8,2770.4 L 1124.4,2770.4 L 1124.4,2748.6 M1164.7,2797.3 L 1235.3,2797.3 L 1235.3,2726.7 L 1179.8,2726.7 L 1179.8,2770.4 L 1208.4,2770.4 L 1208.4,2748.6 M1248.7,2797.3 L 1319.3,2797.3 L 1319.3,2726.7 L 1263.8,2726.7 L 1263.8,2770.4 L 1292.4,2770.4 L 1292.4,2748.6 M1332.7,2797.3 L 1403.3,2797.3 L 1403.3,2726.7 L 1347.8,2726.7 L 1347.8,2770.4 L 1376.4,2770.4 L 1376.4,2748.6 M1416.7,2797.3 L 1487.3,2797.3 L 1487.3,2726.7 L 1431.8,2726.7 L 1431.8,2770.4 L 1460.4,2770.4 L 1460.4,2748.6 M1500.7,2797.3 L 1571.3,2797.3 L 1571.3,2726.7 L 1515.8,2726.7 L 1515.8,2770.4 L 1544.4,2770.4 L 1544.4,2748.6 M1584.7,2797.3 L 1655.3,2797.3 L 1655.3,2726.7 L 1599.8,2726.7 L 1599.8,2770.4 L 1628.4,2770.4 L 1628.4,2748.6 M1668.7,2797.3 L 1739.3,2797.3 L 1739.3,2726.7 L 1683.8,2726.7 L 1683.8,2770.4 L 1712.4,2770.4 L 1712.4,2748.6 M1752.7,2797.3 L 1823.3,2797.3 L 1823.3,2726.7 L 1767.8,2726.7 L 1767.8,2770.4 L 1796.4,2770.4 L 1796.4,2748.6 M1836.7,2797.3 L 1907.3,2797.3 L 1907.3,2726.7 L 1851.8,2726.7 L 1851.8,2770.4 L 1880.4,2770.4 L 1880.4,2748.6 M1920.7,2797.3 L 1991.3,2797.3 L 1991.3,2726.7 L 1935.8,2726.7 L 1935.8,2770.4 L 1964.4,2770.4 L 1964.4,2748.6 M2004.7,2797.3 L 2075.3,2797.3 L 2075.3,2726.7 L 2019.8,2726.7 L 2019.8,2770.4 L 2048.4,2770.4 L 2048.4,2748.6 " fill="none" stroke="#6e421d" stroke-width="10.9"/><rect x="100" y="100" width="2200" height="2800" fill="none" stroke="#6e421d" stroke-width="9"/><rect x="142" y="142" width="2116" height="2716" fill="none" stroke="#6e421d" stroke-width="3" opacity="0.65"/></svg></svg>