<svg xmlns="http://www.w3.org/2000/svg" width="2400" height="1800" viewBox="0 0 2400 1800"><rect width="2400" height="1800" fill="#e8e2d6"/><rect y="1420" width="2400" height="380" fill="#cbb597"/><ellipse cx="1200" cy="1640" rx="760" ry="130" fill="#8a4423" opacity="0.55"/><ellipse cx="1200" cy="1640" rx="600" ry="96" fill="none" stroke="#e0a077" stroke-width="10" opacity="0.5"/><rect x="700" y="1120" width="1000" height="300" rx="40" fill="#97a08c"/><rect x="640" y="1060" width="120" height="380" rx="40" fill="#87907c"/><rect x="1640" y="1060" width="120" height="380" rx="40" fill="#87907c"/><rect x="740" y="1010" width="920" height="180" rx="36" fill="#a3ac97"/><rect x="800" y="1060" width="240" height="160" rx="30" fill="#e0a077"/><rect x="1380" y="1060" width="240" height="160" rx="30" fill="#8a4423"/><rect x="700" y="1420" width="26" height="120" fill="#6f6353"/><rect x="1674" y="1420" width="26" height="120" fill="#6f6353"/><path d="M360,1520 Q330,820 800,880" fill="none" stroke="#4c4438" stroke-width="16"/><path d="M760,870 L840,880 L810,960 L770,955 Z" fill="#4c4438"/><rect x="300" y="1510" width="130" height="20" rx="10" fill="#4c4438"/><path d="M2080,1500 Q 1918,1243.5 1837,1311" fill="none" stroke="#5d7052" stroke-width="21.6" stroke-linecap="round"/><path d="M2080,1500 Q 1972,1243.5 1918,1257" fill="none" stroke="#5d7052" stroke-width="21.6" stroke-linecap="round"/><path d="M2080,1500 Q 2026,1243.5 1999,1203" fill="none" stroke="#5d7052" stroke-width="21.6" stroke-linecap="round"/><path d="M2080,1500 Q 2080,1243.5 2080,1149" fill="none" stroke="#5d7052" stroke-width="21.6" stroke-linecap="round"/><path d="M2080,1500 Q 2134,1243.5 2161,1203" fill="none" stroke="#5d7052" stroke-width="21.6" stroke-linecap="round"/><path d="M2080,1500 Q 2188,1243.5 2242,1257" fill="none" stroke="#5d7052" stroke-width="21.6" stroke-linecap="round"/><path d="M2080,1500 Q 2242,1243.5 2323,1311" fill="none" stroke="#5d7052" stroke-width="21.6" stroke-linecap="round"/><path d="M1985.5,1500 L2174.5,1500 L2150.2,1648.5 L2009.8,1648.5 Z" fill="#a9714d"/><defs><filter id="a117l-sh" x="-30%" y="-30%" width="160%" height="160%"><feGaussianBlur stdDeviation="16"/></filter></defs><rect x="939" y="217" width="550" height="675" fill="#000" opacity="0.28" filter="url(#a117l-sh)"/><rect x="925" y="195" width="550" height="675" fill="#2e2823"/><rect x="941.3" y="211.3" width="517.5" height="642.5" fill="none" stroke="#00000055" stroke-width="3"/><rect x="950" y="220" width="500" height="625" fill="#f6f2ea"/><svg x="987.5" y="257.5" width="425" height="550" viewBox="0 0 2400 3000" preserveAspectRatio="xMidYMid slice"><rect width="2400" height="3000" fill="#26160e"/><radialGradient id="a117-vig" cx="50%" cy="42%" r="80%"><stop offset="55%" stop-color="#000" stop-opacity="0"/><stop offset="100%" stop-color="#000" stop-opacity="0.15"/></radialGradient><rect width="2400" height="3000" fill="url(#a117-vig)"/><circle cx="198.3" cy="1652.1" r="2.1" fill="#c8703f" opacity="0.050"/><circle cx="1692.7" cy="246.5" r="2.6" fill="#c8703f" opacity="0.038"/><circle cx="1980.9" cy="2301.4" r="2.9" fill="#c8703f" opacity="0.062"/><circle cx="1650.4" cy="197.8" r="1.6" fill="#c8703f" opacity="0.038"/><circle cx="1989.6" cy="1462.8" r="4" fill="#c8703f" opacity="0.052"/><circle cx="1221.2" cy="1612.8" r="3.5" fill="#c8703f" opacity="0.062"/><circle cx="1905.5" cy="117.2" r="2.4" fill="#c8703f" opacity="0.047"/><circle cx="529.1" cy="1871.5" r="1.8" fill="#c8703f" opacity="0.042"/><circle cx="1138.9" cy="1411.5" r="3.9" fill="#c8703f" opacity="0.036"/><circle cx="393.3" cy="2821.6" r="1.7" fill="#c8703f" opacity="0.037"/><circle cx="1754.5" cy="2432.1" r="2.6" fill="#c8703f" opacity="0.036"/><circle cx="1407.8" cy="894.1" r="3.8" fill="#c8703f" opacity="0.073"/><circle cx="1430.1" cy="2780.8" r="3" fill="#c8703f" opacity="0.077"/><circle cx="1461.5" cy="1909.7" r="3.7" fill="#c8703f" opacity="0.049"/><circle cx="181.5" cy="157.8" r="2" fill="#c8703f" opacity="0.079"/><circle cx="1612.3" cy="2647.1" r="3.5" fill="#c8703f" opacity="0.079"/><circle cx="1540.8" cy="1721.1" r="2.9" fill="#c8703f" opacity="0.056"/><circle cx="2075.6" cy="1437" r="2.2" fill="#c8703f" opacity="0.069"/><circle cx="1397" cy="2307.5" r="2" fill="#c8703f" opacity="0.032"/><circle cx="1485.9" cy="200.6" r="4" fill="#c8703f" opacity="0.057"/><circle cx="603.8" cy="2490.6" r="3.3" fill="#c8703f" opacity="0.051"/><circle cx="1575.7" cy="2926" r="1.5" fill="#c8703f" opacity="0.039"/><circle cx="887.7" cy="1295.4" r="2" fill="#c8703f" opacity="0.035"/><circle cx="1051.6" cy="1695.9" r="4.2" fill="#c8703f" opacity="0.071"/><circle cx="2330.1" cy="2217.5" r="4" fill="#c8703f" opacity="0.057"/><circle cx="1922.5" cy="1900.1" r="1.7" fill="#c8703f" opacity="0.037"/><circle cx="1805.5" cy="1258.4" r="4.2" fill="#c8703f" opacity="0.053"/><circle cx="1491.5" cy="1012.5" r="3.7" fill="#c8703f" opacity="0.043"/><circle cx="1653.5" cy="1538" r="3.9" fill="#c8703f" opacity="0.045"/><circle cx="194.9" cy="1642.6" r="2.7" fill="#c8703f" opacity="0.039"/><circle cx="1737" cy="2363.7" r="3.6" fill="#c8703f" opacity="0.043"/><circle cx="1371.1" cy="606" r="2.6" fill="#c8703f" opacity="0.073"/><circle cx="85.6" cy="1042.1" r="3.1" fill="#c8703f" opacity="0.070"/><circle cx="893.1" cy="2628.8" r="1.8" fill="#c8703f" opacity="0.078"/><circle cx="500" cy="2633.8" r="3.7" fill="#c8703f" opacity="0.076"/><circle cx="1830.1" cy="1143.2" r="2.1" fill="#c8703f" opacity="0.080"/><circle cx="284.6" cy="2343.8" r="1.9" fill="#c8703f" opacity="0.063"/><circle cx="391.1" cy="362" r="2.1" fill="#c8703f" opacity="0.077"/><circle cx="151.9" cy="1198.2" r="2.5" fill="#c8703f" opacity="0.077"/><circle cx="231.2" cy="1923.3" r="3.1" fill="#c8703f" opacity="0.049"/><circle cx="2170.6" cy="1484.9" r="2.9" fill="#c8703f" opacity="0.062"/><circle cx="85.1" cy="175.8" r="1.9" fill="#c8703f" opacity="0.075"/><circle cx="725" cy="2645.5" r="2.3" fill="#c8703f" opacity="0.061"/><circle cx="1334.5" cy="2767.9" r="1.8" fill="#c8703f" opacity="0.037"/><circle cx="396.6" cy="157.8" r="2.4" fill="#c8703f" opacity="0.053"/><circle cx="1484" cy="973.8" r="2.2" fill="#c8703f" opacity="0.032"/><circle cx="1145.4" cy="1567.3" r="4.2" fill="#c8703f" opacity="0.054"/><circle cx="991.1" cy="332.7" r="3" fill="#c8703f" opacity="0.048"/><circle cx="1884.2" cy="2556.1" r="2.2" fill="#c8703f" opacity="0.057"/><circle cx="2238.7" cy="654.8" r="3.9" fill="#c8703f" opacity="0.061"/><circle cx="390.7" cy="408.1" r="1.8" fill="#c8703f" opacity="0.042"/><circle cx="617.4" cy="1492.1" r="4.3" fill="#c8703f" opacity="0.043"/><circle cx="191.6" cy="843" r="1.5" fill="#c8703f" opacity="0.076"/><circle cx="660.3" cy="2825.6" r="3.4" fill="#c8703f" opacity="0.057"/><circle cx="2041.8" cy="1106.3" r="3.4" fill="#c8703f" opacity="0.044"/><circle cx="607" cy="1756.6" r="2.9" fill="#c8703f" opacity="0.041"/><circle cx="510.6" cy="2057.6" r="1.7" fill="#c8703f" opacity="0.067"/><circle cx="1246.9" cy="187.1" r="4.1" fill="#c8703f" opacity="0.077"/><circle cx="1368.7" cy="1044.3" r="4.4" fill="#c8703f" opacity="0.056"/><circle cx="813.3" cy="139.2" r="4.1" fill="#c8703f" opacity="0.046"/><circle cx="250.3" cy="1047" r="4.1" fill="#c8703f" opacity="0.073"/><circle cx="995.6" cy="969.1" r="3.9" fill="#c8703f" opacity="0.045"/><circle cx="1453.3" cy="2106.3" r="3" fill="#c8703f" opacity="0.066"/><circle cx="641.3" cy="189.5" r="4.1" fill="#c8703f" opacity="0.034"/><circle cx="1899.4" cy="2038.5" r="3.2" fill="#c8703f" opacity="0.056"/><circle cx="1875.6" cy="386.7" r="3.9" fill="#c8703f" opacity="0.060"/><circle cx="1670.8" cy="272.9" r="2.4" fill="#c8703f" opacity="0.033"/><circle cx="922.3" cy="770.9" r="3.8" fill="#c8703f" opacity="0.077"/><circle cx="575.9" cy="2060.8" r="2.8" fill="#c8703f" opacity="0.034"/><circle cx="1871.4" cy="2490" r="4.1" fill="#c8703f" opacity="0.073"/><circle cx="2308.3" cy="2830.1" r="2.2" fill="#c8703f" opacity="0.048"/><circle cx="1124.8" cy="2958.1" r="3.9" fill="#c8703f" opacity="0.050"/><circle cx="1366.1" cy="2780.1" r="2.6" fill="#c8703f" opacity="0.078"/><circle cx="75.6" cy="1255.5" r="2.2" fill="#c8703f" opacity="0.056"/><circle cx="2337" cy="429.6" r="4" fill="#c8703f" opacity="0.080"/><circle cx="467.8" cy="1622.4" r="3.8" fill="#c8703f" opacity="0.068"/><circle cx="1254.5" cy="864.7" r="2.6" fill="#c8703f" opacity="0.073"/><circle cx="2156.4" cy="1253.1" r="4.3" fill="#c8703f" opacity="0.068"/><circle cx="495.9" cy="363.1" r="1.8" fill="#c8703f" opacity="0.050"/><circle cx="1283.1" cy="529" r="2.1" fill="#c8703f" opacity="0.050"/><circle cx="1200" cy="1400" r="1010" fill="none" stroke="#c8703f" stroke-width="10"/><circle cx="1200" cy="1400" r="964" fill="none" stroke="#c8703f" stroke-width="4" opacity="0.7"/><line x1="2170" y1="1400" x2="2210" y2="1400" stroke="#c8703f" stroke-width="10"/><line x1="2182.2" y1="1485.9" x2="2206.2" y2="1488" stroke="#c8703f" stroke-width="5"/><line x1="2171" y1="1571.2" x2="2194.7" y2="1575.4" stroke="#c8703f" stroke-width="5"/><line x1="2152.4" y1="1655.2" x2="2175.6" y2="1661.4" stroke="#c8703f" stroke-width="5"/><line x1="2126.5" y1="1737.2" x2="2149.1" y2="1745.4" stroke="#c8703f" stroke-width="5"/><line x1="2093.6" y1="1816.7" x2="2115.4" y2="1826.8" stroke="#c8703f" stroke-width="5"/><line x1="2040" y1="1885" x2="2074.7" y2="1905" stroke="#c8703f" stroke-width="10"/><line x1="2007.7" y1="1965.5" x2="2027.3" y2="1979.3" stroke="#c8703f" stroke-width="5"/><line x1="1955.3" y1="2033.8" x2="1973.7" y2="2049.2" stroke="#c8703f" stroke-width="5"/><line x1="1897.2" y1="2097.2" x2="1914.2" y2="2114.2" stroke="#c8703f" stroke-width="5"/><line x1="1833.8" y1="2155.3" x2="1849.2" y2="2173.7" stroke="#c8703f" stroke-width="5"/><line x1="1765.5" y1="2207.7" x2="1779.3" y2="2227.3" stroke="#c8703f" stroke-width="5"/><line x1="1685" y1="2240" x2="1705" y2="2274.7" stroke="#c8703f" stroke-width="10"/><line x1="1616.7" y1="2293.6" x2="1626.8" y2="2315.4" stroke="#c8703f" stroke-width="5"/><line x1="1537.2" y1="2326.5" x2="1545.4" y2="2349.1" stroke="#c8703f" stroke-width="5"/><line x1="1455.2" y1="2352.4" x2="1461.4" y2="2375.6" stroke="#c8703f" stroke-width="5"/><line x1="1371.2" y1="2371" x2="1375.4" y2="2394.7" stroke="#c8703f" stroke-width="5"/><line x1="1285.9" y1="2382.2" x2="1288" y2="2406.2" stroke="#c8703f" stroke-width="5"/><line x1="1200" y1="2370" x2="1200" y2="2410" stroke="#c8703f" stroke-width="10"/><line x1="1114.1" y1="2382.2" x2="1112" y2="2406.2" stroke="#c8703f" stroke-width="5"/><line x1="1028.8" y1="2371" x2="1024.6" y2="2394.7" stroke="#c8703f" stroke-width="5"/><line x1="944.8" y1="2352.4" x2="938.6" y2="2375.6" stroke="#c8703f" stroke-width="5"/><line x1="862.8" y1="2326.5" x2="854.6" y2="2349.1" stroke="#c8703f" stroke-width="5"/><line x1="783.3" y1="2293.6" x2="773.2" y2="2315.4" stroke="#c8703f" stroke-width="5"/><line x1="715" y1="2240" x2="695" y2="2274.7" stroke="#c8703f" stroke-width="10"/><line x1="634.5" y1="2207.7" x2="620.7" y2="2227.3" stroke="#c8703f" stroke-width="5"/><line x1="566.2" y1="2155.3" x2="550.8" y2="2173.7" stroke="#c8703f" stroke-width="5"/><line x1="502.8" y1="2097.2" x2="485.8" y2="2114.2" stroke="#c8703f" stroke-width="5"/><line x1="444.7" y1="2033.8" x2="426.3" y2="2049.2" stroke="#c8703f" stroke-width="5"/><line x1="392.3" y1="1965.5" x2="372.7" y2="1979.3" stroke="#c8703f" stroke-width="5"/><line x1="360" y1="1885" x2="325.3" y2="1905" stroke="#c8703f" stroke-width="10"/><line x1="306.4" y1="1816.7" x2="284.6" y2="1826.8" stroke="#c8703f" stroke-width="5"/><line x1="273.5" y1="1737.2" x2="250.9" y2="1745.4" stroke="#c8703f" stroke-width="5"/><line x1="247.6" y1="1655.2" x2="224.4" y2="1661.4" stroke="#c8703f" stroke-width="5"/><line x1="229" y1="1571.2" x2="205.3" y2="1575.4" stroke="#c8703f" stroke-width="5"/><line x1="217.8" y1="1485.9" x2="193.8" y2="1488" stroke="#c8703f" stroke-width="5"/><line x1="230" y1="1400" x2="190" y2="1400" stroke="#c8703f" stroke-width="10"/><line x1="217.8" y1="1314.1" x2="193.8" y2="1312" stroke="#c8703f" stroke-width="5"/><line x1="229" y1="1228.8" x2="205.3" y2="1224.6" stroke="#c8703f" stroke-width="5"/><line x1="247.6" y1="1144.8" x2="224.4" y2="1138.6" stroke="#c8703f" stroke-width="5"/><line x1="273.5" y1="1062.8" x2="250.9" y2="1054.6" stroke="#c8703f" stroke-width="5"/><line x1="306.4" y1="983.3" x2="284.6" y2="973.2" stroke="#c8703f" stroke-width="5"/><line x1="360" y1="915" x2="325.3" y2="895" stroke="#c8703f" stroke-width="10"/><line x1="392.3" y1="834.5" x2="372.7" y2="820.7" stroke="#c8703f" stroke-width="5"/><line x1="444.7" y1="766.2" x2="426.3" y2="750.8" stroke="#c8703f" stroke-width="5"/><line x1="502.8" y1="702.8" x2="485.8" y2="685.8" stroke="#c8703f" stroke-width="5"/><line x1="566.2" y1="644.7" x2="550.8" y2="626.3" stroke="#c8703f" stroke-width="5"/><line x1="634.5" y1="592.3" x2="620.7" y2="572.7" stroke="#c8703f" stroke-width="5"/><line x1="715" y1="560" x2="695" y2="525.3" stroke="#c8703f" stroke-width="10"/><line x1="783.3" y1="506.4" x2="773.2" y2="484.6" stroke="#c8703f" stroke-width="5"/><line x1="862.8" y1="473.5" x2="854.6" y2="450.9" stroke="#c8703f" stroke-width="5"/><line x1="944.8" y1="447.6" x2="938.6" y2="424.4" stroke="#c8703f" stroke-width="5"/><line x1="1028.8" y1="429" x2="1024.6" y2="405.3" stroke="#c8703f" stroke-width="5"/><line x1="1114.1" y1="417.8" x2="1112" y2="393.8" stroke="#c8703f" stroke-width="5"/><line x1="1200" y1="430" x2="1200" y2="390" stroke="#c8703f" stroke-width="10"/><line x1="1285.9" y1="417.8" x2="1288" y2="393.8" stroke="#c8703f" stroke-width="5"/><line x1="1371.2" y1="429" x2="1375.4" y2="405.3" stroke="#c8703f" stroke-width="5"/><line x1="1455.2" y1="447.6" x2="1461.4" y2="424.4" stroke="#c8703f" stroke-width="5"/><line x1="1537.2" y1="473.5" x2="1545.4" y2="450.9" stroke="#c8703f" stroke-width="5"/><line x1="1616.7" y1="506.4" x2="1626.8" y2="484.6" stroke="#c8703f" stroke-width="5"/><line x1="1685" y1="560" x2="1705" y2="525.3" stroke="#c8703f" stroke-width="10"/><line x1="1765.5" y1="592.3" x2="1779.3" y2="572.7" stroke="#c8703f" stroke-width="5"/><line x1="1833.8" y1="644.7" x2="1849.2" y2="626.3" stroke="#c8703f" stroke-width="5"/><line x1="1897.2" y1="702.8" x2="1914.2" y2="685.8" stroke="#c8703f" stroke-width="5"/><line x1="1955.3" y1="766.2" x2="1973.7" y2="750.8" stroke="#c8703f" stroke-width="5"/><line x1="2007.7" y1="834.5" x2="2027.3" y2="820.7" stroke="#c8703f" stroke-width="5"/><line x1="2040" y1="915" x2="2074.7" y2="895" stroke="#c8703f" stroke-width="10"/><line x1="2093.6" y1="983.3" x2="2115.4" y2="973.2" stroke="#c8703f" stroke-width="5"/><line x1="2126.5" y1="1062.8" x2="2149.1" y2="1054.6" stroke="#c8703f" stroke-width="5"/><line x1="2152.4" y1="1144.8" x2="2175.6" y2="1138.6" stroke="#c8703f" stroke-width="5"/><line x1="2171" y1="1228.8" x2="2194.7" y2="1224.6" stroke="#c8703f" stroke-width="5"/><line x1="2182.2" y1="1314.1" x2="2206.2" y2="1312" stroke="#c8703f" stroke-width="5"/><circle cx="1200" cy="1400" r="280" fill="none" stroke="#c8703f" stroke-width="3" opacity="0.28" stroke-dasharray="3 26"/><circle cx="1200" cy="1400" r="530" fill="none" stroke="#c8703f" stroke-width="3" opacity="0.28" stroke-dasharray="3 26"/><circle cx="1200" cy="1400" r="780" fill="none" stroke="#c8703f" stroke-width="3" opacity="0.28" stroke-dasharray="3 26"/><circle cx="1985.8" cy="1199.1" r="3.9" fill="#c8703f" opacity="0.64"/><circle cx="1728.7" cy="1750.1" r="5.1" fill="#c8703f" opacity="0.88"/><circle cx="1193.1" cy="648.5" r="5.9" fill="#c8703f" opacity="0.87"/><circle cx="1571.1" cy="809.2" r="6.6" fill="#c8703f" opacity="0.96"/><circle cx="851.9" cy="762.2" r="7.9" fill="#c8703f" opacity="0.79"/><circle cx="933.6" cy="1527.7" r="6.5" fill="#c8703f" opacity="0.61"/><circle cx="1346.6" cy="1312.7" r="6.5" fill="#c8703f" opacity="0.62"/><circle cx="1961.1" cy="959.8" r="6.9" fill="#c8703f" opacity="0.96"/><circle cx="805.4" cy="775.2" r="4.7" fill="#c8703f" opacity="0.97"/><circle cx="1608.3" cy="2130.9" r="3.9" fill="#c8703f" opacity="0.66"/><circle cx="979" cy="2039.5" r="7.9" fill="#c8703f" opacity="0.53"/><circle cx="594.8" cy="1918.8" r="5.9" fill="#c8703f" opacity="0.68"/><circle cx="1086" cy="1497" r="3.6" fill="#c8703f" opacity="0.55"/><circle cx="1219.8" cy="856.1" r="5.2" fill="#c8703f" opacity="0.54"/><circle cx="1448.1" cy="1565.1" r="7.7" fill="#c8703f" opacity="0.96"/><circle cx="548.7" cy="1707.1" r="6.4" fill="#c8703f" opacity="0.60"/><circle cx="470.3" cy="1030.7" r="6.5" fill="#c8703f" opacity="0.51"/><circle cx="952.4" cy="938" r="5.2" fill="#c8703f" opacity="0.77"/><circle cx="1120.9" cy="1753.4" r="5.1" fill="#c8703f" opacity="0.81"/><circle cx="1415.7" cy="2075.1" r="7.4" fill="#c8703f" opacity="0.50"/><circle cx="1415.4" cy="1958.8" r="7.4" fill="#c8703f" opacity="0.76"/><circle cx="1888.1" cy="1179" r="4.3" fill="#c8703f" opacity="0.60"/><circle cx="2112.2" cy="1495.6" r="7.1" fill="#c8703f" opacity="0.53"/><circle cx="478.2" cy="961.8" r="4.4" fill="#c8703f" opacity="0.79"/><circle cx="907.7" cy="1741.5" r="6.8" fill="#c8703f" opacity="0.97"/><circle cx="1768.7" cy="839.9" r="3.3" fill="#c8703f" opacity="0.89"/><circle cx="930.4" cy="632.2" r="5.5" fill="#c8703f" opacity="0.72"/><circle cx="692.9" cy="988.7" r="7.2" fill="#c8703f" opacity="0.72"/><circle cx="1286.7" cy="997.8" r="7.9" fill="#c8703f" opacity="0.88"/><circle cx="780.8" cy="1230.6" r="5.1" fill="#c8703f" opacity="0.62"/><circle cx="807.4" cy="1972.4" r="4" fill="#c8703f" opacity="0.94"/><circle cx="679.7" cy="1393.3" r="6.9" fill="#c8703f" opacity="0.92"/><circle cx="453.8" cy="888.2" r="3.4" fill="#c8703f" opacity="0.94"/><circle cx="1763.5" cy="792.8" r="7.4" fill="#c8703f" opacity="0.67"/><circle cx="1019.2" cy="1498.5" r="7.8" fill="#c8703f" opacity="0.45"/><circle cx="1177.9" cy="1220.3" r="4.1" fill="#c8703f" opacity="0.63"/><circle cx="1730.4" cy="1983.6" r="5.8" fill="#c8703f" opacity="0.47"/><circle cx="657.9" cy="1837.1" r="5.4" fill="#c8703f" opacity="0.99"/><circle cx="1114.7" cy="919.6" r="4.9" fill="#c8703f" opacity="0.75"/><circle cx="1261.1" cy="2313.1" r="7.9" fill="#c8703f" opacity="0.97"/><circle cx="984.3" cy="1934.7" r="3.1" fill="#c8703f" opacity="0.71"/><circle cx="840.1" cy="1376.9" r="3.1" fill="#c8703f" opacity="0.67"/><circle cx="1332.9" cy="1407.2" r="5.5" fill="#c8703f" opacity="0.89"/><circle cx="1023.4" cy="2299.2" r="5.3" fill="#c8703f" opacity="0.59"/><circle cx="1940.3" cy="1042.4" r="3.8" fill="#c8703f" opacity="0.69"/><circle cx="1057.4" cy="1622.7" r="4.1" fill="#c8703f" opacity="0.70"/><circle cx="1235.2" cy="1082.6" r="4.9" fill="#c8703f" opacity="0.54"/><circle cx="1327.2" cy="959" r="6.9" fill="#c8703f" opacity="0.65"/><circle cx="1048.6" cy="1405.7" r="6.4" fill="#c8703f" opacity="0.78"/><circle cx="836.2" cy="1093.9" r="5.1" fill="#c8703f" opacity="0.98"/><circle cx="1851.4" cy="1823.5" r="3.8" fill="#c8703f" opacity="0.85"/><circle cx="1668.8" cy="1781.7" r="3.9" fill="#c8703f" opacity="0.68"/><circle cx="1893.1" cy="1314.6" r="5.9" fill="#c8703f" opacity="0.60"/><circle cx="1019.5" cy="1800.4" r="4.5" fill="#c8703f" opacity="0.74"/><circle cx="1495.9" cy="1195.9" r="3.9" fill="#c8703f" opacity="0.85"/><circle cx="1184" cy="812.1" r="4.6" fill="#c8703f" opacity="0.92"/><circle cx="795.5" cy="616.1" r="7.1" fill="#c8703f" opacity="0.91"/><circle cx="1484.6" cy="649.5" r="8" fill="#c8703f" opacity="0.86"/><circle cx="1071.7" cy="1475.1" r="6.8" fill="#c8703f" opacity="0.67"/><circle cx="1223.5" cy="1374.2" r="3.3" fill="#c8703f" opacity="0.68"/><circle cx="1223.7" cy="1798.6" r="4.8" fill="#c8703f" opacity="0.78"/><circle cx="1874.7" cy="1594.3" r="5.4" fill="#c8703f" opacity="0.75"/><circle cx="1854.6" cy="1403.2" r="3.9" fill="#c8703f" opacity="0.95"/><circle cx="1578.3" cy="1188.7" r="7.3" fill="#c8703f" opacity="0.81"/><path d="M886.8,2090.8 Q936.8,2081.8 986.7,2090.8 Q936.8,2099.8 886.8,2090.8 Z M936.8,2040.9 Q945.7,2090.8 936.8,2140.7 Q927.8,2090.8 936.8,2040.9 Z" fill="#c8703f"/><path d="M639.4,1953.1 Q684.5,1945 729.6,1953.1 Q684.5,1961.2 639.4,1953.1 Z M684.5,1908 Q692.6,1953.1 684.5,1998.2 Q676.4,1953.1 684.5,1908 Z" fill="#c8703f"/><path d="M501.9,1069.4 Q541.7,1062.2 581.4,1069.4 Q541.7,1076.6 501.9,1069.4 Z M541.7,1029.7 Q548.8,1069.4 541.7,1109.1 Q534.5,1069.4 541.7,1029.7 Z" fill="#c8703f"/><path d="M1558.5,1237.5 Q1613.1,1227.6 1667.7,1237.5 Q1613.1,1247.3 1558.5,1237.5 Z M1613.1,1182.8 Q1623,1237.5 1613.1,1292.1 Q1603.3,1237.5 1613.1,1182.8 Z" fill="#c8703f"/><path d="M1689.2,1686.6 Q1741.6,1677.2 1794,1686.6 Q1741.6,1696.1 1689.2,1686.6 Z M1741.6,1634.2 Q1751,1686.6 1741.6,1739 Q1732.1,1686.6 1741.6,1634.2 Z" fill="#c8703f"/><polyline points="1276.9,1734 1068.8,1815.4 1146.3,1639.3 943.6,1761.9 1141.4,1842.5 " fill="none" stroke="#c8703f" stroke-width="4" opacity="0.55"/><circle cx="1276.9" cy="1734" r="12" fill="#c8703f"/><circle cx="1068.8" cy="1815.4" r="9" fill="#c8703f"/><circle cx="1146.3" cy="1639.3" r="13" fill="#c8703f"/><circle cx="943.6" cy="1761.9" r="13.6" fill="#c8703f"/><circle cx="1141.4" cy="1842.5" r="12.3" fill="#c8703f"/><polyline points="1005.8,1948.4 1039.5,2114.5 1057.1,2116.6 1108.7,2172.5 1119,1973.9 910.2,1955.3 804,2049.5 " fill="none" stroke="#c8703f" stroke-width="4" opacity="0.55"/><circle cx="1005.8" cy="1948.4" r="12" fill="#c8703f"/><circle cx="1039.5" cy="2114.5" r="10.9" fill="#c8703f"/><circle cx="1057.1" cy="2116.6" r="12.3" fill="#c8703f"/><circle cx="1108.7" cy="2172.5" r="11.4" fill="#c8703f"/><circle cx="1119" cy="1973.9" r="8.1" fill="#c8703f"/><circle cx="910.2" cy="1955.3" r="14" fill="#c8703f"/><circle cx="804" cy="2049.5" r="12.9" fill="#c8703f"/><polyline points="1189.4,1619.8 1308.1,1478.4 1407.6,1668.9 1542.1,1598 1561.2,1460 1617.3,1343.2 1625.7,1453.6 " fill="none" stroke="#c8703f" stroke-width="4" opacity="0.55"/><circle cx="1189.4" cy="1619.8" r="12" fill="#c8703f"/><circle cx="1308.1" cy="1478.4" r="11.4" fill="#c8703f"/><circle cx="1407.6" cy="1668.9" r="12.9" fill="#c8703f"/><circle cx="1542.1" cy="1598" r="11.2" fill="#c8703f"/><circle cx="1561.2" cy="1460" r="9.2" fill="#c8703f"/><circle cx="1617.3" cy="1343.2" r="13.9" fill="#c8703f"/><circle cx="1625.7" cy="1453.6" r="9.3" fill="#c8703f"/><circle cx="1744.6" cy="1736.2" r="88" fill="#c8703f"/><circle cx="1781.5" cy="1720.4" r="77.4" fill="#26160e"/><path d="M370.1,2819.9 L 433.9,2819.9 L 433.9,2756.1 L 383.8,2756.1 L 383.8,2795.6 L 409.6,2795.6 L 409.6,2775.8 M446.1,2819.9 L 509.9,2819.9 L 509.9,2756.1 L 459.8,2756.1 L 459.8,2795.6 L 485.6,2795.6 L 485.6,2775.8 M522.1,2819.9 L 585.9,2819.9 L 585.9,2756.1 L 535.8,2756.1 L 535.8,2795.6 L 561.6,2795.6 L 561.6,2775.8 M598.1,2819.9 L 661.9,2819.9 L 661.9,2756.1 L 611.8,2756.1 L 611.8,2795.6 L 637.6,2795.6 L 637.6,2775.8 M674.1,2819.9 L 737.9,2819.9 L 737.9,2756.1 L 687.8,2756.1 L 687.8,2795.6 L 713.6,2795.6 L 713.6,2775.8 M750.1,2819.9 L 813.9,2819.9 L 813.9,2756.1 L 763.8,2756.1 L 763.8,2795.6 L 789.6,2795.6 L 789.6,2775.8 M826.1,2819.9 L 889.9,2819.9 L 889.9,2756.1 L 839.8,2756.1 L 839.8,2795.6 L 865.6,2795.6 L 865.6,2775.8 M902.1,2819.9 L 965.9,2819.9 L 965.9,2756.1 L 915.8,2756.1 L 915.8,2795.6 L 941.6,2795.6 L 941.6,2775.8 M978.1,2819.9 L 1041.9,2819.9 L 1041.9,2756.1 L 991.8,2756.1 L 991.8,2795.6 L 1017.6,2795.6 L 1017.6,2775.8 M1054.1,2819.9 L 1117.9,2819.9 L 1117.9,2756.1 L 1067.8,2756.1 L 1067.8,2795.6 L 1093.6,2795.6 L 1093.6,2775.8 M1130.1,2819.9 L 1193.9,2819.9 L 1193.9,2756.1 L 1143.8,2756.1 L 1143.8,2795.6 L 1169.6,2795.6 L 1169.6,2775.8 M1206.1,2819.9 L 1269.9,2819.9 L 1269.9,2756.1 L 1219.8,2756.1 L 1219.8,2795.6 L 1245.6,2795.6 L 1245.6,2775.8 M1282.1,2819.9 L 1345.9,2819.9 L 1345.9,2756.1 L 1295.8,2756.1 L 1295.8,2795.6 L 1321.6,2795.6 L 1321.6,2775.8 M1358.1,2819.9 L 1421.9,2819.9 L 1421.9,2756.1 L 1371.8,2756.1 L 1371.8,2795.6 L 1397.6,2795.6 L 1397.6,2775.8 M1434.1,2819.9 L 1497.9,2819.9 L 1497.9,2756.1 L 1447.8,2756.1 L 1447.8,2795.6 L 1473.6,2795.6 L 1473.6,2775.8 M1510.1,2819.9 L 1573.9,2819.9 L 1573.9,2756.1 L 1523.8,2756.1 L 1523.8,2795.6 L 1549.6,2795.6 L 1549.6,2775.8 M1586.1,2819.9 L 1649.9,2819.9 L 1649.9,2756.1 L 1599.8,2756.1 L 1599.8,2795.6 L 1625.6,2795.6 L 1625.6,2775.8 M1662.1,2819.9 L 1725.9,2819.9 L 1725.9,2756.1 L 1675.8,2756.1 L 1675.8,2795.6 L 1701.6,2795.6 L 1701.6,2775.8 M1738.1,2819.9 L 1801.9,2819.9 L 1801.9,2756.1 L 1751.8,2756.1 L 1751.8,2795.6 L 1777.6,2795.6 L 1777.6,2775.8 M1814.1,2819.9 L 1877.9,2819.9 L 1877.9,2756.1 L 1827.8,2756.1 L 1827.8,2795.6 L 1853.6,2795.6 L 1853.6,2775.8 M1890.1,2819.9 L 1953.9,2819.9 L 1953.9,2756.1 L 1903.8,2756.1 L 1903.8,2795.6 L 1929.6,2795.6 L 1929.6,2775.8 M1966.1,2819.9 L 2029.9,2819.9 L 2029.9,2756.1 L 1979.8,2756.1 L 1979.8,2795.6 L 2005.6,2795.6 L 2005.6,2775.8 " fill="none" stroke="#c8703f" stroke-width="9.9"/><rect x="100" y="100" width="2200" height="2800" fill="none" stroke="#c8703f" stroke-width="9"/><rect x="142" y="142" width="2116" height="2716" fill="none" stroke="#c8703f" stroke-width="3" opacity="0.65"/></svg></svg>