<svg xmlns="http://www.w3.org/2000/svg" width="2400" height="1800" viewBox="0 0 2400 1800"><rect width="2400" height="1800" fill="#e9e1d2"/><rect y="1430" width="2400" height="370" fill="#c8b190"/><line x1="120" y1="1430" x2="60" y2="1800" stroke="#00000018" stroke-width="6"/><line x1="380" y1="1430" x2="320" y2="1800" stroke="#00000018" stroke-width="6"/><line x1="640" y1="1430" x2="580" y2="1800" stroke="#00000018" stroke-width="6"/><line x1="900" y1="1430" x2="840" y2="1800" stroke="#00000018" stroke-width="6"/><line x1="1160" y1="1430" x2="1100" y2="1800" stroke="#00000018" stroke-width="6"/><line x1="1420" y1="1430" x2="1360" y2="1800" stroke="#00000018" stroke-width="6"/><line x1="1680" y1="1430" x2="1620" y2="1800" stroke="#00000018" stroke-width="6"/><line x1="1940" y1="1430" x2="1880" y2="1800" stroke="#00000018" stroke-width="6"/><line x1="2200" y1="1430" x2="2140" y2="1800" stroke="#00000018" stroke-width="6"/><rect y="1418" width="2400" height="16" fill="#d7cbb6"/><rect x="700" y="980" width="1000" height="460" rx="26" fill="#a87e57"/><rect x="660" y="1290" width="1080" height="210" rx="30" fill="#f1ebdf"/><rect x="660" y="1420" width="1080" height="120" rx="24" fill="#8a4423" opacity="0.85"/><rect x="770" y="1180" width="300" height="150" rx="40" fill="#faf6ec"/><rect x="1330" y="1180" width="300" height="150" rx="40" fill="#e0a077"/><rect x="640" y="1530" width="1120" height="26" rx="12" fill="#a87e57"/><rect x="360" y="1260" width="240" height="220" rx="10" fill="#a87e57"/><rect x="380" y="1300" width="200" height="14" fill="#00000022"/><line x1="480" y1="1260" x2="480" y2="1130" stroke="#5a4632" stroke-width="12"/><path d="M410,1130 L550,1130 L520,1020 L440,1020 Z" fill="#8a4423"/><path d="M2060,1520 Q 1910,1282.5 1835,1345" fill="none" stroke="#5d7052" stroke-width="20" stroke-linecap="round"/><path d="M2060,1520 Q 1960,1282.5 1910,1295" fill="none" stroke="#5d7052" stroke-width="20" stroke-linecap="round"/><path d="M2060,1520 Q 2010,1282.5 1985,1245" fill="none" stroke="#5d7052" stroke-width="20" stroke-linecap="round"/><path d="M2060,1520 Q 2060,1282.5 2060,1195" fill="none" stroke="#5d7052" stroke-width="20" stroke-linecap="round"/><path d="M2060,1520 Q 2110,1282.5 2135,1245" fill="none" stroke="#5d7052" stroke-width="20" stroke-linecap="round"/><path d="M2060,1520 Q 2160,1282.5 2210,1295" fill="none" stroke="#5d7052" stroke-width="20" stroke-linecap="round"/><path d="M2060,1520 Q 2210,1282.5 2285,1345" fill="none" stroke="#5d7052" stroke-width="20" stroke-linecap="round"/><path d="M1972.5,1520 L2147.5,1520 L2125,1657.5 L1995,1657.5 Z" fill="#a9714d"/><defs><filter id="a131b-sh" x="-30%" y="-30%" width="160%" height="160%"><feGaussianBlur stdDeviation="16"/></filter></defs><rect x="928" y="246" width="572" height="702" fill="#000" opacity="0.28" filter="url(#a131b-sh)"/><rect x="914" y="224" width="572" height="702" fill="#4a3d2f"/><rect x="930.9" y="240.9" width="538.2" height="668.2" fill="none" stroke="#00000055" stroke-width="3"/><rect x="940" y="250" width="520" height="650" fill="#f6f2ea"/><svg x="979" y="289" width="442" height="572" viewBox="0 0 2400 3000" preserveAspectRatio="xMidYMid slice"><rect width="2400" height="3000" fill="#c8703f"/><radialGradient id="a131-vig" cx="50%" cy="42%" r="80%"><stop offset="55%" stop-color="#000" stop-opacity="0"/><stop offset="100%" stop-color="#000" stop-opacity="0.15"/></radialGradient><rect width="2400" height="3000" fill="url(#a131-vig)"/><circle cx="1474.6" cy="2087" r="3.8" fill="#26160e" opacity="0.055"/><circle cx="2185.7" cy="2728.2" r="2.2" fill="#26160e" opacity="0.038"/><circle cx="1291.2" cy="2220.4" r="3.7" fill="#26160e" opacity="0.071"/><circle cx="2090.1" cy="1993.5" r="4.1" fill="#26160e" opacity="0.062"/><circle cx="1399.3" cy="1776.6" r="3.1" fill="#26160e" opacity="0.046"/><circle cx="862.3" cy="76.3" r="2.3" fill="#26160e" opacity="0.079"/><circle cx="430.7" cy="2453.4" r="3.9" fill="#26160e" opacity="0.034"/><circle cx="409.1" cy="977.4" r="3.2" fill="#26160e" opacity="0.064"/><circle cx="1450.2" cy="2002.5" r="3" fill="#26160e" opacity="0.071"/><circle cx="1421.4" cy="727.6" r="2.9" fill="#26160e" opacity="0.063"/><circle cx="962" cy="1321.4" r="2.9" fill="#26160e" opacity="0.038"/><circle cx="654.3" cy="704.5" r="2.1" fill="#26160e" opacity="0.060"/><circle cx="653.7" cy="840.5" r="2.9" fill="#26160e" opacity="0.045"/><circle cx="807.8" cy="2932.1" r="2.5" fill="#26160e" opacity="0.051"/><circle cx="1024.5" cy="253.6" r="1.7" fill="#26160e" opacity="0.048"/><circle cx="2011.2" cy="817.8" r="4.1" fill="#26160e" opacity="0.059"/><circle cx="2152.1" cy="2050.1" r="2.3" fill="#26160e" opacity="0.051"/><circle cx="1106.3" cy="2056" r="3.2" fill="#26160e" opacity="0.051"/><circle cx="1196.7" cy="1003.3" r="2.7" fill="#26160e" opacity="0.067"/><circle cx="541.7" cy="424.7" r="3" fill="#26160e" opacity="0.031"/><circle cx="1195.7" cy="737.9" r="3.2" fill="#26160e" opacity="0.036"/><circle cx="1192.2" cy="2896.9" r="3.7" fill="#26160e" opacity="0.066"/><circle cx="2321.1" cy="1364.8" r="1.7" fill="#26160e" opacity="0.044"/><circle cx="271.7" cy="1714.3" r="2.7" fill="#26160e" opacity="0.067"/><circle cx="2336.4" cy="221" r="2.8" fill="#26160e" opacity="0.041"/><circle cx="2217.8" cy="2569.7" r="2.6" fill="#26160e" opacity="0.050"/><circle cx="580.2" cy="2731.2" r="4.1" fill="#26160e" opacity="0.045"/><circle cx="1652.2" cy="2745.2" r="4.1" fill="#26160e" opacity="0.041"/><circle cx="1114.3" cy="351.4" r="2.2" fill="#26160e" opacity="0.063"/><circle cx="2294.9" cy="2913.4" r="4.1" fill="#26160e" opacity="0.053"/><circle cx="1105.4" cy="2357.4" r="2.8" fill="#26160e" opacity="0.044"/><circle cx="2318.8" cy="1104.3" r="4.4" fill="#26160e" opacity="0.048"/><circle cx="100.8" cy="912.9" r="4.3" fill="#26160e" opacity="0.050"/><circle cx="2259.9" cy="1318.3" r="4.2" fill="#26160e" opacity="0.044"/><circle cx="1827.1" cy="2415.7" r="2.9" fill="#26160e" opacity="0.069"/><circle cx="1747.1" cy="615.9" r="2.3" fill="#26160e" opacity="0.061"/><circle cx="469.9" cy="899.1" r="2.8" fill="#26160e" opacity="0.079"/><circle cx="1150.8" cy="951.4" r="3.9" fill="#26160e" opacity="0.068"/><circle cx="1368.6" cy="2948.8" r="2.5" fill="#26160e" opacity="0.062"/><circle cx="1345.4" cy="664.2" r="2.3" fill="#26160e" opacity="0.058"/><circle cx="1674" cy="2501.5" r="2.4" fill="#26160e" opacity="0.053"/><circle cx="281.4" cy="991.7" r="3.2" fill="#26160e" opacity="0.043"/><circle cx="788.2" cy="1496.6" r="3.4" fill="#26160e" opacity="0.045"/><circle cx="1582.4" cy="2433.6" r="4.4" fill="#26160e" opacity="0.062"/><circle cx="893.8" cy="1784.9" r="3.8" fill="#26160e" opacity="0.069"/><circle cx="1488.9" cy="609.9" r="4.3" fill="#26160e" opacity="0.034"/><circle cx="1971.2" cy="2274.1" r="2.4" fill="#26160e" opacity="0.064"/><circle cx="1492.4" cy="2400" r="1.6" fill="#26160e" opacity="0.051"/><circle cx="955" cy="940.4" r="3.1" fill="#26160e" opacity="0.037"/><circle cx="1840.1" cy="1497.7" r="2.7" fill="#26160e" opacity="0.039"/><circle cx="1267.2" cy="631.6" r="3.1" fill="#26160e" opacity="0.044"/><circle cx="1335.6" cy="1622.4" r="1.6" fill="#26160e" opacity="0.065"/><circle cx="251.9" cy="141.4" r="4.1" fill="#26160e" opacity="0.039"/><circle cx="1011.7" cy="735.5" r="2.3" fill="#26160e" opacity="0.050"/><circle cx="680.2" cy="2920.2" r="1.6" fill="#26160e" opacity="0.040"/><circle cx="1775.6" cy="548.5" r="2.3" fill="#26160e" opacity="0.061"/><circle cx="747.3" cy="1414.9" r="3.7" fill="#26160e" opacity="0.079"/><circle cx="1123.2" cy="2435.1" r="3.7" fill="#26160e" opacity="0.054"/><circle cx="1474.9" cy="669.3" r="3.1" fill="#26160e" opacity="0.059"/><circle cx="604.1" cy="2423.8" r="2.5" fill="#26160e" opacity="0.040"/><circle cx="957.6" cy="2419.9" r="2.5" fill="#26160e" opacity="0.056"/><circle cx="1271.5" cy="509.9" r="3.7" fill="#26160e" opacity="0.049"/><circle cx="536.7" cy="1222.7" r="3.2" fill="#26160e" opacity="0.067"/><circle cx="1573.5" cy="2066.8" r="1.8" fill="#26160e" opacity="0.052"/><circle cx="1194.2" cy="2272.8" r="3.4" fill="#26160e" opacity="0.053"/><circle cx="1730.2" cy="2110.2" r="3" fill="#26160e" opacity="0.038"/><circle cx="1559.7" cy="1358.1" r="1.7" fill="#26160e" opacity="0.031"/><circle cx="1231.5" cy="1048.4" r="1.7" fill="#26160e" opacity="0.066"/><circle cx="2259.8" cy="2219.2" r="4.5" fill="#26160e" opacity="0.078"/><circle cx="944.8" cy="93.9" r="1.8" fill="#26160e" opacity="0.062"/><circle cx="673.2" cy="509" r="2.4" fill="#26160e" opacity="0.048"/><circle cx="1819.4" cy="2614.1" r="1.9" fill="#26160e" opacity="0.071"/><circle cx="2038.1" cy="1321.4" r="4.4" fill="#26160e" opacity="0.058"/><circle cx="653.1" cy="152.8" r="1.8" fill="#26160e" opacity="0.060"/><circle cx="1309" cy="1646.8" r="4.2" fill="#26160e" opacity="0.071"/><circle cx="1550.8" cy="1652" r="2" fill="#26160e" opacity="0.080"/><circle cx="2272.5" cy="2520.8" r="2.3" fill="#26160e" opacity="0.049"/><circle cx="782.2" cy="1760.6" r="3.6" fill="#26160e" opacity="0.059"/><circle cx="1204.9" cy="2852.6" r="3.4" fill="#26160e" opacity="0.038"/><circle cx="156.6" cy="285.3" r="4.3" fill="#26160e" opacity="0.051"/><rect x="200" y="170" width="2000" height="14.5" fill="#26160e"/><rect x="200" y="184" width="2000" height="14.5" fill="#8a4423"/><rect x="200" y="198" width="2000" height="14.5" fill="#26160e"/><rect x="200" y="212" width="2000" height="14.5" fill="#e0a077"/><rect x="200" y="226" width="2000" height="14.5" fill="#26160e"/><rect x="200" y="2760" width="2000" height="14.5" fill="#26160e"/><rect x="200" y="2774" width="2000" height="14.5" fill="#8a4423"/><rect x="200" y="2788" width="2000" height="14.5" fill="#26160e"/><rect x="200" y="2802" width="2000" height="14.5" fill="#e0a077"/><rect x="200" y="2816" width="2000" height="14.5" fill="#26160e"/><circle cx="1200" cy="1030" r="150" fill="#8a4423"/><circle cx="1200" cy="1030" r="196" fill="none" stroke="#8a4423" stroke-width="10"/><line x1="1110" y1="1540" x2="357.4" y2="1481.8" stroke="#26160e" stroke-width="34" stroke-linecap="round"/><line x1="1110" y1="1540" x2="383.2" y2="1417.8" stroke="#26160e" stroke-width="34" stroke-linecap="round"/><line x1="1110" y1="1540" x2="426.9" y2="1356.8" stroke="#26160e" stroke-width="34" stroke-linecap="round"/><line x1="1110" y1="1540" x2="487.4" y2="1300.2" stroke="#26160e" stroke-width="34" stroke-linecap="round"/><line x1="1110" y1="1540" x2="563.3" y2="1249.6" stroke="#26160e" stroke-width="34" stroke-linecap="round"/><line x1="1110" y1="1540" x2="652.6" y2="1206.2" stroke="#26160e" stroke-width="34" stroke-linecap="round"/><line x1="1110" y1="1540" x2="753.2" y2="1170.9" stroke="#26160e" stroke-width="34" stroke-linecap="round"/><line x1="1110" y1="1540" x2="862.6" y2="1144.8" stroke="#26160e" stroke-width="34" stroke-linecap="round"/><line x1="1110" y1="1540" x2="978" y2="1128.4" stroke="#26160e" stroke-width="34" stroke-linecap="round"/><line x1="1110" y1="1540" x2="515.8" y2="1494.1" stroke="#8a4423" stroke-width="30" stroke-linecap="round"/><line x1="1110" y1="1540" x2="536.2" y2="1443.5" stroke="#8a4423" stroke-width="30" stroke-linecap="round"/><line x1="1110" y1="1540" x2="570.7" y2="1395.3" stroke="#8a4423" stroke-width="30" stroke-linecap="round"/><line x1="1110" y1="1540" x2="618.5" y2="1350.7" stroke="#8a4423" stroke-width="30" stroke-linecap="round"/><line x1="1110" y1="1540" x2="678.4" y2="1310.8" stroke="#8a4423" stroke-width="30" stroke-linecap="round"/><line x1="1110" y1="1540" x2="748.9" y2="1276.5" stroke="#8a4423" stroke-width="30" stroke-linecap="round"/><line x1="1110" y1="1540" x2="828.3" y2="1248.6" stroke="#8a4423" stroke-width="30" stroke-linecap="round"/><line x1="1110" y1="1540" x2="914.7" y2="1228" stroke="#8a4423" stroke-width="30" stroke-linecap="round"/><line x1="1110" y1="1540" x2="1005.8" y2="1215" stroke="#8a4423" stroke-width="30" stroke-linecap="round"/><line x1="1110" y1="1540" x2="664.4" y2="1505.6" stroke="#26160e" stroke-width="26" stroke-linecap="round"/><line x1="1110" y1="1540" x2="679.7" y2="1467.6" stroke="#26160e" stroke-width="26" stroke-linecap="round"/><line x1="1110" y1="1540" x2="705.5" y2="1431.5" stroke="#26160e" stroke-width="26" stroke-linecap="round"/><line x1="1110" y1="1540" x2="741.4" y2="1398" stroke="#26160e" stroke-width="26" stroke-linecap="round"/><line x1="1110" y1="1540" x2="786.3" y2="1368.1" stroke="#26160e" stroke-width="26" stroke-linecap="round"/><line x1="1110" y1="1540" x2="839.2" y2="1342.3" stroke="#26160e" stroke-width="26" stroke-linecap="round"/><line x1="1110" y1="1540" x2="898.7" y2="1321.5" stroke="#26160e" stroke-width="26" stroke-linecap="round"/><line x1="1110" y1="1540" x2="963.5" y2="1306" stroke="#26160e" stroke-width="26" stroke-linecap="round"/><line x1="1110" y1="1540" x2="1031.9" y2="1296.3" stroke="#26160e" stroke-width="26" stroke-linecap="round"/><line x1="1290" y1="1540" x2="2042.6" y2="1481.8" stroke="#26160e" stroke-width="34" stroke-linecap="round"/><line x1="1290" y1="1540" x2="2016.8" y2="1417.8" stroke="#26160e" stroke-width="34" stroke-linecap="round"/><line x1="1290" y1="1540" x2="1973.1" y2="1356.8" stroke="#26160e" stroke-width="34" stroke-linecap="round"/><line x1="1290" y1="1540" x2="1912.6" y2="1300.2" stroke="#26160e" stroke-width="34" stroke-linecap="round"/><line x1="1290" y1="1540" x2="1836.7" y2="1249.6" stroke="#26160e" stroke-width="34" stroke-linecap="round"/><line x1="1290" y1="1540" x2="1747.4" y2="1206.2" stroke="#26160e" stroke-width="34" stroke-linecap="round"/><line x1="1290" y1="1540" x2="1646.8" y2="1170.9" stroke="#26160e" stroke-width="34" stroke-linecap="round"/><line x1="1290" y1="1540" x2="1537.4" y2="1144.8" stroke="#26160e" stroke-width="34" stroke-linecap="round"/><line x1="1290" y1="1540" x2="1422" y2="1128.4" stroke="#26160e" stroke-width="34" stroke-linecap="round"/><line x1="1290" y1="1540" x2="1884.2" y2="1494.1" stroke="#8a4423" stroke-width="30" stroke-linecap="round"/><line x1="1290" y1="1540" x2="1863.8" y2="1443.5" stroke="#8a4423" stroke-width="30" stroke-linecap="round"/><line x1="1290" y1="1540" x2="1829.3" y2="1395.3" stroke="#8a4423" stroke-width="30" stroke-linecap="round"/><line x1="1290" y1="1540" x2="1781.5" y2="1350.7" stroke="#8a4423" stroke-width="30" stroke-linecap="round"/><line x1="1290" y1="1540" x2="1721.6" y2="1310.8" stroke="#8a4423" stroke-width="30" stroke-linecap="round"/><line x1="1290" y1="1540" x2="1651.1" y2="1276.5" stroke="#8a4423" stroke-width="30" stroke-linecap="round"/><line x1="1290" y1="1540" x2="1571.7" y2="1248.6" stroke="#8a4423" stroke-width="30" stroke-linecap="round"/><line x1="1290" y1="1540" x2="1485.3" y2="1228" stroke="#8a4423" stroke-width="30" stroke-linecap="round"/><line x1="1290" y1="1540" x2="1394.2" y2="1215" stroke="#8a4423" stroke-width="30" stroke-linecap="round"/><line x1="1290" y1="1540" x2="1735.6" y2="1505.6" stroke="#26160e" stroke-width="26" stroke-linecap="round"/><line x1="1290" y1="1540" x2="1720.3" y2="1467.6" stroke="#26160e" stroke-width="26" stroke-linecap="round"/><line x1="1290" y1="1540" x2="1694.5" y2="1431.5" stroke="#26160e" stroke-width="26" stroke-linecap="round"/><line x1="1290" y1="1540" x2="1658.6" y2="1398" stroke="#26160e" stroke-width="26" stroke-linecap="round"/><line x1="1290" y1="1540" x2="1613.7" y2="1368.1" stroke="#26160e" stroke-width="26" stroke-linecap="round"/><line x1="1290" y1="1540" x2="1560.8" y2="1342.3" stroke="#26160e" stroke-width="26" stroke-linecap="round"/><line x1="1290" y1="1540" x2="1501.3" y2="1321.5" stroke="#26160e" stroke-width="26" stroke-linecap="round"/><line x1="1290" y1="1540" x2="1436.5" y2="1306" stroke="#26160e" stroke-width="26" stroke-linecap="round"/><line x1="1290" y1="1540" x2="1368.1" y2="1296.3" stroke="#26160e" stroke-width="26" stroke-linecap="round"/><path d="M1080,1500 q -150,-60 -210,-150" fill="none" stroke="#26160e" stroke-width="26" stroke-linecap="round"/><path d="M1035,1660 q -190,20 -260,-40" fill="none" stroke="#26160e" stroke-width="26" stroke-linecap="round"/><path d="M1070,1810 q -150,90 -230,80" fill="none" stroke="#26160e" stroke-width="26" stroke-linecap="round"/><path d="M1320,1500 q 150,-60 210,-150" fill="none" stroke="#26160e" stroke-width="26" stroke-linecap="round"/><path d="M1365,1660 q 190,20 260,-40" fill="none" stroke="#26160e" stroke-width="26" stroke-linecap="round"/><path d="M1330,1810 q 150,90 230,80" fill="none" stroke="#26160e" stroke-width="26" stroke-linecap="round"/><ellipse cx="1200" cy="1660" rx="180" ry="240" fill="#26160e"/><line x1="1200" y1="1540" x2="1200" y2="1896" stroke="#c8703f" stroke-width="9" opacity="0.7"/><path d="M1028,1552 Q 1200,1630 1372,1552" fill="none" stroke="#c8703f" stroke-width="9" opacity="0.7"/><path d="M1080,1450 A 130,130 0 0 1 1320,1450 L1278,1495 L1122,1495 Z" fill="#26160e"/><line x1="1112" y1="1392" x2="1084" y2="1338" stroke="#26160e" stroke-width="16" stroke-linecap="round"/><line x1="1156" y1="1392" x2="1142" y2="1338" stroke="#26160e" stroke-width="16" stroke-linecap="round"/><line x1="1200" y1="1392" x2="1200" y2="1338" stroke="#26160e" stroke-width="16" stroke-linecap="round"/><line x1="1244" y1="1392" x2="1258" y2="1338" stroke="#26160e" stroke-width="16" stroke-linecap="round"/><line x1="1288" y1="1392" x2="1316" y2="1338" stroke="#26160e" stroke-width="16" stroke-linecap="round"/><path d="M780,1990 Q 1200,2160 1620,1990 L1560,1990 Q 1200,2090 840,1990 Z" fill="#8a4423"/><rect x="100" y="100" width="2200" height="2800" fill="none" stroke="#26160e" stroke-width="9"/><rect x="142" y="142" width="2116" height="2716" fill="none" stroke="#26160e" stroke-width="3" opacity="0.65"/></svg></svg>