<svg xmlns="http://www.w3.org/2000/svg" width="2400" height="1800" viewBox="0 0 2400 1800"><rect width="2400" height="1800" fill="#dfe4dc"/><rect y="1400" width="2400" height="400" fill="#c2a67e"/><line x1="60" y1="1400" x2="10" y2="1800" stroke="#00000015" stroke-width="5"/><line x1="260" y1="1400" x2="210" y2="1800" stroke="#00000015" stroke-width="5"/><line x1="460" y1="1400" x2="410" y2="1800" stroke="#00000015" stroke-width="5"/><line x1="660" y1="1400" x2="610" y2="1800" stroke="#00000015" stroke-width="5"/><line x1="860" y1="1400" x2="810" y2="1800" stroke="#00000015" stroke-width="5"/><line x1="1060" y1="1400" x2="1010" y2="1800" stroke="#00000015" stroke-width="5"/><line x1="1260" y1="1400" x2="1210" y2="1800" stroke="#00000015" stroke-width="5"/><line x1="1460" y1="1400" x2="1410" y2="1800" stroke="#00000015" stroke-width="5"/><line x1="1660" y1="1400" x2="1610" y2="1800" stroke="#00000015" stroke-width="5"/><line x1="1860" y1="1400" x2="1810" y2="1800" stroke="#00000015" stroke-width="5"/><line x1="2060" y1="1400" x2="2010" y2="1800" stroke="#00000015" stroke-width="5"/><line x1="2260" y1="1400" x2="2210" y2="1800" stroke="#00000015" stroke-width="5"/><rect x="180" y="260" width="900" height="620" fill="#8a6a48"/><rect x="215" y="295" width="830" height="550" fill="#41524a"/><line x1="280" y1="420" x2="760" y2="420" stroke="#ffffff66" stroke-width="9" stroke-linecap="round"/><line x1="280" y1="520" x2="620" y2="520" stroke="#ffffff44" stroke-width="9" stroke-linecap="round"/><circle cx="880" cy="560" r="90" fill="none" stroke="#ffffff55" stroke-width="8"/><rect x="215" y="845" width="830" height="22" fill="#6f5436"/><rect x="330" y="1240" width="640" height="60" rx="10" fill="#9c7449"/><rect x="370" y="1300" width="60" height="240" fill="#8a6540"/><rect x="870" y="1300" width="60" height="240" fill="#8a6540"/><rect x="430" y="1160" width="150" height="80" rx="8" fill="#b3502f"/><rect x="450" y="1120" width="150" height="40" rx="8" fill="#c9b98e"/><circle cx="800" cy="1130" r="86" fill="#7fa3b8"/><path d="M760,1060 Q820,1100 780,1190 M740,1090 Q800,1120 850,1100" stroke="#5d8069" stroke-width="16" fill="none" stroke-linecap="round"/><circle cx="800" cy="1130" r="86" fill="none" stroke="#6b5233" stroke-width="7"/><line x1="800" y1="1216" x2="800" y2="1250" stroke="#6b5233" stroke-width="10"/><rect x="750" y="1244" width="100" height="14" rx="7" fill="#6b5233"/><rect x="1980" y="700" width="300" height="800" fill="#9c7449"/><rect x="2000" y="930" width="260" height="16" fill="#7c5a37"/><rect x="2020" y="790" width="36" height="140" fill="#b3502f"/><rect x="2066" y="802" width="36" height="128" fill="#39685c"/><rect x="2112" y="790" width="36" height="140" fill="#c9a227"/><rect x="2158" y="802" width="36" height="128" fill="#2c4661"/><rect x="2204" y="790" width="36" height="140" fill="#8a4423"/><rect x="2000" y="1180" width="260" height="16" fill="#7c5a37"/><rect x="2020" y="1040" width="36" height="140" fill="#39685c"/><rect x="2066" y="1052" width="36" height="128" fill="#c9a227"/><rect x="2112" y="1040" width="36" height="140" fill="#2c4661"/><rect x="2158" y="1052" width="36" height="128" fill="#8a4423"/><rect x="2204" y="1040" width="36" height="140" fill="#b3502f"/><rect x="2000" y="1430" width="260" height="16" fill="#7c5a37"/><rect x="2020" y="1290" width="36" height="140" fill="#c9a227"/><rect x="2066" y="1302" width="36" height="128" fill="#2c4661"/><rect x="2112" y="1290" width="36" height="140" fill="#8a4423"/><rect x="2158" y="1302" width="36" height="128" fill="#b3502f"/><rect x="2204" y="1290" width="36" height="140" fill="#39685c"/><defs><filter id="a195c-sh" x="-30%" y="-30%" width="160%" height="160%"><feGaussianBlur stdDeviation="16"/></filter></defs><rect x="1340.5" y="298.5" width="517" height="635" fill="#000" opacity="0.28" filter="url(#a195c-sh)"/><rect x="1326.5" y="276.5" width="517" height="635" fill="#3d342a"/><rect x="1341.8" y="291.8" width="486.4" height="604.5" fill="none" stroke="#00000055" stroke-width="3"/><rect x="1350" y="300" width="470" height="588" fill="#f6f2ea"/><svg x="1385.3" y="335.3" width="399.5" height="517.5" viewBox="0 0 2400 3000" preserveAspectRatio="xMidYMid slice"><rect width="2400" height="3000" fill="#e9dcbc"/><radialGradient id="a195-vig" cx="50%" cy="42%" r="80%"><stop offset="55%" stop-color="#000" stop-opacity="0"/><stop offset="100%" stop-color="#000" stop-opacity="0.15"/></radialGradient><rect width="2400" height="3000" fill="url(#a195-vig)"/><circle cx="1660.2" cy="1960.8" r="1.9" fill="#2c4661" opacity="0.053"/><circle cx="1828.6" cy="1196.6" r="3.2" fill="#2c4661" opacity="0.046"/><circle cx="262.7" cy="392.6" r="3.5" fill="#2c4661" opacity="0.071"/><circle cx="1943.1" cy="2610.3" r="2.9" fill="#2c4661" opacity="0.037"/><circle cx="1093" cy="2924.5" r="2.9" fill="#2c4661" opacity="0.048"/><circle cx="1608.1" cy="1975.8" r="3" fill="#2c4661" opacity="0.073"/><circle cx="199.1" cy="352.3" r="2.8" fill="#2c4661" opacity="0.033"/><circle cx="1920.6" cy="757.3" r="3.6" fill="#2c4661" opacity="0.043"/><circle cx="125.3" cy="2487.3" r="1.7" fill="#2c4661" opacity="0.049"/><circle cx="1616.5" cy="2488.1" r="1.9" fill="#2c4661" opacity="0.042"/><circle cx="1529" cy="1803.2" r="4.1" fill="#2c4661" opacity="0.063"/><circle cx="2247.9" cy="1612.2" r="2.4" fill="#2c4661" opacity="0.071"/><circle cx="1679.9" cy="603.1" r="4.2" fill="#2c4661" opacity="0.035"/><circle cx="2261.6" cy="2265.5" r="4" fill="#2c4661" opacity="0.068"/><circle cx="434.3" cy="313.5" r="4" fill="#2c4661" opacity="0.076"/><circle cx="1449.4" cy="1499.4" r="3.2" fill="#2c4661" opacity="0.050"/><circle cx="974.5" cy="1121.9" r="4.2" fill="#2c4661" opacity="0.040"/><circle cx="1305.6" cy="385.9" r="1.8" fill="#2c4661" opacity="0.040"/><circle cx="1138.2" cy="1957.1" r="1.6" fill="#2c4661" opacity="0.050"/><circle cx="2068.2" cy="2444.8" r="3.2" fill="#2c4661" opacity="0.047"/><circle cx="722.7" cy="2345.8" r="1.8" fill="#2c4661" opacity="0.035"/><circle cx="1212.5" cy="669.6" r="2.1" fill="#2c4661" opacity="0.048"/><circle cx="535.8" cy="63.5" r="3.3" fill="#2c4661" opacity="0.031"/><circle cx="1637.5" cy="65.8" r="2.1" fill="#2c4661" opacity="0.065"/><circle cx="1977.9" cy="2190.4" r="1.9" fill="#2c4661" opacity="0.070"/><circle cx="2002.6" cy="153.3" r="4.3" fill="#2c4661" opacity="0.077"/><circle cx="495.1" cy="2060.7" r="3.7" fill="#2c4661" opacity="0.041"/><circle cx="1806.1" cy="532.4" r="3.8" fill="#2c4661" opacity="0.047"/><circle cx="61.1" cy="1759.3" r="2.9" fill="#2c4661" opacity="0.067"/><circle cx="253.4" cy="2093.6" r="1.6" fill="#2c4661" opacity="0.065"/><circle cx="930.8" cy="1477.2" r="2.2" fill="#2c4661" opacity="0.038"/><circle cx="1296.5" cy="2508.5" r="3.4" fill="#2c4661" opacity="0.056"/><circle cx="350.2" cy="1027" r="1.5" fill="#2c4661" opacity="0.060"/><circle cx="901.7" cy="2223.5" r="3.7" fill="#2c4661" opacity="0.061"/><circle cx="2327.6" cy="1378.6" r="3.5" fill="#2c4661" opacity="0.069"/><circle cx="2254.3" cy="553.4" r="4.3" fill="#2c4661" opacity="0.071"/><circle cx="2277.4" cy="1600.6" r="2.7" fill="#2c4661" opacity="0.062"/><circle cx="1656.3" cy="2598" r="2.3" fill="#2c4661" opacity="0.066"/><circle cx="658.3" cy="123.3" r="1.9" fill="#2c4661" opacity="0.057"/><circle cx="1166.1" cy="2786.8" r="2.6" fill="#2c4661" opacity="0.058"/><circle cx="612" cy="2506.4" r="1.9" fill="#2c4661" opacity="0.057"/><circle cx="596.8" cy="1884.6" r="2.5" fill="#2c4661" opacity="0.077"/><circle cx="1096.1" cy="761.6" r="2.5" fill="#2c4661" opacity="0.056"/><circle cx="1601.5" cy="367.3" r="1.8" fill="#2c4661" opacity="0.034"/><circle cx="2066.5" cy="2495.3" r="2.3" fill="#2c4661" opacity="0.049"/><circle cx="1904.2" cy="107.1" r="4.5" fill="#2c4661" opacity="0.061"/><circle cx="1560.2" cy="2316.4" r="4.3" fill="#2c4661" opacity="0.075"/><circle cx="714.5" cy="2276" r="2.8" fill="#2c4661" opacity="0.032"/><circle cx="754.6" cy="2617.9" r="2.4" fill="#2c4661" opacity="0.041"/><circle cx="897.2" cy="714.7" r="3.8" fill="#2c4661" opacity="0.062"/><circle cx="2319.7" cy="577.5" r="4.2" fill="#2c4661" opacity="0.069"/><circle cx="941.9" cy="377.2" r="1.6" fill="#2c4661" opacity="0.066"/><circle cx="2084.2" cy="1462.4" r="3.5" fill="#2c4661" opacity="0.032"/><circle cx="1158.6" cy="395" r="3.8" fill="#2c4661" opacity="0.032"/><circle cx="109.5" cy="2326" r="1.8" fill="#2c4661" opacity="0.053"/><circle cx="832" cy="218.2" r="3.8" fill="#2c4661" opacity="0.041"/><circle cx="1600.5" cy="1723.3" r="4.1" fill="#2c4661" opacity="0.040"/><circle cx="2236.6" cy="48.3" r="2.3" fill="#2c4661" opacity="0.033"/><circle cx="86.6" cy="1353.5" r="2" fill="#2c4661" opacity="0.062"/><circle cx="143.4" cy="2856.9" r="4.2" fill="#2c4661" opacity="0.076"/><circle cx="1706.6" cy="2687" r="1.6" fill="#2c4661" opacity="0.050"/><circle cx="892.9" cy="648.2" r="1.7" fill="#2c4661" opacity="0.064"/><circle cx="2157.9" cy="282.7" r="4" fill="#2c4661" opacity="0.049"/><circle cx="573" cy="1262.6" r="3.6" fill="#2c4661" opacity="0.075"/><circle cx="393.9" cy="2090.6" r="2.6" fill="#2c4661" opacity="0.062"/><circle cx="489.2" cy="1012.2" r="3.6" fill="#2c4661" opacity="0.076"/><circle cx="1981" cy="1220" r="4.1" fill="#2c4661" opacity="0.064"/><circle cx="1058.5" cy="2252.2" r="2.3" fill="#2c4661" opacity="0.031"/><circle cx="1999.1" cy="1769.2" r="1.7" fill="#2c4661" opacity="0.047"/><circle cx="277.9" cy="2120.2" r="4.3" fill="#2c4661" opacity="0.040"/><circle cx="2051.2" cy="2099.1" r="2.1" fill="#2c4661" opacity="0.069"/><circle cx="1494.1" cy="2731.1" r="3.6" fill="#2c4661" opacity="0.047"/><circle cx="568.5" cy="208.8" r="2.5" fill="#2c4661" opacity="0.046"/><circle cx="828.2" cy="387.7" r="4.3" fill="#2c4661" opacity="0.067"/><circle cx="1850.3" cy="1259" r="2.7" fill="#2c4661" opacity="0.036"/><circle cx="2122.2" cy="1370.4" r="3.4" fill="#2c4661" opacity="0.034"/><circle cx="1229.2" cy="895.9" r="4.1" fill="#2c4661" opacity="0.034"/><circle cx="914.6" cy="170.5" r="2.4" fill="#2c4661" opacity="0.079"/><circle cx="1666.6" cy="1144.1" r="4.1" fill="#2c4661" opacity="0.033"/><circle cx="1904.2" cy="2205.7" r="3.3" fill="#2c4661" opacity="0.034"/><circle cx="1200" cy="1420" r="900" fill="none" stroke="#2c4661" stroke-width="12"/><line x1="2066" y1="1420" x2="2100" y2="1420" stroke="#2c4661" stroke-width="8"/><line x1="2058.6" y1="1533" x2="2092.3" y2="1537.5" stroke="#2c4661" stroke-width="8"/><line x1="2036.5" y1="1644.1" x2="2069.3" y2="1652.9" stroke="#2c4661" stroke-width="8"/><line x1="2000.1" y1="1751.4" x2="2031.5" y2="1764.4" stroke="#2c4661" stroke-width="8"/><line x1="1950" y1="1853" x2="1979.4" y2="1870" stroke="#2c4661" stroke-width="8"/><line x1="1887" y1="1947.2" x2="1914" y2="1967.9" stroke="#2c4661" stroke-width="8"/><line x1="1812.4" y1="2032.4" x2="1836.4" y2="2056.4" stroke="#2c4661" stroke-width="8"/><line x1="1727.2" y1="2107" x2="1747.9" y2="2134" stroke="#2c4661" stroke-width="8"/><line x1="1633" y1="2170" x2="1650" y2="2199.4" stroke="#2c4661" stroke-width="8"/><line x1="1531.4" y1="2220.1" x2="1544.4" y2="2251.5" stroke="#2c4661" stroke-width="8"/><line x1="1424.1" y1="2256.5" x2="1432.9" y2="2289.3" stroke="#2c4661" stroke-width="8"/><line x1="1313" y1="2278.6" x2="1317.5" y2="2312.3" stroke="#2c4661" stroke-width="8"/><line x1="1200" y1="2286" x2="1200" y2="2320" stroke="#2c4661" stroke-width="8"/><line x1="1087" y1="2278.6" x2="1082.5" y2="2312.3" stroke="#2c4661" stroke-width="8"/><line x1="975.9" y1="2256.5" x2="967.1" y2="2289.3" stroke="#2c4661" stroke-width="8"/><line x1="868.6" y1="2220.1" x2="855.6" y2="2251.5" stroke="#2c4661" stroke-width="8"/><line x1="767" y1="2170" x2="750" y2="2199.4" stroke="#2c4661" stroke-width="8"/><line x1="672.8" y1="2107" x2="652.1" y2="2134" stroke="#2c4661" stroke-width="8"/><line x1="587.6" y1="2032.4" x2="563.6" y2="2056.4" stroke="#2c4661" stroke-width="8"/><line x1="513" y1="1947.2" x2="486" y2="1967.9" stroke="#2c4661" stroke-width="8"/><line x1="450" y1="1853" x2="420.6" y2="1870" stroke="#2c4661" stroke-width="8"/><line x1="399.9" y1="1751.4" x2="368.5" y2="1764.4" stroke="#2c4661" stroke-width="8"/><line x1="363.5" y1="1644.1" x2="330.7" y2="1652.9" stroke="#2c4661" stroke-width="8"/><line x1="341.4" y1="1533" x2="307.7" y2="1537.5" stroke="#2c4661" stroke-width="8"/><line x1="334" y1="1420" x2="300" y2="1420" stroke="#2c4661" stroke-width="8"/><line x1="341.4" y1="1307" x2="307.7" y2="1302.5" stroke="#2c4661" stroke-width="8"/><line x1="363.5" y1="1195.9" x2="330.7" y2="1187.1" stroke="#2c4661" stroke-width="8"/><line x1="399.9" y1="1088.6" x2="368.5" y2="1075.6" stroke="#2c4661" stroke-width="8"/><line x1="450" y1="987" x2="420.6" y2="970" stroke="#2c4661" stroke-width="8"/><line x1="513" y1="892.8" x2="486" y2="872.1" stroke="#2c4661" stroke-width="8"/><line x1="587.6" y1="807.6" x2="563.6" y2="783.6" stroke="#2c4661" stroke-width="8"/><line x1="672.8" y1="733" x2="652.1" y2="706" stroke="#2c4661" stroke-width="8"/><line x1="767" y1="670" x2="750" y2="640.6" stroke="#2c4661" stroke-width="8"/><line x1="868.6" y1="619.9" x2="855.6" y2="588.5" stroke="#2c4661" stroke-width="8"/><line x1="975.9" y1="583.5" x2="967.1" y2="550.7" stroke="#2c4661" stroke-width="8"/><line x1="1087" y1="561.4" x2="1082.5" y2="527.7" stroke="#2c4661" stroke-width="8"/><line x1="1200" y1="554" x2="1200" y2="520" stroke="#2c4661" stroke-width="8"/><line x1="1313" y1="561.4" x2="1317.5" y2="527.7" stroke="#2c4661" stroke-width="8"/><line x1="1424.1" y1="583.5" x2="1432.9" y2="550.7" stroke="#2c4661" stroke-width="8"/><line x1="1531.4" y1="619.9" x2="1544.4" y2="588.5" stroke="#2c4661" stroke-width="8"/><line x1="1633" y1="670" x2="1650" y2="640.6" stroke="#2c4661" stroke-width="8"/><line x1="1727.2" y1="733" x2="1747.9" y2="706" stroke="#2c4661" stroke-width="8"/><line x1="1812.4" y1="807.6" x2="1836.4" y2="783.6" stroke="#2c4661" stroke-width="8"/><line x1="1887" y1="892.8" x2="1914" y2="872.1" stroke="#2c4661" stroke-width="8"/><line x1="1950" y1="987" x2="1979.4" y2="970" stroke="#2c4661" stroke-width="8"/><line x1="2000.1" y1="1088.6" x2="2031.5" y2="1075.6" stroke="#2c4661" stroke-width="8"/><line x1="2036.5" y1="1195.9" x2="2069.3" y2="1187.1" stroke="#2c4661" stroke-width="8"/><line x1="2058.6" y1="1307" x2="2092.3" y2="1302.5" stroke="#2c4661" stroke-width="8"/><polygon points="2010,1420 1808,1350.2 1808,1489.8" fill="#2c4661"/><polygon points="1977.2,1648.2 1803,1524.4 1763.7,1658.2" fill="#b3502f"/><polygon points="1881.4,1857.9 1749.2,1690 1673.8,1807.4" fill="#2c4661"/><polygon points="1730.4,2032.2 1650.9,1833.8 1545.4,1925.2" fill="#b3502f"/><polygon points="1536.5,2156.8 1516,1944.1 1389.1,2002" fill="#2c4661"/><polygon points="1315.3,2221.8 1355.6,2011.9 1217.5,2031.8" fill="#b3502f"/><polygon points="1084.7,2221.8 1182.5,2031.8 1044.4,2011.9" fill="#2c4661"/><polygon points="863.5,2156.8 1010.9,2002 884,1944.1" fill="#b3502f"/><polygon points="669.6,2032.2 854.6,1925.2 749.1,1833.8" fill="#2c4661"/><polygon points="518.6,1857.9 726.2,1807.4 650.8,1690" fill="#b3502f"/><polygon points="422.8,1648.2 636.3,1658.2 597,1524.4" fill="#2c4661"/><polygon points="390,1420 592,1489.8 592,1350.2" fill="#b3502f"/><polygon points="422.8,1191.8 597,1315.6 636.3,1181.8" fill="#2c4661"/><polygon points="518.6,982.1 650.8,1150 726.2,1032.6" fill="#b3502f"/><polygon points="669.6,807.8 749.1,1006.2 854.6,914.8" fill="#2c4661"/><polygon points="863.5,683.2 884,895.9 1010.9,838" fill="#b3502f"/><polygon points="1084.7,618.2 1044.4,828.1 1182.5,808.2" fill="#2c4661"/><polygon points="1315.3,618.2 1217.5,808.2 1355.6,828.1" fill="#b3502f"/><polygon points="1536.5,683.2 1389.1,838 1516,895.9" fill="#2c4661"/><polygon points="1730.4,807.8 1545.4,914.8 1650.9,1006.2" fill="#b3502f"/><polygon points="1881.4,982.1 1673.8,1032.6 1749.2,1150" fill="#2c4661"/><polygon points="1977.2,1191.8 1763.7,1181.8 1803,1315.6" fill="#b3502f"/><circle cx="1200" cy="1420" r="558" fill="none" stroke="#2c4661" stroke-width="8"/><path d="M0 0 Q 67.5 -198.4 0 -522 Q -67.5 -198.4 0 0 Z" fill="#b3502f" opacity="0.96" transform="translate(1209.8 1422) rotate(191.3)"/><path d="M0 0 Q 67.5 -198.4 0 -522 Q -67.5 -198.4 0 0 Z" fill="#2c4661" opacity="0.96" transform="translate(1208.3 1425.6) rotate(213.8)"/><path d="M0 0 Q 67.5 -198.4 0 -522 Q -67.5 -198.4 0 0 Z" fill="#b3502f" opacity="0.96" transform="translate(1205.6 1428.3) rotate(236.3)"/><path d="M0 0 Q 67.5 -198.4 0 -522 Q -67.5 -198.4 0 0 Z" fill="#2c4661" opacity="0.96" transform="translate(1202 1429.8) rotate(258.8)"/><path d="M0 0 Q 67.5 -198.4 0 -522 Q -67.5 -198.4 0 0 Z" fill="#b3502f" opacity="0.96" transform="translate(1198 1429.8) rotate(281.3)"/><path d="M0 0 Q 67.5 -198.4 0 -522 Q -67.5 -198.4 0 0 Z" fill="#2c4661" opacity="0.96" transform="translate(1194.4 1428.3) rotate(303.8)"/><path d="M0 0 Q 67.5 -198.4 0 -522 Q -67.5 -198.4 0 0 Z" fill="#b3502f" opacity="0.96" transform="translate(1191.7 1425.6) rotate(326.3)"/><path d="M0 0 Q 67.5 -198.4 0 -522 Q -67.5 -198.4 0 0 Z" fill="#2c4661" opacity="0.96" transform="translate(1190.2 1422) rotate(348.8)"/><path d="M0 0 Q 67.5 -198.4 0 -522 Q -67.5 -198.4 0 0 Z" fill="#b3502f" opacity="0.96" transform="translate(1190.2 1418) rotate(371.3)"/><path d="M0 0 Q 67.5 -198.4 0 -522 Q -67.5 -198.4 0 0 Z" fill="#2c4661" opacity="0.96" transform="translate(1191.7 1414.4) rotate(393.8)"/><path d="M0 0 Q 67.5 -198.4 0 -522 Q -67.5 -198.4 0 0 Z" fill="#b3502f" opacity="0.96" transform="translate(1194.4 1411.7) rotate(416.3)"/><path d="M0 0 Q 67.5 -198.4 0 -522 Q -67.5 -198.4 0 0 Z" fill="#2c4661" opacity="0.96" transform="translate(1198 1410.2) rotate(438.8)"/><path d="M0 0 Q 67.5 -198.4 0 -522 Q -67.5 -198.4 0 0 Z" fill="#b3502f" opacity="0.96" transform="translate(1202 1410.2) rotate(461.3)"/><path d="M0 0 Q 67.5 -198.4 0 -522 Q -67.5 -198.4 0 0 Z" fill="#2c4661" opacity="0.96" transform="translate(1205.6 1411.7) rotate(483.8)"/><path d="M0 0 Q 67.5 -198.4 0 -522 Q -67.5 -198.4 0 0 Z" fill="#b3502f" opacity="0.96" transform="translate(1208.3 1414.4) rotate(506.3)"/><path d="M0 0 Q 67.5 -198.4 0 -522 Q -67.5 -198.4 0 0 Z" fill="#2c4661" opacity="0.96" transform="translate(1209.8 1418) rotate(528.8)"/><path d="M0 0 Q 76.5 -116.3 0 -306 Q -76.5 -116.3 0 0 Z" fill="#c9b98e" opacity="0.98" transform="translate(1200 1420) rotate(180)"/><path d="M0 0 Q 76.5 -116.3 0 -306 Q -76.5 -116.3 0 0 Z" fill="#c9b98e" opacity="0.98" transform="translate(1200 1420) rotate(225)"/><path d="M0 0 Q 76.5 -116.3 0 -306 Q -76.5 -116.3 0 0 Z" fill="#c9b98e" opacity="0.98" transform="translate(1200 1420) rotate(270)"/><path d="M0 0 Q 76.5 -116.3 0 -306 Q -76.5 -116.3 0 0 Z" fill="#c9b98e" opacity="0.98" transform="translate(1200 1420) rotate(315)"/><path d="M0 0 Q 76.5 -116.3 0 -306 Q -76.5 -116.3 0 0 Z" fill="#c9b98e" opacity="0.98" transform="translate(1200 1420) rotate(360)"/><path d="M0 0 Q 76.5 -116.3 0 -306 Q -76.5 -116.3 0 0 Z" fill="#c9b98e" opacity="0.98" transform="translate(1200 1420) rotate(405)"/><path d="M0 0 Q 76.5 -116.3 0 -306 Q -76.5 -116.3 0 0 Z" fill="#c9b98e" opacity="0.98" transform="translate(1200 1420) rotate(450)"/><path d="M0 0 Q 76.5 -116.3 0 -306 Q -76.5 -116.3 0 0 Z" fill="#c9b98e" opacity="0.98" transform="translate(1200 1420) rotate(495)"/><circle cx="1200" cy="1420" r="110" fill="#2c4661"/><circle cx="1200" cy="1420" r="44" fill="#b3502f"/><circle cx="388" cy="208" r="14.6" fill="#2c4661"/><circle cx="444" cy="208" r="14.6" fill="#2c4661"/><circle cx="500" cy="208" r="14.6" fill="#2c4661"/><circle cx="556" cy="208" r="14.6" fill="#2c4661"/><circle cx="612" cy="208" r="14.6" fill="#2c4661"/><circle cx="668" cy="208" r="14.6" fill="#2c4661"/><circle cx="724" cy="208" r="14.6" fill="#2c4661"/><circle cx="780" cy="208" r="14.6" fill="#2c4661"/><circle cx="836" cy="208" r="14.6" fill="#2c4661"/><circle cx="892" cy="208" r="14.6" fill="#2c4661"/><circle cx="948" cy="208" r="14.6" fill="#2c4661"/><circle cx="1004" cy="208" r="14.6" fill="#2c4661"/><circle cx="1060" cy="208" r="14.6" fill="#2c4661"/><circle cx="1116" cy="208" r="14.6" fill="#2c4661"/><circle cx="1172" cy="208" r="14.6" fill="#2c4661"/><circle cx="1228" cy="208" r="14.6" fill="#2c4661"/><circle cx="1284" cy="208" r="14.6" fill="#2c4661"/><circle cx="1340" cy="208" r="14.6" fill="#2c4661"/><circle cx="1396" cy="208" r="14.6" fill="#2c4661"/><circle cx="1452" cy="208" r="14.6" fill="#2c4661"/><circle cx="1508" cy="208" r="14.6" fill="#2c4661"/><circle cx="1564" cy="208" r="14.6" fill="#2c4661"/><circle cx="1620" cy="208" r="14.6" fill="#2c4661"/><circle cx="1676" cy="208" r="14.6" fill="#2c4661"/><circle cx="1732" cy="208" r="14.6" fill="#2c4661"/><circle cx="1788" cy="208" r="14.6" fill="#2c4661"/><circle cx="1844" cy="208" r="14.6" fill="#2c4661"/><circle cx="1900" cy="208" r="14.6" fill="#2c4661"/><circle cx="1956" cy="208" r="14.6" fill="#2c4661"/><circle cx="2012" cy="208" r="14.6" fill="#2c4661"/><circle cx="388" cy="2792" r="14.6" fill="#2c4661"/><circle cx="444" cy="2792" r="14.6" fill="#2c4661"/><circle cx="500" cy="2792" r="14.6" fill="#2c4661"/><circle cx="556" cy="2792" r="14.6" fill="#2c4661"/><circle cx="612" cy="2792" r="14.6" fill="#2c4661"/><circle cx="668" cy="2792" r="14.6" fill="#2c4661"/><circle cx="724" cy="2792" r="14.6" fill="#2c4661"/><circle cx="780" cy="2792" r="14.6" fill="#2c4661"/><circle cx="836" cy="2792" r="14.6" fill="#2c4661"/><circle cx="892" cy="2792" r="14.6" fill="#2c4661"/><circle cx="948" cy="2792" r="14.6" fill="#2c4661"/><circle cx="1004" cy="2792" r="14.6" fill="#2c4661"/><circle cx="1060" cy="2792" r="14.6" fill="#2c4661"/><circle cx="1116" cy="2792" r="14.6" fill="#2c4661"/><circle cx="1172" cy="2792" r="14.6" fill="#2c4661"/><circle cx="1228" cy="2792" r="14.6" fill="#2c4661"/><circle cx="1284" cy="2792" r="14.6" fill="#2c4661"/><circle cx="1340" cy="2792" r="14.6" fill="#2c4661"/><circle cx="1396" cy="2792" r="14.6" fill="#2c4661"/><circle cx="1452" cy="2792" r="14.6" fill="#2c4661"/><circle cx="1508" cy="2792" r="14.6" fill="#2c4661"/><circle cx="1564" cy="2792" r="14.6" fill="#2c4661"/><circle cx="1620" cy="2792" r="14.6" fill="#2c4661"/><circle cx="1676" cy="2792" r="14.6" fill="#2c4661"/><circle cx="1732" cy="2792" r="14.6" fill="#2c4661"/><circle cx="1788" cy="2792" r="14.6" fill="#2c4661"/><circle cx="1844" cy="2792" r="14.6" fill="#2c4661"/><circle cx="1900" cy="2792" r="14.6" fill="#2c4661"/><circle cx="1956" cy="2792" r="14.6" fill="#2c4661"/><circle cx="2012" cy="2792" r="14.6" fill="#2c4661"/><rect x="100" y="100" width="2200" height="2800" fill="none" stroke="#2c4661" stroke-width="9"/><rect x="142" y="142" width="2116" height="2716" fill="none" stroke="#2c4661" stroke-width="3" opacity="0.65"/></svg></svg>