<svg xmlns="http://www.w3.org/2000/svg" width="2400" height="1800" viewBox="0 0 2400 1800"><rect width="2400" height="1800" fill="#e9e1d2"/><rect y="1430" width="2400" height="370" fill="#c8b190"/><line x1="120" y1="1430" x2="60" y2="1800" stroke="#00000018" stroke-width="6"/><line x1="380" y1="1430" x2="320" y2="1800" stroke="#00000018" stroke-width="6"/><line x1="640" y1="1430" x2="580" y2="1800" stroke="#00000018" stroke-width="6"/><line x1="900" y1="1430" x2="840" y2="1800" stroke="#00000018" stroke-width="6"/><line x1="1160" y1="1430" x2="1100" y2="1800" stroke="#00000018" stroke-width="6"/><line x1="1420" y1="1430" x2="1360" y2="1800" stroke="#00000018" stroke-width="6"/><line x1="1680" y1="1430" x2="1620" y2="1800" stroke="#00000018" stroke-width="6"/><line x1="1940" y1="1430" x2="1880" y2="1800" stroke="#00000018" stroke-width="6"/><line x1="2200" y1="1430" x2="2140" y2="1800" stroke="#00000018" stroke-width="6"/><rect y="1418" width="2400" height="16" fill="#d7cbb6"/><rect x="700" y="980" width="1000" height="460" rx="26" fill="#a87e57"/><rect x="660" y="1290" width="1080" height="210" rx="30" fill="#f1ebdf"/><rect x="660" y="1420" width="1080" height="120" rx="24" fill="#8a5a33" opacity="0.85"/><rect x="770" y="1180" width="300" height="150" rx="40" fill="#faf6ec"/><rect x="1330" y="1180" width="300" height="150" rx="40" fill="#b8a483"/><rect x="640" y="1530" width="1120" height="26" rx="12" fill="#a87e57"/><rect x="360" y="1260" width="240" height="220" rx="10" fill="#a87e57"/><rect x="380" y="1300" width="200" height="14" fill="#00000022"/><line x1="480" y1="1260" x2="480" y2="1130" stroke="#5a4632" stroke-width="12"/><path d="M410,1130 L550,1130 L520,1020 L440,1020 Z" fill="#8a5a33"/><path d="M2060,1520 Q 1910,1282.5 1835,1345" fill="none" stroke="#5d7052" stroke-width="20" stroke-linecap="round"/><path d="M2060,1520 Q 1960,1282.5 1910,1295" fill="none" stroke="#5d7052" stroke-width="20" stroke-linecap="round"/><path d="M2060,1520 Q 2010,1282.5 1985,1245" fill="none" stroke="#5d7052" stroke-width="20" stroke-linecap="round"/><path d="M2060,1520 Q 2060,1282.5 2060,1195" fill="none" stroke="#5d7052" stroke-width="20" stroke-linecap="round"/><path d="M2060,1520 Q 2110,1282.5 2135,1245" fill="none" stroke="#5d7052" stroke-width="20" stroke-linecap="round"/><path d="M2060,1520 Q 2160,1282.5 2210,1295" fill="none" stroke="#5d7052" stroke-width="20" stroke-linecap="round"/><path d="M2060,1520 Q 2210,1282.5 2285,1345" fill="none" stroke="#5d7052" stroke-width="20" stroke-linecap="round"/><path d="M1972.5,1520 L2147.5,1520 L2125,1657.5 L1995,1657.5 Z" fill="#a9714d"/><defs><filter id="a146b-sh" x="-30%" y="-30%" width="160%" height="160%"><feGaussianBlur stdDeviation="16"/></filter></defs><rect x="928" y="246" width="572" height="702" fill="#000" opacity="0.28" filter="url(#a146b-sh)"/><rect x="914" y="224" width="572" height="702" fill="#4a3d2f"/><rect x="930.9" y="240.9" width="538.2" height="668.2" fill="none" stroke="#00000055" stroke-width="3"/><rect x="940" y="250" width="520" height="650" fill="#f6f2ea"/><svg x="979" y="289" width="442" height="572" viewBox="0 0 2400 3000" preserveAspectRatio="xMidYMid slice"><filter id="a146-warp" x="-4%" y="-4%" width="108%" height="108%"><feTurbulence type="fractalNoise" baseFrequency="0.0105" numOctaves="2" seed="4500" result="w"/><feDisplacementMap in="SourceGraphic" in2="w" scale="7" xChannelSelector="R" yChannelSelector="G"/></filter><filter id="a146-grain" x="0%" y="0%" width="100%" height="100%"><feTurbulence type="fractalNoise" baseFrequency="0.6" numOctaves="2" seed="4507"/><feColorMatrix type="matrix" values="0.33 0.33 0.33 0 0.62  0.33 0.33 0.33 0 0.62  0.33 0.33 0.33 0 0.62  0 0 0 0 1"/></filter><filter id="a146-mottle" x="0%" y="0%" width="100%" height="100%"><feTurbulence type="fractalNoise" baseFrequency="0.0045" numOctaves="3" seed="4513"/><feColorMatrix type="matrix" values="0.2 0.2 0.2 0 0.78  0.2 0.2 0.2 0 0.78  0.2 0.2 0.2 0 0.78  0 0 0 0 1"/></filter><filter id="a146-fade" x="0%" y="0%" width="100%" height="100%"><feTurbulence type="fractalNoise" baseFrequency="0.006" numOctaves="2" seed="4529"/><feColorMatrix type="matrix" values="0.3 0.3 0.3 0 -0.08  0.3 0.3 0.3 0 -0.08  0.3 0.3 0.3 0 -0.1  0 0 0 0 1"/></filter><filter id="a146-blur9"><feGaussianBlur stdDeviation="9"/></filter><radialGradient id="a146-vig" cx="50%" cy="44%" r="78%"><stop offset="52%" stop-color="#241a10" stop-opacity="0"/><stop offset="100%" stop-color="#241a10" stop-opacity="0.17"/></radialGradient><radialGradient id="a146-warm" cx="50%" cy="30%" r="85%"><stop offset="0%" stop-color="#e8c890" stop-opacity="0.14"/><stop offset="70%" stop-color="#e8c890" stop-opacity="0"/></radialGradient><rect width="2400" height="3000" fill="#ece2cb"/><rect width="2400" height="3000" fill="url(#a146-warm)"/><g filter="url(#a146-warp)"><circle cx="1423.5" cy="851.5" r="343" fill="#8a5a33" opacity="0.95"/><line x1="200" y1="2430" x2="2200" y2="2430" stroke="#453521" stroke-width="16"/><rect x="930" y="2340" width="540" height="90" fill="#453521"/><rect x="1005.6" y="2260" width="388.8" height="80" fill="#453521"/><path d="M1065,2260 L1116.3,906.1 L1283.7,906.1 L1335,2260 Z" fill="#453521"/><polygon points="1200,756.1 1116.3,908.1 1283.7,908.1" fill="#8a5a33"/><rect x="1177" y="1008.1" width="46" height="16" fill="#ece2cb" opacity="0.9"/><rect x="1177" y="1118.1" width="46" height="16" fill="#ece2cb" opacity="0.9"/><circle cx="1200" cy="1236.1" r="18.400000000000002" fill="none" stroke="#ece2cb" stroke-width="10" opacity="0.9"/><line x1="1200" y1="1254.5" x2="1200" y2="1282.1" stroke="#ece2cb" stroke-width="10" opacity="0.9"/><rect x="1177" y="1338.1" width="46" height="16" fill="#ece2cb" opacity="0.9"/><rect x="1177" y="1448.1" width="46" height="16" fill="#ece2cb" opacity="0.9"/><rect x="1177" y="1558.1" width="46" height="16" fill="#ece2cb" opacity="0.9"/><circle cx="1200" cy="1676.1" r="18.400000000000002" fill="none" stroke="#ece2cb" stroke-width="10" opacity="0.9"/><line x1="1200" y1="1694.5" x2="1200" y2="1722.1" stroke="#ece2cb" stroke-width="10" opacity="0.9"/><circle cx="1200" cy="1786.1" r="18.400000000000002" fill="none" stroke="#ece2cb" stroke-width="10" opacity="0.9"/><line x1="1200" y1="1804.5" x2="1200" y2="1832.1" stroke="#ece2cb" stroke-width="10" opacity="0.9"/><circle cx="1200" cy="1896.1" r="18.400000000000002" fill="none" stroke="#ece2cb" stroke-width="10" opacity="0.9"/><line x1="1200" y1="1914.5" x2="1200" y2="1942.1" stroke="#ece2cb" stroke-width="10" opacity="0.9"/><circle cx="1200" cy="2006.1" r="18.400000000000002" fill="none" stroke="#ece2cb" stroke-width="10" opacity="0.9"/><line x1="1200" y1="2024.5" x2="1200" y2="2052.1" stroke="#ece2cb" stroke-width="10" opacity="0.9"/><circle cx="1200" cy="2116.1" r="19.32" fill="#ece2cb" opacity="0.9"/><rect x="200" y="2770" width="2000" height="13.3" fill="#453521"/><rect x="200" y="2782.8" width="2000" height="13.3" fill="#8a5a33"/><rect x="200" y="2795.6" width="2000" height="13.3" fill="#453521"/><rect x="200" y="2808.4" width="2000" height="13.3" fill="#b8a483"/><rect x="200" y="2821.2" width="2000" height="13.3" fill="#453521"/><rect x="130" y="130" width="2140" height="2740" fill="none" stroke="#453521" stroke-width="5"/><rect x="152" y="152" width="2096" height="2696" fill="none" stroke="#453521" stroke-width="2.5" opacity="0.8"/></g><rect width="2400" height="3000" filter="url(#a146-mottle)" style="mix-blend-mode:multiply" opacity="0.5"/><rect width="2400" height="3000" filter="url(#a146-fade)" style="mix-blend-mode:screen" opacity="0.55"/><rect width="2400" height="3000" filter="url(#a146-grain)" style="mix-blend-mode:multiply" opacity="0.32"/><ellipse cx="1496.7" cy="848.4" rx="225.6" ry="246.5" fill="#6b4a22" opacity="0.044" filter="url(#a146-blur9)"/><ellipse cx="1717.9" cy="1953.6" rx="182.8" ry="113.5" fill="#6b4a22" opacity="0.067" filter="url(#a146-blur9)"/><ellipse cx="1644" cy="2362.7" rx="97.1" ry="65.1" fill="#6b4a22" opacity="0.052" filter="url(#a146-blur9)"/><ellipse cx="802.8" cy="1092.3" rx="308.8" ry="334.4" fill="#6b4a22" opacity="0.050" filter="url(#a146-blur9)"/><g opacity="0.3"><rect y="3" width="2400" height="2" fill="#ece2cb"/><rect y="11" width="2400" height="2" fill="#ece2cb"/><rect y="19" width="2400" height="2" fill="#ece2cb"/><rect y="27" width="2400" height="2" fill="#ece2cb"/><rect y="35" width="2400" height="2" fill="#ece2cb"/><rect y="43" width="2400" height="2" fill="#ece2cb"/><rect y="51" width="2400" height="2" fill="#ece2cb"/><rect y="59" width="2400" height="2" fill="#ece2cb"/><rect y="67" width="2400" height="2" fill="#ece2cb"/><rect y="75" width="2400" height="2" fill="#ece2cb"/><rect y="83" width="2400" height="2" fill="#ece2cb"/><rect y="91" width="2400" height="2" fill="#ece2cb"/><rect y="99" width="2400" height="2" fill="#ece2cb"/><rect y="107" width="2400" height="2" fill="#ece2cb"/><rect y="115" width="2400" height="2" fill="#ece2cb"/><rect y="123" width="2400" height="2" fill="#ece2cb"/><rect y="131" width="2400" height="2" fill="#ece2cb"/><rect y="139" width="2400" height="2" fill="#ece2cb"/><rect y="147" width="2400" height="2" fill="#ece2cb"/><rect y="155" width="2400" height="2" fill="#ece2cb"/><rect y="163" width="2400" height="2" fill="#ece2cb"/><rect y="171" width="2400" height="2" fill="#ece2cb"/><rect y="179" width="2400" height="2" fill="#ece2cb"/><rect y="187" width="2400" height="2" fill="#ece2cb"/><rect y="195" width="2400" height="2" fill="#ece2cb"/><rect y="203" width="2400" height="2" fill="#ece2cb"/><rect y="211" width="2400" height="2" fill="#ece2cb"/><rect y="219" width="2400" height="2" fill="#ece2cb"/><rect y="227" width="2400" height="2" fill="#ece2cb"/><rect y="235" width="2400" height="2" fill="#ece2cb"/><rect y="243" width="2400" height="2" fill="#ece2cb"/><rect y="251" width="2400" height="2" fill="#ece2cb"/><rect y="259" width="2400" height="2" fill="#ece2cb"/><rect y="267" width="2400" height="2" fill="#ece2cb"/><rect y="275" width="2400" height="2" fill="#ece2cb"/><rect y="283" width="2400" height="2" fill="#ece2cb"/><rect y="291" width="2400" height="2" fill="#ece2cb"/><rect y="299" width="2400" height="2" fill="#ece2cb"/><rect y="307" width="2400" height="2" fill="#ece2cb"/><rect y="315" width="2400" height="2" fill="#ece2cb"/><rect y="323" width="2400" height="2" fill="#ece2cb"/><rect y="331" width="2400" height="2" fill="#ece2cb"/><rect y="339" width="2400" height="2" fill="#ece2cb"/><rect y="347" width="2400" height="2" fill="#ece2cb"/><rect y="355" width="2400" height="2" fill="#ece2cb"/><rect y="363" width="2400" height="2" fill="#ece2cb"/><rect y="371" width="2400" height="2" fill="#ece2cb"/><rect y="379" width="2400" height="2" fill="#ece2cb"/><rect y="387" width="2400" height="2" fill="#ece2cb"/><rect y="395" width="2400" height="2" fill="#ece2cb"/><rect y="403" width="2400" height="2" fill="#ece2cb"/><rect y="411" width="2400" height="2" fill="#ece2cb"/><rect y="419" width="2400" height="2" fill="#ece2cb"/><rect y="427" width="2400" height="2" fill="#ece2cb"/><rect y="435" width="2400" height="2" fill="#ece2cb"/><rect y="443" width="2400" height="2" fill="#ece2cb"/><rect y="451" width="2400" height="2" fill="#ece2cb"/><rect y="459" width="2400" height="2" fill="#ece2cb"/><rect y="467" width="2400" height="2" fill="#ece2cb"/><rect y="475" width="2400" height="2" fill="#ece2cb"/><rect y="483" width="2400" height="2" fill="#ece2cb"/><rect y="491" width="2400" height="2" fill="#ece2cb"/><rect y="499" width="2400" height="2" fill="#ece2cb"/><rect y="507" width="2400" height="2" fill="#ece2cb"/><rect y="515" width="2400" height="2" fill="#ece2cb"/><rect y="523" width="2400" height="2" fill="#ece2cb"/><rect y="531" width="2400" height="2" fill="#ece2cb"/><rect y="539" width="2400" height="2" fill="#ece2cb"/><rect y="547" width="2400" height="2" fill="#ece2cb"/><rect y="555" width="2400" height="2" fill="#ece2cb"/><rect y="563" width="2400" height="2" fill="#ece2cb"/><rect y="571" width="2400" height="2" fill="#ece2cb"/><rect y="579" width="2400" height="2" fill="#ece2cb"/><rect y="587" width="2400" height="2" fill="#ece2cb"/><rect y="595" width="2400" height="2" fill="#ece2cb"/><rect y="603" width="2400" height="2" fill="#ece2cb"/><rect y="611" width="2400" height="2" fill="#ece2cb"/><rect y="619" width="2400" height="2" fill="#ece2cb"/><rect y="627" width="2400" height="2" fill="#ece2cb"/><rect y="635" width="2400" height="2" fill="#ece2cb"/><rect y="643" width="2400" height="2" fill="#ece2cb"/><rect y="651" width="2400" height="2" fill="#ece2cb"/><rect y="659" width="2400" height="2" fill="#ece2cb"/><rect y="667" width="2400" height="2" fill="#ece2cb"/><rect y="675" width="2400" height="2" fill="#ece2cb"/><rect y="683" width="2400" height="2" fill="#ece2cb"/><rect y="691" width="2400" height="2" fill="#ece2cb"/><rect y="699" width="2400" height="2" fill="#ece2cb"/><rect y="707" width="2400" height="2" fill="#ece2cb"/><rect y="715" width="2400" height="2" fill="#ece2cb"/><rect y="723" width="2400" height="2" fill="#ece2cb"/><rect y="731" width="2400" height="2" fill="#ece2cb"/><rect y="739" width="2400" height="2" fill="#ece2cb"/><rect y="747" width="2400" height="2" fill="#ece2cb"/><rect y="755" width="2400" height="2" fill="#ece2cb"/><rect y="763" width="2400" height="2" fill="#ece2cb"/><rect y="771" width="2400" height="2" fill="#ece2cb"/><rect y="779" width="2400" height="2" fill="#ece2cb"/><rect y="787" width="2400" height="2" fill="#ece2cb"/><rect y="795" width="2400" height="2" fill="#ece2cb"/><rect y="803" width="2400" height="2" fill="#ece2cb"/><rect y="811" width="2400" height="2" fill="#ece2cb"/><rect y="819" width="2400" height="2" fill="#ece2cb"/><rect y="827" width="2400" height="2" fill="#ece2cb"/><rect y="835" width="2400" height="2" fill="#ece2cb"/><rect y="843" width="2400" height="2" fill="#ece2cb"/><rect y="851" width="2400" height="2" fill="#ece2cb"/><rect y="859" width="2400" height="2" fill="#ece2cb"/><rect y="867" width="2400" height="2" fill="#ece2cb"/><rect y="875" width="2400" height="2" fill="#ece2cb"/><rect y="883" width="2400" height="2" fill="#ece2cb"/><rect y="891" width="2400" height="2" fill="#ece2cb"/><rect y="899" width="2400" height="2" fill="#ece2cb"/><rect y="907" width="2400" height="2" fill="#ece2cb"/><rect y="915" width="2400" height="2" fill="#ece2cb"/><rect y="923" width="2400" height="2" fill="#ece2cb"/><rect y="931" width="2400" height="2" fill="#ece2cb"/><rect y="939" width="2400" height="2" fill="#ece2cb"/><rect y="947" width="2400" height="2" fill="#ece2cb"/><rect y="955" width="2400" height="2" fill="#ece2cb"/><rect y="963" width="2400" height="2" fill="#ece2cb"/><rect y="971" width="2400" height="2" fill="#ece2cb"/><rect y="979" width="2400" height="2" fill="#ece2cb"/><rect y="987" width="2400" height="2" fill="#ece2cb"/><rect y="995" width="2400" height="2" fill="#ece2cb"/><rect y="1003" width="2400" height="2" fill="#ece2cb"/><rect y="1011" width="2400" height="2" fill="#ece2cb"/><rect y="1019" width="2400" height="2" fill="#ece2cb"/><rect y="1027" width="2400" height="2" fill="#ece2cb"/><rect y="1035" width="2400" height="2" fill="#ece2cb"/><rect y="1043" width="2400" height="2" fill="#ece2cb"/><rect y="1051" width="2400" height="2" fill="#ece2cb"/><rect y="1059" width="2400" height="2" fill="#ece2cb"/><rect y="1067" width="2400" height="2" fill="#ece2cb"/><rect y="1075" width="2400" height="2" fill="#ece2cb"/><rect y="1083" width="2400" height="2" fill="#ece2cb"/><rect y="1091" width="2400" height="2" fill="#ece2cb"/><rect y="1099" width="2400" height="2" fill="#ece2cb"/><rect y="1107" width="2400" height="2" fill="#ece2cb"/><rect y="1115" width="2400" height="2" fill="#ece2cb"/><rect y="1123" width="2400" height="2" fill="#ece2cb"/><rect y="1131" width="2400" height="2" fill="#ece2cb"/><rect y="1139" width="2400" height="2" fill="#ece2cb"/><rect y="1147" width="2400" height="2" fill="#ece2cb"/><rect y="1155" width="2400" height="2" fill="#ece2cb"/><rect y="1163" width="2400" height="2" fill="#ece2cb"/><rect y="1171" width="2400" height="2" fill="#ece2cb"/><rect y="1179" width="2400" height="2" fill="#ece2cb"/><rect y="1187" width="2400" height="2" fill="#ece2cb"/><rect y="1195" width="2400" height="2" fill="#ece2cb"/><rect y="1203" width="2400" height="2" fill="#ece2cb"/><rect y="1211" width="2400" height="2" fill="#ece2cb"/><rect y="1219" width="2400" height="2" fill="#ece2cb"/><rect y="1227" width="2400" height="2" fill="#ece2cb"/><rect y="1235" width="2400" height="2" fill="#ece2cb"/><rect y="1243" width="2400" height="2" fill="#ece2cb"/><rect y="1251" width="2400" height="2" fill="#ece2cb"/><rect y="1259" width="2400" height="2" fill="#ece2cb"/><rect y="1267" width="2400" height="2" fill="#ece2cb"/><rect y="1275" width="2400" height="2" fill="#ece2cb"/><rect y="1283" width="2400" height="2" fill="#ece2cb"/><rect y="1291" width="2400" height="2" fill="#ece2cb"/><rect y="1299" width="2400" height="2" fill="#ece2cb"/><rect y="1307" width="2400" height="2" fill="#ece2cb"/><rect y="1315" width="2400" height="2" fill="#ece2cb"/><rect y="1323" width="2400" height="2" fill="#ece2cb"/><rect y="1331" width="2400" height="2" fill="#ece2cb"/><rect y="1339" width="2400" height="2" fill="#ece2cb"/><rect y="1347" width="2400" height="2" fill="#ece2cb"/><rect y="1355" width="2400" height="2" fill="#ece2cb"/><rect y="1363" width="2400" height="2" fill="#ece2cb"/><rect y="1371" width="2400" height="2" fill="#ece2cb"/><rect y="1379" width="2400" height="2" fill="#ece2cb"/><rect y="1387" width="2400" height="2" fill="#ece2cb"/><rect y="1395" width="2400" height="2" fill="#ece2cb"/><rect y="1403" width="2400" height="2" fill="#ece2cb"/><rect y="1411" width="2400" height="2" fill="#ece2cb"/><rect y="1419" width="2400" height="2" fill="#ece2cb"/><rect y="1427" width="2400" height="2" fill="#ece2cb"/><rect y="1435" width="2400" height="2" fill="#ece2cb"/><rect y="1443" width="2400" height="2" fill="#ece2cb"/><rect y="1451" width="2400" height="2" fill="#ece2cb"/><rect y="1459" width="2400" height="2" fill="#ece2cb"/><rect y="1467" width="2400" height="2" fill="#ece2cb"/><rect y="1475" width="2400" height="2" fill="#ece2cb"/><rect y="1483" width="2400" height="2" fill="#ece2cb"/><rect y="1491" width="2400" height="2" fill="#ece2cb"/><rect y="1499" width="2400" height="2" fill="#ece2cb"/><rect y="1507" width="2400" height="2" fill="#ece2cb"/><rect y="1515" width="2400" height="2" fill="#ece2cb"/><rect y="1523" width="2400" height="2" fill="#ece2cb"/><rect y="1531" width="2400" height="2" fill="#ece2cb"/><rect y="1539" width="2400" height="2" fill="#ece2cb"/><rect y="1547" width="2400" height="2" fill="#ece2cb"/><rect y="1555" width="2400" height="2" fill="#ece2cb"/><rect y="1563" width="2400" height="2" fill="#ece2cb"/><rect y="1571" width="2400" height="2" fill="#ece2cb"/><rect y="1579" width="2400" height="2" fill="#ece2cb"/><rect y="1587" width="2400" height="2" fill="#ece2cb"/><rect y="1595" width="2400" height="2" fill="#ece2cb"/><rect y="1603" width="2400" height="2" fill="#ece2cb"/><rect y="1611" width="2400" height="2" fill="#ece2cb"/><rect y="1619" width="2400" height="2" fill="#ece2cb"/><rect y="1627" width="2400" height="2" fill="#ece2cb"/><rect y="1635" width="2400" height="2" fill="#ece2cb"/><rect y="1643" width="2400" height="2" fill="#ece2cb"/><rect y="1651" width="2400" height="2" fill="#ece2cb"/><rect y="1659" width="2400" height="2" fill="#ece2cb"/><rect y="1667" width="2400" height="2" fill="#ece2cb"/><rect y="1675" width="2400" height="2" fill="#ece2cb"/><rect y="1683" width="2400" height="2" fill="#ece2cb"/><rect y="1691" width="2400" height="2" fill="#ece2cb"/><rect y="1699" width="2400" height="2" fill="#ece2cb"/><rect y="1707" width="2400" height="2" fill="#ece2cb"/><rect y="1715" width="2400" height="2" fill="#ece2cb"/><rect y="1723" width="2400" height="2" fill="#ece2cb"/><rect y="1731" width="2400" height="2" fill="#ece2cb"/><rect y="1739" width="2400" height="2" fill="#ece2cb"/><rect y="1747" width="2400" height="2" fill="#ece2cb"/><rect y="1755" width="2400" height="2" fill="#ece2cb"/><rect y="1763" width="2400" height="2" fill="#ece2cb"/><rect y="1771" width="2400" height="2" fill="#ece2cb"/><rect y="1779" width="2400" height="2" fill="#ece2cb"/><rect y="1787" width="2400" height="2" fill="#ece2cb"/><rect y="1795" width="2400" height="2" fill="#ece2cb"/><rect y="1803" width="2400" height="2" fill="#ece2cb"/><rect y="1811" width="2400" height="2" fill="#ece2cb"/><rect y="1819" width="2400" height="2" fill="#ece2cb"/><rect y="1827" width="2400" height="2" fill="#ece2cb"/><rect y="1835" width="2400" height="2" fill="#ece2cb"/><rect y="1843" width="2400" height="2" fill="#ece2cb"/><rect y="1851" width="2400" height="2" fill="#ece2cb"/><rect y="1859" width="2400" height="2" fill="#ece2cb"/><rect y="1867" width="2400" height="2" fill="#ece2cb"/><rect y="1875" width="2400" height="2" fill="#ece2cb"/><rect y="1883" width="2400" height="2" fill="#ece2cb"/><rect y="1891" width="2400" height="2" fill="#ece2cb"/><rect y="1899" width="2400" height="2" fill="#ece2cb"/><rect y="1907" width="2400" height="2" fill="#ece2cb"/><rect y="1915" width="2400" height="2" fill="#ece2cb"/><rect y="1923" width="2400" height="2" fill="#ece2cb"/><rect y="1931" width="2400" height="2" fill="#ece2cb"/><rect y="1939" width="2400" height="2" fill="#ece2cb"/><rect y="1947" width="2400" height="2" fill="#ece2cb"/><rect y="1955" width="2400" height="2" fill="#ece2cb"/><rect y="1963" width="2400" height="2" fill="#ece2cb"/><rect y="1971" width="2400" height="2" fill="#ece2cb"/><rect y="1979" width="2400" height="2" fill="#ece2cb"/><rect y="1987" width="2400" height="2" fill="#ece2cb"/><rect y="1995" width="2400" height="2" fill="#ece2cb"/><rect y="2003" width="2400" height="2" fill="#ece2cb"/><rect y="2011" width="2400" height="2" fill="#ece2cb"/><rect y="2019" width="2400" height="2" fill="#ece2cb"/><rect y="2027" width="2400" height="2" fill="#ece2cb"/><rect y="2035" width="2400" height="2" fill="#ece2cb"/><rect y="2043" width="2400" height="2" fill="#ece2cb"/><rect y="2051" width="2400" height="2" fill="#ece2cb"/><rect y="2059" width="2400" height="2" fill="#ece2cb"/><rect y="2067" width="2400" height="2" fill="#ece2cb"/><rect y="2075" width="2400" height="2" fill="#ece2cb"/><rect y="2083" width="2400" height="2" fill="#ece2cb"/><rect y="2091" width="2400" height="2" fill="#ece2cb"/><rect y="2099" width="2400" height="2" fill="#ece2cb"/><rect y="2107" width="2400" height="2" fill="#ece2cb"/><rect y="2115" width="2400" height="2" fill="#ece2cb"/><rect y="2123" width="2400" height="2" fill="#ece2cb"/><rect y="2131" width="2400" height="2" fill="#ece2cb"/><rect y="2139" width="2400" height="2" fill="#ece2cb"/><rect y="2147" width="2400" height="2" fill="#ece2cb"/><rect y="2155" width="2400" height="2" fill="#ece2cb"/><rect y="2163" width="2400" height="2" fill="#ece2cb"/><rect y="2171" width="2400" height="2" fill="#ece2cb"/><rect y="2179" width="2400" height="2" fill="#ece2cb"/><rect y="2187" width="2400" height="2" fill="#ece2cb"/><rect y="2195" width="2400" height="2" fill="#ece2cb"/><rect y="2203" width="2400" height="2" fill="#ece2cb"/><rect y="2211" width="2400" height="2" fill="#ece2cb"/><rect y="2219" width="2400" height="2" fill="#ece2cb"/><rect y="2227" width="2400" height="2" fill="#ece2cb"/><rect y="2235" width="2400" height="2" fill="#ece2cb"/><rect y="2243" width="2400" height="2" fill="#ece2cb"/><rect y="2251" width="2400" height="2" fill="#ece2cb"/><rect y="2259" width="2400" height="2" fill="#ece2cb"/><rect y="2267" width="2400" height="2" fill="#ece2cb"/><rect y="2275" width="2400" height="2" fill="#ece2cb"/><rect y="2283" width="2400" height="2" fill="#ece2cb"/><rect y="2291" width="2400" height="2" fill="#ece2cb"/><rect y="2299" width="2400" height="2" fill="#ece2cb"/><rect y="2307" width="2400" height="2" fill="#ece2cb"/><rect y="2315" width="2400" height="2" fill="#ece2cb"/><rect y="2323" width="2400" height="2" fill="#ece2cb"/><rect y="2331" width="2400" height="2" fill="#ece2cb"/><rect y="2339" width="2400" height="2" fill="#ece2cb"/><rect y="2347" width="2400" height="2" fill="#ece2cb"/><rect y="2355" width="2400" height="2" fill="#ece2cb"/><rect y="2363" width="2400" height="2" fill="#ece2cb"/><rect y="2371" width="2400" height="2" fill="#ece2cb"/><rect y="2379" width="2400" height="2" fill="#ece2cb"/><rect y="2387" width="2400" height="2" fill="#ece2cb"/><rect y="2395" width="2400" height="2" fill="#ece2cb"/><rect y="2403" width="2400" height="2" fill="#ece2cb"/><rect y="2411" width="2400" height="2" fill="#ece2cb"/><rect y="2419" width="2400" height="2" fill="#ece2cb"/><rect y="2427" width="2400" height="2" fill="#ece2cb"/><rect y="2435" width="2400" height="2" fill="#ece2cb"/><rect y="2443" width="2400" height="2" fill="#ece2cb"/><rect y="2451" width="2400" height="2" fill="#ece2cb"/><rect y="2459" width="2400" height="2" fill="#ece2cb"/><rect y="2467" width="2400" height="2" fill="#ece2cb"/><rect y="2475" width="2400" height="2" fill="#ece2cb"/><rect y="2483" width="2400" height="2" fill="#ece2cb"/><rect y="2491" width="2400" height="2" fill="#ece2cb"/><rect y="2499" width="2400" height="2" fill="#ece2cb"/><rect y="2507" width="2400" height="2" fill="#ece2cb"/><rect y="2515" width="2400" height="2" fill="#ece2cb"/><rect y="2523" width="2400" height="2" fill="#ece2cb"/><rect y="2531" width="2400" height="2" fill="#ece2cb"/><rect y="2539" width="2400" height="2" fill="#ece2cb"/><rect y="2547" width="2400" height="2" fill="#ece2cb"/><rect y="2555" width="2400" height="2" fill="#ece2cb"/><rect y="2563" width="2400" height="2" fill="#ece2cb"/><rect y="2571" width="2400" height="2" fill="#ece2cb"/><rect y="2579" width="2400" height="2" fill="#ece2cb"/><rect y="2587" width="2400" height="2" fill="#ece2cb"/><rect y="2595" width="2400" height="2" fill="#ece2cb"/><rect y="2603" width="2400" height="2" fill="#ece2cb"/><rect y="2611" width="2400" height="2" fill="#ece2cb"/><rect y="2619" width="2400" height="2" fill="#ece2cb"/><rect y="2627" width="2400" height="2" fill="#ece2cb"/><rect y="2635" width="2400" height="2" fill="#ece2cb"/><rect y="2643" width="2400" height="2" fill="#ece2cb"/><rect y="2651" width="2400" height="2" fill="#ece2cb"/><rect y="2659" width="2400" height="2" fill="#ece2cb"/><rect y="2667" width="2400" height="2" fill="#ece2cb"/><rect y="2675" width="2400" height="2" fill="#ece2cb"/><rect y="2683" width="2400" height="2" fill="#ece2cb"/><rect y="2691" width="2400" height="2" fill="#ece2cb"/><rect y="2699" width="2400" height="2" fill="#ece2cb"/><rect y="2707" width="2400" height="2" fill="#ece2cb"/><rect y="2715" width="2400" height="2" fill="#ece2cb"/><rect y="2723" width="2400" height="2" fill="#ece2cb"/><rect y="2731" width="2400" height="2" fill="#ece2cb"/><rect y="2739" width="2400" height="2" fill="#ece2cb"/><rect y="2747" width="2400" height="2" fill="#ece2cb"/><rect y="2755" width="2400" height="2" fill="#ece2cb"/><rect y="2763" width="2400" height="2" fill="#ece2cb"/><rect y="2771" width="2400" height="2" fill="#ece2cb"/><rect y="2779" width="2400" height="2" fill="#ece2cb"/><rect y="2787" width="2400" height="2" fill="#ece2cb"/><rect y="2795" width="2400" height="2" fill="#ece2cb"/><rect y="2803" width="2400" height="2" fill="#ece2cb"/><rect y="2811" width="2400" height="2" fill="#ece2cb"/><rect y="2819" width="2400" height="2" fill="#ece2cb"/><rect y="2827" width="2400" height="2" fill="#ece2cb"/><rect y="2835" width="2400" height="2" fill="#ece2cb"/><rect y="2843" width="2400" height="2" fill="#ece2cb"/><rect y="2851" width="2400" height="2" fill="#ece2cb"/><rect y="2859" width="2400" height="2" fill="#ece2cb"/><rect y="2867" width="2400" height="2" fill="#ece2cb"/><rect y="2875" width="2400" height="2" fill="#ece2cb"/><rect y="2883" width="2400" height="2" fill="#ece2cb"/><rect y="2891" width="2400" height="2" fill="#ece2cb"/><rect y="2899" width="2400" height="2" fill="#ece2cb"/><rect y="2907" width="2400" height="2" fill="#ece2cb"/><rect y="2915" width="2400" height="2" fill="#ece2cb"/><rect y="2923" width="2400" height="2" fill="#ece2cb"/><rect y="2931" width="2400" height="2" fill="#ece2cb"/><rect y="2939" width="2400" height="2" fill="#ece2cb"/><rect y="2947" width="2400" height="2" fill="#ece2cb"/><rect y="2955" width="2400" height="2" fill="#ece2cb"/><rect y="2963" width="2400" height="2" fill="#ece2cb"/><rect y="2971" width="2400" height="2" fill="#ece2cb"/><rect y="2979" width="2400" height="2" fill="#ece2cb"/><rect y="2987" width="2400" height="2" fill="#ece2cb"/><rect y="2995" width="2400" height="2" fill="#ece2cb"/></g><rect x="88" y="88" width="2224" height="2824" fill="none" stroke="#3a2c1a" stroke-width="4" opacity="0.2"/><rect x="94" y="94" width="2212" height="2812" fill="none" stroke="#fff6e0" stroke-width="2" opacity="0.25"/><circle cx="2144.5" cy="1814.9" r="6.8" fill="#8a5a2e" opacity="0.112"/><circle cx="1059" cy="1673.5" r="15.3" fill="#8a5a2e" opacity="0.069"/><circle cx="232" cy="1507.2" r="15.8" fill="#8a5a2e" opacity="0.056"/><circle cx="1584.2" cy="219.2" r="13.1" fill="#8a5a2e" opacity="0.078"/><circle cx="93.8" cy="2652.7" r="10.7" fill="#8a5a2e" opacity="0.051"/><circle cx="1092" cy="1867.2" r="5.7" fill="#8a5a2e" opacity="0.060"/><circle cx="1500.8" cy="552" r="11" fill="#8a5a2e" opacity="0.093"/><circle cx="721.5" cy="499" r="13.1" fill="#8a5a2e" opacity="0.079"/><circle cx="810.2" cy="187.1" r="6.4" fill="#8a5a2e" opacity="0.048"/><circle cx="932.5" cy="1495.3" r="4.2" fill="#8a5a2e" opacity="0.083"/><circle cx="257.9" cy="948.2" r="5" fill="#8a5a2e" opacity="0.108"/><circle cx="509.1" cy="110.1" r="4.9" fill="#8a5a2e" opacity="0.076"/><circle cx="1262.1" cy="1782.6" r="8.7" fill="#8a5a2e" opacity="0.059"/><circle cx="1604.4" cy="573.8" r="7.5" fill="#8a5a2e" opacity="0.055"/><circle cx="500.4" cy="1695.8" r="15.3" fill="#8a5a2e" opacity="0.041"/><circle cx="116.8" cy="987.5" r="4.2" fill="#8a5a2e" opacity="0.091"/><circle cx="1944.8" cy="792.9" r="11.8" fill="#8a5a2e" opacity="0.121"/><circle cx="246.4" cy="2514.9" r="5.6" fill="#8a5a2e" opacity="0.074"/><circle cx="373.1" cy="2469.7" r="3.4" fill="#8a5a2e" opacity="0.047"/><circle cx="1604.6" cy="1400" r="14.5" fill="#8a5a2e" opacity="0.116"/><circle cx="895.8" cy="2592.5" r="6.2" fill="#8a5a2e" opacity="0.075"/><circle cx="849" cy="667" r="15.4" fill="#8a5a2e" opacity="0.055"/><circle cx="2272.1" cy="176" r="11.3" fill="#8a5a2e" opacity="0.050"/><circle cx="773.4" cy="2365.7" r="3.2" fill="#8a5a2e" opacity="0.114"/><circle cx="1405.9" cy="2133" r="7.7" fill="#8a5a2e" opacity="0.123"/><circle cx="1630.3" cy="1564.6" r="7.8" fill="#8a5a2e" opacity="0.090"/><circle cx="1711.6" cy="1891.1" r="14.3" fill="#8a5a2e" opacity="0.096"/><circle cx="1536.8" cy="144.1" r="4.7" fill="#8a5a2e" opacity="0.050"/><circle cx="81" cy="742.5" r="11.6" fill="#8a5a2e" opacity="0.073"/><circle cx="859.8" cy="600.8" r="7.9" fill="#8a5a2e" opacity="0.108"/><rect width="2400" height="3000" fill="url(#a146-vig)"/></svg></svg>