<svg xmlns="http://www.w3.org/2000/svg" width="2400" height="1800" viewBox="0 0 2400 1800"><rect width="2400" height="1800" fill="#dfe4dc"/><rect y="1400" width="2400" height="400" fill="#c2a67e"/><line x1="60" y1="1400" x2="10" y2="1800" stroke="#00000015" stroke-width="5"/><line x1="260" y1="1400" x2="210" y2="1800" stroke="#00000015" stroke-width="5"/><line x1="460" y1="1400" x2="410" y2="1800" stroke="#00000015" stroke-width="5"/><line x1="660" y1="1400" x2="610" y2="1800" stroke="#00000015" stroke-width="5"/><line x1="860" y1="1400" x2="810" y2="1800" stroke="#00000015" stroke-width="5"/><line x1="1060" y1="1400" x2="1010" y2="1800" stroke="#00000015" stroke-width="5"/><line x1="1260" y1="1400" x2="1210" y2="1800" stroke="#00000015" stroke-width="5"/><line x1="1460" y1="1400" x2="1410" y2="1800" stroke="#00000015" stroke-width="5"/><line x1="1660" y1="1400" x2="1610" y2="1800" stroke="#00000015" stroke-width="5"/><line x1="1860" y1="1400" x2="1810" y2="1800" stroke="#00000015" stroke-width="5"/><line x1="2060" y1="1400" x2="2010" y2="1800" stroke="#00000015" stroke-width="5"/><line x1="2260" y1="1400" x2="2210" y2="1800" stroke="#00000015" stroke-width="5"/><rect x="180" y="260" width="900" height="620" fill="#8a6a48"/><rect x="215" y="295" width="830" height="550" fill="#41524a"/><line x1="280" y1="420" x2="760" y2="420" stroke="#ffffff66" stroke-width="9" stroke-linecap="round"/><line x1="280" y1="520" x2="620" y2="520" stroke="#ffffff44" stroke-width="9" stroke-linecap="round"/><circle cx="880" cy="560" r="90" fill="none" stroke="#ffffff55" stroke-width="8"/><rect x="215" y="845" width="830" height="22" fill="#6f5436"/><rect x="330" y="1240" width="640" height="60" rx="10" fill="#9c7449"/><rect x="370" y="1300" width="60" height="240" fill="#8a6540"/><rect x="870" y="1300" width="60" height="240" fill="#8a6540"/><rect x="430" y="1160" width="150" height="80" rx="8" fill="#c9b98e"/><rect x="450" y="1120" width="150" height="40" rx="8" fill="#b3502f"/><circle cx="800" cy="1130" r="86" fill="#7fa3b8"/><path d="M760,1060 Q820,1100 780,1190 M740,1090 Q800,1120 850,1100" stroke="#5d8069" stroke-width="16" fill="none" stroke-linecap="round"/><circle cx="800" cy="1130" r="86" fill="none" stroke="#6b5233" stroke-width="7"/><line x1="800" y1="1216" x2="800" y2="1250" stroke="#6b5233" stroke-width="10"/><rect x="750" y="1244" width="100" height="14" rx="7" fill="#6b5233"/><rect x="1980" y="700" width="300" height="800" fill="#9c7449"/><rect x="2000" y="930" width="260" height="16" fill="#7c5a37"/><rect x="2020" y="790" width="36" height="140" fill="#b3502f"/><rect x="2066" y="802" width="36" height="128" fill="#39685c"/><rect x="2112" y="790" width="36" height="140" fill="#c9a227"/><rect x="2158" y="802" width="36" height="128" fill="#2c4661"/><rect x="2204" y="790" width="36" height="140" fill="#8a4423"/><rect x="2000" y="1180" width="260" height="16" fill="#7c5a37"/><rect x="2020" y="1040" width="36" height="140" fill="#39685c"/><rect x="2066" y="1052" width="36" height="128" fill="#c9a227"/><rect x="2112" y="1040" width="36" height="140" fill="#2c4661"/><rect x="2158" y="1052" width="36" height="128" fill="#8a4423"/><rect x="2204" y="1040" width="36" height="140" fill="#b3502f"/><rect x="2000" y="1430" width="260" height="16" fill="#7c5a37"/><rect x="2020" y="1290" width="36" height="140" fill="#c9a227"/><rect x="2066" y="1302" width="36" height="128" fill="#2c4661"/><rect x="2112" y="1290" width="36" height="140" fill="#8a4423"/><rect x="2158" y="1302" width="36" height="128" fill="#b3502f"/><rect x="2204" y="1290" width="36" height="140" fill="#39685c"/><defs><filter id="a119c-sh" x="-30%" y="-30%" width="160%" height="160%"><feGaussianBlur stdDeviation="16"/></filter></defs><rect x="1340.5" y="298.5" width="517" height="635" fill="#000" opacity="0.28" filter="url(#a119c-sh)"/><rect x="1326.5" y="276.5" width="517" height="635" fill="#3d342a"/><rect x="1341.8" y="291.8" width="486.4" height="604.5" fill="none" stroke="#00000055" stroke-width="3"/><rect x="1350" y="300" width="470" height="588" fill="#f6f2ea"/><svg x="1385.3" y="335.3" width="399.5" height="517.5" viewBox="0 0 2400 3000" preserveAspectRatio="xMidYMid slice"><rect width="2400" height="3000" fill="#2c4661"/><radialGradient id="a119-vig" cx="50%" cy="42%" r="80%"><stop offset="55%" stop-color="#000" stop-opacity="0"/><stop offset="100%" stop-color="#000" stop-opacity="0.15"/></radialGradient><rect width="2400" height="3000" fill="url(#a119-vig)"/><circle cx="357" cy="680.3" r="1.5" fill="#e9dcbc" opacity="0.072"/><circle cx="885.2" cy="1004" r="2.7" fill="#e9dcbc" opacity="0.052"/><circle cx="1690.8" cy="1682" r="2.3" fill="#e9dcbc" opacity="0.044"/><circle cx="1110.4" cy="1719.3" r="2.9" fill="#e9dcbc" opacity="0.080"/><circle cx="119.8" cy="2266.3" r="2.1" fill="#e9dcbc" opacity="0.032"/><circle cx="1667.7" cy="446.7" r="2" fill="#e9dcbc" opacity="0.052"/><circle cx="184.8" cy="2121.3" r="4.3" fill="#e9dcbc" opacity="0.072"/><circle cx="875.9" cy="79.5" r="3.4" fill="#e9dcbc" opacity="0.064"/><circle cx="545.5" cy="1813" r="4.5" fill="#e9dcbc" opacity="0.034"/><circle cx="1744.6" cy="1455.1" r="3.1" fill="#e9dcbc" opacity="0.034"/><circle cx="2222" cy="2891.5" r="3.9" fill="#e9dcbc" opacity="0.068"/><circle cx="1489.6" cy="2235.7" r="2.3" fill="#e9dcbc" opacity="0.048"/><circle cx="1845.3" cy="2246.9" r="3.3" fill="#e9dcbc" opacity="0.057"/><circle cx="1297.8" cy="1859.5" r="3.6" fill="#e9dcbc" opacity="0.069"/><circle cx="879.8" cy="106" r="2.1" fill="#e9dcbc" opacity="0.064"/><circle cx="1361.1" cy="1033.5" r="4" fill="#e9dcbc" opacity="0.075"/><circle cx="1516.7" cy="689.9" r="3.9" fill="#e9dcbc" opacity="0.040"/><circle cx="1660.1" cy="1251.5" r="3.7" fill="#e9dcbc" opacity="0.041"/><circle cx="1412.5" cy="363.5" r="4.1" fill="#e9dcbc" opacity="0.069"/><circle cx="1696.1" cy="1124.1" r="2.7" fill="#e9dcbc" opacity="0.042"/><circle cx="1217.1" cy="2055.1" r="3.1" fill="#e9dcbc" opacity="0.034"/><circle cx="84.1" cy="2394.4" r="4.2" fill="#e9dcbc" opacity="0.066"/><circle cx="692.8" cy="198.3" r="1.8" fill="#e9dcbc" opacity="0.052"/><circle cx="2328.9" cy="215.3" r="4.3" fill="#e9dcbc" opacity="0.039"/><circle cx="1807.5" cy="353.6" r="3.5" fill="#e9dcbc" opacity="0.035"/><circle cx="1157.8" cy="1749.3" r="2.6" fill="#e9dcbc" opacity="0.077"/><circle cx="2250.3" cy="2861.8" r="3.6" fill="#e9dcbc" opacity="0.049"/><circle cx="882.1" cy="1010.1" r="2" fill="#e9dcbc" opacity="0.073"/><circle cx="598.8" cy="1445.9" r="4.3" fill="#e9dcbc" opacity="0.052"/><circle cx="814.8" cy="1941.6" r="1.5" fill="#e9dcbc" opacity="0.077"/><circle cx="1751.6" cy="1041.9" r="3.8" fill="#e9dcbc" opacity="0.040"/><circle cx="2325.7" cy="2628.4" r="3.9" fill="#e9dcbc" opacity="0.069"/><circle cx="593.5" cy="1187.3" r="2" fill="#e9dcbc" opacity="0.059"/><circle cx="482.4" cy="1349.2" r="4.5" fill="#e9dcbc" opacity="0.078"/><circle cx="1692.6" cy="186.2" r="4.2" fill="#e9dcbc" opacity="0.033"/><circle cx="1757" cy="1015" r="2.5" fill="#e9dcbc" opacity="0.045"/><circle cx="2172.2" cy="1949.2" r="2.1" fill="#e9dcbc" opacity="0.049"/><circle cx="1123.4" cy="1140.9" r="2.9" fill="#e9dcbc" opacity="0.070"/><circle cx="2034.7" cy="1108.5" r="2.3" fill="#e9dcbc" opacity="0.040"/><circle cx="276" cy="2464.1" r="1.9" fill="#e9dcbc" opacity="0.073"/><circle cx="1119.3" cy="2615.9" r="4.1" fill="#e9dcbc" opacity="0.039"/><circle cx="1266" cy="2028.7" r="3.3" fill="#e9dcbc" opacity="0.035"/><circle cx="968" cy="2741.5" r="2.7" fill="#e9dcbc" opacity="0.071"/><circle cx="1230.9" cy="497.8" r="2" fill="#e9dcbc" opacity="0.037"/><circle cx="1664.4" cy="687.9" r="2.6" fill="#e9dcbc" opacity="0.068"/><circle cx="1299.1" cy="2308.3" r="3.5" fill="#e9dcbc" opacity="0.070"/><circle cx="992.3" cy="170.4" r="3.4" fill="#e9dcbc" opacity="0.077"/><circle cx="550.9" cy="778.5" r="2.8" fill="#e9dcbc" opacity="0.049"/><circle cx="578" cy="2114" r="1.7" fill="#e9dcbc" opacity="0.057"/><circle cx="440.8" cy="1217.3" r="2.6" fill="#e9dcbc" opacity="0.073"/><circle cx="1133.1" cy="2123" r="2.6" fill="#e9dcbc" opacity="0.049"/><circle cx="1473.8" cy="1044.8" r="3.1" fill="#e9dcbc" opacity="0.037"/><circle cx="1580.6" cy="2024" r="2" fill="#e9dcbc" opacity="0.038"/><circle cx="614.4" cy="2636.7" r="3.6" fill="#e9dcbc" opacity="0.047"/><circle cx="2205.8" cy="2598.5" r="2.4" fill="#e9dcbc" opacity="0.075"/><circle cx="1537.7" cy="1374.4" r="2.1" fill="#e9dcbc" opacity="0.039"/><circle cx="1673.7" cy="394.3" r="2.2" fill="#e9dcbc" opacity="0.046"/><circle cx="614.4" cy="428.5" r="3.6" fill="#e9dcbc" opacity="0.039"/><circle cx="2204" cy="2216.6" r="2.6" fill="#e9dcbc" opacity="0.060"/><circle cx="1099.6" cy="133.5" r="3.9" fill="#e9dcbc" opacity="0.076"/><circle cx="128.1" cy="2156.1" r="2.2" fill="#e9dcbc" opacity="0.032"/><circle cx="52.9" cy="393.7" r="1.7" fill="#e9dcbc" opacity="0.034"/><circle cx="155" cy="2248.1" r="3.7" fill="#e9dcbc" opacity="0.055"/><circle cx="2197.4" cy="1192.6" r="2.6" fill="#e9dcbc" opacity="0.044"/><circle cx="618.4" cy="2234.9" r="1.5" fill="#e9dcbc" opacity="0.050"/><circle cx="671.5" cy="1950.3" r="3" fill="#e9dcbc" opacity="0.039"/><circle cx="2098.4" cy="1375.4" r="2.3" fill="#e9dcbc" opacity="0.073"/><circle cx="850.1" cy="811.3" r="3" fill="#e9dcbc" opacity="0.057"/><circle cx="1683.4" cy="2177" r="2" fill="#e9dcbc" opacity="0.069"/><circle cx="1966.9" cy="2538.1" r="4.4" fill="#e9dcbc" opacity="0.052"/><circle cx="1191.7" cy="2231.2" r="2" fill="#e9dcbc" opacity="0.056"/><circle cx="443.1" cy="2873.3" r="2" fill="#e9dcbc" opacity="0.055"/><circle cx="855.3" cy="55.9" r="3.6" fill="#e9dcbc" opacity="0.080"/><circle cx="717.9" cy="2771" r="3.5" fill="#e9dcbc" opacity="0.040"/><circle cx="1094.4" cy="854.2" r="4.3" fill="#e9dcbc" opacity="0.035"/><circle cx="595.6" cy="2270.3" r="3" fill="#e9dcbc" opacity="0.071"/><circle cx="254.5" cy="2545.4" r="2.8" fill="#e9dcbc" opacity="0.038"/><circle cx="565.7" cy="2264.4" r="1.9" fill="#e9dcbc" opacity="0.037"/><circle cx="172.4" cy="1469.2" r="1.6" fill="#e9dcbc" opacity="0.040"/><circle cx="1468.6" cy="1018.6" r="1.9" fill="#e9dcbc" opacity="0.056"/><circle cx="1200" cy="1400" r="1010" fill="none" stroke="#e9dcbc" stroke-width="10"/><circle cx="1200" cy="1400" r="964" fill="none" stroke="#e9dcbc" stroke-width="4" opacity="0.7"/><line x1="2170" y1="1400" x2="2210" y2="1400" stroke="#e9dcbc" stroke-width="10"/><line x1="2182.2" y1="1485.9" x2="2206.2" y2="1488" stroke="#e9dcbc" stroke-width="5"/><line x1="2171" y1="1571.2" x2="2194.7" y2="1575.4" stroke="#e9dcbc" stroke-width="5"/><line x1="2152.4" y1="1655.2" x2="2175.6" y2="1661.4" stroke="#e9dcbc" stroke-width="5"/><line x1="2126.5" y1="1737.2" x2="2149.1" y2="1745.4" stroke="#e9dcbc" stroke-width="5"/><line x1="2093.6" y1="1816.7" x2="2115.4" y2="1826.8" stroke="#e9dcbc" stroke-width="5"/><line x1="2040" y1="1885" x2="2074.7" y2="1905" stroke="#e9dcbc" stroke-width="10"/><line x1="2007.7" y1="1965.5" x2="2027.3" y2="1979.3" stroke="#e9dcbc" stroke-width="5"/><line x1="1955.3" y1="2033.8" x2="1973.7" y2="2049.2" stroke="#e9dcbc" stroke-width="5"/><line x1="1897.2" y1="2097.2" x2="1914.2" y2="2114.2" stroke="#e9dcbc" stroke-width="5"/><line x1="1833.8" y1="2155.3" x2="1849.2" y2="2173.7" stroke="#e9dcbc" stroke-width="5"/><line x1="1765.5" y1="2207.7" x2="1779.3" y2="2227.3" stroke="#e9dcbc" stroke-width="5"/><line x1="1685" y1="2240" x2="1705" y2="2274.7" stroke="#e9dcbc" stroke-width="10"/><line x1="1616.7" y1="2293.6" x2="1626.8" y2="2315.4" stroke="#e9dcbc" stroke-width="5"/><line x1="1537.2" y1="2326.5" x2="1545.4" y2="2349.1" stroke="#e9dcbc" stroke-width="5"/><line x1="1455.2" y1="2352.4" x2="1461.4" y2="2375.6" stroke="#e9dcbc" stroke-width="5"/><line x1="1371.2" y1="2371" x2="1375.4" y2="2394.7" stroke="#e9dcbc" stroke-width="5"/><line x1="1285.9" y1="2382.2" x2="1288" y2="2406.2" stroke="#e9dcbc" stroke-width="5"/><line x1="1200" y1="2370" x2="1200" y2="2410" stroke="#e9dcbc" stroke-width="10"/><line x1="1114.1" y1="2382.2" x2="1112" y2="2406.2" stroke="#e9dcbc" stroke-width="5"/><line x1="1028.8" y1="2371" x2="1024.6" y2="2394.7" stroke="#e9dcbc" stroke-width="5"/><line x1="944.8" y1="2352.4" x2="938.6" y2="2375.6" stroke="#e9dcbc" stroke-width="5"/><line x1="862.8" y1="2326.5" x2="854.6" y2="2349.1" stroke="#e9dcbc" stroke-width="5"/><line x1="783.3" y1="2293.6" x2="773.2" y2="2315.4" stroke="#e9dcbc" stroke-width="5"/><line x1="715" y1="2240" x2="695" y2="2274.7" stroke="#e9dcbc" stroke-width="10"/><line x1="634.5" y1="2207.7" x2="620.7" y2="2227.3" stroke="#e9dcbc" stroke-width="5"/><line x1="566.2" y1="2155.3" x2="550.8" y2="2173.7" stroke="#e9dcbc" stroke-width="5"/><line x1="502.8" y1="2097.2" x2="485.8" y2="2114.2" stroke="#e9dcbc" stroke-width="5"/><line x1="444.7" y1="2033.8" x2="426.3" y2="2049.2" stroke="#e9dcbc" stroke-width="5"/><line x1="392.3" y1="1965.5" x2="372.7" y2="1979.3" stroke="#e9dcbc" stroke-width="5"/><line x1="360" y1="1885" x2="325.3" y2="1905" stroke="#e9dcbc" stroke-width="10"/><line x1="306.4" y1="1816.7" x2="284.6" y2="1826.8" stroke="#e9dcbc" stroke-width="5"/><line x1="273.5" y1="1737.2" x2="250.9" y2="1745.4" stroke="#e9dcbc" stroke-width="5"/><line x1="247.6" y1="1655.2" x2="224.4" y2="1661.4" stroke="#e9dcbc" stroke-width="5"/><line x1="229" y1="1571.2" x2="205.3" y2="1575.4" stroke="#e9dcbc" stroke-width="5"/><line x1="217.8" y1="1485.9" x2="193.8" y2="1488" stroke="#e9dcbc" stroke-width="5"/><line x1="230" y1="1400" x2="190" y2="1400" stroke="#e9dcbc" stroke-width="10"/><line x1="217.8" y1="1314.1" x2="193.8" y2="1312" stroke="#e9dcbc" stroke-width="5"/><line x1="229" y1="1228.8" x2="205.3" y2="1224.6" stroke="#e9dcbc" stroke-width="5"/><line x1="247.6" y1="1144.8" x2="224.4" y2="1138.6" stroke="#e9dcbc" stroke-width="5"/><line x1="273.5" y1="1062.8" x2="250.9" y2="1054.6" stroke="#e9dcbc" stroke-width="5"/><line x1="306.4" y1="983.3" x2="284.6" y2="973.2" stroke="#e9dcbc" stroke-width="5"/><line x1="360" y1="915" x2="325.3" y2="895" stroke="#e9dcbc" stroke-width="10"/><line x1="392.3" y1="834.5" x2="372.7" y2="820.7" stroke="#e9dcbc" stroke-width="5"/><line x1="444.7" y1="766.2" x2="426.3" y2="750.8" stroke="#e9dcbc" stroke-width="5"/><line x1="502.8" y1="702.8" x2="485.8" y2="685.8" stroke="#e9dcbc" stroke-width="5"/><line x1="566.2" y1="644.7" x2="550.8" y2="626.3" stroke="#e9dcbc" stroke-width="5"/><line x1="634.5" y1="592.3" x2="620.7" y2="572.7" stroke="#e9dcbc" stroke-width="5"/><line x1="715" y1="560" x2="695" y2="525.3" stroke="#e9dcbc" stroke-width="10"/><line x1="783.3" y1="506.4" x2="773.2" y2="484.6" stroke="#e9dcbc" stroke-width="5"/><line x1="862.8" y1="473.5" x2="854.6" y2="450.9" stroke="#e9dcbc" stroke-width="5"/><line x1="944.8" y1="447.6" x2="938.6" y2="424.4" stroke="#e9dcbc" stroke-width="5"/><line x1="1028.8" y1="429" x2="1024.6" y2="405.3" stroke="#e9dcbc" stroke-width="5"/><line x1="1114.1" y1="417.8" x2="1112" y2="393.8" stroke="#e9dcbc" stroke-width="5"/><line x1="1200" y1="430" x2="1200" y2="390" stroke="#e9dcbc" stroke-width="10"/><line x1="1285.9" y1="417.8" x2="1288" y2="393.8" stroke="#e9dcbc" stroke-width="5"/><line x1="1371.2" y1="429" x2="1375.4" y2="405.3" stroke="#e9dcbc" stroke-width="5"/><line x1="1455.2" y1="447.6" x2="1461.4" y2="424.4" stroke="#e9dcbc" stroke-width="5"/><line x1="1537.2" y1="473.5" x2="1545.4" y2="450.9" stroke="#e9dcbc" stroke-width="5"/><line x1="1616.7" y1="506.4" x2="1626.8" y2="484.6" stroke="#e9dcbc" stroke-width="5"/><line x1="1685" y1="560" x2="1705" y2="525.3" stroke="#e9dcbc" stroke-width="10"/><line x1="1765.5" y1="592.3" x2="1779.3" y2="572.7" stroke="#e9dcbc" stroke-width="5"/><line x1="1833.8" y1="644.7" x2="1849.2" y2="626.3" stroke="#e9dcbc" stroke-width="5"/><line x1="1897.2" y1="702.8" x2="1914.2" y2="685.8" stroke="#e9dcbc" stroke-width="5"/><line x1="1955.3" y1="766.2" x2="1973.7" y2="750.8" stroke="#e9dcbc" stroke-width="5"/><line x1="2007.7" y1="834.5" x2="2027.3" y2="820.7" stroke="#e9dcbc" stroke-width="5"/><line x1="2040" y1="915" x2="2074.7" y2="895" stroke="#e9dcbc" stroke-width="10"/><line x1="2093.6" y1="983.3" x2="2115.4" y2="973.2" stroke="#e9dcbc" stroke-width="5"/><line x1="2126.5" y1="1062.8" x2="2149.1" y2="1054.6" stroke="#e9dcbc" stroke-width="5"/><line x1="2152.4" y1="1144.8" x2="2175.6" y2="1138.6" stroke="#e9dcbc" stroke-width="5"/><line x1="2171" y1="1228.8" x2="2194.7" y2="1224.6" stroke="#e9dcbc" stroke-width="5"/><line x1="2182.2" y1="1314.1" x2="2206.2" y2="1312" stroke="#e9dcbc" stroke-width="5"/><circle cx="1200" cy="1400" r="280" fill="none" stroke="#e9dcbc" stroke-width="3" opacity="0.28" stroke-dasharray="3 26"/><circle cx="1200" cy="1400" r="530" fill="none" stroke="#e9dcbc" stroke-width="3" opacity="0.28" stroke-dasharray="3 26"/><circle cx="1200" cy="1400" r="780" fill="none" stroke="#e9dcbc" stroke-width="3" opacity="0.28" stroke-dasharray="3 26"/><circle cx="976.5" cy="2030.9" r="7.6" fill="#e9dcbc" opacity="0.55"/><circle cx="1433.4" cy="738.7" r="3.9" fill="#e9dcbc" opacity="0.84"/><circle cx="721.6" cy="833.7" r="6" fill="#e9dcbc" opacity="0.92"/><circle cx="836.8" cy="898.1" r="5" fill="#e9dcbc" opacity="0.56"/><circle cx="877.3" cy="1910" r="7" fill="#e9dcbc" opacity="0.56"/><circle cx="1771.4" cy="1513.9" r="3.2" fill="#e9dcbc" opacity="0.86"/><circle cx="681.9" cy="1500.2" r="5.3" fill="#e9dcbc" opacity="0.94"/><circle cx="1308" cy="2002.3" r="3.4" fill="#e9dcbc" opacity="0.84"/><circle cx="1607.8" cy="1315.5" r="5.2" fill="#e9dcbc" opacity="0.75"/><circle cx="353.2" cy="1203.6" r="4.4" fill="#e9dcbc" opacity="0.57"/><circle cx="1779.4" cy="1156.1" r="4.7" fill="#e9dcbc" opacity="0.89"/><circle cx="1698.6" cy="1716.1" r="3.9" fill="#e9dcbc" opacity="0.86"/><circle cx="673.1" cy="1023.2" r="5" fill="#e9dcbc" opacity="0.62"/><circle cx="952.8" cy="2162.2" r="3.8" fill="#e9dcbc" opacity="0.75"/><circle cx="1450.2" cy="604.3" r="7.2" fill="#e9dcbc" opacity="0.74"/><circle cx="1390.4" cy="716.4" r="3.7" fill="#e9dcbc" opacity="0.45"/><circle cx="1305.2" cy="1515.1" r="7.4" fill="#e9dcbc" opacity="0.54"/><circle cx="1381.1" cy="1759.5" r="4.5" fill="#e9dcbc" opacity="0.82"/><circle cx="1924.7" cy="1578" r="6" fill="#e9dcbc" opacity="0.73"/><circle cx="1776.8" cy="1679.9" r="7.1" fill="#e9dcbc" opacity="0.98"/><circle cx="1937" cy="1514.5" r="5.1" fill="#e9dcbc" opacity="0.77"/><circle cx="781" cy="1193.3" r="3.8" fill="#e9dcbc" opacity="0.91"/><circle cx="664.2" cy="2042.7" r="6.4" fill="#e9dcbc" opacity="0.93"/><circle cx="1850.2" cy="1973.6" r="4.6" fill="#e9dcbc" opacity="0.64"/><circle cx="867.6" cy="949.5" r="7.6" fill="#e9dcbc" opacity="0.71"/><circle cx="2027" cy="1310.2" r="6.1" fill="#e9dcbc" opacity="0.87"/><circle cx="1227.7" cy="1375.1" r="3.5" fill="#e9dcbc" opacity="0.95"/><circle cx="1320.5" cy="1604.7" r="4.7" fill="#e9dcbc" opacity="0.66"/><circle cx="1862" cy="1237.6" r="5.9" fill="#e9dcbc" opacity="0.57"/><circle cx="1624.9" cy="1481.9" r="5.4" fill="#e9dcbc" opacity="0.68"/><circle cx="1085.7" cy="1091.4" r="3.3" fill="#e9dcbc" opacity="0.56"/><circle cx="1046" cy="1874.8" r="6.8" fill="#e9dcbc" opacity="0.73"/><circle cx="1478.7" cy="1358.2" r="4.1" fill="#e9dcbc" opacity="0.48"/><circle cx="2072.8" cy="1267.7" r="6.4" fill="#e9dcbc" opacity="0.72"/><circle cx="1696" cy="648.8" r="3.3" fill="#e9dcbc" opacity="0.56"/><circle cx="832.8" cy="819.7" r="4.5" fill="#e9dcbc" opacity="0.64"/><circle cx="1746" cy="2047.4" r="5.2" fill="#e9dcbc" opacity="0.60"/><circle cx="1117.7" cy="1052.5" r="6.1" fill="#e9dcbc" opacity="0.51"/><circle cx="1472.2" cy="2056.4" r="6.4" fill="#e9dcbc" opacity="0.75"/><circle cx="826.8" cy="1829.4" r="4" fill="#e9dcbc" opacity="0.66"/><circle cx="1678.5" cy="2020.8" r="5.1" fill="#e9dcbc" opacity="0.83"/><circle cx="1407.4" cy="653.1" r="5.1" fill="#e9dcbc" opacity="0.98"/><circle cx="887.9" cy="1767.2" r="7.1" fill="#e9dcbc" opacity="0.56"/><circle cx="1006.7" cy="1159" r="3.5" fill="#e9dcbc" opacity="0.87"/><circle cx="696.4" cy="694" r="5.8" fill="#e9dcbc" opacity="0.62"/><circle cx="774.6" cy="1420.2" r="4" fill="#e9dcbc" opacity="0.66"/><circle cx="992.9" cy="2130.1" r="7.2" fill="#e9dcbc" opacity="0.70"/><circle cx="783.4" cy="773.3" r="4.2" fill="#e9dcbc" opacity="0.60"/><circle cx="1052.7" cy="1512.7" r="6" fill="#e9dcbc" opacity="0.93"/><circle cx="779" cy="658.6" r="3.4" fill="#e9dcbc" opacity="0.53"/><circle cx="1043.2" cy="1290.7" r="3.7" fill="#e9dcbc" opacity="0.70"/><circle cx="557.8" cy="823.9" r="5.7" fill="#e9dcbc" opacity="0.86"/><circle cx="1439" cy="1983.5" r="5.5" fill="#e9dcbc" opacity="0.56"/><circle cx="341.8" cy="1110.3" r="3.2" fill="#e9dcbc" opacity="0.79"/><circle cx="1451.4" cy="804.6" r="4.8" fill="#e9dcbc" opacity="0.74"/><circle cx="1272.9" cy="2178.4" r="3.8" fill="#e9dcbc" opacity="0.95"/><circle cx="816.3" cy="1975.9" r="5.1" fill="#e9dcbc" opacity="0.84"/><circle cx="1633.5" cy="2105.1" r="7.1" fill="#e9dcbc" opacity="0.80"/><circle cx="1390.8" cy="2031.1" r="5.3" fill="#e9dcbc" opacity="0.55"/><circle cx="979.4" cy="1821" r="3.2" fill="#e9dcbc" opacity="0.53"/><circle cx="479.6" cy="1782.5" r="5.4" fill="#e9dcbc" opacity="0.61"/><circle cx="737.5" cy="895.6" r="5.1" fill="#e9dcbc" opacity="0.69"/><path d="M1176.2,1538.1 Q1226.1,1529.1 1276,1538.1 Q1226.1,1547 1176.2,1538.1 Z M1226.1,1488.2 Q1235,1538.1 1226.1,1587.9 Q1217.1,1538.1 1226.1,1488.2 Z" fill="#e9dcbc"/><path d="M1722.2,1566.8 Q1768.6,1558.4 1815.1,1566.8 Q1768.6,1575.2 1722.2,1566.8 Z M1768.6,1520.3 Q1777,1566.8 1768.6,1613.2 Q1760.3,1566.8 1768.6,1520.3 Z" fill="#e9dcbc"/><path d="M655,1994.4 Q716,1983.4 777.1,1994.4 Q716,2005.3 655,1994.4 Z M716,1933.3 Q727,1994.4 716,2055.4 Q705.1,1994.4 716,1933.3 Z" fill="#e9dcbc"/><path d="M1521.9,1753.9 Q1570.7,1745.1 1619.5,1753.9 Q1570.7,1762.7 1521.9,1753.9 Z M1570.7,1705.1 Q1579.5,1753.9 1570.7,1802.7 Q1561.9,1753.9 1570.7,1705.1 Z" fill="#e9dcbc"/><path d="M912.8,1016.5 Q960.5,1008 1008.1,1016.5 Q960.5,1025.1 912.8,1016.5 Z M960.5,968.9 Q969.1,1016.5 960.5,1064.2 Q951.9,1016.5 960.5,968.9 Z" fill="#e9dcbc"/><path d="M1690.4,932 Q1735.8,923.9 1781.2,932 Q1735.8,940.2 1690.4,932 Z M1735.8,886.6 Q1744,932 1735.8,977.4 Q1727.6,932 1735.8,886.6 Z" fill="#e9dcbc"/><polyline points="1409.6,1611.2 1235.6,1687.5 1081.2,1713.2 959.4,1783.4 1030.5,1959.7 " fill="none" stroke="#e9dcbc" stroke-width="4" opacity="0.55"/><circle cx="1409.6" cy="1611.2" r="12" fill="#e9dcbc"/><circle cx="1235.6" cy="1687.5" r="9.7" fill="#e9dcbc"/><circle cx="1081.2" cy="1713.2" r="8.2" fill="#e9dcbc"/><circle cx="959.4" cy="1783.4" r="11.3" fill="#e9dcbc"/><circle cx="1030.5" cy="1959.7" r="13.7" fill="#e9dcbc"/><polyline points="1103.2,986.7 1314.9,916.9 1370.4,939.5 1409.9,912.3 1378.7,846.1 1282.4,953.6 " fill="none" stroke="#e9dcbc" stroke-width="4" opacity="0.55"/><circle cx="1103.2" cy="986.7" r="12" fill="#e9dcbc"/><circle cx="1314.9" cy="916.9" r="11.8" fill="#e9dcbc"/><circle cx="1370.4" cy="939.5" r="11.6" fill="#e9dcbc"/><circle cx="1409.9" cy="912.3" r="9.9" fill="#e9dcbc"/><circle cx="1378.7" cy="846.1" r="8.3" fill="#e9dcbc"/><circle cx="1282.4" cy="953.6" r="12.5" fill="#e9dcbc"/><circle cx="1598.6" cy="899.3" r="88" fill="#e9dcbc"/><circle cx="1635.5" cy="883.4" r="77.4" fill="#2c4661"/><path d="M370.1,2819.9 L 433.9,2819.9 L 433.9,2756.1 L 383.8,2756.1 L 383.8,2795.6 L 409.6,2795.6 L 409.6,2775.8 M446.1,2819.9 L 509.9,2819.9 L 509.9,2756.1 L 459.8,2756.1 L 459.8,2795.6 L 485.6,2795.6 L 485.6,2775.8 M522.1,2819.9 L 585.9,2819.9 L 585.9,2756.1 L 535.8,2756.1 L 535.8,2795.6 L 561.6,2795.6 L 561.6,2775.8 M598.1,2819.9 L 661.9,2819.9 L 661.9,2756.1 L 611.8,2756.1 L 611.8,2795.6 L 637.6,2795.6 L 637.6,2775.8 M674.1,2819.9 L 737.9,2819.9 L 737.9,2756.1 L 687.8,2756.1 L 687.8,2795.6 L 713.6,2795.6 L 713.6,2775.8 M750.1,2819.9 L 813.9,2819.9 L 813.9,2756.1 L 763.8,2756.1 L 763.8,2795.6 L 789.6,2795.6 L 789.6,2775.8 M826.1,2819.9 L 889.9,2819.9 L 889.9,2756.1 L 839.8,2756.1 L 839.8,2795.6 L 865.6,2795.6 L 865.6,2775.8 M902.1,2819.9 L 965.9,2819.9 L 965.9,2756.1 L 915.8,2756.1 L 915.8,2795.6 L 941.6,2795.6 L 941.6,2775.8 M978.1,2819.9 L 1041.9,2819.9 L 1041.9,2756.1 L 991.8,2756.1 L 991.8,2795.6 L 1017.6,2795.6 L 1017.6,2775.8 M1054.1,2819.9 L 1117.9,2819.9 L 1117.9,2756.1 L 1067.8,2756.1 L 1067.8,2795.6 L 1093.6,2795.6 L 1093.6,2775.8 M1130.1,2819.9 L 1193.9,2819.9 L 1193.9,2756.1 L 1143.8,2756.1 L 1143.8,2795.6 L 1169.6,2795.6 L 1169.6,2775.8 M1206.1,2819.9 L 1269.9,2819.9 L 1269.9,2756.1 L 1219.8,2756.1 L 1219.8,2795.6 L 1245.6,2795.6 L 1245.6,2775.8 M1282.1,2819.9 L 1345.9,2819.9 L 1345.9,2756.1 L 1295.8,2756.1 L 1295.8,2795.6 L 1321.6,2795.6 L 1321.6,2775.8 M1358.1,2819.9 L 1421.9,2819.9 L 1421.9,2756.1 L 1371.8,2756.1 L 1371.8,2795.6 L 1397.6,2795.6 L 1397.6,2775.8 M1434.1,2819.9 L 1497.9,2819.9 L 1497.9,2756.1 L 1447.8,2756.1 L 1447.8,2795.6 L 1473.6,2795.6 L 1473.6,2775.8 M1510.1,2819.9 L 1573.9,2819.9 L 1573.9,2756.1 L 1523.8,2756.1 L 1523.8,2795.6 L 1549.6,2795.6 L 1549.6,2775.8 M1586.1,2819.9 L 1649.9,2819.9 L 1649.9,2756.1 L 1599.8,2756.1 L 1599.8,2795.6 L 1625.6,2795.6 L 1625.6,2775.8 M1662.1,2819.9 L 1725.9,2819.9 L 1725.9,2756.1 L 1675.8,2756.1 L 1675.8,2795.6 L 1701.6,2795.6 L 1701.6,2775.8 M1738.1,2819.9 L 1801.9,2819.9 L 1801.9,2756.1 L 1751.8,2756.1 L 1751.8,2795.6 L 1777.6,2795.6 L 1777.6,2775.8 M1814.1,2819.9 L 1877.9,2819.9 L 1877.9,2756.1 L 1827.8,2756.1 L 1827.8,2795.6 L 1853.6,2795.6 L 1853.6,2775.8 M1890.1,2819.9 L 1953.9,2819.9 L 1953.9,2756.1 L 1903.8,2756.1 L 1903.8,2795.6 L 1929.6,2795.6 L 1929.6,2775.8 M1966.1,2819.9 L 2029.9,2819.9 L 2029.9,2756.1 L 1979.8,2756.1 L 1979.8,2795.6 L 2005.6,2795.6 L 2005.6,2775.8 " fill="none" stroke="#e9dcbc" stroke-width="9.9"/><rect x="100" y="100" width="2200" height="2800" fill="none" stroke="#e9dcbc" stroke-width="9"/><rect x="142" y="142" width="2116" height="2716" fill="none" stroke="#e9dcbc" stroke-width="3" opacity="0.65"/></svg></svg>