<svg xmlns="http://www.w3.org/2000/svg" width="2400" height="1800" viewBox="0 0 2400 1800"><rect width="2400" height="1800" fill="#dfe4dc"/><rect y="1400" width="2400" height="400" fill="#c2a67e"/><line x1="60" y1="1400" x2="10" y2="1800" stroke="#00000015" stroke-width="5"/><line x1="260" y1="1400" x2="210" y2="1800" stroke="#00000015" stroke-width="5"/><line x1="460" y1="1400" x2="410" y2="1800" stroke="#00000015" stroke-width="5"/><line x1="660" y1="1400" x2="610" y2="1800" stroke="#00000015" stroke-width="5"/><line x1="860" y1="1400" x2="810" y2="1800" stroke="#00000015" stroke-width="5"/><line x1="1060" y1="1400" x2="1010" y2="1800" stroke="#00000015" stroke-width="5"/><line x1="1260" y1="1400" x2="1210" y2="1800" stroke="#00000015" stroke-width="5"/><line x1="1460" y1="1400" x2="1410" y2="1800" stroke="#00000015" stroke-width="5"/><line x1="1660" y1="1400" x2="1610" y2="1800" stroke="#00000015" stroke-width="5"/><line x1="1860" y1="1400" x2="1810" y2="1800" stroke="#00000015" stroke-width="5"/><line x1="2060" y1="1400" x2="2010" y2="1800" stroke="#00000015" stroke-width="5"/><line x1="2260" y1="1400" x2="2210" y2="1800" stroke="#00000015" stroke-width="5"/><rect x="180" y="260" width="900" height="620" fill="#8a6a48"/><rect x="215" y="295" width="830" height="550" fill="#41524a"/><line x1="280" y1="420" x2="760" y2="420" stroke="#ffffff66" stroke-width="9" stroke-linecap="round"/><line x1="280" y1="520" x2="620" y2="520" stroke="#ffffff44" stroke-width="9" stroke-linecap="round"/><circle cx="880" cy="560" r="90" fill="none" stroke="#ffffff55" stroke-width="8"/><rect x="215" y="845" width="830" height="22" fill="#6f5436"/><rect x="330" y="1240" width="640" height="60" rx="10" fill="#9c7449"/><rect x="370" y="1300" width="60" height="240" fill="#8a6540"/><rect x="870" y="1300" width="60" height="240" fill="#8a6540"/><rect x="430" y="1160" width="150" height="80" rx="8" fill="#8a4423"/><rect x="450" y="1120" width="150" height="40" rx="8" fill="#e0a077"/><circle cx="800" cy="1130" r="86" fill="#7fa3b8"/><path d="M760,1060 Q820,1100 780,1190 M740,1090 Q800,1120 850,1100" stroke="#5d8069" stroke-width="16" fill="none" stroke-linecap="round"/><circle cx="800" cy="1130" r="86" fill="none" stroke="#6b5233" stroke-width="7"/><line x1="800" y1="1216" x2="800" y2="1250" stroke="#6b5233" stroke-width="10"/><rect x="750" y="1244" width="100" height="14" rx="7" fill="#6b5233"/><rect x="1980" y="700" width="300" height="800" fill="#9c7449"/><rect x="2000" y="930" width="260" height="16" fill="#7c5a37"/><rect x="2020" y="790" width="36" height="140" fill="#b3502f"/><rect x="2066" y="802" width="36" height="128" fill="#39685c"/><rect x="2112" y="790" width="36" height="140" fill="#c9a227"/><rect x="2158" y="802" width="36" height="128" fill="#2c4661"/><rect x="2204" y="790" width="36" height="140" fill="#8a4423"/><rect x="2000" y="1180" width="260" height="16" fill="#7c5a37"/><rect x="2020" y="1040" width="36" height="140" fill="#39685c"/><rect x="2066" y="1052" width="36" height="128" fill="#c9a227"/><rect x="2112" y="1040" width="36" height="140" fill="#2c4661"/><rect x="2158" y="1052" width="36" height="128" fill="#8a4423"/><rect x="2204" y="1040" width="36" height="140" fill="#b3502f"/><rect x="2000" y="1430" width="260" height="16" fill="#7c5a37"/><rect x="2020" y="1290" width="36" height="140" fill="#c9a227"/><rect x="2066" y="1302" width="36" height="128" fill="#2c4661"/><rect x="2112" y="1290" width="36" height="140" fill="#8a4423"/><rect x="2158" y="1302" width="36" height="128" fill="#b3502f"/><rect x="2204" y="1290" width="36" height="140" fill="#39685c"/><defs><filter id="a148c-sh" x="-30%" y="-30%" width="160%" height="160%"><feGaussianBlur stdDeviation="16"/></filter></defs><rect x="1340.5" y="298.5" width="517" height="635" fill="#000" opacity="0.28" filter="url(#a148c-sh)"/><rect x="1326.5" y="276.5" width="517" height="635" fill="#3d342a"/><rect x="1341.8" y="291.8" width="486.4" height="604.5" fill="none" stroke="#00000055" stroke-width="3"/><rect x="1350" y="300" width="470" height="588" fill="#f6f2ea"/><svg x="1385.3" y="335.3" width="399.5" height="517.5" viewBox="0 0 2400 3000" preserveAspectRatio="xMidYMid slice"><rect width="2400" height="3000" fill="#c8703f"/><radialGradient id="a148-vig" cx="50%" cy="42%" r="80%"><stop offset="55%" stop-color="#000" stop-opacity="0"/><stop offset="100%" stop-color="#000" stop-opacity="0.15"/></radialGradient><rect width="2400" height="3000" fill="url(#a148-vig)"/><circle cx="119.7" cy="1948.5" r="2.3" fill="#26160e" opacity="0.037"/><circle cx="792.9" cy="2432.9" r="2" fill="#26160e" opacity="0.066"/><circle cx="1156.1" cy="2299.7" r="1.6" fill="#26160e" opacity="0.076"/><circle cx="1107.7" cy="1289.2" r="3.7" fill="#26160e" opacity="0.038"/><circle cx="641.2" cy="2033.7" r="1.7" fill="#26160e" opacity="0.079"/><circle cx="412.7" cy="2195.3" r="2.1" fill="#26160e" opacity="0.048"/><circle cx="242.2" cy="2051" r="1.9" fill="#26160e" opacity="0.032"/><circle cx="1127.4" cy="1510.8" r="4" fill="#26160e" opacity="0.047"/><circle cx="2285.2" cy="687.5" r="2.9" fill="#26160e" opacity="0.043"/><circle cx="1713.5" cy="548.3" r="2.2" fill="#26160e" opacity="0.076"/><circle cx="2357.7" cy="1725.3" r="1.6" fill="#26160e" opacity="0.037"/><circle cx="1373.2" cy="85.2" r="4.3" fill="#26160e" opacity="0.071"/><circle cx="1848" cy="2068.6" r="3.7" fill="#26160e" opacity="0.038"/><circle cx="200.8" cy="1808" r="2.1" fill="#26160e" opacity="0.044"/><circle cx="704.5" cy="2077.6" r="2.7" fill="#26160e" opacity="0.074"/><circle cx="2337.6" cy="2797.3" r="3.4" fill="#26160e" opacity="0.042"/><circle cx="2082.7" cy="1663.9" r="1.9" fill="#26160e" opacity="0.066"/><circle cx="737" cy="373.3" r="4.4" fill="#26160e" opacity="0.076"/><circle cx="503" cy="2239.1" r="2.1" fill="#26160e" opacity="0.036"/><circle cx="273.8" cy="1409.1" r="2.9" fill="#26160e" opacity="0.047"/><circle cx="1535.4" cy="700.5" r="1.6" fill="#26160e" opacity="0.041"/><circle cx="829.6" cy="2147.9" r="3" fill="#26160e" opacity="0.066"/><circle cx="2255.5" cy="1145.4" r="2.6" fill="#26160e" opacity="0.046"/><circle cx="957.9" cy="2367.5" r="1.6" fill="#26160e" opacity="0.041"/><circle cx="788.4" cy="845.4" r="2.3" fill="#26160e" opacity="0.044"/><circle cx="1044.9" cy="1423.7" r="2.3" fill="#26160e" opacity="0.056"/><circle cx="598" cy="709.1" r="1.8" fill="#26160e" opacity="0.076"/><circle cx="1650.2" cy="1194.7" r="3.6" fill="#26160e" opacity="0.048"/><circle cx="1388.9" cy="263.8" r="3.9" fill="#26160e" opacity="0.061"/><circle cx="768.9" cy="2265.5" r="4.2" fill="#26160e" opacity="0.080"/><circle cx="1764.9" cy="1664.5" r="2" fill="#26160e" opacity="0.069"/><circle cx="1398.5" cy="2853.9" r="4" fill="#26160e" opacity="0.062"/><circle cx="353.6" cy="2590.9" r="4" fill="#26160e" opacity="0.057"/><circle cx="1929.6" cy="1707.8" r="3.2" fill="#26160e" opacity="0.048"/><circle cx="1978.2" cy="2216.8" r="2.9" fill="#26160e" opacity="0.045"/><circle cx="2305.6" cy="2855.1" r="2.3" fill="#26160e" opacity="0.076"/><circle cx="2058.7" cy="1702.8" r="4.1" fill="#26160e" opacity="0.033"/><circle cx="865.8" cy="833.4" r="3.4" fill="#26160e" opacity="0.031"/><circle cx="552.6" cy="683.4" r="2.6" fill="#26160e" opacity="0.050"/><circle cx="1167.2" cy="1547.1" r="2.1" fill="#26160e" opacity="0.056"/><circle cx="156.6" cy="1839.5" r="2.7" fill="#26160e" opacity="0.064"/><circle cx="754.3" cy="2551.7" r="3.5" fill="#26160e" opacity="0.052"/><circle cx="462.5" cy="1874.2" r="3.7" fill="#26160e" opacity="0.048"/><circle cx="1014.4" cy="263.6" r="3.9" fill="#26160e" opacity="0.035"/><circle cx="382.8" cy="1484.6" r="2.7" fill="#26160e" opacity="0.071"/><circle cx="1306.1" cy="293.4" r="1.9" fill="#26160e" opacity="0.077"/><circle cx="1608.2" cy="40.8" r="4.4" fill="#26160e" opacity="0.070"/><circle cx="1253.8" cy="954.8" r="2.3" fill="#26160e" opacity="0.053"/><circle cx="848.1" cy="742.6" r="3.6" fill="#26160e" opacity="0.050"/><circle cx="1651.8" cy="2736.3" r="2.1" fill="#26160e" opacity="0.061"/><circle cx="1172.7" cy="582.5" r="1.7" fill="#26160e" opacity="0.062"/><circle cx="1117.5" cy="2949.5" r="4.1" fill="#26160e" opacity="0.044"/><circle cx="1733.8" cy="2877.8" r="4.3" fill="#26160e" opacity="0.079"/><circle cx="104.9" cy="2414.2" r="3.3" fill="#26160e" opacity="0.049"/><circle cx="2218.6" cy="531" r="4" fill="#26160e" opacity="0.040"/><circle cx="1487.2" cy="1002.7" r="1.8" fill="#26160e" opacity="0.041"/><circle cx="886.6" cy="953.9" r="2.5" fill="#26160e" opacity="0.037"/><circle cx="1978.6" cy="1160.3" r="3.5" fill="#26160e" opacity="0.032"/><circle cx="895" cy="2592.8" r="4.3" fill="#26160e" opacity="0.058"/><circle cx="217.2" cy="1989.3" r="3.5" fill="#26160e" opacity="0.056"/><circle cx="1674.8" cy="909.1" r="2.3" fill="#26160e" opacity="0.035"/><circle cx="858.5" cy="1828.9" r="4.3" fill="#26160e" opacity="0.071"/><circle cx="1517.1" cy="623" r="1.8" fill="#26160e" opacity="0.063"/><circle cx="1969.6" cy="1470.1" r="2.8" fill="#26160e" opacity="0.063"/><circle cx="1799.6" cy="426.6" r="1.7" fill="#26160e" opacity="0.031"/><circle cx="369.3" cy="1429" r="3.1" fill="#26160e" opacity="0.040"/><circle cx="1354.5" cy="175.7" r="1.5" fill="#26160e" opacity="0.049"/><circle cx="413" cy="2804.2" r="4.3" fill="#26160e" opacity="0.047"/><circle cx="1916" cy="2004.4" r="2" fill="#26160e" opacity="0.041"/><circle cx="1308.5" cy="1193.3" r="2.5" fill="#26160e" opacity="0.038"/><circle cx="1698.3" cy="716.5" r="4.5" fill="#26160e" opacity="0.042"/><circle cx="1090.8" cy="1900.9" r="2.4" fill="#26160e" opacity="0.041"/><circle cx="1152.8" cy="2856" r="2.1" fill="#26160e" opacity="0.032"/><circle cx="343.6" cy="197.9" r="1.6" fill="#26160e" opacity="0.078"/><circle cx="1668.1" cy="1773.4" r="2.7" fill="#26160e" opacity="0.038"/><circle cx="1158.7" cy="882.4" r="4.3" fill="#26160e" opacity="0.074"/><circle cx="1424.7" cy="190.3" r="4.1" fill="#26160e" opacity="0.054"/><circle cx="640.8" cy="1137.3" r="3.3" fill="#26160e" opacity="0.040"/><circle cx="1187.6" cy="1719.5" r="2.6" fill="#26160e" opacity="0.078"/><circle cx="518.8" cy="1951" r="3.4" fill="#26160e" opacity="0.040"/><circle cx="1035.9" cy="944.8" r="359.9" fill="#8a4423" opacity="0.95"/><line x1="200" y1="2430" x2="2200" y2="2430" stroke="#26160e" stroke-width="16"/><rect x="930" y="2340" width="540" height="90" fill="#26160e"/><rect x="1005.6" y="2260" width="388.8" height="80" fill="#26160e"/><path d="M1065,2260 L1116.3,815.1 L1283.7,815.1 L1335,2260 Z" fill="#26160e"/><polygon points="1200,665.1 1116.3,817.1 1283.7,817.1" fill="#8a4423"/><polyline points="1154,939.1 1177,913.1 1200,939.1 1223,913.1 1246,939.1 " fill="none" stroke="#c8703f" stroke-width="4.7" stroke-linejoin="miter"/><polygon points="1200,1012.1 1177,1058.1 1223,1058.1" fill="#c8703f" opacity="0.9"/><polygon points="1200,1122.1 1177,1168.1 1223,1168.1" fill="#c8703f" opacity="0.9"/><circle cx="1200" cy="1255.1" r="19.32" fill="#c8703f" opacity="0.9"/><rect x="1177" y="1357.1" width="46" height="16" fill="#c8703f" opacity="0.9"/><circle cx="1200" cy="1475.1" r="18.400000000000002" fill="none" stroke="#c8703f" stroke-width="10" opacity="0.9"/><line x1="1200" y1="1493.5" x2="1200" y2="1521.1" stroke="#c8703f" stroke-width="10" opacity="0.9"/><circle cx="1200" cy="1585.1" r="18.400000000000002" fill="none" stroke="#c8703f" stroke-width="10" opacity="0.9"/><line x1="1200" y1="1603.5" x2="1200" y2="1631.1" stroke="#c8703f" stroke-width="10" opacity="0.9"/><polygon points="1200,1672.1 1177,1718.1 1223,1718.1" fill="#c8703f" opacity="0.9"/><polyline points="1154,1819.1 1177,1793.1 1200,1819.1 1223,1793.1 1246,1819.1 " fill="none" stroke="#c8703f" stroke-width="4.7" stroke-linejoin="miter"/><polyline points="1154,1929.1 1177,1903.1 1200,1929.1 1223,1903.1 1246,1929.1 " fill="none" stroke="#c8703f" stroke-width="4.7" stroke-linejoin="miter"/><circle cx="1200" cy="2025.1" r="18.400000000000002" fill="none" stroke="#c8703f" stroke-width="10" opacity="0.9"/><line x1="1200" y1="2043.5" x2="1200" y2="2071.1" stroke="#c8703f" stroke-width="10" opacity="0.9"/><rect x="200" y="2770" width="2000" height="13.3" fill="#26160e"/><rect x="200" y="2782.8" width="2000" height="13.3" fill="#8a4423"/><rect x="200" y="2795.6" width="2000" height="13.3" fill="#26160e"/><rect x="200" y="2808.4" width="2000" height="13.3" fill="#e0a077"/><rect x="200" y="2821.2" width="2000" height="13.3" fill="#26160e"/><rect x="100" y="100" width="2200" height="2800" fill="none" stroke="#26160e" stroke-width="9"/><rect x="142" y="142" width="2116" height="2716" fill="none" stroke="#26160e" stroke-width="3" opacity="0.65"/></svg></svg>