<svg xmlns="http://www.w3.org/2000/svg" width="2400" height="1800" viewBox="0 0 2400 1800"><rect width="2400" height="1800" fill="#e5ddcf"/><rect y="1430" width="2400" height="370" fill="#b89a76"/><line x1="100" y1="1430" x2="45" y2="1800" stroke="#00000016" stroke-width="5"/><line x1="330" y1="1430" x2="275" y2="1800" stroke="#00000016" stroke-width="5"/><line x1="560" y1="1430" x2="505" y2="1800" stroke="#00000016" stroke-width="5"/><line x1="790" y1="1430" x2="735" y2="1800" stroke="#00000016" stroke-width="5"/><line x1="1020" y1="1430" x2="965" y2="1800" stroke="#00000016" stroke-width="5"/><line x1="1250" y1="1430" x2="1195" y2="1800" stroke="#00000016" stroke-width="5"/><line x1="1480" y1="1430" x2="1425" y2="1800" stroke="#00000016" stroke-width="5"/><line x1="1710" y1="1430" x2="1655" y2="1800" stroke="#00000016" stroke-width="5"/><line x1="1940" y1="1430" x2="1885" y2="1800" stroke="#00000016" stroke-width="5"/><line x1="2170" y1="1430" x2="2115" y2="1800" stroke="#00000016" stroke-width="5"/><rect x="620" y="1180" width="1180" height="52" rx="10" fill="#8a6540"/><rect x="680" y="1232" width="70" height="330" fill="#775433"/><rect x="1670" y="1232" width="70" height="330" fill="#775433"/><rect x="760" y="1120" width="220" height="34" rx="6" fill="#4d84b5"/><rect x="780" y="1086" width="200" height="34" rx="6" fill="#39685c"/><rect x="800" y="1052" width="170" height="34" rx="6" fill="#c9a227"/><circle cx="1240" cy="1130" r="46" fill="#3f3428"/><rect x="1226" y="1048" width="16" height="60" fill="#3f3428" transform="rotate(18 1240 1090)"/><rect x="1420" y="1100" width="260" height="26" rx="13" fill="#e8dcc0"/><rect x="1450" y="1072" width="260" height="26" rx="13" fill="#dfd0ad"/><rect x="1080" y="1300" width="360" height="34" rx="14" fill="#6f5436"/><rect x="1100" y="1334" width="40" height="220" fill="#6f5436"/><rect x="1380" y="1334" width="40" height="220" fill="#6f5436"/><rect x="1080" y="1030" width="42" height="290" rx="14" fill="#6f5436"/><rect x="260" y="480" width="560" height="24" fill="#8a6540"/><rect x="300" y="360" width="90" height="120" fill="#b3502f"/><rect x="400" y="380" width="80" height="100" fill="#2c4661"/><rect x="490" y="350" width="86" height="130" fill="#96a396"/><path d="M700,480 Q 616,347 574,382" fill="none" stroke="#5d7052" stroke-width="11.2" stroke-linecap="round"/><path d="M700,480 Q 644,347 616,354" fill="none" stroke="#5d7052" stroke-width="11.2" stroke-linecap="round"/><path d="M700,480 Q 672,347 658,326" fill="none" stroke="#5d7052" stroke-width="11.2" stroke-linecap="round"/><path d="M700,480 Q 700,347 700,298" fill="none" stroke="#5d7052" stroke-width="11.2" stroke-linecap="round"/><path d="M700,480 Q 728,347 742,326" fill="none" stroke="#5d7052" stroke-width="11.2" stroke-linecap="round"/><path d="M700,480 Q 756,347 784,354" fill="none" stroke="#5d7052" stroke-width="11.2" stroke-linecap="round"/><path d="M700,480 Q 784,347 826,382" fill="none" stroke="#5d7052" stroke-width="11.2" stroke-linecap="round"/><path d="M651,480 L749,480 L736.4,557 L663.6,557 Z" fill="#a9714d"/><path d="M320,1520 Q 164,1273 86,1338" fill="none" stroke="#5d7052" stroke-width="20.8" stroke-linecap="round"/><path d="M320,1520 Q 216,1273 164,1286" fill="none" stroke="#5d7052" stroke-width="20.8" stroke-linecap="round"/><path d="M320,1520 Q 268,1273 242,1234" fill="none" stroke="#5d7052" stroke-width="20.8" stroke-linecap="round"/><path d="M320,1520 Q 320,1273 320,1182" fill="none" stroke="#5d7052" stroke-width="20.8" stroke-linecap="round"/><path d="M320,1520 Q 372,1273 398,1234" fill="none" stroke="#5d7052" stroke-width="20.8" stroke-linecap="round"/><path d="M320,1520 Q 424,1273 476,1286" fill="none" stroke="#5d7052" stroke-width="20.8" stroke-linecap="round"/><path d="M320,1520 Q 476,1273 554,1338" fill="none" stroke="#5d7052" stroke-width="20.8" stroke-linecap="round"/><path d="M229,1520 L411,1520 L387.6,1663 L252.4,1663 Z" fill="#a9714d"/><defs><filter id="a172s-sh" x="-30%" y="-30%" width="160%" height="160%"><feGaussianBlur stdDeviation="16"/></filter></defs><rect x="1206" y="294" width="616" height="756" fill="#000" opacity="0.28" filter="url(#a172s-sh)"/><rect x="1192" y="272" width="616" height="756" fill="#443a2d"/><rect x="1210.2" y="290.2" width="579.6" height="719.6" fill="none" stroke="#00000055" stroke-width="3"/><rect x="1220" y="300" width="560" height="700" fill="#f6f2ea"/><svg x="1262" y="342" width="476" height="616" viewBox="0 0 2400 3000" preserveAspectRatio="xMidYMid slice"><rect width="2400" height="3000" fill="#16324f"/><radialGradient id="a172-vig" cx="50%" cy="42%" r="80%"><stop offset="55%" stop-color="#000" stop-opacity="0"/><stop offset="100%" stop-color="#000" stop-opacity="0.15"/></radialGradient><rect width="2400" height="3000" fill="url(#a172-vig)"/><circle cx="1850" cy="1165.3" r="2.5" fill="#d8b45a" opacity="0.032"/><circle cx="634.3" cy="1641.3" r="2.7" fill="#d8b45a" opacity="0.062"/><circle cx="159.5" cy="2303.8" r="1.8" fill="#d8b45a" opacity="0.033"/><circle cx="1657.5" cy="2446.9" r="3.6" fill="#d8b45a" opacity="0.056"/><circle cx="282.3" cy="654.2" r="1.5" fill="#d8b45a" opacity="0.052"/><circle cx="965.4" cy="2192.7" r="2.6" fill="#d8b45a" opacity="0.037"/><circle cx="457.3" cy="2708.6" r="3.2" fill="#d8b45a" opacity="0.071"/><circle cx="447.2" cy="2002.2" r="3.1" fill="#d8b45a" opacity="0.047"/><circle cx="1366.5" cy="2825.8" r="3.4" fill="#d8b45a" opacity="0.080"/><circle cx="2013.2" cy="883.3" r="3.3" fill="#d8b45a" opacity="0.045"/><circle cx="701.1" cy="1629.2" r="3.4" fill="#d8b45a" opacity="0.052"/><circle cx="531" cy="1775.9" r="3.9" fill="#d8b45a" opacity="0.076"/><circle cx="898" cy="1279.8" r="3.9" fill="#d8b45a" opacity="0.037"/><circle cx="412.8" cy="58.4" r="2.6" fill="#d8b45a" opacity="0.067"/><circle cx="41" cy="2126.3" r="2.8" fill="#d8b45a" opacity="0.040"/><circle cx="1838" cy="2428" r="3.6" fill="#d8b45a" opacity="0.075"/><circle cx="1734.9" cy="555.7" r="3.8" fill="#d8b45a" opacity="0.035"/><circle cx="185.1" cy="2367.3" r="1.9" fill="#d8b45a" opacity="0.032"/><circle cx="1306.7" cy="815.4" r="2.7" fill="#d8b45a" opacity="0.076"/><circle cx="552.2" cy="874.9" r="3" fill="#d8b45a" opacity="0.074"/><circle cx="2203.4" cy="2869.3" r="3.3" fill="#d8b45a" opacity="0.050"/><circle cx="1878.8" cy="1854.2" r="3.3" fill="#d8b45a" opacity="0.049"/><circle cx="1740.5" cy="696.4" r="3" fill="#d8b45a" opacity="0.058"/><circle cx="1262.3" cy="1772.3" r="2.4" fill="#d8b45a" opacity="0.050"/><circle cx="1408.6" cy="2457.5" r="3.7" fill="#d8b45a" opacity="0.062"/><circle cx="1992.4" cy="149.4" r="3.1" fill="#d8b45a" opacity="0.074"/><circle cx="1429.5" cy="2438.1" r="4.1" fill="#d8b45a" opacity="0.061"/><circle cx="755.7" cy="2096.5" r="3.3" fill="#d8b45a" opacity="0.063"/><circle cx="429.3" cy="1729.2" r="3.2" fill="#d8b45a" opacity="0.080"/><circle cx="1942.8" cy="960.3" r="3" fill="#d8b45a" opacity="0.044"/><circle cx="2177" cy="381.8" r="2.1" fill="#d8b45a" opacity="0.066"/><circle cx="901.4" cy="1446" r="3.8" fill="#d8b45a" opacity="0.054"/><circle cx="1437.1" cy="216" r="2.4" fill="#d8b45a" opacity="0.070"/><circle cx="789.2" cy="1237.7" r="3.6" fill="#d8b45a" opacity="0.059"/><circle cx="909.6" cy="1513.4" r="4" fill="#d8b45a" opacity="0.076"/><circle cx="1068.6" cy="2754.2" r="4.3" fill="#d8b45a" opacity="0.049"/><circle cx="91.9" cy="1407.9" r="1.7" fill="#d8b45a" opacity="0.077"/><circle cx="225.3" cy="2300" r="1.6" fill="#d8b45a" opacity="0.065"/><circle cx="724.4" cy="1993.3" r="4" fill="#d8b45a" opacity="0.070"/><circle cx="1707.1" cy="492.7" r="3.1" fill="#d8b45a" opacity="0.063"/><circle cx="667.6" cy="2681.1" r="3.5" fill="#d8b45a" opacity="0.034"/><circle cx="2053.3" cy="2933.6" r="3.3" fill="#d8b45a" opacity="0.066"/><circle cx="662.8" cy="686.3" r="3.5" fill="#d8b45a" opacity="0.062"/><circle cx="2115.2" cy="1197.5" r="3.9" fill="#d8b45a" opacity="0.075"/><circle cx="1496.6" cy="2042.8" r="3.2" fill="#d8b45a" opacity="0.064"/><circle cx="1263.3" cy="2034.3" r="3.2" fill="#d8b45a" opacity="0.037"/><circle cx="2050" cy="2068.6" r="2.7" fill="#d8b45a" opacity="0.071"/><circle cx="314" cy="2096.7" r="2.6" fill="#d8b45a" opacity="0.047"/><circle cx="928.8" cy="1531.5" r="1.6" fill="#d8b45a" opacity="0.079"/><circle cx="42.5" cy="72.2" r="2.6" fill="#d8b45a" opacity="0.075"/><circle cx="1419.9" cy="2676.3" r="2.1" fill="#d8b45a" opacity="0.056"/><circle cx="141.9" cy="1773.6" r="2.4" fill="#d8b45a" opacity="0.039"/><circle cx="2046.4" cy="2828.7" r="4.5" fill="#d8b45a" opacity="0.031"/><circle cx="955.1" cy="236.3" r="2.5" fill="#d8b45a" opacity="0.032"/><circle cx="191" cy="631" r="1.5" fill="#d8b45a" opacity="0.032"/><circle cx="1596.4" cy="1406.5" r="3.5" fill="#d8b45a" opacity="0.078"/><circle cx="1233.2" cy="1760.3" r="4.5" fill="#d8b45a" opacity="0.049"/><circle cx="1634.2" cy="340.5" r="2.8" fill="#d8b45a" opacity="0.072"/><circle cx="566.2" cy="1583.8" r="4.1" fill="#d8b45a" opacity="0.067"/><circle cx="328.1" cy="219.2" r="4.4" fill="#d8b45a" opacity="0.042"/><circle cx="2113.5" cy="2276" r="1.7" fill="#d8b45a" opacity="0.076"/><circle cx="1008.6" cy="47.7" r="1.9" fill="#d8b45a" opacity="0.068"/><circle cx="1207.1" cy="171.2" r="3.4" fill="#d8b45a" opacity="0.078"/><circle cx="1364.8" cy="2292.7" r="3" fill="#d8b45a" opacity="0.048"/><circle cx="1048.7" cy="466.5" r="2.1" fill="#d8b45a" opacity="0.075"/><circle cx="139.9" cy="2923.3" r="2.8" fill="#d8b45a" opacity="0.063"/><circle cx="180.2" cy="2364.9" r="4.1" fill="#d8b45a" opacity="0.078"/><circle cx="607.6" cy="682" r="4.3" fill="#d8b45a" opacity="0.050"/><circle cx="2351.3" cy="1763.1" r="2.4" fill="#d8b45a" opacity="0.057"/><circle cx="547.2" cy="999" r="1.7" fill="#d8b45a" opacity="0.068"/><circle cx="612.8" cy="1119.6" r="3.2" fill="#d8b45a" opacity="0.062"/><circle cx="1767.7" cy="458" r="1.8" fill="#d8b45a" opacity="0.032"/><circle cx="637.5" cy="1290.3" r="3" fill="#d8b45a" opacity="0.068"/><circle cx="1146.4" cy="821" r="2.4" fill="#d8b45a" opacity="0.043"/><circle cx="1207.5" cy="2321.6" r="3.4" fill="#d8b45a" opacity="0.041"/><circle cx="2209.1" cy="2823.2" r="2.1" fill="#d8b45a" opacity="0.051"/><circle cx="645" cy="1256.9" r="3.4" fill="#d8b45a" opacity="0.048"/><circle cx="1654.5" cy="937.8" r="1.8" fill="#d8b45a" opacity="0.031"/><circle cx="599.5" cy="1769.1" r="2.5" fill="#d8b45a" opacity="0.044"/><circle cx="1549.7" cy="1932.4" r="3.7" fill="#d8b45a" opacity="0.054"/><rect x="190" y="190" width="2020" height="2620" fill="none" stroke="#d8b45a" stroke-width="14"/><rect x="260" y="260" width="1880" height="2480" fill="none" stroke="#d8b45a" stroke-width="7"/><rect x="148" y="148" width="84" height="84" fill="#4d84b5"/><rect x="148" y="2768" width="84" height="84" fill="#4d84b5"/><rect x="2168" y="148" width="84" height="84" fill="#4d84b5"/><rect x="2168" y="2768" width="84" height="84" fill="#4d84b5"/><line x1="1200" y1="2180" x2="1200" y2="1480" stroke="#d8b45a" stroke-width="46"/><path d="M0 0 Q 115.2 -179.1 0 -471.3 Q -115.2 -179.1 0 0 Z" fill="#d8b45a" opacity="1" transform="translate(1200 1480) rotate(-58)"/><path d="M0 0 Q 115.2 -200.5 0 -527.5 Q -115.2 -200.5 0 0 Z" fill="#4d84b5" opacity="1" transform="translate(1200 1480) rotate(-38.7)"/><path d="M0 0 Q 115.2 -221.8 0 -583.8 Q -115.2 -221.8 0 0 Z" fill="#d8b45a" opacity="1" transform="translate(1200 1480) rotate(-19.3)"/><path d="M0 0 Q 115.2 -243.2 0 -640 Q -115.2 -243.2 0 0 Z" fill="#4d84b5" opacity="1" transform="translate(1200 1480) rotate(0)"/><path d="M0 0 Q 115.2 -221.8 0 -583.8 Q -115.2 -221.8 0 0 Z" fill="#d8b45a" opacity="1" transform="translate(1200 1480) rotate(19.3)"/><path d="M0 0 Q 115.2 -200.5 0 -527.5 Q -115.2 -200.5 0 0 Z" fill="#4d84b5" opacity="1" transform="translate(1200 1480) rotate(38.7)"/><path d="M0 0 Q 115.2 -179.1 0 -471.3 Q -115.2 -179.1 0 0 Z" fill="#d8b45a" opacity="1" transform="translate(1200 1480) rotate(58)"/><path d="M1008,1480 Q1200,1697.6 1392,1480 Z" fill="#d8b45a"/><rect x="940" y="2180" width="520" height="70" fill="#d8b45a"/><circle cx="1200" cy="860" r="120" fill="#4d84b5"/><polygon points="1012.5,2457 1024.5,2487.4 1054.9,2499.4 1024.5,2511.3 1012.5,2541.7 1000.5,2511.3 970.2,2499.4 1000.5,2487.4 " fill="#4d84b5"/><polygon points="1518.7,2529.7 1529.7,2557.7 1557.6,2568.7 1529.7,2579.7 1518.7,2607.6 1507.7,2579.7 1479.7,2568.7 1507.7,2557.7 " fill="#4d84b5"/><polygon points="953,531.4 960.5,550.5 979.5,558 960.5,565.5 953,584.5 945.5,565.5 926.4,558 945.5,550.5 " fill="#4d84b5"/><polygon points="833.7,2564.7 841.1,2583.6 860,2591 841.1,2598.4 833.7,2617.3 826.3,2598.4 807.4,2591 826.3,2583.6 " fill="#4d84b5"/><polygon points="1575,382.7 1586.5,411.8 1615.5,423.2 1586.5,434.7 1575,463.8 1563.6,434.7 1534.5,423.2 1563.6,411.8 " fill="#4d84b5"/><polygon points="1235.9,392.3 1243.4,411.1 1262.2,418.6 1243.4,426 1235.9,444.8 1228.5,426 1209.7,418.6 1228.5,411.1 " fill="#4d84b5"/><rect x="100" y="100" width="2200" height="2800" fill="none" stroke="#d8b45a" stroke-width="9"/><rect x="142" y="142" width="2116" height="2716" fill="none" stroke="#d8b45a" stroke-width="3" opacity="0.65"/></svg></svg>