<svg xmlns="http://www.w3.org/2000/svg" width="2400" height="1800" viewBox="0 0 2400 1800"><rect width="2400" height="1800" fill="#dfe4dc"/><rect y="1400" width="2400" height="400" fill="#c2a67e"/><line x1="60" y1="1400" x2="10" y2="1800" stroke="#00000015" stroke-width="5"/><line x1="260" y1="1400" x2="210" y2="1800" stroke="#00000015" stroke-width="5"/><line x1="460" y1="1400" x2="410" y2="1800" stroke="#00000015" stroke-width="5"/><line x1="660" y1="1400" x2="610" y2="1800" stroke="#00000015" stroke-width="5"/><line x1="860" y1="1400" x2="810" y2="1800" stroke="#00000015" stroke-width="5"/><line x1="1060" y1="1400" x2="1010" y2="1800" stroke="#00000015" stroke-width="5"/><line x1="1260" y1="1400" x2="1210" y2="1800" stroke="#00000015" stroke-width="5"/><line x1="1460" y1="1400" x2="1410" y2="1800" stroke="#00000015" stroke-width="5"/><line x1="1660" y1="1400" x2="1610" y2="1800" stroke="#00000015" stroke-width="5"/><line x1="1860" y1="1400" x2="1810" y2="1800" stroke="#00000015" stroke-width="5"/><line x1="2060" y1="1400" x2="2010" y2="1800" stroke="#00000015" stroke-width="5"/><line x1="2260" y1="1400" x2="2210" y2="1800" stroke="#00000015" stroke-width="5"/><rect x="180" y="260" width="900" height="620" fill="#8a6a48"/><rect x="215" y="295" width="830" height="550" fill="#41524a"/><line x1="280" y1="420" x2="760" y2="420" stroke="#ffffff66" stroke-width="9" stroke-linecap="round"/><line x1="280" y1="520" x2="620" y2="520" stroke="#ffffff44" stroke-width="9" stroke-linecap="round"/><circle cx="880" cy="560" r="90" fill="none" stroke="#ffffff55" stroke-width="8"/><rect x="215" y="845" width="830" height="22" fill="#6f5436"/><rect x="330" y="1240" width="640" height="60" rx="10" fill="#9c7449"/><rect x="370" y="1300" width="60" height="240" fill="#8a6540"/><rect x="870" y="1300" width="60" height="240" fill="#8a6540"/><rect x="430" y="1160" width="150" height="80" rx="8" fill="#87681c"/><rect x="450" y="1120" width="150" height="40" rx="8" fill="#233142"/><circle cx="800" cy="1130" r="86" fill="#7fa3b8"/><path d="M760,1060 Q820,1100 780,1190 M740,1090 Q800,1120 850,1100" stroke="#5d8069" stroke-width="16" fill="none" stroke-linecap="round"/><circle cx="800" cy="1130" r="86" fill="none" stroke="#6b5233" stroke-width="7"/><line x1="800" y1="1216" x2="800" y2="1250" stroke="#6b5233" stroke-width="10"/><rect x="750" y="1244" width="100" height="14" rx="7" fill="#6b5233"/><rect x="1980" y="700" width="300" height="800" fill="#9c7449"/><rect x="2000" y="930" width="260" height="16" fill="#7c5a37"/><rect x="2020" y="790" width="36" height="140" fill="#b3502f"/><rect x="2066" y="802" width="36" height="128" fill="#39685c"/><rect x="2112" y="790" width="36" height="140" fill="#c9a227"/><rect x="2158" y="802" width="36" height="128" fill="#2c4661"/><rect x="2204" y="790" width="36" height="140" fill="#8a4423"/><rect x="2000" y="1180" width="260" height="16" fill="#7c5a37"/><rect x="2020" y="1040" width="36" height="140" fill="#39685c"/><rect x="2066" y="1052" width="36" height="128" fill="#c9a227"/><rect x="2112" y="1040" width="36" height="140" fill="#2c4661"/><rect x="2158" y="1052" width="36" height="128" fill="#8a4423"/><rect x="2204" y="1040" width="36" height="140" fill="#b3502f"/><rect x="2000" y="1430" width="260" height="16" fill="#7c5a37"/><rect x="2020" y="1290" width="36" height="140" fill="#c9a227"/><rect x="2066" y="1302" width="36" height="128" fill="#2c4661"/><rect x="2112" y="1290" width="36" height="140" fill="#8a4423"/><rect x="2158" y="1302" width="36" height="128" fill="#b3502f"/><rect x="2204" y="1290" width="36" height="140" fill="#39685c"/><defs><filter id="a106c-sh" x="-30%" y="-30%" width="160%" height="160%"><feGaussianBlur stdDeviation="16"/></filter></defs><rect x="1340.5" y="298.5" width="517" height="635" fill="#000" opacity="0.28" filter="url(#a106c-sh)"/><rect x="1326.5" y="276.5" width="517" height="635" fill="#3d342a"/><rect x="1341.8" y="291.8" width="486.4" height="604.5" fill="none" stroke="#00000055" stroke-width="3"/><rect x="1350" y="300" width="470" height="588" fill="#f6f2ea"/><svg x="1385.3" y="335.3" width="399.5" height="517.5" viewBox="0 0 2400 3000" preserveAspectRatio="xMidYMid slice"><rect width="2400" height="3000" fill="#141b25"/><radialGradient id="a106-vig" cx="50%" cy="42%" r="80%"><stop offset="55%" stop-color="#000" stop-opacity="0"/><stop offset="100%" stop-color="#000" stop-opacity="0.15"/></radialGradient><rect width="2400" height="3000" fill="url(#a106-vig)"/><circle cx="1815.5" cy="974.2" r="3.3" fill="#c9a227" opacity="0.047"/><circle cx="920.6" cy="740.3" r="3" fill="#c9a227" opacity="0.061"/><circle cx="1868.5" cy="2481.6" r="2.8" fill="#c9a227" opacity="0.033"/><circle cx="573.6" cy="2860.9" r="3.7" fill="#c9a227" opacity="0.062"/><circle cx="1648.1" cy="1455.8" r="1.5" fill="#c9a227" opacity="0.071"/><circle cx="1977.4" cy="1212.2" r="2.4" fill="#c9a227" opacity="0.062"/><circle cx="702.6" cy="2223.3" r="2.2" fill="#c9a227" opacity="0.038"/><circle cx="325.2" cy="2547.1" r="4.2" fill="#c9a227" opacity="0.066"/><circle cx="281.3" cy="2648.3" r="3.9" fill="#c9a227" opacity="0.054"/><circle cx="370.9" cy="2880.3" r="2" fill="#c9a227" opacity="0.066"/><circle cx="1653.4" cy="1512.9" r="2" fill="#c9a227" opacity="0.038"/><circle cx="523.1" cy="2560.2" r="3.5" fill="#c9a227" opacity="0.066"/><circle cx="1862" cy="1651.3" r="1.5" fill="#c9a227" opacity="0.033"/><circle cx="580.1" cy="2324.1" r="2.7" fill="#c9a227" opacity="0.052"/><circle cx="1653.2" cy="2415.9" r="2.1" fill="#c9a227" opacity="0.053"/><circle cx="2227.1" cy="130.2" r="3.9" fill="#c9a227" opacity="0.062"/><circle cx="176.1" cy="1054.2" r="2.4" fill="#c9a227" opacity="0.032"/><circle cx="837.4" cy="894.3" r="4.2" fill="#c9a227" opacity="0.073"/><circle cx="809.6" cy="1206.6" r="2.2" fill="#c9a227" opacity="0.031"/><circle cx="1843.6" cy="1474.5" r="2.4" fill="#c9a227" opacity="0.077"/><circle cx="1966.6" cy="1828.1" r="3.2" fill="#c9a227" opacity="0.060"/><circle cx="1538.6" cy="1819.1" r="3.3" fill="#c9a227" opacity="0.046"/><circle cx="2259.5" cy="1243.7" r="3.1" fill="#c9a227" opacity="0.058"/><circle cx="1020.5" cy="1420.9" r="2.9" fill="#c9a227" opacity="0.061"/><circle cx="2069.3" cy="1397.2" r="2.6" fill="#c9a227" opacity="0.077"/><circle cx="1072.3" cy="2095" r="1.7" fill="#c9a227" opacity="0.056"/><circle cx="1108.8" cy="2024.4" r="2.4" fill="#c9a227" opacity="0.042"/><circle cx="1857.9" cy="1546.9" r="3.2" fill="#c9a227" opacity="0.070"/><circle cx="420.3" cy="2566.9" r="4" fill="#c9a227" opacity="0.057"/><circle cx="775.4" cy="1183" r="2.2" fill="#c9a227" opacity="0.037"/><circle cx="684.9" cy="387.2" r="4.1" fill="#c9a227" opacity="0.059"/><circle cx="798" cy="1609.2" r="1.5" fill="#c9a227" opacity="0.034"/><circle cx="272.7" cy="823.4" r="1.9" fill="#c9a227" opacity="0.074"/><circle cx="481" cy="795.5" r="4.5" fill="#c9a227" opacity="0.064"/><circle cx="1396.1" cy="1460.6" r="3.2" fill="#c9a227" opacity="0.069"/><circle cx="1125.9" cy="2483.2" r="2.1" fill="#c9a227" opacity="0.042"/><circle cx="364.1" cy="1512.7" r="4.2" fill="#c9a227" opacity="0.047"/><circle cx="1509.2" cy="2777.6" r="4" fill="#c9a227" opacity="0.036"/><circle cx="1926" cy="975.6" r="2.7" fill="#c9a227" opacity="0.048"/><circle cx="414.8" cy="2074.2" r="2.7" fill="#c9a227" opacity="0.070"/><circle cx="2131.4" cy="410.2" r="2.4" fill="#c9a227" opacity="0.064"/><circle cx="1820.5" cy="543.1" r="2.4" fill="#c9a227" opacity="0.063"/><circle cx="809.8" cy="453.7" r="3.8" fill="#c9a227" opacity="0.048"/><circle cx="1797.8" cy="1345.4" r="2.2" fill="#c9a227" opacity="0.044"/><circle cx="1728.1" cy="221.1" r="3.6" fill="#c9a227" opacity="0.053"/><circle cx="1696.6" cy="2445.1" r="3.1" fill="#c9a227" opacity="0.075"/><circle cx="357.5" cy="430.4" r="3.5" fill="#c9a227" opacity="0.065"/><circle cx="816.4" cy="891.5" r="2.8" fill="#c9a227" opacity="0.062"/><circle cx="735.5" cy="1551.2" r="1.6" fill="#c9a227" opacity="0.043"/><circle cx="1439.7" cy="927.4" r="1.7" fill="#c9a227" opacity="0.069"/><circle cx="888.4" cy="709.5" r="1.6" fill="#c9a227" opacity="0.077"/><circle cx="2044.9" cy="2661.9" r="3.7" fill="#c9a227" opacity="0.046"/><circle cx="178.6" cy="267.7" r="2.4" fill="#c9a227" opacity="0.075"/><circle cx="596.7" cy="278.6" r="1.5" fill="#c9a227" opacity="0.052"/><circle cx="1009.4" cy="2120.4" r="3.3" fill="#c9a227" opacity="0.073"/><circle cx="1243.4" cy="122.7" r="4.2" fill="#c9a227" opacity="0.061"/><circle cx="1512" cy="766.7" r="2.5" fill="#c9a227" opacity="0.077"/><circle cx="1836.3" cy="1127.7" r="3.6" fill="#c9a227" opacity="0.032"/><circle cx="1414.9" cy="685.2" r="4.4" fill="#c9a227" opacity="0.074"/><circle cx="2138.5" cy="1641" r="1.7" fill="#c9a227" opacity="0.073"/><circle cx="2255.5" cy="1514" r="3.3" fill="#c9a227" opacity="0.066"/><circle cx="1971.1" cy="1841.1" r="3.8" fill="#c9a227" opacity="0.038"/><circle cx="693.1" cy="2776.9" r="2.4" fill="#c9a227" opacity="0.042"/><circle cx="1305.6" cy="1958.2" r="3.7" fill="#c9a227" opacity="0.049"/><circle cx="1334.4" cy="1489.1" r="1.6" fill="#c9a227" opacity="0.076"/><circle cx="304.9" cy="2777.8" r="2.7" fill="#c9a227" opacity="0.047"/><circle cx="1956.8" cy="670.6" r="2.2" fill="#c9a227" opacity="0.047"/><circle cx="2325.6" cy="1987.3" r="2.8" fill="#c9a227" opacity="0.054"/><circle cx="382.1" cy="2429.4" r="1.9" fill="#c9a227" opacity="0.076"/><circle cx="1283.4" cy="1516.8" r="3.5" fill="#c9a227" opacity="0.063"/><circle cx="2219.6" cy="702.2" r="2.1" fill="#c9a227" opacity="0.041"/><circle cx="2318.5" cy="2730.6" r="3.4" fill="#c9a227" opacity="0.033"/><circle cx="154.9" cy="427" r="3.7" fill="#c9a227" opacity="0.057"/><circle cx="608.2" cy="2646" r="2" fill="#c9a227" opacity="0.042"/><circle cx="642.8" cy="2477.8" r="2.8" fill="#c9a227" opacity="0.075"/><circle cx="1043.5" cy="81.8" r="3.8" fill="#c9a227" opacity="0.079"/><circle cx="2341.3" cy="870.4" r="1.7" fill="#c9a227" opacity="0.074"/><circle cx="803.4" cy="2658.2" r="1.6" fill="#c9a227" opacity="0.033"/><circle cx="85.7" cy="2473.1" r="3" fill="#c9a227" opacity="0.059"/><circle cx="1828.3" cy="417.6" r="2.9" fill="#c9a227" opacity="0.069"/><circle cx="1712.6" cy="760.3" r="165.1" fill="#87681c"/><circle cx="1782" cy="730.6" r="145.3" fill="#141b25"/><circle cx="1939.3" cy="1154.5" r="6.1" fill="#87681c" opacity="0.74"/><circle cx="1592" cy="483.5" r="5" fill="#87681c" opacity="0.86"/><circle cx="1129.4" cy="1037.8" r="6" fill="#87681c" opacity="0.59"/><circle cx="817.6" cy="896.6" r="5.3" fill="#87681c" opacity="0.75"/><circle cx="1113.5" cy="832.8" r="8.3" fill="#87681c" opacity="0.97"/><circle cx="644" cy="899.3" r="6.4" fill="#87681c" opacity="0.96"/><circle cx="1226.5" cy="505.7" r="8.1" fill="#87681c" opacity="0.96"/><circle cx="1721.3" cy="1169.5" r="6.4" fill="#87681c" opacity="0.78"/><circle cx="1485.2" cy="1257.2" r="7.7" fill="#87681c" opacity="0.86"/><circle cx="2080.9" cy="1061.7" r="8.8" fill="#87681c" opacity="0.68"/><circle cx="1003.5" cy="1124.3" r="6.4" fill="#87681c" opacity="0.97"/><path d="M284.6,2480 L318.6,2262.8 L2081.4,2262.8 L2115.4,2480 Z" fill="#c9a227"/><line x1="318.6" y1="2265.8" x2="2081.4" y2="2265.8" stroke="#87681c" stroke-width="8" opacity="0.8"/><path d="M492.2,2262.8 L526.2,2045.5 L1873.8,2045.5 L1907.8,2262.8 Z" fill="#c9a227"/><line x1="526.2" y1="2048.5" x2="1873.8" y2="2048.5" stroke="#87681c" stroke-width="8" opacity="0.8"/><path d="M671.2,2045.5 L705.2,1828.3 L1694.8,1828.3 L1728.8,2045.5 Z" fill="#c9a227"/><line x1="705.2" y1="1831.3" x2="1694.8" y2="1831.3" stroke="#87681c" stroke-width="8" opacity="0.8"/><path d="M810.5,1828.3 L844.5,1611 L1555.5,1611 L1589.5,1828.3 Z" fill="#c9a227"/><line x1="844.5" y1="1614" x2="1555.5" y2="1614" stroke="#87681c" stroke-width="8" opacity="0.8"/><path d="M916.8,1611 L950.8,1393.8 L1449.2,1393.8 L1483.2,1611 Z" fill="#c9a227"/><line x1="950.8" y1="1396.8" x2="1449.2" y2="1396.8" stroke="#87681c" stroke-width="8" opacity="0.8"/><rect x="1120" y="1393.8" width="160" height="1086.2" fill="#c9a227"/><line x1="1138" y1="1417.8" x2="1262" y2="1417.8" stroke="#141b25" stroke-width="7" opacity="0.7"/><line x1="1138" y1="1451.8" x2="1262" y2="1451.8" stroke="#141b25" stroke-width="7" opacity="0.7"/><line x1="1138" y1="1485.8" x2="1262" y2="1485.8" stroke="#141b25" stroke-width="7" opacity="0.7"/><line x1="1138" y1="1519.8" x2="1262" y2="1519.8" stroke="#141b25" stroke-width="7" opacity="0.7"/><line x1="1138" y1="1553.8" x2="1262" y2="1553.8" stroke="#141b25" stroke-width="7" opacity="0.7"/><line x1="1138" y1="1587.8" x2="1262" y2="1587.8" stroke="#141b25" stroke-width="7" opacity="0.7"/><line x1="1138" y1="1621.8" x2="1262" y2="1621.8" stroke="#141b25" stroke-width="7" opacity="0.7"/><line x1="1138" y1="1655.8" x2="1262" y2="1655.8" stroke="#141b25" stroke-width="7" opacity="0.7"/><line x1="1138" y1="1689.8" x2="1262" y2="1689.8" stroke="#141b25" stroke-width="7" opacity="0.7"/><line x1="1138" y1="1723.8" x2="1262" y2="1723.8" stroke="#141b25" stroke-width="7" opacity="0.7"/><line x1="1138" y1="1757.8" x2="1262" y2="1757.8" stroke="#141b25" stroke-width="7" opacity="0.7"/><line x1="1138" y1="1791.8" x2="1262" y2="1791.8" stroke="#141b25" stroke-width="7" opacity="0.7"/><line x1="1138" y1="1825.8" x2="1262" y2="1825.8" stroke="#141b25" stroke-width="7" opacity="0.7"/><line x1="1138" y1="1859.8" x2="1262" y2="1859.8" stroke="#141b25" stroke-width="7" opacity="0.7"/><line x1="1138" y1="1893.8" x2="1262" y2="1893.8" stroke="#141b25" stroke-width="7" opacity="0.7"/><line x1="1138" y1="1927.8" x2="1262" y2="1927.8" stroke="#141b25" stroke-width="7" opacity="0.7"/><line x1="1138" y1="1961.8" x2="1262" y2="1961.8" stroke="#141b25" stroke-width="7" opacity="0.7"/><line x1="1138" y1="1995.8" x2="1262" y2="1995.8" stroke="#141b25" stroke-width="7" opacity="0.7"/><line x1="1138" y1="2029.8" x2="1262" y2="2029.8" stroke="#141b25" stroke-width="7" opacity="0.7"/><line x1="1138" y1="2063.8" x2="1262" y2="2063.8" stroke="#141b25" stroke-width="7" opacity="0.7"/><line x1="1138" y1="2097.8" x2="1262" y2="2097.8" stroke="#141b25" stroke-width="7" opacity="0.7"/><line x1="1138" y1="2131.8" x2="1262" y2="2131.8" stroke="#141b25" stroke-width="7" opacity="0.7"/><line x1="1138" y1="2165.8" x2="1262" y2="2165.8" stroke="#141b25" stroke-width="7" opacity="0.7"/><line x1="1138" y1="2199.8" x2="1262" y2="2199.8" stroke="#141b25" stroke-width="7" opacity="0.7"/><line x1="1138" y1="2233.8" x2="1262" y2="2233.8" stroke="#141b25" stroke-width="7" opacity="0.7"/><line x1="1138" y1="2267.8" x2="1262" y2="2267.8" stroke="#141b25" stroke-width="7" opacity="0.7"/><line x1="1138" y1="2301.8" x2="1262" y2="2301.8" stroke="#141b25" stroke-width="7" opacity="0.7"/><line x1="1138" y1="2335.8" x2="1262" y2="2335.8" stroke="#141b25" stroke-width="7" opacity="0.7"/><line x1="1138" y1="2369.8" x2="1262" y2="2369.8" stroke="#141b25" stroke-width="7" opacity="0.7"/><line x1="1138" y1="2403.8" x2="1262" y2="2403.8" stroke="#141b25" stroke-width="7" opacity="0.7"/><line x1="1138" y1="2437.8" x2="1262" y2="2437.8" stroke="#141b25" stroke-width="7" opacity="0.7"/><line x1="1138" y1="2471.8" x2="1262" y2="2471.8" stroke="#141b25" stroke-width="7" opacity="0.7"/><rect x="1090" y="1263.8" width="220" height="130" fill="#c9a227"/><rect x="1166" y="1301.8" width="68" height="92" fill="#141b25" opacity="0.85"/><rect x="150" y="2480" width="2100" height="30" fill="#c9a227"/><polyline points="240,252 301.9,190 363.9,252 425.8,190 487.7,252 549.7,190 611.6,252 673.5,190 735.5,252 797.4,190 859.4,252 921.3,190 983.2,252 1045.2,190 1107.1,252 1169,190 1231,252 1292.9,190 1354.8,252 1416.8,190 1478.7,252 1540.6,190 1602.6,252 1664.5,190 1726.5,252 1788.4,190 1850.3,252 1912.3,190 1974.2,252 2036.1,190 2098.1,252 2160,190 " fill="none" stroke="#c9a227" stroke-width="11.2" stroke-linejoin="miter"/><polyline points="240,2802 301.9,2740 363.9,2802 425.8,2740 487.7,2802 549.7,2740 611.6,2802 673.5,2740 735.5,2802 797.4,2740 859.4,2802 921.3,2740 983.2,2802 1045.2,2740 1107.1,2802 1169,2740 1231,2802 1292.9,2740 1354.8,2802 1416.8,2740 1478.7,2802 1540.6,2740 1602.6,2802 1664.5,2740 1726.5,2802 1788.4,2740 1850.3,2802 1912.3,2740 1974.2,2802 2036.1,2740 2098.1,2802 2160,2740 " fill="none" stroke="#c9a227" stroke-width="11.2" stroke-linejoin="miter"/><rect x="100" y="100" width="2200" height="2800" fill="none" stroke="#c9a227" stroke-width="9"/><rect x="142" y="142" width="2116" height="2716" fill="none" stroke="#c9a227" stroke-width="3" opacity="0.65"/></svg></svg>