<svg xmlns="http://www.w3.org/2000/svg" width="2400" height="1800" viewBox="0 0 2400 1800"><rect width="2400" height="1800" fill="#e8e2d6"/><rect y="1420" width="2400" height="380" fill="#cbb597"/><ellipse cx="1200" cy="1640" rx="760" ry="130" fill="#cfc7b2" opacity="0.55"/><ellipse cx="1200" cy="1640" rx="600" ry="96" fill="none" stroke="#96a396" stroke-width="10" opacity="0.5"/><rect x="700" y="1120" width="1000" height="300" rx="40" fill="#97a08c"/><rect x="640" y="1060" width="120" height="380" rx="40" fill="#87907c"/><rect x="1640" y="1060" width="120" height="380" rx="40" fill="#87907c"/><rect x="740" y="1010" width="920" height="180" rx="36" fill="#a3ac97"/><rect x="800" y="1060" width="240" height="160" rx="30" fill="#96a396"/><rect x="1380" y="1060" width="240" height="160" rx="30" fill="#cfc7b2"/><rect x="700" y="1420" width="26" height="120" fill="#6f6353"/><rect x="1674" y="1420" width="26" height="120" fill="#6f6353"/><path d="M360,1520 Q330,820 800,880" fill="none" stroke="#4c4438" stroke-width="16"/><path d="M760,870 L840,880 L810,960 L770,955 Z" fill="#4c4438"/><rect x="300" y="1510" width="130" height="20" rx="10" fill="#4c4438"/><path d="M2080,1500 Q 1918,1243.5 1837,1311" fill="none" stroke="#5d7052" stroke-width="21.6" stroke-linecap="round"/><path d="M2080,1500 Q 1972,1243.5 1918,1257" fill="none" stroke="#5d7052" stroke-width="21.6" stroke-linecap="round"/><path d="M2080,1500 Q 2026,1243.5 1999,1203" fill="none" stroke="#5d7052" stroke-width="21.6" stroke-linecap="round"/><path d="M2080,1500 Q 2080,1243.5 2080,1149" fill="none" stroke="#5d7052" stroke-width="21.6" stroke-linecap="round"/><path d="M2080,1500 Q 2134,1243.5 2161,1203" fill="none" stroke="#5d7052" stroke-width="21.6" stroke-linecap="round"/><path d="M2080,1500 Q 2188,1243.5 2242,1257" fill="none" stroke="#5d7052" stroke-width="21.6" stroke-linecap="round"/><path d="M2080,1500 Q 2242,1243.5 2323,1311" fill="none" stroke="#5d7052" stroke-width="21.6" stroke-linecap="round"/><path d="M1985.5,1500 L2174.5,1500 L2150.2,1648.5 L2009.8,1648.5 Z" fill="#a9714d"/><defs><filter id="a150l-sh" x="-30%" y="-30%" width="160%" height="160%"><feGaussianBlur stdDeviation="16"/></filter></defs><rect x="939" y="217" width="550" height="675" fill="#000" opacity="0.28" filter="url(#a150l-sh)"/><rect x="925" y="195" width="550" height="675" fill="#2e2823"/><rect x="941.3" y="211.3" width="517.5" height="642.5" fill="none" stroke="#00000055" stroke-width="3"/><rect x="950" y="220" width="500" height="625" fill="#f6f2ea"/><svg x="987.5" y="257.5" width="425" height="550" viewBox="0 0 2400 3000" preserveAspectRatio="xMidYMid slice"><rect width="2400" height="3000" fill="#e7e1d3"/><radialGradient id="a150-vig" cx="50%" cy="42%" r="80%"><stop offset="55%" stop-color="#000" stop-opacity="0"/><stop offset="100%" stop-color="#000" stop-opacity="0.15"/></radialGradient><rect width="2400" height="3000" fill="url(#a150-vig)"/><circle cx="1625.2" cy="2009.2" r="1.6" fill="#39685c" opacity="0.049"/><circle cx="2226.8" cy="2738.6" r="2.1" fill="#39685c" opacity="0.070"/><circle cx="1670.2" cy="319.4" r="2.7" fill="#39685c" opacity="0.047"/><circle cx="964.5" cy="2569.4" r="3.5" fill="#39685c" opacity="0.044"/><circle cx="1096.4" cy="1478.6" r="3" fill="#39685c" opacity="0.048"/><circle cx="620.5" cy="1051" r="2.5" fill="#39685c" opacity="0.051"/><circle cx="1737.6" cy="978.2" r="2.1" fill="#39685c" opacity="0.063"/><circle cx="1132.2" cy="2232.8" r="3" fill="#39685c" opacity="0.060"/><circle cx="788.2" cy="1656.6" r="3.5" fill="#39685c" opacity="0.065"/><circle cx="2199.8" cy="1589.1" r="2.3" fill="#39685c" opacity="0.071"/><circle cx="2017" cy="1764" r="4" fill="#39685c" opacity="0.062"/><circle cx="1699.6" cy="353.8" r="4.4" fill="#39685c" opacity="0.060"/><circle cx="2111.4" cy="2852.1" r="3.7" fill="#39685c" opacity="0.051"/><circle cx="754.1" cy="704.4" r="1.6" fill="#39685c" opacity="0.037"/><circle cx="2062.4" cy="496.1" r="3.3" fill="#39685c" opacity="0.043"/><circle cx="1469.5" cy="143.9" r="2" fill="#39685c" opacity="0.074"/><circle cx="271.8" cy="2519" r="3.2" fill="#39685c" opacity="0.057"/><circle cx="424.8" cy="341.1" r="3.2" fill="#39685c" opacity="0.035"/><circle cx="1037.4" cy="2395.9" r="2.9" fill="#39685c" opacity="0.079"/><circle cx="2344.9" cy="2213.3" r="4.5" fill="#39685c" opacity="0.038"/><circle cx="1199.3" cy="2559.2" r="2" fill="#39685c" opacity="0.061"/><circle cx="2212.5" cy="1565.9" r="1.8" fill="#39685c" opacity="0.068"/><circle cx="299.6" cy="2587.6" r="1.7" fill="#39685c" opacity="0.055"/><circle cx="110.2" cy="1938.9" r="3.2" fill="#39685c" opacity="0.046"/><circle cx="2262.2" cy="2116.1" r="3" fill="#39685c" opacity="0.067"/><circle cx="2241.7" cy="276" r="3.3" fill="#39685c" opacity="0.076"/><circle cx="2238.6" cy="233" r="2.8" fill="#39685c" opacity="0.076"/><circle cx="1051.3" cy="2409.4" r="2.6" fill="#39685c" opacity="0.041"/><circle cx="1917.1" cy="205.2" r="4.1" fill="#39685c" opacity="0.049"/><circle cx="315.4" cy="2951.1" r="1.7" fill="#39685c" opacity="0.036"/><circle cx="1384.1" cy="1034.1" r="4.1" fill="#39685c" opacity="0.073"/><circle cx="315.2" cy="2382.7" r="2.6" fill="#39685c" opacity="0.031"/><circle cx="263.6" cy="198.9" r="4.4" fill="#39685c" opacity="0.074"/><circle cx="2097.2" cy="2341.8" r="1.6" fill="#39685c" opacity="0.051"/><circle cx="1237.9" cy="2606.4" r="3.8" fill="#39685c" opacity="0.055"/><circle cx="1011.3" cy="2389.6" r="3.2" fill="#39685c" opacity="0.044"/><circle cx="1600.6" cy="389" r="2" fill="#39685c" opacity="0.079"/><circle cx="2262.1" cy="1810.9" r="1.7" fill="#39685c" opacity="0.033"/><circle cx="1676.3" cy="2694.9" r="2.8" fill="#39685c" opacity="0.051"/><circle cx="1656.4" cy="2505.7" r="2" fill="#39685c" opacity="0.047"/><circle cx="465.5" cy="446.9" r="1.5" fill="#39685c" opacity="0.074"/><circle cx="1679" cy="89" r="1.9" fill="#39685c" opacity="0.069"/><circle cx="1199.4" cy="1263.5" r="3.1" fill="#39685c" opacity="0.051"/><circle cx="732.1" cy="1414.2" r="2.9" fill="#39685c" opacity="0.056"/><circle cx="369.9" cy="477.4" r="3.5" fill="#39685c" opacity="0.056"/><circle cx="1980.6" cy="933.3" r="3.1" fill="#39685c" opacity="0.078"/><circle cx="183.5" cy="2079" r="2.6" fill="#39685c" opacity="0.039"/><circle cx="379.5" cy="304.8" r="3.7" fill="#39685c" opacity="0.034"/><circle cx="1945.8" cy="732.4" r="2.2" fill="#39685c" opacity="0.063"/><circle cx="1077.7" cy="1683.1" r="3.2" fill="#39685c" opacity="0.036"/><circle cx="1412.5" cy="1057" r="2.1" fill="#39685c" opacity="0.053"/><circle cx="199.4" cy="2397.1" r="4.1" fill="#39685c" opacity="0.055"/><circle cx="350.2" cy="1363.1" r="1.8" fill="#39685c" opacity="0.055"/><circle cx="1385.2" cy="1325.2" r="3.3" fill="#39685c" opacity="0.044"/><circle cx="2181.4" cy="2446.8" r="3.9" fill="#39685c" opacity="0.064"/><circle cx="2218" cy="2174.2" r="2.7" fill="#39685c" opacity="0.034"/><circle cx="1895.4" cy="2643.4" r="3.5" fill="#39685c" opacity="0.071"/><circle cx="1418.8" cy="125.8" r="3.5" fill="#39685c" opacity="0.064"/><circle cx="974.4" cy="557.6" r="2" fill="#39685c" opacity="0.039"/><circle cx="313" cy="639.8" r="2.2" fill="#39685c" opacity="0.073"/><circle cx="1848.5" cy="681.2" r="3.8" fill="#39685c" opacity="0.041"/><circle cx="1640.9" cy="2168.4" r="2.3" fill="#39685c" opacity="0.080"/><circle cx="1545.5" cy="2207" r="3.2" fill="#39685c" opacity="0.073"/><circle cx="1767.2" cy="1712.9" r="4.3" fill="#39685c" opacity="0.052"/><circle cx="1543.9" cy="2505" r="2.4" fill="#39685c" opacity="0.080"/><circle cx="1519.3" cy="1311.2" r="2.9" fill="#39685c" opacity="0.056"/><circle cx="834.3" cy="2643.5" r="2.2" fill="#39685c" opacity="0.079"/><circle cx="1519.9" cy="2503.8" r="3.6" fill="#39685c" opacity="0.079"/><circle cx="1603.3" cy="1358" r="3.6" fill="#39685c" opacity="0.051"/><circle cx="77.4" cy="2348.6" r="2.5" fill="#39685c" opacity="0.072"/><circle cx="1877.2" cy="698.9" r="3.6" fill="#39685c" opacity="0.073"/><circle cx="1916.5" cy="1900.1" r="2.1" fill="#39685c" opacity="0.048"/><circle cx="1769.3" cy="2069.3" r="4.2" fill="#39685c" opacity="0.058"/><circle cx="757.5" cy="2678.4" r="1.9" fill="#39685c" opacity="0.045"/><circle cx="606.9" cy="1964.2" r="4" fill="#39685c" opacity="0.060"/><circle cx="1077.9" cy="784.9" r="1.8" fill="#39685c" opacity="0.061"/><circle cx="1334.1" cy="1211.1" r="3.3" fill="#39685c" opacity="0.053"/><circle cx="1377.5" cy="161.4" r="4.5" fill="#39685c" opacity="0.073"/><circle cx="2083.4" cy="985.9" r="3.2" fill="#39685c" opacity="0.077"/><circle cx="2110" cy="1494.6" r="2.5" fill="#39685c" opacity="0.043"/><rect x="190" y="2434" width="2020" height="66" fill="#39685c" opacity="1"/><rect x="250" y="2368" width="1900" height="66" fill="#39685c" opacity="0.92"/><rect x="310" y="2302" width="1780" height="66" fill="#39685c" opacity="0.84"/><rect x="316" y="1300" width="108" height="1002" fill="#39685c"/><line x1="338.2" y1="1340" x2="338.2" y2="2288" stroke="#e7e1d3" stroke-width="7" opacity="0.5"/><line x1="370" y1="1340" x2="370" y2="2288" stroke="#e7e1d3" stroke-width="7" opacity="0.5"/><line x1="401.8" y1="1340" x2="401.8" y2="2288" stroke="#e7e1d3" stroke-width="7" opacity="0.5"/><rect x="294" y="1260" width="152" height="40" fill="#39685c"/><rect x="304" y="2298" width="132" height="30" fill="#39685c"/><rect x="731" y="1300" width="108" height="1002" fill="#39685c"/><line x1="753.2" y1="1340" x2="753.2" y2="2288" stroke="#e7e1d3" stroke-width="7" opacity="0.5"/><line x1="785" y1="1340" x2="785" y2="2288" stroke="#e7e1d3" stroke-width="7" opacity="0.5"/><line x1="816.8" y1="1340" x2="816.8" y2="2288" stroke="#e7e1d3" stroke-width="7" opacity="0.5"/><rect x="709" y="1260" width="152" height="40" fill="#39685c"/><rect x="719" y="2298" width="132" height="30" fill="#39685c"/><rect x="1146" y="1300" width="108" height="1002" fill="#39685c"/><line x1="1168.2" y1="1340" x2="1168.2" y2="2288" stroke="#e7e1d3" stroke-width="7" opacity="0.5"/><line x1="1200" y1="1340" x2="1200" y2="2288" stroke="#e7e1d3" stroke-width="7" opacity="0.5"/><line x1="1231.8" y1="1340" x2="1231.8" y2="2288" stroke="#e7e1d3" stroke-width="7" opacity="0.5"/><rect x="1124" y="1260" width="152" height="40" fill="#39685c"/><rect x="1134" y="2298" width="132" height="30" fill="#39685c"/><rect x="1561" y="1300" width="108" height="1002" fill="#39685c"/><line x1="1583.2" y1="1340" x2="1583.2" y2="2288" stroke="#e7e1d3" stroke-width="7" opacity="0.5"/><line x1="1615" y1="1340" x2="1615" y2="2288" stroke="#e7e1d3" stroke-width="7" opacity="0.5"/><line x1="1646.8" y1="1340" x2="1646.8" y2="2288" stroke="#e7e1d3" stroke-width="7" opacity="0.5"/><rect x="1539" y="1260" width="152" height="40" fill="#39685c"/><rect x="1549" y="2298" width="132" height="30" fill="#39685c"/><rect x="1976" y="1300" width="108" height="1002" fill="#39685c"/><line x1="1998.2" y1="1340" x2="1998.2" y2="2288" stroke="#e7e1d3" stroke-width="7" opacity="0.5"/><line x1="2030" y1="1340" x2="2030" y2="2288" stroke="#e7e1d3" stroke-width="7" opacity="0.5"/><line x1="2061.8" y1="1340" x2="2061.8" y2="2288" stroke="#e7e1d3" stroke-width="7" opacity="0.5"/><rect x="1954" y="1260" width="152" height="40" fill="#39685c"/><rect x="1964" y="2298" width="132" height="30" fill="#39685c"/><rect x="240" y="1176" width="1920" height="84" fill="#39685c"/><rect x="240" y="1046" width="1920" height="130" fill="#cfc7b2"/><rect x="275" y="1064" width="18" height="94" fill="#39685c"/><rect x="301" y="1064" width="18" height="94" fill="#39685c"/><rect x="327" y="1064" width="18" height="94" fill="#39685c"/><circle cx="421.3" cy="1111" r="30" fill="none" stroke="#39685c" stroke-width="10"/><rect x="497.5" y="1064" width="18" height="94" fill="#39685c"/><rect x="523.5" y="1064" width="18" height="94" fill="#39685c"/><rect x="549.5" y="1064" width="18" height="94" fill="#39685c"/><circle cx="643.8" cy="1111" r="30" fill="none" stroke="#39685c" stroke-width="10"/><rect x="720" y="1064" width="18" height="94" fill="#39685c"/><rect x="746" y="1064" width="18" height="94" fill="#39685c"/><rect x="772" y="1064" width="18" height="94" fill="#39685c"/><circle cx="866.3" cy="1111" r="30" fill="none" stroke="#39685c" stroke-width="10"/><rect x="942.5" y="1064" width="18" height="94" fill="#39685c"/><rect x="968.5" y="1064" width="18" height="94" fill="#39685c"/><rect x="994.5" y="1064" width="18" height="94" fill="#39685c"/><circle cx="1088.8" cy="1111" r="30" fill="none" stroke="#39685c" stroke-width="10"/><rect x="1165" y="1064" width="18" height="94" fill="#39685c"/><rect x="1191" y="1064" width="18" height="94" fill="#39685c"/><rect x="1217" y="1064" width="18" height="94" fill="#39685c"/><circle cx="1311.3" cy="1111" r="30" fill="none" stroke="#39685c" stroke-width="10"/><rect x="1387.5" y="1064" width="18" height="94" fill="#39685c"/><rect x="1413.5" y="1064" width="18" height="94" fill="#39685c"/><rect x="1439.5" y="1064" width="18" height="94" fill="#39685c"/><circle cx="1533.8" cy="1111" r="30" fill="none" stroke="#39685c" stroke-width="10"/><rect x="1610" y="1064" width="18" height="94" fill="#39685c"/><rect x="1636" y="1064" width="18" height="94" fill="#39685c"/><rect x="1662" y="1064" width="18" height="94" fill="#39685c"/><circle cx="1756.3" cy="1111" r="30" fill="none" stroke="#39685c" stroke-width="10"/><rect x="1832.5" y="1064" width="18" height="94" fill="#39685c"/><rect x="1858.5" y="1064" width="18" height="94" fill="#39685c"/><rect x="1884.5" y="1064" width="18" height="94" fill="#39685c"/><circle cx="1978.8" cy="1111" r="30" fill="none" stroke="#39685c" stroke-width="10"/><rect x="2055" y="1064" width="18" height="94" fill="#39685c"/><rect x="2081" y="1064" width="18" height="94" fill="#39685c"/><rect x="2107" y="1064" width="18" height="94" fill="#39685c"/><rect x="210" y="1000" width="1980" height="46" fill="#39685c"/><polygon points="210,1000 1200,636.3 2190,1000" fill="none" stroke="#39685c" stroke-width="26"/><polygon points="1200,788 1214.8,844.3 1265.1,814.9 1235.7,865.2 1292,880 1235.7,894.8 1265.1,945.1 1214.8,915.7 1200,972 1185.2,915.7 1134.9,945.1 1164.3,894.8 1108,880 1164.3,865.2 1134.9,814.9 1185.2,844.3 " fill="#96a396"/><circle cx="740" cy="930" r="34" fill="#96a396"/><circle cx="1660" cy="930" r="34" fill="#96a396"/><line x1="1200" y1="626.3" x2="1153.9" y2="584.8" stroke="#39685c" stroke-width="13" stroke-linecap="round"/><line x1="1200" y1="626.3" x2="1174.8" y2="569.6" stroke="#39685c" stroke-width="13" stroke-linecap="round"/><line x1="1200" y1="626.3" x2="1200" y2="564.3" stroke="#39685c" stroke-width="13" stroke-linecap="round"/><line x1="1200" y1="626.3" x2="1225.2" y2="569.6" stroke="#39685c" stroke-width="13" stroke-linecap="round"/><line x1="1200" y1="626.3" x2="1246.1" y2="584.8" stroke="#39685c" stroke-width="13" stroke-linecap="round"/><line x1="210" y1="990" x2="163.9" y2="948.5" stroke="#39685c" stroke-width="13" stroke-linecap="round"/><line x1="210" y1="990" x2="184.8" y2="933.4" stroke="#39685c" stroke-width="13" stroke-linecap="round"/><line x1="210" y1="990" x2="210" y2="928" stroke="#39685c" stroke-width="13" stroke-linecap="round"/><line x1="210" y1="990" x2="235.2" y2="933.4" stroke="#39685c" stroke-width="13" stroke-linecap="round"/><line x1="210" y1="990" x2="256.1" y2="948.5" stroke="#39685c" stroke-width="13" stroke-linecap="round"/><line x1="2190" y1="990" x2="2143.9" y2="948.5" stroke="#39685c" stroke-width="13" stroke-linecap="round"/><line x1="2190" y1="990" x2="2164.8" y2="933.4" stroke="#39685c" stroke-width="13" stroke-linecap="round"/><line x1="2190" y1="990" x2="2190" y2="928" stroke="#39685c" stroke-width="13" stroke-linecap="round"/><line x1="2190" y1="990" x2="2215.2" y2="933.4" stroke="#39685c" stroke-width="13" stroke-linecap="round"/><line x1="2190" y1="990" x2="2236.1" y2="948.5" stroke="#39685c" stroke-width="13" stroke-linecap="round"/><path d="M324.7,2797.3 L 395.3,2797.3 L 395.3,2726.7 L 339.8,2726.7 L 339.8,2770.4 L 368.4,2770.4 L 368.4,2748.6 M408.7,2797.3 L 479.3,2797.3 L 479.3,2726.7 L 423.8,2726.7 L 423.8,2770.4 L 452.4,2770.4 L 452.4,2748.6 M492.7,2797.3 L 563.3,2797.3 L 563.3,2726.7 L 507.8,2726.7 L 507.8,2770.4 L 536.4,2770.4 L 536.4,2748.6 M576.7,2797.3 L 647.3,2797.3 L 647.3,2726.7 L 591.8,2726.7 L 591.8,2770.4 L 620.4,2770.4 L 620.4,2748.6 M660.7,2797.3 L 731.3,2797.3 L 731.3,2726.7 L 675.8,2726.7 L 675.8,2770.4 L 704.4,2770.4 L 704.4,2748.6 M744.7,2797.3 L 815.3,2797.3 L 815.3,2726.7 L 759.8,2726.7 L 759.8,2770.4 L 788.4,2770.4 L 788.4,2748.6 M828.7,2797.3 L 899.3,2797.3 L 899.3,2726.7 L 843.8,2726.7 L 843.8,2770.4 L 872.4,2770.4 L 872.4,2748.6 M912.7,2797.3 L 983.3,2797.3 L 983.3,2726.7 L 927.8,2726.7 L 927.8,2770.4 L 956.4,2770.4 L 956.4,2748.6 M996.7,2797.3 L 1067.3,2797.3 L 1067.3,2726.7 L 1011.8,2726.7 L 1011.8,2770.4 L 1040.4,2770.4 L 1040.4,2748.6 M1080.7,2797.3 L 1151.3,2797.3 L 1151.3,2726.7 L 1095.8,2726.7 L 1095.8,2770.4 L 1124.4,2770.4 L 1124.4,2748.6 M1164.7,2797.3 L 1235.3,2797.3 L 1235.3,2726.7 L 1179.8,2726.7 L 1179.8,2770.4 L 1208.4,2770.4 L 1208.4,2748.6 M1248.7,2797.3 L 1319.3,2797.3 L 1319.3,2726.7 L 1263.8,2726.7 L 1263.8,2770.4 L 1292.4,2770.4 L 1292.4,2748.6 M1332.7,2797.3 L 1403.3,2797.3 L 1403.3,2726.7 L 1347.8,2726.7 L 1347.8,2770.4 L 1376.4,2770.4 L 1376.4,2748.6 M1416.7,2797.3 L 1487.3,2797.3 L 1487.3,2726.7 L 1431.8,2726.7 L 1431.8,2770.4 L 1460.4,2770.4 L 1460.4,2748.6 M1500.7,2797.3 L 1571.3,2797.3 L 1571.3,2726.7 L 1515.8,2726.7 L 1515.8,2770.4 L 1544.4,2770.4 L 1544.4,2748.6 M1584.7,2797.3 L 1655.3,2797.3 L 1655.3,2726.7 L 1599.8,2726.7 L 1599.8,2770.4 L 1628.4,2770.4 L 1628.4,2748.6 M1668.7,2797.3 L 1739.3,2797.3 L 1739.3,2726.7 L 1683.8,2726.7 L 1683.8,2770.4 L 1712.4,2770.4 L 1712.4,2748.6 M1752.7,2797.3 L 1823.3,2797.3 L 1823.3,2726.7 L 1767.8,2726.7 L 1767.8,2770.4 L 1796.4,2770.4 L 1796.4,2748.6 M1836.7,2797.3 L 1907.3,2797.3 L 1907.3,2726.7 L 1851.8,2726.7 L 1851.8,2770.4 L 1880.4,2770.4 L 1880.4,2748.6 M1920.7,2797.3 L 1991.3,2797.3 L 1991.3,2726.7 L 1935.8,2726.7 L 1935.8,2770.4 L 1964.4,2770.4 L 1964.4,2748.6 M2004.7,2797.3 L 2075.3,2797.3 L 2075.3,2726.7 L 2019.8,2726.7 L 2019.8,2770.4 L 2048.4,2770.4 L 2048.4,2748.6 " fill="none" stroke="#39685c" stroke-width="10.9"/><rect x="100" y="100" width="2200" height="2800" fill="none" stroke="#39685c" stroke-width="9"/><rect x="142" y="142" width="2116" height="2716" fill="none" stroke="#39685c" stroke-width="3" opacity="0.65"/></svg></svg>