<svg xmlns="http://www.w3.org/2000/svg" width="2400" height="1800" viewBox="0 0 2400 1800"><rect width="2400" height="1800" fill="#dfe4dc"/><rect y="1400" width="2400" height="400" fill="#c2a67e"/><line x1="60" y1="1400" x2="10" y2="1800" stroke="#00000015" stroke-width="5"/><line x1="260" y1="1400" x2="210" y2="1800" stroke="#00000015" stroke-width="5"/><line x1="460" y1="1400" x2="410" y2="1800" stroke="#00000015" stroke-width="5"/><line x1="660" y1="1400" x2="610" y2="1800" stroke="#00000015" stroke-width="5"/><line x1="860" y1="1400" x2="810" y2="1800" stroke="#00000015" stroke-width="5"/><line x1="1060" y1="1400" x2="1010" y2="1800" stroke="#00000015" stroke-width="5"/><line x1="1260" y1="1400" x2="1210" y2="1800" stroke="#00000015" stroke-width="5"/><line x1="1460" y1="1400" x2="1410" y2="1800" stroke="#00000015" stroke-width="5"/><line x1="1660" y1="1400" x2="1610" y2="1800" stroke="#00000015" stroke-width="5"/><line x1="1860" y1="1400" x2="1810" y2="1800" stroke="#00000015" stroke-width="5"/><line x1="2060" y1="1400" x2="2010" y2="1800" stroke="#00000015" stroke-width="5"/><line x1="2260" y1="1400" x2="2210" y2="1800" stroke="#00000015" stroke-width="5"/><rect x="180" y="260" width="900" height="620" fill="#8a6a48"/><rect x="215" y="295" width="830" height="550" fill="#41524a"/><line x1="280" y1="420" x2="760" y2="420" stroke="#ffffff66" stroke-width="9" stroke-linecap="round"/><line x1="280" y1="520" x2="620" y2="520" stroke="#ffffff44" stroke-width="9" stroke-linecap="round"/><circle cx="880" cy="560" r="90" fill="none" stroke="#ffffff55" stroke-width="8"/><rect x="215" y="845" width="830" height="22" fill="#6f5436"/><rect x="330" y="1240" width="640" height="60" rx="10" fill="#9c7449"/><rect x="370" y="1300" width="60" height="240" fill="#8a6540"/><rect x="870" y="1300" width="60" height="240" fill="#8a6540"/><rect x="430" y="1160" width="150" height="80" rx="8" fill="#cfc7b2"/><rect x="450" y="1120" width="150" height="40" rx="8" fill="#96a396"/><circle cx="800" cy="1130" r="86" fill="#7fa3b8"/><path d="M760,1060 Q820,1100 780,1190 M740,1090 Q800,1120 850,1100" stroke="#5d8069" stroke-width="16" fill="none" stroke-linecap="round"/><circle cx="800" cy="1130" r="86" fill="none" stroke="#6b5233" stroke-width="7"/><line x1="800" y1="1216" x2="800" y2="1250" stroke="#6b5233" stroke-width="10"/><rect x="750" y="1244" width="100" height="14" rx="7" fill="#6b5233"/><rect x="1980" y="700" width="300" height="800" fill="#9c7449"/><rect x="2000" y="930" width="260" height="16" fill="#7c5a37"/><rect x="2020" y="790" width="36" height="140" fill="#b3502f"/><rect x="2066" y="802" width="36" height="128" fill="#39685c"/><rect x="2112" y="790" width="36" height="140" fill="#c9a227"/><rect x="2158" y="802" width="36" height="128" fill="#2c4661"/><rect x="2204" y="790" width="36" height="140" fill="#8a4423"/><rect x="2000" y="1180" width="260" height="16" fill="#7c5a37"/><rect x="2020" y="1040" width="36" height="140" fill="#39685c"/><rect x="2066" y="1052" width="36" height="128" fill="#c9a227"/><rect x="2112" y="1040" width="36" height="140" fill="#2c4661"/><rect x="2158" y="1052" width="36" height="128" fill="#8a4423"/><rect x="2204" y="1040" width="36" height="140" fill="#b3502f"/><rect x="2000" y="1430" width="260" height="16" fill="#7c5a37"/><rect x="2020" y="1290" width="36" height="140" fill="#c9a227"/><rect x="2066" y="1302" width="36" height="128" fill="#2c4661"/><rect x="2112" y="1290" width="36" height="140" fill="#8a4423"/><rect x="2158" y="1302" width="36" height="128" fill="#b3502f"/><rect x="2204" y="1290" width="36" height="140" fill="#39685c"/><defs><filter id="a112c-sh" x="-30%" y="-30%" width="160%" height="160%"><feGaussianBlur stdDeviation="16"/></filter></defs><rect x="1340.5" y="298.5" width="517" height="635" fill="#000" opacity="0.28" filter="url(#a112c-sh)"/><rect x="1326.5" y="276.5" width="517" height="635" fill="#3d342a"/><rect x="1341.8" y="291.8" width="486.4" height="604.5" fill="none" stroke="#00000055" stroke-width="3"/><rect x="1350" y="300" width="470" height="588" fill="#f6f2ea"/><svg x="1385.3" y="335.3" width="399.5" height="517.5" viewBox="0 0 2400 3000" preserveAspectRatio="xMidYMid slice"><rect width="2400" height="3000" fill="#39685c"/><radialGradient id="a112-vig" cx="50%" cy="42%" r="80%"><stop offset="55%" stop-color="#000" stop-opacity="0"/><stop offset="100%" stop-color="#000" stop-opacity="0.15"/></radialGradient><rect width="2400" height="3000" fill="url(#a112-vig)"/><circle cx="1154.9" cy="2549" r="3.9" fill="#e7e1d3" opacity="0.078"/><circle cx="688.4" cy="786" r="2.7" fill="#e7e1d3" opacity="0.046"/><circle cx="315.9" cy="1796.9" r="2.9" fill="#e7e1d3" opacity="0.055"/><circle cx="782.8" cy="2542" r="3.6" fill="#e7e1d3" opacity="0.037"/><circle cx="771.7" cy="277.2" r="1.8" fill="#e7e1d3" opacity="0.039"/><circle cx="893.6" cy="2109.5" r="1.6" fill="#e7e1d3" opacity="0.039"/><circle cx="1929.3" cy="1482.9" r="3" fill="#e7e1d3" opacity="0.030"/><circle cx="671.1" cy="116.6" r="1.8" fill="#e7e1d3" opacity="0.077"/><circle cx="1883.3" cy="1097.1" r="2.7" fill="#e7e1d3" opacity="0.076"/><circle cx="95.4" cy="828.2" r="4.4" fill="#e7e1d3" opacity="0.054"/><circle cx="1503.7" cy="2382.9" r="2.6" fill="#e7e1d3" opacity="0.036"/><circle cx="2104" cy="1189.5" r="2.5" fill="#e7e1d3" opacity="0.074"/><circle cx="791.8" cy="2171.7" r="3.9" fill="#e7e1d3" opacity="0.031"/><circle cx="396.6" cy="2553.9" r="4.4" fill="#e7e1d3" opacity="0.032"/><circle cx="150.2" cy="2586.5" r="3" fill="#e7e1d3" opacity="0.048"/><circle cx="657.1" cy="665.7" r="2.6" fill="#e7e1d3" opacity="0.071"/><circle cx="40.7" cy="669.7" r="2.4" fill="#e7e1d3" opacity="0.074"/><circle cx="2194.9" cy="1004.4" r="3" fill="#e7e1d3" opacity="0.039"/><circle cx="1370.3" cy="2321.5" r="2.4" fill="#e7e1d3" opacity="0.050"/><circle cx="1072.4" cy="607.7" r="2.1" fill="#e7e1d3" opacity="0.040"/><circle cx="930.4" cy="2726.7" r="2.5" fill="#e7e1d3" opacity="0.052"/><circle cx="404.4" cy="870.2" r="3.3" fill="#e7e1d3" opacity="0.043"/><circle cx="48.1" cy="2199.7" r="4.4" fill="#e7e1d3" opacity="0.061"/><circle cx="2184" cy="1601.8" r="2.6" fill="#e7e1d3" opacity="0.069"/><circle cx="573.9" cy="817" r="2.9" fill="#e7e1d3" opacity="0.033"/><circle cx="1055" cy="1720.5" r="3.3" fill="#e7e1d3" opacity="0.035"/><circle cx="908.1" cy="1700" r="4" fill="#e7e1d3" opacity="0.061"/><circle cx="1126.1" cy="1231.1" r="2.9" fill="#e7e1d3" opacity="0.042"/><circle cx="848.6" cy="2334.6" r="1.7" fill="#e7e1d3" opacity="0.069"/><circle cx="1103.9" cy="838.1" r="3.8" fill="#e7e1d3" opacity="0.046"/><circle cx="284.5" cy="125.6" r="1.5" fill="#e7e1d3" opacity="0.040"/><circle cx="1594.1" cy="1337.7" r="2.8" fill="#e7e1d3" opacity="0.038"/><circle cx="372.6" cy="395.1" r="3.3" fill="#e7e1d3" opacity="0.038"/><circle cx="1085.2" cy="538.9" r="2.3" fill="#e7e1d3" opacity="0.073"/><circle cx="1244.2" cy="1429.7" r="3.6" fill="#e7e1d3" opacity="0.040"/><circle cx="1540.3" cy="1935.6" r="4.4" fill="#e7e1d3" opacity="0.074"/><circle cx="1627.1" cy="2167.4" r="2.1" fill="#e7e1d3" opacity="0.062"/><circle cx="1989.2" cy="2280.3" r="2.6" fill="#e7e1d3" opacity="0.059"/><circle cx="1150.9" cy="945.8" r="2.4" fill="#e7e1d3" opacity="0.038"/><circle cx="1758.2" cy="2374.1" r="2.5" fill="#e7e1d3" opacity="0.047"/><circle cx="115.5" cy="237.5" r="4.4" fill="#e7e1d3" opacity="0.067"/><circle cx="1457.7" cy="2082.5" r="4.4" fill="#e7e1d3" opacity="0.038"/><circle cx="2257.7" cy="797.7" r="2.9" fill="#e7e1d3" opacity="0.038"/><circle cx="497.1" cy="2501.2" r="3" fill="#e7e1d3" opacity="0.049"/><circle cx="709.4" cy="454.5" r="2.2" fill="#e7e1d3" opacity="0.038"/><circle cx="1895.4" cy="1763" r="1.7" fill="#e7e1d3" opacity="0.050"/><circle cx="1066.6" cy="1682.3" r="2.6" fill="#e7e1d3" opacity="0.065"/><circle cx="140.5" cy="2080.5" r="4.5" fill="#e7e1d3" opacity="0.077"/><circle cx="888.7" cy="2470.6" r="1.6" fill="#e7e1d3" opacity="0.065"/><circle cx="1756.6" cy="2885.6" r="4.1" fill="#e7e1d3" opacity="0.033"/><circle cx="1105.7" cy="983.2" r="3.6" fill="#e7e1d3" opacity="0.074"/><circle cx="1727.1" cy="1829.7" r="1.6" fill="#e7e1d3" opacity="0.060"/><circle cx="1146.6" cy="2186.5" r="1.6" fill="#e7e1d3" opacity="0.064"/><circle cx="648.6" cy="2515.1" r="2.7" fill="#e7e1d3" opacity="0.035"/><circle cx="1389.7" cy="123.8" r="2.1" fill="#e7e1d3" opacity="0.071"/><circle cx="1557" cy="288.5" r="4.2" fill="#e7e1d3" opacity="0.062"/><circle cx="1121.6" cy="442.5" r="3" fill="#e7e1d3" opacity="0.059"/><circle cx="1727.3" cy="902.2" r="3.7" fill="#e7e1d3" opacity="0.031"/><circle cx="558.5" cy="1830.5" r="2.4" fill="#e7e1d3" opacity="0.033"/><circle cx="1407.2" cy="371.7" r="3.9" fill="#e7e1d3" opacity="0.037"/><circle cx="1015" cy="2486" r="1.8" fill="#e7e1d3" opacity="0.070"/><circle cx="1564.2" cy="2785.8" r="2.2" fill="#e7e1d3" opacity="0.058"/><circle cx="503.6" cy="2665.2" r="4.4" fill="#e7e1d3" opacity="0.037"/><circle cx="314.4" cy="1031" r="3.7" fill="#e7e1d3" opacity="0.044"/><circle cx="2057.3" cy="523.5" r="3.8" fill="#e7e1d3" opacity="0.078"/><circle cx="2184.6" cy="1916.9" r="1.8" fill="#e7e1d3" opacity="0.047"/><circle cx="2344.8" cy="1938.7" r="2" fill="#e7e1d3" opacity="0.045"/><circle cx="1116.4" cy="2737.6" r="2.6" fill="#e7e1d3" opacity="0.037"/><circle cx="356.9" cy="801.9" r="3.4" fill="#e7e1d3" opacity="0.066"/><circle cx="1741.8" cy="1844.3" r="2.1" fill="#e7e1d3" opacity="0.033"/><circle cx="919.6" cy="2010" r="4" fill="#e7e1d3" opacity="0.056"/><circle cx="187.1" cy="1608.9" r="4" fill="#e7e1d3" opacity="0.042"/><circle cx="1518" cy="2259.7" r="4.2" fill="#e7e1d3" opacity="0.060"/><circle cx="1161.2" cy="65.6" r="3.4" fill="#e7e1d3" opacity="0.040"/><circle cx="214.3" cy="141.6" r="1.8" fill="#e7e1d3" opacity="0.056"/><circle cx="1981" cy="410.8" r="2.6" fill="#e7e1d3" opacity="0.076"/><circle cx="822.8" cy="2900.4" r="1.6" fill="#e7e1d3" opacity="0.078"/><circle cx="1601.4" cy="2875.5" r="3.8" fill="#e7e1d3" opacity="0.068"/><circle cx="1536.3" cy="785.8" r="4.4" fill="#e7e1d3" opacity="0.054"/><circle cx="1831.8" cy="2934.9" r="1.7" fill="#e7e1d3" opacity="0.058"/><circle cx="1200" cy="1400" r="1010" fill="none" stroke="#e7e1d3" stroke-width="10"/><circle cx="1200" cy="1400" r="964" fill="none" stroke="#e7e1d3" stroke-width="4" opacity="0.7"/><line x1="2170" y1="1400" x2="2210" y2="1400" stroke="#e7e1d3" stroke-width="10"/><line x1="2182.2" y1="1485.9" x2="2206.2" y2="1488" stroke="#e7e1d3" stroke-width="5"/><line x1="2171" y1="1571.2" x2="2194.7" y2="1575.4" stroke="#e7e1d3" stroke-width="5"/><line x1="2152.4" y1="1655.2" x2="2175.6" y2="1661.4" stroke="#e7e1d3" stroke-width="5"/><line x1="2126.5" y1="1737.2" x2="2149.1" y2="1745.4" stroke="#e7e1d3" stroke-width="5"/><line x1="2093.6" y1="1816.7" x2="2115.4" y2="1826.8" stroke="#e7e1d3" stroke-width="5"/><line x1="2040" y1="1885" x2="2074.7" y2="1905" stroke="#e7e1d3" stroke-width="10"/><line x1="2007.7" y1="1965.5" x2="2027.3" y2="1979.3" stroke="#e7e1d3" stroke-width="5"/><line x1="1955.3" y1="2033.8" x2="1973.7" y2="2049.2" stroke="#e7e1d3" stroke-width="5"/><line x1="1897.2" y1="2097.2" x2="1914.2" y2="2114.2" stroke="#e7e1d3" stroke-width="5"/><line x1="1833.8" y1="2155.3" x2="1849.2" y2="2173.7" stroke="#e7e1d3" stroke-width="5"/><line x1="1765.5" y1="2207.7" x2="1779.3" y2="2227.3" stroke="#e7e1d3" stroke-width="5"/><line x1="1685" y1="2240" x2="1705" y2="2274.7" stroke="#e7e1d3" stroke-width="10"/><line x1="1616.7" y1="2293.6" x2="1626.8" y2="2315.4" stroke="#e7e1d3" stroke-width="5"/><line x1="1537.2" y1="2326.5" x2="1545.4" y2="2349.1" stroke="#e7e1d3" stroke-width="5"/><line x1="1455.2" y1="2352.4" x2="1461.4" y2="2375.6" stroke="#e7e1d3" stroke-width="5"/><line x1="1371.2" y1="2371" x2="1375.4" y2="2394.7" stroke="#e7e1d3" stroke-width="5"/><line x1="1285.9" y1="2382.2" x2="1288" y2="2406.2" stroke="#e7e1d3" stroke-width="5"/><line x1="1200" y1="2370" x2="1200" y2="2410" stroke="#e7e1d3" stroke-width="10"/><line x1="1114.1" y1="2382.2" x2="1112" y2="2406.2" stroke="#e7e1d3" stroke-width="5"/><line x1="1028.8" y1="2371" x2="1024.6" y2="2394.7" stroke="#e7e1d3" stroke-width="5"/><line x1="944.8" y1="2352.4" x2="938.6" y2="2375.6" stroke="#e7e1d3" stroke-width="5"/><line x1="862.8" y1="2326.5" x2="854.6" y2="2349.1" stroke="#e7e1d3" stroke-width="5"/><line x1="783.3" y1="2293.6" x2="773.2" y2="2315.4" stroke="#e7e1d3" stroke-width="5"/><line x1="715" y1="2240" x2="695" y2="2274.7" stroke="#e7e1d3" stroke-width="10"/><line x1="634.5" y1="2207.7" x2="620.7" y2="2227.3" stroke="#e7e1d3" stroke-width="5"/><line x1="566.2" y1="2155.3" x2="550.8" y2="2173.7" stroke="#e7e1d3" stroke-width="5"/><line x1="502.8" y1="2097.2" x2="485.8" y2="2114.2" stroke="#e7e1d3" stroke-width="5"/><line x1="444.7" y1="2033.8" x2="426.3" y2="2049.2" stroke="#e7e1d3" stroke-width="5"/><line x1="392.3" y1="1965.5" x2="372.7" y2="1979.3" stroke="#e7e1d3" stroke-width="5"/><line x1="360" y1="1885" x2="325.3" y2="1905" stroke="#e7e1d3" stroke-width="10"/><line x1="306.4" y1="1816.7" x2="284.6" y2="1826.8" stroke="#e7e1d3" stroke-width="5"/><line x1="273.5" y1="1737.2" x2="250.9" y2="1745.4" stroke="#e7e1d3" stroke-width="5"/><line x1="247.6" y1="1655.2" x2="224.4" y2="1661.4" stroke="#e7e1d3" stroke-width="5"/><line x1="229" y1="1571.2" x2="205.3" y2="1575.4" stroke="#e7e1d3" stroke-width="5"/><line x1="217.8" y1="1485.9" x2="193.8" y2="1488" stroke="#e7e1d3" stroke-width="5"/><line x1="230" y1="1400" x2="190" y2="1400" stroke="#e7e1d3" stroke-width="10"/><line x1="217.8" y1="1314.1" x2="193.8" y2="1312" stroke="#e7e1d3" stroke-width="5"/><line x1="229" y1="1228.8" x2="205.3" y2="1224.6" stroke="#e7e1d3" stroke-width="5"/><line x1="247.6" y1="1144.8" x2="224.4" y2="1138.6" stroke="#e7e1d3" stroke-width="5"/><line x1="273.5" y1="1062.8" x2="250.9" y2="1054.6" stroke="#e7e1d3" stroke-width="5"/><line x1="306.4" y1="983.3" x2="284.6" y2="973.2" stroke="#e7e1d3" stroke-width="5"/><line x1="360" y1="915" x2="325.3" y2="895" stroke="#e7e1d3" stroke-width="10"/><line x1="392.3" y1="834.5" x2="372.7" y2="820.7" stroke="#e7e1d3" stroke-width="5"/><line x1="444.7" y1="766.2" x2="426.3" y2="750.8" stroke="#e7e1d3" stroke-width="5"/><line x1="502.8" y1="702.8" x2="485.8" y2="685.8" stroke="#e7e1d3" stroke-width="5"/><line x1="566.2" y1="644.7" x2="550.8" y2="626.3" stroke="#e7e1d3" stroke-width="5"/><line x1="634.5" y1="592.3" x2="620.7" y2="572.7" stroke="#e7e1d3" stroke-width="5"/><line x1="715" y1="560" x2="695" y2="525.3" stroke="#e7e1d3" stroke-width="10"/><line x1="783.3" y1="506.4" x2="773.2" y2="484.6" stroke="#e7e1d3" stroke-width="5"/><line x1="862.8" y1="473.5" x2="854.6" y2="450.9" stroke="#e7e1d3" stroke-width="5"/><line x1="944.8" y1="447.6" x2="938.6" y2="424.4" stroke="#e7e1d3" stroke-width="5"/><line x1="1028.8" y1="429" x2="1024.6" y2="405.3" stroke="#e7e1d3" stroke-width="5"/><line x1="1114.1" y1="417.8" x2="1112" y2="393.8" stroke="#e7e1d3" stroke-width="5"/><line x1="1200" y1="430" x2="1200" y2="390" stroke="#e7e1d3" stroke-width="10"/><line x1="1285.9" y1="417.8" x2="1288" y2="393.8" stroke="#e7e1d3" stroke-width="5"/><line x1="1371.2" y1="429" x2="1375.4" y2="405.3" stroke="#e7e1d3" stroke-width="5"/><line x1="1455.2" y1="447.6" x2="1461.4" y2="424.4" stroke="#e7e1d3" stroke-width="5"/><line x1="1537.2" y1="473.5" x2="1545.4" y2="450.9" stroke="#e7e1d3" stroke-width="5"/><line x1="1616.7" y1="506.4" x2="1626.8" y2="484.6" stroke="#e7e1d3" stroke-width="5"/><line x1="1685" y1="560" x2="1705" y2="525.3" stroke="#e7e1d3" stroke-width="10"/><line x1="1765.5" y1="592.3" x2="1779.3" y2="572.7" stroke="#e7e1d3" stroke-width="5"/><line x1="1833.8" y1="644.7" x2="1849.2" y2="626.3" stroke="#e7e1d3" stroke-width="5"/><line x1="1897.2" y1="702.8" x2="1914.2" y2="685.8" stroke="#e7e1d3" stroke-width="5"/><line x1="1955.3" y1="766.2" x2="1973.7" y2="750.8" stroke="#e7e1d3" stroke-width="5"/><line x1="2007.7" y1="834.5" x2="2027.3" y2="820.7" stroke="#e7e1d3" stroke-width="5"/><line x1="2040" y1="915" x2="2074.7" y2="895" stroke="#e7e1d3" stroke-width="10"/><line x1="2093.6" y1="983.3" x2="2115.4" y2="973.2" stroke="#e7e1d3" stroke-width="5"/><line x1="2126.5" y1="1062.8" x2="2149.1" y2="1054.6" stroke="#e7e1d3" stroke-width="5"/><line x1="2152.4" y1="1144.8" x2="2175.6" y2="1138.6" stroke="#e7e1d3" stroke-width="5"/><line x1="2171" y1="1228.8" x2="2194.7" y2="1224.6" stroke="#e7e1d3" stroke-width="5"/><line x1="2182.2" y1="1314.1" x2="2206.2" y2="1312" stroke="#e7e1d3" stroke-width="5"/><circle cx="1200" cy="1400" r="280" fill="none" stroke="#e7e1d3" stroke-width="3" opacity="0.28" stroke-dasharray="3 26"/><circle cx="1200" cy="1400" r="530" fill="none" stroke="#e7e1d3" stroke-width="3" opacity="0.28" stroke-dasharray="3 26"/><circle cx="1200" cy="1400" r="780" fill="none" stroke="#e7e1d3" stroke-width="3" opacity="0.28" stroke-dasharray="3 26"/><circle cx="737.5" cy="1823.2" r="6.4" fill="#e7e1d3" opacity="0.49"/><circle cx="711.7" cy="1759.3" r="3.9" fill="#e7e1d3" opacity="0.83"/><circle cx="418.7" cy="1331.2" r="6.4" fill="#e7e1d3" opacity="0.89"/><circle cx="781.9" cy="700.6" r="6.2" fill="#e7e1d3" opacity="0.62"/><circle cx="1772.6" cy="756.3" r="3.7" fill="#e7e1d3" opacity="0.61"/><circle cx="1828.8" cy="1014.2" r="4.1" fill="#e7e1d3" opacity="0.94"/><circle cx="1693.9" cy="2095.4" r="6.4" fill="#e7e1d3" opacity="0.62"/><circle cx="1752.1" cy="1725.2" r="3.8" fill="#e7e1d3" opacity="0.50"/><circle cx="1914.8" cy="1372" r="4.8" fill="#e7e1d3" opacity="0.75"/><circle cx="844.6" cy="1072" r="5.9" fill="#e7e1d3" opacity="0.88"/><circle cx="1633.5" cy="1040.3" r="4.1" fill="#e7e1d3" opacity="0.79"/><circle cx="1081.9" cy="928" r="6.3" fill="#e7e1d3" opacity="0.46"/><circle cx="1875.1" cy="1630.5" r="5" fill="#e7e1d3" opacity="0.50"/><circle cx="495" cy="1706.7" r="7.5" fill="#e7e1d3" opacity="0.46"/><circle cx="745.7" cy="640" r="8" fill="#e7e1d3" opacity="0.65"/><circle cx="1768.3" cy="1360.8" r="4.9" fill="#e7e1d3" opacity="0.61"/><circle cx="1206.7" cy="2199.7" r="7.5" fill="#e7e1d3" opacity="0.52"/><circle cx="293.1" cy="1548" r="4.9" fill="#e7e1d3" opacity="0.80"/><circle cx="935.6" cy="1710.1" r="6.5" fill="#e7e1d3" opacity="0.82"/><circle cx="1811" cy="1749.5" r="3.3" fill="#e7e1d3" opacity="0.69"/><circle cx="1770.1" cy="1752.3" r="3.2" fill="#e7e1d3" opacity="0.60"/><circle cx="1066" cy="914.6" r="6" fill="#e7e1d3" opacity="0.87"/><circle cx="700.6" cy="1075.2" r="4" fill="#e7e1d3" opacity="0.56"/><circle cx="1631.1" cy="1944.7" r="7.1" fill="#e7e1d3" opacity="0.79"/><circle cx="957.1" cy="1131.5" r="6.1" fill="#e7e1d3" opacity="0.70"/><circle cx="1596.7" cy="1496.7" r="6.6" fill="#e7e1d3" opacity="0.54"/><circle cx="2041.6" cy="1135.7" r="3.2" fill="#e7e1d3" opacity="0.51"/><circle cx="1291.2" cy="861.4" r="6.4" fill="#e7e1d3" opacity="0.80"/><circle cx="455.5" cy="1305.9" r="3.9" fill="#e7e1d3" opacity="0.86"/><circle cx="1233" cy="560.8" r="4.1" fill="#e7e1d3" opacity="0.99"/><circle cx="1574.4" cy="1193" r="5.5" fill="#e7e1d3" opacity="0.70"/><circle cx="1336.6" cy="1957.9" r="3.1" fill="#e7e1d3" opacity="0.99"/><circle cx="1057.1" cy="1659.5" r="4.1" fill="#e7e1d3" opacity="0.81"/><circle cx="1530.3" cy="1637.2" r="5.7" fill="#e7e1d3" opacity="0.68"/><circle cx="1637.1" cy="770.3" r="4.4" fill="#e7e1d3" opacity="0.46"/><circle cx="524.1" cy="1323.3" r="4.1" fill="#e7e1d3" opacity="0.72"/><circle cx="1477.3" cy="1464.5" r="7" fill="#e7e1d3" opacity="0.82"/><circle cx="2020.9" cy="1457.1" r="3.4" fill="#e7e1d3" opacity="0.69"/><circle cx="1258.4" cy="1699.7" r="7.1" fill="#e7e1d3" opacity="0.88"/><circle cx="1942.9" cy="1271.2" r="7" fill="#e7e1d3" opacity="0.69"/><circle cx="1203.4" cy="670.1" r="3.2" fill="#e7e1d3" opacity="0.46"/><circle cx="1308.1" cy="904.7" r="3.7" fill="#e7e1d3" opacity="0.59"/><circle cx="807.8" cy="1404.1" r="7.3" fill="#e7e1d3" opacity="0.48"/><circle cx="1485.3" cy="1128.6" r="3.1" fill="#e7e1d3" opacity="0.54"/><circle cx="1989.9" cy="1631.1" r="6.6" fill="#e7e1d3" opacity="0.77"/><circle cx="1026.4" cy="2098.9" r="7.2" fill="#e7e1d3" opacity="0.90"/><circle cx="561.7" cy="1706.9" r="5.3" fill="#e7e1d3" opacity="0.48"/><circle cx="1293.3" cy="1067.7" r="4.6" fill="#e7e1d3" opacity="0.47"/><circle cx="1741.7" cy="1245.4" r="5.2" fill="#e7e1d3" opacity="0.96"/><circle cx="1015.7" cy="724.5" r="6.2" fill="#e7e1d3" opacity="0.70"/><circle cx="1117.4" cy="1550.7" r="3.4" fill="#e7e1d3" opacity="0.78"/><circle cx="556.9" cy="1878.9" r="3.8" fill="#e7e1d3" opacity="0.93"/><circle cx="1228.1" cy="2201.1" r="4.2" fill="#e7e1d3" opacity="0.70"/><circle cx="450.7" cy="1355.5" r="6.3" fill="#e7e1d3" opacity="0.68"/><circle cx="1810.9" cy="1643.3" r="3.2" fill="#e7e1d3" opacity="0.92"/><circle cx="744.6" cy="1463.1" r="4.5" fill="#e7e1d3" opacity="0.53"/><circle cx="1284.9" cy="574" r="3.5" fill="#e7e1d3" opacity="0.62"/><circle cx="1129" cy="483.5" r="5" fill="#e7e1d3" opacity="0.56"/><circle cx="684.3" cy="1093.7" r="4.8" fill="#e7e1d3" opacity="0.61"/><circle cx="414.1" cy="1792.1" r="7.2" fill="#e7e1d3" opacity="0.52"/><circle cx="525.5" cy="845.5" r="3.4" fill="#e7e1d3" opacity="0.87"/><circle cx="1667.9" cy="1925.1" r="4.3" fill="#e7e1d3" opacity="0.86"/><circle cx="1826.5" cy="1681.8" r="5.8" fill="#e7e1d3" opacity="0.90"/><circle cx="419" cy="964.4" r="4.5" fill="#e7e1d3" opacity="0.66"/><path d="M1089.4,1022.4 Q1140.9,1013.1 1192.4,1022.4 Q1140.9,1031.7 1089.4,1022.4 Z M1140.9,970.9 Q1150.2,1022.4 1140.9,1073.9 Q1131.6,1022.4 1140.9,970.9 Z" fill="#e7e1d3"/><path d="M1903.7,1443.1 Q1965.1,1432 2026.6,1443.1 Q1965.1,1454.1 1903.7,1443.1 Z M1965.1,1381.6 Q1976.2,1443.1 1965.1,1504.5 Q1954.1,1443.1 1965.1,1381.6 Z" fill="#e7e1d3"/><path d="M594.9,823.1 Q630.6,816.7 666.3,823.1 Q630.6,829.5 594.9,823.1 Z M630.6,787.4 Q637,823.1 630.6,858.8 Q624.2,823.1 630.6,787.4 Z" fill="#e7e1d3"/><path d="M1596.5,1644.8 Q1651.9,1634.8 1707.2,1644.8 Q1651.9,1654.8 1596.5,1644.8 Z M1651.9,1589.5 Q1661.9,1644.8 1651.9,1700.2 Q1641.9,1644.8 1651.9,1589.5 Z" fill="#e7e1d3"/><path d="M1770.1,1091.6 Q1830.9,1080.6 1891.8,1091.6 Q1830.9,1102.6 1770.1,1091.6 Z M1830.9,1030.7 Q1841.9,1091.6 1830.9,1152.5 Q1820,1091.6 1830.9,1030.7 Z" fill="#e7e1d3"/><path d="M1557.6,1246.1 Q1605.2,1237.5 1652.8,1246.1 Q1605.2,1254.7 1557.6,1246.1 Z M1605.2,1198.5 Q1613.8,1246.1 1605.2,1293.7 Q1596.6,1246.1 1605.2,1198.5 Z" fill="#e7e1d3"/><polyline points="915.6,1021.3 973,981 931.2,792.2 906.1,881.1 801.5,768.5 " fill="none" stroke="#e7e1d3" stroke-width="4" opacity="0.55"/><circle cx="915.6" cy="1021.3" r="12" fill="#e7e1d3"/><circle cx="973" cy="981" r="9.3" fill="#e7e1d3"/><circle cx="931.2" cy="792.2" r="11.4" fill="#e7e1d3"/><circle cx="906.1" cy="881.1" r="9.5" fill="#e7e1d3"/><circle cx="801.5" cy="768.5" r="13.3" fill="#e7e1d3"/><polyline points="1469.2,1452.7 1419,1387.1 1623.7,1561.6 1493.8,1594.2 1411.3,1483.2 1442,1469.5 " fill="none" stroke="#e7e1d3" stroke-width="4" opacity="0.55"/><circle cx="1469.2" cy="1452.7" r="12" fill="#e7e1d3"/><circle cx="1419" cy="1387.1" r="12.4" fill="#e7e1d3"/><circle cx="1623.7" cy="1561.6" r="13.1" fill="#e7e1d3"/><circle cx="1493.8" cy="1594.2" r="13.1" fill="#e7e1d3"/><circle cx="1411.3" cy="1483.2" r="13.3" fill="#e7e1d3"/><circle cx="1442" cy="1469.5" r="12.7" fill="#e7e1d3"/><circle cx="1391.2" cy="789.2" r="88" fill="#e7e1d3"/><circle cx="1428.2" cy="773.4" r="77.4" fill="#39685c"/><path d="M370.1,2819.9 L 433.9,2819.9 L 433.9,2756.1 L 383.8,2756.1 L 383.8,2795.6 L 409.6,2795.6 L 409.6,2775.8 M446.1,2819.9 L 509.9,2819.9 L 509.9,2756.1 L 459.8,2756.1 L 459.8,2795.6 L 485.6,2795.6 L 485.6,2775.8 M522.1,2819.9 L 585.9,2819.9 L 585.9,2756.1 L 535.8,2756.1 L 535.8,2795.6 L 561.6,2795.6 L 561.6,2775.8 M598.1,2819.9 L 661.9,2819.9 L 661.9,2756.1 L 611.8,2756.1 L 611.8,2795.6 L 637.6,2795.6 L 637.6,2775.8 M674.1,2819.9 L 737.9,2819.9 L 737.9,2756.1 L 687.8,2756.1 L 687.8,2795.6 L 713.6,2795.6 L 713.6,2775.8 M750.1,2819.9 L 813.9,2819.9 L 813.9,2756.1 L 763.8,2756.1 L 763.8,2795.6 L 789.6,2795.6 L 789.6,2775.8 M826.1,2819.9 L 889.9,2819.9 L 889.9,2756.1 L 839.8,2756.1 L 839.8,2795.6 L 865.6,2795.6 L 865.6,2775.8 M902.1,2819.9 L 965.9,2819.9 L 965.9,2756.1 L 915.8,2756.1 L 915.8,2795.6 L 941.6,2795.6 L 941.6,2775.8 M978.1,2819.9 L 1041.9,2819.9 L 1041.9,2756.1 L 991.8,2756.1 L 991.8,2795.6 L 1017.6,2795.6 L 1017.6,2775.8 M1054.1,2819.9 L 1117.9,2819.9 L 1117.9,2756.1 L 1067.8,2756.1 L 1067.8,2795.6 L 1093.6,2795.6 L 1093.6,2775.8 M1130.1,2819.9 L 1193.9,2819.9 L 1193.9,2756.1 L 1143.8,2756.1 L 1143.8,2795.6 L 1169.6,2795.6 L 1169.6,2775.8 M1206.1,2819.9 L 1269.9,2819.9 L 1269.9,2756.1 L 1219.8,2756.1 L 1219.8,2795.6 L 1245.6,2795.6 L 1245.6,2775.8 M1282.1,2819.9 L 1345.9,2819.9 L 1345.9,2756.1 L 1295.8,2756.1 L 1295.8,2795.6 L 1321.6,2795.6 L 1321.6,2775.8 M1358.1,2819.9 L 1421.9,2819.9 L 1421.9,2756.1 L 1371.8,2756.1 L 1371.8,2795.6 L 1397.6,2795.6 L 1397.6,2775.8 M1434.1,2819.9 L 1497.9,2819.9 L 1497.9,2756.1 L 1447.8,2756.1 L 1447.8,2795.6 L 1473.6,2795.6 L 1473.6,2775.8 M1510.1,2819.9 L 1573.9,2819.9 L 1573.9,2756.1 L 1523.8,2756.1 L 1523.8,2795.6 L 1549.6,2795.6 L 1549.6,2775.8 M1586.1,2819.9 L 1649.9,2819.9 L 1649.9,2756.1 L 1599.8,2756.1 L 1599.8,2795.6 L 1625.6,2795.6 L 1625.6,2775.8 M1662.1,2819.9 L 1725.9,2819.9 L 1725.9,2756.1 L 1675.8,2756.1 L 1675.8,2795.6 L 1701.6,2795.6 L 1701.6,2775.8 M1738.1,2819.9 L 1801.9,2819.9 L 1801.9,2756.1 L 1751.8,2756.1 L 1751.8,2795.6 L 1777.6,2795.6 L 1777.6,2775.8 M1814.1,2819.9 L 1877.9,2819.9 L 1877.9,2756.1 L 1827.8,2756.1 L 1827.8,2795.6 L 1853.6,2795.6 L 1853.6,2775.8 M1890.1,2819.9 L 1953.9,2819.9 L 1953.9,2756.1 L 1903.8,2756.1 L 1903.8,2795.6 L 1929.6,2795.6 L 1929.6,2775.8 M1966.1,2819.9 L 2029.9,2819.9 L 2029.9,2756.1 L 1979.8,2756.1 L 1979.8,2795.6 L 2005.6,2795.6 L 2005.6,2775.8 " fill="none" stroke="#e7e1d3" stroke-width="9.9"/><rect x="100" y="100" width="2200" height="2800" fill="none" stroke="#e7e1d3" stroke-width="9"/><rect x="142" y="142" width="2116" height="2716" fill="none" stroke="#e7e1d3" stroke-width="3" opacity="0.65"/></svg></svg>