<svg xmlns="http://www.w3.org/2000/svg" width="2400" height="1800" viewBox="0 0 2400 1800"><rect width="2400" height="1800" fill="#e5ddcf"/><rect y="1430" width="2400" height="370" fill="#b89a76"/><line x1="100" y1="1430" x2="45" y2="1800" stroke="#00000016" stroke-width="5"/><line x1="330" y1="1430" x2="275" y2="1800" stroke="#00000016" stroke-width="5"/><line x1="560" y1="1430" x2="505" y2="1800" stroke="#00000016" stroke-width="5"/><line x1="790" y1="1430" x2="735" y2="1800" stroke="#00000016" stroke-width="5"/><line x1="1020" y1="1430" x2="965" y2="1800" stroke="#00000016" stroke-width="5"/><line x1="1250" y1="1430" x2="1195" y2="1800" stroke="#00000016" stroke-width="5"/><line x1="1480" y1="1430" x2="1425" y2="1800" stroke="#00000016" stroke-width="5"/><line x1="1710" y1="1430" x2="1655" y2="1800" stroke="#00000016" stroke-width="5"/><line x1="1940" y1="1430" x2="1885" y2="1800" stroke="#00000016" stroke-width="5"/><line x1="2170" y1="1430" x2="2115" y2="1800" stroke="#00000016" stroke-width="5"/><rect x="620" y="1180" width="1180" height="52" rx="10" fill="#8a6540"/><rect x="680" y="1232" width="70" height="330" fill="#775433"/><rect x="1670" y="1232" width="70" height="330" fill="#775433"/><rect x="760" y="1120" width="220" height="34" rx="6" fill="#e0a077"/><rect x="780" y="1086" width="200" height="34" rx="6" fill="#39685c"/><rect x="800" y="1052" width="170" height="34" rx="6" fill="#c9a227"/><circle cx="1240" cy="1130" r="46" fill="#3f3428"/><rect x="1226" y="1048" width="16" height="60" fill="#3f3428" transform="rotate(18 1240 1090)"/><rect x="1420" y="1100" width="260" height="26" rx="13" fill="#e8dcc0"/><rect x="1450" y="1072" width="260" height="26" rx="13" fill="#dfd0ad"/><rect x="1080" y="1300" width="360" height="34" rx="14" fill="#6f5436"/><rect x="1100" y="1334" width="40" height="220" fill="#6f5436"/><rect x="1380" y="1334" width="40" height="220" fill="#6f5436"/><rect x="1080" y="1030" width="42" height="290" rx="14" fill="#6f5436"/><rect x="260" y="480" width="560" height="24" fill="#8a6540"/><rect x="300" y="360" width="90" height="120" fill="#b3502f"/><rect x="400" y="380" width="80" height="100" fill="#2c4661"/><rect x="490" y="350" width="86" height="130" fill="#96a396"/><path d="M700,480 Q 616,347 574,382" fill="none" stroke="#5d7052" stroke-width="11.2" stroke-linecap="round"/><path d="M700,480 Q 644,347 616,354" fill="none" stroke="#5d7052" stroke-width="11.2" stroke-linecap="round"/><path d="M700,480 Q 672,347 658,326" fill="none" stroke="#5d7052" stroke-width="11.2" stroke-linecap="round"/><path d="M700,480 Q 700,347 700,298" fill="none" stroke="#5d7052" stroke-width="11.2" stroke-linecap="round"/><path d="M700,480 Q 728,347 742,326" fill="none" stroke="#5d7052" stroke-width="11.2" stroke-linecap="round"/><path d="M700,480 Q 756,347 784,354" fill="none" stroke="#5d7052" stroke-width="11.2" stroke-linecap="round"/><path d="M700,480 Q 784,347 826,382" fill="none" stroke="#5d7052" stroke-width="11.2" stroke-linecap="round"/><path d="M651,480 L749,480 L736.4,557 L663.6,557 Z" fill="#a9714d"/><path d="M320,1520 Q 164,1273 86,1338" fill="none" stroke="#5d7052" stroke-width="20.8" stroke-linecap="round"/><path d="M320,1520 Q 216,1273 164,1286" fill="none" stroke="#5d7052" stroke-width="20.8" stroke-linecap="round"/><path d="M320,1520 Q 268,1273 242,1234" fill="none" stroke="#5d7052" stroke-width="20.8" stroke-linecap="round"/><path d="M320,1520 Q 320,1273 320,1182" fill="none" stroke="#5d7052" stroke-width="20.8" stroke-linecap="round"/><path d="M320,1520 Q 372,1273 398,1234" fill="none" stroke="#5d7052" stroke-width="20.8" stroke-linecap="round"/><path d="M320,1520 Q 424,1273 476,1286" fill="none" stroke="#5d7052" stroke-width="20.8" stroke-linecap="round"/><path d="M320,1520 Q 476,1273 554,1338" fill="none" stroke="#5d7052" stroke-width="20.8" stroke-linecap="round"/><path d="M229,1520 L411,1520 L387.6,1663 L252.4,1663 Z" fill="#a9714d"/><defs><filter id="a118s-sh" x="-30%" y="-30%" width="160%" height="160%"><feGaussianBlur stdDeviation="16"/></filter></defs><rect x="1206" y="294" width="616" height="756" fill="#000" opacity="0.28" filter="url(#a118s-sh)"/><rect x="1192" y="272" width="616" height="756" fill="#443a2d"/><rect x="1210.2" y="290.2" width="579.6" height="719.6" fill="none" stroke="#00000055" stroke-width="3"/><rect x="1220" y="300" width="560" height="700" fill="#f6f2ea"/><svg x="1262" y="342" width="476" height="616" viewBox="0 0 2400 3000" preserveAspectRatio="xMidYMid slice"><rect width="2400" height="3000" fill="#211510"/><radialGradient id="a118-vig" cx="50%" cy="42%" r="80%"><stop offset="55%" stop-color="#000" stop-opacity="0"/><stop offset="100%" stop-color="#000" stop-opacity="0.15"/></radialGradient><rect width="2400" height="3000" fill="url(#a118-vig)"/><circle cx="208.3" cy="2543.8" r="1.6" fill="#c8703f" opacity="0.047"/><circle cx="697.3" cy="96.8" r="2.1" fill="#c8703f" opacity="0.042"/><circle cx="976.9" cy="2178.3" r="3.6" fill="#c8703f" opacity="0.033"/><circle cx="353.6" cy="1083.2" r="2.9" fill="#c8703f" opacity="0.074"/><circle cx="1891.8" cy="1476.6" r="3.3" fill="#c8703f" opacity="0.075"/><circle cx="344.1" cy="2950.4" r="3.1" fill="#c8703f" opacity="0.074"/><circle cx="1908.3" cy="267.9" r="3.3" fill="#c8703f" opacity="0.054"/><circle cx="1132.1" cy="1881.4" r="3.2" fill="#c8703f" opacity="0.079"/><circle cx="1739" cy="2343" r="1.5" fill="#c8703f" opacity="0.049"/><circle cx="411.3" cy="2165.6" r="2.4" fill="#c8703f" opacity="0.063"/><circle cx="1514.1" cy="1823.2" r="3.7" fill="#c8703f" opacity="0.063"/><circle cx="1192.7" cy="2373.5" r="4.4" fill="#c8703f" opacity="0.047"/><circle cx="1011.8" cy="380.9" r="2.8" fill="#c8703f" opacity="0.037"/><circle cx="1257.8" cy="1940.4" r="3.7" fill="#c8703f" opacity="0.055"/><circle cx="430.5" cy="1598.8" r="4.3" fill="#c8703f" opacity="0.040"/><circle cx="722.1" cy="2879.7" r="2.2" fill="#c8703f" opacity="0.076"/><circle cx="994.4" cy="727.9" r="3.1" fill="#c8703f" opacity="0.069"/><circle cx="589.6" cy="1603" r="2" fill="#c8703f" opacity="0.034"/><circle cx="935.1" cy="1608" r="2.6" fill="#c8703f" opacity="0.076"/><circle cx="1487.5" cy="172.4" r="2" fill="#c8703f" opacity="0.034"/><circle cx="1860.5" cy="1032.9" r="3.2" fill="#c8703f" opacity="0.057"/><circle cx="2242.6" cy="816.8" r="3.8" fill="#c8703f" opacity="0.053"/><circle cx="401" cy="2865.4" r="4.4" fill="#c8703f" opacity="0.073"/><circle cx="1158.9" cy="1784.1" r="4.2" fill="#c8703f" opacity="0.051"/><circle cx="920.8" cy="2827.1" r="2.8" fill="#c8703f" opacity="0.062"/><circle cx="1800.5" cy="1060.3" r="3.1" fill="#c8703f" opacity="0.066"/><circle cx="1185.3" cy="872.8" r="1.5" fill="#c8703f" opacity="0.056"/><circle cx="2205.9" cy="1309.2" r="4.5" fill="#c8703f" opacity="0.074"/><circle cx="151" cy="868" r="4.1" fill="#c8703f" opacity="0.071"/><circle cx="1334.6" cy="716.2" r="3.8" fill="#c8703f" opacity="0.050"/><circle cx="1539.8" cy="1605.2" r="4" fill="#c8703f" opacity="0.058"/><circle cx="940.9" cy="1892.3" r="3.4" fill="#c8703f" opacity="0.077"/><circle cx="216.4" cy="1989.4" r="3.7" fill="#c8703f" opacity="0.076"/><circle cx="249.3" cy="1411.2" r="2.8" fill="#c8703f" opacity="0.065"/><circle cx="1238.3" cy="1309.1" r="4.2" fill="#c8703f" opacity="0.074"/><circle cx="2210.8" cy="1849.3" r="3.8" fill="#c8703f" opacity="0.073"/><circle cx="2094" cy="1457.3" r="4.1" fill="#c8703f" opacity="0.035"/><circle cx="1351.4" cy="211.3" r="1.6" fill="#c8703f" opacity="0.046"/><circle cx="1850.3" cy="455.9" r="2.5" fill="#c8703f" opacity="0.049"/><circle cx="638.5" cy="2715.2" r="3.4" fill="#c8703f" opacity="0.044"/><circle cx="2082.8" cy="66" r="4.4" fill="#c8703f" opacity="0.076"/><circle cx="2247.2" cy="2505.6" r="3.4" fill="#c8703f" opacity="0.053"/><circle cx="102.3" cy="170.9" r="2.2" fill="#c8703f" opacity="0.060"/><circle cx="1360.3" cy="2015.6" r="2.4" fill="#c8703f" opacity="0.070"/><circle cx="1126.2" cy="493.6" r="2.2" fill="#c8703f" opacity="0.054"/><circle cx="792.8" cy="1163.6" r="4.5" fill="#c8703f" opacity="0.066"/><circle cx="1219" cy="412.3" r="4" fill="#c8703f" opacity="0.047"/><circle cx="1129.4" cy="1511.6" r="1.6" fill="#c8703f" opacity="0.040"/><circle cx="1328.2" cy="1271.8" r="3.8" fill="#c8703f" opacity="0.066"/><circle cx="1906.1" cy="2790.6" r="2.6" fill="#c8703f" opacity="0.041"/><circle cx="1451.7" cy="77.4" r="1.5" fill="#c8703f" opacity="0.046"/><circle cx="911.5" cy="1127.4" r="3.1" fill="#c8703f" opacity="0.039"/><circle cx="2087.4" cy="1657.9" r="3.7" fill="#c8703f" opacity="0.062"/><circle cx="1659.3" cy="1143.7" r="3.9" fill="#c8703f" opacity="0.074"/><circle cx="1377.5" cy="2510.3" r="4.2" fill="#c8703f" opacity="0.039"/><circle cx="465" cy="1712.7" r="4.5" fill="#c8703f" opacity="0.054"/><circle cx="2255.2" cy="2341.9" r="1.9" fill="#c8703f" opacity="0.080"/><circle cx="1802.8" cy="969" r="2.1" fill="#c8703f" opacity="0.064"/><circle cx="1772.6" cy="2937.2" r="3.6" fill="#c8703f" opacity="0.043"/><circle cx="1167.4" cy="128.2" r="2.1" fill="#c8703f" opacity="0.036"/><circle cx="1441.5" cy="1283.4" r="4.4" fill="#c8703f" opacity="0.037"/><circle cx="708.3" cy="2658.8" r="2" fill="#c8703f" opacity="0.069"/><circle cx="650.5" cy="127.3" r="3" fill="#c8703f" opacity="0.075"/><circle cx="1567.3" cy="164.3" r="2.7" fill="#c8703f" opacity="0.045"/><circle cx="778.7" cy="1346.1" r="2.7" fill="#c8703f" opacity="0.067"/><circle cx="1248.7" cy="438.5" r="4.4" fill="#c8703f" opacity="0.040"/><circle cx="2193.4" cy="244" r="3.3" fill="#c8703f" opacity="0.065"/><circle cx="1816.4" cy="2292.8" r="2.1" fill="#c8703f" opacity="0.077"/><circle cx="2275.7" cy="2742.8" r="2.8" fill="#c8703f" opacity="0.058"/><circle cx="451.4" cy="1811" r="2.3" fill="#c8703f" opacity="0.035"/><circle cx="629.3" cy="821.5" r="2.8" fill="#c8703f" opacity="0.056"/><circle cx="1750.9" cy="1172.3" r="3" fill="#c8703f" opacity="0.061"/><circle cx="272" cy="1751" r="2.9" fill="#c8703f" opacity="0.066"/><circle cx="1923.3" cy="2303.1" r="2.9" fill="#c8703f" opacity="0.063"/><circle cx="1498.7" cy="2675.4" r="2.3" fill="#c8703f" opacity="0.077"/><circle cx="2127.8" cy="443.7" r="4" fill="#c8703f" opacity="0.064"/><circle cx="253.5" cy="2794.1" r="3.3" fill="#c8703f" opacity="0.045"/><circle cx="363.5" cy="2941.7" r="1.8" fill="#c8703f" opacity="0.049"/><circle cx="1267.2" cy="2041.8" r="2.1" fill="#c8703f" opacity="0.057"/><circle cx="195.3" cy="1814.4" r="3" fill="#c8703f" opacity="0.052"/><circle cx="1200" cy="1400" r="1010" fill="none" stroke="#c8703f" stroke-width="10"/><circle cx="1200" cy="1400" r="964" fill="none" stroke="#c8703f" stroke-width="4" opacity="0.7"/><line x1="2170" y1="1400" x2="2210" y2="1400" stroke="#c8703f" stroke-width="10"/><line x1="2182.2" y1="1485.9" x2="2206.2" y2="1488" stroke="#c8703f" stroke-width="5"/><line x1="2171" y1="1571.2" x2="2194.7" y2="1575.4" stroke="#c8703f" stroke-width="5"/><line x1="2152.4" y1="1655.2" x2="2175.6" y2="1661.4" stroke="#c8703f" stroke-width="5"/><line x1="2126.5" y1="1737.2" x2="2149.1" y2="1745.4" stroke="#c8703f" stroke-width="5"/><line x1="2093.6" y1="1816.7" x2="2115.4" y2="1826.8" stroke="#c8703f" stroke-width="5"/><line x1="2040" y1="1885" x2="2074.7" y2="1905" stroke="#c8703f" stroke-width="10"/><line x1="2007.7" y1="1965.5" x2="2027.3" y2="1979.3" stroke="#c8703f" stroke-width="5"/><line x1="1955.3" y1="2033.8" x2="1973.7" y2="2049.2" stroke="#c8703f" stroke-width="5"/><line x1="1897.2" y1="2097.2" x2="1914.2" y2="2114.2" stroke="#c8703f" stroke-width="5"/><line x1="1833.8" y1="2155.3" x2="1849.2" y2="2173.7" stroke="#c8703f" stroke-width="5"/><line x1="1765.5" y1="2207.7" x2="1779.3" y2="2227.3" stroke="#c8703f" stroke-width="5"/><line x1="1685" y1="2240" x2="1705" y2="2274.7" stroke="#c8703f" stroke-width="10"/><line x1="1616.7" y1="2293.6" x2="1626.8" y2="2315.4" stroke="#c8703f" stroke-width="5"/><line x1="1537.2" y1="2326.5" x2="1545.4" y2="2349.1" stroke="#c8703f" stroke-width="5"/><line x1="1455.2" y1="2352.4" x2="1461.4" y2="2375.6" stroke="#c8703f" stroke-width="5"/><line x1="1371.2" y1="2371" x2="1375.4" y2="2394.7" stroke="#c8703f" stroke-width="5"/><line x1="1285.9" y1="2382.2" x2="1288" y2="2406.2" stroke="#c8703f" stroke-width="5"/><line x1="1200" y1="2370" x2="1200" y2="2410" stroke="#c8703f" stroke-width="10"/><line x1="1114.1" y1="2382.2" x2="1112" y2="2406.2" stroke="#c8703f" stroke-width="5"/><line x1="1028.8" y1="2371" x2="1024.6" y2="2394.7" stroke="#c8703f" stroke-width="5"/><line x1="944.8" y1="2352.4" x2="938.6" y2="2375.6" stroke="#c8703f" stroke-width="5"/><line x1="862.8" y1="2326.5" x2="854.6" y2="2349.1" stroke="#c8703f" stroke-width="5"/><line x1="783.3" y1="2293.6" x2="773.2" y2="2315.4" stroke="#c8703f" stroke-width="5"/><line x1="715" y1="2240" x2="695" y2="2274.7" stroke="#c8703f" stroke-width="10"/><line x1="634.5" y1="2207.7" x2="620.7" y2="2227.3" stroke="#c8703f" stroke-width="5"/><line x1="566.2" y1="2155.3" x2="550.8" y2="2173.7" stroke="#c8703f" stroke-width="5"/><line x1="502.8" y1="2097.2" x2="485.8" y2="2114.2" stroke="#c8703f" stroke-width="5"/><line x1="444.7" y1="2033.8" x2="426.3" y2="2049.2" stroke="#c8703f" stroke-width="5"/><line x1="392.3" y1="1965.5" x2="372.7" y2="1979.3" stroke="#c8703f" stroke-width="5"/><line x1="360" y1="1885" x2="325.3" y2="1905" stroke="#c8703f" stroke-width="10"/><line x1="306.4" y1="1816.7" x2="284.6" y2="1826.8" stroke="#c8703f" stroke-width="5"/><line x1="273.5" y1="1737.2" x2="250.9" y2="1745.4" stroke="#c8703f" stroke-width="5"/><line x1="247.6" y1="1655.2" x2="224.4" y2="1661.4" stroke="#c8703f" stroke-width="5"/><line x1="229" y1="1571.2" x2="205.3" y2="1575.4" stroke="#c8703f" stroke-width="5"/><line x1="217.8" y1="1485.9" x2="193.8" y2="1488" stroke="#c8703f" stroke-width="5"/><line x1="230" y1="1400" x2="190" y2="1400" stroke="#c8703f" stroke-width="10"/><line x1="217.8" y1="1314.1" x2="193.8" y2="1312" stroke="#c8703f" stroke-width="5"/><line x1="229" y1="1228.8" x2="205.3" y2="1224.6" stroke="#c8703f" stroke-width="5"/><line x1="247.6" y1="1144.8" x2="224.4" y2="1138.6" stroke="#c8703f" stroke-width="5"/><line x1="273.5" y1="1062.8" x2="250.9" y2="1054.6" stroke="#c8703f" stroke-width="5"/><line x1="306.4" y1="983.3" x2="284.6" y2="973.2" stroke="#c8703f" stroke-width="5"/><line x1="360" y1="915" x2="325.3" y2="895" stroke="#c8703f" stroke-width="10"/><line x1="392.3" y1="834.5" x2="372.7" y2="820.7" stroke="#c8703f" stroke-width="5"/><line x1="444.7" y1="766.2" x2="426.3" y2="750.8" stroke="#c8703f" stroke-width="5"/><line x1="502.8" y1="702.8" x2="485.8" y2="685.8" stroke="#c8703f" stroke-width="5"/><line x1="566.2" y1="644.7" x2="550.8" y2="626.3" stroke="#c8703f" stroke-width="5"/><line x1="634.5" y1="592.3" x2="620.7" y2="572.7" stroke="#c8703f" stroke-width="5"/><line x1="715" y1="560" x2="695" y2="525.3" stroke="#c8703f" stroke-width="10"/><line x1="783.3" y1="506.4" x2="773.2" y2="484.6" stroke="#c8703f" stroke-width="5"/><line x1="862.8" y1="473.5" x2="854.6" y2="450.9" stroke="#c8703f" stroke-width="5"/><line x1="944.8" y1="447.6" x2="938.6" y2="424.4" stroke="#c8703f" stroke-width="5"/><line x1="1028.8" y1="429" x2="1024.6" y2="405.3" stroke="#c8703f" stroke-width="5"/><line x1="1114.1" y1="417.8" x2="1112" y2="393.8" stroke="#c8703f" stroke-width="5"/><line x1="1200" y1="430" x2="1200" y2="390" stroke="#c8703f" stroke-width="10"/><line x1="1285.9" y1="417.8" x2="1288" y2="393.8" stroke="#c8703f" stroke-width="5"/><line x1="1371.2" y1="429" x2="1375.4" y2="405.3" stroke="#c8703f" stroke-width="5"/><line x1="1455.2" y1="447.6" x2="1461.4" y2="424.4" stroke="#c8703f" stroke-width="5"/><line x1="1537.2" y1="473.5" x2="1545.4" y2="450.9" stroke="#c8703f" stroke-width="5"/><line x1="1616.7" y1="506.4" x2="1626.8" y2="484.6" stroke="#c8703f" stroke-width="5"/><line x1="1685" y1="560" x2="1705" y2="525.3" stroke="#c8703f" stroke-width="10"/><line x1="1765.5" y1="592.3" x2="1779.3" y2="572.7" stroke="#c8703f" stroke-width="5"/><line x1="1833.8" y1="644.7" x2="1849.2" y2="626.3" stroke="#c8703f" stroke-width="5"/><line x1="1897.2" y1="702.8" x2="1914.2" y2="685.8" stroke="#c8703f" stroke-width="5"/><line x1="1955.3" y1="766.2" x2="1973.7" y2="750.8" stroke="#c8703f" stroke-width="5"/><line x1="2007.7" y1="834.5" x2="2027.3" y2="820.7" stroke="#c8703f" stroke-width="5"/><line x1="2040" y1="915" x2="2074.7" y2="895" stroke="#c8703f" stroke-width="10"/><line x1="2093.6" y1="983.3" x2="2115.4" y2="973.2" stroke="#c8703f" stroke-width="5"/><line x1="2126.5" y1="1062.8" x2="2149.1" y2="1054.6" stroke="#c8703f" stroke-width="5"/><line x1="2152.4" y1="1144.8" x2="2175.6" y2="1138.6" stroke="#c8703f" stroke-width="5"/><line x1="2171" y1="1228.8" x2="2194.7" y2="1224.6" stroke="#c8703f" stroke-width="5"/><line x1="2182.2" y1="1314.1" x2="2206.2" y2="1312" stroke="#c8703f" stroke-width="5"/><circle cx="1200" cy="1400" r="280" fill="none" stroke="#c8703f" stroke-width="3" opacity="0.28" stroke-dasharray="3 26"/><circle cx="1200" cy="1400" r="530" fill="none" stroke="#c8703f" stroke-width="3" opacity="0.28" stroke-dasharray="3 26"/><circle cx="1200" cy="1400" r="780" fill="none" stroke="#c8703f" stroke-width="3" opacity="0.28" stroke-dasharray="3 26"/><circle cx="1620.3" cy="1417" r="6.6" fill="#c8703f" opacity="0.98"/><circle cx="1905.6" cy="917.1" r="5.7" fill="#c8703f" opacity="0.79"/><circle cx="1064.3" cy="1446" r="6.3" fill="#c8703f" opacity="0.94"/><circle cx="2004.8" cy="1842.7" r="7.9" fill="#c8703f" opacity="0.69"/><circle cx="1858.4" cy="1132.9" r="5.9" fill="#c8703f" opacity="0.50"/><circle cx="313.1" cy="1486.3" r="5" fill="#c8703f" opacity="0.79"/><circle cx="734.7" cy="901.6" r="3" fill="#c8703f" opacity="0.57"/><circle cx="1070.1" cy="1392.3" r="4.2" fill="#c8703f" opacity="0.84"/><circle cx="752" cy="2182.1" r="5.3" fill="#c8703f" opacity="0.75"/><circle cx="1678" cy="1737.5" r="5.4" fill="#c8703f" opacity="0.53"/><circle cx="1551.5" cy="1128.2" r="7.8" fill="#c8703f" opacity="0.95"/><circle cx="1064.8" cy="1319.4" r="7.7" fill="#c8703f" opacity="0.92"/><circle cx="618" cy="913" r="5" fill="#c8703f" opacity="0.60"/><circle cx="1090.4" cy="571" r="4.1" fill="#c8703f" opacity="0.56"/><circle cx="1023.9" cy="1441.8" r="4.3" fill="#c8703f" opacity="0.81"/><circle cx="1742" cy="2038.8" r="4.5" fill="#c8703f" opacity="0.85"/><circle cx="925.7" cy="1103" r="7.1" fill="#c8703f" opacity="0.46"/><circle cx="1315.3" cy="748.7" r="7.7" fill="#c8703f" opacity="0.73"/><circle cx="743.2" cy="799.7" r="3.6" fill="#c8703f" opacity="0.59"/><circle cx="1298.4" cy="969.6" r="7.1" fill="#c8703f" opacity="0.67"/><circle cx="1267" cy="1440.8" r="4" fill="#c8703f" opacity="0.74"/><circle cx="1272.8" cy="943.9" r="4.7" fill="#c8703f" opacity="0.47"/><circle cx="1302.2" cy="1140" r="5.2" fill="#c8703f" opacity="0.79"/><circle cx="2005.1" cy="1374.8" r="3.4" fill="#c8703f" opacity="0.71"/><circle cx="1455.7" cy="1118" r="4.4" fill="#c8703f" opacity="0.89"/><circle cx="1258" cy="748.9" r="7.8" fill="#c8703f" opacity="0.83"/><circle cx="762.7" cy="1739.5" r="7.5" fill="#c8703f" opacity="0.56"/><circle cx="1718" cy="1239.4" r="4.1" fill="#c8703f" opacity="0.58"/><circle cx="1293" cy="1479.7" r="6.5" fill="#c8703f" opacity="0.65"/><circle cx="880.7" cy="565.4" r="3.4" fill="#c8703f" opacity="0.47"/><circle cx="2010.1" cy="1756.9" r="7.1" fill="#c8703f" opacity="0.52"/><circle cx="501.5" cy="1894.4" r="6.3" fill="#c8703f" opacity="0.94"/><circle cx="1773.2" cy="1179.1" r="3.1" fill="#c8703f" opacity="0.73"/><circle cx="2024.2" cy="1379" r="6.2" fill="#c8703f" opacity="0.58"/><circle cx="1736.7" cy="743.3" r="3.6" fill="#c8703f" opacity="0.69"/><circle cx="1550.2" cy="1095.3" r="5.7" fill="#c8703f" opacity="0.71"/><circle cx="1491.2" cy="1283.4" r="5.2" fill="#c8703f" opacity="1.00"/><circle cx="2026" cy="1265.6" r="3" fill="#c8703f" opacity="0.65"/><circle cx="1197.4" cy="1964.9" r="6" fill="#c8703f" opacity="0.77"/><circle cx="1579.1" cy="973.8" r="6.6" fill="#c8703f" opacity="0.94"/><circle cx="522.5" cy="1279.4" r="4.4" fill="#c8703f" opacity="0.62"/><circle cx="1737.8" cy="1715.5" r="3.4" fill="#c8703f" opacity="0.99"/><circle cx="1864.8" cy="1321.1" r="6.9" fill="#c8703f" opacity="0.71"/><circle cx="1197.3" cy="2254.2" r="7" fill="#c8703f" opacity="0.85"/><circle cx="1767.4" cy="1304.8" r="4.9" fill="#c8703f" opacity="0.65"/><circle cx="510.8" cy="1761.3" r="5.6" fill="#c8703f" opacity="0.86"/><circle cx="974.7" cy="1551.1" r="3.8" fill="#c8703f" opacity="0.49"/><circle cx="1002.7" cy="772.1" r="6.3" fill="#c8703f" opacity="0.48"/><circle cx="934.2" cy="1298.4" r="3.2" fill="#c8703f" opacity="0.51"/><circle cx="704.9" cy="1135.3" r="6.6" fill="#c8703f" opacity="0.47"/><circle cx="665.9" cy="1760.4" r="5.6" fill="#c8703f" opacity="0.99"/><circle cx="752.4" cy="1993.2" r="6.6" fill="#c8703f" opacity="0.66"/><circle cx="1482.7" cy="1467.6" r="5.4" fill="#c8703f" opacity="0.78"/><circle cx="1087.9" cy="916.8" r="5.9" fill="#c8703f" opacity="0.60"/><circle cx="1663.4" cy="1381.6" r="4.7" fill="#c8703f" opacity="0.90"/><circle cx="1450.5" cy="1469.8" r="7.3" fill="#c8703f" opacity="0.52"/><circle cx="690.2" cy="1104.6" r="4.2" fill="#c8703f" opacity="0.91"/><circle cx="932.5" cy="642.4" r="5.2" fill="#c8703f" opacity="0.61"/><circle cx="1966.5" cy="1774.9" r="6.6" fill="#c8703f" opacity="0.59"/><circle cx="1600" cy="1256" r="7.2" fill="#c8703f" opacity="0.87"/><circle cx="736.1" cy="972.2" r="3.4" fill="#c8703f" opacity="0.53"/><circle cx="916" cy="1213.1" r="6.7" fill="#c8703f" opacity="0.56"/><circle cx="1121.8" cy="1906.4" r="3.6" fill="#c8703f" opacity="0.83"/><circle cx="1223.6" cy="1218.3" r="4.9" fill="#c8703f" opacity="0.61"/><circle cx="1399.4" cy="1212.4" r="4.2" fill="#c8703f" opacity="0.80"/><circle cx="965.4" cy="2225.5" r="4.7" fill="#c8703f" opacity="0.71"/><circle cx="1777.7" cy="1608.2" r="4" fill="#c8703f" opacity="0.76"/><circle cx="1970.2" cy="1451.2" r="6.1" fill="#c8703f" opacity="0.82"/><circle cx="1493.4" cy="915" r="3.9" fill="#c8703f" opacity="0.81"/><path d="M1388.7,1633.9 Q1446.4,1623.5 1504.2,1633.9 Q1446.4,1644.3 1388.7,1633.9 Z M1446.4,1576.2 Q1456.8,1633.9 1446.4,1691.6 Q1436,1633.9 1446.4,1576.2 Z" fill="#c8703f"/><path d="M1032.6,2047.2 Q1089,2037.1 1145.4,2047.2 Q1089,2057.4 1032.6,2047.2 Z M1089,1990.8 Q1099.1,2047.2 1089,2103.6 Q1078.9,2047.2 1089,1990.8 Z" fill="#c8703f"/><path d="M623.3,1377.8 Q674.3,1368.7 725.3,1377.8 Q674.3,1387 623.3,1377.8 Z M674.3,1326.8 Q683.5,1377.8 674.3,1428.9 Q665.1,1377.8 674.3,1326.8 Z" fill="#c8703f"/><path d="M886.3,616.9 Q928.2,609.3 970.1,616.9 Q928.2,624.4 886.3,616.9 Z M928.2,575 Q935.7,616.9 928.2,658.7 Q920.7,616.9 928.2,575 Z" fill="#c8703f"/><path d="M1588.5,1028 Q1641.5,1018.5 1694.4,1028 Q1641.5,1037.5 1588.5,1028 Z M1641.5,975.1 Q1651,1028 1641.5,1080.9 Q1631.9,1028 1641.5,975.1 Z" fill="#c8703f"/><path d="M1134.9,1764.1 Q1175.5,1756.8 1216.1,1764.1 Q1175.5,1771.4 1134.9,1764.1 Z M1175.5,1723.5 Q1182.8,1764.1 1175.5,1804.7 Q1168.2,1764.1 1175.5,1723.5 Z" fill="#c8703f"/><path d="M949.8,1597.4 Q987.9,1590.5 1026.1,1597.4 Q987.9,1604.2 949.8,1597.4 Z M987.9,1559.2 Q994.8,1597.4 987.9,1635.5 Q981.1,1597.4 987.9,1559.2 Z" fill="#c8703f"/><polyline points="991.9,1180.3 793.9,1166 721.5,1080.4 791.4,1093.4 906.4,1027 1098.8,1201 " fill="none" stroke="#c8703f" stroke-width="4" opacity="0.55"/><circle cx="991.9" cy="1180.3" r="12" fill="#c8703f"/><circle cx="793.9" cy="1166" r="10.2" fill="#c8703f"/><circle cx="721.5" cy="1080.4" r="9.6" fill="#c8703f"/><circle cx="791.4" cy="1093.4" r="8.8" fill="#c8703f"/><circle cx="906.4" cy="1027" r="8.6" fill="#c8703f"/><circle cx="1098.8" cy="1201" r="8.5" fill="#c8703f"/><polyline points="733.2,1089.5 698.4,1284.6 500.3,1299.6 668.6,1353.4 661,1477.5 637.4,1356.7 " fill="none" stroke="#c8703f" stroke-width="4" opacity="0.55"/><circle cx="733.2" cy="1089.5" r="12" fill="#c8703f"/><circle cx="698.4" cy="1284.6" r="12.1" fill="#c8703f"/><circle cx="500.3" cy="1299.6" r="12" fill="#c8703f"/><circle cx="668.6" cy="1353.4" r="11.7" fill="#c8703f"/><circle cx="661" cy="1477.5" r="12.9" fill="#c8703f"/><circle cx="637.4" cy="1356.7" r="10.8" fill="#c8703f"/><circle cx="1425" cy="800.9" r="88" fill="#c8703f"/><circle cx="1462" cy="785" r="77.4" fill="#211510"/><path d="M370.1,2819.9 L 433.9,2819.9 L 433.9,2756.1 L 383.8,2756.1 L 383.8,2795.6 L 409.6,2795.6 L 409.6,2775.8 M446.1,2819.9 L 509.9,2819.9 L 509.9,2756.1 L 459.8,2756.1 L 459.8,2795.6 L 485.6,2795.6 L 485.6,2775.8 M522.1,2819.9 L 585.9,2819.9 L 585.9,2756.1 L 535.8,2756.1 L 535.8,2795.6 L 561.6,2795.6 L 561.6,2775.8 M598.1,2819.9 L 661.9,2819.9 L 661.9,2756.1 L 611.8,2756.1 L 611.8,2795.6 L 637.6,2795.6 L 637.6,2775.8 M674.1,2819.9 L 737.9,2819.9 L 737.9,2756.1 L 687.8,2756.1 L 687.8,2795.6 L 713.6,2795.6 L 713.6,2775.8 M750.1,2819.9 L 813.9,2819.9 L 813.9,2756.1 L 763.8,2756.1 L 763.8,2795.6 L 789.6,2795.6 L 789.6,2775.8 M826.1,2819.9 L 889.9,2819.9 L 889.9,2756.1 L 839.8,2756.1 L 839.8,2795.6 L 865.6,2795.6 L 865.6,2775.8 M902.1,2819.9 L 965.9,2819.9 L 965.9,2756.1 L 915.8,2756.1 L 915.8,2795.6 L 941.6,2795.6 L 941.6,2775.8 M978.1,2819.9 L 1041.9,2819.9 L 1041.9,2756.1 L 991.8,2756.1 L 991.8,2795.6 L 1017.6,2795.6 L 1017.6,2775.8 M1054.1,2819.9 L 1117.9,2819.9 L 1117.9,2756.1 L 1067.8,2756.1 L 1067.8,2795.6 L 1093.6,2795.6 L 1093.6,2775.8 M1130.1,2819.9 L 1193.9,2819.9 L 1193.9,2756.1 L 1143.8,2756.1 L 1143.8,2795.6 L 1169.6,2795.6 L 1169.6,2775.8 M1206.1,2819.9 L 1269.9,2819.9 L 1269.9,2756.1 L 1219.8,2756.1 L 1219.8,2795.6 L 1245.6,2795.6 L 1245.6,2775.8 M1282.1,2819.9 L 1345.9,2819.9 L 1345.9,2756.1 L 1295.8,2756.1 L 1295.8,2795.6 L 1321.6,2795.6 L 1321.6,2775.8 M1358.1,2819.9 L 1421.9,2819.9 L 1421.9,2756.1 L 1371.8,2756.1 L 1371.8,2795.6 L 1397.6,2795.6 L 1397.6,2775.8 M1434.1,2819.9 L 1497.9,2819.9 L 1497.9,2756.1 L 1447.8,2756.1 L 1447.8,2795.6 L 1473.6,2795.6 L 1473.6,2775.8 M1510.1,2819.9 L 1573.9,2819.9 L 1573.9,2756.1 L 1523.8,2756.1 L 1523.8,2795.6 L 1549.6,2795.6 L 1549.6,2775.8 M1586.1,2819.9 L 1649.9,2819.9 L 1649.9,2756.1 L 1599.8,2756.1 L 1599.8,2795.6 L 1625.6,2795.6 L 1625.6,2775.8 M1662.1,2819.9 L 1725.9,2819.9 L 1725.9,2756.1 L 1675.8,2756.1 L 1675.8,2795.6 L 1701.6,2795.6 L 1701.6,2775.8 M1738.1,2819.9 L 1801.9,2819.9 L 1801.9,2756.1 L 1751.8,2756.1 L 1751.8,2795.6 L 1777.6,2795.6 L 1777.6,2775.8 M1814.1,2819.9 L 1877.9,2819.9 L 1877.9,2756.1 L 1827.8,2756.1 L 1827.8,2795.6 L 1853.6,2795.6 L 1853.6,2775.8 M1890.1,2819.9 L 1953.9,2819.9 L 1953.9,2756.1 L 1903.8,2756.1 L 1903.8,2795.6 L 1929.6,2795.6 L 1929.6,2775.8 M1966.1,2819.9 L 2029.9,2819.9 L 2029.9,2756.1 L 1979.8,2756.1 L 1979.8,2795.6 L 2005.6,2795.6 L 2005.6,2775.8 " fill="none" stroke="#c8703f" stroke-width="9.9"/><rect x="100" y="100" width="2200" height="2800" fill="none" stroke="#c8703f" stroke-width="9"/><rect x="142" y="142" width="2116" height="2716" fill="none" stroke="#c8703f" stroke-width="3" opacity="0.65"/></svg></svg>