<svg xmlns="http://www.w3.org/2000/svg" width="2400" height="1800" viewBox="0 0 2400 1800"><rect width="2400" height="1800" fill="#e9e1d2"/><rect y="1430" width="2400" height="370" fill="#c8b190"/><line x1="120" y1="1430" x2="60" y2="1800" stroke="#00000018" stroke-width="6"/><line x1="380" y1="1430" x2="320" y2="1800" stroke="#00000018" stroke-width="6"/><line x1="640" y1="1430" x2="580" y2="1800" stroke="#00000018" stroke-width="6"/><line x1="900" y1="1430" x2="840" y2="1800" stroke="#00000018" stroke-width="6"/><line x1="1160" y1="1430" x2="1100" y2="1800" stroke="#00000018" stroke-width="6"/><line x1="1420" y1="1430" x2="1360" y2="1800" stroke="#00000018" stroke-width="6"/><line x1="1680" y1="1430" x2="1620" y2="1800" stroke="#00000018" stroke-width="6"/><line x1="1940" y1="1430" x2="1880" y2="1800" stroke="#00000018" stroke-width="6"/><line x1="2200" y1="1430" x2="2140" y2="1800" stroke="#00000018" stroke-width="6"/><rect y="1418" width="2400" height="16" fill="#d7cbb6"/><rect x="700" y="980" width="1000" height="460" rx="26" fill="#a87e57"/><rect x="660" y="1290" width="1080" height="210" rx="30" fill="#f1ebdf"/><rect x="660" y="1420" width="1080" height="120" rx="24" fill="#b3502f" opacity="0.85"/><rect x="770" y="1180" width="300" height="150" rx="40" fill="#faf6ec"/><rect x="1330" y="1180" width="300" height="150" rx="40" fill="#cdb488"/><rect x="640" y="1530" width="1120" height="26" rx="12" fill="#a87e57"/><rect x="360" y="1260" width="240" height="220" rx="10" fill="#a87e57"/><rect x="380" y="1300" width="200" height="14" fill="#00000022"/><line x1="480" y1="1260" x2="480" y2="1130" stroke="#5a4632" stroke-width="12"/><path d="M410,1130 L550,1130 L520,1020 L440,1020 Z" fill="#b3502f"/><path d="M2060,1520 Q 1910,1282.5 1835,1345" fill="none" stroke="#5d7052" stroke-width="20" stroke-linecap="round"/><path d="M2060,1520 Q 1960,1282.5 1910,1295" fill="none" stroke="#5d7052" stroke-width="20" stroke-linecap="round"/><path d="M2060,1520 Q 2010,1282.5 1985,1245" fill="none" stroke="#5d7052" stroke-width="20" stroke-linecap="round"/><path d="M2060,1520 Q 2060,1282.5 2060,1195" fill="none" stroke="#5d7052" stroke-width="20" stroke-linecap="round"/><path d="M2060,1520 Q 2110,1282.5 2135,1245" fill="none" stroke="#5d7052" stroke-width="20" stroke-linecap="round"/><path d="M2060,1520 Q 2160,1282.5 2210,1295" fill="none" stroke="#5d7052" stroke-width="20" stroke-linecap="round"/><path d="M2060,1520 Q 2210,1282.5 2285,1345" fill="none" stroke="#5d7052" stroke-width="20" stroke-linecap="round"/><path d="M1972.5,1520 L2147.5,1520 L2125,1657.5 L1995,1657.5 Z" fill="#a9714d"/><defs><filter id="a142b-sh" x="-30%" y="-30%" width="160%" height="160%"><feGaussianBlur stdDeviation="16"/></filter></defs><rect x="928" y="246" width="572" height="702" fill="#000" opacity="0.28" filter="url(#a142b-sh)"/><rect x="914" y="224" width="572" height="702" fill="#4a3d2f"/><rect x="930.9" y="240.9" width="538.2" height="668.2" fill="none" stroke="#00000055" stroke-width="3"/><rect x="940" y="250" width="520" height="650" fill="#f6f2ea"/><svg x="979" y="289" width="442" height="572" viewBox="0 0 2400 3000" preserveAspectRatio="xMidYMid slice"><rect width="2400" height="3000" fill="#e4cfa4"/><radialGradient id="a142-vig" cx="50%" cy="42%" r="80%"><stop offset="55%" stop-color="#000" stop-opacity="0"/><stop offset="100%" stop-color="#000" stop-opacity="0.15"/></radialGradient><rect width="2400" height="3000" fill="url(#a142-vig)"/><circle cx="1316.5" cy="2524.3" r="3.2" fill="#6e421d" opacity="0.065"/><circle cx="1388.7" cy="2036.8" r="3.6" fill="#6e421d" opacity="0.074"/><circle cx="2151.8" cy="2395.1" r="3.5" fill="#6e421d" opacity="0.061"/><circle cx="1065.8" cy="661.6" r="2.5" fill="#6e421d" opacity="0.032"/><circle cx="1692.3" cy="2551.1" r="4" fill="#6e421d" opacity="0.062"/><circle cx="917.3" cy="2315.9" r="4.5" fill="#6e421d" opacity="0.033"/><circle cx="2059.9" cy="325.8" r="3.2" fill="#6e421d" opacity="0.045"/><circle cx="820" cy="821.2" r="1.7" fill="#6e421d" opacity="0.067"/><circle cx="2147.4" cy="2301" r="1.8" fill="#6e421d" opacity="0.046"/><circle cx="1547.6" cy="2241.2" r="2" fill="#6e421d" opacity="0.055"/><circle cx="803.2" cy="2005.4" r="4.2" fill="#6e421d" opacity="0.052"/><circle cx="1921.5" cy="1702.7" r="1.9" fill="#6e421d" opacity="0.033"/><circle cx="1462.4" cy="2577.1" r="3" fill="#6e421d" opacity="0.053"/><circle cx="1903.1" cy="1000.6" r="4.2" fill="#6e421d" opacity="0.031"/><circle cx="2108.2" cy="1575" r="3.2" fill="#6e421d" opacity="0.062"/><circle cx="193.7" cy="66" r="3.2" fill="#6e421d" opacity="0.061"/><circle cx="480.5" cy="1571.7" r="4.4" fill="#6e421d" opacity="0.066"/><circle cx="1897.7" cy="506.1" r="2.1" fill="#6e421d" opacity="0.060"/><circle cx="1590" cy="2537.3" r="2.4" fill="#6e421d" opacity="0.060"/><circle cx="441.2" cy="2696.2" r="1.5" fill="#6e421d" opacity="0.045"/><circle cx="208.7" cy="1435.7" r="2.9" fill="#6e421d" opacity="0.066"/><circle cx="1727" cy="2542.6" r="1.6" fill="#6e421d" opacity="0.030"/><circle cx="1897.9" cy="512.2" r="2.8" fill="#6e421d" opacity="0.050"/><circle cx="1165.1" cy="1717.6" r="2.5" fill="#6e421d" opacity="0.053"/><circle cx="238" cy="796.1" r="4.4" fill="#6e421d" opacity="0.065"/><circle cx="466" cy="675.7" r="3" fill="#6e421d" opacity="0.072"/><circle cx="604.9" cy="2448.1" r="4.5" fill="#6e421d" opacity="0.078"/><circle cx="965.9" cy="1307.7" r="4" fill="#6e421d" opacity="0.075"/><circle cx="200" cy="660.3" r="4.2" fill="#6e421d" opacity="0.067"/><circle cx="1852.4" cy="873.3" r="2.6" fill="#6e421d" opacity="0.036"/><circle cx="2256.7" cy="2844.5" r="4.1" fill="#6e421d" opacity="0.040"/><circle cx="1134.3" cy="1055.3" r="2.4" fill="#6e421d" opacity="0.059"/><circle cx="2291.6" cy="1252.7" r="4.1" fill="#6e421d" opacity="0.047"/><circle cx="2080" cy="2092.5" r="2.7" fill="#6e421d" opacity="0.076"/><circle cx="649.7" cy="2022.5" r="3.2" fill="#6e421d" opacity="0.066"/><circle cx="1508.8" cy="1194.7" r="3.4" fill="#6e421d" opacity="0.055"/><circle cx="2137.7" cy="1275.7" r="3.9" fill="#6e421d" opacity="0.066"/><circle cx="297.3" cy="656.5" r="2.4" fill="#6e421d" opacity="0.042"/><circle cx="1724.4" cy="1179.1" r="4.1" fill="#6e421d" opacity="0.062"/><circle cx="677.1" cy="1253.9" r="2.3" fill="#6e421d" opacity="0.039"/><circle cx="1849" cy="1938.4" r="4" fill="#6e421d" opacity="0.056"/><circle cx="977.7" cy="2403.9" r="2.6" fill="#6e421d" opacity="0.067"/><circle cx="1851.9" cy="910.1" r="1.6" fill="#6e421d" opacity="0.047"/><circle cx="1915.4" cy="1655.9" r="4.3" fill="#6e421d" opacity="0.040"/><circle cx="1197.6" cy="929.2" r="3.5" fill="#6e421d" opacity="0.059"/><circle cx="1982.4" cy="1932.5" r="2.6" fill="#6e421d" opacity="0.043"/><circle cx="181.7" cy="1369.9" r="2.2" fill="#6e421d" opacity="0.047"/><circle cx="1872.5" cy="430.2" r="3.3" fill="#6e421d" opacity="0.046"/><circle cx="1929.6" cy="1947.7" r="3.3" fill="#6e421d" opacity="0.034"/><circle cx="914.6" cy="425.1" r="3.3" fill="#6e421d" opacity="0.075"/><circle cx="265.1" cy="1486" r="3.5" fill="#6e421d" opacity="0.052"/><circle cx="228" cy="843.3" r="2.2" fill="#6e421d" opacity="0.052"/><circle cx="1511.7" cy="1674" r="4.2" fill="#6e421d" opacity="0.050"/><circle cx="1742.4" cy="1106.6" r="1.9" fill="#6e421d" opacity="0.066"/><circle cx="1913.6" cy="1763.4" r="4" fill="#6e421d" opacity="0.069"/><circle cx="449.9" cy="1639.8" r="2" fill="#6e421d" opacity="0.031"/><circle cx="1312.3" cy="2652.8" r="3.3" fill="#6e421d" opacity="0.038"/><circle cx="1900.7" cy="2502.4" r="3.5" fill="#6e421d" opacity="0.068"/><circle cx="1128.2" cy="389.5" r="4" fill="#6e421d" opacity="0.045"/><circle cx="2268.8" cy="1764.8" r="2.8" fill="#6e421d" opacity="0.042"/><circle cx="1628.4" cy="2138.7" r="2" fill="#6e421d" opacity="0.044"/><circle cx="2200.5" cy="1556.5" r="2.6" fill="#6e421d" opacity="0.035"/><circle cx="376" cy="1277.3" r="4.2" fill="#6e421d" opacity="0.043"/><circle cx="1656.6" cy="654.6" r="1.6" fill="#6e421d" opacity="0.042"/><circle cx="2221.8" cy="1114.4" r="3.2" fill="#6e421d" opacity="0.032"/><circle cx="749.6" cy="1690.7" r="2.8" fill="#6e421d" opacity="0.036"/><circle cx="1898.6" cy="2171.7" r="3.6" fill="#6e421d" opacity="0.054"/><circle cx="110.3" cy="2628.7" r="2.6" fill="#6e421d" opacity="0.062"/><circle cx="1631.1" cy="2127.9" r="3.6" fill="#6e421d" opacity="0.043"/><circle cx="1659.4" cy="303.7" r="4.2" fill="#6e421d" opacity="0.042"/><circle cx="1028.4" cy="1962" r="1.9" fill="#6e421d" opacity="0.063"/><circle cx="207.6" cy="1494" r="2.9" fill="#6e421d" opacity="0.059"/><circle cx="2276.4" cy="1828.5" r="2.4" fill="#6e421d" opacity="0.040"/><circle cx="696.2" cy="2922.7" r="3.8" fill="#6e421d" opacity="0.070"/><circle cx="1199.2" cy="1198.2" r="4.2" fill="#6e421d" opacity="0.061"/><circle cx="1895.3" cy="1634.2" r="4.3" fill="#6e421d" opacity="0.047"/><circle cx="663.3" cy="1522" r="4.1" fill="#6e421d" opacity="0.045"/><circle cx="168.4" cy="2171.9" r="2" fill="#6e421d" opacity="0.077"/><circle cx="2348.3" cy="1564.7" r="3.7" fill="#6e421d" opacity="0.077"/><circle cx="405.5" cy="1957.1" r="1.6" fill="#6e421d" opacity="0.054"/><circle cx="1482" cy="894.6" r="317.1" fill="#b3502f" opacity="0.95"/><line x1="200" y1="2430" x2="2200" y2="2430" stroke="#6e421d" stroke-width="16"/><rect x="610" y="2340" width="440" height="90" fill="#6e421d"/><rect x="671.6" y="2260" width="316.8" height="80" fill="#6e421d"/><path d="M720,2260 L761.8,1035.8 L898.2,1035.8 L940,2260 Z" fill="#6e421d"/><polygon points="830,885.8 761.8,1037.8 898.2,1037.8" fill="#b3502f"/><rect x="807" y="1137.8" width="46" height="16" fill="#e4cfa4" opacity="0.9"/><circle cx="830" cy="1255.8" r="19.32" fill="#e4cfa4" opacity="0.9"/><polyline points="784,1379.8 807,1353.8 830,1379.8 853,1353.8 876,1379.8 " fill="none" stroke="#e4cfa4" stroke-width="4.7" stroke-linejoin="miter"/><circle cx="830" cy="1475.8" r="19.32" fill="#e4cfa4" opacity="0.9"/><circle cx="830" cy="1585.8" r="19.32" fill="#e4cfa4" opacity="0.9"/><polyline points="784,1709.8 807,1683.8 830,1709.8 853,1683.8 876,1709.8 " fill="none" stroke="#e4cfa4" stroke-width="4.7" stroke-linejoin="miter"/><polyline points="784,1819.8 807,1793.8 830,1819.8 853,1793.8 876,1819.8 " fill="none" stroke="#e4cfa4" stroke-width="4.7" stroke-linejoin="miter"/><circle cx="830" cy="1915.8" r="19.32" fill="#e4cfa4" opacity="0.9"/><polygon points="830,2002.8 807,2048.8 853,2048.8" fill="#e4cfa4" opacity="0.9"/><rect x="1350" y="2340" width="440" height="90" fill="#6e421d"/><rect x="1411.6" y="2260" width="316.8" height="80" fill="#6e421d"/><path d="M1460,2260 L1501.8,1267.7 L1638.2,1267.7 L1680,2260 Z" fill="#6e421d"/><polygon points="1570,1117.7 1501.8,1269.7 1638.2,1269.7" fill="#b3502f"/><polygon points="1570,1354.7 1547,1400.7 1593,1400.7" fill="#e4cfa4" opacity="0.9"/><polyline points="1524,1501.7 1547,1475.7 1570,1501.7 1593,1475.7 1616,1501.7 " fill="none" stroke="#e4cfa4" stroke-width="4.7" stroke-linejoin="miter"/><circle cx="1570" cy="1597.7" r="19.32" fill="#e4cfa4" opacity="0.9"/><polyline points="1524,1721.7 1547,1695.7 1570,1721.7 1593,1695.7 1616,1721.7 " fill="none" stroke="#e4cfa4" stroke-width="4.7" stroke-linejoin="miter"/><circle cx="1570" cy="1817.7" r="18.400000000000002" fill="none" stroke="#e4cfa4" stroke-width="10" opacity="0.9"/><line x1="1570" y1="1836.1" x2="1570" y2="1863.7" stroke="#e4cfa4" stroke-width="10" opacity="0.9"/><polygon points="1570,1904.7 1547,1950.7 1593,1950.7" fill="#e4cfa4" opacity="0.9"/><polyline points="1524,2051.7 1547,2025.7 1570,2051.7 1593,2025.7 1616,2051.7 " fill="none" stroke="#e4cfa4" stroke-width="4.7" stroke-linejoin="miter"/><rect x="200" y="2770" width="2000" height="13.3" fill="#6e421d"/><rect x="200" y="2782.8" width="2000" height="13.3" fill="#b3502f"/><rect x="200" y="2795.6" width="2000" height="13.3" fill="#6e421d"/><rect x="200" y="2808.4" width="2000" height="13.3" fill="#cdb488"/><rect x="200" y="2821.2" width="2000" height="13.3" fill="#6e421d"/><rect x="100" y="100" width="2200" height="2800" fill="none" stroke="#6e421d" stroke-width="9"/><rect x="142" y="142" width="2116" height="2716" fill="none" stroke="#6e421d" stroke-width="3" opacity="0.65"/></svg></svg>