<svg xmlns="http://www.w3.org/2000/svg" width="2400" height="1800" viewBox="0 0 2400 1800"><rect width="2400" height="1800" fill="#e5ddcf"/><rect y="1430" width="2400" height="370" fill="#b89a76"/><line x1="100" y1="1430" x2="45" y2="1800" stroke="#00000016" stroke-width="5"/><line x1="330" y1="1430" x2="275" y2="1800" stroke="#00000016" stroke-width="5"/><line x1="560" y1="1430" x2="505" y2="1800" stroke="#00000016" stroke-width="5"/><line x1="790" y1="1430" x2="735" y2="1800" stroke="#00000016" stroke-width="5"/><line x1="1020" y1="1430" x2="965" y2="1800" stroke="#00000016" stroke-width="5"/><line x1="1250" y1="1430" x2="1195" y2="1800" stroke="#00000016" stroke-width="5"/><line x1="1480" y1="1430" x2="1425" y2="1800" stroke="#00000016" stroke-width="5"/><line x1="1710" y1="1430" x2="1655" y2="1800" stroke="#00000016" stroke-width="5"/><line x1="1940" y1="1430" x2="1885" y2="1800" stroke="#00000016" stroke-width="5"/><line x1="2170" y1="1430" x2="2115" y2="1800" stroke="#00000016" stroke-width="5"/><rect x="620" y="1180" width="1180" height="52" rx="10" fill="#8a6540"/><rect x="680" y="1232" width="70" height="330" fill="#775433"/><rect x="1670" y="1232" width="70" height="330" fill="#775433"/><rect x="760" y="1120" width="220" height="34" rx="6" fill="#c98f4e"/><rect x="780" y="1086" width="200" height="34" rx="6" fill="#39685c"/><rect x="800" y="1052" width="170" height="34" rx="6" fill="#c9a227"/><circle cx="1240" cy="1130" r="46" fill="#3f3428"/><rect x="1226" y="1048" width="16" height="60" fill="#3f3428" transform="rotate(18 1240 1090)"/><rect x="1420" y="1100" width="260" height="26" rx="13" fill="#e8dcc0"/><rect x="1450" y="1072" width="260" height="26" rx="13" fill="#dfd0ad"/><rect x="1080" y="1300" width="360" height="34" rx="14" fill="#6f5436"/><rect x="1100" y="1334" width="40" height="220" fill="#6f5436"/><rect x="1380" y="1334" width="40" height="220" fill="#6f5436"/><rect x="1080" y="1030" width="42" height="290" rx="14" fill="#6f5436"/><rect x="260" y="480" width="560" height="24" fill="#8a6540"/><rect x="300" y="360" width="90" height="120" fill="#b3502f"/><rect x="400" y="380" width="80" height="100" fill="#2c4661"/><rect x="490" y="350" width="86" height="130" fill="#96a396"/><path d="M700,480 Q 616,347 574,382" fill="none" stroke="#5d7052" stroke-width="11.2" stroke-linecap="round"/><path d="M700,480 Q 644,347 616,354" fill="none" stroke="#5d7052" stroke-width="11.2" stroke-linecap="round"/><path d="M700,480 Q 672,347 658,326" fill="none" stroke="#5d7052" stroke-width="11.2" stroke-linecap="round"/><path d="M700,480 Q 700,347 700,298" fill="none" stroke="#5d7052" stroke-width="11.2" stroke-linecap="round"/><path d="M700,480 Q 728,347 742,326" fill="none" stroke="#5d7052" stroke-width="11.2" stroke-linecap="round"/><path d="M700,480 Q 756,347 784,354" fill="none" stroke="#5d7052" stroke-width="11.2" stroke-linecap="round"/><path d="M700,480 Q 784,347 826,382" fill="none" stroke="#5d7052" stroke-width="11.2" stroke-linecap="round"/><path d="M651,480 L749,480 L736.4,557 L663.6,557 Z" fill="#a9714d"/><path d="M320,1520 Q 164,1273 86,1338" fill="none" stroke="#5d7052" stroke-width="20.8" stroke-linecap="round"/><path d="M320,1520 Q 216,1273 164,1286" fill="none" stroke="#5d7052" stroke-width="20.8" stroke-linecap="round"/><path d="M320,1520 Q 268,1273 242,1234" fill="none" stroke="#5d7052" stroke-width="20.8" stroke-linecap="round"/><path d="M320,1520 Q 320,1273 320,1182" fill="none" stroke="#5d7052" stroke-width="20.8" stroke-linecap="round"/><path d="M320,1520 Q 372,1273 398,1234" fill="none" stroke="#5d7052" stroke-width="20.8" stroke-linecap="round"/><path d="M320,1520 Q 424,1273 476,1286" fill="none" stroke="#5d7052" stroke-width="20.8" stroke-linecap="round"/><path d="M320,1520 Q 476,1273 554,1338" fill="none" stroke="#5d7052" stroke-width="20.8" stroke-linecap="round"/><path d="M229,1520 L411,1520 L387.6,1663 L252.4,1663 Z" fill="#a9714d"/><defs><filter id="a139s-sh" x="-30%" y="-30%" width="160%" height="160%"><feGaussianBlur stdDeviation="16"/></filter></defs><rect x="1206" y="294" width="616" height="756" fill="#000" opacity="0.28" filter="url(#a139s-sh)"/><rect x="1192" y="272" width="616" height="756" fill="#443a2d"/><rect x="1210.2" y="290.2" width="579.6" height="719.6" fill="none" stroke="#00000055" stroke-width="3"/><rect x="1220" y="300" width="560" height="700" fill="#f6f2ea"/><svg x="1262" y="342" width="476" height="616" viewBox="0 0 2400 3000" preserveAspectRatio="xMidYMid slice"><rect width="2400" height="3000" fill="#571f1c"/><radialGradient id="a139-vig" cx="50%" cy="42%" r="80%"><stop offset="55%" stop-color="#000" stop-opacity="0"/><stop offset="100%" stop-color="#000" stop-opacity="0.15"/></radialGradient><rect width="2400" height="3000" fill="url(#a139-vig)"/><circle cx="777.3" cy="620.5" r="2.5" fill="#e9dabe" opacity="0.069"/><circle cx="1111.6" cy="756.9" r="4.1" fill="#e9dabe" opacity="0.059"/><circle cx="934.5" cy="660.1" r="2.4" fill="#e9dabe" opacity="0.068"/><circle cx="604.5" cy="1585.5" r="4.5" fill="#e9dabe" opacity="0.032"/><circle cx="1303.8" cy="2148.3" r="2.7" fill="#e9dabe" opacity="0.040"/><circle cx="513.8" cy="2732.1" r="2.9" fill="#e9dabe" opacity="0.046"/><circle cx="2111.6" cy="1567.9" r="2.4" fill="#e9dabe" opacity="0.059"/><circle cx="1337.8" cy="2334.1" r="3.7" fill="#e9dabe" opacity="0.042"/><circle cx="1612.7" cy="70.5" r="4" fill="#e9dabe" opacity="0.040"/><circle cx="2089.4" cy="946.2" r="3.9" fill="#e9dabe" opacity="0.069"/><circle cx="1652.8" cy="134.5" r="2.7" fill="#e9dabe" opacity="0.033"/><circle cx="2212.8" cy="81.3" r="3.5" fill="#e9dabe" opacity="0.041"/><circle cx="600.2" cy="541.4" r="1.7" fill="#e9dabe" opacity="0.033"/><circle cx="1077.6" cy="544.2" r="3.1" fill="#e9dabe" opacity="0.043"/><circle cx="382.4" cy="312.3" r="3.4" fill="#e9dabe" opacity="0.069"/><circle cx="659.6" cy="1883.3" r="2" fill="#e9dabe" opacity="0.032"/><circle cx="2329.9" cy="2468.5" r="3.1" fill="#e9dabe" opacity="0.038"/><circle cx="878.9" cy="1288.3" r="3.9" fill="#e9dabe" opacity="0.044"/><circle cx="2162.5" cy="2921.2" r="2.8" fill="#e9dabe" opacity="0.059"/><circle cx="1987.2" cy="1238.6" r="1.7" fill="#e9dabe" opacity="0.063"/><circle cx="944.3" cy="1407.6" r="3.5" fill="#e9dabe" opacity="0.052"/><circle cx="446" cy="2775.7" r="3" fill="#e9dabe" opacity="0.055"/><circle cx="366" cy="1587.6" r="2.9" fill="#e9dabe" opacity="0.066"/><circle cx="1715.7" cy="2308.5" r="3.2" fill="#e9dabe" opacity="0.074"/><circle cx="1383.2" cy="2431.2" r="3.5" fill="#e9dabe" opacity="0.044"/><circle cx="1563.9" cy="2052.3" r="3.4" fill="#e9dabe" opacity="0.061"/><circle cx="1062.8" cy="1547.3" r="2.4" fill="#e9dabe" opacity="0.065"/><circle cx="947.2" cy="735.2" r="4" fill="#e9dabe" opacity="0.072"/><circle cx="1786.1" cy="670.3" r="1.6" fill="#e9dabe" opacity="0.055"/><circle cx="306.2" cy="2795.7" r="3.8" fill="#e9dabe" opacity="0.040"/><circle cx="1530.6" cy="2438.8" r="4.1" fill="#e9dabe" opacity="0.055"/><circle cx="176.8" cy="1150.5" r="3.2" fill="#e9dabe" opacity="0.046"/><circle cx="2094" cy="735.7" r="2.1" fill="#e9dabe" opacity="0.045"/><circle cx="2153.6" cy="1086.8" r="2.3" fill="#e9dabe" opacity="0.068"/><circle cx="2036.5" cy="91.2" r="4.3" fill="#e9dabe" opacity="0.051"/><circle cx="879.8" cy="1716.3" r="3.4" fill="#e9dabe" opacity="0.045"/><circle cx="684.9" cy="2169.6" r="3.1" fill="#e9dabe" opacity="0.074"/><circle cx="2234.5" cy="1859.5" r="4.3" fill="#e9dabe" opacity="0.061"/><circle cx="2118.7" cy="1360.9" r="2.9" fill="#e9dabe" opacity="0.050"/><circle cx="683.5" cy="2323" r="3.4" fill="#e9dabe" opacity="0.048"/><circle cx="2005.1" cy="520.5" r="3.9" fill="#e9dabe" opacity="0.051"/><circle cx="1188.7" cy="366.5" r="4.3" fill="#e9dabe" opacity="0.044"/><circle cx="1170.6" cy="1727.2" r="4.4" fill="#e9dabe" opacity="0.064"/><circle cx="2059.8" cy="2844.3" r="4.3" fill="#e9dabe" opacity="0.046"/><circle cx="1343.6" cy="574.1" r="4.2" fill="#e9dabe" opacity="0.045"/><circle cx="2011.3" cy="83.4" r="3.3" fill="#e9dabe" opacity="0.070"/><circle cx="1606" cy="2335.1" r="1.9" fill="#e9dabe" opacity="0.031"/><circle cx="1666.8" cy="1063.9" r="2.4" fill="#e9dabe" opacity="0.073"/><circle cx="1287.8" cy="128.7" r="3.7" fill="#e9dabe" opacity="0.053"/><circle cx="911.7" cy="2049.1" r="3.1" fill="#e9dabe" opacity="0.061"/><circle cx="1301.7" cy="2682.1" r="4" fill="#e9dabe" opacity="0.059"/><circle cx="434.5" cy="1262.6" r="2" fill="#e9dabe" opacity="0.053"/><circle cx="1760.8" cy="742.5" r="3" fill="#e9dabe" opacity="0.051"/><circle cx="318.7" cy="1211.4" r="2.5" fill="#e9dabe" opacity="0.077"/><circle cx="382.8" cy="188.1" r="2.3" fill="#e9dabe" opacity="0.052"/><circle cx="1436.5" cy="978.4" r="3.2" fill="#e9dabe" opacity="0.075"/><circle cx="689.7" cy="431.5" r="4" fill="#e9dabe" opacity="0.048"/><circle cx="1746.2" cy="56.1" r="2.1" fill="#e9dabe" opacity="0.049"/><circle cx="1373.8" cy="2804.3" r="2.1" fill="#e9dabe" opacity="0.035"/><circle cx="2204.5" cy="2069.1" r="3.2" fill="#e9dabe" opacity="0.074"/><circle cx="1660.6" cy="914.7" r="1.8" fill="#e9dabe" opacity="0.048"/><circle cx="755.4" cy="518.4" r="2" fill="#e9dabe" opacity="0.049"/><circle cx="76.8" cy="1002.4" r="1.6" fill="#e9dabe" opacity="0.043"/><circle cx="1548.4" cy="2933.7" r="1.8" fill="#e9dabe" opacity="0.073"/><circle cx="1359.5" cy="433.1" r="2.2" fill="#e9dabe" opacity="0.053"/><circle cx="1319.7" cy="728.5" r="2.4" fill="#e9dabe" opacity="0.069"/><circle cx="2039" cy="2115.2" r="2.1" fill="#e9dabe" opacity="0.064"/><circle cx="257.8" cy="954.6" r="3.1" fill="#e9dabe" opacity="0.068"/><circle cx="696.2" cy="2270.5" r="4.3" fill="#e9dabe" opacity="0.068"/><circle cx="990.6" cy="712.4" r="2" fill="#e9dabe" opacity="0.071"/><circle cx="1169.4" cy="2373.9" r="2.5" fill="#e9dabe" opacity="0.046"/><circle cx="59.9" cy="1551" r="1.7" fill="#e9dabe" opacity="0.052"/><circle cx="246.6" cy="798.3" r="4.1" fill="#e9dabe" opacity="0.044"/><circle cx="995.6" cy="149.3" r="2.7" fill="#e9dabe" opacity="0.052"/><circle cx="100.3" cy="2116.4" r="3.5" fill="#e9dabe" opacity="0.035"/><circle cx="1946.6" cy="2583.1" r="3.3" fill="#e9dabe" opacity="0.066"/><circle cx="1351.4" cy="2886.4" r="3.4" fill="#e9dabe" opacity="0.059"/><circle cx="1384.8" cy="2563.2" r="3.4" fill="#e9dabe" opacity="0.058"/><circle cx="1207.2" cy="1945.5" r="3.5" fill="#e9dabe" opacity="0.058"/><circle cx="2239.5" cy="1351.7" r="1.6" fill="#e9dabe" opacity="0.076"/><rect x="200" y="170" width="2000" height="14.5" fill="#e9dabe"/><rect x="200" y="184" width="2000" height="14.5" fill="#c98f4e"/><rect x="200" y="198" width="2000" height="14.5" fill="#e9dabe"/><rect x="200" y="212" width="2000" height="14.5" fill="#7c3a31"/><rect x="200" y="226" width="2000" height="14.5" fill="#e9dabe"/><rect x="200" y="2760" width="2000" height="14.5" fill="#e9dabe"/><rect x="200" y="2774" width="2000" height="14.5" fill="#c98f4e"/><rect x="200" y="2788" width="2000" height="14.5" fill="#e9dabe"/><rect x="200" y="2802" width="2000" height="14.5" fill="#7c3a31"/><rect x="200" y="2816" width="2000" height="14.5" fill="#e9dabe"/><circle cx="1200" cy="1030" r="150" fill="#c98f4e"/><circle cx="1200" cy="1030" r="196" fill="none" stroke="#c98f4e" stroke-width="10"/><line x1="1110" y1="1540" x2="357.4" y2="1481.8" stroke="#e9dabe" stroke-width="34" stroke-linecap="round"/><line x1="1110" y1="1540" x2="383.2" y2="1417.8" stroke="#e9dabe" stroke-width="34" stroke-linecap="round"/><line x1="1110" y1="1540" x2="426.9" y2="1356.8" stroke="#e9dabe" stroke-width="34" stroke-linecap="round"/><line x1="1110" y1="1540" x2="487.4" y2="1300.2" stroke="#e9dabe" stroke-width="34" stroke-linecap="round"/><line x1="1110" y1="1540" x2="563.3" y2="1249.6" stroke="#e9dabe" stroke-width="34" stroke-linecap="round"/><line x1="1110" y1="1540" x2="652.6" y2="1206.2" stroke="#e9dabe" stroke-width="34" stroke-linecap="round"/><line x1="1110" y1="1540" x2="753.2" y2="1170.9" stroke="#e9dabe" stroke-width="34" stroke-linecap="round"/><line x1="1110" y1="1540" x2="862.6" y2="1144.8" stroke="#e9dabe" stroke-width="34" stroke-linecap="round"/><line x1="1110" y1="1540" x2="978" y2="1128.4" stroke="#e9dabe" stroke-width="34" stroke-linecap="round"/><line x1="1110" y1="1540" x2="515.8" y2="1494.1" stroke="#c98f4e" stroke-width="30" stroke-linecap="round"/><line x1="1110" y1="1540" x2="536.2" y2="1443.5" stroke="#c98f4e" stroke-width="30" stroke-linecap="round"/><line x1="1110" y1="1540" x2="570.7" y2="1395.3" stroke="#c98f4e" stroke-width="30" stroke-linecap="round"/><line x1="1110" y1="1540" x2="618.5" y2="1350.7" stroke="#c98f4e" stroke-width="30" stroke-linecap="round"/><line x1="1110" y1="1540" x2="678.4" y2="1310.8" stroke="#c98f4e" stroke-width="30" stroke-linecap="round"/><line x1="1110" y1="1540" x2="748.9" y2="1276.5" stroke="#c98f4e" stroke-width="30" stroke-linecap="round"/><line x1="1110" y1="1540" x2="828.3" y2="1248.6" stroke="#c98f4e" stroke-width="30" stroke-linecap="round"/><line x1="1110" y1="1540" x2="914.7" y2="1228" stroke="#c98f4e" stroke-width="30" stroke-linecap="round"/><line x1="1110" y1="1540" x2="1005.8" y2="1215" stroke="#c98f4e" stroke-width="30" stroke-linecap="round"/><line x1="1110" y1="1540" x2="664.4" y2="1505.6" stroke="#e9dabe" stroke-width="26" stroke-linecap="round"/><line x1="1110" y1="1540" x2="679.7" y2="1467.6" stroke="#e9dabe" stroke-width="26" stroke-linecap="round"/><line x1="1110" y1="1540" x2="705.5" y2="1431.5" stroke="#e9dabe" stroke-width="26" stroke-linecap="round"/><line x1="1110" y1="1540" x2="741.4" y2="1398" stroke="#e9dabe" stroke-width="26" stroke-linecap="round"/><line x1="1110" y1="1540" x2="786.3" y2="1368.1" stroke="#e9dabe" stroke-width="26" stroke-linecap="round"/><line x1="1110" y1="1540" x2="839.2" y2="1342.3" stroke="#e9dabe" stroke-width="26" stroke-linecap="round"/><line x1="1110" y1="1540" x2="898.7" y2="1321.5" stroke="#e9dabe" stroke-width="26" stroke-linecap="round"/><line x1="1110" y1="1540" x2="963.5" y2="1306" stroke="#e9dabe" stroke-width="26" stroke-linecap="round"/><line x1="1110" y1="1540" x2="1031.9" y2="1296.3" stroke="#e9dabe" stroke-width="26" stroke-linecap="round"/><line x1="1290" y1="1540" x2="2042.6" y2="1481.8" stroke="#e9dabe" stroke-width="34" stroke-linecap="round"/><line x1="1290" y1="1540" x2="2016.8" y2="1417.8" stroke="#e9dabe" stroke-width="34" stroke-linecap="round"/><line x1="1290" y1="1540" x2="1973.1" y2="1356.8" stroke="#e9dabe" stroke-width="34" stroke-linecap="round"/><line x1="1290" y1="1540" x2="1912.6" y2="1300.2" stroke="#e9dabe" stroke-width="34" stroke-linecap="round"/><line x1="1290" y1="1540" x2="1836.7" y2="1249.6" stroke="#e9dabe" stroke-width="34" stroke-linecap="round"/><line x1="1290" y1="1540" x2="1747.4" y2="1206.2" stroke="#e9dabe" stroke-width="34" stroke-linecap="round"/><line x1="1290" y1="1540" x2="1646.8" y2="1170.9" stroke="#e9dabe" stroke-width="34" stroke-linecap="round"/><line x1="1290" y1="1540" x2="1537.4" y2="1144.8" stroke="#e9dabe" stroke-width="34" stroke-linecap="round"/><line x1="1290" y1="1540" x2="1422" y2="1128.4" stroke="#e9dabe" stroke-width="34" stroke-linecap="round"/><line x1="1290" y1="1540" x2="1884.2" y2="1494.1" stroke="#c98f4e" stroke-width="30" stroke-linecap="round"/><line x1="1290" y1="1540" x2="1863.8" y2="1443.5" stroke="#c98f4e" stroke-width="30" stroke-linecap="round"/><line x1="1290" y1="1540" x2="1829.3" y2="1395.3" stroke="#c98f4e" stroke-width="30" stroke-linecap="round"/><line x1="1290" y1="1540" x2="1781.5" y2="1350.7" stroke="#c98f4e" stroke-width="30" stroke-linecap="round"/><line x1="1290" y1="1540" x2="1721.6" y2="1310.8" stroke="#c98f4e" stroke-width="30" stroke-linecap="round"/><line x1="1290" y1="1540" x2="1651.1" y2="1276.5" stroke="#c98f4e" stroke-width="30" stroke-linecap="round"/><line x1="1290" y1="1540" x2="1571.7" y2="1248.6" stroke="#c98f4e" stroke-width="30" stroke-linecap="round"/><line x1="1290" y1="1540" x2="1485.3" y2="1228" stroke="#c98f4e" stroke-width="30" stroke-linecap="round"/><line x1="1290" y1="1540" x2="1394.2" y2="1215" stroke="#c98f4e" stroke-width="30" stroke-linecap="round"/><line x1="1290" y1="1540" x2="1735.6" y2="1505.6" stroke="#e9dabe" stroke-width="26" stroke-linecap="round"/><line x1="1290" y1="1540" x2="1720.3" y2="1467.6" stroke="#e9dabe" stroke-width="26" stroke-linecap="round"/><line x1="1290" y1="1540" x2="1694.5" y2="1431.5" stroke="#e9dabe" stroke-width="26" stroke-linecap="round"/><line x1="1290" y1="1540" x2="1658.6" y2="1398" stroke="#e9dabe" stroke-width="26" stroke-linecap="round"/><line x1="1290" y1="1540" x2="1613.7" y2="1368.1" stroke="#e9dabe" stroke-width="26" stroke-linecap="round"/><line x1="1290" y1="1540" x2="1560.8" y2="1342.3" stroke="#e9dabe" stroke-width="26" stroke-linecap="round"/><line x1="1290" y1="1540" x2="1501.3" y2="1321.5" stroke="#e9dabe" stroke-width="26" stroke-linecap="round"/><line x1="1290" y1="1540" x2="1436.5" y2="1306" stroke="#e9dabe" stroke-width="26" stroke-linecap="round"/><line x1="1290" y1="1540" x2="1368.1" y2="1296.3" stroke="#e9dabe" stroke-width="26" stroke-linecap="round"/><path d="M1080,1500 q -150,-60 -210,-150" fill="none" stroke="#e9dabe" stroke-width="26" stroke-linecap="round"/><path d="M1035,1660 q -190,20 -260,-40" fill="none" stroke="#e9dabe" stroke-width="26" stroke-linecap="round"/><path d="M1070,1810 q -150,90 -230,80" fill="none" stroke="#e9dabe" stroke-width="26" stroke-linecap="round"/><path d="M1320,1500 q 150,-60 210,-150" fill="none" stroke="#e9dabe" stroke-width="26" stroke-linecap="round"/><path d="M1365,1660 q 190,20 260,-40" fill="none" stroke="#e9dabe" stroke-width="26" stroke-linecap="round"/><path d="M1330,1810 q 150,90 230,80" fill="none" stroke="#e9dabe" stroke-width="26" stroke-linecap="round"/><ellipse cx="1200" cy="1660" rx="180" ry="240" fill="#e9dabe"/><line x1="1200" y1="1540" x2="1200" y2="1896" stroke="#571f1c" stroke-width="9" opacity="0.7"/><path d="M1028,1552 Q 1200,1630 1372,1552" fill="none" stroke="#571f1c" stroke-width="9" opacity="0.7"/><path d="M1080,1450 A 130,130 0 0 1 1320,1450 L1278,1495 L1122,1495 Z" fill="#e9dabe"/><line x1="1112" y1="1392" x2="1084" y2="1338" stroke="#e9dabe" stroke-width="16" stroke-linecap="round"/><line x1="1156" y1="1392" x2="1142" y2="1338" stroke="#e9dabe" stroke-width="16" stroke-linecap="round"/><line x1="1200" y1="1392" x2="1200" y2="1338" stroke="#e9dabe" stroke-width="16" stroke-linecap="round"/><line x1="1244" y1="1392" x2="1258" y2="1338" stroke="#e9dabe" stroke-width="16" stroke-linecap="round"/><line x1="1288" y1="1392" x2="1316" y2="1338" stroke="#e9dabe" stroke-width="16" stroke-linecap="round"/><path d="M780,1990 Q 1200,2160 1620,1990 L1560,1990 Q 1200,2090 840,1990 Z" fill="#c98f4e"/><rect x="100" y="100" width="2200" height="2800" fill="none" stroke="#e9dabe" stroke-width="9"/><rect x="142" y="142" width="2116" height="2716" fill="none" stroke="#e9dabe" stroke-width="3" opacity="0.65"/></svg></svg>