<svg xmlns="http://www.w3.org/2000/svg" width="2400" height="1800" viewBox="0 0 2400 1800"><rect width="2400" height="1800" fill="#e5ddcf"/><rect y="1430" width="2400" height="370" fill="#b89a76"/><line x1="100" y1="1430" x2="45" y2="1800" stroke="#00000016" stroke-width="5"/><line x1="330" y1="1430" x2="275" y2="1800" stroke="#00000016" stroke-width="5"/><line x1="560" y1="1430" x2="505" y2="1800" stroke="#00000016" stroke-width="5"/><line x1="790" y1="1430" x2="735" y2="1800" stroke="#00000016" stroke-width="5"/><line x1="1020" y1="1430" x2="965" y2="1800" stroke="#00000016" stroke-width="5"/><line x1="1250" y1="1430" x2="1195" y2="1800" stroke="#00000016" stroke-width="5"/><line x1="1480" y1="1430" x2="1425" y2="1800" stroke="#00000016" stroke-width="5"/><line x1="1710" y1="1430" x2="1655" y2="1800" stroke="#00000016" stroke-width="5"/><line x1="1940" y1="1430" x2="1885" y2="1800" stroke="#00000016" stroke-width="5"/><line x1="2170" y1="1430" x2="2115" y2="1800" stroke="#00000016" stroke-width="5"/><rect x="620" y="1180" width="1180" height="52" rx="10" fill="#8a6540"/><rect x="680" y="1232" width="70" height="330" fill="#775433"/><rect x="1670" y="1232" width="70" height="330" fill="#775433"/><rect x="760" y="1120" width="220" height="34" rx="6" fill="#bda15a"/><rect x="780" y="1086" width="200" height="34" rx="6" fill="#39685c"/><rect x="800" y="1052" width="170" height="34" rx="6" fill="#c9a227"/><circle cx="1240" cy="1130" r="46" fill="#3f3428"/><rect x="1226" y="1048" width="16" height="60" fill="#3f3428" transform="rotate(18 1240 1090)"/><rect x="1420" y="1100" width="260" height="26" rx="13" fill="#e8dcc0"/><rect x="1450" y="1072" width="260" height="26" rx="13" fill="#dfd0ad"/><rect x="1080" y="1300" width="360" height="34" rx="14" fill="#6f5436"/><rect x="1100" y="1334" width="40" height="220" fill="#6f5436"/><rect x="1380" y="1334" width="40" height="220" fill="#6f5436"/><rect x="1080" y="1030" width="42" height="290" rx="14" fill="#6f5436"/><rect x="260" y="480" width="560" height="24" fill="#8a6540"/><rect x="300" y="360" width="90" height="120" fill="#b3502f"/><rect x="400" y="380" width="80" height="100" fill="#2c4661"/><rect x="490" y="350" width="86" height="130" fill="#96a396"/><path d="M700,480 Q 616,347 574,382" fill="none" stroke="#5d7052" stroke-width="11.2" stroke-linecap="round"/><path d="M700,480 Q 644,347 616,354" fill="none" stroke="#5d7052" stroke-width="11.2" stroke-linecap="round"/><path d="M700,480 Q 672,347 658,326" fill="none" stroke="#5d7052" stroke-width="11.2" stroke-linecap="round"/><path d="M700,480 Q 700,347 700,298" fill="none" stroke="#5d7052" stroke-width="11.2" stroke-linecap="round"/><path d="M700,480 Q 728,347 742,326" fill="none" stroke="#5d7052" stroke-width="11.2" stroke-linecap="round"/><path d="M700,480 Q 756,347 784,354" fill="none" stroke="#5d7052" stroke-width="11.2" stroke-linecap="round"/><path d="M700,480 Q 784,347 826,382" fill="none" stroke="#5d7052" stroke-width="11.2" stroke-linecap="round"/><path d="M651,480 L749,480 L736.4,557 L663.6,557 Z" fill="#a9714d"/><path d="M320,1520 Q 164,1273 86,1338" fill="none" stroke="#5d7052" stroke-width="20.8" stroke-linecap="round"/><path d="M320,1520 Q 216,1273 164,1286" fill="none" stroke="#5d7052" stroke-width="20.8" stroke-linecap="round"/><path d="M320,1520 Q 268,1273 242,1234" fill="none" stroke="#5d7052" stroke-width="20.8" stroke-linecap="round"/><path d="M320,1520 Q 320,1273 320,1182" fill="none" stroke="#5d7052" stroke-width="20.8" stroke-linecap="round"/><path d="M320,1520 Q 372,1273 398,1234" fill="none" stroke="#5d7052" stroke-width="20.8" stroke-linecap="round"/><path d="M320,1520 Q 424,1273 476,1286" fill="none" stroke="#5d7052" stroke-width="20.8" stroke-linecap="round"/><path d="M320,1520 Q 476,1273 554,1338" fill="none" stroke="#5d7052" stroke-width="20.8" stroke-linecap="round"/><path d="M229,1520 L411,1520 L387.6,1663 L252.4,1663 Z" fill="#a9714d"/><defs><filter id="a190s-sh" x="-30%" y="-30%" width="160%" height="160%"><feGaussianBlur stdDeviation="16"/></filter></defs><rect x="1206" y="294" width="616" height="756" fill="#000" opacity="0.28" filter="url(#a190s-sh)"/><rect x="1192" y="272" width="616" height="756" fill="#443a2d"/><rect x="1210.2" y="290.2" width="579.6" height="719.6" fill="none" stroke="#00000055" stroke-width="3"/><rect x="1220" y="300" width="560" height="700" fill="#f6f2ea"/><svg x="1262" y="342" width="476" height="616" viewBox="0 0 2400 3000" preserveAspectRatio="xMidYMid slice"><rect width="2400" height="3000" fill="#3d4a33"/><radialGradient id="a190-vig" cx="50%" cy="42%" r="80%"><stop offset="55%" stop-color="#000" stop-opacity="0"/><stop offset="100%" stop-color="#000" stop-opacity="0.15"/></radialGradient><rect width="2400" height="3000" fill="url(#a190-vig)"/><circle cx="637" cy="1015.2" r="2.5" fill="#e6ddc4" opacity="0.067"/><circle cx="297.5" cy="675.2" r="2.9" fill="#e6ddc4" opacity="0.046"/><circle cx="985.8" cy="2578.5" r="1.7" fill="#e6ddc4" opacity="0.076"/><circle cx="1616.4" cy="411" r="4.4" fill="#e6ddc4" opacity="0.052"/><circle cx="2344.8" cy="1240.9" r="4.4" fill="#e6ddc4" opacity="0.058"/><circle cx="2355.5" cy="1231.9" r="1.6" fill="#e6ddc4" opacity="0.067"/><circle cx="566" cy="2706.2" r="3.8" fill="#e6ddc4" opacity="0.078"/><circle cx="1308.7" cy="2320.2" r="2" fill="#e6ddc4" opacity="0.037"/><circle cx="1588.1" cy="954.3" r="3.6" fill="#e6ddc4" opacity="0.041"/><circle cx="1748.4" cy="72" r="4.2" fill="#e6ddc4" opacity="0.039"/><circle cx="1563.2" cy="1016" r="3.8" fill="#e6ddc4" opacity="0.030"/><circle cx="1332.9" cy="764.8" r="3" fill="#e6ddc4" opacity="0.056"/><circle cx="174.6" cy="1646.6" r="2.4" fill="#e6ddc4" opacity="0.069"/><circle cx="841.6" cy="360.7" r="2" fill="#e6ddc4" opacity="0.074"/><circle cx="2038.1" cy="1414.7" r="1.8" fill="#e6ddc4" opacity="0.073"/><circle cx="546.8" cy="1512.5" r="3.3" fill="#e6ddc4" opacity="0.072"/><circle cx="205.2" cy="178.2" r="3.1" fill="#e6ddc4" opacity="0.043"/><circle cx="728.3" cy="217" r="3.1" fill="#e6ddc4" opacity="0.054"/><circle cx="133.6" cy="1203" r="4.1" fill="#e6ddc4" opacity="0.046"/><circle cx="1896.8" cy="2039.9" r="4.1" fill="#e6ddc4" opacity="0.078"/><circle cx="2317.2" cy="1597" r="2.4" fill="#e6ddc4" opacity="0.033"/><circle cx="1613.9" cy="2762" r="4.2" fill="#e6ddc4" opacity="0.046"/><circle cx="1795" cy="1716.6" r="2.8" fill="#e6ddc4" opacity="0.068"/><circle cx="1136.1" cy="2883.8" r="2.1" fill="#e6ddc4" opacity="0.077"/><circle cx="90.8" cy="903.5" r="2.6" fill="#e6ddc4" opacity="0.078"/><circle cx="2044.3" cy="1287" r="4.3" fill="#e6ddc4" opacity="0.058"/><circle cx="1522.4" cy="43.9" r="3.7" fill="#e6ddc4" opacity="0.051"/><circle cx="577" cy="2589" r="1.9" fill="#e6ddc4" opacity="0.067"/><circle cx="876.7" cy="2402" r="3.1" fill="#e6ddc4" opacity="0.074"/><circle cx="818.3" cy="1180.7" r="4.5" fill="#e6ddc4" opacity="0.076"/><circle cx="1228.5" cy="1665.3" r="1.5" fill="#e6ddc4" opacity="0.076"/><circle cx="557.7" cy="609.7" r="4.4" fill="#e6ddc4" opacity="0.059"/><circle cx="2340" cy="1373.8" r="2.9" fill="#e6ddc4" opacity="0.072"/><circle cx="1393" cy="2423.9" r="3.2" fill="#e6ddc4" opacity="0.067"/><circle cx="355.3" cy="2168" r="4.1" fill="#e6ddc4" opacity="0.042"/><circle cx="2261.7" cy="553.8" r="2.2" fill="#e6ddc4" opacity="0.062"/><circle cx="1905.6" cy="1103.4" r="3.9" fill="#e6ddc4" opacity="0.070"/><circle cx="162.7" cy="1632.6" r="3" fill="#e6ddc4" opacity="0.074"/><circle cx="2183.3" cy="2133.6" r="2.6" fill="#e6ddc4" opacity="0.030"/><circle cx="653" cy="1551.4" r="3.7" fill="#e6ddc4" opacity="0.071"/><circle cx="420.3" cy="2796.6" r="2.5" fill="#e6ddc4" opacity="0.066"/><circle cx="194.1" cy="2233.3" r="2" fill="#e6ddc4" opacity="0.059"/><circle cx="1971.8" cy="1038.1" r="2.2" fill="#e6ddc4" opacity="0.033"/><circle cx="2140.2" cy="1305.1" r="3.5" fill="#e6ddc4" opacity="0.049"/><circle cx="923.1" cy="2709.3" r="1.8" fill="#e6ddc4" opacity="0.055"/><circle cx="1475" cy="1744.6" r="3.6" fill="#e6ddc4" opacity="0.067"/><circle cx="1892.1" cy="1649.9" r="2.4" fill="#e6ddc4" opacity="0.069"/><circle cx="1200.6" cy="348.3" r="2.4" fill="#e6ddc4" opacity="0.076"/><circle cx="607.5" cy="1915.2" r="3.6" fill="#e6ddc4" opacity="0.064"/><circle cx="140.1" cy="1600.7" r="1.6" fill="#e6ddc4" opacity="0.035"/><circle cx="210.8" cy="2770.7" r="2.7" fill="#e6ddc4" opacity="0.075"/><circle cx="1919" cy="234.4" r="2.9" fill="#e6ddc4" opacity="0.031"/><circle cx="764.4" cy="2120" r="1.8" fill="#e6ddc4" opacity="0.076"/><circle cx="279.3" cy="1004.5" r="3.8" fill="#e6ddc4" opacity="0.045"/><circle cx="1429" cy="309.8" r="3.7" fill="#e6ddc4" opacity="0.035"/><circle cx="1896.7" cy="1333" r="3.8" fill="#e6ddc4" opacity="0.053"/><circle cx="1725.7" cy="399.7" r="3.3" fill="#e6ddc4" opacity="0.056"/><circle cx="2221.6" cy="1071.1" r="3.1" fill="#e6ddc4" opacity="0.059"/><circle cx="1337.2" cy="1693.6" r="3.3" fill="#e6ddc4" opacity="0.079"/><circle cx="2129.9" cy="1292.1" r="2.5" fill="#e6ddc4" opacity="0.039"/><circle cx="1905.2" cy="1335.9" r="4.3" fill="#e6ddc4" opacity="0.069"/><circle cx="2271.1" cy="535.6" r="3.9" fill="#e6ddc4" opacity="0.047"/><circle cx="975" cy="355.6" r="3.8" fill="#e6ddc4" opacity="0.078"/><circle cx="262.9" cy="1004.6" r="2.2" fill="#e6ddc4" opacity="0.039"/><circle cx="1586.1" cy="2005.2" r="1.7" fill="#e6ddc4" opacity="0.036"/><circle cx="839.1" cy="1682.3" r="2.6" fill="#e6ddc4" opacity="0.049"/><circle cx="715.6" cy="327.2" r="3.2" fill="#e6ddc4" opacity="0.052"/><circle cx="359.1" cy="1222.3" r="2.6" fill="#e6ddc4" opacity="0.053"/><circle cx="508.9" cy="2734.1" r="3.3" fill="#e6ddc4" opacity="0.033"/><circle cx="2127.9" cy="2367.6" r="2.1" fill="#e6ddc4" opacity="0.068"/><circle cx="1745.7" cy="2939.2" r="1.9" fill="#e6ddc4" opacity="0.051"/><circle cx="1565.8" cy="1499.5" r="2.8" fill="#e6ddc4" opacity="0.058"/><circle cx="2139.2" cy="1905.9" r="2.2" fill="#e6ddc4" opacity="0.070"/><circle cx="530.9" cy="191.4" r="2.4" fill="#e6ddc4" opacity="0.056"/><circle cx="721" cy="2303.5" r="2.8" fill="#e6ddc4" opacity="0.079"/><circle cx="2212.1" cy="2815" r="4.5" fill="#e6ddc4" opacity="0.079"/><circle cx="1252.3" cy="630" r="4.3" fill="#e6ddc4" opacity="0.052"/><circle cx="2158.7" cy="2583.2" r="1.6" fill="#e6ddc4" opacity="0.041"/><circle cx="2004.4" cy="1991.7" r="3.8" fill="#e6ddc4" opacity="0.046"/><circle cx="388.7" cy="2478.3" r="3.7" fill="#e6ddc4" opacity="0.070"/><circle cx="1200" cy="1420" r="900" fill="none" stroke="#e6ddc4" stroke-width="12"/><line x1="2066" y1="1420" x2="2100" y2="1420" stroke="#e6ddc4" stroke-width="8"/><line x1="2058.6" y1="1533" x2="2092.3" y2="1537.5" stroke="#e6ddc4" stroke-width="8"/><line x1="2036.5" y1="1644.1" x2="2069.3" y2="1652.9" stroke="#e6ddc4" stroke-width="8"/><line x1="2000.1" y1="1751.4" x2="2031.5" y2="1764.4" stroke="#e6ddc4" stroke-width="8"/><line x1="1950" y1="1853" x2="1979.4" y2="1870" stroke="#e6ddc4" stroke-width="8"/><line x1="1887" y1="1947.2" x2="1914" y2="1967.9" stroke="#e6ddc4" stroke-width="8"/><line x1="1812.4" y1="2032.4" x2="1836.4" y2="2056.4" stroke="#e6ddc4" stroke-width="8"/><line x1="1727.2" y1="2107" x2="1747.9" y2="2134" stroke="#e6ddc4" stroke-width="8"/><line x1="1633" y1="2170" x2="1650" y2="2199.4" stroke="#e6ddc4" stroke-width="8"/><line x1="1531.4" y1="2220.1" x2="1544.4" y2="2251.5" stroke="#e6ddc4" stroke-width="8"/><line x1="1424.1" y1="2256.5" x2="1432.9" y2="2289.3" stroke="#e6ddc4" stroke-width="8"/><line x1="1313" y1="2278.6" x2="1317.5" y2="2312.3" stroke="#e6ddc4" stroke-width="8"/><line x1="1200" y1="2286" x2="1200" y2="2320" stroke="#e6ddc4" stroke-width="8"/><line x1="1087" y1="2278.6" x2="1082.5" y2="2312.3" stroke="#e6ddc4" stroke-width="8"/><line x1="975.9" y1="2256.5" x2="967.1" y2="2289.3" stroke="#e6ddc4" stroke-width="8"/><line x1="868.6" y1="2220.1" x2="855.6" y2="2251.5" stroke="#e6ddc4" stroke-width="8"/><line x1="767" y1="2170" x2="750" y2="2199.4" stroke="#e6ddc4" stroke-width="8"/><line x1="672.8" y1="2107" x2="652.1" y2="2134" stroke="#e6ddc4" stroke-width="8"/><line x1="587.6" y1="2032.4" x2="563.6" y2="2056.4" stroke="#e6ddc4" stroke-width="8"/><line x1="513" y1="1947.2" x2="486" y2="1967.9" stroke="#e6ddc4" stroke-width="8"/><line x1="450" y1="1853" x2="420.6" y2="1870" stroke="#e6ddc4" stroke-width="8"/><line x1="399.9" y1="1751.4" x2="368.5" y2="1764.4" stroke="#e6ddc4" stroke-width="8"/><line x1="363.5" y1="1644.1" x2="330.7" y2="1652.9" stroke="#e6ddc4" stroke-width="8"/><line x1="341.4" y1="1533" x2="307.7" y2="1537.5" stroke="#e6ddc4" stroke-width="8"/><line x1="334" y1="1420" x2="300" y2="1420" stroke="#e6ddc4" stroke-width="8"/><line x1="341.4" y1="1307" x2="307.7" y2="1302.5" stroke="#e6ddc4" stroke-width="8"/><line x1="363.5" y1="1195.9" x2="330.7" y2="1187.1" stroke="#e6ddc4" stroke-width="8"/><line x1="399.9" y1="1088.6" x2="368.5" y2="1075.6" stroke="#e6ddc4" stroke-width="8"/><line x1="450" y1="987" x2="420.6" y2="970" stroke="#e6ddc4" stroke-width="8"/><line x1="513" y1="892.8" x2="486" y2="872.1" stroke="#e6ddc4" stroke-width="8"/><line x1="587.6" y1="807.6" x2="563.6" y2="783.6" stroke="#e6ddc4" stroke-width="8"/><line x1="672.8" y1="733" x2="652.1" y2="706" stroke="#e6ddc4" stroke-width="8"/><line x1="767" y1="670" x2="750" y2="640.6" stroke="#e6ddc4" stroke-width="8"/><line x1="868.6" y1="619.9" x2="855.6" y2="588.5" stroke="#e6ddc4" stroke-width="8"/><line x1="975.9" y1="583.5" x2="967.1" y2="550.7" stroke="#e6ddc4" stroke-width="8"/><line x1="1087" y1="561.4" x2="1082.5" y2="527.7" stroke="#e6ddc4" stroke-width="8"/><line x1="1200" y1="554" x2="1200" y2="520" stroke="#e6ddc4" stroke-width="8"/><line x1="1313" y1="561.4" x2="1317.5" y2="527.7" stroke="#e6ddc4" stroke-width="8"/><line x1="1424.1" y1="583.5" x2="1432.9" y2="550.7" stroke="#e6ddc4" stroke-width="8"/><line x1="1531.4" y1="619.9" x2="1544.4" y2="588.5" stroke="#e6ddc4" stroke-width="8"/><line x1="1633" y1="670" x2="1650" y2="640.6" stroke="#e6ddc4" stroke-width="8"/><line x1="1727.2" y1="733" x2="1747.9" y2="706" stroke="#e6ddc4" stroke-width="8"/><line x1="1812.4" y1="807.6" x2="1836.4" y2="783.6" stroke="#e6ddc4" stroke-width="8"/><line x1="1887" y1="892.8" x2="1914" y2="872.1" stroke="#e6ddc4" stroke-width="8"/><line x1="1950" y1="987" x2="1979.4" y2="970" stroke="#e6ddc4" stroke-width="8"/><line x1="2000.1" y1="1088.6" x2="2031.5" y2="1075.6" stroke="#e6ddc4" stroke-width="8"/><line x1="2036.5" y1="1195.9" x2="2069.3" y2="1187.1" stroke="#e6ddc4" stroke-width="8"/><line x1="2058.6" y1="1307" x2="2092.3" y2="1302.5" stroke="#e6ddc4" stroke-width="8"/><polygon points="2010,1420 1808.6,1356 1808.6,1484" fill="#e6ddc4"/><polygon points="1982.4,1629.6 1804.5,1515.7 1771.4,1639.3" fill="#bda15a"/><polygon points="1901.5,1825 1759.1,1668.9 1695.1,1779.7" fill="#e6ddc4"/><polygon points="1772.8,1992.8 1675.6,1805.1 1585.1,1895.6" fill="#bda15a"/><polygon points="1605,2121.5 1559.7,1915.1 1448.9,1979.1" fill="#e6ddc4"/><polygon points="1409.6,2202.4 1419.3,1991.4 1295.7,2024.5" fill="#bda15a"/><polygon points="1200,2230 1264,2028.6 1136,2028.6" fill="#e6ddc4"/><polygon points="990.4,2202.4 1104.3,2024.5 980.7,1991.4" fill="#bda15a"/><polygon points="795,2121.5 951.1,1979.1 840.3,1915.1" fill="#e6ddc4"/><polygon points="627.2,1992.8 814.9,1895.6 724.4,1805.1" fill="#bda15a"/><polygon points="498.5,1825 704.9,1779.7 640.9,1668.9" fill="#e6ddc4"/><polygon points="417.6,1629.6 628.6,1639.3 595.5,1515.7" fill="#bda15a"/><polygon points="390,1420 591.4,1484 591.4,1356" fill="#e6ddc4"/><polygon points="417.6,1210.4 595.5,1324.3 628.6,1200.7" fill="#bda15a"/><polygon points="498.5,1015 640.9,1171.1 704.9,1060.3" fill="#e6ddc4"/><polygon points="627.2,847.2 724.4,1034.9 814.9,944.4" fill="#bda15a"/><polygon points="795,718.5 840.3,924.9 951.1,860.9" fill="#e6ddc4"/><polygon points="990.4,637.6 980.7,848.6 1104.3,815.5" fill="#bda15a"/><polygon points="1200,610 1136,811.4 1264,811.4" fill="#e6ddc4"/><polygon points="1409.6,637.6 1295.7,815.5 1419.3,848.6" fill="#bda15a"/><polygon points="1605,718.5 1448.9,860.9 1559.7,924.9" fill="#e6ddc4"/><polygon points="1772.8,847.2 1585.1,944.4 1675.6,1034.9" fill="#bda15a"/><polygon points="1901.5,1015 1695.1,1060.3 1759.1,1171.1" fill="#e6ddc4"/><polygon points="1982.4,1210.4 1771.4,1200.7 1804.5,1324.3" fill="#bda15a"/><circle cx="1200" cy="1420" r="558" fill="none" stroke="#e6ddc4" stroke-width="8"/><path d="M0 0 Q 67.5 -198.4 0 -522 Q -67.5 -198.4 0 0 Z" fill="#bda15a" opacity="0.96" transform="translate(1209.8 1422) rotate(191.3)"/><path d="M0 0 Q 67.5 -198.4 0 -522 Q -67.5 -198.4 0 0 Z" fill="#e6ddc4" opacity="0.96" transform="translate(1208.3 1425.6) rotate(213.8)"/><path d="M0 0 Q 67.5 -198.4 0 -522 Q -67.5 -198.4 0 0 Z" fill="#bda15a" opacity="0.96" transform="translate(1205.6 1428.3) rotate(236.3)"/><path d="M0 0 Q 67.5 -198.4 0 -522 Q -67.5 -198.4 0 0 Z" fill="#e6ddc4" opacity="0.96" transform="translate(1202 1429.8) rotate(258.8)"/><path d="M0 0 Q 67.5 -198.4 0 -522 Q -67.5 -198.4 0 0 Z" fill="#bda15a" opacity="0.96" transform="translate(1198 1429.8) rotate(281.3)"/><path d="M0 0 Q 67.5 -198.4 0 -522 Q -67.5 -198.4 0 0 Z" fill="#e6ddc4" opacity="0.96" transform="translate(1194.4 1428.3) rotate(303.8)"/><path d="M0 0 Q 67.5 -198.4 0 -522 Q -67.5 -198.4 0 0 Z" fill="#bda15a" opacity="0.96" transform="translate(1191.7 1425.6) rotate(326.3)"/><path d="M0 0 Q 67.5 -198.4 0 -522 Q -67.5 -198.4 0 0 Z" fill="#e6ddc4" opacity="0.96" transform="translate(1190.2 1422) rotate(348.8)"/><path d="M0 0 Q 67.5 -198.4 0 -522 Q -67.5 -198.4 0 0 Z" fill="#bda15a" opacity="0.96" transform="translate(1190.2 1418) rotate(371.3)"/><path d="M0 0 Q 67.5 -198.4 0 -522 Q -67.5 -198.4 0 0 Z" fill="#e6ddc4" opacity="0.96" transform="translate(1191.7 1414.4) rotate(393.8)"/><path d="M0 0 Q 67.5 -198.4 0 -522 Q -67.5 -198.4 0 0 Z" fill="#bda15a" opacity="0.96" transform="translate(1194.4 1411.7) rotate(416.3)"/><path d="M0 0 Q 67.5 -198.4 0 -522 Q -67.5 -198.4 0 0 Z" fill="#e6ddc4" opacity="0.96" transform="translate(1198 1410.2) rotate(438.8)"/><path d="M0 0 Q 67.5 -198.4 0 -522 Q -67.5 -198.4 0 0 Z" fill="#bda15a" opacity="0.96" transform="translate(1202 1410.2) rotate(461.3)"/><path d="M0 0 Q 67.5 -198.4 0 -522 Q -67.5 -198.4 0 0 Z" fill="#e6ddc4" opacity="0.96" transform="translate(1205.6 1411.7) rotate(483.8)"/><path d="M0 0 Q 67.5 -198.4 0 -522 Q -67.5 -198.4 0 0 Z" fill="#bda15a" opacity="0.96" transform="translate(1208.3 1414.4) rotate(506.3)"/><path d="M0 0 Q 67.5 -198.4 0 -522 Q -67.5 -198.4 0 0 Z" fill="#e6ddc4" opacity="0.96" transform="translate(1209.8 1418) rotate(528.8)"/><path d="M0 0 Q 76.5 -116.3 0 -306 Q -76.5 -116.3 0 0 Z" fill="#57674b" opacity="0.98" transform="translate(1200 1420) rotate(180)"/><path d="M0 0 Q 76.5 -116.3 0 -306 Q -76.5 -116.3 0 0 Z" fill="#57674b" opacity="0.98" transform="translate(1200 1420) rotate(225)"/><path d="M0 0 Q 76.5 -116.3 0 -306 Q -76.5 -116.3 0 0 Z" fill="#57674b" opacity="0.98" transform="translate(1200 1420) rotate(270)"/><path d="M0 0 Q 76.5 -116.3 0 -306 Q -76.5 -116.3 0 0 Z" fill="#57674b" opacity="0.98" transform="translate(1200 1420) rotate(315)"/><path d="M0 0 Q 76.5 -116.3 0 -306 Q -76.5 -116.3 0 0 Z" fill="#57674b" opacity="0.98" transform="translate(1200 1420) rotate(360)"/><path d="M0 0 Q 76.5 -116.3 0 -306 Q -76.5 -116.3 0 0 Z" fill="#57674b" opacity="0.98" transform="translate(1200 1420) rotate(405)"/><path d="M0 0 Q 76.5 -116.3 0 -306 Q -76.5 -116.3 0 0 Z" fill="#57674b" opacity="0.98" transform="translate(1200 1420) rotate(450)"/><path d="M0 0 Q 76.5 -116.3 0 -306 Q -76.5 -116.3 0 0 Z" fill="#57674b" opacity="0.98" transform="translate(1200 1420) rotate(495)"/><circle cx="1200" cy="1420" r="110" fill="#e6ddc4"/><circle cx="1200" cy="1420" r="44" fill="#bda15a"/><circle cx="388" cy="208" r="14.6" fill="#e6ddc4"/><circle cx="444" cy="208" r="14.6" fill="#e6ddc4"/><circle cx="500" cy="208" r="14.6" fill="#e6ddc4"/><circle cx="556" cy="208" r="14.6" fill="#e6ddc4"/><circle cx="612" cy="208" r="14.6" fill="#e6ddc4"/><circle cx="668" cy="208" r="14.6" fill="#e6ddc4"/><circle cx="724" cy="208" r="14.6" fill="#e6ddc4"/><circle cx="780" cy="208" r="14.6" fill="#e6ddc4"/><circle cx="836" cy="208" r="14.6" fill="#e6ddc4"/><circle cx="892" cy="208" r="14.6" fill="#e6ddc4"/><circle cx="948" cy="208" r="14.6" fill="#e6ddc4"/><circle cx="1004" cy="208" r="14.6" fill="#e6ddc4"/><circle cx="1060" cy="208" r="14.6" fill="#e6ddc4"/><circle cx="1116" cy="208" r="14.6" fill="#e6ddc4"/><circle cx="1172" cy="208" r="14.6" fill="#e6ddc4"/><circle cx="1228" cy="208" r="14.6" fill="#e6ddc4"/><circle cx="1284" cy="208" r="14.6" fill="#e6ddc4"/><circle cx="1340" cy="208" r="14.6" fill="#e6ddc4"/><circle cx="1396" cy="208" r="14.6" fill="#e6ddc4"/><circle cx="1452" cy="208" r="14.6" fill="#e6ddc4"/><circle cx="1508" cy="208" r="14.6" fill="#e6ddc4"/><circle cx="1564" cy="208" r="14.6" fill="#e6ddc4"/><circle cx="1620" cy="208" r="14.6" fill="#e6ddc4"/><circle cx="1676" cy="208" r="14.6" fill="#e6ddc4"/><circle cx="1732" cy="208" r="14.6" fill="#e6ddc4"/><circle cx="1788" cy="208" r="14.6" fill="#e6ddc4"/><circle cx="1844" cy="208" r="14.6" fill="#e6ddc4"/><circle cx="1900" cy="208" r="14.6" fill="#e6ddc4"/><circle cx="1956" cy="208" r="14.6" fill="#e6ddc4"/><circle cx="2012" cy="208" r="14.6" fill="#e6ddc4"/><circle cx="388" cy="2792" r="14.6" fill="#e6ddc4"/><circle cx="444" cy="2792" r="14.6" fill="#e6ddc4"/><circle cx="500" cy="2792" r="14.6" fill="#e6ddc4"/><circle cx="556" cy="2792" r="14.6" fill="#e6ddc4"/><circle cx="612" cy="2792" r="14.6" fill="#e6ddc4"/><circle cx="668" cy="2792" r="14.6" fill="#e6ddc4"/><circle cx="724" cy="2792" r="14.6" fill="#e6ddc4"/><circle cx="780" cy="2792" r="14.6" fill="#e6ddc4"/><circle cx="836" cy="2792" r="14.6" fill="#e6ddc4"/><circle cx="892" cy="2792" r="14.6" fill="#e6ddc4"/><circle cx="948" cy="2792" r="14.6" fill="#e6ddc4"/><circle cx="1004" cy="2792" r="14.6" fill="#e6ddc4"/><circle cx="1060" cy="2792" r="14.6" fill="#e6ddc4"/><circle cx="1116" cy="2792" r="14.6" fill="#e6ddc4"/><circle cx="1172" cy="2792" r="14.6" fill="#e6ddc4"/><circle cx="1228" cy="2792" r="14.6" fill="#e6ddc4"/><circle cx="1284" cy="2792" r="14.6" fill="#e6ddc4"/><circle cx="1340" cy="2792" r="14.6" fill="#e6ddc4"/><circle cx="1396" cy="2792" r="14.6" fill="#e6ddc4"/><circle cx="1452" cy="2792" r="14.6" fill="#e6ddc4"/><circle cx="1508" cy="2792" r="14.6" fill="#e6ddc4"/><circle cx="1564" cy="2792" r="14.6" fill="#e6ddc4"/><circle cx="1620" cy="2792" r="14.6" fill="#e6ddc4"/><circle cx="1676" cy="2792" r="14.6" fill="#e6ddc4"/><circle cx="1732" cy="2792" r="14.6" fill="#e6ddc4"/><circle cx="1788" cy="2792" r="14.6" fill="#e6ddc4"/><circle cx="1844" cy="2792" r="14.6" fill="#e6ddc4"/><circle cx="1900" cy="2792" r="14.6" fill="#e6ddc4"/><circle cx="1956" cy="2792" r="14.6" fill="#e6ddc4"/><circle cx="2012" cy="2792" r="14.6" fill="#e6ddc4"/><rect x="100" y="100" width="2200" height="2800" fill="none" stroke="#e6ddc4" stroke-width="9"/><rect x="142" y="142" width="2116" height="2716" fill="none" stroke="#e6ddc4" stroke-width="3" opacity="0.65"/></svg></svg>