<svg xmlns="http://www.w3.org/2000/svg" width="2400" height="1800" viewBox="0 0 2400 1800"><rect width="2400" height="1800" fill="#dfe4dc"/><rect y="1400" width="2400" height="400" fill="#c2a67e"/><line x1="60" y1="1400" x2="10" y2="1800" stroke="#00000015" stroke-width="5"/><line x1="260" y1="1400" x2="210" y2="1800" stroke="#00000015" stroke-width="5"/><line x1="460" y1="1400" x2="410" y2="1800" stroke="#00000015" stroke-width="5"/><line x1="660" y1="1400" x2="610" y2="1800" stroke="#00000015" stroke-width="5"/><line x1="860" y1="1400" x2="810" y2="1800" stroke="#00000015" stroke-width="5"/><line x1="1060" y1="1400" x2="1010" y2="1800" stroke="#00000015" stroke-width="5"/><line x1="1260" y1="1400" x2="1210" y2="1800" stroke="#00000015" stroke-width="5"/><line x1="1460" y1="1400" x2="1410" y2="1800" stroke="#00000015" stroke-width="5"/><line x1="1660" y1="1400" x2="1610" y2="1800" stroke="#00000015" stroke-width="5"/><line x1="1860" y1="1400" x2="1810" y2="1800" stroke="#00000015" stroke-width="5"/><line x1="2060" y1="1400" x2="2010" y2="1800" stroke="#00000015" stroke-width="5"/><line x1="2260" y1="1400" x2="2210" y2="1800" stroke="#00000015" stroke-width="5"/><rect x="180" y="260" width="900" height="620" fill="#8a6a48"/><rect x="215" y="295" width="830" height="550" fill="#41524a"/><line x1="280" y1="420" x2="760" y2="420" stroke="#ffffff66" stroke-width="9" stroke-linecap="round"/><line x1="280" y1="520" x2="620" y2="520" stroke="#ffffff44" stroke-width="9" stroke-linecap="round"/><circle cx="880" cy="560" r="90" fill="none" stroke="#ffffff55" stroke-width="8"/><rect x="215" y="845" width="830" height="22" fill="#6f5436"/><rect x="330" y="1240" width="640" height="60" rx="10" fill="#9c7449"/><rect x="370" y="1300" width="60" height="240" fill="#8a6540"/><rect x="870" y="1300" width="60" height="240" fill="#8a6540"/><rect x="430" y="1160" width="150" height="80" rx="8" fill="#96422a"/><rect x="450" y="1120" width="150" height="40" rx="8" fill="#b49d72"/><circle cx="800" cy="1130" r="86" fill="#7fa3b8"/><path d="M760,1060 Q820,1100 780,1190 M740,1090 Q800,1120 850,1100" stroke="#5d8069" stroke-width="16" fill="none" stroke-linecap="round"/><circle cx="800" cy="1130" r="86" fill="none" stroke="#6b5233" stroke-width="7"/><line x1="800" y1="1216" x2="800" y2="1250" stroke="#6b5233" stroke-width="10"/><rect x="750" y="1244" width="100" height="14" rx="7" fill="#6b5233"/><rect x="1980" y="700" width="300" height="800" fill="#9c7449"/><rect x="2000" y="930" width="260" height="16" fill="#7c5a37"/><rect x="2020" y="790" width="36" height="140" fill="#b3502f"/><rect x="2066" y="802" width="36" height="128" fill="#39685c"/><rect x="2112" y="790" width="36" height="140" fill="#c9a227"/><rect x="2158" y="802" width="36" height="128" fill="#2c4661"/><rect x="2204" y="790" width="36" height="140" fill="#8a4423"/><rect x="2000" y="1180" width="260" height="16" fill="#7c5a37"/><rect x="2020" y="1040" width="36" height="140" fill="#39685c"/><rect x="2066" y="1052" width="36" height="128" fill="#c9a227"/><rect x="2112" y="1040" width="36" height="140" fill="#2c4661"/><rect x="2158" y="1052" width="36" height="128" fill="#8a4423"/><rect x="2204" y="1040" width="36" height="140" fill="#b3502f"/><rect x="2000" y="1430" width="260" height="16" fill="#7c5a37"/><rect x="2020" y="1290" width="36" height="140" fill="#c9a227"/><rect x="2066" y="1302" width="36" height="128" fill="#2c4661"/><rect x="2112" y="1290" width="36" height="140" fill="#8a4423"/><rect x="2158" y="1302" width="36" height="128" fill="#b3502f"/><rect x="2204" y="1290" width="36" height="140" fill="#39685c"/><defs><filter id="a174c-sh" x="-30%" y="-30%" width="160%" height="160%"><feGaussianBlur stdDeviation="16"/></filter></defs><rect x="1340.5" y="298.5" width="517" height="635" fill="#000" opacity="0.28" filter="url(#a174c-sh)"/><rect x="1326.5" y="276.5" width="517" height="635" fill="#3d342a"/><rect x="1341.8" y="291.8" width="486.4" height="604.5" fill="none" stroke="#00000055" stroke-width="3"/><rect x="1350" y="300" width="470" height="588" fill="#f6f2ea"/><svg x="1385.3" y="335.3" width="399.5" height="517.5" viewBox="0 0 2400 3000" preserveAspectRatio="xMidYMid slice"><filter id="a174-warp" x="-4%" y="-4%" width="108%" height="108%"><feTurbulence type="fractalNoise" baseFrequency="0.0105" numOctaves="2" seed="3664" result="w"/><feDisplacementMap in="SourceGraphic" in2="w" scale="11" xChannelSelector="R" yChannelSelector="G"/></filter><filter id="a174-grain" x="0%" y="0%" width="100%" height="100%"><feTurbulence type="fractalNoise" baseFrequency="0.6" numOctaves="2" seed="3671"/><feColorMatrix type="matrix" values="0.33 0.33 0.33 0 0.62  0.33 0.33 0.33 0 0.62  0.33 0.33 0.33 0 0.62  0 0 0 0 1"/></filter><filter id="a174-mottle" x="0%" y="0%" width="100%" height="100%"><feTurbulence type="fractalNoise" baseFrequency="0.0045" numOctaves="3" seed="3677"/><feColorMatrix type="matrix" values="0.2 0.2 0.2 0 0.78  0.2 0.2 0.2 0 0.78  0.2 0.2 0.2 0 0.78  0 0 0 0 1"/></filter><filter id="a174-fade" x="0%" y="0%" width="100%" height="100%"><feTurbulence type="fractalNoise" baseFrequency="0.006" numOctaves="2" seed="3693"/><feColorMatrix type="matrix" values="0.3 0.3 0.3 0 -0.08  0.3 0.3 0.3 0 -0.08  0.3 0.3 0.3 0 -0.1  0 0 0 0 1"/></filter><filter id="a174-blur9"><feGaussianBlur stdDeviation="9"/></filter><radialGradient id="a174-vig" cx="50%" cy="44%" r="78%"><stop offset="52%" stop-color="#241a10" stop-opacity="0"/><stop offset="100%" stop-color="#241a10" stop-opacity="0.17"/></radialGradient><radialGradient id="a174-warm" cx="54%" cy="30%" r="85%"><stop offset="0%" stop-color="#e8c890" stop-opacity="0.14"/><stop offset="70%" stop-color="#e8c890" stop-opacity="0"/></radialGradient><rect width="2400" height="3000" fill="#d8c298"/><rect width="2400" height="3000" fill="url(#a174-warm)"/><rect x="0" width="33.8" height="3000" fill="#6b4e26" opacity="0.065"/><rect x="46.9" width="25.2" height="3000" fill="#6b4e26" opacity="0.035"/><rect x="81.9" width="36.5" height="3000" fill="#6b4e26" opacity="0.037"/><rect x="132.5" width="42.8" height="3000" fill="#6b4e26" opacity="0.055"/><rect x="191.9" width="34.4" height="3000" fill="#6b4e26" opacity="0.071"/><rect x="239.7" width="31" height="3000" fill="#6b4e26" opacity="0.031"/><rect x="282.8" width="42.9" height="3000" fill="#6b4e26" opacity="0.083"/><rect x="342.4" width="41.7" height="3000" fill="#6b4e26" opacity="0.044"/><rect x="400.3" width="29.9" height="3000" fill="#6b4e26" opacity="0.057"/><rect x="441.8" width="23.9" height="3000" fill="#6b4e26" opacity="0.099"/><rect x="475" width="40.9" height="3000" fill="#6b4e26" opacity="0.065"/><rect x="531.8" width="22.2" height="3000" fill="#6b4e26" opacity="0.082"/><rect x="562.6" width="33.3" height="3000" fill="#6b4e26" opacity="0.056"/><rect x="608.8" width="21.9" height="3000" fill="#6b4e26" opacity="0.058"/><rect x="639.3" width="39" height="3000" fill="#6b4e26" opacity="0.040"/><rect x="693.4" width="32.9" height="3000" fill="#6b4e26" opacity="0.076"/><rect x="739" width="42.7" height="3000" fill="#6b4e26" opacity="0.095"/><rect x="798.3" width="24.3" height="3000" fill="#6b4e26" opacity="0.048"/><rect x="832.1" width="32.6" height="3000" fill="#6b4e26" opacity="0.073"/><rect x="877.4" width="22.7" height="3000" fill="#6b4e26" opacity="0.085"/><rect x="908.9" width="25.9" height="3000" fill="#6b4e26" opacity="0.073"/><rect x="944.9" width="19.2" height="3000" fill="#6b4e26" opacity="0.090"/><rect x="971.5" width="36.2" height="3000" fill="#6b4e26" opacity="0.090"/><rect x="1021.8" width="32.7" height="3000" fill="#6b4e26" opacity="0.075"/><rect x="1067.2" width="38" height="3000" fill="#6b4e26" opacity="0.065"/><rect x="1120.1" width="31.9" height="3000" fill="#6b4e26" opacity="0.069"/><rect x="1164.4" width="26.7" height="3000" fill="#6b4e26" opacity="0.080"/><rect x="1201.5" width="25.4" height="3000" fill="#6b4e26" opacity="0.069"/><rect x="1236.8" width="22.9" height="3000" fill="#6b4e26" opacity="0.041"/><rect x="1268.7" width="38.5" height="3000" fill="#6b4e26" opacity="0.073"/><rect x="1322.1" width="31.5" height="3000" fill="#6b4e26" opacity="0.096"/><rect x="1365.9" width="26.3" height="3000" fill="#6b4e26" opacity="0.069"/><rect x="1402.4" width="36.7" height="3000" fill="#6b4e26" opacity="0.092"/><rect x="1453.3" width="27.4" height="3000" fill="#6b4e26" opacity="0.094"/><rect x="1491.5" width="38.1" height="3000" fill="#6b4e26" opacity="0.048"/><rect x="1544.4" width="27.7" height="3000" fill="#6b4e26" opacity="0.072"/><rect x="1582.9" width="39.9" height="3000" fill="#6b4e26" opacity="0.062"/><rect x="1638.3" width="40.6" height="3000" fill="#6b4e26" opacity="0.063"/><rect x="1694.7" width="18.8" height="3000" fill="#6b4e26" opacity="0.031"/><rect x="1720.8" width="40.1" height="3000" fill="#6b4e26" opacity="0.038"/><rect x="1776.5" width="32.7" height="3000" fill="#6b4e26" opacity="0.064"/><rect x="1821.9" width="38.5" height="3000" fill="#6b4e26" opacity="0.063"/><rect x="1875.4" width="20.8" height="3000" fill="#6b4e26" opacity="0.039"/><rect x="1904.3" width="30.5" height="3000" fill="#6b4e26" opacity="0.094"/><rect x="1946.6" width="42.5" height="3000" fill="#6b4e26" opacity="0.096"/><rect x="2005.7" width="30" height="3000" fill="#6b4e26" opacity="0.083"/><rect x="2047.4" width="30.6" height="3000" fill="#6b4e26" opacity="0.046"/><rect x="2089.9" width="28.8" height="3000" fill="#6b4e26" opacity="0.078"/><rect x="2129.9" width="36.7" height="3000" fill="#6b4e26" opacity="0.071"/><rect x="2180.8" width="21" height="3000" fill="#6b4e26" opacity="0.080"/><rect x="2209.9" width="28.7" height="3000" fill="#6b4e26" opacity="0.083"/><rect x="2249.7" width="27.3" height="3000" fill="#6b4e26" opacity="0.081"/><rect x="2287.6" width="30.4" height="3000" fill="#6b4e26" opacity="0.085"/><rect x="2329.9" width="40.5" height="3000" fill="#6b4e26" opacity="0.074"/><rect x="2386.2" width="36.1" height="3000" fill="#6b4e26" opacity="0.041"/><rect y="0" width="2400" height="20.6" fill="#7c5c30" opacity="0.045"/><rect y="34.3" width="2400" height="15.7" fill="#7c5c30" opacity="0.024"/><rect y="60.4" width="2400" height="15.1" fill="#7c5c30" opacity="0.052"/><rect y="85.5" width="2400" height="23.9" fill="#7c5c30" opacity="0.025"/><rect y="125.3" width="2400" height="17.7" fill="#7c5c30" opacity="0.023"/><rect y="154.9" width="2400" height="24.5" fill="#7c5c30" opacity="0.057"/><rect y="195.8" width="2400" height="14.8" fill="#7c5c30" opacity="0.029"/><rect y="220.5" width="2400" height="13" fill="#7c5c30" opacity="0.039"/><rect y="242.3" width="2400" height="26.5" fill="#7c5c30" opacity="0.044"/><rect y="286.4" width="2400" height="24.6" fill="#7c5c30" opacity="0.035"/><rect y="327.4" width="2400" height="25.4" fill="#7c5c30" opacity="0.035"/><rect y="369.7" width="2400" height="13.5" fill="#7c5c30" opacity="0.024"/><rect y="392.3" width="2400" height="24.6" fill="#7c5c30" opacity="0.033"/><rect y="433.3" width="2400" height="25.3" fill="#7c5c30" opacity="0.043"/><rect y="475.4" width="2400" height="21.5" fill="#7c5c30" opacity="0.040"/><rect y="511.3" width="2400" height="20.5" fill="#7c5c30" opacity="0.031"/><rect y="545.4" width="2400" height="15.5" fill="#7c5c30" opacity="0.036"/><rect y="571.2" width="2400" height="16.2" fill="#7c5c30" opacity="0.043"/><rect y="598.2" width="2400" height="15.4" fill="#7c5c30" opacity="0.024"/><rect y="623.8" width="2400" height="28.5" fill="#7c5c30" opacity="0.022"/><rect y="671.4" width="2400" height="14.7" fill="#7c5c30" opacity="0.060"/><rect y="695.8" width="2400" height="18.3" fill="#7c5c30" opacity="0.032"/><rect y="726.3" width="2400" height="22.1" fill="#7c5c30" opacity="0.027"/><rect y="763.1" width="2400" height="18.7" fill="#7c5c30" opacity="0.021"/><rect y="794.3" width="2400" height="25.5" fill="#7c5c30" opacity="0.054"/><rect y="836.8" width="2400" height="22.9" fill="#7c5c30" opacity="0.035"/><rect y="875" width="2400" height="26.7" fill="#7c5c30" opacity="0.047"/><rect y="919.5" width="2400" height="16.1" fill="#7c5c30" opacity="0.024"/><rect y="946.3" width="2400" height="12.9" fill="#7c5c30" opacity="0.058"/><rect y="967.8" width="2400" height="24.4" fill="#7c5c30" opacity="0.023"/><rect y="1008.5" width="2400" height="17.2" fill="#7c5c30" opacity="0.058"/><rect y="1037.2" width="2400" height="24.8" fill="#7c5c30" opacity="0.027"/><rect y="1078.5" width="2400" height="28.3" fill="#7c5c30" opacity="0.060"/><rect y="1125.7" width="2400" height="24.1" fill="#7c5c30" opacity="0.029"/><rect y="1166" width="2400" height="14.8" fill="#7c5c30" opacity="0.048"/><rect y="1190.6" width="2400" height="12.1" fill="#7c5c30" opacity="0.026"/><rect y="1210.8" width="2400" height="21.1" fill="#7c5c30" opacity="0.055"/><rect y="1245.9" width="2400" height="26" fill="#7c5c30" opacity="0.042"/><rect y="1289.1" width="2400" height="13.1" fill="#7c5c30" opacity="0.050"/><rect y="1311" width="2400" height="15.3" fill="#7c5c30" opacity="0.031"/><rect y="1336.5" width="2400" height="17" fill="#7c5c30" opacity="0.032"/><rect y="1364.9" width="2400" height="26.8" fill="#7c5c30" opacity="0.050"/><rect y="1409.6" width="2400" height="15.6" fill="#7c5c30" opacity="0.040"/><rect y="1435.7" width="2400" height="18.2" fill="#7c5c30" opacity="0.033"/><rect y="1466" width="2400" height="21.9" fill="#7c5c30" opacity="0.042"/><rect y="1502.5" width="2400" height="26" fill="#7c5c30" opacity="0.051"/><rect y="1545.8" width="2400" height="12.8" fill="#7c5c30" opacity="0.032"/><rect y="1567.1" width="2400" height="25.7" fill="#7c5c30" opacity="0.033"/><rect y="1610" width="2400" height="28.6" fill="#7c5c30" opacity="0.043"/><rect y="1657.7" width="2400" height="17.4" fill="#7c5c30" opacity="0.040"/><rect y="1686.7" width="2400" height="20.2" fill="#7c5c30" opacity="0.056"/><rect y="1720.5" width="2400" height="26.4" fill="#7c5c30" opacity="0.060"/><rect y="1764.4" width="2400" height="25.5" fill="#7c5c30" opacity="0.039"/><rect y="1807" width="2400" height="25.4" fill="#7c5c30" opacity="0.024"/><rect y="1849.3" width="2400" height="25.1" fill="#7c5c30" opacity="0.039"/><rect y="1891.1" width="2400" height="28.3" fill="#7c5c30" opacity="0.022"/><rect y="1938.3" width="2400" height="22.8" fill="#7c5c30" opacity="0.043"/><rect y="1976.3" width="2400" height="20" fill="#7c5c30" opacity="0.036"/><rect y="2009.6" width="2400" height="27.7" fill="#7c5c30" opacity="0.033"/><rect y="2055.8" width="2400" height="13.7" fill="#7c5c30" opacity="0.026"/><rect y="2078.6" width="2400" height="18.8" fill="#7c5c30" opacity="0.032"/><rect y="2109.9" width="2400" height="22.3" fill="#7c5c30" opacity="0.032"/><rect y="2147.2" width="2400" height="22.5" fill="#7c5c30" opacity="0.032"/><rect y="2184.6" width="2400" height="22.5" fill="#7c5c30" opacity="0.042"/><rect y="2222.1" width="2400" height="15.2" fill="#7c5c30" opacity="0.029"/><rect y="2247.5" width="2400" height="24" fill="#7c5c30" opacity="0.036"/><rect y="2287.5" width="2400" height="27.7" fill="#7c5c30" opacity="0.026"/><rect y="2333.6" width="2400" height="18.4" fill="#7c5c30" opacity="0.033"/><rect y="2364.3" width="2400" height="27.6" fill="#7c5c30" opacity="0.052"/><rect y="2410.3" width="2400" height="26.9" fill="#7c5c30" opacity="0.048"/><rect y="2455" width="2400" height="13.6" fill="#7c5c30" opacity="0.047"/><rect y="2477.7" width="2400" height="16.5" fill="#7c5c30" opacity="0.021"/><rect y="2505.3" width="2400" height="23.6" fill="#7c5c30" opacity="0.058"/><rect y="2544.6" width="2400" height="14.2" fill="#7c5c30" opacity="0.043"/><rect y="2568.2" width="2400" height="23.3" fill="#7c5c30" opacity="0.048"/><rect y="2607" width="2400" height="25.9" fill="#7c5c30" opacity="0.054"/><rect y="2650.1" width="2400" height="14.2" fill="#7c5c30" opacity="0.040"/><rect y="2673.8" width="2400" height="13.9" fill="#7c5c30" opacity="0.037"/><rect y="2696.9" width="2400" height="17.4" fill="#7c5c30" opacity="0.058"/><rect y="2726" width="2400" height="26" fill="#7c5c30" opacity="0.022"/><rect y="2769.3" width="2400" height="20.5" fill="#7c5c30" opacity="0.055"/><rect y="2803.5" width="2400" height="16.1" fill="#7c5c30" opacity="0.058"/><rect y="2830.3" width="2400" height="21.5" fill="#7c5c30" opacity="0.052"/><rect y="2866.1" width="2400" height="19" fill="#7c5c30" opacity="0.030"/><rect y="2897.7" width="2400" height="22.8" fill="#7c5c30" opacity="0.058"/><rect y="2935.6" width="2400" height="24.5" fill="#7c5c30" opacity="0.048"/><rect y="2976.5" width="2400" height="27.9" fill="#7c5c30" opacity="0.043"/><g filter="url(#a174-warp)"><rect x="190" y="190" width="2020" height="2620" fill="none" stroke="#312a1e" stroke-width="14"/><rect x="260" y="260" width="1880" height="2480" fill="none" stroke="#312a1e" stroke-width="7"/><rect x="148" y="148" width="84" height="84" fill="#96422a"/><rect x="148" y="2768" width="84" height="84" fill="#96422a"/><rect x="2168" y="148" width="84" height="84" fill="#96422a"/><rect x="2168" y="2768" width="84" height="84" fill="#96422a"/><ellipse cx="1200" cy="960" rx="230" ry="300" fill="none" stroke="#312a1e" stroke-width="110"/><rect x="1148" y="1230" width="104" height="900" rx="40" fill="#312a1e"/><rect x="800" y="1230" width="800" height="104" rx="40" fill="#312a1e"/><circle cx="1200" cy="960" r="66" fill="#96422a"/><polygon points="1798.3,2465 1807.1,2487.3 1829.4,2496.1 1807.1,2504.9 1798.3,2527.2 1789.5,2504.9 1767.2,2496.1 1789.5,2487.3 " fill="#96422a"/><polygon points="1661.3,526.1 1668.7,544.8 1687.4,552.2 1668.7,559.6 1661.3,578.4 1653.9,559.6 1635.2,552.2 1653.9,544.8 " fill="#96422a"/><polygon points="479.3,413.1 488.1,435.4 510.4,444.1 488.1,452.9 479.3,475.2 470.6,452.9 448.3,444.1 470.6,435.4 " fill="#96422a"/><polygon points="886.8,405.7 895.4,427.6 917.4,436.2 895.4,444.9 886.8,466.8 878.2,444.9 856.2,436.2 878.2,427.6 " fill="#96422a"/><polygon points="1620.2,428.2 1630.5,454.4 1656.7,464.7 1630.5,475.1 1620.2,501.3 1609.9,475.1 1583.7,464.7 1609.9,454.4 " fill="#96422a"/><polygon points="1332.8,388.7 1342,412 1365.3,421.2 1342,430.4 1332.8,453.7 1323.6,430.4 1300.3,421.2 1323.6,412 " fill="#96422a"/><rect x="120" y="120" width="2160" height="2760" fill="none" stroke="#312a1e" stroke-width="6" opacity="0.85"/></g><rect width="2400" height="3000" filter="url(#a174-mottle)" style="mix-blend-mode:multiply" opacity="0.5"/><rect width="2400" height="3000" filter="url(#a174-fade)" style="mix-blend-mode:screen" opacity="0.55"/><rect width="2400" height="3000" filter="url(#a174-grain)" style="mix-blend-mode:multiply" opacity="0.32"/><ellipse cx="218" cy="2657.6" rx="111.6" ry="122" fill="#6b4a22" opacity="0.050" filter="url(#a174-blur9)"/><ellipse cx="880.9" cy="355.7" rx="109.9" ry="110.6" fill="#6b4a22" opacity="0.069" filter="url(#a174-blur9)"/><ellipse cx="1780.7" cy="2244.3" rx="287" ry="279" fill="#6b4a22" opacity="0.070" filter="url(#a174-blur9)"/><rect x="0" width="26.6" height="3000" fill="#fff2d0" opacity="0.022"/><rect x="53.2" width="19.5" height="3000" fill="#fff2d0" opacity="0.015"/><rect x="92.2" width="18.9" height="3000" fill="#fff2d0" opacity="0.042"/><rect x="130" width="31.6" height="3000" fill="#fff2d0" opacity="0.017"/><rect x="193.1" width="16.2" height="3000" fill="#fff2d0" opacity="0.026"/><rect x="225.6" width="18.5" height="3000" fill="#fff2d0" opacity="0.041"/><rect x="262.6" width="18.9" height="3000" fill="#fff2d0" opacity="0.039"/><rect x="300.4" width="19.4" height="3000" fill="#fff2d0" opacity="0.022"/><rect x="339.2" width="25.4" height="3000" fill="#fff2d0" opacity="0.040"/><rect x="390" width="25.9" height="3000" fill="#fff2d0" opacity="0.025"/><rect x="441.8" width="24.5" height="3000" fill="#fff2d0" opacity="0.037"/><rect x="490.8" width="21.1" height="3000" fill="#fff2d0" opacity="0.027"/><rect x="533" width="30" height="3000" fill="#fff2d0" opacity="0.035"/><rect x="593.1" width="22.1" height="3000" fill="#fff2d0" opacity="0.035"/><rect x="637.3" width="16.7" height="3000" fill="#fff2d0" opacity="0.025"/><rect x="670.8" width="21" height="3000" fill="#fff2d0" opacity="0.029"/><rect x="712.8" width="26.9" height="3000" fill="#fff2d0" opacity="0.018"/><rect x="766.7" width="19" height="3000" fill="#fff2d0" opacity="0.040"/><rect x="804.7" width="21.4" height="3000" fill="#fff2d0" opacity="0.045"/><rect x="847.5" width="29.5" height="3000" fill="#fff2d0" opacity="0.027"/><rect x="906.4" width="20.7" height="3000" fill="#fff2d0" opacity="0.019"/><rect x="947.9" width="22" height="3000" fill="#fff2d0" opacity="0.044"/><rect x="991.8" width="32" height="3000" fill="#fff2d0" opacity="0.034"/><rect x="1055.7" width="23.1" height="3000" fill="#fff2d0" opacity="0.020"/><rect x="1101.8" width="15.8" height="3000" fill="#fff2d0" opacity="0.040"/><rect x="1133.4" width="28.6" height="3000" fill="#fff2d0" opacity="0.044"/><rect x="1190.6" width="25.5" height="3000" fill="#fff2d0" opacity="0.043"/><rect x="1241.5" width="34.1" height="3000" fill="#fff2d0" opacity="0.043"/><rect x="1309.8" width="30.1" height="3000" fill="#fff2d0" opacity="0.035"/><rect x="1370" width="28.7" height="3000" fill="#fff2d0" opacity="0.044"/><rect x="1427.4" width="23.8" height="3000" fill="#fff2d0" opacity="0.020"/><rect x="1474.9" width="24.7" height="3000" fill="#fff2d0" opacity="0.045"/><rect x="1524.3" width="25.6" height="3000" fill="#fff2d0" opacity="0.039"/><rect x="1575.5" width="24.5" height="3000" fill="#fff2d0" opacity="0.035"/><rect x="1624.4" width="24.3" height="3000" fill="#fff2d0" opacity="0.044"/><rect x="1673" width="25.7" height="3000" fill="#fff2d0" opacity="0.020"/><rect x="1724.4" width="22.1" height="3000" fill="#fff2d0" opacity="0.025"/><rect x="1768.6" width="24.1" height="3000" fill="#fff2d0" opacity="0.025"/><rect x="1816.9" width="29.2" height="3000" fill="#fff2d0" opacity="0.022"/><rect x="1875.2" width="17.3" height="3000" fill="#fff2d0" opacity="0.028"/><rect x="1909.8" width="24.7" height="3000" fill="#fff2d0" opacity="0.029"/><rect x="1959.2" width="25.8" height="3000" fill="#fff2d0" opacity="0.027"/><rect x="2010.8" width="30.4" height="3000" fill="#fff2d0" opacity="0.029"/><rect x="2071.6" width="21.2" height="3000" fill="#fff2d0" opacity="0.034"/><rect x="2114.1" width="22.9" height="3000" fill="#fff2d0" opacity="0.038"/><rect x="2159.9" width="32.3" height="3000" fill="#fff2d0" opacity="0.029"/><rect x="2224.5" width="34" height="3000" fill="#fff2d0" opacity="0.029"/><rect x="2292.4" width="34" height="3000" fill="#fff2d0" opacity="0.023"/><rect x="2360.4" width="29.3" height="3000" fill="#fff2d0" opacity="0.044"/><linearGradient id="a174-er" x1="0" x2="1" y1="0" y2="0"><stop offset="0" stop-color="#3a2a12" stop-opacity="0.22"/><stop offset="1" stop-color="#3a2a12" stop-opacity="0"/></linearGradient><rect x="0" y="0" width="90" height="3000" fill="url(#a174-er)"/><linearGradient id="a174-el" x1="1" x2="0" y1="0" y2="0"><stop offset="0" stop-color="#3a2a12" stop-opacity="0.22"/><stop offset="1" stop-color="#3a2a12" stop-opacity="0"/></linearGradient><rect x="2310" y="0" width="90" height="3000" fill="url(#a174-el)"/><linearGradient id="a174-ed" x1="0" x2="0" y1="0" y2="1"><stop offset="0" stop-color="#3a2a12" stop-opacity="0.22"/><stop offset="1" stop-color="#3a2a12" stop-opacity="0"/></linearGradient><rect x="0" y="0" width="2400" height="90" fill="url(#a174-ed)"/><linearGradient id="a174-eu" x1="0" x2="0" y1="1" y2="0"><stop offset="0" stop-color="#3a2a12" stop-opacity="0.22"/><stop offset="1" stop-color="#3a2a12" stop-opacity="0"/></linearGradient><rect x="0" y="2910" width="2400" height="90" fill="url(#a174-eu)"/><circle cx="1987.5" cy="2372.8" r="3.4" fill="#8a5a2e" opacity="0.122"/><circle cx="2101.5" cy="259.1" r="7.9" fill="#8a5a2e" opacity="0.079"/><circle cx="621.7" cy="2727.7" r="10.3" fill="#8a5a2e" opacity="0.122"/><circle cx="450.8" cy="2170.4" r="14.7" fill="#8a5a2e" opacity="0.058"/><circle cx="598.5" cy="2273.2" r="5.8" fill="#8a5a2e" opacity="0.044"/><circle cx="476.9" cy="2055.6" r="4.9" fill="#8a5a2e" opacity="0.089"/><circle cx="685.8" cy="2494.7" r="3.9" fill="#8a5a2e" opacity="0.048"/><circle cx="1512.7" cy="1588.7" r="5.5" fill="#8a5a2e" opacity="0.047"/><circle cx="2288" cy="2550.1" r="12.7" fill="#8a5a2e" opacity="0.071"/><circle cx="306.1" cy="225" r="4.4" fill="#8a5a2e" opacity="0.123"/><circle cx="270.6" cy="2001.7" r="4.2" fill="#8a5a2e" opacity="0.105"/><circle cx="1917" cy="2184.6" r="6.8" fill="#8a5a2e" opacity="0.078"/><rect width="2400" height="3000" fill="url(#a174-vig)"/></svg></svg>