<svg xmlns="http://www.w3.org/2000/svg" width="2400" height="1800" viewBox="0 0 2400 1800"><rect width="2400" height="1800" fill="#dfe4dc"/><rect y="1400" width="2400" height="400" fill="#c2a67e"/><line x1="60" y1="1400" x2="10" y2="1800" stroke="#00000015" stroke-width="5"/><line x1="260" y1="1400" x2="210" y2="1800" stroke="#00000015" stroke-width="5"/><line x1="460" y1="1400" x2="410" y2="1800" stroke="#00000015" stroke-width="5"/><line x1="660" y1="1400" x2="610" y2="1800" stroke="#00000015" stroke-width="5"/><line x1="860" y1="1400" x2="810" y2="1800" stroke="#00000015" stroke-width="5"/><line x1="1060" y1="1400" x2="1010" y2="1800" stroke="#00000015" stroke-width="5"/><line x1="1260" y1="1400" x2="1210" y2="1800" stroke="#00000015" stroke-width="5"/><line x1="1460" y1="1400" x2="1410" y2="1800" stroke="#00000015" stroke-width="5"/><line x1="1660" y1="1400" x2="1610" y2="1800" stroke="#00000015" stroke-width="5"/><line x1="1860" y1="1400" x2="1810" y2="1800" stroke="#00000015" stroke-width="5"/><line x1="2060" y1="1400" x2="2010" y2="1800" stroke="#00000015" stroke-width="5"/><line x1="2260" y1="1400" x2="2210" y2="1800" stroke="#00000015" stroke-width="5"/><rect x="180" y="260" width="900" height="620" fill="#8a6a48"/><rect x="215" y="295" width="830" height="550" fill="#41524a"/><line x1="280" y1="420" x2="760" y2="420" stroke="#ffffff66" stroke-width="9" stroke-linecap="round"/><line x1="280" y1="520" x2="620" y2="520" stroke="#ffffff44" stroke-width="9" stroke-linecap="round"/><circle cx="880" cy="560" r="90" fill="none" stroke="#ffffff55" stroke-width="8"/><rect x="215" y="845" width="830" height="22" fill="#6f5436"/><rect x="330" y="1240" width="640" height="60" rx="10" fill="#9c7449"/><rect x="370" y="1300" width="60" height="240" fill="#8a6540"/><rect x="870" y="1300" width="60" height="240" fill="#8a6540"/><rect x="430" y="1160" width="150" height="80" rx="8" fill="#3a6483"/><rect x="450" y="1120" width="150" height="40" rx="8" fill="#ad976a"/><circle cx="800" cy="1130" r="86" fill="#7fa3b8"/><path d="M760,1060 Q820,1100 780,1190 M740,1090 Q800,1120 850,1100" stroke="#5d8069" stroke-width="16" fill="none" stroke-linecap="round"/><circle cx="800" cy="1130" r="86" fill="none" stroke="#6b5233" stroke-width="7"/><line x1="800" y1="1216" x2="800" y2="1250" stroke="#6b5233" stroke-width="10"/><rect x="750" y="1244" width="100" height="14" rx="7" fill="#6b5233"/><rect x="1980" y="700" width="300" height="800" fill="#9c7449"/><rect x="2000" y="930" width="260" height="16" fill="#7c5a37"/><rect x="2020" y="790" width="36" height="140" fill="#b3502f"/><rect x="2066" y="802" width="36" height="128" fill="#39685c"/><rect x="2112" y="790" width="36" height="140" fill="#c9a227"/><rect x="2158" y="802" width="36" height="128" fill="#2c4661"/><rect x="2204" y="790" width="36" height="140" fill="#8a4423"/><rect x="2000" y="1180" width="260" height="16" fill="#7c5a37"/><rect x="2020" y="1040" width="36" height="140" fill="#39685c"/><rect x="2066" y="1052" width="36" height="128" fill="#c9a227"/><rect x="2112" y="1040" width="36" height="140" fill="#2c4661"/><rect x="2158" y="1052" width="36" height="128" fill="#8a4423"/><rect x="2204" y="1040" width="36" height="140" fill="#b3502f"/><rect x="2000" y="1430" width="260" height="16" fill="#7c5a37"/><rect x="2020" y="1290" width="36" height="140" fill="#c9a227"/><rect x="2066" y="1302" width="36" height="128" fill="#2c4661"/><rect x="2112" y="1290" width="36" height="140" fill="#8a4423"/><rect x="2158" y="1302" width="36" height="128" fill="#b3502f"/><rect x="2204" y="1290" width="36" height="140" fill="#39685c"/><defs><filter id="a172c-sh" x="-30%" y="-30%" width="160%" height="160%"><feGaussianBlur stdDeviation="16"/></filter></defs><rect x="1340.5" y="298.5" width="517" height="635" fill="#000" opacity="0.28" filter="url(#a172c-sh)"/><rect x="1326.5" y="276.5" width="517" height="635" fill="#3d342a"/><rect x="1341.8" y="291.8" width="486.4" height="604.5" fill="none" stroke="#00000055" stroke-width="3"/><rect x="1350" y="300" width="470" height="588" fill="#f6f2ea"/><svg x="1385.3" y="335.3" width="399.5" height="517.5" viewBox="0 0 2400 3000" preserveAspectRatio="xMidYMid slice"><filter id="a172-warp" x="-4%" y="-4%" width="108%" height="108%"><feTurbulence type="fractalNoise" baseFrequency="0.0105" numOctaves="2" seed="2438" result="w"/><feDisplacementMap in="SourceGraphic" in2="w" scale="11" xChannelSelector="R" yChannelSelector="G"/></filter><filter id="a172-grain" x="0%" y="0%" width="100%" height="100%"><feTurbulence type="fractalNoise" baseFrequency="0.6" numOctaves="2" seed="2445"/><feColorMatrix type="matrix" values="0.33 0.33 0.33 0 0.62  0.33 0.33 0.33 0 0.62  0.33 0.33 0.33 0 0.62  0 0 0 0 1"/></filter><filter id="a172-mottle" x="0%" y="0%" width="100%" height="100%"><feTurbulence type="fractalNoise" baseFrequency="0.0045" numOctaves="3" seed="2451"/><feColorMatrix type="matrix" values="0.2 0.2 0.2 0 0.78  0.2 0.2 0.2 0 0.78  0.2 0.2 0.2 0 0.78  0 0 0 0 1"/></filter><filter id="a172-fade" x="0%" y="0%" width="100%" height="100%"><feTurbulence type="fractalNoise" baseFrequency="0.006" numOctaves="2" seed="2467"/><feColorMatrix type="matrix" values="0.3 0.3 0.3 0 -0.08  0.3 0.3 0.3 0 -0.08  0.3 0.3 0.3 0 -0.1  0 0 0 0 1"/></filter><filter id="a172-blur9"><feGaussianBlur stdDeviation="9"/></filter><radialGradient id="a172-vig" cx="50%" cy="44%" r="78%"><stop offset="52%" stop-color="#241a10" stop-opacity="0"/><stop offset="100%" stop-color="#241a10" stop-opacity="0.17"/></radialGradient><radialGradient id="a172-warm" cx="68%" cy="30%" r="85%"><stop offset="0%" stop-color="#e8c890" stop-opacity="0.14"/><stop offset="70%" stop-color="#e8c890" stop-opacity="0"/></radialGradient><rect width="2400" height="3000" fill="#d2bd92"/><rect width="2400" height="3000" fill="url(#a172-warm)"/><rect x="0" width="37.8" height="3000" fill="#6b4e26" opacity="0.057"/><rect x="52.5" width="27.2" height="3000" fill="#6b4e26" opacity="0.032"/><rect x="90.4" width="25" height="3000" fill="#6b4e26" opacity="0.068"/><rect x="125.1" width="28.7" height="3000" fill="#6b4e26" opacity="0.075"/><rect x="165" width="20" height="3000" fill="#6b4e26" opacity="0.084"/><rect x="192.7" width="21.3" height="3000" fill="#6b4e26" opacity="0.034"/><rect x="222.2" width="35.8" height="3000" fill="#6b4e26" opacity="0.088"/><rect x="271.9" width="35.6" height="3000" fill="#6b4e26" opacity="0.067"/><rect x="321.4" width="21.3" height="3000" fill="#6b4e26" opacity="0.045"/><rect x="350.9" width="19" height="3000" fill="#6b4e26" opacity="0.061"/><rect x="377.4" width="28.5" height="3000" fill="#6b4e26" opacity="0.082"/><rect x="416.9" width="28" height="3000" fill="#6b4e26" opacity="0.039"/><rect x="455.8" width="23.1" height="3000" fill="#6b4e26" opacity="0.094"/><rect x="487.9" width="32.8" height="3000" fill="#6b4e26" opacity="0.087"/><rect x="533.5" width="23" height="3000" fill="#6b4e26" opacity="0.077"/><rect x="565.5" width="31.7" height="3000" fill="#6b4e26" opacity="0.054"/><rect x="609.4" width="32.7" height="3000" fill="#6b4e26" opacity="0.097"/><rect x="654.9" width="34.6" height="3000" fill="#6b4e26" opacity="0.100"/><rect x="702.9" width="39.5" height="3000" fill="#6b4e26" opacity="0.050"/><rect x="757.8" width="33.5" height="3000" fill="#6b4e26" opacity="0.051"/><rect x="804.4" width="25.7" height="3000" fill="#6b4e26" opacity="0.068"/><rect x="840.1" width="34.1" height="3000" fill="#6b4e26" opacity="0.061"/><rect x="887.5" width="23.9" height="3000" fill="#6b4e26" opacity="0.072"/><rect x="920.7" width="38.5" height="3000" fill="#6b4e26" opacity="0.095"/><rect x="974.1" width="27.8" height="3000" fill="#6b4e26" opacity="0.060"/><rect x="1012.6" width="38.6" height="3000" fill="#6b4e26" opacity="0.040"/><rect x="1066.3" width="22.7" height="3000" fill="#6b4e26" opacity="0.030"/><rect x="1097.7" width="27.6" height="3000" fill="#6b4e26" opacity="0.082"/><rect x="1136" width="18.7" height="3000" fill="#6b4e26" opacity="0.080"/><rect x="1162.1" width="29.3" height="3000" fill="#6b4e26" opacity="0.045"/><rect x="1202.7" width="37.7" height="3000" fill="#6b4e26" opacity="0.087"/><rect x="1255.1" width="36" height="3000" fill="#6b4e26" opacity="0.094"/><rect x="1305.1" width="36.6" height="3000" fill="#6b4e26" opacity="0.042"/><rect x="1355.9" width="37.9" height="3000" fill="#6b4e26" opacity="0.037"/><rect x="1408.5" width="20.3" height="3000" fill="#6b4e26" opacity="0.086"/><rect x="1436.6" width="21.6" height="3000" fill="#6b4e26" opacity="0.032"/><rect x="1466.6" width="32.1" height="3000" fill="#6b4e26" opacity="0.049"/><rect x="1511.1" width="28.8" height="3000" fill="#6b4e26" opacity="0.094"/><rect x="1551.1" width="24.1" height="3000" fill="#6b4e26" opacity="0.050"/><rect x="1584.7" width="30.8" height="3000" fill="#6b4e26" opacity="0.091"/><rect x="1627.5" width="41.5" height="3000" fill="#6b4e26" opacity="0.098"/><rect x="1685.2" width="33.7" height="3000" fill="#6b4e26" opacity="0.058"/><rect x="1732" width="38.1" height="3000" fill="#6b4e26" opacity="0.073"/><rect x="1784.9" width="33.3" height="3000" fill="#6b4e26" opacity="0.056"/><rect x="1831.2" width="36.7" height="3000" fill="#6b4e26" opacity="0.046"/><rect x="1882.1" width="31.3" height="3000" fill="#6b4e26" opacity="0.070"/><rect x="1925.7" width="31.6" height="3000" fill="#6b4e26" opacity="0.072"/><rect x="1969.6" width="25.9" height="3000" fill="#6b4e26" opacity="0.059"/><rect x="2005.5" width="33.2" height="3000" fill="#6b4e26" opacity="0.088"/><rect x="2051.6" width="36.3" height="3000" fill="#6b4e26" opacity="0.074"/><rect x="2102.1" width="39.3" height="3000" fill="#6b4e26" opacity="0.033"/><rect x="2156.7" width="31.8" height="3000" fill="#6b4e26" opacity="0.092"/><rect x="2200.9" width="33.4" height="3000" fill="#6b4e26" opacity="0.087"/><rect x="2247.2" width="39.9" height="3000" fill="#6b4e26" opacity="0.074"/><rect x="2302.6" width="26.3" height="3000" fill="#6b4e26" opacity="0.079"/><rect x="2339.1" width="33.6" height="3000" fill="#6b4e26" opacity="0.076"/><rect x="2385.7" width="22.8" height="3000" fill="#6b4e26" opacity="0.070"/><rect y="0" width="2400" height="21.5" fill="#7c5c30" opacity="0.060"/><rect y="35.9" width="2400" height="25.8" fill="#7c5c30" opacity="0.033"/><rect y="78.9" width="2400" height="20.5" fill="#7c5c30" opacity="0.031"/><rect y="113.1" width="2400" height="27.5" fill="#7c5c30" opacity="0.025"/><rect y="158.9" width="2400" height="15.1" fill="#7c5c30" opacity="0.048"/><rect y="184" width="2400" height="18.2" fill="#7c5c30" opacity="0.039"/><rect y="214.4" width="2400" height="24.7" fill="#7c5c30" opacity="0.039"/><rect y="255.6" width="2400" height="22.1" fill="#7c5c30" opacity="0.022"/><rect y="292.4" width="2400" height="17" fill="#7c5c30" opacity="0.052"/><rect y="320.8" width="2400" height="17.4" fill="#7c5c30" opacity="0.036"/><rect y="349.9" width="2400" height="23.5" fill="#7c5c30" opacity="0.043"/><rect y="389.1" width="2400" height="18.3" fill="#7c5c30" opacity="0.040"/><rect y="419.6" width="2400" height="25.8" fill="#7c5c30" opacity="0.057"/><rect y="462.5" width="2400" height="19.4" fill="#7c5c30" opacity="0.057"/><rect y="494.9" width="2400" height="27.7" fill="#7c5c30" opacity="0.035"/><rect y="541.2" width="2400" height="12.4" fill="#7c5c30" opacity="0.039"/><rect y="561.8" width="2400" height="13.2" fill="#7c5c30" opacity="0.058"/><rect y="583.8" width="2400" height="13.3" fill="#7c5c30" opacity="0.051"/><rect y="606" width="2400" height="12.4" fill="#7c5c30" opacity="0.048"/><rect y="626.7" width="2400" height="17" fill="#7c5c30" opacity="0.047"/><rect y="655" width="2400" height="26.1" fill="#7c5c30" opacity="0.052"/><rect y="698.4" width="2400" height="24.1" fill="#7c5c30" opacity="0.026"/><rect y="738.6" width="2400" height="20.7" fill="#7c5c30" opacity="0.047"/><rect y="773.1" width="2400" height="16.5" fill="#7c5c30" opacity="0.056"/><rect y="800.7" width="2400" height="23.2" fill="#7c5c30" opacity="0.023"/><rect y="839.4" width="2400" height="26.6" fill="#7c5c30" opacity="0.060"/><rect y="883.7" width="2400" height="21.9" fill="#7c5c30" opacity="0.049"/><rect y="920.3" width="2400" height="16.5" fill="#7c5c30" opacity="0.029"/><rect y="947.8" width="2400" height="23.3" fill="#7c5c30" opacity="0.045"/><rect y="986.6" width="2400" height="27" fill="#7c5c30" opacity="0.036"/><rect y="1031.6" width="2400" height="25.6" fill="#7c5c30" opacity="0.056"/><rect y="1074.3" width="2400" height="22.5" fill="#7c5c30" opacity="0.047"/><rect y="1111.9" width="2400" height="21.6" fill="#7c5c30" opacity="0.047"/><rect y="1147.8" width="2400" height="20.9" fill="#7c5c30" opacity="0.047"/><rect y="1182.6" width="2400" height="21.7" fill="#7c5c30" opacity="0.025"/><rect y="1218.7" width="2400" height="26.6" fill="#7c5c30" opacity="0.048"/><rect y="1262.9" width="2400" height="19" fill="#7c5c30" opacity="0.053"/><rect y="1294.6" width="2400" height="14" fill="#7c5c30" opacity="0.048"/><rect y="1317.9" width="2400" height="18" fill="#7c5c30" opacity="0.033"/><rect y="1347.9" width="2400" height="18.4" fill="#7c5c30" opacity="0.040"/><rect y="1378.6" width="2400" height="12.7" fill="#7c5c30" opacity="0.059"/><rect y="1399.7" width="2400" height="12" fill="#7c5c30" opacity="0.020"/><rect y="1419.8" width="2400" height="18.1" fill="#7c5c30" opacity="0.056"/><rect y="1449.9" width="2400" height="22" fill="#7c5c30" opacity="0.056"/><rect y="1486.6" width="2400" height="15.6" fill="#7c5c30" opacity="0.041"/><rect y="1512.6" width="2400" height="12.7" fill="#7c5c30" opacity="0.044"/><rect y="1533.8" width="2400" height="17.1" fill="#7c5c30" opacity="0.028"/><rect y="1562.3" width="2400" height="26.5" fill="#7c5c30" opacity="0.058"/><rect y="1606.5" width="2400" height="28.7" fill="#7c5c30" opacity="0.021"/><rect y="1654.4" width="2400" height="18.6" fill="#7c5c30" opacity="0.023"/><rect y="1685.4" width="2400" height="17.4" fill="#7c5c30" opacity="0.021"/><rect y="1714.4" width="2400" height="13.1" fill="#7c5c30" opacity="0.028"/><rect y="1736.3" width="2400" height="12.1" fill="#7c5c30" opacity="0.022"/><rect y="1756.5" width="2400" height="23.3" fill="#7c5c30" opacity="0.039"/><rect y="1795.3" width="2400" height="23.4" fill="#7c5c30" opacity="0.059"/><rect y="1834.3" width="2400" height="20.6" fill="#7c5c30" opacity="0.044"/><rect y="1868.7" width="2400" height="28.6" fill="#7c5c30" opacity="0.035"/><rect y="1916.3" width="2400" height="23.5" fill="#7c5c30" opacity="0.024"/><rect y="1955.6" width="2400" height="19.4" fill="#7c5c30" opacity="0.054"/><rect y="1987.9" width="2400" height="15.8" fill="#7c5c30" opacity="0.041"/><rect y="2014.2" width="2400" height="26.6" fill="#7c5c30" opacity="0.049"/><rect y="2058.6" width="2400" height="14.1" fill="#7c5c30" opacity="0.022"/><rect y="2082.1" width="2400" height="28" fill="#7c5c30" opacity="0.030"/><rect y="2128.8" width="2400" height="27" fill="#7c5c30" opacity="0.051"/><rect y="2173.8" width="2400" height="13.4" fill="#7c5c30" opacity="0.057"/><rect y="2196.1" width="2400" height="19" fill="#7c5c30" opacity="0.020"/><rect y="2227.7" width="2400" height="14.4" fill="#7c5c30" opacity="0.051"/><rect y="2251.7" width="2400" height="20.5" fill="#7c5c30" opacity="0.022"/><rect y="2285.8" width="2400" height="22.8" fill="#7c5c30" opacity="0.059"/><rect y="2323.7" width="2400" height="21.6" fill="#7c5c30" opacity="0.051"/><rect y="2359.7" width="2400" height="20.4" fill="#7c5c30" opacity="0.035"/><rect y="2393.7" width="2400" height="19.3" fill="#7c5c30" opacity="0.026"/><rect y="2425.9" width="2400" height="15.5" fill="#7c5c30" opacity="0.056"/><rect y="2451.7" width="2400" height="12.7" fill="#7c5c30" opacity="0.059"/><rect y="2473" width="2400" height="19.4" fill="#7c5c30" opacity="0.046"/><rect y="2505.2" width="2400" height="13" fill="#7c5c30" opacity="0.052"/><rect y="2526.9" width="2400" height="26.3" fill="#7c5c30" opacity="0.058"/><rect y="2570.8" width="2400" height="16.1" fill="#7c5c30" opacity="0.029"/><rect y="2597.6" width="2400" height="27.8" fill="#7c5c30" opacity="0.036"/><rect y="2644" width="2400" height="28.7" fill="#7c5c30" opacity="0.044"/><rect y="2691.9" width="2400" height="17" fill="#7c5c30" opacity="0.042"/><rect y="2720.3" width="2400" height="15.7" fill="#7c5c30" opacity="0.033"/><rect y="2746.4" width="2400" height="13.2" fill="#7c5c30" opacity="0.051"/><rect y="2768.3" width="2400" height="16.1" fill="#7c5c30" opacity="0.035"/><rect y="2795.2" width="2400" height="21.4" fill="#7c5c30" opacity="0.046"/><rect y="2830.8" width="2400" height="24.5" fill="#7c5c30" opacity="0.026"/><rect y="2871.7" width="2400" height="13.8" fill="#7c5c30" opacity="0.022"/><rect y="2894.8" width="2400" height="16.3" fill="#7c5c30" opacity="0.037"/><rect y="2922" width="2400" height="20.2" fill="#7c5c30" opacity="0.051"/><rect y="2955.6" width="2400" height="20" fill="#7c5c30" opacity="0.031"/><rect y="2988.9" width="2400" height="16.9" fill="#7c5c30" opacity="0.030"/><g filter="url(#a172-warp)"><rect x="190" y="190" width="2020" height="2620" fill="none" stroke="#2b2720" stroke-width="14"/><rect x="260" y="260" width="1880" height="2480" fill="none" stroke="#2b2720" stroke-width="7"/><rect x="148" y="148" width="84" height="84" fill="#3a6483"/><rect x="148" y="2768" width="84" height="84" fill="#3a6483"/><rect x="2168" y="148" width="84" height="84" fill="#3a6483"/><rect x="2168" y="2768" width="84" height="84" fill="#3a6483"/><line x1="1200" y1="2180" x2="1200" y2="1480" stroke="#2b2720" stroke-width="46"/><path d="M0 0 Q 115.2 -179.1 0 -471.3 Q -115.2 -179.1 0 0 Z" fill="#2b2720" opacity="1" transform="translate(1200 1480) rotate(-58)"/><path d="M0 0 Q 115.2 -204.7 0 -538.8 Q -115.2 -204.7 0 0 Z" fill="#3a6483" opacity="1" transform="translate(1200 1480) rotate(-34.8)"/><path d="M0 0 Q 115.2 -230.4 0 -606.3 Q -115.2 -230.4 0 0 Z" fill="#2b2720" opacity="1" transform="translate(1200 1480) rotate(-11.6)"/><path d="M0 0 Q 115.2 -230.4 0 -606.3 Q -115.2 -230.4 0 0 Z" fill="#3a6483" opacity="1" transform="translate(1200 1480) rotate(11.6)"/><path d="M0 0 Q 115.2 -204.7 0 -538.8 Q -115.2 -204.7 0 0 Z" fill="#2b2720" opacity="1" transform="translate(1200 1480) rotate(34.8)"/><path d="M0 0 Q 115.2 -179.1 0 -471.3 Q -115.2 -179.1 0 0 Z" fill="#3a6483" opacity="1" transform="translate(1200 1480) rotate(58)"/><path d="M1008,1480 Q1200,1697.6 1392,1480 Z" fill="#2b2720"/><rect x="940" y="2180" width="520" height="70" fill="#2b2720"/><circle cx="1200" cy="860" r="120" fill="#3a6483"/><polygon points="1638.9,2445 1651.1,2475.9 1682.1,2488.1 1651.1,2500.3 1638.9,2531.3 1626.7,2500.3 1595.8,2488.1 1626.7,2475.9 " fill="#3a6483"/><polygon points="732.6,417.4 743.1,444.2 769.8,454.7 743.1,465.3 732.6,492 722,465.3 695.3,454.7 722,444.2 " fill="#3a6483"/><polygon points="968.9,478.9 976.4,497.8 995.3,505.3 976.4,512.7 968.9,531.6 961.5,512.7 942.6,505.3 961.5,497.8 " fill="#3a6483"/><polygon points="796.2,448.9 806.9,475.9 834,486.6 806.9,497.3 796.2,524.3 785.6,497.3 758.5,486.6 785.6,475.9 " fill="#3a6483"/><polygon points="1431,2497.8 1440.3,2521.4 1463.9,2530.6 1440.3,2539.9 1431,2563.5 1421.7,2539.9 1398.2,2530.6 1421.7,2521.4 " fill="#3a6483"/><polygon points="516.4,2579.1 527.4,2606.9 555.1,2617.8 527.4,2628.7 516.4,2656.5 505.5,2628.7 477.8,2617.8 505.5,2606.9 " fill="#3a6483"/><rect x="120" y="120" width="2160" height="2760" fill="none" stroke="#2b2720" stroke-width="6" opacity="0.85"/></g><rect width="2400" height="3000" filter="url(#a172-mottle)" style="mix-blend-mode:multiply" opacity="0.5"/><rect width="2400" height="3000" filter="url(#a172-fade)" style="mix-blend-mode:screen" opacity="0.55"/><rect width="2400" height="3000" filter="url(#a172-grain)" style="mix-blend-mode:multiply" opacity="0.32"/><ellipse cx="1616.2" cy="1898.2" rx="269.9" ry="199.1" fill="#6b4a22" opacity="0.069" filter="url(#a172-blur9)"/><ellipse cx="2095.6" cy="383.1" rx="97.3" ry="67.7" fill="#6b4a22" opacity="0.067" filter="url(#a172-blur9)"/><ellipse cx="1891.7" cy="1534.6" rx="93.5" ry="89.5" fill="#6b4a22" opacity="0.036" filter="url(#a172-blur9)"/><ellipse cx="953.1" cy="1041.9" rx="291.4" ry="244.1" fill="#6b4a22" opacity="0.035" filter="url(#a172-blur9)"/><ellipse cx="1962.8" cy="1445.1" rx="93" ry="56.2" fill="#6b4a22" opacity="0.052" filter="url(#a172-blur9)"/><rect x="0" width="26.1" height="3000" fill="#fff2d0" opacity="0.043"/><rect x="52.3" width="33.1" height="3000" fill="#fff2d0" opacity="0.020"/><rect x="118.5" width="33.8" height="3000" fill="#fff2d0" opacity="0.025"/><rect x="186.1" width="16.5" height="3000" fill="#fff2d0" opacity="0.021"/><rect x="219.1" width="28.5" height="3000" fill="#fff2d0" opacity="0.017"/><rect x="276.1" width="22.2" height="3000" fill="#fff2d0" opacity="0.027"/><rect x="320.5" width="30.1" height="3000" fill="#fff2d0" opacity="0.037"/><rect x="380.7" width="18.4" height="3000" fill="#fff2d0" opacity="0.026"/><rect x="417.5" width="19.2" height="3000" fill="#fff2d0" opacity="0.022"/><rect x="455.9" width="30.1" height="3000" fill="#fff2d0" opacity="0.027"/><rect x="516" width="24.2" height="3000" fill="#fff2d0" opacity="0.041"/><rect x="564.4" width="27.4" height="3000" fill="#fff2d0" opacity="0.033"/><rect x="619.2" width="24.8" height="3000" fill="#fff2d0" opacity="0.028"/><rect x="668.8" width="24.5" height="3000" fill="#fff2d0" opacity="0.029"/><rect x="717.7" width="30.4" height="3000" fill="#fff2d0" opacity="0.022"/><rect x="778.6" width="32.4" height="3000" fill="#fff2d0" opacity="0.017"/><rect x="843.3" width="28.1" height="3000" fill="#fff2d0" opacity="0.021"/><rect x="899.5" width="26.9" height="3000" fill="#fff2d0" opacity="0.031"/><rect x="953.2" width="15.9" height="3000" fill="#fff2d0" opacity="0.018"/><rect x="985.1" width="28.1" height="3000" fill="#fff2d0" opacity="0.028"/><rect x="1041.4" width="20.7" height="3000" fill="#fff2d0" opacity="0.025"/><rect x="1082.7" width="28.4" height="3000" fill="#fff2d0" opacity="0.016"/><rect x="1139.6" width="31.8" height="3000" fill="#fff2d0" opacity="0.025"/><rect x="1203.1" width="27.1" height="3000" fill="#fff2d0" opacity="0.043"/><rect x="1257.3" width="26.6" height="3000" fill="#fff2d0" opacity="0.029"/><rect x="1310.5" width="30" height="3000" fill="#fff2d0" opacity="0.032"/><rect x="1370.5" width="34.1" height="3000" fill="#fff2d0" opacity="0.038"/><rect x="1438.6" width="17.3" height="3000" fill="#fff2d0" opacity="0.026"/><rect x="1473.3" width="21.5" height="3000" fill="#fff2d0" opacity="0.038"/><rect x="1516.3" width="34.2" height="3000" fill="#fff2d0" opacity="0.036"/><rect x="1584.7" width="25.4" height="3000" fill="#fff2d0" opacity="0.018"/><rect x="1635.6" width="15.2" height="3000" fill="#fff2d0" opacity="0.036"/><rect x="1666" width="32.5" height="3000" fill="#fff2d0" opacity="0.036"/><rect x="1731" width="28.4" height="3000" fill="#fff2d0" opacity="0.034"/><rect x="1787.8" width="21.8" height="3000" fill="#fff2d0" opacity="0.043"/><rect x="1831.4" width="21.9" height="3000" fill="#fff2d0" opacity="0.040"/><rect x="1875.1" width="18.5" height="3000" fill="#fff2d0" opacity="0.044"/><rect x="1912.2" width="22.9" height="3000" fill="#fff2d0" opacity="0.038"/><rect x="1958.1" width="23.7" height="3000" fill="#fff2d0" opacity="0.042"/><rect x="2005.5" width="15.8" height="3000" fill="#fff2d0" opacity="0.024"/><rect x="2037" width="34.4" height="3000" fill="#fff2d0" opacity="0.027"/><rect x="2105.8" width="30.7" height="3000" fill="#fff2d0" opacity="0.040"/><rect x="2167.3" width="18.6" height="3000" fill="#fff2d0" opacity="0.044"/><rect x="2204.5" width="18.3" height="3000" fill="#fff2d0" opacity="0.026"/><rect x="2241.2" width="33.4" height="3000" fill="#fff2d0" opacity="0.019"/><rect x="2308" width="29" height="3000" fill="#fff2d0" opacity="0.025"/><rect x="2366" width="33.9" height="3000" fill="#fff2d0" opacity="0.037"/><linearGradient id="a172-er" x1="0" x2="1" y1="0" y2="0"><stop offset="0" stop-color="#3a2a12" stop-opacity="0.22"/><stop offset="1" stop-color="#3a2a12" stop-opacity="0"/></linearGradient><rect x="0" y="0" width="90" height="3000" fill="url(#a172-er)"/><linearGradient id="a172-el" x1="1" x2="0" y1="0" y2="0"><stop offset="0" stop-color="#3a2a12" stop-opacity="0.22"/><stop offset="1" stop-color="#3a2a12" stop-opacity="0"/></linearGradient><rect x="2310" y="0" width="90" height="3000" fill="url(#a172-el)"/><linearGradient id="a172-ed" x1="0" x2="0" y1="0" y2="1"><stop offset="0" stop-color="#3a2a12" stop-opacity="0.22"/><stop offset="1" stop-color="#3a2a12" stop-opacity="0"/></linearGradient><rect x="0" y="0" width="2400" height="90" fill="url(#a172-ed)"/><linearGradient id="a172-eu" x1="0" x2="0" y1="1" y2="0"><stop offset="0" stop-color="#3a2a12" stop-opacity="0.22"/><stop offset="1" stop-color="#3a2a12" stop-opacity="0"/></linearGradient><rect x="0" y="2910" width="2400" height="90" fill="url(#a172-eu)"/><circle cx="194" cy="1946" r="7.9" fill="#8a5a2e" opacity="0.123"/><circle cx="636.5" cy="134.5" r="5.3" fill="#8a5a2e" opacity="0.081"/><circle cx="1299.7" cy="2058.9" r="6.6" fill="#8a5a2e" opacity="0.103"/><circle cx="610.3" cy="1718" r="13.1" fill="#8a5a2e" opacity="0.091"/><circle cx="1035.6" cy="102.3" r="14.9" fill="#8a5a2e" opacity="0.057"/><circle cx="2026.7" cy="1431.9" r="3" fill="#8a5a2e" opacity="0.124"/><circle cx="2167.6" cy="2727.5" r="5.3" fill="#8a5a2e" opacity="0.121"/><circle cx="1976" cy="742.4" r="4" fill="#8a5a2e" opacity="0.081"/><circle cx="1893.7" cy="2297" r="11.6" fill="#8a5a2e" opacity="0.089"/><circle cx="946.9" cy="2052.9" r="11.4" fill="#8a5a2e" opacity="0.105"/><circle cx="254" cy="1332.8" r="7.5" fill="#8a5a2e" opacity="0.119"/><rect width="2400" height="3000" fill="url(#a172-vig)"/></svg></svg>