<svg xmlns="http://www.w3.org/2000/svg" width="2400" height="1800" viewBox="0 0 2400 1800"><rect width="2400" height="1800" fill="#dfe4dc"/><rect y="1400" width="2400" height="400" fill="#c2a67e"/><line x1="60" y1="1400" x2="10" y2="1800" stroke="#00000015" stroke-width="5"/><line x1="260" y1="1400" x2="210" y2="1800" stroke="#00000015" stroke-width="5"/><line x1="460" y1="1400" x2="410" y2="1800" stroke="#00000015" stroke-width="5"/><line x1="660" y1="1400" x2="610" y2="1800" stroke="#00000015" stroke-width="5"/><line x1="860" y1="1400" x2="810" y2="1800" stroke="#00000015" stroke-width="5"/><line x1="1060" y1="1400" x2="1010" y2="1800" stroke="#00000015" stroke-width="5"/><line x1="1260" y1="1400" x2="1210" y2="1800" stroke="#00000015" stroke-width="5"/><line x1="1460" y1="1400" x2="1410" y2="1800" stroke="#00000015" stroke-width="5"/><line x1="1660" y1="1400" x2="1610" y2="1800" stroke="#00000015" stroke-width="5"/><line x1="1860" y1="1400" x2="1810" y2="1800" stroke="#00000015" stroke-width="5"/><line x1="2060" y1="1400" x2="2010" y2="1800" stroke="#00000015" stroke-width="5"/><line x1="2260" y1="1400" x2="2210" y2="1800" stroke="#00000015" stroke-width="5"/><rect x="180" y="260" width="900" height="620" fill="#8a6a48"/><rect x="215" y="295" width="830" height="550" fill="#41524a"/><line x1="280" y1="420" x2="760" y2="420" stroke="#ffffff66" stroke-width="9" stroke-linecap="round"/><line x1="280" y1="520" x2="620" y2="520" stroke="#ffffff44" stroke-width="9" stroke-linecap="round"/><circle cx="880" cy="560" r="90" fill="none" stroke="#ffffff55" stroke-width="8"/><rect x="215" y="845" width="830" height="22" fill="#6f5436"/><rect x="330" y="1240" width="640" height="60" rx="10" fill="#9c7449"/><rect x="370" y="1300" width="60" height="240" fill="#8a6540"/><rect x="870" y="1300" width="60" height="240" fill="#8a6540"/><rect x="430" y="1160" width="150" height="80" rx="8" fill="#8a6a4b"/><rect x="450" y="1120" width="150" height="40" rx="8" fill="#3d434d"/><circle cx="800" cy="1130" r="86" fill="#7fa3b8"/><path d="M760,1060 Q820,1100 780,1190 M740,1090 Q800,1120 850,1100" stroke="#5d8069" stroke-width="16" fill="none" stroke-linecap="round"/><circle cx="800" cy="1130" r="86" fill="none" stroke="#6b5233" stroke-width="7"/><line x1="800" y1="1216" x2="800" y2="1250" stroke="#6b5233" stroke-width="10"/><rect x="750" y="1244" width="100" height="14" rx="7" fill="#6b5233"/><rect x="1980" y="700" width="300" height="800" fill="#9c7449"/><rect x="2000" y="930" width="260" height="16" fill="#7c5a37"/><rect x="2020" y="790" width="36" height="140" fill="#b3502f"/><rect x="2066" y="802" width="36" height="128" fill="#39685c"/><rect x="2112" y="790" width="36" height="140" fill="#c9a227"/><rect x="2158" y="802" width="36" height="128" fill="#2c4661"/><rect x="2204" y="790" width="36" height="140" fill="#8a4423"/><rect x="2000" y="1180" width="260" height="16" fill="#7c5a37"/><rect x="2020" y="1040" width="36" height="140" fill="#39685c"/><rect x="2066" y="1052" width="36" height="128" fill="#c9a227"/><rect x="2112" y="1040" width="36" height="140" fill="#2c4661"/><rect x="2158" y="1052" width="36" height="128" fill="#8a4423"/><rect x="2204" y="1040" width="36" height="140" fill="#b3502f"/><rect x="2000" y="1430" width="260" height="16" fill="#7c5a37"/><rect x="2020" y="1290" width="36" height="140" fill="#c9a227"/><rect x="2066" y="1302" width="36" height="128" fill="#2c4661"/><rect x="2112" y="1290" width="36" height="140" fill="#8a4423"/><rect x="2158" y="1302" width="36" height="128" fill="#b3502f"/><rect x="2204" y="1290" width="36" height="140" fill="#39685c"/><defs><filter id="a147c-sh" x="-30%" y="-30%" width="160%" height="160%"><feGaussianBlur stdDeviation="16"/></filter></defs><rect x="1340.5" y="298.5" width="517" height="635" fill="#000" opacity="0.28" filter="url(#a147c-sh)"/><rect x="1326.5" y="276.5" width="517" height="635" fill="#3d342a"/><rect x="1341.8" y="291.8" width="486.4" height="604.5" fill="none" stroke="#00000055" stroke-width="3"/><rect x="1350" y="300" width="470" height="588" fill="#f6f2ea"/><svg x="1385.3" y="335.3" width="399.5" height="517.5" viewBox="0 0 2400 3000" preserveAspectRatio="xMidYMid slice"><rect width="2400" height="3000" fill="#2b2f36"/><radialGradient id="a147-vig" cx="50%" cy="42%" r="80%"><stop offset="55%" stop-color="#000" stop-opacity="0"/><stop offset="100%" stop-color="#000" stop-opacity="0.15"/></radialGradient><rect width="2400" height="3000" fill="url(#a147-vig)"/><circle cx="901.9" cy="96.4" r="3.3" fill="#b3873e" opacity="0.059"/><circle cx="1861.4" cy="2783.7" r="3.5" fill="#b3873e" opacity="0.063"/><circle cx="1927.4" cy="897.3" r="3.6" fill="#b3873e" opacity="0.077"/><circle cx="242" cy="2507" r="3.7" fill="#b3873e" opacity="0.034"/><circle cx="1830.2" cy="707.9" r="3.5" fill="#b3873e" opacity="0.067"/><circle cx="1585.5" cy="1525.6" r="3.7" fill="#b3873e" opacity="0.056"/><circle cx="952.3" cy="2163.8" r="3.4" fill="#b3873e" opacity="0.057"/><circle cx="1390.1" cy="1397.2" r="1.7" fill="#b3873e" opacity="0.054"/><circle cx="1415.5" cy="2552.9" r="4.3" fill="#b3873e" opacity="0.058"/><circle cx="1714" cy="2580.3" r="3.2" fill="#b3873e" opacity="0.044"/><circle cx="1536.2" cy="327.4" r="3.8" fill="#b3873e" opacity="0.050"/><circle cx="1538.4" cy="2469.6" r="3.5" fill="#b3873e" opacity="0.049"/><circle cx="239.7" cy="667.5" r="2.4" fill="#b3873e" opacity="0.068"/><circle cx="713.9" cy="1911.4" r="4.3" fill="#b3873e" opacity="0.065"/><circle cx="1960.1" cy="348.6" r="2.8" fill="#b3873e" opacity="0.050"/><circle cx="597" cy="106.8" r="3.1" fill="#b3873e" opacity="0.053"/><circle cx="2251.7" cy="1170.1" r="2" fill="#b3873e" opacity="0.046"/><circle cx="66" cy="2874.1" r="3.2" fill="#b3873e" opacity="0.040"/><circle cx="1492.3" cy="609.7" r="1.6" fill="#b3873e" opacity="0.078"/><circle cx="318.3" cy="1599.3" r="4.5" fill="#b3873e" opacity="0.070"/><circle cx="1130.6" cy="2373.9" r="2.1" fill="#b3873e" opacity="0.053"/><circle cx="523" cy="1930.1" r="4.3" fill="#b3873e" opacity="0.046"/><circle cx="180.7" cy="1446.4" r="4.1" fill="#b3873e" opacity="0.034"/><circle cx="1853.2" cy="594.5" r="2.5" fill="#b3873e" opacity="0.053"/><circle cx="1322.3" cy="1632.5" r="2" fill="#b3873e" opacity="0.045"/><circle cx="1655.1" cy="2929" r="2.6" fill="#b3873e" opacity="0.042"/><circle cx="1668.5" cy="1252.6" r="3.2" fill="#b3873e" opacity="0.042"/><circle cx="256.5" cy="2379" r="1.6" fill="#b3873e" opacity="0.057"/><circle cx="1883.8" cy="1322.4" r="3.7" fill="#b3873e" opacity="0.049"/><circle cx="1353.4" cy="1445.6" r="2.1" fill="#b3873e" opacity="0.061"/><circle cx="240.3" cy="247.2" r="2.9" fill="#b3873e" opacity="0.035"/><circle cx="1439" cy="1280.6" r="2.5" fill="#b3873e" opacity="0.052"/><circle cx="976.8" cy="2260.1" r="1.5" fill="#b3873e" opacity="0.042"/><circle cx="1536" cy="820.8" r="2.2" fill="#b3873e" opacity="0.062"/><circle cx="2299.7" cy="1128" r="4.1" fill="#b3873e" opacity="0.071"/><circle cx="137.1" cy="1605.7" r="2.7" fill="#b3873e" opacity="0.042"/><circle cx="86.3" cy="915.1" r="3.3" fill="#b3873e" opacity="0.067"/><circle cx="1724" cy="2885.1" r="4.3" fill="#b3873e" opacity="0.051"/><circle cx="783.4" cy="2350.1" r="3.4" fill="#b3873e" opacity="0.032"/><circle cx="707" cy="2078.1" r="2.2" fill="#b3873e" opacity="0.080"/><circle cx="634.6" cy="148.4" r="1.6" fill="#b3873e" opacity="0.042"/><circle cx="943.1" cy="2722.5" r="4.1" fill="#b3873e" opacity="0.043"/><circle cx="2211.7" cy="409.5" r="4.1" fill="#b3873e" opacity="0.066"/><circle cx="1431.6" cy="2817.8" r="4" fill="#b3873e" opacity="0.065"/><circle cx="639.9" cy="2077.7" r="4.1" fill="#b3873e" opacity="0.075"/><circle cx="1047.8" cy="351.7" r="1.8" fill="#b3873e" opacity="0.044"/><circle cx="524.1" cy="1453.4" r="4.4" fill="#b3873e" opacity="0.052"/><circle cx="1693.1" cy="1099.7" r="3.2" fill="#b3873e" opacity="0.054"/><circle cx="1382.5" cy="1239.7" r="2.3" fill="#b3873e" opacity="0.059"/><circle cx="804" cy="1745.9" r="2.9" fill="#b3873e" opacity="0.033"/><circle cx="2225.2" cy="1183" r="3.4" fill="#b3873e" opacity="0.050"/><circle cx="2060.5" cy="2690.4" r="4.4" fill="#b3873e" opacity="0.033"/><circle cx="1676.2" cy="2041.8" r="1.9" fill="#b3873e" opacity="0.066"/><circle cx="1273.4" cy="217.8" r="4.2" fill="#b3873e" opacity="0.063"/><circle cx="1667.9" cy="2291.3" r="4.2" fill="#b3873e" opacity="0.044"/><circle cx="569.7" cy="1810.8" r="1.7" fill="#b3873e" opacity="0.044"/><circle cx="179.5" cy="1213.1" r="3" fill="#b3873e" opacity="0.077"/><circle cx="233" cy="2768.3" r="1.7" fill="#b3873e" opacity="0.048"/><circle cx="1932.2" cy="914.5" r="1.6" fill="#b3873e" opacity="0.037"/><circle cx="1057.6" cy="2849.1" r="3.5" fill="#b3873e" opacity="0.040"/><circle cx="1117.9" cy="2539.8" r="4.1" fill="#b3873e" opacity="0.038"/><circle cx="916.2" cy="1205.5" r="2.8" fill="#b3873e" opacity="0.071"/><circle cx="178.9" cy="2907.7" r="2.3" fill="#b3873e" opacity="0.042"/><circle cx="555.7" cy="466.1" r="2.6" fill="#b3873e" opacity="0.059"/><circle cx="2181.4" cy="1456.9" r="4" fill="#b3873e" opacity="0.073"/><circle cx="1271" cy="1969.7" r="2.3" fill="#b3873e" opacity="0.063"/><circle cx="1492.1" cy="1304.4" r="1.9" fill="#b3873e" opacity="0.042"/><circle cx="1215.5" cy="2661.5" r="2.8" fill="#b3873e" opacity="0.045"/><circle cx="532.1" cy="1195.5" r="3.7" fill="#b3873e" opacity="0.051"/><circle cx="666.1" cy="657" r="2.1" fill="#b3873e" opacity="0.043"/><circle cx="1230.6" cy="2914.3" r="3.1" fill="#b3873e" opacity="0.034"/><circle cx="2234.4" cy="2123" r="3.7" fill="#b3873e" opacity="0.077"/><circle cx="788.3" cy="1166.7" r="2" fill="#b3873e" opacity="0.058"/><circle cx="1208.1" cy="2300.2" r="4.4" fill="#b3873e" opacity="0.078"/><circle cx="286.8" cy="541.3" r="3.1" fill="#b3873e" opacity="0.051"/><circle cx="435" cy="1784.9" r="1.8" fill="#b3873e" opacity="0.065"/><circle cx="806.1" cy="1959.6" r="2.6" fill="#b3873e" opacity="0.070"/><circle cx="2170.9" cy="1775.5" r="3.6" fill="#b3873e" opacity="0.043"/><circle cx="591.3" cy="575.4" r="3.2" fill="#b3873e" opacity="0.042"/><circle cx="1895.4" cy="1476.1" r="1.7" fill="#b3873e" opacity="0.076"/><circle cx="1093.4" cy="845.6" r="368.8" fill="#8a6a4b" opacity="0.95"/><line x1="200" y1="2430" x2="2200" y2="2430" stroke="#b3873e" stroke-width="16"/><rect x="930" y="2340" width="540" height="90" fill="#b3873e"/><rect x="1005.6" y="2260" width="388.8" height="80" fill="#b3873e"/><path d="M1065,2260 L1116.3,805.6 L1283.7,805.6 L1335,2260 Z" fill="#b3873e"/><polygon points="1200,655.6 1116.3,807.6 1283.7,807.6" fill="#8a6a4b"/><circle cx="1200" cy="915.6" r="18.400000000000002" fill="none" stroke="#2b2f36" stroke-width="10" opacity="0.9"/><line x1="1200" y1="934" x2="1200" y2="961.6" stroke="#2b2f36" stroke-width="10" opacity="0.9"/><circle cx="1200" cy="1025.6" r="18.400000000000002" fill="none" stroke="#2b2f36" stroke-width="10" opacity="0.9"/><line x1="1200" y1="1044" x2="1200" y2="1071.6" stroke="#2b2f36" stroke-width="10" opacity="0.9"/><circle cx="1200" cy="1135.6" r="18.400000000000002" fill="none" stroke="#2b2f36" stroke-width="10" opacity="0.9"/><line x1="1200" y1="1154" x2="1200" y2="1181.6" stroke="#2b2f36" stroke-width="10" opacity="0.9"/><circle cx="1200" cy="1245.6" r="18.400000000000002" fill="none" stroke="#2b2f36" stroke-width="10" opacity="0.9"/><line x1="1200" y1="1264" x2="1200" y2="1291.6" stroke="#2b2f36" stroke-width="10" opacity="0.9"/><polyline points="1154,1369.6 1177,1343.6 1200,1369.6 1223,1343.6 1246,1369.6 " fill="none" stroke="#2b2f36" stroke-width="4.7" stroke-linejoin="miter"/><circle cx="1200" cy="1465.6" r="18.400000000000002" fill="none" stroke="#2b2f36" stroke-width="10" opacity="0.9"/><line x1="1200" y1="1484" x2="1200" y2="1511.6" stroke="#2b2f36" stroke-width="10" opacity="0.9"/><polyline points="1154,1589.6 1177,1563.6 1200,1589.6 1223,1563.6 1246,1589.6 " fill="none" stroke="#2b2f36" stroke-width="4.7" stroke-linejoin="miter"/><polygon points="1200,1662.6 1177,1708.6 1223,1708.6" fill="#2b2f36" opacity="0.9"/><polyline points="1154,1809.6 1177,1783.6 1200,1809.6 1223,1783.6 1246,1809.6 " fill="none" stroke="#2b2f36" stroke-width="4.7" stroke-linejoin="miter"/><polygon points="1200,1882.6 1177,1928.6 1223,1928.6" fill="#2b2f36" opacity="0.9"/><polyline points="1154,2029.6 1177,2003.6 1200,2029.6 1223,2003.6 1246,2029.6 " fill="none" stroke="#2b2f36" stroke-width="4.7" stroke-linejoin="miter"/><circle cx="1200" cy="2125.6" r="18.400000000000002" fill="none" stroke="#2b2f36" stroke-width="10" opacity="0.9"/><line x1="1200" y1="2144" x2="1200" y2="2171.6" stroke="#2b2f36" stroke-width="10" opacity="0.9"/><rect x="200" y="2770" width="2000" height="13.3" fill="#b3873e"/><rect x="200" y="2782.8" width="2000" height="13.3" fill="#8a6a4b"/><rect x="200" y="2795.6" width="2000" height="13.3" fill="#b3873e"/><rect x="200" y="2808.4" width="2000" height="13.3" fill="#3d434d"/><rect x="200" y="2821.2" width="2000" height="13.3" fill="#b3873e"/><rect x="100" y="100" width="2200" height="2800" fill="none" stroke="#b3873e" stroke-width="9"/><rect x="142" y="142" width="2116" height="2716" fill="none" stroke="#b3873e" stroke-width="3" opacity="0.65"/></svg></svg>