<svg xmlns="http://www.w3.org/2000/svg" width="2400" height="1800" viewBox="0 0 2400 1800"><rect width="2400" height="1800" fill="#e5ddcf"/><rect y="1430" width="2400" height="370" fill="#b89a76"/><line x1="100" y1="1430" x2="45" y2="1800" stroke="#00000016" stroke-width="5"/><line x1="330" y1="1430" x2="275" y2="1800" stroke="#00000016" stroke-width="5"/><line x1="560" y1="1430" x2="505" y2="1800" stroke="#00000016" stroke-width="5"/><line x1="790" y1="1430" x2="735" y2="1800" stroke="#00000016" stroke-width="5"/><line x1="1020" y1="1430" x2="965" y2="1800" stroke="#00000016" stroke-width="5"/><line x1="1250" y1="1430" x2="1195" y2="1800" stroke="#00000016" stroke-width="5"/><line x1="1480" y1="1430" x2="1425" y2="1800" stroke="#00000016" stroke-width="5"/><line x1="1710" y1="1430" x2="1655" y2="1800" stroke="#00000016" stroke-width="5"/><line x1="1940" y1="1430" x2="1885" y2="1800" stroke="#00000016" stroke-width="5"/><line x1="2170" y1="1430" x2="2115" y2="1800" stroke="#00000016" stroke-width="5"/><rect x="620" y="1180" width="1180" height="52" rx="10" fill="#8a6540"/><rect x="680" y="1232" width="70" height="330" fill="#775433"/><rect x="1670" y="1232" width="70" height="330" fill="#775433"/><rect x="760" y="1120" width="220" height="34" rx="6" fill="#b3502f"/><rect x="780" y="1086" width="200" height="34" rx="6" fill="#39685c"/><rect x="800" y="1052" width="170" height="34" rx="6" fill="#c9a227"/><circle cx="1240" cy="1130" r="46" fill="#3f3428"/><rect x="1226" y="1048" width="16" height="60" fill="#3f3428" transform="rotate(18 1240 1090)"/><rect x="1420" y="1100" width="260" height="26" rx="13" fill="#e8dcc0"/><rect x="1450" y="1072" width="260" height="26" rx="13" fill="#dfd0ad"/><rect x="1080" y="1300" width="360" height="34" rx="14" fill="#6f5436"/><rect x="1100" y="1334" width="40" height="220" fill="#6f5436"/><rect x="1380" y="1334" width="40" height="220" fill="#6f5436"/><rect x="1080" y="1030" width="42" height="290" rx="14" fill="#6f5436"/><rect x="260" y="480" width="560" height="24" fill="#8a6540"/><rect x="300" y="360" width="90" height="120" fill="#b3502f"/><rect x="400" y="380" width="80" height="100" fill="#2c4661"/><rect x="490" y="350" width="86" height="130" fill="#96a396"/><path d="M700,480 Q 616,347 574,382" fill="none" stroke="#5d7052" stroke-width="11.2" stroke-linecap="round"/><path d="M700,480 Q 644,347 616,354" fill="none" stroke="#5d7052" stroke-width="11.2" stroke-linecap="round"/><path d="M700,480 Q 672,347 658,326" fill="none" stroke="#5d7052" stroke-width="11.2" stroke-linecap="round"/><path d="M700,480 Q 700,347 700,298" fill="none" stroke="#5d7052" stroke-width="11.2" stroke-linecap="round"/><path d="M700,480 Q 728,347 742,326" fill="none" stroke="#5d7052" stroke-width="11.2" stroke-linecap="round"/><path d="M700,480 Q 756,347 784,354" fill="none" stroke="#5d7052" stroke-width="11.2" stroke-linecap="round"/><path d="M700,480 Q 784,347 826,382" fill="none" stroke="#5d7052" stroke-width="11.2" stroke-linecap="round"/><path d="M651,480 L749,480 L736.4,557 L663.6,557 Z" fill="#a9714d"/><path d="M320,1520 Q 164,1273 86,1338" fill="none" stroke="#5d7052" stroke-width="20.8" stroke-linecap="round"/><path d="M320,1520 Q 216,1273 164,1286" fill="none" stroke="#5d7052" stroke-width="20.8" stroke-linecap="round"/><path d="M320,1520 Q 268,1273 242,1234" fill="none" stroke="#5d7052" stroke-width="20.8" stroke-linecap="round"/><path d="M320,1520 Q 320,1273 320,1182" fill="none" stroke="#5d7052" stroke-width="20.8" stroke-linecap="round"/><path d="M320,1520 Q 372,1273 398,1234" fill="none" stroke="#5d7052" stroke-width="20.8" stroke-linecap="round"/><path d="M320,1520 Q 424,1273 476,1286" fill="none" stroke="#5d7052" stroke-width="20.8" stroke-linecap="round"/><path d="M320,1520 Q 476,1273 554,1338" fill="none" stroke="#5d7052" stroke-width="20.8" stroke-linecap="round"/><path d="M229,1520 L411,1520 L387.6,1663 L252.4,1663 Z" fill="#a9714d"/><defs><filter id="a157s-sh" x="-30%" y="-30%" width="160%" height="160%"><feGaussianBlur stdDeviation="16"/></filter></defs><rect x="1206" y="294" width="616" height="756" fill="#000" opacity="0.28" filter="url(#a157s-sh)"/><rect x="1192" y="272" width="616" height="756" fill="#443a2d"/><rect x="1210.2" y="290.2" width="579.6" height="719.6" fill="none" stroke="#00000055" stroke-width="3"/><rect x="1220" y="300" width="560" height="700" fill="#f6f2ea"/><svg x="1262" y="342" width="476" height="616" viewBox="0 0 2400 3000" preserveAspectRatio="xMidYMid slice"><rect width="2400" height="3000" fill="#e9dcbc"/><radialGradient id="a157-vig" cx="50%" cy="42%" r="80%"><stop offset="55%" stop-color="#000" stop-opacity="0"/><stop offset="100%" stop-color="#000" stop-opacity="0.15"/></radialGradient><rect width="2400" height="3000" fill="url(#a157-vig)"/><circle cx="1162.4" cy="2848.5" r="2.9" fill="#2c4661" opacity="0.051"/><circle cx="1140.8" cy="2090.9" r="2.3" fill="#2c4661" opacity="0.068"/><circle cx="1131" cy="1527.7" r="1.6" fill="#2c4661" opacity="0.032"/><circle cx="1314.7" cy="2380.1" r="4.2" fill="#2c4661" opacity="0.040"/><circle cx="1438.3" cy="686.4" r="2.3" fill="#2c4661" opacity="0.037"/><circle cx="2206.7" cy="1579.4" r="2.9" fill="#2c4661" opacity="0.066"/><circle cx="922.7" cy="58.7" r="1.5" fill="#2c4661" opacity="0.075"/><circle cx="417.3" cy="1190.5" r="2.6" fill="#2c4661" opacity="0.054"/><circle cx="2165.2" cy="1283.1" r="2.8" fill="#2c4661" opacity="0.040"/><circle cx="1319.6" cy="806" r="3.2" fill="#2c4661" opacity="0.063"/><circle cx="2345.2" cy="2699.4" r="3.5" fill="#2c4661" opacity="0.058"/><circle cx="1258.4" cy="1249.7" r="1.8" fill="#2c4661" opacity="0.074"/><circle cx="899.1" cy="2416.8" r="4.5" fill="#2c4661" opacity="0.071"/><circle cx="159" cy="1822.1" r="4.3" fill="#2c4661" opacity="0.048"/><circle cx="270.8" cy="1928.3" r="4.3" fill="#2c4661" opacity="0.047"/><circle cx="383.9" cy="1926.3" r="4.2" fill="#2c4661" opacity="0.058"/><circle cx="1967.6" cy="2044.3" r="4.4" fill="#2c4661" opacity="0.052"/><circle cx="728" cy="304.9" r="3.8" fill="#2c4661" opacity="0.054"/><circle cx="396.2" cy="726.9" r="3.8" fill="#2c4661" opacity="0.074"/><circle cx="1285.2" cy="2521.8" r="2.8" fill="#2c4661" opacity="0.058"/><circle cx="256.6" cy="1253.3" r="1.8" fill="#2c4661" opacity="0.049"/><circle cx="45.9" cy="2834.9" r="4" fill="#2c4661" opacity="0.063"/><circle cx="461.9" cy="925.2" r="2.6" fill="#2c4661" opacity="0.054"/><circle cx="651" cy="2488.4" r="2.3" fill="#2c4661" opacity="0.068"/><circle cx="673.2" cy="1851.3" r="3.3" fill="#2c4661" opacity="0.061"/><circle cx="2156.4" cy="1504.6" r="2.1" fill="#2c4661" opacity="0.068"/><circle cx="65.7" cy="2825.5" r="4.4" fill="#2c4661" opacity="0.066"/><circle cx="701" cy="814.2" r="2.4" fill="#2c4661" opacity="0.034"/><circle cx="1855.3" cy="2190.3" r="4" fill="#2c4661" opacity="0.034"/><circle cx="1082.9" cy="1419.5" r="3" fill="#2c4661" opacity="0.077"/><circle cx="1538.9" cy="2415.1" r="3.2" fill="#2c4661" opacity="0.036"/><circle cx="2066.8" cy="193.6" r="2" fill="#2c4661" opacity="0.065"/><circle cx="2049" cy="508.4" r="1.6" fill="#2c4661" opacity="0.065"/><circle cx="1672.4" cy="1060.1" r="2.5" fill="#2c4661" opacity="0.057"/><circle cx="1091.9" cy="2419.4" r="2.5" fill="#2c4661" opacity="0.054"/><circle cx="880.8" cy="1119.6" r="4.1" fill="#2c4661" opacity="0.039"/><circle cx="2060.6" cy="92.7" r="2.8" fill="#2c4661" opacity="0.064"/><circle cx="1779.9" cy="305.5" r="4.3" fill="#2c4661" opacity="0.047"/><circle cx="495.7" cy="1870.5" r="2.6" fill="#2c4661" opacity="0.044"/><circle cx="1932.8" cy="2792.3" r="1.7" fill="#2c4661" opacity="0.080"/><circle cx="925.7" cy="1696.8" r="1.8" fill="#2c4661" opacity="0.066"/><circle cx="1431.4" cy="2910.3" r="3.4" fill="#2c4661" opacity="0.066"/><circle cx="1668.3" cy="1229.3" r="2.7" fill="#2c4661" opacity="0.061"/><circle cx="1667.6" cy="1793.8" r="3.1" fill="#2c4661" opacity="0.074"/><circle cx="1825.1" cy="2739.2" r="1.6" fill="#2c4661" opacity="0.057"/><circle cx="1440.7" cy="670.3" r="2.8" fill="#2c4661" opacity="0.054"/><circle cx="409.4" cy="2568.7" r="3.4" fill="#2c4661" opacity="0.055"/><circle cx="1410.4" cy="1686.8" r="2.6" fill="#2c4661" opacity="0.066"/><circle cx="916.9" cy="2572" r="1.7" fill="#2c4661" opacity="0.057"/><circle cx="958.8" cy="1846.4" r="3.1" fill="#2c4661" opacity="0.044"/><circle cx="836.8" cy="2080.5" r="4.3" fill="#2c4661" opacity="0.079"/><circle cx="1120.7" cy="152.3" r="2.5" fill="#2c4661" opacity="0.075"/><circle cx="864.9" cy="1813" r="1.9" fill="#2c4661" opacity="0.055"/><circle cx="113.9" cy="2286.9" r="2.9" fill="#2c4661" opacity="0.033"/><circle cx="605.8" cy="1139.2" r="3.6" fill="#2c4661" opacity="0.040"/><circle cx="743.3" cy="191.4" r="3.6" fill="#2c4661" opacity="0.062"/><circle cx="2023.3" cy="2154.5" r="3.5" fill="#2c4661" opacity="0.044"/><circle cx="2335.4" cy="1123.9" r="3.3" fill="#2c4661" opacity="0.058"/><circle cx="1070" cy="2015.4" r="4.4" fill="#2c4661" opacity="0.032"/><circle cx="2102.1" cy="2017" r="2.4" fill="#2c4661" opacity="0.048"/><circle cx="1782.2" cy="2815.8" r="2.6" fill="#2c4661" opacity="0.072"/><circle cx="715.2" cy="147" r="2.8" fill="#2c4661" opacity="0.042"/><circle cx="1723.2" cy="701.6" r="2.4" fill="#2c4661" opacity="0.030"/><circle cx="260" cy="2063.7" r="1.8" fill="#2c4661" opacity="0.078"/><circle cx="1911.1" cy="248.1" r="2.2" fill="#2c4661" opacity="0.079"/><circle cx="983.2" cy="2438.2" r="4.2" fill="#2c4661" opacity="0.070"/><circle cx="1978.2" cy="2734.4" r="2.1" fill="#2c4661" opacity="0.067"/><circle cx="900.2" cy="1981.9" r="3.1" fill="#2c4661" opacity="0.052"/><circle cx="1291" cy="2676.4" r="1.8" fill="#2c4661" opacity="0.044"/><circle cx="598.1" cy="1107.9" r="2.5" fill="#2c4661" opacity="0.046"/><circle cx="1728.3" cy="1283.7" r="1.5" fill="#2c4661" opacity="0.031"/><circle cx="2351.7" cy="2507.7" r="2.2" fill="#2c4661" opacity="0.067"/><circle cx="1604.6" cy="2019.9" r="1.5" fill="#2c4661" opacity="0.077"/><circle cx="568.1" cy="419.1" r="4" fill="#2c4661" opacity="0.037"/><circle cx="868.6" cy="2750.5" r="3.4" fill="#2c4661" opacity="0.078"/><circle cx="148.9" cy="692.4" r="2.9" fill="#2c4661" opacity="0.074"/><circle cx="1720.3" cy="1703.3" r="2.4" fill="#2c4661" opacity="0.075"/><circle cx="1184.8" cy="356.5" r="3.3" fill="#2c4661" opacity="0.075"/><circle cx="2310.9" cy="1031.8" r="3.4" fill="#2c4661" opacity="0.063"/><circle cx="89.7" cy="2124.4" r="2.9" fill="#2c4661" opacity="0.033"/><rect x="190" y="2434" width="2020" height="66" fill="#2c4661" opacity="1"/><rect x="250" y="2368" width="1900" height="66" fill="#2c4661" opacity="0.92"/><rect x="310" y="2302" width="1780" height="66" fill="#2c4661" opacity="0.84"/><rect x="316" y="1300" width="108" height="1002" fill="#2c4661"/><line x1="338.2" y1="1340" x2="338.2" y2="2288" stroke="#e9dcbc" stroke-width="7" opacity="0.5"/><line x1="370" y1="1340" x2="370" y2="2288" stroke="#e9dcbc" stroke-width="7" opacity="0.5"/><line x1="401.8" y1="1340" x2="401.8" y2="2288" stroke="#e9dcbc" stroke-width="7" opacity="0.5"/><rect x="294" y="1260" width="152" height="40" fill="#2c4661"/><rect x="304" y="2298" width="132" height="30" fill="#2c4661"/><rect x="731" y="1300" width="108" height="1002" fill="#2c4661"/><line x1="753.2" y1="1340" x2="753.2" y2="2288" stroke="#e9dcbc" stroke-width="7" opacity="0.5"/><line x1="785" y1="1340" x2="785" y2="2288" stroke="#e9dcbc" stroke-width="7" opacity="0.5"/><line x1="816.8" y1="1340" x2="816.8" y2="2288" stroke="#e9dcbc" stroke-width="7" opacity="0.5"/><rect x="709" y="1260" width="152" height="40" fill="#2c4661"/><rect x="719" y="2298" width="132" height="30" fill="#2c4661"/><rect x="1146" y="1300" width="108" height="1002" fill="#2c4661"/><line x1="1168.2" y1="1340" x2="1168.2" y2="2288" stroke="#e9dcbc" stroke-width="7" opacity="0.5"/><line x1="1200" y1="1340" x2="1200" y2="2288" stroke="#e9dcbc" stroke-width="7" opacity="0.5"/><line x1="1231.8" y1="1340" x2="1231.8" y2="2288" stroke="#e9dcbc" stroke-width="7" opacity="0.5"/><rect x="1124" y="1260" width="152" height="40" fill="#2c4661"/><rect x="1134" y="2298" width="132" height="30" fill="#2c4661"/><rect x="1561" y="1300" width="108" height="1002" fill="#2c4661"/><line x1="1583.2" y1="1340" x2="1583.2" y2="2288" stroke="#e9dcbc" stroke-width="7" opacity="0.5"/><line x1="1615" y1="1340" x2="1615" y2="2288" stroke="#e9dcbc" stroke-width="7" opacity="0.5"/><line x1="1646.8" y1="1340" x2="1646.8" y2="2288" stroke="#e9dcbc" stroke-width="7" opacity="0.5"/><rect x="1539" y="1260" width="152" height="40" fill="#2c4661"/><rect x="1549" y="2298" width="132" height="30" fill="#2c4661"/><rect x="1976" y="1300" width="108" height="1002" fill="#2c4661"/><line x1="1998.2" y1="1340" x2="1998.2" y2="2288" stroke="#e9dcbc" stroke-width="7" opacity="0.5"/><line x1="2030" y1="1340" x2="2030" y2="2288" stroke="#e9dcbc" stroke-width="7" opacity="0.5"/><line x1="2061.8" y1="1340" x2="2061.8" y2="2288" stroke="#e9dcbc" stroke-width="7" opacity="0.5"/><rect x="1954" y="1260" width="152" height="40" fill="#2c4661"/><rect x="1964" y="2298" width="132" height="30" fill="#2c4661"/><rect x="240" y="1176" width="1920" height="84" fill="#2c4661"/><rect x="240" y="1046" width="1920" height="130" fill="#c9b98e"/><rect x="275" y="1064" width="18" height="94" fill="#2c4661"/><rect x="301" y="1064" width="18" height="94" fill="#2c4661"/><rect x="327" y="1064" width="18" height="94" fill="#2c4661"/><circle cx="421.3" cy="1111" r="30" fill="none" stroke="#2c4661" stroke-width="10"/><rect x="497.5" y="1064" width="18" height="94" fill="#2c4661"/><rect x="523.5" y="1064" width="18" height="94" fill="#2c4661"/><rect x="549.5" y="1064" width="18" height="94" fill="#2c4661"/><circle cx="643.8" cy="1111" r="30" fill="none" stroke="#2c4661" stroke-width="10"/><rect x="720" y="1064" width="18" height="94" fill="#2c4661"/><rect x="746" y="1064" width="18" height="94" fill="#2c4661"/><rect x="772" y="1064" width="18" height="94" fill="#2c4661"/><circle cx="866.3" cy="1111" r="30" fill="none" stroke="#2c4661" stroke-width="10"/><rect x="942.5" y="1064" width="18" height="94" fill="#2c4661"/><rect x="968.5" y="1064" width="18" height="94" fill="#2c4661"/><rect x="994.5" y="1064" width="18" height="94" fill="#2c4661"/><circle cx="1088.8" cy="1111" r="30" fill="none" stroke="#2c4661" stroke-width="10"/><rect x="1165" y="1064" width="18" height="94" fill="#2c4661"/><rect x="1191" y="1064" width="18" height="94" fill="#2c4661"/><rect x="1217" y="1064" width="18" height="94" fill="#2c4661"/><circle cx="1311.3" cy="1111" r="30" fill="none" stroke="#2c4661" stroke-width="10"/><rect x="1387.5" y="1064" width="18" height="94" fill="#2c4661"/><rect x="1413.5" y="1064" width="18" height="94" fill="#2c4661"/><rect x="1439.5" y="1064" width="18" height="94" fill="#2c4661"/><circle cx="1533.8" cy="1111" r="30" fill="none" stroke="#2c4661" stroke-width="10"/><rect x="1610" y="1064" width="18" height="94" fill="#2c4661"/><rect x="1636" y="1064" width="18" height="94" fill="#2c4661"/><rect x="1662" y="1064" width="18" height="94" fill="#2c4661"/><circle cx="1756.3" cy="1111" r="30" fill="none" stroke="#2c4661" stroke-width="10"/><rect x="1832.5" y="1064" width="18" height="94" fill="#2c4661"/><rect x="1858.5" y="1064" width="18" height="94" fill="#2c4661"/><rect x="1884.5" y="1064" width="18" height="94" fill="#2c4661"/><circle cx="1978.8" cy="1111" r="30" fill="none" stroke="#2c4661" stroke-width="10"/><rect x="2055" y="1064" width="18" height="94" fill="#2c4661"/><rect x="2081" y="1064" width="18" height="94" fill="#2c4661"/><rect x="2107" y="1064" width="18" height="94" fill="#2c4661"/><rect x="210" y="1000" width="1980" height="46" fill="#2c4661"/><polygon points="210,1000 1200,661 2190,1000" fill="none" stroke="#2c4661" stroke-width="26"/><polygon points="1200,788 1214.8,844.3 1265.1,814.9 1235.7,865.2 1292,880 1235.7,894.8 1265.1,945.1 1214.8,915.7 1200,972 1185.2,915.7 1134.9,945.1 1164.3,894.8 1108,880 1164.3,865.2 1134.9,814.9 1185.2,844.3 " fill="#b3502f"/><circle cx="740" cy="930" r="34" fill="#b3502f"/><circle cx="1660" cy="930" r="34" fill="#b3502f"/><line x1="1200" y1="651" x2="1153.9" y2="609.5" stroke="#2c4661" stroke-width="13" stroke-linecap="round"/><line x1="1200" y1="651" x2="1174.8" y2="594.3" stroke="#2c4661" stroke-width="13" stroke-linecap="round"/><line x1="1200" y1="651" x2="1200" y2="589" stroke="#2c4661" stroke-width="13" stroke-linecap="round"/><line x1="1200" y1="651" x2="1225.2" y2="594.3" stroke="#2c4661" stroke-width="13" stroke-linecap="round"/><line x1="1200" y1="651" x2="1246.1" y2="609.5" stroke="#2c4661" stroke-width="13" stroke-linecap="round"/><line x1="210" y1="990" x2="163.9" y2="948.5" stroke="#2c4661" stroke-width="13" stroke-linecap="round"/><line x1="210" y1="990" x2="184.8" y2="933.4" stroke="#2c4661" stroke-width="13" stroke-linecap="round"/><line x1="210" y1="990" x2="210" y2="928" stroke="#2c4661" stroke-width="13" stroke-linecap="round"/><line x1="210" y1="990" x2="235.2" y2="933.4" stroke="#2c4661" stroke-width="13" stroke-linecap="round"/><line x1="210" y1="990" x2="256.1" y2="948.5" stroke="#2c4661" stroke-width="13" stroke-linecap="round"/><line x1="2190" y1="990" x2="2143.9" y2="948.5" stroke="#2c4661" stroke-width="13" stroke-linecap="round"/><line x1="2190" y1="990" x2="2164.8" y2="933.4" stroke="#2c4661" stroke-width="13" stroke-linecap="round"/><line x1="2190" y1="990" x2="2190" y2="928" stroke="#2c4661" stroke-width="13" stroke-linecap="round"/><line x1="2190" y1="990" x2="2215.2" y2="933.4" stroke="#2c4661" stroke-width="13" stroke-linecap="round"/><line x1="2190" y1="990" x2="2236.1" y2="948.5" stroke="#2c4661" stroke-width="13" stroke-linecap="round"/><path d="M324.7,2797.3 L 395.3,2797.3 L 395.3,2726.7 L 339.8,2726.7 L 339.8,2770.4 L 368.4,2770.4 L 368.4,2748.6 M408.7,2797.3 L 479.3,2797.3 L 479.3,2726.7 L 423.8,2726.7 L 423.8,2770.4 L 452.4,2770.4 L 452.4,2748.6 M492.7,2797.3 L 563.3,2797.3 L 563.3,2726.7 L 507.8,2726.7 L 507.8,2770.4 L 536.4,2770.4 L 536.4,2748.6 M576.7,2797.3 L 647.3,2797.3 L 647.3,2726.7 L 591.8,2726.7 L 591.8,2770.4 L 620.4,2770.4 L 620.4,2748.6 M660.7,2797.3 L 731.3,2797.3 L 731.3,2726.7 L 675.8,2726.7 L 675.8,2770.4 L 704.4,2770.4 L 704.4,2748.6 M744.7,2797.3 L 815.3,2797.3 L 815.3,2726.7 L 759.8,2726.7 L 759.8,2770.4 L 788.4,2770.4 L 788.4,2748.6 M828.7,2797.3 L 899.3,2797.3 L 899.3,2726.7 L 843.8,2726.7 L 843.8,2770.4 L 872.4,2770.4 L 872.4,2748.6 M912.7,2797.3 L 983.3,2797.3 L 983.3,2726.7 L 927.8,2726.7 L 927.8,2770.4 L 956.4,2770.4 L 956.4,2748.6 M996.7,2797.3 L 1067.3,2797.3 L 1067.3,2726.7 L 1011.8,2726.7 L 1011.8,2770.4 L 1040.4,2770.4 L 1040.4,2748.6 M1080.7,2797.3 L 1151.3,2797.3 L 1151.3,2726.7 L 1095.8,2726.7 L 1095.8,2770.4 L 1124.4,2770.4 L 1124.4,2748.6 M1164.7,2797.3 L 1235.3,2797.3 L 1235.3,2726.7 L 1179.8,2726.7 L 1179.8,2770.4 L 1208.4,2770.4 L 1208.4,2748.6 M1248.7,2797.3 L 1319.3,2797.3 L 1319.3,2726.7 L 1263.8,2726.7 L 1263.8,2770.4 L 1292.4,2770.4 L 1292.4,2748.6 M1332.7,2797.3 L 1403.3,2797.3 L 1403.3,2726.7 L 1347.8,2726.7 L 1347.8,2770.4 L 1376.4,2770.4 L 1376.4,2748.6 M1416.7,2797.3 L 1487.3,2797.3 L 1487.3,2726.7 L 1431.8,2726.7 L 1431.8,2770.4 L 1460.4,2770.4 L 1460.4,2748.6 M1500.7,2797.3 L 1571.3,2797.3 L 1571.3,2726.7 L 1515.8,2726.7 L 1515.8,2770.4 L 1544.4,2770.4 L 1544.4,2748.6 M1584.7,2797.3 L 1655.3,2797.3 L 1655.3,2726.7 L 1599.8,2726.7 L 1599.8,2770.4 L 1628.4,2770.4 L 1628.4,2748.6 M1668.7,2797.3 L 1739.3,2797.3 L 1739.3,2726.7 L 1683.8,2726.7 L 1683.8,2770.4 L 1712.4,2770.4 L 1712.4,2748.6 M1752.7,2797.3 L 1823.3,2797.3 L 1823.3,2726.7 L 1767.8,2726.7 L 1767.8,2770.4 L 1796.4,2770.4 L 1796.4,2748.6 M1836.7,2797.3 L 1907.3,2797.3 L 1907.3,2726.7 L 1851.8,2726.7 L 1851.8,2770.4 L 1880.4,2770.4 L 1880.4,2748.6 M1920.7,2797.3 L 1991.3,2797.3 L 1991.3,2726.7 L 1935.8,2726.7 L 1935.8,2770.4 L 1964.4,2770.4 L 1964.4,2748.6 M2004.7,2797.3 L 2075.3,2797.3 L 2075.3,2726.7 L 2019.8,2726.7 L 2019.8,2770.4 L 2048.4,2770.4 L 2048.4,2748.6 " fill="none" stroke="#2c4661" stroke-width="10.9"/><rect x="100" y="100" width="2200" height="2800" fill="none" stroke="#2c4661" stroke-width="9"/><rect x="142" y="142" width="2116" height="2716" fill="none" stroke="#2c4661" stroke-width="3" opacity="0.65"/></svg></svg>