<svg xmlns="http://www.w3.org/2000/svg" width="2400" height="1800" viewBox="0 0 2400 1800"><rect width="2400" height="1800" fill="#dfe4dc"/><rect y="1400" width="2400" height="400" fill="#c2a67e"/><line x1="60" y1="1400" x2="10" y2="1800" stroke="#00000015" stroke-width="5"/><line x1="260" y1="1400" x2="210" y2="1800" stroke="#00000015" stroke-width="5"/><line x1="460" y1="1400" x2="410" y2="1800" stroke="#00000015" stroke-width="5"/><line x1="660" y1="1400" x2="610" y2="1800" stroke="#00000015" stroke-width="5"/><line x1="860" y1="1400" x2="810" y2="1800" stroke="#00000015" stroke-width="5"/><line x1="1060" y1="1400" x2="1010" y2="1800" stroke="#00000015" stroke-width="5"/><line x1="1260" y1="1400" x2="1210" y2="1800" stroke="#00000015" stroke-width="5"/><line x1="1460" y1="1400" x2="1410" y2="1800" stroke="#00000015" stroke-width="5"/><line x1="1660" y1="1400" x2="1610" y2="1800" stroke="#00000015" stroke-width="5"/><line x1="1860" y1="1400" x2="1810" y2="1800" stroke="#00000015" stroke-width="5"/><line x1="2060" y1="1400" x2="2010" y2="1800" stroke="#00000015" stroke-width="5"/><line x1="2260" y1="1400" x2="2210" y2="1800" stroke="#00000015" stroke-width="5"/><rect x="180" y="260" width="900" height="620" fill="#8a6a48"/><rect x="215" y="295" width="830" height="550" fill="#41524a"/><line x1="280" y1="420" x2="760" y2="420" stroke="#ffffff66" stroke-width="9" stroke-linecap="round"/><line x1="280" y1="520" x2="620" y2="520" stroke="#ffffff44" stroke-width="9" stroke-linecap="round"/><circle cx="880" cy="560" r="90" fill="none" stroke="#ffffff55" stroke-width="8"/><rect x="215" y="845" width="830" height="22" fill="#6f5436"/><rect x="330" y="1240" width="640" height="60" rx="10" fill="#9c7449"/><rect x="370" y="1300" width="60" height="240" fill="#8a6540"/><rect x="870" y="1300" width="60" height="240" fill="#8a6540"/><rect x="430" y="1160" width="150" height="80" rx="8" fill="#96a396"/><rect x="450" y="1120" width="150" height="40" rx="8" fill="#cfc7b2"/><circle cx="800" cy="1130" r="86" fill="#7fa3b8"/><path d="M760,1060 Q820,1100 780,1190 M740,1090 Q800,1120 850,1100" stroke="#5d8069" stroke-width="16" fill="none" stroke-linecap="round"/><circle cx="800" cy="1130" r="86" fill="none" stroke="#6b5233" stroke-width="7"/><line x1="800" y1="1216" x2="800" y2="1250" stroke="#6b5233" stroke-width="10"/><rect x="750" y="1244" width="100" height="14" rx="7" fill="#6b5233"/><rect x="1980" y="700" width="300" height="800" fill="#9c7449"/><rect x="2000" y="930" width="260" height="16" fill="#7c5a37"/><rect x="2020" y="790" width="36" height="140" fill="#b3502f"/><rect x="2066" y="802" width="36" height="128" fill="#39685c"/><rect x="2112" y="790" width="36" height="140" fill="#c9a227"/><rect x="2158" y="802" width="36" height="128" fill="#2c4661"/><rect x="2204" y="790" width="36" height="140" fill="#8a4423"/><rect x="2000" y="1180" width="260" height="16" fill="#7c5a37"/><rect x="2020" y="1040" width="36" height="140" fill="#39685c"/><rect x="2066" y="1052" width="36" height="128" fill="#c9a227"/><rect x="2112" y="1040" width="36" height="140" fill="#2c4661"/><rect x="2158" y="1052" width="36" height="128" fill="#8a4423"/><rect x="2204" y="1040" width="36" height="140" fill="#b3502f"/><rect x="2000" y="1430" width="260" height="16" fill="#7c5a37"/><rect x="2020" y="1290" width="36" height="140" fill="#c9a227"/><rect x="2066" y="1302" width="36" height="128" fill="#2c4661"/><rect x="2112" y="1290" width="36" height="140" fill="#8a4423"/><rect x="2158" y="1302" width="36" height="128" fill="#b3502f"/><rect x="2204" y="1290" width="36" height="140" fill="#39685c"/><defs><filter id="a143c-sh" x="-30%" y="-30%" width="160%" height="160%"><feGaussianBlur stdDeviation="16"/></filter></defs><rect x="1340.5" y="298.5" width="517" height="635" fill="#000" opacity="0.28" filter="url(#a143c-sh)"/><rect x="1326.5" y="276.5" width="517" height="635" fill="#3d342a"/><rect x="1341.8" y="291.8" width="486.4" height="604.5" fill="none" stroke="#00000055" stroke-width="3"/><rect x="1350" y="300" width="470" height="588" fill="#f6f2ea"/><svg x="1385.3" y="335.3" width="399.5" height="517.5" viewBox="0 0 2400 3000" preserveAspectRatio="xMidYMid slice"><rect width="2400" height="3000" fill="#e7e1d3"/><radialGradient id="a143-vig" cx="50%" cy="42%" r="80%"><stop offset="55%" stop-color="#000" stop-opacity="0"/><stop offset="100%" stop-color="#000" stop-opacity="0.15"/></radialGradient><rect width="2400" height="3000" fill="url(#a143-vig)"/><circle cx="1418.7" cy="2441.6" r="2.9" fill="#39685c" opacity="0.050"/><circle cx="1957.1" cy="1786" r="1.8" fill="#39685c" opacity="0.077"/><circle cx="466.3" cy="268.8" r="3" fill="#39685c" opacity="0.041"/><circle cx="2129.1" cy="2290.1" r="4" fill="#39685c" opacity="0.066"/><circle cx="188.1" cy="1281.1" r="2.1" fill="#39685c" opacity="0.076"/><circle cx="889.8" cy="1259.1" r="1.9" fill="#39685c" opacity="0.032"/><circle cx="1813.8" cy="2893.5" r="4.2" fill="#39685c" opacity="0.067"/><circle cx="1790.4" cy="380.4" r="1.9" fill="#39685c" opacity="0.053"/><circle cx="1059.3" cy="937.1" r="3.1" fill="#39685c" opacity="0.052"/><circle cx="1541.8" cy="2387.8" r="4.3" fill="#39685c" opacity="0.045"/><circle cx="985.3" cy="2492.2" r="3.1" fill="#39685c" opacity="0.034"/><circle cx="560.9" cy="2103.6" r="2.6" fill="#39685c" opacity="0.034"/><circle cx="457.7" cy="338.6" r="2.3" fill="#39685c" opacity="0.076"/><circle cx="1641.2" cy="1780.9" r="1.8" fill="#39685c" opacity="0.054"/><circle cx="106.9" cy="1079.5" r="3.9" fill="#39685c" opacity="0.054"/><circle cx="1053.1" cy="1170.8" r="2" fill="#39685c" opacity="0.057"/><circle cx="358" cy="2763.5" r="1.5" fill="#39685c" opacity="0.061"/><circle cx="558.2" cy="1854.2" r="3" fill="#39685c" opacity="0.059"/><circle cx="454.3" cy="2686.4" r="3.8" fill="#39685c" opacity="0.055"/><circle cx="68.7" cy="557.7" r="3.9" fill="#39685c" opacity="0.064"/><circle cx="943.9" cy="516.3" r="3.6" fill="#39685c" opacity="0.056"/><circle cx="43" cy="48.9" r="2.3" fill="#39685c" opacity="0.033"/><circle cx="1216.1" cy="1418.3" r="2.2" fill="#39685c" opacity="0.040"/><circle cx="866.7" cy="1769.3" r="2.7" fill="#39685c" opacity="0.079"/><circle cx="2230.2" cy="2101.1" r="3.2" fill="#39685c" opacity="0.033"/><circle cx="858.5" cy="1317.8" r="2.3" fill="#39685c" opacity="0.053"/><circle cx="620.3" cy="1509.2" r="2.8" fill="#39685c" opacity="0.057"/><circle cx="901.5" cy="1663.6" r="3.6" fill="#39685c" opacity="0.065"/><circle cx="1953.9" cy="2502.3" r="1.6" fill="#39685c" opacity="0.055"/><circle cx="831.5" cy="64" r="2.4" fill="#39685c" opacity="0.060"/><circle cx="1043.7" cy="241.1" r="3.5" fill="#39685c" opacity="0.055"/><circle cx="1619.9" cy="2953.3" r="4.3" fill="#39685c" opacity="0.052"/><circle cx="1368.5" cy="367.3" r="3.7" fill="#39685c" opacity="0.034"/><circle cx="2115.4" cy="1370.2" r="3.3" fill="#39685c" opacity="0.046"/><circle cx="167.4" cy="450.3" r="4.4" fill="#39685c" opacity="0.076"/><circle cx="1883.1" cy="1842.7" r="4.4" fill="#39685c" opacity="0.050"/><circle cx="2164.7" cy="2570.8" r="1.8" fill="#39685c" opacity="0.031"/><circle cx="718.6" cy="2023.3" r="1.8" fill="#39685c" opacity="0.036"/><circle cx="2266.3" cy="2664.7" r="1.9" fill="#39685c" opacity="0.077"/><circle cx="236" cy="918" r="3.1" fill="#39685c" opacity="0.044"/><circle cx="1953.7" cy="706" r="2.2" fill="#39685c" opacity="0.035"/><circle cx="1340.8" cy="1562.1" r="2.7" fill="#39685c" opacity="0.079"/><circle cx="723.6" cy="2488.3" r="2.1" fill="#39685c" opacity="0.046"/><circle cx="1847.1" cy="875.1" r="3" fill="#39685c" opacity="0.056"/><circle cx="1003.4" cy="2323.9" r="2.6" fill="#39685c" opacity="0.040"/><circle cx="1440" cy="570.1" r="3.5" fill="#39685c" opacity="0.030"/><circle cx="1121.1" cy="1409.6" r="2.1" fill="#39685c" opacity="0.075"/><circle cx="2293.1" cy="2115.6" r="2.3" fill="#39685c" opacity="0.031"/><circle cx="2171.9" cy="1988" r="2.1" fill="#39685c" opacity="0.058"/><circle cx="2091.8" cy="2852" r="3.7" fill="#39685c" opacity="0.076"/><circle cx="1435.5" cy="368.6" r="4.2" fill="#39685c" opacity="0.080"/><circle cx="1224.3" cy="2719.3" r="1.6" fill="#39685c" opacity="0.058"/><circle cx="2206.9" cy="1612.4" r="3.6" fill="#39685c" opacity="0.054"/><circle cx="1481.7" cy="2518.6" r="2.6" fill="#39685c" opacity="0.079"/><circle cx="1414.8" cy="983.4" r="1.7" fill="#39685c" opacity="0.035"/><circle cx="1581.7" cy="2538.3" r="4.1" fill="#39685c" opacity="0.043"/><circle cx="369.6" cy="750.3" r="3.2" fill="#39685c" opacity="0.040"/><circle cx="2093.7" cy="816" r="4.4" fill="#39685c" opacity="0.077"/><circle cx="345.4" cy="771.7" r="1.9" fill="#39685c" opacity="0.075"/><circle cx="1889.2" cy="105" r="3.3" fill="#39685c" opacity="0.051"/><circle cx="781.9" cy="1337.4" r="4.2" fill="#39685c" opacity="0.065"/><circle cx="1950.4" cy="1561.1" r="3.9" fill="#39685c" opacity="0.053"/><circle cx="2070.5" cy="1982.4" r="2.5" fill="#39685c" opacity="0.043"/><circle cx="2307" cy="268.4" r="2.3" fill="#39685c" opacity="0.074"/><circle cx="1065.6" cy="1038.9" r="2.5" fill="#39685c" opacity="0.069"/><circle cx="1880.1" cy="73.7" r="2.4" fill="#39685c" opacity="0.060"/><circle cx="1193.4" cy="2317.9" r="2.1" fill="#39685c" opacity="0.044"/><circle cx="2235.8" cy="2005.4" r="3.9" fill="#39685c" opacity="0.047"/><circle cx="1417.9" cy="2157.9" r="3.3" fill="#39685c" opacity="0.035"/><circle cx="591.6" cy="2431.5" r="1.8" fill="#39685c" opacity="0.040"/><circle cx="1391.2" cy="1645.6" r="4.3" fill="#39685c" opacity="0.067"/><circle cx="1466.8" cy="1462.2" r="1.7" fill="#39685c" opacity="0.045"/><circle cx="949.2" cy="1464.4" r="1.8" fill="#39685c" opacity="0.071"/><circle cx="1223.8" cy="2924.5" r="2.5" fill="#39685c" opacity="0.058"/><circle cx="164" cy="1309.4" r="2.6" fill="#39685c" opacity="0.072"/><circle cx="766.5" cy="776.5" r="2.1" fill="#39685c" opacity="0.051"/><circle cx="1267.6" cy="2873.4" r="1.6" fill="#39685c" opacity="0.060"/><circle cx="471.1" cy="1694.3" r="1.7" fill="#39685c" opacity="0.068"/><circle cx="654.7" cy="2448.6" r="2.3" fill="#39685c" opacity="0.060"/><circle cx="1497.2" cy="2721.1" r="3.5" fill="#39685c" opacity="0.077"/><circle cx="1478.8" cy="940" r="305.6" fill="#96a396" opacity="0.95"/><line x1="200" y1="2430" x2="2200" y2="2430" stroke="#39685c" stroke-width="16"/><rect x="930" y="2340" width="540" height="90" fill="#39685c"/><rect x="1005.6" y="2260" width="388.8" height="80" fill="#39685c"/><path d="M1065,2260 L1116.3,803 L1283.7,803 L1335,2260 Z" fill="#39685c"/><polygon points="1200,653 1116.3,805 1283.7,805" fill="#96a396"/><rect x="1177" y="905" width="46" height="16" fill="#e7e1d3" opacity="0.9"/><circle cx="1200" cy="1023" r="18.400000000000002" fill="none" stroke="#e7e1d3" stroke-width="10" opacity="0.9"/><line x1="1200" y1="1041.4" x2="1200" y2="1069" stroke="#e7e1d3" stroke-width="10" opacity="0.9"/><circle cx="1200" cy="1133" r="18.400000000000002" fill="none" stroke="#e7e1d3" stroke-width="10" opacity="0.9"/><line x1="1200" y1="1151.4" x2="1200" y2="1179" stroke="#e7e1d3" stroke-width="10" opacity="0.9"/><circle cx="1200" cy="1243" r="18.400000000000002" fill="none" stroke="#e7e1d3" stroke-width="10" opacity="0.9"/><line x1="1200" y1="1261.4" x2="1200" y2="1289" stroke="#e7e1d3" stroke-width="10" opacity="0.9"/><rect x="1177" y="1345" width="46" height="16" fill="#e7e1d3" opacity="0.9"/><circle cx="1200" cy="1463" r="19.32" fill="#e7e1d3" opacity="0.9"/><polygon points="1200,1550 1177,1596 1223,1596" fill="#e7e1d3" opacity="0.9"/><polygon points="1200,1660 1177,1706 1223,1706" fill="#e7e1d3" opacity="0.9"/><rect x="1177" y="1785" width="46" height="16" fill="#e7e1d3" opacity="0.9"/><polygon points="1200,1880 1177,1926 1223,1926" fill="#e7e1d3" opacity="0.9"/><circle cx="1200" cy="2013" r="19.32" fill="#e7e1d3" opacity="0.9"/><circle cx="1200" cy="2123" r="18.400000000000002" fill="none" stroke="#e7e1d3" stroke-width="10" opacity="0.9"/><line x1="1200" y1="2141.4" x2="1200" y2="2169" stroke="#e7e1d3" stroke-width="10" opacity="0.9"/><rect x="200" y="2770" width="2000" height="13.3" fill="#39685c"/><rect x="200" y="2782.8" width="2000" height="13.3" fill="#96a396"/><rect x="200" y="2795.6" width="2000" height="13.3" fill="#39685c"/><rect x="200" y="2808.4" width="2000" height="13.3" fill="#cfc7b2"/><rect x="200" y="2821.2" width="2000" height="13.3" fill="#39685c"/><rect x="100" y="100" width="2200" height="2800" fill="none" stroke="#39685c" stroke-width="9"/><rect x="142" y="142" width="2116" height="2716" fill="none" stroke="#39685c" stroke-width="3" opacity="0.65"/></svg></svg>