<svg xmlns="http://www.w3.org/2000/svg" width="2400" height="1800" viewBox="0 0 2400 1800"><rect width="2400" height="1800" fill="#dfe4dc"/><rect y="1400" width="2400" height="400" fill="#c2a67e"/><line x1="60" y1="1400" x2="10" y2="1800" stroke="#00000015" stroke-width="5"/><line x1="260" y1="1400" x2="210" y2="1800" stroke="#00000015" stroke-width="5"/><line x1="460" y1="1400" x2="410" y2="1800" stroke="#00000015" stroke-width="5"/><line x1="660" y1="1400" x2="610" y2="1800" stroke="#00000015" stroke-width="5"/><line x1="860" y1="1400" x2="810" y2="1800" stroke="#00000015" stroke-width="5"/><line x1="1060" y1="1400" x2="1010" y2="1800" stroke="#00000015" stroke-width="5"/><line x1="1260" y1="1400" x2="1210" y2="1800" stroke="#00000015" stroke-width="5"/><line x1="1460" y1="1400" x2="1410" y2="1800" stroke="#00000015" stroke-width="5"/><line x1="1660" y1="1400" x2="1610" y2="1800" stroke="#00000015" stroke-width="5"/><line x1="1860" y1="1400" x2="1810" y2="1800" stroke="#00000015" stroke-width="5"/><line x1="2060" y1="1400" x2="2010" y2="1800" stroke="#00000015" stroke-width="5"/><line x1="2260" y1="1400" x2="2210" y2="1800" stroke="#00000015" stroke-width="5"/><rect x="180" y="260" width="900" height="620" fill="#8a6a48"/><rect x="215" y="295" width="830" height="550" fill="#41524a"/><line x1="280" y1="420" x2="760" y2="420" stroke="#ffffff66" stroke-width="9" stroke-linecap="round"/><line x1="280" y1="520" x2="620" y2="520" stroke="#ffffff44" stroke-width="9" stroke-linecap="round"/><circle cx="880" cy="560" r="90" fill="none" stroke="#ffffff55" stroke-width="8"/><rect x="215" y="845" width="830" height="22" fill="#6f5436"/><rect x="330" y="1240" width="640" height="60" rx="10" fill="#9c7449"/><rect x="370" y="1300" width="60" height="240" fill="#8a6540"/><rect x="870" y="1300" width="60" height="240" fill="#8a6540"/><rect x="430" y="1160" width="150" height="80" rx="8" fill="#c98f4e"/><rect x="450" y="1120" width="150" height="40" rx="8" fill="#7c3a31"/><circle cx="800" cy="1130" r="86" fill="#7fa3b8"/><path d="M760,1060 Q820,1100 780,1190 M740,1090 Q800,1120 850,1100" stroke="#5d8069" stroke-width="16" fill="none" stroke-linecap="round"/><circle cx="800" cy="1130" r="86" fill="none" stroke="#6b5233" stroke-width="7"/><line x1="800" y1="1216" x2="800" y2="1250" stroke="#6b5233" stroke-width="10"/><rect x="750" y="1244" width="100" height="14" rx="7" fill="#6b5233"/><rect x="1980" y="700" width="300" height="800" fill="#9c7449"/><rect x="2000" y="930" width="260" height="16" fill="#7c5a37"/><rect x="2020" y="790" width="36" height="140" fill="#b3502f"/><rect x="2066" y="802" width="36" height="128" fill="#39685c"/><rect x="2112" y="790" width="36" height="140" fill="#c9a227"/><rect x="2158" y="802" width="36" height="128" fill="#2c4661"/><rect x="2204" y="790" width="36" height="140" fill="#8a4423"/><rect x="2000" y="1180" width="260" height="16" fill="#7c5a37"/><rect x="2020" y="1040" width="36" height="140" fill="#39685c"/><rect x="2066" y="1052" width="36" height="128" fill="#c9a227"/><rect x="2112" y="1040" width="36" height="140" fill="#2c4661"/><rect x="2158" y="1052" width="36" height="128" fill="#8a4423"/><rect x="2204" y="1040" width="36" height="140" fill="#b3502f"/><rect x="2000" y="1430" width="260" height="16" fill="#7c5a37"/><rect x="2020" y="1290" width="36" height="140" fill="#c9a227"/><rect x="2066" y="1302" width="36" height="128" fill="#2c4661"/><rect x="2112" y="1290" width="36" height="140" fill="#8a4423"/><rect x="2158" y="1302" width="36" height="128" fill="#b3502f"/><rect x="2204" y="1290" width="36" height="140" fill="#39685c"/><defs><filter id="a177c-sh" x="-30%" y="-30%" width="160%" height="160%"><feGaussianBlur stdDeviation="16"/></filter></defs><rect x="1340.5" y="298.5" width="517" height="635" fill="#000" opacity="0.28" filter="url(#a177c-sh)"/><rect x="1326.5" y="276.5" width="517" height="635" fill="#3d342a"/><rect x="1341.8" y="291.8" width="486.4" height="604.5" fill="none" stroke="#00000055" stroke-width="3"/><rect x="1350" y="300" width="470" height="588" fill="#f6f2ea"/><svg x="1385.3" y="335.3" width="399.5" height="517.5" viewBox="0 0 2400 3000" preserveAspectRatio="xMidYMid slice"><rect width="2400" height="3000" fill="#571f1c"/><radialGradient id="a177-vig" cx="50%" cy="42%" r="80%"><stop offset="55%" stop-color="#000" stop-opacity="0"/><stop offset="100%" stop-color="#000" stop-opacity="0.15"/></radialGradient><rect width="2400" height="3000" fill="url(#a177-vig)"/><circle cx="2148.1" cy="2184.3" r="1.6" fill="#e9dabe" opacity="0.080"/><circle cx="1441.1" cy="729.7" r="3.8" fill="#e9dabe" opacity="0.059"/><circle cx="1062.7" cy="1918.3" r="4.1" fill="#e9dabe" opacity="0.064"/><circle cx="593" cy="1507.2" r="2.6" fill="#e9dabe" opacity="0.030"/><circle cx="1316.8" cy="1072.3" r="3.5" fill="#e9dabe" opacity="0.069"/><circle cx="2058.2" cy="1339.3" r="4.4" fill="#e9dabe" opacity="0.031"/><circle cx="1649.3" cy="639" r="2.4" fill="#e9dabe" opacity="0.062"/><circle cx="447" cy="208.4" r="2.4" fill="#e9dabe" opacity="0.047"/><circle cx="1312.1" cy="45.4" r="1.6" fill="#e9dabe" opacity="0.037"/><circle cx="564.5" cy="1888.1" r="4.1" fill="#e9dabe" opacity="0.073"/><circle cx="1409.3" cy="2208.8" r="3" fill="#e9dabe" opacity="0.066"/><circle cx="104.7" cy="2206.4" r="3.2" fill="#e9dabe" opacity="0.049"/><circle cx="1576.5" cy="596.4" r="3.8" fill="#e9dabe" opacity="0.042"/><circle cx="991.3" cy="1995.7" r="3.2" fill="#e9dabe" opacity="0.069"/><circle cx="709.1" cy="2391.7" r="3.5" fill="#e9dabe" opacity="0.061"/><circle cx="1958.2" cy="583.6" r="3" fill="#e9dabe" opacity="0.069"/><circle cx="779.4" cy="462.8" r="2.8" fill="#e9dabe" opacity="0.033"/><circle cx="1260.3" cy="2153.2" r="2.8" fill="#e9dabe" opacity="0.054"/><circle cx="699.6" cy="629.3" r="2.8" fill="#e9dabe" opacity="0.077"/><circle cx="1593.2" cy="743.1" r="1.9" fill="#e9dabe" opacity="0.037"/><circle cx="902.8" cy="1529" r="2.5" fill="#e9dabe" opacity="0.053"/><circle cx="1883.5" cy="1150.7" r="3.8" fill="#e9dabe" opacity="0.034"/><circle cx="959.8" cy="1500.4" r="3.6" fill="#e9dabe" opacity="0.075"/><circle cx="2231.5" cy="2749.2" r="3.6" fill="#e9dabe" opacity="0.035"/><circle cx="106.1" cy="2778.7" r="2.3" fill="#e9dabe" opacity="0.070"/><circle cx="194.1" cy="725.3" r="3.7" fill="#e9dabe" opacity="0.051"/><circle cx="1041.7" cy="2388" r="3" fill="#e9dabe" opacity="0.052"/><circle cx="1857.4" cy="1759.4" r="3.3" fill="#e9dabe" opacity="0.050"/><circle cx="676.7" cy="2758.5" r="3.3" fill="#e9dabe" opacity="0.043"/><circle cx="1847.4" cy="2485.9" r="2.2" fill="#e9dabe" opacity="0.046"/><circle cx="593.3" cy="2844.9" r="4.1" fill="#e9dabe" opacity="0.068"/><circle cx="2117.4" cy="2875.9" r="3.6" fill="#e9dabe" opacity="0.042"/><circle cx="215.3" cy="1253.1" r="3.7" fill="#e9dabe" opacity="0.066"/><circle cx="318.7" cy="59.2" r="2.7" fill="#e9dabe" opacity="0.046"/><circle cx="421.2" cy="863" r="4.3" fill="#e9dabe" opacity="0.057"/><circle cx="701.4" cy="681.5" r="3" fill="#e9dabe" opacity="0.061"/><circle cx="420.5" cy="1714.3" r="4.3" fill="#e9dabe" opacity="0.037"/><circle cx="1813.6" cy="2516.1" r="3.3" fill="#e9dabe" opacity="0.048"/><circle cx="503.5" cy="1046.2" r="2.9" fill="#e9dabe" opacity="0.076"/><circle cx="2310.6" cy="1469.5" r="2" fill="#e9dabe" opacity="0.040"/><circle cx="1917.3" cy="500.1" r="4.1" fill="#e9dabe" opacity="0.075"/><circle cx="2000.3" cy="1995.8" r="3.1" fill="#e9dabe" opacity="0.033"/><circle cx="1901.7" cy="1863.7" r="3.5" fill="#e9dabe" opacity="0.037"/><circle cx="1865.4" cy="1173.5" r="3.4" fill="#e9dabe" opacity="0.071"/><circle cx="1170.8" cy="1186.9" r="3.8" fill="#e9dabe" opacity="0.035"/><circle cx="117.7" cy="1718.7" r="2" fill="#e9dabe" opacity="0.033"/><circle cx="1435.2" cy="2942.8" r="4.1" fill="#e9dabe" opacity="0.037"/><circle cx="2325.7" cy="336.5" r="1.9" fill="#e9dabe" opacity="0.064"/><circle cx="92.7" cy="1440.8" r="2.1" fill="#e9dabe" opacity="0.046"/><circle cx="382.3" cy="2485.1" r="4.1" fill="#e9dabe" opacity="0.060"/><circle cx="1266.8" cy="1330.3" r="3.8" fill="#e9dabe" opacity="0.035"/><circle cx="1610.5" cy="1833.6" r="2" fill="#e9dabe" opacity="0.039"/><circle cx="1833.9" cy="887" r="4.2" fill="#e9dabe" opacity="0.055"/><circle cx="1213.7" cy="1528.6" r="3.1" fill="#e9dabe" opacity="0.032"/><circle cx="792.1" cy="1857" r="2.3" fill="#e9dabe" opacity="0.041"/><circle cx="108" cy="2875.9" r="3.9" fill="#e9dabe" opacity="0.056"/><circle cx="605.7" cy="1086.7" r="4" fill="#e9dabe" opacity="0.068"/><circle cx="1801.7" cy="524" r="2.9" fill="#e9dabe" opacity="0.056"/><circle cx="2161.5" cy="519.3" r="2.4" fill="#e9dabe" opacity="0.033"/><circle cx="1781.3" cy="205.6" r="1.7" fill="#e9dabe" opacity="0.078"/><circle cx="1668.4" cy="443" r="4" fill="#e9dabe" opacity="0.073"/><circle cx="105.3" cy="735.4" r="1.7" fill="#e9dabe" opacity="0.057"/><circle cx="916.8" cy="620.1" r="3.9" fill="#e9dabe" opacity="0.067"/><circle cx="1082.3" cy="1772.9" r="1.7" fill="#e9dabe" opacity="0.030"/><circle cx="125" cy="2646.2" r="3.5" fill="#e9dabe" opacity="0.031"/><circle cx="1975.3" cy="1521.9" r="2.6" fill="#e9dabe" opacity="0.065"/><circle cx="1782" cy="411.4" r="3.3" fill="#e9dabe" opacity="0.074"/><circle cx="738" cy="566.8" r="4.2" fill="#e9dabe" opacity="0.067"/><circle cx="901.2" cy="1737.4" r="1.5" fill="#e9dabe" opacity="0.040"/><circle cx="256.7" cy="1988.4" r="3.8" fill="#e9dabe" opacity="0.050"/><circle cx="1826.5" cy="1427.7" r="3.7" fill="#e9dabe" opacity="0.048"/><circle cx="235.7" cy="257.7" r="4.2" fill="#e9dabe" opacity="0.077"/><circle cx="1055.5" cy="2214.3" r="4.3" fill="#e9dabe" opacity="0.031"/><circle cx="1207.3" cy="1773" r="4.3" fill="#e9dabe" opacity="0.063"/><circle cx="2355.4" cy="433.8" r="2.2" fill="#e9dabe" opacity="0.060"/><circle cx="1224.6" cy="2236.1" r="4" fill="#e9dabe" opacity="0.058"/><circle cx="280.2" cy="1745.3" r="1.8" fill="#e9dabe" opacity="0.077"/><circle cx="1979.9" cy="609.8" r="4" fill="#e9dabe" opacity="0.031"/><circle cx="58.7" cy="2024.4" r="3" fill="#e9dabe" opacity="0.052"/><circle cx="82.3" cy="1782.6" r="2.9" fill="#e9dabe" opacity="0.055"/><rect x="190" y="190" width="2020" height="2620" fill="none" stroke="#e9dabe" stroke-width="14"/><rect x="260" y="260" width="1880" height="2480" fill="none" stroke="#e9dabe" stroke-width="7"/><rect x="148" y="148" width="84" height="84" fill="#c98f4e"/><rect x="148" y="2768" width="84" height="84" fill="#c98f4e"/><rect x="2168" y="148" width="84" height="84" fill="#c98f4e"/><rect x="2168" y="2768" width="84" height="84" fill="#c98f4e"/><circle cx="1200" cy="1300" r="210" fill="#c98f4e"/><circle cx="1200" cy="1300" r="252" fill="none" stroke="#e9dabe" stroke-width="18"/><line x1="1040" y1="1320" x2="182.1" y2="1290" stroke="#e9dabe" stroke-width="34" stroke-linecap="round"/><line x1="1040" y1="1320" x2="198.8" y2="1230.6" stroke="#e9dabe" stroke-width="34" stroke-linecap="round"/><line x1="1040" y1="1320" x2="231.9" y2="1172.9" stroke="#e9dabe" stroke-width="34" stroke-linecap="round"/><line x1="1040" y1="1320" x2="280.7" y2="1118.1" stroke="#e9dabe" stroke-width="34" stroke-linecap="round"/><line x1="1040" y1="1320" x2="344.2" y2="1067.3" stroke="#e9dabe" stroke-width="34" stroke-linecap="round"/><line x1="1040" y1="1320" x2="421.4" y2="1021.3" stroke="#e9dabe" stroke-width="34" stroke-linecap="round"/><line x1="1040" y1="1320" x2="510.5" y2="981.2" stroke="#e9dabe" stroke-width="34" stroke-linecap="round"/><line x1="1040" y1="1320" x2="610" y2="947.6" stroke="#e9dabe" stroke-width="34" stroke-linecap="round"/><line x1="1040" y1="1320" x2="361.7" y2="1296.3" stroke="#e9dabe" stroke-width="30" stroke-linecap="round"/><line x1="1040" y1="1320" x2="374.9" y2="1249.3" stroke="#e9dabe" stroke-width="30" stroke-linecap="round"/><line x1="1040" y1="1320" x2="401" y2="1203.7" stroke="#e9dabe" stroke-width="30" stroke-linecap="round"/><line x1="1040" y1="1320" x2="439.6" y2="1160.4" stroke="#e9dabe" stroke-width="30" stroke-linecap="round"/><line x1="1040" y1="1320" x2="489.9" y2="1120.2" stroke="#e9dabe" stroke-width="30" stroke-linecap="round"/><line x1="1040" y1="1320" x2="550.8" y2="1083.8" stroke="#e9dabe" stroke-width="30" stroke-linecap="round"/><line x1="1040" y1="1320" x2="621.4" y2="1052.1" stroke="#e9dabe" stroke-width="30" stroke-linecap="round"/><line x1="1040" y1="1320" x2="700" y2="1025.6" stroke="#e9dabe" stroke-width="30" stroke-linecap="round"/><line x1="1040" y1="1320" x2="541.2" y2="1302.6" stroke="#e9dabe" stroke-width="26" stroke-linecap="round"/><line x1="1040" y1="1320" x2="550.9" y2="1268" stroke="#e9dabe" stroke-width="26" stroke-linecap="round"/><line x1="1040" y1="1320" x2="570.2" y2="1234.5" stroke="#e9dabe" stroke-width="26" stroke-linecap="round"/><line x1="1040" y1="1320" x2="598.5" y2="1202.6" stroke="#e9dabe" stroke-width="26" stroke-linecap="round"/><line x1="1040" y1="1320" x2="635.5" y2="1173.1" stroke="#e9dabe" stroke-width="26" stroke-linecap="round"/><line x1="1040" y1="1320" x2="680.3" y2="1146.3" stroke="#e9dabe" stroke-width="26" stroke-linecap="round"/><line x1="1040" y1="1320" x2="732.2" y2="1123" stroke="#e9dabe" stroke-width="26" stroke-linecap="round"/><line x1="1040" y1="1320" x2="790" y2="1103.5" stroke="#e9dabe" stroke-width="26" stroke-linecap="round"/><path d="M1070,1500 q -40,260 -200,380" fill="none" stroke="#e9dabe" stroke-width="30" stroke-linecap="round"/><line x1="1360" y1="1320" x2="2217.9" y2="1290" stroke="#e9dabe" stroke-width="34" stroke-linecap="round"/><line x1="1360" y1="1320" x2="2201.2" y2="1230.6" stroke="#e9dabe" stroke-width="34" stroke-linecap="round"/><line x1="1360" y1="1320" x2="2168.1" y2="1172.9" stroke="#e9dabe" stroke-width="34" stroke-linecap="round"/><line x1="1360" y1="1320" x2="2119.3" y2="1118.1" stroke="#e9dabe" stroke-width="34" stroke-linecap="round"/><line x1="1360" y1="1320" x2="2055.8" y2="1067.3" stroke="#e9dabe" stroke-width="34" stroke-linecap="round"/><line x1="1360" y1="1320" x2="1978.6" y2="1021.3" stroke="#e9dabe" stroke-width="34" stroke-linecap="round"/><line x1="1360" y1="1320" x2="1889.5" y2="981.2" stroke="#e9dabe" stroke-width="34" stroke-linecap="round"/><line x1="1360" y1="1320" x2="1790" y2="947.6" stroke="#e9dabe" stroke-width="34" stroke-linecap="round"/><line x1="1360" y1="1320" x2="2038.3" y2="1296.3" stroke="#e9dabe" stroke-width="30" stroke-linecap="round"/><line x1="1360" y1="1320" x2="2025.1" y2="1249.3" stroke="#e9dabe" stroke-width="30" stroke-linecap="round"/><line x1="1360" y1="1320" x2="1999" y2="1203.7" stroke="#e9dabe" stroke-width="30" stroke-linecap="round"/><line x1="1360" y1="1320" x2="1960.4" y2="1160.4" stroke="#e9dabe" stroke-width="30" stroke-linecap="round"/><line x1="1360" y1="1320" x2="1910.1" y2="1120.2" stroke="#e9dabe" stroke-width="30" stroke-linecap="round"/><line x1="1360" y1="1320" x2="1849.2" y2="1083.8" stroke="#e9dabe" stroke-width="30" stroke-linecap="round"/><line x1="1360" y1="1320" x2="1778.6" y2="1052.1" stroke="#e9dabe" stroke-width="30" stroke-linecap="round"/><line x1="1360" y1="1320" x2="1700" y2="1025.6" stroke="#e9dabe" stroke-width="30" stroke-linecap="round"/><line x1="1360" y1="1320" x2="1858.8" y2="1302.6" stroke="#e9dabe" stroke-width="26" stroke-linecap="round"/><line x1="1360" y1="1320" x2="1849.1" y2="1268" stroke="#e9dabe" stroke-width="26" stroke-linecap="round"/><line x1="1360" y1="1320" x2="1829.8" y2="1234.5" stroke="#e9dabe" stroke-width="26" stroke-linecap="round"/><line x1="1360" y1="1320" x2="1801.5" y2="1202.6" stroke="#e9dabe" stroke-width="26" stroke-linecap="round"/><line x1="1360" y1="1320" x2="1764.5" y2="1173.1" stroke="#e9dabe" stroke-width="26" stroke-linecap="round"/><line x1="1360" y1="1320" x2="1719.7" y2="1146.3" stroke="#e9dabe" stroke-width="26" stroke-linecap="round"/><line x1="1360" y1="1320" x2="1667.8" y2="1123" stroke="#e9dabe" stroke-width="26" stroke-linecap="round"/><line x1="1360" y1="1320" x2="1610" y2="1103.5" stroke="#e9dabe" stroke-width="26" stroke-linecap="round"/><path d="M1330,1500 q 40,260 200,380" fill="none" stroke="#e9dabe" stroke-width="30" stroke-linecap="round"/><polygon points="874.3,2458.2 884.8,2484.8 911.4,2495.3 884.8,2505.8 874.3,2532.4 863.8,2505.8 837.2,2495.3 863.8,2484.8 " fill="#c98f4e"/><polygon points="1912.5,2421.4 1922.1,2445.8 1946.5,2455.4 1922.1,2465 1912.5,2489.3 1902.9,2465 1878.6,2455.4 1902.9,2445.8 " fill="#c98f4e"/><polygon points="1264.7,2455.8 1272.9,2476.8 1293.9,2485.1 1272.9,2493.3 1264.7,2514.3 1256.4,2493.3 1235.5,2485.1 1256.4,2476.8 " fill="#c98f4e"/><polygon points="1837.7,2439.1 1845.3,2458.4 1864.6,2466.1 1845.3,2473.7 1837.7,2493 1830.1,2473.7 1810.8,2466.1 1830.1,2458.4 " fill="#c98f4e"/><polygon points="642.5,461.8 651.3,484.1 673.6,492.9 651.3,501.7 642.5,524 633.7,501.7 611.4,492.9 633.7,484.1 " fill="#c98f4e"/><polygon points="1867.1,2584.1 1876.3,2607.4 1899.6,2616.6 1876.3,2625.7 1867.1,2649 1858,2625.7 1834.7,2616.6 1858,2607.4 " fill="#c98f4e"/><rect x="100" y="100" width="2200" height="2800" fill="none" stroke="#e9dabe" stroke-width="9"/><rect x="142" y="142" width="2116" height="2716" fill="none" stroke="#e9dabe" stroke-width="3" opacity="0.65"/></svg></svg>