<svg xmlns="http://www.w3.org/2000/svg" width="2400" height="1800" viewBox="0 0 2400 1800"><rect width="2400" height="1800" fill="#dfe4dc"/><rect y="1400" width="2400" height="400" fill="#c2a67e"/><line x1="60" y1="1400" x2="10" y2="1800" stroke="#00000015" stroke-width="5"/><line x1="260" y1="1400" x2="210" y2="1800" stroke="#00000015" stroke-width="5"/><line x1="460" y1="1400" x2="410" y2="1800" stroke="#00000015" stroke-width="5"/><line x1="660" y1="1400" x2="610" y2="1800" stroke="#00000015" stroke-width="5"/><line x1="860" y1="1400" x2="810" y2="1800" stroke="#00000015" stroke-width="5"/><line x1="1060" y1="1400" x2="1010" y2="1800" stroke="#00000015" stroke-width="5"/><line x1="1260" y1="1400" x2="1210" y2="1800" stroke="#00000015" stroke-width="5"/><line x1="1460" y1="1400" x2="1410" y2="1800" stroke="#00000015" stroke-width="5"/><line x1="1660" y1="1400" x2="1610" y2="1800" stroke="#00000015" stroke-width="5"/><line x1="1860" y1="1400" x2="1810" y2="1800" stroke="#00000015" stroke-width="5"/><line x1="2060" y1="1400" x2="2010" y2="1800" stroke="#00000015" stroke-width="5"/><line x1="2260" y1="1400" x2="2210" y2="1800" stroke="#00000015" stroke-width="5"/><rect x="180" y="260" width="900" height="620" fill="#8a6a48"/><rect x="215" y="295" width="830" height="550" fill="#41524a"/><line x1="280" y1="420" x2="760" y2="420" stroke="#ffffff66" stroke-width="9" stroke-linecap="round"/><line x1="280" y1="520" x2="620" y2="520" stroke="#ffffff44" stroke-width="9" stroke-linecap="round"/><circle cx="880" cy="560" r="90" fill="none" stroke="#ffffff55" stroke-width="8"/><rect x="215" y="845" width="830" height="22" fill="#6f5436"/><rect x="330" y="1240" width="640" height="60" rx="10" fill="#9c7449"/><rect x="370" y="1300" width="60" height="240" fill="#8a6540"/><rect x="870" y="1300" width="60" height="240" fill="#8a6540"/><rect x="430" y="1160" width="150" height="80" rx="8" fill="#e0a077"/><rect x="450" y="1120" width="150" height="40" rx="8" fill="#4a2c1c"/><circle cx="800" cy="1130" r="86" fill="#7fa3b8"/><path d="M760,1060 Q820,1100 780,1190 M740,1090 Q800,1120 850,1100" stroke="#5d8069" stroke-width="16" fill="none" stroke-linecap="round"/><circle cx="800" cy="1130" r="86" fill="none" stroke="#6b5233" stroke-width="7"/><line x1="800" y1="1216" x2="800" y2="1250" stroke="#6b5233" stroke-width="10"/><rect x="750" y="1244" width="100" height="14" rx="7" fill="#6b5233"/><rect x="1980" y="700" width="300" height="800" fill="#9c7449"/><rect x="2000" y="930" width="260" height="16" fill="#7c5a37"/><rect x="2020" y="790" width="36" height="140" fill="#b3502f"/><rect x="2066" y="802" width="36" height="128" fill="#39685c"/><rect x="2112" y="790" width="36" height="140" fill="#c9a227"/><rect x="2158" y="802" width="36" height="128" fill="#2c4661"/><rect x="2204" y="790" width="36" height="140" fill="#8a4423"/><rect x="2000" y="1180" width="260" height="16" fill="#7c5a37"/><rect x="2020" y="1040" width="36" height="140" fill="#39685c"/><rect x="2066" y="1052" width="36" height="128" fill="#c9a227"/><rect x="2112" y="1040" width="36" height="140" fill="#2c4661"/><rect x="2158" y="1052" width="36" height="128" fill="#8a4423"/><rect x="2204" y="1040" width="36" height="140" fill="#b3502f"/><rect x="2000" y="1430" width="260" height="16" fill="#7c5a37"/><rect x="2020" y="1290" width="36" height="140" fill="#c9a227"/><rect x="2066" y="1302" width="36" height="128" fill="#2c4661"/><rect x="2112" y="1290" width="36" height="140" fill="#8a4423"/><rect x="2158" y="1302" width="36" height="128" fill="#b3502f"/><rect x="2204" y="1290" width="36" height="140" fill="#39685c"/><defs><filter id="a194c-sh" x="-30%" y="-30%" width="160%" height="160%"><feGaussianBlur stdDeviation="16"/></filter></defs><rect x="1340.5" y="298.5" width="517" height="635" fill="#000" opacity="0.28" filter="url(#a194c-sh)"/><rect x="1326.5" y="276.5" width="517" height="635" fill="#3d342a"/><rect x="1341.8" y="291.8" width="486.4" height="604.5" fill="none" stroke="#00000055" stroke-width="3"/><rect x="1350" y="300" width="470" height="588" fill="#f6f2ea"/><svg x="1385.3" y="335.3" width="399.5" height="517.5" viewBox="0 0 2400 3000" preserveAspectRatio="xMidYMid slice"><rect width="2400" height="3000" fill="#211510"/><radialGradient id="a194-vig" cx="50%" cy="42%" r="80%"><stop offset="55%" stop-color="#000" stop-opacity="0"/><stop offset="100%" stop-color="#000" stop-opacity="0.15"/></radialGradient><rect width="2400" height="3000" fill="url(#a194-vig)"/><circle cx="391.6" cy="2266.8" r="1.6" fill="#c8703f" opacity="0.062"/><circle cx="777.7" cy="1910.2" r="4.2" fill="#c8703f" opacity="0.040"/><circle cx="549.6" cy="2684.6" r="2.2" fill="#c8703f" opacity="0.050"/><circle cx="409.2" cy="835.6" r="1.9" fill="#c8703f" opacity="0.069"/><circle cx="1949.9" cy="287.3" r="4.2" fill="#c8703f" opacity="0.067"/><circle cx="1138" cy="2927.8" r="3.4" fill="#c8703f" opacity="0.049"/><circle cx="92" cy="999.5" r="3.3" fill="#c8703f" opacity="0.054"/><circle cx="1083" cy="1958.8" r="3.6" fill="#c8703f" opacity="0.080"/><circle cx="271" cy="2794.4" r="3.9" fill="#c8703f" opacity="0.048"/><circle cx="691.6" cy="2621.4" r="3.5" fill="#c8703f" opacity="0.053"/><circle cx="1958.5" cy="1575.8" r="2.5" fill="#c8703f" opacity="0.050"/><circle cx="1442.3" cy="330.3" r="3.2" fill="#c8703f" opacity="0.044"/><circle cx="1562.2" cy="256.1" r="4" fill="#c8703f" opacity="0.044"/><circle cx="1030.3" cy="2126.4" r="2.2" fill="#c8703f" opacity="0.031"/><circle cx="2117.2" cy="2753.9" r="3.9" fill="#c8703f" opacity="0.055"/><circle cx="110.4" cy="749.5" r="2.3" fill="#c8703f" opacity="0.059"/><circle cx="567.1" cy="1460.5" r="3.4" fill="#c8703f" opacity="0.036"/><circle cx="1308.1" cy="778.6" r="3.1" fill="#c8703f" opacity="0.032"/><circle cx="2326.7" cy="602.4" r="1.7" fill="#c8703f" opacity="0.035"/><circle cx="1947.8" cy="1373.8" r="3.6" fill="#c8703f" opacity="0.037"/><circle cx="2268.9" cy="2212.1" r="3" fill="#c8703f" opacity="0.043"/><circle cx="2222" cy="1547" r="2.7" fill="#c8703f" opacity="0.044"/><circle cx="191.8" cy="2488.8" r="3.5" fill="#c8703f" opacity="0.072"/><circle cx="572.3" cy="99.7" r="2" fill="#c8703f" opacity="0.079"/><circle cx="2334.7" cy="2427.5" r="2.8" fill="#c8703f" opacity="0.032"/><circle cx="264.1" cy="2799.8" r="1.8" fill="#c8703f" opacity="0.048"/><circle cx="1189.4" cy="2641.4" r="3.9" fill="#c8703f" opacity="0.055"/><circle cx="1195.7" cy="480.5" r="4.4" fill="#c8703f" opacity="0.066"/><circle cx="2184.6" cy="644.8" r="2.3" fill="#c8703f" opacity="0.058"/><circle cx="1216.7" cy="445.6" r="3.3" fill="#c8703f" opacity="0.045"/><circle cx="228.2" cy="2253.7" r="3" fill="#c8703f" opacity="0.068"/><circle cx="1591.8" cy="2664.7" r="3.5" fill="#c8703f" opacity="0.055"/><circle cx="803.9" cy="83.3" r="3.9" fill="#c8703f" opacity="0.048"/><circle cx="1363.5" cy="1038.1" r="2.2" fill="#c8703f" opacity="0.032"/><circle cx="1735.2" cy="227.5" r="4.1" fill="#c8703f" opacity="0.060"/><circle cx="176.5" cy="1825.9" r="1.8" fill="#c8703f" opacity="0.050"/><circle cx="1240.4" cy="912.8" r="4.3" fill="#c8703f" opacity="0.034"/><circle cx="1972.4" cy="210.9" r="3.8" fill="#c8703f" opacity="0.063"/><circle cx="1951.6" cy="1501.4" r="4" fill="#c8703f" opacity="0.049"/><circle cx="1543.2" cy="1732.5" r="3.2" fill="#c8703f" opacity="0.045"/><circle cx="1390.4" cy="1447.7" r="2.3" fill="#c8703f" opacity="0.040"/><circle cx="2018.9" cy="2319.2" r="3.7" fill="#c8703f" opacity="0.058"/><circle cx="2012.2" cy="2049.9" r="3.5" fill="#c8703f" opacity="0.038"/><circle cx="542.8" cy="1964.6" r="3.5" fill="#c8703f" opacity="0.050"/><circle cx="343.8" cy="492.3" r="2.5" fill="#c8703f" opacity="0.047"/><circle cx="415.6" cy="2299.2" r="2.1" fill="#c8703f" opacity="0.061"/><circle cx="1720.7" cy="2174.4" r="1.9" fill="#c8703f" opacity="0.039"/><circle cx="757.7" cy="1311.9" r="2.4" fill="#c8703f" opacity="0.036"/><circle cx="1691.1" cy="2262.3" r="2" fill="#c8703f" opacity="0.042"/><circle cx="1523" cy="2912.6" r="1.6" fill="#c8703f" opacity="0.069"/><circle cx="1124.2" cy="722.1" r="1.5" fill="#c8703f" opacity="0.070"/><circle cx="1321.6" cy="2470.8" r="3.4" fill="#c8703f" opacity="0.054"/><circle cx="361.2" cy="212" r="3.8" fill="#c8703f" opacity="0.051"/><circle cx="1226.4" cy="2136" r="2.3" fill="#c8703f" opacity="0.074"/><circle cx="2234.5" cy="2342.6" r="1.8" fill="#c8703f" opacity="0.042"/><circle cx="306.4" cy="381.9" r="2.4" fill="#c8703f" opacity="0.051"/><circle cx="484.8" cy="2089.3" r="4.3" fill="#c8703f" opacity="0.034"/><circle cx="2291.6" cy="1880.5" r="4.5" fill="#c8703f" opacity="0.075"/><circle cx="428.8" cy="1382.2" r="4.2" fill="#c8703f" opacity="0.043"/><circle cx="1024.3" cy="2128.9" r="1.9" fill="#c8703f" opacity="0.058"/><circle cx="1696" cy="656" r="2.8" fill="#c8703f" opacity="0.050"/><circle cx="286.7" cy="2698.2" r="1.9" fill="#c8703f" opacity="0.047"/><circle cx="239.4" cy="1031.5" r="2.6" fill="#c8703f" opacity="0.034"/><circle cx="161.4" cy="546.6" r="1.6" fill="#c8703f" opacity="0.041"/><circle cx="477.1" cy="731" r="4.3" fill="#c8703f" opacity="0.054"/><circle cx="300.6" cy="2703.8" r="4.1" fill="#c8703f" opacity="0.061"/><circle cx="1567" cy="379.7" r="2.4" fill="#c8703f" opacity="0.055"/><circle cx="222.2" cy="1957" r="3.7" fill="#c8703f" opacity="0.054"/><circle cx="2312.3" cy="658.7" r="3.8" fill="#c8703f" opacity="0.055"/><circle cx="84.7" cy="540.7" r="2" fill="#c8703f" opacity="0.052"/><circle cx="265.3" cy="528.9" r="2.7" fill="#c8703f" opacity="0.032"/><circle cx="1386.9" cy="2106.5" r="2.6" fill="#c8703f" opacity="0.061"/><circle cx="1082.1" cy="1663.1" r="3.6" fill="#c8703f" opacity="0.079"/><circle cx="574.6" cy="501.1" r="3.8" fill="#c8703f" opacity="0.079"/><circle cx="268" cy="1481.5" r="3.6" fill="#c8703f" opacity="0.036"/><circle cx="1795.6" cy="1227.5" r="2.8" fill="#c8703f" opacity="0.068"/><circle cx="532.7" cy="2016.3" r="3.3" fill="#c8703f" opacity="0.074"/><circle cx="705" cy="1289.9" r="3.7" fill="#c8703f" opacity="0.040"/><circle cx="466.2" cy="2806.1" r="2.6" fill="#c8703f" opacity="0.054"/><circle cx="1079.9" cy="2566.9" r="4.2" fill="#c8703f" opacity="0.080"/><circle cx="1200" cy="1420" r="900" fill="none" stroke="#c8703f" stroke-width="12"/><line x1="2066" y1="1420" x2="2100" y2="1420" stroke="#c8703f" stroke-width="8"/><line x1="2058.6" y1="1533" x2="2092.3" y2="1537.5" stroke="#c8703f" stroke-width="8"/><line x1="2036.5" y1="1644.1" x2="2069.3" y2="1652.9" stroke="#c8703f" stroke-width="8"/><line x1="2000.1" y1="1751.4" x2="2031.5" y2="1764.4" stroke="#c8703f" stroke-width="8"/><line x1="1950" y1="1853" x2="1979.4" y2="1870" stroke="#c8703f" stroke-width="8"/><line x1="1887" y1="1947.2" x2="1914" y2="1967.9" stroke="#c8703f" stroke-width="8"/><line x1="1812.4" y1="2032.4" x2="1836.4" y2="2056.4" stroke="#c8703f" stroke-width="8"/><line x1="1727.2" y1="2107" x2="1747.9" y2="2134" stroke="#c8703f" stroke-width="8"/><line x1="1633" y1="2170" x2="1650" y2="2199.4" stroke="#c8703f" stroke-width="8"/><line x1="1531.4" y1="2220.1" x2="1544.4" y2="2251.5" stroke="#c8703f" stroke-width="8"/><line x1="1424.1" y1="2256.5" x2="1432.9" y2="2289.3" stroke="#c8703f" stroke-width="8"/><line x1="1313" y1="2278.6" x2="1317.5" y2="2312.3" stroke="#c8703f" stroke-width="8"/><line x1="1200" y1="2286" x2="1200" y2="2320" stroke="#c8703f" stroke-width="8"/><line x1="1087" y1="2278.6" x2="1082.5" y2="2312.3" stroke="#c8703f" stroke-width="8"/><line x1="975.9" y1="2256.5" x2="967.1" y2="2289.3" stroke="#c8703f" stroke-width="8"/><line x1="868.6" y1="2220.1" x2="855.6" y2="2251.5" stroke="#c8703f" stroke-width="8"/><line x1="767" y1="2170" x2="750" y2="2199.4" stroke="#c8703f" stroke-width="8"/><line x1="672.8" y1="2107" x2="652.1" y2="2134" stroke="#c8703f" stroke-width="8"/><line x1="587.6" y1="2032.4" x2="563.6" y2="2056.4" stroke="#c8703f" stroke-width="8"/><line x1="513" y1="1947.2" x2="486" y2="1967.9" stroke="#c8703f" stroke-width="8"/><line x1="450" y1="1853" x2="420.6" y2="1870" stroke="#c8703f" stroke-width="8"/><line x1="399.9" y1="1751.4" x2="368.5" y2="1764.4" stroke="#c8703f" stroke-width="8"/><line x1="363.5" y1="1644.1" x2="330.7" y2="1652.9" stroke="#c8703f" stroke-width="8"/><line x1="341.4" y1="1533" x2="307.7" y2="1537.5" stroke="#c8703f" stroke-width="8"/><line x1="334" y1="1420" x2="300" y2="1420" stroke="#c8703f" stroke-width="8"/><line x1="341.4" y1="1307" x2="307.7" y2="1302.5" stroke="#c8703f" stroke-width="8"/><line x1="363.5" y1="1195.9" x2="330.7" y2="1187.1" stroke="#c8703f" stroke-width="8"/><line x1="399.9" y1="1088.6" x2="368.5" y2="1075.6" stroke="#c8703f" stroke-width="8"/><line x1="450" y1="987" x2="420.6" y2="970" stroke="#c8703f" stroke-width="8"/><line x1="513" y1="892.8" x2="486" y2="872.1" stroke="#c8703f" stroke-width="8"/><line x1="587.6" y1="807.6" x2="563.6" y2="783.6" stroke="#c8703f" stroke-width="8"/><line x1="672.8" y1="733" x2="652.1" y2="706" stroke="#c8703f" stroke-width="8"/><line x1="767" y1="670" x2="750" y2="640.6" stroke="#c8703f" stroke-width="8"/><line x1="868.6" y1="619.9" x2="855.6" y2="588.5" stroke="#c8703f" stroke-width="8"/><line x1="975.9" y1="583.5" x2="967.1" y2="550.7" stroke="#c8703f" stroke-width="8"/><line x1="1087" y1="561.4" x2="1082.5" y2="527.7" stroke="#c8703f" stroke-width="8"/><line x1="1200" y1="554" x2="1200" y2="520" stroke="#c8703f" stroke-width="8"/><line x1="1313" y1="561.4" x2="1317.5" y2="527.7" stroke="#c8703f" stroke-width="8"/><line x1="1424.1" y1="583.5" x2="1432.9" y2="550.7" stroke="#c8703f" stroke-width="8"/><line x1="1531.4" y1="619.9" x2="1544.4" y2="588.5" stroke="#c8703f" stroke-width="8"/><line x1="1633" y1="670" x2="1650" y2="640.6" stroke="#c8703f" stroke-width="8"/><line x1="1727.2" y1="733" x2="1747.9" y2="706" stroke="#c8703f" stroke-width="8"/><line x1="1812.4" y1="807.6" x2="1836.4" y2="783.6" stroke="#c8703f" stroke-width="8"/><line x1="1887" y1="892.8" x2="1914" y2="872.1" stroke="#c8703f" stroke-width="8"/><line x1="1950" y1="987" x2="1979.4" y2="970" stroke="#c8703f" stroke-width="8"/><line x1="2000.1" y1="1088.6" x2="2031.5" y2="1075.6" stroke="#c8703f" stroke-width="8"/><line x1="2036.5" y1="1195.9" x2="2069.3" y2="1187.1" stroke="#c8703f" stroke-width="8"/><line x1="2058.6" y1="1307" x2="2092.3" y2="1302.5" stroke="#c8703f" stroke-width="8"/><polygon points="2010,1420 1808.3,1353.3 1808.3,1486.7" fill="#c8703f"/><polygon points="1980,1638.5 1803.8,1519.9 1767.8,1648.4" fill="#e0a077"/><polygon points="1892.1,1840.9 1754.5,1679.1 1685.1,1793.1" fill="#c8703f"/><polygon points="1752.9,2012 1664,1819 1566.5,1910.2" fill="#e0a077"/><polygon points="1572.7,2139.2 1539.1,1929.4 1420.6,1990.9" fill="#c8703f"/><polygon points="1364.8,2213.1 1389.1,2002 1258.4,2029.2" fill="#e0a077"/><polygon points="1144.7,2228.1 1225.1,2031.5 1091.9,2022.4" fill="#c8703f"/><polygon points="928.7,2183.2 1059.2,2015.6 933.4,1970.9" fill="#e0a077"/><polygon points="732.9,2081.7 903.7,1955.5 794.7,1878.5" fill="#c8703f"/><polygon points="571.7,1931.2 770.2,1855.7 686,1752.1" fill="#e0a077"/><polygon points="457.1,1742.7 668.6,1723.6 615.4,1601.2" fill="#c8703f"/><polygon points="397.5,1530.3 606.4,1569 588.2,1436.7" fill="#e0a077"/><polygon points="397.5,1309.7 588.2,1403.3 606.4,1271" fill="#c8703f"/><polygon points="457.1,1097.3 615.4,1238.8 668.6,1116.4" fill="#e0a077"/><polygon points="571.7,908.8 686,1087.9 770.2,984.3" fill="#c8703f"/><polygon points="732.9,758.3 794.7,961.5 903.7,884.5" fill="#e0a077"/><polygon points="928.7,656.8 933.4,869.1 1059.2,824.4" fill="#c8703f"/><polygon points="1144.7,611.9 1091.9,817.6 1225.1,808.5" fill="#e0a077"/><polygon points="1364.8,626.9 1258.4,810.8 1389.1,838" fill="#c8703f"/><polygon points="1572.7,700.8 1420.6,849.1 1539.1,910.6" fill="#e0a077"/><polygon points="1752.9,828 1566.5,929.8 1664,1021" fill="#c8703f"/><polygon points="1892.1,999.1 1685.1,1046.9 1754.5,1160.9" fill="#e0a077"/><polygon points="1980,1201.5 1767.8,1191.6 1803.8,1320.1" fill="#c8703f"/><circle cx="1200" cy="1420" r="558" fill="none" stroke="#c8703f" stroke-width="8"/><path d="M0 0 Q 67.5 -198.4 0 -522 Q -67.5 -198.4 0 0 Z" fill="#e0a077" opacity="0.96" transform="translate(1209.8 1422) rotate(191.3)"/><path d="M0 0 Q 67.5 -198.4 0 -522 Q -67.5 -198.4 0 0 Z" fill="#c8703f" opacity="0.96" transform="translate(1208.3 1425.6) rotate(213.8)"/><path d="M0 0 Q 67.5 -198.4 0 -522 Q -67.5 -198.4 0 0 Z" fill="#e0a077" opacity="0.96" transform="translate(1205.6 1428.3) rotate(236.3)"/><path d="M0 0 Q 67.5 -198.4 0 -522 Q -67.5 -198.4 0 0 Z" fill="#c8703f" opacity="0.96" transform="translate(1202 1429.8) rotate(258.8)"/><path d="M0 0 Q 67.5 -198.4 0 -522 Q -67.5 -198.4 0 0 Z" fill="#e0a077" opacity="0.96" transform="translate(1198 1429.8) rotate(281.3)"/><path d="M0 0 Q 67.5 -198.4 0 -522 Q -67.5 -198.4 0 0 Z" fill="#c8703f" opacity="0.96" transform="translate(1194.4 1428.3) rotate(303.8)"/><path d="M0 0 Q 67.5 -198.4 0 -522 Q -67.5 -198.4 0 0 Z" fill="#e0a077" opacity="0.96" transform="translate(1191.7 1425.6) rotate(326.3)"/><path d="M0 0 Q 67.5 -198.4 0 -522 Q -67.5 -198.4 0 0 Z" fill="#c8703f" opacity="0.96" transform="translate(1190.2 1422) rotate(348.8)"/><path d="M0 0 Q 67.5 -198.4 0 -522 Q -67.5 -198.4 0 0 Z" fill="#e0a077" opacity="0.96" transform="translate(1190.2 1418) rotate(371.3)"/><path d="M0 0 Q 67.5 -198.4 0 -522 Q -67.5 -198.4 0 0 Z" fill="#c8703f" opacity="0.96" transform="translate(1191.7 1414.4) rotate(393.8)"/><path d="M0 0 Q 67.5 -198.4 0 -522 Q -67.5 -198.4 0 0 Z" fill="#e0a077" opacity="0.96" transform="translate(1194.4 1411.7) rotate(416.3)"/><path d="M0 0 Q 67.5 -198.4 0 -522 Q -67.5 -198.4 0 0 Z" fill="#c8703f" opacity="0.96" transform="translate(1198 1410.2) rotate(438.8)"/><path d="M0 0 Q 67.5 -198.4 0 -522 Q -67.5 -198.4 0 0 Z" fill="#e0a077" opacity="0.96" transform="translate(1202 1410.2) rotate(461.3)"/><path d="M0 0 Q 67.5 -198.4 0 -522 Q -67.5 -198.4 0 0 Z" fill="#c8703f" opacity="0.96" transform="translate(1205.6 1411.7) rotate(483.8)"/><path d="M0 0 Q 67.5 -198.4 0 -522 Q -67.5 -198.4 0 0 Z" fill="#e0a077" opacity="0.96" transform="translate(1208.3 1414.4) rotate(506.3)"/><path d="M0 0 Q 67.5 -198.4 0 -522 Q -67.5 -198.4 0 0 Z" fill="#c8703f" opacity="0.96" transform="translate(1209.8 1418) rotate(528.8)"/><path d="M0 0 Q 76.5 -116.3 0 -306 Q -76.5 -116.3 0 0 Z" fill="#4a2c1c" opacity="0.98" transform="translate(1200 1420) rotate(180)"/><path d="M0 0 Q 76.5 -116.3 0 -306 Q -76.5 -116.3 0 0 Z" fill="#4a2c1c" opacity="0.98" transform="translate(1200 1420) rotate(225)"/><path d="M0 0 Q 76.5 -116.3 0 -306 Q -76.5 -116.3 0 0 Z" fill="#4a2c1c" opacity="0.98" transform="translate(1200 1420) rotate(270)"/><path d="M0 0 Q 76.5 -116.3 0 -306 Q -76.5 -116.3 0 0 Z" fill="#4a2c1c" opacity="0.98" transform="translate(1200 1420) rotate(315)"/><path d="M0 0 Q 76.5 -116.3 0 -306 Q -76.5 -116.3 0 0 Z" fill="#4a2c1c" opacity="0.98" transform="translate(1200 1420) rotate(360)"/><path d="M0 0 Q 76.5 -116.3 0 -306 Q -76.5 -116.3 0 0 Z" fill="#4a2c1c" opacity="0.98" transform="translate(1200 1420) rotate(405)"/><path d="M0 0 Q 76.5 -116.3 0 -306 Q -76.5 -116.3 0 0 Z" fill="#4a2c1c" opacity="0.98" transform="translate(1200 1420) rotate(450)"/><path d="M0 0 Q 76.5 -116.3 0 -306 Q -76.5 -116.3 0 0 Z" fill="#4a2c1c" opacity="0.98" transform="translate(1200 1420) rotate(495)"/><circle cx="1200" cy="1420" r="110" fill="#c8703f"/><circle cx="1200" cy="1420" r="44" fill="#e0a077"/><circle cx="388" cy="208" r="14.6" fill="#c8703f"/><circle cx="444" cy="208" r="14.6" fill="#c8703f"/><circle cx="500" cy="208" r="14.6" fill="#c8703f"/><circle cx="556" cy="208" r="14.6" fill="#c8703f"/><circle cx="612" cy="208" r="14.6" fill="#c8703f"/><circle cx="668" cy="208" r="14.6" fill="#c8703f"/><circle cx="724" cy="208" r="14.6" fill="#c8703f"/><circle cx="780" cy="208" r="14.6" fill="#c8703f"/><circle cx="836" cy="208" r="14.6" fill="#c8703f"/><circle cx="892" cy="208" r="14.6" fill="#c8703f"/><circle cx="948" cy="208" r="14.6" fill="#c8703f"/><circle cx="1004" cy="208" r="14.6" fill="#c8703f"/><circle cx="1060" cy="208" r="14.6" fill="#c8703f"/><circle cx="1116" cy="208" r="14.6" fill="#c8703f"/><circle cx="1172" cy="208" r="14.6" fill="#c8703f"/><circle cx="1228" cy="208" r="14.6" fill="#c8703f"/><circle cx="1284" cy="208" r="14.6" fill="#c8703f"/><circle cx="1340" cy="208" r="14.6" fill="#c8703f"/><circle cx="1396" cy="208" r="14.6" fill="#c8703f"/><circle cx="1452" cy="208" r="14.6" fill="#c8703f"/><circle cx="1508" cy="208" r="14.6" fill="#c8703f"/><circle cx="1564" cy="208" r="14.6" fill="#c8703f"/><circle cx="1620" cy="208" r="14.6" fill="#c8703f"/><circle cx="1676" cy="208" r="14.6" fill="#c8703f"/><circle cx="1732" cy="208" r="14.6" fill="#c8703f"/><circle cx="1788" cy="208" r="14.6" fill="#c8703f"/><circle cx="1844" cy="208" r="14.6" fill="#c8703f"/><circle cx="1900" cy="208" r="14.6" fill="#c8703f"/><circle cx="1956" cy="208" r="14.6" fill="#c8703f"/><circle cx="2012" cy="208" r="14.6" fill="#c8703f"/><circle cx="388" cy="2792" r="14.6" fill="#c8703f"/><circle cx="444" cy="2792" r="14.6" fill="#c8703f"/><circle cx="500" cy="2792" r="14.6" fill="#c8703f"/><circle cx="556" cy="2792" r="14.6" fill="#c8703f"/><circle cx="612" cy="2792" r="14.6" fill="#c8703f"/><circle cx="668" cy="2792" r="14.6" fill="#c8703f"/><circle cx="724" cy="2792" r="14.6" fill="#c8703f"/><circle cx="780" cy="2792" r="14.6" fill="#c8703f"/><circle cx="836" cy="2792" r="14.6" fill="#c8703f"/><circle cx="892" cy="2792" r="14.6" fill="#c8703f"/><circle cx="948" cy="2792" r="14.6" fill="#c8703f"/><circle cx="1004" cy="2792" r="14.6" fill="#c8703f"/><circle cx="1060" cy="2792" r="14.6" fill="#c8703f"/><circle cx="1116" cy="2792" r="14.6" fill="#c8703f"/><circle cx="1172" cy="2792" r="14.6" fill="#c8703f"/><circle cx="1228" cy="2792" r="14.6" fill="#c8703f"/><circle cx="1284" cy="2792" r="14.6" fill="#c8703f"/><circle cx="1340" cy="2792" r="14.6" fill="#c8703f"/><circle cx="1396" cy="2792" r="14.6" fill="#c8703f"/><circle cx="1452" cy="2792" r="14.6" fill="#c8703f"/><circle cx="1508" cy="2792" r="14.6" fill="#c8703f"/><circle cx="1564" cy="2792" r="14.6" fill="#c8703f"/><circle cx="1620" cy="2792" r="14.6" fill="#c8703f"/><circle cx="1676" cy="2792" r="14.6" fill="#c8703f"/><circle cx="1732" cy="2792" r="14.6" fill="#c8703f"/><circle cx="1788" cy="2792" r="14.6" fill="#c8703f"/><circle cx="1844" cy="2792" r="14.6" fill="#c8703f"/><circle cx="1900" cy="2792" r="14.6" fill="#c8703f"/><circle cx="1956" cy="2792" r="14.6" fill="#c8703f"/><circle cx="2012" cy="2792" r="14.6" fill="#c8703f"/><rect x="100" y="100" width="2200" height="2800" fill="none" stroke="#c8703f" stroke-width="9"/><rect x="142" y="142" width="2116" height="2716" fill="none" stroke="#c8703f" stroke-width="3" opacity="0.65"/></svg></svg>