<svg xmlns="http://www.w3.org/2000/svg" width="2400" height="1800" viewBox="0 0 2400 1800"><rect width="2400" height="1800" fill="#e8e2d6"/><rect y="1420" width="2400" height="380" fill="#cbb597"/><ellipse cx="1200" cy="1640" rx="760" ry="130" fill="#b09a75" opacity="0.55"/><ellipse cx="1200" cy="1640" rx="600" ry="96" fill="none" stroke="#96603a" stroke-width="10" opacity="0.5"/><rect x="700" y="1120" width="1000" height="300" rx="40" fill="#97a08c"/><rect x="640" y="1060" width="120" height="380" rx="40" fill="#87907c"/><rect x="1640" y="1060" width="120" height="380" rx="40" fill="#87907c"/><rect x="740" y="1010" width="920" height="180" rx="36" fill="#a3ac97"/><rect x="800" y="1060" width="240" height="160" rx="30" fill="#96603a"/><rect x="1380" y="1060" width="240" height="160" rx="30" fill="#b09a75"/><rect x="700" y="1420" width="26" height="120" fill="#6f6353"/><rect x="1674" y="1420" width="26" height="120" fill="#6f6353"/><path d="M360,1520 Q330,820 800,880" fill="none" stroke="#4c4438" stroke-width="16"/><path d="M760,870 L840,880 L810,960 L770,955 Z" fill="#4c4438"/><rect x="300" y="1510" width="130" height="20" rx="10" fill="#4c4438"/><path d="M2080,1500 Q 1918,1243.5 1837,1311" fill="none" stroke="#5d7052" stroke-width="21.6" stroke-linecap="round"/><path d="M2080,1500 Q 1972,1243.5 1918,1257" fill="none" stroke="#5d7052" stroke-width="21.6" stroke-linecap="round"/><path d="M2080,1500 Q 2026,1243.5 1999,1203" fill="none" stroke="#5d7052" stroke-width="21.6" stroke-linecap="round"/><path d="M2080,1500 Q 2080,1243.5 2080,1149" fill="none" stroke="#5d7052" stroke-width="21.6" stroke-linecap="round"/><path d="M2080,1500 Q 2134,1243.5 2161,1203" fill="none" stroke="#5d7052" stroke-width="21.6" stroke-linecap="round"/><path d="M2080,1500 Q 2188,1243.5 2242,1257" fill="none" stroke="#5d7052" stroke-width="21.6" stroke-linecap="round"/><path d="M2080,1500 Q 2242,1243.5 2323,1311" fill="none" stroke="#5d7052" stroke-width="21.6" stroke-linecap="round"/><path d="M1985.5,1500 L2174.5,1500 L2150.2,1648.5 L2009.8,1648.5 Z" fill="#a9714d"/><defs><filter id="a147l-sh" x="-30%" y="-30%" width="160%" height="160%"><feGaussianBlur stdDeviation="16"/></filter></defs><rect x="939" y="217" width="550" height="675" fill="#000" opacity="0.28" filter="url(#a147l-sh)"/><rect x="925" y="195" width="550" height="675" fill="#2e2823"/><rect x="941.3" y="211.3" width="517.5" height="642.5" fill="none" stroke="#00000055" stroke-width="3"/><rect x="950" y="220" width="500" height="625" fill="#f6f2ea"/><svg x="987.5" y="257.5" width="425" height="550" viewBox="0 0 2400 3000" preserveAspectRatio="xMidYMid slice"><filter id="a147-warp" x="-4%" y="-4%" width="108%" height="108%"><feTurbulence type="fractalNoise" baseFrequency="0.0105" numOctaves="2" seed="5113" result="w"/><feDisplacementMap in="SourceGraphic" in2="w" scale="7" xChannelSelector="R" yChannelSelector="G"/></filter><filter id="a147-grain" x="0%" y="0%" width="100%" height="100%"><feTurbulence type="fractalNoise" baseFrequency="0.6" numOctaves="2" seed="5120"/><feColorMatrix type="matrix" values="0.33 0.33 0.33 0 0.62  0.33 0.33 0.33 0 0.62  0.33 0.33 0.33 0 0.62  0 0 0 0 1"/></filter><filter id="a147-mottle" x="0%" y="0%" width="100%" height="100%"><feTurbulence type="fractalNoise" baseFrequency="0.0045" numOctaves="3" seed="5126"/><feColorMatrix type="matrix" values="0.2 0.2 0.2 0 0.78  0.2 0.2 0.2 0 0.78  0.2 0.2 0.2 0 0.78  0 0 0 0 1"/></filter><filter id="a147-fade" x="0%" y="0%" width="100%" height="100%"><feTurbulence type="fractalNoise" baseFrequency="0.006" numOctaves="2" seed="5142"/><feColorMatrix type="matrix" values="0.3 0.3 0.3 0 -0.08  0.3 0.3 0.3 0 -0.08  0.3 0.3 0.3 0 -0.1  0 0 0 0 1"/></filter><filter id="a147-blur9"><feGaussianBlur stdDeviation="9"/></filter><radialGradient id="a147-vig" cx="50%" cy="44%" r="78%"><stop offset="52%" stop-color="#241a10" stop-opacity="0"/><stop offset="100%" stop-color="#241a10" stop-opacity="0.17"/></radialGradient><radialGradient id="a147-warm" cx="63%" cy="30%" r="85%"><stop offset="0%" stop-color="#e8c890" stop-opacity="0.14"/><stop offset="70%" stop-color="#e8c890" stop-opacity="0"/></radialGradient><rect width="2400" height="3000" fill="#e8dcc0"/><rect width="2400" height="3000" fill="url(#a147-warm)"/><g filter="url(#a147-warp)"><circle cx="863.5" cy="942" r="348.6" fill="#96603a" opacity="0.95"/><line x1="200" y1="2430" x2="2200" y2="2430" stroke="#3d2f1c" stroke-width="16"/><rect x="610" y="2340" width="440" height="90" fill="#3d2f1c"/><rect x="671.6" y="2260" width="316.8" height="80" fill="#3d2f1c"/><path d="M720,2260 L761.8,962.2 L898.2,962.2 L940,2260 Z" fill="#3d2f1c"/><polygon points="830,812.2 761.8,964.2 898.2,964.2" fill="#96603a"/><polyline points="784,1086.2 807,1060.2 830,1086.2 853,1060.2 876,1086.2 " fill="none" stroke="#e8dcc0" stroke-width="4.7" stroke-linejoin="miter"/><polyline points="784,1196.2 807,1170.2 830,1196.2 853,1170.2 876,1196.2 " fill="none" stroke="#e8dcc0" stroke-width="4.7" stroke-linejoin="miter"/><circle cx="830" cy="1292.2" r="18.400000000000002" fill="none" stroke="#e8dcc0" stroke-width="10" opacity="0.9"/><line x1="830" y1="1310.6" x2="830" y2="1338.2" stroke="#e8dcc0" stroke-width="10" opacity="0.9"/><rect x="807" y="1394.2" width="46" height="16" fill="#e8dcc0" opacity="0.9"/><polyline points="784,1526.2 807,1500.2 830,1526.2 853,1500.2 876,1526.2 " fill="none" stroke="#e8dcc0" stroke-width="4.7" stroke-linejoin="miter"/><circle cx="830" cy="1622.2" r="18.400000000000002" fill="none" stroke="#e8dcc0" stroke-width="10" opacity="0.9"/><line x1="830" y1="1640.6" x2="830" y2="1668.2" stroke="#e8dcc0" stroke-width="10" opacity="0.9"/><circle cx="830" cy="1732.2" r="19.32" fill="#e8dcc0" opacity="0.9"/><circle cx="830" cy="1842.2" r="18.400000000000002" fill="none" stroke="#e8dcc0" stroke-width="10" opacity="0.9"/><line x1="830" y1="1860.6" x2="830" y2="1888.2" stroke="#e8dcc0" stroke-width="10" opacity="0.9"/><polyline points="784,1966.2 807,1940.2 830,1966.2 853,1940.2 876,1966.2 " fill="none" stroke="#e8dcc0" stroke-width="4.7" stroke-linejoin="miter"/><circle cx="830" cy="2062.2" r="19.32" fill="#e8dcc0" opacity="0.9"/><rect x="1350" y="2340" width="440" height="90" fill="#3d2f1c"/><rect x="1411.6" y="2260" width="316.8" height="80" fill="#3d2f1c"/><path d="M1460,2260 L1501.8,1140.3 L1638.2,1140.3 L1680,2260 Z" fill="#3d2f1c"/><polygon points="1570,990.3 1501.8,1142.3 1638.2,1142.3" fill="#96603a"/><polyline points="1524,1264.3 1547,1238.3 1570,1264.3 1593,1238.3 1616,1264.3 " fill="none" stroke="#e8dcc0" stroke-width="4.7" stroke-linejoin="miter"/><rect x="1547" y="1352.3" width="46" height="16" fill="#e8dcc0" opacity="0.9"/><polyline points="1524,1484.3 1547,1458.3 1570,1484.3 1593,1458.3 1616,1484.3 " fill="none" stroke="#e8dcc0" stroke-width="4.7" stroke-linejoin="miter"/><polyline points="1524,1594.3 1547,1568.3 1570,1594.3 1593,1568.3 1616,1594.3 " fill="none" stroke="#e8dcc0" stroke-width="4.7" stroke-linejoin="miter"/><polyline points="1524,1704.3 1547,1678.3 1570,1704.3 1593,1678.3 1616,1704.3 " fill="none" stroke="#e8dcc0" stroke-width="4.7" stroke-linejoin="miter"/><polygon points="1570,1777.3 1547,1823.3 1593,1823.3" fill="#e8dcc0" opacity="0.9"/><polyline points="1524,1924.3 1547,1898.3 1570,1924.3 1593,1898.3 1616,1924.3 " fill="none" stroke="#e8dcc0" stroke-width="4.7" stroke-linejoin="miter"/><polygon points="1570,1997.3 1547,2043.3 1593,2043.3" fill="#e8dcc0" opacity="0.9"/><rect x="200" y="2770" width="2000" height="13.3" fill="#3d2f1c"/><rect x="200" y="2782.8" width="2000" height="13.3" fill="#96603a"/><rect x="200" y="2795.6" width="2000" height="13.3" fill="#3d2f1c"/><rect x="200" y="2808.4" width="2000" height="13.3" fill="#b09a75"/><rect x="200" y="2821.2" width="2000" height="13.3" fill="#3d2f1c"/><rect x="130" y="130" width="2140" height="2740" fill="none" stroke="#3d2f1c" stroke-width="5"/><rect x="152" y="152" width="2096" height="2696" fill="none" stroke="#3d2f1c" stroke-width="2.5" opacity="0.8"/></g><rect width="2400" height="3000" filter="url(#a147-mottle)" style="mix-blend-mode:multiply" opacity="0.5"/><rect width="2400" height="3000" filter="url(#a147-fade)" style="mix-blend-mode:screen" opacity="0.55"/><rect width="2400" height="3000" filter="url(#a147-grain)" style="mix-blend-mode:multiply" opacity="0.32"/><ellipse cx="1677.4" cy="1821.6" rx="227" ry="197.5" fill="#6b4a22" opacity="0.046" filter="url(#a147-blur9)"/><ellipse cx="324.5" cy="1433.6" rx="238.2" ry="243.8" fill="#6b4a22" opacity="0.067" filter="url(#a147-blur9)"/><ellipse cx="1327.8" cy="2098.2" rx="307.5" ry="265.6" fill="#6b4a22" opacity="0.037" filter="url(#a147-blur9)"/><ellipse cx="1504.3" cy="415.8" rx="279.2" ry="214.2" fill="#6b4a22" opacity="0.054" filter="url(#a147-blur9)"/><g opacity="0.3"><rect y="3" width="2400" height="2" fill="#e8dcc0"/><rect y="11" width="2400" height="2" fill="#e8dcc0"/><rect y="19" width="2400" height="2" fill="#e8dcc0"/><rect y="27" width="2400" height="2" fill="#e8dcc0"/><rect y="35" width="2400" height="2" fill="#e8dcc0"/><rect y="43" width="2400" height="2" fill="#e8dcc0"/><rect y="51" width="2400" height="2" fill="#e8dcc0"/><rect y="59" width="2400" height="2" fill="#e8dcc0"/><rect y="67" width="2400" height="2" fill="#e8dcc0"/><rect y="75" width="2400" height="2" fill="#e8dcc0"/><rect y="83" width="2400" height="2" fill="#e8dcc0"/><rect y="91" width="2400" height="2" fill="#e8dcc0"/><rect y="99" width="2400" height="2" fill="#e8dcc0"/><rect y="107" width="2400" height="2" fill="#e8dcc0"/><rect y="115" width="2400" height="2" fill="#e8dcc0"/><rect y="123" width="2400" height="2" fill="#e8dcc0"/><rect y="131" width="2400" height="2" fill="#e8dcc0"/><rect y="139" width="2400" height="2" fill="#e8dcc0"/><rect y="147" width="2400" height="2" fill="#e8dcc0"/><rect y="155" width="2400" height="2" fill="#e8dcc0"/><rect y="163" width="2400" height="2" fill="#e8dcc0"/><rect y="171" width="2400" height="2" fill="#e8dcc0"/><rect y="179" width="2400" height="2" fill="#e8dcc0"/><rect y="187" width="2400" height="2" fill="#e8dcc0"/><rect y="195" width="2400" height="2" fill="#e8dcc0"/><rect y="203" width="2400" height="2" fill="#e8dcc0"/><rect y="211" width="2400" height="2" fill="#e8dcc0"/><rect y="219" width="2400" height="2" fill="#e8dcc0"/><rect y="227" width="2400" height="2" fill="#e8dcc0"/><rect y="235" width="2400" height="2" fill="#e8dcc0"/><rect y="243" width="2400" height="2" fill="#e8dcc0"/><rect y="251" width="2400" height="2" fill="#e8dcc0"/><rect y="259" width="2400" height="2" fill="#e8dcc0"/><rect y="267" width="2400" height="2" fill="#e8dcc0"/><rect y="275" width="2400" height="2" fill="#e8dcc0"/><rect y="283" width="2400" height="2" fill="#e8dcc0"/><rect y="291" width="2400" height="2" fill="#e8dcc0"/><rect y="299" width="2400" height="2" fill="#e8dcc0"/><rect y="307" width="2400" height="2" fill="#e8dcc0"/><rect y="315" width="2400" height="2" fill="#e8dcc0"/><rect y="323" width="2400" height="2" fill="#e8dcc0"/><rect y="331" width="2400" height="2" fill="#e8dcc0"/><rect y="339" width="2400" height="2" fill="#e8dcc0"/><rect y="347" width="2400" height="2" fill="#e8dcc0"/><rect y="355" width="2400" height="2" fill="#e8dcc0"/><rect y="363" width="2400" height="2" fill="#e8dcc0"/><rect y="371" width="2400" height="2" fill="#e8dcc0"/><rect y="379" width="2400" height="2" fill="#e8dcc0"/><rect y="387" width="2400" height="2" fill="#e8dcc0"/><rect y="395" width="2400" height="2" fill="#e8dcc0"/><rect y="403" width="2400" height="2" fill="#e8dcc0"/><rect y="411" width="2400" height="2" fill="#e8dcc0"/><rect y="419" width="2400" height="2" fill="#e8dcc0"/><rect y="427" width="2400" height="2" fill="#e8dcc0"/><rect y="435" width="2400" height="2" fill="#e8dcc0"/><rect y="443" width="2400" height="2" fill="#e8dcc0"/><rect y="451" width="2400" height="2" fill="#e8dcc0"/><rect y="459" width="2400" height="2" fill="#e8dcc0"/><rect y="467" width="2400" height="2" fill="#e8dcc0"/><rect y="475" width="2400" height="2" fill="#e8dcc0"/><rect y="483" width="2400" height="2" fill="#e8dcc0"/><rect y="491" width="2400" height="2" fill="#e8dcc0"/><rect y="499" width="2400" height="2" fill="#e8dcc0"/><rect y="507" width="2400" height="2" fill="#e8dcc0"/><rect y="515" width="2400" height="2" fill="#e8dcc0"/><rect y="523" width="2400" height="2" fill="#e8dcc0"/><rect y="531" width="2400" height="2" fill="#e8dcc0"/><rect y="539" width="2400" height="2" fill="#e8dcc0"/><rect y="547" width="2400" height="2" fill="#e8dcc0"/><rect y="555" width="2400" height="2" fill="#e8dcc0"/><rect y="563" width="2400" height="2" fill="#e8dcc0"/><rect y="571" width="2400" height="2" fill="#e8dcc0"/><rect y="579" width="2400" height="2" fill="#e8dcc0"/><rect y="587" width="2400" height="2" fill="#e8dcc0"/><rect y="595" width="2400" height="2" fill="#e8dcc0"/><rect y="603" width="2400" height="2" fill="#e8dcc0"/><rect y="611" width="2400" height="2" fill="#e8dcc0"/><rect y="619" width="2400" height="2" fill="#e8dcc0"/><rect y="627" width="2400" height="2" fill="#e8dcc0"/><rect y="635" width="2400" height="2" fill="#e8dcc0"/><rect y="643" width="2400" height="2" fill="#e8dcc0"/><rect y="651" width="2400" height="2" fill="#e8dcc0"/><rect y="659" width="2400" height="2" fill="#e8dcc0"/><rect y="667" width="2400" height="2" fill="#e8dcc0"/><rect y="675" width="2400" height="2" fill="#e8dcc0"/><rect y="683" width="2400" height="2" fill="#e8dcc0"/><rect y="691" width="2400" height="2" fill="#e8dcc0"/><rect y="699" width="2400" height="2" fill="#e8dcc0"/><rect y="707" width="2400" height="2" fill="#e8dcc0"/><rect y="715" width="2400" height="2" fill="#e8dcc0"/><rect y="723" width="2400" height="2" fill="#e8dcc0"/><rect y="731" width="2400" height="2" fill="#e8dcc0"/><rect y="739" width="2400" height="2" fill="#e8dcc0"/><rect y="747" width="2400" height="2" fill="#e8dcc0"/><rect y="755" width="2400" height="2" fill="#e8dcc0"/><rect y="763" width="2400" height="2" fill="#e8dcc0"/><rect y="771" width="2400" height="2" fill="#e8dcc0"/><rect y="779" width="2400" height="2" fill="#e8dcc0"/><rect y="787" width="2400" height="2" fill="#e8dcc0"/><rect y="795" width="2400" height="2" fill="#e8dcc0"/><rect y="803" width="2400" height="2" fill="#e8dcc0"/><rect y="811" width="2400" height="2" fill="#e8dcc0"/><rect y="819" width="2400" height="2" fill="#e8dcc0"/><rect y="827" width="2400" height="2" fill="#e8dcc0"/><rect y="835" width="2400" height="2" fill="#e8dcc0"/><rect y="843" width="2400" height="2" fill="#e8dcc0"/><rect y="851" width="2400" height="2" fill="#e8dcc0"/><rect y="859" width="2400" height="2" fill="#e8dcc0"/><rect y="867" width="2400" height="2" fill="#e8dcc0"/><rect y="875" width="2400" height="2" fill="#e8dcc0"/><rect y="883" width="2400" height="2" fill="#e8dcc0"/><rect y="891" width="2400" height="2" fill="#e8dcc0"/><rect y="899" width="2400" height="2" fill="#e8dcc0"/><rect y="907" width="2400" height="2" fill="#e8dcc0"/><rect y="915" width="2400" height="2" fill="#e8dcc0"/><rect y="923" width="2400" height="2" fill="#e8dcc0"/><rect y="931" width="2400" height="2" fill="#e8dcc0"/><rect y="939" width="2400" height="2" fill="#e8dcc0"/><rect y="947" width="2400" height="2" fill="#e8dcc0"/><rect y="955" width="2400" height="2" fill="#e8dcc0"/><rect y="963" width="2400" height="2" fill="#e8dcc0"/><rect y="971" width="2400" height="2" fill="#e8dcc0"/><rect y="979" width="2400" height="2" fill="#e8dcc0"/><rect y="987" width="2400" height="2" fill="#e8dcc0"/><rect y="995" width="2400" height="2" fill="#e8dcc0"/><rect y="1003" width="2400" height="2" fill="#e8dcc0"/><rect y="1011" width="2400" height="2" fill="#e8dcc0"/><rect y="1019" width="2400" height="2" fill="#e8dcc0"/><rect y="1027" width="2400" height="2" fill="#e8dcc0"/><rect y="1035" width="2400" height="2" fill="#e8dcc0"/><rect y="1043" width="2400" height="2" fill="#e8dcc0"/><rect y="1051" width="2400" height="2" fill="#e8dcc0"/><rect y="1059" width="2400" height="2" fill="#e8dcc0"/><rect y="1067" width="2400" height="2" fill="#e8dcc0"/><rect y="1075" width="2400" height="2" fill="#e8dcc0"/><rect y="1083" width="2400" height="2" fill="#e8dcc0"/><rect y="1091" width="2400" height="2" fill="#e8dcc0"/><rect y="1099" width="2400" height="2" fill="#e8dcc0"/><rect y="1107" width="2400" height="2" fill="#e8dcc0"/><rect y="1115" width="2400" height="2" fill="#e8dcc0"/><rect y="1123" width="2400" height="2" fill="#e8dcc0"/><rect y="1131" width="2400" height="2" fill="#e8dcc0"/><rect y="1139" width="2400" height="2" fill="#e8dcc0"/><rect y="1147" width="2400" height="2" fill="#e8dcc0"/><rect y="1155" width="2400" height="2" fill="#e8dcc0"/><rect y="1163" width="2400" height="2" fill="#e8dcc0"/><rect y="1171" width="2400" height="2" fill="#e8dcc0"/><rect y="1179" width="2400" height="2" fill="#e8dcc0"/><rect y="1187" width="2400" height="2" fill="#e8dcc0"/><rect y="1195" width="2400" height="2" fill="#e8dcc0"/><rect y="1203" width="2400" height="2" fill="#e8dcc0"/><rect y="1211" width="2400" height="2" fill="#e8dcc0"/><rect y="1219" width="2400" height="2" fill="#e8dcc0"/><rect y="1227" width="2400" height="2" fill="#e8dcc0"/><rect y="1235" width="2400" height="2" fill="#e8dcc0"/><rect y="1243" width="2400" height="2" fill="#e8dcc0"/><rect y="1251" width="2400" height="2" fill="#e8dcc0"/><rect y="1259" width="2400" height="2" fill="#e8dcc0"/><rect y="1267" width="2400" height="2" fill="#e8dcc0"/><rect y="1275" width="2400" height="2" fill="#e8dcc0"/><rect y="1283" width="2400" height="2" fill="#e8dcc0"/><rect y="1291" width="2400" height="2" fill="#e8dcc0"/><rect y="1299" width="2400" height="2" fill="#e8dcc0"/><rect y="1307" width="2400" height="2" fill="#e8dcc0"/><rect y="1315" width="2400" height="2" fill="#e8dcc0"/><rect y="1323" width="2400" height="2" fill="#e8dcc0"/><rect y="1331" width="2400" height="2" fill="#e8dcc0"/><rect y="1339" width="2400" height="2" fill="#e8dcc0"/><rect y="1347" width="2400" height="2" fill="#e8dcc0"/><rect y="1355" width="2400" height="2" fill="#e8dcc0"/><rect y="1363" width="2400" height="2" fill="#e8dcc0"/><rect y="1371" width="2400" height="2" fill="#e8dcc0"/><rect y="1379" width="2400" height="2" fill="#e8dcc0"/><rect y="1387" width="2400" height="2" fill="#e8dcc0"/><rect y="1395" width="2400" height="2" fill="#e8dcc0"/><rect y="1403" width="2400" height="2" fill="#e8dcc0"/><rect y="1411" width="2400" height="2" fill="#e8dcc0"/><rect y="1419" width="2400" height="2" fill="#e8dcc0"/><rect y="1427" width="2400" height="2" fill="#e8dcc0"/><rect y="1435" width="2400" height="2" fill="#e8dcc0"/><rect y="1443" width="2400" height="2" fill="#e8dcc0"/><rect y="1451" width="2400" height="2" fill="#e8dcc0"/><rect y="1459" width="2400" height="2" fill="#e8dcc0"/><rect y="1467" width="2400" height="2" fill="#e8dcc0"/><rect y="1475" width="2400" height="2" fill="#e8dcc0"/><rect y="1483" width="2400" height="2" fill="#e8dcc0"/><rect y="1491" width="2400" height="2" fill="#e8dcc0"/><rect y="1499" width="2400" height="2" fill="#e8dcc0"/><rect y="1507" width="2400" height="2" fill="#e8dcc0"/><rect y="1515" width="2400" height="2" fill="#e8dcc0"/><rect y="1523" width="2400" height="2" fill="#e8dcc0"/><rect y="1531" width="2400" height="2" fill="#e8dcc0"/><rect y="1539" width="2400" height="2" fill="#e8dcc0"/><rect y="1547" width="2400" height="2" fill="#e8dcc0"/><rect y="1555" width="2400" height="2" fill="#e8dcc0"/><rect y="1563" width="2400" height="2" fill="#e8dcc0"/><rect y="1571" width="2400" height="2" fill="#e8dcc0"/><rect y="1579" width="2400" height="2" fill="#e8dcc0"/><rect y="1587" width="2400" height="2" fill="#e8dcc0"/><rect y="1595" width="2400" height="2" fill="#e8dcc0"/><rect y="1603" width="2400" height="2" fill="#e8dcc0"/><rect y="1611" width="2400" height="2" fill="#e8dcc0"/><rect y="1619" width="2400" height="2" fill="#e8dcc0"/><rect y="1627" width="2400" height="2" fill="#e8dcc0"/><rect y="1635" width="2400" height="2" fill="#e8dcc0"/><rect y="1643" width="2400" height="2" fill="#e8dcc0"/><rect y="1651" width="2400" height="2" fill="#e8dcc0"/><rect y="1659" width="2400" height="2" fill="#e8dcc0"/><rect y="1667" width="2400" height="2" fill="#e8dcc0"/><rect y="1675" width="2400" height="2" fill="#e8dcc0"/><rect y="1683" width="2400" height="2" fill="#e8dcc0"/><rect y="1691" width="2400" height="2" fill="#e8dcc0"/><rect y="1699" width="2400" height="2" fill="#e8dcc0"/><rect y="1707" width="2400" height="2" fill="#e8dcc0"/><rect y="1715" width="2400" height="2" fill="#e8dcc0"/><rect y="1723" width="2400" height="2" fill="#e8dcc0"/><rect y="1731" width="2400" height="2" fill="#e8dcc0"/><rect y="1739" width="2400" height="2" fill="#e8dcc0"/><rect y="1747" width="2400" height="2" fill="#e8dcc0"/><rect y="1755" width="2400" height="2" fill="#e8dcc0"/><rect y="1763" width="2400" height="2" fill="#e8dcc0"/><rect y="1771" width="2400" height="2" fill="#e8dcc0"/><rect y="1779" width="2400" height="2" fill="#e8dcc0"/><rect y="1787" width="2400" height="2" fill="#e8dcc0"/><rect y="1795" width="2400" height="2" fill="#e8dcc0"/><rect y="1803" width="2400" height="2" fill="#e8dcc0"/><rect y="1811" width="2400" height="2" fill="#e8dcc0"/><rect y="1819" width="2400" height="2" fill="#e8dcc0"/><rect y="1827" width="2400" height="2" fill="#e8dcc0"/><rect y="1835" width="2400" height="2" fill="#e8dcc0"/><rect y="1843" width="2400" height="2" fill="#e8dcc0"/><rect y="1851" width="2400" height="2" fill="#e8dcc0"/><rect y="1859" width="2400" height="2" fill="#e8dcc0"/><rect y="1867" width="2400" height="2" fill="#e8dcc0"/><rect y="1875" width="2400" height="2" fill="#e8dcc0"/><rect y="1883" width="2400" height="2" fill="#e8dcc0"/><rect y="1891" width="2400" height="2" fill="#e8dcc0"/><rect y="1899" width="2400" height="2" fill="#e8dcc0"/><rect y="1907" width="2400" height="2" fill="#e8dcc0"/><rect y="1915" width="2400" height="2" fill="#e8dcc0"/><rect y="1923" width="2400" height="2" fill="#e8dcc0"/><rect y="1931" width="2400" height="2" fill="#e8dcc0"/><rect y="1939" width="2400" height="2" fill="#e8dcc0"/><rect y="1947" width="2400" height="2" fill="#e8dcc0"/><rect y="1955" width="2400" height="2" fill="#e8dcc0"/><rect y="1963" width="2400" height="2" fill="#e8dcc0"/><rect y="1971" width="2400" height="2" fill="#e8dcc0"/><rect y="1979" width="2400" height="2" fill="#e8dcc0"/><rect y="1987" width="2400" height="2" fill="#e8dcc0"/><rect y="1995" width="2400" height="2" fill="#e8dcc0"/><rect y="2003" width="2400" height="2" fill="#e8dcc0"/><rect y="2011" width="2400" height="2" fill="#e8dcc0"/><rect y="2019" width="2400" height="2" fill="#e8dcc0"/><rect y="2027" width="2400" height="2" fill="#e8dcc0"/><rect y="2035" width="2400" height="2" fill="#e8dcc0"/><rect y="2043" width="2400" height="2" fill="#e8dcc0"/><rect y="2051" width="2400" height="2" fill="#e8dcc0"/><rect y="2059" width="2400" height="2" fill="#e8dcc0"/><rect y="2067" width="2400" height="2" fill="#e8dcc0"/><rect y="2075" width="2400" height="2" fill="#e8dcc0"/><rect y="2083" width="2400" height="2" fill="#e8dcc0"/><rect y="2091" width="2400" height="2" fill="#e8dcc0"/><rect y="2099" width="2400" height="2" fill="#e8dcc0"/><rect y="2107" width="2400" height="2" fill="#e8dcc0"/><rect y="2115" width="2400" height="2" fill="#e8dcc0"/><rect y="2123" width="2400" height="2" fill="#e8dcc0"/><rect y="2131" width="2400" height="2" fill="#e8dcc0"/><rect y="2139" width="2400" height="2" fill="#e8dcc0"/><rect y="2147" width="2400" height="2" fill="#e8dcc0"/><rect y="2155" width="2400" height="2" fill="#e8dcc0"/><rect y="2163" width="2400" height="2" fill="#e8dcc0"/><rect y="2171" width="2400" height="2" fill="#e8dcc0"/><rect y="2179" width="2400" height="2" fill="#e8dcc0"/><rect y="2187" width="2400" height="2" fill="#e8dcc0"/><rect y="2195" width="2400" height="2" fill="#e8dcc0"/><rect y="2203" width="2400" height="2" fill="#e8dcc0"/><rect y="2211" width="2400" height="2" fill="#e8dcc0"/><rect y="2219" width="2400" height="2" fill="#e8dcc0"/><rect y="2227" width="2400" height="2" fill="#e8dcc0"/><rect y="2235" width="2400" height="2" fill="#e8dcc0"/><rect y="2243" width="2400" height="2" fill="#e8dcc0"/><rect y="2251" width="2400" height="2" fill="#e8dcc0"/><rect y="2259" width="2400" height="2" fill="#e8dcc0"/><rect y="2267" width="2400" height="2" fill="#e8dcc0"/><rect y="2275" width="2400" height="2" fill="#e8dcc0"/><rect y="2283" width="2400" height="2" fill="#e8dcc0"/><rect y="2291" width="2400" height="2" fill="#e8dcc0"/><rect y="2299" width="2400" height="2" fill="#e8dcc0"/><rect y="2307" width="2400" height="2" fill="#e8dcc0"/><rect y="2315" width="2400" height="2" fill="#e8dcc0"/><rect y="2323" width="2400" height="2" fill="#e8dcc0"/><rect y="2331" width="2400" height="2" fill="#e8dcc0"/><rect y="2339" width="2400" height="2" fill="#e8dcc0"/><rect y="2347" width="2400" height="2" fill="#e8dcc0"/><rect y="2355" width="2400" height="2" fill="#e8dcc0"/><rect y="2363" width="2400" height="2" fill="#e8dcc0"/><rect y="2371" width="2400" height="2" fill="#e8dcc0"/><rect y="2379" width="2400" height="2" fill="#e8dcc0"/><rect y="2387" width="2400" height="2" fill="#e8dcc0"/><rect y="2395" width="2400" height="2" fill="#e8dcc0"/><rect y="2403" width="2400" height="2" fill="#e8dcc0"/><rect y="2411" width="2400" height="2" fill="#e8dcc0"/><rect y="2419" width="2400" height="2" fill="#e8dcc0"/><rect y="2427" width="2400" height="2" fill="#e8dcc0"/><rect y="2435" width="2400" height="2" fill="#e8dcc0"/><rect y="2443" width="2400" height="2" fill="#e8dcc0"/><rect y="2451" width="2400" height="2" fill="#e8dcc0"/><rect y="2459" width="2400" height="2" fill="#e8dcc0"/><rect y="2467" width="2400" height="2" fill="#e8dcc0"/><rect y="2475" width="2400" height="2" fill="#e8dcc0"/><rect y="2483" width="2400" height="2" fill="#e8dcc0"/><rect y="2491" width="2400" height="2" fill="#e8dcc0"/><rect y="2499" width="2400" height="2" fill="#e8dcc0"/><rect y="2507" width="2400" height="2" fill="#e8dcc0"/><rect y="2515" width="2400" height="2" fill="#e8dcc0"/><rect y="2523" width="2400" height="2" fill="#e8dcc0"/><rect y="2531" width="2400" height="2" fill="#e8dcc0"/><rect y="2539" width="2400" height="2" fill="#e8dcc0"/><rect y="2547" width="2400" height="2" fill="#e8dcc0"/><rect y="2555" width="2400" height="2" fill="#e8dcc0"/><rect y="2563" width="2400" height="2" fill="#e8dcc0"/><rect y="2571" width="2400" height="2" fill="#e8dcc0"/><rect y="2579" width="2400" height="2" fill="#e8dcc0"/><rect y="2587" width="2400" height="2" fill="#e8dcc0"/><rect y="2595" width="2400" height="2" fill="#e8dcc0"/><rect y="2603" width="2400" height="2" fill="#e8dcc0"/><rect y="2611" width="2400" height="2" fill="#e8dcc0"/><rect y="2619" width="2400" height="2" fill="#e8dcc0"/><rect y="2627" width="2400" height="2" fill="#e8dcc0"/><rect y="2635" width="2400" height="2" fill="#e8dcc0"/><rect y="2643" width="2400" height="2" fill="#e8dcc0"/><rect y="2651" width="2400" height="2" fill="#e8dcc0"/><rect y="2659" width="2400" height="2" fill="#e8dcc0"/><rect y="2667" width="2400" height="2" fill="#e8dcc0"/><rect y="2675" width="2400" height="2" fill="#e8dcc0"/><rect y="2683" width="2400" height="2" fill="#e8dcc0"/><rect y="2691" width="2400" height="2" fill="#e8dcc0"/><rect y="2699" width="2400" height="2" fill="#e8dcc0"/><rect y="2707" width="2400" height="2" fill="#e8dcc0"/><rect y="2715" width="2400" height="2" fill="#e8dcc0"/><rect y="2723" width="2400" height="2" fill="#e8dcc0"/><rect y="2731" width="2400" height="2" fill="#e8dcc0"/><rect y="2739" width="2400" height="2" fill="#e8dcc0"/><rect y="2747" width="2400" height="2" fill="#e8dcc0"/><rect y="2755" width="2400" height="2" fill="#e8dcc0"/><rect y="2763" width="2400" height="2" fill="#e8dcc0"/><rect y="2771" width="2400" height="2" fill="#e8dcc0"/><rect y="2779" width="2400" height="2" fill="#e8dcc0"/><rect y="2787" width="2400" height="2" fill="#e8dcc0"/><rect y="2795" width="2400" height="2" fill="#e8dcc0"/><rect y="2803" width="2400" height="2" fill="#e8dcc0"/><rect y="2811" width="2400" height="2" fill="#e8dcc0"/><rect y="2819" width="2400" height="2" fill="#e8dcc0"/><rect y="2827" width="2400" height="2" fill="#e8dcc0"/><rect y="2835" width="2400" height="2" fill="#e8dcc0"/><rect y="2843" width="2400" height="2" fill="#e8dcc0"/><rect y="2851" width="2400" height="2" fill="#e8dcc0"/><rect y="2859" width="2400" height="2" fill="#e8dcc0"/><rect y="2867" width="2400" height="2" fill="#e8dcc0"/><rect y="2875" width="2400" height="2" fill="#e8dcc0"/><rect y="2883" width="2400" height="2" fill="#e8dcc0"/><rect y="2891" width="2400" height="2" fill="#e8dcc0"/><rect y="2899" width="2400" height="2" fill="#e8dcc0"/><rect y="2907" width="2400" height="2" fill="#e8dcc0"/><rect y="2915" width="2400" height="2" fill="#e8dcc0"/><rect y="2923" width="2400" height="2" fill="#e8dcc0"/><rect y="2931" width="2400" height="2" fill="#e8dcc0"/><rect y="2939" width="2400" height="2" fill="#e8dcc0"/><rect y="2947" width="2400" height="2" fill="#e8dcc0"/><rect y="2955" width="2400" height="2" fill="#e8dcc0"/><rect y="2963" width="2400" height="2" fill="#e8dcc0"/><rect y="2971" width="2400" height="2" fill="#e8dcc0"/><rect y="2979" width="2400" height="2" fill="#e8dcc0"/><rect y="2987" width="2400" height="2" fill="#e8dcc0"/><rect y="2995" width="2400" height="2" fill="#e8dcc0"/></g><rect x="88" y="88" width="2224" height="2824" fill="none" stroke="#3a2c1a" stroke-width="4" opacity="0.2"/><rect x="94" y="94" width="2212" height="2812" fill="none" stroke="#fff6e0" stroke-width="2" opacity="0.25"/><circle cx="1603.8" cy="1159.7" r="4.1" fill="#8a5a2e" opacity="0.059"/><circle cx="718" cy="2249.5" r="6.8" fill="#8a5a2e" opacity="0.098"/><circle cx="2194.8" cy="2056.4" r="13.8" fill="#8a5a2e" opacity="0.050"/><circle cx="1047.5" cy="1212.2" r="6.1" fill="#8a5a2e" opacity="0.042"/><circle cx="1253.2" cy="1372.5" r="15.4" fill="#8a5a2e" opacity="0.075"/><circle cx="472" cy="995.6" r="3.1" fill="#8a5a2e" opacity="0.127"/><circle cx="1342" cy="640.7" r="11.1" fill="#8a5a2e" opacity="0.058"/><circle cx="167.6" cy="2789.8" r="4.6" fill="#8a5a2e" opacity="0.088"/><circle cx="2318.7" cy="2373.6" r="9.1" fill="#8a5a2e" opacity="0.112"/><circle cx="543.5" cy="1370.4" r="5.7" fill="#8a5a2e" opacity="0.098"/><circle cx="2189.3" cy="1004.9" r="3.8" fill="#8a5a2e" opacity="0.083"/><circle cx="2023.3" cy="316.6" r="13.2" fill="#8a5a2e" opacity="0.057"/><circle cx="854.7" cy="1403.3" r="10.2" fill="#8a5a2e" opacity="0.089"/><circle cx="480.1" cy="924.7" r="12.1" fill="#8a5a2e" opacity="0.129"/><circle cx="929.5" cy="765.8" r="12.1" fill="#8a5a2e" opacity="0.077"/><circle cx="1383.8" cy="736.8" r="4.2" fill="#8a5a2e" opacity="0.112"/><circle cx="172.5" cy="1616.1" r="13.3" fill="#8a5a2e" opacity="0.080"/><circle cx="1724.5" cy="1163.4" r="10.4" fill="#8a5a2e" opacity="0.083"/><circle cx="497.9" cy="1821.8" r="4.1" fill="#8a5a2e" opacity="0.046"/><circle cx="1149.3" cy="345.5" r="10.8" fill="#8a5a2e" opacity="0.078"/><circle cx="858.5" cy="1335.4" r="8.2" fill="#8a5a2e" opacity="0.108"/><circle cx="89.3" cy="778" r="11.4" fill="#8a5a2e" opacity="0.064"/><circle cx="620.7" cy="1924.4" r="15.7" fill="#8a5a2e" opacity="0.074"/><circle cx="2050.7" cy="2415.8" r="3.5" fill="#8a5a2e" opacity="0.088"/><circle cx="983.5" cy="769.5" r="3.3" fill="#8a5a2e" opacity="0.067"/><circle cx="1460.1" cy="2197" r="12.4" fill="#8a5a2e" opacity="0.128"/><circle cx="2184" cy="1287.9" r="7.2" fill="#8a5a2e" opacity="0.111"/><circle cx="1529.5" cy="169.2" r="6.7" fill="#8a5a2e" opacity="0.103"/><rect width="2400" height="3000" fill="url(#a147-vig)"/></svg></svg>