<svg xmlns="http://www.w3.org/2000/svg" width="2400" height="1800" viewBox="0 0 2400 1800"><rect width="2400" height="1800" fill="#e3dccd"/><rect x="160" y="240" width="560" height="1060" fill="none" stroke="#cabfa9" stroke-width="10"/><rect x="200" y="280" width="480" height="980" fill="none" stroke="#cabfa9" stroke-width="5"/><rect x="1680" y="240" width="560" height="1060" fill="none" stroke="#cabfa9" stroke-width="10"/><rect x="1720" y="280" width="480" height="980" fill="none" stroke="#cabfa9" stroke-width="5"/><rect y="1380" width="2400" height="420" fill="#a98f6d"/><line x1="0" y1="1380" x2="-70" y2="1800" stroke="#00000018" stroke-width="6"/><line x1="190" y1="1380" x2="120" y2="1800" stroke="#00000018" stroke-width="6"/><line x1="380" y1="1380" x2="310" y2="1800" stroke="#00000018" stroke-width="6"/><line x1="570" y1="1380" x2="500" y2="1800" stroke="#00000018" stroke-width="6"/><line x1="760" y1="1380" x2="690" y2="1800" stroke="#00000018" stroke-width="6"/><line x1="950" y1="1380" x2="880" y2="1800" stroke="#00000018" stroke-width="6"/><line x1="1140" y1="1380" x2="1070" y2="1800" stroke="#00000018" stroke-width="6"/><line x1="1330" y1="1380" x2="1260" y2="1800" stroke="#00000018" stroke-width="6"/><line x1="1520" y1="1380" x2="1450" y2="1800" stroke="#00000018" stroke-width="6"/><line x1="1710" y1="1380" x2="1640" y2="1800" stroke="#00000018" stroke-width="6"/><line x1="1900" y1="1380" x2="1830" y2="1800" stroke="#00000018" stroke-width="6"/><line x1="2090" y1="1380" x2="2020" y2="1800" stroke="#00000018" stroke-width="6"/><line x1="2280" y1="1380" x2="2210" y2="1800" stroke="#00000018" stroke-width="6"/><rect y="1364" width="2400" height="18" fill="#d3c8b2"/><path d="M700,1500 L1700,1500 L1860,1800 L540,1800 Z" fill="#4a7457" opacity="0.75"/><path d="M760,1540 L1640,1540 L1760,1760 L640,1760 Z" fill="none" stroke="#f4ecdd" stroke-width="10" opacity="0.8"/><rect x="880" y="1180" width="640" height="40" rx="8" fill="#6f5436"/><rect x="920" y="1220" width="44" height="240" fill="#5e4629"/><rect x="1436" y="1220" width="44" height="240" fill="#5e4629"/><path d="M1160,1180 q -14,-90 40,-160 M1200,1180 q 4,-120 -10,-200 M1230,1180 q 30,-90 90,-130" stroke="#5d7052" stroke-width="12" fill="none" stroke-linecap="round"/><path d="M1150,1180 L1250,1180 L1230,1080 L1170,1080 Z" fill="#b19b6e" transform="translate(0,0)"/><path d="M1155,1060 h90 l-12,124 h-66 Z" fill="#b98a5a"/><rect x="1380" y="1120" width="18" height="60" fill="#8f6b3d"/><ellipse cx="1389" cy="1116" rx="16" ry="10" fill="#c9a227"/><defs><filter id="a170h-sh" x="-30%" y="-30%" width="160%" height="160%"><feGaussianBlur stdDeviation="16"/></filter></defs><rect x="950" y="258" width="528" height="648" fill="#000" opacity="0.28" filter="url(#a170h-sh)"/><rect x="936" y="236" width="528" height="648" fill="#33291f"/><rect x="951.6" y="251.6" width="496.8" height="616.8" fill="none" stroke="#00000055" stroke-width="3"/><rect x="960" y="260" width="480" height="600" fill="#f6f2ea"/><svg x="996" y="296" width="408" height="528" viewBox="0 0 2400 3000" preserveAspectRatio="xMidYMid slice"><filter id="a170-warp" x="-4%" y="-4%" width="108%" height="108%"><feTurbulence type="fractalNoise" baseFrequency="0.0105" numOctaves="2" seed="1212" result="w"/><feDisplacementMap in="SourceGraphic" in2="w" scale="11" xChannelSelector="R" yChannelSelector="G"/></filter><filter id="a170-grain" x="0%" y="0%" width="100%" height="100%"><feTurbulence type="fractalNoise" baseFrequency="0.6" numOctaves="2" seed="1219"/><feColorMatrix type="matrix" values="0.33 0.33 0.33 0 0.62  0.33 0.33 0.33 0 0.62  0.33 0.33 0.33 0 0.62  0 0 0 0 1"/></filter><filter id="a170-mottle" x="0%" y="0%" width="100%" height="100%"><feTurbulence type="fractalNoise" baseFrequency="0.0045" numOctaves="3" seed="1225"/><feColorMatrix type="matrix" values="0.2 0.2 0.2 0 0.78  0.2 0.2 0.2 0 0.78  0.2 0.2 0.2 0 0.78  0 0 0 0 1"/></filter><filter id="a170-fade" x="0%" y="0%" width="100%" height="100%"><feTurbulence type="fractalNoise" baseFrequency="0.006" numOctaves="2" seed="1241"/><feColorMatrix type="matrix" values="0.3 0.3 0.3 0 -0.08  0.3 0.3 0.3 0 -0.08  0.3 0.3 0.3 0 -0.1  0 0 0 0 1"/></filter><filter id="a170-blur9"><feGaussianBlur stdDeviation="9"/></filter><radialGradient id="a170-vig" cx="50%" cy="44%" r="78%"><stop offset="52%" stop-color="#241a10" stop-opacity="0"/><stop offset="100%" stop-color="#241a10" stop-opacity="0.17"/></radialGradient><radialGradient id="a170-warm" cx="42%" cy="30%" r="85%"><stop offset="0%" stop-color="#e8c890" stop-opacity="0.14"/><stop offset="70%" stop-color="#e8c890" stop-opacity="0"/></radialGradient><rect width="2400" height="3000" fill="#d5bf94"/><rect width="2400" height="3000" fill="url(#a170-warm)"/><rect x="0" width="23.9" height="3000" fill="#6b4e26" opacity="0.033"/><rect x="33.2" width="23.5" height="3000" fill="#6b4e26" opacity="0.066"/><rect x="65.9" width="24.3" height="3000" fill="#6b4e26" opacity="0.094"/><rect x="99.7" width="29.6" height="3000" fill="#6b4e26" opacity="0.077"/><rect x="140.7" width="32.2" height="3000" fill="#6b4e26" opacity="0.086"/><rect x="185.4" width="24.7" height="3000" fill="#6b4e26" opacity="0.058"/><rect x="219.7" width="34.1" height="3000" fill="#6b4e26" opacity="0.045"/><rect x="267.1" width="33.7" height="3000" fill="#6b4e26" opacity="0.087"/><rect x="313.9" width="39.8" height="3000" fill="#6b4e26" opacity="0.055"/><rect x="369.2" width="24.9" height="3000" fill="#6b4e26" opacity="0.099"/><rect x="403.8" width="19.3" height="3000" fill="#6b4e26" opacity="0.045"/><rect x="430.5" width="37.1" height="3000" fill="#6b4e26" opacity="0.068"/><rect x="482.1" width="28.8" height="3000" fill="#6b4e26" opacity="0.077"/><rect x="522.1" width="32.5" height="3000" fill="#6b4e26" opacity="0.095"/><rect x="567.2" width="28" height="3000" fill="#6b4e26" opacity="0.032"/><rect x="606.1" width="39.5" height="3000" fill="#6b4e26" opacity="0.039"/><rect x="660.9" width="32.5" height="3000" fill="#6b4e26" opacity="0.064"/><rect x="706" width="33.6" height="3000" fill="#6b4e26" opacity="0.087"/><rect x="752.7" width="21.1" height="3000" fill="#6b4e26" opacity="0.076"/><rect x="782" width="24.3" height="3000" fill="#6b4e26" opacity="0.053"/><rect x="815.8" width="26.1" height="3000" fill="#6b4e26" opacity="0.076"/><rect x="852" width="19.6" height="3000" fill="#6b4e26" opacity="0.071"/><rect x="879.3" width="33.9" height="3000" fill="#6b4e26" opacity="0.055"/><rect x="926.3" width="23.3" height="3000" fill="#6b4e26" opacity="0.096"/><rect x="958.6" width="28.2" height="3000" fill="#6b4e26" opacity="0.084"/><rect x="997.8" width="26.9" height="3000" fill="#6b4e26" opacity="0.049"/><rect x="1035.2" width="39.3" height="3000" fill="#6b4e26" opacity="0.070"/><rect x="1089.8" width="38.2" height="3000" fill="#6b4e26" opacity="0.078"/><rect x="1142.8" width="23.5" height="3000" fill="#6b4e26" opacity="0.088"/><rect x="1175.5" width="33.5" height="3000" fill="#6b4e26" opacity="0.044"/><rect x="1222.1" width="36.1" height="3000" fill="#6b4e26" opacity="0.040"/><rect x="1272.2" width="33.8" height="3000" fill="#6b4e26" opacity="0.094"/><rect x="1319.2" width="34.8" height="3000" fill="#6b4e26" opacity="0.043"/><rect x="1367.5" width="43" height="3000" fill="#6b4e26" opacity="0.046"/><rect x="1427.3" width="32" height="3000" fill="#6b4e26" opacity="0.078"/><rect x="1471.8" width="37.1" height="3000" fill="#6b4e26" opacity="0.051"/><rect x="1523.2" width="34" height="3000" fill="#6b4e26" opacity="0.076"/><rect x="1570.5" width="30.4" height="3000" fill="#6b4e26" opacity="0.089"/><rect x="1612.7" width="31.9" height="3000" fill="#6b4e26" opacity="0.077"/><rect x="1657" width="21.2" height="3000" fill="#6b4e26" opacity="0.052"/><rect x="1686.5" width="28.2" height="3000" fill="#6b4e26" opacity="0.097"/><rect x="1725.6" width="33.8" height="3000" fill="#6b4e26" opacity="0.043"/><rect x="1772.6" width="25.8" height="3000" fill="#6b4e26" opacity="0.039"/><rect x="1808.4" width="27.5" height="3000" fill="#6b4e26" opacity="0.046"/><rect x="1846.6" width="29.1" height="3000" fill="#6b4e26" opacity="0.048"/><rect x="1886.9" width="34.9" height="3000" fill="#6b4e26" opacity="0.096"/><rect x="1935.4" width="34" height="3000" fill="#6b4e26" opacity="0.056"/><rect x="1982.5" width="28.5" height="3000" fill="#6b4e26" opacity="0.068"/><rect x="2022" width="41.3" height="3000" fill="#6b4e26" opacity="0.079"/><rect x="2079.4" width="36.8" height="3000" fill="#6b4e26" opacity="0.093"/><rect x="2130.5" width="34.3" height="3000" fill="#6b4e26" opacity="0.091"/><rect x="2178.2" width="37.2" height="3000" fill="#6b4e26" opacity="0.044"/><rect x="2229.8" width="22" height="3000" fill="#6b4e26" opacity="0.038"/><rect x="2260.4" width="41" height="3000" fill="#6b4e26" opacity="0.032"/><rect x="2317.3" width="37.2" height="3000" fill="#6b4e26" opacity="0.096"/><rect x="2368.9" width="21.9" height="3000" fill="#6b4e26" opacity="0.043"/><rect x="2399.3" width="31.9" height="3000" fill="#6b4e26" opacity="0.033"/><rect y="0" width="2400" height="13.3" fill="#7c5c30" opacity="0.056"/><rect y="22.1" width="2400" height="18.2" fill="#7c5c30" opacity="0.043"/><rect y="52.5" width="2400" height="21.7" fill="#7c5c30" opacity="0.030"/><rect y="88.6" width="2400" height="22.7" fill="#7c5c30" opacity="0.046"/><rect y="126.4" width="2400" height="13.3" fill="#7c5c30" opacity="0.049"/><rect y="148.6" width="2400" height="28.8" fill="#7c5c30" opacity="0.026"/><rect y="196.5" width="2400" height="23.8" fill="#7c5c30" opacity="0.030"/><rect y="236.2" width="2400" height="17.1" fill="#7c5c30" opacity="0.042"/><rect y="264.7" width="2400" height="21" fill="#7c5c30" opacity="0.027"/><rect y="299.8" width="2400" height="27.3" fill="#7c5c30" opacity="0.032"/><rect y="345.2" width="2400" height="15.2" fill="#7c5c30" opacity="0.050"/><rect y="370.6" width="2400" height="19.5" fill="#7c5c30" opacity="0.057"/><rect y="403" width="2400" height="26.5" fill="#7c5c30" opacity="0.021"/><rect y="447.2" width="2400" height="13.2" fill="#7c5c30" opacity="0.038"/><rect y="469.3" width="2400" height="24.6" fill="#7c5c30" opacity="0.033"/><rect y="510.3" width="2400" height="15.2" fill="#7c5c30" opacity="0.037"/><rect y="535.7" width="2400" height="24.7" fill="#7c5c30" opacity="0.050"/><rect y="576.9" width="2400" height="20.4" fill="#7c5c30" opacity="0.041"/><rect y="610.9" width="2400" height="20.5" fill="#7c5c30" opacity="0.026"/><rect y="645.1" width="2400" height="14.8" fill="#7c5c30" opacity="0.027"/><rect y="669.7" width="2400" height="28.4" fill="#7c5c30" opacity="0.054"/><rect y="717" width="2400" height="25.1" fill="#7c5c30" opacity="0.037"/><rect y="758.8" width="2400" height="18.1" fill="#7c5c30" opacity="0.041"/><rect y="789" width="2400" height="21.6" fill="#7c5c30" opacity="0.022"/><rect y="825" width="2400" height="22.5" fill="#7c5c30" opacity="0.032"/><rect y="862.4" width="2400" height="15.8" fill="#7c5c30" opacity="0.053"/><rect y="888.8" width="2400" height="22.7" fill="#7c5c30" opacity="0.045"/><rect y="926.7" width="2400" height="13.2" fill="#7c5c30" opacity="0.052"/><rect y="948.7" width="2400" height="25.8" fill="#7c5c30" opacity="0.054"/><rect y="991.7" width="2400" height="26.2" fill="#7c5c30" opacity="0.021"/><rect y="1035.4" width="2400" height="20" fill="#7c5c30" opacity="0.055"/><rect y="1068.6" width="2400" height="19.1" fill="#7c5c30" opacity="0.060"/><rect y="1100.4" width="2400" height="19.7" fill="#7c5c30" opacity="0.044"/><rect y="1133.4" width="2400" height="20.1" fill="#7c5c30" opacity="0.041"/><rect y="1166.8" width="2400" height="25.7" fill="#7c5c30" opacity="0.033"/><rect y="1209.6" width="2400" height="23.4" fill="#7c5c30" opacity="0.025"/><rect y="1248.6" width="2400" height="17.5" fill="#7c5c30" opacity="0.055"/><rect y="1277.7" width="2400" height="13.6" fill="#7c5c30" opacity="0.037"/><rect y="1300.3" width="2400" height="15.8" fill="#7c5c30" opacity="0.058"/><rect y="1326.7" width="2400" height="25.4" fill="#7c5c30" opacity="0.053"/><rect y="1369" width="2400" height="15.6" fill="#7c5c30" opacity="0.036"/><rect y="1395" width="2400" height="16.3" fill="#7c5c30" opacity="0.054"/><rect y="1422.2" width="2400" height="19" fill="#7c5c30" opacity="0.049"/><rect y="1453.8" width="2400" height="21.2" fill="#7c5c30" opacity="0.029"/><rect y="1489.1" width="2400" height="16.7" fill="#7c5c30" opacity="0.041"/><rect y="1516.9" width="2400" height="20.7" fill="#7c5c30" opacity="0.058"/><rect y="1551.4" width="2400" height="13.2" fill="#7c5c30" opacity="0.032"/><rect y="1573.4" width="2400" height="18.8" fill="#7c5c30" opacity="0.031"/><rect y="1604.8" width="2400" height="20.8" fill="#7c5c30" opacity="0.044"/><rect y="1639.5" width="2400" height="19.7" fill="#7c5c30" opacity="0.055"/><rect y="1672.3" width="2400" height="17.9" fill="#7c5c30" opacity="0.045"/><rect y="1702.2" width="2400" height="15.4" fill="#7c5c30" opacity="0.029"/><rect y="1727.9" width="2400" height="14.2" fill="#7c5c30" opacity="0.037"/><rect y="1751.6" width="2400" height="25.1" fill="#7c5c30" opacity="0.040"/><rect y="1793.5" width="2400" height="28" fill="#7c5c30" opacity="0.033"/><rect y="1840.2" width="2400" height="28.6" fill="#7c5c30" opacity="0.031"/><rect y="1887.8" width="2400" height="21.7" fill="#7c5c30" opacity="0.037"/><rect y="1923.9" width="2400" height="17.6" fill="#7c5c30" opacity="0.046"/><rect y="1953.3" width="2400" height="22.8" fill="#7c5c30" opacity="0.058"/><rect y="1991.4" width="2400" height="15.5" fill="#7c5c30" opacity="0.029"/><rect y="2017.2" width="2400" height="20.7" fill="#7c5c30" opacity="0.025"/><rect y="2051.6" width="2400" height="26.4" fill="#7c5c30" opacity="0.039"/><rect y="2095.6" width="2400" height="19.1" fill="#7c5c30" opacity="0.035"/><rect y="2127.5" width="2400" height="25" fill="#7c5c30" opacity="0.044"/><rect y="2169.2" width="2400" height="16.9" fill="#7c5c30" opacity="0.022"/><rect y="2197.5" width="2400" height="16.3" fill="#7c5c30" opacity="0.058"/><rect y="2224.6" width="2400" height="23.7" fill="#7c5c30" opacity="0.057"/><rect y="2264.1" width="2400" height="26.5" fill="#7c5c30" opacity="0.026"/><rect y="2308.3" width="2400" height="26.3" fill="#7c5c30" opacity="0.048"/><rect y="2352" width="2400" height="23.3" fill="#7c5c30" opacity="0.024"/><rect y="2390.8" width="2400" height="17.5" fill="#7c5c30" opacity="0.025"/><rect y="2420" width="2400" height="16.7" fill="#7c5c30" opacity="0.039"/><rect y="2447.9" width="2400" height="27.5" fill="#7c5c30" opacity="0.052"/><rect y="2493.7" width="2400" height="16.2" fill="#7c5c30" opacity="0.057"/><rect y="2520.7" width="2400" height="16.7" fill="#7c5c30" opacity="0.043"/><rect y="2548.6" width="2400" height="21" fill="#7c5c30" opacity="0.056"/><rect y="2583.6" width="2400" height="16.6" fill="#7c5c30" opacity="0.054"/><rect y="2611.3" width="2400" height="26.6" fill="#7c5c30" opacity="0.042"/><rect y="2655.7" width="2400" height="18" fill="#7c5c30" opacity="0.051"/><rect y="2685.7" width="2400" height="21.3" fill="#7c5c30" opacity="0.024"/><rect y="2721.3" width="2400" height="16.4" fill="#7c5c30" opacity="0.049"/><rect y="2748.7" width="2400" height="20.1" fill="#7c5c30" opacity="0.029"/><rect y="2782.1" width="2400" height="18.7" fill="#7c5c30" opacity="0.041"/><rect y="2813.3" width="2400" height="19.8" fill="#7c5c30" opacity="0.049"/><rect y="2846.4" width="2400" height="19.3" fill="#7c5c30" opacity="0.045"/><rect y="2878.5" width="2400" height="28.5" fill="#7c5c30" opacity="0.025"/><rect y="2926.1" width="2400" height="26.1" fill="#7c5c30" opacity="0.048"/><rect y="2969.6" width="2400" height="19.9" fill="#7c5c30" opacity="0.041"/><g filter="url(#a170-warp)"><rect x="190" y="190" width="2020" height="2620" fill="none" stroke="#302b22" stroke-width="14"/><rect x="260" y="260" width="1880" height="2480" fill="none" stroke="#302b22" stroke-width="7"/><rect x="148" y="148" width="84" height="84" fill="#4a7457"/><rect x="148" y="2768" width="84" height="84" fill="#4a7457"/><rect x="2168" y="148" width="84" height="84" fill="#4a7457"/><rect x="2168" y="2768" width="84" height="84" fill="#4a7457"/><ellipse cx="1200" cy="960" rx="230" ry="300" fill="none" stroke="#302b22" stroke-width="110"/><rect x="1148" y="1230" width="104" height="900" rx="40" fill="#302b22"/><rect x="800" y="1230" width="800" height="104" rx="40" fill="#302b22"/><circle cx="1200" cy="960" r="66" fill="#4a7457"/><polygon points="1641.5,471.2 1652.4,498.9 1680,509.8 1652.4,520.7 1641.5,548.3 1630.6,520.7 1602.9,509.8 1630.6,498.9 " fill="#4a7457"/><polygon points="814.8,389.5 823.9,412.5 847,421.6 823.9,430.7 814.8,453.7 805.8,430.7 782.7,421.6 805.8,412.5 " fill="#4a7457"/><polygon points="1725.3,346.3 1736.4,374.2 1764.3,385.3 1736.4,396.3 1725.3,424.3 1714.3,396.3 1686.3,385.3 1714.3,374.2 " fill="#4a7457"/><polygon points="1253.4,2475.7 1263.1,2500.2 1287.6,2509.9 1263.1,2519.5 1253.4,2544 1243.8,2519.5 1219.3,2509.9 1243.8,2500.2 " fill="#4a7457"/><polygon points="807.2,2576.5 818.1,2604.3 845.9,2615.2 818.1,2626.2 807.2,2654 796.2,2626.2 768.5,2615.2 796.2,2604.3 " fill="#4a7457"/><polygon points="1507.5,476 1515.6,496.5 1536.2,504.6 1515.6,512.7 1507.5,533.3 1499.4,512.7 1478.9,504.6 1499.4,496.5 " fill="#4a7457"/><rect x="120" y="120" width="2160" height="2760" fill="none" stroke="#302b22" stroke-width="6" opacity="0.85"/></g><rect width="2400" height="3000" filter="url(#a170-mottle)" style="mix-blend-mode:multiply" opacity="0.5"/><rect width="2400" height="3000" filter="url(#a170-fade)" style="mix-blend-mode:screen" opacity="0.55"/><rect width="2400" height="3000" filter="url(#a170-grain)" style="mix-blend-mode:multiply" opacity="0.32"/><ellipse cx="1112.5" cy="2201.5" rx="299.8" ry="184.3" fill="#6b4a22" opacity="0.035" filter="url(#a170-blur9)"/><ellipse cx="1229.3" cy="1058.8" rx="280.7" ry="263.5" fill="#6b4a22" opacity="0.068" filter="url(#a170-blur9)"/><ellipse cx="733.3" cy="1163.4" rx="168.9" ry="135" fill="#6b4a22" opacity="0.047" filter="url(#a170-blur9)"/><rect x="0" width="27.3" height="3000" fill="#fff2d0" opacity="0.015"/><rect x="54.6" width="32.3" height="3000" fill="#fff2d0" opacity="0.027"/><rect x="119.1" width="31.9" height="3000" fill="#fff2d0" opacity="0.040"/><rect x="182.9" width="18.8" height="3000" fill="#fff2d0" opacity="0.031"/><rect x="220.4" width="23.4" height="3000" fill="#fff2d0" opacity="0.043"/><rect x="267.2" width="27.3" height="3000" fill="#fff2d0" opacity="0.016"/><rect x="321.7" width="23.4" height="3000" fill="#fff2d0" opacity="0.028"/><rect x="368.6" width="20.7" height="3000" fill="#fff2d0" opacity="0.021"/><rect x="409.9" width="22.7" height="3000" fill="#fff2d0" opacity="0.035"/><rect x="455.2" width="15.9" height="3000" fill="#fff2d0" opacity="0.029"/><rect x="487" width="21.5" height="3000" fill="#fff2d0" opacity="0.018"/><rect x="530" width="30.1" height="3000" fill="#fff2d0" opacity="0.029"/><rect x="590.3" width="24.1" height="3000" fill="#fff2d0" opacity="0.032"/><rect x="638.4" width="32.8" height="3000" fill="#fff2d0" opacity="0.043"/><rect x="704" width="26.8" height="3000" fill="#fff2d0" opacity="0.017"/><rect x="757.7" width="17.7" height="3000" fill="#fff2d0" opacity="0.034"/><rect x="793.1" width="19.4" height="3000" fill="#fff2d0" opacity="0.036"/><rect x="831.9" width="23.7" height="3000" fill="#fff2d0" opacity="0.024"/><rect x="879.3" width="15.1" height="3000" fill="#fff2d0" opacity="0.020"/><rect x="909.5" width="33.7" height="3000" fill="#fff2d0" opacity="0.021"/><rect x="976.9" width="18.3" height="3000" fill="#fff2d0" opacity="0.041"/><rect x="1013.4" width="34.1" height="3000" fill="#fff2d0" opacity="0.042"/><rect x="1081.6" width="15.3" height="3000" fill="#fff2d0" opacity="0.025"/><rect x="1112.2" width="20.9" height="3000" fill="#fff2d0" opacity="0.041"/><rect x="1154" width="28.8" height="3000" fill="#fff2d0" opacity="0.031"/><rect x="1211.6" width="22.3" height="3000" fill="#fff2d0" opacity="0.020"/><rect x="1256.1" width="23.2" height="3000" fill="#fff2d0" opacity="0.038"/><rect x="1302.4" width="19.7" height="3000" fill="#fff2d0" opacity="0.019"/><rect x="1341.8" width="17.9" height="3000" fill="#fff2d0" opacity="0.038"/><rect x="1377.6" width="27.1" height="3000" fill="#fff2d0" opacity="0.039"/><rect x="1431.8" width="29.6" height="3000" fill="#fff2d0" opacity="0.040"/><rect x="1491.1" width="21.4" height="3000" fill="#fff2d0" opacity="0.035"/><rect x="1533.9" width="32.5" height="3000" fill="#fff2d0" opacity="0.023"/><rect x="1599" width="16.2" height="3000" fill="#fff2d0" opacity="0.041"/><rect x="1631.4" width="15.3" height="3000" fill="#fff2d0" opacity="0.036"/><rect x="1661.9" width="24" height="3000" fill="#fff2d0" opacity="0.032"/><rect x="1709.9" width="16.1" height="3000" fill="#fff2d0" opacity="0.044"/><rect x="1742.2" width="15.9" height="3000" fill="#fff2d0" opacity="0.044"/><rect x="1774.1" width="28" height="3000" fill="#fff2d0" opacity="0.015"/><rect x="1830" width="18.8" height="3000" fill="#fff2d0" opacity="0.020"/><rect x="1867.7" width="26.8" height="3000" fill="#fff2d0" opacity="0.016"/><rect x="1921.2" width="31.4" height="3000" fill="#fff2d0" opacity="0.037"/><rect x="1984" width="29.4" height="3000" fill="#fff2d0" opacity="0.021"/><rect x="2042.8" width="20.8" height="3000" fill="#fff2d0" opacity="0.034"/><rect x="2084.4" width="24.5" height="3000" fill="#fff2d0" opacity="0.026"/><rect x="2133.3" width="31.3" height="3000" fill="#fff2d0" opacity="0.022"/><rect x="2195.9" width="29.9" height="3000" fill="#fff2d0" opacity="0.041"/><rect x="2255.8" width="15.7" height="3000" fill="#fff2d0" opacity="0.036"/><rect x="2287.3" width="30.6" height="3000" fill="#fff2d0" opacity="0.041"/><rect x="2348.6" width="29" height="3000" fill="#fff2d0" opacity="0.030"/><linearGradient id="a170-er" x1="0" x2="1" y1="0" y2="0"><stop offset="0" stop-color="#3a2a12" stop-opacity="0.22"/><stop offset="1" stop-color="#3a2a12" stop-opacity="0"/></linearGradient><rect x="0" y="0" width="90" height="3000" fill="url(#a170-er)"/><linearGradient id="a170-el" x1="1" x2="0" y1="0" y2="0"><stop offset="0" stop-color="#3a2a12" stop-opacity="0.22"/><stop offset="1" stop-color="#3a2a12" stop-opacity="0"/></linearGradient><rect x="2310" y="0" width="90" height="3000" fill="url(#a170-el)"/><linearGradient id="a170-ed" x1="0" x2="0" y1="0" y2="1"><stop offset="0" stop-color="#3a2a12" stop-opacity="0.22"/><stop offset="1" stop-color="#3a2a12" stop-opacity="0"/></linearGradient><rect x="0" y="0" width="2400" height="90" fill="url(#a170-ed)"/><linearGradient id="a170-eu" x1="0" x2="0" y1="1" y2="0"><stop offset="0" stop-color="#3a2a12" stop-opacity="0.22"/><stop offset="1" stop-color="#3a2a12" stop-opacity="0"/></linearGradient><rect x="0" y="2910" width="2400" height="90" fill="url(#a170-eu)"/><circle cx="1257.5" cy="790.3" r="10" fill="#8a5a2e" opacity="0.089"/><circle cx="314.9" cy="1496.6" r="10.8" fill="#8a5a2e" opacity="0.058"/><circle cx="2096.1" cy="990.8" r="6.7" fill="#8a5a2e" opacity="0.123"/><circle cx="771.4" cy="598.1" r="15.3" fill="#8a5a2e" opacity="0.070"/><circle cx="1675.6" cy="2588.1" r="12.8" fill="#8a5a2e" opacity="0.112"/><circle cx="1716.2" cy="106.7" r="11.3" fill="#8a5a2e" opacity="0.125"/><circle cx="2201.4" cy="1693.1" r="10.6" fill="#8a5a2e" opacity="0.127"/><circle cx="2311.5" cy="1235.1" r="8.4" fill="#8a5a2e" opacity="0.078"/><circle cx="2092.5" cy="948.8" r="5.9" fill="#8a5a2e" opacity="0.124"/><circle cx="805.7" cy="392.9" r="7.9" fill="#8a5a2e" opacity="0.084"/><rect width="2400" height="3000" fill="url(#a170-vig)"/></svg></svg>