<svg xmlns="http://www.w3.org/2000/svg" width="2400" height="1800" viewBox="0 0 2400 1800"><rect width="2400" height="1800" fill="#e9e1d2"/><rect y="1430" width="2400" height="370" fill="#c8b190"/><line x1="120" y1="1430" x2="60" y2="1800" stroke="#00000018" stroke-width="6"/><line x1="380" y1="1430" x2="320" y2="1800" stroke="#00000018" stroke-width="6"/><line x1="640" y1="1430" x2="580" y2="1800" stroke="#00000018" stroke-width="6"/><line x1="900" y1="1430" x2="840" y2="1800" stroke="#00000018" stroke-width="6"/><line x1="1160" y1="1430" x2="1100" y2="1800" stroke="#00000018" stroke-width="6"/><line x1="1420" y1="1430" x2="1360" y2="1800" stroke="#00000018" stroke-width="6"/><line x1="1680" y1="1430" x2="1620" y2="1800" stroke="#00000018" stroke-width="6"/><line x1="1940" y1="1430" x2="1880" y2="1800" stroke="#00000018" stroke-width="6"/><line x1="2200" y1="1430" x2="2140" y2="1800" stroke="#00000018" stroke-width="6"/><rect y="1418" width="2400" height="16" fill="#d7cbb6"/><rect x="700" y="980" width="1000" height="460" rx="26" fill="#a87e57"/><rect x="660" y="1290" width="1080" height="210" rx="30" fill="#f1ebdf"/><rect x="660" y="1420" width="1080" height="120" rx="24" fill="#96a396" opacity="0.85"/><rect x="770" y="1180" width="300" height="150" rx="40" fill="#faf6ec"/><rect x="1330" y="1180" width="300" height="150" rx="40" fill="#cfc7b2"/><rect x="640" y="1530" width="1120" height="26" rx="12" fill="#a87e57"/><rect x="360" y="1260" width="240" height="220" rx="10" fill="#a87e57"/><rect x="380" y="1300" width="200" height="14" fill="#00000022"/><line x1="480" y1="1260" x2="480" y2="1130" stroke="#5a4632" stroke-width="12"/><path d="M410,1130 L550,1130 L520,1020 L440,1020 Z" fill="#96a396"/><path d="M2060,1520 Q 1910,1282.5 1835,1345" fill="none" stroke="#5d7052" stroke-width="20" stroke-linecap="round"/><path d="M2060,1520 Q 1960,1282.5 1910,1295" fill="none" stroke="#5d7052" stroke-width="20" stroke-linecap="round"/><path d="M2060,1520 Q 2010,1282.5 1985,1245" fill="none" stroke="#5d7052" stroke-width="20" stroke-linecap="round"/><path d="M2060,1520 Q 2060,1282.5 2060,1195" fill="none" stroke="#5d7052" stroke-width="20" stroke-linecap="round"/><path d="M2060,1520 Q 2110,1282.5 2135,1245" fill="none" stroke="#5d7052" stroke-width="20" stroke-linecap="round"/><path d="M2060,1520 Q 2160,1282.5 2210,1295" fill="none" stroke="#5d7052" stroke-width="20" stroke-linecap="round"/><path d="M2060,1520 Q 2210,1282.5 2285,1345" fill="none" stroke="#5d7052" stroke-width="20" stroke-linecap="round"/><path d="M1972.5,1520 L2147.5,1520 L2125,1657.5 L1995,1657.5 Z" fill="#a9714d"/><defs><filter id="a105b-sh" x="-30%" y="-30%" width="160%" height="160%"><feGaussianBlur stdDeviation="16"/></filter></defs><rect x="928" y="246" width="572" height="702" fill="#000" opacity="0.28" filter="url(#a105b-sh)"/><rect x="914" y="224" width="572" height="702" fill="#4a3d2f"/><rect x="930.9" y="240.9" width="538.2" height="668.2" fill="none" stroke="#00000055" stroke-width="3"/><rect x="940" y="250" width="520" height="650" fill="#f6f2ea"/><svg x="979" y="289" width="442" height="572" viewBox="0 0 2400 3000" preserveAspectRatio="xMidYMid slice"><rect width="2400" height="3000" fill="#e7e1d3"/><radialGradient id="a105-vig" cx="50%" cy="42%" r="80%"><stop offset="55%" stop-color="#000" stop-opacity="0"/><stop offset="100%" stop-color="#000" stop-opacity="0.15"/></radialGradient><rect width="2400" height="3000" fill="url(#a105-vig)"/><circle cx="317.2" cy="790.8" r="2.8" fill="#39685c" opacity="0.070"/><circle cx="941.3" cy="809.7" r="3.7" fill="#39685c" opacity="0.077"/><circle cx="2085.2" cy="1239.6" r="2.5" fill="#39685c" opacity="0.054"/><circle cx="1425.6" cy="44.1" r="3.6" fill="#39685c" opacity="0.052"/><circle cx="1896.9" cy="2352.2" r="2.6" fill="#39685c" opacity="0.038"/><circle cx="1866.8" cy="1131.6" r="4.5" fill="#39685c" opacity="0.063"/><circle cx="2100.3" cy="929.1" r="1.8" fill="#39685c" opacity="0.070"/><circle cx="186" cy="1171.7" r="4.4" fill="#39685c" opacity="0.060"/><circle cx="1156.3" cy="55.5" r="4.4" fill="#39685c" opacity="0.052"/><circle cx="2279.5" cy="2640.9" r="3.6" fill="#39685c" opacity="0.075"/><circle cx="873.1" cy="1600.3" r="3" fill="#39685c" opacity="0.034"/><circle cx="1396.1" cy="2682" r="2.3" fill="#39685c" opacity="0.077"/><circle cx="1994" cy="291.1" r="3.8" fill="#39685c" opacity="0.056"/><circle cx="1561.1" cy="920.6" r="3.5" fill="#39685c" opacity="0.047"/><circle cx="288.6" cy="1272.9" r="4.3" fill="#39685c" opacity="0.061"/><circle cx="2190.6" cy="274" r="1.8" fill="#39685c" opacity="0.038"/><circle cx="1062.4" cy="291.3" r="4.4" fill="#39685c" opacity="0.065"/><circle cx="202.7" cy="545.1" r="3.5" fill="#39685c" opacity="0.070"/><circle cx="2343.6" cy="2592.8" r="3.8" fill="#39685c" opacity="0.068"/><circle cx="43.9" cy="1783.9" r="4" fill="#39685c" opacity="0.042"/><circle cx="315.4" cy="2533.1" r="1.6" fill="#39685c" opacity="0.078"/><circle cx="128.6" cy="1754" r="2" fill="#39685c" opacity="0.034"/><circle cx="1852.3" cy="1382.9" r="2.4" fill="#39685c" opacity="0.051"/><circle cx="253.6" cy="1168" r="2.2" fill="#39685c" opacity="0.069"/><circle cx="596.1" cy="103.5" r="1.7" fill="#39685c" opacity="0.054"/><circle cx="1796.3" cy="2946" r="3.3" fill="#39685c" opacity="0.062"/><circle cx="1780.8" cy="2366.5" r="4.4" fill="#39685c" opacity="0.060"/><circle cx="1815.2" cy="369.2" r="2.9" fill="#39685c" opacity="0.062"/><circle cx="1966.7" cy="1209.4" r="4.2" fill="#39685c" opacity="0.052"/><circle cx="2286.8" cy="624.1" r="3.9" fill="#39685c" opacity="0.072"/><circle cx="399" cy="856.4" r="2.9" fill="#39685c" opacity="0.043"/><circle cx="1450.1" cy="2207.4" r="2.5" fill="#39685c" opacity="0.077"/><circle cx="1876.6" cy="1758.5" r="2.2" fill="#39685c" opacity="0.068"/><circle cx="1574" cy="1944.2" r="2.7" fill="#39685c" opacity="0.054"/><circle cx="1264.6" cy="2393.3" r="4.3" fill="#39685c" opacity="0.071"/><circle cx="2156.5" cy="2553.8" r="4.5" fill="#39685c" opacity="0.067"/><circle cx="1527.8" cy="2812.5" r="2.7" fill="#39685c" opacity="0.031"/><circle cx="714.6" cy="1156.9" r="4.3" fill="#39685c" opacity="0.033"/><circle cx="2282.1" cy="477.8" r="2.1" fill="#39685c" opacity="0.079"/><circle cx="185.6" cy="337.5" r="4.3" fill="#39685c" opacity="0.064"/><circle cx="1073.5" cy="2741.5" r="3.1" fill="#39685c" opacity="0.076"/><circle cx="1474.9" cy="490.3" r="3" fill="#39685c" opacity="0.034"/><circle cx="1344.6" cy="2167.5" r="2.6" fill="#39685c" opacity="0.047"/><circle cx="2093.6" cy="1036.8" r="4.1" fill="#39685c" opacity="0.066"/><circle cx="275.1" cy="2301.8" r="3.2" fill="#39685c" opacity="0.045"/><circle cx="1424.1" cy="2861.1" r="3.1" fill="#39685c" opacity="0.059"/><circle cx="225.2" cy="2447.6" r="4.4" fill="#39685c" opacity="0.033"/><circle cx="1236.9" cy="1295.1" r="3.6" fill="#39685c" opacity="0.063"/><circle cx="2336.5" cy="2464.3" r="4.2" fill="#39685c" opacity="0.055"/><circle cx="943.5" cy="2610.2" r="2.6" fill="#39685c" opacity="0.051"/><circle cx="1935.8" cy="1087.2" r="4" fill="#39685c" opacity="0.045"/><circle cx="321.7" cy="808.4" r="3.4" fill="#39685c" opacity="0.033"/><circle cx="1062.4" cy="891.4" r="2" fill="#39685c" opacity="0.035"/><circle cx="1767.3" cy="2601.1" r="4" fill="#39685c" opacity="0.040"/><circle cx="288" cy="1742.2" r="3" fill="#39685c" opacity="0.048"/><circle cx="487" cy="565.6" r="1.9" fill="#39685c" opacity="0.068"/><circle cx="780.4" cy="2398.2" r="4" fill="#39685c" opacity="0.036"/><circle cx="2123.1" cy="1935.2" r="2.1" fill="#39685c" opacity="0.078"/><circle cx="523.5" cy="817.7" r="1.9" fill="#39685c" opacity="0.038"/><circle cx="237.1" cy="1256" r="1.5" fill="#39685c" opacity="0.030"/><circle cx="1303.9" cy="1552.3" r="2.4" fill="#39685c" opacity="0.069"/><circle cx="1449.2" cy="1211" r="2.1" fill="#39685c" opacity="0.050"/><circle cx="98.7" cy="1484.7" r="1.8" fill="#39685c" opacity="0.059"/><circle cx="1190.6" cy="363.1" r="2.4" fill="#39685c" opacity="0.036"/><circle cx="2071.6" cy="1455" r="3.6" fill="#39685c" opacity="0.072"/><circle cx="2318.5" cy="660.7" r="1.8" fill="#39685c" opacity="0.069"/><circle cx="705.2" cy="2570.1" r="4.1" fill="#39685c" opacity="0.041"/><circle cx="368.9" cy="2238.9" r="4.1" fill="#39685c" opacity="0.076"/><circle cx="68.5" cy="2232.2" r="3.6" fill="#39685c" opacity="0.077"/><circle cx="1556.2" cy="2668.6" r="2.6" fill="#39685c" opacity="0.043"/><circle cx="2053.5" cy="2665.8" r="1.8" fill="#39685c" opacity="0.047"/><circle cx="62.5" cy="557.7" r="1.6" fill="#39685c" opacity="0.057"/><circle cx="2111" cy="1462.2" r="3" fill="#39685c" opacity="0.070"/><circle cx="2119" cy="2758" r="3.5" fill="#39685c" opacity="0.040"/><circle cx="223.8" cy="2029.8" r="3" fill="#39685c" opacity="0.069"/><circle cx="665.5" cy="1231.7" r="1.5" fill="#39685c" opacity="0.069"/><circle cx="760.8" cy="1441.3" r="2.2" fill="#39685c" opacity="0.034"/><circle cx="1094.8" cy="2720.5" r="1.9" fill="#39685c" opacity="0.068"/><circle cx="1618" cy="2895.2" r="2.8" fill="#39685c" opacity="0.035"/><circle cx="1089.2" cy="1306.4" r="4.4" fill="#39685c" opacity="0.066"/><polygon points="1618.5,623.9 1644.5,722.9 1732.9,671.2 1681.3,759.6 1780.3,785.6 1681.3,811.6 1732.9,900 1644.5,848.4 1618.5,947.4 1592.6,848.4 1504.2,900 1555.8,811.6 1456.8,785.6 1555.8,759.6 1504.2,671.2 1592.6,722.9 " fill="#96a396"/><circle cx="1446.1" cy="1006.2" r="7.6" fill="#96a396" opacity="0.51"/><circle cx="2013.1" cy="1003.6" r="6.6" fill="#96a396" opacity="0.88"/><circle cx="1282.7" cy="452.8" r="8.9" fill="#96a396" opacity="0.95"/><circle cx="694.6" cy="1198.3" r="5.5" fill="#96a396" opacity="0.57"/><circle cx="541.7" cy="668.1" r="5.8" fill="#96a396" opacity="0.56"/><circle cx="1997.3" cy="1179.5" r="5.6" fill="#96a396" opacity="0.99"/><circle cx="1073.5" cy="954.4" r="4.1" fill="#96a396" opacity="0.65"/><circle cx="1395.5" cy="1022.5" r="8.8" fill="#96a396" opacity="0.63"/><circle cx="494.3" cy="644.5" r="5.3" fill="#96a396" opacity="0.62"/><circle cx="1926.1" cy="712.2" r="8.4" fill="#96a396" opacity="0.57"/><circle cx="329.6" cy="1119.6" r="6.2" fill="#96a396" opacity="0.98"/><circle cx="1476.6" cy="380.3" r="7.7" fill="#96a396" opacity="0.92"/><circle cx="1732.4" cy="497.7" r="7.7" fill="#96a396" opacity="0.95"/><circle cx="1776.8" cy="761.9" r="5.7" fill="#96a396" opacity="0.94"/><circle cx="741.4" cy="1164.3" r="4.2" fill="#96a396" opacity="0.84"/><path d="M253.1,2480 L287.1,2270.4 L2112.9,2270.4 L2146.9,2480 Z" fill="#39685c"/><line x1="287.1" y1="2273.4" x2="2112.9" y2="2273.4" stroke="#96a396" stroke-width="8" opacity="0.8"/><path d="M489.3,2270.4 L523.3,2060.7 L1876.7,2060.7 L1910.7,2270.4 Z" fill="#39685c"/><line x1="523.3" y1="2063.7" x2="1876.7" y2="2063.7" stroke="#96a396" stroke-width="8" opacity="0.8"/><path d="M681,2060.7 L715,1851.1 L1685,1851.1 L1719,2060.7 Z" fill="#39685c"/><line x1="715" y1="1854.1" x2="1685" y2="1854.1" stroke="#96a396" stroke-width="8" opacity="0.8"/><path d="M824.5,1851.1 L858.5,1641.5 L1541.5,1641.5 L1575.5,1851.1 Z" fill="#39685c"/><line x1="858.5" y1="1644.5" x2="1541.5" y2="1644.5" stroke="#96a396" stroke-width="8" opacity="0.8"/><path d="M910.6,1641.5 L944.6,1431.9 L1455.4,1431.9 L1489.4,1641.5 Z" fill="#39685c"/><line x1="944.6" y1="1434.9" x2="1455.4" y2="1434.9" stroke="#96a396" stroke-width="8" opacity="0.8"/><path d="M988.7,1431.9 L1022.7,1222.2 L1377.3,1222.2 L1411.3,1431.9 Z" fill="#39685c"/><line x1="1022.7" y1="1225.2" x2="1377.3" y2="1225.2" stroke="#96a396" stroke-width="8" opacity="0.8"/><rect x="1120" y="1222.2" width="160" height="1257.8" fill="#39685c"/><line x1="1138" y1="1246.2" x2="1262" y2="1246.2" stroke="#e7e1d3" stroke-width="7" opacity="0.7"/><line x1="1138" y1="1280.2" x2="1262" y2="1280.2" stroke="#e7e1d3" stroke-width="7" opacity="0.7"/><line x1="1138" y1="1314.2" x2="1262" y2="1314.2" stroke="#e7e1d3" stroke-width="7" opacity="0.7"/><line x1="1138" y1="1348.2" x2="1262" y2="1348.2" stroke="#e7e1d3" stroke-width="7" opacity="0.7"/><line x1="1138" y1="1382.2" x2="1262" y2="1382.2" stroke="#e7e1d3" stroke-width="7" opacity="0.7"/><line x1="1138" y1="1416.2" x2="1262" y2="1416.2" stroke="#e7e1d3" stroke-width="7" opacity="0.7"/><line x1="1138" y1="1450.2" x2="1262" y2="1450.2" stroke="#e7e1d3" stroke-width="7" opacity="0.7"/><line x1="1138" y1="1484.2" x2="1262" y2="1484.2" stroke="#e7e1d3" stroke-width="7" opacity="0.7"/><line x1="1138" y1="1518.2" x2="1262" y2="1518.2" stroke="#e7e1d3" stroke-width="7" opacity="0.7"/><line x1="1138" y1="1552.2" x2="1262" y2="1552.2" stroke="#e7e1d3" stroke-width="7" opacity="0.7"/><line x1="1138" y1="1586.2" x2="1262" y2="1586.2" stroke="#e7e1d3" stroke-width="7" opacity="0.7"/><line x1="1138" y1="1620.2" x2="1262" y2="1620.2" stroke="#e7e1d3" stroke-width="7" opacity="0.7"/><line x1="1138" y1="1654.2" x2="1262" y2="1654.2" stroke="#e7e1d3" stroke-width="7" opacity="0.7"/><line x1="1138" y1="1688.2" x2="1262" y2="1688.2" stroke="#e7e1d3" stroke-width="7" opacity="0.7"/><line x1="1138" y1="1722.2" x2="1262" y2="1722.2" stroke="#e7e1d3" stroke-width="7" opacity="0.7"/><line x1="1138" y1="1756.2" x2="1262" y2="1756.2" stroke="#e7e1d3" stroke-width="7" opacity="0.7"/><line x1="1138" y1="1790.2" x2="1262" y2="1790.2" stroke="#e7e1d3" stroke-width="7" opacity="0.7"/><line x1="1138" y1="1824.2" x2="1262" y2="1824.2" stroke="#e7e1d3" stroke-width="7" opacity="0.7"/><line x1="1138" y1="1858.2" x2="1262" y2="1858.2" stroke="#e7e1d3" stroke-width="7" opacity="0.7"/><line x1="1138" y1="1892.2" x2="1262" y2="1892.2" stroke="#e7e1d3" stroke-width="7" opacity="0.7"/><line x1="1138" y1="1926.2" x2="1262" y2="1926.2" stroke="#e7e1d3" stroke-width="7" opacity="0.7"/><line x1="1138" y1="1960.2" x2="1262" y2="1960.2" stroke="#e7e1d3" stroke-width="7" opacity="0.7"/><line x1="1138" y1="1994.2" x2="1262" y2="1994.2" stroke="#e7e1d3" stroke-width="7" opacity="0.7"/><line x1="1138" y1="2028.2" x2="1262" y2="2028.2" stroke="#e7e1d3" stroke-width="7" opacity="0.7"/><line x1="1138" y1="2062.2" x2="1262" y2="2062.2" stroke="#e7e1d3" stroke-width="7" opacity="0.7"/><line x1="1138" y1="2096.2" x2="1262" y2="2096.2" stroke="#e7e1d3" stroke-width="7" opacity="0.7"/><line x1="1138" y1="2130.2" x2="1262" y2="2130.2" stroke="#e7e1d3" stroke-width="7" opacity="0.7"/><line x1="1138" y1="2164.2" x2="1262" y2="2164.2" stroke="#e7e1d3" stroke-width="7" opacity="0.7"/><line x1="1138" y1="2198.2" x2="1262" y2="2198.2" stroke="#e7e1d3" stroke-width="7" opacity="0.7"/><line x1="1138" y1="2232.2" x2="1262" y2="2232.2" stroke="#e7e1d3" stroke-width="7" opacity="0.7"/><line x1="1138" y1="2266.2" x2="1262" y2="2266.2" stroke="#e7e1d3" stroke-width="7" opacity="0.7"/><line x1="1138" y1="2300.2" x2="1262" y2="2300.2" stroke="#e7e1d3" stroke-width="7" opacity="0.7"/><line x1="1138" y1="2334.2" x2="1262" y2="2334.2" stroke="#e7e1d3" stroke-width="7" opacity="0.7"/><line x1="1138" y1="2368.2" x2="1262" y2="2368.2" stroke="#e7e1d3" stroke-width="7" opacity="0.7"/><line x1="1138" y1="2402.2" x2="1262" y2="2402.2" stroke="#e7e1d3" stroke-width="7" opacity="0.7"/><line x1="1138" y1="2436.2" x2="1262" y2="2436.2" stroke="#e7e1d3" stroke-width="7" opacity="0.7"/><line x1="1138" y1="2470.2" x2="1262" y2="2470.2" stroke="#e7e1d3" stroke-width="7" opacity="0.7"/><rect x="1090" y="1092.2" width="220" height="130" fill="#39685c"/><rect x="1166" y="1130.2" width="68" height="92" fill="#e7e1d3" opacity="0.85"/><rect x="150" y="2480" width="2100" height="30" fill="#39685c"/><polyline points="240,252 301.9,190 363.9,252 425.8,190 487.7,252 549.7,190 611.6,252 673.5,190 735.5,252 797.4,190 859.4,252 921.3,190 983.2,252 1045.2,190 1107.1,252 1169,190 1231,252 1292.9,190 1354.8,252 1416.8,190 1478.7,252 1540.6,190 1602.6,252 1664.5,190 1726.5,252 1788.4,190 1850.3,252 1912.3,190 1974.2,252 2036.1,190 2098.1,252 2160,190 " fill="none" stroke="#39685c" stroke-width="11.2" stroke-linejoin="miter"/><polyline points="240,2802 301.9,2740 363.9,2802 425.8,2740 487.7,2802 549.7,2740 611.6,2802 673.5,2740 735.5,2802 797.4,2740 859.4,2802 921.3,2740 983.2,2802 1045.2,2740 1107.1,2802 1169,2740 1231,2802 1292.9,2740 1354.8,2802 1416.8,2740 1478.7,2802 1540.6,2740 1602.6,2802 1664.5,2740 1726.5,2802 1788.4,2740 1850.3,2802 1912.3,2740 1974.2,2802 2036.1,2740 2098.1,2802 2160,2740 " fill="none" stroke="#39685c" stroke-width="11.2" stroke-linejoin="miter"/><rect x="100" y="100" width="2200" height="2800" fill="none" stroke="#39685c" stroke-width="9"/><rect x="142" y="142" width="2116" height="2716" fill="none" stroke="#39685c" stroke-width="3" opacity="0.65"/></svg></svg>