<svg xmlns="http://www.w3.org/2000/svg" width="2400" height="1800" viewBox="0 0 2400 1800"><rect width="2400" height="1800" fill="#e9e1d2"/><rect y="1430" width="2400" height="370" fill="#c8b190"/><line x1="120" y1="1430" x2="60" y2="1800" stroke="#00000018" stroke-width="6"/><line x1="380" y1="1430" x2="320" y2="1800" stroke="#00000018" stroke-width="6"/><line x1="640" y1="1430" x2="580" y2="1800" stroke="#00000018" stroke-width="6"/><line x1="900" y1="1430" x2="840" y2="1800" stroke="#00000018" stroke-width="6"/><line x1="1160" y1="1430" x2="1100" y2="1800" stroke="#00000018" stroke-width="6"/><line x1="1420" y1="1430" x2="1360" y2="1800" stroke="#00000018" stroke-width="6"/><line x1="1680" y1="1430" x2="1620" y2="1800" stroke="#00000018" stroke-width="6"/><line x1="1940" y1="1430" x2="1880" y2="1800" stroke="#00000018" stroke-width="6"/><line x1="2200" y1="1430" x2="2140" y2="1800" stroke="#00000018" stroke-width="6"/><rect y="1418" width="2400" height="16" fill="#d7cbb6"/><rect x="700" y="980" width="1000" height="460" rx="26" fill="#a87e57"/><rect x="660" y="1290" width="1080" height="210" rx="30" fill="#f1ebdf"/><rect x="660" y="1420" width="1080" height="120" rx="24" fill="#c98f4e" opacity="0.85"/><rect x="770" y="1180" width="300" height="150" rx="40" fill="#faf6ec"/><rect x="1330" y="1180" width="300" height="150" rx="40" fill="#7c3a31"/><rect x="640" y="1530" width="1120" height="26" rx="12" fill="#a87e57"/><rect x="360" y="1260" width="240" height="220" rx="10" fill="#a87e57"/><rect x="380" y="1300" width="200" height="14" fill="#00000022"/><line x1="480" y1="1260" x2="480" y2="1130" stroke="#5a4632" stroke-width="12"/><path d="M410,1130 L550,1130 L520,1020 L440,1020 Z" fill="#c98f4e"/><path d="M2060,1520 Q 1910,1282.5 1835,1345" fill="none" stroke="#5d7052" stroke-width="20" stroke-linecap="round"/><path d="M2060,1520 Q 1960,1282.5 1910,1295" fill="none" stroke="#5d7052" stroke-width="20" stroke-linecap="round"/><path d="M2060,1520 Q 2010,1282.5 1985,1245" fill="none" stroke="#5d7052" stroke-width="20" stroke-linecap="round"/><path d="M2060,1520 Q 2060,1282.5 2060,1195" fill="none" stroke="#5d7052" stroke-width="20" stroke-linecap="round"/><path d="M2060,1520 Q 2110,1282.5 2135,1245" fill="none" stroke="#5d7052" stroke-width="20" stroke-linecap="round"/><path d="M2060,1520 Q 2160,1282.5 2210,1295" fill="none" stroke="#5d7052" stroke-width="20" stroke-linecap="round"/><path d="M2060,1520 Q 2210,1282.5 2285,1345" fill="none" stroke="#5d7052" stroke-width="20" stroke-linecap="round"/><path d="M1972.5,1520 L2147.5,1520 L2125,1657.5 L1995,1657.5 Z" fill="#a9714d"/><defs><filter id="a146b-sh" x="-30%" y="-30%" width="160%" height="160%"><feGaussianBlur stdDeviation="16"/></filter></defs><rect x="928" y="246" width="572" height="702" fill="#000" opacity="0.28" filter="url(#a146b-sh)"/><rect x="914" y="224" width="572" height="702" fill="#4a3d2f"/><rect x="930.9" y="240.9" width="538.2" height="668.2" fill="none" stroke="#00000055" stroke-width="3"/><rect x="940" y="250" width="520" height="650" fill="#f6f2ea"/><svg x="979" y="289" width="442" height="572" viewBox="0 0 2400 3000" preserveAspectRatio="xMidYMid slice"><rect width="2400" height="3000" fill="#571f1c"/><radialGradient id="a146-vig" cx="50%" cy="42%" r="80%"><stop offset="55%" stop-color="#000" stop-opacity="0"/><stop offset="100%" stop-color="#000" stop-opacity="0.15"/></radialGradient><rect width="2400" height="3000" fill="url(#a146-vig)"/><circle cx="1742.8" cy="2432.2" r="2" fill="#e9dabe" opacity="0.056"/><circle cx="410.3" cy="1060.7" r="2.5" fill="#e9dabe" opacity="0.073"/><circle cx="788.3" cy="884.8" r="2.2" fill="#e9dabe" opacity="0.073"/><circle cx="2081.1" cy="2900.3" r="4" fill="#e9dabe" opacity="0.034"/><circle cx="1001.9" cy="1912.5" r="2.3" fill="#e9dabe" opacity="0.057"/><circle cx="2330.1" cy="1263.4" r="3.7" fill="#e9dabe" opacity="0.063"/><circle cx="900.9" cy="417.8" r="4.3" fill="#e9dabe" opacity="0.066"/><circle cx="1941.3" cy="123.1" r="2.2" fill="#e9dabe" opacity="0.060"/><circle cx="761.2" cy="1059.1" r="4.1" fill="#e9dabe" opacity="0.078"/><circle cx="1316" cy="2867.8" r="4.3" fill="#e9dabe" opacity="0.061"/><circle cx="717.1" cy="2359.9" r="2.8" fill="#e9dabe" opacity="0.058"/><circle cx="2235" cy="992.8" r="1.7" fill="#e9dabe" opacity="0.055"/><circle cx="2327.1" cy="551.1" r="3.5" fill="#e9dabe" opacity="0.032"/><circle cx="1843.5" cy="1274.1" r="1.5" fill="#e9dabe" opacity="0.075"/><circle cx="1413.7" cy="397.5" r="2.9" fill="#e9dabe" opacity="0.061"/><circle cx="527.4" cy="673.3" r="3.4" fill="#e9dabe" opacity="0.038"/><circle cx="1472" cy="1761.3" r="2.4" fill="#e9dabe" opacity="0.037"/><circle cx="1846.8" cy="1295.1" r="2.5" fill="#e9dabe" opacity="0.032"/><circle cx="652" cy="302.9" r="2.6" fill="#e9dabe" opacity="0.055"/><circle cx="250.9" cy="1426.6" r="1.7" fill="#e9dabe" opacity="0.045"/><circle cx="389" cy="2245.8" r="2.1" fill="#e9dabe" opacity="0.031"/><circle cx="384.2" cy="1222.6" r="3.1" fill="#e9dabe" opacity="0.060"/><circle cx="1055.7" cy="656.7" r="3.5" fill="#e9dabe" opacity="0.039"/><circle cx="837.5" cy="532.1" r="2.1" fill="#e9dabe" opacity="0.058"/><circle cx="2243.1" cy="79.8" r="1.5" fill="#e9dabe" opacity="0.046"/><circle cx="257.2" cy="1683.2" r="4" fill="#e9dabe" opacity="0.043"/><circle cx="1609.4" cy="2661" r="1.7" fill="#e9dabe" opacity="0.073"/><circle cx="508.2" cy="1158.3" r="1.9" fill="#e9dabe" opacity="0.072"/><circle cx="103.3" cy="259.3" r="3.5" fill="#e9dabe" opacity="0.053"/><circle cx="2086.1" cy="2518" r="2.6" fill="#e9dabe" opacity="0.074"/><circle cx="612.4" cy="1189.3" r="2.5" fill="#e9dabe" opacity="0.040"/><circle cx="2252" cy="524.9" r="4.4" fill="#e9dabe" opacity="0.032"/><circle cx="1513.6" cy="352.1" r="2.4" fill="#e9dabe" opacity="0.070"/><circle cx="80.1" cy="2443" r="3.3" fill="#e9dabe" opacity="0.066"/><circle cx="884.9" cy="2743.1" r="3.6" fill="#e9dabe" opacity="0.056"/><circle cx="903.9" cy="1668.4" r="3.7" fill="#e9dabe" opacity="0.062"/><circle cx="2058.3" cy="1857" r="3.5" fill="#e9dabe" opacity="0.031"/><circle cx="343.4" cy="359" r="1.5" fill="#e9dabe" opacity="0.042"/><circle cx="1568.1" cy="1121.6" r="2.5" fill="#e9dabe" opacity="0.039"/><circle cx="921.1" cy="2233.4" r="1.5" fill="#e9dabe" opacity="0.038"/><circle cx="933.3" cy="1334" r="2.4" fill="#e9dabe" opacity="0.070"/><circle cx="1960.8" cy="2083" r="2.6" fill="#e9dabe" opacity="0.043"/><circle cx="1993.3" cy="1466.6" r="1.9" fill="#e9dabe" opacity="0.033"/><circle cx="1921.5" cy="1722.1" r="2.8" fill="#e9dabe" opacity="0.037"/><circle cx="836.7" cy="478.1" r="1.8" fill="#e9dabe" opacity="0.049"/><circle cx="1692.7" cy="2624.3" r="2.1" fill="#e9dabe" opacity="0.072"/><circle cx="1709.6" cy="699.9" r="2" fill="#e9dabe" opacity="0.039"/><circle cx="993.5" cy="162.6" r="2.9" fill="#e9dabe" opacity="0.032"/><circle cx="772.7" cy="1380.1" r="2.9" fill="#e9dabe" opacity="0.046"/><circle cx="1794.5" cy="2284.1" r="2.2" fill="#e9dabe" opacity="0.062"/><circle cx="1182.3" cy="317.6" r="1.9" fill="#e9dabe" opacity="0.067"/><circle cx="1785.7" cy="752.4" r="4.1" fill="#e9dabe" opacity="0.072"/><circle cx="577.5" cy="1191.9" r="3.8" fill="#e9dabe" opacity="0.053"/><circle cx="787.1" cy="2734.5" r="3.9" fill="#e9dabe" opacity="0.035"/><circle cx="1725" cy="772.3" r="2.7" fill="#e9dabe" opacity="0.042"/><circle cx="1609.1" cy="818" r="1.8" fill="#e9dabe" opacity="0.049"/><circle cx="2207.4" cy="721" r="3.2" fill="#e9dabe" opacity="0.063"/><circle cx="1030.2" cy="1882.4" r="2" fill="#e9dabe" opacity="0.049"/><circle cx="345.2" cy="897.8" r="4.2" fill="#e9dabe" opacity="0.047"/><circle cx="1910.9" cy="723.8" r="4.4" fill="#e9dabe" opacity="0.052"/><circle cx="1226.8" cy="2861.4" r="2.1" fill="#e9dabe" opacity="0.065"/><circle cx="740.6" cy="756.6" r="4.2" fill="#e9dabe" opacity="0.054"/><circle cx="623.2" cy="1815.3" r="4.2" fill="#e9dabe" opacity="0.040"/><circle cx="1801.1" cy="2368.3" r="3.3" fill="#e9dabe" opacity="0.055"/><circle cx="1794.7" cy="498.8" r="2.3" fill="#e9dabe" opacity="0.061"/><circle cx="392.2" cy="2072.5" r="3.6" fill="#e9dabe" opacity="0.043"/><circle cx="891.8" cy="1830.9" r="3.4" fill="#e9dabe" opacity="0.039"/><circle cx="952.9" cy="2686.5" r="2.4" fill="#e9dabe" opacity="0.047"/><circle cx="734.4" cy="890" r="1.9" fill="#e9dabe" opacity="0.051"/><circle cx="1008.9" cy="2925.1" r="2.7" fill="#e9dabe" opacity="0.071"/><circle cx="1185.8" cy="2258.7" r="3" fill="#e9dabe" opacity="0.034"/><circle cx="2244.1" cy="1752.6" r="2.6" fill="#e9dabe" opacity="0.079"/><circle cx="996.4" cy="2395.1" r="3.8" fill="#e9dabe" opacity="0.052"/><circle cx="1017" cy="2350.9" r="2" fill="#e9dabe" opacity="0.077"/><circle cx="2110.3" cy="2438.5" r="2.6" fill="#e9dabe" opacity="0.057"/><circle cx="915.8" cy="2031.8" r="2.7" fill="#e9dabe" opacity="0.075"/><circle cx="1911.5" cy="2525.8" r="2.6" fill="#e9dabe" opacity="0.035"/><circle cx="490.2" cy="1043.5" r="1.8" fill="#e9dabe" opacity="0.031"/><circle cx="745.2" cy="1799.9" r="2.1" fill="#e9dabe" opacity="0.055"/><circle cx="584.1" cy="2546.2" r="3.1" fill="#e9dabe" opacity="0.071"/><circle cx="1178.6" cy="883.5" r="327.2" fill="#c98f4e" opacity="0.95"/><line x1="200" y1="2430" x2="2200" y2="2430" stroke="#e9dabe" stroke-width="16"/><rect x="930" y="2340" width="540" height="90" fill="#e9dabe"/><rect x="1005.6" y="2260" width="388.8" height="80" fill="#e9dabe"/><path d="M1065,2260 L1116.3,927.6 L1283.7,927.6 L1335,2260 Z" fill="#e9dabe"/><polygon points="1200,777.6 1116.3,929.6 1283.7,929.6" fill="#c98f4e"/><circle cx="1200" cy="1037.6" r="19.32" fill="#571f1c" opacity="0.9"/><polyline points="1154,1161.6 1177,1135.6 1200,1161.6 1223,1135.6 1246,1161.6 " fill="none" stroke="#571f1c" stroke-width="4.7" stroke-linejoin="miter"/><polygon points="1200,1234.6 1177,1280.6 1223,1280.6" fill="#571f1c" opacity="0.9"/><polyline points="1154,1381.6 1177,1355.6 1200,1381.6 1223,1355.6 1246,1381.6 " fill="none" stroke="#571f1c" stroke-width="4.7" stroke-linejoin="miter"/><circle cx="1200" cy="1477.6" r="18.400000000000002" fill="none" stroke="#571f1c" stroke-width="10" opacity="0.9"/><line x1="1200" y1="1496" x2="1200" y2="1523.6" stroke="#571f1c" stroke-width="10" opacity="0.9"/><circle cx="1200" cy="1587.6" r="18.400000000000002" fill="none" stroke="#571f1c" stroke-width="10" opacity="0.9"/><line x1="1200" y1="1606" x2="1200" y2="1633.6" stroke="#571f1c" stroke-width="10" opacity="0.9"/><circle cx="1200" cy="1697.6" r="19.32" fill="#571f1c" opacity="0.9"/><polyline points="1154,1821.6 1177,1795.6 1200,1821.6 1223,1795.6 1246,1821.6 " fill="none" stroke="#571f1c" stroke-width="4.7" stroke-linejoin="miter"/><circle cx="1200" cy="1917.6" r="18.400000000000002" fill="none" stroke="#571f1c" stroke-width="10" opacity="0.9"/><line x1="1200" y1="1936" x2="1200" y2="1963.6" stroke="#571f1c" stroke-width="10" opacity="0.9"/><circle cx="1200" cy="2027.6" r="18.400000000000002" fill="none" stroke="#571f1c" stroke-width="10" opacity="0.9"/><line x1="1200" y1="2046" x2="1200" y2="2073.6" stroke="#571f1c" stroke-width="10" opacity="0.9"/><rect x="200" y="2770" width="2000" height="13.3" fill="#e9dabe"/><rect x="200" y="2782.8" width="2000" height="13.3" fill="#c98f4e"/><rect x="200" y="2795.6" width="2000" height="13.3" fill="#e9dabe"/><rect x="200" y="2808.4" width="2000" height="13.3" fill="#7c3a31"/><rect x="200" y="2821.2" width="2000" height="13.3" fill="#e9dabe"/><rect x="100" y="100" width="2200" height="2800" fill="none" stroke="#e9dabe" stroke-width="9"/><rect x="142" y="142" width="2116" height="2716" fill="none" stroke="#e9dabe" stroke-width="3" opacity="0.65"/></svg></svg>