<svg xmlns="http://www.w3.org/2000/svg" width="2400" height="1800" viewBox="0 0 2400 1800"><rect width="2400" height="1800" fill="#e3dccd"/><rect x="160" y="240" width="560" height="1060" fill="none" stroke="#cabfa9" stroke-width="10"/><rect x="200" y="280" width="480" height="980" fill="none" stroke="#cabfa9" stroke-width="5"/><rect x="1680" y="240" width="560" height="1060" fill="none" stroke="#cabfa9" stroke-width="10"/><rect x="1720" y="280" width="480" height="980" fill="none" stroke="#cabfa9" stroke-width="5"/><rect y="1380" width="2400" height="420" fill="#a98f6d"/><line x1="0" y1="1380" x2="-70" y2="1800" stroke="#00000018" stroke-width="6"/><line x1="190" y1="1380" x2="120" y2="1800" stroke="#00000018" stroke-width="6"/><line x1="380" y1="1380" x2="310" y2="1800" stroke="#00000018" stroke-width="6"/><line x1="570" y1="1380" x2="500" y2="1800" stroke="#00000018" stroke-width="6"/><line x1="760" y1="1380" x2="690" y2="1800" stroke="#00000018" stroke-width="6"/><line x1="950" y1="1380" x2="880" y2="1800" stroke="#00000018" stroke-width="6"/><line x1="1140" y1="1380" x2="1070" y2="1800" stroke="#00000018" stroke-width="6"/><line x1="1330" y1="1380" x2="1260" y2="1800" stroke="#00000018" stroke-width="6"/><line x1="1520" y1="1380" x2="1450" y2="1800" stroke="#00000018" stroke-width="6"/><line x1="1710" y1="1380" x2="1640" y2="1800" stroke="#00000018" stroke-width="6"/><line x1="1900" y1="1380" x2="1830" y2="1800" stroke="#00000018" stroke-width="6"/><line x1="2090" y1="1380" x2="2020" y2="1800" stroke="#00000018" stroke-width="6"/><line x1="2280" y1="1380" x2="2210" y2="1800" stroke="#00000018" stroke-width="6"/><rect y="1364" width="2400" height="18" fill="#d3c8b2"/><path d="M700,1500 L1700,1500 L1860,1800 L540,1800 Z" fill="#4d84b5" opacity="0.75"/><path d="M760,1540 L1640,1540 L1760,1760 L640,1760 Z" fill="none" stroke="#f4ecdd" stroke-width="10" opacity="0.8"/><rect x="880" y="1180" width="640" height="40" rx="8" fill="#6f5436"/><rect x="920" y="1220" width="44" height="240" fill="#5e4629"/><rect x="1436" y="1220" width="44" height="240" fill="#5e4629"/><path d="M1160,1180 q -14,-90 40,-160 M1200,1180 q 4,-120 -10,-200 M1230,1180 q 30,-90 90,-130" stroke="#5d7052" stroke-width="12" fill="none" stroke-linecap="round"/><path d="M1150,1180 L1250,1180 L1230,1080 L1170,1080 Z" fill="#24486e" transform="translate(0,0)"/><path d="M1155,1060 h90 l-12,124 h-66 Z" fill="#b98a5a"/><rect x="1380" y="1120" width="18" height="60" fill="#8f6b3d"/><ellipse cx="1389" cy="1116" rx="16" ry="10" fill="#c9a227"/><defs><filter id="a158h-sh" x="-30%" y="-30%" width="160%" height="160%"><feGaussianBlur stdDeviation="16"/></filter></defs><rect x="950" y="258" width="528" height="648" fill="#000" opacity="0.28" filter="url(#a158h-sh)"/><rect x="936" y="236" width="528" height="648" fill="#33291f"/><rect x="951.6" y="251.6" width="496.8" height="616.8" fill="none" stroke="#00000055" stroke-width="3"/><rect x="960" y="260" width="480" height="600" fill="#f6f2ea"/><svg x="996" y="296" width="408" height="528" viewBox="0 0 2400 3000" preserveAspectRatio="xMidYMid slice"><rect width="2400" height="3000" fill="#16324f"/><radialGradient id="a158-vig" cx="50%" cy="42%" r="80%"><stop offset="55%" stop-color="#000" stop-opacity="0"/><stop offset="100%" stop-color="#000" stop-opacity="0.15"/></radialGradient><rect width="2400" height="3000" fill="url(#a158-vig)"/><circle cx="250.5" cy="1655.5" r="2.9" fill="#d8b45a" opacity="0.053"/><circle cx="237.6" cy="1736.6" r="4.2" fill="#d8b45a" opacity="0.070"/><circle cx="308.5" cy="1063.9" r="2.1" fill="#d8b45a" opacity="0.038"/><circle cx="418.6" cy="1038.5" r="2.7" fill="#d8b45a" opacity="0.038"/><circle cx="381.6" cy="81.7" r="3.1" fill="#d8b45a" opacity="0.078"/><circle cx="647.1" cy="323.9" r="4" fill="#d8b45a" opacity="0.066"/><circle cx="1067.2" cy="2714.6" r="4.1" fill="#d8b45a" opacity="0.058"/><circle cx="878.6" cy="2948.2" r="3.4" fill="#d8b45a" opacity="0.036"/><circle cx="1725.4" cy="2764.1" r="1.6" fill="#d8b45a" opacity="0.054"/><circle cx="2059.4" cy="486.1" r="2" fill="#d8b45a" opacity="0.030"/><circle cx="609.4" cy="2138.9" r="2.5" fill="#d8b45a" opacity="0.034"/><circle cx="1760.9" cy="1142" r="3.1" fill="#d8b45a" opacity="0.054"/><circle cx="1004.6" cy="372.2" r="1.7" fill="#d8b45a" opacity="0.045"/><circle cx="702.3" cy="170" r="1.6" fill="#d8b45a" opacity="0.079"/><circle cx="1125.6" cy="345.4" r="3.3" fill="#d8b45a" opacity="0.048"/><circle cx="2291.7" cy="2523.3" r="3.6" fill="#d8b45a" opacity="0.050"/><circle cx="1462.4" cy="1321.6" r="2.6" fill="#d8b45a" opacity="0.055"/><circle cx="434.5" cy="1133" r="2.9" fill="#d8b45a" opacity="0.075"/><circle cx="1785.6" cy="2801.3" r="4.4" fill="#d8b45a" opacity="0.045"/><circle cx="2144.6" cy="1832" r="3" fill="#d8b45a" opacity="0.076"/><circle cx="1494.2" cy="1140.9" r="4.4" fill="#d8b45a" opacity="0.062"/><circle cx="139.4" cy="678.5" r="3.9" fill="#d8b45a" opacity="0.065"/><circle cx="816.5" cy="2717.3" r="2.9" fill="#d8b45a" opacity="0.053"/><circle cx="365.2" cy="1896.9" r="3.4" fill="#d8b45a" opacity="0.041"/><circle cx="2219.3" cy="229.9" r="3.2" fill="#d8b45a" opacity="0.049"/><circle cx="783.4" cy="1723.8" r="4.1" fill="#d8b45a" opacity="0.044"/><circle cx="1821.1" cy="1044.8" r="4" fill="#d8b45a" opacity="0.076"/><circle cx="857" cy="1415.2" r="3.8" fill="#d8b45a" opacity="0.034"/><circle cx="404" cy="2654.2" r="3" fill="#d8b45a" opacity="0.039"/><circle cx="1197.9" cy="2781.2" r="2.5" fill="#d8b45a" opacity="0.036"/><circle cx="1306.5" cy="2778.8" r="4" fill="#d8b45a" opacity="0.071"/><circle cx="1740.4" cy="831.3" r="2.9" fill="#d8b45a" opacity="0.039"/><circle cx="2194" cy="2306.9" r="3" fill="#d8b45a" opacity="0.062"/><circle cx="567.8" cy="358.6" r="1.7" fill="#d8b45a" opacity="0.047"/><circle cx="1479.8" cy="471.1" r="4.4" fill="#d8b45a" opacity="0.076"/><circle cx="106" cy="1177.4" r="4.2" fill="#d8b45a" opacity="0.039"/><circle cx="1158.3" cy="1182.1" r="1.6" fill="#d8b45a" opacity="0.065"/><circle cx="1781.2" cy="2539.5" r="3" fill="#d8b45a" opacity="0.036"/><circle cx="51.4" cy="1498.3" r="2.8" fill="#d8b45a" opacity="0.064"/><circle cx="1911.3" cy="2127" r="3.5" fill="#d8b45a" opacity="0.033"/><circle cx="2296.9" cy="1952.1" r="4.2" fill="#d8b45a" opacity="0.045"/><circle cx="514.9" cy="437.1" r="1.6" fill="#d8b45a" opacity="0.049"/><circle cx="820.3" cy="2209.9" r="3.1" fill="#d8b45a" opacity="0.037"/><circle cx="915.1" cy="2665.1" r="4.2" fill="#d8b45a" opacity="0.037"/><circle cx="1530.8" cy="1032.5" r="4.3" fill="#d8b45a" opacity="0.033"/><circle cx="987.5" cy="1341.5" r="4.1" fill="#d8b45a" opacity="0.075"/><circle cx="2246.8" cy="965.3" r="2.9" fill="#d8b45a" opacity="0.068"/><circle cx="753" cy="2248.9" r="2.1" fill="#d8b45a" opacity="0.048"/><circle cx="1113" cy="2470.7" r="1.8" fill="#d8b45a" opacity="0.038"/><circle cx="786.9" cy="1481.6" r="3.6" fill="#d8b45a" opacity="0.058"/><circle cx="595" cy="2878.4" r="3.5" fill="#d8b45a" opacity="0.071"/><circle cx="1949.8" cy="2122.1" r="1.8" fill="#d8b45a" opacity="0.034"/><circle cx="341.1" cy="2704.1" r="2.6" fill="#d8b45a" opacity="0.055"/><circle cx="1185.7" cy="1128.7" r="3.6" fill="#d8b45a" opacity="0.052"/><circle cx="1409" cy="2338.7" r="3.9" fill="#d8b45a" opacity="0.080"/><circle cx="413.3" cy="1113.7" r="2.5" fill="#d8b45a" opacity="0.079"/><circle cx="49.1" cy="2247.9" r="2.8" fill="#d8b45a" opacity="0.065"/><circle cx="302" cy="2078.5" r="2.6" fill="#d8b45a" opacity="0.056"/><circle cx="505.3" cy="1625.2" r="2.2" fill="#d8b45a" opacity="0.037"/><circle cx="2144" cy="1818.2" r="2.6" fill="#d8b45a" opacity="0.066"/><circle cx="2241.3" cy="2381.1" r="1.7" fill="#d8b45a" opacity="0.032"/><circle cx="2139.2" cy="569.3" r="3.6" fill="#d8b45a" opacity="0.046"/><circle cx="1371.9" cy="475" r="3.9" fill="#d8b45a" opacity="0.037"/><circle cx="1504.4" cy="2836.9" r="4.1" fill="#d8b45a" opacity="0.040"/><circle cx="859.6" cy="961.2" r="3.9" fill="#d8b45a" opacity="0.072"/><circle cx="792.2" cy="1085" r="2.7" fill="#d8b45a" opacity="0.066"/><circle cx="820.8" cy="2230.5" r="2.2" fill="#d8b45a" opacity="0.054"/><circle cx="1993.9" cy="2518.7" r="2.4" fill="#d8b45a" opacity="0.047"/><circle cx="2224.3" cy="1260.8" r="4.2" fill="#d8b45a" opacity="0.057"/><circle cx="2333.7" cy="2651.8" r="3" fill="#d8b45a" opacity="0.045"/><circle cx="1801.4" cy="669.2" r="4.1" fill="#d8b45a" opacity="0.061"/><circle cx="2082.8" cy="2866.4" r="4.3" fill="#d8b45a" opacity="0.035"/><circle cx="1985" cy="1477.2" r="3.5" fill="#d8b45a" opacity="0.052"/><circle cx="1835.7" cy="2895.4" r="3.5" fill="#d8b45a" opacity="0.036"/><circle cx="1828.5" cy="2500.4" r="4.2" fill="#d8b45a" opacity="0.070"/><circle cx="1934.5" cy="2546.7" r="4.4" fill="#d8b45a" opacity="0.033"/><circle cx="305.4" cy="2053.2" r="2" fill="#d8b45a" opacity="0.058"/><circle cx="2202.8" cy="354.2" r="4" fill="#d8b45a" opacity="0.032"/><circle cx="2035" cy="1587.4" r="4.3" fill="#d8b45a" opacity="0.079"/><circle cx="1085.7" cy="1087" r="1.8" fill="#d8b45a" opacity="0.046"/><rect x="190" y="2434" width="2020" height="66" fill="#d8b45a" opacity="1"/><rect x="250" y="2368" width="1900" height="66" fill="#d8b45a" opacity="0.92"/><rect x="310" y="2302" width="1780" height="66" fill="#d8b45a" opacity="0.84"/><rect x="316" y="1300" width="108" height="1002" fill="#d8b45a"/><line x1="338.2" y1="1340" x2="338.2" y2="2288" stroke="#16324f" stroke-width="7" opacity="0.5"/><line x1="370" y1="1340" x2="370" y2="2288" stroke="#16324f" stroke-width="7" opacity="0.5"/><line x1="401.8" y1="1340" x2="401.8" y2="2288" stroke="#16324f" stroke-width="7" opacity="0.5"/><rect x="294" y="1260" width="152" height="40" fill="#d8b45a"/><rect x="304" y="2298" width="132" height="30" fill="#d8b45a"/><rect x="731" y="1300" width="108" height="1002" fill="#d8b45a"/><line x1="753.2" y1="1340" x2="753.2" y2="2288" stroke="#16324f" stroke-width="7" opacity="0.5"/><line x1="785" y1="1340" x2="785" y2="2288" stroke="#16324f" stroke-width="7" opacity="0.5"/><line x1="816.8" y1="1340" x2="816.8" y2="2288" stroke="#16324f" stroke-width="7" opacity="0.5"/><rect x="709" y="1260" width="152" height="40" fill="#d8b45a"/><rect x="719" y="2298" width="132" height="30" fill="#d8b45a"/><rect x="1146" y="1300" width="108" height="1002" fill="#d8b45a"/><line x1="1168.2" y1="1340" x2="1168.2" y2="2288" stroke="#16324f" stroke-width="7" opacity="0.5"/><line x1="1200" y1="1340" x2="1200" y2="2288" stroke="#16324f" stroke-width="7" opacity="0.5"/><line x1="1231.8" y1="1340" x2="1231.8" y2="2288" stroke="#16324f" stroke-width="7" opacity="0.5"/><rect x="1124" y="1260" width="152" height="40" fill="#d8b45a"/><rect x="1134" y="2298" width="132" height="30" fill="#d8b45a"/><rect x="1561" y="1300" width="108" height="1002" fill="#d8b45a"/><line x1="1583.2" y1="1340" x2="1583.2" y2="2288" stroke="#16324f" stroke-width="7" opacity="0.5"/><line x1="1615" y1="1340" x2="1615" y2="2288" stroke="#16324f" stroke-width="7" opacity="0.5"/><line x1="1646.8" y1="1340" x2="1646.8" y2="2288" stroke="#16324f" stroke-width="7" opacity="0.5"/><rect x="1539" y="1260" width="152" height="40" fill="#d8b45a"/><rect x="1549" y="2298" width="132" height="30" fill="#d8b45a"/><rect x="1976" y="1300" width="108" height="1002" fill="#d8b45a"/><line x1="1998.2" y1="1340" x2="1998.2" y2="2288" stroke="#16324f" stroke-width="7" opacity="0.5"/><line x1="2030" y1="1340" x2="2030" y2="2288" stroke="#16324f" stroke-width="7" opacity="0.5"/><line x1="2061.8" y1="1340" x2="2061.8" y2="2288" stroke="#16324f" stroke-width="7" opacity="0.5"/><rect x="1954" y="1260" width="152" height="40" fill="#d8b45a"/><rect x="1964" y="2298" width="132" height="30" fill="#d8b45a"/><rect x="240" y="1176" width="1920" height="84" fill="#d8b45a"/><rect x="240" y="1046" width="1920" height="130" fill="#24486e"/><rect x="275" y="1064" width="18" height="94" fill="#d8b45a"/><rect x="301" y="1064" width="18" height="94" fill="#d8b45a"/><rect x="327" y="1064" width="18" height="94" fill="#d8b45a"/><circle cx="421.3" cy="1111" r="30" fill="none" stroke="#d8b45a" stroke-width="10"/><rect x="497.5" y="1064" width="18" height="94" fill="#d8b45a"/><rect x="523.5" y="1064" width="18" height="94" fill="#d8b45a"/><rect x="549.5" y="1064" width="18" height="94" fill="#d8b45a"/><circle cx="643.8" cy="1111" r="30" fill="none" stroke="#d8b45a" stroke-width="10"/><rect x="720" y="1064" width="18" height="94" fill="#d8b45a"/><rect x="746" y="1064" width="18" height="94" fill="#d8b45a"/><rect x="772" y="1064" width="18" height="94" fill="#d8b45a"/><circle cx="866.3" cy="1111" r="30" fill="none" stroke="#d8b45a" stroke-width="10"/><rect x="942.5" y="1064" width="18" height="94" fill="#d8b45a"/><rect x="968.5" y="1064" width="18" height="94" fill="#d8b45a"/><rect x="994.5" y="1064" width="18" height="94" fill="#d8b45a"/><circle cx="1088.8" cy="1111" r="30" fill="none" stroke="#d8b45a" stroke-width="10"/><rect x="1165" y="1064" width="18" height="94" fill="#d8b45a"/><rect x="1191" y="1064" width="18" height="94" fill="#d8b45a"/><rect x="1217" y="1064" width="18" height="94" fill="#d8b45a"/><circle cx="1311.3" cy="1111" r="30" fill="none" stroke="#d8b45a" stroke-width="10"/><rect x="1387.5" y="1064" width="18" height="94" fill="#d8b45a"/><rect x="1413.5" y="1064" width="18" height="94" fill="#d8b45a"/><rect x="1439.5" y="1064" width="18" height="94" fill="#d8b45a"/><circle cx="1533.8" cy="1111" r="30" fill="none" stroke="#d8b45a" stroke-width="10"/><rect x="1610" y="1064" width="18" height="94" fill="#d8b45a"/><rect x="1636" y="1064" width="18" height="94" fill="#d8b45a"/><rect x="1662" y="1064" width="18" height="94" fill="#d8b45a"/><circle cx="1756.3" cy="1111" r="30" fill="none" stroke="#d8b45a" stroke-width="10"/><rect x="1832.5" y="1064" width="18" height="94" fill="#d8b45a"/><rect x="1858.5" y="1064" width="18" height="94" fill="#d8b45a"/><rect x="1884.5" y="1064" width="18" height="94" fill="#d8b45a"/><circle cx="1978.8" cy="1111" r="30" fill="none" stroke="#d8b45a" stroke-width="10"/><rect x="2055" y="1064" width="18" height="94" fill="#d8b45a"/><rect x="2081" y="1064" width="18" height="94" fill="#d8b45a"/><rect x="2107" y="1064" width="18" height="94" fill="#d8b45a"/><rect x="210" y="1000" width="1980" height="46" fill="#d8b45a"/><polygon points="210,1000 1200,665.2 2190,1000" fill="none" stroke="#d8b45a" stroke-width="26"/><polygon points="1200,788 1214.8,844.3 1265.1,814.9 1235.7,865.2 1292,880 1235.7,894.8 1265.1,945.1 1214.8,915.7 1200,972 1185.2,915.7 1134.9,945.1 1164.3,894.8 1108,880 1164.3,865.2 1134.9,814.9 1185.2,844.3 " fill="#4d84b5"/><circle cx="740" cy="930" r="34" fill="#4d84b5"/><circle cx="1660" cy="930" r="34" fill="#4d84b5"/><line x1="1200" y1="655.2" x2="1153.9" y2="613.8" stroke="#d8b45a" stroke-width="13" stroke-linecap="round"/><line x1="1200" y1="655.2" x2="1174.8" y2="598.6" stroke="#d8b45a" stroke-width="13" stroke-linecap="round"/><line x1="1200" y1="655.2" x2="1200" y2="593.2" stroke="#d8b45a" stroke-width="13" stroke-linecap="round"/><line x1="1200" y1="655.2" x2="1225.2" y2="598.6" stroke="#d8b45a" stroke-width="13" stroke-linecap="round"/><line x1="1200" y1="655.2" x2="1246.1" y2="613.8" stroke="#d8b45a" stroke-width="13" stroke-linecap="round"/><line x1="210" y1="990" x2="163.9" y2="948.5" stroke="#d8b45a" stroke-width="13" stroke-linecap="round"/><line x1="210" y1="990" x2="184.8" y2="933.4" stroke="#d8b45a" stroke-width="13" stroke-linecap="round"/><line x1="210" y1="990" x2="210" y2="928" stroke="#d8b45a" stroke-width="13" stroke-linecap="round"/><line x1="210" y1="990" x2="235.2" y2="933.4" stroke="#d8b45a" stroke-width="13" stroke-linecap="round"/><line x1="210" y1="990" x2="256.1" y2="948.5" stroke="#d8b45a" stroke-width="13" stroke-linecap="round"/><line x1="2190" y1="990" x2="2143.9" y2="948.5" stroke="#d8b45a" stroke-width="13" stroke-linecap="round"/><line x1="2190" y1="990" x2="2164.8" y2="933.4" stroke="#d8b45a" stroke-width="13" stroke-linecap="round"/><line x1="2190" y1="990" x2="2190" y2="928" stroke="#d8b45a" stroke-width="13" stroke-linecap="round"/><line x1="2190" y1="990" x2="2215.2" y2="933.4" stroke="#d8b45a" stroke-width="13" stroke-linecap="round"/><line x1="2190" y1="990" x2="2236.1" y2="948.5" stroke="#d8b45a" stroke-width="13" stroke-linecap="round"/><path d="M324.7,2797.3 L 395.3,2797.3 L 395.3,2726.7 L 339.8,2726.7 L 339.8,2770.4 L 368.4,2770.4 L 368.4,2748.6 M408.7,2797.3 L 479.3,2797.3 L 479.3,2726.7 L 423.8,2726.7 L 423.8,2770.4 L 452.4,2770.4 L 452.4,2748.6 M492.7,2797.3 L 563.3,2797.3 L 563.3,2726.7 L 507.8,2726.7 L 507.8,2770.4 L 536.4,2770.4 L 536.4,2748.6 M576.7,2797.3 L 647.3,2797.3 L 647.3,2726.7 L 591.8,2726.7 L 591.8,2770.4 L 620.4,2770.4 L 620.4,2748.6 M660.7,2797.3 L 731.3,2797.3 L 731.3,2726.7 L 675.8,2726.7 L 675.8,2770.4 L 704.4,2770.4 L 704.4,2748.6 M744.7,2797.3 L 815.3,2797.3 L 815.3,2726.7 L 759.8,2726.7 L 759.8,2770.4 L 788.4,2770.4 L 788.4,2748.6 M828.7,2797.3 L 899.3,2797.3 L 899.3,2726.7 L 843.8,2726.7 L 843.8,2770.4 L 872.4,2770.4 L 872.4,2748.6 M912.7,2797.3 L 983.3,2797.3 L 983.3,2726.7 L 927.8,2726.7 L 927.8,2770.4 L 956.4,2770.4 L 956.4,2748.6 M996.7,2797.3 L 1067.3,2797.3 L 1067.3,2726.7 L 1011.8,2726.7 L 1011.8,2770.4 L 1040.4,2770.4 L 1040.4,2748.6 M1080.7,2797.3 L 1151.3,2797.3 L 1151.3,2726.7 L 1095.8,2726.7 L 1095.8,2770.4 L 1124.4,2770.4 L 1124.4,2748.6 M1164.7,2797.3 L 1235.3,2797.3 L 1235.3,2726.7 L 1179.8,2726.7 L 1179.8,2770.4 L 1208.4,2770.4 L 1208.4,2748.6 M1248.7,2797.3 L 1319.3,2797.3 L 1319.3,2726.7 L 1263.8,2726.7 L 1263.8,2770.4 L 1292.4,2770.4 L 1292.4,2748.6 M1332.7,2797.3 L 1403.3,2797.3 L 1403.3,2726.7 L 1347.8,2726.7 L 1347.8,2770.4 L 1376.4,2770.4 L 1376.4,2748.6 M1416.7,2797.3 L 1487.3,2797.3 L 1487.3,2726.7 L 1431.8,2726.7 L 1431.8,2770.4 L 1460.4,2770.4 L 1460.4,2748.6 M1500.7,2797.3 L 1571.3,2797.3 L 1571.3,2726.7 L 1515.8,2726.7 L 1515.8,2770.4 L 1544.4,2770.4 L 1544.4,2748.6 M1584.7,2797.3 L 1655.3,2797.3 L 1655.3,2726.7 L 1599.8,2726.7 L 1599.8,2770.4 L 1628.4,2770.4 L 1628.4,2748.6 M1668.7,2797.3 L 1739.3,2797.3 L 1739.3,2726.7 L 1683.8,2726.7 L 1683.8,2770.4 L 1712.4,2770.4 L 1712.4,2748.6 M1752.7,2797.3 L 1823.3,2797.3 L 1823.3,2726.7 L 1767.8,2726.7 L 1767.8,2770.4 L 1796.4,2770.4 L 1796.4,2748.6 M1836.7,2797.3 L 1907.3,2797.3 L 1907.3,2726.7 L 1851.8,2726.7 L 1851.8,2770.4 L 1880.4,2770.4 L 1880.4,2748.6 M1920.7,2797.3 L 1991.3,2797.3 L 1991.3,2726.7 L 1935.8,2726.7 L 1935.8,2770.4 L 1964.4,2770.4 L 1964.4,2748.6 M2004.7,2797.3 L 2075.3,2797.3 L 2075.3,2726.7 L 2019.8,2726.7 L 2019.8,2770.4 L 2048.4,2770.4 L 2048.4,2748.6 " fill="none" stroke="#d8b45a" stroke-width="10.9"/><rect x="100" y="100" width="2200" height="2800" fill="none" stroke="#d8b45a" stroke-width="9"/><rect x="142" y="142" width="2116" height="2716" fill="none" stroke="#d8b45a" stroke-width="3" opacity="0.65"/></svg></svg>