<svg xmlns="http://www.w3.org/2000/svg" width="2400" height="1800" viewBox="0 0 2400 1800"><rect width="2400" height="1800" fill="#e9e1d2"/><rect y="1430" width="2400" height="370" fill="#c8b190"/><line x1="120" y1="1430" x2="60" y2="1800" stroke="#00000018" stroke-width="6"/><line x1="380" y1="1430" x2="320" y2="1800" stroke="#00000018" stroke-width="6"/><line x1="640" y1="1430" x2="580" y2="1800" stroke="#00000018" stroke-width="6"/><line x1="900" y1="1430" x2="840" y2="1800" stroke="#00000018" stroke-width="6"/><line x1="1160" y1="1430" x2="1100" y2="1800" stroke="#00000018" stroke-width="6"/><line x1="1420" y1="1430" x2="1360" y2="1800" stroke="#00000018" stroke-width="6"/><line x1="1680" y1="1430" x2="1620" y2="1800" stroke="#00000018" stroke-width="6"/><line x1="1940" y1="1430" x2="1880" y2="1800" stroke="#00000018" stroke-width="6"/><line x1="2200" y1="1430" x2="2140" y2="1800" stroke="#00000018" stroke-width="6"/><rect y="1418" width="2400" height="16" fill="#d7cbb6"/><rect x="700" y="980" width="1000" height="460" rx="26" fill="#a87e57"/><rect x="660" y="1290" width="1080" height="210" rx="30" fill="#f1ebdf"/><rect x="660" y="1420" width="1080" height="120" rx="24" fill="#4a7457" opacity="0.85"/><rect x="770" y="1180" width="300" height="150" rx="40" fill="#faf6ec"/><rect x="1330" y="1180" width="300" height="150" rx="40" fill="#b19b6e"/><rect x="640" y="1530" width="1120" height="26" rx="12" fill="#a87e57"/><rect x="360" y="1260" width="240" height="220" rx="10" fill="#a87e57"/><rect x="380" y="1300" width="200" height="14" fill="#00000022"/><line x1="480" y1="1260" x2="480" y2="1130" stroke="#5a4632" stroke-width="12"/><path d="M410,1130 L550,1130 L520,1020 L440,1020 Z" fill="#4a7457"/><path d="M2060,1520 Q 1910,1282.5 1835,1345" fill="none" stroke="#5d7052" stroke-width="20" stroke-linecap="round"/><path d="M2060,1520 Q 1960,1282.5 1910,1295" fill="none" stroke="#5d7052" stroke-width="20" stroke-linecap="round"/><path d="M2060,1520 Q 2010,1282.5 1985,1245" fill="none" stroke="#5d7052" stroke-width="20" stroke-linecap="round"/><path d="M2060,1520 Q 2060,1282.5 2060,1195" fill="none" stroke="#5d7052" stroke-width="20" stroke-linecap="round"/><path d="M2060,1520 Q 2110,1282.5 2135,1245" fill="none" stroke="#5d7052" stroke-width="20" stroke-linecap="round"/><path d="M2060,1520 Q 2160,1282.5 2210,1295" fill="none" stroke="#5d7052" stroke-width="20" stroke-linecap="round"/><path d="M2060,1520 Q 2210,1282.5 2285,1345" fill="none" stroke="#5d7052" stroke-width="20" stroke-linecap="round"/><path d="M1972.5,1520 L2147.5,1520 L2125,1657.5 L1995,1657.5 Z" fill="#a9714d"/><defs><filter id="a178b-sh" x="-30%" y="-30%" width="160%" height="160%"><feGaussianBlur stdDeviation="16"/></filter></defs><rect x="928" y="246" width="572" height="702" fill="#000" opacity="0.28" filter="url(#a178b-sh)"/><rect x="914" y="224" width="572" height="702" fill="#4a3d2f"/><rect x="930.9" y="240.9" width="538.2" height="668.2" fill="none" stroke="#00000055" stroke-width="3"/><rect x="940" y="250" width="520" height="650" fill="#f6f2ea"/><svg x="979" y="289" width="442" height="572" viewBox="0 0 2400 3000" preserveAspectRatio="xMidYMid slice"><filter id="a178-warp" x="-4%" y="-4%" width="108%" height="108%"><feTurbulence type="fractalNoise" baseFrequency="0.0105" numOctaves="2" seed="6116" result="w"/><feDisplacementMap in="SourceGraphic" in2="w" scale="11" xChannelSelector="R" yChannelSelector="G"/></filter><filter id="a178-grain" x="0%" y="0%" width="100%" height="100%"><feTurbulence type="fractalNoise" baseFrequency="0.6" numOctaves="2" seed="6123"/><feColorMatrix type="matrix" values="0.33 0.33 0.33 0 0.62  0.33 0.33 0.33 0 0.62  0.33 0.33 0.33 0 0.62  0 0 0 0 1"/></filter><filter id="a178-mottle" x="0%" y="0%" width="100%" height="100%"><feTurbulence type="fractalNoise" baseFrequency="0.0045" numOctaves="3" seed="6129"/><feColorMatrix type="matrix" values="0.2 0.2 0.2 0 0.78  0.2 0.2 0.2 0 0.78  0.2 0.2 0.2 0 0.78  0 0 0 0 1"/></filter><filter id="a178-fade" x="0%" y="0%" width="100%" height="100%"><feTurbulence type="fractalNoise" baseFrequency="0.006" numOctaves="2" seed="6145"/><feColorMatrix type="matrix" values="0.3 0.3 0.3 0 -0.08  0.3 0.3 0.3 0 -0.08  0.3 0.3 0.3 0 -0.1  0 0 0 0 1"/></filter><filter id="a178-blur9"><feGaussianBlur stdDeviation="9"/></filter><radialGradient id="a178-vig" cx="50%" cy="44%" r="78%"><stop offset="52%" stop-color="#241a10" stop-opacity="0"/><stop offset="100%" stop-color="#241a10" stop-opacity="0.17"/></radialGradient><radialGradient id="a178-warm" cx="66%" cy="30%" r="85%"><stop offset="0%" stop-color="#e8c890" stop-opacity="0.14"/><stop offset="70%" stop-color="#e8c890" stop-opacity="0"/></radialGradient><rect width="2400" height="3000" fill="#d5bf94"/><rect width="2400" height="3000" fill="url(#a178-warm)"/><rect x="0" width="31.3" height="3000" fill="#6b4e26" opacity="0.069"/><rect x="43.4" width="19.8" height="3000" fill="#6b4e26" opacity="0.036"/><rect x="71" width="42.4" height="3000" fill="#6b4e26" opacity="0.079"/><rect x="129.8" width="24.9" height="3000" fill="#6b4e26" opacity="0.032"/><rect x="164.4" width="33.4" height="3000" fill="#6b4e26" opacity="0.095"/><rect x="210.9" width="19" height="3000" fill="#6b4e26" opacity="0.063"/><rect x="237.2" width="19.3" height="3000" fill="#6b4e26" opacity="0.076"/><rect x="263.9" width="37" height="3000" fill="#6b4e26" opacity="0.086"/><rect x="315.3" width="29.6" height="3000" fill="#6b4e26" opacity="0.092"/><rect x="356.4" width="24.9" height="3000" fill="#6b4e26" opacity="0.088"/><rect x="391" width="21.3" height="3000" fill="#6b4e26" opacity="0.096"/><rect x="420.7" width="26" height="3000" fill="#6b4e26" opacity="0.036"/><rect x="456.8" width="29.8" height="3000" fill="#6b4e26" opacity="0.085"/><rect x="498.2" width="25.2" height="3000" fill="#6b4e26" opacity="0.070"/><rect x="533.1" width="40.8" height="3000" fill="#6b4e26" opacity="0.044"/><rect x="589.8" width="24.2" height="3000" fill="#6b4e26" opacity="0.086"/><rect x="623.3" width="35.2" height="3000" fill="#6b4e26" opacity="0.093"/><rect x="672.2" width="36.6" height="3000" fill="#6b4e26" opacity="0.066"/><rect x="723" width="24.3" height="3000" fill="#6b4e26" opacity="0.093"/><rect x="756.8" width="27.1" height="3000" fill="#6b4e26" opacity="0.058"/><rect x="794.4" width="38.3" height="3000" fill="#6b4e26" opacity="0.070"/><rect x="847.6" width="30.7" height="3000" fill="#6b4e26" opacity="0.035"/><rect x="890.3" width="24.5" height="3000" fill="#6b4e26" opacity="0.082"/><rect x="924.3" width="40.3" height="3000" fill="#6b4e26" opacity="0.079"/><rect x="980.3" width="30" height="3000" fill="#6b4e26" opacity="0.084"/><rect x="1022" width="36.3" height="3000" fill="#6b4e26" opacity="0.099"/><rect x="1072.4" width="19.4" height="3000" fill="#6b4e26" opacity="0.051"/><rect x="1099.4" width="20.3" height="3000" fill="#6b4e26" opacity="0.039"/><rect x="1127.6" width="23.5" height="3000" fill="#6b4e26" opacity="0.072"/><rect x="1160.3" width="38.5" height="3000" fill="#6b4e26" opacity="0.036"/><rect x="1213.8" width="29.5" height="3000" fill="#6b4e26" opacity="0.079"/><rect x="1254.7" width="21.5" height="3000" fill="#6b4e26" opacity="0.085"/><rect x="1284.6" width="41.9" height="3000" fill="#6b4e26" opacity="0.085"/><rect x="1342.7" width="29" height="3000" fill="#6b4e26" opacity="0.098"/><rect x="1383" width="29.4" height="3000" fill="#6b4e26" opacity="0.093"/><rect x="1423.8" width="27.6" height="3000" fill="#6b4e26" opacity="0.091"/><rect x="1462.2" width="39.6" height="3000" fill="#6b4e26" opacity="0.037"/><rect x="1517.3" width="31.1" height="3000" fill="#6b4e26" opacity="0.037"/><rect x="1560.4" width="20.9" height="3000" fill="#6b4e26" opacity="0.090"/><rect x="1589.4" width="30.1" height="3000" fill="#6b4e26" opacity="0.057"/><rect x="1631.2" width="19.2" height="3000" fill="#6b4e26" opacity="0.036"/><rect x="1657.9" width="42" height="3000" fill="#6b4e26" opacity="0.063"/><rect x="1716.3" width="38.6" height="3000" fill="#6b4e26" opacity="0.092"/><rect x="1769.8" width="31.5" height="3000" fill="#6b4e26" opacity="0.053"/><rect x="1813.6" width="34.5" height="3000" fill="#6b4e26" opacity="0.044"/><rect x="1861.5" width="40.4" height="3000" fill="#6b4e26" opacity="0.035"/><rect x="1917.6" width="42.9" height="3000" fill="#6b4e26" opacity="0.095"/><rect x="1977.2" width="35.1" height="3000" fill="#6b4e26" opacity="0.085"/><rect x="2025.9" width="34.3" height="3000" fill="#6b4e26" opacity="0.078"/><rect x="2073.6" width="35.5" height="3000" fill="#6b4e26" opacity="0.049"/><rect x="2122.8" width="38.8" height="3000" fill="#6b4e26" opacity="0.081"/><rect x="2176.7" width="42.3" height="3000" fill="#6b4e26" opacity="0.042"/><rect x="2235.4" width="26.7" height="3000" fill="#6b4e26" opacity="0.076"/><rect x="2272.6" width="23.8" height="3000" fill="#6b4e26" opacity="0.089"/><rect x="2305.7" width="40.4" height="3000" fill="#6b4e26" opacity="0.040"/><rect x="2361.8" width="35.5" height="3000" fill="#6b4e26" opacity="0.061"/><rect y="0" width="2400" height="18.7" fill="#7c5c30" opacity="0.051"/><rect y="31.1" width="2400" height="18.8" fill="#7c5c30" opacity="0.021"/><rect y="62.5" width="2400" height="26.7" fill="#7c5c30" opacity="0.034"/><rect y="107" width="2400" height="20.7" fill="#7c5c30" opacity="0.042"/><rect y="141.5" width="2400" height="17.6" fill="#7c5c30" opacity="0.030"/><rect y="170.9" width="2400" height="17.6" fill="#7c5c30" opacity="0.029"/><rect y="200.2" width="2400" height="13.2" fill="#7c5c30" opacity="0.024"/><rect y="222.2" width="2400" height="20.2" fill="#7c5c30" opacity="0.038"/><rect y="255.8" width="2400" height="13.2" fill="#7c5c30" opacity="0.038"/><rect y="277.8" width="2400" height="27.8" fill="#7c5c30" opacity="0.059"/><rect y="324" width="2400" height="16.1" fill="#7c5c30" opacity="0.049"/><rect y="350.8" width="2400" height="19.3" fill="#7c5c30" opacity="0.042"/><rect y="383" width="2400" height="21" fill="#7c5c30" opacity="0.038"/><rect y="418" width="2400" height="27.8" fill="#7c5c30" opacity="0.056"/><rect y="464.2" width="2400" height="18" fill="#7c5c30" opacity="0.042"/><rect y="494.2" width="2400" height="27.8" fill="#7c5c30" opacity="0.038"/><rect y="540.5" width="2400" height="20.6" fill="#7c5c30" opacity="0.050"/><rect y="574.8" width="2400" height="19.2" fill="#7c5c30" opacity="0.054"/><rect y="606.9" width="2400" height="17.5" fill="#7c5c30" opacity="0.039"/><rect y="636" width="2400" height="19.9" fill="#7c5c30" opacity="0.043"/><rect y="669.2" width="2400" height="17.7" fill="#7c5c30" opacity="0.040"/><rect y="698.8" width="2400" height="24.8" fill="#7c5c30" opacity="0.042"/><rect y="740.1" width="2400" height="24.4" fill="#7c5c30" opacity="0.055"/><rect y="780.7" width="2400" height="18.3" fill="#7c5c30" opacity="0.029"/><rect y="811.2" width="2400" height="28.2" fill="#7c5c30" opacity="0.032"/><rect y="858.2" width="2400" height="21.5" fill="#7c5c30" opacity="0.024"/><rect y="894.1" width="2400" height="15.7" fill="#7c5c30" opacity="0.030"/><rect y="920.3" width="2400" height="14.1" fill="#7c5c30" opacity="0.027"/><rect y="943.8" width="2400" height="22.4" fill="#7c5c30" opacity="0.024"/><rect y="981.1" width="2400" height="25.4" fill="#7c5c30" opacity="0.038"/><rect y="1023.5" width="2400" height="23" fill="#7c5c30" opacity="0.023"/><rect y="1061.8" width="2400" height="16.6" fill="#7c5c30" opacity="0.048"/><rect y="1089.4" width="2400" height="16.4" fill="#7c5c30" opacity="0.038"/><rect y="1116.8" width="2400" height="22.9" fill="#7c5c30" opacity="0.052"/><rect y="1155" width="2400" height="27.4" fill="#7c5c30" opacity="0.033"/><rect y="1200.7" width="2400" height="23.6" fill="#7c5c30" opacity="0.055"/><rect y="1240" width="2400" height="16.7" fill="#7c5c30" opacity="0.051"/><rect y="1267.9" width="2400" height="17.8" fill="#7c5c30" opacity="0.056"/><rect y="1297.6" width="2400" height="16" fill="#7c5c30" opacity="0.053"/><rect y="1324.2" width="2400" height="27" fill="#7c5c30" opacity="0.057"/><rect y="1369.3" width="2400" height="23.7" fill="#7c5c30" opacity="0.038"/><rect y="1408.9" width="2400" height="24.5" fill="#7c5c30" opacity="0.054"/><rect y="1449.8" width="2400" height="23.4" fill="#7c5c30" opacity="0.042"/><rect y="1488.7" width="2400" height="27.8" fill="#7c5c30" opacity="0.036"/><rect y="1535.1" width="2400" height="25.6" fill="#7c5c30" opacity="0.031"/><rect y="1577.8" width="2400" height="16.9" fill="#7c5c30" opacity="0.047"/><rect y="1605.9" width="2400" height="27.3" fill="#7c5c30" opacity="0.031"/><rect y="1651.4" width="2400" height="20" fill="#7c5c30" opacity="0.034"/><rect y="1684.6" width="2400" height="27.4" fill="#7c5c30" opacity="0.043"/><rect y="1730.4" width="2400" height="12.1" fill="#7c5c30" opacity="0.052"/><rect y="1750.6" width="2400" height="17.5" fill="#7c5c30" opacity="0.059"/><rect y="1779.7" width="2400" height="20.5" fill="#7c5c30" opacity="0.028"/><rect y="1813.9" width="2400" height="12.9" fill="#7c5c30" opacity="0.022"/><rect y="1835.4" width="2400" height="20.1" fill="#7c5c30" opacity="0.039"/><rect y="1868.9" width="2400" height="15.3" fill="#7c5c30" opacity="0.020"/><rect y="1894.4" width="2400" height="25" fill="#7c5c30" opacity="0.050"/><rect y="1936.1" width="2400" height="24.5" fill="#7c5c30" opacity="0.021"/><rect y="1976.9" width="2400" height="14.1" fill="#7c5c30" opacity="0.040"/><rect y="2000.5" width="2400" height="28.1" fill="#7c5c30" opacity="0.029"/><rect y="2047.3" width="2400" height="28.1" fill="#7c5c30" opacity="0.034"/><rect y="2094.1" width="2400" height="16.5" fill="#7c5c30" opacity="0.040"/><rect y="2121.5" width="2400" height="13.5" fill="#7c5c30" opacity="0.050"/><rect y="2144" width="2400" height="27.1" fill="#7c5c30" opacity="0.024"/><rect y="2189.1" width="2400" height="16.2" fill="#7c5c30" opacity="0.032"/><rect y="2216.2" width="2400" height="22.1" fill="#7c5c30" opacity="0.057"/><rect y="2253" width="2400" height="21.8" fill="#7c5c30" opacity="0.041"/><rect y="2289.4" width="2400" height="15.4" fill="#7c5c30" opacity="0.040"/><rect y="2315.1" width="2400" height="27.2" fill="#7c5c30" opacity="0.040"/><rect y="2360.5" width="2400" height="28" fill="#7c5c30" opacity="0.046"/><rect y="2407.2" width="2400" height="24.8" fill="#7c5c30" opacity="0.057"/><rect y="2448.6" width="2400" height="21" fill="#7c5c30" opacity="0.041"/><rect y="2483.7" width="2400" height="20.3" fill="#7c5c30" opacity="0.033"/><rect y="2517.5" width="2400" height="14.5" fill="#7c5c30" opacity="0.042"/><rect y="2541.6" width="2400" height="15.5" fill="#7c5c30" opacity="0.043"/><rect y="2567.4" width="2400" height="28.5" fill="#7c5c30" opacity="0.057"/><rect y="2614.9" width="2400" height="14" fill="#7c5c30" opacity="0.042"/><rect y="2638.3" width="2400" height="12.2" fill="#7c5c30" opacity="0.047"/><rect y="2658.5" width="2400" height="21.4" fill="#7c5c30" opacity="0.058"/><rect y="2694.2" width="2400" height="16.6" fill="#7c5c30" opacity="0.051"/><rect y="2721.8" width="2400" height="19.2" fill="#7c5c30" opacity="0.050"/><rect y="2753.8" width="2400" height="24.8" fill="#7c5c30" opacity="0.022"/><rect y="2795.2" width="2400" height="16.2" fill="#7c5c30" opacity="0.039"/><rect y="2822.1" width="2400" height="20.6" fill="#7c5c30" opacity="0.052"/><rect y="2856.4" width="2400" height="20.6" fill="#7c5c30" opacity="0.034"/><rect y="2890.8" width="2400" height="21.9" fill="#7c5c30" opacity="0.041"/><rect y="2927.2" width="2400" height="20.4" fill="#7c5c30" opacity="0.030"/><rect y="2961.2" width="2400" height="23.6" fill="#7c5c30" opacity="0.036"/><g filter="url(#a178-warp)"><rect x="190" y="190" width="2020" height="2620" fill="none" stroke="#302b22" stroke-width="14"/><rect x="260" y="260" width="1880" height="2480" fill="none" stroke="#302b22" stroke-width="7"/><rect x="148" y="148" width="84" height="84" fill="#4a7457"/><rect x="148" y="2768" width="84" height="84" fill="#4a7457"/><rect x="2168" y="148" width="84" height="84" fill="#4a7457"/><rect x="2168" y="2768" width="84" height="84" fill="#4a7457"/><ellipse cx="1200" cy="960" rx="230" ry="300" fill="none" stroke="#302b22" stroke-width="110"/><rect x="1148" y="1230" width="104" height="900" rx="40" fill="#302b22"/><rect x="800" y="1230" width="800" height="104" rx="40" fill="#302b22"/><circle cx="1200" cy="960" r="66" fill="#4a7457"/><polygon points="1133.4,522.1 1140.8,540.9 1159.6,548.3 1140.8,555.7 1133.4,574.5 1125.9,555.7 1107.1,548.3 1125.9,540.9 " fill="#4a7457"/><polygon points="1632.2,2452.2 1643.5,2480.8 1672.1,2492.1 1643.5,2503.4 1632.2,2532.1 1620.9,2503.4 1592.2,2492.1 1620.9,2480.8 " fill="#4a7457"/><polygon points="754.8,2443.2 763.9,2466.2 786.9,2475.3 763.9,2484.4 754.8,2507.5 745.7,2484.4 722.6,2475.3 745.7,2466.2 " fill="#4a7457"/><polygon points="1244,392.1 1253.7,416.7 1278.4,426.4 1253.7,436.2 1244,460.8 1234.3,436.2 1209.6,426.4 1234.3,416.7 " fill="#4a7457"/><polygon points="1742.2,2492.6 1753.3,2520.7 1781.4,2531.8 1753.3,2542.8 1742.2,2570.9 1731.1,2542.8 1703,2531.8 1731.1,2520.7 " fill="#4a7457"/><polygon points="541.2,2562.9 552.9,2592.6 582.6,2604.3 552.9,2616.1 541.2,2645.8 529.4,2616.1 499.7,2604.3 529.4,2592.6 " fill="#4a7457"/><rect x="120" y="120" width="2160" height="2760" fill="none" stroke="#302b22" stroke-width="6" opacity="0.85"/></g><rect width="2400" height="3000" filter="url(#a178-mottle)" style="mix-blend-mode:multiply" opacity="0.5"/><rect width="2400" height="3000" filter="url(#a178-fade)" style="mix-blend-mode:screen" opacity="0.55"/><rect width="2400" height="3000" filter="url(#a178-grain)" style="mix-blend-mode:multiply" opacity="0.32"/><ellipse cx="658.5" cy="1812.1" rx="263.7" ry="218.3" fill="#6b4a22" opacity="0.029" filter="url(#a178-blur9)"/><ellipse cx="1574.9" cy="2601.1" rx="252.4" ry="195.8" fill="#6b4a22" opacity="0.046" filter="url(#a178-blur9)"/><ellipse cx="398.3" cy="161.2" rx="295" ry="235.6" fill="#6b4a22" opacity="0.069" filter="url(#a178-blur9)"/><ellipse cx="352.8" cy="1848.1" rx="169.9" ry="103" fill="#6b4a22" opacity="0.053" filter="url(#a178-blur9)"/><ellipse cx="1141.9" cy="2096.1" rx="125.2" ry="96.2" fill="#6b4a22" opacity="0.028" filter="url(#a178-blur9)"/><rect x="0" width="33.7" height="3000" fill="#fff2d0" opacity="0.022"/><rect x="67.3" width="34.9" height="3000" fill="#fff2d0" opacity="0.038"/><rect x="137.2" width="17.2" height="3000" fill="#fff2d0" opacity="0.045"/><rect x="171.6" width="22.9" height="3000" fill="#fff2d0" opacity="0.034"/><rect x="217.4" width="21.5" height="3000" fill="#fff2d0" opacity="0.030"/><rect x="260.4" width="29.6" height="3000" fill="#fff2d0" opacity="0.029"/><rect x="319.6" width="32.3" height="3000" fill="#fff2d0" opacity="0.032"/><rect x="384.3" width="27.2" height="3000" fill="#fff2d0" opacity="0.033"/><rect x="438.7" width="17.9" height="3000" fill="#fff2d0" opacity="0.031"/><rect x="474.6" width="34.2" height="3000" fill="#fff2d0" opacity="0.036"/><rect x="542.9" width="26.2" height="3000" fill="#fff2d0" opacity="0.039"/><rect x="595.2" width="28.1" height="3000" fill="#fff2d0" opacity="0.036"/><rect x="651.5" width="26.1" height="3000" fill="#fff2d0" opacity="0.021"/><rect x="703.7" width="24.1" height="3000" fill="#fff2d0" opacity="0.031"/><rect x="752" width="28.3" height="3000" fill="#fff2d0" opacity="0.042"/><rect x="808.6" width="29.6" height="3000" fill="#fff2d0" opacity="0.030"/><rect x="867.8" width="17.8" height="3000" fill="#fff2d0" opacity="0.043"/><rect x="903.4" width="19.7" height="3000" fill="#fff2d0" opacity="0.021"/><rect x="942.9" width="25.7" height="3000" fill="#fff2d0" opacity="0.028"/><rect x="994.2" width="17.7" height="3000" fill="#fff2d0" opacity="0.021"/><rect x="1029.7" width="17.2" height="3000" fill="#fff2d0" opacity="0.044"/><rect x="1064.2" width="22.3" height="3000" fill="#fff2d0" opacity="0.035"/><rect x="1108.8" width="27" height="3000" fill="#fff2d0" opacity="0.020"/><rect x="1162.8" width="25.1" height="3000" fill="#fff2d0" opacity="0.032"/><rect x="1213.1" width="28.8" height="3000" fill="#fff2d0" opacity="0.040"/><rect x="1270.7" width="15.7" height="3000" fill="#fff2d0" opacity="0.019"/><rect x="1302.1" width="24.5" height="3000" fill="#fff2d0" opacity="0.021"/><rect x="1351" width="25.6" height="3000" fill="#fff2d0" opacity="0.034"/><rect x="1402.1" width="17.5" height="3000" fill="#fff2d0" opacity="0.041"/><rect x="1437.2" width="34" height="3000" fill="#fff2d0" opacity="0.042"/><rect x="1505.2" width="27" height="3000" fill="#fff2d0" opacity="0.041"/><rect x="1559.2" width="32.7" height="3000" fill="#fff2d0" opacity="0.038"/><rect x="1624.6" width="18.5" height="3000" fill="#fff2d0" opacity="0.024"/><rect x="1661.6" width="29.8" height="3000" fill="#fff2d0" opacity="0.043"/><rect x="1721.3" width="16.9" height="3000" fill="#fff2d0" opacity="0.033"/><rect x="1755" width="27.8" height="3000" fill="#fff2d0" opacity="0.036"/><rect x="1810.6" width="15.3" height="3000" fill="#fff2d0" opacity="0.017"/><rect x="1841.1" width="33.4" height="3000" fill="#fff2d0" opacity="0.022"/><rect x="1907.9" width="30.3" height="3000" fill="#fff2d0" opacity="0.020"/><rect x="1968.5" width="22.7" height="3000" fill="#fff2d0" opacity="0.022"/><rect x="2013.8" width="27.5" height="3000" fill="#fff2d0" opacity="0.029"/><rect x="2068.9" width="22" height="3000" fill="#fff2d0" opacity="0.017"/><rect x="2112.9" width="32" height="3000" fill="#fff2d0" opacity="0.038"/><rect x="2177" width="21.5" height="3000" fill="#fff2d0" opacity="0.030"/><rect x="2220" width="19.4" height="3000" fill="#fff2d0" opacity="0.018"/><rect x="2258.7" width="21.8" height="3000" fill="#fff2d0" opacity="0.032"/><rect x="2302.4" width="22.9" height="3000" fill="#fff2d0" opacity="0.015"/><rect x="2348.2" width="21.5" height="3000" fill="#fff2d0" opacity="0.043"/><rect x="2391.3" width="16" height="3000" fill="#fff2d0" opacity="0.022"/><linearGradient id="a178-er" x1="0" x2="1" y1="0" y2="0"><stop offset="0" stop-color="#3a2a12" stop-opacity="0.22"/><stop offset="1" stop-color="#3a2a12" stop-opacity="0"/></linearGradient><rect x="0" y="0" width="90" height="3000" fill="url(#a178-er)"/><linearGradient id="a178-el" x1="1" x2="0" y1="0" y2="0"><stop offset="0" stop-color="#3a2a12" stop-opacity="0.22"/><stop offset="1" stop-color="#3a2a12" stop-opacity="0"/></linearGradient><rect x="2310" y="0" width="90" height="3000" fill="url(#a178-el)"/><linearGradient id="a178-ed" x1="0" x2="0" y1="0" y2="1"><stop offset="0" stop-color="#3a2a12" stop-opacity="0.22"/><stop offset="1" stop-color="#3a2a12" stop-opacity="0"/></linearGradient><rect x="0" y="0" width="2400" height="90" fill="url(#a178-ed)"/><linearGradient id="a178-eu" x1="0" x2="0" y1="1" y2="0"><stop offset="0" stop-color="#3a2a12" stop-opacity="0.22"/><stop offset="1" stop-color="#3a2a12" stop-opacity="0"/></linearGradient><rect x="0" y="2910" width="2400" height="90" fill="url(#a178-eu)"/><circle cx="1460.1" cy="2051.8" r="13.1" fill="#8a5a2e" opacity="0.122"/><circle cx="132" cy="101.3" r="15.3" fill="#8a5a2e" opacity="0.117"/><circle cx="1228.5" cy="2604.5" r="13" fill="#8a5a2e" opacity="0.121"/><circle cx="974.1" cy="1341.1" r="4.5" fill="#8a5a2e" opacity="0.060"/><circle cx="2179.6" cy="2523.7" r="12.2" fill="#8a5a2e" opacity="0.124"/><circle cx="1815.7" cy="1052.8" r="15.9" fill="#8a5a2e" opacity="0.083"/><circle cx="1276.8" cy="886" r="11.1" fill="#8a5a2e" opacity="0.112"/><circle cx="930.9" cy="493.2" r="4.4" fill="#8a5a2e" opacity="0.109"/><circle cx="782.1" cy="2325.5" r="3.4" fill="#8a5a2e" opacity="0.060"/><circle cx="1462.7" cy="1008.9" r="12.6" fill="#8a5a2e" opacity="0.071"/><circle cx="854.8" cy="188.7" r="6.6" fill="#8a5a2e" opacity="0.057"/><rect width="2400" height="3000" fill="url(#a178-vig)"/></svg></svg>