<svg xmlns="http://www.w3.org/2000/svg" width="2400" height="1800" viewBox="0 0 2400 1800"><rect width="2400" height="1800" fill="#e5ddcf"/><rect y="1430" width="2400" height="370" fill="#b89a76"/><line x1="100" y1="1430" x2="45" y2="1800" stroke="#00000016" stroke-width="5"/><line x1="330" y1="1430" x2="275" y2="1800" stroke="#00000016" stroke-width="5"/><line x1="560" y1="1430" x2="505" y2="1800" stroke="#00000016" stroke-width="5"/><line x1="790" y1="1430" x2="735" y2="1800" stroke="#00000016" stroke-width="5"/><line x1="1020" y1="1430" x2="965" y2="1800" stroke="#00000016" stroke-width="5"/><line x1="1250" y1="1430" x2="1195" y2="1800" stroke="#00000016" stroke-width="5"/><line x1="1480" y1="1430" x2="1425" y2="1800" stroke="#00000016" stroke-width="5"/><line x1="1710" y1="1430" x2="1655" y2="1800" stroke="#00000016" stroke-width="5"/><line x1="1940" y1="1430" x2="1885" y2="1800" stroke="#00000016" stroke-width="5"/><line x1="2170" y1="1430" x2="2115" y2="1800" stroke="#00000016" stroke-width="5"/><rect x="620" y="1180" width="1180" height="52" rx="10" fill="#8a6540"/><rect x="680" y="1232" width="70" height="330" fill="#775433"/><rect x="1670" y="1232" width="70" height="330" fill="#775433"/><rect x="760" y="1120" width="220" height="34" rx="6" fill="#8a6a4b"/><rect x="780" y="1086" width="200" height="34" rx="6" fill="#39685c"/><rect x="800" y="1052" width="170" height="34" rx="6" fill="#c9a227"/><circle cx="1240" cy="1130" r="46" fill="#3f3428"/><rect x="1226" y="1048" width="16" height="60" fill="#3f3428" transform="rotate(18 1240 1090)"/><rect x="1420" y="1100" width="260" height="26" rx="13" fill="#e8dcc0"/><rect x="1450" y="1072" width="260" height="26" rx="13" fill="#dfd0ad"/><rect x="1080" y="1300" width="360" height="34" rx="14" fill="#6f5436"/><rect x="1100" y="1334" width="40" height="220" fill="#6f5436"/><rect x="1380" y="1334" width="40" height="220" fill="#6f5436"/><rect x="1080" y="1030" width="42" height="290" rx="14" fill="#6f5436"/><rect x="260" y="480" width="560" height="24" fill="#8a6540"/><rect x="300" y="360" width="90" height="120" fill="#b3502f"/><rect x="400" y="380" width="80" height="100" fill="#2c4661"/><rect x="490" y="350" width="86" height="130" fill="#96a396"/><path d="M700,480 Q 616,347 574,382" fill="none" stroke="#5d7052" stroke-width="11.2" stroke-linecap="round"/><path d="M700,480 Q 644,347 616,354" fill="none" stroke="#5d7052" stroke-width="11.2" stroke-linecap="round"/><path d="M700,480 Q 672,347 658,326" fill="none" stroke="#5d7052" stroke-width="11.2" stroke-linecap="round"/><path d="M700,480 Q 700,347 700,298" fill="none" stroke="#5d7052" stroke-width="11.2" stroke-linecap="round"/><path d="M700,480 Q 728,347 742,326" fill="none" stroke="#5d7052" stroke-width="11.2" stroke-linecap="round"/><path d="M700,480 Q 756,347 784,354" fill="none" stroke="#5d7052" stroke-width="11.2" stroke-linecap="round"/><path d="M700,480 Q 784,347 826,382" fill="none" stroke="#5d7052" stroke-width="11.2" stroke-linecap="round"/><path d="M651,480 L749,480 L736.4,557 L663.6,557 Z" fill="#a9714d"/><path d="M320,1520 Q 164,1273 86,1338" fill="none" stroke="#5d7052" stroke-width="20.8" stroke-linecap="round"/><path d="M320,1520 Q 216,1273 164,1286" fill="none" stroke="#5d7052" stroke-width="20.8" stroke-linecap="round"/><path d="M320,1520 Q 268,1273 242,1234" fill="none" stroke="#5d7052" stroke-width="20.8" stroke-linecap="round"/><path d="M320,1520 Q 320,1273 320,1182" fill="none" stroke="#5d7052" stroke-width="20.8" stroke-linecap="round"/><path d="M320,1520 Q 372,1273 398,1234" fill="none" stroke="#5d7052" stroke-width="20.8" stroke-linecap="round"/><path d="M320,1520 Q 424,1273 476,1286" fill="none" stroke="#5d7052" stroke-width="20.8" stroke-linecap="round"/><path d="M320,1520 Q 476,1273 554,1338" fill="none" stroke="#5d7052" stroke-width="20.8" stroke-linecap="round"/><path d="M229,1520 L411,1520 L387.6,1663 L252.4,1663 Z" fill="#a9714d"/><defs><filter id="a178s-sh" x="-30%" y="-30%" width="160%" height="160%"><feGaussianBlur stdDeviation="16"/></filter></defs><rect x="1206" y="294" width="616" height="756" fill="#000" opacity="0.28" filter="url(#a178s-sh)"/><rect x="1192" y="272" width="616" height="756" fill="#443a2d"/><rect x="1210.2" y="290.2" width="579.6" height="719.6" fill="none" stroke="#00000055" stroke-width="3"/><rect x="1220" y="300" width="560" height="700" fill="#f6f2ea"/><svg x="1262" y="342" width="476" height="616" viewBox="0 0 2400 3000" preserveAspectRatio="xMidYMid slice"><rect width="2400" height="3000" fill="#2b2f36"/><radialGradient id="a178-vig" cx="50%" cy="42%" r="80%"><stop offset="55%" stop-color="#000" stop-opacity="0"/><stop offset="100%" stop-color="#000" stop-opacity="0.15"/></radialGradient><rect width="2400" height="3000" fill="url(#a178-vig)"/><circle cx="1227.5" cy="1667.6" r="1.6" fill="#b3873e" opacity="0.034"/><circle cx="2279.6" cy="2082.2" r="2.3" fill="#b3873e" opacity="0.032"/><circle cx="1433.4" cy="2761.8" r="1.5" fill="#b3873e" opacity="0.054"/><circle cx="90.5" cy="1955.7" r="3.7" fill="#b3873e" opacity="0.070"/><circle cx="1073.5" cy="2642.5" r="2.3" fill="#b3873e" opacity="0.072"/><circle cx="289" cy="2798.8" r="2.4" fill="#b3873e" opacity="0.034"/><circle cx="1089.8" cy="2330" r="2.3" fill="#b3873e" opacity="0.058"/><circle cx="2129.1" cy="624.3" r="2.2" fill="#b3873e" opacity="0.070"/><circle cx="1601.6" cy="2683.5" r="3.7" fill="#b3873e" opacity="0.056"/><circle cx="572.1" cy="2662.7" r="2.5" fill="#b3873e" opacity="0.050"/><circle cx="1895.3" cy="1700" r="3" fill="#b3873e" opacity="0.034"/><circle cx="589" cy="2197.4" r="4.1" fill="#b3873e" opacity="0.065"/><circle cx="1111.4" cy="2291.7" r="3.7" fill="#b3873e" opacity="0.079"/><circle cx="106.5" cy="927" r="1.7" fill="#b3873e" opacity="0.036"/><circle cx="494.6" cy="1783.4" r="3.9" fill="#b3873e" opacity="0.034"/><circle cx="1057.6" cy="2073.1" r="1.8" fill="#b3873e" opacity="0.069"/><circle cx="2233.3" cy="2350.4" r="2.8" fill="#b3873e" opacity="0.078"/><circle cx="1050.5" cy="2649.9" r="2.6" fill="#b3873e" opacity="0.074"/><circle cx="2021.2" cy="340.2" r="3" fill="#b3873e" opacity="0.035"/><circle cx="242.8" cy="2542.9" r="2.9" fill="#b3873e" opacity="0.049"/><circle cx="89.2" cy="276.7" r="4.4" fill="#b3873e" opacity="0.054"/><circle cx="1919.3" cy="2635.5" r="3.1" fill="#b3873e" opacity="0.046"/><circle cx="1535.2" cy="613.7" r="4.2" fill="#b3873e" opacity="0.033"/><circle cx="2334.1" cy="2739.4" r="3.5" fill="#b3873e" opacity="0.069"/><circle cx="1519.4" cy="2042.9" r="3.6" fill="#b3873e" opacity="0.043"/><circle cx="1940.8" cy="2152.5" r="4.4" fill="#b3873e" opacity="0.038"/><circle cx="797.9" cy="1959.1" r="2.1" fill="#b3873e" opacity="0.072"/><circle cx="2093.9" cy="475.5" r="3.6" fill="#b3873e" opacity="0.052"/><circle cx="962.9" cy="2329.3" r="2.7" fill="#b3873e" opacity="0.031"/><circle cx="2067.2" cy="1055.4" r="3.1" fill="#b3873e" opacity="0.057"/><circle cx="815.4" cy="747" r="2.5" fill="#b3873e" opacity="0.041"/><circle cx="201.5" cy="316.5" r="3" fill="#b3873e" opacity="0.052"/><circle cx="203.7" cy="1323" r="4.3" fill="#b3873e" opacity="0.079"/><circle cx="600.3" cy="2161.8" r="2.8" fill="#b3873e" opacity="0.057"/><circle cx="1276.8" cy="1341.2" r="4.3" fill="#b3873e" opacity="0.075"/><circle cx="867.9" cy="1647.3" r="4.3" fill="#b3873e" opacity="0.053"/><circle cx="1224.7" cy="2238.4" r="2.8" fill="#b3873e" opacity="0.072"/><circle cx="800.2" cy="1394.8" r="2.9" fill="#b3873e" opacity="0.058"/><circle cx="832.2" cy="1533.1" r="3.8" fill="#b3873e" opacity="0.058"/><circle cx="1745.8" cy="2594.9" r="2.6" fill="#b3873e" opacity="0.041"/><circle cx="2277.1" cy="909.3" r="3.2" fill="#b3873e" opacity="0.035"/><circle cx="554.4" cy="762" r="1.9" fill="#b3873e" opacity="0.039"/><circle cx="1477.4" cy="345.4" r="3.9" fill="#b3873e" opacity="0.053"/><circle cx="1555.2" cy="258.8" r="2.3" fill="#b3873e" opacity="0.065"/><circle cx="648.8" cy="1363" r="3.5" fill="#b3873e" opacity="0.070"/><circle cx="2168.8" cy="1022.2" r="3.6" fill="#b3873e" opacity="0.074"/><circle cx="692.3" cy="2318.1" r="2.5" fill="#b3873e" opacity="0.075"/><circle cx="591.8" cy="2457.7" r="4.2" fill="#b3873e" opacity="0.077"/><circle cx="1661.2" cy="1350.7" r="3.7" fill="#b3873e" opacity="0.072"/><circle cx="1610.1" cy="1657.2" r="4.3" fill="#b3873e" opacity="0.050"/><circle cx="1917.8" cy="854.7" r="2.4" fill="#b3873e" opacity="0.064"/><circle cx="2152.4" cy="857.5" r="2.9" fill="#b3873e" opacity="0.047"/><circle cx="2172.7" cy="1736.8" r="1.5" fill="#b3873e" opacity="0.069"/><circle cx="793.3" cy="2854.3" r="3" fill="#b3873e" opacity="0.039"/><circle cx="161.4" cy="170" r="3" fill="#b3873e" opacity="0.054"/><circle cx="493.8" cy="73.2" r="3.8" fill="#b3873e" opacity="0.068"/><circle cx="1766.2" cy="100.9" r="1.9" fill="#b3873e" opacity="0.055"/><circle cx="2261.7" cy="677.9" r="4.4" fill="#b3873e" opacity="0.048"/><circle cx="657.4" cy="1522.7" r="1.8" fill="#b3873e" opacity="0.067"/><circle cx="2121" cy="331.1" r="2.3" fill="#b3873e" opacity="0.045"/><circle cx="1438.4" cy="2718.4" r="3.3" fill="#b3873e" opacity="0.056"/><circle cx="514.9" cy="1515.3" r="4.2" fill="#b3873e" opacity="0.056"/><circle cx="2253.6" cy="1926.2" r="3.8" fill="#b3873e" opacity="0.077"/><circle cx="1286.1" cy="1538.5" r="3" fill="#b3873e" opacity="0.047"/><circle cx="381.8" cy="1639.4" r="2.1" fill="#b3873e" opacity="0.059"/><circle cx="2321.4" cy="2748.9" r="1.9" fill="#b3873e" opacity="0.057"/><circle cx="60.7" cy="2038.3" r="3.2" fill="#b3873e" opacity="0.077"/><circle cx="672.9" cy="2295.7" r="2.8" fill="#b3873e" opacity="0.068"/><circle cx="1810.3" cy="158.4" r="2.2" fill="#b3873e" opacity="0.054"/><circle cx="1224.5" cy="2352.4" r="3" fill="#b3873e" opacity="0.048"/><circle cx="1400.8" cy="1595.9" r="3" fill="#b3873e" opacity="0.042"/><circle cx="1647.1" cy="1240.1" r="2.9" fill="#b3873e" opacity="0.077"/><circle cx="1411.9" cy="415.2" r="1.5" fill="#b3873e" opacity="0.069"/><circle cx="690.4" cy="763.6" r="3.7" fill="#b3873e" opacity="0.069"/><circle cx="537.9" cy="2656.1" r="1.9" fill="#b3873e" opacity="0.061"/><circle cx="832.8" cy="1582.4" r="2.3" fill="#b3873e" opacity="0.039"/><circle cx="244.4" cy="1398.6" r="4" fill="#b3873e" opacity="0.068"/><circle cx="1155.7" cy="2458" r="3.7" fill="#b3873e" opacity="0.034"/><circle cx="443.7" cy="2691.1" r="3.6" fill="#b3873e" opacity="0.073"/><circle cx="1607.9" cy="747.1" r="3.3" fill="#b3873e" opacity="0.065"/><rect x="190" y="190" width="2020" height="2620" fill="none" stroke="#b3873e" stroke-width="14"/><rect x="260" y="260" width="1880" height="2480" fill="none" stroke="#b3873e" stroke-width="7"/><rect x="148" y="148" width="84" height="84" fill="#8a6a4b"/><rect x="148" y="2768" width="84" height="84" fill="#8a6a4b"/><rect x="2168" y="148" width="84" height="84" fill="#8a6a4b"/><rect x="2168" y="2768" width="84" height="84" fill="#8a6a4b"/><ellipse cx="1200" cy="960" rx="230" ry="300" fill="none" stroke="#b3873e" stroke-width="110"/><rect x="1148" y="1230" width="104" height="900" rx="40" fill="#b3873e"/><rect x="800" y="1230" width="800" height="104" rx="40" fill="#b3873e"/><circle cx="1200" cy="960" r="66" fill="#8a6a4b"/><polygon points="1208.1,2527.7 1218.7,2554.7 1245.7,2565.3 1218.7,2576 1208.1,2603 1197.4,2576 1170.4,2565.3 1197.4,2554.7 " fill="#8a6a4b"/><polygon points="1060.3,423.1 1071.8,452.3 1101,463.9 1071.8,475.4 1060.3,504.6 1048.7,475.4 1019.5,463.9 1048.7,452.3 " fill="#8a6a4b"/><polygon points="1125,2434.7 1133.9,2457.4 1156.7,2466.4 1133.9,2475.4 1125,2498.2 1116,2475.4 1093.2,2466.4 1116,2457.4 " fill="#8a6a4b"/><polygon points="579.6,2501.8 587.6,2522.2 608.1,2530.3 587.6,2538.4 579.6,2558.8 571.5,2538.4 551,2530.3 571.5,2522.2 " fill="#8a6a4b"/><polygon points="1038.9,346.4 1051.4,377.9 1082.9,390.3 1051.4,402.7 1038.9,434.2 1026.5,402.7 995,390.3 1026.5,377.9 " fill="#8a6a4b"/><polygon points="1632.4,362.7 1643,389.5 1669.8,400.1 1643,410.7 1632.4,437.6 1621.8,410.7 1594.9,400.1 1621.8,389.5 " fill="#8a6a4b"/><rect x="100" y="100" width="2200" height="2800" fill="none" stroke="#b3873e" stroke-width="9"/><rect x="142" y="142" width="2116" height="2716" fill="none" stroke="#b3873e" stroke-width="3" opacity="0.65"/></svg></svg>