<svg xmlns="http://www.w3.org/2000/svg" width="2400" height="1800" viewBox="0 0 2400 1800"><rect width="2400" height="1800" fill="#e9e1d2"/><rect y="1430" width="2400" height="370" fill="#c8b190"/><line x1="120" y1="1430" x2="60" y2="1800" stroke="#00000018" stroke-width="6"/><line x1="380" y1="1430" x2="320" y2="1800" stroke="#00000018" stroke-width="6"/><line x1="640" y1="1430" x2="580" y2="1800" stroke="#00000018" stroke-width="6"/><line x1="900" y1="1430" x2="840" y2="1800" stroke="#00000018" stroke-width="6"/><line x1="1160" y1="1430" x2="1100" y2="1800" stroke="#00000018" stroke-width="6"/><line x1="1420" y1="1430" x2="1360" y2="1800" stroke="#00000018" stroke-width="6"/><line x1="1680" y1="1430" x2="1620" y2="1800" stroke="#00000018" stroke-width="6"/><line x1="1940" y1="1430" x2="1880" y2="1800" stroke="#00000018" stroke-width="6"/><line x1="2200" y1="1430" x2="2140" y2="1800" stroke="#00000018" stroke-width="6"/><rect y="1418" width="2400" height="16" fill="#d7cbb6"/><rect x="700" y="980" width="1000" height="460" rx="26" fill="#a87e57"/><rect x="660" y="1290" width="1080" height="210" rx="30" fill="#f1ebdf"/><rect x="660" y="1420" width="1080" height="120" rx="24" fill="#87681c" opacity="0.85"/><rect x="770" y="1180" width="300" height="150" rx="40" fill="#faf6ec"/><rect x="1330" y="1180" width="300" height="150" rx="40" fill="#233142"/><rect x="640" y="1530" width="1120" height="26" rx="12" fill="#a87e57"/><rect x="360" y="1260" width="240" height="220" rx="10" fill="#a87e57"/><rect x="380" y="1300" width="200" height="14" fill="#00000022"/><line x1="480" y1="1260" x2="480" y2="1130" stroke="#5a4632" stroke-width="12"/><path d="M410,1130 L550,1130 L520,1020 L440,1020 Z" fill="#87681c"/><path d="M2060,1520 Q 1910,1282.5 1835,1345" fill="none" stroke="#5d7052" stroke-width="20" stroke-linecap="round"/><path d="M2060,1520 Q 1960,1282.5 1910,1295" fill="none" stroke="#5d7052" stroke-width="20" stroke-linecap="round"/><path d="M2060,1520 Q 2010,1282.5 1985,1245" fill="none" stroke="#5d7052" stroke-width="20" stroke-linecap="round"/><path d="M2060,1520 Q 2060,1282.5 2060,1195" fill="none" stroke="#5d7052" stroke-width="20" stroke-linecap="round"/><path d="M2060,1520 Q 2110,1282.5 2135,1245" fill="none" stroke="#5d7052" stroke-width="20" stroke-linecap="round"/><path d="M2060,1520 Q 2160,1282.5 2210,1295" fill="none" stroke="#5d7052" stroke-width="20" stroke-linecap="round"/><path d="M2060,1520 Q 2210,1282.5 2285,1345" fill="none" stroke="#5d7052" stroke-width="20" stroke-linecap="round"/><path d="M1972.5,1520 L2147.5,1520 L2125,1657.5 L1995,1657.5 Z" fill="#a9714d"/><defs><filter id="a199b-sh" x="-30%" y="-30%" width="160%" height="160%"><feGaussianBlur stdDeviation="16"/></filter></defs><rect x="928" y="246" width="572" height="702" fill="#000" opacity="0.28" filter="url(#a199b-sh)"/><rect x="914" y="224" width="572" height="702" fill="#4a3d2f"/><rect x="930.9" y="240.9" width="538.2" height="668.2" fill="none" stroke="#00000055" stroke-width="3"/><rect x="940" y="250" width="520" height="650" fill="#f6f2ea"/><svg x="979" y="289" width="442" height="572" viewBox="0 0 2400 3000" preserveAspectRatio="xMidYMid slice"><rect width="2400" height="3000" fill="#141b25"/><radialGradient id="a199-vig" cx="50%" cy="42%" r="80%"><stop offset="55%" stop-color="#000" stop-opacity="0"/><stop offset="100%" stop-color="#000" stop-opacity="0.15"/></radialGradient><rect width="2400" height="3000" fill="url(#a199-vig)"/><circle cx="1578.2" cy="443.8" r="3.5" fill="#c9a227" opacity="0.045"/><circle cx="2343.3" cy="2477.1" r="3.2" fill="#c9a227" opacity="0.036"/><circle cx="1396.7" cy="1696.1" r="2.7" fill="#c9a227" opacity="0.056"/><circle cx="2056.9" cy="2441.9" r="3.1" fill="#c9a227" opacity="0.045"/><circle cx="729.4" cy="2189.6" r="2" fill="#c9a227" opacity="0.072"/><circle cx="771.7" cy="382.1" r="4.1" fill="#c9a227" opacity="0.062"/><circle cx="1041.4" cy="806.9" r="2.9" fill="#c9a227" opacity="0.030"/><circle cx="1416.8" cy="187.6" r="3.4" fill="#c9a227" opacity="0.058"/><circle cx="941.1" cy="2049.7" r="2.7" fill="#c9a227" opacity="0.070"/><circle cx="2215.9" cy="204" r="1.7" fill="#c9a227" opacity="0.049"/><circle cx="1747.5" cy="2531.6" r="3.6" fill="#c9a227" opacity="0.073"/><circle cx="1377.5" cy="2802.7" r="1.8" fill="#c9a227" opacity="0.062"/><circle cx="2187.6" cy="379.4" r="1.5" fill="#c9a227" opacity="0.042"/><circle cx="1390.3" cy="1619.1" r="3.3" fill="#c9a227" opacity="0.067"/><circle cx="1775.2" cy="1440.6" r="3" fill="#c9a227" opacity="0.070"/><circle cx="1453" cy="1819.2" r="1.9" fill="#c9a227" opacity="0.044"/><circle cx="1948.3" cy="1321.8" r="4" fill="#c9a227" opacity="0.066"/><circle cx="1724.2" cy="705.2" r="1.9" fill="#c9a227" opacity="0.076"/><circle cx="790.8" cy="1446.5" r="3.3" fill="#c9a227" opacity="0.040"/><circle cx="260.6" cy="2336.3" r="2" fill="#c9a227" opacity="0.078"/><circle cx="684.3" cy="1759.6" r="2.3" fill="#c9a227" opacity="0.058"/><circle cx="321.5" cy="1428.4" r="1.9" fill="#c9a227" opacity="0.054"/><circle cx="1015.4" cy="662.2" r="3.1" fill="#c9a227" opacity="0.037"/><circle cx="1740.7" cy="2250.1" r="3.8" fill="#c9a227" opacity="0.044"/><circle cx="924" cy="965.2" r="4.1" fill="#c9a227" opacity="0.055"/><circle cx="2199.4" cy="2864.7" r="2.5" fill="#c9a227" opacity="0.046"/><circle cx="1018.1" cy="2937.7" r="1.7" fill="#c9a227" opacity="0.045"/><circle cx="925.2" cy="1234.8" r="4.4" fill="#c9a227" opacity="0.054"/><circle cx="205.5" cy="934" r="4.3" fill="#c9a227" opacity="0.046"/><circle cx="555" cy="2530.8" r="2.4" fill="#c9a227" opacity="0.041"/><circle cx="546.4" cy="2634.7" r="3.3" fill="#c9a227" opacity="0.049"/><circle cx="506" cy="2343.8" r="4.4" fill="#c9a227" opacity="0.031"/><circle cx="2088" cy="1022.4" r="3" fill="#c9a227" opacity="0.061"/><circle cx="1414.7" cy="2759.1" r="1.7" fill="#c9a227" opacity="0.048"/><circle cx="1332.6" cy="620.8" r="2.8" fill="#c9a227" opacity="0.065"/><circle cx="221.6" cy="222.4" r="2.6" fill="#c9a227" opacity="0.071"/><circle cx="816.2" cy="896.9" r="4.3" fill="#c9a227" opacity="0.055"/><circle cx="2354.2" cy="2321.8" r="3.2" fill="#c9a227" opacity="0.044"/><circle cx="945.8" cy="2862.6" r="3.3" fill="#c9a227" opacity="0.058"/><circle cx="1182.7" cy="2818.6" r="1.9" fill="#c9a227" opacity="0.051"/><circle cx="1645.4" cy="1083" r="2.5" fill="#c9a227" opacity="0.048"/><circle cx="1734.7" cy="1250.2" r="3.2" fill="#c9a227" opacity="0.054"/><circle cx="1824.8" cy="273.5" r="3.8" fill="#c9a227" opacity="0.074"/><circle cx="314" cy="1570.4" r="3.8" fill="#c9a227" opacity="0.050"/><circle cx="1370.3" cy="1354.3" r="3.1" fill="#c9a227" opacity="0.047"/><circle cx="1114.3" cy="510.2" r="3.6" fill="#c9a227" opacity="0.079"/><circle cx="2274.3" cy="1963.3" r="1.8" fill="#c9a227" opacity="0.071"/><circle cx="937.6" cy="1574.1" r="3.3" fill="#c9a227" opacity="0.064"/><circle cx="2155.6" cy="507" r="3.5" fill="#c9a227" opacity="0.066"/><circle cx="1530.4" cy="2580.8" r="1.6" fill="#c9a227" opacity="0.063"/><circle cx="1085.5" cy="599.4" r="3.9" fill="#c9a227" opacity="0.033"/><circle cx="2300.3" cy="2691.5" r="2.8" fill="#c9a227" opacity="0.049"/><circle cx="2102.2" cy="1957.9" r="4.2" fill="#c9a227" opacity="0.044"/><circle cx="553.5" cy="1724.8" r="4.4" fill="#c9a227" opacity="0.054"/><circle cx="439.5" cy="203.8" r="3.4" fill="#c9a227" opacity="0.044"/><circle cx="901.5" cy="2453.7" r="1.8" fill="#c9a227" opacity="0.038"/><circle cx="1355.5" cy="1309.4" r="4.1" fill="#c9a227" opacity="0.057"/><circle cx="2167" cy="2208.3" r="2.8" fill="#c9a227" opacity="0.044"/><circle cx="1539.9" cy="1069" r="2.8" fill="#c9a227" opacity="0.041"/><circle cx="575" cy="1026.8" r="1.6" fill="#c9a227" opacity="0.051"/><circle cx="697.4" cy="819.5" r="4.3" fill="#c9a227" opacity="0.068"/><circle cx="1118.1" cy="594.1" r="2.9" fill="#c9a227" opacity="0.078"/><circle cx="1577.2" cy="1487.8" r="4" fill="#c9a227" opacity="0.051"/><circle cx="2011.5" cy="1720.5" r="3.1" fill="#c9a227" opacity="0.052"/><circle cx="950.5" cy="2711.8" r="2" fill="#c9a227" opacity="0.065"/><circle cx="203.7" cy="1856.4" r="2.4" fill="#c9a227" opacity="0.043"/><circle cx="1837.4" cy="1126" r="2.2" fill="#c9a227" opacity="0.052"/><circle cx="832.5" cy="300.1" r="3.3" fill="#c9a227" opacity="0.071"/><circle cx="544.8" cy="1385.4" r="3.5" fill="#c9a227" opacity="0.049"/><circle cx="206.5" cy="48.4" r="1.8" fill="#c9a227" opacity="0.058"/><circle cx="273.5" cy="606.5" r="2.2" fill="#c9a227" opacity="0.040"/><circle cx="1996.4" cy="2300.3" r="2.5" fill="#c9a227" opacity="0.073"/><circle cx="1926" cy="2425.6" r="4.4" fill="#c9a227" opacity="0.077"/><circle cx="1202.8" cy="2064.7" r="2.9" fill="#c9a227" opacity="0.063"/><circle cx="184.8" cy="2597.7" r="2.7" fill="#c9a227" opacity="0.056"/><circle cx="739.6" cy="1590.2" r="1.7" fill="#c9a227" opacity="0.032"/><circle cx="655.2" cy="673" r="3.7" fill="#c9a227" opacity="0.071"/><circle cx="863" cy="358.3" r="3.7" fill="#c9a227" opacity="0.054"/><circle cx="1765.2" cy="604.7" r="2.2" fill="#c9a227" opacity="0.074"/><circle cx="2024.4" cy="912.6" r="1.7" fill="#c9a227" opacity="0.055"/><circle cx="1200" cy="1420" r="900" fill="none" stroke="#c9a227" stroke-width="12"/><line x1="2066" y1="1420" x2="2100" y2="1420" stroke="#c9a227" stroke-width="8"/><line x1="2058.6" y1="1533" x2="2092.3" y2="1537.5" stroke="#c9a227" stroke-width="8"/><line x1="2036.5" y1="1644.1" x2="2069.3" y2="1652.9" stroke="#c9a227" stroke-width="8"/><line x1="2000.1" y1="1751.4" x2="2031.5" y2="1764.4" stroke="#c9a227" stroke-width="8"/><line x1="1950" y1="1853" x2="1979.4" y2="1870" stroke="#c9a227" stroke-width="8"/><line x1="1887" y1="1947.2" x2="1914" y2="1967.9" stroke="#c9a227" stroke-width="8"/><line x1="1812.4" y1="2032.4" x2="1836.4" y2="2056.4" stroke="#c9a227" stroke-width="8"/><line x1="1727.2" y1="2107" x2="1747.9" y2="2134" stroke="#c9a227" stroke-width="8"/><line x1="1633" y1="2170" x2="1650" y2="2199.4" stroke="#c9a227" stroke-width="8"/><line x1="1531.4" y1="2220.1" x2="1544.4" y2="2251.5" stroke="#c9a227" stroke-width="8"/><line x1="1424.1" y1="2256.5" x2="1432.9" y2="2289.3" stroke="#c9a227" stroke-width="8"/><line x1="1313" y1="2278.6" x2="1317.5" y2="2312.3" stroke="#c9a227" stroke-width="8"/><line x1="1200" y1="2286" x2="1200" y2="2320" stroke="#c9a227" stroke-width="8"/><line x1="1087" y1="2278.6" x2="1082.5" y2="2312.3" stroke="#c9a227" stroke-width="8"/><line x1="975.9" y1="2256.5" x2="967.1" y2="2289.3" stroke="#c9a227" stroke-width="8"/><line x1="868.6" y1="2220.1" x2="855.6" y2="2251.5" stroke="#c9a227" stroke-width="8"/><line x1="767" y1="2170" x2="750" y2="2199.4" stroke="#c9a227" stroke-width="8"/><line x1="672.8" y1="2107" x2="652.1" y2="2134" stroke="#c9a227" stroke-width="8"/><line x1="587.6" y1="2032.4" x2="563.6" y2="2056.4" stroke="#c9a227" stroke-width="8"/><line x1="513" y1="1947.2" x2="486" y2="1967.9" stroke="#c9a227" stroke-width="8"/><line x1="450" y1="1853" x2="420.6" y2="1870" stroke="#c9a227" stroke-width="8"/><line x1="399.9" y1="1751.4" x2="368.5" y2="1764.4" stroke="#c9a227" stroke-width="8"/><line x1="363.5" y1="1644.1" x2="330.7" y2="1652.9" stroke="#c9a227" stroke-width="8"/><line x1="341.4" y1="1533" x2="307.7" y2="1537.5" stroke="#c9a227" stroke-width="8"/><line x1="334" y1="1420" x2="300" y2="1420" stroke="#c9a227" stroke-width="8"/><line x1="341.4" y1="1307" x2="307.7" y2="1302.5" stroke="#c9a227" stroke-width="8"/><line x1="363.5" y1="1195.9" x2="330.7" y2="1187.1" stroke="#c9a227" stroke-width="8"/><line x1="399.9" y1="1088.6" x2="368.5" y2="1075.6" stroke="#c9a227" stroke-width="8"/><line x1="450" y1="987" x2="420.6" y2="970" stroke="#c9a227" stroke-width="8"/><line x1="513" y1="892.8" x2="486" y2="872.1" stroke="#c9a227" stroke-width="8"/><line x1="587.6" y1="807.6" x2="563.6" y2="783.6" stroke="#c9a227" stroke-width="8"/><line x1="672.8" y1="733" x2="652.1" y2="706" stroke="#c9a227" stroke-width="8"/><line x1="767" y1="670" x2="750" y2="640.6" stroke="#c9a227" stroke-width="8"/><line x1="868.6" y1="619.9" x2="855.6" y2="588.5" stroke="#c9a227" stroke-width="8"/><line x1="975.9" y1="583.5" x2="967.1" y2="550.7" stroke="#c9a227" stroke-width="8"/><line x1="1087" y1="561.4" x2="1082.5" y2="527.7" stroke="#c9a227" stroke-width="8"/><line x1="1200" y1="554" x2="1200" y2="520" stroke="#c9a227" stroke-width="8"/><line x1="1313" y1="561.4" x2="1317.5" y2="527.7" stroke="#c9a227" stroke-width="8"/><line x1="1424.1" y1="583.5" x2="1432.9" y2="550.7" stroke="#c9a227" stroke-width="8"/><line x1="1531.4" y1="619.9" x2="1544.4" y2="588.5" stroke="#c9a227" stroke-width="8"/><line x1="1633" y1="670" x2="1650" y2="640.6" stroke="#c9a227" stroke-width="8"/><line x1="1727.2" y1="733" x2="1747.9" y2="706" stroke="#c9a227" stroke-width="8"/><line x1="1812.4" y1="807.6" x2="1836.4" y2="783.6" stroke="#c9a227" stroke-width="8"/><line x1="1887" y1="892.8" x2="1914" y2="872.1" stroke="#c9a227" stroke-width="8"/><line x1="1950" y1="987" x2="1979.4" y2="970" stroke="#c9a227" stroke-width="8"/><line x1="2000.1" y1="1088.6" x2="2031.5" y2="1075.6" stroke="#c9a227" stroke-width="8"/><line x1="2036.5" y1="1195.9" x2="2069.3" y2="1187.1" stroke="#c9a227" stroke-width="8"/><line x1="2058.6" y1="1307" x2="2092.3" y2="1302.5" stroke="#c9a227" stroke-width="8"/><polygon points="2010,1420 1808,1350.2 1808,1489.8" fill="#c9a227"/><polygon points="1977.2,1648.2 1803,1524.4 1763.7,1658.2" fill="#87681c"/><polygon points="1881.4,1857.9 1749.2,1690 1673.8,1807.4" fill="#c9a227"/><polygon points="1730.4,2032.2 1650.9,1833.8 1545.4,1925.2" fill="#87681c"/><polygon points="1536.5,2156.8 1516,1944.1 1389.1,2002" fill="#c9a227"/><polygon points="1315.3,2221.8 1355.6,2011.9 1217.5,2031.8" fill="#87681c"/><polygon points="1084.7,2221.8 1182.5,2031.8 1044.4,2011.9" fill="#c9a227"/><polygon points="863.5,2156.8 1010.9,2002 884,1944.1" fill="#87681c"/><polygon points="669.6,2032.2 854.6,1925.2 749.1,1833.8" fill="#c9a227"/><polygon points="518.6,1857.9 726.2,1807.4 650.8,1690" fill="#87681c"/><polygon points="422.8,1648.2 636.3,1658.2 597,1524.4" fill="#c9a227"/><polygon points="390,1420 592,1489.8 592,1350.2" fill="#87681c"/><polygon points="422.8,1191.8 597,1315.6 636.3,1181.8" fill="#c9a227"/><polygon points="518.6,982.1 650.8,1150 726.2,1032.6" fill="#87681c"/><polygon points="669.6,807.8 749.1,1006.2 854.6,914.8" fill="#c9a227"/><polygon points="863.5,683.2 884,895.9 1010.9,838" fill="#87681c"/><polygon points="1084.7,618.2 1044.4,828.1 1182.5,808.2" fill="#c9a227"/><polygon points="1315.3,618.2 1217.5,808.2 1355.6,828.1" fill="#87681c"/><polygon points="1536.5,683.2 1389.1,838 1516,895.9" fill="#c9a227"/><polygon points="1730.4,807.8 1545.4,914.8 1650.9,1006.2" fill="#87681c"/><polygon points="1881.4,982.1 1673.8,1032.6 1749.2,1150" fill="#c9a227"/><polygon points="1977.2,1191.8 1763.7,1181.8 1803,1315.6" fill="#87681c"/><circle cx="1200" cy="1420" r="558" fill="none" stroke="#c9a227" stroke-width="8"/><path d="M0 0 Q 67.5 -198.4 0 -522 Q -67.5 -198.4 0 0 Z" fill="#87681c" opacity="0.96" transform="translate(1209.8 1422) rotate(191.3)"/><path d="M0 0 Q 67.5 -198.4 0 -522 Q -67.5 -198.4 0 0 Z" fill="#c9a227" opacity="0.96" transform="translate(1208.3 1425.6) rotate(213.8)"/><path d="M0 0 Q 67.5 -198.4 0 -522 Q -67.5 -198.4 0 0 Z" fill="#87681c" opacity="0.96" transform="translate(1205.6 1428.3) rotate(236.3)"/><path d="M0 0 Q 67.5 -198.4 0 -522 Q -67.5 -198.4 0 0 Z" fill="#c9a227" opacity="0.96" transform="translate(1202 1429.8) rotate(258.8)"/><path d="M0 0 Q 67.5 -198.4 0 -522 Q -67.5 -198.4 0 0 Z" fill="#87681c" opacity="0.96" transform="translate(1198 1429.8) rotate(281.3)"/><path d="M0 0 Q 67.5 -198.4 0 -522 Q -67.5 -198.4 0 0 Z" fill="#c9a227" opacity="0.96" transform="translate(1194.4 1428.3) rotate(303.8)"/><path d="M0 0 Q 67.5 -198.4 0 -522 Q -67.5 -198.4 0 0 Z" fill="#87681c" opacity="0.96" transform="translate(1191.7 1425.6) rotate(326.3)"/><path d="M0 0 Q 67.5 -198.4 0 -522 Q -67.5 -198.4 0 0 Z" fill="#c9a227" opacity="0.96" transform="translate(1190.2 1422) rotate(348.8)"/><path d="M0 0 Q 67.5 -198.4 0 -522 Q -67.5 -198.4 0 0 Z" fill="#87681c" opacity="0.96" transform="translate(1190.2 1418) rotate(371.3)"/><path d="M0 0 Q 67.5 -198.4 0 -522 Q -67.5 -198.4 0 0 Z" fill="#c9a227" opacity="0.96" transform="translate(1191.7 1414.4) rotate(393.8)"/><path d="M0 0 Q 67.5 -198.4 0 -522 Q -67.5 -198.4 0 0 Z" fill="#87681c" opacity="0.96" transform="translate(1194.4 1411.7) rotate(416.3)"/><path d="M0 0 Q 67.5 -198.4 0 -522 Q -67.5 -198.4 0 0 Z" fill="#c9a227" opacity="0.96" transform="translate(1198 1410.2) rotate(438.8)"/><path d="M0 0 Q 67.5 -198.4 0 -522 Q -67.5 -198.4 0 0 Z" fill="#87681c" opacity="0.96" transform="translate(1202 1410.2) rotate(461.3)"/><path d="M0 0 Q 67.5 -198.4 0 -522 Q -67.5 -198.4 0 0 Z" fill="#c9a227" opacity="0.96" transform="translate(1205.6 1411.7) rotate(483.8)"/><path d="M0 0 Q 67.5 -198.4 0 -522 Q -67.5 -198.4 0 0 Z" fill="#87681c" opacity="0.96" transform="translate(1208.3 1414.4) rotate(506.3)"/><path d="M0 0 Q 67.5 -198.4 0 -522 Q -67.5 -198.4 0 0 Z" fill="#c9a227" opacity="0.96" transform="translate(1209.8 1418) rotate(528.8)"/><path d="M0 0 Q 76.5 -116.3 0 -306 Q -76.5 -116.3 0 0 Z" fill="#233142" opacity="0.98" transform="translate(1200 1420) rotate(180)"/><path d="M0 0 Q 76.5 -116.3 0 -306 Q -76.5 -116.3 0 0 Z" fill="#233142" opacity="0.98" transform="translate(1200 1420) rotate(225)"/><path d="M0 0 Q 76.5 -116.3 0 -306 Q -76.5 -116.3 0 0 Z" fill="#233142" opacity="0.98" transform="translate(1200 1420) rotate(270)"/><path d="M0 0 Q 76.5 -116.3 0 -306 Q -76.5 -116.3 0 0 Z" fill="#233142" opacity="0.98" transform="translate(1200 1420) rotate(315)"/><path d="M0 0 Q 76.5 -116.3 0 -306 Q -76.5 -116.3 0 0 Z" fill="#233142" opacity="0.98" transform="translate(1200 1420) rotate(360)"/><path d="M0 0 Q 76.5 -116.3 0 -306 Q -76.5 -116.3 0 0 Z" fill="#233142" opacity="0.98" transform="translate(1200 1420) rotate(405)"/><path d="M0 0 Q 76.5 -116.3 0 -306 Q -76.5 -116.3 0 0 Z" fill="#233142" opacity="0.98" transform="translate(1200 1420) rotate(450)"/><path d="M0 0 Q 76.5 -116.3 0 -306 Q -76.5 -116.3 0 0 Z" fill="#233142" opacity="0.98" transform="translate(1200 1420) rotate(495)"/><circle cx="1200" cy="1420" r="110" fill="#c9a227"/><circle cx="1200" cy="1420" r="44" fill="#87681c"/><circle cx="388" cy="208" r="14.6" fill="#c9a227"/><circle cx="444" cy="208" r="14.6" fill="#c9a227"/><circle cx="500" cy="208" r="14.6" fill="#c9a227"/><circle cx="556" cy="208" r="14.6" fill="#c9a227"/><circle cx="612" cy="208" r="14.6" fill="#c9a227"/><circle cx="668" cy="208" r="14.6" fill="#c9a227"/><circle cx="724" cy="208" r="14.6" fill="#c9a227"/><circle cx="780" cy="208" r="14.6" fill="#c9a227"/><circle cx="836" cy="208" r="14.6" fill="#c9a227"/><circle cx="892" cy="208" r="14.6" fill="#c9a227"/><circle cx="948" cy="208" r="14.6" fill="#c9a227"/><circle cx="1004" cy="208" r="14.6" fill="#c9a227"/><circle cx="1060" cy="208" r="14.6" fill="#c9a227"/><circle cx="1116" cy="208" r="14.6" fill="#c9a227"/><circle cx="1172" cy="208" r="14.6" fill="#c9a227"/><circle cx="1228" cy="208" r="14.6" fill="#c9a227"/><circle cx="1284" cy="208" r="14.6" fill="#c9a227"/><circle cx="1340" cy="208" r="14.6" fill="#c9a227"/><circle cx="1396" cy="208" r="14.6" fill="#c9a227"/><circle cx="1452" cy="208" r="14.6" fill="#c9a227"/><circle cx="1508" cy="208" r="14.6" fill="#c9a227"/><circle cx="1564" cy="208" r="14.6" fill="#c9a227"/><circle cx="1620" cy="208" r="14.6" fill="#c9a227"/><circle cx="1676" cy="208" r="14.6" fill="#c9a227"/><circle cx="1732" cy="208" r="14.6" fill="#c9a227"/><circle cx="1788" cy="208" r="14.6" fill="#c9a227"/><circle cx="1844" cy="208" r="14.6" fill="#c9a227"/><circle cx="1900" cy="208" r="14.6" fill="#c9a227"/><circle cx="1956" cy="208" r="14.6" fill="#c9a227"/><circle cx="2012" cy="208" r="14.6" fill="#c9a227"/><circle cx="388" cy="2792" r="14.6" fill="#c9a227"/><circle cx="444" cy="2792" r="14.6" fill="#c9a227"/><circle cx="500" cy="2792" r="14.6" fill="#c9a227"/><circle cx="556" cy="2792" r="14.6" fill="#c9a227"/><circle cx="612" cy="2792" r="14.6" fill="#c9a227"/><circle cx="668" cy="2792" r="14.6" fill="#c9a227"/><circle cx="724" cy="2792" r="14.6" fill="#c9a227"/><circle cx="780" cy="2792" r="14.6" fill="#c9a227"/><circle cx="836" cy="2792" r="14.6" fill="#c9a227"/><circle cx="892" cy="2792" r="14.6" fill="#c9a227"/><circle cx="948" cy="2792" r="14.6" fill="#c9a227"/><circle cx="1004" cy="2792" r="14.6" fill="#c9a227"/><circle cx="1060" cy="2792" r="14.6" fill="#c9a227"/><circle cx="1116" cy="2792" r="14.6" fill="#c9a227"/><circle cx="1172" cy="2792" r="14.6" fill="#c9a227"/><circle cx="1228" cy="2792" r="14.6" fill="#c9a227"/><circle cx="1284" cy="2792" r="14.6" fill="#c9a227"/><circle cx="1340" cy="2792" r="14.6" fill="#c9a227"/><circle cx="1396" cy="2792" r="14.6" fill="#c9a227"/><circle cx="1452" cy="2792" r="14.6" fill="#c9a227"/><circle cx="1508" cy="2792" r="14.6" fill="#c9a227"/><circle cx="1564" cy="2792" r="14.6" fill="#c9a227"/><circle cx="1620" cy="2792" r="14.6" fill="#c9a227"/><circle cx="1676" cy="2792" r="14.6" fill="#c9a227"/><circle cx="1732" cy="2792" r="14.6" fill="#c9a227"/><circle cx="1788" cy="2792" r="14.6" fill="#c9a227"/><circle cx="1844" cy="2792" r="14.6" fill="#c9a227"/><circle cx="1900" cy="2792" r="14.6" fill="#c9a227"/><circle cx="1956" cy="2792" r="14.6" fill="#c9a227"/><circle cx="2012" cy="2792" r="14.6" fill="#c9a227"/><rect x="100" y="100" width="2200" height="2800" fill="none" stroke="#c9a227" stroke-width="9"/><rect x="142" y="142" width="2116" height="2716" fill="none" stroke="#c9a227" stroke-width="3" opacity="0.65"/></svg></svg>