<svg xmlns="http://www.w3.org/2000/svg" width="2400" height="1800" viewBox="0 0 2400 1800"><rect width="2400" height="1800" fill="#dfe4dc"/><rect y="1400" width="2400" height="400" fill="#c2a67e"/><line x1="60" y1="1400" x2="10" y2="1800" stroke="#00000015" stroke-width="5"/><line x1="260" y1="1400" x2="210" y2="1800" stroke="#00000015" stroke-width="5"/><line x1="460" y1="1400" x2="410" y2="1800" stroke="#00000015" stroke-width="5"/><line x1="660" y1="1400" x2="610" y2="1800" stroke="#00000015" stroke-width="5"/><line x1="860" y1="1400" x2="810" y2="1800" stroke="#00000015" stroke-width="5"/><line x1="1060" y1="1400" x2="1010" y2="1800" stroke="#00000015" stroke-width="5"/><line x1="1260" y1="1400" x2="1210" y2="1800" stroke="#00000015" stroke-width="5"/><line x1="1460" y1="1400" x2="1410" y2="1800" stroke="#00000015" stroke-width="5"/><line x1="1660" y1="1400" x2="1610" y2="1800" stroke="#00000015" stroke-width="5"/><line x1="1860" y1="1400" x2="1810" y2="1800" stroke="#00000015" stroke-width="5"/><line x1="2060" y1="1400" x2="2010" y2="1800" stroke="#00000015" stroke-width="5"/><line x1="2260" y1="1400" x2="2210" y2="1800" stroke="#00000015" stroke-width="5"/><rect x="180" y="260" width="900" height="620" fill="#8a6a48"/><rect x="215" y="295" width="830" height="550" fill="#41524a"/><line x1="280" y1="420" x2="760" y2="420" stroke="#ffffff66" stroke-width="9" stroke-linecap="round"/><line x1="280" y1="520" x2="620" y2="520" stroke="#ffffff44" stroke-width="9" stroke-linecap="round"/><circle cx="880" cy="560" r="90" fill="none" stroke="#ffffff55" stroke-width="8"/><rect x="215" y="845" width="830" height="22" fill="#6f5436"/><rect x="330" y="1240" width="640" height="60" rx="10" fill="#9c7449"/><rect x="370" y="1300" width="60" height="240" fill="#8a6540"/><rect x="870" y="1300" width="60" height="240" fill="#8a6540"/><rect x="430" y="1160" width="150" height="80" rx="8" fill="#a2542f"/><rect x="450" y="1120" width="150" height="40" rx="8" fill="#b6ab95"/><circle cx="800" cy="1130" r="86" fill="#7fa3b8"/><path d="M760,1060 Q820,1100 780,1190 M740,1090 Q800,1120 850,1100" stroke="#5d8069" stroke-width="16" fill="none" stroke-linecap="round"/><circle cx="800" cy="1130" r="86" fill="none" stroke="#6b5233" stroke-width="7"/><line x1="800" y1="1216" x2="800" y2="1250" stroke="#6b5233" stroke-width="10"/><rect x="750" y="1244" width="100" height="14" rx="7" fill="#6b5233"/><rect x="1980" y="700" width="300" height="800" fill="#9c7449"/><rect x="2000" y="930" width="260" height="16" fill="#7c5a37"/><rect x="2020" y="790" width="36" height="140" fill="#b3502f"/><rect x="2066" y="802" width="36" height="128" fill="#39685c"/><rect x="2112" y="790" width="36" height="140" fill="#c9a227"/><rect x="2158" y="802" width="36" height="128" fill="#2c4661"/><rect x="2204" y="790" width="36" height="140" fill="#8a4423"/><rect x="2000" y="1180" width="260" height="16" fill="#7c5a37"/><rect x="2020" y="1040" width="36" height="140" fill="#39685c"/><rect x="2066" y="1052" width="36" height="128" fill="#c9a227"/><rect x="2112" y="1040" width="36" height="140" fill="#2c4661"/><rect x="2158" y="1052" width="36" height="128" fill="#8a4423"/><rect x="2204" y="1040" width="36" height="140" fill="#b3502f"/><rect x="2000" y="1430" width="260" height="16" fill="#7c5a37"/><rect x="2020" y="1290" width="36" height="140" fill="#c9a227"/><rect x="2066" y="1302" width="36" height="128" fill="#2c4661"/><rect x="2112" y="1290" width="36" height="140" fill="#8a4423"/><rect x="2158" y="1302" width="36" height="128" fill="#b3502f"/><rect x="2204" y="1290" width="36" height="140" fill="#39685c"/><defs><filter id="a199c-sh" x="-30%" y="-30%" width="160%" height="160%"><feGaussianBlur stdDeviation="16"/></filter></defs><rect x="1340.5" y="298.5" width="517" height="635" fill="#000" opacity="0.28" filter="url(#a199c-sh)"/><rect x="1326.5" y="276.5" width="517" height="635" fill="#3d342a"/><rect x="1341.8" y="291.8" width="486.4" height="604.5" fill="none" stroke="#00000055" stroke-width="3"/><rect x="1350" y="300" width="470" height="588" fill="#f6f2ea"/><svg x="1385.3" y="335.3" width="399.5" height="517.5" viewBox="0 0 2400 3000" preserveAspectRatio="xMidYMid slice"><filter id="a199-warp" x="-4%" y="-4%" width="108%" height="108%"><feTurbulence type="fractalNoise" baseFrequency="0.0105" numOctaves="2" seed="989" result="w"/><feDisplacementMap in="SourceGraphic" in2="w" scale="12" xChannelSelector="R" yChannelSelector="G"/></filter><filter id="a199-grain" x="0%" y="0%" width="100%" height="100%"><feTurbulence type="fractalNoise" baseFrequency="0.6" numOctaves="2" seed="996"/><feColorMatrix type="matrix" values="0.33 0.33 0.33 0 0.62  0.33 0.33 0.33 0 0.62  0.33 0.33 0.33 0 0.62  0 0 0 0 1"/></filter><filter id="a199-mottle" x="0%" y="0%" width="100%" height="100%"><feTurbulence type="fractalNoise" baseFrequency="0.0045" numOctaves="3" seed="1002"/><feColorMatrix type="matrix" values="0.2 0.2 0.2 0 0.78  0.2 0.2 0.2 0 0.78  0.2 0.2 0.2 0 0.78  0 0 0 0 1"/></filter><filter id="a199-fade" x="0%" y="0%" width="100%" height="100%"><feTurbulence type="fractalNoise" baseFrequency="0.006" numOctaves="2" seed="1018"/><feColorMatrix type="matrix" values="0.3 0.3 0.3 0 -0.08  0.3 0.3 0.3 0 -0.08  0.3 0.3 0.3 0 -0.1  0 0 0 0 1"/></filter><filter id="a199-blur9"><feGaussianBlur stdDeviation="9"/></filter><radialGradient id="a199-vig" cx="50%" cy="44%" r="78%"><stop offset="52%" stop-color="#241a10" stop-opacity="0"/><stop offset="100%" stop-color="#241a10" stop-opacity="0.17"/></radialGradient><radialGradient id="a199-warm" cx="59%" cy="30%" r="85%"><stop offset="0%" stop-color="#e8c890" stop-opacity="0.14"/><stop offset="70%" stop-color="#e8c890" stop-opacity="0"/></radialGradient><rect width="2400" height="3000" fill="#dcd3c2"/><rect width="2400" height="3000" fill="url(#a199-warm)"/><rect y="1989.1" width="2400" height="161.5" fill="#8a6a40" opacity="0.040" transform="rotate(-0.8 1200 1989.1)"/><rect y="2978.4" width="2400" height="370.4" fill="#ffffff" opacity="0.037" transform="rotate(-1.5 1200 2978.4)"/><rect y="1754.4" width="2400" height="290.2" fill="#8a6a40" opacity="0.032" transform="rotate(0.1 1200 1754.4)"/><rect y="2608.1" width="2400" height="366.8" fill="#ffffff" opacity="0.036" transform="rotate(-0.8 1200 2608.1)"/><rect y="891.4" width="2400" height="340.8" fill="#8a6a40" opacity="0.025" transform="rotate(1.3 1200 891.4)"/><rect y="946.2" width="2400" height="155.1" fill="#ffffff" opacity="0.046" transform="rotate(0.6 1200 946.2)"/><rect y="1294.9" width="2400" height="198.8" fill="#8a6a40" opacity="0.034" transform="rotate(-2 1200 1294.9)"/><g filter="url(#a199-warp)"><circle cx="1200" cy="1420" r="900" fill="none" stroke="#41586a" stroke-width="12"/><line x1="2066" y1="1420" x2="2100" y2="1420" stroke="#41586a" stroke-width="8"/><line x1="2058.6" y1="1533" x2="2092.3" y2="1537.5" stroke="#41586a" stroke-width="8"/><line x1="2036.5" y1="1644.1" x2="2069.3" y2="1652.9" stroke="#41586a" stroke-width="8"/><line x1="2000.1" y1="1751.4" x2="2031.5" y2="1764.4" stroke="#41586a" stroke-width="8"/><line x1="1950" y1="1853" x2="1979.4" y2="1870" stroke="#41586a" stroke-width="8"/><line x1="1887" y1="1947.2" x2="1914" y2="1967.9" stroke="#41586a" stroke-width="8"/><line x1="1812.4" y1="2032.4" x2="1836.4" y2="2056.4" stroke="#41586a" stroke-width="8"/><line x1="1727.2" y1="2107" x2="1747.9" y2="2134" stroke="#41586a" stroke-width="8"/><line x1="1633" y1="2170" x2="1650" y2="2199.4" stroke="#41586a" stroke-width="8"/><line x1="1531.4" y1="2220.1" x2="1544.4" y2="2251.5" stroke="#41586a" stroke-width="8"/><line x1="1424.1" y1="2256.5" x2="1432.9" y2="2289.3" stroke="#41586a" stroke-width="8"/><line x1="1313" y1="2278.6" x2="1317.5" y2="2312.3" stroke="#41586a" stroke-width="8"/><line x1="1200" y1="2286" x2="1200" y2="2320" stroke="#41586a" stroke-width="8"/><line x1="1087" y1="2278.6" x2="1082.5" y2="2312.3" stroke="#41586a" stroke-width="8"/><line x1="975.9" y1="2256.5" x2="967.1" y2="2289.3" stroke="#41586a" stroke-width="8"/><line x1="868.6" y1="2220.1" x2="855.6" y2="2251.5" stroke="#41586a" stroke-width="8"/><line x1="767" y1="2170" x2="750" y2="2199.4" stroke="#41586a" stroke-width="8"/><line x1="672.8" y1="2107" x2="652.1" y2="2134" stroke="#41586a" stroke-width="8"/><line x1="587.6" y1="2032.4" x2="563.6" y2="2056.4" stroke="#41586a" stroke-width="8"/><line x1="513" y1="1947.2" x2="486" y2="1967.9" stroke="#41586a" stroke-width="8"/><line x1="450" y1="1853" x2="420.6" y2="1870" stroke="#41586a" stroke-width="8"/><line x1="399.9" y1="1751.4" x2="368.5" y2="1764.4" stroke="#41586a" stroke-width="8"/><line x1="363.5" y1="1644.1" x2="330.7" y2="1652.9" stroke="#41586a" stroke-width="8"/><line x1="341.4" y1="1533" x2="307.7" y2="1537.5" stroke="#41586a" stroke-width="8"/><line x1="334" y1="1420" x2="300" y2="1420" stroke="#41586a" stroke-width="8"/><line x1="341.4" y1="1307" x2="307.7" y2="1302.5" stroke="#41586a" stroke-width="8"/><line x1="363.5" y1="1195.9" x2="330.7" y2="1187.1" stroke="#41586a" stroke-width="8"/><line x1="399.9" y1="1088.6" x2="368.5" y2="1075.6" stroke="#41586a" stroke-width="8"/><line x1="450" y1="987" x2="420.6" y2="970" stroke="#41586a" stroke-width="8"/><line x1="513" y1="892.8" x2="486" y2="872.1" stroke="#41586a" stroke-width="8"/><line x1="587.6" y1="807.6" x2="563.6" y2="783.6" stroke="#41586a" stroke-width="8"/><line x1="672.8" y1="733" x2="652.1" y2="706" stroke="#41586a" stroke-width="8"/><line x1="767" y1="670" x2="750" y2="640.6" stroke="#41586a" stroke-width="8"/><line x1="868.6" y1="619.9" x2="855.6" y2="588.5" stroke="#41586a" stroke-width="8"/><line x1="975.9" y1="583.5" x2="967.1" y2="550.7" stroke="#41586a" stroke-width="8"/><line x1="1087" y1="561.4" x2="1082.5" y2="527.7" stroke="#41586a" stroke-width="8"/><line x1="1200" y1="554" x2="1200" y2="520" stroke="#41586a" stroke-width="8"/><line x1="1313" y1="561.4" x2="1317.5" y2="527.7" stroke="#41586a" stroke-width="8"/><line x1="1424.1" y1="583.5" x2="1432.9" y2="550.7" stroke="#41586a" stroke-width="8"/><line x1="1531.4" y1="619.9" x2="1544.4" y2="588.5" stroke="#41586a" stroke-width="8"/><line x1="1633" y1="670" x2="1650" y2="640.6" stroke="#41586a" stroke-width="8"/><line x1="1727.2" y1="733" x2="1747.9" y2="706" stroke="#41586a" stroke-width="8"/><line x1="1812.4" y1="807.6" x2="1836.4" y2="783.6" stroke="#41586a" stroke-width="8"/><line x1="1887" y1="892.8" x2="1914" y2="872.1" stroke="#41586a" stroke-width="8"/><line x1="1950" y1="987" x2="1979.4" y2="970" stroke="#41586a" stroke-width="8"/><line x1="2000.1" y1="1088.6" x2="2031.5" y2="1075.6" stroke="#41586a" stroke-width="8"/><line x1="2036.5" y1="1195.9" x2="2069.3" y2="1187.1" stroke="#41586a" stroke-width="8"/><line x1="2058.6" y1="1307" x2="2092.3" y2="1302.5" stroke="#41586a" stroke-width="8"/><polygon points="2010,1420 1808.9,1358.6 1808.9,1481.4" fill="#41586a"/><polygon points="1984.6,1621.4 1805.1,1511.9 1774.5,1630.9" fill="#a2542f"/><polygon points="1909.8,1810.2 1763.2,1659.5 1704,1767.2" fill="#41586a"/><polygon points="1790.5,1974.5 1685.9,1792.1 1601.8,1881.6" fill="#a2542f"/><polygon points="1634,2103.9 1578.1,1901.2 1474.4,1967" fill="#41586a"/><polygon points="1450.3,2190.4 1446.6,1980.1 1329.7,2018.1" fill="#a2542f"/><polygon points="1250.9,2228.4 1299.5,2023.9 1176.9,2031.6" fill="#41586a"/><polygon points="1048.2,2215.7 1146.2,2029.6 1025.6,2006.6" fill="#a2542f"/><polygon points="855.1,2152.9 996.3,1997.1 885.2,1944.8" fill="#41586a"/><polygon points="683.7,2044.1 859.2,1928.3 764.5,1850" fill="#a2542f"/><polygon points="544.7,1896.1 743.5,1827.6 671.3,1728.2" fill="#41586a"/><polygon points="446.9,1718.2 656.5,1701.3 611.2,1587" fill="#a2542f"/><polygon points="396.4,1521.5 603.6,1557.3 588.2,1435.4" fill="#41586a"/><polygon points="396.4,1318.5 588.2,1404.6 603.6,1282.7" fill="#a2542f"/><polygon points="446.9,1121.8 611.2,1253 656.5,1138.7" fill="#41586a"/><polygon points="544.7,943.9 671.3,1111.8 743.5,1012.4" fill="#a2542f"/><polygon points="683.7,795.9 764.5,990 859.2,911.7" fill="#41586a"/><polygon points="855.1,687.1 885.2,895.2 996.3,842.9" fill="#a2542f"/><polygon points="1048.2,624.3 1025.6,833.4 1146.2,810.4" fill="#41586a"/><polygon points="1250.9,611.6 1176.9,808.4 1299.5,816.1" fill="#a2542f"/><polygon points="1450.3,649.6 1329.7,821.9 1446.6,859.9" fill="#41586a"/><polygon points="1634,736.1 1474.4,873 1578.1,938.8" fill="#a2542f"/><polygon points="1790.5,865.5 1601.8,958.4 1685.9,1047.9" fill="#41586a"/><polygon points="1909.8,1029.8 1704,1072.8 1763.2,1180.5" fill="#a2542f"/><polygon points="1984.6,1218.6 1774.5,1209.1 1805.1,1328.1" fill="#41586a"/><circle cx="1200" cy="1420" r="558" fill="none" stroke="#41586a" stroke-width="8"/><path d="M0 0 Q 67.5 -198.4 0 -522 Q -67.5 -198.4 0 0 Z" fill="#a2542f" opacity="0.96" transform="translate(1209.8 1422) rotate(191.3)"/><path d="M0 0 Q 67.5 -198.4 0 -522 Q -67.5 -198.4 0 0 Z" fill="#41586a" opacity="0.96" transform="translate(1208.3 1425.6) rotate(213.8)"/><path d="M0 0 Q 67.5 -198.4 0 -522 Q -67.5 -198.4 0 0 Z" fill="#a2542f" opacity="0.96" transform="translate(1205.6 1428.3) rotate(236.3)"/><path d="M0 0 Q 67.5 -198.4 0 -522 Q -67.5 -198.4 0 0 Z" fill="#41586a" opacity="0.96" transform="translate(1202 1429.8) rotate(258.8)"/><path d="M0 0 Q 67.5 -198.4 0 -522 Q -67.5 -198.4 0 0 Z" fill="#a2542f" opacity="0.96" transform="translate(1198 1429.8) rotate(281.3)"/><path d="M0 0 Q 67.5 -198.4 0 -522 Q -67.5 -198.4 0 0 Z" fill="#41586a" opacity="0.96" transform="translate(1194.4 1428.3) rotate(303.8)"/><path d="M0 0 Q 67.5 -198.4 0 -522 Q -67.5 -198.4 0 0 Z" fill="#a2542f" opacity="0.96" transform="translate(1191.7 1425.6) rotate(326.3)"/><path d="M0 0 Q 67.5 -198.4 0 -522 Q -67.5 -198.4 0 0 Z" fill="#41586a" opacity="0.96" transform="translate(1190.2 1422) rotate(348.8)"/><path d="M0 0 Q 67.5 -198.4 0 -522 Q -67.5 -198.4 0 0 Z" fill="#a2542f" opacity="0.96" transform="translate(1190.2 1418) rotate(371.3)"/><path d="M0 0 Q 67.5 -198.4 0 -522 Q -67.5 -198.4 0 0 Z" fill="#41586a" opacity="0.96" transform="translate(1191.7 1414.4) rotate(393.8)"/><path d="M0 0 Q 67.5 -198.4 0 -522 Q -67.5 -198.4 0 0 Z" fill="#a2542f" opacity="0.96" transform="translate(1194.4 1411.7) rotate(416.3)"/><path d="M0 0 Q 67.5 -198.4 0 -522 Q -67.5 -198.4 0 0 Z" fill="#41586a" opacity="0.96" transform="translate(1198 1410.2) rotate(438.8)"/><path d="M0 0 Q 67.5 -198.4 0 -522 Q -67.5 -198.4 0 0 Z" fill="#a2542f" opacity="0.96" transform="translate(1202 1410.2) rotate(461.3)"/><path d="M0 0 Q 67.5 -198.4 0 -522 Q -67.5 -198.4 0 0 Z" fill="#41586a" opacity="0.96" transform="translate(1205.6 1411.7) rotate(483.8)"/><path d="M0 0 Q 67.5 -198.4 0 -522 Q -67.5 -198.4 0 0 Z" fill="#a2542f" opacity="0.96" transform="translate(1208.3 1414.4) rotate(506.3)"/><path d="M0 0 Q 67.5 -198.4 0 -522 Q -67.5 -198.4 0 0 Z" fill="#41586a" opacity="0.96" transform="translate(1209.8 1418) rotate(528.8)"/><path d="M0 0 Q 76.5 -116.3 0 -306 Q -76.5 -116.3 0 0 Z" fill="#b6ab95" opacity="0.98" transform="translate(1200 1420) rotate(180)"/><path d="M0 0 Q 76.5 -116.3 0 -306 Q -76.5 -116.3 0 0 Z" fill="#b6ab95" opacity="0.98" transform="translate(1200 1420) rotate(225)"/><path d="M0 0 Q 76.5 -116.3 0 -306 Q -76.5 -116.3 0 0 Z" fill="#b6ab95" opacity="0.98" transform="translate(1200 1420) rotate(270)"/><path d="M0 0 Q 76.5 -116.3 0 -306 Q -76.5 -116.3 0 0 Z" fill="#b6ab95" opacity="0.98" transform="translate(1200 1420) rotate(315)"/><path d="M0 0 Q 76.5 -116.3 0 -306 Q -76.5 -116.3 0 0 Z" fill="#b6ab95" opacity="0.98" transform="translate(1200 1420) rotate(360)"/><path d="M0 0 Q 76.5 -116.3 0 -306 Q -76.5 -116.3 0 0 Z" fill="#b6ab95" opacity="0.98" transform="translate(1200 1420) rotate(405)"/><path d="M0 0 Q 76.5 -116.3 0 -306 Q -76.5 -116.3 0 0 Z" fill="#b6ab95" opacity="0.98" transform="translate(1200 1420) rotate(450)"/><path d="M0 0 Q 76.5 -116.3 0 -306 Q -76.5 -116.3 0 0 Z" fill="#b6ab95" opacity="0.98" transform="translate(1200 1420) rotate(495)"/><circle cx="1200" cy="1420" r="110" fill="#41586a"/><circle cx="1200" cy="1420" r="44" fill="#a2542f"/><circle cx="388" cy="208" r="14.6" fill="#41586a"/><circle cx="444" cy="208" r="14.6" fill="#41586a"/><circle cx="500" cy="208" r="14.6" fill="#41586a"/><circle cx="556" cy="208" r="14.6" fill="#41586a"/><circle cx="612" cy="208" r="14.6" fill="#41586a"/><circle cx="668" cy="208" r="14.6" fill="#41586a"/><circle cx="724" cy="208" r="14.6" fill="#41586a"/><circle cx="780" cy="208" r="14.6" fill="#41586a"/><circle cx="836" cy="208" r="14.6" fill="#41586a"/><circle cx="892" cy="208" r="14.6" fill="#41586a"/><circle cx="948" cy="208" r="14.6" fill="#41586a"/><circle cx="1004" cy="208" r="14.6" fill="#41586a"/><circle cx="1060" cy="208" r="14.6" fill="#41586a"/><circle cx="1116" cy="208" r="14.6" fill="#41586a"/><circle cx="1172" cy="208" r="14.6" fill="#41586a"/><circle cx="1228" cy="208" r="14.6" fill="#41586a"/><circle cx="1284" cy="208" r="14.6" fill="#41586a"/><circle cx="1340" cy="208" r="14.6" fill="#41586a"/><circle cx="1396" cy="208" r="14.6" fill="#41586a"/><circle cx="1452" cy="208" r="14.6" fill="#41586a"/><circle cx="1508" cy="208" r="14.6" fill="#41586a"/><circle cx="1564" cy="208" r="14.6" fill="#41586a"/><circle cx="1620" cy="208" r="14.6" fill="#41586a"/><circle cx="1676" cy="208" r="14.6" fill="#41586a"/><circle cx="1732" cy="208" r="14.6" fill="#41586a"/><circle cx="1788" cy="208" r="14.6" fill="#41586a"/><circle cx="1844" cy="208" r="14.6" fill="#41586a"/><circle cx="1900" cy="208" r="14.6" fill="#41586a"/><circle cx="1956" cy="208" r="14.6" fill="#41586a"/><circle cx="2012" cy="208" r="14.6" fill="#41586a"/><circle cx="388" cy="2792" r="14.6" fill="#41586a"/><circle cx="444" cy="2792" r="14.6" fill="#41586a"/><circle cx="500" cy="2792" r="14.6" fill="#41586a"/><circle cx="556" cy="2792" r="14.6" fill="#41586a"/><circle cx="612" cy="2792" r="14.6" fill="#41586a"/><circle cx="668" cy="2792" r="14.6" fill="#41586a"/><circle cx="724" cy="2792" r="14.6" fill="#41586a"/><circle cx="780" cy="2792" r="14.6" fill="#41586a"/><circle cx="836" cy="2792" r="14.6" fill="#41586a"/><circle cx="892" cy="2792" r="14.6" fill="#41586a"/><circle cx="948" cy="2792" r="14.6" fill="#41586a"/><circle cx="1004" cy="2792" r="14.6" fill="#41586a"/><circle cx="1060" cy="2792" r="14.6" fill="#41586a"/><circle cx="1116" cy="2792" r="14.6" fill="#41586a"/><circle cx="1172" cy="2792" r="14.6" fill="#41586a"/><circle cx="1228" cy="2792" r="14.6" fill="#41586a"/><circle cx="1284" cy="2792" r="14.6" fill="#41586a"/><circle cx="1340" cy="2792" r="14.6" fill="#41586a"/><circle cx="1396" cy="2792" r="14.6" fill="#41586a"/><circle cx="1452" cy="2792" r="14.6" fill="#41586a"/><circle cx="1508" cy="2792" r="14.6" fill="#41586a"/><circle cx="1564" cy="2792" r="14.6" fill="#41586a"/><circle cx="1620" cy="2792" r="14.6" fill="#41586a"/><circle cx="1676" cy="2792" r="14.6" fill="#41586a"/><circle cx="1732" cy="2792" r="14.6" fill="#41586a"/><circle cx="1788" cy="2792" r="14.6" fill="#41586a"/><circle cx="1844" cy="2792" r="14.6" fill="#41586a"/><circle cx="1900" cy="2792" r="14.6" fill="#41586a"/><circle cx="1956" cy="2792" r="14.6" fill="#41586a"/><circle cx="2012" cy="2792" r="14.6" fill="#41586a"/><rect x="104" y="104" width="2192" height="2792" fill="none" stroke="#41586a" stroke-width="16" opacity="0.85"/><rect x="150" y="150" width="2100" height="2700" fill="none" stroke="#41586a" stroke-width="4" opacity="0.55"/></g><rect width="2400" height="3000" filter="url(#a199-mottle)" style="mix-blend-mode:multiply" opacity="0.5"/><rect width="2400" height="3000" filter="url(#a199-fade)" style="mix-blend-mode:screen" opacity="0.55"/><rect width="2400" height="3000" filter="url(#a199-grain)" style="mix-blend-mode:multiply" opacity="0.32"/><ellipse cx="1485.9" cy="1645.8" rx="187.1" ry="173.7" fill="#6b4a22" opacity="0.043" filter="url(#a199-blur9)"/><ellipse cx="1830" cy="2682.3" rx="104" ry="61.5" fill="#6b4a22" opacity="0.042" filter="url(#a199-blur9)"/><ellipse cx="1695.5" cy="2453.9" rx="265.9" ry="271.6" fill="#6b4a22" opacity="0.051" filter="url(#a199-blur9)"/><polyline points="425.5,1876.7 442.6,1804 481,1707.3 547.6,1601.6 630.5,1549.4 740.8,1480.7" fill="none" stroke="#2e2116" stroke-width="3.5" opacity="0.24" stroke-linejoin="round"/><polyline points="425.5,1876.7 442.6,1804 481,1707.3 547.6,1601.6 630.5,1549.4 740.8,1480.7" fill="none" stroke="#fff8ea" stroke-width="2.5" opacity="0.09" transform="translate(2.5 2.5)" stroke-linejoin="round"/><polyline points="742.9,2338.6 620.3,2338 564.5,2367.4 485.4,2344.4 378.8,2317.1 321.7,2333.8 255.7,2318.3 216.7,2251 189.6,2180.2 172.9,2120.4 152.8,2059.2 120.2,1973.1" fill="none" stroke="#2e2116" stroke-width="2.5" opacity="0.23" stroke-linejoin="round"/><polyline points="742.9,2338.6 620.3,2338 564.5,2367.4 485.4,2344.4 378.8,2317.1 321.7,2333.8 255.7,2318.3 216.7,2251 189.6,2180.2 172.9,2120.4 152.8,2059.2 120.2,1973.1" fill="none" stroke="#fff8ea" stroke-width="1.8" opacity="0.09" transform="translate(2.5 2.5)" stroke-linejoin="round"/><polyline points="1666.1,2167.9 1658,2086.6 1711.4,2002.6 1854.4,1969.4 1924.7,1927.7 2041.2,1834.4 2051.4,1754.9 2043.7,1664.3" fill="none" stroke="#2e2116" stroke-width="4.4" opacity="0.22" stroke-linejoin="round"/><polyline points="1666.1,2167.9 1658,2086.6 1711.4,2002.6 1854.4,1969.4 1924.7,1927.7 2041.2,1834.4 2051.4,1754.9 2043.7,1664.3" fill="none" stroke="#fff8ea" stroke-width="3.1" opacity="0.09" transform="translate(2.5 2.5)" stroke-linejoin="round"/><polyline points="812.3,2649.7 740.6,2686.3 701,2746.3 596.7,2777.3 535.7,2811.9 388.5,2811.2 297,2914.9" fill="none" stroke="#2e2116" stroke-width="2.8" opacity="0.22" stroke-linejoin="round"/><polyline points="812.3,2649.7 740.6,2686.3 701,2746.3 596.7,2777.3 535.7,2811.9 388.5,2811.2 297,2914.9" fill="none" stroke="#fff8ea" stroke-width="2" opacity="0.13" transform="translate(2.5 2.5)" stroke-linejoin="round"/><polyline points="1385.1,2621.1 1448.1,2651.4 1561.8,2689.4 1612.7,2665.6 1716.7,2583.3 1761.7,2517.9 1860.5,2497.9 1958.8,2580" fill="none" stroke="#2e2116" stroke-width="3.4" opacity="0.19" stroke-linejoin="round"/><polyline points="1385.1,2621.1 1448.1,2651.4 1561.8,2689.4 1612.7,2665.6 1716.7,2583.3 1761.7,2517.9 1860.5,2497.9 1958.8,2580" fill="none" stroke="#fff8ea" stroke-width="2.4" opacity="0.11" transform="translate(2.5 2.5)" stroke-linejoin="round"/><polyline points="2133.3,1795 2109.9,1735.4 2052.2,1631.1 1995.5,1571.8 1890.3,1507.9 1790.5,1466.5 1671.6,1422 1554.5,1471.3 1495.5,1452.8" fill="none" stroke="#2e2116" stroke-width="3.3" opacity="0.26" stroke-linejoin="round"/><polyline points="2133.3,1795 2109.9,1735.4 2052.2,1631.1 1995.5,1571.8 1890.3,1507.9 1790.5,1466.5 1671.6,1422 1554.5,1471.3 1495.5,1452.8" fill="none" stroke="#fff8ea" stroke-width="2.3" opacity="0.11" transform="translate(2.5 2.5)" stroke-linejoin="round"/><polyline points="1346.8,1370.3 1281.6,1359.6 1151.8,1287.1 1125.6,1174.2 1020.3,1095.1 927.6,1051.4 829,984.9 813.5,920.8" fill="none" stroke="#2e2116" stroke-width="3.6" opacity="0.26" stroke-linejoin="round"/><polyline points="1346.8,1370.3 1281.6,1359.6 1151.8,1287.1 1125.6,1174.2 1020.3,1095.1 927.6,1051.4 829,984.9 813.5,920.8" fill="none" stroke="#fff8ea" stroke-width="2.6" opacity="0.13" transform="translate(2.5 2.5)" stroke-linejoin="round"/><polyline points="1940.3,259.4 1823.4,199.6 1683.3,245.3 1598.2,207.4 1462.2,179.6 1338.7,114.7 1266.7,109.6 1122,78.8 1055.9,66.5" fill="none" stroke="#2e2116" stroke-width="2.1" opacity="0.24" stroke-linejoin="round"/><polyline points="1940.3,259.4 1823.4,199.6 1683.3,245.3 1598.2,207.4 1462.2,179.6 1338.7,114.7 1266.7,109.6 1122,78.8 1055.9,66.5" fill="none" stroke="#fff8ea" stroke-width="1.5" opacity="0.10" transform="translate(2.5 2.5)" stroke-linejoin="round"/><polyline points="942.6,2349.2 1013.9,2409.7 1034.4,2510.8 969.5,2616.8 936.1,2686.6 880.5,2751.1 842.6,2811.3" fill="none" stroke="#2e2116" stroke-width="2.6" opacity="0.19" stroke-linejoin="round"/><polyline points="942.6,2349.2 1013.9,2409.7 1034.4,2510.8 969.5,2616.8 936.1,2686.6 880.5,2751.1 842.6,2811.3" fill="none" stroke="#fff8ea" stroke-width="1.8" opacity="0.08" transform="translate(2.5 2.5)" stroke-linejoin="round"/><polyline points="1056.9,936.7 1004.7,1017.9 1003.5,1115.8 917.5,1193.9 820.6,1283.2 735.7,1388.2 659.8,1459.5 603,1528.3 537.1,1537.2 481.3,1525.3 409.1,1492.3 281.6,1492.7 210.8,1509.6" fill="none" stroke="#2e2116" stroke-width="3.1" opacity="0.19" stroke-linejoin="round"/><polyline points="1056.9,936.7 1004.7,1017.9 1003.5,1115.8 917.5,1193.9 820.6,1283.2 735.7,1388.2 659.8,1459.5 603,1528.3 537.1,1537.2 481.3,1525.3 409.1,1492.3 281.6,1492.7 210.8,1509.6" fill="none" stroke="#fff8ea" stroke-width="2.2" opacity="0.09" transform="translate(2.5 2.5)" stroke-linejoin="round"/><path d="M1863.2,810.9 Q1846.7,827.7 1826.1,831.9 Q1805.5,836.1 1790,825.7 Q1774.6,815.3 1774.5,788.5 Q1774.3,761.7 1788.8,752 Q1803.3,742.2 1837.1,739.5 Q1871,736.8 1875.3,765.4 Q1879.6,794 1863.2,810.9 Z" fill="#dcd3c2" opacity="0.91"/><path d="M2112.3,1520 Q2098.8,1537.1 2056.1,1539.8 Q2013.4,1542.6 1984.1,1529.8 Q1954.9,1517 1967.9,1501.5 Q1980.9,1485.9 1999.2,1467.5 Q2017.4,1449.1 2057.1,1459.5 Q2096.9,1469.9 2111.3,1486.4 Q2125.8,1503 2112.3,1520 Z" fill="#dcd3c2" opacity="0.77"/><path d="M1193.2,2118.8 Q1177.9,2128.4 1161.9,2132.6 Q1145.9,2136.7 1135.8,2129.8 Q1125.8,2122.8 1116.9,2109 Q1108,2095.3 1126.1,2086.7 Q1144.1,2078 1160.7,2079.4 Q1177.2,2080.8 1192.9,2095 Q1208.6,2109.1 1193.2,2118.8 Z" fill="#dcd3c2" opacity="0.77"/><path d="M1948.8,428.3 Q1936.3,446.2 1916.9,451.6 Q1897.4,457 1874.4,448.6 Q1851.3,440.2 1854.4,410.4 Q1857.5,380.6 1878.4,374 Q1899.3,367.4 1917.8,361.7 Q1936.3,356 1948.8,383.2 Q1961.2,410.4 1948.8,428.3 Z" fill="#dcd3c2" opacity="0.88"/><path d="M1208.3,2084.6 Q1197.9,2097.2 1176.3,2107.1 Q1154.7,2116.9 1132.8,2103.5 Q1110.9,2090.2 1123,2073 Q1135.2,2055.7 1145.1,2045.8 Q1155.1,2035.8 1170.8,2033.2 Q1186.5,2030.7 1202.7,2051.3 Q1218.8,2071.9 1208.3,2084.6 Z" fill="#dcd3c2" opacity="0.89"/><path d="M1343.7,352.1 Q1325.1,382.6 1274.7,382.6 Q1224.2,382.6 1189.4,363.3 Q1154.6,344 1148.2,321.9 Q1141.9,299.9 1186.3,277.2 Q1230.7,254.5 1283.6,259.4 Q1336.5,264.2 1349.4,292.9 Q1362.4,321.7 1343.7,352.1 Z" fill="#dcd3c2" opacity="0.90"/><path d="M1313.1,2345.1 Q1313.1,2352.2 1298.4,2359.4 Q1283.7,2366.7 1273.4,2355.8 Q1263.1,2345 1258,2334.4 Q1252.9,2323.9 1268.3,2319.1 Q1283.7,2314.3 1296.4,2317.9 Q1309.2,2321.5 1311.1,2329.7 Q1313.1,2337.9 1313.1,2345.1 Z" fill="#dcd3c2" opacity="0.75"/><rect width="2400" height="3000" fill="url(#a199-vig)"/></svg></svg>