<svg xmlns="http://www.w3.org/2000/svg" width="2400" height="3000" viewBox="0 0 2400 3000"><filter id="a31-warp" x="-4%" y="-4%" width="108%" height="108%"><feTurbulence type="fractalNoise" baseFrequency="0.0105" numOctaves="2" seed="6005" result="w"/><feDisplacementMap in="SourceGraphic" in2="w" scale="11" xChannelSelector="R" yChannelSelector="G"/></filter><filter id="a31-grain" x="0%" y="0%" width="100%" height="100%"><feTurbulence type="fractalNoise" baseFrequency="0.6" numOctaves="2" seed="6012"/><feColorMatrix type="matrix" values="0.33 0.33 0.33 0 0.62  0.33 0.33 0.33 0 0.62  0.33 0.33 0.33 0 0.62  0 0 0 0 1"/></filter><filter id="a31-mottle" x="0%" y="0%" width="100%" height="100%"><feTurbulence type="fractalNoise" baseFrequency="0.0045" numOctaves="3" seed="6018"/><feColorMatrix type="matrix" values="0.2 0.2 0.2 0 0.78  0.2 0.2 0.2 0 0.78  0.2 0.2 0.2 0 0.78  0 0 0 0 1"/></filter><filter id="a31-fade" x="0%" y="0%" width="100%" height="100%"><feTurbulence type="fractalNoise" baseFrequency="0.006" numOctaves="2" seed="6034"/><feColorMatrix type="matrix" values="0.3 0.3 0.3 0 -0.08  0.3 0.3 0.3 0 -0.08  0.3 0.3 0.3 0 -0.1  0 0 0 0 1"/></filter><filter id="a31-blur9"><feGaussianBlur stdDeviation="9"/></filter><radialGradient id="a31-vig" cx="50%" cy="44%" r="78%"><stop offset="52%" stop-color="#241a10" stop-opacity="0"/><stop offset="100%" stop-color="#241a10" stop-opacity="0.17"/></radialGradient><radialGradient id="a31-warm" cx="35%" cy="30%" r="85%"><stop offset="0%" stop-color="#e8c890" stop-opacity="0.14"/><stop offset="70%" stop-color="#e8c890" stop-opacity="0"/></radialGradient><rect width="2400" height="3000" fill="#d9c49a"/><rect width="2400" height="3000" fill="url(#a31-warm)"/><rect x="0" width="28.6" height="3000" fill="#6b4e26" opacity="0.052"/><rect x="39.7" width="36.3" height="3000" fill="#6b4e26" opacity="0.088"/><rect x="90.1" width="37.7" height="3000" fill="#6b4e26" opacity="0.080"/><rect x="142.5" width="39.4" height="3000" fill="#6b4e26" opacity="0.035"/><rect x="197.1" width="41.5" height="3000" fill="#6b4e26" opacity="0.046"/><rect x="254.8" width="33.6" height="3000" fill="#6b4e26" opacity="0.050"/><rect x="301.4" width="19.7" height="3000" fill="#6b4e26" opacity="0.072"/><rect x="328.8" width="36" height="3000" fill="#6b4e26" opacity="0.045"/><rect x="378.8" width="36" height="3000" fill="#6b4e26" opacity="0.044"/><rect x="428.8" width="37.5" height="3000" fill="#6b4e26" opacity="0.097"/><rect x="480.9" width="41.4" height="3000" fill="#6b4e26" opacity="0.081"/><rect x="538.4" width="35.8" height="3000" fill="#6b4e26" opacity="0.079"/><rect x="588" width="33" height="3000" fill="#6b4e26" opacity="0.072"/><rect x="633.9" width="31.8" height="3000" fill="#6b4e26" opacity="0.045"/><rect x="678.1" width="31.9" height="3000" fill="#6b4e26" opacity="0.089"/><rect x="722.4" width="37.1" height="3000" fill="#6b4e26" opacity="0.069"/><rect x="773.8" width="22.7" height="3000" fill="#6b4e26" opacity="0.076"/><rect x="805.4" width="42.3" height="3000" fill="#6b4e26" opacity="0.085"/><rect x="864.2" width="42.5" height="3000" fill="#6b4e26" opacity="0.038"/><rect x="923.2" width="39.9" height="3000" fill="#6b4e26" opacity="0.057"/><rect x="978.5" width="37.2" height="3000" fill="#6b4e26" opacity="0.044"/><rect x="1030.2" width="25.1" height="3000" fill="#6b4e26" opacity="0.097"/><rect x="1065" width="23.9" height="3000" fill="#6b4e26" opacity="0.099"/><rect x="1098.1" width="42.2" height="3000" fill="#6b4e26" opacity="0.080"/><rect x="1156.7" width="30.5" height="3000" fill="#6b4e26" opacity="0.092"/><rect x="1199.1" width="32.8" height="3000" fill="#6b4e26" opacity="0.097"/><rect x="1244.7" width="27.7" height="3000" fill="#6b4e26" opacity="0.032"/><rect x="1283.1" width="42.3" height="3000" fill="#6b4e26" opacity="0.031"/><rect x="1341.9" width="23.3" height="3000" fill="#6b4e26" opacity="0.100"/><rect x="1374.3" width="41.2" height="3000" fill="#6b4e26" opacity="0.047"/><rect x="1431.5" width="21.6" height="3000" fill="#6b4e26" opacity="0.047"/><rect x="1461.5" width="29.4" height="3000" fill="#6b4e26" opacity="0.031"/><rect x="1502.3" width="31.2" height="3000" fill="#6b4e26" opacity="0.064"/><rect x="1545.6" width="26.3" height="3000" fill="#6b4e26" opacity="0.033"/><rect x="1582.1" width="32.1" height="3000" fill="#6b4e26" opacity="0.096"/><rect x="1626.7" width="24.8" height="3000" fill="#6b4e26" opacity="0.099"/><rect x="1661.2" width="26.7" height="3000" fill="#6b4e26" opacity="0.042"/><rect x="1698.3" width="20.4" height="3000" fill="#6b4e26" opacity="0.070"/><rect x="1726.6" width="37.1" height="3000" fill="#6b4e26" opacity="0.083"/><rect x="1778.1" width="38.3" height="3000" fill="#6b4e26" opacity="0.067"/><rect x="1831.4" width="40" height="3000" fill="#6b4e26" opacity="0.096"/><rect x="1887" width="25.5" height="3000" fill="#6b4e26" opacity="0.092"/><rect x="1922.3" width="24.9" height="3000" fill="#6b4e26" opacity="0.075"/><rect x="1956.9" width="30.6" height="3000" fill="#6b4e26" opacity="0.050"/><rect x="1999.5" width="32.2" height="3000" fill="#6b4e26" opacity="0.060"/><rect x="2044.2" width="29.7" height="3000" fill="#6b4e26" opacity="0.053"/><rect x="2085.5" width="32.3" height="3000" fill="#6b4e26" opacity="0.051"/><rect x="2130.4" width="42" height="3000" fill="#6b4e26" opacity="0.082"/><rect x="2188.7" width="39.5" height="3000" fill="#6b4e26" opacity="0.059"/><rect x="2243.6" width="33.8" height="3000" fill="#6b4e26" opacity="0.048"/><rect x="2290.6" width="29.1" height="3000" fill="#6b4e26" opacity="0.036"/><rect x="2331" width="35.4" height="3000" fill="#6b4e26" opacity="0.060"/><rect x="2380.1" width="21.2" height="3000" fill="#6b4e26" opacity="0.038"/><rect y="0" width="2400" height="20.1" fill="#7c5c30" opacity="0.039"/><rect y="33.5" width="2400" height="26.2" fill="#7c5c30" opacity="0.036"/><rect y="77.1" width="2400" height="23.1" fill="#7c5c30" opacity="0.021"/><rect y="115.6" width="2400" height="24.3" fill="#7c5c30" opacity="0.027"/><rect y="156.1" width="2400" height="21.9" fill="#7c5c30" opacity="0.035"/><rect y="192.6" width="2400" height="14.3" fill="#7c5c30" opacity="0.047"/><rect y="216.4" width="2400" height="22.2" fill="#7c5c30" opacity="0.053"/><rect y="253.4" width="2400" height="21" fill="#7c5c30" opacity="0.059"/><rect y="288.4" width="2400" height="28.4" fill="#7c5c30" opacity="0.050"/><rect y="335.7" width="2400" height="14.2" fill="#7c5c30" opacity="0.036"/><rect y="359.4" width="2400" height="22.3" fill="#7c5c30" opacity="0.051"/><rect y="396.7" width="2400" height="15" fill="#7c5c30" opacity="0.050"/><rect y="421.7" width="2400" height="27.2" fill="#7c5c30" opacity="0.057"/><rect y="467" width="2400" height="18" fill="#7c5c30" opacity="0.045"/><rect y="497.1" width="2400" height="14.1" fill="#7c5c30" opacity="0.020"/><rect y="520.5" width="2400" height="24.4" fill="#7c5c30" opacity="0.026"/><rect y="561.2" width="2400" height="12.8" fill="#7c5c30" opacity="0.027"/><rect y="582.5" width="2400" height="17.7" fill="#7c5c30" opacity="0.029"/><rect y="612" width="2400" height="16.4" fill="#7c5c30" opacity="0.038"/><rect y="639.3" width="2400" height="12.5" fill="#7c5c30" opacity="0.050"/><rect y="660.1" width="2400" height="21.6" fill="#7c5c30" opacity="0.020"/><rect y="696.2" width="2400" height="23.9" fill="#7c5c30" opacity="0.047"/><rect y="736.1" width="2400" height="27.7" fill="#7c5c30" opacity="0.029"/><rect y="782.2" width="2400" height="12.9" fill="#7c5c30" opacity="0.049"/><rect y="803.7" width="2400" height="28" fill="#7c5c30" opacity="0.038"/><rect y="850.3" width="2400" height="25.1" fill="#7c5c30" opacity="0.058"/><rect y="892.1" width="2400" height="19.2" fill="#7c5c30" opacity="0.054"/><rect y="924.2" width="2400" height="27.4" fill="#7c5c30" opacity="0.032"/><rect y="969.9" width="2400" height="28.8" fill="#7c5c30" opacity="0.045"/><rect y="1017.9" width="2400" height="17.6" fill="#7c5c30" opacity="0.035"/><rect y="1047.3" width="2400" height="26.9" fill="#7c5c30" opacity="0.048"/><rect y="1092.1" width="2400" height="27.2" fill="#7c5c30" opacity="0.039"/><rect y="1137.5" width="2400" height="22.6" fill="#7c5c30" opacity="0.049"/><rect y="1175.1" width="2400" height="15.2" fill="#7c5c30" opacity="0.042"/><rect y="1200.4" width="2400" height="15.8" fill="#7c5c30" opacity="0.022"/><rect y="1226.7" width="2400" height="25.7" fill="#7c5c30" opacity="0.026"/><rect y="1269.6" width="2400" height="12.5" fill="#7c5c30" opacity="0.060"/><rect y="1290.5" width="2400" height="16.7" fill="#7c5c30" opacity="0.051"/><rect y="1318.3" width="2400" height="21.6" fill="#7c5c30" opacity="0.044"/><rect y="1354.3" width="2400" height="28.5" fill="#7c5c30" opacity="0.037"/><rect y="1401.7" width="2400" height="28.5" fill="#7c5c30" opacity="0.043"/><rect y="1449.3" width="2400" height="26.9" fill="#7c5c30" opacity="0.037"/><rect y="1494.1" width="2400" height="28" fill="#7c5c30" opacity="0.023"/><rect y="1540.8" width="2400" height="28.1" fill="#7c5c30" opacity="0.042"/><rect y="1587.7" width="2400" height="24.5" fill="#7c5c30" opacity="0.036"/><rect y="1628.5" width="2400" height="14.6" fill="#7c5c30" opacity="0.047"/><rect y="1652.9" width="2400" height="28.4" fill="#7c5c30" opacity="0.042"/><rect y="1700.3" width="2400" height="26.9" fill="#7c5c30" opacity="0.037"/><rect y="1745.1" width="2400" height="13.4" fill="#7c5c30" opacity="0.029"/><rect y="1767.4" width="2400" height="27.3" fill="#7c5c30" opacity="0.041"/><rect y="1812.8" width="2400" height="12.2" fill="#7c5c30" opacity="0.054"/><rect y="1833.2" width="2400" height="13.8" fill="#7c5c30" opacity="0.051"/><rect y="1856.2" width="2400" height="28.1" fill="#7c5c30" opacity="0.040"/><rect y="1903.1" width="2400" height="24.8" fill="#7c5c30" opacity="0.026"/><rect y="1944.4" width="2400" height="21" fill="#7c5c30" opacity="0.051"/><rect y="1979.3" width="2400" height="23.3" fill="#7c5c30" opacity="0.050"/><rect y="2018.2" width="2400" height="26.2" fill="#7c5c30" opacity="0.050"/><rect y="2061.9" width="2400" height="27.1" fill="#7c5c30" opacity="0.021"/><rect y="2107" width="2400" height="19.6" fill="#7c5c30" opacity="0.034"/><rect y="2139.7" width="2400" height="18.1" fill="#7c5c30" opacity="0.024"/><rect y="2169.8" width="2400" height="18.5" fill="#7c5c30" opacity="0.021"/><rect y="2200.6" width="2400" height="19.6" fill="#7c5c30" opacity="0.051"/><rect y="2233.3" width="2400" height="15.2" fill="#7c5c30" opacity="0.054"/><rect y="2258.6" width="2400" height="25.4" fill="#7c5c30" opacity="0.045"/><rect y="2300.9" width="2400" height="22" fill="#7c5c30" opacity="0.058"/><rect y="2337.6" width="2400" height="24.4" fill="#7c5c30" opacity="0.049"/><rect y="2378.3" width="2400" height="25.5" fill="#7c5c30" opacity="0.040"/><rect y="2420.8" width="2400" height="13.5" fill="#7c5c30" opacity="0.034"/><rect y="2443.2" width="2400" height="26.4" fill="#7c5c30" opacity="0.042"/><rect y="2487.2" width="2400" height="22.6" fill="#7c5c30" opacity="0.056"/><rect y="2524.8" width="2400" height="13.8" fill="#7c5c30" opacity="0.057"/><rect y="2547.8" width="2400" height="15.9" fill="#7c5c30" opacity="0.035"/><rect y="2574.3" width="2400" height="27.4" fill="#7c5c30" opacity="0.038"/><rect y="2619.9" width="2400" height="23.6" fill="#7c5c30" opacity="0.040"/><rect y="2659.2" width="2400" height="25.8" fill="#7c5c30" opacity="0.021"/><rect y="2702.3" width="2400" height="17.8" fill="#7c5c30" opacity="0.046"/><rect y="2732" width="2400" height="13.5" fill="#7c5c30" opacity="0.041"/><rect y="2754.4" width="2400" height="27.2" fill="#7c5c30" opacity="0.042"/><rect y="2799.7" width="2400" height="13.2" fill="#7c5c30" opacity="0.044"/><rect y="2821.7" width="2400" height="15.6" fill="#7c5c30" opacity="0.049"/><rect y="2847.8" width="2400" height="17.4" fill="#7c5c30" opacity="0.046"/><rect y="2876.8" width="2400" height="22.7" fill="#7c5c30" opacity="0.047"/><rect y="2914.7" width="2400" height="24.3" fill="#7c5c30" opacity="0.040"/><rect y="2955.1" width="2400" height="13.9" fill="#7c5c30" opacity="0.025"/><rect y="2978.3" width="2400" height="21.2" fill="#7c5c30" opacity="0.051"/><g filter="url(#a31-warp)"><clipPath id="a31-gz"><rect x="150" y="150" width="2100" height="2700"/></clipPath><g clip-path="url(#a31-gz)"><circle cx="1140.1" cy="920.6" r="359.8" fill="#a8502f"/><path d="M150,2050 C 700,1953.1 1100,2146.9 1600,1991.9 S 2200,2088.8 2250,2030 L2250,2850 L150,2850 Z" fill="#2c2820" opacity="0.35"/><path d="M150,2270 C 700,2141.4 1100,2398.6 1600,2192.8 S 2200,2321.5 2250,2250 L2250,2850 L150,2850 Z" fill="#b8a276" opacity="0.9"/><path d="M150,2520 C 700,2427.1 1100,2612.9 1600,2464.3 S 2200,2557.1 2250,2500 L2250,2850 L150,2850 Z" fill="#2c2820" opacity="1"/><polygon points="710.2,1495.3 220,2130 851.5,2130" fill="#2c2820"/><polygon points="710.2,1495.3 851.5,2130 1200.4,2130" fill="#2c2820" opacity="0.6"/><polygon points="1289.6,1460.8 736,2130 1388.9,2130" fill="#2c2820"/><polygon points="1289.6,1460.8 1388.9,2130 1843.2,2130" fill="#2c2820" opacity="0.6"/><polygon points="1820.6,1435.9 1461.2,2130 1872.2,2130" fill="#2c2820"/><polygon points="1820.6,1435.9 1872.2,2130 2180,2130" fill="#2c2820" opacity="0.6"/><path d="M1323.9,987 q 26,-24 52,0 q 26,-24 52,0" fill="none" stroke="#2c2820" stroke-width="8" stroke-linecap="round"/><path d="M1770.4,596.2 q 26,-24 52,0 q 26,-24 52,0" fill="none" stroke="#2c2820" stroke-width="8" stroke-linecap="round"/></g><polyline points="240,2800 300,2740 360,2800 420,2740 480,2800 540,2740 600,2800 660,2740 720,2800 780,2740 840,2800 900,2740 960,2800 1020,2740 1080,2800 1140,2740 1200,2800 1260,2740 1320,2800 1380,2740 1440,2800 1500,2740 1560,2800 1620,2740 1680,2800 1740,2740 1800,2800 1860,2740 1920,2800 1980,2740 2040,2800 2100,2740 2160,2800 " fill="none" stroke="#2c2820" stroke-width="10.8" stroke-linejoin="miter"/><rect x="120" y="120" width="2160" height="2760" fill="none" stroke="#2c2820" stroke-width="6" opacity="0.85"/></g><rect width="2400" height="3000" filter="url(#a31-mottle)" style="mix-blend-mode:multiply" opacity="0.5"/><rect width="2400" height="3000" filter="url(#a31-fade)" style="mix-blend-mode:screen" opacity="0.55"/><rect width="2400" height="3000" filter="url(#a31-grain)" style="mix-blend-mode:multiply" opacity="0.32"/><ellipse cx="961" cy="242.5" rx="188" ry="111.2" fill="#6b4a22" opacity="0.051" filter="url(#a31-blur9)"/><ellipse cx="853.8" cy="1941.1" rx="241" ry="234.4" fill="#6b4a22" opacity="0.050" filter="url(#a31-blur9)"/><ellipse cx="1091.9" cy="568.9" rx="333.9" ry="302.4" fill="#6b4a22" opacity="0.039" filter="url(#a31-blur9)"/><ellipse cx="891.4" cy="1085" rx="174.6" ry="162.7" fill="#6b4a22" opacity="0.044" filter="url(#a31-blur9)"/><ellipse cx="2244.8" cy="516.9" rx="286.5" ry="269.1" fill="#6b4a22" opacity="0.031" filter="url(#a31-blur9)"/><ellipse cx="2145.6" cy="816.7" rx="178.7" ry="195.7" fill="#6b4a22" opacity="0.040" filter="url(#a31-blur9)"/><rect x="0" width="26.4" height="3000" fill="#fff2d0" opacity="0.018"/><rect x="52.9" width="26.7" height="3000" fill="#fff2d0" opacity="0.028"/><rect x="106.2" width="18.6" height="3000" fill="#fff2d0" opacity="0.030"/><rect x="143.4" width="30.1" height="3000" fill="#fff2d0" opacity="0.030"/><rect x="203.5" width="28.8" height="3000" fill="#fff2d0" opacity="0.017"/><rect x="261.1" width="24.2" height="3000" fill="#fff2d0" opacity="0.020"/><rect x="309.6" width="24.3" height="3000" fill="#fff2d0" opacity="0.024"/><rect x="358.1" width="33.7" height="3000" fill="#fff2d0" opacity="0.026"/><rect x="425.5" width="22.6" height="3000" fill="#fff2d0" opacity="0.017"/><rect x="470.7" width="24.8" height="3000" fill="#fff2d0" opacity="0.017"/><rect x="520.3" width="28.3" height="3000" fill="#fff2d0" opacity="0.028"/><rect x="576.9" width="19.3" height="3000" fill="#fff2d0" opacity="0.021"/><rect x="615.5" width="19" height="3000" fill="#fff2d0" opacity="0.042"/><rect x="653.6" width="24.5" height="3000" fill="#fff2d0" opacity="0.030"/><rect x="702.6" width="18.2" height="3000" fill="#fff2d0" opacity="0.035"/><rect x="739" width="22.6" height="3000" fill="#fff2d0" opacity="0.015"/><rect x="784.2" width="24.3" height="3000" fill="#fff2d0" opacity="0.032"/><rect x="832.7" width="26.1" height="3000" fill="#fff2d0" opacity="0.037"/><rect x="884.9" width="25.6" height="3000" fill="#fff2d0" opacity="0.043"/><rect x="936.2" width="30.4" height="3000" fill="#fff2d0" opacity="0.018"/><rect x="996.9" width="30" height="3000" fill="#fff2d0" opacity="0.045"/><rect x="1057" width="30.3" height="3000" fill="#fff2d0" opacity="0.027"/><rect x="1117.7" width="31.7" height="3000" fill="#fff2d0" opacity="0.036"/><rect x="1181" width="17.5" height="3000" fill="#fff2d0" opacity="0.017"/><rect x="1215.9" width="29.2" height="3000" fill="#fff2d0" opacity="0.034"/><rect x="1274.3" width="32" height="3000" fill="#fff2d0" opacity="0.033"/><rect x="1338.4" width="25.9" height="3000" fill="#fff2d0" opacity="0.029"/><rect x="1390.1" width="25.5" height="3000" fill="#fff2d0" opacity="0.035"/><rect x="1441" width="34.5" height="3000" fill="#fff2d0" opacity="0.037"/><rect x="1510.1" width="28.6" height="3000" fill="#fff2d0" opacity="0.025"/><rect x="1567.3" width="27.9" height="3000" fill="#fff2d0" opacity="0.023"/><rect x="1623.2" width="28.4" height="3000" fill="#fff2d0" opacity="0.023"/><rect x="1679.9" width="34.8" height="3000" fill="#fff2d0" opacity="0.025"/><rect x="1749.4" width="20.6" height="3000" fill="#fff2d0" opacity="0.024"/><rect x="1790.7" width="17.9" height="3000" fill="#fff2d0" opacity="0.023"/><rect x="1826.5" width="24.2" height="3000" fill="#fff2d0" opacity="0.015"/><rect x="1874.8" width="33.8" height="3000" fill="#fff2d0" opacity="0.017"/><rect x="1942.4" width="19.7" height="3000" fill="#fff2d0" opacity="0.037"/><rect x="1981.8" width="30.8" height="3000" fill="#fff2d0" opacity="0.016"/><rect x="2043.4" width="18.1" height="3000" fill="#fff2d0" opacity="0.039"/><rect x="2079.7" width="15" height="3000" fill="#fff2d0" opacity="0.026"/><rect x="2109.7" width="21.1" height="3000" fill="#fff2d0" opacity="0.039"/><rect x="2151.9" width="26" height="3000" fill="#fff2d0" opacity="0.021"/><rect x="2203.9" width="21.9" height="3000" fill="#fff2d0" opacity="0.022"/><rect x="2247.8" width="21.6" height="3000" fill="#fff2d0" opacity="0.028"/><rect x="2291" width="16.9" height="3000" fill="#fff2d0" opacity="0.019"/><rect x="2324.8" width="27.9" height="3000" fill="#fff2d0" opacity="0.015"/><rect x="2380.7" width="26.8" height="3000" fill="#fff2d0" opacity="0.043"/><linearGradient id="a31-er" x1="0" x2="1" y1="0" y2="0"><stop offset="0" stop-color="#3a2a12" stop-opacity="0.22"/><stop offset="1" stop-color="#3a2a12" stop-opacity="0"/></linearGradient><rect x="0" y="0" width="90" height="3000" fill="url(#a31-er)"/><linearGradient id="a31-el" x1="1" x2="0" y1="0" y2="0"><stop offset="0" stop-color="#3a2a12" stop-opacity="0.22"/><stop offset="1" stop-color="#3a2a12" stop-opacity="0"/></linearGradient><rect x="2310" y="0" width="90" height="3000" fill="url(#a31-el)"/><linearGradient id="a31-ed" x1="0" x2="0" y1="0" y2="1"><stop offset="0" stop-color="#3a2a12" stop-opacity="0.22"/><stop offset="1" stop-color="#3a2a12" stop-opacity="0"/></linearGradient><rect x="0" y="0" width="2400" height="90" fill="url(#a31-ed)"/><linearGradient id="a31-eu" x1="0" x2="0" y1="1" y2="0"><stop offset="0" stop-color="#3a2a12" stop-opacity="0.22"/><stop offset="1" stop-color="#3a2a12" stop-opacity="0"/></linearGradient><rect x="0" y="2910" width="2400" height="90" fill="url(#a31-eu)"/><circle cx="1040.8" cy="1400.1" r="14.4" fill="#8a5a2e" opacity="0.082"/><circle cx="479.2" cy="2138.7" r="3.1" fill="#8a5a2e" opacity="0.094"/><circle cx="566.6" cy="2411" r="3.9" fill="#8a5a2e" opacity="0.106"/><circle cx="1664.9" cy="615.3" r="15.6" fill="#8a5a2e" opacity="0.058"/><circle cx="1978.8" cy="1519.6" r="11.4" fill="#8a5a2e" opacity="0.114"/><circle cx="836.3" cy="1978.3" r="7.4" fill="#8a5a2e" opacity="0.046"/><circle cx="1437.4" cy="920" r="7.5" fill="#8a5a2e" opacity="0.085"/><circle cx="1220.8" cy="1443.3" r="4.8" fill="#8a5a2e" opacity="0.057"/><circle cx="1047" cy="2622.7" r="7.5" fill="#8a5a2e" opacity="0.043"/><circle cx="1559.5" cy="891.1" r="14.2" fill="#8a5a2e" opacity="0.062"/><circle cx="995.4" cy="2185.5" r="4.6" fill="#8a5a2e" opacity="0.074"/><circle cx="1779.7" cy="879.8" r="6.1" fill="#8a5a2e" opacity="0.049"/><circle cx="1478.2" cy="1998.5" r="6.9" fill="#8a5a2e" opacity="0.115"/><circle cx="159.1" cy="2554.9" r="5.3" fill="#8a5a2e" opacity="0.118"/><circle cx="1718.6" cy="2330.4" r="4.7" fill="#8a5a2e" opacity="0.066"/><rect width="2400" height="3000" fill="url(#a31-vig)"/></svg>