<svg xmlns="http://www.w3.org/2000/svg" width="2400" height="3000" viewBox="0 0 2400 3000"><filter id="a9-warp" x="-4%" y="-4%" width="108%" height="108%"><feTurbulence type="fractalNoise" baseFrequency="0.0105" numOctaves="2" seed="1519" result="w"/><feDisplacementMap in="SourceGraphic" in2="w" scale="12" xChannelSelector="R" yChannelSelector="G"/></filter><filter id="a9-grain" x="0%" y="0%" width="100%" height="100%"><feTurbulence type="fractalNoise" baseFrequency="0.6" numOctaves="2" seed="1526"/><feColorMatrix type="matrix" values="0.33 0.33 0.33 0 0.62  0.33 0.33 0.33 0 0.62  0.33 0.33 0.33 0 0.62  0 0 0 0 1"/></filter><filter id="a9-mottle" x="0%" y="0%" width="100%" height="100%"><feTurbulence type="fractalNoise" baseFrequency="0.0045" numOctaves="3" seed="1532"/><feColorMatrix type="matrix" values="0.2 0.2 0.2 0 0.78  0.2 0.2 0.2 0 0.78  0.2 0.2 0.2 0 0.78  0 0 0 0 1"/></filter><filter id="a9-fade" x="0%" y="0%" width="100%" height="100%"><feTurbulence type="fractalNoise" baseFrequency="0.006" numOctaves="2" seed="1548"/><feColorMatrix type="matrix" values="0.3 0.3 0.3 0 -0.08  0.3 0.3 0.3 0 -0.08  0.3 0.3 0.3 0 -0.1  0 0 0 0 1"/></filter><filter id="a9-blur9"><feGaussianBlur stdDeviation="9"/></filter><radialGradient id="a9-vig" cx="50%" cy="44%" r="78%"><stop offset="52%" stop-color="#241a10" stop-opacity="0"/><stop offset="100%" stop-color="#241a10" stop-opacity="0.17"/></radialGradient><radialGradient id="a9-warm" cx="69%" cy="30%" r="85%"><stop offset="0%" stop-color="#e8c890" stop-opacity="0.14"/><stop offset="70%" stop-color="#e8c890" stop-opacity="0"/></radialGradient><rect width="2400" height="3000" fill="#ddcfb2"/><rect width="2400" height="3000" fill="url(#a9-warm)"/><rect y="60.1" width="2400" height="275.2" fill="#8a6a40" opacity="0.050" transform="rotate(1.9 1200 60.1)"/><rect y="2371" width="2400" height="352.8" fill="#ffffff" opacity="0.021" transform="rotate(1.5 1200 2371)"/><rect y="980.5" width="2400" height="145" fill="#8a6a40" opacity="0.036" transform="rotate(1.6 1200 980.5)"/><rect y="1960.7" width="2400" height="396.7" fill="#ffffff" opacity="0.023" transform="rotate(-1.8 1200 1960.7)"/><rect y="877.5" width="2400" height="329.2" fill="#8a6a40" opacity="0.036" transform="rotate(0.8 1200 877.5)"/><rect y="2258.9" width="2400" height="149.3" fill="#ffffff" opacity="0.042" transform="rotate(-1.8 1200 2258.9)"/><rect y="1918.2" width="2400" height="182.9" fill="#8a6a40" opacity="0.034" transform="rotate(0.7 1200 1918.2)"/><g filter="url(#a9-warp)"><path d="M283,271 L 357,271 L 357,197 L 298.9,197 L 298.9,242.8 L 328.8,242.8 L 328.8,219.9 M371,271 L 445,271 L 445,197 L 386.9,197 L 386.9,242.8 L 416.8,242.8 L 416.8,219.9 M459,271 L 533,271 L 533,197 L 474.9,197 L 474.9,242.8 L 504.8,242.8 L 504.8,219.9 M547,271 L 621,271 L 621,197 L 562.9,197 L 562.9,242.8 L 592.8,242.8 L 592.8,219.9 M635,271 L 709,271 L 709,197 L 650.9,197 L 650.9,242.8 L 680.8,242.8 L 680.8,219.9 M723,271 L 797,271 L 797,197 L 738.9,197 L 738.9,242.8 L 768.8,242.8 L 768.8,219.9 M811,271 L 885,271 L 885,197 L 826.9,197 L 826.9,242.8 L 856.8,242.8 L 856.8,219.9 M899,271 L 973,271 L 973,197 L 914.9,197 L 914.9,242.8 L 944.8,242.8 L 944.8,219.9 M987,271 L 1061,271 L 1061,197 L 1002.9,197 L 1002.9,242.8 L 1032.8,242.8 L 1032.8,219.9 M1075,271 L 1149,271 L 1149,197 L 1090.9,197 L 1090.9,242.8 L 1120.8,242.8 L 1120.8,219.9 M1163,271 L 1237,271 L 1237,197 L 1178.9,197 L 1178.9,242.8 L 1208.8,242.8 L 1208.8,219.9 M1251,271 L 1325,271 L 1325,197 L 1266.9,197 L 1266.9,242.8 L 1296.8,242.8 L 1296.8,219.9 M1339,271 L 1413,271 L 1413,197 L 1354.9,197 L 1354.9,242.8 L 1384.8,242.8 L 1384.8,219.9 M1427,271 L 1501,271 L 1501,197 L 1442.9,197 L 1442.9,242.8 L 1472.8,242.8 L 1472.8,219.9 M1515,271 L 1589,271 L 1589,197 L 1530.9,197 L 1530.9,242.8 L 1560.8,242.8 L 1560.8,219.9 M1603,271 L 1677,271 L 1677,197 L 1618.9,197 L 1618.9,242.8 L 1648.8,242.8 L 1648.8,219.9 M1691,271 L 1765,271 L 1765,197 L 1706.9,197 L 1706.9,242.8 L 1736.8,242.8 L 1736.8,219.9 M1779,271 L 1853,271 L 1853,197 L 1794.9,197 L 1794.9,242.8 L 1824.8,242.8 L 1824.8,219.9 M1867,271 L 1941,271 L 1941,197 L 1882.9,197 L 1882.9,242.8 L 1912.8,242.8 L 1912.8,219.9 M1955,271 L 2029,271 L 2029,197 L 1970.9,197 L 1970.9,242.8 L 2000.8,242.8 L 2000.8,219.9 M2043,271 L 2117,271 L 2117,197 L 2058.9,197 L 2058.9,242.8 L 2088.8,242.8 L 2088.8,219.9 " fill="none" stroke="#6d3a22" stroke-width="11.4"/><line x1="240" y1="2796" x2="2160" y2="2796" stroke="#6d3a22" stroke-width="7.7"/><polyline points="287.8,2749.9 287.3,2750.6 287,2751.5 287,2752.5 287.3,2753.7 288.1,2754.8 289.2,2755.7 290.7,2756.3 292.4,2756.5 294.3,2756.3 296.1,2755.4 297.8,2754.1 299.2,2752.2 300.1,2749.9 300.4,2747.3 300.1,2744.6 299,2741.9 297.1,2739.5 294.6,2737.5 291.6,2736.1 288.2,2735.5 284.5,2735.7 280.9,2736.9 277.6,2739 274.8,2742 272.7,2745.7 271.6,2749.9 271.5,2754.5 272.6,2759 274.8,2763.3 278.1,2767.1 282.3,2770 287.3,2771.8 292.7,2772.4 298.2,2771.7 303.5,2769.6 308.3,2766.2 312.2,2761.6 315,2756.1 316.4,2749.9 316.2,2743.4 314.4,2737.1 311.1,2731.1 306.4,2726.1 300.4,2722.3 293.6,2720 286.2,2719.3 278.8,2720.5 271.7,2723.5 265.5,2728.2 260.4,2734.4 257,2741.8 255.4,2749.9" fill="none" stroke="#6d3a22" stroke-width="8.6" stroke-linecap="round" stroke-linejoin="round"/><polyline points="383.8,2749.9 383.3,2750.6 383,2751.5 383,2752.5 383.3,2753.7 384.1,2754.8 385.2,2755.7 386.7,2756.3 388.4,2756.5 390.3,2756.3 392.1,2755.4 393.8,2754.1 395.2,2752.2 396.1,2749.9 396.4,2747.3 396.1,2744.6 395,2741.9 393.1,2739.5 390.6,2737.5 387.6,2736.1 384.2,2735.5 380.5,2735.7 376.9,2736.9 373.6,2739 370.8,2742 368.7,2745.7 367.6,2749.9 367.5,2754.5 368.6,2759 370.8,2763.3 374.1,2767.1 378.3,2770 383.3,2771.8 388.7,2772.4 394.2,2771.7 399.5,2769.6 404.3,2766.2 408.2,2761.6 411,2756.1 412.4,2749.9 412.2,2743.4 410.4,2737.1 407.1,2731.1 402.4,2726.1 396.4,2722.3 389.6,2720 382.2,2719.3 374.8,2720.5 367.7,2723.5 361.5,2728.2 356.4,2734.4 353,2741.8 351.4,2749.9" fill="none" stroke="#6d3a22" stroke-width="8.6" stroke-linecap="round" stroke-linejoin="round"/><polyline points="479.8,2749.9 479.3,2750.6 479,2751.5 479,2752.5 479.3,2753.7 480.1,2754.8 481.2,2755.7 482.7,2756.3 484.4,2756.5 486.3,2756.3 488.1,2755.4 489.8,2754.1 491.2,2752.2 492.1,2749.9 492.4,2747.3 492.1,2744.6 491,2741.9 489.1,2739.5 486.6,2737.5 483.6,2736.1 480.2,2735.5 476.5,2735.7 472.9,2736.9 469.6,2739 466.8,2742 464.7,2745.7 463.6,2749.9 463.5,2754.5 464.6,2759 466.8,2763.3 470.1,2767.1 474.3,2770 479.3,2771.8 484.7,2772.4 490.2,2771.7 495.5,2769.6 500.3,2766.2 504.2,2761.6 507,2756.1 508.4,2749.9 508.2,2743.4 506.4,2737.1 503.1,2731.1 498.4,2726.1 492.4,2722.3 485.6,2720 478.2,2719.3 470.8,2720.5 463.7,2723.5 457.5,2728.2 452.4,2734.4 449,2741.8 447.4,2749.9" fill="none" stroke="#6d3a22" stroke-width="8.6" stroke-linecap="round" stroke-linejoin="round"/><polyline points="575.8,2749.9 575.3,2750.6 575,2751.5 575,2752.5 575.3,2753.7 576.1,2754.8 577.2,2755.7 578.7,2756.3 580.4,2756.5 582.3,2756.3 584.1,2755.4 585.8,2754.1 587.2,2752.2 588.1,2749.9 588.4,2747.3 588.1,2744.6 587,2741.9 585.1,2739.5 582.6,2737.5 579.6,2736.1 576.2,2735.5 572.5,2735.7 568.9,2736.9 565.6,2739 562.8,2742 560.7,2745.7 559.6,2749.9 559.5,2754.5 560.6,2759 562.8,2763.3 566.1,2767.1 570.3,2770 575.3,2771.8 580.7,2772.4 586.2,2771.7 591.5,2769.6 596.3,2766.2 600.2,2761.6 603,2756.1 604.4,2749.9 604.2,2743.4 602.4,2737.1 599.1,2731.1 594.4,2726.1 588.4,2722.3 581.6,2720 574.2,2719.3 566.8,2720.5 559.7,2723.5 553.5,2728.2 548.4,2734.4 545,2741.8 543.4,2749.9" fill="none" stroke="#6d3a22" stroke-width="8.6" stroke-linecap="round" stroke-linejoin="round"/><polyline points="671.8,2749.9 671.3,2750.6 671,2751.5 671,2752.5 671.3,2753.7 672.1,2754.8 673.2,2755.7 674.7,2756.3 676.4,2756.5 678.3,2756.3 680.1,2755.4 681.8,2754.1 683.2,2752.2 684.1,2749.9 684.4,2747.3 684.1,2744.6 683,2741.9 681.1,2739.5 678.6,2737.5 675.6,2736.1 672.2,2735.5 668.5,2735.7 664.9,2736.9 661.6,2739 658.8,2742 656.7,2745.7 655.6,2749.9 655.5,2754.5 656.6,2759 658.8,2763.3 662.1,2767.1 666.3,2770 671.3,2771.8 676.7,2772.4 682.2,2771.7 687.5,2769.6 692.3,2766.2 696.2,2761.6 699,2756.1 700.4,2749.9 700.2,2743.4 698.4,2737.1 695.1,2731.1 690.4,2726.1 684.4,2722.3 677.6,2720 670.2,2719.3 662.8,2720.5 655.7,2723.5 649.5,2728.2 644.4,2734.4 641,2741.8 639.4,2749.9" fill="none" stroke="#6d3a22" stroke-width="8.6" stroke-linecap="round" stroke-linejoin="round"/><polyline points="767.8,2749.9 767.3,2750.6 767,2751.5 767,2752.5 767.3,2753.7 768.1,2754.8 769.2,2755.7 770.7,2756.3 772.4,2756.5 774.3,2756.3 776.1,2755.4 777.8,2754.1 779.2,2752.2 780.1,2749.9 780.4,2747.3 780.1,2744.6 779,2741.9 777.1,2739.5 774.6,2737.5 771.6,2736.1 768.2,2735.5 764.5,2735.7 760.9,2736.9 757.6,2739 754.8,2742 752.7,2745.7 751.6,2749.9 751.5,2754.5 752.6,2759 754.8,2763.3 758.1,2767.1 762.3,2770 767.3,2771.8 772.7,2772.4 778.2,2771.7 783.5,2769.6 788.3,2766.2 792.2,2761.6 795,2756.1 796.4,2749.9 796.2,2743.4 794.4,2737.1 791.1,2731.1 786.4,2726.1 780.4,2722.3 773.6,2720 766.2,2719.3 758.8,2720.5 751.7,2723.5 745.5,2728.2 740.4,2734.4 737,2741.8 735.4,2749.9" fill="none" stroke="#6d3a22" stroke-width="8.6" stroke-linecap="round" stroke-linejoin="round"/><polyline points="863.8,2749.9 863.3,2750.6 863,2751.5 863,2752.5 863.3,2753.7 864.1,2754.8 865.2,2755.7 866.7,2756.3 868.4,2756.5 870.3,2756.3 872.1,2755.4 873.8,2754.1 875.2,2752.2 876.1,2749.9 876.4,2747.3 876.1,2744.6 875,2741.9 873.1,2739.5 870.6,2737.5 867.6,2736.1 864.2,2735.5 860.5,2735.7 856.9,2736.9 853.6,2739 850.8,2742 848.7,2745.7 847.6,2749.9 847.5,2754.5 848.6,2759 850.8,2763.3 854.1,2767.1 858.3,2770 863.3,2771.8 868.7,2772.4 874.2,2771.7 879.5,2769.6 884.3,2766.2 888.2,2761.6 891,2756.1 892.4,2749.9 892.2,2743.4 890.4,2737.1 887.1,2731.1 882.4,2726.1 876.4,2722.3 869.6,2720 862.2,2719.3 854.8,2720.5 847.7,2723.5 841.5,2728.2 836.4,2734.4 833,2741.8 831.4,2749.9" fill="none" stroke="#6d3a22" stroke-width="8.6" stroke-linecap="round" stroke-linejoin="round"/><polyline points="959.8,2749.9 959.3,2750.6 959,2751.5 959,2752.5 959.3,2753.7 960.1,2754.8 961.2,2755.7 962.7,2756.3 964.4,2756.5 966.3,2756.3 968.1,2755.4 969.8,2754.1 971.2,2752.2 972.1,2749.9 972.4,2747.3 972.1,2744.6 971,2741.9 969.1,2739.5 966.6,2737.5 963.6,2736.1 960.2,2735.5 956.5,2735.7 952.9,2736.9 949.6,2739 946.8,2742 944.7,2745.7 943.6,2749.9 943.5,2754.5 944.6,2759 946.8,2763.3 950.1,2767.1 954.3,2770 959.3,2771.8 964.7,2772.4 970.2,2771.7 975.5,2769.6 980.3,2766.2 984.2,2761.6 987,2756.1 988.4,2749.9 988.2,2743.4 986.4,2737.1 983.1,2731.1 978.4,2726.1 972.4,2722.3 965.6,2720 958.2,2719.3 950.8,2720.5 943.7,2723.5 937.5,2728.2 932.4,2734.4 929,2741.8 927.4,2749.9" fill="none" stroke="#6d3a22" stroke-width="8.6" stroke-linecap="round" stroke-linejoin="round"/><polyline points="1055.8,2749.9 1055.3,2750.6 1055,2751.5 1055,2752.5 1055.3,2753.7 1056.1,2754.8 1057.2,2755.7 1058.7,2756.3 1060.4,2756.5 1062.3,2756.3 1064.1,2755.4 1065.8,2754.1 1067.2,2752.2 1068.1,2749.9 1068.4,2747.3 1068.1,2744.6 1067,2741.9 1065.1,2739.5 1062.6,2737.5 1059.6,2736.1 1056.2,2735.5 1052.5,2735.7 1048.9,2736.9 1045.6,2739 1042.8,2742 1040.7,2745.7 1039.6,2749.9 1039.5,2754.5 1040.6,2759 1042.8,2763.3 1046.1,2767.1 1050.3,2770 1055.3,2771.8 1060.7,2772.4 1066.2,2771.7 1071.5,2769.6 1076.3,2766.2 1080.2,2761.6 1083,2756.1 1084.4,2749.9 1084.2,2743.4 1082.4,2737.1 1079.1,2731.1 1074.4,2726.1 1068.4,2722.3 1061.6,2720 1054.2,2719.3 1046.8,2720.5 1039.7,2723.5 1033.5,2728.2 1028.4,2734.4 1025,2741.8 1023.4,2749.9" fill="none" stroke="#6d3a22" stroke-width="8.6" stroke-linecap="round" stroke-linejoin="round"/><polyline points="1151.8,2749.9 1151.3,2750.6 1151,2751.5 1151,2752.5 1151.3,2753.7 1152.1,2754.8 1153.2,2755.7 1154.7,2756.3 1156.4,2756.5 1158.3,2756.3 1160.1,2755.4 1161.8,2754.1 1163.2,2752.2 1164.1,2749.9 1164.4,2747.3 1164.1,2744.6 1163,2741.9 1161.1,2739.5 1158.6,2737.5 1155.6,2736.1 1152.2,2735.5 1148.5,2735.7 1144.9,2736.9 1141.6,2739 1138.8,2742 1136.7,2745.7 1135.6,2749.9 1135.5,2754.5 1136.6,2759 1138.8,2763.3 1142.1,2767.1 1146.3,2770 1151.3,2771.8 1156.7,2772.4 1162.2,2771.7 1167.5,2769.6 1172.3,2766.2 1176.2,2761.6 1179,2756.1 1180.4,2749.9 1180.2,2743.4 1178.4,2737.1 1175.1,2731.1 1170.4,2726.1 1164.4,2722.3 1157.6,2720 1150.2,2719.3 1142.8,2720.5 1135.7,2723.5 1129.5,2728.2 1124.4,2734.4 1121,2741.8 1119.4,2749.9" fill="none" stroke="#6d3a22" stroke-width="8.6" stroke-linecap="round" stroke-linejoin="round"/><polyline points="1247.8,2749.9 1247.3,2750.6 1247,2751.5 1247,2752.5 1247.3,2753.7 1248.1,2754.8 1249.2,2755.7 1250.7,2756.3 1252.4,2756.5 1254.3,2756.3 1256.1,2755.4 1257.8,2754.1 1259.2,2752.2 1260.1,2749.9 1260.4,2747.3 1260.1,2744.6 1259,2741.9 1257.1,2739.5 1254.6,2737.5 1251.6,2736.1 1248.2,2735.5 1244.5,2735.7 1240.9,2736.9 1237.6,2739 1234.8,2742 1232.7,2745.7 1231.6,2749.9 1231.5,2754.5 1232.6,2759 1234.8,2763.3 1238.1,2767.1 1242.3,2770 1247.3,2771.8 1252.7,2772.4 1258.2,2771.7 1263.5,2769.6 1268.3,2766.2 1272.2,2761.6 1275,2756.1 1276.4,2749.9 1276.2,2743.4 1274.4,2737.1 1271.1,2731.1 1266.4,2726.1 1260.4,2722.3 1253.6,2720 1246.2,2719.3 1238.8,2720.5 1231.7,2723.5 1225.5,2728.2 1220.4,2734.4 1217,2741.8 1215.4,2749.9" fill="none" stroke="#6d3a22" stroke-width="8.6" stroke-linecap="round" stroke-linejoin="round"/><polyline points="1343.8,2749.9 1343.3,2750.6 1343,2751.5 1343,2752.5 1343.3,2753.7 1344.1,2754.8 1345.2,2755.7 1346.7,2756.3 1348.4,2756.5 1350.3,2756.3 1352.1,2755.4 1353.8,2754.1 1355.2,2752.2 1356.1,2749.9 1356.4,2747.3 1356.1,2744.6 1355,2741.9 1353.1,2739.5 1350.6,2737.5 1347.6,2736.1 1344.2,2735.5 1340.5,2735.7 1336.9,2736.9 1333.6,2739 1330.8,2742 1328.7,2745.7 1327.6,2749.9 1327.5,2754.5 1328.6,2759 1330.8,2763.3 1334.1,2767.1 1338.3,2770 1343.3,2771.8 1348.7,2772.4 1354.2,2771.7 1359.5,2769.6 1364.3,2766.2 1368.2,2761.6 1371,2756.1 1372.4,2749.9 1372.2,2743.4 1370.4,2737.1 1367.1,2731.1 1362.4,2726.1 1356.4,2722.3 1349.6,2720 1342.2,2719.3 1334.8,2720.5 1327.7,2723.5 1321.5,2728.2 1316.4,2734.4 1313,2741.8 1311.4,2749.9" fill="none" stroke="#6d3a22" stroke-width="8.6" stroke-linecap="round" stroke-linejoin="round"/><polyline points="1439.8,2749.9 1439.3,2750.6 1439,2751.5 1439,2752.5 1439.3,2753.7 1440.1,2754.8 1441.2,2755.7 1442.7,2756.3 1444.4,2756.5 1446.3,2756.3 1448.1,2755.4 1449.8,2754.1 1451.2,2752.2 1452.1,2749.9 1452.4,2747.3 1452.1,2744.6 1451,2741.9 1449.1,2739.5 1446.6,2737.5 1443.6,2736.1 1440.2,2735.5 1436.5,2735.7 1432.9,2736.9 1429.6,2739 1426.8,2742 1424.7,2745.7 1423.6,2749.9 1423.5,2754.5 1424.6,2759 1426.8,2763.3 1430.1,2767.1 1434.3,2770 1439.3,2771.8 1444.7,2772.4 1450.2,2771.7 1455.5,2769.6 1460.3,2766.2 1464.2,2761.6 1467,2756.1 1468.4,2749.9 1468.2,2743.4 1466.4,2737.1 1463.1,2731.1 1458.4,2726.1 1452.4,2722.3 1445.6,2720 1438.2,2719.3 1430.8,2720.5 1423.7,2723.5 1417.5,2728.2 1412.4,2734.4 1409,2741.8 1407.4,2749.9" fill="none" stroke="#6d3a22" stroke-width="8.6" stroke-linecap="round" stroke-linejoin="round"/><polyline points="1535.8,2749.9 1535.3,2750.6 1535,2751.5 1535,2752.5 1535.3,2753.7 1536.1,2754.8 1537.2,2755.7 1538.7,2756.3 1540.4,2756.5 1542.3,2756.3 1544.1,2755.4 1545.8,2754.1 1547.2,2752.2 1548.1,2749.9 1548.4,2747.3 1548.1,2744.6 1547,2741.9 1545.1,2739.5 1542.6,2737.5 1539.6,2736.1 1536.2,2735.5 1532.5,2735.7 1528.9,2736.9 1525.6,2739 1522.8,2742 1520.7,2745.7 1519.6,2749.9 1519.5,2754.5 1520.6,2759 1522.8,2763.3 1526.1,2767.1 1530.3,2770 1535.3,2771.8 1540.7,2772.4 1546.2,2771.7 1551.5,2769.6 1556.3,2766.2 1560.2,2761.6 1563,2756.1 1564.4,2749.9 1564.2,2743.4 1562.4,2737.1 1559.1,2731.1 1554.4,2726.1 1548.4,2722.3 1541.6,2720 1534.2,2719.3 1526.8,2720.5 1519.7,2723.5 1513.5,2728.2 1508.4,2734.4 1505,2741.8 1503.4,2749.9" fill="none" stroke="#6d3a22" stroke-width="8.6" stroke-linecap="round" stroke-linejoin="round"/><polyline points="1631.8,2749.9 1631.3,2750.6 1631,2751.5 1631,2752.5 1631.3,2753.7 1632.1,2754.8 1633.2,2755.7 1634.7,2756.3 1636.4,2756.5 1638.3,2756.3 1640.1,2755.4 1641.8,2754.1 1643.2,2752.2 1644.1,2749.9 1644.4,2747.3 1644.1,2744.6 1643,2741.9 1641.1,2739.5 1638.6,2737.5 1635.6,2736.1 1632.2,2735.5 1628.5,2735.7 1624.9,2736.9 1621.6,2739 1618.8,2742 1616.7,2745.7 1615.6,2749.9 1615.5,2754.5 1616.6,2759 1618.8,2763.3 1622.1,2767.1 1626.3,2770 1631.3,2771.8 1636.7,2772.4 1642.2,2771.7 1647.5,2769.6 1652.3,2766.2 1656.2,2761.6 1659,2756.1 1660.4,2749.9 1660.2,2743.4 1658.4,2737.1 1655.1,2731.1 1650.4,2726.1 1644.4,2722.3 1637.6,2720 1630.2,2719.3 1622.8,2720.5 1615.7,2723.5 1609.5,2728.2 1604.4,2734.4 1601,2741.8 1599.4,2749.9" fill="none" stroke="#6d3a22" stroke-width="8.6" stroke-linecap="round" stroke-linejoin="round"/><polyline points="1727.8,2749.9 1727.3,2750.6 1727,2751.5 1727,2752.5 1727.3,2753.7 1728.1,2754.8 1729.2,2755.7 1730.7,2756.3 1732.4,2756.5 1734.3,2756.3 1736.1,2755.4 1737.8,2754.1 1739.2,2752.2 1740.1,2749.9 1740.4,2747.3 1740.1,2744.6 1739,2741.9 1737.1,2739.5 1734.6,2737.5 1731.6,2736.1 1728.2,2735.5 1724.5,2735.7 1720.9,2736.9 1717.6,2739 1714.8,2742 1712.7,2745.7 1711.6,2749.9 1711.5,2754.5 1712.6,2759 1714.8,2763.3 1718.1,2767.1 1722.3,2770 1727.3,2771.8 1732.7,2772.4 1738.2,2771.7 1743.5,2769.6 1748.3,2766.2 1752.2,2761.6 1755,2756.1 1756.4,2749.9 1756.2,2743.4 1754.4,2737.1 1751.1,2731.1 1746.4,2726.1 1740.4,2722.3 1733.6,2720 1726.2,2719.3 1718.8,2720.5 1711.7,2723.5 1705.5,2728.2 1700.4,2734.4 1697,2741.8 1695.4,2749.9" fill="none" stroke="#6d3a22" stroke-width="8.6" stroke-linecap="round" stroke-linejoin="round"/><polyline points="1823.8,2749.9 1823.3,2750.6 1823,2751.5 1823,2752.5 1823.3,2753.7 1824.1,2754.8 1825.2,2755.7 1826.7,2756.3 1828.4,2756.5 1830.3,2756.3 1832.1,2755.4 1833.8,2754.1 1835.2,2752.2 1836.1,2749.9 1836.4,2747.3 1836.1,2744.6 1835,2741.9 1833.1,2739.5 1830.6,2737.5 1827.6,2736.1 1824.2,2735.5 1820.5,2735.7 1816.9,2736.9 1813.6,2739 1810.8,2742 1808.7,2745.7 1807.6,2749.9 1807.5,2754.5 1808.6,2759 1810.8,2763.3 1814.1,2767.1 1818.3,2770 1823.3,2771.8 1828.7,2772.4 1834.2,2771.7 1839.5,2769.6 1844.3,2766.2 1848.2,2761.6 1851,2756.1 1852.4,2749.9 1852.2,2743.4 1850.4,2737.1 1847.1,2731.1 1842.4,2726.1 1836.4,2722.3 1829.6,2720 1822.2,2719.3 1814.8,2720.5 1807.7,2723.5 1801.5,2728.2 1796.4,2734.4 1793,2741.8 1791.4,2749.9" fill="none" stroke="#6d3a22" stroke-width="8.6" stroke-linecap="round" stroke-linejoin="round"/><polyline points="1919.8,2749.9 1919.3,2750.6 1919,2751.5 1919,2752.5 1919.3,2753.7 1920.1,2754.8 1921.2,2755.7 1922.7,2756.3 1924.4,2756.5 1926.3,2756.3 1928.1,2755.4 1929.8,2754.1 1931.2,2752.2 1932.1,2749.9 1932.4,2747.3 1932.1,2744.6 1931,2741.9 1929.1,2739.5 1926.6,2737.5 1923.6,2736.1 1920.2,2735.5 1916.5,2735.7 1912.9,2736.9 1909.6,2739 1906.8,2742 1904.7,2745.7 1903.6,2749.9 1903.5,2754.5 1904.6,2759 1906.8,2763.3 1910.1,2767.1 1914.3,2770 1919.3,2771.8 1924.7,2772.4 1930.2,2771.7 1935.5,2769.6 1940.3,2766.2 1944.2,2761.6 1947,2756.1 1948.4,2749.9 1948.2,2743.4 1946.4,2737.1 1943.1,2731.1 1938.4,2726.1 1932.4,2722.3 1925.6,2720 1918.2,2719.3 1910.8,2720.5 1903.7,2723.5 1897.5,2728.2 1892.4,2734.4 1889,2741.8 1887.4,2749.9" fill="none" stroke="#6d3a22" stroke-width="8.6" stroke-linecap="round" stroke-linejoin="round"/><polyline points="2015.8,2749.9 2015.3,2750.6 2015,2751.5 2015,2752.5 2015.3,2753.7 2016.1,2754.8 2017.2,2755.7 2018.7,2756.3 2020.4,2756.5 2022.3,2756.3 2024.1,2755.4 2025.8,2754.1 2027.2,2752.2 2028.1,2749.9 2028.4,2747.3 2028.1,2744.6 2027,2741.9 2025.1,2739.5 2022.6,2737.5 2019.6,2736.1 2016.2,2735.5 2012.5,2735.7 2008.9,2736.9 2005.6,2739 2002.8,2742 2000.7,2745.7 1999.6,2749.9 1999.5,2754.5 2000.6,2759 2002.8,2763.3 2006.1,2767.1 2010.3,2770 2015.3,2771.8 2020.7,2772.4 2026.2,2771.7 2031.5,2769.6 2036.3,2766.2 2040.2,2761.6 2043,2756.1 2044.4,2749.9 2044.2,2743.4 2042.4,2737.1 2039.1,2731.1 2034.4,2726.1 2028.4,2722.3 2021.6,2720 2014.2,2719.3 2006.8,2720.5 1999.7,2723.5 1993.5,2728.2 1988.4,2734.4 1985,2741.8 1983.4,2749.9" fill="none" stroke="#6d3a22" stroke-width="8.6" stroke-linecap="round" stroke-linejoin="round"/><polyline points="2111.8,2749.9 2111.3,2750.6 2111,2751.5 2111,2752.5 2111.3,2753.7 2112.1,2754.8 2113.2,2755.7 2114.7,2756.3 2116.4,2756.5 2118.3,2756.3 2120.1,2755.4 2121.8,2754.1 2123.2,2752.2 2124.1,2749.9 2124.4,2747.3 2124.1,2744.6 2123,2741.9 2121.1,2739.5 2118.6,2737.5 2115.6,2736.1 2112.2,2735.5 2108.5,2735.7 2104.9,2736.9 2101.6,2739 2098.8,2742 2096.7,2745.7 2095.6,2749.9 2095.5,2754.5 2096.6,2759 2098.8,2763.3 2102.1,2767.1 2106.3,2770 2111.3,2771.8 2116.7,2772.4 2122.2,2771.7 2127.5,2769.6 2132.3,2766.2 2136.2,2761.6 2139,2756.1 2140.4,2749.9 2140.2,2743.4 2138.4,2737.1 2135.1,2731.1 2130.4,2726.1 2124.4,2722.3 2117.6,2720 2110.2,2719.3 2102.8,2720.5 2095.7,2723.5 2089.5,2728.2 2084.4,2734.4 2081,2741.8 2079.4,2749.9" fill="none" stroke="#6d3a22" stroke-width="8.6" stroke-linecap="round" stroke-linejoin="round"/><rect x="640" y="2560" width="1120" height="34" fill="#6d3a22"/><rect x="540" y="2594" width="1320" height="26" fill="#6d3a22" opacity="0.75"/><path d="M1097.9,757.8 C837.9,697.8 647.8,1212.6 817.8,1372.6" fill="none" stroke="#6d3a22" stroke-width="52" stroke-linecap="round"/><path d="M1302.1,757.8 C1562.1,697.8 1752.2,1212.6 1582.2,1372.6" fill="none" stroke="#6d3a22" stroke-width="52" stroke-linecap="round"/><path d="M1097.9,657.8 C1057.9,1057.8 733.9,1218.8 733.9,1661.6 C733.9,2011.2 1056.1,2210 1086.1,2470 L1006.4,2530 L1006.4,2560 L1393.6,2560 L1393.6,2530 L1313.9,2470 C1343.9,2210 1666.1,2011.2 1666.1,1661.6 C1666.1,1218.8 1342.1,1057.8 1302.1,657.8 Z" fill="#6d3a22"/><rect x="1039.8" y="587.8" width="320.5" height="72" rx="22" fill="#6d3a22"/><clipPath id="a9-vase"><path d="M1097.9,657.8 C1057.9,1057.8 733.9,1218.8 733.9,1661.6 C733.9,2011.2 1056.1,2210 1086.1,2470 L1006.4,2530 L1006.4,2560 L1393.6,2560 L1393.6,2530 L1313.9,2470 C1343.9,2210 1666.1,2011.2 1666.1,1661.6 C1666.1,1218.8 1342.1,1057.8 1302.1,657.8 Z"/></clipPath><g clip-path="url(#a9-vase)"><path d="M747.4,1457.3 L 824.6,1457.3 L 824.6,1380 L 763.9,1380 L 763.9,1427.8 L 795.2,1427.8 L 795.2,1403.9 M839.4,1457.3 L 916.6,1457.3 L 916.6,1380 L 855.9,1380 L 855.9,1427.8 L 887.2,1427.8 L 887.2,1403.9 M931.4,1457.3 L 1008.6,1457.3 L 1008.6,1380 L 947.9,1380 L 947.9,1427.8 L 979.2,1427.8 L 979.2,1403.9 M1023.4,1457.3 L 1100.6,1457.3 L 1100.6,1380 L 1039.9,1380 L 1039.9,1427.8 L 1071.2,1427.8 L 1071.2,1403.9 M1115.4,1457.3 L 1192.6,1457.3 L 1192.6,1380 L 1131.9,1380 L 1131.9,1427.8 L 1163.2,1427.8 L 1163.2,1403.9 M1207.4,1457.3 L 1284.6,1457.3 L 1284.6,1380 L 1223.9,1380 L 1223.9,1427.8 L 1255.2,1427.8 L 1255.2,1403.9 M1299.4,1457.3 L 1376.6,1457.3 L 1376.6,1380 L 1315.9,1380 L 1315.9,1427.8 L 1347.2,1427.8 L 1347.2,1403.9 M1391.4,1457.3 L 1468.6,1457.3 L 1468.6,1380 L 1407.9,1380 L 1407.9,1427.8 L 1439.2,1427.8 L 1439.2,1403.9 M1483.4,1457.3 L 1560.6,1457.3 L 1560.6,1380 L 1499.9,1380 L 1499.9,1427.8 L 1531.2,1427.8 L 1531.2,1403.9 M1575.4,1457.3 L 1652.6,1457.3 L 1652.6,1380 L 1591.9,1380 L 1591.9,1427.8 L 1623.2,1427.8 L 1623.2,1403.9 " fill="none" stroke="#ddcfb2" stroke-width="12"/><line x1="733.9" y1="1502.6" x2="1666.1" y2="1502.6" stroke="#ddcfb2" stroke-width="10"/><polyline points="794.6,1811.6 837,1718.1 879.4,1811.6" fill="none" stroke="#ddcfb2" stroke-width="15.4"/><polyline points="915.6,1811.6 958,1718.1 1000.4,1811.6" fill="none" stroke="#ddcfb2" stroke-width="15.4"/><polyline points="1036.7,1811.6 1079,1718.1 1121.3,1811.6" fill="none" stroke="#ddcfb2" stroke-width="15.4"/><polyline points="1157.7,1811.6 1200,1718.1 1242.3,1811.6" fill="none" stroke="#ddcfb2" stroke-width="15.4"/><polyline points="1278.7,1811.6 1321,1718.1 1363.3,1811.6" fill="none" stroke="#ddcfb2" stroke-width="15.4"/><polyline points="1399.7,1811.6 1442,1718.1 1484.3,1811.6" fill="none" stroke="#ddcfb2" stroke-width="15.4"/><polyline points="1520.7,1811.6 1563,1718.1 1605.3,1811.6" fill="none" stroke="#ddcfb2" stroke-width="15.4"/><line x1="733.9" y1="1871.6" x2="1666.1" y2="1871.6" stroke="#ddcfb2" stroke-width="10"/><path d="M795,2290 L862.5,2140 L930,2290 Z M930,2290 L997.5,2140 L1065,2290 Z M1065,2290 L1132.5,2140 L1200,2290 Z M1200,2290 L1267.5,2140 L1335,2290 Z M1335,2290 L1402.5,2140 L1470,2290 Z M1470,2290 L1537.5,2140 L1605,2290 Z " fill="#ddcfb2"/><polyline points="1111.9,851.8 1170.6,797.8 1229.4,851.8 1288.1,797.8 " fill="none" stroke="#ddcfb2" stroke-width="9.7" stroke-linejoin="miter"/></g><rect x="104" y="104" width="2192" height="2792" fill="none" stroke="#6d3a22" stroke-width="16" opacity="0.85"/><rect x="150" y="150" width="2100" height="2700" fill="none" stroke="#6d3a22" stroke-width="4" opacity="0.55"/></g><rect width="2400" height="3000" filter="url(#a9-mottle)" style="mix-blend-mode:multiply" opacity="0.5"/><rect width="2400" height="3000" filter="url(#a9-fade)" style="mix-blend-mode:screen" opacity="0.55"/><rect width="2400" height="3000" filter="url(#a9-grain)" style="mix-blend-mode:multiply" opacity="0.32"/><ellipse cx="281.6" cy="709.2" rx="150.7" ry="94.1" fill="#6b4a22" opacity="0.036" filter="url(#a9-blur9)"/><ellipse cx="771.5" cy="307.2" rx="131.1" ry="143.5" fill="#6b4a22" opacity="0.050" filter="url(#a9-blur9)"/><ellipse cx="2225.7" cy="921.2" rx="235.3" ry="232.2" fill="#6b4a22" opacity="0.037" filter="url(#a9-blur9)"/><ellipse cx="991" cy="2554.3" rx="296.9" ry="274.3" fill="#6b4a22" opacity="0.049" filter="url(#a9-blur9)"/><ellipse cx="1274.6" cy="221.4" rx="225.8" ry="210.5" fill="#6b4a22" opacity="0.033" filter="url(#a9-blur9)"/><polyline points="805.2,2220.1 743.5,2193.9 693.3,2098.2 667.2,1994.2 603.5,1936.9 589.4,1852.3 544.8,1757.4 506.6,1721.7 396,1687.4 329.1,1634 280.9,1506.9 301.5,1449" fill="none" stroke="#2e2116" stroke-width="3.3" opacity="0.24" stroke-linejoin="round"/><polyline points="805.2,2220.1 743.5,2193.9 693.3,2098.2 667.2,1994.2 603.5,1936.9 589.4,1852.3 544.8,1757.4 506.6,1721.7 396,1687.4 329.1,1634 280.9,1506.9 301.5,1449" fill="none" stroke="#fff8ea" stroke-width="2.3" opacity="0.12" transform="translate(2.5 2.5)" stroke-linejoin="round"/><polyline points="2170,2052.1 2072.9,1962.4 1956.3,1959 1863,1948.3 1793.7,1861.6 1736.3,1769 1755.9,1698.2" fill="none" stroke="#2e2116" stroke-width="2.5" opacity="0.26" stroke-linejoin="round"/><polyline points="2170,2052.1 2072.9,1962.4 1956.3,1959 1863,1948.3 1793.7,1861.6 1736.3,1769 1755.9,1698.2" fill="none" stroke="#fff8ea" stroke-width="1.7" opacity="0.15" transform="translate(2.5 2.5)" stroke-linejoin="round"/><polyline points="513.2,885.4 596.9,926 643.1,1041.3 716.4,1107.3 737.9,1154.4 720.9,1249.7" fill="none" stroke="#2e2116" stroke-width="3.5" opacity="0.19" stroke-linejoin="round"/><polyline points="513.2,885.4 596.9,926 643.1,1041.3 716.4,1107.3 737.9,1154.4 720.9,1249.7" fill="none" stroke="#fff8ea" stroke-width="2.4" opacity="0.13" transform="translate(2.5 2.5)" stroke-linejoin="round"/><polyline points="2186.8,2048.2 2061.7,2083.4 1974.7,2094.3 1891.5,2133.9 1835.1,2259.5 1756.6,2306.7 1697.7,2300.4" fill="none" stroke="#2e2116" stroke-width="2.2" opacity="0.18" stroke-linejoin="round"/><polyline points="2186.8,2048.2 2061.7,2083.4 1974.7,2094.3 1891.5,2133.9 1835.1,2259.5 1756.6,2306.7 1697.7,2300.4" fill="none" stroke="#fff8ea" stroke-width="1.5" opacity="0.09" transform="translate(2.5 2.5)" stroke-linejoin="round"/><polyline points="990.5,2216.5 888.5,2154.4 813.5,2041.6 844.8,1930.5 949.6,1874 1040.6,1822.9 1159.4,1819.1 1210.8,1772.5 1222.9,1698 1207.8,1614.6 1187,1527.9 1068,1471.6" fill="none" stroke="#2e2116" stroke-width="2.6" opacity="0.30" stroke-linejoin="round"/><polyline points="990.5,2216.5 888.5,2154.4 813.5,2041.6 844.8,1930.5 949.6,1874 1040.6,1822.9 1159.4,1819.1 1210.8,1772.5 1222.9,1698 1207.8,1614.6 1187,1527.9 1068,1471.6" fill="none" stroke="#fff8ea" stroke-width="1.8" opacity="0.11" transform="translate(2.5 2.5)" stroke-linejoin="round"/><polyline points="1155.8,2308.6 1271.3,2359.3 1380.5,2314.6 1514.6,2278.5 1613.2,2173.6 1655.7,2145.4 1714.4,2125.9 1819.2,2160.4" fill="none" stroke="#2e2116" stroke-width="3.7" opacity="0.16" stroke-linejoin="round"/><polyline points="1155.8,2308.6 1271.3,2359.3 1380.5,2314.6 1514.6,2278.5 1613.2,2173.6 1655.7,2145.4 1714.4,2125.9 1819.2,2160.4" fill="none" stroke="#fff8ea" stroke-width="2.6" opacity="0.15" transform="translate(2.5 2.5)" stroke-linejoin="round"/><polyline points="1849.2,786.5 1910.2,809.3 1963.7,845 2002.5,917.9 2065.7,988.2 2176.6,1029.8 2243.6,1012.9" fill="none" stroke="#2e2116" stroke-width="3.5" opacity="0.23" stroke-linejoin="round"/><polyline points="1849.2,786.5 1910.2,809.3 1963.7,845 2002.5,917.9 2065.7,988.2 2176.6,1029.8 2243.6,1012.9" fill="none" stroke="#fff8ea" stroke-width="2.5" opacity="0.13" transform="translate(2.5 2.5)" stroke-linejoin="round"/><polyline points="901.9,1357.2 817.6,1396.2 756.5,1486.7 677.5,1567.5 575.4,1628.4 522,1720.6 456.1,1798.4" fill="none" stroke="#2e2116" stroke-width="4.2" opacity="0.15" stroke-linejoin="round"/><polyline points="901.9,1357.2 817.6,1396.2 756.5,1486.7 677.5,1567.5 575.4,1628.4 522,1720.6 456.1,1798.4" fill="none" stroke="#fff8ea" stroke-width="2.9" opacity="0.14" transform="translate(2.5 2.5)" stroke-linejoin="round"/><path d="M1523.6,1243.8 Q1505.4,1275 1479.2,1282.2 Q1453.1,1289.4 1423.3,1261 Q1393.6,1232.6 1407.3,1213.4 Q1420.9,1194.2 1437.1,1171.6 Q1453.2,1149 1483.3,1160.1 Q1513.4,1171.2 1527.6,1191.9 Q1541.8,1212.6 1523.6,1243.8 Z" fill="#ddcfb2" opacity="0.79"/><path d="M1492.2,1113.8 Q1489.9,1138.4 1442.5,1140.9 Q1395.1,1143.4 1353.7,1134.4 Q1312.2,1125.3 1326.6,1087.9 Q1341,1050.4 1364.9,1036.6 Q1388.8,1022.8 1441,1023.3 Q1493.1,1023.8 1493.8,1056.5 Q1494.5,1089.1 1492.2,1113.8 Z" fill="#ddcfb2" opacity="0.89"/><path d="M2213.2,2580.9 Q2198.9,2596.8 2163.2,2602.9 Q2127.5,2609.1 2091.3,2596.5 Q2055,2584 2063.1,2567.4 Q2071.2,2550.9 2097,2536.8 Q2122.8,2522.8 2156.5,2527.9 Q2190.2,2533 2208.9,2549 Q2227.6,2565 2213.2,2580.9 Z" fill="#ddcfb2" opacity="0.93"/><path d="M807.1,1511.5 Q786,1531.6 750.1,1544.2 Q714.3,1556.8 692.3,1536.1 Q670.2,1515.4 669.1,1488.9 Q667.9,1462.3 693.8,1431 Q719.7,1399.6 759.8,1424 Q799.9,1448.4 814.1,1469.9 Q828.3,1491.4 807.1,1511.5 Z" fill="#ddcfb2" opacity="0.82"/><path d="M1854.4,2147.8 Q1837.5,2174.7 1823.2,2176.5 Q1809,2178.2 1786.5,2164.6 Q1764.1,2151 1776.7,2124.8 Q1789.3,2098.6 1797.1,2083.4 Q1804.8,2068.2 1821.1,2067 Q1837.3,2065.8 1854.3,2093.3 Q1871.3,2120.8 1854.4,2147.8 Z" fill="#ddcfb2" opacity="0.92"/><path d="M1154.7,2428.9 Q1143.2,2456.2 1122.1,2449 Q1101,2441.7 1085.1,2433.9 Q1069.1,2426 1070.8,2399.4 Q1072.5,2372.8 1088,2368.6 Q1103.6,2364.4 1126.3,2359.8 Q1148.9,2355.3 1157.6,2378.4 Q1166.2,2401.6 1154.7,2428.9 Z" fill="#ddcfb2" opacity="0.86"/><rect width="2400" height="3000" fill="url(#a9-vig)"/></svg>