<svg xmlns="http://www.w3.org/2000/svg" width="2400" height="3000" viewBox="0 0 2400 3000"><filter id="a37-warp" x="-4%" y="-4%" width="108%" height="108%"><feTurbulence type="fractalNoise" baseFrequency="0.0105" numOctaves="2" seed="683" result="w"/><feDisplacementMap in="SourceGraphic" in2="w" scale="11" xChannelSelector="R" yChannelSelector="G"/></filter><filter id="a37-grain" x="0%" y="0%" width="100%" height="100%"><feTurbulence type="fractalNoise" baseFrequency="0.6" numOctaves="2" seed="690"/><feColorMatrix type="matrix" values="0.33 0.33 0.33 0 0.62  0.33 0.33 0.33 0 0.62  0.33 0.33 0.33 0 0.62  0 0 0 0 1"/></filter><filter id="a37-mottle" x="0%" y="0%" width="100%" height="100%"><feTurbulence type="fractalNoise" baseFrequency="0.0045" numOctaves="3" seed="696"/><feColorMatrix type="matrix" values="0.2 0.2 0.2 0 0.78  0.2 0.2 0.2 0 0.78  0.2 0.2 0.2 0 0.78  0 0 0 0 1"/></filter><filter id="a37-fade" x="0%" y="0%" width="100%" height="100%"><feTurbulence type="fractalNoise" baseFrequency="0.006" numOctaves="2" seed="712"/><feColorMatrix type="matrix" values="0.3 0.3 0.3 0 -0.08  0.3 0.3 0.3 0 -0.08  0.3 0.3 0.3 0 -0.1  0 0 0 0 1"/></filter><filter id="a37-blur9"><feGaussianBlur stdDeviation="9"/></filter><radialGradient id="a37-vig" cx="50%" cy="44%" r="78%"><stop offset="52%" stop-color="#241a10" stop-opacity="0"/><stop offset="100%" stop-color="#241a10" stop-opacity="0.17"/></radialGradient><radialGradient id="a37-warm" cx="33%" cy="30%" r="85%"><stop offset="0%" stop-color="#e8c890" stop-opacity="0.14"/><stop offset="70%" stop-color="#e8c890" stop-opacity="0"/></radialGradient><rect width="2400" height="3000" fill="#d7c096"/><rect width="2400" height="3000" fill="url(#a37-warm)"/><rect x="0" width="19.6" height="3000" fill="#6b4e26" opacity="0.091"/><rect x="27.2" width="41.8" height="3000" fill="#6b4e26" opacity="0.045"/><rect x="85.3" width="32" height="3000" fill="#6b4e26" opacity="0.076"/><rect x="129.6" width="29.2" height="3000" fill="#6b4e26" opacity="0.044"/><rect x="170.2" width="40.1" height="3000" fill="#6b4e26" opacity="0.091"/><rect x="225.8" width="33.5" height="3000" fill="#6b4e26" opacity="0.094"/><rect x="272.4" width="21.5" height="3000" fill="#6b4e26" opacity="0.096"/><rect x="302.3" width="38.8" height="3000" fill="#6b4e26" opacity="0.085"/><rect x="356.2" width="34" height="3000" fill="#6b4e26" opacity="0.095"/><rect x="403.4" width="18.8" height="3000" fill="#6b4e26" opacity="0.082"/><rect x="429.6" width="27.8" height="3000" fill="#6b4e26" opacity="0.055"/><rect x="468.2" width="32.9" height="3000" fill="#6b4e26" opacity="0.095"/><rect x="513.8" width="43.2" height="3000" fill="#6b4e26" opacity="0.045"/><rect x="573.8" width="22.9" height="3000" fill="#6b4e26" opacity="0.071"/><rect x="605.6" width="35.8" height="3000" fill="#6b4e26" opacity="0.049"/><rect x="655.3" width="25.4" height="3000" fill="#6b4e26" opacity="0.061"/><rect x="690.6" width="30.7" height="3000" fill="#6b4e26" opacity="0.071"/><rect x="733.2" width="24.1" height="3000" fill="#6b4e26" opacity="0.090"/><rect x="766.6" width="33.2" height="3000" fill="#6b4e26" opacity="0.095"/><rect x="812.8" width="33.5" height="3000" fill="#6b4e26" opacity="0.093"/><rect x="859.4" width="21.5" height="3000" fill="#6b4e26" opacity="0.067"/><rect x="889.3" width="25.7" height="3000" fill="#6b4e26" opacity="0.067"/><rect x="925" width="21.1" height="3000" fill="#6b4e26" opacity="0.088"/><rect x="954.3" width="35.7" height="3000" fill="#6b4e26" opacity="0.089"/><rect x="1003.9" width="21" height="3000" fill="#6b4e26" opacity="0.030"/><rect x="1033.1" width="23" height="3000" fill="#6b4e26" opacity="0.068"/><rect x="1065" width="39.5" height="3000" fill="#6b4e26" opacity="0.043"/><rect x="1119.8" width="35.4" height="3000" fill="#6b4e26" opacity="0.080"/><rect x="1169" width="29.1" height="3000" fill="#6b4e26" opacity="0.037"/><rect x="1209.4" width="22.5" height="3000" fill="#6b4e26" opacity="0.083"/><rect x="1240.7" width="33.4" height="3000" fill="#6b4e26" opacity="0.048"/><rect x="1287" width="35.9" height="3000" fill="#6b4e26" opacity="0.077"/><rect x="1336.9" width="29.6" height="3000" fill="#6b4e26" opacity="0.076"/><rect x="1377.9" width="32" height="3000" fill="#6b4e26" opacity="0.033"/><rect x="1422.4" width="21.5" height="3000" fill="#6b4e26" opacity="0.055"/><rect x="1452.2" width="36.3" height="3000" fill="#6b4e26" opacity="0.036"/><rect x="1502.7" width="20" height="3000" fill="#6b4e26" opacity="0.049"/><rect x="1530.5" width="23.8" height="3000" fill="#6b4e26" opacity="0.086"/><rect x="1563.7" width="34.3" height="3000" fill="#6b4e26" opacity="0.051"/><rect x="1611.3" width="40.4" height="3000" fill="#6b4e26" opacity="0.047"/><rect x="1667.4" width="29.6" height="3000" fill="#6b4e26" opacity="0.049"/><rect x="1708.5" width="22.2" height="3000" fill="#6b4e26" opacity="0.084"/><rect x="1739.3" width="35.8" height="3000" fill="#6b4e26" opacity="0.035"/><rect x="1789" width="32.7" height="3000" fill="#6b4e26" opacity="0.092"/><rect x="1834.4" width="20.7" height="3000" fill="#6b4e26" opacity="0.058"/><rect x="1863.1" width="24.3" height="3000" fill="#6b4e26" opacity="0.051"/><rect x="1896.8" width="37" height="3000" fill="#6b4e26" opacity="0.095"/><rect x="1948.2" width="25.8" height="3000" fill="#6b4e26" opacity="0.047"/><rect x="1984" width="28" height="3000" fill="#6b4e26" opacity="0.057"/><rect x="2022.9" width="24.3" height="3000" fill="#6b4e26" opacity="0.069"/><rect x="2056.6" width="22" height="3000" fill="#6b4e26" opacity="0.098"/><rect x="2087.2" width="39.7" height="3000" fill="#6b4e26" opacity="0.055"/><rect x="2142.3" width="25" height="3000" fill="#6b4e26" opacity="0.037"/><rect x="2177" width="31.7" height="3000" fill="#6b4e26" opacity="0.050"/><rect x="2221.1" width="33.1" height="3000" fill="#6b4e26" opacity="0.056"/><rect x="2267.1" width="27.9" height="3000" fill="#6b4e26" opacity="0.087"/><rect x="2305.9" width="31.5" height="3000" fill="#6b4e26" opacity="0.062"/><rect x="2349.6" width="36.4" height="3000" fill="#6b4e26" opacity="0.062"/><rect y="0" width="2400" height="23.4" fill="#7c5c30" opacity="0.037"/><rect y="38.9" width="2400" height="25.2" fill="#7c5c30" opacity="0.047"/><rect y="80.9" width="2400" height="15" fill="#7c5c30" opacity="0.021"/><rect y="106" width="2400" height="17.9" fill="#7c5c30" opacity="0.036"/><rect y="135.8" width="2400" height="19.9" fill="#7c5c30" opacity="0.023"/><rect y="169" width="2400" height="24" fill="#7c5c30" opacity="0.033"/><rect y="209.1" width="2400" height="26.6" fill="#7c5c30" opacity="0.031"/><rect y="253.4" width="2400" height="18.4" fill="#7c5c30" opacity="0.045"/><rect y="284.1" width="2400" height="20.9" fill="#7c5c30" opacity="0.050"/><rect y="319" width="2400" height="17.1" fill="#7c5c30" opacity="0.038"/><rect y="347.5" width="2400" height="12.3" fill="#7c5c30" opacity="0.051"/><rect y="367.9" width="2400" height="27.7" fill="#7c5c30" opacity="0.027"/><rect y="414.1" width="2400" height="25.6" fill="#7c5c30" opacity="0.039"/><rect y="456.9" width="2400" height="24" fill="#7c5c30" opacity="0.044"/><rect y="496.8" width="2400" height="26.1" fill="#7c5c30" opacity="0.054"/><rect y="540.3" width="2400" height="12.1" fill="#7c5c30" opacity="0.058"/><rect y="560.5" width="2400" height="28.2" fill="#7c5c30" opacity="0.039"/><rect y="607.4" width="2400" height="17.6" fill="#7c5c30" opacity="0.022"/><rect y="636.8" width="2400" height="21.8" fill="#7c5c30" opacity="0.035"/><rect y="673.2" width="2400" height="25" fill="#7c5c30" opacity="0.040"/><rect y="714.8" width="2400" height="24.3" fill="#7c5c30" opacity="0.028"/><rect y="755.3" width="2400" height="21" fill="#7c5c30" opacity="0.042"/><rect y="790.4" width="2400" height="28" fill="#7c5c30" opacity="0.024"/><rect y="837.1" width="2400" height="17.5" fill="#7c5c30" opacity="0.055"/><rect y="866.2" width="2400" height="23.9" fill="#7c5c30" opacity="0.023"/><rect y="906.1" width="2400" height="20.6" fill="#7c5c30" opacity="0.047"/><rect y="940.4" width="2400" height="23.3" fill="#7c5c30" opacity="0.036"/><rect y="979.2" width="2400" height="14.9" fill="#7c5c30" opacity="0.027"/><rect y="1004" width="2400" height="13.7" fill="#7c5c30" opacity="0.056"/><rect y="1026.9" width="2400" height="17.4" fill="#7c5c30" opacity="0.034"/><rect y="1055.9" width="2400" height="12.4" fill="#7c5c30" opacity="0.025"/><rect y="1076.5" width="2400" height="26.5" fill="#7c5c30" opacity="0.024"/><rect y="1120.6" width="2400" height="16.3" fill="#7c5c30" opacity="0.027"/><rect y="1147.8" width="2400" height="24.4" fill="#7c5c30" opacity="0.054"/><rect y="1188.5" width="2400" height="24.2" fill="#7c5c30" opacity="0.040"/><rect y="1228.9" width="2400" height="23.2" fill="#7c5c30" opacity="0.021"/><rect y="1267.6" width="2400" height="24.5" fill="#7c5c30" opacity="0.024"/><rect y="1308.5" width="2400" height="12.4" fill="#7c5c30" opacity="0.034"/><rect y="1329.3" width="2400" height="22.8" fill="#7c5c30" opacity="0.055"/><rect y="1367.2" width="2400" height="28.2" fill="#7c5c30" opacity="0.039"/><rect y="1414.2" width="2400" height="27.8" fill="#7c5c30" opacity="0.033"/><rect y="1460.5" width="2400" height="27.8" fill="#7c5c30" opacity="0.033"/><rect y="1506.9" width="2400" height="17.4" fill="#7c5c30" opacity="0.037"/><rect y="1535.9" width="2400" height="15.4" fill="#7c5c30" opacity="0.031"/><rect y="1561.5" width="2400" height="26.7" fill="#7c5c30" opacity="0.025"/><rect y="1606" width="2400" height="13" fill="#7c5c30" opacity="0.031"/><rect y="1627.5" width="2400" height="19" fill="#7c5c30" opacity="0.021"/><rect y="1659.3" width="2400" height="19.4" fill="#7c5c30" opacity="0.050"/><rect y="1691.5" width="2400" height="14.3" fill="#7c5c30" opacity="0.050"/><rect y="1715.3" width="2400" height="28.4" fill="#7c5c30" opacity="0.041"/><rect y="1762.7" width="2400" height="20.6" fill="#7c5c30" opacity="0.052"/><rect y="1797" width="2400" height="19.4" fill="#7c5c30" opacity="0.059"/><rect y="1829.3" width="2400" height="17.7" fill="#7c5c30" opacity="0.023"/><rect y="1858.9" width="2400" height="18.2" fill="#7c5c30" opacity="0.047"/><rect y="1889.2" width="2400" height="28.7" fill="#7c5c30" opacity="0.055"/><rect y="1937.1" width="2400" height="16.9" fill="#7c5c30" opacity="0.041"/><rect y="1965.3" width="2400" height="18.3" fill="#7c5c30" opacity="0.036"/><rect y="1995.8" width="2400" height="18.4" fill="#7c5c30" opacity="0.022"/><rect y="2026.4" width="2400" height="21.3" fill="#7c5c30" opacity="0.052"/><rect y="2061.9" width="2400" height="19.5" fill="#7c5c30" opacity="0.030"/><rect y="2094.4" width="2400" height="21.8" fill="#7c5c30" opacity="0.037"/><rect y="2130.7" width="2400" height="20.5" fill="#7c5c30" opacity="0.032"/><rect y="2164.9" width="2400" height="21.8" fill="#7c5c30" opacity="0.059"/><rect y="2201.2" width="2400" height="14.9" fill="#7c5c30" opacity="0.045"/><rect y="2226.1" width="2400" height="22.2" fill="#7c5c30" opacity="0.040"/><rect y="2263.2" width="2400" height="24" fill="#7c5c30" opacity="0.042"/><rect y="2303.1" width="2400" height="25.2" fill="#7c5c30" opacity="0.021"/><rect y="2345.1" width="2400" height="19.2" fill="#7c5c30" opacity="0.043"/><rect y="2377.2" width="2400" height="17.2" fill="#7c5c30" opacity="0.051"/><rect y="2405.8" width="2400" height="16.1" fill="#7c5c30" opacity="0.034"/><rect y="2432.7" width="2400" height="22.7" fill="#7c5c30" opacity="0.021"/><rect y="2470.5" width="2400" height="12.5" fill="#7c5c30" opacity="0.049"/><rect y="2491.3" width="2400" height="13.9" fill="#7c5c30" opacity="0.023"/><rect y="2514.5" width="2400" height="21.4" fill="#7c5c30" opacity="0.024"/><rect y="2550" width="2400" height="14.9" fill="#7c5c30" opacity="0.059"/><rect y="2574.8" width="2400" height="14.6" fill="#7c5c30" opacity="0.028"/><rect y="2599.2" width="2400" height="23" fill="#7c5c30" opacity="0.059"/><rect y="2637.5" width="2400" height="12.4" fill="#7c5c30" opacity="0.034"/><rect y="2658.1" width="2400" height="19.9" fill="#7c5c30" opacity="0.059"/><rect y="2691.2" width="2400" height="17.1" fill="#7c5c30" opacity="0.054"/><rect y="2719.7" width="2400" height="18.9" fill="#7c5c30" opacity="0.027"/><rect y="2751.2" width="2400" height="26.2" fill="#7c5c30" opacity="0.021"/><rect y="2795" width="2400" height="12.7" fill="#7c5c30" opacity="0.031"/><rect y="2816.1" width="2400" height="28.8" fill="#7c5c30" opacity="0.048"/><rect y="2864.1" width="2400" height="25.6" fill="#7c5c30" opacity="0.030"/><rect y="2906.8" width="2400" height="27.1" fill="#7c5c30" opacity="0.039"/><rect y="2951.9" width="2400" height="23.9" fill="#7c5c30" opacity="0.037"/><rect y="2991.7" width="2400" height="20.4" fill="#7c5c30" opacity="0.042"/><g filter="url(#a37-warp)"><clipPath id="a37-gz"><rect x="150" y="150" width="2100" height="2700"/></clipPath><g clip-path="url(#a37-gz)"><circle cx="1234.6" cy="856.6" r="302.4" fill="#2f5575"/><path d="M150,2050 C 700,1928.2 1100,2171.8 1600,1976.9 S 2200,2098.7 2250,2030 L2250,2850 L150,2850 Z" fill="#2e2a22" opacity="0.35"/><path d="M150,2270 C 700,2134 1100,2406 1600,2188.4 S 2200,2324.4 2250,2250 L2250,2850 L150,2850 Z" fill="#b39d70" opacity="0.9"/><path d="M150,2520 C 700,2406.3 1100,2633.7 1600,2451.8 S 2200,2565.5 2250,2500 L2250,2850 L150,2850 Z" fill="#2e2a22" opacity="1"/><polygon points="711.3,1153.1 220,2130 817.5,2130" fill="#2e2a22"/><polygon points="711.3,1153.1 817.5,2130 1202.6,2130" fill="#2e2a22" opacity="0.6"/><polygon points="1224.5,1655 882.2,2130 1324,2130" fill="#2e2a22"/><polygon points="1224.5,1655 1324,2130 1566.7,2130" fill="#2e2a22" opacity="0.6"/><path d="M839.2,541.3 q 26,-24 52,0 q 26,-24 52,0" fill="none" stroke="#2e2a22" stroke-width="8" stroke-linecap="round"/><path d="M1770.8,783.7 q 26,-24 52,0 q 26,-24 52,0" fill="none" stroke="#2e2a22" stroke-width="8" stroke-linecap="round"/><path d="M1213.6,653.6 q 26,-24 52,0 q 26,-24 52,0" fill="none" stroke="#2e2a22" stroke-width="8" stroke-linecap="round"/></g><polyline points="240,2800 300,2740 360,2800 420,2740 480,2800 540,2740 600,2800 660,2740 720,2800 780,2740 840,2800 900,2740 960,2800 1020,2740 1080,2800 1140,2740 1200,2800 1260,2740 1320,2800 1380,2740 1440,2800 1500,2740 1560,2800 1620,2740 1680,2800 1740,2740 1800,2800 1860,2740 1920,2800 1980,2740 2040,2800 2100,2740 2160,2800 " fill="none" stroke="#2e2a22" stroke-width="10.8" stroke-linejoin="miter"/><rect x="120" y="120" width="2160" height="2760" fill="none" stroke="#2e2a22" stroke-width="6" opacity="0.85"/></g><rect width="2400" height="3000" filter="url(#a37-mottle)" style="mix-blend-mode:multiply" opacity="0.5"/><rect width="2400" height="3000" filter="url(#a37-fade)" style="mix-blend-mode:screen" opacity="0.55"/><rect width="2400" height="3000" filter="url(#a37-grain)" style="mix-blend-mode:multiply" opacity="0.32"/><ellipse cx="2026.2" cy="2564.5" rx="141.1" ry="154.6" fill="#6b4a22" opacity="0.037" filter="url(#a37-blur9)"/><ellipse cx="1809.2" cy="1356.1" rx="315.5" ry="299.6" fill="#6b4a22" opacity="0.037" filter="url(#a37-blur9)"/><ellipse cx="1236" cy="2000.8" rx="157.9" ry="127.3" fill="#6b4a22" opacity="0.035" filter="url(#a37-blur9)"/><rect x="0" width="23.8" height="3000" fill="#fff2d0" opacity="0.036"/><rect x="47.7" width="16.2" height="3000" fill="#fff2d0" opacity="0.026"/><rect x="80" width="24.8" height="3000" fill="#fff2d0" opacity="0.018"/><rect x="129.5" width="18" height="3000" fill="#fff2d0" opacity="0.027"/><rect x="165.5" width="34.9" height="3000" fill="#fff2d0" opacity="0.029"/><rect x="235.3" width="19.4" height="3000" fill="#fff2d0" opacity="0.024"/><rect x="274.1" width="21.6" height="3000" fill="#fff2d0" opacity="0.022"/><rect x="317.3" width="30.2" height="3000" fill="#fff2d0" opacity="0.041"/><rect x="377.7" width="27.5" height="3000" fill="#fff2d0" opacity="0.022"/><rect x="432.8" width="23.4" height="3000" fill="#fff2d0" opacity="0.038"/><rect x="479.5" width="22.5" height="3000" fill="#fff2d0" opacity="0.020"/><rect x="524.6" width="21.5" height="3000" fill="#fff2d0" opacity="0.036"/><rect x="567.6" width="33.8" height="3000" fill="#fff2d0" opacity="0.035"/><rect x="635.1" width="24" height="3000" fill="#fff2d0" opacity="0.043"/><rect x="683.1" width="33.7" height="3000" fill="#fff2d0" opacity="0.020"/><rect x="750.6" width="19.1" height="3000" fill="#fff2d0" opacity="0.040"/><rect x="788.7" width="26.3" height="3000" fill="#fff2d0" opacity="0.038"/><rect x="841.3" width="30.7" height="3000" fill="#fff2d0" opacity="0.027"/><rect x="902.6" width="19.4" height="3000" fill="#fff2d0" opacity="0.018"/><rect x="941.5" width="15.6" height="3000" fill="#fff2d0" opacity="0.030"/><rect x="972.8" width="34.9" height="3000" fill="#fff2d0" opacity="0.037"/><rect x="1042.7" width="28.2" height="3000" fill="#fff2d0" opacity="0.022"/><rect x="1099.1" width="20.5" height="3000" fill="#fff2d0" opacity="0.044"/><rect x="1140.2" width="20.6" height="3000" fill="#fff2d0" opacity="0.017"/><rect x="1181.3" width="20.4" height="3000" fill="#fff2d0" opacity="0.032"/><rect x="1222.2" width="27" height="3000" fill="#fff2d0" opacity="0.027"/><rect x="1276.2" width="30.1" height="3000" fill="#fff2d0" opacity="0.037"/><rect x="1336.4" width="20.8" height="3000" fill="#fff2d0" opacity="0.035"/><rect x="1377.9" width="28.5" height="3000" fill="#fff2d0" opacity="0.045"/><rect x="1434.9" width="16.1" height="3000" fill="#fff2d0" opacity="0.020"/><rect x="1467.2" width="15.2" height="3000" fill="#fff2d0" opacity="0.037"/><rect x="1497.6" width="20.2" height="3000" fill="#fff2d0" opacity="0.038"/><rect x="1538.1" width="17.1" height="3000" fill="#fff2d0" opacity="0.024"/><rect x="1572.3" width="24.2" height="3000" fill="#fff2d0" opacity="0.037"/><rect x="1620.6" width="17.1" height="3000" fill="#fff2d0" opacity="0.045"/><rect x="1654.8" width="30.6" height="3000" fill="#fff2d0" opacity="0.023"/><rect x="1716" width="34.5" height="3000" fill="#fff2d0" opacity="0.025"/><rect x="1785" width="26.2" height="3000" fill="#fff2d0" opacity="0.042"/><rect x="1837.3" width="26.2" height="3000" fill="#fff2d0" opacity="0.044"/><rect x="1889.6" width="33.6" height="3000" fill="#fff2d0" opacity="0.026"/><rect x="1956.8" width="24" height="3000" fill="#fff2d0" opacity="0.021"/><rect x="2004.8" width="17.3" height="3000" fill="#fff2d0" opacity="0.030"/><rect x="2039.4" width="30.1" height="3000" fill="#fff2d0" opacity="0.039"/><rect x="2099.6" width="19.3" height="3000" fill="#fff2d0" opacity="0.018"/><rect x="2138.2" width="20.9" height="3000" fill="#fff2d0" opacity="0.040"/><rect x="2180.1" width="34.9" height="3000" fill="#fff2d0" opacity="0.020"/><rect x="2250" width="19.2" height="3000" fill="#fff2d0" opacity="0.027"/><rect x="2288.4" width="22.1" height="3000" fill="#fff2d0" opacity="0.026"/><rect x="2332.6" width="18.7" height="3000" fill="#fff2d0" opacity="0.043"/><rect x="2370.1" width="17.2" height="3000" fill="#fff2d0" opacity="0.026"/><linearGradient id="a37-er" x1="0" x2="1" y1="0" y2="0"><stop offset="0" stop-color="#3a2a12" stop-opacity="0.22"/><stop offset="1" stop-color="#3a2a12" stop-opacity="0"/></linearGradient><rect x="0" y="0" width="90" height="3000" fill="url(#a37-er)"/><linearGradient id="a37-el" x1="1" x2="0" y1="0" y2="0"><stop offset="0" stop-color="#3a2a12" stop-opacity="0.22"/><stop offset="1" stop-color="#3a2a12" stop-opacity="0"/></linearGradient><rect x="2310" y="0" width="90" height="3000" fill="url(#a37-el)"/><linearGradient id="a37-ed" x1="0" x2="0" y1="0" y2="1"><stop offset="0" stop-color="#3a2a12" stop-opacity="0.22"/><stop offset="1" stop-color="#3a2a12" stop-opacity="0"/></linearGradient><rect x="0" y="0" width="2400" height="90" fill="url(#a37-ed)"/><linearGradient id="a37-eu" x1="0" x2="0" y1="1" y2="0"><stop offset="0" stop-color="#3a2a12" stop-opacity="0.22"/><stop offset="1" stop-color="#3a2a12" stop-opacity="0"/></linearGradient><rect x="0" y="2910" width="2400" height="90" fill="url(#a37-eu)"/><circle cx="967.1" cy="2335.4" r="7.3" fill="#8a5a2e" opacity="0.120"/><circle cx="904.4" cy="2898.4" r="10.3" fill="#8a5a2e" opacity="0.059"/><circle cx="899.6" cy="823.7" r="11" fill="#8a5a2e" opacity="0.053"/><circle cx="1715.6" cy="626.6" r="15.1" fill="#8a5a2e" opacity="0.126"/><circle cx="1342.7" cy="1241.7" r="9.7" fill="#8a5a2e" opacity="0.051"/><circle cx="2184.4" cy="2219.7" r="7.8" fill="#8a5a2e" opacity="0.074"/><circle cx="1981.4" cy="368.2" r="3" fill="#8a5a2e" opacity="0.127"/><circle cx="376.1" cy="829.4" r="6.6" fill="#8a5a2e" opacity="0.097"/><circle cx="1183.7" cy="2540.3" r="4" fill="#8a5a2e" opacity="0.098"/><circle cx="1432.5" cy="2286.4" r="6.9" fill="#8a5a2e" opacity="0.046"/><circle cx="703.7" cy="1769.3" r="15" fill="#8a5a2e" opacity="0.103"/><circle cx="833.7" cy="873.2" r="13.4" fill="#8a5a2e" opacity="0.115"/><circle cx="545.3" cy="1864.9" r="8.8" fill="#8a5a2e" opacity="0.096"/><circle cx="1930.7" cy="2528.7" r="7.1" fill="#8a5a2e" opacity="0.047"/><rect width="2400" height="3000" fill="url(#a37-vig)"/></svg>