<svg xmlns="http://www.w3.org/2000/svg" width="2400" height="3000" viewBox="0 0 2400 3000"><rect width="2400" height="3000" fill="#2b2f36"/><radialGradient id="a85-vig" cx="50%" cy="42%" r="80%"><stop offset="55%" stop-color="#000" stop-opacity="0"/><stop offset="100%" stop-color="#000" stop-opacity="0.15"/></radialGradient><rect width="2400" height="3000" fill="url(#a85-vig)"/><circle cx="85.7" cy="1593" r="1.8" fill="#b3873e" opacity="0.036"/><circle cx="602.9" cy="1652.8" r="2.5" fill="#b3873e" opacity="0.040"/><circle cx="1045.7" cy="2610.3" r="2.5" fill="#b3873e" opacity="0.043"/><circle cx="1502" cy="1202.8" r="4" fill="#b3873e" opacity="0.038"/><circle cx="1466" cy="1549.6" r="2.5" fill="#b3873e" opacity="0.049"/><circle cx="301.5" cy="1745" r="3.3" fill="#b3873e" opacity="0.073"/><circle cx="2218.8" cy="274.2" r="2.3" fill="#b3873e" opacity="0.038"/><circle cx="591.2" cy="182.6" r="4.5" fill="#b3873e" opacity="0.079"/><circle cx="2223.7" cy="1972.6" r="4" fill="#b3873e" opacity="0.048"/><circle cx="877.5" cy="2228.1" r="3.9" fill="#b3873e" opacity="0.040"/><circle cx="1558.7" cy="2680.2" r="3.5" fill="#b3873e" opacity="0.037"/><circle cx="1660.2" cy="292.8" r="2.9" fill="#b3873e" opacity="0.061"/><circle cx="128" cy="2307.2" r="2.8" fill="#b3873e" opacity="0.042"/><circle cx="104.1" cy="1661" r="2" fill="#b3873e" opacity="0.076"/><circle cx="1218" cy="1246" r="3.1" fill="#b3873e" opacity="0.058"/><circle cx="316.2" cy="2614.1" r="4.1" fill="#b3873e" opacity="0.073"/><circle cx="699.6" cy="210.6" r="4.2" fill="#b3873e" opacity="0.073"/><circle cx="1095" cy="2803.5" r="1.9" fill="#b3873e" opacity="0.045"/><circle cx="1508.6" cy="2437.3" r="3.3" fill="#b3873e" opacity="0.048"/><circle cx="58.2" cy="2014.1" r="3.7" fill="#b3873e" opacity="0.069"/><circle cx="2313.7" cy="2121.7" r="3.2" fill="#b3873e" opacity="0.065"/><circle cx="2138.3" cy="2707.1" r="3.7" fill="#b3873e" opacity="0.062"/><circle cx="1632.1" cy="2294.8" r="3.1" fill="#b3873e" opacity="0.076"/><circle cx="892.7" cy="710.5" r="3.7" fill="#b3873e" opacity="0.070"/><circle cx="139.5" cy="739" r="3.5" fill="#b3873e" opacity="0.077"/><circle cx="1765.8" cy="1466.4" r="1.6" fill="#b3873e" opacity="0.044"/><circle cx="1472.7" cy="264.7" r="2.8" fill="#b3873e" opacity="0.050"/><circle cx="452" cy="191.1" r="3.6" fill="#b3873e" opacity="0.042"/><circle cx="144.1" cy="1794.4" r="2.9" fill="#b3873e" opacity="0.053"/><circle cx="1234.4" cy="1226.5" r="2.6" fill="#b3873e" opacity="0.076"/><circle cx="2093.2" cy="2331.5" r="4" fill="#b3873e" opacity="0.051"/><circle cx="1280.9" cy="773.4" r="3.3" fill="#b3873e" opacity="0.054"/><circle cx="2327.6" cy="2035.7" r="2.3" fill="#b3873e" opacity="0.037"/><circle cx="1183.1" cy="841.7" r="2.8" fill="#b3873e" opacity="0.054"/><circle cx="825.7" cy="2253" r="3.5" fill="#b3873e" opacity="0.071"/><circle cx="210.5" cy="1313.8" r="3.6" fill="#b3873e" opacity="0.045"/><circle cx="358.7" cy="1630.7" r="4.3" fill="#b3873e" opacity="0.074"/><circle cx="592" cy="349.4" r="4.3" fill="#b3873e" opacity="0.049"/><circle cx="833" cy="1493.6" r="3.5" fill="#b3873e" opacity="0.053"/><circle cx="1218.3" cy="190.3" r="2" fill="#b3873e" opacity="0.062"/><circle cx="366.2" cy="2459.6" r="2.3" fill="#b3873e" opacity="0.068"/><circle cx="581.2" cy="1837.3" r="3.2" fill="#b3873e" opacity="0.073"/><circle cx="774.2" cy="2362" r="4.5" fill="#b3873e" opacity="0.058"/><circle cx="1547.4" cy="2193" r="2.9" fill="#b3873e" opacity="0.069"/><circle cx="2356.6" cy="162.6" r="4.2" fill="#b3873e" opacity="0.034"/><circle cx="430.2" cy="1625.2" r="3.9" fill="#b3873e" opacity="0.071"/><circle cx="696.8" cy="798.6" r="1.9" fill="#b3873e" opacity="0.033"/><circle cx="1470.6" cy="2397.8" r="2.2" fill="#b3873e" opacity="0.031"/><circle cx="1001.5" cy="2855.2" r="2" fill="#b3873e" opacity="0.059"/><circle cx="337.9" cy="1450.5" r="2.3" fill="#b3873e" opacity="0.062"/><circle cx="632.3" cy="1674.6" r="2.5" fill="#b3873e" opacity="0.060"/><circle cx="987.9" cy="1534.4" r="2.6" fill="#b3873e" opacity="0.076"/><circle cx="1887.2" cy="1851.1" r="2.9" fill="#b3873e" opacity="0.032"/><circle cx="1374.4" cy="548" r="1.6" fill="#b3873e" opacity="0.042"/><circle cx="2266.5" cy="1257" r="3.7" fill="#b3873e" opacity="0.036"/><circle cx="2245.1" cy="1257.8" r="3.3" fill="#b3873e" opacity="0.048"/><circle cx="842.8" cy="2671.2" r="4.3" fill="#b3873e" opacity="0.057"/><circle cx="702.5" cy="1696.4" r="2.4" fill="#b3873e" opacity="0.041"/><circle cx="518.8" cy="869.1" r="3.1" fill="#b3873e" opacity="0.062"/><circle cx="2260.6" cy="1121.2" r="3.3" fill="#b3873e" opacity="0.046"/><circle cx="1777.2" cy="2078.7" r="3.7" fill="#b3873e" opacity="0.057"/><circle cx="614.3" cy="2420.8" r="3.5" fill="#b3873e" opacity="0.068"/><circle cx="1647" cy="2119" r="2" fill="#b3873e" opacity="0.066"/><circle cx="144.6" cy="952.9" r="2.9" fill="#b3873e" opacity="0.034"/><circle cx="138.5" cy="1674.6" r="2.7" fill="#b3873e" opacity="0.044"/><circle cx="1946.4" cy="1430.3" r="2.7" fill="#b3873e" opacity="0.070"/><circle cx="331.4" cy="2260.9" r="1.9" fill="#b3873e" opacity="0.046"/><circle cx="78.4" cy="2590.2" r="1.8" fill="#b3873e" opacity="0.068"/><circle cx="723.6" cy="287.9" r="2.4" fill="#b3873e" opacity="0.030"/><circle cx="1722.9" cy="2519.9" r="2.9" fill="#b3873e" opacity="0.048"/><circle cx="1383" cy="235.9" r="2" fill="#b3873e" opacity="0.050"/><circle cx="222.6" cy="2288.8" r="3.2" fill="#b3873e" opacity="0.075"/><circle cx="914.1" cy="2104.6" r="3.4" fill="#b3873e" opacity="0.075"/><circle cx="679.2" cy="782.3" r="3.4" fill="#b3873e" opacity="0.049"/><circle cx="1848.5" cy="1574.6" r="2.1" fill="#b3873e" opacity="0.070"/><circle cx="2215.5" cy="2161.3" r="3.6" fill="#b3873e" opacity="0.068"/><circle cx="220.1" cy="327.4" r="4.5" fill="#b3873e" opacity="0.065"/><circle cx="2124.8" cy="2012.6" r="2.8" fill="#b3873e" opacity="0.055"/><circle cx="1497.2" cy="632.7" r="2.5" fill="#b3873e" opacity="0.038"/><circle cx="2235.7" cy="525.4" r="1.8" fill="#b3873e" opacity="0.046"/><path d="M295.3,304 L351.9,429.7 L408.4,304 Z M408.4,304 L465,429.7 L521.5,304 Z M521.5,304 L578,429.7 L634.6,304 Z M634.6,304 L691.1,429.7 L747.7,304 Z M747.7,304 L804.2,429.7 L860.8,304 Z M860.8,304 L917.3,429.7 L973.8,304 Z M973.8,304 L1030.4,429.7 L1086.9,304 Z M1086.9,304 L1143.5,429.7 L1200,304 Z M1200,304 L1256.5,429.7 L1313.1,304 Z M1313.1,304 L1369.6,429.7 L1426.2,304 Z M1426.2,304 L1482.7,429.7 L1539.2,304 Z M1539.2,304 L1595.8,429.7 L1652.3,304 Z M1652.3,304 L1708.9,429.7 L1765.4,304 Z M1765.4,304 L1822,429.7 L1878.5,304 Z M1878.5,304 L1935,429.7 L1991.6,304 Z M1991.6,304 L2048.1,429.7 L2104.7,304 Z " fill="#b3873e"/><line x1="250" y1="473.7" x2="2150" y2="473.7" stroke="#b3873e" stroke-width="6"/><rect x="250" y="473.7" width="1900" height="254.5" fill="#b3873e"/><line x1="280" y1="682.2" x2="2120" y2="682.2" stroke="#2b2f36" stroke-width="13"/><polyline points="387.4,604.2 386.5,605.3 385.9,606.8 385.9,608.6 386.5,610.5 387.8,612.4 389.7,614 392.2,615 395.2,615.4 398.3,614.9 401.5,613.5 404.3,611.2 406.6,608.1 408.2,604.2 408.7,599.8 408.1,595.2 406.2,590.6 403.1,586.5 398.9,583.1 393.8,580.8 387.9,579.7 381.8,580.1 375.7,582.1 370.1,585.7 365.3,590.8 361.9,597 359.9,604.2 359.8,611.9 361.6,619.6 365.3,626.8 370.9,633.2 378.1,638.1 386.4,641.2 395.6,642.3 404.9,641.1 413.9,637.5 422,631.7 428.7,624 433.3,614.6 435.7,604.2 435.4,593.2 432.4,582.4 426.8,572.4 418.7,563.9 408.7,557.4 397.1,553.5 384.6,552.4 372.1,554.4 360.1,559.5 349.5,567.5 341,578 335.2,590.4 332.4,604.2" fill="none" stroke="#2b2f36" stroke-width="14.6" stroke-linecap="round" stroke-linejoin="round"/><polyline points="549.9,604.2 549,605.3 548.4,606.8 548.4,608.6 549,610.5 550.3,612.4 552.2,614 554.7,615 557.6,615.4 560.8,614.9 563.9,613.5 566.8,611.2 569.1,608.1 570.6,604.2 571.2,599.8 570.5,595.2 568.7,590.6 565.6,586.5 561.4,583.1 556.2,580.8 550.4,579.7 544.3,580.1 538.2,582.1 532.6,585.7 527.8,590.8 524.3,597 522.4,604.2 522.3,611.9 524.1,619.6 527.8,626.8 533.4,633.2 540.5,638.1 548.9,641.2 558,642.3 567.4,641.1 576.4,637.5 584.5,631.7 591.1,624 595.8,614.6 598.1,604.2 597.9,593.2 594.9,582.4 589.3,572.4 581.2,563.9 571.1,557.4 559.5,553.5 547.1,552.4 534.5,554.4 522.6,559.5 512,567.5 503.5,578 497.6,590.4 494.9,604.2" fill="none" stroke="#2b2f36" stroke-width="14.6" stroke-linecap="round" stroke-linejoin="round"/><polyline points="712.3,604.2 711.4,605.3 710.9,606.8 710.9,608.6 711.5,610.5 712.7,612.4 714.7,614 717.2,615 720.1,615.4 723.3,614.9 726.4,613.5 729.3,611.2 731.6,608.1 733.1,604.2 733.6,599.8 733,595.2 731.1,590.6 728.1,586.5 723.8,583.1 718.7,580.8 712.9,579.7 706.7,580.1 700.6,582.1 695,585.7 690.3,590.8 686.8,597 684.9,604.2 684.7,611.9 686.5,619.6 690.3,626.8 695.8,633.2 703,638.1 711.4,641.2 720.5,642.3 729.8,641.1 738.9,637.5 747,631.7 753.6,624 758.3,614.6 760.6,604.2 760.3,593.2 757.3,582.4 751.7,572.4 743.7,563.9 733.6,557.4 722,553.5 709.6,552.4 697,554.4 685,559.5 674.4,567.5 665.9,578 660.1,590.4 657.4,604.2" fill="none" stroke="#2b2f36" stroke-width="14.6" stroke-linecap="round" stroke-linejoin="round"/><polyline points="874.8,604.2 873.9,605.3 873.3,606.8 873.3,608.6 873.9,610.5 875.2,612.4 877.1,614 879.6,615 882.6,615.4 885.7,614.9 888.9,613.5 891.7,611.2 894,608.1 895.6,604.2 896.1,599.8 895.5,595.2 893.6,590.6 890.5,586.5 886.3,583.1 881.2,580.8 875.3,579.7 869.2,580.1 863.1,582.1 857.5,585.7 852.7,590.8 849.2,597 847.3,604.2 847.2,611.9 849,619.6 852.7,626.8 858.3,633.2 865.5,638.1 873.8,641.2 882.9,642.3 892.3,641.1 901.3,637.5 909.4,631.7 916.1,624 920.7,614.6 923.1,604.2 922.8,593.2 919.8,582.4 914.2,572.4 906.1,563.9 896.1,557.4 884.5,553.5 872,552.4 859.5,554.4 847.5,559.5 836.9,567.5 828.4,578 822.6,590.4 819.8,604.2" fill="none" stroke="#2b2f36" stroke-width="14.6" stroke-linecap="round" stroke-linejoin="round"/><polyline points="1037.3,604.2 1036.3,605.3 1035.8,606.8 1035.8,608.6 1036.4,610.5 1037.7,612.4 1039.6,614 1042.1,615 1045,615.4 1048.2,614.9 1051.3,613.5 1054.2,611.2 1056.5,608.1 1058,604.2 1058.6,599.8 1057.9,595.2 1056.1,590.6 1053,586.5 1048.8,583.1 1043.6,580.8 1037.8,579.7 1031.7,580.1 1025.6,582.1 1020,585.7 1015.2,590.8 1011.7,597 1009.8,604.2 1009.7,611.9 1011.5,619.6 1015.2,626.8 1020.8,633.2 1027.9,638.1 1036.3,641.2 1045.4,642.3 1054.8,641.1 1063.8,637.5 1071.9,631.7 1078.5,624 1083.2,614.6 1085.5,604.2 1085.3,593.2 1082.3,582.4 1076.6,572.4 1068.6,563.9 1058.5,557.4 1046.9,553.5 1034.5,552.4 1021.9,554.4 1010,559.5 999.4,567.5 990.9,578 985,590.4 982.3,604.2" fill="none" stroke="#2b2f36" stroke-width="14.6" stroke-linecap="round" stroke-linejoin="round"/><polyline points="1199.7,604.2 1198.8,605.3 1198.3,606.8 1198.2,608.6 1198.9,610.5 1200.1,612.4 1202.1,614 1204.6,615 1207.5,615.4 1210.6,614.9 1213.8,613.5 1216.7,611.2 1219,608.1 1220.5,604.2 1221,599.8 1220.4,595.2 1218.5,590.6 1215.5,586.5 1211.2,583.1 1206.1,580.8 1200.3,579.7 1194.1,580.1 1188,582.1 1182.4,585.7 1177.7,590.8 1174.2,597 1172.3,604.2 1172.1,611.9 1173.9,619.6 1177.7,626.8 1183.2,633.2 1190.4,638.1 1198.7,641.2 1207.9,642.3 1217.2,641.1 1226.3,637.5 1234.4,631.7 1241,624 1245.7,614.6 1248,604.2 1247.7,593.2 1244.7,582.4 1239.1,572.4 1231.1,563.9 1221,557.4 1209.4,553.5 1197,552.4 1184.4,554.4 1172.4,559.5 1161.8,567.5 1153.3,578 1147.5,590.4 1144.8,604.2" fill="none" stroke="#2b2f36" stroke-width="14.6" stroke-linecap="round" stroke-linejoin="round"/><polyline points="1362.2,604.2 1361.3,605.3 1360.7,606.8 1360.7,608.6 1361.3,610.5 1362.6,612.4 1364.5,614 1367,615 1370,615.4 1373.1,614.9 1376.3,613.5 1379.1,611.2 1381.4,608.1 1383,604.2 1383.5,599.8 1382.9,595.2 1381,590.6 1377.9,586.5 1373.7,583.1 1368.6,580.8 1362.7,579.7 1356.6,580.1 1350.5,582.1 1344.9,585.7 1340.1,590.8 1336.6,597 1334.7,604.2 1334.6,611.9 1336.4,619.6 1340.1,626.8 1345.7,633.2 1352.8,638.1 1361.2,641.2 1370.3,642.3 1379.7,641.1 1388.7,637.5 1396.8,631.7 1403.5,624 1408.1,614.6 1410.5,604.2 1410.2,593.2 1407.2,582.4 1401.6,572.4 1393.5,563.9 1383.5,557.4 1371.9,553.5 1359.4,552.4 1346.8,554.4 1334.9,559.5 1324.3,567.5 1315.8,578 1310,590.4 1307.2,604.2" fill="none" stroke="#2b2f36" stroke-width="14.6" stroke-linecap="round" stroke-linejoin="round"/><polyline points="1524.7,604.2 1523.7,605.3 1523.2,606.8 1523.2,608.6 1523.8,610.5 1525.1,612.4 1527,614 1529.5,615 1532.4,615.4 1535.6,614.9 1538.7,613.5 1541.6,611.2 1543.9,608.1 1545.4,604.2 1546,599.8 1545.3,595.2 1543.5,590.6 1540.4,586.5 1536.2,583.1 1531,580.8 1525.2,579.7 1519.1,580.1 1513,582.1 1507.4,585.7 1502.6,590.8 1499.1,597 1497.2,604.2 1497.1,611.9 1498.9,619.6 1502.6,626.8 1508.2,633.2 1515.3,638.1 1523.7,641.2 1532.8,642.3 1542.2,641.1 1551.2,637.5 1559.3,631.7 1565.9,624 1570.6,614.6 1572.9,604.2 1572.6,593.2 1569.7,582.4 1564,572.4 1556,563.9 1545.9,557.4 1534.3,553.5 1521.9,552.4 1509.3,554.4 1497.4,559.5 1486.8,567.5 1478.3,578 1472.4,590.4 1469.7,604.2" fill="none" stroke="#2b2f36" stroke-width="14.6" stroke-linecap="round" stroke-linejoin="round"/><polyline points="1687.1,604.2 1686.2,605.3 1685.7,606.8 1685.6,608.6 1686.2,610.5 1687.5,612.4 1689.5,614 1692,615 1694.9,615.4 1698,614.9 1701.2,613.5 1704.1,611.2 1706.4,608.1 1707.9,604.2 1708.4,599.8 1707.8,595.2 1705.9,590.6 1702.8,586.5 1698.6,583.1 1693.5,580.8 1687.7,579.7 1681.5,580.1 1675.4,582.1 1669.8,585.7 1665.1,590.8 1661.6,597 1659.6,604.2 1659.5,611.9 1661.3,619.6 1665.1,626.8 1670.6,633.2 1677.8,638.1 1686.1,641.2 1695.3,642.3 1704.6,641.1 1713.7,637.5 1721.8,631.7 1728.4,624 1733.1,614.6 1735.4,604.2 1735.1,593.2 1732.1,582.4 1726.5,572.4 1718.5,563.9 1708.4,557.4 1696.8,553.5 1684.4,552.4 1671.8,554.4 1659.8,559.5 1649.2,567.5 1640.7,578 1634.9,590.4 1632.2,604.2" fill="none" stroke="#2b2f36" stroke-width="14.6" stroke-linecap="round" stroke-linejoin="round"/><polyline points="1849.6,604.2 1848.7,605.3 1848.1,606.8 1848.1,608.6 1848.7,610.5 1850,612.4 1851.9,614 1854.4,615 1857.4,615.4 1860.5,614.9 1863.7,613.5 1866.5,611.2 1868.8,608.1 1870.4,604.2 1870.9,599.8 1870.3,595.2 1868.4,590.6 1865.3,586.5 1861.1,583.1 1856,580.8 1850.1,579.7 1844,580.1 1837.9,582.1 1832.3,585.7 1827.5,590.8 1824,597 1822.1,604.2 1822,611.9 1823.8,619.6 1827.5,626.8 1833.1,633.2 1840.2,638.1 1848.6,641.2 1857.7,642.3 1867.1,641.1 1876.1,637.5 1884.2,631.7 1890.9,624 1895.5,614.6 1897.9,604.2 1897.6,593.2 1894.6,582.4 1889,572.4 1880.9,563.9 1870.9,557.4 1859.3,553.5 1846.8,552.4 1834.2,554.4 1822.3,559.5 1811.7,567.5 1803.2,578 1797.3,590.4 1794.6,604.2" fill="none" stroke="#2b2f36" stroke-width="14.6" stroke-linecap="round" stroke-linejoin="round"/><polyline points="2012.1,604.2 2011.1,605.3 2010.6,606.8 2010.6,608.6 2011.2,610.5 2012.5,612.4 2014.4,614 2016.9,615 2019.8,615.4 2023,614.9 2026.1,613.5 2029,611.2 2031.3,608.1 2032.8,604.2 2033.4,599.8 2032.7,595.2 2030.9,590.6 2027.8,586.5 2023.6,583.1 2018.4,580.8 2012.6,579.7 2006.5,580.1 2000.4,582.1 1994.7,585.7 1990,590.8 1986.5,597 1984.6,604.2 1984.5,611.9 1986.3,619.6 1990,626.8 1995.6,633.2 2002.7,638.1 2011.1,641.2 2020.2,642.3 2029.6,641.1 2038.6,637.5 2046.7,631.7 2053.3,624 2058,614.6 2060.3,604.2 2060,593.2 2057.1,582.4 2051.4,572.4 2043.4,563.9 2033.3,557.4 2021.7,553.5 2009.3,552.4 1996.7,554.4 1984.8,559.5 1974.2,567.5 1965.7,578 1959.8,590.4 1957.1,604.2" fill="none" stroke="#2b2f36" stroke-width="14.6" stroke-linecap="round" stroke-linejoin="round"/><line x1="250" y1="728.2" x2="2150" y2="728.2" stroke="#b3873e" stroke-width="6"/><circle cx="540.3" cy="952.6" r="68.6" fill="#b3873e"/><circle cx="804.2" cy="952.6" r="68.6" fill="#b3873e"/><circle cx="1068.1" cy="952.6" r="68.6" fill="#b3873e"/><circle cx="1331.9" cy="952.6" r="68.6" fill="#b3873e"/><circle cx="1595.8" cy="952.6" r="68.6" fill="#b3873e"/><circle cx="1859.7" cy="952.6" r="68.6" fill="#b3873e"/><line x1="250" y1="1177" x2="2150" y2="1177" stroke="#b3873e" stroke-width="6"/><line x1="280" y1="1496.6" x2="2120" y2="1496.6" stroke="#8a6a4b" stroke-width="19.9"/><polyline points="452.4,1377 451,1378.7 450.2,1381 450.1,1383.8 451.1,1386.8 453,1389.6 456,1392 459.8,1393.6 464.3,1394.2 469.1,1393.5 474,1391.3 478.4,1387.8 481.9,1383 484.3,1377 485.1,1370.3 484.1,1363.2 481.2,1356.3 476.5,1349.9 470.1,1344.7 462.2,1341.1 453.2,1339.5 443.8,1340.2 434.5,1343.2 425.9,1348.7 418.6,1356.4 413.2,1366 410.3,1377 410.1,1388.8 412.9,1400.6 418.6,1411.8 427.1,1421.5 438.1,1429 450.9,1433.9 464.9,1435.5 479.3,1433.6 493.1,1428.1 505.5,1419.3 515.7,1407.4 522.8,1393 526.4,1377 526,1360.2 521.4,1343.6 512.8,1328.3 500.4,1315.2 485,1305.3 467.2,1299.3 448.2,1297.7 428.9,1300.8 410.6,1308.6 394.3,1320.8 381.3,1336.9 372.3,1356 368.1,1377" fill="none" stroke="#8a6a4b" stroke-width="22.4" stroke-linecap="round" stroke-linejoin="round"/><polyline points="701.5,1377 700.1,1378.7 699.2,1381 699.2,1383.8 700.1,1386.8 702.1,1389.6 705,1392 708.9,1393.6 713.4,1394.2 718.2,1393.5 723,1391.3 727.4,1387.8 731,1383 733.3,1377 734.1,1370.3 733.2,1363.2 730.3,1356.3 725.6,1349.9 719.1,1344.7 711.2,1341.1 702.3,1339.5 692.9,1340.2 683.5,1343.2 674.9,1348.7 667.7,1356.4 662.3,1366 659.3,1377 659.1,1388.8 661.9,1400.6 667.7,1411.8 676.2,1421.5 687.1,1429 700,1433.9 714,1435.5 728.3,1433.6 742.1,1428.1 754.6,1419.3 764.7,1407.4 771.9,1393 775.5,1377 775,1360.2 770.5,1343.6 761.8,1328.3 749.5,1315.2 734.1,1305.3 716.3,1299.3 697.2,1297.7 677.9,1300.8 659.6,1308.6 643.4,1320.8 630.3,1336.9 621.4,1356 617.2,1377" fill="none" stroke="#8a6a4b" stroke-width="22.4" stroke-linecap="round" stroke-linejoin="round"/><polyline points="950.5,1377 949.1,1378.7 948.3,1381 948.3,1383.8 949.2,1386.8 951.1,1389.6 954.1,1392 957.9,1393.6 962.4,1394.2 967.3,1393.5 972.1,1391.3 976.5,1387.8 980,1383 982.4,1377 983.2,1370.3 982.2,1363.2 979.4,1356.3 974.6,1349.9 968.2,1344.7 960.3,1341.1 951.4,1339.5 941.9,1340.2 932.6,1343.2 924,1348.7 916.7,1356.4 911.4,1366 908.4,1377 908.2,1388.8 911,1400.6 916.7,1411.8 925.2,1421.5 936.2,1429 949,1433.9 963,1435.5 977.4,1433.6 991.2,1428.1 1003.6,1419.3 1013.8,1407.4 1020.9,1393 1024.5,1377 1024.1,1360.2 1019.5,1343.6 1010.9,1328.3 998.6,1315.2 983.1,1305.3 965.4,1299.3 946.3,1297.7 927,1300.8 908.7,1308.6 892.4,1320.8 879.4,1336.9 870.4,1356 866.3,1377" fill="none" stroke="#8a6a4b" stroke-width="22.4" stroke-linecap="round" stroke-linejoin="round"/><polyline points="1199.6,1377 1198.2,1378.7 1197.3,1381 1197.3,1383.8 1198.2,1386.8 1200.2,1389.6 1203.2,1392 1207,1393.6 1211.5,1394.2 1216.3,1393.5 1221.1,1391.3 1225.5,1387.8 1229.1,1383 1231.4,1377 1232.2,1370.3 1231.3,1363.2 1228.4,1356.3 1223.7,1349.9 1217.2,1344.7 1209.3,1341.1 1200.4,1339.5 1191,1340.2 1181.7,1343.2 1173.1,1348.7 1165.8,1356.4 1160.4,1366 1157.5,1377 1157.3,1388.8 1160,1400.6 1165.8,1411.8 1174.3,1421.5 1185.3,1429 1198.1,1433.9 1212.1,1435.5 1226.4,1433.6 1240.3,1428.1 1252.7,1419.3 1262.8,1407.4 1270,1393 1273.6,1377 1273.2,1360.2 1268.6,1343.6 1260,1328.3 1247.6,1315.2 1232.2,1305.3 1214.4,1299.3 1195.3,1297.7 1176.1,1300.8 1157.7,1308.6 1141.5,1320.8 1128.5,1336.9 1119.5,1356 1115.3,1377" fill="none" stroke="#8a6a4b" stroke-width="22.4" stroke-linecap="round" stroke-linejoin="round"/><polyline points="1448.7,1377 1447.2,1378.7 1446.4,1381 1446.4,1383.8 1447.3,1386.8 1449.3,1389.6 1452.2,1392 1456.1,1393.6 1460.5,1394.2 1465.4,1393.5 1470.2,1391.3 1474.6,1387.8 1478.1,1383 1480.5,1377 1481.3,1370.3 1480.3,1363.2 1477.5,1356.3 1472.7,1349.9 1466.3,1344.7 1458.4,1341.1 1449.5,1339.5 1440.1,1340.2 1430.7,1343.2 1422.1,1348.7 1414.8,1356.4 1409.5,1366 1406.5,1377 1406.3,1388.8 1409.1,1400.6 1414.8,1411.8 1423.4,1421.5 1434.3,1429 1447.1,1433.9 1461.1,1435.5 1475.5,1433.6 1489.3,1428.1 1501.7,1419.3 1511.9,1407.4 1519.1,1393 1522.6,1377 1522.2,1360.2 1517.6,1343.6 1509,1328.3 1496.7,1315.2 1481.2,1305.3 1463.5,1299.3 1444.4,1297.7 1425.1,1300.8 1406.8,1308.6 1390.6,1320.8 1377.5,1336.9 1368.6,1356 1364.4,1377" fill="none" stroke="#8a6a4b" stroke-width="22.4" stroke-linecap="round" stroke-linejoin="round"/><polyline points="1697.7,1377 1696.3,1378.7 1695.5,1381 1695.4,1383.8 1696.4,1386.8 1698.3,1389.6 1701.3,1392 1705.1,1393.6 1709.6,1394.2 1714.4,1393.5 1719.3,1391.3 1723.7,1387.8 1727.2,1383 1729.6,1377 1730.4,1370.3 1729.4,1363.2 1726.5,1356.3 1721.8,1349.9 1715.4,1344.7 1707.5,1341.1 1698.5,1339.5 1689.1,1340.2 1679.8,1343.2 1671.2,1348.7 1663.9,1356.4 1658.5,1366 1655.6,1377 1655.4,1388.8 1658.2,1400.6 1663.9,1411.8 1672.4,1421.5 1683.4,1429 1696.2,1433.9 1710.2,1435.5 1724.6,1433.6 1738.4,1428.1 1750.8,1419.3 1761,1407.4 1768.1,1393 1771.7,1377 1771.3,1360.2 1766.7,1343.6 1758.1,1328.3 1745.7,1315.2 1730.3,1305.3 1712.5,1299.3 1693.5,1297.7 1674.2,1300.8 1655.9,1308.6 1639.6,1320.8 1626.6,1336.9 1617.6,1356 1613.4,1377" fill="none" stroke="#8a6a4b" stroke-width="22.4" stroke-linecap="round" stroke-linejoin="round"/><polyline points="1946.8,1377 1945.4,1378.7 1944.5,1381 1944.5,1383.8 1945.4,1386.8 1947.4,1389.6 1950.3,1392 1954.2,1393.6 1958.7,1394.2 1963.5,1393.5 1968.3,1391.3 1972.7,1387.8 1976.3,1383 1978.6,1377 1979.4,1370.3 1978.5,1363.2 1975.6,1356.3 1970.9,1349.9 1964.4,1344.7 1956.5,1341.1 1947.6,1339.5 1938.2,1340.2 1928.8,1343.2 1920.2,1348.7 1913,1356.4 1907.6,1366 1904.6,1377 1904.4,1388.8 1907.2,1400.6 1913,1411.8 1921.5,1421.5 1932.4,1429 1945.3,1433.9 1959.3,1435.5 1973.6,1433.6 1987.4,1428.1 1999.9,1419.3 2010,1407.4 2017.2,1393 2020.8,1377 2020.3,1360.2 2015.8,1343.6 2007.1,1328.3 1994.8,1315.2 1979.4,1305.3 1961.6,1299.3 1942.5,1297.7 1923.2,1300.8 1904.9,1308.6 1888.7,1320.8 1875.6,1336.9 1866.7,1356 1862.5,1377" fill="none" stroke="#8a6a4b" stroke-width="22.4" stroke-linecap="round" stroke-linejoin="round"/><line x1="250" y1="1567.1" x2="2150" y2="1567.1" stroke="#b3873e" stroke-width="6"/><rect x="250" y="1567.1" width="1900" height="409.4" fill="#b3873e"/><polyline points="388.9,1881.9 473.6,1694.8 558.4,1881.9" fill="none" stroke="#2b2f36" stroke-width="30.8"/><polyline points="631,1881.9 715.8,1694.8 800.5,1881.9" fill="none" stroke="#2b2f36" stroke-width="30.8"/><polyline points="873.1,1881.9 957.9,1694.8 1042.6,1881.9" fill="none" stroke="#2b2f36" stroke-width="30.8"/><polyline points="1115.3,1881.9 1200,1694.8 1284.7,1881.9" fill="none" stroke="#2b2f36" stroke-width="30.8"/><polyline points="1357.4,1881.9 1442.1,1694.8 1526.9,1881.9" fill="none" stroke="#2b2f36" stroke-width="30.8"/><polyline points="1599.5,1881.9 1684.2,1694.8 1769,1881.9" fill="none" stroke="#2b2f36" stroke-width="30.8"/><polyline points="1841.6,1881.9 1926.4,1694.8 2011.1,1881.9" fill="none" stroke="#2b2f36" stroke-width="30.8"/><line x1="250" y1="1976.5" x2="2150" y2="1976.5" stroke="#b3873e" stroke-width="6"/><line x1="280" y1="2238.3" x2="2120" y2="2238.3" stroke="#8a6a4b" stroke-width="16.3"/><polyline points="383.8,2140.4 382.6,2141.8 381.9,2143.7 381.9,2145.9 382.6,2148.4 384.2,2150.7 386.7,2152.7 389.8,2154 393.5,2154.4 397.5,2153.8 401.4,2152.1 405,2149.2 407.9,2145.2 409.8,2140.4 410.5,2134.9 409.7,2129.1 407.4,2123.4 403.5,2118.2 398.2,2113.9 391.7,2111 384.4,2109.7 376.7,2110.2 369.1,2112.7 362,2117.2 356.1,2123.5 351.7,2131.4 349.2,2140.4 349.1,2150 351.4,2159.7 356.1,2168.8 363,2176.8 372,2183 382.5,2186.9 394,2188.2 405.7,2186.7 417.1,2182.2 427.2,2175 435.6,2165.3 441.4,2153.5 444.3,2140.4 444,2126.6 440.3,2113 433.2,2100.5 423.1,2089.8 410.4,2081.6 395.9,2076.7 380.3,2075.4 364.5,2077.9 349.5,2084.3 336.2,2094.3 325.5,2107.5 318.2,2123.1 314.7,2140.4" fill="none" stroke="#8a6a4b" stroke-width="18.4" stroke-linecap="round" stroke-linejoin="round"/><polyline points="587.7,2140.4 586.6,2141.8 585.9,2143.7 585.9,2145.9 586.6,2148.4 588.2,2150.7 590.7,2152.7 593.8,2154 597.5,2154.4 601.4,2153.8 605.4,2152.1 609,2149.2 611.9,2145.2 613.8,2140.4 614.5,2134.9 613.7,2129.1 611.3,2123.4 607.5,2118.2 602.2,2113.9 595.7,2111 588.4,2109.7 580.7,2110.2 573.1,2112.7 566,2117.2 560,2123.5 555.6,2131.4 553.2,2140.4 553.1,2150 555.3,2159.7 560,2168.8 567,2176.8 576,2183 586.5,2186.9 598,2188.2 609.7,2186.7 621,2182.2 631.2,2175 639.5,2165.3 645.4,2153.5 648.3,2140.4 648,2126.6 644.2,2113 637.2,2100.5 627.1,2089.8 614.4,2081.6 599.9,2076.7 584.3,2075.4 568.5,2077.9 553.4,2084.3 540.2,2094.3 529.5,2107.5 522.1,2123.1 518.7,2140.4" fill="none" stroke="#8a6a4b" stroke-width="18.4" stroke-linecap="round" stroke-linejoin="round"/><polyline points="791.7,2140.4 790.6,2141.8 789.9,2143.7 789.8,2145.9 790.6,2148.4 792.2,2150.7 794.6,2152.7 797.8,2154 801.5,2154.4 805.4,2153.8 809.4,2152.1 813,2149.2 815.9,2145.2 817.8,2140.4 818.4,2134.9 817.7,2129.1 815.3,2123.4 811.4,2118.2 806.2,2113.9 799.7,2111 792.4,2109.7 784.7,2110.2 777,2112.7 770,2117.2 764,2123.5 759.6,2131.4 757.2,2140.4 757,2150 759.3,2159.7 764,2168.8 771,2176.8 780,2183 790.5,2186.9 801.9,2188.2 813.7,2186.7 825,2182.2 835.2,2175 843.5,2165.3 849.4,2153.5 852.3,2140.4 852,2126.6 848.2,2113 841.2,2100.5 831,2089.8 818.4,2081.6 803.9,2076.7 788.2,2075.4 772.4,2077.9 757.4,2084.3 744.1,2094.3 733.5,2107.5 726.1,2123.1 722.7,2140.4" fill="none" stroke="#8a6a4b" stroke-width="18.4" stroke-linecap="round" stroke-linejoin="round"/><polyline points="995.7,2140.4 994.5,2141.8 993.8,2143.7 993.8,2145.9 994.6,2148.4 996.2,2150.7 998.6,2152.7 1001.8,2154 1005.4,2154.4 1009.4,2153.8 1013.3,2152.1 1016.9,2149.2 1019.8,2145.2 1021.8,2140.4 1022.4,2134.9 1021.6,2129.1 1019.3,2123.4 1015.4,2118.2 1010.1,2113.9 1003.7,2111 996.4,2109.7 988.7,2110.2 981,2112.7 974,2117.2 968,2123.5 963.6,2131.4 961.2,2140.4 961,2150 963.3,2159.7 968,2168.8 975,2176.8 983.9,2183 994.4,2186.9 1005.9,2188.2 1017.7,2186.7 1029,2182.2 1039.2,2175 1047.5,2165.3 1053.4,2153.5 1056.3,2140.4 1055.9,2126.6 1052.2,2113 1045.1,2100.5 1035,2089.8 1022.4,2081.6 1007.8,2076.7 992.2,2075.4 976.4,2077.9 961.4,2084.3 948.1,2094.3 937.4,2107.5 930.1,2123.1 926.7,2140.4" fill="none" stroke="#8a6a4b" stroke-width="18.4" stroke-linecap="round" stroke-linejoin="round"/><polyline points="1199.7,2140.4 1198.5,2141.8 1197.8,2143.7 1197.8,2145.9 1198.6,2148.4 1200.2,2150.7 1202.6,2152.7 1205.7,2154 1209.4,2154.4 1213.4,2153.8 1217.3,2152.1 1220.9,2149.2 1223.8,2145.2 1225.7,2140.4 1226.4,2134.9 1225.6,2129.1 1223.3,2123.4 1219.4,2118.2 1214.1,2113.9 1207.7,2111 1200.3,2109.7 1192.6,2110.2 1185,2112.7 1177.9,2117.2 1172,2123.5 1167.6,2131.4 1165.2,2140.4 1165,2150 1167.3,2159.7 1172,2168.8 1179,2176.8 1187.9,2183 1198.4,2186.9 1209.9,2188.2 1221.6,2186.7 1233,2182.2 1243.1,2175 1251.5,2165.3 1257.3,2153.5 1260.3,2140.4 1259.9,2126.6 1256.2,2113 1249.1,2100.5 1239,2089.8 1226.4,2081.6 1211.8,2076.7 1196.2,2075.4 1180.4,2077.9 1165.4,2084.3 1152.1,2094.3 1141.4,2107.5 1134.1,2123.1 1130.6,2140.4" fill="none" stroke="#8a6a4b" stroke-width="18.4" stroke-linecap="round" stroke-linejoin="round"/><polyline points="1403.7,2140.4 1402.5,2141.8 1401.8,2143.7 1401.8,2145.9 1402.5,2148.4 1404.1,2150.7 1406.6,2152.7 1409.7,2154 1413.4,2154.4 1417.3,2153.8 1421.3,2152.1 1424.9,2149.2 1427.8,2145.2 1429.7,2140.4 1430.4,2134.9 1429.6,2129.1 1427.3,2123.4 1423.4,2118.2 1418.1,2113.9 1411.6,2111 1404.3,2109.7 1396.6,2110.2 1389,2112.7 1381.9,2117.2 1375.9,2123.5 1371.6,2131.4 1369.1,2140.4 1369,2150 1371.2,2159.7 1375.9,2168.8 1382.9,2176.8 1391.9,2183 1402.4,2186.9 1413.9,2188.2 1425.6,2186.7 1437,2182.2 1447.1,2175 1455.4,2165.3 1461.3,2153.5 1464.2,2140.4 1463.9,2126.6 1460.2,2113 1453.1,2100.5 1443,2089.8 1430.3,2081.6 1415.8,2076.7 1400.2,2075.4 1384.4,2077.9 1369.4,2084.3 1356.1,2094.3 1345.4,2107.5 1338,2123.1 1334.6,2140.4" fill="none" stroke="#8a6a4b" stroke-width="18.4" stroke-linecap="round" stroke-linejoin="round"/><polyline points="1607.6,2140.4 1606.5,2141.8 1605.8,2143.7 1605.8,2145.9 1606.5,2148.4 1608.1,2150.7 1610.5,2152.7 1613.7,2154 1617.4,2154.4 1621.3,2153.8 1625.3,2152.1 1628.9,2149.2 1631.8,2145.2 1633.7,2140.4 1634.4,2134.9 1633.6,2129.1 1631.2,2123.4 1627.4,2118.2 1622.1,2113.9 1615.6,2111 1608.3,2109.7 1600.6,2110.2 1592.9,2112.7 1585.9,2117.2 1579.9,2123.5 1575.5,2131.4 1573.1,2140.4 1573,2150 1575.2,2159.7 1579.9,2168.8 1586.9,2176.8 1595.9,2183 1606.4,2186.9 1617.8,2188.2 1629.6,2186.7 1640.9,2182.2 1651.1,2175 1659.4,2165.3 1665.3,2153.5 1668.2,2140.4 1667.9,2126.6 1664.1,2113 1657.1,2100.5 1647,2089.8 1634.3,2081.6 1619.8,2076.7 1604.1,2075.4 1588.4,2077.9 1573.3,2084.3 1560.1,2094.3 1549.4,2107.5 1542,2123.1 1538.6,2140.4" fill="none" stroke="#8a6a4b" stroke-width="18.4" stroke-linecap="round" stroke-linejoin="round"/><polyline points="1811.6,2140.4 1810.4,2141.8 1809.8,2143.7 1809.7,2145.9 1810.5,2148.4 1812.1,2150.7 1814.5,2152.7 1817.7,2154 1821.3,2154.4 1825.3,2153.8 1829.2,2152.1 1832.8,2149.2 1835.8,2145.2 1837.7,2140.4 1838.3,2134.9 1837.5,2129.1 1835.2,2123.4 1831.3,2118.2 1826.1,2113.9 1819.6,2111 1812.3,2109.7 1804.6,2110.2 1796.9,2112.7 1789.9,2117.2 1783.9,2123.5 1779.5,2131.4 1777.1,2140.4 1776.9,2150 1779.2,2159.7 1783.9,2168.8 1790.9,2176.8 1799.9,2183 1810.4,2186.9 1821.8,2188.2 1833.6,2186.7 1844.9,2182.2 1855.1,2175 1863.4,2165.3 1869.3,2153.5 1872.2,2140.4 1871.8,2126.6 1868.1,2113 1861,2100.5 1850.9,2089.8 1838.3,2081.6 1823.7,2076.7 1808.1,2075.4 1792.3,2077.9 1777.3,2084.3 1764,2094.3 1753.3,2107.5 1746,2123.1 1742.6,2140.4" fill="none" stroke="#8a6a4b" stroke-width="18.4" stroke-linecap="round" stroke-linejoin="round"/><polyline points="2015.6,2140.4 2014.4,2141.8 2013.7,2143.7 2013.7,2145.9 2014.5,2148.4 2016.1,2150.7 2018.5,2152.7 2021.6,2154 2025.3,2154.4 2029.3,2153.8 2033.2,2152.1 2036.8,2149.2 2039.7,2145.2 2041.7,2140.4 2042.3,2134.9 2041.5,2129.1 2039.2,2123.4 2035.3,2118.2 2030,2113.9 2023.6,2111 2016.3,2109.7 2008.5,2110.2 2000.9,2112.7 1993.8,2117.2 1987.9,2123.5 1983.5,2131.4 1981.1,2140.4 1980.9,2150 1983.2,2159.7 1987.9,2168.8 1994.9,2176.8 2003.8,2183 2014.3,2186.9 2025.8,2188.2 2037.6,2186.7 2048.9,2182.2 2059.1,2175 2067.4,2165.3 2073.2,2153.5 2076.2,2140.4 2075.8,2126.6 2072.1,2113 2065,2100.5 2054.9,2089.8 2042.3,2081.6 2027.7,2076.7 2012.1,2075.4 1996.3,2077.9 1981.3,2084.3 1968,2094.3 1957.3,2107.5 1950,2123.1 1946.6,2140.4" fill="none" stroke="#8a6a4b" stroke-width="18.4" stroke-linecap="round" stroke-linejoin="round"/><line x1="250" y1="2296.1" x2="2150" y2="2296.1" stroke="#b3873e" stroke-width="6"/><path d="M294.3,2490.2 L359,2346.4 L423.7,2490.2 Z M423.7,2490.2 L488.4,2346.4 L553.1,2490.2 Z M553.1,2490.2 L617.8,2346.4 L682.5,2490.2 Z M682.5,2490.2 L747.2,2346.4 L811.8,2490.2 Z M811.8,2490.2 L876.5,2346.4 L941.2,2490.2 Z M941.2,2490.2 L1005.9,2346.4 L1070.6,2490.2 Z M1070.6,2490.2 L1135.3,2346.4 L1200,2490.2 Z M1200,2490.2 L1264.7,2346.4 L1329.4,2490.2 Z M1329.4,2490.2 L1394.1,2346.4 L1458.8,2490.2 Z M1458.8,2490.2 L1523.5,2346.4 L1588.2,2490.2 Z M1588.2,2490.2 L1652.8,2346.4 L1717.5,2490.2 Z M1717.5,2490.2 L1782.2,2346.4 L1846.9,2490.2 Z M1846.9,2490.2 L1911.6,2346.4 L1976.3,2490.2 Z M1976.3,2490.2 L2041,2346.4 L2105.7,2490.2 Z " fill="#b3873e"/><line x1="250" y1="2540.5" x2="2150" y2="2540.5" stroke="#b3873e" stroke-width="6"/><rect x="250" y="2540.5" width="1900" height="199.5" fill="#b3873e"/><rect x="280" y="2580" width="60.3" height="60.3" fill="#2b2f36"/><rect x="340.3" y="2640.3" width="60.3" height="60.3" fill="#2b2f36"/><rect x="400.6" y="2580" width="60.3" height="60.3" fill="#2b2f36"/><rect x="460.9" y="2640.3" width="60.3" height="60.3" fill="#2b2f36"/><rect x="521.3" y="2580" width="60.3" height="60.3" fill="#2b2f36"/><rect x="581.6" y="2640.3" width="60.3" height="60.3" fill="#2b2f36"/><rect x="641.9" y="2580" width="60.3" height="60.3" fill="#2b2f36"/><rect x="702.2" y="2640.3" width="60.3" height="60.3" fill="#2b2f36"/><rect x="762.5" y="2580" width="60.3" height="60.3" fill="#2b2f36"/><rect x="822.8" y="2640.3" width="60.3" height="60.3" fill="#2b2f36"/><rect x="883.1" y="2580" width="60.3" height="60.3" fill="#2b2f36"/><rect x="943.5" y="2640.3" width="60.3" height="60.3" fill="#2b2f36"/><rect x="1003.8" y="2580" width="60.3" height="60.3" fill="#2b2f36"/><rect x="1064.1" y="2640.3" width="60.3" height="60.3" fill="#2b2f36"/><rect x="1124.4" y="2580" width="60.3" height="60.3" fill="#2b2f36"/><rect x="1184.7" y="2640.3" width="60.3" height="60.3" fill="#2b2f36"/><rect x="1245" y="2580" width="60.3" height="60.3" fill="#2b2f36"/><rect x="1305.3" y="2640.3" width="60.3" height="60.3" fill="#2b2f36"/><rect x="1365.7" y="2580" width="60.3" height="60.3" fill="#2b2f36"/><rect x="1426" y="2640.3" width="60.3" height="60.3" fill="#2b2f36"/><rect x="1486.3" y="2580" width="60.3" height="60.3" fill="#2b2f36"/><rect x="1546.6" y="2640.3" width="60.3" height="60.3" fill="#2b2f36"/><rect x="1606.9" y="2580" width="60.3" height="60.3" fill="#2b2f36"/><rect x="1667.2" y="2640.3" width="60.3" height="60.3" fill="#2b2f36"/><rect x="1727.5" y="2580" width="60.3" height="60.3" fill="#2b2f36"/><rect x="1787.9" y="2640.3" width="60.3" height="60.3" fill="#2b2f36"/><rect x="1848.2" y="2580" width="60.3" height="60.3" fill="#2b2f36"/><rect x="1908.5" y="2640.3" width="60.3" height="60.3" fill="#2b2f36"/><rect x="1968.8" y="2580" width="60.3" height="60.3" fill="#2b2f36"/><rect x="2029.1" y="2640.3" width="60.3" height="60.3" fill="#2b2f36"/><line x1="250" y1="2740" x2="2150" y2="2740" stroke="#b3873e" stroke-width="6"/><line x1="250" y1="260" x2="2150" y2="260" stroke="#b3873e" stroke-width="6"/><rect x="100" y="100" width="2200" height="2800" fill="none" stroke="#b3873e" stroke-width="9"/><rect x="142" y="142" width="2116" height="2716" fill="none" stroke="#b3873e" stroke-width="3" opacity="0.65"/></svg>