<svg xmlns="http://www.w3.org/2000/svg" width="2400" height="3000" viewBox="0 0 2400 3000"><rect width="2400" height="3000" fill="#3d4a33"/><radialGradient id="a90-vig" cx="50%" cy="42%" r="80%"><stop offset="55%" stop-color="#000" stop-opacity="0"/><stop offset="100%" stop-color="#000" stop-opacity="0.15"/></radialGradient><rect width="2400" height="3000" fill="url(#a90-vig)"/><circle cx="713.7" cy="1863.4" r="2" fill="#e6ddc4" opacity="0.064"/><circle cx="336.3" cy="775.2" r="3.6" fill="#e6ddc4" opacity="0.031"/><circle cx="191.6" cy="1491.9" r="3.2" fill="#e6ddc4" opacity="0.062"/><circle cx="92.7" cy="2216.2" r="3.3" fill="#e6ddc4" opacity="0.033"/><circle cx="2338.4" cy="749.8" r="1.8" fill="#e6ddc4" opacity="0.038"/><circle cx="2031.6" cy="2889.3" r="2.2" fill="#e6ddc4" opacity="0.057"/><circle cx="2069.8" cy="2472.9" r="3.1" fill="#e6ddc4" opacity="0.059"/><circle cx="1278.6" cy="2083.6" r="4.1" fill="#e6ddc4" opacity="0.046"/><circle cx="1022.2" cy="2317.5" r="3.3" fill="#e6ddc4" opacity="0.050"/><circle cx="967.4" cy="1533.3" r="3.3" fill="#e6ddc4" opacity="0.064"/><circle cx="1208.6" cy="1700.4" r="1.9" fill="#e6ddc4" opacity="0.036"/><circle cx="2215.2" cy="594.5" r="2" fill="#e6ddc4" opacity="0.061"/><circle cx="517.5" cy="646.3" r="4.3" fill="#e6ddc4" opacity="0.073"/><circle cx="199.9" cy="2662.5" r="3.9" fill="#e6ddc4" opacity="0.054"/><circle cx="2128.3" cy="2376.3" r="3.3" fill="#e6ddc4" opacity="0.073"/><circle cx="1388.9" cy="2647.2" r="3.8" fill="#e6ddc4" opacity="0.065"/><circle cx="213.8" cy="1848.4" r="2.2" fill="#e6ddc4" opacity="0.055"/><circle cx="1170" cy="615.5" r="2.4" fill="#e6ddc4" opacity="0.035"/><circle cx="854.3" cy="2110.1" r="2.4" fill="#e6ddc4" opacity="0.059"/><circle cx="1158.5" cy="2883.5" r="3.4" fill="#e6ddc4" opacity="0.063"/><circle cx="1058.9" cy="2123.3" r="3.9" fill="#e6ddc4" opacity="0.076"/><circle cx="228.3" cy="155.7" r="3.3" fill="#e6ddc4" opacity="0.071"/><circle cx="2112.3" cy="1610.5" r="1.8" fill="#e6ddc4" opacity="0.054"/><circle cx="1782.3" cy="1385.4" r="3.8" fill="#e6ddc4" opacity="0.057"/><circle cx="1949.6" cy="2224" r="1.6" fill="#e6ddc4" opacity="0.064"/><circle cx="107.6" cy="807.6" r="3.7" fill="#e6ddc4" opacity="0.045"/><circle cx="2205.6" cy="2609.3" r="4.1" fill="#e6ddc4" opacity="0.043"/><circle cx="823.7" cy="1786.1" r="3.4" fill="#e6ddc4" opacity="0.057"/><circle cx="620.9" cy="1831.8" r="2.8" fill="#e6ddc4" opacity="0.056"/><circle cx="117.3" cy="760.2" r="2.5" fill="#e6ddc4" opacity="0.063"/><circle cx="2164.1" cy="1259.1" r="4.3" fill="#e6ddc4" opacity="0.067"/><circle cx="382.7" cy="1493.5" r="3.1" fill="#e6ddc4" opacity="0.042"/><circle cx="130.7" cy="1972.5" r="1.8" fill="#e6ddc4" opacity="0.071"/><circle cx="807" cy="199.1" r="2.9" fill="#e6ddc4" opacity="0.050"/><circle cx="1188.1" cy="2640" r="3.9" fill="#e6ddc4" opacity="0.039"/><circle cx="818" cy="1601.1" r="4.4" fill="#e6ddc4" opacity="0.042"/><circle cx="1085.8" cy="1859" r="3.2" fill="#e6ddc4" opacity="0.074"/><circle cx="1507.4" cy="1386.7" r="1.7" fill="#e6ddc4" opacity="0.069"/><circle cx="1026.8" cy="2954.1" r="1.8" fill="#e6ddc4" opacity="0.058"/><circle cx="425.1" cy="1375" r="1.9" fill="#e6ddc4" opacity="0.032"/><circle cx="833.5" cy="1552.2" r="3.1" fill="#e6ddc4" opacity="0.060"/><circle cx="1336.5" cy="1008.5" r="1.8" fill="#e6ddc4" opacity="0.077"/><circle cx="1400.8" cy="2005.9" r="1.7" fill="#e6ddc4" opacity="0.036"/><circle cx="731.5" cy="2430.1" r="3.3" fill="#e6ddc4" opacity="0.050"/><circle cx="1107" cy="1530.7" r="4.4" fill="#e6ddc4" opacity="0.065"/><circle cx="1549.5" cy="521.7" r="2.8" fill="#e6ddc4" opacity="0.054"/><circle cx="330.5" cy="1840.5" r="3" fill="#e6ddc4" opacity="0.055"/><circle cx="1828.7" cy="1743.1" r="3.7" fill="#e6ddc4" opacity="0.063"/><circle cx="317.1" cy="2857.4" r="2.2" fill="#e6ddc4" opacity="0.057"/><circle cx="258.8" cy="618.3" r="3.4" fill="#e6ddc4" opacity="0.056"/><circle cx="389.8" cy="2909.4" r="1.7" fill="#e6ddc4" opacity="0.065"/><circle cx="1452.5" cy="1153.3" r="2" fill="#e6ddc4" opacity="0.040"/><circle cx="2168" cy="713.5" r="3.9" fill="#e6ddc4" opacity="0.062"/><circle cx="864" cy="424.6" r="2.8" fill="#e6ddc4" opacity="0.041"/><circle cx="552.4" cy="2012.3" r="3" fill="#e6ddc4" opacity="0.056"/><circle cx="1367.9" cy="374.7" r="2.4" fill="#e6ddc4" opacity="0.074"/><circle cx="1157.8" cy="780.6" r="2.8" fill="#e6ddc4" opacity="0.043"/><circle cx="1789.6" cy="1707.7" r="4" fill="#e6ddc4" opacity="0.057"/><circle cx="2286.9" cy="1053.8" r="2.6" fill="#e6ddc4" opacity="0.053"/><circle cx="50.8" cy="1109.3" r="2.4" fill="#e6ddc4" opacity="0.073"/><circle cx="206.9" cy="2822.1" r="3.4" fill="#e6ddc4" opacity="0.073"/><circle cx="79.4" cy="2588.1" r="2.5" fill="#e6ddc4" opacity="0.058"/><circle cx="1367.9" cy="1253.1" r="1.7" fill="#e6ddc4" opacity="0.040"/><circle cx="838.7" cy="2675.2" r="2.6" fill="#e6ddc4" opacity="0.051"/><circle cx="1478.6" cy="1672.1" r="1.8" fill="#e6ddc4" opacity="0.062"/><circle cx="1087.9" cy="1914.2" r="1.8" fill="#e6ddc4" opacity="0.049"/><circle cx="2266.7" cy="2524" r="4.1" fill="#e6ddc4" opacity="0.035"/><circle cx="1670.7" cy="643.6" r="3.3" fill="#e6ddc4" opacity="0.078"/><circle cx="1884.3" cy="1277.7" r="3.9" fill="#e6ddc4" opacity="0.042"/><circle cx="331.9" cy="569.9" r="1.7" fill="#e6ddc4" opacity="0.072"/><circle cx="1293.6" cy="766.5" r="1.8" fill="#e6ddc4" opacity="0.039"/><circle cx="507.1" cy="1562.6" r="3.8" fill="#e6ddc4" opacity="0.036"/><circle cx="1689.9" cy="75.5" r="4" fill="#e6ddc4" opacity="0.070"/><circle cx="368.9" cy="236.9" r="3" fill="#e6ddc4" opacity="0.079"/><circle cx="1923.3" cy="1287.1" r="2.3" fill="#e6ddc4" opacity="0.037"/><circle cx="557.2" cy="1654.2" r="1.9" fill="#e6ddc4" opacity="0.074"/><circle cx="213.2" cy="2304.9" r="2.1" fill="#e6ddc4" opacity="0.035"/><circle cx="1160.9" cy="1013.3" r="4.3" fill="#e6ddc4" opacity="0.043"/><circle cx="46.2" cy="2772.7" r="3.9" fill="#e6ddc4" opacity="0.065"/><circle cx="760" cy="1683.8" r="4.4" fill="#e6ddc4" opacity="0.057"/><path d="M1146.3,1568.4 A130,130 0 1 1 1212.7,1579.4" fill="none" stroke="#e6ddc4" stroke-width="45.7" stroke-linecap="round"/><line x1="1128.5" y1="1558.5" x2="1068.6" y2="1649.4" stroke="#e6ddc4" stroke-width="45.7" stroke-linecap="round"/><path d="M1230.9,1213.3 A238.8,238.8 0 1 1 1108.4,1229.5" fill="none" stroke="#e6ddc4" stroke-width="45.7" stroke-linecap="round"/><line x1="1075" y1="1246.6" x2="1018.1" y2="1153.9" stroke="#e6ddc4" stroke-width="45.7" stroke-linecap="round"/><path d="M1068,1771.4 A347.5,347.5 0 1 1 1246.4,1794.4" fill="none" stroke="#e6ddc4" stroke-width="45.7" stroke-linecap="round"/><line x1="1019.3" y1="1746.8" x2="962.8" y2="1839.7" stroke="#e6ddc4" stroke-width="45.7" stroke-linecap="round"/><path d="M1295,1003.7 A456.3,456.3 0 1 1 1059.1,1016" fill="none" stroke="#e6ddc4" stroke-width="45.7" stroke-linecap="round"/><line x1="993" y1="1043.4" x2="943.6" y2="946.5" stroke="#e6ddc4" stroke-width="45.7" stroke-linecap="round"/><path d="M1007,1981 A565,565 0 1 1 1298.4,2006.4" fill="none" stroke="#e6ddc4" stroke-width="45.7" stroke-linecap="round"/><line x1="926.3" y1="1944.3" x2="873.7" y2="2039.4" stroke="#e6ddc4" stroke-width="45.7" stroke-linecap="round"/><path d="M1473.7,834.3 A673.8,673.8 0 1 1 1129.2,780" fill="none" stroke="#e6ddc4" stroke-width="45.7" stroke-linecap="round"/><line x1="1025.2" y1="799.3" x2="997" y2="694.3" stroke="#e6ddc4" stroke-width="45.7" stroke-linecap="round"/><path d="M840.1,2144.8 A782.5,782.5 0 1 1 1235.7,2231.7" fill="none" stroke="#e6ddc4" stroke-width="45.7" stroke-linecap="round"/><line x1="735.8" y1="2079.9" x2="671.3" y2="2167.5" stroke="#e6ddc4" stroke-width="45.7" stroke-linecap="round"/><path d="M1338.4,569.6 A891.3,891.3 0 1 1 879.6,618.3" fill="none" stroke="#e6ddc4" stroke-width="45.7" stroke-linecap="round"/><circle cx="1200" cy="1450" r="56" fill="#bda15a"/><path d="M324.7,287.3 L 395.3,287.3 L 395.3,216.7 L 339.8,216.7 L 339.8,260.4 L 368.4,260.4 L 368.4,238.6 M408.7,287.3 L 479.3,287.3 L 479.3,216.7 L 423.8,216.7 L 423.8,260.4 L 452.4,260.4 L 452.4,238.6 M492.7,287.3 L 563.3,287.3 L 563.3,216.7 L 507.8,216.7 L 507.8,260.4 L 536.4,260.4 L 536.4,238.6 M576.7,287.3 L 647.3,287.3 L 647.3,216.7 L 591.8,216.7 L 591.8,260.4 L 620.4,260.4 L 620.4,238.6 M660.7,287.3 L 731.3,287.3 L 731.3,216.7 L 675.8,216.7 L 675.8,260.4 L 704.4,260.4 L 704.4,238.6 M744.7,287.3 L 815.3,287.3 L 815.3,216.7 L 759.8,216.7 L 759.8,260.4 L 788.4,260.4 L 788.4,238.6 M828.7,287.3 L 899.3,287.3 L 899.3,216.7 L 843.8,216.7 L 843.8,260.4 L 872.4,260.4 L 872.4,238.6 M912.7,287.3 L 983.3,287.3 L 983.3,216.7 L 927.8,216.7 L 927.8,260.4 L 956.4,260.4 L 956.4,238.6 M996.7,287.3 L 1067.3,287.3 L 1067.3,216.7 L 1011.8,216.7 L 1011.8,260.4 L 1040.4,260.4 L 1040.4,238.6 M1080.7,287.3 L 1151.3,287.3 L 1151.3,216.7 L 1095.8,216.7 L 1095.8,260.4 L 1124.4,260.4 L 1124.4,238.6 M1164.7,287.3 L 1235.3,287.3 L 1235.3,216.7 L 1179.8,216.7 L 1179.8,260.4 L 1208.4,260.4 L 1208.4,238.6 M1248.7,287.3 L 1319.3,287.3 L 1319.3,216.7 L 1263.8,216.7 L 1263.8,260.4 L 1292.4,260.4 L 1292.4,238.6 M1332.7,287.3 L 1403.3,287.3 L 1403.3,216.7 L 1347.8,216.7 L 1347.8,260.4 L 1376.4,260.4 L 1376.4,238.6 M1416.7,287.3 L 1487.3,287.3 L 1487.3,216.7 L 1431.8,216.7 L 1431.8,260.4 L 1460.4,260.4 L 1460.4,238.6 M1500.7,287.3 L 1571.3,287.3 L 1571.3,216.7 L 1515.8,216.7 L 1515.8,260.4 L 1544.4,260.4 L 1544.4,238.6 M1584.7,287.3 L 1655.3,287.3 L 1655.3,216.7 L 1599.8,216.7 L 1599.8,260.4 L 1628.4,260.4 L 1628.4,238.6 M1668.7,287.3 L 1739.3,287.3 L 1739.3,216.7 L 1683.8,216.7 L 1683.8,260.4 L 1712.4,260.4 L 1712.4,238.6 M1752.7,287.3 L 1823.3,287.3 L 1823.3,216.7 L 1767.8,216.7 L 1767.8,260.4 L 1796.4,260.4 L 1796.4,238.6 M1836.7,287.3 L 1907.3,287.3 L 1907.3,216.7 L 1851.8,216.7 L 1851.8,260.4 L 1880.4,260.4 L 1880.4,238.6 M1920.7,287.3 L 1991.3,287.3 L 1991.3,216.7 L 1935.8,216.7 L 1935.8,260.4 L 1964.4,260.4 L 1964.4,238.6 M2004.7,287.3 L 2075.3,287.3 L 2075.3,216.7 L 2019.8,216.7 L 2019.8,260.4 L 2048.4,260.4 L 2048.4,238.6 " fill="none" stroke="#e6ddc4" stroke-width="10.9"/><path d="M324.7,2777.3 L 395.3,2777.3 L 395.3,2706.7 L 339.8,2706.7 L 339.8,2750.4 L 368.4,2750.4 L 368.4,2728.6 M408.7,2777.3 L 479.3,2777.3 L 479.3,2706.7 L 423.8,2706.7 L 423.8,2750.4 L 452.4,2750.4 L 452.4,2728.6 M492.7,2777.3 L 563.3,2777.3 L 563.3,2706.7 L 507.8,2706.7 L 507.8,2750.4 L 536.4,2750.4 L 536.4,2728.6 M576.7,2777.3 L 647.3,2777.3 L 647.3,2706.7 L 591.8,2706.7 L 591.8,2750.4 L 620.4,2750.4 L 620.4,2728.6 M660.7,2777.3 L 731.3,2777.3 L 731.3,2706.7 L 675.8,2706.7 L 675.8,2750.4 L 704.4,2750.4 L 704.4,2728.6 M744.7,2777.3 L 815.3,2777.3 L 815.3,2706.7 L 759.8,2706.7 L 759.8,2750.4 L 788.4,2750.4 L 788.4,2728.6 M828.7,2777.3 L 899.3,2777.3 L 899.3,2706.7 L 843.8,2706.7 L 843.8,2750.4 L 872.4,2750.4 L 872.4,2728.6 M912.7,2777.3 L 983.3,2777.3 L 983.3,2706.7 L 927.8,2706.7 L 927.8,2750.4 L 956.4,2750.4 L 956.4,2728.6 M996.7,2777.3 L 1067.3,2777.3 L 1067.3,2706.7 L 1011.8,2706.7 L 1011.8,2750.4 L 1040.4,2750.4 L 1040.4,2728.6 M1080.7,2777.3 L 1151.3,2777.3 L 1151.3,2706.7 L 1095.8,2706.7 L 1095.8,2750.4 L 1124.4,2750.4 L 1124.4,2728.6 M1164.7,2777.3 L 1235.3,2777.3 L 1235.3,2706.7 L 1179.8,2706.7 L 1179.8,2750.4 L 1208.4,2750.4 L 1208.4,2728.6 M1248.7,2777.3 L 1319.3,2777.3 L 1319.3,2706.7 L 1263.8,2706.7 L 1263.8,2750.4 L 1292.4,2750.4 L 1292.4,2728.6 M1332.7,2777.3 L 1403.3,2777.3 L 1403.3,2706.7 L 1347.8,2706.7 L 1347.8,2750.4 L 1376.4,2750.4 L 1376.4,2728.6 M1416.7,2777.3 L 1487.3,2777.3 L 1487.3,2706.7 L 1431.8,2706.7 L 1431.8,2750.4 L 1460.4,2750.4 L 1460.4,2728.6 M1500.7,2777.3 L 1571.3,2777.3 L 1571.3,2706.7 L 1515.8,2706.7 L 1515.8,2750.4 L 1544.4,2750.4 L 1544.4,2728.6 M1584.7,2777.3 L 1655.3,2777.3 L 1655.3,2706.7 L 1599.8,2706.7 L 1599.8,2750.4 L 1628.4,2750.4 L 1628.4,2728.6 M1668.7,2777.3 L 1739.3,2777.3 L 1739.3,2706.7 L 1683.8,2706.7 L 1683.8,2750.4 L 1712.4,2750.4 L 1712.4,2728.6 M1752.7,2777.3 L 1823.3,2777.3 L 1823.3,2706.7 L 1767.8,2706.7 L 1767.8,2750.4 L 1796.4,2750.4 L 1796.4,2728.6 M1836.7,2777.3 L 1907.3,2777.3 L 1907.3,2706.7 L 1851.8,2706.7 L 1851.8,2750.4 L 1880.4,2750.4 L 1880.4,2728.6 M1920.7,2777.3 L 1991.3,2777.3 L 1991.3,2706.7 L 1935.8,2706.7 L 1935.8,2750.4 L 1964.4,2750.4 L 1964.4,2728.6 M2004.7,2777.3 L 2075.3,2777.3 L 2075.3,2706.7 L 2019.8,2706.7 L 2019.8,2750.4 L 2048.4,2750.4 L 2048.4,2728.6 " fill="none" stroke="#e6ddc4" stroke-width="10.9"/><rect x="100" y="100" width="2200" height="2800" fill="none" stroke="#e6ddc4" stroke-width="9"/><rect x="142" y="142" width="2116" height="2716" fill="none" stroke="#e6ddc4" stroke-width="3" opacity="0.65"/></svg>