<svg xmlns="http://www.w3.org/2000/svg" width="2400" height="3000" viewBox="0 0 2400 3000"><rect width="2400" height="3000" fill="#e9dcbc"/><radialGradient id="a64-vig" cx="50%" cy="42%" r="80%"><stop offset="55%" stop-color="#000" stop-opacity="0"/><stop offset="100%" stop-color="#000" stop-opacity="0.15"/></radialGradient><rect width="2400" height="3000" fill="url(#a64-vig)"/><circle cx="2095.4" cy="1797.9" r="3.2" fill="#2c4661" opacity="0.060"/><circle cx="579.6" cy="1715" r="3.4" fill="#2c4661" opacity="0.070"/><circle cx="145.1" cy="780.6" r="4.3" fill="#2c4661" opacity="0.079"/><circle cx="1238.9" cy="1133.7" r="2.1" fill="#2c4661" opacity="0.055"/><circle cx="1091.1" cy="2032.3" r="4.2" fill="#2c4661" opacity="0.032"/><circle cx="1459.3" cy="807.8" r="3.1" fill="#2c4661" opacity="0.063"/><circle cx="864.9" cy="1338.2" r="1.6" fill="#2c4661" opacity="0.039"/><circle cx="1017.4" cy="1046.6" r="3.2" fill="#2c4661" opacity="0.072"/><circle cx="1313.1" cy="2361.2" r="4.3" fill="#2c4661" opacity="0.037"/><circle cx="1432.5" cy="2854.8" r="2.8" fill="#2c4661" opacity="0.055"/><circle cx="2108.4" cy="1247.3" r="2" fill="#2c4661" opacity="0.071"/><circle cx="1198" cy="1797.5" r="1.8" fill="#2c4661" opacity="0.031"/><circle cx="2041.5" cy="831.9" r="2.9" fill="#2c4661" opacity="0.034"/><circle cx="2158.6" cy="535.3" r="2.1" fill="#2c4661" opacity="0.035"/><circle cx="1705.7" cy="2234" r="4.3" fill="#2c4661" opacity="0.065"/><circle cx="797.4" cy="2661.6" r="3.8" fill="#2c4661" opacity="0.045"/><circle cx="636.4" cy="2324.3" r="4.1" fill="#2c4661" opacity="0.053"/><circle cx="2018.4" cy="1568.2" r="2.8" fill="#2c4661" opacity="0.075"/><circle cx="178.2" cy="1939.1" r="1.8" fill="#2c4661" opacity="0.080"/><circle cx="2213.6" cy="1292.4" r="2.6" fill="#2c4661" opacity="0.070"/><circle cx="1768.4" cy="690.7" r="3.1" fill="#2c4661" opacity="0.034"/><circle cx="1111" cy="384.2" r="2.4" fill="#2c4661" opacity="0.046"/><circle cx="1670.3" cy="2182.1" r="4" fill="#2c4661" opacity="0.066"/><circle cx="994.5" cy="485.4" r="3.1" fill="#2c4661" opacity="0.055"/><circle cx="1999.1" cy="367.2" r="2.6" fill="#2c4661" opacity="0.062"/><circle cx="1681.5" cy="2343.8" r="3.1" fill="#2c4661" opacity="0.072"/><circle cx="1545.1" cy="1647.5" r="2.8" fill="#2c4661" opacity="0.062"/><circle cx="913.4" cy="2755.7" r="3.5" fill="#2c4661" opacity="0.067"/><circle cx="2358.7" cy="2133.3" r="4.1" fill="#2c4661" opacity="0.076"/><circle cx="1585.7" cy="1918.2" r="3.5" fill="#2c4661" opacity="0.036"/><circle cx="2293.2" cy="2432.2" r="4" fill="#2c4661" opacity="0.073"/><circle cx="2060.3" cy="1072.2" r="3.8" fill="#2c4661" opacity="0.049"/><circle cx="614.7" cy="2327.9" r="1.8" fill="#2c4661" opacity="0.031"/><circle cx="1327.1" cy="1650.2" r="3.6" fill="#2c4661" opacity="0.045"/><circle cx="899.5" cy="82.1" r="2.2" fill="#2c4661" opacity="0.073"/><circle cx="134.2" cy="138.4" r="2.7" fill="#2c4661" opacity="0.032"/><circle cx="129" cy="2384.4" r="1.6" fill="#2c4661" opacity="0.051"/><circle cx="1064.9" cy="1420" r="4.1" fill="#2c4661" opacity="0.065"/><circle cx="370.5" cy="779.2" r="4.3" fill="#2c4661" opacity="0.044"/><circle cx="453.1" cy="2034.6" r="1.8" fill="#2c4661" opacity="0.056"/><circle cx="1521.4" cy="1735.6" r="3.8" fill="#2c4661" opacity="0.067"/><circle cx="1835.4" cy="2282.9" r="4.2" fill="#2c4661" opacity="0.055"/><circle cx="1172.7" cy="368.6" r="3.2" fill="#2c4661" opacity="0.052"/><circle cx="992.1" cy="464.1" r="1.6" fill="#2c4661" opacity="0.044"/><circle cx="55.1" cy="1911.2" r="2.3" fill="#2c4661" opacity="0.049"/><circle cx="187.7" cy="1712.4" r="3.2" fill="#2c4661" opacity="0.039"/><circle cx="485.7" cy="701.7" r="2.6" fill="#2c4661" opacity="0.037"/><circle cx="2169.1" cy="2077.7" r="3.8" fill="#2c4661" opacity="0.063"/><circle cx="1992.5" cy="216" r="4.3" fill="#2c4661" opacity="0.041"/><circle cx="533.8" cy="1893.6" r="1.7" fill="#2c4661" opacity="0.050"/><circle cx="106.3" cy="272.6" r="3" fill="#2c4661" opacity="0.045"/><circle cx="208.4" cy="2865.9" r="4.2" fill="#2c4661" opacity="0.032"/><circle cx="1129.6" cy="1149.1" r="4.2" fill="#2c4661" opacity="0.039"/><circle cx="1681" cy="2099.6" r="3.8" fill="#2c4661" opacity="0.041"/><circle cx="864" cy="2387.3" r="3.5" fill="#2c4661" opacity="0.063"/><circle cx="1302" cy="802.3" r="2.6" fill="#2c4661" opacity="0.069"/><circle cx="917.4" cy="2196.3" r="2.6" fill="#2c4661" opacity="0.046"/><circle cx="624.7" cy="258.9" r="3.5" fill="#2c4661" opacity="0.059"/><circle cx="2330.2" cy="1452.6" r="3.2" fill="#2c4661" opacity="0.032"/><circle cx="1067.7" cy="1135" r="2.3" fill="#2c4661" opacity="0.079"/><circle cx="1407.6" cy="1469.4" r="3.5" fill="#2c4661" opacity="0.065"/><circle cx="1255.1" cy="736.8" r="2" fill="#2c4661" opacity="0.077"/><circle cx="1535.7" cy="2827.9" r="3.3" fill="#2c4661" opacity="0.064"/><circle cx="722.6" cy="1211.6" r="2.7" fill="#2c4661" opacity="0.035"/><circle cx="1555.2" cy="1054.6" r="2.9" fill="#2c4661" opacity="0.064"/><circle cx="1077.6" cy="1210.4" r="4.1" fill="#2c4661" opacity="0.045"/><circle cx="322.4" cy="587.3" r="1.9" fill="#2c4661" opacity="0.056"/><circle cx="1123" cy="2298" r="4.5" fill="#2c4661" opacity="0.066"/><circle cx="213.2" cy="1865.1" r="2.5" fill="#2c4661" opacity="0.064"/><circle cx="1415.9" cy="1663.5" r="3.3" fill="#2c4661" opacity="0.079"/><circle cx="607.3" cy="2103.2" r="2.8" fill="#2c4661" opacity="0.067"/><circle cx="1703.3" cy="1018.5" r="3.4" fill="#2c4661" opacity="0.052"/><circle cx="1306.2" cy="72.3" r="1.7" fill="#2c4661" opacity="0.040"/><circle cx="891.8" cy="567.2" r="2.7" fill="#2c4661" opacity="0.031"/><circle cx="93.4" cy="215.2" r="4.3" fill="#2c4661" opacity="0.072"/><circle cx="345" cy="2013.6" r="4.5" fill="#2c4661" opacity="0.033"/><circle cx="2079.5" cy="2370.5" r="4" fill="#2c4661" opacity="0.079"/><circle cx="2156.1" cy="1771.5" r="2" fill="#2c4661" opacity="0.045"/><circle cx="1415.1" cy="2713.3" r="3" fill="#2c4661" opacity="0.055"/><circle cx="2216.3" cy="2522" r="3.6" fill="#2c4661" opacity="0.039"/><path d="M1929.7,1770.2 Q1880.8,2040.5 1728,2270.8 Q1575.1,2501 1387.5,2559.2 Q1200,2617.4 1009.6,2553.5 Q819.2,2489.6 681,2267 Q542.9,2044.3 498.1,1772.2 Q453.4,1500 490.3,1227.2 Q527.2,954.4 667.1,754.7 Q807,555 1003.5,455.7 Q1200,356.4 1385.4,427.8 Q1570.9,499.2 1720,723 Q1869.2,946.8 1923.9,1223.4 Q1978.7,1500 1929.7,1770.2 Z" fill="#c9b98e" stroke="#2c4661" stroke-width="9"/><clipPath id="a64-tb"><path d="M1843.8,1760 Q1797.6,2020 1671.3,2210.3 Q1545,2400.7 1372.5,2470.3 Q1200,2540 1027.5,2470.3 Q855,2400.7 728.7,2210.3 Q602.4,2020 556.2,1760 Q510,1500 556.2,1240 Q602.4,980 728.7,789.7 Q855,599.3 1027.5,529.7 Q1200,460 1372.5,529.7 Q1545,599.3 1671.3,789.7 Q1797.6,980 1843.8,1240 Q1890,1500 1843.8,1760 Z"/></clipPath><g clip-path="url(#a64-tb)"><line x1="560" y1="560" x2="1840" y2="560" stroke="#2c4661" stroke-width="4" opacity="0.35"/><path d="M600,631.9 L632.6,664.4 L600,697 l -8,-6 L617.4,664.4 l -26.1,-23.9 Z" fill="#2c4661"/><path d="M750.6,610.1 l 17.4,23.9 l -8.7,0 L752.8,718.8 l -8,0 Z" fill="#2c4661"/><path d="M901.2,631.9 L933.8,664.4 L901.2,697 l -8,-6 L918.6,664.4 l -26.1,-23.9 Z" fill="#2c4661"/><path d="M1028.9,664.4 l 23.9,-15.2 l 0,10.9 l 54.3,0 l 0,8 L1050.6,670.4 Z" fill="#2c4661"/><path d="M1158.5,631.9 L1191.1,664.4 L1158.5,697 l -8,-6 L1175.9,664.4 l -26.1,-23.9 Z" fill="#2c4661"/><path d="M1307.1,631.9 L1339.7,664.4 L1307.1,697 l -8,-6 L1324.5,664.4 l -26.1,-23.9 Z" fill="#2c4661"/><path d="M1429.7,610.1 l 17.4,23.9 l -8.7,0 L1431.9,718.8 l -8,0 Z" fill="#2c4661"/><rect x="1562.4" y="621" width="10" height="86.9" fill="#2c4661"/><rect x="1584.4" y="621" width="10" height="86.9" fill="#2c4661"/><path d="M1696,610.1 l 17.4,23.9 l -8.7,0 L1698.2,718.8 l -8,0 Z" fill="#2c4661"/><line x1="560" y1="768.9" x2="1840" y2="768.9" stroke="#2c4661" stroke-width="4" opacity="0.35"/><path d="M600,819 l 17.4,23.9 l -8.7,0 L602.2,927.6 l -8,0 Z" fill="#2c4661"/><rect x="737.6" y="829.9" width="10" height="86.9" fill="#2c4661"/><rect x="759.6" y="829.9" width="10" height="86.9" fill="#2c4661"/><path d="M872.2,819 l 17.4,23.9 l -8.7,0 L874.4,927.6 l -8,0 Z" fill="#2c4661"/><path d="M1023.9,819 l 17.4,23.9 l -8.7,0 L1026,927.6 l -8,0 Z" fill="#2c4661"/><path d="M1163.5,873.3 l 23.9,-15.2 l 0,10.9 l 54.3,0 l 0,8 L1185.2,879.3 Z" fill="#2c4661"/><path d="M1315.1,840.7 L1347.7,873.3 L1315.1,905.9 l -8,-6 L1332.5,873.3 l -26.1,-23.9 Z" fill="#2c4661"/><path d="M1439.7,840.7 L1472.3,873.3 L1439.7,905.9 l -8,-6 L1457.1,873.3 l -26.1,-23.9 Z" fill="#2c4661"/><path d="M1592.4,840.7 L1624.9,873.3 L1592.4,905.9 l -8,-6 L1609.7,873.3 l -26.1,-23.9 Z" fill="#2c4661"/><rect x="1734" y="829.9" width="10" height="86.9" fill="#2c4661"/><rect x="1756" y="829.9" width="10" height="86.9" fill="#2c4661"/><line x1="560" y1="977.8" x2="1840" y2="977.8" stroke="#2c4661" stroke-width="4" opacity="0.35"/><path d="M600,1049.6 L632.6,1082.2 L600,1114.8 l -8,-6 L617.4,1082.2 l -26.1,-23.9 Z" fill="#2c4661"/><path d="M741.6,1049.6 L774.2,1082.2 L741.6,1114.8 l -8,-6 L759,1082.2 l -26.1,-23.9 Z" fill="#2c4661"/><path d="M883.2,1049.6 L915.8,1082.2 L883.2,1114.8 l -8,-6 L900.6,1082.2 l -26.1,-23.9 Z" fill="#2c4661"/><rect x="1017.9" y="1038.8" width="10" height="86.9" fill="#2c4661"/><rect x="1039.9" y="1038.8" width="10" height="86.9" fill="#2c4661"/><path d="M1141.5,1049.6 L1174.1,1082.2 L1141.5,1114.8 l -8,-6 L1158.9,1082.2 l -26.1,-23.9 Z" fill="#2c4661"/><path d="M1278.1,1049.6 L1310.7,1082.2 L1278.1,1114.8 l -8,-6 L1295.5,1082.2 l -26.1,-23.9 Z" fill="#2c4661"/><path d="M1417.7,1049.6 L1450.3,1082.2 L1417.7,1114.8 l -8,-6 L1435.1,1082.2 l -26.1,-23.9 Z" fill="#2c4661"/><path d="M1565.4,1027.9 l 17.4,23.9 l -8.7,0 L1567.5,1136.5 l -8,0 Z" fill="#2c4661"/><path d="M1713,1027.9 l 17.4,23.9 l -8.7,0 L1715.2,1136.5 l -8,0 Z" fill="#2c4661"/><line x1="560" y1="1186.7" x2="1840" y2="1186.7" stroke="#2c4661" stroke-width="4" opacity="0.35"/><path d="M600,1236.8 l 17.4,23.9 l -8.7,0 L602.2,1345.4 l -8,0 Z" fill="#2c4661"/><path d="M750.6,1258.5 L783.2,1291.1 L750.6,1323.7 l -8,-6 L768,1291.1 l -26.1,-23.9 Z" fill="#2c4661"/><path d="M890.2,1236.8 l 17.4,23.9 l -8.7,0 L892.4,1345.4 l -8,0 Z" fill="#2c4661"/><rect x="1021.9" y="1247.7" width="10" height="86.9" fill="#2c4661"/><rect x="1043.9" y="1247.7" width="10" height="86.9" fill="#2c4661"/><path d="M1151.5,1291.1 l 23.9,-15.2 l 0,10.9 l 54.3,0 l 0,8 L1173.2,1297.1 Z" fill="#2c4661"/><rect x="1290.1" y="1247.7" width="10" height="86.9" fill="#2c4661"/><rect x="1312.1" y="1247.7" width="10" height="86.9" fill="#2c4661"/><path d="M1416.7,1291.1 l 23.9,-15.2 l 0,10.9 l 54.3,0 l 0,8 L1438.5,1297.1 Z" fill="#2c4661"/><path d="M1560.4,1236.8 l 17.4,23.9 l -8.7,0 L1562.5,1345.4 l -8,0 Z" fill="#2c4661"/><path d="M1706,1236.8 l 17.4,23.9 l -8.7,0 L1708.2,1345.4 l -8,0 Z" fill="#2c4661"/><line x1="560" y1="1395.6" x2="1840" y2="1395.6" stroke="#2c4661" stroke-width="4" opacity="0.35"/><rect x="600" y="1456.6" width="10" height="86.9" fill="#2c4661"/><rect x="622" y="1456.6" width="10" height="86.9" fill="#2c4661"/><path d="M729.6,1445.7 l 17.4,23.9 l -8.7,0 L731.8,1554.3 l -8,0 Z" fill="#2c4661"/><path d="M877.2,1445.7 l 17.4,23.9 l -8.7,0 L879.4,1554.3 l -8,0 Z" fill="#2c4661"/><path d="M1024.9,1500 l 23.9,-15.2 l 0,10.9 l 54.3,0 l 0,8 L1046.6,1506 Z" fill="#2c4661"/><path d="M1147.5,1467.4 L1180.1,1500 L1147.5,1532.6 l -8,-6 L1164.9,1500 l -26.1,-23.9 Z" fill="#2c4661"/><path d="M1296.1,1467.4 L1328.7,1500 L1296.1,1532.6 l -8,-6 L1313.5,1500 l -26.1,-23.9 Z" fill="#2c4661"/><path d="M1422.7,1500 l 23.9,-15.2 l 0,10.9 l 54.3,0 l 0,8 L1444.5,1506 Z" fill="#2c4661"/><rect x="1552.4" y="1456.6" width="10" height="86.9" fill="#2c4661"/><rect x="1574.4" y="1456.6" width="10" height="86.9" fill="#2c4661"/><rect x="1705" y="1456.6" width="10" height="86.9" fill="#2c4661"/><rect x="1727" y="1456.6" width="10" height="86.9" fill="#2c4661"/><line x1="560" y1="1604.4" x2="1840" y2="1604.4" stroke="#2c4661" stroke-width="4" opacity="0.35"/><path d="M600,1708.9 l 23.9,-15.2 l 0,10.9 l 54.3,0 l 0,8 L621.7,1714.9 Z" fill="#2c4661"/><rect x="723.6" y="1665.4" width="10" height="86.9" fill="#2c4661"/><rect x="745.6" y="1665.4" width="10" height="86.9" fill="#2c4661"/><path d="M858.2,1654.6 l 17.4,23.9 l -8.7,0 L860.4,1763.2 l -8,0 Z" fill="#2c4661"/><rect x="1003.9" y="1665.4" width="10" height="86.9" fill="#2c4661"/><rect x="1025.9" y="1665.4" width="10" height="86.9" fill="#2c4661"/><path d="M1129.5,1708.9 l 23.9,-15.2 l 0,10.9 l 54.3,0 l 0,8 L1151.2,1714.9 Z" fill="#2c4661"/><path d="M1273.1,1676.3 L1305.7,1708.9 L1273.1,1741.5 l -8,-6 L1290.5,1708.9 l -26.1,-23.9 Z" fill="#2c4661"/><rect x="1413.7" y="1665.4" width="10" height="86.9" fill="#2c4661"/><rect x="1435.7" y="1665.4" width="10" height="86.9" fill="#2c4661"/><rect x="1559.4" y="1665.4" width="10" height="86.9" fill="#2c4661"/><rect x="1581.4" y="1665.4" width="10" height="86.9" fill="#2c4661"/><path d="M1712,1676.3 L1744.6,1708.9 L1712,1741.5 l -8,-6 L1729.4,1708.9 l -26.1,-23.9 Z" fill="#2c4661"/><line x1="560" y1="1813.3" x2="1840" y2="1813.3" stroke="#2c4661" stroke-width="4" opacity="0.35"/><path d="M600,1863.5 l 17.4,23.9 l -8.7,0 L602.2,1972.1 l -8,0 Z" fill="#2c4661"/><path d="M739.6,1917.8 l 23.9,-15.2 l 0,10.9 l 54.3,0 l 0,8 L761.3,1923.8 Z" fill="#2c4661"/><path d="M883.2,1917.8 l 23.9,-15.2 l 0,10.9 l 54.3,0 l 0,8 L905,1923.8 Z" fill="#2c4661"/><rect x="1005.9" y="1874.3" width="10" height="86.9" fill="#2c4661"/><rect x="1027.9" y="1874.3" width="10" height="86.9" fill="#2c4661"/><path d="M1137.5,1863.5 l 17.4,23.9 l -8.7,0 L1139.7,1972.1 l -8,0 Z" fill="#2c4661"/><rect x="1268.1" y="1874.3" width="10" height="86.9" fill="#2c4661"/><rect x="1290.1" y="1874.3" width="10" height="86.9" fill="#2c4661"/><path d="M1411.7,1885.2 L1444.3,1917.8 L1411.7,1950.4 l -8,-6 L1429.1,1917.8 l -26.1,-23.9 Z" fill="#2c4661"/><path d="M1549.4,1885.2 L1581.9,1917.8 L1549.4,1950.4 l -8,-6 L1566.7,1917.8 l -26.1,-23.9 Z" fill="#2c4661"/><path d="M1699,1863.5 l 17.4,23.9 l -8.7,0 L1701.2,1972.1 l -8,0 Z" fill="#2c4661"/><line x1="560" y1="2022.2" x2="1840" y2="2022.2" stroke="#2c4661" stroke-width="4" opacity="0.35"/><path d="M600,2072.4 l 17.4,23.9 l -8.7,0 L602.2,2181 l -8,0 Z" fill="#2c4661"/><path d="M751.6,2072.4 l 17.4,23.9 l -8.7,0 L753.8,2181 l -8,0 Z" fill="#2c4661"/><path d="M880.2,2072.4 l 17.4,23.9 l -8.7,0 L882.4,2181 l -8,0 Z" fill="#2c4661"/><rect x="1020.9" y="2083.2" width="10" height="86.9" fill="#2c4661"/><rect x="1042.9" y="2083.2" width="10" height="86.9" fill="#2c4661"/><rect x="1150.5" y="2083.2" width="10" height="86.9" fill="#2c4661"/><rect x="1172.5" y="2083.2" width="10" height="86.9" fill="#2c4661"/><path d="M1281.1,2094.1 L1313.7,2126.7 L1281.1,2159.3 l -8,-6 L1298.5,2126.7 l -26.1,-23.9 Z" fill="#2c4661"/><path d="M1410.7,2072.4 l 17.4,23.9 l -8.7,0 L1412.9,2181 l -8,0 Z" fill="#2c4661"/><path d="M1561.4,2072.4 l 17.4,23.9 l -8.7,0 L1563.5,2181 l -8,0 Z" fill="#2c4661"/><path d="M1710,2126.7 l 23.9,-15.2 l 0,10.9 l 54.3,0 l 0,8 L1731.7,2132.7 Z" fill="#2c4661"/><line x1="560" y1="2231.1" x2="1840" y2="2231.1" stroke="#2c4661" stroke-width="4" opacity="0.35"/><path d="M600,2281.2 l 17.4,23.9 l -8.7,0 L602.2,2389.9 l -8,0 Z" fill="#2c4661"/><path d="M734.6,2303 L767.2,2335.6 L734.6,2368.1 l -8,-6 L752,2335.6 l -26.1,-23.9 Z" fill="#2c4661"/><path d="M873.2,2281.2 l 17.4,23.9 l -8.7,0 L875.4,2389.9 l -8,0 Z" fill="#2c4661"/><path d="M998.9,2281.2 l 17.4,23.9 l -8.7,0 L1001,2389.9 l -8,0 Z" fill="#2c4661"/><path d="M1143.5,2281.2 l 17.4,23.9 l -8.7,0 L1145.7,2389.9 l -8,0 Z" fill="#2c4661"/><path d="M1275.1,2303 L1307.7,2335.6 L1275.1,2368.1 l -8,-6 L1292.5,2335.6 l -26.1,-23.9 Z" fill="#2c4661"/><path d="M1413.7,2303 L1446.3,2335.6 L1413.7,2368.1 l -8,-6 L1431.1,2335.6 l -26.1,-23.9 Z" fill="#2c4661"/><rect x="1558.4" y="2292.1" width="10" height="86.9" fill="#2c4661"/><rect x="1580.4" y="2292.1" width="10" height="86.9" fill="#2c4661"/><path d="M1710,2303 L1742.6,2335.6 L1710,2368.1 l -8,-6 L1727.4,2335.6 l -26.1,-23.9 Z" fill="#2c4661"/></g><rect x="100" y="100" width="2200" height="2800" fill="none" stroke="#2c4661" stroke-width="9"/><rect x="142" y="142" width="2116" height="2716" fill="none" stroke="#2c4661" stroke-width="3" opacity="0.65"/></svg>