<svg xmlns="http://www.w3.org/2000/svg" width="2400" height="3000" viewBox="0 0 2400 3000"><filter id="a93-warp" x="-4%" y="-4%" width="108%" height="108%"><feTurbulence type="fractalNoise" baseFrequency="0.0105" numOctaves="2" seed="8011" result="w"/><feDisplacementMap in="SourceGraphic" in2="w" scale="7" xChannelSelector="R" yChannelSelector="G"/></filter><filter id="a93-grain" x="0%" y="0%" width="100%" height="100%"><feTurbulence type="fractalNoise" baseFrequency="0.6" numOctaves="2" seed="8018"/><feColorMatrix type="matrix" values="0.33 0.33 0.33 0 0.62  0.33 0.33 0.33 0 0.62  0.33 0.33 0.33 0 0.62  0 0 0 0 1"/></filter><filter id="a93-mottle" x="0%" y="0%" width="100%" height="100%"><feTurbulence type="fractalNoise" baseFrequency="0.0045" numOctaves="3" seed="8024"/><feColorMatrix type="matrix" values="0.2 0.2 0.2 0 0.78  0.2 0.2 0.2 0 0.78  0.2 0.2 0.2 0 0.78  0 0 0 0 1"/></filter><filter id="a93-fade" x="0%" y="0%" width="100%" height="100%"><feTurbulence type="fractalNoise" baseFrequency="0.006" numOctaves="2" seed="8040"/><feColorMatrix type="matrix" values="0.3 0.3 0.3 0 -0.08  0.3 0.3 0.3 0 -0.08  0.3 0.3 0.3 0 -0.1  0 0 0 0 1"/></filter><filter id="a93-blur9"><feGaussianBlur stdDeviation="9"/></filter><radialGradient id="a93-vig" cx="50%" cy="44%" r="78%"><stop offset="52%" stop-color="#241a10" stop-opacity="0"/><stop offset="100%" stop-color="#241a10" stop-opacity="0.17"/></radialGradient><radialGradient id="a93-warm" cx="41%" cy="30%" r="85%"><stop offset="0%" stop-color="#e8c890" stop-opacity="0.14"/><stop offset="70%" stop-color="#e8c890" stop-opacity="0"/></radialGradient><rect width="2400" height="3000" fill="#e0d5bd"/><rect width="2400" height="3000" fill="url(#a93-warm)"/><g filter="url(#a93-warp)"><path d="M1147.6,1569 A130,130 0 1 1 1214.1,1579.2" fill="none" stroke="#3a2e1e" stroke-width="40.6" stroke-linecap="round"/><line x1="1129.6" y1="1559.3" x2="1077.2" y2="1640.5" stroke="#3a2e1e" stroke-width="40.6" stroke-linecap="round"/><path d="M1211.5,1223.6 A226.7,226.7 0 1 1 1096.8,1248.2" fill="none" stroke="#3a2e1e" stroke-width="40.6" stroke-linecap="round"/><line x1="1066.5" y1="1266.8" x2="1009.5" y2="1188.7" stroke="#3a2e1e" stroke-width="40.6" stroke-linecap="round"/><path d="M1055.5,1739.2 A323.3,323.3 0 1 1 1219.4,1772.7" fill="none" stroke="#3a2e1e" stroke-width="40.6" stroke-linecap="round"/><line x1="1012" y1="1713.1" x2="955.8" y2="1791.7" stroke="#3a2e1e" stroke-width="40.6" stroke-linecap="round"/><path d="M1269.3,1035.8 A420,420 0 1 1 1052.9,1056.6" fill="none" stroke="#3a2e1e" stroke-width="40.6" stroke-linecap="round"/><line x1="993.2" y1="1084.4" x2="945.6" y2="1000.3" stroke="#3a2e1e" stroke-width="40.6" stroke-linecap="round"/><path d="M1017.6,1933.4 A516.7,516.7 0 1 1 1283.8,1959.8" fill="none" stroke="#3a2e1e" stroke-width="40.6" stroke-linecap="round"/><line x1="944.3" y1="1898.9" x2="896.4" y2="1982.9" stroke="#3a2e1e" stroke-width="40.6" stroke-linecap="round"/><path d="M1484.8,906.8 A613.3,613.3 0 1 1 1175.1,837.2" fill="none" stroke="#3a2e1e" stroke-width="40.6" stroke-linecap="round"/><line x1="1079.5" y1="848.6" x2="1060.5" y2="753.8" stroke="#3a2e1e" stroke-width="40.6" stroke-linecap="round"/><path d="M1111.7,2154.5 A710,710 0 1 1 1475.8,2104.2" fill="none" stroke="#3a2e1e" stroke-width="40.6" stroke-linecap="round"/><line x1="1002.6" y1="2132" x2="975.7" y2="2224.9" stroke="#3a2e1e" stroke-width="40.6" stroke-linecap="round"/><path d="M1383.7,664.5 A806.7,806.7 0 1 1 966.4,677.9" fill="none" stroke="#3a2e1e" stroke-width="40.6" stroke-linecap="round"/><line x1="848.5" y1="724" x2="806.4" y2="636.9" stroke="#3a2e1e" stroke-width="40.6" stroke-linecap="round"/><path d="M1184.1,2353.2 A903.3,903.3 0 1 1 1637.8,2240.1" fill="none" stroke="#3a2e1e" stroke-width="40.6" stroke-linecap="round"/><circle cx="1200" cy="1450" r="56" fill="#875732"/><path d="M324.7,287.3 L 395.3,287.3 L 395.3,216.7 L 339.8,216.7 L 339.8,260.4 L 368.4,260.4 L 368.4,238.6 M408.7,287.3 L 479.3,287.3 L 479.3,216.7 L 423.8,216.7 L 423.8,260.4 L 452.4,260.4 L 452.4,238.6 M492.7,287.3 L 563.3,287.3 L 563.3,216.7 L 507.8,216.7 L 507.8,260.4 L 536.4,260.4 L 536.4,238.6 M576.7,287.3 L 647.3,287.3 L 647.3,216.7 L 591.8,216.7 L 591.8,260.4 L 620.4,260.4 L 620.4,238.6 M660.7,287.3 L 731.3,287.3 L 731.3,216.7 L 675.8,216.7 L 675.8,260.4 L 704.4,260.4 L 704.4,238.6 M744.7,287.3 L 815.3,287.3 L 815.3,216.7 L 759.8,216.7 L 759.8,260.4 L 788.4,260.4 L 788.4,238.6 M828.7,287.3 L 899.3,287.3 L 899.3,216.7 L 843.8,216.7 L 843.8,260.4 L 872.4,260.4 L 872.4,238.6 M912.7,287.3 L 983.3,287.3 L 983.3,216.7 L 927.8,216.7 L 927.8,260.4 L 956.4,260.4 L 956.4,238.6 M996.7,287.3 L 1067.3,287.3 L 1067.3,216.7 L 1011.8,216.7 L 1011.8,260.4 L 1040.4,260.4 L 1040.4,238.6 M1080.7,287.3 L 1151.3,287.3 L 1151.3,216.7 L 1095.8,216.7 L 1095.8,260.4 L 1124.4,260.4 L 1124.4,238.6 M1164.7,287.3 L 1235.3,287.3 L 1235.3,216.7 L 1179.8,216.7 L 1179.8,260.4 L 1208.4,260.4 L 1208.4,238.6 M1248.7,287.3 L 1319.3,287.3 L 1319.3,216.7 L 1263.8,216.7 L 1263.8,260.4 L 1292.4,260.4 L 1292.4,238.6 M1332.7,287.3 L 1403.3,287.3 L 1403.3,216.7 L 1347.8,216.7 L 1347.8,260.4 L 1376.4,260.4 L 1376.4,238.6 M1416.7,287.3 L 1487.3,287.3 L 1487.3,216.7 L 1431.8,216.7 L 1431.8,260.4 L 1460.4,260.4 L 1460.4,238.6 M1500.7,287.3 L 1571.3,287.3 L 1571.3,216.7 L 1515.8,216.7 L 1515.8,260.4 L 1544.4,260.4 L 1544.4,238.6 M1584.7,287.3 L 1655.3,287.3 L 1655.3,216.7 L 1599.8,216.7 L 1599.8,260.4 L 1628.4,260.4 L 1628.4,238.6 M1668.7,287.3 L 1739.3,287.3 L 1739.3,216.7 L 1683.8,216.7 L 1683.8,260.4 L 1712.4,260.4 L 1712.4,238.6 M1752.7,287.3 L 1823.3,287.3 L 1823.3,216.7 L 1767.8,216.7 L 1767.8,260.4 L 1796.4,260.4 L 1796.4,238.6 M1836.7,287.3 L 1907.3,287.3 L 1907.3,216.7 L 1851.8,216.7 L 1851.8,260.4 L 1880.4,260.4 L 1880.4,238.6 M1920.7,287.3 L 1991.3,287.3 L 1991.3,216.7 L 1935.8,216.7 L 1935.8,260.4 L 1964.4,260.4 L 1964.4,238.6 M2004.7,287.3 L 2075.3,287.3 L 2075.3,216.7 L 2019.8,216.7 L 2019.8,260.4 L 2048.4,260.4 L 2048.4,238.6 " fill="none" stroke="#3a2e1e" stroke-width="10.9"/><path d="M324.7,2777.3 L 395.3,2777.3 L 395.3,2706.7 L 339.8,2706.7 L 339.8,2750.4 L 368.4,2750.4 L 368.4,2728.6 M408.7,2777.3 L 479.3,2777.3 L 479.3,2706.7 L 423.8,2706.7 L 423.8,2750.4 L 452.4,2750.4 L 452.4,2728.6 M492.7,2777.3 L 563.3,2777.3 L 563.3,2706.7 L 507.8,2706.7 L 507.8,2750.4 L 536.4,2750.4 L 536.4,2728.6 M576.7,2777.3 L 647.3,2777.3 L 647.3,2706.7 L 591.8,2706.7 L 591.8,2750.4 L 620.4,2750.4 L 620.4,2728.6 M660.7,2777.3 L 731.3,2777.3 L 731.3,2706.7 L 675.8,2706.7 L 675.8,2750.4 L 704.4,2750.4 L 704.4,2728.6 M744.7,2777.3 L 815.3,2777.3 L 815.3,2706.7 L 759.8,2706.7 L 759.8,2750.4 L 788.4,2750.4 L 788.4,2728.6 M828.7,2777.3 L 899.3,2777.3 L 899.3,2706.7 L 843.8,2706.7 L 843.8,2750.4 L 872.4,2750.4 L 872.4,2728.6 M912.7,2777.3 L 983.3,2777.3 L 983.3,2706.7 L 927.8,2706.7 L 927.8,2750.4 L 956.4,2750.4 L 956.4,2728.6 M996.7,2777.3 L 1067.3,2777.3 L 1067.3,2706.7 L 1011.8,2706.7 L 1011.8,2750.4 L 1040.4,2750.4 L 1040.4,2728.6 M1080.7,2777.3 L 1151.3,2777.3 L 1151.3,2706.7 L 1095.8,2706.7 L 1095.8,2750.4 L 1124.4,2750.4 L 1124.4,2728.6 M1164.7,2777.3 L 1235.3,2777.3 L 1235.3,2706.7 L 1179.8,2706.7 L 1179.8,2750.4 L 1208.4,2750.4 L 1208.4,2728.6 M1248.7,2777.3 L 1319.3,2777.3 L 1319.3,2706.7 L 1263.8,2706.7 L 1263.8,2750.4 L 1292.4,2750.4 L 1292.4,2728.6 M1332.7,2777.3 L 1403.3,2777.3 L 1403.3,2706.7 L 1347.8,2706.7 L 1347.8,2750.4 L 1376.4,2750.4 L 1376.4,2728.6 M1416.7,2777.3 L 1487.3,2777.3 L 1487.3,2706.7 L 1431.8,2706.7 L 1431.8,2750.4 L 1460.4,2750.4 L 1460.4,2728.6 M1500.7,2777.3 L 1571.3,2777.3 L 1571.3,2706.7 L 1515.8,2706.7 L 1515.8,2750.4 L 1544.4,2750.4 L 1544.4,2728.6 M1584.7,2777.3 L 1655.3,2777.3 L 1655.3,2706.7 L 1599.8,2706.7 L 1599.8,2750.4 L 1628.4,2750.4 L 1628.4,2728.6 M1668.7,2777.3 L 1739.3,2777.3 L 1739.3,2706.7 L 1683.8,2706.7 L 1683.8,2750.4 L 1712.4,2750.4 L 1712.4,2728.6 M1752.7,2777.3 L 1823.3,2777.3 L 1823.3,2706.7 L 1767.8,2706.7 L 1767.8,2750.4 L 1796.4,2750.4 L 1796.4,2728.6 M1836.7,2777.3 L 1907.3,2777.3 L 1907.3,2706.7 L 1851.8,2706.7 L 1851.8,2750.4 L 1880.4,2750.4 L 1880.4,2728.6 M1920.7,2777.3 L 1991.3,2777.3 L 1991.3,2706.7 L 1935.8,2706.7 L 1935.8,2750.4 L 1964.4,2750.4 L 1964.4,2728.6 M2004.7,2777.3 L 2075.3,2777.3 L 2075.3,2706.7 L 2019.8,2706.7 L 2019.8,2750.4 L 2048.4,2750.4 L 2048.4,2728.6 " fill="none" stroke="#3a2e1e" stroke-width="10.9"/><rect x="130" y="130" width="2140" height="2740" fill="none" stroke="#3a2e1e" stroke-width="5"/><rect x="152" y="152" width="2096" height="2696" fill="none" stroke="#3a2e1e" stroke-width="2.5" opacity="0.8"/></g><rect width="2400" height="3000" filter="url(#a93-mottle)" style="mix-blend-mode:multiply" opacity="0.5"/><rect width="2400" height="3000" filter="url(#a93-fade)" style="mix-blend-mode:screen" opacity="0.55"/><rect width="2400" height="3000" filter="url(#a93-grain)" style="mix-blend-mode:multiply" opacity="0.32"/><ellipse cx="1306.4" cy="1141.3" rx="302.6" ry="231.8" fill="#6b4a22" opacity="0.062" filter="url(#a93-blur9)"/><ellipse cx="883.5" cy="2185.7" rx="328.5" ry="338.9" fill="#6b4a22" opacity="0.052" filter="url(#a93-blur9)"/><ellipse cx="446.8" cy="307.5" rx="129.3" ry="121.1" fill="#6b4a22" opacity="0.064" filter="url(#a93-blur9)"/><g opacity="0.3"><rect y="3" width="2400" height="2" fill="#e0d5bd"/><rect y="11" width="2400" height="2" fill="#e0d5bd"/><rect y="19" width="2400" height="2" fill="#e0d5bd"/><rect y="27" width="2400" height="2" fill="#e0d5bd"/><rect y="35" width="2400" height="2" fill="#e0d5bd"/><rect y="43" width="2400" height="2" fill="#e0d5bd"/><rect y="51" width="2400" height="2" fill="#e0d5bd"/><rect y="59" width="2400" height="2" fill="#e0d5bd"/><rect y="67" width="2400" height="2" fill="#e0d5bd"/><rect y="75" width="2400" height="2" fill="#e0d5bd"/><rect y="83" width="2400" height="2" fill="#e0d5bd"/><rect y="91" width="2400" height="2" fill="#e0d5bd"/><rect y="99" width="2400" height="2" fill="#e0d5bd"/><rect y="107" width="2400" height="2" fill="#e0d5bd"/><rect y="115" width="2400" height="2" fill="#e0d5bd"/><rect y="123" width="2400" height="2" fill="#e0d5bd"/><rect y="131" width="2400" height="2" fill="#e0d5bd"/><rect y="139" width="2400" height="2" fill="#e0d5bd"/><rect y="147" width="2400" height="2" fill="#e0d5bd"/><rect y="155" width="2400" height="2" fill="#e0d5bd"/><rect y="163" width="2400" height="2" fill="#e0d5bd"/><rect y="171" width="2400" height="2" fill="#e0d5bd"/><rect y="179" width="2400" height="2" fill="#e0d5bd"/><rect y="187" width="2400" height="2" fill="#e0d5bd"/><rect y="195" width="2400" height="2" fill="#e0d5bd"/><rect y="203" width="2400" height="2" fill="#e0d5bd"/><rect y="211" width="2400" height="2" fill="#e0d5bd"/><rect y="219" width="2400" height="2" fill="#e0d5bd"/><rect y="227" width="2400" height="2" fill="#e0d5bd"/><rect y="235" width="2400" height="2" fill="#e0d5bd"/><rect y="243" width="2400" height="2" fill="#e0d5bd"/><rect y="251" width="2400" height="2" fill="#e0d5bd"/><rect y="259" width="2400" height="2" fill="#e0d5bd"/><rect y="267" width="2400" height="2" fill="#e0d5bd"/><rect y="275" width="2400" height="2" fill="#e0d5bd"/><rect y="283" width="2400" height="2" fill="#e0d5bd"/><rect y="291" width="2400" height="2" fill="#e0d5bd"/><rect y="299" width="2400" height="2" fill="#e0d5bd"/><rect y="307" width="2400" height="2" fill="#e0d5bd"/><rect y="315" width="2400" height="2" fill="#e0d5bd"/><rect y="323" width="2400" height="2" fill="#e0d5bd"/><rect y="331" width="2400" height="2" fill="#e0d5bd"/><rect y="339" width="2400" height="2" fill="#e0d5bd"/><rect y="347" width="2400" height="2" fill="#e0d5bd"/><rect y="355" width="2400" height="2" fill="#e0d5bd"/><rect y="363" width="2400" height="2" fill="#e0d5bd"/><rect y="371" width="2400" height="2" fill="#e0d5bd"/><rect y="379" width="2400" height="2" fill="#e0d5bd"/><rect y="387" width="2400" height="2" fill="#e0d5bd"/><rect y="395" width="2400" height="2" fill="#e0d5bd"/><rect y="403" width="2400" height="2" fill="#e0d5bd"/><rect y="411" width="2400" height="2" fill="#e0d5bd"/><rect y="419" width="2400" height="2" fill="#e0d5bd"/><rect y="427" width="2400" height="2" fill="#e0d5bd"/><rect y="435" width="2400" height="2" fill="#e0d5bd"/><rect y="443" width="2400" height="2" fill="#e0d5bd"/><rect y="451" width="2400" height="2" fill="#e0d5bd"/><rect y="459" width="2400" height="2" fill="#e0d5bd"/><rect y="467" width="2400" height="2" fill="#e0d5bd"/><rect y="475" width="2400" height="2" fill="#e0d5bd"/><rect y="483" width="2400" height="2" fill="#e0d5bd"/><rect y="491" width="2400" height="2" fill="#e0d5bd"/><rect y="499" width="2400" height="2" fill="#e0d5bd"/><rect y="507" width="2400" height="2" fill="#e0d5bd"/><rect y="515" width="2400" height="2" fill="#e0d5bd"/><rect y="523" width="2400" height="2" fill="#e0d5bd"/><rect y="531" width="2400" height="2" fill="#e0d5bd"/><rect y="539" width="2400" height="2" fill="#e0d5bd"/><rect y="547" width="2400" height="2" fill="#e0d5bd"/><rect y="555" width="2400" height="2" fill="#e0d5bd"/><rect y="563" width="2400" height="2" fill="#e0d5bd"/><rect y="571" width="2400" height="2" fill="#e0d5bd"/><rect y="579" width="2400" height="2" fill="#e0d5bd"/><rect y="587" width="2400" height="2" fill="#e0d5bd"/><rect y="595" width="2400" height="2" fill="#e0d5bd"/><rect y="603" width="2400" height="2" fill="#e0d5bd"/><rect y="611" width="2400" height="2" fill="#e0d5bd"/><rect y="619" width="2400" height="2" fill="#e0d5bd"/><rect y="627" width="2400" height="2" fill="#e0d5bd"/><rect y="635" width="2400" height="2" fill="#e0d5bd"/><rect y="643" width="2400" height="2" fill="#e0d5bd"/><rect y="651" width="2400" height="2" fill="#e0d5bd"/><rect y="659" width="2400" height="2" fill="#e0d5bd"/><rect y="667" width="2400" height="2" fill="#e0d5bd"/><rect y="675" width="2400" height="2" fill="#e0d5bd"/><rect y="683" width="2400" height="2" fill="#e0d5bd"/><rect y="691" width="2400" height="2" fill="#e0d5bd"/><rect y="699" width="2400" height="2" fill="#e0d5bd"/><rect y="707" width="2400" height="2" fill="#e0d5bd"/><rect y="715" width="2400" height="2" fill="#e0d5bd"/><rect y="723" width="2400" height="2" fill="#e0d5bd"/><rect y="731" width="2400" height="2" fill="#e0d5bd"/><rect y="739" width="2400" height="2" fill="#e0d5bd"/><rect y="747" width="2400" height="2" fill="#e0d5bd"/><rect y="755" width="2400" height="2" fill="#e0d5bd"/><rect y="763" width="2400" height="2" fill="#e0d5bd"/><rect y="771" width="2400" height="2" fill="#e0d5bd"/><rect y="779" width="2400" height="2" fill="#e0d5bd"/><rect y="787" width="2400" height="2" fill="#e0d5bd"/><rect y="795" width="2400" height="2" fill="#e0d5bd"/><rect y="803" width="2400" height="2" fill="#e0d5bd"/><rect y="811" width="2400" height="2" fill="#e0d5bd"/><rect y="819" width="2400" height="2" fill="#e0d5bd"/><rect y="827" width="2400" height="2" fill="#e0d5bd"/><rect y="835" width="2400" height="2" fill="#e0d5bd"/><rect y="843" width="2400" height="2" fill="#e0d5bd"/><rect y="851" width="2400" height="2" fill="#e0d5bd"/><rect y="859" width="2400" height="2" fill="#e0d5bd"/><rect y="867" width="2400" height="2" fill="#e0d5bd"/><rect y="875" width="2400" height="2" fill="#e0d5bd"/><rect y="883" width="2400" height="2" fill="#e0d5bd"/><rect y="891" width="2400" height="2" fill="#e0d5bd"/><rect y="899" width="2400" height="2" fill="#e0d5bd"/><rect y="907" width="2400" height="2" fill="#e0d5bd"/><rect y="915" width="2400" height="2" fill="#e0d5bd"/><rect y="923" width="2400" height="2" fill="#e0d5bd"/><rect y="931" width="2400" height="2" fill="#e0d5bd"/><rect y="939" width="2400" height="2" fill="#e0d5bd"/><rect y="947" width="2400" height="2" fill="#e0d5bd"/><rect y="955" width="2400" height="2" fill="#e0d5bd"/><rect y="963" width="2400" height="2" fill="#e0d5bd"/><rect y="971" width="2400" height="2" fill="#e0d5bd"/><rect y="979" width="2400" height="2" fill="#e0d5bd"/><rect y="987" width="2400" height="2" fill="#e0d5bd"/><rect y="995" width="2400" height="2" fill="#e0d5bd"/><rect y="1003" width="2400" height="2" fill="#e0d5bd"/><rect y="1011" width="2400" height="2" fill="#e0d5bd"/><rect y="1019" width="2400" height="2" fill="#e0d5bd"/><rect y="1027" width="2400" height="2" fill="#e0d5bd"/><rect y="1035" width="2400" height="2" fill="#e0d5bd"/><rect y="1043" width="2400" height="2" fill="#e0d5bd"/><rect y="1051" width="2400" height="2" fill="#e0d5bd"/><rect y="1059" width="2400" height="2" fill="#e0d5bd"/><rect y="1067" width="2400" height="2" fill="#e0d5bd"/><rect y="1075" width="2400" height="2" fill="#e0d5bd"/><rect y="1083" width="2400" height="2" fill="#e0d5bd"/><rect y="1091" width="2400" height="2" fill="#e0d5bd"/><rect y="1099" width="2400" height="2" fill="#e0d5bd"/><rect y="1107" width="2400" height="2" fill="#e0d5bd"/><rect y="1115" width="2400" height="2" fill="#e0d5bd"/><rect y="1123" width="2400" height="2" fill="#e0d5bd"/><rect y="1131" width="2400" height="2" fill="#e0d5bd"/><rect y="1139" width="2400" height="2" fill="#e0d5bd"/><rect y="1147" width="2400" height="2" fill="#e0d5bd"/><rect y="1155" width="2400" height="2" fill="#e0d5bd"/><rect y="1163" width="2400" height="2" fill="#e0d5bd"/><rect y="1171" width="2400" height="2" fill="#e0d5bd"/><rect y="1179" width="2400" height="2" fill="#e0d5bd"/><rect y="1187" width="2400" height="2" fill="#e0d5bd"/><rect y="1195" width="2400" height="2" fill="#e0d5bd"/><rect y="1203" width="2400" height="2" fill="#e0d5bd"/><rect y="1211" width="2400" height="2" fill="#e0d5bd"/><rect y="1219" width="2400" height="2" fill="#e0d5bd"/><rect y="1227" width="2400" height="2" fill="#e0d5bd"/><rect y="1235" width="2400" height="2" fill="#e0d5bd"/><rect y="1243" width="2400" height="2" fill="#e0d5bd"/><rect y="1251" width="2400" height="2" fill="#e0d5bd"/><rect y="1259" width="2400" height="2" fill="#e0d5bd"/><rect y="1267" width="2400" height="2" fill="#e0d5bd"/><rect y="1275" width="2400" height="2" fill="#e0d5bd"/><rect y="1283" width="2400" height="2" fill="#e0d5bd"/><rect y="1291" width="2400" height="2" fill="#e0d5bd"/><rect y="1299" width="2400" height="2" fill="#e0d5bd"/><rect y="1307" width="2400" height="2" fill="#e0d5bd"/><rect y="1315" width="2400" height="2" fill="#e0d5bd"/><rect y="1323" width="2400" height="2" fill="#e0d5bd"/><rect y="1331" width="2400" height="2" fill="#e0d5bd"/><rect y="1339" width="2400" height="2" fill="#e0d5bd"/><rect y="1347" width="2400" height="2" fill="#e0d5bd"/><rect y="1355" width="2400" height="2" fill="#e0d5bd"/><rect y="1363" width="2400" height="2" fill="#e0d5bd"/><rect y="1371" width="2400" height="2" fill="#e0d5bd"/><rect y="1379" width="2400" height="2" fill="#e0d5bd"/><rect y="1387" width="2400" height="2" fill="#e0d5bd"/><rect y="1395" width="2400" height="2" fill="#e0d5bd"/><rect y="1403" width="2400" height="2" fill="#e0d5bd"/><rect y="1411" width="2400" height="2" fill="#e0d5bd"/><rect y="1419" width="2400" height="2" fill="#e0d5bd"/><rect y="1427" width="2400" height="2" fill="#e0d5bd"/><rect y="1435" width="2400" height="2" fill="#e0d5bd"/><rect y="1443" width="2400" height="2" fill="#e0d5bd"/><rect y="1451" width="2400" height="2" fill="#e0d5bd"/><rect y="1459" width="2400" height="2" fill="#e0d5bd"/><rect y="1467" width="2400" height="2" fill="#e0d5bd"/><rect y="1475" width="2400" height="2" fill="#e0d5bd"/><rect y="1483" width="2400" height="2" fill="#e0d5bd"/><rect y="1491" width="2400" height="2" fill="#e0d5bd"/><rect y="1499" width="2400" height="2" fill="#e0d5bd"/><rect y="1507" width="2400" height="2" fill="#e0d5bd"/><rect y="1515" width="2400" height="2" fill="#e0d5bd"/><rect y="1523" width="2400" height="2" fill="#e0d5bd"/><rect y="1531" width="2400" height="2" fill="#e0d5bd"/><rect y="1539" width="2400" height="2" fill="#e0d5bd"/><rect y="1547" width="2400" height="2" fill="#e0d5bd"/><rect y="1555" width="2400" height="2" fill="#e0d5bd"/><rect y="1563" width="2400" height="2" fill="#e0d5bd"/><rect y="1571" width="2400" height="2" fill="#e0d5bd"/><rect y="1579" width="2400" height="2" fill="#e0d5bd"/><rect y="1587" width="2400" height="2" fill="#e0d5bd"/><rect y="1595" width="2400" height="2" fill="#e0d5bd"/><rect y="1603" width="2400" height="2" fill="#e0d5bd"/><rect y="1611" width="2400" height="2" fill="#e0d5bd"/><rect y="1619" width="2400" height="2" fill="#e0d5bd"/><rect y="1627" width="2400" height="2" fill="#e0d5bd"/><rect y="1635" width="2400" height="2" fill="#e0d5bd"/><rect y="1643" width="2400" height="2" fill="#e0d5bd"/><rect y="1651" width="2400" height="2" fill="#e0d5bd"/><rect y="1659" width="2400" height="2" fill="#e0d5bd"/><rect y="1667" width="2400" height="2" fill="#e0d5bd"/><rect y="1675" width="2400" height="2" fill="#e0d5bd"/><rect y="1683" width="2400" height="2" fill="#e0d5bd"/><rect y="1691" width="2400" height="2" fill="#e0d5bd"/><rect y="1699" width="2400" height="2" fill="#e0d5bd"/><rect y="1707" width="2400" height="2" fill="#e0d5bd"/><rect y="1715" width="2400" height="2" fill="#e0d5bd"/><rect y="1723" width="2400" height="2" fill="#e0d5bd"/><rect y="1731" width="2400" height="2" fill="#e0d5bd"/><rect y="1739" width="2400" height="2" fill="#e0d5bd"/><rect y="1747" width="2400" height="2" fill="#e0d5bd"/><rect y="1755" width="2400" height="2" fill="#e0d5bd"/><rect y="1763" width="2400" height="2" fill="#e0d5bd"/><rect y="1771" width="2400" height="2" fill="#e0d5bd"/><rect y="1779" width="2400" height="2" fill="#e0d5bd"/><rect y="1787" width="2400" height="2" fill="#e0d5bd"/><rect y="1795" width="2400" height="2" fill="#e0d5bd"/><rect y="1803" width="2400" height="2" fill="#e0d5bd"/><rect y="1811" width="2400" height="2" fill="#e0d5bd"/><rect y="1819" width="2400" height="2" fill="#e0d5bd"/><rect y="1827" width="2400" height="2" fill="#e0d5bd"/><rect y="1835" width="2400" height="2" fill="#e0d5bd"/><rect y="1843" width="2400" height="2" fill="#e0d5bd"/><rect y="1851" width="2400" height="2" fill="#e0d5bd"/><rect y="1859" width="2400" height="2" fill="#e0d5bd"/><rect y="1867" width="2400" height="2" fill="#e0d5bd"/><rect y="1875" width="2400" height="2" fill="#e0d5bd"/><rect y="1883" width="2400" height="2" fill="#e0d5bd"/><rect y="1891" width="2400" height="2" fill="#e0d5bd"/><rect y="1899" width="2400" height="2" fill="#e0d5bd"/><rect y="1907" width="2400" height="2" fill="#e0d5bd"/><rect y="1915" width="2400" height="2" fill="#e0d5bd"/><rect y="1923" width="2400" height="2" fill="#e0d5bd"/><rect y="1931" width="2400" height="2" fill="#e0d5bd"/><rect y="1939" width="2400" height="2" fill="#e0d5bd"/><rect y="1947" width="2400" height="2" fill="#e0d5bd"/><rect y="1955" width="2400" height="2" fill="#e0d5bd"/><rect y="1963" width="2400" height="2" fill="#e0d5bd"/><rect y="1971" width="2400" height="2" fill="#e0d5bd"/><rect y="1979" width="2400" height="2" fill="#e0d5bd"/><rect y="1987" width="2400" height="2" fill="#e0d5bd"/><rect y="1995" width="2400" height="2" fill="#e0d5bd"/><rect y="2003" width="2400" height="2" fill="#e0d5bd"/><rect y="2011" width="2400" height="2" fill="#e0d5bd"/><rect y="2019" width="2400" height="2" fill="#e0d5bd"/><rect y="2027" width="2400" height="2" fill="#e0d5bd"/><rect y="2035" width="2400" height="2" fill="#e0d5bd"/><rect y="2043" width="2400" height="2" fill="#e0d5bd"/><rect y="2051" width="2400" height="2" fill="#e0d5bd"/><rect y="2059" width="2400" height="2" fill="#e0d5bd"/><rect y="2067" width="2400" height="2" fill="#e0d5bd"/><rect y="2075" width="2400" height="2" fill="#e0d5bd"/><rect y="2083" width="2400" height="2" fill="#e0d5bd"/><rect y="2091" width="2400" height="2" fill="#e0d5bd"/><rect y="2099" width="2400" height="2" fill="#e0d5bd"/><rect y="2107" width="2400" height="2" fill="#e0d5bd"/><rect y="2115" width="2400" height="2" fill="#e0d5bd"/><rect y="2123" width="2400" height="2" fill="#e0d5bd"/><rect y="2131" width="2400" height="2" fill="#e0d5bd"/><rect y="2139" width="2400" height="2" fill="#e0d5bd"/><rect y="2147" width="2400" height="2" fill="#e0d5bd"/><rect y="2155" width="2400" height="2" fill="#e0d5bd"/><rect y="2163" width="2400" height="2" fill="#e0d5bd"/><rect y="2171" width="2400" height="2" fill="#e0d5bd"/><rect y="2179" width="2400" height="2" fill="#e0d5bd"/><rect y="2187" width="2400" height="2" fill="#e0d5bd"/><rect y="2195" width="2400" height="2" fill="#e0d5bd"/><rect y="2203" width="2400" height="2" fill="#e0d5bd"/><rect y="2211" width="2400" height="2" fill="#e0d5bd"/><rect y="2219" width="2400" height="2" fill="#e0d5bd"/><rect y="2227" width="2400" height="2" fill="#e0d5bd"/><rect y="2235" width="2400" height="2" fill="#e0d5bd"/><rect y="2243" width="2400" height="2" fill="#e0d5bd"/><rect y="2251" width="2400" height="2" fill="#e0d5bd"/><rect y="2259" width="2400" height="2" fill="#e0d5bd"/><rect y="2267" width="2400" height="2" fill="#e0d5bd"/><rect y="2275" width="2400" height="2" fill="#e0d5bd"/><rect y="2283" width="2400" height="2" fill="#e0d5bd"/><rect y="2291" width="2400" height="2" fill="#e0d5bd"/><rect y="2299" width="2400" height="2" fill="#e0d5bd"/><rect y="2307" width="2400" height="2" fill="#e0d5bd"/><rect y="2315" width="2400" height="2" fill="#e0d5bd"/><rect y="2323" width="2400" height="2" fill="#e0d5bd"/><rect y="2331" width="2400" height="2" fill="#e0d5bd"/><rect y="2339" width="2400" height="2" fill="#e0d5bd"/><rect y="2347" width="2400" height="2" fill="#e0d5bd"/><rect y="2355" width="2400" height="2" fill="#e0d5bd"/><rect y="2363" width="2400" height="2" fill="#e0d5bd"/><rect y="2371" width="2400" height="2" fill="#e0d5bd"/><rect y="2379" width="2400" height="2" fill="#e0d5bd"/><rect y="2387" width="2400" height="2" fill="#e0d5bd"/><rect y="2395" width="2400" height="2" fill="#e0d5bd"/><rect y="2403" width="2400" height="2" fill="#e0d5bd"/><rect y="2411" width="2400" height="2" fill="#e0d5bd"/><rect y="2419" width="2400" height="2" fill="#e0d5bd"/><rect y="2427" width="2400" height="2" fill="#e0d5bd"/><rect y="2435" width="2400" height="2" fill="#e0d5bd"/><rect y="2443" width="2400" height="2" fill="#e0d5bd"/><rect y="2451" width="2400" height="2" fill="#e0d5bd"/><rect y="2459" width="2400" height="2" fill="#e0d5bd"/><rect y="2467" width="2400" height="2" fill="#e0d5bd"/><rect y="2475" width="2400" height="2" fill="#e0d5bd"/><rect y="2483" width="2400" height="2" fill="#e0d5bd"/><rect y="2491" width="2400" height="2" fill="#e0d5bd"/><rect y="2499" width="2400" height="2" fill="#e0d5bd"/><rect y="2507" width="2400" height="2" fill="#e0d5bd"/><rect y="2515" width="2400" height="2" fill="#e0d5bd"/><rect y="2523" width="2400" height="2" fill="#e0d5bd"/><rect y="2531" width="2400" height="2" fill="#e0d5bd"/><rect y="2539" width="2400" height="2" fill="#e0d5bd"/><rect y="2547" width="2400" height="2" fill="#e0d5bd"/><rect y="2555" width="2400" height="2" fill="#e0d5bd"/><rect y="2563" width="2400" height="2" fill="#e0d5bd"/><rect y="2571" width="2400" height="2" fill="#e0d5bd"/><rect y="2579" width="2400" height="2" fill="#e0d5bd"/><rect y="2587" width="2400" height="2" fill="#e0d5bd"/><rect y="2595" width="2400" height="2" fill="#e0d5bd"/><rect y="2603" width="2400" height="2" fill="#e0d5bd"/><rect y="2611" width="2400" height="2" fill="#e0d5bd"/><rect y="2619" width="2400" height="2" fill="#e0d5bd"/><rect y="2627" width="2400" height="2" fill="#e0d5bd"/><rect y="2635" width="2400" height="2" fill="#e0d5bd"/><rect y="2643" width="2400" height="2" fill="#e0d5bd"/><rect y="2651" width="2400" height="2" fill="#e0d5bd"/><rect y="2659" width="2400" height="2" fill="#e0d5bd"/><rect y="2667" width="2400" height="2" fill="#e0d5bd"/><rect y="2675" width="2400" height="2" fill="#e0d5bd"/><rect y="2683" width="2400" height="2" fill="#e0d5bd"/><rect y="2691" width="2400" height="2" fill="#e0d5bd"/><rect y="2699" width="2400" height="2" fill="#e0d5bd"/><rect y="2707" width="2400" height="2" fill="#e0d5bd"/><rect y="2715" width="2400" height="2" fill="#e0d5bd"/><rect y="2723" width="2400" height="2" fill="#e0d5bd"/><rect y="2731" width="2400" height="2" fill="#e0d5bd"/><rect y="2739" width="2400" height="2" fill="#e0d5bd"/><rect y="2747" width="2400" height="2" fill="#e0d5bd"/><rect y="2755" width="2400" height="2" fill="#e0d5bd"/><rect y="2763" width="2400" height="2" fill="#e0d5bd"/><rect y="2771" width="2400" height="2" fill="#e0d5bd"/><rect y="2779" width="2400" height="2" fill="#e0d5bd"/><rect y="2787" width="2400" height="2" fill="#e0d5bd"/><rect y="2795" width="2400" height="2" fill="#e0d5bd"/><rect y="2803" width="2400" height="2" fill="#e0d5bd"/><rect y="2811" width="2400" height="2" fill="#e0d5bd"/><rect y="2819" width="2400" height="2" fill="#e0d5bd"/><rect y="2827" width="2400" height="2" fill="#e0d5bd"/><rect y="2835" width="2400" height="2" fill="#e0d5bd"/><rect y="2843" width="2400" height="2" fill="#e0d5bd"/><rect y="2851" width="2400" height="2" fill="#e0d5bd"/><rect y="2859" width="2400" height="2" fill="#e0d5bd"/><rect y="2867" width="2400" height="2" fill="#e0d5bd"/><rect y="2875" width="2400" height="2" fill="#e0d5bd"/><rect y="2883" width="2400" height="2" fill="#e0d5bd"/><rect y="2891" width="2400" height="2" fill="#e0d5bd"/><rect y="2899" width="2400" height="2" fill="#e0d5bd"/><rect y="2907" width="2400" height="2" fill="#e0d5bd"/><rect y="2915" width="2400" height="2" fill="#e0d5bd"/><rect y="2923" width="2400" height="2" fill="#e0d5bd"/><rect y="2931" width="2400" height="2" fill="#e0d5bd"/><rect y="2939" width="2400" height="2" fill="#e0d5bd"/><rect y="2947" width="2400" height="2" fill="#e0d5bd"/><rect y="2955" width="2400" height="2" fill="#e0d5bd"/><rect y="2963" width="2400" height="2" fill="#e0d5bd"/><rect y="2971" width="2400" height="2" fill="#e0d5bd"/><rect y="2979" width="2400" height="2" fill="#e0d5bd"/><rect y="2987" width="2400" height="2" fill="#e0d5bd"/><rect y="2995" width="2400" height="2" fill="#e0d5bd"/></g><rect x="88" y="88" width="2224" height="2824" fill="none" stroke="#3a2c1a" stroke-width="4" opacity="0.2"/><rect x="94" y="94" width="2212" height="2812" fill="none" stroke="#fff6e0" stroke-width="2" opacity="0.25"/><circle cx="460.4" cy="1426.9" r="8.3" fill="#8a5a2e" opacity="0.105"/><circle cx="1324.7" cy="1281" r="4.5" fill="#8a5a2e" opacity="0.101"/><circle cx="1356.7" cy="219.1" r="10.1" fill="#8a5a2e" opacity="0.044"/><circle cx="1082.4" cy="2548.2" r="7.6" fill="#8a5a2e" opacity="0.130"/><circle cx="722.1" cy="672.7" r="11.6" fill="#8a5a2e" opacity="0.060"/><circle cx="126" cy="1815.2" r="3.1" fill="#8a5a2e" opacity="0.116"/><circle cx="525" cy="1278.5" r="4.4" fill="#8a5a2e" opacity="0.060"/><circle cx="2189.9" cy="2750.6" r="3.7" fill="#8a5a2e" opacity="0.119"/><circle cx="2082.5" cy="2162.7" r="14.1" fill="#8a5a2e" opacity="0.127"/><circle cx="1252.6" cy="910.9" r="4.2" fill="#8a5a2e" opacity="0.055"/><circle cx="1818.8" cy="949.9" r="12.1" fill="#8a5a2e" opacity="0.128"/><circle cx="1755.2" cy="2842" r="10.7" fill="#8a5a2e" opacity="0.068"/><circle cx="1778.6" cy="2525.9" r="12.1" fill="#8a5a2e" opacity="0.115"/><circle cx="1175" cy="106.6" r="4.1" fill="#8a5a2e" opacity="0.086"/><circle cx="859.5" cy="1319" r="13.5" fill="#8a5a2e" opacity="0.050"/><circle cx="2074.9" cy="899.3" r="3.7" fill="#8a5a2e" opacity="0.074"/><circle cx="906" cy="615.6" r="4.7" fill="#8a5a2e" opacity="0.121"/><circle cx="2288.3" cy="256.9" r="4.3" fill="#8a5a2e" opacity="0.068"/><circle cx="1424.9" cy="172.2" r="12.5" fill="#8a5a2e" opacity="0.087"/><rect width="2400" height="3000" fill="url(#a93-vig)"/></svg>