<svg xmlns="http://www.w3.org/2000/svg" width="2400" height="3000" viewBox="0 0 2400 3000"><rect width="2400" height="3000" fill="#16324f"/><radialGradient id="a10-vig" cx="50%" cy="42%" r="80%"><stop offset="55%" stop-color="#000" stop-opacity="0"/><stop offset="100%" stop-color="#000" stop-opacity="0.15"/></radialGradient><rect width="2400" height="3000" fill="url(#a10-vig)"/><circle cx="1829.5" cy="1430.7" r="3.6" fill="#d8b45a" opacity="0.069"/><circle cx="1809.6" cy="1441" r="4.5" fill="#d8b45a" opacity="0.044"/><circle cx="45.6" cy="370.7" r="4" fill="#d8b45a" opacity="0.035"/><circle cx="799.2" cy="1715.4" r="3.5" fill="#d8b45a" opacity="0.035"/><circle cx="409.4" cy="2895.5" r="4" fill="#d8b45a" opacity="0.074"/><circle cx="2248.8" cy="453" r="2" fill="#d8b45a" opacity="0.053"/><circle cx="1070.4" cy="1218.9" r="4.2" fill="#d8b45a" opacity="0.049"/><circle cx="1670.2" cy="1226" r="2" fill="#d8b45a" opacity="0.036"/><circle cx="1636.5" cy="2547.8" r="4.3" fill="#d8b45a" opacity="0.074"/><circle cx="868" cy="2943.7" r="2.7" fill="#d8b45a" opacity="0.033"/><circle cx="1988.1" cy="516.6" r="3.1" fill="#d8b45a" opacity="0.075"/><circle cx="2215" cy="798.6" r="2.5" fill="#d8b45a" opacity="0.035"/><circle cx="1277.7" cy="1110.2" r="2.6" fill="#d8b45a" opacity="0.045"/><circle cx="1357.4" cy="544" r="2.5" fill="#d8b45a" opacity="0.065"/><circle cx="244.4" cy="1526.6" r="3" fill="#d8b45a" opacity="0.036"/><circle cx="1212.8" cy="82.8" r="1.8" fill="#d8b45a" opacity="0.076"/><circle cx="2268" cy="878.1" r="4.4" fill="#d8b45a" opacity="0.034"/><circle cx="856.2" cy="530.2" r="3.3" fill="#d8b45a" opacity="0.059"/><circle cx="1630.5" cy="1076.6" r="3.9" fill="#d8b45a" opacity="0.069"/><circle cx="1919.3" cy="1146.8" r="3.5" fill="#d8b45a" opacity="0.042"/><circle cx="794.4" cy="1652.1" r="2.9" fill="#d8b45a" opacity="0.032"/><circle cx="422.7" cy="1373.7" r="3.9" fill="#d8b45a" opacity="0.065"/><circle cx="896.2" cy="1638.1" r="4.4" fill="#d8b45a" opacity="0.080"/><circle cx="1401.8" cy="2253.7" r="4" fill="#d8b45a" opacity="0.047"/><circle cx="1667" cy="2285" r="3.6" fill="#d8b45a" opacity="0.053"/><circle cx="1125" cy="1337.9" r="2.3" fill="#d8b45a" opacity="0.055"/><circle cx="879" cy="1319.4" r="2.9" fill="#d8b45a" opacity="0.073"/><circle cx="914.2" cy="67.1" r="1.6" fill="#d8b45a" opacity="0.055"/><circle cx="1313.7" cy="1741.6" r="4" fill="#d8b45a" opacity="0.079"/><circle cx="327.7" cy="647.6" r="3.7" fill="#d8b45a" opacity="0.040"/><circle cx="1116" cy="182.4" r="1.9" fill="#d8b45a" opacity="0.030"/><circle cx="1641.2" cy="686" r="4.4" fill="#d8b45a" opacity="0.046"/><circle cx="794.2" cy="2429.8" r="2.3" fill="#d8b45a" opacity="0.035"/><circle cx="132.9" cy="536.7" r="3.7" fill="#d8b45a" opacity="0.036"/><circle cx="913.7" cy="976.1" r="2.8" fill="#d8b45a" opacity="0.052"/><circle cx="1006.4" cy="1584.7" r="4.3" fill="#d8b45a" opacity="0.061"/><circle cx="112.8" cy="1625.8" r="1.6" fill="#d8b45a" opacity="0.070"/><circle cx="845.2" cy="1832" r="3.5" fill="#d8b45a" opacity="0.031"/><circle cx="535.2" cy="1980.6" r="1.9" fill="#d8b45a" opacity="0.048"/><circle cx="866.4" cy="863.7" r="3.1" fill="#d8b45a" opacity="0.037"/><circle cx="2321.5" cy="2641.1" r="3.5" fill="#d8b45a" opacity="0.062"/><circle cx="950.7" cy="1683.6" r="4.2" fill="#d8b45a" opacity="0.066"/><circle cx="119.6" cy="2028.2" r="2.8" fill="#d8b45a" opacity="0.043"/><circle cx="2200.6" cy="1245.3" r="4.4" fill="#d8b45a" opacity="0.038"/><circle cx="430.2" cy="257" r="3.1" fill="#d8b45a" opacity="0.052"/><circle cx="1624.2" cy="2588.3" r="4.4" fill="#d8b45a" opacity="0.070"/><circle cx="1911.7" cy="1111.8" r="1.9" fill="#d8b45a" opacity="0.077"/><circle cx="1007.7" cy="473.7" r="4" fill="#d8b45a" opacity="0.035"/><circle cx="1489.6" cy="445.8" r="2.6" fill="#d8b45a" opacity="0.063"/><circle cx="1653.1" cy="2172.2" r="3.2" fill="#d8b45a" opacity="0.043"/><circle cx="662.1" cy="1466.1" r="1.8" fill="#d8b45a" opacity="0.074"/><circle cx="1201.7" cy="2740.5" r="2.5" fill="#d8b45a" opacity="0.077"/><circle cx="1644.9" cy="969.9" r="3.6" fill="#d8b45a" opacity="0.038"/><circle cx="143.6" cy="2107.3" r="3.2" fill="#d8b45a" opacity="0.031"/><circle cx="560" cy="844" r="2.5" fill="#d8b45a" opacity="0.050"/><circle cx="821.3" cy="222.8" r="1.6" fill="#d8b45a" opacity="0.068"/><circle cx="1097.7" cy="192.4" r="3.1" fill="#d8b45a" opacity="0.079"/><circle cx="700.8" cy="2845.5" r="2.9" fill="#d8b45a" opacity="0.074"/><circle cx="2098.1" cy="1287.4" r="1.7" fill="#d8b45a" opacity="0.045"/><circle cx="356.4" cy="2111.5" r="1.9" fill="#d8b45a" opacity="0.074"/><circle cx="322.2" cy="2395.1" r="3.8" fill="#d8b45a" opacity="0.041"/><circle cx="620.6" cy="2152.7" r="4.5" fill="#d8b45a" opacity="0.036"/><circle cx="1790.2" cy="2229.2" r="2.3" fill="#d8b45a" opacity="0.078"/><circle cx="2328.1" cy="2859.8" r="2.2" fill="#d8b45a" opacity="0.052"/><circle cx="204" cy="721.1" r="2.4" fill="#d8b45a" opacity="0.067"/><circle cx="250.8" cy="2031.2" r="2" fill="#d8b45a" opacity="0.068"/><circle cx="763.8" cy="2342.2" r="3.5" fill="#d8b45a" opacity="0.070"/><circle cx="1520.6" cy="1473.3" r="2.7" fill="#d8b45a" opacity="0.048"/><circle cx="2309" cy="1995.5" r="2.5" fill="#d8b45a" opacity="0.033"/><circle cx="2255.6" cy="1829.8" r="4.2" fill="#d8b45a" opacity="0.049"/><circle cx="155.6" cy="1750.4" r="1.9" fill="#d8b45a" opacity="0.056"/><circle cx="1529" cy="130.7" r="3.5" fill="#d8b45a" opacity="0.071"/><circle cx="247.4" cy="1485.8" r="3.3" fill="#d8b45a" opacity="0.072"/><circle cx="2289.7" cy="1076.7" r="3.3" fill="#d8b45a" opacity="0.049"/><circle cx="1362.1" cy="1691" r="3.1" fill="#d8b45a" opacity="0.042"/><circle cx="352.2" cy="2042.2" r="3.7" fill="#d8b45a" opacity="0.051"/><circle cx="1340.5" cy="2606" r="3.5" fill="#d8b45a" opacity="0.068"/><circle cx="546.4" cy="845" r="3.2" fill="#d8b45a" opacity="0.041"/><circle cx="172.9" cy="591.8" r="2.1" fill="#d8b45a" opacity="0.046"/><circle cx="2083" cy="623.2" r="2.2" fill="#d8b45a" opacity="0.067"/><circle cx="1200" cy="1032.1" r="407.4" fill="#4d84b5" opacity="0.92"/><circle cx="1200" cy="1032.1" r="477.4" fill="none" stroke="#4d84b5" stroke-width="7" stroke-dasharray="4 30" stroke-linecap="round"/><rect x="330" y="2450" width="1740" height="52" fill="#d8b45a"/><rect x="240" y="2502" width="1920" height="52" fill="#d8b45a" opacity="0.85"/><rect x="150" y="2554" width="2100" height="52" fill="#d8b45a" opacity="0.7"/><path d="M1035,2450 L1068,845.5 L1332,845.5 L1365,2450 Z" fill="#d8b45a"/><line x1="1112" y1="875.5" x2="1090" y2="2440" stroke="#16324f" stroke-width="9" opacity="0.55"/><line x1="1156" y1="875.5" x2="1145" y2="2440" stroke="#16324f" stroke-width="9" opacity="0.55"/><line x1="1200" y1="875.5" x2="1200" y2="2440" stroke="#16324f" stroke-width="9" opacity="0.55"/><line x1="1244" y1="875.5" x2="1255" y2="2440" stroke="#16324f" stroke-width="9" opacity="0.55"/><line x1="1288" y1="875.5" x2="1310" y2="2440" stroke="#16324f" stroke-width="9" opacity="0.55"/><path d="M0 0 Q 26 -36.5 0 -96 Q -26 -36.5 0 0 Z" fill="#d8b45a" opacity="1" transform="translate(1080 845.5) rotate(-32)"/><path d="M0 0 Q 26 -36.5 0 -96 Q -26 -36.5 0 0 Z" fill="#d8b45a" opacity="1" transform="translate(1140 845.5) rotate(-16)"/><path d="M0 0 Q 26 -36.5 0 -96 Q -26 -36.5 0 0 Z" fill="#d8b45a" opacity="1" transform="translate(1200 845.5) rotate(0)"/><path d="M0 0 Q 26 -36.5 0 -96 Q -26 -36.5 0 0 Z" fill="#d8b45a" opacity="1" transform="translate(1260 845.5) rotate(16)"/><path d="M0 0 Q 26 -36.5 0 -96 Q -26 -36.5 0 0 Z" fill="#d8b45a" opacity="1" transform="translate(1320 845.5) rotate(32)"/><path d="M0 0 Q 26 -46.4 0 -122 Q -26 -46.4 0 0 Z" fill="#d8b45a" opacity="1" transform="translate(1080 793.5) rotate(-32)"/><path d="M0 0 Q 26 -46.4 0 -122 Q -26 -46.4 0 0 Z" fill="#d8b45a" opacity="1" transform="translate(1140 793.5) rotate(-16)"/><path d="M0 0 Q 26 -46.4 0 -122 Q -26 -46.4 0 0 Z" fill="#d8b45a" opacity="1" transform="translate(1200 793.5) rotate(0)"/><path d="M0 0 Q 26 -46.4 0 -122 Q -26 -46.4 0 0 Z" fill="#d8b45a" opacity="1" transform="translate(1260 793.5) rotate(16)"/><path d="M0 0 Q 26 -46.4 0 -122 Q -26 -46.4 0 0 Z" fill="#d8b45a" opacity="1" transform="translate(1320 793.5) rotate(32)"/><rect x="1008" y="687.5" width="384" height="44" fill="#d8b45a"/><rect x="1009" y="2406" width="382" height="44" fill="#d8b45a"/><path d="M260.9,289.1 L 333.1,289.1 L 333.1,216.9 L 276.4,216.9 L 276.4,261.6 L 305.6,261.6 L 305.6,239.2 M346.9,289.1 L 419.1,289.1 L 419.1,216.9 L 362.4,216.9 L 362.4,261.6 L 391.6,261.6 L 391.6,239.2 M432.9,289.1 L 505.1,289.1 L 505.1,216.9 L 448.4,216.9 L 448.4,261.6 L 477.6,261.6 L 477.6,239.2 M518.9,289.1 L 591.1,289.1 L 591.1,216.9 L 534.4,216.9 L 534.4,261.6 L 563.6,261.6 L 563.6,239.2 M604.9,289.1 L 677.1,289.1 L 677.1,216.9 L 620.4,216.9 L 620.4,261.6 L 649.6,261.6 L 649.6,239.2 M690.9,289.1 L 763.1,289.1 L 763.1,216.9 L 706.4,216.9 L 706.4,261.6 L 735.6,261.6 L 735.6,239.2 M776.9,289.1 L 849.1,289.1 L 849.1,216.9 L 792.4,216.9 L 792.4,261.6 L 821.6,261.6 L 821.6,239.2 M862.9,289.1 L 935.1,289.1 L 935.1,216.9 L 878.4,216.9 L 878.4,261.6 L 907.6,261.6 L 907.6,239.2 M948.9,289.1 L 1021.1,289.1 L 1021.1,216.9 L 964.4,216.9 L 964.4,261.6 L 993.6,261.6 L 993.6,239.2 M1034.9,289.1 L 1107.1,289.1 L 1107.1,216.9 L 1050.4,216.9 L 1050.4,261.6 L 1079.6,261.6 L 1079.6,239.2 M1120.9,289.1 L 1193.1,289.1 L 1193.1,216.9 L 1136.4,216.9 L 1136.4,261.6 L 1165.6,261.6 L 1165.6,239.2 M1206.9,289.1 L 1279.1,289.1 L 1279.1,216.9 L 1222.4,216.9 L 1222.4,261.6 L 1251.6,261.6 L 1251.6,239.2 M1292.9,289.1 L 1365.1,289.1 L 1365.1,216.9 L 1308.4,216.9 L 1308.4,261.6 L 1337.6,261.6 L 1337.6,239.2 M1378.9,289.1 L 1451.1,289.1 L 1451.1,216.9 L 1394.4,216.9 L 1394.4,261.6 L 1423.6,261.6 L 1423.6,239.2 M1464.9,289.1 L 1537.1,289.1 L 1537.1,216.9 L 1480.4,216.9 L 1480.4,261.6 L 1509.6,261.6 L 1509.6,239.2 M1550.9,289.1 L 1623.1,289.1 L 1623.1,216.9 L 1566.4,216.9 L 1566.4,261.6 L 1595.6,261.6 L 1595.6,239.2 M1636.9,289.1 L 1709.1,289.1 L 1709.1,216.9 L 1652.4,216.9 L 1652.4,261.6 L 1681.6,261.6 L 1681.6,239.2 M1722.9,289.1 L 1795.1,289.1 L 1795.1,216.9 L 1738.4,216.9 L 1738.4,261.6 L 1767.6,261.6 L 1767.6,239.2 M1808.9,289.1 L 1881.1,289.1 L 1881.1,216.9 L 1824.4,216.9 L 1824.4,261.6 L 1853.6,261.6 L 1853.6,239.2 M1894.9,289.1 L 1967.1,289.1 L 1967.1,216.9 L 1910.4,216.9 L 1910.4,261.6 L 1939.6,261.6 L 1939.6,239.2 M1980.9,289.1 L 2053.1,289.1 L 2053.1,216.9 L 1996.4,216.9 L 1996.4,261.6 L 2025.6,261.6 L 2025.6,239.2 M2066.9,289.1 L 2139.1,289.1 L 2139.1,216.9 L 2082.4,216.9 L 2082.4,261.6 L 2111.6,261.6 L 2111.6,239.2 " fill="none" stroke="#d8b45a" stroke-width="11.2"/><rect x="100" y="100" width="2200" height="2800" fill="none" stroke="#d8b45a" stroke-width="9"/><rect x="142" y="142" width="2116" height="2716" fill="none" stroke="#d8b45a" stroke-width="3" opacity="0.65"/></svg>