<svg xmlns="http://www.w3.org/2000/svg" width="2400" height="3000" viewBox="0 0 2400 3000"><rect width="2400" height="3000" fill="#16324f"/><radialGradient id="a58-vig" cx="50%" cy="42%" r="80%"><stop offset="55%" stop-color="#000" stop-opacity="0"/><stop offset="100%" stop-color="#000" stop-opacity="0.15"/></radialGradient><rect width="2400" height="3000" fill="url(#a58-vig)"/><circle cx="915.7" cy="2077.9" r="1.8" fill="#d8b45a" opacity="0.059"/><circle cx="591.9" cy="448.9" r="4.2" fill="#d8b45a" opacity="0.067"/><circle cx="308.8" cy="1266.9" r="2.5" fill="#d8b45a" opacity="0.032"/><circle cx="1033.5" cy="2248.1" r="1.5" fill="#d8b45a" opacity="0.080"/><circle cx="136.4" cy="2816.1" r="2.3" fill="#d8b45a" opacity="0.047"/><circle cx="64.7" cy="391" r="3.6" fill="#d8b45a" opacity="0.054"/><circle cx="2337.2" cy="1616.9" r="2.1" fill="#d8b45a" opacity="0.078"/><circle cx="726.3" cy="2689.4" r="2.1" fill="#d8b45a" opacity="0.058"/><circle cx="729" cy="1253.7" r="1.7" fill="#d8b45a" opacity="0.047"/><circle cx="625.7" cy="2851.7" r="1.8" fill="#d8b45a" opacity="0.057"/><circle cx="1554.2" cy="1500.4" r="3.5" fill="#d8b45a" opacity="0.072"/><circle cx="527.4" cy="1073.5" r="2" fill="#d8b45a" opacity="0.035"/><circle cx="2037.8" cy="1572.5" r="1.7" fill="#d8b45a" opacity="0.036"/><circle cx="2110.2" cy="542.1" r="2.1" fill="#d8b45a" opacity="0.065"/><circle cx="909.6" cy="2037.3" r="2" fill="#d8b45a" opacity="0.080"/><circle cx="236.9" cy="774.9" r="3.1" fill="#d8b45a" opacity="0.076"/><circle cx="981.8" cy="2235.4" r="4.2" fill="#d8b45a" opacity="0.039"/><circle cx="2181.4" cy="1779.6" r="3.7" fill="#d8b45a" opacity="0.077"/><circle cx="1256" cy="718.8" r="2.9" fill="#d8b45a" opacity="0.066"/><circle cx="956.7" cy="1980.8" r="4.2" fill="#d8b45a" opacity="0.044"/><circle cx="2128.7" cy="2311.7" r="3.4" fill="#d8b45a" opacity="0.048"/><circle cx="1083" cy="1418.7" r="2.2" fill="#d8b45a" opacity="0.037"/><circle cx="2021.2" cy="2782.8" r="2.4" fill="#d8b45a" opacity="0.030"/><circle cx="1487.7" cy="537.9" r="3.3" fill="#d8b45a" opacity="0.047"/><circle cx="403.7" cy="1277.7" r="4.1" fill="#d8b45a" opacity="0.054"/><circle cx="1721" cy="1325.7" r="3.4" fill="#d8b45a" opacity="0.059"/><circle cx="1797.9" cy="1862.6" r="3.4" fill="#d8b45a" opacity="0.039"/><circle cx="757.7" cy="1086.1" r="3.7" fill="#d8b45a" opacity="0.076"/><circle cx="1398.4" cy="574.6" r="1.9" fill="#d8b45a" opacity="0.034"/><circle cx="1029.4" cy="2176.5" r="1.8" fill="#d8b45a" opacity="0.078"/><circle cx="1042.3" cy="2883.6" r="2.6" fill="#d8b45a" opacity="0.044"/><circle cx="94.5" cy="717.9" r="4.2" fill="#d8b45a" opacity="0.067"/><circle cx="84.2" cy="1416.9" r="4.4" fill="#d8b45a" opacity="0.043"/><circle cx="461.6" cy="1401.3" r="2.4" fill="#d8b45a" opacity="0.057"/><circle cx="1536.6" cy="2258" r="3.8" fill="#d8b45a" opacity="0.031"/><circle cx="1889.6" cy="2908.6" r="3.9" fill="#d8b45a" opacity="0.033"/><circle cx="1094.2" cy="2493.5" r="3.4" fill="#d8b45a" opacity="0.068"/><circle cx="943.2" cy="2058.2" r="1.8" fill="#d8b45a" opacity="0.055"/><circle cx="2339.5" cy="564" r="3.4" fill="#d8b45a" opacity="0.044"/><circle cx="1786.6" cy="731.6" r="3" fill="#d8b45a" opacity="0.075"/><circle cx="737.2" cy="1273.5" r="3.2" fill="#d8b45a" opacity="0.048"/><circle cx="334.5" cy="747.6" r="4.1" fill="#d8b45a" opacity="0.079"/><circle cx="2087.9" cy="2481.6" r="1.8" fill="#d8b45a" opacity="0.056"/><circle cx="991.1" cy="2739.6" r="1.7" fill="#d8b45a" opacity="0.061"/><circle cx="69.1" cy="648.6" r="4.5" fill="#d8b45a" opacity="0.069"/><circle cx="311.7" cy="2775.1" r="2.7" fill="#d8b45a" opacity="0.048"/><circle cx="2209.5" cy="1070" r="2.4" fill="#d8b45a" opacity="0.036"/><circle cx="1388.4" cy="1010.4" r="4" fill="#d8b45a" opacity="0.051"/><circle cx="293.8" cy="1593.7" r="2.2" fill="#d8b45a" opacity="0.070"/><circle cx="1670.3" cy="1542.4" r="4.2" fill="#d8b45a" opacity="0.077"/><circle cx="773.2" cy="2580.3" r="3.2" fill="#d8b45a" opacity="0.037"/><circle cx="2243.4" cy="2288.8" r="1.7" fill="#d8b45a" opacity="0.046"/><circle cx="665.3" cy="2851.3" r="4.1" fill="#d8b45a" opacity="0.052"/><circle cx="1038.8" cy="1783.5" r="1.9" fill="#d8b45a" opacity="0.057"/><circle cx="461.3" cy="1953.2" r="2.3" fill="#d8b45a" opacity="0.033"/><circle cx="1670.2" cy="1164.5" r="2.1" fill="#d8b45a" opacity="0.054"/><circle cx="1107.6" cy="1212.9" r="4.2" fill="#d8b45a" opacity="0.055"/><circle cx="315.8" cy="1802.2" r="4.2" fill="#d8b45a" opacity="0.078"/><circle cx="2220.8" cy="792.9" r="3.8" fill="#d8b45a" opacity="0.051"/><circle cx="651" cy="2293.4" r="4" fill="#d8b45a" opacity="0.073"/><circle cx="1817.8" cy="2555" r="3" fill="#d8b45a" opacity="0.042"/><circle cx="1225.9" cy="1057.1" r="3.9" fill="#d8b45a" opacity="0.046"/><circle cx="1227.4" cy="1973.5" r="3.3" fill="#d8b45a" opacity="0.068"/><circle cx="1023.8" cy="1252" r="3" fill="#d8b45a" opacity="0.032"/><circle cx="669.2" cy="1494.6" r="2.1" fill="#d8b45a" opacity="0.038"/><circle cx="161.3" cy="1323.2" r="4.5" fill="#d8b45a" opacity="0.056"/><circle cx="582.5" cy="435.4" r="2.1" fill="#d8b45a" opacity="0.047"/><circle cx="1066.7" cy="113.3" r="3.5" fill="#d8b45a" opacity="0.074"/><circle cx="1536.8" cy="338.2" r="3" fill="#d8b45a" opacity="0.077"/><circle cx="1376.4" cy="2151" r="2.1" fill="#d8b45a" opacity="0.037"/><circle cx="1411.4" cy="2210.8" r="3.1" fill="#d8b45a" opacity="0.076"/><circle cx="59.5" cy="2615.6" r="4" fill="#d8b45a" opacity="0.047"/><circle cx="714.4" cy="108.6" r="2.2" fill="#d8b45a" opacity="0.072"/><circle cx="1661.4" cy="1820.7" r="1.7" fill="#d8b45a" opacity="0.032"/><circle cx="1502.9" cy="2881.6" r="2.7" fill="#d8b45a" opacity="0.050"/><circle cx="2215.5" cy="1388.7" r="1.5" fill="#d8b45a" opacity="0.049"/><circle cx="1355" cy="1622.3" r="3.6" fill="#d8b45a" opacity="0.038"/><circle cx="63.7" cy="649.1" r="3.9" fill="#d8b45a" opacity="0.065"/><circle cx="1771.5" cy="267.1" r="2.4" fill="#d8b45a" opacity="0.042"/><circle cx="2195.6" cy="391.7" r="3" fill="#d8b45a" opacity="0.048"/><path d="M1989.7,1824.1 Q1958.5,2128.2 1726.7,2337.8 Q1494.9,2547.3 1221,2505.5 Q947,2463.6 718.6,2309.4 Q490.1,2155.1 400.5,1837.6 Q310.9,1520 409.9,1207.4 Q509,894.8 719.4,649 Q929.9,403.2 1204.2,489 Q1478.6,574.7 1708.5,726.3 Q1938.4,877.8 1979.6,1198.9 Q2020.8,1520 1989.7,1824.1 Z" fill="#24486e" stroke="#d8b45a" stroke-width="10"/><clipPath id="a58-st"><path d="M1989.7,1824.1 Q1958.5,2128.2 1726.7,2337.8 Q1494.9,2547.3 1221,2505.5 Q947,2463.6 718.6,2309.4 Q490.1,2155.1 400.5,1837.6 Q310.9,1520 409.9,1207.4 Q509,894.8 719.4,649 Q929.9,403.2 1204.2,489 Q1478.6,574.7 1708.5,726.3 Q1938.4,877.8 1979.6,1198.9 Q2020.8,1520 1989.7,1824.1 Z"/></clipPath><g clip-path="url(#a58-st)"><polyline points="1200,1572.3 1203.6,1574.7 1208.3,1575.9 1213.7,1575.6 1219.4,1573.5 1224.7,1569.6 1229.1,1563.8 1231.9,1556.4 1232.8,1548 1231.4,1538.9 1227.4,1530 1220.8,1521.8 1211.8,1515.2 1200.9,1510.9 1188.6,1509.3 1175.6,1510.9 1162.8,1516 1151.1,1524.5 1141.4,1536 1134.6,1550.3 1131.3,1566.4 1132.1,1583.4 1137.3,1600.5 1146.8,1616.3 1160.3,1629.8 1177.2,1640 1196.8,1645.9 1217.9,1647 1239.3,1642.8 1259.7,1633.2 1277.7,1618.6 1292,1599.6 1301.6,1577 1305.5,1552.2 1303.3,1526.4 1294.8,1501.3 1280.1,1478.4 1259.8,1459.3 1235,1445.2 1206.8,1437.4 1176.9,1436.5 1147,1442.9 1118.9,1456.7 1094.5,1477.2 1075.2,1503.5 1062.6,1534.3 1057.6,1567.9 1060.8,1602.4 1072.5,1635.7 1092.1,1665.9 1118.9,1690.9 1151.5,1709.1 1188.2,1719.2 1226.9,1720.3 1265.4,1711.9 1301.3,1694.2 1332.6,1668 1357,1634.6 1373,1595.7 1379.4,1553.4 1375.4,1510.1 1360.9,1468.4 1336.6,1430.8 1303.4,1399.6 1263.2,1377 1218.1,1364.3 1170.6,1362.8 1123.5,1372.9 1079.5,1394.2" fill="none" stroke="#d8b45a" stroke-width="22" stroke-linecap="round" stroke-linejoin="round"/><polyline points="990.2,1208.8 989.9,1204.5 991.2,1199.8 994.1,1195.3 998.8,1191.5 1004.9,1188.8 1012.1,1187.9 1019.9,1189.1 1027.6,1192.6 1034.8,1198.4 1040.5,1206.3 1044.3,1216.1 1045.5,1227.1 1043.8,1238.8 1039,1250.3 1031.1,1260.7 1020.3,1269.2 1007.1,1275.1 992.3,1277.7 976.5,1276.5 961,1271.3 946.6,1262.1 934.4,1249.1 925.4,1233 920.5,1214.5 920.2,1194.7 924.8,1174.8 934.4,1156 948.8,1139.6 967.2,1126.7 988.9,1118.4 1012.5,1115.5 1036.8,1118.5 1060.3,1127.5 1081.6,1142.3 1099,1162.3 1111.5,1186.4 1118,1213.6 1117.7,1242.1 1110.4,1270.4 1096.2,1296.8 1075.7,1319.4 1049.8,1336.9 1019.8,1347.8 987.3,1351.3 954.3,1346.9 922.8,1334.4 894.5,1314.3 871.5,1287.6 855.2,1255.5 846.9,1219.7 847.4,1182.4 857,1145.6 875.5,1111.6 902,1082.5 935.3,1060.1 973.5,1046.2 1014.7,1041.7 1056.4,1047.3 1096.2,1063 1131.7,1088.1 1160.6,1121.4 1181,1161.3 1191.4,1205.6 1191,1251.8 1179.3,1297.1 1156.9,1339 1124.6,1374.8 1084.2,1402.3" fill="none" stroke="#d8b45a" stroke-width="22" stroke-linecap="round" stroke-linejoin="round"/><polyline points="1409.8,1208.8 1410.1,1204.5 1408.8,1199.8 1405.9,1195.3 1401.2,1191.5 1395.1,1188.8 1387.9,1187.9 1380.1,1189.1 1372.4,1192.6 1365.2,1198.4 1359.5,1206.3 1355.7,1216.1 1354.5,1227.1 1356.2,1238.8 1361,1250.3 1368.9,1260.7 1379.7,1269.2 1392.9,1275.1 1407.7,1277.7 1423.5,1276.5 1439,1271.3 1453.4,1262.1 1465.6,1249.1 1474.6,1233 1479.5,1214.5 1479.8,1194.7 1475.2,1174.8 1465.6,1156 1451.2,1139.6 1432.8,1126.7 1411.1,1118.4 1387.5,1115.5 1363.2,1118.5 1339.7,1127.5 1318.4,1142.3 1301,1162.3 1288.5,1186.4 1282,1213.6 1282.3,1242.1 1289.6,1270.4 1303.8,1296.8 1324.3,1319.4 1350.2,1336.9 1380.2,1347.8 1412.7,1351.3 1445.7,1346.9 1477.2,1334.4 1505.5,1314.3 1528.5,1287.6 1544.8,1255.5 1553.1,1219.7 1552.6,1182.4 1543,1145.6 1524.5,1111.6 1498,1082.5 1464.7,1060.1 1426.5,1046.2 1385.3,1041.7 1343.6,1047.3 1303.8,1063 1268.3,1088.1 1239.4,1121.4 1219,1161.3 1208.6,1205.6 1209,1251.8 1220.7,1297.1 1243.1,1339 1275.4,1374.8 1315.8,1402.3" fill="none" stroke="#d8b45a" stroke-width="22" stroke-linecap="round" stroke-linejoin="round"/><polyline points="1118.7,2001.2 1116.9,2000.4 1115.3,1998.9 1114.1,1996.7 1113.6,1993.9 1114,1990.9 1115.3,1987.8 1117.7,1984.9 1121,1982.6 1125.1,1981.1 1129.7,1980.8 1134.6,1981.7 1139.4,1984 1143.7,1987.7 1147.1,1992.6 1149.3,1998.5 1150,2005.1 1148.9,2012 1146,2018.7 1141.4,2024.7 1135.1,2029.7 1127.5,2033 1119,2034.4 1110,2033.7 1101.2,2030.7 1093.2,2025.4 1086.4,2018 1081.5,2009 1078.8,1998.7 1078.8,1987.7 1081.5,1976.7 1087,1966.4 1095,1957.5 1105.3,1950.6 1117.2,1946.3 1130.1,1945 1143.3,1947 1156,1952.2 1167.3,1960.5 1176.4,1971.5 1182.8,1984.8 1185.8,1999.5 1185.1,2014.9 1180.6,2029.9 1172.5,2043.8 1161,2055.5 1146.8,2064.2 1130.5,2069.3 1113.1,2070.4 1095.7,2067.2 1079.2,2059.7 1064.8,2048.3 1053.4,2033.5 1045.7,2016 1042.4,1996.8 1043.9,1977.1 1050.2,1958 1061.1,1940.7" fill="none" stroke="#d8b45a" stroke-width="14" stroke-linecap="round" stroke-linejoin="round"/><polyline points="639.3,1117.5 639.3,1119.3 639.9,1121.2 641.3,1123 643.5,1124.4 646.1,1125.2 649.2,1125.3 652.5,1124.4 655.6,1122.5 658.4,1119.6 660.4,1115.9 661.4,1111.5 661.3,1106.6 659.8,1101.7 657,1097 652.9,1093 647.7,1090 641.5,1088.4 634.9,1088.3 628.1,1089.9 621.7,1093.3 616.1,1098.4 611.8,1104.9 609.1,1112.6 608.3,1121.1 609.7,1129.8 613.3,1138.1 619,1145.6 626.6,1151.6 635.7,1155.7 645.9,1157.5 656.5,1156.8 666.9,1153.4 676.4,1147.4 684.4,1139.1 690.3,1128.8 693.6,1117.1 693.9,1104.7 691.2,1092.2 685.4,1080.5 676.7,1070.3 665.6,1062.3 652.5,1057.2 638.4,1055.3 623.8,1056.9 609.8,1062.2 597.3,1070.8 587,1082.4 579.6,1096.5 575.8,1112.2 575.9,1128.6 580.1,1144.9 588.2,1159.9 599.9,1172.8 614.6,1182.6 631.6,1188.7 649.8,1190.5 668.2,1187.9" fill="none" stroke="#d8b45a" stroke-width="14" stroke-linecap="round" stroke-linejoin="round"/><polyline points="955.6,1964.4 957.4,1965.7 958.9,1967.8 959.7,1970.5 959.6,1973.7 958.5,1977 956.3,1980.2 953,1982.9 948.8,1984.7 943.9,1985.4 938.6,1984.7 933.4,1982.6 928.5,1978.9 924.6,1973.8 921.9,1967.6 920.8,1960.5 921.6,1953 924.3,1945.5 929.1,1938.7 935.6,1933 943.8,1928.9 953,1926.9 962.9,1927.2 972.7,1930.1 981.8,1935.5 989.6,1943.2 995.5,1953 999,1964.2 999.6,1976.3 997.1,1988.6 991.6,2000.3 983.1,2010.5 972.1,2018.7 959.1,2024 944.8,2026.1 930.1,2024.6 915.7,2019.4 902.8,2010.7 892.1,1998.9 884.4,1984.4 880.3,1968.2 880.3,1951 884.5,1934 893,1918.2 905.2,1904.6 920.7,1894.2 938.6,1887.6 957.9,1885.6 977.6,1888.4 996.3,1895.9 1013,1908 1026.6,1924.1 1036,1943.3 1040.5,1964.5 1039.8,1986.7 1033.7,2008.4 1022.3,2028.3 1006.2,2045.1" fill="none" stroke="#d8b45a" stroke-width="14" stroke-linecap="round" stroke-linejoin="round"/><polyline points="548.3,1631.9 547,1630.7 546,1628.9 545.6,1626.6 546,1624 547.2,1621.4 549.3,1619 552.2,1617.2 555.8,1616.1 559.8,1616 564.1,1617.1 568.1,1619.3 571.7,1622.8 574.4,1627.3 576,1632.6 576.2,1638.5 574.8,1644.5 571.9,1650.3 567.3,1655.4 561.4,1659.4 554.5,1661.9 546.8,1662.6 538.8,1661.4 531.1,1658.1 524.2,1652.8 518.7,1645.8 514.8,1637.3 513.1,1627.9 513.8,1618 517,1608.2 522.6,1599.3 530.5,1591.8 540.2,1586.3 551.3,1583.3 563.1,1583 574.9,1585.6 586,1591.2 595.7,1599.5 603.2,1610.2 608,1622.6 609.7,1636.2 608.1,1650.1 603,1663.5 594.6,1675.5 583.4,1685.3 569.8,1692.3 554.6,1695.8 538.7,1695.6 523.1,1691.4 508.6,1683.5 496.3,1672.1 486.9,1657.7 481.1,1641.2 479.5,1623.5 482.2,1605.7 489.3,1588.7 500.4,1573.6 515.1,1561.5" fill="none" stroke="#d8b45a" stroke-width="14" stroke-linecap="round" stroke-linejoin="round"/><polyline points="521.8,2450 556.5,2373.5 591.1,2450" fill="none" stroke="#d8b45a" stroke-width="12.6"/><polyline points="620.8,2450 655.5,2373.5 690.1,2450" fill="none" stroke="#d8b45a" stroke-width="12.6"/><polyline points="719.8,2450 754.5,2373.5 789.1,2450" fill="none" stroke="#d8b45a" stroke-width="12.6"/><polyline points="818.9,2450 853.5,2373.5 888.1,2450" fill="none" stroke="#d8b45a" stroke-width="12.6"/><polyline points="917.9,2450 952.5,2373.5 987.1,2450" fill="none" stroke="#d8b45a" stroke-width="12.6"/><polyline points="1016.9,2450 1051.5,2373.5 1086.2,2450" fill="none" stroke="#d8b45a" stroke-width="12.6"/><polyline points="1115.8,2450 1150.5,2373.5 1185.2,2450" fill="none" stroke="#d8b45a" stroke-width="12.6"/><polyline points="1214.8,2450 1249.5,2373.5 1284.2,2450" fill="none" stroke="#d8b45a" stroke-width="12.6"/><polyline points="1313.8,2450 1348.5,2373.5 1383.2,2450" fill="none" stroke="#d8b45a" stroke-width="12.6"/><polyline points="1412.8,2450 1447.5,2373.5 1482.2,2450" fill="none" stroke="#d8b45a" stroke-width="12.6"/><polyline points="1511.8,2450 1546.5,2373.5 1581.2,2450" fill="none" stroke="#d8b45a" stroke-width="12.6"/><polyline points="1610.8,2450 1645.5,2373.5 1680.2,2450" fill="none" stroke="#d8b45a" stroke-width="12.6"/><polyline points="1709.8,2450 1744.5,2373.5 1779.2,2450" fill="none" stroke="#d8b45a" stroke-width="12.6"/><polyline points="1808.8,2450 1843.5,2373.5 1878.2,2450" fill="none" stroke="#d8b45a" stroke-width="12.6"/></g><circle cx="390" cy="200" r="15.6" fill="#d8b45a"/><circle cx="450" cy="200" r="15.6" fill="#d8b45a"/><circle cx="510" cy="200" r="15.6" fill="#d8b45a"/><circle cx="570" cy="200" r="15.6" fill="#d8b45a"/><circle cx="630" cy="200" r="15.6" fill="#d8b45a"/><circle cx="690" cy="200" r="15.6" fill="#d8b45a"/><circle cx="750" cy="200" r="15.6" fill="#d8b45a"/><circle cx="810" cy="200" r="15.6" fill="#d8b45a"/><circle cx="870" cy="200" r="15.6" fill="#d8b45a"/><circle cx="930" cy="200" r="15.6" fill="#d8b45a"/><circle cx="990" cy="200" r="15.6" fill="#d8b45a"/><circle cx="1050" cy="200" r="15.6" fill="#d8b45a"/><circle cx="1110" cy="200" r="15.6" fill="#d8b45a"/><circle cx="1170" cy="200" r="15.6" fill="#d8b45a"/><circle cx="1230" cy="200" r="15.6" fill="#d8b45a"/><circle cx="1290" cy="200" r="15.6" fill="#d8b45a"/><circle cx="1350" cy="200" r="15.6" fill="#d8b45a"/><circle cx="1410" cy="200" r="15.6" fill="#d8b45a"/><circle cx="1470" cy="200" r="15.6" fill="#d8b45a"/><circle cx="1530" cy="200" r="15.6" fill="#d8b45a"/><circle cx="1590" cy="200" r="15.6" fill="#d8b45a"/><circle cx="1650" cy="200" r="15.6" fill="#d8b45a"/><circle cx="1710" cy="200" r="15.6" fill="#d8b45a"/><circle cx="1770" cy="200" r="15.6" fill="#d8b45a"/><circle cx="1830" cy="200" r="15.6" fill="#d8b45a"/><circle cx="1890" cy="200" r="15.6" fill="#d8b45a"/><circle cx="1950" cy="200" r="15.6" fill="#d8b45a"/><circle cx="2010" cy="200" r="15.6" fill="#d8b45a"/><circle cx="390" cy="2800" r="15.6" fill="#d8b45a"/><circle cx="450" cy="2800" r="15.6" fill="#d8b45a"/><circle cx="510" cy="2800" r="15.6" fill="#d8b45a"/><circle cx="570" cy="2800" r="15.6" fill="#d8b45a"/><circle cx="630" cy="2800" r="15.6" fill="#d8b45a"/><circle cx="690" cy="2800" r="15.6" fill="#d8b45a"/><circle cx="750" cy="2800" r="15.6" fill="#d8b45a"/><circle cx="810" cy="2800" r="15.6" fill="#d8b45a"/><circle cx="870" cy="2800" r="15.6" fill="#d8b45a"/><circle cx="930" cy="2800" r="15.6" fill="#d8b45a"/><circle cx="990" cy="2800" r="15.6" fill="#d8b45a"/><circle cx="1050" cy="2800" r="15.6" fill="#d8b45a"/><circle cx="1110" cy="2800" r="15.6" fill="#d8b45a"/><circle cx="1170" cy="2800" r="15.6" fill="#d8b45a"/><circle cx="1230" cy="2800" r="15.6" fill="#d8b45a"/><circle cx="1290" cy="2800" r="15.6" fill="#d8b45a"/><circle cx="1350" cy="2800" r="15.6" fill="#d8b45a"/><circle cx="1410" cy="2800" r="15.6" fill="#d8b45a"/><circle cx="1470" cy="2800" r="15.6" fill="#d8b45a"/><circle cx="1530" cy="2800" r="15.6" fill="#d8b45a"/><circle cx="1590" cy="2800" r="15.6" fill="#d8b45a"/><circle cx="1650" cy="2800" r="15.6" fill="#d8b45a"/><circle cx="1710" cy="2800" r="15.6" fill="#d8b45a"/><circle cx="1770" cy="2800" r="15.6" fill="#d8b45a"/><circle cx="1830" cy="2800" r="15.6" fill="#d8b45a"/><circle cx="1890" cy="2800" r="15.6" fill="#d8b45a"/><circle cx="1950" cy="2800" r="15.6" fill="#d8b45a"/><circle cx="2010" cy="2800" r="15.6" fill="#d8b45a"/><rect x="100" y="100" width="2200" height="2800" fill="none" stroke="#d8b45a" stroke-width="9"/><rect x="142" y="142" width="2116" height="2716" fill="none" stroke="#d8b45a" stroke-width="3" opacity="0.65"/></svg>