<svg xmlns="http://www.w3.org/2000/svg" width="2400" height="3000" viewBox="0 0 2400 3000"><filter id="a95-warp" x="-4%" y="-4%" width="108%" height="108%"><feTurbulence type="fractalNoise" baseFrequency="0.0105" numOctaves="2" seed="237" result="w"/><feDisplacementMap in="SourceGraphic" in2="w" scale="7" xChannelSelector="R" yChannelSelector="G"/></filter><filter id="a95-grain" x="0%" y="0%" width="100%" height="100%"><feTurbulence type="fractalNoise" baseFrequency="0.6" numOctaves="2" seed="244"/><feColorMatrix type="matrix" values="0.33 0.33 0.33 0 0.62  0.33 0.33 0.33 0 0.62  0.33 0.33 0.33 0 0.62  0 0 0 0 1"/></filter><filter id="a95-mottle" x="0%" y="0%" width="100%" height="100%"><feTurbulence type="fractalNoise" baseFrequency="0.0045" numOctaves="3" seed="250"/><feColorMatrix type="matrix" values="0.2 0.2 0.2 0 0.78  0.2 0.2 0.2 0 0.78  0.2 0.2 0.2 0 0.78  0 0 0 0 1"/></filter><filter id="a95-fade" x="0%" y="0%" width="100%" height="100%"><feTurbulence type="fractalNoise" baseFrequency="0.006" numOctaves="2" seed="266"/><feColorMatrix type="matrix" values="0.3 0.3 0.3 0 -0.08  0.3 0.3 0.3 0 -0.08  0.3 0.3 0.3 0 -0.1  0 0 0 0 1"/></filter><filter id="a95-blur9"><feGaussianBlur stdDeviation="9"/></filter><radialGradient id="a95-vig" cx="50%" cy="44%" r="78%"><stop offset="52%" stop-color="#241a10" stop-opacity="0"/><stop offset="100%" stop-color="#241a10" stop-opacity="0.17"/></radialGradient><radialGradient id="a95-warm" cx="67%" cy="30%" r="85%"><stop offset="0%" stop-color="#e8c890" stop-opacity="0.14"/><stop offset="70%" stop-color="#e8c890" stop-opacity="0"/></radialGradient><rect width="2400" height="3000" fill="#ece2cb"/><rect width="2400" height="3000" fill="url(#a95-warm)"/><g filter="url(#a95-warp)"><path d="M1168.5,1576.1 A130,130 0 1 1 1235.8,1575" fill="none" stroke="#453521" stroke-width="40.6" stroke-linecap="round"/><line x1="1149.2" y1="1569.7" x2="1111.4" y2="1658.6" stroke="#453521" stroke-width="40.6" stroke-linecap="round"/><path d="M1309.1,1251.3 A226.7,226.7 0 1 1 1195.1,1223.4" fill="none" stroke="#453521" stroke-width="40.6" stroke-linecap="round"/><line x1="1159.7" y1="1226.9" x2="1142.5" y2="1131.8" stroke="#453521" stroke-width="40.6" stroke-linecap="round"/><path d="M1123.9,1764.2 A323.3,323.3 0 1 1 1291.2,1760.2" fill="none" stroke="#453521" stroke-width="40.6" stroke-linecap="round"/><line x1="1075.7" y1="1748.5" x2="1038.5" y2="1837.7" stroke="#453521" stroke-width="40.6" stroke-linecap="round"/><path d="M1387.8,1074.3 A420,420 0 1 1 1174.8,1030.8" fill="none" stroke="#453521" stroke-width="40.6" stroke-linecap="round"/><line x1="1109.6" y1="1039.9" x2="1088.8" y2="945.5" stroke="#453521" stroke-width="40.6" stroke-linecap="round"/><path d="M1076.3,1951.6 A516.7,516.7 0 1 1 1343.7,1946.3" fill="none" stroke="#453521" stroke-width="40.6" stroke-linecap="round"/><line x1="999.3" y1="1926.1" x2="961.8" y2="2015.2" stroke="#453521" stroke-width="40.6" stroke-linecap="round"/><path d="M1252.2,838.9 A613.3,613.3 0 1 1 939.6,894.7" fill="none" stroke="#453521" stroke-width="40.6" stroke-linecap="round"/><line x1="856" y1="942.3" x2="801.7" y2="862.2" stroke="#453521" stroke-width="40.6" stroke-linecap="round"/><path d="M971,2122.1 A710,710 0 1 1 1337.7,2146.5" fill="none" stroke="#453521" stroke-width="40.6" stroke-linecap="round"/><line x1="868.7" y1="2078" x2="823.6" y2="2163.5" stroke="#453521" stroke-width="40.6" stroke-linecap="round"/><path d="M1519.6,709.3 A806.7,806.7 0 1 1 1106.4,648.8" fill="none" stroke="#453521" stroke-width="40.6" stroke-linecap="round"/><line x1="982.3" y1="673.3" x2="956.2" y2="580.2" stroke="#453521" stroke-width="40.6" stroke-linecap="round"/><path d="M781.1,2250.3 A903.3,903.3 0 1 1 1237.3,2352.6" fill="none" stroke="#453521" stroke-width="40.6" stroke-linecap="round"/><circle cx="1200" cy="1450" r="56" fill="#8a5a33"/><path d="M324.7,287.3 L 395.3,287.3 L 395.3,216.7 L 339.8,216.7 L 339.8,260.4 L 368.4,260.4 L 368.4,238.6 M408.7,287.3 L 479.3,287.3 L 479.3,216.7 L 423.8,216.7 L 423.8,260.4 L 452.4,260.4 L 452.4,238.6 M492.7,287.3 L 563.3,287.3 L 563.3,216.7 L 507.8,216.7 L 507.8,260.4 L 536.4,260.4 L 536.4,238.6 M576.7,287.3 L 647.3,287.3 L 647.3,216.7 L 591.8,216.7 L 591.8,260.4 L 620.4,260.4 L 620.4,238.6 M660.7,287.3 L 731.3,287.3 L 731.3,216.7 L 675.8,216.7 L 675.8,260.4 L 704.4,260.4 L 704.4,238.6 M744.7,287.3 L 815.3,287.3 L 815.3,216.7 L 759.8,216.7 L 759.8,260.4 L 788.4,260.4 L 788.4,238.6 M828.7,287.3 L 899.3,287.3 L 899.3,216.7 L 843.8,216.7 L 843.8,260.4 L 872.4,260.4 L 872.4,238.6 M912.7,287.3 L 983.3,287.3 L 983.3,216.7 L 927.8,216.7 L 927.8,260.4 L 956.4,260.4 L 956.4,238.6 M996.7,287.3 L 1067.3,287.3 L 1067.3,216.7 L 1011.8,216.7 L 1011.8,260.4 L 1040.4,260.4 L 1040.4,238.6 M1080.7,287.3 L 1151.3,287.3 L 1151.3,216.7 L 1095.8,216.7 L 1095.8,260.4 L 1124.4,260.4 L 1124.4,238.6 M1164.7,287.3 L 1235.3,287.3 L 1235.3,216.7 L 1179.8,216.7 L 1179.8,260.4 L 1208.4,260.4 L 1208.4,238.6 M1248.7,287.3 L 1319.3,287.3 L 1319.3,216.7 L 1263.8,216.7 L 1263.8,260.4 L 1292.4,260.4 L 1292.4,238.6 M1332.7,287.3 L 1403.3,287.3 L 1403.3,216.7 L 1347.8,216.7 L 1347.8,260.4 L 1376.4,260.4 L 1376.4,238.6 M1416.7,287.3 L 1487.3,287.3 L 1487.3,216.7 L 1431.8,216.7 L 1431.8,260.4 L 1460.4,260.4 L 1460.4,238.6 M1500.7,287.3 L 1571.3,287.3 L 1571.3,216.7 L 1515.8,216.7 L 1515.8,260.4 L 1544.4,260.4 L 1544.4,238.6 M1584.7,287.3 L 1655.3,287.3 L 1655.3,216.7 L 1599.8,216.7 L 1599.8,260.4 L 1628.4,260.4 L 1628.4,238.6 M1668.7,287.3 L 1739.3,287.3 L 1739.3,216.7 L 1683.8,216.7 L 1683.8,260.4 L 1712.4,260.4 L 1712.4,238.6 M1752.7,287.3 L 1823.3,287.3 L 1823.3,216.7 L 1767.8,216.7 L 1767.8,260.4 L 1796.4,260.4 L 1796.4,238.6 M1836.7,287.3 L 1907.3,287.3 L 1907.3,216.7 L 1851.8,216.7 L 1851.8,260.4 L 1880.4,260.4 L 1880.4,238.6 M1920.7,287.3 L 1991.3,287.3 L 1991.3,216.7 L 1935.8,216.7 L 1935.8,260.4 L 1964.4,260.4 L 1964.4,238.6 M2004.7,287.3 L 2075.3,287.3 L 2075.3,216.7 L 2019.8,216.7 L 2019.8,260.4 L 2048.4,260.4 L 2048.4,238.6 " fill="none" stroke="#453521" stroke-width="10.9"/><path d="M324.7,2777.3 L 395.3,2777.3 L 395.3,2706.7 L 339.8,2706.7 L 339.8,2750.4 L 368.4,2750.4 L 368.4,2728.6 M408.7,2777.3 L 479.3,2777.3 L 479.3,2706.7 L 423.8,2706.7 L 423.8,2750.4 L 452.4,2750.4 L 452.4,2728.6 M492.7,2777.3 L 563.3,2777.3 L 563.3,2706.7 L 507.8,2706.7 L 507.8,2750.4 L 536.4,2750.4 L 536.4,2728.6 M576.7,2777.3 L 647.3,2777.3 L 647.3,2706.7 L 591.8,2706.7 L 591.8,2750.4 L 620.4,2750.4 L 620.4,2728.6 M660.7,2777.3 L 731.3,2777.3 L 731.3,2706.7 L 675.8,2706.7 L 675.8,2750.4 L 704.4,2750.4 L 704.4,2728.6 M744.7,2777.3 L 815.3,2777.3 L 815.3,2706.7 L 759.8,2706.7 L 759.8,2750.4 L 788.4,2750.4 L 788.4,2728.6 M828.7,2777.3 L 899.3,2777.3 L 899.3,2706.7 L 843.8,2706.7 L 843.8,2750.4 L 872.4,2750.4 L 872.4,2728.6 M912.7,2777.3 L 983.3,2777.3 L 983.3,2706.7 L 927.8,2706.7 L 927.8,2750.4 L 956.4,2750.4 L 956.4,2728.6 M996.7,2777.3 L 1067.3,2777.3 L 1067.3,2706.7 L 1011.8,2706.7 L 1011.8,2750.4 L 1040.4,2750.4 L 1040.4,2728.6 M1080.7,2777.3 L 1151.3,2777.3 L 1151.3,2706.7 L 1095.8,2706.7 L 1095.8,2750.4 L 1124.4,2750.4 L 1124.4,2728.6 M1164.7,2777.3 L 1235.3,2777.3 L 1235.3,2706.7 L 1179.8,2706.7 L 1179.8,2750.4 L 1208.4,2750.4 L 1208.4,2728.6 M1248.7,2777.3 L 1319.3,2777.3 L 1319.3,2706.7 L 1263.8,2706.7 L 1263.8,2750.4 L 1292.4,2750.4 L 1292.4,2728.6 M1332.7,2777.3 L 1403.3,2777.3 L 1403.3,2706.7 L 1347.8,2706.7 L 1347.8,2750.4 L 1376.4,2750.4 L 1376.4,2728.6 M1416.7,2777.3 L 1487.3,2777.3 L 1487.3,2706.7 L 1431.8,2706.7 L 1431.8,2750.4 L 1460.4,2750.4 L 1460.4,2728.6 M1500.7,2777.3 L 1571.3,2777.3 L 1571.3,2706.7 L 1515.8,2706.7 L 1515.8,2750.4 L 1544.4,2750.4 L 1544.4,2728.6 M1584.7,2777.3 L 1655.3,2777.3 L 1655.3,2706.7 L 1599.8,2706.7 L 1599.8,2750.4 L 1628.4,2750.4 L 1628.4,2728.6 M1668.7,2777.3 L 1739.3,2777.3 L 1739.3,2706.7 L 1683.8,2706.7 L 1683.8,2750.4 L 1712.4,2750.4 L 1712.4,2728.6 M1752.7,2777.3 L 1823.3,2777.3 L 1823.3,2706.7 L 1767.8,2706.7 L 1767.8,2750.4 L 1796.4,2750.4 L 1796.4,2728.6 M1836.7,2777.3 L 1907.3,2777.3 L 1907.3,2706.7 L 1851.8,2706.7 L 1851.8,2750.4 L 1880.4,2750.4 L 1880.4,2728.6 M1920.7,2777.3 L 1991.3,2777.3 L 1991.3,2706.7 L 1935.8,2706.7 L 1935.8,2750.4 L 1964.4,2750.4 L 1964.4,2728.6 M2004.7,2777.3 L 2075.3,2777.3 L 2075.3,2706.7 L 2019.8,2706.7 L 2019.8,2750.4 L 2048.4,2750.4 L 2048.4,2728.6 " fill="none" stroke="#453521" stroke-width="10.9"/><rect x="130" y="130" width="2140" height="2740" fill="none" stroke="#453521" stroke-width="5"/><rect x="152" y="152" width="2096" height="2696" fill="none" stroke="#453521" stroke-width="2.5" opacity="0.8"/></g><rect width="2400" height="3000" filter="url(#a95-mottle)" style="mix-blend-mode:multiply" opacity="0.5"/><rect width="2400" height="3000" filter="url(#a95-fade)" style="mix-blend-mode:screen" opacity="0.55"/><rect width="2400" height="3000" filter="url(#a95-grain)" style="mix-blend-mode:multiply" opacity="0.32"/><ellipse cx="1806.5" cy="2623.3" rx="272.7" ry="292.6" fill="#6b4a22" opacity="0.046" filter="url(#a95-blur9)"/><ellipse cx="736.9" cy="2070.9" rx="136.2" ry="81" fill="#6b4a22" opacity="0.052" filter="url(#a95-blur9)"/><ellipse cx="1824" cy="2002.7" rx="126" ry="81.1" fill="#6b4a22" opacity="0.063" filter="url(#a95-blur9)"/><ellipse cx="712.1" cy="1679.1" rx="219.1" ry="146.8" fill="#6b4a22" opacity="0.048" filter="url(#a95-blur9)"/><ellipse cx="1725.2" cy="1729.3" rx="110.9" ry="117.1" fill="#6b4a22" opacity="0.046" filter="url(#a95-blur9)"/><g opacity="0.3"><rect y="3" width="2400" height="2" fill="#ece2cb"/><rect y="11" width="2400" height="2" fill="#ece2cb"/><rect y="19" width="2400" height="2" fill="#ece2cb"/><rect y="27" width="2400" height="2" fill="#ece2cb"/><rect y="35" width="2400" height="2" fill="#ece2cb"/><rect y="43" width="2400" height="2" fill="#ece2cb"/><rect y="51" width="2400" height="2" fill="#ece2cb"/><rect y="59" width="2400" height="2" fill="#ece2cb"/><rect y="67" width="2400" height="2" fill="#ece2cb"/><rect y="75" width="2400" height="2" fill="#ece2cb"/><rect y="83" width="2400" height="2" fill="#ece2cb"/><rect y="91" width="2400" height="2" fill="#ece2cb"/><rect y="99" width="2400" height="2" fill="#ece2cb"/><rect y="107" width="2400" height="2" fill="#ece2cb"/><rect y="115" width="2400" height="2" fill="#ece2cb"/><rect y="123" width="2400" height="2" fill="#ece2cb"/><rect y="131" width="2400" height="2" fill="#ece2cb"/><rect y="139" width="2400" height="2" fill="#ece2cb"/><rect y="147" width="2400" height="2" fill="#ece2cb"/><rect y="155" width="2400" height="2" fill="#ece2cb"/><rect y="163" width="2400" height="2" fill="#ece2cb"/><rect y="171" width="2400" height="2" fill="#ece2cb"/><rect y="179" width="2400" height="2" fill="#ece2cb"/><rect y="187" width="2400" height="2" fill="#ece2cb"/><rect y="195" width="2400" height="2" fill="#ece2cb"/><rect y="203" width="2400" height="2" fill="#ece2cb"/><rect y="211" width="2400" height="2" fill="#ece2cb"/><rect y="219" width="2400" height="2" fill="#ece2cb"/><rect y="227" width="2400" height="2" fill="#ece2cb"/><rect y="235" width="2400" height="2" fill="#ece2cb"/><rect y="243" width="2400" height="2" fill="#ece2cb"/><rect y="251" width="2400" height="2" fill="#ece2cb"/><rect y="259" width="2400" height="2" fill="#ece2cb"/><rect y="267" width="2400" height="2" fill="#ece2cb"/><rect y="275" width="2400" height="2" fill="#ece2cb"/><rect y="283" width="2400" height="2" fill="#ece2cb"/><rect y="291" width="2400" height="2" fill="#ece2cb"/><rect y="299" width="2400" height="2" fill="#ece2cb"/><rect y="307" width="2400" height="2" fill="#ece2cb"/><rect y="315" width="2400" height="2" fill="#ece2cb"/><rect y="323" width="2400" height="2" fill="#ece2cb"/><rect y="331" width="2400" height="2" fill="#ece2cb"/><rect y="339" width="2400" height="2" fill="#ece2cb"/><rect y="347" width="2400" height="2" fill="#ece2cb"/><rect y="355" width="2400" height="2" fill="#ece2cb"/><rect y="363" width="2400" height="2" fill="#ece2cb"/><rect y="371" width="2400" height="2" fill="#ece2cb"/><rect y="379" width="2400" height="2" fill="#ece2cb"/><rect y="387" width="2400" height="2" fill="#ece2cb"/><rect y="395" width="2400" height="2" fill="#ece2cb"/><rect y="403" width="2400" height="2" fill="#ece2cb"/><rect y="411" width="2400" height="2" fill="#ece2cb"/><rect y="419" width="2400" height="2" fill="#ece2cb"/><rect y="427" width="2400" height="2" fill="#ece2cb"/><rect y="435" width="2400" height="2" fill="#ece2cb"/><rect y="443" width="2400" height="2" fill="#ece2cb"/><rect y="451" width="2400" height="2" fill="#ece2cb"/><rect y="459" width="2400" height="2" fill="#ece2cb"/><rect y="467" width="2400" height="2" fill="#ece2cb"/><rect y="475" width="2400" height="2" fill="#ece2cb"/><rect y="483" width="2400" height="2" fill="#ece2cb"/><rect y="491" width="2400" height="2" fill="#ece2cb"/><rect y="499" width="2400" height="2" fill="#ece2cb"/><rect y="507" width="2400" height="2" fill="#ece2cb"/><rect y="515" width="2400" height="2" fill="#ece2cb"/><rect y="523" width="2400" height="2" fill="#ece2cb"/><rect y="531" width="2400" height="2" fill="#ece2cb"/><rect y="539" width="2400" height="2" fill="#ece2cb"/><rect y="547" width="2400" height="2" fill="#ece2cb"/><rect y="555" width="2400" height="2" fill="#ece2cb"/><rect y="563" width="2400" height="2" fill="#ece2cb"/><rect y="571" width="2400" height="2" fill="#ece2cb"/><rect y="579" width="2400" height="2" fill="#ece2cb"/><rect y="587" width="2400" height="2" fill="#ece2cb"/><rect y="595" width="2400" height="2" fill="#ece2cb"/><rect y="603" width="2400" height="2" fill="#ece2cb"/><rect y="611" width="2400" height="2" fill="#ece2cb"/><rect y="619" width="2400" height="2" fill="#ece2cb"/><rect y="627" width="2400" height="2" fill="#ece2cb"/><rect y="635" width="2400" height="2" fill="#ece2cb"/><rect y="643" width="2400" height="2" fill="#ece2cb"/><rect y="651" width="2400" height="2" fill="#ece2cb"/><rect y="659" width="2400" height="2" fill="#ece2cb"/><rect y="667" width="2400" height="2" fill="#ece2cb"/><rect y="675" width="2400" height="2" fill="#ece2cb"/><rect y="683" width="2400" height="2" fill="#ece2cb"/><rect y="691" width="2400" height="2" fill="#ece2cb"/><rect y="699" width="2400" height="2" fill="#ece2cb"/><rect y="707" width="2400" height="2" fill="#ece2cb"/><rect y="715" width="2400" height="2" fill="#ece2cb"/><rect y="723" width="2400" height="2" fill="#ece2cb"/><rect y="731" width="2400" height="2" fill="#ece2cb"/><rect y="739" width="2400" height="2" fill="#ece2cb"/><rect y="747" width="2400" height="2" fill="#ece2cb"/><rect y="755" width="2400" height="2" fill="#ece2cb"/><rect y="763" width="2400" height="2" fill="#ece2cb"/><rect y="771" width="2400" height="2" fill="#ece2cb"/><rect y="779" width="2400" height="2" fill="#ece2cb"/><rect y="787" width="2400" height="2" fill="#ece2cb"/><rect y="795" width="2400" height="2" fill="#ece2cb"/><rect y="803" width="2400" height="2" fill="#ece2cb"/><rect y="811" width="2400" height="2" fill="#ece2cb"/><rect y="819" width="2400" height="2" fill="#ece2cb"/><rect y="827" width="2400" height="2" fill="#ece2cb"/><rect y="835" width="2400" height="2" fill="#ece2cb"/><rect y="843" width="2400" height="2" fill="#ece2cb"/><rect y="851" width="2400" height="2" fill="#ece2cb"/><rect y="859" width="2400" height="2" fill="#ece2cb"/><rect y="867" width="2400" height="2" fill="#ece2cb"/><rect y="875" width="2400" height="2" fill="#ece2cb"/><rect y="883" width="2400" height="2" fill="#ece2cb"/><rect y="891" width="2400" height="2" fill="#ece2cb"/><rect y="899" width="2400" height="2" fill="#ece2cb"/><rect y="907" width="2400" height="2" fill="#ece2cb"/><rect y="915" width="2400" height="2" fill="#ece2cb"/><rect y="923" width="2400" height="2" fill="#ece2cb"/><rect y="931" width="2400" height="2" fill="#ece2cb"/><rect y="939" width="2400" height="2" fill="#ece2cb"/><rect y="947" width="2400" height="2" fill="#ece2cb"/><rect y="955" width="2400" height="2" fill="#ece2cb"/><rect y="963" width="2400" height="2" fill="#ece2cb"/><rect y="971" width="2400" height="2" fill="#ece2cb"/><rect y="979" width="2400" height="2" fill="#ece2cb"/><rect y="987" width="2400" height="2" fill="#ece2cb"/><rect y="995" width="2400" height="2" fill="#ece2cb"/><rect y="1003" width="2400" height="2" fill="#ece2cb"/><rect y="1011" width="2400" height="2" fill="#ece2cb"/><rect y="1019" width="2400" height="2" fill="#ece2cb"/><rect y="1027" width="2400" height="2" fill="#ece2cb"/><rect y="1035" width="2400" height="2" fill="#ece2cb"/><rect y="1043" width="2400" height="2" fill="#ece2cb"/><rect y="1051" width="2400" height="2" fill="#ece2cb"/><rect y="1059" width="2400" height="2" fill="#ece2cb"/><rect y="1067" width="2400" height="2" fill="#ece2cb"/><rect y="1075" width="2400" height="2" fill="#ece2cb"/><rect y="1083" width="2400" height="2" fill="#ece2cb"/><rect y="1091" width="2400" height="2" fill="#ece2cb"/><rect y="1099" width="2400" height="2" fill="#ece2cb"/><rect y="1107" width="2400" height="2" fill="#ece2cb"/><rect y="1115" width="2400" height="2" fill="#ece2cb"/><rect y="1123" width="2400" height="2" fill="#ece2cb"/><rect y="1131" width="2400" height="2" fill="#ece2cb"/><rect y="1139" width="2400" height="2" fill="#ece2cb"/><rect y="1147" width="2400" height="2" fill="#ece2cb"/><rect y="1155" width="2400" height="2" fill="#ece2cb"/><rect y="1163" width="2400" height="2" fill="#ece2cb"/><rect y="1171" width="2400" height="2" fill="#ece2cb"/><rect y="1179" width="2400" height="2" fill="#ece2cb"/><rect y="1187" width="2400" height="2" fill="#ece2cb"/><rect y="1195" width="2400" height="2" fill="#ece2cb"/><rect y="1203" width="2400" height="2" fill="#ece2cb"/><rect y="1211" width="2400" height="2" fill="#ece2cb"/><rect y="1219" width="2400" height="2" fill="#ece2cb"/><rect y="1227" width="2400" height="2" fill="#ece2cb"/><rect y="1235" width="2400" height="2" fill="#ece2cb"/><rect y="1243" width="2400" height="2" fill="#ece2cb"/><rect y="1251" width="2400" height="2" fill="#ece2cb"/><rect y="1259" width="2400" height="2" fill="#ece2cb"/><rect y="1267" width="2400" height="2" fill="#ece2cb"/><rect y="1275" width="2400" height="2" fill="#ece2cb"/><rect y="1283" width="2400" height="2" fill="#ece2cb"/><rect y="1291" width="2400" height="2" fill="#ece2cb"/><rect y="1299" width="2400" height="2" fill="#ece2cb"/><rect y="1307" width="2400" height="2" fill="#ece2cb"/><rect y="1315" width="2400" height="2" fill="#ece2cb"/><rect y="1323" width="2400" height="2" fill="#ece2cb"/><rect y="1331" width="2400" height="2" fill="#ece2cb"/><rect y="1339" width="2400" height="2" fill="#ece2cb"/><rect y="1347" width="2400" height="2" fill="#ece2cb"/><rect y="1355" width="2400" height="2" fill="#ece2cb"/><rect y="1363" width="2400" height="2" fill="#ece2cb"/><rect y="1371" width="2400" height="2" fill="#ece2cb"/><rect y="1379" width="2400" height="2" fill="#ece2cb"/><rect y="1387" width="2400" height="2" fill="#ece2cb"/><rect y="1395" width="2400" height="2" fill="#ece2cb"/><rect y="1403" width="2400" height="2" fill="#ece2cb"/><rect y="1411" width="2400" height="2" fill="#ece2cb"/><rect y="1419" width="2400" height="2" fill="#ece2cb"/><rect y="1427" width="2400" height="2" fill="#ece2cb"/><rect y="1435" width="2400" height="2" fill="#ece2cb"/><rect y="1443" width="2400" height="2" fill="#ece2cb"/><rect y="1451" width="2400" height="2" fill="#ece2cb"/><rect y="1459" width="2400" height="2" fill="#ece2cb"/><rect y="1467" width="2400" height="2" fill="#ece2cb"/><rect y="1475" width="2400" height="2" fill="#ece2cb"/><rect y="1483" width="2400" height="2" fill="#ece2cb"/><rect y="1491" width="2400" height="2" fill="#ece2cb"/><rect y="1499" width="2400" height="2" fill="#ece2cb"/><rect y="1507" width="2400" height="2" fill="#ece2cb"/><rect y="1515" width="2400" height="2" fill="#ece2cb"/><rect y="1523" width="2400" height="2" fill="#ece2cb"/><rect y="1531" width="2400" height="2" fill="#ece2cb"/><rect y="1539" width="2400" height="2" fill="#ece2cb"/><rect y="1547" width="2400" height="2" fill="#ece2cb"/><rect y="1555" width="2400" height="2" fill="#ece2cb"/><rect y="1563" width="2400" height="2" fill="#ece2cb"/><rect y="1571" width="2400" height="2" fill="#ece2cb"/><rect y="1579" width="2400" height="2" fill="#ece2cb"/><rect y="1587" width="2400" height="2" fill="#ece2cb"/><rect y="1595" width="2400" height="2" fill="#ece2cb"/><rect y="1603" width="2400" height="2" fill="#ece2cb"/><rect y="1611" width="2400" height="2" fill="#ece2cb"/><rect y="1619" width="2400" height="2" fill="#ece2cb"/><rect y="1627" width="2400" height="2" fill="#ece2cb"/><rect y="1635" width="2400" height="2" fill="#ece2cb"/><rect y="1643" width="2400" height="2" fill="#ece2cb"/><rect y="1651" width="2400" height="2" fill="#ece2cb"/><rect y="1659" width="2400" height="2" fill="#ece2cb"/><rect y="1667" width="2400" height="2" fill="#ece2cb"/><rect y="1675" width="2400" height="2" fill="#ece2cb"/><rect y="1683" width="2400" height="2" fill="#ece2cb"/><rect y="1691" width="2400" height="2" fill="#ece2cb"/><rect y="1699" width="2400" height="2" fill="#ece2cb"/><rect y="1707" width="2400" height="2" fill="#ece2cb"/><rect y="1715" width="2400" height="2" fill="#ece2cb"/><rect y="1723" width="2400" height="2" fill="#ece2cb"/><rect y="1731" width="2400" height="2" fill="#ece2cb"/><rect y="1739" width="2400" height="2" fill="#ece2cb"/><rect y="1747" width="2400" height="2" fill="#ece2cb"/><rect y="1755" width="2400" height="2" fill="#ece2cb"/><rect y="1763" width="2400" height="2" fill="#ece2cb"/><rect y="1771" width="2400" height="2" fill="#ece2cb"/><rect y="1779" width="2400" height="2" fill="#ece2cb"/><rect y="1787" width="2400" height="2" fill="#ece2cb"/><rect y="1795" width="2400" height="2" fill="#ece2cb"/><rect y="1803" width="2400" height="2" fill="#ece2cb"/><rect y="1811" width="2400" height="2" fill="#ece2cb"/><rect y="1819" width="2400" height="2" fill="#ece2cb"/><rect y="1827" width="2400" height="2" fill="#ece2cb"/><rect y="1835" width="2400" height="2" fill="#ece2cb"/><rect y="1843" width="2400" height="2" fill="#ece2cb"/><rect y="1851" width="2400" height="2" fill="#ece2cb"/><rect y="1859" width="2400" height="2" fill="#ece2cb"/><rect y="1867" width="2400" height="2" fill="#ece2cb"/><rect y="1875" width="2400" height="2" fill="#ece2cb"/><rect y="1883" width="2400" height="2" fill="#ece2cb"/><rect y="1891" width="2400" height="2" fill="#ece2cb"/><rect y="1899" width="2400" height="2" fill="#ece2cb"/><rect y="1907" width="2400" height="2" fill="#ece2cb"/><rect y="1915" width="2400" height="2" fill="#ece2cb"/><rect y="1923" width="2400" height="2" fill="#ece2cb"/><rect y="1931" width="2400" height="2" fill="#ece2cb"/><rect y="1939" width="2400" height="2" fill="#ece2cb"/><rect y="1947" width="2400" height="2" fill="#ece2cb"/><rect y="1955" width="2400" height="2" fill="#ece2cb"/><rect y="1963" width="2400" height="2" fill="#ece2cb"/><rect y="1971" width="2400" height="2" fill="#ece2cb"/><rect y="1979" width="2400" height="2" fill="#ece2cb"/><rect y="1987" width="2400" height="2" fill="#ece2cb"/><rect y="1995" width="2400" height="2" fill="#ece2cb"/><rect y="2003" width="2400" height="2" fill="#ece2cb"/><rect y="2011" width="2400" height="2" fill="#ece2cb"/><rect y="2019" width="2400" height="2" fill="#ece2cb"/><rect y="2027" width="2400" height="2" fill="#ece2cb"/><rect y="2035" width="2400" height="2" fill="#ece2cb"/><rect y="2043" width="2400" height="2" fill="#ece2cb"/><rect y="2051" width="2400" height="2" fill="#ece2cb"/><rect y="2059" width="2400" height="2" fill="#ece2cb"/><rect y="2067" width="2400" height="2" fill="#ece2cb"/><rect y="2075" width="2400" height="2" fill="#ece2cb"/><rect y="2083" width="2400" height="2" fill="#ece2cb"/><rect y="2091" width="2400" height="2" fill="#ece2cb"/><rect y="2099" width="2400" height="2" fill="#ece2cb"/><rect y="2107" width="2400" height="2" fill="#ece2cb"/><rect y="2115" width="2400" height="2" fill="#ece2cb"/><rect y="2123" width="2400" height="2" fill="#ece2cb"/><rect y="2131" width="2400" height="2" fill="#ece2cb"/><rect y="2139" width="2400" height="2" fill="#ece2cb"/><rect y="2147" width="2400" height="2" fill="#ece2cb"/><rect y="2155" width="2400" height="2" fill="#ece2cb"/><rect y="2163" width="2400" height="2" fill="#ece2cb"/><rect y="2171" width="2400" height="2" fill="#ece2cb"/><rect y="2179" width="2400" height="2" fill="#ece2cb"/><rect y="2187" width="2400" height="2" fill="#ece2cb"/><rect y="2195" width="2400" height="2" fill="#ece2cb"/><rect y="2203" width="2400" height="2" fill="#ece2cb"/><rect y="2211" width="2400" height="2" fill="#ece2cb"/><rect y="2219" width="2400" height="2" fill="#ece2cb"/><rect y="2227" width="2400" height="2" fill="#ece2cb"/><rect y="2235" width="2400" height="2" fill="#ece2cb"/><rect y="2243" width="2400" height="2" fill="#ece2cb"/><rect y="2251" width="2400" height="2" fill="#ece2cb"/><rect y="2259" width="2400" height="2" fill="#ece2cb"/><rect y="2267" width="2400" height="2" fill="#ece2cb"/><rect y="2275" width="2400" height="2" fill="#ece2cb"/><rect y="2283" width="2400" height="2" fill="#ece2cb"/><rect y="2291" width="2400" height="2" fill="#ece2cb"/><rect y="2299" width="2400" height="2" fill="#ece2cb"/><rect y="2307" width="2400" height="2" fill="#ece2cb"/><rect y="2315" width="2400" height="2" fill="#ece2cb"/><rect y="2323" width="2400" height="2" fill="#ece2cb"/><rect y="2331" width="2400" height="2" fill="#ece2cb"/><rect y="2339" width="2400" height="2" fill="#ece2cb"/><rect y="2347" width="2400" height="2" fill="#ece2cb"/><rect y="2355" width="2400" height="2" fill="#ece2cb"/><rect y="2363" width="2400" height="2" fill="#ece2cb"/><rect y="2371" width="2400" height="2" fill="#ece2cb"/><rect y="2379" width="2400" height="2" fill="#ece2cb"/><rect y="2387" width="2400" height="2" fill="#ece2cb"/><rect y="2395" width="2400" height="2" fill="#ece2cb"/><rect y="2403" width="2400" height="2" fill="#ece2cb"/><rect y="2411" width="2400" height="2" fill="#ece2cb"/><rect y="2419" width="2400" height="2" fill="#ece2cb"/><rect y="2427" width="2400" height="2" fill="#ece2cb"/><rect y="2435" width="2400" height="2" fill="#ece2cb"/><rect y="2443" width="2400" height="2" fill="#ece2cb"/><rect y="2451" width="2400" height="2" fill="#ece2cb"/><rect y="2459" width="2400" height="2" fill="#ece2cb"/><rect y="2467" width="2400" height="2" fill="#ece2cb"/><rect y="2475" width="2400" height="2" fill="#ece2cb"/><rect y="2483" width="2400" height="2" fill="#ece2cb"/><rect y="2491" width="2400" height="2" fill="#ece2cb"/><rect y="2499" width="2400" height="2" fill="#ece2cb"/><rect y="2507" width="2400" height="2" fill="#ece2cb"/><rect y="2515" width="2400" height="2" fill="#ece2cb"/><rect y="2523" width="2400" height="2" fill="#ece2cb"/><rect y="2531" width="2400" height="2" fill="#ece2cb"/><rect y="2539" width="2400" height="2" fill="#ece2cb"/><rect y="2547" width="2400" height="2" fill="#ece2cb"/><rect y="2555" width="2400" height="2" fill="#ece2cb"/><rect y="2563" width="2400" height="2" fill="#ece2cb"/><rect y="2571" width="2400" height="2" fill="#ece2cb"/><rect y="2579" width="2400" height="2" fill="#ece2cb"/><rect y="2587" width="2400" height="2" fill="#ece2cb"/><rect y="2595" width="2400" height="2" fill="#ece2cb"/><rect y="2603" width="2400" height="2" fill="#ece2cb"/><rect y="2611" width="2400" height="2" fill="#ece2cb"/><rect y="2619" width="2400" height="2" fill="#ece2cb"/><rect y="2627" width="2400" height="2" fill="#ece2cb"/><rect y="2635" width="2400" height="2" fill="#ece2cb"/><rect y="2643" width="2400" height="2" fill="#ece2cb"/><rect y="2651" width="2400" height="2" fill="#ece2cb"/><rect y="2659" width="2400" height="2" fill="#ece2cb"/><rect y="2667" width="2400" height="2" fill="#ece2cb"/><rect y="2675" width="2400" height="2" fill="#ece2cb"/><rect y="2683" width="2400" height="2" fill="#ece2cb"/><rect y="2691" width="2400" height="2" fill="#ece2cb"/><rect y="2699" width="2400" height="2" fill="#ece2cb"/><rect y="2707" width="2400" height="2" fill="#ece2cb"/><rect y="2715" width="2400" height="2" fill="#ece2cb"/><rect y="2723" width="2400" height="2" fill="#ece2cb"/><rect y="2731" width="2400" height="2" fill="#ece2cb"/><rect y="2739" width="2400" height="2" fill="#ece2cb"/><rect y="2747" width="2400" height="2" fill="#ece2cb"/><rect y="2755" width="2400" height="2" fill="#ece2cb"/><rect y="2763" width="2400" height="2" fill="#ece2cb"/><rect y="2771" width="2400" height="2" fill="#ece2cb"/><rect y="2779" width="2400" height="2" fill="#ece2cb"/><rect y="2787" width="2400" height="2" fill="#ece2cb"/><rect y="2795" width="2400" height="2" fill="#ece2cb"/><rect y="2803" width="2400" height="2" fill="#ece2cb"/><rect y="2811" width="2400" height="2" fill="#ece2cb"/><rect y="2819" width="2400" height="2" fill="#ece2cb"/><rect y="2827" width="2400" height="2" fill="#ece2cb"/><rect y="2835" width="2400" height="2" fill="#ece2cb"/><rect y="2843" width="2400" height="2" fill="#ece2cb"/><rect y="2851" width="2400" height="2" fill="#ece2cb"/><rect y="2859" width="2400" height="2" fill="#ece2cb"/><rect y="2867" width="2400" height="2" fill="#ece2cb"/><rect y="2875" width="2400" height="2" fill="#ece2cb"/><rect y="2883" width="2400" height="2" fill="#ece2cb"/><rect y="2891" width="2400" height="2" fill="#ece2cb"/><rect y="2899" width="2400" height="2" fill="#ece2cb"/><rect y="2907" width="2400" height="2" fill="#ece2cb"/><rect y="2915" width="2400" height="2" fill="#ece2cb"/><rect y="2923" width="2400" height="2" fill="#ece2cb"/><rect y="2931" width="2400" height="2" fill="#ece2cb"/><rect y="2939" width="2400" height="2" fill="#ece2cb"/><rect y="2947" width="2400" height="2" fill="#ece2cb"/><rect y="2955" width="2400" height="2" fill="#ece2cb"/><rect y="2963" width="2400" height="2" fill="#ece2cb"/><rect y="2971" width="2400" height="2" fill="#ece2cb"/><rect y="2979" width="2400" height="2" fill="#ece2cb"/><rect y="2987" width="2400" height="2" fill="#ece2cb"/><rect y="2995" width="2400" height="2" fill="#ece2cb"/></g><rect x="88" y="88" width="2224" height="2824" fill="none" stroke="#3a2c1a" stroke-width="4" opacity="0.2"/><rect x="94" y="94" width="2212" height="2812" fill="none" stroke="#fff6e0" stroke-width="2" opacity="0.25"/><circle cx="1488.4" cy="1457.1" r="4" fill="#8a5a2e" opacity="0.075"/><circle cx="813.2" cy="561.3" r="13.9" fill="#8a5a2e" opacity="0.129"/><circle cx="393.9" cy="471" r="14.8" fill="#8a5a2e" opacity="0.109"/><circle cx="1161.9" cy="1321.5" r="8.9" fill="#8a5a2e" opacity="0.059"/><circle cx="1466" cy="1275.7" r="9.1" fill="#8a5a2e" opacity="0.058"/><circle cx="459.3" cy="1498.5" r="11" fill="#8a5a2e" opacity="0.056"/><circle cx="1740" cy="111.2" r="3.6" fill="#8a5a2e" opacity="0.044"/><circle cx="1069.4" cy="2502.6" r="8.2" fill="#8a5a2e" opacity="0.093"/><circle cx="254.8" cy="892.8" r="9.5" fill="#8a5a2e" opacity="0.125"/><circle cx="1430.3" cy="2174.2" r="15.9" fill="#8a5a2e" opacity="0.073"/><circle cx="1420.7" cy="1852.4" r="7.2" fill="#8a5a2e" opacity="0.115"/><circle cx="1299.7" cy="410.8" r="7.3" fill="#8a5a2e" opacity="0.113"/><circle cx="511.8" cy="1618" r="7.2" fill="#8a5a2e" opacity="0.076"/><circle cx="974.6" cy="1357.4" r="14.8" fill="#8a5a2e" opacity="0.071"/><circle cx="187.3" cy="2005.1" r="8.7" fill="#8a5a2e" opacity="0.074"/><circle cx="2126.1" cy="907.1" r="7.6" fill="#8a5a2e" opacity="0.065"/><rect width="2400" height="3000" fill="url(#a95-vig)"/></svg>