<svg xmlns="http://www.w3.org/2000/svg" width="2400" height="3000" viewBox="0 0 2400 3000"><filter id="a82-warp" x="-4%" y="-4%" width="108%" height="108%"><feTurbulence type="fractalNoise" baseFrequency="0.0105" numOctaves="2" seed="1268" result="w"/><feDisplacementMap in="SourceGraphic" in2="w" scale="12" xChannelSelector="R" yChannelSelector="G"/></filter><filter id="a82-grain" x="0%" y="0%" width="100%" height="100%"><feTurbulence type="fractalNoise" baseFrequency="0.6" numOctaves="2" seed="1275"/><feColorMatrix type="matrix" values="0.33 0.33 0.33 0 0.62  0.33 0.33 0.33 0 0.62  0.33 0.33 0.33 0 0.62  0 0 0 0 1"/></filter><filter id="a82-mottle" x="0%" y="0%" width="100%" height="100%"><feTurbulence type="fractalNoise" baseFrequency="0.0045" numOctaves="3" seed="1281"/><feColorMatrix type="matrix" values="0.2 0.2 0.2 0 0.78  0.2 0.2 0.2 0 0.78  0.2 0.2 0.2 0 0.78  0 0 0 0 1"/></filter><filter id="a82-fade" x="0%" y="0%" width="100%" height="100%"><feTurbulence type="fractalNoise" baseFrequency="0.006" numOctaves="2" seed="1297"/><feColorMatrix type="matrix" values="0.3 0.3 0.3 0 -0.08  0.3 0.3 0.3 0 -0.08  0.3 0.3 0.3 0 -0.1  0 0 0 0 1"/></filter><filter id="a82-blur9"><feGaussianBlur stdDeviation="9"/></filter><radialGradient id="a82-vig" cx="50%" cy="44%" r="78%"><stop offset="52%" stop-color="#241a10" stop-opacity="0"/><stop offset="100%" stop-color="#241a10" stop-opacity="0.17"/></radialGradient><radialGradient id="a82-warm" cx="58%" cy="30%" r="85%"><stop offset="0%" stop-color="#e8c890" stop-opacity="0.14"/><stop offset="70%" stop-color="#e8c890" stop-opacity="0"/></radialGradient><rect width="2400" height="3000" fill="#dcd3c2"/><rect width="2400" height="3000" fill="url(#a82-warm)"/><rect y="488.4" width="2400" height="274.3" fill="#8a6a40" opacity="0.021" transform="rotate(1.2 1200 488.4)"/><rect y="1744.5" width="2400" height="203.7" fill="#ffffff" opacity="0.020" transform="rotate(1.2 1200 1744.5)"/><rect y="2625.5" width="2400" height="161" fill="#8a6a40" opacity="0.047" transform="rotate(-1.9 1200 2625.5)"/><rect y="845.7" width="2400" height="360.3" fill="#ffffff" opacity="0.046" transform="rotate(1.4 1200 845.7)"/><rect y="2910.7" width="2400" height="205.2" fill="#8a6a40" opacity="0.035" transform="rotate(0.8 1200 2910.7)"/><rect y="2756.3" width="2400" height="417.8" fill="#ffffff" opacity="0.043" transform="rotate(-1.4 1200 2756.3)"/><rect y="2045.5" width="2400" height="195.5" fill="#8a6a40" opacity="0.046" transform="rotate(-0.9 1200 2045.5)"/><g filter="url(#a82-warp)"><path d="M319.3,322.3 L399.3,500.3 L479.4,322.3 Z M479.4,322.3 L559.5,500.3 L639.5,322.3 Z M639.5,322.3 L719.6,500.3 L799.7,322.3 Z M799.7,322.3 L879.7,500.3 L959.8,322.3 Z M959.8,322.3 L1039.9,500.3 L1119.9,322.3 Z M1119.9,322.3 L1200,500.3 L1280.1,322.3 Z M1280.1,322.3 L1360.1,500.3 L1440.2,322.3 Z M1440.2,322.3 L1520.3,500.3 L1600.3,322.3 Z M1600.3,322.3 L1680.4,500.3 L1760.5,322.3 Z M1760.5,322.3 L1840.5,500.3 L1920.6,322.3 Z M1920.6,322.3 L2000.7,500.3 L2080.7,322.3 Z " fill="#41586a"/><line x1="250" y1="562.6" x2="2150" y2="562.6" stroke="#41586a" stroke-width="6"/><rect x="250" y="562.6" width="1900" height="278.2" fill="#41586a"/><rect x="280" y="617.6" width="84.1" height="84.1" fill="#dcd3c2"/><rect x="364.1" y="701.7" width="84.1" height="84.1" fill="#dcd3c2"/><rect x="448.2" y="617.6" width="84.1" height="84.1" fill="#dcd3c2"/><rect x="532.3" y="701.7" width="84.1" height="84.1" fill="#dcd3c2"/><rect x="616.5" y="617.6" width="84.1" height="84.1" fill="#dcd3c2"/><rect x="700.6" y="701.7" width="84.1" height="84.1" fill="#dcd3c2"/><rect x="784.7" y="617.6" width="84.1" height="84.1" fill="#dcd3c2"/><rect x="868.8" y="701.7" width="84.1" height="84.1" fill="#dcd3c2"/><rect x="952.9" y="617.6" width="84.1" height="84.1" fill="#dcd3c2"/><rect x="1037" y="701.7" width="84.1" height="84.1" fill="#dcd3c2"/><rect x="1121.1" y="617.6" width="84.1" height="84.1" fill="#dcd3c2"/><rect x="1205.3" y="701.7" width="84.1" height="84.1" fill="#dcd3c2"/><rect x="1289.4" y="617.6" width="84.1" height="84.1" fill="#dcd3c2"/><rect x="1373.5" y="701.7" width="84.1" height="84.1" fill="#dcd3c2"/><rect x="1457.6" y="617.6" width="84.1" height="84.1" fill="#dcd3c2"/><rect x="1541.7" y="701.7" width="84.1" height="84.1" fill="#dcd3c2"/><rect x="1625.8" y="617.6" width="84.1" height="84.1" fill="#dcd3c2"/><rect x="1709.9" y="701.7" width="84.1" height="84.1" fill="#dcd3c2"/><rect x="1794.1" y="617.6" width="84.1" height="84.1" fill="#dcd3c2"/><rect x="1878.2" y="701.7" width="84.1" height="84.1" fill="#dcd3c2"/><rect x="1962.3" y="617.6" width="84.1" height="84.1" fill="#dcd3c2"/><line x1="250" y1="840.8" x2="2150" y2="840.8" stroke="#41586a" stroke-width="6"/><line x1="280" y1="1048.5" x2="2120" y2="1048.5" stroke="#41586a" stroke-width="13"/><polyline points="390.2,970.8 389.2,971.9 388.7,973.4 388.7,975.2 389.3,977.2 390.6,979 392.5,980.6 395,981.6 397.9,982 401,981.5 404.2,980.1 407,977.8 409.3,974.7 410.9,970.8 411.4,966.4 410.8,961.8 408.9,957.3 405.8,953.2 401.6,949.8 396.5,947.5 390.7,946.4 384.6,946.8 378.5,948.8 372.9,952.4 368.2,957.4 364.7,963.7 362.8,970.8 362.6,978.4 364.4,986.1 368.2,993.4 373.7,999.7 380.8,1004.6 389.2,1007.7 398.3,1008.8 407.6,1007.6 416.6,1004 424.7,998.3 431.3,990.5 435.9,981.2 438.3,970.8 438,959.9 435,949.1 429.4,939.1 421.4,930.6 411.3,924.2 399.8,920.3 387.4,919.2 374.9,921.2 362.9,926.3 352.4,934.2 343.9,944.7 338.1,957.1 335.4,970.8" fill="none" stroke="#41586a" stroke-width="14.6" stroke-linecap="round" stroke-linejoin="round"/><polyline points="552.1,970.8 551.2,971.9 550.6,973.4 550.6,975.2 551.2,977.2 552.5,979 554.4,980.6 556.9,981.6 559.8,982 563,981.5 566.1,980.1 568.9,977.8 571.3,974.7 572.8,970.8 573.3,966.4 572.7,961.8 570.8,957.3 567.7,953.2 563.5,949.8 558.4,947.5 552.6,946.4 546.5,946.8 540.4,948.8 534.8,952.4 530.1,957.4 526.6,963.7 524.7,970.8 524.6,978.4 526.4,986.1 530.1,993.4 535.6,999.7 542.8,1004.6 551.1,1007.7 560.2,1008.8 569.5,1007.6 578.5,1004 586.6,998.3 593.2,990.5 597.9,981.2 600.2,970.8 599.9,959.9 596.9,949.1 591.3,939.1 583.3,930.6 573.3,924.2 561.7,920.3 549.3,919.2 536.8,921.2 524.9,926.3 514.3,934.2 505.8,944.7 500,957.1 497.3,970.8" fill="none" stroke="#41586a" stroke-width="14.6" stroke-linecap="round" stroke-linejoin="round"/><polyline points="714,970.8 713.1,971.9 712.5,973.4 712.5,975.2 713.1,977.2 714.4,979 716.3,980.6 718.8,981.6 721.7,982 724.9,981.5 728,980.1 730.9,977.8 733.2,974.7 734.7,970.8 735.2,966.4 734.6,961.8 732.7,957.3 729.7,953.2 725.5,949.8 720.3,947.5 714.5,946.4 708.4,946.8 702.3,948.8 696.7,952.4 692,957.4 688.5,963.7 686.6,970.8 686.5,978.4 688.3,986.1 692,993.4 697.5,999.7 704.7,1004.6 713,1007.7 722.1,1008.8 731.4,1007.6 740.4,1004 748.5,998.3 755.1,990.5 759.8,981.2 762.1,970.8 761.8,959.9 758.8,949.1 753.2,939.1 745.2,930.6 735.2,924.2 723.6,920.3 711.2,919.2 698.7,921.2 686.8,926.3 676.2,934.2 667.7,944.7 661.9,957.1 659.2,970.8" fill="none" stroke="#41586a" stroke-width="14.6" stroke-linecap="round" stroke-linejoin="round"/><polyline points="875.9,970.8 875,971.9 874.4,973.4 874.4,975.2 875,977.2 876.3,979 878.2,980.6 880.7,981.6 883.6,982 886.8,981.5 889.9,980.1 892.8,977.8 895.1,974.7 896.6,970.8 897.1,966.4 896.5,961.8 894.6,957.3 891.6,953.2 887.4,949.8 882.2,947.5 876.4,946.4 870.3,946.8 864.3,948.8 858.6,952.4 853.9,957.4 850.4,963.7 848.5,970.8 848.4,978.4 850.2,986.1 853.9,993.4 859.5,999.7 866.6,1004.6 874.9,1007.7 884,1008.8 893.4,1007.6 902.3,1004 910.4,998.3 917,990.5 921.7,981.2 924,970.8 923.7,959.9 920.8,949.1 915.2,939.1 907.1,930.6 897.1,924.2 885.5,920.3 873.1,919.2 860.6,921.2 848.7,926.3 838.1,934.2 829.7,944.7 823.8,957.1 821.1,970.8" fill="none" stroke="#41586a" stroke-width="14.6" stroke-linecap="round" stroke-linejoin="round"/><polyline points="1037.8,970.8 1036.9,971.9 1036.4,973.4 1036.3,975.2 1036.9,977.2 1038.2,979 1040.1,980.6 1042.6,981.6 1045.6,982 1048.7,981.5 1051.8,980.1 1054.7,977.8 1057,974.7 1058.5,970.8 1059,966.4 1058.4,961.8 1056.6,957.3 1053.5,953.2 1049.3,949.8 1044.2,947.5 1038.4,946.4 1032.2,946.8 1026.2,948.8 1020.6,952.4 1015.8,957.4 1012.4,963.7 1010.4,970.8 1010.3,978.4 1012.1,986.1 1015.8,993.4 1021.4,999.7 1028.5,1004.6 1036.8,1007.7 1045.9,1008.8 1055.3,1007.6 1064.3,1004 1072.3,998.3 1078.9,990.5 1083.6,981.2 1085.9,970.8 1085.6,959.9 1082.7,949.1 1077.1,939.1 1069,930.6 1059,924.2 1047.5,920.3 1035.1,919.2 1022.5,921.2 1010.6,926.3 1000.1,934.2 991.6,944.7 985.8,957.1 983,970.8" fill="none" stroke="#41586a" stroke-width="14.6" stroke-linecap="round" stroke-linejoin="round"/><polyline points="1199.7,970.8 1198.8,971.9 1198.3,973.4 1198.3,975.2 1198.9,977.2 1200.1,979 1202.1,980.6 1204.5,981.6 1207.5,982 1210.6,981.5 1213.7,980.1 1216.6,977.8 1218.9,974.7 1220.4,970.8 1221,966.4 1220.3,961.8 1218.5,957.3 1215.4,953.2 1211.2,949.8 1206.1,947.5 1200.3,946.4 1194.2,946.8 1188.1,948.8 1182.5,952.4 1177.7,957.4 1174.3,963.7 1172.3,970.8 1172.2,978.4 1174,986.1 1177.7,993.4 1183.3,999.7 1190.4,1004.6 1198.8,1007.7 1207.9,1008.8 1217.2,1007.6 1226.2,1004 1234.2,998.3 1240.9,990.5 1245.5,981.2 1247.8,970.8 1247.6,959.9 1244.6,949.1 1239,939.1 1231,930.6 1220.9,924.2 1209.4,920.3 1197,919.2 1184.4,921.2 1172.5,926.3 1162,934.2 1153.5,944.7 1147.7,957.1 1144.9,970.8" fill="none" stroke="#41586a" stroke-width="14.6" stroke-linecap="round" stroke-linejoin="round"/><polyline points="1361.7,970.8 1360.7,971.9 1360.2,973.4 1360.2,975.2 1360.8,977.2 1362,979 1364,980.6 1366.5,981.6 1369.4,982 1372.5,981.5 1375.7,980.1 1378.5,977.8 1380.8,974.7 1382.3,970.8 1382.9,966.4 1382.2,961.8 1380.4,957.3 1377.3,953.2 1373.1,949.8 1368,947.5 1362.2,946.4 1356.1,946.8 1350,948.8 1344.4,952.4 1339.7,957.4 1336.2,963.7 1334.3,970.8 1334.1,978.4 1335.9,986.1 1339.7,993.4 1345.2,999.7 1352.3,1004.6 1360.7,1007.7 1369.8,1008.8 1379.1,1007.6 1388.1,1004 1396.2,998.3 1402.8,990.5 1407.4,981.2 1409.7,970.8 1409.5,959.9 1406.5,949.1 1400.9,939.1 1392.9,930.6 1382.8,924.2 1371.3,920.3 1358.9,919.2 1346.4,921.2 1334.4,926.3 1323.9,934.2 1315.4,944.7 1309.6,957.1 1306.9,970.8" fill="none" stroke="#41586a" stroke-width="14.6" stroke-linecap="round" stroke-linejoin="round"/><polyline points="1523.6,970.8 1522.6,971.9 1522.1,973.4 1522.1,975.2 1522.7,977.2 1524,979 1525.9,980.6 1528.4,981.6 1531.3,982 1534.4,981.5 1537.6,980.1 1540.4,977.8 1542.7,974.7 1544.3,970.8 1544.8,966.4 1544.2,961.8 1542.3,957.3 1539.2,953.2 1535,949.8 1529.9,947.5 1524.1,946.4 1518,946.8 1511.9,948.8 1506.3,952.4 1501.6,957.4 1498.1,963.7 1496.2,970.8 1496,978.4 1497.8,986.1 1501.6,993.4 1507.1,999.7 1514.2,1004.6 1522.6,1007.7 1531.7,1008.8 1541,1007.6 1550,1004 1558.1,998.3 1564.7,990.5 1569.3,981.2 1571.7,970.8 1571.4,959.9 1568.4,949.1 1562.8,939.1 1554.8,930.6 1544.7,924.2 1533.2,920.3 1520.8,919.2 1508.3,921.2 1496.4,926.3 1485.8,934.2 1477.3,944.7 1471.5,957.1 1468.8,970.8" fill="none" stroke="#41586a" stroke-width="14.6" stroke-linecap="round" stroke-linejoin="round"/><polyline points="1685.5,970.8 1684.6,971.9 1684,973.4 1684,975.2 1684.6,977.2 1685.9,979 1687.8,980.6 1690.3,981.6 1693.2,982 1696.4,981.5 1699.5,980.1 1702.3,977.8 1704.7,974.7 1706.2,970.8 1706.7,966.4 1706.1,961.8 1704.2,957.3 1701.1,953.2 1696.9,949.8 1691.8,947.5 1686,946.4 1679.9,946.8 1673.8,948.8 1668.2,952.4 1663.5,957.4 1660,963.7 1658.1,970.8 1658,978.4 1659.8,986.1 1663.5,993.4 1669,999.7 1676.2,1004.6 1684.5,1007.7 1693.6,1008.8 1702.9,1007.6 1711.9,1004 1720,998.3 1726.6,990.5 1731.3,981.2 1733.6,970.8 1733.3,959.9 1730.3,949.1 1724.7,939.1 1716.7,930.6 1706.7,924.2 1695.1,920.3 1682.7,919.2 1670.2,921.2 1658.3,926.3 1647.7,934.2 1639.2,944.7 1633.4,957.1 1630.7,970.8" fill="none" stroke="#41586a" stroke-width="14.6" stroke-linecap="round" stroke-linejoin="round"/><polyline points="1847.4,970.8 1846.5,971.9 1845.9,973.4 1845.9,975.2 1846.5,977.2 1847.8,979 1849.7,980.6 1852.2,981.6 1855.1,982 1858.3,981.5 1861.4,980.1 1864.3,977.8 1866.6,974.7 1868.1,970.8 1868.6,966.4 1868,961.8 1866.1,957.3 1863.1,953.2 1858.9,949.8 1853.7,947.5 1847.9,946.4 1841.8,946.8 1835.7,948.8 1830.1,952.4 1825.4,957.4 1821.9,963.7 1820,970.8 1819.9,978.4 1821.7,986.1 1825.4,993.4 1831,999.7 1838.1,1004.6 1846.4,1007.7 1855.5,1008.8 1864.8,1007.6 1873.8,1004 1881.9,998.3 1888.5,990.5 1893.2,981.2 1895.5,970.8 1895.2,959.9 1892.2,949.1 1886.6,939.1 1878.6,930.6 1868.6,924.2 1857,920.3 1844.6,919.2 1832.1,921.2 1820.2,926.3 1809.6,934.2 1801.2,944.7 1795.3,957.1 1792.6,970.8" fill="none" stroke="#41586a" stroke-width="14.6" stroke-linecap="round" stroke-linejoin="round"/><polyline points="2009.3,970.8 2008.4,971.9 2007.9,973.4 2007.8,975.2 2008.4,977.2 2009.7,979 2011.6,980.6 2014.1,981.6 2017,982 2020.2,981.5 2023.3,980.1 2026.2,977.8 2028.5,974.7 2030,970.8 2030.5,966.4 2029.9,961.8 2028.1,957.3 2025,953.2 2020.8,949.8 2015.6,947.5 2009.9,946.4 2003.7,946.8 1997.7,948.8 1992.1,952.4 1987.3,957.4 1983.8,963.7 1981.9,970.8 1981.8,978.4 1983.6,986.1 1987.3,993.4 1992.9,999.7 2000,1004.6 2008.3,1007.7 2017.4,1008.8 2026.8,1007.6 2035.8,1004 2043.8,998.3 2050.4,990.5 2055.1,981.2 2057.4,970.8 2057.1,959.9 2054.2,949.1 2048.6,939.1 2040.5,930.6 2030.5,924.2 2019,920.3 2006.6,919.2 1994,921.2 1982.1,926.3 1971.6,934.2 1963.1,944.7 1957.2,957.1 1954.5,970.8" fill="none" stroke="#41586a" stroke-width="14.6" stroke-linecap="round" stroke-linejoin="round"/><line x1="250" y1="1094.4" x2="2150" y2="1094.4" stroke="#41586a" stroke-width="6"/><path d="M326.5,1179.4 L435.7,1422 L544.9,1179.4 Z M544.9,1179.4 L654.1,1422 L763.2,1179.4 Z M763.2,1179.4 L872.4,1422 L981.6,1179.4 Z M981.6,1179.4 L1090.8,1422 L1200,1179.4 Z M1200,1179.4 L1309.2,1422 L1418.4,1179.4 Z M1418.4,1179.4 L1527.6,1422 L1636.8,1179.4 Z M1636.8,1179.4 L1745.9,1422 L1855.1,1179.4 Z M1855.1,1179.4 L1964.3,1422 L2073.5,1179.4 Z " fill="#a2542f"/><line x1="250" y1="1507" x2="2150" y2="1507" stroke="#41586a" stroke-width="6"/><rect x="250" y="1507" width="1900" height="315" fill="#41586a"/><rect x="280" y="1569.3" width="95.3" height="95.3" fill="#dcd3c2"/><rect x="375.3" y="1664.5" width="95.3" height="95.3" fill="#dcd3c2"/><rect x="470.5" y="1569.3" width="95.3" height="95.3" fill="#dcd3c2"/><rect x="565.8" y="1664.5" width="95.3" height="95.3" fill="#dcd3c2"/><rect x="661" y="1569.3" width="95.3" height="95.3" fill="#dcd3c2"/><rect x="756.3" y="1664.5" width="95.3" height="95.3" fill="#dcd3c2"/><rect x="851.5" y="1569.3" width="95.3" height="95.3" fill="#dcd3c2"/><rect x="946.8" y="1664.5" width="95.3" height="95.3" fill="#dcd3c2"/><rect x="1042" y="1569.3" width="95.3" height="95.3" fill="#dcd3c2"/><rect x="1137.3" y="1664.5" width="95.3" height="95.3" fill="#dcd3c2"/><rect x="1232.5" y="1569.3" width="95.3" height="95.3" fill="#dcd3c2"/><rect x="1327.8" y="1664.5" width="95.3" height="95.3" fill="#dcd3c2"/><rect x="1423.1" y="1569.3" width="95.3" height="95.3" fill="#dcd3c2"/><rect x="1518.3" y="1664.5" width="95.3" height="95.3" fill="#dcd3c2"/><rect x="1613.6" y="1569.3" width="95.3" height="95.3" fill="#dcd3c2"/><rect x="1708.8" y="1664.5" width="95.3" height="95.3" fill="#dcd3c2"/><rect x="1804.1" y="1569.3" width="95.3" height="95.3" fill="#dcd3c2"/><rect x="1899.3" y="1664.5" width="95.3" height="95.3" fill="#dcd3c2"/><rect x="1994.6" y="1569.3" width="95.3" height="95.3" fill="#dcd3c2"/><line x1="250" y1="1822" x2="2150" y2="1822" stroke="#41586a" stroke-width="6"/><line x1="280" y1="2108.6" x2="2120" y2="2108.6" stroke="#a2542f" stroke-width="13"/><line x1="466.1" y1="2097.8" x2="371.2" y2="2036.2" stroke="#a2542f" stroke-width="21.7" stroke-linecap="round"/><line x1="466.1" y1="2097.8" x2="381.7" y2="1989.8" stroke="#a2542f" stroke-width="21.7" stroke-linecap="round"/><line x1="466.1" y1="2097.8" x2="413.7" y2="1945.6" stroke="#a2542f" stroke-width="21.7" stroke-linecap="round"/><line x1="466.1" y1="2097.8" x2="466.1" y2="1912.9" stroke="#a2542f" stroke-width="21.7" stroke-linecap="round"/><line x1="466.1" y1="2097.8" x2="518.4" y2="1945.6" stroke="#a2542f" stroke-width="21.7" stroke-linecap="round"/><line x1="466.1" y1="2097.8" x2="550.4" y2="1989.8" stroke="#a2542f" stroke-width="21.7" stroke-linecap="round"/><line x1="466.1" y1="2097.8" x2="560.9" y2="2036.2" stroke="#a2542f" stroke-width="21.7" stroke-linecap="round"/><line x1="759.6" y1="2097.8" x2="664.8" y2="2036.2" stroke="#a2542f" stroke-width="21.7" stroke-linecap="round"/><line x1="759.6" y1="2097.8" x2="675.3" y2="1989.8" stroke="#a2542f" stroke-width="21.7" stroke-linecap="round"/><line x1="759.6" y1="2097.8" x2="707.2" y2="1945.6" stroke="#a2542f" stroke-width="21.7" stroke-linecap="round"/><line x1="759.6" y1="2097.8" x2="759.6" y2="1912.9" stroke="#a2542f" stroke-width="21.7" stroke-linecap="round"/><line x1="759.6" y1="2097.8" x2="812" y2="1945.6" stroke="#a2542f" stroke-width="21.7" stroke-linecap="round"/><line x1="759.6" y1="2097.8" x2="844" y2="1989.8" stroke="#a2542f" stroke-width="21.7" stroke-linecap="round"/><line x1="759.6" y1="2097.8" x2="854.5" y2="2036.2" stroke="#a2542f" stroke-width="21.7" stroke-linecap="round"/><line x1="1053.2" y1="2097.8" x2="958.4" y2="2036.2" stroke="#a2542f" stroke-width="21.7" stroke-linecap="round"/><line x1="1053.2" y1="2097.8" x2="968.9" y2="1989.8" stroke="#a2542f" stroke-width="21.7" stroke-linecap="round"/><line x1="1053.2" y1="2097.8" x2="1000.8" y2="1945.6" stroke="#a2542f" stroke-width="21.7" stroke-linecap="round"/><line x1="1053.2" y1="2097.8" x2="1053.2" y2="1912.9" stroke="#a2542f" stroke-width="21.7" stroke-linecap="round"/><line x1="1053.2" y1="2097.8" x2="1105.6" y2="1945.6" stroke="#a2542f" stroke-width="21.7" stroke-linecap="round"/><line x1="1053.2" y1="2097.8" x2="1137.6" y2="1989.8" stroke="#a2542f" stroke-width="21.7" stroke-linecap="round"/><line x1="1053.2" y1="2097.8" x2="1148" y2="2036.2" stroke="#a2542f" stroke-width="21.7" stroke-linecap="round"/><line x1="1346.8" y1="2097.8" x2="1252" y2="2036.2" stroke="#a2542f" stroke-width="21.7" stroke-linecap="round"/><line x1="1346.8" y1="2097.8" x2="1262.4" y2="1989.8" stroke="#a2542f" stroke-width="21.7" stroke-linecap="round"/><line x1="1346.8" y1="2097.8" x2="1294.4" y2="1945.6" stroke="#a2542f" stroke-width="21.7" stroke-linecap="round"/><line x1="1346.8" y1="2097.8" x2="1346.8" y2="1912.9" stroke="#a2542f" stroke-width="21.7" stroke-linecap="round"/><line x1="1346.8" y1="2097.8" x2="1399.2" y2="1945.6" stroke="#a2542f" stroke-width="21.7" stroke-linecap="round"/><line x1="1346.8" y1="2097.8" x2="1431.1" y2="1989.8" stroke="#a2542f" stroke-width="21.7" stroke-linecap="round"/><line x1="1346.8" y1="2097.8" x2="1441.6" y2="2036.2" stroke="#a2542f" stroke-width="21.7" stroke-linecap="round"/><line x1="1640.4" y1="2097.8" x2="1545.5" y2="2036.2" stroke="#a2542f" stroke-width="21.7" stroke-linecap="round"/><line x1="1640.4" y1="2097.8" x2="1556" y2="1989.8" stroke="#a2542f" stroke-width="21.7" stroke-linecap="round"/><line x1="1640.4" y1="2097.8" x2="1588" y2="1945.6" stroke="#a2542f" stroke-width="21.7" stroke-linecap="round"/><line x1="1640.4" y1="2097.8" x2="1640.4" y2="1912.9" stroke="#a2542f" stroke-width="21.7" stroke-linecap="round"/><line x1="1640.4" y1="2097.8" x2="1692.8" y2="1945.6" stroke="#a2542f" stroke-width="21.7" stroke-linecap="round"/><line x1="1640.4" y1="2097.8" x2="1724.7" y2="1989.8" stroke="#a2542f" stroke-width="21.7" stroke-linecap="round"/><line x1="1640.4" y1="2097.8" x2="1735.2" y2="2036.2" stroke="#a2542f" stroke-width="21.7" stroke-linecap="round"/><line x1="1933.9" y1="2097.8" x2="1839.1" y2="2036.2" stroke="#a2542f" stroke-width="21.7" stroke-linecap="round"/><line x1="1933.9" y1="2097.8" x2="1849.6" y2="1989.8" stroke="#a2542f" stroke-width="21.7" stroke-linecap="round"/><line x1="1933.9" y1="2097.8" x2="1881.6" y2="1945.6" stroke="#a2542f" stroke-width="21.7" stroke-linecap="round"/><line x1="1933.9" y1="2097.8" x2="1933.9" y2="1912.9" stroke="#a2542f" stroke-width="21.7" stroke-linecap="round"/><line x1="1933.9" y1="2097.8" x2="1986.3" y2="1945.6" stroke="#a2542f" stroke-width="21.7" stroke-linecap="round"/><line x1="1933.9" y1="2097.8" x2="2018.3" y2="1989.8" stroke="#a2542f" stroke-width="21.7" stroke-linecap="round"/><line x1="1933.9" y1="2097.8" x2="2028.8" y2="2036.2" stroke="#a2542f" stroke-width="21.7" stroke-linecap="round"/><line x1="250" y1="2171.9" x2="2150" y2="2171.9" stroke="#41586a" stroke-width="6"/><polyline points="331.3,2364.9 383.3,2250.2 435.2,2364.9" fill="none" stroke="#41586a" stroke-width="18.9"/><polyline points="479.8,2364.9 531.8,2250.2 583.7,2364.9" fill="none" stroke="#41586a" stroke-width="18.9"/><polyline points="628.3,2364.9 680.3,2250.2 732.2,2364.9" fill="none" stroke="#41586a" stroke-width="18.9"/><polyline points="776.8,2364.9 828.8,2250.2 880.7,2364.9" fill="none" stroke="#41586a" stroke-width="18.9"/><polyline points="925.3,2364.9 977.3,2250.2 1029.2,2364.9" fill="none" stroke="#41586a" stroke-width="18.9"/><polyline points="1073.8,2364.9 1125.8,2250.2 1177.7,2364.9" fill="none" stroke="#41586a" stroke-width="18.9"/><polyline points="1222.3,2364.9 1274.2,2250.2 1326.2,2364.9" fill="none" stroke="#41586a" stroke-width="18.9"/><polyline points="1370.8,2364.9 1422.7,2250.2 1474.7,2364.9" fill="none" stroke="#41586a" stroke-width="18.9"/><polyline points="1519.3,2364.9 1571.2,2250.2 1623.2,2364.9" fill="none" stroke="#41586a" stroke-width="18.9"/><polyline points="1667.8,2364.9 1719.7,2250.2 1771.7,2364.9" fill="none" stroke="#41586a" stroke-width="18.9"/><polyline points="1816.3,2364.9 1868.2,2250.2 1920.2,2364.9" fill="none" stroke="#41586a" stroke-width="18.9"/><polyline points="1964.8,2364.9 2016.7,2250.2 2068.7,2364.9" fill="none" stroke="#41586a" stroke-width="18.9"/><line x1="250" y1="2423" x2="2150" y2="2423" stroke="#41586a" stroke-width="6"/><rect x="250" y="2423" width="1900" height="317" fill="#41586a"/><line x1="280" y1="2682.7" x2="2120" y2="2682.7" stroke="#dcd3c2" stroke-width="11.8"/><line x1="534.9" y1="2672.8" x2="449" y2="2617" stroke="#dcd3c2" stroke-width="19.7" stroke-linecap="round"/><line x1="534.9" y1="2672.8" x2="458.5" y2="2575" stroke="#dcd3c2" stroke-width="19.7" stroke-linecap="round"/><line x1="534.9" y1="2672.8" x2="487.5" y2="2535" stroke="#dcd3c2" stroke-width="19.7" stroke-linecap="round"/><line x1="534.9" y1="2672.8" x2="534.9" y2="2505.3" stroke="#dcd3c2" stroke-width="19.7" stroke-linecap="round"/><line x1="534.9" y1="2672.8" x2="582.4" y2="2535" stroke="#dcd3c2" stroke-width="19.7" stroke-linecap="round"/><line x1="534.9" y1="2672.8" x2="611.4" y2="2575" stroke="#dcd3c2" stroke-width="19.7" stroke-linecap="round"/><line x1="534.9" y1="2672.8" x2="620.9" y2="2617" stroke="#dcd3c2" stroke-width="19.7" stroke-linecap="round"/><line x1="801" y1="2672.8" x2="715" y2="2617" stroke="#dcd3c2" stroke-width="19.7" stroke-linecap="round"/><line x1="801" y1="2672.8" x2="724.5" y2="2575" stroke="#dcd3c2" stroke-width="19.7" stroke-linecap="round"/><line x1="801" y1="2672.8" x2="753.5" y2="2535" stroke="#dcd3c2" stroke-width="19.7" stroke-linecap="round"/><line x1="801" y1="2672.8" x2="801" y2="2505.3" stroke="#dcd3c2" stroke-width="19.7" stroke-linecap="round"/><line x1="801" y1="2672.8" x2="848.4" y2="2535" stroke="#dcd3c2" stroke-width="19.7" stroke-linecap="round"/><line x1="801" y1="2672.8" x2="877.4" y2="2575" stroke="#dcd3c2" stroke-width="19.7" stroke-linecap="round"/><line x1="801" y1="2672.8" x2="886.9" y2="2617" stroke="#dcd3c2" stroke-width="19.7" stroke-linecap="round"/><line x1="1067" y1="2672.8" x2="981.1" y2="2617" stroke="#dcd3c2" stroke-width="19.7" stroke-linecap="round"/><line x1="1067" y1="2672.8" x2="990.6" y2="2575" stroke="#dcd3c2" stroke-width="19.7" stroke-linecap="round"/><line x1="1067" y1="2672.8" x2="1019.5" y2="2535" stroke="#dcd3c2" stroke-width="19.7" stroke-linecap="round"/><line x1="1067" y1="2672.8" x2="1067" y2="2505.3" stroke="#dcd3c2" stroke-width="19.7" stroke-linecap="round"/><line x1="1067" y1="2672.8" x2="1114.5" y2="2535" stroke="#dcd3c2" stroke-width="19.7" stroke-linecap="round"/><line x1="1067" y1="2672.8" x2="1143.4" y2="2575" stroke="#dcd3c2" stroke-width="19.7" stroke-linecap="round"/><line x1="1067" y1="2672.8" x2="1152.9" y2="2617" stroke="#dcd3c2" stroke-width="19.7" stroke-linecap="round"/><line x1="1333" y1="2672.8" x2="1247.1" y2="2617" stroke="#dcd3c2" stroke-width="19.7" stroke-linecap="round"/><line x1="1333" y1="2672.8" x2="1256.6" y2="2575" stroke="#dcd3c2" stroke-width="19.7" stroke-linecap="round"/><line x1="1333" y1="2672.8" x2="1285.5" y2="2535" stroke="#dcd3c2" stroke-width="19.7" stroke-linecap="round"/><line x1="1333" y1="2672.8" x2="1333" y2="2505.3" stroke="#dcd3c2" stroke-width="19.7" stroke-linecap="round"/><line x1="1333" y1="2672.8" x2="1380.5" y2="2535" stroke="#dcd3c2" stroke-width="19.7" stroke-linecap="round"/><line x1="1333" y1="2672.8" x2="1409.4" y2="2575" stroke="#dcd3c2" stroke-width="19.7" stroke-linecap="round"/><line x1="1333" y1="2672.8" x2="1418.9" y2="2617" stroke="#dcd3c2" stroke-width="19.7" stroke-linecap="round"/><line x1="1599" y1="2672.8" x2="1513.1" y2="2617" stroke="#dcd3c2" stroke-width="19.7" stroke-linecap="round"/><line x1="1599" y1="2672.8" x2="1522.6" y2="2575" stroke="#dcd3c2" stroke-width="19.7" stroke-linecap="round"/><line x1="1599" y1="2672.8" x2="1551.6" y2="2535" stroke="#dcd3c2" stroke-width="19.7" stroke-linecap="round"/><line x1="1599" y1="2672.8" x2="1599" y2="2505.3" stroke="#dcd3c2" stroke-width="19.7" stroke-linecap="round"/><line x1="1599" y1="2672.8" x2="1646.5" y2="2535" stroke="#dcd3c2" stroke-width="19.7" stroke-linecap="round"/><line x1="1599" y1="2672.8" x2="1675.5" y2="2575" stroke="#dcd3c2" stroke-width="19.7" stroke-linecap="round"/><line x1="1599" y1="2672.8" x2="1685" y2="2617" stroke="#dcd3c2" stroke-width="19.7" stroke-linecap="round"/><line x1="1865.1" y1="2672.8" x2="1779.1" y2="2617" stroke="#dcd3c2" stroke-width="19.7" stroke-linecap="round"/><line x1="1865.1" y1="2672.8" x2="1788.6" y2="2575" stroke="#dcd3c2" stroke-width="19.7" stroke-linecap="round"/><line x1="1865.1" y1="2672.8" x2="1817.6" y2="2535" stroke="#dcd3c2" stroke-width="19.7" stroke-linecap="round"/><line x1="1865.1" y1="2672.8" x2="1865.1" y2="2505.3" stroke="#dcd3c2" stroke-width="19.7" stroke-linecap="round"/><line x1="1865.1" y1="2672.8" x2="1912.5" y2="2535" stroke="#dcd3c2" stroke-width="19.7" stroke-linecap="round"/><line x1="1865.1" y1="2672.8" x2="1941.5" y2="2575" stroke="#dcd3c2" stroke-width="19.7" stroke-linecap="round"/><line x1="1865.1" y1="2672.8" x2="1951" y2="2617" stroke="#dcd3c2" stroke-width="19.7" stroke-linecap="round"/><line x1="250" y1="2740" x2="2150" y2="2740" stroke="#41586a" stroke-width="6"/><line x1="250" y1="260" x2="2150" y2="260" stroke="#41586a" stroke-width="6"/><rect x="104" y="104" width="2192" height="2792" fill="none" stroke="#41586a" stroke-width="16" opacity="0.85"/><rect x="150" y="150" width="2100" height="2700" fill="none" stroke="#41586a" stroke-width="4" opacity="0.55"/></g><rect width="2400" height="3000" filter="url(#a82-mottle)" style="mix-blend-mode:multiply" opacity="0.5"/><rect width="2400" height="3000" filter="url(#a82-fade)" style="mix-blend-mode:screen" opacity="0.55"/><rect width="2400" height="3000" filter="url(#a82-grain)" style="mix-blend-mode:multiply" opacity="0.32"/><ellipse cx="469.8" cy="1105.5" rx="142.4" ry="138.7" fill="#6b4a22" opacity="0.061" filter="url(#a82-blur9)"/><ellipse cx="1936.5" cy="1790.7" rx="144.5" ry="80.1" fill="#6b4a22" opacity="0.050" filter="url(#a82-blur9)"/><ellipse cx="1797.4" cy="933.3" rx="143.6" ry="135.3" fill="#6b4a22" opacity="0.066" filter="url(#a82-blur9)"/><polyline points="2174,2487.1 2191.1,2409.5 2223.3,2329.3 2210.8,2280.2 2235.1,2234.3 2210,2162.3 2085.8,2100.3 1987.6,2032.9 1891.2,1935.6 1856.8,1867.4" fill="none" stroke="#2e2116" stroke-width="4.5" opacity="0.18" stroke-linejoin="round"/><polyline points="2174,2487.1 2191.1,2409.5 2223.3,2329.3 2210.8,2280.2 2235.1,2234.3 2210,2162.3 2085.8,2100.3 1987.6,2032.9 1891.2,1935.6 1856.8,1867.4" fill="none" stroke="#fff8ea" stroke-width="3.1" opacity="0.08" transform="translate(2.5 2.5)" stroke-linejoin="round"/><polyline points="962.9,812.3 1051,875.5 1101.8,909.1 1219.7,909.4 1291.7,870.8 1364.6,815.5 1398.3,742.3 1456.7,609.8 1475.8,523.9 1456.9,394.7 1479.1,336.5 1529.2,297.2 1661.4,257.8" fill="none" stroke="#2e2116" stroke-width="3.8" opacity="0.15" stroke-linejoin="round"/><polyline points="962.9,812.3 1051,875.5 1101.8,909.1 1219.7,909.4 1291.7,870.8 1364.6,815.5 1398.3,742.3 1456.7,609.8 1475.8,523.9 1456.9,394.7 1479.1,336.5 1529.2,297.2 1661.4,257.8" fill="none" stroke="#fff8ea" stroke-width="2.7" opacity="0.14" transform="translate(2.5 2.5)" stroke-linejoin="round"/><polyline points="837.3,779.1 791.5,873.8 816.2,1000.2 846.4,1040.4 947.9,1093.1 1041.6,1059.8 1155.1,1031 1176.9,983 1133.4,892.4" fill="none" stroke="#2e2116" stroke-width="2.7" opacity="0.29" stroke-linejoin="round"/><polyline points="837.3,779.1 791.5,873.8 816.2,1000.2 846.4,1040.4 947.9,1093.1 1041.6,1059.8 1155.1,1031 1176.9,983 1133.4,892.4" fill="none" stroke="#fff8ea" stroke-width="1.9" opacity="0.11" transform="translate(2.5 2.5)" stroke-linejoin="round"/><polyline points="1263.4,1836 1204.1,1909.2 1141.8,1925.3 1106.3,1991.2 1025.1,2029 973.8,2150.4 918.7,2217.1 837.4,2253 761.8,2239.2" fill="none" stroke="#2e2116" stroke-width="4.2" opacity="0.16" stroke-linejoin="round"/><polyline points="1263.4,1836 1204.1,1909.2 1141.8,1925.3 1106.3,1991.2 1025.1,2029 973.8,2150.4 918.7,2217.1 837.4,2253 761.8,2239.2" fill="none" stroke="#fff8ea" stroke-width="2.9" opacity="0.13" transform="translate(2.5 2.5)" stroke-linejoin="round"/><polyline points="1767.6,299 1805.7,387.7 1828.7,442.2 1886.3,490.2 1980.5,514.7 2049,478.7 2090.7,399.3 2058.4,257.2" fill="none" stroke="#2e2116" stroke-width="3.3" opacity="0.19" stroke-linejoin="round"/><polyline points="1767.6,299 1805.7,387.7 1828.7,442.2 1886.3,490.2 1980.5,514.7 2049,478.7 2090.7,399.3 2058.4,257.2" fill="none" stroke="#fff8ea" stroke-width="2.3" opacity="0.13" transform="translate(2.5 2.5)" stroke-linejoin="round"/><polyline points="1086.2,2662.9 995.1,2597.3 882.4,2540.8 833.3,2410.6 874.6,2320.6 933.3,2214 1024.3,2169.4 1113.1,2151.3 1166.4,2170.3 1237.4,2156.2 1352.9,2247.3 1443.1,2337.3" fill="none" stroke="#2e2116" stroke-width="2.9" opacity="0.16" stroke-linejoin="round"/><polyline points="1086.2,2662.9 995.1,2597.3 882.4,2540.8 833.3,2410.6 874.6,2320.6 933.3,2214 1024.3,2169.4 1113.1,2151.3 1166.4,2170.3 1237.4,2156.2 1352.9,2247.3 1443.1,2337.3" fill="none" stroke="#fff8ea" stroke-width="2" opacity="0.13" transform="translate(2.5 2.5)" stroke-linejoin="round"/><path d="M2087.3,2289.1 Q2072.1,2312.1 2052.7,2316 Q2033.3,2319.8 2010,2307.2 Q1986.7,2294.6 1985.6,2264.5 Q1984.5,2234.4 2008.7,2221 Q2032.8,2207.6 2050.4,2214 Q2068,2220.5 2085.2,2243.3 Q2102.4,2266 2087.3,2289.1 Z" fill="#dcd3c2" opacity="0.79"/><path d="M584.3,2529 Q559.9,2552.3 525.3,2569.5 Q490.8,2586.7 450.2,2558.7 Q409.6,2530.8 420.7,2506 Q431.8,2481.2 462,2453.7 Q492.3,2426.1 526.4,2436.3 Q560.6,2446.4 584.7,2476 Q608.8,2505.7 584.3,2529 Z" fill="#dcd3c2" opacity="0.88"/><path d="M1706.3,761.6 Q1658.5,787.1 1625.1,798.5 Q1591.7,809.8 1540.2,789 Q1488.8,768.3 1486.4,740.9 Q1483.9,713.5 1534.3,705.5 Q1584.6,697.6 1627.6,695.4 Q1670.6,693.3 1712.4,714.7 Q1754.2,736.1 1706.3,761.6 Z" fill="#dcd3c2" opacity="0.89"/><path d="M1078.2,1877.8 Q1076.3,1912.4 1054.9,1906.2 Q1033.5,1900.1 1019.5,1882.3 Q1005.4,1864.6 998.5,1836.7 Q991.7,1808.7 1009.4,1779 Q1027.1,1749.4 1050.7,1764.5 Q1074.2,1779.7 1077.2,1811.5 Q1080.2,1843.3 1078.2,1877.8 Z" fill="#dcd3c2" opacity="0.87"/><rect width="2400" height="3000" fill="url(#a82-vig)"/></svg>