<svg xmlns="http://www.w3.org/2000/svg" width="2400" height="3000" viewBox="0 0 2400 3000"><filter id="a29-warp" x="-4%" y="-4%" width="108%" height="108%"><feTurbulence type="fractalNoise" baseFrequency="0.0105" numOctaves="2" seed="4779" result="w"/><feDisplacementMap in="SourceGraphic" in2="w" scale="11" xChannelSelector="R" yChannelSelector="G"/></filter><filter id="a29-grain" x="0%" y="0%" width="100%" height="100%"><feTurbulence type="fractalNoise" baseFrequency="0.6" numOctaves="2" seed="4786"/><feColorMatrix type="matrix" values="0.33 0.33 0.33 0 0.62  0.33 0.33 0.33 0 0.62  0.33 0.33 0.33 0 0.62  0 0 0 0 1"/></filter><filter id="a29-mottle" x="0%" y="0%" width="100%" height="100%"><feTurbulence type="fractalNoise" baseFrequency="0.0045" numOctaves="3" seed="4792"/><feColorMatrix type="matrix" values="0.2 0.2 0.2 0 0.78  0.2 0.2 0.2 0 0.78  0.2 0.2 0.2 0 0.78  0 0 0 0 1"/></filter><filter id="a29-fade" x="0%" y="0%" width="100%" height="100%"><feTurbulence type="fractalNoise" baseFrequency="0.006" numOctaves="2" seed="4808"/><feColorMatrix type="matrix" values="0.3 0.3 0.3 0 -0.08  0.3 0.3 0.3 0 -0.08  0.3 0.3 0.3 0 -0.1  0 0 0 0 1"/></filter><filter id="a29-blur9"><feGaussianBlur stdDeviation="9"/></filter><radialGradient id="a29-vig" cx="50%" cy="44%" r="78%"><stop offset="52%" stop-color="#241a10" stop-opacity="0"/><stop offset="100%" stop-color="#241a10" stop-opacity="0.17"/></radialGradient><radialGradient id="a29-warm" cx="49%" cy="30%" r="85%"><stop offset="0%" stop-color="#e8c890" stop-opacity="0.14"/><stop offset="70%" stop-color="#e8c890" stop-opacity="0"/></radialGradient><rect width="2400" height="3000" fill="#d8c298"/><rect width="2400" height="3000" fill="url(#a29-warm)"/><rect x="0" width="36.6" height="3000" fill="#6b4e26" opacity="0.030"/><rect x="50.8" width="34.3" height="3000" fill="#6b4e26" opacity="0.031"/><rect x="98.4" width="28.1" height="3000" fill="#6b4e26" opacity="0.035"/><rect x="137.4" width="26.4" height="3000" fill="#6b4e26" opacity="0.034"/><rect x="174.1" width="34.3" height="3000" fill="#6b4e26" opacity="0.069"/><rect x="221.8" width="33.3" height="3000" fill="#6b4e26" opacity="0.078"/><rect x="268" width="24.4" height="3000" fill="#6b4e26" opacity="0.035"/><rect x="301.9" width="28.3" height="3000" fill="#6b4e26" opacity="0.047"/><rect x="341.3" width="23.4" height="3000" fill="#6b4e26" opacity="0.073"/><rect x="373.8" width="30.2" height="3000" fill="#6b4e26" opacity="0.073"/><rect x="415.7" width="37.4" height="3000" fill="#6b4e26" opacity="0.070"/><rect x="467.6" width="22.3" height="3000" fill="#6b4e26" opacity="0.074"/><rect x="498.6" width="27.1" height="3000" fill="#6b4e26" opacity="0.082"/><rect x="536.3" width="39.9" height="3000" fill="#6b4e26" opacity="0.074"/><rect x="591.7" width="19.9" height="3000" fill="#6b4e26" opacity="0.087"/><rect x="619.4" width="30.8" height="3000" fill="#6b4e26" opacity="0.061"/><rect x="662.2" width="39.5" height="3000" fill="#6b4e26" opacity="0.077"/><rect x="717" width="33.1" height="3000" fill="#6b4e26" opacity="0.081"/><rect x="763" width="32.4" height="3000" fill="#6b4e26" opacity="0.086"/><rect x="808" width="24.2" height="3000" fill="#6b4e26" opacity="0.047"/><rect x="841.6" width="19.9" height="3000" fill="#6b4e26" opacity="0.099"/><rect x="869.3" width="34.4" height="3000" fill="#6b4e26" opacity="0.031"/><rect x="917.1" width="26" height="3000" fill="#6b4e26" opacity="0.032"/><rect x="953.1" width="40.6" height="3000" fill="#6b4e26" opacity="0.074"/><rect x="1009.5" width="29.6" height="3000" fill="#6b4e26" opacity="0.085"/><rect x="1050.6" width="35.3" height="3000" fill="#6b4e26" opacity="0.048"/><rect x="1099.6" width="38.6" height="3000" fill="#6b4e26" opacity="0.059"/><rect x="1153.2" width="21.1" height="3000" fill="#6b4e26" opacity="0.096"/><rect x="1182.5" width="41.2" height="3000" fill="#6b4e26" opacity="0.059"/><rect x="1239.7" width="36.9" height="3000" fill="#6b4e26" opacity="0.035"/><rect x="1291" width="28.7" height="3000" fill="#6b4e26" opacity="0.089"/><rect x="1330.9" width="36.1" height="3000" fill="#6b4e26" opacity="0.087"/><rect x="1381" width="33" height="3000" fill="#6b4e26" opacity="0.041"/><rect x="1426.8" width="20.4" height="3000" fill="#6b4e26" opacity="0.097"/><rect x="1455.2" width="31" height="3000" fill="#6b4e26" opacity="0.045"/><rect x="1498.2" width="32.1" height="3000" fill="#6b4e26" opacity="0.052"/><rect x="1542.8" width="32.7" height="3000" fill="#6b4e26" opacity="0.082"/><rect x="1588.2" width="38.7" height="3000" fill="#6b4e26" opacity="0.079"/><rect x="1641.9" width="35.4" height="3000" fill="#6b4e26" opacity="0.030"/><rect x="1691" width="21.1" height="3000" fill="#6b4e26" opacity="0.035"/><rect x="1720.4" width="38" height="3000" fill="#6b4e26" opacity="0.039"/><rect x="1773.1" width="21.9" height="3000" fill="#6b4e26" opacity="0.081"/><rect x="1803.6" width="37.1" height="3000" fill="#6b4e26" opacity="0.038"/><rect x="1855.1" width="28.8" height="3000" fill="#6b4e26" opacity="0.036"/><rect x="1895.2" width="34.9" height="3000" fill="#6b4e26" opacity="0.046"/><rect x="1943.7" width="30.3" height="3000" fill="#6b4e26" opacity="0.091"/><rect x="1985.8" width="34.2" height="3000" fill="#6b4e26" opacity="0.083"/><rect x="2033.3" width="27.4" height="3000" fill="#6b4e26" opacity="0.044"/><rect x="2071.3" width="27.3" height="3000" fill="#6b4e26" opacity="0.058"/><rect x="2109.2" width="37.6" height="3000" fill="#6b4e26" opacity="0.039"/><rect x="2161.4" width="38.5" height="3000" fill="#6b4e26" opacity="0.053"/><rect x="2214.9" width="35.9" height="3000" fill="#6b4e26" opacity="0.095"/><rect x="2264.7" width="42.3" height="3000" fill="#6b4e26" opacity="0.038"/><rect x="2323.5" width="30.1" height="3000" fill="#6b4e26" opacity="0.098"/><rect x="2365.3" width="39.8" height="3000" fill="#6b4e26" opacity="0.049"/><rect y="0" width="2400" height="15.4" fill="#7c5c30" opacity="0.042"/><rect y="25.7" width="2400" height="17.8" fill="#7c5c30" opacity="0.020"/><rect y="55.3" width="2400" height="24.3" fill="#7c5c30" opacity="0.046"/><rect y="95.9" width="2400" height="16.1" fill="#7c5c30" opacity="0.022"/><rect y="122.7" width="2400" height="18.3" fill="#7c5c30" opacity="0.044"/><rect y="153.1" width="2400" height="25.4" fill="#7c5c30" opacity="0.031"/><rect y="195.4" width="2400" height="22.3" fill="#7c5c30" opacity="0.058"/><rect y="232.5" width="2400" height="26.4" fill="#7c5c30" opacity="0.039"/><rect y="276.5" width="2400" height="24.7" fill="#7c5c30" opacity="0.032"/><rect y="317.6" width="2400" height="12.9" fill="#7c5c30" opacity="0.032"/><rect y="339.1" width="2400" height="18.1" fill="#7c5c30" opacity="0.042"/><rect y="369.3" width="2400" height="16.4" fill="#7c5c30" opacity="0.053"/><rect y="396.7" width="2400" height="22.5" fill="#7c5c30" opacity="0.028"/><rect y="434.1" width="2400" height="22.8" fill="#7c5c30" opacity="0.045"/><rect y="472.2" width="2400" height="18.2" fill="#7c5c30" opacity="0.039"/><rect y="502.5" width="2400" height="23.9" fill="#7c5c30" opacity="0.024"/><rect y="542.3" width="2400" height="14" fill="#7c5c30" opacity="0.033"/><rect y="565.7" width="2400" height="21.2" fill="#7c5c30" opacity="0.059"/><rect y="601" width="2400" height="13.4" fill="#7c5c30" opacity="0.053"/><rect y="623.4" width="2400" height="22.3" fill="#7c5c30" opacity="0.032"/><rect y="660.5" width="2400" height="20.2" fill="#7c5c30" opacity="0.033"/><rect y="694.2" width="2400" height="14.5" fill="#7c5c30" opacity="0.058"/><rect y="718.3" width="2400" height="12.4" fill="#7c5c30" opacity="0.023"/><rect y="738.9" width="2400" height="14.7" fill="#7c5c30" opacity="0.051"/><rect y="763.4" width="2400" height="14" fill="#7c5c30" opacity="0.046"/><rect y="786.9" width="2400" height="23.9" fill="#7c5c30" opacity="0.059"/><rect y="826.7" width="2400" height="24.7" fill="#7c5c30" opacity="0.037"/><rect y="867.9" width="2400" height="22.6" fill="#7c5c30" opacity="0.058"/><rect y="905.5" width="2400" height="19" fill="#7c5c30" opacity="0.053"/><rect y="937.2" width="2400" height="19.6" fill="#7c5c30" opacity="0.059"/><rect y="969.9" width="2400" height="16.6" fill="#7c5c30" opacity="0.043"/><rect y="997.6" width="2400" height="18.2" fill="#7c5c30" opacity="0.041"/><rect y="1028" width="2400" height="21.2" fill="#7c5c30" opacity="0.042"/><rect y="1063.2" width="2400" height="24.2" fill="#7c5c30" opacity="0.029"/><rect y="1103.6" width="2400" height="27.1" fill="#7c5c30" opacity="0.055"/><rect y="1148.7" width="2400" height="15.6" fill="#7c5c30" opacity="0.026"/><rect y="1174.7" width="2400" height="18.7" fill="#7c5c30" opacity="0.042"/><rect y="1205.9" width="2400" height="14.3" fill="#7c5c30" opacity="0.045"/><rect y="1229.7" width="2400" height="16.8" fill="#7c5c30" opacity="0.022"/><rect y="1257.8" width="2400" height="12.7" fill="#7c5c30" opacity="0.055"/><rect y="1278.8" width="2400" height="13.9" fill="#7c5c30" opacity="0.025"/><rect y="1302" width="2400" height="27.7" fill="#7c5c30" opacity="0.033"/><rect y="1348.1" width="2400" height="18.2" fill="#7c5c30" opacity="0.024"/><rect y="1378.5" width="2400" height="18.6" fill="#7c5c30" opacity="0.035"/><rect y="1409.5" width="2400" height="13.7" fill="#7c5c30" opacity="0.023"/><rect y="1432.4" width="2400" height="24" fill="#7c5c30" opacity="0.026"/><rect y="1472.3" width="2400" height="22.1" fill="#7c5c30" opacity="0.059"/><rect y="1509.1" width="2400" height="12.7" fill="#7c5c30" opacity="0.043"/><rect y="1530.2" width="2400" height="13.6" fill="#7c5c30" opacity="0.054"/><rect y="1553" width="2400" height="27" fill="#7c5c30" opacity="0.054"/><rect y="1597.9" width="2400" height="15.2" fill="#7c5c30" opacity="0.060"/><rect y="1623.3" width="2400" height="21.8" fill="#7c5c30" opacity="0.030"/><rect y="1659.6" width="2400" height="20.7" fill="#7c5c30" opacity="0.044"/><rect y="1694.1" width="2400" height="15.3" fill="#7c5c30" opacity="0.030"/><rect y="1719.6" width="2400" height="22" fill="#7c5c30" opacity="0.027"/><rect y="1756.4" width="2400" height="24.5" fill="#7c5c30" opacity="0.029"/><rect y="1797.2" width="2400" height="21.3" fill="#7c5c30" opacity="0.030"/><rect y="1832.8" width="2400" height="22.2" fill="#7c5c30" opacity="0.047"/><rect y="1869.7" width="2400" height="16.8" fill="#7c5c30" opacity="0.053"/><rect y="1897.8" width="2400" height="17.3" fill="#7c5c30" opacity="0.037"/><rect y="1926.7" width="2400" height="28.3" fill="#7c5c30" opacity="0.025"/><rect y="1973.7" width="2400" height="25.5" fill="#7c5c30" opacity="0.029"/><rect y="2016.2" width="2400" height="27.3" fill="#7c5c30" opacity="0.045"/><rect y="2061.7" width="2400" height="22.1" fill="#7c5c30" opacity="0.033"/><rect y="2098.5" width="2400" height="26.8" fill="#7c5c30" opacity="0.052"/><rect y="2143.2" width="2400" height="19.4" fill="#7c5c30" opacity="0.039"/><rect y="2175.6" width="2400" height="25.7" fill="#7c5c30" opacity="0.050"/><rect y="2218.4" width="2400" height="15.3" fill="#7c5c30" opacity="0.027"/><rect y="2244" width="2400" height="21.4" fill="#7c5c30" opacity="0.059"/><rect y="2279.7" width="2400" height="25" fill="#7c5c30" opacity="0.030"/><rect y="2321.5" width="2400" height="16.6" fill="#7c5c30" opacity="0.035"/><rect y="2349.1" width="2400" height="20.9" fill="#7c5c30" opacity="0.041"/><rect y="2384" width="2400" height="25.3" fill="#7c5c30" opacity="0.039"/><rect y="2426.1" width="2400" height="14.3" fill="#7c5c30" opacity="0.044"/><rect y="2449.9" width="2400" height="20.4" fill="#7c5c30" opacity="0.044"/><rect y="2483.9" width="2400" height="28.6" fill="#7c5c30" opacity="0.029"/><rect y="2531.6" width="2400" height="14.6" fill="#7c5c30" opacity="0.053"/><rect y="2556" width="2400" height="21.1" fill="#7c5c30" opacity="0.040"/><rect y="2591.1" width="2400" height="19.3" fill="#7c5c30" opacity="0.039"/><rect y="2623.3" width="2400" height="18.7" fill="#7c5c30" opacity="0.060"/><rect y="2654.4" width="2400" height="13.7" fill="#7c5c30" opacity="0.027"/><rect y="2677.3" width="2400" height="28.1" fill="#7c5c30" opacity="0.033"/><rect y="2724.1" width="2400" height="26.2" fill="#7c5c30" opacity="0.021"/><rect y="2767.7" width="2400" height="12.3" fill="#7c5c30" opacity="0.046"/><rect y="2788.2" width="2400" height="16.2" fill="#7c5c30" opacity="0.058"/><rect y="2815.1" width="2400" height="15.9" fill="#7c5c30" opacity="0.024"/><rect y="2841.6" width="2400" height="18.3" fill="#7c5c30" opacity="0.028"/><rect y="2872.1" width="2400" height="24" fill="#7c5c30" opacity="0.036"/><rect y="2912.1" width="2400" height="22.4" fill="#7c5c30" opacity="0.027"/><rect y="2949.5" width="2400" height="22.2" fill="#7c5c30" opacity="0.030"/><rect y="2986.6" width="2400" height="25.9" fill="#7c5c30" opacity="0.036"/><g filter="url(#a29-warp)"><rect x="210" y="300" width="1980" height="8.9" fill="#312a1e"/><rect x="210" y="308.4" width="1980" height="8.9" fill="#96422a"/><rect x="210" y="316.8" width="1980" height="8.9" fill="#312a1e"/><rect x="210" y="325.2" width="1980" height="8.9" fill="#b49d72"/><rect x="210" y="333.6" width="1980" height="8.9" fill="#312a1e"/><rect x="210" y="885" width="1980" height="8.9" fill="#312a1e"/><rect x="210" y="893.4" width="1980" height="8.9" fill="#96422a"/><rect x="210" y="901.8" width="1980" height="8.9" fill="#312a1e"/><rect x="210" y="910.2" width="1980" height="8.9" fill="#b49d72"/><rect x="210" y="918.6" width="1980" height="8.9" fill="#312a1e"/><rect x="210" y="1470" width="1980" height="8.9" fill="#312a1e"/><rect x="210" y="1478.4" width="1980" height="8.9" fill="#96422a"/><rect x="210" y="1486.8" width="1980" height="8.9" fill="#312a1e"/><rect x="210" y="1495.2" width="1980" height="8.9" fill="#b49d72"/><rect x="210" y="1503.6" width="1980" height="8.9" fill="#312a1e"/><rect x="210" y="2055" width="1980" height="8.9" fill="#312a1e"/><rect x="210" y="2063.4" width="1980" height="8.9" fill="#96422a"/><rect x="210" y="2071.8" width="1980" height="8.9" fill="#312a1e"/><rect x="210" y="2080.2" width="1980" height="8.9" fill="#b49d72"/><rect x="210" y="2088.6" width="1980" height="8.9" fill="#312a1e"/><rect x="210" y="2640" width="1980" height="8.9" fill="#312a1e"/><rect x="210" y="2648.4" width="1980" height="8.9" fill="#96422a"/><rect x="210" y="2656.8" width="1980" height="8.9" fill="#312a1e"/><rect x="210" y="2665.2" width="1980" height="8.9" fill="#b49d72"/><rect x="210" y="2673.6" width="1980" height="8.9" fill="#312a1e"/><path d="M0 0 Q 74.3 -115.5 0 -304 Q -74.3 -115.5 0 0 Z" fill="#312a1e" opacity="1" transform="translate(457.5 809.7) rotate(-58)"/><path d="M0 0 Q 74.3 -136.2 0 -358.4 Q -74.3 -136.2 0 0 Z" fill="#96422a" opacity="1" transform="translate(457.5 809.7) rotate(-29)"/><path d="M0 0 Q 74.3 -156.9 0 -412.8 Q -74.3 -156.9 0 0 Z" fill="#312a1e" opacity="1" transform="translate(457.5 809.7) rotate(0)"/><path d="M0 0 Q 74.3 -136.2 0 -358.4 Q -74.3 -136.2 0 0 Z" fill="#96422a" opacity="1" transform="translate(457.5 809.7) rotate(29)"/><path d="M0 0 Q 74.3 -115.5 0 -304 Q -74.3 -115.5 0 0 Z" fill="#312a1e" opacity="1" transform="translate(457.5 809.7) rotate(58)"/><path d="M333.7,809.7 Q457.5,950.1 581.3,809.7 Z" fill="#312a1e"/><path d="M0 0 Q 64.3 -122.1 0 -321.3 Q -64.3 -122.1 0 0 Z" fill="#96422a" opacity="1" transform="translate(952.5 809.7) rotate(0)"/><line x1="952.5" y1="809.7" x2="952.5" y2="856.5" stroke="#312a1e" stroke-width="20.1"/><path d="M0 0 Q 67 -104.1 0 -273.9 Q -67 -104.1 0 0 Z" fill="#312a1e" opacity="1" transform="translate(1447.5 809.7) rotate(-58)"/><path d="M0 0 Q 67 -116.5 0 -306.6 Q -67 -116.5 0 0 Z" fill="#96422a" opacity="1" transform="translate(1447.5 809.7) rotate(-38.7)"/><path d="M0 0 Q 67 -128.9 0 -339.3 Q -67 -128.9 0 0 Z" fill="#312a1e" opacity="1" transform="translate(1447.5 809.7) rotate(-19.3)"/><path d="M0 0 Q 67 -141.3 0 -372 Q -67 -141.3 0 0 Z" fill="#96422a" opacity="1" transform="translate(1447.5 809.7) rotate(0)"/><path d="M0 0 Q 67 -128.9 0 -339.3 Q -67 -128.9 0 0 Z" fill="#312a1e" opacity="1" transform="translate(1447.5 809.7) rotate(19.3)"/><path d="M0 0 Q 67 -116.5 0 -306.6 Q -67 -116.5 0 0 Z" fill="#96422a" opacity="1" transform="translate(1447.5 809.7) rotate(38.7)"/><path d="M0 0 Q 67 -104.1 0 -273.9 Q -67 -104.1 0 0 Z" fill="#312a1e" opacity="1" transform="translate(1447.5 809.7) rotate(58)"/><path d="M1335.9,809.7 Q1447.5,936.2 1559.1,809.7 Z" fill="#312a1e"/><path d="M0 0 Q 65.2 -124 0 -326.2 Q -65.2 -124 0 0 Z" fill="#96422a" opacity="1" transform="translate(1942.5 809.7) rotate(0)"/><line x1="1942.5" y1="809.7" x2="1942.5" y2="856.5" stroke="#312a1e" stroke-width="20.4"/><line x1="457.5" y1="1394.7" x2="457.5" y2="1182.9" stroke="#312a1e" stroke-width="23.1"/><line x1="457.5" y1="1182.9" x2="305.2" y2="1108.7" stroke="#312a1e" stroke-width="17.3" stroke-linecap="round"/><circle cx="305.2" cy="1108.7" r="17.3" fill="#96422a"/><line x1="457.5" y1="1182.9" x2="318.7" y2="1058" stroke="#312a1e" stroke-width="17.3" stroke-linecap="round"/><circle cx="318.7" cy="1058" r="17.3" fill="#96422a"/><line x1="457.5" y1="1182.9" x2="349.4" y2="1009.9" stroke="#312a1e" stroke-width="17.3" stroke-linecap="round"/><circle cx="349.4" cy="1009.9" r="17.3" fill="#96422a"/><line x1="457.5" y1="1182.9" x2="396.5" y2="970.1" stroke="#312a1e" stroke-width="17.3" stroke-linecap="round"/><circle cx="396.5" cy="970.1" r="17.3" fill="#96422a"/><line x1="457.5" y1="1182.9" x2="457.5" y2="944.2" stroke="#312a1e" stroke-width="17.3" stroke-linecap="round"/><circle cx="457.5" cy="944.2" r="17.3" fill="#96422a"/><line x1="457.5" y1="1182.9" x2="518.5" y2="970.1" stroke="#312a1e" stroke-width="17.3" stroke-linecap="round"/><circle cx="518.5" cy="970.1" r="17.3" fill="#96422a"/><line x1="457.5" y1="1182.9" x2="565.6" y2="1009.9" stroke="#312a1e" stroke-width="17.3" stroke-linecap="round"/><circle cx="565.6" cy="1009.9" r="17.3" fill="#96422a"/><line x1="457.5" y1="1182.9" x2="596.3" y2="1058" stroke="#312a1e" stroke-width="17.3" stroke-linecap="round"/><circle cx="596.3" cy="1058" r="17.3" fill="#96422a"/><line x1="457.5" y1="1182.9" x2="609.8" y2="1108.7" stroke="#312a1e" stroke-width="17.3" stroke-linecap="round"/><circle cx="609.8" cy="1108.7" r="17.3" fill="#96422a"/><line x1="952.5" y1="1394.7" x2="952.5" y2="1182" stroke="#312a1e" stroke-width="23.2"/><line x1="952.5" y1="1182" x2="799.6" y2="1107.4" stroke="#312a1e" stroke-width="17.4" stroke-linecap="round"/><circle cx="799.6" cy="1107.4" r="17.4" fill="#96422a"/><line x1="952.5" y1="1182" x2="813.1" y2="1056.5" stroke="#312a1e" stroke-width="17.4" stroke-linecap="round"/><circle cx="813.1" cy="1056.5" r="17.4" fill="#96422a"/><line x1="952.5" y1="1182" x2="843.9" y2="1008.2" stroke="#312a1e" stroke-width="17.4" stroke-linecap="round"/><circle cx="843.9" cy="1008.2" r="17.4" fill="#96422a"/><line x1="952.5" y1="1182" x2="891.2" y2="968.3" stroke="#312a1e" stroke-width="17.4" stroke-linecap="round"/><circle cx="891.2" cy="968.3" r="17.4" fill="#96422a"/><line x1="952.5" y1="1182" x2="952.5" y2="942.2" stroke="#312a1e" stroke-width="17.4" stroke-linecap="round"/><circle cx="952.5" cy="942.2" r="17.4" fill="#96422a"/><line x1="952.5" y1="1182" x2="1013.8" y2="968.3" stroke="#312a1e" stroke-width="17.4" stroke-linecap="round"/><circle cx="1013.8" cy="968.3" r="17.4" fill="#96422a"/><line x1="952.5" y1="1182" x2="1061.1" y2="1008.2" stroke="#312a1e" stroke-width="17.4" stroke-linecap="round"/><circle cx="1061.1" cy="1008.2" r="17.4" fill="#96422a"/><line x1="952.5" y1="1182" x2="1091.9" y2="1056.5" stroke="#312a1e" stroke-width="17.4" stroke-linecap="round"/><circle cx="1091.9" cy="1056.5" r="17.4" fill="#96422a"/><line x1="952.5" y1="1182" x2="1105.4" y2="1107.4" stroke="#312a1e" stroke-width="17.4" stroke-linecap="round"/><circle cx="1105.4" cy="1107.4" r="17.4" fill="#96422a"/><line x1="1447.5" y1="1394.7" x2="1447.5" y2="1178.9" stroke="#312a1e" stroke-width="23.5"/><line x1="1447.5" y1="1178.9" x2="1292.4" y2="1103.3" stroke="#312a1e" stroke-width="17.7" stroke-linecap="round"/><circle cx="1292.4" cy="1103.3" r="17.7" fill="#96422a"/><line x1="1447.5" y1="1178.9" x2="1306.1" y2="1051.6" stroke="#312a1e" stroke-width="17.7" stroke-linecap="round"/><circle cx="1306.1" cy="1051.6" r="17.7" fill="#96422a"/><line x1="1447.5" y1="1178.9" x2="1337.3" y2="1002.6" stroke="#312a1e" stroke-width="17.7" stroke-linecap="round"/><circle cx="1337.3" cy="1002.6" r="17.7" fill="#96422a"/><line x1="1447.5" y1="1178.9" x2="1385.3" y2="962.1" stroke="#312a1e" stroke-width="17.7" stroke-linecap="round"/><circle cx="1385.3" cy="962.1" r="17.7" fill="#96422a"/><line x1="1447.5" y1="1178.9" x2="1447.5" y2="935.7" stroke="#312a1e" stroke-width="17.7" stroke-linecap="round"/><circle cx="1447.5" cy="935.7" r="17.7" fill="#96422a"/><line x1="1447.5" y1="1178.9" x2="1509.7" y2="962.1" stroke="#312a1e" stroke-width="17.7" stroke-linecap="round"/><circle cx="1509.7" cy="962.1" r="17.7" fill="#96422a"/><line x1="1447.5" y1="1178.9" x2="1557.7" y2="1002.6" stroke="#312a1e" stroke-width="17.7" stroke-linecap="round"/><circle cx="1557.7" cy="1002.6" r="17.7" fill="#96422a"/><line x1="1447.5" y1="1178.9" x2="1588.9" y2="1051.6" stroke="#312a1e" stroke-width="17.7" stroke-linecap="round"/><circle cx="1588.9" cy="1051.6" r="17.7" fill="#96422a"/><line x1="1447.5" y1="1178.9" x2="1602.6" y2="1103.3" stroke="#312a1e" stroke-width="17.7" stroke-linecap="round"/><circle cx="1602.6" cy="1103.3" r="17.7" fill="#96422a"/><line x1="1942.5" y1="1394.7" x2="1942.5" y2="1188.9" stroke="#312a1e" stroke-width="22.5"/><line x1="1942.5" y1="1188.9" x2="1794.5" y2="1116.7" stroke="#312a1e" stroke-width="16.8" stroke-linecap="round"/><circle cx="1794.5" cy="1116.7" r="16.8" fill="#96422a"/><line x1="1942.5" y1="1188.9" x2="1807.6" y2="1067.5" stroke="#312a1e" stroke-width="16.8" stroke-linecap="round"/><circle cx="1807.6" cy="1067.5" r="16.8" fill="#96422a"/><line x1="1942.5" y1="1188.9" x2="1837.4" y2="1020.7" stroke="#312a1e" stroke-width="16.8" stroke-linecap="round"/><circle cx="1837.4" cy="1020.7" r="16.8" fill="#96422a"/><line x1="1942.5" y1="1188.9" x2="1883.2" y2="982.1" stroke="#312a1e" stroke-width="16.8" stroke-linecap="round"/><circle cx="1883.2" cy="982.1" r="16.8" fill="#96422a"/><line x1="1942.5" y1="1188.9" x2="1942.5" y2="956.9" stroke="#312a1e" stroke-width="16.8" stroke-linecap="round"/><circle cx="1942.5" cy="956.9" r="16.8" fill="#96422a"/><line x1="1942.5" y1="1188.9" x2="2001.8" y2="982.1" stroke="#312a1e" stroke-width="16.8" stroke-linecap="round"/><circle cx="2001.8" cy="982.1" r="16.8" fill="#96422a"/><line x1="1942.5" y1="1188.9" x2="2047.6" y2="1020.7" stroke="#312a1e" stroke-width="16.8" stroke-linecap="round"/><circle cx="2047.6" cy="1020.7" r="16.8" fill="#96422a"/><line x1="1942.5" y1="1188.9" x2="2077.4" y2="1067.5" stroke="#312a1e" stroke-width="16.8" stroke-linecap="round"/><circle cx="2077.4" cy="1067.5" r="16.8" fill="#96422a"/><line x1="1942.5" y1="1188.9" x2="2090.5" y2="1116.7" stroke="#312a1e" stroke-width="16.8" stroke-linecap="round"/><circle cx="2090.5" cy="1116.7" r="16.8" fill="#96422a"/><path d="M0 0 Q 74.4 -115.6 0 -304.3 Q -74.4 -115.6 0 0 Z" fill="#312a1e" opacity="1" transform="translate(457.5 1979.7) rotate(-58)"/><path d="M0 0 Q 74.4 -136.4 0 -358.8 Q -74.4 -136.4 0 0 Z" fill="#96422a" opacity="1" transform="translate(457.5 1979.7) rotate(-29)"/><path d="M0 0 Q 74.4 -157.1 0 -413.3 Q -74.4 -157.1 0 0 Z" fill="#312a1e" opacity="1" transform="translate(457.5 1979.7) rotate(0)"/><path d="M0 0 Q 74.4 -136.4 0 -358.8 Q -74.4 -136.4 0 0 Z" fill="#96422a" opacity="1" transform="translate(457.5 1979.7) rotate(29)"/><path d="M0 0 Q 74.4 -115.6 0 -304.3 Q -74.4 -115.6 0 0 Z" fill="#312a1e" opacity="1" transform="translate(457.5 1979.7) rotate(58)"/><path d="M333.5,1979.7 Q457.5,2120.2 581.5,1979.7 Z" fill="#312a1e"/><path d="M0 0 Q 58.7 -111.5 0 -293.4 Q -58.7 -111.5 0 0 Z" fill="#96422a" opacity="1" transform="translate(952.5 1979.7) rotate(0)"/><line x1="952.5" y1="1979.7" x2="952.5" y2="2026.5" stroke="#312a1e" stroke-width="18.3"/><path d="M0 0 Q 72.1 -112.1 0 -295.1 Q -72.1 -112.1 0 0 Z" fill="#312a1e" opacity="1" transform="translate(1447.5 1979.7) rotate(-58)"/><path d="M0 0 Q 72.1 -125.5 0 -330.3 Q -72.1 -125.5 0 0 Z" fill="#96422a" opacity="1" transform="translate(1447.5 1979.7) rotate(-38.7)"/><path d="M0 0 Q 72.1 -138.9 0 -365.5 Q -72.1 -138.9 0 0 Z" fill="#312a1e" opacity="1" transform="translate(1447.5 1979.7) rotate(-19.3)"/><path d="M0 0 Q 72.1 -152.3 0 -400.7 Q -72.1 -152.3 0 0 Z" fill="#96422a" opacity="1" transform="translate(1447.5 1979.7) rotate(0)"/><path d="M0 0 Q 72.1 -138.9 0 -365.5 Q -72.1 -138.9 0 0 Z" fill="#312a1e" opacity="1" transform="translate(1447.5 1979.7) rotate(19.3)"/><path d="M0 0 Q 72.1 -125.5 0 -330.3 Q -72.1 -125.5 0 0 Z" fill="#96422a" opacity="1" transform="translate(1447.5 1979.7) rotate(38.7)"/><path d="M0 0 Q 72.1 -112.1 0 -295.1 Q -72.1 -112.1 0 0 Z" fill="#312a1e" opacity="1" transform="translate(1447.5 1979.7) rotate(58)"/><path d="M1327.3,1979.7 Q1447.5,2115.9 1567.7,1979.7 Z" fill="#312a1e"/><path d="M0 0 Q 60.7 -115.3 0 -303.3 Q -60.7 -115.3 0 0 Z" fill="#96422a" opacity="1" transform="translate(1942.5 1979.7) rotate(0)"/><line x1="1942.5" y1="1979.7" x2="1942.5" y2="2026.5" stroke="#312a1e" stroke-width="19"/><line x1="408" y1="2564.7" x2="408" y2="2355.5" stroke="#312a1e" stroke-width="22.8"/><line x1="408" y1="2355.5" x2="257.6" y2="2282.2" stroke="#312a1e" stroke-width="17.1" stroke-linecap="round"/><circle cx="257.6" cy="2282.2" r="17.1" fill="#96422a"/><line x1="408" y1="2355.5" x2="270.9" y2="2232.1" stroke="#312a1e" stroke-width="17.1" stroke-linecap="round"/><circle cx="270.9" cy="2232.1" r="17.1" fill="#96422a"/><line x1="408" y1="2355.5" x2="301.2" y2="2184.6" stroke="#312a1e" stroke-width="17.1" stroke-linecap="round"/><circle cx="301.2" cy="2184.6" r="17.1" fill="#96422a"/><line x1="408" y1="2355.5" x2="347.7" y2="2145.3" stroke="#312a1e" stroke-width="17.1" stroke-linecap="round"/><circle cx="347.7" cy="2145.3" r="17.1" fill="#96422a"/><line x1="408" y1="2355.5" x2="408" y2="2119.8" stroke="#312a1e" stroke-width="17.1" stroke-linecap="round"/><circle cx="408" cy="2119.8" r="17.1" fill="#96422a"/><line x1="408" y1="2355.5" x2="468.3" y2="2145.3" stroke="#312a1e" stroke-width="17.1" stroke-linecap="round"/><circle cx="468.3" cy="2145.3" r="17.1" fill="#96422a"/><line x1="408" y1="2355.5" x2="514.8" y2="2184.6" stroke="#312a1e" stroke-width="17.1" stroke-linecap="round"/><circle cx="514.8" cy="2184.6" r="17.1" fill="#96422a"/><line x1="408" y1="2355.5" x2="545.1" y2="2232.1" stroke="#312a1e" stroke-width="17.1" stroke-linecap="round"/><circle cx="545.1" cy="2232.1" r="17.1" fill="#96422a"/><line x1="408" y1="2355.5" x2="558.4" y2="2282.2" stroke="#312a1e" stroke-width="17.1" stroke-linecap="round"/><circle cx="558.4" cy="2282.2" r="17.1" fill="#96422a"/><line x1="804" y1="2564.7" x2="804" y2="2343.7" stroke="#312a1e" stroke-width="24.1"/><line x1="804" y1="2343.7" x2="645.1" y2="2266.2" stroke="#312a1e" stroke-width="18.1" stroke-linecap="round"/><circle cx="645.1" cy="2266.2" r="18.1" fill="#96422a"/><line x1="804" y1="2343.7" x2="659.2" y2="2213.3" stroke="#312a1e" stroke-width="18.1" stroke-linecap="round"/><circle cx="659.2" cy="2213.3" r="18.1" fill="#96422a"/><line x1="804" y1="2343.7" x2="691.1" y2="2163.1" stroke="#312a1e" stroke-width="18.1" stroke-linecap="round"/><circle cx="691.1" cy="2163.1" r="18.1" fill="#96422a"/><line x1="804" y1="2343.7" x2="740.3" y2="2121.6" stroke="#312a1e" stroke-width="18.1" stroke-linecap="round"/><circle cx="740.3" cy="2121.6" r="18.1" fill="#96422a"/><line x1="804" y1="2343.7" x2="804" y2="2094.6" stroke="#312a1e" stroke-width="18.1" stroke-linecap="round"/><circle cx="804" cy="2094.6" r="18.1" fill="#96422a"/><line x1="804" y1="2343.7" x2="867.7" y2="2121.6" stroke="#312a1e" stroke-width="18.1" stroke-linecap="round"/><circle cx="867.7" cy="2121.6" r="18.1" fill="#96422a"/><line x1="804" y1="2343.7" x2="916.9" y2="2163.1" stroke="#312a1e" stroke-width="18.1" stroke-linecap="round"/><circle cx="916.9" cy="2163.1" r="18.1" fill="#96422a"/><line x1="804" y1="2343.7" x2="948.8" y2="2213.3" stroke="#312a1e" stroke-width="18.1" stroke-linecap="round"/><circle cx="948.8" cy="2213.3" r="18.1" fill="#96422a"/><line x1="804" y1="2343.7" x2="962.9" y2="2266.2" stroke="#312a1e" stroke-width="18.1" stroke-linecap="round"/><circle cx="962.9" cy="2266.2" r="18.1" fill="#96422a"/><line x1="1200" y1="2564.7" x2="1200" y2="2351.3" stroke="#312a1e" stroke-width="23.3"/><line x1="1200" y1="2351.3" x2="1046.6" y2="2276.5" stroke="#312a1e" stroke-width="17.5" stroke-linecap="round"/><circle cx="1046.6" cy="2276.5" r="17.5" fill="#96422a"/><line x1="1200" y1="2351.3" x2="1060.2" y2="2225.4" stroke="#312a1e" stroke-width="17.5" stroke-linecap="round"/><circle cx="1060.2" cy="2225.4" r="17.5" fill="#96422a"/><line x1="1200" y1="2351.3" x2="1091" y2="2176.9" stroke="#312a1e" stroke-width="17.5" stroke-linecap="round"/><circle cx="1091" cy="2176.9" r="17.5" fill="#96422a"/><line x1="1200" y1="2351.3" x2="1138.5" y2="2136.8" stroke="#312a1e" stroke-width="17.5" stroke-linecap="round"/><circle cx="1138.5" cy="2136.8" r="17.5" fill="#96422a"/><line x1="1200" y1="2351.3" x2="1200" y2="2110.7" stroke="#312a1e" stroke-width="17.5" stroke-linecap="round"/><circle cx="1200" cy="2110.7" r="17.5" fill="#96422a"/><line x1="1200" y1="2351.3" x2="1261.5" y2="2136.8" stroke="#312a1e" stroke-width="17.5" stroke-linecap="round"/><circle cx="1261.5" cy="2136.8" r="17.5" fill="#96422a"/><line x1="1200" y1="2351.3" x2="1309" y2="2176.9" stroke="#312a1e" stroke-width="17.5" stroke-linecap="round"/><circle cx="1309" cy="2176.9" r="17.5" fill="#96422a"/><line x1="1200" y1="2351.3" x2="1339.8" y2="2225.4" stroke="#312a1e" stroke-width="17.5" stroke-linecap="round"/><circle cx="1339.8" cy="2225.4" r="17.5" fill="#96422a"/><line x1="1200" y1="2351.3" x2="1353.4" y2="2276.5" stroke="#312a1e" stroke-width="17.5" stroke-linecap="round"/><circle cx="1353.4" cy="2276.5" r="17.5" fill="#96422a"/><line x1="1596" y1="2564.7" x2="1596" y2="2340.2" stroke="#312a1e" stroke-width="24.5"/><line x1="1596" y1="2340.2" x2="1434.6" y2="2261.5" stroke="#312a1e" stroke-width="18.4" stroke-linecap="round"/><circle cx="1434.6" cy="2261.5" r="18.4" fill="#96422a"/><line x1="1596" y1="2340.2" x2="1448.9" y2="2207.8" stroke="#312a1e" stroke-width="18.4" stroke-linecap="round"/><circle cx="1448.9" cy="2207.8" r="18.4" fill="#96422a"/><line x1="1596" y1="2340.2" x2="1481.4" y2="2156.8" stroke="#312a1e" stroke-width="18.4" stroke-linecap="round"/><circle cx="1481.4" cy="2156.8" r="18.4" fill="#96422a"/><line x1="1596" y1="2340.2" x2="1531.3" y2="2114.6" stroke="#312a1e" stroke-width="18.4" stroke-linecap="round"/><circle cx="1531.3" cy="2114.6" r="18.4" fill="#96422a"/><line x1="1596" y1="2340.2" x2="1596" y2="2087.2" stroke="#312a1e" stroke-width="18.4" stroke-linecap="round"/><circle cx="1596" cy="2087.2" r="18.4" fill="#96422a"/><line x1="1596" y1="2340.2" x2="1660.7" y2="2114.6" stroke="#312a1e" stroke-width="18.4" stroke-linecap="round"/><circle cx="1660.7" cy="2114.6" r="18.4" fill="#96422a"/><line x1="1596" y1="2340.2" x2="1710.6" y2="2156.8" stroke="#312a1e" stroke-width="18.4" stroke-linecap="round"/><circle cx="1710.6" cy="2156.8" r="18.4" fill="#96422a"/><line x1="1596" y1="2340.2" x2="1743.1" y2="2207.8" stroke="#312a1e" stroke-width="18.4" stroke-linecap="round"/><circle cx="1743.1" cy="2207.8" r="18.4" fill="#96422a"/><line x1="1596" y1="2340.2" x2="1757.4" y2="2261.5" stroke="#312a1e" stroke-width="18.4" stroke-linecap="round"/><circle cx="1757.4" cy="2261.5" r="18.4" fill="#96422a"/><line x1="1992" y1="2564.7" x2="1992" y2="2338.7" stroke="#312a1e" stroke-width="24.7"/><line x1="1992" y1="2338.7" x2="1829.5" y2="2259.4" stroke="#312a1e" stroke-width="18.5" stroke-linecap="round"/><circle cx="1829.5" cy="2259.4" r="18.5" fill="#96422a"/><line x1="1992" y1="2338.7" x2="1843.9" y2="2205.3" stroke="#312a1e" stroke-width="18.5" stroke-linecap="round"/><circle cx="1843.9" cy="2205.3" r="18.5" fill="#96422a"/><line x1="1992" y1="2338.7" x2="1876.6" y2="2154" stroke="#312a1e" stroke-width="18.5" stroke-linecap="round"/><circle cx="1876.6" cy="2154" r="18.5" fill="#96422a"/><line x1="1992" y1="2338.7" x2="1926.9" y2="2111.6" stroke="#312a1e" stroke-width="18.5" stroke-linecap="round"/><circle cx="1926.9" cy="2111.6" r="18.5" fill="#96422a"/><line x1="1992" y1="2338.7" x2="1992" y2="2083.9" stroke="#312a1e" stroke-width="18.5" stroke-linecap="round"/><circle cx="1992" cy="2083.9" r="18.5" fill="#96422a"/><line x1="1992" y1="2338.7" x2="2057.1" y2="2111.6" stroke="#312a1e" stroke-width="18.5" stroke-linecap="round"/><circle cx="2057.1" cy="2111.6" r="18.5" fill="#96422a"/><line x1="1992" y1="2338.7" x2="2107.4" y2="2154" stroke="#312a1e" stroke-width="18.5" stroke-linecap="round"/><circle cx="2107.4" cy="2154" r="18.5" fill="#96422a"/><line x1="1992" y1="2338.7" x2="2140.1" y2="2205.3" stroke="#312a1e" stroke-width="18.5" stroke-linecap="round"/><circle cx="2140.1" cy="2205.3" r="18.5" fill="#96422a"/><line x1="1992" y1="2338.7" x2="2154.5" y2="2259.4" stroke="#312a1e" stroke-width="18.5" stroke-linecap="round"/><circle cx="2154.5" cy="2259.4" r="18.5" fill="#96422a"/><rect x="120" y="120" width="2160" height="2760" fill="none" stroke="#312a1e" stroke-width="6" opacity="0.85"/></g><rect width="2400" height="3000" filter="url(#a29-mottle)" style="mix-blend-mode:multiply" opacity="0.5"/><rect width="2400" height="3000" filter="url(#a29-fade)" style="mix-blend-mode:screen" opacity="0.55"/><rect width="2400" height="3000" filter="url(#a29-grain)" style="mix-blend-mode:multiply" opacity="0.32"/><ellipse cx="1967.1" cy="402.8" rx="303.7" ry="234.5" fill="#6b4a22" opacity="0.063" filter="url(#a29-blur9)"/><ellipse cx="1419.1" cy="1148.5" rx="129.1" ry="101.2" fill="#6b4a22" opacity="0.053" filter="url(#a29-blur9)"/><ellipse cx="1657" cy="1813.1" rx="306.8" ry="271.4" fill="#6b4a22" opacity="0.027" filter="url(#a29-blur9)"/><rect x="0" width="26.3" height="3000" fill="#fff2d0" opacity="0.034"/><rect x="52.5" width="26.7" height="3000" fill="#fff2d0" opacity="0.022"/><rect x="106" width="18.9" height="3000" fill="#fff2d0" opacity="0.041"/><rect x="143.8" width="33.2" height="3000" fill="#fff2d0" opacity="0.020"/><rect x="210.2" width="22.1" height="3000" fill="#fff2d0" opacity="0.042"/><rect x="254.5" width="33.1" height="3000" fill="#fff2d0" opacity="0.036"/><rect x="320.6" width="26.6" height="3000" fill="#fff2d0" opacity="0.034"/><rect x="373.9" width="25" height="3000" fill="#fff2d0" opacity="0.032"/><rect x="423.8" width="23" height="3000" fill="#fff2d0" opacity="0.033"/><rect x="469.8" width="15.8" height="3000" fill="#fff2d0" opacity="0.035"/><rect x="501.3" width="23.7" height="3000" fill="#fff2d0" opacity="0.038"/><rect x="548.7" width="17.4" height="3000" fill="#fff2d0" opacity="0.025"/><rect x="583.4" width="23.8" height="3000" fill="#fff2d0" opacity="0.027"/><rect x="631" width="30" height="3000" fill="#fff2d0" opacity="0.034"/><rect x="691.1" width="27" height="3000" fill="#fff2d0" opacity="0.025"/><rect x="745" width="33.4" height="3000" fill="#fff2d0" opacity="0.028"/><rect x="811.9" width="19.8" height="3000" fill="#fff2d0" opacity="0.038"/><rect x="851.5" width="31.1" height="3000" fill="#fff2d0" opacity="0.037"/><rect x="913.6" width="24.3" height="3000" fill="#fff2d0" opacity="0.028"/><rect x="962.2" width="25.6" height="3000" fill="#fff2d0" opacity="0.019"/><rect x="1013.5" width="19.6" height="3000" fill="#fff2d0" opacity="0.031"/><rect x="1052.8" width="28.8" height="3000" fill="#fff2d0" opacity="0.042"/><rect x="1110.4" width="20.7" height="3000" fill="#fff2d0" opacity="0.037"/><rect x="1151.8" width="18" height="3000" fill="#fff2d0" opacity="0.039"/><rect x="1187.7" width="28.7" height="3000" fill="#fff2d0" opacity="0.035"/><rect x="1245.2" width="31.2" height="3000" fill="#fff2d0" opacity="0.016"/><rect x="1307.6" width="22.9" height="3000" fill="#fff2d0" opacity="0.018"/><rect x="1353.5" width="23.5" height="3000" fill="#fff2d0" opacity="0.037"/><rect x="1400.5" width="23.2" height="3000" fill="#fff2d0" opacity="0.042"/><rect x="1447" width="27.7" height="3000" fill="#fff2d0" opacity="0.029"/><rect x="1502.4" width="25.3" height="3000" fill="#fff2d0" opacity="0.043"/><rect x="1553" width="27.8" height="3000" fill="#fff2d0" opacity="0.017"/><rect x="1608.7" width="34.3" height="3000" fill="#fff2d0" opacity="0.023"/><rect x="1677.3" width="30.1" height="3000" fill="#fff2d0" opacity="0.026"/><rect x="1737.5" width="24.6" height="3000" fill="#fff2d0" opacity="0.019"/><rect x="1786.6" width="33.6" height="3000" fill="#fff2d0" opacity="0.038"/><rect x="1853.8" width="21.2" height="3000" fill="#fff2d0" opacity="0.036"/><rect x="1896.1" width="27.9" height="3000" fill="#fff2d0" opacity="0.044"/><rect x="1951.9" width="28" height="3000" fill="#fff2d0" opacity="0.023"/><rect x="2007.8" width="24.5" height="3000" fill="#fff2d0" opacity="0.034"/><rect x="2056.7" width="26.9" height="3000" fill="#fff2d0" opacity="0.027"/><rect x="2110.5" width="32.8" height="3000" fill="#fff2d0" opacity="0.038"/><rect x="2176.1" width="30" height="3000" fill="#fff2d0" opacity="0.031"/><rect x="2236" width="28.1" height="3000" fill="#fff2d0" opacity="0.031"/><rect x="2292.2" width="21.9" height="3000" fill="#fff2d0" opacity="0.036"/><rect x="2336.1" width="21.4" height="3000" fill="#fff2d0" opacity="0.019"/><rect x="2378.8" width="19.6" height="3000" fill="#fff2d0" opacity="0.026"/><linearGradient id="a29-er" x1="0" x2="1" y1="0" y2="0"><stop offset="0" stop-color="#3a2a12" stop-opacity="0.22"/><stop offset="1" stop-color="#3a2a12" stop-opacity="0"/></linearGradient><rect x="0" y="0" width="90" height="3000" fill="url(#a29-er)"/><linearGradient id="a29-el" x1="1" x2="0" y1="0" y2="0"><stop offset="0" stop-color="#3a2a12" stop-opacity="0.22"/><stop offset="1" stop-color="#3a2a12" stop-opacity="0"/></linearGradient><rect x="2310" y="0" width="90" height="3000" fill="url(#a29-el)"/><linearGradient id="a29-ed" x1="0" x2="0" y1="0" y2="1"><stop offset="0" stop-color="#3a2a12" stop-opacity="0.22"/><stop offset="1" stop-color="#3a2a12" stop-opacity="0"/></linearGradient><rect x="0" y="0" width="2400" height="90" fill="url(#a29-ed)"/><linearGradient id="a29-eu" x1="0" x2="0" y1="1" y2="0"><stop offset="0" stop-color="#3a2a12" stop-opacity="0.22"/><stop offset="1" stop-color="#3a2a12" stop-opacity="0"/></linearGradient><rect x="0" y="2910" width="2400" height="90" fill="url(#a29-eu)"/><circle cx="2106.4" cy="1806.5" r="10.6" fill="#8a5a2e" opacity="0.119"/><circle cx="106.7" cy="330.5" r="8.5" fill="#8a5a2e" opacity="0.123"/><circle cx="1194.4" cy="2600.5" r="9.2" fill="#8a5a2e" opacity="0.050"/><circle cx="1505.6" cy="2275.2" r="13.1" fill="#8a5a2e" opacity="0.083"/><circle cx="1359.4" cy="1818.9" r="5.3" fill="#8a5a2e" opacity="0.044"/><circle cx="1824.6" cy="302.1" r="7.6" fill="#8a5a2e" opacity="0.122"/><circle cx="109.1" cy="494.3" r="4" fill="#8a5a2e" opacity="0.096"/><circle cx="2249.1" cy="1267.7" r="8.3" fill="#8a5a2e" opacity="0.097"/><circle cx="1587.5" cy="2645.2" r="14" fill="#8a5a2e" opacity="0.056"/><rect width="2400" height="3000" fill="url(#a29-vig)"/></svg>