<svg xmlns="http://www.w3.org/2000/svg" width="2400" height="3000" viewBox="0 0 2400 3000"><rect width="2400" height="3000" fill="#141b25"/><radialGradient id="a137-vig" cx="50%" cy="42%" r="80%"><stop offset="55%" stop-color="#000" stop-opacity="0"/><stop offset="100%" stop-color="#000" stop-opacity="0.15"/></radialGradient><rect width="2400" height="3000" fill="url(#a137-vig)"/><circle cx="1527.2" cy="2898" r="3.1" fill="#c9a227" opacity="0.032"/><circle cx="1120.5" cy="828.5" r="2.5" fill="#c9a227" opacity="0.068"/><circle cx="375.3" cy="2056" r="2.2" fill="#c9a227" opacity="0.078"/><circle cx="1218.2" cy="1635" r="2.1" fill="#c9a227" opacity="0.042"/><circle cx="251.1" cy="1826.5" r="2.9" fill="#c9a227" opacity="0.058"/><circle cx="488.6" cy="300.1" r="4.2" fill="#c9a227" opacity="0.074"/><circle cx="532" cy="274.6" r="3.7" fill="#c9a227" opacity="0.052"/><circle cx="1886" cy="2283" r="3.1" fill="#c9a227" opacity="0.078"/><circle cx="1676.6" cy="2412.5" r="2.6" fill="#c9a227" opacity="0.046"/><circle cx="916" cy="868.7" r="1.7" fill="#c9a227" opacity="0.050"/><circle cx="683.8" cy="1208.7" r="4.2" fill="#c9a227" opacity="0.046"/><circle cx="494.1" cy="56.4" r="2" fill="#c9a227" opacity="0.037"/><circle cx="1362.6" cy="250.7" r="2.8" fill="#c9a227" opacity="0.034"/><circle cx="1119.4" cy="1145.1" r="3.1" fill="#c9a227" opacity="0.036"/><circle cx="1462" cy="2946.6" r="2.2" fill="#c9a227" opacity="0.076"/><circle cx="2176.1" cy="464.4" r="3.8" fill="#c9a227" opacity="0.046"/><circle cx="1535.2" cy="1363.6" r="3.9" fill="#c9a227" opacity="0.043"/><circle cx="1889.8" cy="1975.8" r="3" fill="#c9a227" opacity="0.041"/><circle cx="875" cy="2443.5" r="3.3" fill="#c9a227" opacity="0.049"/><circle cx="1206.7" cy="1894.9" r="2.9" fill="#c9a227" opacity="0.039"/><circle cx="664.6" cy="639.6" r="4.5" fill="#c9a227" opacity="0.039"/><circle cx="859.2" cy="1606.3" r="4.2" fill="#c9a227" opacity="0.060"/><circle cx="2119.1" cy="1228.2" r="3.3" fill="#c9a227" opacity="0.039"/><circle cx="922.9" cy="724.2" r="2.1" fill="#c9a227" opacity="0.043"/><circle cx="417.7" cy="67.5" r="3.1" fill="#c9a227" opacity="0.043"/><circle cx="1950.8" cy="2024.1" r="3.7" fill="#c9a227" opacity="0.070"/><circle cx="456.1" cy="658.5" r="1.6" fill="#c9a227" opacity="0.066"/><circle cx="1872.8" cy="2514.9" r="2.6" fill="#c9a227" opacity="0.066"/><circle cx="2224.9" cy="1961.8" r="2.4" fill="#c9a227" opacity="0.037"/><circle cx="553.6" cy="245.1" r="2.9" fill="#c9a227" opacity="0.045"/><circle cx="2222.5" cy="1331.5" r="4.2" fill="#c9a227" opacity="0.053"/><circle cx="1734.6" cy="415.5" r="3.9" fill="#c9a227" opacity="0.075"/><circle cx="1851.5" cy="1053.5" r="3.1" fill="#c9a227" opacity="0.075"/><circle cx="857.4" cy="1707.2" r="2.1" fill="#c9a227" opacity="0.061"/><circle cx="1175.8" cy="1134.4" r="1.9" fill="#c9a227" opacity="0.074"/><circle cx="1598.5" cy="2341.2" r="2.2" fill="#c9a227" opacity="0.043"/><circle cx="940.4" cy="2946.6" r="2.3" fill="#c9a227" opacity="0.053"/><circle cx="91.8" cy="2239.9" r="3.3" fill="#c9a227" opacity="0.042"/><circle cx="2100.8" cy="275.9" r="1.8" fill="#c9a227" opacity="0.032"/><circle cx="951" cy="508.8" r="3" fill="#c9a227" opacity="0.059"/><circle cx="2176.6" cy="793.2" r="2.5" fill="#c9a227" opacity="0.066"/><circle cx="169.3" cy="738.4" r="1.6" fill="#c9a227" opacity="0.061"/><circle cx="1402.9" cy="1469.5" r="2" fill="#c9a227" opacity="0.078"/><circle cx="1082.3" cy="345.8" r="1.9" fill="#c9a227" opacity="0.057"/><circle cx="222.3" cy="628.8" r="3.3" fill="#c9a227" opacity="0.069"/><circle cx="1140.2" cy="1981.5" r="2.3" fill="#c9a227" opacity="0.050"/><circle cx="2062" cy="1475.6" r="2.3" fill="#c9a227" opacity="0.043"/><circle cx="2149.8" cy="2843.1" r="3" fill="#c9a227" opacity="0.043"/><circle cx="2348.3" cy="2083.7" r="3.1" fill="#c9a227" opacity="0.065"/><circle cx="1922" cy="2658.2" r="4.1" fill="#c9a227" opacity="0.044"/><circle cx="2211.8" cy="254.2" r="2" fill="#c9a227" opacity="0.039"/><circle cx="2293.3" cy="719.3" r="2.8" fill="#c9a227" opacity="0.065"/><circle cx="148.6" cy="1612.2" r="3.7" fill="#c9a227" opacity="0.032"/><circle cx="1965.9" cy="1867" r="4.1" fill="#c9a227" opacity="0.036"/><circle cx="2304.2" cy="607.3" r="3.7" fill="#c9a227" opacity="0.042"/><circle cx="1204.6" cy="1919" r="3.8" fill="#c9a227" opacity="0.059"/><circle cx="982.2" cy="621.7" r="3.7" fill="#c9a227" opacity="0.053"/><circle cx="1124.6" cy="735.5" r="3" fill="#c9a227" opacity="0.078"/><circle cx="455" cy="1643.6" r="1.9" fill="#c9a227" opacity="0.065"/><circle cx="430.8" cy="2466.2" r="2.2" fill="#c9a227" opacity="0.033"/><circle cx="1362.5" cy="110.1" r="4.4" fill="#c9a227" opacity="0.055"/><circle cx="908.9" cy="2032" r="2.9" fill="#c9a227" opacity="0.040"/><circle cx="1278.8" cy="851.8" r="2.8" fill="#c9a227" opacity="0.056"/><circle cx="1117.4" cy="2144.5" r="2.5" fill="#c9a227" opacity="0.055"/><circle cx="2239" cy="2591" r="4.4" fill="#c9a227" opacity="0.061"/><circle cx="1800.5" cy="260.9" r="4.2" fill="#c9a227" opacity="0.076"/><circle cx="1064.9" cy="366.5" r="4.2" fill="#c9a227" opacity="0.060"/><circle cx="161.9" cy="223.3" r="2.5" fill="#c9a227" opacity="0.055"/><circle cx="1720.8" cy="2534.6" r="3.2" fill="#c9a227" opacity="0.036"/><circle cx="492.4" cy="534" r="1.7" fill="#c9a227" opacity="0.030"/><circle cx="1375.5" cy="555.1" r="3.7" fill="#c9a227" opacity="0.038"/><circle cx="1730.5" cy="707" r="3.7" fill="#c9a227" opacity="0.065"/><circle cx="691.2" cy="50.4" r="2.3" fill="#c9a227" opacity="0.049"/><circle cx="2050.2" cy="970.4" r="3.9" fill="#c9a227" opacity="0.049"/><circle cx="459.7" cy="1062.2" r="3.1" fill="#c9a227" opacity="0.079"/><circle cx="1111.9" cy="968.2" r="4.1" fill="#c9a227" opacity="0.070"/><circle cx="438.2" cy="1373.5" r="3.4" fill="#c9a227" opacity="0.058"/><circle cx="1164.8" cy="2724.6" r="2.4" fill="#c9a227" opacity="0.053"/><circle cx="1031" cy="1441" r="3.6" fill="#c9a227" opacity="0.038"/><circle cx="1632.8" cy="2471.6" r="2.8" fill="#c9a227" opacity="0.041"/><rect x="200" y="170" width="2000" height="14.5" fill="#c9a227"/><rect x="200" y="184" width="2000" height="14.5" fill="#87681c"/><rect x="200" y="198" width="2000" height="14.5" fill="#c9a227"/><rect x="200" y="212" width="2000" height="14.5" fill="#233142"/><rect x="200" y="226" width="2000" height="14.5" fill="#c9a227"/><rect x="200" y="2760" width="2000" height="14.5" fill="#c9a227"/><rect x="200" y="2774" width="2000" height="14.5" fill="#87681c"/><rect x="200" y="2788" width="2000" height="14.5" fill="#c9a227"/><rect x="200" y="2802" width="2000" height="14.5" fill="#233142"/><rect x="200" y="2816" width="2000" height="14.5" fill="#c9a227"/><circle cx="1200" cy="1030" r="150" fill="#87681c"/><circle cx="1200" cy="1030" r="196" fill="none" stroke="#87681c" stroke-width="10"/><line x1="1110" y1="1540" x2="357.4" y2="1481.8" stroke="#c9a227" stroke-width="34" stroke-linecap="round"/><line x1="1110" y1="1540" x2="383.2" y2="1417.8" stroke="#c9a227" stroke-width="34" stroke-linecap="round"/><line x1="1110" y1="1540" x2="426.9" y2="1356.8" stroke="#c9a227" stroke-width="34" stroke-linecap="round"/><line x1="1110" y1="1540" x2="487.4" y2="1300.2" stroke="#c9a227" stroke-width="34" stroke-linecap="round"/><line x1="1110" y1="1540" x2="563.3" y2="1249.6" stroke="#c9a227" stroke-width="34" stroke-linecap="round"/><line x1="1110" y1="1540" x2="652.6" y2="1206.2" stroke="#c9a227" stroke-width="34" stroke-linecap="round"/><line x1="1110" y1="1540" x2="753.2" y2="1170.9" stroke="#c9a227" stroke-width="34" stroke-linecap="round"/><line x1="1110" y1="1540" x2="862.6" y2="1144.8" stroke="#c9a227" stroke-width="34" stroke-linecap="round"/><line x1="1110" y1="1540" x2="978" y2="1128.4" stroke="#c9a227" stroke-width="34" stroke-linecap="round"/><line x1="1110" y1="1540" x2="515.8" y2="1494.1" stroke="#87681c" stroke-width="30" stroke-linecap="round"/><line x1="1110" y1="1540" x2="536.2" y2="1443.5" stroke="#87681c" stroke-width="30" stroke-linecap="round"/><line x1="1110" y1="1540" x2="570.7" y2="1395.3" stroke="#87681c" stroke-width="30" stroke-linecap="round"/><line x1="1110" y1="1540" x2="618.5" y2="1350.7" stroke="#87681c" stroke-width="30" stroke-linecap="round"/><line x1="1110" y1="1540" x2="678.4" y2="1310.8" stroke="#87681c" stroke-width="30" stroke-linecap="round"/><line x1="1110" y1="1540" x2="748.9" y2="1276.5" stroke="#87681c" stroke-width="30" stroke-linecap="round"/><line x1="1110" y1="1540" x2="828.3" y2="1248.6" stroke="#87681c" stroke-width="30" stroke-linecap="round"/><line x1="1110" y1="1540" x2="914.7" y2="1228" stroke="#87681c" stroke-width="30" stroke-linecap="round"/><line x1="1110" y1="1540" x2="1005.8" y2="1215" stroke="#87681c" stroke-width="30" stroke-linecap="round"/><line x1="1110" y1="1540" x2="664.4" y2="1505.6" stroke="#c9a227" stroke-width="26" stroke-linecap="round"/><line x1="1110" y1="1540" x2="679.7" y2="1467.6" stroke="#c9a227" stroke-width="26" stroke-linecap="round"/><line x1="1110" y1="1540" x2="705.5" y2="1431.5" stroke="#c9a227" stroke-width="26" stroke-linecap="round"/><line x1="1110" y1="1540" x2="741.4" y2="1398" stroke="#c9a227" stroke-width="26" stroke-linecap="round"/><line x1="1110" y1="1540" x2="786.3" y2="1368.1" stroke="#c9a227" stroke-width="26" stroke-linecap="round"/><line x1="1110" y1="1540" x2="839.2" y2="1342.3" stroke="#c9a227" stroke-width="26" stroke-linecap="round"/><line x1="1110" y1="1540" x2="898.7" y2="1321.5" stroke="#c9a227" stroke-width="26" stroke-linecap="round"/><line x1="1110" y1="1540" x2="963.5" y2="1306" stroke="#c9a227" stroke-width="26" stroke-linecap="round"/><line x1="1110" y1="1540" x2="1031.9" y2="1296.3" stroke="#c9a227" stroke-width="26" stroke-linecap="round"/><line x1="1290" y1="1540" x2="2042.6" y2="1481.8" stroke="#c9a227" stroke-width="34" stroke-linecap="round"/><line x1="1290" y1="1540" x2="2016.8" y2="1417.8" stroke="#c9a227" stroke-width="34" stroke-linecap="round"/><line x1="1290" y1="1540" x2="1973.1" y2="1356.8" stroke="#c9a227" stroke-width="34" stroke-linecap="round"/><line x1="1290" y1="1540" x2="1912.6" y2="1300.2" stroke="#c9a227" stroke-width="34" stroke-linecap="round"/><line x1="1290" y1="1540" x2="1836.7" y2="1249.6" stroke="#c9a227" stroke-width="34" stroke-linecap="round"/><line x1="1290" y1="1540" x2="1747.4" y2="1206.2" stroke="#c9a227" stroke-width="34" stroke-linecap="round"/><line x1="1290" y1="1540" x2="1646.8" y2="1170.9" stroke="#c9a227" stroke-width="34" stroke-linecap="round"/><line x1="1290" y1="1540" x2="1537.4" y2="1144.8" stroke="#c9a227" stroke-width="34" stroke-linecap="round"/><line x1="1290" y1="1540" x2="1422" y2="1128.4" stroke="#c9a227" stroke-width="34" stroke-linecap="round"/><line x1="1290" y1="1540" x2="1884.2" y2="1494.1" stroke="#87681c" stroke-width="30" stroke-linecap="round"/><line x1="1290" y1="1540" x2="1863.8" y2="1443.5" stroke="#87681c" stroke-width="30" stroke-linecap="round"/><line x1="1290" y1="1540" x2="1829.3" y2="1395.3" stroke="#87681c" stroke-width="30" stroke-linecap="round"/><line x1="1290" y1="1540" x2="1781.5" y2="1350.7" stroke="#87681c" stroke-width="30" stroke-linecap="round"/><line x1="1290" y1="1540" x2="1721.6" y2="1310.8" stroke="#87681c" stroke-width="30" stroke-linecap="round"/><line x1="1290" y1="1540" x2="1651.1" y2="1276.5" stroke="#87681c" stroke-width="30" stroke-linecap="round"/><line x1="1290" y1="1540" x2="1571.7" y2="1248.6" stroke="#87681c" stroke-width="30" stroke-linecap="round"/><line x1="1290" y1="1540" x2="1485.3" y2="1228" stroke="#87681c" stroke-width="30" stroke-linecap="round"/><line x1="1290" y1="1540" x2="1394.2" y2="1215" stroke="#87681c" stroke-width="30" stroke-linecap="round"/><line x1="1290" y1="1540" x2="1735.6" y2="1505.6" stroke="#c9a227" stroke-width="26" stroke-linecap="round"/><line x1="1290" y1="1540" x2="1720.3" y2="1467.6" stroke="#c9a227" stroke-width="26" stroke-linecap="round"/><line x1="1290" y1="1540" x2="1694.5" y2="1431.5" stroke="#c9a227" stroke-width="26" stroke-linecap="round"/><line x1="1290" y1="1540" x2="1658.6" y2="1398" stroke="#c9a227" stroke-width="26" stroke-linecap="round"/><line x1="1290" y1="1540" x2="1613.7" y2="1368.1" stroke="#c9a227" stroke-width="26" stroke-linecap="round"/><line x1="1290" y1="1540" x2="1560.8" y2="1342.3" stroke="#c9a227" stroke-width="26" stroke-linecap="round"/><line x1="1290" y1="1540" x2="1501.3" y2="1321.5" stroke="#c9a227" stroke-width="26" stroke-linecap="round"/><line x1="1290" y1="1540" x2="1436.5" y2="1306" stroke="#c9a227" stroke-width="26" stroke-linecap="round"/><line x1="1290" y1="1540" x2="1368.1" y2="1296.3" stroke="#c9a227" stroke-width="26" stroke-linecap="round"/><path d="M1080,1500 q -150,-60 -210,-150" fill="none" stroke="#c9a227" stroke-width="26" stroke-linecap="round"/><path d="M1035,1660 q -190,20 -260,-40" fill="none" stroke="#c9a227" stroke-width="26" stroke-linecap="round"/><path d="M1070,1810 q -150,90 -230,80" fill="none" stroke="#c9a227" stroke-width="26" stroke-linecap="round"/><path d="M1320,1500 q 150,-60 210,-150" fill="none" stroke="#c9a227" stroke-width="26" stroke-linecap="round"/><path d="M1365,1660 q 190,20 260,-40" fill="none" stroke="#c9a227" stroke-width="26" stroke-linecap="round"/><path d="M1330,1810 q 150,90 230,80" fill="none" stroke="#c9a227" stroke-width="26" stroke-linecap="round"/><ellipse cx="1200" cy="1660" rx="180" ry="240" fill="#c9a227"/><line x1="1200" y1="1540" x2="1200" y2="1896" stroke="#141b25" stroke-width="9" opacity="0.7"/><path d="M1028,1552 Q 1200,1630 1372,1552" fill="none" stroke="#141b25" stroke-width="9" opacity="0.7"/><path d="M1080,1450 A 130,130 0 0 1 1320,1450 L1278,1495 L1122,1495 Z" fill="#c9a227"/><line x1="1112" y1="1392" x2="1084" y2="1338" stroke="#c9a227" stroke-width="16" stroke-linecap="round"/><line x1="1156" y1="1392" x2="1142" y2="1338" stroke="#c9a227" stroke-width="16" stroke-linecap="round"/><line x1="1200" y1="1392" x2="1200" y2="1338" stroke="#c9a227" stroke-width="16" stroke-linecap="round"/><line x1="1244" y1="1392" x2="1258" y2="1338" stroke="#c9a227" stroke-width="16" stroke-linecap="round"/><line x1="1288" y1="1392" x2="1316" y2="1338" stroke="#c9a227" stroke-width="16" stroke-linecap="round"/><path d="M780,1990 Q 1200,2160 1620,1990 L1560,1990 Q 1200,2090 840,1990 Z" fill="#87681c"/><rect x="100" y="100" width="2200" height="2800" fill="none" stroke="#c9a227" stroke-width="9"/><rect x="142" y="142" width="2116" height="2716" fill="none" stroke="#c9a227" stroke-width="3" opacity="0.65"/></svg>