<svg xmlns="http://www.w3.org/2000/svg" width="2400" height="3000" viewBox="0 0 2400 3000"><rect width="2400" height="3000" fill="#211510"/><radialGradient id="a132-vig" cx="50%" cy="42%" r="80%"><stop offset="55%" stop-color="#000" stop-opacity="0"/><stop offset="100%" stop-color="#000" stop-opacity="0.15"/></radialGradient><rect width="2400" height="3000" fill="url(#a132-vig)"/><circle cx="1847.9" cy="1409.5" r="3.4" fill="#c8703f" opacity="0.051"/><circle cx="1965.7" cy="1901.1" r="1.6" fill="#c8703f" opacity="0.072"/><circle cx="524.2" cy="1550.9" r="4.4" fill="#c8703f" opacity="0.051"/><circle cx="393.6" cy="2262.2" r="2" fill="#c8703f" opacity="0.037"/><circle cx="380.3" cy="1264.2" r="2.3" fill="#c8703f" opacity="0.072"/><circle cx="528.3" cy="1016" r="4.4" fill="#c8703f" opacity="0.046"/><circle cx="147.6" cy="2918.4" r="4.4" fill="#c8703f" opacity="0.054"/><circle cx="257.1" cy="324.4" r="2.7" fill="#c8703f" opacity="0.075"/><circle cx="2319.8" cy="73.3" r="3.4" fill="#c8703f" opacity="0.067"/><circle cx="372.2" cy="1918.2" r="2.6" fill="#c8703f" opacity="0.035"/><circle cx="513.9" cy="1948" r="2.7" fill="#c8703f" opacity="0.070"/><circle cx="200.5" cy="2719.9" r="2.3" fill="#c8703f" opacity="0.033"/><circle cx="1304.3" cy="912.9" r="3.3" fill="#c8703f" opacity="0.052"/><circle cx="1893.5" cy="1103.7" r="4.3" fill="#c8703f" opacity="0.066"/><circle cx="664.1" cy="2650.7" r="3.1" fill="#c8703f" opacity="0.038"/><circle cx="2009.5" cy="1593.6" r="2" fill="#c8703f" opacity="0.044"/><circle cx="2208.1" cy="2073" r="2.2" fill="#c8703f" opacity="0.069"/><circle cx="1607.8" cy="2552" r="3.9" fill="#c8703f" opacity="0.080"/><circle cx="698.4" cy="2815.3" r="3.8" fill="#c8703f" opacity="0.031"/><circle cx="783.3" cy="2030.7" r="3.4" fill="#c8703f" opacity="0.031"/><circle cx="1070.6" cy="2728.7" r="2.9" fill="#c8703f" opacity="0.053"/><circle cx="550.6" cy="1331.9" r="1.8" fill="#c8703f" opacity="0.066"/><circle cx="1700.9" cy="251.7" r="3.5" fill="#c8703f" opacity="0.038"/><circle cx="1914.8" cy="1753.8" r="3.9" fill="#c8703f" opacity="0.046"/><circle cx="2121.8" cy="2779.5" r="3.4" fill="#c8703f" opacity="0.071"/><circle cx="833.3" cy="467.9" r="1.7" fill="#c8703f" opacity="0.052"/><circle cx="1468.3" cy="1310.5" r="1.7" fill="#c8703f" opacity="0.041"/><circle cx="177.4" cy="945.6" r="2" fill="#c8703f" opacity="0.050"/><circle cx="1330.6" cy="101.3" r="4.3" fill="#c8703f" opacity="0.048"/><circle cx="1231.9" cy="240.7" r="3.5" fill="#c8703f" opacity="0.052"/><circle cx="1314.3" cy="2510.2" r="4.1" fill="#c8703f" opacity="0.051"/><circle cx="2182.5" cy="1871.5" r="2.2" fill="#c8703f" opacity="0.054"/><circle cx="513.4" cy="2686.3" r="1.9" fill="#c8703f" opacity="0.070"/><circle cx="1553.8" cy="1196.1" r="2.2" fill="#c8703f" opacity="0.054"/><circle cx="531.2" cy="393.3" r="3.5" fill="#c8703f" opacity="0.079"/><circle cx="318.9" cy="451.4" r="2.8" fill="#c8703f" opacity="0.043"/><circle cx="1165.4" cy="2353.1" r="1.9" fill="#c8703f" opacity="0.078"/><circle cx="1361.6" cy="1853.8" r="3.2" fill="#c8703f" opacity="0.079"/><circle cx="1428.8" cy="807.1" r="3.5" fill="#c8703f" opacity="0.062"/><circle cx="226.8" cy="1043.9" r="4.4" fill="#c8703f" opacity="0.042"/><circle cx="310.1" cy="1373.2" r="3.3" fill="#c8703f" opacity="0.066"/><circle cx="1375.7" cy="713.8" r="2.8" fill="#c8703f" opacity="0.049"/><circle cx="1117.2" cy="1119.5" r="1.6" fill="#c8703f" opacity="0.068"/><circle cx="1131.3" cy="1896.9" r="3.8" fill="#c8703f" opacity="0.079"/><circle cx="399.2" cy="1804.5" r="2.3" fill="#c8703f" opacity="0.056"/><circle cx="2134.3" cy="1134.6" r="3.5" fill="#c8703f" opacity="0.075"/><circle cx="139.7" cy="530.7" r="1.6" fill="#c8703f" opacity="0.045"/><circle cx="1882.7" cy="834.9" r="3.2" fill="#c8703f" opacity="0.031"/><circle cx="1079.6" cy="2715.9" r="2.3" fill="#c8703f" opacity="0.065"/><circle cx="417.1" cy="490.9" r="2.6" fill="#c8703f" opacity="0.039"/><circle cx="1835.1" cy="681.4" r="4.1" fill="#c8703f" opacity="0.070"/><circle cx="764.4" cy="1410.9" r="3.1" fill="#c8703f" opacity="0.051"/><circle cx="1523.9" cy="615.5" r="3.6" fill="#c8703f" opacity="0.073"/><circle cx="2144.3" cy="1639.8" r="3.5" fill="#c8703f" opacity="0.052"/><circle cx="1451" cy="2402.5" r="4.1" fill="#c8703f" opacity="0.073"/><circle cx="677" cy="467.7" r="2.1" fill="#c8703f" opacity="0.059"/><circle cx="764.8" cy="935.5" r="3.5" fill="#c8703f" opacity="0.031"/><circle cx="97.7" cy="1590.7" r="2.7" fill="#c8703f" opacity="0.046"/><circle cx="1855" cy="1521" r="3.5" fill="#c8703f" opacity="0.048"/><circle cx="604" cy="1830.3" r="2.5" fill="#c8703f" opacity="0.059"/><circle cx="834.4" cy="1288.2" r="3.7" fill="#c8703f" opacity="0.048"/><circle cx="1019" cy="2143.9" r="3.6" fill="#c8703f" opacity="0.037"/><circle cx="139.6" cy="1749.9" r="1.8" fill="#c8703f" opacity="0.060"/><circle cx="782.9" cy="1610.9" r="3.9" fill="#c8703f" opacity="0.079"/><circle cx="449.7" cy="1897.5" r="1.9" fill="#c8703f" opacity="0.071"/><circle cx="1631.5" cy="1232.1" r="2.3" fill="#c8703f" opacity="0.060"/><circle cx="662.5" cy="2952.4" r="2" fill="#c8703f" opacity="0.031"/><circle cx="905.7" cy="2055.5" r="4.5" fill="#c8703f" opacity="0.035"/><circle cx="721.3" cy="632.3" r="4.4" fill="#c8703f" opacity="0.070"/><circle cx="528.8" cy="1830.2" r="3.4" fill="#c8703f" opacity="0.066"/><circle cx="1063.8" cy="1170.7" r="2" fill="#c8703f" opacity="0.059"/><circle cx="1849.3" cy="355.3" r="1.9" fill="#c8703f" opacity="0.065"/><circle cx="449.2" cy="117.9" r="3.5" fill="#c8703f" opacity="0.045"/><circle cx="931.7" cy="1656.3" r="3.8" fill="#c8703f" opacity="0.047"/><circle cx="1717.7" cy="2559.4" r="2.2" fill="#c8703f" opacity="0.048"/><circle cx="2269.6" cy="701.2" r="1.9" fill="#c8703f" opacity="0.052"/><circle cx="1474.5" cy="1004.9" r="4.4" fill="#c8703f" opacity="0.035"/><circle cx="81.1" cy="2220.4" r="3.4" fill="#c8703f" opacity="0.055"/><circle cx="1195.8" cy="1937.9" r="2.7" fill="#c8703f" opacity="0.040"/><circle cx="917.6" cy="479.3" r="2.2" fill="#c8703f" opacity="0.072"/><rect x="200" y="170" width="2000" height="14.5" fill="#c8703f"/><rect x="200" y="184" width="2000" height="14.5" fill="#e0a077"/><rect x="200" y="198" width="2000" height="14.5" fill="#c8703f"/><rect x="200" y="212" width="2000" height="14.5" fill="#4a2c1c"/><rect x="200" y="226" width="2000" height="14.5" fill="#c8703f"/><rect x="200" y="2760" width="2000" height="14.5" fill="#c8703f"/><rect x="200" y="2774" width="2000" height="14.5" fill="#e0a077"/><rect x="200" y="2788" width="2000" height="14.5" fill="#c8703f"/><rect x="200" y="2802" width="2000" height="14.5" fill="#4a2c1c"/><rect x="200" y="2816" width="2000" height="14.5" fill="#c8703f"/><circle cx="1200" cy="1030" r="150" fill="#e0a077"/><circle cx="1200" cy="1030" r="196" fill="none" stroke="#e0a077" stroke-width="10"/><line x1="1110" y1="1540" x2="357.4" y2="1481.8" stroke="#c8703f" stroke-width="34" stroke-linecap="round"/><line x1="1110" y1="1540" x2="383.2" y2="1417.8" stroke="#c8703f" stroke-width="34" stroke-linecap="round"/><line x1="1110" y1="1540" x2="426.9" y2="1356.8" stroke="#c8703f" stroke-width="34" stroke-linecap="round"/><line x1="1110" y1="1540" x2="487.4" y2="1300.2" stroke="#c8703f" stroke-width="34" stroke-linecap="round"/><line x1="1110" y1="1540" x2="563.3" y2="1249.6" stroke="#c8703f" stroke-width="34" stroke-linecap="round"/><line x1="1110" y1="1540" x2="652.6" y2="1206.2" stroke="#c8703f" stroke-width="34" stroke-linecap="round"/><line x1="1110" y1="1540" x2="753.2" y2="1170.9" stroke="#c8703f" stroke-width="34" stroke-linecap="round"/><line x1="1110" y1="1540" x2="862.6" y2="1144.8" stroke="#c8703f" stroke-width="34" stroke-linecap="round"/><line x1="1110" y1="1540" x2="978" y2="1128.4" stroke="#c8703f" stroke-width="34" stroke-linecap="round"/><line x1="1110" y1="1540" x2="515.8" y2="1494.1" stroke="#e0a077" stroke-width="30" stroke-linecap="round"/><line x1="1110" y1="1540" x2="536.2" y2="1443.5" stroke="#e0a077" stroke-width="30" stroke-linecap="round"/><line x1="1110" y1="1540" x2="570.7" y2="1395.3" stroke="#e0a077" stroke-width="30" stroke-linecap="round"/><line x1="1110" y1="1540" x2="618.5" y2="1350.7" stroke="#e0a077" stroke-width="30" stroke-linecap="round"/><line x1="1110" y1="1540" x2="678.4" y2="1310.8" stroke="#e0a077" stroke-width="30" stroke-linecap="round"/><line x1="1110" y1="1540" x2="748.9" y2="1276.5" stroke="#e0a077" stroke-width="30" stroke-linecap="round"/><line x1="1110" y1="1540" x2="828.3" y2="1248.6" stroke="#e0a077" stroke-width="30" stroke-linecap="round"/><line x1="1110" y1="1540" x2="914.7" y2="1228" stroke="#e0a077" stroke-width="30" stroke-linecap="round"/><line x1="1110" y1="1540" x2="1005.8" y2="1215" stroke="#e0a077" stroke-width="30" stroke-linecap="round"/><line x1="1110" y1="1540" x2="664.4" y2="1505.6" stroke="#c8703f" stroke-width="26" stroke-linecap="round"/><line x1="1110" y1="1540" x2="679.7" y2="1467.6" stroke="#c8703f" stroke-width="26" stroke-linecap="round"/><line x1="1110" y1="1540" x2="705.5" y2="1431.5" stroke="#c8703f" stroke-width="26" stroke-linecap="round"/><line x1="1110" y1="1540" x2="741.4" y2="1398" stroke="#c8703f" stroke-width="26" stroke-linecap="round"/><line x1="1110" y1="1540" x2="786.3" y2="1368.1" stroke="#c8703f" stroke-width="26" stroke-linecap="round"/><line x1="1110" y1="1540" x2="839.2" y2="1342.3" stroke="#c8703f" stroke-width="26" stroke-linecap="round"/><line x1="1110" y1="1540" x2="898.7" y2="1321.5" stroke="#c8703f" stroke-width="26" stroke-linecap="round"/><line x1="1110" y1="1540" x2="963.5" y2="1306" stroke="#c8703f" stroke-width="26" stroke-linecap="round"/><line x1="1110" y1="1540" x2="1031.9" y2="1296.3" stroke="#c8703f" stroke-width="26" stroke-linecap="round"/><line x1="1290" y1="1540" x2="2042.6" y2="1481.8" stroke="#c8703f" stroke-width="34" stroke-linecap="round"/><line x1="1290" y1="1540" x2="2016.8" y2="1417.8" stroke="#c8703f" stroke-width="34" stroke-linecap="round"/><line x1="1290" y1="1540" x2="1973.1" y2="1356.8" stroke="#c8703f" stroke-width="34" stroke-linecap="round"/><line x1="1290" y1="1540" x2="1912.6" y2="1300.2" stroke="#c8703f" stroke-width="34" stroke-linecap="round"/><line x1="1290" y1="1540" x2="1836.7" y2="1249.6" stroke="#c8703f" stroke-width="34" stroke-linecap="round"/><line x1="1290" y1="1540" x2="1747.4" y2="1206.2" stroke="#c8703f" stroke-width="34" stroke-linecap="round"/><line x1="1290" y1="1540" x2="1646.8" y2="1170.9" stroke="#c8703f" stroke-width="34" stroke-linecap="round"/><line x1="1290" y1="1540" x2="1537.4" y2="1144.8" stroke="#c8703f" stroke-width="34" stroke-linecap="round"/><line x1="1290" y1="1540" x2="1422" y2="1128.4" stroke="#c8703f" stroke-width="34" stroke-linecap="round"/><line x1="1290" y1="1540" x2="1884.2" y2="1494.1" stroke="#e0a077" stroke-width="30" stroke-linecap="round"/><line x1="1290" y1="1540" x2="1863.8" y2="1443.5" stroke="#e0a077" stroke-width="30" stroke-linecap="round"/><line x1="1290" y1="1540" x2="1829.3" y2="1395.3" stroke="#e0a077" stroke-width="30" stroke-linecap="round"/><line x1="1290" y1="1540" x2="1781.5" y2="1350.7" stroke="#e0a077" stroke-width="30" stroke-linecap="round"/><line x1="1290" y1="1540" x2="1721.6" y2="1310.8" stroke="#e0a077" stroke-width="30" stroke-linecap="round"/><line x1="1290" y1="1540" x2="1651.1" y2="1276.5" stroke="#e0a077" stroke-width="30" stroke-linecap="round"/><line x1="1290" y1="1540" x2="1571.7" y2="1248.6" stroke="#e0a077" stroke-width="30" stroke-linecap="round"/><line x1="1290" y1="1540" x2="1485.3" y2="1228" stroke="#e0a077" stroke-width="30" stroke-linecap="round"/><line x1="1290" y1="1540" x2="1394.2" y2="1215" stroke="#e0a077" stroke-width="30" stroke-linecap="round"/><line x1="1290" y1="1540" x2="1735.6" y2="1505.6" stroke="#c8703f" stroke-width="26" stroke-linecap="round"/><line x1="1290" y1="1540" x2="1720.3" y2="1467.6" stroke="#c8703f" stroke-width="26" stroke-linecap="round"/><line x1="1290" y1="1540" x2="1694.5" y2="1431.5" stroke="#c8703f" stroke-width="26" stroke-linecap="round"/><line x1="1290" y1="1540" x2="1658.6" y2="1398" stroke="#c8703f" stroke-width="26" stroke-linecap="round"/><line x1="1290" y1="1540" x2="1613.7" y2="1368.1" stroke="#c8703f" stroke-width="26" stroke-linecap="round"/><line x1="1290" y1="1540" x2="1560.8" y2="1342.3" stroke="#c8703f" stroke-width="26" stroke-linecap="round"/><line x1="1290" y1="1540" x2="1501.3" y2="1321.5" stroke="#c8703f" stroke-width="26" stroke-linecap="round"/><line x1="1290" y1="1540" x2="1436.5" y2="1306" stroke="#c8703f" stroke-width="26" stroke-linecap="round"/><line x1="1290" y1="1540" x2="1368.1" y2="1296.3" stroke="#c8703f" stroke-width="26" stroke-linecap="round"/><path d="M1080,1500 q -150,-60 -210,-150" fill="none" stroke="#c8703f" stroke-width="26" stroke-linecap="round"/><path d="M1035,1660 q -190,20 -260,-40" fill="none" stroke="#c8703f" stroke-width="26" stroke-linecap="round"/><path d="M1070,1810 q -150,90 -230,80" fill="none" stroke="#c8703f" stroke-width="26" stroke-linecap="round"/><path d="M1320,1500 q 150,-60 210,-150" fill="none" stroke="#c8703f" stroke-width="26" stroke-linecap="round"/><path d="M1365,1660 q 190,20 260,-40" fill="none" stroke="#c8703f" stroke-width="26" stroke-linecap="round"/><path d="M1330,1810 q 150,90 230,80" fill="none" stroke="#c8703f" stroke-width="26" stroke-linecap="round"/><ellipse cx="1200" cy="1660" rx="180" ry="240" fill="#c8703f"/><line x1="1200" y1="1540" x2="1200" y2="1896" stroke="#211510" stroke-width="9" opacity="0.7"/><path d="M1028,1552 Q 1200,1630 1372,1552" fill="none" stroke="#211510" stroke-width="9" opacity="0.7"/><path d="M1080,1450 A 130,130 0 0 1 1320,1450 L1278,1495 L1122,1495 Z" fill="#c8703f"/><line x1="1112" y1="1392" x2="1084" y2="1338" stroke="#c8703f" stroke-width="16" stroke-linecap="round"/><line x1="1156" y1="1392" x2="1142" y2="1338" stroke="#c8703f" stroke-width="16" stroke-linecap="round"/><line x1="1200" y1="1392" x2="1200" y2="1338" stroke="#c8703f" stroke-width="16" stroke-linecap="round"/><line x1="1244" y1="1392" x2="1258" y2="1338" stroke="#c8703f" stroke-width="16" stroke-linecap="round"/><line x1="1288" y1="1392" x2="1316" y2="1338" stroke="#c8703f" stroke-width="16" stroke-linecap="round"/><path d="M780,1990 Q 1200,2160 1620,1990 L1560,1990 Q 1200,2090 840,1990 Z" fill="#e0a077"/><rect x="100" y="100" width="2200" height="2800" fill="none" stroke="#c8703f" stroke-width="9"/><rect x="142" y="142" width="2116" height="2716" fill="none" stroke="#c8703f" stroke-width="3" opacity="0.65"/></svg>