<svg xmlns="http://www.w3.org/2000/svg" width="2400" height="3000" viewBox="0 0 2400 3000"><rect width="2400" height="3000" fill="#2b2f36"/><radialGradient id="a192-vig" cx="50%" cy="42%" r="80%"><stop offset="55%" stop-color="#000" stop-opacity="0"/><stop offset="100%" stop-color="#000" stop-opacity="0.15"/></radialGradient><rect width="2400" height="3000" fill="url(#a192-vig)"/><circle cx="2168.3" cy="2576.6" r="1.6" fill="#b3873e" opacity="0.057"/><circle cx="233.7" cy="1084" r="2.1" fill="#b3873e" opacity="0.031"/><circle cx="1922" cy="800.6" r="2.1" fill="#b3873e" opacity="0.069"/><circle cx="1740.5" cy="2063.3" r="3.7" fill="#b3873e" opacity="0.044"/><circle cx="633.7" cy="1117.8" r="3.8" fill="#b3873e" opacity="0.037"/><circle cx="161" cy="764.9" r="2.7" fill="#b3873e" opacity="0.073"/><circle cx="167" cy="1532.2" r="4.1" fill="#b3873e" opacity="0.057"/><circle cx="1854.3" cy="592.7" r="4.2" fill="#b3873e" opacity="0.038"/><circle cx="990.2" cy="2930.2" r="4.1" fill="#b3873e" opacity="0.053"/><circle cx="1078.3" cy="1009.1" r="1.6" fill="#b3873e" opacity="0.032"/><circle cx="560.9" cy="2540.5" r="4.1" fill="#b3873e" opacity="0.069"/><circle cx="1961.4" cy="1365.9" r="3.5" fill="#b3873e" opacity="0.062"/><circle cx="1556.2" cy="1761.1" r="4.3" fill="#b3873e" opacity="0.075"/><circle cx="89.2" cy="275.7" r="3.7" fill="#b3873e" opacity="0.052"/><circle cx="977" cy="2583.1" r="3.3" fill="#b3873e" opacity="0.078"/><circle cx="97.2" cy="2766.4" r="2.8" fill="#b3873e" opacity="0.046"/><circle cx="84" cy="2177.8" r="1.9" fill="#b3873e" opacity="0.043"/><circle cx="1856.1" cy="564.5" r="2.4" fill="#b3873e" opacity="0.055"/><circle cx="1958.2" cy="2620.8" r="4.1" fill="#b3873e" opacity="0.078"/><circle cx="1684.4" cy="1650.5" r="3.6" fill="#b3873e" opacity="0.065"/><circle cx="1210.1" cy="2794" r="4" fill="#b3873e" opacity="0.064"/><circle cx="712.8" cy="1977.2" r="4" fill="#b3873e" opacity="0.057"/><circle cx="1057.6" cy="2799.7" r="2" fill="#b3873e" opacity="0.030"/><circle cx="695.9" cy="2242.3" r="3.8" fill="#b3873e" opacity="0.040"/><circle cx="1613" cy="1947.9" r="2.3" fill="#b3873e" opacity="0.037"/><circle cx="557.8" cy="1722.9" r="3.2" fill="#b3873e" opacity="0.044"/><circle cx="489.1" cy="2492.5" r="1.5" fill="#b3873e" opacity="0.078"/><circle cx="1835.6" cy="2068.6" r="3.2" fill="#b3873e" opacity="0.076"/><circle cx="179.2" cy="710.6" r="2" fill="#b3873e" opacity="0.043"/><circle cx="2201.1" cy="2853.6" r="2.2" fill="#b3873e" opacity="0.076"/><circle cx="1923.8" cy="1569.9" r="3.3" fill="#b3873e" opacity="0.033"/><circle cx="297.3" cy="2940.8" r="4" fill="#b3873e" opacity="0.061"/><circle cx="2145.5" cy="1330.6" r="3.6" fill="#b3873e" opacity="0.059"/><circle cx="521.5" cy="905" r="4.5" fill="#b3873e" opacity="0.068"/><circle cx="2120.7" cy="1530.3" r="4.3" fill="#b3873e" opacity="0.048"/><circle cx="1723.9" cy="102.8" r="3.2" fill="#b3873e" opacity="0.075"/><circle cx="1656.5" cy="2357" r="3.2" fill="#b3873e" opacity="0.071"/><circle cx="2328.2" cy="57.5" r="2.5" fill="#b3873e" opacity="0.035"/><circle cx="563.3" cy="2907.7" r="2.5" fill="#b3873e" opacity="0.077"/><circle cx="1827.4" cy="824.7" r="3.9" fill="#b3873e" opacity="0.033"/><circle cx="1859.1" cy="2518.4" r="1.8" fill="#b3873e" opacity="0.059"/><circle cx="913.1" cy="798.3" r="3.7" fill="#b3873e" opacity="0.080"/><circle cx="2031.4" cy="232.4" r="1.5" fill="#b3873e" opacity="0.031"/><circle cx="837.4" cy="2001" r="1.8" fill="#b3873e" opacity="0.050"/><circle cx="1618.6" cy="2889.6" r="3.4" fill="#b3873e" opacity="0.076"/><circle cx="1743.7" cy="839.5" r="2.3" fill="#b3873e" opacity="0.066"/><circle cx="390.4" cy="987.5" r="4.2" fill="#b3873e" opacity="0.063"/><circle cx="1237.1" cy="663" r="1.7" fill="#b3873e" opacity="0.067"/><circle cx="712" cy="2016.7" r="1.8" fill="#b3873e" opacity="0.076"/><circle cx="1974.3" cy="2430.6" r="3.4" fill="#b3873e" opacity="0.074"/><circle cx="2167.2" cy="2362.8" r="1.7" fill="#b3873e" opacity="0.045"/><circle cx="2277.3" cy="2567.5" r="2" fill="#b3873e" opacity="0.062"/><circle cx="182.5" cy="2128.1" r="4.3" fill="#b3873e" opacity="0.032"/><circle cx="627.7" cy="417.9" r="3.3" fill="#b3873e" opacity="0.047"/><circle cx="1461.9" cy="1070.1" r="2.6" fill="#b3873e" opacity="0.036"/><circle cx="2035.3" cy="2928.8" r="3.8" fill="#b3873e" opacity="0.052"/><circle cx="942.6" cy="1973.5" r="3.9" fill="#b3873e" opacity="0.060"/><circle cx="1448.8" cy="2512.4" r="1.8" fill="#b3873e" opacity="0.061"/><circle cx="124.1" cy="1735.5" r="3.2" fill="#b3873e" opacity="0.040"/><circle cx="366" cy="2404" r="4.1" fill="#b3873e" opacity="0.065"/><circle cx="1594.1" cy="2096.3" r="3.2" fill="#b3873e" opacity="0.046"/><circle cx="773.5" cy="2366.4" r="3.8" fill="#b3873e" opacity="0.076"/><circle cx="1964.8" cy="920.8" r="4.1" fill="#b3873e" opacity="0.079"/><circle cx="1734.7" cy="2166.2" r="1.9" fill="#b3873e" opacity="0.058"/><circle cx="338.3" cy="1365.7" r="2.2" fill="#b3873e" opacity="0.031"/><circle cx="230.8" cy="327.7" r="1.8" fill="#b3873e" opacity="0.070"/><circle cx="302.7" cy="2294.4" r="1.9" fill="#b3873e" opacity="0.064"/><circle cx="1399" cy="2609.9" r="3.6" fill="#b3873e" opacity="0.053"/><circle cx="66.8" cy="1499.6" r="4.4" fill="#b3873e" opacity="0.054"/><circle cx="1330.7" cy="862.3" r="2.6" fill="#b3873e" opacity="0.047"/><circle cx="302" cy="2731.4" r="3.1" fill="#b3873e" opacity="0.075"/><circle cx="687.5" cy="2042.9" r="3.7" fill="#b3873e" opacity="0.072"/><circle cx="412.9" cy="80.9" r="2.2" fill="#b3873e" opacity="0.059"/><circle cx="2015.5" cy="2959.5" r="2.4" fill="#b3873e" opacity="0.066"/><circle cx="426.7" cy="138.7" r="2" fill="#b3873e" opacity="0.059"/><circle cx="1041.5" cy="1859.7" r="3.7" fill="#b3873e" opacity="0.039"/><circle cx="913.4" cy="305.4" r="1.7" fill="#b3873e" opacity="0.032"/><circle cx="1873.2" cy="454.2" r="3.4" fill="#b3873e" opacity="0.058"/><circle cx="559.8" cy="97.3" r="3.7" fill="#b3873e" opacity="0.031"/><circle cx="74.2" cy="2794.9" r="4.5" fill="#b3873e" opacity="0.063"/><circle cx="1200" cy="1420" r="900" fill="none" stroke="#b3873e" stroke-width="12"/><line x1="2066" y1="1420" x2="2100" y2="1420" stroke="#b3873e" stroke-width="8"/><line x1="2058.6" y1="1533" x2="2092.3" y2="1537.5" stroke="#b3873e" stroke-width="8"/><line x1="2036.5" y1="1644.1" x2="2069.3" y2="1652.9" stroke="#b3873e" stroke-width="8"/><line x1="2000.1" y1="1751.4" x2="2031.5" y2="1764.4" stroke="#b3873e" stroke-width="8"/><line x1="1950" y1="1853" x2="1979.4" y2="1870" stroke="#b3873e" stroke-width="8"/><line x1="1887" y1="1947.2" x2="1914" y2="1967.9" stroke="#b3873e" stroke-width="8"/><line x1="1812.4" y1="2032.4" x2="1836.4" y2="2056.4" stroke="#b3873e" stroke-width="8"/><line x1="1727.2" y1="2107" x2="1747.9" y2="2134" stroke="#b3873e" stroke-width="8"/><line x1="1633" y1="2170" x2="1650" y2="2199.4" stroke="#b3873e" stroke-width="8"/><line x1="1531.4" y1="2220.1" x2="1544.4" y2="2251.5" stroke="#b3873e" stroke-width="8"/><line x1="1424.1" y1="2256.5" x2="1432.9" y2="2289.3" stroke="#b3873e" stroke-width="8"/><line x1="1313" y1="2278.6" x2="1317.5" y2="2312.3" stroke="#b3873e" stroke-width="8"/><line x1="1200" y1="2286" x2="1200" y2="2320" stroke="#b3873e" stroke-width="8"/><line x1="1087" y1="2278.6" x2="1082.5" y2="2312.3" stroke="#b3873e" stroke-width="8"/><line x1="975.9" y1="2256.5" x2="967.1" y2="2289.3" stroke="#b3873e" stroke-width="8"/><line x1="868.6" y1="2220.1" x2="855.6" y2="2251.5" stroke="#b3873e" stroke-width="8"/><line x1="767" y1="2170" x2="750" y2="2199.4" stroke="#b3873e" stroke-width="8"/><line x1="672.8" y1="2107" x2="652.1" y2="2134" stroke="#b3873e" stroke-width="8"/><line x1="587.6" y1="2032.4" x2="563.6" y2="2056.4" stroke="#b3873e" stroke-width="8"/><line x1="513" y1="1947.2" x2="486" y2="1967.9" stroke="#b3873e" stroke-width="8"/><line x1="450" y1="1853" x2="420.6" y2="1870" stroke="#b3873e" stroke-width="8"/><line x1="399.9" y1="1751.4" x2="368.5" y2="1764.4" stroke="#b3873e" stroke-width="8"/><line x1="363.5" y1="1644.1" x2="330.7" y2="1652.9" stroke="#b3873e" stroke-width="8"/><line x1="341.4" y1="1533" x2="307.7" y2="1537.5" stroke="#b3873e" stroke-width="8"/><line x1="334" y1="1420" x2="300" y2="1420" stroke="#b3873e" stroke-width="8"/><line x1="341.4" y1="1307" x2="307.7" y2="1302.5" stroke="#b3873e" stroke-width="8"/><line x1="363.5" y1="1195.9" x2="330.7" y2="1187.1" stroke="#b3873e" stroke-width="8"/><line x1="399.9" y1="1088.6" x2="368.5" y2="1075.6" stroke="#b3873e" stroke-width="8"/><line x1="450" y1="987" x2="420.6" y2="970" stroke="#b3873e" stroke-width="8"/><line x1="513" y1="892.8" x2="486" y2="872.1" stroke="#b3873e" stroke-width="8"/><line x1="587.6" y1="807.6" x2="563.6" y2="783.6" stroke="#b3873e" stroke-width="8"/><line x1="672.8" y1="733" x2="652.1" y2="706" stroke="#b3873e" stroke-width="8"/><line x1="767" y1="670" x2="750" y2="640.6" stroke="#b3873e" stroke-width="8"/><line x1="868.6" y1="619.9" x2="855.6" y2="588.5" stroke="#b3873e" stroke-width="8"/><line x1="975.9" y1="583.5" x2="967.1" y2="550.7" stroke="#b3873e" stroke-width="8"/><line x1="1087" y1="561.4" x2="1082.5" y2="527.7" stroke="#b3873e" stroke-width="8"/><line x1="1200" y1="554" x2="1200" y2="520" stroke="#b3873e" stroke-width="8"/><line x1="1313" y1="561.4" x2="1317.5" y2="527.7" stroke="#b3873e" stroke-width="8"/><line x1="1424.1" y1="583.5" x2="1432.9" y2="550.7" stroke="#b3873e" stroke-width="8"/><line x1="1531.4" y1="619.9" x2="1544.4" y2="588.5" stroke="#b3873e" stroke-width="8"/><line x1="1633" y1="670" x2="1650" y2="640.6" stroke="#b3873e" stroke-width="8"/><line x1="1727.2" y1="733" x2="1747.9" y2="706" stroke="#b3873e" stroke-width="8"/><line x1="1812.4" y1="807.6" x2="1836.4" y2="783.6" stroke="#b3873e" stroke-width="8"/><line x1="1887" y1="892.8" x2="1914" y2="872.1" stroke="#b3873e" stroke-width="8"/><line x1="1950" y1="987" x2="1979.4" y2="970" stroke="#b3873e" stroke-width="8"/><line x1="2000.1" y1="1088.6" x2="2031.5" y2="1075.6" stroke="#b3873e" stroke-width="8"/><line x1="2036.5" y1="1195.9" x2="2069.3" y2="1187.1" stroke="#b3873e" stroke-width="8"/><line x1="2058.6" y1="1307" x2="2092.3" y2="1302.5" stroke="#b3873e" stroke-width="8"/><polygon points="2010,1420 1807.2,1343.3 1807.2,1496.7" fill="#b3873e"/><polygon points="1970.4,1670.3 1801.2,1534.7 1753.8,1680.6" fill="#8a6a4b"/><polygon points="1855.3,1896.1 1736.3,1714.8 1646.1,1838.9" fill="#b3873e"/><polygon points="1676.1,2075.3 1618.9,1866.1 1494.8,1956.3" fill="#8a6a4b"/><polygon points="1450.3,2190.4 1460.6,1973.8 1314.7,2021.2" fill="#b3873e"/><polygon points="1200,2230 1276.7,2027.2 1123.3,2027.2" fill="#8a6a4b"/><polygon points="949.7,2190.4 1085.3,2021.2 939.4,1973.8" fill="#b3873e"/><polygon points="723.9,2075.3 905.2,1956.3 781.1,1866.1" fill="#8a6a4b"/><polygon points="544.7,1896.1 753.9,1838.9 663.7,1714.8" fill="#b3873e"/><polygon points="429.6,1670.3 646.2,1680.6 598.8,1534.7" fill="#8a6a4b"/><polygon points="390,1420 592.8,1496.7 592.8,1343.3" fill="#b3873e"/><polygon points="429.6,1169.7 598.8,1305.3 646.2,1159.4" fill="#8a6a4b"/><polygon points="544.7,943.9 663.7,1125.2 753.9,1001.1" fill="#b3873e"/><polygon points="723.9,764.7 781.1,973.9 905.2,883.7" fill="#8a6a4b"/><polygon points="949.7,649.6 939.4,866.2 1085.3,818.8" fill="#b3873e"/><polygon points="1200,610 1123.3,812.8 1276.7,812.8" fill="#8a6a4b"/><polygon points="1450.3,649.6 1314.7,818.8 1460.6,866.2" fill="#b3873e"/><polygon points="1676.1,764.7 1494.8,883.7 1618.9,973.9" fill="#8a6a4b"/><polygon points="1855.3,943.9 1646.1,1001.1 1736.3,1125.2" fill="#b3873e"/><polygon points="1970.4,1169.7 1753.8,1159.4 1801.2,1305.3" fill="#8a6a4b"/><circle cx="1200" cy="1420" r="558" fill="none" stroke="#b3873e" stroke-width="8"/><path d="M0 0 Q 67.5 -198.4 0 -522 Q -67.5 -198.4 0 0 Z" fill="#8a6a4b" opacity="0.96" transform="translate(1209.8 1422) rotate(191.3)"/><path d="M0 0 Q 67.5 -198.4 0 -522 Q -67.5 -198.4 0 0 Z" fill="#b3873e" opacity="0.96" transform="translate(1208.3 1425.6) rotate(213.8)"/><path d="M0 0 Q 67.5 -198.4 0 -522 Q -67.5 -198.4 0 0 Z" fill="#8a6a4b" opacity="0.96" transform="translate(1205.6 1428.3) rotate(236.3)"/><path d="M0 0 Q 67.5 -198.4 0 -522 Q -67.5 -198.4 0 0 Z" fill="#b3873e" opacity="0.96" transform="translate(1202 1429.8) rotate(258.8)"/><path d="M0 0 Q 67.5 -198.4 0 -522 Q -67.5 -198.4 0 0 Z" fill="#8a6a4b" opacity="0.96" transform="translate(1198 1429.8) rotate(281.3)"/><path d="M0 0 Q 67.5 -198.4 0 -522 Q -67.5 -198.4 0 0 Z" fill="#b3873e" opacity="0.96" transform="translate(1194.4 1428.3) rotate(303.8)"/><path d="M0 0 Q 67.5 -198.4 0 -522 Q -67.5 -198.4 0 0 Z" fill="#8a6a4b" opacity="0.96" transform="translate(1191.7 1425.6) rotate(326.3)"/><path d="M0 0 Q 67.5 -198.4 0 -522 Q -67.5 -198.4 0 0 Z" fill="#b3873e" opacity="0.96" transform="translate(1190.2 1422) rotate(348.8)"/><path d="M0 0 Q 67.5 -198.4 0 -522 Q -67.5 -198.4 0 0 Z" fill="#8a6a4b" opacity="0.96" transform="translate(1190.2 1418) rotate(371.3)"/><path d="M0 0 Q 67.5 -198.4 0 -522 Q -67.5 -198.4 0 0 Z" fill="#b3873e" opacity="0.96" transform="translate(1191.7 1414.4) rotate(393.8)"/><path d="M0 0 Q 67.5 -198.4 0 -522 Q -67.5 -198.4 0 0 Z" fill="#8a6a4b" opacity="0.96" transform="translate(1194.4 1411.7) rotate(416.3)"/><path d="M0 0 Q 67.5 -198.4 0 -522 Q -67.5 -198.4 0 0 Z" fill="#b3873e" opacity="0.96" transform="translate(1198 1410.2) rotate(438.8)"/><path d="M0 0 Q 67.5 -198.4 0 -522 Q -67.5 -198.4 0 0 Z" fill="#8a6a4b" opacity="0.96" transform="translate(1202 1410.2) rotate(461.3)"/><path d="M0 0 Q 67.5 -198.4 0 -522 Q -67.5 -198.4 0 0 Z" fill="#b3873e" opacity="0.96" transform="translate(1205.6 1411.7) rotate(483.8)"/><path d="M0 0 Q 67.5 -198.4 0 -522 Q -67.5 -198.4 0 0 Z" fill="#8a6a4b" opacity="0.96" transform="translate(1208.3 1414.4) rotate(506.3)"/><path d="M0 0 Q 67.5 -198.4 0 -522 Q -67.5 -198.4 0 0 Z" fill="#b3873e" opacity="0.96" transform="translate(1209.8 1418) rotate(528.8)"/><path d="M0 0 Q 76.5 -116.3 0 -306 Q -76.5 -116.3 0 0 Z" fill="#3d434d" opacity="0.98" transform="translate(1200 1420) rotate(180)"/><path d="M0 0 Q 76.5 -116.3 0 -306 Q -76.5 -116.3 0 0 Z" fill="#3d434d" opacity="0.98" transform="translate(1200 1420) rotate(225)"/><path d="M0 0 Q 76.5 -116.3 0 -306 Q -76.5 -116.3 0 0 Z" fill="#3d434d" opacity="0.98" transform="translate(1200 1420) rotate(270)"/><path d="M0 0 Q 76.5 -116.3 0 -306 Q -76.5 -116.3 0 0 Z" fill="#3d434d" opacity="0.98" transform="translate(1200 1420) rotate(315)"/><path d="M0 0 Q 76.5 -116.3 0 -306 Q -76.5 -116.3 0 0 Z" fill="#3d434d" opacity="0.98" transform="translate(1200 1420) rotate(360)"/><path d="M0 0 Q 76.5 -116.3 0 -306 Q -76.5 -116.3 0 0 Z" fill="#3d434d" opacity="0.98" transform="translate(1200 1420) rotate(405)"/><path d="M0 0 Q 76.5 -116.3 0 -306 Q -76.5 -116.3 0 0 Z" fill="#3d434d" opacity="0.98" transform="translate(1200 1420) rotate(450)"/><path d="M0 0 Q 76.5 -116.3 0 -306 Q -76.5 -116.3 0 0 Z" fill="#3d434d" opacity="0.98" transform="translate(1200 1420) rotate(495)"/><circle cx="1200" cy="1420" r="110" fill="#b3873e"/><circle cx="1200" cy="1420" r="44" fill="#8a6a4b"/><circle cx="388" cy="208" r="14.6" fill="#b3873e"/><circle cx="444" cy="208" r="14.6" fill="#b3873e"/><circle cx="500" cy="208" r="14.6" fill="#b3873e"/><circle cx="556" cy="208" r="14.6" fill="#b3873e"/><circle cx="612" cy="208" r="14.6" fill="#b3873e"/><circle cx="668" cy="208" r="14.6" fill="#b3873e"/><circle cx="724" cy="208" r="14.6" fill="#b3873e"/><circle cx="780" cy="208" r="14.6" fill="#b3873e"/><circle cx="836" cy="208" r="14.6" fill="#b3873e"/><circle cx="892" cy="208" r="14.6" fill="#b3873e"/><circle cx="948" cy="208" r="14.6" fill="#b3873e"/><circle cx="1004" cy="208" r="14.6" fill="#b3873e"/><circle cx="1060" cy="208" r="14.6" fill="#b3873e"/><circle cx="1116" cy="208" r="14.6" fill="#b3873e"/><circle cx="1172" cy="208" r="14.6" fill="#b3873e"/><circle cx="1228" cy="208" r="14.6" fill="#b3873e"/><circle cx="1284" cy="208" r="14.6" fill="#b3873e"/><circle cx="1340" cy="208" r="14.6" fill="#b3873e"/><circle cx="1396" cy="208" r="14.6" fill="#b3873e"/><circle cx="1452" cy="208" r="14.6" fill="#b3873e"/><circle cx="1508" cy="208" r="14.6" fill="#b3873e"/><circle cx="1564" cy="208" r="14.6" fill="#b3873e"/><circle cx="1620" cy="208" r="14.6" fill="#b3873e"/><circle cx="1676" cy="208" r="14.6" fill="#b3873e"/><circle cx="1732" cy="208" r="14.6" fill="#b3873e"/><circle cx="1788" cy="208" r="14.6" fill="#b3873e"/><circle cx="1844" cy="208" r="14.6" fill="#b3873e"/><circle cx="1900" cy="208" r="14.6" fill="#b3873e"/><circle cx="1956" cy="208" r="14.6" fill="#b3873e"/><circle cx="2012" cy="208" r="14.6" fill="#b3873e"/><circle cx="388" cy="2792" r="14.6" fill="#b3873e"/><circle cx="444" cy="2792" r="14.6" fill="#b3873e"/><circle cx="500" cy="2792" r="14.6" fill="#b3873e"/><circle cx="556" cy="2792" r="14.6" fill="#b3873e"/><circle cx="612" cy="2792" r="14.6" fill="#b3873e"/><circle cx="668" cy="2792" r="14.6" fill="#b3873e"/><circle cx="724" cy="2792" r="14.6" fill="#b3873e"/><circle cx="780" cy="2792" r="14.6" fill="#b3873e"/><circle cx="836" cy="2792" r="14.6" fill="#b3873e"/><circle cx="892" cy="2792" r="14.6" fill="#b3873e"/><circle cx="948" cy="2792" r="14.6" fill="#b3873e"/><circle cx="1004" cy="2792" r="14.6" fill="#b3873e"/><circle cx="1060" cy="2792" r="14.6" fill="#b3873e"/><circle cx="1116" cy="2792" r="14.6" fill="#b3873e"/><circle cx="1172" cy="2792" r="14.6" fill="#b3873e"/><circle cx="1228" cy="2792" r="14.6" fill="#b3873e"/><circle cx="1284" cy="2792" r="14.6" fill="#b3873e"/><circle cx="1340" cy="2792" r="14.6" fill="#b3873e"/><circle cx="1396" cy="2792" r="14.6" fill="#b3873e"/><circle cx="1452" cy="2792" r="14.6" fill="#b3873e"/><circle cx="1508" cy="2792" r="14.6" fill="#b3873e"/><circle cx="1564" cy="2792" r="14.6" fill="#b3873e"/><circle cx="1620" cy="2792" r="14.6" fill="#b3873e"/><circle cx="1676" cy="2792" r="14.6" fill="#b3873e"/><circle cx="1732" cy="2792" r="14.6" fill="#b3873e"/><circle cx="1788" cy="2792" r="14.6" fill="#b3873e"/><circle cx="1844" cy="2792" r="14.6" fill="#b3873e"/><circle cx="1900" cy="2792" r="14.6" fill="#b3873e"/><circle cx="1956" cy="2792" r="14.6" fill="#b3873e"/><circle cx="2012" cy="2792" r="14.6" fill="#b3873e"/><rect x="100" y="100" width="2200" height="2800" fill="none" stroke="#b3873e" stroke-width="9"/><rect x="142" y="142" width="2116" height="2716" fill="none" stroke="#b3873e" stroke-width="3" opacity="0.65"/></svg>