<svg xmlns="http://www.w3.org/2000/svg" width="2400" height="3000" viewBox="0 0 2400 3000"><rect width="2400" height="3000" fill="#c8703f"/><radialGradient id="a193-vig" cx="50%" cy="42%" r="80%"><stop offset="55%" stop-color="#000" stop-opacity="0"/><stop offset="100%" stop-color="#000" stop-opacity="0.15"/></radialGradient><rect width="2400" height="3000" fill="url(#a193-vig)"/><circle cx="180.2" cy="521.1" r="4.1" fill="#26160e" opacity="0.037"/><circle cx="1786.7" cy="2883.3" r="4.4" fill="#26160e" opacity="0.047"/><circle cx="2312.8" cy="1382.2" r="3.2" fill="#26160e" opacity="0.064"/><circle cx="1103" cy="1716.4" r="2.1" fill="#26160e" opacity="0.078"/><circle cx="690.4" cy="2549.2" r="3.4" fill="#26160e" opacity="0.045"/><circle cx="1236.3" cy="1577.9" r="2.9" fill="#26160e" opacity="0.046"/><circle cx="1067.5" cy="1498.3" r="3.4" fill="#26160e" opacity="0.056"/><circle cx="1691.9" cy="710" r="4.4" fill="#26160e" opacity="0.059"/><circle cx="830.6" cy="734.7" r="1.9" fill="#26160e" opacity="0.031"/><circle cx="2018.9" cy="1071.8" r="2.5" fill="#26160e" opacity="0.047"/><circle cx="2189.8" cy="1540" r="2.8" fill="#26160e" opacity="0.080"/><circle cx="791.3" cy="809.4" r="1.8" fill="#26160e" opacity="0.040"/><circle cx="1960.3" cy="335.5" r="3.7" fill="#26160e" opacity="0.032"/><circle cx="135.8" cy="2418" r="2.5" fill="#26160e" opacity="0.057"/><circle cx="1683.6" cy="667.8" r="1.7" fill="#26160e" opacity="0.058"/><circle cx="819.7" cy="1600.3" r="3.6" fill="#26160e" opacity="0.070"/><circle cx="1624.3" cy="209" r="2.4" fill="#26160e" opacity="0.060"/><circle cx="689" cy="280.1" r="3.4" fill="#26160e" opacity="0.045"/><circle cx="821.1" cy="2295.2" r="1.9" fill="#26160e" opacity="0.055"/><circle cx="1314.7" cy="75.9" r="3.9" fill="#26160e" opacity="0.047"/><circle cx="1300.1" cy="2948.3" r="3.8" fill="#26160e" opacity="0.032"/><circle cx="948.2" cy="2241.5" r="3.6" fill="#26160e" opacity="0.057"/><circle cx="354.2" cy="1286.4" r="3.7" fill="#26160e" opacity="0.080"/><circle cx="1666.4" cy="71.6" r="1.6" fill="#26160e" opacity="0.046"/><circle cx="1393.4" cy="335.9" r="3.4" fill="#26160e" opacity="0.066"/><circle cx="248.9" cy="1616" r="2.2" fill="#26160e" opacity="0.062"/><circle cx="44.2" cy="959.7" r="2.5" fill="#26160e" opacity="0.076"/><circle cx="1522.8" cy="63.1" r="2.8" fill="#26160e" opacity="0.051"/><circle cx="1790.5" cy="2118.6" r="3" fill="#26160e" opacity="0.068"/><circle cx="1186.3" cy="1456.6" r="3.2" fill="#26160e" opacity="0.045"/><circle cx="1863.7" cy="631.8" r="2" fill="#26160e" opacity="0.036"/><circle cx="2313" cy="588" r="1.6" fill="#26160e" opacity="0.078"/><circle cx="1092.9" cy="732.9" r="3.4" fill="#26160e" opacity="0.073"/><circle cx="2026.8" cy="295.5" r="4.1" fill="#26160e" opacity="0.040"/><circle cx="840.7" cy="2082.3" r="2.2" fill="#26160e" opacity="0.046"/><circle cx="2167.2" cy="2186.7" r="1.8" fill="#26160e" opacity="0.065"/><circle cx="478.9" cy="1645.5" r="2.9" fill="#26160e" opacity="0.073"/><circle cx="2293.8" cy="577.1" r="2.7" fill="#26160e" opacity="0.046"/><circle cx="1371.9" cy="1154.2" r="3" fill="#26160e" opacity="0.068"/><circle cx="440.5" cy="713.2" r="3.1" fill="#26160e" opacity="0.037"/><circle cx="2240" cy="1145.3" r="1.6" fill="#26160e" opacity="0.072"/><circle cx="124.8" cy="2645.8" r="3.1" fill="#26160e" opacity="0.055"/><circle cx="1829.7" cy="1693.5" r="4" fill="#26160e" opacity="0.030"/><circle cx="1442.2" cy="1153" r="2.5" fill="#26160e" opacity="0.065"/><circle cx="321.2" cy="2873.5" r="3.1" fill="#26160e" opacity="0.039"/><circle cx="266.1" cy="2819.4" r="3.6" fill="#26160e" opacity="0.066"/><circle cx="1926.2" cy="1955.5" r="4.1" fill="#26160e" opacity="0.052"/><circle cx="720.7" cy="2586" r="2" fill="#26160e" opacity="0.035"/><circle cx="1063.8" cy="1568.8" r="2.5" fill="#26160e" opacity="0.038"/><circle cx="1351.8" cy="1069.5" r="3.3" fill="#26160e" opacity="0.034"/><circle cx="790.1" cy="807.1" r="2.1" fill="#26160e" opacity="0.043"/><circle cx="836" cy="2235.6" r="3" fill="#26160e" opacity="0.040"/><circle cx="1795.4" cy="2457.3" r="2" fill="#26160e" opacity="0.057"/><circle cx="1105.5" cy="2622.6" r="3.7" fill="#26160e" opacity="0.059"/><circle cx="658.3" cy="658.1" r="2.4" fill="#26160e" opacity="0.049"/><circle cx="600" cy="1217.9" r="2.9" fill="#26160e" opacity="0.075"/><circle cx="701.3" cy="2594.8" r="1.9" fill="#26160e" opacity="0.059"/><circle cx="1927.6" cy="556.1" r="4.4" fill="#26160e" opacity="0.063"/><circle cx="87.8" cy="191.4" r="3.9" fill="#26160e" opacity="0.072"/><circle cx="665.2" cy="752.6" r="1.7" fill="#26160e" opacity="0.038"/><circle cx="295.2" cy="2055" r="2.9" fill="#26160e" opacity="0.064"/><circle cx="1201.7" cy="2184.6" r="4.4" fill="#26160e" opacity="0.066"/><circle cx="1178.4" cy="259.7" r="2.2" fill="#26160e" opacity="0.049"/><circle cx="2340.8" cy="2070.8" r="2.1" fill="#26160e" opacity="0.045"/><circle cx="269.5" cy="2441.5" r="2.2" fill="#26160e" opacity="0.034"/><circle cx="823.3" cy="1088.5" r="2.9" fill="#26160e" opacity="0.053"/><circle cx="1298.2" cy="2236.6" r="1.6" fill="#26160e" opacity="0.055"/><circle cx="558.6" cy="1268.9" r="3.8" fill="#26160e" opacity="0.062"/><circle cx="986.4" cy="1561.2" r="4.1" fill="#26160e" opacity="0.078"/><circle cx="524.8" cy="2137.3" r="2.1" fill="#26160e" opacity="0.076"/><circle cx="1939.2" cy="1637.7" r="4" fill="#26160e" opacity="0.077"/><circle cx="448.8" cy="1431.5" r="2.7" fill="#26160e" opacity="0.044"/><circle cx="737.6" cy="903.1" r="4.5" fill="#26160e" opacity="0.038"/><circle cx="346.4" cy="2394.6" r="2.8" fill="#26160e" opacity="0.042"/><circle cx="1000.7" cy="1298.1" r="2.2" fill="#26160e" opacity="0.043"/><circle cx="1040.1" cy="1706" r="1.9" fill="#26160e" opacity="0.078"/><circle cx="497.8" cy="892" r="3.6" fill="#26160e" opacity="0.047"/><circle cx="167.9" cy="1237.5" r="4.2" fill="#26160e" opacity="0.041"/><circle cx="1592.8" cy="1107" r="3.9" fill="#26160e" opacity="0.062"/><circle cx="1379.4" cy="1471.7" r="3.3" fill="#26160e" opacity="0.073"/><circle cx="1200" cy="1420" r="900" fill="none" stroke="#26160e" stroke-width="12"/><line x1="2066" y1="1420" x2="2100" y2="1420" stroke="#26160e" stroke-width="8"/><line x1="2058.6" y1="1533" x2="2092.3" y2="1537.5" stroke="#26160e" stroke-width="8"/><line x1="2036.5" y1="1644.1" x2="2069.3" y2="1652.9" stroke="#26160e" stroke-width="8"/><line x1="2000.1" y1="1751.4" x2="2031.5" y2="1764.4" stroke="#26160e" stroke-width="8"/><line x1="1950" y1="1853" x2="1979.4" y2="1870" stroke="#26160e" stroke-width="8"/><line x1="1887" y1="1947.2" x2="1914" y2="1967.9" stroke="#26160e" stroke-width="8"/><line x1="1812.4" y1="2032.4" x2="1836.4" y2="2056.4" stroke="#26160e" stroke-width="8"/><line x1="1727.2" y1="2107" x2="1747.9" y2="2134" stroke="#26160e" stroke-width="8"/><line x1="1633" y1="2170" x2="1650" y2="2199.4" stroke="#26160e" stroke-width="8"/><line x1="1531.4" y1="2220.1" x2="1544.4" y2="2251.5" stroke="#26160e" stroke-width="8"/><line x1="1424.1" y1="2256.5" x2="1432.9" y2="2289.3" stroke="#26160e" stroke-width="8"/><line x1="1313" y1="2278.6" x2="1317.5" y2="2312.3" stroke="#26160e" stroke-width="8"/><line x1="1200" y1="2286" x2="1200" y2="2320" stroke="#26160e" stroke-width="8"/><line x1="1087" y1="2278.6" x2="1082.5" y2="2312.3" stroke="#26160e" stroke-width="8"/><line x1="975.9" y1="2256.5" x2="967.1" y2="2289.3" stroke="#26160e" stroke-width="8"/><line x1="868.6" y1="2220.1" x2="855.6" y2="2251.5" stroke="#26160e" stroke-width="8"/><line x1="767" y1="2170" x2="750" y2="2199.4" stroke="#26160e" stroke-width="8"/><line x1="672.8" y1="2107" x2="652.1" y2="2134" stroke="#26160e" stroke-width="8"/><line x1="587.6" y1="2032.4" x2="563.6" y2="2056.4" stroke="#26160e" stroke-width="8"/><line x1="513" y1="1947.2" x2="486" y2="1967.9" stroke="#26160e" stroke-width="8"/><line x1="450" y1="1853" x2="420.6" y2="1870" stroke="#26160e" stroke-width="8"/><line x1="399.9" y1="1751.4" x2="368.5" y2="1764.4" stroke="#26160e" stroke-width="8"/><line x1="363.5" y1="1644.1" x2="330.7" y2="1652.9" stroke="#26160e" stroke-width="8"/><line x1="341.4" y1="1533" x2="307.7" y2="1537.5" stroke="#26160e" stroke-width="8"/><line x1="334" y1="1420" x2="300" y2="1420" stroke="#26160e" stroke-width="8"/><line x1="341.4" y1="1307" x2="307.7" y2="1302.5" stroke="#26160e" stroke-width="8"/><line x1="363.5" y1="1195.9" x2="330.7" y2="1187.1" stroke="#26160e" stroke-width="8"/><line x1="399.9" y1="1088.6" x2="368.5" y2="1075.6" stroke="#26160e" stroke-width="8"/><line x1="450" y1="987" x2="420.6" y2="970" stroke="#26160e" stroke-width="8"/><line x1="513" y1="892.8" x2="486" y2="872.1" stroke="#26160e" stroke-width="8"/><line x1="587.6" y1="807.6" x2="563.6" y2="783.6" stroke="#26160e" stroke-width="8"/><line x1="672.8" y1="733" x2="652.1" y2="706" stroke="#26160e" stroke-width="8"/><line x1="767" y1="670" x2="750" y2="640.6" stroke="#26160e" stroke-width="8"/><line x1="868.6" y1="619.9" x2="855.6" y2="588.5" stroke="#26160e" stroke-width="8"/><line x1="975.9" y1="583.5" x2="967.1" y2="550.7" stroke="#26160e" stroke-width="8"/><line x1="1087" y1="561.4" x2="1082.5" y2="527.7" stroke="#26160e" stroke-width="8"/><line x1="1200" y1="554" x2="1200" y2="520" stroke="#26160e" stroke-width="8"/><line x1="1313" y1="561.4" x2="1317.5" y2="527.7" stroke="#26160e" stroke-width="8"/><line x1="1424.1" y1="583.5" x2="1432.9" y2="550.7" stroke="#26160e" stroke-width="8"/><line x1="1531.4" y1="619.9" x2="1544.4" y2="588.5" stroke="#26160e" stroke-width="8"/><line x1="1633" y1="670" x2="1650" y2="640.6" stroke="#26160e" stroke-width="8"/><line x1="1727.2" y1="733" x2="1747.9" y2="706" stroke="#26160e" stroke-width="8"/><line x1="1812.4" y1="807.6" x2="1836.4" y2="783.6" stroke="#26160e" stroke-width="8"/><line x1="1887" y1="892.8" x2="1914" y2="872.1" stroke="#26160e" stroke-width="8"/><line x1="1950" y1="987" x2="1979.4" y2="970" stroke="#26160e" stroke-width="8"/><line x1="2000.1" y1="1088.6" x2="2031.5" y2="1075.6" stroke="#26160e" stroke-width="8"/><line x1="2036.5" y1="1195.9" x2="2069.3" y2="1187.1" stroke="#26160e" stroke-width="8"/><line x1="2058.6" y1="1307" x2="2092.3" y2="1302.5" stroke="#26160e" stroke-width="8"/><polygon points="2010,1420 1807.2,1343.3 1807.2,1496.7" fill="#26160e"/><polygon points="1970.4,1670.3 1801.2,1534.7 1753.8,1680.6" fill="#8a4423"/><polygon points="1855.3,1896.1 1736.3,1714.8 1646.1,1838.9" fill="#26160e"/><polygon points="1676.1,2075.3 1618.9,1866.1 1494.8,1956.3" fill="#8a4423"/><polygon points="1450.3,2190.4 1460.6,1973.8 1314.7,2021.2" fill="#26160e"/><polygon points="1200,2230 1276.7,2027.2 1123.3,2027.2" fill="#8a4423"/><polygon points="949.7,2190.4 1085.3,2021.2 939.4,1973.8" fill="#26160e"/><polygon points="723.9,2075.3 905.2,1956.3 781.1,1866.1" fill="#8a4423"/><polygon points="544.7,1896.1 753.9,1838.9 663.7,1714.8" fill="#26160e"/><polygon points="429.6,1670.3 646.2,1680.6 598.8,1534.7" fill="#8a4423"/><polygon points="390,1420 592.8,1496.7 592.8,1343.3" fill="#26160e"/><polygon points="429.6,1169.7 598.8,1305.3 646.2,1159.4" fill="#8a4423"/><polygon points="544.7,943.9 663.7,1125.2 753.9,1001.1" fill="#26160e"/><polygon points="723.9,764.7 781.1,973.9 905.2,883.7" fill="#8a4423"/><polygon points="949.7,649.6 939.4,866.2 1085.3,818.8" fill="#26160e"/><polygon points="1200,610 1123.3,812.8 1276.7,812.8" fill="#8a4423"/><polygon points="1450.3,649.6 1314.7,818.8 1460.6,866.2" fill="#26160e"/><polygon points="1676.1,764.7 1494.8,883.7 1618.9,973.9" fill="#8a4423"/><polygon points="1855.3,943.9 1646.1,1001.1 1736.3,1125.2" fill="#26160e"/><polygon points="1970.4,1169.7 1753.8,1159.4 1801.2,1305.3" fill="#8a4423"/><circle cx="1200" cy="1420" r="558" fill="none" stroke="#26160e" stroke-width="8"/><path d="M0 0 Q 67.5 -198.4 0 -522 Q -67.5 -198.4 0 0 Z" fill="#8a4423" opacity="0.96" transform="translate(1209.8 1422) rotate(191.3)"/><path d="M0 0 Q 67.5 -198.4 0 -522 Q -67.5 -198.4 0 0 Z" fill="#26160e" opacity="0.96" transform="translate(1208.3 1425.6) rotate(213.8)"/><path d="M0 0 Q 67.5 -198.4 0 -522 Q -67.5 -198.4 0 0 Z" fill="#8a4423" opacity="0.96" transform="translate(1205.6 1428.3) rotate(236.3)"/><path d="M0 0 Q 67.5 -198.4 0 -522 Q -67.5 -198.4 0 0 Z" fill="#26160e" opacity="0.96" transform="translate(1202 1429.8) rotate(258.8)"/><path d="M0 0 Q 67.5 -198.4 0 -522 Q -67.5 -198.4 0 0 Z" fill="#8a4423" opacity="0.96" transform="translate(1198 1429.8) rotate(281.3)"/><path d="M0 0 Q 67.5 -198.4 0 -522 Q -67.5 -198.4 0 0 Z" fill="#26160e" opacity="0.96" transform="translate(1194.4 1428.3) rotate(303.8)"/><path d="M0 0 Q 67.5 -198.4 0 -522 Q -67.5 -198.4 0 0 Z" fill="#8a4423" opacity="0.96" transform="translate(1191.7 1425.6) rotate(326.3)"/><path d="M0 0 Q 67.5 -198.4 0 -522 Q -67.5 -198.4 0 0 Z" fill="#26160e" opacity="0.96" transform="translate(1190.2 1422) rotate(348.8)"/><path d="M0 0 Q 67.5 -198.4 0 -522 Q -67.5 -198.4 0 0 Z" fill="#8a4423" opacity="0.96" transform="translate(1190.2 1418) rotate(371.3)"/><path d="M0 0 Q 67.5 -198.4 0 -522 Q -67.5 -198.4 0 0 Z" fill="#26160e" opacity="0.96" transform="translate(1191.7 1414.4) rotate(393.8)"/><path d="M0 0 Q 67.5 -198.4 0 -522 Q -67.5 -198.4 0 0 Z" fill="#8a4423" opacity="0.96" transform="translate(1194.4 1411.7) rotate(416.3)"/><path d="M0 0 Q 67.5 -198.4 0 -522 Q -67.5 -198.4 0 0 Z" fill="#26160e" opacity="0.96" transform="translate(1198 1410.2) rotate(438.8)"/><path d="M0 0 Q 67.5 -198.4 0 -522 Q -67.5 -198.4 0 0 Z" fill="#8a4423" opacity="0.96" transform="translate(1202 1410.2) rotate(461.3)"/><path d="M0 0 Q 67.5 -198.4 0 -522 Q -67.5 -198.4 0 0 Z" fill="#26160e" opacity="0.96" transform="translate(1205.6 1411.7) rotate(483.8)"/><path d="M0 0 Q 67.5 -198.4 0 -522 Q -67.5 -198.4 0 0 Z" fill="#8a4423" opacity="0.96" transform="translate(1208.3 1414.4) rotate(506.3)"/><path d="M0 0 Q 67.5 -198.4 0 -522 Q -67.5 -198.4 0 0 Z" fill="#26160e" opacity="0.96" transform="translate(1209.8 1418) rotate(528.8)"/><path d="M0 0 Q 76.5 -116.3 0 -306 Q -76.5 -116.3 0 0 Z" fill="#e0a077" opacity="0.98" transform="translate(1200 1420) rotate(180)"/><path d="M0 0 Q 76.5 -116.3 0 -306 Q -76.5 -116.3 0 0 Z" fill="#e0a077" opacity="0.98" transform="translate(1200 1420) rotate(225)"/><path d="M0 0 Q 76.5 -116.3 0 -306 Q -76.5 -116.3 0 0 Z" fill="#e0a077" opacity="0.98" transform="translate(1200 1420) rotate(270)"/><path d="M0 0 Q 76.5 -116.3 0 -306 Q -76.5 -116.3 0 0 Z" fill="#e0a077" opacity="0.98" transform="translate(1200 1420) rotate(315)"/><path d="M0 0 Q 76.5 -116.3 0 -306 Q -76.5 -116.3 0 0 Z" fill="#e0a077" opacity="0.98" transform="translate(1200 1420) rotate(360)"/><path d="M0 0 Q 76.5 -116.3 0 -306 Q -76.5 -116.3 0 0 Z" fill="#e0a077" opacity="0.98" transform="translate(1200 1420) rotate(405)"/><path d="M0 0 Q 76.5 -116.3 0 -306 Q -76.5 -116.3 0 0 Z" fill="#e0a077" opacity="0.98" transform="translate(1200 1420) rotate(450)"/><path d="M0 0 Q 76.5 -116.3 0 -306 Q -76.5 -116.3 0 0 Z" fill="#e0a077" opacity="0.98" transform="translate(1200 1420) rotate(495)"/><circle cx="1200" cy="1420" r="110" fill="#26160e"/><circle cx="1200" cy="1420" r="44" fill="#8a4423"/><circle cx="388" cy="208" r="14.6" fill="#26160e"/><circle cx="444" cy="208" r="14.6" fill="#26160e"/><circle cx="500" cy="208" r="14.6" fill="#26160e"/><circle cx="556" cy="208" r="14.6" fill="#26160e"/><circle cx="612" cy="208" r="14.6" fill="#26160e"/><circle cx="668" cy="208" r="14.6" fill="#26160e"/><circle cx="724" cy="208" r="14.6" fill="#26160e"/><circle cx="780" cy="208" r="14.6" fill="#26160e"/><circle cx="836" cy="208" r="14.6" fill="#26160e"/><circle cx="892" cy="208" r="14.6" fill="#26160e"/><circle cx="948" cy="208" r="14.6" fill="#26160e"/><circle cx="1004" cy="208" r="14.6" fill="#26160e"/><circle cx="1060" cy="208" r="14.6" fill="#26160e"/><circle cx="1116" cy="208" r="14.6" fill="#26160e"/><circle cx="1172" cy="208" r="14.6" fill="#26160e"/><circle cx="1228" cy="208" r="14.6" fill="#26160e"/><circle cx="1284" cy="208" r="14.6" fill="#26160e"/><circle cx="1340" cy="208" r="14.6" fill="#26160e"/><circle cx="1396" cy="208" r="14.6" fill="#26160e"/><circle cx="1452" cy="208" r="14.6" fill="#26160e"/><circle cx="1508" cy="208" r="14.6" fill="#26160e"/><circle cx="1564" cy="208" r="14.6" fill="#26160e"/><circle cx="1620" cy="208" r="14.6" fill="#26160e"/><circle cx="1676" cy="208" r="14.6" fill="#26160e"/><circle cx="1732" cy="208" r="14.6" fill="#26160e"/><circle cx="1788" cy="208" r="14.6" fill="#26160e"/><circle cx="1844" cy="208" r="14.6" fill="#26160e"/><circle cx="1900" cy="208" r="14.6" fill="#26160e"/><circle cx="1956" cy="208" r="14.6" fill="#26160e"/><circle cx="2012" cy="208" r="14.6" fill="#26160e"/><circle cx="388" cy="2792" r="14.6" fill="#26160e"/><circle cx="444" cy="2792" r="14.6" fill="#26160e"/><circle cx="500" cy="2792" r="14.6" fill="#26160e"/><circle cx="556" cy="2792" r="14.6" fill="#26160e"/><circle cx="612" cy="2792" r="14.6" fill="#26160e"/><circle cx="668" cy="2792" r="14.6" fill="#26160e"/><circle cx="724" cy="2792" r="14.6" fill="#26160e"/><circle cx="780" cy="2792" r="14.6" fill="#26160e"/><circle cx="836" cy="2792" r="14.6" fill="#26160e"/><circle cx="892" cy="2792" r="14.6" fill="#26160e"/><circle cx="948" cy="2792" r="14.6" fill="#26160e"/><circle cx="1004" cy="2792" r="14.6" fill="#26160e"/><circle cx="1060" cy="2792" r="14.6" fill="#26160e"/><circle cx="1116" cy="2792" r="14.6" fill="#26160e"/><circle cx="1172" cy="2792" r="14.6" fill="#26160e"/><circle cx="1228" cy="2792" r="14.6" fill="#26160e"/><circle cx="1284" cy="2792" r="14.6" fill="#26160e"/><circle cx="1340" cy="2792" r="14.6" fill="#26160e"/><circle cx="1396" cy="2792" r="14.6" fill="#26160e"/><circle cx="1452" cy="2792" r="14.6" fill="#26160e"/><circle cx="1508" cy="2792" r="14.6" fill="#26160e"/><circle cx="1564" cy="2792" r="14.6" fill="#26160e"/><circle cx="1620" cy="2792" r="14.6" fill="#26160e"/><circle cx="1676" cy="2792" r="14.6" fill="#26160e"/><circle cx="1732" cy="2792" r="14.6" fill="#26160e"/><circle cx="1788" cy="2792" r="14.6" fill="#26160e"/><circle cx="1844" cy="2792" r="14.6" fill="#26160e"/><circle cx="1900" cy="2792" r="14.6" fill="#26160e"/><circle cx="1956" cy="2792" r="14.6" fill="#26160e"/><circle cx="2012" cy="2792" r="14.6" fill="#26160e"/><rect x="100" y="100" width="2200" height="2800" fill="none" stroke="#26160e" stroke-width="9"/><rect x="142" y="142" width="2116" height="2716" fill="none" stroke="#26160e" stroke-width="3" opacity="0.65"/></svg>