<svg xmlns="http://www.w3.org/2000/svg" width="2400" height="3000" viewBox="0 0 2400 3000"><filter id="a137-warp" x="-4%" y="-4%" width="108%" height="108%"><feTurbulence type="fractalNoise" baseFrequency="0.0105" numOctaves="2" seed="7983" result="w"/><feDisplacementMap in="SourceGraphic" in2="w" scale="11" xChannelSelector="R" yChannelSelector="G"/></filter><filter id="a137-grain" x="0%" y="0%" width="100%" height="100%"><feTurbulence type="fractalNoise" baseFrequency="0.6" numOctaves="2" seed="7990"/><feColorMatrix type="matrix" values="0.33 0.33 0.33 0 0.62  0.33 0.33 0.33 0 0.62  0.33 0.33 0.33 0 0.62  0 0 0 0 1"/></filter><filter id="a137-mottle" x="0%" y="0%" width="100%" height="100%"><feTurbulence type="fractalNoise" baseFrequency="0.0045" numOctaves="3" seed="7996"/><feColorMatrix type="matrix" values="0.2 0.2 0.2 0 0.78  0.2 0.2 0.2 0 0.78  0.2 0.2 0.2 0 0.78  0 0 0 0 1"/></filter><filter id="a137-fade" x="0%" y="0%" width="100%" height="100%"><feTurbulence type="fractalNoise" baseFrequency="0.006" numOctaves="2" seed="8012"/><feColorMatrix type="matrix" values="0.3 0.3 0.3 0 -0.08  0.3 0.3 0.3 0 -0.08  0.3 0.3 0.3 0 -0.1  0 0 0 0 1"/></filter><filter id="a137-blur9"><feGaussianBlur stdDeviation="9"/></filter><radialGradient id="a137-vig" cx="50%" cy="44%" r="78%"><stop offset="52%" stop-color="#241a10" stop-opacity="0"/><stop offset="100%" stop-color="#241a10" stop-opacity="0.17"/></radialGradient><radialGradient id="a137-warm" cx="53%" cy="30%" r="85%"><stop offset="0%" stop-color="#e8c890" stop-opacity="0.14"/><stop offset="70%" stop-color="#e8c890" stop-opacity="0"/></radialGradient><rect width="2400" height="3000" fill="#cfb684"/><rect width="2400" height="3000" fill="url(#a137-warm)"/><rect x="0" width="34.4" height="3000" fill="#6b4e26" opacity="0.099"/><rect x="47.8" width="32" height="3000" fill="#6b4e26" opacity="0.033"/><rect x="92.2" width="30.1" height="3000" fill="#6b4e26" opacity="0.049"/><rect x="134.1" width="27.2" height="3000" fill="#6b4e26" opacity="0.083"/><rect x="171.8" width="22.3" height="3000" fill="#6b4e26" opacity="0.078"/><rect x="202.7" width="24.2" height="3000" fill="#6b4e26" opacity="0.098"/><rect x="236.4" width="31.2" height="3000" fill="#6b4e26" opacity="0.068"/><rect x="279.6" width="23.2" height="3000" fill="#6b4e26" opacity="0.047"/><rect x="311.9" width="20.9" height="3000" fill="#6b4e26" opacity="0.073"/><rect x="341" width="30.2" height="3000" fill="#6b4e26" opacity="0.070"/><rect x="382.9" width="23.5" height="3000" fill="#6b4e26" opacity="0.036"/><rect x="415.5" width="41" height="3000" fill="#6b4e26" opacity="0.092"/><rect x="472.4" width="23.9" height="3000" fill="#6b4e26" opacity="0.036"/><rect x="505.6" width="36.3" height="3000" fill="#6b4e26" opacity="0.060"/><rect x="556" width="38.2" height="3000" fill="#6b4e26" opacity="0.084"/><rect x="609.1" width="31.6" height="3000" fill="#6b4e26" opacity="0.097"/><rect x="653" width="36" height="3000" fill="#6b4e26" opacity="0.087"/><rect x="702.9" width="27.5" height="3000" fill="#6b4e26" opacity="0.052"/><rect x="741.1" width="28" height="3000" fill="#6b4e26" opacity="0.050"/><rect x="779.9" width="20.3" height="3000" fill="#6b4e26" opacity="0.057"/><rect x="808.2" width="25.5" height="3000" fill="#6b4e26" opacity="0.058"/><rect x="843.6" width="41.1" height="3000" fill="#6b4e26" opacity="0.052"/><rect x="900.7" width="23.5" height="3000" fill="#6b4e26" opacity="0.030"/><rect x="933.4" width="22.9" height="3000" fill="#6b4e26" opacity="0.040"/><rect x="965.2" width="32.7" height="3000" fill="#6b4e26" opacity="0.035"/><rect x="1010.6" width="29" height="3000" fill="#6b4e26" opacity="0.036"/><rect x="1050.8" width="30.1" height="3000" fill="#6b4e26" opacity="0.056"/><rect x="1092.7" width="31.8" height="3000" fill="#6b4e26" opacity="0.039"/><rect x="1136.8" width="33.7" height="3000" fill="#6b4e26" opacity="0.100"/><rect x="1183.7" width="24.1" height="3000" fill="#6b4e26" opacity="0.094"/><rect x="1217.2" width="41.3" height="3000" fill="#6b4e26" opacity="0.040"/><rect x="1274.5" width="37.7" height="3000" fill="#6b4e26" opacity="0.052"/><rect x="1326.8" width="34.5" height="3000" fill="#6b4e26" opacity="0.062"/><rect x="1374.7" width="38.2" height="3000" fill="#6b4e26" opacity="0.048"/><rect x="1427.8" width="38.2" height="3000" fill="#6b4e26" opacity="0.076"/><rect x="1480.9" width="31.1" height="3000" fill="#6b4e26" opacity="0.045"/><rect x="1524.2" width="27.5" height="3000" fill="#6b4e26" opacity="0.088"/><rect x="1562.4" width="33.4" height="3000" fill="#6b4e26" opacity="0.057"/><rect x="1608.8" width="31" height="3000" fill="#6b4e26" opacity="0.074"/><rect x="1651.9" width="29.9" height="3000" fill="#6b4e26" opacity="0.043"/><rect x="1693.4" width="25.3" height="3000" fill="#6b4e26" opacity="0.044"/><rect x="1728.5" width="43" height="3000" fill="#6b4e26" opacity="0.042"/><rect x="1788.2" width="27.4" height="3000" fill="#6b4e26" opacity="0.068"/><rect x="1826.2" width="40.5" height="3000" fill="#6b4e26" opacity="0.072"/><rect x="1882.5" width="40.7" height="3000" fill="#6b4e26" opacity="0.058"/><rect x="1938.9" width="33.8" height="3000" fill="#6b4e26" opacity="0.042"/><rect x="1985.9" width="28" height="3000" fill="#6b4e26" opacity="0.046"/><rect x="2024.8" width="23.5" height="3000" fill="#6b4e26" opacity="0.048"/><rect x="2057.5" width="22.7" height="3000" fill="#6b4e26" opacity="0.031"/><rect x="2089" width="31.6" height="3000" fill="#6b4e26" opacity="0.048"/><rect x="2132.9" width="38.9" height="3000" fill="#6b4e26" opacity="0.078"/><rect x="2186.9" width="37.1" height="3000" fill="#6b4e26" opacity="0.086"/><rect x="2238.4" width="23.1" height="3000" fill="#6b4e26" opacity="0.045"/><rect x="2270.5" width="19.7" height="3000" fill="#6b4e26" opacity="0.081"/><rect x="2297.9" width="38.1" height="3000" fill="#6b4e26" opacity="0.089"/><rect x="2350.7" width="27.8" height="3000" fill="#6b4e26" opacity="0.081"/><rect x="2389.4" width="41.8" height="3000" fill="#6b4e26" opacity="0.076"/><rect y="0" width="2400" height="17.1" fill="#7c5c30" opacity="0.026"/><rect y="28.6" width="2400" height="15.7" fill="#7c5c30" opacity="0.023"/><rect y="54.7" width="2400" height="20" fill="#7c5c30" opacity="0.032"/><rect y="88.1" width="2400" height="27.8" fill="#7c5c30" opacity="0.038"/><rect y="134.5" width="2400" height="27.3" fill="#7c5c30" opacity="0.038"/><rect y="179.9" width="2400" height="24.3" fill="#7c5c30" opacity="0.025"/><rect y="220.3" width="2400" height="25.4" fill="#7c5c30" opacity="0.056"/><rect y="262.7" width="2400" height="25.1" fill="#7c5c30" opacity="0.034"/><rect y="304.5" width="2400" height="21.2" fill="#7c5c30" opacity="0.056"/><rect y="339.8" width="2400" height="17.9" fill="#7c5c30" opacity="0.043"/><rect y="369.7" width="2400" height="15.6" fill="#7c5c30" opacity="0.045"/><rect y="395.7" width="2400" height="20.2" fill="#7c5c30" opacity="0.035"/><rect y="429.4" width="2400" height="14.4" fill="#7c5c30" opacity="0.055"/><rect y="453.4" width="2400" height="23.3" fill="#7c5c30" opacity="0.052"/><rect y="492.2" width="2400" height="16.1" fill="#7c5c30" opacity="0.031"/><rect y="518.9" width="2400" height="18.5" fill="#7c5c30" opacity="0.060"/><rect y="549.8" width="2400" height="16.5" fill="#7c5c30" opacity="0.039"/><rect y="577.3" width="2400" height="12.4" fill="#7c5c30" opacity="0.050"/><rect y="597.9" width="2400" height="22.2" fill="#7c5c30" opacity="0.029"/><rect y="634.8" width="2400" height="26.9" fill="#7c5c30" opacity="0.023"/><rect y="679.7" width="2400" height="13.7" fill="#7c5c30" opacity="0.021"/><rect y="702.6" width="2400" height="18.6" fill="#7c5c30" opacity="0.026"/><rect y="733.6" width="2400" height="20.5" fill="#7c5c30" opacity="0.043"/><rect y="767.8" width="2400" height="27.5" fill="#7c5c30" opacity="0.030"/><rect y="813.6" width="2400" height="17.8" fill="#7c5c30" opacity="0.049"/><rect y="843.2" width="2400" height="12.9" fill="#7c5c30" opacity="0.030"/><rect y="864.8" width="2400" height="12.8" fill="#7c5c30" opacity="0.045"/><rect y="886.1" width="2400" height="21.9" fill="#7c5c30" opacity="0.040"/><rect y="922.5" width="2400" height="15" fill="#7c5c30" opacity="0.058"/><rect y="947.5" width="2400" height="19.5" fill="#7c5c30" opacity="0.024"/><rect y="980.1" width="2400" height="14.4" fill="#7c5c30" opacity="0.041"/><rect y="1004.1" width="2400" height="13.3" fill="#7c5c30" opacity="0.028"/><rect y="1026.3" width="2400" height="21.9" fill="#7c5c30" opacity="0.051"/><rect y="1062.9" width="2400" height="20" fill="#7c5c30" opacity="0.047"/><rect y="1096.1" width="2400" height="16.5" fill="#7c5c30" opacity="0.036"/><rect y="1123.6" width="2400" height="26.6" fill="#7c5c30" opacity="0.040"/><rect y="1168" width="2400" height="16.6" fill="#7c5c30" opacity="0.031"/><rect y="1195.6" width="2400" height="27.3" fill="#7c5c30" opacity="0.058"/><rect y="1241.1" width="2400" height="20.6" fill="#7c5c30" opacity="0.031"/><rect y="1275.5" width="2400" height="28.7" fill="#7c5c30" opacity="0.048"/><rect y="1323.3" width="2400" height="21.2" fill="#7c5c30" opacity="0.048"/><rect y="1358.7" width="2400" height="25.6" fill="#7c5c30" opacity="0.056"/><rect y="1401.4" width="2400" height="26.8" fill="#7c5c30" opacity="0.031"/><rect y="1446.1" width="2400" height="27.7" fill="#7c5c30" opacity="0.023"/><rect y="1492.3" width="2400" height="14.7" fill="#7c5c30" opacity="0.027"/><rect y="1516.8" width="2400" height="28.3" fill="#7c5c30" opacity="0.029"/><rect y="1564" width="2400" height="19.1" fill="#7c5c30" opacity="0.048"/><rect y="1595.8" width="2400" height="12.8" fill="#7c5c30" opacity="0.042"/><rect y="1617.1" width="2400" height="24.4" fill="#7c5c30" opacity="0.022"/><rect y="1657.8" width="2400" height="25.9" fill="#7c5c30" opacity="0.045"/><rect y="1701.1" width="2400" height="26.5" fill="#7c5c30" opacity="0.025"/><rect y="1745.3" width="2400" height="28.4" fill="#7c5c30" opacity="0.028"/><rect y="1792.6" width="2400" height="24.2" fill="#7c5c30" opacity="0.030"/><rect y="1833" width="2400" height="20.4" fill="#7c5c30" opacity="0.046"/><rect y="1867" width="2400" height="24.9" fill="#7c5c30" opacity="0.043"/><rect y="1908.6" width="2400" height="18.8" fill="#7c5c30" opacity="0.028"/><rect y="1940" width="2400" height="24.4" fill="#7c5c30" opacity="0.038"/><rect y="1980.7" width="2400" height="19.9" fill="#7c5c30" opacity="0.030"/><rect y="2013.7" width="2400" height="20.3" fill="#7c5c30" opacity="0.058"/><rect y="2047.6" width="2400" height="15" fill="#7c5c30" opacity="0.042"/><rect y="2072.7" width="2400" height="14.4" fill="#7c5c30" opacity="0.048"/><rect y="2096.7" width="2400" height="14.8" fill="#7c5c30" opacity="0.053"/><rect y="2121.4" width="2400" height="16.2" fill="#7c5c30" opacity="0.022"/><rect y="2148.4" width="2400" height="21.6" fill="#7c5c30" opacity="0.021"/><rect y="2184.3" width="2400" height="28.3" fill="#7c5c30" opacity="0.040"/><rect y="2231.4" width="2400" height="18.3" fill="#7c5c30" opacity="0.047"/><rect y="2261.9" width="2400" height="19.8" fill="#7c5c30" opacity="0.028"/><rect y="2294.9" width="2400" height="21" fill="#7c5c30" opacity="0.031"/><rect y="2329.9" width="2400" height="19" fill="#7c5c30" opacity="0.041"/><rect y="2361.6" width="2400" height="19.8" fill="#7c5c30" opacity="0.049"/><rect y="2394.6" width="2400" height="17.6" fill="#7c5c30" opacity="0.040"/><rect y="2423.9" width="2400" height="27.9" fill="#7c5c30" opacity="0.055"/><rect y="2470.4" width="2400" height="28.4" fill="#7c5c30" opacity="0.044"/><rect y="2517.8" width="2400" height="24.7" fill="#7c5c30" opacity="0.023"/><rect y="2559.1" width="2400" height="27.4" fill="#7c5c30" opacity="0.057"/><rect y="2604.7" width="2400" height="19.4" fill="#7c5c30" opacity="0.024"/><rect y="2637.1" width="2400" height="27.1" fill="#7c5c30" opacity="0.044"/><rect y="2682.3" width="2400" height="12.9" fill="#7c5c30" opacity="0.023"/><rect y="2703.8" width="2400" height="17.6" fill="#7c5c30" opacity="0.040"/><rect y="2733" width="2400" height="24.2" fill="#7c5c30" opacity="0.054"/><rect y="2773.3" width="2400" height="21.7" fill="#7c5c30" opacity="0.025"/><rect y="2809.5" width="2400" height="15.3" fill="#7c5c30" opacity="0.027"/><rect y="2834.9" width="2400" height="12.9" fill="#7c5c30" opacity="0.020"/><rect y="2856.4" width="2400" height="21.7" fill="#7c5c30" opacity="0.027"/><rect y="2892.5" width="2400" height="24.3" fill="#7c5c30" opacity="0.026"/><rect y="2933" width="2400" height="24.2" fill="#7c5c30" opacity="0.029"/><rect y="2973.4" width="2400" height="24.3" fill="#7c5c30" opacity="0.048"/><g filter="url(#a137-warp)"><rect x="200" y="170" width="2000" height="14.5" fill="#2e2818"/><rect x="200" y="184" width="2000" height="14.5" fill="#9c7426"/><rect x="200" y="198" width="2000" height="14.5" fill="#2e2818"/><rect x="200" y="212" width="2000" height="14.5" fill="#a99060"/><rect x="200" y="226" width="2000" height="14.5" fill="#2e2818"/><rect x="200" y="2760" width="2000" height="14.5" fill="#2e2818"/><rect x="200" y="2774" width="2000" height="14.5" fill="#9c7426"/><rect x="200" y="2788" width="2000" height="14.5" fill="#2e2818"/><rect x="200" y="2802" width="2000" height="14.5" fill="#a99060"/><rect x="200" y="2816" width="2000" height="14.5" fill="#2e2818"/><circle cx="1200" cy="1030" r="150" fill="#9c7426"/><circle cx="1200" cy="1030" r="196" fill="none" stroke="#9c7426" stroke-width="10"/><line x1="1110" y1="1540" x2="357.4" y2="1481.8" stroke="#2e2818" stroke-width="34" stroke-linecap="round"/><line x1="1110" y1="1540" x2="383.2" y2="1417.8" stroke="#2e2818" stroke-width="34" stroke-linecap="round"/><line x1="1110" y1="1540" x2="426.9" y2="1356.8" stroke="#2e2818" stroke-width="34" stroke-linecap="round"/><line x1="1110" y1="1540" x2="487.4" y2="1300.2" stroke="#2e2818" stroke-width="34" stroke-linecap="round"/><line x1="1110" y1="1540" x2="563.3" y2="1249.6" stroke="#2e2818" stroke-width="34" stroke-linecap="round"/><line x1="1110" y1="1540" x2="652.6" y2="1206.2" stroke="#2e2818" stroke-width="34" stroke-linecap="round"/><line x1="1110" y1="1540" x2="753.2" y2="1170.9" stroke="#2e2818" stroke-width="34" stroke-linecap="round"/><line x1="1110" y1="1540" x2="862.6" y2="1144.8" stroke="#2e2818" stroke-width="34" stroke-linecap="round"/><line x1="1110" y1="1540" x2="978" y2="1128.4" stroke="#2e2818" stroke-width="34" stroke-linecap="round"/><line x1="1110" y1="1540" x2="515.8" y2="1494.1" stroke="#9c7426" stroke-width="30" stroke-linecap="round"/><line x1="1110" y1="1540" x2="536.2" y2="1443.5" stroke="#9c7426" stroke-width="30" stroke-linecap="round"/><line x1="1110" y1="1540" x2="570.7" y2="1395.3" stroke="#9c7426" stroke-width="30" stroke-linecap="round"/><line x1="1110" y1="1540" x2="618.5" y2="1350.7" stroke="#9c7426" stroke-width="30" stroke-linecap="round"/><line x1="1110" y1="1540" x2="678.4" y2="1310.8" stroke="#9c7426" stroke-width="30" stroke-linecap="round"/><line x1="1110" y1="1540" x2="748.9" y2="1276.5" stroke="#9c7426" stroke-width="30" stroke-linecap="round"/><line x1="1110" y1="1540" x2="828.3" y2="1248.6" stroke="#9c7426" stroke-width="30" stroke-linecap="round"/><line x1="1110" y1="1540" x2="914.7" y2="1228" stroke="#9c7426" stroke-width="30" stroke-linecap="round"/><line x1="1110" y1="1540" x2="1005.8" y2="1215" stroke="#9c7426" stroke-width="30" stroke-linecap="round"/><line x1="1110" y1="1540" x2="664.4" y2="1505.6" stroke="#2e2818" stroke-width="26" stroke-linecap="round"/><line x1="1110" y1="1540" x2="679.7" y2="1467.6" stroke="#2e2818" stroke-width="26" stroke-linecap="round"/><line x1="1110" y1="1540" x2="705.5" y2="1431.5" stroke="#2e2818" stroke-width="26" stroke-linecap="round"/><line x1="1110" y1="1540" x2="741.4" y2="1398" stroke="#2e2818" stroke-width="26" stroke-linecap="round"/><line x1="1110" y1="1540" x2="786.3" y2="1368.1" stroke="#2e2818" stroke-width="26" stroke-linecap="round"/><line x1="1110" y1="1540" x2="839.2" y2="1342.3" stroke="#2e2818" stroke-width="26" stroke-linecap="round"/><line x1="1110" y1="1540" x2="898.7" y2="1321.5" stroke="#2e2818" stroke-width="26" stroke-linecap="round"/><line x1="1110" y1="1540" x2="963.5" y2="1306" stroke="#2e2818" stroke-width="26" stroke-linecap="round"/><line x1="1110" y1="1540" x2="1031.9" y2="1296.3" stroke="#2e2818" stroke-width="26" stroke-linecap="round"/><line x1="1290" y1="1540" x2="2042.6" y2="1481.8" stroke="#2e2818" stroke-width="34" stroke-linecap="round"/><line x1="1290" y1="1540" x2="2016.8" y2="1417.8" stroke="#2e2818" stroke-width="34" stroke-linecap="round"/><line x1="1290" y1="1540" x2="1973.1" y2="1356.8" stroke="#2e2818" stroke-width="34" stroke-linecap="round"/><line x1="1290" y1="1540" x2="1912.6" y2="1300.2" stroke="#2e2818" stroke-width="34" stroke-linecap="round"/><line x1="1290" y1="1540" x2="1836.7" y2="1249.6" stroke="#2e2818" stroke-width="34" stroke-linecap="round"/><line x1="1290" y1="1540" x2="1747.4" y2="1206.2" stroke="#2e2818" stroke-width="34" stroke-linecap="round"/><line x1="1290" y1="1540" x2="1646.8" y2="1170.9" stroke="#2e2818" stroke-width="34" stroke-linecap="round"/><line x1="1290" y1="1540" x2="1537.4" y2="1144.8" stroke="#2e2818" stroke-width="34" stroke-linecap="round"/><line x1="1290" y1="1540" x2="1422" y2="1128.4" stroke="#2e2818" stroke-width="34" stroke-linecap="round"/><line x1="1290" y1="1540" x2="1884.2" y2="1494.1" stroke="#9c7426" stroke-width="30" stroke-linecap="round"/><line x1="1290" y1="1540" x2="1863.8" y2="1443.5" stroke="#9c7426" stroke-width="30" stroke-linecap="round"/><line x1="1290" y1="1540" x2="1829.3" y2="1395.3" stroke="#9c7426" stroke-width="30" stroke-linecap="round"/><line x1="1290" y1="1540" x2="1781.5" y2="1350.7" stroke="#9c7426" stroke-width="30" stroke-linecap="round"/><line x1="1290" y1="1540" x2="1721.6" y2="1310.8" stroke="#9c7426" stroke-width="30" stroke-linecap="round"/><line x1="1290" y1="1540" x2="1651.1" y2="1276.5" stroke="#9c7426" stroke-width="30" stroke-linecap="round"/><line x1="1290" y1="1540" x2="1571.7" y2="1248.6" stroke="#9c7426" stroke-width="30" stroke-linecap="round"/><line x1="1290" y1="1540" x2="1485.3" y2="1228" stroke="#9c7426" stroke-width="30" stroke-linecap="round"/><line x1="1290" y1="1540" x2="1394.2" y2="1215" stroke="#9c7426" stroke-width="30" stroke-linecap="round"/><line x1="1290" y1="1540" x2="1735.6" y2="1505.6" stroke="#2e2818" stroke-width="26" stroke-linecap="round"/><line x1="1290" y1="1540" x2="1720.3" y2="1467.6" stroke="#2e2818" stroke-width="26" stroke-linecap="round"/><line x1="1290" y1="1540" x2="1694.5" y2="1431.5" stroke="#2e2818" stroke-width="26" stroke-linecap="round"/><line x1="1290" y1="1540" x2="1658.6" y2="1398" stroke="#2e2818" stroke-width="26" stroke-linecap="round"/><line x1="1290" y1="1540" x2="1613.7" y2="1368.1" stroke="#2e2818" stroke-width="26" stroke-linecap="round"/><line x1="1290" y1="1540" x2="1560.8" y2="1342.3" stroke="#2e2818" stroke-width="26" stroke-linecap="round"/><line x1="1290" y1="1540" x2="1501.3" y2="1321.5" stroke="#2e2818" stroke-width="26" stroke-linecap="round"/><line x1="1290" y1="1540" x2="1436.5" y2="1306" stroke="#2e2818" stroke-width="26" stroke-linecap="round"/><line x1="1290" y1="1540" x2="1368.1" y2="1296.3" stroke="#2e2818" stroke-width="26" stroke-linecap="round"/><path d="M1080,1500 q -150,-60 -210,-150" fill="none" stroke="#2e2818" stroke-width="26" stroke-linecap="round"/><path d="M1035,1660 q -190,20 -260,-40" fill="none" stroke="#2e2818" stroke-width="26" stroke-linecap="round"/><path d="M1070,1810 q -150,90 -230,80" fill="none" stroke="#2e2818" stroke-width="26" stroke-linecap="round"/><path d="M1320,1500 q 150,-60 210,-150" fill="none" stroke="#2e2818" stroke-width="26" stroke-linecap="round"/><path d="M1365,1660 q 190,20 260,-40" fill="none" stroke="#2e2818" stroke-width="26" stroke-linecap="round"/><path d="M1330,1810 q 150,90 230,80" fill="none" stroke="#2e2818" stroke-width="26" stroke-linecap="round"/><ellipse cx="1200" cy="1660" rx="180" ry="240" fill="#2e2818"/><line x1="1200" y1="1540" x2="1200" y2="1896" stroke="#cfb684" stroke-width="9" opacity="0.7"/><path d="M1028,1552 Q 1200,1630 1372,1552" fill="none" stroke="#cfb684" stroke-width="9" opacity="0.7"/><path d="M1080,1450 A 130,130 0 0 1 1320,1450 L1278,1495 L1122,1495 Z" fill="#2e2818"/><line x1="1112" y1="1392" x2="1084" y2="1338" stroke="#2e2818" stroke-width="16" stroke-linecap="round"/><line x1="1156" y1="1392" x2="1142" y2="1338" stroke="#2e2818" stroke-width="16" stroke-linecap="round"/><line x1="1200" y1="1392" x2="1200" y2="1338" stroke="#2e2818" stroke-width="16" stroke-linecap="round"/><line x1="1244" y1="1392" x2="1258" y2="1338" stroke="#2e2818" stroke-width="16" stroke-linecap="round"/><line x1="1288" y1="1392" x2="1316" y2="1338" stroke="#2e2818" stroke-width="16" stroke-linecap="round"/><path d="M780,1990 Q 1200,2160 1620,1990 L1560,1990 Q 1200,2090 840,1990 Z" fill="#9c7426"/><rect x="120" y="120" width="2160" height="2760" fill="none" stroke="#2e2818" stroke-width="6" opacity="0.85"/></g><rect width="2400" height="3000" filter="url(#a137-mottle)" style="mix-blend-mode:multiply" opacity="0.5"/><rect width="2400" height="3000" filter="url(#a137-fade)" style="mix-blend-mode:screen" opacity="0.55"/><rect width="2400" height="3000" filter="url(#a137-grain)" style="mix-blend-mode:multiply" opacity="0.32"/><ellipse cx="157.5" cy="887.6" rx="182.7" ry="187.5" fill="#6b4a22" opacity="0.039" filter="url(#a137-blur9)"/><ellipse cx="1798.5" cy="1191.8" rx="135.2" ry="100.4" fill="#6b4a22" opacity="0.049" filter="url(#a137-blur9)"/><ellipse cx="2205.4" cy="1397.4" rx="169.5" ry="173.9" fill="#6b4a22" opacity="0.061" filter="url(#a137-blur9)"/><ellipse cx="510.5" cy="1383" rx="245.7" ry="210.4" fill="#6b4a22" opacity="0.047" filter="url(#a137-blur9)"/><rect x="0" width="33.4" height="3000" fill="#fff2d0" opacity="0.024"/><rect x="66.8" width="24.2" height="3000" fill="#fff2d0" opacity="0.028"/><rect x="115.2" width="24.6" height="3000" fill="#fff2d0" opacity="0.036"/><rect x="164.4" width="18.3" height="3000" fill="#fff2d0" opacity="0.036"/><rect x="201" width="31.7" height="3000" fill="#fff2d0" opacity="0.028"/><rect x="264.3" width="19.2" height="3000" fill="#fff2d0" opacity="0.039"/><rect x="302.7" width="19.7" height="3000" fill="#fff2d0" opacity="0.035"/><rect x="342.2" width="25.7" height="3000" fill="#fff2d0" opacity="0.043"/><rect x="393.6" width="33.2" height="3000" fill="#fff2d0" opacity="0.038"/><rect x="460" width="15.7" height="3000" fill="#fff2d0" opacity="0.031"/><rect x="491.5" width="22.9" height="3000" fill="#fff2d0" opacity="0.028"/><rect x="537.3" width="19.6" height="3000" fill="#fff2d0" opacity="0.041"/><rect x="576.5" width="25.6" height="3000" fill="#fff2d0" opacity="0.025"/><rect x="627.8" width="23" height="3000" fill="#fff2d0" opacity="0.040"/><rect x="673.8" width="26.8" height="3000" fill="#fff2d0" opacity="0.043"/><rect x="727.5" width="26.2" height="3000" fill="#fff2d0" opacity="0.044"/><rect x="779.9" width="33.4" height="3000" fill="#fff2d0" opacity="0.030"/><rect x="846.8" width="33.9" height="3000" fill="#fff2d0" opacity="0.040"/><rect x="914.5" width="20" height="3000" fill="#fff2d0" opacity="0.035"/><rect x="954.4" width="30.4" height="3000" fill="#fff2d0" opacity="0.039"/><rect x="1015.2" width="20.6" height="3000" fill="#fff2d0" opacity="0.035"/><rect x="1056.5" width="32.7" height="3000" fill="#fff2d0" opacity="0.023"/><rect x="1121.9" width="27" height="3000" fill="#fff2d0" opacity="0.026"/><rect x="1175.9" width="15.4" height="3000" fill="#fff2d0" opacity="0.028"/><rect x="1206.8" width="34.5" height="3000" fill="#fff2d0" opacity="0.030"/><rect x="1275.7" width="15.8" height="3000" fill="#fff2d0" opacity="0.031"/><rect x="1307.3" width="29.5" height="3000" fill="#fff2d0" opacity="0.031"/><rect x="1366.2" width="17.9" height="3000" fill="#fff2d0" opacity="0.036"/><rect x="1401.9" width="16.1" height="3000" fill="#fff2d0" opacity="0.035"/><rect x="1434.2" width="34.9" height="3000" fill="#fff2d0" opacity="0.036"/><rect x="1504.1" width="23.5" height="3000" fill="#fff2d0" opacity="0.037"/><rect x="1551" width="24.9" height="3000" fill="#fff2d0" opacity="0.043"/><rect x="1600.9" width="21.7" height="3000" fill="#fff2d0" opacity="0.018"/><rect x="1644.4" width="17.1" height="3000" fill="#fff2d0" opacity="0.037"/><rect x="1678.6" width="24.8" height="3000" fill="#fff2d0" opacity="0.040"/><rect x="1728.2" width="26" height="3000" fill="#fff2d0" opacity="0.020"/><rect x="1780.2" width="32.2" height="3000" fill="#fff2d0" opacity="0.019"/><rect x="1844.5" width="28.2" height="3000" fill="#fff2d0" opacity="0.045"/><rect x="1900.9" width="20.9" height="3000" fill="#fff2d0" opacity="0.016"/><rect x="1942.7" width="18.6" height="3000" fill="#fff2d0" opacity="0.024"/><rect x="1980" width="28.1" height="3000" fill="#fff2d0" opacity="0.041"/><rect x="2036.1" width="24.4" height="3000" fill="#fff2d0" opacity="0.017"/><rect x="2084.8" width="21.7" height="3000" fill="#fff2d0" opacity="0.030"/><rect x="2128.3" width="29.5" height="3000" fill="#fff2d0" opacity="0.040"/><rect x="2187.2" width="29.4" height="3000" fill="#fff2d0" opacity="0.042"/><rect x="2246" width="28.5" height="3000" fill="#fff2d0" opacity="0.036"/><rect x="2303" width="31.8" height="3000" fill="#fff2d0" opacity="0.033"/><rect x="2366.5" width="25.8" height="3000" fill="#fff2d0" opacity="0.042"/><linearGradient id="a137-er" x1="0" x2="1" y1="0" y2="0"><stop offset="0" stop-color="#3a2a12" stop-opacity="0.22"/><stop offset="1" stop-color="#3a2a12" stop-opacity="0"/></linearGradient><rect x="0" y="0" width="90" height="3000" fill="url(#a137-er)"/><linearGradient id="a137-el" x1="1" x2="0" y1="0" y2="0"><stop offset="0" stop-color="#3a2a12" stop-opacity="0.22"/><stop offset="1" stop-color="#3a2a12" stop-opacity="0"/></linearGradient><rect x="2310" y="0" width="90" height="3000" fill="url(#a137-el)"/><linearGradient id="a137-ed" x1="0" x2="0" y1="0" y2="1"><stop offset="0" stop-color="#3a2a12" stop-opacity="0.22"/><stop offset="1" stop-color="#3a2a12" stop-opacity="0"/></linearGradient><rect x="0" y="0" width="2400" height="90" fill="url(#a137-ed)"/><linearGradient id="a137-eu" x1="0" x2="0" y1="1" y2="0"><stop offset="0" stop-color="#3a2a12" stop-opacity="0.22"/><stop offset="1" stop-color="#3a2a12" stop-opacity="0"/></linearGradient><rect x="0" y="2910" width="2400" height="90" fill="url(#a137-eu)"/><circle cx="1239.9" cy="1885.4" r="10.3" fill="#8a5a2e" opacity="0.118"/><circle cx="2236" cy="2824.6" r="9" fill="#8a5a2e" opacity="0.044"/><circle cx="745.8" cy="2126" r="3.7" fill="#8a5a2e" opacity="0.119"/><circle cx="1108.7" cy="1443.8" r="4.6" fill="#8a5a2e" opacity="0.042"/><circle cx="1766" cy="1212" r="12.5" fill="#8a5a2e" opacity="0.119"/><circle cx="1857.3" cy="2755.9" r="11.4" fill="#8a5a2e" opacity="0.071"/><circle cx="1149.3" cy="2194" r="11.4" fill="#8a5a2e" opacity="0.119"/><circle cx="755.3" cy="1574.7" r="13.7" fill="#8a5a2e" opacity="0.105"/><rect width="2400" height="3000" fill="url(#a137-vig)"/></svg>