<svg xmlns="http://www.w3.org/2000/svg" width="2400" height="3000" viewBox="0 0 2400 3000"><filter id="a145-warp" x="-4%" y="-4%" width="108%" height="108%"><feTurbulence type="fractalNoise" baseFrequency="0.0105" numOctaves="2" seed="3887" result="w"/><feDisplacementMap in="SourceGraphic" in2="w" scale="7" xChannelSelector="R" yChannelSelector="G"/></filter><filter id="a145-grain" x="0%" y="0%" width="100%" height="100%"><feTurbulence type="fractalNoise" baseFrequency="0.6" numOctaves="2" seed="3894"/><feColorMatrix type="matrix" values="0.33 0.33 0.33 0 0.62  0.33 0.33 0.33 0 0.62  0.33 0.33 0.33 0 0.62  0 0 0 0 1"/></filter><filter id="a145-mottle" x="0%" y="0%" width="100%" height="100%"><feTurbulence type="fractalNoise" baseFrequency="0.0045" numOctaves="3" seed="3900"/><feColorMatrix type="matrix" values="0.2 0.2 0.2 0 0.78  0.2 0.2 0.2 0 0.78  0.2 0.2 0.2 0 0.78  0 0 0 0 1"/></filter><filter id="a145-fade" x="0%" y="0%" width="100%" height="100%"><feTurbulence type="fractalNoise" baseFrequency="0.006" numOctaves="2" seed="3916"/><feColorMatrix type="matrix" values="0.3 0.3 0.3 0 -0.08  0.3 0.3 0.3 0 -0.08  0.3 0.3 0.3 0 -0.1  0 0 0 0 1"/></filter><filter id="a145-blur9"><feGaussianBlur stdDeviation="9"/></filter><radialGradient id="a145-vig" cx="50%" cy="44%" r="78%"><stop offset="52%" stop-color="#241a10" stop-opacity="0"/><stop offset="100%" stop-color="#241a10" stop-opacity="0.17"/></radialGradient><radialGradient id="a145-warm" cx="37%" cy="30%" r="85%"><stop offset="0%" stop-color="#e8c890" stop-opacity="0.14"/><stop offset="70%" stop-color="#e8c890" stop-opacity="0"/></radialGradient><rect width="2400" height="3000" fill="#ede3ca"/><rect width="2400" height="3000" fill="url(#a145-warm)"/><g filter="url(#a145-warp)"><circle cx="1371.3" cy="945.2" r="393.1" fill="#a4652f" opacity="0.95"/><line x1="200" y1="2430" x2="2200" y2="2430" stroke="#4e3b22" stroke-width="16"/><rect x="930" y="2340" width="540" height="90" fill="#4e3b22"/><rect x="1005.6" y="2260" width="388.8" height="80" fill="#4e3b22"/><path d="M1065,2260 L1116.3,920.6 L1283.7,920.6 L1335,2260 Z" fill="#4e3b22"/><polygon points="1200,770.6 1116.3,922.6 1283.7,922.6" fill="#a4652f"/><circle cx="1200" cy="1030.6" r="19.32" fill="#ede3ca" opacity="0.9"/><rect x="1177" y="1132.6" width="46" height="16" fill="#ede3ca" opacity="0.9"/><circle cx="1200" cy="1250.6" r="18.400000000000002" fill="none" stroke="#ede3ca" stroke-width="10" opacity="0.9"/><line x1="1200" y1="1269" x2="1200" y2="1296.6" stroke="#ede3ca" stroke-width="10" opacity="0.9"/><circle cx="1200" cy="1360.6" r="19.32" fill="#ede3ca" opacity="0.9"/><circle cx="1200" cy="1470.6" r="19.32" fill="#ede3ca" opacity="0.9"/><rect x="1177" y="1572.6" width="46" height="16" fill="#ede3ca" opacity="0.9"/><rect x="1177" y="1682.6" width="46" height="16" fill="#ede3ca" opacity="0.9"/><circle cx="1200" cy="1800.6" r="19.32" fill="#ede3ca" opacity="0.9"/><circle cx="1200" cy="1910.6" r="19.32" fill="#ede3ca" opacity="0.9"/><polyline points="1154,2034.6 1177,2008.6 1200,2034.6 1223,2008.6 1246,2034.6 " fill="none" stroke="#ede3ca" stroke-width="4.7" stroke-linejoin="miter"/><rect x="200" y="2770" width="2000" height="13.3" fill="#4e3b22"/><rect x="200" y="2782.8" width="2000" height="13.3" fill="#a4652f"/><rect x="200" y="2795.6" width="2000" height="13.3" fill="#4e3b22"/><rect x="200" y="2808.4" width="2000" height="13.3" fill="#bfa87f"/><rect x="200" y="2821.2" width="2000" height="13.3" fill="#4e3b22"/><rect x="130" y="130" width="2140" height="2740" fill="none" stroke="#4e3b22" stroke-width="5"/><rect x="152" y="152" width="2096" height="2696" fill="none" stroke="#4e3b22" stroke-width="2.5" opacity="0.8"/></g><rect width="2400" height="3000" filter="url(#a145-mottle)" style="mix-blend-mode:multiply" opacity="0.5"/><rect width="2400" height="3000" filter="url(#a145-fade)" style="mix-blend-mode:screen" opacity="0.55"/><rect width="2400" height="3000" filter="url(#a145-grain)" style="mix-blend-mode:multiply" opacity="0.32"/><ellipse cx="649.2" cy="1315.6" rx="335.7" ry="353.2" fill="#6b4a22" opacity="0.046" filter="url(#a145-blur9)"/><ellipse cx="1958.2" cy="1851.5" rx="308" ry="304.6" fill="#6b4a22" opacity="0.036" filter="url(#a145-blur9)"/><ellipse cx="1509.6" cy="2660.7" rx="224.9" ry="232.2" fill="#6b4a22" opacity="0.038" filter="url(#a145-blur9)"/><ellipse cx="1969.2" cy="1914.9" rx="180.6" ry="149.2" fill="#6b4a22" opacity="0.042" filter="url(#a145-blur9)"/><ellipse cx="2199.4" cy="911" rx="267.6" ry="273.9" fill="#6b4a22" opacity="0.052" filter="url(#a145-blur9)"/><g opacity="0.3"><rect y="3" width="2400" height="2" fill="#ede3ca"/><rect y="11" width="2400" height="2" fill="#ede3ca"/><rect y="19" width="2400" height="2" fill="#ede3ca"/><rect y="27" width="2400" height="2" fill="#ede3ca"/><rect y="35" width="2400" height="2" fill="#ede3ca"/><rect y="43" width="2400" height="2" fill="#ede3ca"/><rect y="51" width="2400" height="2" fill="#ede3ca"/><rect y="59" width="2400" height="2" fill="#ede3ca"/><rect y="67" width="2400" height="2" fill="#ede3ca"/><rect y="75" width="2400" height="2" fill="#ede3ca"/><rect y="83" width="2400" height="2" fill="#ede3ca"/><rect y="91" width="2400" height="2" fill="#ede3ca"/><rect y="99" width="2400" height="2" fill="#ede3ca"/><rect y="107" width="2400" height="2" fill="#ede3ca"/><rect y="115" width="2400" height="2" fill="#ede3ca"/><rect y="123" width="2400" height="2" fill="#ede3ca"/><rect y="131" width="2400" height="2" fill="#ede3ca"/><rect y="139" width="2400" height="2" fill="#ede3ca"/><rect y="147" width="2400" height="2" fill="#ede3ca"/><rect y="155" width="2400" height="2" fill="#ede3ca"/><rect y="163" width="2400" height="2" fill="#ede3ca"/><rect y="171" width="2400" height="2" fill="#ede3ca"/><rect y="179" width="2400" height="2" fill="#ede3ca"/><rect y="187" width="2400" height="2" fill="#ede3ca"/><rect y="195" width="2400" height="2" fill="#ede3ca"/><rect y="203" width="2400" height="2" fill="#ede3ca"/><rect y="211" width="2400" height="2" fill="#ede3ca"/><rect y="219" width="2400" height="2" fill="#ede3ca"/><rect y="227" width="2400" height="2" fill="#ede3ca"/><rect y="235" width="2400" height="2" fill="#ede3ca"/><rect y="243" width="2400" height="2" fill="#ede3ca"/><rect y="251" width="2400" height="2" fill="#ede3ca"/><rect y="259" width="2400" height="2" fill="#ede3ca"/><rect y="267" width="2400" height="2" fill="#ede3ca"/><rect y="275" width="2400" height="2" fill="#ede3ca"/><rect y="283" width="2400" height="2" fill="#ede3ca"/><rect y="291" width="2400" height="2" fill="#ede3ca"/><rect y="299" width="2400" height="2" fill="#ede3ca"/><rect y="307" width="2400" height="2" fill="#ede3ca"/><rect y="315" width="2400" height="2" fill="#ede3ca"/><rect y="323" width="2400" height="2" fill="#ede3ca"/><rect y="331" width="2400" height="2" fill="#ede3ca"/><rect y="339" width="2400" height="2" fill="#ede3ca"/><rect y="347" width="2400" height="2" fill="#ede3ca"/><rect y="355" width="2400" height="2" fill="#ede3ca"/><rect y="363" width="2400" height="2" fill="#ede3ca"/><rect y="371" width="2400" height="2" fill="#ede3ca"/><rect y="379" width="2400" height="2" fill="#ede3ca"/><rect y="387" width="2400" height="2" fill="#ede3ca"/><rect y="395" width="2400" height="2" fill="#ede3ca"/><rect y="403" width="2400" height="2" fill="#ede3ca"/><rect y="411" width="2400" height="2" fill="#ede3ca"/><rect y="419" width="2400" height="2" fill="#ede3ca"/><rect y="427" width="2400" height="2" fill="#ede3ca"/><rect y="435" width="2400" height="2" fill="#ede3ca"/><rect y="443" width="2400" height="2" fill="#ede3ca"/><rect y="451" width="2400" height="2" fill="#ede3ca"/><rect y="459" width="2400" height="2" fill="#ede3ca"/><rect y="467" width="2400" height="2" fill="#ede3ca"/><rect y="475" width="2400" height="2" fill="#ede3ca"/><rect y="483" width="2400" height="2" fill="#ede3ca"/><rect y="491" width="2400" height="2" fill="#ede3ca"/><rect y="499" width="2400" height="2" fill="#ede3ca"/><rect y="507" width="2400" height="2" fill="#ede3ca"/><rect y="515" width="2400" height="2" fill="#ede3ca"/><rect y="523" width="2400" height="2" fill="#ede3ca"/><rect y="531" width="2400" height="2" fill="#ede3ca"/><rect y="539" width="2400" height="2" fill="#ede3ca"/><rect y="547" width="2400" height="2" fill="#ede3ca"/><rect y="555" width="2400" height="2" fill="#ede3ca"/><rect y="563" width="2400" height="2" fill="#ede3ca"/><rect y="571" width="2400" height="2" fill="#ede3ca"/><rect y="579" width="2400" height="2" fill="#ede3ca"/><rect y="587" width="2400" height="2" fill="#ede3ca"/><rect y="595" width="2400" height="2" fill="#ede3ca"/><rect y="603" width="2400" height="2" fill="#ede3ca"/><rect y="611" width="2400" height="2" fill="#ede3ca"/><rect y="619" width="2400" height="2" fill="#ede3ca"/><rect y="627" width="2400" height="2" fill="#ede3ca"/><rect y="635" width="2400" height="2" fill="#ede3ca"/><rect y="643" width="2400" height="2" fill="#ede3ca"/><rect y="651" width="2400" height="2" fill="#ede3ca"/><rect y="659" width="2400" height="2" fill="#ede3ca"/><rect y="667" width="2400" height="2" fill="#ede3ca"/><rect y="675" width="2400" height="2" fill="#ede3ca"/><rect y="683" width="2400" height="2" fill="#ede3ca"/><rect y="691" width="2400" height="2" fill="#ede3ca"/><rect y="699" width="2400" height="2" fill="#ede3ca"/><rect y="707" width="2400" height="2" fill="#ede3ca"/><rect y="715" width="2400" height="2" fill="#ede3ca"/><rect y="723" width="2400" height="2" fill="#ede3ca"/><rect y="731" width="2400" height="2" fill="#ede3ca"/><rect y="739" width="2400" height="2" fill="#ede3ca"/><rect y="747" width="2400" height="2" fill="#ede3ca"/><rect y="755" width="2400" height="2" fill="#ede3ca"/><rect y="763" width="2400" height="2" fill="#ede3ca"/><rect y="771" width="2400" height="2" fill="#ede3ca"/><rect y="779" width="2400" height="2" fill="#ede3ca"/><rect y="787" width="2400" height="2" fill="#ede3ca"/><rect y="795" width="2400" height="2" fill="#ede3ca"/><rect y="803" width="2400" height="2" fill="#ede3ca"/><rect y="811" width="2400" height="2" fill="#ede3ca"/><rect y="819" width="2400" height="2" fill="#ede3ca"/><rect y="827" width="2400" height="2" fill="#ede3ca"/><rect y="835" width="2400" height="2" fill="#ede3ca"/><rect y="843" width="2400" height="2" fill="#ede3ca"/><rect y="851" width="2400" height="2" fill="#ede3ca"/><rect y="859" width="2400" height="2" fill="#ede3ca"/><rect y="867" width="2400" height="2" fill="#ede3ca"/><rect y="875" width="2400" height="2" fill="#ede3ca"/><rect y="883" width="2400" height="2" fill="#ede3ca"/><rect y="891" width="2400" height="2" fill="#ede3ca"/><rect y="899" width="2400" height="2" fill="#ede3ca"/><rect y="907" width="2400" height="2" fill="#ede3ca"/><rect y="915" width="2400" height="2" fill="#ede3ca"/><rect y="923" width="2400" height="2" fill="#ede3ca"/><rect y="931" width="2400" height="2" fill="#ede3ca"/><rect y="939" width="2400" height="2" fill="#ede3ca"/><rect y="947" width="2400" height="2" fill="#ede3ca"/><rect y="955" width="2400" height="2" fill="#ede3ca"/><rect y="963" width="2400" height="2" fill="#ede3ca"/><rect y="971" width="2400" height="2" fill="#ede3ca"/><rect y="979" width="2400" height="2" fill="#ede3ca"/><rect y="987" width="2400" height="2" fill="#ede3ca"/><rect y="995" width="2400" height="2" fill="#ede3ca"/><rect y="1003" width="2400" height="2" fill="#ede3ca"/><rect y="1011" width="2400" height="2" fill="#ede3ca"/><rect y="1019" width="2400" height="2" fill="#ede3ca"/><rect y="1027" width="2400" height="2" fill="#ede3ca"/><rect y="1035" width="2400" height="2" fill="#ede3ca"/><rect y="1043" width="2400" height="2" fill="#ede3ca"/><rect y="1051" width="2400" height="2" fill="#ede3ca"/><rect y="1059" width="2400" height="2" fill="#ede3ca"/><rect y="1067" width="2400" height="2" fill="#ede3ca"/><rect y="1075" width="2400" height="2" fill="#ede3ca"/><rect y="1083" width="2400" height="2" fill="#ede3ca"/><rect y="1091" width="2400" height="2" fill="#ede3ca"/><rect y="1099" width="2400" height="2" fill="#ede3ca"/><rect y="1107" width="2400" height="2" fill="#ede3ca"/><rect y="1115" width="2400" height="2" fill="#ede3ca"/><rect y="1123" width="2400" height="2" fill="#ede3ca"/><rect y="1131" width="2400" height="2" fill="#ede3ca"/><rect y="1139" width="2400" height="2" fill="#ede3ca"/><rect y="1147" width="2400" height="2" fill="#ede3ca"/><rect y="1155" width="2400" height="2" fill="#ede3ca"/><rect y="1163" width="2400" height="2" fill="#ede3ca"/><rect y="1171" width="2400" height="2" fill="#ede3ca"/><rect y="1179" width="2400" height="2" fill="#ede3ca"/><rect y="1187" width="2400" height="2" fill="#ede3ca"/><rect y="1195" width="2400" height="2" fill="#ede3ca"/><rect y="1203" width="2400" height="2" fill="#ede3ca"/><rect y="1211" width="2400" height="2" fill="#ede3ca"/><rect y="1219" width="2400" height="2" fill="#ede3ca"/><rect y="1227" width="2400" height="2" fill="#ede3ca"/><rect y="1235" width="2400" height="2" fill="#ede3ca"/><rect y="1243" width="2400" height="2" fill="#ede3ca"/><rect y="1251" width="2400" height="2" fill="#ede3ca"/><rect y="1259" width="2400" height="2" fill="#ede3ca"/><rect y="1267" width="2400" height="2" fill="#ede3ca"/><rect y="1275" width="2400" height="2" fill="#ede3ca"/><rect y="1283" width="2400" height="2" fill="#ede3ca"/><rect y="1291" width="2400" height="2" fill="#ede3ca"/><rect y="1299" width="2400" height="2" fill="#ede3ca"/><rect y="1307" width="2400" height="2" fill="#ede3ca"/><rect y="1315" width="2400" height="2" fill="#ede3ca"/><rect y="1323" width="2400" height="2" fill="#ede3ca"/><rect y="1331" width="2400" height="2" fill="#ede3ca"/><rect y="1339" width="2400" height="2" fill="#ede3ca"/><rect y="1347" width="2400" height="2" fill="#ede3ca"/><rect y="1355" width="2400" height="2" fill="#ede3ca"/><rect y="1363" width="2400" height="2" fill="#ede3ca"/><rect y="1371" width="2400" height="2" fill="#ede3ca"/><rect y="1379" width="2400" height="2" fill="#ede3ca"/><rect y="1387" width="2400" height="2" fill="#ede3ca"/><rect y="1395" width="2400" height="2" fill="#ede3ca"/><rect y="1403" width="2400" height="2" fill="#ede3ca"/><rect y="1411" width="2400" height="2" fill="#ede3ca"/><rect y="1419" width="2400" height="2" fill="#ede3ca"/><rect y="1427" width="2400" height="2" fill="#ede3ca"/><rect y="1435" width="2400" height="2" fill="#ede3ca"/><rect y="1443" width="2400" height="2" fill="#ede3ca"/><rect y="1451" width="2400" height="2" fill="#ede3ca"/><rect y="1459" width="2400" height="2" fill="#ede3ca"/><rect y="1467" width="2400" height="2" fill="#ede3ca"/><rect y="1475" width="2400" height="2" fill="#ede3ca"/><rect y="1483" width="2400" height="2" fill="#ede3ca"/><rect y="1491" width="2400" height="2" fill="#ede3ca"/><rect y="1499" width="2400" height="2" fill="#ede3ca"/><rect y="1507" width="2400" height="2" fill="#ede3ca"/><rect y="1515" width="2400" height="2" fill="#ede3ca"/><rect y="1523" width="2400" height="2" fill="#ede3ca"/><rect y="1531" width="2400" height="2" fill="#ede3ca"/><rect y="1539" width="2400" height="2" fill="#ede3ca"/><rect y="1547" width="2400" height="2" fill="#ede3ca"/><rect y="1555" width="2400" height="2" fill="#ede3ca"/><rect y="1563" width="2400" height="2" fill="#ede3ca"/><rect y="1571" width="2400" height="2" fill="#ede3ca"/><rect y="1579" width="2400" height="2" fill="#ede3ca"/><rect y="1587" width="2400" height="2" fill="#ede3ca"/><rect y="1595" width="2400" height="2" fill="#ede3ca"/><rect y="1603" width="2400" height="2" fill="#ede3ca"/><rect y="1611" width="2400" height="2" fill="#ede3ca"/><rect y="1619" width="2400" height="2" fill="#ede3ca"/><rect y="1627" width="2400" height="2" fill="#ede3ca"/><rect y="1635" width="2400" height="2" fill="#ede3ca"/><rect y="1643" width="2400" height="2" fill="#ede3ca"/><rect y="1651" width="2400" height="2" fill="#ede3ca"/><rect y="1659" width="2400" height="2" fill="#ede3ca"/><rect y="1667" width="2400" height="2" fill="#ede3ca"/><rect y="1675" width="2400" height="2" fill="#ede3ca"/><rect y="1683" width="2400" height="2" fill="#ede3ca"/><rect y="1691" width="2400" height="2" fill="#ede3ca"/><rect y="1699" width="2400" height="2" fill="#ede3ca"/><rect y="1707" width="2400" height="2" fill="#ede3ca"/><rect y="1715" width="2400" height="2" fill="#ede3ca"/><rect y="1723" width="2400" height="2" fill="#ede3ca"/><rect y="1731" width="2400" height="2" fill="#ede3ca"/><rect y="1739" width="2400" height="2" fill="#ede3ca"/><rect y="1747" width="2400" height="2" fill="#ede3ca"/><rect y="1755" width="2400" height="2" fill="#ede3ca"/><rect y="1763" width="2400" height="2" fill="#ede3ca"/><rect y="1771" width="2400" height="2" fill="#ede3ca"/><rect y="1779" width="2400" height="2" fill="#ede3ca"/><rect y="1787" width="2400" height="2" fill="#ede3ca"/><rect y="1795" width="2400" height="2" fill="#ede3ca"/><rect y="1803" width="2400" height="2" fill="#ede3ca"/><rect y="1811" width="2400" height="2" fill="#ede3ca"/><rect y="1819" width="2400" height="2" fill="#ede3ca"/><rect y="1827" width="2400" height="2" fill="#ede3ca"/><rect y="1835" width="2400" height="2" fill="#ede3ca"/><rect y="1843" width="2400" height="2" fill="#ede3ca"/><rect y="1851" width="2400" height="2" fill="#ede3ca"/><rect y="1859" width="2400" height="2" fill="#ede3ca"/><rect y="1867" width="2400" height="2" fill="#ede3ca"/><rect y="1875" width="2400" height="2" fill="#ede3ca"/><rect y="1883" width="2400" height="2" fill="#ede3ca"/><rect y="1891" width="2400" height="2" fill="#ede3ca"/><rect y="1899" width="2400" height="2" fill="#ede3ca"/><rect y="1907" width="2400" height="2" fill="#ede3ca"/><rect y="1915" width="2400" height="2" fill="#ede3ca"/><rect y="1923" width="2400" height="2" fill="#ede3ca"/><rect y="1931" width="2400" height="2" fill="#ede3ca"/><rect y="1939" width="2400" height="2" fill="#ede3ca"/><rect y="1947" width="2400" height="2" fill="#ede3ca"/><rect y="1955" width="2400" height="2" fill="#ede3ca"/><rect y="1963" width="2400" height="2" fill="#ede3ca"/><rect y="1971" width="2400" height="2" fill="#ede3ca"/><rect y="1979" width="2400" height="2" fill="#ede3ca"/><rect y="1987" width="2400" height="2" fill="#ede3ca"/><rect y="1995" width="2400" height="2" fill="#ede3ca"/><rect y="2003" width="2400" height="2" fill="#ede3ca"/><rect y="2011" width="2400" height="2" fill="#ede3ca"/><rect y="2019" width="2400" height="2" fill="#ede3ca"/><rect y="2027" width="2400" height="2" fill="#ede3ca"/><rect y="2035" width="2400" height="2" fill="#ede3ca"/><rect y="2043" width="2400" height="2" fill="#ede3ca"/><rect y="2051" width="2400" height="2" fill="#ede3ca"/><rect y="2059" width="2400" height="2" fill="#ede3ca"/><rect y="2067" width="2400" height="2" fill="#ede3ca"/><rect y="2075" width="2400" height="2" fill="#ede3ca"/><rect y="2083" width="2400" height="2" fill="#ede3ca"/><rect y="2091" width="2400" height="2" fill="#ede3ca"/><rect y="2099" width="2400" height="2" fill="#ede3ca"/><rect y="2107" width="2400" height="2" fill="#ede3ca"/><rect y="2115" width="2400" height="2" fill="#ede3ca"/><rect y="2123" width="2400" height="2" fill="#ede3ca"/><rect y="2131" width="2400" height="2" fill="#ede3ca"/><rect y="2139" width="2400" height="2" fill="#ede3ca"/><rect y="2147" width="2400" height="2" fill="#ede3ca"/><rect y="2155" width="2400" height="2" fill="#ede3ca"/><rect y="2163" width="2400" height="2" fill="#ede3ca"/><rect y="2171" width="2400" height="2" fill="#ede3ca"/><rect y="2179" width="2400" height="2" fill="#ede3ca"/><rect y="2187" width="2400" height="2" fill="#ede3ca"/><rect y="2195" width="2400" height="2" fill="#ede3ca"/><rect y="2203" width="2400" height="2" fill="#ede3ca"/><rect y="2211" width="2400" height="2" fill="#ede3ca"/><rect y="2219" width="2400" height="2" fill="#ede3ca"/><rect y="2227" width="2400" height="2" fill="#ede3ca"/><rect y="2235" width="2400" height="2" fill="#ede3ca"/><rect y="2243" width="2400" height="2" fill="#ede3ca"/><rect y="2251" width="2400" height="2" fill="#ede3ca"/><rect y="2259" width="2400" height="2" fill="#ede3ca"/><rect y="2267" width="2400" height="2" fill="#ede3ca"/><rect y="2275" width="2400" height="2" fill="#ede3ca"/><rect y="2283" width="2400" height="2" fill="#ede3ca"/><rect y="2291" width="2400" height="2" fill="#ede3ca"/><rect y="2299" width="2400" height="2" fill="#ede3ca"/><rect y="2307" width="2400" height="2" fill="#ede3ca"/><rect y="2315" width="2400" height="2" fill="#ede3ca"/><rect y="2323" width="2400" height="2" fill="#ede3ca"/><rect y="2331" width="2400" height="2" fill="#ede3ca"/><rect y="2339" width="2400" height="2" fill="#ede3ca"/><rect y="2347" width="2400" height="2" fill="#ede3ca"/><rect y="2355" width="2400" height="2" fill="#ede3ca"/><rect y="2363" width="2400" height="2" fill="#ede3ca"/><rect y="2371" width="2400" height="2" fill="#ede3ca"/><rect y="2379" width="2400" height="2" fill="#ede3ca"/><rect y="2387" width="2400" height="2" fill="#ede3ca"/><rect y="2395" width="2400" height="2" fill="#ede3ca"/><rect y="2403" width="2400" height="2" fill="#ede3ca"/><rect y="2411" width="2400" height="2" fill="#ede3ca"/><rect y="2419" width="2400" height="2" fill="#ede3ca"/><rect y="2427" width="2400" height="2" fill="#ede3ca"/><rect y="2435" width="2400" height="2" fill="#ede3ca"/><rect y="2443" width="2400" height="2" fill="#ede3ca"/><rect y="2451" width="2400" height="2" fill="#ede3ca"/><rect y="2459" width="2400" height="2" fill="#ede3ca"/><rect y="2467" width="2400" height="2" fill="#ede3ca"/><rect y="2475" width="2400" height="2" fill="#ede3ca"/><rect y="2483" width="2400" height="2" fill="#ede3ca"/><rect y="2491" width="2400" height="2" fill="#ede3ca"/><rect y="2499" width="2400" height="2" fill="#ede3ca"/><rect y="2507" width="2400" height="2" fill="#ede3ca"/><rect y="2515" width="2400" height="2" fill="#ede3ca"/><rect y="2523" width="2400" height="2" fill="#ede3ca"/><rect y="2531" width="2400" height="2" fill="#ede3ca"/><rect y="2539" width="2400" height="2" fill="#ede3ca"/><rect y="2547" width="2400" height="2" fill="#ede3ca"/><rect y="2555" width="2400" height="2" fill="#ede3ca"/><rect y="2563" width="2400" height="2" fill="#ede3ca"/><rect y="2571" width="2400" height="2" fill="#ede3ca"/><rect y="2579" width="2400" height="2" fill="#ede3ca"/><rect y="2587" width="2400" height="2" fill="#ede3ca"/><rect y="2595" width="2400" height="2" fill="#ede3ca"/><rect y="2603" width="2400" height="2" fill="#ede3ca"/><rect y="2611" width="2400" height="2" fill="#ede3ca"/><rect y="2619" width="2400" height="2" fill="#ede3ca"/><rect y="2627" width="2400" height="2" fill="#ede3ca"/><rect y="2635" width="2400" height="2" fill="#ede3ca"/><rect y="2643" width="2400" height="2" fill="#ede3ca"/><rect y="2651" width="2400" height="2" fill="#ede3ca"/><rect y="2659" width="2400" height="2" fill="#ede3ca"/><rect y="2667" width="2400" height="2" fill="#ede3ca"/><rect y="2675" width="2400" height="2" fill="#ede3ca"/><rect y="2683" width="2400" height="2" fill="#ede3ca"/><rect y="2691" width="2400" height="2" fill="#ede3ca"/><rect y="2699" width="2400" height="2" fill="#ede3ca"/><rect y="2707" width="2400" height="2" fill="#ede3ca"/><rect y="2715" width="2400" height="2" fill="#ede3ca"/><rect y="2723" width="2400" height="2" fill="#ede3ca"/><rect y="2731" width="2400" height="2" fill="#ede3ca"/><rect y="2739" width="2400" height="2" fill="#ede3ca"/><rect y="2747" width="2400" height="2" fill="#ede3ca"/><rect y="2755" width="2400" height="2" fill="#ede3ca"/><rect y="2763" width="2400" height="2" fill="#ede3ca"/><rect y="2771" width="2400" height="2" fill="#ede3ca"/><rect y="2779" width="2400" height="2" fill="#ede3ca"/><rect y="2787" width="2400" height="2" fill="#ede3ca"/><rect y="2795" width="2400" height="2" fill="#ede3ca"/><rect y="2803" width="2400" height="2" fill="#ede3ca"/><rect y="2811" width="2400" height="2" fill="#ede3ca"/><rect y="2819" width="2400" height="2" fill="#ede3ca"/><rect y="2827" width="2400" height="2" fill="#ede3ca"/><rect y="2835" width="2400" height="2" fill="#ede3ca"/><rect y="2843" width="2400" height="2" fill="#ede3ca"/><rect y="2851" width="2400" height="2" fill="#ede3ca"/><rect y="2859" width="2400" height="2" fill="#ede3ca"/><rect y="2867" width="2400" height="2" fill="#ede3ca"/><rect y="2875" width="2400" height="2" fill="#ede3ca"/><rect y="2883" width="2400" height="2" fill="#ede3ca"/><rect y="2891" width="2400" height="2" fill="#ede3ca"/><rect y="2899" width="2400" height="2" fill="#ede3ca"/><rect y="2907" width="2400" height="2" fill="#ede3ca"/><rect y="2915" width="2400" height="2" fill="#ede3ca"/><rect y="2923" width="2400" height="2" fill="#ede3ca"/><rect y="2931" width="2400" height="2" fill="#ede3ca"/><rect y="2939" width="2400" height="2" fill="#ede3ca"/><rect y="2947" width="2400" height="2" fill="#ede3ca"/><rect y="2955" width="2400" height="2" fill="#ede3ca"/><rect y="2963" width="2400" height="2" fill="#ede3ca"/><rect y="2971" width="2400" height="2" fill="#ede3ca"/><rect y="2979" width="2400" height="2" fill="#ede3ca"/><rect y="2987" width="2400" height="2" fill="#ede3ca"/><rect y="2995" width="2400" height="2" fill="#ede3ca"/></g><rect x="88" y="88" width="2224" height="2824" fill="none" stroke="#3a2c1a" stroke-width="4" opacity="0.2"/><rect x="94" y="94" width="2212" height="2812" fill="none" stroke="#fff6e0" stroke-width="2" opacity="0.25"/><circle cx="664" cy="2248.1" r="4.8" fill="#8a5a2e" opacity="0.059"/><circle cx="1321.6" cy="1938.5" r="11.3" fill="#8a5a2e" opacity="0.079"/><circle cx="1937.5" cy="1925.7" r="14.4" fill="#8a5a2e" opacity="0.081"/><circle cx="1761.3" cy="860.6" r="3.3" fill="#8a5a2e" opacity="0.072"/><circle cx="1275.4" cy="1602.8" r="4.9" fill="#8a5a2e" opacity="0.050"/><circle cx="736.6" cy="899.5" r="11.7" fill="#8a5a2e" opacity="0.097"/><circle cx="1262.6" cy="261.8" r="4.2" fill="#8a5a2e" opacity="0.053"/><circle cx="2290" cy="2589.6" r="7.2" fill="#8a5a2e" opacity="0.046"/><circle cx="451.5" cy="2552.3" r="10.2" fill="#8a5a2e" opacity="0.112"/><circle cx="2202.7" cy="1049" r="14" fill="#8a5a2e" opacity="0.059"/><circle cx="1121.7" cy="1147.5" r="3.7" fill="#8a5a2e" opacity="0.120"/><circle cx="598.7" cy="1570.1" r="13.2" fill="#8a5a2e" opacity="0.095"/><circle cx="642.4" cy="2425.3" r="6.9" fill="#8a5a2e" opacity="0.057"/><circle cx="127.2" cy="2379.8" r="7.4" fill="#8a5a2e" opacity="0.090"/><circle cx="2024.9" cy="849.6" r="7.6" fill="#8a5a2e" opacity="0.083"/><circle cx="525.2" cy="1584.6" r="10.8" fill="#8a5a2e" opacity="0.128"/><circle cx="1811" cy="1373.4" r="10.1" fill="#8a5a2e" opacity="0.040"/><circle cx="1316.2" cy="2466.2" r="15.3" fill="#8a5a2e" opacity="0.057"/><rect width="2400" height="3000" fill="url(#a145-vig)"/></svg>