<svg xmlns="http://www.w3.org/2000/svg" width="2400" height="3000" viewBox="0 0 2400 3000"><filter id="a115-warp" x="-4%" y="-4%" width="108%" height="108%"><feTurbulence type="fractalNoise" baseFrequency="0.0105" numOctaves="2" seed="3497" result="w"/><feDisplacementMap in="SourceGraphic" in2="w" scale="7" xChannelSelector="R" yChannelSelector="G"/></filter><filter id="a115-grain" x="0%" y="0%" width="100%" height="100%"><feTurbulence type="fractalNoise" baseFrequency="0.6" numOctaves="2" seed="3504"/><feColorMatrix type="matrix" values="0.33 0.33 0.33 0 0.62  0.33 0.33 0.33 0 0.62  0.33 0.33 0.33 0 0.62  0 0 0 0 1"/></filter><filter id="a115-mottle" x="0%" y="0%" width="100%" height="100%"><feTurbulence type="fractalNoise" baseFrequency="0.0045" numOctaves="3" seed="3510"/><feColorMatrix type="matrix" values="0.2 0.2 0.2 0 0.78  0.2 0.2 0.2 0 0.78  0.2 0.2 0.2 0 0.78  0 0 0 0 1"/></filter><filter id="a115-fade" x="0%" y="0%" width="100%" height="100%"><feTurbulence type="fractalNoise" baseFrequency="0.006" numOctaves="2" seed="3526"/><feColorMatrix type="matrix" values="0.3 0.3 0.3 0 -0.08  0.3 0.3 0.3 0 -0.08  0.3 0.3 0.3 0 -0.1  0 0 0 0 1"/></filter><filter id="a115-blur9"><feGaussianBlur stdDeviation="9"/></filter><radialGradient id="a115-vig" cx="50%" cy="44%" r="78%"><stop offset="52%" stop-color="#241a10" stop-opacity="0"/><stop offset="100%" stop-color="#241a10" stop-opacity="0.17"/></radialGradient><radialGradient id="a115-warm" cx="47%" cy="30%" r="85%"><stop offset="0%" stop-color="#e8c890" stop-opacity="0.14"/><stop offset="70%" stop-color="#e8c890" stop-opacity="0"/></radialGradient><rect width="2400" height="3000" fill="#e0d5bd"/><rect width="2400" height="3000" fill="url(#a115-warm)"/><g filter="url(#a115-warp)"><circle cx="1200" cy="1400" r="1010" fill="none" stroke="#3a2e1e" stroke-width="10"/><circle cx="1200" cy="1400" r="964" fill="none" stroke="#3a2e1e" stroke-width="4" opacity="0.7"/><line x1="2170" y1="1400" x2="2210" y2="1400" stroke="#3a2e1e" stroke-width="10"/><line x1="2182.2" y1="1485.9" x2="2206.2" y2="1488" stroke="#3a2e1e" stroke-width="5"/><line x1="2171" y1="1571.2" x2="2194.7" y2="1575.4" stroke="#3a2e1e" stroke-width="5"/><line x1="2152.4" y1="1655.2" x2="2175.6" y2="1661.4" stroke="#3a2e1e" stroke-width="5"/><line x1="2126.5" y1="1737.2" x2="2149.1" y2="1745.4" stroke="#3a2e1e" stroke-width="5"/><line x1="2093.6" y1="1816.7" x2="2115.4" y2="1826.8" stroke="#3a2e1e" stroke-width="5"/><line x1="2040" y1="1885" x2="2074.7" y2="1905" stroke="#3a2e1e" stroke-width="10"/><line x1="2007.7" y1="1965.5" x2="2027.3" y2="1979.3" stroke="#3a2e1e" stroke-width="5"/><line x1="1955.3" y1="2033.8" x2="1973.7" y2="2049.2" stroke="#3a2e1e" stroke-width="5"/><line x1="1897.2" y1="2097.2" x2="1914.2" y2="2114.2" stroke="#3a2e1e" stroke-width="5"/><line x1="1833.8" y1="2155.3" x2="1849.2" y2="2173.7" stroke="#3a2e1e" stroke-width="5"/><line x1="1765.5" y1="2207.7" x2="1779.3" y2="2227.3" stroke="#3a2e1e" stroke-width="5"/><line x1="1685" y1="2240" x2="1705" y2="2274.7" stroke="#3a2e1e" stroke-width="10"/><line x1="1616.7" y1="2293.6" x2="1626.8" y2="2315.4" stroke="#3a2e1e" stroke-width="5"/><line x1="1537.2" y1="2326.5" x2="1545.4" y2="2349.1" stroke="#3a2e1e" stroke-width="5"/><line x1="1455.2" y1="2352.4" x2="1461.4" y2="2375.6" stroke="#3a2e1e" stroke-width="5"/><line x1="1371.2" y1="2371" x2="1375.4" y2="2394.7" stroke="#3a2e1e" stroke-width="5"/><line x1="1285.9" y1="2382.2" x2="1288" y2="2406.2" stroke="#3a2e1e" stroke-width="5"/><line x1="1200" y1="2370" x2="1200" y2="2410" stroke="#3a2e1e" stroke-width="10"/><line x1="1114.1" y1="2382.2" x2="1112" y2="2406.2" stroke="#3a2e1e" stroke-width="5"/><line x1="1028.8" y1="2371" x2="1024.6" y2="2394.7" stroke="#3a2e1e" stroke-width="5"/><line x1="944.8" y1="2352.4" x2="938.6" y2="2375.6" stroke="#3a2e1e" stroke-width="5"/><line x1="862.8" y1="2326.5" x2="854.6" y2="2349.1" stroke="#3a2e1e" stroke-width="5"/><line x1="783.3" y1="2293.6" x2="773.2" y2="2315.4" stroke="#3a2e1e" stroke-width="5"/><line x1="715" y1="2240" x2="695" y2="2274.7" stroke="#3a2e1e" stroke-width="10"/><line x1="634.5" y1="2207.7" x2="620.7" y2="2227.3" stroke="#3a2e1e" stroke-width="5"/><line x1="566.2" y1="2155.3" x2="550.8" y2="2173.7" stroke="#3a2e1e" stroke-width="5"/><line x1="502.8" y1="2097.2" x2="485.8" y2="2114.2" stroke="#3a2e1e" stroke-width="5"/><line x1="444.7" y1="2033.8" x2="426.3" y2="2049.2" stroke="#3a2e1e" stroke-width="5"/><line x1="392.3" y1="1965.5" x2="372.7" y2="1979.3" stroke="#3a2e1e" stroke-width="5"/><line x1="360" y1="1885" x2="325.3" y2="1905" stroke="#3a2e1e" stroke-width="10"/><line x1="306.4" y1="1816.7" x2="284.6" y2="1826.8" stroke="#3a2e1e" stroke-width="5"/><line x1="273.5" y1="1737.2" x2="250.9" y2="1745.4" stroke="#3a2e1e" stroke-width="5"/><line x1="247.6" y1="1655.2" x2="224.4" y2="1661.4" stroke="#3a2e1e" stroke-width="5"/><line x1="229" y1="1571.2" x2="205.3" y2="1575.4" stroke="#3a2e1e" stroke-width="5"/><line x1="217.8" y1="1485.9" x2="193.8" y2="1488" stroke="#3a2e1e" stroke-width="5"/><line x1="230" y1="1400" x2="190" y2="1400" stroke="#3a2e1e" stroke-width="10"/><line x1="217.8" y1="1314.1" x2="193.8" y2="1312" stroke="#3a2e1e" stroke-width="5"/><line x1="229" y1="1228.8" x2="205.3" y2="1224.6" stroke="#3a2e1e" stroke-width="5"/><line x1="247.6" y1="1144.8" x2="224.4" y2="1138.6" stroke="#3a2e1e" stroke-width="5"/><line x1="273.5" y1="1062.8" x2="250.9" y2="1054.6" stroke="#3a2e1e" stroke-width="5"/><line x1="306.4" y1="983.3" x2="284.6" y2="973.2" stroke="#3a2e1e" stroke-width="5"/><line x1="360" y1="915" x2="325.3" y2="895" stroke="#3a2e1e" stroke-width="10"/><line x1="392.3" y1="834.5" x2="372.7" y2="820.7" stroke="#3a2e1e" stroke-width="5"/><line x1="444.7" y1="766.2" x2="426.3" y2="750.8" stroke="#3a2e1e" stroke-width="5"/><line x1="502.8" y1="702.8" x2="485.8" y2="685.8" stroke="#3a2e1e" stroke-width="5"/><line x1="566.2" y1="644.7" x2="550.8" y2="626.3" stroke="#3a2e1e" stroke-width="5"/><line x1="634.5" y1="592.3" x2="620.7" y2="572.7" stroke="#3a2e1e" stroke-width="5"/><line x1="715" y1="560" x2="695" y2="525.3" stroke="#3a2e1e" stroke-width="10"/><line x1="783.3" y1="506.4" x2="773.2" y2="484.6" stroke="#3a2e1e" stroke-width="5"/><line x1="862.8" y1="473.5" x2="854.6" y2="450.9" stroke="#3a2e1e" stroke-width="5"/><line x1="944.8" y1="447.6" x2="938.6" y2="424.4" stroke="#3a2e1e" stroke-width="5"/><line x1="1028.8" y1="429" x2="1024.6" y2="405.3" stroke="#3a2e1e" stroke-width="5"/><line x1="1114.1" y1="417.8" x2="1112" y2="393.8" stroke="#3a2e1e" stroke-width="5"/><line x1="1200" y1="430" x2="1200" y2="390" stroke="#3a2e1e" stroke-width="10"/><line x1="1285.9" y1="417.8" x2="1288" y2="393.8" stroke="#3a2e1e" stroke-width="5"/><line x1="1371.2" y1="429" x2="1375.4" y2="405.3" stroke="#3a2e1e" stroke-width="5"/><line x1="1455.2" y1="447.6" x2="1461.4" y2="424.4" stroke="#3a2e1e" stroke-width="5"/><line x1="1537.2" y1="473.5" x2="1545.4" y2="450.9" stroke="#3a2e1e" stroke-width="5"/><line x1="1616.7" y1="506.4" x2="1626.8" y2="484.6" stroke="#3a2e1e" stroke-width="5"/><line x1="1685" y1="560" x2="1705" y2="525.3" stroke="#3a2e1e" stroke-width="10"/><line x1="1765.5" y1="592.3" x2="1779.3" y2="572.7" stroke="#3a2e1e" stroke-width="5"/><line x1="1833.8" y1="644.7" x2="1849.2" y2="626.3" stroke="#3a2e1e" stroke-width="5"/><line x1="1897.2" y1="702.8" x2="1914.2" y2="685.8" stroke="#3a2e1e" stroke-width="5"/><line x1="1955.3" y1="766.2" x2="1973.7" y2="750.8" stroke="#3a2e1e" stroke-width="5"/><line x1="2007.7" y1="834.5" x2="2027.3" y2="820.7" stroke="#3a2e1e" stroke-width="5"/><line x1="2040" y1="915" x2="2074.7" y2="895" stroke="#3a2e1e" stroke-width="10"/><line x1="2093.6" y1="983.3" x2="2115.4" y2="973.2" stroke="#3a2e1e" stroke-width="5"/><line x1="2126.5" y1="1062.8" x2="2149.1" y2="1054.6" stroke="#3a2e1e" stroke-width="5"/><line x1="2152.4" y1="1144.8" x2="2175.6" y2="1138.6" stroke="#3a2e1e" stroke-width="5"/><line x1="2171" y1="1228.8" x2="2194.7" y2="1224.6" stroke="#3a2e1e" stroke-width="5"/><line x1="2182.2" y1="1314.1" x2="2206.2" y2="1312" stroke="#3a2e1e" stroke-width="5"/><circle cx="1200" cy="1400" r="280" fill="none" stroke="#3a2e1e" stroke-width="3" opacity="0.28" stroke-dasharray="3 26"/><circle cx="1200" cy="1400" r="530" fill="none" stroke="#3a2e1e" stroke-width="3" opacity="0.28" stroke-dasharray="3 26"/><circle cx="1200" cy="1400" r="780" fill="none" stroke="#3a2e1e" stroke-width="3" opacity="0.28" stroke-dasharray="3 26"/><circle cx="1973.4" cy="1655.6" r="4.5" fill="#3a2e1e" opacity="0.61"/><circle cx="900.1" cy="1211.6" r="4.7" fill="#3a2e1e" opacity="0.49"/><circle cx="1763.9" cy="839.5" r="5.7" fill="#3a2e1e" opacity="0.49"/><circle cx="698.7" cy="1568.5" r="7.4" fill="#3a2e1e" opacity="0.89"/><circle cx="1605.7" cy="1785.5" r="7.3" fill="#3a2e1e" opacity="0.49"/><circle cx="856.9" cy="1233.2" r="3.1" fill="#3a2e1e" opacity="0.59"/><circle cx="1557.7" cy="1326.4" r="7.7" fill="#3a2e1e" opacity="0.93"/><circle cx="830.2" cy="1121" r="4.1" fill="#3a2e1e" opacity="0.93"/><circle cx="551.2" cy="1887.4" r="6.4" fill="#3a2e1e" opacity="0.65"/><circle cx="1097.4" cy="711.9" r="6" fill="#3a2e1e" opacity="0.54"/><circle cx="1859.2" cy="872.3" r="3.2" fill="#3a2e1e" opacity="0.94"/><circle cx="1086.9" cy="1274.1" r="7.8" fill="#3a2e1e" opacity="0.56"/><circle cx="314.1" cy="1466.4" r="7.9" fill="#3a2e1e" opacity="0.54"/><circle cx="1350.2" cy="2124.2" r="6.5" fill="#3a2e1e" opacity="0.93"/><circle cx="646.7" cy="2044.4" r="4.9" fill="#3a2e1e" opacity="0.93"/><circle cx="1792.3" cy="1073" r="4.5" fill="#3a2e1e" opacity="0.48"/><circle cx="1167.4" cy="987.6" r="7.3" fill="#3a2e1e" opacity="0.62"/><circle cx="1872.9" cy="1346.3" r="5.9" fill="#3a2e1e" opacity="0.51"/><circle cx="1517.5" cy="1066.6" r="5.3" fill="#3a2e1e" opacity="0.63"/><circle cx="875.5" cy="1923.6" r="7.8" fill="#3a2e1e" opacity="0.91"/><circle cx="1512.7" cy="1706.5" r="3.8" fill="#3a2e1e" opacity="0.85"/><circle cx="714.3" cy="1172.7" r="5.8" fill="#3a2e1e" opacity="0.82"/><circle cx="1655.1" cy="778.4" r="3.6" fill="#3a2e1e" opacity="0.67"/><circle cx="1169.7" cy="1220.3" r="6.8" fill="#3a2e1e" opacity="0.92"/><circle cx="1285.8" cy="587.2" r="8" fill="#3a2e1e" opacity="0.70"/><circle cx="916" cy="1643.3" r="7.9" fill="#3a2e1e" opacity="0.55"/><circle cx="1456.8" cy="841" r="6.2" fill="#3a2e1e" opacity="0.50"/><circle cx="1555.1" cy="1183" r="7.1" fill="#3a2e1e" opacity="0.92"/><circle cx="1678.8" cy="692.6" r="3.3" fill="#3a2e1e" opacity="0.70"/><circle cx="549.9" cy="1586" r="6.9" fill="#3a2e1e" opacity="0.91"/><circle cx="769.5" cy="1054.6" r="6.7" fill="#3a2e1e" opacity="0.60"/><circle cx="1304.6" cy="1449.1" r="5.5" fill="#3a2e1e" opacity="0.57"/><circle cx="1439.2" cy="1489.2" r="5" fill="#3a2e1e" opacity="0.81"/><circle cx="1104.5" cy="678.7" r="3.7" fill="#3a2e1e" opacity="0.57"/><circle cx="855.7" cy="1728.6" r="5.3" fill="#3a2e1e" opacity="0.47"/><circle cx="467" cy="1174.8" r="3.6" fill="#3a2e1e" opacity="0.83"/><circle cx="1350.7" cy="1365.9" r="5.3" fill="#3a2e1e" opacity="0.60"/><circle cx="1775.7" cy="1190" r="7.9" fill="#3a2e1e" opacity="0.60"/><circle cx="1348.2" cy="1392.4" r="7.4" fill="#3a2e1e" opacity="0.53"/><circle cx="1538.2" cy="1658" r="7.1" fill="#3a2e1e" opacity="0.58"/><circle cx="1456.1" cy="2228" r="3.9" fill="#3a2e1e" opacity="0.98"/><circle cx="1558.8" cy="1485.6" r="6.5" fill="#3a2e1e" opacity="0.72"/><circle cx="1110.9" cy="692.1" r="6.2" fill="#3a2e1e" opacity="0.53"/><circle cx="1870.7" cy="1174.8" r="7.1" fill="#3a2e1e" opacity="0.77"/><circle cx="850.1" cy="1545.6" r="6.5" fill="#3a2e1e" opacity="0.65"/><circle cx="1813.7" cy="1850.8" r="6.3" fill="#3a2e1e" opacity="0.66"/><circle cx="612.6" cy="1879.8" r="5.9" fill="#3a2e1e" opacity="0.90"/><circle cx="890.7" cy="899.4" r="7.9" fill="#3a2e1e" opacity="0.52"/><circle cx="1138.3" cy="1563.7" r="7.2" fill="#3a2e1e" opacity="0.56"/><circle cx="1795.8" cy="1214.5" r="5.7" fill="#3a2e1e" opacity="0.54"/><circle cx="430.1" cy="1845.5" r="6.2" fill="#3a2e1e" opacity="0.78"/><circle cx="793.9" cy="1233.6" r="5.5" fill="#3a2e1e" opacity="0.76"/><circle cx="806.5" cy="1555.8" r="6.3" fill="#3a2e1e" opacity="0.57"/><circle cx="415.2" cy="1061.7" r="7.7" fill="#3a2e1e" opacity="0.73"/><circle cx="1314" cy="654.1" r="6.8" fill="#3a2e1e" opacity="0.72"/><circle cx="1342.4" cy="1693.5" r="6" fill="#3a2e1e" opacity="0.99"/><circle cx="601.4" cy="1511.9" r="6.8" fill="#3a2e1e" opacity="0.92"/><circle cx="678.9" cy="1486.8" r="7" fill="#3a2e1e" opacity="0.84"/><circle cx="1923.2" cy="870.4" r="7.2" fill="#3a2e1e" opacity="0.72"/><circle cx="583" cy="1450.7" r="4.9" fill="#3a2e1e" opacity="0.99"/><circle cx="350.3" cy="1068" r="4.8" fill="#3a2e1e" opacity="0.79"/><circle cx="750.4" cy="1256.4" r="4.5" fill="#3a2e1e" opacity="0.54"/><circle cx="640" cy="2100.4" r="4.7" fill="#3a2e1e" opacity="0.86"/><circle cx="664.4" cy="2042.1" r="3.8" fill="#3a2e1e" opacity="0.73"/><circle cx="1700.6" cy="958.2" r="7" fill="#3a2e1e" opacity="0.59"/><circle cx="1370.2" cy="1381.9" r="7" fill="#3a2e1e" opacity="0.93"/><path d="M1810.8,1740 Q1859.9,1731.1 1909,1740 Q1859.9,1748.8 1810.8,1740 Z M1859.9,1690.9 Q1868.8,1740 1859.9,1789.1 Q1851.1,1740 1859.9,1690.9 Z" fill="#3a2e1e"/><path d="M1921.7,1364.5 Q1959.8,1357.6 1998,1364.5 Q1959.8,1371.4 1921.7,1364.5 Z M1959.8,1326.4 Q1966.7,1364.5 1959.8,1402.6 Q1953,1364.5 1959.8,1326.4 Z" fill="#3a2e1e"/><path d="M1334.9,645.4 Q1394.2,634.7 1453.5,645.4 Q1394.2,656.1 1334.9,645.4 Z M1394.2,586.1 Q1404.9,645.4 1394.2,704.7 Q1383.5,645.4 1394.2,586.1 Z" fill="#3a2e1e"/><path d="M1594.5,1490.3 Q1647.7,1480.7 1700.8,1490.3 Q1647.7,1499.8 1594.5,1490.3 Z M1647.7,1437.1 Q1657.2,1490.3 1647.7,1543.4 Q1638.1,1490.3 1647.7,1437.1 Z" fill="#3a2e1e"/><path d="M409.4,1262 Q460.1,1252.9 510.8,1262 Q460.1,1271.1 409.4,1262 Z M460.1,1211.3 Q469.2,1262 460.1,1312.7 Q451,1262 460.1,1211.3 Z" fill="#3a2e1e"/><path d="M1046.5,2104.5 Q1085.8,2097.5 1125.2,2104.5 Q1085.8,2111.6 1046.5,2104.5 Z M1085.8,2065.2 Q1092.9,2104.5 1085.8,2143.9 Q1078.8,2104.5 1085.8,2065.2 Z" fill="#3a2e1e"/><path d="M1279.6,1137.6 Q1339,1127 1398.3,1137.6 Q1339,1148.3 1279.6,1137.6 Z M1339,1078.3 Q1349.6,1137.6 1339,1197 Q1328.3,1137.6 1339,1078.3 Z" fill="#3a2e1e"/><path d="M1754,1110.1 Q1801,1101.6 1848.1,1110.1 Q1801,1118.5 1754,1110.1 Z M1801,1063 Q1809.5,1110.1 1801,1157.1 Q1792.6,1110.1 1801,1063 Z" fill="#3a2e1e"/><polyline points="948.8,1476.5 843.1,1444 949.8,1372.5 1168.7,1501.1 1255.1,1571.4 " fill="none" stroke="#3a2e1e" stroke-width="4" opacity="0.55"/><circle cx="948.8" cy="1476.5" r="12" fill="#3a2e1e"/><circle cx="843.1" cy="1444" r="9.9" fill="#3a2e1e"/><circle cx="949.8" cy="1372.5" r="10.6" fill="#3a2e1e"/><circle cx="1168.7" cy="1501.1" r="9.8" fill="#3a2e1e"/><circle cx="1255.1" cy="1571.4" r="13.3" fill="#3a2e1e"/><polyline points="1175.7,1155 1160.8,1334.4 1021.3,1479.9 1028.6,1589.6 815.7,1468.6 673.3,1334.8 746.5,1497.4 " fill="none" stroke="#3a2e1e" stroke-width="4" opacity="0.55"/><circle cx="1175.7" cy="1155" r="12" fill="#3a2e1e"/><circle cx="1160.8" cy="1334.4" r="8.8" fill="#3a2e1e"/><circle cx="1021.3" cy="1479.9" r="8.6" fill="#3a2e1e"/><circle cx="1028.6" cy="1589.6" r="11.3" fill="#3a2e1e"/><circle cx="815.7" cy="1468.6" r="11.8" fill="#3a2e1e"/><circle cx="673.3" cy="1334.8" r="11.6" fill="#3a2e1e"/><circle cx="746.5" cy="1497.4" r="12.6" fill="#3a2e1e"/><circle cx="1838.3" cy="1447.2" r="88" fill="#3a2e1e"/><circle cx="1875.2" cy="1431.4" r="77.4" fill="#e0d5bd"/><path d="M370.1,2819.9 L 433.9,2819.9 L 433.9,2756.1 L 383.8,2756.1 L 383.8,2795.6 L 409.6,2795.6 L 409.6,2775.8 M446.1,2819.9 L 509.9,2819.9 L 509.9,2756.1 L 459.8,2756.1 L 459.8,2795.6 L 485.6,2795.6 L 485.6,2775.8 M522.1,2819.9 L 585.9,2819.9 L 585.9,2756.1 L 535.8,2756.1 L 535.8,2795.6 L 561.6,2795.6 L 561.6,2775.8 M598.1,2819.9 L 661.9,2819.9 L 661.9,2756.1 L 611.8,2756.1 L 611.8,2795.6 L 637.6,2795.6 L 637.6,2775.8 M674.1,2819.9 L 737.9,2819.9 L 737.9,2756.1 L 687.8,2756.1 L 687.8,2795.6 L 713.6,2795.6 L 713.6,2775.8 M750.1,2819.9 L 813.9,2819.9 L 813.9,2756.1 L 763.8,2756.1 L 763.8,2795.6 L 789.6,2795.6 L 789.6,2775.8 M826.1,2819.9 L 889.9,2819.9 L 889.9,2756.1 L 839.8,2756.1 L 839.8,2795.6 L 865.6,2795.6 L 865.6,2775.8 M902.1,2819.9 L 965.9,2819.9 L 965.9,2756.1 L 915.8,2756.1 L 915.8,2795.6 L 941.6,2795.6 L 941.6,2775.8 M978.1,2819.9 L 1041.9,2819.9 L 1041.9,2756.1 L 991.8,2756.1 L 991.8,2795.6 L 1017.6,2795.6 L 1017.6,2775.8 M1054.1,2819.9 L 1117.9,2819.9 L 1117.9,2756.1 L 1067.8,2756.1 L 1067.8,2795.6 L 1093.6,2795.6 L 1093.6,2775.8 M1130.1,2819.9 L 1193.9,2819.9 L 1193.9,2756.1 L 1143.8,2756.1 L 1143.8,2795.6 L 1169.6,2795.6 L 1169.6,2775.8 M1206.1,2819.9 L 1269.9,2819.9 L 1269.9,2756.1 L 1219.8,2756.1 L 1219.8,2795.6 L 1245.6,2795.6 L 1245.6,2775.8 M1282.1,2819.9 L 1345.9,2819.9 L 1345.9,2756.1 L 1295.8,2756.1 L 1295.8,2795.6 L 1321.6,2795.6 L 1321.6,2775.8 M1358.1,2819.9 L 1421.9,2819.9 L 1421.9,2756.1 L 1371.8,2756.1 L 1371.8,2795.6 L 1397.6,2795.6 L 1397.6,2775.8 M1434.1,2819.9 L 1497.9,2819.9 L 1497.9,2756.1 L 1447.8,2756.1 L 1447.8,2795.6 L 1473.6,2795.6 L 1473.6,2775.8 M1510.1,2819.9 L 1573.9,2819.9 L 1573.9,2756.1 L 1523.8,2756.1 L 1523.8,2795.6 L 1549.6,2795.6 L 1549.6,2775.8 M1586.1,2819.9 L 1649.9,2819.9 L 1649.9,2756.1 L 1599.8,2756.1 L 1599.8,2795.6 L 1625.6,2795.6 L 1625.6,2775.8 M1662.1,2819.9 L 1725.9,2819.9 L 1725.9,2756.1 L 1675.8,2756.1 L 1675.8,2795.6 L 1701.6,2795.6 L 1701.6,2775.8 M1738.1,2819.9 L 1801.9,2819.9 L 1801.9,2756.1 L 1751.8,2756.1 L 1751.8,2795.6 L 1777.6,2795.6 L 1777.6,2775.8 M1814.1,2819.9 L 1877.9,2819.9 L 1877.9,2756.1 L 1827.8,2756.1 L 1827.8,2795.6 L 1853.6,2795.6 L 1853.6,2775.8 M1890.1,2819.9 L 1953.9,2819.9 L 1953.9,2756.1 L 1903.8,2756.1 L 1903.8,2795.6 L 1929.6,2795.6 L 1929.6,2775.8 M1966.1,2819.9 L 2029.9,2819.9 L 2029.9,2756.1 L 1979.8,2756.1 L 1979.8,2795.6 L 2005.6,2795.6 L 2005.6,2775.8 " fill="none" stroke="#3a2e1e" stroke-width="9.9"/><rect x="130" y="130" width="2140" height="2740" fill="none" stroke="#3a2e1e" stroke-width="5"/><rect x="152" y="152" width="2096" height="2696" fill="none" stroke="#3a2e1e" stroke-width="2.5" opacity="0.8"/></g><rect width="2400" height="3000" filter="url(#a115-mottle)" style="mix-blend-mode:multiply" opacity="0.5"/><rect width="2400" height="3000" filter="url(#a115-fade)" style="mix-blend-mode:screen" opacity="0.55"/><rect width="2400" height="3000" filter="url(#a115-grain)" style="mix-blend-mode:multiply" opacity="0.32"/><ellipse cx="1880.6" cy="2756.6" rx="140.4" ry="95.6" fill="#6b4a22" opacity="0.042" filter="url(#a115-blur9)"/><ellipse cx="643.4" cy="2146.3" rx="207.5" ry="214.4" fill="#6b4a22" opacity="0.047" filter="url(#a115-blur9)"/><ellipse cx="2016.4" cy="1707.8" rx="294.7" ry="258.5" fill="#6b4a22" opacity="0.060" filter="url(#a115-blur9)"/><ellipse cx="1911.1" cy="2591.7" rx="281.6" ry="289.6" fill="#6b4a22" opacity="0.056" filter="url(#a115-blur9)"/><ellipse cx="1859.9" cy="929.6" rx="338.2" ry="250" fill="#6b4a22" opacity="0.050" filter="url(#a115-blur9)"/><g opacity="0.3"><rect y="3" width="2400" height="2" fill="#e0d5bd"/><rect y="11" width="2400" height="2" fill="#e0d5bd"/><rect y="19" width="2400" height="2" fill="#e0d5bd"/><rect y="27" width="2400" height="2" fill="#e0d5bd"/><rect y="35" width="2400" height="2" fill="#e0d5bd"/><rect y="43" width="2400" height="2" fill="#e0d5bd"/><rect y="51" width="2400" height="2" fill="#e0d5bd"/><rect y="59" width="2400" height="2" fill="#e0d5bd"/><rect y="67" width="2400" height="2" fill="#e0d5bd"/><rect y="75" width="2400" height="2" fill="#e0d5bd"/><rect y="83" width="2400" height="2" fill="#e0d5bd"/><rect y="91" width="2400" height="2" fill="#e0d5bd"/><rect y="99" width="2400" height="2" fill="#e0d5bd"/><rect y="107" width="2400" height="2" fill="#e0d5bd"/><rect y="115" width="2400" height="2" fill="#e0d5bd"/><rect y="123" width="2400" height="2" fill="#e0d5bd"/><rect y="131" width="2400" height="2" fill="#e0d5bd"/><rect y="139" width="2400" height="2" fill="#e0d5bd"/><rect y="147" width="2400" height="2" fill="#e0d5bd"/><rect y="155" width="2400" height="2" fill="#e0d5bd"/><rect y="163" width="2400" height="2" fill="#e0d5bd"/><rect y="171" width="2400" height="2" fill="#e0d5bd"/><rect y="179" width="2400" height="2" fill="#e0d5bd"/><rect y="187" width="2400" height="2" fill="#e0d5bd"/><rect y="195" width="2400" height="2" fill="#e0d5bd"/><rect y="203" width="2400" height="2" fill="#e0d5bd"/><rect y="211" width="2400" height="2" fill="#e0d5bd"/><rect y="219" width="2400" height="2" fill="#e0d5bd"/><rect y="227" width="2400" height="2" fill="#e0d5bd"/><rect y="235" width="2400" height="2" fill="#e0d5bd"/><rect y="243" width="2400" height="2" fill="#e0d5bd"/><rect y="251" width="2400" height="2" fill="#e0d5bd"/><rect y="259" width="2400" height="2" fill="#e0d5bd"/><rect y="267" width="2400" height="2" fill="#e0d5bd"/><rect y="275" width="2400" height="2" fill="#e0d5bd"/><rect y="283" width="2400" height="2" fill="#e0d5bd"/><rect y="291" width="2400" height="2" fill="#e0d5bd"/><rect y="299" width="2400" height="2" fill="#e0d5bd"/><rect y="307" width="2400" height="2" fill="#e0d5bd"/><rect y="315" width="2400" height="2" fill="#e0d5bd"/><rect y="323" width="2400" height="2" fill="#e0d5bd"/><rect y="331" width="2400" height="2" fill="#e0d5bd"/><rect y="339" width="2400" height="2" fill="#e0d5bd"/><rect y="347" width="2400" height="2" fill="#e0d5bd"/><rect y="355" width="2400" height="2" fill="#e0d5bd"/><rect y="363" width="2400" height="2" fill="#e0d5bd"/><rect y="371" width="2400" height="2" fill="#e0d5bd"/><rect y="379" width="2400" height="2" fill="#e0d5bd"/><rect y="387" width="2400" height="2" fill="#e0d5bd"/><rect y="395" width="2400" height="2" fill="#e0d5bd"/><rect y="403" width="2400" height="2" fill="#e0d5bd"/><rect y="411" width="2400" height="2" fill="#e0d5bd"/><rect y="419" width="2400" height="2" fill="#e0d5bd"/><rect y="427" width="2400" height="2" fill="#e0d5bd"/><rect y="435" width="2400" height="2" fill="#e0d5bd"/><rect y="443" width="2400" height="2" fill="#e0d5bd"/><rect y="451" width="2400" height="2" fill="#e0d5bd"/><rect y="459" width="2400" height="2" fill="#e0d5bd"/><rect y="467" width="2400" height="2" fill="#e0d5bd"/><rect y="475" width="2400" height="2" fill="#e0d5bd"/><rect y="483" width="2400" height="2" fill="#e0d5bd"/><rect y="491" width="2400" height="2" fill="#e0d5bd"/><rect y="499" width="2400" height="2" fill="#e0d5bd"/><rect y="507" width="2400" height="2" fill="#e0d5bd"/><rect y="515" width="2400" height="2" fill="#e0d5bd"/><rect y="523" width="2400" height="2" fill="#e0d5bd"/><rect y="531" width="2400" height="2" fill="#e0d5bd"/><rect y="539" width="2400" height="2" fill="#e0d5bd"/><rect y="547" width="2400" height="2" fill="#e0d5bd"/><rect y="555" width="2400" height="2" fill="#e0d5bd"/><rect y="563" width="2400" height="2" fill="#e0d5bd"/><rect y="571" width="2400" height="2" fill="#e0d5bd"/><rect y="579" width="2400" height="2" fill="#e0d5bd"/><rect y="587" width="2400" height="2" fill="#e0d5bd"/><rect y="595" width="2400" height="2" fill="#e0d5bd"/><rect y="603" width="2400" height="2" fill="#e0d5bd"/><rect y="611" width="2400" height="2" fill="#e0d5bd"/><rect y="619" width="2400" height="2" fill="#e0d5bd"/><rect y="627" width="2400" height="2" fill="#e0d5bd"/><rect y="635" width="2400" height="2" fill="#e0d5bd"/><rect y="643" width="2400" height="2" fill="#e0d5bd"/><rect y="651" width="2400" height="2" fill="#e0d5bd"/><rect y="659" width="2400" height="2" fill="#e0d5bd"/><rect y="667" width="2400" height="2" fill="#e0d5bd"/><rect y="675" width="2400" height="2" fill="#e0d5bd"/><rect y="683" width="2400" height="2" fill="#e0d5bd"/><rect y="691" width="2400" height="2" fill="#e0d5bd"/><rect y="699" width="2400" height="2" fill="#e0d5bd"/><rect y="707" width="2400" height="2" fill="#e0d5bd"/><rect y="715" width="2400" height="2" fill="#e0d5bd"/><rect y="723" width="2400" height="2" fill="#e0d5bd"/><rect y="731" width="2400" height="2" fill="#e0d5bd"/><rect y="739" width="2400" height="2" fill="#e0d5bd"/><rect y="747" width="2400" height="2" fill="#e0d5bd"/><rect y="755" width="2400" height="2" fill="#e0d5bd"/><rect y="763" width="2400" height="2" fill="#e0d5bd"/><rect y="771" width="2400" height="2" fill="#e0d5bd"/><rect y="779" width="2400" height="2" fill="#e0d5bd"/><rect y="787" width="2400" height="2" fill="#e0d5bd"/><rect y="795" width="2400" height="2" fill="#e0d5bd"/><rect y="803" width="2400" height="2" fill="#e0d5bd"/><rect y="811" width="2400" height="2" fill="#e0d5bd"/><rect y="819" width="2400" height="2" fill="#e0d5bd"/><rect y="827" width="2400" height="2" fill="#e0d5bd"/><rect y="835" width="2400" height="2" fill="#e0d5bd"/><rect y="843" width="2400" height="2" fill="#e0d5bd"/><rect y="851" width="2400" height="2" fill="#e0d5bd"/><rect y="859" width="2400" height="2" fill="#e0d5bd"/><rect y="867" width="2400" height="2" fill="#e0d5bd"/><rect y="875" width="2400" height="2" fill="#e0d5bd"/><rect y="883" width="2400" height="2" fill="#e0d5bd"/><rect y="891" width="2400" height="2" fill="#e0d5bd"/><rect y="899" width="2400" height="2" fill="#e0d5bd"/><rect y="907" width="2400" height="2" fill="#e0d5bd"/><rect y="915" width="2400" height="2" fill="#e0d5bd"/><rect y="923" width="2400" height="2" fill="#e0d5bd"/><rect y="931" width="2400" height="2" fill="#e0d5bd"/><rect y="939" width="2400" height="2" fill="#e0d5bd"/><rect y="947" width="2400" height="2" fill="#e0d5bd"/><rect y="955" width="2400" height="2" fill="#e0d5bd"/><rect y="963" width="2400" height="2" fill="#e0d5bd"/><rect y="971" width="2400" height="2" fill="#e0d5bd"/><rect y="979" width="2400" height="2" fill="#e0d5bd"/><rect y="987" width="2400" height="2" fill="#e0d5bd"/><rect y="995" width="2400" height="2" fill="#e0d5bd"/><rect y="1003" width="2400" height="2" fill="#e0d5bd"/><rect y="1011" width="2400" height="2" fill="#e0d5bd"/><rect y="1019" width="2400" height="2" fill="#e0d5bd"/><rect y="1027" width="2400" height="2" fill="#e0d5bd"/><rect y="1035" width="2400" height="2" fill="#e0d5bd"/><rect y="1043" width="2400" height="2" fill="#e0d5bd"/><rect y="1051" width="2400" height="2" fill="#e0d5bd"/><rect y="1059" width="2400" height="2" fill="#e0d5bd"/><rect y="1067" width="2400" height="2" fill="#e0d5bd"/><rect y="1075" width="2400" height="2" fill="#e0d5bd"/><rect y="1083" width="2400" height="2" fill="#e0d5bd"/><rect y="1091" width="2400" height="2" fill="#e0d5bd"/><rect y="1099" width="2400" height="2" fill="#e0d5bd"/><rect y="1107" width="2400" height="2" fill="#e0d5bd"/><rect y="1115" width="2400" height="2" fill="#e0d5bd"/><rect y="1123" width="2400" height="2" fill="#e0d5bd"/><rect y="1131" width="2400" height="2" fill="#e0d5bd"/><rect y="1139" width="2400" height="2" fill="#e0d5bd"/><rect y="1147" width="2400" height="2" fill="#e0d5bd"/><rect y="1155" width="2400" height="2" fill="#e0d5bd"/><rect y="1163" width="2400" height="2" fill="#e0d5bd"/><rect y="1171" width="2400" height="2" fill="#e0d5bd"/><rect y="1179" width="2400" height="2" fill="#e0d5bd"/><rect y="1187" width="2400" height="2" fill="#e0d5bd"/><rect y="1195" width="2400" height="2" fill="#e0d5bd"/><rect y="1203" width="2400" height="2" fill="#e0d5bd"/><rect y="1211" width="2400" height="2" fill="#e0d5bd"/><rect y="1219" width="2400" height="2" fill="#e0d5bd"/><rect y="1227" width="2400" height="2" fill="#e0d5bd"/><rect y="1235" width="2400" height="2" fill="#e0d5bd"/><rect y="1243" width="2400" height="2" fill="#e0d5bd"/><rect y="1251" width="2400" height="2" fill="#e0d5bd"/><rect y="1259" width="2400" height="2" fill="#e0d5bd"/><rect y="1267" width="2400" height="2" fill="#e0d5bd"/><rect y="1275" width="2400" height="2" fill="#e0d5bd"/><rect y="1283" width="2400" height="2" fill="#e0d5bd"/><rect y="1291" width="2400" height="2" fill="#e0d5bd"/><rect y="1299" width="2400" height="2" fill="#e0d5bd"/><rect y="1307" width="2400" height="2" fill="#e0d5bd"/><rect y="1315" width="2400" height="2" fill="#e0d5bd"/><rect y="1323" width="2400" height="2" fill="#e0d5bd"/><rect y="1331" width="2400" height="2" fill="#e0d5bd"/><rect y="1339" width="2400" height="2" fill="#e0d5bd"/><rect y="1347" width="2400" height="2" fill="#e0d5bd"/><rect y="1355" width="2400" height="2" fill="#e0d5bd"/><rect y="1363" width="2400" height="2" fill="#e0d5bd"/><rect y="1371" width="2400" height="2" fill="#e0d5bd"/><rect y="1379" width="2400" height="2" fill="#e0d5bd"/><rect y="1387" width="2400" height="2" fill="#e0d5bd"/><rect y="1395" width="2400" height="2" fill="#e0d5bd"/><rect y="1403" width="2400" height="2" fill="#e0d5bd"/><rect y="1411" width="2400" height="2" fill="#e0d5bd"/><rect y="1419" width="2400" height="2" fill="#e0d5bd"/><rect y="1427" width="2400" height="2" fill="#e0d5bd"/><rect y="1435" width="2400" height="2" fill="#e0d5bd"/><rect y="1443" width="2400" height="2" fill="#e0d5bd"/><rect y="1451" width="2400" height="2" fill="#e0d5bd"/><rect y="1459" width="2400" height="2" fill="#e0d5bd"/><rect y="1467" width="2400" height="2" fill="#e0d5bd"/><rect y="1475" width="2400" height="2" fill="#e0d5bd"/><rect y="1483" width="2400" height="2" fill="#e0d5bd"/><rect y="1491" width="2400" height="2" fill="#e0d5bd"/><rect y="1499" width="2400" height="2" fill="#e0d5bd"/><rect y="1507" width="2400" height="2" fill="#e0d5bd"/><rect y="1515" width="2400" height="2" fill="#e0d5bd"/><rect y="1523" width="2400" height="2" fill="#e0d5bd"/><rect y="1531" width="2400" height="2" fill="#e0d5bd"/><rect y="1539" width="2400" height="2" fill="#e0d5bd"/><rect y="1547" width="2400" height="2" fill="#e0d5bd"/><rect y="1555" width="2400" height="2" fill="#e0d5bd"/><rect y="1563" width="2400" height="2" fill="#e0d5bd"/><rect y="1571" width="2400" height="2" fill="#e0d5bd"/><rect y="1579" width="2400" height="2" fill="#e0d5bd"/><rect y="1587" width="2400" height="2" fill="#e0d5bd"/><rect y="1595" width="2400" height="2" fill="#e0d5bd"/><rect y="1603" width="2400" height="2" fill="#e0d5bd"/><rect y="1611" width="2400" height="2" fill="#e0d5bd"/><rect y="1619" width="2400" height="2" fill="#e0d5bd"/><rect y="1627" width="2400" height="2" fill="#e0d5bd"/><rect y="1635" width="2400" height="2" fill="#e0d5bd"/><rect y="1643" width="2400" height="2" fill="#e0d5bd"/><rect y="1651" width="2400" height="2" fill="#e0d5bd"/><rect y="1659" width="2400" height="2" fill="#e0d5bd"/><rect y="1667" width="2400" height="2" fill="#e0d5bd"/><rect y="1675" width="2400" height="2" fill="#e0d5bd"/><rect y="1683" width="2400" height="2" fill="#e0d5bd"/><rect y="1691" width="2400" height="2" fill="#e0d5bd"/><rect y="1699" width="2400" height="2" fill="#e0d5bd"/><rect y="1707" width="2400" height="2" fill="#e0d5bd"/><rect y="1715" width="2400" height="2" fill="#e0d5bd"/><rect y="1723" width="2400" height="2" fill="#e0d5bd"/><rect y="1731" width="2400" height="2" fill="#e0d5bd"/><rect y="1739" width="2400" height="2" fill="#e0d5bd"/><rect y="1747" width="2400" height="2" fill="#e0d5bd"/><rect y="1755" width="2400" height="2" fill="#e0d5bd"/><rect y="1763" width="2400" height="2" fill="#e0d5bd"/><rect y="1771" width="2400" height="2" fill="#e0d5bd"/><rect y="1779" width="2400" height="2" fill="#e0d5bd"/><rect y="1787" width="2400" height="2" fill="#e0d5bd"/><rect y="1795" width="2400" height="2" fill="#e0d5bd"/><rect y="1803" width="2400" height="2" fill="#e0d5bd"/><rect y="1811" width="2400" height="2" fill="#e0d5bd"/><rect y="1819" width="2400" height="2" fill="#e0d5bd"/><rect y="1827" width="2400" height="2" fill="#e0d5bd"/><rect y="1835" width="2400" height="2" fill="#e0d5bd"/><rect y="1843" width="2400" height="2" fill="#e0d5bd"/><rect y="1851" width="2400" height="2" fill="#e0d5bd"/><rect y="1859" width="2400" height="2" fill="#e0d5bd"/><rect y="1867" width="2400" height="2" fill="#e0d5bd"/><rect y="1875" width="2400" height="2" fill="#e0d5bd"/><rect y="1883" width="2400" height="2" fill="#e0d5bd"/><rect y="1891" width="2400" height="2" fill="#e0d5bd"/><rect y="1899" width="2400" height="2" fill="#e0d5bd"/><rect y="1907" width="2400" height="2" fill="#e0d5bd"/><rect y="1915" width="2400" height="2" fill="#e0d5bd"/><rect y="1923" width="2400" height="2" fill="#e0d5bd"/><rect y="1931" width="2400" height="2" fill="#e0d5bd"/><rect y="1939" width="2400" height="2" fill="#e0d5bd"/><rect y="1947" width="2400" height="2" fill="#e0d5bd"/><rect y="1955" width="2400" height="2" fill="#e0d5bd"/><rect y="1963" width="2400" height="2" fill="#e0d5bd"/><rect y="1971" width="2400" height="2" fill="#e0d5bd"/><rect y="1979" width="2400" height="2" fill="#e0d5bd"/><rect y="1987" width="2400" height="2" fill="#e0d5bd"/><rect y="1995" width="2400" height="2" fill="#e0d5bd"/><rect y="2003" width="2400" height="2" fill="#e0d5bd"/><rect y="2011" width="2400" height="2" fill="#e0d5bd"/><rect y="2019" width="2400" height="2" fill="#e0d5bd"/><rect y="2027" width="2400" height="2" fill="#e0d5bd"/><rect y="2035" width="2400" height="2" fill="#e0d5bd"/><rect y="2043" width="2400" height="2" fill="#e0d5bd"/><rect y="2051" width="2400" height="2" fill="#e0d5bd"/><rect y="2059" width="2400" height="2" fill="#e0d5bd"/><rect y="2067" width="2400" height="2" fill="#e0d5bd"/><rect y="2075" width="2400" height="2" fill="#e0d5bd"/><rect y="2083" width="2400" height="2" fill="#e0d5bd"/><rect y="2091" width="2400" height="2" fill="#e0d5bd"/><rect y="2099" width="2400" height="2" fill="#e0d5bd"/><rect y="2107" width="2400" height="2" fill="#e0d5bd"/><rect y="2115" width="2400" height="2" fill="#e0d5bd"/><rect y="2123" width="2400" height="2" fill="#e0d5bd"/><rect y="2131" width="2400" height="2" fill="#e0d5bd"/><rect y="2139" width="2400" height="2" fill="#e0d5bd"/><rect y="2147" width="2400" height="2" fill="#e0d5bd"/><rect y="2155" width="2400" height="2" fill="#e0d5bd"/><rect y="2163" width="2400" height="2" fill="#e0d5bd"/><rect y="2171" width="2400" height="2" fill="#e0d5bd"/><rect y="2179" width="2400" height="2" fill="#e0d5bd"/><rect y="2187" width="2400" height="2" fill="#e0d5bd"/><rect y="2195" width="2400" height="2" fill="#e0d5bd"/><rect y="2203" width="2400" height="2" fill="#e0d5bd"/><rect y="2211" width="2400" height="2" fill="#e0d5bd"/><rect y="2219" width="2400" height="2" fill="#e0d5bd"/><rect y="2227" width="2400" height="2" fill="#e0d5bd"/><rect y="2235" width="2400" height="2" fill="#e0d5bd"/><rect y="2243" width="2400" height="2" fill="#e0d5bd"/><rect y="2251" width="2400" height="2" fill="#e0d5bd"/><rect y="2259" width="2400" height="2" fill="#e0d5bd"/><rect y="2267" width="2400" height="2" fill="#e0d5bd"/><rect y="2275" width="2400" height="2" fill="#e0d5bd"/><rect y="2283" width="2400" height="2" fill="#e0d5bd"/><rect y="2291" width="2400" height="2" fill="#e0d5bd"/><rect y="2299" width="2400" height="2" fill="#e0d5bd"/><rect y="2307" width="2400" height="2" fill="#e0d5bd"/><rect y="2315" width="2400" height="2" fill="#e0d5bd"/><rect y="2323" width="2400" height="2" fill="#e0d5bd"/><rect y="2331" width="2400" height="2" fill="#e0d5bd"/><rect y="2339" width="2400" height="2" fill="#e0d5bd"/><rect y="2347" width="2400" height="2" fill="#e0d5bd"/><rect y="2355" width="2400" height="2" fill="#e0d5bd"/><rect y="2363" width="2400" height="2" fill="#e0d5bd"/><rect y="2371" width="2400" height="2" fill="#e0d5bd"/><rect y="2379" width="2400" height="2" fill="#e0d5bd"/><rect y="2387" width="2400" height="2" fill="#e0d5bd"/><rect y="2395" width="2400" height="2" fill="#e0d5bd"/><rect y="2403" width="2400" height="2" fill="#e0d5bd"/><rect y="2411" width="2400" height="2" fill="#e0d5bd"/><rect y="2419" width="2400" height="2" fill="#e0d5bd"/><rect y="2427" width="2400" height="2" fill="#e0d5bd"/><rect y="2435" width="2400" height="2" fill="#e0d5bd"/><rect y="2443" width="2400" height="2" fill="#e0d5bd"/><rect y="2451" width="2400" height="2" fill="#e0d5bd"/><rect y="2459" width="2400" height="2" fill="#e0d5bd"/><rect y="2467" width="2400" height="2" fill="#e0d5bd"/><rect y="2475" width="2400" height="2" fill="#e0d5bd"/><rect y="2483" width="2400" height="2" fill="#e0d5bd"/><rect y="2491" width="2400" height="2" fill="#e0d5bd"/><rect y="2499" width="2400" height="2" fill="#e0d5bd"/><rect y="2507" width="2400" height="2" fill="#e0d5bd"/><rect y="2515" width="2400" height="2" fill="#e0d5bd"/><rect y="2523" width="2400" height="2" fill="#e0d5bd"/><rect y="2531" width="2400" height="2" fill="#e0d5bd"/><rect y="2539" width="2400" height="2" fill="#e0d5bd"/><rect y="2547" width="2400" height="2" fill="#e0d5bd"/><rect y="2555" width="2400" height="2" fill="#e0d5bd"/><rect y="2563" width="2400" height="2" fill="#e0d5bd"/><rect y="2571" width="2400" height="2" fill="#e0d5bd"/><rect y="2579" width="2400" height="2" fill="#e0d5bd"/><rect y="2587" width="2400" height="2" fill="#e0d5bd"/><rect y="2595" width="2400" height="2" fill="#e0d5bd"/><rect y="2603" width="2400" height="2" fill="#e0d5bd"/><rect y="2611" width="2400" height="2" fill="#e0d5bd"/><rect y="2619" width="2400" height="2" fill="#e0d5bd"/><rect y="2627" width="2400" height="2" fill="#e0d5bd"/><rect y="2635" width="2400" height="2" fill="#e0d5bd"/><rect y="2643" width="2400" height="2" fill="#e0d5bd"/><rect y="2651" width="2400" height="2" fill="#e0d5bd"/><rect y="2659" width="2400" height="2" fill="#e0d5bd"/><rect y="2667" width="2400" height="2" fill="#e0d5bd"/><rect y="2675" width="2400" height="2" fill="#e0d5bd"/><rect y="2683" width="2400" height="2" fill="#e0d5bd"/><rect y="2691" width="2400" height="2" fill="#e0d5bd"/><rect y="2699" width="2400" height="2" fill="#e0d5bd"/><rect y="2707" width="2400" height="2" fill="#e0d5bd"/><rect y="2715" width="2400" height="2" fill="#e0d5bd"/><rect y="2723" width="2400" height="2" fill="#e0d5bd"/><rect y="2731" width="2400" height="2" fill="#e0d5bd"/><rect y="2739" width="2400" height="2" fill="#e0d5bd"/><rect y="2747" width="2400" height="2" fill="#e0d5bd"/><rect y="2755" width="2400" height="2" fill="#e0d5bd"/><rect y="2763" width="2400" height="2" fill="#e0d5bd"/><rect y="2771" width="2400" height="2" fill="#e0d5bd"/><rect y="2779" width="2400" height="2" fill="#e0d5bd"/><rect y="2787" width="2400" height="2" fill="#e0d5bd"/><rect y="2795" width="2400" height="2" fill="#e0d5bd"/><rect y="2803" width="2400" height="2" fill="#e0d5bd"/><rect y="2811" width="2400" height="2" fill="#e0d5bd"/><rect y="2819" width="2400" height="2" fill="#e0d5bd"/><rect y="2827" width="2400" height="2" fill="#e0d5bd"/><rect y="2835" width="2400" height="2" fill="#e0d5bd"/><rect y="2843" width="2400" height="2" fill="#e0d5bd"/><rect y="2851" width="2400" height="2" fill="#e0d5bd"/><rect y="2859" width="2400" height="2" fill="#e0d5bd"/><rect y="2867" width="2400" height="2" fill="#e0d5bd"/><rect y="2875" width="2400" height="2" fill="#e0d5bd"/><rect y="2883" width="2400" height="2" fill="#e0d5bd"/><rect y="2891" width="2400" height="2" fill="#e0d5bd"/><rect y="2899" width="2400" height="2" fill="#e0d5bd"/><rect y="2907" width="2400" height="2" fill="#e0d5bd"/><rect y="2915" width="2400" height="2" fill="#e0d5bd"/><rect y="2923" width="2400" height="2" fill="#e0d5bd"/><rect y="2931" width="2400" height="2" fill="#e0d5bd"/><rect y="2939" width="2400" height="2" fill="#e0d5bd"/><rect y="2947" width="2400" height="2" fill="#e0d5bd"/><rect y="2955" width="2400" height="2" fill="#e0d5bd"/><rect y="2963" width="2400" height="2" fill="#e0d5bd"/><rect y="2971" width="2400" height="2" fill="#e0d5bd"/><rect y="2979" width="2400" height="2" fill="#e0d5bd"/><rect y="2987" width="2400" height="2" fill="#e0d5bd"/><rect y="2995" width="2400" height="2" fill="#e0d5bd"/></g><rect x="88" y="88" width="2224" height="2824" fill="none" stroke="#3a2c1a" stroke-width="4" opacity="0.2"/><rect x="94" y="94" width="2212" height="2812" fill="none" stroke="#fff6e0" stroke-width="2" opacity="0.25"/><circle cx="167.4" cy="2674.5" r="5.3" fill="#8a5a2e" opacity="0.078"/><circle cx="267.5" cy="645" r="3.3" fill="#8a5a2e" opacity="0.117"/><circle cx="679.5" cy="2317.1" r="14.3" fill="#8a5a2e" opacity="0.043"/><circle cx="1060.1" cy="1101.3" r="9.8" fill="#8a5a2e" opacity="0.123"/><circle cx="1195.3" cy="166.8" r="9.9" fill="#8a5a2e" opacity="0.089"/><circle cx="524.9" cy="1566.2" r="10.5" fill="#8a5a2e" opacity="0.096"/><circle cx="1589.5" cy="387.3" r="15.7" fill="#8a5a2e" opacity="0.126"/><circle cx="1660.2" cy="2099.8" r="12.8" fill="#8a5a2e" opacity="0.125"/><circle cx="585.7" cy="311.8" r="14.5" fill="#8a5a2e" opacity="0.045"/><circle cx="875.1" cy="1057.7" r="12.4" fill="#8a5a2e" opacity="0.108"/><circle cx="1477.6" cy="1777.4" r="5.4" fill="#8a5a2e" opacity="0.126"/><circle cx="644.6" cy="1697.1" r="9.5" fill="#8a5a2e" opacity="0.095"/><circle cx="1764.9" cy="484.2" r="7.3" fill="#8a5a2e" opacity="0.121"/><circle cx="1056.9" cy="2530.8" r="3.6" fill="#8a5a2e" opacity="0.078"/><circle cx="1990.3" cy="2611.7" r="8.3" fill="#8a5a2e" opacity="0.064"/><circle cx="558.6" cy="497.2" r="12.8" fill="#8a5a2e" opacity="0.114"/><circle cx="114.1" cy="1901.7" r="12.3" fill="#8a5a2e" opacity="0.084"/><circle cx="126" cy="498.6" r="11.2" fill="#8a5a2e" opacity="0.096"/><circle cx="1649.5" cy="968.7" r="6.5" fill="#8a5a2e" opacity="0.064"/><circle cx="1299.8" cy="1348.2" r="13.6" fill="#8a5a2e" opacity="0.081"/><circle cx="1576.5" cy="579.7" r="15.4" fill="#8a5a2e" opacity="0.071"/><circle cx="899.8" cy="927.3" r="14.5" fill="#8a5a2e" opacity="0.055"/><circle cx="1799.6" cy="2755" r="15.6" fill="#8a5a2e" opacity="0.127"/><rect width="2400" height="3000" fill="url(#a115-vig)"/></svg>