<svg xmlns="http://www.w3.org/2000/svg" width="2400" height="3000" viewBox="0 0 2400 3000"><rect width="2400" height="3000" fill="#3d4a33"/><radialGradient id="a176-vig" cx="50%" cy="42%" r="80%"><stop offset="55%" stop-color="#000" stop-opacity="0"/><stop offset="100%" stop-color="#000" stop-opacity="0.15"/></radialGradient><rect width="2400" height="3000" fill="url(#a176-vig)"/><circle cx="2317.8" cy="1387.1" r="3.5" fill="#e6ddc4" opacity="0.073"/><circle cx="983.1" cy="406.1" r="3.3" fill="#e6ddc4" opacity="0.069"/><circle cx="2260.1" cy="643" r="3.7" fill="#e6ddc4" opacity="0.037"/><circle cx="1258.6" cy="2103.1" r="4.2" fill="#e6ddc4" opacity="0.052"/><circle cx="1737.6" cy="2183.3" r="2.9" fill="#e6ddc4" opacity="0.073"/><circle cx="1015.1" cy="2902.3" r="2.1" fill="#e6ddc4" opacity="0.076"/><circle cx="1814.8" cy="470.8" r="3" fill="#e6ddc4" opacity="0.054"/><circle cx="121.7" cy="2561.9" r="2.4" fill="#e6ddc4" opacity="0.053"/><circle cx="239.1" cy="2335.6" r="2.4" fill="#e6ddc4" opacity="0.065"/><circle cx="2258.5" cy="574.6" r="4.1" fill="#e6ddc4" opacity="0.079"/><circle cx="1332.7" cy="2747.9" r="2" fill="#e6ddc4" opacity="0.050"/><circle cx="337.9" cy="1340.5" r="3.1" fill="#e6ddc4" opacity="0.035"/><circle cx="1384.8" cy="328.5" r="3.4" fill="#e6ddc4" opacity="0.030"/><circle cx="977.3" cy="2297.5" r="3.2" fill="#e6ddc4" opacity="0.067"/><circle cx="1726.6" cy="2816.4" r="3.9" fill="#e6ddc4" opacity="0.071"/><circle cx="1091.5" cy="353.9" r="4" fill="#e6ddc4" opacity="0.056"/><circle cx="1609.8" cy="951" r="3.7" fill="#e6ddc4" opacity="0.068"/><circle cx="1166.2" cy="1566" r="3.7" fill="#e6ddc4" opacity="0.077"/><circle cx="835.2" cy="2652.2" r="1.8" fill="#e6ddc4" opacity="0.032"/><circle cx="2151.9" cy="586.5" r="3.2" fill="#e6ddc4" opacity="0.045"/><circle cx="258.3" cy="2678.4" r="2.5" fill="#e6ddc4" opacity="0.052"/><circle cx="859.3" cy="291.7" r="2.6" fill="#e6ddc4" opacity="0.071"/><circle cx="899.5" cy="173.8" r="2.2" fill="#e6ddc4" opacity="0.071"/><circle cx="923.6" cy="2582.4" r="2.6" fill="#e6ddc4" opacity="0.064"/><circle cx="360.3" cy="2312.1" r="1.7" fill="#e6ddc4" opacity="0.068"/><circle cx="145.2" cy="525" r="4.2" fill="#e6ddc4" opacity="0.039"/><circle cx="2295.2" cy="2791.9" r="3.4" fill="#e6ddc4" opacity="0.041"/><circle cx="1061.2" cy="2404.7" r="1.6" fill="#e6ddc4" opacity="0.054"/><circle cx="1214.5" cy="127.3" r="4.3" fill="#e6ddc4" opacity="0.055"/><circle cx="2141.6" cy="215.2" r="4.1" fill="#e6ddc4" opacity="0.059"/><circle cx="1996.3" cy="1320.3" r="3.9" fill="#e6ddc4" opacity="0.045"/><circle cx="2326.2" cy="2775.5" r="1.8" fill="#e6ddc4" opacity="0.058"/><circle cx="479.4" cy="1961.9" r="2" fill="#e6ddc4" opacity="0.048"/><circle cx="1401.1" cy="1091.8" r="1.6" fill="#e6ddc4" opacity="0.032"/><circle cx="71.2" cy="2741.7" r="3.1" fill="#e6ddc4" opacity="0.066"/><circle cx="1732.6" cy="2436.7" r="3.3" fill="#e6ddc4" opacity="0.070"/><circle cx="1586.4" cy="1349.7" r="4.1" fill="#e6ddc4" opacity="0.079"/><circle cx="1900.5" cy="120.7" r="4.2" fill="#e6ddc4" opacity="0.070"/><circle cx="505.4" cy="1097.7" r="3.6" fill="#e6ddc4" opacity="0.050"/><circle cx="1347.8" cy="707.9" r="1.7" fill="#e6ddc4" opacity="0.055"/><circle cx="1328.9" cy="2022.4" r="3.5" fill="#e6ddc4" opacity="0.061"/><circle cx="1057.9" cy="1825.8" r="2.1" fill="#e6ddc4" opacity="0.044"/><circle cx="1503.6" cy="1987.5" r="3.5" fill="#e6ddc4" opacity="0.067"/><circle cx="2195" cy="1148.7" r="3.5" fill="#e6ddc4" opacity="0.033"/><circle cx="100.1" cy="2469.8" r="4.4" fill="#e6ddc4" opacity="0.040"/><circle cx="1487.2" cy="1719.7" r="4.3" fill="#e6ddc4" opacity="0.059"/><circle cx="969" cy="1718.6" r="2.3" fill="#e6ddc4" opacity="0.059"/><circle cx="398.1" cy="1533.7" r="2.5" fill="#e6ddc4" opacity="0.067"/><circle cx="1884" cy="2325.2" r="2" fill="#e6ddc4" opacity="0.036"/><circle cx="2126.7" cy="1613.7" r="4.5" fill="#e6ddc4" opacity="0.076"/><circle cx="1477.4" cy="1887.5" r="3.1" fill="#e6ddc4" opacity="0.053"/><circle cx="1712" cy="2452.3" r="1.7" fill="#e6ddc4" opacity="0.046"/><circle cx="216.3" cy="2719.3" r="3" fill="#e6ddc4" opacity="0.052"/><circle cx="161.4" cy="2701" r="4" fill="#e6ddc4" opacity="0.054"/><circle cx="1327.9" cy="1354.2" r="2.3" fill="#e6ddc4" opacity="0.057"/><circle cx="1874.5" cy="518.8" r="1.8" fill="#e6ddc4" opacity="0.079"/><circle cx="1624.4" cy="2151.6" r="1.5" fill="#e6ddc4" opacity="0.030"/><circle cx="731.8" cy="2909" r="3.9" fill="#e6ddc4" opacity="0.047"/><circle cx="2316.1" cy="2004.1" r="4.1" fill="#e6ddc4" opacity="0.074"/><circle cx="555.8" cy="2172.8" r="2.1" fill="#e6ddc4" opacity="0.038"/><circle cx="611.9" cy="2777.3" r="3.3" fill="#e6ddc4" opacity="0.035"/><circle cx="1815.5" cy="1469.8" r="4.4" fill="#e6ddc4" opacity="0.031"/><circle cx="978.1" cy="2717.9" r="3.8" fill="#e6ddc4" opacity="0.066"/><circle cx="295.9" cy="899.4" r="2.6" fill="#e6ddc4" opacity="0.068"/><circle cx="1826.7" cy="670.3" r="2.5" fill="#e6ddc4" opacity="0.032"/><circle cx="1483.1" cy="1269.9" r="4.4" fill="#e6ddc4" opacity="0.032"/><circle cx="1540.5" cy="2454.6" r="3.9" fill="#e6ddc4" opacity="0.079"/><circle cx="532.5" cy="1992.3" r="4.5" fill="#e6ddc4" opacity="0.073"/><circle cx="230.1" cy="1010.2" r="3.4" fill="#e6ddc4" opacity="0.041"/><circle cx="1428.2" cy="1363.7" r="2.2" fill="#e6ddc4" opacity="0.060"/><circle cx="547.6" cy="1131.6" r="2.6" fill="#e6ddc4" opacity="0.068"/><circle cx="1183.9" cy="2249.3" r="2.1" fill="#e6ddc4" opacity="0.058"/><circle cx="2200.4" cy="634.2" r="3.5" fill="#e6ddc4" opacity="0.031"/><circle cx="514" cy="964.5" r="3.1" fill="#e6ddc4" opacity="0.062"/><circle cx="2226.2" cy="408.4" r="3.2" fill="#e6ddc4" opacity="0.068"/><circle cx="2037.3" cy="1117.7" r="2.8" fill="#e6ddc4" opacity="0.056"/><circle cx="1747.7" cy="1125.4" r="3.6" fill="#e6ddc4" opacity="0.062"/><circle cx="1707.1" cy="2111.6" r="2" fill="#e6ddc4" opacity="0.052"/><circle cx="1806.5" cy="1947.2" r="2.8" fill="#e6ddc4" opacity="0.032"/><circle cx="854.2" cy="246.4" r="2.3" fill="#e6ddc4" opacity="0.060"/><rect x="190" y="190" width="2020" height="2620" fill="none" stroke="#e6ddc4" stroke-width="14"/><rect x="260" y="260" width="1880" height="2480" fill="none" stroke="#e6ddc4" stroke-width="7"/><rect x="148" y="148" width="84" height="84" fill="#bda15a"/><rect x="148" y="2768" width="84" height="84" fill="#bda15a"/><rect x="2168" y="148" width="84" height="84" fill="#bda15a"/><rect x="2168" y="2768" width="84" height="84" fill="#bda15a"/><line x1="1200" y1="2180" x2="1200" y2="1480" stroke="#e6ddc4" stroke-width="46"/><path d="M0 0 Q 115.2 -179.1 0 -471.3 Q -115.2 -179.1 0 0 Z" fill="#e6ddc4" opacity="1" transform="translate(1200 1480) rotate(-58)"/><path d="M0 0 Q 115.2 -211.1 0 -555.6 Q -115.2 -211.1 0 0 Z" fill="#bda15a" opacity="1" transform="translate(1200 1480) rotate(-29)"/><path d="M0 0 Q 115.2 -243.2 0 -640 Q -115.2 -243.2 0 0 Z" fill="#e6ddc4" opacity="1" transform="translate(1200 1480) rotate(0)"/><path d="M0 0 Q 115.2 -211.1 0 -555.6 Q -115.2 -211.1 0 0 Z" fill="#bda15a" opacity="1" transform="translate(1200 1480) rotate(29)"/><path d="M0 0 Q 115.2 -179.1 0 -471.3 Q -115.2 -179.1 0 0 Z" fill="#e6ddc4" opacity="1" transform="translate(1200 1480) rotate(58)"/><path d="M1008,1480 Q1200,1697.6 1392,1480 Z" fill="#e6ddc4"/><rect x="940" y="2180" width="520" height="70" fill="#e6ddc4"/><circle cx="1200" cy="860" r="120" fill="#bda15a"/><polygon points="1366.6,2553.3 1378,2582.5 1407.1,2593.9 1378,2605.4 1366.6,2634.5 1355.1,2605.4 1326,2593.9 1355.1,2582.5 " fill="#bda15a"/><polygon points="1118.8,403.6 1130.1,432.5 1159,443.9 1130.1,455.3 1118.8,484.1 1107.4,455.3 1078.5,443.9 1107.4,432.5 " fill="#bda15a"/><polygon points="1180.3,504.4 1189,526.5 1211.1,535.2 1189,544 1180.3,566.1 1171.6,544 1149.5,535.2 1171.6,526.5 " fill="#bda15a"/><polygon points="1421.7,359.9 1432.8,388 1460.8,399 1432.8,410.1 1421.7,438.2 1410.6,410.1 1382.6,399 1410.6,388 " fill="#bda15a"/><polygon points="903.3,2580.4 912.9,2604.6 937.1,2614.2 912.9,2623.7 903.3,2647.9 893.8,2623.7 869.5,2614.2 893.8,2604.6 " fill="#bda15a"/><polygon points="658.8,2540.4 668.2,2564.2 692,2573.6 668.2,2583 658.8,2606.7 649.4,2583 625.7,2573.6 649.4,2564.2 " fill="#bda15a"/><rect x="100" y="100" width="2200" height="2800" fill="none" stroke="#e6ddc4" stroke-width="9"/><rect x="142" y="142" width="2116" height="2716" fill="none" stroke="#e6ddc4" stroke-width="3" opacity="0.65"/></svg>