<svg xmlns="http://www.w3.org/2000/svg" width="2400" height="3000" viewBox="0 0 2400 3000"><rect width="2400" height="3000" fill="#3d4a33"/><radialGradient id="a114-vig" cx="50%" cy="42%" r="80%"><stop offset="55%" stop-color="#000" stop-opacity="0"/><stop offset="100%" stop-color="#000" stop-opacity="0.15"/></radialGradient><rect width="2400" height="3000" fill="url(#a114-vig)"/><circle cx="1329.1" cy="1587.5" r="3.2" fill="#e6ddc4" opacity="0.035"/><circle cx="1637.6" cy="2211.8" r="2" fill="#e6ddc4" opacity="0.052"/><circle cx="442.4" cy="145.8" r="4.1" fill="#e6ddc4" opacity="0.037"/><circle cx="639.8" cy="2569.8" r="3.6" fill="#e6ddc4" opacity="0.055"/><circle cx="658" cy="1226.5" r="2.4" fill="#e6ddc4" opacity="0.066"/><circle cx="771.3" cy="365" r="3" fill="#e6ddc4" opacity="0.073"/><circle cx="894.5" cy="2231.6" r="2.7" fill="#e6ddc4" opacity="0.045"/><circle cx="529.6" cy="1445.6" r="3.4" fill="#e6ddc4" opacity="0.059"/><circle cx="1040.7" cy="307.3" r="3.7" fill="#e6ddc4" opacity="0.070"/><circle cx="1435.7" cy="1604.7" r="2.2" fill="#e6ddc4" opacity="0.067"/><circle cx="764.2" cy="1525" r="2.8" fill="#e6ddc4" opacity="0.054"/><circle cx="1043.1" cy="2700.5" r="4.3" fill="#e6ddc4" opacity="0.056"/><circle cx="1333.7" cy="2322" r="4.4" fill="#e6ddc4" opacity="0.063"/><circle cx="911.4" cy="2730.2" r="3" fill="#e6ddc4" opacity="0.061"/><circle cx="539.3" cy="1655.2" r="2" fill="#e6ddc4" opacity="0.065"/><circle cx="2029.1" cy="1247.8" r="3.8" fill="#e6ddc4" opacity="0.061"/><circle cx="963.8" cy="1181.8" r="4" fill="#e6ddc4" opacity="0.071"/><circle cx="1940.4" cy="2646.6" r="2" fill="#e6ddc4" opacity="0.058"/><circle cx="92.4" cy="2005.4" r="4.1" fill="#e6ddc4" opacity="0.074"/><circle cx="1023.9" cy="1743" r="3.8" fill="#e6ddc4" opacity="0.054"/><circle cx="300.1" cy="2064" r="4.1" fill="#e6ddc4" opacity="0.044"/><circle cx="389.3" cy="437.8" r="1.6" fill="#e6ddc4" opacity="0.067"/><circle cx="2120.7" cy="1900.6" r="1.7" fill="#e6ddc4" opacity="0.048"/><circle cx="1459.8" cy="2289.5" r="3.4" fill="#e6ddc4" opacity="0.067"/><circle cx="706" cy="319.5" r="4.3" fill="#e6ddc4" opacity="0.066"/><circle cx="929.2" cy="2890.3" r="3.3" fill="#e6ddc4" opacity="0.040"/><circle cx="1073.9" cy="2774.7" r="4.3" fill="#e6ddc4" opacity="0.064"/><circle cx="2180.3" cy="677.1" r="3.7" fill="#e6ddc4" opacity="0.037"/><circle cx="1191.9" cy="556.6" r="3.9" fill="#e6ddc4" opacity="0.045"/><circle cx="1190.2" cy="714.9" r="3.7" fill="#e6ddc4" opacity="0.033"/><circle cx="1190.1" cy="1650" r="4.1" fill="#e6ddc4" opacity="0.049"/><circle cx="1145.6" cy="2636.5" r="3.5" fill="#e6ddc4" opacity="0.044"/><circle cx="812.4" cy="2536.5" r="1.8" fill="#e6ddc4" opacity="0.058"/><circle cx="936.2" cy="2546.5" r="3.2" fill="#e6ddc4" opacity="0.043"/><circle cx="1170" cy="1598.8" r="2.1" fill="#e6ddc4" opacity="0.057"/><circle cx="601.9" cy="2841.2" r="2.2" fill="#e6ddc4" opacity="0.076"/><circle cx="2079.5" cy="613.3" r="2" fill="#e6ddc4" opacity="0.050"/><circle cx="334.5" cy="160.3" r="1.5" fill="#e6ddc4" opacity="0.080"/><circle cx="1627.9" cy="1473.5" r="2.4" fill="#e6ddc4" opacity="0.063"/><circle cx="2056.9" cy="1569.1" r="3.5" fill="#e6ddc4" opacity="0.076"/><circle cx="1653.2" cy="1256" r="3.6" fill="#e6ddc4" opacity="0.075"/><circle cx="123.3" cy="95.6" r="3.7" fill="#e6ddc4" opacity="0.052"/><circle cx="2173" cy="526.7" r="3.3" fill="#e6ddc4" opacity="0.068"/><circle cx="1753.9" cy="1364.6" r="3" fill="#e6ddc4" opacity="0.044"/><circle cx="1703.5" cy="1758.6" r="2.5" fill="#e6ddc4" opacity="0.044"/><circle cx="428.9" cy="2697.9" r="2.2" fill="#e6ddc4" opacity="0.064"/><circle cx="957.7" cy="2438.8" r="1.7" fill="#e6ddc4" opacity="0.031"/><circle cx="983.6" cy="2564.8" r="1.8" fill="#e6ddc4" opacity="0.037"/><circle cx="1512.6" cy="2712.6" r="4.3" fill="#e6ddc4" opacity="0.031"/><circle cx="2296.8" cy="891.3" r="4" fill="#e6ddc4" opacity="0.075"/><circle cx="2044.1" cy="2098.5" r="4.1" fill="#e6ddc4" opacity="0.034"/><circle cx="2201.9" cy="305.9" r="4.2" fill="#e6ddc4" opacity="0.041"/><circle cx="1548.4" cy="299.3" r="1.7" fill="#e6ddc4" opacity="0.043"/><circle cx="1315.2" cy="2742.8" r="3.2" fill="#e6ddc4" opacity="0.075"/><circle cx="1062.3" cy="1087.4" r="2" fill="#e6ddc4" opacity="0.079"/><circle cx="416" cy="1556.9" r="2.1" fill="#e6ddc4" opacity="0.068"/><circle cx="1106" cy="260.4" r="1.6" fill="#e6ddc4" opacity="0.079"/><circle cx="527.4" cy="2753" r="2.5" fill="#e6ddc4" opacity="0.064"/><circle cx="974.7" cy="446.1" r="2.2" fill="#e6ddc4" opacity="0.037"/><circle cx="588.6" cy="1019.1" r="2.1" fill="#e6ddc4" opacity="0.070"/><circle cx="2066.2" cy="1570.2" r="2" fill="#e6ddc4" opacity="0.057"/><circle cx="657.6" cy="2652.1" r="2.1" fill="#e6ddc4" opacity="0.056"/><circle cx="2116.7" cy="1382.6" r="3.4" fill="#e6ddc4" opacity="0.038"/><circle cx="497.3" cy="705.5" r="3" fill="#e6ddc4" opacity="0.049"/><circle cx="374.1" cy="1641.7" r="1.7" fill="#e6ddc4" opacity="0.031"/><circle cx="2279.4" cy="1257.7" r="2.5" fill="#e6ddc4" opacity="0.071"/><circle cx="1081.2" cy="2352.5" r="2.8" fill="#e6ddc4" opacity="0.030"/><circle cx="2068.7" cy="1659.1" r="3.6" fill="#e6ddc4" opacity="0.035"/><circle cx="1063.6" cy="418" r="4.4" fill="#e6ddc4" opacity="0.073"/><circle cx="77.4" cy="398.7" r="3.8" fill="#e6ddc4" opacity="0.046"/><circle cx="589.4" cy="577.9" r="2.2" fill="#e6ddc4" opacity="0.040"/><circle cx="1645.4" cy="1633.9" r="2.8" fill="#e6ddc4" opacity="0.078"/><circle cx="1469.4" cy="2437.3" r="1.5" fill="#e6ddc4" opacity="0.048"/><circle cx="1016.8" cy="1507.2" r="2" fill="#e6ddc4" opacity="0.077"/><circle cx="2230.3" cy="2760.2" r="4" fill="#e6ddc4" opacity="0.057"/><circle cx="296.6" cy="1702.6" r="3.6" fill="#e6ddc4" opacity="0.074"/><circle cx="886.9" cy="1487.2" r="3.5" fill="#e6ddc4" opacity="0.051"/><circle cx="466.5" cy="409.5" r="2.2" fill="#e6ddc4" opacity="0.054"/><circle cx="619" cy="2472.9" r="3" fill="#e6ddc4" opacity="0.074"/><circle cx="1802.8" cy="1550.4" r="3.7" fill="#e6ddc4" opacity="0.058"/><circle cx="1200" cy="1400" r="1010" fill="none" stroke="#e6ddc4" stroke-width="10"/><circle cx="1200" cy="1400" r="964" fill="none" stroke="#e6ddc4" stroke-width="4" opacity="0.7"/><line x1="2170" y1="1400" x2="2210" y2="1400" stroke="#e6ddc4" stroke-width="10"/><line x1="2182.2" y1="1485.9" x2="2206.2" y2="1488" stroke="#e6ddc4" stroke-width="5"/><line x1="2171" y1="1571.2" x2="2194.7" y2="1575.4" stroke="#e6ddc4" stroke-width="5"/><line x1="2152.4" y1="1655.2" x2="2175.6" y2="1661.4" stroke="#e6ddc4" stroke-width="5"/><line x1="2126.5" y1="1737.2" x2="2149.1" y2="1745.4" stroke="#e6ddc4" stroke-width="5"/><line x1="2093.6" y1="1816.7" x2="2115.4" y2="1826.8" stroke="#e6ddc4" stroke-width="5"/><line x1="2040" y1="1885" x2="2074.7" y2="1905" stroke="#e6ddc4" stroke-width="10"/><line x1="2007.7" y1="1965.5" x2="2027.3" y2="1979.3" stroke="#e6ddc4" stroke-width="5"/><line x1="1955.3" y1="2033.8" x2="1973.7" y2="2049.2" stroke="#e6ddc4" stroke-width="5"/><line x1="1897.2" y1="2097.2" x2="1914.2" y2="2114.2" stroke="#e6ddc4" stroke-width="5"/><line x1="1833.8" y1="2155.3" x2="1849.2" y2="2173.7" stroke="#e6ddc4" stroke-width="5"/><line x1="1765.5" y1="2207.7" x2="1779.3" y2="2227.3" stroke="#e6ddc4" stroke-width="5"/><line x1="1685" y1="2240" x2="1705" y2="2274.7" stroke="#e6ddc4" stroke-width="10"/><line x1="1616.7" y1="2293.6" x2="1626.8" y2="2315.4" stroke="#e6ddc4" stroke-width="5"/><line x1="1537.2" y1="2326.5" x2="1545.4" y2="2349.1" stroke="#e6ddc4" stroke-width="5"/><line x1="1455.2" y1="2352.4" x2="1461.4" y2="2375.6" stroke="#e6ddc4" stroke-width="5"/><line x1="1371.2" y1="2371" x2="1375.4" y2="2394.7" stroke="#e6ddc4" stroke-width="5"/><line x1="1285.9" y1="2382.2" x2="1288" y2="2406.2" stroke="#e6ddc4" stroke-width="5"/><line x1="1200" y1="2370" x2="1200" y2="2410" stroke="#e6ddc4" stroke-width="10"/><line x1="1114.1" y1="2382.2" x2="1112" y2="2406.2" stroke="#e6ddc4" stroke-width="5"/><line x1="1028.8" y1="2371" x2="1024.6" y2="2394.7" stroke="#e6ddc4" stroke-width="5"/><line x1="944.8" y1="2352.4" x2="938.6" y2="2375.6" stroke="#e6ddc4" stroke-width="5"/><line x1="862.8" y1="2326.5" x2="854.6" y2="2349.1" stroke="#e6ddc4" stroke-width="5"/><line x1="783.3" y1="2293.6" x2="773.2" y2="2315.4" stroke="#e6ddc4" stroke-width="5"/><line x1="715" y1="2240" x2="695" y2="2274.7" stroke="#e6ddc4" stroke-width="10"/><line x1="634.5" y1="2207.7" x2="620.7" y2="2227.3" stroke="#e6ddc4" stroke-width="5"/><line x1="566.2" y1="2155.3" x2="550.8" y2="2173.7" stroke="#e6ddc4" stroke-width="5"/><line x1="502.8" y1="2097.2" x2="485.8" y2="2114.2" stroke="#e6ddc4" stroke-width="5"/><line x1="444.7" y1="2033.8" x2="426.3" y2="2049.2" stroke="#e6ddc4" stroke-width="5"/><line x1="392.3" y1="1965.5" x2="372.7" y2="1979.3" stroke="#e6ddc4" stroke-width="5"/><line x1="360" y1="1885" x2="325.3" y2="1905" stroke="#e6ddc4" stroke-width="10"/><line x1="306.4" y1="1816.7" x2="284.6" y2="1826.8" stroke="#e6ddc4" stroke-width="5"/><line x1="273.5" y1="1737.2" x2="250.9" y2="1745.4" stroke="#e6ddc4" stroke-width="5"/><line x1="247.6" y1="1655.2" x2="224.4" y2="1661.4" stroke="#e6ddc4" stroke-width="5"/><line x1="229" y1="1571.2" x2="205.3" y2="1575.4" stroke="#e6ddc4" stroke-width="5"/><line x1="217.8" y1="1485.9" x2="193.8" y2="1488" stroke="#e6ddc4" stroke-width="5"/><line x1="230" y1="1400" x2="190" y2="1400" stroke="#e6ddc4" stroke-width="10"/><line x1="217.8" y1="1314.1" x2="193.8" y2="1312" stroke="#e6ddc4" stroke-width="5"/><line x1="229" y1="1228.8" x2="205.3" y2="1224.6" stroke="#e6ddc4" stroke-width="5"/><line x1="247.6" y1="1144.8" x2="224.4" y2="1138.6" stroke="#e6ddc4" stroke-width="5"/><line x1="273.5" y1="1062.8" x2="250.9" y2="1054.6" stroke="#e6ddc4" stroke-width="5"/><line x1="306.4" y1="983.3" x2="284.6" y2="973.2" stroke="#e6ddc4" stroke-width="5"/><line x1="360" y1="915" x2="325.3" y2="895" stroke="#e6ddc4" stroke-width="10"/><line x1="392.3" y1="834.5" x2="372.7" y2="820.7" stroke="#e6ddc4" stroke-width="5"/><line x1="444.7" y1="766.2" x2="426.3" y2="750.8" stroke="#e6ddc4" stroke-width="5"/><line x1="502.8" y1="702.8" x2="485.8" y2="685.8" stroke="#e6ddc4" stroke-width="5"/><line x1="566.2" y1="644.7" x2="550.8" y2="626.3" stroke="#e6ddc4" stroke-width="5"/><line x1="634.5" y1="592.3" x2="620.7" y2="572.7" stroke="#e6ddc4" stroke-width="5"/><line x1="715" y1="560" x2="695" y2="525.3" stroke="#e6ddc4" stroke-width="10"/><line x1="783.3" y1="506.4" x2="773.2" y2="484.6" stroke="#e6ddc4" stroke-width="5"/><line x1="862.8" y1="473.5" x2="854.6" y2="450.9" stroke="#e6ddc4" stroke-width="5"/><line x1="944.8" y1="447.6" x2="938.6" y2="424.4" stroke="#e6ddc4" stroke-width="5"/><line x1="1028.8" y1="429" x2="1024.6" y2="405.3" stroke="#e6ddc4" stroke-width="5"/><line x1="1114.1" y1="417.8" x2="1112" y2="393.8" stroke="#e6ddc4" stroke-width="5"/><line x1="1200" y1="430" x2="1200" y2="390" stroke="#e6ddc4" stroke-width="10"/><line x1="1285.9" y1="417.8" x2="1288" y2="393.8" stroke="#e6ddc4" stroke-width="5"/><line x1="1371.2" y1="429" x2="1375.4" y2="405.3" stroke="#e6ddc4" stroke-width="5"/><line x1="1455.2" y1="447.6" x2="1461.4" y2="424.4" stroke="#e6ddc4" stroke-width="5"/><line x1="1537.2" y1="473.5" x2="1545.4" y2="450.9" stroke="#e6ddc4" stroke-width="5"/><line x1="1616.7" y1="506.4" x2="1626.8" y2="484.6" stroke="#e6ddc4" stroke-width="5"/><line x1="1685" y1="560" x2="1705" y2="525.3" stroke="#e6ddc4" stroke-width="10"/><line x1="1765.5" y1="592.3" x2="1779.3" y2="572.7" stroke="#e6ddc4" stroke-width="5"/><line x1="1833.8" y1="644.7" x2="1849.2" y2="626.3" stroke="#e6ddc4" stroke-width="5"/><line x1="1897.2" y1="702.8" x2="1914.2" y2="685.8" stroke="#e6ddc4" stroke-width="5"/><line x1="1955.3" y1="766.2" x2="1973.7" y2="750.8" stroke="#e6ddc4" stroke-width="5"/><line x1="2007.7" y1="834.5" x2="2027.3" y2="820.7" stroke="#e6ddc4" stroke-width="5"/><line x1="2040" y1="915" x2="2074.7" y2="895" stroke="#e6ddc4" stroke-width="10"/><line x1="2093.6" y1="983.3" x2="2115.4" y2="973.2" stroke="#e6ddc4" stroke-width="5"/><line x1="2126.5" y1="1062.8" x2="2149.1" y2="1054.6" stroke="#e6ddc4" stroke-width="5"/><line x1="2152.4" y1="1144.8" x2="2175.6" y2="1138.6" stroke="#e6ddc4" stroke-width="5"/><line x1="2171" y1="1228.8" x2="2194.7" y2="1224.6" stroke="#e6ddc4" stroke-width="5"/><line x1="2182.2" y1="1314.1" x2="2206.2" y2="1312" stroke="#e6ddc4" stroke-width="5"/><circle cx="1200" cy="1400" r="280" fill="none" stroke="#e6ddc4" stroke-width="3" opacity="0.28" stroke-dasharray="3 26"/><circle cx="1200" cy="1400" r="530" fill="none" stroke="#e6ddc4" stroke-width="3" opacity="0.28" stroke-dasharray="3 26"/><circle cx="1200" cy="1400" r="780" fill="none" stroke="#e6ddc4" stroke-width="3" opacity="0.28" stroke-dasharray="3 26"/><circle cx="702.9" cy="1421" r="7.3" fill="#e6ddc4" opacity="0.65"/><circle cx="1591.4" cy="1779.1" r="6.6" fill="#e6ddc4" opacity="0.55"/><circle cx="1406.4" cy="1158.4" r="6.7" fill="#e6ddc4" opacity="0.95"/><circle cx="1528.9" cy="1459" r="4.9" fill="#e6ddc4" opacity="0.59"/><circle cx="876.5" cy="744.4" r="5.1" fill="#e6ddc4" opacity="0.46"/><circle cx="1797.4" cy="1984" r="3" fill="#e6ddc4" opacity="0.84"/><circle cx="1300.3" cy="750.4" r="6.1" fill="#e6ddc4" opacity="0.61"/><circle cx="306.5" cy="1271.2" r="3" fill="#e6ddc4" opacity="0.88"/><circle cx="1251.2" cy="1829" r="3.1" fill="#e6ddc4" opacity="0.48"/><circle cx="1052.6" cy="1317.1" r="4.3" fill="#e6ddc4" opacity="0.61"/><circle cx="1955.3" cy="1043.4" r="4.1" fill="#e6ddc4" opacity="0.99"/><circle cx="1325.9" cy="783.8" r="7" fill="#e6ddc4" opacity="0.75"/><circle cx="1426.9" cy="1069" r="5.3" fill="#e6ddc4" opacity="0.62"/><circle cx="680.9" cy="643.5" r="7.3" fill="#e6ddc4" opacity="0.53"/><circle cx="1590.7" cy="888.1" r="5" fill="#e6ddc4" opacity="0.90"/><circle cx="955.8" cy="1549.8" r="3.9" fill="#e6ddc4" opacity="0.48"/><circle cx="620.4" cy="1164" r="3.3" fill="#e6ddc4" opacity="0.90"/><circle cx="1381.1" cy="1088.5" r="3.9" fill="#e6ddc4" opacity="0.65"/><circle cx="1196.3" cy="1345.7" r="6.3" fill="#e6ddc4" opacity="0.78"/><circle cx="1196.1" cy="1126.1" r="4.8" fill="#e6ddc4" opacity="0.75"/><circle cx="1322.7" cy="558" r="5.5" fill="#e6ddc4" opacity="0.48"/><circle cx="1309.6" cy="1862.2" r="7.3" fill="#e6ddc4" opacity="0.74"/><circle cx="1845" cy="882.6" r="5.2" fill="#e6ddc4" opacity="0.87"/><circle cx="999.8" cy="1616" r="5.5" fill="#e6ddc4" opacity="0.49"/><circle cx="466.2" cy="900.2" r="6.5" fill="#e6ddc4" opacity="0.91"/><circle cx="1196.9" cy="728.1" r="3.9" fill="#e6ddc4" opacity="0.67"/><circle cx="1415.4" cy="769.2" r="4.2" fill="#e6ddc4" opacity="0.56"/><circle cx="1169.7" cy="741.6" r="7.2" fill="#e6ddc4" opacity="0.67"/><circle cx="478.6" cy="1132.9" r="3.9" fill="#e6ddc4" opacity="0.57"/><circle cx="1353" cy="1745.1" r="3.7" fill="#e6ddc4" opacity="0.58"/><circle cx="955.8" cy="1637.3" r="6.7" fill="#e6ddc4" opacity="0.56"/><circle cx="851.2" cy="997.2" r="7.7" fill="#e6ddc4" opacity="0.65"/><circle cx="452.1" cy="1026.2" r="3.7" fill="#e6ddc4" opacity="0.88"/><circle cx="724.9" cy="1335.7" r="4.1" fill="#e6ddc4" opacity="0.46"/><circle cx="433.2" cy="1536.5" r="4" fill="#e6ddc4" opacity="0.83"/><circle cx="1678.2" cy="1862.4" r="5.7" fill="#e6ddc4" opacity="0.79"/><circle cx="1389.2" cy="1268" r="6.7" fill="#e6ddc4" opacity="0.88"/><circle cx="897.1" cy="1234.1" r="6" fill="#e6ddc4" opacity="0.99"/><circle cx="1228.2" cy="1954.9" r="3.9" fill="#e6ddc4" opacity="0.63"/><circle cx="681.9" cy="1573.2" r="6.4" fill="#e6ddc4" opacity="0.53"/><circle cx="1493.8" cy="1566" r="4.5" fill="#e6ddc4" opacity="0.84"/><circle cx="1415.5" cy="719.9" r="6.7" fill="#e6ddc4" opacity="0.90"/><circle cx="540.5" cy="1332" r="4.3" fill="#e6ddc4" opacity="0.49"/><circle cx="1338.3" cy="497.2" r="6.3" fill="#e6ddc4" opacity="0.54"/><circle cx="378" cy="1563.7" r="5.6" fill="#e6ddc4" opacity="0.76"/><circle cx="1770.6" cy="2119.5" r="3.1" fill="#e6ddc4" opacity="0.64"/><circle cx="1263.8" cy="1101.5" r="4.1" fill="#e6ddc4" opacity="0.64"/><circle cx="937.8" cy="1748.9" r="5.9" fill="#e6ddc4" opacity="0.60"/><circle cx="593.8" cy="1204.1" r="3.2" fill="#e6ddc4" opacity="0.47"/><circle cx="1772.3" cy="828.5" r="7.9" fill="#e6ddc4" opacity="0.86"/><circle cx="859.1" cy="1567.6" r="6.3" fill="#e6ddc4" opacity="0.52"/><circle cx="1279.1" cy="551.3" r="5.7" fill="#e6ddc4" opacity="0.46"/><circle cx="1526.6" cy="1509.7" r="5.2" fill="#e6ddc4" opacity="0.90"/><circle cx="1460.3" cy="2145.7" r="3.5" fill="#e6ddc4" opacity="0.97"/><circle cx="502.2" cy="1693.7" r="3.2" fill="#e6ddc4" opacity="0.64"/><circle cx="1395.1" cy="1972.5" r="3.5" fill="#e6ddc4" opacity="0.99"/><circle cx="727" cy="2087.7" r="7.5" fill="#e6ddc4" opacity="0.75"/><circle cx="1403.2" cy="902.4" r="5.2" fill="#e6ddc4" opacity="0.80"/><circle cx="1349.9" cy="954.6" r="3.4" fill="#e6ddc4" opacity="0.46"/><circle cx="1584.2" cy="1904.6" r="3.6" fill="#e6ddc4" opacity="0.70"/><circle cx="1037.3" cy="2070.6" r="4.3" fill="#e6ddc4" opacity="0.85"/><circle cx="1546.5" cy="1398.7" r="5.6" fill="#e6ddc4" opacity="0.67"/><circle cx="1182.1" cy="603" r="7" fill="#e6ddc4" opacity="0.53"/><circle cx="1820" cy="1896.9" r="4.7" fill="#e6ddc4" opacity="0.93"/><circle cx="1858.8" cy="1841" r="6.6" fill="#e6ddc4" opacity="0.89"/><circle cx="536.3" cy="1673.9" r="6.2" fill="#e6ddc4" opacity="0.88"/><path d="M434.5,1545 Q480.7,1536.6 526.9,1545 Q480.7,1553.3 434.5,1545 Z M480.7,1498.8 Q489,1545 480.7,1591.2 Q472.4,1545 480.7,1498.8 Z" fill="#e6ddc4"/><path d="M1388.9,2185.2 Q1433.7,2177.1 1478.4,2185.2 Q1433.7,2193.2 1388.9,2185.2 Z M1433.7,2140.4 Q1441.7,2185.2 1433.7,2229.9 Q1425.6,2185.2 1433.7,2140.4 Z" fill="#e6ddc4"/><path d="M1085.7,1895.1 Q1125.5,1887.9 1165.2,1895.1 Q1125.5,1902.3 1085.7,1895.1 Z M1125.5,1855.3 Q1132.6,1895.1 1125.5,1934.9 Q1118.3,1895.1 1125.5,1855.3 Z" fill="#e6ddc4"/><path d="M1398.4,1054.4 Q1447.1,1045.6 1495.8,1054.4 Q1447.1,1063.1 1398.4,1054.4 Z M1447.1,1005.6 Q1455.9,1054.4 1447.1,1103.1 Q1438.3,1054.4 1447.1,1005.6 Z" fill="#e6ddc4"/><path d="M955.8,1785.3 Q1009,1775.7 1062.2,1785.3 Q1009,1794.9 955.8,1785.3 Z M1009,1732.1 Q1018.6,1785.3 1009,1838.5 Q999.5,1785.3 1009,1732.1 Z" fill="#e6ddc4"/><polyline points="1669.6,1309.9 1566.2,1123.4 1725.1,1104 1593.3,1268.6 1809.4,1401.8 1751.5,1330 " fill="none" stroke="#e6ddc4" stroke-width="4" opacity="0.55"/><circle cx="1669.6" cy="1309.9" r="12" fill="#e6ddc4"/><circle cx="1566.2" cy="1123.4" r="9.8" fill="#e6ddc4"/><circle cx="1725.1" cy="1104" r="11.1" fill="#e6ddc4"/><circle cx="1593.3" cy="1268.6" r="8.3" fill="#e6ddc4"/><circle cx="1809.4" cy="1401.8" r="10.9" fill="#e6ddc4"/><circle cx="1751.5" cy="1330" r="9.2" fill="#e6ddc4"/><polyline points="1738.1,1492.7 1685.2,1516.1 1640,1499.4 1668.7,1409.7 1675.6,1418.5 1504.4,1295.4 1660.7,1181.6 " fill="none" stroke="#e6ddc4" stroke-width="4" opacity="0.55"/><circle cx="1738.1" cy="1492.7" r="12" fill="#e6ddc4"/><circle cx="1685.2" cy="1516.1" r="12.3" fill="#e6ddc4"/><circle cx="1640" cy="1499.4" r="10.8" fill="#e6ddc4"/><circle cx="1668.7" cy="1409.7" r="9.6" fill="#e6ddc4"/><circle cx="1675.6" cy="1418.5" r="9.2" fill="#e6ddc4"/><circle cx="1504.4" cy="1295.4" r="9.5" fill="#e6ddc4"/><circle cx="1660.7" cy="1181.6" r="9.5" fill="#e6ddc4"/><polyline points="974.8,1397.6 816.1,1536.3 833.7,1513.1 725.2,1504.6 720,1659.2 " fill="none" stroke="#e6ddc4" stroke-width="4" opacity="0.55"/><circle cx="974.8" cy="1397.6" r="12" fill="#e6ddc4"/><circle cx="816.1" cy="1536.3" r="12.1" fill="#e6ddc4"/><circle cx="833.7" cy="1513.1" r="10" fill="#e6ddc4"/><circle cx="725.2" cy="1504.6" r="8.1" fill="#e6ddc4"/><circle cx="720" cy="1659.2" r="12.1" fill="#e6ddc4"/><circle cx="1001.8" cy="2008.5" r="88" fill="#e6ddc4"/><circle cx="1038.8" cy="1992.7" r="77.4" fill="#3d4a33"/><path d="M370.1,2819.9 L 433.9,2819.9 L 433.9,2756.1 L 383.8,2756.1 L 383.8,2795.6 L 409.6,2795.6 L 409.6,2775.8 M446.1,2819.9 L 509.9,2819.9 L 509.9,2756.1 L 459.8,2756.1 L 459.8,2795.6 L 485.6,2795.6 L 485.6,2775.8 M522.1,2819.9 L 585.9,2819.9 L 585.9,2756.1 L 535.8,2756.1 L 535.8,2795.6 L 561.6,2795.6 L 561.6,2775.8 M598.1,2819.9 L 661.9,2819.9 L 661.9,2756.1 L 611.8,2756.1 L 611.8,2795.6 L 637.6,2795.6 L 637.6,2775.8 M674.1,2819.9 L 737.9,2819.9 L 737.9,2756.1 L 687.8,2756.1 L 687.8,2795.6 L 713.6,2795.6 L 713.6,2775.8 M750.1,2819.9 L 813.9,2819.9 L 813.9,2756.1 L 763.8,2756.1 L 763.8,2795.6 L 789.6,2795.6 L 789.6,2775.8 M826.1,2819.9 L 889.9,2819.9 L 889.9,2756.1 L 839.8,2756.1 L 839.8,2795.6 L 865.6,2795.6 L 865.6,2775.8 M902.1,2819.9 L 965.9,2819.9 L 965.9,2756.1 L 915.8,2756.1 L 915.8,2795.6 L 941.6,2795.6 L 941.6,2775.8 M978.1,2819.9 L 1041.9,2819.9 L 1041.9,2756.1 L 991.8,2756.1 L 991.8,2795.6 L 1017.6,2795.6 L 1017.6,2775.8 M1054.1,2819.9 L 1117.9,2819.9 L 1117.9,2756.1 L 1067.8,2756.1 L 1067.8,2795.6 L 1093.6,2795.6 L 1093.6,2775.8 M1130.1,2819.9 L 1193.9,2819.9 L 1193.9,2756.1 L 1143.8,2756.1 L 1143.8,2795.6 L 1169.6,2795.6 L 1169.6,2775.8 M1206.1,2819.9 L 1269.9,2819.9 L 1269.9,2756.1 L 1219.8,2756.1 L 1219.8,2795.6 L 1245.6,2795.6 L 1245.6,2775.8 M1282.1,2819.9 L 1345.9,2819.9 L 1345.9,2756.1 L 1295.8,2756.1 L 1295.8,2795.6 L 1321.6,2795.6 L 1321.6,2775.8 M1358.1,2819.9 L 1421.9,2819.9 L 1421.9,2756.1 L 1371.8,2756.1 L 1371.8,2795.6 L 1397.6,2795.6 L 1397.6,2775.8 M1434.1,2819.9 L 1497.9,2819.9 L 1497.9,2756.1 L 1447.8,2756.1 L 1447.8,2795.6 L 1473.6,2795.6 L 1473.6,2775.8 M1510.1,2819.9 L 1573.9,2819.9 L 1573.9,2756.1 L 1523.8,2756.1 L 1523.8,2795.6 L 1549.6,2795.6 L 1549.6,2775.8 M1586.1,2819.9 L 1649.9,2819.9 L 1649.9,2756.1 L 1599.8,2756.1 L 1599.8,2795.6 L 1625.6,2795.6 L 1625.6,2775.8 M1662.1,2819.9 L 1725.9,2819.9 L 1725.9,2756.1 L 1675.8,2756.1 L 1675.8,2795.6 L 1701.6,2795.6 L 1701.6,2775.8 M1738.1,2819.9 L 1801.9,2819.9 L 1801.9,2756.1 L 1751.8,2756.1 L 1751.8,2795.6 L 1777.6,2795.6 L 1777.6,2775.8 M1814.1,2819.9 L 1877.9,2819.9 L 1877.9,2756.1 L 1827.8,2756.1 L 1827.8,2795.6 L 1853.6,2795.6 L 1853.6,2775.8 M1890.1,2819.9 L 1953.9,2819.9 L 1953.9,2756.1 L 1903.8,2756.1 L 1903.8,2795.6 L 1929.6,2795.6 L 1929.6,2775.8 M1966.1,2819.9 L 2029.9,2819.9 L 2029.9,2756.1 L 1979.8,2756.1 L 1979.8,2795.6 L 2005.6,2795.6 L 2005.6,2775.8 " fill="none" stroke="#e6ddc4" stroke-width="9.9"/><rect x="100" y="100" width="2200" height="2800" fill="none" stroke="#e6ddc4" stroke-width="9"/><rect x="142" y="142" width="2116" height="2716" fill="none" stroke="#e6ddc4" stroke-width="3" opacity="0.65"/></svg>