<svg xmlns="http://www.w3.org/2000/svg" width="2400" height="3000" viewBox="0 0 2400 3000"><filter id="a149-warp" x="-4%" y="-4%" width="108%" height="108%"><feTurbulence type="fractalNoise" baseFrequency="0.0105" numOctaves="2" seed="6339" result="w"/><feDisplacementMap in="SourceGraphic" in2="w" scale="7" xChannelSelector="R" yChannelSelector="G"/></filter><filter id="a149-grain" x="0%" y="0%" width="100%" height="100%"><feTurbulence type="fractalNoise" baseFrequency="0.6" numOctaves="2" seed="6346"/><feColorMatrix type="matrix" values="0.33 0.33 0.33 0 0.62  0.33 0.33 0.33 0 0.62  0.33 0.33 0.33 0 0.62  0 0 0 0 1"/></filter><filter id="a149-mottle" x="0%" y="0%" width="100%" height="100%"><feTurbulence type="fractalNoise" baseFrequency="0.0045" numOctaves="3" seed="6352"/><feColorMatrix type="matrix" values="0.2 0.2 0.2 0 0.78  0.2 0.2 0.2 0 0.78  0.2 0.2 0.2 0 0.78  0 0 0 0 1"/></filter><filter id="a149-fade" x="0%" y="0%" width="100%" height="100%"><feTurbulence type="fractalNoise" baseFrequency="0.006" numOctaves="2" seed="6368"/><feColorMatrix type="matrix" values="0.3 0.3 0.3 0 -0.08  0.3 0.3 0.3 0 -0.08  0.3 0.3 0.3 0 -0.1  0 0 0 0 1"/></filter><filter id="a149-blur9"><feGaussianBlur stdDeviation="9"/></filter><radialGradient id="a149-vig" cx="50%" cy="44%" r="78%"><stop offset="52%" stop-color="#241a10" stop-opacity="0"/><stop offset="100%" stop-color="#241a10" stop-opacity="0.17"/></radialGradient><radialGradient id="a149-warm" cx="49%" cy="30%" r="85%"><stop offset="0%" stop-color="#e8c890" stop-opacity="0.14"/><stop offset="70%" stop-color="#e8c890" stop-opacity="0"/></radialGradient><rect width="2400" height="3000" fill="#efe6d0"/><rect width="2400" height="3000" fill="url(#a149-warm)"/><g filter="url(#a149-warp)"><circle cx="1154.9" cy="954.9" r="294.6" fill="#a06b3d" opacity="0.95"/><line x1="200" y1="2430" x2="2200" y2="2430" stroke="#524026" stroke-width="16"/><rect x="930" y="2340" width="540" height="90" fill="#524026"/><rect x="1005.6" y="2260" width="388.8" height="80" fill="#524026"/><path d="M1065,2260 L1116.3,832.8 L1283.7,832.8 L1335,2260 Z" fill="#524026"/><polygon points="1200,682.8 1116.3,834.8 1283.7,834.8" fill="#a06b3d"/><circle cx="1200" cy="942.8" r="18.400000000000002" fill="none" stroke="#efe6d0" stroke-width="10" opacity="0.9"/><line x1="1200" y1="961.2" x2="1200" y2="988.8" stroke="#efe6d0" stroke-width="10" opacity="0.9"/><circle cx="1200" cy="1052.8" r="18.400000000000002" fill="none" stroke="#efe6d0" stroke-width="10" opacity="0.9"/><line x1="1200" y1="1071.2" x2="1200" y2="1098.8" stroke="#efe6d0" stroke-width="10" opacity="0.9"/><rect x="1177" y="1154.8" width="46" height="16" fill="#efe6d0" opacity="0.9"/><circle cx="1200" cy="1272.8" r="18.400000000000002" fill="none" stroke="#efe6d0" stroke-width="10" opacity="0.9"/><line x1="1200" y1="1291.2" x2="1200" y2="1318.8" stroke="#efe6d0" stroke-width="10" opacity="0.9"/><rect x="1177" y="1374.8" width="46" height="16" fill="#efe6d0" opacity="0.9"/><polyline points="1154,1506.8 1177,1480.8 1200,1506.8 1223,1480.8 1246,1506.8 " fill="none" stroke="#efe6d0" stroke-width="4.7" stroke-linejoin="miter"/><polygon points="1200,1579.8 1177,1625.8 1223,1625.8" fill="#efe6d0" opacity="0.9"/><circle cx="1200" cy="1712.8" r="19.32" fill="#efe6d0" opacity="0.9"/><circle cx="1200" cy="1822.8" r="19.32" fill="#efe6d0" opacity="0.9"/><circle cx="1200" cy="1932.8" r="18.400000000000002" fill="none" stroke="#efe6d0" stroke-width="10" opacity="0.9"/><line x1="1200" y1="1951.2" x2="1200" y2="1978.8" stroke="#efe6d0" stroke-width="10" opacity="0.9"/><circle cx="1200" cy="2042.8" r="18.400000000000002" fill="none" stroke="#efe6d0" stroke-width="10" opacity="0.9"/><line x1="1200" y1="2061.2" x2="1200" y2="2088.8" stroke="#efe6d0" stroke-width="10" opacity="0.9"/><rect x="200" y="2770" width="2000" height="13.3" fill="#524026"/><rect x="200" y="2782.8" width="2000" height="13.3" fill="#a06b3d"/><rect x="200" y="2795.6" width="2000" height="13.3" fill="#524026"/><rect x="200" y="2808.4" width="2000" height="13.3" fill="#c0ab87"/><rect x="200" y="2821.2" width="2000" height="13.3" fill="#524026"/><rect x="130" y="130" width="2140" height="2740" fill="none" stroke="#524026" stroke-width="5"/><rect x="152" y="152" width="2096" height="2696" fill="none" stroke="#524026" stroke-width="2.5" opacity="0.8"/></g><rect width="2400" height="3000" filter="url(#a149-mottle)" style="mix-blend-mode:multiply" opacity="0.5"/><rect width="2400" height="3000" filter="url(#a149-fade)" style="mix-blend-mode:screen" opacity="0.55"/><rect width="2400" height="3000" filter="url(#a149-grain)" style="mix-blend-mode:multiply" opacity="0.32"/><ellipse cx="603.2" cy="1037.5" rx="231.2" ry="190" fill="#6b4a22" opacity="0.059" filter="url(#a149-blur9)"/><ellipse cx="360.6" cy="464.8" rx="276.2" ry="239.8" fill="#6b4a22" opacity="0.047" filter="url(#a149-blur9)"/><ellipse cx="2179.4" cy="1601.5" rx="320.7" ry="279.6" fill="#6b4a22" opacity="0.040" filter="url(#a149-blur9)"/><g opacity="0.3"><rect y="3" width="2400" height="2" fill="#efe6d0"/><rect y="11" width="2400" height="2" fill="#efe6d0"/><rect y="19" width="2400" height="2" fill="#efe6d0"/><rect y="27" width="2400" height="2" fill="#efe6d0"/><rect y="35" width="2400" height="2" fill="#efe6d0"/><rect y="43" width="2400" height="2" fill="#efe6d0"/><rect y="51" width="2400" height="2" fill="#efe6d0"/><rect y="59" width="2400" height="2" fill="#efe6d0"/><rect y="67" width="2400" height="2" fill="#efe6d0"/><rect y="75" width="2400" height="2" fill="#efe6d0"/><rect y="83" width="2400" height="2" fill="#efe6d0"/><rect y="91" width="2400" height="2" fill="#efe6d0"/><rect y="99" width="2400" height="2" fill="#efe6d0"/><rect y="107" width="2400" height="2" fill="#efe6d0"/><rect y="115" width="2400" height="2" fill="#efe6d0"/><rect y="123" width="2400" height="2" fill="#efe6d0"/><rect y="131" width="2400" height="2" fill="#efe6d0"/><rect y="139" width="2400" height="2" fill="#efe6d0"/><rect y="147" width="2400" height="2" fill="#efe6d0"/><rect y="155" width="2400" height="2" fill="#efe6d0"/><rect y="163" width="2400" height="2" fill="#efe6d0"/><rect y="171" width="2400" height="2" fill="#efe6d0"/><rect y="179" width="2400" height="2" fill="#efe6d0"/><rect y="187" width="2400" height="2" fill="#efe6d0"/><rect y="195" width="2400" height="2" fill="#efe6d0"/><rect y="203" width="2400" height="2" fill="#efe6d0"/><rect y="211" width="2400" height="2" fill="#efe6d0"/><rect y="219" width="2400" height="2" fill="#efe6d0"/><rect y="227" width="2400" height="2" fill="#efe6d0"/><rect y="235" width="2400" height="2" fill="#efe6d0"/><rect y="243" width="2400" height="2" fill="#efe6d0"/><rect y="251" width="2400" height="2" fill="#efe6d0"/><rect y="259" width="2400" height="2" fill="#efe6d0"/><rect y="267" width="2400" height="2" fill="#efe6d0"/><rect y="275" width="2400" height="2" fill="#efe6d0"/><rect y="283" width="2400" height="2" fill="#efe6d0"/><rect y="291" width="2400" height="2" fill="#efe6d0"/><rect y="299" width="2400" height="2" fill="#efe6d0"/><rect y="307" width="2400" height="2" fill="#efe6d0"/><rect y="315" width="2400" height="2" fill="#efe6d0"/><rect y="323" width="2400" height="2" fill="#efe6d0"/><rect y="331" width="2400" height="2" fill="#efe6d0"/><rect y="339" width="2400" height="2" fill="#efe6d0"/><rect y="347" width="2400" height="2" fill="#efe6d0"/><rect y="355" width="2400" height="2" fill="#efe6d0"/><rect y="363" width="2400" height="2" fill="#efe6d0"/><rect y="371" width="2400" height="2" fill="#efe6d0"/><rect y="379" width="2400" height="2" fill="#efe6d0"/><rect y="387" width="2400" height="2" fill="#efe6d0"/><rect y="395" width="2400" height="2" fill="#efe6d0"/><rect y="403" width="2400" height="2" fill="#efe6d0"/><rect y="411" width="2400" height="2" fill="#efe6d0"/><rect y="419" width="2400" height="2" fill="#efe6d0"/><rect y="427" width="2400" height="2" fill="#efe6d0"/><rect y="435" width="2400" height="2" fill="#efe6d0"/><rect y="443" width="2400" height="2" fill="#efe6d0"/><rect y="451" width="2400" height="2" fill="#efe6d0"/><rect y="459" width="2400" height="2" fill="#efe6d0"/><rect y="467" width="2400" height="2" fill="#efe6d0"/><rect y="475" width="2400" height="2" fill="#efe6d0"/><rect y="483" width="2400" height="2" fill="#efe6d0"/><rect y="491" width="2400" height="2" fill="#efe6d0"/><rect y="499" width="2400" height="2" fill="#efe6d0"/><rect y="507" width="2400" height="2" fill="#efe6d0"/><rect y="515" width="2400" height="2" fill="#efe6d0"/><rect y="523" width="2400" height="2" fill="#efe6d0"/><rect y="531" width="2400" height="2" fill="#efe6d0"/><rect y="539" width="2400" height="2" fill="#efe6d0"/><rect y="547" width="2400" height="2" fill="#efe6d0"/><rect y="555" width="2400" height="2" fill="#efe6d0"/><rect y="563" width="2400" height="2" fill="#efe6d0"/><rect y="571" width="2400" height="2" fill="#efe6d0"/><rect y="579" width="2400" height="2" fill="#efe6d0"/><rect y="587" width="2400" height="2" fill="#efe6d0"/><rect y="595" width="2400" height="2" fill="#efe6d0"/><rect y="603" width="2400" height="2" fill="#efe6d0"/><rect y="611" width="2400" height="2" fill="#efe6d0"/><rect y="619" width="2400" height="2" fill="#efe6d0"/><rect y="627" width="2400" height="2" fill="#efe6d0"/><rect y="635" width="2400" height="2" fill="#efe6d0"/><rect y="643" width="2400" height="2" fill="#efe6d0"/><rect y="651" width="2400" height="2" fill="#efe6d0"/><rect y="659" width="2400" height="2" fill="#efe6d0"/><rect y="667" width="2400" height="2" fill="#efe6d0"/><rect y="675" width="2400" height="2" fill="#efe6d0"/><rect y="683" width="2400" height="2" fill="#efe6d0"/><rect y="691" width="2400" height="2" fill="#efe6d0"/><rect y="699" width="2400" height="2" fill="#efe6d0"/><rect y="707" width="2400" height="2" fill="#efe6d0"/><rect y="715" width="2400" height="2" fill="#efe6d0"/><rect y="723" width="2400" height="2" fill="#efe6d0"/><rect y="731" width="2400" height="2" fill="#efe6d0"/><rect y="739" width="2400" height="2" fill="#efe6d0"/><rect y="747" width="2400" height="2" fill="#efe6d0"/><rect y="755" width="2400" height="2" fill="#efe6d0"/><rect y="763" width="2400" height="2" fill="#efe6d0"/><rect y="771" width="2400" height="2" fill="#efe6d0"/><rect y="779" width="2400" height="2" fill="#efe6d0"/><rect y="787" width="2400" height="2" fill="#efe6d0"/><rect y="795" width="2400" height="2" fill="#efe6d0"/><rect y="803" width="2400" height="2" fill="#efe6d0"/><rect y="811" width="2400" height="2" fill="#efe6d0"/><rect y="819" width="2400" height="2" fill="#efe6d0"/><rect y="827" width="2400" height="2" fill="#efe6d0"/><rect y="835" width="2400" height="2" fill="#efe6d0"/><rect y="843" width="2400" height="2" fill="#efe6d0"/><rect y="851" width="2400" height="2" fill="#efe6d0"/><rect y="859" width="2400" height="2" fill="#efe6d0"/><rect y="867" width="2400" height="2" fill="#efe6d0"/><rect y="875" width="2400" height="2" fill="#efe6d0"/><rect y="883" width="2400" height="2" fill="#efe6d0"/><rect y="891" width="2400" height="2" fill="#efe6d0"/><rect y="899" width="2400" height="2" fill="#efe6d0"/><rect y="907" width="2400" height="2" fill="#efe6d0"/><rect y="915" width="2400" height="2" fill="#efe6d0"/><rect y="923" width="2400" height="2" fill="#efe6d0"/><rect y="931" width="2400" height="2" fill="#efe6d0"/><rect y="939" width="2400" height="2" fill="#efe6d0"/><rect y="947" width="2400" height="2" fill="#efe6d0"/><rect y="955" width="2400" height="2" fill="#efe6d0"/><rect y="963" width="2400" height="2" fill="#efe6d0"/><rect y="971" width="2400" height="2" fill="#efe6d0"/><rect y="979" width="2400" height="2" fill="#efe6d0"/><rect y="987" width="2400" height="2" fill="#efe6d0"/><rect y="995" width="2400" height="2" fill="#efe6d0"/><rect y="1003" width="2400" height="2" fill="#efe6d0"/><rect y="1011" width="2400" height="2" fill="#efe6d0"/><rect y="1019" width="2400" height="2" fill="#efe6d0"/><rect y="1027" width="2400" height="2" fill="#efe6d0"/><rect y="1035" width="2400" height="2" fill="#efe6d0"/><rect y="1043" width="2400" height="2" fill="#efe6d0"/><rect y="1051" width="2400" height="2" fill="#efe6d0"/><rect y="1059" width="2400" height="2" fill="#efe6d0"/><rect y="1067" width="2400" height="2" fill="#efe6d0"/><rect y="1075" width="2400" height="2" fill="#efe6d0"/><rect y="1083" width="2400" height="2" fill="#efe6d0"/><rect y="1091" width="2400" height="2" fill="#efe6d0"/><rect y="1099" width="2400" height="2" fill="#efe6d0"/><rect y="1107" width="2400" height="2" fill="#efe6d0"/><rect y="1115" width="2400" height="2" fill="#efe6d0"/><rect y="1123" width="2400" height="2" fill="#efe6d0"/><rect y="1131" width="2400" height="2" fill="#efe6d0"/><rect y="1139" width="2400" height="2" fill="#efe6d0"/><rect y="1147" width="2400" height="2" fill="#efe6d0"/><rect y="1155" width="2400" height="2" fill="#efe6d0"/><rect y="1163" width="2400" height="2" fill="#efe6d0"/><rect y="1171" width="2400" height="2" fill="#efe6d0"/><rect y="1179" width="2400" height="2" fill="#efe6d0"/><rect y="1187" width="2400" height="2" fill="#efe6d0"/><rect y="1195" width="2400" height="2" fill="#efe6d0"/><rect y="1203" width="2400" height="2" fill="#efe6d0"/><rect y="1211" width="2400" height="2" fill="#efe6d0"/><rect y="1219" width="2400" height="2" fill="#efe6d0"/><rect y="1227" width="2400" height="2" fill="#efe6d0"/><rect y="1235" width="2400" height="2" fill="#efe6d0"/><rect y="1243" width="2400" height="2" fill="#efe6d0"/><rect y="1251" width="2400" height="2" fill="#efe6d0"/><rect y="1259" width="2400" height="2" fill="#efe6d0"/><rect y="1267" width="2400" height="2" fill="#efe6d0"/><rect y="1275" width="2400" height="2" fill="#efe6d0"/><rect y="1283" width="2400" height="2" fill="#efe6d0"/><rect y="1291" width="2400" height="2" fill="#efe6d0"/><rect y="1299" width="2400" height="2" fill="#efe6d0"/><rect y="1307" width="2400" height="2" fill="#efe6d0"/><rect y="1315" width="2400" height="2" fill="#efe6d0"/><rect y="1323" width="2400" height="2" fill="#efe6d0"/><rect y="1331" width="2400" height="2" fill="#efe6d0"/><rect y="1339" width="2400" height="2" fill="#efe6d0"/><rect y="1347" width="2400" height="2" fill="#efe6d0"/><rect y="1355" width="2400" height="2" fill="#efe6d0"/><rect y="1363" width="2400" height="2" fill="#efe6d0"/><rect y="1371" width="2400" height="2" fill="#efe6d0"/><rect y="1379" width="2400" height="2" fill="#efe6d0"/><rect y="1387" width="2400" height="2" fill="#efe6d0"/><rect y="1395" width="2400" height="2" fill="#efe6d0"/><rect y="1403" width="2400" height="2" fill="#efe6d0"/><rect y="1411" width="2400" height="2" fill="#efe6d0"/><rect y="1419" width="2400" height="2" fill="#efe6d0"/><rect y="1427" width="2400" height="2" fill="#efe6d0"/><rect y="1435" width="2400" height="2" fill="#efe6d0"/><rect y="1443" width="2400" height="2" fill="#efe6d0"/><rect y="1451" width="2400" height="2" fill="#efe6d0"/><rect y="1459" width="2400" height="2" fill="#efe6d0"/><rect y="1467" width="2400" height="2" fill="#efe6d0"/><rect y="1475" width="2400" height="2" fill="#efe6d0"/><rect y="1483" width="2400" height="2" fill="#efe6d0"/><rect y="1491" width="2400" height="2" fill="#efe6d0"/><rect y="1499" width="2400" height="2" fill="#efe6d0"/><rect y="1507" width="2400" height="2" fill="#efe6d0"/><rect y="1515" width="2400" height="2" fill="#efe6d0"/><rect y="1523" width="2400" height="2" fill="#efe6d0"/><rect y="1531" width="2400" height="2" fill="#efe6d0"/><rect y="1539" width="2400" height="2" fill="#efe6d0"/><rect y="1547" width="2400" height="2" fill="#efe6d0"/><rect y="1555" width="2400" height="2" fill="#efe6d0"/><rect y="1563" width="2400" height="2" fill="#efe6d0"/><rect y="1571" width="2400" height="2" fill="#efe6d0"/><rect y="1579" width="2400" height="2" fill="#efe6d0"/><rect y="1587" width="2400" height="2" fill="#efe6d0"/><rect y="1595" width="2400" height="2" fill="#efe6d0"/><rect y="1603" width="2400" height="2" fill="#efe6d0"/><rect y="1611" width="2400" height="2" fill="#efe6d0"/><rect y="1619" width="2400" height="2" fill="#efe6d0"/><rect y="1627" width="2400" height="2" fill="#efe6d0"/><rect y="1635" width="2400" height="2" fill="#efe6d0"/><rect y="1643" width="2400" height="2" fill="#efe6d0"/><rect y="1651" width="2400" height="2" fill="#efe6d0"/><rect y="1659" width="2400" height="2" fill="#efe6d0"/><rect y="1667" width="2400" height="2" fill="#efe6d0"/><rect y="1675" width="2400" height="2" fill="#efe6d0"/><rect y="1683" width="2400" height="2" fill="#efe6d0"/><rect y="1691" width="2400" height="2" fill="#efe6d0"/><rect y="1699" width="2400" height="2" fill="#efe6d0"/><rect y="1707" width="2400" height="2" fill="#efe6d0"/><rect y="1715" width="2400" height="2" fill="#efe6d0"/><rect y="1723" width="2400" height="2" fill="#efe6d0"/><rect y="1731" width="2400" height="2" fill="#efe6d0"/><rect y="1739" width="2400" height="2" fill="#efe6d0"/><rect y="1747" width="2400" height="2" fill="#efe6d0"/><rect y="1755" width="2400" height="2" fill="#efe6d0"/><rect y="1763" width="2400" height="2" fill="#efe6d0"/><rect y="1771" width="2400" height="2" fill="#efe6d0"/><rect y="1779" width="2400" height="2" fill="#efe6d0"/><rect y="1787" width="2400" height="2" fill="#efe6d0"/><rect y="1795" width="2400" height="2" fill="#efe6d0"/><rect y="1803" width="2400" height="2" fill="#efe6d0"/><rect y="1811" width="2400" height="2" fill="#efe6d0"/><rect y="1819" width="2400" height="2" fill="#efe6d0"/><rect y="1827" width="2400" height="2" fill="#efe6d0"/><rect y="1835" width="2400" height="2" fill="#efe6d0"/><rect y="1843" width="2400" height="2" fill="#efe6d0"/><rect y="1851" width="2400" height="2" fill="#efe6d0"/><rect y="1859" width="2400" height="2" fill="#efe6d0"/><rect y="1867" width="2400" height="2" fill="#efe6d0"/><rect y="1875" width="2400" height="2" fill="#efe6d0"/><rect y="1883" width="2400" height="2" fill="#efe6d0"/><rect y="1891" width="2400" height="2" fill="#efe6d0"/><rect y="1899" width="2400" height="2" fill="#efe6d0"/><rect y="1907" width="2400" height="2" fill="#efe6d0"/><rect y="1915" width="2400" height="2" fill="#efe6d0"/><rect y="1923" width="2400" height="2" fill="#efe6d0"/><rect y="1931" width="2400" height="2" fill="#efe6d0"/><rect y="1939" width="2400" height="2" fill="#efe6d0"/><rect y="1947" width="2400" height="2" fill="#efe6d0"/><rect y="1955" width="2400" height="2" fill="#efe6d0"/><rect y="1963" width="2400" height="2" fill="#efe6d0"/><rect y="1971" width="2400" height="2" fill="#efe6d0"/><rect y="1979" width="2400" height="2" fill="#efe6d0"/><rect y="1987" width="2400" height="2" fill="#efe6d0"/><rect y="1995" width="2400" height="2" fill="#efe6d0"/><rect y="2003" width="2400" height="2" fill="#efe6d0"/><rect y="2011" width="2400" height="2" fill="#efe6d0"/><rect y="2019" width="2400" height="2" fill="#efe6d0"/><rect y="2027" width="2400" height="2" fill="#efe6d0"/><rect y="2035" width="2400" height="2" fill="#efe6d0"/><rect y="2043" width="2400" height="2" fill="#efe6d0"/><rect y="2051" width="2400" height="2" fill="#efe6d0"/><rect y="2059" width="2400" height="2" fill="#efe6d0"/><rect y="2067" width="2400" height="2" fill="#efe6d0"/><rect y="2075" width="2400" height="2" fill="#efe6d0"/><rect y="2083" width="2400" height="2" fill="#efe6d0"/><rect y="2091" width="2400" height="2" fill="#efe6d0"/><rect y="2099" width="2400" height="2" fill="#efe6d0"/><rect y="2107" width="2400" height="2" fill="#efe6d0"/><rect y="2115" width="2400" height="2" fill="#efe6d0"/><rect y="2123" width="2400" height="2" fill="#efe6d0"/><rect y="2131" width="2400" height="2" fill="#efe6d0"/><rect y="2139" width="2400" height="2" fill="#efe6d0"/><rect y="2147" width="2400" height="2" fill="#efe6d0"/><rect y="2155" width="2400" height="2" fill="#efe6d0"/><rect y="2163" width="2400" height="2" fill="#efe6d0"/><rect y="2171" width="2400" height="2" fill="#efe6d0"/><rect y="2179" width="2400" height="2" fill="#efe6d0"/><rect y="2187" width="2400" height="2" fill="#efe6d0"/><rect y="2195" width="2400" height="2" fill="#efe6d0"/><rect y="2203" width="2400" height="2" fill="#efe6d0"/><rect y="2211" width="2400" height="2" fill="#efe6d0"/><rect y="2219" width="2400" height="2" fill="#efe6d0"/><rect y="2227" width="2400" height="2" fill="#efe6d0"/><rect y="2235" width="2400" height="2" fill="#efe6d0"/><rect y="2243" width="2400" height="2" fill="#efe6d0"/><rect y="2251" width="2400" height="2" fill="#efe6d0"/><rect y="2259" width="2400" height="2" fill="#efe6d0"/><rect y="2267" width="2400" height="2" fill="#efe6d0"/><rect y="2275" width="2400" height="2" fill="#efe6d0"/><rect y="2283" width="2400" height="2" fill="#efe6d0"/><rect y="2291" width="2400" height="2" fill="#efe6d0"/><rect y="2299" width="2400" height="2" fill="#efe6d0"/><rect y="2307" width="2400" height="2" fill="#efe6d0"/><rect y="2315" width="2400" height="2" fill="#efe6d0"/><rect y="2323" width="2400" height="2" fill="#efe6d0"/><rect y="2331" width="2400" height="2" fill="#efe6d0"/><rect y="2339" width="2400" height="2" fill="#efe6d0"/><rect y="2347" width="2400" height="2" fill="#efe6d0"/><rect y="2355" width="2400" height="2" fill="#efe6d0"/><rect y="2363" width="2400" height="2" fill="#efe6d0"/><rect y="2371" width="2400" height="2" fill="#efe6d0"/><rect y="2379" width="2400" height="2" fill="#efe6d0"/><rect y="2387" width="2400" height="2" fill="#efe6d0"/><rect y="2395" width="2400" height="2" fill="#efe6d0"/><rect y="2403" width="2400" height="2" fill="#efe6d0"/><rect y="2411" width="2400" height="2" fill="#efe6d0"/><rect y="2419" width="2400" height="2" fill="#efe6d0"/><rect y="2427" width="2400" height="2" fill="#efe6d0"/><rect y="2435" width="2400" height="2" fill="#efe6d0"/><rect y="2443" width="2400" height="2" fill="#efe6d0"/><rect y="2451" width="2400" height="2" fill="#efe6d0"/><rect y="2459" width="2400" height="2" fill="#efe6d0"/><rect y="2467" width="2400" height="2" fill="#efe6d0"/><rect y="2475" width="2400" height="2" fill="#efe6d0"/><rect y="2483" width="2400" height="2" fill="#efe6d0"/><rect y="2491" width="2400" height="2" fill="#efe6d0"/><rect y="2499" width="2400" height="2" fill="#efe6d0"/><rect y="2507" width="2400" height="2" fill="#efe6d0"/><rect y="2515" width="2400" height="2" fill="#efe6d0"/><rect y="2523" width="2400" height="2" fill="#efe6d0"/><rect y="2531" width="2400" height="2" fill="#efe6d0"/><rect y="2539" width="2400" height="2" fill="#efe6d0"/><rect y="2547" width="2400" height="2" fill="#efe6d0"/><rect y="2555" width="2400" height="2" fill="#efe6d0"/><rect y="2563" width="2400" height="2" fill="#efe6d0"/><rect y="2571" width="2400" height="2" fill="#efe6d0"/><rect y="2579" width="2400" height="2" fill="#efe6d0"/><rect y="2587" width="2400" height="2" fill="#efe6d0"/><rect y="2595" width="2400" height="2" fill="#efe6d0"/><rect y="2603" width="2400" height="2" fill="#efe6d0"/><rect y="2611" width="2400" height="2" fill="#efe6d0"/><rect y="2619" width="2400" height="2" fill="#efe6d0"/><rect y="2627" width="2400" height="2" fill="#efe6d0"/><rect y="2635" width="2400" height="2" fill="#efe6d0"/><rect y="2643" width="2400" height="2" fill="#efe6d0"/><rect y="2651" width="2400" height="2" fill="#efe6d0"/><rect y="2659" width="2400" height="2" fill="#efe6d0"/><rect y="2667" width="2400" height="2" fill="#efe6d0"/><rect y="2675" width="2400" height="2" fill="#efe6d0"/><rect y="2683" width="2400" height="2" fill="#efe6d0"/><rect y="2691" width="2400" height="2" fill="#efe6d0"/><rect y="2699" width="2400" height="2" fill="#efe6d0"/><rect y="2707" width="2400" height="2" fill="#efe6d0"/><rect y="2715" width="2400" height="2" fill="#efe6d0"/><rect y="2723" width="2400" height="2" fill="#efe6d0"/><rect y="2731" width="2400" height="2" fill="#efe6d0"/><rect y="2739" width="2400" height="2" fill="#efe6d0"/><rect y="2747" width="2400" height="2" fill="#efe6d0"/><rect y="2755" width="2400" height="2" fill="#efe6d0"/><rect y="2763" width="2400" height="2" fill="#efe6d0"/><rect y="2771" width="2400" height="2" fill="#efe6d0"/><rect y="2779" width="2400" height="2" fill="#efe6d0"/><rect y="2787" width="2400" height="2" fill="#efe6d0"/><rect y="2795" width="2400" height="2" fill="#efe6d0"/><rect y="2803" width="2400" height="2" fill="#efe6d0"/><rect y="2811" width="2400" height="2" fill="#efe6d0"/><rect y="2819" width="2400" height="2" fill="#efe6d0"/><rect y="2827" width="2400" height="2" fill="#efe6d0"/><rect y="2835" width="2400" height="2" fill="#efe6d0"/><rect y="2843" width="2400" height="2" fill="#efe6d0"/><rect y="2851" width="2400" height="2" fill="#efe6d0"/><rect y="2859" width="2400" height="2" fill="#efe6d0"/><rect y="2867" width="2400" height="2" fill="#efe6d0"/><rect y="2875" width="2400" height="2" fill="#efe6d0"/><rect y="2883" width="2400" height="2" fill="#efe6d0"/><rect y="2891" width="2400" height="2" fill="#efe6d0"/><rect y="2899" width="2400" height="2" fill="#efe6d0"/><rect y="2907" width="2400" height="2" fill="#efe6d0"/><rect y="2915" width="2400" height="2" fill="#efe6d0"/><rect y="2923" width="2400" height="2" fill="#efe6d0"/><rect y="2931" width="2400" height="2" fill="#efe6d0"/><rect y="2939" width="2400" height="2" fill="#efe6d0"/><rect y="2947" width="2400" height="2" fill="#efe6d0"/><rect y="2955" width="2400" height="2" fill="#efe6d0"/><rect y="2963" width="2400" height="2" fill="#efe6d0"/><rect y="2971" width="2400" height="2" fill="#efe6d0"/><rect y="2979" width="2400" height="2" fill="#efe6d0"/><rect y="2987" width="2400" height="2" fill="#efe6d0"/><rect y="2995" width="2400" height="2" fill="#efe6d0"/></g><rect x="88" y="88" width="2224" height="2824" fill="none" stroke="#3a2c1a" stroke-width="4" opacity="0.2"/><rect x="94" y="94" width="2212" height="2812" fill="none" stroke="#fff6e0" stroke-width="2" opacity="0.25"/><circle cx="1015" cy="188.5" r="9.9" fill="#8a5a2e" opacity="0.062"/><circle cx="648.2" cy="94.3" r="10.2" fill="#8a5a2e" opacity="0.106"/><circle cx="107.5" cy="2114.6" r="11.2" fill="#8a5a2e" opacity="0.062"/><circle cx="2022.2" cy="1597.2" r="7.5" fill="#8a5a2e" opacity="0.061"/><circle cx="141.1" cy="523" r="15" fill="#8a5a2e" opacity="0.070"/><circle cx="658.8" cy="1516.7" r="11.5" fill="#8a5a2e" opacity="0.109"/><circle cx="336.6" cy="1699.1" r="3.8" fill="#8a5a2e" opacity="0.072"/><circle cx="1373.2" cy="361.6" r="5.5" fill="#8a5a2e" opacity="0.071"/><circle cx="2268.3" cy="1035.7" r="11.5" fill="#8a5a2e" opacity="0.056"/><circle cx="1795.6" cy="1654" r="10.5" fill="#8a5a2e" opacity="0.040"/><circle cx="1041.5" cy="980.1" r="11.6" fill="#8a5a2e" opacity="0.097"/><circle cx="1298.9" cy="1207.6" r="12.5" fill="#8a5a2e" opacity="0.115"/><circle cx="2213.5" cy="2180.2" r="4.2" fill="#8a5a2e" opacity="0.052"/><circle cx="1350.1" cy="2664.2" r="14.7" fill="#8a5a2e" opacity="0.059"/><circle cx="108" cy="2050.4" r="13.6" fill="#8a5a2e" opacity="0.113"/><circle cx="259.5" cy="265.4" r="13.3" fill="#8a5a2e" opacity="0.129"/><circle cx="908.8" cy="1225.1" r="11.1" fill="#8a5a2e" opacity="0.048"/><circle cx="1776.3" cy="543.2" r="7.9" fill="#8a5a2e" opacity="0.094"/><circle cx="1911.1" cy="2889.6" r="14.5" fill="#8a5a2e" opacity="0.097"/><circle cx="247.3" cy="2449.1" r="8.8" fill="#8a5a2e" opacity="0.064"/><circle cx="337.7" cy="618.4" r="10.3" fill="#8a5a2e" opacity="0.077"/><circle cx="160.2" cy="1095.9" r="15.9" fill="#8a5a2e" opacity="0.082"/><circle cx="1101.9" cy="2225.9" r="8.5" fill="#8a5a2e" opacity="0.124"/><circle cx="1633.1" cy="156.1" r="7.1" fill="#8a5a2e" opacity="0.115"/><circle cx="984.6" cy="2164.6" r="5.1" fill="#8a5a2e" opacity="0.100"/><rect width="2400" height="3000" fill="url(#a149-vig)"/></svg>