<svg xmlns="http://www.w3.org/2000/svg" width="2400" height="3000" viewBox="0 0 2400 3000"><rect width="2400" height="3000" fill="#3d4a33"/><radialGradient id="a121-vig" cx="50%" cy="42%" r="80%"><stop offset="55%" stop-color="#000" stop-opacity="0"/><stop offset="100%" stop-color="#000" stop-opacity="0.15"/></radialGradient><rect width="2400" height="3000" fill="url(#a121-vig)"/><circle cx="317.8" cy="139.8" r="4.2" fill="#e6ddc4" opacity="0.073"/><circle cx="2019.4" cy="1557" r="3.1" fill="#e6ddc4" opacity="0.048"/><circle cx="533.3" cy="1769.4" r="3.3" fill="#e6ddc4" opacity="0.059"/><circle cx="99.1" cy="2466.3" r="1.5" fill="#e6ddc4" opacity="0.063"/><circle cx="1996.6" cy="104.4" r="2.1" fill="#e6ddc4" opacity="0.064"/><circle cx="598.6" cy="346.3" r="3" fill="#e6ddc4" opacity="0.069"/><circle cx="1260" cy="1098.2" r="2.5" fill="#e6ddc4" opacity="0.056"/><circle cx="828.8" cy="2836.3" r="3.7" fill="#e6ddc4" opacity="0.051"/><circle cx="2230.5" cy="2266.3" r="1.9" fill="#e6ddc4" opacity="0.056"/><circle cx="1676.7" cy="623.1" r="4.1" fill="#e6ddc4" opacity="0.049"/><circle cx="1068.6" cy="2260.9" r="1.7" fill="#e6ddc4" opacity="0.068"/><circle cx="2359.4" cy="715.9" r="2.6" fill="#e6ddc4" opacity="0.062"/><circle cx="616.6" cy="1334.7" r="3.9" fill="#e6ddc4" opacity="0.065"/><circle cx="1980.7" cy="2470.9" r="4.3" fill="#e6ddc4" opacity="0.068"/><circle cx="624.9" cy="505.2" r="4" fill="#e6ddc4" opacity="0.058"/><circle cx="1240.9" cy="2284.1" r="2.2" fill="#e6ddc4" opacity="0.048"/><circle cx="1728.2" cy="218.4" r="2.1" fill="#e6ddc4" opacity="0.074"/><circle cx="2075.9" cy="2643" r="3.6" fill="#e6ddc4" opacity="0.078"/><circle cx="1687.2" cy="820.7" r="1.6" fill="#e6ddc4" opacity="0.053"/><circle cx="1567.1" cy="556.2" r="3" fill="#e6ddc4" opacity="0.031"/><circle cx="1107.7" cy="284" r="3.9" fill="#e6ddc4" opacity="0.075"/><circle cx="1640.2" cy="1433.3" r="2.2" fill="#e6ddc4" opacity="0.031"/><circle cx="361.3" cy="2388.5" r="4.3" fill="#e6ddc4" opacity="0.063"/><circle cx="1020.2" cy="369" r="3.6" fill="#e6ddc4" opacity="0.072"/><circle cx="754.6" cy="2297.9" r="4.3" fill="#e6ddc4" opacity="0.078"/><circle cx="2042.5" cy="1861.8" r="3.6" fill="#e6ddc4" opacity="0.047"/><circle cx="379.7" cy="440.1" r="4.4" fill="#e6ddc4" opacity="0.074"/><circle cx="931.2" cy="2950.5" r="3.7" fill="#e6ddc4" opacity="0.069"/><circle cx="508.6" cy="741.1" r="3.7" fill="#e6ddc4" opacity="0.064"/><circle cx="171.1" cy="2304.8" r="4.2" fill="#e6ddc4" opacity="0.068"/><circle cx="1432" cy="2811.2" r="2.8" fill="#e6ddc4" opacity="0.063"/><circle cx="753.2" cy="2773.4" r="1.5" fill="#e6ddc4" opacity="0.039"/><circle cx="1223.1" cy="1998" r="2.1" fill="#e6ddc4" opacity="0.062"/><circle cx="1924.8" cy="490.4" r="3.6" fill="#e6ddc4" opacity="0.060"/><circle cx="1479.2" cy="1412.6" r="2.7" fill="#e6ddc4" opacity="0.037"/><circle cx="1343.2" cy="1306" r="2.7" fill="#e6ddc4" opacity="0.040"/><circle cx="518.5" cy="835.7" r="3.3" fill="#e6ddc4" opacity="0.067"/><circle cx="2093.3" cy="1199.7" r="4.1" fill="#e6ddc4" opacity="0.038"/><circle cx="661.2" cy="2191.9" r="2.4" fill="#e6ddc4" opacity="0.041"/><circle cx="2060.9" cy="1299.6" r="3.2" fill="#e6ddc4" opacity="0.075"/><circle cx="602.6" cy="346.9" r="2.1" fill="#e6ddc4" opacity="0.080"/><circle cx="1205.8" cy="452.7" r="2.9" fill="#e6ddc4" opacity="0.049"/><circle cx="1287.2" cy="2077.6" r="1.9" fill="#e6ddc4" opacity="0.070"/><circle cx="445" cy="386.2" r="2.5" fill="#e6ddc4" opacity="0.031"/><circle cx="154.7" cy="768.9" r="2.6" fill="#e6ddc4" opacity="0.074"/><circle cx="1704.3" cy="2891.8" r="3.9" fill="#e6ddc4" opacity="0.068"/><circle cx="509.9" cy="2775.4" r="1.9" fill="#e6ddc4" opacity="0.052"/><circle cx="1891.9" cy="1190.2" r="2.1" fill="#e6ddc4" opacity="0.077"/><circle cx="200.9" cy="1334.7" r="3.8" fill="#e6ddc4" opacity="0.031"/><circle cx="131.2" cy="425" r="3.7" fill="#e6ddc4" opacity="0.034"/><circle cx="2010" cy="829.8" r="2" fill="#e6ddc4" opacity="0.034"/><circle cx="183.8" cy="1093" r="3.1" fill="#e6ddc4" opacity="0.036"/><circle cx="2073.8" cy="1327.1" r="2.6" fill="#e6ddc4" opacity="0.060"/><circle cx="828.1" cy="1292" r="3.5" fill="#e6ddc4" opacity="0.047"/><circle cx="1028.3" cy="2315.2" r="3.8" fill="#e6ddc4" opacity="0.041"/><circle cx="1760.4" cy="1326.6" r="2.2" fill="#e6ddc4" opacity="0.068"/><circle cx="208.7" cy="1963.1" r="2.4" fill="#e6ddc4" opacity="0.075"/><circle cx="1380.4" cy="405.3" r="2" fill="#e6ddc4" opacity="0.066"/><circle cx="2024.1" cy="2345.1" r="1.7" fill="#e6ddc4" opacity="0.045"/><circle cx="1868.6" cy="2131.2" r="2.7" fill="#e6ddc4" opacity="0.041"/><circle cx="1222.1" cy="2474.9" r="2.2" fill="#e6ddc4" opacity="0.044"/><circle cx="86.8" cy="2825.1" r="2.4" fill="#e6ddc4" opacity="0.033"/><circle cx="789.2" cy="673.8" r="3.3" fill="#e6ddc4" opacity="0.067"/><circle cx="130.7" cy="1257.2" r="1.5" fill="#e6ddc4" opacity="0.072"/><circle cx="1206.3" cy="1467.3" r="4" fill="#e6ddc4" opacity="0.044"/><circle cx="2345.8" cy="2035.3" r="2" fill="#e6ddc4" opacity="0.079"/><circle cx="137" cy="494.3" r="3.7" fill="#e6ddc4" opacity="0.066"/><circle cx="762" cy="2194.5" r="4.4" fill="#e6ddc4" opacity="0.049"/><circle cx="2156.6" cy="2528.6" r="3.7" fill="#e6ddc4" opacity="0.066"/><circle cx="1083.5" cy="650" r="1.5" fill="#e6ddc4" opacity="0.055"/><circle cx="2005.6" cy="2151.2" r="3.2" fill="#e6ddc4" opacity="0.078"/><circle cx="2247.3" cy="754.3" r="1.6" fill="#e6ddc4" opacity="0.047"/><circle cx="1343.1" cy="203.8" r="2" fill="#e6ddc4" opacity="0.049"/><circle cx="1551.3" cy="402.8" r="4" fill="#e6ddc4" opacity="0.078"/><circle cx="1233.5" cy="2047.5" r="1.9" fill="#e6ddc4" opacity="0.065"/><circle cx="577.6" cy="511.7" r="1.7" fill="#e6ddc4" opacity="0.031"/><circle cx="618.1" cy="1585.8" r="3.3" fill="#e6ddc4" opacity="0.036"/><circle cx="1872.5" cy="2192.4" r="2.6" fill="#e6ddc4" opacity="0.072"/><circle cx="1167.4" cy="807" r="4" fill="#e6ddc4" opacity="0.036"/><circle cx="75.6" cy="307.8" r="2.6" fill="#e6ddc4" opacity="0.077"/><circle cx="1171.7" cy="833.2" r="344.8" fill="#bda15a"/><path d="M150,1560 Q 650,1269.5 1250,1560 T 2250,1500 L2250,1750 L150,1750 Z" fill="#57674b" opacity="0.8"/><path d="M150,1560 Q 1500,1284 2250,1560 L2250,1750 L150,1750 Z" fill="#57674b" opacity="0.5"/><rect x="200" y="1560" width="2000" height="70" fill="#e6ddc4"/><rect x="200" y="1630" width="2000" height="790" fill="#e6ddc4"/><path d="M276,2420 L276,1894 A124,124 0 0 1 524,1894 L524,2420 Z" fill="#3d4a33"/><path d="M676,2420 L676,1894 A124,124 0 0 1 924,1894 L924,2420 Z" fill="#3d4a33"/><path d="M1076,2420 L1076,1894 A124,124 0 0 1 1324,1894 L1324,2420 Z" fill="#3d4a33"/><path d="M1476,2420 L1476,1894 A124,124 0 0 1 1724,1894 L1724,2420 Z" fill="#3d4a33"/><path d="M1876,2420 L1876,1894 A124,124 0 0 1 2124,1894 L2124,2420 Z" fill="#3d4a33"/><rect x="200" y="1320" width="2000" height="240" fill="#e6ddc4"/><path d="M244,1560 L244,1446 A56,56 0 0 1 356,1446 L356,1560 Z" fill="#3d4a33"/><path d="M444,1560 L444,1446 A56,56 0 0 1 556,1446 L556,1560 Z" fill="#3d4a33"/><path d="M644,1560 L644,1446 A56,56 0 0 1 756,1446 L756,1560 Z" fill="#3d4a33"/><path d="M844,1560 L844,1446 A56,56 0 0 1 956,1446 L956,1560 Z" fill="#3d4a33"/><path d="M1044,1560 L1044,1446 A56,56 0 0 1 1156,1446 L1156,1560 Z" fill="#3d4a33"/><path d="M1244,1560 L1244,1446 A56,56 0 0 1 1356,1446 L1356,1560 Z" fill="#3d4a33"/><path d="M1444,1560 L1444,1446 A56,56 0 0 1 1556,1446 L1556,1560 Z" fill="#3d4a33"/><path d="M1644,1560 L1644,1446 A56,56 0 0 1 1756,1446 L1756,1560 Z" fill="#3d4a33"/><path d="M1844,1560 L1844,1446 A56,56 0 0 1 1956,1446 L1956,1560 Z" fill="#3d4a33"/><path d="M2044,1560 L2044,1446 A56,56 0 0 1 2156,1446 L2156,1560 Z" fill="#3d4a33"/><rect x="200" y="1280" width="2000" height="40" fill="#e6ddc4"/><rect x="150" y="2420" width="2100" height="26" fill="#e6ddc4"/><path d="M0 0 Q 82.6 -196.2 0 -516.3 Q -82.6 -196.2 0 0 Z" fill="#e6ddc4" opacity="1" transform="translate(487.4 2428) rotate(0)"/><line x1="487.4" y1="2420" x2="487.4" y2="2444" stroke="#e6ddc4" stroke-width="12"/><path d="M0 0 Q 62.8 -149.2 0 -392.7 Q -62.8 -149.2 0 0 Z" fill="#e6ddc4" opacity="1" transform="translate(1778.4 2428) rotate(0)"/><line x1="1778.4" y1="2420" x2="1778.4" y2="2444" stroke="#e6ddc4" stroke-width="12"/><path d="M0 0 Q 79.8 -189.5 0 -498.8 Q -79.8 -189.5 0 0 Z" fill="#e6ddc4" opacity="1" transform="translate(484.4 2428) rotate(0)"/><line x1="484.4" y1="2420" x2="484.4" y2="2444" stroke="#e6ddc4" stroke-width="12"/><line x1="240" y1="2810" x2="2160" y2="2810" stroke="#e6ddc4" stroke-width="7.2"/><polyline points="299.9,2766.8 299.3,2767.4 299,2768.2 299,2769.3 299.4,2770.3 300.1,2771.4 301.1,2772.2 302.5,2772.8 304.2,2773 305.9,2772.7 307.6,2772 309.2,2770.7 310.5,2768.9 311.4,2766.8 311.6,2764.4 311.3,2761.8 310.3,2759.3 308.6,2757 306.2,2755.1 303.4,2753.8 300.2,2753.2 296.7,2753.5 293.4,2754.6 290.3,2756.6 287.6,2759.4 285.7,2762.8 284.6,2766.8 284.6,2771 285.6,2775.3 287.6,2779.4 290.7,2782.9 294.7,2785.6 299.3,2787.3 304.4,2787.9 309.6,2787.2 314.5,2785.3 319,2782.1 322.7,2777.8 325.3,2772.6 326.6,2766.8 326.4,2760.7 324.8,2754.7 321.7,2749.2 317.2,2744.5 311.6,2740.9 305.2,2738.7 298.3,2738.1 291.3,2739.2 284.7,2742.1 278.9,2746.5 274.1,2752.3 270.9,2759.2 269.4,2766.8" fill="none" stroke="#e6ddc4" stroke-width="8.1" stroke-linecap="round" stroke-linejoin="round"/><polyline points="389.9,2766.8 389.3,2767.4 389,2768.2 389,2769.3 389.4,2770.3 390.1,2771.4 391.1,2772.2 392.5,2772.8 394.2,2773 395.9,2772.7 397.6,2772 399.2,2770.7 400.5,2768.9 401.4,2766.8 401.6,2764.4 401.3,2761.8 400.3,2759.3 398.6,2757 396.2,2755.1 393.4,2753.8 390.2,2753.2 386.7,2753.5 383.4,2754.6 380.3,2756.6 377.6,2759.4 375.7,2762.8 374.6,2766.8 374.6,2771 375.6,2775.3 377.6,2779.4 380.7,2782.9 384.7,2785.6 389.3,2787.3 394.4,2787.9 399.6,2787.2 404.5,2785.3 409,2782.1 412.7,2777.8 415.3,2772.6 416.6,2766.8 416.4,2760.7 414.8,2754.7 411.7,2749.2 407.2,2744.5 401.6,2740.9 395.2,2738.7 388.3,2738.1 381.3,2739.2 374.7,2742.1 368.9,2746.5 364.1,2752.3 360.9,2759.2 359.4,2766.8" fill="none" stroke="#e6ddc4" stroke-width="8.1" stroke-linecap="round" stroke-linejoin="round"/><polyline points="479.9,2766.8 479.3,2767.4 479,2768.2 479,2769.3 479.4,2770.3 480.1,2771.4 481.1,2772.2 482.5,2772.8 484.2,2773 485.9,2772.7 487.6,2772 489.2,2770.7 490.5,2768.9 491.4,2766.8 491.6,2764.4 491.3,2761.8 490.3,2759.3 488.6,2757 486.2,2755.1 483.4,2753.8 480.2,2753.2 476.7,2753.5 473.4,2754.6 470.3,2756.6 467.6,2759.4 465.7,2762.8 464.6,2766.8 464.6,2771 465.6,2775.3 467.6,2779.4 470.7,2782.9 474.7,2785.6 479.3,2787.3 484.4,2787.9 489.6,2787.2 494.5,2785.3 499,2782.1 502.7,2777.8 505.3,2772.6 506.6,2766.8 506.4,2760.7 504.8,2754.7 501.7,2749.2 497.2,2744.5 491.6,2740.9 485.2,2738.7 478.3,2738.1 471.3,2739.2 464.7,2742.1 458.9,2746.5 454.1,2752.3 450.9,2759.2 449.4,2766.8" fill="none" stroke="#e6ddc4" stroke-width="8.1" stroke-linecap="round" stroke-linejoin="round"/><polyline points="569.9,2766.8 569.3,2767.4 569,2768.2 569,2769.3 569.4,2770.3 570.1,2771.4 571.1,2772.2 572.5,2772.8 574.2,2773 575.9,2772.7 577.6,2772 579.2,2770.7 580.5,2768.9 581.4,2766.8 581.6,2764.4 581.3,2761.8 580.3,2759.3 578.6,2757 576.2,2755.1 573.4,2753.8 570.2,2753.2 566.7,2753.5 563.4,2754.6 560.3,2756.6 557.6,2759.4 555.7,2762.8 554.6,2766.8 554.6,2771 555.6,2775.3 557.6,2779.4 560.7,2782.9 564.7,2785.6 569.3,2787.3 574.4,2787.9 579.6,2787.2 584.5,2785.3 589,2782.1 592.7,2777.8 595.3,2772.6 596.6,2766.8 596.4,2760.7 594.8,2754.7 591.7,2749.2 587.2,2744.5 581.6,2740.9 575.2,2738.7 568.3,2738.1 561.3,2739.2 554.7,2742.1 548.9,2746.5 544.1,2752.3 540.9,2759.2 539.4,2766.8" fill="none" stroke="#e6ddc4" stroke-width="8.1" stroke-linecap="round" stroke-linejoin="round"/><polyline points="659.9,2766.8 659.3,2767.4 659,2768.2 659,2769.3 659.4,2770.3 660.1,2771.4 661.1,2772.2 662.5,2772.8 664.2,2773 665.9,2772.7 667.6,2772 669.2,2770.7 670.5,2768.9 671.4,2766.8 671.6,2764.4 671.3,2761.8 670.3,2759.3 668.6,2757 666.2,2755.1 663.4,2753.8 660.2,2753.2 656.7,2753.5 653.4,2754.6 650.3,2756.6 647.6,2759.4 645.7,2762.8 644.6,2766.8 644.6,2771 645.6,2775.3 647.6,2779.4 650.7,2782.9 654.7,2785.6 659.3,2787.3 664.4,2787.9 669.6,2787.2 674.5,2785.3 679,2782.1 682.7,2777.8 685.3,2772.6 686.6,2766.8 686.4,2760.7 684.8,2754.7 681.7,2749.2 677.2,2744.5 671.6,2740.9 665.2,2738.7 658.3,2738.1 651.3,2739.2 644.7,2742.1 638.9,2746.5 634.1,2752.3 630.9,2759.2 629.4,2766.8" fill="none" stroke="#e6ddc4" stroke-width="8.1" stroke-linecap="round" stroke-linejoin="round"/><polyline points="749.9,2766.8 749.3,2767.4 749,2768.2 749,2769.3 749.4,2770.3 750.1,2771.4 751.1,2772.2 752.5,2772.8 754.2,2773 755.9,2772.7 757.6,2772 759.2,2770.7 760.5,2768.9 761.4,2766.8 761.6,2764.4 761.3,2761.8 760.3,2759.3 758.6,2757 756.2,2755.1 753.4,2753.8 750.2,2753.2 746.7,2753.5 743.4,2754.6 740.3,2756.6 737.6,2759.4 735.7,2762.8 734.6,2766.8 734.6,2771 735.6,2775.3 737.6,2779.4 740.7,2782.9 744.7,2785.6 749.3,2787.3 754.4,2787.9 759.6,2787.2 764.5,2785.3 769,2782.1 772.7,2777.8 775.3,2772.6 776.6,2766.8 776.4,2760.7 774.8,2754.7 771.7,2749.2 767.2,2744.5 761.6,2740.9 755.2,2738.7 748.3,2738.1 741.3,2739.2 734.7,2742.1 728.9,2746.5 724.1,2752.3 720.9,2759.2 719.4,2766.8" fill="none" stroke="#e6ddc4" stroke-width="8.1" stroke-linecap="round" stroke-linejoin="round"/><polyline points="839.9,2766.8 839.3,2767.4 839,2768.2 839,2769.3 839.4,2770.3 840.1,2771.4 841.1,2772.2 842.5,2772.8 844.2,2773 845.9,2772.7 847.6,2772 849.2,2770.7 850.5,2768.9 851.4,2766.8 851.6,2764.4 851.3,2761.8 850.3,2759.3 848.6,2757 846.2,2755.1 843.4,2753.8 840.2,2753.2 836.7,2753.5 833.4,2754.6 830.3,2756.6 827.6,2759.4 825.7,2762.8 824.6,2766.8 824.6,2771 825.6,2775.3 827.6,2779.4 830.7,2782.9 834.7,2785.6 839.3,2787.3 844.4,2787.9 849.6,2787.2 854.5,2785.3 859,2782.1 862.7,2777.8 865.3,2772.6 866.6,2766.8 866.4,2760.7 864.8,2754.7 861.7,2749.2 857.2,2744.5 851.6,2740.9 845.2,2738.7 838.3,2738.1 831.3,2739.2 824.7,2742.1 818.9,2746.5 814.1,2752.3 810.9,2759.2 809.4,2766.8" fill="none" stroke="#e6ddc4" stroke-width="8.1" stroke-linecap="round" stroke-linejoin="round"/><polyline points="929.9,2766.8 929.3,2767.4 929,2768.2 929,2769.3 929.4,2770.3 930.1,2771.4 931.1,2772.2 932.5,2772.8 934.2,2773 935.9,2772.7 937.6,2772 939.2,2770.7 940.5,2768.9 941.4,2766.8 941.6,2764.4 941.3,2761.8 940.3,2759.3 938.6,2757 936.2,2755.1 933.4,2753.8 930.2,2753.2 926.7,2753.5 923.4,2754.6 920.3,2756.6 917.6,2759.4 915.7,2762.8 914.6,2766.8 914.6,2771 915.6,2775.3 917.6,2779.4 920.7,2782.9 924.7,2785.6 929.3,2787.3 934.4,2787.9 939.6,2787.2 944.5,2785.3 949,2782.1 952.7,2777.8 955.3,2772.6 956.6,2766.8 956.4,2760.7 954.8,2754.7 951.7,2749.2 947.2,2744.5 941.6,2740.9 935.2,2738.7 928.3,2738.1 921.3,2739.2 914.7,2742.1 908.9,2746.5 904.1,2752.3 900.9,2759.2 899.4,2766.8" fill="none" stroke="#e6ddc4" stroke-width="8.1" stroke-linecap="round" stroke-linejoin="round"/><polyline points="1019.9,2766.8 1019.3,2767.4 1019,2768.2 1019,2769.3 1019.4,2770.3 1020.1,2771.4 1021.1,2772.2 1022.5,2772.8 1024.2,2773 1025.9,2772.7 1027.6,2772 1029.2,2770.7 1030.5,2768.9 1031.4,2766.8 1031.6,2764.4 1031.3,2761.8 1030.3,2759.3 1028.6,2757 1026.2,2755.1 1023.4,2753.8 1020.2,2753.2 1016.7,2753.5 1013.4,2754.6 1010.3,2756.6 1007.6,2759.4 1005.7,2762.8 1004.6,2766.8 1004.6,2771 1005.6,2775.3 1007.6,2779.4 1010.7,2782.9 1014.7,2785.6 1019.3,2787.3 1024.4,2787.9 1029.6,2787.2 1034.5,2785.3 1039,2782.1 1042.7,2777.8 1045.3,2772.6 1046.6,2766.8 1046.4,2760.7 1044.8,2754.7 1041.7,2749.2 1037.2,2744.5 1031.6,2740.9 1025.2,2738.7 1018.3,2738.1 1011.3,2739.2 1004.7,2742.1 998.9,2746.5 994.1,2752.3 990.9,2759.2 989.4,2766.8" fill="none" stroke="#e6ddc4" stroke-width="8.1" stroke-linecap="round" stroke-linejoin="round"/><polyline points="1109.9,2766.8 1109.3,2767.4 1109,2768.2 1109,2769.3 1109.4,2770.3 1110.1,2771.4 1111.1,2772.2 1112.5,2772.8 1114.2,2773 1115.9,2772.7 1117.6,2772 1119.2,2770.7 1120.5,2768.9 1121.4,2766.8 1121.6,2764.4 1121.3,2761.8 1120.3,2759.3 1118.6,2757 1116.2,2755.1 1113.4,2753.8 1110.2,2753.2 1106.7,2753.5 1103.4,2754.6 1100.3,2756.6 1097.6,2759.4 1095.7,2762.8 1094.6,2766.8 1094.6,2771 1095.6,2775.3 1097.6,2779.4 1100.7,2782.9 1104.7,2785.6 1109.3,2787.3 1114.4,2787.9 1119.6,2787.2 1124.5,2785.3 1129,2782.1 1132.7,2777.8 1135.3,2772.6 1136.6,2766.8 1136.4,2760.7 1134.8,2754.7 1131.7,2749.2 1127.2,2744.5 1121.6,2740.9 1115.2,2738.7 1108.3,2738.1 1101.3,2739.2 1094.7,2742.1 1088.9,2746.5 1084.1,2752.3 1080.9,2759.2 1079.4,2766.8" fill="none" stroke="#e6ddc4" stroke-width="8.1" stroke-linecap="round" stroke-linejoin="round"/><polyline points="1199.9,2766.8 1199.3,2767.4 1199,2768.2 1199,2769.3 1199.4,2770.3 1200.1,2771.4 1201.1,2772.2 1202.5,2772.8 1204.2,2773 1205.9,2772.7 1207.6,2772 1209.2,2770.7 1210.5,2768.9 1211.4,2766.8 1211.6,2764.4 1211.3,2761.8 1210.3,2759.3 1208.6,2757 1206.2,2755.1 1203.4,2753.8 1200.2,2753.2 1196.7,2753.5 1193.4,2754.6 1190.3,2756.6 1187.6,2759.4 1185.7,2762.8 1184.6,2766.8 1184.6,2771 1185.6,2775.3 1187.6,2779.4 1190.7,2782.9 1194.7,2785.6 1199.3,2787.3 1204.4,2787.9 1209.6,2787.2 1214.5,2785.3 1219,2782.1 1222.7,2777.8 1225.3,2772.6 1226.6,2766.8 1226.4,2760.7 1224.8,2754.7 1221.7,2749.2 1217.2,2744.5 1211.6,2740.9 1205.2,2738.7 1198.3,2738.1 1191.3,2739.2 1184.7,2742.1 1178.9,2746.5 1174.1,2752.3 1170.9,2759.2 1169.4,2766.8" fill="none" stroke="#e6ddc4" stroke-width="8.1" stroke-linecap="round" stroke-linejoin="round"/><polyline points="1289.9,2766.8 1289.3,2767.4 1289,2768.2 1289,2769.3 1289.4,2770.3 1290.1,2771.4 1291.1,2772.2 1292.5,2772.8 1294.2,2773 1295.9,2772.7 1297.6,2772 1299.2,2770.7 1300.5,2768.9 1301.4,2766.8 1301.6,2764.4 1301.3,2761.8 1300.3,2759.3 1298.6,2757 1296.2,2755.1 1293.4,2753.8 1290.2,2753.2 1286.7,2753.5 1283.4,2754.6 1280.3,2756.6 1277.6,2759.4 1275.7,2762.8 1274.6,2766.8 1274.6,2771 1275.6,2775.3 1277.6,2779.4 1280.7,2782.9 1284.7,2785.6 1289.3,2787.3 1294.4,2787.9 1299.6,2787.2 1304.5,2785.3 1309,2782.1 1312.7,2777.8 1315.3,2772.6 1316.6,2766.8 1316.4,2760.7 1314.8,2754.7 1311.7,2749.2 1307.2,2744.5 1301.6,2740.9 1295.2,2738.7 1288.3,2738.1 1281.3,2739.2 1274.7,2742.1 1268.9,2746.5 1264.1,2752.3 1260.9,2759.2 1259.4,2766.8" fill="none" stroke="#e6ddc4" stroke-width="8.1" stroke-linecap="round" stroke-linejoin="round"/><polyline points="1379.9,2766.8 1379.3,2767.4 1379,2768.2 1379,2769.3 1379.4,2770.3 1380.1,2771.4 1381.1,2772.2 1382.5,2772.8 1384.2,2773 1385.9,2772.7 1387.6,2772 1389.2,2770.7 1390.5,2768.9 1391.4,2766.8 1391.6,2764.4 1391.3,2761.8 1390.3,2759.3 1388.6,2757 1386.2,2755.1 1383.4,2753.8 1380.2,2753.2 1376.7,2753.5 1373.4,2754.6 1370.3,2756.6 1367.6,2759.4 1365.7,2762.8 1364.6,2766.8 1364.6,2771 1365.6,2775.3 1367.6,2779.4 1370.7,2782.9 1374.7,2785.6 1379.3,2787.3 1384.4,2787.9 1389.6,2787.2 1394.5,2785.3 1399,2782.1 1402.7,2777.8 1405.3,2772.6 1406.6,2766.8 1406.4,2760.7 1404.8,2754.7 1401.7,2749.2 1397.2,2744.5 1391.6,2740.9 1385.2,2738.7 1378.3,2738.1 1371.3,2739.2 1364.7,2742.1 1358.9,2746.5 1354.1,2752.3 1350.9,2759.2 1349.4,2766.8" fill="none" stroke="#e6ddc4" stroke-width="8.1" stroke-linecap="round" stroke-linejoin="round"/><polyline points="1469.9,2766.8 1469.3,2767.4 1469,2768.2 1469,2769.3 1469.4,2770.3 1470.1,2771.4 1471.1,2772.2 1472.5,2772.8 1474.2,2773 1475.9,2772.7 1477.6,2772 1479.2,2770.7 1480.5,2768.9 1481.4,2766.8 1481.6,2764.4 1481.3,2761.8 1480.3,2759.3 1478.6,2757 1476.2,2755.1 1473.4,2753.8 1470.2,2753.2 1466.7,2753.5 1463.4,2754.6 1460.3,2756.6 1457.6,2759.4 1455.7,2762.8 1454.6,2766.8 1454.6,2771 1455.6,2775.3 1457.6,2779.4 1460.7,2782.9 1464.7,2785.6 1469.3,2787.3 1474.4,2787.9 1479.6,2787.2 1484.5,2785.3 1489,2782.1 1492.7,2777.8 1495.3,2772.6 1496.6,2766.8 1496.4,2760.7 1494.8,2754.7 1491.7,2749.2 1487.2,2744.5 1481.6,2740.9 1475.2,2738.7 1468.3,2738.1 1461.3,2739.2 1454.7,2742.1 1448.9,2746.5 1444.1,2752.3 1440.9,2759.2 1439.4,2766.8" fill="none" stroke="#e6ddc4" stroke-width="8.1" stroke-linecap="round" stroke-linejoin="round"/><polyline points="1559.9,2766.8 1559.3,2767.4 1559,2768.2 1559,2769.3 1559.4,2770.3 1560.1,2771.4 1561.1,2772.2 1562.5,2772.8 1564.2,2773 1565.9,2772.7 1567.6,2772 1569.2,2770.7 1570.5,2768.9 1571.4,2766.8 1571.6,2764.4 1571.3,2761.8 1570.3,2759.3 1568.6,2757 1566.2,2755.1 1563.4,2753.8 1560.2,2753.2 1556.7,2753.5 1553.4,2754.6 1550.3,2756.6 1547.6,2759.4 1545.7,2762.8 1544.6,2766.8 1544.6,2771 1545.6,2775.3 1547.6,2779.4 1550.7,2782.9 1554.7,2785.6 1559.3,2787.3 1564.4,2787.9 1569.6,2787.2 1574.5,2785.3 1579,2782.1 1582.7,2777.8 1585.3,2772.6 1586.6,2766.8 1586.4,2760.7 1584.8,2754.7 1581.7,2749.2 1577.2,2744.5 1571.6,2740.9 1565.2,2738.7 1558.3,2738.1 1551.3,2739.2 1544.7,2742.1 1538.9,2746.5 1534.1,2752.3 1530.9,2759.2 1529.4,2766.8" fill="none" stroke="#e6ddc4" stroke-width="8.1" stroke-linecap="round" stroke-linejoin="round"/><polyline points="1649.9,2766.8 1649.3,2767.4 1649,2768.2 1649,2769.3 1649.4,2770.3 1650.1,2771.4 1651.1,2772.2 1652.5,2772.8 1654.2,2773 1655.9,2772.7 1657.6,2772 1659.2,2770.7 1660.5,2768.9 1661.4,2766.8 1661.6,2764.4 1661.3,2761.8 1660.3,2759.3 1658.6,2757 1656.2,2755.1 1653.4,2753.8 1650.2,2753.2 1646.7,2753.5 1643.4,2754.6 1640.3,2756.6 1637.6,2759.4 1635.7,2762.8 1634.6,2766.8 1634.6,2771 1635.6,2775.3 1637.6,2779.4 1640.7,2782.9 1644.7,2785.6 1649.3,2787.3 1654.4,2787.9 1659.6,2787.2 1664.5,2785.3 1669,2782.1 1672.7,2777.8 1675.3,2772.6 1676.6,2766.8 1676.4,2760.7 1674.8,2754.7 1671.7,2749.2 1667.2,2744.5 1661.6,2740.9 1655.2,2738.7 1648.3,2738.1 1641.3,2739.2 1634.7,2742.1 1628.9,2746.5 1624.1,2752.3 1620.9,2759.2 1619.4,2766.8" fill="none" stroke="#e6ddc4" stroke-width="8.1" stroke-linecap="round" stroke-linejoin="round"/><polyline points="1739.9,2766.8 1739.3,2767.4 1739,2768.2 1739,2769.3 1739.4,2770.3 1740.1,2771.4 1741.1,2772.2 1742.5,2772.8 1744.2,2773 1745.9,2772.7 1747.6,2772 1749.2,2770.7 1750.5,2768.9 1751.4,2766.8 1751.6,2764.4 1751.3,2761.8 1750.3,2759.3 1748.6,2757 1746.2,2755.1 1743.4,2753.8 1740.2,2753.2 1736.7,2753.5 1733.4,2754.6 1730.3,2756.6 1727.6,2759.4 1725.7,2762.8 1724.6,2766.8 1724.6,2771 1725.6,2775.3 1727.6,2779.4 1730.7,2782.9 1734.7,2785.6 1739.3,2787.3 1744.4,2787.9 1749.6,2787.2 1754.5,2785.3 1759,2782.1 1762.7,2777.8 1765.3,2772.6 1766.6,2766.8 1766.4,2760.7 1764.8,2754.7 1761.7,2749.2 1757.2,2744.5 1751.6,2740.9 1745.2,2738.7 1738.3,2738.1 1731.3,2739.2 1724.7,2742.1 1718.9,2746.5 1714.1,2752.3 1710.9,2759.2 1709.4,2766.8" fill="none" stroke="#e6ddc4" stroke-width="8.1" stroke-linecap="round" stroke-linejoin="round"/><polyline points="1829.9,2766.8 1829.3,2767.4 1829,2768.2 1829,2769.3 1829.4,2770.3 1830.1,2771.4 1831.1,2772.2 1832.5,2772.8 1834.2,2773 1835.9,2772.7 1837.6,2772 1839.2,2770.7 1840.5,2768.9 1841.4,2766.8 1841.6,2764.4 1841.3,2761.8 1840.3,2759.3 1838.6,2757 1836.2,2755.1 1833.4,2753.8 1830.2,2753.2 1826.7,2753.5 1823.4,2754.6 1820.3,2756.6 1817.6,2759.4 1815.7,2762.8 1814.6,2766.8 1814.6,2771 1815.6,2775.3 1817.6,2779.4 1820.7,2782.9 1824.7,2785.6 1829.3,2787.3 1834.4,2787.9 1839.6,2787.2 1844.5,2785.3 1849,2782.1 1852.7,2777.8 1855.3,2772.6 1856.6,2766.8 1856.4,2760.7 1854.8,2754.7 1851.7,2749.2 1847.2,2744.5 1841.6,2740.9 1835.2,2738.7 1828.3,2738.1 1821.3,2739.2 1814.7,2742.1 1808.9,2746.5 1804.1,2752.3 1800.9,2759.2 1799.4,2766.8" fill="none" stroke="#e6ddc4" stroke-width="8.1" stroke-linecap="round" stroke-linejoin="round"/><polyline points="1919.9,2766.8 1919.3,2767.4 1919,2768.2 1919,2769.3 1919.4,2770.3 1920.1,2771.4 1921.1,2772.2 1922.5,2772.8 1924.2,2773 1925.9,2772.7 1927.6,2772 1929.2,2770.7 1930.5,2768.9 1931.4,2766.8 1931.6,2764.4 1931.3,2761.8 1930.3,2759.3 1928.6,2757 1926.2,2755.1 1923.4,2753.8 1920.2,2753.2 1916.7,2753.5 1913.4,2754.6 1910.3,2756.6 1907.6,2759.4 1905.7,2762.8 1904.6,2766.8 1904.6,2771 1905.6,2775.3 1907.6,2779.4 1910.7,2782.9 1914.7,2785.6 1919.3,2787.3 1924.4,2787.9 1929.6,2787.2 1934.5,2785.3 1939,2782.1 1942.7,2777.8 1945.3,2772.6 1946.6,2766.8 1946.4,2760.7 1944.8,2754.7 1941.7,2749.2 1937.2,2744.5 1931.6,2740.9 1925.2,2738.7 1918.3,2738.1 1911.3,2739.2 1904.7,2742.1 1898.9,2746.5 1894.1,2752.3 1890.9,2759.2 1889.4,2766.8" fill="none" stroke="#e6ddc4" stroke-width="8.1" stroke-linecap="round" stroke-linejoin="round"/><polyline points="2009.9,2766.8 2009.3,2767.4 2009,2768.2 2009,2769.3 2009.4,2770.3 2010.1,2771.4 2011.1,2772.2 2012.5,2772.8 2014.2,2773 2015.9,2772.7 2017.6,2772 2019.2,2770.7 2020.5,2768.9 2021.4,2766.8 2021.6,2764.4 2021.3,2761.8 2020.3,2759.3 2018.6,2757 2016.2,2755.1 2013.4,2753.8 2010.2,2753.2 2006.7,2753.5 2003.4,2754.6 2000.3,2756.6 1997.6,2759.4 1995.7,2762.8 1994.6,2766.8 1994.6,2771 1995.6,2775.3 1997.6,2779.4 2000.7,2782.9 2004.7,2785.6 2009.3,2787.3 2014.4,2787.9 2019.6,2787.2 2024.5,2785.3 2029,2782.1 2032.7,2777.8 2035.3,2772.6 2036.6,2766.8 2036.4,2760.7 2034.8,2754.7 2031.7,2749.2 2027.2,2744.5 2021.6,2740.9 2015.2,2738.7 2008.3,2738.1 2001.3,2739.2 1994.7,2742.1 1988.9,2746.5 1984.1,2752.3 1980.9,2759.2 1979.4,2766.8" fill="none" stroke="#e6ddc4" stroke-width="8.1" stroke-linecap="round" stroke-linejoin="round"/><polyline points="2099.9,2766.8 2099.3,2767.4 2099,2768.2 2099,2769.3 2099.4,2770.3 2100.1,2771.4 2101.1,2772.2 2102.5,2772.8 2104.2,2773 2105.9,2772.7 2107.6,2772 2109.2,2770.7 2110.5,2768.9 2111.4,2766.8 2111.6,2764.4 2111.3,2761.8 2110.3,2759.3 2108.6,2757 2106.2,2755.1 2103.4,2753.8 2100.2,2753.2 2096.7,2753.5 2093.4,2754.6 2090.3,2756.6 2087.6,2759.4 2085.7,2762.8 2084.6,2766.8 2084.6,2771 2085.6,2775.3 2087.6,2779.4 2090.7,2782.9 2094.7,2785.6 2099.3,2787.3 2104.4,2787.9 2109.6,2787.2 2114.5,2785.3 2119,2782.1 2122.7,2777.8 2125.3,2772.6 2126.6,2766.8 2126.4,2760.7 2124.8,2754.7 2121.7,2749.2 2117.2,2744.5 2111.6,2740.9 2105.2,2738.7 2098.3,2738.1 2091.3,2739.2 2084.7,2742.1 2078.9,2746.5 2074.1,2752.3 2070.9,2759.2 2069.4,2766.8" fill="none" stroke="#e6ddc4" stroke-width="8.1" stroke-linecap="round" stroke-linejoin="round"/><rect x="100" y="100" width="2200" height="2800" fill="none" stroke="#e6ddc4" stroke-width="9"/><rect x="142" y="142" width="2116" height="2716" fill="none" stroke="#e6ddc4" stroke-width="3" opacity="0.65"/></svg>