<svg xmlns="http://www.w3.org/2000/svg" width="2400" height="3000" viewBox="0 0 2400 3000"><filter id="a175-warp" x="-4%" y="-4%" width="108%" height="108%"><feTurbulence type="fractalNoise" baseFrequency="0.0105" numOctaves="2" seed="4277" result="w"/><feDisplacementMap in="SourceGraphic" in2="w" scale="11" xChannelSelector="R" yChannelSelector="G"/></filter><filter id="a175-grain" x="0%" y="0%" width="100%" height="100%"><feTurbulence type="fractalNoise" baseFrequency="0.6" numOctaves="2" seed="4284"/><feColorMatrix type="matrix" values="0.33 0.33 0.33 0 0.62  0.33 0.33 0.33 0 0.62  0.33 0.33 0.33 0 0.62  0 0 0 0 1"/></filter><filter id="a175-mottle" x="0%" y="0%" width="100%" height="100%"><feTurbulence type="fractalNoise" baseFrequency="0.0045" numOctaves="3" seed="4290"/><feColorMatrix type="matrix" values="0.2 0.2 0.2 0 0.78  0.2 0.2 0.2 0 0.78  0.2 0.2 0.2 0 0.78  0 0 0 0 1"/></filter><filter id="a175-fade" x="0%" y="0%" width="100%" height="100%"><feTurbulence type="fractalNoise" baseFrequency="0.006" numOctaves="2" seed="4306"/><feColorMatrix type="matrix" values="0.3 0.3 0.3 0 -0.08  0.3 0.3 0.3 0 -0.08  0.3 0.3 0.3 0 -0.1  0 0 0 0 1"/></filter><filter id="a175-blur9"><feGaussianBlur stdDeviation="9"/></filter><radialGradient id="a175-vig" cx="50%" cy="44%" r="78%"><stop offset="52%" stop-color="#241a10" stop-opacity="0"/><stop offset="100%" stop-color="#241a10" stop-opacity="0.17"/></radialGradient><radialGradient id="a175-warm" cx="67%" cy="30%" r="85%"><stop offset="0%" stop-color="#e8c890" stop-opacity="0.14"/><stop offset="70%" stop-color="#e8c890" stop-opacity="0"/></radialGradient><rect width="2400" height="3000" fill="#d7c096"/><rect width="2400" height="3000" fill="url(#a175-warm)"/><rect x="0" width="26.9" height="3000" fill="#6b4e26" opacity="0.071"/><rect x="37.4" width="19.6" height="3000" fill="#6b4e26" opacity="0.046"/><rect x="64.6" width="41" height="3000" fill="#6b4e26" opacity="0.059"/><rect x="121.5" width="24.5" height="3000" fill="#6b4e26" opacity="0.032"/><rect x="155.5" width="30.8" height="3000" fill="#6b4e26" opacity="0.045"/><rect x="198.4" width="38.3" height="3000" fill="#6b4e26" opacity="0.079"/><rect x="251.6" width="32.2" height="3000" fill="#6b4e26" opacity="0.032"/><rect x="296.3" width="27.2" height="3000" fill="#6b4e26" opacity="0.044"/><rect x="334.2" width="36.3" height="3000" fill="#6b4e26" opacity="0.079"/><rect x="384.6" width="25.5" height="3000" fill="#6b4e26" opacity="0.085"/><rect x="420" width="37.9" height="3000" fill="#6b4e26" opacity="0.081"/><rect x="472.5" width="30.4" height="3000" fill="#6b4e26" opacity="0.087"/><rect x="514.8" width="40.8" height="3000" fill="#6b4e26" opacity="0.084"/><rect x="571.4" width="38.1" height="3000" fill="#6b4e26" opacity="0.061"/><rect x="624.3" width="21.8" height="3000" fill="#6b4e26" opacity="0.095"/><rect x="654.6" width="40.2" height="3000" fill="#6b4e26" opacity="0.047"/><rect x="710.4" width="39.4" height="3000" fill="#6b4e26" opacity="0.050"/><rect x="765.2" width="29.5" height="3000" fill="#6b4e26" opacity="0.056"/><rect x="806.2" width="26.3" height="3000" fill="#6b4e26" opacity="0.042"/><rect x="842.7" width="32.6" height="3000" fill="#6b4e26" opacity="0.063"/><rect x="888" width="30" height="3000" fill="#6b4e26" opacity="0.086"/><rect x="929.7" width="22.8" height="3000" fill="#6b4e26" opacity="0.098"/><rect x="961.3" width="27.8" height="3000" fill="#6b4e26" opacity="0.087"/><rect x="999.9" width="42.5" height="3000" fill="#6b4e26" opacity="0.064"/><rect x="1059" width="42.5" height="3000" fill="#6b4e26" opacity="0.097"/><rect x="1118" width="27" height="3000" fill="#6b4e26" opacity="0.086"/><rect x="1155.5" width="39.7" height="3000" fill="#6b4e26" opacity="0.095"/><rect x="1210.6" width="32" height="3000" fill="#6b4e26" opacity="0.066"/><rect x="1255.1" width="32.8" height="3000" fill="#6b4e26" opacity="0.087"/><rect x="1300.6" width="39.7" height="3000" fill="#6b4e26" opacity="0.077"/><rect x="1355.8" width="31.9" height="3000" fill="#6b4e26" opacity="0.090"/><rect x="1400.1" width="41.4" height="3000" fill="#6b4e26" opacity="0.036"/><rect x="1457.5" width="28.8" height="3000" fill="#6b4e26" opacity="0.042"/><rect x="1497.5" width="40.1" height="3000" fill="#6b4e26" opacity="0.043"/><rect x="1553.2" width="25.3" height="3000" fill="#6b4e26" opacity="0.058"/><rect x="1588.4" width="18.8" height="3000" fill="#6b4e26" opacity="0.055"/><rect x="1614.5" width="40" height="3000" fill="#6b4e26" opacity="0.039"/><rect x="1670.1" width="41.2" height="3000" fill="#6b4e26" opacity="0.038"/><rect x="1727.3" width="26.9" height="3000" fill="#6b4e26" opacity="0.031"/><rect x="1764.6" width="19.6" height="3000" fill="#6b4e26" opacity="0.056"/><rect x="1791.9" width="30.4" height="3000" fill="#6b4e26" opacity="0.079"/><rect x="1834.1" width="26.1" height="3000" fill="#6b4e26" opacity="0.068"/><rect x="1870.4" width="35.6" height="3000" fill="#6b4e26" opacity="0.089"/><rect x="1919.9" width="20.1" height="3000" fill="#6b4e26" opacity="0.078"/><rect x="1947.8" width="27.3" height="3000" fill="#6b4e26" opacity="0.046"/><rect x="1985.7" width="31.6" height="3000" fill="#6b4e26" opacity="0.071"/><rect x="2029.6" width="29.7" height="3000" fill="#6b4e26" opacity="0.030"/><rect x="2070.8" width="36" height="3000" fill="#6b4e26" opacity="0.049"/><rect x="2120.9" width="23.9" height="3000" fill="#6b4e26" opacity="0.087"/><rect x="2154.1" width="19.2" height="3000" fill="#6b4e26" opacity="0.032"/><rect x="2180.8" width="37" height="3000" fill="#6b4e26" opacity="0.035"/><rect x="2232.2" width="35.6" height="3000" fill="#6b4e26" opacity="0.089"/><rect x="2281.6" width="39.3" height="3000" fill="#6b4e26" opacity="0.033"/><rect x="2336.1" width="42.5" height="3000" fill="#6b4e26" opacity="0.068"/><rect x="2395.1" width="40.8" height="3000" fill="#6b4e26" opacity="0.043"/><rect y="0" width="2400" height="20.9" fill="#7c5c30" opacity="0.054"/><rect y="34.8" width="2400" height="21" fill="#7c5c30" opacity="0.058"/><rect y="69.8" width="2400" height="12.2" fill="#7c5c30" opacity="0.031"/><rect y="90.1" width="2400" height="27.2" fill="#7c5c30" opacity="0.052"/><rect y="135.5" width="2400" height="25.7" fill="#7c5c30" opacity="0.038"/><rect y="178.3" width="2400" height="28.6" fill="#7c5c30" opacity="0.022"/><rect y="226" width="2400" height="22.9" fill="#7c5c30" opacity="0.022"/><rect y="264.1" width="2400" height="12.8" fill="#7c5c30" opacity="0.053"/><rect y="285.4" width="2400" height="17.9" fill="#7c5c30" opacity="0.036"/><rect y="315.3" width="2400" height="27.1" fill="#7c5c30" opacity="0.029"/><rect y="360.5" width="2400" height="22.1" fill="#7c5c30" opacity="0.051"/><rect y="397.2" width="2400" height="24.8" fill="#7c5c30" opacity="0.059"/><rect y="438.6" width="2400" height="24.8" fill="#7c5c30" opacity="0.051"/><rect y="479.9" width="2400" height="21.6" fill="#7c5c30" opacity="0.044"/><rect y="516" width="2400" height="13.7" fill="#7c5c30" opacity="0.023"/><rect y="538.8" width="2400" height="19.5" fill="#7c5c30" opacity="0.032"/><rect y="571.3" width="2400" height="15.7" fill="#7c5c30" opacity="0.045"/><rect y="597.5" width="2400" height="27.9" fill="#7c5c30" opacity="0.052"/><rect y="644" width="2400" height="24.1" fill="#7c5c30" opacity="0.033"/><rect y="684.2" width="2400" height="17.6" fill="#7c5c30" opacity="0.032"/><rect y="713.6" width="2400" height="25.4" fill="#7c5c30" opacity="0.021"/><rect y="756" width="2400" height="17.1" fill="#7c5c30" opacity="0.046"/><rect y="784.4" width="2400" height="16.6" fill="#7c5c30" opacity="0.024"/><rect y="812.2" width="2400" height="27.4" fill="#7c5c30" opacity="0.041"/><rect y="857.8" width="2400" height="12.1" fill="#7c5c30" opacity="0.053"/><rect y="877.9" width="2400" height="12.3" fill="#7c5c30" opacity="0.024"/><rect y="898.4" width="2400" height="16.1" fill="#7c5c30" opacity="0.058"/><rect y="925.3" width="2400" height="20.4" fill="#7c5c30" opacity="0.041"/><rect y="959.3" width="2400" height="18.2" fill="#7c5c30" opacity="0.032"/><rect y="989.5" width="2400" height="14.5" fill="#7c5c30" opacity="0.055"/><rect y="1013.6" width="2400" height="16.3" fill="#7c5c30" opacity="0.037"/><rect y="1040.7" width="2400" height="22.5" fill="#7c5c30" opacity="0.020"/><rect y="1078.3" width="2400" height="25.3" fill="#7c5c30" opacity="0.022"/><rect y="1120.5" width="2400" height="27.2" fill="#7c5c30" opacity="0.056"/><rect y="1165.8" width="2400" height="17.1" fill="#7c5c30" opacity="0.027"/><rect y="1194.3" width="2400" height="12.8" fill="#7c5c30" opacity="0.038"/><rect y="1215.7" width="2400" height="19.2" fill="#7c5c30" opacity="0.032"/><rect y="1247.7" width="2400" height="24.2" fill="#7c5c30" opacity="0.047"/><rect y="1288" width="2400" height="18.3" fill="#7c5c30" opacity="0.025"/><rect y="1318.5" width="2400" height="18" fill="#7c5c30" opacity="0.034"/><rect y="1348.5" width="2400" height="20.3" fill="#7c5c30" opacity="0.051"/><rect y="1382.3" width="2400" height="25.5" fill="#7c5c30" opacity="0.034"/><rect y="1424.8" width="2400" height="17.3" fill="#7c5c30" opacity="0.058"/><rect y="1453.6" width="2400" height="19.9" fill="#7c5c30" opacity="0.042"/><rect y="1486.7" width="2400" height="22.3" fill="#7c5c30" opacity="0.056"/><rect y="1523.8" width="2400" height="13" fill="#7c5c30" opacity="0.028"/><rect y="1545.5" width="2400" height="12.5" fill="#7c5c30" opacity="0.053"/><rect y="1566.3" width="2400" height="18.3" fill="#7c5c30" opacity="0.026"/><rect y="1596.8" width="2400" height="27.2" fill="#7c5c30" opacity="0.022"/><rect y="1642.1" width="2400" height="23.5" fill="#7c5c30" opacity="0.032"/><rect y="1681.2" width="2400" height="17.9" fill="#7c5c30" opacity="0.060"/><rect y="1711" width="2400" height="21.2" fill="#7c5c30" opacity="0.047"/><rect y="1746.4" width="2400" height="16.9" fill="#7c5c30" opacity="0.051"/><rect y="1774.5" width="2400" height="18.5" fill="#7c5c30" opacity="0.039"/><rect y="1805.4" width="2400" height="18.1" fill="#7c5c30" opacity="0.048"/><rect y="1835.6" width="2400" height="24.1" fill="#7c5c30" opacity="0.026"/><rect y="1875.8" width="2400" height="20" fill="#7c5c30" opacity="0.045"/><rect y="1909.1" width="2400" height="26" fill="#7c5c30" opacity="0.039"/><rect y="1952.3" width="2400" height="21.9" fill="#7c5c30" opacity="0.023"/><rect y="1988.7" width="2400" height="20.4" fill="#7c5c30" opacity="0.029"/><rect y="2022.7" width="2400" height="24.2" fill="#7c5c30" opacity="0.042"/><rect y="2063" width="2400" height="22" fill="#7c5c30" opacity="0.027"/><rect y="2099.8" width="2400" height="13.1" fill="#7c5c30" opacity="0.031"/><rect y="2121.7" width="2400" height="19.2" fill="#7c5c30" opacity="0.055"/><rect y="2153.7" width="2400" height="19" fill="#7c5c30" opacity="0.023"/><rect y="2185.3" width="2400" height="14.3" fill="#7c5c30" opacity="0.044"/><rect y="2209.1" width="2400" height="16.4" fill="#7c5c30" opacity="0.045"/><rect y="2236.4" width="2400" height="20.6" fill="#7c5c30" opacity="0.028"/><rect y="2270.8" width="2400" height="14.9" fill="#7c5c30" opacity="0.058"/><rect y="2295.5" width="2400" height="18" fill="#7c5c30" opacity="0.043"/><rect y="2325.5" width="2400" height="23.5" fill="#7c5c30" opacity="0.035"/><rect y="2364.7" width="2400" height="25.2" fill="#7c5c30" opacity="0.037"/><rect y="2406.7" width="2400" height="13" fill="#7c5c30" opacity="0.051"/><rect y="2428.4" width="2400" height="16.6" fill="#7c5c30" opacity="0.035"/><rect y="2456.1" width="2400" height="22.5" fill="#7c5c30" opacity="0.044"/><rect y="2493.6" width="2400" height="18.1" fill="#7c5c30" opacity="0.040"/><rect y="2523.7" width="2400" height="17.6" fill="#7c5c30" opacity="0.057"/><rect y="2553.1" width="2400" height="20.1" fill="#7c5c30" opacity="0.030"/><rect y="2586.6" width="2400" height="18.4" fill="#7c5c30" opacity="0.047"/><rect y="2617.2" width="2400" height="17.8" fill="#7c5c30" opacity="0.036"/><rect y="2646.8" width="2400" height="15.9" fill="#7c5c30" opacity="0.047"/><rect y="2673.3" width="2400" height="22.5" fill="#7c5c30" opacity="0.059"/><rect y="2710.9" width="2400" height="24.1" fill="#7c5c30" opacity="0.060"/><rect y="2751" width="2400" height="16.5" fill="#7c5c30" opacity="0.059"/><rect y="2778.4" width="2400" height="18.1" fill="#7c5c30" opacity="0.021"/><rect y="2808.7" width="2400" height="20.8" fill="#7c5c30" opacity="0.036"/><rect y="2843.3" width="2400" height="13.9" fill="#7c5c30" opacity="0.040"/><rect y="2866.4" width="2400" height="18.8" fill="#7c5c30" opacity="0.057"/><rect y="2897.8" width="2400" height="15.6" fill="#7c5c30" opacity="0.038"/><rect y="2923.9" width="2400" height="22.2" fill="#7c5c30" opacity="0.053"/><rect y="2960.9" width="2400" height="14.1" fill="#7c5c30" opacity="0.030"/><rect y="2984.5" width="2400" height="12" fill="#7c5c30" opacity="0.032"/><g filter="url(#a175-warp)"><rect x="190" y="190" width="2020" height="2620" fill="none" stroke="#2e2a22" stroke-width="14"/><rect x="260" y="260" width="1880" height="2480" fill="none" stroke="#2e2a22" stroke-width="7"/><rect x="148" y="148" width="84" height="84" fill="#2f5575"/><rect x="148" y="2768" width="84" height="84" fill="#2f5575"/><rect x="2168" y="148" width="84" height="84" fill="#2f5575"/><rect x="2168" y="2768" width="84" height="84" fill="#2f5575"/><path d="M1070,2120 L1100,1260 L1300,1260 L1330,2120 Z" fill="#2e2a22"/><rect x="900" y="1200" width="600" height="86" rx="30" fill="#2e2a22"/><line x1="930" y1="1243" x2="1470" y2="1243" stroke="#2f5575" stroke-width="14"/><rect x="934" y="1050" width="532" height="86" rx="30" fill="#2e2a22"/><line x1="964" y1="1093" x2="1436" y2="1093" stroke="#2f5575" stroke-width="14"/><rect x="968" y="900" width="464" height="86" rx="30" fill="#2e2a22"/><line x1="998" y1="943" x2="1402" y2="943" stroke="#2f5575" stroke-width="14"/><rect x="1002" y="750" width="396" height="86" rx="30" fill="#2e2a22"/><line x1="1032" y1="793" x2="1368" y2="793" stroke="#2f5575" stroke-width="14"/><rect x="870" y="2120" width="660" height="90" fill="#2e2a22"/><line x1="1096" y1="1380" x2="1096" y2="2080" stroke="#2f5575" stroke-width="12" opacity="0.7"/><line x1="1148" y1="1380" x2="1148" y2="2080" stroke="#2f5575" stroke-width="12" opacity="0.7"/><line x1="1200" y1="1380" x2="1200" y2="2080" stroke="#2f5575" stroke-width="12" opacity="0.7"/><line x1="1252" y1="1380" x2="1252" y2="2080" stroke="#2f5575" stroke-width="12" opacity="0.7"/><line x1="1304" y1="1380" x2="1304" y2="2080" stroke="#2f5575" stroke-width="12" opacity="0.7"/><polygon points="1911.4,2574.7 1920.2,2597.2 1942.7,2606.1 1920.2,2614.9 1911.4,2637.4 1902.5,2614.9 1880,2606.1 1902.5,2597.2 " fill="#2f5575"/><polygon points="1767.1,360.7 1776.2,383.9 1799.3,393 1776.2,402.2 1767.1,425.3 1757.9,402.2 1734.8,393 1757.9,383.9 " fill="#2f5575"/><polygon points="672.9,471.2 685.3,502.5 716.5,514.8 685.3,527.1 672.9,558.4 660.6,527.1 629.4,514.8 660.6,502.5 " fill="#2f5575"/><polygon points="473,2491.8 484.7,2521.5 514.3,2533.1 484.7,2544.8 473,2574.4 461.3,2544.8 431.7,2533.1 461.3,2521.5 " fill="#2f5575"/><polygon points="677.7,418.3 685.3,437.5 704.5,445.1 685.3,452.6 677.7,471.8 670.2,452.6 651,445.1 670.2,437.5 " fill="#2f5575"/><polygon points="1793.6,2577 1803.1,2601.1 1827.2,2610.6 1803.1,2620.1 1793.6,2644.2 1784.1,2620.1 1760,2610.6 1784.1,2601.1 " fill="#2f5575"/><rect x="120" y="120" width="2160" height="2760" fill="none" stroke="#2e2a22" stroke-width="6" opacity="0.85"/></g><rect width="2400" height="3000" filter="url(#a175-mottle)" style="mix-blend-mode:multiply" opacity="0.5"/><rect width="2400" height="3000" filter="url(#a175-fade)" style="mix-blend-mode:screen" opacity="0.55"/><rect width="2400" height="3000" filter="url(#a175-grain)" style="mix-blend-mode:multiply" opacity="0.32"/><ellipse cx="648.3" cy="2101.5" rx="146.1" ry="142.5" fill="#6b4a22" opacity="0.026" filter="url(#a175-blur9)"/><ellipse cx="760.2" cy="728.1" rx="130.5" ry="120.2" fill="#6b4a22" opacity="0.042" filter="url(#a175-blur9)"/><ellipse cx="1891.1" cy="637.4" rx="298" ry="243.8" fill="#6b4a22" opacity="0.055" filter="url(#a175-blur9)"/><ellipse cx="329.5" cy="1904.2" rx="193.4" ry="168" fill="#6b4a22" opacity="0.062" filter="url(#a175-blur9)"/><rect x="0" width="28.8" height="3000" fill="#fff2d0" opacity="0.032"/><rect x="57.5" width="17.6" height="3000" fill="#fff2d0" opacity="0.044"/><rect x="92.8" width="30.9" height="3000" fill="#fff2d0" opacity="0.031"/><rect x="154.5" width="18.3" height="3000" fill="#fff2d0" opacity="0.040"/><rect x="191.1" width="20.7" height="3000" fill="#fff2d0" opacity="0.023"/><rect x="232.5" width="21" height="3000" fill="#fff2d0" opacity="0.036"/><rect x="274.5" width="16.4" height="3000" fill="#fff2d0" opacity="0.037"/><rect x="307.3" width="18.9" height="3000" fill="#fff2d0" opacity="0.045"/><rect x="345.1" width="35" height="3000" fill="#fff2d0" opacity="0.023"/><rect x="415.1" width="18.7" height="3000" fill="#fff2d0" opacity="0.022"/><rect x="452.4" width="25.3" height="3000" fill="#fff2d0" opacity="0.025"/><rect x="503" width="27.5" height="3000" fill="#fff2d0" opacity="0.043"/><rect x="558" width="34.9" height="3000" fill="#fff2d0" opacity="0.034"/><rect x="627.8" width="31.8" height="3000" fill="#fff2d0" opacity="0.024"/><rect x="691.4" width="25.4" height="3000" fill="#fff2d0" opacity="0.037"/><rect x="742.2" width="17.5" height="3000" fill="#fff2d0" opacity="0.022"/><rect x="777.3" width="26.1" height="3000" fill="#fff2d0" opacity="0.029"/><rect x="829.4" width="22.7" height="3000" fill="#fff2d0" opacity="0.038"/><rect x="874.9" width="28.5" height="3000" fill="#fff2d0" opacity="0.037"/><rect x="931.8" width="26" height="3000" fill="#fff2d0" opacity="0.030"/><rect x="983.9" width="28" height="3000" fill="#fff2d0" opacity="0.019"/><rect x="1039.9" width="20.3" height="3000" fill="#fff2d0" opacity="0.027"/><rect x="1080.6" width="28.1" height="3000" fill="#fff2d0" opacity="0.020"/><rect x="1136.8" width="20.1" height="3000" fill="#fff2d0" opacity="0.044"/><rect x="1177" width="32.3" height="3000" fill="#fff2d0" opacity="0.023"/><rect x="1241.6" width="21.5" height="3000" fill="#fff2d0" opacity="0.024"/><rect x="1284.5" width="26" height="3000" fill="#fff2d0" opacity="0.032"/><rect x="1336.5" width="21.7" height="3000" fill="#fff2d0" opacity="0.036"/><rect x="1379.8" width="24.2" height="3000" fill="#fff2d0" opacity="0.039"/><rect x="1428.2" width="17.5" height="3000" fill="#fff2d0" opacity="0.039"/><rect x="1463.2" width="16.4" height="3000" fill="#fff2d0" opacity="0.042"/><rect x="1495.9" width="21.6" height="3000" fill="#fff2d0" opacity="0.023"/><rect x="1539.1" width="18.7" height="3000" fill="#fff2d0" opacity="0.017"/><rect x="1576.5" width="20.1" height="3000" fill="#fff2d0" opacity="0.037"/><rect x="1616.7" width="18.1" height="3000" fill="#fff2d0" opacity="0.028"/><rect x="1652.8" width="29.1" height="3000" fill="#fff2d0" opacity="0.024"/><rect x="1711" width="32.3" height="3000" fill="#fff2d0" opacity="0.034"/><rect x="1775.6" width="20.6" height="3000" fill="#fff2d0" opacity="0.019"/><rect x="1816.9" width="28.1" height="3000" fill="#fff2d0" opacity="0.034"/><rect x="1873.1" width="25.8" height="3000" fill="#fff2d0" opacity="0.042"/><rect x="1924.8" width="28.4" height="3000" fill="#fff2d0" opacity="0.025"/><rect x="1981.5" width="19.1" height="3000" fill="#fff2d0" opacity="0.035"/><rect x="2019.8" width="25.4" height="3000" fill="#fff2d0" opacity="0.041"/><rect x="2070.6" width="15.7" height="3000" fill="#fff2d0" opacity="0.023"/><rect x="2102.1" width="28.1" height="3000" fill="#fff2d0" opacity="0.033"/><rect x="2158.3" width="22.9" height="3000" fill="#fff2d0" opacity="0.024"/><rect x="2204" width="32.4" height="3000" fill="#fff2d0" opacity="0.031"/><rect x="2268.8" width="32.1" height="3000" fill="#fff2d0" opacity="0.043"/><rect x="2333" width="21.1" height="3000" fill="#fff2d0" opacity="0.035"/><rect x="2375.2" width="21.4" height="3000" fill="#fff2d0" opacity="0.022"/><linearGradient id="a175-er" x1="0" x2="1" y1="0" y2="0"><stop offset="0" stop-color="#3a2a12" stop-opacity="0.22"/><stop offset="1" stop-color="#3a2a12" stop-opacity="0"/></linearGradient><rect x="0" y="0" width="90" height="3000" fill="url(#a175-er)"/><linearGradient id="a175-el" x1="1" x2="0" y1="0" y2="0"><stop offset="0" stop-color="#3a2a12" stop-opacity="0.22"/><stop offset="1" stop-color="#3a2a12" stop-opacity="0"/></linearGradient><rect x="2310" y="0" width="90" height="3000" fill="url(#a175-el)"/><linearGradient id="a175-ed" x1="0" x2="0" y1="0" y2="1"><stop offset="0" stop-color="#3a2a12" stop-opacity="0.22"/><stop offset="1" stop-color="#3a2a12" stop-opacity="0"/></linearGradient><rect x="0" y="0" width="2400" height="90" fill="url(#a175-ed)"/><linearGradient id="a175-eu" x1="0" x2="0" y1="1" y2="0"><stop offset="0" stop-color="#3a2a12" stop-opacity="0.22"/><stop offset="1" stop-color="#3a2a12" stop-opacity="0"/></linearGradient><rect x="0" y="2910" width="2400" height="90" fill="url(#a175-eu)"/><circle cx="1653" cy="377.2" r="14.5" fill="#8a5a2e" opacity="0.123"/><circle cx="1238.7" cy="548.5" r="9.7" fill="#8a5a2e" opacity="0.092"/><circle cx="932.4" cy="1554.9" r="13.6" fill="#8a5a2e" opacity="0.105"/><circle cx="1636.1" cy="2861.5" r="7.8" fill="#8a5a2e" opacity="0.125"/><circle cx="2267" cy="2277.1" r="11" fill="#8a5a2e" opacity="0.061"/><circle cx="81.4" cy="659.8" r="13.8" fill="#8a5a2e" opacity="0.104"/><circle cx="1125" cy="307.3" r="5.8" fill="#8a5a2e" opacity="0.115"/><circle cx="733.7" cy="285.2" r="9.4" fill="#8a5a2e" opacity="0.124"/><circle cx="1435.5" cy="1712.9" r="11.2" fill="#8a5a2e" opacity="0.044"/><circle cx="1617.3" cy="1407.1" r="14.4" fill="#8a5a2e" opacity="0.096"/><circle cx="1386.9" cy="2778.8" r="10.4" fill="#8a5a2e" opacity="0.098"/><circle cx="221.7" cy="976.7" r="5.1" fill="#8a5a2e" opacity="0.123"/><circle cx="1333.3" cy="2087.7" r="3.9" fill="#8a5a2e" opacity="0.057"/><circle cx="1943.3" cy="494.6" r="14.4" fill="#8a5a2e" opacity="0.114"/><rect width="2400" height="3000" fill="url(#a175-vig)"/></svg>