<svg xmlns="http://www.w3.org/2000/svg" width="2400" height="3000" viewBox="0 0 2400 3000"><rect width="2400" height="3000" fill="#3d4a33"/><radialGradient id="a138-vig" cx="50%" cy="42%" r="80%"><stop offset="55%" stop-color="#000" stop-opacity="0"/><stop offset="100%" stop-color="#000" stop-opacity="0.15"/></radialGradient><rect width="2400" height="3000" fill="url(#a138-vig)"/><circle cx="1196.9" cy="484.3" r="1.5" fill="#e6ddc4" opacity="0.061"/><circle cx="2005.5" cy="1160.2" r="2" fill="#e6ddc4" opacity="0.061"/><circle cx="958.7" cy="1842.5" r="3.7" fill="#e6ddc4" opacity="0.060"/><circle cx="1303.6" cy="2196.7" r="4.2" fill="#e6ddc4" opacity="0.066"/><circle cx="1130.2" cy="2240.5" r="3.4" fill="#e6ddc4" opacity="0.036"/><circle cx="1847.2" cy="1482.4" r="2" fill="#e6ddc4" opacity="0.069"/><circle cx="591" cy="1176.4" r="4" fill="#e6ddc4" opacity="0.042"/><circle cx="1288.7" cy="535" r="4.5" fill="#e6ddc4" opacity="0.061"/><circle cx="1167.5" cy="2206.2" r="2" fill="#e6ddc4" opacity="0.058"/><circle cx="1423.7" cy="1915.8" r="2.2" fill="#e6ddc4" opacity="0.061"/><circle cx="168.9" cy="767.1" r="3.2" fill="#e6ddc4" opacity="0.050"/><circle cx="80.2" cy="2761.6" r="4" fill="#e6ddc4" opacity="0.053"/><circle cx="1075.9" cy="2602" r="4.2" fill="#e6ddc4" opacity="0.032"/><circle cx="1435.7" cy="496.7" r="3.9" fill="#e6ddc4" opacity="0.068"/><circle cx="1129.2" cy="2149.3" r="3.4" fill="#e6ddc4" opacity="0.039"/><circle cx="911.4" cy="1492.8" r="4.3" fill="#e6ddc4" opacity="0.069"/><circle cx="116.7" cy="952.6" r="3.3" fill="#e6ddc4" opacity="0.068"/><circle cx="956.1" cy="72.2" r="3.2" fill="#e6ddc4" opacity="0.055"/><circle cx="145.3" cy="537.4" r="2.8" fill="#e6ddc4" opacity="0.045"/><circle cx="2307.8" cy="2326.8" r="4.2" fill="#e6ddc4" opacity="0.068"/><circle cx="435.3" cy="61.1" r="4.5" fill="#e6ddc4" opacity="0.043"/><circle cx="1928.1" cy="2828.8" r="1.5" fill="#e6ddc4" opacity="0.073"/><circle cx="784.6" cy="2709" r="3.9" fill="#e6ddc4" opacity="0.042"/><circle cx="84.6" cy="2340.8" r="1.8" fill="#e6ddc4" opacity="0.064"/><circle cx="1553.6" cy="2502.6" r="4.1" fill="#e6ddc4" opacity="0.071"/><circle cx="894.7" cy="2385.8" r="3.4" fill="#e6ddc4" opacity="0.069"/><circle cx="624.5" cy="1804.3" r="3" fill="#e6ddc4" opacity="0.074"/><circle cx="582.1" cy="2038" r="1.9" fill="#e6ddc4" opacity="0.032"/><circle cx="1672" cy="119.8" r="2" fill="#e6ddc4" opacity="0.059"/><circle cx="569.9" cy="2922.6" r="4.2" fill="#e6ddc4" opacity="0.040"/><circle cx="817.7" cy="2423.4" r="2.4" fill="#e6ddc4" opacity="0.035"/><circle cx="938.3" cy="2720.4" r="3.4" fill="#e6ddc4" opacity="0.032"/><circle cx="110.6" cy="219.6" r="4.1" fill="#e6ddc4" opacity="0.049"/><circle cx="1796.7" cy="2149.2" r="3.6" fill="#e6ddc4" opacity="0.042"/><circle cx="2087.2" cy="1485.8" r="4.3" fill="#e6ddc4" opacity="0.051"/><circle cx="2151.2" cy="800.1" r="3.6" fill="#e6ddc4" opacity="0.037"/><circle cx="1147.8" cy="1975.6" r="2" fill="#e6ddc4" opacity="0.037"/><circle cx="334" cy="1784" r="1.9" fill="#e6ddc4" opacity="0.043"/><circle cx="1071.7" cy="2062.2" r="3.3" fill="#e6ddc4" opacity="0.040"/><circle cx="1765.9" cy="878.3" r="3.5" fill="#e6ddc4" opacity="0.050"/><circle cx="1914.2" cy="2341.1" r="2.2" fill="#e6ddc4" opacity="0.079"/><circle cx="2155.9" cy="562" r="3.3" fill="#e6ddc4" opacity="0.052"/><circle cx="1154.8" cy="2872.2" r="2.1" fill="#e6ddc4" opacity="0.058"/><circle cx="1067.5" cy="681.6" r="2.7" fill="#e6ddc4" opacity="0.072"/><circle cx="2264" cy="2593.1" r="4.1" fill="#e6ddc4" opacity="0.068"/><circle cx="221.5" cy="1430.9" r="3.7" fill="#e6ddc4" opacity="0.073"/><circle cx="725.4" cy="2085.6" r="2.3" fill="#e6ddc4" opacity="0.078"/><circle cx="2043.5" cy="2587.8" r="1.7" fill="#e6ddc4" opacity="0.054"/><circle cx="1518.3" cy="443.8" r="3.9" fill="#e6ddc4" opacity="0.054"/><circle cx="1989.8" cy="2101.3" r="4.1" fill="#e6ddc4" opacity="0.039"/><circle cx="838.8" cy="2226.5" r="3.6" fill="#e6ddc4" opacity="0.044"/><circle cx="1597.9" cy="717.3" r="4" fill="#e6ddc4" opacity="0.047"/><circle cx="1346.4" cy="1641.8" r="2.9" fill="#e6ddc4" opacity="0.070"/><circle cx="1727.6" cy="371.8" r="1.6" fill="#e6ddc4" opacity="0.074"/><circle cx="1702.3" cy="2345.3" r="4.4" fill="#e6ddc4" opacity="0.066"/><circle cx="142.3" cy="1797.5" r="3.9" fill="#e6ddc4" opacity="0.048"/><circle cx="1602.5" cy="2075.1" r="1.6" fill="#e6ddc4" opacity="0.051"/><circle cx="426.7" cy="2806.4" r="1.8" fill="#e6ddc4" opacity="0.031"/><circle cx="347" cy="2486.4" r="3.8" fill="#e6ddc4" opacity="0.060"/><circle cx="2084.5" cy="238" r="3.1" fill="#e6ddc4" opacity="0.060"/><circle cx="2128.8" cy="1420.2" r="3.2" fill="#e6ddc4" opacity="0.033"/><circle cx="1168" cy="746.8" r="1.9" fill="#e6ddc4" opacity="0.076"/><circle cx="1258.6" cy="58.9" r="3" fill="#e6ddc4" opacity="0.077"/><circle cx="1038.2" cy="957.7" r="1.6" fill="#e6ddc4" opacity="0.058"/><circle cx="969.4" cy="613.8" r="1.7" fill="#e6ddc4" opacity="0.040"/><circle cx="90.9" cy="2718.6" r="4.3" fill="#e6ddc4" opacity="0.064"/><circle cx="1013.2" cy="482.8" r="3.6" fill="#e6ddc4" opacity="0.039"/><circle cx="1569.2" cy="2457.8" r="1.6" fill="#e6ddc4" opacity="0.051"/><circle cx="1205.8" cy="2528.2" r="4.5" fill="#e6ddc4" opacity="0.041"/><circle cx="1159.2" cy="770.9" r="3.4" fill="#e6ddc4" opacity="0.063"/><circle cx="1002.7" cy="336" r="3.5" fill="#e6ddc4" opacity="0.037"/><circle cx="157.6" cy="498.7" r="3.6" fill="#e6ddc4" opacity="0.059"/><circle cx="248.1" cy="2011.9" r="1.9" fill="#e6ddc4" opacity="0.068"/><circle cx="510.1" cy="143" r="2" fill="#e6ddc4" opacity="0.047"/><circle cx="1112" cy="2917.2" r="4.3" fill="#e6ddc4" opacity="0.074"/><circle cx="216.1" cy="525.2" r="1.8" fill="#e6ddc4" opacity="0.076"/><circle cx="975.2" cy="1702" r="4" fill="#e6ddc4" opacity="0.050"/><circle cx="288.8" cy="2049.7" r="1.6" fill="#e6ddc4" opacity="0.037"/><circle cx="2111.2" cy="2861.9" r="4.4" fill="#e6ddc4" opacity="0.041"/><circle cx="1606" cy="693.7" r="2" fill="#e6ddc4" opacity="0.044"/><rect x="200" y="170" width="2000" height="14.5" fill="#e6ddc4"/><rect x="200" y="184" width="2000" height="14.5" fill="#bda15a"/><rect x="200" y="198" width="2000" height="14.5" fill="#e6ddc4"/><rect x="200" y="212" width="2000" height="14.5" fill="#57674b"/><rect x="200" y="226" width="2000" height="14.5" fill="#e6ddc4"/><rect x="200" y="2760" width="2000" height="14.5" fill="#e6ddc4"/><rect x="200" y="2774" width="2000" height="14.5" fill="#bda15a"/><rect x="200" y="2788" width="2000" height="14.5" fill="#e6ddc4"/><rect x="200" y="2802" width="2000" height="14.5" fill="#57674b"/><rect x="200" y="2816" width="2000" height="14.5" fill="#e6ddc4"/><circle cx="1200" cy="1030" r="150" fill="#bda15a"/><circle cx="1200" cy="1030" r="196" fill="none" stroke="#bda15a" stroke-width="10"/><line x1="1110" y1="1540" x2="357.4" y2="1481.8" stroke="#e6ddc4" stroke-width="34" stroke-linecap="round"/><line x1="1110" y1="1540" x2="383.2" y2="1417.8" stroke="#e6ddc4" stroke-width="34" stroke-linecap="round"/><line x1="1110" y1="1540" x2="426.9" y2="1356.8" stroke="#e6ddc4" stroke-width="34" stroke-linecap="round"/><line x1="1110" y1="1540" x2="487.4" y2="1300.2" stroke="#e6ddc4" stroke-width="34" stroke-linecap="round"/><line x1="1110" y1="1540" x2="563.3" y2="1249.6" stroke="#e6ddc4" stroke-width="34" stroke-linecap="round"/><line x1="1110" y1="1540" x2="652.6" y2="1206.2" stroke="#e6ddc4" stroke-width="34" stroke-linecap="round"/><line x1="1110" y1="1540" x2="753.2" y2="1170.9" stroke="#e6ddc4" stroke-width="34" stroke-linecap="round"/><line x1="1110" y1="1540" x2="862.6" y2="1144.8" stroke="#e6ddc4" stroke-width="34" stroke-linecap="round"/><line x1="1110" y1="1540" x2="978" y2="1128.4" stroke="#e6ddc4" stroke-width="34" stroke-linecap="round"/><line x1="1110" y1="1540" x2="515.8" y2="1494.1" stroke="#bda15a" stroke-width="30" stroke-linecap="round"/><line x1="1110" y1="1540" x2="536.2" y2="1443.5" stroke="#bda15a" stroke-width="30" stroke-linecap="round"/><line x1="1110" y1="1540" x2="570.7" y2="1395.3" stroke="#bda15a" stroke-width="30" stroke-linecap="round"/><line x1="1110" y1="1540" x2="618.5" y2="1350.7" stroke="#bda15a" stroke-width="30" stroke-linecap="round"/><line x1="1110" y1="1540" x2="678.4" y2="1310.8" stroke="#bda15a" stroke-width="30" stroke-linecap="round"/><line x1="1110" y1="1540" x2="748.9" y2="1276.5" stroke="#bda15a" stroke-width="30" stroke-linecap="round"/><line x1="1110" y1="1540" x2="828.3" y2="1248.6" stroke="#bda15a" stroke-width="30" stroke-linecap="round"/><line x1="1110" y1="1540" x2="914.7" y2="1228" stroke="#bda15a" stroke-width="30" stroke-linecap="round"/><line x1="1110" y1="1540" x2="1005.8" y2="1215" stroke="#bda15a" stroke-width="30" stroke-linecap="round"/><line x1="1110" y1="1540" x2="664.4" y2="1505.6" stroke="#e6ddc4" stroke-width="26" stroke-linecap="round"/><line x1="1110" y1="1540" x2="679.7" y2="1467.6" stroke="#e6ddc4" stroke-width="26" stroke-linecap="round"/><line x1="1110" y1="1540" x2="705.5" y2="1431.5" stroke="#e6ddc4" stroke-width="26" stroke-linecap="round"/><line x1="1110" y1="1540" x2="741.4" y2="1398" stroke="#e6ddc4" stroke-width="26" stroke-linecap="round"/><line x1="1110" y1="1540" x2="786.3" y2="1368.1" stroke="#e6ddc4" stroke-width="26" stroke-linecap="round"/><line x1="1110" y1="1540" x2="839.2" y2="1342.3" stroke="#e6ddc4" stroke-width="26" stroke-linecap="round"/><line x1="1110" y1="1540" x2="898.7" y2="1321.5" stroke="#e6ddc4" stroke-width="26" stroke-linecap="round"/><line x1="1110" y1="1540" x2="963.5" y2="1306" stroke="#e6ddc4" stroke-width="26" stroke-linecap="round"/><line x1="1110" y1="1540" x2="1031.9" y2="1296.3" stroke="#e6ddc4" stroke-width="26" stroke-linecap="round"/><line x1="1290" y1="1540" x2="2042.6" y2="1481.8" stroke="#e6ddc4" stroke-width="34" stroke-linecap="round"/><line x1="1290" y1="1540" x2="2016.8" y2="1417.8" stroke="#e6ddc4" stroke-width="34" stroke-linecap="round"/><line x1="1290" y1="1540" x2="1973.1" y2="1356.8" stroke="#e6ddc4" stroke-width="34" stroke-linecap="round"/><line x1="1290" y1="1540" x2="1912.6" y2="1300.2" stroke="#e6ddc4" stroke-width="34" stroke-linecap="round"/><line x1="1290" y1="1540" x2="1836.7" y2="1249.6" stroke="#e6ddc4" stroke-width="34" stroke-linecap="round"/><line x1="1290" y1="1540" x2="1747.4" y2="1206.2" stroke="#e6ddc4" stroke-width="34" stroke-linecap="round"/><line x1="1290" y1="1540" x2="1646.8" y2="1170.9" stroke="#e6ddc4" stroke-width="34" stroke-linecap="round"/><line x1="1290" y1="1540" x2="1537.4" y2="1144.8" stroke="#e6ddc4" stroke-width="34" stroke-linecap="round"/><line x1="1290" y1="1540" x2="1422" y2="1128.4" stroke="#e6ddc4" stroke-width="34" stroke-linecap="round"/><line x1="1290" y1="1540" x2="1884.2" y2="1494.1" stroke="#bda15a" stroke-width="30" stroke-linecap="round"/><line x1="1290" y1="1540" x2="1863.8" y2="1443.5" stroke="#bda15a" stroke-width="30" stroke-linecap="round"/><line x1="1290" y1="1540" x2="1829.3" y2="1395.3" stroke="#bda15a" stroke-width="30" stroke-linecap="round"/><line x1="1290" y1="1540" x2="1781.5" y2="1350.7" stroke="#bda15a" stroke-width="30" stroke-linecap="round"/><line x1="1290" y1="1540" x2="1721.6" y2="1310.8" stroke="#bda15a" stroke-width="30" stroke-linecap="round"/><line x1="1290" y1="1540" x2="1651.1" y2="1276.5" stroke="#bda15a" stroke-width="30" stroke-linecap="round"/><line x1="1290" y1="1540" x2="1571.7" y2="1248.6" stroke="#bda15a" stroke-width="30" stroke-linecap="round"/><line x1="1290" y1="1540" x2="1485.3" y2="1228" stroke="#bda15a" stroke-width="30" stroke-linecap="round"/><line x1="1290" y1="1540" x2="1394.2" y2="1215" stroke="#bda15a" stroke-width="30" stroke-linecap="round"/><line x1="1290" y1="1540" x2="1735.6" y2="1505.6" stroke="#e6ddc4" stroke-width="26" stroke-linecap="round"/><line x1="1290" y1="1540" x2="1720.3" y2="1467.6" stroke="#e6ddc4" stroke-width="26" stroke-linecap="round"/><line x1="1290" y1="1540" x2="1694.5" y2="1431.5" stroke="#e6ddc4" stroke-width="26" stroke-linecap="round"/><line x1="1290" y1="1540" x2="1658.6" y2="1398" stroke="#e6ddc4" stroke-width="26" stroke-linecap="round"/><line x1="1290" y1="1540" x2="1613.7" y2="1368.1" stroke="#e6ddc4" stroke-width="26" stroke-linecap="round"/><line x1="1290" y1="1540" x2="1560.8" y2="1342.3" stroke="#e6ddc4" stroke-width="26" stroke-linecap="round"/><line x1="1290" y1="1540" x2="1501.3" y2="1321.5" stroke="#e6ddc4" stroke-width="26" stroke-linecap="round"/><line x1="1290" y1="1540" x2="1436.5" y2="1306" stroke="#e6ddc4" stroke-width="26" stroke-linecap="round"/><line x1="1290" y1="1540" x2="1368.1" y2="1296.3" stroke="#e6ddc4" stroke-width="26" stroke-linecap="round"/><path d="M1080,1500 q -150,-60 -210,-150" fill="none" stroke="#e6ddc4" stroke-width="26" stroke-linecap="round"/><path d="M1035,1660 q -190,20 -260,-40" fill="none" stroke="#e6ddc4" stroke-width="26" stroke-linecap="round"/><path d="M1070,1810 q -150,90 -230,80" fill="none" stroke="#e6ddc4" stroke-width="26" stroke-linecap="round"/><path d="M1320,1500 q 150,-60 210,-150" fill="none" stroke="#e6ddc4" stroke-width="26" stroke-linecap="round"/><path d="M1365,1660 q 190,20 260,-40" fill="none" stroke="#e6ddc4" stroke-width="26" stroke-linecap="round"/><path d="M1330,1810 q 150,90 230,80" fill="none" stroke="#e6ddc4" stroke-width="26" stroke-linecap="round"/><ellipse cx="1200" cy="1660" rx="180" ry="240" fill="#e6ddc4"/><line x1="1200" y1="1540" x2="1200" y2="1896" stroke="#3d4a33" stroke-width="9" opacity="0.7"/><path d="M1028,1552 Q 1200,1630 1372,1552" fill="none" stroke="#3d4a33" stroke-width="9" opacity="0.7"/><path d="M1080,1450 A 130,130 0 0 1 1320,1450 L1278,1495 L1122,1495 Z" fill="#e6ddc4"/><line x1="1112" y1="1392" x2="1084" y2="1338" stroke="#e6ddc4" stroke-width="16" stroke-linecap="round"/><line x1="1156" y1="1392" x2="1142" y2="1338" stroke="#e6ddc4" stroke-width="16" stroke-linecap="round"/><line x1="1200" y1="1392" x2="1200" y2="1338" stroke="#e6ddc4" stroke-width="16" stroke-linecap="round"/><line x1="1244" y1="1392" x2="1258" y2="1338" stroke="#e6ddc4" stroke-width="16" stroke-linecap="round"/><line x1="1288" y1="1392" x2="1316" y2="1338" stroke="#e6ddc4" stroke-width="16" stroke-linecap="round"/><path d="M780,1990 Q 1200,2160 1620,1990 L1560,1990 Q 1200,2090 840,1990 Z" fill="#bda15a"/><rect x="100" y="100" width="2200" height="2800" fill="none" stroke="#e6ddc4" stroke-width="9"/><rect x="142" y="142" width="2116" height="2716" fill="none" stroke="#e6ddc4" stroke-width="3" opacity="0.65"/></svg>