<svg xmlns="http://www.w3.org/2000/svg" width="2400" height="3000" viewBox="0 0 2400 3000"><filter id="a117-warp" x="-4%" y="-4%" width="108%" height="108%"><feTurbulence type="fractalNoise" baseFrequency="0.0105" numOctaves="2" seed="4723" result="w"/><feDisplacementMap in="SourceGraphic" in2="w" scale="7" xChannelSelector="R" yChannelSelector="G"/></filter><filter id="a117-grain" x="0%" y="0%" width="100%" height="100%"><feTurbulence type="fractalNoise" baseFrequency="0.6" numOctaves="2" seed="4730"/><feColorMatrix type="matrix" values="0.33 0.33 0.33 0 0.62  0.33 0.33 0.33 0 0.62  0.33 0.33 0.33 0 0.62  0 0 0 0 1"/></filter><filter id="a117-mottle" x="0%" y="0%" width="100%" height="100%"><feTurbulence type="fractalNoise" baseFrequency="0.0045" numOctaves="3" seed="4736"/><feColorMatrix type="matrix" values="0.2 0.2 0.2 0 0.78  0.2 0.2 0.2 0 0.78  0.2 0.2 0.2 0 0.78  0 0 0 0 1"/></filter><filter id="a117-fade" x="0%" y="0%" width="100%" height="100%"><feTurbulence type="fractalNoise" baseFrequency="0.006" numOctaves="2" seed="4752"/><feColorMatrix type="matrix" values="0.3 0.3 0.3 0 -0.08  0.3 0.3 0.3 0 -0.08  0.3 0.3 0.3 0 -0.1  0 0 0 0 1"/></filter><filter id="a117-blur9"><feGaussianBlur stdDeviation="9"/></filter><radialGradient id="a117-vig" cx="50%" cy="44%" r="78%"><stop offset="52%" stop-color="#241a10" stop-opacity="0"/><stop offset="100%" stop-color="#241a10" stop-opacity="0.17"/></radialGradient><radialGradient id="a117-warm" cx="33%" cy="30%" r="85%"><stop offset="0%" stop-color="#e8c890" stop-opacity="0.14"/><stop offset="70%" stop-color="#e8c890" stop-opacity="0"/></radialGradient><rect width="2400" height="3000" fill="#ece2cb"/><rect width="2400" height="3000" fill="url(#a117-warm)"/><g filter="url(#a117-warp)"><circle cx="1200" cy="1400" r="1010" fill="none" stroke="#453521" stroke-width="10"/><circle cx="1200" cy="1400" r="964" fill="none" stroke="#453521" stroke-width="4" opacity="0.7"/><line x1="2170" y1="1400" x2="2210" y2="1400" stroke="#453521" stroke-width="10"/><line x1="2182.2" y1="1485.9" x2="2206.2" y2="1488" stroke="#453521" stroke-width="5"/><line x1="2171" y1="1571.2" x2="2194.7" y2="1575.4" stroke="#453521" stroke-width="5"/><line x1="2152.4" y1="1655.2" x2="2175.6" y2="1661.4" stroke="#453521" stroke-width="5"/><line x1="2126.5" y1="1737.2" x2="2149.1" y2="1745.4" stroke="#453521" stroke-width="5"/><line x1="2093.6" y1="1816.7" x2="2115.4" y2="1826.8" stroke="#453521" stroke-width="5"/><line x1="2040" y1="1885" x2="2074.7" y2="1905" stroke="#453521" stroke-width="10"/><line x1="2007.7" y1="1965.5" x2="2027.3" y2="1979.3" stroke="#453521" stroke-width="5"/><line x1="1955.3" y1="2033.8" x2="1973.7" y2="2049.2" stroke="#453521" stroke-width="5"/><line x1="1897.2" y1="2097.2" x2="1914.2" y2="2114.2" stroke="#453521" stroke-width="5"/><line x1="1833.8" y1="2155.3" x2="1849.2" y2="2173.7" stroke="#453521" stroke-width="5"/><line x1="1765.5" y1="2207.7" x2="1779.3" y2="2227.3" stroke="#453521" stroke-width="5"/><line x1="1685" y1="2240" x2="1705" y2="2274.7" stroke="#453521" stroke-width="10"/><line x1="1616.7" y1="2293.6" x2="1626.8" y2="2315.4" stroke="#453521" stroke-width="5"/><line x1="1537.2" y1="2326.5" x2="1545.4" y2="2349.1" stroke="#453521" stroke-width="5"/><line x1="1455.2" y1="2352.4" x2="1461.4" y2="2375.6" stroke="#453521" stroke-width="5"/><line x1="1371.2" y1="2371" x2="1375.4" y2="2394.7" stroke="#453521" stroke-width="5"/><line x1="1285.9" y1="2382.2" x2="1288" y2="2406.2" stroke="#453521" stroke-width="5"/><line x1="1200" y1="2370" x2="1200" y2="2410" stroke="#453521" stroke-width="10"/><line x1="1114.1" y1="2382.2" x2="1112" y2="2406.2" stroke="#453521" stroke-width="5"/><line x1="1028.8" y1="2371" x2="1024.6" y2="2394.7" stroke="#453521" stroke-width="5"/><line x1="944.8" y1="2352.4" x2="938.6" y2="2375.6" stroke="#453521" stroke-width="5"/><line x1="862.8" y1="2326.5" x2="854.6" y2="2349.1" stroke="#453521" stroke-width="5"/><line x1="783.3" y1="2293.6" x2="773.2" y2="2315.4" stroke="#453521" stroke-width="5"/><line x1="715" y1="2240" x2="695" y2="2274.7" stroke="#453521" stroke-width="10"/><line x1="634.5" y1="2207.7" x2="620.7" y2="2227.3" stroke="#453521" stroke-width="5"/><line x1="566.2" y1="2155.3" x2="550.8" y2="2173.7" stroke="#453521" stroke-width="5"/><line x1="502.8" y1="2097.2" x2="485.8" y2="2114.2" stroke="#453521" stroke-width="5"/><line x1="444.7" y1="2033.8" x2="426.3" y2="2049.2" stroke="#453521" stroke-width="5"/><line x1="392.3" y1="1965.5" x2="372.7" y2="1979.3" stroke="#453521" stroke-width="5"/><line x1="360" y1="1885" x2="325.3" y2="1905" stroke="#453521" stroke-width="10"/><line x1="306.4" y1="1816.7" x2="284.6" y2="1826.8" stroke="#453521" stroke-width="5"/><line x1="273.5" y1="1737.2" x2="250.9" y2="1745.4" stroke="#453521" stroke-width="5"/><line x1="247.6" y1="1655.2" x2="224.4" y2="1661.4" stroke="#453521" stroke-width="5"/><line x1="229" y1="1571.2" x2="205.3" y2="1575.4" stroke="#453521" stroke-width="5"/><line x1="217.8" y1="1485.9" x2="193.8" y2="1488" stroke="#453521" stroke-width="5"/><line x1="230" y1="1400" x2="190" y2="1400" stroke="#453521" stroke-width="10"/><line x1="217.8" y1="1314.1" x2="193.8" y2="1312" stroke="#453521" stroke-width="5"/><line x1="229" y1="1228.8" x2="205.3" y2="1224.6" stroke="#453521" stroke-width="5"/><line x1="247.6" y1="1144.8" x2="224.4" y2="1138.6" stroke="#453521" stroke-width="5"/><line x1="273.5" y1="1062.8" x2="250.9" y2="1054.6" stroke="#453521" stroke-width="5"/><line x1="306.4" y1="983.3" x2="284.6" y2="973.2" stroke="#453521" stroke-width="5"/><line x1="360" y1="915" x2="325.3" y2="895" stroke="#453521" stroke-width="10"/><line x1="392.3" y1="834.5" x2="372.7" y2="820.7" stroke="#453521" stroke-width="5"/><line x1="444.7" y1="766.2" x2="426.3" y2="750.8" stroke="#453521" stroke-width="5"/><line x1="502.8" y1="702.8" x2="485.8" y2="685.8" stroke="#453521" stroke-width="5"/><line x1="566.2" y1="644.7" x2="550.8" y2="626.3" stroke="#453521" stroke-width="5"/><line x1="634.5" y1="592.3" x2="620.7" y2="572.7" stroke="#453521" stroke-width="5"/><line x1="715" y1="560" x2="695" y2="525.3" stroke="#453521" stroke-width="10"/><line x1="783.3" y1="506.4" x2="773.2" y2="484.6" stroke="#453521" stroke-width="5"/><line x1="862.8" y1="473.5" x2="854.6" y2="450.9" stroke="#453521" stroke-width="5"/><line x1="944.8" y1="447.6" x2="938.6" y2="424.4" stroke="#453521" stroke-width="5"/><line x1="1028.8" y1="429" x2="1024.6" y2="405.3" stroke="#453521" stroke-width="5"/><line x1="1114.1" y1="417.8" x2="1112" y2="393.8" stroke="#453521" stroke-width="5"/><line x1="1200" y1="430" x2="1200" y2="390" stroke="#453521" stroke-width="10"/><line x1="1285.9" y1="417.8" x2="1288" y2="393.8" stroke="#453521" stroke-width="5"/><line x1="1371.2" y1="429" x2="1375.4" y2="405.3" stroke="#453521" stroke-width="5"/><line x1="1455.2" y1="447.6" x2="1461.4" y2="424.4" stroke="#453521" stroke-width="5"/><line x1="1537.2" y1="473.5" x2="1545.4" y2="450.9" stroke="#453521" stroke-width="5"/><line x1="1616.7" y1="506.4" x2="1626.8" y2="484.6" stroke="#453521" stroke-width="5"/><line x1="1685" y1="560" x2="1705" y2="525.3" stroke="#453521" stroke-width="10"/><line x1="1765.5" y1="592.3" x2="1779.3" y2="572.7" stroke="#453521" stroke-width="5"/><line x1="1833.8" y1="644.7" x2="1849.2" y2="626.3" stroke="#453521" stroke-width="5"/><line x1="1897.2" y1="702.8" x2="1914.2" y2="685.8" stroke="#453521" stroke-width="5"/><line x1="1955.3" y1="766.2" x2="1973.7" y2="750.8" stroke="#453521" stroke-width="5"/><line x1="2007.7" y1="834.5" x2="2027.3" y2="820.7" stroke="#453521" stroke-width="5"/><line x1="2040" y1="915" x2="2074.7" y2="895" stroke="#453521" stroke-width="10"/><line x1="2093.6" y1="983.3" x2="2115.4" y2="973.2" stroke="#453521" stroke-width="5"/><line x1="2126.5" y1="1062.8" x2="2149.1" y2="1054.6" stroke="#453521" stroke-width="5"/><line x1="2152.4" y1="1144.8" x2="2175.6" y2="1138.6" stroke="#453521" stroke-width="5"/><line x1="2171" y1="1228.8" x2="2194.7" y2="1224.6" stroke="#453521" stroke-width="5"/><line x1="2182.2" y1="1314.1" x2="2206.2" y2="1312" stroke="#453521" stroke-width="5"/><circle cx="1200" cy="1400" r="280" fill="none" stroke="#453521" stroke-width="3" opacity="0.28" stroke-dasharray="3 26"/><circle cx="1200" cy="1400" r="530" fill="none" stroke="#453521" stroke-width="3" opacity="0.28" stroke-dasharray="3 26"/><circle cx="1200" cy="1400" r="780" fill="none" stroke="#453521" stroke-width="3" opacity="0.28" stroke-dasharray="3 26"/><circle cx="824.3" cy="1272.4" r="5" fill="#453521" opacity="0.84"/><circle cx="950.4" cy="1663.4" r="7.2" fill="#453521" opacity="0.88"/><circle cx="723.3" cy="799.8" r="3.3" fill="#453521" opacity="0.46"/><circle cx="1545.3" cy="858.6" r="7.1" fill="#453521" opacity="0.70"/><circle cx="476.9" cy="1220.9" r="6.2" fill="#453521" opacity="0.89"/><circle cx="1056.9" cy="1917.4" r="4.1" fill="#453521" opacity="0.79"/><circle cx="1220.4" cy="2032.8" r="5.3" fill="#453521" opacity="0.89"/><circle cx="1717.4" cy="2133.9" r="3.4" fill="#453521" opacity="0.52"/><circle cx="1439.3" cy="884.8" r="3.6" fill="#453521" opacity="0.77"/><circle cx="1277.8" cy="551.7" r="6" fill="#453521" opacity="0.97"/><circle cx="1874.9" cy="1148.8" r="6.2" fill="#453521" opacity="0.86"/><circle cx="1371.4" cy="1469.1" r="3.8" fill="#453521" opacity="0.98"/><circle cx="1786" cy="932.5" r="7.9" fill="#453521" opacity="0.81"/><circle cx="552" cy="1532.8" r="7.4" fill="#453521" opacity="0.71"/><circle cx="1328.9" cy="708.3" r="6.9" fill="#453521" opacity="0.55"/><circle cx="1045.7" cy="1249.1" r="7.1" fill="#453521" opacity="0.74"/><circle cx="1582.5" cy="790.9" r="5.1" fill="#453521" opacity="0.81"/><circle cx="1599.8" cy="1414.8" r="4.8" fill="#453521" opacity="0.69"/><circle cx="1700" cy="1745" r="5.8" fill="#453521" opacity="0.94"/><circle cx="1991.9" cy="1335.7" r="7.1" fill="#453521" opacity="0.74"/><circle cx="1062.4" cy="1239.8" r="3.7" fill="#453521" opacity="0.87"/><circle cx="1677.8" cy="994.1" r="6.1" fill="#453521" opacity="0.63"/><circle cx="1179.6" cy="2167" r="5.6" fill="#453521" opacity="0.89"/><circle cx="1822.4" cy="1677.6" r="5.1" fill="#453521" opacity="0.55"/><circle cx="1418.6" cy="661" r="4.3" fill="#453521" opacity="0.77"/><circle cx="614.8" cy="2021.6" r="3.1" fill="#453521" opacity="0.64"/><circle cx="1391.5" cy="876" r="7.4" fill="#453521" opacity="0.51"/><circle cx="1476.9" cy="2221.7" r="6.6" fill="#453521" opacity="0.95"/><circle cx="895.4" cy="1694.1" r="8" fill="#453521" opacity="0.51"/><circle cx="1742.5" cy="1920.1" r="3.8" fill="#453521" opacity="0.51"/><circle cx="1387.9" cy="1325.6" r="5" fill="#453521" opacity="0.63"/><circle cx="1842" cy="1765.7" r="5.6" fill="#453521" opacity="0.65"/><circle cx="581.2" cy="1420.1" r="6.2" fill="#453521" opacity="0.46"/><circle cx="1817.6" cy="2012.4" r="4.5" fill="#453521" opacity="0.94"/><circle cx="708.7" cy="919.5" r="7.7" fill="#453521" opacity="0.51"/><circle cx="1305.1" cy="1552" r="4.6" fill="#453521" opacity="0.70"/><circle cx="1012.3" cy="1800.4" r="3.2" fill="#453521" opacity="0.71"/><circle cx="1748.5" cy="1082.2" r="5" fill="#453521" opacity="0.51"/><circle cx="704.8" cy="2053.9" r="7.3" fill="#453521" opacity="0.58"/><circle cx="1599.6" cy="1263.8" r="7.1" fill="#453521" opacity="0.79"/><circle cx="1387.5" cy="1590" r="4.2" fill="#453521" opacity="0.59"/><circle cx="1643.5" cy="1224.8" r="3.3" fill="#453521" opacity="0.60"/><circle cx="1609" cy="1157" r="7.8" fill="#453521" opacity="0.79"/><circle cx="1561.9" cy="978" r="6.1" fill="#453521" opacity="0.60"/><circle cx="659.4" cy="1067" r="4.1" fill="#453521" opacity="0.56"/><circle cx="1948.6" cy="1670.2" r="5.6" fill="#453521" opacity="0.48"/><circle cx="1849.6" cy="1149.5" r="4.7" fill="#453521" opacity="0.98"/><circle cx="1115.2" cy="1546.9" r="7.3" fill="#453521" opacity="0.62"/><circle cx="718.4" cy="2109.9" r="7.3" fill="#453521" opacity="0.68"/><circle cx="1325.3" cy="918.4" r="6" fill="#453521" opacity="0.84"/><circle cx="1095.9" cy="943.3" r="3.3" fill="#453521" opacity="0.93"/><circle cx="1441.8" cy="678.3" r="5.8" fill="#453521" opacity="0.74"/><circle cx="1804.7" cy="1958.9" r="6" fill="#453521" opacity="0.84"/><circle cx="1137" cy="1632.3" r="4.9" fill="#453521" opacity="0.59"/><circle cx="1614.2" cy="1245.3" r="6.5" fill="#453521" opacity="0.68"/><circle cx="1406.4" cy="583" r="7.4" fill="#453521" opacity="0.92"/><circle cx="1639.3" cy="1273.9" r="4.8" fill="#453521" opacity="0.71"/><circle cx="1423" cy="864.5" r="5.9" fill="#453521" opacity="0.97"/><circle cx="1311.4" cy="1376.5" r="5.1" fill="#453521" opacity="0.57"/><circle cx="1535.4" cy="1379.1" r="7.1" fill="#453521" opacity="0.99"/><circle cx="421.8" cy="1190.1" r="6.8" fill="#453521" opacity="0.74"/><circle cx="590.5" cy="2001" r="7.6" fill="#453521" opacity="0.68"/><circle cx="1231.5" cy="993.4" r="3.6" fill="#453521" opacity="0.50"/><circle cx="833" cy="1316" r="4.1" fill="#453521" opacity="0.67"/><circle cx="1985.8" cy="1199.1" r="3.9" fill="#453521" opacity="0.64"/><circle cx="1728.7" cy="1750.1" r="5.1" fill="#453521" opacity="0.88"/><path d="M823.6,839 Q878.7,829 933.8,839 Q878.7,848.9 823.6,839 Z M878.7,783.8 Q888.6,839 878.7,894.1 Q868.8,839 878.7,783.8 Z" fill="#453521"/><path d="M1488.7,854.1 Q1542.9,844.4 1597,854.1 Q1542.9,863.9 1488.7,854.1 Z M1542.9,800 Q1552.6,854.1 1542.9,908.3 Q1533.1,854.1 1542.9,800 Z" fill="#453521"/><path d="M1217.3,707.4 Q1268.8,698.1 1320.3,707.4 Q1268.8,716.7 1217.3,707.4 Z M1268.8,655.9 Q1278.1,707.4 1268.8,758.9 Q1259.6,707.4 1268.8,655.9 Z" fill="#453521"/><path d="M617.8,884.3 Q663.8,876 709.8,884.3 Q663.8,892.5 617.8,884.3 Z M663.8,838.2 Q672.1,884.3 663.8,930.3 Q655.5,884.3 663.8,838.2 Z" fill="#453521"/><path d="M1022.8,964.6 Q1066.6,956.8 1110.3,964.6 Q1066.6,972.5 1022.8,964.6 Z M1066.6,920.9 Q1074.4,964.6 1066.6,1008.4 Q1058.7,964.6 1066.6,920.9 Z" fill="#453521"/><path d="M1856.4,1553.6 Q1899,1545.9 1941.5,1553.6 Q1899,1561.2 1856.4,1553.6 Z M1899,1511 Q1906.6,1553.6 1899,1596.1 Q1891.3,1553.6 1899,1511 Z" fill="#453521"/><polyline points="1650.7,1127.1 1849.9,1191.3 1707.4,1189.9 1568.9,1145.2 1586.9,1340.9 1537.3,1441.2 " fill="none" stroke="#453521" stroke-width="4" opacity="0.55"/><circle cx="1650.7" cy="1127.1" r="12" fill="#453521"/><circle cx="1849.9" cy="1191.3" r="11.9" fill="#453521"/><circle cx="1707.4" cy="1189.9" r="9" fill="#453521"/><circle cx="1568.9" cy="1145.2" r="8" fill="#453521"/><circle cx="1586.9" cy="1340.9" r="8.8" fill="#453521"/><circle cx="1537.3" cy="1441.2" r="11.5" fill="#453521"/><polyline points="1039.2,1536.9 898.2,1402.9 871.7,1265.1 697.9,1440.3 667,1485.3 " fill="none" stroke="#453521" stroke-width="4" opacity="0.55"/><circle cx="1039.2" cy="1536.9" r="12" fill="#453521"/><circle cx="898.2" cy="1402.9" r="12.5" fill="#453521"/><circle cx="871.7" cy="1265.1" r="12.6" fill="#453521"/><circle cx="697.9" cy="1440.3" r="13.6" fill="#453521"/><circle cx="667" cy="1485.3" r="12.1" fill="#453521"/><polyline points="725.4,1159.8 552.9,1000.6 530.5,1034 707.2,1162.7 575.6,1200 " fill="none" stroke="#453521" stroke-width="4" opacity="0.55"/><circle cx="725.4" cy="1159.8" r="12" fill="#453521"/><circle cx="552.9" cy="1000.6" r="12" fill="#453521"/><circle cx="530.5" cy="1034" r="12.9" fill="#453521"/><circle cx="707.2" cy="1162.7" r="11.9" fill="#453521"/><circle cx="575.6" cy="1200" r="13.3" fill="#453521"/><circle cx="1430.2" cy="1997.2" r="88" fill="#453521"/><circle cx="1467.2" cy="1981.3" r="77.4" fill="#ece2cb"/><path d="M370.1,2819.9 L 433.9,2819.9 L 433.9,2756.1 L 383.8,2756.1 L 383.8,2795.6 L 409.6,2795.6 L 409.6,2775.8 M446.1,2819.9 L 509.9,2819.9 L 509.9,2756.1 L 459.8,2756.1 L 459.8,2795.6 L 485.6,2795.6 L 485.6,2775.8 M522.1,2819.9 L 585.9,2819.9 L 585.9,2756.1 L 535.8,2756.1 L 535.8,2795.6 L 561.6,2795.6 L 561.6,2775.8 M598.1,2819.9 L 661.9,2819.9 L 661.9,2756.1 L 611.8,2756.1 L 611.8,2795.6 L 637.6,2795.6 L 637.6,2775.8 M674.1,2819.9 L 737.9,2819.9 L 737.9,2756.1 L 687.8,2756.1 L 687.8,2795.6 L 713.6,2795.6 L 713.6,2775.8 M750.1,2819.9 L 813.9,2819.9 L 813.9,2756.1 L 763.8,2756.1 L 763.8,2795.6 L 789.6,2795.6 L 789.6,2775.8 M826.1,2819.9 L 889.9,2819.9 L 889.9,2756.1 L 839.8,2756.1 L 839.8,2795.6 L 865.6,2795.6 L 865.6,2775.8 M902.1,2819.9 L 965.9,2819.9 L 965.9,2756.1 L 915.8,2756.1 L 915.8,2795.6 L 941.6,2795.6 L 941.6,2775.8 M978.1,2819.9 L 1041.9,2819.9 L 1041.9,2756.1 L 991.8,2756.1 L 991.8,2795.6 L 1017.6,2795.6 L 1017.6,2775.8 M1054.1,2819.9 L 1117.9,2819.9 L 1117.9,2756.1 L 1067.8,2756.1 L 1067.8,2795.6 L 1093.6,2795.6 L 1093.6,2775.8 M1130.1,2819.9 L 1193.9,2819.9 L 1193.9,2756.1 L 1143.8,2756.1 L 1143.8,2795.6 L 1169.6,2795.6 L 1169.6,2775.8 M1206.1,2819.9 L 1269.9,2819.9 L 1269.9,2756.1 L 1219.8,2756.1 L 1219.8,2795.6 L 1245.6,2795.6 L 1245.6,2775.8 M1282.1,2819.9 L 1345.9,2819.9 L 1345.9,2756.1 L 1295.8,2756.1 L 1295.8,2795.6 L 1321.6,2795.6 L 1321.6,2775.8 M1358.1,2819.9 L 1421.9,2819.9 L 1421.9,2756.1 L 1371.8,2756.1 L 1371.8,2795.6 L 1397.6,2795.6 L 1397.6,2775.8 M1434.1,2819.9 L 1497.9,2819.9 L 1497.9,2756.1 L 1447.8,2756.1 L 1447.8,2795.6 L 1473.6,2795.6 L 1473.6,2775.8 M1510.1,2819.9 L 1573.9,2819.9 L 1573.9,2756.1 L 1523.8,2756.1 L 1523.8,2795.6 L 1549.6,2795.6 L 1549.6,2775.8 M1586.1,2819.9 L 1649.9,2819.9 L 1649.9,2756.1 L 1599.8,2756.1 L 1599.8,2795.6 L 1625.6,2795.6 L 1625.6,2775.8 M1662.1,2819.9 L 1725.9,2819.9 L 1725.9,2756.1 L 1675.8,2756.1 L 1675.8,2795.6 L 1701.6,2795.6 L 1701.6,2775.8 M1738.1,2819.9 L 1801.9,2819.9 L 1801.9,2756.1 L 1751.8,2756.1 L 1751.8,2795.6 L 1777.6,2795.6 L 1777.6,2775.8 M1814.1,2819.9 L 1877.9,2819.9 L 1877.9,2756.1 L 1827.8,2756.1 L 1827.8,2795.6 L 1853.6,2795.6 L 1853.6,2775.8 M1890.1,2819.9 L 1953.9,2819.9 L 1953.9,2756.1 L 1903.8,2756.1 L 1903.8,2795.6 L 1929.6,2795.6 L 1929.6,2775.8 M1966.1,2819.9 L 2029.9,2819.9 L 2029.9,2756.1 L 1979.8,2756.1 L 1979.8,2795.6 L 2005.6,2795.6 L 2005.6,2775.8 " fill="none" stroke="#453521" stroke-width="9.9"/><rect x="130" y="130" width="2140" height="2740" fill="none" stroke="#453521" stroke-width="5"/><rect x="152" y="152" width="2096" height="2696" fill="none" stroke="#453521" stroke-width="2.5" opacity="0.8"/></g><rect width="2400" height="3000" filter="url(#a117-mottle)" style="mix-blend-mode:multiply" opacity="0.5"/><rect width="2400" height="3000" filter="url(#a117-fade)" style="mix-blend-mode:screen" opacity="0.55"/><rect width="2400" height="3000" filter="url(#a117-grain)" style="mix-blend-mode:multiply" opacity="0.32"/><ellipse cx="1998.4" cy="1662.6" rx="221.3" ry="237.4" fill="#6b4a22" opacity="0.053" filter="url(#a117-blur9)"/><ellipse cx="686.8" cy="879.3" rx="162.7" ry="91" fill="#6b4a22" opacity="0.070" filter="url(#a117-blur9)"/><ellipse cx="1871.4" cy="565.1" rx="311" ry="271.4" fill="#6b4a22" opacity="0.063" filter="url(#a117-blur9)"/><ellipse cx="726.2" cy="1830.1" rx="132.5" ry="99.3" fill="#6b4a22" opacity="0.036" filter="url(#a117-blur9)"/><g opacity="0.3"><rect y="3" width="2400" height="2" fill="#ece2cb"/><rect y="11" width="2400" height="2" fill="#ece2cb"/><rect y="19" width="2400" height="2" fill="#ece2cb"/><rect y="27" width="2400" height="2" fill="#ece2cb"/><rect y="35" width="2400" height="2" fill="#ece2cb"/><rect y="43" width="2400" height="2" fill="#ece2cb"/><rect y="51" width="2400" height="2" fill="#ece2cb"/><rect y="59" width="2400" height="2" fill="#ece2cb"/><rect y="67" width="2400" height="2" fill="#ece2cb"/><rect y="75" width="2400" height="2" fill="#ece2cb"/><rect y="83" width="2400" height="2" fill="#ece2cb"/><rect y="91" width="2400" height="2" fill="#ece2cb"/><rect y="99" width="2400" height="2" fill="#ece2cb"/><rect y="107" width="2400" height="2" fill="#ece2cb"/><rect y="115" width="2400" height="2" fill="#ece2cb"/><rect y="123" width="2400" height="2" fill="#ece2cb"/><rect y="131" width="2400" height="2" fill="#ece2cb"/><rect y="139" width="2400" height="2" fill="#ece2cb"/><rect y="147" width="2400" height="2" fill="#ece2cb"/><rect y="155" width="2400" height="2" fill="#ece2cb"/><rect y="163" width="2400" height="2" fill="#ece2cb"/><rect y="171" width="2400" height="2" fill="#ece2cb"/><rect y="179" width="2400" height="2" fill="#ece2cb"/><rect y="187" width="2400" height="2" fill="#ece2cb"/><rect y="195" width="2400" height="2" fill="#ece2cb"/><rect y="203" width="2400" height="2" fill="#ece2cb"/><rect y="211" width="2400" height="2" fill="#ece2cb"/><rect y="219" width="2400" height="2" fill="#ece2cb"/><rect y="227" width="2400" height="2" fill="#ece2cb"/><rect y="235" width="2400" height="2" fill="#ece2cb"/><rect y="243" width="2400" height="2" fill="#ece2cb"/><rect y="251" width="2400" height="2" fill="#ece2cb"/><rect y="259" width="2400" height="2" fill="#ece2cb"/><rect y="267" width="2400" height="2" fill="#ece2cb"/><rect y="275" width="2400" height="2" fill="#ece2cb"/><rect y="283" width="2400" height="2" fill="#ece2cb"/><rect y="291" width="2400" height="2" fill="#ece2cb"/><rect y="299" width="2400" height="2" fill="#ece2cb"/><rect y="307" width="2400" height="2" fill="#ece2cb"/><rect y="315" width="2400" height="2" fill="#ece2cb"/><rect y="323" width="2400" height="2" fill="#ece2cb"/><rect y="331" width="2400" height="2" fill="#ece2cb"/><rect y="339" width="2400" height="2" fill="#ece2cb"/><rect y="347" width="2400" height="2" fill="#ece2cb"/><rect y="355" width="2400" height="2" fill="#ece2cb"/><rect y="363" width="2400" height="2" fill="#ece2cb"/><rect y="371" width="2400" height="2" fill="#ece2cb"/><rect y="379" width="2400" height="2" fill="#ece2cb"/><rect y="387" width="2400" height="2" fill="#ece2cb"/><rect y="395" width="2400" height="2" fill="#ece2cb"/><rect y="403" width="2400" height="2" fill="#ece2cb"/><rect y="411" width="2400" height="2" fill="#ece2cb"/><rect y="419" width="2400" height="2" fill="#ece2cb"/><rect y="427" width="2400" height="2" fill="#ece2cb"/><rect y="435" width="2400" height="2" fill="#ece2cb"/><rect y="443" width="2400" height="2" fill="#ece2cb"/><rect y="451" width="2400" height="2" fill="#ece2cb"/><rect y="459" width="2400" height="2" fill="#ece2cb"/><rect y="467" width="2400" height="2" fill="#ece2cb"/><rect y="475" width="2400" height="2" fill="#ece2cb"/><rect y="483" width="2400" height="2" fill="#ece2cb"/><rect y="491" width="2400" height="2" fill="#ece2cb"/><rect y="499" width="2400" height="2" fill="#ece2cb"/><rect y="507" width="2400" height="2" fill="#ece2cb"/><rect y="515" width="2400" height="2" fill="#ece2cb"/><rect y="523" width="2400" height="2" fill="#ece2cb"/><rect y="531" width="2400" height="2" fill="#ece2cb"/><rect y="539" width="2400" height="2" fill="#ece2cb"/><rect y="547" width="2400" height="2" fill="#ece2cb"/><rect y="555" width="2400" height="2" fill="#ece2cb"/><rect y="563" width="2400" height="2" fill="#ece2cb"/><rect y="571" width="2400" height="2" fill="#ece2cb"/><rect y="579" width="2400" height="2" fill="#ece2cb"/><rect y="587" width="2400" height="2" fill="#ece2cb"/><rect y="595" width="2400" height="2" fill="#ece2cb"/><rect y="603" width="2400" height="2" fill="#ece2cb"/><rect y="611" width="2400" height="2" fill="#ece2cb"/><rect y="619" width="2400" height="2" fill="#ece2cb"/><rect y="627" width="2400" height="2" fill="#ece2cb"/><rect y="635" width="2400" height="2" fill="#ece2cb"/><rect y="643" width="2400" height="2" fill="#ece2cb"/><rect y="651" width="2400" height="2" fill="#ece2cb"/><rect y="659" width="2400" height="2" fill="#ece2cb"/><rect y="667" width="2400" height="2" fill="#ece2cb"/><rect y="675" width="2400" height="2" fill="#ece2cb"/><rect y="683" width="2400" height="2" fill="#ece2cb"/><rect y="691" width="2400" height="2" fill="#ece2cb"/><rect y="699" width="2400" height="2" fill="#ece2cb"/><rect y="707" width="2400" height="2" fill="#ece2cb"/><rect y="715" width="2400" height="2" fill="#ece2cb"/><rect y="723" width="2400" height="2" fill="#ece2cb"/><rect y="731" width="2400" height="2" fill="#ece2cb"/><rect y="739" width="2400" height="2" fill="#ece2cb"/><rect y="747" width="2400" height="2" fill="#ece2cb"/><rect y="755" width="2400" height="2" fill="#ece2cb"/><rect y="763" width="2400" height="2" fill="#ece2cb"/><rect y="771" width="2400" height="2" fill="#ece2cb"/><rect y="779" width="2400" height="2" fill="#ece2cb"/><rect y="787" width="2400" height="2" fill="#ece2cb"/><rect y="795" width="2400" height="2" fill="#ece2cb"/><rect y="803" width="2400" height="2" fill="#ece2cb"/><rect y="811" width="2400" height="2" fill="#ece2cb"/><rect y="819" width="2400" height="2" fill="#ece2cb"/><rect y="827" width="2400" height="2" fill="#ece2cb"/><rect y="835" width="2400" height="2" fill="#ece2cb"/><rect y="843" width="2400" height="2" fill="#ece2cb"/><rect y="851" width="2400" height="2" fill="#ece2cb"/><rect y="859" width="2400" height="2" fill="#ece2cb"/><rect y="867" width="2400" height="2" fill="#ece2cb"/><rect y="875" width="2400" height="2" fill="#ece2cb"/><rect y="883" width="2400" height="2" fill="#ece2cb"/><rect y="891" width="2400" height="2" fill="#ece2cb"/><rect y="899" width="2400" height="2" fill="#ece2cb"/><rect y="907" width="2400" height="2" fill="#ece2cb"/><rect y="915" width="2400" height="2" fill="#ece2cb"/><rect y="923" width="2400" height="2" fill="#ece2cb"/><rect y="931" width="2400" height="2" fill="#ece2cb"/><rect y="939" width="2400" height="2" fill="#ece2cb"/><rect y="947" width="2400" height="2" fill="#ece2cb"/><rect y="955" width="2400" height="2" fill="#ece2cb"/><rect y="963" width="2400" height="2" fill="#ece2cb"/><rect y="971" width="2400" height="2" fill="#ece2cb"/><rect y="979" width="2400" height="2" fill="#ece2cb"/><rect y="987" width="2400" height="2" fill="#ece2cb"/><rect y="995" width="2400" height="2" fill="#ece2cb"/><rect y="1003" width="2400" height="2" fill="#ece2cb"/><rect y="1011" width="2400" height="2" fill="#ece2cb"/><rect y="1019" width="2400" height="2" fill="#ece2cb"/><rect y="1027" width="2400" height="2" fill="#ece2cb"/><rect y="1035" width="2400" height="2" fill="#ece2cb"/><rect y="1043" width="2400" height="2" fill="#ece2cb"/><rect y="1051" width="2400" height="2" fill="#ece2cb"/><rect y="1059" width="2400" height="2" fill="#ece2cb"/><rect y="1067" width="2400" height="2" fill="#ece2cb"/><rect y="1075" width="2400" height="2" fill="#ece2cb"/><rect y="1083" width="2400" height="2" fill="#ece2cb"/><rect y="1091" width="2400" height="2" fill="#ece2cb"/><rect y="1099" width="2400" height="2" fill="#ece2cb"/><rect y="1107" width="2400" height="2" fill="#ece2cb"/><rect y="1115" width="2400" height="2" fill="#ece2cb"/><rect y="1123" width="2400" height="2" fill="#ece2cb"/><rect y="1131" width="2400" height="2" fill="#ece2cb"/><rect y="1139" width="2400" height="2" fill="#ece2cb"/><rect y="1147" width="2400" height="2" fill="#ece2cb"/><rect y="1155" width="2400" height="2" fill="#ece2cb"/><rect y="1163" width="2400" height="2" fill="#ece2cb"/><rect y="1171" width="2400" height="2" fill="#ece2cb"/><rect y="1179" width="2400" height="2" fill="#ece2cb"/><rect y="1187" width="2400" height="2" fill="#ece2cb"/><rect y="1195" width="2400" height="2" fill="#ece2cb"/><rect y="1203" width="2400" height="2" fill="#ece2cb"/><rect y="1211" width="2400" height="2" fill="#ece2cb"/><rect y="1219" width="2400" height="2" fill="#ece2cb"/><rect y="1227" width="2400" height="2" fill="#ece2cb"/><rect y="1235" width="2400" height="2" fill="#ece2cb"/><rect y="1243" width="2400" height="2" fill="#ece2cb"/><rect y="1251" width="2400" height="2" fill="#ece2cb"/><rect y="1259" width="2400" height="2" fill="#ece2cb"/><rect y="1267" width="2400" height="2" fill="#ece2cb"/><rect y="1275" width="2400" height="2" fill="#ece2cb"/><rect y="1283" width="2400" height="2" fill="#ece2cb"/><rect y="1291" width="2400" height="2" fill="#ece2cb"/><rect y="1299" width="2400" height="2" fill="#ece2cb"/><rect y="1307" width="2400" height="2" fill="#ece2cb"/><rect y="1315" width="2400" height="2" fill="#ece2cb"/><rect y="1323" width="2400" height="2" fill="#ece2cb"/><rect y="1331" width="2400" height="2" fill="#ece2cb"/><rect y="1339" width="2400" height="2" fill="#ece2cb"/><rect y="1347" width="2400" height="2" fill="#ece2cb"/><rect y="1355" width="2400" height="2" fill="#ece2cb"/><rect y="1363" width="2400" height="2" fill="#ece2cb"/><rect y="1371" width="2400" height="2" fill="#ece2cb"/><rect y="1379" width="2400" height="2" fill="#ece2cb"/><rect y="1387" width="2400" height="2" fill="#ece2cb"/><rect y="1395" width="2400" height="2" fill="#ece2cb"/><rect y="1403" width="2400" height="2" fill="#ece2cb"/><rect y="1411" width="2400" height="2" fill="#ece2cb"/><rect y="1419" width="2400" height="2" fill="#ece2cb"/><rect y="1427" width="2400" height="2" fill="#ece2cb"/><rect y="1435" width="2400" height="2" fill="#ece2cb"/><rect y="1443" width="2400" height="2" fill="#ece2cb"/><rect y="1451" width="2400" height="2" fill="#ece2cb"/><rect y="1459" width="2400" height="2" fill="#ece2cb"/><rect y="1467" width="2400" height="2" fill="#ece2cb"/><rect y="1475" width="2400" height="2" fill="#ece2cb"/><rect y="1483" width="2400" height="2" fill="#ece2cb"/><rect y="1491" width="2400" height="2" fill="#ece2cb"/><rect y="1499" width="2400" height="2" fill="#ece2cb"/><rect y="1507" width="2400" height="2" fill="#ece2cb"/><rect y="1515" width="2400" height="2" fill="#ece2cb"/><rect y="1523" width="2400" height="2" fill="#ece2cb"/><rect y="1531" width="2400" height="2" fill="#ece2cb"/><rect y="1539" width="2400" height="2" fill="#ece2cb"/><rect y="1547" width="2400" height="2" fill="#ece2cb"/><rect y="1555" width="2400" height="2" fill="#ece2cb"/><rect y="1563" width="2400" height="2" fill="#ece2cb"/><rect y="1571" width="2400" height="2" fill="#ece2cb"/><rect y="1579" width="2400" height="2" fill="#ece2cb"/><rect y="1587" width="2400" height="2" fill="#ece2cb"/><rect y="1595" width="2400" height="2" fill="#ece2cb"/><rect y="1603" width="2400" height="2" fill="#ece2cb"/><rect y="1611" width="2400" height="2" fill="#ece2cb"/><rect y="1619" width="2400" height="2" fill="#ece2cb"/><rect y="1627" width="2400" height="2" fill="#ece2cb"/><rect y="1635" width="2400" height="2" fill="#ece2cb"/><rect y="1643" width="2400" height="2" fill="#ece2cb"/><rect y="1651" width="2400" height="2" fill="#ece2cb"/><rect y="1659" width="2400" height="2" fill="#ece2cb"/><rect y="1667" width="2400" height="2" fill="#ece2cb"/><rect y="1675" width="2400" height="2" fill="#ece2cb"/><rect y="1683" width="2400" height="2" fill="#ece2cb"/><rect y="1691" width="2400" height="2" fill="#ece2cb"/><rect y="1699" width="2400" height="2" fill="#ece2cb"/><rect y="1707" width="2400" height="2" fill="#ece2cb"/><rect y="1715" width="2400" height="2" fill="#ece2cb"/><rect y="1723" width="2400" height="2" fill="#ece2cb"/><rect y="1731" width="2400" height="2" fill="#ece2cb"/><rect y="1739" width="2400" height="2" fill="#ece2cb"/><rect y="1747" width="2400" height="2" fill="#ece2cb"/><rect y="1755" width="2400" height="2" fill="#ece2cb"/><rect y="1763" width="2400" height="2" fill="#ece2cb"/><rect y="1771" width="2400" height="2" fill="#ece2cb"/><rect y="1779" width="2400" height="2" fill="#ece2cb"/><rect y="1787" width="2400" height="2" fill="#ece2cb"/><rect y="1795" width="2400" height="2" fill="#ece2cb"/><rect y="1803" width="2400" height="2" fill="#ece2cb"/><rect y="1811" width="2400" height="2" fill="#ece2cb"/><rect y="1819" width="2400" height="2" fill="#ece2cb"/><rect y="1827" width="2400" height="2" fill="#ece2cb"/><rect y="1835" width="2400" height="2" fill="#ece2cb"/><rect y="1843" width="2400" height="2" fill="#ece2cb"/><rect y="1851" width="2400" height="2" fill="#ece2cb"/><rect y="1859" width="2400" height="2" fill="#ece2cb"/><rect y="1867" width="2400" height="2" fill="#ece2cb"/><rect y="1875" width="2400" height="2" fill="#ece2cb"/><rect y="1883" width="2400" height="2" fill="#ece2cb"/><rect y="1891" width="2400" height="2" fill="#ece2cb"/><rect y="1899" width="2400" height="2" fill="#ece2cb"/><rect y="1907" width="2400" height="2" fill="#ece2cb"/><rect y="1915" width="2400" height="2" fill="#ece2cb"/><rect y="1923" width="2400" height="2" fill="#ece2cb"/><rect y="1931" width="2400" height="2" fill="#ece2cb"/><rect y="1939" width="2400" height="2" fill="#ece2cb"/><rect y="1947" width="2400" height="2" fill="#ece2cb"/><rect y="1955" width="2400" height="2" fill="#ece2cb"/><rect y="1963" width="2400" height="2" fill="#ece2cb"/><rect y="1971" width="2400" height="2" fill="#ece2cb"/><rect y="1979" width="2400" height="2" fill="#ece2cb"/><rect y="1987" width="2400" height="2" fill="#ece2cb"/><rect y="1995" width="2400" height="2" fill="#ece2cb"/><rect y="2003" width="2400" height="2" fill="#ece2cb"/><rect y="2011" width="2400" height="2" fill="#ece2cb"/><rect y="2019" width="2400" height="2" fill="#ece2cb"/><rect y="2027" width="2400" height="2" fill="#ece2cb"/><rect y="2035" width="2400" height="2" fill="#ece2cb"/><rect y="2043" width="2400" height="2" fill="#ece2cb"/><rect y="2051" width="2400" height="2" fill="#ece2cb"/><rect y="2059" width="2400" height="2" fill="#ece2cb"/><rect y="2067" width="2400" height="2" fill="#ece2cb"/><rect y="2075" width="2400" height="2" fill="#ece2cb"/><rect y="2083" width="2400" height="2" fill="#ece2cb"/><rect y="2091" width="2400" height="2" fill="#ece2cb"/><rect y="2099" width="2400" height="2" fill="#ece2cb"/><rect y="2107" width="2400" height="2" fill="#ece2cb"/><rect y="2115" width="2400" height="2" fill="#ece2cb"/><rect y="2123" width="2400" height="2" fill="#ece2cb"/><rect y="2131" width="2400" height="2" fill="#ece2cb"/><rect y="2139" width="2400" height="2" fill="#ece2cb"/><rect y="2147" width="2400" height="2" fill="#ece2cb"/><rect y="2155" width="2400" height="2" fill="#ece2cb"/><rect y="2163" width="2400" height="2" fill="#ece2cb"/><rect y="2171" width="2400" height="2" fill="#ece2cb"/><rect y="2179" width="2400" height="2" fill="#ece2cb"/><rect y="2187" width="2400" height="2" fill="#ece2cb"/><rect y="2195" width="2400" height="2" fill="#ece2cb"/><rect y="2203" width="2400" height="2" fill="#ece2cb"/><rect y="2211" width="2400" height="2" fill="#ece2cb"/><rect y="2219" width="2400" height="2" fill="#ece2cb"/><rect y="2227" width="2400" height="2" fill="#ece2cb"/><rect y="2235" width="2400" height="2" fill="#ece2cb"/><rect y="2243" width="2400" height="2" fill="#ece2cb"/><rect y="2251" width="2400" height="2" fill="#ece2cb"/><rect y="2259" width="2400" height="2" fill="#ece2cb"/><rect y="2267" width="2400" height="2" fill="#ece2cb"/><rect y="2275" width="2400" height="2" fill="#ece2cb"/><rect y="2283" width="2400" height="2" fill="#ece2cb"/><rect y="2291" width="2400" height="2" fill="#ece2cb"/><rect y="2299" width="2400" height="2" fill="#ece2cb"/><rect y="2307" width="2400" height="2" fill="#ece2cb"/><rect y="2315" width="2400" height="2" fill="#ece2cb"/><rect y="2323" width="2400" height="2" fill="#ece2cb"/><rect y="2331" width="2400" height="2" fill="#ece2cb"/><rect y="2339" width="2400" height="2" fill="#ece2cb"/><rect y="2347" width="2400" height="2" fill="#ece2cb"/><rect y="2355" width="2400" height="2" fill="#ece2cb"/><rect y="2363" width="2400" height="2" fill="#ece2cb"/><rect y="2371" width="2400" height="2" fill="#ece2cb"/><rect y="2379" width="2400" height="2" fill="#ece2cb"/><rect y="2387" width="2400" height="2" fill="#ece2cb"/><rect y="2395" width="2400" height="2" fill="#ece2cb"/><rect y="2403" width="2400" height="2" fill="#ece2cb"/><rect y="2411" width="2400" height="2" fill="#ece2cb"/><rect y="2419" width="2400" height="2" fill="#ece2cb"/><rect y="2427" width="2400" height="2" fill="#ece2cb"/><rect y="2435" width="2400" height="2" fill="#ece2cb"/><rect y="2443" width="2400" height="2" fill="#ece2cb"/><rect y="2451" width="2400" height="2" fill="#ece2cb"/><rect y="2459" width="2400" height="2" fill="#ece2cb"/><rect y="2467" width="2400" height="2" fill="#ece2cb"/><rect y="2475" width="2400" height="2" fill="#ece2cb"/><rect y="2483" width="2400" height="2" fill="#ece2cb"/><rect y="2491" width="2400" height="2" fill="#ece2cb"/><rect y="2499" width="2400" height="2" fill="#ece2cb"/><rect y="2507" width="2400" height="2" fill="#ece2cb"/><rect y="2515" width="2400" height="2" fill="#ece2cb"/><rect y="2523" width="2400" height="2" fill="#ece2cb"/><rect y="2531" width="2400" height="2" fill="#ece2cb"/><rect y="2539" width="2400" height="2" fill="#ece2cb"/><rect y="2547" width="2400" height="2" fill="#ece2cb"/><rect y="2555" width="2400" height="2" fill="#ece2cb"/><rect y="2563" width="2400" height="2" fill="#ece2cb"/><rect y="2571" width="2400" height="2" fill="#ece2cb"/><rect y="2579" width="2400" height="2" fill="#ece2cb"/><rect y="2587" width="2400" height="2" fill="#ece2cb"/><rect y="2595" width="2400" height="2" fill="#ece2cb"/><rect y="2603" width="2400" height="2" fill="#ece2cb"/><rect y="2611" width="2400" height="2" fill="#ece2cb"/><rect y="2619" width="2400" height="2" fill="#ece2cb"/><rect y="2627" width="2400" height="2" fill="#ece2cb"/><rect y="2635" width="2400" height="2" fill="#ece2cb"/><rect y="2643" width="2400" height="2" fill="#ece2cb"/><rect y="2651" width="2400" height="2" fill="#ece2cb"/><rect y="2659" width="2400" height="2" fill="#ece2cb"/><rect y="2667" width="2400" height="2" fill="#ece2cb"/><rect y="2675" width="2400" height="2" fill="#ece2cb"/><rect y="2683" width="2400" height="2" fill="#ece2cb"/><rect y="2691" width="2400" height="2" fill="#ece2cb"/><rect y="2699" width="2400" height="2" fill="#ece2cb"/><rect y="2707" width="2400" height="2" fill="#ece2cb"/><rect y="2715" width="2400" height="2" fill="#ece2cb"/><rect y="2723" width="2400" height="2" fill="#ece2cb"/><rect y="2731" width="2400" height="2" fill="#ece2cb"/><rect y="2739" width="2400" height="2" fill="#ece2cb"/><rect y="2747" width="2400" height="2" fill="#ece2cb"/><rect y="2755" width="2400" height="2" fill="#ece2cb"/><rect y="2763" width="2400" height="2" fill="#ece2cb"/><rect y="2771" width="2400" height="2" fill="#ece2cb"/><rect y="2779" width="2400" height="2" fill="#ece2cb"/><rect y="2787" width="2400" height="2" fill="#ece2cb"/><rect y="2795" width="2400" height="2" fill="#ece2cb"/><rect y="2803" width="2400" height="2" fill="#ece2cb"/><rect y="2811" width="2400" height="2" fill="#ece2cb"/><rect y="2819" width="2400" height="2" fill="#ece2cb"/><rect y="2827" width="2400" height="2" fill="#ece2cb"/><rect y="2835" width="2400" height="2" fill="#ece2cb"/><rect y="2843" width="2400" height="2" fill="#ece2cb"/><rect y="2851" width="2400" height="2" fill="#ece2cb"/><rect y="2859" width="2400" height="2" fill="#ece2cb"/><rect y="2867" width="2400" height="2" fill="#ece2cb"/><rect y="2875" width="2400" height="2" fill="#ece2cb"/><rect y="2883" width="2400" height="2" fill="#ece2cb"/><rect y="2891" width="2400" height="2" fill="#ece2cb"/><rect y="2899" width="2400" height="2" fill="#ece2cb"/><rect y="2907" width="2400" height="2" fill="#ece2cb"/><rect y="2915" width="2400" height="2" fill="#ece2cb"/><rect y="2923" width="2400" height="2" fill="#ece2cb"/><rect y="2931" width="2400" height="2" fill="#ece2cb"/><rect y="2939" width="2400" height="2" fill="#ece2cb"/><rect y="2947" width="2400" height="2" fill="#ece2cb"/><rect y="2955" width="2400" height="2" fill="#ece2cb"/><rect y="2963" width="2400" height="2" fill="#ece2cb"/><rect y="2971" width="2400" height="2" fill="#ece2cb"/><rect y="2979" width="2400" height="2" fill="#ece2cb"/><rect y="2987" width="2400" height="2" fill="#ece2cb"/><rect y="2995" width="2400" height="2" fill="#ece2cb"/></g><rect x="88" y="88" width="2224" height="2824" fill="none" stroke="#3a2c1a" stroke-width="4" opacity="0.2"/><rect x="94" y="94" width="2212" height="2812" fill="none" stroke="#fff6e0" stroke-width="2" opacity="0.25"/><circle cx="2194.2" cy="640" r="14.4" fill="#8a5a2e" opacity="0.108"/><circle cx="236.5" cy="2356.8" r="16" fill="#8a5a2e" opacity="0.103"/><circle cx="1832.6" cy="1484.7" r="9.4" fill="#8a5a2e" opacity="0.096"/><circle cx="1442.9" cy="1510.5" r="13.8" fill="#8a5a2e" opacity="0.085"/><circle cx="1377.4" cy="2305.9" r="5.6" fill="#8a5a2e" opacity="0.128"/><circle cx="1823.4" cy="1421.1" r="10.3" fill="#8a5a2e" opacity="0.062"/><circle cx="1037.2" cy="938.7" r="6.2" fill="#8a5a2e" opacity="0.071"/><circle cx="1355" cy="624.1" r="14.6" fill="#8a5a2e" opacity="0.054"/><circle cx="1204.6" cy="988.5" r="13.1" fill="#8a5a2e" opacity="0.117"/><circle cx="1702.2" cy="1771.7" r="15.6" fill="#8a5a2e" opacity="0.047"/><circle cx="2074.3" cy="157.6" r="14.3" fill="#8a5a2e" opacity="0.113"/><circle cx="2055.2" cy="1196.1" r="4.3" fill="#8a5a2e" opacity="0.078"/><circle cx="192.2" cy="2821.3" r="3" fill="#8a5a2e" opacity="0.049"/><circle cx="1716.3" cy="190" r="5.9" fill="#8a5a2e" opacity="0.069"/><circle cx="1192.5" cy="456.6" r="12.6" fill="#8a5a2e" opacity="0.090"/><circle cx="157.2" cy="2729.9" r="8.1" fill="#8a5a2e" opacity="0.092"/><circle cx="1154" cy="2873.9" r="8.3" fill="#8a5a2e" opacity="0.105"/><circle cx="710" cy="1150.2" r="10.1" fill="#8a5a2e" opacity="0.053"/><circle cx="616.2" cy="2889.8" r="15.6" fill="#8a5a2e" opacity="0.125"/><circle cx="2262.6" cy="963.4" r="8.1" fill="#8a5a2e" opacity="0.042"/><circle cx="1141.3" cy="1229" r="9.6" fill="#8a5a2e" opacity="0.054"/><circle cx="145.5" cy="1195.2" r="11.2" fill="#8a5a2e" opacity="0.041"/><circle cx="126.9" cy="1478.4" r="13.5" fill="#8a5a2e" opacity="0.105"/><circle cx="709.1" cy="2897.6" r="9.1" fill="#8a5a2e" opacity="0.063"/><circle cx="2218.6" cy="2716.6" r="13.4" fill="#8a5a2e" opacity="0.054"/><circle cx="1037.6" cy="588.7" r="7.4" fill="#8a5a2e" opacity="0.047"/><circle cx="593.9" cy="1385.7" r="12.4" fill="#8a5a2e" opacity="0.109"/><rect width="2400" height="3000" fill="url(#a117-vig)"/></svg>